<svg xmlns="http://www.w3.org/2000/svg" width="35" height="35" viewBox="0 0 35 35">
  <path id="Icon_awesome-codepen" data-name="Icon awesome-codepen" d="M34.336,10.917,18.34.253a1.52,1.52,0,0,0-1.68,0l-16,10.664A1.529,1.529,0,0,0,0,12.167V22.831a1.529,1.529,0,0,0,.664,1.25l16,10.666a1.52,1.52,0,0,0,1.68,0l16-10.666A1.529,1.529,0,0,0,35,22.831V12.167a1.529,1.529,0,0,0-.664-1.25ZM19,4.316l11.777,7.852-5.254,3.516L19,11.327ZM16,4.316v7.012L9.473,15.683,4.219,12.167ZM3.008,14.98l3.77,2.52-3.77,2.52ZM16,30.683,4.219,22.831l5.254-3.516L16,23.671Zm1.5-9.629L12.187,17.5,17.5,13.945,22.813,17.5ZM19,30.683V23.671l6.523-4.356,5.254,3.516ZM31.992,20.019l-3.77-2.52,3.77-2.52Z" transform="translate(0 0)"/>
</svg>
