<svg xmlns="http://www.w3.org/2000/svg" xmlns:xlink="http://www.w3.org/1999/xlink" width="55" height="55" viewBox="0 0 55 55">
  <defs>
    <linearGradient id="linear-gradient" x1="0.5" x2="0.5" y2="1" gradientUnits="objectBoundingBox">
      <stop offset="0" stop-color="#9a9a9a"/>
      <stop offset="1"/>
    </linearGradient>
  </defs>
  <g id="Group_2478" data-name="Group 2478" transform="translate(-1093 -3085)">
    <circle id="Ellipse_17" data-name="Ellipse 17" cx="27.5" cy="27.5" r="27.5" transform="translate(1093 3085)" fill="url(#linear-gradient)"/>
    <path id="plug-svgrepo-com" d="M26.988,13.094a1.273,1.273,0,0,0-1.8,0l-5.211,5.211-3.722-3.722,5.211-5.211a1.272,1.272,0,0,0-1.8-1.8l-5.211,5.211L11.974,10.3a1.273,1.273,0,0,0-1.8,0L5.46,15.017A10,10,0,0,0,2.544,22.09a10.109,10.109,0,0,0,2.047,6.08L.372,32.389a1.273,1.273,0,0,0,0,1.8,1.524,1.524,0,0,0,.931.31,1.263,1.263,0,0,0,.931-.372l4.219-4.219a9.721,9.721,0,0,0,6.08,2.047,10.108,10.108,0,0,0,7.073-2.916l4.715-4.715a1.263,1.263,0,0,0,.372-.931,1.368,1.368,0,0,0-.372-.931l-2.42-2.42,5.211-5.211a1.332,1.332,0,0,0-.124-1.737ZM17.744,27.239h0a7.223,7.223,0,0,1-5.211,2.171,7.121,7.121,0,0,1-5.211-2.171,7.34,7.34,0,0,1,0-10.423l3.785-3.785L21.528,23.455l-3.785,3.785Z" transform="translate(1107.137 3090.951)" fill="#fff"/>
  </g>
</svg>
