<svg width="70" height="70" viewBox="0 0 70 70" fill="none" xmlns="http://www.w3.org/2000/svg">
<rect width="70" height="70" rx="35" fill="#F48120"/>
<path fill-rule="evenodd" clip-rule="evenodd" d="M26.8979 32.2696H28.4795V34.4396C28.1475 34.8294 27.9654 35.3248 27.9659 35.8368C27.9659 37.0277 28.9357 37.9993 30.1266 37.9993C31.3171 37.9993 32.2892 37.0272 32.2892 35.8368C32.2892 35.3043 32.0949 34.816 31.7737 34.4388V32.2696H32.0262V33.2176C32.0262 33.4367 32.0917 33.6508 32.2143 33.8323C32.337 34.0138 32.5111 34.1545 32.7143 34.2363C32.9175 34.3181 33.1405 34.3372 33.3547 34.2912C33.5689 34.2453 33.7644 34.1363 33.9161 33.9783L34.568 33.2997L35.7779 47.7504H18.5438L19.9273 32.2696H21.8481V34.4388C21.5269 34.816 21.3327 35.3043 21.3327 35.8368C21.3327 37.0272 22.3048 37.9993 23.4952 37.9993C24.6862 37.9993 25.656 37.0277 25.656 35.8368C25.6565 35.3248 25.4743 34.8294 25.1423 34.4396V32.2696H25.7999V31.5137C25.7999 30.434 26.2487 29.4538 26.9691 28.7506C26.9167 28.7476 26.8642 28.7462 26.8118 28.7462C25.2899 28.7462 24.0442 29.9917 24.0442 31.5137V34.9271C24.3519 35.1135 24.558 35.4515 24.558 35.8368C24.558 36.4228 24.0812 36.9013 23.4952 36.9013C22.9093 36.9013 22.4307 36.4228 22.4307 35.8368C22.4307 35.4513 22.6378 35.1131 22.9462 34.9268V31.5137C22.9462 29.388 24.686 27.6481 26.8118 27.6481C27.3005 27.6477 27.7848 27.7409 28.2385 27.9227C28.9493 28.2142 29.9408 28.9837 30.2983 29.8523C30.5472 30.3708 30.6761 30.9386 30.6756 31.5137V34.9268C30.9841 35.1131 31.1912 35.4513 31.1912 35.8368C31.1912 36.4228 30.7126 36.9013 30.1266 36.9013C29.5407 36.9013 29.0639 36.4228 29.0639 35.8368C29.0639 35.4515 29.2699 35.1135 29.5776 34.9271V31.5137C29.5776 30.5128 29.0396 29.6315 28.2384 29.1452C27.4366 29.6315 26.8979 30.5128 26.8979 31.5137V32.2696ZM35.5836 32.2696H36.8734L38.9486 49.1732L37.1945 51.5093L35.5836 32.2696ZM36.1045 51.6506H18.1953L18.4457 48.8484H35.8698M51.802 26.8266C51.802 27.9862 50.8558 28.9293 49.6961 28.9293H37.2438L33.1243 33.2176V28.9293H31.3433C30.1836 28.9293 29.2374 27.9862 29.2374 26.8266V20.4536C29.2374 19.2939 30.1836 18.3477 31.3433 18.3477H49.6961C50.8558 18.3477 51.802 19.2939 51.802 20.4536V26.8266ZM47.6803 21.0068C47.6386 20.8952 47.48 20.8952 47.4384 21.0068L46.8161 22.6436C46.8076 22.6673 46.7921 22.6879 46.7718 22.7028C46.7514 22.7176 46.7271 22.726 46.7019 22.7269L44.9521 22.8129C44.8325 22.8183 44.7842 22.9688 44.8769 23.0427L46.2423 24.1407C46.284 24.173 46.3001 24.224 46.2867 24.2751L45.8271 25.9657C45.7961 26.0799 45.9238 26.1727 46.0233 26.1082L47.4881 25.1486C47.509 25.1342 47.5338 25.1265 47.5593 25.1265C47.5847 25.1265 47.6096 25.1342 47.6305 25.1486L49.0967 26.1082C49.1962 26.1727 49.3238 26.0799 49.2916 25.9657L48.832 24.2751C48.8185 24.224 48.8347 24.173 48.8763 24.1407L50.2417 23.0427C50.3344 22.9688 50.2861 22.8183 50.1664 22.8129L48.4167 22.7269C48.3915 22.726 48.3672 22.7176 48.3468 22.7028C48.3264 22.6879 48.311 22.6673 48.3025 22.6436L47.6803 21.0068ZM33.6011 21.0068C33.5594 20.8952 33.4008 20.8952 33.3592 21.0068L32.737 22.6436C32.7284 22.6673 32.713 22.6879 32.6926 22.7028C32.6723 22.7176 32.6479 22.726 32.6227 22.7269L30.873 22.8129C30.7534 22.8183 30.705 22.9688 30.7977 23.0427L32.1631 24.1407C32.2048 24.173 32.2209 24.224 32.2075 24.2751L31.7479 25.9657C31.7169 26.0799 31.8446 26.1727 31.9441 26.1082L33.4089 25.1486C33.4299 25.1342 33.4547 25.1265 33.4802 25.1265C33.5056 25.1265 33.5304 25.1342 33.5514 25.1486L35.0175 26.1082C35.117 26.1727 35.2446 26.0799 35.2124 25.9657L34.7528 24.2751C34.7393 24.224 34.7555 24.173 34.7972 24.1407L36.1625 23.0427C36.2552 22.9688 36.2069 22.8183 36.0873 22.8129L34.3375 22.7269C34.3123 22.726 34.288 22.7176 34.2676 22.7028C34.2473 22.6879 34.2319 22.6673 34.2233 22.6436L33.6011 21.0068ZM40.6407 21.0068C40.599 20.8952 40.4404 20.8952 40.3988 21.0068L39.7765 22.6436C39.768 22.6673 39.7526 22.6879 39.7322 22.7028C39.7118 22.7176 39.6875 22.726 39.6623 22.7269L37.9126 22.8129C37.793 22.8183 37.7446 22.9688 37.8373 23.0427L39.2027 24.1407C39.2444 24.173 39.2605 24.224 39.2471 24.2751L38.7875 25.9657C38.7565 26.0799 38.8842 26.1727 38.9837 26.1082L40.4485 25.1486C40.4695 25.1342 40.4943 25.1265 40.5197 25.1265C40.5452 25.1265 40.57 25.1342 40.5909 25.1486L42.0571 26.1082C42.1566 26.1727 42.2842 26.0799 42.252 25.9657L41.7924 24.2751C41.7789 24.224 41.7951 24.173 41.8367 24.1407L43.2021 23.0427C43.2948 22.9688 43.2465 22.8183 43.1268 22.8129L41.3771 22.7269C41.3519 22.726 41.3276 22.7176 41.3072 22.7028C41.2869 22.6879 41.2714 22.6673 41.2629 22.6436L40.6407 21.0068Z" fill="white"/>
</svg>
