<svg width="70" height="70" viewBox="0 0 70 70" fill="none" xmlns="http://www.w3.org/2000/svg">
<rect width="70" height="70" rx="35" fill="#F48120"/>
<path d="M37.5758 42.8395C37.5293 42.6577 37.4181 42.499 37.2631 42.3933C37.1081 42.2876 36.9198 42.2421 36.7336 42.2652C36.048 42.3406 35.3589 42.3798 34.6691 42.3828C32.002 42.3799 29.445 41.3191 27.559 39.4332C25.6731 37.5472 24.6123 34.9902 24.6094 32.323V29.2414C24.6094 28.5931 24.8669 27.9713 25.3254 27.5129C25.7838 27.0544 26.4056 26.7969 27.0539 26.7969H42.9461C43.5944 26.7969 44.2162 27.0544 44.6746 27.5129C45.1331 27.9713 45.3906 28.5931 45.3906 29.2414V31.5574C45.3906 31.7605 45.4713 31.9552 45.6149 32.0988C45.7585 32.2424 45.9532 32.323 46.1562 32.323H47.3594C47.5624 32.323 47.7572 32.2424 47.9008 32.0988C48.0443 31.9552 48.125 31.7605 48.125 31.5574V29.2414C48.125 27.8679 47.5794 26.5506 46.6081 25.5794C45.6369 24.6081 44.3196 24.0625 42.9461 24.0625H36.3672V21.5469C36.3672 21.3438 36.2865 21.1491 36.1429 21.0055C35.9994 20.8619 35.8046 20.7812 35.6016 20.7812H34.3984C34.1954 20.7812 34.0006 20.8619 33.8571 21.0055C33.7135 21.1491 33.6328 21.3438 33.6328 21.5469V24.0625H27.0539C25.6804 24.0625 24.3631 24.6081 23.3919 25.5794C22.4206 26.5506 21.875 27.8679 21.875 29.2414V32.323C21.8786 35.7152 23.2277 38.9673 25.6263 41.3659C28.0249 43.7645 31.277 45.1136 34.6691 45.1172C35.5247 45.1152 36.3793 45.0622 37.2285 44.9586C37.334 44.9436 37.4352 44.9067 37.5257 44.8505C37.6162 44.7942 37.694 44.7198 37.7542 44.6318C37.8144 44.5439 37.8556 44.4444 37.8753 44.3396C37.8949 44.2349 37.8926 44.1272 37.8684 44.0234L37.5758 42.8395Z" fill="white"/>
<path d="M30.625 35C31.8331 35 32.8125 34.0206 32.8125 32.8125C32.8125 31.6044 31.8331 30.625 30.625 30.625C29.4169 30.625 28.4375 31.6044 28.4375 32.8125C28.4375 34.0206 29.4169 35 30.625 35Z" fill="white"/>
<path d="M39.375 35C40.5831 35 41.5625 34.0206 41.5625 32.8125C41.5625 31.6044 40.5831 30.625 39.375 30.625C38.1669 30.625 37.1875 31.6044 37.1875 32.8125C37.1875 34.0206 38.1669 35 39.375 35Z" fill="white"/>
<path d="M47.9483 43.0295L45.6296 41.8346L46.4663 36.3959C46.4815 36.2983 46.4661 36.1984 46.4222 36.1098C46.3784 36.0213 46.3082 35.9485 46.2213 35.9015C46.1344 35.8544 46.0351 35.8354 45.937 35.8471C45.8388 35.8588 45.7467 35.9005 45.6733 35.9666L39.8983 41.1619C39.8404 41.2147 39.7964 41.2808 39.7701 41.3546C39.7437 41.4283 39.7359 41.5074 39.7472 41.5848C39.7586 41.6623 39.7887 41.7358 39.8351 41.7989C39.8815 41.862 39.9426 41.9127 40.0131 41.9467L42.3401 43.0541L41.5198 48.419C41.5052 48.5158 41.5207 48.6148 41.5642 48.7026C41.6076 48.7903 41.677 48.8626 41.7628 48.9097C41.8487 48.9568 41.9469 48.9765 42.0443 48.966C42.1416 48.9555 42.2334 48.9153 42.3073 48.851L48.0495 43.8006C48.105 43.7487 48.1473 43.6842 48.1729 43.6127C48.1985 43.5411 48.2067 43.4645 48.1968 43.3891C48.1869 43.3137 48.1592 43.2418 48.116 43.1793C48.0728 43.1167 48.0153 43.0654 47.9483 43.0295Z" fill="white"/>
</svg>
