<svg width="70" height="70" viewBox="0 0 70 70" fill="none" xmlns="http://www.w3.org/2000/svg">
<rect width="70" height="70" rx="35" fill="#F48120"/>
<g clip-path="url(#clip0_1_14)">
<path d="M17.5 36.2504L27.3062 41.8891V52.4606L18.55 47.3952C17.8999 47.0194 17.5 46.3247 17.5 45.5725V36.2504ZM33.3286 37.241L28.3315 40.1143L17.9744 34.1593V34.1587C18.1349 33.9619 18.33 33.7962 18.55 33.6695L26.9979 28.7824V34.1669C26.9979 35.8618 28.378 37.241 30.074 37.241L33.3286 37.241ZM39.1631 37.241V45.6101C39.1631 46.363 38.7632 47.0577 38.1131 47.4327L29.4123 52.4675L29.3569 52.4982V41.8891L37.4404 37.241H39.1631ZM47.4954 24.5776C47.4954 25.1194 46.9848 25.5763 46.3811 25.5763C46.1385 25.5763 45.7324 25.5784 45.3441 25.5798C45.3428 25.2027 45.34 23.9737 45.3387 23.5781H46.3811C46.9848 23.5782 47.4954 24.0359 47.4954 24.5776Z" fill="white"/>
<path d="M51.4729 17.5H30.0723C29.5063 17.5 29.0469 17.9591 29.0469 18.5247V34.1686C29.0469 34.7343 29.5063 35.1933 30.0723 35.1933H42.2006V39.2921C42.1726 40.1516 43.2868 40.6509 43.9109 40.0546L49.3284 35.1933H51.4729C52.0389 35.1933 52.4982 34.7343 52.4982 34.1686V18.5247C52.4982 17.9591 52.0389 17.5 51.4729 17.5ZM39.5407 31.3015C39.0109 31.5016 38.4189 31.2339 38.2193 30.7044L37.7477 29.4556H34.4616L33.9845 30.7079C33.8286 31.1164 33.439 31.3678 33.0261 31.3678C32.9051 31.3678 32.7813 31.3459 32.661 31.3002C32.1319 31.0993 31.8667 30.5071 32.0684 29.9783L34.9941 22.3005C34.9969 22.293 35.0003 22.2848 35.0037 22.2773C35.0935 22.0564 35.2472 21.8673 35.4451 21.7343C35.643 21.6013 35.8761 21.5304 36.1146 21.5306H36.1159C36.6054 21.5306 37.0415 21.823 37.2274 22.2752C37.2315 22.2841 37.235 22.2937 37.2384 22.3033L40.1382 29.9811C40.3378 30.5104 40.0705 31.102 39.5407 31.3015ZM49.2888 29.6661C49.6627 30.091 49.6217 30.7379 49.1965 31.1123C48.7728 31.4848 48.1251 31.4462 47.7493 31.02L45.3314 28.2745V30.3431C45.3314 30.9088 44.8721 31.3678 44.3061 31.3678C43.7394 31.3678 43.2807 30.9087 43.2807 30.3431V22.5552C43.2807 21.9896 43.7394 21.5305 44.3061 21.5305H46.3794C48.1246 21.5305 49.5444 22.8982 49.5444 24.5794C49.5444 25.9299 48.6271 27.0783 47.361 27.4773L49.2888 29.6661ZM35.243 27.4062H36.9738L36.1125 25.1245L35.243 27.4062Z" fill="white"/>
</g>
<defs>
<clipPath id="clip0_1_14">
<rect width="35" height="35" fill="white" transform="translate(17.5 17.5)"/>
</clipPath>
</defs>
</svg>
