<svg width="70" height="70" viewBox="0 0 70 70" fill="none" xmlns="http://www.w3.org/2000/svg">
<rect width="70" height="70" rx="35" fill="#F48120"/>
<path d="M27.1934 41.3062H28.7978V40.355C28.7978 40.2361 28.8391 40.1208 28.9145 40.0289C28.99 39.9369 29.0949 39.8739 29.2116 39.8506L31.1289 39.4661C31.2925 38.8782 31.524 38.3113 31.8186 37.7768L30.7367 36.1504C30.6709 36.0513 30.6415 35.9325 30.6534 35.8142C30.6653 35.6959 30.7178 35.5853 30.802 35.5013L32.5618 33.7472C32.6458 33.6634 32.7563 33.6113 32.8743 33.5995C32.9924 33.5878 33.1109 33.6173 33.2098 33.6829L34.8389 34.7632C35.3703 34.4616 35.9368 34.2263 36.5256 34.0627L36.91 32.1455C36.9334 32.0288 36.9963 31.9238 37.0883 31.8484C37.1803 31.773 37.2955 31.7317 37.4145 31.7316H39.9067C40.0256 31.7317 40.1409 31.773 40.2328 31.8484C40.3248 31.9238 40.3878 32.0288 40.4111 32.1455L40.7961 34.0627C41.3844 34.2259 41.949 34.4606 42.4828 34.7632L44.1113 33.6829C44.2102 33.6173 44.3287 33.5878 44.4468 33.5995C44.5649 33.6113 44.6753 33.6634 44.7593 33.7472L46.5196 35.5013C46.6039 35.5853 46.6565 35.6958 46.6684 35.8142C46.6803 35.9325 46.6508 36.0513 46.585 36.1504L45.5031 37.7768C45.7996 38.3108 46.0331 38.8773 46.1989 39.4651L48.1167 39.8506C48.2333 39.874 48.3381 39.9371 48.4135 40.029C48.4888 40.1209 48.53 40.2361 48.53 40.355V41.3062H49.2949C49.5786 41.3051 49.8502 41.1915 50.0502 40.9903C50.2501 40.789 50.3621 40.5167 50.3614 40.233V24.5669H27.1929L27.1934 41.3062ZM29.1766 25.9741H48.7354C48.8719 25.9741 49.0028 26.0284 49.0994 26.1249C49.1959 26.2214 49.2501 26.3523 49.2501 26.4888C49.2501 26.6253 49.1959 26.7563 49.0994 26.8528C49.0028 26.9493 48.8719 27.0035 48.7354 27.0035H29.1766C29.0401 27.0035 28.9092 26.9493 28.8126 26.8528C28.7161 26.7563 28.6619 26.6253 28.6619 26.4888C28.6619 26.3523 28.7161 26.2214 28.8126 26.1249C28.9092 26.0284 29.0401 25.9741 29.1766 25.9741ZM29.1766 28.5477H48.7354C48.8719 28.5477 49.0028 28.6019 49.0994 28.6984C49.1959 28.7949 49.2501 28.9259 49.2501 29.0624C49.2501 29.1989 49.1959 29.3298 49.0994 29.4263C49.0028 29.5228 48.8719 29.5771 48.7354 29.5771H29.1766C29.0401 29.5771 28.9092 29.5228 28.8126 29.4263C28.7161 29.3298 28.6619 29.1989 28.6619 29.0624C28.6619 28.9259 28.7161 28.7949 28.8126 28.6984C28.9092 28.6019 29.0401 28.5477 29.1766 28.5477ZM19.6406 40.233C19.6399 40.5166 19.7518 40.7889 19.9516 40.9901C20.1515 41.1913 20.423 41.305 20.7066 41.3062H26.164V24.5664H19.6406V40.233ZM21.8693 27.2779H24.1901C24.3266 27.2779 24.4575 27.3321 24.5541 27.4286C24.6506 27.5252 24.7048 27.6561 24.7048 27.7926C24.7048 27.9291 24.6506 28.06 24.5541 28.1565C24.4575 28.2531 24.3266 28.3073 24.1901 28.3073H21.8688C21.7323 28.3073 21.6014 28.2531 21.5048 28.1565C21.4083 28.06 21.3541 27.9291 21.3541 27.7926C21.3541 27.6561 21.4083 27.5252 21.5048 27.4286C21.6014 27.3321 21.7323 27.2779 21.8688 27.2779H21.8693ZM21.8693 30.6996H24.1901C24.3266 30.6996 24.4575 30.7539 24.5541 30.8504C24.6506 30.9469 24.7048 31.0778 24.7048 31.2143C24.7048 31.3509 24.6506 31.4818 24.5541 31.5783C24.4575 31.6748 24.3266 31.7291 24.1901 31.7291H21.8688C21.7323 31.7291 21.6014 31.6748 21.5048 31.5783C21.4083 31.4818 21.3541 31.3509 21.3541 31.2143C21.3541 31.0778 21.4083 30.9469 21.5048 30.8504C21.6014 30.7539 21.7323 30.6996 21.8688 30.6996H21.8693ZM21.8693 34.1219H24.1901C24.3266 34.1219 24.4575 34.1762 24.5541 34.2727C24.6506 34.3692 24.7048 34.5001 24.7048 34.6366C24.7048 34.7731 24.6506 34.9041 24.5541 35.0006C24.4575 35.0971 24.3266 35.1513 24.1901 35.1513H21.8688C21.7323 35.1513 21.6014 35.0971 21.5048 35.0006C21.4083 34.9041 21.3541 34.7731 21.3541 34.6366C21.3541 34.5001 21.4083 34.3692 21.5048 34.2727C21.6014 34.1762 21.7323 34.1219 21.8688 34.1219H21.8693ZM21.8693 37.5437H24.1901C24.3266 37.5437 24.4575 37.5979 24.5541 37.6944C24.6506 37.791 24.7048 37.9219 24.7048 38.0584C24.7048 38.1949 24.6506 38.3258 24.5541 38.4223C24.4575 38.5189 24.3266 38.5731 24.1901 38.5731H21.8688C21.7323 38.5731 21.6014 38.5189 21.5048 38.4223C21.4083 38.3258 21.3541 38.1949 21.3541 38.0584C21.3541 37.9219 21.4083 37.791 21.5048 37.6944C21.6014 37.5979 21.7323 37.5437 21.8688 37.5437H21.8693Z" fill="white"/>
<path d="M45.2786 40.0233C45.1104 39.3183 44.8328 38.6439 44.4561 38.0247C44.4055 37.9411 44.3798 37.8448 44.3819 37.7471C44.3839 37.6494 44.4138 37.5543 44.468 37.4729L45.4933 35.9324L44.33 34.7733L42.7813 35.8001C42.699 35.8551 42.6026 35.885 42.5036 35.8862C42.4047 35.8875 42.3075 35.8601 42.2239 35.8073C41.6127 35.4239 40.9417 35.1454 40.2386 34.9833C40.1422 34.9609 40.0542 34.9112 39.9852 34.8401C39.9163 34.769 39.8694 34.6795 39.85 34.5823L39.4846 32.7613H37.836L37.4705 34.5823C37.4512 34.6795 37.4042 34.7691 37.3351 34.8402C37.2661 34.9113 37.178 34.961 37.0814 34.9833C36.3786 35.1455 35.7078 35.424 35.0967 35.8073C35.0129 35.86 34.9157 35.8873 34.8167 35.886C34.7177 35.8847 34.6212 35.8549 34.5388 35.8001L32.99 34.7733L31.8268 35.9324L32.8521 37.4729C32.9062 37.5543 32.9361 37.6494 32.9382 37.7471C32.9403 37.8448 32.9145 37.9411 32.8639 38.0247C32.4893 38.6444 32.2141 39.319 32.0481 40.0238C32.0258 40.1201 31.9761 40.2078 31.9052 40.2767C31.8343 40.3455 31.7451 40.3924 31.6482 40.4119L29.8267 40.7773V42.4198L31.6497 42.7914C31.7465 42.8111 31.8356 42.8582 31.9063 42.9271C31.977 42.996 32.0264 43.0838 32.0486 43.18C32.2142 43.8852 32.4897 44.56 32.865 45.1796C32.9151 45.2632 32.9405 45.3592 32.9382 45.4566C32.936 45.554 32.9061 45.6488 32.8521 45.7298L31.8268 47.2709L32.99 48.4341L34.5306 47.4037C34.6131 47.3485 34.7097 47.3183 34.809 47.3167C34.9083 47.3152 35.0058 47.3423 35.09 47.3949C35.7028 47.7793 36.3758 48.0581 37.0809 48.2195C37.1775 48.2416 37.2657 48.2912 37.3348 48.3622C37.4039 48.4333 37.4511 48.5227 37.4705 48.6199L37.8365 50.4409H39.4851L39.8505 48.6199C39.87 48.5227 39.9172 48.4333 39.9863 48.3622C40.0554 48.2912 40.1436 48.2416 40.2402 48.2195C40.9474 48.0584 41.6225 47.7797 42.2372 47.3949C42.3216 47.3424 42.4193 47.3154 42.5186 47.317C42.6179 47.3187 42.7147 47.3489 42.7972 47.4042L44.3311 48.4336L45.4943 47.2704L44.4685 45.7298C44.4145 45.6488 44.3846 45.554 44.3823 45.4566C44.3801 45.3592 44.4055 45.2632 44.4556 45.1796C44.8458 44.5301 45.1227 43.8568 45.2792 43.18C45.3013 43.0838 45.3507 42.9959 45.4214 42.927C45.4922 42.8581 45.5813 42.811 45.678 42.7914L47.5001 42.4198V40.7773L45.6791 40.4119C45.5822 40.3924 45.493 40.3454 45.4221 40.2766C45.3512 40.2078 45.3016 40.12 45.2792 40.0238L45.2786 40.0233ZM38.66 45.8343C36.3258 45.8343 34.4271 43.9351 34.4271 41.6009C34.4271 39.2672 36.3264 37.3684 38.66 37.3684C40.9937 37.3684 42.893 39.2672 42.893 41.6009C42.893 43.9351 40.9937 45.8343 38.66 45.8343ZM49.2944 19.5586H20.7061C20.1183 19.5586 19.6406 20.0368 19.6406 20.6245V23.5378H50.3608V20.6245C50.3608 20.0373 49.8827 19.5586 49.2944 19.5586ZM22.8642 22.1949C22.5796 22.1949 22.315 21.9298 22.315 21.6457C22.315 21.3616 22.5796 21.0965 22.8642 21.0965C23.1489 21.0965 23.4134 21.3611 23.4134 21.6457C23.4134 21.9304 23.1483 22.1949 22.8642 22.1949ZM25.8475 22.1949C25.5628 22.1949 25.2978 21.9298 25.2978 21.6457C25.2978 21.3616 25.5628 21.0965 25.8475 21.0965C26.1321 21.0965 26.3961 21.3611 26.3961 21.6457C26.3961 21.9304 26.1316 22.1949 25.8475 22.1949ZM28.8302 22.1949C28.5461 22.1949 28.281 21.9298 28.281 21.6457C28.281 21.3616 28.5461 21.0965 28.8302 21.0965C29.1143 21.0965 29.3794 21.3611 29.3794 21.6457C29.3794 21.9304 29.1143 22.1949 28.8302 22.1949ZM47.1712 22.1949H39.674C39.5375 22.1949 39.4066 22.1407 39.3101 22.0442C39.2135 21.9476 39.1593 21.8167 39.1593 21.6802C39.1593 21.5437 39.2135 21.4128 39.3101 21.3163C39.4066 21.2197 39.5375 21.1655 39.674 21.1655H47.1717C47.3082 21.1655 47.4392 21.2197 47.5357 21.3163C47.6322 21.4128 47.6864 21.5437 47.6864 21.6802C47.6864 21.8167 47.6322 21.9476 47.5357 22.0442C47.4392 22.1407 47.3077 22.1949 47.1712 22.1949Z" fill="white"/>
</svg>
