<svg width="70" height="70" viewBox="0 0 70 70" fill="none" xmlns="http://www.w3.org/2000/svg">
<rect width="70" height="70" rx="35" fill="#F48120"/>
<g clip-path="url(#clip0_1_26)">
<path d="M51.9531 49.2188H50.3125V45.3906C50.3125 45.2456 50.2549 45.1065 50.1523 45.0039C50.0498 44.9014 49.9107 44.8438 49.7656 44.8438C49.6206 44.8438 49.4815 44.9014 49.3789 45.0039C49.2764 45.1065 49.2188 45.2456 49.2188 45.3906V49.2188H45.3906V47.0312C45.3906 46.8862 45.333 46.7471 45.2304 46.6446C45.1279 46.542 44.9888 46.4844 44.8438 46.4844C44.6987 46.4844 44.5596 46.542 44.4571 46.6446C44.3545 46.7471 44.2969 46.8862 44.2969 47.0312V49.2188H40.4688V45.3906C40.4688 45.2456 40.4111 45.1065 40.3086 45.0039C40.206 44.9014 40.0669 44.8438 39.9219 44.8438C39.7768 44.8438 39.6377 44.9014 39.5352 45.0039C39.4326 45.1065 39.375 45.2456 39.375 45.3906V49.2188H35.5469V47.0312C35.5469 46.8862 35.4893 46.7471 35.3867 46.6446C35.2841 46.542 35.145 46.4844 35 46.4844C34.855 46.4844 34.7159 46.542 34.6133 46.6446C34.5107 46.7471 34.4531 46.8862 34.4531 47.0312V49.2188H30.625V45.3906C30.625 45.2456 30.5674 45.1065 30.4648 45.0039C30.3623 44.9014 30.2232 44.8438 30.0781 44.8438C29.9331 44.8438 29.794 44.9014 29.6914 45.0039C29.5889 45.1065 29.5312 45.2456 29.5312 45.3906V49.2188H25.7031V47.0312C25.7031 46.8862 25.6455 46.7471 25.5429 46.6446C25.4404 46.542 25.3013 46.4844 25.1562 46.4844C25.0112 46.4844 24.8721 46.542 24.7696 46.6446C24.667 46.7471 24.6094 46.8862 24.6094 47.0312V49.2188H20.7812V45.3906H22.9688C23.1138 45.3906 23.2529 45.333 23.3554 45.2304C23.458 45.1279 23.5156 44.9888 23.5156 44.8438C23.5156 44.6987 23.458 44.5596 23.3554 44.4571C23.2529 44.3545 23.1138 44.2969 22.9688 44.2969H20.7812V40.4688H24.6094C24.7544 40.4688 24.8935 40.4111 24.9961 40.3086C25.0986 40.206 25.1562 40.0669 25.1562 39.9219C25.1562 39.7768 25.0986 39.6377 24.9961 39.5352C24.8935 39.4326 24.7544 39.375 24.6094 39.375H20.7812V35.5469H22.9688C23.1138 35.5469 23.2529 35.4893 23.3554 35.3867C23.458 35.2841 23.5156 35.145 23.5156 35C23.5156 34.855 23.458 34.7159 23.3554 34.6133C23.2529 34.5107 23.1138 34.4531 22.9688 34.4531H20.7812V30.625H24.6094C24.7544 30.625 24.8935 30.5674 24.9961 30.4648C25.0986 30.3623 25.1562 30.2232 25.1562 30.0781C25.1562 29.9331 25.0986 29.794 24.9961 29.6914C24.8935 29.5889 24.7544 29.5312 24.6094 29.5312H20.7812V25.7031H22.9688C23.1138 25.7031 23.2529 25.6455 23.3554 25.5429C23.458 25.4404 23.5156 25.3013 23.5156 25.1562C23.5156 25.0112 23.458 24.8721 23.3554 24.7696C23.2529 24.667 23.1138 24.6094 22.9688 24.6094H20.7812V20.7812H24.6094C24.7544 20.7812 24.8935 20.7236 24.9961 20.6211C25.0986 20.5185 25.1562 20.3794 25.1562 20.2344C25.1562 20.0893 25.0986 19.9502 24.9961 19.8477C24.8935 19.7451 24.7544 19.6875 24.6094 19.6875H20.7812V18.0469C20.7812 17.9018 20.7236 17.7627 20.6211 17.6602C20.5185 17.5576 20.3794 17.5 20.2344 17.5C20.0893 17.5 19.9502 17.5576 19.8477 17.6602C19.7451 17.7627 19.6875 17.9018 19.6875 18.0469V49.2188H18.0469C17.9018 49.2188 17.7627 49.2764 17.6602 49.3789C17.5576 49.4815 17.5 49.6206 17.5 49.7656C17.5 49.9107 17.5576 50.0498 17.6602 50.1523C17.7627 50.2549 17.9018 50.3125 18.0469 50.3125H19.6875V51.9531C19.6875 52.0982 19.7451 52.2373 19.8477 52.3398C19.9502 52.4424 20.0893 52.5 20.2344 52.5C20.3794 52.5 20.5185 52.4424 20.6211 52.3398C20.7236 52.2373 20.7812 52.0982 20.7812 51.9531V50.3125H51.9531C52.0982 50.3125 52.2373 50.2549 52.3398 50.1523C52.4424 50.0498 52.5 49.9107 52.5 49.7656C52.5 49.6206 52.4424 49.4815 52.3398 49.3789C52.2373 49.2764 52.0982 49.2188 51.9531 49.2188ZM38.8281 23.5156C39.5531 23.5148 40.2481 23.2264 40.7607 22.7138C41.2733 22.2012 41.5616 21.5062 41.5625 20.7812V19.6875H36.0938V20.7812C36.0946 21.5062 36.383 22.2012 36.8956 22.7138C37.4082 23.2264 38.1032 23.5148 38.8281 23.5156Z" fill="white"/>
<path d="M27.0995 30.5682L31.172 32.6042V28.4381C31.172 28.2931 31.2297 28.154 31.3322 28.0514C31.4348 27.9489 31.5739 27.8912 31.7189 27.8912C31.8639 27.8912 32.003 27.9489 32.1056 28.0514C32.2082 28.154 32.2658 28.2931 32.2658 28.4381V42.11C32.2658 42.255 32.3234 42.3941 32.426 42.4967C32.5285 42.5993 32.6676 42.6569 32.8127 42.6569H44.8439C44.9889 42.6569 45.128 42.5993 45.2306 42.4967C45.3332 42.3941 45.3908 42.255 45.3908 42.11V28.4381C45.3908 28.2931 45.4484 28.154 45.551 28.0514C45.6535 27.9489 45.7926 27.8912 45.9377 27.8912C46.0827 27.8912 46.2218 27.9489 46.3244 28.0514C46.4269 28.154 46.4845 28.2931 46.4845 28.4381V32.6042L50.5571 30.5682C50.6731 30.5104 50.7648 30.4134 50.8159 30.2943C50.867 30.1752 50.8741 30.0418 50.836 29.918L48.6485 22.8086C48.6257 22.7346 48.5875 22.6663 48.5363 22.6082C48.4851 22.5501 48.4221 22.5036 48.3516 22.4717L42.6564 19.8828V20.7819C42.6564 21.7972 42.2531 22.7709 41.5352 23.4888C40.8173 24.2067 39.8436 24.61 38.8283 24.61C37.813 24.61 36.8393 24.2067 36.1214 23.4888C35.4035 22.7709 35.0002 21.7972 35.0002 20.7819V19.8828L29.305 22.4717C29.2345 22.5037 29.1717 22.5502 29.1206 22.6083C29.0695 22.6664 29.0313 22.7346 29.0086 22.8086L26.8211 29.918C26.783 30.0418 26.79 30.1751 26.841 30.2941C26.892 30.4132 26.9836 30.5103 27.0995 30.5682Z" fill="white"/>
</g>
<defs>
<clipPath id="clip0_1_26">
<rect width="35" height="35" fill="white" transform="translate(17.5 17.5)"/>
</clipPath>
</defs>
</svg>
