<svg width="70" height="70" viewBox="0 0 70 70" fill="none" xmlns="http://www.w3.org/2000/svg">
<rect width="70" height="70" rx="35" fill="#F48120"/>
<path d="M42.732 27.3333H27.2605C25.2439 27.3333 23.6098 28.9678 23.6098 30.984V41.3432C23.6098 43.3595 25.2439 44.9939 27.2605 44.9939H30.0465V48.7927C30.0465 48.8166 30.0735 48.8306 30.093 48.8166L35.7966 45.0356L37.227 45.009H41.2404L42.732 44.9939C44.7482 44.9939 46.3827 43.3595 46.3827 41.3432V30.984C46.3827 28.9678 44.7482 27.3333 42.732 27.3333ZM29.5164 32.8212C29.5164 31.8122 30.3343 30.9939 31.3437 30.9939C32.3526 30.9939 33.1706 31.8122 33.1706 32.8212C33.1706 33.8305 32.3526 34.6484 31.3437 34.6484C30.3343 34.6484 29.5164 33.8305 29.5164 32.8212ZM34.912 41.952C32.5957 41.952 30.6823 40.3288 30.3897 38.2264H39.4347C39.1417 40.3288 37.2287 41.952 34.912 41.952ZM38.6718 34.6484C37.6628 34.6484 36.8445 33.8305 36.8445 32.8212C36.8445 31.8122 37.6628 30.9939 38.6718 30.9939C39.6811 30.9939 40.499 31.8122 40.499 32.8212C40.499 33.8305 39.6811 34.6484 38.6718 34.6484ZM47.1371 39.529V32.9897H48.0421C48.7049 32.9897 49.2422 33.527 49.2422 34.1897V38.3292C49.2422 38.992 48.7049 39.5293 48.0421 39.5293H47.1371V39.529ZM20.75 38.3292V34.1897C20.75 33.527 21.2873 32.9897 21.95 32.9897H22.8551V39.5293H21.95C21.2873 39.529 20.75 38.9916 20.75 38.3292ZM36.6873 22.6148C36.6873 23.4156 36.1544 24.0941 35.4247 24.3146V25.8489H34.3993V24.3146C33.6696 24.0941 33.1367 23.4156 33.1367 22.6148C33.1367 21.6362 33.9331 20.8398 34.912 20.8398C35.8909 20.8398 36.6873 21.6362 36.6873 22.6148Z" fill="white"/>
</svg>
