<svg width="70" height="70" viewBox="0 0 70 70" fill="none" xmlns="http://www.w3.org/2000/svg">
<rect width="70" height="70" rx="35" fill="#F48120"/>
<g clip-path="url(#clip0_1_75)">
<path d="M51.4746 50.4492H18.5254C17.9591 50.4492 17.5 50.9083 17.5 51.4746C17.5 52.0409 17.9591 52.5 18.5254 52.5H51.4746C52.0409 52.5 52.5 52.0409 52.5 51.4746C52.5 50.9083 52.0409 50.4492 51.4746 50.4492ZM20.6445 42.1094C20.0782 42.1094 19.6191 42.5685 19.6191 43.1348V47.373C19.6191 47.9393 20.0782 48.3984 20.6445 48.3984H24.7461C25.3124 48.3984 25.7715 47.9393 25.7715 47.373V43.1348C25.7715 42.5685 25.3124 42.1094 24.7461 42.1094H20.6445ZM28.8477 48.3984H32.9492C33.5155 48.3984 33.9746 47.9393 33.9746 47.373V39.7168C33.9746 39.1505 33.5155 38.6914 32.9492 38.6914H28.8477C28.2814 38.6914 27.8223 39.1505 27.8223 39.7168V47.373C27.8223 47.9393 28.2814 48.3984 28.8477 48.3984ZM37.0508 40.7422C36.4845 40.7422 36.0254 41.2013 36.0254 41.7676V47.373C36.0254 47.9393 36.4845 48.3984 37.0508 48.3984H41.1523C41.7186 48.3984 42.1777 47.9393 42.1777 47.373V41.7676C42.1777 41.2013 41.7186 40.7422 41.1523 40.7422H37.0508ZM44.2285 34.9316V47.373C44.2285 47.9393 44.6876 48.3984 45.2539 48.3984H49.3555C49.9218 48.3984 50.3809 47.9393 50.3809 47.373V34.9316C50.3809 34.3654 49.9218 33.9062 49.3555 33.9062H45.2539C44.6876 33.9062 44.2285 34.3654 44.2285 34.9316ZM25.7031 33.9062C30.2336 33.9062 33.9062 30.2336 33.9062 25.7031C33.9062 21.1727 30.2336 17.5 25.7031 17.5C21.1727 17.5 17.5 21.1727 17.5 25.7031C17.5 30.2336 21.1727 33.9062 25.7031 33.9062ZM25.7031 31.1719C25.1368 31.1719 24.6777 30.7128 24.6777 30.1465C24.6777 29.5802 25.1368 29.1211 25.7031 29.1211C26.2694 29.1211 26.7285 29.5802 26.7285 30.1465C26.7285 30.7128 26.2694 31.1719 25.7031 31.1719ZM22.6566 22.8831C22.8716 21.3419 24.2106 20.2037 25.7661 20.235C27.3703 20.2673 28.6919 21.5469 28.7751 23.1483C28.8194 24.0006 28.5206 24.8102 27.934 25.4282C27.5992 25.7798 27.1862 26.0476 26.7285 26.2095V27.0703C26.7285 27.6366 26.2694 28.0957 25.7031 28.0957C25.1368 28.0957 24.6777 27.6366 24.6777 27.0703V25.3613C24.6777 24.795 25.1368 24.3359 25.7031 24.3359C25.9867 24.3359 26.2509 24.2223 26.4467 24.0161C26.6423 23.81 26.7418 23.5396 26.7271 23.2546C26.6999 22.7307 26.2503 22.2959 25.7249 22.2853C25.7178 22.2852 25.7108 22.2852 25.7038 22.2852C25.1931 22.2852 24.7583 22.6604 24.6877 23.1662C24.681 23.2141 24.6777 23.2623 24.6777 23.3105C24.6777 23.8768 24.2186 24.3359 23.6523 24.3359C23.0861 24.3359 22.627 23.8768 22.627 23.3105C22.627 23.1678 22.6369 23.0241 22.6566 22.8831ZM32.3682 33.4888C31.7168 34.0474 30.9982 34.5223 30.2289 34.9025L38.7568 37.9481C38.9677 38.0235 39.1975 38.0277 39.4111 37.9601C39.6246 37.8925 39.8101 37.7568 39.9393 37.5738L46.7225 27.9643L47.0071 29.5788C47.1054 30.1364 47.6373 30.5089 48.195 30.4105C48.7527 30.3121 49.125 29.7803 49.0267 29.2226L48.3145 25.1833C48.2162 24.6256 47.6844 24.2532 47.1266 24.3516L43.0873 25.0638C42.5296 25.1622 42.1572 25.694 42.2556 26.2517C42.354 26.8094 42.8858 27.1818 43.4435 27.0834L45.0317 26.8034L38.7129 35.7548L32.3682 33.4888ZM25.7031 35.957C25.4447 35.957 25.1887 35.9472 24.935 35.9283L22.0548 38.2325C21.6126 38.5863 21.5409 39.2315 21.8946 39.6737C22.2484 40.1159 22.8936 40.1877 23.3358 39.8339L28.7661 35.4897C27.7985 35.7932 26.7696 35.957 25.7031 35.957Z" fill="white"/>
</g>
<defs>
<clipPath id="clip0_1_75">
<rect width="35" height="35" fill="white" transform="translate(17.5 17.5)"/>
</clipPath>
</defs>
</svg>
