<svg width="70" height="70" viewBox="0 0 70 70" fill="none" xmlns="http://www.w3.org/2000/svg">
<rect width="70" height="70" rx="35" fill="#F48120"/>
<path fill-rule="evenodd" clip-rule="evenodd" d="M34.9985 25.5039C40.5658 25.5039 45.0789 30.0171 45.0789 35.5843C45.0789 41.1516 40.5657 45.6647 34.9985 45.6647C29.4312 45.6647 24.918 41.1516 24.918 35.5843C24.918 30.0171 29.4311 25.5039 34.9985 25.5039ZM24.6572 49.3659H45.3397C46.5314 49.3659 47.4974 48.3998 47.4974 47.2082C47.4974 45.8298 46.2256 44.8127 44.8878 45.0979C36.4118 46.9041 33.5852 46.9041 25.1091 45.0979C23.7713 44.8128 22.4995 45.8298 22.4995 47.2082C22.4995 48.3998 23.4655 49.3659 24.6572 49.3659ZM49.4969 35.1313C49.6171 35.1313 49.7323 35.179 49.8173 35.264C49.9023 35.349 49.95 35.4642 49.95 35.5844C49.95 35.7046 49.9023 35.8198 49.8173 35.9048C49.7323 35.9898 49.6171 36.0375 49.4969 36.0375H48.0502C47.9301 36.0375 47.8148 35.9898 47.7298 35.9048C47.6449 35.8198 47.5971 35.7046 47.5971 35.5844C47.5971 35.4642 47.6449 35.349 47.7298 35.264C47.8148 35.179 47.9301 35.1313 48.0502 35.1313H49.4969ZM20.5 36.0374C20.3798 36.0374 20.2646 35.9897 20.1796 35.9047C20.0946 35.8197 20.0469 35.7045 20.0469 35.5843C20.0469 35.4641 20.0946 35.3489 20.1796 35.2639C20.2646 35.1789 20.3798 35.1312 20.5 35.1312H21.9467C22.0668 35.1312 22.1821 35.1789 22.2671 35.2639C22.352 35.3489 22.3998 35.4641 22.3998 35.5843C22.3998 35.7045 22.352 35.8197 22.2671 35.9047C22.1821 35.9897 22.0668 36.0374 21.9467 36.0374H20.5ZM24.4261 25.6527L25.4491 26.6757C25.5346 26.7584 25.6491 26.8042 25.768 26.8032C25.8869 26.8023 26.0006 26.7546 26.0847 26.6705C26.1688 26.5865 26.2164 26.4727 26.2174 26.3538C26.2183 26.2349 26.1725 26.1204 26.0898 26.035L25.0669 25.012C24.9814 24.9293 24.8669 24.8835 24.748 24.8845C24.6291 24.8854 24.5154 24.9331 24.4313 25.0172C24.3472 25.1012 24.2996 25.215 24.2986 25.3339C24.2976 25.4528 24.3434 25.5673 24.4261 25.6527ZM34.5453 21.0858C34.5474 20.967 34.5961 20.8538 34.6808 20.7706C34.7656 20.6873 34.8796 20.6406 34.9985 20.6406C35.1173 20.6406 35.2313 20.6873 35.3161 20.7706C35.4008 20.8538 35.4495 20.967 35.4516 21.0858V22.5325C35.4516 22.6527 35.4038 22.768 35.3189 22.8529C35.2339 22.9379 35.1186 22.9856 34.9985 22.9856C34.8783 22.9856 34.763 22.9379 34.6781 22.8529C34.5931 22.768 34.5453 22.6527 34.5453 22.5325V21.0858ZM44.9301 25.012L43.9071 26.035C43.8244 26.1204 43.7786 26.2349 43.7796 26.3538C43.7806 26.4727 43.8282 26.5865 43.9123 26.6705C43.9964 26.7546 44.1101 26.8023 44.229 26.8032C44.3479 26.8042 44.4624 26.7584 44.5479 26.6757L45.5708 25.6527C45.6535 25.5673 45.6993 25.4528 45.6984 25.3339C45.6974 25.215 45.6498 25.1012 45.5657 25.0172C45.4816 24.9331 45.3679 24.8854 45.249 24.8845C45.1301 24.8835 45.0156 24.9293 44.9301 25.012ZM27.3243 34.0288C27.4163 33.5727 27.56 33.096 27.7345 32.6618C27.7774 32.5509 27.7748 32.4276 27.7274 32.3186C27.68 32.2095 27.5915 32.1236 27.4811 32.0793C27.3708 32.0351 27.2474 32.0361 27.1378 32.0822C27.0282 32.1283 26.9412 32.2157 26.8956 32.3255C26.6939 32.8275 26.5474 33.3141 26.4394 33.8518C26.4173 33.9686 26.4422 34.0894 26.5086 34.1879C26.5751 34.2865 26.6777 34.3548 26.7943 34.3781C26.9108 34.4015 27.0319 34.3778 27.1311 34.3124C27.2303 34.247 27.2998 34.1451 27.3243 34.0288ZM28.6153 31.0515C29.4374 29.8963 30.5633 28.9772 31.8661 28.4085C31.9205 28.3848 31.9697 28.3506 32.0108 28.3079C32.052 28.2652 32.0844 28.2148 32.1061 28.1595C32.1278 28.1043 32.1384 28.0454 32.1373 27.986C32.1362 27.9267 32.1234 27.8682 32.0997 27.8138C32.0518 27.704 31.9623 27.6177 31.8508 27.5738C31.7392 27.53 31.6149 27.5323 31.505 27.5802C30.0528 28.214 28.7951 29.2402 27.879 30.5276C27.8115 30.6253 27.7851 30.7457 27.8056 30.8627C27.8261 30.9797 27.8919 31.0839 27.9887 31.1528C28.0855 31.2217 28.2055 31.2496 28.3228 31.2307C28.4401 31.2117 28.5451 31.1473 28.6153 31.0515ZM40.6645 41.841V31.6897C40.6642 31.6201 40.6364 31.5534 40.5872 31.5042C40.538 31.455 40.4713 31.4272 40.4018 31.4269H38.7739C38.7043 31.4272 38.6377 31.455 38.5885 31.5042C38.5392 31.5534 38.5115 31.6201 38.5111 31.6897V43.1536C38.5111 43.1748 38.5211 43.1931 38.539 43.2045C38.5568 43.2159 38.5776 43.2173 38.5969 43.2085C39.3376 42.8658 40.0267 42.4208 40.6437 41.8866C40.6504 41.881 40.6557 41.874 40.6593 41.8661C40.6629 41.8582 40.6647 41.8497 40.6645 41.841ZM31.4858 43.1536V38.5187C31.4858 38.5027 31.4794 38.4873 31.4681 38.476C31.4567 38.4647 31.4414 38.4583 31.4254 38.4583H29.5952C29.5256 38.4586 29.4589 38.4864 29.4097 38.5356C29.3605 38.5848 29.3327 38.6515 29.3324 38.7211V41.841C29.3324 41.8591 29.3395 41.8747 29.3532 41.8866C29.9703 42.4208 30.6593 42.8658 31.4 43.2085C31.4092 43.2129 31.4194 43.2148 31.4295 43.2141C31.4397 43.2134 31.4494 43.2101 31.4579 43.2045C31.4666 43.1992 31.4737 43.1917 31.4786 43.1827C31.4835 43.1738 31.4859 43.1638 31.4858 43.1536ZM34.5453 42.1724V35.3933C34.545 35.3237 34.5172 35.257 34.468 35.2078C34.4188 35.1586 34.3522 35.1308 34.2826 35.1305H32.6547C32.5851 35.1308 32.5185 35.1586 32.4693 35.2078C32.4201 35.257 32.3923 35.3237 32.3919 35.3933V43.5487C32.3919 43.5756 32.4087 43.5984 32.4344 43.6064C33.0992 43.8125 33.7866 43.9374 34.4814 43.9782C34.4897 43.9788 34.4979 43.9776 34.5057 43.9748C34.5135 43.972 34.5205 43.9675 34.5264 43.9618C34.5325 43.9562 34.5374 43.9494 34.5406 43.9418C34.5439 43.9342 34.5455 43.9261 34.5454 43.9178V42.1724H34.5453ZM37.605 43.5487V37.5795C37.605 37.5634 37.5986 37.5481 37.5873 37.5368C37.5759 37.5254 37.5606 37.5191 37.5446 37.519H35.5119C35.4959 37.5191 35.4805 37.5254 35.4692 37.5368C35.4579 37.5481 35.4515 37.5634 35.4515 37.5795V43.9178C35.4515 43.9351 35.4579 43.9499 35.4705 43.9618C35.4831 43.9736 35.4983 43.9791 35.5155 43.9782C36.2103 43.9374 36.8977 43.8126 37.5625 43.6065C37.5749 43.6027 37.5857 43.5951 37.5933 43.5847C37.601 43.5742 37.6051 43.5616 37.605 43.5487Z" fill="white"/>
</svg>
