<svg width="80" height="80" viewBox="0 0 80 80" fill="none" xmlns="http://www.w3.org/2000/svg">
<path d="M39.9999 80C62.0913 80 79.9999 62.0914 79.9999 40C79.9999 17.9086 62.0913 0 39.9999 0C17.9085 0 -0.00012207 17.9086 -0.00012207 40C-0.00012207 62.0914 17.9085 80 39.9999 80Z" fill="#FFF2E8"/>
<g clip-path="url(#clip0_6_387)">
<path d="M52.25 41.75C51.767 41.75 51.375 41.3589 51.375 40.875V12H63.625V29.5C63.625 29.9839 63.233 30.375 62.75 30.375C62.267 30.375 61.875 29.9839 61.875 29.5V13.75H53.125V40.875C53.125 41.3589 52.733 41.75 52.25 41.75Z" fill="#F48120"/>
<path d="M63.625 68H51.375V52.25C51.375 51.7661 51.767 51.375 52.25 51.375C52.733 51.375 53.125 51.7661 53.125 52.25V66.25H61.875V41.75C61.875 41.2661 62.267 40.875 62.75 40.875C63.233 40.875 63.625 41.2661 63.625 41.75V68Z" fill="#F48120"/>
<path d="M45.25 44.375C44.767 44.375 44.375 43.9839 44.375 43.5V26.875H35.625V38.25C35.625 38.7339 35.233 39.125 34.75 39.125C34.267 39.125 33.875 38.7339 33.875 38.25V25.125H46.125V43.5C46.125 43.9839 45.733 44.375 45.25 44.375Z" fill="#F48120"/>
<path d="M46.125 68H33.875V47.875C33.875 47.3911 34.267 47 34.75 47C35.233 47 35.625 47.3911 35.625 47.875V66.25H44.375V53.125C44.375 52.6411 44.767 52.25 45.25 52.25C45.733 52.25 46.125 52.6411 46.125 53.125V68Z" fill="#F48120"/>
<path d="M17.25 48.75C16.767 48.75 16.375 48.3589 16.375 47.875V34.75H28.625V40C28.625 40.4839 28.233 40.875 27.75 40.875C27.267 40.875 26.875 40.4839 26.875 40V36.5H18.125V47.875C18.125 48.3589 17.733 48.75 17.25 48.75Z" fill="#F48120"/>
<path d="M28.625 68H16.375V58.375C16.375 57.8911 16.767 57.5 17.25 57.5C17.733 57.5 18.125 57.8911 18.125 58.375V66.25H26.875V50.5C26.875 50.0161 27.267 49.625 27.75 49.625C28.233 49.625 28.625 50.0161 28.625 50.5V68Z" fill="#F48120"/>
<path d="M13.7508 57.5C13.2232 57.5 12.7017 57.2629 12.3578 56.8105C11.7725 56.0414 11.9203 54.9432 12.6895 54.3579L31.9526 39.6815L48.3667 48.3204L64.955 30.0722C65.6051 29.3582 66.712 29.3049 67.4268 29.955C68.1417 30.6042 68.1942 31.712 67.545 32.4269L49.1332 52.6796L32.2973 43.8185L14.8105 57.1421C14.4937 57.3827 14.121 57.5 13.7508 57.5Z" fill="#F48120"/>
</g>
<defs>
<clipPath id="clip0_6_387">
<rect width="56" height="56" fill="white" transform="translate(12 12)"/>
</clipPath>
</defs>
</svg>
