<svg width="80" height="80" viewBox="0 0 80 80" fill="none" xmlns="http://www.w3.org/2000/svg">
<circle cx="40" cy="40" r="40" fill="#FFF2E8"/>
<rect x="19.1188" y="33.8862" width="2.1725" height="8.14687" fill="#F48120"/>
<rect x="29.4381" y="33.3431" width="2.1725" height="8.68999" fill="#F48120"/>
<rect x="24.0068" y="36.6018" width="2.1725" height="5.43124" fill="#F48120"/>
<path d="M49.8819 56.8926H14.9095C14.2391 56.8926 13.6875 56.341 13.6875 55.6621V23.168C13.6875 22.4891 14.2391 21.9375 14.9095 21.9375H49.8819C50.5608 21.9375 51.1124 22.4891 51.1124 23.168V31.2725C51.1124 31.5016 50.9257 31.6883 50.6965 31.6883C50.4674 31.6883 50.2807 31.5016 50.2807 31.2725V23.168C50.2807 22.9474 50.1025 22.7776 49.8903 22.7776H14.9099C14.6977 22.7776 14.5195 22.9558 14.5195 23.168V55.6621C14.5195 55.8827 14.6892 56.0524 14.9099 56.0524H49.8822C50.1028 56.0524 50.2726 55.8742 50.2726 55.6621V51.6056C50.2726 51.3764 50.4593 51.1897 50.6884 51.1897C50.9175 51.1897 51.1042 51.3764 51.1042 51.6056V55.6621C51.1127 56.341 50.5608 56.8926 49.8819 56.8926Z" fill="#111111"/>
<path d="M50.6878 27.6487H14.1034C13.8743 27.6487 13.6876 27.462 13.6876 27.2328C13.6876 27.0037 13.8743 26.817 14.1034 26.817H50.6878C50.9169 26.817 51.1036 27.0037 51.1036 27.2328C51.1036 27.462 50.9254 27.6487 50.6878 27.6487Z" fill="#111111"/>
<path d="M16.8444 25.2132H16.5474C16.3183 25.2132 16.1316 25.0265 16.1316 24.7974C16.1316 24.5683 16.3183 24.3816 16.5474 24.3816H16.8529C17.0821 24.3816 17.2688 24.5683 17.2688 24.7974C17.2688 25.0265 17.0821 25.2132 16.8444 25.2132Z" fill="#111111"/>
<path d="M19.7385 25.2132H19.4415C19.2123 25.2132 19.0256 25.0265 19.0256 24.7974C19.0256 24.5683 19.2123 24.3816 19.4415 24.3816H19.747C19.9761 24.3816 20.1628 24.5683 20.1628 24.7974C20.1628 25.0265 19.9761 25.2132 19.7385 25.2132Z" fill="#111111"/>
<path d="M22.6322 25.2132H22.3267C22.0976 25.2132 21.9109 25.0265 21.9109 24.7974C21.9109 24.5683 22.0976 24.3816 22.3267 24.3816H22.6322C22.8614 24.3816 23.048 24.5683 23.048 24.7974C23.048 25.0265 22.8614 25.2132 22.6322 25.2132Z" fill="#111111"/>
<path d="M19.6451 47.1077H18.3043C18.0751 47.1077 17.8884 46.921 17.8884 46.6918C17.8884 46.4627 18.0751 46.276 18.3043 46.276H19.6451C19.8743 46.276 20.0609 46.4627 20.0609 46.6918C20.0609 46.921 19.8742 47.1077 19.6451 47.1077Z" fill="#111111"/>
<path d="M33.7662 47.1077H22.3693C22.1402 47.1077 21.9535 46.921 21.9535 46.6918C21.9535 46.4627 22.1402 46.276 22.3693 46.276H33.7662C33.9954 46.276 34.1821 46.4627 34.1821 46.6918C34.1821 46.921 33.9954 47.1077 33.7662 47.1077Z" fill="#111111"/>
<path d="M19.6451 50.451H18.3043C18.0751 50.451 17.8884 50.2643 17.8884 50.0352C17.8884 49.8061 18.0751 49.6194 18.3043 49.6194H19.6451C19.8743 49.6194 20.0609 49.8061 20.0609 50.0352C20.0609 50.2643 19.8742 50.451 19.6451 50.451Z" fill="#111111"/>
<path d="M28.0716 50.451H22.3775C22.1484 50.451 21.9617 50.2643 21.9617 50.0352C21.9617 49.8061 22.1484 49.6194 22.3775 49.6194H28.0716C28.3007 49.6194 28.4874 49.8061 28.4874 50.0352C28.4874 50.2643 28.3007 50.451 28.0716 50.451Z" fill="#111111"/>
<path d="M19.6451 53.7945H18.3043C18.0751 53.7945 17.8884 53.6078 17.8884 53.3787C17.8884 53.1496 18.0751 52.9629 18.3043 52.9629H19.6451C19.8743 52.9629 20.0609 53.1496 20.0609 53.3787C20.0609 53.6078 19.8742 53.7945 19.6451 53.7945Z" fill="#111111"/>
<path d="M30.3717 53.7945H22.3693C22.1402 53.7945 21.9535 53.6078 21.9535 53.3787C21.9535 53.1496 22.1402 52.9629 22.3693 52.9629H30.3717C30.6008 52.9629 30.7875 53.1496 30.7875 53.3787C30.7875 53.6078 30.6008 53.7945 30.3717 53.7945Z" fill="#111111"/>
<path d="M33.5626 42.5846H16.8784C16.6492 42.5846 16.4625 42.3979 16.4625 42.1688C16.4625 41.9396 16.6492 41.7529 16.8784 41.7529H33.5539C33.783 41.7529 33.9697 41.9396 33.9697 42.1688C33.9697 42.3979 33.7917 42.5846 33.5626 42.5846Z" fill="#111111"/>
<path d="M21.4862 42.5844C21.2571 42.5844 21.0704 42.3977 21.0704 42.1686V34.6583C21.0704 34.5734 21.0025 34.4971 20.9092 34.4971H19.3392C19.2543 34.4971 19.178 34.5649 19.178 34.6583V42.1686C19.178 42.3977 18.9913 42.5844 18.7621 42.5844C18.533 42.5844 18.3463 42.3977 18.3463 42.1686V34.6583C18.3463 34.1067 18.7961 33.6654 19.3392 33.6654H20.9092C21.4608 33.6654 21.902 34.1152 21.902 34.6583V42.1686C21.902 42.3977 21.7154 42.5844 21.4862 42.5844Z" fill="#111111"/>
<path d="M26.5955 42.5846C26.3663 42.5846 26.1797 42.3979 26.1797 42.1687V36.9921C26.1712 37.0261 26.1118 37.0006 26.0184 37.0006H24.4485C24.3466 37.0006 24.2787 37.0345 24.2702 37.0515L24.2872 42.1688C24.2872 42.3979 24.1005 42.5846 23.8714 42.5846C23.6423 42.5846 23.4556 42.3979 23.4556 42.1688V36.9836C23.4556 36.5254 23.8969 36.1689 24.4485 36.1689H26.0184C26.5785 36.1689 27.0113 36.5254 27.0113 36.9836V42.1688C27.0113 42.3979 26.8246 42.5846 26.5955 42.5846Z" fill="#111111"/>
<path d="M31.6873 42.5844C31.4582 42.5844 31.2715 42.3977 31.2715 42.1686V33.572C31.2715 33.4363 31.1866 33.3259 31.1102 33.3259H29.5403C29.4639 33.3259 29.379 33.4278 29.379 33.572V42.1686C29.379 42.3977 29.1923 42.5844 28.9632 42.5844C28.7341 42.5844 28.5474 42.3977 28.5474 42.1686V33.572C28.5474 32.978 28.9971 32.4943 29.5402 32.4943H31.1102C31.6618 32.4943 32.1031 32.978 32.1031 33.572V42.1686C32.1031 42.3977 31.9164 42.5844 31.6873 42.5844Z" fill="#111111"/>
<path d="M65.8611 59.2432C65.2925 59.2432 64.7494 59.0226 64.3506 58.6152L57.8163 52.0891C57.7399 52.0127 57.672 51.8514 57.672 51.7411C57.672 51.6053 57.7229 51.4781 57.8163 51.3847L60.1415 49.0595C60.3367 48.8643 60.6507 48.8643 60.8459 49.0595L67.3721 55.5857C67.7794 55.993 68 56.5277 68 57.0962C68 57.6647 67.7794 58.2079 67.3721 58.6067C66.9647 59.0226 66.4297 59.2432 65.8611 59.2432ZM58.6479 51.7416L64.9362 58.0299C65.4284 58.5221 66.294 58.5221 66.7862 58.0299C67.2954 57.5207 67.2954 56.689 66.7862 56.1799L60.4979 49.8916L58.6479 51.7416Z" fill="#111111"/>
<path d="M50.1958 52.0381C47.3613 52.0381 44.7053 50.9349 42.7023 48.9321C38.5694 44.7992 38.5694 38.0783 42.7023 33.9451C46.8352 29.8119 53.5561 29.8122 57.6893 33.9451C61.8225 38.0779 61.8221 44.7989 57.6893 48.9321C55.6865 50.9348 53.0303 52.0381 50.1958 52.0381ZM50.1958 31.6796C47.6923 31.6796 45.1974 32.6301 43.2878 34.531C39.4774 38.3414 39.4774 44.5278 43.2878 48.3383C45.1293 50.1798 47.5818 51.1982 50.1958 51.1982C52.8011 51.1982 55.2536 50.1798 57.1038 48.3383C60.9141 44.528 60.9141 38.3416 57.1038 34.531C55.1944 32.6301 52.6994 31.6796 50.1958 31.6796Z" fill="#111111"/>
<path d="M59.2763 50.9351C59.166 50.9351 59.0642 50.8927 58.9793 50.8163L57.0953 48.9323C56.9341 48.771 56.9341 48.508 57.0953 48.3382C57.2565 48.177 57.5196 48.177 57.6894 48.3382L59.5734 50.2222C59.7346 50.3835 59.7346 50.6465 59.5734 50.8163C59.4885 50.8927 59.3866 50.9351 59.2763 50.9351Z" fill="#111111"/>
<path d="M43.933 45.4017C43.7887 45.4017 43.6444 45.3253 43.5681 45.1895C43.4577 44.9859 43.5256 44.7313 43.7293 44.6209L49.7802 41.1925V34.2339C49.7802 34.0048 49.9669 33.8181 50.1961 33.8181C50.4252 33.8181 50.6119 34.0048 50.6119 34.2339V41.439C50.6119 41.5918 50.527 41.7276 50.3997 41.8039L44.137 45.3512C44.0691 45.3851 44.0012 45.4021 43.9333 45.4021L43.933 45.4017Z" fill="#111111"/>
<path d="M57.3921 41.8546H50.1957C49.9666 41.8546 49.7799 41.6679 49.7799 41.4388C49.7799 41.2096 49.9666 41.0229 50.1957 41.0229H57.3921C57.6213 41.0229 57.808 41.2096 57.808 41.4388C57.808 41.6679 57.6298 41.8546 57.3921 41.8546Z" fill="#111111"/>
</svg>
