<svg xmlns="http://www.w3.org/2000/svg" xmlns:xlink="http://www.w3.org/1999/xlink" width="45" height="45" viewBox="0 0 45 45">
  <defs>
    <clipPath id="clip-path">
      <rect id="Rectangle_3632" data-name="Rectangle 3632" width="45" height="45" transform="translate(1159 5187)"/>
    </clipPath>
  </defs>
  <g id="Mask_Group_8015" data-name="Mask Group 8015" transform="translate(-1159 -5187)" clip-path="url(#clip-path)">
    <path id="_4" data-name="4" d="M27.484,1.854H25.531L25.113,3.16a.421.421,0,0,1-.292.28,6.407,6.407,0,0,0-.761.262,6.3,6.3,0,0,0-.719.354.422.422,0,0,1-.4.008l-1.214-.628-1.38,1.385.614,1.2a.433.433,0,0,1,0,.429,6.08,6.08,0,0,0-.353.722,6.411,6.411,0,0,0-.255.744.426.426,0,0,1-.284.312l-1.3.419v1.96l1.3.419a.424.424,0,0,1,.279.293,6.457,6.457,0,0,0,.261.764,6.337,6.337,0,0,0,.353.722.422.422,0,0,1,.008.406l-.626,1.218,1.38,1.385,1.193-.616a.428.428,0,0,1,.427,0,6.238,6.238,0,0,0,.7.346l.021.008a6.087,6.087,0,0,0,.742.256.426.426,0,0,1,.311.285l.418,1.306h1.953l.418-1.306a.421.421,0,0,1,.292-.28,6.413,6.413,0,0,0,.761-.262,6.308,6.308,0,0,0,.719-.354.422.422,0,0,1,.4-.008l1.214.628,1.38-1.385-.614-1.2a.433.433,0,0,1,0-.429,6.285,6.285,0,0,0,.345-.7c0-.006,0-.015.008-.021a6.141,6.141,0,0,0,.255-.744.426.426,0,0,1,.284-.312l1.3-.419V8.641l-1.3-.419a.424.424,0,0,1-.279-.293,6.461,6.461,0,0,0-.261-.764,6.337,6.337,0,0,0-.353-.722.422.422,0,0,1-.008-.406l.626-1.219L31.3,3.434,30.1,4.05a.428.428,0,0,1-.427,0,6.039,6.039,0,0,0-.719-.354,6.294,6.294,0,0,0-.743-.256.426.426,0,0,1-.311-.285l-.418-1.306ZM25.221,1h2.572a.426.426,0,0,1,.414.33l.432,1.354c.218.066.431.144.637.23s.418.184.614.29l1.29-.665a.423.423,0,0,1,.5.078l0,0L33.5,4.44a.426.426,0,0,1,.063.523l-.65,1.269c.1.2.2.4.289.617s.161.421.229.639l1.382.445a.425.425,0,0,1,.3.4h0v2.581a.427.427,0,0,1-.329.416l-1.35.434c-.068.22-.144.434-.229.641,0,.008-.006.015-.01.021-.085.206-.179.4-.279.594l.663,1.295a.427.427,0,0,1-.077.5l0,0-1.819,1.825a.422.422,0,0,1-.521.063l-1.264-.652c-.2.105-.4.2-.614.29s-.419.162-.637.23L28.2,17.959a.424.424,0,0,1-.4.3v0H25.223a.426.426,0,0,1-.414-.33l-.432-1.354c-.219-.068-.432-.144-.638-.23l-.021-.01c-.2-.086-.4-.18-.592-.28l-1.29.665a.423.423,0,0,1-.495-.078v0l-1.819-1.825a.426.426,0,0,1-.063-.523l.65-1.269c-.1-.2-.2-.4-.289-.617s-.161-.421-.229-.639l-1.382-.445a.425.425,0,0,1-.3-.4h0V8.339a.427.427,0,0,1,.329-.416l1.35-.434a6.762,6.762,0,0,1,.229-.638c.089-.214.184-.419.289-.617L19.446,4.94a.427.427,0,0,1,.077-.5l0,0L21.34,2.617a.422.422,0,0,1,.521-.063l1.264.652c.2-.105.4-.2.614-.29s.419-.162.637-.23L24.82,1.3a.424.424,0,0,1,.4-.3V1Zm3.412,6.492a3,3,0,1,1-2.125-.884A3.015,3.015,0,0,1,28.633,7.492ZM26.508,5.754a3.866,3.866,0,1,1-2.727,1.134A3.838,3.838,0,0,1,26.508,5.754ZM4.965,30.141h7.6V29.57a2.273,2.273,0,0,1,.8-1.754,7.071,7.071,0,0,0,.369-10.321,7.041,7.041,0,1,0-9.57,10.321,2.274,2.274,0,0,1,.8,1.754ZM5.307,33.5a.755.755,0,0,0-.745.472.983.983,0,0,0,0,.709.758.758,0,0,0,.748.472h6.911a.758.758,0,0,0,.748-.472.983.983,0,0,0,0-.709.759.759,0,0,0-.745-.472Zm6.912-.854h.474a.826.826,0,0,0,.2-1.625l-.015,0A.812.812,0,0,0,12.693,31H4.839a.826.826,0,0,0-.19.023l-.013,0a.826.826,0,0,0,.2,1.625h7.38ZM6.463,36.009v.008a1.2,1.2,0,0,0,.61.948,3.052,3.052,0,0,0,1.691.466,3.052,3.052,0,0,0,1.691-.466,1.2,1.2,0,0,0,.61-.948v-.008h-4.6Zm5.453,0v.008a2.023,2.023,0,0,1-.988,1.655,3.908,3.908,0,0,1-2.164.613A3.9,3.9,0,0,1,6.6,37.672a2.023,2.023,0,0,1-.988-1.655v-.008h-.3A1.574,1.574,0,0,1,3.772,35a1.813,1.813,0,0,1,0-1.343,1.683,1.683,0,0,1,.216-.387,1.7,1.7,0,0,1-.335-.261,1.682,1.682,0,0,1,.458-2.7v-.736a1.4,1.4,0,0,0-.5-1.11,7.925,7.925,0,0,1-.418-11.57,7.891,7.891,0,0,1,12.738,8.874,7.951,7.951,0,0,1-2.014,2.7,1.4,1.4,0,0,0-.5,1.11v.736a1.679,1.679,0,0,1,.458,2.7,1.7,1.7,0,0,1-.335.261,1.684,1.684,0,0,1,.216.387,1.812,1.812,0,0,1,0,1.343,1.575,1.575,0,0,1-1.535,1.01h-.295ZM7.351,11.4a.425.425,0,0,1,.339.78l-2.5,1.091a.423.423,0,0,1-.558-.22l0,0L3.559,10.511a.424.424,0,1,1,.78-.333l.6,1.427a13.142,13.142,0,0,1,4.373-5.58,12.974,12.974,0,0,1,7.7-2.518.427.427,0,0,1,0,.854A12.123,12.123,0,0,0,9.817,6.712,12.3,12.3,0,0,0,5.636,12.15L7.348,11.4ZM30.468,22.88l-1.037-2.515-.008-.018a.422.422,0,0,0-.55-.223l0,0L26.339,21.2a.425.425,0,0,0,.332.783l1.63-.694a12.27,12.27,0,0,1-4.117,5.24,12.127,12.127,0,0,1-7.174,2.337.427.427,0,0,0,0,.854,12.963,12.963,0,0,0,7.672-2.5,13.136,13.136,0,0,0,4.373-5.538l.626,1.52a.424.424,0,1,0,.784-.324Z" transform="translate(1163.262 5190.5)" fill-rule="evenodd"/>
  </g>
</svg>
