<?xml version="1.0" encoding="UTF-8"?><svg id="Layer_1" xmlns="http://www.w3.org/2000/svg" viewBox="0 0 60 60"><defs><style>.cls-1{fill:#ffe8d4;}.cls-1,.cls-2,.cls-3,.cls-4,.cls-5,.cls-6,.cls-7,.cls-8,.cls-9{stroke-width:0px;}.cls-2{fill:#787878;}.cls-3{fill:#f6ad6d;}.cls-4{fill:#010101;}.cls-5{fill:#e8e7e6;}.cls-6{fill:#fff2e9;}.cls-7{fill:#f58220;}.cls-8{fill:#fee9d7;}.cls-9{fill:#fff;}</style></defs><circle class="cls-6" cx="30" cy="30" r="30"/><path class="cls-5" d="M51.99,42.74h-3.39v-22.05c0-1.46-1.18-2.64-2.64-2.64h-6.96c-.21-.88-.56-1.73-1.04-2.5l.81-.81c.38-.38.38-1,0-1.38l-1.51-1.52c-.38-.38-1-.38-1.38,0l-.81.81c-.77-.48-1.62-.83-2.5-1.04v-1.14c0-.54-.44-.97-.97-.97h-2.14c-.54,0-.97.44-.97.97v1.14c-.88.21-1.73.56-2.5,1.04l-.81-.81c-.38-.38-1-.38-1.38,0l-1.52,1.52c-.38.38-.38,1,0,1.38,0,0,0,0,0,0l.81.81c-.48.77-.83,1.62-1.04,2.5h-7.29c-1.46,0-2.64,1.18-2.64,2.64v22.05h-3.39c-.21,0-.38.17-.38.38v1.48c0,1.44,1.17,2.62,2.62,2.62h38.77c1.45,0,2.62-1.17,2.62-2.62v-1.48c0-.21-.17-.38-.37-.38,0,0,0,0,0,0Z"/><path class="cls-3" d="M46.72,41.61v-22.43c0-1.25-1.01-2.26-2.26-2.26H13.26c-1.25,0-2.26,1.01-2.26,2.26v22.43h35.72Z"/><path class="cls-1" d="M44.07,41.61v-20.61c0-.42-.34-.75-.75-.75H14.4c-.42,0-.75.34-.75.75v20.61h30.42Z"/><rect class="cls-9" x="13.64" y="40.48" width="30.42" height="1.13"/><path class="cls-2" d="M7.23,41.61v1.48c0,1.24,1,2.24,2.24,2.24h38.77c1.24,0,2.24-1,2.24-2.24h0v-1.48H7.23Z"/><path class="cls-2" d="M7.23,41.61v1.48c0,1.24,1,2.24,2.24,2.24h38.77c1.24,0,2.24-1,2.24-2.24h0v-1.48H7.23Z"/><path class="cls-3" d="M21.68,41.61v.75c0,.63.51,1.13,1.13,1.13h12.09c.63,0,1.13-.51,1.13-1.13v-.75h-14.36Z"/><circle class="cls-8" cx="29.02" cy="18.59" r="4.88"/><path class="cls-7" d="M39.23,19.66v-2.14c0-.33-.27-.6-.6-.6h-1.44c-.21-1.05-.63-2.04-1.22-2.93l1.02-1.02c.23-.23.23-.61,0-.84l-1.52-1.52c-.23-.23-.61-.23-.84,0,0,0,0,0,0,0l-1.02,1.02c-.89-.59-1.88-1-2.93-1.22v-1.44c0-.33-.27-.6-.6-.6h-2.14c-.33,0-.6.27-.6.6v1.44c-1.05.21-2.04.63-2.93,1.22l-1.02-1.02c-.23-.23-.61-.23-.84,0,0,0,0,0,0,0l-1.52,1.52c-.23.23-.23.61,0,.84l1.02,1.02c-.59.89-1,1.88-1.22,2.93h-1.44c-.33,0-.6.27-.6.6v2.14c0,.33.27.6.6.6h1.44c.21,1.05.63,2.04,1.22,2.93l-1.02,1.02c-.23.23-.23.61,0,.84l1.52,1.52c.23.23.61.23.84,0l1.02-1.02c.89.59,1.88,1,2.93,1.22v1.44c0,.33.27.6.6.6h2.14c.33,0,.6-.27.6-.6v-1.44c1.05-.21,2.04-.63,2.93-1.22l1.02,1.02c.23.23.61.23.84,0l1.52-1.52c.23-.23.23-.61,0-.84l-1.02-1.02c.59-.89,1-1.88,1.22-2.93h1.44c.33,0,.6-.27.6-.6h0ZM29.02,23.47c-2.7,0-4.88-2.19-4.88-4.88s2.19-4.88,4.88-4.88,4.88,2.19,4.88,4.88h0c0,2.7-2.19,4.88-4.88,4.88h0Z"/><path class="cls-4" d="M44.07,28.51c-.21,0-.38.17-.38.38v3.52c0,.21.17.38.38.38s.38-.17.38-.38v-3.52c0-.21-.17-.38-.38-.38Z"/><path class="cls-4" d="M50.48,41.23h-3.39v-22.05c0-1.46-1.18-2.64-2.64-2.64h-6.96c-.21-.88-.56-1.73-1.04-2.5l.81-.81c.38-.38.38-1,0-1.38l-1.51-1.52c-.38-.38-1-.38-1.38,0,0,0,0,0,0,0l-.81.81c-.77-.48-1.62-.83-2.5-1.04v-1.14c0-.54-.44-.97-.97-.97h-2.14c-.54,0-.97.44-.97.97v1.14c-.88.21-1.73.56-2.5,1.04l-.81-.81c-.38-.38-1-.38-1.38,0l-1.52,1.52c-.38.38-.38,1,0,1.38,0,0,0,0,0,0l.81.81c-.48.77-.83,1.62-1.04,2.5h-7.29c-1.46,0-2.64,1.18-2.64,2.64v22.05h-3.39c-.21,0-.38.17-.38.38v1.48c0,1.44,1.17,2.62,2.62,2.62h38.77c1.45,0,2.62-1.17,2.62-2.62v-1.48c0-.21-.17-.38-.37-.38,0,0,0,0,0,0ZM46.34,19.18v22.05h-1.89v-7.2c0-.21-.17-.38-.38-.38s-.38.17-.38.38v7.2H14.02v-20.23c0-.21.17-.38.38-.38h4.96s.03,0,.05,0h1.14c.21.88.56,1.73,1.04,2.5l-.81.81c-.38.38-.38,1,0,1.38h0s1.52,1.52,1.52,1.52c.38.38,1,.38,1.38,0l.81-.81c.77.48,1.62.83,2.5,1.04v1.14c0,.54.44.97.97.97h2.14c.54,0,.97-.44.97-.97v-1.14c.88-.21,1.73-.56,2.5-1.04l.81.81c.38.38,1,.38,1.38,0l1.52-1.52c.38-.38.38-1,0-1.38l-.81-.81c.48-.77.83-1.62,1.04-2.5h1.14s.03,0,.05,0h4.63c.21,0,.38.17.38.38v6.16c0,.21.17.38.38.38s.38-.17.38-.38v-6.16c0-.62-.51-1.13-1.13-1.13h-3.73c.02-.07.03-.14.03-.21v-2.14c0-.07,0-.15-.03-.22h4.87c1.04,0,1.88.84,1.88,1.88ZM21.22,17c.2-1,.6-1.95,1.16-2.8.1-.15.08-.35-.05-.47l-1.02-1.02c-.09-.09-.09-.22,0-.31h0s1.52-1.52,1.52-1.52c.09-.09.22-.09.31,0l1.02,1.02c.13.13.33.15.47.05.85-.56,1.8-.96,2.8-1.16.18-.04.3-.19.3-.37v-1.44c0-.12.1-.22.22-.22h2.14c.12,0,.22.1.22.22v1.44c0,.18.13.33.3.37,1,.2,1.95.6,2.8,1.16.15.1.35.08.47-.05l1.02-1.02c.09-.09.22-.09.31,0,0,0,0,0,0,0l1.51,1.52c.09.09.09.22,0,.31,0,0,0,0,0,0l-1.02,1.02c-.13.13-.15.33-.05.47.56.85.96,1.8,1.16,2.8.04.18.19.3.37.3h1.44c.12,0,.22.1.22.22v2.14c0,.12-.1.22-.22.22h-1.44c-.18,0-.33.13-.37.3-.2,1-.6,1.95-1.16,2.8-.1.15-.08.35.05.47l1.02,1.02c.09.09.09.22,0,.31,0,0,0,0,0,0l-1.52,1.52c-.09.09-.22.09-.31,0l-1.02-1.02c-.13-.13-.33-.15-.47-.05-.85.56-1.8.96-2.8,1.16-.18.04-.3.19-.3.37v1.44c0,.12-.1.22-.22.22h-2.14c-.12,0-.22-.1-.22-.22v-1.44c0-.18-.13-.33-.3-.37-1-.2-1.95-.6-2.8-1.16-.15-.1-.35-.08-.47.05l-1.02,1.02c-.09.09-.22.09-.31,0h0s-1.52-1.52-1.52-1.52c-.09-.09-.09-.22,0-.31,0,0,0,0,0,0l1.02-1.02c.13-.13.15-.32.05-.47-.56-.85-.96-1.8-1.16-2.8-.04-.18-.19-.3-.37-.3h-1.44c-.12,0-.22-.1-.22-.22v-2.14c0-.12.1-.22.22-.22h1.44c.18,0,.33-.13.37-.3h0ZM11.37,19.18c0-1.04.84-1.88,1.88-1.88h5.2c-.02.07-.03.15-.03.22v2.14c0,.07,0,.14.03.21h-4.06c-.62,0-1.13.51-1.13,1.13v20.23h-1.89v-22.05ZM50.11,43.09c0,1.03-.84,1.86-1.86,1.86H9.47c-1.03,0-1.86-.83-1.86-1.86v-1.11h42.5v1.11Z"/><path class="cls-4" d="M29.02,23.85c2.9,0,5.26-2.35,5.26-5.26s-2.35-5.26-5.26-5.26-5.26,2.35-5.26,5.26h0c0,2.9,2.36,5.26,5.26,5.26ZM29.02,14.08c2.49,0,4.5,2.02,4.5,4.5s-2.02,4.5-4.5,4.5-4.5-2.02-4.5-4.5c0-2.49,2.02-4.5,4.5-4.51h0ZM24.79,31.55c-.09-.17-.22-.31-.38-.41-.33-.19-.74-.2-1.07,0-.17.09-.3.24-.37.41l-3.05,6.41c-.05.11-.09.24-.09.36,0,.21.1.41.26.54.16.14.37.22.59.22.15,0,.29-.04.41-.12.13-.09.23-.21.29-.36l.6-1.33h3.83l.6,1.33c.11.29.39.48.7.47.21,0,.42-.08.58-.22.16-.13.26-.33.25-.54,0-.13-.04-.25-.09-.36l-3.05-6.41ZM22.57,35.94l1.32-2.94,1.31,2.94h-2.63ZM32.57,31.07h-2.84c-.41-.05-.78.25-.83.66,0,.05,0,.11,0,.16v6.33c-.02.49.35.9.84.92.49.02.9-.35.92-.84,0-.03,0-.05,0-.08v-2.18h1.9c.73.05,1.46-.19,2.02-.66.96-1.03.96-2.63,0-3.66-.57-.47-1.29-.7-2.02-.66ZM32.34,34.71h-1.67v-2.29h1.67c.88,0,1.32.38,1.32,1.15,0,.76-.44,1.14-1.32,1.14h0ZM37.34,31.01c-.24-.01-.47.07-.64.24-.16.17-.25.4-.24.63v6.34c-.02.49.35.9.84.92.49.02.9-.35.92-.84,0-.03,0-.05,0-.08v-6.34c.01-.23-.07-.46-.24-.63-.17-.16-.41-.25-.64-.24Z"/></svg>