<svg xmlns="http://www.w3.org/2000/svg" xmlns:xlink="http://www.w3.org/1999/xlink" width="45" height="45" viewBox="0 0 45 45">
  <defs>
    <clipPath id="clip-path">
      <rect id="Rectangle_3630" data-name="Rectangle 3630" width="45" height="45" transform="translate(1251 5181)" fill="none" stroke="#707070" stroke-width="1"/>
    </clipPath>
  </defs>
  <g id="Mask_Group_8013" data-name="Mask Group 8013" transform="translate(-1251 -5181)" clip-path="url(#clip-path)">
    <g id="_2" data-name="2" transform="translate(1254.462 5184.461)">
      <path id="Path_7622" data-name="Path 7622" d="M39.287,39.471a4.507,4.507,0,1,0,3.2-1.329A4.547,4.547,0,0,0,39.287,39.471Zm5.592,5.618a3.4,3.4,0,1,1,.923-1.735A3.369,3.369,0,0,1,44.879,45.089Z" transform="translate(-14.625 -14.694)"/>
      <path id="Path_7623" data-name="Path 7623" d="M48.24,40.649a.575.575,0,0,0-.358-.288l-.906-.245v-.288l.906-.245a.574.574,0,0,0,.358-.288,2.741,2.741,0,0,0,.344-1.7,2.71,2.71,0,0,0-1.147-1.3.571.571,0,0,0-.45-.066l-.9.245c-.046-.084-.095-.167-.143-.248l.68-.651a.578.578,0,0,0,.169-.426,2.7,2.7,0,0,0-.548-1.642,2.673,2.673,0,0,0-1.635-.547.549.549,0,0,0-.422.167l-.662.665-.247-.144.241-.908a.578.578,0,0,0-.066-.452,2.736,2.736,0,0,0-1.29-1.152,2.67,2.67,0,0,0-1.689.346.575.575,0,0,0-.287.357l-.244.91h-.287l-.249-.9a.576.576,0,0,0-.287-.357,2.688,2.688,0,0,0-1.689-.346,2.694,2.694,0,0,0-1.29,1.152.578.578,0,0,0-.066.452l.244.908-.247.144-.662-.666a.572.572,0,0,0-.424-.167,2.661,2.661,0,0,0-1.635.547,2.73,2.73,0,0,0-.545,1.642.577.577,0,0,0,.166.426l.662.666c-.049.081-.1.164-.143.248l-.9-.245a.571.571,0,0,0-.45.066,2.754,2.754,0,0,0-1.147,1.3,2.7,2.7,0,0,0,.344,1.7.574.574,0,0,0,.356.288l.906.245v.288l-.886.222a.574.574,0,0,0-.356.288,2.738,2.738,0,0,0-.347,1.7,2.7,2.7,0,0,0,1.147,1.3.572.572,0,0,0,.45.066l.9-.242c.046.084.095.164.143.248l-.662.666a.577.577,0,0,0-.166.424,2.691,2.691,0,0,0,.545,1.642A2.707,2.707,0,0,0,35,47a.572.572,0,0,0,.424-.17l.662-.665.247.144-.244.908a.579.579,0,0,0,.066.452,2.736,2.736,0,0,0,1.29,1.152,1.4,1.4,0,0,0,.347.043,3.22,3.22,0,0,0,1.342-.389.576.576,0,0,0,.287-.36l.244-.91h.287l.244.91a.576.576,0,0,0,.287.36,2.708,2.708,0,0,0,1.689.346,2.694,2.694,0,0,0,1.29-1.152.578.578,0,0,0,.066-.452l-.241-.908.247-.144.662.665a.552.552,0,0,0,.422.17,2.668,2.668,0,0,0,1.635-.55,2.711,2.711,0,0,0,.548-1.642.577.577,0,0,0-.169-.424l-.662-.666c.049-.084.1-.164.143-.248l.9.242a.572.572,0,0,0,.45-.066,2.74,2.74,0,0,0,1.147-1.3A2.621,2.621,0,0,0,48.24,40.649Zm-.76,1.4a1.438,1.438,0,0,1-.444.478l-1.1-.288a.573.573,0,0,0-.668.314,6.215,6.215,0,0,1-.528.913.578.578,0,0,0,.063.74l.806.807a1.463,1.463,0,0,1-.192.625,1.429,1.429,0,0,1-.622.193l-.8-.81a.571.571,0,0,0-.737-.063,5.7,5.7,0,0,1-.909.53.577.577,0,0,0-.313.671l.287,1.1a1.437,1.437,0,0,1-.476.447,1.39,1.39,0,0,1-.637-.147l-.287-1.1a.574.574,0,0,0-.614-.432,6.413,6.413,0,0,1-1.052,0,.574.574,0,0,0-.6.424l-.287,1.1a1.429,1.429,0,0,1-.639.153,1.407,1.407,0,0,1-.479-.447l.287-1.1a.577.577,0,0,0-.313-.671,5.834,5.834,0,0,1-.909-.53.571.571,0,0,0-.734.063l-.806.81a1.461,1.461,0,0,1-.622-.193,1.446,1.446,0,0,1-.192-.625l.806-.807a.578.578,0,0,0,.063-.74,6.074,6.074,0,0,1-.528-.913.573.573,0,0,0-.657-.32l-1.1.288a1.46,1.46,0,0,1-.444-.478,1.445,1.445,0,0,1,.146-.64l1.1-.288a.576.576,0,0,0,.424-.611,5.92,5.92,0,0,1,0-1.057.576.576,0,0,0-.424-.6l-1.1-.288a1.445,1.445,0,0,1-.146-.642,1.408,1.408,0,0,1,.444-.481l1.1.288a.573.573,0,0,0,.668-.314,6.37,6.37,0,0,1,.528-.913.578.578,0,0,0-.063-.738l-.806-.8a1.477,1.477,0,0,1,.192-.625,1.429,1.429,0,0,1,.622-.193l.806.81a.572.572,0,0,0,.734.063,6.323,6.323,0,0,1,.909-.53.577.577,0,0,0,.313-.671l-.287-1.1a1.437,1.437,0,0,1,.467-.447,1.428,1.428,0,0,1,.634.147l.287,1.1a.574.574,0,0,0,.6.426,5.832,5.832,0,0,1,1.052,0,.574.574,0,0,0,.605-.426l.287-1.1a1.46,1.46,0,0,1,.637-.147,1.437,1.437,0,0,1,.485.447l-.287,1.1a.577.577,0,0,0,.313.671,6.176,6.176,0,0,1,.909.53.571.571,0,0,0,.737-.063l.8-.81a1.429,1.429,0,0,1,.622.193,1.405,1.405,0,0,1,.192.625l-.806.81a.578.578,0,0,0-.063.738,6.116,6.116,0,0,1,.528.913.573.573,0,0,0,.668.314l1.1-.288a1.408,1.408,0,0,1,.45.47,1.4,1.4,0,0,1-.146.637l-1.1.288a.576.576,0,0,0-.422.605,6.5,6.5,0,0,1,0,1.057.576.576,0,0,0,.422.608l1.1.288A1.429,1.429,0,0,1,47.48,42.049Z" transform="translate(-11.921 -11.98)"/>
      <path id="Path_7624" data-name="Path 7624" d="M19.991,21.518a.578.578,0,0,0-.075-.219l-.261-.458a10.316,10.316,0,0,0,1.09-1.095l.456.262a.572.572,0,0,0,.218.075c1.041.124,2.363.127,2.759-.559s-.287-1.835-.9-2.679a.575.575,0,0,0-.172-.153l-.45-.271a10.116,10.116,0,0,0,.4-1.5h.525a.613.613,0,0,0,.227-.046c.964-.415,2.111-1.077,2.111-1.87s-1.147-1.441-2.111-1.867a.572.572,0,0,0-.227-.046H23.05a10.059,10.059,0,0,0-.4-1.492l.453-.262a.549.549,0,0,0,.172-.153c.628-.844,1.293-1.994.9-2.679s-1.721-.683-2.759-.556a.572.572,0,0,0-.218.072l-.456.265a10.1,10.1,0,0,0-1.1-1.1l.264-.458a.577.577,0,0,0,.075-.219c.123-1.046.126-2.374-.556-2.772s-1.827.288-2.667.9a.575.575,0,0,0-.152.173l-.27.461a10,10,0,0,0-1.483-.395V2.348a.619.619,0,0,0-.046-.228C14.4,1.152,13.745,0,12.956,0S11.522,1.152,11.1,2.12a.579.579,0,0,0-.049.228v.533a10,10,0,0,0-1.491.4L9.3,2.826a.55.55,0,0,0-.152-.173c-.829-.637-1.976-1.305-2.667-.91S5.8,3.472,5.925,4.515A.535.535,0,0,0,6,4.734l.264.452a10.367,10.367,0,0,0-1.1,1.1l-.456-.265a.572.572,0,0,0-.218-.072c-1.041-.127-2.363-.13-2.759.556s.278,1.847.906,2.679a.549.549,0,0,0,.172.153l.453.262a10.064,10.064,0,0,0-.393,1.5H2.337a.571.571,0,0,0-.227.046C1.147,11.564,0,12.224,0,13.016s1.147,1.441,2.111,1.87a.61.61,0,0,0,.227.046h.531a10.122,10.122,0,0,0,.393,1.49l-.453.262a.574.574,0,0,0-.172.153c-.628.853-1.293,2-.9,2.688s1.721.683,2.759.559a.572.572,0,0,0,.218-.075l.45-.262a10.346,10.346,0,0,0,1.093,1.095l-.264.458a.535.535,0,0,0-.072.219c-.126,1.046-.129,2.374.553,2.772S8.3,24,9.139,23.385a.55.55,0,0,0,.152-.173l.267-.452a9.993,9.993,0,0,0,1.491.4v.527a.579.579,0,0,0,.049.228c.413.968,1.07,2.12,1.858,2.12s1.434-1.152,1.861-2.12a.619.619,0,0,0,.046-.228v-.53a9.814,9.814,0,0,0,1.483-.4l.261.455a.576.576,0,0,0,.152.173c.84.631,1.984,1.3,2.667.9S20.114,22.564,19.991,21.518Zm-1.434-1.268a.578.578,0,0,0-.143.743l.447.775a5.277,5.277,0,0,1-.029,1.475,5.156,5.156,0,0,1-1.288-.712l-.444-.775a.572.572,0,0,0-.711-.245,9.015,9.015,0,0,1-2.182.576.575.575,0,0,0-.493.576v.9a5.165,5.165,0,0,1-.76,1.262,5.352,5.352,0,0,1-.76-1.262v-.893a.575.575,0,0,0-.493-.576,9.018,9.018,0,0,1-2.182-.576.572.572,0,0,0-.711.245l-.444.775a5.188,5.188,0,0,1-1.285.712,5.148,5.148,0,0,1-.032-1.475L7.493,21a.578.578,0,0,0-.143-.743,9.176,9.176,0,0,1-1.6-1.6.572.572,0,0,0-.74-.144l-.769.447a5.079,5.079,0,0,1-1.468-.032,5.226,5.226,0,0,1,.708-1.291l.771-.447a.578.578,0,0,0,.244-.714,9.165,9.165,0,0,1-.574-2.192.574.574,0,0,0-.574-.5H2.458A5.133,5.133,0,0,1,1.2,13.016a5.229,5.229,0,0,1,1.256-.761h.892a.574.574,0,0,0,.574-.5A9.2,9.2,0,0,1,4.5,9.565a.577.577,0,0,0-.244-.714L3.481,8.4a5.228,5.228,0,0,1-.708-1.291,5.079,5.079,0,0,1,1.468-.032l.771.449a.572.572,0,0,0,.74-.144,9.174,9.174,0,0,1,1.6-1.6.578.578,0,0,0,.143-.743l-.444-.775A5.148,5.148,0,0,1,7.08,2.789,5.189,5.189,0,0,1,8.365,3.5l.444.775a.572.572,0,0,0,.711.245A9.089,9.089,0,0,1,11.7,3.944a.575.575,0,0,0,.493-.576v-.9a5.351,5.351,0,0,1,.76-1.262,5.166,5.166,0,0,1,.76,1.262v.9a.575.575,0,0,0,.493.576,9.053,9.053,0,0,1,2.182.576.572.572,0,0,0,.711-.245l.444-.775a5.154,5.154,0,0,1,1.288-.712,5.282,5.282,0,0,1,.029,1.475l-.447.775a.578.578,0,0,0,.143.743,9.077,9.077,0,0,1,1.6,1.6.572.572,0,0,0,.74.144l.771-.449a5.075,5.075,0,0,1,1.468.032A5.228,5.228,0,0,1,22.428,8.4l-.771.447a.578.578,0,0,0-.244.714,9.2,9.2,0,0,1,.574,2.192.574.574,0,0,0,.574.5h.892a5.049,5.049,0,0,1,1.256.761,5.133,5.133,0,0,1-1.256.763h-.889a.574.574,0,0,0-.574.5,9.166,9.166,0,0,1-.574,2.192.577.577,0,0,0,.244.714l.771.447a5.229,5.229,0,0,1,.708,1.291,5.075,5.075,0,0,1-1.468.032L20.9,18.5a.572.572,0,0,0-.74.144,9.174,9.174,0,0,1-1.6,1.608Z"/>
      <path id="Path_7625" data-name="Path 7625" d="M31.429,21.334a.575.575,0,0,0-.574-.576h-.574v-4.61h.574a.576.576,0,0,0,0-1.152H28.562a.576.576,0,0,0,0,1.152h.574v4.61h-.574a.576.576,0,0,0,0,1.152h2.294a.575.575,0,0,0,.574-.576Z" transform="translate(-10.782 -5.777)"/>
      <path id="Path_7626" data-name="Path 7626" d="M11.79,15.3a.566.566,0,0,0-1.055,0L8.44,21.11a.578.578,0,0,0,.133.627.572.572,0,0,0,.188.122.553.553,0,0,0,.209.029.574.574,0,0,0,.533-.363l.642-1.634H12.38l.645,1.634a.576.576,0,0,0,.306.316.574.574,0,0,0,.754-.3.579.579,0,0,0,.006-.441ZM10.6,18.756l.665-1.683.662,1.677Z" transform="translate(-3.236 -5.754)"/>
      <path id="Path_7627" data-name="Path 7627" d="M21.6,15H20.165a.575.575,0,0,0-.574.576v5.762a.575.575,0,0,0,.574.576.575.575,0,0,0,.574-.576V19.894h.86a2.452,2.452,0,1,0,0-4.9Zm0,3.745h-.86V16.148h.86a1.354,1.354,0,0,1,1.305.776,1.3,1.3,0,0,1-.777,1.743A1.348,1.348,0,0,1,21.6,18.741Z" transform="translate(-7.548 -5.777)"/>
    </g>
  </g>
</svg>
