<svg xmlns="http://www.w3.org/2000/svg" xmlns:xlink="http://www.w3.org/1999/xlink" width="45" height="45" viewBox="0 0 45 45">
  <defs>
    <clipPath id="clip-path">
      <rect id="Rectangle_3631" data-name="Rectangle 3631" width="45" height="45" transform="translate(1391 5163)" fill="none" stroke="#707070" stroke-width="1"/>
    </clipPath>
  </defs>
  <g id="Mask_Group_8014" data-name="Mask Group 8014" transform="translate(-1391 -5163)" clip-path="url(#clip-path)">
    <g id="_3" data-name="3" transform="translate(1394.041 5167.257)">
      <path id="Path_7628" data-name="Path 7628" d="M29.08,0H3.531V5.885H2.942A2.946,2.946,0,0,0,0,8.827V19.42a2.946,2.946,0,0,0,2.942,2.942h.588V36.486H36.486V7.407Zm.345,2.009,5.053,5.053H29.425ZM7.062,10.593V1.177H8.239v9.416ZM5.885,1.177v9.416H4.708V1.177ZM2.942,7.062h.588v3.531H2.942a1.765,1.765,0,0,1,0-3.531ZM1.177,19.42V11.18a2.931,2.931,0,0,0,1.765.59H21.774a1.768,1.768,0,0,1,1.765,1.766V19.42a1.768,1.768,0,0,1-1.765,1.765H2.942A1.768,1.768,0,0,1,1.177,19.42Zm7.062,2.942V35.309H7.062V22.363Zm-3.531,0H5.885V35.309H4.708ZM9.416,35.309V22.363H21.774a2.946,2.946,0,0,0,2.942-2.942V13.535a2.946,2.946,0,0,0-2.942-2.942H9.416V1.177H28.248V8.239h7.062V35.309Z"/>
      <path id="Path_7629" data-name="Path 7629" d="M21.273,21.29a1.271,1.271,0,0,0-1.208.87l-.887,2.661H18.85l-.887-2.661a1.272,1.272,0,0,0-2.479.4v5.79H16.66v-5.79a.1.1,0,0,1,.186-.03L18,26h2.025l1.155-3.466a.1.1,0,0,1,.187.03v5.79h1.177v-5.79A1.274,1.274,0,0,0,21.273,21.29Z" transform="translate(-6.068 -8.343)"/>
      <path id="Path_7630" data-name="Path 7630" d="M30.209,21.29H29.032v7.062h3.531V27.175H30.209Z" transform="translate(-11.377 -8.343)"/>
      <path id="Path_7631" data-name="Path 7631" d="M9.709,20.753l-1.864,2.8-1.864-2.8L5,21.406l2.136,3.2L5,27.815l.979.653,1.864-2.8,1.864,2.8.979-.653-2.136-3.2,2.136-3.2Z" transform="translate(-1.96 -8.133)"/>
      <path id="Path_7632" data-name="Path 7632" d="M17.419,7.4H20.95V3.871H17.419ZM18.6,5.048h1.177V6.225H18.6Z" transform="translate(-6.826 -1.517)"/>
      <path id="Path_7633" data-name="Path 7633" d="M25.161,7.4h3.531V3.871H25.161Zm1.177-2.354h1.177V6.225H26.338Z" transform="translate(-9.86 -1.517)"/>
      <path id="Path_7634" data-name="Path 7634" d="M32.9,7.4h3.531V3.871H32.9ZM34.08,5.048h1.177V6.225H34.08Z" transform="translate(-12.895 -1.517)"/>
      <path id="Path_7635" data-name="Path 7635" d="M35.3,38.71a5.3,5.3,0,1,0,5.3,5.3A5.3,5.3,0,0,0,35.3,38.71Zm-.935,7.062a6.6,6.6,0,0,1-.213-1.177h2.3a6.6,6.6,0,0,1-.213,1.177Zm1.417,1.177a6.644,6.644,0,0,1-.481.821,6.568,6.568,0,0,1-.481-.821Zm-1.63-3.531a6.6,6.6,0,0,1,.213-1.177h1.87a6.6,6.6,0,0,1,.213,1.177Zm.667-2.354a6.646,6.646,0,0,1,.481-.821,6.653,6.653,0,0,1,.481.821ZM36.6,40.1a4.124,4.124,0,0,1,1.571.961h-1.1A7.715,7.715,0,0,0,36.6,40.1Zm-3.084.961h-1.1A4.118,4.118,0,0,1,33.99,40.1,7.889,7.889,0,0,0,33.519,41.064Zm-.372,1.177a7.7,7.7,0,0,0-.182,1.177H31.224a4.083,4.083,0,0,1,.356-1.177Zm-.182,2.354a7.7,7.7,0,0,0,.182,1.177H31.58a4.083,4.083,0,0,1-.356-1.177Zm.554,2.354a7.8,7.8,0,0,0,.471.961,4.124,4.124,0,0,1-1.571-.961Zm3.556,0h1.1a4.117,4.117,0,0,1-1.571.961A7.877,7.877,0,0,0,37.074,46.949Zm.372-1.177a7.688,7.688,0,0,0,.182-1.177h1.741a4.085,4.085,0,0,1-.356,1.177Zm.182-2.354a7.689,7.689,0,0,0-.182-1.177h1.567a4.085,4.085,0,0,1,.356,1.177Z" transform="translate(-11.757 -15.17)"/>
      <path id="Path_7636" data-name="Path 7636" d="M46.7,38.849l4.361,4.906L46.7,48.66l.88.782,5.055-5.687-5.055-5.687Z" transform="translate(-18.3 -14.918)"/>
      <path id="Path_7637" data-name="Path 7637" d="M26.9,38.849l-.88-.781-5.055,5.687,5.055,5.687.88-.782-4.361-4.906Z" transform="translate(-8.215 -14.918)"/>
      <path id="Path_7638" data-name="Path 7638" d="M50.82,15.483H42.581V16.66H50.82Z" transform="translate(-16.687 -6.068)"/>
      <path id="Path_7639" data-name="Path 7639" d="M55.37,19.354H54.193v1.177H55.37Z" transform="translate(-21.238 -7.585)"/>
      <path id="Path_7640" data-name="Path 7640" d="M48.466,19.354H42.581v1.177h5.885Z" transform="translate(-16.687 -7.585)"/>
      <path id="Path_7641" data-name="Path 7641" d="M50.82,23.226H42.581V24.4H50.82Z" transform="translate(-16.687 -9.102)"/>
      <path id="Path_7642" data-name="Path 7642" d="M50.82,27.1H42.581v1.177H50.82Z" transform="translate(-16.687 -10.619)"/>
      <path id="Path_7643" data-name="Path 7643" d="M52.336,30.968H46.451v1.177h5.885Z" transform="translate(-18.204 -12.136)"/>
      <path id="Path_7644" data-name="Path 7644" d="M43.758,30.968H42.581v1.177h1.177Z" transform="translate(-16.687 -12.136)"/>
      <path id="Path_7645" data-name="Path 7645" d="M50.82,34.839H42.581v1.177H50.82Z" transform="translate(-16.687 -13.653)"/>
    </g>
  </g>
</svg>
