<svg xmlns="http://www.w3.org/2000/svg" xmlns:xlink="http://www.w3.org/1999/xlink" width="45" height="45" viewBox="0 0 45 45">
  <defs>
    <clipPath id="clip-path">
      <rect id="Rectangle_3629" data-name="Rectangle 3629" width="45" height="45" transform="translate(865 5375)" fill="none" stroke="#707070" stroke-width="1"/>
    </clipPath>
  </defs>
  <g id="Mask_Group_8012" data-name="Mask Group 8012" transform="translate(-865 -5375)" clip-path="url(#clip-path)">
    <path id="_1" data-name="1" d="M8.171,19.9a.585.585,0,0,0,0-1.169H5.1a.585.585,0,0,0-.585.585v4.25a1.624,1.624,0,1,0,1.169,0V19.9ZM5.1,25.534a.455.455,0,1,1,.455-.455A.455.455,0,0,1,5.1,25.534Zm19.655-.455a1.624,1.624,0,1,0,2.208-1.513v-4.25a.585.585,0,0,0-.584-.585h-3.79a.585.585,0,1,0,0,1.169H25.79v3.665A1.627,1.627,0,0,0,24.751,25.079Zm1.624.455a.455.455,0,1,1,.455-.455A.456.456,0,0,1,26.374,25.534ZM15.7,23.884a.584.584,0,0,0-.584.585v1.815a1.624,1.624,0,1,0,1.169,0V24.468A.585.585,0,0,0,15.7,23.884Zm0,4.369a.455.455,0,1,1,.455-.455A.456.456,0,0,1,15.7,28.253Zm-7.754-.579h-5.7a1.4,1.4,0,0,0-1.4,1.4v3.252a1.4,1.4,0,0,0,1.4,1.4H3.5l-.5,1.1a.585.585,0,0,0,.532.826H6.657a.585.585,0,0,0,.532-.826l-.5-1.1H7.945a1.4,1.4,0,0,0,1.4-1.4V29.071A1.4,1.4,0,0,0,7.945,27.674Zm-2.195,6.8H4.441l.343-.756h.623Zm2.422-2.152a.23.23,0,0,1-.227.227h-5.7a.23.23,0,0,1-.227-.227V29.071a.23.23,0,0,1,.227-.227h5.7a.23.23,0,0,1,.227.227Zm9.472-2.011H13.781a1.136,1.136,0,0,0-1.135,1.135v6.465A1.158,1.158,0,0,0,13.8,39.068h3.819a1.158,1.158,0,0,0,1.157-1.157V31.446A1.136,1.136,0,0,0,17.644,30.311ZM17.61,37.9h-3.8V31.48h3.8Zm-2.992-1.266a.585.585,0,0,1,.585-.585h1.175a.585.585,0,0,1,0,1.169H15.2A.584.584,0,0,1,14.618,36.634Zm16.671-2.01-.744-1.809v-4.73a.584.584,0,0,0-.584-.584H22.638a.584.584,0,0,0-.585.584V32.84l-.609,1.925a.585.585,0,0,0,.557.761h.006l8.746-.095a.585.585,0,0,0,.535-.807Zm-8.066-5.955h6.153v3.676H23.222Zm-.42,5.679.264-.833h6.5l.311.757Zm-2.3-13.968a6.329,6.329,0,0,0,1.141-3.555c0-.013,0-.026,0-.04a.127.127,0,0,0,0-.013c0-.009,0-.017,0-.026a6.332,6.332,0,0,0-1.165-3.664A.6.6,0,0,0,20.431,13l-.021-.024a6.361,6.361,0,0,0-10.341.118q-.02.022-.038.047a.585.585,0,0,0-.038.061,6.333,6.333,0,0,0-1.081,3.546c0,.009,0,.017,0,.026s0,.009,0,.013,0,.026,0,.04a6.334,6.334,0,0,0,1.1,3.5.633.633,0,0,0,.041.064.5.5,0,0,0,.036.043,6.36,6.36,0,0,0,10.341.056c.008-.01.017-.019.025-.029A.578.578,0,0,0,20.507,20.38ZM10.119,17.37h1.625a11.187,11.187,0,0,0,.143,1.324,6.963,6.963,0,0,0-1.178.529A5.158,5.158,0,0,1,10.119,17.37Zm.577-3.076a7.064,7.064,0,0,0,1.2.526,11.156,11.156,0,0,0-.152,1.381H10.109A5.17,5.17,0,0,1,10.7,14.294ZM20.452,16.2H18.817a11.064,11.064,0,0,0-.167-1.463,6.744,6.744,0,0,0,1.156-.549A5.156,5.156,0,0,1,20.452,16.2Zm-2.805,0H15.865v-.9a10.61,10.61,0,0,0,1.657-.234A10.021,10.021,0,0,1,17.647,16.2Zm-1.781-2.07V11.769a3.928,3.928,0,0,1,1.386,2.165A9.453,9.453,0,0,1,15.865,14.131ZM14.7,11.769v2.374a9.712,9.712,0,0,1-1.4-.164A3.968,3.968,0,0,1,14.7,11.769Zm0,3.545V16.2H12.915a10.172,10.172,0,0,1,.115-1.08A10.791,10.791,0,0,0,14.7,15.314ZM12.915,17.37H14.7v.81a10.739,10.739,0,0,0-1.675.2A9.955,9.955,0,0,1,12.915,17.37ZM14.7,19.351v2.413a3.973,3.973,0,0,1-1.414-2.237A9.539,9.539,0,0,1,14.7,19.351Zm1.169,2.412V19.356a9.52,9.52,0,0,1,1.407.193A3.953,3.953,0,0,1,15.865,21.763Zm0-3.576V17.37h1.781a10.009,10.009,0,0,1-.111,1.044A10.657,10.657,0,0,0,15.865,18.187Zm2.951-.817h1.625a5.16,5.16,0,0,1-.621,1.907,6.843,6.843,0,0,0-1.156-.538A11.086,11.086,0,0,0,18.817,17.37Zm.3-4.13a5.479,5.479,0,0,1-.749.359,7.121,7.121,0,0,0-.619-1.428A5.226,5.226,0,0,1,19.118,13.24Zm-6.305-1.07a7.152,7.152,0,0,0-.644,1.506,5.9,5.9,0,0,1-.8-.349A5.229,5.229,0,0,1,12.812,12.17Zm-1.427,8.016a5.766,5.766,0,0,1,.769-.344,7.478,7.478,0,0,0,.51,1.283c.029.056.059.11.089.164A5.249,5.249,0,0,1,11.385,20.186Zm6.422,1.1c.03-.054.06-.108.089-.164a7.408,7.408,0,0,0,.5-1.244,5.588,5.588,0,0,1,.742.349A5.222,5.222,0,0,1,17.808,21.288ZM1.014,12.978A4.424,4.424,0,0,1,4.4,8.7,7.367,7.367,0,0,1,17.584,3.259a6.128,6.128,0,0,1,7.082,3.206h.264a5.452,5.452,0,1,1,0,10.9H22.812a.585.585,0,1,1,0-1.169H24.93a4.283,4.283,0,1,0,0-8.566h-.64a.585.585,0,0,1-.54-.36,4.957,4.957,0,0,0-6.205-2.78.585.585,0,0,1-.679-.229A6.2,6.2,0,0,0,5.5,7.69a6.254,6.254,0,0,0,.151,1.367.585.585,0,0,1-.521.711A3.223,3.223,0,0,0,5.406,16.2H7.691a.585.585,0,1,1,0,1.169H5.406A4.4,4.4,0,0,1,1.014,12.978Z" transform="translate(871.861 5377.804)"/>
  </g>
</svg>
