<?xml version="1.0" encoding="utf-8"?>
<!-- Svg Vector Icons : http://www.onlinewebfonts.com/icon -->
<!DOCTYPE svg PUBLIC "-//W3C//DTD SVG 1.1//EN" "http://www.w3.org/Graphics/SVG/1.1/DTD/svg11.dtd">
<svg version="1.1" xmlns="http://www.w3.org/2000/svg" xmlns:xlink="http://www.w3.org/1999/xlink" x="0px" y="0px" viewBox="0 0 256 256" enable-background="new 0 0 256 256" xml:space="preserve">
<metadata> Svg Vector Icons : http://www.onlinewebfonts.com/icon </metadata>
<g><g><g><path fill="#000000" d="M12.6,35.2c-1.1,0.7-1.8,1.6-2.2,3c-0.4,1.4-0.5,26.2-0.4,80.5l0.2,78.5l1.6,1.6l1.6,1.6h8.5c9.3,0,10.2-0.2,11.5-2.6c1-2,1-3.5-0.3-5.4c-1.2-2-3.4-2.7-8.6-2.7h-3.8l0.1-72.3L20.7,45l93.9-0.2l93.9-0.1V48c0,5.3,1.5,7.3,5.5,7.3c1.7,0,2.4-0.3,3.6-1.5l1.5-1.5V45v-7.3l-1.5-1.6l-1.5-1.7l-101-0.2C15.7,34.2,14.2,34.2,12.6,35.2z"/><path fill="#000000" d="M46.6,61.2c-0.8,0.1-2,0.9-2.8,1.7l-1.5,1.5l-0.2,75c-0.1,41.3,0,76,0.2,77.2c0.3,1.5,0.8,2.7,1.8,3.7l1.4,1.4h98.7h98.7l1.5-1.5c0.8-0.8,1.5-1.9,1.5-2.4c0.3-6.6,0.2-151.3-0.1-152.6c-0.3-1-1-2.3-1.8-3l-1.3-1.2L145.3,61C91.7,61,47.3,61.1,46.6,61.2z M235.2,87.8v16.2h-91c-86.3,0-91-0.1-91.1-0.9c-0.2-2.4-0.3-31.1-0.2-31.3c0.1-0.2,41.1-0.3,91.2-0.3h91L235.2,87.8L235.2,87.8z M235.2,162.9v48.3h-91h-91l-0.1-1.7c-0.1-0.9-0.1-22.6-0.2-48.3l-0.1-46.6H144h91.2L235.2,162.9L235.2,162.9z"/><path fill="#000000" d="M64.4,80c-3.2,0.9-5.3,4.5-4.5,7.7c0.2,0.7,1,2,1.7,2.8c1.2,1.3,1.9,1.6,3.9,1.8c3,0.3,4.5-0.5,6.1-2.8C74.9,84.7,70.2,78.4,64.4,80z"/><path fill="#000000" d="M82,80c-1.8,0.5-4,2.9-4.5,4.9c-0.5,2.1,0.9,5.2,2.9,6.5c2.5,1.7,6,1.4,8.1-0.8c2.9-2.9,2.3-8.2-1-9.9C85.4,79.7,83.8,79.5,82,80z"/><path fill="#000000" d="M99.6,80c-0.9,0.3-2.2,1.2-2.9,2c-3.7,4.4-0.8,10.6,5.2,10.6c1.9,0,2.5-0.3,4.1-2c1.7-1.6,2-2.3,2-4c0-1.2-0.4-2.8-0.8-3.6C106,80.5,102.4,79.2,99.6,80z"/></g></g></g>
</svg>