<?xml version="1.0" encoding="utf-8"?>
<!-- Svg Vector Icons : http://www.onlinewebfonts.com/icon -->
<!DOCTYPE svg PUBLIC "-//W3C//DTD SVG 1.1//EN" "http://www.w3.org/Graphics/SVG/1.1/DTD/svg11.dtd">
<svg version="1.1" xmlns="http://www.w3.org/2000/svg" xmlns:xlink="http://www.w3.org/1999/xlink" x="0px" y="0px" viewBox="0 0 256 256" enable-background="new 0 0 256 256" xml:space="preserve">
<metadata> Svg Vector Icons : http://www.onlinewebfonts.com/icon </metadata>
<g> <path fill="#000000" d="M17.8,81.6l101.8,44c2.5,1,5.1,1.4,7.8,1.3c2.8,0,5.5-0.6,8.1-1.8l102.7-45.8c6.6-2.9,9.6-10.6,6.7-17.2 c-1.3-3-3.7-5.4-6.7-6.7L135.5,14c-4.9-2.3-10.6-2.3-15.6,0L17.2,58c-4.4,2.2-7.1,6.6-7.2,11.4C9.9,74.7,13,79.4,17.8,81.6z  M125.9,26.9c1.2-0.7,2.6-0.7,3.8,0l98.6,40.2l-98.8,44c-1.2,0.6-2.6,0.6-3.8,0L27,69.6L125.9,26.9z M236.9,182.1 c-0.8-0.2-1.7-0.2-2.5,0l-104.8,46.5c-1.2,0.7-2.7,0.7-4,0l-104.8-44c-0.7-0.1-1.5-0.1-2.2,0c-3.8,0.1-6.8,3.3-6.7,7.1 c0.1,2.8,1.9,5.3,4.5,6.2l103.9,44c2.4,1.2,5.1,1.8,7.8,1.8c2.5,0,4.9-0.6,7.2-1.6l104-45.8c2.7-1,4.5-3.6,4.5-6.5 c0.5-3.8-2.2-7.2-6-7.7C237.6,182.1,237.2,182.1,236.9,182.1L236.9,182.1z M237.9,119.6c-1-0.2-2.1-0.2-3.1,0l-106.2,48.1 c-1.2,0.6-2.6,0.6-3.8,0L20.6,120.5h-2.8c-3.8-0.5-7.2,2.1-7.7,5.9c0,0.1,0,0.2,0,0.2c0,2.5,1.4,4.9,3.7,6l105.2,47.5 c2.4,1.2,5.1,1.8,7.8,1.8c2.5,0,5.1-0.6,7.3-1.8l106.7-47.5c2.5-1.1,4.1-3.5,4.1-6.2C244.7,122.7,241.7,119.7,237.9,119.6 L237.9,119.6z"/></g>
</svg>