<svg xmlns="http://www.w3.org/2000/svg" width="60" height="60" viewBox="0 0 60 60">
  <g id="Group_8324" data-name="Group 8324" transform="translate(-447 -2554)">
    <circle id="Ellipse_30" data-name="Ellipse 30" cx="30" cy="30" r="30" transform="translate(447 2554)" fill="#f48120"/>
    <path id="Path_application-export" data-name="Path / application-export" d="M9.727,13H20.418l-2.727-2.75,1.527-1.54,5.345,5.39-5.345,5.39-1.527-1.54,2.727-2.75H9.727V13m13.091,5.94V21.8H3.182V6.4H22.818V9.26L25,11.46V4.2A2.2,2.2,0,0,0,22.818,2H3.182A2.2,2.2,0,0,0,1,4.2V21.8A2.2,2.2,0,0,0,3.182,24H22.818A2.2,2.2,0,0,0,25,21.8V16.74Z" transform="translate(465 2572)" fill="#fff"/>
  </g>
</svg>
