<svg width="80" height="80" viewBox="0 0 80 80" fill="none" xmlns="http://www.w3.org/2000/svg">
<g clip-path="url(#clip0_3_497)">
<path d="M40 80C62.0914 80 80 62.0914 80 40C80 17.9086 62.0914 0 40 0C17.9086 0 0 17.9086 0 40C0 62.0914 17.9086 80 40 80Z" fill="#FFF2E8"/>
<path d="M13 65.0017H66.479C66.6103 65.0017 66.7404 64.9759 66.8617 64.9257C66.9831 64.8754 67.0933 64.8018 67.1862 64.7089C67.279 64.616 67.3527 64.5058 67.403 64.3844C67.4532 64.2631 67.479 64.133 67.479 64.0017V60.4431C67.4784 59.9129 67.2675 59.4045 66.8925 59.0296C66.5176 58.6546 66.0092 58.4437 65.479 58.4431H63.977V55.8879C63.9764 55.3569 63.7653 54.8477 63.3898 54.4721C63.0143 54.0965 62.5052 53.8852 61.9741 53.8845H61.1978V28.8669H62.7544C63.2848 28.8664 63.7934 28.6555 64.1686 28.2805C64.5437 27.9054 64.7547 27.3969 64.7554 26.8665V23.8948C64.7552 23.5392 64.6603 23.1901 64.4804 22.8834C64.3005 22.5767 64.0422 22.3234 63.7319 22.1497L40.7168 9.2561C40.4184 9.08812 40.0817 8.99991 39.7392 9C39.3967 9.00009 39.0601 9.08846 38.7617 9.25659L15.7476 22.1497C15.4373 22.3235 15.179 22.5767 14.9991 22.8834C14.8192 23.1902 14.7243 23.5393 14.7241 23.8948V26.8665C14.7247 27.3969 14.9357 27.9054 15.3107 28.2804C15.6858 28.6554 16.1942 28.8664 16.7246 28.867H18.2822V53.8845H17.5054C15.892 53.7144 14.4467 56.5861 16.5039 56.8861C16.7694 56.8858 17.024 56.7801 17.2117 56.5924C17.3995 56.4046 17.5051 56.15 17.5054 55.8845L61.9771 55.8879V58.4431H14C13.4697 58.4436 12.9613 58.6545 12.5864 59.0295C12.2114 59.4044 12.0005 59.9128 12 60.4431V64.0017C12 64.2669 12.1054 64.5213 12.2929 64.7088C12.4804 64.8963 12.7348 65.0017 13 65.0017ZM22.7295 53.8845H20.2822V28.8669H22.7295V53.8845ZM36.5127 53.8845H24.7295V28.8669H36.5128V32.9639C28.8188 35.7679 28.8443 47.0423 36.5129 49.8029L36.5127 53.8845ZM40.9663 53.8796H38.5128V50.3284C39.3272 50.4349 40.152 50.4347 40.9664 50.3279L40.9663 53.8796ZM32.7052 41.3883C32.7136 40.2903 32.9778 39.2093 33.477 38.2312C33.9761 37.2531 34.6965 36.4049 35.5808 35.7539C36.465 35.1028 37.4889 34.6669 38.5711 34.4808C39.6533 34.2946 40.764 34.3634 41.815 34.6815C48.3215 36.6099 48.3416 46.1008 41.9058 48.0623C40.8519 48.3969 39.7341 48.4794 38.6425 48.3032C37.5509 48.127 36.5159 47.6969 35.6209 47.0477C34.7258 46.3984 33.9957 45.5481 33.4893 44.5651C32.9828 43.5822 32.7143 42.494 32.7052 41.3883ZM38.5127 32.4436V28.8669H40.9663V32.4475C40.1523 32.337 39.3271 32.3357 38.5127 32.4436ZM59.1978 53.8845H56.7505V28.8669H59.1978V53.8845ZM55.7505 26.8669C55.6192 26.8669 55.4891 26.8927 55.3678 26.943C55.2464 26.9932 55.1362 27.0669 55.0433 27.1598C54.9504 27.2526 54.8768 27.3629 54.8265 27.4842C54.7763 27.6056 54.7505 27.7356 54.7505 27.8669V53.8845H42.9663V49.7995C50.6237 46.9788 50.6299 35.8065 42.9661 32.9702L42.9663 28.867H51.7769C52.0387 28.8618 52.2881 28.7542 52.4715 28.5672C52.6548 28.3803 52.7575 28.1288 52.7575 27.8669C52.7575 27.605 52.6548 27.3536 52.4714 27.1666C52.288 26.9796 52.0386 26.8721 51.7768 26.867L16.7241 26.8665L16.7246 23.8948L39.7402 11.0017L62.7554 23.8948L62.7544 26.8669C61.2109 26.8587 57.3412 26.8729 55.7505 26.8669ZM14 60.4431C16.1283 60.4432 63.3488 60.4431 65.479 60.4431V63.0017H14V60.4431Z" fill="#F48120"/>
</g>
<defs>
<clipPath id="clip0_3_497">
<rect width="80" height="80" fill="white"/>
</clipPath>
</defs>
</svg>
