<svg id="banner-main4" xmlns="http://www.w3.org/2000/svg" width="45" height="45" viewBox="0 0 45 45">
  <circle id="Ellipse_45" data-name="Ellipse 45" cx="22.5" cy="22.5" r="22.5" fill="#2f2f2f"/>
  <g id="vr-arrows-svgrepo-com" transform="translate(10.5 11.5)">
    <path id="Path_9455" data-name="Path 9455" d="M6.14,17.84A34.11,34.11,0,0,1,12,17.36a34.11,34.11,0,0,1,5.86.48" fill="none" stroke="#fff" stroke-linecap="round" stroke-linejoin="round" stroke-width="1.95"/>
    <line id="Line_47" data-name="Line 47" y1="9.78" transform="translate(22.75 10.52)" fill="none" stroke="#fff" stroke-linecap="round" stroke-width="1.95"/>
    <line id="Line_48" data-name="Line 48" y1="9.78" transform="translate(1.25 10.52)" fill="none" stroke="#fff" stroke-linecap="round" stroke-width="1.95"/>
    <path id="Path_9456" data-name="Path 9456" d="M1.25,20.3c0,1,2,1.93,4.89,2.46V13c-2.94-.53-4.89-1.43-4.89-2.47C1.25,8.9,6.06,7.59,12,7.59S22.75,8.9,22.75,10.52c0,1-1.95,1.94-4.89,2.47v9.77c2.94-.53,4.89-1.43,4.89-2.46" fill="none" stroke="#fff" stroke-linecap="round" stroke-linejoin="round" stroke-width="1.95"/>
    <path id="Path_9457" data-name="Path 9457" d="M19.33,1.24l2.44,2.45L19.33,6.13" transform="translate(0 -2)" fill="none" stroke="#fff" stroke-linecap="round" stroke-linejoin="round" stroke-width="1.95"/>
    <path id="Path_9458" data-name="Path 9458" d="M4.67,6.13,2.23,3.69,4.67,1.24" transform="translate(0 -2)" fill="none" stroke="#fff" stroke-linecap="round" stroke-linejoin="round" stroke-width="1.95"/>
    <line id="Line_49" data-name="Line 49" x2="1.95" transform="translate(5.16 1.68)" fill="none" stroke="#fff" stroke-linecap="round" stroke-width="1"/>
    <line id="Line_50" data-name="Line 50" x2="1.95" transform="translate(9.07 1.68)" fill="none" stroke="#fff" stroke-linecap="round" stroke-width="1"/>
    <line id="Line_51" data-name="Line 51" x2="1.95" transform="translate(12.98 1.68)" fill="none" stroke="#fff" stroke-linecap="round" stroke-width="1"/>
    <line id="Line_52" data-name="Line 52" x2="1.95" transform="translate(16.89 1.68)" fill="none" stroke="#fff" stroke-linecap="round" stroke-width="1"/>
  </g>
</svg>
