<?xml version="1.0" encoding="UTF-8"?><svg fill="#fff" id="Layer_1" xmlns="http://www.w3.org/2000/svg" viewBox="0 0 420 420"><path d="M208.39,415.49c-15.27-8.37-30.48-16.84-45.84-25.04-3.82-2.04-5.48-4.62-5.31-8.92.23-5.89.22-11.81-.05-17.7-.07-1.57-1.03-3.67-2.28-4.52-15.64-10.61-31.37-21.09-47.2-31.41-1.18-.77-3.61-.75-4.91-.06-11.97,6.31-23.85,12.79-35.67,19.37-3.02,1.68-5.62,1.74-8.66.06-14.65-8.12-29.33-16.18-44.09-24.09-3.15-1.69-4.36-3.95-4.35-7.4.08-14.62.09-29.25,0-43.87-.02-3.5,1.36-5.69,4.4-7.4,13.31-7.49,26.5-15.2,39.82-22.69,2.18-1.23,2.9-2.61,2.89-5.05-.09-19.32-.1-38.64,0-57.95.01-2.51-.84-3.8-3.01-4.96-12.99-6.96-25.85-14.16-38.87-21.07-3.62-1.92-5.32-4.31-5.26-8.52.18-14.22.15-28.44.02-42.66-.03-3.76,1.2-6.24,4.57-8.13,14.49-8.14,28.91-16.39,43.25-24.79,3.58-2.1,6.52-1.98,10.06.1,13.87,8.14,27.8,16.18,41.87,23.95,4.35,2.4,6.3,5.44,5.81,10.32-.23,2.25-.04,4.54-.04,7.57,1.59-.88,2.7-1.42,3.74-2.08,11.71-7.32,23.36-14.73,35.14-21.93,2.29-1.4,2.91-2.98,2.89-5.52-.12-13.95.04-27.9-.11-41.85-.04-4.09,1.37-6.68,5.01-8.71,14.28-7.96,28.47-16.08,42.56-24.36,3.68-2.16,6.69-2.28,10.4-.1,14.09,8.28,28.29,16.4,42.55,24.38,3.6,2.01,5.13,4.57,5.09,8.69-.16,14.08-.12,28.17.04,42.26.02,1.56.9,3.76,2.1,4.54,12.39,7.99,24.92,15.75,37.42,23.57.43.27.91.47,2.11,1.08,0-3.5.08-6.49-.02-9.48-.11-3.45,1.33-5.75,4.37-7.47,14.82-8.37,29.59-16.82,44.32-25.35,2.88-1.67,5.39-1.69,8.26-.03,14.85,8.59,29.74,17.1,44.65,25.58,2.75,1.56,3.92,3.73,3.91,6.88-.07,14.76-.1,29.51.02,44.27.03,3.75-1.66,5.88-4.81,7.57-13.1,7.04-26.09,14.28-39.22,21.28-2.38,1.27-3.1,2.7-3.09,5.31.11,19.05.14,38.1-.02,57.15-.02,3.01,1.07,4.48,3.57,5.88,12.86,7.21,25.56,14.69,38.44,21.86,3.58,1.99,5.21,4.43,5.16,8.61-.18,14.22-.17,28.44,0,42.66.05,4.02-1.51,6.42-4.99,8.28-14.41,7.71-28.77,15.53-43.05,23.47-3.31,1.84-6.1,1.82-9.39-.02-11.57-6.49-23.28-12.73-34.86-19.18-2.11-1.17-3.64-1.35-5.78.09-15.33,10.35-30.72,20.62-46.2,30.75-2.36,1.55-3.09,3.26-3.02,5.92.16,5.76-.09,11.54.09,17.3.13,3.98-1.47,6.45-4.97,8.33-15.45,8.31-30.81,16.8-46.2,25.22h-3.22ZM157.27,209.52c0-5.9.19-11.82-.12-17.7-.09-1.65-1.25-3.84-2.62-4.74-15.3-10.16-30.75-20.09-46.1-30.18-1.91-1.26-3.34-1.42-5.41-.26-10.52,5.89-21.11,11.66-31.76,17.33-2.17,1.16-2.98,2.48-2.97,4.97.11,19.32.09,38.64.02,57.96,0,2.27.6,3.6,2.68,4.77,11.93,6.68,23.79,13.47,35.58,20.39,2.24,1.32,3.71,1,5.68-.41,14.09-10.03,28.3-19.89,42.34-29.99,1.35-.97,2.46-3.15,2.55-4.83.31-5.75.12-11.53.12-17.3ZM351.65,207.79c0-9.66.1-19.32-.1-28.98-.03-1.51-1.05-3.68-2.28-4.38-10.83-6.16-21.78-12.12-32.79-17.96-1.1-.59-3.19-.5-4.25.18-15.8,10.13-31.53,20.37-47.19,30.71-1.11.73-2.18,2.48-2.2,3.77-.17,12.07-.16,24.15,0,36.22.02,1.33.96,3.11,2.04,3.88,14.5,10.38,29.08,20.65,43.74,30.81.99.69,3.11.8,4.16.21,12.17-6.79,24.28-13.7,36.28-20.79,1.27-.75,2.45-2.82,2.48-4.3.22-9.79.11-19.59.11-29.38ZM157.24,347.2c0-2.65.17-4.38-.03-6.08-.6-5.16,1.39-8.37,6.1-10.92,12.95-7.01,25.66-14.48,38.38-21.93,1.22-.72,2.55-2.52,2.57-3.83.19-13.41.18-26.82.01-40.23-.01-1.22-1.16-2.94-2.27-3.56-12.04-6.73-24.14-13.35-36.33-19.81-1.18-.63-3.47-.52-4.56.24-14.44,9.98-28.81,20.08-43.05,30.34-1.32.95-2.37,3.22-2.4,4.89-.2,13.68-.16,27.35-.09,41.03,0,1,.56,2.41,1.33,2.93,13.08,8.83,26.24,17.56,40.33,26.93ZM262.74,346.42c.93-.11,1.24-.06,1.43-.19,12.96-8.59,25.92-17.17,38.81-25.85.79-.53,1.46-1.89,1.47-2.87.08-13.95.1-27.89-.08-41.84-.02-1.43-1.05-3.34-2.23-4.18-14.17-10.14-28.48-20.08-42.66-30.2-2.07-1.48-3.59-1.5-5.76-.3-11.7,6.51-23.46,12.93-35.28,19.23-2.21,1.18-2.9,2.55-2.87,5.01.13,12.6.14,25.21,0,37.82-.03,2.75.78,4.25,3.25,5.63,12.98,7.25,25.78,14.83,38.77,22.06,3.77,2.1,5.53,4.77,5.17,9.03-.18,2.11-.03,4.25-.03,6.64ZM304.47,136.51c0-2.82-.19-5.65.05-8.44.26-2.93-.9-4.54-3.38-6.06-15.06-9.26-30.03-18.67-44.96-28.14-1.96-1.24-3.42-1.34-5.47-.2-10.76,6-21.57,11.9-32.44,17.69-2.09,1.11-2.7,2.45-2.68,4.72.1,12.06.11,24.13,0,36.2-.02,2.28.64,3.59,2.69,4.74,12.03,6.75,23.99,13.61,35.91,20.56,2,1.17,3.4,1.17,5.39-.15,11.6-7.71,23.11-15.61,35.08-22.7,7.3-4.33,12.75-8.78,9.82-18.22ZM204.37,134.18c0-6.03-.09-12.07.05-18.1.05-2.26-.56-3.62-2.66-4.74-10.87-5.79-21.61-11.82-32.52-17.55-1.32-.7-3.74-.74-4.97.02-15.53,9.51-30.97,19.18-46.31,28.99-1.25.8-2.24,2.92-2.31,4.47-.27,6.02-.25,12.06-.01,18.09.06,1.42.99,3.35,2.13,4.11,14.29,9.48,28.66,18.82,43.12,28.04,1.13.72,3.38.79,4.55.15,12.17-6.77,24.19-13.81,36.33-20.62,2.07-1.16,2.71-2.5,2.66-4.77-.14-6.03-.05-12.06-.05-18.1ZM245.56,336.93c-11.73-6.72-22.95-13.2-34.27-19.51-.84-.47-2.56-.01-3.57.55-10.38,5.84-20.7,11.78-31.03,17.72-.59.34-1.09.85-1.83,1.45,11.27,6.15,22.17,12.14,33.14,18,1,.53,2.71.72,3.64.23,11.19-5.96,22.29-12.08,33.92-18.43ZM98.18,99.39c-1.65-1.02-2.86-1.81-4.1-2.52-7.09-4.07-14.6-7.55-21.17-12.34-7.17-5.22-13.05-5.1-20.27-.02-7.82,5.5-16.54,9.73-25.38,14.81,11.72,6.39,22.85,12.49,34.04,18.49.77.42,2.15.44,2.91.03,11.2-6,22.33-12.11,33.98-18.45ZM245.56,185.58c-9.26-5.32-18.27-9.83-26.54-15.44-6.36-4.32-11.35-4.55-17.81-.1-8.33,5.73-17.49,10.27-26.69,15.54,11.62,6.35,22.74,12.47,33.94,18.46.86.46,2.41.4,3.3-.07,11.08-5.94,22.1-11.99,33.81-18.38ZM321.74,99.31c11.6,6.33,22.5,12.36,33.51,18.18,1.13.6,3.14.49,4.32-.12,6.79-3.5,13.45-7.24,20.15-10.91,4.16-2.28,8.32-4.57,13.05-7.18-11.87-6.79-23.11-13.26-34.41-19.62-.62-.35-1.85-.21-2.52.18-11.18,6.32-22.31,12.72-34.1,19.47ZM174.5,36.59c11.65,6.37,22.66,12.43,33.75,18.35.95.51,2.66.47,3.63-.05,11.09-5.91,22.1-11.96,33.14-17.97-.17-.3-.2-.47-.3-.53-11.09-6.45-22.17-12.92-33.31-19.28-.73-.42-2.12-.36-2.88.07-11.17,6.3-22.28,12.7-34.02,19.42ZM392.81,270.23c-11.62-6.64-22.5-12.95-33.5-19.02-1.17-.65-3.37-.42-4.63.26-6.37,3.41-12.59,7.09-18.85,10.69-4.54,2.61-9.08,5.23-14.06,8.1,11.61,6.33,22.62,12.37,33.7,18.31.9.48,2.46.64,3.3.19,11.19-5.99,22.31-12.11,34.04-18.52ZM98.31,270.23c-11.56-6.62-22.43-12.93-33.43-19.01-1.18-.65-3.39-.46-4.64.22-9.14,5.03-18.17,10.27-27.22,15.46-1.77,1.02-3.51,2.08-5.69,3.38,11.59,6.32,22.6,12.37,33.68,18.3.9.48,2.46.61,3.31.15,11.19-5.99,22.31-12.12,33.99-18.51ZM104.27,109.85c-.77-.08-1.08-.22-1.26-.12-11.05,5.98-22.11,11.93-33.09,18.05-.85.48-1.45,2.11-1.49,3.23-.16,4.68-.07,9.37-.07,14.05,0,5.66,0,11.33,0,17.69,8.81-4.81,16.59-9.92,25.03-13.43,8.77-3.65,12.38-8.84,11.06-18.44-.95-6.91-.18-14.05-.18-21.03ZM315.75,108.93c0,11.46-.09,21.88.12,32.29.02,1.16,1.49,2.69,2.68,3.36,6.84,3.92,13.8,7.63,20.73,11.41,3.94,2.15,7.9,4.27,12.37,6.68,0-7.93-.71-15.22.18-22.31,1.12-8.98-1.87-14.11-10.3-17.65-8.66-3.64-16.68-8.83-25.78-13.78ZM351.64,333.62c0-11.32.07-21.98-.12-32.64-.02-1.03-1.5-2.37-2.62-3-9.94-5.54-19.95-10.96-29.94-16.39-.87-.47-1.81-.8-3.21-1.4,0,7.47.78,14.52-.19,21.32-1.38,9.77,2.36,15.07,11.21,18.8,8.43,3.55,16.23,8.6,24.88,13.31ZM68.36,333.67c8.61-4.69,16.17-9.71,24.41-13.05,9.45-3.83,13.09-9.61,11.67-19.74-.93-6.64-.18-13.52-.18-21.03-11.98,6.54-23.23,12.66-34.42,18.88-.73.41-1.42,1.65-1.43,2.51-.1,10.56-.06,21.11-.06,32.42ZM21.58,109.14c-.09,1.92-.21,3.2-.21,4.48-.02,8.57.13,17.15-.09,25.71-.08,3.01,1,4.52,3.59,5.84,6.08,3.08,12,6.49,17.99,9.76,4.54,2.48,9.09,4.93,14.23,7.72,0-11.33.06-21.99-.1-32.65-.01-.95-1.28-2.21-2.27-2.77-6.04-3.44-12.17-6.74-18.28-10.07-4.77-2.6-9.56-5.16-14.85-8.01ZM204.36,99.98c0-11.32.06-22-.1-32.67-.01-.96-1.27-2.21-2.27-2.78-5.82-3.32-11.73-6.47-17.61-9.68-5.02-2.74-10.04-5.47-15.59-8.49-.1,1.93-.23,3.22-.23,4.5-.02,7.11.44,14.26-.15,21.32-.51,6.17,1.44,9.63,7.17,12.33,9.64,4.54,18.82,10.05,28.77,15.47ZM362.93,161.86c.46.13.62.23.71.19,11.18-6,22.37-11.99,33.52-18.06.68-.37,1.4-1.42,1.41-2.16.09-10.67.06-21.34.06-31.96-.68-.08-1-.22-1.18-.12-11.05,5.99-22.1,11.98-33.11,18.06-.66.36-1.34,1.39-1.35,2.11-.09,10.68-.06,21.36-.06,31.94ZM251.45,195.22c-12.02,6.57-23.26,12.67-34.41,18.94-.82.46-1.31,2.17-1.33,3.31-.12,7.63-.06,15.26-.06,22.88,0,2.71,0,5.42,0,8.68,11.76-6.43,22.79-12.41,33.74-18.54.95-.53,1.96-1.98,1.97-3.02.15-10.42.09-20.84.09-32.26ZM57.08,333.63c0-11.4.06-22.08-.1-32.77-.01-.96-1.32-2.19-2.33-2.78-4.52-2.62-9.15-5.04-13.74-7.54-6.31-3.44-12.61-6.88-19.52-10.65,0,11.43-.04,22.12.08,32.81,0,.8.95,1.89,1.75,2.33,11,6.11,22.05,12.13,33.87,18.59ZM168.59,346.61c0,11.45-.06,22.13.11,32.82.02.94,1.42,2.15,2.46,2.74,4.65,2.67,9.4,5.15,14.1,7.71,6.19,3.37,12.37,6.76,19.1,10.44,0-11.38.06-22.07-.1-32.76-.01-.94-1.33-2.17-2.34-2.74-6.29-3.57-12.66-7.01-19.01-10.47-4.54-2.48-9.1-4.93-14.31-7.74ZM251.44,46.26c-12.06,6.59-23.23,12.63-34.29,18.87-.9.51-1.42,2.39-1.44,3.65-.14,7.11-.07,14.22-.07,21.32,0,3.12,0,6.23,0,9.93,11.79-6.43,22.84-12.43,33.83-18.54.88-.49,1.87-1.76,1.88-2.68.13-10.57.08-21.14.08-32.54ZM168.57,195.18c0,11.52-.08,22.1.12,32.68.02,1.04,1.51,2.39,2.64,3.02,9.24,5.17,18.55,10.2,27.85,15.27,1.58.86,3.18,1.68,5.19,2.74,0-11.16.04-21.62-.07-32.08-.01-.97-.71-2.38-1.52-2.83-11.08-6.19-22.24-12.25-34.21-18.8ZM398.63,280.64c-.65,0-.95-.09-1.15.01-10.95,5.93-21.91,11.85-32.81,17.87-.78.43-1.65,1.55-1.66,2.36-.11,10.68-.07,21.36-.07,32.75,11.8-6.44,23.04-12.56,34.24-18.76.68-.37,1.38-1.42,1.39-2.16.09-10.68.06-21.37.06-32.07ZM215.64,400.37c11.77-6.42,22.82-12.38,33.75-18.54,1.07-.6,1.93-2.49,1.97-3.81.21-6.15.09-12.31.09-18.46,0-4.07,0-8.14,0-12.98-12.03,6.58-23.27,12.69-34.45,18.91-.71.39-1.3,1.67-1.31,2.54-.09,10.54-.06,21.08-.06,32.34Z"/></svg>