<svg width="80" height="80" viewBox="0 0 80 80" fill="none" xmlns="http://www.w3.org/2000/svg">
<g clip-path="url(#clip0_1_221)">
<mask id="mask0_1_221" style="mask-type:luminance" maskUnits="userSpaceOnUse" x="0" y="0" width="80" height="80">
<path d="M80 0H0V80H80V0Z" fill="white"/>
</mask>
<g mask="url(#mask0_1_221)">
<path d="M40 80C62.0914 80 80 62.0914 80 40C80 17.9086 62.0914 0 40 0C17.9086 0 0 17.9086 0 40C0 62.0914 17.9086 80 40 80Z" fill="#FFF2E8"/>
<path fill-rule="evenodd" clip-rule="evenodd" d="M15 20C15 17.2386 17.2386 15 20 15H30C32.7614 15 35 17.2386 35 20V23.3333H45V20C45 17.2386 47.2387 15 50 15H60C62.7613 15 65 17.2386 65 20V30C65 32.7614 62.7613 35 60 35H56.6667V45H60C62.7613 45 65 47.2387 65 50V60C65 62.7613 62.7613 65 60 65H50C47.2387 65 45 62.7613 45 60V56.6667H35V60C35 62.7613 32.7614 65 30 65H20C17.2386 65 15 62.7613 15 60V50C15 47.2387 17.2386 45 20 45H23.3333V35H20C17.2386 35 15 32.7614 15 30V20ZM53.3333 35H50C47.2387 35 45 32.7614 45 30V26.6667H35V30C35 32.7614 32.7614 35 30 35H26.6667V45H30C32.7614 45 35 47.2387 35 50V53.3333H45V50C45 47.2387 47.2387 45 50 45H53.3333V35ZM20 18.3333C19.0795 18.3333 18.3333 19.0795 18.3333 20V30C18.3333 30.9205 19.0795 31.6667 20 31.6667H30C30.9205 31.6667 31.6667 30.9205 31.6667 30V20C31.6667 19.0795 30.9205 18.3333 30 18.3333H20ZM18.3333 50C18.3333 49.0797 19.0795 48.3333 20 48.3333H30C30.9205 48.3333 31.6667 49.0797 31.6667 50V60C31.6667 60.9203 30.9205 61.6667 30 61.6667H20C19.0795 61.6667 18.3333 60.9203 18.3333 60V50ZM48.3333 50C48.3333 49.0797 49.0797 48.3333 50 48.3333H60C60.9203 48.3333 61.6667 49.0797 61.6667 50V60C61.6667 60.9203 60.9203 61.6667 60 61.6667H50C49.0797 61.6667 48.3333 60.9203 48.3333 60V50ZM48.3333 20C48.3333 19.0795 49.0797 18.3333 50 18.3333H60C60.9203 18.3333 61.6667 19.0795 61.6667 20V30C61.6667 30.9205 60.9203 31.6667 60 31.6667H50C49.0797 31.6667 48.3333 30.9205 48.3333 30V20Z" fill="#F48120"/>
</g>
</g>
<defs>
<clipPath id="clip0_1_221">
<rect width="80" height="80" fill="white"/>
</clipPath>
</defs>
</svg>
