<svg xmlns="http://www.w3.org/2000/svg" xmlns:xlink="http://www.w3.org/1999/xlink" width="40" height="30" viewBox="0 0 40 30">
  <defs>
    <clipPath id="clip-path">
      <rect id="Rectangle_966" data-name="Rectangle 966" width="40" height="30" transform="translate(1015 3837)" fill="none" stroke="#707070" stroke-width="1"/>
    </clipPath>
  </defs>
  <g id="Mask_Group_82" data-name="Mask Group 82" transform="translate(-1015 -3837)" clip-path="url(#clip-path)">
    <g id="Group_2202" data-name="Group 2202" transform="translate(581.604 2.574)">
      <path id="Icon_material-laptop-mac" data-name="Icon material-laptop-mac" d="M28.994,26.428A2.908,2.908,0,0,0,31.879,23.5l.014-16.081a2.92,2.92,0,0,0-2.9-2.924H5.8A2.92,2.92,0,0,0,2.9,7.424V23.5a2.92,2.92,0,0,0,2.9,2.924H0a2.92,2.92,0,0,0,2.9,2.924H31.893a2.92,2.92,0,0,0,2.9-2.924Zm-23.2-19h23.2V23.5H5.8ZM17.4,27.89a1.462,1.462,0,1,1,1.45-1.462A1.46,1.46,0,0,1,17.4,27.89Z" transform="translate(435 3832.381)" fill="#f48120"/>
    </g>
  </g>
</svg>
