<svg xmlns="http://www.w3.org/2000/svg" xmlns:xlink="http://www.w3.org/1999/xlink" width="22" height="22" viewBox="0 0 22 22">
  <defs>
    <clipPath id="clip-path">
      <rect id="Rectangle_1128" data-name="Rectangle 1128" width="22" height="22" transform="translate(901 6159)" fill="none" stroke="#707070" stroke-width="1"/>
    </clipPath>
  </defs>
  <g id="Mask_Group_120" data-name="Mask Group 120" transform="translate(-901 -6159)" clip-path="url(#clip-path)">
    <path id="Icon_open-puzzle-piece" data-name="Icon open-puzzle-piece" d="M6.617,0A2.234,2.234,0,0,0,5.029.618a2.234,2.234,0,0,0-.618,1.588,4.119,4.119,0,0,0,.618,1.588,1.589,1.589,0,0,1,.066.618H0V17.646H5.1a2.178,2.178,0,0,0-.066-.618,4.119,4.119,0,0,1-.618-1.588,2.234,2.234,0,0,1,.618-1.588,2.234,2.234,0,0,1,1.588-.618,2.234,2.234,0,0,1,1.588.618,2.234,2.234,0,0,1,.618,1.588,4.119,4.119,0,0,1-.618,1.588,1.589,1.589,0,0,0-.066.618h5.1v-5.1a2.178,2.178,0,0,1,.618.066,4.119,4.119,0,0,0,1.588.618,2.206,2.206,0,1,0,0-4.411,4.119,4.119,0,0,0-1.588.618,1.589,1.589,0,0,1-.618.066v-5.1h-5.1a2.178,2.178,0,0,1,.066-.618,4.119,4.119,0,0,0,.618-1.588A2.234,2.234,0,0,0,8.205.618,2.234,2.234,0,0,0,6.617,0Z" transform="translate(903.765 6161.177)" fill="none" stroke="#fff" stroke-linecap="round" stroke-linejoin="round" stroke-width="2"/>
  </g>
</svg>
