<svg xmlns="http://www.w3.org/2000/svg" xmlns:xlink="http://www.w3.org/1999/xlink" width="202" height="67.773" viewBox="0 0 202 67.773">
  <defs>
    <clipPath id="clip-path">
      <rect id="Rectangle_6" data-name="Rectangle 6" width="202" height="67.773" fill="none"/>
    </clipPath>
  </defs>
  <g id="Group_6" data-name="Group 6" clip-path="url(#clip-path)">
    <g id="Group_5" data-name="Group 5">
      <g id="Group_4" data-name="Group 4" clip-path="url(#clip-path)">
        <g id="Group_3" data-name="Group 3" opacity="0.63">
          <g id="Group_2" data-name="Group 2">
            <g id="Group_1" data-name="Group 1" clip-path="url(#clip-path)">
              <path id="Line_1" data-name="Line 1" transform="translate(200.68 66.453)" fill="#bdbabb"/>
              <path id="Line_2" data-name="Line 2" d="M186.257.64h0a1.32,1.32,0,0,1-1.32-1.32A1.32,1.32,0,0,1,186.254-2h0a1.32,1.32,0,0,1,1.32,1.32A1.32,1.32,0,0,1,186.257.64Zm-9.972,0h0a1.32,1.32,0,0,1-1.32-1.32A1.32,1.32,0,0,1,176.282-2h0A1.32,1.32,0,0,1,177.6-.68,1.32,1.32,0,0,1,176.285.64Zm-9.972,0h0a1.32,1.32,0,0,1-1.32-1.32A1.32,1.32,0,0,1,166.31-2h0a1.32,1.32,0,0,1,1.32,1.32A1.32,1.32,0,0,1,166.313.64Zm-9.972,0h0a1.32,1.32,0,0,1-1.32-1.32A1.32,1.32,0,0,1,156.338-2h0a1.32,1.32,0,0,1,1.32,1.32A1.32,1.32,0,0,1,156.342.64Zm-9.972,0h0a1.32,1.32,0,0,1-1.32-1.32A1.32,1.32,0,0,1,146.366-2h0a1.32,1.32,0,0,1,1.32,1.32A1.32,1.32,0,0,1,146.37.64ZM136.4.64h0a1.32,1.32,0,0,1-1.32-1.32A1.32,1.32,0,0,1,136.394-2h0a1.32,1.32,0,0,1,1.32,1.32A1.32,1.32,0,0,1,136.4.64Zm-9.972,0h0a1.32,1.32,0,0,1-.939-.384A1.32,1.32,0,0,1,125.1-.68a1.32,1.32,0,0,1,.387-.934A1.32,1.32,0,0,1,126.422-2h0a1.32,1.32,0,0,1,1.32,1.32A1.32,1.32,0,0,1,126.426.64Zm-9.972,0h0a1.32,1.32,0,0,1-1.32-1.32A1.32,1.32,0,0,1,116.45-2h0a1.32,1.32,0,0,1,1.32,1.32A1.32,1.32,0,0,1,116.454.64Zm-9.972,0h0a1.32,1.32,0,0,1-1.32-1.32A1.32,1.32,0,0,1,106.478-2h0a1.32,1.32,0,0,1,.935.386,1.32,1.32,0,0,1,.387.934A1.32,1.32,0,0,1,106.482.64ZM96.51.64h0A1.32,1.32,0,0,1,95.19-.68,1.32,1.32,0,0,1,96.507-2h0a1.32,1.32,0,0,1,.935.386,1.32,1.32,0,0,1,.388.934A1.32,1.32,0,0,1,96.51.64Zm-9.972,0h0a1.32,1.32,0,0,1-1.32-1.32A1.32,1.32,0,0,1,86.535-2h0a1.32,1.32,0,0,1,1.32,1.32A1.32,1.32,0,0,1,86.538.64Zm-9.972,0h0a1.32,1.32,0,0,1-1.32-1.32A1.32,1.32,0,0,1,76.563-2h0a1.32,1.32,0,0,1,1.32,1.32A1.32,1.32,0,0,1,76.566.64Zm-9.972,0h0a1.32,1.32,0,0,1-1.32-1.32A1.32,1.32,0,0,1,66.591-2h0a1.32,1.32,0,0,1,1.32,1.32A1.32,1.32,0,0,1,66.6.64Zm-9.972,0h0a1.32,1.32,0,0,1-.935-.386A1.32,1.32,0,0,1,55.3-.68,1.32,1.32,0,0,1,56.619-2h0a1.32,1.32,0,0,1,1.32,1.32A1.32,1.32,0,0,1,56.623.64ZM46.65.64h0A1.32,1.32,0,0,1,45.33-.68,1.32,1.32,0,0,1,46.647-2h0a1.32,1.32,0,0,1,1.32,1.32A1.32,1.32,0,0,1,46.651.64Zm-9.972,0h0a1.32,1.32,0,0,1-1.32-1.32A1.32,1.32,0,0,1,36.675-2h0a1.32,1.32,0,0,1,.937.385A1.32,1.32,0,0,1,38-.68,1.32,1.32,0,0,1,36.679.64Zm-9.972,0h0a1.32,1.32,0,0,1-1.32-1.32A1.32,1.32,0,0,1,26.7-2h0A1.32,1.32,0,0,1,28.02-.68,1.32,1.32,0,0,1,26.707.64Zm-9.972,0h0a1.32,1.32,0,0,1-1.32-1.32A1.32,1.32,0,0,1,16.731-2h0a1.32,1.32,0,0,1,1.32,1.32A1.32,1.32,0,0,1,16.735.64ZM6.763.64h0A1.32,1.32,0,0,1,5.828.254,1.32,1.32,0,0,1,5.44-.68,1.32,1.32,0,0,1,6.76-2h0a1.32,1.32,0,0,1,.935.386,1.32,1.32,0,0,1,.388.934A1.32,1.32,0,0,1,6.763.64Z" transform="translate(4.455 67.133)" fill="#bdbabb"/>
              <path id="Line_3" data-name="Line 3" transform="translate(1.32 66.453)" fill="#bdbabb"/>
              <path id="Line_4" data-name="Line 4" transform="translate(200.68 55.597)" fill="#bdbabb"/>
              <path id="Line_5" data-name="Line 5" d="M186.257.64h0a1.32,1.32,0,0,1-1.32-1.32A1.32,1.32,0,0,1,186.254-2h0a1.32,1.32,0,0,1,1.32,1.32A1.32,1.32,0,0,1,186.257.64Zm-9.972,0h0a1.32,1.32,0,0,1-1.32-1.32A1.32,1.32,0,0,1,176.282-2h0A1.32,1.32,0,0,1,177.6-.68,1.32,1.32,0,0,1,176.285.64Zm-9.972,0h0a1.32,1.32,0,0,1-1.32-1.32A1.32,1.32,0,0,1,166.31-2h0a1.32,1.32,0,0,1,1.32,1.32A1.32,1.32,0,0,1,166.313.64Zm-9.972,0h0a1.32,1.32,0,0,1-1.32-1.32A1.32,1.32,0,0,1,156.338-2h0a1.32,1.32,0,0,1,1.32,1.32A1.32,1.32,0,0,1,156.342.64Zm-9.972,0h0a1.32,1.32,0,0,1-1.32-1.32A1.32,1.32,0,0,1,146.366-2h0a1.32,1.32,0,0,1,1.32,1.32A1.32,1.32,0,0,1,146.37.64ZM136.4.64h0a1.32,1.32,0,0,1-1.32-1.32A1.32,1.32,0,0,1,136.394-2h0a1.32,1.32,0,0,1,1.32,1.32A1.32,1.32,0,0,1,136.4.64Zm-9.972,0h0a1.32,1.32,0,0,1-.939-.384A1.32,1.32,0,0,1,125.1-.68a1.32,1.32,0,0,1,.387-.934A1.32,1.32,0,0,1,126.422-2h0a1.32,1.32,0,0,1,1.32,1.32A1.32,1.32,0,0,1,126.426.64Zm-9.972,0h0a1.32,1.32,0,0,1-1.32-1.32A1.32,1.32,0,0,1,116.45-2h0a1.32,1.32,0,0,1,1.32,1.32A1.32,1.32,0,0,1,116.454.64Zm-9.972,0h0a1.32,1.32,0,0,1-1.32-1.32A1.32,1.32,0,0,1,106.478-2h0a1.32,1.32,0,0,1,.935.386,1.32,1.32,0,0,1,.387.934A1.32,1.32,0,0,1,106.482.64ZM96.51.64h0A1.32,1.32,0,0,1,95.19-.68,1.32,1.32,0,0,1,96.507-2h0a1.32,1.32,0,0,1,.935.386,1.32,1.32,0,0,1,.388.934A1.32,1.32,0,0,1,96.51.64Zm-9.972,0h0a1.32,1.32,0,0,1-1.32-1.32A1.32,1.32,0,0,1,86.535-2h0a1.32,1.32,0,0,1,1.32,1.32A1.32,1.32,0,0,1,86.538.64Zm-9.972,0h0a1.32,1.32,0,0,1-1.32-1.32A1.32,1.32,0,0,1,76.563-2h0a1.32,1.32,0,0,1,1.32,1.32A1.32,1.32,0,0,1,76.566.64Zm-9.972,0h0a1.32,1.32,0,0,1-1.32-1.32A1.32,1.32,0,0,1,66.591-2h0a1.32,1.32,0,0,1,1.32,1.32A1.32,1.32,0,0,1,66.6.64Zm-9.972,0h0a1.32,1.32,0,0,1-.935-.386A1.32,1.32,0,0,1,55.3-.68,1.32,1.32,0,0,1,56.619-2h0a1.32,1.32,0,0,1,1.32,1.32A1.32,1.32,0,0,1,56.623.64ZM46.65.64h0A1.32,1.32,0,0,1,45.33-.68,1.32,1.32,0,0,1,46.647-2h0a1.32,1.32,0,0,1,1.32,1.32A1.32,1.32,0,0,1,46.651.64Zm-9.972,0h0a1.32,1.32,0,0,1-1.32-1.32A1.32,1.32,0,0,1,36.675-2h0a1.32,1.32,0,0,1,.937.385A1.32,1.32,0,0,1,38-.68,1.32,1.32,0,0,1,36.679.64Zm-9.972,0h0a1.32,1.32,0,0,1-1.32-1.32A1.32,1.32,0,0,1,26.7-2h0A1.32,1.32,0,0,1,28.02-.68,1.32,1.32,0,0,1,26.707.64Zm-9.972,0h0a1.32,1.32,0,0,1-1.32-1.32A1.32,1.32,0,0,1,16.731-2h0a1.32,1.32,0,0,1,1.32,1.32A1.32,1.32,0,0,1,16.735.64ZM6.763.64h0A1.32,1.32,0,0,1,5.828.254,1.32,1.32,0,0,1,5.44-.68,1.32,1.32,0,0,1,6.76-2h0a1.32,1.32,0,0,1,.935.386,1.32,1.32,0,0,1,.388.934A1.32,1.32,0,0,1,6.763.64Z" transform="translate(4.455 56.277)" fill="#bdbabb"/>
              <path id="Line_6" data-name="Line 6" transform="translate(1.32 55.597)" fill="#bdbabb"/>
              <path id="Line_7" data-name="Line 7" transform="translate(200.68 44.742)" fill="#bdbabb"/>
              <path id="Line_8" data-name="Line 8" d="M186.257.64h0a1.32,1.32,0,0,1-1.32-1.32A1.32,1.32,0,0,1,186.254-2h0a1.32,1.32,0,0,1,1.32,1.32A1.32,1.32,0,0,1,186.257.64Zm-9.972,0h0a1.32,1.32,0,0,1-1.32-1.32A1.32,1.32,0,0,1,176.282-2h0A1.32,1.32,0,0,1,177.6-.68,1.32,1.32,0,0,1,176.285.64Zm-9.972,0h0a1.32,1.32,0,0,1-1.32-1.32A1.32,1.32,0,0,1,166.31-2h0a1.32,1.32,0,0,1,1.32,1.32A1.32,1.32,0,0,1,166.313.64Zm-9.972,0h0a1.32,1.32,0,0,1-1.32-1.32A1.32,1.32,0,0,1,156.338-2h0a1.32,1.32,0,0,1,1.32,1.32A1.32,1.32,0,0,1,156.342.64Zm-9.972,0h0a1.32,1.32,0,0,1-1.32-1.32A1.32,1.32,0,0,1,146.366-2h0a1.32,1.32,0,0,1,1.32,1.32A1.32,1.32,0,0,1,146.37.64ZM136.4.64h0a1.32,1.32,0,0,1-1.32-1.32A1.32,1.32,0,0,1,136.394-2h0a1.32,1.32,0,0,1,1.32,1.32A1.32,1.32,0,0,1,136.4.64Zm-9.972,0h0a1.32,1.32,0,0,1-.939-.384A1.32,1.32,0,0,1,125.1-.68a1.32,1.32,0,0,1,.387-.934A1.32,1.32,0,0,1,126.422-2h0a1.32,1.32,0,0,1,1.32,1.32A1.32,1.32,0,0,1,126.426.64Zm-9.972,0h0a1.32,1.32,0,0,1-1.32-1.32A1.32,1.32,0,0,1,116.45-2h0a1.32,1.32,0,0,1,1.32,1.32A1.32,1.32,0,0,1,116.454.64Zm-9.972,0h0a1.32,1.32,0,0,1-1.32-1.32A1.32,1.32,0,0,1,106.478-2h0a1.32,1.32,0,0,1,.935.386,1.32,1.32,0,0,1,.387.934A1.32,1.32,0,0,1,106.482.64ZM96.51.64h0A1.32,1.32,0,0,1,95.19-.68,1.32,1.32,0,0,1,96.507-2h0a1.32,1.32,0,0,1,.935.386,1.32,1.32,0,0,1,.388.934A1.32,1.32,0,0,1,96.51.64Zm-9.972,0h0a1.32,1.32,0,0,1-1.32-1.32A1.32,1.32,0,0,1,86.535-2h0a1.32,1.32,0,0,1,1.32,1.32A1.32,1.32,0,0,1,86.538.64Zm-9.972,0h0a1.32,1.32,0,0,1-1.32-1.32A1.32,1.32,0,0,1,76.563-2h0a1.32,1.32,0,0,1,1.32,1.32A1.32,1.32,0,0,1,76.566.64Zm-9.972,0h0a1.32,1.32,0,0,1-1.32-1.32A1.32,1.32,0,0,1,66.591-2h0a1.32,1.32,0,0,1,1.32,1.32A1.32,1.32,0,0,1,66.6.64Zm-9.972,0h0a1.32,1.32,0,0,1-.935-.386A1.32,1.32,0,0,1,55.3-.68,1.32,1.32,0,0,1,56.619-2h0a1.32,1.32,0,0,1,1.32,1.32A1.32,1.32,0,0,1,56.623.64ZM46.65.64h0A1.32,1.32,0,0,1,45.33-.68,1.32,1.32,0,0,1,46.647-2h0a1.32,1.32,0,0,1,1.32,1.32A1.32,1.32,0,0,1,46.651.64Zm-9.972,0h0a1.32,1.32,0,0,1-1.32-1.32A1.32,1.32,0,0,1,36.675-2h0a1.32,1.32,0,0,1,.937.385A1.32,1.32,0,0,1,38-.68,1.32,1.32,0,0,1,36.679.64Zm-9.972,0h0a1.32,1.32,0,0,1-1.32-1.32A1.32,1.32,0,0,1,26.7-2h0A1.32,1.32,0,0,1,28.02-.68,1.32,1.32,0,0,1,26.707.64Zm-9.972,0h0a1.32,1.32,0,0,1-1.32-1.32A1.32,1.32,0,0,1,16.731-2h0a1.32,1.32,0,0,1,1.32,1.32A1.32,1.32,0,0,1,16.735.64ZM6.763.64h0A1.32,1.32,0,0,1,5.828.254,1.32,1.32,0,0,1,5.44-.68,1.32,1.32,0,0,1,6.76-2h0a1.32,1.32,0,0,1,.935.386,1.32,1.32,0,0,1,.388.934A1.32,1.32,0,0,1,6.763.64Z" transform="translate(4.455 45.422)" fill="#bdbabb"/>
              <path id="Line_9" data-name="Line 9" transform="translate(1.32 44.742)" fill="#bdbabb"/>
              <path id="Line_10" data-name="Line 10" transform="translate(200.68 33.886)" fill="#bdbabb"/>
              <path id="Line_11" data-name="Line 11" d="M186.257.64h0a1.32,1.32,0,0,1-1.32-1.32A1.32,1.32,0,0,1,186.254-2h0a1.32,1.32,0,0,1,1.32,1.32A1.32,1.32,0,0,1,186.257.64Zm-9.972,0h0a1.32,1.32,0,0,1-1.32-1.32A1.32,1.32,0,0,1,176.282-2h0A1.32,1.32,0,0,1,177.6-.68,1.32,1.32,0,0,1,176.285.64Zm-9.972,0h0a1.32,1.32,0,0,1-1.32-1.32A1.32,1.32,0,0,1,166.31-2h0a1.32,1.32,0,0,1,1.32,1.32A1.32,1.32,0,0,1,166.313.64Zm-9.972,0h0a1.32,1.32,0,0,1-1.32-1.32A1.32,1.32,0,0,1,156.338-2h0a1.32,1.32,0,0,1,1.32,1.32A1.32,1.32,0,0,1,156.342.64Zm-9.972,0h0a1.32,1.32,0,0,1-1.32-1.32A1.32,1.32,0,0,1,146.366-2h0a1.32,1.32,0,0,1,1.32,1.32A1.32,1.32,0,0,1,146.37.64ZM136.4.64h0a1.32,1.32,0,0,1-1.32-1.32A1.32,1.32,0,0,1,136.394-2h0a1.32,1.32,0,0,1,1.32,1.32A1.32,1.32,0,0,1,136.4.64Zm-9.972,0h0a1.32,1.32,0,0,1-.939-.384A1.32,1.32,0,0,1,125.1-.68a1.32,1.32,0,0,1,.387-.934A1.32,1.32,0,0,1,126.422-2h0a1.32,1.32,0,0,1,1.32,1.32A1.32,1.32,0,0,1,126.426.64Zm-9.972,0h0a1.32,1.32,0,0,1-1.32-1.32A1.32,1.32,0,0,1,116.45-2h0a1.32,1.32,0,0,1,1.32,1.32A1.32,1.32,0,0,1,116.454.64Zm-9.972,0h0a1.32,1.32,0,0,1-1.32-1.32A1.32,1.32,0,0,1,106.478-2h0a1.32,1.32,0,0,1,.935.386,1.32,1.32,0,0,1,.387.934A1.32,1.32,0,0,1,106.482.64ZM96.51.64h0A1.32,1.32,0,0,1,95.19-.68,1.32,1.32,0,0,1,96.507-2h0a1.32,1.32,0,0,1,.935.386,1.32,1.32,0,0,1,.388.934A1.32,1.32,0,0,1,96.51.64Zm-9.972,0h0a1.32,1.32,0,0,1-1.32-1.32A1.32,1.32,0,0,1,86.535-2h0a1.32,1.32,0,0,1,1.32,1.32A1.32,1.32,0,0,1,86.538.64Zm-9.972,0h0a1.32,1.32,0,0,1-1.32-1.32A1.32,1.32,0,0,1,76.563-2h0a1.32,1.32,0,0,1,1.32,1.32A1.32,1.32,0,0,1,76.566.64Zm-9.972,0h0a1.32,1.32,0,0,1-1.32-1.32A1.32,1.32,0,0,1,66.591-2h0a1.32,1.32,0,0,1,1.32,1.32A1.32,1.32,0,0,1,66.6.64Zm-9.972,0h0a1.32,1.32,0,0,1-.935-.386A1.32,1.32,0,0,1,55.3-.68,1.32,1.32,0,0,1,56.619-2h0a1.32,1.32,0,0,1,1.32,1.32A1.32,1.32,0,0,1,56.623.64ZM46.65.64h0A1.32,1.32,0,0,1,45.33-.68,1.32,1.32,0,0,1,46.647-2h0a1.32,1.32,0,0,1,1.32,1.32A1.32,1.32,0,0,1,46.651.64Zm-9.972,0h0a1.32,1.32,0,0,1-1.32-1.32A1.32,1.32,0,0,1,36.675-2h0a1.32,1.32,0,0,1,.937.385A1.32,1.32,0,0,1,38-.68,1.32,1.32,0,0,1,36.679.64Zm-9.972,0h0a1.32,1.32,0,0,1-1.32-1.32A1.32,1.32,0,0,1,26.7-2h0A1.32,1.32,0,0,1,28.02-.68,1.32,1.32,0,0,1,26.707.64Zm-9.972,0h0a1.32,1.32,0,0,1-1.32-1.32A1.32,1.32,0,0,1,16.731-2h0a1.32,1.32,0,0,1,1.32,1.32A1.32,1.32,0,0,1,16.735.64ZM6.763.64h0A1.32,1.32,0,0,1,5.828.254,1.32,1.32,0,0,1,5.44-.68,1.32,1.32,0,0,1,6.76-2h0a1.32,1.32,0,0,1,.935.386,1.32,1.32,0,0,1,.388.934A1.32,1.32,0,0,1,6.763.64Z" transform="translate(4.455 34.566)" fill="#bdbabb"/>
              <path id="Line_12" data-name="Line 12" transform="translate(1.32 33.886)" fill="#bdbabb"/>
              <path id="Line_13" data-name="Line 13" transform="translate(200.68 23.031)" fill="#bdbabb"/>
              <path id="Line_14" data-name="Line 14" d="M186.257.64h0a1.32,1.32,0,0,1-1.32-1.32A1.32,1.32,0,0,1,186.254-2h0a1.32,1.32,0,0,1,1.32,1.32A1.32,1.32,0,0,1,186.257.64Zm-9.972,0h0a1.32,1.32,0,0,1-1.32-1.32A1.32,1.32,0,0,1,176.282-2h0A1.32,1.32,0,0,1,177.6-.68,1.32,1.32,0,0,1,176.285.64Zm-9.972,0h0a1.32,1.32,0,0,1-1.32-1.32A1.32,1.32,0,0,1,166.31-2h0a1.32,1.32,0,0,1,1.32,1.32A1.32,1.32,0,0,1,166.313.64Zm-9.972,0h0a1.32,1.32,0,0,1-1.32-1.32A1.32,1.32,0,0,1,156.338-2h0a1.32,1.32,0,0,1,1.32,1.32A1.32,1.32,0,0,1,156.342.64Zm-9.972,0h0a1.32,1.32,0,0,1-1.32-1.32A1.32,1.32,0,0,1,146.366-2h0a1.32,1.32,0,0,1,1.32,1.32A1.32,1.32,0,0,1,146.37.64ZM136.4.64h0a1.32,1.32,0,0,1-1.32-1.32A1.32,1.32,0,0,1,136.394-2h0a1.32,1.32,0,0,1,1.32,1.32A1.32,1.32,0,0,1,136.4.64Zm-9.972,0h0a1.32,1.32,0,0,1-.939-.384A1.32,1.32,0,0,1,125.1-.68a1.32,1.32,0,0,1,.387-.934A1.32,1.32,0,0,1,126.422-2h0a1.32,1.32,0,0,1,1.32,1.32A1.32,1.32,0,0,1,126.426.64Zm-9.972,0h0a1.32,1.32,0,0,1-1.32-1.32A1.32,1.32,0,0,1,116.45-2h0a1.32,1.32,0,0,1,1.32,1.32A1.32,1.32,0,0,1,116.454.64Zm-9.972,0h0a1.32,1.32,0,0,1-1.32-1.32A1.32,1.32,0,0,1,106.478-2h0a1.32,1.32,0,0,1,.935.386,1.32,1.32,0,0,1,.387.934A1.32,1.32,0,0,1,106.482.64ZM96.51.64h0A1.32,1.32,0,0,1,95.19-.68,1.32,1.32,0,0,1,96.507-2h0a1.32,1.32,0,0,1,.935.386,1.32,1.32,0,0,1,.388.934A1.32,1.32,0,0,1,96.51.64Zm-9.972,0h0a1.32,1.32,0,0,1-1.32-1.32A1.32,1.32,0,0,1,86.535-2h0a1.32,1.32,0,0,1,1.32,1.32A1.32,1.32,0,0,1,86.538.64Zm-9.972,0h0a1.32,1.32,0,0,1-1.32-1.32A1.32,1.32,0,0,1,76.563-2h0a1.32,1.32,0,0,1,1.32,1.32A1.32,1.32,0,0,1,76.566.64Zm-9.972,0h0a1.32,1.32,0,0,1-1.32-1.32A1.32,1.32,0,0,1,66.591-2h0a1.32,1.32,0,0,1,1.32,1.32A1.32,1.32,0,0,1,66.6.64Zm-9.972,0h0a1.32,1.32,0,0,1-.935-.386A1.32,1.32,0,0,1,55.3-.68,1.32,1.32,0,0,1,56.619-2h0a1.32,1.32,0,0,1,1.32,1.32A1.32,1.32,0,0,1,56.623.64ZM46.65.64h0A1.32,1.32,0,0,1,45.33-.68,1.32,1.32,0,0,1,46.647-2h0a1.32,1.32,0,0,1,1.32,1.32A1.32,1.32,0,0,1,46.651.64Zm-9.972,0h0a1.32,1.32,0,0,1-1.32-1.32A1.32,1.32,0,0,1,36.675-2h0a1.32,1.32,0,0,1,.937.385A1.32,1.32,0,0,1,38-.68,1.32,1.32,0,0,1,36.679.64Zm-9.972,0h0a1.32,1.32,0,0,1-1.32-1.32A1.32,1.32,0,0,1,26.7-2h0A1.32,1.32,0,0,1,28.02-.68,1.32,1.32,0,0,1,26.707.64Zm-9.972,0h0a1.32,1.32,0,0,1-1.32-1.32A1.32,1.32,0,0,1,16.731-2h0a1.32,1.32,0,0,1,1.32,1.32A1.32,1.32,0,0,1,16.735.64ZM6.763.64h0A1.32,1.32,0,0,1,5.828.254,1.32,1.32,0,0,1,5.44-.68,1.32,1.32,0,0,1,6.76-2h0a1.32,1.32,0,0,1,.935.386,1.32,1.32,0,0,1,.388.934A1.32,1.32,0,0,1,6.763.64Z" transform="translate(4.455 23.711)" fill="#bdbabb"/>
              <path id="Line_15" data-name="Line 15" transform="translate(1.32 23.031)" fill="#bdbabb"/>
              <path id="Line_16" data-name="Line 16" transform="translate(200.68 12.175)" fill="#bdbabb"/>
              <path id="Line_17" data-name="Line 17" d="M186.257.64h0a1.32,1.32,0,0,1-1.32-1.32A1.32,1.32,0,0,1,186.254-2h0a1.32,1.32,0,0,1,1.32,1.32A1.32,1.32,0,0,1,186.257.64Zm-9.972,0h0a1.32,1.32,0,0,1-1.32-1.32A1.32,1.32,0,0,1,176.282-2h0A1.32,1.32,0,0,1,177.6-.68,1.32,1.32,0,0,1,176.285.64Zm-9.972,0h0a1.32,1.32,0,0,1-1.32-1.32A1.32,1.32,0,0,1,166.31-2h0a1.32,1.32,0,0,1,1.32,1.32A1.32,1.32,0,0,1,166.313.64Zm-9.972,0h0a1.32,1.32,0,0,1-1.32-1.32A1.32,1.32,0,0,1,156.338-2h0a1.32,1.32,0,0,1,1.32,1.32A1.32,1.32,0,0,1,156.342.64Zm-9.972,0h0a1.32,1.32,0,0,1-1.32-1.32A1.32,1.32,0,0,1,146.366-2h0a1.32,1.32,0,0,1,1.32,1.32A1.32,1.32,0,0,1,146.37.64ZM136.4.64h0a1.32,1.32,0,0,1-1.32-1.32A1.32,1.32,0,0,1,136.394-2h0a1.32,1.32,0,0,1,1.32,1.32A1.32,1.32,0,0,1,136.4.64Zm-9.972,0h0a1.32,1.32,0,0,1-.939-.384A1.32,1.32,0,0,1,125.1-.68a1.32,1.32,0,0,1,.387-.934A1.32,1.32,0,0,1,126.422-2h0a1.32,1.32,0,0,1,1.32,1.32A1.32,1.32,0,0,1,126.426.64Zm-9.972,0h0a1.32,1.32,0,0,1-1.32-1.32A1.32,1.32,0,0,1,116.45-2h0a1.32,1.32,0,0,1,1.32,1.32A1.32,1.32,0,0,1,116.454.64Zm-9.972,0h0a1.32,1.32,0,0,1-1.32-1.32A1.32,1.32,0,0,1,106.478-2h0a1.32,1.32,0,0,1,.935.386,1.32,1.32,0,0,1,.387.934A1.32,1.32,0,0,1,106.482.64ZM96.51.64h0A1.32,1.32,0,0,1,95.19-.68,1.32,1.32,0,0,1,96.507-2h0a1.32,1.32,0,0,1,.935.386,1.32,1.32,0,0,1,.388.934A1.32,1.32,0,0,1,96.51.64Zm-9.972,0h0a1.32,1.32,0,0,1-1.32-1.32A1.32,1.32,0,0,1,86.535-2h0a1.32,1.32,0,0,1,1.32,1.32A1.32,1.32,0,0,1,86.538.64Zm-9.972,0h0a1.32,1.32,0,0,1-1.32-1.32A1.32,1.32,0,0,1,76.563-2h0a1.32,1.32,0,0,1,1.32,1.32A1.32,1.32,0,0,1,76.566.64Zm-9.972,0h0a1.32,1.32,0,0,1-1.32-1.32A1.32,1.32,0,0,1,66.591-2h0a1.32,1.32,0,0,1,1.32,1.32A1.32,1.32,0,0,1,66.6.64Zm-9.972,0h0a1.32,1.32,0,0,1-.935-.386A1.32,1.32,0,0,1,55.3-.68,1.32,1.32,0,0,1,56.619-2h0a1.32,1.32,0,0,1,1.32,1.32A1.32,1.32,0,0,1,56.623.64ZM46.65.64h0A1.32,1.32,0,0,1,45.33-.68,1.32,1.32,0,0,1,46.647-2h0a1.32,1.32,0,0,1,1.32,1.32A1.32,1.32,0,0,1,46.651.64Zm-9.972,0h0a1.32,1.32,0,0,1-1.32-1.32A1.32,1.32,0,0,1,36.675-2h0a1.32,1.32,0,0,1,.937.385A1.32,1.32,0,0,1,38-.68,1.32,1.32,0,0,1,36.679.64Zm-9.972,0h0a1.32,1.32,0,0,1-1.32-1.32A1.32,1.32,0,0,1,26.7-2h0A1.32,1.32,0,0,1,28.02-.68,1.32,1.32,0,0,1,26.707.64Zm-9.972,0h0a1.32,1.32,0,0,1-1.32-1.32A1.32,1.32,0,0,1,16.731-2h0a1.32,1.32,0,0,1,1.32,1.32A1.32,1.32,0,0,1,16.735.64ZM6.763.64h0A1.32,1.32,0,0,1,5.828.254,1.32,1.32,0,0,1,5.44-.68,1.32,1.32,0,0,1,6.76-2h0a1.32,1.32,0,0,1,.935.386,1.32,1.32,0,0,1,.388.934A1.32,1.32,0,0,1,6.763.64Z" transform="translate(4.455 12.855)" fill="#bdbabb"/>
              <path id="Line_18" data-name="Line 18" transform="translate(1.32 12.175)" fill="#bdbabb"/>
              <path id="Line_19" data-name="Line 19" transform="translate(200.68 1.32)" fill="#bdbabb"/>
              <path id="Line_20" data-name="Line 20" d="M186.257.64h0a1.32,1.32,0,0,1-1.32-1.32A1.32,1.32,0,0,1,186.254-2h0a1.32,1.32,0,0,1,1.32,1.32A1.32,1.32,0,0,1,186.257.64Zm-9.972,0h0a1.32,1.32,0,0,1-1.32-1.32A1.32,1.32,0,0,1,176.282-2h0A1.32,1.32,0,0,1,177.6-.68,1.32,1.32,0,0,1,176.285.64Zm-9.972,0h0a1.32,1.32,0,0,1-1.32-1.32A1.32,1.32,0,0,1,166.31-2h0a1.32,1.32,0,0,1,1.32,1.32A1.32,1.32,0,0,1,166.313.64Zm-9.972,0h0a1.32,1.32,0,0,1-1.32-1.32A1.32,1.32,0,0,1,156.338-2h0a1.32,1.32,0,0,1,1.32,1.32A1.32,1.32,0,0,1,156.342.64Zm-9.972,0h0a1.32,1.32,0,0,1-1.32-1.32A1.32,1.32,0,0,1,146.366-2h0a1.32,1.32,0,0,1,1.32,1.32A1.32,1.32,0,0,1,146.37.64ZM136.4.64h0a1.32,1.32,0,0,1-1.32-1.32A1.32,1.32,0,0,1,136.394-2h0a1.32,1.32,0,0,1,1.32,1.32A1.32,1.32,0,0,1,136.4.64Zm-9.972,0h0a1.32,1.32,0,0,1-.939-.384A1.32,1.32,0,0,1,125.1-.68a1.32,1.32,0,0,1,.387-.934A1.32,1.32,0,0,1,126.422-2h0a1.32,1.32,0,0,1,1.32,1.32A1.32,1.32,0,0,1,126.426.64Zm-9.972,0h0a1.32,1.32,0,0,1-1.32-1.32A1.32,1.32,0,0,1,116.45-2h0a1.32,1.32,0,0,1,1.32,1.32A1.32,1.32,0,0,1,116.454.64Zm-9.972,0h0a1.32,1.32,0,0,1-1.32-1.32A1.32,1.32,0,0,1,106.478-2h0a1.32,1.32,0,0,1,.935.386,1.32,1.32,0,0,1,.387.934A1.32,1.32,0,0,1,106.482.64ZM96.51.64h0A1.32,1.32,0,0,1,95.19-.68,1.32,1.32,0,0,1,96.507-2h0a1.32,1.32,0,0,1,.935.386,1.32,1.32,0,0,1,.388.934A1.32,1.32,0,0,1,96.51.64Zm-9.972,0h0a1.32,1.32,0,0,1-1.32-1.32A1.32,1.32,0,0,1,86.535-2h0a1.32,1.32,0,0,1,1.32,1.32A1.32,1.32,0,0,1,86.538.64Zm-9.972,0h0a1.32,1.32,0,0,1-1.32-1.32A1.32,1.32,0,0,1,76.563-2h0a1.32,1.32,0,0,1,1.32,1.32A1.32,1.32,0,0,1,76.566.64Zm-9.972,0h0a1.32,1.32,0,0,1-1.32-1.32A1.32,1.32,0,0,1,66.591-2h0a1.32,1.32,0,0,1,1.32,1.32A1.32,1.32,0,0,1,66.6.64Zm-9.972,0h0a1.32,1.32,0,0,1-.935-.386A1.32,1.32,0,0,1,55.3-.68,1.32,1.32,0,0,1,56.619-2h0a1.32,1.32,0,0,1,1.32,1.32A1.32,1.32,0,0,1,56.623.64ZM46.65.64h0A1.32,1.32,0,0,1,45.33-.68,1.32,1.32,0,0,1,46.647-2h0a1.32,1.32,0,0,1,1.32,1.32A1.32,1.32,0,0,1,46.651.64Zm-9.972,0h0a1.32,1.32,0,0,1-1.32-1.32A1.32,1.32,0,0,1,36.675-2h0a1.32,1.32,0,0,1,.937.385A1.32,1.32,0,0,1,38-.68,1.32,1.32,0,0,1,36.679.64Zm-9.972,0h0a1.32,1.32,0,0,1-1.32-1.32A1.32,1.32,0,0,1,26.7-2h0A1.32,1.32,0,0,1,28.02-.68,1.32,1.32,0,0,1,26.707.64Zm-9.972,0h0a1.32,1.32,0,0,1-1.32-1.32A1.32,1.32,0,0,1,16.731-2h0a1.32,1.32,0,0,1,1.32,1.32A1.32,1.32,0,0,1,16.735.64ZM6.763.64h0A1.32,1.32,0,0,1,5.828.254,1.32,1.32,0,0,1,5.44-.68,1.32,1.32,0,0,1,6.76-2h0a1.32,1.32,0,0,1,.935.386,1.32,1.32,0,0,1,.388.934A1.32,1.32,0,0,1,6.763.64Z" transform="translate(4.455 2)" fill="#bdbabb"/>
              <path id="Line_21" data-name="Line 21" transform="translate(1.32 1.32)" fill="#bdbabb"/>
            </g>
          </g>
        </g>
      </g>
    </g>
  </g>
</svg>
