<svg width="80" height="80" viewBox="0 0 80 80" fill="none" xmlns="http://www.w3.org/2000/svg">
<path d="M39.9999 80C62.0913 80 79.9999 62.0914 79.9999 40C79.9999 17.9086 62.0913 0 39.9999 0C17.9085 0 -0.00012207 17.9086 -0.00012207 40C-0.00012207 62.0914 17.9085 80 39.9999 80Z" fill="#FFF2E8"/>
<path d="M48.5938 26.7188C47.8833 26.7278 47.1749 26.7984 46.4766 26.9297L46.1094 25.9375C45.8715 25.3953 45.4372 24.9633 44.8937 24.7283C44.3503 24.4932 43.738 24.4725 43.18 24.6704C42.6219 24.8683 42.1594 25.2701 41.8854 25.795C41.6115 26.3199 41.5464 26.9291 41.7032 27.5L42.0782 28.5313C40.2699 29.6356 38.772 31.1814 37.7251 33.0236C36.6783 34.8658 36.117 36.9438 36.0938 39.0625L33.0235 46.7422C32.9763 46.8605 32.9587 46.9885 32.9724 47.1152C32.986 47.2418 33.0304 47.3632 33.1016 47.4688C33.1733 47.5748 33.2699 47.6616 33.3829 47.7215C33.496 47.7815 33.6221 47.8127 33.7501 47.8125H36.0938V50.1563C36.0938 52.021 36.8346 53.8095 38.1532 55.1281C39.4719 56.4467 41.2602 57.1875 43.1251 57.1875H45.4688V62.6563C45.4688 62.8634 45.5511 63.0622 45.6976 63.2087C45.8441 63.3552 46.0429 63.4375 46.2501 63.4375C46.4572 63.4375 46.656 63.3552 46.8025 63.2087C46.949 63.0622 47.0313 62.8634 47.0313 62.6563V56.3047C47.0313 56.1919 47.0069 56.0803 46.9597 55.9778C46.9125 55.8753 46.8436 55.7843 46.7579 55.7109C46.6718 55.6368 46.5706 55.5823 46.4613 55.5513C46.352 55.5202 46.2372 55.5134 46.1251 55.5313C45.7792 55.5908 45.4291 55.6221 45.0782 55.625H43.1251C41.6747 55.625 40.2836 55.0488 39.258 54.0232C38.2325 52.9977 37.6563 51.6067 37.6563 50.1563V47.0313C37.6563 46.8241 37.574 46.6253 37.4275 46.4788C37.281 46.3324 37.0822 46.25 36.8751 46.25H34.9063L37.6016 39.5078C37.6391 39.4162 37.6578 39.3178 37.6563 39.2188C37.6565 37.3984 38.1111 35.607 38.9787 34.0067C39.8463 32.4065 41.0997 31.0481 42.6251 30.0547L44.1876 34.4531C44.2203 34.5524 44.2726 34.6439 44.3413 34.7226C44.4101 34.8012 44.494 34.8652 44.5879 34.9109C44.6819 34.9566 44.784 34.983 44.8883 34.9884C44.9926 34.994 45.0969 34.9784 45.1952 34.943C45.2934 34.9074 45.3835 34.8526 45.4601 34.7816C45.5368 34.7106 45.5985 34.625 45.6415 34.5299C45.6844 34.4346 45.7079 34.3318 45.7104 34.2274C45.713 34.123 45.6946 34.0191 45.6563 33.9219L43.1329 26.9844C43.0547 26.7941 43.0547 26.5809 43.1329 26.3906C43.1765 26.2968 43.2383 26.2126 43.3147 26.1428C43.3912 26.0731 43.4808 26.0192 43.5782 25.9844C43.7729 25.914 43.9877 25.9238 44.1752 26.0118C44.3627 26.0997 44.5076 26.2584 44.5782 26.4531L47.8672 35.4844C46.4473 35.8327 45.1944 36.6677 44.3265 37.8442C43.4586 39.0208 43.0305 40.4643 43.1169 41.9238C43.2033 43.3833 43.7986 44.7663 44.7994 45.8322C45.8 46.8981 47.1427 47.5795 48.5938 47.7578V48.5938C48.5938 49.2153 48.3469 49.8115 47.9073 50.251C47.4678 50.6906 46.8716 50.9375 46.2501 50.9375H46.1094C45.9483 50.4817 45.65 50.0867 45.2556 49.807C44.8611 49.5273 44.3898 49.3763 43.9063 49.375H42.3438C41.7222 49.375 41.1261 49.622 40.6865 50.0615C40.247 50.501 40.0001 51.0972 40.0001 51.7188C40.0001 52.3403 40.247 52.9365 40.6865 53.376C41.1261 53.8156 41.7222 54.0625 42.3438 54.0625H43.9063C44.3898 54.0612 44.8611 53.9102 45.2556 53.6306C45.65 53.3508 45.9483 52.9559 46.1094 52.5H46.2501C46.763 52.5 47.271 52.399 47.7449 52.2027C48.2188 52.0063 48.6494 51.7186 49.0122 51.3559C49.3749 50.9931 49.6626 50.5625 49.859 50.0886C50.0553 49.6147 50.1563 49.1067 50.1563 48.5938V47.7578C51.7154 47.5552 53.1409 46.7726 54.1486 45.5657C55.1562 44.3589 55.6721 42.8167 55.5932 41.2464C55.5144 39.6762 54.8466 38.1934 53.7231 37.0936C52.5996 35.9938 51.1029 35.3578 49.5313 35.3125L47.0313 28.4141C48.585 28.1699 50.1733 28.2673 51.6855 28.6995C53.1977 29.1318 54.5976 29.8885 55.7875 30.917C56.9773 31.9456 57.9287 33.2211 58.5753 34.6549C59.2219 36.0886 59.5481 37.646 59.5313 39.2188V62.6563C59.5313 62.8634 59.6136 63.0622 59.7601 63.2087C59.9066 63.3552 60.1054 63.4375 60.3126 63.4375C60.5197 63.4375 60.7185 63.3552 60.865 63.2087C61.0115 63.0622 61.0938 62.8634 61.0938 62.6563V39.2188C61.0938 35.9035 59.7769 32.7241 57.4326 30.3799C55.0884 28.0357 51.909 26.7188 48.5938 26.7188ZM43.9063 52.5H42.3438C42.1366 52.5 41.9379 52.4177 41.7914 52.2712C41.6449 52.1247 41.5626 51.9259 41.5626 51.7188C41.5626 51.5116 41.6449 51.3128 41.7914 51.1663C41.9379 51.0199 42.1366 50.9375 42.3438 50.9375H43.9063C44.1135 50.9375 44.3122 51.0199 44.4587 51.1663C44.6052 51.3128 44.6876 51.5116 44.6876 51.7188C44.6876 51.9259 44.6052 52.1247 44.4587 52.2712C44.3122 52.4177 44.1135 52.5 43.9063 52.5ZM54.0626 41.5625C54.0594 42.4723 53.7915 43.3614 53.2917 44.1216C52.7919 44.8817 52.0816 45.48 51.2476 45.8434C50.4136 46.2069 49.4919 46.3198 48.5948 46.1683C47.6977 46.0169 46.8641 45.6077 46.1956 44.9906C45.5272 44.3735 45.0526 43.5752 44.8301 42.6931C44.6075 41.811 44.6464 40.8832 44.942 40.0228C45.2376 39.1625 45.7773 38.4067 46.4951 37.8477C47.2129 37.2888 48.0779 36.9508 48.9844 36.875H49.3751C50.6183 36.875 51.8105 37.3688 52.6896 38.248C53.5687 39.127 54.0626 40.3193 54.0626 41.5625Z" fill="#F48120"/>
<path d="M47.0312 41.5625C47.0312 42.026 47.1687 42.4792 47.4262 42.8646C47.6837 43.2501 48.0498 43.5505 48.4781 43.7278C48.9063 43.9052 49.3776 43.9516 49.8323 43.8613C50.2869 43.7708 50.7045 43.5476 51.0323 43.2198C51.3601 42.892 51.5833 42.4744 51.6738 42.0198C51.7641 41.5651 51.7177 41.0938 51.5403 40.6656C51.363 40.2373 51.0626 39.8712 50.6771 39.6137C50.2917 39.3562 49.8385 39.2188 49.375 39.2188C48.7534 39.2188 48.1573 39.4657 47.7177 39.9052C47.2782 40.3448 47.0312 40.9409 47.0312 41.5625ZM50.1562 41.5625C50.1562 41.717 50.1105 41.868 50.0246 41.9966C49.9388 42.125 49.8167 42.2252 49.674 42.2843C49.5313 42.3434 49.3741 42.3589 49.2226 42.3288C49.071 42.2986 48.9318 42.2242 48.8226 42.1149C48.7133 42.0057 48.6389 41.8665 48.6087 41.7149C48.5786 41.5634 48.5941 41.4062 48.6532 41.2635C48.7123 41.1208 48.8125 40.9987 48.9409 40.9129C49.0695 40.827 49.2205 40.7812 49.375 40.7812C49.5822 40.7812 49.7809 40.8636 49.9274 41.0101C50.0739 41.1566 50.1562 41.3553 50.1562 41.5625Z" fill="#F48120"/>
<path d="M20.4688 28.2813H24.375C24.5822 28.2813 24.7809 28.1989 24.9274 28.0524C25.0739 27.9059 25.1562 27.7072 25.1562 27.5C25.1562 27.2928 25.0739 27.0941 24.9274 26.9476C24.7809 26.8011 24.5822 26.7188 24.375 26.7188H20.4688C19.8471 26.7188 19.251 26.4718 18.8115 26.0323C18.3719 25.5927 18.125 24.9966 18.125 24.375V20.4688C18.125 19.8471 18.3719 19.251 18.8115 18.8115C19.251 18.3719 19.8471 18.125 20.4688 18.125H32.1875C32.8091 18.125 33.4052 18.3719 33.8448 18.8115C34.2843 19.251 34.5312 19.8471 34.5312 20.4688V24.375C34.5312 24.9966 34.2843 25.5927 33.8448 26.0323C33.4052 26.4718 32.8091 26.7188 32.1875 26.7188C31.9803 26.7188 31.7816 26.8011 31.6351 26.9476C31.4886 27.0941 31.4062 27.2928 31.4062 27.5V30.3047L28.0547 26.9453C27.9819 26.8725 27.8954 26.8147 27.8002 26.7752C27.705 26.7359 27.603 26.7155 27.5 26.7155C27.397 26.7155 27.295 26.7359 27.1998 26.7752C27.1046 26.8147 27.0181 26.8725 26.9453 26.9453C26.8725 27.0181 26.8147 27.1046 26.7752 27.1998C26.7359 27.295 26.7155 27.397 26.7155 27.5C26.7155 27.708 26.7982 27.9076 26.9453 28.0547L31.6328 32.7422C31.7058 32.8146 31.7924 32.8719 31.8876 32.9108C31.9827 32.9496 32.0847 32.9694 32.1875 32.9688C32.29 32.9714 32.3916 32.95 32.4844 32.9063C32.627 32.8477 32.7491 32.7481 32.8354 32.6202C32.9216 32.4923 32.968 32.3417 32.9688 32.1875V28.2031C33.8511 28.023 34.6441 27.5436 35.2135 26.846C35.783 26.1484 36.0939 25.2755 36.0938 24.375V20.4688C36.0938 19.4328 35.6822 18.4392 34.9496 17.7066C34.2171 16.974 33.2235 16.5625 32.1875 16.5625H20.4688C19.4328 16.5625 18.4392 16.974 17.7066 17.7066C16.974 18.4392 16.5625 19.4328 16.5625 20.4688V24.375C16.5625 25.411 16.974 26.4046 17.7066 27.1371C18.4392 27.8697 19.4328 28.2813 20.4688 28.2813Z" fill="#F48120"/>
<path d="M31.4062 20.4688C31.4062 20.2615 31.3239 20.0628 31.1774 19.9163C31.0309 19.7698 30.8322 19.6875 30.625 19.6875H23.5938C23.3866 19.6875 23.1878 19.7698 23.0413 19.9163C22.8948 20.0628 22.8125 20.2615 22.8125 20.4688C22.8125 20.676 22.8948 20.8747 23.0413 21.0212C23.1878 21.1677 23.3866 21.25 23.5938 21.25H30.625C30.8322 21.25 31.0309 21.1677 31.1774 21.0212C31.3239 20.8747 31.4062 20.676 31.4062 20.4688Z" fill="#F48120"/>
<path d="M20.4688 23.5938C20.4688 23.8009 20.5511 23.9997 20.6976 24.1462C20.8441 24.2927 21.0428 24.375 21.25 24.375H26.7188C26.9259 24.375 27.1247 24.2927 27.2712 24.1462C27.4177 23.9997 27.5 23.8009 27.5 23.5938C27.5 23.3866 27.4177 23.1878 27.2712 23.0413C27.1247 22.8948 26.9259 22.8125 26.7188 22.8125H21.25C21.0428 22.8125 20.8441 22.8948 20.6976 23.0413C20.5511 23.1878 20.4688 23.3866 20.4688 23.5938Z" fill="#F48120"/>
<path d="M29.8438 24.375C30.2752 24.375 30.625 24.0252 30.625 23.5938C30.625 23.1623 30.2752 22.8125 29.8438 22.8125C29.4123 22.8125 29.0625 23.1623 29.0625 23.5938C29.0625 24.0252 29.4123 24.375 29.8438 24.375Z" fill="#F48120"/>
<path d="M32.9687 55.625H29.0625V54.8438C29.0625 54.6366 28.9802 54.4378 28.8337 54.2913C28.6872 54.1448 28.4884 54.0625 28.2812 54.0625H17.3437C17.1365 54.0625 16.9378 54.1448 16.7913 54.2913C16.6448 54.4378 16.5625 54.6366 16.5625 54.8438V62.6562C16.5625 62.8634 16.6448 63.0622 16.7913 63.2087C16.9378 63.3552 17.1365 63.4375 17.3437 63.4375H28.2812C28.4884 63.4375 28.6872 63.3552 28.8337 63.2087C28.9802 63.0622 29.0625 62.8634 29.0625 62.6562V61.4141L33.5234 56.9609C33.6319 56.8511 33.7053 56.7116 33.7345 56.56C33.7637 56.4084 33.7473 56.2516 33.6875 56.1094C33.6289 55.9667 33.5294 55.8446 33.4015 55.7584C33.2735 55.6722 33.123 55.6258 32.9687 55.625ZM26.1719 55.625L22.8125 58.5L19.4531 55.625H26.1719ZM27.5 61.875H18.125V56.5391L22.3047 60.125C22.4462 60.246 22.6263 60.3126 22.8125 60.3126C22.9987 60.3126 23.1788 60.246 23.3203 60.125L27.5 56.5391V61.875ZM29.0625 59.2109V57.1875H31.0859L29.0625 59.2109Z" fill="#F48120"/>
<path d="M30.4063 39.3984L28.8438 36.6953C28.7407 36.5166 28.5711 36.3859 28.3721 36.3318C28.1731 36.2777 27.9606 36.3044 27.7813 36.4062L26.6406 37.0625C26.3923 36.8961 26.131 36.7498 25.8594 36.625V35.3125C25.8594 35.1053 25.7771 34.9066 25.6306 34.7601C25.4841 34.6136 25.2853 34.5312 25.0781 34.5312H21.9531C21.7459 34.5312 21.5472 34.6136 21.4007 34.7601C21.2542 34.9066 21.1719 35.1053 21.1719 35.3125V36.625C20.9004 36.7502 20.6392 36.8964 20.3906 37.0625L19.2969 36.4062C19.2077 36.3546 19.1092 36.3211 19.0071 36.3077C18.9049 36.2942 18.8011 36.3012 18.7016 36.328C18.6021 36.3549 18.5089 36.4012 18.4274 36.4642C18.3459 36.5273 18.2776 36.6058 18.2266 36.6953L16.6641 39.3984C16.6124 39.4876 16.5789 39.5861 16.5655 39.6883C16.5521 39.7905 16.559 39.8943 16.5859 39.9938C16.6127 40.0932 16.659 40.1864 16.722 40.268C16.7851 40.3495 16.8636 40.4177 16.9531 40.4687L18.125 41.125C18.125 41.2734 18.125 41.4141 18.125 41.5625C18.125 41.7109 18.125 41.8516 18.125 42L16.9531 42.6563C16.8636 42.7073 16.7851 42.7755 16.722 42.857C16.659 42.9386 16.6127 43.0318 16.5859 43.1312C16.559 43.2307 16.5521 43.3345 16.5655 43.4367C16.5789 43.5389 16.6124 43.6374 16.6641 43.7266C16.7158 43.8155 16.7845 43.8932 16.8663 43.9555C16.9481 44.0177 17.0414 44.0632 17.1409 44.0894C17.2403 44.1155 17.3439 44.1217 17.4457 44.1077C17.5476 44.0938 17.6457 44.0598 17.7344 44.0078L19.2969 43.0937C19.4394 43.0148 19.5537 42.8933 19.6237 42.7463C19.6938 42.5991 19.7161 42.4338 19.6875 42.2734C19.5939 41.8041 19.5939 41.3209 19.6875 40.8516C19.7253 40.689 19.71 40.5187 19.6439 40.3654C19.5779 40.2122 19.4645 40.0841 19.3203 40L18.4141 39.4766L19.1953 38.1172L20.1016 38.6484C20.2418 38.7288 20.4036 38.7637 20.5645 38.7484C20.7254 38.733 20.8776 38.668 21 38.5625C21.3653 38.2531 21.7835 38.0123 22.2344 37.8516C22.3868 37.7983 22.519 37.6991 22.6128 37.5675C22.7065 37.436 22.7572 37.2787 22.7578 37.1172V36.0938H24.3203V37.1484C24.3204 37.309 24.3699 37.4656 24.4622 37.597C24.5545 37.7284 24.6849 37.8282 24.836 37.8828C25.2885 38.04 25.7073 38.2812 26.0703 38.5938C26.1928 38.6993 26.3449 38.7642 26.5059 38.7796C26.6668 38.795 26.8285 38.7601 26.9688 38.6797L27.8828 38.1484L28.6641 39.5078L27.75 40C27.6104 40.0812 27.4993 40.2037 27.4322 40.3505C27.365 40.4975 27.345 40.6616 27.375 40.8203C27.4687 41.2896 27.4687 41.7729 27.375 42.2422C27.3305 42.4101 27.3431 42.588 27.4111 42.7479C27.479 42.9078 27.5982 43.0405 27.75 43.125L28.6641 43.6484L27.8828 45.0078L26.9688 44.4766C26.8285 44.3962 26.6668 44.3613 26.5059 44.3766C26.3449 44.392 26.1928 44.457 26.0703 44.5625C25.7073 44.8751 25.2885 45.1163 24.836 45.2734C24.6849 45.328 24.5545 45.4278 24.4622 45.5592C24.3699 45.6906 24.3204 45.8473 24.3203 46.0078V47.0312H22.7578V45.9766C22.7572 45.8151 22.7065 45.6577 22.6128 45.5263C22.519 45.3947 22.3868 45.2955 22.2344 45.2422C21.7835 45.0814 21.3653 44.8406 21 44.5312C20.8776 44.4257 20.7254 44.3608 20.5645 44.3454C20.4036 44.33 20.2418 44.3649 20.1016 44.4453L18.5391 45.3672C18.3604 45.4702 18.2297 45.6398 18.1755 45.8388C18.1214 46.0379 18.1482 46.2503 18.25 46.4297C18.3011 46.5192 18.3693 46.5977 18.4508 46.6608C18.5323 46.7238 18.6255 46.7701 18.725 46.797C18.8245 46.8238 18.9283 46.8308 19.0305 46.8173C19.1327 46.8039 19.2312 46.7704 19.3203 46.7187L20.4688 46.0625C20.716 46.2306 20.9774 46.377 21.25 46.5V47.8125C21.25 48.0197 21.3323 48.2184 21.4788 48.3649C21.6254 48.5114 21.8241 48.5938 22.0313 48.5938H25.1563C25.3635 48.5938 25.5622 48.5114 25.7087 48.3649C25.8552 48.2184 25.9375 48.0197 25.9375 47.8125V46.5C26.2092 46.3752 26.4704 46.2289 26.7188 46.0625L27.8594 46.7187C28.0388 46.8206 28.2512 46.8473 28.4503 46.7932C28.6492 46.7391 28.8189 46.6084 28.9219 46.4297L30.4844 43.7266C30.5364 43.6379 30.5703 43.5398 30.5843 43.4379C30.5983 43.3361 30.5921 43.2324 30.566 43.133C30.5398 43.0336 30.4943 42.9403 30.4321 42.8585C30.3698 42.7766 30.292 42.708 30.2031 42.6563L29.0625 42C29.0938 41.7091 29.0938 41.4159 29.0625 41.125L30.2031 40.4687C30.3697 40.3519 30.4841 40.1747 30.5221 39.9748C30.5599 39.7749 30.5185 39.5682 30.4063 39.3984Z" fill="#F48120"/>
<path d="M25.8828 41.5625C25.8828 41.099 25.7453 40.6458 25.4878 40.2604C25.2303 39.8749 24.8642 39.5745 24.4359 39.3972C24.0077 39.2198 23.5365 39.1734 23.0818 39.2638C22.6272 39.3542 22.2096 39.5774 21.8818 39.9052C21.554 40.233 21.3308 40.6506 21.2404 41.1052C21.1499 41.5599 21.1963 42.0312 21.3737 42.4594C21.5511 42.8877 21.8515 43.2538 22.2369 43.5113C22.6224 43.7688 23.0756 43.9063 23.5391 43.9063C24.1606 43.9063 24.7568 43.6593 25.1963 43.2198C25.6359 42.7802 25.8828 42.1841 25.8828 41.5625ZM22.7578 41.5625C22.7578 41.408 22.8036 41.257 22.8895 41.1284C22.9753 41 23.0974 40.8998 23.2401 40.8407C23.3828 40.7816 23.5399 40.7661 23.6915 40.7963C23.8431 40.8264 23.9822 40.9008 24.0915 41.0101C24.2008 41.1193 24.2752 41.2585 24.3053 41.4101C24.3355 41.5616 24.32 41.7188 24.2609 41.8615C24.2017 42.0042 24.1016 42.1263 23.9731 42.2121C23.8446 42.298 23.6936 42.3438 23.5391 42.3438C23.3319 42.3438 23.1331 42.2614 22.9866 42.1149C22.8402 41.9684 22.7578 41.7697 22.7578 41.5625Z" fill="#F48120"/>
<path d="M59.5312 21.25C59.7384 21.25 59.9372 21.1677 60.0837 21.0212C60.2302 20.8747 60.3125 20.676 60.3125 20.4688C60.3125 20.2615 60.2302 20.0628 60.0837 19.9163C59.9372 19.7698 59.7384 19.6875 59.5312 19.6875H54.8438C54.6366 19.6875 54.4378 19.7698 54.2913 19.9163C54.1448 20.0628 54.0625 20.2615 54.0625 20.4688C54.0625 20.676 54.1448 20.8747 54.2913 21.0212C54.4378 21.1677 54.6366 21.25 54.8438 21.25H59.5312Z" fill="#F48120"/>
<path d="M52.5 23.5938C52.5 23.8009 52.5823 23.9997 52.7288 24.1462C52.8753 24.2927 53.0741 24.375 53.2812 24.375H59.5312C59.7384 24.375 59.9372 24.2927 60.0837 24.1462C60.2302 23.9997 60.3125 23.8009 60.3125 23.5938C60.3125 23.3866 60.2302 23.1878 60.0837 23.0413C59.9372 22.8948 59.7384 22.8125 59.5312 22.8125H53.2812C53.0741 22.8125 52.8753 22.8948 52.7288 23.0413C52.5823 23.1878 52.5 23.3866 52.5 23.5938Z" fill="#F48120"/>
<path d="M59.5312 25.9375H56.4062C56.1991 25.9375 56.0003 26.0198 55.8538 26.1663C55.7073 26.3128 55.625 26.5116 55.625 26.7188C55.625 26.9259 55.7073 27.1247 55.8538 27.2712C56.0003 27.4177 56.1991 27.5 56.4062 27.5H59.5312C59.7384 27.5 59.9372 27.4177 60.0837 27.2712C60.2302 27.1247 60.3125 26.9259 60.3125 26.7188C60.3125 26.5116 60.2302 26.3128 60.0837 26.1663C59.9372 26.0198 59.7384 25.9375 59.5312 25.9375Z" fill="#F48120"/>
<path d="M62.6562 16.5625H50.1562C49.9491 16.5625 49.7503 16.6448 49.6038 16.7913C49.4573 16.9378 49.375 17.1365 49.375 17.3438V24.4922C49.375 24.6994 49.4573 24.8981 49.6038 25.0446C49.7503 25.1911 49.9491 25.2734 50.1562 25.2734C50.3634 25.2734 50.5622 25.1911 50.7087 25.0446C50.8552 24.8981 50.9375 24.6994 50.9375 24.4922V18.125H61.875V32.9688C61.875 33.1759 61.9573 33.3747 62.1038 33.5212C62.2503 33.6677 62.4491 33.75 62.6562 33.75C62.8634 33.75 63.0622 33.6677 63.2087 33.5212C63.3552 33.3747 63.4375 33.1759 63.4375 32.9688V17.3438C63.4375 17.1365 63.3552 16.9378 63.2087 16.7913C63.0622 16.6448 62.8634 16.5625 62.6562 16.5625Z" fill="#F48120"/>
</svg>
