<svg width="80" height="80" viewBox="0 0 80 80" fill="none" xmlns="http://www.w3.org/2000/svg">
<path d="M40 80C62.0914 80 80 62.0914 80 40C80 17.9086 62.0914 0 40 0C17.9086 0 0 17.9086 0 40C0 62.0914 17.9086 80 40 80Z" fill="#FFF2E8"/>
<path d="M54.4879 63.0417C53.8832 63.0409 53.3014 62.8102 52.8603 62.3965L46.9576 56.9167H33.1608C32.8404 56.9167 32.533 56.7893 32.3064 56.5628C32.0799 56.3362 31.9525 56.0288 31.9525 55.7083C31.9525 55.3879 32.0799 55.0805 32.3064 54.8539C32.533 54.6274 32.8404 54.5 33.1608 54.5H47.4313C47.7366 54.5001 48.0306 54.6158 48.2541 54.8238L54.5012 60.6238V55.7083C54.5012 55.3879 54.6286 55.0805 54.8551 54.8539C55.0817 54.6274 55.3891 54.5 55.7096 54.5H60.5429C61.5042 54.5 62.4263 54.1181 63.1061 53.4382C63.7859 52.7584 64.1679 51.8364 64.1679 50.875V30.3333C64.1668 29.6981 63.9988 29.0743 63.6807 28.5243C63.3625 27.9744 62.9055 27.5178 62.3554 27.2001C62.0776 27.0399 61.8747 26.7759 61.7916 26.4661C61.7084 26.1562 61.7517 25.8261 61.9119 25.5483C62.0722 25.2705 62.3362 25.0677 62.646 24.9845C62.9558 24.9014 63.2859 24.9447 63.5637 25.1049C64.4813 25.635 65.2434 26.3972 65.7735 27.3148C66.3035 28.2325 66.5827 29.2735 66.5833 30.3333V50.875C66.5814 52.4768 65.9443 54.0123 64.8117 55.145C63.679 56.2776 62.1434 56.9147 60.5417 56.9167H56.9167V60.6142C56.9147 61.2576 56.6582 61.8741 56.2032 62.329C55.748 62.7839 55.1314 63.0401 54.4879 63.0417Z" fill="#F48120"/>
<path d="M25.512 56.9988C25.175 56.9982 24.8418 56.9279 24.5333 56.7922C24.0999 56.6071 23.731 56.298 23.4729 55.9036C23.2149 55.5093 23.0793 55.0474 23.0833 54.5761V50.875H19.4583C17.8565 50.8731 16.3209 50.2359 15.1883 49.1033C14.0557 47.9706 13.4185 46.4351 13.4166 44.8333V24.2917C13.4185 22.6899 14.0557 21.1543 15.1883 20.0217C16.3209 18.8891 17.8565 18.2519 19.4583 18.25H53.2916C54.8934 18.2519 56.4289 18.8891 57.5616 20.0217C58.6942 21.1543 59.3314 22.6899 59.3333 24.2917V44.8333C59.3314 46.4351 58.6942 47.9706 57.5616 49.1033C56.4289 50.2359 54.8934 50.8731 53.2916 50.875H33.0375L27.1445 56.3475C26.703 56.7643 26.1192 56.9971 25.512 56.9988ZM19.4583 20.6667C18.4969 20.6667 17.5749 21.0486 16.895 21.7284C16.2152 22.4082 15.8333 23.3303 15.8333 24.2917V44.8333C15.8333 45.7947 16.2152 46.7168 16.895 47.3966C17.5749 48.0764 18.4969 48.4583 19.4583 48.4583H24.2916C24.6121 48.4583 24.9195 48.5857 25.146 48.8123C25.3726 49.0388 25.5 49.3462 25.5 49.6667V54.5761L31.741 48.7761C31.9654 48.5702 32.2594 48.4568 32.5639 48.4583H53.2916C54.253 48.4583 55.1751 48.0764 55.8549 47.3966C56.5347 46.7168 56.9166 45.7947 56.9166 44.8333V24.2917C56.9166 23.3303 56.5347 22.4082 55.8549 21.7284C55.1751 21.0486 54.253 20.6667 53.2916 20.6667H19.4583Z" fill="#F48120"/>
<path d="M47.25 38.7917C46.4136 38.7917 45.5959 38.5436 44.9004 38.0789C44.2049 37.6143 43.6629 36.9537 43.3428 36.181C43.0227 35.4082 42.9389 34.5578 43.1022 33.7375C43.2653 32.9171 43.668 32.1635 44.2595 31.572C44.851 30.9805 45.6046 30.5778 46.425 30.4147C47.2453 30.2514 48.0957 30.3352 48.8685 30.6553C49.6412 30.9754 50.3018 31.5174 50.7664 32.2129C51.2311 32.9084 51.4792 33.7261 51.4792 34.5625C51.4792 35.6842 51.0337 36.7599 50.2405 37.553C49.4474 38.3462 48.3717 38.7917 47.25 38.7917ZM47.25 32.75C46.8915 32.75 46.5411 32.8564 46.243 33.0555C45.945 33.2546 45.7127 33.5377 45.5755 33.8689C45.4384 34.2002 45.4024 34.5646 45.4723 34.9161C45.5423 35.2677 45.715 35.5907 45.9684 35.8442C46.2219 36.0976 46.5448 36.2703 46.8965 36.3402C47.248 36.4102 47.6124 36.3743 47.9436 36.237C48.2748 36.0999 48.5579 35.8675 48.7571 35.5696C48.9562 35.2715 49.0625 34.921 49.0625 34.5625C49.0625 34.0819 48.8716 33.6208 48.5317 33.2809C48.1918 32.9409 47.7307 32.75 47.25 32.75Z" fill="#F48120"/>
<path d="M36.375 38.7917C35.5386 38.7917 34.7209 38.5436 34.0254 38.0789C33.3299 37.6143 32.7879 36.9537 32.4678 36.181C32.1477 35.4082 32.0639 34.5578 32.2272 33.7375C32.3903 32.9171 32.793 32.1635 33.3845 31.572C33.976 30.9805 34.7296 30.5778 35.55 30.4147C36.3703 30.2514 37.2207 30.3352 37.9935 30.6553C38.7662 30.9754 39.4268 31.5174 39.8914 32.2129C40.3561 32.9084 40.6042 33.7261 40.6042 34.5625C40.6042 35.6842 40.1587 36.7599 39.3655 37.553C38.5724 38.3462 37.4967 38.7917 36.375 38.7917ZM36.375 32.75C36.0165 32.75 35.6661 32.8564 35.368 33.0555C35.07 33.2546 34.8377 33.5377 34.7005 33.8689C34.5634 34.2002 34.5274 34.5646 34.5973 34.9161C34.6673 35.2677 34.84 35.5907 35.0934 35.8442C35.3469 36.0976 35.6698 36.2703 36.0215 36.3402C36.373 36.4102 36.7374 36.3743 37.0686 36.237C37.3998 36.0999 37.6829 35.8675 37.8821 35.5696C38.0812 35.2715 38.1875 34.921 38.1875 34.5625C38.1875 34.0819 37.9966 33.6208 37.6567 33.2809C37.3168 32.9409 36.8557 32.75 36.375 32.75Z" fill="#F48120"/>
<path d="M25.5 38.7917C24.6636 38.7917 23.846 38.5436 23.1504 38.0789C22.455 37.6143 21.9129 36.9537 21.5928 36.181C21.2727 35.4082 21.189 34.5578 21.3521 33.7375C21.5153 32.9171 21.9181 32.1635 22.5096 31.572C23.101 30.9805 23.8547 30.5778 24.675 30.4147C25.4953 30.2514 26.3458 30.3352 27.1185 30.6553C27.8912 30.9754 28.5518 31.5174 29.0164 32.2129C29.4811 32.9084 29.7292 33.7261 29.7292 34.5625C29.7292 35.6842 29.2837 36.7599 28.4905 37.553C27.6974 38.3462 26.6217 38.7917 25.5 38.7917ZM25.5 32.75C25.1415 32.75 24.7911 32.8564 24.493 33.0555C24.195 33.2546 23.9627 33.5377 23.8255 33.8689C23.6884 34.2002 23.6524 34.5646 23.7223 34.9161C23.7923 35.2677 23.965 35.5907 24.2184 35.8442C24.4719 36.0976 24.7949 36.2703 25.1465 36.3402C25.498 36.4102 25.8624 36.3743 26.1936 36.237C26.5248 36.0999 26.8079 35.8675 27.0071 35.5696C27.2062 35.2715 27.3125 34.921 27.3125 34.5625C27.3125 34.0819 27.1216 33.6208 26.7817 33.2809C26.4418 32.9409 25.9807 32.75 25.5 32.75Z" fill="#F48120"/>
</svg>
