<svg xmlns="http://www.w3.org/2000/svg" xmlns:xlink="http://www.w3.org/1999/xlink" width="261" height="70" viewBox="0 0 261 70">
  <defs>
    <clipPath id="clip-path">
      <rect id="Rectangle_3630" data-name="Rectangle 3630" width="261" height="70" transform="translate(5010 1896)" fill="none" stroke="#707070" stroke-width="1"/>
    </clipPath>
    <clipPath id="clip-path-2">
      <rect id="Rectangle_3625" data-name="Rectangle 3625" width="230.523" height="52.703" fill="none"/>
    </clipPath>
  </defs>
  <g id="Mask_Group_8056" data-name="Mask Group 8056" transform="translate(-5010 -1896)" clip-path="url(#clip-path)">
    <g id="Group_8362" data-name="Group 8362" transform="translate(5025 1905)">
      <g id="Group_8361" data-name="Group 8361" clip-path="url(#clip-path-2)">
        <path id="Path_9562" data-name="Path 9562" d="M273.688,53.313V44.87a.335.335,0,0,0-.362-.36h-2.784V41.217h2.784a.335.335,0,0,0,.362-.36V35.57h3.954v5.287a.335.335,0,0,0,.362.36h3.9V44.51H278a.335.335,0,0,0-.362.36v7.474c0,3.515,1.253,3.82,2.868,3.82.585,0,1.476-.083,1.977-.138v3.432a23.629,23.629,0,0,1-3.007.221c-1.531-.083-5.792-.083-5.792-6.366m107.618,2.048,3.23-1.688a4.189,4.189,0,0,0,3.731,2.8c1.253,0,2.645-.526,2.645-2.048,0-1.024-.668-1.605-2.2-2.131l-2.2-.72c-3.091-.941-4.622-2.713-4.622-5.2,0-3.156,2.645-5.508,6.237-5.508a7.055,7.055,0,0,1,6.46,3.958l-3.23,1.772a3.657,3.657,0,0,0-3.286-2.408c-1.392,0-2.339.72-2.339,1.827,0,.941.724,1.688,2.2,2.131l2.2.72c3.23,1.024,4.761,2.8,4.761,5.2,0,3.82-3.286,5.785-6.6,5.785-3.313-.083-5.959-1.772-6.989-4.484m-12.168-3.294c-.084.083-.139.138-.139.221v7.031h-4.037V33.3H369V47.528c0,.138.084.3.223.3a.287.287,0,0,0,.362-.083l6.516-6.588H381l-7.6,7.667a.287.287,0,0,0,0,.443l8.27,10.048h-4.9L370.391,51.4c-.084-.083-.139-.138-.223-.138a.255.255,0,0,0-.223.083Zm-6.154-8.442-2.562,2.408a7.281,7.281,0,0,0-4.539-1.605,5.868,5.868,0,1,0,0,11.736,8.332,8.332,0,0,0,4.622-1.605l2.283,2.408c-3.286,2.408-5.068,2.851-7.323,2.851a9.5,9.5,0,0,1-6.878-2.713,9.6,9.6,0,0,1-2.645-6.809,9.254,9.254,0,0,1,9.606-9.522,10.623,10.623,0,0,1,7.434,2.851m-18.906-7.834a2.417,2.417,0,0,1-2.422,2.408,2.454,2.454,0,0,1-2.422-2.408,2.422,2.422,0,0,1,4.845,0m-.39,23.528h-4.037v-18.1h4.037ZM330.88,51.4v8h-4.037V41.3H330.8v2.187a.4.4,0,0,0,.223.36.256.256,0,0,0,.362-.138,5.878,5.878,0,0,1,4.984-2.8,1.507,1.507,0,0,1,.668.083v4.1a3.157,3.157,0,0,0-.947-.083c-3.23-.055-5.207,2.436-5.207,6.394M309.245,50.3a5.71,5.71,0,1,1,5.708,5.868,5.725,5.725,0,0,1-5.708-5.868m.362,6.892h.139a.754.754,0,0,1,.306.138,7.508,7.508,0,0,0,5.792,2.491c4.984,0,8.8-4.18,8.8-9.522a9.9,9.9,0,0,0-2.562-6.809,8.45,8.45,0,0,0-6.293-2.713A7.432,7.432,0,0,0,310,43.4a.339.339,0,0,1-.362.083c-.139-.083-.223-.138-.223-.3V33.355h-4.037V59.375h4.037V57.548c-.028-.221.056-.277.195-.36M292.9,56.164a5.87,5.87,0,1,1,5.708-5.868,5.76,5.76,0,0,1-5.708,5.868m9.467,3.156v-18.1h-3.954v1.827c0,.138-.084.3-.223.3a.287.287,0,0,1-.362-.083,7.265,7.265,0,0,0-5.792-2.491c-4.984,0-8.8,4.18-8.8,9.522s3.9,9.522,8.8,9.522a7.432,7.432,0,0,0,5.792-2.63.266.266,0,0,1,.362-.083c.139.083.223.138.223.3V59.4h3.954Zm-43.409-3.156a5.87,5.87,0,1,1,5.708-5.868,5.76,5.76,0,0,1-5.708,5.868m9.467,3.156v-18.1h-3.954v1.827c0,.138-.084.3-.223.3a.287.287,0,0,1-.362-.083,7.265,7.265,0,0,0-5.792-2.491c-4.984,0-8.8,4.18-8.8,9.522s3.9,9.522,8.8,9.522a7.432,7.432,0,0,0,5.792-2.63.266.266,0,0,1,.362-.083c.139.083.223.138.223.3V59.4h3.954Zm-30.879-3.156a5.87,5.87,0,1,1,5.708-5.868,5.708,5.708,0,0,1-5.708,5.868m9.467,3.156V33.355h-4.037V43.1c0,.138-.084.3-.223.3a.287.287,0,0,1-.362-.083,7.508,7.508,0,0,0-5.792-2.491c-4.984,0-8.8,4.18-8.8,9.522a9.9,9.9,0,0,0,2.562,6.809,8.45,8.45,0,0,0,6.293,2.713,7.432,7.432,0,0,0,5.792-2.63.339.339,0,0,1,.362-.083c.139.083.223.138.223.3v1.91h3.954v-.055Z" transform="translate(-164.371 -24.082)"/>
        <path id="Path_9563" data-name="Path 9563" d="M46.194,21.7,24.336,34.019,1.114,20.9.028,21.48V31L24.364,44.787,46.222,32.469v5.065L24.364,49.852,1.114,36.732l-1.086.581v1.605L24.364,52.7l24.42-13.785V29.4L47.7,28.815,24.336,41.936,2.562,29.618V24.635L24.336,36.87l24.42-13.785V13.7L47.5,13.037,24.336,26.075,3.731,14.421l20.6-11.57,17.013,9.522,1.531-.8V10.408L24.336,0,0,13.729V15.2L24.336,28.981,46.194,16.663Z" fill="#ff3621"/>
      </g>
    </g>
  </g>
</svg>
