<svg xmlns="http://www.w3.org/2000/svg" xmlns:xlink="http://www.w3.org/1999/xlink" width="150" height="70" viewBox="0 0 150 70">
  <defs>
    <clipPath id="clip-path">
      <rect id="Rectangle_3628" data-name="Rectangle 3628" width="150" height="70" transform="translate(4576 1896)" fill="none" stroke="#707070" stroke-width="1"/>
    </clipPath>
  </defs>
  <g id="Mask_Group_8058" data-name="Mask Group 8058" transform="translate(-4576 -1896)" clip-path="url(#clip-path)">
    <g id="Apache_Spark_logo" transform="translate(4592 1901)">
      <path id="Path_9549" data-name="Path 9549" d="M293.513,30.8c-.1-.217-.147-.326-.2-.431-1.469-2.795-2.934-5.589-4.418-8.384a.516.516,0,0,1,.074-.687c2.338-2.73,4.645-5.476,6.986-8.195a.722.722,0,0,0,.187-.369c-.68.177-1.36.352-2.043.532-2.821.748-5.665,1.492-8.459,2.251a.39.39,0,0,1-.514-.224c-1.6-2.677-3.214-5.362-4.834-8.006a1.083,1.083,0,0,0-.35-.389c-.13.714-.261,1.424-.389,2.137-.449,2.519-.9,5.023-1.344,7.553-.049.272-.115.544-.139.816s-.156.356-.393.431q-4.991,1.569-9.97,3.153a1.111,1.111,0,0,0-.446.248c2.719,1.08,5.438,2.16,8.195,3.259-.1.08-.167.142-.241.189q-2.549,1.648-5.1,3.3a.542.542,0,0,1-.593.049c-2.032-.914-4.078-1.813-6.118-2.719a6.239,6.239,0,0,1-2.372-1.733,3.161,3.161,0,0,1,.767-5.023,9.076,9.076,0,0,1,2.062-.937c3.259-1.061,6.533-2.085,9.781-3.112A.562.562,0,0,0,274.1,14c.438-2.523.887-5.06,1.344-7.553a13.188,13.188,0,0,1,1.027-3.965,6.418,6.418,0,0,1,.914-1.337,2.921,2.921,0,0,1,4.494-.124,8.425,8.425,0,0,1,1.2,1.571c1.511,2.466,3,4.947,4.494,7.439a.489.489,0,0,0,.657.267q5.466-1.467,10.952-2.9a5.153,5.153,0,0,1,2.289-.127,2.252,2.252,0,0,1,1.847,3.221,6.231,6.231,0,0,1-1.208,1.956c-2.545,2.995-5.1,6-7.628,8.988a.526.526,0,0,0-.068.695c1.526,2.874,3.036,5.74,4.569,8.648a4.791,4.791,0,0,1,.65,2.194,3.543,3.543,0,0,1-3.085,3.535,6.426,6.426,0,0,1-2.87-.357c-2.285-.706-4.569-1.4-6.873-2.092a.394.394,0,0,1-.332-.376c-.263-1.613-.551-3.221-.831-4.834a1.072,1.072,0,0,1,.014-.19c2.609.721,5.211,1.431,7.893,2.175" transform="translate(-186.278 -0.032)" fill="#e25a1c" fill-rule="evenodd"/>
      <path id="Path_9550" data-name="Path 9550" d="M307.9,117.907c-2.062,0-4.116-.013-6.193,0a.6.6,0,0,1-.578-.31c-2.44-3.716-4.909-7.439-7.326-11.14-.078-.118-.161-.231-.3-.43-.525,4-1.042,7.93-1.56,11.858h-5.4c.063-.525.12-1.035.186-1.541.525-4.041,1.057-8.044,1.586-12.084q.759-5.778,1.522-11.556a.5.5,0,0,1,.184-.32q2.787-1.818,5.589-3.614a.878.878,0,0,1,.161-.047c-.563,4.305-1.122,8.572-1.684,12.84l.066.046c2.927-3.24,5.853-6.5,8.837-9.781.086.5.161.925.234,1.352.21,1.22.412,2.447.634,3.667a.582.582,0,0,1-.184.57q-2.838,2.968-5.665,5.967c-.083.087-.161.177-.255.281.06.1.112.189.173.274q4.877,6.854,9.743,13.708a2,2,0,0,0,.217.221v.072" transform="translate(-205.198 -63.536)" fill="#3c3a3e" fill-rule="evenodd"/>
      <path id="Path_9551" data-name="Path 9551" d="M86.077,123.008a12.722,12.722,0,0,0-.329-1.616,5.587,5.587,0,0,0-6.722-3.629,7.446,7.446,0,0,0-5.891,6.646,5.369,5.369,0,0,0,3.527,5.7,6.4,6.4,0,0,0,5.665-.646,7.48,7.48,0,0,0,3.776-6.458ZM71.8,133.393c-.159,1.2-.313,2.33-.461,3.463-.2,1.5-.4,3.01-.585,4.532-.022.176-.075.254-.264.252-1.484-.006-2.968,0-4.456-.007a.717.717,0,0,1-.148-.041c.09-.71.177-1.424.27-2.134q.491-3.739.986-7.477c.381-2.855.68-5.7,1.167-8.535a13.422,13.422,0,0,1,10.121-10.423,10.456,10.456,0,0,1,8.195,1.3,9.207,9.207,0,0,1,4.305,6.949,12.341,12.341,0,0,1-4.041,10.574,12.633,12.633,0,0,1-6.986,3.5,10.329,10.329,0,0,1-7.742-1.684c-.086-.06-.179-.113-.326-.206" transform="translate(-47.194 -80.721)" fill="#3c3a3e" fill-rule="evenodd"/>
      <path id="Path_9552" data-name="Path 9552" d="M22.166,90.078C20.5,91.317,18.9,92.51,17.294,93.707c-.259-.408-.491-.816-.763-1.2A3.745,3.745,0,0,0,13.7,90.716a3.158,3.158,0,0,0-2.662,1.046,1.865,1.865,0,0,0-.125,2.458c.657.861,1.375,1.677,2.111,2.474,1.22,1.322,2.492,2.591,3.7,3.927a8.261,8.261,0,0,1,2.251,4.23,8.578,8.578,0,0,1-1,5.551,10.51,10.51,0,0,1-8.006,5.627,10.464,10.464,0,0,1-4.683-.248,6.929,6.929,0,0,1-4.381-3.814c-.323-.668-.57-1.375-.861-2.092,1.786-.955,3.527-1.888,5.287-2.829.06.146.1.269.161.385a16.487,16.487,0,0,0,.918,1.794,3.576,3.576,0,0,0,4.683,1.329,5.179,5.179,0,0,0,1.3-.842,2.756,2.756,0,0,0,.521-3.776,18.091,18.091,0,0,0-1.718-2.088c-1.443-1.6-2.946-3.153-4.343-4.8a7.588,7.588,0,0,1-1.843-3.927,6.717,6.717,0,0,1,.955-4.569,9.992,9.992,0,0,1,9.29-5.1,7.315,7.315,0,0,1,5.627,2.987c.427.536.827,1.091,1.261,1.673" transform="translate(-0.051 -61.198)" fill="#3c3a3e" fill-rule="evenodd"/>
      <path id="Path_9553" data-name="Path 9553" d="M176.432,127.555c-.272,2.073-.529,4.041-.793,6a.4.4,0,0,1-.177.275c-4.041,1.866-9.328,1.6-12.613-2.149a9.718,9.718,0,0,1-2.409-7.062,13.347,13.347,0,0,1,11.48-12.311,9.791,9.791,0,0,1,9.1,3.3,9.207,9.207,0,0,1,2.3,6.646c-.074,1.646-.332,3.282-.536,4.909-.291,2.319-.608,4.645-.914,6.949-.012.081-.028.164-.047.268h-4.8c.063-.532.122-1.054.19-1.575.348-2.677.733-5.362,1.038-8.044a8.555,8.555,0,0,0-.695-4.872,4.705,4.705,0,0,0-3.965-2.7,7.474,7.474,0,0,0-8.006,5.816,5.6,5.6,0,0,0,2.221,6,6.05,6.05,0,0,0,5.891.442,7.716,7.716,0,0,0,2.749-1.93" transform="translate(-114.891 -80.359)" fill="#3c3a3e" fill-rule="evenodd"/>
      <path id="Path_9554" data-name="Path 9554" d="M256.983,114.641c-.22,1.669-.438,3.312-.657,4.985-1.02,0-2.017-.006-3.014,0a1.9,1.9,0,0,0-1.79,1.284,5.369,5.369,0,0,0-.171.921c-.506,3.852-1.008,7.666-1.511,11.48-.127.967-.249,1.933-.376,2.915h-5.023c.093-.736.181-1.45.274-2.164.326-2.485.653-4.985.982-7.44.285-2.149.54-4.305.876-6.458a6.954,6.954,0,0,1,6.193-5.551c1.382-.06,2.768-.01,4.192-.01" transform="translate(-175.05 -82.06)" fill="#3c3a3e" fill-rule="evenodd"/>
      <path id="Path_9555" data-name="Path 9555" d="M370.716,185.13v-2.115H370.7l-.831,2.115h-.264l-.831-2.115h-.013v2.115h-.415V182.6H369l.755,1.926.744-1.926h.642v2.534Zm-3.678-2.194v2.194h-.415v-2.194h-.793V182.6h2.005v.339h-.793" transform="translate(-261.971 -130.759)" fill="#3c3a3e"/>
      <path id="Path_9556" data-name="Path 9556" d="M94.546,80.319h1.242l-.294-1.881Zm1.439,1.216H93.919l-.657,1.288H91.8l3.229-6.042h1.412l1.1,6.042H96.181l-.195-1.288" transform="translate(-65.746 -54.989)" fill="#3c3a3e"/>
      <path id="Path_9557" data-name="Path 9557" d="M125.4,78.035h-.736l-.248,1.393h.736a.768.768,0,0,0,.8-.842.5.5,0,0,0-.551-.551Zm-1.782-1.216h1.934a1.57,1.57,0,0,1,1.718,1.639,2.1,2.1,0,0,1-2.236,2.183H124.2l-.393,2.209h-1.261l1.065-6.042" transform="translate(-87.765 -55.008)" fill="#3c3a3e"/>
      <path id="Path_9558" data-name="Path 9558" d="M147.337,80.319h1.242l-.293-1.881Zm1.435,1.216h-2.066l-.657,1.288h-1.465l3.229-6.042h1.412l1.1,6.042h-1.356l-.195-1.288" transform="translate(-103.546 -54.989)" fill="#3c3a3e"/>
      <path id="Path_9559" data-name="Path 9559" d="M177.53,82.436a3.313,3.313,0,0,1-1.367.311,2.544,2.544,0,0,1-2.6-2.7A3.572,3.572,0,0,1,177.1,76.52a2.639,2.639,0,0,1,1.269.31l-.177,1.446a1.63,1.63,0,0,0-1.224-.5,2.166,2.166,0,0,0-2.077,2.145,1.437,1.437,0,0,0,1.42,1.563A2.277,2.277,0,0,0,177.7,81l-.168,1.435" transform="translate(-124.297 -54.802)" fill="#3c3a3e"/>
      <path id="Path_9560" data-name="Path 9560" d="M204.594,80.395h-2.625l-.427,2.428h-1.258l1.065-6.042h1.261l-.423,2.387h2.625l.427-2.387H206.5l-1.065,6.042h-1.261l.423-2.428" transform="translate(-143.43 -54.989)" fill="#3c3a3e"/>
      <path id="Path_9561" data-name="Path 9561" d="M231.42,82.783l1.065-6.042h3.346l-.213,1.216h-2.085l-.213,1.171h1.915l-.213,1.216h-1.915L232.9,81.56h2.085l-.213,1.216h-3.346" transform="translate(-165.725 -54.96)" fill="#3c3a3e"/>
    </g>
  </g>
</svg>
