<svg xmlns="http://www.w3.org/2000/svg" xmlns:xlink="http://www.w3.org/1999/xlink" width="226" height="70" viewBox="0 0 226 70">
  <defs>
    <clipPath id="clip-path">
      <rect id="Rectangle_3631" data-name="Rectangle 3631" width="226" height="70" transform="translate(4422 1989)" fill="none" stroke="#707070" stroke-width="1"/>
    </clipPath>
    <clipPath id="clip-path-2">
      <rect id="Rectangle_3626" data-name="Rectangle 3626" width="42.14" height="41.892" fill="#fff"/>
    </clipPath>
    <linearGradient id="linear-gradient" x1="-0.167" x2="1.152" y2="0.932" gradientUnits="objectBoundingBox">
      <stop offset="0" stop-color="#e6ad10"/>
      <stop offset="1" stop-color="#c87e0e"/>
    </linearGradient>
    <linearGradient id="linear-gradient-2" x2="1.109" y2="0.956" gradientUnits="objectBoundingBox">
      <stop offset="0" stop-color="#f6d751"/>
      <stop offset="1" stop-color="#e6ad10"/>
    </linearGradient>
    <linearGradient id="linear-gradient-3" x2="0.613" y2="0.968" gradientUnits="objectBoundingBox">
      <stop offset="0" stop-color="#f9e589"/>
      <stop offset="1" stop-color="#f6d751"/>
    </linearGradient>
  </defs>
  <g id="Mask_Group_8054" data-name="Mask Group 8054" transform="translate(-4422 -1989)" clip-path="url(#clip-path)">
    <g id="Group_8367" data-name="Group 8367" transform="translate(4438 2003)">
      <g id="Power_BI_logo" transform="translate(0 0)" clip-path="url(#clip-path-2)">
        <g id="Group_8366" data-name="Group 8366" transform="translate(5.573 0.175)">
          <path id="Path_9564" data-name="Path 9564" d="M65.906,0V41.474H52V0Z" transform="translate(-34.617)" fill="url(#linear-gradient)"/>
          <g id="Group_8364" data-name="Group 8364" transform="translate(8.692 10.541)">
            <path id="Path_9565" data-name="Path 9565" d="M45.906,26.128V55.505H32V24.4H44.168A1.733,1.733,0,0,1,45.906,26.128Z" transform="translate(-32 -24.4)" fill="rgba(0,0,0,0.2)"/>
          </g>
          <g id="Group_8365" data-name="Group 8365" transform="translate(8.692 11.232)">
            <path id="Path_9566" data-name="Path 9566" d="M45.906,27.728V57.105H32V26H44.168A1.733,1.733,0,0,1,45.906,27.728Z" transform="translate(-32 -26)" fill="rgba(0,0,0,0.18)"/>
          </g>
          <path id="Path_9567" data-name="Path 9567" d="M45.906,25.728V55.105H32V24H44.168A1.733,1.733,0,0,1,45.906,25.728Z" transform="translate(-23.308 -13.632)" fill="url(#linear-gradient-2)"/>
          <path id="Path_9568" data-name="Path 9568" d="M12,48V68.737H25.906V49.728A1.733,1.733,0,0,0,24.168,48Z" transform="translate(-12 -27.263)" fill="url(#linear-gradient-3)"/>
        </g>
      </g>
      <path id="Path_9569" data-name="Path 9569" d="M6.246-55.834h9.718a20.6,20.6,0,0,1,5.356.592,5.768,5.768,0,0,1,3.42,2.561A8,8,0,0,1,26-48.275,7.213,7.213,0,0,1,23.5-42.323q-2.505,2.031-7.249,2.031H9.693v10.35H6.246ZM9.693-43.365h6.591q3.322,0,4.735-1.236a4.487,4.487,0,0,0,1.412-3.568,4.937,4.937,0,0,0-.782-2.755,3.377,3.377,0,0,0-1.981-1.519,14.3,14.3,0,0,0-3.455-.318H9.693Zm28.017-5.74a8.419,8.419,0,0,1,6.44,2.561q2.407,2.561,2.407,7.241,0,4.663-2.407,7.232a8.4,8.4,0,0,1-6.44,2.57,8.382,8.382,0,0,1-6.422-2.57Q28.88-34.64,28.88-39.3q0-4.68,2.407-7.241A8.4,8.4,0,0,1,37.71-49.105Zm0,16.99a4.8,4.8,0,0,0,3.891-1.81A8.3,8.3,0,0,0,43.093-39.3,8.33,8.33,0,0,0,41.6-44.7a4.8,4.8,0,0,0-3.891-1.81,4.8,4.8,0,0,0-3.891,1.81,8.33,8.33,0,0,0-1.492,5.4,8.3,8.3,0,0,0,1.492,5.378A4.8,4.8,0,0,0,37.71-32.115ZM73.917-48.681,68.25-29.942h-3.2L60.966-43.718,56.9-29.942H53.7L48.014-48.681h3.713l3.464,14.288,4.246-14.288h3.056l4.264,14.288,3.464-14.288ZM84.594-29.5a8.906,8.906,0,0,1-6.68-2.587A9.9,9.9,0,0,1,75.392-39.3a10.106,10.106,0,0,1,2.443-7.2,8.352,8.352,0,0,1,6.387-2.605,8.419,8.419,0,0,1,6.44,2.561q2.407,2.561,2.407,7.241v.795h-14.2a7.218,7.218,0,0,0,1.8,4.822,5.355,5.355,0,0,0,3.917,1.572,5.815,5.815,0,0,0,3.171-.892,3,3,0,0,0,1.483-2.534h3.464a6.207,6.207,0,0,1-2.638,4.468A9.323,9.323,0,0,1,84.594-29.5Zm4.939-11.621a6.775,6.775,0,0,0-1.83-4.044,4.882,4.882,0,0,0-3.482-1.342,4.894,4.894,0,0,0-3.447,1.333,6.618,6.618,0,0,0-1.83,4.053Zm17.073-4.521a7.546,7.546,0,0,0-2.043-.212,5.27,5.27,0,0,0-4.388,2.667v13.246H96.817V-48.681h3.358v2.614q2.114-3.038,4.9-3.038a9,9,0,0,1,1.528.141Zm31.908,8.177a6.662,6.662,0,0,1-2.487,5.581q-2.487,1.943-7.231,1.943h-9.754V-55.834h9.274a10.761,10.761,0,0,1,6.538,1.766,5.7,5.7,0,0,1,2.381,4.839,5.861,5.861,0,0,1-3.749,5.546,6.431,6.431,0,0,1,3.775,2.34A6.379,6.379,0,0,1,138.514-37.466ZM122.489-44.99h5.792a7.668,7.668,0,0,0,4.211-.91,3.382,3.382,0,0,0,1.35-3.029,3.328,3.328,0,0,0-1.315-2.87q-1.315-.963-4.566-.963h-5.472Zm0,11.974h6.271q6.183,0,6.183-4.451a3.945,3.945,0,0,0-1.43-3.382q-1.43-1.069-5.2-1.069h-5.827ZM147.2-29.942h-3.464V-55.834H147.2Z" transform="translate(47.237 63.785)"/>
    </g>
  </g>
</svg>
