<svg xmlns="http://www.w3.org/2000/svg" width="370" height="185" viewBox="0 0 370 185">
  <g id="Group_8359" data-name="Group 8359" transform="translate(-1175 -4275)">
    <rect id="Rectangle_3622" data-name="Rectangle 3622" width="370" height="185" transform="translate(1175 4275)" fill="#232323"/>
    <g id="undraw_charts_re_5qe9" transform="translate(1001.09 4308)">
      <path id="Path_9492" data-name="Path 9492" d="M657.78,184.28H487.9a2.445,2.445,0,0,0-2.442,2.442V301.838a2.445,2.445,0,0,0,2.442,2.442H657.78a2.445,2.445,0,0,0,2.442-2.442V186.722A2.445,2.445,0,0,0,657.78,184.28Zm1.744,117.558a1.745,1.745,0,0,1-1.744,1.744H487.9a1.745,1.745,0,0,1-1.744-1.744V186.722a1.745,1.745,0,0,1,1.744-1.744H657.78a1.745,1.745,0,0,1,1.744,1.744Z" transform="translate(-213.545 -184.28)" fill="#fff"/>
      <rect id="Rectangle_3586" data-name="Rectangle 3586" width="174.07" height="0.698" transform="translate(272.258 9.782)" fill="#fff"/>
      <circle id="Ellipse_107" data-name="Ellipse 107" cx="2.093" cy="2.093" r="2.093" transform="translate(276.095 3.14)" fill="#fff"/>
      <circle id="Ellipse_108" data-name="Ellipse 108" cx="2.093" cy="2.093" r="2.093" transform="translate(282.113 3.14)" fill="#fff"/>
      <circle id="Ellipse_109" data-name="Ellipse 109" cx="2.093" cy="2.093" r="2.093" transform="translate(288.13 3.14)" fill="#fff"/>
      <path id="Path_9493" data-name="Path 9493" d="M549.067,249.664h-29.3a2.442,2.442,0,0,1,0-4.884h29.3a2.442,2.442,0,0,1,0,4.884Z" transform="translate(-234.297 -223.675)" fill="#ccc"/>
      <path id="Path_9494" data-name="Path 9494" d="M589.183,283.664H519.765a2.442,2.442,0,0,1,0-4.884h69.419a2.442,2.442,0,0,1,0,4.884Z" transform="translate(-234.297 -245.814)" fill="#ccc"/>
      <path id="Path_9495" data-name="Path 9495" d="M777.153,306.3A31.745,31.745,0,0,0,803.331,356V328.293Z" transform="translate(-399.864 -263.736)" fill="#f48102"/>
      <path id="Path_9496" data-name="Path 9496" d="M813.721,266.78a31.708,31.708,0,0,0-26.178,13.787l26.178,21.99Z" transform="translate(-410.254 -238)" fill="#ccc"/>
      <path id="Path_9497" data-name="Path 9497" d="M861.936,329.966h-.349V265.78h.349a32.093,32.093,0,1,1,0,64.186Zm.349-63.487v62.787a31.394,31.394,0,1,0,0-62.789Z" transform="translate(-458.469 -237.349)" fill="#fff"/>
      <path id="Path_9498" data-name="Path 9498" d="M568.323,449.512h-5.93a1.572,1.572,0,0,1-1.57-1.57V430.85a1.572,1.572,0,0,1,1.57-1.57h5.93a1.572,1.572,0,0,1,1.57,1.57v17.093A1.572,1.572,0,0,1,568.323,449.512Z" transform="translate(-262.622 -343.814)" fill="#fff"/>
      <path id="Path_9499" data-name="Path 9499" d="M618.323,434.536h-5.93a1.572,1.572,0,0,1-1.57-1.57V407.85a1.571,1.571,0,0,1,1.57-1.57h5.93a1.572,1.572,0,0,1,1.57,1.57v25.116A1.572,1.572,0,0,1,618.323,434.536Z" transform="translate(-295.18 -328.838)" fill="#616161"/>
      <path id="Path_9500" data-name="Path 9500" d="M668.323,421.513h-5.93a1.572,1.572,0,0,1-1.57-1.57V387.85a1.572,1.572,0,0,1,1.57-1.57h5.93a1.572,1.572,0,0,1,1.57,1.57v32.093A1.572,1.572,0,0,1,668.323,421.513Z" transform="translate(-327.738 -315.814)" fill="#f48102"/>
      <path id="Path_9501" data-name="Path 9501" d="M568,409.64h-5.93a1.746,1.746,0,0,1-1.744-1.744V369.524a1.746,1.746,0,0,1,1.744-1.744H568a1.746,1.746,0,0,1,1.744,1.744V407.9A1.746,1.746,0,0,1,568,409.64Zm-5.93-41.163a1.048,1.048,0,0,0-1.047,1.047V407.9a1.048,1.048,0,0,0,1.046,1.047H568a1.048,1.048,0,0,0,1.047-1.047V369.524A1.048,1.048,0,0,0,568,368.478Z" transform="translate(-262.297 -303.768)" fill="#fff"/>
      <path id="Path_9502" data-name="Path 9502" d="M618,409.64h-5.93a1.746,1.746,0,0,1-1.744-1.744V369.524a1.746,1.746,0,0,1,1.744-1.744H618a1.746,1.746,0,0,1,1.744,1.744V407.9A1.746,1.746,0,0,1,618,409.64Zm-5.93-41.163a1.048,1.048,0,0,0-1.047,1.047V407.9a1.048,1.048,0,0,0,1.047,1.047H618a1.048,1.048,0,0,0,1.047-1.047V369.524A1.048,1.048,0,0,0,618,368.478Z" transform="translate(-294.855 -303.768)" fill="#fff"/>
      <path id="Path_9503" data-name="Path 9503" d="M668,409.64h-5.93a1.746,1.746,0,0,1-1.744-1.744V369.524a1.746,1.746,0,0,1,1.744-1.744H668a1.746,1.746,0,0,1,1.744,1.744V407.9A1.746,1.746,0,0,1,668,409.64Zm-5.93-41.163a1.048,1.048,0,0,0-1.047,1.047V407.9a1.048,1.048,0,0,0,1.047,1.047H668a1.048,1.048,0,0,0,1.047-1.047V369.524A1.047,1.047,0,0,0,668,368.478Z" transform="translate(-327.413 -303.768)" fill="#fff"/>
    </g>
  </g>
</svg>
