<svg xmlns="http://www.w3.org/2000/svg" xmlns:xlink="http://www.w3.org/1999/xlink" width="195" height="70" viewBox="0 0 195 70">
  <defs>
    <clipPath id="clip-path">
      <rect id="Rectangle_3627" data-name="Rectangle 3627" width="195" height="70" transform="translate(4344 1896)" fill="#fff" stroke="#707070" stroke-width="1"/>
    </clipPath>
  </defs>
  <g id="Mask_Group_8052" data-name="Mask Group 8052" transform="translate(-4344 -1896)" clip-path="url(#clip-path)">
    <path id="Alteryx_logo" d="M33.192,0a.77.77,0,0,1,.493.116,1.64,1.64,0,0,1,.438.633l.055,28.493.116.444a7.059,7.059,0,0,0,.231.693,5.22,5.22,0,0,0,.3.572,3.164,3.164,0,0,0,.389.493,2.711,2.711,0,0,0,.432.316,3.524,3.524,0,0,0,.547.243,5.112,5.112,0,0,0,.8.158,4.712,4.712,0,0,0,1.058.006,11.258,11.258,0,0,0,1.162-.189c.328-.073.815-.207,1.089-.286a1.543,1.543,0,0,1,.724-.122,1.124,1.124,0,0,1,.408.146,1.234,1.234,0,0,1,.3.292,5.3,5.3,0,0,1,.322.985,11.388,11.388,0,0,1,.237,1.138.72.72,0,0,1-.091.56,1.255,1.255,0,0,1-.353.389,4.734,4.734,0,0,1-.955.408c-.4.134-.919.286-1.162.347s-.718.158-1.058.213a12.473,12.473,0,0,1-1.655.14,13.819,13.819,0,0,1-1.545-.037c-.286-.03-.742-.1-1.01-.164a9.888,9.888,0,0,1-1.034-.286,7.968,7.968,0,0,1-.955-.389,6.151,6.151,0,0,1-.724-.432A4.918,4.918,0,0,1,31.1,34.3a6.69,6.69,0,0,1-.541-.663c-.109-.17-.286-.5-.4-.724a7.161,7.161,0,0,1-.316-.852c-.073-.243-.164-.663-.213-.931s-.1-.821-.134-1.217c-.03-.468-.055-5.463-.055-14.107,0-11.375.012-13.4.073-13.523a3.191,3.191,0,0,1,.426-.481,8.987,8.987,0,0,1,.742-.627c.213-.158.572-.4.8-.529a9.538,9.538,0,0,1,.9-.438A2.04,2.04,0,0,1,33.192,0Zm18.8,1.636a1.224,1.224,0,0,1,.31.085,1.266,1.266,0,0,1,.249.182,1.117,1.117,0,0,1,.219.4c.061.219.073.931.073,8.766l2.932.012a16.239,16.239,0,0,1,3.115.1,1.257,1.257,0,0,1,.438.438v1.3c0,1.241-.006,1.308-.109,1.448a1.612,1.612,0,0,1-.249.249c-.134.1-.231.1-3.133.116-2.81.012-2.993.018-2.993.1,0,.049-.037,3.127-.073,6.837-.055,4.7-.061,6.9-.024,7.263.03.286.085.669.128.858a5.714,5.714,0,0,0,.189.62,3.765,3.765,0,0,0,.274.541,3.235,3.235,0,0,0,.432.5,2.805,2.805,0,0,0,.59.4,4,4,0,0,0,.706.237,5.843,5.843,0,0,0,.931.079,7.628,7.628,0,0,0,1.217-.116c.365-.061.979-.2,1.357-.31a5.42,5.42,0,0,1,.876-.2,1.233,1.233,0,0,1,.4.091,1.146,1.146,0,0,1,.341.274,1.542,1.542,0,0,1,.219.408c.043.128.134.468.207.748s.158.675.182.87a1.3,1.3,0,0,1,.006.554,1.129,1.129,0,0,1-.2.377,1.874,1.874,0,0,1-.45.328,7.014,7.014,0,0,1-.925.371c-.341.116-.888.268-1.217.341s-.906.17-1.29.219a11.322,11.322,0,0,1-1.807.055,11.335,11.335,0,0,1-1.576-.109c-.255-.049-.687-.146-.955-.219s-.687-.213-.931-.31a8.41,8.41,0,0,1-.846-.42,5.805,5.805,0,0,1-.773-.578,5.689,5.689,0,0,1-.6-.651,6.491,6.491,0,0,1-.456-.724,6.4,6.4,0,0,1-.353-.8,8.676,8.676,0,0,1-.231-.858c-.055-.255-.122-.651-.158-.876s-.067-1.138-.085-2.02c-.018-.943.018-3.893.079-7.16.061-3.06.116-5.8.14-6.618H46.623c-1.509,0-1.557-.006-1.782-.116a.85.85,0,0,1-.335-.3c-.1-.164-.11-.292-.122-1.32a8.378,8.378,0,0,1,.043-1.369,1.4,1.4,0,0,1,.17-.383.971.971,0,0,1,.322-.249c.182-.079.377-.091,3.3-.091L48.26,9.94c.024-.59.055-1.977.067-3.09s.043-2.257.085-3.1l.426-.42a7.1,7.1,0,0,1,.912-.736,8.373,8.373,0,0,1,.931-.535c.237-.116.59-.262.773-.328A1.021,1.021,0,0,1,51.995,1.636ZM9.456,9.642c.906.012,1.74.055,2.172.1.383.043.973.128,1.314.189s.773.14.955.182.712.182,1.162.3,1.071.3,1.369.408.754.268,1.01.377a5.038,5.038,0,0,1,.773.4,2.064,2.064,0,0,1,.468.444,1.554,1.554,0,0,1,.219.5c.049.2.061,2.5.061,9.1,0,6.113.018,8.924.061,9.137a2.061,2.061,0,0,0,.17.517.829.829,0,0,0,.322.31c.164.091.292.1.766.1a7.521,7.521,0,0,0,1.393-.17,4.382,4.382,0,0,1,1.046-.14,1.569,1.569,0,0,1,.414.134,1.107,1.107,0,0,1,.341.268,1.528,1.528,0,0,1,.225.359c.036.1.152.5.255.9a10.72,10.72,0,0,1,.213,1.065,1.27,1.27,0,0,1-.049.566,1.19,1.19,0,0,1-.335.456,2.955,2.955,0,0,1-.639.408,7.809,7.809,0,0,1-.827.328c-.237.079-.681.189-.979.249s-.785.128-1.083.158a6.2,6.2,0,0,1-1.217.006,9.077,9.077,0,0,1-1.083-.152,6.766,6.766,0,0,1-.773-.237,4.159,4.159,0,0,1-.547-.243c-.1-.061-.316-.219-.481-.347a4.564,4.564,0,0,1-.59-.6,5.194,5.194,0,0,1-.444-.712c-.091-.189-.182-.341-.213-.328a4.917,4.917,0,0,0-.493.347c-.237.182-.645.462-.9.62s-.7.408-.985.547-.748.347-1.034.45a11.265,11.265,0,0,1-1.083.341c-.31.079-.846.182-1.186.231a11.207,11.207,0,0,1-1.576.091c-.529,0-1.168-.03-1.423-.061s-.681-.109-.955-.164a8.516,8.516,0,0,1-.955-.262,8.17,8.17,0,0,1-.979-.42,7.764,7.764,0,0,1-.906-.56,7.02,7.02,0,0,1-.748-.681,6.8,6.8,0,0,1-.645-.852A6.935,6.935,0,0,1,.563,32.4a8.875,8.875,0,0,1-.3-.882,9.717,9.717,0,0,1-.189-.979,10.146,10.146,0,0,1-.061-1.813,8.692,8.692,0,0,1,.14-1.758c.061-.28.182-.718.262-.967a8.065,8.065,0,0,1,.341-.827c.1-.207.3-.535.426-.736a6.873,6.873,0,0,1,.706-.827,6.532,6.532,0,0,1,.906-.76,9.207,9.207,0,0,1,.979-.554c.3-.14.76-.328,1.034-.42s.724-.219,1-.286.748-.158,1.034-.2.724-.1.985-.134,1.138-.073,1.959-.1,2.2-.067,4.623-.128v-6.7l-.4-.207a8.4,8.4,0,0,0-.943-.383c-.3-.1-.827-.237-1.186-.31S11,13.267,10.7,13.237s-1.1-.067-1.782-.067a13.9,13.9,0,0,0-1.861.085c-.341.049-1.083.17-1.655.268a12.951,12.951,0,0,1-1.381.182,1.872,1.872,0,0,1-.517-.067,1.206,1.206,0,0,1-.335-.274,2.868,2.868,0,0,1-.4-.9c-.128-.383-.243-.8-.268-.931a.964.964,0,0,1,.049-.456,1.233,1.233,0,0,1,.3-.4,2.049,2.049,0,0,1,.5-.286,11.423,11.423,0,0,1,1.162-.28c.481-.1,1.217-.225,1.63-.286s.992-.128,1.29-.152S8.647,9.636,9.456,9.642ZM8.27,24.533a10.847,10.847,0,0,0-1.138.219,5.123,5.123,0,0,0-.852.3,3.7,3.7,0,0,0-.645.426,3.2,3.2,0,0,0-.481.554,3.51,3.51,0,0,0-.322.7,7.1,7.1,0,0,0-.213.931,6.928,6.928,0,0,0-.055,1.344A7.168,7.168,0,0,0,4.675,30.2a5.1,5.1,0,0,0,.292.815A2.405,2.405,0,0,0,6.11,32.192a5.541,5.541,0,0,0,.791.286,7.62,7.62,0,0,0,1.028.152,6.909,6.909,0,0,0,1.229,0c.335-.024.846-.1,1.138-.152s.785-.176,1.095-.268.815-.262,1.113-.377.693-.3.876-.389.541-.3.791-.45l.45-.274V24.2c-.62.006-1.9.067-3.254.128S8.623,24.49,8.27,24.533ZM75.488,9.988c.59-.006,1.3.018,1.576.049s.779.116,1.119.182.846.213,1.113.3.663.249.876.347a8,8,0,0,1,.748.4,9.345,9.345,0,0,1,.779.547,8.053,8.053,0,0,1,.748.675,8.815,8.815,0,0,1,.578.669c.128.17.335.468.456.669s.335.6.468.882a9.582,9.582,0,0,1,.4,1c.091.274.213.669.268.882s.14.657.2.979.128.876.164,1.217c.043.414.055,1.277.036,2.61a8.715,8.715,0,0,1-.116,2.2,1.517,1.517,0,0,1-.2.328,1.137,1.137,0,0,1-.255.195c-.122.061-1.271.073-14.685.067l.036,1.18c.018.645.073,1.417.116,1.722s.14.76.207,1.034.2.7.292.955a6.467,6.467,0,0,0,.438.9,5.293,5.293,0,0,0,.572.773,6.113,6.113,0,0,0,.59.56,7.125,7.125,0,0,0,.669.426,8.8,8.8,0,0,0,.931.389,10.456,10.456,0,0,0,1.162.292,9.025,9.025,0,0,0,2.014.116,11.1,11.1,0,0,0,2.093-.1c.383-.061,1.107-.207,1.6-.322s1.265-.28,1.709-.371c.706-.14.827-.152,1.028-.1a1.028,1.028,0,0,1,.474.3,1.123,1.123,0,0,1,.316.529c.049.152.158.572.249.931a7.318,7.318,0,0,1,.189.955.875.875,0,0,1-.049.468,1.613,1.613,0,0,1-.255.328,2.2,2.2,0,0,1-.535.347c-.2.091-.614.262-.931.377a11.228,11.228,0,0,1-1.138.365c-.31.085-.833.2-1.162.262s-.882.14-1.235.182-1.034.1-1.5.122-1.259.024-1.752,0-1.186-.079-1.527-.122-.888-.146-1.217-.219-.833-.213-1.131-.31-.754-.274-1.01-.389-.675-.322-.931-.468a9.911,9.911,0,0,1-.876-.578,10.292,10.292,0,0,1-.9-.773,11.149,11.149,0,0,1-.8-.888,10.26,10.26,0,0,1-.6-.852c-.146-.243-.408-.73-.578-1.083a13.962,13.962,0,0,1-.554-1.4c-.134-.414-.3-1.016-.377-1.344s-.183-.919-.237-1.32-.134-1.071-.164-1.5c-.036-.5-.049-1.357-.03-2.378.012-.967.061-1.886.109-2.305.043-.383.14-1.022.213-1.417s.207-1.028.3-1.4.262-.919.365-1.217.335-.846.511-1.211.438-.87.584-1.113.4-.614.554-.827.438-.554.614-.748a10.252,10.252,0,0,1,.815-.773,9.244,9.244,0,0,1,.9-.681,10.432,10.432,0,0,1,1-.56,11.188,11.188,0,0,1,1.138-.462c.3-.1.785-.225,1.083-.286s.706-.134.906-.158S74.9,9.988,75.488,9.988Zm-1.9,3.765a5.437,5.437,0,0,0-.7.286,5.586,5.586,0,0,0-.7.45,5.4,5.4,0,0,0-.6.566c-.128.152-.316.4-.408.535a7.186,7.186,0,0,0-.4.7,8.98,8.98,0,0,0-.4,1.01,9.9,9.9,0,0,0-.286,1.107c-.061.3-.134.73-.164.961s-.073.706-.091,1.071l-.036.663L80.537,21.1a10.3,10.3,0,0,0,.036-1.6,13.354,13.354,0,0,0-.116-1.813,8.523,8.523,0,0,0-.274-1.058,6.749,6.749,0,0,0-.426-.979,3.8,3.8,0,0,0-.669-.858,4.1,4.1,0,0,0-.827-.657,6.158,6.158,0,0,0-.773-.347,7.6,7.6,0,0,0-.852-.207,8.175,8.175,0,0,0-1.217-.079,8.981,8.981,0,0,0-1.107.073A6,6,0,0,0,73.59,13.754Zm28.122-2.816a8.734,8.734,0,0,1,1.168.079,1.924,1.924,0,0,1,.45.134.661.661,0,0,1,.243.28,1.061,1.061,0,0,1,.1.389c0,.1-.091.754-.2,1.46a7.58,7.58,0,0,1-.292,1.448.779.779,0,0,1-.335.28c-.231.1-.231.1-.9.012a6.637,6.637,0,0,0-1.217-.061,5.381,5.381,0,0,0-.931.14,6.666,6.666,0,0,0-.773.292c-.213.1-.5.255-.645.341s-.444.31-.675.487a8.244,8.244,0,0,0-.7.62c-.164.17-.4.438-.773.9v8.687c0,6.412-.012,8.76-.061,8.96a.942.942,0,0,1-.249.481,1.024,1.024,0,0,1-.414.274,24.112,24.112,0,0,1-3.285.036l-.2-.134a1.037,1.037,0,0,1-.31-.341c-.1-.2-.1-.316-.116-11.783-.006-6.375-.006-11.661.012-11.752a.912.912,0,0,1,.219-.377,1.273,1.273,0,0,1,.377-.274,9.675,9.675,0,0,1,1.6-.061,5.522,5.522,0,0,1,1.667.091.843.843,0,0,1,.371.255,1.424,1.424,0,0,1,.176.377,3.117,3.117,0,0,1,.061.687,4.3,4.3,0,0,0,.024.554c.018.055.195-.085.608-.474a10.09,10.09,0,0,1,1.046-.858c.255-.17.627-.389.827-.493a8.686,8.686,0,0,1,.876-.353,8.932,8.932,0,0,1,.955-.249A6.343,6.343,0,0,1,101.712,10.937Zm32.806.4c1.5.012,1.588.018,1.807.122a1.592,1.592,0,0,1,.389.292c.085.1,1.271,1.886,2.634,3.96s2.494,3.778,2.512,3.771,1.138-1.691,2.488-3.735,2.518-3.82,2.6-3.93a2.049,2.049,0,0,1,.663-.468l1.576-.018a7.4,7.4,0,0,1,1.782.061,1.092,1.092,0,0,1,.353.237.5.5,0,0,1,.14.42,1.053,1.053,0,0,1-.073.4c-.037.079-1.624,2.537-3.516,5.469s-3.455,5.347-3.473,5.377,1.691,2.658,3.784,5.84,3.826,5.846,3.857,5.913a1.609,1.609,0,0,1,.043.414.727.727,0,0,1-.091.42.637.637,0,0,1-.255.195,9.331,9.331,0,0,1-1.837.067,15.789,15.789,0,0,1-1.874-.055,2.1,2.1,0,0,1-.4-.182,4.6,4.6,0,0,1-.846-1.119c-.359-.547-1.6-2.464-2.762-4.252s-2.129-3.267-2.153-3.273-1.247,1.855-2.719,4.136c-1.551,2.4-2.768,4.24-2.9,4.362a1.531,1.531,0,0,1-.468.3,7.22,7.22,0,0,1-1.922.085,9.235,9.235,0,0,1-1.837-.067.819.819,0,0,1-.286-.219.579.579,0,0,1-.116-.4,1.337,1.337,0,0,1,.067-.414c.043-.1,1.776-2.762,3.863-5.937s3.79-5.773,3.784-5.791-1.545-2.4-3.425-5.3-3.479-5.384-3.546-5.511a1.109,1.109,0,0,1-.122-.426.843.843,0,0,1,.073-.335.793.793,0,0,1,.164-.219,1.184,1.184,0,0,1,.28-.146A10.142,10.142,0,0,1,134.518,11.339Zm-26.559.091h1.928c1.9,0,1.928,0,2.129.116a.984.984,0,0,1,.31.274c.061.091,1.466,4.088,3.127,8.881,1.983,5.718,3.035,8.687,3.06,8.632s1.423-3.93,3.121-8.62,3.121-8.626,3.163-8.741a1.564,1.564,0,0,1,.493-.517l1.734-.012a9.987,9.987,0,0,1,1.886.049.452.452,0,0,1,.213.225.658.658,0,0,1,.018.383c-.018.128-2.275,6.235-5.006,13.577S119.048,39.3,118.9,39.637s-.371.846-.511,1.125-.389.742-.566,1.034-.456.73-.633.967a10.156,10.156,0,0,1-1.788,1.849,8.539,8.539,0,0,1-1.113.663,10.524,10.524,0,0,1-1.083.462c-.225.073-.693.189-1.034.262s-.925.152-1.29.182a17.793,17.793,0,0,1-1.807.037,12.418,12.418,0,0,1-1.606-.116,1.272,1.272,0,0,1-.584-.2,1.079,1.079,0,0,1-.2-.4,2.1,2.1,0,0,1-.043-.8c.018-.286.067-.736.1-1.01a5.025,5.025,0,0,1,.158-.724,1.222,1.222,0,0,1,.219-.371.729.729,0,0,1,.3-.176,8.243,8.243,0,0,1,1,.061,10.237,10.237,0,0,0,1.5.061,9.762,9.762,0,0,0,1.186-.14,5.924,5.924,0,0,0,.955-.286c.225-.1.541-.255.693-.347a4.511,4.511,0,0,0,.7-.584,6.027,6.027,0,0,0,.693-.827,9.324,9.324,0,0,0,.493-.876c.122-.255.554-1.284.961-2.275s.736-1.849.736-1.892S114.395,30.062,112,23.736c-3.644-9.636-4.349-11.546-4.343-11.759a.46.46,0,0,1,.146-.4Z" transform="translate(4364.993 1908)" fill="#003b54" fill-rule="evenodd"/>
  </g>
</svg>
