<svg width="59" height="59" viewBox="0 0 59 59" fill="none" xmlns="http://www.w3.org/2000/svg">
<g clip-path="url(#clip0_245_9139)">
<path d="M1.62195 58.0505C2.0368 58.1519 2.46086 57.9583 2.65445 57.5803L9.09836 45.0889C9.2643 44.757 9.5593 44.5173 9.90961 44.4067C10.2599 44.2961 10.6379 44.3238 10.9605 44.4989C11.6335 44.8492 11.9009 45.6881 11.5505 46.3611L5.71508 57.6633L7.35602 58.5114L13.1915 47.2092C14.0027 45.6328 13.3851 43.6784 11.8087 42.8672C11.4324 42.6712 11.0211 42.5514 10.5984 42.5149C10.1757 42.4783 9.74995 42.5256 9.34561 42.6541C8.94126 42.7826 8.5663 42.9898 8.24226 43.2636C7.91822 43.5375 7.6515 43.8727 7.45742 44.25L2.75586 53.3673V46.103C2.75586 42.5445 5.65055 39.6498 9.20898 39.6498H9.45789C10.472 40.2306 11.6427 40.5717 12.8965 40.5717C14.1502 40.5717 15.321 40.2306 16.3351 39.6498H16.584C20.1424 39.6498 23.0371 42.5445 23.0371 46.103V55.3217C23.0371 55.8287 22.6223 56.2436 22.1152 56.2436H16.123C15.3579 56.2436 14.7402 55.6259 14.7402 54.8608C14.7402 54.0956 15.3579 53.478 16.123 53.478H19.3496C19.8566 53.478 20.2715 53.0631 20.2715 52.5561V45.1811H18.4277V51.6342H16.123C14.3438 51.6342 12.8965 53.0816 12.8965 54.8608C12.8965 56.64 14.3438 58.0873 16.123 58.0873H22.1152C23.6363 58.0873 24.8809 56.8428 24.8809 55.3217V46.103C24.8809 42.1112 22.0415 38.7648 18.2802 37.9813C19.2672 36.756 19.8069 35.2309 19.8105 33.6577C19.8105 29.8411 16.713 26.7436 12.8965 26.7436C9.07992 26.7436 5.98242 29.8411 5.98242 33.6577C5.98242 35.2894 6.55398 36.8013 7.51273 37.9813C3.75148 38.7648 0.912109 42.1112 0.912109 46.103V57.1655C0.912109 57.5895 1.20711 57.9583 1.61273 58.0597L1.62195 58.0505ZM12.9057 28.5781C15.699 28.5781 17.976 30.8552 17.976 33.6484C17.976 36.4417 15.699 38.7188 12.9057 38.7188C10.1124 38.7188 7.83539 36.4417 7.83539 33.6484C7.83539 30.8552 10.1124 28.5781 12.9057 28.5781ZM12.3157 19.3686L10.7393 18.4191L10.2784 19.1842C9.83586 19.9309 9.83586 20.9266 10.2784 21.6733C10.3798 21.8392 10.3798 22.0973 10.2784 22.2633L9.81742 23.0284L11.3938 23.978L11.8548 23.2128C12.2973 22.4661 12.2973 21.4705 11.8548 20.7237C11.8049 20.6334 11.7787 20.5319 11.7787 20.4287C11.7787 20.3256 11.8049 20.2241 11.8548 20.1338L12.3157 19.3686ZM16.0032 19.3686L14.4268 18.4191L13.9659 19.1842C13.5234 19.9309 13.5234 20.9266 13.9659 21.6733C14.0673 21.8392 14.0673 22.0973 13.9659 22.2633L13.5049 23.0284L15.0813 23.978L15.5423 23.2128C15.9848 22.4661 15.9848 21.4705 15.5423 20.7237C15.4924 20.6334 15.4662 20.5319 15.4662 20.4287C15.4662 20.3256 15.4924 20.2241 15.5423 20.1338L16.0032 19.3686ZM27.6557 15.6719V30.4219H29.4995V16.5938H32.2651V30.4219H34.1088V15.6719C34.1088 15.1648 33.694 14.75 33.187 14.75H28.5776C28.0705 14.75 27.6557 15.1648 27.6557 15.6719ZM43.3276 30.4219V21.2031C43.3276 20.6961 42.9127 20.2812 42.4057 20.2812H37.7963C37.2893 20.2812 36.8745 20.6961 36.8745 21.2031V30.4219H38.7182V22.125H41.4838V30.4219H43.3276ZM52.5463 30.4219V25.8125C52.5463 25.3055 52.1315 24.8906 51.6245 24.8906H47.0151C46.508 24.8906 46.0932 25.3055 46.0932 25.8125V30.4219H47.937V26.7344H50.7026V30.4219H52.5463ZM25.812 32.2656H54.3901V34.1094H25.812V32.2656ZM45.1713 14.75H39.2437L36.7454 10.5923C36.5795 10.3158 36.2752 10.1406 35.9526 10.1406H28.5776V11.9844H35.4271L37.9254 16.142C38.0913 16.4186 38.3955 16.5938 38.7182 16.5938H44.7934L48.1029 19.9033L46.2776 19.6452L46.0194 21.4705L50.5827 22.125C50.5827 22.125 50.6657 22.1342 50.7118 22.1342C50.8442 22.1356 50.9753 22.1082 51.096 22.0539C51.2167 21.9996 51.3242 21.9197 51.411 21.8197C51.4979 21.7198 51.5619 21.6021 51.5987 21.475C51.6356 21.3478 51.6444 21.2142 51.6245 21.0833L50.9699 16.52L49.1446 16.7781L49.4027 18.6034L45.8259 15.0266C45.74 14.9407 45.6379 14.8728 45.5255 14.8269C45.4131 14.781 45.2927 14.758 45.1713 14.7592V14.75Z" fill="black"/>
<path d="M56.2344 0.921875H23.9688C22.9547 0.921875 22.125 1.75156 22.125 2.76562V26.7344H23.9688V2.76562H56.2344V41.4844H27.6562V43.3281H56.2344C57.2484 43.3281 58.0781 42.4984 58.0781 41.4844V2.76562C58.0781 1.75156 57.2484 0.921875 56.2344 0.921875Z" fill="black"/>
</g>
<defs>
<clipPath id="clip0_245_9139">
<rect width="59" height="59" fill="white"/>
</clipPath>
</defs>
</svg>
