<svg xmlns="http://www.w3.org/2000/svg" width="43.077" height="40" viewBox="0 0 43.077 40">
  <g id="cost-effective" transform="translate(-6.249 -9.374)">
    <path id="Path_9343" data-name="Path 9343" d="M21.241,29.47a8.462,8.462,0,1,0-13.062,0ZM11.857,23.54a.775.775,0,0,1,1.092,0l.992,1L16.473,22a.772.772,0,1,1,1.092,1.092L14.488,26.17a.78.78,0,0,1-1.092,0l-1.538-1.538A.775.775,0,0,1,11.857,23.54Z" transform="translate(0 -3.173)"/>
    <path id="Path_9344" data-name="Path 9344" d="M67.067,23.22V22.067H65.528a.769.769,0,1,1,0-1.538h2.885a.962.962,0,0,0,0-1.923H67.259a2.492,2.492,0,0,1-.192-4.977v-.408a.769.769,0,0,1,1.538,0v.385h1.538a.769.769,0,0,1,0,1.538H67.259a.962.962,0,0,0,0,1.923h1.154a2.492,2.492,0,0,1,.192,4.977V23.22h5.761A8.439,8.439,0,0,0,76.3,17.836a8.154,8.154,0,0,0-2.461-5.915,8.3,8.3,0,0,0-6-2.546,8.467,8.467,0,0,0-8.462,8.462,8.35,8.35,0,0,0,1.938,5.385Z" transform="translate(-26.972)"/>
    <path id="Path_9345" data-name="Path 9345" d="M48.557,40.625H33.173a.771.771,0,0,0-.769.769,4.619,4.619,0,0,0,4.615,4.615H40.1v3.161l-24.615,2.9V49.086h3.077a4.619,4.619,0,0,0,4.615-4.615A.771.771,0,0,0,22.4,43.7H7.02a.771.771,0,0,0-.769.769,4.619,4.619,0,0,0,4.615,4.615h3.077v3.846a.788.788,0,0,0,.862.762l11.484-1.346-4.7,7.515a3.07,3.07,0,0,0-3.031,3.069v1.538a.771.771,0,0,0,.769.769H36.25a.771.771,0,0,0,.769-.769V62.932a3.07,3.07,0,0,0-3.031-3.069l-4.908-7.846,11.877-1.4a.81.81,0,0,0,.677-.762V46.009h3.077a4.619,4.619,0,0,0,4.615-4.615.771.771,0,0,0-.769-.769Z" transform="translate(-0.001 -15.866)"/>
  </g>
</svg>
