<svg width="66" height="66" viewBox="0 0 66 66" fill="none" xmlns="http://www.w3.org/2000/svg">
<path d="M57.626 9.08881H54.5622C54.3517 8.54521 53.8247 8.15797 53.2077 8.15797C52.6176 8.15797 52.385 7.7068 52.3276 7.56849C52.2702 7.43017 52.1158 6.94651 52.533 6.5295C52.6683 6.39484 52.7757 6.23467 52.8487 6.05825C52.9218 5.88183 52.9591 5.69268 52.9586 5.50173C52.9586 5.1136 52.8075 4.74866 52.533 4.47396L51.3468 3.28777C50.7801 2.72122 49.8582 2.7211 49.2914 3.28777C48.8742 3.70504 48.3907 3.55061 48.2524 3.49324C48.1141 3.43601 47.6629 3.20321 47.6629 2.6132C47.6629 1.81192 47.0109 1.15991 46.2096 1.15991H44.5321C43.7309 1.15991 43.079 1.81192 43.079 2.6132C43.079 3.20321 42.6278 3.43601 42.4895 3.49324C42.3513 3.55048 41.8676 3.70491 41.4502 3.28751C40.8836 2.72122 39.9616 2.72122 39.3951 3.28764L38.2088 4.47396C38.0735 4.60864 37.9662 4.7688 37.8931 4.94519C37.8201 5.12158 37.7828 5.31069 37.7832 5.5016C37.7827 5.69253 37.8201 5.88167 37.8931 6.05806C37.9662 6.23446 38.0735 6.39461 38.2089 6.52924C38.626 6.94638 38.4716 7.43004 38.4144 7.56836C38.3571 7.70667 38.1243 8.15785 37.5343 8.15785C36.9173 8.15785 36.3903 8.54495 36.1798 9.08868H9.42336C6.74623 9.08868 4.56836 11.2667 4.56836 13.9437V45.549C4.56836 48.2262 6.74636 50.404 9.42336 50.404H24.9626C24.9169 53.3993 24.1968 56.4136 23.3887 58.2228H20.1306C18.3064 58.2228 16.8222 59.7069 16.8222 61.5312C16.8222 63.3555 18.3064 64.8397 20.1306 64.8397H45.8695C47.6938 64.8397 49.1779 63.3556 49.1779 61.5313C49.1779 59.7071 47.6938 58.223 45.8695 58.223H42.6023C41.756 56.3823 40.9894 53.3577 40.9163 50.4042H56.5769C59.254 50.4042 61.432 48.2262 61.432 45.5492V12.8953C61.4319 10.7963 59.7245 9.08881 57.626 9.08881ZM37.8857 9.94152C38.8689 9.82151 39.6921 9.19992 40.0816 8.25917C40.4713 7.31854 40.3289 6.29696 39.7185 5.51681L40.4378 4.79752C41.2178 5.40789 42.2394 5.55033 43.1802 5.16078C44.1208 4.77109 44.7426 3.94803 44.8625 2.96473H45.8796C45.9996 3.9479 46.6213 4.77109 47.5619 5.16078C48.5026 5.55046 49.5243 5.40789 50.3043 4.79752L51.0236 5.51681C50.4132 6.29696 50.2708 7.31854 50.6605 8.25917C51.05 9.19979 51.8731 9.82151 52.8564 9.94152V10.9586C51.8732 11.0786 51.0502 11.7002 50.6605 12.6409C50.2708 13.5816 50.4132 14.6033 51.0236 15.3833L50.3043 16.1026C49.5243 15.4922 48.5027 15.3499 47.5619 15.7393C46.6213 16.129 45.9996 16.9521 45.8796 17.9353H44.8626C44.7428 16.9511 44.1213 16.1276 43.1808 15.738C42.2402 15.3484 41.2182 15.4913 40.4378 16.1026L39.7185 15.3833C40.3289 14.6032 40.4713 13.5816 40.0816 12.6409C39.6921 11.7003 38.8689 11.0786 37.8857 10.9586V9.94152ZM9.42336 10.8935H36.081V11.2887C36.081 12.09 36.733 12.742 37.5343 12.742C38.1243 12.742 38.357 13.1932 38.4144 13.3315C38.4717 13.4698 38.6262 13.9535 38.2089 14.3706C37.6422 14.9373 37.6422 15.8592 38.2089 16.4259L39.3951 17.6121C39.9618 18.1788 40.8836 18.1788 41.4504 17.6121C41.8687 17.1939 42.3519 17.3481 42.49 17.4053C42.6282 17.4626 43.079 17.6952 43.079 18.2867C43.079 19.0879 43.7309 19.7399 44.5321 19.7399H46.2096C47.0109 19.7399 47.6629 19.0879 47.6629 18.2867C47.6629 17.6967 48.1141 17.464 48.2524 17.4066C48.3907 17.3494 48.8743 17.1948 49.2916 17.6122C49.8584 18.1789 50.7803 18.1788 51.3469 17.6121L52.5331 16.4259C53.0998 15.8592 53.0998 14.9373 52.5331 14.3706C52.1159 13.9535 52.2704 13.4698 52.3276 13.3315C52.3848 13.1932 52.6176 12.742 53.2077 12.742C54.0089 12.742 54.6609 12.09 54.6609 11.2887V10.8935H57.6259C58.7294 10.8935 59.6271 11.7915 59.6271 12.8953V40.7372H6.37292V13.9438C6.37292 12.2618 7.74139 10.8935 9.42336 10.8935ZM47.3732 61.5313C47.3732 62.3605 46.6987 63.035 45.8695 63.035H20.1306C19.3014 63.035 18.6269 62.3605 18.6269 61.5313C18.6269 60.7022 19.3014 60.0277 20.1306 60.0277H45.8695C46.6987 60.0277 47.3732 60.7022 47.3732 61.5313ZM40.6388 58.223H25.3425C26.1859 56.0147 26.7266 53.0783 26.767 50.4042H39.1115C39.1743 53.0469 39.7537 55.985 40.6388 58.223ZM56.5767 48.5995H9.42336C7.74139 48.5995 6.37305 47.2311 6.37305 45.5492V42.5418H59.6272V45.5492C59.6272 47.2311 58.2587 48.5995 56.5767 48.5995ZM36.0755 45.5707C36.0755 45.81 35.9804 46.0395 35.8112 46.2087C35.642 46.378 35.4125 46.473 35.1732 46.473H30.8269C30.5876 46.473 30.3581 46.378 30.1889 46.2087C30.0197 46.0395 29.9246 45.81 29.9246 45.5707C29.9246 45.3314 30.0197 45.1019 30.1889 44.9326C30.3581 44.7634 30.5876 44.6684 30.8269 44.6684H35.1732C35.4125 44.6684 35.642 44.7634 35.8112 44.9326C35.9804 45.1019 36.0755 45.3314 36.0755 45.5707ZM45.3711 15.3824C48.0908 15.3824 50.3035 13.1697 50.3035 10.4501C50.3035 7.73026 48.0908 5.51759 45.3711 5.51759C42.6513 5.51759 40.4387 7.73026 40.4387 10.4501C40.4387 13.1697 42.6513 15.3824 45.3711 15.3824ZM45.3711 7.32228C47.0957 7.32228 48.4988 8.72542 48.4988 10.4501C48.4988 12.1747 47.0957 13.5777 45.3711 13.5777C43.6464 13.5777 42.2434 12.1747 42.2434 10.4501C42.2434 8.72542 43.6464 7.32228 45.3711 7.32228ZM12.4336 28.5736C13.092 28.5736 13.636 28.9378 13.8887 29.5478C14.1413 30.1578 14.0142 30.8 13.5487 31.2656C13.3961 31.4174 13.2751 31.5979 13.1927 31.7967C13.1104 31.9956 13.0682 32.2088 13.0688 32.4241C13.0688 32.8617 13.2392 33.273 13.5486 33.5824L15.1329 35.1667C15.7716 35.8054 16.811 35.8054 17.4497 35.1667C17.9163 34.7002 18.5588 34.5724 19.1682 34.8249C19.7778 35.0773 20.1417 35.622 20.1417 36.2817C20.1417 37.185 20.8765 37.9198 21.7798 37.9198H24.0201C24.9233 37.9198 25.6582 37.185 25.6582 36.2817C25.6582 35.6233 26.0224 35.0793 26.6323 34.8266C27.2423 34.5741 27.8845 34.7011 28.35 35.1665C28.6594 35.4759 29.0707 35.6465 29.5085 35.6465C29.9461 35.6465 30.3575 35.476 30.6668 35.1667L32.251 33.5824C32.5604 33.273 32.7309 32.8617 32.7309 32.4241C32.7309 31.9863 32.5605 31.575 32.2511 31.2657C31.7855 30.8001 31.6584 30.1579 31.9111 29.5479C32.1637 28.9379 32.7077 28.5738 33.3661 28.5738C34.2694 28.5738 35.0043 27.8389 35.0043 26.9356V24.6954C35.0043 23.7921 34.2694 23.0572 33.3661 23.0572C32.7077 23.0572 32.1637 22.6931 31.9111 22.0831C31.6584 21.4731 31.7855 20.8309 32.2511 20.3653C32.8898 19.7265 32.8898 18.6873 32.2511 18.0484L30.6668 16.4642C30.0281 15.8256 28.9887 15.8256 28.3501 16.4642C27.8845 16.9297 27.2426 17.0569 26.6323 16.8042C26.0225 16.5516 25.6582 16.0076 25.6582 15.3493C25.6582 14.446 24.9233 13.7111 24.0201 13.7111H21.7798C20.8765 13.7111 20.1417 14.446 20.1417 15.3493C20.1417 16.0076 19.7775 16.5516 19.1675 16.8042C18.5575 17.0569 17.9153 16.9299 17.4496 16.4642C16.8108 15.8257 15.7716 15.8256 15.1329 16.4642L13.5486 18.0484C12.9099 18.6873 12.91 19.7265 13.5486 20.3653C14.0142 20.8309 14.1413 21.473 13.8887 22.0829C13.636 22.6929 13.092 23.0572 12.4336 23.0572C11.5303 23.0572 10.7954 23.7921 10.7954 24.6954V26.9356C10.7954 27.8387 11.5303 28.5736 12.4336 28.5736ZM12.6001 24.8578C13.9209 24.7967 15.0439 24.0097 15.5559 22.7734C16.0681 21.5369 15.8304 20.1865 14.9398 19.2094L16.2939 17.8551C17.271 18.7458 18.6216 18.9834 19.8581 18.4714C21.0944 17.9592 21.8812 16.8362 21.9423 15.5156H23.8574C23.9185 16.8363 24.7053 17.9592 25.9417 18.4714C27.178 18.9834 28.5286 18.7458 29.5058 17.8551L30.8599 19.2094C29.9692 20.1865 29.7316 21.5369 30.2438 22.7734C30.7559 24.0098 31.8788 24.7967 33.1996 24.8578V26.7727C31.8788 26.8338 30.7559 27.6206 30.2438 28.857C29.7316 30.0934 29.9692 31.4439 30.8599 32.4211L29.5058 33.7754C28.5287 32.8846 27.1781 32.6469 25.9418 33.1592C24.7053 33.6714 23.9185 34.7943 23.8574 36.115H21.9425C21.8815 34.793 21.0948 33.6694 19.8587 33.1574C18.6227 32.6454 17.2719 32.8836 16.2939 33.7754L14.9398 32.4211C15.8305 31.444 16.0681 30.0934 15.5559 28.857C15.0438 27.6206 13.9209 26.8338 12.6001 26.7727V24.8578ZM22.9 32.1C26.3654 32.1 29.1847 29.2807 29.1847 25.8153C29.1847 22.3499 26.3654 19.5306 22.9 19.5306C19.4346 19.5306 16.6153 22.3499 16.6153 25.8153C16.6153 29.2807 19.4346 32.1 22.9 32.1ZM22.9 21.3353C25.3703 21.3353 27.38 23.3449 27.38 25.8153C27.38 28.2857 25.3703 30.2953 22.9 30.2953C20.4296 30.2953 18.42 28.2857 18.42 25.8153C18.42 23.3449 20.4296 21.3353 22.9 21.3353ZM37.896 37.0174C37.896 36.7781 37.9911 36.5485 38.1603 36.3793C38.3296 36.2101 38.5591 36.115 38.7984 36.115H47.3157C47.5551 36.115 47.7846 36.2101 47.9538 36.3793C48.123 36.5485 48.2181 36.7781 48.2181 37.0174C48.2181 37.2567 48.123 37.4862 47.9538 37.6554C47.7846 37.8247 47.5551 37.9197 47.3157 37.9197H38.7984C38.5591 37.9197 38.3296 37.8247 38.1603 37.6554C37.9911 37.4862 37.896 37.2567 37.896 37.0174ZM37.896 25.8153C37.896 25.576 37.9911 25.3465 38.1603 25.1772C38.3296 25.008 38.5591 24.913 38.7984 24.913H55.8332C56.0725 24.913 56.302 25.008 56.4713 25.1772C56.6405 25.3465 56.7356 25.576 56.7356 25.8153C56.7356 26.0546 56.6405 26.2841 56.4713 26.4533C56.302 26.6226 56.0725 26.7176 55.8332 26.7176H38.7984C38.5591 26.7176 38.3296 26.6226 38.1603 26.4533C37.9911 26.2841 37.896 26.0546 37.896 25.8153ZM37.896 31.4163C37.896 31.177 37.9911 30.9474 38.1603 30.7782C38.3296 30.609 38.5591 30.5139 38.7984 30.5139H55.8332C56.0725 30.5139 56.302 30.609 56.4713 30.7782C56.6405 30.9474 56.7356 31.177 56.7356 31.4163C56.7356 31.6556 56.6405 31.8851 56.4713 32.0543C56.302 32.2235 56.0725 32.3186 55.8332 32.3186H38.7984C38.5591 32.3186 38.3296 32.2235 38.1603 32.0543C37.9911 31.8851 37.896 31.6556 37.896 31.4163Z" fill="black"/>
</svg>
