<svg width="60" height="60" viewBox="0 0 60 60" fill="none" xmlns="http://www.w3.org/2000/svg">
<path d="M41.1987 47.4291C39.2931 45.704 37.0143 44.4432 34.5405 43.7452C37.1532 42.1905 38.9085 39.3394 38.9085 36.0847C38.9085 31.1725 34.9121 27.176 29.9998 27.176C25.0877 27.176 21.0912 31.1725 21.0912 36.0847C21.0912 39.3394 22.8466 42.1905 25.4593 43.7452C22.9854 44.4432 20.7065 45.704 18.8008 47.4291C15.7493 50.1886 13.8287 53.9517 13.3929 58.0252C13.379 58.1559 13.3927 58.2881 13.4332 58.4133C13.4737 58.5384 13.5401 58.6536 13.628 58.7514C13.7159 58.8492 13.8234 58.9274 13.9434 58.981C14.0635 59.0346 14.1935 59.0623 14.325 59.0624L45.6744 59.0623C45.806 59.0623 45.9361 59.0347 46.0562 58.9811C46.1764 58.9276 46.2839 58.8493 46.3719 58.7515C46.4598 58.6536 46.5261 58.5384 46.5666 58.4132C46.607 58.288 46.6206 58.1557 46.6066 58.0249C46.1707 53.9516 44.25 50.1886 41.1987 47.4291ZM22.9663 36.0847C22.9663 32.2064 26.1216 29.051 29.9999 29.051C33.8784 29.051 37.0336 32.2063 37.0336 36.0847C37.0336 39.9626 33.8793 43.1174 30.0016 43.1183H29.9985C26.1207 43.1175 22.9663 39.9626 22.9663 36.0847ZM15.4049 57.1875C16.6552 50.1667 22.754 44.994 29.9984 44.9933H30.0014C37.2455 44.994 43.3444 50.1667 44.5948 57.1874L15.4049 57.1875ZM19.6798 10.2975L24.3958 14.0879L22.8085 19.9264C22.6538 20.4957 22.8621 21.0877 23.3395 21.4344C23.5794 21.6101 23.8689 21.705 24.1662 21.7055C24.4332 21.7055 24.7008 21.6284 24.9375 21.4733L29.9998 18.1595L35.0622 21.4733C35.5557 21.7964 36.183 21.7812 36.6605 21.4343C37.1377 21.0874 37.3461 20.4955 37.1911 19.9264L35.6038 14.088L40.3198 10.2975C40.7796 9.92789 40.9588 9.3266 40.7765 8.76551C40.5941 8.20441 40.0956 7.82332 39.5065 7.79461L33.4632 7.5L31.3157 1.84359C31.1068 1.29316 30.5904 0.937617 29.9999 0.9375H29.9998C29.4094 0.9375 28.893 1.29316 28.6839 1.84359L26.5364 7.5L20.4931 7.79461C19.9039 7.82332 19.4054 8.20453 19.223 8.76563C19.0407 9.32672 19.22 9.92801 19.6798 10.2975ZM26.9331 9.35789C27.2067 9.34461 27.4705 9.25178 27.6921 9.09079C27.9137 8.9298 28.0835 8.70765 28.1807 8.45156L29.9998 3.66023L31.819 8.4518C31.9162 8.7078 32.086 8.92988 32.3076 9.09083C32.5292 9.25177 32.7928 9.34458 33.0664 9.35789L38.1856 9.60738L34.1909 12.8181C33.9773 12.9896 33.8185 13.2197 33.7338 13.4802C33.6492 13.7407 33.6424 14.0203 33.7144 14.2846L35.0589 19.2302L30.7707 16.423C30.5415 16.2731 30.2737 16.1932 29.9998 16.1932C29.726 16.1932 29.4582 16.2731 29.2291 16.4231L24.9411 19.2302L26.2855 14.2846C26.3574 14.0203 26.3506 13.7408 26.266 13.4804C26.1814 13.2199 26.0226 12.9898 25.8092 12.8182L21.8144 9.60738L26.9331 9.35789ZM14.9365 24.6404H7.55664C7.308 24.6404 7.06954 24.5417 6.89373 24.3658C6.71791 24.19 6.61914 23.9516 6.61914 23.7029C6.61914 23.4543 6.71791 23.2158 6.89373 23.04C7.06954 22.8642 7.308 22.7654 7.55664 22.7654H14.9366C15.0598 22.7654 15.1817 22.7897 15.2954 22.8368C15.4091 22.8839 15.5125 22.953 15.5995 23.0401C15.6866 23.1271 15.7556 23.2305 15.8027 23.3442C15.8498 23.458 15.8741 23.5799 15.8741 23.703C15.8741 23.8261 15.8498 23.948 15.8027 24.0618C15.7556 24.1755 15.6865 24.2788 15.5995 24.3659C15.5124 24.4529 15.409 24.522 15.2953 24.5691C15.1815 24.6162 15.0596 24.6404 14.9365 24.6404ZM9.75144 12.0127C9.81298 11.906 9.89493 11.8125 9.99259 11.7376C10.0903 11.6626 10.2017 11.6076 10.3207 11.5758C10.4396 11.5439 10.5636 11.5358 10.6857 11.5519C10.8078 11.568 10.9255 11.6079 11.0321 11.6695L17.4234 15.3595C17.6022 15.4627 17.742 15.6221 17.821 15.8129C17.9 16.0037 17.9137 16.2152 17.8602 16.4146C17.8067 16.614 17.6888 16.7902 17.5249 16.9158C17.3609 17.0413 17.1602 17.1093 16.9537 17.109C16.7894 17.109 16.628 17.0656 16.4859 16.9833L10.0946 13.2933C9.87925 13.169 9.72214 12.9642 9.65779 12.724C9.59344 12.4839 9.62713 12.228 9.75144 12.0127ZM17.4234 32.0466L11.0321 35.7366C10.9255 35.7982 10.8078 35.8382 10.6857 35.8542C10.5636 35.8703 10.4396 35.8622 10.3207 35.8304C10.2017 35.7985 10.0902 35.7435 9.99258 35.6685C9.89491 35.5936 9.81297 35.5001 9.75144 35.3934C9.62713 35.1781 9.59344 34.9222 9.65779 34.6821C9.72214 34.4419 9.87925 34.2371 10.0946 34.1128L16.4859 30.4228C16.7011 30.3005 16.9559 30.2682 17.1949 30.333C17.4338 30.3979 17.6373 30.5546 17.7611 30.769C17.8849 30.9834 17.9189 31.2381 17.8556 31.4774C17.7923 31.7168 17.6369 31.9214 17.4234 32.0466ZM50.248 35.3933C50.1865 35.5 50.1046 35.5935 50.0069 35.6684C49.9092 35.7434 49.7978 35.7984 49.6788 35.8302C49.5599 35.8621 49.4359 35.8702 49.3138 35.8541C49.1917 35.838 49.074 35.798 48.9674 35.7364L42.5762 32.0464C42.3609 31.9221 42.2038 31.7174 42.1395 31.4772C42.0751 31.237 42.1088 30.9811 42.2331 30.7658C42.2947 30.6592 42.3766 30.5657 42.4743 30.4908C42.5719 30.4158 42.6834 30.3608 42.8023 30.3289C42.9213 30.2971 43.0453 30.289 43.1674 30.305C43.2894 30.3211 43.4071 30.3611 43.5137 30.4227L49.9049 34.1127C50.1202 34.237 50.2774 34.4418 50.3417 34.6819C50.406 34.9221 50.3724 35.178 50.248 35.3933ZM53.3805 23.7029C53.3805 23.9516 53.2817 24.19 53.1059 24.3658C52.9301 24.5417 52.6916 24.6404 52.443 24.6404H45.0631C44.8144 24.6404 44.576 24.5417 44.4002 24.3658C44.2244 24.19 44.1256 23.9516 44.1256 23.7029C44.1256 23.4543 44.2244 23.2158 44.4002 23.04C44.576 22.8642 44.8144 22.7654 45.0631 22.7654H52.4431C52.6917 22.7655 52.9301 22.8642 53.1059 23.0401C53.2817 23.2159 53.3805 23.4543 53.3805 23.7029ZM42.2331 16.64C42.1088 16.4247 42.0751 16.1688 42.1395 15.9287C42.2038 15.6885 42.3609 15.4837 42.5762 15.3594L48.9674 11.6694C49.1827 11.5451 49.4386 11.5114 49.6788 11.5758C49.919 11.6401 50.1237 11.7972 50.248 12.0125C50.3724 12.2279 50.406 12.4838 50.3417 12.7239C50.2774 12.9641 50.1202 13.1688 49.9049 13.2932L43.5137 16.9832C43.4072 17.0448 43.2895 17.0849 43.1674 17.101C43.0453 17.1171 42.9212 17.109 42.8023 17.0771C42.6833 17.0453 42.5718 16.9903 42.4742 16.9153C42.3765 16.8403 42.2946 16.7467 42.2331 16.64Z" fill="black"/>
</svg>
