<svg width="51" height="57" viewBox="0 0 51 57" fill="none" xmlns="http://www.w3.org/2000/svg">
<path d="M21.2511 16.9726L19.5983 23.0761C19.5506 23.2531 19.5533 23.4423 19.6061 23.6175C19.6588 23.7927 19.7591 23.9452 19.8929 24.0538C20.0267 24.1625 20.1875 24.2219 20.3529 24.2238C20.5183 24.2258 20.6801 24.1702 20.816 24.0647L25.5 20.422L30.184 24.0647C30.3198 24.171 30.4819 24.2273 30.6476 24.2255C30.8134 24.2237 30.9745 24.1641 31.1084 24.0549C31.2422 23.946 31.3423 23.7932 31.3948 23.6178C31.4474 23.4424 31.4498 23.2531 31.4017 23.0761L29.7489 16.9726L34.2967 13.1189C34.4284 13.0071 34.5257 12.8522 34.5751 12.6758C34.6245 12.4994 34.6236 12.3101 34.5724 12.1344C34.5213 11.9586 34.4224 11.8049 34.2897 11.6947C34.1569 11.5845 33.9967 11.5232 33.8313 11.5193L28.1257 11.3893L26.253 5.36422C26.1989 5.18922 26.0972 5.03745 25.9622 4.93004C25.8273 4.82262 25.6657 4.76489 25.5 4.76489C25.3343 4.76489 25.1727 4.82262 25.0378 4.93004C24.9028 5.03745 24.8011 5.18922 24.747 5.36422L22.8743 11.3893L17.1687 11.5193C17.0033 11.5232 16.8431 11.5845 16.7103 11.6947C16.5776 11.8049 16.4787 11.9586 16.4276 12.1344C16.3764 12.3101 16.3755 12.4994 16.4249 12.6758C16.4743 12.8522 16.5716 13.0071 16.7033 13.1189L21.2511 16.9726ZM23.4608 13.1572C23.6234 13.1535 23.7812 13.0942 23.9128 12.9874C24.0444 12.8806 24.1436 12.7313 24.1971 12.5596L25.5 8.36919L26.8037 12.5596C26.8572 12.7313 26.9564 12.8806 27.088 12.9874C27.2196 13.0942 27.3774 13.1535 27.54 13.1572L31.5068 13.248L28.344 15.927C28.2145 16.0371 28.1182 16.1889 28.0681 16.362C28.0179 16.535 28.0164 16.7211 28.0635 16.8951L29.2126 21.1399L25.955 18.6069C25.8217 18.5024 25.6628 18.4463 25.5 18.4463C25.3372 18.4463 25.1783 18.5024 25.045 18.6069L21.7874 21.1399L22.9365 16.8951C23.0329 16.5389 22.9205 16.1524 22.656 15.927L19.4924 13.248L23.4608 13.1572ZM49.4062 38.6041H34.2656V27.645C34.2656 27.4088 34.1817 27.1822 34.0322 27.0152C33.8828 26.8482 33.6801 26.7544 33.4688 26.7544H17.5312C17.3199 26.7544 17.1172 26.8482 16.9678 27.0152C16.8183 27.1822 16.7344 27.4088 16.7344 27.645V33.4741H1.59375C1.38241 33.4741 1.17972 33.568 1.03027 33.735C0.880831 33.902 0.796875 34.1285 0.796875 34.3648V51.3427C0.796875 51.5789 0.880831 51.8055 1.03027 51.9725C1.17972 52.1395 1.38241 52.2334 1.59375 52.2334H49.4062C49.6176 52.2334 49.8203 52.1395 49.9697 51.9725C50.1192 51.8055 50.2031 51.5789 50.2031 51.3427V39.4948C50.2031 39.2585 50.1192 39.032 49.9697 38.865C49.8203 38.698 49.6176 38.6041 49.4062 38.6041ZM2.39062 35.2554H16.7344V50.4521H2.39062V35.2554ZM18.3281 34.3648V28.5356H32.6719V50.4521H18.3281V34.3648ZM48.6094 50.4521H34.2656V40.3854H48.6094V50.4521Z" fill="black"/>
</svg>
