<svg width="79" height="79" viewBox="0 0 79 79" fill="none" xmlns="http://www.w3.org/2000/svg">
<path d="M22.0888 47.9393C21.8277 47.9402 21.5731 47.8582 21.3616 47.7051C21.1501 47.552 20.9927 47.3357 20.912 47.0874C20.8313 46.8391 20.8314 46.5716 20.9125 46.3234C20.9935 46.0752 21.1513 45.8592 21.3629 45.7064L33.2401 37.0917V19.8228C33.2401 19.4954 33.3701 19.1814 33.6016 18.9499C33.8331 18.7184 34.1471 18.5884 34.4745 18.5884C34.8019 18.5884 35.1158 18.7184 35.3473 18.9499C35.5788 19.1814 35.7088 19.4954 35.7088 19.8228V37.7212C35.7089 37.9163 35.6628 38.1086 35.5742 38.2824C35.4855 38.4562 35.357 38.6065 35.1991 38.721L22.8121 47.706C22.6014 47.8578 22.3484 47.9394 22.0888 47.9393ZM70.4466 70.9049H42.9411C42.2794 70.9049 41.6298 70.7277 41.0599 70.3916C40.4899 70.0555 40.0204 69.5728 39.7002 68.9938C39.3801 68.4148 39.2208 67.7606 39.2392 67.0991C39.2575 66.4377 39.4527 65.7933 39.8045 65.2329L53.5554 43.2993C53.8876 42.7669 54.3501 42.3281 54.8991 42.0244C55.4482 41.7207 56.0657 41.5622 56.6932 41.5638C57.9757 41.5638 59.1484 42.2118 59.831 43.2981L73.5844 65.2342C73.9351 65.7948 74.1294 66.439 74.1471 67.1001C74.1648 67.7611 74.0053 68.4148 73.6851 68.9934C73.365 69.572 72.8958 70.0543 72.3264 70.3905C71.7569 70.7266 71.1079 70.9042 70.4466 70.9049ZM56.6932 44.0338C56.4838 44.0335 56.2778 44.0867 56.0947 44.1882C55.9115 44.2897 55.7573 44.4362 55.6465 44.6139L41.8955 66.5475C41.7782 66.7343 41.713 66.9492 41.7068 67.1697C41.7007 67.3903 41.7537 67.6084 41.8605 67.8015C41.9672 67.9946 42.1238 68.1555 42.3138 68.2675C42.5038 68.3796 42.7204 68.4387 42.9411 68.4386H70.4454C70.6661 68.4389 70.8829 68.38 71.0731 68.268C71.2633 68.1561 71.42 67.9951 71.5269 67.802C71.6338 67.6089 71.687 67.3907 71.6808 67.17C71.6747 66.9494 71.6096 66.7344 71.4921 66.5475L57.7387 44.6127C57.6285 44.4348 57.4745 44.2882 57.2915 44.1869C57.1084 44.0855 56.9025 44.0328 56.6932 44.0338Z" fill="black"/>
<path d="M34.4746 67.3438C18.1401 67.3438 4.84961 54.0532 4.84961 37.7188C4.84961 21.383 18.1401 8.09375 34.4746 8.09375C50.8091 8.09375 64.0996 21.383 64.0996 37.7188C64.0996 38.5717 64.0626 39.4382 63.9885 40.2924C63.9761 40.4545 63.9316 40.6124 63.8574 40.757C63.7832 40.9016 63.681 41.0299 63.5566 41.1345C63.4322 41.2391 63.2883 41.3179 63.1331 41.3662C62.9779 41.4144 62.8147 41.4313 62.6529 41.4157C62.4914 41.4019 62.3342 41.3563 62.1904 41.2817C62.0465 41.2071 61.9187 41.1048 61.8144 40.9808C61.7101 40.8567 61.6312 40.7133 61.5824 40.5588C61.5335 40.4042 61.5156 40.2416 61.5296 40.0801C61.5975 39.295 61.6309 38.5001 61.6309 37.7175C61.6309 22.7433 49.4488 10.5613 34.4746 10.5613C19.5004 10.5613 7.31836 22.7433 7.31836 37.7175C7.31836 52.6905 19.5004 64.8738 34.4746 64.8738C34.8708 64.8738 35.2658 64.8639 35.6571 64.8478C36.3447 64.7935 36.9137 65.349 36.9421 66.0304C36.9705 66.7118 36.441 67.287 35.7596 67.3141C35.335 67.3351 34.9054 67.3438 34.4746 67.3438ZM56.6934 59.9375C56.366 59.9375 56.052 59.8075 55.8205 59.576C55.589 59.3445 55.459 59.0305 55.459 58.7031V50.0625C55.459 49.7351 55.589 49.4212 55.8205 49.1897C56.052 48.9582 56.366 48.8281 56.6934 48.8281C57.0207 48.8281 57.3347 48.9582 57.5662 49.1897C57.7977 49.4212 57.9277 49.7351 57.9277 50.0625V58.7031C57.9277 59.0305 57.7977 59.3445 57.5662 59.576C57.3347 59.8075 57.0207 59.9375 56.6934 59.9375ZM56.6934 66.1094C56.366 66.1094 56.052 65.9793 55.8205 65.7478C55.589 65.5163 55.459 65.2024 55.459 64.875V63.6406C55.459 63.3132 55.589 62.9993 55.8205 62.7678C56.052 62.5363 56.366 62.4062 56.6934 62.4062C57.0207 62.4062 57.3347 62.5363 57.5662 62.7678C57.7977 62.9993 57.9277 63.3132 57.9277 63.6406V64.875C57.9277 65.2024 57.7977 65.5163 57.5662 65.7478C57.3347 65.9793 57.0207 66.1094 56.6934 66.1094Z" fill="black"/>
</svg>
