<svg width="62" height="62" viewBox="0 0 62 62" fill="none" xmlns="http://www.w3.org/2000/svg">
<path fill-rule="evenodd" clip-rule="evenodd" d="M17.5419 24.2761C16.1862 22.7994 15.2397 20.9941 14.7963 19.0391H6.31734C5.62596 19.0438 4.9645 19.3218 4.47728 19.8123C3.99006 20.3029 3.71662 20.9662 3.71662 21.6576C3.71662 22.349 3.99006 23.0123 4.47728 23.5029C4.9645 23.9934 5.62596 24.2714 6.31734 24.2761H17.5419ZM40.6179 22.7395C40.5849 22.9404 40.4833 23.1237 40.3304 23.2581C40.1774 23.3924 39.9826 23.4696 39.7791 23.4764C39.5756 23.4832 39.3761 23.4192 39.2145 23.2954C39.0529 23.1715 38.9393 22.9954 38.893 22.7972C38.6701 21.8498 38.559 20.8796 38.5621 19.9064C38.5628 19.6177 38.5732 19.3286 38.5934 19.0391H37.2797C36.8364 20.9942 35.89 22.7994 34.5342 24.2761H44.8842C44.9474 24.2753 45.0077 24.2498 45.0524 24.2052C45.097 24.1605 45.1225 24.1002 45.1233 24.037V19.2781C45.1225 19.2149 45.097 19.1546 45.0524 19.1099C45.0077 19.0653 44.9474 19.0398 44.8842 19.039H42.4537C41.5722 20.1194 40.9449 21.384 40.6179 22.7394V22.7395ZM38.8423 17.2782C38.8621 17.1854 38.8831 17.0926 38.9052 16.9997C39.5385 14.3338 40.8926 11.8933 42.8195 9.94512C44.3738 8.39887 46.2636 7.27876 48.3435 6.83119L47.7011 4.69389C47.6524 4.53036 47.6523 4.35618 47.7008 4.19259C47.7494 4.029 47.8444 3.88306 47.9745 3.77256C48.1045 3.66206 48.2638 3.59177 48.4331 3.57025C48.6024 3.54874 48.7743 3.57693 48.9278 3.65139L59.5182 8.01198C59.6417 8.06285 59.7521 8.14125 59.8407 8.24119C59.9294 8.34113 59.9941 8.45999 60.03 8.58871C60.0658 8.71744 60.0718 8.85264 60.0475 8.98403C60.0232 9.11542 59.9692 9.23953 59.8897 9.34692C57.6146 12.3976 55.3632 15.4709 53.1008 18.5316C53.0015 18.6649 52.8665 18.7672 52.7114 18.8269C52.5563 18.8865 52.3874 18.9009 52.2244 18.8685C52.0615 18.836 51.911 18.7581 51.7905 18.6436C51.6701 18.5291 51.5845 18.3829 51.5438 18.2218L50.8109 15.3062C48.4691 15.324 46.2094 15.9948 44.3879 17.2589L44.3615 17.2773H44.8845C45.4148 17.2783 45.923 17.4893 46.298 17.8643C46.673 18.2393 46.884 18.7475 46.885 19.2778V24.0368C46.885 24.0883 46.8449 24.2948 46.895 24.2992C48.404 24.4361 49.8076 25.1313 50.8309 26.2487C51.8543 27.3661 52.4237 28.8253 52.4278 30.3405V36.147C53.0653 36.4105 53.6105 36.8567 53.9948 37.4294C54.3791 38.0022 54.5853 38.6759 54.5874 39.3657V43.3465C54.5854 44.0363 54.3792 44.71 53.9949 45.2828C53.6106 45.8556 53.0653 46.3018 52.4278 46.5652V52.372C52.4237 53.9792 51.7834 55.5194 50.647 56.6558C49.5105 57.7923 47.9703 58.4325 46.3632 58.4366H8.00212C6.39498 58.4325 4.85483 57.7923 3.71839 56.6559C2.58195 55.5195 1.94166 53.9794 1.9375 52.3723V21.6575C1.94028 20.4968 2.40262 19.3844 3.2234 18.5636C4.04418 17.7428 5.15659 17.2805 6.31734 17.2777H14.5396C14.522 17.0179 14.5132 16.756 14.5131 16.4918C14.523 13.4416 15.7416 10.5196 17.902 8.36624C20.0623 6.21287 22.9882 5.00371 26.0385 5.00371C29.0888 5.00371 32.0146 6.21287 34.175 8.36624C36.3354 10.5196 37.554 13.4416 37.5639 16.4918C37.5639 16.756 37.555 17.0179 37.5374 17.2777L38.8423 17.2782ZM40.6185 17.4061C40.4984 17.9078 40.4134 18.4172 40.3642 18.9308C41.158 17.7032 42.1862 16.6443 43.3899 15.8148C45.6802 14.2249 48.5534 13.4444 51.483 13.5624C51.682 13.5586 51.8765 13.6223 52.0346 13.7433C52.1927 13.8643 52.3051 14.0353 52.3534 14.2284L52.7958 15.991L57.8091 9.20778L49.9176 5.95774L50.3172 7.28881H50.3163C50.3531 7.41267 50.3622 7.54314 50.3429 7.67092C50.3236 7.79869 50.2763 7.92063 50.2044 8.02804C50.1325 8.13545 50.0379 8.22569 49.9271 8.29232C49.8164 8.35895 49.6923 8.40034 49.5638 8.41353C47.4959 8.62556 45.5942 9.66152 44.0575 11.1903C42.3631 12.9075 41.1734 15.0576 40.6185 17.4053V17.4061ZM42.688 38.607C42.0517 38.607 41.4351 38.8275 40.9432 39.2312C40.4513 39.6348 40.1146 40.1964 39.9904 40.8205C39.8662 41.4445 39.9623 42.0923 40.2622 42.6535C40.5621 43.2146 41.0473 43.6544 41.6351 43.898C42.223 44.1415 42.877 44.1736 43.4859 43.989C44.0948 43.8043 44.6208 43.4142 44.9743 42.8852C45.3278 42.3561 45.487 41.7209 45.4246 41.0877C45.3623 40.4545 45.0823 39.8625 44.6324 39.4126C44.3773 39.1568 44.0742 38.954 43.7406 38.8158C43.4069 38.6775 43.0492 38.6066 42.688 38.607ZM43.387 40.6579C43.2253 40.4961 43.0125 40.3953 42.7848 40.3728C42.5571 40.3503 42.3287 40.4075 42.1384 40.5346C41.9482 40.6616 41.8079 40.8507 41.7414 41.0696C41.6749 41.2886 41.6864 41.5238 41.774 41.7351C41.8615 41.9465 42.0196 42.121 42.2213 42.2289C42.4231 42.3368 42.656 42.3714 42.8804 42.3268C43.1048 42.2822 43.3068 42.1611 43.4519 41.9843C43.5971 41.8074 43.6764 41.5857 43.6765 41.357C43.6766 41.2271 43.6511 41.0985 43.6015 40.9786C43.5518 40.8586 43.4789 40.7496 43.387 40.6579ZM51.1075 37.648H40.5396C40.0845 37.6499 39.6486 37.8316 39.3268 38.1534C39.0049 38.4752 38.8233 38.9112 38.8213 39.3663V43.3471C38.8233 43.8023 39.0049 44.2382 39.3268 44.56C39.6486 44.8818 40.0845 45.0635 40.5396 45.0655H51.1075C51.5626 45.0635 51.9985 44.8818 52.3203 44.56C52.6421 44.2382 52.8238 43.8022 52.8257 43.3471V39.3659C52.8238 38.9108 52.6421 38.4749 52.3203 38.1531C51.9985 37.8313 51.5626 37.6496 51.1075 37.6476V37.648ZM40.5396 35.8865H50.6656V30.3407C50.6617 29.2006 50.2071 28.1084 49.4009 27.3022C48.5948 26.4961 47.5025 26.0414 46.3624 26.0375H6.31734C5.37289 26.038 4.4539 25.7314 3.69893 25.1639V52.3723C3.70289 53.5123 4.15753 54.6045 4.96368 55.4107C5.76982 56.2168 6.86206 56.6715 8.00212 56.6754H46.3629C47.5029 56.6714 48.595 56.2167 49.4011 55.4105C50.2071 54.6044 50.6617 53.5122 50.6656 52.3723V46.8269H40.5396C39.6174 46.8248 38.7335 46.4576 38.0813 45.8054C37.4292 45.1533 37.0619 44.2694 37.0599 43.3471V39.3659C37.0619 38.4437 37.4292 37.5598 38.0813 36.9076C38.7335 36.2555 39.6174 35.8882 40.5396 35.8862V35.8865ZM31.9374 24.2764H20.1387C18.5074 23.0407 17.3054 21.3239 16.7022 19.3683C16.099 17.4126 16.1252 15.317 16.777 13.3771C17.4288 11.4371 18.6734 9.75085 20.335 8.55622C21.9967 7.36159 23.9915 6.71893 26.0381 6.71893C28.0846 6.71893 30.0794 7.36159 31.7411 8.55622C33.4027 9.75085 34.6473 11.4371 35.2991 13.3771C35.9509 15.317 35.9771 17.4126 35.3739 19.3683C34.7708 21.3239 33.5687 23.0407 31.9374 24.2764ZM25.1573 9.99089V11.1379C24.4949 11.3293 23.9125 11.7308 23.498 12.2819C23.0834 12.833 22.8591 13.5039 22.8589 14.1935C22.8589 16.3974 24.3427 16.906 25.8054 17.4063C26.6364 17.6909 27.4557 17.9713 27.4557 18.7903C27.4574 18.9776 27.422 19.1633 27.3516 19.3369C27.2811 19.5104 27.177 19.6682 27.0451 19.8013C26.9133 19.9343 26.7564 20.0399 26.5836 20.112C26.4107 20.1841 26.2253 20.2212 26.038 20.2212C25.8507 20.2212 25.6653 20.1841 25.4924 20.112C25.3196 20.0399 25.1627 19.9343 25.0309 19.8013C24.8991 19.6682 24.7949 19.5104 24.7244 19.3369C24.654 19.1633 24.6186 18.9776 24.6203 18.7903C24.6203 18.5567 24.5275 18.3327 24.3623 18.1675C24.1972 18.0024 23.9732 17.9096 23.7396 17.9096C23.506 17.9096 23.282 18.0024 23.1168 18.1675C22.9517 18.3327 22.8589 18.5567 22.8589 18.7903C22.8593 19.4798 23.0836 20.1505 23.4981 20.7015C23.9127 21.2524 24.495 21.6538 25.1573 21.8452V22.9922C25.1573 23.2258 25.2501 23.4498 25.4153 23.615C25.5805 23.7802 25.8045 23.873 26.0381 23.873C26.2716 23.873 26.4957 23.7802 26.6608 23.615C26.826 23.4498 26.9188 23.2258 26.9188 22.9922V21.8452C27.5812 21.6538 28.1635 21.2523 28.5781 20.7012C28.9926 20.1502 29.2169 19.4794 29.2171 18.7898C29.2171 16.7155 27.8035 16.2316 26.3696 15.7408C25.5013 15.4436 24.6203 15.142 24.6203 14.193C24.6186 14.0057 24.654 13.8199 24.7244 13.6464C24.7949 13.4729 24.8991 13.315 25.0309 13.182C25.1627 13.049 25.3196 12.9433 25.4924 12.8713C25.6653 12.7992 25.8507 12.7621 26.038 12.7621C26.2253 12.7621 26.4107 12.7992 26.5836 12.8713C26.7564 12.9433 26.9133 13.049 27.0451 13.182C27.177 13.315 27.2811 13.4729 27.3516 13.6464C27.422 13.8199 27.4574 14.0057 27.4557 14.193C27.4557 14.4265 27.5485 14.6506 27.7137 14.8157C27.8788 14.9809 28.1028 15.0737 28.3364 15.0737C28.57 15.0737 28.794 14.9809 28.9592 14.8157C29.1243 14.6506 29.2171 14.4265 29.2171 14.193C29.2168 13.5035 28.9926 12.8328 28.5781 12.2819C28.1637 11.7309 27.5815 11.3295 26.9191 11.138V9.99089C26.9191 9.75731 26.8264 9.5333 26.6612 9.36813C26.496 9.20297 26.272 9.11018 26.0384 9.11018C25.8048 9.11018 25.5808 9.20297 25.4157 9.36813C25.2505 9.5333 25.1577 9.75731 25.1577 9.99089H25.1573Z" fill="black"/>
</svg>
