<svg xmlns="http://www.w3.org/2000/svg" width="33.802" height="35" viewBox="0 0 33.802 35">
  <g id="transfer-horizontal-svgrepo-com_1_" data-name="transfer-horizontal-svgrepo-com (1)" transform="translate(-3.25 -3.25)">
    <path id="Path_7264" data-name="Path 7264" d="M16.771,4.75a1.5,1.5,0,0,0-.923-1.4,1.415,1.415,0,0,0-1.593.384l-10.624,12a1.541,1.541,0,0,0-.258,1.618,1.448,1.448,0,0,0,1.326.9H35.6a1.5,1.5,0,0,0,0-3H16.771Z" transform="translate(0 0)"/>
    <path id="Path_7265" data-name="Path 7265" d="M23.531,26.75V16.25H4.7a1.5,1.5,0,0,1,0-3H35.6a1.448,1.448,0,0,1,1.326.9,1.541,1.541,0,0,1-.258,1.618l-10.624,12a1.415,1.415,0,0,1-1.593.384A1.5,1.5,0,0,1,23.531,26.75Z" transform="translate(0 10)"/>
  </g>
</svg>
