<svg fill="#fff" id="gear-svgrepo-com" xmlns="http://www.w3.org/2000/svg" width="35" height="35" viewBox="0 0 35 35">
  <path id="Path_7262" data-name="Path 7262" d="M34.233,15.329l-3.676-.867a13.331,13.331,0,0,0-1.675-4.046L30.867,7.2a1,1,0,0,0-.143-1.228l-1.7-1.7A1,1,0,0,0,27.8,4.133L24.585,6.119a13.33,13.33,0,0,0-4.046-1.676L19.671.767A1,1,0,0,0,18.7,0H16.3a1,1,0,0,0-.969.767l-.868,3.676a13.319,13.319,0,0,0-4.045,1.675L7.2,4.133a1,1,0,0,0-1.227.143l-1.7,1.7A1,1,0,0,0,4.133,7.2l1.985,3.213a13.327,13.327,0,0,0-1.675,4.046l-3.676.867A1,1,0,0,0,0,16.3v2.4a1,1,0,0,0,.768.969l3.676.868a13.33,13.33,0,0,0,1.676,4.046L4.133,27.8a1,1,0,0,0,.142,1.228l1.7,1.7a1,1,0,0,0,1.228.143l3.213-1.985a13.316,13.316,0,0,0,4.045,1.675l.868,3.676A1,1,0,0,0,16.3,35h2.4a1,1,0,0,0,.969-.767l.868-3.676a13.326,13.326,0,0,0,4.045-1.675L27.8,30.867a1,1,0,0,0,1.227-.143l1.7-1.7a1,1,0,0,0,.143-1.227l-1.986-3.213a13.325,13.325,0,0,0,1.675-4.045l3.676-.868A1,1,0,0,0,35,18.7V16.3A1,1,0,0,0,34.233,15.329ZM17.5,26.7a9.2,9.2,0,1,1,9.2-9.2A9.2,9.2,0,0,1,17.5,26.7Z"/>
  <path id="Path_7263" data-name="Path 7263" d="M176.516,170.684a5.832,5.832,0,1,0,5.832,5.832A5.832,5.832,0,0,0,176.516,170.684Zm0,8.694a2.861,2.861,0,1,1,2.861-2.861A2.862,2.862,0,0,1,176.516,179.378Z" transform="translate(-159.016 -159.016)"/>
</svg>
