<?xml version="1.0" encoding="utf-8"?>
<!-- Svg Vector Icons : http://www.onlinewebfonts.com/icon -->
<!DOCTYPE svg PUBLIC "-//W3C//DTD SVG 1.1//EN" "http://www.w3.org/Graphics/SVG/1.1/DTD/svg11.dtd">
<svg version="1.1" xmlns="http://www.w3.org/2000/svg" xmlns:xlink="http://www.w3.org/1999/xlink" x="0px" y="0px" viewBox="0 0 256 256" enable-background="new 0 0 256 256" xml:space="preserve">
<metadata> Svg Vector Icons : http://www.onlinewebfonts.com/icon </metadata>
<g><g><g><path fill="#000000" d="M106.2,11.3c-8.7,1.5-12,2.6-15.1,5c-4.2,3.3-6.1,6.4-6.9,10.7c-0.5,2.5-0.2,5.2,1.5,15.7c0.4,2.4,0.7,4.7,0.7,5.1c0,0.4-1.4,1.5-3.3,2.5c-4.9,2.6-12.1,7.5-16.2,11l-3.6,3l-7.5-4.2c-8.4-4.8-11.1-5.9-14.5-5.9c-5.5,0-12.1,3.5-15.5,8.1c-0.9,1.2-3.3,5.2-5.4,8.8c-4.9,8.5-6.2,13.1-5.2,18.4c1.2,6.6,3.9,9.5,13.8,14.9c3.8,2.1,7.3,4.1,7.7,4.4c0.7,0.5,0.7,1-0.2,6.1c-0.7,4-1,7.8-1.1,14l-0.1,8.5l-8.7,3.5c-9.4,3.8-11.4,5-13.5,8.2c-2.3,3.4-3,6.3-3,11.2c0,4.3,0,4.5,3.3,12.7c1.8,4.6,4,9.4,4.9,10.7c3,4.5,7.5,7.5,12.6,8.5c3.8,0.7,5.7,0.3,15.4-3.6l7.9-3.2l6.6,6.6c3.6,3.6,8.3,7.9,10.5,9.5c2.2,1.6,4,2.9,4.1,3s-1,4-2.4,8.6c-3.2,10.5-3.4,13.2-1.2,17.8c1.6,3.4,5.2,7.1,8.6,9c1.2,0.6,5.9,2.3,10.3,3.6c7.4,2.2,8.5,2.4,12.7,2.4c5.2,0,8.4-1,11.9-3.6c3.3-2.5,4.3-4.6,7.2-13.9l2.6-8.7l5.8-0.3c6.5-0.3,12.6-1.2,18.8-3c2.4-0.6,4.5-1,4.6-0.7c4.7,6.9,10.2,14.2,11.6,15.5c2.7,2.3,5.9,3.3,10.3,3.3c5.6,0,8.1-1,16.8-6.8c11.5-7.8,14.8-12,15.2-19.6c0.3-5-0.2-6.1-6.3-14.9l-5-7.2l0.9-1.2c4.6-6,10.4-16.1,13-22.5l0.7-1.9l3.1,0.2c15.8,1.2,17.3,1.1,21.3-1.3c4.2-2.5,7.6-7.6,8.8-13.1c0.3-1.3,0.7-6,1-10.5c0.5-7.2,0.5-8.5-0.2-11.5c-1.3-5.9-4.8-10.7-9.4-12.8c-1.8-0.8-3.7-1.2-10-1.7c-4.3-0.3-8.6-0.6-9.5-0.6h-1.7l-1-3.7c-1.6-5.8-4.1-12.3-7.1-18c-2.7-5.1-2.7-5.3-1.9-6.2c0.5-0.6,3-3.4,5.7-6.3c6.1-6.6,6.7-7.5,7.6-11.1c1.2-4.6,0.1-9.9-3-14.6c-2.8-4.2-14.1-14.2-18.5-16.3c-3.3-1.6-3.6-1.7-8.5-1.7c-7,0-8,0.6-15.9,9.1c-3.4,3.6-6.3,6.8-6.5,7c-0.1,0.2-2.7-0.6-5.5-1.7c-6-2.4-12.2-4.1-18.1-5.2c-2.3-0.4-4.2-0.7-4.2-0.8c0,0-0.6-3.8-1.3-8.4c-1.6-10.5-2.1-12.1-4.9-15.1c-3.7-4.1-9.2-6.4-15-6.3C115.1,10,110.4,10.6,106.2,11.3z M122.4,18.7c2.6,1.2,4.5,2.9,5,4.8c0.4,1.2,3.7,21.7,3.7,22.9c0,0.2,1,0.6,2.2,0.7c11.8,1.6,19.3,3.6,28.7,7.8l5.3,2.4l1-1.2c0.6-0.6,4.1-4.5,7.8-8.6c7.7-8.3,9-9.2,13.2-8.7c3.5,0.4,6.4,2.2,12.1,7.4c6.1,5.5,7.6,7.2,8.7,9.7c0.9,2,1.2,5.5,0.4,7.4c-0.4,1-6.6,8-14.2,16l-2,2.1l2.3,3.7c5.2,8.3,9,17.6,11.1,27l1,4.4l10.5,0.6c5.8,0.3,11.3,0.8,12.3,1c3.9,0.8,6.8,5.5,6.8,11.2c0,8.8-0.9,16.4-2.4,19.3c-1,2-4.2,4.9-5.7,5.3c-0.6,0.1-6.2,0-12.3-0.5c-6.2-0.4-11.4-0.6-11.5-0.4c-0.2,0.2-1.1,2.4-2,4.8c-3.4,8.8-7.8,16.6-13.8,23.9c-1.7,2.1-3.1,3.9-3.1,4.1c0,0.1,2.8,4.2,6.2,9.1c3.4,4.9,6.4,9.4,6.7,10c1.3,2.5-0.5,7.8-3.6,10.8c-2.6,2.4-14.1,10-16.4,10.8c-2.8,0.9-7.6,0.7-9.3-0.4c-0.6-0.4-4.1-5-7.7-10.2l-6.6-9.4l-4.7,1.5c-8.6,2.8-18.7,4.3-28.2,4.3h-4.7l-3.2,10.7c-1.8,5.9-3.6,11.4-4.2,12.1c-1.4,2.1-4.1,3.2-7.9,3.4c-2.9,0.2-4.3-0.1-10.8-2c-7.8-2.3-9.3-2.9-11.7-4.7c-1.8-1.4-3.9-5.2-3.9-7c0-0.8,1.4-6.1,3.2-12c1.8-5.8,3.2-10.8,3.2-11.1c0-0.3-1.8-1.7-4-3.2c-7.9-5.3-13.3-10.2-19.4-17.6l-3.9-4.8l-1.7,0.7c-10.9,4.6-20.2,8-21.9,8c-2.7,0-6.5-2.3-8.4-5.1c-0.8-1.2-2.8-5.4-4.3-9.4c-2.6-6.5-3-7.7-3-10.4c0-3.4,1-5.9,3-7.8c0.6-0.6,6-3,11.9-5.4l10.8-4.3l0-11.7c0-11.1,0.1-12.1,1.3-17.7c0.7-3.3,1.3-6.4,1.4-6.9c0-0.7-2.1-2.2-10.3-6.8c-11.9-6.7-12.5-7.3-12.8-12.2c-0.3-3.9,0.3-5.3,4.8-13.2C33,64.6,36,62,41.4,62c1.8,0,7.3,2.8,21.7,11l1.5,0.8l3.8-3.6c7.1-6.6,15.5-12.3,23-15.6c2.4-1.1,3.2-1.7,3.2-2.3c0-0.5-0.7-5.6-1.6-11.3c-1.9-12.1-1.9-12.6-0.7-14.9c2-4,5.5-5.7,14.3-7.2C114.9,17.5,119.6,17.5,122.4,18.7z"/><path fill="#000000" d="M118,68.1c-13.1,1.8-24.8,7.6-34.5,16.9c-12.4,12-18.6,26.8-18.6,44.2c0,10.6,2,18.8,6.7,28c10.5,20.5,31.3,33.1,54.1,33.1c33.9,0,61.2-27.3,61.2-61.3c0-26.4-16.7-49.8-41.6-58.3C137.7,68.2,125.9,67,118,68.1z M138.5,76.8c5.5,1.5,10.6,3.6,14.7,6.1l3.8,2.4l-2.4,2.4c-1.3,1.3-2.4,2.5-2.4,2.7c0,0.1,1.4,2.6,3,5.4c1.7,2.8,3,5.2,2.9,5.3c0,0.1-1.4,0.5-3,0.8c-2.8,0.7-2.8,0.7-7.5-0.8c-6.4-2.1-11.9-3-17.6-3c-6.2,0-10.9,1.4-15.8,4.8l-3.3,2.3l-3.9-0.3c-4.4-0.3-8.2-1.5-10.5-3.5l-1.5-1.3l3.9-6.5l4-6.6l-1.5-2.6l-1.5-2.5l3.9-1.8c3.7-1.8,9-3.4,13.3-4.2c1.2-0.2,5.7-0.3,10-0.3C133.3,75.8,135.9,76,138.5,76.8z M139.7,103.5c2,0.4,5.7,1.5,8.2,2.4l4.5,1.6l4.3-1.1c2.4-0.6,4.3-1.1,4.3-1.1c0.8,1.2,15,25.4,15,25.7c0,0.4-9.4,7.4-9.9,7.4c-0.1,0-1.2-0.7-2.2-1.6c-4.4-3.6-30.2-20.5-34.5-22.7c-2.4-1.2-5.8-1.5-7.5-0.6c-0.6,0.3-3,2.4-5.4,4.6c-5.1,4.7-7.6,6.5-9,6.5c-6.2,0,2.8-14.5,12.2-19.6C124.5,102.2,131.4,101.8,139.7,103.5z M98.7,107.8c1.3,0.6,3.8,1.2,5.4,1.3l3,0.3l-1.7,2.3c-5.9,8.2-6.1,14.4-0.6,16.6c3.8,1.6,6.4,0.3,14.2-6.8c4.3-4,5-4.4,6.2-4.2c1.6,0.3,5.5,2.7,21.7,13.4c16.9,11.2,18.8,12.9,18.1,16c-0.4,1.6-2.6,2.5-4.6,1.9c-0.8-0.2-5.6-3.1-10.7-6.4c-5.1-3.2-9.7-5.9-10.3-5.9c-1.3,0-1.9,0.8-1.8,2.4c0.1,0.9,1.8,2.2,9.6,7.2c7.1,4.5,9.5,6.3,9.6,7.1c0.2,1.6-1.1,3.2-2.9,3.5c-1.4,0.3-2.4-0.1-8.2-3.4c-3.6-2.1-7-3.7-7.4-3.7c-1.2,0-2.4,2-1.8,3.1c0.3,0.5,3.1,2.3,6.3,4.1c3.6,2,5.8,3.5,5.8,4c0,0.4-0.5,1.2-1.1,1.8c-1.8,1.7-3.7,1.5-8-1.1c-4.2-2.4-5.9-2.6-6.4-0.5c-0.4,1.5,0.2,2.2,3.3,4c1.4,0.8,2.5,1.6,2.5,1.8c0,0.6-2.2,2.8-2.9,2.8c-0.3,0-2.6-1.1-5-2.4c-3.6-2-4.3-2.6-4.2-3.3c0.1-0.5,0.2-2.1,0.2-3.5c0-3-1.2-5.2-3.6-6c-1.5-0.6-1.6-0.7-1.3-2.2c0.4-2.5-1.4-5.5-3.8-6.7c-1.8-0.9-1.9-1-2-3c0-3.9-3.1-7.1-6.8-7.1c-2.9,0-4.7,1.1-7.1,4.4c-1.8,2.6-2,2.7-2.7,1.8c-2.1-2.6-6-3.3-9-1.5c-1.7,1-1.7,1-2.9,0.1c-3.2-2.3-10-10.4-9.6-11.4c0.2-0.6,10.7-18,13.5-22.5l1.1-1.7l1.7,1.3C95.5,106.2,97.4,107.2,98.7,107.8z M78.5,136.6c1.6,1.9,3.9,4.4,5.3,5.5l2.4,2.1l-1.2,2.3c-1.2,2.6-1.2,4.3,0.4,6.8c1.1,1.9,2.7,2.9,4.9,3.2c1.5,0.2,1.9,0.5,2.5,2c0.8,2,3,3.5,5.6,3.9c1.4,0.2,1.8,0.6,2.4,1.8c0.8,2,3.2,3.9,5.4,4.2c1.5,0.3,1.9,0.6,2.4,1.8c1.2,2.9,5.1,4.8,8,4c2.4-0.7,2.9-1.2,6.8-6.4c0-0.1,2.4,1.1,5.2,2.6c4.3,2.4,5.4,2.8,7.4,2.8c2,0,2.6-0.2,4-1.4c0.9-0.8,2-2,2.4-2.8c0.6-1.1,1.1-1.3,2.6-1.3c3.2,0,6.3-2.2,7.7-5.4c0.5-1.1,1-1.4,2.2-1.6c3.3-0.6,5.4-2.7,6.8-6.9c0.2-0.5,0.8-0.8,1.6-0.8c1.6,0,4-1.5,5.4-3.4c1-1.3,1.3-5,0.6-7c-0.3-0.8,0.4-1.5,4.3-4.3c3-2.2,4.8-3.2,5.1-3c1.1,1.1-2,12-5.1,18.1c-13.6,26.9-46.6,37.4-73,23.1c-7-3.8-14.5-10.6-18.9-17c-3.1-4.6-6.4-11.8-7.8-17.3l-1.2-5l1.1-2.1c0.6-1.1,1.2-2,1.4-2C75.5,133.2,76.9,134.7,78.5,136.6z M111.3,140.1c0.5,0.5,0.9,1.2,0.9,1.6c0,1.2-11,15.7-12.3,16.2c-1.4,0.5-2.5-0.1-3.1-1.7c-0.4-1.1,0.2-2,5.4-9.1C108.6,138.6,109.3,138.1,111.3,140.1z M96.1,143.8c0.5,0.5,0.9,1.2,0.9,1.7c0,0.8-2.9,5.1-4.1,6c-1.5,1.3-4.2,0.1-4.2-1.8c0-0.9,3.3-5.7,4.3-6.4C93.9,142.7,95.1,142.9,96.1,143.8z M116.8,149.4c0.5,0.5,0.9,1.3,0.9,1.8c0,0.7-6.2,9.6-8.4,12c-1.7,1.8-4.5,1-4.5-1.4c0-0.6,1.4-2.9,3.1-5.2C114.4,147.8,114.9,147.4,116.8,149.4z M122.6,158.8c0.4,0.6,0.6,1.4,0.5,1.8c-0.7,1.8-6.6,9.1-7.7,9.4c-1.4,0.3-3.4-1.7-3-3c0.1-0.4,1.7-2.7,3.5-5.1c2.7-3.7,3.3-4.2,4.5-4.2C121.4,157.7,122.1,158,122.6,158.8z"/></g></g></g>
</svg>