<?xml version="1.0" encoding="UTF-8"?><svg id="Layer_1" xmlns="http://www.w3.org/2000/svg" xmlns:xlink="http://www.w3.org/1999/xlink" viewBox="0 0 557.5 557.5"><defs><style>.cls-1{fill:#fff;}.cls-2{fill:url(#linear-gradient);}</style><linearGradient id="linear-gradient" x1="583.5" y1="242.75" x2="26" y2="242.75" gradientTransform="translate(-26 36)" gradientUnits="userSpaceOnUse"><stop offset="0" stop-color="#3c3c3b"/><stop offset="1" stop-color="#191919"/></linearGradient></defs><circle class="cls-2" cx="278.75" cy="278.75" r="278.75"/><path class="cls-1" d="M242.83,87.39c-14.28,2.46-19.7,4.27-24.79,8.21-6.9,5.42-10.02,10.51-11.33,17.57-.82,4.1-.33,8.54,2.46,25.78.66,3.94,1.15,7.72,1.15,8.37s-2.3,2.46-5.42,4.1c-8.05,4.27-19.87,12.31-26.6,18.06l-5.91,4.93-12.31-6.9c-13.79-7.88-18.22-9.69-23.81-9.69-9.03,0-19.87,5.75-25.45,13.3-1.48,1.97-5.42,8.54-8.87,14.45-8.05,13.96-10.18,21.51-8.54,30.21,1.97,10.84,6.4,15.6,22.66,24.46,6.24,3.45,11.99,6.73,12.64,7.22,1.15.82,1.15,1.64-.33,10.02-1.15,6.57-1.64,12.81-1.81,22.99l-.16,13.96-14.28,5.75c-15.43,6.24-18.72,8.21-22.17,13.46-3.78,5.58-4.93,10.34-4.93,18.39,0,7.06,0,7.39,5.42,20.85,2.96,7.55,6.57,15.43,8.05,17.57,4.93,7.39,12.31,12.31,20.69,13.96,6.24,1.15,9.36.49,25.28-5.91l12.97-5.25,10.84,10.84c5.91,5.91,13.63,12.97,17.24,15.6,3.61,2.63,6.57,4.76,6.73,4.93s-1.64,6.57-3.94,14.12c-5.25,17.24-5.58,21.67-1.97,29.23,2.63,5.58,8.54,11.66,14.12,14.78,1.97.99,9.69,3.78,16.91,5.91,12.15,3.61,13.96,3.94,20.85,3.94,8.54,0,13.79-1.64,19.54-5.91,5.42-4.1,7.06-7.55,11.82-22.82l4.27-14.28,9.52-.49c10.67-.49,20.69-1.97,30.87-4.93,3.94-.99,7.39-1.64,7.55-1.15,7.72,11.33,16.75,23.31,19.05,25.45,4.43,3.78,9.69,5.42,16.91,5.42,9.19,0,13.3-1.64,27.58-11.16,18.88-12.81,24.3-19.7,24.96-32.18.49-8.21-.33-10.02-10.34-24.46l-8.21-11.82,1.48-1.97c7.55-9.85,17.08-26.43,21.34-36.94l1.15-3.12,5.09.33c25.94,1.97,28.4,1.81,34.97-2.13,6.9-4.1,12.48-12.48,14.45-21.51.49-2.13,1.15-9.85,1.64-17.24.82-11.82.82-13.96-.33-18.88-2.13-9.69-7.88-17.57-15.43-21.02-2.96-1.31-6.07-1.97-16.42-2.79-7.06-.49-14.12-.99-15.6-.99h-2.79l-1.64-6.07c-2.63-9.52-6.73-20.19-11.66-29.55-4.43-8.37-4.43-8.7-3.12-10.18.82-.99,4.93-5.58,9.36-10.34,10.02-10.84,11-12.31,12.48-18.22,1.97-7.55.16-16.25-4.93-23.97-4.6-6.9-23.15-23.31-30.37-26.76-5.42-2.63-5.91-2.79-13.96-2.79-11.49,0-13.13.99-26.11,14.94-5.58,5.91-10.34,11.16-10.67,11.49-.16.33-4.43-.99-9.03-2.79-9.85-3.94-20.03-6.73-29.72-8.54-3.78-.66-6.9-1.15-6.9-1.31,0,0-.99-6.24-2.13-13.79-2.63-17.24-3.45-19.87-8.05-24.79-6.07-6.73-15.11-10.51-24.63-10.34-2.79.33-10.51,1.31-17.4,2.46ZM269.43,99.54c4.27,1.97,7.39,4.76,8.21,7.88.66,1.97,6.07,35.63,6.07,37.6,0,.33,1.64.99,3.61,1.15,19.37,2.63,31.69,5.91,47.12,12.81l8.7,3.94,1.64-1.97c.99-.99,6.73-7.39,12.81-14.12,12.64-13.63,14.78-15.11,21.67-14.28,5.75.66,10.51,3.61,19.87,12.15,10.02,9.03,12.48,11.82,14.28,15.93,1.48,3.28,1.97,9.03.66,12.15-.66,1.64-10.84,13.13-23.31,26.27l-3.28,3.45,3.78,6.07c8.54,13.63,14.78,28.9,18.22,44.33l1.64,7.22,17.24.99c9.52.49,18.55,1.31,20.19,1.64,6.4,1.31,11.16,9.03,11.16,18.39,0,14.45-1.48,26.93-3.94,31.69-1.64,3.28-6.9,8.05-9.36,8.7-.99.16-10.18,0-20.19-.82-10.18-.66-18.72-.99-18.88-.66-.33.33-1.81,3.94-3.28,7.88-5.58,14.45-12.81,27.25-22.66,39.24-2.79,3.45-5.09,6.4-5.09,6.73,0,.16,4.6,6.9,10.18,14.94,5.58,8.05,10.51,15.43,11,16.42,2.13,4.1-.82,12.81-5.91,17.73-4.27,3.94-23.15,16.42-26.93,17.73-4.6,1.48-12.48,1.15-15.27-.66-.99-.66-6.73-8.21-12.64-16.75l-10.84-15.43-7.72,2.46c-14.12,4.6-30.7,7.06-46.3,7.06h-7.72l-5.25,17.57c-2.96,9.69-5.91,18.72-6.9,19.87-2.3,3.45-6.73,5.25-12.97,5.58-4.76.33-7.06-.16-17.73-3.28-12.81-3.78-15.27-4.76-19.21-7.72-2.96-2.3-6.4-8.54-6.4-11.49,0-1.31,2.3-10.02,5.25-19.7,2.96-9.52,5.25-17.73,5.25-18.22s-2.96-2.79-6.57-5.25c-12.97-8.7-21.84-16.75-31.85-28.9l-6.4-7.88-2.79,1.15c-17.9,7.55-33.17,13.13-35.96,13.13-4.43,0-10.67-3.78-13.79-8.37-1.31-1.97-4.6-8.87-7.06-15.43-4.27-10.67-4.93-12.64-4.93-17.08,0-5.58,1.64-9.69,4.93-12.81.99-.99,9.85-4.93,19.54-8.87l17.73-7.06v-19.21c0-18.22.16-19.87,2.13-29.06,1.15-5.42,2.13-10.51,2.3-11.33,0-1.15-3.45-3.61-16.91-11.16-19.54-11-20.52-11.99-21.02-20.03-.49-6.4.49-8.7,7.88-21.67,9.19-15.27,14.12-19.54,22.99-19.54,2.96,0,11.99,4.6,35.63,18.06l2.46,1.31,6.24-5.91c11.66-10.84,25.45-20.19,37.76-25.61,3.94-1.81,5.25-2.79,5.25-3.78,0-.82-1.15-9.19-2.63-18.55-3.12-19.87-3.12-20.69-1.15-24.46,3.28-6.57,9.03-9.36,23.48-11.82,13.63-2.3,21.34-2.3,25.94-.33Z"/><path class="cls-1" d="M262.21,180.65c-21.51,2.96-40.72,12.48-56.64,27.75-20.36,19.7-30.54,44-30.54,72.57,0,17.4,3.28,30.87,11,45.97,17.24,33.66,51.39,54.35,88.82,54.35,55.66,0,100.48-44.82,100.48-100.65,0-43.35-27.42-81.76-68.3-95.72-12.48-4.1-31.85-6.07-44.82-4.27ZM295.86,194.94c9.03,2.46,17.4,5.91,24.14,10.02l6.24,3.94-3.94,3.94c-2.13,2.13-3.94,4.1-3.94,4.43,0,.16,2.3,4.27,4.93,8.87,2.79,4.6,4.93,8.54,4.76,8.7,0,.16-2.3.82-4.93,1.31q-4.6,1.15-12.31-1.31c-10.51-3.45-19.54-4.93-28.9-4.93-10.18,0-17.9,2.3-25.94,7.88l-5.42,3.78-6.4-.49c-7.22-.49-13.46-2.46-17.24-5.75l-2.46-2.13,6.4-10.67,6.57-10.84-2.46-4.27-2.46-4.1,6.4-2.96c6.07-2.96,14.78-5.58,21.84-6.9,1.97-.33,9.36-.49,16.42-.49,10.18.33,14.45.66,18.72,1.97ZM297.84,238.77c3.28.66,9.36,2.46,13.46,3.94l7.39,2.63,7.06-1.81c3.94-.99,7.06-1.81,7.06-1.81,1.31,1.97,24.63,41.7,24.63,42.2,0,.66-15.43,12.15-16.25,12.15-.16,0-1.97-1.15-3.61-2.63-7.22-5.91-49.58-33.66-56.64-37.27-3.94-1.97-9.52-2.46-12.31-.99-.99.49-4.93,3.94-8.87,7.55-8.37,7.72-12.48,10.67-14.78,10.67-10.18,0,4.6-23.81,20.03-32.18,7.88-4.6,19.21-5.25,32.84-2.46ZM230.52,245.83c2.13.99,6.24,1.97,8.87,2.13l4.93.49-2.79,3.78c-9.69,13.46-10.02,23.64-.99,27.25,6.24,2.63,10.51.49,23.31-11.16,7.06-6.57,8.21-7.22,10.18-6.9,2.63.49,9.03,4.43,35.63,22,27.75,18.39,30.87,21.18,29.72,26.27-.66,2.63-4.27,4.1-7.55,3.12-1.31-.33-9.19-5.09-17.57-10.51-8.37-5.25-15.93-9.69-16.91-9.69-2.13,0-3.12,1.31-2.96,3.94.16,1.48,2.96,3.61,15.76,11.82,11.66,7.39,15.6,10.34,15.76,11.66.33,2.63-1.81,5.25-4.76,5.75-2.3.49-3.94-.16-13.46-5.58-5.91-3.45-11.49-6.07-12.15-6.07-1.97,0-3.94,3.28-2.96,5.09.49.82,5.09,3.78,10.34,6.73,5.91,3.28,9.52,5.75,9.52,6.57,0,.66-.82,1.97-1.81,2.96-2.96,2.79-6.07,2.46-13.13-1.81-6.9-3.94-9.69-4.27-10.51-.82-.66,2.46.33,3.61,5.42,6.57,2.3,1.31,4.1,2.63,4.1,2.96,0,.99-3.61,4.6-4.76,4.6-.49,0-4.27-1.81-8.21-3.94-5.91-3.28-7.06-4.27-6.9-5.42.16-.82.33-3.45.33-5.75,0-4.93-1.97-8.54-5.91-9.85-2.46-.99-2.63-1.15-2.13-3.61.66-4.1-2.3-9.03-6.24-11-2.96-1.48-3.12-1.64-3.28-4.93,0-6.4-5.09-11.66-11.16-11.66-4.76,0-7.72,1.81-11.66,7.22-2.96,4.27-3.28,4.43-4.43,2.96-3.45-4.27-9.85-5.42-14.78-2.46q-2.79,1.64-4.76.16c-5.25-3.78-16.42-17.08-15.76-18.72.33-.99,17.57-29.55,22.17-36.94l1.81-2.79,2.79,2.13c1.64.82,4.76,2.46,6.9,3.45ZM197.35,293.12c2.63,3.12,6.4,7.22,8.7,9.03l3.94,3.45-1.97,3.78c-1.97,4.27-1.97,7.06.66,11.16,1.81,3.12,4.43,4.76,8.05,5.25,2.46.33,3.12.82,4.1,3.28,1.31,3.28,4.93,5.75,9.19,6.4,2.3.33,2.96.99,3.94,2.96,1.31,3.28,5.25,6.4,8.87,6.9,2.46.49,3.12.99,3.94,2.96,1.97,4.76,8.37,7.88,13.13,6.57,3.94-1.15,4.76-1.97,11.16-10.51,0-.16,3.94,1.81,8.54,4.27,7.06,3.94,8.87,4.6,12.15,4.6s4.27-.33,6.57-2.3c1.48-1.31,3.28-3.28,3.94-4.6.99-1.81,1.81-2.13,4.27-2.13,5.25,0,10.34-3.61,12.64-8.87.82-1.81,1.64-2.3,3.61-2.63,5.42-.99,8.87-4.43,11.16-11.33.33-.82,1.31-1.31,2.63-1.31,2.63,0,6.57-2.46,8.87-5.58,1.64-2.13,2.13-8.21.99-11.49-.49-1.31.66-2.46,7.06-7.06,4.93-3.61,7.88-5.25,8.37-4.93,1.81,1.81-3.28,19.7-8.37,29.72-22.33,44.17-76.51,61.41-119.86,37.93-11.49-6.24-23.81-17.4-31.03-27.91-5.09-7.55-10.51-19.37-12.81-28.4l-1.97-8.21,1.81-3.45c.99-1.81,1.97-3.28,2.3-3.28.49.16,2.79,2.63,5.42,5.75ZM251.21,298.87c.82.82,1.48,1.97,1.48,2.63,0,1.97-18.06,25.78-20.19,26.6-2.3.82-4.1-.16-5.09-2.79-.66-1.81.33-3.28,8.87-14.94,10.51-13.96,11.66-14.78,14.94-11.49ZM226.25,304.94c.82.82,1.48,1.97,1.48,2.79,0,1.31-4.76,8.37-6.73,9.85-2.46,2.13-6.9.16-6.9-2.96,0-1.48,5.42-9.36,7.06-10.51,1.48-.99,3.45-.66,5.09.82ZM260.24,314.14c.82.82,1.48,2.13,1.48,2.96,0,1.15-10.18,15.76-13.79,19.7-2.79,2.96-7.39,1.64-7.39-2.3,0-.99,2.3-4.76,5.09-8.54,10.67-14.45,11.49-15.11,14.61-11.82ZM269.76,329.57c.66.99.99,2.3.82,2.96-1.15,2.96-10.84,14.94-12.64,15.43-2.3.49-5.58-2.79-4.93-4.93.16-.66,2.79-4.43,5.75-8.37,4.43-6.07,5.42-6.9,7.39-6.9,1.64,0,2.79.49,3.61,1.81Z"/></svg>