<svg width="55" height="55" viewBox="0 0 55 55" fill="none" xmlns="http://www.w3.org/2000/svg">
<circle cx="27.5" cy="27.5" r="27.5" fill="#F4F4F4"/>
<path d="M25.9039 23.6062C23.9642 24.0005 21.8503 26.6856 21.8503 26.6856C21.5145 26.5323 21.1049 26.5929 20.8288 26.869C20.4735 27.2244 20.4735 27.8008 20.8288 28.1566L21.725 29.0527C22.0803 29.4081 22.6567 29.4081 23.0125 29.0527C23.2222 28.8431 23.3073 28.5564 23.2696 28.2836L23.8422 27.7123C23.86 27.7326 23.8769 27.7529 23.8964 27.7724L31.1214 34.997C31.564 35.4396 32.2815 35.4396 32.724 34.997C33.1666 34.5544 33.1666 33.8369 32.724 33.3943L25.8705 26.5416C25.8836 26.1994 25.926 25.6709 26.0573 25.1728C26.2745 24.3465 28.7975 23.981 28.7975 23.981L28.7018 23.3635C28.7018 23.3635 27.6934 23.2428 25.9039 23.6062Z" fill="#F48102"/>
<path d="M31.8876 26.1744L31.7004 24.8127L32.7922 23.7209C32.0269 23.5015 31.1689 23.6925 30.5662 24.2952C29.9635 24.8979 29.7725 25.7559 29.9919 26.5212L23.1019 33.4112C22.6741 33.839 22.6741 34.5323 23.1019 34.9601C23.5297 35.3878 24.223 35.3878 24.6507 34.9601L31.5407 28.0705C32.306 28.2899 33.1641 28.0989 33.7668 27.4962C34.3695 26.8935 34.5605 26.0355 34.3411 25.2701L33.2492 26.362L31.8876 26.1744Z" fill="#F48102"/>
<path d="M44.5367 15H11.4633C10.6552 15 10 15.6552 10 16.4633V19.0248V19.5737V39.1005C10 39.9086 10.6552 40.5638 11.4633 40.5638H44.5367C45.3448 40.5638 46 39.9086 46 39.1005V19.5733V19.0244V16.4629C46 15.6552 45.3448 15 44.5367 15ZM45.1521 39.1001C45.1521 39.4393 44.876 39.7155 44.5367 39.7155H11.4633C11.124 39.7155 10.8479 39.4393 10.8479 39.1001V19.8723H45.1521V39.1001ZM18.5146 16.5565C19.0402 16.5565 19.4663 16.9825 19.4663 17.5081C19.4663 18.0337 19.0402 18.4598 18.5146 18.4598C17.989 18.4598 17.563 18.0337 17.563 17.5081C17.563 16.9825 17.989 16.5565 18.5146 16.5565ZM15.666 16.5565C16.1916 16.5565 16.6176 16.9825 16.6176 17.5081C16.6176 18.0337 16.1916 18.4598 15.666 18.4598C15.1404 18.4598 14.7143 18.0337 14.7143 17.5081C14.7143 16.9825 15.1404 16.5565 15.666 16.5565ZM12.8177 16.5565C13.3433 16.5565 13.7694 16.9825 13.7694 17.5081C13.7694 18.0337 13.3433 18.4598 12.8177 18.4598C12.2921 18.4598 11.8661 18.0337 11.8661 17.5081C11.8661 16.9825 12.2921 16.5565 12.8177 16.5565Z" fill="#F48102"/>
</svg>
