<svg width="80" height="80" viewBox="0 0 80 80" fill="none" xmlns="http://www.w3.org/2000/svg">
<path d="M39.9999 80C62.0913 80 79.9999 62.0914 79.9999 40C79.9999 17.9086 62.0913 0 39.9999 0C17.9085 0 -0.00012207 17.9086 -0.00012207 40C-0.00012207 62.0914 17.9085 80 39.9999 80Z" fill="#FFF2E8"/>
<path d="M40 38C40.9889 38 41.9556 37.7068 42.7779 37.1574C43.6001 36.6079 44.241 35.8271 44.6194 34.9134C44.9978 33.9998 45.0969 32.9945 44.9039 32.0246C44.711 31.0546 44.2348 30.1637 43.5355 29.4645C42.8363 28.7652 41.9454 28.289 40.9755 28.0961C40.0055 27.9031 39.0002 28.0022 38.0866 28.3806C37.173 28.759 36.3921 29.3999 35.8427 30.2222C35.2932 31.0444 35 32.0111 35 33C35.0016 34.3256 35.5289 35.5964 36.4662 36.5338C37.4036 37.4711 38.6744 37.9984 40 38ZM40 30C40.5933 30 41.1734 30.1759 41.6667 30.5056C42.1601 30.8352 42.5446 31.3038 42.7716 31.852C42.9987 32.4001 43.0581 33.0033 42.9424 33.5853C42.8266 34.1672 42.5409 34.7018 42.1213 35.1213C41.7018 35.5409 41.1672 35.8266 40.5853 35.9424C40.0033 36.0581 39.4001 35.9987 38.8519 35.7716C38.3038 35.5446 37.8352 35.1601 37.5056 34.6667C37.1759 34.1734 37 33.5933 37 33C37 32.2044 37.3161 31.4413 37.8787 30.8787C38.4413 30.3161 39.2044 30 40 30Z" fill="#F48120"/>
<path d="M31.216 29.783C31.154 29.964 31.096 30.15 31.042 30.344L29.661 30.953C29.5005 31.0239 29.3615 31.1359 29.2579 31.2775C29.1544 31.4192 29.0899 31.5856 29.071 31.76C28.9763 32.584 28.9763 33.4161 29.071 34.24C29.0899 34.4145 29.1544 34.5809 29.2579 34.7225C29.3615 34.8642 29.5005 34.9761 29.661 35.047L31.042 35.656C31.096 35.8494 31.154 36.036 31.216 36.216L30.448 37.542C30.361 37.692 30.3146 37.8621 30.3132 38.0355C30.3118 38.2089 30.3555 38.3796 30.44 38.531C30.8441 39.2526 31.3267 39.9274 31.879 40.543C31.9981 40.6761 32.1507 40.7749 32.321 40.8291C32.4912 40.8833 32.6728 40.8908 32.847 40.851L34.299 40.518C34.4423 40.63 34.589 40.7384 34.739 40.843L34.88 42.383C34.8959 42.5578 34.9575 42.7253 35.0586 42.8687C35.1597 43.0121 35.2968 43.1264 35.456 43.2C36.1971 43.5465 36.975 43.8078 37.775 43.979C37.9498 44.0156 38.1313 44.0046 38.3005 43.9473C38.4696 43.8899 38.6204 43.7883 38.737 43.653L39.73 42.5C39.909 42.508 40.091 42.508 40.27 42.5L41.263 43.652C41.3567 43.761 41.4729 43.8486 41.6035 43.9086C41.7342 43.9687 41.8762 43.9999 42.02 44C42.0872 43.9996 42.1542 43.9926 42.22 43.979C43.0199 43.8077 43.7979 43.5464 44.539 43.2C44.6979 43.1263 44.8347 43.0121 44.9356 42.8689C45.0365 42.7257 45.098 42.5585 45.114 42.384L45.255 40.843C45.4063 40.7377 45.5533 40.6294 45.696 40.518L47.148 40.851C47.3221 40.8908 47.5038 40.8833 47.674 40.8291C47.8443 40.7749 47.9969 40.6761 48.116 40.543C48.6684 39.9279 49.151 39.2534 49.555 38.532C49.6395 38.3806 49.6832 38.2099 49.6818 38.0365C49.6804 37.8631 49.634 37.693 49.547 37.543L48.779 36.217C48.841 36.036 48.899 35.85 48.953 35.656L50.334 35.047C50.4945 34.9761 50.6335 34.8642 50.7371 34.7225C50.8406 34.5809 50.9051 34.4145 50.924 34.24C51.0187 33.4161 51.0187 32.584 50.924 31.76C50.9051 31.5856 50.8406 31.4192 50.7371 31.2775C50.6335 31.1359 50.4945 31.0239 50.334 30.953L48.953 30.344C48.899 30.1507 48.841 29.964 48.779 29.784L49.547 28.458C49.634 28.308 49.6804 28.138 49.6818 27.9646C49.6832 27.7912 49.6395 27.6204 49.555 27.469C49.1509 26.7474 48.6683 26.0727 48.116 25.457C47.9969 25.3239 47.8443 25.2251 47.674 25.171C47.5038 25.1168 47.3221 25.1092 47.148 25.149L46 25.413V19C45.9994 17.9266 45.7108 16.8729 45.1643 15.949C44.6178 15.025 43.8334 14.2646 42.893 13.747C43.4339 13.1805 43.7966 12.4677 43.9361 11.697C44.0755 10.9262 43.9857 10.1315 43.6776 9.41137C43.3695 8.69124 42.8568 8.07741 42.203 7.64602C41.5493 7.21464 40.7833 6.98468 40 6.98468C39.2167 6.98468 38.4507 7.21464 37.797 7.64602C37.1432 8.07741 36.6305 8.69124 36.3224 9.41137C36.0143 10.1315 35.9245 10.9262 36.0639 11.697C36.2034 12.4677 36.5661 13.1805 37.107 13.747C36.1666 14.2646 35.3822 15.025 34.8357 15.949C34.2892 16.8729 34.0006 17.9266 34 19V25.413L32.847 25.149C32.6728 25.1092 32.4912 25.1168 32.321 25.171C32.1507 25.2251 31.9981 25.3239 31.879 25.457C31.3266 26.0722 30.844 26.7466 30.44 27.468C30.3555 27.6194 30.3118 27.7902 30.3132 27.9636C30.3146 28.137 30.361 28.307 30.448 28.457L31.216 29.783ZM38 11C38 10.6045 38.1173 10.2178 38.3371 9.88889C38.5568 9.55999 38.8692 9.30364 39.2346 9.15227C39.6001 9.00089 40.0022 8.96128 40.3902 9.03845C40.7781 9.11562 41.1345 9.30611 41.4142 9.58581C41.6939 9.86552 41.8844 10.2219 41.9616 10.6098C42.0387 10.9978 41.9991 11.3999 41.8478 11.7654C41.6964 12.1308 41.44 12.4432 41.1111 12.663C40.7822 12.8827 40.3956 13 40 13C39.4696 13 38.9609 12.7893 38.5858 12.4142C38.2107 12.0392 38 11.5305 38 11ZM36 19C36 17.9392 36.4214 16.9217 37.1716 16.1716C37.9217 15.4215 38.9391 15 40 15C41.0609 15 42.0783 15.4215 42.8284 16.1716C43.5786 16.9217 44 17.9392 44 19V22.564C43.864 22.51 43.727 22.464 43.59 22.419C43.485 22.381 43.38 22.342 43.275 22.307C42.9302 22.1934 42.5798 22.0979 42.225 22.021C42.0501 21.9845 41.8687 21.9955 41.6995 22.0528C41.5304 22.1101 41.3796 22.2117 41.263 22.347L40.27 23.5C40.18 23.5 40.091 23.494 40 23.494C39.909 23.494 39.82 23.494 39.73 23.5L39.399 23.116L38.738 22.348C38.6504 22.2465 38.5433 22.1637 38.423 22.1044C38.3028 22.0452 38.1718 22.0107 38.038 22.003C37.9486 21.9979 37.8588 22.0043 37.771 22.022H37.763C37.4102 22.0986 37.0617 22.1937 36.719 22.307C36.619 22.34 36.519 22.379 36.411 22.416C36.273 22.466 36.134 22.508 35.996 22.563L36 19ZM32.3 31.977C32.4428 31.9141 32.5689 31.8187 32.6682 31.6984C32.7675 31.5781 32.8373 31.4362 32.872 31.284C32.9627 30.8714 33.0884 30.4672 33.248 30.076C33.3069 29.9339 33.3322 29.7801 33.322 29.6266C33.3118 29.4731 33.2662 29.3241 33.189 29.191L32.478 27.964C32.6393 27.714 32.813 27.471 32.999 27.235L34.338 27.542C34.4928 27.5775 34.6538 27.5756 34.8077 27.5364C34.9616 27.4973 35.1039 27.4221 35.223 27.317C35.334 27.217 35.47 27.139 35.589 27.047C35.597 27.041 35.606 27.039 35.613 27.033L35.713 26.953C35.856 26.847 35.988 26.734 36.141 26.636C36.167 26.618 36.191 26.596 36.219 26.579C36.3506 26.4975 36.4615 26.3864 36.5428 26.2547C36.6242 26.123 36.6739 25.9742 36.688 25.82L36.819 24.392C37.0829 24.2872 37.3519 24.1957 37.625 24.118L38.541 25.182C38.6426 25.3026 38.7719 25.3967 38.9179 25.4565C39.0638 25.5162 39.222 25.5397 39.379 25.525H39.385C39.7949 25.49 40.2071 25.49 40.617 25.525H40.622C40.779 25.5401 40.9374 25.5168 41.0834 25.4571C41.2294 25.3973 41.3586 25.3029 41.46 25.182L42.378 24.118C42.649 24.196 42.916 24.2875 43.178 24.392L43.309 25.819C43.3229 25.9734 43.3726 26.1224 43.4539 26.2543C43.5353 26.3862 43.6463 26.4974 43.778 26.579C43.795 26.589 43.809 26.603 43.826 26.614C43.991 26.714 44.133 26.841 44.287 26.955L44.387 27.033C44.393 27.033 44.401 27.039 44.407 27.044C44.528 27.137 44.664 27.218 44.777 27.317C44.8961 27.4221 45.0384 27.4973 45.1923 27.5364C45.3462 27.5756 45.5072 27.5775 45.662 27.542L47 27.235C47.187 27.471 47.362 27.715 47.522 27.964L46.811 29.191C46.7339 29.3239 46.6885 29.4728 46.6783 29.6261C46.668 29.7794 46.6933 29.933 46.752 30.075C46.9113 30.4667 47.037 30.8711 47.128 31.284C47.1627 31.4362 47.2325 31.5781 47.3318 31.6984C47.4311 31.8187 47.5572 31.9141 47.7 31.977L48.983 32.543C48.992 32.694 48.996 32.843 48.996 33C48.996 33.157 48.996 33.306 48.983 33.457L47.7 34.023C47.5572 34.0859 47.4311 34.1813 47.3318 34.3017C47.2325 34.422 47.1627 34.5639 47.128 34.716C47.0373 35.1287 46.9116 35.5328 46.752 35.924C46.6931 36.0661 46.6678 36.2199 46.678 36.3734C46.6882 36.5269 46.7338 36.676 46.811 36.809L47.522 38.036C47.3607 38.286 47.187 38.529 47.001 38.765L45.662 38.458C45.5072 38.4226 45.3462 38.4245 45.1923 38.4636C45.0384 38.5027 44.8961 38.5779 44.777 38.683C44.465 38.957 44.1305 39.2042 43.777 39.422C43.6454 39.5036 43.5345 39.6146 43.4532 39.7463C43.3718 39.878 43.3221 40.0268 43.308 40.181L43.177 41.608C42.9131 41.7128 42.6441 41.8042 42.371 41.882L41.454 40.818C41.3508 40.6985 41.2209 40.6052 41.0747 40.5455C40.9285 40.4859 40.7703 40.4618 40.613 40.475C40.2017 40.509 39.7883 40.509 39.377 40.475C39.2197 40.4618 39.0615 40.4859 38.9153 40.5455C38.7691 40.6052 38.6392 40.6985 38.536 40.818L37.619 41.882C37.3459 41.8044 37.0769 41.7129 36.813 41.608L36.683 40.181C36.6688 40.0265 36.6189 39.8774 36.5372 39.7455C36.4554 39.6135 36.3441 39.5025 36.212 39.421C35.8583 39.2038 35.5238 38.9569 35.212 38.683C35.0929 38.5779 34.9506 38.5027 34.7967 38.4636C34.6428 38.4245 34.4818 38.4226 34.327 38.458L33 38.765C32.813 38.529 32.638 38.285 32.478 38.036L33.189 36.809C33.2661 36.6761 33.3115 36.5272 33.3217 36.3739C33.332 36.2206 33.3067 36.067 33.248 35.925C33.0887 35.5334 32.9629 35.1289 32.872 34.716C32.8373 34.5639 32.7675 34.422 32.6682 34.3017C32.5689 34.1813 32.4428 34.0859 32.3 34.023L31.017 33.457C31 33.306 31 33.153 31 33C31 32.847 31 32.694 31.013 32.543L32.3 31.977Z" fill="#F48120"/>
<path d="M59 51C58.0111 51 57.0444 51.2932 56.2222 51.8427C55.3999 52.3921 54.759 53.173 54.3806 54.0866C54.0022 55.0002 53.9031 56.0055 54.0961 56.9755C54.289 57.9454 54.7652 58.8363 55.4645 59.5355C56.1637 60.2348 57.0546 60.711 58.0245 60.9039C58.9945 61.0969 59.9998 60.9978 60.9134 60.6194C61.8271 60.241 62.6079 59.6001 63.1574 58.7779C63.7068 57.9556 64 56.9889 64 56C63.9984 54.6744 63.4711 53.4036 62.5338 52.4662C61.5964 51.5289 60.3256 51.0016 59 51ZM59 59C58.4067 59 57.8266 58.8241 57.3333 58.4944C56.8399 58.1648 56.4554 57.6962 56.2284 57.148C56.0013 56.5999 55.9419 55.9967 56.0576 55.4147C56.1734 54.8328 56.4591 54.2982 56.8787 53.8787C57.2982 53.4591 57.8328 53.1734 58.4147 53.0576C58.9967 52.9419 59.5999 53.0013 60.1481 53.2284C60.6962 53.4554 61.1648 53.8399 61.4944 54.3333C61.8241 54.8266 62 55.4067 62 56C62 56.7956 61.6839 57.5587 61.1213 58.1213C60.5587 58.6839 59.7957 59 59 59Z" fill="#F48120"/>
<path d="M69.339 53.953L67.958 53.344C67.904 53.1514 67.846 52.9647 67.784 52.784L68.552 51.458C68.639 51.308 68.6854 51.138 68.6868 50.9646C68.6882 50.7912 68.6445 50.6204 68.56 50.469C68.1559 49.7474 67.6733 49.0727 67.121 48.457C67.0019 48.3239 66.8493 48.2251 66.679 48.171C66.5088 48.1168 66.3271 48.1092 66.153 48.149L65 48.413V42C64.9994 40.9266 64.7108 39.8729 64.1643 38.949C63.6178 38.025 62.8334 37.2646 61.893 36.747C62.4339 36.1805 62.7966 35.4677 62.9361 34.697C63.0755 33.9262 62.9857 33.1315 62.6776 32.4114C62.3695 31.6912 61.8568 31.0774 61.203 30.646C60.5493 30.2146 59.7833 29.9847 59 29.9847C58.2167 29.9847 57.4507 30.2146 56.797 30.646C56.1432 31.0774 55.6305 31.6912 55.3224 32.4114C55.0143 33.1315 54.9245 33.9262 55.0639 34.697C55.2034 35.4677 55.5661 36.1805 56.107 36.747C55.1666 37.2646 54.3822 38.025 53.8357 38.949C53.2892 39.8729 53.0006 40.9266 53 42V48.413L51.847 48.149C51.6728 48.1092 51.4912 48.1168 51.321 48.171C51.1507 48.2251 50.9981 48.3239 50.879 48.457C50.3266 49.0722 49.844 49.7466 49.44 50.468C49.3555 50.6194 49.3118 50.7902 49.3132 50.9636C49.3146 51.137 49.361 51.307 49.448 51.457L50.216 52.783C50.154 52.964 50.096 53.15 50.042 53.344L48.661 53.953C48.5005 54.0239 48.3615 54.1359 48.2579 54.2775C48.1544 54.4192 48.0899 54.5856 48.071 54.76C47.9763 55.584 47.9763 56.4161 48.071 57.24C48.0899 57.4145 48.1544 57.5809 48.2579 57.7225C48.3615 57.8642 48.5005 57.9761 48.661 58.047L50.042 58.656C50.096 58.8487 50.154 59.0354 50.216 59.216L49.448 60.542C49.361 60.692 49.3146 60.8621 49.3132 61.0355C49.3118 61.2089 49.3555 61.3796 49.44 61.531C49.8441 62.2526 50.3267 62.9274 50.879 63.543C50.9981 63.6761 51.1507 63.7749 51.321 63.8291C51.4912 63.8833 51.6728 63.8908 51.847 63.851L53.299 63.518C53.4423 63.63 53.589 63.7384 53.739 63.843L53.88 65.383C53.8959 65.5578 53.9575 65.7253 54.0586 65.8687C54.1597 66.0121 54.2968 66.1264 54.456 66.2C55.1971 66.5465 55.975 66.8078 56.775 66.979C56.9499 67.0156 57.1313 67.0046 57.3005 66.9473C57.4696 66.8899 57.6204 66.7883 57.737 66.653L58.73 65.5C58.909 65.508 59.091 65.508 59.27 65.5L60.263 66.652C60.3567 66.761 60.4729 66.8486 60.6035 66.9086C60.7342 66.9687 60.8762 66.9998 61.02 67C61.0872 66.9996 61.1542 66.9926 61.22 66.979C62.0199 66.8077 62.7979 66.5464 63.539 66.2C63.6979 66.1263 63.8347 66.0121 63.9356 65.8689C64.0365 65.7257 64.098 65.5585 64.114 65.384L64.255 63.843C64.4063 63.7377 64.5533 63.6294 64.696 63.518L66.148 63.851C66.3221 63.8908 66.5038 63.8833 66.674 63.8291C66.8443 63.7749 66.9969 63.6761 67.116 63.543C67.6684 62.9279 68.151 62.2534 68.555 61.532C68.6395 61.3806 68.6832 61.2099 68.6818 61.0365C68.6804 60.8631 68.634 60.693 68.547 60.543L67.779 59.217C67.841 59.036 67.899 58.85 67.953 58.656L69.334 58.047C69.4945 57.9761 69.6335 57.8642 69.7371 57.7225C69.8406 57.5809 69.9051 57.4145 69.924 57.24C70.0187 56.4161 70.0187 55.584 69.924 54.76C69.9056 54.5861 69.8419 54.42 69.7392 54.2784C69.6366 54.1368 69.4986 54.0246 69.339 53.953ZM57 34C57 33.6045 57.1173 33.2178 57.3371 32.8889C57.5568 32.56 57.8692 32.3036 58.2346 32.1523C58.6001 32.0009 59.0022 31.9613 59.3902 32.0385C59.7781 32.1156 60.1345 32.3061 60.4142 32.5858C60.6939 32.8655 60.8844 33.2219 60.9616 33.6098C61.0387 33.9978 60.9991 34.3999 60.8478 34.7654C60.6964 35.1308 60.44 35.4432 60.1111 35.663C59.7822 35.8827 59.3956 36 59 36C58.4696 36 57.9609 35.7893 57.5858 35.4142C57.2107 35.0392 57 34.5305 57 34ZM55 42C55 40.9392 55.4214 39.9217 56.1716 39.1716C56.9217 38.4215 57.9391 38 59 38C60.0609 38 61.0783 38.4215 61.8284 39.1716C62.5786 39.9217 63 40.9392 63 42V45.564C62.864 45.51 62.727 45.464 62.59 45.419C62.485 45.381 62.38 45.342 62.275 45.307C61.9302 45.1934 61.5798 45.0979 61.225 45.021C61.0501 44.9845 60.8687 44.9955 60.6995 45.0528C60.5304 45.1101 60.3796 45.2117 60.263 45.347L59.27 46.5C59.18 46.5 59.091 46.494 59 46.494C58.909 46.494 58.82 46.494 58.73 46.5L58.399 46.116L57.738 45.348C57.6212 45.2127 57.4703 45.1112 57.301 45.054C57.1315 44.9974 56.9501 44.9863 56.775 45.022H56.767C56.4142 45.0986 56.0657 45.1937 55.723 45.307C55.623 45.34 55.523 45.379 55.415 45.416C55.277 45.466 55.138 45.508 55 45.563V42ZM67.987 56.457L66.704 57.023C66.5612 57.0859 66.4351 57.1813 66.3358 57.3017C66.2365 57.422 66.1667 57.5639 66.132 57.716C66.0413 58.1287 65.9156 58.5328 65.756 58.924C65.6971 59.0661 65.6718 59.2199 65.682 59.3734C65.6922 59.5269 65.7378 59.676 65.815 59.809L66.526 61.036C66.3647 61.286 66.191 61.529 66.005 61.765L64.666 61.458C64.5112 61.4221 64.3501 61.4237 64.1961 61.4629C64.0421 61.502 63.8998 61.5775 63.781 61.683C63.469 61.957 63.1345 62.2042 62.781 62.422C62.6494 62.5036 62.5385 62.6146 62.4572 62.7463C62.3758 62.878 62.3261 63.0268 62.312 63.181L62.181 64.608C61.9171 64.7127 61.6481 64.8042 61.375 64.882L60.458 63.818C60.3548 63.6985 60.2249 63.6052 60.0787 63.5455C59.9325 63.4859 59.7743 63.4618 59.617 63.475C59.2057 63.509 58.7923 63.509 58.381 63.475C58.2237 63.4618 58.0655 63.4859 57.9193 63.5455C57.7731 63.6052 57.6432 63.6985 57.54 63.818L56.623 64.882C56.3499 64.8044 56.0809 64.7129 55.817 64.608L55.687 63.181C55.6728 63.0265 55.6229 62.8774 55.5412 62.7455C55.4594 62.6135 55.3481 62.5025 55.216 62.421C54.8623 62.2038 54.5278 61.9569 54.216 61.683C54.0972 61.5775 53.9548 61.502 53.8009 61.4629C53.6469 61.4237 53.4858 61.4221 53.331 61.458L52 61.765C51.813 61.529 51.638 61.285 51.478 61.036L52.189 59.809C52.2661 59.6761 52.3115 59.5272 52.3217 59.3739C52.332 59.2206 52.3067 59.067 52.248 58.925C52.0887 58.5334 51.9629 58.1289 51.872 57.716C51.8373 57.5639 51.7675 57.422 51.6682 57.3017C51.5689 57.1813 51.4428 57.0859 51.3 57.023L50.017 56.457C50 56.306 50 56.153 50 56C50 55.847 50 55.694 50.013 55.543L51.296 54.977C51.4388 54.9141 51.5649 54.8187 51.6642 54.6984C51.7635 54.5781 51.8333 54.4362 51.868 54.284C51.9587 53.8714 52.0844 53.4672 52.244 53.076C52.3029 52.9339 52.3282 52.7801 52.318 52.6266C52.3078 52.4731 52.2622 52.3241 52.185 52.191L51.474 50.964C51.6353 50.714 51.809 50.471 51.995 50.235L53.334 50.542C53.4888 50.5775 53.6498 50.5756 53.8037 50.5364C53.9576 50.4973 54.0999 50.4221 54.219 50.317C54.33 50.217 54.466 50.139 54.585 50.047C54.593 50.041 54.602 50.039 54.609 50.033L54.709 49.953C54.852 49.847 54.984 49.734 55.137 49.636C55.163 49.618 55.187 49.596 55.215 49.579C55.3466 49.4975 55.4575 49.3864 55.5388 49.2547C55.6202 49.123 55.6699 48.9742 55.684 48.82L55.815 47.392C56.0789 47.2871 56.3479 47.1957 56.621 47.118L57.537 48.182C57.6352 48.2965 57.7584 48.3869 57.8971 48.4462C58.0359 48.5055 58.1864 48.5322 58.337 48.524C58.352 48.524 58.366 48.524 58.381 48.524C58.7909 48.489 59.2031 48.489 59.613 48.524C59.619 48.524 59.625 48.524 59.631 48.524C59.7855 48.5358 59.9406 48.5108 60.0836 48.4512C60.2267 48.3916 60.3536 48.299 60.454 48.181L61.372 47.117C61.6431 47.195 61.91 47.2865 62.172 47.391L62.303 48.818C62.3169 48.9724 62.3666 49.1214 62.4479 49.2533C62.5293 49.3852 62.6403 49.4964 62.772 49.578C62.789 49.588 62.803 49.602 62.82 49.613C62.985 49.713 63.127 49.84 63.281 49.954L63.381 50.032C63.387 50.032 63.395 50.038 63.401 50.043C63.522 50.136 63.658 50.217 63.771 50.316C63.8901 50.4211 64.0324 50.4963 64.1863 50.5354C64.3402 50.5746 64.5012 50.5765 64.656 50.541L66 50.235C66.187 50.471 66.362 50.715 66.522 50.964L65.811 52.191C65.7339 52.3239 65.6885 52.4728 65.6783 52.6261C65.668 52.7794 65.6933 52.933 65.752 53.075C65.9113 53.4667 66.037 53.8711 66.128 54.284C66.1627 54.4362 66.2325 54.5781 66.3318 54.6984C66.4311 54.8187 66.5572 54.9141 66.7 54.977L67.983 55.543C67.992 55.694 67.996 55.843 67.996 56C67.996 56.157 68 56.306 67.987 56.457Z" fill="#F48120"/>
<path d="M21 61C21.9889 61 22.9556 60.7068 23.7779 60.1574C24.6001 59.6079 25.241 58.8271 25.6194 57.9134C25.9978 56.9998 26.0969 55.9945 25.9039 55.0245C25.711 54.0546 25.2348 53.1637 24.5355 52.4645C23.8363 51.7652 22.9454 51.289 21.9755 51.0961C21.0055 50.9031 20.0002 51.0022 19.0866 51.3806C18.173 51.759 17.3921 52.3999 16.8427 53.2222C16.2932 54.0444 16 55.0111 16 56C16.0016 57.3256 16.5289 58.5964 17.4662 59.5338C18.4036 60.4711 19.6744 60.9984 21 61ZM21 53C21.5933 53 22.1734 53.176 22.6667 53.5056C23.1601 53.8352 23.5446 54.3038 23.7716 54.852C23.9987 55.4001 24.0581 56.0033 23.9424 56.5853C23.8266 57.1672 23.5409 57.7018 23.1213 58.1213C22.7018 58.5409 22.1672 58.8266 21.5853 58.9424C21.0033 59.0581 20.4001 58.9987 19.8519 58.7716C19.3038 58.5446 18.8352 58.1601 18.5056 57.6667C18.1759 57.1734 18 56.5933 18 56C18 55.2044 18.3161 54.4413 18.8787 53.8787C19.4413 53.3161 20.2044 53 21 53Z" fill="#F48120"/>
<path d="M10.661 58.047L12.042 58.656C12.096 58.8487 12.154 59.0354 12.216 59.216L11.448 60.542C11.361 60.692 11.3146 60.8621 11.3132 61.0355C11.3118 61.2089 11.3555 61.3796 11.44 61.531C11.8441 62.2526 12.3267 62.9274 12.879 63.543C12.9981 63.6761 13.1507 63.7749 13.321 63.8291C13.4912 63.8833 13.6728 63.8908 13.847 63.851L15.3 63.518C15.4433 63.63 15.59 63.7384 15.74 63.843L15.881 65.383C15.8969 65.5578 15.9585 65.7253 16.0596 65.8687C16.1607 66.0121 16.2977 66.1264 16.457 66.2C17.1981 66.5465 17.976 66.8078 18.776 66.979C18.9508 67.0156 19.1323 67.0046 19.3015 66.9473C19.4706 66.8899 19.6214 66.7883 19.738 66.653L20.73 65.5C20.909 65.508 21.091 65.508 21.27 65.5L22.263 66.652C22.3567 66.761 22.4729 66.8486 22.6035 66.9086C22.7342 66.9687 22.8762 66.9998 23.02 67C23.0889 67 23.1576 66.9929 23.225 66.979C24.0249 66.8077 24.8029 66.5464 25.544 66.2C25.7029 66.1263 25.8397 66.0121 25.9406 65.8689C26.0415 65.7257 26.103 65.5585 26.119 65.384L26.26 63.843C26.4107 63.7377 26.5577 63.6294 26.701 63.518L28.153 63.851C28.3271 63.8908 28.5088 63.8833 28.679 63.8291C28.8493 63.7749 29.0019 63.6761 29.121 63.543C29.6734 62.9279 30.156 62.2534 30.56 61.532C30.6445 61.3806 30.6882 61.2099 30.6868 61.0365C30.6854 60.8631 30.639 60.693 30.552 60.543L29.784 59.217C29.846 59.036 29.904 58.85 29.958 58.656L31.339 58.047C31.4995 57.9761 31.6385 57.8642 31.7421 57.7225C31.8456 57.5809 31.9101 57.4145 31.929 57.24C32.0237 56.4161 32.0237 55.584 31.929 54.76C31.9101 54.5856 31.8456 54.4192 31.7421 54.2775C31.6385 54.1359 31.4995 54.0239 31.339 53.953L29.958 53.344C29.904 53.1514 29.846 52.9647 29.784 52.784L30.552 51.458C30.639 51.308 30.6854 51.138 30.6868 50.9646C30.6882 50.7912 30.6445 50.6204 30.56 50.469C30.1559 49.7474 29.6733 49.0727 29.121 48.457C29.0019 48.3239 28.8493 48.2251 28.679 48.171C28.5088 48.1168 28.3271 48.1092 28.153 48.149L27 48.413V42C26.9994 40.9266 26.7108 39.8729 26.1643 38.949C25.6178 38.025 24.8334 37.2646 23.893 36.747C24.4339 36.1805 24.7966 35.4677 24.9361 34.697C25.0755 33.9262 24.9857 33.1315 24.6776 32.4114C24.3695 31.6912 23.8568 31.0774 23.203 30.646C22.5493 30.2146 21.7833 29.9847 21 29.9847C20.2167 29.9847 19.4507 30.2146 18.797 30.646C18.1432 31.0774 17.6305 31.6912 17.3224 32.4114C17.0143 33.1315 16.9245 33.9262 17.0639 34.697C17.2034 35.4677 17.5661 36.1805 18.107 36.747C17.1666 37.2646 16.3822 38.025 15.8357 38.949C15.2892 39.8729 15.0006 40.9266 15 42V48.413L13.847 48.149C13.6728 48.1092 13.4912 48.1168 13.321 48.171C13.1507 48.2251 12.9981 48.3239 12.879 48.457C12.3266 49.0722 11.844 49.7466 11.44 50.468C11.3555 50.6194 11.3118 50.7902 11.3132 50.9636C11.3146 51.137 11.361 51.307 11.448 51.457L12.216 52.783C12.154 52.964 12.096 53.15 12.042 53.344L10.661 53.953C10.5005 54.0239 10.3615 54.1359 10.2579 54.2775C10.1544 54.4192 10.0899 54.5856 10.071 54.76C9.97633 55.584 9.97633 56.4161 10.071 57.24C10.0899 57.4145 10.1544 57.5809 10.2579 57.7225C10.3615 57.8642 10.5005 57.9761 10.661 58.047ZM19 34C19 33.6045 19.1173 33.2178 19.3371 32.8889C19.5568 32.56 19.8692 32.3036 20.2346 32.1523C20.6001 32.0009 21.0022 31.9613 21.3902 32.0385C21.7781 32.1156 22.1345 32.3061 22.4142 32.5858C22.6939 32.8655 22.8844 33.2219 22.9616 33.6098C23.0387 33.9978 22.9991 34.3999 22.8478 34.7654C22.6964 35.1308 22.44 35.4432 22.1111 35.663C21.7822 35.8827 21.3956 36 21 36C20.4696 36 19.9609 35.7893 19.5858 35.4142C19.2107 35.0392 19 34.5305 19 34ZM17 42C17 40.9392 17.4214 39.9217 18.1716 39.1716C18.9217 38.4215 19.9391 38 21 38C22.0609 38 23.0783 38.4215 23.8284 39.1716C24.5786 39.9217 25 40.9392 25 42V45.564C24.864 45.51 24.727 45.464 24.59 45.419C24.485 45.381 24.38 45.342 24.275 45.307C23.9302 45.1934 23.5798 45.0979 23.225 45.021C23.0501 44.9845 22.8687 44.9955 22.6995 45.0528C22.5303 45.1101 22.3796 45.2117 22.263 45.347L21.27 46.5C21.18 46.5 21.091 46.494 21 46.494C20.909 46.494 20.82 46.494 20.73 46.5L20.399 46.116L19.738 45.348C19.6204 45.2137 19.4694 45.1129 19.3003 45.0556C19.1312 44.9984 18.95 44.9868 18.775 45.022H18.767C18.4142 45.0986 18.0657 45.1937 17.723 45.307C17.623 45.34 17.518 45.379 17.415 45.416C17.277 45.466 17.138 45.508 17 45.563V42ZM12.013 55.543L13.3 54.977C13.4428 54.9141 13.5689 54.8187 13.6682 54.6984C13.7675 54.5781 13.8373 54.4362 13.872 54.284C13.9626 53.8714 14.0884 53.4672 14.248 53.076C14.3069 52.9339 14.3322 52.7801 14.322 52.6266C14.3118 52.4731 14.2662 52.3241 14.189 52.191L13.478 50.964C13.6387 50.714 13.8123 50.471 13.999 50.235L15.338 50.542C15.4928 50.5775 15.6538 50.5756 15.8077 50.5364C15.9616 50.4973 16.1039 50.4221 16.223 50.317C16.334 50.217 16.47 50.139 16.589 50.047C16.597 50.041 16.606 50.039 16.613 50.033L16.713 49.953C16.856 49.847 16.988 49.734 17.141 49.636C17.167 49.618 17.191 49.596 17.219 49.579C17.3506 49.4975 17.4615 49.3864 17.5428 49.2547C17.6242 49.123 17.6739 48.9742 17.688 48.82L17.819 47.392C18.0829 47.2871 18.3519 47.1957 18.625 47.118L19.541 48.182C19.6396 48.2974 19.7636 48.3884 19.9033 48.4477C20.043 48.507 20.1945 48.5332 20.346 48.524C20.3583 48.525 20.3707 48.525 20.383 48.524C20.7929 48.489 21.2051 48.489 21.615 48.524C21.622 48.524 21.628 48.524 21.635 48.524C21.7077 48.5297 21.7808 48.5274 21.853 48.517C21.9174 48.5068 21.9805 48.4893 22.041 48.465C22.053 48.465 22.066 48.46 22.077 48.455C22.1346 48.4302 22.1895 48.3998 22.241 48.364C22.254 48.355 22.269 48.35 22.282 48.341C22.295 48.332 22.304 48.319 22.316 48.31C22.3669 48.2718 22.4138 48.2286 22.456 48.181L23.374 47.117C23.645 47.195 23.912 47.2865 24.174 47.391L24.305 48.818C24.3189 48.9724 24.3686 49.1214 24.4499 49.2533C24.5313 49.3852 24.6423 49.4964 24.774 49.578C24.791 49.588 24.805 49.602 24.822 49.613C24.987 49.713 25.129 49.84 25.283 49.954L25.383 50.032C25.389 50.032 25.397 50.038 25.403 50.043C25.524 50.136 25.66 50.217 25.773 50.316C25.8921 50.4211 26.0344 50.4963 26.1883 50.5354C26.3422 50.5746 26.5032 50.5765 26.658 50.541L28 50.235C28.187 50.471 28.362 50.715 28.522 50.964L27.811 52.191C27.7339 52.3239 27.6885 52.4728 27.6783 52.6261C27.668 52.7794 27.6933 52.933 27.752 53.075C27.9113 53.4667 28.037 53.8711 28.128 54.284C28.1627 54.4362 28.2325 54.5781 28.3318 54.6984C28.4311 54.8187 28.5572 54.9141 28.7 54.977L29.983 55.543C29.992 55.694 29.996 55.843 29.996 56C29.996 56.157 29.996 56.306 29.983 56.457L28.7 57.023C28.5572 57.0859 28.4311 57.1813 28.3318 57.3017C28.2325 57.422 28.1627 57.5639 28.128 57.716C28.0373 58.1287 27.9116 58.5328 27.752 58.924C27.6931 59.0661 27.6678 59.2199 27.678 59.3734C27.6882 59.5269 27.7338 59.676 27.811 59.809L28.522 61.036C28.3607 61.286 28.187 61.529 28.001 61.765L26.662 61.458C26.5072 61.422 26.3461 61.4236 26.1921 61.4628C26.0381 61.5019 25.8958 61.5774 25.777 61.683C25.465 61.957 25.1305 62.2042 24.777 62.422C24.6454 62.5036 24.5345 62.6146 24.4532 62.7463C24.3718 62.878 24.3221 63.0268 24.308 63.181L24.177 64.608C23.9131 64.7127 23.6441 64.8042 23.371 64.882L22.454 63.818C22.3508 63.6985 22.2209 63.6052 22.0747 63.5455C21.9285 63.4859 21.7703 63.4618 21.613 63.475C21.2017 63.509 20.7883 63.509 20.377 63.475C20.2197 63.4618 20.0615 63.4859 19.9153 63.5455C19.7691 63.6052 19.6392 63.6985 19.536 63.818L18.619 64.882C18.3459 64.8044 18.0769 64.7129 17.813 64.608L17.683 63.181C17.6688 63.0265 17.6189 62.8774 17.5372 62.7455C17.4554 62.6135 17.3441 62.5025 17.212 62.421C16.8583 62.2038 16.5238 61.9569 16.212 61.683C16.0929 61.5779 15.9506 61.5027 15.7967 61.4636C15.6428 61.4245 15.4818 61.4226 15.327 61.458L14 61.765C13.813 61.529 13.638 61.285 13.478 61.036L14.189 59.809C14.2661 59.6761 14.3115 59.5272 14.3217 59.3739C14.332 59.2206 14.3067 59.067 14.248 58.925C14.0887 58.5334 13.9629 58.1289 13.872 57.716C13.8373 57.5639 13.7675 57.422 13.6682 57.3017C13.5689 57.1813 13.4428 57.0859 13.3 57.023L12.017 56.457C12 56.306 12 56.153 12 56C12 55.847 12 55.694 12.013 55.543Z" fill="#F48120"/>
<path d="M30.269 16.964L29.49 15.122C23.432 17.6843 18.516 22.3674 15.663 28.294L17.463 29.162C20.1048 23.673 24.658 19.336 30.269 16.964Z" fill="#F48120"/>
<path d="M32.565 63.876L31.972 65.786C37.359 67.4534 43.1316 67.402 48.488 65.639L47.86 63.739C42.8984 65.3646 37.555 65.4125 32.565 63.876Z" fill="#F48120"/>
<path d="M62.659 29.423L64.471 28.577C61.6039 22.4248 56.5221 17.5801 50.24 15.01L49.481 16.86C55.2982 19.2399 60.004 23.7261 62.659 29.423Z" fill="#F48120"/>
</svg>
