<svg width="80" height="80" viewBox="0 0 80 80" fill="none" xmlns="http://www.w3.org/2000/svg">
<path d="M40.0005 79.9999C62.0919 79.9999 80.0005 62.0913 80.0005 39.9999C80.0005 17.9085 62.0919 -6.10352e-05 40.0005 -6.10352e-05C17.9091 -6.10352e-05 0.000488281 17.9085 0.000488281 39.9999C0.000488281 62.0913 17.9091 79.9999 40.0005 79.9999Z" fill="#FFF2E8"/>
<path d="M58.3772 39.7507V19.7525C58.3771 19.2174 58.2717 18.6875 58.0669 18.1932C57.8621 17.6989 57.562 17.2497 57.1836 16.8714C56.8052 16.493 56.356 16.1929 55.8616 15.9882C55.3673 15.7835 54.8374 15.6781 54.3023 15.6782H25.6976C25.1625 15.6781 24.6326 15.7835 24.1383 15.9882C23.6439 16.1929 23.1947 16.493 22.8163 16.8714C22.4379 17.2497 22.1378 17.6989 21.933 18.1932C21.7282 18.6875 21.6228 19.2174 21.6227 19.7525V39.7507H17.2128V39.7638C17.2128 40.5861 17.7679 41.3509 18.4637 41.9869C18.9888 42.4113 19.5848 42.7395 20.2241 42.9565C21.1567 43.256 22.1166 43.4628 23.0898 43.5741C23.9603 43.6935 24.838 43.7529 25.7166 43.7517L40 43.7453L54.2833 43.7517C55.162 43.7529 56.0396 43.6935 56.9101 43.5741C57.8833 43.4628 58.8432 43.256 59.7758 42.9565C60.4151 42.7395 61.0111 42.4113 61.5362 41.987C62.232 41.3509 62.7871 40.5861 62.7871 39.7638V39.7507H58.3772ZM55.4332 39.7507H45.1473C44.987 40.1911 44.6951 40.5715 44.3111 40.8402C43.9272 41.1089 43.4698 41.2528 43.0012 41.2526H36.9987C36.5301 41.2528 36.0727 41.1089 35.6888 40.8402C35.3048 40.5715 35.0129 40.1911 34.8526 39.7507H24.5667V19.7525C24.5668 19.4526 24.686 19.1651 24.898 18.9531C25.1101 18.7411 25.3977 18.6221 25.6976 18.6221H54.3023C54.6022 18.6221 54.8898 18.7411 55.1019 18.9531C55.3139 19.1651 55.4331 19.4526 55.4332 19.7525V39.7507Z" fill="#F48120"/>
<path d="M21.8941 56.3742H18.7111C18.3138 56.3742 17.9326 56.5321 17.6516 56.8131C17.3706 57.0941 17.2128 57.4752 17.2128 57.8726C17.2128 58.27 17.3706 58.6511 17.6516 58.9321C17.9326 59.2131 18.3138 59.371 18.7111 59.371H21.8941C22.2915 59.371 22.6726 59.2131 22.9536 58.9321C23.2346 58.6511 23.3925 58.27 23.3925 57.8726C23.3925 57.4752 23.2346 57.0941 22.9536 56.8131C22.6726 56.5321 22.2915 56.3742 21.8941 56.3742Z" fill="#F48120"/>
<path d="M30.8063 56.3742H27.6234C27.226 56.3742 26.8449 56.5321 26.5639 56.8131C26.2829 57.0941 26.125 57.4752 26.125 57.8726C26.125 58.27 26.2829 58.6511 26.5639 58.9321C26.8449 59.2131 27.226 59.371 27.6234 59.371H30.8063C31.2037 59.371 31.5849 59.2131 31.8659 58.9321C32.1469 58.6511 32.3047 58.27 32.3047 57.8726C32.3047 57.4752 32.1469 57.0941 31.8659 56.8131C31.5849 56.5321 31.2037 56.3742 30.8063 56.3742Z" fill="#F48120"/>
<path d="M52.3767 56.3742H49.1937C48.7963 56.3742 48.4152 56.5321 48.1342 56.8131C47.8532 57.0941 47.6953 57.4752 47.6953 57.8726C47.6953 58.27 47.8532 58.6511 48.1342 58.9321C48.4152 59.2131 48.7963 59.371 49.1937 59.371H52.3767C52.774 59.371 53.1552 59.2131 53.4362 58.9321C53.7172 58.6511 53.875 58.27 53.875 57.8726C53.875 57.4752 53.7172 57.0941 53.4362 56.8131C53.1552 56.5321 52.774 56.3742 52.3767 56.3742Z" fill="#F48120"/>
<path d="M61.2888 56.3742H58.1058C57.7084 56.3742 57.3273 56.5321 57.0463 56.8131C56.7653 57.0941 56.6074 57.4752 56.6074 57.8726C56.6074 58.27 56.7653 58.6511 57.0463 58.9321C57.3273 59.2131 57.7084 59.371 58.1058 59.371H61.2888C61.6862 59.371 62.0673 59.2131 62.3483 58.9321C62.6293 58.6511 62.7871 58.27 62.7871 57.8726C62.7871 57.4752 62.6293 57.0941 62.3483 56.8131C62.0673 56.5321 61.6862 56.3742 61.2888 56.3742Z" fill="#F48120"/>
<path d="M41.4984 53.6827V48.6217C41.4984 48.2243 41.3405 47.8432 41.0595 47.5622C40.7785 47.2812 40.3974 47.1233 40 47.1233C39.6026 47.1233 39.2215 47.2812 38.9405 47.5622C38.6595 47.8432 38.5017 48.2243 38.5017 48.6217V53.6827C37.5147 54.0357 36.6841 54.7258 36.1562 55.6313C35.6283 56.5368 35.4371 57.5997 35.6162 58.6324C35.7954 59.6651 36.3334 60.6015 37.1354 61.2763C37.9374 61.9512 38.9519 62.3213 40 62.3213C41.0482 62.3213 42.0627 61.9512 42.8647 61.2763C43.6667 60.6015 44.2047 59.6651 44.3838 58.6324C44.563 57.5997 44.3717 56.5368 43.8438 55.6313C43.316 54.7258 42.4853 54.0357 41.4984 53.6827Z" fill="#F48120"/>
</svg>
