<svg width="80" height="80" viewBox="0 0 80 80" fill="none" xmlns="http://www.w3.org/2000/svg">
<path d="M40 80C62.0914 80 80 62.0914 80 40C80 17.9086 62.0914 0 40 0C17.9086 0 0 17.9086 0 40C0 62.0914 17.9086 80 40 80Z" fill="#FFF2E8"/>
<path d="M64.9797 42H41.0203C40.4847 42.0006 39.9711 42.2049 39.5924 42.5681C39.2136 42.9313 39.0006 43.4237 39 43.9373V59.8018C39.0008 60.3152 39.214 60.8074 39.5928 61.1702C39.9715 61.5331 40.4849 61.7371 41.0203 61.7375H48.6811L47.348 65.0008C47.3026 65.1118 47.2863 65.2317 47.3002 65.3501C47.3142 65.4686 47.3581 65.582 47.4282 65.6804C47.4982 65.7789 47.5923 65.8595 47.7022 65.9152C47.8121 65.9709 47.9345 66 48.0588 66H57.8914C58.015 66 58.1368 65.9712 58.2462 65.9161C58.3556 65.8611 58.4495 65.7813 58.5197 65.6838C58.5899 65.5863 58.6344 65.4738 58.6493 65.3562C58.6642 65.2385 58.6491 65.1192 58.6053 65.0083L57.3124 61.7375H64.9797C65.5151 61.7371 66.0285 61.5331 66.4072 61.1702C66.786 60.8074 66.9992 60.3152 67 59.8018V43.9373C66.9994 43.4237 66.7864 42.9313 66.4076 42.5681C66.0289 42.2049 65.5153 42.0006 64.9797 42ZM64.4834 58.2635H41.5167V44.5859C41.5157 44.5524 41.5245 44.5194 41.542 44.4905H64.4573C64.4754 44.5192 64.4845 44.5523 64.4834 44.5859V58.2635Z" fill="#F48120"/>
<path d="M34.3124 34.7375H41.9797C42.5151 34.7372 43.0285 34.5332 43.4072 34.1703C43.786 33.8074 43.9992 33.3153 44 32.8019V16.9373C43.9994 16.4237 43.7864 15.9313 43.4076 15.5681C43.0289 15.2049 42.5153 15.0006 41.9797 15H18.0203C17.4847 15.0006 16.9711 15.2049 16.5924 15.5681C16.2136 15.9313 16.0006 16.4237 16 16.9373V32.8019C16.0008 33.3153 16.214 33.8074 16.5928 34.1703C16.9715 34.5332 17.4849 34.7372 18.0203 34.7375H25.681L24.348 38.0008C24.3026 38.1118 24.2862 38.2317 24.3002 38.3502C24.3141 38.4686 24.358 38.582 24.4281 38.6805C24.4981 38.779 24.5922 38.8595 24.7021 38.9152C24.812 38.9709 24.9345 39 25.0588 39H34.8913C35.0149 39 35.1367 38.9712 35.2461 38.9162C35.3555 38.8611 35.4494 38.7814 35.5196 38.6839C35.5898 38.5863 35.6343 38.4739 35.6492 38.3563C35.6642 38.2386 35.6491 38.1193 35.6053 38.0084L34.3124 34.7375ZM18.5166 31.2635V17.5859C18.5156 17.5525 18.5244 17.5194 18.542 17.4905H41.4572C41.4753 17.5192 41.4844 17.5524 41.4833 17.5859V31.2635H18.5166Z" fill="#F48120"/>
<path d="M54.353 28.2256C55.686 29.8156 56.7133 31.622 57.3864 33.5597L55.0739 33.9557L59.9885 38L61.4264 35.4223L61.4962 35.2955L63 32.5986L60.7494 32.983C59.7944 30.5501 58.3587 28.3183 56.5217 26.411C54.1242 23.9145 51.1017 22.0515 47.7429 21L47 22.9895C49.8757 24.1011 52.4073 25.9039 54.353 28.2256Z" fill="#F48120"/>
<path d="M26.6741 52.3057C25.3672 50.6163 24.3792 48.7121 23.7567 46.6829L26.1283 46.3445L21.2497 42L19.6982 44.6268L19.6227 44.7561L18 47.5044L20.308 47.176C21.2016 49.7272 22.592 52.0849 24.4024 54.1188C26.765 56.7808 29.7859 58.8057 33.1766 60L34 57.9612C31.104 56.7196 28.5817 54.7724 26.6741 52.3057Z" fill="#F48120"/>
</svg>
