<svg width="60" height="60" viewBox="0 0 60 60" fill="none" xmlns="http://www.w3.org/2000/svg">
<path fill-rule="evenodd" clip-rule="evenodd" d="M29.5892 34.685C32.0767 34.685 34.3442 35.0272 36.0004 35.5773C37.8645 36.2007 39.0136 37.1419 39.0136 38.2543V56.4307C39.0136 57.5492 37.8645 58.4904 36.0004 59.1077C34.3442 59.6577 32.0767 60 29.5892 60C27.1017 60 24.8342 59.6577 23.1779 59.1077C21.3138 58.4843 20.1648 57.5431 20.1648 56.4307V38.2543C20.1648 37.1358 21.3138 36.1946 23.1779 35.5773C24.8342 35.0272 27.1017 34.685 29.5892 34.685ZM28.6174 56.883C30.0598 56.9991 31.4594 56.9502 32.8162 56.7302C34.173 56.5163 35.4809 56.1312 36.7339 55.5873C37.0578 55.4467 37.2106 55.0678 37.0639 54.7439C36.9233 54.4199 36.5444 54.2671 36.2205 54.4138C35.0592 54.9211 33.8613 55.2695 32.6145 55.4712C31.3677 55.6667 30.072 55.7156 28.7213 55.6056C28.3668 55.5751 28.0551 55.844 28.0307 56.1985C28.0001 56.553 28.269 56.8647 28.6235 56.8891L28.6174 56.883ZM28.6174 50.8384C30.0598 50.9546 31.4594 50.9057 32.8162 50.6856C34.173 50.4717 35.4809 50.0867 36.7339 49.5427C37.0578 49.4022 37.2106 49.0232 37.0639 48.6993C36.9233 48.3754 36.5444 48.2226 36.2205 48.3693C35.0592 48.8765 33.8613 49.2249 32.6145 49.4266C31.3677 49.6222 30.072 49.6711 28.7213 49.5611C28.3668 49.5305 28.0551 49.7994 28.0307 50.1539C28.0001 50.5084 28.269 50.8201 28.6235 50.8445L28.6174 50.8384ZM28.6174 44.7939C30.0598 44.91 31.4594 44.8611 32.8162 44.6472C34.173 44.4333 35.4809 44.0482 36.7339 43.5043C37.0578 43.3637 37.2106 42.9848 37.0639 42.6609C36.9233 42.3369 36.5444 42.1841 36.2205 42.3308C35.0592 42.8381 33.8613 43.1865 32.6145 43.3882C31.3677 43.5837 30.072 43.6326 28.7213 43.5226C28.3668 43.4921 28.0551 43.761 28.0307 44.1155C28.0001 44.4699 28.269 44.7816 28.6235 44.8061L28.6174 44.7939ZM31.4105 30.0583V32.8759C31.4105 33.2304 31.1232 33.5176 30.7688 33.5176C30.4143 33.5176 30.127 33.2304 30.127 32.8759V30.0583H15.6971C15.3426 30.0583 15.0553 29.7711 15.0553 29.4166V27.3753C15.0553 27.0208 15.3426 26.7335 15.6971 26.7335C16.0516 26.7335 16.3388 27.0208 16.3388 27.3753V28.7688H42.8395V26.9352C42.8395 26.5807 43.1268 26.2935 43.4813 26.2935C43.8358 26.2935 44.123 26.5807 44.123 26.9352V29.4105C44.123 29.765 43.8358 30.0522 43.4813 30.0522H31.4105V30.0583ZM30.0781 15.9951C30.0781 15.6406 30.3654 15.3534 30.7199 15.3534C31.0743 15.3534 31.3616 15.6406 31.3616 15.9951V19.1366C31.3616 19.4911 31.0743 19.7783 30.7199 19.7783C30.3654 19.7783 30.0781 19.4911 30.0781 19.1366V15.9951ZM41.3727 20.31H45.761C46.1155 20.31 46.4027 20.5973 46.4027 20.9518V25.34C46.4027 25.6945 46.1155 25.9818 45.761 25.9818H41.3727C41.0182 25.9818 40.731 25.6945 40.731 25.34V20.9518C40.731 20.5973 41.0182 20.31 41.3727 20.31ZM45.1131 21.5996H42.0145V24.6983H45.1131V21.5996ZM31.3494 20.9273L33.5435 24.7289C33.7207 25.0344 33.6168 25.4317 33.3113 25.609C33.2074 25.6701 33.0973 25.6945 32.9873 25.6945H28.5991C28.2446 25.6945 27.9573 25.4073 27.9573 25.0528C27.9573 24.9183 28.0001 24.7961 28.0673 24.6922L29.143 22.8281C29.143 22.8281 29.1552 22.8036 29.1614 22.7975L30.237 20.9334C30.4143 20.6278 30.8054 20.5178 31.111 20.6951C31.2149 20.7562 31.2944 20.8356 31.3494 20.9273ZM31.331 23.4698L30.7871 22.5347L30.2676 23.4393C30.2676 23.4393 30.2554 23.4637 30.2493 23.4759L29.7114 24.411H31.8689L31.331 23.4759V23.4698ZM15.6115 20.31C16.3938 20.31 17.1028 20.6278 17.6162 21.1412C18.1296 21.6546 18.4474 22.3636 18.4474 23.1459C18.4474 23.9282 18.1296 24.6372 17.6162 25.1506C17.1028 25.664 16.3938 25.9818 15.6115 25.9818C14.8292 25.9818 14.1202 25.664 13.6068 25.1506C13.0935 24.6372 12.7756 23.9282 12.7756 23.1459C12.7756 22.3636 13.0935 21.6546 13.6068 21.1412C14.1202 20.6278 14.8292 20.31 15.6115 20.31ZM16.7116 22.0519C16.4305 21.7708 16.0454 21.5996 15.6176 21.5996C15.1898 21.5996 14.8048 21.7708 14.5236 22.0519C14.2425 22.333 14.0713 22.7181 14.0713 23.1459C14.0713 23.5737 14.2425 23.9588 14.5236 24.2399C14.8048 24.5211 15.1898 24.6922 15.6176 24.6922C16.0454 24.6922 16.4305 24.5211 16.7116 24.2399C16.9928 23.9588 17.1639 23.5737 17.1639 23.1459C17.1639 22.7181 16.9928 22.333 16.7116 22.0519ZM41.3727 7.00467H45.761C46.1155 7.00467 46.4027 7.29192 46.4027 7.64641V12.0347C46.4027 12.3892 46.1155 12.6764 45.761 12.6764H41.3727C41.0182 12.6764 40.731 12.3892 40.731 12.0347V7.64641C40.731 7.29192 41.0182 7.00467 41.3727 7.00467ZM45.1131 8.29426H42.0145V11.3929H45.1131V8.29426ZM31.3494 7.62196L33.5435 11.4235C33.7207 11.7291 33.6168 12.1263 33.3113 12.3036C33.2074 12.3647 33.0973 12.3892 32.9873 12.3892H28.5991C28.2446 12.3892 27.9573 12.1019 27.9573 11.7474C27.9573 11.613 28.0001 11.4907 28.0673 11.3868L29.143 9.52272C29.143 9.52272 29.1552 9.49828 29.1614 9.49217L30.237 7.62807C30.4143 7.32248 30.8054 7.21247 31.111 7.38971C31.2149 7.45083 31.2944 7.53028 31.3494 7.62196ZM31.331 10.1706L30.7871 9.23547L30.2676 10.14C30.2676 10.14 30.2554 10.1645 30.2493 10.1767L29.7114 11.1118H31.8689L31.331 10.1767V10.1706ZM15.6115 7.00467C16.3938 7.00467 17.1028 7.32248 17.6162 7.83587C18.1296 8.34926 18.4474 9.05823 18.4474 9.84054C18.4474 10.6228 18.1296 11.3318 17.6162 11.8452C17.1028 12.3586 16.3938 12.6764 15.6115 12.6764C14.8292 12.6764 14.1202 12.3586 13.6068 11.8452C13.0935 11.3318 12.7756 10.6228 12.7756 9.84054C12.7756 9.05823 13.0935 8.34926 13.6068 7.83587C14.1202 7.32248 14.8292 7.00467 15.6115 7.00467ZM16.7116 8.75264C16.4305 8.4715 16.0454 8.30037 15.6176 8.30037C15.1898 8.30037 14.8048 8.4715 14.5236 8.75264C14.2425 9.03378 14.0713 9.41882 14.0713 9.84665C14.0713 10.2745 14.2425 10.6595 14.5236 10.9407C14.8048 11.2218 15.1898 11.3929 15.6176 11.3929C16.0454 11.3929 16.4305 11.2218 16.7116 10.9407C16.9928 10.6595 17.1639 10.2745 17.1639 9.84665C17.1639 9.41882 16.9928 9.03378 16.7116 8.75264ZM7.64174 5C7.28725 5 7 5.28725 7 5.64174V14.0454C7 14.3999 7.28725 14.6872 7.64174 14.6872H51.5366C51.8911 14.6872 52.1784 14.3999 52.1784 14.0454V5.64174C52.1784 5.28725 51.8911 5 51.5366 5H7.64174ZM50.8888 6.28959H8.28959V13.4037H50.8949V6.28959H50.8888ZM37.724 40.1428C37.2534 40.4484 36.6727 40.7112 36.0004 40.9373C34.3442 41.4874 32.0767 41.8296 29.5892 41.8296C27.1017 41.8296 24.8342 41.4874 23.1779 40.9373C22.4995 40.7112 21.9189 40.4423 21.4544 40.1428V44.3172C21.4544 44.8183 22.2673 45.3378 23.5813 45.7779C25.1031 46.2851 27.2239 46.5968 29.5892 46.5968C31.9544 46.5968 34.0691 46.2851 35.5971 45.7779C36.9111 45.3378 37.724 44.8183 37.724 44.3172V40.1428ZM21.4544 46.1996V50.3739C21.4544 50.8751 22.2673 51.3946 23.5813 51.8346C25.1031 52.3419 27.2239 52.6536 29.5892 52.6536C31.9544 52.6536 34.0691 52.3419 35.5971 51.8346C36.9111 51.3946 37.724 50.8751 37.724 50.3739V46.1996C37.2534 46.5052 36.6727 46.768 36.0004 46.9941C34.3442 47.5442 32.0767 47.8864 29.5892 47.8864C27.1017 47.8864 24.8342 47.5442 23.1779 46.9941C22.4995 46.768 21.9189 46.4991 21.4544 46.1996ZM21.4544 52.2564V56.4307C21.4544 56.9319 22.2673 57.4514 23.5813 57.8914C25.1031 58.3987 27.2239 58.7104 29.5892 58.7104C31.9544 58.7104 34.0691 58.3987 35.5971 57.8914C36.9111 57.4514 37.724 56.9319 37.724 56.4307V52.2564C37.2534 52.562 36.6727 52.8248 36.0004 53.0509C34.3442 53.601 32.0767 53.9432 29.5892 53.9432C27.1017 53.9432 24.8342 53.601 23.1779 53.0509C22.4995 52.8248 21.9189 52.5558 21.4544 52.2564ZM35.5971 36.7996C34.0752 36.2924 31.9544 35.9807 29.5892 35.9807C27.2239 35.9807 25.1092 36.2924 23.5813 36.7996C22.2673 37.2397 21.4544 37.7592 21.4544 38.2604C21.4544 38.7615 22.2673 39.281 23.5813 39.7211C25.1031 40.2284 27.2239 40.5401 29.5892 40.5401C31.9544 40.5401 34.0691 40.2284 35.5971 39.7211C36.9111 39.281 37.724 38.7615 37.724 38.2604C37.724 37.7592 36.9111 37.2397 35.5971 36.7996Z" fill="black"/>
</svg>
