<svg width="60" height="60" viewBox="0 0 60 60" fill="none" xmlns="http://www.w3.org/2000/svg">
<path fill-rule="evenodd" clip-rule="evenodd" d="M43.1018 27.2049C47.2158 27.2049 50.9395 28.8729 53.6355 31.5688C56.3314 34.2647 57.9994 37.9884 57.9994 42.1025C57.9994 46.2165 56.3314 49.9401 53.6355 52.6361C50.9396 55.3321 47.2159 57 43.1018 57C38.9878 57 35.2642 55.332 32.5681 52.6361C29.8723 49.9403 28.2043 46.2165 28.2043 42.1025C28.2043 37.9884 29.8723 34.2648 32.5681 31.5688C35.264 28.8729 38.9878 27.2049 43.1018 27.2049ZM21.4138 53.3615L18.8702 54.2395C18.4062 54.399 18.1587 54.9034 18.3181 55.3674C18.4776 55.8314 18.982 56.0789 19.446 55.9194L24.8068 54.0706V54.0682C24.8996 54.0373 24.99 53.9873 25.0709 53.9231C25.454 53.6185 25.5183 53.0617 25.2137 52.6786L21.6755 48.2482C21.371 47.8651 20.8142 47.8009 20.4311 48.1054C20.048 48.41 19.9837 48.9668 20.2883 49.3499L22.2085 51.7531C17.5234 50.3421 13.4285 47.5677 10.3877 43.8892C6.88046 39.6515 4.7747 34.212 4.7747 28.2803C4.7747 21.5135 7.51816 15.3862 11.9533 10.9512C16.3884 6.51609 22.5156 3.77257 29.2824 3.77257C35.219 3.77257 40.6609 5.88308 44.9011 9.39276C49.2173 12.9643 52.2868 17.9845 53.3649 23.7073C53.4554 24.1879 53.917 24.5044 54.3976 24.414C54.8782 24.3236 55.1947 23.862 55.1043 23.3814C53.9456 17.2401 50.6548 11.8554 46.0295 8.02703C41.4825 4.26279 35.6457 2 29.2809 2C22.0237 2 15.4543 4.94094 10.6976 9.69757C5.94112 14.454 3 21.0237 3 28.2809C3 34.6408 5.26042 40.4732 9.0199 45.0198C12.2202 48.8887 16.5055 51.825 21.4145 53.3618L21.4138 53.3615ZM24.7806 42.664C24.3285 42.526 23.8788 42.3642 23.4363 42.1786C23.0008 41.9978 22.5701 41.7932 22.1419 41.5671C21.566 41.2602 20.9355 41.1602 20.3311 41.2506C19.722 41.3411 19.1462 41.6242 18.6846 42.0858L18.4514 42.319C18.2253 42.5451 17.9279 42.6593 17.6281 42.6593C17.3283 42.6593 17.0309 42.5474 16.8048 42.319L15.1154 40.6297C14.8894 40.4036 14.7752 40.1038 14.7752 39.8064H14.7704C14.7704 39.5089 14.8846 39.2115 15.1131 38.9831C15.1297 38.9664 15.144 38.9521 15.1583 38.9355L15.3462 38.7475L15.3486 38.7499C15.8102 38.2883 16.0934 37.7125 16.1838 37.1057C16.2742 36.5013 16.1719 35.8708 15.8673 35.295C15.6341 34.8548 15.4271 34.4217 15.2511 33.9934C15.0655 33.5461 14.9037 33.0916 14.7633 32.6348C14.5729 32.009 14.1994 31.4903 13.7092 31.1262C13.219 30.7621 12.6123 30.5551 11.9603 30.5528H11.632C11.3131 30.5528 11.0228 30.4195 10.811 30.2077C10.5993 29.9936 10.4684 29.7009 10.4684 29.3821L10.4732 26.9931C10.4732 26.6743 10.6064 26.384 10.8182 26.1722C11.0323 25.9604 11.3226 25.8296 11.6439 25.8296H11.9722C12.6242 25.8319 13.2309 25.6249 13.7211 25.2656C14.2136 24.9016 14.5896 24.3829 14.7823 23.7594C14.9203 23.3121 15.0821 22.8672 15.2653 22.427C15.4438 21.9963 15.646 21.568 15.8721 21.1445C16.179 20.5686 16.279 19.9381 16.1885 19.3337C16.0981 18.7246 15.815 18.1488 15.3534 17.6872L15.1202 17.454C14.8941 17.2279 14.7799 16.9281 14.7799 16.6307C14.7799 16.3309 14.8918 16.0334 15.1202 15.8074L16.8095 14.118C17.0356 13.892 17.333 13.7801 17.6328 13.7801C17.9326 13.7801 18.2301 13.892 18.4561 14.118C18.4728 14.1347 18.4871 14.1489 18.5037 14.1632L18.6893 14.3512L18.6869 14.3536C19.1486 14.8152 19.7244 15.0984 20.3311 15.1888C20.9355 15.2792 21.566 15.1769 22.1419 14.8723C22.5702 14.6463 23.0009 14.4416 23.4363 14.2608C23.8812 14.0776 24.3285 13.9158 24.7806 13.7754C25.404 13.585 25.9204 13.2091 26.2844 12.7189C26.6509 12.224 26.8579 11.6172 26.8579 10.9677V10.6393C26.8579 10.3205 26.9887 10.0278 27.2005 9.81838C27.4123 9.60661 27.7026 9.47575 28.0214 9.47575H30.4104C30.7292 9.47575 31.0219 9.60661 31.2313 9.81838C31.4431 10.0302 31.5739 10.3204 31.5739 10.6393V10.9677C31.5739 11.6172 31.7809 12.224 32.1474 12.7189C32.5114 13.2091 33.0278 13.585 33.6512 13.7754C34.1033 13.9134 34.553 14.0752 34.9955 14.2608C35.431 14.4416 35.864 14.6463 36.2899 14.8723C36.8658 15.1792 37.4963 15.2792 38.1007 15.1888C38.7098 15.0983 39.2856 14.8152 39.7449 14.3536C39.7615 14.3369 39.7758 14.3226 39.7901 14.306L39.978 14.118L39.9804 14.1204C40.2065 13.8944 40.5063 13.7825 40.8037 13.7825C41.1035 13.7825 41.401 13.8943 41.627 14.1204L43.3164 15.8098C43.5424 16.0358 43.6566 16.3332 43.6566 16.6331C43.6566 16.9329 43.5448 17.2303 43.3164 17.4564L43.0832 17.6895C42.6216 18.1511 42.3384 18.7269 42.248 19.3361C42.1576 19.9404 42.2599 20.571 42.5645 21.1468C42.7977 21.587 43.0047 22.0201 43.1807 22.4507C43.3663 22.8981 43.5281 23.3502 43.6685 23.807C43.8089 24.2758 44.3038 24.5375 44.7702 24.3971C45.2366 24.2567 45.5007 23.7618 45.3603 23.2954C45.2009 22.7744 45.02 22.2675 44.8178 21.7797C44.6036 21.2634 44.3752 20.7757 44.1325 20.3164C44.0088 20.0833 43.9659 19.831 44.0016 19.5931C44.0373 19.3599 44.1492 19.1339 44.3371 18.9459L44.5703 18.7127C45.1438 18.1393 45.4293 17.3874 45.4293 16.6331C45.4293 15.8812 45.1414 15.1269 44.5703 14.5535L42.881 12.8641C42.3075 12.2907 41.5556 12.0051 40.8013 12.0051C40.0494 12.0051 39.2951 12.293 38.7217 12.8641L38.7241 12.8665L38.5361 13.0545C38.5195 13.0687 38.5028 13.083 38.4885 13.0997C38.3029 13.2853 38.0745 13.3995 37.8413 13.4352C37.6034 13.4708 37.3512 13.428 37.118 13.3043C36.6564 13.0592 36.1733 12.8308 35.6713 12.6238C35.1883 12.4239 34.6862 12.2431 34.1675 12.0836C33.9153 12.0051 33.7083 11.8576 33.5655 11.6649C33.4251 11.4745 33.3466 11.2342 33.3466 10.9677V10.6394C33.3466 9.828 33.0158 9.0951 32.4852 8.56211C31.9522 8.02912 31.217 7.70074 30.408 7.70074H28.019C27.2077 7.70074 26.4747 8.03148 25.9418 8.56211C25.4088 9.0951 25.0804 9.83031 25.0804 10.6394V10.9677C25.0804 11.2342 25.0019 11.4745 24.8615 11.6649C24.7187 11.8576 24.5117 12.0051 24.2595 12.0836C23.7408 12.2431 23.2387 12.4239 22.7557 12.6238C22.2536 12.8308 21.7706 13.0592 21.309 13.3043C21.0758 13.428 20.8236 13.4708 20.5856 13.4352C20.3525 13.3995 20.1264 13.2876 19.9384 13.0997L19.9361 13.102L19.7505 12.9141C19.7362 12.8974 19.7219 12.8808 19.7053 12.8665C19.1318 12.293 18.3799 12.0075 17.6256 12.0075C16.8737 12.0075 16.1194 12.2954 15.546 12.8665L13.8566 14.5558C13.2832 15.1293 12.9977 15.8812 12.9977 16.6355C12.9977 17.3874 13.2832 18.1417 13.8566 18.7151L14.0898 18.9483C14.2754 19.1362 14.3896 19.3623 14.4253 19.5955C14.461 19.8334 14.4182 20.0856 14.2945 20.3188C14.0518 20.778 13.8257 21.2563 13.6187 21.7536C13.4188 22.2319 13.2404 22.7316 13.0809 23.2455C13.0024 23.4953 12.8549 23.7023 12.6646 23.8427C12.4694 23.9855 12.2267 24.0688 11.965 24.0664H11.6367C10.8277 24.064 10.0924 24.3924 9.56185 24.923C9.02887 25.4536 8.69811 26.1888 8.69811 27.0002L8.69335 29.3892C8.69097 30.1981 9.01933 30.9334 9.54991 31.464C10.0805 31.997 10.8157 32.3277 11.6272 32.3277H11.9555C12.2173 32.3277 12.4576 32.4086 12.6527 32.5538C12.8454 32.6965 12.9929 32.9035 13.0691 33.1534C13.2285 33.6745 13.4093 34.1813 13.6116 34.6714C13.8257 35.1878 14.0541 35.6755 14.2968 36.1348C14.4206 36.3679 14.4634 36.6202 14.4277 36.8581C14.392 37.0913 14.2802 37.3173 14.0922 37.5053L14.0946 37.5077L13.9066 37.6956C13.89 37.7099 13.8733 37.7242 13.859 37.7409C13.288 38.3119 13.0025 39.0662 13.0025 39.8205H13.0001C13.0001 40.5724 13.2856 41.3267 13.8591 41.9001L15.5484 43.5895C16.1219 44.1629 16.8738 44.4485 17.6281 44.4485C18.38 44.4485 19.1343 44.1629 19.7077 43.5895L19.9409 43.3563C20.1265 43.1683 20.3549 43.0565 20.5881 43.0208C20.826 42.9851 21.0782 43.0279 21.3114 43.1517C21.773 43.3967 22.2561 43.6252 22.7581 43.8322C23.2411 44.0344 23.7456 44.2129 24.2619 44.3723C24.7307 44.5151 25.2256 44.2533 25.3683 43.787C25.5111 43.3039 25.2494 42.8092 24.7806 42.664ZM26.8626 35.257C25.3707 34.7573 24.0906 33.7984 23.1888 32.5469C22.3156 31.331 21.7993 29.8367 21.7993 28.2163C21.7993 26.1676 22.6297 24.3141 23.9717 22.9721C25.3137 21.6301 27.1672 20.7997 29.2159 20.7997C30.8363 20.7997 32.3306 21.316 33.5465 22.1892C34.798 23.0911 35.7569 24.3711 36.2566 25.863C36.4113 26.327 36.9133 26.5769 37.3773 26.4222C37.8413 26.2675 38.0911 25.7655 37.9364 25.3015C37.3202 23.4551 36.1305 21.868 34.5815 20.7545C33.0682 19.6647 31.217 19.0247 29.2183 19.0247C26.6794 19.0247 24.3809 20.055 22.7177 21.7182C21.0544 23.3814 20.0241 25.6799 20.0241 28.2188C20.0241 30.2175 20.6666 32.0687 21.754 33.582C22.8699 35.131 24.4546 36.3207 26.301 36.937C26.765 37.0916 27.267 36.8418 27.4217 36.3778C27.5763 35.9138 27.3266 35.4117 26.8626 35.257ZM42.2145 36.1826V39.9016C41.9171 40.0206 41.6506 40.2014 41.4269 40.4227C40.9986 40.851 40.7321 41.4435 40.7321 42.0978C40.7321 42.7521 40.9962 43.3446 41.4269 43.7753C41.8552 44.2036 42.4477 44.4701 43.102 44.4701C43.7563 44.4701 44.3488 44.206 44.7795 43.7753C45.0032 43.5516 45.1816 43.2851 45.3006 42.9877H47.1232C47.6134 42.9877 48.0107 42.5903 48.0107 42.1002C48.0107 41.6101 47.6134 41.2127 47.1232 41.2127H45.3006C45.1792 40.9153 45.0008 40.6488 44.7795 40.4251C44.5558 40.2014 44.2893 40.023 43.9919 39.904V36.185C43.9919 35.6948 43.5945 35.2975 43.1044 35.2975C42.6118 35.2951 42.2145 35.6924 42.2145 36.1826ZM42.2145 31.0264V33.3535C42.2145 33.8436 42.6119 34.241 43.102 34.241C43.5922 34.241 43.9895 33.8436 43.9895 33.3535V31.0264C43.9895 30.5363 43.5921 30.1389 43.102 30.1389C42.6118 30.1389 42.2145 30.5363 42.2145 31.0264ZM42.2145 50.8493V53.1764C42.2145 53.6665 42.6119 54.0639 43.102 54.0639C43.5922 54.0639 43.9895 53.6665 43.9895 53.1764V50.8493C43.9895 50.3592 43.5921 49.9618 43.102 49.9618C42.6118 49.9618 42.2145 50.3592 42.2145 50.8493ZM32.0256 42.9903H34.3527C34.8428 42.9903 35.2402 42.593 35.2402 42.1028C35.2402 41.6127 34.8428 41.2153 34.3527 41.2153H32.0256C31.5354 41.2153 31.1381 41.6127 31.1381 42.1028C31.1381 42.593 31.5355 42.9903 32.0256 42.9903ZM51.8485 42.9903H54.1755C54.6657 42.9903 55.063 42.593 55.063 42.1028C55.063 41.6127 54.6657 41.2153 54.1755 41.2153H51.8485C51.3583 41.2153 50.961 41.6127 50.961 42.1028C50.961 42.593 51.3584 42.9903 51.8485 42.9903ZM43.5229 41.6817C43.4158 41.5746 43.2659 41.508 43.1018 41.508C42.9376 41.508 42.7901 41.5746 42.6806 41.6817C42.5735 41.7887 42.5069 41.9387 42.5069 42.1028C42.5069 42.267 42.5735 42.4145 42.6806 42.524C42.7877 42.6311 42.9376 42.6977 43.1018 42.6977C43.2659 42.6977 43.4135 42.6311 43.5229 42.524C43.63 42.4169 43.6966 42.267 43.6966 42.1028C43.6966 41.9387 43.63 41.7888 43.5229 41.6817ZM52.3791 32.8258C50.0045 30.4512 46.7257 28.983 43.1021 28.983C39.4783 28.983 36.1994 30.4512 33.8251 32.8258C31.4504 35.2004 29.9823 38.4817 29.9823 42.1028C29.9823 45.7267 31.4504 49.0055 33.8251 51.3799C36.1997 53.7545 39.4809 55.2226 43.1021 55.2226C46.7259 55.2226 50.0048 53.7545 52.3791 51.3799C54.7535 49.0052 56.2219 45.724 56.2219 42.1028C56.2219 38.479 54.7538 35.1977 52.3791 32.8258Z" fill="white"/>
</svg>
