<svg width="256" height="256" viewBox="0 0 256 256" fill="none" xmlns="http://www.w3.org/2000/svg">
<path fill-rule="evenodd" clip-rule="evenodd" d="M122.727 79.8697C112.777 76.3119 98.9747 74.113 83.6967 74.113C68.4188 74.113 54.6169 76.312 44.6666 79.8697C35.4412 83.1683 29.7379 87.4323 29.7379 91.884C29.7379 96.3357 35.4412 100.6 44.6666 103.898C54.6162 107.456 68.4188 109.655 83.6967 109.655C98.9747 109.655 112.777 107.456 122.727 103.898C131.943 100.6 137.647 96.3357 137.656 91.8929V91.884V91.8751C137.656 87.4234 131.952 83.1593 122.727 79.8608V79.8697ZM46.2594 121.329C47.493 121.741 48.1724 123.072 47.7612 124.306C47.35 125.54 46.018 126.219 44.7843 125.808C43.3272 125.325 41.9237 124.816 40.5829 124.27C39.3046 123.752 38.0441 123.189 36.8106 122.563C35.6484 121.982 35.1836 120.57 35.7557 119.407C36.3368 118.245 37.7492 117.78 38.9113 118.353C39.9215 118.862 41.0746 119.372 42.353 119.89C43.5687 120.382 44.8739 120.865 46.2594 121.311L46.2594 121.329ZM137.657 125.674C137.648 130.125 131.945 134.389 122.728 137.679C112.779 141.237 98.976 143.436 83.6981 143.436C68.4202 143.436 54.6183 141.237 44.668 137.679C35.4426 134.38 29.7392 130.116 29.7392 125.665V100.993C32.8591 103.827 37.4272 106.312 43.0857 108.332C53.518 112.06 67.8837 114.366 83.6972 114.366C99.52 114.366 113.885 112.06 124.309 108.332C129.967 106.312 134.526 103.818 137.655 100.993L137.657 125.674ZM46.2594 155.137C47.493 155.548 48.1724 156.88 47.7612 158.114C47.35 159.348 46.018 160.027 44.7843 159.616C43.3272 159.133 41.9237 158.624 40.5829 158.078C39.3046 157.56 38.0441 156.997 36.8106 156.371C35.6484 155.79 35.1836 154.378 35.7557 153.215C36.3368 152.053 37.7492 151.588 38.9113 152.161C39.9215 152.67 41.0746 153.18 42.353 153.698C43.5687 154.19 44.8739 154.673 46.2594 155.119L46.2594 155.137ZM46.2594 188.944C47.493 189.356 48.1724 190.687 47.7612 191.921C47.35 193.155 46.018 193.834 44.7843 193.423C43.3272 192.94 41.9237 192.431 40.5829 191.885C39.3046 191.367 38.0441 190.804 36.8106 190.178C35.6484 189.597 35.1836 188.185 35.7557 187.022C36.3368 185.86 37.7492 185.395 38.9113 185.968C39.9215 186.477 41.0746 186.987 42.353 187.505C43.5687 187.997 44.8739 188.479 46.2594 188.926L46.2594 188.944ZM101.334 180.97C98.9561 181.248 96.5157 181.471 94.0306 181.632C90.6336 181.855 87.1741 181.972 83.6967 181.972C67.8739 181.972 53.5093 179.665 43.0852 175.938C37.4265 173.918 32.8676 171.423 29.7388 168.599V193.289C29.7388 197.74 35.4422 202.004 44.6675 205.303C54.6172 208.861 68.4197 211.06 83.6977 211.06C89.258 211.06 94.5858 210.774 99.583 210.237C103.168 209.853 106.609 209.343 109.854 208.718L108.174 207.037C108.12 206.983 108.058 206.921 108.013 206.858C107.199 205.955 106.788 204.811 106.788 203.676C106.788 202.469 107.253 201.253 108.174 200.324L108.183 200.315L108.174 200.306L110.48 198C110.266 197.544 110.069 197.097 109.881 196.641C109.693 196.194 109.515 195.729 109.345 195.255H106.091C104.786 195.255 103.597 194.719 102.729 193.861C101.871 193.003 101.335 191.814 101.335 190.5V180.944L101.334 180.97ZM137.655 144.525V134.781C134.535 137.615 129.967 140.1 124.308 142.12C113.876 145.848 99.5102 148.154 83.6967 148.154C67.8739 148.154 53.5093 145.848 43.0852 142.12C37.4265 140.1 32.8676 137.606 29.7388 134.781V159.471C29.7388 163.923 35.4422 168.187 44.6675 171.485C54.6172 175.043 68.4197 177.242 83.6977 177.242C87.175 177.242 90.5274 177.135 93.7366 176.92C96.3917 176.75 98.9662 176.509 101.451 176.205C101.657 175.32 102.104 174.525 102.73 173.899L102.739 173.89C103.597 173.032 104.786 172.495 106.091 172.495H109.345C109.515 172.022 109.693 171.557 109.881 171.11C110.069 170.663 110.265 170.207 110.48 169.751L108.174 167.445C107.244 166.515 106.788 165.299 106.788 164.084C106.788 162.868 107.253 161.661 108.174 160.731L108.183 160.723L108.174 160.714L117.551 151.336C118.481 150.407 119.697 149.951 120.913 149.951C122.128 149.951 123.344 150.416 124.274 151.336L126.58 153.643C127.036 153.428 127.483 153.231 127.939 153.044C128.386 152.856 128.851 152.677 129.325 152.507V149.253C129.325 147.948 129.861 146.768 130.719 145.901L130.728 145.892C131.586 145.034 132.775 144.498 134.08 144.498H137.665L137.655 144.525ZM140.024 149.245H147.336C147.336 149.245 147.354 149.254 147.363 149.254C147.372 149.263 147.372 149.272 147.372 149.281V154.224C147.372 155.359 148.176 156.307 149.249 156.53C150.045 156.781 150.849 157.076 151.672 157.415C152.566 157.782 153.406 158.184 154.202 158.604C155.131 159.105 156.258 158.908 156.973 158.193L156.982 158.202L160.486 154.698C160.486 154.698 160.504 154.689 160.513 154.689C160.522 154.689 160.531 154.689 160.54 154.698L169.917 164.075C169.917 164.075 169.926 164.093 169.926 164.102C169.926 164.111 169.926 164.12 169.917 164.129L166.413 167.633C165.608 168.437 165.51 169.671 166.1 170.583C166.484 171.316 166.851 172.103 167.191 172.925C167.557 173.81 167.879 174.686 168.138 175.544C168.442 176.554 169.381 177.216 170.382 177.216V177.225H175.326C175.326 177.225 175.343 177.233 175.352 177.233C175.361 177.242 175.361 177.251 175.361 177.26V190.526V190.553L175.352 190.562H175.326H170.382C169.247 190.562 168.299 191.366 168.076 192.439C167.825 193.235 167.53 194.039 167.191 194.862C166.824 195.756 166.422 196.596 166.002 197.392C165.501 198.321 165.698 199.448 166.413 200.163L166.404 200.172L169.908 203.676C169.908 203.676 169.917 203.693 169.917 203.702C169.917 203.711 169.917 203.729 169.908 203.729H169.899L160.513 213.115H160.495C160.495 213.115 160.477 213.107 160.468 213.107L156.973 209.611C156.168 208.807 154.935 208.709 154.023 209.299C153.29 209.683 152.503 210.049 151.681 210.389C150.796 210.756 149.92 211.077 149.062 211.337C148.051 211.641 147.39 212.579 147.39 213.58H147.381V218.524C147.381 218.524 147.372 218.542 147.372 218.551C147.363 218.56 147.354 218.56 147.345 218.56H134.079C134.079 218.56 134.061 218.56 134.052 218.551C134.043 218.542 134.043 218.533 134.043 218.524V213.58C134.043 212.445 133.239 211.498 132.166 211.274C131.37 211.024 130.566 210.729 129.743 210.389C128.849 210.023 128.009 209.62 127.213 209.2C126.284 208.7 125.157 208.896 124.442 209.611L124.433 209.602L120.938 213.098C120.938 213.098 120.92 213.107 120.911 213.107C120.902 213.107 120.894 213.107 120.885 213.098L111.498 203.711V203.693V203.667L114.993 200.172C115.798 199.367 115.896 198.133 115.306 197.222C114.922 196.489 114.555 195.702 114.216 194.88C113.849 193.995 113.527 193.119 113.268 192.26C112.964 191.25 112.025 190.589 111.024 190.589V190.58H106.081C106.081 190.58 106.063 190.571 106.054 190.571C106.045 190.562 106.045 190.553 106.045 190.544V177.278C106.045 177.278 106.045 177.26 106.054 177.251C106.063 177.242 106.072 177.242 106.081 177.242H111.024C112.16 177.242 113.107 176.438 113.331 175.365C113.581 174.57 113.876 173.765 114.216 172.943C114.582 172.049 114.984 171.209 115.405 170.413C115.905 169.483 115.708 168.357 114.993 167.642L115.002 167.633L111.507 164.138C111.507 164.138 111.498 164.12 111.498 164.111C111.498 164.102 111.498 164.084 111.507 164.084L120.885 154.707C120.893 154.698 120.902 154.698 120.911 154.698C120.92 154.698 120.929 154.698 120.938 154.707L124.433 158.202C125.238 159.006 126.472 159.105 127.383 158.515C128.117 158.13 128.903 157.764 129.726 157.424C130.611 157.058 131.487 156.736 132.345 156.477C133.355 156.173 134.016 155.234 134.016 154.233H134.025V149.289C134.025 149.289 134.025 149.272 134.034 149.263C134.043 149.254 134.052 149.254 134.061 149.254H140.006H140.015L140.024 149.245ZM149.392 175.205C151.618 177.431 152.986 180.497 152.986 183.894C152.986 187.291 151.609 190.357 149.392 192.583C147.166 194.809 144.1 196.176 140.703 196.176C137.306 196.176 134.24 194.8 132.014 192.583C129.788 190.357 128.42 187.291 128.42 183.894C128.42 180.497 129.797 177.431 132.014 175.205C134.24 172.979 137.306 171.611 140.703 171.611C144.1 171.611 147.166 172.988 149.392 175.205ZM140.703 166.891C145.396 166.891 149.652 168.795 152.727 171.871C155.802 174.946 157.706 179.201 157.706 183.894C157.706 188.587 155.802 192.842 152.727 195.917C149.651 198.992 145.396 200.896 140.703 200.896C136.01 200.896 131.755 198.992 128.68 195.917C125.605 192.842 123.7 188.587 123.7 183.894C123.7 179.201 125.604 174.945 128.68 171.871C131.755 168.796 136.01 166.891 140.703 166.891ZM172.893 39.794C171.615 38.5157 169.863 37.7291 167.914 37.7291C165.965 37.7291 164.213 38.5157 162.934 39.794C162.532 40.1963 162.184 40.6432 161.889 41.1259L161.871 41.1617C161.236 42.2165 160.869 43.459 160.869 44.7731C160.869 46.0961 161.236 47.3297 161.871 48.3934L161.889 48.4202C162.184 48.9118 162.532 49.3588 162.943 49.7611C164.222 51.0394 165.974 51.826 167.923 51.826C169.871 51.826 171.624 51.0394 172.902 49.7611C173.304 49.3588 173.653 48.9208 173.948 48.4291L173.975 48.3934C174.609 47.3386 174.967 46.096 174.967 44.782C174.967 43.459 174.6 42.2254 173.966 41.1706L173.948 41.1349C173.653 40.6521 173.304 40.2052 172.902 39.8029L172.893 39.794ZM179.41 47.2671H223.777C224.456 47.2671 225.082 46.99 225.529 46.5341C225.976 46.0871 226.262 45.4614 226.262 44.782C226.262 44.1027 225.985 43.4769 225.529 43.03C225.082 42.583 224.456 42.2969 223.777 42.2969H179.41C179.58 43.1015 179.669 43.9328 179.669 44.7909C179.669 45.649 179.58 46.4804 179.41 47.2848V47.2671ZM156.418 42.2879H153.28C152.6 42.2879 151.975 42.565 151.528 43.0209C151.072 43.4768 150.795 44.0936 150.795 44.773C150.795 45.4524 151.072 46.0781 151.528 46.5251C151.984 46.981 152.6 47.2581 153.28 47.2581H156.418C156.248 46.4536 156.158 45.6222 156.158 44.7642C156.158 43.9061 156.248 43.0746 156.418 42.2702V42.2879ZM158.617 51.9781H153.28C151.295 51.9781 149.499 51.1646 148.184 49.8595C146.879 48.5544 146.066 46.7486 146.066 44.7641C146.066 42.7796 146.879 40.9829 148.184 39.6686C149.489 38.3635 151.295 37.55 153.28 37.55H158.617C158.921 37.1567 159.242 36.7902 159.6 36.4416C161.728 34.314 164.669 33 167.914 33C171.159 33 174.1 34.3141 176.227 36.4416C176.576 36.7902 176.907 37.1567 177.211 37.55H223.786C225.77 37.55 227.567 38.3635 228.881 39.6686C230.187 40.9738 231 42.7795 231 44.7641C231 46.7486 230.187 48.5452 228.881 49.8595C227.576 51.1646 225.77 51.9781 223.786 51.9781H177.211C176.907 52.3714 176.585 52.7379 176.227 53.0865C174.1 55.2141 171.159 56.5281 167.914 56.5281C164.669 56.5281 161.728 55.2141 159.6 53.0865C159.251 52.7379 158.921 52.3714 158.617 51.9781ZM211.753 64.2963C210.475 63.018 208.723 62.2313 206.774 62.2313C204.825 62.2313 203.073 63.018 201.794 64.2963C201.392 64.6985 201.044 65.1366 200.749 65.6282L200.722 65.664C200.087 66.7188 199.729 67.9613 199.729 69.2753C199.729 70.5983 200.096 71.832 200.722 72.8867L200.749 72.9225C201.044 73.4052 201.392 73.8521 201.794 74.2544C203.073 75.5327 204.825 76.3193 206.774 76.3193C208.723 76.3193 210.484 75.5327 211.753 74.2544C212.155 73.8521 212.504 73.4141 212.799 72.9225L212.826 72.8867C213.46 71.8319 213.818 70.5894 213.818 69.2753C213.818 67.9523 213.451 66.7187 212.817 65.655L212.799 65.6282C212.504 65.1366 212.146 64.6896 211.744 64.2873L211.753 64.2963ZM218.27 71.7694H223.776C224.456 71.7694 225.082 71.4923 225.529 71.0364C225.985 70.5805 226.262 69.9637 226.262 69.2843C226.262 68.6049 225.985 67.9792 225.529 67.5322C225.073 67.0763 224.456 66.7992 223.776 66.7992H218.27C218.44 67.6037 218.529 68.4351 218.529 69.2932C218.529 70.1512 218.44 70.9827 218.27 71.7871V71.7694ZM195.277 66.7902H153.279C152.6 66.7902 151.974 67.0673 151.527 67.5232C151.071 67.9791 150.794 68.5959 150.794 69.2753C150.794 69.9546 151.071 70.5804 151.527 71.0273C151.983 71.4832 152.6 71.7604 153.279 71.7604H195.277C195.108 70.9558 195.018 70.1245 195.018 69.2664C195.018 68.4083 195.108 67.5769 195.277 66.7725V66.7902ZM197.477 76.4803H153.281C151.297 76.4803 149.5 75.6669 148.186 74.3618C146.881 73.0566 146.067 71.2509 146.067 69.2753C146.067 67.2907 146.881 65.4941 148.186 64.1798C149.491 62.8747 151.297 62.0612 153.281 62.0612H197.477C197.781 61.6679 198.102 61.3014 198.46 60.9528C200.588 58.8252 203.528 57.5112 206.774 57.5112C210.019 57.5112 212.96 58.8253 215.087 60.9528C215.436 61.3014 215.767 61.6679 216.071 62.0612H223.776C225.761 62.0612 227.558 62.8747 228.872 64.1798C230.177 65.4849 230.99 67.2907 230.99 69.2753C230.99 71.2598 230.177 73.0564 228.872 74.3618C227.567 75.6669 225.761 76.4803 223.776 76.4803H216.071C215.767 76.8737 215.445 77.2402 215.087 77.5888C212.96 79.7163 210.019 81.0304 206.774 81.0304C203.528 81.0304 200.588 79.7163 198.46 77.5888C198.111 77.2402 197.781 76.8737 197.477 76.4803ZM188.09 88.7985C186.812 87.5202 185.06 86.7336 183.111 86.7336C181.162 86.7336 179.41 87.5202 178.132 88.7985C177.729 89.2008 177.381 89.6477 177.086 90.1305L177.068 90.1662C176.433 91.2211 176.067 92.4636 176.067 93.7776C176.067 95.1006 176.433 96.3342 177.068 97.3979L177.086 97.4247C177.381 97.9164 177.729 98.3633 178.141 98.7656C179.419 100.044 181.171 100.831 183.12 100.831C185.069 100.831 186.821 100.044 188.099 98.7656C188.501 98.3633 188.85 97.9253 189.145 97.4337L189.172 97.3979C189.806 96.3431 190.164 95.1006 190.164 93.7865C190.164 92.4635 189.798 91.2299 189.163 90.1752L189.145 90.1394C188.85 89.6567 188.501 89.2097 188.099 88.8075L188.09 88.7985ZM171.615 91.2925H153.28C152.601 91.2925 151.975 91.5696 151.528 92.0255C151.072 92.4814 150.795 93.0982 150.795 93.7775C150.795 94.4569 151.072 95.0827 151.528 95.5296C151.984 95.9855 152.601 96.2626 153.28 96.2626H171.615C171.445 95.4581 171.356 94.6268 171.356 93.7687C171.356 92.9106 171.445 92.0792 171.615 91.2748V91.2925ZM194.607 96.2716H223.776C224.456 96.2716 225.082 95.9945 225.528 95.5386C225.975 95.0917 226.262 94.4659 226.262 93.7866C226.262 93.1072 225.984 92.4814 225.528 92.0345C225.082 91.5875 224.456 91.3015 223.776 91.3015H194.607C194.777 92.106 194.867 92.9373 194.867 93.7954C194.867 94.6535 194.777 95.4849 194.607 96.2893V96.2716ZM192.408 86.5815H223.786C225.77 86.5815 227.567 87.395 228.881 88.7001C230.186 90.0052 231 91.811 231 93.7955C231 95.78 230.186 97.5767 228.881 98.8909C227.576 100.196 225.77 101.01 223.786 101.01H192.408C192.104 101.403 191.782 101.769 191.425 102.118C189.297 104.246 186.356 105.56 183.111 105.56C179.866 105.56 176.925 104.245 174.798 102.118C174.449 101.769 174.118 101.403 173.814 101.01H153.28C151.296 101.01 149.499 100.196 148.185 98.8909C146.88 97.5858 146.066 95.78 146.066 93.7955C146.066 91.811 146.88 90.0143 148.185 88.7001C149.49 87.395 151.296 86.5815 153.28 86.5815H173.814C174.118 86.1882 174.44 85.8217 174.798 85.473C176.925 83.3455 179.866 82.0314 183.111 82.0314C186.356 82.0314 189.297 83.3455 191.425 85.473C191.773 85.8216 192.104 86.1882 192.408 86.5815ZM83.6959 69.4093C99.5187 69.4093 113.883 71.7156 124.307 75.4432C135.428 79.4212 142.32 85.1958 142.365 91.8378V91.8646V91.9004V91.9093V125.691V125.7V144.553H147.326C148.632 144.553 149.83 145.089 150.688 145.947C151.546 146.806 152.082 147.995 152.082 149.309V152.563C152.556 152.732 153.021 152.911 153.468 153.099C153.915 153.287 154.371 153.483 154.827 153.698L157.133 151.392C158.063 150.462 159.278 150.006 160.494 150.006C161.71 150.006 162.926 150.471 163.856 151.392L173.233 160.769C174.163 161.699 174.619 162.914 174.619 164.13C174.619 165.346 174.154 166.562 173.233 167.491L170.927 169.798C171.141 170.254 171.338 170.701 171.526 171.156C171.714 171.603 171.892 172.068 172.062 172.542H175.316C176.621 172.542 177.819 173.078 178.678 173.937C179.536 174.795 180.072 175.984 180.072 177.298V190.564C180.072 191.86 179.536 193.049 178.678 193.916L178.66 193.934C177.792 194.792 176.612 195.319 175.316 195.319H172.062C171.893 195.793 171.714 196.249 171.526 196.705C171.338 197.152 171.142 197.608 170.927 198.064L173.233 200.37C174.163 201.3 174.619 202.515 174.619 203.731C174.619 204.947 174.154 206.154 173.233 207.083L173.224 207.092L173.233 207.101L163.856 216.478C163.793 216.541 163.731 216.595 163.668 216.648C162.765 217.462 161.63 217.873 160.495 217.873C159.279 217.873 158.063 217.408 157.133 216.487L154.827 214.181C154.371 214.396 153.924 214.592 153.468 214.78C153.021 214.968 152.556 215.146 152.083 215.316V218.57C152.083 219.875 151.546 221.064 150.688 221.932C149.83 222.79 148.641 223.326 147.327 223.326H134.061C132.755 223.326 131.576 222.79 130.708 221.932L130.699 221.923C129.841 221.064 129.305 219.876 129.305 218.57V215.317C128.831 215.147 128.366 214.968 127.919 214.78C127.472 214.592 127.016 214.396 126.561 214.181L124.254 216.488C123.325 217.417 122.109 217.873 120.893 217.873C119.677 217.873 118.461 217.408 117.532 216.488L113.822 212.778C109.575 213.716 104.963 214.467 100.055 214.995C94.8345 215.549 89.3278 215.853 83.669 215.853C67.8462 215.853 53.4816 213.547 43.0575 209.819C31.9012 205.832 25 200.031 25 193.362V91.9637V91.8922C25.0447 85.2594 31.9369 79.4845 43.0575 75.5065C53.4898 71.7789 67.8556 69.4726 83.669 69.4726L83.6959 69.4093Z" fill="black"/>
</svg>
