<svg width="80" height="80" viewBox="0 0 80 80" fill="none" xmlns="http://www.w3.org/2000/svg">
<g clip-path="url(#clip0_3_497)">
<path d="M40 80C62.0914 80 80 62.0914 80 40C80 17.9086 62.0914 0 40 0C17.9086 0 0 17.9086 0 40C0 62.0914 17.9086 80 40 80Z" fill="#FFF2E8"/>
<path fill-rule="evenodd" clip-rule="evenodd" d="M18.8701 67H14.508C13.997 67 13.5852 66.5897 13.5852 66.0806V59.6298H11.9228C11.4118 59.6298 11 59.2195 11 58.7181V53.8097C11 53.3006 11.4118 52.8903 11.9228 52.8903H17.7109V45.0567C17.7109 39.7304 22.0578 35.3919 27.4112 35.3919H28.7077L29.9812 33.196C28.2577 31.9119 27.1367 29.8604 27.1367 27.5506V25.5599C25.6573 23.2653 25.1768 21.1834 25.7106 19.375C26.2445 17.5819 27.6248 16.6093 28.273 16.2446C29.2034 14.3375 31.0565 13.1674 33.4282 13.0154C36.7989 12.8103 40.3908 14.6718 41.9694 17.4451C43.3649 19.8917 43.1209 22.7714 41.283 25.5751V27.5506C41.283 29.8756 40.1467 31.9423 38.4004 33.2264L39.6587 35.3919H40.9551C46.3086 35.3919 50.6554 39.7304 50.6554 45.0567V52.8903H58.3196C58.8305 52.8903 59.2423 53.3006 59.2423 53.8097V58.7181C59.2423 59.2195 58.8305 59.6298 58.3196 59.6298H56.6571V66.0806C56.6571 66.5897 56.2453 67 55.7344 67H51.3723C50.8613 67 50.4495 66.5897 50.4495 66.0806V59.6298H19.7928V66.0806C19.7928 66.5897 19.381 67 18.8701 67ZM14.5004 57.7987H14.508H18.8701H57.4045V54.729H24.6811H12.8455V57.7987H14.5004ZM19.5488 52.8903H23.7584V45.7557C23.7584 45.2466 24.1702 44.8363 24.6811 44.8363C25.1921 44.8363 25.6039 45.2466 25.6039 45.7557V52.8903H42.7625V45.7557C42.7625 45.2466 43.1743 44.8363 43.6852 44.8363C44.1962 44.8363 44.608 45.2466 44.608 45.7557V52.8903H48.8175V45.0567C48.8175 40.7409 45.2867 37.2306 40.9551 37.2306H39.5824L34.9153 43.3851C34.5492 43.8713 33.8171 43.8713 33.4511 43.3851L28.7839 37.2306H27.4112C23.0796 37.2306 19.5488 40.7409 19.5488 45.0567V52.8903ZM40.7949 22.3687C41.2067 20.9402 41.0695 19.5802 40.3679 18.3493C39.1401 16.1838 36.2041 14.6794 33.5426 14.8466C32.5054 14.9149 30.6371 15.31 29.8363 17.2552C29.7448 17.4755 29.5694 17.6579 29.3483 17.749C29.3406 17.7566 27.9069 18.4101 27.4722 19.9145C27.2435 20.6895 27.3121 21.5709 27.6553 22.551C28.6162 20.0665 30.6981 19.2079 33.4358 20.4388C34.3891 19.7701 36.5244 18.5696 38.4614 19.3902C39.5366 19.8537 40.3221 20.8491 40.7949 22.3687ZM28.9822 25.2788V27.5506C28.9822 29.4805 30.0346 31.1673 31.5979 32.0715L31.7276 32.1399C32.4673 32.5426 33.3138 32.7629 34.2137 32.7629C37.0506 32.7629 39.4451 30.4683 39.4451 27.5506V25.332C39.2774 22.9537 38.6825 21.4873 37.7369 21.077C36.5244 20.5603 34.6712 21.7532 34.1222 22.2091C33.8324 22.4523 33.4358 22.4903 33.1003 22.3155C31.8877 21.6773 30.9573 21.5481 30.3244 21.9204C29.2567 22.551 28.9898 24.5949 28.9822 25.2788ZM34.2137 34.6017C33.2833 34.6017 32.3987 34.4193 31.5903 34.0926L30.3396 36.2428L34.1832 41.3108L38.0267 36.2428L36.7913 34.1154C35.9905 34.4269 35.1212 34.6017 34.2137 34.6017ZM47.7041 35.8249C47.1093 35.8249 46.667 35.2627 46.8119 34.6776L47.2695 32.9377H45.5307C45.0198 32.9377 44.608 32.5274 44.608 32.0183V16.6549C44.608 16.1458 45.0198 15.7355 45.5307 15.7355H64.0772C64.5882 15.7355 65 16.1458 65 16.6549V32.0183C65 32.5274 64.5882 32.9377 64.0772 32.9377H54.4379L48.0778 35.7414C47.9634 35.7946 47.8338 35.8249 47.7041 35.8249ZM46.4535 31.0989H48.4591C49.0616 31.0989 49.4963 31.6688 49.3514 32.2462L49.0768 33.2948L53.866 31.1825C53.9804 31.1293 54.11 31.0989 54.2397 31.0989H63.1545V17.5667H46.4535V31.0989ZM61.2861 21.5937H48.3218C47.8109 21.5937 47.3991 21.1834 47.3991 20.6819C47.3991 20.1728 47.8109 19.7625 48.3218 19.7625H61.2861C61.7894 19.7625 62.2012 20.1728 62.2012 20.6819C62.2012 21.1834 61.7894 21.5937 61.2861 21.5937ZM61.2861 25.2484H48.3218C47.8109 25.2484 47.3991 24.8381 47.3991 24.3366C47.3991 23.8275 47.8109 23.4172 48.3218 23.4172H61.2861C61.7894 23.4172 62.2012 23.8275 62.2012 24.3366C62.2012 24.8381 61.7894 25.2484 61.2861 25.2484ZM61.2861 28.9031H48.3218C47.8109 28.9031 47.3991 28.4928 47.3991 27.9913C47.3991 27.4822 47.8109 27.0719 48.3218 27.0719H61.2861C61.7894 27.0719 62.2012 27.4822 62.2012 27.9913C62.2012 28.4928 61.7894 28.9031 61.2861 28.9031ZM52.295 65.1613H54.8192V59.6298H52.295V65.1613ZM15.4307 65.1613H17.9549V59.6298H15.4307V65.1613Z" fill="#F48120"/>
</g>
<defs>
<clipPath id="clip0_3_497">
<rect width="80" height="80" fill="white"/>
</clipPath>
</defs>
</svg>
