<svg width="256" height="256" viewBox="0 0 256 256" fill="none" xmlns="http://www.w3.org/2000/svg">
<path fill-rule="evenodd" clip-rule="evenodd" d="M135.425 203.475C134.36 204.09 132.998 203.719 132.385 202.652C131.771 201.584 132.141 200.218 133.206 199.603L143.779 193.478C144.843 192.863 146.206 193.234 146.819 194.302C147.432 195.369 147.063 196.735 145.998 197.35L135.425 203.475ZM136.922 176.751C137.301 176.371 137.662 175.982 138.023 175.584H152.882C154.118 175.584 155.119 174.58 155.119 173.34V75.0832C155.119 73.8438 154.118 72.8396 152.882 72.8396L122.895 72.8305C121.659 72.8305 120.657 73.8347 120.657 75.0741V122.271C116.309 121.348 111.753 121.321 107.296 122.262V99.4735C107.296 98.2341 106.295 97.2299 105.059 97.2299L75.0627 97.239C73.8268 97.239 72.8254 98.2432 72.8254 99.4826V173.341C72.8254 174.581 73.8268 175.585 75.0627 175.585H89.9303C94.1886 180.352 99.6738 183.645 105.61 185.238C110.951 186.676 116.662 186.739 122.174 185.283L127.776 195.008L125.367 196.401C124.303 197.026 123.933 198.392 124.555 199.459L136.247 219.769C138.106 222.999 141.11 225.17 144.457 226.075C147.75 226.961 151.377 226.608 154.57 224.799C154.615 224.772 154.66 224.754 154.706 224.727C157.926 222.863 160.091 219.85 160.994 216.494C161.878 213.192 161.526 209.546 159.722 206.344C159.695 206.298 159.677 206.253 159.649 206.208L147.957 185.898C147.335 184.831 145.973 184.46 144.908 185.084L142.508 186.477L136.922 176.751ZM126.475 183.808C127.657 183.31 128.83 182.731 129.976 182.071C130.021 182.053 130.066 182.025 130.111 181.998C131.293 181.311 132.43 180.56 133.494 179.746L138.646 188.702L131.627 192.764L126.475 183.808ZM130.418 34.4647C129.191 34.329 128.307 33.2253 128.442 31.995C128.577 30.7646 129.678 29.878 130.905 30.0137L150.527 32.194C151.754 32.3297 152.638 33.4334 152.503 34.6637C152.476 34.9351 152.394 35.1884 152.277 35.4237L144.392 53.4539C143.896 54.5848 142.579 55.1095 141.451 54.6119C140.324 54.1143 139.8 52.7935 140.296 51.6628L145.493 39.7754L81.9185 76.5877C80.854 77.2119 79.4827 76.841 78.8693 75.7735C78.8422 75.7373 78.8242 75.692 78.8061 75.6559L69.0899 58.7745L30.9365 80.8578C29.872 81.4729 28.5097 81.102 27.8963 80.0345C27.2828 78.967 27.6527 77.6009 28.7172 76.9858L68.7922 53.7798C69.8567 53.1646 71.219 53.5355 71.8324 54.603L81.6119 71.5927L143.274 35.8944L130.418 34.4647ZM175.652 72.831H228.762C229.998 72.831 231 73.8352 231 75.0746V92.6072C231 93.8466 229.998 94.8508 228.762 94.8508H175.652C174.416 94.8508 173.415 93.8466 173.415 92.6072V75.0746C173.415 73.8443 174.416 72.831 175.652 72.831ZM226.524 77.3273H177.888V90.3636H226.524V77.3273ZM175.652 113.452C174.416 113.452 173.415 112.448 173.415 111.208C173.415 109.969 174.416 108.965 175.652 108.965H228.762C229.998 108.965 231 109.969 231 111.208C231 112.448 229.998 113.452 228.762 113.452H175.652ZM97.9667 125.846C97.9216 125.864 97.8764 125.891 97.8313 125.918C90.1087 130.387 84.9305 137.58 82.7924 145.577C80.6723 153.529 81.5564 162.295 85.95 170.013C85.977 170.058 85.9951 170.103 86.0221 170.148C86.2026 170.465 86.392 170.782 86.5815 171.089H77.3073V101.728H102.821V123.576C101.161 124.191 99.5455 124.941 97.9667 125.846ZM125.131 123.575V77.3276H150.645V171.096H141.38C143.067 168.373 144.348 165.415 145.16 162.339C147.28 154.387 146.396 145.621 142.002 137.904C141.984 137.858 141.957 137.813 141.93 137.768C138.005 130.947 131.97 126.099 125.131 123.575ZM121.171 127.013C121.487 127.094 121.802 127.185 122.118 127.284C122.19 127.312 122.263 127.33 122.335 127.348C128.74 129.374 134.442 133.717 138.068 140.004L138.132 140.104C141.912 146.744 142.679 154.307 140.838 161.164C139.81 165.027 137.951 168.664 135.353 171.794C135.308 171.849 135.263 171.903 135.218 171.957C133.224 174.318 130.815 176.381 128.009 178.028C127.91 178.082 127.811 178.136 127.712 178.199C121.099 181.963 113.593 182.714 106.764 180.886C101.405 179.448 96.47 176.408 92.735 171.975C92.6899 171.912 92.6358 171.849 92.5816 171.785C91.6163 170.618 90.7322 169.361 89.9474 168.013C89.8933 167.913 89.8391 167.814 89.776 167.714C86.023 161.083 85.2742 153.556 87.0965 146.708C88.9369 139.814 93.4026 133.617 100.061 129.763L100.16 129.7C101.901 128.705 103.705 127.918 105.546 127.33C105.654 127.303 105.762 127.266 105.87 127.23C110.94 125.719 116.236 125.683 121.171 127.013ZM175.653 104.152C174.417 104.152 173.415 103.148 173.415 101.908C173.415 100.669 174.417 99.6646 175.653 99.6646H228.763C229.999 99.6646 231 100.669 231 101.908C231 103.148 229.999 104.152 228.763 104.152H175.653ZM130.769 144.156C130.751 144.119 130.724 144.083 130.715 144.047C128.027 139.478 123.76 136.411 119.005 135.136C114.197 133.842 108.892 134.385 104.246 137.081C103.181 137.696 101.819 137.325 101.206 136.258C100.592 135.19 100.962 133.824 102.027 133.209C107.746 129.898 114.26 129.219 120.16 130.811C125.997 132.376 131.248 136.158 134.559 141.785C134.586 141.83 134.613 141.876 134.64 141.921L134.676 141.984C135.298 143.052 134.929 144.427 133.864 145.042C132.799 145.666 131.428 145.295 130.815 144.228L130.769 144.156ZM145.222 190.077L129.542 199.15L140.034 217.38C140.089 217.461 140.143 217.552 140.188 217.642C141.433 219.732 143.417 221.143 145.61 221.731C147.802 222.319 150.202 222.102 152.313 220.935C152.403 220.872 152.493 220.817 152.593 220.772C154.677 219.524 156.084 217.534 156.67 215.326C157.266 213.109 157.031 210.676 155.849 208.55L155.786 208.45L145.222 190.077ZM27.2374 121.637H57.2243C58.4602 121.637 59.4616 122.642 59.4616 123.881V173.332C59.4616 174.571 58.4602 175.575 57.2243 175.575L27.2374 175.584C26.0014 175.584 25 174.58 25 173.341V123.883C25 122.644 26.0014 121.637 27.2374 121.637ZM54.9886 126.134H29.4753V171.096H54.9886V126.134Z" fill="black"/>
</svg>
