<svg width="60" height="60" viewBox="0 0 60 60" fill="none" xmlns="http://www.w3.org/2000/svg">
<path fill-rule="evenodd" clip-rule="evenodd" d="M55.8321 7.39219L52.6214 4.17281V7.39219H55.8321ZM41.9444 14.4842C41.7791 14.4791 41.6223 14.4098 41.5072 14.291C41.392 14.1723 41.3277 14.0133 41.3277 13.8479C41.3277 13.6825 41.392 13.5236 41.5072 13.4049C41.6223 13.2861 41.7791 13.2168 41.9444 13.2117H53.4963C53.6616 13.2168 53.8185 13.2861 53.9336 13.4049C54.0487 13.5236 54.1131 13.6825 54.1131 13.8479C54.1131 14.0133 54.0487 14.1723 53.9336 14.291C53.8185 14.4098 53.6616 14.4791 53.4963 14.4842H41.9444ZM41.9444 18.2081C41.7791 18.2029 41.6223 18.1336 41.5072 18.0149C41.392 17.8961 41.3277 17.7372 41.3277 17.5718C41.3277 17.4064 41.392 17.2475 41.5072 17.1287C41.6223 17.0099 41.7791 16.9407 41.9444 16.9355H53.4963C53.6616 16.9407 53.8185 17.0099 53.9336 17.1287C54.0487 17.2475 54.1131 17.4064 54.1131 17.5718C54.1131 17.7372 54.0487 17.8961 53.9336 18.0149C53.8185 18.1336 53.6616 18.2029 53.4963 18.2081H41.9444ZM41.9444 21.9319C41.7791 21.9268 41.6223 21.8575 41.5072 21.7387C41.392 21.6199 41.3277 21.461 41.3277 21.2956C41.3277 21.1302 41.392 20.9713 41.5072 20.8526C41.6223 20.7338 41.7791 20.6645 41.9444 20.6593H53.4963C53.6616 20.6645 53.8185 20.7338 53.9336 20.8526C54.0487 20.9713 54.1131 21.1302 54.1131 21.2956C54.1131 21.461 54.0487 21.6199 53.9336 21.7387C53.8185 21.8575 53.6616 21.9268 53.4963 21.9319H41.9444ZM31.7269 21.3651H27.8518V23.3329C27.8517 23.4712 27.8066 23.6058 27.7233 23.7162C27.6399 23.8266 27.5229 23.9068 27.3899 23.9448C27.0735 24.0348 26.7626 24.143 26.4588 24.269C26.169 24.3892 25.8858 24.5248 25.6104 24.6752C25.4879 24.7565 25.341 24.7929 25.1947 24.7783C25.0485 24.7637 24.9117 24.6989 24.8077 24.595L23.4154 23.202L20.6757 25.9423L22.0681 27.3352C22.1654 27.4328 22.2283 27.5593 22.2474 27.6958C22.2664 27.8322 22.2406 27.9711 22.1737 28.0916C22.0131 28.3807 21.8688 28.6786 21.7415 28.9838C21.6193 29.2791 21.5136 29.5808 21.4247 29.8878C21.3917 30.0268 21.3128 30.1506 21.2008 30.2394C21.0888 30.3281 20.9502 30.3765 20.8073 30.3768H18.8382V34.2519H20.8054C20.9436 34.2521 21.078 34.2972 21.1883 34.3806C21.2986 34.4639 21.3787 34.5808 21.4167 34.7137C21.5939 35.332 21.8388 35.9288 22.1471 36.4932C22.2286 36.6157 22.2652 36.7626 22.2505 36.9089C22.2359 37.0553 22.171 37.1921 22.0669 37.2959L20.6739 38.6889L22.4725 40.4838L22.4843 40.4956L23.4178 41.4298L24.8083 40.0349C24.906 39.9376 25.0326 39.8746 25.1692 39.8556C25.3057 39.8365 25.4448 39.8624 25.5653 39.9294C26.1341 40.245 26.7367 40.4956 27.3615 40.6765C27.5005 40.7096 27.6243 40.7885 27.713 40.9005C27.8017 41.0125 27.8501 41.1511 27.8505 41.2939V43.2617H31.7256V41.2989C31.7258 41.1605 31.7711 41.0259 31.8545 40.9155C31.9379 40.8051 32.055 40.7249 32.1881 40.687C32.5046 40.597 32.8155 40.4886 33.1192 40.3622C33.4089 40.2424 33.6919 40.107 33.967 39.9565C34.0894 39.875 34.2363 39.8385 34.3827 39.8531C34.529 39.8677 34.6658 39.9326 34.7697 40.0368L36.1626 41.4298L38.9029 38.6895L37.5099 37.2965C37.4124 37.199 37.3492 37.0724 37.3301 36.9358C37.3109 36.7992 37.3368 36.6601 37.4037 36.5395C37.7195 35.971 37.9701 35.3687 38.1508 34.744C38.1839 34.605 38.2628 34.4811 38.3748 34.3923C38.4868 34.3035 38.6254 34.2549 38.7683 34.2544H40.7367V30.378H38.7732C38.6349 30.378 38.5005 30.3329 38.3901 30.2496C38.2798 30.1662 38.1997 30.0492 38.1619 29.9162C38.0715 29.5996 37.9631 29.2886 37.8372 28.9844C37.7169 28.6948 37.5813 28.4118 37.4309 28.1367C37.3495 28.0142 37.313 27.8673 37.3276 27.721C37.3423 27.5747 37.4071 27.4379 37.5111 27.334L38.9041 25.941L36.1639 23.2008L34.7709 24.5937C34.6734 24.691 34.5468 24.754 34.4104 24.773C34.2739 24.7921 34.135 24.7662 34.0145 24.6993C33.4457 24.3837 32.8432 24.1331 32.2184 23.9522C32.0794 23.9191 31.9556 23.8402 31.8669 23.7282C31.7782 23.6162 31.7297 23.4776 31.7293 23.3348V21.3651H31.7269ZM38.7115 23.9541V3.27256H51.3488V7.45456C51.3501 7.7748 51.4778 8.08159 51.7041 8.30821C51.9303 8.53483 52.2369 8.66297 52.5572 8.66476H56.7268V27.2926H39.3524L39.8124 26.832C40.048 26.5958 40.1804 26.2759 40.1804 25.9423C40.1804 25.6086 40.048 25.2886 39.8124 25.0525L38.7115 23.9541ZM32.3277 29.7772C32.9157 30.3643 33.2819 31.1371 33.364 31.9639C33.4461 32.7907 33.2389 33.6204 32.7778 34.3116C32.3167 35.0028 31.6301 35.5127 30.8352 35.7544C30.0402 35.9962 29.186 35.9547 28.4182 35.6372C27.6504 35.3197 27.0164 34.7457 26.6243 34.0131C26.2323 33.2806 26.1064 32.4347 26.2681 31.6197C26.4298 30.8047 26.8692 30.071 27.5112 29.5436C28.1533 29.0162 28.9584 28.7278 29.7893 28.7276C30.2607 28.7269 30.7275 28.8192 31.1631 28.9994C31.5987 29.1795 31.9944 29.4438 32.3277 29.7772ZM29.7893 27.4538C30.9139 27.454 32.0036 27.8442 32.8728 28.5579C33.742 29.2715 34.3369 30.2644 34.5561 31.3674C34.7753 32.4705 34.6053 33.6154 34.075 34.6071C33.5447 35.5989 32.687 36.3761 31.6479 36.8063C30.6089 37.2366 29.4528 37.2932 28.3766 36.9667C27.3005 36.6402 26.3708 35.9506 25.7461 35.0155C25.1213 34.0804 24.8401 32.9576 24.9504 31.8384C25.0606 30.7192 25.5555 29.6728 26.3507 28.8776C26.8018 28.4254 27.3378 28.0669 27.9279 27.8225C28.518 27.5782 29.1506 27.4528 29.7893 27.4538ZM17.5638 33.7604V34.2679C17.5638 34.5785 17.6796 34.8779 17.8886 35.1077C17.9024 35.125 17.9172 35.1415 17.933 35.1571C18.0494 35.2745 18.1879 35.3676 18.3406 35.4312C18.4932 35.4948 18.6568 35.5275 18.8222 35.5275H20.338C20.4076 35.7334 20.4841 35.9361 20.5677 36.1357C20.6513 36.3354 20.741 36.533 20.8369 36.7285L19.7656 37.7998C19.7471 37.8183 19.7286 37.8374 19.7119 37.8572C18.7746 38.2847 17.7868 38.5916 16.7722 38.7704C15.4726 39.0125 14.153 39.1316 12.831 39.126C10.6968 39.1675 8.57224 38.827 6.55775 38.1208C5.14564 37.5707 4.27318 36.8791 4.27318 36.1777C4.27318 35.4763 5.14687 34.7854 6.55775 34.2352C8.57224 33.529 10.6968 33.1886 12.831 33.23C13.7489 33.2287 14.6659 33.2845 15.5768 33.3973C16.2461 33.4794 16.9102 33.5998 17.5657 33.7579L17.5638 33.7604ZM7.27461 41.2316C7.35427 41.2564 7.42827 41.2966 7.49238 41.35C7.55649 41.4034 7.60944 41.469 7.64823 41.5428C7.68702 41.6167 7.71088 41.6975 7.71844 41.7806C7.726 41.8637 7.71712 41.9475 7.69231 42.0271C7.6675 42.1068 7.62724 42.1808 7.57383 42.2449C7.52042 42.309 7.45491 42.362 7.38103 42.4008C7.30715 42.4396 7.22636 42.4634 7.14326 42.471C7.06017 42.4785 6.97639 42.4697 6.89673 42.4448C6.71705 42.3887 6.55404 42.3343 6.40894 42.2825C6.24429 42.224 6.09054 42.1656 5.94771 42.1071C5.79148 42.0438 5.6668 41.921 5.60109 41.7658C5.53537 41.6106 5.53401 41.4356 5.5973 41.2794C5.6606 41.1232 5.78336 40.9985 5.93858 40.9328C6.0938 40.8671 6.26877 40.8657 6.425 40.929C6.56331 40.9852 6.69976 41.0377 6.83375 41.0852C6.98811 41.1402 7.13445 41.1896 7.27214 41.2322L7.27461 41.2316ZM7.27461 46.9572C7.35427 46.982 7.42827 47.0222 7.49238 47.0757C7.55649 47.1291 7.60944 47.1946 7.64823 47.2685C7.68702 47.3423 7.71088 47.4231 7.71844 47.5062C7.726 47.5893 7.71712 47.6731 7.69231 47.7528C7.6675 47.8324 7.62724 47.9064 7.57383 47.9705C7.52042 48.0346 7.45491 48.0876 7.38103 48.1264C7.30715 48.1652 7.22636 48.189 7.14326 48.1966C7.06017 48.2041 6.97639 48.1953 6.89673 48.1705C6.73002 48.118 6.56824 48.0643 6.41141 48.0081C6.24676 47.9488 6.09219 47.8901 5.94771 47.8321C5.87035 47.8008 5.79993 47.7545 5.74045 47.6959C5.68098 47.6374 5.63362 47.5677 5.60109 47.4908C5.56855 47.414 5.55147 47.3314 5.55082 47.248C5.55017 47.1645 5.56597 47.0818 5.5973 47.0044C5.62864 46.927 5.67491 46.8566 5.73347 46.7972C5.79202 46.7377 5.86172 46.6903 5.93858 46.6578C6.01544 46.6252 6.09795 46.6082 6.18141 46.6075C6.26487 46.6069 6.34764 46.6227 6.425 46.654C6.56331 46.7102 6.69976 46.7627 6.83375 46.8102C6.96774 46.8578 7.12333 46.9102 7.27461 46.9572ZM7.27461 52.6828C7.35427 52.7076 7.42827 52.7479 7.49238 52.8013C7.55649 52.8547 7.60944 52.9202 7.64823 52.9941C7.68702 53.0679 7.71088 53.1487 7.71844 53.2318C7.726 53.3149 7.71712 53.3987 7.69231 53.4784C7.6675 53.558 7.62724 53.632 7.57383 53.6961C7.52042 53.7603 7.45491 53.8132 7.38103 53.852C7.30715 53.8908 7.22636 53.9146 7.14326 53.9222C7.06017 53.9298 6.97639 53.9209 6.89673 53.8961C6.71726 53.8401 6.55446 53.786 6.40833 53.7337C6.2622 53.6814 6.10927 53.6225 5.94956 53.5571C5.79333 53.4938 5.66865 53.371 5.60294 53.2158C5.53722 53.0606 5.53586 52.8856 5.59916 52.7294C5.66245 52.5732 5.78521 52.4485 5.94043 52.3828C6.09565 52.3171 6.27062 52.3157 6.42685 52.379C6.55343 52.4302 6.6905 52.4827 6.83807 52.5352C6.98564 52.5877 7.13877 52.6396 7.27646 52.6822L7.27461 52.6828ZM21.3877 41.9021C21.3877 42.6035 20.5146 43.2945 19.1031 43.8446C17.0886 44.5507 14.9641 44.8912 12.8298 44.8498C10.6955 44.8912 8.57101 44.5508 6.55651 43.8446C5.1444 43.2945 4.27195 42.6035 4.27195 41.9021V38.3221C4.83324 38.7327 5.44846 39.0639 6.10022 39.3063C8.26027 40.0701 10.5397 40.4409 12.8304 40.4011C14.2327 40.4057 15.6322 40.2784 17.0106 40.0207C17.88 39.8596 18.7332 39.6209 19.56 39.3076C19.6053 39.3873 19.6591 39.4618 19.7206 39.5299C19.7344 39.547 19.7492 39.5633 19.765 39.5786L21.3889 41.2031V41.899L21.3877 41.9021ZM21.3877 47.6277V44.0465C20.8264 44.457 20.2112 44.7882 19.5594 45.0307C17.3994 45.7949 15.12 46.1657 12.8292 46.1255C10.5384 46.1656 8.25896 45.7948 6.09898 45.0307C5.44722 44.7882 4.83201 44.457 4.27071 44.0465V47.6277C4.27071 48.3291 5.1444 49.0201 6.55528 49.5702C8.56977 50.2764 10.6943 50.6168 12.8286 50.5754C14.9629 50.6168 17.0874 50.2764 19.1019 49.5702C20.514 49.0201 21.3864 48.3285 21.3864 47.6277H21.3877ZM21.3877 53.3533V49.7659C20.8264 50.1765 20.2112 50.5077 19.5594 50.7502C17.3994 51.5144 15.12 51.8851 12.8292 51.8449C10.5384 51.885 8.25896 51.5143 6.09898 50.7502C5.44765 50.5076 4.83286 50.1764 4.27195 49.7659V53.3503C4.27195 54.0511 5.14564 54.7426 6.55651 55.2927C8.57101 55.9989 10.6955 56.3394 12.8298 56.298C14.9641 56.3393 17.0886 55.9989 19.1031 55.2927C20.5152 54.7426 21.3877 54.0511 21.3877 53.3503V53.3533ZM22.6609 53.3533V53.3706C22.6504 54.6413 21.4673 55.7355 19.56 56.4789C17.4003 57.2419 15.1212 57.6116 12.831 57.5705C10.5403 57.6107 8.26081 57.2399 6.10084 56.4758C4.19353 55.7348 3.01358 54.6383 3 53.3675V36.1629C3.0105 34.8922 4.196 33.7987 6.10022 33.0577C8.26027 32.2939 10.5397 31.9232 12.8304 31.963C13.8005 31.9618 14.7697 32.021 15.7324 32.1402C16.374 32.2211 16.9883 32.3255 17.5669 32.4588V30.3638C17.5677 30.0306 17.7004 29.7112 17.936 29.4756C18.1715 29.2399 18.4908 29.107 18.824 29.1061H20.3399C20.4094 28.9002 20.4858 28.6977 20.5689 28.4985C20.6517 28.2997 20.7418 28.1015 20.8388 27.9057L19.7656 26.8326C19.7496 26.8166 19.7354 26.8005 19.7212 26.7838C19.5058 26.5448 19.3904 26.2322 19.3986 25.9105C19.4069 25.5889 19.5383 25.2827 19.7656 25.055L22.5262 22.2944C22.6427 22.1769 22.7813 22.0837 22.934 22.0201C23.0868 21.9565 23.2506 21.9238 23.416 21.9239C23.5805 21.9234 23.7435 21.9554 23.8957 22.018C24.0478 22.0806 24.1861 22.1726 24.3027 22.2888L25.3789 23.3638C25.574 23.2666 25.7714 23.1767 25.971 23.094C26.1706 23.0112 26.3734 22.9349 26.5792 22.8649V21.3503C26.5791 21.185 26.6116 21.0214 26.6747 20.8687C26.7379 20.716 26.8305 20.5772 26.9473 20.4603C27.0641 20.3434 27.2028 20.2506 27.3554 20.1873C27.5081 20.124 27.6717 20.0914 27.8369 20.0913H31.7411C31.9064 20.0916 32.07 20.1244 32.2225 20.188C32.3751 20.2516 32.5136 20.3446 32.6302 20.4618C32.6463 20.4778 32.6605 20.4939 32.6747 20.5112C32.8833 20.7411 32.9991 21.0404 32.9994 21.3509V22.8698C33.2053 22.939 33.4078 23.0153 33.607 23.0989C33.8058 23.1816 34.004 23.2718 34.1998 23.3687L35.2729 22.2956C35.509 22.0599 35.829 21.9276 36.1626 21.9276C36.4962 21.9276 36.8162 22.0599 37.0524 22.2956L37.4414 22.6846V3.19538C37.4427 2.87896 37.5689 2.57585 37.7925 2.35199C38.0161 2.12813 38.3191 2.00163 38.6355 2H51.9867C52.0785 1.99998 52.1693 2.01983 52.2527 2.0582C52.3362 2.09657 52.4103 2.15255 52.4701 2.22228L57.8148 7.58113C57.8736 7.63991 57.9202 7.7097 57.952 7.78651C57.9837 7.86333 58.0001 7.94565 58 8.02878V27.3698C57.9987 27.6868 57.8721 27.9903 57.6478 28.2143C57.4235 28.4382 57.1197 28.5644 56.8028 28.5652H39.0369C39.1089 28.7438 39.1762 28.9239 39.2388 29.1054H40.7546C40.9197 29.1058 41.0831 29.1387 41.2354 29.2023C41.3878 29.2659 41.5261 29.3588 41.6425 29.4759C41.7598 29.5924 41.8528 29.731 41.9164 29.8835C41.98 30.0361 42.0128 30.1997 42.013 30.365V34.2679C42.013 34.6018 41.8804 34.922 41.6445 35.1582C41.4085 35.3944 41.0885 35.5272 40.7546 35.5275H39.2388C39.1692 35.7334 39.0926 35.9361 39.0091 36.1357C38.9263 36.3346 38.8368 36.5328 38.7393 36.7285L39.813 37.8016C40.0483 38.0373 40.1805 38.3568 40.1805 38.6898C40.1805 39.0229 40.0483 39.3423 39.813 39.578L37.0524 42.3386C36.9358 42.4559 36.7971 42.549 36.6445 42.6126C36.4918 42.6762 36.328 42.709 36.1626 42.7091C35.9976 42.7098 35.834 42.6778 35.6813 42.6151C35.5286 42.5524 35.3898 42.4601 35.2729 42.3436L34.1998 41.2705C34.0038 41.3676 33.8064 41.4573 33.6076 41.5397C33.4088 41.622 33.2061 41.6985 32.9994 41.7694V43.2858C32.9991 43.4507 32.9662 43.6139 32.9026 43.7661C32.839 43.9182 32.746 44.0563 32.629 44.1725C32.5124 44.2896 32.3739 44.3827 32.2213 44.4462C32.0687 44.5098 31.9051 44.5427 31.7398 44.5429H27.8369C27.5034 44.5428 27.1836 44.4102 26.9478 44.1744C26.7119 43.9385 26.5794 43.6187 26.5792 43.2852V41.7638C26.3734 41.6942 26.1708 41.6179 25.9716 41.5347C25.7724 41.4516 25.5746 41.3616 25.3782 41.2649L24.3051 42.338C24.0911 42.5516 23.8075 42.6811 23.506 42.7029C23.2044 42.7246 22.9051 42.6372 22.6627 42.4566V53.3503L22.6609 53.3533ZM30.7735 13.5346C30.6694 13.4021 30.6221 13.2337 30.6422 13.0664C30.6622 12.899 30.7479 12.7465 30.8803 12.6424C31.0128 12.5382 31.1813 12.491 31.3486 12.511C31.5159 12.531 31.6684 12.6167 31.7726 12.7492L33.7317 15.2381C33.7834 15.3037 33.8216 15.3788 33.8442 15.4592C33.8668 15.5395 33.8733 15.6235 33.8634 15.7064C33.8535 15.7893 33.8273 15.8694 33.7864 15.9421C33.7454 16.0149 33.6906 16.0788 33.6249 16.1303L31.1366 18.0895C31.071 18.1411 30.9959 18.1792 30.9155 18.2018C30.8352 18.2243 30.7512 18.2308 30.6684 18.2209C30.501 18.2009 30.3485 18.1152 30.2444 17.9827C30.1402 17.8502 30.093 17.6818 30.113 17.5145C30.133 17.3471 30.2187 17.1946 30.3512 17.0905L31.7016 16.0272C31.6219 16.018 31.5416 16.0093 31.4614 16.0013C30.9057 15.9459 30.3477 15.9185 29.7893 15.9192C26.254 15.9192 22.8133 17.0612 19.9797 19.1752C17.1461 21.2892 15.0712 24.2619 14.0641 27.6507C14.0166 27.8123 13.9069 27.9483 13.7591 28.029C13.6113 28.1096 13.4375 28.1283 13.2759 28.0808C13.1144 28.0333 12.9783 27.9236 12.8977 27.7758C12.817 27.628 12.7984 27.4542 12.8459 27.2926C14.0153 23.3432 16.5284 19.9269 19.9505 17.6346C23.3725 15.3423 27.4882 14.3183 31.5855 14.7399L31.7337 14.7553L30.7735 13.5358V13.5346ZM29.296 51.1904C29.4001 51.3229 29.4474 51.4913 29.4273 51.6586C29.4073 51.826 29.3216 51.9785 29.1891 52.0826C29.0567 52.1868 28.8882 52.234 28.7209 52.214C28.5536 52.194 28.4011 52.1083 28.2969 51.9758L26.3507 49.506C26.2948 49.4394 26.2531 49.3621 26.2283 49.2788C26.2034 49.1955 26.1959 49.1079 26.2062 49.0216C26.2165 48.9352 26.2444 48.8519 26.2881 48.7768C26.3319 48.7017 26.3906 48.6363 26.4606 48.5848L28.9304 46.6379C28.996 46.5864 29.0711 46.5482 29.1515 46.5257C29.2318 46.5032 29.3158 46.4967 29.3987 46.5066C29.4815 46.5165 29.5616 46.5426 29.6344 46.5835C29.7071 46.6244 29.7711 46.6792 29.8227 46.7448C29.8742 46.8104 29.9124 46.8855 29.9349 46.9658C29.9575 47.0462 29.9639 47.1301 29.954 47.213C29.9441 47.2958 29.918 47.3759 29.8771 47.4487C29.8362 47.5214 29.7814 47.5854 29.7158 47.637L28.4192 48.6589C28.8699 48.6963 29.3262 48.715 29.7881 48.715C34.0852 48.7163 38.2111 47.0304 41.2778 44.0203C44.3445 41.0102 46.1069 36.9164 46.1857 32.62C46.1848 32.5353 46.2009 32.4513 46.233 32.3729C46.2651 32.2945 46.3126 32.2233 46.3726 32.1636C46.4327 32.1039 46.5041 32.0568 46.5826 32.0251C46.6612 31.9934 46.7453 31.9778 46.83 31.9792C46.9147 31.9805 46.9982 31.9988 47.0757 32.033C47.1532 32.0672 47.2231 32.1166 47.2812 32.1782C47.3393 32.2398 47.3845 32.3125 47.414 32.3919C47.4436 32.4712 47.457 32.5557 47.4533 32.6404C47.3684 37.2692 45.4701 41.6798 42.1667 44.9234C38.8634 48.1671 34.4189 49.9846 29.7893 49.9851C29.2884 49.9851 28.7915 49.9646 28.2988 49.9234L29.296 51.1904Z" fill="white"/>
</svg>
