<svg width="55" height="56" viewBox="0 0 55 56" fill="none" xmlns="http://www.w3.org/2000/svg">
<path fill-rule="evenodd" clip-rule="evenodd" d="M27.4979 12.7981C24.7734 12.7981 22.3161 13.2264 20.5451 13.9219C18.9353 14.5529 17.9381 15.3659 17.9381 16.2065C17.9381 17.0471 18.9353 17.86 20.5451 18.491C22.3138 19.1843 24.7711 19.6149 27.4979 19.6149C30.2223 19.6149 32.6796 19.1865 34.4506 18.491C36.0604 17.86 37.0576 17.0471 37.0576 16.2065C37.0576 15.3659 36.0604 14.5529 34.4506 13.9219C32.6796 13.2264 30.2223 12.7981 27.4979 12.7981ZM3.90586 24.4555C4.59218 19.1149 7.04942 14.3245 10.6741 10.6998C14.2966 7.07495 19.0824 4.61552 24.4227 3.92691C24.5632 4.49575 24.858 5.00699 25.2587 5.40772C25.8322 5.98117 26.6244 6.33581 27.4972 6.33581C28.3701 6.33581 29.1623 5.98116 29.7357 5.40772C30.1365 5.007 30.4313 4.49572 30.5717 3.92691C35.9124 4.61552 40.7005 7.07743 44.3204 10.6998C47.943 14.3247 50.4023 19.1129 51.0886 24.4555C50.5221 24.596 50.0154 24.8885 49.6147 25.287C49.0435 25.8581 48.6912 26.6457 48.6912 27.5162C48.6912 28.3868 49.0435 29.1744 49.6147 29.7455C50.0154 30.1462 50.5221 30.4387 51.0886 30.5769C50.4023 35.9198 47.9427 40.708 44.3157 44.335C40.6908 47.9598 35.9008 50.4216 30.5576 51.1079C30.4171 50.5413 30.1246 50.0347 29.7262 49.634C29.1551 49.0628 28.3674 48.7105 27.4969 48.7105C26.6264 48.7105 25.8388 49.0628 25.2677 49.634C24.8693 50.0347 24.5745 50.5414 24.4363 51.1079C19.0933 50.4216 14.3028 47.962 10.6782 44.335C7.05331 40.7078 4.59153 35.9201 3.90528 30.5769C4.47181 30.4364 4.97846 30.1439 5.37919 29.7455C5.95033 29.1743 6.30268 28.3867 6.30268 27.5162C6.30268 26.6457 5.95032 25.8581 5.37919 25.287C4.97847 24.8885 4.47179 24.5937 3.90528 24.4555H3.90586ZM2.78664 30.646C2.06118 30.5631 1.41177 30.2337 0.923494 29.7432C0.352353 29.1721 0 28.3845 0 27.514C0 26.6434 0.352359 25.8558 0.923494 25.2847C1.41403 24.7942 2.06348 24.4672 2.78664 24.382C3.49134 18.7581 6.07299 13.7167 9.88204 9.90757C13.6912 6.09616 18.7326 3.51198 24.3541 2.80273C24.437 2.07267 24.7686 1.42091 25.2615 0.928092C25.8349 0.354647 26.6271 0 27.5 0C28.3729 0 29.165 0.354658 29.7385 0.928092C30.2314 1.42093 30.563 2.07497 30.6459 2.80273C36.2698 3.51204 41.3088 6.09368 45.118 9.90757C48.9271 13.719 51.5065 18.7581 52.2134 24.382C52.9388 24.4649 53.5882 24.7942 54.0765 25.2847C54.6476 25.8559 55 26.6435 55 27.514C55 28.3845 54.6476 29.1721 54.0765 29.7432C53.586 30.2338 52.9365 30.5608 52.2134 30.646C51.5064 36.2745 48.9247 41.3159 45.1156 45.1269C41.3042 48.9383 36.2603 51.5201 30.6347 52.2246C30.5495 52.9501 30.2225 53.5995 29.732 54.0878C29.1562 54.6612 28.3686 55.0136 27.4981 55.0136C26.6275 55.0136 25.8399 54.6612 25.2688 54.0901C24.7783 53.5995 24.4512 52.9501 24.3661 52.2269C18.7375 51.5199 13.6961 48.9383 9.88517 45.1292C6.07375 41.3177 3.49429 36.2739 2.7874 30.6459L2.78664 30.646ZM4.58528 26.0815C4.21911 25.7153 3.71013 25.4873 3.15051 25.4873C2.5909 25.4873 2.08423 25.7153 1.71575 26.0815C1.34727 26.4476 1.12159 26.9566 1.12159 27.5162C1.12159 28.0758 1.34728 28.5848 1.71575 28.951C2.08192 29.3172 2.5909 29.5451 3.15051 29.5451C3.71013 29.5451 4.2168 29.3171 4.58528 28.951C4.95376 28.5848 5.17944 28.0758 5.17944 27.5162C5.17944 26.9566 4.95375 26.4476 4.58528 26.0815ZM53.2798 26.0815C52.9136 25.7153 52.4046 25.4873 51.845 25.4873C51.2854 25.4873 50.7787 25.7153 50.4102 26.0815C50.0418 26.4476 49.8161 26.9566 49.8161 27.5162C49.8161 28.0758 50.0418 28.5848 50.4102 28.951C50.7764 29.3172 51.2854 29.5451 51.845 29.5451C52.4046 29.5451 52.9113 29.3171 53.2798 28.951C53.6482 28.5848 53.8739 28.0758 53.8739 27.5162C53.8739 26.9566 53.6459 26.4476 53.2798 26.0815ZM28.9325 50.4287C28.5664 50.0625 28.0574 49.8345 27.4978 49.8345C26.9381 49.8345 26.4315 50.0602 26.063 50.4287C25.6945 50.7949 25.4688 51.3038 25.4688 51.8635C25.4688 52.4231 25.6945 52.932 26.063 53.2982C26.4315 53.6644 26.9381 53.8924 27.4978 53.8924C28.0574 53.8924 28.564 53.6644 28.9325 53.2982C29.301 52.932 29.5267 52.4231 29.5267 51.8635C29.5267 51.3038 29.301 50.7949 28.9325 50.4287ZM28.9417 1.72536C28.5733 1.35458 28.062 1.1266 27.4978 1.1266C26.9336 1.1266 26.4223 1.3546 26.0538 1.72536C25.683 2.09614 25.4551 2.60511 25.4551 3.16932C25.4551 3.73355 25.683 4.24481 26.0538 4.61328C26.4246 4.98407 26.9336 5.21204 27.4978 5.21204C28.062 5.21204 28.5733 4.98405 28.9417 4.61328C29.3125 4.2425 29.5405 3.73354 29.5405 3.16932C29.5405 2.60509 29.3125 2.09614 28.9417 1.72536ZM18.5206 33.8036L18.493 33.7851C18.486 33.7805 18.4814 33.7782 18.4745 33.7736C18.2788 33.6447 18.1015 33.5111 17.9379 33.3729V38.831C17.9379 39.6716 18.9351 40.4845 20.5449 41.1155C22.3136 41.8088 24.7709 42.2394 27.4977 42.2394C30.2221 42.2394 32.6794 41.811 34.4504 41.1155C36.0602 40.4845 37.0574 39.6716 37.0574 38.831V33.3706C36.5001 33.845 35.7539 34.2664 34.858 34.6188C32.965 35.3604 30.3603 35.821 27.4979 35.821C25.6486 35.821 23.9029 35.6276 22.3853 35.289C20.8077 34.9367 19.4743 34.4254 18.5208 33.8059L18.5206 33.8036ZM19.1102 32.8524L19.1125 32.8501L19.1378 32.8685V32.8708C19.9784 33.4167 21.1829 33.8726 22.6268 34.1951C24.057 34.5129 25.7175 34.6948 27.4976 34.6948C30.2221 34.6948 32.6794 34.2665 34.4504 33.571C36.0602 32.94 37.0574 32.127 37.0574 31.2864V25.8261C36.5 26.3005 35.7539 26.7219 34.858 27.0743C32.965 27.8158 30.3603 28.2765 27.4979 28.2765C25.7821 28.2765 24.1562 28.1106 22.7192 27.8159C21.2107 27.5073 19.9118 27.0582 18.9307 26.5101C18.9238 26.5078 18.9192 26.5032 18.9146 26.4986C18.5461 26.2913 18.2191 26.0679 17.9405 25.8307V31.2865C17.9405 31.5329 18.0303 31.7793 18.1984 32.0189C18.4011 32.309 18.712 32.5877 19.1104 32.8503L19.1102 32.8524ZM17.9402 23.7466V18.2862C18.4975 18.7606 19.2437 19.1821 20.1396 19.5345C22.0303 20.276 24.635 20.7366 27.4974 20.7366C30.3597 20.7366 32.9646 20.2783 34.8575 19.5345C35.7533 19.1821 36.4995 18.7629 37.0569 18.2862V23.7466C37.0569 24.5872 36.0597 25.4002 34.4499 26.0312C32.6812 26.7244 30.2239 27.155 27.4971 27.155C25.8459 27.155 24.296 26.9984 22.9418 26.722C21.5508 26.4388 20.3648 26.0288 19.4781 25.5337C18.953 25.2389 18.5454 24.9211 18.2782 24.5895C18.0571 24.3131 17.9402 24.0299 17.9402 23.7466ZM32.2672 37.5094V39.1076C32.2672 39.4185 32.5183 39.6696 32.8292 39.6696C33.1401 39.6696 33.3911 39.4185 33.3911 39.1076V37.5094C33.3911 37.2008 33.1401 36.9475 32.8292 36.9475C32.5183 36.9475 32.2672 37.1985 32.2672 37.5094ZM34.6439 36.4869V38.1013C34.6439 38.4099 34.8949 38.6632 35.2058 38.6632C35.5167 38.6632 35.7677 38.4122 35.7677 38.1013V36.4869C35.7677 36.1759 35.5167 35.9249 35.2058 35.9249C34.8972 35.9249 34.6439 36.1759 34.6439 36.4869ZM32.2672 30.0571V31.6553C32.2672 31.9662 32.5183 32.2172 32.8292 32.2172C33.1401 32.2172 33.3911 31.9662 33.3911 31.6553V30.0571C33.3911 29.7462 33.1401 29.4951 32.8292 29.4951C32.5183 29.4951 32.2672 29.7462 32.2672 30.0571ZM34.6439 29.0345V30.6489C34.6439 30.9598 34.8949 31.2108 35.2058 31.2108C35.5167 31.2108 35.7677 30.9598 35.7677 30.6489V29.0345C35.7677 28.7236 35.5167 28.4726 35.2058 28.4726C34.8972 28.4726 34.6439 28.7236 34.6439 29.0345ZM32.2672 22.6047V24.203C32.2672 24.5116 32.5183 24.7649 32.8292 24.7649C33.1401 24.7649 33.3911 24.5139 33.3911 24.203V22.6047C33.3911 22.2938 33.1401 22.0428 32.8292 22.0428C32.5183 22.0428 32.2672 22.2961 32.2672 22.6047ZM34.6439 21.5822V23.1966C34.6439 23.5075 34.8949 23.7585 35.2058 23.7585C35.5167 23.7585 35.7677 23.5075 35.7677 23.1966V21.5822C35.7677 21.2713 35.5167 21.0203 35.2058 21.0203C34.8972 21.0203 34.6439 21.2713 34.6439 21.5822ZM16.8166 38.8269V16.1906C16.8258 14.848 18.0925 13.6804 20.1375 12.8766C22.0306 12.1351 24.6353 11.6744 27.4977 11.6744C30.3601 11.6744 32.9649 12.1327 34.8578 12.8766C36.9029 13.6781 38.1695 14.8456 38.1787 16.1906V38.8429C38.1695 40.1855 36.9028 41.3531 34.8578 42.1569C32.9647 42.8984 30.3601 43.359 27.4977 43.359C24.6353 43.359 22.0304 42.9008 20.1375 42.1569C18.0925 41.3554 16.8258 40.1878 16.8166 38.8429V38.8269Z" fill="black"/>
</svg>
