<svg width="60" height="60" viewBox="0 0 60 60" fill="none" xmlns="http://www.w3.org/2000/svg">
<path fill-rule="evenodd" clip-rule="evenodd" d="M4.35147 37.8562H23.6761C24.3499 37.8562 24.9046 37.3015 24.9046 36.6276V31.9358C24.9046 31.262 24.35 30.7072 23.6761 30.7072L4.35147 30.7049C3.67763 30.7049 3.1229 31.2596 3.1229 31.9335V36.6254C3.1206 37.3038 3.67528 37.8562 4.35147 37.8562ZM23.7952 7.63303L21.7552 6.45492V6.45721L19.7175 5.28139V9.98925L23.7952 7.63303ZM22.3168 5.48769L25.1636 7.13111C25.5922 7.36031 25.5555 7.90811 25.1957 8.1167L19.4701 11.4218C19.0529 11.6831 18.5945 11.3737 18.5945 10.9566V8.19235H15.7867C10.5723 8.19235 6.34565 12.4189 6.34565 17.6334C6.34565 18.3715 5.22252 18.3715 5.22252 17.6334C5.22252 11.8001 9.95104 7.06928 15.7867 7.06928H18.5945V4.30966H18.5968C18.5968 3.88334 19.0598 3.6083 19.438 3.82603L22.3168 5.48769ZM32.9977 52.8415L38.7508 49.5203C39.129 49.3026 39.592 49.5799 39.592 50.004H39.5943V52.7682H42.3997C47.6142 52.7682 51.8408 48.5416 51.8408 43.3271C51.8408 42.589 52.9639 42.589 52.9639 43.3271C52.9639 49.1604 48.2354 53.8912 42.3998 53.8912H39.5943V56.6554C39.5943 57.0726 39.1359 57.382 38.7188 57.1207L32.9932 53.8156C32.615 53.5978 32.6241 53.0524 32.9977 52.8415ZM36.4335 52.1539L34.3936 53.332L38.4711 55.686V50.9781L36.4335 52.1539ZM6.36408 27.8395C5.62604 27.8395 5.62604 26.7163 6.36408 26.7163H9.49272C10.2308 26.7163 10.2308 27.8395 9.49272 27.8395H6.36408ZM6.36408 25.2976C5.62604 25.2976 5.62604 24.1745 6.36408 24.1745H9.49272C10.2308 24.1745 10.2308 25.2976 9.49272 25.2976H6.36408ZM4.35164 21.3094H23.6762C24.9712 21.3094 26.0279 22.366 26.0279 23.661V28.3529C26.0279 29.0634 25.7093 29.7075 25.1981 30.143C25.7093 30.5785 26.0279 31.2225 26.0279 31.9331V36.625C26.0279 37.3355 25.7093 37.9796 25.1981 38.4151C25.7093 38.8506 26.0279 39.4946 26.0279 40.2052V44.897C26.0279 45.6075 25.7093 46.2516 25.1981 46.6871C25.7093 47.1226 26.0279 47.7667 26.0279 48.4772V53.1691C26.0279 54.4641 24.9712 55.5207 23.6762 55.5207L4.35164 55.5276C3.05665 55.5276 2 54.471 2 53.176V48.4841C2 47.7736 2.3186 47.1295 2.82975 46.694C2.31862 46.2585 2 45.6145 2 44.9039V40.212C2 39.5015 2.3186 38.8574 2.82975 38.4219C2.31862 37.9864 2 37.3424 2 36.6318V31.94C2 31.2295 2.3186 30.5854 2.82975 30.1499C2.31862 29.7144 2 29.0703 2 28.3598V23.661C2 22.3661 3.05665 21.3094 4.35164 21.3094ZM23.6762 22.4302H4.35164C3.6778 22.4302 3.12307 22.9849 3.12307 23.6588V28.3507C3.12307 29.0245 3.67775 29.5792 4.35164 29.5792H23.6762C24.3501 29.5792 24.9048 29.0246 24.9048 28.3507L24.9071 23.6611C24.9071 22.985 24.3524 22.4302 23.6762 22.4302ZM53.0557 35.2564V38.2498C53.0557 38.5592 52.8035 38.8114 52.4941 38.8114H31.1434C30.834 38.8114 30.5819 38.5592 30.5819 38.2498V7.11656C30.5819 6.80713 30.834 6.555 31.1434 6.555H34.515V3.56155C34.515 3.25213 34.7672 3 35.0766 3H51.2514C51.4256 3 51.5815 3.07793 51.6846 3.204L56.8188 8.55367C57.0136 8.74161 57.0136 8.8906 56.9884 9.10606V34.6967C56.9884 35.0061 56.7363 35.2583 56.4269 35.2583L53.0557 35.2564ZM34.515 7.67833H31.7026V37.6903L51.9326 37.688V35.2561H35.0765C34.7671 35.2561 34.515 35.004 34.515 34.6946L34.515 7.67833ZM38.1571 30.3604H53.3625C54.1006 30.3604 54.1006 29.2373 53.3625 29.2373L38.1571 29.2396C37.419 29.2396 37.419 30.3604 38.1571 30.3604ZM38.1571 9.02144L48.5651 8.98247C48.8745 8.98247 49.1244 8.73264 49.1244 8.42321C49.1244 8.11379 48.8745 7.86395 48.5651 7.86395L38.1571 7.90292C37.4213 7.90521 37.4236 9.02144 38.1571 9.02144ZM38.1571 25.0724H52.8033C53.5414 25.0724 53.5414 23.9493 52.8033 23.9493H38.1571C37.419 23.9493 37.419 25.0724 38.1571 25.0724ZM38.1571 14.2724H52.8033C53.5414 14.2724 53.5414 13.1493 52.8033 13.1493H38.1571C37.419 13.1516 37.419 14.2724 38.1571 14.2724ZM38.1571 19.7734H52.8033C53.5414 19.7734 53.5414 18.6502 52.8033 18.6502H38.1571C37.419 18.6502 37.419 19.7734 38.1571 19.7734ZM35.6381 4.12311V34.1351H55.8657V9.53193H51.2678V9.52963C50.9584 9.52963 50.7086 9.2798 50.7086 8.97037L50.6948 4.12268L35.6381 4.12311ZM55.1299 8.40926L51.8156 4.95743L51.827 8.40926H55.1299ZM6.36426 36.1135C5.62622 36.1135 5.62622 34.9903 6.36426 34.9903H9.4929C10.2309 34.9903 10.2309 36.1135 9.4929 36.1135H6.36426ZM6.36426 33.5693C5.62622 33.5693 5.62622 32.4462 6.36426 32.4462H9.4929C10.2309 32.4462 10.2309 33.5693 9.4929 33.5693H6.36426ZM6.36426 52.6621H9.4929C10.2309 52.6621 10.2309 51.539 9.4929 51.539H6.36426C5.62622 51.539 5.62622 52.6621 6.36426 52.6621ZM6.36426 50.1179H9.4929C10.2309 50.1179 10.2309 48.9948 9.4929 48.9948H6.36426C5.62622 48.9948 5.62622 50.1179 6.36426 50.1179ZM23.6762 47.2529H4.35164C3.6778 47.2529 3.12307 47.8076 3.12307 48.4815V53.1733C3.12307 53.8471 3.67775 54.4019 4.35164 54.4019H23.6762C24.3501 54.4019 24.9048 53.8472 24.9048 53.1733V48.4815C24.9071 47.8076 24.3524 47.2529 23.6762 47.2529ZM4.35164 46.1298H23.6762C24.3501 46.1298 24.9048 45.5751 24.9048 44.9012V40.2093C24.9048 39.5355 24.3501 38.9808 23.6762 38.9808L4.35164 38.9785C3.6778 38.9785 3.12307 39.5331 3.12307 40.207V44.8989C3.12078 45.575 3.67546 46.1298 4.35164 46.1298ZM6.36408 44.3878H9.49272C10.2308 44.3878 10.2308 43.2646 9.49272 43.2646H6.36408C5.62604 43.2646 5.62604 44.3878 6.36408 44.3878ZM6.36408 41.8436H9.49272C10.2308 41.8436 10.2308 40.7205 9.49272 40.7205H6.36408C5.62604 40.7205 5.62604 41.8436 6.36408 41.8436Z" fill="white"/>
</svg>
