<svg xmlns="http://www.w3.org/2000/svg" xmlns:xlink="http://www.w3.org/1999/xlink" width="130" height="70" viewBox="0 0 130 70">
  <defs>
    <clipPath id="clip-path">
      <rect id="Rectangle_3636" data-name="Rectangle 3636" width="130" height="70" transform="translate(4586 1896)" fill="none" stroke="#707070" stroke-width="1"/>
    </clipPath>
  </defs>
  <g id="Mask_Group_8059" data-name="Mask Group 8059" transform="translate(-4586 -1896)" clip-path="url(#clip-path)">
    <g id="logo-qlik_d49uek" transform="translate(4603 1910.99)">
      <path id="Path_9570" data-name="Path 9570" d="M70.812,27.748a.6.6,0,0,0,0-.646.56.56,0,0,0-.215-.188.511.511,0,0,0-.229-.054H69.48v1.763h.39v-.592h.39l.31.592H71l-.363-.686a.632.632,0,0,0,.2-.175Zm-.955-.606h.363a.507.507,0,0,1,.161.054.252.252,0,0,1,.094.215.3.3,0,0,1-.269.323h-.363v-.592Z" transform="translate(24.017 9.285)" fill="#54565a"/>
      <path id="Path_9571" data-name="Path 9571" d="M83.855,36.068a1.687,1.687,0,0,0-.417-.606,2.113,2.113,0,0,0-.606-.417,1.734,1.734,0,0,0-.74-.148,1.963,1.963,0,0,0-.74.148,1.876,1.876,0,0,0-.606.417,1.838,1.838,0,0,0-.4.606,1.924,1.924,0,0,0,0,1.48,1.838,1.838,0,0,0,.4.606,2.113,2.113,0,0,0,.606.417,1.734,1.734,0,0,0,.74.148,1.963,1.963,0,0,0,.74-.148,1.876,1.876,0,0,0,.606-.417,2.113,2.113,0,0,0,.417-.606,1.924,1.924,0,0,0,0-1.48Zm-.5,1.48a1.629,1.629,0,0,1-.525.525,1.409,1.409,0,0,1-1.453,0,1.629,1.629,0,0,1-.525-.525,1.409,1.409,0,0,1,0-1.453,1.63,1.63,0,0,1,.525-.525,1.409,1.409,0,0,1,1.453,0,1.629,1.629,0,0,1,.525.525,1.409,1.409,0,0,1,0,1.453ZM34.9.65h3.983V38.759H34.9ZM45.733,12.142H49.7V38.759h-3.97Z" transform="translate(12.064 0.225)" fill="#54565a"/>
      <circle id="Ellipse_120" data-name="Ellipse 120" cx="2.718" cy="2.718" r="2.718" transform="translate(57.097 0.875)" fill="#54565a"/>
      <path id="Path_9572" data-name="Path 9572" d="M89.648,12.142H84.118L72.652,22.181,72.626.65H68.669V38.759h3.956V26.46L84.4,38.759h5.517L75.882,24.522l13.766-12.38ZM20.01,35.691A15.912,15.912,0,0,1,7.536,9.908L4.629,6.961A20.018,20.018,0,0,0,32.646,35.3l-2.907-2.947a15.8,15.8,0,0,1-9.729,3.324Z" transform="translate(0 0.225)" fill="#54565a"/>
      <path id="Path_9573" data-name="Path 9573" d="M34.212,32.753l.229-.229A20.013,20.013,0,0,0,6.249,4.441,21.3,21.3,0,0,0,3.517,7.105c-.027.027-.04.054-.067.081l2.907,2.947s.054-.067.081-.094A15.358,15.358,0,0,1,9.156,7.388,15.9,15.9,0,0,1,31.332,29.833a15.7,15.7,0,0,1-2.624,2.638l-.161.121,2.907,2.947L34.871,39h5.517l-6.177-6.244Z" transform="translate(1.193)" fill="#009445"/>
    </g>
  </g>
</svg>
