<?xml version="1.0" encoding="UTF-8"?><svg fill="#fff" id="Layer_1" xmlns="http://www.w3.org/2000/svg" viewBox="0 0 420 420"><path d="M283.41,414c-7.12-1.44-14.34-2.49-21.33-4.41-19.76-5.44-36.74-15.74-50.79-30.66-2.35-2.5-4.69-3.24-7.93-3.23-57.64.08-115.27.06-172.91.05-11.16,0-16.37-5.17-16.37-16.27-.02-90.15-.05-180.31.06-270.46,0-2.13,1.02-4.8,2.5-6.3,24.58-24.81,49.27-49.51,74.08-74.09,1.49-1.48,4.15-2.51,6.27-2.52,62.42-.13,124.84-.11,187.25-.1,9.47,0,15.06,5.62,15.06,15.16.02,53.91,0,107.81.01,161.72,0,1.57,0,3.15,0,4.28,8.95,1.84,17.67,3.01,26.02,5.45,44.27,12.94,76.34,52.53,80.18,98.47,5.05,60.37-37.47,113.53-97.53,121.92-2.09.29-4.17.65-6.25.98h-18.33ZM102.4,18.75c0,1.97,0,3.41,0,4.85,0,17.93,0,35.86,0,53.79,0,11.84-5.08,16.86-17.05,16.86-17.93,0-35.87,0-53.8,0-1.42,0-2.85,0-4.43,0v268.45h170.62c-21.95-36.82-24.91-74.7-5.63-112.77,19.35-38.22,51.77-58.38,94.46-62.4v-4.25c0-53.26-.04-106.51.08-159.77,0-3.81-.98-4.85-4.83-4.85-58.31.12-116.63.09-174.94.09-1.31,0-2.62,0-4.48,0ZM292.95,401.25c55.29-.03,100.41-45.15,100.38-100.4-.03-54.59-45.07-100.32-98.86-100.32-59.23,0-101.53,46.41-101.82,100.83-.3,54.9,45.25,99.91,100.31,99.88ZM89.65,29.47c-17.43,17.41-34.74,34.69-51.94,51.87-.14-.04.21.14.56.14,16.06.02,32.12-.03,48.18.07,2.82.02,3.25-1.26,3.23-3.64-.1-8.36-.04-16.72-.04-25.08,0-7.91,0-15.83,0-23.36Z"/><path d="M167.89,119.95c-29.2,0-58.41-.02-87.61.02-3.45,0-6.36-.6-7.6-4.32-1.29-3.88.95-7.73,4.98-8.33,1.43-.21,2.91-.12,4.37-.12,57.21,0,114.43,0,171.64,0,1.33,0,2.67-.07,3.98.06,3.57.38,5.83,2.92,5.78,6.4-.04,3.47-2.35,5.93-5.94,6.24-1.19.1-2.39.04-3.58.04-28.67,0-57.35,0-86.02,0Z"/><path d="M168.03,158.65c-28.53,0-57.07,0-85.6-.01-1.72,0-3.47,0-5.15-.29-3.43-.59-4.99-3.02-4.92-6.25.07-3.23,1.72-5.56,5.19-6.02,1.44-.19,2.91-.17,4.37-.17,57.33,0,114.66,0,171.99,0,6.66,0,9.49,1.87,9.53,6.28.04,4.45-2.86,6.46-9.41,6.47-28.67,0-57.33,0-86,0Z"/><path d="M131.73,197.25c-17.38,0-34.75.03-52.13-.02-5.82-.02-9.37-5.07-6.32-9.42,1.24-1.77,4.33-3.1,6.61-3.16,11.27-.32,22.54-.15,33.82-.15,23.48,0,46.95-.02,70.43.02,5.52,0,8.62,3.65,7.19,8.26-1.15,3.72-3.98,4.51-7.48,4.5-17.38-.05-34.75-.02-52.13-.03Z"/><path d="M119.34,274.54c-13.26,0-26.53.04-39.79-.02-5.59-.03-8.96-4.33-6.54-8.77.99-1.82,3.77-3.76,5.75-3.78,27.19-.25,54.38-.2,81.58-.13,4.05,0,6.59,2.8,6.46,6.53-.12,3.73-2.64,6.13-6.86,6.15-13.53.06-27.06.02-40.59.02Z"/><path d="M119.83,223.2c13.13,0,26.25.03,39.38-.02,3.7-.01,6.55,1.03,7.41,5.05.76,3.54-1.27,6.75-4.81,7.41-1.55.29-3.16.29-4.75.29-25.06.02-50.12.02-75.18,0-6.61,0-9.5-1.92-9.59-6.3-.09-4.5,2.84-6.45,9.75-6.45,12.6,0,25.19,0,37.79,0Z"/><path d="M292.8,205.26c2.45,2.06,4.84,3.22,5.95,5.12,15.51,26.56,30.84,53.23,46.21,79.87,2.32,4.01,1.5,7.5-2.48,9.78-15.3,8.77-30.57,17.58-46.04,26.05-1.92,1.05-5.43.96-7.38-.11-15.34-8.41-30.49-17.17-45.69-25.86-4.09-2.34-4.92-5.98-2.53-10.11,15.32-26.52,30.57-53.07,46-79.52,1.12-1.92,3.49-3.11,5.95-5.22ZM261.76,279.53c.22.2.45.39.67.59,7.39-3.17,14.82-6.25,22.11-9.63,1.01-.47,1.86-2.4,1.89-3.67.19-6.75.09-13.5.09-20.25,0-2.8,0-5.6,0-8.39-.28-.03-.55-.06-.83-.09-7.98,13.82-15.95,27.63-23.93,41.45ZM323.39,280.14l.6-.55c-7.96-13.77-15.93-27.54-23.89-41.3-.81,10.11-.86,19.9-.73,29.69.01.88.99,2.17,1.84,2.55,7.35,3.3,14.78,6.43,22.19,9.61ZM286.33,283.77c-8.73,3.74-17.07,7.32-26.08,11.18,9.06,5.14,17.39,9.87,26.08,14.8v-25.99ZM325.86,294.71c-9.22-3.83-17.66-7.35-26.28-10.93v25.92c8.81-5.03,17.2-9.81,26.28-14.99Z"/><path d="M346.41,321.04c-.28.64-.67,2.08-1.46,3.23-15.48,22.66-30.98,45.3-46.55,67.9-3.06,4.44-8.09,4.32-11.17-.16-15.38-22.4-30.71-44.85-46.08-67.26-2.02-2.95-2.59-5.89-.09-8.72,2.64-2.99,5.71-2.67,8.97-.79,13.32,7.67,26.72,15.21,39.99,22.97,2.28,1.34,3.91,1.21,6.09-.06,13.28-7.74,26.61-15.4,39.98-22.98,5.1-2.9,10.37-.22,10.33,5.87ZM285.63,367.03c.3-.06.6-.13.89-.19,0-2.34-.36-4.76.07-7.02,1.34-7-1.58-11.09-7.98-13.64-3.62-1.44-6.87-3.8-10.28-5.74-.15.24-.3.49-.44.73,5.92,8.62,11.83,17.24,17.75,25.86ZM317.76,341.4c-.19-.23-.38-.46-.57-.7-5.45,3.13-10.92,6.22-16.32,9.42-.69.41-1.48,1.34-1.5,2.05-.13,4.91-.07,9.82-.07,14.74.27.05.53.09.8.14,5.89-8.55,11.77-17.1,17.66-25.66Z"/></svg>