<svg width="55" height="55" viewBox="0 0 55 55" fill="none" xmlns="http://www.w3.org/2000/svg">
<circle cx="27.5" cy="27.5" r="27.5" fill="#F4F4F4"/>
<path d="M37.5779 34.6504L36.1915 31.8408L34.8051 34.6504L31.7045 35.1008L33.9488 37.2883L33.4188 40.3767L36.1915 38.9183L38.9658 40.3767L38.4358 37.2883L40.68 35.1008L37.5779 34.6504Z" fill="#F48102"/>
<path d="M12.0637 38.8722H22.0213V28.9146H12.0637V38.8722ZM12.8296 29.6805H21.255V38.1059H12.8296V29.6805Z" fill="#F48102"/>
<path d="M14.7445 31.9785H19.3404V32.7445H14.7445V31.9785Z" fill="#F48102"/>
<path d="M14.7445 35.0426H19.3404V35.8086H14.7445V35.0426Z" fill="#F48102"/>
<path d="M40.4043 28.4568V18.458L34.099 9H15.3053L9 18.458V41.9362H29.52C31.1362 43.8112 33.5276 45 36.1916 45C41.0495 45 45.0002 41.0493 45.0002 36.1914C45.0002 32.8595 43.1404 29.9537 40.4043 28.4568ZM33.6884 9.76591L39.3059 18.1913H29.6227L28.218 9.76591H33.6884ZM15.7159 9.76591H21.9142L19.8078 18.1913H10.0984L15.7159 9.76591ZM9.76591 41.1702V18.9572H19.7235V26.1834L22.4044 24.3956L24.7023 25.9275L27.0002 24.3956L29.681 26.1834V18.9572H39.6387V28.0858C38.5801 27.6339 37.4143 27.3827 36.1918 27.3827C31.334 27.3827 27.3833 31.3334 27.3833 36.1912C27.3833 38.0372 27.9546 39.7529 28.929 41.1699L9.76591 41.1702ZM36.1916 44.2341C31.7566 44.2341 28.149 40.6264 28.149 36.1914C28.149 31.7564 31.7566 28.1488 36.1916 28.1488C40.6266 28.1488 44.2343 31.7564 44.2343 36.1914C44.2343 40.6264 40.6266 44.2341 36.1916 44.2341Z" fill="#F48102"/>
</svg>
