<svg width="256" height="256" viewBox="0 0 256 256" fill="none" xmlns="http://www.w3.org/2000/svg">
<path fill-rule="evenodd" clip-rule="evenodd" d="M71.2521 88.8091C72.1722 89.7275 72.1722 91.2193 71.2521 92.1377C70.3319 93.0561 68.8373 93.0561 67.9171 92.1377L58.338 82.5769C57.4179 81.6585 57.4179 80.1667 58.338 79.2483L67.9171 69.6874C68.8373 68.7691 70.3319 68.7691 71.2521 69.6874C72.1722 70.6058 72.1722 72.0976 71.2521 73.016L63.3393 80.9137L71.2521 88.8091ZM92.1041 92.1377C91.184 93.0561 89.6893 93.0561 88.7692 92.1377C87.849 91.2193 87.849 89.7275 88.7692 88.8091L96.6819 80.9114L88.7692 73.0137C87.849 72.0954 87.849 70.6035 88.7692 69.6852C89.6893 68.7668 91.184 68.7668 92.1041 69.6852L101.683 79.246C102.603 80.1644 102.603 81.6562 101.683 82.5746L92.1041 92.1377ZM82.4151 65.541C82.8065 64.3028 84.1318 63.6151 85.3724 64.0058C86.613 64.3964 87.302 65.7192 86.9106 66.9574L77.6061 96.2819C77.2147 97.5201 75.8894 98.2078 74.6488 97.8171C73.4082 97.4264 72.7193 96.1037 73.1107 94.8655L82.4151 65.541ZM98.0278 63.0028C93.4179 58.4018 87.0479 55.5552 80.0118 55.5552C72.9756 55.5552 66.6056 58.4018 61.9957 63.0028C57.3858 67.6039 54.5339 73.9618 54.5339 80.9845C54.5339 88.0072 57.3858 94.3652 61.9957 98.9662C66.6056 103.567 72.9756 106.414 80.0118 106.414C87.0479 106.414 93.4179 103.567 98.0278 98.9662C102.638 94.3652 105.49 88.0072 105.49 80.9845C105.49 73.9618 102.638 67.6039 98.0278 63.0028ZM80.0118 50.8468C71.6733 50.8468 64.1244 54.221 58.6608 59.6743C53.1971 65.1275 49.8164 72.6642 49.8164 80.9845C49.8164 89.3049 53.1971 96.8416 58.6608 102.295C64.1244 107.748 71.6755 111.122 80.0118 111.122C88.348 111.122 95.8991 107.748 101.363 102.295C106.826 96.8416 110.207 89.3049 110.207 80.9845C110.207 72.6642 106.826 65.1275 101.363 59.6743C95.8991 54.221 88.348 50.8468 80.0118 50.8468ZM110.905 121.069L120.246 111.746L115.806 107.314C115.03 106.537 114.881 105.301 115.511 104.353C117.007 102.091 118.292 99.6881 119.333 97.1706C120.336 94.7444 121.121 92.2131 121.661 89.6019C121.789 88.423 122.789 87.5046 124.005 87.5046H130.306V74.3205H123.975V74.3137C122.881 74.3137 121.899 73.5483 121.672 72.4358C121.125 69.7674 120.32 67.1767 119.285 64.6934C118.253 62.2215 116.994 59.8662 115.536 57.657C114.833 56.734 114.902 55.4113 115.746 54.5683L120.246 50.0769L110.905 40.7536L106.389 45.261C105.616 46.0332 104.373 46.184 103.423 45.5557C101.166 44.0662 98.7694 42.7892 96.2585 41.752C93.8368 40.7513 91.3144 39.97 88.7119 39.4309C87.5331 39.3006 86.6153 38.3023 86.6153 37.0915V30.713H73.406V37.0915H73.3968C73.3968 38.1881 72.6254 39.1681 71.5084 39.3897C68.835 39.9312 66.2439 40.7285 63.7605 41.7543C61.2976 42.7709 58.9423 44.0205 56.7221 45.4758C55.7973 46.1749 54.4743 46.104 53.632 45.2633L49.116 40.7559L39.7749 50.0792L44.2749 54.5706C45.0509 55.3473 45.1997 56.5833 44.5702 57.5314C43.0756 59.7771 41.7869 62.1758 40.7363 64.6957C39.7246 67.1219 38.9326 69.6486 38.3879 72.253C38.2459 73.4181 37.2526 74.3228 36.0463 74.3228H29.7152V87.5069H36.0165V87.5161C37.1152 87.5161 38.0972 88.286 38.3192 89.4008C38.8594 92.0852 39.6582 94.685 40.6882 97.1729C41.7114 99.6447 42.9657 102.007 44.4306 104.232C45.131 105.155 45.06 106.476 44.2177 107.316L39.7772 111.748L49.1183 121.072L53.5451 116.653C54.3187 115.881 55.5616 115.73 56.5115 116.359C58.7706 117.857 61.1854 119.148 63.7239 120.199C66.1661 121.211 68.7045 122.001 71.3116 122.541C72.4904 122.671 73.4082 123.669 73.4082 124.88V131.11H86.6176V124.88H86.6267C86.6267 123.783 87.3981 122.803 88.5151 122.582C91.1931 122.04 93.7979 121.236 96.302 120.199C98.7923 119.166 101.164 117.905 103.386 116.443C104.311 115.742 105.636 115.81 106.481 116.653L110.908 121.072L110.905 121.069ZM125.25 113.411C126.17 112.493 126.17 111.001 125.25 110.083L120.471 105.313C121.691 103.293 122.766 101.169 123.684 98.9548C124.579 96.7891 125.319 94.5388 125.888 92.2131H132.668C133.971 92.2131 135.028 91.1599 135.028 89.8577V71.9651C135.028 70.6652 133.973 69.6098 132.668 69.6098H125.856C125.282 67.2887 124.536 65.043 123.638 62.8886C122.723 60.6932 121.645 58.58 120.418 56.565L125.252 51.74C126.172 50.8216 126.172 49.3298 125.252 48.4114L112.576 35.7596C111.656 34.8412 110.161 34.8412 109.241 35.7596L104.389 40.6028C102.374 39.3897 100.257 38.3206 98.0507 37.409C95.8968 36.5181 93.6537 35.7824 91.3373 35.2136V28.3554C91.3373 27.0555 90.2821 26 88.9774 26H71.0507C69.7483 26 68.6908 27.0532 68.6908 28.3554V35.2136C66.3744 35.7824 64.1313 36.5181 61.9751 37.409C59.7686 38.3206 57.6536 39.3897 55.6394 40.6006L50.7869 35.7573C49.8668 34.8389 48.3721 34.8389 47.452 35.7573L34.776 48.4091C33.8558 49.3275 33.8558 50.8193 34.776 51.7377L39.6101 56.5627C38.3856 58.5777 37.3052 60.6909 36.3896 62.8886C35.4901 65.043 34.7462 67.2887 34.1717 69.6075H27.3599C26.0575 69.6075 25 70.6607 25 71.9629V89.8554C25 91.1554 26.0552 92.2108 27.3599 92.2108H34.1396C34.7096 94.5365 35.4489 96.7868 36.3439 98.9525C37.2594 101.166 38.3352 103.289 39.5552 105.308L34.776 110.078C33.8558 110.997 33.8558 112.488 34.776 113.407L47.452 126.059C48.3721 126.977 49.8668 126.977 50.7869 126.059L55.5479 121.307C57.5781 122.536 59.7068 123.617 61.9179 124.535C64.0855 125.433 66.3469 126.178 68.6908 126.751V133.461C68.6908 134.761 69.746 135.816 71.0507 135.816H88.9774C90.2798 135.816 91.3373 134.763 91.3373 133.461V126.751C93.6812 126.178 95.9426 125.433 98.1102 124.535C100.321 123.619 102.45 122.538 104.48 121.307L109.241 126.059C110.161 126.977 111.656 126.977 112.576 126.059L125.252 113.407L125.25 113.411ZM181.575 193.846C182.775 193.229 183.928 192.535 185.027 191.767L180.827 186.727C179.998 185.731 180.133 184.253 181.131 183.426C182.129 182.599 183.61 182.734 184.439 183.73L188.651 188.783C188.772 188.667 188.891 188.55 189.01 188.431C189.841 187.602 190.624 186.723 191.351 185.802L182.576 175.268C181.937 174.624 181.701 173.641 182.056 172.743C183.107 170.096 183.425 167.215 182.979 164.425C182.548 161.725 181.406 159.1 179.527 156.845C177.652 154.595 175.276 152.998 172.692 152.082C171.385 151.618 170.023 151.33 168.65 151.221L174.452 158.186C175.064 158.815 175.297 159.758 174.974 160.633L171.516 169.986C171.243 170.767 170.563 171.382 169.687 171.53L159.803 173.226V173.219C159.004 173.353 158.155 173.072 157.601 172.405L151.68 165.3C151.536 166.671 151.57 168.058 151.79 169.424C152.22 172.127 153.362 174.749 155.242 177.004C157.116 179.254 159.492 180.851 162.076 181.767C164.752 182.716 167.65 182.933 170.442 182.384V182.391C171.257 182.234 172.131 182.512 172.699 183.193L181.575 193.846ZM189.01 146.508C194.384 151.872 197.708 159.283 197.708 167.468C197.708 172.632 196.385 177.488 194.059 181.715L186.915 173.139C187.884 170.098 188.129 166.854 187.623 163.685C187.062 160.178 185.581 156.772 183.139 153.843C180.694 150.91 177.609 148.833 174.258 147.645C170.79 146.416 167.039 146.135 163.422 146.844V146.85C163.049 146.924 162.685 147.088 162.371 147.348C161.374 148.175 161.238 149.654 162.067 150.65L170.083 160.27L167.551 167.119L160.341 168.355L152.458 158.892C152.202 158.522 151.838 158.223 151.387 158.045C150.176 157.567 148.807 158.161 148.329 159.37C146.974 162.783 146.569 166.518 147.148 170.153C147.706 173.66 149.19 177.066 151.63 179.995C154.074 182.928 157.16 185.005 160.511 186.193C163.534 187.264 166.773 187.614 169.95 187.218L177.03 195.717C174.185 196.622 171.156 197.108 168.011 197.108C159.81 197.108 152.385 193.791 147.011 188.427C141.636 183.063 138.313 175.652 138.313 167.466C138.313 159.281 141.636 151.87 147.011 146.505C152.385 141.141 159.81 137.824 168.011 137.824C176.213 137.824 183.638 141.141 189.012 146.505L189.01 146.508ZM168.009 133.118C177.513 133.118 186.117 136.963 192.345 143.179C198.573 149.395 202.425 157.983 202.425 167.468C202.425 176.954 198.573 185.542 192.345 191.758C186.117 197.974 177.513 201.819 168.009 201.819C158.506 201.819 149.901 197.974 143.673 191.758C137.445 185.542 133.593 176.954 133.593 167.468C133.593 157.983 137.445 149.395 143.673 143.179C149.901 136.963 158.506 133.118 168.009 133.118ZM203.586 214.135L198.236 208.796C197.392 207.953 196.067 207.882 195.142 208.586C192.558 210.288 189.802 211.754 186.906 212.956C184.004 214.16 180.98 215.092 177.872 215.72C176.755 215.944 175.981 216.924 175.984 218.019H175.974V225.551H160.048V218.019C160.048 216.806 159.13 215.81 157.952 215.679C154.912 215.051 151.959 214.133 149.119 212.956C146.173 211.736 143.373 210.24 140.753 208.501C139.803 207.873 138.564 208.024 137.789 208.798L132.437 214.135L121.176 202.895L126.543 197.538C127.385 196.697 127.456 195.377 126.756 194.454C125.055 191.867 123.593 189.121 122.402 186.245C121.208 183.36 120.283 180.342 119.656 177.228C119.431 176.113 118.449 175.341 117.353 175.343V175.334H109.738V159.438H117.385C118.591 159.438 119.585 158.534 119.727 157.368C120.361 154.337 121.281 151.394 122.457 148.573C123.677 145.649 125.172 142.868 126.905 140.262C127.534 139.314 127.383 138.078 126.607 137.303H126.609L121.173 131.875L132.435 120.635L137.887 126.077C138.729 126.918 140.052 126.989 140.977 126.289C143.557 124.599 146.296 123.146 149.162 121.96C152.042 120.77 155.047 119.847 158.151 119.219C159.268 118.995 160.041 118.015 160.039 116.921H160.048V109.219H175.974V116.921C175.974 118.134 176.892 119.13 178.071 119.26C181.102 119.886 184.041 120.795 186.856 121.96C189.77 123.164 192.551 124.645 195.167 126.372C196.117 127 197.355 126.849 198.131 126.075L203.586 120.635L214.847 131.875L209.413 137.301C208.569 138.144 208.498 139.467 209.203 140.39C210.901 142.958 212.366 145.694 213.565 148.571C214.767 151.449 215.701 154.456 216.335 157.551C216.562 158.664 217.543 159.429 218.638 159.429V159.436H226.285V175.332H218.67C217.454 175.332 216.454 176.25 216.326 177.429C215.699 180.47 214.788 183.419 213.62 186.241C212.412 189.163 210.922 191.952 209.184 194.575C208.555 195.523 208.706 196.759 209.482 197.533L214.847 202.893L203.586 214.135ZM219.851 204.558L205.252 219.129C204.332 220.047 202.837 220.047 201.917 219.129L196.236 213.459C193.844 214.925 191.329 216.212 188.71 217.297C186.144 218.359 183.464 219.234 180.69 219.899V227.906C180.69 229.206 179.634 230.262 178.33 230.262H157.686C156.384 230.262 155.326 229.208 155.326 227.906V219.899C152.552 219.234 149.872 218.361 147.306 217.297C144.687 216.212 142.172 214.925 139.778 213.459L134.097 219.129C133.176 220.047 131.682 220.047 130.762 219.129L116.163 204.558C115.243 203.64 115.243 202.148 116.163 201.23L121.865 195.539C120.407 193.156 119.127 190.648 118.044 188.027C116.985 185.464 116.115 182.796 115.456 180.04H107.369C106.066 180.04 105.009 178.987 105.009 177.685V157.081C105.009 155.781 106.064 154.725 107.369 154.725H115.492C116.158 151.977 117.033 149.318 118.097 146.768C119.182 144.168 120.466 141.669 121.926 139.293L116.161 133.538C115.24 132.62 115.24 131.128 116.161 130.21L130.759 115.641C131.679 114.723 133.174 114.723 134.094 115.641L139.881 121.417C142.254 119.97 144.756 118.698 147.365 117.62C149.917 116.566 152.575 115.701 155.322 115.04V106.864C155.322 105.564 156.377 104.509 157.681 104.509H178.325C179.628 104.509 180.685 105.562 180.685 106.864V115.04C183.429 115.698 186.087 116.564 188.639 117.62C191.251 118.698 193.752 119.97 196.128 121.419L201.915 115.643C202.835 114.725 204.33 114.725 205.25 115.643L219.848 130.212C220.769 131.13 220.769 132.622 219.848 133.541L214.083 139.295C215.545 141.671 216.827 144.168 217.912 146.768C218.976 149.32 219.851 151.979 220.517 154.73H228.64C229.943 154.73 231 155.783 231 157.085V177.69C231 178.989 229.945 180.045 228.64 180.045H220.553C219.894 182.8 219.027 185.468 217.967 188.029C216.884 190.648 215.605 193.158 214.147 195.541L219.848 201.232C220.769 202.15 220.769 203.642 219.848 204.56L219.851 204.558ZM80.0896 145.363C79.0962 144.525 78.9726 143.042 79.8126 142.053C80.6527 141.064 82.1382 140.938 83.1293 141.776L91.1313 148.541C92.1247 149.379 92.2483 150.862 91.4083 151.851L84.6308 159.838C83.7908 160.83 82.3053 160.953 81.3142 160.114C80.3231 159.276 80.1972 157.793 81.0372 156.804L84.0746 153.224C82.7035 153.3 81.3485 153.339 80.0118 153.339C69.627 153.339 59.7434 151.157 50.8006 147.227C41.5283 143.152 33.263 137.184 26.497 129.812C25.6226 128.857 25.6867 127.375 26.6434 126.502C27.6002 125.629 29.0857 125.693 29.9601 126.648C36.2729 133.527 44.0026 139.103 52.6982 142.923C61.0481 146.592 70.2885 148.63 80.0118 148.63C81.3187 148.63 82.5937 148.596 83.832 148.527L80.0896 145.363ZM212.474 94.4428L213.437 98.555C207.669 94.7558 201.397 91.658 194.741 89.3848C186.35 86.52 177.357 84.9642 168.007 84.9642C164.814 84.9642 161.644 85.1493 158.508 85.5079C155.335 85.8712 152.22 86.4126 149.171 87.1231C147.903 87.4178 147.116 88.6812 147.411 89.9468C147.706 91.2125 148.972 91.9984 150.24 91.7037C153.117 91.0343 156.056 90.5225 159.043 90.1799C161.966 89.8463 164.958 89.6727 168.009 89.6727C176.844 89.6727 185.329 91.1371 193.231 93.8351C199.795 96.0763 205.962 99.1673 211.604 102.978L206.41 104.189C205.142 104.483 204.355 105.747 204.65 107.012C204.945 108.278 206.211 109.064 207.479 108.769L217.69 106.389C218.958 106.094 219.745 104.831 219.45 103.565L217.065 93.3737C216.77 92.108 215.504 91.3221 214.236 91.6168C212.968 91.9115 212.181 93.1749 212.476 94.4405L212.474 94.4428Z" fill="black"/>
</svg>
