<?xml version="1.0" encoding="UTF-8"?><svg fill="#fff" id="Layer_1" xmlns="http://www.w3.org/2000/svg" viewBox="0 0 420 420"><path d="M210.21,80.92c30.09-46.12,83.94-60.75,129.16-44.54,45.17,16.19,73.86,59.39,71.67,108.9-2.24,50.62-43.19,97.13-96.57,102.15,11.88,51.43-1.13,94.49-46,123.85-38.69,25.31-80.03,24.9-118.33-.93-43.81-29.53-56.32-72.25-44.55-122.91-54.84-5.58-93.46-52.42-96.51-100.38-3.05-47.79,23.35-90.26,66.67-108.83,39.62-16.98,101.05-9.36,134.46,42.68ZM226.52,138.46c-.15,11.25,2.31,21.91,6.84,32.19,1.12,2.53,2.69,3.77,5.29,4.48,22.78,6.21,41.42,18.74,56.41,36.93,1.17,1.42,3.52,2.57,5.35,2.63,47.36,1.47,84.64-40.77,77.32-87.45-6.04-38.51-41.22-67.19-79.11-64.48-41.05,2.93-72.03,35.46-72.1,75.7ZM193.55,138.81c.09-47.79-43.11-83.45-90.44-74.66-39.33,7.3-65.44,43.73-60.91,84.96,4.14,37.61,39.5,67.42,77.97,65.58,1.6-.08,3.62-1.1,4.63-2.34,15.09-18.53,34.05-31.04,57.06-37.54,1.77-.5,3.72-2.24,4.53-3.91,4.9-10.1,7.25-20.83,7.15-32.08ZM113.45,280.2c.17,53.5,43.5,96.58,96.96,96.4,53.2-.18,96.4-43.61,96.2-96.72-.2-53.48-43.65-96.74-96.96-96.53-53.11.21-96.36,43.75-96.2,96.85ZM220.16,171.32c-19.84-53.87,12.5-105.89,60.69-118.16,47.25-12.03,96.21,17.38,107.36,64.69,5.68,24.11,2.22,47.01-11.16,67.92-16.59,25.94-40.85,39.27-71.42,41.46,3.05,8.17,3.19,8.27,9.8,7.4,49.05-6.44,84.44-48.13,83.53-98.39-.87-48.38-38.97-89.19-87.51-93.72-66.45-6.21-119.29,55.89-102.4,120.5,2.65,10.12.58,7.58,10.41,8.56.13.01.27-.1.69-.26ZM114.75,227.17c-46.46-2.48-78.15-36.58-84.47-74.6-6.24-37.52,14.23-77.03,49.66-93.58,22.63-10.57,45.84-11.44,69.14-2.56,23.18,8.83,39.45,25.27,50.02,48.19.81-2.12,1.11-3.62,1.88-4.81,2.68-4.16,1.56-7.68-.99-11.53-22.63-34.19-54.34-49.75-95.02-45.06-38.96,4.49-70.52,32.8-80.78,70.73-10.09,37.31,3.33,77.46,33.91,101.26,14.12,10.99,30.16,17.34,47.88,19.61,3.42.44,5.94-.02,6.96-3.79.33-1.21,1.06-2.32,1.8-3.86Z"/><path d="M308.83,185.07c-.58,8.85-1.73,11.47-5.85,11.41-8.7-.13-5.72-7.36-6.63-11.25-7.54-2.49-14.63-4.55-21.51-7.19-5.12-1.97-6.62-5.4-4.83-9.05,1.73-3.5,4.99-4.19,9.78-2.03,8.77,3.96,17.87,6.61,27.51,4.77,4.01-.77,8.16-2.43,11.48-4.78,6.19-4.38,5.97-11.81.15-16.71-5.24-4.41-11.62-5.04-18.05-5.49-7.38-.52-14.34-2.27-20.46-6.67-14.86-10.68-14.11-30.07,1.68-39.37,3.34-1.96,7.09-3.53,10.86-4.37,3.05-.68,3.83-1.98,3.51-4.7-.1-.86-.03-1.75.01-2.62.17-3.63,2.2-5.65,5.68-6.05,3.23-.37,6.69,2.28,6.25,5.8-.79,6.33,2.65,7.11,7.53,8.06,5.07.99,9.99,3.02,14.79,5.05,4.3,1.82,5.7,5.34,4.12,8.7-1.56,3.33-5.09,4.17-9.35,2.21-9.59-4.4-19.52-7.07-30.04-4.46-3.42.85-6.87,2.61-9.63,4.8-5.22,4.13-5.17,10.57-.41,15.24,4.17,4.09,9.42,5.38,15.04,6.16,6.16.85,12.48,1.6,18.29,3.64,7.88,2.77,13.53,8.49,15.98,16.76,2.74,9.25-1.5,19.78-10.81,25.45-4.51,2.75-9.73,4.35-15.09,6.67Z"/><path d="M161.63,138.73c-.84,1.79-1.4,3.44-2.31,4.87-11.87,18.68-23.77,37.34-35.72,55.96-3.72,5.8-8.44,5.72-12.21-.16-11.86-18.51-23.61-37.09-35.53-55.56-2.27-3.52-2.28-6.5,0-10.03,11.92-18.47,23.67-37.05,35.53-55.57,3.92-6.12,8.46-6.05,12.44.16,11.78,18.39,23.53,36.8,35.25,55.23.99,1.55,1.66,3.31,2.55,5.11ZM88.63,136.55c9.32,5.07,18.23,9.96,27.21,14.72.87.46,2.39.56,3.23.11,9.11-4.82,18.14-9.77,27.42-14.82-9.65-15.13-19.11-29.94-28.91-45.31-9.72,15.2-19.17,29.99-28.95,45.3ZM136.04,157.45c-.3-.26-.61-.52-.91-.78-4.21,2.27-8.5,4.4-12.61,6.84-3.36,2-6.42,2.04-9.81.06-4.38-2.57-8.94-4.85-13.41-7.26-.16.23-.33.46-.49.68,6.15,9.63,12.3,19.25,18.78,29.39,6.4-10.03,12.43-19.48,18.46-28.93Z"/><path d="M298.31,280.06c0,48.51-39.58,88.21-88.07,88.34-48.63.13-88.49-39.68-88.48-88.36.01-48.79,39.66-88.3,88.5-88.2,48.6.1,88.05,39.62,88.05,88.23ZM286.09,280.24c.07-42.07-33.93-76.17-75.97-76.22-41.9-.04-76.02,33.83-76.14,75.59-.13,42.05,33.82,76.37,75.74,76.58,41.82.21,76.31-34.09,76.38-75.95Z"/><path d="M188,229.92c1.02-5.45-1.74-12.34,6.38-13.35,4.21-.53,5.44,2.15,6.47,12.93h8.58c0-2.2-.15-4.48.03-6.74.32-3.96,3.04-6.62,6.45-6.22,3.74.44,5.63,2.73,5.65,6.52.01,2.32,0,4.64,0,6.88,25.13,5.43,33.5,33.18,13.97,50.21,5.19,4.5,9.08,9.85,10.32,16.75,2.54,14.2-5.53,27.4-19.87,31.62-3.83,1.13-4.86,2.85-4.43,6.34.13,1,.05,2.04-.05,3.06-.34,3.38-2.23,5.35-5.62,5.54-3.41.19-5.63-1.61-6.22-4.89-.45-2.55-.32-5.21-.46-8.12h-8.32c-1.46,4.71,2.37,13.13-6.73,12.81-8.16-.28-4.93-7.99-6.22-13.12-2.58,0-5.17.04-7.75-.01-4.02-.08-6.18-2.28-6.53-6.18-.19-2.17-.08-4.37-.08-6.55,0-25.65,0-51.3,0-76.95,0-9.18,1.21-10.42,10.24-10.49,1.3-.01,2.59,0,4.19,0ZM186.01,242.63v75.08c11.41,0,22.62.54,33.74-.17,8.53-.54,14.78-8.26,14.48-15.93-.32-8.01-6.95-14.45-15.76-15.3-1.01-.1-2.06-.1-3.02-.38-3.2-.93-4.92-3.06-4.61-6.47.29-3.19,2.2-4.93,5.34-5.38,1.87-.27,3.78-.39,5.6-.86,7.36-1.88,12.67-8.54,12.46-15.48-.21-7.21-5.88-14.43-13.52-14.92-11.41-.73-22.9-.19-34.71-.19Z"/></svg>