<svg width="55" height="55" viewBox="0 0 55 55" fill="none" xmlns="http://www.w3.org/2000/svg">
<circle cx="27.5" cy="27.5" r="27.5" fill="#F4F4F4"/>
<path fill-rule="evenodd" clip-rule="evenodd" d="M27.9998 11C33.8983 11 38.6804 15.7825 38.6804 21.6809C38.6804 27.4314 34.1295 32.1367 28.4118 32.3539V33.4095H41.878C42.484 33.4095 42.9784 33.9055 42.9784 34.5099V38.1004C45.7985 38.438 47.0225 41.9064 44.9933 43.9356C42.8356 46.0933 39.1332 44.556 39.1332 41.5084C39.1332 39.7616 40.4428 38.3052 42.1536 38.1004V34.5099C42.1536 34.3771 42.0236 34.2339 41.8776 34.2339H28.4114V35.4699C31.2323 35.8079 32.4551 39.2768 30.4263 41.3052C28.2682 43.4628 24.5662 41.9252 24.5662 38.878C24.5662 37.1315 25.8758 35.6747 27.5866 35.4699V34.2339H14.1213C13.9669 34.2339 13.8453 34.3595 13.8453 34.5099V38.1004C16.6665 38.4384 17.8889 41.9072 15.8601 43.9356C13.702 46.0933 10 44.5556 10 41.5084C10 39.7616 11.3096 38.3052 13.0204 38.1004V34.5099C13.0204 33.9019 13.518 33.4095 14.1209 33.4095H27.5874V32.3539C21.8698 32.1367 17.3189 27.4314 17.3189 21.6809C17.3189 15.7825 22.1014 11 27.9998 11ZM15.2773 39.664C13.6384 38.0256 10.8244 39.1912 10.8244 41.5084C10.8244 43.8256 13.6384 44.9912 15.2773 43.3528C16.2957 42.3344 16.2957 40.6824 15.2773 39.664ZM42.5664 38.9C40.3576 38.85 39.028 41.6584 40.722 43.3528C42.3604 44.9912 45.1749 43.8256 45.1749 41.5084C45.1749 40.102 43.9956 38.8684 42.5664 38.9ZM29.8439 37.0335C28.2054 35.3947 25.391 36.5607 25.391 38.878C25.391 41.1952 28.205 42.3608 29.8439 40.7224C30.8623 39.704 30.8623 38.052 29.8439 37.0335ZM18.1517 21.2685H22.3902C22.4142 20.0397 22.5462 18.8637 22.7678 17.7761C21.793 17.2269 20.9121 16.5281 20.1565 15.7105C18.9713 17.2657 18.2373 19.1833 18.1517 21.2685ZM23.2146 21.2685H32.7843C32.7623 20.1793 32.6527 19.1361 32.4691 18.1657C29.6419 19.4701 26.3566 19.4701 23.5294 18.1657C23.3462 19.1361 23.2366 20.1793 23.2146 21.2685ZM33.6087 21.2685H37.8472C37.7612 19.1833 37.0276 17.2653 35.8423 15.7101C35.0867 16.5277 34.2059 17.2269 33.2311 17.7757C33.4527 18.8637 33.5843 20.0397 33.6087 21.2685ZM37.8472 22.0929H33.6087C33.5847 23.3218 33.4527 24.4978 33.2311 25.5858C34.2059 26.135 35.0867 26.8338 35.8423 27.6514C37.0276 26.0966 37.7616 24.1782 37.8472 22.0929ZM32.7839 22.0929H23.2142C23.2362 23.1822 23.3458 24.2254 23.5294 25.1962C26.3566 23.8918 29.6415 23.8918 32.4691 25.1962C32.6523 24.2258 32.7619 23.1826 32.7843 22.0933L32.7839 22.0929ZM22.3898 22.0929H18.1513C18.2369 24.1782 18.9709 26.0966 20.1561 27.6514C20.9117 26.8338 21.7926 26.1346 22.7674 25.5858C22.5458 24.4978 22.4142 23.3218 22.3898 22.0929ZM20.6853 15.0733C21.3437 15.8009 22.1102 16.4301 22.9602 16.9361C23.4114 15.1817 24.2038 13.3472 25.4222 12.1648C23.5754 12.6636 21.937 13.688 20.6853 15.0733ZM23.7074 17.3385C26.4082 18.6477 29.5891 18.6457 32.2907 17.3385C31.7407 15.0737 30.2991 11.8244 27.999 11.8244C25.699 11.8244 24.2578 15.0737 23.7074 17.3385ZM33.0379 16.9361C33.8879 16.4301 34.6547 15.8009 35.3127 15.0733C34.0611 13.688 32.4227 12.6636 30.5759 12.1648C31.7943 13.3476 32.5863 15.1821 33.0379 16.9361ZM35.3127 28.2882C34.6543 27.5606 33.8879 26.9314 33.0379 26.4254C32.5863 28.1802 31.7947 30.0134 30.5759 31.1967C32.4243 30.6975 34.0595 29.6742 35.3127 28.2882ZM32.2907 26.023C29.5911 24.717 26.405 24.713 23.7074 26.023C24.2578 28.2878 25.6994 31.5367 27.999 31.5367C30.2987 31.5367 31.7407 28.2878 32.2907 26.023ZM22.9606 26.425C22.1106 26.931 21.3437 27.5602 20.6857 28.2878C21.939 29.6738 23.5746 30.6971 25.4226 31.1963C24.2038 30.013 23.4122 28.1798 22.9606 26.425Z" fill="#F48102"/>
</svg>
