<svg xmlns="http://www.w3.org/2000/svg" xmlns:xlink="http://www.w3.org/1999/xlink" width="114.672" height="17.791" viewBox="0 0 114.672 17.791">
  <defs>
    <clipPath id="clip-path">
      <rect id="Rectangle_82" data-name="Rectangle 82" width="114.672" height="17.791" fill="none"/>
    </clipPath>
  </defs>
  <g id="Dots_Logo" data-name="Dots Logo" transform="translate(0 0)">
    <g id="Group_234" data-name="Group 234" transform="translate(0 0)" clip-path="url(#clip-path)">
      <rect id="Rectangle_73" data-name="Rectangle 73" width="3.904" height="3.841" fill="#f48120"/>
      <rect id="Rectangle_74" data-name="Rectangle 74" width="3.904" height="3.841" transform="translate(5.448)" fill="#f48120"/>
      <rect id="Rectangle_75" data-name="Rectangle 75" width="3.904" height="3.841" transform="translate(10.896)" fill="#f48120"/>
      <rect id="Rectangle_76" data-name="Rectangle 76" width="3.904" height="3.841" transform="translate(0 5.44)" fill="#f48120"/>
      <rect id="Rectangle_77" data-name="Rectangle 77" width="3.904" height="3.841" transform="translate(10.896 5.44)" fill="#f48120"/>
      <rect id="Rectangle_78" data-name="Rectangle 78" width="3.904" height="3.841" transform="translate(0 10.881)" fill="#f48120"/>
      <rect id="Rectangle_79" data-name="Rectangle 79" width="3.904" height="3.841" transform="translate(5.448 10.881)" fill="#f48120"/>
      <rect id="Rectangle_80" data-name="Rectangle 80" width="3.904" height="3.841" transform="translate(10.896 10.881)" fill="#f48120"/>
      <g id="Group_8392" data-name="Group 8392" transform="translate(5.448 0.07)">
        <path id="Path_441" data-name="Path 441" d="M39.605,1.525A5.447,5.447,0,0,0,37.6.455a10.069,10.069,0,0,0-2.79-.333H30.753V14.386h3.439a13.72,13.72,0,0,0,3.2-.274,5.939,5.939,0,0,0,1.94-.913,6.572,6.572,0,0,0,2.094-2.534,7.934,7.934,0,0,0,.739-3.441,7.689,7.689,0,0,0-.671-3.182,7.078,7.078,0,0,0-1.888-2.518m.949,5.66a5.933,5.933,0,0,1-1.43,4.249,5.4,5.4,0,0,1-4.084,1.5h-2.8V1.6h2.475a9.024,9.024,0,0,1,2.451.254,4.062,4.062,0,0,1,1.511.847,5.22,5.22,0,0,1,1.392,1.948,6.536,6.536,0,0,1,.487,2.538M32.176,1.534h2.537a13.918,13.918,0,0,1,1.4.062,13.918,13.918,0,0,0-1.4-.062Zm4.154.087c.076.01.15.02.222.032-.072-.011-.146-.022-.222-.032m.27.039a4.8,4.8,0,0,1,.583.131c.1.029.189.063.282.1-.093-.036-.187-.069-.282-.1A4.8,4.8,0,0,0,36.6,1.66M32.176,12.993h2.865a6.2,6.2,0,0,0,3.1-.716,6.2,6.2,0,0,1-3.1.716Zm6.54-10.341a4.355,4.355,0,0,0-.353-.279,4.355,4.355,0,0,1,.353.279,5.167,5.167,0,0,1,1.136,1.408,5.167,5.167,0,0,0-1.136-1.408M38.64.944a5.247,5.247,0,0,1,.869.584A5.247,5.247,0,0,0,38.64.944M30.816.185h0v0Zm3.376,14.138h0q.269,0,.521,0-.252,0-.521,0m1.246-.027c.142-.007.278-.014.409-.024-.131.01-.267.017-.409.024m5.931-3.658a6.482,6.482,0,0,1-2.074,2.51,5.914,5.914,0,0,1-1.413.745c-.166.06-.335.113-.507.158s-.352.081-.56.115c.208-.033.394-.071.56-.115s.341-.1.507-.158a5.914,5.914,0,0,0,1.413-.745,6.482,6.482,0,0,0,2.074-2.51,7.3,7.3,0,0,0,.461-1.256,7.3,7.3,0,0,1-.461,1.256m.539-1.573c.006-.031.013-.061.02-.092-.006.031-.013.061-.02.092m.085-.444C42,8.6,42,8.575,42,8.552c0,.024-.007.046-.011.069m-.556-4.552A7.028,7.028,0,0,0,40,1.972a7.028,7.028,0,0,1,1.438,2.1c.056.123.107.247.156.372-.049-.125-.1-.25-.156-.372" transform="translate(-18.552 -0.122)" fill="#090650"/>
        <path id="Path_442" data-name="Path 442" d="M57.79,5.553a5.162,5.162,0,0,0-3.836,1.689,5.687,5.687,0,0,0-1.619,4.064,5.61,5.61,0,0,0,1.614,4.02A5.3,5.3,0,0,0,57.9,17a5.189,5.189,0,0,0,3.9-1.709,5.822,5.822,0,0,0,1.609-4.122,5.454,5.454,0,0,0-1.644-3.958A5.414,5.414,0,0,0,57.79,5.553m-2.752,8.783a4.311,4.311,0,0,1-1.151-3.049,4.34,4.34,0,0,1,1.146-3.055A3.623,3.623,0,0,1,57.771,7,3.906,3.906,0,0,1,60.7,8.2a4.263,4.263,0,0,1,1.155,3.068,4.36,4.36,0,0,1-1.141,3.07A3.708,3.708,0,0,1,57.9,15.564a3.769,3.769,0,0,1-2.858-1.228m-1.213-3.049a4.435,4.435,0,0,0,.771,2.6,4.435,4.435,0,0,1-.771-2.6,5.267,5.267,0,0,1,.068-.853,5.267,5.267,0,0,0-.068.853M57.79,5.616h0a5.386,5.386,0,0,0-.8.059,5.386,5.386,0,0,1,.8-.059m-2.358.572c.1-.055.208-.107.314-.154-.106.047-.211.1-.314.154M54,7.286c.127-.133.258-.257.39-.374-.133.117-.263.241-.39.374A5.646,5.646,0,0,0,52.7,9.38,5.646,5.646,0,0,1,54,7.286m.987-.832a5.676,5.676,0,0,0-.541.41,5.676,5.676,0,0,1,.541-.41m-.991,8.828a6.147,6.147,0,0,1-.543-.644,6.147,6.147,0,0,0,.543.644,5.308,5.308,0,0,0,2.02,1.339,5.308,5.308,0,0,1-2.02-1.339m3.9,1.656h0a5.4,5.4,0,0,0,1.35-.165,5.4,5.4,0,0,1-1.35.165m1.854-.324a4.8,4.8,0,0,0,.483-.211,4.8,4.8,0,0,1-.483.211m2-1.366a5.967,5.967,0,0,1-.621.574,5.221,5.221,0,0,1-.668.455,5.221,5.221,0,0,0,.668-.455,5.967,5.967,0,0,0,.621-.574,6.136,6.136,0,0,0,.541-.658,6.136,6.136,0,0,1-.541.658m.7-.889c.1-.155.191-.315.274-.477-.083.162-.174.322-.274.477m.9-3.19a5.955,5.955,0,0,1-.5,2.466,5.965,5.965,0,0,0,.5-2.466A5.531,5.531,0,0,0,63.035,9.3a5.531,5.531,0,0,1,.311,1.868" transform="translate(-27.748 -2.436)" fill="#090650"/>
        <path id="Path_443" data-name="Path 443" d="M75.8,3.579V.122H74.319V3.579H72.3v1.5h2.016v9.3H75.8v-9.3H77.82v-1.5H75.8Zm-.062.063h0v0Zm-1.361,0h0v0Zm0,1.379h0v0Zm1.361,9.3h0v0Z" transform="translate(-36.256 -0.122)" fill="#090650"/>
        <path id="Path_444" data-name="Path 444" d="M87.311,10.785c-.171-.073-.506-.185-1-.333a4.77,4.77,0,0,1-1.109-.459,1.642,1.642,0,0,1-.587-.565,1.558,1.558,0,0,1-.175-.77A1.487,1.487,0,0,1,84.87,7.58a1.441,1.441,0,0,1,1.066-.433,1.559,1.559,0,0,1,1.128.4,1.673,1.673,0,0,1,.459,1.134l0,.059h1.58l0-.065a3.138,3.138,0,0,0-.878-2.208,3.043,3.043,0,0,0-2.2-.794,3.1,3.1,0,0,0-2.228.891,2.923,2.923,0,0,0-.921,2.172,2.779,2.779,0,0,0,.554,1.807,5.536,5.536,0,0,0,2.333,1.311,3.857,3.857,0,0,1,1.494.857,1.718,1.718,0,0,1,.4,1.191,1.629,1.629,0,0,1-.511,1.227,1.8,1.8,0,0,1-1.288.488,1.741,1.741,0,0,1-1.361-.634,2.386,2.386,0,0,1-.554-1.614v-.1H82.418l0,.064a4.023,4.023,0,0,0,.971,2.7,3.181,3.181,0,0,0,2.448,1.006,3.46,3.46,0,0,0,2.464-.92,3.083,3.083,0,0,0,.975-2.328,3.3,3.3,0,0,0-.478-1.841,3.274,3.274,0,0,0-1.489-1.159m.215.169c-.077-.038-.157-.076-.24-.111-.034-.014-.075-.031-.123-.048.048.017.089.034.123.048.083.036.163.073.24.111m-.4,1.549L87.1,12.48l.028.022m-.618-.395q-.222-.113-.492-.222.269.109.492.222m-1.337-2.061a2.9,2.9,0,0,0,.339.179c.118.054.251.107.4.158-.145-.052-.278-.105-.4-.158a2.9,2.9,0,0,1-.339-.179c-.071-.044-.137-.089-.2-.135.061.046.127.092.2.135m-.608-.588a1.2,1.2,0,0,0,.107.158,1.2,1.2,0,0,1-.107-.158,1.245,1.245,0,0,1-.08-.172,1.245,1.245,0,0,0,.08.172m.624-2.2a1.509,1.509,0,0,0-.364.275,1.537,1.537,0,0,0-.443,1.121,2.249,2.249,0,0,0,.011.228,2.249,2.249,0,0,1-.011-.228,1.537,1.537,0,0,1,.443-1.121,1.5,1.5,0,0,1,.364-.275,1.451,1.451,0,0,1,.426-.148,1.737,1.737,0,0,1,.319-.028,1.737,1.737,0,0,0-.319.028,1.451,1.451,0,0,0-.426.148m1.917.241a1.36,1.36,0,0,0-.295-.215,1.36,1.36,0,0,1,.295.215,1.564,1.564,0,0,1,.429.818,1.564,1.564,0,0,0-.429-.818m.477,1.175h1.457a4.362,4.362,0,0,0-.071-.628,4.362,4.362,0,0,1,.071.628ZM86.023,5.735a3.494,3.494,0,0,1,1.353.246,2.583,2.583,0,0,1,.807.531,2.7,2.7,0,0,1,.711,1.21c.025.086.046.175.065.266-.019-.091-.04-.18-.065-.266a2.7,2.7,0,0,0-.711-1.21,2.583,2.583,0,0,0-.807-.531,3.494,3.494,0,0,0-1.353-.246,3.346,3.346,0,0,0-.765.086,3.346,3.346,0,0,1,.765-.086M84.7,6.011a2.9,2.9,0,0,0-.261.137,2.9,2.9,0,0,1,.261-.137M83.221,7.446a2.99,2.99,0,0,1,.617-.837,3.206,3.206,0,0,1,.475-.382,3.206,3.206,0,0,0-.475.382,3,3,0,0,0-.617.837,2.77,2.77,0,0,0-.112.266,2.77,2.77,0,0,1,.112-.266m4.5,6.455a1.8,1.8,0,0,0-.366-1.166A1.8,1.8,0,0,1,87.72,13.9a1.783,1.783,0,0,1-.168.781,1.783,1.783,0,0,0,.168-.781m-.188-2.944c.068.034.133.069.2.106-.064-.036-.129-.072-.2-.106M84.45,15.023a1.837,1.837,0,0,0,.873.58,1.837,1.837,0,0,1-.873-.58,2.222,2.222,0,0,1-.389-.64c-.017-.041-.032-.084-.046-.127.014.043.029.086.046.127a2.222,2.222,0,0,0,.389.64m-1.013.961a3.673,3.673,0,0,1-.907-2.053,3.673,3.673,0,0,0,.907,2.053,2.988,2.988,0,0,0,.624.52,2.988,2.988,0,0,1-.624-.52m1.054.739a3.085,3.085,0,0,0,.31.108,3.085,3.085,0,0,1-.31-.108m3.769-.657c-.04.038-.08.074-.121.11a3.194,3.194,0,0,1-.812.508,3.734,3.734,0,0,1-1.488.285,3.734,3.734,0,0,0,1.488-.285,3.194,3.194,0,0,0,.812-.508c.041-.036.081-.072.121-.11s.077-.075.114-.113c-.037.038-.075.076-.114.113m.116-.115a3.009,3.009,0,0,0,.839-2.168,3.219,3.219,0,0,0-.468-1.806,2.889,2.889,0,0,0-.964-.884,2.889,2.889,0,0,1,.964.884,3.219,3.219,0,0,1,.468,1.806,3.009,3.009,0,0,1-.839,2.168" transform="translate(-40.566 -2.487)" fill="#090650"/>
        <path id="Path_445" data-name="Path 445" d="M105.579,5.972h-.063V7.558a4.67,4.67,0,0,0-1.6-1.312,5,5,0,0,0-2.242-.507A5.424,5.424,0,0,0,97.658,7.37a5.571,5.571,0,0,0-1.605,4.055,5.571,5.571,0,0,0,1.571,4.01,5.266,5.266,0,0,0,3.932,1.626,5.407,5.407,0,0,0,2.322-.5,4.619,4.619,0,0,0,1.638-1.274v4.949h1.5V5.972h-1.432Zm-8.055,5.511a4.965,4.965,0,0,1,.169-1.32,4.965,4.965,0,0,0-.169,1.32,4.157,4.157,0,0,0,1.2,3.015,3.876,3.876,0,0,0,2.229,1.179A3.876,3.876,0,0,1,98.72,14.5a4.157,4.157,0,0,1-1.2-3.015m6.847,2.9a3.685,3.685,0,0,1-2.776,1.277,3.823,3.823,0,0,1-2.83-1.21,4.112,4.112,0,0,1-1.179-2.971,4.348,4.348,0,0,1,1.184-3.1,3.816,3.816,0,0,1,2.863-1.248,3.69,3.69,0,0,1,2.734,1.248,4.123,4.123,0,0,1,1.189,2.923,4.39,4.39,0,0,1-1.185,3.079M98.443,8.668c.088-.112.181-.221.282-.327.05-.053.1-.1.152-.153-.052.049-.1.1-.152.153-.1.106-.194.215-.282.327m.617-.646a4.142,4.142,0,0,1,.41-.311,4.142,4.142,0,0,0-.41.311m.812-.546a3.576,3.576,0,0,1,.364-.158,3.576,3.576,0,0,0-.364.158m1.722,8.251a3.582,3.582,0,0,0,1.516-.324,3.582,3.582,0,0,1-1.516.324,4.3,4.3,0,0,1-.589-.04,4.3,4.3,0,0,0,.589.04m1.625,1.024-.075.024.075-.024m.56-.214q-.121.055-.246.1.124-.048.246-.1M105.317,13q.075-.2.131-.4-.057.2-.131.4t-.169.382q.094-.187.169-.382m.262-5.257h0a4.9,4.9,0,0,0-.56-.644,4.9,4.9,0,0,1,.56.644M104.5,6.674a4.494,4.494,0,0,1,.494.405,4.494,4.494,0,0,0-.494-.405m-.37-.24c-.08-.046-.163-.09-.247-.132l-.067-.032.067.032c.084.042.166.086.247.132m-.539-.264c-.062-.026-.125-.051-.188-.073.063.023.126.048.188.073m-7.477,5.255A5.593,5.593,0,0,1,97.054,8.2a5.593,5.593,0,0,0-.939,3.223,5.808,5.808,0,0,0,.491,2.416,5.808,5.808,0,0,1-.491-2.416m2.6,4.814a5.183,5.183,0,0,1-.437-.3,5.183,5.183,0,0,0,.437.3,4.984,4.984,0,0,0,.461.251,4.984,4.984,0,0,1-.461-.251m.7.358a5.122,5.122,0,0,0,.5.176,5.122,5.122,0,0,1-.5-.176m1.021.3a6.034,6.034,0,0,0,1.119.1,6.034,6.034,0,0,1-1.119-.1m3.995-.72a4.469,4.469,0,0,0,1.146-1.073,4.469,4.469,0,0,1-1.146,1.073m2.516,4h0v0Z" transform="translate(-46.375 -2.515)" fill="#090650"/>
        <path id="Path_446" data-name="Path 446" d="M126.215,6.145h-.063v5.316a12.387,12.387,0,0,1-.105,1.964,3.053,3.053,0,0,1-.34.965,2.833,2.833,0,0,1-1.094,1.059,3.3,3.3,0,0,1-1.582.366,2.7,2.7,0,0,1-2.266-.884,5.129,5.129,0,0,1-.691-3.054V6.145H118.61v5.636a6.711,6.711,0,0,0,1.026,4.182,4.1,4.1,0,0,0,3.357,1.271,4.591,4.591,0,0,0,1.868-.345,3.78,3.78,0,0,0,1.292-.984v1.047h1.485V6.145h-1.422Zm-.015,6.249v0m-.091,1.043c.013-.071.025-.152.036-.242.007-.061.014-.126.02-.195-.006.069-.013.134-.02.195-.011.091-.023.172-.036.242a3.481,3.481,0,0,1-.162.591,3.481,3.481,0,0,0,.162-.591m-1.75,2.2q-.084.034-.172.064.088-.029.172-.064m-3.642-.666a2.045,2.045,0,0,0,.384.378,2.045,2.045,0,0,1-.384-.378,5.164,5.164,0,0,1-.7-3.093v0a5.164,5.164,0,0,0,.7,3.093m.6.522c-.053-.031-.105-.064-.155-.1.05.034.1.068.155.1m1.674,1.677h0a5.518,5.518,0,0,0,1-.085,5.518,5.518,0,0,1-1,.085m1.226-.133a3.58,3.58,0,0,0,.616-.207l.013-.006-.013.006a3.58,3.58,0,0,1-.616.207m.871-.337a3.284,3.284,0,0,0,.3-.184,3.284,3.284,0,0,1-.3.184m.807-.615a4.627,4.627,0,0,0,.318-.352,4.627,4.627,0,0,1-.318.352" transform="translate(-55.987 -2.688)" fill="#090650"/>
        <path id="Path_447" data-name="Path 447" d="M146.511,5.972h-.063V7.556a4.571,4.571,0,0,0-1.608-1.311,5.137,5.137,0,0,0-2.275-.506,5.426,5.426,0,0,0-4.014,1.63,5.575,5.575,0,0,0-1.6,4.055,5.567,5.567,0,0,0,1.571,4.01,5.261,5.261,0,0,0,3.932,1.626,5.4,5.4,0,0,0,2.367-.53,4.454,4.454,0,0,0,1.632-1.311v1.559H147.9V5.972h-1.393Zm0,.063v0Zm-.3,6.966a4.684,4.684,0,0,0,.3-1.693,4.189,4.189,0,0,0-.3-1.591A4.132,4.132,0,0,0,145.833,9a4.132,4.132,0,0,1,.376.715,4.189,4.189,0,0,1,.3,1.591,4.684,4.684,0,0,1-.3,1.693m-7.158-3.92a4.523,4.523,0,0,0-.635,2.4,4.5,4.5,0,0,0,.229,1.456,3.961,3.961,0,0,0,.15.377,3.961,3.961,0,0,1-.15-.377,4.5,4.5,0,0,1-.229-1.456,4.523,4.523,0,0,1,.635-2.4m6.253-.739a4.887,4.887,0,0,1,.409.49,4.824,4.824,0,0,0-.409-.49,4.511,4.511,0,0,0-.855-.709,4.511,4.511,0,0,1,.855.709m-.041,6.046a3.687,3.687,0,0,1-2.777,1.276,3.824,3.824,0,0,1-2.829-1.209,4.113,4.113,0,0,1-1.179-2.971,4.349,4.349,0,0,1,1.184-3.1,3.817,3.817,0,0,1,2.863-1.248,3.691,3.691,0,0,1,2.733,1.248,4.126,4.126,0,0,1,1.189,2.924,4.39,4.39,0,0,1-1.184,3.079m-1.432-7.071a3.6,3.6,0,0,1,.441.211,3.6,3.6,0,0,0-.441-.211m-3.557-1.065a5.127,5.127,0,0,1,.684-.241,5.127,5.127,0,0,0-.684.241m.2,8.931a3.738,3.738,0,0,0,1.4.5,4.191,4.191,0,0,0,.612.044,3.639,3.639,0,0,0,1.156-.183c.1-.032.191-.069.284-.11-.094.04-.188.077-.284.11a3.639,3.639,0,0,1-1.156.183,4.191,4.191,0,0,1-.612-.044,3.738,3.738,0,0,1-1.4-.5m-.71-.54c.062.059.125.114.189.168-.064-.054-.127-.109-.189-.168m.437.36c.033.024.067.047.1.069-.033-.022-.067-.045-.1-.069m5.749.68a4.358,4.358,0,0,1-.569.452,4.358,4.358,0,0,0,.569-.452m-.885-9.249c-.082-.046-.165-.091-.25-.132a4.744,4.744,0,0,0-.568-.234,4.744,4.744,0,0,1,.568.234c.085.041.169.086.25.132m-1.217-.482.07.018-.07-.018m-4.264.665c-.124.078-.246.16-.364.25.118-.09.24-.172.364-.25M137.948,8.2a5.267,5.267,0,0,0-.437.773,5.267,5.267,0,0,1,.437-.773M137.5,13.84a5.161,5.161,0,0,0,.243.472,5.161,5.161,0,0,1-.243-.472m7.289,2.633A5.309,5.309,0,0,1,142.45,17a5.309,5.309,0,0,0,2.339-.525,4.924,4.924,0,0,0,.451-.249,4.924,4.924,0,0,1-.451.249m1.182-.811c.067-.064.131-.131.194-.2-.063.068-.127.135-.194.2m.541,1.054v0Zm1.331,0h0v0Z" transform="translate(-63.8 -2.515)" fill="#090650"/>
        <path id="Path_448" data-name="Path 448" d="M163.424,5.936V5.872h-.064a3.038,3.038,0,0,0-1.412.358,3.335,3.335,0,0,0-1,.9V6.029h-1.408V16.835h1.5v-6.51a3.247,3.247,0,0,1,.54-2.091,2.575,2.575,0,0,1,1.8-.75l.057-.005V7.422Zm-.063,0,0,.5Zm-1.384.35q.074-.041.152-.077-.077.036-.152.077a3.31,3.31,0,0,0-1.015.931,3.31,3.31,0,0,1,1.015-.931m-1.094,1.039h0v0ZM159.6,6.091h0v0Zm2.912,1.494q-.127.04-.241.088a2.328,2.328,0,0,0-.218.105,1.818,1.818,0,0,0-.519.416,3.29,3.29,0,0,0-.555,2.132v0a3.29,3.29,0,0,1,.555-2.132,1.818,1.818,0,0,1,.519-.416,2.328,2.328,0,0,1,.218-.105q.114-.048.241-.088a3.553,3.553,0,0,1,.4-.1,3.553,3.553,0,0,0-.4.1" transform="translate(-73.425 -2.572)" fill="#090650"/>
        <path id="Path_449" data-name="Path 449" d="M172.806,5.637a5.466,5.466,0,0,0-4.052,1.612,5.59,5.59,0,0,0-1.586,4.074,5.63,5.63,0,0,0,1.619,4.035,5.312,5.312,0,0,0,3.961,1.679,5.234,5.234,0,0,0,3.109-.96,6.209,6.209,0,0,0,2.08-2.749l.036-.087H176.3l-.017.036a4.055,4.055,0,0,1-1.454,1.71,3.8,3.8,0,0,1-2.117.614,3.881,3.881,0,0,1-2.774-1.058,4.087,4.087,0,0,1-1.23-2.711h9.574v-.163a6.244,6.244,0,0,0-1.526-4.354,5.119,5.119,0,0,0-3.948-1.678m-4.12,6.558c-.021-.138-.037-.28-.048-.425.011.145.026.287.048.425m6.836,4.028-.114.068.114-.068m1.113-5.711H168.75a4.15,4.15,0,0,1,1.28-2.506,3.717,3.717,0,0,1,2.573-.952,3.905,3.905,0,0,1,2.65.885,4.688,4.688,0,0,1,1.381,2.572m-7.957.063h0c.01-.069.021-.137.033-.2-.012.067-.024.134-.033.2m8.035,0a5.214,5.214,0,0,0-1.034-2.289A5.214,5.214,0,0,1,176.713,10.575ZM174.98,7.65c.032.022.063.044.094.067-.031-.023-.063-.045-.094-.067M172.6,6.991a4.316,4.316,0,0,0-.918.095,4.728,4.728,0,0,1,2.9.331,4.358,4.358,0,0,0-1.985-.426m-2.2.639a3.8,3.8,0,0,0-.418.329c-.045.04-.088.081-.131.123.042-.042.086-.083.131-.123a3.8,3.8,0,0,1,.418-.329c.076-.052.154-.1.234-.145-.079.045-.157.093-.234.145m.373-.22c.077-.04.156-.078.236-.112-.08.034-.159.072-.236.112M168.85,9.794c.024-.079.05-.155.077-.23-.028.075-.053.152-.077.23m.612-1.247c.03-.042.061-.083.094-.123-.032.041-.064.081-.094.123m3.286,8.427h0a5.332,5.332,0,0,0,2.2-.449c.1-.045.2-.094.3-.146-.1.052-.2.1-.3.146a5.332,5.332,0,0,1-2.2.449m3.843-1.622a5.872,5.872,0,0,0,.533-.655,5.872,5.872,0,0,1-.533.655m.992-1.413c-.105.2-.218.395-.337.578.119-.183.232-.375.337-.578s.2-.414.3-.635q-.138.332-.3.635m-1.247-.635h0q-.079.169-.169.326.089-.158.169-.326m-6.444,1.284a3.8,3.8,0,0,0,1.237.794,3.8,3.8,0,0,1-1.237-.794,3.865,3.865,0,0,1-.8-1.069c-.049-.1-.094-.2-.135-.3.041.1.086.2.135.3a3.865,3.865,0,0,0,.8,1.069m1.863.98-.092-.021.092.021m6.462-3.8h0v-.1a6.155,6.155,0,0,0-1.509-4.311,5.037,5.037,0,0,0-3.9-1.657,5.5,5.5,0,0,0-3.389,1.051A5.5,5.5,0,0,1,172.806,5.7a5.037,5.037,0,0,1,3.9,1.657,6.155,6.155,0,0,1,1.509,4.311Z" transform="translate(-76.677 -2.472)" fill="#090650"/>
        <path id="Path_450" data-name="Path 450" d="M194.237,11.944a3.271,3.271,0,0,0-1.489-1.159c-.17-.073-.5-.185-.995-.333a4.752,4.752,0,0,1-1.109-.459,1.644,1.644,0,0,1-.587-.565,1.561,1.561,0,0,1-.175-.77,1.482,1.482,0,0,1,.426-1.077,1.439,1.439,0,0,1,1.065-.433,1.557,1.557,0,0,1,1.129.4,1.681,1.681,0,0,1,.459,1.134l0,.059h1.58l0-.065a3.139,3.139,0,0,0-.878-2.208,3.041,3.041,0,0,0-2.2-.794,3.1,3.1,0,0,0-2.228.891,2.922,2.922,0,0,0-.922,2.172,2.777,2.777,0,0,0,.555,1.807,5.528,5.528,0,0,0,2.333,1.311,3.858,3.858,0,0,1,1.493.857,1.72,1.72,0,0,1,.4,1.191,1.629,1.629,0,0,1-.511,1.227,1.8,1.8,0,0,1-1.288.488,1.741,1.741,0,0,1-1.361-.634,2.384,2.384,0,0,1-.553-1.614v-.1h-1.525l0,.064a4.024,4.024,0,0,0,.971,2.7,3.183,3.183,0,0,0,2.448,1.006,3.46,3.46,0,0,0,2.464-.92,3.081,3.081,0,0,0,.975-2.328,3.293,3.293,0,0,0-.478-1.841m-1.514-1.1c.083.036.163.073.24.111-.077-.038-.157-.076-.24-.111-.041-.018-.094-.038-.156-.061.062.023.114.043.156.061m.952.57a3.23,3.23,0,0,0-.337-.247,3.23,3.23,0,0,1,.337.247m-3.064-1.366a4.788,4.788,0,0,0,1.124.466q.415.125.676.214-.261-.089-.676-.214a4.788,4.788,0,0,1-1.124-.466,2.18,2.18,0,0,1-.356-.271,2.18,2.18,0,0,0,.356.271M190,9.459a1.353,1.353,0,0,0,.243.309A1.353,1.353,0,0,1,190,9.459c-.015-.027-.03-.055-.043-.084.013.029.028.057.043.084m.26-1.923a1.537,1.537,0,0,0-.443,1.121,2.089,2.089,0,0,0,.011.228,2.089,2.089,0,0,1-.011-.228,1.537,1.537,0,0,1,.443-1.121,1.459,1.459,0,0,1,.791-.424,1.459,1.459,0,0,0-.791.424m.947-.445c.053,0,.107-.007.162-.007-.055,0-.11,0-.162.007m1.04.2a1.315,1.315,0,0,1,.2.131,1.315,1.315,0,0,0-.2-.131m.724,1.033c.013.061.024.126.032.192-.009-.066-.019-.13-.032-.192m.048.358h0ZM191.46,5.735a2.972,2.972,0,0,1,2.161.777,2.529,2.529,0,0,1,.188.2c.042.05.081.1.119.156-.038-.053-.077-.106-.119-.156a2.529,2.529,0,0,0-.188-.2,2.972,2.972,0,0,0-2.161-.777,3.341,3.341,0,0,0-.764.086,3.341,3.341,0,0,1,.764-.086m-1.513.374c.063-.034.126-.067.19-.1-.064.03-.127.063-.19.1m-1,.872a2.9,2.9,0,0,0-.22.337,2.9,2.9,0,0,1,.22-.337m-.246,3.205c-.017-.03-.032-.06-.048-.091.015.031.031.061.048.091m-.041-2.74c-.028.056-.052.112-.075.169.024-.057.048-.114.075-.169m2.769,4.428a5.1,5.1,0,0,1,.9.452,2.62,2.62,0,0,1,.238.176,2.62,2.62,0,0,0-.238-.176,5.1,5.1,0,0,0-.9-.452m1.73,2.026a1.857,1.857,0,0,0-.3-1.078,2.04,2.04,0,0,1,.2,1.7,1.844,1.844,0,0,0,.1-.622m-.958,1.575-.009,0,.009,0m-2.506-.712a2.259,2.259,0,0,0,.193.258,1.844,1.844,0,0,0,.845.572,1.844,1.844,0,0,1-.845-.572,2.259,2.259,0,0,1-.193-.258c-.038-.06-.074-.122-.107-.185.033.064.068.126.107.185m-.375-1.437v.039a2.859,2.859,0,0,0,.109.809q.031.106.071.207-.04-.1-.071-.207a2.859,2.859,0,0,1-.109-.809Zm-1.09,1.617c.027.069.056.138.087.2-.032-.066-.06-.134-.087-.2m1.792,1.814.118.041-.118-.041m3.678-.692a3.384,3.384,0,0,1-2.421.9,3.384,3.384,0,0,0,2.421-.9c.039-.037.077-.075.114-.113-.037.038-.075.076-.114.113m.115-.115a3.009,3.009,0,0,0,.839-2.168,3.872,3.872,0,0,0-.148-1.112,3.872,3.872,0,0,1,.148,1.112,3.009,3.009,0,0,1-.839,2.168" transform="translate(-85.492 -2.487)" fill="#090650"/>
        <rect id="Rectangle_81" data-name="Rectangle 81" width="3.904" height="3.841" transform="translate(0 5.37)" fill="#090650"/>
      </g>
    </g>
  </g>
</svg>
