<svg width="71" height="71" viewBox="0 0 71 71" fill="none" xmlns="http://www.w3.org/2000/svg">
<circle cx="35.4922" cy="35.7158" r="35" fill="#F48120"/>
<path d="M56.2466 25.4774L45.7363 14.9671C44.8302 14.0611 43.3457 14.0611 42.4396 14.9671L38.0139 19.3929C37.8257 19.5811 37.7839 19.8738 37.9163 20.1038C38.0487 20.3408 38.3136 20.4593 38.5784 20.3965C39.1151 20.2711 39.6657 20.4314 40.056 20.8217C40.3905 21.1562 40.5648 21.6232 40.516 22.0971C40.4742 22.5781 40.2233 23.0032 39.812 23.282C39.2893 23.6444 38.5645 23.6444 38.0417 23.289C37.4772 22.9056 37.2123 22.2435 37.3587 21.6023C37.3889 21.4751 37.3766 21.3415 37.3238 21.222C37.2709 21.1024 37.1804 21.0034 37.066 20.9402C36.9532 20.8763 36.8225 20.8513 36.6941 20.8689C36.5656 20.8865 36.4465 20.9459 36.3551 21.0377L31.9293 25.4635C31.0233 26.3696 31.0233 27.8541 31.9293 28.7602L36.3551 33.1859C36.5433 33.3741 36.836 33.4159 37.066 33.2835C37.303 33.1511 37.4214 32.8862 37.3587 32.6284C37.2402 32.0917 37.3936 31.5411 37.7839 31.1508C38.1254 30.8093 38.5924 30.642 39.0733 30.6908C39.5611 30.7396 39.9793 30.9905 40.2581 31.4017C40.6136 31.9244 40.6136 32.6562 40.2581 33.179C39.8817 33.7296 39.2196 33.9944 38.5784 33.8481C38.4523 33.8204 38.3206 33.834 38.2027 33.8866C38.0848 33.9393 37.9869 34.0284 37.9233 34.1408C37.7908 34.3777 37.8327 34.6635 38.0208 34.8517L42.4466 39.2774C42.8857 39.7165 43.4711 39.9605 44.0984 39.9605C44.7187 39.9605 45.3042 39.7165 45.7502 39.2774L49.2351 35.7926C49.4233 36.3641 49.8066 36.8799 50.3433 37.2423C51.2772 37.8765 52.5387 37.8696 53.4727 37.2284C54.1696 36.7474 54.6087 35.9947 54.6854 35.1653C54.762 34.3359 54.4624 33.5205 53.8769 32.935C53.5633 32.6214 53.1869 32.3914 52.7757 32.252L56.2605 28.7671C57.1596 27.8681 57.1596 26.3905 56.2466 25.4774ZM55.4033 27.9308L50.9775 32.3565C50.7893 32.5447 50.7475 32.8374 50.8799 33.0674C51.0124 33.3044 51.2772 33.4229 51.542 33.3602C52.0787 33.2347 52.6293 33.395 53.0196 33.7853C53.3542 34.1199 53.5284 34.5868 53.4796 35.0608C53.4378 35.5417 53.1869 35.9668 52.7757 36.2456C52.253 36.6081 51.5281 36.6081 51.0054 36.2526C50.4408 35.8693 50.176 35.2071 50.3224 34.5659C50.3851 34.3081 50.2666 34.0362 50.0296 33.9038C49.7927 33.7714 49.5069 33.8132 49.3187 34.0014L44.893 38.4271C44.4678 38.8523 43.7151 38.8523 43.2899 38.4271L39.8051 34.9423C40.3766 34.7541 40.8854 34.3777 41.2478 33.8481C41.882 32.9211 41.882 31.6665 41.2478 30.7256C41.0163 30.3805 40.7112 30.0909 40.3545 29.8776C39.9979 29.6643 39.5984 29.5326 39.1848 29.492C38.3554 29.4084 37.533 29.7081 36.9405 30.3005C36.6269 30.6141 36.3969 30.9905 36.2575 31.4017L32.7727 27.9168C32.3336 27.4777 32.3336 26.7529 32.7727 26.3138L36.2575 22.829C36.4457 23.4005 36.829 23.9162 37.3657 24.2787C38.2996 24.9129 39.5611 24.9059 40.4951 24.2647C41.192 23.7838 41.6311 23.0311 41.7078 22.2017C41.7845 21.3723 41.4848 20.5568 40.8993 19.9714C40.5857 19.6577 40.2093 19.4277 39.7981 19.2884L43.283 15.8035C43.722 15.3644 44.4469 15.3644 44.886 15.8035L55.4033 26.3208C55.8424 26.7668 55.8424 27.4847 55.4033 27.9308ZM35.5814 39.1729C36.153 38.9847 36.6617 38.6084 37.0242 38.0787C37.6584 37.1517 37.6584 35.8971 37.0242 34.9562C36.5502 34.2523 35.7975 33.8062 34.9611 33.7226C34.1248 33.639 33.3093 33.9387 32.7169 34.5311C32.4033 34.8447 32.1733 35.2211 32.0339 35.6323L28.549 32.1474C27.6708 31.2693 26.1305 31.2693 25.2523 32.1474L21.7675 35.6323C21.6351 35.2281 21.4051 34.8517 21.0845 34.5381C20.492 33.9456 19.6836 33.6529 18.8542 33.7296C18.0248 33.8062 17.272 34.2453 16.7911 34.9423C16.4741 35.4019 16.3032 35.9465 16.3007 36.5048C16.2983 37.0632 16.4643 37.6093 16.7772 38.0717C17.1396 38.6084 17.6554 38.9847 18.2269 39.1799L14.742 42.6647C13.836 43.5708 13.836 45.0553 14.742 45.9614L25.2593 56.4787C25.7123 56.9317 26.3117 57.1617 26.9111 57.1617C27.5105 57.1617 28.103 56.9317 28.563 56.4787L32.0478 52.9938C32.236 53.5653 32.6193 54.0811 33.156 54.4435C34.0899 55.0777 35.3514 55.0708 36.2854 54.4296C36.9823 53.9487 37.4214 53.1959 37.4981 52.3665C37.5748 51.5371 37.2751 50.7217 36.6896 50.1362C36.376 49.8226 35.9996 49.5926 35.5954 49.4532L39.0802 45.9684C39.9863 45.0623 39.9863 43.5777 39.0802 42.6717L35.5814 39.1729ZM38.223 45.1111L33.7972 49.5368C33.609 49.725 33.5672 50.0177 33.6996 50.2477C33.832 50.4847 34.0969 50.6032 34.3617 50.5405C34.8914 50.415 35.449 50.5753 35.8393 50.9726C36.1739 51.3071 36.3481 51.7741 36.2993 52.2481C36.2575 52.729 36.0066 53.1541 35.5954 53.4329C35.0727 53.7953 34.3478 53.7953 33.8251 53.4399C33.2605 53.0565 32.9957 52.3944 33.142 51.7532C33.1722 51.626 33.16 51.4924 33.1071 51.3729C33.0542 51.2533 32.9637 51.1544 32.8493 51.0911C32.7365 51.0272 32.6058 51.0022 32.4774 51.0198C32.3489 51.0374 32.2299 51.0968 32.1384 51.1887L27.7127 55.6144C27.2736 56.0535 26.5487 56.0605 26.1096 55.6144L15.5923 45.1041C15.1533 44.665 15.1533 43.9402 15.5923 43.5011L20.0181 39.0753C20.2063 38.8871 20.2481 38.5944 20.1157 38.3644C20.0647 38.2706 19.9891 38.1924 19.897 38.1384C19.8049 38.0843 19.6997 38.0565 19.593 38.0577C19.5511 38.0577 19.5023 38.0647 19.4536 38.0717C18.8123 38.2181 18.1502 37.9532 17.7669 37.3887C17.5941 37.1255 17.5026 36.8173 17.5038 36.5025C17.5051 36.1876 17.599 35.8801 17.7739 35.6184C18.0596 35.2071 18.4778 34.9562 18.9587 34.9144C19.4327 34.8726 19.8996 35.0399 20.2342 35.3814C20.6245 35.7717 20.7848 36.3223 20.6663 36.859C20.6036 37.1168 20.722 37.3887 20.959 37.5211C21.196 37.6535 21.4817 37.6117 21.6699 37.4235L26.0957 32.9977C26.5208 32.5726 27.2736 32.5726 27.6987 32.9977L32.1245 37.4235C32.3127 37.6117 32.6054 37.6535 32.8354 37.5211C32.9499 37.4598 33.0409 37.3622 33.0939 37.2436C33.1469 37.125 33.1589 36.9921 33.1281 36.8659C33.0096 36.3293 33.163 35.7717 33.5533 35.3884C33.8948 35.0468 34.3617 34.8796 34.8427 34.9284C35.3305 34.9771 35.7487 35.2281 36.0275 35.6393C36.383 36.162 36.383 36.8938 36.0275 37.4165C35.6511 37.9671 34.989 38.232 34.3478 38.0856C34.2216 38.0564 34.0893 38.0692 33.9711 38.122C33.8528 38.1748 33.7551 38.2649 33.6927 38.3784C33.5602 38.6153 33.602 38.9011 33.7902 39.0893L38.216 43.515C38.662 43.9471 38.662 44.672 38.223 45.1111ZM46.043 45.4177C45.806 45.1808 45.4296 45.1808 45.1996 45.4177C44.9696 45.6547 44.9627 46.0311 45.1996 46.2611L47.3114 48.3729C47.4299 48.4914 47.5833 48.5471 47.7366 48.5471C47.8899 48.5471 48.0433 48.4914 48.1617 48.3729C48.3987 48.1359 48.3987 47.7596 48.1617 47.5296L46.043 45.4177ZM50.8033 44.1423L47.653 43.5847C47.496 43.5579 47.3347 43.5941 47.2042 43.6854C47.0737 43.7768 46.9845 43.9159 46.956 44.0726C46.9002 44.4002 47.1163 44.7068 47.4439 44.7696L50.5942 45.3271C50.629 45.3341 50.6639 45.3341 50.6987 45.3341C50.9845 45.3341 51.2354 45.132 51.2842 44.8393C51.2987 44.7619 51.2977 44.6824 51.2813 44.6054C51.2649 44.5284 51.2335 44.4555 51.1888 44.3907C51.1441 44.3259 51.087 44.2706 51.0209 44.228C50.9547 44.1853 50.8807 44.1562 50.8033 44.1423ZM43.8475 47.1741C43.5199 47.2299 43.3039 47.5435 43.3596 47.8711L43.9172 51.0214C43.966 51.3141 44.2239 51.5162 44.5027 51.5162C44.5375 51.5162 44.5724 51.5162 44.6072 51.5093C44.9348 51.4535 45.1508 51.1399 45.0951 50.8123L44.5375 47.662C44.5251 47.5843 44.4972 47.5098 44.4556 47.443C44.414 47.3762 44.3594 47.3183 44.2951 47.2729C44.2309 47.2275 44.1582 47.1953 44.0813 47.1783C44.0044 47.1614 43.9249 47.1599 43.8475 47.1741ZM24.9527 26.0141C25.0711 26.1326 25.2245 26.1884 25.3778 26.1884C25.5311 26.1884 25.6845 26.1326 25.803 26.0141C26.0399 25.7771 26.0399 25.4008 25.803 25.1708L23.6911 23.059C23.6363 23.0027 23.5707 22.958 23.4983 22.9274C23.4259 22.8969 23.3481 22.8812 23.2695 22.8812C23.1909 22.8812 23.1131 22.8969 23.0407 22.9274C22.9682 22.958 22.9027 23.0027 22.8478 23.059C22.6108 23.2959 22.6108 23.6723 22.8478 23.9023L24.9527 26.0141ZM27.0436 24.2717C27.0784 24.2717 27.1133 24.2717 27.1481 24.2647C27.4757 24.209 27.6917 23.8953 27.636 23.5677L27.0784 20.4174C27.0647 20.3396 27.0358 20.2653 26.9933 20.1987C26.9509 20.1321 26.8957 20.0745 26.831 20.0292C26.7662 19.9839 26.6932 19.9517 26.6161 19.9347C26.539 19.9176 26.4592 19.9158 26.3814 19.9296C26.3036 19.9433 26.2293 19.9722 26.1627 20.0147C26.0961 20.0571 26.0385 20.1123 25.9932 20.177C25.9479 20.2417 25.9157 20.3147 25.8986 20.3919C25.8816 20.469 25.8798 20.5487 25.8936 20.6265L26.4511 23.7768C26.4999 24.0626 26.7578 24.2717 27.0436 24.2717ZM20.1923 27.2896L23.3427 27.8471C23.3775 27.8541 23.4123 27.8541 23.4472 27.8541C23.733 27.8541 23.9839 27.652 24.0327 27.3593C24.0595 27.2023 24.0233 27.041 23.9319 26.9105C23.8406 26.7801 23.7015 26.6909 23.5448 26.6623L20.3945 26.1047C20.2375 26.0779 20.0762 26.1141 19.9457 26.2055C19.8153 26.2968 19.7261 26.4359 19.6975 26.5926C19.6487 26.9202 19.8717 27.2338 20.1923 27.2896Z" fill="white"/>
</svg>
