<svg width="34" height="34" viewBox="0 0 34 34" fill="none" xmlns="http://www.w3.org/2000/svg">
<path fill-rule="evenodd" clip-rule="evenodd" d="M10.8125 2.19824C10.7222 2.198 10.6327 2.21568 10.5493 2.25026C10.4658 2.28483 10.3901 2.33562 10.3264 2.39968L8.95144 3.77468C8.8875 3.83844 8.83679 3.9142 8.80222 3.99762C8.76765 4.08103 8.74991 4.17045 8.75 4.26074V19.3857C8.75 19.5681 8.82243 19.743 8.95136 19.8719C9.0803 20.0008 9.25516 20.0732 9.4375 20.0732H12.1875C12.3698 20.0732 12.5447 20.0008 12.6736 19.8719C12.8026 19.743 12.875 19.5681 12.875 19.3857V4.26074C12.8751 4.17045 12.8573 4.08103 12.8228 3.99762C12.7882 3.9142 12.7375 3.83844 12.6736 3.77468L11.2986 2.39968C11.2349 2.33562 11.1592 2.28483 11.0757 2.25026C10.9923 2.21568 10.9028 2.198 10.8125 2.19824ZM14.9375 2.19824C14.7552 2.19824 14.5803 2.27068 14.4514 2.39961C14.3224 2.52854 14.25 2.70341 14.25 2.88574V19.3857C14.25 19.5681 14.3224 19.743 14.4514 19.8719C14.5803 20.0008 14.7552 20.0732 14.9375 20.0732H19.0625C19.2448 20.0732 19.4197 20.0008 19.5486 19.8719C19.6776 19.743 19.75 19.5681 19.75 19.3857V2.88574C19.75 2.70341 19.6776 2.52854 19.5486 2.39961C19.4197 2.27068 19.2448 2.19824 19.0625 2.19824H14.9375ZM15.625 3.57324H18.375V18.6982H15.625V16.6357H16.3125C16.4948 16.6357 16.6697 16.5633 16.7986 16.4344C16.9276 16.3055 17 16.1306 17 15.9482C17 15.7659 16.9276 15.591 16.7986 15.4621C16.6697 15.3332 16.4948 15.2607 16.3125 15.2607H15.625V13.1982H16.3125C16.4948 13.1982 16.6697 13.1258 16.7986 12.9969C16.9276 12.868 17 12.6931 17 12.5107C17 12.3284 16.9276 12.1535 16.7986 12.0246C16.6697 11.8957 16.4948 11.8232 16.3125 11.8232H15.625V9.76075H16.3125C16.4948 9.76075 16.6697 9.68831 16.7986 9.55938C16.9276 9.43045 17 9.25558 17 9.07325C17 8.89091 16.9276 8.71604 16.7986 8.58711C16.6697 8.45818 16.4948 8.38575 16.3125 8.38575H15.625V6.32325H16.3125C16.4948 6.32325 16.6697 6.25081 16.7986 6.12188C16.9276 5.99295 17 5.81808 17 5.63574C17 5.45341 16.9276 5.27854 16.7986 5.14961C16.6697 5.02068 16.4948 4.94824 16.3125 4.94824H15.625V3.57324ZM10.8125 3.85787L11.5 4.54537V4.94824H10.125V4.54537L10.8125 3.85787ZM5.3125 6.32325C5.13016 6.32325 4.9553 6.39568 4.82636 6.52461C4.69743 6.65354 4.625 6.82841 4.625 7.01075V26.2607C4.625 26.4431 4.69743 26.618 4.82636 26.7469C4.9553 26.8758 5.13016 26.9482 5.3125 26.9482H13.8258L12.4508 29.6982H11.5C11.3177 29.6982 11.1428 29.7707 11.0139 29.8996C10.8849 30.0285 10.8125 30.2034 10.8125 30.3857C10.8125 30.5681 10.8849 30.743 11.0139 30.8719C11.1428 31.0008 11.3177 31.0732 11.5 31.0732H22.5C22.677 31.0653 22.8442 30.9894 22.9666 30.8614C23.0891 30.7333 23.1574 30.5629 23.1574 30.3857C23.1574 30.2085 23.0891 30.0382 22.9666 29.9101C22.8442 29.7821 22.677 29.7062 22.5 29.6982H21.5492L20.1742 26.9482H28.6875C29.0677 26.9482 29.3764 26.6402 29.3764 26.2607V7.01075C29.3764 6.63124 29.0677 6.32325 28.6875 6.32325H21.8125C21.6302 6.32325 21.4553 6.39568 21.3264 6.52461C21.1974 6.65354 21.125 6.82841 21.125 7.01075C21.125 7.19308 21.1974 7.36795 21.3264 7.49688C21.4553 7.62581 21.6302 7.69825 21.8125 7.69825H28V22.8232H6V7.69825H6.6875C6.86984 7.69825 7.0447 7.62581 7.17364 7.49688C7.30257 7.36795 7.375 7.19308 7.375 7.01075C7.375 6.82841 7.30257 6.65354 7.17364 6.52461C7.0447 6.39568 6.86984 6.32325 6.6875 6.32325H5.3125ZM10.125 6.32325H11.5V15.9482H10.125V6.32325ZM21.8125 9.76075C21.6302 9.76075 21.4553 9.83318 21.3264 9.96211C21.1974 10.091 21.125 10.2659 21.125 10.4482C21.125 10.6306 21.1974 10.8054 21.3264 10.9344C21.4553 11.0633 21.6302 11.1357 21.8125 11.1357H25.9375C26.1198 11.1357 26.2947 11.0633 26.4236 10.9344C26.5526 10.8054 26.625 10.6306 26.625 10.4482C26.625 10.2659 26.5526 10.091 26.4236 9.96211C26.2947 9.83318 26.1198 9.76075 25.9375 9.76075H21.8125ZM21.8125 12.5107C21.6302 12.5107 21.4553 12.5832 21.3264 12.7121C21.1974 12.841 21.125 13.0159 21.125 13.1982C21.125 13.3806 21.1974 13.5555 21.3264 13.6844C21.4553 13.8133 21.6302 13.8857 21.8125 13.8857H25.9375C26.1198 13.8857 26.2947 13.8133 26.4236 13.6844C26.5526 13.5555 26.625 13.3806 26.625 13.1982C26.625 13.0159 26.5526 12.841 26.4236 12.7121C26.2947 12.5832 26.1198 12.5107 25.9375 12.5107H21.8125ZM21.8125 15.2607C21.6302 15.2607 21.4553 15.3332 21.3264 15.4621C21.1974 15.591 21.125 15.7659 21.125 15.9482C21.125 16.1306 21.1974 16.3055 21.3264 16.4344C21.4553 16.5633 21.6302 16.6357 21.8125 16.6357H25.9375C26.1198 16.6357 26.2947 16.5633 26.4236 16.4344C26.5526 16.3055 26.625 16.1306 26.625 15.9482C26.625 15.7659 26.5526 15.591 26.4236 15.4621C26.2947 15.3332 26.1198 15.2607 25.9375 15.2607H21.8125ZM10.125 17.3232H11.5V18.6982H10.125V17.3232ZM21.8125 18.0107C21.6302 18.0107 21.4553 18.0832 21.3264 18.2121C21.1974 18.341 21.125 18.5159 21.125 18.6982C21.125 18.8806 21.1974 19.0555 21.3264 19.1844C21.4553 19.3133 21.6302 19.3857 21.8125 19.3857H25.9375C26.1198 19.3857 26.2947 19.3133 26.4236 19.1844C26.5526 19.0555 26.625 18.8806 26.625 18.6982C26.625 18.5159 26.5526 18.341 26.4236 18.2121C26.2947 18.0832 26.1198 18.0107 25.9375 18.0107H21.8125ZM6 24.1982H28V25.5732H6V24.1982ZM15.3617 26.9482H18.6383L20.0133 29.6982H13.9867L15.3617 26.9482Z" fill="black"/>
</svg>
