<svg width="33" height="33" viewBox="0 0 33 33" fill="none" xmlns="http://www.w3.org/2000/svg">
<path d="M28.0982 7.46595H26.6393V3.36461C26.6388 2.91064 26.4583 2.47541 26.1373 2.1544C25.8162 1.8334 25.381 1.65284 24.927 1.65234H8.06778C7.61381 1.65284 7.17858 1.8334 6.85757 2.1544C6.53657 2.47541 6.35601 2.91064 6.35552 3.36461V7.46595H4.89667C4.07278 7.46694 3.28293 7.79466 2.70035 8.37724C2.11778 8.95981 1.79005 9.74967 1.78906 10.5736V24.9865C1.78906 26.7 3.18378 28.0934 4.89667 28.0934H11.742L10.5552 30.414H9.69163C9.56778 30.414 9.449 30.4632 9.36142 30.5508C9.27385 30.6384 9.22465 30.7572 9.22465 30.881C9.22465 31.0049 9.27385 31.1236 9.36142 31.2112C9.449 31.2988 9.56778 31.348 9.69163 31.348H23.3026C23.4264 31.348 23.5452 31.2988 23.6328 31.2112C23.7204 31.1236 23.7696 31.0049 23.7696 30.881C23.7696 30.7572 23.7204 30.6384 23.6328 30.5508C23.5452 30.4632 23.4264 30.414 23.3026 30.414H22.4396L21.2528 28.0934H28.0982C28.9219 28.0926 29.7117 27.765 30.2942 27.1825C30.8767 26.6 31.2043 25.8102 31.2051 24.9865V10.5736C31.2042 9.74983 30.8765 8.96013 30.294 8.37768C29.7116 7.79522 28.9219 7.46694 28.0982 7.46595ZM7.28948 6.80097H25.7053V17.5739C25.7053 18.0035 25.3567 18.3522 24.927 18.3522H8.06778C7.63816 18.3522 7.28948 18.0035 7.28948 17.5739V6.80097ZM7.28948 3.36461C7.28948 2.93499 7.63816 2.58631 8.06778 2.58631H24.927C25.3567 2.58631 25.7053 2.93499 25.7053 3.36461V5.867H7.28948V3.36461ZM4.89667 8.39991H6.35552V17.5739C6.35601 18.0279 6.53657 18.4631 6.85757 18.7841C7.17858 19.1051 7.61381 19.2857 8.06778 19.2862H24.927C25.381 19.2857 25.8162 19.1051 26.1373 18.7841C26.4583 18.4631 26.6388 18.0279 26.6393 17.5739V8.39929H28.0982C28.6743 8.40011 29.2267 8.6294 29.634 9.03688C30.0414 9.44436 30.2705 9.99675 30.2712 10.5729V22.9411H2.72302V10.5736C2.72385 9.99738 2.95314 9.44504 3.36062 9.03768C3.76809 8.63033 4.32049 8.40057 4.89667 8.39991ZM21.3904 30.4134H11.6044L12.7911 28.0928H20.2024L21.3904 30.4134ZM28.0982 27.1589H4.89729C4.32101 27.1584 3.76845 26.9293 3.36084 26.5219C2.95323 26.1145 2.72385 25.5621 2.72302 24.9858V23.8757H30.2712V24.9858C30.2705 25.562 30.0414 26.1143 29.634 26.5217C29.2266 26.929 28.6743 27.1582 28.0982 27.1589Z" fill="black"/>
<path d="M16.4935 25.908C16.7532 25.908 16.9636 25.6975 16.9636 25.4379C16.9636 25.1782 16.7532 24.9678 16.4935 24.9678C16.2339 24.9678 16.0234 25.1782 16.0234 25.4379C16.0234 25.6975 16.2339 25.908 16.4935 25.908Z" fill="black"/>
<path d="M9.64197 3.75635C9.3842 3.75635 9.17188 3.96929 9.17188 4.22706C9.17188 4.48484 9.3842 4.69716 9.64197 4.69716C9.89974 4.69716 10.1121 4.48546 10.1121 4.22706C10.1121 3.96867 9.90037 3.75635 9.64197 3.75635ZM11.899 3.75635C11.6413 3.75635 11.4289 3.96929 11.4289 4.22706C11.4289 4.48484 11.6413 4.69716 11.899 4.69716C12.1568 4.69716 12.3691 4.48546 12.3691 4.22706C12.3691 3.96867 12.1574 3.75635 11.899 3.75635ZM14.1561 3.75635C13.8983 3.75635 13.686 3.96929 13.686 4.22706C13.686 4.48484 13.8983 4.69716 14.1561 4.69716C14.4139 4.69716 14.6262 4.48546 14.6262 4.22706C14.6262 3.96867 14.4145 3.75635 14.1561 3.75635ZM12.9102 15.0305C12.9534 15.074 13.0049 15.1086 13.0615 15.1322C13.1181 15.1557 13.1789 15.1679 13.2402 15.1679C13.3016 15.1679 13.3623 15.1557 13.4189 15.1322C13.4756 15.1086 13.527 15.074 13.5702 15.0305C13.6577 14.943 13.7068 14.8243 13.7068 14.7005C13.7068 14.5768 13.6577 14.4581 13.5702 14.3705L11.6948 12.4945L13.5665 10.6241C13.6111 10.581 13.6467 10.5295 13.6712 10.4726C13.6957 10.4156 13.7086 10.3543 13.7092 10.2923C13.7097 10.2303 13.698 10.1688 13.6745 10.1114C13.6511 10.054 13.6164 10.0019 13.5726 9.95799C13.5288 9.91412 13.4766 9.87942 13.4193 9.85592C13.3619 9.83241 13.3004 9.82056 13.2384 9.82107C13.1764 9.82158 13.1151 9.83444 13.0581 9.85888C13.0011 9.88333 12.9496 9.91888 12.9065 9.96346L10.7042 12.1645C10.6167 12.2521 10.5676 12.3707 10.5676 12.4945C10.5676 12.6182 10.6167 12.7369 10.7042 12.8245L12.9102 15.0305ZM19.4212 15.0305C19.4644 15.074 19.5158 15.1086 19.5725 15.1322C19.6291 15.1557 19.6898 15.1679 19.7512 15.1679C19.8125 15.1679 19.8733 15.1557 19.9299 15.1322C19.9865 15.1086 20.0379 15.074 20.0812 15.0305L22.2878 12.8251C22.3753 12.7376 22.4244 12.6189 22.4244 12.4951C22.4244 12.3714 22.3753 12.2527 22.2878 12.1651L20.0868 9.96346C20.044 9.91758 19.9925 9.88078 19.9352 9.85526C19.8779 9.82974 19.8161 9.81601 19.7534 9.8149C19.6907 9.8138 19.6284 9.82533 19.5702 9.84882C19.5121 9.87231 19.4593 9.90726 19.4149 9.95161C19.3706 9.99595 19.3356 10.0488 19.3121 10.1069C19.2887 10.1651 19.2771 10.2273 19.2782 10.2901C19.2793 10.3528 19.2931 10.4146 19.3186 10.4719C19.3441 10.5292 19.3809 10.5807 19.4268 10.6235L21.2972 12.4945L19.4212 14.3705C19.3337 14.4581 19.2846 14.5768 19.2846 14.7005C19.2846 14.8243 19.3337 14.943 19.4212 15.0305ZM15.0085 16.5392C15.0661 16.5604 15.1273 16.57 15.1886 16.5675C15.25 16.565 15.3102 16.5504 15.3659 16.5246C15.4216 16.4988 15.4716 16.4623 15.5132 16.4172C15.5548 16.372 15.587 16.3191 15.6081 16.2615L18.2612 9.05503C18.2824 8.99746 18.292 8.93629 18.2895 8.87501C18.2871 8.81372 18.2726 8.75352 18.2468 8.69784C18.2211 8.64216 18.1847 8.5921 18.1396 8.5505C18.0945 8.50891 18.0417 8.4766 17.9841 8.45542C17.9266 8.43425 17.8654 8.42461 17.8041 8.42708C17.7428 8.42954 17.6826 8.44405 17.6269 8.46978C17.5713 8.49551 17.5212 8.53195 17.4796 8.57703C17.438 8.62211 17.4057 8.67494 17.3845 8.7325L14.7314 15.9396C14.6888 16.0558 14.6941 16.1841 14.746 16.2964C14.798 16.4087 14.8924 16.4964 15.0085 16.5392Z" fill="black"/>
</svg>
