<svg width="33" height="34" viewBox="0 0 33 34" fill="none" xmlns="http://www.w3.org/2000/svg">
<path d="M27.15 10.1008C26.91 7.64581 24.83 5.72081 22.315 5.72081C21.44 5.72081 20.605 5.95081 19.865 6.38581C18.465 3.90581 15.87 2.33081 13.11 2.33081C8.845 2.33081 5.375 5.84081 5.345 10.1658C2.595 10.6358 0.5 13.0758 0.5 15.9108C0.5 19.1208 3.115 21.7358 6.33 21.7358H6.955C7.23 21.7358 7.455 21.5108 7.455 21.2358C7.455 20.9608 7.23 20.7358 6.955 20.7358H6.33C3.665 20.7358 1.5 18.5708 1.5 15.9108C1.5 13.4308 3.43 11.3208 5.895 11.1058C6.16 11.0808 6.36 10.8358 6.35 10.5708C6.345 10.4558 6.34 10.3408 6.34 10.2258C6.34 6.42581 9.375 3.33581 13.105 3.33581C15.665 3.33581 18.065 4.90581 19.22 7.33081C19.285 7.46581 19.41 7.56581 19.555 7.60081C19.7 7.63581 19.855 7.60581 19.975 7.51081C20.6422 6.9957 21.4621 6.71772 22.305 6.72081C24.435 6.72081 26.165 8.45081 26.165 10.5808C26.165 10.8558 26.39 11.0808 26.665 11.0808C29.325 11.0808 31.495 13.2458 31.495 15.9108C31.495 18.5758 29.33 20.7408 26.665 20.7408H26.06C25.785 20.7408 25.56 20.9658 25.56 21.2408C25.56 21.5158 25.785 21.7408 26.06 21.7408H26.665C29.885 21.7358 32.5 19.1208 32.5 15.9108C32.5 12.8558 30.14 10.3458 27.15 10.1008Z" fill="black"/>
<path d="M15.5337 22.1909H14.0937V15.9109C14.0937 15.6359 13.8687 15.4109 13.5937 15.4109H9.71875C9.44375 15.4109 9.21875 15.6359 9.21875 15.9109V22.1909H7.77875C7.59375 22.1909 7.42375 22.2909 7.33875 22.4559C7.25375 22.6209 7.26375 22.8159 7.36375 22.9709L11.2387 28.7809C11.3337 28.9209 11.4887 29.0059 11.6537 29.0059C11.8187 29.0059 11.9787 28.9209 12.0687 28.7809L15.9437 22.9709C16.0437 22.8159 16.0537 22.6209 15.9687 22.4559C15.8837 22.2909 15.7187 22.1909 15.5337 22.1909ZM11.6587 27.6009L8.71875 23.1909H9.72375C9.99875 23.1909 10.2237 22.9659 10.2237 22.6909V16.4109H13.0987V22.6909C13.0987 22.9659 13.3237 23.1909 13.5987 23.1909H14.6037L11.6587 27.6009ZM21.7587 17.5709C21.5737 17.2909 21.1137 17.2909 20.9287 17.5709L17.0537 23.3809C16.9537 23.5359 16.9437 23.7309 17.0287 23.8959C17.1137 24.0609 17.2837 24.1609 17.4687 24.1609H18.9087V30.4409C18.9087 30.7159 19.1337 30.9409 19.4087 30.9409H23.2837C23.5587 30.9409 23.7837 30.7159 23.7837 30.4409V24.1609H25.2237C25.4087 24.1609 25.5787 24.0609 25.6637 23.8959C25.7487 23.7309 25.7387 23.5359 25.6387 23.3809L21.7587 17.5709ZM23.2787 23.1609C23.0037 23.1609 22.7787 23.3859 22.7787 23.6609V29.9409H19.9037V23.6609C19.9037 23.3859 19.6787 23.1609 19.4037 23.1609H18.3987L21.3387 18.7509L24.2787 23.1609H23.2787Z" fill="black"/>
</svg>
