<svg width="70" height="71" viewBox="0 0 70 71" fill="none" xmlns="http://www.w3.org/2000/svg">
<circle cx="35" cy="35.7158" r="35" fill="#F48120"/>
<path d="M35.2563 57.5596H34.7398C34.2582 57.5599 33.7805 57.4734 33.3295 57.3044C28.3518 55.4421 24.3521 52.424 21.4414 48.3338C19.1557 45.1219 17.5704 41.2823 16.7295 36.9217C15.3426 29.7293 16.4657 23.4946 16.5142 23.2327C16.7625 21.8919 17.6619 20.7776 18.9201 20.2519L33.4465 14.1831C33.9406 13.9767 34.4626 13.8721 34.998 13.8721C35.5334 13.8721 36.0554 13.9767 36.5495 14.1831L51.0759 20.2519C52.3341 20.7776 53.2335 21.8919 53.4818 23.2327C53.5303 23.4947 54.6532 29.73 53.2664 36.9217C52.4256 41.2823 50.8403 45.1219 48.5545 48.3338C45.6439 52.424 41.6441 55.4421 36.6665 57.3044C36.2155 57.4734 35.7378 57.5599 35.2563 57.5596ZM34.998 15.3721C34.6638 15.3717 34.333 15.4381 34.0247 15.5672L19.4984 21.636C18.7091 21.9657 18.1449 22.6647 17.9891 23.5058C17.9427 23.7563 16.8685 29.7204 18.2024 36.6377C19.0023 40.7859 20.5032 44.4284 22.6635 47.4641C25.3975 51.3059 29.1629 54.144 33.8551 55.8995C34.138 56.0055 34.4376 56.0597 34.7397 56.0595H35.2562C35.5593 56.0595 35.857 56.0057 36.1409 55.8995C40.8331 54.144 44.5984 51.306 47.3324 47.4641C49.4928 44.4284 50.9937 40.7859 51.7936 36.6377C53.1273 29.7211 52.0532 23.7563 52.0069 23.5058C51.8511 22.6647 51.2869 21.9657 50.4976 21.636L35.9712 15.5672C35.663 15.4381 35.3322 15.3717 34.998 15.3721Z" fill="white"/>
<path d="M35.2562 54.285H34.7398C34.65 54.285 34.561 54.2689 34.4769 54.2375C30.1225 52.6084 26.6344 49.9833 24.1095 46.4353C22.0976 43.6081 20.6964 40.1987 19.945 36.3019C19.2807 32.8567 19.2576 29.6569 19.3552 27.5793C19.4613 25.3217 19.723 23.8891 19.7341 23.8292C19.7568 23.7067 19.8097 23.5917 19.888 23.4947C19.9663 23.3977 20.0675 23.3218 20.1825 23.2737L34.7088 17.2049C34.8004 17.1667 34.8987 17.147 34.998 17.147C35.0972 17.147 35.1955 17.1667 35.2871 17.2049L49.8134 23.2737C49.9284 23.3218 50.0297 23.3977 50.1079 23.4947C50.1862 23.5917 50.2391 23.7067 50.2618 23.8292C50.2729 23.8891 50.5346 25.3218 50.6407 27.5793C50.7383 29.6569 50.7153 32.8567 50.0509 36.3019C49.2995 40.1987 47.8984 43.6081 45.8864 46.4353C43.3615 49.9833 39.8734 52.6084 35.519 54.2375C35.435 54.2689 35.346 54.285 35.2562 54.285ZM34.8765 52.785H35.1195C42.4418 50.001 46.9694 44.3605 48.5781 36.0178C49.6097 30.6682 49.051 25.873 48.8496 24.4967L34.998 18.7098L21.1461 24.4968C21.0633 25.0601 20.9202 26.1951 20.8515 27.6951C20.7601 29.692 20.7856 32.7645 21.4264 36.0618C23.0431 44.3806 27.5676 50.0062 34.8765 52.785Z" fill="white"/>
<path d="M38.6099 44.9999H31.3804C29.4389 44.9999 27.8594 43.4202 27.8594 41.4786V35.6038C27.8594 33.6621 29.4389 32.0825 31.3804 32.0825H38.6099C40.5514 32.0825 42.1309 33.6621 42.1309 35.6038V41.4786C42.1309 43.4202 40.5514 44.9999 38.6099 44.9999ZM31.3804 33.5825C30.266 33.5825 29.3594 34.4892 29.3594 35.6038V41.4786C29.3594 42.5931 30.266 43.4999 31.3804 43.4999H38.6099C39.7243 43.4999 40.6309 42.5931 40.6309 41.4786V35.6038C40.6309 34.4892 39.7243 33.5825 38.6099 33.5825H31.3804ZM34.9952 39.4374C33.8494 39.4374 32.9172 38.5053 32.9172 37.3595C32.9172 36.2135 33.8494 35.2813 34.9952 35.2813C36.141 35.2813 37.0731 36.2135 37.0731 37.3595C37.0731 38.5053 36.141 39.4374 34.9952 39.4374ZM34.9952 36.7813C34.6765 36.7813 34.4172 37.0406 34.4172 37.3595C34.4172 37.6782 34.6765 37.9374 34.9952 37.9374C35.3138 37.9374 35.5731 37.6782 35.5731 37.3595C35.5731 37.0406 35.3139 36.7813 34.9952 36.7813Z" fill="white"/>
<path d="M39.6691 33.583C39.2549 33.583 38.9191 33.2472 38.9191 32.833V30.5357C38.9191 28.374 37.1604 26.6152 34.9986 26.6152C32.8369 26.6152 31.0781 28.374 31.0781 30.5357V32.833C31.0781 33.2472 30.7423 33.583 30.3281 33.583C29.9139 33.583 29.5781 33.2472 29.5781 32.833V30.5357C29.5781 29.0879 30.142 27.7267 31.1658 26.7029C32.1896 25.6791 33.5508 25.1152 34.9986 25.1152C36.4465 25.1152 37.8077 25.6791 38.8315 26.7029C39.8553 27.7267 40.4191 29.0879 40.4191 30.5357V32.833C40.4191 33.2472 40.0834 33.583 39.6691 33.583ZM34.9986 41.6763C34.5844 41.6763 34.2486 41.3405 34.2486 40.9263V38.6878C34.2486 38.2736 34.5844 37.9378 34.9986 37.9378C35.4128 37.9378 35.7486 38.2736 35.7486 38.6878V40.9263C35.7486 41.3405 35.4128 41.6763 34.9986 41.6763Z" fill="white"/>
</svg>
