<svg width="70" height="71" viewBox="0 0 70 71" fill="none" xmlns="http://www.w3.org/2000/svg">
<circle cx="35" cy="35.335" r="35" fill="#F48120"/>
<path fill-rule="evenodd" clip-rule="evenodd" d="M23.6581 42.3545H19.6419C16.3365 42.3545 13.6328 39.7093 13.6328 36.4779C13.6328 34.2026 14.9723 32.2185 16.9172 31.2424L16.9171 31.212C16.9171 26.2572 21.022 22.2398 26.087 22.2398C26.336 22.2398 26.5828 22.2495 26.8269 22.2685C27.8456 18.4 31.4346 15.541 35.7072 15.541C38.0254 15.541 40.1444 16.3832 41.7596 17.7727C42.537 17.5455 43.3441 17.4305 44.1555 17.4311C48.2977 17.4311 51.7327 20.3806 52.3904 24.2497C54.7494 25.0819 56.3684 27.2921 56.3684 29.7792C56.3684 33.0106 53.6647 35.6558 50.3594 35.6558H46.6888C46.728 35.9253 46.7483 36.1999 46.7483 36.4779C46.7483 39.7093 44.0446 42.3545 40.7393 42.3545H36.723V48.8763H39.1348C39.4542 47.6874 40.5613 46.8094 41.8764 46.8094C43.4408 46.8094 44.7109 48.0518 44.7109 49.5822C44.7109 51.1126 43.4408 52.3551 41.8764 52.3551C40.5613 52.3551 39.4542 51.4771 39.1348 50.2881H36.0014C35.8101 50.2881 35.6265 50.2137 35.4912 50.0813C35.3559 49.949 35.2799 49.7694 35.2799 49.5822V42.3545H30.9121V49.6743C32.1275 49.9868 33.025 51.0698 33.025 52.3563C33.025 53.8867 31.7549 55.1292 30.1906 55.1292C28.6262 55.1292 27.3561 53.8867 27.3561 52.3563C27.3561 51.0698 28.2536 49.9868 29.469 49.6743V42.3545H25.1012V49.5822C25.1012 49.7694 25.0252 49.949 24.8899 50.0813C24.7546 50.2137 24.571 50.2881 24.3797 50.2881H21.2464C20.9269 51.4771 19.8198 52.3551 18.5048 52.3551C16.9403 52.3551 15.6703 51.1126 15.6703 49.5822C15.6703 48.0518 16.9403 46.8094 18.5048 46.8094C19.8198 46.8094 20.9269 47.6874 21.2464 48.8763H23.6581V42.3545ZM28.2592 22.493C29.7206 22.8404 31.0456 23.5304 32.1394 24.4713C32.9168 24.2442 33.724 24.1291 34.5353 24.1298C38.6775 24.1298 42.1126 27.0794 42.7703 30.9483C44.3861 31.5183 45.6547 32.7349 46.2936 34.244H50.3594C52.8708 34.244 54.9253 32.2344 54.9253 29.7792C54.9253 27.7678 53.5308 25.9953 51.5488 25.4691C51.4087 25.4319 51.2833 25.3542 51.1891 25.2463C51.0948 25.1383 51.036 25.005 51.0204 24.8638C50.6462 21.4779 47.7165 18.8429 44.1555 18.8429C43.3614 18.842 42.573 18.9753 41.8252 19.237C41.6984 19.2815 41.5613 19.2903 41.4296 19.2624C41.2979 19.2346 41.1768 19.1713 41.08 19.0796C39.6894 17.7627 37.7941 16.9528 35.7072 16.9528C32.1544 16.9528 29.1621 19.2984 28.2592 22.493ZM40.7393 40.9427C43.2507 40.9427 45.3052 38.9332 45.3052 36.4779C45.3052 34.4664 43.9106 32.694 41.9287 32.1678C41.7886 32.1306 41.6632 32.0529 41.5689 31.9449C41.4747 31.8369 41.4159 31.7036 41.4003 31.5624C41.0261 28.1766 38.0963 25.5415 34.5353 25.5415C33.7412 25.5407 32.9528 25.674 32.2051 25.9357C32.0782 25.9801 31.9412 25.9889 31.8095 25.9611C31.6778 25.9333 31.5567 25.87 31.4599 25.7783C30.0692 24.4613 28.1739 23.6515 26.087 23.6515C21.8191 23.6515 18.3603 27.0369 18.3603 31.212C18.3603 31.3575 18.3636 31.503 18.3722 31.6469C18.3809 31.7936 18.3425 31.9394 18.2625 32.0638C18.1825 32.1882 18.0647 32.285 17.9257 32.3408C16.26 33.0094 15.0759 34.6144 15.0759 36.4779C15.0759 38.9332 17.1304 40.9427 19.6419 40.9427H40.7393ZM41.8764 48.2212C41.1085 48.2212 40.4851 48.8311 40.4851 49.5822C40.4851 50.3334 41.1085 50.9433 41.8764 50.9433C42.6443 50.9433 43.2677 50.3334 43.2677 49.5822C43.2677 48.8311 42.6443 48.2212 41.8764 48.2212ZM30.1906 50.9952C29.4226 50.9952 28.7992 51.6051 28.7992 52.3563C28.7992 53.1076 29.4226 53.7174 30.1906 53.7174C30.9585 53.7174 31.5818 53.1076 31.5818 52.3563C31.5818 51.6051 30.9585 50.9952 30.1906 50.9952ZM18.5048 48.2212C17.7368 48.2212 17.1134 48.8311 17.1134 49.5822C17.1134 50.3334 17.7368 50.9433 18.5048 50.9433C19.2726 50.9433 19.896 50.3334 19.896 49.5822C19.896 48.8311 19.2726 48.2212 18.5048 48.2212ZM44.1835 23.3307V21.7861C44.1835 21.3966 44.5068 21.0803 44.9051 21.0803C45.3034 21.0803 45.6266 21.3966 45.6266 21.7861V23.3307H47.2055C47.6037 23.3307 47.9271 23.6469 47.9271 24.0366C47.9271 24.4261 47.6037 24.7425 47.2055 24.7425H45.6266V26.2869C45.6266 26.6765 45.3034 26.9928 44.9051 26.9928C44.5068 26.9928 44.1835 26.6765 44.1835 26.2869V24.7425H42.6047C42.2065 24.7425 41.8831 24.4261 41.8831 24.0366C41.8831 23.6469 42.2065 23.3307 42.6047 23.3307H44.1835Z" fill="white"/>
</svg>
