<svg width="33" height="34" viewBox="0 0 33 34" fill="none" xmlns="http://www.w3.org/2000/svg">
<path d="M32.398 24.4345C32.0493 23.1319 30.6952 22.3405 29.3152 22.6299L19.6975 24.6717C19.8867 24.1515 19.8871 23.5813 19.6986 23.0608C19.5101 22.5403 19.1447 22.1026 18.6663 21.8242L13.0911 18.6048C12.8674 18.465 12.6572 18.3047 12.4633 18.1259C11.9735 17.7024 11.3637 17.1758 10.2274 17.0547C9.14783 16.9399 7.74275 17.1932 5.84461 17.85C5.78125 17.4475 5.57639 17.0808 5.26685 16.8158C4.95732 16.5508 4.56341 16.4049 4.15594 16.4043H2.22492C1.77175 16.4048 1.33728 16.5851 1.01683 16.9055C0.696387 17.226 0.516137 17.6604 0.515625 18.1136V27.6147C0.516137 28.0678 0.696387 28.5023 1.01683 28.8227C1.33728 29.1432 1.77175 29.3234 2.22492 29.324H4.15014C4.59856 29.3233 5.02882 29.1467 5.34836 28.8321C5.6679 28.5175 5.85119 28.0901 5.85879 27.6417C7.39664 27.4258 9.35021 28.5408 11.2438 29.6224C12.8758 30.5544 14.4317 31.4432 15.7317 31.4432C15.9763 31.4452 16.2197 31.4097 16.4536 31.3381L30.6023 27.547C31.253 27.3721 31.8077 26.946 32.1444 26.3624C32.4811 25.7788 32.5723 25.0854 32.398 24.4345ZM4.15014 28.2927H2.22492C2.04515 28.2925 1.87278 28.221 1.74566 28.0939C1.61854 27.9668 1.54705 27.7944 1.54688 27.6147V18.1136C1.54705 17.9338 1.61854 17.7615 1.74566 17.6344C1.87278 17.5072 2.04515 17.4357 2.22492 17.4356H4.15014C4.32991 17.4357 4.50228 17.5072 4.6294 17.6344C4.75652 17.7615 4.82801 17.9338 4.82818 18.1136V27.6147C4.82801 27.7944 4.75652 27.9668 4.6294 28.0939C4.50228 28.221 4.32991 28.2925 4.15014 28.2927ZM30.3355 26.5525L16.1777 30.3449L16.1539 30.352C15.1594 30.6697 13.4295 29.6823 11.7569 28.7271C9.76336 27.5876 7.70859 26.4158 5.86137 26.6002V18.936C10.0734 17.4253 10.9448 18.1774 11.7911 18.9058C12.0334 19.1282 12.2967 19.3265 12.5774 19.4981L18.1526 22.7169C18.3031 22.8042 18.435 22.9204 18.5406 23.0587C18.6463 23.197 18.7236 23.3547 18.7683 23.5229C18.813 23.6912 18.8241 23.8665 18.801 24.039C18.7779 24.2115 18.7211 24.3778 18.6337 24.5283C18.5464 24.6789 18.4302 24.8107 18.2919 24.9164C18.1536 25.022 17.9958 25.0994 17.8276 25.1441C17.6594 25.1887 17.4841 25.1998 17.3116 25.1768C17.1391 25.1537 16.9728 25.0968 16.8223 25.0095L12.1675 22.3224C12.0493 22.2583 11.9109 22.2428 11.7815 22.2793C11.6521 22.3157 11.5421 22.4013 11.4749 22.5176C11.4077 22.634 11.3886 22.772 11.4216 22.9023C11.4547 23.0326 11.5373 23.1448 11.6518 23.2151L16.3066 25.9028C16.6633 26.1092 17.0682 26.218 17.4803 26.218C17.8502 26.2174 18.2148 26.1305 18.5451 25.964C18.5693 25.9624 18.5935 25.9591 18.6173 25.9543L29.5266 23.6443C30.3845 23.4626 31.1895 23.9183 31.4003 24.704C31.5031 25.09 31.4489 25.5011 31.2493 25.8472C31.0497 26.1933 30.7212 26.4462 30.3355 26.5505V26.5525ZM4.04701 19.2976C4.04752 19.4678 3.99751 19.6343 3.90332 19.7761C3.80912 19.9178 3.67498 20.0284 3.51788 20.0939C3.36078 20.1593 3.18779 20.1767 3.02082 20.1438C2.85384 20.1108 2.7004 20.0291 2.57992 19.9089C2.45944 19.7887 2.37735 19.6354 2.34404 19.4685C2.31073 19.3016 2.32769 19.1286 2.39279 18.9713C2.45789 18.8141 2.56819 18.6797 2.70973 18.5852C2.85126 18.4907 3.01766 18.4403 3.18785 18.4404C3.41522 18.4409 3.63317 18.5313 3.79413 18.6919C3.95508 18.8525 4.04599 19.0703 4.04701 19.2976ZM14.2267 13.6328H15.0994C15.2724 14.2545 15.5204 14.8527 15.8381 15.4143L15.2213 16.0318C15.0594 16.1915 14.9613 16.4047 14.9453 16.6315C14.9293 16.8584 14.9964 17.0832 15.1342 17.2641C15.6797 17.9879 16.3239 18.6318 17.0479 19.1771C17.2285 19.3152 17.4534 19.3827 17.6803 19.3668C17.9072 19.3509 18.1205 19.2527 18.2802 19.0907L18.8977 18.4739C19.4592 18.7916 20.0572 19.0401 20.6785 19.2138V20.0865C20.6771 20.3139 20.7587 20.534 20.908 20.7056C21.0572 20.8772 21.2639 20.9884 21.4893 21.0185C22.3872 21.145 23.2984 21.145 24.1963 21.0185C24.4221 20.9885 24.6291 20.8772 24.7785 20.7053C24.9279 20.5335 25.0095 20.313 25.0078 20.0852V19.2138C25.6294 19.0407 26.2276 18.7926 26.7893 18.4752L27.4061 19.092C27.5658 19.254 27.7791 19.3522 28.006 19.3681C28.2329 19.384 28.4578 19.3165 28.6385 19.1784C29.3622 18.6328 30.0059 17.9885 30.5508 17.2641C30.6887 17.0833 30.7559 16.8585 30.74 16.6317C30.7241 16.4048 30.6262 16.1916 30.4644 16.0318L29.847 15.4143C30.1647 14.853 30.4127 14.2549 30.5856 13.6335H31.4589C31.6864 13.635 31.9065 13.5535 32.0781 13.4042C32.2497 13.2549 32.3609 13.0481 32.3909 12.8227C32.5174 11.9247 32.5174 11.0135 32.3909 10.1156C32.3608 9.89029 32.2495 9.68367 32.0779 9.53452C31.9064 9.38537 31.6863 9.30392 31.4589 9.30546H30.5849C30.4117 8.68385 30.1634 8.08562 29.8457 7.52397L30.4631 6.90716C30.624 6.74773 30.7216 6.53532 30.7377 6.30938C30.7538 6.08345 30.6874 5.85934 30.5508 5.67868C30.0056 4.95436 29.3615 4.3102 28.6372 3.76507C28.4565 3.62693 28.2316 3.55948 28.0047 3.57538C27.7778 3.59129 27.5645 3.68944 27.4048 3.85143L26.788 4.46889C26.2268 4.15046 25.6291 3.90135 25.0078 3.72704V2.85434C25.0094 2.62693 24.9279 2.40675 24.7788 2.23507C24.6297 2.06338 24.423 1.95197 24.1976 1.92171C23.2996 1.79661 22.3886 1.79661 21.4906 1.92171C21.2653 1.9521 21.0587 2.06355 20.9096 2.23521C20.7605 2.40687 20.679 2.62697 20.6804 2.85434V3.72704C20.0584 3.90029 19.4597 4.14853 18.8977 4.46632L18.2802 3.84885C18.1204 3.68711 17.9071 3.58913 17.6803 3.57323C17.4535 3.55734 17.2287 3.62462 17.0479 3.76249C16.3234 4.30841 15.6792 4.95345 15.1342 5.67868C14.9963 5.85951 14.9291 6.08442 14.9451 6.31128C14.9611 6.53814 15.0593 6.75137 15.2213 6.91102L15.8381 7.52784C15.5203 8.0894 15.2722 8.68765 15.0994 9.30932H14.2267C13.9993 9.30777 13.7792 9.38919 13.6075 9.53834C13.4358 9.68748 13.3244 9.8941 13.2941 10.1195C13.1677 11.0174 13.1677 11.9286 13.2941 12.8265C13.3251 13.0513 13.4368 13.2571 13.6085 13.4054C13.7801 13.5538 13.9999 13.6347 14.2267 13.6328ZM14.3047 10.338H15.501C15.6183 10.338 15.732 10.2981 15.8236 10.2247C15.9151 10.1514 15.9788 10.049 16.0044 9.93452C16.1801 9.14924 16.4906 8.40038 16.9222 7.7212C16.9849 7.62224 17.0121 7.50487 16.9992 7.38842C16.9863 7.27197 16.9341 7.16338 16.8513 7.08053L16.0056 6.23426C16.4667 5.63265 17.005 5.09435 17.6067 4.63325L18.4523 5.47952C18.5352 5.56252 18.6439 5.61478 18.7605 5.62767C18.8771 5.64056 18.9946 5.61331 19.0936 5.55042C19.7728 5.11885 20.5216 4.80831 21.3069 4.6326C21.4208 4.60707 21.5227 4.54362 21.5959 4.45265C21.6691 4.36167 21.7092 4.24856 21.7097 4.1318V2.93233C22.4613 2.83436 23.2224 2.83436 23.974 2.93233V4.1318C23.974 4.24909 24.0139 4.36287 24.0873 4.45439C24.1606 4.5459 24.263 4.60967 24.3775 4.63518C25.1623 4.80986 25.911 5.11931 26.5901 5.54977C26.6892 5.61267 26.8067 5.63992 26.9233 5.62703C27.0398 5.61414 27.1486 5.56188 27.2314 5.47887L28.0777 4.6326C28.679 5.0939 29.217 5.63217 29.6781 6.23362L28.8325 7.07989C28.7496 7.16274 28.6975 7.27133 28.6846 7.38778C28.6717 7.50423 28.6988 7.6216 28.7616 7.72055C29.1932 8.39924 29.5037 9.14769 29.6794 9.93258C29.705 10.0469 29.7688 10.1492 29.8603 10.2224C29.9518 10.2956 30.0656 10.3355 30.1828 10.3354H31.379C31.4778 11.0869 31.4778 11.8481 31.379 12.5997H30.1821C30.065 12.5997 29.9515 12.6397 29.8601 12.7129C29.7687 12.7861 29.705 12.8882 29.6794 13.0025C29.5039 13.7884 29.1933 14.538 28.7616 15.2177C28.6988 15.3167 28.6717 15.4341 28.6846 15.5505C28.6975 15.667 28.7496 15.7756 28.8325 15.8584L29.6787 16.7047C29.2173 17.306 28.679 17.8442 28.0777 18.3057L27.2314 17.4601C27.1485 17.3773 27.0399 17.3253 26.9234 17.3125C26.807 17.2997 26.6897 17.327 26.5908 17.3898C25.9114 17.8215 25.1623 18.1321 24.3768 18.3076C24.2626 18.3332 24.1604 18.397 24.0872 18.4883C24.014 18.5797 23.9741 18.6933 23.974 18.8104V20.0073C23.2224 20.1052 22.4613 20.1052 21.7097 20.0073V18.8104C21.7098 18.6932 21.6699 18.5794 21.5967 18.4879C21.5235 18.3964 21.4213 18.3326 21.3069 18.307C20.5214 18.132 19.7724 17.8214 19.0936 17.3892C18.9946 17.3263 18.8771 17.299 18.7605 17.3119C18.6439 17.3248 18.5352 17.3771 18.4523 17.4601L17.6067 18.3063C17.005 17.8452 16.4667 17.3069 16.0056 16.7053L16.8513 15.8623C16.9341 15.7794 16.9863 15.6708 16.9992 15.5544C17.0121 15.4379 16.9849 15.3206 16.9222 15.2216C16.4905 14.5425 16.1799 13.7936 16.0044 13.0083C15.9788 12.8938 15.9151 12.7915 15.8236 12.7181C15.732 12.6448 15.6183 12.6048 15.501 12.6048H14.3047C14.2059 11.8535 14.2059 11.0925 14.3047 10.3412V10.338ZM22.8422 16.6357C23.8634 16.6357 24.8617 16.3329 25.7108 15.7655C26.5599 15.1982 27.2217 14.3918 27.6125 13.4483C28.0033 12.5048 28.1055 11.4666 27.9063 10.4651C27.7071 9.46346 27.2153 8.54344 26.4932 7.82134C25.7711 7.09923 24.8511 6.60747 23.8495 6.40824C22.8479 6.20901 21.8097 6.31127 20.8663 6.70207C19.9228 7.09287 19.1164 7.75467 18.549 8.60377C17.9817 9.45288 17.6788 10.4512 17.6788 11.4724C17.6804 12.8413 18.2249 14.1537 19.1929 15.1217C20.1608 16.0897 21.4733 16.6342 22.8422 16.6357ZM22.8422 7.34028C23.6594 7.34028 24.4583 7.58262 25.1379 8.03666C25.8174 8.4907 26.347 9.13605 26.6597 9.89109C26.9725 10.6461 27.0543 11.477 26.8949 12.2785C26.7354 13.08 26.3419 13.8163 25.764 14.3942C25.1861 14.9721 24.4499 15.3656 23.6483 15.5251C22.8468 15.6845 22.0159 15.6027 21.2609 15.2899C20.5059 14.9772 19.8605 14.4476 19.4065 13.768C18.9524 13.0885 18.7101 12.2896 18.7101 11.4724C18.7106 10.3764 19.146 9.32541 19.9208 8.55019C20.6955 7.77498 21.7462 7.3389 22.8422 7.3377V7.34028ZM20.6978 11.9603C20.65 11.9124 20.612 11.8555 20.5861 11.7929C20.5602 11.7304 20.5469 11.6633 20.547 11.5956C20.547 11.5278 20.5604 11.4608 20.5863 11.3982C20.6122 11.3357 20.6502 11.2789 20.6982 11.231C20.7461 11.1831 20.8029 11.1452 20.8655 11.1193C20.9281 11.0934 20.9951 11.0801 21.0629 11.0801C21.1306 11.0801 21.1976 11.0935 21.2602 11.1195C21.3227 11.1454 21.3796 11.1834 21.4274 11.2313L22.2557 12.0595L24.2344 9.78885C24.3271 9.69731 24.4511 9.64427 24.5814 9.64042C24.7116 9.63657 24.8385 9.68219 24.9365 9.76809C25.0345 9.854 25.0963 9.97383 25.1096 10.1035C25.1228 10.2331 25.0864 10.363 25.0078 10.4669L22.6682 13.1507C22.6217 13.2041 22.5648 13.2472 22.5009 13.2776C22.437 13.308 22.3676 13.3249 22.2969 13.3273H22.2795C22.2118 13.3274 22.1447 13.3141 22.0821 13.2882C22.0195 13.2623 21.9626 13.2244 21.9147 13.1765L20.6978 11.9603Z" fill="black"/>
</svg>
