<svg width="70" height="71" viewBox="0 0 70 71" fill="none" xmlns="http://www.w3.org/2000/svg">
<circle cx="35" cy="35.3398" r="35" fill="#F48120"/>
<g clip-path="url(#clip0_88_3)">
<path d="M50.0417 53.8398H19.9583C18.9089 53.8386 17.9028 53.4322 17.1608 52.7096C16.4187 51.9871 16.0013 51.0075 16 49.9857V20.694C16 18.5696 17.7749 16.8398 19.9583 16.8398H50.0417C52.2251 16.8398 54 18.5696 54 20.694V49.9857C54 52.1101 52.2251 53.8398 50.0417 53.8398ZM19.9583 18.3815C18.6489 18.3815 17.5833 19.4191 17.5833 20.694V49.9857C17.5833 51.2606 18.6489 52.2982 19.9583 52.2982H50.0417C51.3511 52.2982 52.4167 51.2606 52.4167 49.9857V20.694C52.4167 19.4191 51.3511 18.3815 50.0417 18.3815H19.9583Z" fill="white"/>
<path d="M46.875 35.3397C46.665 35.3397 46.4637 35.2585 46.3152 35.1139C46.1667 34.9693 46.0833 34.7733 46.0833 34.5688V24.548H35.7917C35.5817 24.548 35.3803 24.4668 35.2319 24.3222C35.0834 24.1777 35 23.9816 35 23.7772C35 23.5727 35.0834 23.3767 35.2319 23.2321C35.3803 23.0876 35.5817 23.0063 35.7917 23.0063H46.875C47.085 23.0063 47.2863 23.0876 47.4348 23.2321C47.5833 23.3767 47.6667 23.5727 47.6667 23.7772V34.5688C47.6667 34.7733 47.5833 34.9693 47.4348 35.1139C47.2863 35.2585 47.085 35.3397 46.875 35.3397Z" fill="white"/>
<path d="M32.625 38.423C32.4685 38.423 32.3156 38.3778 32.1855 38.2932C32.0554 38.2086 31.9539 38.0884 31.894 37.9477C31.834 37.807 31.8182 37.6521 31.8485 37.5027C31.8789 37.3532 31.954 37.2159 32.0645 37.108L46.3145 23.233C46.4638 23.0926 46.6638 23.0149 46.8714 23.0166C47.0789 23.0184 47.2775 23.0995 47.4243 23.2424C47.5711 23.3853 47.6543 23.5786 47.6561 23.7807C47.6579 23.9828 47.5781 24.1776 47.4339 24.3229L33.1839 38.1979C33.1106 38.2694 33.0234 38.3261 32.9275 38.3647C32.8316 38.4034 32.7288 38.4232 32.625 38.423ZM29.4583 53.8397C29.2484 53.8397 29.047 53.7585 28.8985 53.6139C28.7501 53.4694 28.6667 53.2733 28.6667 53.0689V41.5064H16.7917C16.5817 41.5064 16.3803 41.4251 16.2319 41.2806C16.0834 41.136 16 40.94 16 40.7355C16 40.5311 16.0834 40.335 16.2319 40.1905C16.3803 40.0459 16.5817 39.9647 16.7917 39.9647H29.4583C29.6683 39.9647 29.8697 40.0459 30.0181 40.1905C30.1666 40.335 30.25 40.5311 30.25 40.7355V53.0689C30.25 53.2733 30.1666 53.4694 30.0181 53.6139C29.8697 53.7585 29.6683 53.8397 29.4583 53.8397Z" fill="white"/>
</g>
<defs>
<clipPath id="clip0_88_3">
<rect width="38" height="37" fill="white" transform="translate(16 16.8398)"/>
</clipPath>
</defs>
</svg>
