<svg width="70" height="71" viewBox="0 0 70 71" fill="none" xmlns="http://www.w3.org/2000/svg">
<circle cx="35" cy="35.3398" r="35" fill="#F48120"/>
<path d="M53.0541 22.2804C53.5302 21.589 53.749 20.7527 53.6726 19.9167C53.5961 19.0808 53.2292 18.298 52.6357 17.7044C52.0421 17.1109 51.2593 16.744 50.4234 16.6675C49.5874 16.5911 48.7511 16.8099 48.0597 17.286C44.7333 14.8802 40.8069 13.44 36.7139 13.1245C32.6208 12.809 28.5201 13.6303 24.8643 15.4979C21.2085 17.3655 18.1396 20.2068 15.9964 23.7081C13.8532 27.2095 12.7189 31.2349 12.7188 35.3401C12.7188 39.7468 14.0257 44.0546 16.474 47.7187C18.9223 51.3827 22.4021 54.2385 26.4734 55.9249C30.5447 57.6112 35.0247 58.0525 39.3467 57.1928C43.6688 56.3331 47.6389 54.2111 50.755 51.0951C54.5006 47.3493 56.7893 42.3916 57.2107 37.1111C57.632 31.8306 56.1584 26.5728 53.0541 22.2804ZM50.0938 18.0901C50.5202 18.0901 50.9371 18.2165 51.2917 18.4535C51.6463 18.6904 51.9227 19.0272 52.0859 19.4212C52.2491 19.8152 52.2918 20.2487 52.2086 20.667C52.1254 21.0853 51.92 21.4695 51.6184 21.771C51.3169 22.0726 50.9327 22.278 50.5144 22.3612C50.0961 22.4444 49.6626 22.4017 49.2686 22.2385C48.8746 22.0753 48.5378 21.7989 48.3009 21.4443C48.064 21.0897 47.9375 20.6728 47.9375 20.2463C47.9383 19.6747 48.1657 19.1267 48.5699 18.7225C48.9741 18.3183 49.5221 18.0908 50.0938 18.0901ZM49.7389 50.079C45.8299 53.9879 40.5281 56.184 35 56.184C29.4719 56.184 24.1701 53.9879 20.2611 50.079C16.3521 46.17 14.1561 40.8682 14.1561 35.3401C14.1561 29.8119 16.3521 24.5102 20.2611 20.6012C23.741 17.1218 28.3395 14.9856 33.2428 14.5706C38.1462 14.1556 43.0383 15.4885 47.0534 18.3336C46.619 19.0226 46.4317 19.8388 46.5223 20.6482C46.6128 21.4577 46.9759 22.2123 47.5518 22.7883C48.1278 23.3642 48.8824 23.7273 49.6919 23.8178C50.5013 23.9084 51.3175 23.7211 52.0065 23.2866C54.8515 27.3018 56.1845 32.1939 55.7695 37.0973C55.3545 42.0006 53.2182 46.5991 49.7389 50.079Z" fill="white"/>
<path d="M35 20.9648C27.074 20.9648 20.625 27.4138 20.625 35.3398C20.6216 38.4227 21.6146 41.4241 23.456 43.8966C23.4816 43.9427 23.5123 43.9858 23.5476 44.025C23.5566 44.0358 23.5665 44.0448 23.5755 44.0538C24.9152 45.8136 26.6434 47.2401 28.6252 48.2221C30.607 49.2041 32.7889 49.7149 35.0007 49.7148C37.2124 49.7147 39.3943 49.2037 41.376 48.2216C43.3578 47.2395 45.0858 45.8128 46.4254 44.0529C46.4344 44.0439 46.4443 44.0349 46.4524 44.025C46.4877 43.9858 46.5184 43.9427 46.544 43.8966C48.3854 41.4241 49.3784 38.4227 49.375 35.3398C49.375 27.4138 42.926 20.9648 35 20.9648ZM31.0622 23.016C30.4549 23.7307 29.9396 24.5188 29.5285 25.3618C28.9856 26.4704 28.5581 27.6319 28.2527 28.828C27.1178 28.3832 26.0506 27.7821 25.0822 27.0419C26.6552 25.162 28.7286 23.7662 31.0622 23.016ZM24.2206 28.1937C25.3493 29.0589 26.5984 29.7545 27.9284 30.2583C27.6528 31.6972 27.4968 33.1564 27.4621 34.6211H22.0832C22.2084 32.3261 22.9465 30.1066 24.2206 28.1937ZM24.2268 42.495C22.9488 40.5802 22.2084 38.3573 22.0832 36.0586H27.4621C27.4967 37.5275 27.6536 38.9911 27.9311 40.434C26.6026 40.9371 25.3547 41.6314 24.2268 42.495ZM25.0893 43.6459C26.0567 42.9077 27.1224 42.3081 28.2554 41.8643C28.5609 43.0559 28.9874 44.2131 29.5285 45.3179C29.9396 46.1609 30.4549 46.949 31.0622 47.6637C28.7321 46.9147 26.6614 45.5218 25.0893 43.6459ZM34.2813 48.183C32.2894 47.6628 30.5581 45.0169 29.6247 41.3854C31.1384 40.9358 32.7031 40.6801 34.2813 40.6245V48.183ZM34.2813 39.1861C32.5983 39.2367 30.9285 39.499 29.3111 39.9668C29.0719 38.6769 28.9346 37.3701 28.9005 36.0586H34.2813V39.1861ZM34.2813 34.6211H28.9005C28.9347 33.3139 29.0711 32.0114 29.3084 30.7255C30.9266 31.194 32.5974 31.4566 34.2813 31.5071V34.6211ZM34.2813 30.0687C32.7022 30.0132 31.1365 29.7572 29.622 29.3068C30.5545 25.6691 32.2876 23.0178 34.2813 22.4967V30.0687ZM45.7795 28.1937C47.0536 30.1066 47.7916 32.3261 47.9168 34.6211H42.5379C42.5032 33.1564 42.3472 31.6972 42.0716 30.2583C43.4016 29.7545 44.6508 29.0589 45.7795 28.1937ZM44.9179 27.0419C43.9494 27.7821 42.8822 28.3832 41.7473 28.828C41.4419 27.6319 41.0144 26.4704 40.4715 25.3618C40.0604 24.5188 39.5452 23.7307 38.9379 23.016C41.2714 23.7662 43.3448 25.162 44.9179 27.0419ZM35.7188 22.4967C37.7124 23.0178 39.4455 25.6691 40.3781 29.3068C38.8635 29.7572 37.2979 30.0132 35.7188 30.0687V22.4967ZM35.7188 31.5071C37.4026 31.4566 39.0734 31.194 40.6916 30.7255C40.9289 32.0114 41.0653 33.3139 41.0995 34.6211H35.7188V31.5071ZM35.7188 36.0586H41.0995C41.0654 37.3701 40.9281 38.6769 40.6889 39.9668C39.0715 39.499 37.4017 39.2367 35.7188 39.1861V36.0586ZM35.7188 48.183V40.6245C37.2969 40.6801 38.8616 40.9358 40.3754 41.3854C39.4419 45.0169 37.7106 47.6628 35.7188 48.183ZM38.9379 47.6637C39.5452 46.949 40.0604 46.1609 40.4715 45.3179C41.0126 44.2131 41.4392 43.0559 41.7446 41.8643C42.8776 42.3081 43.9433 42.9077 44.9107 43.6459C43.3386 45.5218 41.2679 46.9147 38.9379 47.6637ZM45.7732 42.495C44.6453 41.6314 43.3974 40.9371 42.0689 40.434C42.3464 38.9911 42.5033 37.5275 42.5379 36.0586H47.9168C47.7916 38.3573 47.0512 40.5802 45.7732 42.495Z" fill="white"/>
</svg>
