<svg width="33" height="34" viewBox="0 0 33 34" fill="none" xmlns="http://www.w3.org/2000/svg">
<path d="M31.0664 1.4248H1.93359C0.86741 1.4248 0 2.29221 0 3.3584V29.9131C0 30.9793 0.86741 31.8467 1.93359 31.8467H13.6078C13.9637 31.8467 14.2523 31.5581 14.2523 31.2021C14.2523 30.8462 13.9637 30.5576 13.6078 30.5576H1.93359C1.5782 30.5576 1.28906 30.2685 1.28906 29.9131V7.87012H31.7109V29.9131C31.7109 30.2685 31.4218 30.5576 31.0664 30.5576H19.4086C19.0527 30.5576 18.764 30.8462 18.764 31.2021C18.764 31.5581 19.0527 31.8467 19.4086 31.8467H31.0664C32.1326 31.8467 33 30.9793 33 29.9131V3.3584C33 2.29221 32.1326 1.4248 31.0664 1.4248ZM1.93359 2.71387H31.0664C31.4218 2.71387 31.7109 3.003 31.7109 3.3584V6.58105H1.28906V3.3584C1.28906 3.003 1.5782 2.71387 1.93359 2.71387Z" fill="black"/>
<path d="M14.957 5.29199H28.8789C29.2348 5.29199 29.5234 5.00344 29.5234 4.64746C29.5234 4.29149 29.2348 4.00293 28.8789 4.00293H14.957C14.6011 4.00293 14.3125 4.29149 14.3125 4.64746C14.3125 5.00344 14.6011 5.29199 14.957 5.29199ZM6.96484 5.29199C7.13436 5.29199 7.30064 5.22303 7.42046 5.10314C7.54041 4.98326 7.60938 4.81697 7.60938 4.64746C7.60938 4.47795 7.54041 4.31166 7.42046 4.19178C7.30064 4.07189 7.13436 4.00293 6.96484 4.00293C6.79533 4.00293 6.62904 4.07189 6.50916 4.19178C6.38921 4.31166 6.32031 4.47795 6.32031 4.64746C6.32031 4.81697 6.38921 4.98326 6.50916 5.10314C6.62911 5.22303 6.79533 5.29199 6.96484 5.29199ZM4.12891 5.29199C4.29842 5.29199 4.46471 5.22303 4.58453 5.10314C4.70447 4.98326 4.77344 4.81697 4.77344 4.64746C4.77344 4.47795 4.70447 4.31166 4.58453 4.19178C4.46471 4.07189 4.29842 4.00293 4.12891 4.00293C3.95939 4.00293 3.79311 4.07189 3.67322 4.19178C3.55328 4.31166 3.48438 4.47795 3.48438 4.64746C3.48438 4.81697 3.55328 4.98326 3.67322 5.10314C3.79317 5.22303 3.95939 5.29199 4.12891 5.29199ZM9.80078 5.29199C9.97029 5.29199 10.1366 5.22303 10.2564 5.10314C10.3763 4.98326 10.4453 4.81697 10.4453 4.64746C10.4453 4.47795 10.3763 4.31166 10.2564 4.19178C10.1366 4.07189 9.97029 4.00293 9.80078 4.00293C9.63127 4.00293 9.46498 4.07189 9.3451 4.19178C9.22521 4.31166 9.15625 4.47795 9.15625 4.64746C9.15625 4.81697 9.22515 4.98326 9.3451 5.10314C9.46504 5.22303 9.63127 5.29199 9.80078 5.29199ZM4.12891 26.4046C3.773 26.4046 3.48438 26.6932 3.48438 27.0492C3.48438 27.4052 3.773 27.6937 4.12891 27.6937H8.49664C8.85255 27.6937 9.14117 27.4052 9.14117 27.0492C9.14117 26.6932 8.85255 26.4046 8.49664 26.4046H4.12891ZM3.48438 17.7679C3.48438 18.1239 3.773 18.4125 4.12891 18.4125H11.7296C12.0855 18.4125 12.3741 18.1239 12.3741 17.7679C12.3741 17.412 12.0855 17.1234 11.7296 17.1234H4.12891C3.773 17.1234 3.48438 17.412 3.48438 17.7679ZM13.921 17.7679C13.921 18.1239 14.2096 18.4125 14.5655 18.4125H21.2167C21.5726 18.4125 21.8612 18.1239 21.8612 17.7679C21.8612 17.412 21.5726 17.1234 21.2167 17.1234H14.5655C14.2096 17.1234 13.921 17.412 13.921 17.7679ZM28.8789 18.4125C29.2348 18.4125 29.5234 18.1239 29.5234 17.7679C29.5234 17.412 29.2348 17.1234 28.8789 17.1234H24.0834C23.7275 17.1234 23.4389 17.412 23.4389 17.7679C23.4389 18.1239 23.7275 18.4125 24.0834 18.4125H28.8789ZM4.12891 21.5062H16.6482C17.0041 21.5062 17.2927 21.2177 17.2927 20.8617C17.2927 20.5057 17.0041 20.2171 16.6482 20.2171H4.12891C3.773 20.2171 3.48438 20.5057 3.48438 20.8617C3.48438 21.2177 3.773 21.5062 4.12891 21.5062ZM18.8396 20.8617C18.8396 21.2177 19.1282 21.5062 19.4842 21.5062H28.8789C29.2348 21.5062 29.5234 21.2177 29.5234 20.8617C29.5234 20.5057 29.2348 20.2171 28.8789 20.2171H19.4842C19.1282 20.2171 18.8396 20.5057 18.8396 20.8617ZM29.5234 23.9554C29.5234 23.5995 29.2348 23.3109 28.8789 23.3109H4.12891C3.773 23.3109 3.48438 23.5995 3.48438 23.9554C3.48438 24.3114 3.773 24.6 4.12891 24.6H28.8789C29.2348 24.6 29.5234 24.3114 29.5234 23.9554ZM11.3326 27.6937H28.8789C29.2348 27.6937 29.5234 27.4052 29.5234 27.0492C29.5234 26.6932 29.2348 26.4046 28.8789 26.4046H11.3326C10.9767 26.4046 10.688 26.6932 10.688 27.0492C10.688 27.4052 10.9766 27.6937 11.3326 27.6937ZM15.8901 15.2544C16.1463 15.2544 16.3887 15.1006 16.4891 14.8479L17.7709 11.6253C17.9025 11.2945 17.741 10.9197 17.4102 10.7882C17.0797 10.6566 16.7047 10.8181 16.5731 11.1488L15.2913 14.3715C15.1598 14.7023 15.3213 15.0771 15.6521 15.2086C15.7278 15.2389 15.8085 15.2544 15.8901 15.2544ZM19.6849 15.013C19.7581 15.0555 19.839 15.0831 19.9229 15.0943C20.0068 15.1055 20.0921 15.1 20.1739 15.0782C20.2557 15.0564 20.3324 15.0187 20.3996 14.9673C20.4669 14.9158 20.5233 14.8516 20.5657 14.7783L21.4264 13.2924C21.4842 13.1925 21.5142 13.079 21.5132 12.9637C21.5122 12.8483 21.4802 12.7354 21.4206 12.6366L20.5599 11.2089C20.3761 10.904 19.98 10.8059 19.6751 10.9896C19.3703 11.1735 19.2722 11.5696 19.4559 11.8744L20.1201 12.9758L19.4502 14.1322C19.2718 14.4402 19.3768 14.8345 19.6849 15.013ZM13.3327 10.8352C13.0278 10.6513 12.6316 10.7495 12.4479 11.0544L11.5872 12.482C11.5276 12.5808 11.4957 12.6938 11.4947 12.8091C11.4936 12.9245 11.5236 13.038 11.5814 13.1378L12.4421 14.6238C12.4845 14.6971 12.5409 14.7613 12.6082 14.8127C12.6754 14.8642 12.7521 14.9019 12.8339 14.9237C12.9157 14.9455 13.001 14.9509 13.0849 14.9398C13.1688 14.9286 13.2497 14.9009 13.323 14.8584C13.6309 14.68 13.736 14.2857 13.5576 13.9776L12.8878 12.8213L13.5518 11.7198C13.7356 11.415 13.6375 11.0189 13.3327 10.8352ZM16.5039 30.5576C16.3344 30.5576 16.1681 30.6266 16.0482 30.7465C15.9283 30.8663 15.8594 31.0326 15.8594 31.2021C15.8594 31.3717 15.9283 31.538 16.0482 31.6578C16.1682 31.7777 16.3344 31.8467 16.5039 31.8467C16.6734 31.8467 16.8397 31.7777 16.9595 31.6578C17.0794 31.538 17.1484 31.3717 17.1484 31.2021C17.1484 31.0326 17.0795 30.8663 16.9595 30.7465C16.8384 30.626 16.6747 30.5582 16.5039 30.5576Z" fill="black"/>
</svg>
