<svg width="71" height="71" viewBox="0 0 71 71" fill="none" xmlns="http://www.w3.org/2000/svg">
<circle cx="35.4922" cy="35.7158" r="35" fill="#F48120"/>
<g clip-path="url(#clip0_30_5718)">
<path d="M51.0163 37.6264V35.7281C51.0163 35.5685 50.9529 35.4154 50.84 35.3026C50.7272 35.1897 50.5741 35.1263 50.4145 35.1263C50.2549 35.1263 50.1018 35.1897 49.989 35.3026C49.8761 35.4154 49.8127 35.5685 49.8127 35.7281V37.1306C48.9095 36.8337 47.9647 36.6827 47.014 36.6833C46.9439 36.6833 46.8733 36.6849 46.8027 36.6865V28.2502C46.8027 28.0906 46.7393 27.9376 46.6264 27.8247C46.5135 27.7118 46.3605 27.6484 46.2009 27.6484H45.9627L48.3076 25.1555L50.6526 27.6484H50.4144C50.2548 27.6484 50.1018 27.7118 49.9889 27.8247C49.876 27.9376 49.8126 28.0906 49.8126 28.2502V33.3796C49.8126 33.712 50.082 33.9814 50.4144 33.9814C50.7468 33.9814 51.0162 33.712 51.0162 33.3796V28.852H52.0447C52.5562 28.869 52.8458 28.1988 52.4831 27.838L48.746 23.865C48.5203 23.6146 48.095 23.6146 47.8694 23.865L44.1323 27.838C43.7695 28.1989 44.0593 28.869 44.5706 28.852H45.5992V33.3667C44.8233 32.061 43.7228 30.9783 42.4047 30.2238V22.9126H43.4332C43.9447 22.9296 44.2342 22.2593 43.8716 21.8986L40.1345 17.9257C39.9087 17.6753 39.4835 17.6753 39.2579 17.9257L35.5208 21.8986C35.1579 22.2594 35.4477 22.9297 35.9591 22.9126H36.9876V29.1397C35.8651 29.2778 34.7801 29.633 33.7932 30.1856V27.1531H34.8218C35.3332 27.1701 35.6228 26.4998 35.2601 26.139L31.523 22.1661C31.2973 21.9157 30.8721 21.9157 30.6464 22.1661L26.9093 26.139C26.5466 26.4999 26.8363 27.17 27.3477 27.1531H28.3762V35.4048C28.0893 35.3727 27.8008 35.3564 27.5121 35.3562C26.7216 35.3557 25.9357 35.4763 25.1817 35.7138V21.9669H26.2103C26.7217 21.9839 27.0113 21.3137 26.6486 20.9529L22.9114 16.9798C22.6857 16.7294 22.2604 16.7294 22.0347 16.9798L18.2976 20.9528C17.9347 21.3137 18.2245 21.9838 18.7359 21.9668H19.7644V26.9028C19.7644 27.0624 19.8278 27.2154 19.9407 27.3283C20.0536 27.4411 20.2066 27.5045 20.3662 27.5045C20.5258 27.5045 20.6789 27.4411 20.7918 27.3283C20.9046 27.2154 20.968 27.0624 20.968 26.9028V21.3651C20.968 21.2861 20.9525 21.2078 20.9222 21.1348C20.892 21.0618 20.8477 20.9954 20.7918 20.9396C20.7359 20.8837 20.6696 20.8394 20.5965 20.8091C20.5235 20.7789 20.4453 20.7633 20.3662 20.7633H20.1281L22.473 18.2703L24.8179 20.7633H24.5798C24.4202 20.7633 24.2671 20.8267 24.1543 20.9396C24.0414 21.0524 23.978 21.2055 23.978 21.3651V36.2079C22.7493 36.8383 21.7096 37.7866 20.9679 38.9435V29.3099C20.9679 29.2309 20.9523 29.1526 20.922 29.0796C20.8918 29.0066 20.8475 28.9403 20.7916 28.8844C20.7357 28.8285 20.6694 28.7842 20.5964 28.7539C20.5234 28.7237 20.4451 28.7081 20.3661 28.7081C20.287 28.7081 20.2088 28.7237 20.1358 28.7539C20.0628 28.7842 19.9964 28.8285 19.9405 28.8844C19.8847 28.9403 19.8403 29.0066 19.8101 29.0796C19.7798 29.1526 19.7643 29.2309 19.7643 29.3099V42.5655C19.7624 42.5928 19.76 42.6201 19.7583 42.6475C17.0076 43.2489 14.9922 45.7105 14.9922 48.5728C14.9922 51.918 17.7138 54.6397 21.0591 54.6397H39.5643C39.6433 54.6397 39.7216 54.6241 39.7946 54.5939C39.8676 54.5636 39.934 54.5193 39.9898 54.4634C40.0457 54.4075 40.0901 54.3412 40.1203 54.2682C40.1505 54.1952 40.1661 54.1169 40.1661 54.0379C40.1661 53.9588 40.1505 53.8806 40.1203 53.8076C40.0901 53.7346 40.0457 53.6682 39.9898 53.6123C39.934 53.5565 39.8676 53.5121 39.7946 53.4819C39.7216 53.4517 39.6433 53.4361 39.5643 53.4361H21.0591C18.3774 53.4361 16.1957 51.2544 16.1957 48.5727C16.1957 46.1386 18.0136 44.0661 20.4243 43.752C20.5696 43.7331 20.703 43.6618 20.7994 43.5515C20.8959 43.4412 20.9488 43.2995 20.9483 43.153C20.9482 43.1415 20.948 43.13 20.9475 43.1185C20.9504 39.5013 23.8941 36.5595 27.5119 36.5595C28.3057 36.5588 29.093 36.7027 29.8353 36.984C30.1754 37.1225 30.5875 36.887 30.6414 36.5239C31.2682 32.9037 34.3932 30.2761 38.0719 30.2761C42.055 30.2761 45.3618 33.388 45.6004 37.3606C45.6611 38.1091 46.504 37.8832 47.0141 37.8869C51.3011 37.8869 54.7888 41.3746 54.7888 45.6615C54.7888 49.9484 51.3011 53.4362 47.0141 53.4362H41.9713C41.8117 53.4362 41.6586 53.4996 41.5458 53.6124C41.4329 53.7253 41.3695 53.8783 41.3695 54.038C41.3695 54.1976 41.4329 54.3506 41.5458 54.4635C41.6586 54.5763 41.8117 54.6397 41.9713 54.6397H47.014C51.9646 54.6397 55.9922 50.6121 55.9922 45.6615C55.9922 42.1483 53.9635 39.1004 51.0163 37.6264ZM39.6961 19.2162L42.0411 21.7091H41.803C41.6434 21.7091 41.4903 21.7725 41.3775 21.8854C41.2646 21.9982 41.2012 22.1513 41.2012 22.3109V29.6518C40.2628 29.2912 39.2483 29.0884 38.1911 29.0742V22.3108C38.1911 22.1512 38.1277 21.9982 38.0149 21.8853C37.902 21.7725 37.749 21.709 37.5894 21.709H37.3512L39.6961 19.2162ZM29.6001 35.6414C29.5933 35.6394 29.5863 35.6378 29.5795 35.636V26.5512C29.5795 26.3916 29.5161 26.2385 29.4033 26.1257C29.2904 26.0128 29.1374 25.9494 28.9778 25.9494H28.7397L31.0846 23.4565L33.4295 25.9494H33.1915C33.0319 25.9494 32.8788 26.0128 32.7659 26.1257C32.6531 26.2385 32.5897 26.3916 32.5897 26.5512V30.9976C31.1501 32.154 30.0789 33.7633 29.6001 35.6414Z" fill="white"/>
<path d="M37.6651 42.5216C37.7441 42.5216 37.8223 42.506 37.8954 42.4758C37.9684 42.4455 38.0347 42.4012 38.0906 42.3453C38.1465 42.2895 38.1908 42.2231 38.221 42.1501C38.2513 42.0771 38.2668 41.9988 38.2668 41.9198C38.2668 41.8408 38.2513 41.7625 38.221 41.6895C38.1908 41.6165 38.1465 41.5502 38.0906 41.4943C38.0347 41.4384 37.9684 41.3941 37.8954 41.3638C37.8223 41.3336 37.7441 41.318 37.6651 41.318H34.8472C34.6876 41.318 34.5345 41.3814 34.4217 41.4943C34.3088 41.6071 34.2454 41.7602 34.2454 41.9198V48.6075C34.2454 48.7671 34.3088 48.9202 34.4217 49.0331C34.5345 49.1459 34.6876 49.2093 34.8472 49.2093H37.6651C37.8247 49.2093 37.9777 49.1459 38.0906 49.0331C38.2034 48.9202 38.2668 48.7671 38.2668 48.6075C38.2668 48.4479 38.2034 48.2949 38.0906 48.182C37.9777 48.0692 37.8247 48.0058 37.6651 48.0058H35.4489V45.8654H37.4573C37.6169 45.8654 37.7699 45.802 37.8828 45.6892C37.9956 45.5763 38.059 45.4232 38.059 45.2636C38.059 45.104 37.9956 44.951 37.8828 44.8381C37.7699 44.7253 37.6169 44.6618 37.4573 44.6618H35.4489V42.5215H37.6651V42.5216ZM30.5319 48.0366C29.7939 48.0366 29.0813 47.7364 28.6258 47.2338C28.5187 47.1156 28.3689 47.0447 28.2095 47.0369C28.0501 47.029 27.8941 47.0848 27.7758 47.1919C27.6576 47.2991 27.5867 47.4489 27.5789 47.6083C27.571 47.7677 27.6268 47.9237 27.7339 48.0419C28.4138 48.7922 29.4597 49.2402 30.5318 49.2402C31.8158 49.2402 32.9344 48.3981 33.1338 47.2814C33.3637 45.9932 32.3508 45.1303 31.3262 44.7524C30.4576 44.432 29.652 44.0822 29.4486 43.993C29.2329 43.8349 29.1283 43.5825 29.1675 43.3094C29.2168 42.9656 29.4809 42.6898 29.874 42.5714C30.9568 42.245 31.9353 43.0297 31.9546 43.0455C32.0772 43.146 32.2346 43.1941 32.3924 43.1792C32.5503 43.1644 32.6959 43.0879 32.7977 42.9662C32.8994 42.8446 32.9491 42.6878 32.9358 42.5298C32.9226 42.3718 32.8475 42.2254 32.7269 42.1224C32.6671 42.0723 31.2469 40.9011 29.5268 41.419C28.6862 41.6723 28.092 42.3311 27.9761 43.1384C27.8682 43.8902 28.1937 44.613 28.8256 45.025C28.8522 45.0424 28.8802 45.0576 28.9092 45.0705C28.9479 45.0877 29.8703 45.4983 30.9095 45.8816C31.6557 46.1568 32.0345 46.59 31.9488 47.07C31.8653 47.5384 31.3402 48.0366 30.5319 48.0366ZM46.8121 45.2636C46.8121 43.071 45.0282 41.2873 42.8357 41.2873C40.6431 41.2873 38.8593 43.0711 38.8593 45.2636C38.8593 47.4563 40.6431 49.24 42.8357 49.24C45.0282 49.2401 46.8121 47.4563 46.8121 45.2636ZM40.0628 45.2636C40.0628 43.7346 41.3067 42.4908 42.8356 42.4908C44.3646 42.4908 45.6085 43.7346 45.6085 45.2636C45.6085 46.7926 44.3646 48.0365 42.8356 48.0365C41.3067 48.0366 40.0628 46.7926 40.0628 45.2636Z" fill="white"/>
</g>
<defs>
<clipPath id="clip0_30_5718">
<rect width="41" height="41" fill="white" transform="translate(14.9922 15.2158)"/>
</clipPath>
</defs>
</svg>
