<svg width="80" height="80" viewBox="0 0 80 80" fill="none" xmlns="http://www.w3.org/2000/svg">
<g clip-path="url(#clip0_1_2)">
<mask id="mask0_1_2" style="mask-type:luminance" maskUnits="userSpaceOnUse" x="0" y="0" width="80" height="80">
<path d="M80 0H0V80H80V0Z" fill="white"/>
</mask>
<g mask="url(#mask0_1_2)">
<path d="M40 80C62.0914 80 80 62.0914 80 40C80 17.9086 62.0914 0 40 0C17.9086 0 0 17.9086 0 40C0 62.0914 17.9086 80 40 80Z" fill="#FFF2E8"/>
<path d="M69 19H11C10.7348 19 10.4804 19.1054 10.2929 19.2929C10.1054 19.4804 10 19.7348 10 20V28C10 28.2652 10.1054 28.5196 10.2929 28.7071C10.4804 28.8946 10.7348 29 11 29H12V64C12 64.2652 12.1054 64.5196 12.2929 64.7071C12.4804 64.8946 12.7348 65 13 65H53V63H14V29H33V38C33 38.181 33.0491 38.3587 33.1421 38.514C33.2352 38.6693 33.3686 38.7965 33.5282 38.8819C33.6879 38.9673 33.8677 39.0078 34.0485 38.999C34.2293 38.9902 34.4044 38.9325 34.555 38.832L37 37.2L39.446 38.83C39.6103 38.9396 39.8035 38.9981 40.001 38.9981C40.1985 38.9981 40.3917 38.9396 40.556 38.83L43 37.2L45.445 38.83C45.5955 38.9304 45.7703 38.9881 45.951 38.9969C46.1316 39.0058 46.3113 38.9655 46.4709 38.8803C46.6305 38.7952 46.7639 38.6683 46.8571 38.5133C46.9503 38.3583 46.9997 38.1809 47 38V29H66V63H59.032V65H67C67.2652 65 67.5196 64.8946 67.7071 64.7071C67.8946 64.5196 68 64.2652 68 64V29H69C69.2652 29 69.5196 28.8946 69.7071 28.7071C69.8946 28.5196 70 28.2652 70 28V20C70 19.7348 69.8946 19.4804 69.7071 19.2929C69.5196 19.1054 69.2652 19 69 19ZM45 21V27H35V21H45ZM13 27H12V21H33V27H13ZM45 36.132L43.555 35.168C43.3907 35.0584 43.1975 34.9999 43 34.9999C42.8025 34.9999 42.6093 35.0584 42.445 35.168L40 36.8L37.554 35.17C37.3897 35.0604 37.1965 35.0019 36.999 35.0019C36.8015 35.0019 36.6083 35.0604 36.444 35.17L35 36.132V29H45V36.132ZM68 27H47V21H68V27Z" fill="#F48120"/>
<path d="M57.032 63H55V65H57.032V63Z" fill="#F48120"/>
<path d="M48 58H25C24.7348 58 24.4804 58.1054 24.2929 58.2929C24.1054 58.4804 24 58.7348 24 59C24 59.2652 24.1054 59.5196 24.2929 59.7071C24.4804 59.8946 24.7348 60 25 60H48C50.1217 60 52.1566 59.1571 53.6569 57.6569C55.1571 56.1566 56 54.1217 56 52C56 49.8783 55.1571 47.8434 53.6569 46.3431C52.1566 44.8429 50.1217 44 48 44H27L28.6 42.8C28.7051 42.7212 28.7936 42.6225 28.8605 42.5095C28.9274 42.3965 28.9714 42.2714 28.99 42.1414C29.0085 42.0114 29.0013 41.879 28.9687 41.7518C28.9361 41.6246 28.8788 41.5051 28.8 41.4C28.7212 41.2949 28.6225 41.2064 28.5095 41.1395C28.3965 41.0726 28.2714 41.0286 28.1414 41.0101C28.0114 40.9915 27.879 40.9987 27.7518 41.0313C27.6246 41.0639 27.5051 41.1212 27.4 41.2L23.4 44.2C23.2758 44.2931 23.175 44.4139 23.1056 44.5528C23.0361 44.6916 23 44.8448 23 45C23 45.1552 23.0361 45.3084 23.1056 45.4472C23.175 45.5861 23.2758 45.7069 23.4 45.8L27.4 48.8C27.6122 48.9591 27.8789 49.0275 28.1414 48.9899C28.404 48.9524 28.6409 48.8122 28.8 48.6C28.9591 48.3878 29.0275 48.1211 28.99 47.8586C28.9524 47.596 28.8122 47.3591 28.6 47.2L27 46H48C49.5913 46 51.1174 46.6321 52.2426 47.7574C53.3679 48.8826 54 50.4087 54 52C54 53.5913 53.3679 55.1174 52.2426 56.2426C51.1174 57.3679 49.5913 58 48 58Z" fill="#F48120"/>
<path d="M20 31H16V33H20V31Z" fill="#F48120"/>
<path d="M64 31H60V33H64V31Z" fill="#F48120"/>
<path d="M27 35H16V37H27V35Z" fill="#F48120"/>
<path d="M64 35H53V37H64V35Z" fill="#F48120"/>
</g>
</g>
<defs>
<clipPath id="clip0_1_2">
<rect width="80" height="80" fill="white"/>
</clipPath>
</defs>
</svg>
