<svg width="31" height="30" viewBox="0 0 31 30" fill="none" xmlns="http://www.w3.org/2000/svg">
<path d="M17.7078 21.7195C17.668 21.5637 17.5727 21.4278 17.4398 21.3371C17.3069 21.2465 17.1455 21.2075 16.9859 21.2273C16.3983 21.2919 15.8076 21.3256 15.2164 21.3281C12.9303 21.3256 10.7385 20.4164 9.12201 18.7999C7.50548 17.1833 6.59623 14.9916 6.59375 12.7055V10.0641C6.59375 9.50835 6.81451 8.9754 7.20745 8.58245C7.6004 8.18951 8.13335 7.96875 8.68906 7.96875H22.3109C22.8666 7.96875 23.3996 8.18951 23.7925 8.58245C24.1855 8.9754 24.4062 9.50835 24.4062 10.0641V12.0492C24.4062 12.2233 24.4754 12.3902 24.5985 12.5133C24.7215 12.6363 24.8885 12.7055 25.0625 12.7055H26.0938C26.2678 12.7055 26.4347 12.6363 26.5578 12.5133C26.6809 12.3902 26.75 12.2233 26.75 12.0492V10.0641C26.75 8.88675 26.2823 7.75766 25.4498 6.92517C24.6173 6.09269 23.4882 5.625 22.3109 5.625H16.6719V3.46875C16.6719 3.2947 16.6027 3.12778 16.4797 3.00471C16.3566 2.88164 16.1897 2.8125 16.0156 2.8125H14.9844C14.8103 2.8125 14.6434 2.88164 14.5203 3.00471C14.3973 3.12778 14.3281 3.2947 14.3281 3.46875V5.625H8.68906C7.51175 5.625 6.38266 6.09269 5.55017 6.92517C4.71769 7.75766 4.25 8.88675 4.25 10.0641V12.7055C4.2531 15.613 5.40948 18.4005 7.46541 20.4565C9.52134 22.5124 12.3089 23.6688 15.2164 23.6719C15.9497 23.6702 16.6823 23.6248 17.4102 23.5359C17.5006 23.523 17.5873 23.4915 17.6649 23.4433C17.7425 23.395 17.8092 23.3312 17.8608 23.2558C17.9123 23.1805 17.9477 23.0952 17.9645 23.0054C17.9813 22.9156 17.9793 22.8233 17.9586 22.7344L17.7078 21.7195Z" fill="black"/>
<path d="M11.75 15C12.7855 15 13.625 14.1605 13.625 13.125C13.625 12.0895 12.7855 11.25 11.75 11.25C10.7145 11.25 9.875 12.0895 9.875 13.125C9.875 14.1605 10.7145 15 11.75 15Z" fill="black"/>
<path d="M19.25 15C20.2855 15 21.125 14.1605 21.125 13.125C21.125 12.0895 20.2855 11.25 19.25 11.25C18.2145 11.25 17.375 12.0895 17.375 13.125C17.375 14.1605 18.2145 15 19.25 15Z" fill="black"/>
<path d="M26.5963 21.8836L24.6088 20.8594L25.326 16.1977C25.339 16.114 25.3259 16.0283 25.2883 15.9524C25.2507 15.8765 25.1905 15.8142 25.116 15.7738C25.0415 15.7335 24.9564 15.7172 24.8723 15.7272C24.7882 15.7372 24.7093 15.773 24.6463 15.8297L19.6963 20.2828C19.6467 20.328 19.609 20.3847 19.5864 20.4479C19.5638 20.5111 19.5571 20.5789 19.5668 20.6453C19.5765 20.7117 19.6024 20.7747 19.6421 20.8288C19.6819 20.8829 19.7343 20.9264 19.7948 20.9555L21.7893 21.9047L21.0862 26.5031C21.0737 26.5861 21.0869 26.671 21.1242 26.7462C21.1614 26.8214 21.2209 26.8834 21.2945 26.9238C21.3681 26.9641 21.4523 26.981 21.5357 26.972C21.6192 26.963 21.6979 26.9286 21.7612 26.8734L26.683 22.5445C26.7306 22.5 26.7669 22.4448 26.7888 22.3834C26.8108 22.3221 26.8178 22.2564 26.8093 22.1918C26.8009 22.1272 26.7771 22.0656 26.7401 22.012C26.703 21.9584 26.6537 21.9144 26.5963 21.8836Z" fill="black"/>
</svg>
