<svg width="30" height="31" viewBox="0 0 30 31" fill="none" xmlns="http://www.w3.org/2000/svg">
<path d="M23.3992 11.0318C23.3993 9.91652 23.1774 8.81227 22.7462 7.78363C22.3151 6.755 21.6835 5.82257 20.8882 5.04063C20.0928 4.25871 19.1497 3.64301 18.1139 3.22944C17.0782 2.81586 15.9703 2.61273 14.8552 2.63185C12.7144 2.69551 10.676 3.56307 9.14606 5.06187C7.61612 6.56069 6.70679 8.58078 6.59914 10.7198C6.54797 12.1472 6.86161 13.5641 7.51042 14.8365C8.15924 16.1089 9.12181 17.1949 10.3071 17.9918C10.6412 18.209 10.9159 18.5059 11.1066 18.8557C11.2972 19.2056 11.3978 19.5974 11.3991 19.9958V21.8318H18.5992V19.9958C18.5992 19.5985 18.6979 19.2074 18.8864 18.8576C19.075 18.5078 19.3474 18.2103 19.6792 17.9918C20.8218 17.2251 21.7588 16.1894 22.4074 14.9759C23.0561 13.7623 23.3966 12.4079 23.3992 11.0318Z" stroke="BLACK" stroke-width="2.35887" stroke-linecap="round" stroke-linejoin="round"/>
<path d="M18.5984 25.4438C17.5598 26.2228 16.2967 26.6438 14.9984 26.6438C13.7002 26.6438 12.437 26.2228 11.3984 25.4438" stroke="BLACK" stroke-width="2.35887" stroke-linecap="round" stroke-linejoin="round"/>
</svg>
