<svg width="30" height="31" viewBox="0 0 30 31" fill="none" xmlns="http://www.w3.org/2000/svg">
<g clip-path="url(#clip0_1_75)">
<path d="M14.9995 30.2005C14.4051 30.2005 13.8454 29.9699 13.4245 29.5508L0.636035 16.7633C-0.229277 15.8942 -0.229277 14.4796 0.63416 13.6124L5.31885 8.92861C5.6076 8.63893 6.05197 8.57049 6.41572 8.7608C6.7776 8.95018 6.97635 9.3533 6.9051 9.75643C6.85729 10.0246 6.83572 10.2392 6.83572 10.4342C6.83572 12.4855 8.50447 14.1889 10.5567 14.1889C12.6107 14.1889 14.1098 12.4855 14.1098 10.4342C14.1098 8.38018 12.6107 6.71143 10.5567 6.71143C10.3645 6.71143 10.1507 6.73393 9.8826 6.7808C9.47572 6.8558 9.07635 6.65424 8.88697 6.29236C8.6976 5.92861 8.76604 5.48424 9.05479 5.19549L13.4226 0.826738C14.2682 -0.0151367 15.7317 -0.0132617 16.5735 0.824863L19.7713 4.02455C20.4388 1.94986 22.387 0.443301 24.6792 0.443301C27.5217 0.443301 29.8345 2.75705 29.8345 5.60049C29.8345 7.89361 28.3298 9.8408 26.2532 10.5074L29.3601 13.6124C30.2273 14.4824 30.2273 15.8961 29.361 16.7652L16.5745 29.5527C16.1517 29.9745 15.5929 30.2052 14.9985 30.2052L14.9995 30.2005ZM5.12291 11.7749L1.96166 14.9352C1.82572 15.0721 1.82572 15.2999 1.96354 15.4386L14.7473 28.2233C14.9263 28.4005 15.0679 28.4033 15.2507 28.2214L28.0345 15.4367C28.1713 15.298 28.1713 15.0739 28.0335 14.9342L23.5251 10.4286C23.2429 10.1464 23.1698 9.71611 23.3432 9.35705C23.5167 8.99799 23.8954 8.78518 24.2957 8.83486L24.4382 8.85361C24.517 8.86393 24.5957 8.87705 24.6782 8.87705C26.4876 8.87705 27.9585 7.40611 27.9585 5.59861C27.9585 3.7883 26.4867 2.31643 24.6782 2.31643C22.8698 2.31643 21.3988 3.78924 21.3988 5.59861C21.3988 5.67361 21.4101 5.74674 21.4204 5.81986L21.4401 5.98674C21.4823 6.38236 21.2713 6.76111 20.9123 6.93268C20.556 7.10236 20.1267 7.03018 19.8463 6.74893L15.2488 2.14861C15.0688 1.97049 14.9282 1.96861 14.7454 2.15049L11.9001 4.9958C14.3404 5.59955 15.9838 7.80736 15.9838 10.4314C15.9838 13.5167 13.642 16.0602 10.5557 16.0602C7.9326 16.0602 5.72572 14.2124 5.12291 11.7749Z" fill="black"/>
</g>
<defs>
<clipPath id="clip0_1_75">
<rect width="30" height="30" fill="white" transform="translate(0 0.195801)"/>
</clipPath>
</defs>
</svg>
