<svg width="25" height="25" viewBox="0 0 25 25" fill="none" xmlns="http://www.w3.org/2000/svg">
<path d="M12.5 2.34375C10.4913 2.34375 8.52768 2.9394 6.85749 4.05539C5.18731 5.17137 3.88556 6.75756 3.11685 8.61337C2.34815 10.4692 2.14702 12.5113 2.5389 14.4814C2.93079 16.4515 3.89807 18.2612 5.31845 19.6816C6.73883 21.1019 8.5485 22.0692 10.5186 22.4611C12.4887 22.853 14.5308 22.6519 16.3866 21.8832C18.2424 21.1145 19.8286 19.8127 20.9446 18.1425C22.0606 16.4723 22.6563 14.5087 22.6563 12.5C22.6532 9.80735 21.5821 7.22587 19.6781 5.32187C17.7741 3.41788 15.1927 2.34685 12.5 2.34375ZM18.5227 9.14453L10.757 16.957C10.6113 17.1037 10.4134 17.1867 10.2066 17.1877C9.99983 17.1888 9.80108 17.1078 9.65391 16.9625L6.48282 13.8375C6.34835 13.6898 6.27556 13.4963 6.27938 13.2966C6.28321 13.0969 6.36337 12.9062 6.50339 12.7638C6.64341 12.6214 6.83266 12.538 7.03225 12.5308C7.23184 12.5236 7.42662 12.5931 7.57657 12.725L10.1938 15.3031L17.4148 8.04688C17.4867 7.97208 17.5728 7.91235 17.6679 7.87116C17.7631 7.82996 17.8656 7.80814 17.9693 7.80696C18.073 7.80578 18.1759 7.82526 18.272 7.86427C18.3681 7.90328 18.4555 7.96103 18.5291 8.03417C18.6026 8.10731 18.6609 8.19435 18.7004 8.29024C18.74 8.38612 18.76 8.48892 18.7594 8.59265C18.7588 8.69637 18.7376 8.79893 18.6969 8.89435C18.6563 8.98978 18.597 9.07615 18.5227 9.14844V9.14453Z" fill="#F48120"/>
</svg>
