<svg width="55" height="55" viewBox="0 0 55 55" fill="none" xmlns="http://www.w3.org/2000/svg">
<circle cx="27.5" cy="27.5" r="27.5" fill="#F4F4F4"/>
<path fill-rule="evenodd" clip-rule="evenodd" d="M11.7219 29.2596H15.5777V22.117L12.9485 21.4125C11.729 23.5255 8.44679 22.1762 9.08039 19.8103C9.56469 18.0016 12.0099 17.679 12.9476 19.3004C13.1304 19.6169 13.2316 19.9803 13.2316 20.3561L16.2373 21.1615C16.486 21.2131 16.673 21.4336 16.673 21.6976V29.2595H18.5736V21.4857C18.5736 21.2372 18.7392 21.0274 18.9659 20.9604L20.7164 20.2615V16.0512L18.994 15.0567C17.2372 16.8215 14.4073 14.5655 15.6945 12.4755C16.9888 10.374 20.164 11.7984 19.5399 14.1128L21.4909 15.2393C21.6801 15.3255 21.8116 15.5163 21.8116 15.7377V19.8241L23.2836 19.2363V17.9871C23.2836 17.7748 23.4045 17.5907 23.5811 17.4999L26.8077 15.4404V12.152C24.4608 11.5199 24.8889 8 27.3553 8C29.8015 8 30.2631 11.5164 27.9029 12.152V15.4372L31.1962 17.5252C31.3603 17.6292 31.45 17.8062 31.4502 17.9871L31.4508 19.2363L32.9228 19.8241V15.7377C32.9228 15.5163 33.0543 15.3255 33.2435 15.2393L35.3784 14.0067C34.8881 11.7227 38.002 10.4051 39.2707 12.5092C40.2079 14.0634 38.7454 16.0998 36.8969 15.6047C36.5112 15.5014 36.154 15.288 35.876 14.9784L34.018 16.0512V20.2615L35.7685 20.9605C35.9952 21.0274 36.1608 21.2372 36.1608 21.4857V29.2596H38.0613V21.6977C38.0613 21.4336 38.2483 21.2132 38.497 21.1615L41.5559 20.3418C41.5585 19.9759 41.658 19.6176 41.8409 19.301C42.7834 17.6713 45.224 18.0065 45.7072 19.8104C46.343 22.1847 43.0405 23.5281 41.8319 21.4002L39.1565 22.1171V29.2596H43.0124C43.3148 29.2596 43.56 29.5048 43.56 29.8072V32.7912C43.56 33.0936 43.3148 33.3388 43.0124 33.3388H40.0954C39.8069 34.3821 39.3951 35.3734 38.8641 36.3096L40.9273 38.3728C41.1411 38.5866 41.1411 38.9333 40.9273 39.1471L36.7071 43.3672C36.4933 43.581 36.1466 43.581 35.9328 43.3672L33.8703 41.3046C32.9334 41.836 31.9428 42.2475 30.899 42.5361V45.4524C30.899 45.7548 30.6537 46 30.3514 46H24.3831C24.0807 46 23.8356 45.7548 23.8356 45.4524V42.5353C22.7921 42.2467 21.8012 41.8352 20.8647 41.304L18.8015 43.3672C18.5877 43.5811 18.2411 43.5811 18.0273 43.3672L13.8071 39.147C13.5933 38.9333 13.5933 38.5866 13.8071 38.3728L15.8697 36.3102C15.3384 35.3734 14.9269 34.3828 14.6382 33.339H11.722C11.4196 33.339 11.1744 33.0938 11.1744 32.7914V29.8072C11.1744 29.5048 11.4195 29.2596 11.7219 29.2596ZM19.6688 29.2596H23.2836V20.4108L19.6688 21.8543V29.2596ZM24.3788 29.2596H30.3555V18.2877L27.3546 16.3851L24.3788 18.2845L24.3788 29.2596ZM31.4507 29.2596H35.0655V21.8543L31.4507 20.4108V29.2596ZM42.4648 30.3548H36.7036C36.241 38.3654 26.4612 42.1275 20.754 36.4203C19.1821 34.8484 18.1672 32.7192 18.0307 30.3548H12.2695V32.2438H15.06C15.3064 32.2436 15.5302 32.4131 15.5905 32.663C16.7942 37.6429 18.5709 35.1576 14.9685 38.7599L18.4144 42.206L20.3892 40.2311C20.5633 40.0567 20.8411 40.0179 21.0608 40.152C25.4386 42.8241 24.9307 39.8195 24.9307 44.9049H29.8037V42.1143C29.8037 41.868 29.9731 41.6442 30.223 41.5839C35.2029 40.3802 32.7175 38.6035 36.32 42.2059L39.766 38.76L37.7912 36.7852C37.6167 36.6111 37.5779 36.3333 37.712 36.1136C40.3841 31.7358 37.3796 32.2436 42.4649 32.2436L42.4648 30.3548ZM35.6065 30.3548H19.1278C19.589 37.3939 28.1885 40.6635 33.206 35.646C34.5795 34.2725 35.4714 32.4169 35.6065 30.3548ZM20.9951 24.0324C21.7087 24.0324 22.6233 24.1984 22.6233 23.4848C22.6233 22.7711 21.7087 22.9372 20.9951 22.9372C20.2741 22.9372 20.2741 24.0324 20.9951 24.0324ZM20.9951 26.495C21.7087 26.495 22.6233 26.661 22.6233 25.9474C22.6233 25.2338 21.7087 25.3998 20.9951 25.3998C20.2741 25.3998 20.2741 26.495 20.9951 26.495ZM32.6561 24.0324C33.3698 24.0324 34.2843 24.1984 34.2843 23.4848C34.2843 22.7711 33.3697 22.9372 32.6561 22.9372C31.9351 22.9372 31.9351 24.0324 32.6561 24.0324ZM32.6561 26.495C33.3698 26.495 34.2843 26.661 34.2843 25.9474C34.2843 25.2338 33.3697 25.3998 32.6561 25.3998C31.9351 25.3998 31.9351 26.495 32.6561 26.495ZM28.0754 9.39204C27.1261 8.44556 25.6885 9.88591 26.636 10.8335C27.5811 11.7785 29.0221 10.3415 28.0754 9.39204ZM17.2371 12.5823C15.9422 12.9291 16.4708 14.8946 17.7646 14.5481C19.0524 14.2033 18.5362 12.2343 17.2371 12.5823ZM10.6114 19.4742C9.44244 20.149 10.4869 21.9176 11.6285 21.2387C11.8565 21.103 12.0284 20.8971 12.1028 20.62C12.3475 19.7093 11.3383 19.029 10.6114 19.4742ZM44.6506 20.0928C44.5051 19.5495 43.9497 19.2264 43.4014 19.3742C42.1101 19.7223 42.6369 21.6862 43.9314 21.3394C44.4741 21.194 44.7971 20.6395 44.6506 20.0928ZM38.3117 13.0316C37.6429 11.9405 35.8835 12.8523 36.5821 14.1107C37.1619 15.1553 39.0178 14.3295 38.3117 13.0316ZM25.6774 20.0318H29.0569C29.7778 20.0318 29.7778 18.9365 29.0569 18.9365H25.6774C24.9564 18.9365 24.9564 20.0318 25.6774 20.0318ZM25.6774 22.7455H29.0569C29.7778 22.7455 29.7778 21.6503 29.0569 21.6503H25.6774C24.9564 21.6503 24.9564 22.7455 25.6774 22.7455ZM25.6774 25.4593H29.0569C29.7778 25.4593 29.7778 24.3641 29.0569 24.3641H25.6774C24.9564 24.3641 24.9564 25.4593 25.6774 25.4593ZM25.6774 28.1731H29.0569C29.7778 28.1731 29.7778 27.0778 29.0569 27.0778H25.6774C24.9564 27.0778 24.9564 28.1731 25.6774 28.1731Z" fill="#F48102"/>
</svg>
