<svg width="80" height="80" viewBox="0 0 80 80" fill="none" xmlns="http://www.w3.org/2000/svg">
<path d="M40.0005 79.9999C62.0919 79.9999 80.0005 62.0913 80.0005 39.9999C80.0005 17.9085 62.0919 -6.10352e-05 40.0005 -6.10352e-05C17.9091 -6.10352e-05 0.000488281 17.9085 0.000488281 39.9999C0.000488281 62.0913 17.9091 79.9999 40.0005 79.9999Z" fill="#FFF2E8"/>
<path fill-rule="evenodd" clip-rule="evenodd" d="M57.9302 66.867H23.8775C22.2002 66.867 20.8394 65.5061 20.8394 63.8605V15.9462C20.8394 14.2372 22.2002 12.8763 23.8775 12.8763H57.9302C59.6392 12.8763 61 14.2372 61 15.9462V63.8605C61 65.5061 59.6392 66.867 57.9302 66.867ZM23.8775 14.4271C23.023 14.4271 22.3584 15.1233 22.3584 15.9462V63.8605C22.3584 64.6833 23.023 65.3479 23.8775 65.3479H57.9302C58.7531 65.3479 59.4493 64.6833 59.4493 63.8605V15.9462C59.4493 15.1233 58.7531 14.4271 57.9302 14.4271H23.8775Z" fill="#F48120"/>
<path fill-rule="evenodd" clip-rule="evenodd" d="M48.4992 44.1441H32.7704C32.3274 44.1441 31.9792 43.796 31.9792 43.353C31.9792 42.9099 32.3274 42.5618 32.7704 42.5618H48.4992C48.9107 42.5618 49.2904 42.9099 49.2904 43.353C49.2904 43.796 48.879 44.1441 48.4992 44.1441Z" fill="#F48120"/>
<path fill-rule="evenodd" clip-rule="evenodd" d="M53.4046 49.9673H27.865C27.422 49.9673 27.0739 49.6191 27.0739 49.1761C27.0739 48.733 27.422 48.3849 27.865 48.3849H53.4046C53.8476 48.3849 54.1958 48.733 54.1958 49.1761C54.1958 49.6191 53.8476 49.9673 53.4046 49.9673Z" fill="#F48120"/>
<path fill-rule="evenodd" clip-rule="evenodd" d="M53.4046 55.8221H27.865C27.422 55.8221 27.0739 55.4739 27.0739 55.0309C27.0739 54.5878 27.422 54.2397 27.865 54.2397H53.4046C53.8476 54.2397 54.1958 54.5878 54.1958 55.0309C54.1958 55.4739 53.8476 55.8221 53.4046 55.8221Z" fill="#F48120"/>
<path fill-rule="evenodd" clip-rule="evenodd" d="M53.4046 61.6452H27.865C27.422 61.6452 27.0739 61.2971 27.0739 60.854C27.0739 60.4109 27.422 60.0628 27.865 60.0628H53.4046C53.8476 60.0628 54.1958 60.4109 54.1958 60.854C54.1958 61.2971 53.8476 61.6452 53.4046 61.6452Z" fill="#F48120"/>
<path fill-rule="evenodd" clip-rule="evenodd" d="M35.4921 38.7007H30.9349C30.4918 38.7007 30.1437 38.3526 30.1437 37.9096V26.8962C30.1437 26.4532 30.4918 26.105 30.9349 26.105H35.4921C36.2833 26.105 36.8846 26.7063 36.8846 27.4975V37.245C36.8846 38.0678 36.2833 38.7007 35.4921 38.7007ZM31.6628 37.15H35.3655V27.6874H31.6628V37.15Z" fill="#F48120"/>
<path fill-rule="evenodd" clip-rule="evenodd" d="M48.2776 38.7008H37.8972C36.0617 38.7008 35.3654 37.34 35.3654 36.4538C35.3654 36.0108 35.7135 35.6626 36.1566 35.6626C36.5997 35.6626 36.8845 36.0108 36.9478 36.4222C36.9478 36.6754 37.106 37.1501 37.9605 37.1501H48.3409C48.9106 37.1501 48.9739 36.6754 48.9739 36.5488C48.9739 36.4222 48.9106 35.9475 48.3409 35.9475H43.5305C43.0874 35.9475 42.7393 35.5677 42.7393 35.1563C42.7393 34.7132 43.0874 34.3651 43.5305 34.3651H48.3093C48.7523 34.3651 49.0688 34.2701 49.227 34.1436C49.322 34.0486 49.3536 33.9537 49.3536 33.7954C49.3536 33.5106 49.1321 33.1308 48.7523 33.1308C48.3093 33.1308 47.9611 32.7827 47.9611 32.3397C47.9611 31.8966 48.3093 31.5485 48.7523 31.5485C49.1954 31.5485 49.4802 31.4535 49.7017 31.3269C49.7967 31.232 49.8916 31.137 49.8916 31.0105C49.8916 30.7573 49.6701 30.3459 49.2903 30.3459C48.8473 30.3459 48.4991 29.9977 48.4991 29.5547C48.4991 29.1433 48.8473 28.7635 49.2903 28.7635C49.6384 28.7635 49.8916 28.7002 50.0499 28.5736C50.1448 28.4787 50.2081 28.3521 50.2081 28.1938C50.2081 27.9406 50.0182 27.5609 49.5752 27.5609H44.4799C44.4483 27.5609 44.4166 27.5609 44.3533 27.5609C43.847 27.4659 43.2773 27.0229 43.2773 26.0101C43.2773 24.8392 43.4672 23.8581 43.6887 22.9403C43.9102 22.0542 44.1001 21.2314 44.1001 20.2503C44.1001 19.6806 43.9102 19.5224 43.8786 19.5224C43.752 19.4591 43.2773 19.7439 42.8342 20.6617C41.1569 24.1746 39.5745 26.2317 38.0238 26.833C37.1693 27.2128 36.8845 27.4026 36.8529 27.4659C36.7579 27.8141 36.3781 28.0672 35.9667 27.9723C35.5237 27.909 35.2705 27.4976 35.3654 27.1178C35.492 26.4532 36.0933 25.9152 37.4542 25.4088C38.0871 25.124 39.448 24.1113 41.4101 19.9971C42.0747 18.5413 43.1191 17.8134 44.1318 18.035C45.0179 18.1932 45.5559 19.0477 45.5876 20.2503C45.5876 21.3896 45.366 22.3707 45.1445 23.2885C44.923 24.1746 44.7647 24.9974 44.7647 26.0101H49.4802C50.8094 26.0101 51.6322 27.1495 51.6322 28.1938C51.6322 28.7635 51.4107 29.3015 50.9993 29.7129L50.936 29.7446C51.2208 30.0927 51.3474 30.5357 51.3474 30.9788C51.3474 31.5801 51.0626 32.1181 50.6512 32.4662C50.5879 32.4979 50.5562 32.4979 50.4929 32.5612C50.7145 32.9093 50.8411 33.3524 50.8411 33.7321C50.8411 34.3651 50.5879 34.8715 50.1448 35.2196C50.1132 35.2829 50.1132 35.2829 50.0499 35.3145C50.2714 35.6626 50.3663 36.0741 50.3663 36.4538C50.4296 37.5931 49.6701 38.7008 48.2776 38.7008Z" fill="#F48120"/>
<path fill-rule="evenodd" clip-rule="evenodd" d="M48.7525 33.1624H43.9737C43.5306 33.1624 43.1825 32.8143 43.1825 32.3712C43.1825 31.9281 43.5306 31.58 43.9737 31.58H48.7525C49.1955 31.58 49.5436 31.9281 49.5436 32.3712C49.5436 32.8143 49.1322 33.1624 48.7525 33.1624Z" fill="#F48120"/>
<path fill-rule="evenodd" clip-rule="evenodd" d="M49.1954 30.4092H44.4483C44.0052 30.4092 43.6571 30.061 43.6571 29.618C43.6571 29.1749 44.0052 28.8268 44.4483 28.8268H49.2271C49.6701 28.8268 50.0183 29.1749 50.0183 29.618C50.0183 30.061 49.6385 30.4092 49.1954 30.4092Z" fill="#F48120"/>
</svg>
