<svg width="55" height="55" viewBox="0 0 55 55" fill="none" xmlns="http://www.w3.org/2000/svg">
<circle cx="27.5" cy="27.5" r="27.5" fill="#F4F4F4"/>
<path d="M40.1245 28.6449C40.1057 28.6536 40.0883 28.6623 40.0724 28.6724C40.0435 28.6868 37.292 30.2498 31.8715 33.2747C31.5505 32.9219 31.179 32.6183 30.7698 32.374C29.1142 31.3589 26.2903 30.3945 22.3794 29.5068C18.876 28.7116 17.3695 29.4822 15.069 31.651C14.6208 30.9729 13.7475 30.7184 13.0058 31.0524L10.9758 31.9662C10.1429 32.3436 9.77136 33.3254 10.1458 34.1596L14.8422 44.5843C15.2181 45.4186 16.1999 45.7902 17.0356 45.4143L19.0642 44.5005H19.0656C19.7452 44.1925 20.1356 43.4695 20.0213 42.7322C20.3785 42.7365 20.7775 42.7568 21.2113 42.7799C21.8258 42.8117 22.5227 42.8493 23.2991 42.8493C26.3745 42.8493 30.6946 42.2753 36.0024 38.5882C37.4237 37.6007 38.8045 36.6276 40.0233 35.7688C41.7742 34.5354 43.1565 33.5609 43.5107 33.3556C43.5237 33.3469 43.5382 33.3383 43.5512 33.3296V33.3281C44.7426 32.4447 45.0969 30.8166 44.3811 29.5183C43.7782 28.4498 42.3439 27.6588 40.1245 28.6449ZM18.8472 43.163C18.8023 43.2874 18.7084 43.3871 18.5884 43.4406L16.5583 44.3559C16.3082 44.4687 16.0132 44.3573 15.9005 44.1072L11.2041 33.6825C11.0928 33.4323 11.2041 33.1388 11.4528 33.0246L13.4814 32.1108H13.4828C13.733 32.0009 14.0265 32.1108 14.1407 32.3595L18.837 42.7842C18.8905 42.9042 18.8949 43.0401 18.8472 43.163ZM42.902 32.3622C42.4784 32.6153 41.1627 33.5421 39.3539 34.8159C38.1364 35.6733 36.7571 36.6449 35.3386 37.631C29.0173 42.0235 24.3572 41.7792 21.2731 41.6175C20.6355 41.5842 20.0687 41.5553 19.567 41.5726L15.5924 32.7588C17.8638 30.5654 18.98 29.9292 22.1221 30.6435C25.8553 31.4908 28.6359 32.4335 30.1612 33.3675C31.1415 33.9676 31.5955 34.7006 31.3468 35.2819C31.0793 35.905 30.0051 36.3576 28.5418 35.9687L23.4986 34.6283C23.3483 34.585 23.1878 34.6038 23.0519 34.6804C22.916 34.7585 22.8162 34.8872 22.7772 35.0375C22.7367 35.1879 22.7598 35.3484 22.8393 35.4828C22.9189 35.6173 23.049 35.7142 23.2008 35.7503L28.2455 37.0892C28.685 37.2078 29.1376 37.2699 29.593 37.2728C30.0123 37.2757 30.4287 37.2121 30.8263 37.0849C31.5276 36.8882 32.1088 36.3952 32.4183 35.7359C32.612 35.2718 32.6294 34.7512 32.466 34.2741C37.5932 31.4127 40.3286 29.8598 40.6206 29.6951C41.9089 29.1326 42.9094 29.2743 43.3678 30.0884V30.0869C43.7871 30.859 43.5904 31.8191 42.9022 32.3627L42.902 32.3622ZM20.5287 17.5565C22.057 17.5565 23.4349 16.6369 24.0205 15.2243C24.6046 13.8132 24.2822 12.188 23.2007 11.1065C22.1206 10.0264 20.4955 9.70253 19.0829 10.2881C17.6717 10.8723 16.7507 12.2502 16.7507 13.7785C16.7536 15.8649 18.4438 17.5565 20.5302 17.5595L20.5287 17.5565ZM20.5287 11.1616C21.5886 11.1616 22.5414 11.7992 22.9477 12.778C23.3525 13.7554 23.1284 14.8804 22.3794 15.6293C21.6319 16.3782 20.5056 16.6024 19.5282 16.1961C18.5508 15.7912 17.9131 14.8369 17.9131 13.7786C17.9146 12.3342 19.0858 11.1659 20.5302 11.163L20.5287 11.1616ZM30.4848 20.6076C32.1172 20.6076 33.5891 19.6244 34.2137 18.1164C34.8382 16.6083 34.4942 14.8718 33.3389 13.718C32.1851 12.5627 30.4486 12.2171 28.9405 12.8432C27.4324 13.4678 26.4492 14.9397 26.4492 16.572C26.4521 18.8001 28.2566 20.6058 30.4845 20.6073L30.4848 20.6076ZM30.4848 13.6978C31.6473 13.6978 32.6956 14.399 33.1409 15.4733C33.5862 16.5476 33.3404 17.7838 32.5177 18.6065C31.6965 19.4278 30.4588 19.6736 29.3845 19.2297C28.3103 18.7844 27.6105 17.7361 27.6105 16.5736C27.6119 14.986 28.8987 13.6992 30.4848 13.6978ZM39.8917 17.5599C41.4199 17.5613 42.7979 16.6403 43.3834 15.2277C43.9676 13.8165 43.6451 12.1913 42.5636 11.1113C41.4836 10.0298 39.8584 9.7059 38.4458 10.2915C37.0346 10.8756 36.1136 12.2536 36.1136 13.7818C36.1179 15.8668 37.8067 17.5554 39.8917 17.5599ZM39.8917 11.1649C40.95 11.1649 41.9043 11.8025 42.3091 12.7814C42.714 13.7588 42.4913 14.8837 41.7424 15.6326C40.9934 16.3816 39.8685 16.6057 38.8911 16.1994C37.9123 15.7945 37.2746 14.8403 37.2746 13.7819C37.2761 12.3375 38.4472 11.1663 39.8917 11.1634V11.1649ZM42.568 17.9504L37.2083 17.9518C35.6482 17.9518 34.3021 19.1765 33.9001 20.8464C33.6587 20.79 33.4114 20.7626 33.1627 20.7626H27.2549C27.0091 20.7611 26.7619 20.7886 26.5218 20.8435C26.1213 19.1721 24.7767 17.9489 23.2137 17.9489L17.854 17.9504C15.9628 17.9504 14.4258 19.7129 14.4258 21.8787V23.3549H14.4244C14.3767 24.328 15.1213 25.1594 16.0944 25.2157H23.5376V26.6558C23.4855 27.694 24.2779 28.5832 25.3175 28.6453H35.1018C36.14 28.5832 36.9352 27.6954 36.8817 26.6558V25.2157H44.3279C45.3009 25.1594 46.0455 24.3294 45.9978 23.3564V21.8772C45.9978 19.7113 44.4594 17.9489 42.5682 17.9489L42.568 17.9504ZM15.5853 23.3537V21.8775C15.5853 20.3521 16.6017 19.1101 17.8524 19.1101H23.215C24.2922 19.1101 25.2147 20.0513 25.433 21.3092C24.4917 21.9483 23.8454 22.9358 23.6358 24.0535H16.0941C15.818 24.0535 15.5853 23.734 15.5853 23.3537ZM35.7203 26.6561C35.7203 27.1057 35.4369 27.486 35.1015 27.486H25.3171C24.9817 27.486 24.6983 27.1058 24.6983 26.6561L24.6968 25.0295C24.6506 23.8525 25.2593 22.7479 26.2772 22.158C26.296 22.1493 26.3133 22.1406 26.3307 22.1305C26.6198 21.9932 26.935 21.9209 27.2546 21.9209H33.1624C34.5721 21.9209 35.7202 23.3147 35.7202 25.0295L35.7203 26.6561ZM44.8366 23.3537C44.8366 23.7325 44.6038 24.0535 44.3276 24.0535H36.7815C36.5733 22.9373 35.9285 21.9512 34.9901 21.3121C35.207 20.0542 36.1323 19.1101 37.211 19.1101H42.568C43.8187 19.1101 44.8352 20.3507 44.8352 21.8775L44.8366 23.3537Z" fill="#F48102"/>
</svg>
