<svg xmlns="http://www.w3.org/2000/svg" xmlns:xlink="http://www.w3.org/1999/xlink" width="48" height="48" viewBox="0 0 48 48">
  <defs>
    <linearGradient id="linear-gradient" x1="0.5" x2="0.5" y2="1" gradientUnits="objectBoundingBox">
      <stop offset="0"/>
      <stop offset="1" stop-color="#7d7d7d"/>
    </linearGradient>
  </defs>
  <g id="Group_1707" data-name="Group 1707" transform="translate(-1111 -1188)">
    <circle id="Ellipse_1" data-name="Ellipse 1" cx="24" cy="24" r="24" transform="translate(1111 1188)" fill="url(#linear-gradient)"/>
    <g id="Group_1283" data-name="Group 1283" transform="translate(13.115 -7053.631)">
      <g id="Icon_feather-mail" data-name="Icon feather-mail" transform="translate(1110.721 8256.635)">
        <path id="Path_2391" data-name="Path 2391" d="M5.249,6H23.241A2.256,2.256,0,0,1,25.49,8.249V21.743a2.256,2.256,0,0,1-2.249,2.249H5.249A2.256,2.256,0,0,1,3,21.743V8.249A2.256,2.256,0,0,1,5.249,6Z" transform="translate(-3 -6)" fill="none" stroke="#fff" stroke-linecap="round" stroke-linejoin="round" stroke-width="1.5"/>
        <path id="Path_2392" data-name="Path 2392" d="M25.49,9,14.245,16.872,3,9" transform="translate(-3 -6.751)" fill="none" stroke="#fff" stroke-linecap="round" stroke-linejoin="round" stroke-width="1.5"/>
      </g>
    </g>
  </g>
</svg>
