<svg xmlns="http://www.w3.org/2000/svg" width="58.205" height="41.434" viewBox="0 0 58.205 41.434">
  <g id="Group_131" data-name="Group 131" transform="translate(-562.843 -6258.671)">
    <path id="Union_1" data-name="Union 1" d="M-2223.537,22.014c-.757-6.405,6.824-12.441,17.267-14.065,2.149-3.886,6.865-6.825,12.618-7.363,8.394-.784,15.82,3.839,16.587,10.327.45,3.806-1.491,7.408-4.869,9.895-1.391,5.754-9.256,10.7-19.254,11.634-1.115.1-2.217.155-3.3.155C-2214.572,32.6-2222.807,28.191-2223.537,22.014Z" transform="matrix(0.998, 0.07, -0.07, 0.998, 2792.78, 6415.802)" fill="#f48120" opacity="0.09"/>
    <path id="health-svgrepo-com" d="M5.483,24.024h9.931l3.724-7.448L24.1,28.989l3.724-4.965h4.965M25.345,10.195a12.558,12.558,0,0,1,5.508-5.14c4.694-2.29,9.346-1.11,13.2,2.744a12.414,12.414,0,0,1,0,17.556L27.1,42.307a2.483,2.483,0,0,1-3.511,0L6.636,25.354a12.414,12.414,0,0,1,0-17.556c3.854-3.854,8.506-5.034,13.2-2.744A12.558,12.558,0,0,1,25.345,10.195Z" transform="translate(560.843 6255.859)" fill="none" stroke="#000" stroke-linecap="round" stroke-linejoin="round" stroke-width="2"/>
  </g>
</svg>
