<svg xmlns="http://www.w3.org/2000/svg" width="64.048" height="40.651" viewBox="0 0 64.048 40.651">
  <g id="Group_122" data-name="Group 122" transform="translate(-557 -6259.5)">
    <path id="Union_1" data-name="Union 1" d="M-2223.537,22.014c-.757-6.405,6.824-12.441,17.267-14.065,2.149-3.886,6.865-6.825,12.618-7.363,8.394-.784,15.82,3.839,16.587,10.327.45,3.806-1.491,7.408-4.869,9.895-1.391,5.754-9.256,10.7-19.254,11.634-1.115.1-2.217.155-3.3.155C-2214.572,32.6-2222.807,28.191-2223.537,22.014Z" transform="matrix(0.998, 0.07, -0.07, 0.998, 2792.78, 6415.802)" fill="#f48120" opacity="0.09"/>
    <g id="cafe-coffee-shop-svgrepo-com" transform="translate(557.004 6116.141)">
      <path id="Path_53" data-name="Path 53" d="M803.681,232.016a3.5,3.5,0,1,0-3.5,3.532A3.515,3.515,0,0,0,803.681,232.016Zm2.259,0a5.757,5.757,0,1,1-5.757-5.79A5.773,5.773,0,0,1,805.94,232.016Z" transform="translate(-750.622 -78.297)"/>
      <path id="Path_54" data-name="Path 54" d="M222.5,151.1c0-2.742-6.875-5.479-15.468-5.479s-15.467,2.737-15.467,5.479,6.874,5.479,15.467,5.479S222.5,153.838,222.5,151.1Zm2.259,0c0,4.557-7.987,7.737-17.726,7.737s-17.726-3.18-17.726-7.737,7.987-7.737,17.726-7.737S224.758,146.539,224.758,151.1Z" transform="translate(-178.871)"/>
      <path id="Path_55" data-name="Path 55" d="M222.683,283.129V287.8a15.683,15.683,0,0,1-15.722,15.643,15.232,15.232,0,0,1-15.27-15.193v-5.121h-2.259v5.121A17.49,17.49,0,0,0,206.961,305.7a17.941,17.941,0,0,0,17.981-17.9v-4.671Z" transform="translate(-178.99 -132.062)"/>
      <path id="Path_56" data-name="Path 56" d="M47.588,516.032c4.294,1.8,6.617,4.062,6.617,6.222,0,4.96-11.582,9.5-25.975,9.5s-25.975-4.543-25.975-9.5c0-2.188,2.385-4.48,6.776-6.288a1.129,1.129,0,1,0-.86-2.089C3.025,516,0,518.907,0,522.254c0,6.784,12.688,11.762,28.234,11.762s28.234-4.977,28.234-11.762c0-3.309-2.961-6.192-8-8.305a1.129,1.129,0,0,0-.873,2.083Z" transform="translate(0 -350.005)"/>
    </g>
  </g>
</svg>
