<svg xmlns="http://www.w3.org/2000/svg" width="58.048" height="46" viewBox="0 0 58.048 46">
  <g id="Group_149" data-name="Group 149" transform="translate(-1291 -6181.001)">
    <g id="Group_126" data-name="Group 126" transform="translate(728 -70.25)">
      <path id="Union_1" data-name="Union 1" d="M-2223.537,22.014c-.757-6.405,6.824-12.441,17.267-14.065,2.149-3.886,6.865-6.825,12.618-7.363,8.394-.784,15.82,3.839,16.587,10.327.45,3.806-1.491,7.408-4.869,9.895-1.391,5.754-9.256,10.7-19.254,11.634-1.115.1-2.217.155-3.3.155C-2214.572,32.6-2222.807,28.191-2223.537,22.014Z" transform="matrix(0.998, 0.07, -0.07, 0.998, 2792.78, 6415.802)" fill="#f48120" opacity="0.09"/>
    </g>
    <path id="wing-chair-svgrepo-com" d="M25,2C18.32,2,14.133,3.2,11.531,4.969A7.382,7.382,0,0,0,8,11c0,2.332,1.164,4.527,2.625,7.344a80.854,80.854,0,0,1,4.281,9.25,4.024,4.024,0,0,1-1.594-1.312L9.688,21.094A3.75,3.75,0,0,0,4,20.594l-.094.094a3.726,3.726,0,0,0-.437,4.75l5.313,7.688A9,9,0,0,0,16.188,37H24v3H22.875l-.125.031L14.625,42.25A4.922,4.922,0,0,0,11,47v1h3.125l.094-.031L23,46h4l8.781,1.969.094.031H39V47a4.922,4.922,0,0,0-3.625-4.75L27.25,40.031,27.125,40H26V37h8.531a8.986,8.986,0,0,0,7.656-4.281l4.531-7.344A3.73,3.73,0,1,0,40.344,21.5l-2.75,4.563a3.979,3.979,0,0,1-2.625,1.844,79.592,79.592,0,0,1,4.406-9.562C40.836,15.527,42,13.332,42,11a7.382,7.382,0,0,0-3.531-6.031C35.867,3.2,31.68,2,25,2Zm0,2c6.434,0,10.223,1.188,12.344,2.625A5.218,5.218,0,0,1,40,11c0,1.629-.953,3.637-2.406,6.438A82.16,82.16,0,0,0,32.844,28H17.156a82.422,82.422,0,0,0-4.75-10.562C10.953,14.637,10,12.629,10,11a5.218,5.218,0,0,1,2.656-4.375C14.777,5.188,18.566,4,25,4ZM6.406,21.5a1.722,1.722,0,0,1,.375,0,1.761,1.761,0,0,1,1.281.75l3.625,5.188a5.978,5.978,0,0,0,4.531,2.531c.125.008.246.031.375.031H34.156a6.018,6.018,0,0,0,5.156-2.906l2.75-4.594a1.739,1.739,0,0,1,2.969,1.813L40.5,31.656A7.019,7.019,0,0,1,34.531,35H16.188a7,7,0,0,1-5.75-3.031L5.125,24.313a1.728,1.728,0,0,1,.156-2.187L5.406,22A1.691,1.691,0,0,1,6.406,21.5ZM23.125,42h3.75l7.969,2.188A2.774,2.774,0,0,1,36.656,46H36l-8.781-1.969L27.125,44h-4.25l-.094.031L14,46h-.656a2.774,2.774,0,0,1,1.813-1.812Z" transform="translate(1288.188 6179.001)"/>
  </g>
</svg>
