<svg xmlns="http://www.w3.org/2000/svg" width="57.048" height="42.579" viewBox="0 0 57.048 42.579">
  <g id="Group_148" data-name="Group 148" transform="translate(-936 -6184.422)">
    <g id="Group_124" data-name="Group 124" transform="translate(372 -70.25)">
      <path id="Union_1" data-name="Union 1" d="M-2223.537,22.014c-.757-6.405,6.824-12.441,17.267-14.065,2.149-3.886,6.865-6.825,12.618-7.363,8.394-.784,15.82,3.839,16.587,10.327.45,3.806-1.491,7.408-4.869,9.895-1.391,5.754-9.256,10.7-19.254,11.634-1.115.1-2.217.155-3.3.155C-2214.572,32.6-2222.807,28.191-2223.537,22.014Z" transform="matrix(0.998, 0.07, -0.07, 0.998, 2792.78, 6415.802)" fill="#f48120" opacity="0.09"/>
    </g>
    <g id="table-tennis-6-svgrepo-com" transform="translate(935.995 6184.422)">
      <path id="Path_59" data-name="Path 59" d="M42.581,37a2.572,2.572,0,0,0-.753-1.757c-.029-.03-.06-.059-.09-.087l-.011-.01-.011-.01-.2-.169c-.444-.386-1.585-1.379-2.827-2.489-.62-.555-1.266-1.138-1.862-1.688s-1.141-1.066-1.554-1.48l-.1-.1a2.178,2.178,0,0,1-.375-.5,1.573,1.573,0,0,1-.187-.655,1.888,1.888,0,0,1,.067-.612c.25-.927.661-2.148,1.013-3.576a18.871,18.871,0,0,0,.423-7.753,17.138,17.138,0,0,0-1.5-4.644,22.444,22.444,0,0,0-3.315-4.929q-.463-.533-.959-1.029A18.366,18.366,0,0,0,18.294.018a16.266,16.266,0,0,0-6.725,1.117A18.335,18.335,0,0,0,5.313,5.309a18.355,18.355,0,0,0-4.175,6.256A16.422,16.422,0,0,0,.507,21.6a18.872,18.872,0,0,0,5.02,8.743q.5.5,1.029.959A21.2,21.2,0,0,0,13.071,35.3a16.6,16.6,0,0,0,4.511,1,19.169,19.169,0,0,0,5.751-.473c.835-.187,1.6-.4,2.3-.606s1.307-.4,1.828-.537a1.808,1.808,0,0,1,.825-.038,1.546,1.546,0,0,1,.442.16,2.114,2.114,0,0,1,.5.375l.1.1c.473.473,1.08,1.117,1.718,1.812.957,1.043,1.986,2.2,2.775,3.1.394.448.729.831.964,1.1l.275.315.1.112.01.01.009.011c.029.031.058.062.088.091a2.576,2.576,0,0,0,1.757.753l.069,0-.069,0a2.574,2.574,0,0,0,1.883-.753l2.937-2.937A2.577,2.577,0,0,0,42.581,37v0ZM15.5,33.577a15.037,15.037,0,0,1-2.986-1.084A20.065,20.065,0,0,1,8.1,29.521q-.472-.41-.909-.848A16.007,16.007,0,0,1,2.38,18.182a13.907,13.907,0,0,1,.956-5.753,15.968,15.968,0,0,1,3.647-5.45,15.971,15.971,0,0,1,5.45-3.647,14.056,14.056,0,0,1,8.6-.539,16.527,16.527,0,0,1,7.644,4.4q.437.437.847.909a18.826,18.826,0,0,1,3.561,5.789A14.6,14.6,0,0,1,33.58,15.5Zm24.66,3.641-2.937,2.937a.213.213,0,0,1-.156.062.217.217,0,0,1-.147-.062h0c-.117-.136-1.049-1.213-2.2-2.509-.615-.692-1.293-1.448-1.944-2.157S31.5,34.118,30.988,33.6L30.88,33.5a4.524,4.524,0,0,0-1.044-.778,3.951,3.951,0,0,0-1.619-.461,4.241,4.241,0,0,0-1.379.145c-1.034.281-2.2.676-3.522,1a17.578,17.578,0,0,1-5.279.557L33.961,18.036a17.088,17.088,0,0,1-.437,4.776c-.171.76-.371,1.477-.568,2.146s-.39,1.293-.55,1.876a4.156,4.156,0,0,0-.076,1.9,3.972,3.972,0,0,0,.392,1.092,4.493,4.493,0,0,0,.778,1.045l.108.107c.515.515,1.176,1.137,1.885,1.788,2.039,1.87,4.467,3.973,4.666,4.144h0a.217.217,0,0,1,.062.146A.211.211,0,0,1,40.159,37.218Z" transform="translate(0 0)"/>
    </g>
  </g>
</svg>
