<svg xmlns="http://www.w3.org/2000/svg" width="51" height="51" viewBox="0 0 51 51">
  <g id="vr-media-player-svgrepo-com" transform="translate(-2.5 -2.5)">
    <path id="Path_60" data-name="Path 60" d="M22.173,17.173c1.854-.132,3.841-.265,5.827-.265s3.973.132,5.827.265c1.324.132,2.649.265,3.841.4C46.408,18.763,52.5,21.676,52.5,25.119c0,3.31-6.092,6.224-14.832,7.549-1.192.132-2.516.265-3.841.4-1.854.132-3.841.265-5.827.265s-3.973-.132-5.959-.265m-3.708-.4C9.592,31.343,3.5,28.563,3.5,25.119s6.092-6.225,14.832-7.549" transform="translate(0 2.616)" fill="none" stroke="#000" stroke-linecap="round" stroke-linejoin="round" stroke-width="2"/>
    <path id="Path_61" data-name="Path 61" d="M32.889,37.4C31.7,46.276,28.784,52.5,25.34,52.5s-6.357-6.224-7.549-15.1c-.132-1.192-.265-2.516-.4-3.841-.133-1.854-.265-3.708-.265-5.562,0-2.119.132-4.238.265-6.092.132-1.324.265-2.649.4-3.841C19.116,9.459,21.9,3.5,25.208,3.5s6.224,5.959,7.416,14.568m.662,3.841c.133,1.987.265,3.973.265,6.092,0,1.987-.132,3.841-.265,5.562" transform="translate(2.66 0)" fill="none" stroke="#000" stroke-linecap="round" stroke-linejoin="round" stroke-width="2"/>
  </g>
</svg>
