<svg xmlns="http://www.w3.org/2000/svg" width="58.048" height="58.755" viewBox="0 0 58.048 58.755">
  <g id="Group_128" data-name="Group 128" transform="translate(-563 -6242.858)">
    <path id="Union_1" data-name="Union 1" d="M-2223.537,22.014c-.757-6.405,6.824-12.441,17.267-14.065,2.149-3.886,6.865-6.825,12.618-7.363,8.394-.784,15.82,3.839,16.587,10.327.45,3.806-1.491,7.408-4.869,9.895-1.391,5.754-9.256,10.7-19.254,11.634-1.115.1-2.217.155-3.3.155C-2214.572,32.6-2222.807,28.191-2223.537,22.014Z" transform="matrix(0.998, 0.07, -0.07, 0.998, 2792.78, 6415.802)" fill="#f48120" opacity="0.09"/>
    <g id="Group_137" data-name="Group 137" transform="translate(493.997 6213.661)">
      <path id="Path_62" data-name="Path 62" d="M93.585,29.294a.633.633,0,0,0-.094-.034.694.694,0,0,0-.164-.059.723.723,0,0,0-.129,0,.667.667,0,0,0-.16.008.813.813,0,0,0-.151.054.83.83,0,0,0-.1.037c-1.135.687-27.788,17.186-23.262,35.939,2.652,10.967,11.814,12.493,16.7,12.493a19.05,19.05,0,0,0,3.133-.228.768.768,0,0,0,.614-.9.784.784,0,0,0-.9-.618c-.6.115-14.742,2.569-18.056-11.111C67.041,48.4,89.876,33,93.184,30.866,96.491,33,119.329,48.4,115.346,64.876c-3.308,13.685-17.451,11.237-18.057,11.108a.776.776,0,0,0-.9.618.768.768,0,0,0,.614.9,19.03,19.03,0,0,0,3.133.228c4.889,0,14.053-1.526,16.7-12.493C121.374,46.486,94.722,29.987,93.585,29.294Z"/>
      <path id="Path_63" data-name="Path 63" d="M172.306,159.448a.776.776,0,1,0-1.091-1.1l-12.4,12.414V164l9.936-9.934a.776.776,0,1,0-1.091-1.093l-8.845,8.844v-6.766l5.46-5.461a.776.776,0,1,0-1.091-1.091l-4.368,4.368V145.9a.776.776,0,1,0-1.541,0v6.961l-4.367-4.368a.776.776,0,0,0-1.091,1.089l5.448,5.46v6.767l-8.844-8.842a.776.776,0,0,0-1.091,1.093L157.262,164v6.771l-12.4-12.414a.776.776,0,1,0-1.093,1.093l13.494,13.5v15a.776.776,0,1,0,1.541,0v-15Z" transform="translate(-64.854 -100.861)"/>
    </g>
  </g>
</svg>
