<svg xmlns="http://www.w3.org/2000/svg" width="51.064" height="40" viewBox="0 0 51.064 40">
  <g id="fast-development" transform="translate(-3.125 -13.281)">
    <path id="Path_9334" data-name="Path 9334" d="M75.163,50.781H62.619c.094.443.153.826.213,1.2.026.17.043.332.06.5.009.077.017.162.026.247.017.17.043.374.051.579s.034.4.034.613c0,.1.009.2.009.306.009.145.009.281.009.426a18.63,18.63,0,0,1-.128,2.187c-.034.366-.094.732-.153,1.089-.077.426-.17.868-.289,1.319l1.6-1.455a.852.852,0,0,1,1.149,1.26l-1.66,1.515,1.66,1.515a.851.851,0,0,1,.051,1.209.839.839,0,0,1-.621.272.879.879,0,0,1-.579-.221l-2.221-2.034-.23.587c-.009.034-.026.068-.034.094-.1.238-.2.46-.306.689a2.176,2.176,0,0,1-.094.2c-.145.306-.3.6-.46.885l-.06.119c-.145.255-.289.519-.451.774-.136.221-.281.443-.426.655-.068.111-.145.221-.221.332l-.349.468c-.077.1-.153.2-.238.315-.026.034-.213.255-.213.255-.136.179-.281.349-.426.511-.179.2-.357.4-.545.6-.094.111-.2.213-.306.323-.145.145-.306.306-.485.46l-.077.077c-.06.06-.119.111-.179.162-.153.136-.315.272-.477.417-.077.068-.153.128-.23.187-.128.111-.255.213-.391.315-.255.213-.536.417-.834.621H75.164A2.561,2.561,0,0,0,77.717,67.8V53.334a2.561,2.561,0,0,0-2.553-2.553ZM68.228,62.764a.848.848,0,0,1-.843.8h-.051a.85.85,0,0,1-.8-.9l.247-4.289a.848.848,0,1,1,1.694.1ZM73.308,61.2l-2.349,2.145a.879.879,0,0,1-.579.221.839.839,0,0,1-.621-.272.851.851,0,0,1,.051-1.209l1.66-1.515-1.66-1.515a.852.852,0,0,1,1.149-1.26l2.349,2.145a.864.864,0,0,1,0,1.26Z" transform="translate(-23.528 -17.075)"/>
    <path id="Path_9335" data-name="Path 9335" d="M33.739,48.413c.17-.179.332-.357.494-.545s.332-.391.5-.6c.06-.077.111-.145.162-.221.119-.153.23-.306.349-.46.043-.06.085-.119.119-.179.136-.2.272-.409.4-.621.153-.238.289-.494.426-.74s.264-.5.391-.757v-.009c.111-.23.213-.468.315-.706.077-.2.153-.391.221-.587.06-.145.1-.3.153-.443.077-.213.145-.426.2-.647a15.153,15.153,0,0,0,.374-1.634c.051-.289.094-.587.128-.885a15.915,15.915,0,0,0,.1-1.8c0-.1,0-.2-.009-.306s0-.2-.009-.306a4.2,4.2,0,0,0-.026-.468c-.009-.187-.026-.366-.043-.545s-.043-.366-.068-.545q-.077-.511-.179-1.021c-.051-.23-.1-.46-.162-.681a15.74,15.74,0,0,0-2.553-5.413l2.281-2.519a2.411,2.411,0,0,0-.187-3.4l-1.157-1.047a2.42,2.42,0,0,0-3.413.179l-2.264,2.519a15.352,15.352,0,0,0-4.715-1.813V18.889a1.754,1.754,0,0,0,1.566-1.83V15.111a1.739,1.739,0,0,0-1.634-1.83H19.254a1.739,1.739,0,0,0-1.634,1.83V17.06a1.754,1.754,0,0,0,1.566,1.83V22.2A15.581,15.581,0,0,0,7.5,32.54h6.145A10.093,10.093,0,1,1,17.313,46.3a4.226,4.226,0,0,1-1.753.885,4.308,4.308,0,0,1-1,.119H10.071a15.666,15.666,0,0,0,20.587,3.609,14.641,14.641,0,0,0,1.37-.953c.111-.085.213-.17.323-.264a.9.9,0,0,0,.1-.085c.17-.145.34-.289.5-.434.051-.043.1-.094.153-.145.153-.136.3-.281.434-.417.068-.068.136-.136.2-.2ZM23.875,21.953a14.6,14.6,0,0,0-2.987,0V18.89h2.987Zm9.013,3.966-.009-.009c-.187-.17-.374-.323-.562-.477s-.391-.315-.587-.46l2.094-2.332a.686.686,0,0,1,.494-.238.732.732,0,0,1,.511.187l1.166,1.047a.708.708,0,0,1,.23.485.686.686,0,0,1-.179.511l-2.1,2.332c-.17-.187-.34-.366-.519-.536s-.357-.349-.536-.511Z" transform="translate(-1.992)"/>
    <path id="Path_9336" data-name="Path 9336" d="M34.116,53.051h7.03A.854.854,0,0,0,42,52.2a7.827,7.827,0,0,0-3.7-6.672.844.844,0,0,0-1.174.264L33.393,51.75a.878.878,0,0,0-.026.868.865.865,0,0,0,.749.434Z" transform="translate(-13.723 -14.621)"/>
    <path id="Path_9337" data-name="Path 9337" d="M3.976,56.593h8.6a.851.851,0,1,0,0-1.7h-8.6a.851.851,0,1,0,0,1.7Z" transform="translate(0 -18.946)"/>
    <path id="Path_9338" data-name="Path 9338" d="M13.423,67.227a.854.854,0,0,0-.851-.851h-8.6a.851.851,0,1,0,0,1.7h8.6A.854.854,0,0,0,13.423,67.227Z" transform="translate(0 -24.175)"/>
    <path id="Path_9339" data-name="Path 9339" d="M10.3,60.633a.851.851,0,1,0,0,1.7h5.149a.851.851,0,1,0,0-1.7Z" transform="translate(-2.881 -21.56)"/>
  </g>
</svg>
