<svg xmlns="http://www.w3.org/2000/svg" width="50" height="50" viewBox="0 0 50 50">
  <g id="Group_71" data-name="Group 71" transform="translate(-379 -1397)">
    <circle id="Ellipse_18" data-name="Ellipse 18" cx="25" cy="25" r="25" transform="translate(379 1397)" fill="#f8f8f8"/>
    <g id="balance-svgrepo-com" transform="translate(388.86 1406.86)">
      <g id="Group_379" data-name="Group 379" transform="translate(2 2)">
        <path id="Path_187" data-name="Path 187" d="M15.14,28.279A13.154,13.154,0,0,1,2,15.14a6.8,6.8,0,0,1,13.609,0,5.866,5.866,0,1,0,11.732,0A12.2,12.2,0,0,0,5.65,7.471a.469.469,0,0,1-.73-.59A13.14,13.14,0,0,1,28.279,15.14a6.8,6.8,0,0,1-13.609,0,5.866,5.866,0,1,0-11.732,0A12.2,12.2,0,0,0,24.63,22.809a.469.469,0,1,1,.729.59A13.093,13.093,0,0,1,15.14,28.279Z" transform="translate(-2 -2)" fill="#0b1719"/>
        <path id="Path_187_-_Outline" data-name="Path 187 - Outline" d="M15.14,28.779A13.655,13.655,0,0,1,1.5,15.14a7.3,7.3,0,0,1,14.609,0,5.366,5.366,0,1,0,10.732,0,11.7,11.7,0,0,0-20.8-7.354A.969.969,0,0,1,4.53,6.567,13.64,13.64,0,0,1,28.779,15.14a7.3,7.3,0,1,1-14.609,0,5.366,5.366,0,0,0-10.732,0,11.7,11.7,0,0,0,20.8,7.354.969.969,0,1,1,1.507,1.219A13.591,13.591,0,0,1,15.14,28.779Z" transform="translate(-2 -2)"/>
        <path id="Path_188" data-name="Path 188" d="M8.377,17.254a1.877,1.877,0,1,1,1.877-1.877A1.879,1.879,0,0,1,8.377,17.254Zm0-2.816a.939.939,0,1,0,.939.939A.94.94,0,0,0,8.377,14.439Z" transform="translate(-2.277 -2.707)" fill="#0b1719"/>
        <path id="Path_188_-_Outline" data-name="Path 188 - Outline" d="M8.377,17.754a2.377,2.377,0,1,1,2.377-2.377A2.38,2.38,0,0,1,8.377,17.754Zm0-2.816a.439.439,0,1,0,.439.439A.439.439,0,0,0,8.377,14.939Z" transform="translate(-2.277 -2.707)"/>
        <path id="Path_189" data-name="Path 189" d="M23.377,17.254a1.877,1.877,0,1,1,1.877-1.877A1.879,1.879,0,0,1,23.377,17.254Zm0-2.816a.939.939,0,1,0,.939.939A.94.94,0,0,0,23.377,14.439Z" transform="translate(-3.198 -2.707)" fill="#0b1719"/>
        <path id="Path_189_-_Outline" data-name="Path 189 - Outline" d="M23.377,17.754a2.377,2.377,0,1,1,2.377-2.377A2.38,2.38,0,0,1,23.377,17.754Zm0-2.816a.439.439,0,1,0,.439.439A.439.439,0,0,0,23.377,14.939Z" transform="translate(-3.198 -2.707)"/>
      </g>
      <g id="Group_380" data-name="Group 380" transform="translate(2 2)">
        <path id="Path_190" data-name="Path 190" d="M15.14,28.279A13.154,13.154,0,0,1,2,15.14a6.8,6.8,0,0,1,13.609,0,5.866,5.866,0,1,0,11.732,0A12.2,12.2,0,0,0,5.65,7.471a.469.469,0,0,1-.73-.59A13.14,13.14,0,0,1,28.279,15.14a6.8,6.8,0,0,1-13.609,0,5.866,5.866,0,1,0-11.732,0A12.2,12.2,0,0,0,24.63,22.809a.469.469,0,1,1,.729.59A13.093,13.093,0,0,1,15.14,28.279Z" transform="translate(-2 -2)" fill="#0b1719"/>
        <path id="Path_190_-_Outline" data-name="Path 190 - Outline" d="M15.14,28.779A13.655,13.655,0,0,1,1.5,15.14a7.3,7.3,0,0,1,14.609,0,5.366,5.366,0,1,0,10.732,0,11.7,11.7,0,0,0-20.8-7.354A.969.969,0,0,1,4.53,6.567,13.64,13.64,0,0,1,28.779,15.14a7.3,7.3,0,1,1-14.609,0,5.366,5.366,0,0,0-10.732,0,11.7,11.7,0,0,0,20.8,7.354.969.969,0,1,1,1.507,1.219A13.591,13.591,0,0,1,15.14,28.779Z" transform="translate(-2 -2)"/>
        <path id="Path_191" data-name="Path 191" d="M8.377,17.254a1.877,1.877,0,1,1,1.877-1.877A1.879,1.879,0,0,1,8.377,17.254Zm0-2.816a.939.939,0,1,0,.939.939A.94.94,0,0,0,8.377,14.439Z" transform="translate(-2.277 -2.707)" fill="#0b1719"/>
        <path id="Path_191_-_Outline" data-name="Path 191 - Outline" d="M8.377,17.754a2.377,2.377,0,1,1,2.377-2.377A2.38,2.38,0,0,1,8.377,17.754Zm0-2.816a.439.439,0,1,0,.439.439A.439.439,0,0,0,8.377,14.939Z" transform="translate(-2.277 -2.707)"/>
        <path id="Path_192" data-name="Path 192" d="M23.377,17.254a1.877,1.877,0,1,1,1.877-1.877A1.879,1.879,0,0,1,23.377,17.254Zm0-2.816a.939.939,0,1,0,.939.939A.94.94,0,0,0,23.377,14.439Z" transform="translate(-3.198 -2.707)" fill="#0b1719"/>
        <path id="Path_192_-_Outline" data-name="Path 192 - Outline" d="M23.377,17.754a2.377,2.377,0,1,1,2.377-2.377A2.38,2.38,0,0,1,23.377,17.754Zm0-2.816a.439.439,0,1,0,.439.439A.439.439,0,0,0,23.377,14.939Z" transform="translate(-3.198 -2.707)"/>
      </g>
    </g>
  </g>
</svg>
