<svg xmlns="http://www.w3.org/2000/svg" width="50" height="50" viewBox="0 0 50 50">
  <g id="Group_69" data-name="Group 69" transform="translate(-379 -1397)">
    <circle id="Ellipse_18" data-name="Ellipse 18" cx="25" cy="25" r="25" transform="translate(379 1397)" fill="#f8f8f8"/>
    <g id="_4390428071594722074" data-name="4390428071594722074" transform="translate(388.911 1407.144)">
      <path id="Path_24" data-name="Path 24" d="M15.622,22.243A4.627,4.627,0,0,1,11,17.622V13.855A.855.855,0,0,1,11.855,13h7.534a.855.855,0,0,1,.855.855v3.767A4.627,4.627,0,0,1,15.622,22.243Zm-2.912-7.534v2.912a2.912,2.912,0,1,0,5.825,0V14.709Z" transform="translate(-0.525 -0.641)"/>
      <path id="Line_30" data-name="Line 30" d="M-.145,4.476A.855.855,0,0,1-1,3.622V-.145A.855.855,0,0,1-.145-1a.855.855,0,0,1,.855.855V3.622A.855.855,0,0,1-.145,4.476Z" transform="translate(13.359 9.592)"/>
      <path id="Line_31" data-name="Line 31" d="M-.145,4.476A.855.855,0,0,1-1,3.622V-.145A.855.855,0,0,1-.145-1a.855.855,0,0,1,.855.855V3.622A.855.855,0,0,1-.145,4.476Z" transform="translate(17.126 9.592)"/>
      <path id="Path_25" data-name="Path 25" d="M11.98,27.726a3.731,3.731,0,0,1-1.326-.245,13.092,13.092,0,0,1-3.586-2A13.254,13.254,0,0,1,2,14.6v-.009A13.285,13.285,0,0,1,14.588,2a12.9,12.9,0,0,1,5.248.874A13.124,13.124,0,0,1,25.814,22.64a13.271,13.271,0,0,1-6.076,4.743.855.855,0,1,1-.618-1.594A11.417,11.417,0,0,0,22.962,6.867a11.232,11.232,0,0,0-8.3-3.159A11.563,11.563,0,0,0,3.708,14.66a11.487,11.487,0,0,0,7.538,11.217l.011,0a2.089,2.089,0,0,0,1.95-.264,2.374,2.374,0,0,0,1.035-1.951V20.747a.855.855,0,0,1,1.709,0v2.919a4.083,4.083,0,0,1-1.774,3.358A3.863,3.863,0,0,1,11.98,27.726Z" transform="translate(0 0)"/>
    </g>
  </g>
</svg>
