<svg xmlns="http://www.w3.org/2000/svg" width="50" height="50" viewBox="0 0 50 50">
  <g id="Group_381" data-name="Group 381" transform="translate(-379 -1397)">
    <circle id="Ellipse_18" data-name="Ellipse 18" cx="25" cy="25" r="25" transform="translate(379 1397)" fill="#f8f8f8"/>
    <g id="google-chat-svgrepo-com" transform="translate(387.054 1405.826)">
      <path id="Rectangle_84" data-name="Rectangle 84" d="M.777-1H15.321A1.779,1.779,0,0,1,17.1.777V12.6a1.779,1.779,0,0,1-1.777,1.777H.777A1.779,1.779,0,0,1-1,12.6V.777A1.779,1.779,0,0,1,.777-1ZM15.321,12.6V.777H.776V12.6Z" transform="translate(11.527 6)"/>
      <path id="Path_193" data-name="Path 193" d="M8.383,12.575h13.11a2.494,2.494,0,0,1,2.494,2.494v10.39a2.494,2.494,0,0,1-2.494,2.494H11.86L8.5,31.311a1.531,1.531,0,0,1-2.613-1.082V15.069a2.494,2.494,0,0,1,2.494-2.494Zm13.11,13.6a.717.717,0,0,0,.717-.717V15.069a.717.717,0,0,0-.717-.717H8.383a.717.717,0,0,0-.717.717V29.634l3.2-3.2a.889.889,0,0,1,.628-.26Z" transform="translate(0 -2.936)"/>
    </g>
  </g>
</svg>
