<svg width="256" height="256" viewBox="0 0 256 256" fill="none" xmlns="http://www.w3.org/2000/svg">
<path fill-rule="evenodd" clip-rule="evenodd" d="M86.9845 139.441C86.8701 138.959 86.8047 138.469 86.8047 137.97V88.6272H64.3022C62.3494 99.6005 48.737 103.996 40.7622 96.0134C38.1557 93.4069 36.6851 89.8609 36.6851 86.1759C36.6851 82.4828 38.1558 78.9449 40.7622 76.3303C48.7368 68.3556 62.3485 72.7434 64.3022 83.7165H86.8047V34.3732C86.8129 30.8598 89.6645 28.0082 93.1779 28H144.956C145.667 28 146.345 28.3105 146.811 28.8579L169.338 51.3521C169.877 51.8178 170.196 52.496 170.188 53.215V83.7246H192.69C194.643 72.7432 208.256 68.3554 216.23 76.3384L216.239 76.3302C218.845 78.9448 220.316 82.4827 220.316 86.1759C220.316 89.869 218.845 93.4069 216.239 96.0133C208.264 103.988 194.652 99.6002 192.699 88.6271H170.188V137.97C170.196 138.469 170.131 138.959 170.016 139.441H194.928C204.235 139.441 211.776 146.983 211.776 156.289V162.654L224.122 162.662C226.81 162.662 228.992 164.844 229 167.54V185.614C228.992 188.302 226.81 190.483 224.122 190.492H194.535C191.839 190.483 189.665 188.302 189.657 185.614V167.54C189.665 164.844 191.847 162.662 194.535 162.654H206.881V156.289C206.881 153.119 205.623 150.088 203.376 147.841C201.137 145.602 198.097 144.343 194.927 144.343H165.39C165.39 145.814 165.357 146.934 164.165 148.118C163.38 148.903 162.326 149.336 161.215 149.336V149.344H156.941C156.263 151.934 155.234 154.426 153.878 156.73L157.089 159.958L157.081 159.966C158.543 161.608 158.461 164.108 156.901 165.661L152.268 170.294V170.302C150.634 171.928 147.995 171.928 146.369 170.302L143.338 167.271C141.025 168.627 138.541 169.656 135.951 170.334V174.616C135.943 176.912 134.08 178.775 131.776 178.783V178.775H130.943V201.171H143.297C145.985 201.171 148.166 203.352 148.175 206.04V224.122C148.166 226.819 145.985 229 143.297 229H113.703C111.015 228.992 108.834 226.81 108.826 224.122V206.04C108.834 203.352 111.015 201.171 113.703 201.171H126.057V178.775H125.224V178.783C122.92 178.783 121.049 176.912 121.049 174.616V170.334C118.075 169.338 116.416 168.888 113.662 167.271L110.631 170.302C109.005 171.928 106.366 171.928 104.732 170.302L100.099 165.669V165.661C98.4733 164.035 98.4733 161.396 100.099 159.77L100.091 159.762L103.114 156.739H103.122C101.766 154.426 100.737 151.934 100.059 149.344H95.7852C94.6739 149.344 93.6117 148.903 92.8354 148.127C92.0511 147.342 91.618 146.28 91.618 145.177H91.6098V144.352L62.073 144.343C58.9028 144.343 55.8631 145.602 53.6244 147.849C51.3856 150.087 50.1273 153.127 50.1273 156.289V162.654L62.4649 162.662C65.1613 162.662 67.3428 164.844 67.3428 167.54V185.614C67.3428 188.302 65.1611 190.483 62.4649 190.492H32.8778C30.1896 190.483 28.0082 188.302 28 185.614V167.54C28.0082 164.844 30.1898 162.662 32.8778 162.654H45.2237V156.289C45.2237 146.983 52.7653 139.441 62.0717 139.441L86.9845 139.441ZM206.4 77.1565C198.392 77.1565 194.364 86.8796 200.026 92.542C205.689 98.2043 215.412 94.1762 215.412 86.1688V86.177C215.412 83.7831 214.464 81.487 212.773 79.8038C211.081 78.1125 208.786 77.1565 206.4 77.1565ZM56.9811 79.7956C51.3189 74.1334 41.5956 78.1615 41.5956 86.1688C41.5956 94.1762 51.3187 98.2043 56.9811 92.542C60.4945 89.0286 60.4945 83.3172 56.9811 79.7956ZM113.727 224.098H143.264V206.073H113.727V224.098ZM209.341 167.566H194.56V185.59H224.097V167.566H209.341ZM47.6835 167.566H32.9027V185.59H62.4396V167.566H47.6835ZM128.501 173.898H131.05V168.383H131.058C131.058 167.206 131.891 166.193 133.052 165.972C136.059 165.409 139.752 163.987 142.187 162.222C143.159 161.462 144.548 161.552 145.422 162.426L149.32 166.324L152.923 162.72L149.026 158.823L149.034 158.815C148.2 157.981 148.078 156.674 148.74 155.71C150.619 152.964 151.918 149.868 152.547 146.607C152.694 145.374 153.74 144.442 154.982 144.442H160.489V139.335H155.121C153.895 139.401 152.809 138.551 152.58 137.342C152.016 134.343 150.627 130.691 148.821 128.207H148.83C148.07 127.235 148.16 125.846 149.026 124.971L152.923 121.074L149.32 117.47L145.43 121.368L145.422 121.36C144.589 122.193 143.282 122.316 142.309 121.654C139.572 119.775 136.475 118.475 133.215 117.846C131.981 117.699 131.05 116.653 131.05 115.411V109.896H125.951V115.411H125.943C125.943 116.588 125.11 117.593 123.949 117.813C120.951 118.377 117.298 119.766 114.815 121.572V121.564C113.842 122.324 112.453 122.242 111.579 121.368L107.681 117.47L104.078 121.074L107.967 124.971C108.801 125.805 108.923 127.112 108.262 128.084C106.57 130.56 104.911 134.212 104.454 137.186V137.178C104.307 138.412 103.261 139.344 102.019 139.344H96.5121V144.442H102.019V144.45C103.196 144.45 104.201 145.292 104.421 146.444C104.985 149.443 106.374 153.095 108.172 155.579C108.931 156.559 108.85 157.948 107.976 158.823L104.086 162.72L107.69 166.324L111.579 162.426C112.412 161.593 113.72 161.47 114.692 162.14C117.429 164.011 120.526 165.31 123.786 165.948C125.02 166.086 125.951 167.141 125.951 168.383V173.898L128.501 173.898ZM165.285 137.692V55.658H151.395C146.492 55.6498 142.513 51.679 142.497 46.7683L142.505 32.9026H93.1872C92.3783 32.9107 91.7165 33.5644 91.7165 34.3733V137.693C92.1495 135.789 93.8326 134.441 95.7854 134.441H100.067C100.737 131.851 101.775 129.359 103.123 127.055L100.1 124.032V124.023C98.4736 122.398 98.4736 119.758 100.1 118.124L104.732 113.492H104.74C106.366 111.866 109.006 111.866 110.64 113.492L113.663 116.515C115.975 115.158 118.459 114.129 121.057 113.451V109.177C121.057 106.873 122.928 105.01 125.224 105.002V105.01H131.777V105.002H131.785C134.082 105.01 135.953 106.873 135.953 109.177V113.459C138.927 114.464 140.585 114.905 143.339 116.523L146.37 113.492C147.996 111.866 150.635 111.866 152.269 113.492L156.902 118.124C158.528 119.758 158.528 122.398 156.902 124.032L153.879 127.055C155.235 129.367 156.265 131.859 156.943 134.458H161.216V134.441C163.169 134.449 164.852 135.797 165.285 137.692ZM128.501 125.804C121.988 125.804 116.122 129.718 113.63 135.732C111.138 141.745 112.519 148.674 117.119 153.274C121.727 157.874 128.648 159.255 134.661 156.763C140.675 154.271 144.597 148.404 144.597 141.892C144.589 133.002 137.39 125.804 128.501 125.804ZM136.41 133.983C129.383 126.956 117.307 131.957 117.307 141.892C117.307 151.836 129.383 156.836 136.41 149.801V149.81C140.781 145.438 140.781 138.354 136.41 133.983ZM156.346 83.7257H100.655C99.2982 83.7257 98.2033 84.8206 98.2033 86.177C98.2033 87.5252 99.2982 88.6283 100.655 88.6283H156.346C157.702 88.6283 158.797 87.5252 158.797 86.177C158.797 84.8206 157.702 83.7257 156.346 83.7257ZM156.346 66.657L100.655 66.6488C99.2982 66.6488 98.2033 67.7519 98.2033 69.1001C98.2033 70.4565 99.2982 71.5514 100.655 71.5514H156.346C157.702 71.5514 158.797 70.4565 158.797 69.1001C158.797 67.7519 157.702 66.6488 156.346 66.6488V66.657ZM161.829 50.7649L147.407 36.3518V46.7695C147.416 48.9675 149.197 50.7486 151.395 50.7567L161.829 50.7649Z" fill="black"/>
</svg>
