<svg width="55" height="55" viewBox="0 0 55 55" fill="none" xmlns="http://www.w3.org/2000/svg">
<circle cx="27.5" cy="27.5" r="27.5" fill="#F4F4F4"/>
<path d="M36.6836 26.0647L35.0193 25.794C34.884 25.3898 34.7487 24.9838 34.5237 24.6235L35.5131 23.2738C35.7838 22.9135 35.7381 22.374 35.4235 22.0594L33.9841 20.62C33.6696 20.3054 33.13 20.2597 32.7697 20.5304L31.42 21.5198C31.0597 21.3406 30.6555 21.1596 30.2495 21.0242L29.9788 19.3599C29.8892 18.91 29.4832 18.5497 29.0333 18.5497H27.0087C26.5588 18.5497 26.1546 18.91 26.0631 19.3599L25.7925 21.0242C25.3883 21.1595 24.9823 21.2949 24.622 21.5198L23.2722 20.5304C22.912 20.2597 22.3724 20.3054 22.0578 20.62L20.6185 22.0594C20.3039 22.374 20.2582 22.9135 20.5288 23.2738L21.5183 24.6235C21.339 24.9838 21.158 25.388 21.0227 25.794L19.3583 26.0647C18.9084 26.1543 18.5481 26.5146 18.5481 27.0102V29.0349C18.5481 29.5305 18.8627 29.889 19.3583 29.9804L21.0227 30.251C21.158 30.6553 21.2933 31.0613 21.5183 31.4215L20.5288 32.7713C20.2582 33.1316 20.3039 33.6711 20.6185 33.9857L22.0578 35.4251C22.3724 35.7397 22.912 35.7854 23.2722 35.5147L24.622 34.5252C24.9823 34.7045 25.3865 34.8855 25.7925 35.0209L26.0631 36.6852C26.1528 37.1351 26.5131 37.4954 27.0087 37.4954H29.0333C29.4832 37.4954 29.8874 37.1808 29.9788 36.6852L30.2495 35.0209C30.6537 34.8855 31.0597 34.7502 31.42 34.5252L32.7697 35.5147C33.13 35.7854 33.6696 35.7397 33.9841 35.4251L35.4235 33.9857C35.7381 33.6711 35.7838 33.1316 35.5131 32.7713L34.5237 31.4215C34.703 31.0613 34.884 30.6571 35.0193 30.251L36.6836 29.9804C37.1336 29.8908 37.4939 29.5305 37.4939 29.0349V27.0102C37.4482 26.5146 37.1336 26.1104 36.6836 26.0647ZM36.594 28.9891C36.594 29.0348 36.5483 29.0788 36.5483 29.0788L34.6133 29.3934C34.4341 29.4391 34.2987 29.5287 34.253 29.708C34.1177 30.2475 33.8928 30.7431 33.6239 31.193C33.5342 31.3284 33.5342 31.5076 33.6696 31.6887L34.7944 33.2634C34.8401 33.3091 34.7944 33.353 34.7944 33.353L33.355 34.7924C33.3093 34.8381 33.2654 34.8381 33.2654 34.7924L31.6907 33.6676C31.5553 33.5779 31.3761 33.5779 31.195 33.6219C30.7451 33.8925 30.2495 34.1175 29.71 34.251C29.5307 34.2967 29.4393 34.4303 29.3954 34.6113L29.0808 36.5463C29.0808 36.592 29.0351 36.592 28.9911 36.592H26.9665C26.9208 36.592 26.8769 36.5463 26.8769 36.5463L26.5623 34.6113C26.5166 34.4321 26.427 34.2967 26.2477 34.251C25.7082 34.1157 25.2125 33.8908 24.7626 33.6219C24.673 33.5762 24.6273 33.5762 24.5377 33.5762C24.448 33.5762 24.3584 33.6219 24.267 33.6658L22.6923 34.7906H22.6027L21.1633 33.3512C21.1176 33.3055 21.1176 33.2616 21.1633 33.2616L22.2881 31.6869C22.3777 31.5516 22.3777 31.3723 22.3338 31.1913C22.0632 30.7414 21.8839 30.2457 21.7046 29.7062C21.6589 29.5269 21.5254 29.4355 21.3444 29.3916L19.4094 29.077C19.3637 29.077 19.3637 29.0313 19.3637 28.9874V26.9628C19.3637 26.9171 19.4094 26.8731 19.4094 26.8731L21.3444 26.5585C21.5236 26.5129 21.6589 26.4232 21.7046 26.244C21.84 25.7483 22.0649 25.2088 22.3338 24.7589C22.4234 24.6236 22.4234 24.4443 22.2881 24.2633L21.1633 22.6886C21.1176 22.6429 21.1633 22.5989 21.1633 22.5989L22.6027 21.1595C22.6484 21.1139 22.6923 21.1139 22.6923 21.1595L24.267 22.2843C24.4023 22.374 24.5816 22.374 24.7627 22.33C25.2126 22.0594 25.7082 21.8801 26.2477 21.7009C26.427 21.6552 26.5623 21.5216 26.5623 21.3406L26.8769 19.4056C26.8769 19.3599 26.9226 19.3599 26.9665 19.3599H28.9912C29.0369 19.3599 29.0808 19.4056 29.0808 19.4056L29.3954 21.3406C29.4411 21.5199 29.5307 21.6552 29.71 21.7009C30.2056 21.8362 30.6994 22.0612 31.1951 22.33C31.3304 22.4197 31.5096 22.4197 31.6907 22.2843L33.2654 21.1595H33.355L34.7944 22.5989C34.8401 22.6446 34.8401 22.6886 34.7944 22.6886L33.6696 24.2633C33.58 24.3986 33.58 24.5778 33.6239 24.7589C33.8945 25.2088 34.1195 25.7044 34.2531 26.244C34.2988 26.4232 34.4323 26.5146 34.6133 26.5585L36.5483 26.8731C36.594 26.8731 36.594 26.9188 36.594 26.9628L36.594 28.9891Z" fill="#F48102"/>
<path d="M27.9998 23.1862C25.3461 23.1862 23.1862 25.3461 23.1862 27.9998C23.1862 30.6535 25.3461 32.8134 27.9998 32.8134C30.6535 32.8134 32.8135 30.6535 32.8135 27.9998C32.8135 25.3461 30.6535 23.1862 27.9998 23.1862ZM27.9998 31.9595C25.8399 31.9595 24.0402 30.2056 24.0402 27.9999C24.0402 25.796 25.7942 24.0403 27.9998 24.0403C30.2037 24.0403 31.9594 25.7942 31.9594 27.9999C31.9594 30.2038 30.1598 31.9595 27.9998 31.9595Z" fill="#F48102"/>
<path d="M30.6098 10.049C30.4745 9.95941 30.2952 10.0034 30.1599 10.0947L27.6853 11.803C27.6853 11.803 27.6397 11.803 27.6397 11.8487L27.5043 11.9383C19.9017 12.1633 13.557 17.6977 12.2072 25.1213H10.4533C10.274 25.1213 10.1387 25.2109 10.049 25.3463C9.95941 25.4816 10.0034 25.6609 10.0947 25.7962L11.8048 28.2707C11.8048 28.2707 11.8048 28.3164 11.8505 28.3164L11.9401 28.4517C12.1651 36.0544 17.6536 42.3991 25.1231 43.7488L25.1213 45.5468C25.1213 45.726 25.2109 45.8613 25.3463 45.951C25.392 45.9967 25.4816 45.9967 25.5712 45.9967C25.6609 45.9967 25.7505 45.951 25.8419 45.907L28.3164 44.197C28.3164 44.197 28.3621 44.197 28.3621 44.1513L28.4974 44.0617C36.1001 43.8367 42.4448 38.3023 43.7945 30.8787H45.5467C45.726 30.8787 45.8613 30.7891 45.951 30.6538C46.0406 30.5184 45.9966 30.3392 45.9053 30.2038L44.197 27.6853C44.197 27.6853 44.197 27.6397 44.1513 27.6397L44.0617 27.5043C43.8367 19.9017 38.3023 13.557 30.8787 12.2072V10.4533C30.8787 10.274 30.7891 10.1387 30.6098 10.049ZM12.5673 27.8648L11.3072 26.0194H12.5673C12.7923 26.0194 12.9276 25.8401 12.9715 25.6591H13.0172C14.0524 18.9104 19.4515 13.7823 26.0648 12.972L25.3442 13.4676C25.2088 13.5572 25.1649 13.6926 25.1649 13.8279C25.1649 13.9632 25.2545 14.0985 25.3442 14.1882L26.4232 14.9527C20.8011 15.6275 16.1224 19.9017 15.0417 25.4798V25.5694C15.0417 25.7944 15.221 26.0193 15.4917 26.0193H16.3458L13.8255 29.6644L12.6111 27.9104C12.5672 27.9104 12.5673 27.8648 12.5673 27.8648ZM38.4374 30.61C38.527 30.7453 38.6624 30.8349 38.8416 30.8349H39.9664C38.7063 36.1444 33.9385 40.0582 28.4477 40.2832L25.7939 38.4378C25.6586 38.3482 25.4793 38.3482 25.344 38.3921C25.2087 38.4817 25.119 38.6171 25.119 38.7963V39.9211C19.8096 38.661 15.8958 33.8931 15.6708 28.4024L17.5162 25.7925C17.6058 25.6572 17.6058 25.4779 17.5619 25.3426C17.4723 25.2073 17.3369 25.1176 17.1577 25.1176H16.0329C17.293 19.8082 22.0609 15.8944 27.5516 15.6694L30.2054 17.5148C30.295 17.5605 30.3847 17.6044 30.476 17.6044C30.5657 17.6044 30.6114 17.6044 30.701 17.5587C30.8363 17.4691 30.926 17.3338 30.926 17.1545V16.0297C36.2354 17.2898 40.1492 22.0577 40.3742 27.5484L38.5288 30.1583C38.3935 30.2954 38.3478 30.4747 38.4374 30.61ZM28.1789 43.2517C28.1789 43.2517 28.1332 43.2517 28.1332 43.2974L27.9539 43.4327C27.9539 43.4327 27.9083 43.4327 27.9083 43.4784L26.0629 44.7385V43.4784C26.0629 43.2535 25.8836 43.1181 25.7026 43.0742V43.0285C18.9539 41.9494 13.8257 36.5943 13.0154 29.9351L13.5111 30.6557C13.6007 30.791 13.736 30.8349 13.8714 30.8349C14.0067 30.8349 14.142 30.7453 14.2316 30.6557L14.9961 29.5766C15.671 35.1546 19.9452 39.8351 25.5691 40.914H25.6588C25.8837 40.914 26.1087 40.7347 26.1087 40.4641V39.61L29.7537 42.1302L28.1789 43.2517ZM43.2511 27.9105L43.3864 28.0898C43.3864 28.0898 43.3864 28.1355 43.4321 28.1355L44.6922 29.9808H43.4321C43.2071 29.9808 43.0718 30.1601 43.0279 30.3411H42.9822C41.947 37.0898 36.5479 42.218 29.8887 43.0283L30.6093 42.5326C30.7446 42.443 30.7886 42.3077 30.7886 42.1724C30.7886 42.037 30.699 41.9017 30.6093 41.8121L29.5302 41.0476C35.1983 40.3727 39.8765 36.0985 40.9572 30.5205V30.4308C40.9572 30.2059 40.7779 29.9809 40.5073 29.9809H39.6532L42.1734 26.3359L43.2086 27.821C43.2507 27.8649 43.2511 27.8648 43.2511 27.9105ZM43.0718 26.0651L42.5762 25.3445C42.4865 25.2092 42.3512 25.1653 42.2159 25.1653C42.0806 25.1653 41.9452 25.2549 41.8556 25.3445L41.0911 26.4236C40.3723 20.8015 36.0979 16.1228 30.5199 15.0421H30.4303C30.2053 15.0421 29.9804 15.2214 29.9804 15.492V16.3461L26.3353 13.8259L27.8204 12.7907C27.8204 12.7907 27.8661 12.7907 27.8661 12.745L28.0454 12.6097C28.0454 12.6097 28.0911 12.6097 28.0911 12.564L29.9364 11.3039V12.564C29.9364 12.789 30.1157 12.9243 30.2967 12.9682V13.0139C37.0877 14.0526 42.2174 19.4059 43.0718 26.0651Z" fill="#F48102"/>
</svg>
