<svg xmlns="http://www.w3.org/2000/svg" width="60" height="60" viewBox="0 0 60 60">
  <g id="Group_8337" data-name="Group 8337" transform="translate(-964 -4969)">
    <circle id="Ellipse_14" data-name="Ellipse 14" cx="30" cy="30" r="30" transform="translate(964 4969)" fill="#fff2e8"/>
    <g id="MDI_application-edit-outline" data-name="MDI / application-edit-outline" transform="translate(982 4963)">
      <g id="Boundary" transform="translate(0 24)" fill="#f48120" stroke="rgba(0,0,0,0)" stroke-width="1" opacity="0">
        <rect width="24" height="24" stroke="none"/>
        <rect x="0.5" y="0.5" width="23" height="23" fill="none"/>
      </g>
      <path id="Path_application-edit-outline" data-name="Path / application-edit-outline" d="M11,20v2H3a2.006,2.006,0,0,1-2-2V4A2.006,2.006,0,0,1,3,2H21a2.006,2.006,0,0,1,2,2v8.1l-.2-.2a2.5,2.5,0,0,0-1.8-.8V6H3V20h8m10.4-6.7,1.3,1.3a.608.608,0,0,1,0,.8l-1,1-2.1-2.1,1-1a.5.5,0,0,1,.8,0m-.3,3.6-6,6.1H13V20.9l6.1-6.1Z" transform="translate(0 24)" fill="#f48120"/>
    </g>
  </g>
</svg>
