<svg width="256" height="256" viewBox="0 0 256 256" fill="none" xmlns="http://www.w3.org/2000/svg">
<path d="M88.6108 132.575C88.7139 130.617 88.0337 128.742 86.7145 127.299C83.9937 124.311 79.3559 124.105 76.3671 126.805L51.4674 149.515C49.9421 150.896 49.0764 152.874 49.0764 154.935C49.0764 156.996 49.9421 158.974 51.4674 160.355L76.3877 183.024C77.7275 184.26 79.4796 184.941 81.3141 184.941C83.3753 184.941 85.3541 184.075 86.7351 182.55C88.0543 181.107 88.7345 179.232 88.6314 177.274C88.549 175.317 87.6833 173.524 86.2404 172.205L67.2565 154.935L86.2404 137.665C87.6833 136.326 88.5284 134.533 88.6108 132.575ZM83.1898 134.306L60.5368 154.935L83.1898 175.543C83.7463 176.038 84.0555 176.738 84.0967 177.48C84.138 178.222 83.87 178.944 83.3753 179.5C82.3859 180.592 80.5308 180.695 79.4383 179.685L54.4974 156.996C53.9203 156.46 53.5905 155.718 53.5905 154.935C53.5905 154.152 53.9203 153.389 54.4974 152.874L79.4177 130.184C79.9536 129.69 80.6339 129.463 81.2935 129.463C82.0561 129.463 82.8188 129.772 83.3547 130.37C83.8494 130.926 84.1173 131.627 84.0761 132.369C84.0555 133.111 83.7463 133.812 83.1898 134.306ZM139.523 177.274C139.441 179.232 140.1 181.107 141.42 182.55C142.801 184.075 144.779 184.941 146.841 184.941C148.655 184.941 150.407 184.26 151.767 183.024L176.687 160.334C178.213 158.954 179.078 156.975 179.078 154.914C179.078 152.854 178.213 150.896 176.687 149.494L151.767 126.825C150.324 125.506 148.469 124.826 146.49 124.929C144.532 125.032 142.739 125.877 141.42 127.32C140.1 128.762 139.42 130.638 139.523 132.596C139.626 134.553 140.471 136.346 141.914 137.665L160.898 154.935L141.914 172.205C140.471 173.503 139.626 175.317 139.523 177.274ZM144.965 175.543L167.618 154.935L144.965 134.306C144.408 133.812 144.099 133.111 144.058 132.369C144.017 131.627 144.285 130.906 144.779 130.349C145.274 129.793 145.954 129.484 146.717 129.443C146.758 129.443 146.799 129.443 146.861 129.443C147.562 129.443 148.222 129.69 148.737 130.164L173.657 152.854C174.234 153.389 174.564 154.131 174.564 154.914C174.564 155.697 174.234 156.46 173.657 156.975L148.716 179.665C147.603 180.675 145.769 180.592 144.779 179.479C144.285 178.923 144.017 178.222 144.058 177.48C144.079 176.738 144.408 176.038 144.965 175.543ZM100.112 184.384C100.999 184.755 101.926 184.941 102.895 184.941C105.884 184.941 108.543 183.148 109.677 180.407L128.31 135.027C129.835 131.297 128.042 127.011 124.311 125.486C120.581 123.961 116.293 125.754 114.768 129.484L96.1343 174.863C94.5884 178.552 96.3611 182.839 100.112 184.384ZM100.298 176.553L118.932 131.174C119.364 130.102 120.416 129.443 121.529 129.443C121.879 129.443 122.23 129.504 122.58 129.649C124.002 130.226 124.682 131.874 124.105 133.296L105.472 178.676C104.895 180.056 103.246 180.778 101.823 180.201C100.401 179.603 99.7209 177.975 100.298 176.553ZM218.139 25H65.4426C60.6193 25 56.703 28.895 56.703 33.7173V60.8789H37.7396C32.9163 60.8789 29 64.7739 29 69.5756V222.283C29 227.105 32.9163 231 37.7396 231H190.436C195.238 231 199.155 227.105 199.155 222.283V195.121H218.159C222.962 195.121 226.899 191.226 226.899 186.424V33.7173C226.878 28.895 222.941 25 218.139 25ZM194.62 222.283C194.62 224.591 192.744 226.466 190.436 226.466H37.7396C35.4104 226.466 33.5347 224.591 33.5347 222.283V83.3831H194.641V222.283H194.62ZM194.62 78.8493H33.5141V69.5756C33.5141 67.2881 35.3898 65.4128 37.719 65.4128H190.415C192.724 65.4128 194.599 67.2881 194.599 69.5756V78.8493H194.62ZM222.364 186.424C222.364 188.712 220.468 190.587 218.159 190.587H199.155V69.5756C199.155 64.7739 195.238 60.8789 190.436 60.8789H61.2377V33.7173C61.2377 31.4092 63.1134 29.5338 65.4426 29.5338H218.139C220.447 29.5338 222.344 31.4092 222.344 33.7173V186.424H222.364ZM161.414 72.131C161.414 73.8827 159.991 75.3047 158.239 75.3047C156.487 75.3047 155.065 73.8827 155.065 72.131C155.065 70.3587 156.487 68.9574 158.239 68.9574C159.991 68.9574 161.414 70.3793 161.414 72.131ZM174.42 72.131C174.42 73.8827 173.018 75.3047 171.246 75.3047C169.494 75.3047 168.071 73.8827 168.071 72.131C168.071 70.3587 169.494 68.9574 171.246 68.9574C173.018 68.9574 174.42 70.3793 174.42 72.131ZM187.467 72.131C187.467 73.8827 186.045 75.3047 184.293 75.3047C182.541 75.3047 181.119 73.8827 181.119 72.131C181.119 70.3587 182.541 68.9574 184.293 68.9574C186.045 68.9574 187.467 70.3793 187.467 72.131ZM188.374 37.571C188.374 39.3433 186.952 40.7447 185.2 40.7447C183.448 40.7447 182.026 39.3433 182.026 37.571C182.026 35.8193 183.448 34.3974 185.2 34.3974C186.952 34.3974 188.374 35.8193 188.374 37.571ZM201.401 37.571C201.401 39.3433 200 40.7447 198.227 40.7447C196.475 40.7447 195.053 39.3433 195.053 37.571C195.053 35.8193 196.475 34.3974 198.227 34.3974C200 34.3974 201.401 35.8193 201.401 37.571ZM214.428 37.571C214.428 39.3433 213.006 40.7447 211.254 40.7447C209.502 40.7447 208.08 39.3433 208.08 37.571C208.08 35.8193 209.502 34.3974 211.254 34.3974C213.006 34.3974 214.428 35.8193 214.428 37.571ZM46.9121 198.666C46.9121 197.409 47.9221 196.399 49.1795 196.399H85.9312C87.1886 196.399 88.1986 197.409 88.1986 198.666C88.1986 199.923 87.1886 200.933 85.9312 200.933H49.1795C47.9427 200.933 46.9121 199.923 46.9121 198.666ZM46.9121 214.493C46.9121 213.236 47.9221 212.226 49.1795 212.226H114.067C115.324 212.226 116.334 213.236 116.334 214.493C116.334 215.75 115.324 216.76 114.067 216.76H49.1795C47.9427 216.76 46.9121 215.75 46.9121 214.493ZM46.9121 94.2231C46.9121 92.966 47.9221 91.9562 49.1795 91.9562H73.5844C74.8418 91.9562 75.8518 92.966 75.8518 94.2231C75.8518 95.4802 74.8418 96.49 73.5844 96.49H49.1795C47.9427 96.49 46.9121 95.4802 46.9121 94.2231ZM46.9121 110.071C46.9121 108.814 47.9221 107.804 49.1795 107.804H92.2592C93.5166 107.804 94.5266 108.814 94.5266 110.071C94.5266 111.328 93.5166 112.338 92.2592 112.338H49.1795C47.9427 112.317 46.9121 111.307 46.9121 110.071Z" fill="black"/>
</svg>
