<svg id="logo-sb" xmlns="http://www.w3.org/2000/svg" width="219.566" height="35" viewBox="0 0 219.566 35">
  <path id="Path_7585" data-name="Path 7585" d="M49.13,35,56.54,0H7.41L0,35Z" fill="#fff"/>
  <path id="Path_7586" data-name="Path 7586" d="M38.242,7.832c5.706,1.335,5.854,2.744,5.854,2.744,3.705,0,4.668,0,5.335.667,2.149,2-1.482,6.9-1.482,6.9C47.5,18.436,6.6,34.453,6.6,34.453H49.654L56.545,1.9H10.305s27.27,5.784,27.937,5.932" transform="translate(-1.709 -0.491)" fill="#336"/>
  <path id="Path_7587" data-name="Path 7587" d="M53.653,16.016a14.217,14.217,0,0,1-2.964.667c-.593.074-.889.074-.889.222,0,.222.815.148,1.112.148,1.334,0,6.6-.371,7.855-.148.963.148-.148,2.076-.445,3.263-.074.445.222.222.371,0a12.986,12.986,0,0,0,1.482-3.263c.148-1.483-.889-1.706-2.668-1.706H54.765a.342.342,0,0,0-.371.222c-.222.222-.593.445-.741.593" transform="translate(-12.897 -3.929)" fill="#336"/>
  <path id="Path_7588" data-name="Path 7588" d="M24.308,26.189,2.3,37.089,7.635,12.1H29.866c.371,0,11.931,0,12.153,2.3H22.011l3.112,9.492c3.557-1.706,12.3-5.265,17.562-5.487,2.223-.074,3.112.3,2.668.593-.3.148-2.445.445-4.15.89a57.162,57.162,0,0,0-6.225,1.78,103.027,103.027,0,0,0-10.671,4.523" transform="translate(-0.596 -3.128)" fill="#336"/>
  <path id="Path_7589" data-name="Path 7589" d="M86.086,25.068c-5.944,0-9.479-2.359-8.3-7.64C79.732,8.3,81.013,2.2,81.013,2.2h4.97S82.96,16.249,83.063,15.941c-.769,3.487,0,5.589,3.792,5.589,3.638,0,5.483-2.1,6.251-5.589.461-2,2.921-13.741,2.921-13.741H101c-3.331,15.228,0,0-3.279,15.228-1.23,5.23-5.739,7.64-11.631,7.64" transform="translate(-18.086 4.333)" fill="#336"/>
  <path id="Path_7590" data-name="Path 7590" d="M164.568,16.1a23.438,23.438,0,0,1-3.228-.256l.615-3.23c.615.051,1.435.154,2.2.154a4.59,4.59,0,0,0,4.868-3.692c.512-2.461-.717-3.333-2.511-3.333h-4.048l-4,18.92H153.5L158.265,2.2h10.76c4.868,0,5.431,4.256,4.816,7.076-.922,4.2-4.868,6.819-9.274,6.819" transform="translate(-55.115 4.333)" fill="#336"/>
  <path id="Path_7591" data-name="Path 7591" d="M137.095,5.789h-5.278c-2.716,0-3.894.564-4.15,1.641-.769,3.589,8.916,6.409,7.993,11.947-.512,3.076-3.177,5.281-9.377,5.281H118.7l.769-3.589h6.046c1.9,0,4.2.1,4.612-1.795.717-3.23-8.813-6.409-8.1-11.793.461-3.23,3.331-5.281,9.121-5.281h6.661Z" transform="translate(-38.146 4.333)" fill="#336"/>
  <path id="Path_7592" data-name="Path 7592" d="M209.195,5.789h-5.278c-2.716,0-3.894.564-4.15,1.641-.769,3.589,8.916,6.409,7.993,11.947-.512,3.076-3.177,5.281-9.377,5.281H190.8l.769-3.589h6.1c1.9,0,4.2.1,4.612-1.795.717-3.23-8.813-6.409-8.1-11.793.461-3.23,3.331-5.281,9.121-5.281h6.661Z" transform="translate(-73.303 4.333)" fill="#336"/>
  <path id="Path_7593" data-name="Path 7593" d="M228.1,38.2a2,2,0,1,0,2,2,2,2,0,0,0-2-2" transform="translate(-90.515 -13.208)" fill="#336"/>
  <path id="Path_7594" data-name="Path 7594" d="M347.26,2l-4.868,22.509h-4.15l3.689-16.715-9.889,16.715h-4.253L325.432,8.871,322,24.509h-4.1L322.665,2h5.944l2.511,16.561L340.753,2Z" transform="translate(-135.278 4.43)" fill="#336" fill-rule="evenodd"/>
  <path id="Path_7595" data-name="Path 7595" d="M245.409,24.532a12.727,12.727,0,0,1-7.583-2.1,7.941,7.941,0,0,1-3.126-6.717,12.694,12.694,0,0,1,.359-2.974C236.7,4.689,243.411,1.1,250.225,1.1a27.343,27.343,0,0,1,5.021.513l.359.051-.82,3.64-.307-.051c-1.127-.1-1.9-.205-2.921-.205a25.728,25.728,0,0,0-2.767.154,8.832,8.832,0,0,0-4.458,1.641,9.858,9.858,0,0,0-4.612,8.1,4.774,4.774,0,0,0,2.255,4.307,10.56,10.56,0,0,0,5.739,1.436,24.453,24.453,0,0,0,3.382-.205l.512-.051-.769,3.538-.256.051a29.027,29.027,0,0,1-5.175.513Z" transform="translate(-94.709 4.869)" fill="#336"/>
  <path id="Path_7596" data-name="Path 7596" d="M286.044,1.9c-6.866,0-12.554,3.589-14.193,11.434-1.332,6.307,2.511,11.485,9.326,11.485,6.917,0,12.451-3.435,14.193-11.485C296.7,6.771,292.807,1.9,286.044,1.9m4.714,11.485c-1.076,5.64-4.458,8.05-8.711,8.05-4.2,0-6.507-3.64-5.739-8.05,1.025-5.538,4.509-8,8.711-8,4.2-.051,6.61,3.384,5.739,8" transform="translate(-112.696 4.479)" fill="#336"/>
  <path id="Path_7597" data-name="Path 7597" d="M379.512,4.867a2.306,2.306,0,1,1,4.612,0,2.322,2.322,0,0,1-2.306,2.41,2.291,2.291,0,0,1-2.306-2.41m-.512,0a2.818,2.818,0,1,0,5.636,0A2.768,2.768,0,0,0,381.818,2.1,2.736,2.736,0,0,0,379,4.867m1.742,1.641h.512V5.124h.564l.871,1.436h.564l-.922-1.436c.512-.051.871-.308.871-.872,0-.615-.359-.923-1.127-.923h-1.281V6.508m.461-2.871h.666c.359,0,.717.051.717.513,0,.513-.41.564-.871.564h-.512Z" transform="translate(-165.071 4.383)" fill="#336"/>
</svg>
