<svg id="_Group_" xmlns="http://www.w3.org/2000/svg" width="180" height="35" viewBox="0 0 180 35">
  <path id="_Path_" d="M14.1,5.508c-2.111,0-2.744.932-2.744,3.008v3.432h5.657l-.549,5.593H11.356V34.449h-6.8V17.542H0V11.992H4.559V8.644C4.559,2.966,6.839,0,13.129,0A31.189,31.189,0,0,1,17.1.254V5.508" fill="#004f9d"/>
  <path id="_Compound_Path_" d="M41.342,38.117c0-6.271,2.955-11.017,9.2-11.017A6.677,6.677,0,0,1,57,31.041V27.608h6.5v22.5H56.961v-3.39c-.929,2.161-3.082,3.856-6.459,3.856-6.205,0-9.2-4.7-9.2-11.017m6.839.085c0,3.347,1.224,5.593,4.39,5.593,2.786,0,4.179-2.034,4.179-5.254V37.693c0-3.22-1.435-5.254-4.179-5.254-3.166,0-4.39,2.2-4.39,5.593v1.61Z" transform="translate(-23.866 -15.617)" fill="#004f9d"/>
  <path id="_Path_2" d="M111.467,27.1c2.617,0,5.15.551,6.5,1.525l-1.52,4.831a10.361,10.361,0,0,0-4.517-1.017c-3.673,0-5.277,2.119-5.277,5.763v1.314c0,3.644,1.6,5.763,5.277,5.763a10.4,10.4,0,0,0,4.517-1.059l1.52,4.831a12.377,12.377,0,0,1-6.5,1.525c-7.978,0-11.567-4.28-11.567-11.186V38.329c0-6.907,3.588-11.229,11.567-11.229" transform="translate(-57.728 -15.617)" fill="#004f9d"/>
  <path id="_Compound_Path_2" d="M144.8,39.685V37.693c0-6.4,3.63-10.593,11.018-10.593,6.965,0,10.047,4.237,10.047,10.508v3.6H151.6c.127,3.093,1.52,4.449,5.277,4.449a20.2,20.2,0,0,0,7.219-1.356l1.224,4.661a21.889,21.889,0,0,1-8.7,1.653c-8.612-.042-11.82-4.322-11.82-10.932m6.8-2.966h8.189v-.551c0-2.458-.971-4.407-3.968-4.407-3.039,0-4.221,1.949-4.221,4.958" transform="translate(-83.674 -15.617)" fill="#004f9d"/>
  <path id="_Compound_Path_3" d="M223.731,24.056c0,6.271-3,11.017-9.245,11.017-3.377,0-5.741-1.695-6.67-3.856v3.39H201.4V.793L208.2.2V15.242a6.761,6.761,0,0,1,6.332-3.6c6.205,0,9.245,4.7,9.245,11.017m-6.839-.169c0-3.178-1.224-5.551-4.475-5.551-2.786,0-4.264,1.992-4.264,5.212v2.373c0,3.22,1.52,5.212,4.264,5.212,3.25,0,4.475-2.373,4.475-5.551V22.488Z" transform="translate(-116.381 -0.115)" fill="#004f9d"/>
  <path id="_Compound_Path_4" d="M259.6,39.388V38.244c0-6.483,3.673-11.144,11.144-11.144s11.145,4.661,11.145,11.144v1.144c0,6.483-3.673,11.144-11.145,11.144S259.6,45.914,259.6,39.388m15.535-1.61c0-2.966-1.224-5.339-4.39-5.339s-4.39,2.373-4.39,5.339V39.9c0,2.966,1.224,5.339,4.39,5.339s4.39-2.373,4.39-5.339Z" transform="translate(-150.013 -15.617)" fill="#004f9d"/>
  <path id="_Compound_Path_5" d="M317.9,39.388V38.244c0-6.483,3.673-11.144,11.144-11.144s11.145,4.661,11.145,11.144v1.144c0,6.483-3.673,11.144-11.145,11.144S317.9,45.914,317.9,39.388m15.535-1.61c0-2.966-1.224-5.339-4.39-5.339s-4.39,2.373-4.39,5.339V39.9c0,2.966,1.224,5.339,4.39,5.339s4.39-2.373,4.39-5.339Z" transform="translate(-183.702 -15.617)" fill="#004f9d"/>
  <path id="_Path_3" d="M383.554,22.769l6.712-10.763h7.176l-7.008,11.144,7.3,11.4H390.52l-6.965-11.017V34.549H376.8V.736L383.554.1" transform="translate(-217.738 -0.058)" fill="#004f9d"/>
</svg>
