<svg xmlns="http://www.w3.org/2000/svg" width="133" height="35" viewBox="0 0 133 35">
  <g id="paypal-svgrepo-com" transform="translate(9.069 -19.35)">
    <g id="Group_8514" data-name="Group 8514" transform="translate(-9.069 19.35)">
      <path id="Path_7570" data-name="Path 7570" d="M30.143,37.22l.565-3.612-1.258-.029H23.443L27.617,6.927a.353.353,0,0,1,.117-.209.339.339,0,0,1,.223-.083H38.084c3.362,0,5.683.7,6.894,2.095a4.79,4.79,0,0,1,1.1,2.084,7.578,7.578,0,0,1,.008,2.875l-.013.083v.735l.568.324a4,4,0,0,1,1.15.882,4.128,4.128,0,0,1,.933,2.107A8.967,8.967,0,0,1,48.6,20.88a10.815,10.815,0,0,1-1.244,3.461,7.1,7.1,0,0,1-1.971,2.174,7.962,7.962,0,0,1-2.654,1.206,13.16,13.16,0,0,1-3.317.386h-.788a2.381,2.381,0,0,0-1.541.571,2.407,2.407,0,0,0-.8,1.444l-.059.325-1,6.366-.045.234a.2.2,0,0,1-.063.136.165.165,0,0,1-.1.038H30.143" transform="translate(-22.297 -5.522)" fill="#28356a" fill-rule="evenodd"/>
      <path id="Path_7571" data-name="Path 7571" d="M44.123,9.852c-.03.195-.065.393-.1.6-1.336,6.905-5.905,9.291-11.741,9.291H29.306a1.446,1.446,0,0,0-1.426,1.23l-1.952,12.47a.764.764,0,0,0,.75.885h5.27A1.271,1.271,0,0,0,33.2,33.25l.052-.269.992-6.341.064-.348a1.27,1.27,0,0,1,1.252-1.079h.788c5.106,0,9.1-2.087,10.272-8.128.488-2.524.235-4.631-1.056-6.113a5.039,5.039,0,0,0-1.443-1.12" transform="translate(-19.237 -1.516)" fill="#298fc2" fill-rule="evenodd"/>
      <path id="Path_7572" data-name="Path 7572" d="M41.641,9.87q-.306-.09-.631-.163c-.217-.048-.439-.09-.668-.127a16.405,16.405,0,0,0-2.619-.192H29.784a1.253,1.253,0,0,0-.547.125,1.273,1.273,0,0,0-.7.954L26.844,21.236l-.049.314a1.446,1.446,0,0,1,1.426-1.231h2.972c5.836,0,10.406-2.387,11.741-9.291.04-.2.073-.4.1-.6a7.079,7.079,0,0,0-1.1-.467c-.1-.033-.2-.064-.3-.094" transform="translate(-18.152 -2.095)" fill="#22284f" fill-rule="evenodd"/>
      <path id="Path_7573" data-name="Path 7573" d="M33.311,14.51a1.269,1.269,0,0,1,.7-.952,1.252,1.252,0,0,1,.547-.125H42.5a16.409,16.409,0,0,1,2.62.192q.343.055.668.127t.631.163c.1.03.2.062.3.094a7.206,7.206,0,0,1,1.1.467c.4-2.552,0-4.289-1.374-5.863-1.511-1.732-4.237-2.474-7.726-2.474H28.59A1.45,1.45,0,0,0,27.16,7.371L22.941,34.3a.874.874,0,0,0,.859,1.013h6.253l3.259-20.8" transform="translate(-22.931 -6.139)" fill="#28356a" fill-rule="evenodd"/>
    </g>
    <path id="Path_7574" data-name="Path 7574" d="M19.393,23.521H12.008a1.028,1.028,0,0,0-1.014.872L8.008,43.46a.618.618,0,0,0,.609.715h3.525a1.028,1.028,0,0,0,1.014-.873l.806-5.143a1.027,1.027,0,0,1,1.013-.873h2.338c4.864,0,7.672-2.37,8.405-7.067a5.758,5.758,0,0,0-.942-4.8C23.726,24.178,21.864,23.521,19.393,23.521Zm.852,6.964c-.4,2.668-2.428,2.668-4.386,2.668H14.744l.782-4.983a.617.617,0,0,1,.608-.523h.511c1.333,0,2.591,0,3.241.765A2.492,2.492,0,0,1,20.245,30.485Z" transform="translate(21.103 5.195)" fill="#28356a" fill-rule="evenodd"/>
    <path id="Path_7575" data-name="Path 7575" d="M32.3,26.706H28.76a.617.617,0,0,0-.608.523l-.157,1-.247-.361c-.765-1.119-2.473-1.493-4.176-1.493a8.152,8.152,0,0,0-7.9,7.161A6.756,6.756,0,0,0,16.994,39a5.514,5.514,0,0,0,4.454,1.811,6.747,6.747,0,0,0,4.894-2.039l-.157.99a.618.618,0,0,0,.607.717h3.185a1.028,1.028,0,0,0,1.014-.873L32.9,27.421A.616.616,0,0,0,32.3,26.706Zm-4.929,6.93a3.949,3.949,0,0,1-3.99,3.4A2.974,2.974,0,0,1,21,36.076a3.045,3.045,0,0,1-.555-2.5,3.967,3.967,0,0,1,3.963-3.427,2.975,2.975,0,0,1,2.358.97A3.1,3.1,0,0,1,27.367,33.636Z" transform="translate(30.462 8.744)" fill="#28356a" fill-rule="evenodd"/>
    <path id="Path_7576" data-name="Path 7576" d="M40.458,26.656H36.9a1.027,1.027,0,0,0-.85.454l-4.9,7.269-2.078-6.986a1.03,1.03,0,0,0-.985-.737H24.6a.62.62,0,0,0-.584.82l3.914,11.566-3.68,5.231a.62.62,0,0,0,.5.979H28.3a1.023,1.023,0,0,0,.843-.443L40.963,27.629a.62.62,0,0,0-.505-.973" transform="translate(40.861 9.099)" fill="#28356a" fill-rule="evenodd"/>
    <path id="Path_7577" data-name="Path 7577" d="M42.945,23.521H35.56a1.028,1.028,0,0,0-1.013.872L31.56,43.46a.617.617,0,0,0,.607.715h3.79a.719.719,0,0,0,.708-.611l.848-5.4a1.027,1.027,0,0,1,1.013-.873h2.337c4.865,0,7.672-2.37,8.406-7.067a5.754,5.754,0,0,0-.943-4.8C47.277,24.178,45.417,23.521,42.945,23.521Zm.852,6.964c-.4,2.668-2.427,2.668-4.386,2.668H38.3l.783-4.983a.614.614,0,0,1,.607-.523H40.2c1.332,0,2.591,0,3.241.765A2.492,2.492,0,0,1,43.8,30.485Z" transform="translate(50.22 5.195)" fill="#298fc2" fill-rule="evenodd"/>
    <path id="Path_7578" data-name="Path 7578" d="M55.844,26.706H52.309a.614.614,0,0,0-.607.523l-.157,1-.248-.361c-.765-1.119-2.472-1.493-4.176-1.493a8.151,8.151,0,0,0-7.894,7.161A6.759,6.759,0,0,0,40.544,39,5.518,5.518,0,0,0,45,40.813a6.747,6.747,0,0,0,4.894-2.039l-.157.99a.618.618,0,0,0,.609.717h3.184a1.028,1.028,0,0,0,1.013-.873l1.912-12.187A.619.619,0,0,0,55.844,26.706Zm-4.929,6.93a3.948,3.948,0,0,1-3.99,3.4,2.977,2.977,0,0,1-2.374-.96,3.053,3.053,0,0,1-.555-2.5,3.969,3.969,0,0,1,3.963-3.427,2.975,2.975,0,0,1,2.358.97A3.085,3.085,0,0,1,50.915,33.636Z" transform="translate(59.579 8.744)" fill="#298fc2" fill-rule="evenodd"/>
    <path id="Path_7579" data-name="Path 7579" d="M50.012,24.045,46.981,43.461a.617.617,0,0,0,.607.715h3.047a1.026,1.026,0,0,0,1.014-.873l2.989-19.066a.618.618,0,0,0-.607-.717H50.619a.618.618,0,0,0-.607.524" transform="translate(69.285 5.195)" fill="#298fc2" fill-rule="evenodd"/>
  </g>
</svg>
