<svg width="80" height="80" viewBox="0 0 80 80" fill="none" xmlns="http://www.w3.org/2000/svg">
<path d="M40.0005 79.9999C62.0919 79.9999 80.0005 62.0913 80.0005 39.9999C80.0005 17.9085 62.0919 -6.10352e-05 40.0005 -6.10352e-05C17.9091 -6.10352e-05 0.000488281 17.9085 0.000488281 39.9999C0.000488281 62.0913 17.9091 79.9999 40.0005 79.9999Z" fill="#FFF2E8"/>
<path d="M38.8965 55.2134C39.3373 55.0292 39.8193 54.966 40.2927 55.0302C40.7662 55.0944 41.2139 55.2837 41.5898 55.5786C41.6281 55.606 41.6614 55.6397 41.6885 55.6782C42.0072 56.0786 42.2074 56.5603 42.2664 57.0687C42.3255 57.5771 42.241 58.0919 42.0225 58.5547C41.8285 58.9226 41.5374 59.2303 41.1809 59.4444C40.8243 59.6585 40.4159 59.7708 40 59.769C39.8686 59.769 39.7386 59.7948 39.6172 59.845C39.4959 59.8953 39.3857 59.9689 39.2928 60.0618C39.1999 60.1547 39.1263 60.2649 39.076 60.3863C39.0258 60.5076 38.9999 60.6377 39 60.769V65H41V61.6523C41.5935 61.512 42.1499 61.2459 42.6318 60.8721C43.1136 60.4982 43.5096 60.0253 43.793 59.4853C44.1811 58.7006 44.3441 57.8236 44.2637 56.9517C44.1834 56.0799 43.8629 55.2475 43.3379 54.5469C43.1727 54.3062 42.9648 54.0979 42.7246 53.9321C42.0648 53.4392 41.2862 53.1298 40.468 53.0353C39.6499 52.9408 38.8213 53.0646 38.0664 53.394C37.3788 53.7093 36.784 54.1964 36.3393 54.8083C35.8946 55.4202 35.615 56.1363 35.5273 56.8877L37.5156 57.1123C37.5633 56.7038 37.7154 56.3145 37.9572 55.9819C38.1991 55.6493 38.5226 55.3846 38.8965 55.2134Z" fill="#F48120"/>
<path d="M41 66H39V68H41V66Z" fill="#F48120"/>
<path d="M37.0703 21.2607V22.0507C36.7567 22.1943 36.4564 22.3654 36.1729 22.5619L35.417 22.1401C35.2306 22.0365 35.016 21.995 34.8044 22.0217C34.5927 22.0484 34.3951 22.1419 34.2403 22.2885C33.1778 23.2947 32.4143 24.5751 32.0342 25.9882C31.9766 26.2032 31.9924 26.4312 32.079 26.6361C32.1657 26.8411 32.3184 27.0112 32.5127 27.1196L33.2295 27.52C33.2168 27.6821 33.21 27.8422 33.21 28C33.21 28.1577 33.2168 28.3178 33.2295 28.48L32.5127 28.8803C32.3186 28.9888 32.1661 29.1589 32.0794 29.3637C31.9928 29.5685 31.9768 29.7963 32.0342 30.0112C32.4127 31.4249 33.1749 32.7064 34.2364 33.7138C34.391 33.861 34.5886 33.9548 34.8003 33.9815C35.0121 34.0082 35.2268 33.9664 35.4131 33.8623L36.128 33.417C36.4274 33.6191 36.7426 33.7971 37.0703 33.9492V34.7427C37.0703 34.9628 37.1429 35.1768 37.2769 35.3514C37.411 35.5261 37.5989 35.6516 37.8116 35.7085C38.5261 35.9011 39.2629 35.9991 40.003 36C40.0371 36 40.0713 36 40.1055 35.9995C40.8094 35.9886 41.5092 35.8897 42.1885 35.7051C42.4012 35.6482 42.5891 35.5227 42.7231 35.348C42.8571 35.1734 42.9298 34.9594 42.9297 34.7392V33.9492C43.2434 33.8056 43.5437 33.6346 43.8272 33.438L44.583 33.8599C44.7691 33.9641 44.9837 34.006 45.1953 33.9794C45.4069 33.9527 45.6044 33.859 45.7588 33.7119C46.8217 32.7056 47.5855 31.425 47.9658 30.0117C48.0235 29.7968 48.0077 29.5687 47.921 29.3638C47.8343 29.1588 47.6817 28.9887 47.4873 28.8803L46.7705 28.48C46.7832 28.3184 46.7901 28.1587 46.7901 28C46.7901 27.8413 46.7832 27.6816 46.7705 27.52L47.4873 27.1196C47.6817 27.0111 47.8344 26.8409 47.9211 26.6359C48.0077 26.4309 48.0235 26.2028 47.9659 25.9877C47.5869 24.5745 46.8248 23.2935 45.7637 22.2861C45.609 22.1391 45.4114 22.0455 45.1997 22.0188C44.988 21.9921 44.7733 22.0337 44.5869 22.1377L43.8721 22.583C43.5726 22.3808 43.2575 22.2028 42.9297 22.0507V21.2573C42.9298 21.0371 42.8571 20.8231 42.7231 20.6485C42.5891 20.4739 42.4012 20.3484 42.1885 20.2915C41.4402 20.0929 40.6688 19.995 39.8946 20.0005C39.1907 20.0113 38.4909 20.1103 37.8116 20.2949C37.5989 20.3518 37.411 20.4773 37.2769 20.6519C37.1429 20.8266 37.0703 21.0406 37.0703 21.2607ZM39.0703 22.1045V22.0708C39.3516 22.0278 39.6355 22.0043 39.92 22.0005C40.2579 21.9935 40.5958 22.0165 40.9297 22.0693V22.1045C40.9283 22.4705 41.0323 22.8292 41.2294 23.1376C41.4265 23.4461 41.7083 23.6912 42.041 23.8437C42.2892 23.9555 42.5274 24.0883 42.7529 24.2407C43.0555 24.4387 43.4066 24.5496 43.7679 24.5615C44.1292 24.5734 44.4869 24.4857 44.8018 24.3081L44.8789 24.2651C45.2554 24.7216 45.5618 25.2316 45.7881 25.7783L45.2022 26.1054C45.019 26.2075 44.8725 26.3646 44.7837 26.5545C44.6948 26.7444 44.668 26.9575 44.707 27.1635C44.8177 27.7157 44.8177 28.2843 44.707 28.8364C44.668 29.0424 44.6948 29.2555 44.7837 29.4455C44.8725 29.6354 45.019 29.7925 45.2022 29.8945L45.7872 30.2217C45.5604 30.7679 45.2533 31.2773 44.876 31.7329L44.8028 31.6924C44.4878 31.5145 44.13 31.4268 43.7684 31.4387C43.4069 31.4505 43.0556 31.5616 42.753 31.7597C42.5273 31.9118 42.2892 32.0444 42.0411 32.1562C41.7083 32.3087 41.4265 32.5539 41.2295 32.8623C41.0324 33.1708 40.9283 33.5295 40.9297 33.8955V33.9292C40.6485 33.9722 40.3646 33.9957 40.0801 33.9995C39.7423 34.0023 39.4047 33.9792 39.0704 33.9306V33.8955C39.0718 33.5295 38.9677 33.1708 38.7707 32.8623C38.5736 32.5539 38.2918 32.3087 37.959 32.1562C37.7108 32.0444 37.4727 31.9116 37.2471 31.7592C36.9446 31.5612 36.5935 31.4502 36.2322 31.4383C35.8708 31.4264 35.5131 31.5141 35.1983 31.6918L35.1211 31.7348C34.7446 31.2786 34.4382 30.7687 34.212 30.2221L34.7979 29.8945C34.9816 29.7922 35.1283 29.6346 35.2172 29.4441C35.306 29.2536 35.3326 29.04 35.293 28.8335C35.1823 28.2834 35.1823 27.7167 35.293 27.1665C35.3326 26.9601 35.306 26.7464 35.2172 26.5559C35.1283 26.3654 34.9816 26.2078 34.7979 26.1055L34.2129 25.7784C34.4399 25.232 34.7473 24.7226 35.125 24.2671L35.1973 24.3077C35.5121 24.486 35.87 24.574 36.2317 24.5621C36.5933 24.5502 36.9446 24.4389 37.2471 24.2403C37.4728 24.0882 37.7109 23.9556 37.959 23.8438C38.2918 23.6913 38.5736 23.4461 38.7706 23.1377C38.9677 22.8292 39.0718 22.4705 39.0703 22.1045Z" fill="#F48120"/>
<path d="M40 31.5C40.6922 31.5 41.3689 31.2947 41.9445 30.9101C42.5201 30.5256 42.9687 29.9789 43.2336 29.3394C43.4985 28.6999 43.5678 27.9961 43.4327 27.3172C43.2977 26.6383 42.9644 26.0146 42.4749 25.5251C41.9854 25.0356 41.3617 24.7023 40.6828 24.5673C40.0039 24.4322 39.3001 24.5015 38.6606 24.7664C38.0211 25.0313 37.4744 25.4799 37.0899 26.0555C36.7053 26.6311 36.5 27.3078 36.5 28C36.5011 28.9279 36.8702 29.8175 37.5264 30.4736C38.1825 31.1298 39.0721 31.4989 40 31.5ZM40 26.5C40.2967 26.5 40.5867 26.588 40.8334 26.7528C41.08 26.9176 41.2723 27.1519 41.3858 27.426C41.4993 27.7001 41.5291 28.0017 41.4712 28.2926C41.4133 28.5836 41.2704 28.8509 41.0607 29.0607C40.8509 29.2704 40.5836 29.4133 40.2926 29.4712C40.0017 29.5291 39.7001 29.4994 39.426 29.3858C39.1519 29.2723 38.9176 29.08 38.7528 28.8334C38.588 28.5867 38.5 28.2967 38.5 28C38.5004 27.6023 38.6586 27.221 38.9398 26.9398C39.221 26.6586 39.6023 26.5004 40 26.5Z" fill="#F48120"/>
<path d="M40.917 17.0376L41.083 15.0444C40.3622 14.9849 39.6378 14.9849 38.917 15.0444L39.083 17.0376C39.6933 16.9878 40.3067 16.9878 40.917 17.0376Z" fill="#F48120"/>
<path d="M27 28C27.0005 30.4314 27.6829 32.8138 28.9696 34.8768C30.2563 36.9398 32.0957 38.6006 34.279 39.6706C36.4623 40.7406 38.9019 41.1769 41.3206 40.9299C43.7394 40.6829 46.0405 39.7625 47.9624 38.2733C49.8843 36.7841 51.3501 34.7858 52.1933 32.5053C53.0364 30.2249 53.2232 27.7536 52.7323 25.3723C52.2414 22.9911 51.0925 20.7952 49.4162 19.0341C47.7398 17.273 45.6032 16.0173 43.249 15.4097L42.751 17.3462C45.3432 18.0157 47.6022 19.6077 49.1046 21.8236C50.607 24.0395 51.2497 26.7273 50.9123 29.3832C50.5748 32.0391 49.2803 34.4807 47.2714 36.2505C45.2626 38.0202 42.6772 38.9966 40 38.9966C37.3228 38.9966 34.7374 38.0202 32.7286 36.2505C30.7197 34.4807 29.4252 32.0391 29.0877 29.3832C28.7503 26.7273 29.393 24.0395 30.8954 21.8236C32.3978 19.6077 34.6568 18.0157 37.249 17.3462L36.751 15.4097C33.9592 16.1291 31.4859 17.7566 29.7206 20.0359C27.9553 22.3153 26.9982 25.117 27 28Z" fill="#F48120"/>
<path d="M21.2627 24.8345L23.2353 25.1655C23.9058 21.2043 25.9573 17.6085 29.026 15.0156C32.0947 12.4226 35.9825 11 40 11C44.0175 11 47.9053 12.4226 50.974 15.0156C54.0427 17.6085 56.0942 21.2043 56.7646 25.1655L58.7373 24.8345C57.9885 20.4067 55.6958 16.3873 52.266 13.4888C48.8361 10.5902 44.4906 9 40 9C35.5094 9 31.1639 10.5902 27.734 13.4888C24.3041 16.3873 22.0115 20.4067 21.2627 24.8345Z" fill="#F48120"/>
<path d="M21.0293 26.9438C21.0098 27.2935 21 27.6455 21 28C21 28.354 21.0098 28.706 21.0293 29.0561L23.0254 28.9438C23.0078 28.6313 23 28.3169 23 28C23 27.6831 23.0078 27.3686 23.0254 27.0561L21.0293 26.9438Z" fill="#F48120"/>
<path d="M58.7373 31.1655L56.7646 30.8345C56.0942 34.7957 54.0427 38.3915 50.974 40.9844C47.9053 43.5774 44.0175 45 40 45C35.9825 45 32.0947 43.5774 29.026 40.9844C25.9573 38.3915 23.9058 34.7957 23.2353 30.8345L21.2627 31.1655C22.0115 35.5932 24.3041 39.6127 27.734 42.5112C31.1639 45.4097 35.5094 47 40 47C44.4906 47 48.8361 45.4097 52.266 42.5112C55.6958 39.6127 57.9885 35.5932 58.7373 31.1655Z" fill="#F48120"/>
<path d="M58.9707 29.0561C58.9902 28.7065 59 28.3545 59 28C59 27.646 58.9902 27.2939 58.9707 26.9438L56.9746 27.0561C56.9922 27.3686 57 27.6831 57 28C57 28.3168 56.9922 28.6313 56.9746 28.9438L58.9707 29.0561Z" fill="#F48120"/>
<path d="M31 50C30.8687 50 30.7386 50.0258 30.6173 50.076C30.4959 50.1263 30.3857 50.2 30.2928 50.2928C30.2 50.3857 30.1263 50.4959 30.0761 50.6173C30.0258 50.7386 30 50.8687 30 51V70C30 70.1313 30.0258 70.2614 30.0761 70.3827C30.1263 70.5041 30.2 70.6143 30.2928 70.7072C30.3857 70.8 30.4959 70.8737 30.6173 70.924C30.7386 70.9742 30.8687 71 31 71H49C49.1313 71 49.2614 70.9742 49.3827 70.924C49.5041 70.8737 49.6143 70.8 49.7072 70.7072C49.8 70.6143 49.8737 70.5041 49.924 70.3827C49.9742 70.2614 50 70.1313 50 70V51C50 50.8687 49.9742 50.7386 49.924 50.6173C49.8737 50.4959 49.8 50.3857 49.7072 50.2928C49.6143 50.2 49.5041 50.1263 49.3827 50.076C49.2614 50.0258 49.1313 50 49 50H31ZM48 69H32V52H48V69Z" fill="#F48120"/>
<path d="M20 59H24C24.1313 59 24.2614 58.9742 24.3827 58.9239C24.504 58.8737 24.6143 58.8 24.7072 58.7072C24.8 58.6143 24.8737 58.504 24.9239 58.3827C24.9742 58.2614 25 58.1313 25 58V50H27C27.1837 50.0001 27.364 49.9496 27.5209 49.854C27.6778 49.7583 27.8053 49.6212 27.8894 49.4578C27.9735 49.2944 28.0109 49.111 27.9975 48.9277C27.9841 48.7444 27.9204 48.5684 27.8134 48.419L22.8134 41.419C22.7165 41.2959 22.593 41.1965 22.4521 41.1281C22.3112 41.0597 22.1566 41.0242 21.9999 41.0242C21.8433 41.0242 21.6887 41.0597 21.5478 41.1281C21.4069 41.1965 21.2834 41.2959 21.1864 41.419L16.1864 48.419C16.0795 48.5684 16.0158 48.7445 16.0024 48.9277C15.989 49.111 16.0264 49.2944 16.1105 49.4579C16.1946 49.6213 16.3221 49.7583 16.479 49.854C16.6359 49.9496 16.8162 50.0001 17 50H19V58C18.9999 58.1313 19.0258 58.2614 19.076 58.3827C19.1263 58.504 19.1999 58.6143 19.2928 58.7072C19.3856 58.8 19.4959 58.8737 19.6172 58.9239C19.7386 58.9742 19.8686 59 20 59ZM18.9433 48L22 43.7207L25.0566 48H24C23.8686 47.9999 23.7386 48.0258 23.6172 48.076C23.4959 48.1263 23.3856 48.1999 23.2928 48.2928C23.1999 48.3857 23.1263 48.4959 23.076 48.6172C23.0258 48.7386 22.9999 48.8686 23 49V57H21V49C21 48.8686 20.9742 48.7386 20.9239 48.6172C20.8737 48.4959 20.8 48.3857 20.7071 48.2928C20.6143 48.1999 20.504 48.1263 20.3827 48.076C20.2613 48.0258 20.1313 47.9999 20 48H18.9433Z" fill="#F48120"/>
<path d="M56 59H60C60.1313 59 60.2614 58.9742 60.3827 58.9239C60.504 58.8737 60.6143 58.8 60.7072 58.7072C60.8 58.6143 60.8737 58.504 60.9239 58.3827C60.9742 58.2614 61 58.1313 61 58V50H63C63.1837 50.0001 63.364 49.9496 63.5209 49.854C63.6778 49.7583 63.8053 49.6212 63.8894 49.4578C63.9735 49.2944 64.0109 49.111 63.9975 48.9277C63.9841 48.7444 63.9204 48.5684 63.8134 48.419L58.8134 41.419C58.7165 41.2959 58.593 41.1965 58.4521 41.1281C58.3112 41.0597 58.1566 41.0242 57.9999 41.0242C57.8433 41.0242 57.6887 41.0597 57.5478 41.1281C57.4069 41.1965 57.2834 41.2959 57.1864 41.419L52.1864 48.419C52.0795 48.5684 52.0158 48.7445 52.0024 48.9277C51.989 49.111 52.0264 49.2944 52.1105 49.4579C52.1946 49.6213 52.3221 49.7583 52.479 49.854C52.6359 49.9496 52.8162 50.0001 53 50H55V58C54.9999 58.1313 55.0258 58.2614 55.076 58.3827C55.1263 58.504 55.1999 58.6143 55.2928 58.7072C55.3856 58.8 55.4959 58.8737 55.6172 58.9239C55.7386 58.9742 55.8686 59 56 59ZM54.9433 48L58 43.7207L61.0566 48H60C59.8686 47.9999 59.7386 48.0258 59.6172 48.076C59.4959 48.1263 59.3856 48.1999 59.2928 48.2928C59.1999 48.3857 59.1263 48.4959 59.076 48.6172C59.0258 48.7386 58.9999 48.8686 59 49V57H57V49C57 48.8686 56.9742 48.7386 56.9239 48.6172C56.8737 48.4959 56.8 48.3857 56.7072 48.2928C56.6143 48.1999 56.504 48.1263 56.3827 48.076C56.2614 48.0258 56.1313 47.9999 56 48H54.9433Z" fill="#F48120"/>
</svg>
