<svg xmlns="http://www.w3.org/2000/svg" width="60" height="60" viewBox="0 0 60 60">
  <g id="Group_8339" data-name="Group 8339" transform="translate(-652 -4654)">
    <circle id="Ellipse_14" data-name="Ellipse 14" cx="30" cy="30" r="30" transform="translate(652 4654)" fill="#fff2e8"/>
    <g id="MDI_credit-card-outline" data-name="MDI / credit-card-outline" transform="translate(668 4670)">
      <g id="Boundary" fill="#f48120" stroke="rgba(0,0,0,0)" stroke-width="1" opacity="0">
        <rect width="28" height="28" stroke="none"/>
        <rect x="0.5" y="0.5" width="27" height="27" fill="none"/>
      </g>
      <path id="Path_credit-card-outline" data-name="Path / credit-card-outline" d="M23.6,9H4.4V6.5H23.6m0,15H4.4V14H23.6m0-10H4.4A2.443,2.443,0,0,0,2,6.5v15A2.452,2.452,0,0,0,4.4,24H23.6A2.452,2.452,0,0,0,26,21.5V6.5A2.451,2.451,0,0,0,23.6,4Z" fill="#f48120"/>
    </g>
  </g>
</svg>
