<svg xmlns="http://www.w3.org/2000/svg" width="125" height="110" viewBox="0 0 125 110">
  <g id="Group_8460" data-name="Group 8460" transform="translate(-978.038 -3659.536)">
    <path id="Path_7536" data-name="Path 7536" d="M89.1,0H35.9a9.3,9.3,0,0,0-8.047,4.615L1.245,50.385a9.177,9.177,0,0,0,0,9.229l26.6,45.771A9.3,9.3,0,0,0,35.9,110H89.1a9.3,9.3,0,0,0,8.047-4.614l26.6-45.771a9.175,9.175,0,0,0,0-9.229L97.151,4.615A9.3,9.3,0,0,0,89.1,0" transform="translate(978.038 3659.536)" fill="#001334"/>
    <g id="Product_Icons" data-name="Product Icons" transform="translate(1008.015 3685.994)">
      <g id="Group_8456" data-name="Group 8456">
        <path id="Path_7514" data-name="Path 7514" d="M25.224,10l-3.968,3.968a5.562,5.562,0,0,1-3.513,9.79,5.659,5.659,0,0,1-4.326-2.082L9.45,25.644A11.156,11.156,0,1,0,25.224,10Z" transform="translate(14.78 13.612)" fill="#4285f4" fill-rule="evenodd"/>
        <path id="Path_7515" data-name="Path 7515" d="M26.077,6.26A20.327,20.327,0,1,0,46.4,26.587,20.327,20.327,0,0,0,26.077,6.26m0,34.931A14.473,14.473,0,1,1,40.518,26.75,14.473,14.473,0,0,1,26.077,41.191" transform="translate(6.446 5.188)" fill="#aecbfa" fill-rule="evenodd"/>
        <path id="Path_7516" data-name="Path 7516" d="M27.386,13.724,19.06,11.09a23.092,23.092,0,0,1,.553,4.976,24.784,24.784,0,0,1-.26,3.513h8.033a1.431,1.431,0,0,0,1.236-1.366V14.96a1.431,1.431,0,0,0-1.236-1.366" transform="translate(36.426 16.067)" fill="#669df6" fill-rule="evenodd"/>
        <path id="Path_7517" data-name="Path 7517" d="M15.243,11.782a24.328,24.328,0,0,1,4.879.488L17.13,3.976C16.9,3.26,16.447,2.74,15.764,2.74H14.528a1.464,1.464,0,0,0-1.366,1.236l-2.6,8.261a24.848,24.848,0,0,1,4.683-.455" transform="translate(17.28 -2.74)" fill="#669df6" fill-rule="evenodd"/>
        <path id="Path_7518" data-name="Path 7518" d="M11.009,16.066a23.092,23.092,0,0,1,.553-4.976L3.236,13.724A1.431,1.431,0,0,0,2,15.09v3.252a1.431,1.431,0,0,0,1.236,1.366h8.033a24.783,24.783,0,0,1-.26-3.513" transform="translate(-2 16.067)" fill="#669df6" fill-rule="evenodd"/>
        <path id="Path_7519" data-name="Path 7519" d="M17.631,10a8.131,8.131,0,1,0,8.131,8.131A8.131,8.131,0,0,0,17.631,10Zm0,12.2a1.687,1.687,0,1,1,0,.033Z" transform="translate(14.893 13.612)" fill="#aecbfa" fill-rule="evenodd"/>
      </g>
    </g>
  </g>
</svg>
