<svg xmlns="http://www.w3.org/2000/svg" width="125" height="110" viewBox="0 0 125 110">
  <g id="Group_8459" data-name="Group 8459" transform="translate(-978.038 -3659.536)">
    <path id="Path_7536" data-name="Path 7536" d="M89.1,0H35.9a9.3,9.3,0,0,0-8.047,4.615L1.245,50.385a9.177,9.177,0,0,0,0,9.229l26.6,45.771A9.3,9.3,0,0,0,35.9,110H89.1a9.3,9.3,0,0,0,8.047-4.614l26.6-45.771a9.175,9.175,0,0,0,0-9.229L97.151,4.615A9.3,9.3,0,0,0,89.1,0" transform="translate(978.038 3659.536)" fill="#001334"/>
    <g id="Product_Icons" data-name="Product Icons" transform="translate(1013.463 3687.039)">
      <rect id="Rectangle_3579" data-name="Rectangle 3579" width="16" height="16" transform="translate(19 19)" fill="#aecbfa"/>
      <rect id="Rectangle_3580" data-name="Rectangle 3580" width="6" height="11" transform="translate(24)" fill="#669df6"/>
      <rect id="Rectangle_3581" data-name="Rectangle 3581" width="5" height="11" transform="translate(14)" fill="#669df6"/>
      <rect id="Rectangle_3582" data-name="Rectangle 3582" width="5" height="11" transform="translate(35)" fill="#669df6"/>
      <rect id="Rectangle_3583" data-name="Rectangle 3583" width="6" height="11" transform="translate(24 43)" fill="#4285f4"/>
      <rect id="Rectangle_3584" data-name="Rectangle 3584" width="5" height="11" transform="translate(14 43)" fill="#4285f4"/>
      <rect id="Rectangle_3585" data-name="Rectangle 3585" width="5" height="11" transform="translate(35 43)" fill="#4285f4"/>
      <rect id="Rectangle_3586" data-name="Rectangle 3586" width="6" height="11" transform="translate(43 30) rotate(-90)" fill="#4285f4"/>
      <rect id="Rectangle_3587" data-name="Rectangle 3587" width="5" height="11" transform="translate(43 40) rotate(-90)" fill="#4285f4"/>
      <rect id="Rectangle_3588" data-name="Rectangle 3588" width="5" height="11" transform="translate(43 19) rotate(-90)" fill="#4285f4"/>
      <rect id="Rectangle_3589" data-name="Rectangle 3589" width="6" height="11" transform="translate(0 30) rotate(-90)" fill="#669df6"/>
      <rect id="Rectangle_3590" data-name="Rectangle 3590" width="5" height="11" transform="translate(0 40) rotate(-90)" fill="#669df6"/>
      <rect id="Rectangle_3591" data-name="Rectangle 3591" width="5" height="11" transform="translate(0 19) rotate(-90)" fill="#669df6"/>
      <path id="Path_7527" data-name="Path 7527" d="M5,5V42.838H42.838V5ZM37.432,37.432H10.405V10.405H37.432Z" transform="translate(3.081 3.081)" fill="#aecbfa"/>
      <path id="Path_7528" data-name="Path 7528" d="M9,20.108H25.216L17.108,12Z" transform="translate(9.892 15)" fill="#669df6"/>
      <path id="Path_7529" data-name="Path 7529" d="M12,17.108l8.108,8.108V9Z" transform="translate(15 9.892)" fill="#4285f4"/>
    </g>
  </g>
</svg>
