<svg id="Layer_1-2" xmlns="http://www.w3.org/2000/svg" width="66.653" height="65" viewBox="0 0 66.653 65">
  <path id="Path_100" data-name="Path 100" d="M111.837,89.86l3.3-2.78s17.466,7.125,15.642,27.112c0,0-1.652,22.334-24.158,24.331a25.99,25.99,0,0,1-22.112-8.3,28.173,28.173,0,0,1-7.039-21.24c.091-1.12.236-2.312.448-3.57.421-2.708.291-5.939-.2-6.6l1.664-2.172a28.723,28.723,0,0,1,0,4.865A24.509,24.509,0,0,1,83.9,95.682l1.172,1a13.464,13.464,0,0,0-5.215,8.558s7.864-8.327,16.25-.551c0,0,3.3-4.011,7.17-3.88,2.94.347,11.557,7.647,11.557,7.647l-12.079,15.206-9.733-7.908s-1.783-1.563-.477-4.518l1.3-2.954s-.694-3.346-5.909-3.26a7.938,7.938,0,0,0-7.039,4.909A22.291,22.291,0,0,0,94.41,132.7c15.772,7.211,27.154-3.954,29.892-9.385s4.387-11.643,2-18.552-6-11.818-14.467-14.9Z" transform="translate(-64.261 -73.699)" fill="#46b82d"/>
  <path id="Path_101" data-name="Path 101" d="M15.152,25.71S8.06,23.067,3.9,18.309C-2.4,11.116,1.979.6,1.979.6a64.561,64.561,0,0,1,8.788,3.9c10.13,5.38,9.957,17.973,4.383,21.211Z" transform="translate(-0.498 -0.6)" fill="#006a20"/>
  <path id="Path_102" data-name="Path 102" d="M103,51.333s-.082-10.779,8.635-15.657c10.039-5.617,23.52-1.474,23.52-1.474a17.432,17.432,0,0,0-6.178,5.2C126.687,42.432,116.2,55.475,103,51.333Z" transform="translate(-83.578 -28.117)" fill="#006a20"/>
  <path id="Path_103" data-name="Path 103" d="M0,0H7.485A1.846,1.846,0,0,1,9.329,1.844h0A1.846,1.846,0,0,1,7.485,3.688H0V0H0Z" transform="translate(43.768 45.224) rotate(38.88)" fill="#fff"/>
  <path id="Path_104" data-name="Path 104" d="M0,0H7.485A1.846,1.846,0,0,1,9.329,1.844h0A1.846,1.846,0,0,1,7.485,3.688H0V0H0Z" transform="translate(49.103 38.377) rotate(38.88)" fill="#fff"/>
  <path id="Path_125" data-name="Path 125" d="M11862.563,3149.206l-10-7.844a5.809,5.809,0,0,1-.368-5.951,25.462,25.462,0,0,1,4.756-6.793s4.063-3.708,7.672-2.257,10.687,7.451,10.687,7.451Z" transform="translate(-11824.158 -3099)" fill="#fff"/>
</svg>
