<svg width="23" height="23" viewBox="0 0 23 23" fill="none" xmlns="http://www.w3.org/2000/svg">
<g clip-path="url(#clip0_460_2)">
<path d="M11.8286 0H11.1714C5.00162 0 0 5.00162 0 11.1714V11.8286C0 17.9984 5.00162 23 11.1714 23H11.8286C17.9984 23 23 17.9984 23 11.8286V11.1714C23 5.00162 17.9984 0 11.8286 0Z" fill="#2D2D2D"/>
<path d="M16.4283 16.4253L14.3911 14.3691" stroke="white" stroke-width="1.5" stroke-linecap="round" stroke-linejoin="round"/>
<path d="M15.5844 11.1233C15.5755 12.0127 15.3036 12.8795 14.803 13.6146C14.3024 14.3498 13.5954 14.9203 12.7712 15.2545C11.947 15.5886 11.0423 15.6714 10.1711 15.4925C9.29987 15.3135 8.5011 14.8807 7.87536 14.2487C7.24961 13.6167 6.82488 12.8136 6.65463 11.9406C6.48438 11.0677 6.57624 10.1639 6.91863 9.34303C7.26102 8.52218 7.83864 7.82099 8.57875 7.32777C9.31885 6.83454 10.1884 6.57133 11.0777 6.57129C12.279 6.57737 13.4286 7.06036 14.2738 7.91402C15.1189 8.76767 15.5904 9.92208 15.5844 11.1233Z" stroke="white" stroke-width="1.5" stroke-linecap="round" stroke-linejoin="round"/>
</g>
<defs>
<clipPath id="clip0_460_2">
<rect width="23" height="23" fill="white"/>
</clipPath>
</defs>
</svg>
