<svg xmlns="http://www.w3.org/2000/svg" width="36.764" height="40" viewBox="0 0 36.764 40">
  <path id="high-security" d="M36.145,32.2a25.425,25.425,0,0,1-12.18,15.329,24.84,24.84,0,0,1-13-21.522c0-.452.013-.9.039-1.348l12.965-4.218L29,22.076v6.955A3.172,3.172,0,0,0,32.163,32.2ZM43.4,17.671V14.088a4.035,4.035,0,0,0-8.071,0v3.583Zm-10.6,0h-.64a1.488,1.488,0,0,0-1.484,1.484v9.875a1.488,1.488,0,0,0,1.484,1.484H46.241a1.488,1.488,0,0,0,1.484-1.484V19.155a1.488,1.488,0,0,0-1.484-1.484h-.313V14.088a6.563,6.563,0,0,0-13.125,0v3.583Zm6.4,3.118a1.933,1.933,0,0,1,1.367,3.3,1.9,1.9,0,0,1-.526.373v2.089a.842.842,0,1,1-1.685,0V24.462a1.968,1.968,0,0,1-.526-.373,1.933,1.933,0,0,1,1.367-3.3ZM19.423,33.439l2.075,3.5a.842.842,0,0,0,1.151.3.788.788,0,0,0,.147-.11l5.557-5.047a.841.841,0,1,0-1.133-1.243l-4.8,4.361-1.549-2.61a.841.841,0,0,0-1.448.855Z" transform="translate(-10.961 -7.527)" fill-rule="evenodd"/>
</svg>
