<?xml version="1.0" encoding="UTF-8"?><svg id="Layer_1" xmlns="http://www.w3.org/2000/svg" viewBox="0 0 5000 5000"><defs><style>.cls-1{fill:#fff;}.cls-2{fill:#231f20;}</style></defs><rect class="cls-1" width="5000" height="5000"/><path class="cls-2" d="M1129.73,2903.57h423.87c42.23,0,74.43,8.67,96.63,25.98,22.19,17.33,33.29,40.88,33.29,70.65,0,26.53-8.8,49-26.39,67.4-17.6,18.41-44.25,27.61-79.98,27.61h-597.64c-40.6,0-72.27-11.23-95.01-33.7-22.74-22.46-34.1-48.85-34.1-79.17,0-19.49,7.31-45.33,21.93-77.55,14.62-32.2,30.58-57.51,47.91-75.92,71.99-74.71,136.95-138.71,194.88-192.04,57.92-53.31,99.33-88.37,124.24-105.16,44.38-31.39,81.33-62.93,110.84-94.6,29.5-31.67,51.97-64.15,67.4-97.44,15.43-33.29,23.14-65.9,23.14-97.85,0-34.64-8.26-65.63-24.77-92.98-16.52-27.33-38.98-48.58-67.4-63.74-28.42-15.15-59.42-22.74-92.98-22.74-70.92,0-126.68,31.14-167.28,93.38-5.42,8.12-14.49,30.32-27.2,66.58-12.73,36.27-27.07,64.15-43.04,83.64-15.97,19.49-39.38,29.23-70.24,29.23-27.08,0-49.53-8.93-67.4-26.8-17.86-17.86-26.8-42.23-26.8-73.08,0-37.35,8.39-76.33,25.17-116.93,16.77-40.6,41.82-77.41,75.11-110.43,33.29-33.01,75.52-59.68,126.67-79.98,51.16-20.3,111.11-30.45,179.86-30.45,82.83,0,153.47,12.99,211.94,38.98,37.89,17.33,71.18,41.15,99.88,71.46,28.69,30.32,51.02,65.37,66.99,105.16,15.96,39.79,23.96,81.07,23.96,123.83,0,67.13-16.65,128.17-49.94,183.11-33.29,54.95-67.27,97.99-101.91,129.11-34.65,31.14-92.71,79.98-174.18,146.57-81.48,66.59-137.37,118.29-167.68,155.1-12.99,14.62-26.26,32.21-39.79,52.78Z"/><path class="cls-2" d="M2329.07,2992.08v-151.03h-407.63c-51.44,0-90.01-11.63-115.71-34.92-25.72-23.27-38.57-54.94-38.57-95.01,0-10.28,1.89-20.71,5.68-31.26,3.78-10.56,9.47-21.65,17.05-33.29,7.58-11.63,15.43-22.86,23.55-33.7,8.12-10.82,18.13-24.08,30.04-39.79l430.37-575.72c28.14-37.88,51.28-65.37,69.43-82.42,18.13-17.05,39.92-25.58,65.37-25.58,82.28,0,123.43,47.1,123.43,141.29v628.5h34.92c41.68,0,75.11,5.69,100.28,17.05,25.17,11.37,37.76,36.27,37.76,74.7,0,31.4-10.29,54.28-30.86,68.62-20.58,14.35-51.44,21.52-92.57,21.52h-49.53v151.03c0,41.69-9.21,72.67-27.61,92.98-18.41,20.3-43.04,30.45-73.89,30.45s-54.81-10.43-73.49-31.26c-18.68-20.83-28.01-51.56-28.01-92.16ZM1979.9,2659.15h349.17v-471.78l-349.17,471.78Z"/><path class="cls-2" d="M3163.82,2049.33l-227.36,936.25c-7.59,30.86-14.21,55.22-19.89,73.08-5.68,17.86-14.35,31.81-25.99,41.82-11.65,10.01-28.56,15.02-50.75,15.02-55.22,0-82.83-23.81-82.83-71.46,0-12.45,5.41-43.57,16.24-93.38l226.55-936.25c11.9-49.8,23.27-83.9,34.1-102.31,10.82-18.4,31.94-27.61,63.34-27.61,27.06,0,47.77,6.5,62.12,19.49,14.34,12.99,21.52,30.86,21.52,53.59,0,16.79-5.68,47.38-17.05,91.76Z"/><path class="cls-2" d="M3461.02,1916.16h540.8c51.97,0,89.59,8.12,112.87,24.36,23.27,16.24,34.92,43.04,34.92,80.39,0,22.74-13.68,52.78-41.01,90.13-27.34,37.35-58.46,78.64-93.38,123.83-34.92,45.21-70.92,101.37-108,168.49-37.09,67.13-71.05,149.14-101.91,246.04-12.99,42.77-22.2,78.23-27.61,106.37-5.42,28.15-11.37,64.69-17.86,109.62-6.5,44.94-12.18,79.31-17.05,103.13-11.37,55.22-27.48,93.52-48.32,114.9-20.85,21.38-48.59,32.07-83.23,32.07s-59.56-11.51-79.58-34.51c-20.03-23-30.04-56.97-30.04-101.91,0-34.64,7.31-81.73,21.93-141.29,14.62-59.54,38.43-130.86,71.46-213.97,33.01-83.09,74.3-168.35,123.83-255.78,49.53-87.42,108.4-174.44,176.61-261.06h-434.43c-45.47,0-79.45-8.25-101.91-24.77-22.47-16.51-33.7-42.35-33.7-77.55,0-37.35,11.9-61.43,35.73-72.27,23.82-10.82,57.11-16.24,99.88-16.24Z"/><path class="cls-2" d="M4803.5,1526.86c-22.2-52.49-46.28-104.31-72.14-155.29-32.06-63.22-116.42-76.81-166.54-26.69h0c-31.76,31.76-39.69,80.37-19.35,120.42,160.22,315.43,249.61,672.64,247.04,1050.57-8.51,1251.24-1047.82,2280.22-2299.08,2276.7-1261.83-3.55-2286.01-1029.91-2286.01-2292.56,0-1259.2,1038.99-2295.6,2298.19-2292.56,374.97.9,729.07,92.31,1041.59,253.46l-202.34,202.34c-19.87,19.87-10.78,53.8,16.37,61.08l732.74,196.34c30.27,8.11,57.97-19.59,49.86-49.86l-196.34-732.74c-7.27-27.15-41.21-36.24-61.08-16.37l-185.31,185.31c-74.16-40.71-150.32-77.66-227.95-110.5C3164.87,66.11,2837.45,0,2500,0s-664.87,66.11-973.14,196.5c-148.16,62.67-291.05,140.22-424.7,230.52-132.36,89.42-256.82,192.11-369.92,305.21-113.1,113.11-215.79,237.56-305.21,369.92-90.3,133.65-167.85,276.54-230.52,424.7C66.11,1835.14,0,2162.55,0,2500s66.11,664.87,196.5,973.14c62.67,148.16,140.22,291.05,230.52,424.7,89.42,132.36,192.11,256.82,305.21,369.92,113.11,113.11,237.56,215.79,369.92,305.21,133.65,90.3,276.54,167.85,424.7,230.52,308.28,130.39,635.69,196.5,973.14,196.5s664.87-66.11,973.14-196.5c148.16-62.67,291.05-140.22,424.7-230.52,132.35-89.42,256.82-192.11,369.92-305.21,113.11-113.1,215.79-237.56,305.21-369.92,90.29-133.66,167.85-276.54,230.52-424.7,130.39-308.28,196.5-635.69,196.5-973.14s-66.11-664.87-196.5-973.14Z"/></svg>