<svg xmlns="http://www.w3.org/2000/svg" width="13.491" height="15" viewBox="0 0 13.491 15"><path d="M346.79,7.127a3.811,3.811,0,0,0-1.384-1.375,3.716,3.716,0,0,0-1.4-.485V3.451a1.341,1.341,0,0,0,.827-1.255,1.379,1.379,0,1,0-2.758,0,1.325,1.325,0,0,0,.809,1.255V5.268a4,4,0,0,0-1.218.382c-.789-.6-3.378-2.567-4.893-3.715a1.5,1.5,0,0,0,.064-.4,1.542,1.542,0,1,0-.743,1.306l.32.242L340.8,6.244a3.683,3.683,0,0,0-.621.728,3.4,3.4,0,0,0-.565,1.83V8.94a3.836,3.836,0,0,0,.24,1.323,3.473,3.473,0,0,0,.569.988l-1.457,1.461a1.18,1.18,0,1,0,.776,1.108,1.183,1.183,0,0,0-.054-.355l1.506-1.507a3.871,3.871,0,0,0,.669.366,3.914,3.914,0,0,0,1.566.329h.1a3.751,3.751,0,0,0,3.189-1.771,3.461,3.461,0,0,0,.544-1.864V8.985a3.655,3.655,0,0,0-.482-1.858Zm-1.841,3.16a1.916,1.916,0,0,1-1.41.734h-.088a1.906,1.906,0,0,1-.891-.236,2.059,2.059,0,0,1-.78-.711,1.658,1.658,0,0,1-.325-.968V9a1.983,1.983,0,0,1,.229-.964,2.087,2.087,0,0,1,.727-.795,1.778,1.778,0,0,1,1.007-.3h.034a2.04,2.04,0,0,1,.947.218,2.006,2.006,0,0,1,.743.676,2.152,2.152,0,0,1,.333.95c.006.071.008.144.008.214a1.88,1.88,0,0,1-.534,1.289Z" transform="translate(-333.78 -0.002)" fill="#fff"/></svg>