<svg width="80" height="80" viewBox="0 0 80 80" fill="none" xmlns="http://www.w3.org/2000/svg">
<path d="M40.0001 79.9999C62.0915 79.9999 80.0001 62.0913 80.0001 39.9999C80.0001 17.9085 62.0915 -6.10352e-05 40.0001 -6.10352e-05C17.9087 -6.10352e-05 0.00012207 17.9085 0.00012207 39.9999C0.00012207 62.0913 17.9087 79.9999 40.0001 79.9999Z" fill="#FFF2E8"/>
<path fill-rule="evenodd" clip-rule="evenodd" d="M34.3289 15.8686H37.2386V15.075C37.2386 13.3887 38.6273 12 40.3467 12H43.0249C44.7113 12 46.133 13.3887 46.133 15.075V15.8686H49.0428V20.4977H34.3289V15.8686Z" stroke="#F48120" stroke-width="2.5" stroke-linecap="round" stroke-linejoin="round"/>
<path d="M35.9491 25.4244H27.5176V32.1366H35.9491V25.4244Z" stroke="#F48120" stroke-width="2.5" stroke-linecap="round" stroke-linejoin="round"/>
<path d="M35.9491 36.8649H27.5176V43.5771H35.9491V36.8649Z" stroke="#F48120" stroke-width="2.5" stroke-linecap="round" stroke-linejoin="round"/>
<path d="M35.9491 48.3054H27.5176V55.0175H35.9491V48.3054Z" stroke="#F48120" stroke-width="2.5" stroke-linecap="round" stroke-linejoin="round"/>
<path d="M41.1733 27.0115H55.8542" stroke="#F48120" stroke-width="2.5" stroke-linecap="round" stroke-linejoin="round"/>
<path d="M41.1733 30.5825H55.8542" stroke="#F48120" stroke-width="2.5" stroke-linecap="round" stroke-linejoin="round"/>
<path d="M41.1733 38.4189H55.8542" stroke="#F48120" stroke-width="2.5" stroke-linecap="round" stroke-linejoin="round"/>
<path d="M41.1733 41.9899H55.8542" stroke="#F48120" stroke-width="2.5" stroke-linecap="round" stroke-linejoin="round"/>
<path fill-rule="evenodd" clip-rule="evenodd" d="M32.2789 18.1832H34.3289V20.3985H49.0428V18.1832H60.6817V46.0239C59.9543 45.4618 59.2268 44.6682 58.5986 43.6101C55.2921 49.1981 49.7041 46.9497 49.7041 46.9497V55.4804C49.7041 55.4804 49.9025 59.845 55.0276 64.1765H22.657V27.1438V18.1832H32.2789Z" stroke="#F48120" stroke-width="2.5" stroke-linecap="round" stroke-linejoin="round"/>
<path d="M53.9033 55.6127L56.7138 58.4232L63.2938 51.8433" stroke="#F48120" stroke-width="2.5" stroke-linecap="round" stroke-linejoin="round"/>
<path fill-rule="evenodd" clip-rule="evenodd" d="M58.5986 66.6564C50.0017 61.6966 49.7041 55.4804 49.7041 55.4804V46.9497C49.7041 46.9497 55.2921 49.1981 58.5986 43.6101C61.9051 49.1981 67.4931 46.9497 67.4931 46.9497V55.4804C67.4931 55.4804 67.2285 61.6966 58.5986 66.6564Z" stroke="#F48120" stroke-width="2.5" stroke-linecap="round" stroke-linejoin="round"/>
<path d="M41.1733 49.8263H47.1581" stroke="#F48120" stroke-width="2.5" stroke-linecap="round" stroke-linejoin="round"/>
<path d="M41.1733 53.3973H47.1581" stroke="#F48120" stroke-width="2.5" stroke-linecap="round" stroke-linejoin="round"/>
</svg>
