<svg id="Group_8316" data-name="Group 8316" xmlns="http://www.w3.org/2000/svg" xmlns:xlink="http://www.w3.org/1999/xlink" width="45" height="45" viewBox="0 0 45 45">
  <defs>
    <linearGradient id="linear-gradient" x1="0.5" x2="0.156" y2="0.791" gradientUnits="objectBoundingBox">
      <stop offset="0" stop-color="#3e3e3e"/>
      <stop offset="1" stop-color="#1a1a1a"/>
    </linearGradient>
  </defs>
  <circle id="Ellipse_1" data-name="Ellipse 1" cx="22.5" cy="22.5" r="22.5" fill="url(#linear-gradient)"/>
  <g id="layer1" transform="translate(13 -643.835)">
    <path id="path4254" d="M16.141,675.674l-2.89-.005c-.778,0-1.5-.015-2.071-.037-.285-.011-.53-.024-.729-.04a2.519,2.519,0,0,1-.5-.068,1.149,1.149,0,0,1-.694-.321A.979.979,0,0,1,9,674.71a1.353,1.353,0,0,1-.013-.314,1.517,1.517,0,0,1,.19-.666,4.517,4.517,0,0,1,.366-.632,1.916,1.916,0,0,0,.307-.592.51.51,0,0,0-.04-.347.564.564,0,0,0-.322-.348,2.266,2.266,0,0,0-.959-.189,3.009,3.009,0,0,0-1.26.178.549.549,0,0,0-.365.411.764.764,0,0,0-.029.518,1.69,1.69,0,0,0,.453.608,1.658,1.658,0,0,1,.461,1.037.992.992,0,0,1-.114.737.944.944,0,0,1-.385.349,1.391,1.391,0,0,1-.283.1,1.608,1.608,0,0,1-.494.054c-.193.01-.439.017-.724.024-.569.013-1.288.02-2,.022s-1.419,0-1.96-.013c-.271-.005-.5-.012-.675-.021-.088,0-.161-.009-.231-.017-.035,0-.068-.007-.114-.016s-.063.042-.3-.122a.556.556,0,0,1-.233-.275.683.683,0,0,1-.045-.118.923.923,0,0,1-.028-.123c-.011-.067-.018-.128-.025-.2-.014-.147-.027-.335-.039-.56-.025-.451-.047-1.05-.065-1.685-.035-1.271-.053-2.661-.02-3.343a4.883,4.883,0,0,1,.069-.629,2.357,2.357,0,0,1,.064-.274.688.688,0,0,1,.19-.363,1.034,1.034,0,0,1,.64-.329,1.279,1.279,0,0,1,.578.08,3.189,3.189,0,0,1,.972.6c.564.472.7.5,1.087.4a1.586,1.586,0,0,0,.991-1.156,2.221,2.221,0,0,0-.225-1.8,2.07,2.07,0,0,0-.793-.646,1.173,1.173,0,0,0-.529-.116,1.213,1.213,0,0,0-.154.118,5.694,5.694,0,0,0-.392.415c-.418.49-.717.89-1.384.926a1.107,1.107,0,0,1-.88-.443,1.7,1.7,0,0,1-.27-.756A2.6,2.6,0,0,1,0,664.708c0-.2,0-.442.009-.725.012-.566.035-1.276.063-1.976s.061-1.391.093-1.92c.016-.264.031-.487.047-.658.008-.085.015-.156.024-.223,0-.033.009-.064.019-.108s-.042-.054.124-.284a.516.516,0,0,1,.3-.24.665.665,0,0,1,.114-.037.891.891,0,0,1,.111-.02c.059-.008.113-.012.178-.016.13-.009.3-.015.5-.021.4-.011.943-.017,1.531-.015,1.421,0,2.273-.009,2.786-.053a1.583,1.583,0,0,0,.8-.191c.3-.176.312-.241.318-.339a1.592,1.592,0,0,0-.4-.823,3.64,3.64,0,0,1-.452-.7A2.09,2.09,0,0,1,6,655.632a2.022,2.022,0,0,1,.844-1.728,1.874,1.874,0,0,1,.584-.242,5.853,5.853,0,0,1,.677-.157h0a3.01,3.01,0,0,1,3.263,1.128,1.7,1.7,0,0,1,.2,1.154,2.8,2.8,0,0,1-.548,1.1,4.816,4.816,0,0,0-.526,1.052h0c.011.066.016.1.159.194a2.38,2.38,0,0,0,.846.285c-.1-.019.055,0,.2.01s.347.013.582.02c.468.013,1.073.026,1.676.035s1.206.016,1.671.017c.233,0,.432,0,.576,0s.318-.024.183,0a.8.8,0,0,1,.656.241.65.65,0,0,1,.139.242,1.025,1.025,0,0,1,.057.246c.02.144.03.3.038.52.016.431.02,1.069.015,1.964a14.453,14.453,0,0,0,.17,2.949c.121.494.135.463.364.536.131.042.111.044.236,0a3.96,3.96,0,0,0,.787-.465,2.761,2.761,0,0,1,1.192-.554,1.878,1.878,0,0,1,1.21.288,2.69,2.69,0,0,1,1.079,2.2A3.529,3.529,0,0,1,21.7,669.3a2,2,0,0,1-1.181.66,1.741,1.741,0,0,1-.873-.042,4.148,4.148,0,0,1-.911-.537,2.929,2.929,0,0,0-.825-.44c-.1-.017-.056-.036-.22.089-.2.15-.236.165-.326.723a25.9,25.9,0,0,0-.135,3.275c0,.505-.014.972-.031,1.327-.009.178-.019.326-.031.449-.006.061-.013.115-.025.178a.861.861,0,0,1-.031.12c-.018.055.01.132-.214.326a.722.722,0,0,1-.416.2,1.388,1.388,0,0,1-.341.04Zm-.016-1.395h.031S16.15,674.271,16.126,674.279Zm-.319,0c.016-.325.027-.771.03-1.255a25.289,25.289,0,0,1,.153-3.49,2.469,2.469,0,0,1,.854-1.608,1.746,1.746,0,0,1,1.31-.355,3.539,3.539,0,0,1,1.366.66c.585.421.841.512,1.1.186a2.373,2.373,0,0,0,.32-1.613c-.083-.818-.248-1.05-.406-1.144-.2-.121-.228-.115-.3-.105a1.818,1.818,0,0,0-.593.317,4.6,4.6,0,0,1-1.137.642,1.836,1.836,0,0,1-1.11.007,2.087,2.087,0,0,1-1.293-1.532,14.416,14.416,0,0,1-.21-3.29c.005-.842,0-1.416-.013-1.807h-.26c-.475,0-1.081-.008-1.689-.017s-1.216-.022-1.693-.035c-.239-.007-.445-.014-.6-.021a2.154,2.154,0,0,1-.385-.031,3.552,3.552,0,0,1-1.376-.5,1.736,1.736,0,0,1-.759-1.126,2.756,2.756,0,0,1,.779-2.105,1.735,1.735,0,0,0,.305-.55c.016-.078.022-.066-.042-.177-.206-.357-.8-.622-1.823-.449h0a4.592,4.592,0,0,0-.512.119c-.151.045-.3.124-.22.074a.5.5,0,0,0-.168.711,2.9,2.9,0,0,0,.293.434,2.655,2.655,0,0,1,.68,1.745A1.9,1.9,0,0,1,7.4,659.428a3.224,3.224,0,0,1-1.382.375c-.616.053-1.48.062-2.909.058-.577,0-1.107,0-1.489.015l-.041,0c-.007.1-.013.172-.021.294-.031.513-.064,1.2-.092,1.891s-.051,1.4-.063,1.95c-.005.255-.008.466-.008.638.033-.034.063-.057.1-.1a6.89,6.89,0,0,1,.494-.523,1.347,1.347,0,0,1,.523-.388,2.031,2.031,0,0,1,1.7.13,3.31,3.31,0,0,1,1.366,1.13,3.543,3.543,0,0,1,.411,2.976A2.931,2.931,0,0,1,4.012,670a2.612,2.612,0,0,1-2.337-.676c-.082-.069-.148-.111-.218-.16,0,.025-.006.044-.008.069-.027.556-.014,1.983.021,3.237.017.627.04,1.218.063,1.648,0,.054.006.078.009.127.106,0,.183.007.313.01.525.01,1.224.015,1.93.013s1.419-.009,1.972-.021c.2,0,.343-.01.491-.016a2.794,2.794,0,0,1-.7-1.057,2.259,2.259,0,0,1,.015-1.355,2.09,2.09,0,0,1,1.107-1.274,4.16,4.16,0,0,1,1.884-.311,3.532,3.532,0,0,1,1.571.346,2.054,2.054,0,0,1,1.082,2.234,3.094,3.094,0,0,1-.518,1.079,3.08,3.08,0,0,0-.181.311l.047,0c.171.013.4.026.676.037.545.021,1.256.035,2.019.036l2.552,0Zm-14.679-.056a.113.113,0,0,0-.056,0Zm.391-5.532c.012-.027.008-.033.006-.026S1.519,668.686,1.518,668.691Zm.1-9.235a.118.118,0,0,0,.006-.055C1.618,659.41,1.615,659.44,1.613,659.456Z" transform="translate(0 0)" fill="#fff"/>
  </g>
</svg>
