<svg width="80" height="80" viewBox="0 0 80 80" fill="none" xmlns="http://www.w3.org/2000/svg">
<path d="M40 80C62.0914 80 80 62.0914 80 40C80 17.9086 62.0914 0 40 0C17.9086 0 0 17.9086 0 40C0 62.0914 17.9086 80 40 80Z" fill="#FFF2E8"/>
<g clip-path="url(#clip0_6_387)">
<path fill-rule="evenodd" clip-rule="evenodd" d="M39.983 62.7481H32.6778C31.9303 62.7481 31.3187 62.1365 31.3187 61.389V58.5688C31.3187 55.9186 27.2753 55.9186 27.2753 58.5688V61.389C27.2753 62.1365 26.6637 62.7481 25.9162 62.7481H18.577C17.8295 62.7481 17.2179 62.1365 17.2179 61.389V34.0369H15.7569C13.1406 34.0369 11 31.8963 11 29.28C11 26.6637 13.1406 24.5571 15.7569 24.5571H17.2179V18.577C17.2179 17.8295 17.8295 17.2179 18.577 17.2179H24.5571V15.7569C24.5571 13.1406 26.6637 11 29.28 11C31.8963 11 34.0369 13.1406 34.0369 15.7569V17.2179H47.3222C48.0697 17.2179 48.6813 17.8295 48.6813 18.577V21.4312C48.6813 24.0814 52.7247 24.0814 52.7247 21.4312V18.577C52.7247 17.8295 53.3363 17.2179 54.0838 17.2179H61.389C62.1705 17.2179 62.7481 17.8295 62.7481 18.577V45.9631H64.2431C66.8594 45.9631 68.966 48.1037 68.966 50.686C68.966 53.3023 66.8594 55.4429 64.2431 55.4429H62.7481V61.389C62.7481 62.1365 62.1705 62.7481 61.389 62.7481H55.4429V64.2431C55.4429 66.8594 53.3023 68.966 50.686 68.966C48.1037 68.966 45.9631 66.8594 45.9631 64.2431V62.7481H39.983ZM19.9361 41.3421V60.0299H24.5571V58.5688C24.5571 55.9525 26.6637 53.812 29.28 53.812C31.8963 53.812 34.0369 55.9525 34.0369 58.5688V60.0299H38.6239V54.0838C38.6239 53.3363 39.2355 52.7247 39.983 52.7247H42.8371C45.4874 52.7247 45.4874 48.6813 42.8371 48.6813H39.983C39.2355 48.6813 38.6239 48.0697 38.6239 47.3222V41.3421H34.0369V42.8371C34.0369 45.4534 31.8963 47.56 29.28 47.56C26.6637 47.56 24.5571 45.4534 24.5571 42.8371V41.3421H19.9361ZM38.6239 38.6239V34.0369H37.1629C34.5466 34.0369 32.406 31.8963 32.406 29.28C32.406 26.6637 34.5466 24.5571 37.1629 24.5571H38.6239V19.9361H32.6778C31.9303 19.9361 31.3187 19.3245 31.3187 18.577V15.7569C31.3187 13.1066 27.2753 13.0726 27.2753 15.7569V18.577C27.2753 19.3245 26.6637 19.9361 25.9162 19.9361H19.9361V25.9162C19.9361 26.6637 19.3245 27.2753 18.577 27.2753H15.7569C13.1066 27.2753 13.0726 31.3187 15.7569 31.3187H18.577C19.3245 31.3187 19.9361 31.9303 19.9361 32.6778V38.6239H25.9162C26.6637 38.6239 27.2753 39.2355 27.2753 39.983V42.8371C27.2753 45.4874 31.3187 45.4874 31.3187 42.8371V39.983C31.3187 39.2355 31.9303 38.6239 32.6778 38.6239H38.6239ZM41.1722 26.5958L40.9684 26.8676L40.9344 26.9016L40.9004 26.9356C40.8664 26.9695 40.8664 26.9695 40.8325 26.9695L40.7985 27.0035L40.7645 27.0375L40.7305 27.0715H40.6965L40.6626 27.1054H40.6286L40.5946 27.1394L40.4927 27.1734L40.4247 27.2074H40.3907C39.9151 27.3433 37.7745 27.2753 37.1629 27.2753C34.5126 27.2753 34.5126 31.3187 37.1629 31.3187H39.983C40.7305 31.3187 41.3421 31.9303 41.3421 32.6778V38.6239H47.3222C48.0697 38.6239 48.6813 39.2355 48.6813 39.983V42.8371C48.6813 45.4874 52.7247 45.4874 52.7247 42.8371V39.983C52.7247 39.2355 53.3363 38.6239 54.0838 38.6239H60.0299V19.9361H55.4429V21.4312C55.4429 24.0475 53.3023 26.1541 50.686 26.1541C48.1037 26.1541 45.9631 24.0475 45.9631 21.4312V19.9361H41.3421C41.3421 21.2613 41.4441 25.2367 41.3081 26.222L41.1722 26.5958ZM41.3421 41.3421V45.9631H42.8371C45.4534 45.9631 47.56 48.1037 47.56 50.686C47.56 53.3023 45.4534 55.4429 42.8371 55.4429H41.3421V60.0299H47.3222C48.0697 60.0299 48.6813 60.6415 48.6813 61.389V64.2431C48.6813 66.8934 52.7247 66.8934 52.7247 64.2431V61.389C52.7247 60.6415 53.3363 60.0299 54.0838 60.0299H60.0299V54.0838C60.0299 53.3363 60.6415 52.7247 61.389 52.7247H64.2431C66.8934 52.7247 66.8934 48.6813 64.2431 48.6813H61.389C60.6415 48.6813 60.0299 48.0697 60.0299 47.3222V41.3421H55.4429V42.8371C55.4429 45.4534 53.3023 47.56 50.686 47.56C48.1037 47.56 45.9631 45.4534 45.9631 42.8371V41.3421H41.3421ZM40.9004 26.9356C40.8664 26.9695 40.8664 26.9695 40.8325 26.9695L40.9004 26.9356Z" fill="#F48120"/>
</g>
<defs>
<clipPath id="clip0_6_387">
<rect width="58" height="58" fill="white" transform="translate(11 11)"/>
</clipPath>
</defs>
</svg>
