<svg xmlns="http://www.w3.org/2000/svg" xmlns:xlink="http://www.w3.org/1999/xlink" width="80" height="80" viewBox="0 0 80 80">
  <defs>
    <linearGradient id="linear-gradient" x1="0.704" y1="0.116" x2="-0.088" y2="0.5" gradientUnits="objectBoundingBox">
      <stop offset="0" stop-color="#f48120"/>
      <stop offset="1" stop-color="#ffa95e"/>
    </linearGradient>
  </defs>
  <g id="Group_7" data-name="Group 7" transform="translate(-985 -4681)">
    <circle id="Ellipse_3" data-name="Ellipse 3" cx="40" cy="40" r="40" transform="translate(985 4681)" fill="url(#linear-gradient)"/>
    <g id="Group_1195" data-name="Group 1195" transform="translate(-1.866 -1.434)">
      <circle id="Ellipse_20" data-name="Ellipse 20" cx="5.788" cy="5.788" r="5.788" transform="translate(1021.269 4716.939)" fill="rgba(0,0,0,0)" stroke="#fff" stroke-width="3"/>
      <path id="Path_2521" data-name="Path 2521" d="M24.169,2.294A9.624,9.624,0,0,0,20.763,2a9.624,9.624,0,0,0-3.406.294,3.859,3.859,0,0,0-2.088,2.088,4.756,4.756,0,0,0-.276,1.666,3.049,3.049,0,0,1-4.547,2.625A4.755,4.755,0,0,0,8.864,8.08a3.859,3.859,0,0,0-2.853.764,9.623,9.623,0,0,0-1.957,2.8,9.624,9.624,0,0,0-1.449,3.1A3.859,3.859,0,0,0,3.369,17.6a4.754,4.754,0,0,0,1.3,1.072,3.05,3.05,0,0,1,0,5.251,4.758,4.758,0,0,0-1.3,1.072A3.858,3.858,0,0,0,2.6,27.844a9.623,9.623,0,0,0,1.449,3.1,9.622,9.622,0,0,0,1.957,2.8,3.859,3.859,0,0,0,2.853.764,4.757,4.757,0,0,0,1.581-.594,3.05,3.05,0,0,1,4.548,2.626,4.756,4.756,0,0,0,.276,1.666,3.859,3.859,0,0,0,2.088,2.088,9.626,9.626,0,0,0,3.406.294,9.626,9.626,0,0,0,3.406-.294,3.859,3.859,0,0,0,2.088-2.088,4.754,4.754,0,0,0,.276-1.666,3.049,3.049,0,0,1,4.548-2.626,4.756,4.756,0,0,0,1.58.593,3.858,3.858,0,0,0,2.853-.764,9.622,9.622,0,0,0,1.957-2.8,9.62,9.62,0,0,0,1.449-3.1,3.859,3.859,0,0,0-.764-2.853,4.755,4.755,0,0,0-1.3-1.072,3.049,3.049,0,0,1,0-5.251,4.754,4.754,0,0,0,1.3-1.072,3.859,3.859,0,0,0,.764-2.853,9.621,9.621,0,0,0-1.449-3.1,9.623,9.623,0,0,0-1.957-2.8,3.859,3.859,0,0,0-2.853-.764,4.757,4.757,0,0,0-1.581.594,3.05,3.05,0,0,1-4.548-2.626,4.754,4.754,0,0,0-.276-1.666A3.858,3.858,0,0,0,24.169,2.294Z" transform="translate(1006.295 4701.434)" fill="rgba(0,0,0,0)" stroke="#fff" stroke-width="3"/>
    </g>
  </g>
</svg>
