<svg xmlns="http://www.w3.org/2000/svg" width="60" height="60" viewBox="0 0 60 60">
  <g id="iot" transform="translate(-267 -1397)">
    <circle id="Ellipse_30" data-name="Ellipse 30" cx="30" cy="30" r="30" transform="translate(267 1397)" fill="#f48120"/>
    <path id="noun-iot-6724298" d="M25.174,27.839a1.969,1.969,0,1,0,1.969,1.969,1.97,1.97,0,0,0-1.969-1.969Zm0,2.642a.673.673,0,1,1,.673-.673A.673.673,0,0,1,25.174,30.481Zm5.348-5.455a.648.648,0,0,1-.917.917,6.269,6.269,0,0,0-8.864,0,.648.648,0,0,1-.917-.917,7.565,7.565,0,0,1,10.7,0ZM28.743,26.8a.648.648,0,1,1-.917.917,3.753,3.753,0,0,0-5.308,0A.648.648,0,0,1,21.6,26.8a5.053,5.053,0,0,1,7.142,0ZM32.3,23.247a.648.648,0,0,1-.917.917,8.781,8.781,0,0,0-12.419,0,.648.648,0,0,1-.917-.917,10.077,10.077,0,0,1,14.253,0Zm10.917-.035a1.957,1.957,0,0,0-1.849,1.312H37.6a12.4,12.4,0,0,0-3.184-7.684l2.661-2.661a1.957,1.957,0,1,0-.915-.915l-2.661,2.661a12.4,12.4,0,0,0-7.684-3.184V8.979a1.959,1.959,0,1,0-1.293,0v3.763a12.4,12.4,0,0,0-7.684,3.184l-2.661-2.661a1.957,1.957,0,1,0-.915.915L15.93,16.84a12.4,12.4,0,0,0-3.184,7.684H8.983a1.959,1.959,0,1,0,0,1.293h3.763A12.4,12.4,0,0,0,15.93,33.5l-2.661,2.661a1.957,1.957,0,1,0,.915.915l2.661-2.661A12.4,12.4,0,0,0,24.529,37.6v3.763a1.959,1.959,0,1,0,1.293,0V37.6a12.4,12.4,0,0,0,7.684-3.184l2.661,2.661a1.957,1.957,0,1,0,.915-.915L34.421,33.5A12.4,12.4,0,0,0,37.6,25.817h3.763a1.959,1.959,0,1,0,1.849-2.605Zm-12.473,6.6H28.438a3.266,3.266,0,0,1-6.532,0H19.6a4.371,4.371,0,0,1-.7-8.686c0-.019,0-.037,0-.056a4.909,4.909,0,0,1,8.874-2.895,2.643,2.643,0,0,1,3.994,3.017,4.371,4.371,0,0,1-1.026,8.62Z" transform="translate(271.825 1401.829)" fill="#fff"/>
  </g>
</svg>
