<?xml version="1.0" encoding="UTF-8"?><svg id="Layer_1" xmlns="http://www.w3.org/2000/svg" xmlns:xlink="http://www.w3.org/1999/xlink" viewBox="0 0 557.5 557.5"><defs><style>.cls-1{fill:#fff;}.cls-2{fill:url(#linear-gradient);}</style><linearGradient id="linear-gradient" x1="583.5" y1="242.75" x2="26" y2="242.75" gradientTransform="translate(-26 36)" gradientUnits="userSpaceOnUse"><stop offset="0" stop-color="#3c3c3b"/><stop offset="1" stop-color="#191919"/></linearGradient></defs><circle class="cls-2" cx="278.75" cy="278.75" r="278.75"/><path class="cls-1" d="M119.31,202.01l146.36,63.26c3.59,1.44,7.33,2.01,11.21,1.87,4.03,0,7.91-.86,11.65-2.59l147.65-65.85c9.49-4.17,13.8-15.24,9.63-24.73-1.87-4.31-5.32-7.76-9.63-9.63l-147.65-59.52c-7.04-3.31-15.24-3.31-22.43,0l-147.65,63.26c-6.33,3.16-10.21,9.49-10.35,16.39-.14,7.62,4.31,14.38,11.21,17.54ZM274.72,123.37c1.73-1.01,3.74-1.01,5.46,0l141.75,57.79-142.04,63.26c-1.73.86-3.74.86-5.46,0l-141.9-59.66,142.19-61.39ZM434.3,346.49c-1.15-.29-2.44-.29-3.59,0l-150.67,66.85c-1.73,1.01-3.88,1.01-5.75,0l-150.67-63.26c-1.01-.14-2.16-.14-3.16,0-5.46.14-9.78,4.74-9.63,10.21.14,4.03,2.73,7.62,6.47,8.91l149.37,63.26c3.45,1.73,7.33,2.59,11.21,2.59,3.59,0,7.04-.86,10.35-2.3l149.52-65.85c3.88-1.44,6.47-5.18,6.47-9.34.72-5.46-3.16-10.35-8.63-11.07h-1.29ZM435.74,256.64c-1.44-.29-3.02-.29-4.46,0l-152.68,69.15c-1.73.86-3.74.86-5.46,0l-149.81-67.86h-4.03c-5.46-.72-10.35,3.02-11.07,8.48v.29c0,3.59,2.01,7.04,5.32,8.63l151.24,68.29c3.45,1.73,7.33,2.59,11.21,2.59,3.59,0,7.33-.86,10.5-2.59l153.4-68.29c3.59-1.58,5.89-5.03,5.89-8.91-.29-5.32-4.6-9.63-10.06-9.78h0Z"/></svg>