<?xml version="1.0" encoding="UTF-8"?><svg id="Layer_1" xmlns="http://www.w3.org/2000/svg" xmlns:xlink="http://www.w3.org/1999/xlink" viewBox="0 0 557.5 557.5"><defs><style>.cls-1{fill:#fff;}.cls-2{fill:url(#linear-gradient);}</style><linearGradient id="linear-gradient" x1="583.5" y1="242.75" x2="26" y2="242.75" gradientTransform="translate(-26 36)" gradientUnits="userSpaceOnUse"><stop offset="0" stop-color="#3c3c3b"/><stop offset="1" stop-color="#191919"/></linearGradient></defs><circle class="cls-2" cx="278.75" cy="278.75" r="278.75"/><path class="cls-1" d="M90.2,270.81c0,3.43,2.78,6.21,6.21,6.21s6.21-2.78,6.21-6.21v-39.73.03s0-.16,0-.16c.02-.43.17-1.55.71-2.5.3-.52,1.08-1.89,4.31-2.14,1.82-.14,3.77-.31,5.76-.66,5.58-.97,16.32-3.43,25.55-9.07,12.17-7.44,18.16-18.14,17.3-30.96-.34-5.07-1.8-10.06-4.34-14.84l-13.84-26.02v-.03c-.15-.26-.43-1.14-.46-1.64l.83-.68c3.65-2.97,7.42-6.04,10.94-9.49l17.17-16.81c1.18-1.15,2.34-2.33,3.47-3.46.58-.58,1.15-1.16,1.73-1.74,1.62-1.62,2.19-1.11,3.22-.17l.14.13.15.12c.28.22,6.94,5.54,16.23,10.15,13.09,6.5,24.67,8.42,34.43,5.68,5-1.4,9.43-4.03,13.17-7.81,3.93-3.98,7.12-9.29,9.48-15.79l.05-.14,7.22-23.33c.33-1.06.63-2.12.93-3.14.1-.35.2-.7.31-1.06.4-1.38,1.03-1.45,2.01-1.41l.62.03c3.67.17,9.22.42,12.77.42h17.59c3.55,0,9.1-.25,12.77-.42l.62-.03c.98-.04,1.61.03,2.01,1.41.1.35.2.71.31,1.06.29,1.02.6,2.08.93,3.14l7.18,23.19.09.28c2.35,6.49,5.54,11.8,9.47,15.79,3.74,3.78,8.17,6.41,13.17,7.81,2.88.81,5.91,1.21,9.1,1.21,7.62,0,16.1-2.3,25.33-6.89,9.28-4.61,15.95-9.93,16.23-10.15l.15-.12.14-.13c1.03-.94,1.6-1.45,3.22.17.58.58,1.15,1.16,1.73,1.74,1.13,1.14,2.3,2.31,3.48,3.47l17.17,16.81c3.52,3.45,7.29,6.52,10.94,9.49l.83.68c-.02.43-.23,1.19-.48,1.7l-13.82,25.99c-2.54,4.78-4,9.78-4.34,14.84-.85,12.81,5.13,23.52,17.3,30.96,9.23,5.64,19.97,8.1,25.55,9.07,1.99.34,3.94.52,5.76.66,3.23.25,4.02,1.62,4.31,2.14.55.97.7,2.11.71,2.52v39.83c0,3.43,2.78,6.21,6.21,6.21s6.21-2.78,6.21-6.21v-39.67c.01-.92-.08-4.34-1.89-7.98-2.7-5.44-7.89-8.71-14.62-9.22-1.74-.13-3.19-.27-4.58-.51-4.71-.82-13.73-2.87-21.2-7.43-8.2-5.01-11.92-11.4-11.38-19.52.22-3.3,1.2-6.61,2.91-9.83l13.83-26c.23-.43,1.33-2.58,1.75-5.37.71-4.7-.77-8.82-4.19-11.61l-1.06-.86c-3.59-2.92-6.98-5.68-10.09-8.73l-17.17-16.81c-1.12-1.09-2.25-2.24-3.35-3.34-.59-.59-1.17-1.18-1.76-1.77-1.54-1.54-4.1-3.54-7.52-4.35-4.39-1.03-8.88.25-12.67,3.61-.87.68-6.57,5.03-14.08,8.74-6.99,3.45-17.05,7.06-25.34,4.73-6.38-1.8-11.04-6.94-14.25-15.72l-7.13-23.04c-.29-.94-.57-1.9-.86-2.9-.11-.36-.21-.73-.32-1.09-1.53-5.25-6.15-10.73-14.51-10.36l-.62.03c-3.56.16-8.94.41-12.21.41h-17.59c-3.27,0-8.65-.24-12.21-.41l-.62-.03c-8.37-.38-12.98,5.1-14.51,10.36-.11.36-.21.72-.31,1.09-.29,1.01-.57,1.96-.86,2.91l-7.13,23.04c-3.21,8.78-7.87,13.93-14.25,15.72-8.28,2.33-18.35-1.28-25.34-4.73-7.53-3.71-13.23-8.07-14.08-8.74-3.79-3.36-8.28-4.64-12.67-3.61-3.43.8-5.98,2.81-7.52,4.35-.59.59-1.18,1.18-1.77,1.77-1.1,1.1-2.23,2.25-3.35,3.34l-17.17,16.81c-3.11,3.05-6.5,5.81-10.09,8.73l-1.06.86c-3.41,2.78-4.9,6.91-4.19,11.61.42,2.79,1.52,4.94,1.75,5.37l13.83,26c1.71,3.22,2.69,6.53,2.91,9.83.54,8.13-3.18,14.51-11.38,19.52-7.47,4.56-16.49,6.62-21.2,7.43-1.39.24-2.84.38-4.58.51-6.73.51-11.92,3.79-14.62,9.22-1.81,3.64-1.9,7.07-1.89,7.98v39.67h0ZM424.47,144.8s.02-.04.03-.05l-.03.05Z"/><path class="cls-1" d="M362.04,234.31c.75,3.17,3.84,5.2,7.05,4.67h0c3.56-.59,5.87-4.07,5.03-7.58-4.65-19.45-15.41-37.09-30.74-50.22-8.45-7.23-17.98-12.88-28.34-16.78-10.73-4.04-22.02-6.09-33.58-6.09s-22.86,2.05-33.58,6.09c-10.36,3.9-19.9,9.55-28.34,16.78-15.34,13.13-26.09,30.77-30.74,50.22-.84,3.51,1.47,6.99,5.03,7.58,3.21.53,6.3-1.5,7.05-4.67,8.78-37.16,41.81-63.57,80.59-63.57s71.81,26.41,80.59,63.57h0Z"/><path class="cls-1" d="M242.56,266.46c-10.39,10.39-16.11,24.2-16.11,38.88s5.72,28.5,16.11,38.88c10.39,10.39,24.2,16.11,38.88,16.11s28.5-5.72,38.88-16.11c10.39-10.39,16.11-24.2,16.11-38.88s-5.72-28.5-16.11-38.88-24.2-16.11-38.88-16.11-28.5,5.72-38.88,16.11ZM324.01,305.34c0,23.47-19.09,42.56-42.56,42.56s-42.56-19.09-42.56-42.56,19.09-42.56,42.56-42.56,42.56,19.09,42.56,42.56h0Z"/><path class="cls-1" d="M162.82,247.21c-10.99,0-21.32,4.28-29.09,12.05s-12.05,18.1-12.05,29.09,4.28,21.32,12.05,29.09c7.77,7.77,18.1,12.05,29.09,12.05s21.32-4.28,29.09-12.05c7.77-7.77,12.05-18.1,12.05-29.09s-4.28-21.32-12.05-29.09c-7.77-7.77-18.1-12.05-29.09-12.05h0ZM162.82,317.06c-15.83,0-28.71-12.88-28.71-28.71s12.88-28.71,28.71-28.71,28.71,12.88,28.71,28.71-12.88,28.71-28.71,28.71Z"/><path class="cls-1" d="M134.96,343.82c.76-.17,1.58-.09,2.35.24,9.95,4.19,18.94,5.62,26.6,5.62,11.4,0,19.84-3.18,24-5.18.66-.32,1.39-.43,2.1-.34,5.98.83,12.02,4.05,15.97,6.57,2.66,1.69,6.17,1.14,8.16-1.3h0c2.36-2.88,1.67-7.18-1.48-9.17-5.02-3.19-12.79-7.28-20.96-8.4-3.13-.43-6.31.07-9.18,1.44-5.45,2.61-20.29,7.78-40.4-.69-3.17-1.33-6.58-1.65-9.88-.91-6.44,1.43-18.7,5.23-28.53,14.56-5.7,5.41-9.77,11.91-12.09,19.32-2.69,8.62-3,18.47-.92,29.3.61,3.17,2.16,6.03,4.48,8.27,3.53,3.4,9.97,8.26,20.65,12.08,10.7,3.82,23.28,5.75,37.51,5.75.68,0,1.36,0,2.05-.01,3.53-.05,6.32-3.01,6.14-6.53-.17-3.33-2.93-5.94-6.26-5.9-13.59.18-25.43-1.5-35.26-5.01-9.04-3.23-14.03-7.22-16.2-9.31-.46-.45-.79-1.04-.91-1.68-6.92-35.97,20.1-46.04,32.04-48.7h0Z"/><path class="cls-1" d="M400.39,329.49c10.99,0,21.32-4.28,29.09-12.05,7.77-7.77,12.05-18.1,12.05-29.09s-4.28-21.32-12.05-29.09-18.1-12.05-29.09-12.05-21.32,4.28-29.09,12.05c-7.77,7.77-12.05,18.1-12.05,29.09s4.28,21.32,12.05,29.09c7.77,7.77,18.1,12.05,29.09,12.05h0ZM400.39,259.64c15.83,0,28.71,12.88,28.71,28.71s-12.88,28.71-28.71,28.71-28.71-12.88-28.71-28.71,12.88-28.71,28.71-28.71h0Z"/><path class="cls-1" d="M471.57,365.56c-2.32-7.41-6.38-13.91-12.09-19.32-9.83-9.33-22.1-13.13-28.53-14.56-3.3-.73-6.71-.42-9.88.91-20.11,8.46-34.96,3.3-40.4.69-2.87-1.38-6.04-1.88-9.18-1.44-8.17,1.13-15.94,5.22-20.96,8.4-3.14,2-3.83,6.29-1.48,9.17,2,2.44,5.5,3,8.16,1.3,3.95-2.52,9.99-5.74,15.97-6.57.71-.1,1.44.02,2.1.34,6.96,3.34,25.84,9.98,50.6-.44.78-.33,1.59-.41,2.35-.24,11.94,2.66,38.96,12.73,32.04,48.7-.12.64-.45,1.23-.91,1.68-2.17,2.09-7.16,6.08-16.2,9.31-9.83,3.51-21.66,5.19-35.26,5.01-3.33-.04-6.1,2.57-6.26,5.9h0c-.18,3.52,2.61,6.48,6.14,6.53.69,0,1.37.01,2.05.01,14.23,0,26.82-1.93,37.51-5.75,10.67-3.81,17.12-8.67,20.65-12.08,2.32-2.24,3.87-5.1,4.48-8.27,2.08-10.83,1.77-20.69-.92-29.3h0Z"/><path class="cls-1" d="M365.23,393.66c-3-3.56-17.61-19.45-42.16-24.12-4.07-.77-8.3-.47-12.23.88-5.54,1.9-16.11,5.29-24.67,6.62-3.37.52-6.91.53-10.24,0-8.46-1.33-19.11-4.73-24.71-6.64-3.91-1.34-8.12-1.63-12.18-.86-24.56,4.66-39.17,20.57-42.18,24.12-7.64,5.98-12.58,16.72-14.71,31.91-1.68,12.01-1.2,24.11-.77,30.26.35,4.9,2.75,9.4,6.6,12.36,3.18,2.44,6.9,4.68,10.05,6.41,3.17,1.74,7.16.43,8.66-2.87,1.35-2.96.18-6.46-2.67-8.02-2.71-1.49-5.87-3.38-8.47-5.38-1.03-.79-1.68-2.02-1.78-3.38-1.42-20.06.74-44.19,11.09-51.77l.69-.51.53-.68c.12-.16,12.69-15.96,35.27-20.25,1.95-.37,3.97-.23,5.85.41,5.97,2.04,17.4,5.68,26.79,7.16,4.65.73,9.38.73,14.08,0,9.5-1.48,20.86-5.11,26.79-7.15,1.89-.65,3.92-.79,5.87-.42,9.33,1.78,18.07,5.69,25.98,11.65,5.88,4.43,9.11,8.41,9.27,8.61l.51.66.71.52c10.34,7.59,12.51,31.72,11.09,51.77-.1,1.35-.74,2.58-1.77,3.38-2.89,2.22-6.47,4.31-9.35,5.85l-.05.03c-2.33,1.25-3.29,4.09-2.2,6.5h0c1.76,3.87,6.45,5.4,10.15,3.31,2.91-1.64,6.18-3.66,9.02-5.84,3.85-2.96,6.26-7.46,6.6-12.36.43-6.14.91-18.25-.77-30.26-2.13-15.2-7.07-25.93-14.71-31.91h0Z"/><path class="cls-1" d="M337.77,438.45c-3.43-.12-6.31,2.56-6.43,5.99l-1,27.94c0,.25-.01.49-.01.72-.8.37-2.53.95-5.87,1.35l-.19.02-.19.03c-.21.04-21.41,3.8-42.53,3.43h-.11s-.11,0-.11,0c-21.12.37-42.32-3.39-42.53-3.43l-.19-.03-.19-.02c-3.34-.39-5.06-.98-5.87-1.35,0-.23,0-.48-.01-.72l-1-27.93c-.12-3.43-3-6.11-6.43-5.99-3.43.12-6.11,3-5.99,6.43l1,27.94c.01.36,0,.78,0,1.23v.07c-.05,4.1,2.1,6.74,3.92,8.24,2.75,2.27,6.92,3.71,12.74,4.42,2.23.39,21.19,3.62,41.55,3.62,1.03,0,2.07,0,3.1-.03,1.04.02,2.07.03,3.1.03,20.36,0,39.32-3.23,41.55-3.62,5.82-.7,9.99-2.15,12.74-4.42,1.82-1.5,3.97-4.14,3.92-8.24v-.06c0-.45-.01-.87,0-1.23l1-27.93c.12-3.43-2.56-6.31-5.99-6.43h0Z"/></svg>