<?xml version="1.0" encoding="UTF-8"?><svg id="Layer_1" xmlns="http://www.w3.org/2000/svg" viewBox="0 0 540.79 540.92"><path d="M458.62,172.77l38.35-53.52-58.7-63.33-56.26,34.3c-14.72-9.15-30.7-16.49-47.64-21.88l-10.67-65.06L237.36,0l-15.57,64.16c-16.88,3.94-33.31,10.02-49.02,18.13l-53.51-38.48-63.33,58.71,34.19,56.27c-9.27,15.02-16.58,31-21.81,47.63L3.27,217.09l-3.27,86.34,64.04,15.57c3.95,16.99,10.03,33.47,18.13,49.14l-38.35,53.52,58.7,63.34,56.27-34.32c15.04,9.28,30.98,16.59,47.51,21.8l10.67,65.03,86.33,3.41,15.58-64.08c17.31-4.1,33.8-10.21,49.16-18.21l53.5,38.47,63.33-58.71-34.19-56.27c9.26-15.02,16.57-31,21.81-47.63l65.04-10.67,3.27-86.34-64.04-15.57c-3.96-16.98-10.04-33.47-18.13-49.14ZM521.24,309.45l-61.91,10.16-1.46,5.12c-5.32,18.56-13.44,36.29-24.12,52.71l-2.89,4.43,32.53,53.53-43.19,40.03-50.93-36.62-4.66,2.59c-16.72,9.28-35.02,16.07-54.39,20.17l-5.18,1.1-14.81,60.92-58.88-2.32-10.16-61.93-5.11-1.47c-18.43-5.27-36.12-13.39-52.59-24.12l-4.44-2.89-53.52,32.64-40.04-43.19,36.49-50.91-2.54-4.64c-9.42-17.18-16.18-35.47-20.06-54.38l-1.08-5.22-60.97-14.82,2.24-58.88,61.91-10.17,1.47-5.12c5.3-18.55,13.42-36.28,24.11-52.7l2.89-4.43-32.53-53.52,43.19-40.03,50.9,36.6,4.65-2.54c17.24-9.45,35.5-16.2,54.26-20.06l5.22-1.08,14.83-61.08,58.88,2.23,10.15,61.88,5.08,1.49c18.98,5.54,36.71,13.69,52.71,24.23l4.45,2.93,53.56-32.65,40.04,43.19-36.49,50.9,2.54,4.64c9.41,17.18,16.17,35.48,20.06,54.38l1.08,5.22,60.96,14.82-2.23,58.88Z"/><path d="M276.19,117.85c-84.28-3.02-155.2,62.67-158.38,146.81-3.19,84.15,62.67,155.2,146.8,158.39,1.96.07,3.92.11,5.86.11,81.56,0,149.41-64.74,152.52-146.92,3.19-84.15-62.67-155.2-146.8-158.39ZM265.25,406.25c-74.88-2.84-133.49-66.07-130.65-140.95,2.77-73.14,63.15-130.75,135.74-130.75,1.72,0,3.47.03,5.21.1,74.88,2.84,133.49,66.07,130.65,140.95-2.84,74.88-65.75,133.67-140.95,130.65Z"/><path d="M269.94,282.38c.42.01.84.02,1.26.02,13.76,0,27.34-8.54,38.36-24.17,9.44-13.37,15.63-30.36,16.15-44.34.54-14.19-4.47-27.73-14.13-38.14-9.64-10.41-22.77-16.44-36.95-16.98-14.26-.55-27.74,4.48-38.14,14.13-10.41,9.65-16.44,22.77-16.97,36.96-.53,13.98,4.35,31.39,12.75,45.44,10.11,16.92,23.49,26.54,37.67,27.08ZM247.92,185.23c6.77-6.27,15.49-9.69,24.66-9.69.47,0,.94,0,1.41.03,9.7.37,18.67,4.49,25.26,11.61,6.6,7.12,10.03,16.37,9.66,26.07-.41,10.74-5.55,24.59-13.09,35.29-7.86,11.14-16.9,17.32-25.25,17.04-8.18-.31-16.89-7.2-23.88-18.9-6.71-11.23-10.78-25.43-10.38-36.18.37-9.7,4.49-18.67,11.61-25.27Z"/><path d="M310.17,283.74l-19.94-.75-21.75,37.89-18.83-39.44-20.02-.76c-30.11-.97-55.35,22.39-56.49,52.45l-.58,15.46,16.79.63.58-15.45c.8-20.79,18.31-37.2,39.06-36.28l9.87.37,20.69,43.37,1.44,5.5,6.51.23h6.85s1.58-5.31,1.58-5.31l23.82-41.5,9.78.37c20.84.79,37.15,18.35,36.37,39.14l-.58,15.37,16.79.64.58-15.37c1.13-30.05-22.42-55.43-52.52-56.58Z"/></svg>