<svg xmlns="http://www.w3.org/2000/svg" width="60" height="60" viewBox="0 0 60 60">
  <g id="Group_8326" data-name="Group 8326" transform="translate(-267 -1397)">
    <circle id="Ellipse_30" data-name="Ellipse 30" cx="30" cy="30" r="30" transform="translate(267 1397)" fill="#f48120"/>
    <g id="MDI_file-document-multiple-outline" data-name="MDI / file-document-multiple-outline" transform="translate(283 1413)">
      <g id="Boundary" fill="#fff" stroke="rgba(0,0,0,0)" stroke-width="1" opacity="0">
        <rect width="28" height="28" stroke="none"/>
        <rect x="0.5" y="0.5" width="27" height="27" fill="none"/>
      </g>
      <path id="Path_file-document-multiple-outline" data-name="Path / file-document-multiple-outline" d="M18.8,0H9.2A2.374,2.374,0,0,0,6.8,2.333V21a2.374,2.374,0,0,0,2.4,2.333H23.6A2.374,2.374,0,0,0,26,21V7L18.8,0m4.8,21H9.2V2.333h8.4V8.167h6V21M4.4,4.667v21H23.6V28H4.4A2.374,2.374,0,0,1,2,25.667v-21H4.4m7.2,7V14h9.6V11.667H11.6m0,4.667v2.333h6V16.333Z" fill="#fff"/>
    </g>
  </g>
</svg>
