<svg width="46" height="46" viewBox="0 0 46 46" fill="none" xmlns="http://www.w3.org/2000/svg">
<g clip-path="url(#clip0_0_57)">
<g clip-path="url(#clip1_0_57)">
<g clip-path="url(#clip2_0_57)">
<path d="M22.5312 45.5C34.9577 45.5 45.0312 35.4264 45.0312 23C45.0312 10.5736 34.9577 0.5 22.5312 0.5C10.1048 0.5 0.03125 10.5736 0.03125 23C0.03125 35.4264 10.1048 45.5 22.5312 45.5Z" fill="url(#paint0_linear_0_57)"/>
<path d="M14.4818 11.7273V14.4872H30.5843V11.7273C30.5843 11.3256 30.2648 11 29.8629 11H15.2032C14.8013 11 14.4818 11.3256 14.4818 11.7273ZM33.4048 27.9231H29.9598C29.6766 27.9231 29.4561 28.1647 29.4561 28.4479V29.6094L27.5587 29.6014V24.0769H30.0778C30.3611 24.0769 30.5843 23.8613 30.5843 23.5781V15.7179H14.4818V23.5781C14.4818 23.8613 14.7051 24.0769 14.9883 24.0769H17.5074V29.5642L15.61 29.5809V28.4479C15.61 28.1647 15.3895 27.9231 15.1063 27.9231H11.6613C11.378 27.9231 11.1484 28.1647 11.1484 28.4479V31.8898C11.1484 32.173 11.378 32.3846 11.6613 32.3846H15.1063C15.3895 32.3846 15.61 32.173 15.61 31.8898V30.9231L18.1596 30.8974H18.1664C18.5281 30.8974 18.8408 30.6174 18.8408 30.2463V24.0769H21.8664V30.5385H20.8106C20.5274 30.5385 20.2767 30.7621 20.2767 31.0453V34.4872C20.2767 34.7704 20.5274 35 20.8106 35H24.2556C24.5388 35 24.7895 34.7704 24.7895 34.4872V31.0453C24.7895 30.7621 24.5388 30.5385 24.2556 30.5385H23.1997V24.0769H26.2254V30.2723C26.2254 30.6435 26.5291 30.9451 26.9005 30.9476L29.4561 30.9596V31.8897C29.4561 32.173 29.6766 32.3846 29.9598 32.3846H33.4048C33.6881 32.3846 33.9177 32.173 33.9177 31.8897V28.4478C33.9177 28.1647 33.6881 27.9231 33.4048 27.9231ZM20.9433 19.4807L19.6279 20.1395L20.9433 20.7984V21.7999L18.2766 20.4462V19.8328L20.9433 18.4793V19.4807ZM22.2907 21.8205H21.3329L22.7795 18.0769H23.7424L22.2907 21.8205ZM24.1228 20.7977L25.447 20.1395L24.1228 19.4813V18.4802L26.7895 19.8282V20.451L24.1228 21.7989V20.7977Z" fill="white"/>
</g>
</g>
</g>
<defs>
<linearGradient id="paint0_linear_0_57" x1="22.5313" y1="0.5" x2="7.05125" y2="36.095" gradientUnits="userSpaceOnUse">
<stop stop-color="#3E3E3E"/>
<stop offset="1" stop-color="#1A1A1A"/>
</linearGradient>
<clipPath id="clip0_0_57">
<rect width="45" height="45" fill="white" transform="translate(0.03125 0.5)"/>
</clipPath>
<clipPath id="clip1_0_57">
<rect width="45" height="45" fill="white" transform="translate(0.03125 0.5)"/>
</clipPath>
<clipPath id="clip2_0_57">
<rect width="45" height="45" fill="white" transform="translate(0.03125 0.5)"/>
</clipPath>
</defs>
</svg>
