<svg width="40" height="41" viewBox="0 0 40 41" fill="none" xmlns="http://www.w3.org/2000/svg">
<g clip-path="url(#clip0_0_192)">
<path d="M35.6 16.9301C35.2 15.1301 34.4 13.3301 33.4 11.7301L35.4 7.53008L32.6 4.73008L28.4 6.73008C26.8 5.73008 25.2 5.13008 23.4 4.73008L22 0.330078H18L16.4 4.73008C14.6 5.13008 13 5.93008 11.4 6.93008L7.2 4.93008L4.4 7.53008L6.4 11.7301C5.4 13.3301 4.8 14.9301 4.4 16.7301L0 18.3301V22.3301L4.4 23.9301C4.8 25.7301 5.6 27.5301 6.4 28.9301L4.4 33.1301L7.2 35.9301L11.4 33.9301C13 34.9301 14.6 35.7301 16.4 36.1301L18 40.3301H22L23.6 35.9301C24.2 35.7301 25 35.5301 25.6 35.3301L22.4 32.1301C14.8 33.5301 8 27.9301 8 20.3301C8 13.7301 13.4 8.33008 20 8.33008C27.4 8.33008 33 14.9301 31.8 21.9301L35.2 25.3301C35.4 24.7301 35.6 24.3301 35.6 23.7301L40 22.3301V18.3301L35.6 16.9301Z" fill="url(#paint0_linear_0_192)"/>
<path d="M39.2024 35.1299L27.4024 23.3299C30.2024 17.1299 24.4024 10.5299 18.0023 12.3299L21.6024 15.9299C23.2024 17.5299 23.2024 20.1299 21.6024 21.5299C20.2024 23.1299 17.4023 23.1299 16.0023 21.5299L12.4023 18.1299C10.6023 23.7299 16.4023 30.1299 23.0023 27.53L34.8023 39.33C36.0023 40.5299 37.8024 40.5299 39.0024 39.33C40.2024 38.33 40.2024 36.3299 39.2024 35.1299Z" fill="url(#paint1_linear_0_192)"/>
</g>
<defs>
<linearGradient id="paint0_linear_0_192" x1="20" y1="0.330078" x2="20" y2="40.3301" gradientUnits="userSpaceOnUse">
<stop stop-color="#F48120"/>
<stop offset="1" stop-color="#BD661D"/>
</linearGradient>
<linearGradient id="paint1_linear_0_192" x1="25.9997" y1="12.0288" x2="25.9997" y2="40.2299" gradientUnits="userSpaceOnUse">
<stop stop-color="#F48120"/>
<stop offset="1" stop-color="#BD661D"/>
</linearGradient>
<clipPath id="clip0_0_192">
<rect width="40" height="40" fill="white" transform="translate(0 0.330078)"/>
</clipPath>
</defs>
</svg>
