<svg width="45" height="46" viewBox="0 0 45 46" fill="none" xmlns="http://www.w3.org/2000/svg">
<g clip-path="url(#clip0_0_66)">
<g clip-path="url(#clip1_0_66)">
<g clip-path="url(#clip2_0_66)">
<path d="M22.5 45.5C34.9264 45.5 45 35.4264 45 23C45 10.5736 34.9264 0.5 22.5 0.5C10.0736 0.5 0 10.5736 0 23C0 35.4264 10.0736 45.5 22.5 45.5Z" fill="url(#paint0_linear_0_66)"/>
<path d="M21.75 23.77C21.75 22.91 22.22 22.14 22.98 21.76L24.98 20.74C25.3 20.58 25.65 20.5 26 20.5H28.75V16C28.75 14.48 27.52 13.25 26 13.25H17C15.48 13.25 14.25 14.48 14.25 16V29C14.25 30.52 15.48 31.75 17 31.75H23.86C22.5037 30.2907 21.7499 28.3723 21.75 26.38V23.77ZM17 16.25H24C24.1989 16.25 24.3897 16.329 24.5303 16.4697C24.671 16.6103 24.75 16.8011 24.75 17C24.75 17.1989 24.671 17.3897 24.5303 17.5303C24.3897 17.671 24.1989 17.75 24 17.75H17C16.8011 17.75 16.6103 17.671 16.4697 17.5303C16.329 17.3897 16.25 17.1989 16.25 17C16.25 16.8011 16.329 16.6103 16.4697 16.4697C16.6103 16.329 16.8011 16.25 17 16.25ZM20 23.75H17C16.8011 23.75 16.6103 23.671 16.4697 23.5303C16.329 23.3897 16.25 23.1989 16.25 23C16.25 22.8011 16.329 22.6103 16.4697 22.4697C16.6103 22.329 16.8011 22.25 17 22.25H20C20.1989 22.25 20.3897 22.329 20.5303 22.4697C20.671 22.6103 20.75 22.8011 20.75 23C20.75 23.1989 20.671 23.3897 20.5303 23.5303C20.3897 23.671 20.1989 23.75 20 23.75ZM21 20.75H17C16.8011 20.75 16.6103 20.671 16.4697 20.5303C16.329 20.3897 16.25 20.1989 16.25 20C16.25 19.8011 16.329 19.6103 16.4697 19.4697C16.6103 19.329 16.8011 19.25 17 19.25H21C21.1989 19.25 21.3897 19.329 21.5303 19.4697C21.671 19.6103 21.75 19.8011 21.75 20C21.75 20.1989 21.671 20.3897 21.5303 20.5303C21.3897 20.671 21.1989 20.75 21 20.75ZM32.34 23.096L30.34 22.081C30.2345 22.0278 30.1181 22.0001 30 22H26C25.8819 22.0002 25.7655 22.028 25.66 22.081L23.66 23.096C23.5366 23.1588 23.4329 23.2545 23.3605 23.3726C23.2882 23.4907 23.2499 23.6265 23.25 23.765V26.383C23.25 29.04 24.91 31.453 27.384 32.388C27.7818 32.5393 28.2214 32.5389 28.619 32.387C31.09 31.453 32.75 29.04 32.75 26.383V23.765C32.7501 23.6265 32.7118 23.4907 32.6395 23.3726C32.5671 23.2545 32.4634 23.1588 32.34 23.096ZM30.06 26.238L28.26 28.253C28.1894 28.3316 28.103 28.3944 28.0065 28.4374C27.9101 28.4804 27.8056 28.5026 27.7 28.5026C27.5944 28.5026 27.4899 28.4804 27.3934 28.4374C27.297 28.3944 27.2106 28.3316 27.14 28.253L25.94 26.909C25.8744 26.8355 25.8239 26.7497 25.7915 26.6567C25.759 26.5636 25.7452 26.4651 25.7508 26.3667C25.7564 26.2683 25.7814 26.172 25.8242 26.0833C25.8671 25.9945 25.927 25.9151 26.0005 25.8495C26.074 25.7839 26.1598 25.7334 26.2528 25.701C26.3459 25.6685 26.4444 25.6547 26.5428 25.6603C26.6412 25.6659 26.7375 25.6909 26.8262 25.7337C26.915 25.7766 26.9944 25.8365 27.06 25.91L27.701 26.627L28.941 25.238C29.0735 25.0895 29.2595 24.9997 29.4582 24.9883C29.6569 24.977 29.852 25.045 30.0005 25.1775C30.149 25.31 30.2388 25.496 30.2502 25.6947C30.2615 25.8934 30.1935 26.0885 30.061 26.237L30.06 26.238Z" fill="white"/>
</g>
</g>
</g>
<defs>
<linearGradient id="paint0_linear_0_66" x1="22.5" y1="0.5" x2="7.02" y2="36.095" gradientUnits="userSpaceOnUse">
<stop stop-color="#3E3E3E"/>
<stop offset="1" stop-color="#1A1A1A"/>
</linearGradient>
<clipPath id="clip0_0_66">
<rect width="45" height="45" fill="white" transform="translate(0 0.5)"/>
</clipPath>
<clipPath id="clip1_0_66">
<rect width="45" height="45" fill="white" transform="translate(0 0.5)"/>
</clipPath>
<clipPath id="clip2_0_66">
<rect width="45" height="45" fill="white" transform="translate(0 0.5)"/>
</clipPath>
</defs>
</svg>
