<svg width="41" height="41" viewBox="0 0 41 41" fill="none" xmlns="http://www.w3.org/2000/svg">
<path d="M22.0938 2.78418H7.09375C6.09919 2.78418 5.14536 3.17927 4.4421 3.88253C3.73884 4.58579 3.34375 5.53962 3.34375 6.53418V34.0342C3.34375 35.0287 3.73884 35.9826 4.4421 36.6858C5.14536 37.3891 6.09919 37.7842 7.09375 37.7842H22.0938C23.0883 37.7842 24.0421 37.3891 24.7454 36.6858C25.4487 35.9826 25.8438 35.0287 25.8438 34.0342V6.53418C25.8438 5.53962 25.4487 4.58579 24.7454 3.88253C24.0421 3.17927 23.0883 2.78418 22.0938 2.78418ZM24.5938 33.4092C24.5938 35.1317 23.1925 36.5342 21.4688 36.5342H7.71875C6.89025 36.5332 6.09597 36.2036 5.51014 35.6178C4.9243 35.032 4.59474 34.2377 4.59375 33.4092V7.15918C4.59375 5.43668 5.99625 4.03418 7.71875 4.03418H21.4688C23.1925 4.03418 24.5938 5.43668 24.5938 7.15918V33.4092Z" fill="url(#paint0_linear_0_130)"/>
<path d="M21.4688 5.28418H17.0938C17.0938 5.94722 16.8304 6.58311 16.3615 7.05195C15.8927 7.52079 15.2568 7.78418 14.5938 7.78418C13.9307 7.78418 13.2948 7.52079 12.826 7.05195C12.3571 6.58311 12.0938 5.94722 12.0938 5.28418H7.71875C6.685 5.28418 5.84375 6.12543 5.84375 7.15918V33.4092C5.84375 34.4429 6.685 35.2842 7.71875 35.2842H21.4688C22.5025 35.2842 23.3438 34.4429 23.3438 33.4092V7.15918C23.3438 6.12543 22.5025 5.28418 21.4688 5.28418ZM13.1312 24.1892C13.2559 24.2986 13.332 24.453 13.3428 24.6185C13.3536 24.784 13.2982 24.947 13.1888 25.0717C13.0793 25.1963 12.9249 25.2724 12.7594 25.2832C12.5939 25.294 12.4309 25.2386 12.3063 25.1292L7.30625 20.7542C7.23933 20.6955 7.18571 20.6232 7.14897 20.5422C7.11223 20.4611 7.09323 20.3732 7.09323 20.2842C7.09323 20.1952 7.11223 20.1072 7.14897 20.0262C7.18571 19.9451 7.23933 19.8728 7.30625 19.8142L12.3063 15.4392C12.4312 15.3311 12.5939 15.2769 12.7587 15.2885C12.9235 15.3 13.077 15.3763 13.1857 15.5007C13.2944 15.6251 13.3494 15.7875 13.3387 15.9523C13.3281 16.1172 13.2526 16.2711 13.1287 16.3804L8.66875 20.2842L13.1312 24.1892ZM21.8813 20.7542L16.8813 25.1292C16.8197 25.1838 16.7479 25.2256 16.67 25.2522C16.5922 25.2789 16.5098 25.2898 16.4277 25.2843C16.3456 25.2788 16.2654 25.2571 16.1918 25.2204C16.1181 25.1837 16.0525 25.1327 15.9987 25.0704C15.8898 24.9457 15.8348 24.7829 15.8458 24.6176C15.8568 24.4524 15.933 24.2983 16.0575 24.1892L20.5187 20.2842L16.0562 16.3792C15.9389 16.2681 15.8692 16.116 15.8616 15.9546C15.854 15.7933 15.9092 15.6353 16.0155 15.5137C16.1219 15.3922 16.2712 15.3165 16.4321 15.3026C16.5931 15.2887 16.7531 15.3377 16.8787 15.4392L21.8787 19.8142C21.9457 19.8728 21.9993 19.9451 22.036 20.0262C22.0728 20.1072 22.0918 20.1952 22.0918 20.2842C22.0918 20.3732 22.0728 20.4611 22.036 20.5422C21.9993 20.6232 21.9457 20.6955 21.8787 20.7542H21.8813ZM37.7075 22.6554L35.9463 21.6617C36.015 21.1967 36.0487 20.7367 36.0487 20.2842C36.0487 19.8317 36.015 19.3717 35.9463 18.9067L37.7088 17.9129C37.8537 17.8313 37.9808 17.7215 38.0828 17.5901C38.1847 17.4587 38.2594 17.3083 38.3025 17.1476C38.3456 16.987 38.3561 16.8193 38.3336 16.6545C38.3111 16.4898 38.2559 16.3311 38.1712 16.1879L35.61 11.8592C35.4435 11.5776 35.1733 11.3726 34.8574 11.288C34.5414 11.2034 34.2049 11.246 33.92 11.4067L32.1275 12.4192C31.3713 11.8375 30.5379 11.3638 29.6512 11.0117V9.03418C29.6512 8.70266 29.5196 8.38472 29.2851 8.1503C29.0507 7.91588 28.7328 7.78418 28.4012 7.78418H27.0938V15.2842C28.4198 15.2842 29.6916 15.811 30.6293 16.7486C31.567 17.6863 32.0938 18.9581 32.0938 20.2842C32.0938 21.6103 31.567 22.882 30.6293 23.8197C29.6916 24.7574 28.4198 25.2842 27.0938 25.2842V32.7842H28.4025C28.734 32.7842 29.052 32.6525 29.2864 32.4181C29.5208 32.1836 29.6525 31.8657 29.6525 31.5342V29.5592C30.5389 29.2065 31.3722 28.7328 32.1287 28.1517L33.9212 29.1629C34.2061 29.3236 34.5427 29.3662 34.8586 29.2816C35.1746 29.197 35.4448 28.992 35.6112 28.7104L38.17 24.3804C38.2546 24.2372 38.3098 24.0786 38.3324 23.9138C38.3549 23.749 38.3443 23.5814 38.3012 23.4207C38.2582 23.2601 38.1835 23.1097 38.0815 22.9782C37.9796 22.8468 37.8524 22.7371 37.7075 22.6554Z" fill="url(#paint1_linear_0_130)"/>
<defs>
<linearGradient id="paint0_linear_0_130" x1="14.5938" y1="2.78418" x2="14.5938" y2="37.7842" gradientUnits="userSpaceOnUse">
<stop stop-color="#F48120"/>
<stop offset="1" stop-color="#BD661D"/>
</linearGradient>
<linearGradient id="paint1_linear_0_130" x1="22.0944" y1="5.28418" x2="22.0944" y2="35.2842" gradientUnits="userSpaceOnUse">
<stop stop-color="#F48120"/>
<stop offset="1" stop-color="#BD661D"/>
</linearGradient>
</defs>
</svg>
