<svg width="40" height="41" viewBox="0 0 40 41" fill="none" xmlns="http://www.w3.org/2000/svg">
<g clip-path="url(#clip0_0_167)">
<path d="M35 30.3301H17.5C16.837 30.3301 16.2011 30.5935 15.7322 31.0623C15.2634 31.5312 15 32.167 15 32.8301V35.3301C15 35.9931 15.2634 36.629 15.7322 37.0978C16.2011 37.5667 16.837 37.8301 17.5 37.8301H35C35.663 37.8301 36.2989 37.5667 36.7678 37.0978C37.2366 36.629 37.5 35.9931 37.5 35.3301V32.8301C37.5 32.167 37.2366 31.5312 36.7678 31.0623C36.2989 30.5935 35.663 30.3301 35 30.3301ZM24.375 34.7051H18.125C17.9592 34.7051 17.8003 34.6392 17.6831 34.522C17.5658 34.4048 17.5 34.2458 17.5 34.0801C17.5 33.9143 17.5658 33.7553 17.6831 33.6381C17.8003 33.5209 17.9592 33.4551 18.125 33.4551H24.375C24.5408 33.4551 24.6997 33.5209 24.8169 33.6381C24.9342 33.7553 25 33.9143 25 34.0801C25 34.2458 24.9342 34.4048 24.8169 34.522C24.6997 34.6392 24.5408 34.7051 24.375 34.7051ZM30 35.3301C29.6685 35.3301 29.3505 35.1984 29.1161 34.964C28.8817 34.7295 28.75 34.4116 28.75 34.0801C28.75 33.7486 28.8817 33.4306 29.1161 33.1962C29.3505 32.9618 29.6685 32.8301 30 32.8301C30.3315 32.8301 30.6495 32.9618 30.8839 33.1962C31.1183 33.4306 31.25 33.7486 31.25 34.0801C31.25 34.4116 31.1183 34.7295 30.8839 34.964C30.6495 35.1984 30.3315 35.3301 30 35.3301ZM33.75 35.3301C33.4185 35.3301 33.1005 35.1984 32.8661 34.964C32.6317 34.7295 32.5 34.4116 32.5 34.0801C32.5 33.7486 32.6317 33.4306 32.8661 33.1962C33.1005 32.9618 33.4185 32.8301 33.75 32.8301C34.0815 32.8301 34.3995 32.9618 34.6339 33.1962C34.8683 33.4306 35 33.7486 35 34.0801C35 34.4116 34.8683 34.7295 34.6339 34.964C34.3995 35.1984 34.0815 35.3301 33.75 35.3301ZM35 21.5801H17.5C16.837 21.5801 16.2011 21.8435 15.7322 22.3123C15.2634 22.7812 15 23.417 15 24.0801V26.5801C15 27.2431 15.2634 27.879 15.7322 28.3478C16.2011 28.8167 16.837 29.0801 17.5 29.0801H35C35.663 29.0801 36.2989 28.8167 36.7678 28.3478C37.2366 27.879 37.5 27.2431 37.5 26.5801V24.0801C37.5 23.417 37.2366 22.7812 36.7678 22.3123C36.2989 21.8435 35.663 21.5801 35 21.5801ZM24.375 25.9551H18.125C17.9592 25.9551 17.8003 25.8892 17.6831 25.772C17.5658 25.6548 17.5 25.4958 17.5 25.3301C17.5 25.1643 17.5658 25.0053 17.6831 24.8881C17.8003 24.7709 17.9592 24.7051 18.125 24.7051H24.375C24.5408 24.7051 24.6997 24.7709 24.8169 24.8881C24.9342 25.0053 25 25.1643 25 25.3301C25 25.4958 24.9342 25.6548 24.8169 25.772C24.6997 25.8892 24.5408 25.9551 24.375 25.9551ZM30 26.5801C29.6685 26.5801 29.3505 26.4484 29.1161 26.214C28.8817 25.9795 28.75 25.6616 28.75 25.3301C28.75 24.9986 28.8817 24.6806 29.1161 24.4462C29.3505 24.2118 29.6685 24.0801 30 24.0801C30.3315 24.0801 30.6495 24.2118 30.8839 24.4462C31.1183 24.6806 31.25 24.9986 31.25 25.3301C31.25 25.6616 31.1183 25.9795 30.8839 26.214C30.6495 26.4484 30.3315 26.5801 30 26.5801ZM33.75 26.5801C33.4185 26.5801 33.1005 26.4484 32.8661 26.214C32.6317 25.9795 32.5 25.6616 32.5 25.3301C32.5 24.9986 32.6317 24.6806 32.8661 24.4462C33.1005 24.2118 33.4185 24.0801 33.75 24.0801C34.0815 24.0801 34.3995 24.2118 34.6339 24.4462C34.8683 24.6806 35 24.9986 35 25.3301C35 25.6616 34.8683 25.9795 34.6339 26.214C34.3995 26.4484 34.0815 26.5801 33.75 26.5801ZM34.5263 10.2113L32.155 9.61883C32.0616 9.33423 31.9475 9.05683 31.8138 8.78883L33.07 6.69508C33.1415 6.57568 33.1711 6.43585 33.1541 6.29772C33.1371 6.1596 33.0745 6.0311 32.9762 5.93258L31.8987 4.85383C31.8001 4.75525 31.6714 4.69247 31.533 4.67548C31.3946 4.6585 31.2545 4.68827 31.135 4.76008L29.0413 6.01633C28.7732 5.88258 28.4958 5.76853 28.2113 5.67508L27.6187 3.30383C27.585 3.16856 27.507 3.04845 27.3972 2.96261C27.2873 2.87677 27.1519 2.83012 27.0125 2.83008H25.4875C25.3481 2.83012 25.2127 2.87677 25.1028 2.96261C24.993 3.04845 24.915 3.16856 24.8813 3.30383L24.2887 5.67508C24.0012 5.77008 23.7263 5.88133 23.4587 6.01633L21.365 4.76008C21.2456 4.68859 21.1058 4.65898 20.9676 4.67597C20.8295 4.69295 20.701 4.75554 20.6025 4.85383L19.5238 5.93133C19.4252 6.02993 19.3624 6.15867 19.3454 6.29707C19.3284 6.43546 19.3582 6.57556 19.43 6.69508L20.6862 8.78883C20.5525 9.05683 20.4384 9.33423 20.345 9.61883L17.9737 10.2113C17.8385 10.2451 17.7184 10.3231 17.6325 10.4329C17.5467 10.5428 17.5 10.6782 17.5 10.8176V12.3426C17.5 12.482 17.5467 12.6174 17.6325 12.7272C17.7184 12.8371 17.8385 12.9151 17.9737 12.9488L20.345 13.5413C20.44 13.8288 20.5512 14.1038 20.6862 14.3713L19.43 16.4651C19.3585 16.5845 19.3289 16.7243 19.3459 16.8624C19.3629 17.0006 19.4255 17.1291 19.5238 17.2276L20.6013 18.3063C20.6999 18.4049 20.8286 18.4677 20.967 18.4847C21.1054 18.5017 21.2455 18.4719 21.365 18.4001L23.4587 17.1438C23.725 17.2788 24.0012 17.3901 24.2887 17.4851L24.8813 19.8563C24.915 19.9916 24.993 20.1117 25.1028 20.1975C25.2127 20.2834 25.3481 20.33 25.4875 20.3301H27.0125C27.1519 20.33 27.2873 20.2834 27.3972 20.1975C27.507 20.1117 27.585 19.9916 27.6187 19.8563L28.2113 17.4851C28.4988 17.3901 28.7737 17.2788 29.0413 17.1438L31.135 18.4001C31.2544 18.4716 31.3942 18.5012 31.5324 18.4842C31.6705 18.4672 31.799 18.4046 31.8975 18.3063L32.9762 17.2288C33.0748 17.1302 33.1376 17.0015 33.1546 16.8631C33.1716 16.7247 33.1418 16.5846 33.07 16.4651L31.8138 14.3713C31.9487 14.1051 32.06 13.8288 32.155 13.5413L34.5263 12.9488C34.6615 12.9151 34.7816 12.8371 34.8675 12.7272C34.9533 12.6174 35 12.482 35 12.3426V10.8176C35 10.6782 34.9533 10.5428 34.8675 10.4329C34.7816 10.3231 34.6615 10.2451 34.5263 10.2113ZM26.25 15.3301C25.2554 15.3301 24.3016 14.935 23.5983 14.2317C22.8951 13.5285 22.5 12.5746 22.5 11.5801C22.5 10.5855 22.8951 9.63169 23.5983 8.92843C24.3016 8.22517 25.2554 7.83008 26.25 7.83008C27.2446 7.83008 28.1984 8.22517 28.9017 8.92843C29.6049 9.63169 30 10.5855 30 11.5801C30 12.5746 29.6049 13.5285 28.9017 14.2317C28.1984 14.935 27.2446 15.3301 26.25 15.3301Z" fill="url(#paint0_linear_0_167)"/>
<path d="M26.25 14.0801C27.6307 14.0801 28.75 12.9608 28.75 11.5801C28.75 10.1994 27.6307 9.08008 26.25 9.08008C24.8693 9.08008 23.75 10.1994 23.75 11.5801C23.75 12.9608 24.8693 14.0801 26.25 14.0801Z" fill="url(#paint1_linear_0_167)"/>
<path d="M13.0175 6.58008L10.8837 4.44633C10.6494 4.21189 10.3315 4.08015 10 4.08008H7.1525C6.71875 3.33633 5.92125 2.83008 5 2.83008C3.62125 2.83008 2.5 3.95133 2.5 5.33008C2.5 6.70883 3.62125 7.83008 5 7.83008C5.92125 7.83008 6.71875 7.32383 7.1525 6.58008H9.4825L11.6163 8.71383C11.8506 8.94826 12.1685 9.08001 12.5 9.08008H17.5V6.58008H13.0175ZM5 14.0801C5.92125 14.0801 6.71875 13.5738 7.1525 12.8301H16.25V10.3301H7.1525C6.71875 9.58633 5.92125 9.08008 5 9.08008C3.62125 9.08008 2.5 10.2013 2.5 11.5801C2.5 12.9588 3.62125 14.0801 5 14.0801ZM11.6163 14.4463L9.4825 16.5801H7.1525C6.71875 15.8363 5.92125 15.3301 5 15.3301C3.62125 15.3301 2.5 16.4513 2.5 17.8301C2.5 19.2088 3.62125 20.3301 5 20.3301C5.92125 20.3301 6.71875 19.8238 7.1525 19.0801H10C10.3315 19.08 10.6494 18.9483 10.8837 18.7138L13.0175 16.5801H17.5V14.0801H12.5C12.1685 14.0801 11.8506 14.2119 11.6163 14.4463Z" fill="url(#paint2_linear_0_167)"/>
</g>
<defs>
<linearGradient id="paint0_linear_0_167" x1="26.25" y1="2.83008" x2="26.25" y2="37.8301" gradientUnits="userSpaceOnUse">
<stop stop-color="#F48120"/>
<stop offset="1" stop-color="#BD661D"/>
</linearGradient>
<linearGradient id="paint1_linear_0_167" x1="26.25" y1="9.08008" x2="26.25" y2="14.0801" gradientUnits="userSpaceOnUse">
<stop stop-color="#F48120"/>
<stop offset="1" stop-color="#BD661D"/>
</linearGradient>
<linearGradient id="paint2_linear_0_167" x1="10" y1="2.83008" x2="10" y2="20.3301" gradientUnits="userSpaceOnUse">
<stop stop-color="#F48120"/>
<stop offset="1" stop-color="#BD661D"/>
</linearGradient>
<clipPath id="clip0_0_167">
<rect width="40" height="40" fill="white" transform="translate(0 0.330078)"/>
</clipPath>
</defs>
</svg>
