<svg width="45" height="46" viewBox="0 0 45 46" fill="none" xmlns="http://www.w3.org/2000/svg">
<g clip-path="url(#clip0_0_15)">
<g clip-path="url(#clip1_0_15)">
<g clip-path="url(#clip2_0_15)">
<path d="M22.5 45.5C34.9264 45.5 45 35.4264 45 23C45 10.5736 34.9264 0.5 22.5 0.5C10.0736 0.5 0 10.5736 0 23C0 35.4264 10.0736 45.5 22.5 45.5Z" fill="url(#paint0_linear_0_15)"/>
<path d="M25.9099 31.2031H19.5074C19.3376 31.2031 19.1748 31.2723 19.0547 31.3953C18.9346 31.5184 18.8672 31.6853 18.8672 31.8594C18.8672 32.0334 18.9346 32.2003 19.0547 32.3234C19.1748 32.4465 19.3376 32.5156 19.5074 32.5156H20.8997C21.0317 32.8994 21.2766 33.2317 21.6006 33.4668C21.9246 33.7019 22.3118 33.8281 22.7088 33.8281C23.1057 33.8281 23.4929 33.7019 23.817 33.4668C24.141 33.2317 24.3859 32.8994 24.5179 32.5156H25.9099C26.0797 32.5156 26.2425 32.4465 26.3626 32.3234C26.4827 32.2003 26.5501 32.0334 26.5501 31.8594C26.5501 31.6853 26.4827 31.5184 26.3626 31.3953C26.2425 31.2723 26.0797 31.2031 25.9099 31.2031Z" fill="white"/>
<path d="M25.9099 29.2344H19.5074C19.3376 29.2344 19.1748 29.3035 19.0547 29.4266C18.9346 29.5497 18.8672 29.7166 18.8672 29.8906C18.8672 30.0647 18.9346 30.2316 19.0547 30.3547C19.1748 30.4777 19.3376 30.5469 19.5074 30.5469H25.9099C26.0797 30.5469 26.2425 30.4777 26.3626 30.3547C26.4827 30.2316 26.5501 30.0647 26.5501 29.8906C26.5501 29.7166 26.4827 29.5497 26.3626 29.4266C26.2425 29.3035 26.0797 29.2344 25.9099 29.2344Z" fill="white"/>
<path d="M26.85 24.5771C27.4229 23.7888 27.7707 22.8528 27.8545 21.8736C27.9384 20.8943 27.7549 19.9105 27.3246 19.032C26.8944 18.1535 26.2343 17.4149 25.4181 16.8988C24.6019 16.3827 23.6618 16.1094 22.7028 16.1094C21.7438 16.1094 20.8037 16.3827 19.9875 16.8988C19.1713 17.4149 18.5112 18.1535 18.0809 19.032C17.6507 19.9105 17.4672 20.8943 17.551 21.8736C17.6349 22.8528 17.9827 23.7888 18.5556 24.5771L20.5084 27.2644L20.5102 27.266H19.5014C19.3316 27.266 19.1687 27.3351 19.0487 27.4582C18.9286 27.5813 18.8611 27.7482 18.8611 27.9222C18.8611 28.0963 18.9286 28.2632 19.0487 28.3863C19.1687 28.5093 19.3316 28.5785 19.5014 28.5785H25.9038C26.0736 28.5785 26.2365 28.5093 26.3565 28.3863C26.4766 28.2632 26.5441 28.0963 26.5441 27.9222C26.5441 27.7482 26.4766 27.5813 26.3565 27.4582C26.2365 27.3351 26.0736 27.266 25.9038 27.266H24.895L24.8973 27.2644L26.85 24.5771ZM23.3437 27.266H22.0591L22.061 27.2644V23.3269H21.1006C20.9308 23.3269 20.7679 23.2578 20.6479 23.1347C20.5278 23.0116 20.4604 22.8447 20.4604 22.6707C20.4604 22.4966 20.5278 22.3297 20.6479 22.2066C20.7679 22.0836 20.9308 22.0144 21.1006 22.0144H24.3018C24.4716 22.0144 24.6345 22.0836 24.7545 22.2066C24.8746 22.3297 24.9421 22.4966 24.9421 22.6707C24.9421 22.8447 24.8746 23.0116 24.7545 23.1347C24.6345 23.2578 24.4716 23.3269 24.3018 23.3269H23.3414V27.2644L23.3437 27.266Z" fill="white"/>
<path d="M30.2738 25.1336L29.1648 24.4774C29.092 24.4341 29.0115 24.4059 28.9281 24.3944C28.8446 24.383 28.7598 24.3886 28.6784 24.4108C28.597 24.4331 28.5208 24.4715 28.4539 24.524C28.3871 24.5765 28.331 24.642 28.2889 24.7168C28.2468 24.7915 28.2195 24.874 28.2086 24.9596C28.1976 25.0452 28.2032 25.1321 28.2251 25.2155C28.247 25.2988 28.2847 25.3769 28.3361 25.4453C28.3875 25.5137 28.4515 25.571 28.5246 25.614L29.6336 26.2702C29.7064 26.3136 29.7868 26.3417 29.8703 26.3532C29.9537 26.3646 30.0386 26.359 30.1199 26.3368C30.2013 26.3146 30.2776 26.2761 30.3444 26.2236C30.4113 26.1711 30.4673 26.1056 30.5094 26.0309C30.5516 25.9561 30.5789 25.8736 30.5898 25.788C30.6007 25.7024 30.5951 25.6155 30.5732 25.5321C30.5513 25.4488 30.5136 25.3707 30.4622 25.3023C30.4109 25.2339 30.3468 25.1766 30.2738 25.1336Z" fill="white"/>
<path d="M28.8517 18.4318C28.9639 18.4318 29.0742 18.4014 29.1712 18.3436L30.2802 17.6874C30.353 17.6443 30.4168 17.5869 30.468 17.5186C30.5192 17.4502 30.5567 17.3722 30.5785 17.2889C30.6002 17.2057 30.6058 17.1189 30.5948 17.0334C30.5838 16.948 30.5566 16.8656 30.5145 16.791C30.4725 16.7164 30.4165 16.6509 30.3498 16.5985C30.2831 16.546 30.207 16.5075 30.1258 16.4852C30.0446 16.4629 29.9599 16.4573 29.8765 16.4685C29.7932 16.4798 29.7128 16.5077 29.64 16.5508L28.531 17.2071C28.4089 17.2794 28.3135 17.3909 28.2596 17.5244C28.2057 17.658 28.1963 17.806 28.2328 17.9456C28.2694 18.0851 28.3499 18.2085 28.4618 18.2964C28.5737 18.3843 28.7107 18.4319 28.8517 18.4318Z" fill="white"/>
<path d="M22.7027 14.7969C22.8725 14.7969 23.0354 14.7277 23.1555 14.6047C23.2755 14.4816 23.343 14.3147 23.343 14.1406V12.8281C23.343 12.6541 23.2755 12.4872 23.1555 12.3641C23.0354 12.241 22.8725 12.1719 22.7027 12.1719C22.5329 12.1719 22.3701 12.241 22.25 12.3641C22.13 12.4872 22.0625 12.6541 22.0625 12.8281V14.1406C22.0625 14.3147 22.13 14.4816 22.25 14.6047C22.3701 14.7277 22.5329 14.7969 22.7027 14.7969Z" fill="white"/>
<path d="M16.8819 17.2071L15.7728 16.5508C15.6258 16.4638 15.451 16.4402 15.287 16.4852C15.123 16.5303 14.9832 16.6403 14.8983 16.791C14.8134 16.9417 14.7904 17.1208 14.8343 17.2889C14.8783 17.457 14.9855 17.6004 15.1326 17.6874L16.2416 18.3437C16.3144 18.3867 16.3948 18.4147 16.4781 18.426C16.5615 18.4372 16.6462 18.4315 16.7274 18.4092C16.8086 18.3869 16.8848 18.3484 16.9515 18.296C17.0182 18.2435 17.0741 18.1781 17.1162 18.1035C17.1582 18.0289 17.1855 17.9465 17.1965 17.861C17.2074 17.7756 17.2019 17.6888 17.1801 17.6055C17.1584 17.5223 17.1208 17.4443 17.0697 17.3759C17.0185 17.3075 16.9547 17.2502 16.8819 17.2071Z" fill="white"/>
<path d="M16.2429 24.4779L15.1339 25.1341C15.0609 25.1771 14.9969 25.2344 14.9455 25.3028C14.8941 25.3712 14.8564 25.4493 14.8345 25.5326C14.8126 25.6159 14.807 25.7029 14.8179 25.7885C14.8289 25.874 14.8562 25.9566 14.8983 26.0313C14.9404 26.1061 14.9965 26.1716 15.0633 26.2241C15.1301 26.2766 15.2064 26.315 15.2878 26.3373C15.3691 26.3595 15.454 26.3651 15.5374 26.3536C15.6209 26.3422 15.7014 26.314 15.7742 26.2707L16.8832 25.6144C17.0298 25.5272 17.1367 25.3839 17.1803 25.216C17.224 25.0481 17.2009 24.8693 17.1162 24.7188C17.0314 24.5683 16.8919 24.4585 16.7282 24.4133C16.5645 24.3681 16.39 24.3913 16.2429 24.4779Z" fill="white"/>
</g>
</g>
</g>
<defs>
<linearGradient id="paint0_linear_0_15" x1="22.5" y1="0.5" x2="7.02" y2="36.095" gradientUnits="userSpaceOnUse">
<stop stop-color="#3E3E3E"/>
<stop offset="1" stop-color="#1A1A1A"/>
</linearGradient>
<clipPath id="clip0_0_15">
<rect width="45" height="45" fill="white" transform="translate(0 0.5)"/>
</clipPath>
<clipPath id="clip1_0_15">
<rect width="45" height="45" fill="white" transform="translate(0 0.5)"/>
</clipPath>
<clipPath id="clip2_0_15">
<rect width="45" height="45" fill="white" transform="translate(0 0.5)"/>
</clipPath>
</defs>
</svg>
