<svg width="46" height="46" viewBox="0 0 46 46" fill="none" xmlns="http://www.w3.org/2000/svg">
<g clip-path="url(#clip0_0_31)">
<g clip-path="url(#clip1_0_31)">
<g clip-path="url(#clip2_0_31)">
<path d="M22.5312 45.5C34.9577 45.5 45.0312 35.4264 45.0312 23C45.0312 10.5736 34.9577 0.5 22.5312 0.5C10.1048 0.5 0.03125 10.5736 0.03125 23C0.03125 35.4264 10.1048 45.5 22.5312 45.5Z" fill="url(#paint0_linear_0_31)"/>
<path d="M26.1075 28.081L27.6112 26.5772C27.8449 26.3335 27.6611 26.0849 27.495 25.8722C27.1132 25.3829 27.4425 24.5609 28.0687 24.481L28.3387 24.436C28.4268 24.4217 28.507 24.3765 28.5647 24.3084C28.6224 24.2404 28.654 24.154 28.6537 24.0647V21.9347C28.654 21.8455 28.6224 21.7591 28.5647 21.691C28.507 21.623 28.4268 21.5778 28.3387 21.5635L28.0687 21.5185C27.45 21.4405 27.1065 20.6256 27.495 20.1272L27.6525 19.906C27.7575 19.756 27.7425 19.5535 27.6112 19.4222L26.1075 17.9185C25.8622 17.6822 25.617 17.8679 25.4025 18.0347C24.9094 18.4161 24.0922 18.088 24.0113 17.461L23.9663 17.191C23.952 17.1029 23.9067 17.0228 23.8387 16.965C23.7706 16.9073 23.6842 16.8757 23.595 16.876H21.465C21.3758 16.8757 21.2894 16.9073 21.2213 16.965C21.1533 17.0228 21.108 17.1029 21.0938 17.191L21.0487 17.461C21 17.761 20.8013 18.0085 20.505 18.1322C20.2238 18.2485 19.9088 18.2147 19.6575 18.0347C19.4494 17.8739 19.1963 17.6785 18.9525 17.9185L17.4488 19.4222C17.2151 19.666 17.3989 19.9146 17.565 20.1272C17.9468 20.6166 17.6175 21.4386 16.9913 21.5185L16.7213 21.5635C16.6332 21.5778 16.553 21.623 16.4953 21.691C16.4376 21.7591 16.406 21.8455 16.4063 21.9347V24.0647C16.406 24.154 16.4376 24.2404 16.4953 24.3084C16.553 24.3765 16.6332 24.4217 16.7213 24.436L16.9913 24.481C17.61 24.559 17.9535 25.3739 17.565 25.8722C17.4049 26.0785 17.2114 26.3354 17.4488 26.5772L18.9525 28.081C19.1978 28.3172 19.443 28.1316 19.6575 27.9647C20.1469 27.5826 20.9689 27.9122 21.0487 28.5385L21.0938 28.8085C21.108 28.8966 21.1533 28.9767 21.2213 29.0344C21.2894 29.0922 21.3758 29.1237 21.465 29.1235H23.595C23.6842 29.1237 23.7706 29.0922 23.8387 29.0344C23.9067 28.9767 23.952 28.8966 23.9663 28.8085L24.0113 28.5385C24.0889 27.9231 24.9026 27.5755 25.4025 27.9647C25.6106 28.1256 25.8637 28.321 26.1075 28.081ZM22.53 25.771C21.0038 25.771 19.7588 24.526 19.7588 22.9997C19.9069 19.3266 25.1539 19.3274 25.3012 22.9997C25.3012 24.526 24.0562 25.771 22.53 25.771Z" fill="white"/>
<path d="M22.5312 20.9788C21.4175 20.9788 20.51 21.8862 20.51 23C20.606 25.6749 24.4569 25.6741 24.5525 23C24.5525 21.8862 23.645 20.9788 22.5312 20.9788ZM19.22 29.3187C19.0138 29.3187 18.845 29.4875 18.845 29.6937V30.8225C18.845 31.2575 18.4887 31.6138 18.05 31.6138H14.9975C14.5531 29.9172 12.0537 30.2233 12.0312 31.9888C12.0575 33.7569 14.549 34.0588 15.0013 32.3638H18.05C18.9012 32.3638 19.595 31.6737 19.595 30.8225V29.6937C19.595 29.4875 19.4262 29.3187 19.22 29.3187ZM25.8425 16.6812C26.0488 16.6812 26.2175 16.5125 26.2175 16.3062V15.1775C26.2175 14.7425 26.5738 14.3862 27.0125 14.3862H30.065C30.5094 16.0827 33.0088 15.7768 33.0312 14.0112C33.005 12.2431 30.5135 11.9413 30.0613 13.6363H27.0125C26.1613 13.6363 25.4675 14.3263 25.4675 15.1775V16.3062C25.4675 16.5125 25.6363 16.6812 25.8425 16.6812ZM13.5425 15.5225C13.8768 15.5218 14.2014 15.4097 14.4649 15.2039C14.7284 14.9982 14.9158 14.7104 14.9975 14.3862H18.05C18.4887 14.3862 18.845 14.7425 18.845 15.1775V16.3062C18.845 16.5125 19.0138 16.6812 19.22 16.6812C19.4262 16.6812 19.595 16.5125 19.595 16.3062V15.1775C19.595 14.3263 18.9012 13.6363 18.05 13.6363H15.0013C14.8325 12.9838 14.2437 12.5 13.5425 12.5C11.5475 12.5637 11.5445 15.4576 13.5425 15.5225ZM31.52 30.4775C31.1857 30.4782 30.8611 30.5903 30.5976 30.7961C30.3341 31.0018 30.1467 31.2896 30.065 31.6138H27.0125C26.5738 31.6138 26.2175 31.2575 26.2175 30.8225V29.6937C26.2175 29.4875 26.0488 29.3187 25.8425 29.3187C25.6363 29.3187 25.4675 29.4875 25.4675 29.6937V30.8225C25.4675 31.6737 26.1613 32.3638 27.0125 32.3638H30.0613C30.23 33.0163 30.8188 33.5 31.52 33.5C33.515 33.4363 33.518 30.5424 31.52 30.4775Z" fill="white"/>
</g>
</g>
</g>
<defs>
<linearGradient id="paint0_linear_0_31" x1="22.5313" y1="0.5" x2="7.05125" y2="36.095" gradientUnits="userSpaceOnUse">
<stop stop-color="#3E3E3E"/>
<stop offset="1" stop-color="#1A1A1A"/>
</linearGradient>
<clipPath id="clip0_0_31">
<rect width="45" height="45" fill="white" transform="translate(0.03125 0.5)"/>
</clipPath>
<clipPath id="clip1_0_31">
<rect width="45" height="45" fill="white" transform="translate(0.03125 0.5)"/>
</clipPath>
<clipPath id="clip2_0_31">
<rect width="45" height="45" fill="white" transform="translate(0.03125 0.5)"/>
</clipPath>
</defs>
</svg>
