<svg width="45" height="46" viewBox="0 0 45 46" fill="none" xmlns="http://www.w3.org/2000/svg">
<g clip-path="url(#clip0_0_49)">
<g clip-path="url(#clip1_0_49)">
<path d="M22.5 45.5C34.9264 45.5 45 35.4264 45 23C45 10.5736 34.9264 0.5 22.5 0.5C10.0736 0.5 0 10.5736 0 23C0 35.4264 10.0736 45.5 22.5 45.5Z" fill="url(#paint0_linear_0_49)"/>
<path fill-rule="evenodd" clip-rule="evenodd" d="M32.7731 24.1677V25.5574L31.0713 26.2125C30.8554 27.1191 30.4962 27.9854 30.0074 28.7788L30.7481 30.4465L28.7826 32.412L27.1155 31.6715C26.3219 32.1605 25.4553 32.5198 24.5485 32.7357L23.8936 34.437H21.114L20.459 32.7352C19.5524 32.5193 18.6861 32.1601 17.8926 31.6713L16.225 32.412L14.2595 30.4465L14.9999 28.7794C14.5109 27.9858 14.1517 27.1192 13.9358 26.2124L12.2344 25.5574V24.1677H17.0515C17.0515 27.1788 19.4926 29.6199 22.5038 29.6199C25.5149 29.6199 27.956 27.1788 27.956 24.1677H32.7731ZM15.6188 15.8293C16.5693 15.8293 17.3398 16.5999 17.3398 17.5504C17.3398 18.5009 16.5693 19.2715 15.6188 19.2715C14.6682 19.2715 13.8977 18.5009 13.8977 17.5504C13.8977 16.5999 14.6682 15.8293 15.6188 15.8293ZM12.6812 22.7779H18.5563C18.6134 22.7781 18.6698 22.7653 18.7211 22.7403C18.7725 22.7154 18.8175 22.679 18.8526 22.6339C18.8877 22.5889 18.9121 22.5364 18.9237 22.4805C18.9354 22.4246 18.9341 22.3668 18.92 22.3114C18.5485 20.834 17.2114 19.7402 15.6188 19.7402C14.0261 19.7402 12.689 20.834 12.3175 22.3114C12.3034 22.3668 12.3021 22.4246 12.3137 22.4805C12.3254 22.5364 12.3497 22.5889 12.3849 22.6339C12.42 22.679 12.4649 22.7154 12.5163 22.7403C12.5677 22.7653 12.6241 22.7781 12.6812 22.7779ZM21.1673 16.4569C21.0884 16.5153 20.9896 16.5403 20.8924 16.5263C20.7951 16.5124 20.7073 16.4607 20.648 16.3824C20.5886 16.3042 20.5625 16.2057 20.5752 16.1083C20.588 16.0109 20.6386 15.9225 20.7162 15.8622L24.3737 13.085C24.4263 13.0451 24.4885 13.0198 24.5541 13.0118C24.6196 13.0038 24.6861 13.0133 24.7467 13.0394L24.7473 13.0381L28.1837 14.5158L30.6038 12.3141L30.208 12.3155C30.11 12.314 30.0165 12.2739 29.9477 12.2041C29.8789 12.1342 29.8404 12.0401 29.8404 11.942C29.8404 11.8439 29.8789 11.7498 29.9477 11.6799C30.0165 11.61 30.11 11.57 30.208 11.5684L31.5746 11.5635C31.8106 11.5635 31.9858 11.7791 31.9412 12.0086L31.6772 13.3494C31.6678 13.3976 31.6489 13.4436 31.6217 13.4846C31.5945 13.5256 31.5595 13.5608 31.5187 13.5883C31.4779 13.6158 31.4321 13.635 31.3839 13.6447C31.3357 13.6545 31.286 13.6547 31.2377 13.6452C31.1895 13.6358 31.1435 13.617 31.1025 13.5898C31.0615 13.5626 31.0263 13.5276 30.9988 13.4868C30.9713 13.446 30.9521 13.4002 30.9424 13.352C30.9326 13.3037 30.9324 13.2541 30.9419 13.2058L30.987 12.9776L28.5221 15.22C28.4691 15.273 28.4014 15.3089 28.3278 15.3231C28.2541 15.3372 28.178 15.329 28.1091 15.2994L24.6505 13.8122L21.1673 16.4569ZM24.0219 16.5862H25.1767C25.3316 16.5862 25.458 16.7126 25.458 16.8675V22.4966C25.458 22.6516 25.3316 22.7779 25.1767 22.7779H24.0219C23.867 22.7779 23.7407 22.6516 23.7407 22.4966V16.8675C23.7407 16.7126 23.8671 16.5862 24.0219 16.5862ZM20.3644 19.4835H21.5191C21.6741 19.4835 21.8004 19.6098 21.8004 19.7647V22.4966C21.8004 22.6516 21.6741 22.7779 21.5191 22.7779H20.3644C20.2095 22.7779 20.0832 22.6516 20.0832 22.4966V19.7647C20.0832 19.6098 20.2095 19.4835 20.3644 19.4835ZM31.3371 14.3336C31.1822 14.3336 31.0559 14.46 31.0559 14.6149V22.4966C31.0559 22.6516 31.1822 22.7779 31.3371 22.7779H32.4919C32.6468 22.7779 32.7731 22.6516 32.7731 22.4966V14.6149C32.7731 14.46 32.6468 14.3336 32.4919 14.3336H31.3371ZM27.6795 17.7574H28.8343C28.9892 17.7574 29.1156 17.8837 29.1156 18.0386V22.4967C29.1156 22.6516 28.9892 22.7779 28.8343 22.7779H27.6795C27.5246 22.7779 27.3983 22.6516 27.3983 22.4967V18.0386C27.3983 17.8837 27.5246 17.7574 27.6795 17.7574ZM17.8015 24.1677C17.8015 26.7647 19.9067 28.8699 22.5038 28.8699C25.1008 28.8699 27.206 26.7647 27.206 24.1677H17.8015Z" fill="white"/>
</g>
</g>
<defs>
<linearGradient id="paint0_linear_0_49" x1="22.5" y1="0.5" x2="7.02" y2="36.095" gradientUnits="userSpaceOnUse">
<stop stop-color="#3E3E3E"/>
<stop offset="1" stop-color="#1A1A1A"/>
</linearGradient>
<clipPath id="clip0_0_49">
<rect width="45" height="45" fill="white" transform="translate(0 0.5)"/>
</clipPath>
<clipPath id="clip1_0_49">
<rect width="45" height="45" fill="white" transform="translate(0 0.5)"/>
</clipPath>
</defs>
</svg>
