<svg xmlns="http://www.w3.org/2000/svg" width="60" height="60" viewBox="0 0 60 60">
  <g id="Group_523" data-name="Group 523" transform="translate(-652 -4270)">
    <circle id="Ellipse_14" data-name="Ellipse 14" cx="30" cy="30" r="30" transform="translate(652 4270)" fill="#fff2e8"/>
    <g id="Group_8348" data-name="Group 8348" transform="translate(669 4284.546)">
      <path id="Path_9135" data-name="Path 9135" d="M14.045,5.015a12.63,12.63,0,0,1,6.7,2.809l1.286-1.343A.69.69,0,0,1,23,6.466l.864.839a.691.691,0,0,1,.015.972l-1.32,1.377a12.692,12.692,0,1,1-19.487-.3l-1.486-1.4a.687.687,0,0,1-.022-.972L2.4,6.111a.691.691,0,0,1,.972-.022L4.953,7.577a12.605,12.605,0,0,1,6.868-2.6V2.221H9.378a.594.594,0,0,1-.592-.592V.592A.594.594,0,0,1,9.378,0h7.108a.594.594,0,0,1,.592.592V1.629a.594.594,0,0,1-.592.592H14.043V5.015Zm-2.387,7.974h1.083a.362.362,0,0,1,.36.36v4.529h3.334a.362.362,0,0,1,.36.36v1.083a.362.362,0,0,1-.36.36H11.3V13.349a.361.361,0,0,1,.36-.36Zm1.034-5.662A10.306,10.306,0,1,1,2.387,17.634,10.307,10.307,0,0,1,12.693,7.327Z" fill="#f48120" fill-rule="evenodd"/>
    </g>
  </g>
</svg>
