<svg xmlns="http://www.w3.org/2000/svg" width="60" height="60" viewBox="0 0 60 60">
  <g id="Group_522" data-name="Group 522" transform="translate(-652 -4401)">
    <circle id="Ellipse_14" data-name="Ellipse 14" cx="30" cy="30" r="30" transform="translate(652 4401)" fill="#fff2e8"/>
    <path id="Path_9136" data-name="Path 9136" d="M20.015,4.489a6.616,6.616,0,1,1-4.671,1.954,6.616,6.616,0,0,1,4.671-1.954ZM.343,10.189A34.764,34.764,0,0,1,3.705,6.645C8.386,2.384,13.709.107,19.22-.01s11.1,1.928,16.4,6.293a39.712,39.712,0,0,1,4.085,3.909,1.3,1.3,0,0,1,.081,1.629,26.021,26.021,0,0,1-5.01,5.345A22.649,22.649,0,0,1,20.663,22.2,24.757,24.757,0,0,1,6.246,17.522,29.105,29.105,0,0,1,.282,11.86a1.283,1.283,0,0,1,.062-1.671ZM5.435,8.56a32.379,32.379,0,0,0-2.472,2.5,26.34,26.34,0,0,0,4.762,4.355,22.235,22.235,0,0,0,12.929,4.212,20.1,20.1,0,0,0,12.512-4.469,23.076,23.076,0,0,0,3.909-4.007A35.977,35.977,0,0,0,33.98,8.271c-4.8-3.961-9.847-5.811-14.724-5.71S9.653,4.707,5.435,8.547ZM18.364,6.023a2.56,2.56,0,1,1-1.814.75,2.564,2.564,0,0,1,1.814-.75Z" transform="translate(661.998 4419.995)" fill="#f48120" fill-rule="evenodd"/>
  </g>
</svg>
