<svg id="Group_525" data-name="Group 525" xmlns="http://www.w3.org/2000/svg" width="60" height="60" viewBox="0 0 60 60">
  <circle id="Ellipse_14" data-name="Ellipse 14" cx="30" cy="30" r="30" fill="#fff2e8"/>
  <path id="Path_9141" data-name="Path 9141" d="M4.974,7.931l-1.35-1.3H.548a.551.551,0,0,1-.386-.161A.545.545,0,0,1,0,6.088v-4.2A.548.548,0,0,1,.161,1.5l.014-.012a.546.546,0,0,1,.373-.15H6.062a.553.553,0,0,1,.548.548v4.2a.546.546,0,0,1-.161.386l-.014.012a.545.545,0,0,1-.373.149H5.347V7.789A.214.214,0,0,1,5.133,8a.211.211,0,0,1-.16-.073Zm21.1-.656,1.11-1.064a.22.22,0,0,1,.154-.061h3.293a.127.127,0,0,0,.089-.036.13.13,0,0,0,.037-.089V2.229a.128.128,0,0,0-.126-.126H24.885a.128.128,0,0,0-.126.126V6.023a.125.125,0,0,0,.038.089.127.127,0,0,0,.088.037h.967a.223.223,0,0,1,.222.223v.9ZM16.549,25.451a1.315,1.315,0,1,1-1.315,1.315,1.316,1.316,0,0,1,1.315-1.315Zm-3.377-7.5c1.71,1.922,5.583,1.583,7.015.01a13.8,13.8,0,0,1-.992-1.339c-.069-.1-.134-.2-.2-.287a4.108,4.108,0,0,1-2.38.7,4.006,4.006,0,0,1-2.6-.934,8.059,8.059,0,0,1-.757,1.765.359.359,0,0,1-.086.085Zm6.657,3.406H5.977a.93.93,0,0,0-.876,1.1l.83,6.413H3.821c0-3.425-1.214-7.627,2.37-9.625,1.335-.744,5.089-1,6.589-1.98a12.607,12.607,0,0,0,.636-1.664c.017-.052-.01.034.016-.045A13.132,13.132,0,0,1,12,13.574l-1.236-1.965a3.6,3.6,0,0,1-.7-1.8,1.419,1.419,0,0,1,.122-.643,1.191,1.191,0,0,1,.425-.494,1.458,1.458,0,0,1,.3-.153,31.316,31.316,0,0,1-.058-3.533,4.7,4.7,0,0,1,.152-.8A5.183,5.183,0,0,1,14.429.86C15.2.593,14.9-.041,15.68,0a10.012,10.012,0,0,1,5.785,2.551C23,4.32,22.6,6.5,22.551,8.651a.894.894,0,0,1,.653.673,2.783,2.783,0,0,1-.339,1.688h0c-.006.014-.013.027-.021.04l-1.409,2.32a11.5,11.5,0,0,1-1.83,2.479l-.036.033c.071.1.147.213.227.33.245.359.523.767.781,1.086,1.53.952,5.214,1.208,6.53,1.942,3.295,1.837,2.169,6.372,2.36,9.625h-2.1l.83-6.413a.93.93,0,0,0-.876-1.1ZM11.618,9.094a1.211,1.211,0,0,0-.623.163.5.5,0,0,0-.179.206.748.748,0,0,0-.058.331,2.948,2.948,0,0,0,.589,1.434l.005.008L12.588,13.2a10.51,10.51,0,0,0,1.661,2.182,3.4,3.4,0,0,0,2.37.955,3.493,3.493,0,0,0,2.508-1,10.941,10.941,0,0,0,1.71-2.33l1.392-2.294A2.226,2.226,0,0,0,22.524,9.5c-.035-.139-.188-.206-.449-.219-.055,0-.112,0-.17,0s-.127.006-.194.012a.334.334,0,0,1-.108-.006,1.911,1.911,0,0,1-.381-.021L21.7,7.15c-3.538.558-6.185-2.07-9.925-.525l.269,2.487a2.17,2.17,0,0,1-.426-.018Zm16.158,2.162a.48.48,0,1,1-.481.48A.48.48,0,0,1,27.776,11.256Zm1.987,2.062.961-1.662,1.281,1.653v.929h-5.5v-.32l.873-.02.4-.981.2.7h.6l.52-1.341ZM26.172,9.74h6.169a.8.8,0,0,1,.567.236l.013.015a.8.8,0,0,1,.223.553V14.5a.808.808,0,0,1-.8.8H26.172a.808.808,0,0,1-.8-.8V10.544a.806.806,0,0,1,.8-.8Zm6.169.507H26.172a.3.3,0,0,0-.3.3V14.5a.3.3,0,0,0,.087.209.291.291,0,0,0,.209.087h6.169a.3.3,0,0,0,.3-.3V10.544a.3.3,0,0,0-.078-.2l-.008-.008a.3.3,0,0,0-.209-.087ZM25.941,5a.223.223,0,1,1,0-.445H29.02a.223.223,0,1,1,0,.445H25.941Zm0-1.366a.223.223,0,1,1,0-.446h3.775a.223.223,0,0,1,0,.446Zm1.486,2.956L26.015,7.947A.222.222,0,0,1,25.63,7.8v-1.2h-.744a.572.572,0,0,1-.571-.571V2.229a.575.575,0,0,1,.571-.571h5.746a.574.574,0,0,1,.57.571V6.023a.572.572,0,0,1-.57.571h-3.2ZM1.392,10.144H7.515a.771.771,0,0,1,.766.766v3.981a.771.771,0,0,1-.766.766H1.392a.766.766,0,0,1-.541-.225l-.016-.017a.761.761,0,0,1-.209-.523V10.91a.769.769,0,0,1,.765-.766Zm2.523,2.1,1.287.9a.181.181,0,0,1,.058.055.192.192,0,0,1-.049.268l-1.284.888a.191.191,0,0,1-.122.044.194.194,0,0,1-.194-.194V12.4a.2.2,0,0,1,.036-.11.191.191,0,0,1,.267-.047ZM7.775,11.4H1.132v3.494a.26.26,0,0,0,.066.173l.011.01a.262.262,0,0,0,.183.076H7.515a.261.261,0,0,0,.26-.26V11.4ZM5.048,4.384a.281.281,0,1,1,0,.562H2.094a.281.281,0,1,1,0-.562H5.048Zm0-1.5a.281.281,0,1,1,0,.563H1.426a.281.281,0,1,1,0-.563Z" transform="translate(13 15.102)" fill="#f48120" fill-rule="evenodd"/>
</svg>
