<svg id="Group_527" data-name="Group 527" xmlns="http://www.w3.org/2000/svg" width="60" height="60" viewBox="0 0 60 60">
  <circle id="Ellipse_14" data-name="Ellipse 14" cx="30" cy="30" r="30" fill="#fff2e8"/>
  <g id="Group_8349" data-name="Group 8349" transform="translate(15 12.526)">
    <path id="Path_9139" data-name="Path 9139" d="M11.077,18.055a.891.891,0,0,1,0-1.756h9.754a.891.891,0,0,1,0,1.756Zm2,14.538a.881.881,0,0,1,0,1.761H2.049A2.052,2.052,0,0,1,0,32.3V2.049A2.052,2.052,0,0,1,2.049,0H27.217a2.052,2.052,0,0,1,2.049,2.049V16.067a.881.881,0,0,1-1.761,0V2.049a.279.279,0,0,0-.087-.2.284.284,0,0,0-.2-.087H2.049a.3.3,0,0,0-.2.084.305.305,0,0,0-.084.2V32.3a.291.291,0,0,0,.288.288H13.076ZM27.594,20.784a.677.677,0,0,0-.5-.2.658.658,0,0,0-.486.218l-1.093,1.138L28.584,24.9l1.1-1.149a.72.72,0,0,0-.02-.984l-2.074-1.985ZM21.866,31.874c-.405.129-.808.263-1.211.394s-.808.271-1.211.405q-1.43.47-1.6.517t.2-1.345l.758-2.922h0l5.745-5.977,3.064,2.95-5.742,5.977ZM11.077,24.309a.907.907,0,0,1,0-1.784h4.806a.907.907,0,0,1,0,1.784Zm0-12.494a.817.817,0,0,1-.738-.878.816.816,0,0,1,.738-.878h9.754a.817.817,0,0,1,.738.878.816.816,0,0,1-.738.878Zm-4.233,10.4a1.04,1.04,0,1,1-1.04,1.04,1.04,1.04,0,0,1,1.04-1.04Zm0-6.156A1.04,1.04,0,1,1,5.8,17.1a1.04,1.04,0,0,1,1.04-1.04Zm0-6.156a1.04,1.04,0,1,1-1.04,1.04A1.04,1.04,0,0,1,6.844,9.9Z" transform="translate(0 0)" fill="#f48120" fill-rule="evenodd"/>
  </g>
</svg>
