<svg id="banner-main2" xmlns="http://www.w3.org/2000/svg" xmlns:xlink="http://www.w3.org/1999/xlink" width="45" height="45" viewBox="0 0 45 45">
  <defs>
    <linearGradient id="linear-gradient" x1="0.5" x2="0.156" y2="0.791" gradientUnits="objectBoundingBox">
      <stop offset="0" stop-color="#3e3e3e"/>
      <stop offset="1" stop-color="#1a1a1a"/>
    </linearGradient>
  </defs>
  <circle id="Ellipse_1" data-name="Ellipse 1" cx="22.5" cy="22.5" r="22.5" fill="url(#linear-gradient)"/>
  <path id="hackthebox-svgrepo-com" d="M12,0l-.057,0a.894.894,0,0,0-.4.129l-9.6,5.543a.889.889,0,0,0-.445.77V17.556a.889.889,0,0,0,.47.784l9.6,5.541.054.029v0a.857.857,0,0,0,.083.035l.012,0a.632.632,0,0,0,.085.024.071.071,0,0,1,.016,0,.93.93,0,0,0,.3.015.683.683,0,0,0,.086-.015.028.028,0,0,0,.016,0q.043-.01.085-.024l.012,0a.882.882,0,0,0,.083-.035v0l.054-.029,9.6-5.541a.889.889,0,0,0,.469-.784V6.446A.889.889,0,0,0,22.2,5.77l-.029-.024s-.01-.005-.01-.007a.9.9,0,0,0-.107-.07L12.453.127A.887.887,0,0,0,11.99,0Zm.01,2.253a.423.423,0,0,1,.209.056l6.537,3.774a.418.418,0,0,1,0,.724l-6.537,3.774a.418.418,0,0,1-.418,0L5.26,6.807a.418.418,0,0,1,0-.724L11.8,2.309a.42.42,0,0,1,.209-.056ZM3.926,8.711a.414.414,0,0,1,.215.057l6.524,3.766a.417.417,0,0,1,.208.361v7.533a.417.417,0,0,1-.626.361L3.724,17.023a.417.417,0,0,1-.209-.362V9.13a.418.418,0,0,1,.41-.418Zm16.16,0a.417.417,0,0,1,.41.418v7.532a.42.42,0,0,1-.208.362l-6.524,3.766a.417.417,0,0,1-.626-.361V12.9a.415.415,0,0,1,.209-.36L19.87,8.768a.415.415,0,0,1,.216-.057Z" transform="translate(11.5 11)" fill="#fff"/>
</svg>
