<svg xmlns="http://www.w3.org/2000/svg" xmlns:xlink="http://www.w3.org/1999/xlink" width="45" height="45" viewBox="0 0 45 45">
  <defs>
    <linearGradient id="linear-gradient" x1="0.5" x2="0.156" y2="0.791" gradientUnits="objectBoundingBox">
      <stop offset="0" stop-color="#3e3e3e"/>
      <stop offset="1" stop-color="#1a1a1a"/>
    </linearGradient>
  </defs>
  <g id="Group_6" data-name="Group 6" transform="translate(0 -0.5)">
    <circle id="Ellipse_1" data-name="Ellipse 1" cx="22.5" cy="22.5" r="22.5" transform="translate(0 0.5)" fill="url(#linear-gradient)"/>
    <path id="wifi-svgrepo-com" d="M1.39,8.77a1.171,1.171,0,0,0,1.561,1.745ZM24.8,10.514A1.171,1.171,0,0,0,26.364,8.77ZM13.877,21.559a1.171,1.171,0,1,0,0,2.341Zm.012,2.341a1.171,1.171,0,1,0,0-2.341Zm3.138-4.636A1.171,1.171,0,0,0,18.6,17.533Zm3.937-4.331A1.171,1.171,0,0,0,22.539,13.2Zm-11.812,2.6a1.171,1.171,0,1,0,1.575,1.732ZM5.215,13.2A1.171,1.171,0,0,0,6.79,14.934ZM2.951,10.514A16.324,16.324,0,0,1,13.877,6.341V4A18.665,18.665,0,0,0,1.39,8.77ZM13.877,6.341A16.324,16.324,0,0,1,24.8,10.514L26.364,8.77A18.665,18.665,0,0,0,13.877,4Zm0,17.559h.012V21.559h-.012Zm0-5.853a4.661,4.661,0,0,1,3.15,1.217L18.6,17.533a7,7,0,0,0-4.725-1.827Zm0-5.853a10.493,10.493,0,0,1,7.087,2.74L22.539,13.2a12.834,12.834,0,0,0-8.662-3.349Zm-3.15,7.071a4.661,4.661,0,0,1,3.15-1.217V15.706a7,7,0,0,0-4.725,1.827ZM6.79,14.934a10.493,10.493,0,0,1,7.087-2.74V9.853A12.834,12.834,0,0,0,5.215,13.2Z" transform="translate(9.123 9.05)" fill="#fff"/>
  </g>
</svg>
