<svg id="banner-main1" xmlns="http://www.w3.org/2000/svg" xmlns:xlink="http://www.w3.org/1999/xlink" width="45" height="45" viewBox="0 0 45 45">
  <defs>
    <linearGradient id="linear-gradient" x1="0.5" x2="0.156" y2="0.791" gradientUnits="objectBoundingBox">
      <stop offset="0" stop-color="#3e3e3e"/>
      <stop offset="1" stop-color="#1a1a1a"/>
    </linearGradient>
  </defs>
  <circle id="Ellipse_1" data-name="Ellipse 1" cx="22.5" cy="22.5" r="22.5" fill="url(#linear-gradient)"/>
  <g id="Icon_feather-globe" data-name="Icon feather-globe" transform="translate(7.615 7.615)">
    <path id="Path_7243" data-name="Path 7243" d="M26.769,14.885A11.885,11.885,0,1,1,14.885,3,11.885,11.885,0,0,1,26.769,14.885Z" fill="none" stroke="#fff" stroke-linecap="round" stroke-linejoin="round" stroke-width="2"/>
    <path id="Path_7244" data-name="Path 7244" d="M3,18H26.769" transform="translate(0 -3.115)" fill="none" stroke="#fff" stroke-linecap="round" stroke-linejoin="round" stroke-width="2"/>
    <path id="Path_7245" data-name="Path 7245" d="M16.754,3a18.183,18.183,0,0,1,4.754,11.885,18.183,18.183,0,0,1-4.754,11.885A18.183,18.183,0,0,1,12,14.885,18.183,18.183,0,0,1,16.754,3Z" transform="translate(-1.869)" fill="none" stroke="#fff" stroke-linecap="round" stroke-linejoin="round" stroke-width="2"/>
  </g>
</svg>
