<svg id="banner-main4" xmlns="http://www.w3.org/2000/svg" width="45" height="45" viewBox="0 0 45 45">
  <circle id="Ellipse_45" data-name="Ellipse 45" cx="22.5" cy="22.5" r="22.5" fill="#2f2f2f"/>
  <g id="eye-scan-svgrepo-com" transform="translate(11 11)">
    <path id="Path_7231" data-name="Path 7231" d="M10,22c-3.771,0-5.657,0-6.828-1.172S2,18.771,2,15" fill="none" stroke="#fff" stroke-linecap="round" stroke-width="2"/>
    <path id="Path_7232" data-name="Path 7232" d="M22,15c0,3.771,0,4.657-1.172,5.828S17.771,22,14,22" fill="none" stroke="#fff" stroke-linecap="round" stroke-width="2"/>
    <path id="Path_7233" data-name="Path 7233" d="M14,2c3.771,0,5.657,0,6.828,1.172S22,5.229,22,9" fill="none" stroke="#fff" stroke-linecap="round" stroke-width="2"/>
    <path id="Path_7234" data-name="Path 7234" d="M10,2C6.229,2,4.343,2,3.172,3.172S2,5.229,2,9" fill="none" stroke="#fff" stroke-linecap="round" stroke-width="2"/>
    <path id="Path_7235" data-name="Path 7235" d="M5.892,14.06A2.6,2.6,0,0,1,5,12a2.6,2.6,0,0,1,.892-2.06A7.967,7.967,0,0,1,12,7a7.967,7.967,0,0,1,6.108,2.94A2.6,2.6,0,0,1,19,12a2.6,2.6,0,0,1-.892,2.06A7.967,7.967,0,0,1,12,17,7.967,7.967,0,0,1,5.892,14.06Z" fill="none" stroke="#fff" stroke-width="2"/>
    <circle id="Ellipse_50" data-name="Ellipse 50" cx="2" cy="2" r="2" transform="translate(10 10)" fill="none" stroke="#fff" stroke-width="2"/>
  </g>
</svg>
