<?xml version="1.0" encoding="utf-8"?>
<!-- Svg Vector Icons : http://www.onlinewebfonts.com/icon -->
<!DOCTYPE svg PUBLIC "-//W3C//DTD SVG 1.1//EN" "http://www.w3.org/Graphics/SVG/1.1/DTD/svg11.dtd">
<svg version="1.1" xmlns="http://www.w3.org/2000/svg" xmlns:xlink="http://www.w3.org/1999/xlink" x="0px" y="0px" viewBox="0 0 256 256" enable-background="new 0 0 256 256" xml:space="preserve">
<metadata> Svg Vector Icons : http://www.onlinewebfonts.com/icon </metadata>
<g> <path fill="#000000" d="M116.2,98.5H45.4c-3.3,0-5.9-2.6-5.9-5.9c0-3.3,2.6-5.9,5.9-5.9h70.8c3.3,0,5.9,2.6,5.9,5.9 C122.1,95.9,119.5,98.5,116.2,98.5z"/> <path fill="#000000" d="M92.6,133.9H45.4c-3.3,0-5.9-2.6-5.9-5.9c0-3.3,2.6-5.9,5.9-5.9h47.2c3.3,0,5.9,2.6,5.9,5.9 S95.9,133.9,92.6,133.9z"/> <path fill="#000000" d="M92.6,169.3H45.4c-3.3,0-5.9-2.6-5.9-5.9c0-3.3,2.6-5.9,5.9-5.9h47.2c3.3,0,5.9,2.6,5.9,5.9 C98.5,166.7,95.9,169.3,92.6,169.3z"/> <path fill="#000000" d="M116.2,204.7H45.4c-3.3,0-5.9-2.6-5.9-5.9c0-3.3,2.6-5.9,5.9-5.9h70.8c3.3,0,5.9,2.6,5.9,5.9 C122.1,202.1,119.5,204.7,116.2,204.7z"/> <path fill="#000000" d="M228.3,10H122.1c-9.8,0-17.7,7.9-17.7,17.7v17.7H27.7c-9.8,0-17.7,7.9-17.7,17.7v165.2 c0,9.8,7.9,17.7,17.7,17.7h141.6c9.8,0,17.7-7.9,17.7-17.7v-17.7c0-3.3-2.6-5.9-5.9-5.9c-3.3,0-5.9,2.6-5.9,5.9v17.7 c0,3.3-2.6,5.9-5.9,5.9H27.7c-3.3,0-5.9-2.6-5.9-5.9V63.1c0-3.3,2.6-5.9,5.9-5.9h141.6c3.3,0,5.9,2.6,5.9,5.9v17.7 c0,3.3,2.6,5.9,5.9,5.9s5.9-2.6,5.9-5.9V63.1c0-9.8-7.9-17.7-17.7-17.7h-53.1V27.7c0-3.3,2.6-5.9,5.9-5.9h106.2 c3.3,0,5.9,2.6,5.9,5.9v53.1c0,3.3,2.6,5.9,5.9,5.9c3.3,0,5.9-2.6,5.9-5.9V27.7C246,17.9,238.1,10,228.3,10L228.3,10z"/> <path fill="#000000" d="M240.2,157.8l-6.3-4.4c-5.4-3.8-5.4-11.7,0-15.5l6.3-4.4c8.3-5.8,2.9-18.8-7.1-17l-7.4,1.3 c-6.5,1.2-12.1-4.5-11-11l1.3-7.4c1.8-9.9-11.2-15.3-17-7.1l-4.4,6.3c-3.8,5.4-11.7,5.4-15.5,0l-4.4-6.3c-5.8-8.3-18.8-2.9-17,7.1 l1.3,7.4c1.2,6.5-4.5,12.1-11,11l-7.4-1.3c-9.9-1.8-15.3,11.2-7.1,17l6.3,4.4c5.4,3.8,5.4,11.7,0,15.5l-6.3,4.4 c-8.3,5.8-2.9,18.8,7.1,17l7.4-1.3c6.5-1.2,12.1,4.5,11,11l-1.3,7.4c-1.8,9.9,11.2,15.3,17,7.1l4.4-6.3c3.8-5.4,11.7-5.4,15.5,0 l4.4,6.3c5.8,8.3,18.8,2.9,17-7.1l-1.3-7.4c-1.2-6.5,4.5-12.1,11-11l7.4,1.3C243.1,176.6,248.6,163.5,240.2,157.8z M187,172.3 c-14.6,0-26.5-11.9-26.5-26.5c0-14.6,11.9-26.5,26.5-26.5c14.6,0,26.5,11.9,26.5,26.5C213.5,160.3,201.6,172.3,187,172.3z"/></g>
</svg>