<?xml version="1.0" encoding="UTF-8"?><svg fill="#fff" id="Layer_1" xmlns="http://www.w3.org/2000/svg" viewBox="0 0 420 420"><path d="M103.83,307.6c4.01-2.39,7.87-4.66,11.71-6.99,8.46-5.14,16.78-10.52,25.39-15.41,7.21-4.1,14.84-3.23,22.36-.54,23.8,8.53,47.64,16.97,71.38,25.66,9.12,3.34,17.99,7.36,27.07,10.82,1.16.44,3.09-.3,4.34-1.05,19.11-11.45,38.2-22.94,57.23-34.53,11.42-6.96,23.26-9.02,35.75-3.28,17.37,7.99,18.59,28.38,4.6,39.16-34.23,26.36-67.89,53.48-101.79,80.28-8.15,6.44-17.13,8.63-27.47,6.31-33.26-7.48-66.58-14.66-99.87-22.02-4.96-1.09-9.56-.51-13.89,2.1-5.41,3.27-10.87,6.48-16.15,9.95-.98.65-1.64,2.37-1.75,3.66-.79,8.59-5.59,13.17-14.28,13.23-9.22.06-18.45.07-27.67,0-8.67-.07-13.96-5.27-13.97-13.85-.05-31.24-.04-62.49,0-93.73.01-8.85,5.3-14,14.2-14.03,9.09-.03,18.17-.01,27.26,0,9.35,0,13.51,3.59,14.98,12.82.06.37.28.72.57,1.46ZM270.61,332.97c.3.95.51,1.59.69,2.23,2.97,10.44.32,19.42-7.57,26.62-7.69,7-16.78,8.64-26.51,4.97-18.39-6.94-36.7-14.08-55.03-21.17-4.75-1.84-6.6-5.14-5.12-8.78,1.54-3.78,5-4.99,9.68-3.25,5.67,2.11,11.31,4.3,16.96,6.46,12.07,4.62,24.15,9.2,36.19,13.87,4.81,1.87,9.43,1.93,13.77-1.07,4.17-2.88,6.27-6.93,5.77-12.03-.57-5.72-3.68-9.77-9.04-11.76-10.44-3.87-20.95-7.53-31.43-11.29-19.53-7-39.09-13.94-58.59-21.06-6.65-2.43-12.61-2.2-18.8,1.76-11.7,7.48-23.69,14.53-35.66,21.56-2.47,1.45-3.3,3.06-3.28,5.87.12,17.76.06,35.52.07,53.28,0,1.19.12,2.38.22,4.24,2.86-1.78,5.31-3.21,7.67-4.78,8.72-5.8,18.01-7.4,28.33-5.1,31.94,7.12,64.02,13.63,95.87,21.09,8.47,1.98,15.06.57,21.39-4.69,1.06-.88,2.2-1.65,3.28-2.51,32.14-25.48,64.29-50.96,96.42-76.45,7.23-5.74,6.04-13.44-2.6-16.79-7.79-3.02-15.14-1.68-22.13,2.48-10.4,6.19-20.76,12.45-31.14,18.68-9.76,5.86-19.53,11.71-29.39,17.62ZM59.94,401.94h29.54v-95.69h-29.54v95.69Z"/><path d="M210.2,233.36c-1.73-7.4-5.78-12.81-11.75-17.09-19.27-13.79-31.35-32.29-34.75-55.83-7.83-54.15,28.84-94.79,71.49-103.01,46.38-8.95,92.76,21.64,101.97,68.57,7.07,36.02-5.34,65.44-33.76,88.24-5.21,4.18-10.34,8.22-12.61,14.83-.9,2.61-.98,4.49,1.58,6.73,10.12,8.84,7.97,23.78-4.34,30.18-2.78,1.45-3.7,3.18-3.98,5.93-.52,5.06-1.18,10.11-1.8,15.16-.68,5.49-2.77,7.4-8.39,7.41-15.55.04-31.11.04-46.66,0-5.16-.01-7.23-1.79-8-6.89-.84-5.57-1.4-11.19-2.3-16.75-.18-1.09-1.08-2.53-2.03-2.97-16.09-7.45-18.31-22.77-4.67-34.49ZM275.31,231.49c5.74-16.31,5.91-16.11,19.84-27.37,22.16-17.91,31.96-41.23,28.4-69.56-5.55-44.18-50.13-73.99-92.98-62.55-36.74,9.81-60.99,46.78-55.05,84.25,3.2,20.2,13.06,36.61,29.48,48.84,8.17,6.08,14.97,13.06,17.37,23.25.66,2.82,1.8,3.41,4.39,3.4,15.14-.1,30.27-.04,45.41-.06,1.08,0,2.16-.14,3.15-.21ZM249.57,243.89c-9.48,0-18.96-.04-28.44.02-4.73.03-7.49,2.41-7.55,6.32-.07,3.9,2.67,6.49,7.38,6.51,18.69.07,37.37.06,56.06,0,4.68-.01,7.54-2.54,7.6-6.34.06-3.96-2.9-6.48-7.84-6.5-9.07-.04-18.14-.01-27.2-.01ZM230.84,282.19h39.05c.41-4.24.8-8.26,1.19-12.35h-41.5c.44,4.29.84,8.21,1.26,12.35Z"/><path d="M158.15,40.57c2.24,1.42,4.03,2.19,5.34,3.46,5.62,5.43,11.15,10.96,16.62,16.55,3.34,3.41,3.45,7,.54,9.76-2.73,2.59-6.26,2.39-9.45-.75-5.77-5.67-11.66-11.25-17.03-17.29-1.4-1.57-1.94-4.94-1.31-6.99.58-1.87,3.3-3.07,5.29-4.74Z"/><path d="M346.92,49.52c-1.42,2.27-2.16,4.07-3.43,5.38-5.25,5.44-10.62,10.77-16.01,16.07-3.4,3.34-7.41,3.46-10.16.49-2.83-3.05-2.57-6.3.93-9.73,5.6-5.48,11.09-11.11,17.03-16.2,1.61-1.38,4.95-1.93,7-1.29,1.85.58,3.02,3.31,4.64,5.28Z"/><path d="M216.87,44.55c-1.91,1.68-3.57,4-5.79,4.89-3.02,1.2-5.72-.49-7.05-3.44-2.42-5.37-4.61-10.84-6.89-16.27-1.06-2.53-2.27-5.01-3.13-7.6-1.13-3.38.2-5.92,3.31-7.49,3.18-1.6,6.35-1.06,7.8,2.09,3.9,8.45,7.31,17.13,10.89,25.72.15.36.08.81.11,1.22.25.29.51.58.76.88Z"/><path d="M304.42,21.46c-.08.54-.07,1.12-.27,1.61-3.43,8.36-6.73,16.77-10.4,25.01-1.37,3.06-4.47,3.57-7.43,2.41-3.2-1.25-5.02-4.06-3.83-7.25,3.16-8.45,6.69-16.78,10.4-25,1.26-2.78,4.3-3.8,7.03-2.46,2.05,1.01,3.51,3.2,5.24,4.86-.24.27-.49.54-.73.82Z"/><path d="M255.76,24.16c0,3.99.09,7.98-.03,11.97-.12,4.2-2.51,6.53-6.38,6.51-3.72-.02-6.15-2.19-6.23-6.19-.16-8.39-.17-16.79-.01-25.18.08-4.27,2.53-6.38,6.54-6.26,3.71.11,5.96,2.35,6.08,6.35.12,4.26.03,8.53.03,12.8Z"/><path d="M249.28,88.73c30.35.75,54.11,23.64,55.85,53.06.34,5.66-1.37,8.52-5.43,9.11-4.56.66-7.23-2.15-7.52-7.99-.73-14.6-7.29-25.97-19.25-34.19-6.84-4.71-14.53-7.03-22.88-7.05-1.5,0-3.06.05-4.5-.31-3.12-.78-5.08-2.8-5.02-6.16.07-3.49,2.01-5.61,5.44-6.22,1.34-.24,2.73-.22,3.29-.26Z"/></svg>