<svg width="80" height="80" viewBox="0 0 80 80" fill="none" xmlns="http://www.w3.org/2000/svg">
<path d="M40.0002 79.9999C62.0916 79.9999 80.0002 62.0913 80.0002 39.9999C80.0002 17.9085 62.0916 -6.10352e-05 40.0002 -6.10352e-05C17.9088 -6.10352e-05 0.000244141 17.9085 0.000244141 39.9999C0.000244141 62.0913 17.9088 79.9999 40.0002 79.9999Z" fill="#FFF2E8"/>
<path d="M54.2084 16.75H49.0417C49.0417 16.0649 48.7695 15.4078 48.2851 14.9233C47.8006 14.4389 47.1435 14.1667 46.4584 14.1667H44.4576C44.0077 13.3822 43.3588 12.7304 42.5763 12.2771C41.7939 11.8238 40.9056 11.5851 40.0013 11.5851C39.0971 11.5851 38.2088 11.8238 37.4263 12.2771C36.6439 12.7304 35.9949 13.3822 35.5451 14.1667H33.5417C32.8566 14.1667 32.1995 14.4389 31.715 14.9233C31.2305 15.4078 30.9584 16.0649 30.9584 16.75H25.7917C24.0795 16.7521 22.438 17.4332 21.2272 18.6439C20.0165 19.8546 19.3354 21.4961 19.3334 23.2083V61.9583C19.3354 63.6706 20.0165 65.3121 21.2272 66.5228C22.438 67.7335 24.0795 68.4146 25.7917 68.4167H54.2084C55.9206 68.4146 57.5621 67.7335 58.7728 66.5228C59.9836 65.3121 60.6647 63.6706 60.6667 61.9583V23.2083C60.6647 21.4961 59.9836 19.8546 58.7728 18.6439C57.5621 17.4332 55.9206 16.7521 54.2084 16.75ZM33.5417 16.75H36.3627C36.6294 16.75 36.8895 16.6674 37.1074 16.5136C37.3252 16.3598 37.4901 16.1423 37.5795 15.8911C37.7536 15.3877 38.0803 14.9512 38.5142 14.6422C38.948 14.3332 39.4674 14.1672 40 14.1672C40.5327 14.1672 41.052 14.3332 41.4859 14.6422C41.9197 14.9512 42.2465 15.3877 42.4206 15.8911C42.51 16.1423 42.6749 16.3598 42.8927 16.5136C43.1106 16.6674 43.3707 16.75 43.6374 16.75H46.4584V19.3333H33.5417V16.75ZM58.0834 61.9583C58.0834 62.9861 57.6751 63.9717 56.9484 64.6984C56.2217 65.4251 55.2361 65.8333 54.2084 65.8333H25.7917C24.764 65.8333 23.7784 65.4251 23.0517 64.6984C22.325 63.9717 21.9167 62.9861 21.9167 61.9583V23.2083C21.9167 22.1806 22.325 21.195 23.0517 20.4683C23.7784 19.7416 24.764 19.3333 25.7917 19.3333H30.9584C30.9584 20.0185 31.2305 20.6756 31.715 21.16C32.1995 21.6445 32.8566 21.9167 33.5417 21.9167H46.4584C47.1435 21.9167 47.8006 21.6445 48.2851 21.16C48.7695 20.6756 49.0417 20.0185 49.0417 19.3333H54.2084C55.2361 19.3333 56.2217 19.7416 56.9484 20.4683C57.6751 21.195 58.0834 22.1806 58.0834 23.2083V61.9583Z" fill="#F48120"/>
<path d="M31.3368 50.7118L29.6667 52.382L29.2882 52.0035C29.0446 51.7682 28.7184 51.638 28.3797 51.641C28.041 51.6439 27.717 51.7797 27.4776 52.0192C27.2381 52.2587 27.1022 52.5827 27.0993 52.9214C27.0963 53.26 27.2265 53.5863 27.4618 53.8299L28.7535 55.1216C28.9957 55.3637 29.3242 55.4998 29.6667 55.4998C30.0092 55.4998 30.3377 55.3637 30.5799 55.1216L33.1632 52.5382C33.3985 52.2946 33.5287 51.9684 33.5258 51.6297C33.5228 51.291 33.387 50.967 33.1475 50.7276C32.908 50.4881 32.5841 50.3522 32.2454 50.3493C31.9067 50.3463 31.5804 50.4765 31.3368 50.7118Z" fill="#F48120"/>
<path d="M51.625 51.625H36.125C35.7825 51.625 35.4539 51.7611 35.2117 52.0033C34.9695 52.2456 34.8334 52.5741 34.8334 52.9167C34.8334 53.2592 34.9695 53.5878 35.2117 53.83C35.4539 54.0722 35.7825 54.2083 36.125 54.2083H51.625C51.9676 54.2083 52.2962 54.0722 52.5384 53.83C52.7806 53.5878 52.9167 53.2592 52.9167 52.9167C52.9167 52.5741 52.7806 52.2456 52.5384 52.0033C52.2962 51.7611 51.9676 51.625 51.625 51.625Z" fill="#F48120"/>
<path d="M31.3368 44.2535L29.6667 45.9236L29.2882 45.5451C29.0446 45.3098 28.7184 45.1796 28.3797 45.1826C28.041 45.1855 27.717 45.3214 27.4776 45.5609C27.2381 45.8003 27.1022 46.1243 27.0993 46.463C27.0963 46.8017 27.2265 47.1279 27.4618 47.3715L28.7535 48.6632C28.9957 48.9054 29.3242 49.0414 29.6667 49.0414C30.0092 49.0414 30.3377 48.9054 30.5799 48.6632L33.1632 46.0799C33.3985 45.8363 33.5287 45.51 33.5258 45.1713C33.5228 44.8326 33.387 44.5087 33.1475 44.2692C32.908 44.0297 32.5841 43.8939 32.2454 43.8909C31.9067 43.888 31.5804 44.0182 31.3368 44.2535Z" fill="#F48120"/>
<path d="M51.625 45.1667H36.125C35.7825 45.1667 35.4539 45.3028 35.2117 45.545C34.9695 45.7872 34.8334 46.1158 34.8334 46.4584C34.8334 46.8009 34.9695 47.1295 35.2117 47.3717C35.4539 47.6139 35.7825 47.75 36.125 47.75H51.625C51.9676 47.75 52.2962 47.6139 52.5384 47.3717C52.7806 47.1295 52.9167 46.8009 52.9167 46.4584C52.9167 46.1158 52.7806 45.7872 52.5384 45.545C52.2962 45.3028 51.9676 45.1667 51.625 45.1667Z" fill="#F48120"/>
<path d="M31.3368 57.1701L29.6667 58.8403L29.2882 58.4618C29.0446 58.2265 28.7184 58.0963 28.3797 58.0993C28.041 58.1022 27.717 58.2381 27.4776 58.4775C27.2381 58.717 27.1022 59.041 27.0993 59.3797C27.0963 59.7183 27.2265 60.0446 27.4618 60.2882L28.7535 61.5799C28.9957 61.822 29.3242 61.9581 29.6667 61.9581C30.0092 61.9581 30.3377 61.822 30.5799 61.5799L33.1632 58.9966C33.3985 58.7529 33.5287 58.4267 33.5258 58.088C33.5228 57.7493 33.387 57.4254 33.1475 57.1859C32.908 56.9464 32.5841 56.8105 32.2454 56.8076C31.9067 56.8047 31.5804 56.9349 31.3368 57.1701Z" fill="#F48120"/>
<path d="M51.625 58.0834H36.125C35.7825 58.0834 35.4539 58.2195 35.2117 58.4617C34.9695 58.7039 34.8334 59.0325 34.8334 59.375C34.8334 59.7176 34.9695 60.0462 35.2117 60.2884C35.4539 60.5306 35.7825 60.6667 36.125 60.6667H51.625C51.9676 60.6667 52.2962 60.5306 52.5384 60.2884C52.7806 60.0462 52.9167 59.7176 52.9167 59.375C52.9167 59.0325 52.7806 58.7039 52.5384 58.4617C52.2962 58.2195 51.9676 58.0834 51.625 58.0834Z" fill="#F48120"/>
<path d="M38.1737 40.0723C38.6581 40.5566 39.3151 40.8287 40.0001 40.8287C40.6851 40.8287 41.3421 40.5566 41.8265 40.0723L46.7981 35.1007C47.7499 34.15 48.3167 32.8811 48.3896 31.5378C48.4625 30.1945 48.0364 28.8717 47.193 27.8236C46.3497 26.7755 45.1488 26.0761 43.821 25.8598C42.4933 25.6436 41.1324 25.9256 40.0001 26.6519C38.8677 25.9256 37.5069 25.6436 36.1792 25.8598C34.8514 26.0761 33.6505 26.7755 32.8071 27.8236C31.9638 28.8717 31.5377 30.1945 31.6106 31.5378C31.6835 32.8811 32.2503 34.15 33.202 35.1007L38.1737 40.0723ZM35.0285 29.2159C35.2949 28.9493 35.6112 28.7378 35.9594 28.5935C36.3076 28.4492 36.6808 28.3749 37.0577 28.3749C37.4346 28.3749 37.8078 28.4492 38.1559 28.5935C38.5041 28.7378 38.8205 28.9493 39.0869 29.2159C39.3291 29.458 39.6576 29.594 40.0001 29.594C40.3426 29.594 40.6711 29.458 40.9133 29.2159C41.46 28.6939 42.1867 28.4027 42.9425 28.4027C43.6983 28.4027 44.4251 28.6939 44.9717 29.2159C45.2383 29.4823 45.4498 29.7986 45.5941 30.1468C45.7384 30.495 45.8126 30.8682 45.8126 31.2451C45.8126 31.622 45.7384 31.9952 45.5941 32.3433C45.4498 32.6915 45.2383 33.0079 44.9717 33.2743L40.0001 38.2459L35.0285 33.2743C34.7619 33.0079 34.5504 32.6915 34.4061 32.3433C34.2618 31.9952 34.1875 31.622 34.1875 31.2451C34.1875 30.8682 34.2618 30.495 34.4061 30.1468C34.5504 29.7986 34.7619 29.4823 35.0285 29.2159Z" fill="#F48120"/>
</svg>
