<svg width="80" height="80" viewBox="0 0 80 80" fill="none" xmlns="http://www.w3.org/2000/svg">
<path d="M40.0001 80C62.0915 80 80.0001 62.0914 80.0001 40C80.0001 17.9086 62.0915 0 40.0001 0C17.9087 0 0.00012207 17.9086 0.00012207 40C0.00012207 62.0914 17.9087 80 40.0001 80Z" fill="#FFF2E8"/>
<path fill-rule="evenodd" clip-rule="evenodd" d="M62.0258 23.5892H46.3537C45.8215 23.5892 45.3926 23.1603 45.3926 22.6281C45.3926 22.0959 45.8215 21.6669 46.3537 21.6669H62.0258C62.558 21.6669 62.9869 22.0959 62.9869 22.6281C62.9869 23.1603 62.558 23.5892 62.0258 23.5892ZM61.8669 68.4845H17.8057C17.2735 68.4845 16.8445 68.0555 16.8445 67.5234V59.9455H13.9532C13.4289 59.9455 13 59.5166 13 58.9844V54.7109C13 54.1866 13.4289 53.7577 13.9532 53.7577H16.8445V49.23C16.8445 44.194 20.9433 40.1032 25.9713 40.1032H27.1231L28.2352 38.181C26.6465 36.9577 25.6218 35.0354 25.6218 32.8828V31.0479C24.2397 28.9032 23.8187 26.981 24.3747 25.3367C24.899 23.7878 26.154 22.9537 26.861 22.5963C27.3693 20.8964 28.6959 19.7288 30.5546 19.3713C33.6525 18.7677 37.4891 20.4437 39.2922 23.192C40.2056 24.5742 41.3495 27.4258 38.9824 31.0718V32.8828C38.9824 35.0513 37.9418 36.9895 36.3293 38.2048L37.4255 40.1032H38.5773C43.6054 40.1032 47.7041 44.194 47.7041 49.23V53.7577H50.4763V40.842L48.6652 39.0627C46.6317 40.1191 44.1614 38.6417 44.1614 36.3222C44.1614 34.6144 45.5435 33.2323 47.2513 33.2323C49.5549 33.2323 51.0244 35.663 50.0156 37.6964L52.1126 39.7617C52.2953 39.9364 52.3985 40.1827 52.3985 40.4448V53.7577H65.7194C66.2436 53.7577 66.6726 54.1866 66.6726 54.7109V58.9844C66.6726 59.5166 66.2436 59.9455 65.7194 59.9455H62.828V67.5234C62.828 68.0555 62.3991 68.4845 61.8669 68.4845ZM64.7582 58.0312V55.672H14.9143V58.0312C31.5316 58.0312 48.141 58.0232 64.7582 58.0312ZM18.7668 66.5702H60.9058V59.9455H18.7668V66.5702ZM18.7668 53.7577H22.4763V51.0173C22.4763 50.4851 22.9052 50.0561 23.4374 50.0561C23.9617 50.0561 24.3906 50.4851 24.3906 51.0173V53.7577H40.158V51.0173C40.158 50.4851 40.5869 50.0561 41.1112 50.0561C41.6434 50.0561 42.0723 50.4851 42.0723 51.0173V53.7577H45.7818V49.23C45.7818 45.2505 42.5489 42.0176 38.5773 42.0176H37.3381L33.0329 47.5461C32.6437 48.0385 31.9049 48.0385 31.5157 47.5461L27.2105 42.0176H25.9713C21.9997 42.0176 18.7668 45.2505 18.7668 49.23V53.7577ZM47.2513 35.1546C46.6079 35.1546 46.0837 35.6788 46.0837 36.3222C46.0837 36.9657 46.6079 37.4899 47.2513 37.4899C47.8947 37.4899 48.419 36.9657 48.419 36.3222C48.419 35.6788 47.8947 35.1546 47.2513 35.1546ZM44.8604 29.7691V26.7427H42.6601C42.1279 26.7427 41.699 26.3058 41.699 25.7815V12.9611C41.699 12.4289 42.1279 12 42.6601 12H65.7194C66.2436 12 66.6726 12.4289 66.6726 12.9611V25.7815C66.6726 26.3058 66.2436 26.7427 65.7194 26.7427H55.1787L46.2028 30.6508C45.5753 30.9208 44.8604 30.4681 44.8604 29.7691ZM43.6212 24.8204H45.8215C46.3537 24.8204 46.7827 25.2493 46.7827 25.7815V28.3075L54.5988 24.8998C54.718 24.8442 54.8451 24.8204 54.9801 24.8204H64.7582V13.9223H43.6212V24.8204ZM38.2913 28.0374C39.4749 23.621 34.2403 20.6025 30.92 21.2539C29.6332 21.5001 28.8547 22.2468 28.6164 23.4701C28.5449 23.8037 28.3067 24.0737 27.9889 24.185C27.981 24.1929 26.6068 24.6933 26.1858 25.9722C25.9713 26.6235 26.0349 27.4099 26.3606 28.2996C28.7038 24.5662 35.9401 23.3827 38.2913 28.0374ZM27.5362 30.7699V32.8828C27.5362 35.5438 29.7047 37.6488 32.3021 37.6488C34.8837 37.6488 37.0681 35.5518 37.0681 32.8828V30.8176C36.8059 27.1954 33.9702 26.8857 32.7628 26.9174C30.3084 26.9889 27.5679 28.5855 27.5362 30.7699ZM29.9032 39.1183L28.8309 40.977L32.2783 45.3934L35.7177 40.977L34.6533 39.1342C33.1361 39.714 31.4204 39.7061 29.9032 39.1183ZM62.0258 17.0678H46.3537C45.8215 17.0678 45.3926 16.6389 45.3926 16.1146C45.3926 15.5824 45.8215 15.1535 46.3537 15.1535H62.0258C62.558 15.1535 62.9869 15.5824 62.9869 16.1146C62.9869 16.6389 62.558 17.0678 62.0258 17.0678ZM62.0258 20.3325H46.3537C45.8215 20.3325 45.3926 19.9035 45.3926 19.3713C45.3926 18.8391 45.8215 18.4102 46.3537 18.4102H62.0258C62.558 18.4102 62.9869 18.8391 62.9869 19.3713C62.9869 19.9035 62.558 20.3325 62.0258 20.3325Z" fill="#F48120"/>
</svg>
