<svg version="1.2" xmlns="http://www.w3.org/2000/svg" viewBox="0 0 875 392" width="875" height="392"><style>tspan{white-space:pre}.a{font-size: 18px;fill: #131313;font-weight: 600;font-family: "Montserrat-SemiBold", "Montserrat"}.b{fill:#fff}.c{font-size: 16px;fill: #131313;font-weight: 500;font-family: "Montserrat-Medium", "Montserrat"}.d{fill:none;stroke:#000;stroke-linecap:round;stroke-width:2}.e{fill:#f38021}.f{fill:#2b3e7e}</style><text style="transform:matrix(1,0,0,1,250,17)" ><tspan x="0" y="0" class="a">Static and Dynamic Analysis focusing on
</tspan></text><g style="opacity:.1"><path fill-rule="evenodd" d="m535 62.5q1.9 2.8 3.2 5.9 1.3 3.2 2 6.5 0.6 3.3 0.6 6.7v275.8c-0.1 4.5-1 8.9-2.7 13.1-1.8 4.1-4.3 7.9-7.5 11.1-3.2 3.2-7 5.7-11.1 7.5-4.2 1.7-8.6 2.7-13.2 2.7h-137.8c-4.5 0-9-1-13.1-2.7-4.2-1.8-8-4.3-11.2-7.5-3.2-3.2-5.7-7-7.4-11.1-1.8-4.2-2.7-8.6-2.8-13.1v-275.8q0-3.4 0.6-6.7 0.7-3.3 2-6.5 1.3-3.1 3.3-5.9 1.9-2.8 4.3-5.1 2.4-2.5 5.2-4.4 2.8-1.9 5.9-3.2 3.1-1.4 6.4-2 3.4-0.7 6.8-0.6h137.8q3.4-0.1 6.8 0.6 3.3 0.6 6.4 2 3.1 1.3 5.9 3.2 2.8 1.9 5.2 4.4 2.4 2.3 4.4 5.1zm-123.4 6.4q0 4.3 4.3 4.3h43.1q4.3 0 4.3-4.3 0-4.3-4.3-4.3h-43.1q-4.3 0-4.3 4.3zm43.8 300.5q1.1-1.8 2-3.8 0.8-1.9 1.2-4 0.4-2.1 0.4-4.2c0-10.3-7.3-19.1-17.3-21.1-10-2-20.1 3.4-24 12.8-3.9 9.5-0.7 20.4 7.8 26.1 8.5 5.7 19.9 4.6 27.1-2.6q1.6-1.5 2.8-3.2zm59.6-273.7q-0.1-1.7-0.7-3.3-0.7-1.5-1.9-2.7-1.2-1.3-2.8-1.9-1.6-0.7-3.3-0.7h-137.8q-1.7 0-3.3 0.7-1.6 0.7-2.8 1.9-1.2 1.2-1.9 2.7-0.6 1.6-0.6 3.3v220.6q0 1.7 0.6 3.3 0.7 1.5 1.9 2.7 1.2 1.3 2.8 1.9 1.6 0.7 3.3 0.7h137.9q1.7 0 3.2-0.7 1.6-0.6 2.8-1.9 1.2-1.2 1.9-2.7 0.6-1.6 0.7-3.3c0 0 0-220.6 0-220.6z"/></g><path class="b" d="m59 94c0-3.9 3.1-7 7-7h206c3.9 0 7 3.1 7 7v49c0 3.9-3.1 7-7 7h-206c-3.9 0-7-3.1-7-7z"/><text style="transform:matrix(1,0,0,1,110,124)" ><tspan x="0" y="0" class="c">Local data storage
</tspan></text><path fill-rule="evenodd" class="d" d="m88.8 129.9c-2-1.1-9.3-5.6-9.8-16.6q0-0.1 0-0.3 0.1-0.1 0.1-0.3 0.1-0.1 0.2-0.2 0.1-0.1 0.2-0.2l9.2-5.2q0.1 0 0.2-0.1 0.2 0 0.3 0 0.1 0 0.3 0 0.1 0.1 0.2 0.1l9.8 5.3q0.1 0.1 0.2 0.2 0.1 0.1 0.2 0.2 0.1 0.2 0.1 0.3 0 0.2 0 0.3c-0.3 2.6-1.9 11.6-10.2 16.5q-0.1 0-0.2 0.1-0.2 0-0.3 0-0.1 0-0.3 0-0.1-0.1-0.2-0.1z"/><path class="d" d="m84.9 118.6l3.9 3.3 6.6-7"/><path class="b" d="m617 94c0-3.9 3.1-7 7-7h233c3.9 0 7 3.1 7 7v49c0 3.9-3.1 7-7 7h-233c-3.9 0-7-3.1-7-7z"/><text style="transform:matrix(1,0,0,1,668,124)" ><tspan x="0" y="0" class="c">Session Management
</tspan></text><path fill-rule="evenodd" class="d" d="m646.8 129.9c-2-1.1-9.3-5.6-9.8-16.6q0-0.1 0-0.3 0.1-0.1 0.1-0.3 0.1-0.1 0.2-0.2 0.1-0.1 0.2-0.2l9.2-5.2q0.1 0 0.2-0.1 0.2 0 0.3 0 0.1 0 0.3 0 0.1 0.1 0.2 0.1l9.8 5.3q0.1 0.1 0.2 0.2 0.1 0.1 0.2 0.2 0.1 0.2 0.1 0.3 0 0.2 0 0.3c-0.3 2.6-1.9 11.6-10.2 16.5q-0.1 0-0.2 0.1-0.2 0-0.3 0-0.1 0-0.3 0-0.1-0.1-0.2-0.1z"/><path class="d" d="m642.9 118.6l3.9 3.3 6.6-7"/><path class="b" d="m617 195c0-3.9 3.1-7 7-7h244c3.9 0 7 3.1 7 7v49c0 3.9-3.1 7-7 7h-244c-3.9 0-7-3.1-7-7z"/><text style="transform:matrix(1,0,0,1,668,225)" ><tspan x="0" y="0" class="c">API &amp; Back-end testing
</tspan></text><path fill-rule="evenodd" class="d" d="m646.8 230.9c-2-1.1-9.3-5.6-9.8-16.6q0-0.1 0-0.3 0.1-0.1 0.1-0.3 0.1-0.1 0.2-0.2 0.1-0.1 0.2-0.2l9.2-5.2q0.1 0 0.2-0.1 0.2 0 0.3 0 0.1 0 0.3 0 0.1 0.1 0.2 0.1l9.8 5.3q0.1 0.1 0.2 0.2 0.1 0.1 0.2 0.2 0.1 0.2 0.1 0.3 0 0.2 0 0.3c-0.3 2.6-1.9 11.6-10.2 16.5q-0.1 0-0.2 0.1-0.2 0-0.3 0-0.1 0-0.3 0-0.1-0.1-0.2-0.1z"/><path class="d" d="m642.9 219.6l3.9 3.3 6.6-7"/><path class="b" d="m617 296c0-3.9 3.1-7 7-7h184c3.9 0 7 3.1 7 7v49c0 3.9-3.1 7-7 7h-184c-3.9 0-7-3.1-7-7z"/><path fill-rule="evenodd" class="d" d="m646.8 331.9c-2-1.1-9.3-5.6-9.8-16.6q0-0.1 0-0.3 0.1-0.1 0.1-0.3 0.1-0.1 0.2-0.2 0.1-0.1 0.2-0.2l9.2-5.2q0.1 0 0.2-0.1 0.2 0 0.3 0 0.1 0 0.3 0 0.1 0.1 0.2 0.1l9.8 5.3q0.1 0.1 0.2 0.2 0.1 0.1 0.2 0.2 0.1 0.2 0.1 0.3 0 0.2 0 0.3c-0.3 2.6-1.9 11.6-10.2 16.5q-0.1 0-0.2 0.1-0.2 0-0.3 0-0.1 0-0.3 0-0.1-0.1-0.2-0.1z"/><path class="d" d="m642.9 320.6l3.9 3.3 6.6-7"/><text style="transform:matrix(1,0,0,1,668,326)" ><tspan x="0" y="0" class="c">Anti-tempering
</tspan></text><path class="b" d="m0 195c0-3.9 3.1-7 7-7h265c3.9 0 7 3.1 7 7v49c0 3.9-3.1 7-7 7h-265c-3.9 0-7-3.1-7-7z"/><text style="transform:matrix(1,0,0,1,51,225)" ><tspan x="0" y="0" class="c">Network Communication
</tspan></text><path fill-rule="evenodd" class="d" d="m29.8 230.9c-2-1.1-9.3-5.6-9.8-16.6q0-0.1 0-0.3 0.1-0.1 0.1-0.3 0.1-0.1 0.2-0.2 0.1-0.1 0.2-0.2l9.2-5.2q0.1 0 0.2-0.1 0.2 0 0.3 0 0.1 0 0.3 0 0.1 0.1 0.2 0.1l9.8 5.3q0.1 0.1 0.2 0.2 0.1 0.1 0.2 0.2 0.1 0.2 0.1 0.3 0 0.2 0 0.3c-0.3 2.6-1.9 11.6-10.2 16.5q-0.1 0-0.2 0.1-0.2 0-0.3 0-0.1 0-0.3 0-0.1-0.1-0.2-0.1z"/><path class="d" d="m25.9 219.6l3.9 3.3 6.6-7"/><path class="b" d="m77 296c0-3.9 3.1-7 7-7h188c3.9 0 7 3.1 7 7v49c0 3.9-3.1 7-7 7h-188c-3.9 0-7-3.1-7-7z"/><text style="transform:matrix(1,0,0,1,128,326)" ><tspan x="0" y="0" class="c">Code hardening
</tspan></text><path fill-rule="evenodd" class="d" d="m106.8 331.9c-2-1.1-9.3-5.6-9.8-16.6q0-0.1 0-0.3 0.1-0.1 0.1-0.3 0.1-0.1 0.2-0.2 0.1-0.1 0.2-0.2l9.2-5.2q0.1 0 0.2-0.1 0.2 0 0.3 0 0.1 0 0.3 0 0.1 0.1 0.2 0.1l9.8 5.3q0.1 0.1 0.2 0.2 0.1 0.1 0.2 0.2 0.1 0.2 0.1 0.3 0 0.2 0 0.3c-0.3 2.6-1.9 11.6-10.2 16.5q-0.1 0-0.2 0.1-0.2 0-0.3 0-0.1 0-0.3 0-0.1-0.1-0.2-0.1z"/><path class="d" d="m102.9 320.6l3.9 3.3 6.6-7"/><path class="e" d="m374 141h38v40h-38z"/><path class="e" d="m418 141h38v40h-38z"/><path class="e" d="m462 141h38v40h-38z"/><path class="e" d="m374 188h38v40h-38z"/><path class="f" d="m418 188h38v40h-38z"/><path class="e" d="m462 188h38v40h-38z"/><path class="e" d="m374 235h38v40h-38z"/><path class="e" d="m418 235h38v40h-38z"/><path class="e" d="m462 235h38v40h-38z"/></svg>