<svg version="1.2" xmlns="http://www.w3.org/2000/svg" viewBox="0 0 692 528" width="692" height="528"><defs><filter x="-50%" y="-50%" width="200%" height="200%" id="f1"> <feGaussianBlur stdDeviation="3"/> </filter><clipPath clipPathUnits="userSpaceOnUse" id="cp1"><path d="m41.19 6c-10.88 0-21.31 4.32-29 12.01-7.69 7.69-12 18.12-12 28.99 0 10.87 4.31 21.3 12 28.99 7.69 7.69 18.12 12.01 28.99 12.01z"/></clipPath><clipPath clipPathUnits="userSpaceOnUse" id="cp2"><path d="m12 46.97c-0.07 11.81 6.98 22.5 17.87 27.08 10.89 4.57 23.46 2.12 31.84-6.21 8.38-8.32 10.91-20.88 6.41-31.79-4.51-10.92-15.15-18.05-26.96-18.05-3.82-0.01-7.6 0.73-11.13 2.18-3.53 1.45-6.74 3.58-9.45 6.27-2.7 2.69-4.85 5.89-6.33 9.41-1.47 3.52-2.23 7.3-2.25 11.11z"/></clipPath><clipPath clipPathUnits="userSpaceOnUse" id="cp3"><path d="m41.19 113c-10.88 0-21.31 4.32-29 12.01-7.69 7.69-12 18.12-12 28.99 0 10.87 4.31 21.3 12 28.99 7.69 7.69 18.12 12.01 28.99 12.01z"/></clipPath><clipPath clipPathUnits="userSpaceOnUse" id="cp4"><path d="m12 153.97c-0.07 11.81 6.98 22.5 17.87 27.08 10.89 4.57 23.46 2.12 31.84-6.21 8.38-8.32 10.91-20.88 6.41-31.79-4.51-10.92-15.15-18.05-26.96-18.05-3.82-0.01-7.6 0.73-11.13 2.18-3.53 1.45-6.74 3.58-9.45 6.27-2.7 2.69-4.85 5.89-6.33 9.41-1.47 3.52-2.23 7.3-2.25 11.11z"/></clipPath><clipPath clipPathUnits="userSpaceOnUse" id="cp5"><path d="m41.19 220c-10.88 0-21.31 4.32-29 12.01-7.69 7.69-12 18.12-12 28.99 0 10.87 4.31 21.3 12 28.99 7.69 7.69 18.12 12.01 28.99 12.01z"/></clipPath><clipPath clipPathUnits="userSpaceOnUse" id="cp6"><path d="m12 260.97c-0.07 11.81 6.98 22.5 17.87 27.08 10.89 4.57 23.46 2.12 31.84-6.21 8.38-8.32 10.91-20.88 6.41-31.79-4.51-10.92-15.15-18.05-26.96-18.05-3.82-0.01-7.6 0.73-11.13 2.18-3.53 1.45-6.74 3.58-9.45 6.27-2.7 2.69-4.85 5.89-6.33 9.41-1.47 3.52-2.23 7.3-2.25 11.11z"/></clipPath><clipPath clipPathUnits="userSpaceOnUse" id="cp7"><path d="m41.19 327c-10.88 0-21.31 4.32-29 12.01-7.69 7.69-12 18.12-12 28.99 0 10.87 4.31 21.3 12 28.99 7.69 7.69 18.12 12.01 28.99 12.01z"/></clipPath><clipPath clipPathUnits="userSpaceOnUse" id="cp8"><path d="m12 367.97c-0.07 11.81 6.98 22.5 17.87 27.08 10.89 4.57 23.46 2.12 31.84-6.21 8.38-8.32 10.91-20.88 6.41-31.79-4.51-10.92-15.15-18.05-26.96-18.05-3.82-0.01-7.6 0.73-11.13 2.18-3.53 1.45-6.74 3.58-9.45 6.27-2.7 2.69-4.85 5.89-6.33 9.41-1.47 3.52-2.23 7.3-2.25 11.11z"/></clipPath><clipPath clipPathUnits="userSpaceOnUse" id="cp9"><path d="m41.19 434c-10.88 0-21.31 4.32-29 12.01-7.69 7.69-12 18.12-12 28.99 0 10.87 4.31 21.3 12 28.99 7.69 7.69 18.12 12.01 28.99 12.01z"/></clipPath><clipPath clipPathUnits="userSpaceOnUse" id="cp10"><path d="m12 474.97c-0.07 11.81 6.98 22.5 17.87 27.08 10.89 4.57 23.46 2.12 31.84-6.21 8.38-8.32 10.91-20.88 6.41-31.79-4.51-10.92-15.15-18.05-26.96-18.05-3.82-0.01-7.6 0.73-11.13 2.18-3.53 1.45-6.74 3.58-9.45 6.27-2.7 2.69-4.85 5.89-6.33 9.41-1.47 3.52-2.23 7.3-2.25 11.11z"/></clipPath><clipPath clipPathUnits="userSpaceOnUse" id="cp11"><path d="m395.19 6c-10.88 0-21.31 4.32-29 12.01-7.69 7.69-12 18.12-12 28.99 0 10.87 4.31 21.3 12 28.99 7.69 7.69 18.12 12.01 29 12.01z"/></clipPath><clipPath clipPathUnits="userSpaceOnUse" id="cp12"><path d="m366 46.97c-0.07 11.81 6.98 22.5 17.87 27.08 10.89 4.57 23.46 2.12 31.84-6.21 8.38-8.32 10.91-20.88 6.41-31.79-4.51-10.92-15.15-18.05-26.96-18.05-3.82-0.01-7.6 0.73-11.13 2.18-3.53 1.45-6.74 3.58-9.45 6.27-2.7 2.69-4.85 5.89-6.33 9.41-1.47 3.52-2.23 7.3-2.25 11.11z"/></clipPath><clipPath clipPathUnits="userSpaceOnUse" id="cp13"><path d="m395.19 113c-10.88 0-21.31 4.32-29 12.01-7.69 7.69-12 18.12-12 28.99 0 10.87 4.31 21.3 12 28.99 7.69 7.69 18.12 12.01 29 12.01z"/></clipPath><clipPath clipPathUnits="userSpaceOnUse" id="cp14"><path d="m366 153.97c-0.07 11.81 6.98 22.5 17.87 27.08 10.89 4.57 23.46 2.12 31.84-6.21 8.38-8.32 10.91-20.88 6.41-31.79-4.51-10.92-15.15-18.05-26.96-18.05-3.82-0.01-7.6 0.73-11.13 2.18-3.53 1.45-6.74 3.58-9.45 6.27-2.7 2.69-4.85 5.89-6.33 9.41-1.47 3.52-2.23 7.3-2.25 11.11z"/></clipPath><clipPath clipPathUnits="userSpaceOnUse" id="cp15"><path d="m395.19 220c-10.88 0-21.31 4.32-29 12.01-7.69 7.69-12 18.12-12 28.99 0 10.87 4.31 21.3 12 28.99 7.69 7.69 18.12 12.01 29 12.01z"/></clipPath><clipPath clipPathUnits="userSpaceOnUse" id="cp16"><path d="m366 260.97c-0.07 11.81 6.98 22.5 17.87 27.08 10.89 4.57 23.46 2.12 31.84-6.21 8.38-8.32 10.91-20.88 6.41-31.79-4.51-10.92-15.15-18.05-26.96-18.05-3.82-0.01-7.6 0.73-11.13 2.18-3.53 1.45-6.74 3.58-9.45 6.27-2.7 2.69-4.85 5.89-6.33 9.41-1.47 3.52-2.23 7.3-2.25 11.11z"/></clipPath><clipPath clipPathUnits="userSpaceOnUse" id="cp17"><path d="m395.19 327c-10.88 0-21.31 4.32-29 12.01-7.69 7.69-12 18.12-12 28.99 0 10.87 4.31 21.3 12 28.99 7.69 7.69 18.12 12.01 29 12.01z"/></clipPath><clipPath clipPathUnits="userSpaceOnUse" id="cp18"><path d="m366.03 367.97c-0.07 11.81 6.98 22.5 17.87 27.08 10.89 4.57 23.46 2.12 31.84-6.21 8.38-8.32 10.91-20.88 6.4-31.79-4.5-10.92-15.14-18.05-26.96-18.05-3.81-0.01-7.59 0.73-11.12 2.18-3.53 1.45-6.74 3.58-9.45 6.27-2.71 2.69-4.86 5.89-6.33 9.41-1.47 3.52-2.23 7.3-2.25 11.11z"/></clipPath><clipPath clipPathUnits="userSpaceOnUse" id="cp19"><path d="m395.19 434c-10.88 0-21.31 4.32-29 12.01-7.69 7.69-12 18.12-12 28.99 0 10.87 4.31 21.3 12 28.99 7.69 7.69 18.12 12.01 29 12.01z"/></clipPath><clipPath clipPathUnits="userSpaceOnUse" id="cp20"><path d="m366 474.97c-0.07 11.81 6.98 22.5 17.87 27.08 10.89 4.57 23.46 2.12 31.84-6.21 8.38-8.32 10.91-20.88 6.41-31.79-4.51-10.92-15.15-18.05-26.96-18.05-3.82-0.01-7.6 0.73-11.13 2.18-3.53 1.45-6.74 3.58-9.45 6.27-2.7 2.69-4.85 5.89-6.33 9.41-1.47 3.52-2.23 7.3-2.25 11.11z"/></clipPath></defs><style>tspan{white-space:pre}.a{filter:url(#f1);fill:#fff}.b{fill:#f48120}.c{opacity:0;fill:#fff;stroke:#000}.d{font-size: 16px;fill: #131313;font-weight: 400;font-family: "Montserrat-Regular", "Montserrat"}.e{fill:#fff}</style><path class="a" d="m41.2 6v82h246.1c23 0 41.7-18.4 41.7-41 0-22.6-18.7-41-41.7-41z"/><g clip-path="url(#cp1)"><path  d="m0 6h41.2v82h-41.2z"/></g><g clip-path="url(#cp2)"><path class="b" d="m12 18h58.3v57.9h-58.3z"/></g><path class="a" d="m41.2 113v82h246.1c23 0 41.7-18.4 41.7-41 0-22.6-18.7-41-41.7-41z"/><g clip-path="url(#cp3)"><path  d="m0 113h41.2v82h-41.2z"/></g><g clip-path="url(#cp4)"><path class="b" d="m12 125h58.3v57.9h-58.3z"/></g><path class="a" d="m41.2 220v82h246.1c23 0 41.7-18.4 41.7-41 0-22.6-18.7-41-41.7-41z"/><g clip-path="url(#cp5)"><path  d="m0 220h41.2v82h-41.2z"/></g><g clip-path="url(#cp6)"><path class="b" d="m12 232h58.3v57.9h-58.3z"/></g><path class="a" d="m41.2 327v82h246.1c23 0 41.7-18.4 41.7-41 0-22.6-18.7-41-41.7-41z"/><g clip-path="url(#cp7)"><path  d="m0 327h41.2v82h-41.2z"/></g><g clip-path="url(#cp8)"><path class="b" d="m12 339h58.3v57.9h-58.3z"/></g><path class="a" d="m41.2 434v82h246.1c23 0 41.7-18.4 41.7-41 0-22.6-18.7-41-41.7-41z"/><g clip-path="url(#cp9)"><path  d="m0 434h41.2v82h-41.2z"/></g><g clip-path="url(#cp10)"><path class="b" d="m12 446h58.3v57.9h-58.3z"/></g><path class="a" d="m395.2 6v82h246.1c23 0 41.7-18.4 41.7-41 0-22.6-18.7-41-41.7-41z"/><g clip-path="url(#cp11)"><path  d="m354 6h41.2v82h-41.2z"/></g><g clip-path="url(#cp12)"><path class="b" d="m366 18h58.3v57.9h-58.3z"/></g><path class="a" d="m395.2 113v82h246.1c23 0 41.7-18.4 41.7-41 0-22.6-18.7-41-41.7-41z"/><g clip-path="url(#cp13)"><path  d="m354 113h41.2v82h-41.2z"/></g><g clip-path="url(#cp14)"><path class="b" d="m366 125h58.3v57.9h-58.3z"/></g><path class="a" d="m395.2 220v82h246.1c23 0 41.7-18.4 41.7-41 0-22.6-18.7-41-41.7-41z"/><g clip-path="url(#cp15)"><path  d="m354 220h41.2v82h-41.2z"/></g><g clip-path="url(#cp16)"><path class="b" d="m366 232h58.3v57.9h-58.3z"/></g><path class="a" d="m395.2 327v82h246.1c23 0 41.7-18.4 41.7-41 0-22.6-18.7-41-41.7-41z"/><g clip-path="url(#cp17)"><path  d="m354 327h41.2v82h-41.2z"/></g><g clip-path="url(#cp18)"><path class="b" d="m366 339h58.3v57.9h-58.3z"/></g><path class="a" d="m395.2 434v82h246.1c23 0 41.7-18.4 41.7-41 0-22.6-18.7-41-41.7-41z"/><g clip-path="url(#cp19)"><path  d="m354 434h41.2v82h-41.2z"/></g><g clip-path="url(#cp20)"><path class="b" d="m366 446h58.3v57.9h-58.3z"/></g><path fill-rule="evenodd" class="c" d="m53.2 59.9h-24.5q-0.4 0-0.7-0.1-0.4 0-0.7-0.2-0.3-0.2-0.5-0.5-0.3-0.2-0.5-0.5-0.1-0.4-0.2-0.7-0.1-0.4-0.1-0.7 0-0.4 0.1-0.7 0.1-0.4 0.3-0.7l12.3-20.5q0.1-0.3 0.4-0.5 0.2-0.3 0.5-0.5 0.3-0.1 0.7-0.2 0.3-0.1 0.6-0.1 0.4 0 0.7 0.1 0.3 0.1 0.6 0.2 0.3 0.2 0.6 0.5 0.2 0.2 0.4 0.5l12.3 20.5q0.2 0.3 0.3 0.7 0.1 0.3 0.1 0.7 0 0.3-0.1 0.7-0.1 0.3-0.3 0.7-0.1 0.3-0.4 0.5-0.2 0.3-0.5 0.5-0.3 0.2-0.7 0.2-0.3 0.1-0.7 0.1zm-12.3-6.3q-0.3 0-0.7 0.1-0.3 0.2-0.6 0.4-0.2 0.3-0.4 0.6-0.1 0.4-0.1 0.8 0 0.3 0.1 0.7 0.2 0.3 0.4 0.6 0.3 0.2 0.6 0.4 0.4 0.1 0.7 0.1 0.4 0 0.7-0.1 0.4-0.2 0.6-0.4 0.3-0.3 0.4-0.6 0.2-0.4 0.2-0.7 0-0.4-0.2-0.7-0.1-0.4-0.4-0.6-0.2-0.3-0.6-0.5-0.3-0.1-0.7-0.1zm-0.9-13.5q-0.3 0-0.5 0.1-0.3 0.1-0.5 0.3-0.2 0.2-0.3 0.5-0.1 0.2-0.1 0.5v8.1q0 0.3 0.1 0.5 0.1 0.3 0.3 0.5 0.2 0.2 0.5 0.3 0.2 0.1 0.5 0.1h1.9q0.2 0 0.5-0.1 0.2-0.1 0.4-0.3 0.2-0.2 0.3-0.5 0.1-0.2 0.1-0.5v-8.1q0-0.3-0.1-0.5-0.1-0.3-0.3-0.5-0.2-0.2-0.4-0.3-0.3-0.1-0.5-0.1z"/><path fill-rule="evenodd" class="c" d="m53.2 166.9h-24.5q-0.4 0-0.7-0.1-0.4 0-0.7-0.2-0.3-0.2-0.5-0.5-0.3-0.2-0.5-0.5-0.1-0.4-0.2-0.7-0.1-0.4-0.1-0.7 0-0.4 0.1-0.7 0.1-0.4 0.3-0.7l12.3-20.5q0.1-0.3 0.4-0.5 0.2-0.3 0.5-0.5 0.3-0.1 0.7-0.2 0.3-0.1 0.6-0.1 0.4 0 0.7 0.1 0.3 0.1 0.6 0.2 0.3 0.2 0.6 0.5 0.2 0.2 0.4 0.5l12.3 20.5q0.2 0.3 0.3 0.7 0.1 0.3 0.1 0.7 0 0.3-0.1 0.7-0.1 0.3-0.3 0.7-0.1 0.3-0.4 0.5-0.2 0.3-0.5 0.5-0.3 0.2-0.7 0.2-0.3 0.1-0.7 0.1zm-12.3-6.3q-0.3 0-0.7 0.1-0.3 0.2-0.6 0.4-0.2 0.3-0.4 0.6-0.1 0.4-0.1 0.8 0 0.3 0.1 0.7 0.2 0.3 0.4 0.6 0.3 0.2 0.6 0.4 0.4 0.1 0.7 0.1 0.4 0 0.7-0.1 0.4-0.2 0.6-0.4 0.3-0.3 0.4-0.6 0.2-0.4 0.2-0.7 0-0.4-0.2-0.7-0.1-0.4-0.4-0.6-0.2-0.3-0.6-0.5-0.3-0.1-0.7-0.1zm-0.9-13.5q-0.3 0-0.5 0.1-0.3 0.1-0.5 0.3-0.2 0.2-0.3 0.5-0.1 0.2-0.1 0.5v8.1q0 0.3 0.1 0.5 0.1 0.3 0.3 0.5 0.2 0.2 0.5 0.3 0.2 0.1 0.5 0.1h1.9q0.2 0 0.5-0.1 0.2-0.1 0.4-0.3 0.2-0.2 0.3-0.5 0.1-0.2 0.1-0.5v-8.1q0-0.3-0.1-0.5-0.1-0.3-0.3-0.5-0.2-0.2-0.4-0.3-0.3-0.1-0.5-0.1z"/><path fill-rule="evenodd" class="c" d="m53.2 273.9h-24.5q-0.4 0-0.7-0.1-0.4 0-0.7-0.2-0.3-0.2-0.5-0.5-0.3-0.2-0.5-0.5-0.1-0.4-0.2-0.7-0.1-0.4-0.1-0.7 0-0.4 0.1-0.7 0.1-0.4 0.3-0.7l12.3-20.5q0.1-0.3 0.4-0.5 0.2-0.3 0.5-0.5 0.3-0.1 0.7-0.2 0.3-0.1 0.6-0.1 0.4 0 0.7 0.1 0.3 0.1 0.6 0.2 0.3 0.2 0.6 0.5 0.2 0.2 0.4 0.5l12.3 20.5q0.2 0.3 0.3 0.7 0.1 0.3 0.1 0.7 0 0.3-0.1 0.7-0.1 0.3-0.3 0.7-0.1 0.3-0.4 0.5-0.2 0.3-0.5 0.5-0.3 0.2-0.7 0.2-0.3 0.1-0.7 0.1zm-12.3-6.3q-0.3 0-0.7 0.1-0.3 0.2-0.6 0.4-0.2 0.3-0.4 0.6-0.1 0.4-0.1 0.8 0 0.3 0.1 0.7 0.2 0.3 0.4 0.6 0.3 0.2 0.6 0.4 0.4 0.1 0.7 0.1 0.4 0 0.7-0.1 0.4-0.2 0.6-0.4 0.3-0.3 0.4-0.6 0.2-0.4 0.2-0.7 0-0.4-0.2-0.7-0.1-0.4-0.4-0.6-0.2-0.3-0.6-0.5-0.3-0.1-0.7-0.1zm-0.9-13.5q-0.3 0-0.5 0.1-0.3 0.1-0.5 0.3-0.2 0.2-0.3 0.5-0.1 0.2-0.1 0.5v8.1q0 0.3 0.1 0.5 0.1 0.3 0.3 0.5 0.2 0.2 0.5 0.3 0.2 0.1 0.5 0.1h1.9q0.2 0 0.5-0.1 0.2-0.1 0.4-0.3 0.2-0.2 0.3-0.5 0.1-0.2 0.1-0.5v-8.1q0-0.3-0.1-0.5-0.1-0.3-0.3-0.5-0.2-0.2-0.4-0.3-0.3-0.1-0.5-0.1z"/><path fill-rule="evenodd" class="c" d="m53.2 380.9h-24.5q-0.4 0-0.7-0.1-0.4 0-0.7-0.2-0.3-0.2-0.5-0.5-0.3-0.2-0.5-0.5-0.1-0.4-0.2-0.7-0.1-0.4-0.1-0.7 0-0.4 0.1-0.7 0.1-0.4 0.3-0.7l12.3-20.5q0.1-0.3 0.4-0.5 0.2-0.3 0.5-0.5 0.3-0.1 0.7-0.2 0.3-0.1 0.6-0.1 0.4 0 0.7 0.1 0.3 0.1 0.6 0.2 0.3 0.2 0.6 0.5 0.2 0.2 0.4 0.5l12.3 20.5q0.2 0.3 0.3 0.7 0.1 0.3 0.1 0.7 0 0.3-0.1 0.7-0.1 0.3-0.3 0.7-0.1 0.3-0.4 0.5-0.2 0.3-0.5 0.5-0.3 0.2-0.7 0.2-0.3 0.1-0.7 0.1zm-12.3-6.3q-0.3 0-0.7 0.1-0.3 0.2-0.6 0.4-0.2 0.3-0.4 0.6-0.1 0.4-0.1 0.8 0 0.3 0.1 0.7 0.2 0.3 0.4 0.6 0.3 0.2 0.6 0.4 0.4 0.1 0.7 0.1 0.4 0 0.7-0.1 0.4-0.2 0.6-0.4 0.3-0.3 0.4-0.6 0.2-0.4 0.2-0.7 0-0.4-0.2-0.7-0.1-0.4-0.4-0.6-0.2-0.3-0.6-0.5-0.3-0.1-0.7-0.1zm-0.9-13.5q-0.3 0-0.5 0.1-0.3 0.1-0.5 0.3-0.2 0.2-0.3 0.5-0.1 0.2-0.1 0.5v8.1q0 0.3 0.1 0.5 0.1 0.3 0.3 0.5 0.2 0.2 0.5 0.3 0.2 0.1 0.5 0.1h1.9q0.2 0 0.5-0.1 0.2-0.1 0.4-0.3 0.2-0.2 0.3-0.5 0.1-0.2 0.1-0.5v-8.1q0-0.3-0.1-0.5-0.1-0.3-0.3-0.5-0.2-0.2-0.4-0.3-0.3-0.1-0.5-0.1z"/><path fill-rule="evenodd" class="c" d="m53.2 487.9h-24.5q-0.4 0-0.7-0.1-0.4 0-0.7-0.2-0.3-0.2-0.5-0.5-0.3-0.2-0.5-0.5-0.1-0.4-0.2-0.7-0.1-0.4-0.1-0.7 0-0.4 0.1-0.7 0.1-0.4 0.3-0.7l12.3-20.5q0.1-0.3 0.4-0.5 0.2-0.3 0.5-0.5 0.3-0.1 0.7-0.2 0.3-0.1 0.6-0.1 0.4 0 0.7 0.1 0.3 0.1 0.6 0.2 0.3 0.2 0.6 0.5 0.2 0.2 0.4 0.5l12.3 20.5q0.2 0.3 0.3 0.7 0.1 0.3 0.1 0.7 0 0.3-0.1 0.7-0.1 0.3-0.3 0.7-0.1 0.3-0.4 0.5-0.2 0.3-0.5 0.5-0.3 0.2-0.7 0.2-0.3 0.1-0.7 0.1zm-12.3-6.3q-0.3 0-0.7 0.1-0.3 0.2-0.6 0.4-0.2 0.3-0.4 0.6-0.1 0.4-0.1 0.8 0 0.3 0.1 0.7 0.2 0.3 0.4 0.6 0.3 0.2 0.6 0.4 0.4 0.1 0.7 0.1 0.4 0 0.7-0.1 0.4-0.2 0.6-0.4 0.3-0.3 0.4-0.6 0.2-0.4 0.2-0.7 0-0.4-0.2-0.7-0.1-0.4-0.4-0.6-0.2-0.3-0.6-0.5-0.3-0.1-0.7-0.1zm-0.9-13.5q-0.3 0-0.5 0.1-0.3 0.1-0.5 0.3-0.2 0.2-0.3 0.5-0.1 0.2-0.1 0.5v8.1q0 0.3 0.1 0.5 0.1 0.3 0.3 0.5 0.2 0.2 0.5 0.3 0.2 0.1 0.5 0.1h1.9q0.2 0 0.5-0.1 0.2-0.1 0.4-0.3 0.2-0.2 0.3-0.5 0.1-0.2 0.1-0.5v-8.1q0-0.3-0.1-0.5-0.1-0.3-0.3-0.5-0.2-0.2-0.4-0.3-0.3-0.1-0.5-0.1z"/><path fill-rule="evenodd" class="c" d="m407.2 59.9h-24.5q-0.4 0-0.7-0.1-0.4 0-0.7-0.2-0.3-0.2-0.5-0.5-0.3-0.2-0.5-0.5-0.1-0.4-0.2-0.7-0.1-0.4-0.1-0.7 0-0.4 0.1-0.7 0.1-0.4 0.3-0.7l12.3-20.5q0.1-0.3 0.4-0.5 0.2-0.3 0.5-0.5 0.3-0.1 0.7-0.2 0.3-0.1 0.6-0.1 0.4 0 0.7 0.1 0.3 0.1 0.6 0.2 0.3 0.2 0.6 0.5 0.2 0.2 0.4 0.5l12.3 20.5q0.2 0.3 0.3 0.7 0.1 0.3 0.1 0.7 0 0.3-0.1 0.7-0.1 0.3-0.3 0.7-0.1 0.3-0.4 0.5-0.2 0.3-0.5 0.5-0.3 0.2-0.7 0.2-0.3 0.1-0.7 0.1zm-12.3-6.3q-0.3 0-0.7 0.1-0.3 0.2-0.6 0.4-0.2 0.3-0.4 0.6-0.1 0.4-0.1 0.8 0 0.3 0.1 0.7 0.2 0.3 0.4 0.6 0.3 0.2 0.6 0.4 0.4 0.1 0.7 0.1 0.4 0 0.7-0.1 0.4-0.2 0.6-0.4 0.3-0.3 0.4-0.6 0.2-0.4 0.2-0.7 0-0.4-0.2-0.7-0.1-0.4-0.4-0.6-0.2-0.3-0.6-0.5-0.3-0.1-0.7-0.1zm-0.9-13.5q-0.3 0-0.5 0.1-0.3 0.1-0.5 0.3-0.2 0.2-0.3 0.5-0.1 0.2-0.1 0.5v8.1q0 0.3 0.1 0.5 0.1 0.3 0.3 0.5 0.2 0.2 0.5 0.3 0.2 0.1 0.5 0.1h1.9q0.2 0 0.5-0.1 0.2-0.1 0.4-0.3 0.2-0.2 0.3-0.5 0.1-0.2 0.1-0.5v-8.1q0-0.3-0.1-0.5-0.1-0.3-0.3-0.5-0.2-0.2-0.4-0.3-0.3-0.1-0.5-0.1z"/><path fill-rule="evenodd" class="c" d="m407.2 166.9h-24.5q-0.4 0-0.7-0.1-0.4 0-0.7-0.2-0.3-0.2-0.5-0.5-0.3-0.2-0.5-0.5-0.1-0.4-0.2-0.7-0.1-0.4-0.1-0.7 0-0.4 0.1-0.7 0.1-0.4 0.3-0.7l12.3-20.5q0.1-0.3 0.4-0.5 0.2-0.3 0.5-0.5 0.3-0.1 0.7-0.2 0.3-0.1 0.6-0.1 0.4 0 0.7 0.1 0.3 0.1 0.6 0.2 0.3 0.2 0.6 0.5 0.2 0.2 0.4 0.5l12.3 20.5q0.2 0.3 0.3 0.7 0.1 0.3 0.1 0.7 0 0.3-0.1 0.7-0.1 0.3-0.3 0.7-0.1 0.3-0.4 0.5-0.2 0.3-0.5 0.5-0.3 0.2-0.7 0.2-0.3 0.1-0.7 0.1zm-12.3-6.3q-0.3 0-0.7 0.1-0.3 0.2-0.6 0.4-0.2 0.3-0.4 0.6-0.1 0.4-0.1 0.8 0 0.3 0.1 0.7 0.2 0.3 0.4 0.6 0.3 0.2 0.6 0.4 0.4 0.1 0.7 0.1 0.4 0 0.7-0.1 0.4-0.2 0.6-0.4 0.3-0.3 0.4-0.6 0.2-0.4 0.2-0.7 0-0.4-0.2-0.7-0.1-0.4-0.4-0.6-0.2-0.3-0.6-0.5-0.3-0.1-0.7-0.1zm-0.9-13.5q-0.3 0-0.5 0.1-0.3 0.1-0.5 0.3-0.2 0.2-0.3 0.5-0.1 0.2-0.1 0.5v8.1q0 0.3 0.1 0.5 0.1 0.3 0.3 0.5 0.2 0.2 0.5 0.3 0.2 0.1 0.5 0.1h1.9q0.2 0 0.5-0.1 0.2-0.1 0.4-0.3 0.2-0.2 0.3-0.5 0.1-0.2 0.1-0.5v-8.1q0-0.3-0.1-0.5-0.1-0.3-0.3-0.5-0.2-0.2-0.4-0.3-0.3-0.1-0.5-0.1z"/><path fill-rule="evenodd" class="c" d="m407.2 273.9h-24.5q-0.4 0-0.7-0.1-0.4 0-0.7-0.2-0.3-0.2-0.5-0.5-0.3-0.2-0.5-0.5-0.1-0.4-0.2-0.7-0.1-0.4-0.1-0.7 0-0.4 0.1-0.7 0.1-0.4 0.3-0.7l12.3-20.5q0.1-0.3 0.4-0.5 0.2-0.3 0.5-0.5 0.3-0.1 0.7-0.2 0.3-0.1 0.6-0.1 0.4 0 0.7 0.1 0.3 0.1 0.6 0.2 0.3 0.2 0.6 0.5 0.2 0.2 0.4 0.5l12.3 20.5q0.2 0.3 0.3 0.7 0.1 0.3 0.1 0.7 0 0.3-0.1 0.7-0.1 0.3-0.3 0.7-0.1 0.3-0.4 0.5-0.2 0.3-0.5 0.5-0.3 0.2-0.7 0.2-0.3 0.1-0.7 0.1zm-12.3-6.3q-0.3 0-0.7 0.1-0.3 0.2-0.6 0.4-0.2 0.3-0.4 0.6-0.1 0.4-0.1 0.8 0 0.3 0.1 0.7 0.2 0.3 0.4 0.6 0.3 0.2 0.6 0.4 0.4 0.1 0.7 0.1 0.4 0 0.7-0.1 0.4-0.2 0.6-0.4 0.3-0.3 0.4-0.6 0.2-0.4 0.2-0.7 0-0.4-0.2-0.7-0.1-0.4-0.4-0.6-0.2-0.3-0.6-0.5-0.3-0.1-0.7-0.1zm-0.9-13.5q-0.3 0-0.5 0.1-0.3 0.1-0.5 0.3-0.2 0.2-0.3 0.5-0.1 0.2-0.1 0.5v8.1q0 0.3 0.1 0.5 0.1 0.3 0.3 0.5 0.2 0.2 0.5 0.3 0.2 0.1 0.5 0.1h1.9q0.2 0 0.5-0.1 0.2-0.1 0.4-0.3 0.2-0.2 0.3-0.5 0.1-0.2 0.1-0.5v-8.1q0-0.3-0.1-0.5-0.1-0.3-0.3-0.5-0.2-0.2-0.4-0.3-0.3-0.1-0.5-0.1z"/><path fill-rule="evenodd" class="c" d="m408.5 380.9h-24.6q-0.3 0-0.7-0.1-0.3 0-0.6-0.2-0.3-0.2-0.6-0.5-0.2-0.2-0.4-0.5-0.2-0.4-0.2-0.7-0.1-0.4-0.1-0.7 0-0.4 0.1-0.7 0.1-0.4 0.3-0.7l12.2-20.5q0.2-0.3 0.4-0.5 0.3-0.3 0.6-0.5 0.3-0.1 0.6-0.2 0.4-0.1 0.7-0.1 0.3 0 0.7 0.1 0.3 0.1 0.6 0.2 0.3 0.2 0.6 0.5 0.2 0.2 0.4 0.5l12.2 20.5q0.2 0.3 0.3 0.7 0.1 0.3 0.1 0.7 0 0.3 0 0.7-0.1 0.3-0.3 0.7-0.2 0.3-0.4 0.5-0.3 0.3-0.6 0.5-0.3 0.2-0.6 0.2-0.4 0.1-0.7 0.1zm-12.3-6.3q-0.4 0-0.7 0.1-0.3 0.2-0.6 0.4-0.2 0.3-0.4 0.6-0.1 0.4-0.1 0.8 0 0.3 0.1 0.7 0.2 0.3 0.4 0.6 0.3 0.2 0.6 0.4 0.3 0.1 0.7 0.1 0.4 0 0.7-0.1 0.3-0.2 0.6-0.4 0.3-0.3 0.4-0.6 0.1-0.4 0.1-0.7 0-0.4-0.1-0.7-0.1-0.4-0.4-0.6-0.3-0.3-0.6-0.5-0.3-0.1-0.7-0.1zm-0.9-13.5q-0.3 0-0.5 0.1-0.3 0.1-0.5 0.3-0.2 0.2-0.3 0.5-0.1 0.2-0.1 0.5v8.1q0 0.3 0.1 0.5 0.1 0.3 0.3 0.5 0.2 0.2 0.5 0.3 0.2 0.1 0.5 0.1h1.8q0.3 0 0.6-0.1 0.2-0.1 0.4-0.3 0.2-0.2 0.3-0.5 0.1-0.2 0.1-0.5v-8.1q0-0.3-0.1-0.5-0.1-0.3-0.3-0.5-0.2-0.2-0.4-0.3-0.3-0.1-0.6-0.1z"/><path fill-rule="evenodd" class="c" d="m407.2 487.9h-24.5q-0.4 0-0.7-0.1-0.4 0-0.7-0.2-0.3-0.2-0.5-0.5-0.3-0.2-0.5-0.5-0.1-0.4-0.2-0.7-0.1-0.4-0.1-0.7 0-0.4 0.1-0.7 0.1-0.4 0.3-0.7l12.3-20.5q0.1-0.3 0.4-0.5 0.2-0.3 0.5-0.5 0.3-0.1 0.7-0.2 0.3-0.1 0.6-0.1 0.4 0 0.7 0.1 0.3 0.1 0.6 0.2 0.3 0.2 0.6 0.5 0.2 0.2 0.4 0.5l12.3 20.5q0.2 0.3 0.3 0.7 0.1 0.3 0.1 0.7 0 0.3-0.1 0.7-0.1 0.3-0.3 0.7-0.1 0.3-0.4 0.5-0.2 0.3-0.5 0.5-0.3 0.2-0.7 0.2-0.3 0.1-0.7 0.1zm-12.3-6.3q-0.3 0-0.7 0.1-0.3 0.2-0.6 0.4-0.2 0.3-0.4 0.6-0.1 0.4-0.1 0.8 0 0.3 0.1 0.7 0.2 0.3 0.4 0.6 0.3 0.2 0.6 0.4 0.4 0.1 0.7 0.1 0.4 0 0.7-0.1 0.4-0.2 0.6-0.4 0.3-0.3 0.4-0.6 0.2-0.4 0.2-0.7 0-0.4-0.2-0.7-0.1-0.4-0.4-0.6-0.2-0.3-0.6-0.5-0.3-0.1-0.7-0.1zm-0.9-13.5q-0.3 0-0.5 0.1-0.3 0.1-0.5 0.3-0.2 0.2-0.3 0.5-0.1 0.2-0.1 0.5v8.1q0 0.3 0.1 0.5 0.1 0.3 0.3 0.5 0.2 0.2 0.5 0.3 0.2 0.1 0.5 0.1h1.9q0.2 0 0.5-0.1 0.2-0.1 0.4-0.3 0.2-0.2 0.3-0.5 0.1-0.2 0.1-0.5v-8.1q0-0.3-0.1-0.5-0.1-0.3-0.3-0.5-0.2-0.2-0.4-0.3-0.3-0.1-0.5-0.1z"/><text style="transform:matrix(1,0,0,1,88,52)" ><tspan x="0" y="0" class="d">Weak server-side controls
</tspan></text><text style="transform:matrix(1,0,0,1,443,52)" ><tspan x="0" y="0" class="d">Insecure data storage
</tspan></text><text style="transform:matrix(1,0,0,1,88,149)" ><tspan x="0" y="0" class="d">Insufficient transport 
</tspan></text><text style="transform:matrix(1,0,0,1,88,175)" ><tspan x="0" y="0" class="d">layer protection
</tspan></text><text style="transform:matrix(1,0,0,1,443,160)" ><tspan x="0" y="0" class="d">Client-side injection
</tspan></text><text style="transform:matrix(1,0,0,1,88,266)" ><tspan x="0" y="0" class="d">Unintended data leakage
</tspan></text><text style="transform:matrix(1,0,0,1,443,256)" ><tspan x="0" y="0" class="d">Security decisions via 
</tspan></text><text style="transform:matrix(1,0,0,1,442,277)" ><tspan x="0" y="0" class="d">untrusted inputs
</tspan></text><text style="transform:matrix(1,0,0,1,88,363)" ><tspan x="0" y="0" class="d">Poor authorization and 
</tspan></text><text style="transform:matrix(1,0,0,1,89,384)" ><tspan x="0" y="0" class="d">authentication
</tspan></text><text style="transform:matrix(1,0,0,1,443,363)" ><tspan x="0" y="0" class="d">Improper session 
</tspan></text><text style="transform:matrix(1,0,0,1,443,384)" ><tspan x="0" y="0" class="d">handling
</tspan></text><text style="transform:matrix(1,0,0,1,88,480)" ><tspan x="0" y="0" class="d">Broken cryptography
</tspan></text><text style="transform:matrix(1,0,0,1,443,481)" ><tspan x="0" y="0" class="d">Lack of binary protection
</tspan></text><path fill-rule="evenodd" class="e" d="m399.8 36.7l8.7 14.9c0.5 0.8 0.8 1.8 0.8 2.7 0 1-0.3 1.9-0.8 2.8-0.5 0.9-1.2 1.6-2 2.1-0.9 0.4-1.8 0.7-2.8 0.7h-17.4c-1 0-1.9-0.3-2.8-0.7-0.8-0.5-1.5-1.2-2-2.1-0.5-0.9-0.7-1.8-0.7-2.8 0-0.9 0.2-1.9 0.7-2.7l4.3-7.5 4.4-7.4c0.5-0.9 1.2-1.6 2-2.1 0.8-0.5 1.8-0.7 2.8-0.7 1 0 2 0.2 2.8 0.7 0.8 0.5 1.5 1.2 2 2.1zm2.6 8.4l-4.3-7.5q-0.5-0.8-1.3-1.3-0.8-0.4-1.8-0.4-1 0-1.8 0.4-0.8 0.5-1.3 1.3l-4.3 7.5-4.4 7.5v-0.1q-0.5 0.9-0.5 1.8 0 1 0.5 1.8 0.5 0.9 1.3 1.3 0.8 0.5 1.8 0.5h17.4q1 0 1.8-0.5 0.8-0.4 1.3-1.3 0.5-0.8 0.5-1.8 0-0.9-0.5-1.8zm-5.8-3.2c0.7 2.1-0.8 5.6-0.8 9.4 0 0.5-1.8 0.5-1.8 0 0.1-3.7-1.3-7.2-0.8-9.3 0.6-2.1 2.8-2.2 3.4-0.1zm-1.7 13.7c-0.9 0-1.6-0.7-1.6-1.6 0-0.9 0.7-1.6 1.6-1.6 0.9 0 1.7 0.7 1.7 1.6 0 0.9-0.8 1.6-1.7 1.6z"/><path fill-rule="evenodd" class="e" d="m45.8 36.7l8.7 14.9c0.5 0.8 0.8 1.8 0.8 2.7 0 1-0.3 1.9-0.8 2.8-0.5 0.9-1.2 1.6-2 2.1-0.9 0.4-1.8 0.7-2.8 0.7h-17.4c-1 0-1.9-0.3-2.8-0.7-0.8-0.5-1.5-1.2-2-2.1-0.5-0.9-0.7-1.8-0.7-2.8 0-0.9 0.2-1.9 0.7-2.7l4.3-7.5 4.4-7.4c0.5-0.9 1.2-1.6 2-2.1 0.8-0.5 1.8-0.7 2.8-0.7 1 0 2 0.2 2.8 0.7 0.8 0.5 1.5 1.2 2 2.1zm2.6 8.4l-4.3-7.5q-0.5-0.8-1.3-1.3-0.8-0.4-1.8-0.4-1 0-1.8 0.4-0.8 0.5-1.3 1.3l-4.3 7.5-4.4 7.5v-0.1q-0.5 0.9-0.5 1.8 0 1 0.5 1.8 0.5 0.9 1.3 1.3 0.8 0.5 1.8 0.5h17.4q1 0 1.8-0.5 0.8-0.4 1.3-1.3 0.5-0.8 0.5-1.8 0-0.9-0.5-1.8zm-5.8-3.2c0.7 2.1-0.8 5.6-0.8 9.4 0 0.5-1.8 0.5-1.8 0 0.1-3.7-1.3-7.2-0.8-9.3 0.6-2.1 2.8-2.2 3.4-0.1zm-1.7 13.7c-0.9 0-1.6-0.7-1.6-1.6 0-0.9 0.7-1.6 1.6-1.6 0.9 0 1.7 0.7 1.7 1.6 0 0.9-0.8 1.6-1.7 1.6z"/><path fill-rule="evenodd" class="e" d="m45.8 143.7l8.7 14.9c0.5 0.8 0.8 1.8 0.8 2.7 0 1-0.3 1.9-0.8 2.8-0.5 0.9-1.2 1.6-2 2.1-0.9 0.4-1.8 0.7-2.8 0.7h-17.4c-1 0-1.9-0.3-2.8-0.7-0.8-0.5-1.5-1.2-2-2.1-0.5-0.9-0.7-1.8-0.7-2.8 0-0.9 0.2-1.9 0.7-2.7l4.3-7.5 4.4-7.4c0.5-0.9 1.2-1.6 2-2.1 0.8-0.5 1.8-0.7 2.8-0.7 1 0 2 0.2 2.8 0.7 0.8 0.5 1.5 1.2 2 2.1zm2.6 8.4l-4.3-7.5q-0.5-0.8-1.3-1.3-0.8-0.4-1.8-0.4-1 0-1.8 0.4-0.8 0.5-1.3 1.3l-4.3 7.5-4.4 7.5v-0.1q-0.5 0.9-0.5 1.8 0 1 0.5 1.8 0.5 0.9 1.3 1.3 0.8 0.5 1.8 0.5h17.4q1 0 1.8-0.5 0.8-0.4 1.3-1.3 0.5-0.8 0.5-1.8 0-0.9-0.5-1.8zm-5.8-3.2c0.7 2.1-0.8 5.6-0.8 9.4 0 0.5-1.8 0.5-1.8 0 0.1-3.7-1.3-7.2-0.8-9.3 0.6-2.1 2.8-2.2 3.4-0.1zm-1.7 13.7c-0.9 0-1.6-0.7-1.6-1.6 0-0.9 0.7-1.6 1.6-1.6 0.9 0 1.7 0.7 1.7 1.6 0 0.9-0.8 1.6-1.7 1.6z"/><path fill-rule="evenodd" class="e" d="m45.8 250.7l8.7 14.9c0.5 0.8 0.8 1.8 0.8 2.7 0 1-0.3 1.9-0.8 2.8-0.5 0.9-1.2 1.6-2 2.1-0.9 0.4-1.8 0.7-2.8 0.7h-17.4c-1 0-1.9-0.3-2.8-0.7-0.8-0.5-1.5-1.2-2-2.1-0.5-0.9-0.7-1.8-0.7-2.8 0-0.9 0.2-1.9 0.7-2.7l4.3-7.5 4.4-7.4c0.5-0.9 1.2-1.6 2-2.1 0.8-0.5 1.8-0.7 2.8-0.7 1 0 2 0.2 2.8 0.7 0.8 0.5 1.5 1.2 2 2.1zm2.6 8.4l-4.3-7.5q-0.5-0.8-1.3-1.3-0.8-0.4-1.8-0.4-1 0-1.8 0.4-0.8 0.5-1.3 1.3l-4.3 7.5-4.4 7.5v-0.1q-0.5 0.9-0.5 1.8 0 1 0.5 1.8 0.5 0.9 1.3 1.3 0.8 0.5 1.8 0.5h17.4q1 0 1.8-0.5 0.8-0.4 1.3-1.3 0.5-0.8 0.5-1.8 0-0.9-0.5-1.8zm-5.8-3.2c0.7 2.1-0.8 5.6-0.8 9.4 0 0.5-1.8 0.5-1.8 0 0.1-3.7-1.3-7.2-0.8-9.3 0.6-2.1 2.8-2.2 3.4-0.1zm-1.7 13.7c-0.9 0-1.6-0.7-1.6-1.6 0-0.9 0.7-1.6 1.6-1.6 0.9 0 1.7 0.7 1.7 1.6 0 0.9-0.8 1.6-1.7 1.6z"/><path fill-rule="evenodd" class="e" d="m45.8 357.7l8.7 14.9c0.5 0.8 0.8 1.8 0.8 2.7 0 1-0.3 1.9-0.8 2.8-0.5 0.9-1.2 1.6-2 2.1-0.9 0.4-1.8 0.7-2.8 0.7h-17.4c-1 0-1.9-0.3-2.8-0.7-0.8-0.5-1.5-1.2-2-2.1-0.5-0.9-0.7-1.8-0.7-2.8 0-0.9 0.2-1.9 0.7-2.7l4.3-7.5 4.4-7.4c0.5-0.9 1.2-1.6 2-2.1 0.8-0.5 1.8-0.7 2.8-0.7 1 0 2 0.2 2.8 0.7 0.8 0.5 1.5 1.2 2 2.1zm2.6 8.4l-4.3-7.5q-0.5-0.8-1.3-1.3-0.8-0.4-1.8-0.4-1 0-1.8 0.4-0.8 0.5-1.3 1.3l-4.3 7.5-4.4 7.5v-0.1q-0.5 0.9-0.5 1.8 0 1 0.5 1.8 0.5 0.9 1.3 1.3 0.8 0.5 1.8 0.5h17.4q1 0 1.8-0.5 0.8-0.4 1.3-1.3 0.5-0.8 0.5-1.8 0-0.9-0.5-1.8zm-5.8-3.2c0.7 2.1-0.8 5.6-0.8 9.4 0 0.5-1.8 0.5-1.8 0 0.1-3.7-1.3-7.2-0.8-9.3 0.6-2.1 2.8-2.2 3.4-0.1zm-1.7 13.7c-0.9 0-1.6-0.7-1.6-1.6 0-0.9 0.7-1.6 1.6-1.6 0.9 0 1.7 0.7 1.7 1.6 0 0.9-0.8 1.6-1.7 1.6z"/><path fill-rule="evenodd" class="e" d="m45.8 464.7l8.7 14.9c0.5 0.8 0.8 1.8 0.8 2.7 0 1-0.3 1.9-0.8 2.8-0.5 0.9-1.2 1.6-2 2.1-0.9 0.4-1.8 0.7-2.8 0.7h-17.4c-1 0-1.9-0.3-2.8-0.7-0.8-0.5-1.5-1.2-2-2.1-0.5-0.9-0.7-1.8-0.7-2.8 0-0.9 0.2-1.9 0.7-2.7l4.3-7.5 4.4-7.4c0.5-0.9 1.2-1.6 2-2.1 0.8-0.5 1.8-0.7 2.8-0.7 1 0 2 0.2 2.8 0.7 0.8 0.5 1.5 1.2 2 2.1zm2.6 8.4l-4.3-7.5q-0.5-0.8-1.3-1.3-0.8-0.4-1.8-0.4-1 0-1.8 0.4-0.8 0.5-1.3 1.3l-4.3 7.5-4.4 7.5v-0.1q-0.5 0.9-0.5 1.8 0 1 0.5 1.8 0.5 0.9 1.3 1.3 0.8 0.5 1.8 0.5h17.4q1 0 1.8-0.5 0.8-0.4 1.3-1.3 0.5-0.8 0.5-1.8 0-0.9-0.5-1.8zm-5.8-3.2c0.7 2.1-0.8 5.6-0.8 9.4 0 0.5-1.8 0.5-1.8 0 0.1-3.7-1.3-7.2-0.8-9.3 0.6-2.1 2.8-2.2 3.4-0.1zm-1.7 13.7c-0.9 0-1.6-0.7-1.6-1.6 0-0.9 0.7-1.6 1.6-1.6 0.9 0 1.7 0.7 1.7 1.6 0 0.9-0.8 1.6-1.7 1.6z"/><path fill-rule="evenodd" class="e" d="m399.8 143.7l8.7 14.9c0.5 0.8 0.8 1.8 0.8 2.7 0 1-0.3 1.9-0.8 2.8-0.5 0.9-1.2 1.6-2 2.1-0.9 0.4-1.8 0.7-2.8 0.7h-17.4c-1 0-1.9-0.3-2.8-0.7-0.8-0.5-1.5-1.2-2-2.1-0.5-0.9-0.7-1.8-0.7-2.8 0-0.9 0.2-1.9 0.7-2.7l4.3-7.5 4.4-7.4c0.5-0.9 1.2-1.6 2-2.1 0.8-0.5 1.8-0.7 2.8-0.7 1 0 2 0.2 2.8 0.7 0.8 0.5 1.5 1.2 2 2.1zm2.6 8.4l-4.3-7.5q-0.5-0.8-1.3-1.3-0.8-0.4-1.8-0.4-1 0-1.8 0.4-0.8 0.5-1.3 1.3l-4.3 7.5-4.4 7.5v-0.1q-0.5 0.9-0.5 1.8 0 1 0.5 1.8 0.5 0.9 1.3 1.3 0.8 0.5 1.8 0.5h17.4q1 0 1.8-0.5 0.8-0.4 1.3-1.3 0.5-0.8 0.5-1.8 0-0.9-0.5-1.8zm-5.8-3.2c0.7 2.1-0.8 5.6-0.8 9.4 0 0.5-1.8 0.5-1.8 0 0.1-3.7-1.3-7.2-0.8-9.3 0.6-2.1 2.8-2.2 3.4-0.1zm-1.7 13.7c-0.9 0-1.6-0.7-1.6-1.6 0-0.9 0.7-1.6 1.6-1.6 0.9 0 1.7 0.7 1.7 1.6 0 0.9-0.8 1.6-1.7 1.6z"/><path fill-rule="evenodd" class="e" d="m399.8 250.7l8.7 14.9c0.5 0.8 0.8 1.8 0.8 2.7 0 1-0.3 1.9-0.8 2.8-0.5 0.9-1.2 1.6-2 2.1-0.9 0.4-1.8 0.7-2.8 0.7h-17.4c-1 0-1.9-0.3-2.8-0.7-0.8-0.5-1.5-1.2-2-2.1-0.5-0.9-0.7-1.8-0.7-2.8 0-0.9 0.2-1.9 0.7-2.7l4.3-7.5 4.4-7.4c0.5-0.9 1.2-1.6 2-2.1 0.8-0.5 1.8-0.7 2.8-0.7 1 0 2 0.2 2.8 0.7 0.8 0.5 1.5 1.2 2 2.1zm2.6 8.4l-4.3-7.5q-0.5-0.8-1.3-1.3-0.8-0.4-1.8-0.4-1 0-1.8 0.4-0.8 0.5-1.3 1.3l-4.3 7.5-4.4 7.5v-0.1q-0.5 0.9-0.5 1.8 0 1 0.5 1.8 0.5 0.9 1.3 1.3 0.8 0.5 1.8 0.5h17.4q1 0 1.8-0.5 0.8-0.4 1.3-1.3 0.5-0.8 0.5-1.8 0-0.9-0.5-1.8zm-5.8-3.2c0.7 2.1-0.8 5.6-0.8 9.4 0 0.5-1.8 0.5-1.8 0 0.1-3.7-1.3-7.2-0.8-9.3 0.6-2.1 2.8-2.2 3.4-0.1zm-1.7 13.7c-0.9 0-1.6-0.7-1.6-1.6 0-0.9 0.7-1.6 1.6-1.6 0.9 0 1.7 0.7 1.7 1.6 0 0.9-0.8 1.6-1.7 1.6z"/><path fill-rule="evenodd" class="e" d="m399.8 357.7l8.7 14.9c0.5 0.8 0.8 1.8 0.8 2.7 0 1-0.3 1.9-0.8 2.8-0.5 0.9-1.2 1.6-2 2.1-0.9 0.4-1.8 0.7-2.8 0.7h-17.4c-1 0-1.9-0.3-2.8-0.7-0.8-0.5-1.5-1.2-2-2.1-0.5-0.9-0.7-1.8-0.7-2.8 0-0.9 0.2-1.9 0.7-2.7l4.3-7.5 4.4-7.4c0.5-0.9 1.2-1.6 2-2.1 0.8-0.5 1.8-0.7 2.8-0.7 1 0 2 0.2 2.8 0.7 0.8 0.5 1.5 1.2 2 2.1zm2.6 8.4l-4.3-7.5q-0.5-0.8-1.3-1.3-0.8-0.4-1.8-0.4-1 0-1.8 0.4-0.8 0.5-1.3 1.3l-4.3 7.5-4.4 7.5v-0.1q-0.5 0.9-0.5 1.8 0 1 0.5 1.8 0.5 0.9 1.3 1.3 0.8 0.5 1.8 0.5h17.4q1 0 1.8-0.5 0.8-0.4 1.3-1.3 0.5-0.8 0.5-1.8 0-0.9-0.5-1.8zm-5.8-3.2c0.7 2.1-0.8 5.6-0.8 9.4 0 0.5-1.8 0.5-1.8 0 0.1-3.7-1.3-7.2-0.8-9.3 0.6-2.1 2.8-2.2 3.4-0.1zm-1.7 13.7c-0.9 0-1.6-0.7-1.6-1.6 0-0.9 0.7-1.6 1.6-1.6 0.9 0 1.7 0.7 1.7 1.6 0 0.9-0.8 1.6-1.7 1.6z"/><path fill-rule="evenodd" class="e" d="m399.8 464.7l8.7 14.9c0.5 0.8 0.8 1.8 0.8 2.7 0 1-0.3 1.9-0.8 2.8-0.5 0.9-1.2 1.6-2 2.1-0.9 0.4-1.8 0.7-2.8 0.7h-17.4c-1 0-1.9-0.3-2.8-0.7-0.8-0.5-1.5-1.2-2-2.1-0.5-0.9-0.7-1.8-0.7-2.8 0-0.9 0.2-1.9 0.7-2.7l4.3-7.5 4.4-7.4c0.5-0.9 1.2-1.6 2-2.1 0.8-0.5 1.8-0.7 2.8-0.7 1 0 2 0.2 2.8 0.7 0.8 0.5 1.5 1.2 2 2.1zm2.6 8.4l-4.3-7.5q-0.5-0.8-1.3-1.3-0.8-0.4-1.8-0.4-1 0-1.8 0.4-0.8 0.5-1.3 1.3l-4.3 7.5-4.4 7.5v-0.1q-0.5 0.9-0.5 1.8 0 1 0.5 1.8 0.5 0.9 1.3 1.3 0.8 0.5 1.8 0.5h17.4q1 0 1.8-0.5 0.8-0.4 1.3-1.3 0.5-0.8 0.5-1.8 0-0.9-0.5-1.8zm-5.8-3.2c0.7 2.1-0.8 5.6-0.8 9.4 0 0.5-1.8 0.5-1.8 0 0.1-3.7-1.3-7.2-0.8-9.3 0.6-2.1 2.8-2.2 3.4-0.1zm-1.7 13.7c-0.9 0-1.6-0.7-1.6-1.6 0-0.9 0.7-1.6 1.6-1.6 0.9 0 1.7 0.7 1.7 1.6 0 0.9-0.8 1.6-1.7 1.6z"/></svg>