<svg xmlns="http://www.w3.org/2000/svg" width="38.29" height="40" viewBox="0 0 38.29 40">
  <g id="multi-platform-development_" data-name="multi-platform-development " transform="translate(-2.71 -1)">
    <g id="Group_8333" data-name="Group 8333" transform="translate(2.71 1)">
      <path id="Path_9340" data-name="Path 9340" d="M38.3,12.18H30.065v2.315h8.27a.521.521,0,0,1,.525.52V34.9a.524.524,0,0,1-.525.52H5.375a.524.524,0,0,1-.525-.52V15.015a.521.521,0,0,1,.525-.52h7.37V12.18H5.41a2.7,2.7,0,0,0-2.7,2.7V37.55a2.7,2.7,0,0,0,2.7,2.705H38.3A2.7,2.7,0,0,0,41,37.55V14.88A2.7,2.7,0,0,0,38.3,12.18ZM21.855,39.19a1.352,1.352,0,1,1,1.35-1.35A1.351,1.351,0,0,1,21.855,39.19Z" transform="translate(-2.71 -6.59)"/>
      <path id="Path_9341" data-name="Path 9341" d="M39.835,73.34h-1.9l-1.375-3.01h-7.28L27.91,73.34H26.015a1.163,1.163,0,1,0,0,2.325h13.82A1.169,1.169,0,0,0,41,74.5a1.147,1.147,0,0,0-.34-.82A1.168,1.168,0,0,0,39.835,73.34Z" transform="translate(-13.78 -35.665)"/>
      <path id="Path_9342" data-name="Path 9342" d="M26.81,24.425H38.075A2.029,2.029,0,0,0,40.1,22.4V3.025A2.027,2.027,0,0,0,38.07,1H26.81a2.03,2.03,0,0,0-2.03,2.025V22.4A2.024,2.024,0,0,0,26.81,24.425Zm5.63-.835a1.24,1.24,0,1,1,1.24-1.24A1.24,1.24,0,0,1,32.44,23.59ZM30.325,2.17H34.55a.452.452,0,0,1,0,.9H30.325a.453.453,0,0,1,0-.9ZM38.07,4.245l.025,16.03H26.8L26.78,4.245Z" transform="translate(-13.745 -1)"/>
    </g>
  </g>
</svg>
