<?xml version="1.0" encoding="UTF-8"?><svg fill="#fff" id="Layer_1" xmlns="http://www.w3.org/2000/svg" viewBox="0 0 420 420"><path d="M179.79,367.32c-12.71,12.71-24.85,24.85-37.76,37.76-2.44-2.68-5.06-5.58-7.69-8.46-2.18-2.39-4.85-3.09-7.79-1.82-2.8,1.2-3.96,3.56-3.91,6.59.06,3.8.01,7.61.01,11.68h-52.44c0-3.84-.06-7.62.02-11.4.07-3.18-1.04-5.7-4.04-6.92-2.96-1.21-5.59-.41-7.78,1.96-2.59,2.8-5.24,5.54-7.67,8.1-12.63-12.63-24.86-24.87-37.68-37.69,2.68-2.44,6.01-4.79,8.36-7.87,1.42-1.86,2.1-5.01,1.71-7.35-.49-2.88-3.28-4.11-6.33-4.08-3.82.03-7.64,0-11.79,0v-52.43c3.65,0,7.42-.07,11.18.02,3.16.08,5.74-.92,7.02-3.9,1.34-3.12.43-5.84-2.07-8.11-2.73-2.47-5.4-4.99-8.64-8,6.65-3.63,5.28-9.37,5.28-14.68.01-59.65,0-119.31.01-178.96,0-14.53,7.73-22.28,22.19-22.29,11.19,0,22.37,0,33.96,0-1.09-4.05-2.32-7.75-3.06-11.55-3.86-20.03,11.09-39.45,31.48-40.72,5.69-.35,11.55-.47,17.14.45,21.38,3.49,33.88,23.87,27.73,44.6-.66,2.21-1.38,4.39-2.2,7,1.57.08,2.85.21,4.13.21,13.79.01,27.58.13,41.37-.04,6.31-.08,12.25.62,17.32,5.15,5.08-4.49,11-5.27,17.32-5.15,10.64.2,21.28.05,32.28.05-1.09-4.06-2.32-7.77-3.06-11.58-3.88-20.18,11.39-39.74,31.92-40.72,5.7-.27,11.54-.37,17.14.56,20.89,3.47,33.31,23.78,27.38,44.14-.68,2.34-1.43,4.66-2.33,7.59,1.78,0,3.2,0,4.61,0,14.61,0,29.22-.03,43.83,0,12.78.03,20.97,8.22,20.99,21.03.03,20.89,0,41.77,0,62.66,0,1.19,0,2.39,0,4-6.48-2.15-12.46-4.44-18.62-6.07-5.23-1.39-10.64-2.63-16.02-2.84-9.76-.37-17.5,7.37-17.76,17.09-.16,6-.17,12.02,0,18.02.27,9.53,7.93,17.58,17.41,16.95,7.23-.48,14.38-2.67,21.48-4.43,4.46-1.11,8.77-2.82,13.5-4.38v4.87c0,32.9.04,65.8-.07,98.7,0,2.93.84,4.74,3.26,6.36,4.63,3.1,9.03,6.55,13.86,10.09-38.4,33.27-76.51,66.29-115.23,99.83v-53.34c-1.64-.08-2.95-.19-4.25-.19-39.19,0-78.37,0-117.56-.04-3.46,0-6.69.25-8.29,3.85-1.66,3.75.13,6.53,2.88,8.99,2.44,2.17,4.8,4.44,7.24,6.7ZM126.69,72.57c2.75-8.26,5.44-15.96,7.88-23.74,4.08-13.01-3.33-25.98-16.59-28.16-5.56-.91-11.54-.91-17.09.05-13.07,2.25-20.42,15.12-16.44,27.93,2.46,7.91,5.21,15.72,7.94,23.93-17.92,0-35.38,0-52.84,0-6.46,0-8.66,2.16-8.66,8.53-.01,57.46,0,114.91,0,172.37,0,.99.19,1.99.4,4.01,6.63-6.83,12.59-12.99,19.19-19.79,2.8,3.1,5.36,5.91,7.9,8.75,2.15,2.4,4.8,3.2,7.76,2.01,3-1.2,4.14-3.71,4.08-6.9-.07-3.78-.02-7.57-.02-11.46h52.44c0,3.91.07,7.58-.02,11.24-.08,3.16.89,5.74,3.88,7.03,3.11,1.34,5.86.48,8.1-2.05,2.5-2.83,5.02-5.64,7.85-8.8,10.21,10.31,19.6,19.82,29.04,29.28.92.92,2.11,2.22,3.19,2.25,8.81.18,17.62.1,26.68.1v-87.64c3.17,1.05,5.96,2.16,8.83,2.88,8.55,2.13,17.05,5.03,25.74,5.9,9.67.96,17.47-7.24,17.76-16.96.17-6,.17-12.01,0-18.01-.28-9.72-8.03-17.44-17.79-17.05-5.37.21-10.78,1.47-16.01,2.86-6.16,1.63-12.14,3.92-18.6,6.06v-4.85c0-20.06,0-40.12,0-60.19,0-7.75-1.84-9.56-9.69-9.56-21.43,0-42.85,0-64.93,0ZM384.84,128.09c0-15.4,0-30.95,0-46.51,0-6.97-2.05-9.01-9.01-9.01-20.34,0-40.68,0-61.02-.01-1.41,0-2.83-.12-4.15-.18-.06-.53-.12-.68-.09-.79,2.48-7.51,5.03-14.99,7.43-22.52,3.08-9.63.07-19.21-7.65-24.78-8.22-5.93-26.02-6.02-34.3-.16-7.99,5.65-11.04,15.2-7.88,25.04,2.47,7.71,5.07,15.38,7.72,23.4-17.36,0-34.14,0-50.93,0-9.02,0-10.55,1.5-10.55,10.34,0,13.92,0,27.84,0,41.77,0,1.29.11,2.58.17,3.77,5.38-1.09,10.4-2.37,15.5-3.1,18.46-2.63,34.41,9.01,36.47,26.89.71,6.2.29,12.54.28,18.82-.03,21.34-16.32,35.31-37.53,32.11-4.92-.74-9.76-1.96-14.64-2.96v68.67h85.18v-51.77c28.53,20.9,56.48,41.38,84.85,62.17v-79.08c-5.3,1.07-10.44,2.38-15.66,3.11-18.28,2.57-34.08-8.86-36.31-26.63-.84-6.73-.38-13.63-.32-20.45.14-18.05,13.9-31.69,31.93-31.08,6.73.23,13.41,1.89,20.49,2.95ZM394.02,302.36c-27.07-19.85-53.85-39.47-81.31-59.61v39.52h-5.19c-43.68,0-87.36,0-131.04,0-4.4,0-7.26,2.44-7.4,6.25-.14,4.07,2.72,6.76,7.4,6.84,3.78.06,7.57.01,11.78.01v39.47h124.61v37.81c27.37-23.71,54.13-46.9,81.14-70.3ZM83.42,243.09c-.85,8.35-4.7,14.48-12.41,17.55-7.61,3.03-14.68,1.48-20.43-3.38-6.32,6.3-12.39,12.34-18.53,18.46,5.02,6.07,6.43,13.12,3.28,20.77-3.16,7.67-9.44,11.24-17.3,12.17v25.88c17.25,1.59,24.67,20.44,14.25,32.8,6.15,6.17,12.27,12.29,18.46,18.49,6.01-4.97,13.05-6.29,20.69-3.12,7.66,3.18,11.14,9.52,12.12,17.36h25.64c2.55-18.79,21.54-24.11,33.37-14.12,6.09-6.07,12.17-12.12,18.26-18.19-10.57-13.1-3.44-31.34,14.1-33.38v-25.65c-16.99-1.83-24.91-19.71-14.16-33.32-6.08-6.09-12.14-12.16-18.21-18.24-11.03,9.63-30.47,5.5-33.4-14.1h-25.73Z"/><path d="M83.31,157.65c.05,10.87-8.88,19.81-19.75,19.76-10.69-.05-19.5-8.85-19.55-19.54-.05-10.88,8.87-19.8,19.75-19.75,10.71.04,19.5,8.83,19.55,19.53ZM63.75,151.24c-3.55-.05-6.55,2.87-6.61,6.43-.05,3.55,2.88,6.56,6.43,6.61,3.54.05,6.56-2.89,6.61-6.43.05-3.55-2.88-6.56-6.43-6.61Z"/><path d="M115.99,138.12c10.88-.05,19.8,8.86,19.75,19.74-.04,10.69-8.85,19.5-19.55,19.55-10.87.05-19.8-8.88-19.75-19.75.05-10.69,8.85-19.49,19.55-19.54ZM116.21,151.24c-3.55-.06-6.56,2.85-6.63,6.41-.06,3.55,2.86,6.57,6.41,6.63,3.54.06,6.57-2.87,6.63-6.41.06-3.54-2.86-6.57-6.41-6.63Z"/><path d="M188.18,157.87c-.05,10.69-8.86,19.49-19.56,19.54-10.87.04-19.79-8.89-19.74-19.77.05-10.85,9.08-19.68,19.97-19.53,10.68.15,19.38,9.04,19.33,19.76ZM175.05,157.88c.07-3.54-2.85-6.57-6.4-6.64-3.55-.07-6.57,2.84-6.64,6.4-.07,3.54,2.85,6.57,6.4,6.64,3.54.07,6.57-2.86,6.64-6.41Z"/><path d="M148.87,321.67c-.04,28.8-23.61,52.34-52.41,52.35-28.97,0-52.56-23.69-52.46-52.71.1-28.73,23.78-52.2,52.62-52.13,28.78.07,52.29,23.69,52.25,52.5ZM96.57,282.29c-21.63-.06-39.39,17.57-39.45,39.17-.06,21.63,17.58,39.38,39.18,39.44,21.64.06,39.39-17.57,39.45-39.18.06-21.64-17.56-39.37-39.18-39.44Z"/><path d="M96.55,295.39c14.45.05,26.18,11.94,26.08,26.42-.1,14.42-12.05,26.12-26.54,25.98-14.25-.14-25.89-11.94-25.87-26.23.01-14.46,11.85-26.23,26.33-26.18ZM109.53,321.77c.1-7.11-5.71-13.13-12.81-13.28-7.13-.15-13.18,5.6-13.38,12.7-.2,7.28,5.74,13.44,13.01,13.49,7.1.04,13.08-5.82,13.18-12.91Z"/></svg>