<svg xmlns="http://www.w3.org/2000/svg" width="22.902" height="32.717" viewBox="0 0 22.902 32.717">
  <path id="Icon_material-lightbulb-outline" data-name="Icon material-lightbulb-outline" d="M14.043,34.081a1.641,1.641,0,0,0,1.636,1.636h6.543a1.641,1.641,0,0,0,1.636-1.636V32.445H14.043ZM18.951,3a11.446,11.446,0,0,0-6.543,20.841v3.7a1.641,1.641,0,0,0,1.636,1.636h9.815a1.641,1.641,0,0,0,1.636-1.636v-3.7A11.446,11.446,0,0,0,18.951,3Zm4.662,18.158-1.39.982V25.9H15.679V22.139l-1.39-.982a8.179,8.179,0,1,1,9.324,0Z" transform="translate(-7.5 -3)" fill="#fff"/>
</svg>
