<svg width="80" height="80" viewBox="0 0 80 80" fill="none" xmlns="http://www.w3.org/2000/svg">
<path d="M39.9999 80C62.0913 80 79.9999 62.0914 79.9999 40C79.9999 17.9086 62.0913 0 39.9999 0C17.9085 0 -0.00012207 17.9086 -0.00012207 40C-0.00012207 62.0914 17.9085 80 39.9999 80Z" fill="#FFF2E8"/>
<path d="M25 60C25.553 60 26 59.553 26 59V47H29C29.553 47 30 46.553 30 46V39C30 36.243 27.757 34 25 34H24.46C25.414 32.937 26 31.538 26 30C26 26.691 23.309 24 20 24C16.691 24 14 26.691 14 30C14 31.538 14.586 32.937 15.54 34H15C12.243 34 10 36.243 10 39V46C10 46.553 10.447 47 11 47H14V59C14 59.553 14.447 60 15 60H25ZM16 30C16 27.794 17.794 26 20 26C22.206 26 24 27.794 24 30C24 32.206 22.206 34 20 34C17.794 34 16 32.206 16 30ZM19 47V58H16V39H14V45H12V39C12 37.346 13.346 36 15 36H25C26.654 36 28 37.346 28 39V45H26V39H24V58H21V47H19Z" fill="#F48120"/>
<path d="M65 34H64.46C65.414 32.937 66 31.538 66 30C66 26.691 63.309 24 60 24C56.691 24 54 26.691 54 30C54 31.538 54.586 32.937 55.54 34H55C52.243 34 50 36.243 50 39V46C50 46.553 50.447 47 51 47H54V59C54 59.553 54.447 60 55 60H65C65.553 60 66 59.553 66 59V47H69C69.553 47 70 46.553 70 46V39C70 36.243 67.757 34 65 34ZM56 30C56 27.794 57.794 26 60 26C62.206 26 64 27.794 64 30C64 32.206 62.206 34 60 34C57.794 34 56 32.206 56 30ZM68 45H66V39H64V58H61V47H59V58H56V39H54V45H52V39C52 37.346 53.346 36 55 36H65C66.654 36 68 37.346 68 39V45Z" fill="#F48120"/>
<path d="M59 17V18.586L56.707 16.293L55.293 17.707L59.293 21.707C59.488 21.902 59.744 22 60 22C60.256 22 60.512 21.902 60.707 21.707L64.707 17.707L63.293 16.293L61 18.586V17C61 14.243 58.757 12 56 12H33V14H56C57.654 14 59 15.346 59 17Z" fill="#F48120"/>
<path d="M21 17C21 15.346 22.346 14 24 14H31V12H24C21.243 12 19 14.243 19 17V22H21V17Z" fill="#F48120"/>
<path d="M21 67V65.414L23.293 67.707L24.707 66.293L20.707 62.293C20.316 61.902 19.684 61.902 19.293 62.293L15.293 66.293L16.707 67.707L19 65.414V67C19 69.757 21.243 72 24 72H43V70H24C22.346 70 21 68.654 21 67Z" fill="#F48120"/>
<path d="M47 70H45V72H47V70Z" fill="#F48120"/>
<path d="M59 67C59 68.654 57.654 70 56 70H49V72H56C58.757 72 61 69.757 61 67V62H59V67Z" fill="#F48120"/>
</svg>
