<svg xmlns="http://www.w3.org/2000/svg" width="60" height="60" viewBox="0 0 60 60">
  <g id="Group_8507" data-name="Group 8507" transform="translate(-930 -510)">
    <g id="Group_8506" data-name="Group 8506" transform="translate(930 528)">
      <g id="Group_8505" data-name="Group 8505">
        <g id="Group_524" data-name="Group 524" transform="translate(0 -18.118)">
          <circle id="Ellipse_14" data-name="Ellipse 14" cx="30" cy="30" r="30" transform="translate(0 0.118)" fill="#fff2e8"/>
        </g>
      </g>
    </g>
    <g id="invoice-bill" transform="translate(907.297 521.248)">
      <g id="Group_8429" data-name="Group 8429" transform="translate(41.731 17.051)">
        <g id="Group_8428" data-name="Group 8428" transform="translate(0)">
          <circle id="Ellipse_109" data-name="Ellipse 109" cx="0.85" cy="0.85" r="0.85" fill="#f48120"/>
        </g>
      </g>
      <g id="Group_8431" data-name="Group 8431" transform="translate(36.628 0)">
        <g id="Group_8430" data-name="Group 8430" transform="translate(0 0)">
          <path id="Path_9179" data-name="Path 9179" d="M68.519.127a.772.772,0,0,0-.85,0L65.542,1.573,63.5.212a.921.921,0,0,0-.935,0L60.44,1.573,58.4.212a.921.921,0,0,0-.935,0L55.337,1.573,53.3.212a.921.921,0,0,0-.935,0L50.235,1.573,48.194.212a.921.921,0,0,0-.935,0L45.132,1.573,43.091.212a.921.921,0,0,0-.935,0L40.03,1.573,37.989.212a.772.772,0,0,0-.85,0,.647.647,0,0,0-.51.68V36.61a.893.893,0,0,0,.425.765.772.772,0,0,0,.85,0L40.03,35.93l2.041,1.361a.921.921,0,0,0,.935,0l2.041-1.361,2.041,1.361a.921.921,0,0,0,.935,0l2.041-1.361,2.041,1.361a.921.921,0,0,0,.935,0l2.041-1.361,2.041,1.361a.921.921,0,0,0,.935,0L60.1,35.93l2.041,1.361a.921.921,0,0,0,.935,0l2.041-1.361,2.041,1.361a1.208,1.208,0,0,0,.51.17.766.766,0,0,0,.425-.085.893.893,0,0,0,.425-.765V.893C68.944.553,68.774.3,68.519.127ZM66.053,34.144a.921.921,0,0,0-.935,0L62.991,35.59,60.95,34.229a.851.851,0,0,0-1.021,0L57.888,35.59l-2.041-1.361a.921.921,0,0,0-.935,0L52.786,35.59l-2.041-1.361a.921.921,0,0,0-.935,0L47.683,35.59l-2.041-1.361a.921.921,0,0,0-.935,0L42.581,35.59,40.54,34.229a.921.921,0,0,0-.935,0l-1.191.85V2.508l1.191.85a.921.921,0,0,0,.935,0l2.041-1.446,2.041,1.361a.921.921,0,0,0,.935,0l2.126-1.361,2.041,1.361a.921.921,0,0,0,.935,0l2.126-1.361,2.041,1.361a.921.921,0,0,0,.935,0l2.126-1.361,2.041,1.361a.921.921,0,0,0,.935,0l2.126-1.361,2.041,1.361a.921.921,0,0,0,.935,0l1.191-.85v32.51Z" transform="translate(-36.628 0)" fill="#f48120"/>
        </g>
      </g>
      <g id="Group_8433" data-name="Group 8433" transform="translate(57.038 17.051)">
        <g id="Group_8432" data-name="Group 8432">
          <path id="Path_9180" data-name="Path 9180" d="M320.154,238.413h-1.7a.85.85,0,0,1,0-1.7H321a.85.85,0,0,0,0-1.7h-.85v-.85a.85.85,0,1,0-1.7,0v.85a2.551,2.551,0,1,0,0,5.1h1.7a.85.85,0,1,1,0,1.7H317.6a.85.85,0,1,0,0,1.7h.85v.85a.85.85,0,1,0,1.7,0v-.85a2.551,2.551,0,1,0,0-5.1Z" transform="translate(-315.902 -233.311)" fill="#f48120"/>
        </g>
      </g>
      <g id="Group_8435" data-name="Group 8435" transform="translate(45.132 7.696)">
        <g id="Group_8434" data-name="Group 8434">
          <path id="Path_9181" data-name="Path 9181" d="M167.449,105.309H153.842a.85.85,0,0,0,0,1.7h13.607a.85.85,0,0,0,0-1.7Z" transform="translate(-152.992 -105.309)" fill="#f48120"/>
        </g>
      </g>
      <g id="Group_8437" data-name="Group 8437" transform="translate(48.534 11.098)">
        <g id="Group_8436" data-name="Group 8436" transform="translate(0)">
          <path id="Path_9182" data-name="Path 9182" d="M207.191,151.855h-6.8a.85.85,0,1,0,0,1.7h6.8a.85.85,0,0,0,0-1.7Z" transform="translate(-199.537 -151.855)" fill="#f48120"/>
        </g>
      </g>
      <g id="Group_8439" data-name="Group 8439" transform="translate(45.132 17.051)">
        <g id="Group_8438" data-name="Group 8438">
          <path id="Path_9183" data-name="Path 9183" d="M158.094,233.309h-4.252a.85.85,0,1,0,0,1.7h4.252a.85.85,0,1,0,0-1.7Z" transform="translate(-152.992 -233.309)" fill="#f48120"/>
        </g>
      </g>
      <g id="Group_8441" data-name="Group 8441" transform="translate(41.731 20.452)">
        <g id="Group_8440" data-name="Group 8440" transform="translate(0)">
          <circle id="Ellipse_110" data-name="Ellipse 110" cx="0.85" cy="0.85" r="0.85" fill="#f48120"/>
        </g>
      </g>
      <g id="Group_8443" data-name="Group 8443" transform="translate(45.132 20.452)">
        <g id="Group_8442" data-name="Group 8442">
          <path id="Path_9184" data-name="Path 9184" d="M158.945,279.855h-5.1a.85.85,0,1,0,0,1.7h5.1a.85.85,0,1,0,0-1.7Z" transform="translate(-152.992 -279.855)" fill="#f48120"/>
        </g>
      </g>
      <g id="Group_8445" data-name="Group 8445" transform="translate(41.731 23.854)">
        <g id="Group_8444" data-name="Group 8444" transform="translate(0)">
          <circle id="Ellipse_111" data-name="Ellipse 111" cx="0.85" cy="0.85" r="0.85" fill="#f48120"/>
        </g>
      </g>
      <g id="Group_8447" data-name="Group 8447" transform="translate(45.132 23.854)">
        <g id="Group_8446" data-name="Group 8446" transform="translate(0)">
          <path id="Path_9185" data-name="Path 9185" d="M157.245,326.4h-3.4a.85.85,0,0,0,0,1.7h3.4a.85.85,0,0,0,0-1.7Z" transform="translate(-152.993 -326.4)" fill="#f48120"/>
        </g>
      </g>
      <g id="Group_8449" data-name="Group 8449" transform="translate(41.731 27.256)">
        <g id="Group_8448" data-name="Group 8448" transform="translate(0)">
          <circle id="Ellipse_112" data-name="Ellipse 112" cx="0.85" cy="0.85" r="0.85" fill="#f48120"/>
        </g>
      </g>
      <g id="Group_8451" data-name="Group 8451" transform="translate(45.132 27.256)">
        <g id="Group_8450" data-name="Group 8450">
          <path id="Path_9186" data-name="Path 9186" d="M160.646,372.945h-6.8a.85.85,0,0,0,0,1.7h6.8a.85.85,0,1,0,0-1.7Z" transform="translate(-152.992 -372.945)" fill="#f48120"/>
        </g>
      </g>
    </g>
  </g>
</svg>
