<svg xmlns="http://www.w3.org/2000/svg" width="60" height="60" viewBox="0 0 60 60">
  <g id="Group_8509" data-name="Group 8509" transform="translate(-968 -501)">
    <g id="Group_8508" data-name="Group 8508">
      <g id="Group_8507" data-name="Group 8507" transform="translate(38 -9)">
        <g id="Group_8506" data-name="Group 8506" transform="translate(930 528)">
          <g id="Group_8505" data-name="Group 8505">
            <g id="Group_524" data-name="Group 524" transform="translate(0 -18.118)">
              <circle id="Ellipse_14" data-name="Ellipse 14" cx="30" cy="30" r="30" transform="translate(0 0.118)" fill="#fff2e8"/>
            </g>
          </g>
        </g>
        <g id="communication-conversation-help" transform="translate(941.925 521.925)">
          <path id="Path_9187" data-name="Path 9187" d="M34.049,29.642V10.364A2.757,2.757,0,0,0,31.295,7.61H24.134V2.652A1.654,1.654,0,0,0,22.482,1H8.161A1.654,1.654,0,0,0,6.508,2.652V7.61H4.856A2.757,2.757,0,0,0,2.1,10.364V29.642H1V32.4A2.757,2.757,0,0,0,3.754,35.15H32.4A2.757,2.757,0,0,0,35.15,32.4V29.642ZM31.295,8.711a1.654,1.654,0,0,1,1.652,1.652V29.642h-1.1V10.915a1.1,1.1,0,0,0-1.1-1.1h-6.61v-1.1ZM13.118,30.744h9.915v.551a.551.551,0,0,1-.551.551H13.669a.551.551,0,0,1-.551-.551Zm-7.711-1.1V10.915h1.1v.551a1.654,1.654,0,0,0,1.652,1.652h3.956a1.64,1.64,0,0,0-.1.551v8.813a1.654,1.654,0,0,0,1.652,1.652h4.957v3.2l5.115-3.2H27.99a1.654,1.654,0,0,0,1.652-1.652V13.669a1.654,1.654,0,0,0-1.652-1.652H24.033a1.634,1.634,0,0,0,.1-.551v-.551h6.61V29.642ZM27.99,13.118a.551.551,0,0,1,.551.551v8.813a.551.551,0,0,1-.551.551H23.425l-3.7,2.311V23.033H13.669a.551.551,0,0,1-.551-.551V13.669a.556.556,0,0,1,.019-.1l4.388,2.742v-3.2H27.99ZM7.61,2.652A.551.551,0,0,1,8.161,2.1H22.482a.551.551,0,0,1,.551.551v8.813a.551.551,0,0,1-.551.551H16.423v2.311l-3.7-2.311H8.161a.551.551,0,0,1-.551-.551ZM3.2,10.364A1.654,1.654,0,0,1,4.856,8.711H6.508v1.1h-1.1a1.1,1.1,0,0,0-1.1,1.1V29.642H3.2ZM34.049,32.4A1.654,1.654,0,0,1,32.4,34.049H3.754A1.654,1.654,0,0,1,2.1,32.4V30.744h9.915v.551a1.654,1.654,0,0,0,1.652,1.652h8.813a1.654,1.654,0,0,0,1.652-1.652v-.551h9.915Z" fill="#f48120"/>
          <rect id="Rectangle_2771" data-name="Rectangle 2771" width="1" height="1" transform="translate(4.075 32.075)" fill="#f48120"/>
          <rect id="Rectangle_2772" data-name="Rectangle 2772" width="2" height="1" transform="translate(6.075 32.075)" fill="#f48120"/>
          <rect id="Rectangle_2773" data-name="Rectangle 2773" width="1" height="1" transform="translate(9.075 32.075)" fill="#f48120"/>
          <rect id="Rectangle_2774" data-name="Rectangle 2774" width="13" height="1" transform="translate(9.075 3.075)" fill="#f48120"/>
          <rect id="Rectangle_2775" data-name="Rectangle 2775" width="13" height="1" transform="translate(9.075 5.075)" fill="#f48120"/>
          <rect id="Rectangle_2776" data-name="Rectangle 2776" width="1" height="1" transform="translate(21.075 8.075)" fill="#f48120"/>
          <rect id="Rectangle_2777" data-name="Rectangle 2777" width="11" height="1" transform="translate(9.075 8.075)" fill="#f48120"/>
          <rect id="Rectangle_2778" data-name="Rectangle 2778" width="1" height="1" transform="translate(15.075 10.075)" fill="#f48120"/>
          <rect id="Rectangle_2779" data-name="Rectangle 2779" width="1" height="1" transform="translate(18.075 10.075)" fill="#f48120"/>
          <rect id="Rectangle_2780" data-name="Rectangle 2780" width="1" height="1" transform="translate(11.075 10.075)" fill="#f48120"/>
          <rect id="Rectangle_2781" data-name="Rectangle 2781" width="8" height="1" transform="translate(19.075 14.075)" fill="#f48120"/>
          <rect id="Rectangle_2782" data-name="Rectangle 2782" width="8" height="1" transform="translate(19.075 16.075)" fill="#f48120"/>
          <rect id="Rectangle_2783" data-name="Rectangle 2783" width="1" height="1" transform="translate(26.075 19.075)" fill="#f48120"/>
          <rect id="Rectangle_2784" data-name="Rectangle 2784" width="11" height="1" transform="translate(14.075 19.075)" fill="#f48120"/>
          <rect id="Rectangle_2785" data-name="Rectangle 2785" width="1" height="1" transform="translate(20.075 21.075)" fill="#f48120"/>
          <rect id="Rectangle_2786" data-name="Rectangle 2786" width="1" height="1" transform="translate(24.075 21.075)" fill="#f48120"/>
          <rect id="Rectangle_2787" data-name="Rectangle 2787" width="1" height="1" transform="translate(17.075 21.075)" fill="#f48120"/>
        </g>
      </g>
    </g>
  </g>
</svg>
