<svg id="Group_8504" data-name="Group 8504" xmlns="http://www.w3.org/2000/svg" width="60" height="60" viewBox="0 0 60 60">
  <g id="Group_525" data-name="Group 525" transform="translate(-142 -5243)">
    <circle id="Ellipse_14" data-name="Ellipse 14" cx="30" cy="30" r="30" transform="translate(142 5243)" fill="#fff2e8"/>
  </g>
  <g id="housekeeping-2" transform="translate(10.107 11.122)">
    <path id="Path_9178" data-name="Path 9178" d="M1.15,11.412a5.405,5.405,0,0,1,.7-3.555,5.21,5.21,0,0,1,1.7-1.7,6.181,6.181,0,0,1,2.257-.848,6.827,6.827,0,0,1,3.93.508,5.667,5.667,0,0,1,1.9-2.127,6.364,6.364,0,0,1,3.565-.994A5.851,5.851,0,0,1,19.29,4.409a5.783,5.783,0,0,1,1.6,2.924,5.544,5.544,0,0,1,2.561-.7,3.621,3.621,0,0,1,1.732.427,3.716,3.716,0,0,1,1.289,1.185,6.238,6.238,0,0,1,.958,3.361,1.728,1.728,0,0,1,.288.864,2.916,2.916,0,0,1,0,.411.886.886,0,0,1-.026.139L25.351,23.271a20.272,20.272,0,0,1-2.674,1.907l3.646-12.455a.62.62,0,0,0,0-.155.411.411,0,0,0-.029-.139.494.494,0,0,1-.071-.071.8.8,0,0,0-.23-.049,2.607,2.607,0,0,0-.278,0,.737.737,0,0,1-.084.006H2.26a.1.1,0,0,0-.058.026,1.409,1.409,0,0,0-.039.631L5.75,28.383c.686.311.333.214,1.094.265a9.159,9.159,0,0,0,4.662-1.033A12.882,12.882,0,0,0,18.4,17.664a1.973,1.973,0,0,1,.864-3.749h0A1.974,1.974,0,0,1,19.8,17.79a14.3,14.3,0,0,1-7.657,11.073,10.518,10.518,0,0,1-5.381,1.178c-.583-.042-.062.133-.612-.029.851,3.2,1.57,3.189,4.2,3.14.489-.006,1.026-.019,1.4-.019H11.9c.023.042.042.084.065.126a4.375,4.375,0,0,0,1.1,1.272H11.74c-.644,0-1.03.006-1.379.013-3.73.071-4.555.084-5.76-4.963v0h0l-.058-.253A7.492,7.492,0,0,1,3,28.147C.363,25.515-.964,20.344.81,11.927a.7.7,0,0,1,.269-.421.714.714,0,0,1,.071-.094Zm2.9,15.806L1.519,16.365c-.531,5.439.573,8.907,2.467,10.8.023.019.042.039.062.055ZM25.979,10.9a4.34,4.34,0,0,0-.66-1.875,2.336,2.336,0,0,0-.8-.745,2.2,2.2,0,0,0-1.068-.256A5.049,5.049,0,0,0,20.7,9.074h0a.709.709,0,0,1-.4.123.7.7,0,0,1-.69-.7.314.314,0,0,1,0-.055A4.287,4.287,0,0,0,18.3,5.4a4.436,4.436,0,0,0-3.1-1.308,5.017,5.017,0,0,0-2.8.758A4.39,4.39,0,0,0,10.73,7.009a.571.571,0,0,1-.062.126.693.693,0,0,1-.958.23,5.323,5.323,0,0,0-3.668-.69A4.806,4.806,0,0,0,4.3,7.326a3.915,3.915,0,0,0-1.253,1.25,3.943,3.943,0,0,0-.534,2.331H25.626c.12,0,.236-.006.353,0Zm3.053,8.44a1.572,1.572,0,0,1,1.052-.453l3.96.567c.861.123,1.7.385,1.758,1.447a9.315,9.315,0,0,1-.12,1.289l-.029.282c-.113,1.043-.4.923-1.259,1.34,2.137,3.5,4.6,7.207,5.362,11.361.168.855-.379,1.415-1.463,1.758l-1.939.363a13.17,13.17,0,0,0-1.671-7.1c.346,2.817.693,5.562.233,7.184l-1.994.376a3.9,3.9,0,0,0-.932-1.9l-.463,1.742-3.357-.165a12.989,12.989,0,0,0,2.147-6,13.491,13.491,0,0,1-3.532,5.106c-.615.631-1.153.761-1.612.356-.327-.288-.275-.466-.207-.887a5.382,5.382,0,0,1,.605-1.664,19.933,19.933,0,0,1-1.486,1.35c-1.078,1.156-2.943.978-3.241-.625-.191-1.026.492-1.357,1.185-2.082l1.2-1.259a23.353,23.353,0,0,1-4.066,2.163c-1.567.586-1.573.524-3.011-.22-1.936-1-3.377-2.143-.683-2.833,4.96-1.632,9.8-3.552,13.608-7.874a1.355,1.355,0,0,1-.69-.926,5.04,5.04,0,0,1,.644-2.687Zm5.374-17.82-2.94,14.893c-.272,2.493,2.629,2.72,3.089.269L37.431,1.77c-.068-2.079-2.422-2.535-3.024-.246Z" transform="translate(0)" fill="#f48120"/>
  </g>
</svg>
