<svg id="Group_8502" data-name="Group 8502" xmlns="http://www.w3.org/2000/svg" width="60" height="60" viewBox="0 0 60 60">
  <g id="Group_527" data-name="Group 527" transform="translate(-142 -5008)">
    <circle id="Ellipse_14" data-name="Ellipse 14" cx="30" cy="30" r="30" transform="translate(142 5008)" fill="#fff2e8"/>
  </g>
  <g id="room-key-key" transform="translate(-25.56 9.001)">
    <g id="Group_8427" data-name="Group 8427" transform="translate(41.56 -1)">
      <g id="Group_8426" data-name="Group 8426" transform="translate(0)">
        <path id="Path_9170" data-name="Path 9170" d="M294.217,136.86a2.571,2.571,0,0,0-3.5,0l-3.5,3.5a2.27,2.27,0,0,0-.75,1.75,2.4,2.4,0,0,0,.75,1.75l5.917,5.917a2.4,2.4,0,0,0,1.75.75,2.541,2.541,0,0,0,1.75-.75l3.5-3.5a2.27,2.27,0,0,0,.75-1.75,2.4,2.4,0,0,0-.75-1.75Zm4.75,8.333-3.5,3.5a.806.806,0,0,1-1.167,0l-5.917-5.917a.805.805,0,0,1,0-1.167l3.5-3.583a.756.756,0,0,1,.583-.25.558.558,0,0,1,.583.333l5.917,5.917a.806.806,0,0,1,0,1.167Z" transform="translate(-266.908 -125.408)" fill="#f48120"/>
        <path id="Path_9171" data-name="Path 9171" d="M335.67,183.57a.825.825,0,0,0-1.167,1.167l3.5,3.5a.756.756,0,0,0,.583.25.9.9,0,0,0,.583-.25.806.806,0,0,0,0-1.167Z" transform="translate(-309.081 -168.131)" fill="#f48120"/>
        <path id="Path_9172" data-name="Path 9172" d="M77.378,14.121,67.3,4.447A5.3,5.3,0,0,0,63.809,3a7.421,7.421,0,0,0-12.941-.409c-.118,0-.235-.007-.354-.007a8.808,8.808,0,0,0-8.955,8.6,8.564,8.564,0,0,0,4.477,7.44v6.893a.639.639,0,0,0,.224.5l.97.932-.97.932a.674.674,0,0,0,0,1l.97.932-.97.932a.674.674,0,0,0,0,1l.97.932-.97.932a.674.674,0,0,0,0,1l.97.932-.97.932a.674.674,0,0,0,0,1l.97.932-.97.932a.674.674,0,0,0,0,1l1.492,1.433a.691.691,0,0,0,.522.215h2.985l.044,0a.779.779,0,0,0,.732-.542l2.806-4.042a.992.992,0,0,0,.149-.43V18.623a8.918,8.918,0,0,0,3.02-2.753L66.856,24.3a5.311,5.311,0,0,0,3.656,1.433,5.072,5.072,0,0,0,3.731-1.5l3.134-3.01A4.92,4.92,0,0,0,77.378,14.121Zm-11.939-5.8a1.494,1.494,0,0,1-2.985,0,1.428,1.428,0,0,1,.767-1.25.76.76,0,0,0,1.452,0A1.428,1.428,0,0,1,65.439,8.316ZM57.23.433a5.532,5.532,0,0,1,4.987,2.741,5.19,5.19,0,0,0-2.3,1.273l-2,1.917A9.021,9.021,0,0,0,52.488,2.8,5.534,5.534,0,0,1,57.23.433ZM49.789,7.066a.76.76,0,0,0,1.452,0,1.428,1.428,0,0,1,.767,1.25,1.494,1.494,0,0,1-2.985,0A1.428,1.428,0,0,1,49.789,7.066ZM47.828,39.849l.97-.932a.674.674,0,0,0,0-1l-.97-.932.97-.932a.674.674,0,0,0,0-1l-.97-.932.97-.932a.674.674,0,0,0,0-1l-.97-.932.97-.932a.674.674,0,0,0,0-1l-.97-.932.97-.932a.674.674,0,0,0,0-1L47.53,25.229V19.288c.11.038.221.074.334.108a8.569,8.569,0,0,0,2.651.387V40.566h-1.94ZM53.5,36.767,52.082,38.81V19.65a9.144,9.144,0,0,0,1.418-.362Zm.539-19.273a.507.507,0,0,0-.166.067q-.231.121-.469.226a7.656,7.656,0,0,1-2.889.562c-.227,0-.45-.011-.672-.031a7.492,7.492,0,0,1-2.686-.758.676.676,0,0,0-.2-.085,7.15,7.15,0,0,1-3.9-6.293A7.327,7.327,0,0,1,50.23,4.024a8.837,8.837,0,0,0-.359,1.495,2.907,2.907,0,0,0-2.341,2.8,2.987,2.987,0,0,0,5.97,0,2.9,2.9,0,0,0-2.126-2.744,7.341,7.341,0,0,1,.405-1.45,7.284,7.284,0,0,1,6.2,7.034c0,.047,0,.094,0,.14,0,.014,0,.029,0,.043a6.963,6.963,0,0,1-.817,3,.686.686,0,0,0-.072.234A7.4,7.4,0,0,1,54.038,17.494Zm22.221,2.79-3.134,3.01a3.946,3.946,0,0,1-5.3,0l-9.085-8.726a8.286,8.286,0,0,0,.5-1.468l.007-.031c.013-.056.026-.112.038-.168.008-.038.016-.077.023-.115s.014-.068.02-.1.008-.045.012-.068a8.239,8.239,0,0,0,.126-1.433c0-.011,0-.022,0-.033s0-.025,0-.038a7.737,7.737,0,0,0-.746-3.44l2.239-2.15a3.92,3.92,0,0,1,1.884-.942,7.461,7.461,0,0,1,.242.993,2.9,2.9,0,0,0-2.126,2.744,2.987,2.987,0,0,0,5.97,0,2.907,2.907,0,0,0-2.341-2.8,8.93,8.93,0,0,0-.2-.946,3.679,3.679,0,0,1,1.865.949l10,9.747a3.3,3.3,0,0,1,1.119,2.508A3.581,3.581,0,0,1,76.259,20.284Z" transform="translate(-41.56 1)" fill="#f48120"/>
      </g>
    </g>
  </g>
</svg>
