<svg width="80" height="80" viewBox="0 0 80 80" fill="none" xmlns="http://www.w3.org/2000/svg">
<path d="M40 80C62.0914 80 80 62.0914 80 40C80 17.9086 62.0914 0 40 0C17.9086 0 0 17.9086 0 40C0 62.0914 17.9086 80 40 80Z" fill="#FFF2E8"/>
<g clip-path="url(#clip0_6_387)">
<path fill-rule="evenodd" clip-rule="evenodd" d="M19.3092 22.8726L48.498 9.09958C49.1618 8.7843 49.9251 9.27382 49.9251 10.004V16.7992L54.4138 15.9114C55.0278 15.787 55.6086 16.2682 55.6086 16.8988V22.7896H59.2841C59.84 22.7896 60.2881 23.2377 60.2881 23.7936V66.9961C60.2881 67.552 59.84 68 59.2841 68H19.7157C19.1681 68 18.7201 67.552 18.7201 66.9961V23.7936C18.7201 23.3787 18.9441 23.0468 19.3092 22.8726ZM54.6046 24.7892H20.7197V66.0004H58.2802V24.7892H54.6046ZM53.4845 44.6108H25.5236C24.9677 44.6108 24.5197 44.1627 24.5197 43.6151V28.3237C24.5197 27.7761 24.9677 27.3281 25.5236 27.3281H53.4845C54.0321 27.3281 54.4802 27.7761 54.4802 28.3237V43.6151C54.4802 44.1627 54.0321 44.6108 53.4845 44.6108ZM26.5193 42.6112H52.4806V29.3277H26.5193V42.6112ZM49.1452 49.2903H29.8547C29.3071 49.2903 28.859 48.8422 28.859 48.2863C28.859 47.7387 29.3071 47.2907 29.8547 47.2907H49.1452C49.6928 47.2907 50.1408 47.7387 50.1408 48.2863C50.1408 48.8422 49.6928 49.2903 49.1452 49.2903ZM53.4845 53.9698H25.5236C24.9677 53.9698 24.5197 53.5217 24.5197 52.9658C24.5197 52.4099 24.9677 51.9619 25.5236 51.9619H53.4845C54.0321 51.9619 54.4802 52.4099 54.4802 52.9658C54.4802 53.5217 54.0321 53.9698 53.4845 53.9698ZM53.4845 58.6493H25.5236C24.9677 58.6493 24.5197 58.2013 24.5197 57.6454C24.5197 57.0895 24.9677 56.6414 25.5236 56.6414H53.4845C54.0321 56.6414 54.4802 57.0895 54.4802 57.6454C54.4802 58.2013 54.0321 58.6493 53.4845 58.6493ZM53.4845 63.3205H25.5236C24.9677 63.3205 24.5197 62.8725 24.5197 62.3249C24.5197 61.769 24.9677 61.3209 25.5236 61.3209H53.4845C54.0321 61.3209 54.4802 61.769 54.4802 62.3249C54.4802 62.8725 54.0321 63.3205 53.4845 63.3205ZM29.9542 22.7896H53.6007V18.1184L29.9542 22.7896ZM27.4734 21.2381L47.9255 17.1975V11.5804L27.4734 21.2381Z" fill="#F48120"/>
</g>
<defs>
<clipPath id="clip0_6_387">
<rect width="59" height="59" fill="white" transform="translate(10 9)"/>
</clipPath>
</defs>
</svg>
