<svg width="80" height="80" viewBox="0 0 80 80" fill="none" xmlns="http://www.w3.org/2000/svg">
<path d="M40.0005 79.9999C62.0919 79.9999 80.0005 62.0913 80.0005 39.9999C80.0005 17.9085 62.0919 -6.10352e-05 40.0005 -6.10352e-05C17.9091 -6.10352e-05 0.000488281 17.9085 0.000488281 39.9999C0.000488281 62.0913 17.9091 79.9999 40.0005 79.9999Z" fill="#FFF2E8"/>
<path fill-rule="evenodd" clip-rule="evenodd" d="M13 26.3821H18.4779V49.72H60.94V26.3821H66.4503V55.3276H13V26.3821Z" stroke="#F48120" stroke-width="2" stroke-linecap="round" stroke-linejoin="round"/>
<path d="M57.8283 63.3013H22.5945V67.8393H57.8283V63.3013Z" stroke="#F48120" stroke-width="2" stroke-linecap="round" stroke-linejoin="round"/>
<path fill-rule="evenodd" clip-rule="evenodd" d="M46.4186 63.3014V55.3276H34.0042V63.3014H46.4186Z" stroke="#F48120" stroke-width="2" stroke-linecap="round" stroke-linejoin="round"/>
<path d="M60.9401 14H18.478V49.6876H60.9401V14Z" stroke="#F48120" stroke-width="2" stroke-linecap="round" stroke-linejoin="round"/>
<path d="M34.3931 17.7924H22.7889V30.0124H34.3931V17.7924Z" stroke="#F48120" stroke-width="2" stroke-linecap="round" stroke-linejoin="round"/>
<path d="M34.3931 33.7076H22.7889V45.9276H34.3931V33.7076Z" stroke="#F48120" stroke-width="2" stroke-linecap="round" stroke-linejoin="round"/>
<path d="M39.8063 19.089H57.3097" stroke="#F48120" stroke-width="2" stroke-linecap="round" stroke-linejoin="round"/>
<path d="M39.8063 23.8862H57.3097" stroke="#F48120" stroke-width="2" stroke-linecap="round" stroke-linejoin="round"/>
<path d="M39.8063 28.6834H57.3097" stroke="#F48120" stroke-width="2" stroke-linecap="round" stroke-linejoin="round"/>
<path d="M39.8063 35.0366H57.3097" stroke="#F48120" stroke-width="2" stroke-linecap="round" stroke-linejoin="round"/>
<path d="M39.8063 39.8337H57.3097" stroke="#F48120" stroke-width="2" stroke-linecap="round" stroke-linejoin="round"/>
<path d="M39.8063 44.631H57.3097" stroke="#F48120" stroke-width="2" stroke-linecap="round" stroke-linejoin="round"/>
<path d="M24.9932 23.8862L27.3918 26.2848L32.189 21.4876" stroke="#F48120" stroke-width="2" stroke-linecap="round" stroke-linejoin="round"/>
<path d="M31.1194 37.3055L26.0629 42.362" stroke="#F48120" stroke-width="2" stroke-linecap="round" stroke-linejoin="round"/>
<path d="M26.0629 37.3055L31.1194 42.362" stroke="#F48120" stroke-width="2" stroke-linecap="round" stroke-linejoin="round"/>
</svg>
