<svg width="80" height="80" viewBox="0 0 80 80" fill="none" xmlns="http://www.w3.org/2000/svg">
<path d="M40 80C62.0914 80 80 62.0914 80 40C80 17.9086 62.0914 0 40 0C17.9086 0 0 17.9086 0 40C0 62.0914 17.9086 80 40 80Z" fill="#FFF2E8"/>
<path fill-rule="evenodd" clip-rule="evenodd" d="M20.7433 44.3663C21.9993 44.3663 22.6843 42.8439 21.809 41.9305C19.4873 39.4946 21.7709 36.6021 21.8851 36.4879C23.0649 35.0036 20.8194 33.1767 19.6015 34.661C16.1 38.9618 18.6881 44.3663 20.7433 44.3663ZM20.0202 56.8879H33.8358C33.8358 60.0088 36.3858 62.5588 39.5448 62.5588C42.6657 62.5588 45.2157 60.0088 45.2538 56.8879H59.0694C60.2493 56.8879 60.9344 55.5558 60.2493 54.5663C55.6441 48.2484 54.1217 42.0066 54.6926 37.5536C55.5679 30.6648 51.115 24.423 44.5687 22.2916C44.8351 19.361 42.4754 16.811 39.5448 16.811C36.5761 16.811 34.2545 19.361 34.4829 22.3297C27.9366 24.423 23.4836 30.6648 24.359 37.5536C25.006 42.6536 22.8746 49.0096 18.8403 54.5663C18.1172 55.5558 18.8022 56.8879 20.0202 56.8879ZM36.7284 56.8879H42.3232C42.3232 58.4103 41.0672 59.6663 39.5448 59.6663C37.9843 59.6663 36.7284 58.4103 36.7284 56.8879ZM41.6761 21.6827C40.3821 21.4924 38.7075 21.4924 37.3754 21.6827C37.6418 19.0946 41.4097 19.0946 41.6761 21.6827ZM56.3291 53.9954H22.7224C23.2933 53.12 23.75 52.2446 24.2067 51.4073H54.8448L56.3291 53.9954ZM25.5388 48.5148C27.6321 43.1864 27.4799 39.076 27.2515 37.211C26.3761 30.2842 32.1993 24.461 39.5067 24.461C46.9284 24.461 52.6754 30.2842 51.8 37.211C51.5336 39.3424 51.4956 43.3387 53.5508 48.5148H25.5388ZM46.662 38.3528C47.5373 38.3528 48.2224 37.5916 48.1082 36.7163C47.0426 29.4849 41.7142 27.4297 39.05 27.3536C37.147 27.3155 37.0709 30.2081 38.9739 30.2842C39.2023 30.2842 44.2642 30.5887 45.2157 37.1349C45.3299 37.8581 45.9388 38.3528 46.662 38.3528ZM66.1485 52.2066C66.5672 52.2066 66.9859 52.0163 67.2523 51.6737C77.9851 38.5051 67.1762 26.8207 67.1 26.7066C65.7679 25.2984 63.6747 27.3155 64.9687 28.6857C65.3493 29.1043 74.103 38.6954 65.0068 49.8088C64.2456 50.7603 64.9687 52.2066 66.1485 52.2066ZM62.3045 48.2103C62.7232 48.2103 63.1418 48.0581 63.4082 47.7155C70.7918 38.7715 63.4082 30.8551 63.3321 30.779C62.0381 29.4088 59.9068 31.3879 61.2388 32.7961C61.5053 33.0625 66.8717 38.9237 61.1627 45.8506C60.3635 46.8021 61.0866 48.2103 62.3045 48.2103ZM58.3082 44.3663C60.4015 44.3663 62.9515 38.9618 59.45 34.661C58.2702 33.1767 55.9866 35.0036 57.2045 36.4879C57.4329 36.7924 59.5262 39.5707 57.2806 41.9305C56.4053 42.8439 57.0523 44.3663 58.3082 44.3663ZM12.903 52.2066C14.1209 52.2066 14.844 50.7603 14.0448 49.8088C4.98656 38.6954 13.7022 29.1043 14.0828 28.6857C15.4149 27.3155 13.2836 25.2984 11.9896 26.7066C11.8754 26.8207 1.06641 38.5051 11.7993 51.6737C12.0657 52.0163 12.4843 52.2066 12.903 52.2066ZM16.7851 48.2103C17.9649 48.2103 18.6881 46.8021 17.8888 45.8506C12.1799 38.9237 17.5843 33.0245 17.8127 32.7961C19.1448 31.3879 17.0515 29.4088 15.7194 30.779C15.6433 30.8551 8.2597 38.7715 15.6433 47.7155C15.9478 48.0581 16.3664 48.2103 16.7851 48.2103Z" fill="#F48120"/>
</svg>
