<svg xmlns="http://www.w3.org/2000/svg" width="39.999" height="40" viewBox="0 0 39.999 40">
  <g id="robust-integrations" transform="translate(-7 -7)">
    <path id="Path_9346" data-name="Path 9346" d="M54,24.281V15.636A3.641,3.641,0,0,0,50.364,12H40.685a3.015,3.015,0,0,0-2.814,1.905l-.3.744a.606.606,0,0,1-.563.381h-1.8a1.212,1.212,0,1,0,0,2.424h1.8a3.015,3.015,0,0,0,2.814-1.905l.3-.744a.606.606,0,0,1,.562-.381h9.678a1.212,1.212,0,0,1,1.212,1.212v8.644A4.858,4.858,0,0,0,48.1,27.758H40.685a3.015,3.015,0,0,0-2.814,1.905l-.3.744a.606.606,0,0,1-.563.381h-1.8a1.212,1.212,0,1,0,0,2.424h1.8a3.015,3.015,0,0,0,2.814-1.905l.3-.744a.606.606,0,0,1,.562-.381H48.1a4.858,4.858,0,0,0,3.477,3.477V42.3a1.212,1.212,0,0,1-1.212,1.212H40.685a3.015,3.015,0,0,0-2.814,1.905l-.3.744a.606.606,0,0,1-.563.381h-1.8a1.212,1.212,0,0,0,0,2.424h1.8a3.015,3.015,0,0,0,2.814-1.905l.3-.744a.606.606,0,0,1,.562-.381h9.678A3.641,3.641,0,0,0,54,42.3V33.659a4.841,4.841,0,0,0,0-9.378Zm-1.212,7.113a2.424,2.424,0,1,1,2.424-2.424A2.424,2.424,0,0,1,52.788,31.394Z" transform="translate(-10.636 -1.97)"/>
    <path id="Path_9347" data-name="Path 9347" d="M26.764,42.064l.3-.744a.606.606,0,0,1,.563-.381h1.8a1.212,1.212,0,1,0,0-2.424h-1.8a3.015,3.015,0,0,0-2.814,1.905l-.3.744a.606.606,0,0,1-.563.381H14.273a1.212,1.212,0,0,1-1.212-1.212V31.689a4.858,4.858,0,0,0,3.477-3.477h7.413a3.015,3.015,0,0,0,2.814-1.905l.3-.744a.606.606,0,0,1,.562-.381h1.8a1.212,1.212,0,0,0,0-2.424h-1.8a3.015,3.015,0,0,0-2.814,1.905l-.3.744a.606.606,0,0,1-.563.381H16.538a4.858,4.858,0,0,0-3.477-3.477V13.667a1.212,1.212,0,0,1,1.212-1.212h9.678a3.015,3.015,0,0,0,2.814-1.905l.3-.744a.606.606,0,0,1,.562-.381h1.8a1.212,1.212,0,0,0,0-2.424h-1.8a3.015,3.015,0,0,0-2.814,1.905l-.3.744a.606.606,0,0,1-.563.381H14.273a3.641,3.641,0,0,0-3.636,3.636v8.644a4.841,4.841,0,0,0,0,9.378v8.645a3.641,3.641,0,0,0,3.636,3.636h9.678A3.015,3.015,0,0,0,26.764,42.064ZM9.424,27a2.424,2.424,0,1,1,2.424,2.424A2.424,2.424,0,0,1,9.424,27Z"/>
  </g>
</svg>
