<svg xmlns="http://www.w3.org/2000/svg" xmlns:xlink="http://www.w3.org/1999/xlink" width="30" height="30" viewBox="0 0 30 30">
  <defs>
    <clipPath id="clip-path">
      <rect id="Rectangle_1227" data-name="Rectangle 1227" width="30" height="30" transform="translate(507 360)" fill="none" stroke="#fff" stroke-width="1"/>
    </clipPath>
  </defs>
  <g id="Mask_Group_108" data-name="Mask Group 108" transform="translate(-507 -360)" clip-path="url(#clip-path)">
    <g id="Icon_ionic-ios-cube" data-name="Icon ionic-ios-cube" transform="translate(508.422 361.423)">
      <path id="Path_6234" data-name="Path 6234" d="M23.036,7.372,14.251,3.434a.682.682,0,0,0-.554,0L4.908,7.372a.412.412,0,0,0-.02.726l8.765,4.615a.668.668,0,0,0,.638,0L23.055,8.1A.412.412,0,0,0,23.036,7.372Z" transform="translate(-0.395)" fill="none" stroke="#fff" stroke-width="2"/>
      <path id="Path_6235" data-name="Path 6235" d="M19.461,26.276,28.295,21.6a.4.4,0,0,0,.177-.334V12.2a.365.365,0,0,0-.525-.348L19.113,16.4a.387.387,0,0,0-.206.348v9.186A.37.37,0,0,0,19.461,26.276Z" transform="translate(-4.698 -2.551)" fill="none" stroke="#fff" stroke-width="2"/>
      <path id="Path_6236" data-name="Path 6236" d="M3.375,12.2v9.064a.4.4,0,0,0,.177.334l8.833,4.674a.362.362,0,0,0,.549-.334V16.751a.387.387,0,0,0-.206-.348L3.9,11.851A.367.367,0,0,0,3.375,12.2Z" transform="translate(0 -2.551)" fill="none" stroke="#fff" stroke-width="2"/>
    </g>
  </g>
</svg>
