<svg xmlns="http://www.w3.org/2000/svg" xmlns:xlink="http://www.w3.org/1999/xlink" width="30" height="30" viewBox="0 0 30 30">
  <defs>
    <clipPath id="clip-path">
      <rect id="Rectangle_1229" data-name="Rectangle 1229" width="30" height="30" transform="translate(507 360)" fill="none" stroke="#fff" stroke-width="1"/>
    </clipPath>
  </defs>
  <g id="Mask_Group_110" data-name="Mask Group 110" transform="translate(-507 -360)" clip-path="url(#clip-path)">
    <g id="Icon_feather-database" data-name="Icon feather-database" transform="translate(506.733 360.037)">
      <path id="Path_6240" data-name="Path 6240" d="M26.033,6.589c0,1.982-4.82,3.589-10.767,3.589S4.5,8.571,4.5,6.589,9.32,3,15.267,3,26.033,4.607,26.033,6.589Z" transform="translate(0)" fill="none" stroke="#fff" stroke-linecap="round" stroke-linejoin="round" stroke-width="2"/>
      <path id="Path_6241" data-name="Path 6241" d="M26.033,18c0,1.986-4.785,3.589-10.767,3.589S4.5,19.986,4.5,18" transform="translate(0 -3.037)" fill="none" stroke="#fff" stroke-linecap="round" stroke-linejoin="round" stroke-width="2"/>
      <path id="Path_6242" data-name="Path 6242" d="M4.5,7.5V24.248c0,1.986,4.785,3.589,10.767,3.589s10.767-1.6,10.767-3.589V7.5" transform="translate(0 -0.911)" fill="none" stroke="#fff" stroke-linecap="round" stroke-linejoin="round" stroke-width="2"/>
    </g>
  </g>
</svg>
