<svg xmlns="http://www.w3.org/2000/svg" xmlns:xlink="http://www.w3.org/1999/xlink" width="30" height="30" viewBox="0 0 30 30">
  <defs>
    <clipPath id="clip-path">
      <rect id="Rectangle_1230" data-name="Rectangle 1230" width="30" height="30" transform="translate(507 360)" fill="none" stroke="#707070" stroke-width="1"/>
    </clipPath>
  </defs>
  <g id="Mask_Group_111" data-name="Mask Group 111" transform="translate(-507 -360)" clip-path="url(#clip-path)">
    <g id="Icon_ionic-md-speedometer" data-name="Icon ionic-md-speedometer" transform="translate(506.856 359.683)">
      <path id="Path_6237" data-name="Path 6237" d="M9,29.25H24.222v2.756H9Z" transform="translate(-1.467 -4.748)" fill="#fff"/>
      <path id="Path_6238" data-name="Path 6238" d="M16.542,18.812a1.846,1.846,0,0,0,0-3.674,1.527,1.527,0,0,0-.457.069l-3.467-2.8-.208.2,2.542,3.829a1.965,1.965,0,0,0-.073.534A1.755,1.755,0,0,0,16.542,18.812Z" transform="translate(-1.547 -1.658)" fill="#fff"/>
      <path id="Path_6239" data-name="Path 6239" d="M15.144,3.375A11.855,11.855,0,0,0,3.375,15.317a12,12,0,0,0,2.5,7.349H9.2l.226-.23,1.25-1.269-1.3-1.315-1.25,1.263a9.223,9.223,0,0,1-1.992-4.88H7.9V14.4H6.136a9.223,9.223,0,0,1,1.992-4.88l1.25,1.263,1.3-1.315L9.429,8.2a8.95,8.95,0,0,1,4.81-2.021V7.968H16.05V6.177A8.95,8.95,0,0,1,20.859,8.2L19.614,9.466l1.3,1.315,1.25-1.263a9.223,9.223,0,0,1,1.992,4.88H22.387v1.837h1.765a9.223,9.223,0,0,1-1.992,4.88l-1.25-1.263-1.3,1.315,1.25,1.269.226.23h3.327a12,12,0,0,0,2.5-7.349A11.855,11.855,0,0,0,15.144,3.375Z" fill="#fff"/>
    </g>
  </g>
</svg>
