<svg xmlns="http://www.w3.org/2000/svg" width="35" height="24" viewBox="0 0 35 24">
                    <path id="salesforce" d="M13.611,13.694H12.17a.761.761,0,0,1,.746-.756c.369,0,.655.2.7.756Zm7.474-.744c-.026,0-.772-.095-.772,1.071s.745,1.071.772,1.071c.711,0,.772-.725.772-1.071C21.857,12.856,21.11,12.95,21.085,12.95Zm-13.3,1.273a.458.458,0,0,0-.18.391.4.4,0,0,0,.18.378,1.709,1.709,0,0,0,1.145.051v-.907a1.772,1.772,0,0,0-1.145.088ZM35,12.963a7.521,7.521,0,0,1-9.043,7.308,5.593,5.593,0,0,1-7.23,2.23,6.343,6.343,0,0,1-11.693-.277C.487,23.5-2.745,14.812,2.918,11.55A6.68,6.68,0,0,1,9.17,2.25a6.845,6.845,0,0,1,5.39,2.609A6.218,6.218,0,0,1,24.4,6.131,7.552,7.552,0,0,1,35,12.963Zm-28.413,1.7c0-.63-.639-.813-.977-.92-.288-.113-.733-.188-.733-.479,0-.507.93-.357,1.376-.114,0,0,.064.038.09-.025.013-.037.129-.352.142-.391a.06.06,0,0,0-.038-.076c-.674-.409-2.226-.456-2.226.68,0,.667.628.827.978.92.258.085.72.161.72.466,0,.214-.193.378-.5.378a1.761,1.761,0,0,1-1.039-.34c-.026-.012-.078-.038-.09.038l-.131.4c-.026.05.013.063.013.076a2.224,2.224,0,0,0,1.248.353c.72,0,1.17-.378,1.17-.97Zm1.75-2.281a2.348,2.348,0,0,0-1.17.277.053.053,0,0,0-.023.035.053.053,0,0,0,.01.04l.142.378a.055.055,0,0,0,.065.037,2.2,2.2,0,0,1,.926-.214.817.817,0,0,1,.5.126c.2.15.167.444.167.567a2.433,2.433,0,0,0-1.608.2.9.9,0,0,0-.4.779.867.867,0,0,0,.36.769,3.184,3.184,0,0,0,2.084.076c.086-.017.193-.035.193-.1V13.542c0-.247.017-1.159-1.246-1.159Zm2.546-1.124a.059.059,0,0,0-.018-.046.061.061,0,0,0-.047-.017h-.537a.061.061,0,0,0-.047.018.059.059,0,0,0-.017.046v4.232a.059.059,0,0,0,.017.046.061.061,0,0,0,.047.017h.54a.061.061,0,0,0,.047-.017.059.059,0,0,0,.018-.046Zm3.049,1.55a1.188,1.188,0,0,0-.965-.4,1.4,1.4,0,0,0-1.132.479,1.816,1.816,0,0,0-.36,1.147,1.632,1.632,0,0,0,.386,1.134,1.6,1.6,0,0,0,1.247.441,1.954,1.954,0,0,0,1.016-.2c.026-.013.039-.038.013-.1l-.129-.366a.069.069,0,0,0-.077-.037,2,2,0,0,1-.836.151.828.828,0,0,1-.926-.895H14.2a.067.067,0,0,0,.064-.05,1.9,1.9,0,0,0-.333-1.3Zm2.006,2.822c.72,0,1.171-.378,1.171-.97,0-.63-.64-.813-.978-.92-.226-.089-.733-.181-.733-.479,0-.2.18-.34.463-.34a2.119,2.119,0,0,1,.913.227s.065.038.09-.025c.013-.037.129-.352.141-.391a.06.06,0,0,0-.038-.076,2.125,2.125,0,0,0-1.106-.265,1,1,0,0,0-1.119.945c0,.667.628.827.977.92.334.107.72.175.72.466,0,.214-.193.378-.5.378a1.763,1.763,0,0,1-1.039-.34.056.056,0,0,0-.057-.009.054.054,0,0,0-.033.047l-.129.4c-.026.05.013.063.013.076a2.222,2.222,0,0,0,1.246.353Zm3.59-3.1c0-.038-.013-.063-.065-.063h-.643a1.355,1.355,0,0,1,.244-.668c.228-.222.643-.088.656-.088.064.025.077,0,.09-.025l.155-.416c.038-.05,0-.063-.013-.076a1.4,1.4,0,0,0-1.338.227,1.911,1.911,0,0,0-.438,1.046h-.463a.069.069,0,0,0-.064.063l-.078.416c0,.037.013.063.065.063h.45c-.465,2.566-.479,2.69-.566,2.974a.615.615,0,0,1-.322.416.807.807,0,0,1-.527-.013.056.056,0,0,0-.077.038c-.013.038-.142.365-.155.4s0,.076.026.076a1.616,1.616,0,0,0,.978,0,1.094,1.094,0,0,0,.631-.693,22.72,22.72,0,0,0,.643-3.2h.669a.07.07,0,0,0,.065-.063Zm2.92.857a1.461,1.461,0,0,0-2.752,0,2.261,2.261,0,0,0,0,1.26,1.461,1.461,0,0,0,2.752,0A2.238,2.238,0,0,0,22.448,13.392Zm2.483-.895a1.2,1.2,0,0,0-1.209.29v-.239A.059.059,0,0,0,23.7,12.5a.061.061,0,0,0-.047-.017h-.514a.061.061,0,0,0-.047.017.059.059,0,0,0-.018.046v2.961a.059.059,0,0,0,.018.046.062.062,0,0,0,.047.017h.527a.062.062,0,0,0,.047-.017.059.059,0,0,0,.018-.046V14.021a1.112,1.112,0,0,1,.244-.806.816.816,0,0,1,.733-.164.086.086,0,0,0,.077-.05,3.913,3.913,0,0,0,.167-.429.061.061,0,0,0-.026-.076Zm2.56,2.9L27.375,15a.056.056,0,0,0-.077-.038,1.818,1.818,0,0,1-.617.1c-.254,0-.939-.061-.939-1.058a.924.924,0,0,1,.9-1.058,1.943,1.943,0,0,1,.63.088s.051.025.065-.038c.051-.139.09-.239.142-.4.013-.05-.026-.063-.039-.063a2.246,2.246,0,0,0-1.518,0,1.479,1.479,0,0,0-.888,1.474,1.482,1.482,0,0,0,1.583,1.613,2.476,2.476,0,0,0,.849-.152.069.069,0,0,0,.026-.076Zm2.946-2.117a1.194,1.194,0,0,0-1.222-.869,1.347,1.347,0,0,0-1.4,1,2.027,2.027,0,0,0-.09.63,1.454,1.454,0,0,0,1.634,1.575,1.956,1.956,0,0,0,1.016-.2c.026-.013.039-.038.013-.1l-.129-.366a.069.069,0,0,0-.077-.037,2,2,0,0,1-.836.151.827.827,0,0,1-.926-.895H30.45a.068.068,0,0,0,.065-.05,2.659,2.659,0,0,0-.077-.832Zm-1.274-.34a.76.76,0,0,0-.746.756H29.86c-.048-.639-.417-.757-.7-.757Z" transform="translate(0 -2.25)" fill="#fff"></path>
                </svg>