<svg width="55" height="55" viewBox="0 0 55 55" fill="none" xmlns="http://www.w3.org/2000/svg">
<circle cx="27.5" cy="27.5" r="27.5" fill="#F4F4F4"/>
<path fill-rule="evenodd" clip-rule="evenodd" d="M27.999 10C29.7095 9.99947 31.3693 10.58 32.7066 11.6464C34.0439 12.7128 34.9792 14.2019 35.3593 15.8695C35.7394 17.5372 35.5418 19.2845 34.7988 20.8251C34.0558 22.3657 32.8114 23.6082 31.2697 24.3489C32.9299 24.7011 34.5124 25.3517 35.9402 26.2691L36.3638 25.481C36.4109 25.3945 36.4805 25.3224 36.5653 25.2722C36.6501 25.2221 36.7469 25.196 36.8454 25.1965C36.9439 25.197 37.0404 25.2243 37.1247 25.2753C37.2089 25.3263 37.2778 25.3992 37.3239 25.4862L40.0001 30.4543L45.5535 31.4612C45.6498 31.4788 45.7397 31.5221 45.8135 31.5865C45.8873 31.6509 45.9424 31.7341 45.9729 31.8272C46.0034 31.9203 46.0083 32.0199 45.9869 32.1155C45.9655 32.2111 45.9187 32.2992 45.8515 32.3705L41.9479 36.4509L42.708 42.0462C42.7211 42.1436 42.7076 42.2427 42.6689 42.333C42.6302 42.4233 42.5677 42.5014 42.4882 42.5591C42.4086 42.6168 42.315 42.6518 42.2171 42.6606C42.1192 42.6693 42.0208 42.6513 41.9323 42.6086L36.8435 40.1604L33.4639 41.7882L33.8616 44.7212C33.8747 44.8186 33.8611 44.9177 33.8224 45.008C33.7837 45.0983 33.7213 45.1765 33.6418 45.2341C33.5622 45.2918 33.4685 45.3269 33.3707 45.3356C33.2728 45.3443 33.1744 45.3264 33.0859 45.2837L27.999 42.8334L22.9138 45.2837C22.8239 45.327 22.7238 45.3448 22.6245 45.335C22.5252 45.3253 22.4304 45.2885 22.3506 45.2286C22.2708 45.1687 22.209 45.088 22.1719 44.9954C22.1349 44.9027 22.124 44.8016 22.1405 44.7032L22.5357 41.7882L19.1582 40.1604L14.0701 42.6106C13.9803 42.6539 13.8802 42.6717 13.781 42.662C13.6817 42.6523 13.587 42.6155 13.5072 42.5556C13.4274 42.4958 13.3656 42.4151 13.3285 42.3226C13.2914 42.23 13.2805 42.129 13.2969 42.0306L14.0533 36.4529L10.1498 32.3725C10.0805 32.2996 10.0328 32.209 10.0119 32.1107C9.99099 32.0124 9.99774 31.9102 10.0314 31.8155C10.065 31.7208 10.1243 31.6372 10.2025 31.5741C10.2807 31.511 10.3749 31.4708 10.4746 31.458L16.0015 30.4579L18.6782 25.481C18.7252 25.3945 18.7949 25.3224 18.8797 25.2722C18.9645 25.2221 19.0613 25.196 19.1598 25.1965C19.2583 25.197 19.3548 25.2243 19.439 25.2753C19.5233 25.3263 19.5921 25.3992 19.6383 25.4862L20.0595 26.2691C21.4872 25.3515 23.0697 24.7009 24.7299 24.3489C23.1884 23.6082 21.9441 22.3659 21.2011 20.8254C20.458 19.285 20.2602 17.5379 20.6402 15.8703C21.0201 14.2027 21.9551 12.7137 23.2921 11.6472C24.6291 10.5806 26.2888 9.99984 27.999 10ZM22.6893 40.6544L22.8966 39.1259L18.9934 35.0455C18.924 34.9727 18.8762 34.8821 18.8552 34.7837C18.8343 34.6853 18.841 34.583 18.8746 34.4883C18.9083 34.3935 18.9676 34.3099 19.0459 34.2467C19.1242 34.1836 19.2185 34.1434 19.3182 34.1306L24.8451 33.1285L25.3888 32.1177L21.8909 31.4836C21.8041 31.4733 21.721 31.4423 21.6488 31.393C21.5766 31.3438 21.5173 31.2778 21.476 31.2008L19.1582 26.888L16.838 31.1996C16.7992 31.2717 16.7447 31.3341 16.6784 31.3822C16.6121 31.4303 16.5358 31.4628 16.4552 31.4772L11.6375 32.3497L15.0238 35.8904C15.0799 35.9495 15.122 36.0203 15.147 36.0978C15.1721 36.1753 15.1795 36.2574 15.1686 36.338L14.5086 41.1905C15.9787 40.482 17.4517 39.7776 18.9198 39.0655C18.9935 39.0297 19.0744 39.0112 19.1564 39.0112C19.2384 39.0112 19.3193 39.0297 19.393 39.0655L22.6893 40.6536V40.6544ZM25.9296 31.1104L27.5202 28.1541C27.5673 28.0676 27.6369 27.9954 27.7218 27.9454C27.8066 27.8953 27.9034 27.8692 28.0019 27.8697C28.1004 27.8703 28.1969 27.8976 28.2811 27.9486C28.3654 27.9997 28.4342 28.0726 28.4803 28.1597L30.0696 31.1096L33.6884 30.4535L35.4221 27.2308C31.1109 24.3749 24.8891 24.3749 20.5775 27.2308L22.3113 30.4535L25.93 31.1096L25.9296 31.1104ZM23.6694 41.5221C23.6694 41.5357 23.6662 41.5493 23.6638 41.5621L23.3518 43.8631L27.763 41.7381C27.8368 41.7026 27.9176 41.6841 27.9994 41.6841C28.0813 41.6841 28.1621 41.7026 28.2359 41.7381L32.6475 43.8643L32.3354 41.5633C32.333 41.5493 32.3314 41.5357 32.3298 41.5233L31.9914 39.0255C31.9782 38.9429 31.9842 38.8584 32.0091 38.7785C32.0339 38.6986 32.0769 38.6256 32.1346 38.5651L35.5205 35.0247L30.7341 34.1566C30.6473 34.1463 30.5644 34.1153 30.4922 34.0661C30.42 34.017 30.3606 33.9511 30.3192 33.8742L27.999 29.561L25.6788 33.873C25.6402 33.9451 25.5857 34.0075 25.5194 34.0555C25.4532 34.1036 25.3769 34.1359 25.2964 34.1502L20.4783 35.0235L23.8642 38.5639C23.9204 38.6229 23.9625 38.6937 23.9876 38.7712C24.0127 38.8487 24.02 38.9308 24.0091 39.0115L23.6694 41.5221ZM36.6218 27.2996C36.6158 27.312 36.609 27.324 36.6022 27.336L34.522 31.1996C34.4833 31.2717 34.4288 31.3341 34.3626 31.3822C34.2964 31.4303 34.2202 31.4627 34.1396 31.4772L30.6101 32.1173L31.1537 33.1277L36.7078 34.1342C36.8042 34.1519 36.894 34.1953 36.9679 34.2598C37.0417 34.3242 37.0967 34.4074 37.1272 34.5005C37.1577 34.5936 37.1626 34.6933 37.1412 34.7889C37.1199 34.8845 37.0731 34.9726 37.0059 35.0439L33.1027 39.1243L33.3099 40.6528C34.4092 40.1245 35.508 39.5951 36.6062 39.0647C36.68 39.0289 36.7609 39.0104 36.8429 39.0104C36.9248 39.0104 37.0057 39.0289 37.0795 39.0647L41.4911 41.1905L40.835 36.35C40.8218 36.2675 40.8278 36.183 40.8526 36.1031C40.8774 36.0233 40.9202 35.9502 40.9778 35.8896L44.3642 32.3497L39.5777 31.4824C39.4909 31.4721 39.4079 31.4411 39.3356 31.3918C39.2634 31.3426 39.2041 31.2766 39.1629 31.1996L36.8427 26.888L36.621 27.2996H36.6218ZM27.9954 23.9997C29.2721 24.0006 30.5204 23.6228 31.5824 22.9141C32.6444 22.2054 33.4723 21.1977 33.9615 20.0185C34.4507 18.8392 34.5791 17.5413 34.3306 16.289C34.082 15.0368 33.4677 13.8863 32.5652 12.9833C31.6627 12.0802 30.5127 11.465 29.2606 11.2156C28.0085 10.9662 26.7105 11.0938 25.5309 11.5822C24.3513 12.0706 23.3431 12.8978 22.6337 13.9593C21.9243 15.0208 21.5456 16.2688 21.5456 17.5455C21.5453 18.3928 21.7118 19.2319 22.0358 20.0148C22.3597 20.7978 22.8347 21.5092 23.4336 22.1086C24.0326 22.7079 24.7437 23.1834 25.5264 23.5079C26.3092 23.8324 27.1481 23.9995 27.9954 23.9997Z" fill="#F48102"/>
</svg>
