<?xml version="1.0" encoding="UTF-8"?><svg id="Layer_1" xmlns="http://www.w3.org/2000/svg" viewBox="0 0 60 60"><defs><style>.cls-1{fill:#010101;}.cls-1,.cls-2,.cls-3{stroke-width:0px;}.cls-2{fill:#fff2e9;}.cls-3{fill:#f58220;}</style></defs><circle class="cls-2" cx="30" cy="30" r="30"/><path class="cls-3" d="M36.75,41.54l-1.22-2.74c2.86-1.28,5.02-3.85,5.77-6.89l2.91.72c-.97,3.92-3.76,7.25-7.46,8.9ZM25.14,41.14c-3.58-1.9-6.14-5.41-6.84-9.39l2.95-.52c.54,3.08,2.52,5.79,5.29,7.26l-1.41,2.65ZM39.42,23.12c-1.96-2.5-4.9-3.94-8.08-3.94-2.9,0-5.69,1.24-7.63,3.4l-2.23-2c2.51-2.8,6.1-4.4,9.86-4.4,4.1,0,7.91,1.85,10.44,5.09l-2.36,1.85Z"/><path class="cls-3" d="M31.35,47.77c-.16,0-.32,0-.47,0l.08-3c3.25.08,6.46-.87,9.15-2.74l1.71,2.46c-3.08,2.15-6.7,3.28-10.47,3.28ZM20.12,43.93c-3.07-2.38-5.34-5.74-6.4-9.46l2.88-.82c.89,3.11,2.79,5.92,5.36,7.91l-1.84,2.37ZM48.7,35.37l-2.84-.97c.54-1.59.82-3.26.82-4.96,0-1.57-.24-3.11-.7-4.59l2.86-.9c.55,1.77.83,3.61.84,5.49,0,2.03-.33,4.03-.98,5.94ZM16.97,24.1l-2.81-1.04c1.35-3.62,3.87-6.8,7.11-8.94l1.65,2.5c-2.71,1.79-4.83,4.44-5.95,7.48ZM40.42,17.08c-2.64-1.95-5.78-2.97-9.08-2.97v-3c3.94,0,7.69,1.23,10.85,3.56l-1.78,2.42Z"/><path class="cls-1" d="M31.35,35.78c-3.5,0-6.34-2.85-6.34-6.34s2.85-6.34,6.34-6.34,6.34,2.85,6.34,6.34-2.85,6.34-6.34,6.34ZM31.35,26.09c-1.84,0-3.34,1.5-3.34,3.34s1.5,3.34,3.34,3.34,3.34-1.5,3.34-3.34-1.5-3.34-3.34-3.34Z"/><path class="cls-1" d="M51.11,49.2h-9.04v-3h3.92l-12.29-12.29,2.12-2.12,12.29,12.29v-3.92h3v9.04ZM20.63,49.2h-9.04v-9.04h3v3.92l12.29-12.29,2.12,2.12-12.29,12.29h3.92v3ZM35.82,27.08l-2.12-2.12,12.29-12.29h-3.92v-3h9.04v9.04h-3v-3.92l-12.29,12.29ZM26.87,27.08l-12.29-12.29v3.92h-3v-9.04h9.04v3h-3.92l12.29,12.29-2.12,2.12Z"/></svg>