<svg xmlns="http://www.w3.org/2000/svg" width="55" height="55" viewBox="0 0 55 55">
  <g id="Group_2478" data-name="Group 2478" transform="translate(-1093 -3083)">
    <circle id="Ellipse_17" data-name="Ellipse 17" cx="27.5" cy="27.5" r="27.5" transform="translate(1093 3083)" fill="#f3f3f3"/>
    <g id="seo-optimizations" transform="translate(1100.4 3091.5)">
      <path id="Path_7054" data-name="Path 7054" d="M18.223,23.428a2.338,2.338,0,0,0,.329-.987,1.754,1.754,0,0,0-.247-.987,1.463,1.463,0,0,0-.658-.576,3.533,3.533,0,0,0-1.316-.411,3.428,3.428,0,0,1-1.151-.411.623.623,0,0,1-.164-.329c0-.164.082-.247.164-.411A1.228,1.228,0,0,1,16,19.069a1.642,1.642,0,0,1,.74.164,1.239,1.239,0,0,1,.329.658l1.234-.082a1.789,1.789,0,0,0-.576-1.316A2.7,2.7,0,0,0,16,18a2.388,2.388,0,0,0-1.151.247,1.791,1.791,0,0,0-.74.576,1.587,1.587,0,0,0-.247.822,1.48,1.48,0,0,0,.576,1.234,3.224,3.224,0,0,0,1.4.576,4.038,4.038,0,0,0,.987.247.879.879,0,0,1,.411.247.553.553,0,0,1-.164.9,1.323,1.323,0,0,1-.9.247,1.477,1.477,0,0,1-.9-.247,1.337,1.337,0,0,1-.411-.9L13.7,22.03a2.546,2.546,0,0,0,.74,1.563,2.7,2.7,0,0,0,1.727.493,3.132,3.132,0,0,0,1.316-.247c.247.164.493-.082.74-.411Zm5.922-.247H20.773V21.536h2.961V20.55H20.773V19.234H23.98V18.164H19.539V24.25h4.606Zm3.7,1.151a2.79,2.79,0,0,0,2.138-.822,3.4,3.4,0,0,0,.822-2.3,3.047,3.047,0,0,0-.822-2.3,2.675,2.675,0,0,0-2.138-.822,3.409,3.409,0,0,0-1.316.247,1.658,1.658,0,0,0-.74.576,2.954,2.954,0,0,0-.576.822,4.145,4.145,0,0,0-.247,1.563,3.047,3.047,0,0,0,.822,2.3A2.615,2.615,0,0,0,27.846,24.333Zm-1.234-4.688a1.789,1.789,0,0,1,2.467,0,2.094,2.094,0,0,1,.493,1.563,2.094,2.094,0,0,1-.493,1.563,1.789,1.789,0,0,1-2.467,0,2.226,2.226,0,0,1-.493-1.563,2.226,2.226,0,0,1,.493-1.563Z" transform="translate(-1.971 -3.107)" fill="#f48120"/>
      <path id="Path_7055" data-name="Path 7055" d="M25.628,29.121a12.259,12.259,0,0,0,2.714-20.15A11.924,11.924,0,0,0,18.8,5.928,12.474,12.474,0,0,0,8.028,16.373a12.256,12.256,0,0,0,6.744,12.748.452.452,0,0,1,.247.411V32h-.576v1.645h.576v1.069a1.737,1.737,0,0,0,1.727,1.727h.411a3.058,3.058,0,0,0,3.125,2.714,3.255,3.255,0,0,0,3.125-2.714h.411a1.737,1.737,0,0,0,1.727-1.727V33.644h.411V32h-.576V29.532a.452.452,0,0,1,.247-.411ZM9.673,16.537a10.645,10.645,0,0,1,9.293-8.964A6.225,6.225,0,0,1,20.2,7.491,10.3,10.3,0,0,1,27.273,10.2a10.722,10.722,0,0,1,3.536,7.9,10.6,10.6,0,0,1-5.922,9.54A2.126,2.126,0,0,0,23.819,29.2H16.664a2.126,2.126,0,0,0-1.069-1.563,10.657,10.657,0,0,1-5.922-11.1ZM20.2,37.509a1.506,1.506,0,0,1-1.4-1.069H21.68A1.7,1.7,0,0,1,20.2,37.509Zm3.536-3.865v1.069a.081.081,0,0,1-.082.082H16.746a.081.081,0,0,1-.082-.082V33.644h.576V32h-.576V30.848h7.073V32h-.576v1.645ZM19.378.5h1.645V4.2H19.378ZM34.1,17.278h3.7v1.645H34.1Zm-31.5,0H6.3v1.645H2.6ZM29.418,7.7l2.85-2.85L33.43,6.014l-2.85,2.85ZM6.967,30.186l2.849-2.85L10.98,28.5l-2.85,2.85Zm22.469-1.7L30.6,27.319l2.849,2.85-1.163,1.163ZM6.948,6.031,8.111,4.868l2.85,2.85L9.8,8.881Z" fill="#f48120"/>
      <path id="Path_7056" data-name="Path 7056" d="M22.3,38.8h2.8v1.645H22.3Z" transform="translate(-3.498 -6.801)" fill="#f48120"/>
    </g>
  </g>
</svg>
