<svg xmlns="http://www.w3.org/2000/svg" width="55" height="55" viewBox="0 0 55 55">
  <g id="Group_2479" data-name="Group 2479" transform="translate(-847 -3083)">
    <path id="Path_7057" data-name="Path 7057" d="M27.5,0C37.888,0,51.754,14.527,51.754,14.527S55,22.7,55,27.5A27.5,27.5,0,1,1,27.5,0Z" transform="translate(847 3083)" fill="#f3f3f3"/>
    <g id="Layer_x0020_1" transform="translate(858 3092)">
      <g id="Group_8324" data-name="Group 8324">
        <path id="Path_7039" data-name="Path 7039" d="M18.125,32.362H13.557a.852.852,0,0,1-.85-.85V29.748a1.264,1.264,0,0,0-2.529,0v1.764a.852.852,0,0,1-.85.85H4.738a.852.852,0,0,1-.85-.85V14.407H2.975a2.964,2.964,0,1,1,0-5.928h.914V4.738a.852.852,0,0,1,.85-.85h3.74V2.975a2.964,2.964,0,1,1,5.928,0v.914h8.308a.852.852,0,0,1,.85.85V6.523a1.264,1.264,0,0,0,2.529,0V4.738a.852.852,0,0,1,.85-.85h4.568a.839.839,0,0,1,.85.85V21.865H33.3a2.964,2.964,0,0,1,0,5.928h-.935v3.718a.839.839,0,0,1-.85.85H27.793V33.3a2.964,2.964,0,0,1-5.928,0v-.935ZM5.588,18.975V30.662h2.89v-.914a2.964,2.964,0,1,1,5.928,0v.914h2.869V26.943a.852.852,0,0,1,.85-.85H19.91a1.264,1.264,0,0,0,0-2.529H18.125a.852.852,0,0,1-.85-.85v-3.74H14.407v.935a2.964,2.964,0,0,1-5.928,0v-.935Zm11.687-1.7V14.407h-.914a2.964,2.964,0,1,1,0-5.928h.914V5.588H13.557a.852.852,0,0,1-.85-.85V2.975a1.264,1.264,0,0,0-2.529,0V4.738a.852.852,0,0,1-.85.85H5.588v3.74a.852.852,0,0,1-.85.85H2.975a1.264,1.264,0,0,0,0,2.529H4.738a.852.852,0,0,1,.85.85v3.718h3.74a.852.852,0,0,1,.85.85V19.91a1.264,1.264,0,0,0,2.529,0V18.125a.852.852,0,0,1,.85-.85Zm1.594-7.522-.127.17-.021.021-.021.021h0c-.021.021-.021.021-.042.021h0l-.021.021-.021.021h0l-.021.021h-.021l-.021.021h-.021l-.021.021-.064.021-.042.021H18.38a15.663,15.663,0,0,1-2.019.042,1.264,1.264,0,0,0,0,2.529h1.764a.852.852,0,0,1,.85.85v3.718h3.74a.852.852,0,0,1,.85.85V19.91a1.264,1.264,0,0,0,2.529,0V18.125a.852.852,0,0,1,.85-.85h3.718V5.588H27.793v.935a2.964,2.964,0,0,1-5.928,0V5.588h-2.89c0,.829.064,3.315-.021,3.931Zm.106,9.222v2.89h.935a2.964,2.964,0,0,1,0,5.928h-.935v2.869h3.74a.852.852,0,0,1,.85.85V33.3a1.264,1.264,0,0,0,2.529,0V31.512a.852.852,0,0,1,.85-.85h3.718V26.943a.852.852,0,0,1,.85-.85H33.3a1.264,1.264,0,0,0,0-2.529H31.512a.852.852,0,0,1-.85-.85v-3.74H27.793v.935a2.964,2.964,0,0,1-5.928,0v-.935ZM18.762,9.9l-.021.021Zm-.064.064c-.021.021-.021.021-.042.021Z" fill="#f48120" fill-rule="evenodd"/>
      </g>
    </g>
  </g>
</svg>
