<svg xmlns="http://www.w3.org/2000/svg" width="55" height="55" viewBox="0 0 55 55">
  <g id="Group_2477" data-name="Group 2477" transform="translate(-1296 -3080)">
    <g id="Group_8054" data-name="Group 8054">
      <circle id="Ellipse_16" data-name="Ellipse 16" cx="27.5" cy="27.5" r="27.5" transform="translate(1296 3080)" fill="#f3f3f3"/>
      <g id="store-migration" transform="translate(1305.281 3087.007)">
        <path id="Path_7042" data-name="Path 7042" d="M31.195,22.6H34.61V38.824H9.1V22.6h3.256" transform="translate(-3.311 -9.373)" fill="none" stroke="#f48120" stroke-linecap="round" stroke-linejoin="round" stroke-miterlimit="10" stroke-width="1"/>
        <path id="Path_7043" data-name="Path 7043" d="M22.067,31.586v.427a1.013,1.013,0,0,1-1.014,1.014H16.036a1.013,1.013,0,0,1-1.014-1.014v-.427H2v1.281a2.164,2.164,0,0,0,2.188,2.188H32.9a2.164,2.164,0,0,0,2.188-2.188V31.586ZM14.648,14.4H11.713A3.291,3.291,0,0,1,8.4,11.092a3.326,3.326,0,0,1,3.309-3.309h0A4.587,4.587,0,0,1,11.5,6.5a4,4,0,1,1,8.005,0V5.969A3.1,3.1,0,0,1,22.12,4.581,3.155,3.155,0,0,1,25.269,7.73" fill="none" stroke="#f48120" stroke-linecap="round" stroke-linejoin="round" stroke-miterlimit="10" stroke-width="1"/>
        <path id="Path_7044" data-name="Path 7044" d="M41.9,12.567a3.435,3.435,0,0,1,1.281-.267,3.309,3.309,0,1,1,0,6.618H40.3" transform="translate(-17.86 -4.57)" fill="none" stroke="#f48120" stroke-linecap="round" stroke-linejoin="round" stroke-miterlimit="10" stroke-width="1"/>
        <path id="Path_7045" data-name="Path 7045" d="M33.692,17.649a4.256,4.256,0,0,0-.48-1.708.933.933,0,0,1-1.067-.16.977.977,0,0,1,.053-1.067,3.849,3.849,0,0,0-1.6-.854.873.873,0,0,1-.854.64c-.374-.053-.587-.374-.694-.8a4.256,4.256,0,0,0-1.708.48.933.933,0,0,1-.16,1.067.977.977,0,0,1-1.067-.053,3.849,3.849,0,0,0-.854,1.6.873.873,0,0,1,.64.854c-.053.374-.374.587-.8.694a4.256,4.256,0,0,0,.48,1.708.933.933,0,0,1,1.067.16.977.977,0,0,1-.053,1.067,3.849,3.849,0,0,0,1.6.854.873.873,0,0,1,.854-.64c.374.053.587.374.694.8a4.256,4.256,0,0,0,1.708-.48.933.933,0,0,1,.16-1.067.977.977,0,0,1,1.067.053,3.849,3.849,0,0,0,.854-1.6.873.873,0,0,1-.64-.854C32.892,17.97,33.265,17.7,33.692,17.649Z" transform="translate(-10.772 -5.223)" fill="none" stroke="#f48120" stroke-linecap="round" stroke-linejoin="round" stroke-miterlimit="10" stroke-width="1"/>
        <path id="Path_7046" data-name="Path 7046" d="M33.36,20.312a1.745,1.745,0,1,1-1.548-1.921A1.741,1.741,0,0,1,33.36,20.312Z" transform="translate(-13.001 -7.405)" fill="none" stroke="#f48120" stroke-linecap="round" stroke-linejoin="round" stroke-miterlimit="10" stroke-width="1"/>
        <path id="Path_7047" data-name="Path 7047" d="M45.929,32.7,43.1,36.116h1.548v4.27h2.615v-4.27h1.494Z" transform="translate(-19.165 -14.083)" fill="none" stroke="#f48120" stroke-linecap="round" stroke-linejoin="round" stroke-miterlimit="10" stroke-width="1"/>
        <path id="Path_7048" data-name="Path 7048" d="M15.129,40.385l2.829-3.416H16.409V32.7H13.794v4.27H12.3Z" transform="translate(-4.803 -14.083)" fill="none" stroke="#f48120" stroke-linecap="round" stroke-linejoin="round" stroke-miterlimit="10" stroke-width="1"/>
        <path id="Path_7049" data-name="Path 7049" d="M33.411,35.228v6.191H26.9V33.2h4.483Z" transform="translate(-11.611 -14.316)" fill="none" stroke="#f48120" stroke-linecap="round" stroke-linejoin="round" stroke-miterlimit="10" stroke-width="1"/>
        <path id="Path_7050" data-name="Path 7050" d="M30.4,18.6h2.562a1.913,1.913,0,0,1,1.921,1.921V39.094H23.939m-8.005,0H5.1V20.521A1.913,1.913,0,0,1,7.021,18.6H9.583" transform="translate(-1.446 -7.508)" fill="none" stroke="#f48120" stroke-linecap="round" stroke-linejoin="round" stroke-miterlimit="10" stroke-width="1"/>
        <line id="Line_51" data-name="Line 51" x2="1.067" transform="translate(17.477 20.912)" fill="none" stroke="#f48120" stroke-linecap="round" stroke-linejoin="round" stroke-miterlimit="10" stroke-width="1"/>
        <line id="Line_52" data-name="Line 52" x2="2.135" transform="translate(17.477 22.994)" fill="none" stroke="#f48120" stroke-linecap="round" stroke-linejoin="round" stroke-miterlimit="10" stroke-width="1"/>
        <line id="Line_53" data-name="Line 53" x2="2.135" transform="translate(17.477 25.075)" fill="none" stroke="#f48120" stroke-linecap="round" stroke-linejoin="round" stroke-miterlimit="10" stroke-width="1"/>
      </g>
    </g>
  </g>
</svg>
