<svg xmlns="http://www.w3.org/2000/svg" width="20.841" height="20.84" viewBox="0 0 20.841 20.84">
  <path id="Icon_awesome-linkedin-in" data-name="Icon awesome-linkedin-in" d="M4.665,20.841H.344V6.927H4.665ZM2.5,5.029A2.514,2.514,0,1,1,5,2.5,2.523,2.523,0,0,1,2.5,5.029ZM20.836,20.841H16.525V14.068c0-1.614-.033-3.684-2.246-3.684-2.246,0-2.591,1.754-2.591,3.568v6.889H7.371V6.927h4.144v1.9h.06a4.54,4.54,0,0,1,4.088-2.247c4.373,0,5.177,2.88,5.177,6.62v7.643Z" transform="translate(0 -0.001)" fill="#fff"/>
</svg>
