<svg xmlns="http://www.w3.org/2000/svg" width="24.369" height="17.79" viewBox="0 0 24.369 17.79">
  <path id="Icon_awesome-youtube" data-name="Icon awesome-youtube" d="M24.91,7.284a3.124,3.124,0,0,0-2.155-2.251c-1.9-.532-9.521-.532-9.521-.532s-7.62,0-9.521.532A3.124,3.124,0,0,0,1.559,7.284a34.6,34.6,0,0,0-.509,6.13,34.6,34.6,0,0,0,.509,6.13,3.075,3.075,0,0,0,2.154,2.216c1.9.532,9.521.532,9.521.532s7.62,0,9.521-.532a3.075,3.075,0,0,0,2.155-2.216,34.6,34.6,0,0,0,.509-6.13A34.6,34.6,0,0,0,24.91,7.284ZM10.742,17.175V9.651l6.369,3.762-6.369,3.762Z" transform="translate(-1.05 -4.5)" fill="#fff"/>
</svg>
