<svg xmlns="http://www.w3.org/2000/svg" xmlns:xlink="http://www.w3.org/1999/xlink" width="25" height="25" viewBox="0 0 25 25">
  <defs>
    <clipPath id="clip-path">
      <rect id="Rectangle_1295" data-name="Rectangle 1295" width="25" height="25" transform="translate(402 3819)" fill="none" stroke="#707070" stroke-width="1"/>
    </clipPath>
  </defs>
  <g id="Mask_Group_232" data-name="Mask Group 232" transform="translate(-402 -3819)" clip-path="url(#clip-path)">
    <path id="Icon_awesome-shield-alt" data-name="Icon awesome-shield-alt" d="M20.133,3.532,12.032.157a2.032,2.032,0,0,0-1.557,0l-8.1,3.375A2.023,2.023,0,0,0,1.125,5.4c0,8.375,4.831,14.164,9.346,16.046a2.032,2.032,0,0,0,1.557,0c3.616-1.506,9.35-6.709,9.35-16.046A2.026,2.026,0,0,0,20.133,3.532Zm-8.877,15.3,0-16.076,7.422,3.093c-.139,6.388-3.464,11.017-7.418,12.983Z" transform="translate(403.534 3820.758)"/>
  </g>
</svg>
