<svg xmlns="http://www.w3.org/2000/svg" xmlns:xlink="http://www.w3.org/1999/xlink" width="25" height="25" viewBox="0 0 25 25">
  <defs>
    <clipPath id="clip-path">
      <rect id="Rectangle_1295" data-name="Rectangle 1295" width="25" height="25" fill="none" stroke="#707070" stroke-width="1"/>
    </clipPath>
  </defs>
  <g id="Mask_Group_232" data-name="Mask Group 232" clip-path="url(#clip-path)">
    <g id="Icon_feather-settings" data-name="Icon feather-settings" transform="translate(1.285 1.285)">
      <path id="Path_7189" data-name="Path 7189" d="M18.8,16.15a2.65,2.65,0,1,1-2.65-2.65A2.65,2.65,0,0,1,18.8,16.15Z" transform="translate(-4.934 -4.934)" fill="none" stroke="#000" stroke-linecap="round" stroke-linejoin="round" stroke-width="2"/>
      <path id="Path_7190" data-name="Path 7190" d="M17.751,13.865a1.457,1.457,0,0,0,.291,1.607l.053.053a1.767,1.767,0,1,1-2.5,2.5l-.053-.053a1.469,1.469,0,0,0-2.491,1.042v.15a1.766,1.766,0,1,1-3.533,0v-.079a1.457,1.457,0,0,0-.954-1.334,1.457,1.457,0,0,0-1.607.291l-.053.053a1.767,1.767,0,1,1-2.5-2.5l.053-.053a1.469,1.469,0,0,0-1.042-2.491h-.15a1.766,1.766,0,1,1,0-3.533h.079A1.457,1.457,0,0,0,4.68,8.566a1.457,1.457,0,0,0-.291-1.607l-.053-.053a1.767,1.767,0,1,1,2.5-2.5l.053.053A1.457,1.457,0,0,0,8.5,4.75h.071a1.457,1.457,0,0,0,.883-1.334v-.15a1.766,1.766,0,1,1,3.533,0v.079a1.469,1.469,0,0,0,2.491,1.042l.053-.053a1.767,1.767,0,1,1,2.5,2.5l-.053.053A1.457,1.457,0,0,0,17.68,8.5v.071a1.457,1.457,0,0,0,1.334.883h.15a1.766,1.766,0,0,1,0,3.533h-.079a1.457,1.457,0,0,0-1.334.883Z" transform="translate(0 0)" fill="none" stroke="#000" stroke-linecap="round" stroke-linejoin="round" stroke-width="2"/>
    </g>
  </g>
</svg>
