<svg width="75" height="75" viewBox="0 0 75 75" fill="none" xmlns="http://www.w3.org/2000/svg">
<path d="M2.33387 61.9582C1.47584 63.1677 0.820377 64.4967 0.385414 65.8997C-0.150851 67.3653 -0.127024 68.9675 0.453937 70.4189C1.58013 72.3968 3.83839 73.5323 6.18306 73.3046H19.9893C22.0331 73.4583 24.0203 72.6301 25.2954 71.0962C26.5675 72.6302 28.5547 73.4583 30.5955 73.3046H44.3926C46.4364 73.4583 48.4266 72.6301 49.6987 71.0962C50.9768 72.6302 52.9669 73.4583 55.0107 73.3046H68.8047C71.206 73.5237 73.5031 72.3199 74.6054 70.2709C75.1178 68.8963 75.1327 67.3966 74.6411 66.0135C73.6818 62.7151 71.4503 59.8863 68.3996 58.0935C70.1841 55.4526 70.4761 52.1371 69.1831 49.2512C68.1165 47.1994 66.1442 45.711 63.8084 45.1931V45.0451C63.8055 41.3597 60.6772 38.3744 56.8191 38.3687H39.4053V34.2393H45.5723C48.197 34.5239 50.7413 33.2518 51.9956 31.0321C53.5061 27.9016 51.3223 23.5048 49.788 21.3986C48.4325 19.5403 46.6926 17.9694 44.6726 16.7827C44.7203 16.7058 44.7769 16.6375 44.8246 16.5578L44.8276 16.5607C46.8595 13.5526 47.1931 9.77334 45.7154 6.48064C44.2079 3.48678 41.0111 1.60854 37.534 1.66828C34.0453 1.60567 30.8336 3.47257 29.2901 6.46067C27.7975 9.75899 28.1311 13.5497 30.1719 16.5662C30.2196 16.6431 30.2762 16.7142 30.3268 16.791V16.7882C28.2949 17.9834 26.5402 19.5601 25.1697 21.427C24.1835 22.8243 23.4298 24.361 22.9323 25.9775C22.3364 27.6195 22.3662 29.4124 23.0127 31.0374C24.267 33.2515 26.8054 34.5178 29.4271 34.2333H35.6032V38.3626H18.1833C14.3221 38.3683 11.1968 41.3536 11.1909 45.0419V45.224C8.88199 45.7249 6.92454 47.1819 5.85204 49.1996C4.53518 52.0996 4.82119 55.4321 6.61473 58.0871C4.93742 59.0973 3.4835 60.4121 2.33351 61.9574L2.33387 61.9582ZM32.6929 8.10317C33.5837 6.38141 35.4248 5.29713 37.4359 5.31141H37.5342C39.5541 5.28295 41.4132 6.37005 42.301 8.10317L42.3279 8.1487C43.1918 10.3258 42.8999 12.7675 41.5443 14.7055C40.7846 16.2508 39.301 17.3579 37.5461 17.6823C35.7556 17.3892 34.2302 16.2764 33.4556 14.7084C32.0911 12.7561 31.808 10.2916 32.6929 8.10317ZM26.5258 29.6577C26.2249 28.8267 26.2368 27.9189 26.5586 27.0965C27.4494 24.0372 29.5527 21.4332 32.4188 19.831C32.5797 19.7399 32.7495 19.6687 32.9283 19.6175C34.2331 20.6563 35.8568 21.2596 37.5521 21.3336C39.2175 21.2482 40.8054 20.6449 42.0806 19.6204C42.2742 19.6773 42.4619 19.757 42.6317 19.8623C44.2226 20.79 45.5901 22.0222 46.6567 23.4793C48.0719 25.1811 48.7452 27.3383 48.5306 29.5011C48.2029 30.1727 47.5921 30.5911 45.5633 30.5911H29.4156C27.3956 30.5911 26.785 30.1756 26.5258 29.6577ZM46.6716 68.891C46.472 69.3008 46.1502 69.6679 44.3835 69.6679H30.5955C28.8467 69.6679 28.513 69.2837 28.3879 69.0475H28.3909C28.1525 68.3901 28.1645 67.6729 28.4266 67.0213C28.7454 65.9569 29.234 64.9438 29.8775 64.0217C30.7832 62.7895 31.9511 61.7507 33.3007 60.971C33.3901 60.9368 33.4824 60.9112 33.5778 60.8913C34.7129 61.7451 36.0982 62.2346 37.5402 62.2915C38.9494 62.226 40.302 61.7394 41.4073 60.8998C41.5175 60.9197 41.6277 60.951 41.732 60.9937C43.0578 61.7678 44.2048 62.7952 45.0926 64.0131C46.2485 65.3877 46.8146 67.1322 46.6716 68.8881L46.6716 68.891ZM37.4537 48.6143H37.5341V48.6114C39.1548 48.5744 40.6474 49.4481 41.3476 50.8426L41.3714 50.8881V50.891C42.0656 52.6668 41.8213 54.6589 40.71 56.2326C40.1112 57.4677 38.9373 58.3613 37.5431 58.643C36.11 58.3955 34.8945 57.4962 34.2838 56.2354C33.1635 54.6418 32.9253 52.6298 33.6462 50.8397C34.3612 49.4595 35.8419 48.5944 37.4537 48.6114L37.4537 48.6143ZM71.0121 67.1265C71.2267 67.6928 71.2505 68.3104 71.0777 68.8881C70.887 69.2808 70.5533 69.665 68.8045 69.665L55.0104 69.6679C53.2497 69.6679 52.9249 69.3008 52.7223 68.8966V68.8938C52.5793 67.1379 53.1394 65.3934 54.2924 64.0189C55.1862 62.7951 56.3362 61.7649 57.6679 60.988C57.7692 60.9481 57.8735 60.9168 57.9808 60.8969C59.0831 61.7393 60.4387 62.2259 61.8508 62.2914H61.9432H61.9402C63.3524 62.226 64.7079 61.7365 65.8132 60.8941C65.9116 60.914 66.0069 60.9396 66.0992 60.9766C67.434 61.7478 68.5869 62.7752 69.4867 63.9903C70.163 64.9522 70.6785 66.0109 71.0121 67.1265ZM65.7776 50.891C66.4717 52.6697 66.2244 54.659 65.1132 56.2327C64.5024 57.4763 63.3107 58.3699 61.9016 58.6403C60.4923 58.3699 59.2976 57.4763 58.687 56.2298C57.5667 54.639 57.3314 52.627 58.0524 50.837C58.7674 49.4539 60.2511 48.5859 61.8658 48.6058H61.9433C63.5878 48.5546 65.1013 49.4568 65.7776 50.891ZM59.9978 45.0457V45.2307L59.9948 45.2278C57.6889 45.7344 55.7345 47.1886 54.656 49.2006C53.3421 52.0977 53.6281 55.4302 55.4187 58.0822C53.7622 59.0925 52.3232 60.3988 51.1881 61.9355C50.6101 62.7523 50.1185 63.626 49.7193 64.5366C48.5812 61.8643 46.5851 59.6048 44.0199 58.0822C45.7985 55.4327 46.0845 52.1145 44.7826 49.2232C43.7131 47.1827 41.7467 45.7029 39.42 45.1849V42.0061H56.8246C58.5764 42.0089 59.9945 43.3692 59.9945 45.0426L59.9978 45.0457ZM18.1839 42.0063H35.5947V45.2278C33.2887 45.7315 31.3314 47.1886 30.2558 49.2006C28.939 52.1005 29.225 55.433 31.0185 58.088C29.3471 59.1011 27.9022 60.4131 26.7582 61.9556C26.1921 62.7837 25.7154 63.6631 25.3371 64.5823C24.9349 63.6517 24.4343 62.761 23.8385 61.9271C22.7064 60.3932 21.2704 59.087 19.6139 58.0796C21.3925 55.433 21.6785 52.1118 20.3766 49.2206C19.301 47.1858 17.3377 45.7088 15.0139 45.188V45.04C15.0139 43.3666 16.4322 42.012 18.1839 42.0063ZM9.24287 50.8427C9.96088 49.4597 11.4416 48.5945 13.0563 48.6116H13.1398C14.7575 48.5831 16.2441 49.4539 16.9532 50.8427L16.9771 50.8883L16.9741 50.8911C17.6712 52.6669 17.4239 54.659 16.3127 56.2328C15.7168 57.4678 14.54 58.3615 13.1457 58.6432C11.7157 58.3956 10.5001 57.4963 9.88646 56.2356C8.76621 54.6448 8.52483 52.6327 9.24287 50.8427ZM8.90025 60.9708C8.99261 60.9366 9.08497 60.911 9.18031 60.8911C10.3154 61.7449 11.7008 62.2344 13.1427 62.2913C14.552 62.2258 15.9045 61.7392 17.0068 60.8996C17.12 60.9196 17.2273 60.9509 17.3346 60.9936C18.6603 61.7676 19.8044 62.795 20.6951 64.013C21.8451 65.3904 22.4082 67.132 22.2682 68.8879C22.0775 69.2806 21.7438 69.6648 19.9801 69.6648L6.18909 69.6677C4.44024 69.6677 4.11854 69.3006 3.98445 69.0473H3.98743C3.74909 68.3899 3.76101 67.6728 4.02318 67.0211C4.33899 65.9568 4.83057 64.9436 5.47108 64.0215C6.37975 62.7893 7.54769 61.7506 8.90025 60.9708Z" fill="white"/>
</svg>
