<svg width="50" height="50" viewBox="0 0 50 50" fill="none" xmlns="http://www.w3.org/2000/svg">
<path d="M29.1667 6.81025C29.1667 5.34984 27.9833 4.1665 26.5229 4.1665H23.4792C22.0167 4.1665 20.8333 5.34984 20.8333 6.81025C20.8333 8.01442 20.0083 9.04775 18.8854 9.48942C18.7076 9.56164 18.532 9.63525 18.3583 9.71025C17.2521 10.1894 15.9375 10.0436 15.0833 9.1915C14.5873 8.69662 13.9153 8.41869 13.2146 8.41869C12.5139 8.41869 11.8419 8.69662 11.3458 9.1915L9.19167 11.3457C8.69679 11.8417 8.41886 12.5137 8.41886 13.2144C8.41886 13.9151 8.69679 14.5872 9.19167 15.0832C10.0458 15.9373 10.1917 17.2498 9.70834 18.3582C9.63242 18.5326 9.55949 18.7083 9.48959 18.8853C9.04792 20.0082 8.01459 20.8332 6.81042 20.8332C5.35001 20.8332 4.16667 22.0165 4.16667 23.4769V26.5228C4.16667 27.9832 5.35001 29.1665 6.81042 29.1665C8.01459 29.1665 9.04792 29.9915 9.48959 31.1144C9.56181 31.2922 9.63473 31.4679 9.70834 31.6415C10.1896 32.7478 10.0438 34.0623 9.19167 34.9165C8.69679 35.4125 8.41886 36.0846 8.41886 36.7853C8.41886 37.4859 8.69679 38.158 9.19167 38.654L11.3458 40.8082C11.8419 41.3031 12.5139 41.581 13.2146 41.581C13.9153 41.581 14.5873 41.3031 15.0833 40.8082C15.9375 39.954 17.25 39.8082 18.3583 40.2894C18.532 40.3658 18.7076 40.4394 18.8854 40.5103C20.0083 40.9519 20.8333 41.9853 20.8333 43.1894C20.8333 44.6498 22.0167 45.8332 23.4771 45.8332H26.5229C27.9833 45.8332 29.1667 44.6498 29.1667 43.1894C29.1667 41.9853 29.9917 40.9519 31.1146 40.5082C31.2924 40.4387 31.4681 40.3665 31.6417 40.2915C32.7479 39.8082 34.0625 39.9561 34.9146 40.8082C35.4107 41.3037 36.0832 41.582 36.7844 41.582C37.4856 41.582 38.1581 41.3037 38.6542 40.8082L40.8083 38.654C41.3032 38.158 41.5812 37.4859 41.5812 36.7853C41.5812 36.0846 41.3032 35.4125 40.8083 34.9165C39.9542 34.0623 39.8083 32.7498 40.2896 31.6415C40.366 31.4679 40.4396 31.2922 40.5104 31.1144C40.9521 29.9915 41.9854 29.1665 43.1896 29.1665C44.65 29.1665 45.8333 27.9832 45.8333 26.5228V23.479C45.8333 22.0186 44.65 20.8353 43.1896 20.8353C41.9854 20.8353 40.9521 20.0103 40.5083 18.8873C40.4384 18.7104 40.3655 18.5347 40.2896 18.3603C39.8104 17.254 39.9563 15.9394 40.8083 15.0853C41.3032 14.5892 41.5812 13.9172 41.5812 13.2165C41.5812 12.5158 41.3032 11.8438 40.8083 11.3478L38.6542 9.19359C38.1582 8.6987 37.4861 8.42077 36.7854 8.42077C36.0848 8.42077 35.4127 8.6987 34.9167 9.19359C34.0625 10.0478 32.75 10.1936 31.6417 9.71234C31.4673 9.63572 31.2915 9.5621 31.1146 9.4915C29.9917 9.04775 29.1667 8.01234 29.1667 6.81025Z" stroke="black" stroke-width="4"/>
<path d="M33.3333 24.9998C33.3333 27.21 32.4554 29.3296 30.8926 30.8924C29.3298 32.4552 27.2101 33.3332 25 33.3332C22.7899 33.3332 20.6703 32.4552 19.1074 30.8924C17.5446 29.3296 16.6667 27.21 16.6667 24.9998C16.6667 22.7897 17.5446 20.6701 19.1074 19.1073C20.6703 17.5445 22.7899 16.6665 25 16.6665C27.2101 16.6665 29.3298 17.5445 30.8926 19.1073C32.4554 20.6701 33.3333 22.7897 33.3333 24.9998Z" stroke="black" stroke-width="4"/>
</svg>
