<svg width="50" height="50" viewBox="0 0 50 50" fill="none" xmlns="http://www.w3.org/2000/svg">
<path d="M45.8333 35.4168H4.16666C3.61413 35.4168 3.08422 35.6363 2.69352 36.027C2.30282 36.4177 2.08333 36.9476 2.08333 37.5002C2.08333 38.0527 2.30282 38.5826 2.69352 38.9733C3.08422 39.364 3.61413 39.5835 4.16666 39.5835H45.8333C46.3859 39.5835 46.9158 39.364 47.3065 38.9733C47.6972 38.5826 47.9167 38.0527 47.9167 37.5002C47.9167 36.9476 47.6972 36.4177 47.3065 36.027C46.9158 35.6363 46.3859 35.4168 45.8333 35.4168ZM45.8333 43.7502H4.16666C3.61413 43.7502 3.08422 43.9697 2.69352 44.3604C2.30282 44.7511 2.08333 45.281 2.08333 45.8335C2.08333 46.386 2.30282 46.9159 2.69352 47.3066C3.08422 47.6973 3.61413 47.9168 4.16666 47.9168H45.8333C46.3859 47.9168 46.9158 47.6973 47.3065 47.3066C47.6972 46.9159 47.9167 46.386 47.9167 45.8335C47.9167 45.281 47.6972 44.7511 47.3065 44.3604C46.9158 43.9697 46.3859 43.7502 45.8333 43.7502ZM12.5 14.5835C12.0879 14.5835 11.6852 14.7057 11.3426 14.9346C11 15.1635 10.7329 15.4889 10.5752 15.8696C10.4176 16.2503 10.3763 16.6691 10.4567 17.0733C10.5371 17.4774 10.7355 17.8486 11.0269 18.14C11.3182 18.4313 11.6894 18.6297 12.0936 18.7101C12.4977 18.7905 12.9166 18.7493 13.2973 18.5916C13.6779 18.4339 14.0033 18.1669 14.2322 17.8243C14.4611 17.4817 14.5833 17.0789 14.5833 16.6668C14.5833 16.1143 14.3638 15.5844 13.9731 15.1937C13.5824 14.803 13.0525 14.5835 12.5 14.5835ZM41.6667 2.0835H8.33333C6.67572 2.0835 5.08601 2.74198 3.91391 3.91408C2.74181 5.08618 2.08333 6.67589 2.08333 8.3335V25.0002C2.08333 26.6578 2.74181 28.2475 3.91391 29.4196C5.08601 30.5917 6.67572 31.2502 8.33333 31.2502H41.6667C43.3243 31.2502 44.914 30.5917 46.0861 29.4196C47.2582 28.2475 47.9167 26.6578 47.9167 25.0002V8.3335C47.9167 6.67589 47.2582 5.08618 46.0861 3.91408C44.914 2.74198 43.3243 2.0835 41.6667 2.0835ZM43.75 25.0002C43.75 25.5527 43.5305 26.0826 43.1398 26.4733C42.7491 26.864 42.2192 27.0835 41.6667 27.0835H8.33333C7.78079 27.0835 7.25089 26.864 6.86019 26.4733C6.46949 26.0826 6.24999 25.5527 6.24999 25.0002V8.3335C6.24999 7.78096 6.46949 7.25106 6.86019 6.86036C7.25089 6.46966 7.78079 6.25016 8.33333 6.25016H41.6667C42.2192 6.25016 42.7491 6.46966 43.1398 6.86036C43.5305 7.25106 43.75 7.78096 43.75 8.3335V25.0002ZM25 10.4168C23.7639 10.4168 22.5555 10.7834 21.5277 11.4701C20.4999 12.1569 19.6988 13.133 19.2257 14.2751C18.7527 15.4171 18.6289 16.6738 18.8701 17.8861C19.1112 19.0985 19.7065 20.2122 20.5806 21.0862C21.4547 21.9603 22.5683 22.5556 23.7807 22.7967C24.9931 23.0379 26.2497 22.9141 27.3918 22.4411C28.5338 21.968 29.5099 21.167 30.1967 20.1391C30.8834 19.1113 31.25 17.903 31.25 16.6668C31.25 15.0092 30.5915 13.4195 29.4194 12.2474C28.2473 11.0753 26.6576 10.4168 25 10.4168ZM25 18.7502C24.5879 18.7502 24.1852 18.628 23.8426 18.3991C23.5 18.1701 23.2329 17.8448 23.0752 17.4641C22.9176 17.0834 22.8763 16.6645 22.9567 16.2604C23.0371 15.8563 23.2355 15.485 23.5269 15.1937C23.8182 14.9023 24.1894 14.7039 24.5936 14.6235C24.9977 14.5431 25.4166 14.5844 25.7973 14.7421C26.1779 14.8998 26.5033 15.1668 26.7322 15.5094C26.9611 15.852 27.0833 16.2548 27.0833 16.6668C27.0833 17.2194 26.8638 17.7493 26.4731 18.14C26.0824 18.5307 25.5525 18.7502 25 18.7502ZM37.5 14.5835C37.0879 14.5835 36.6852 14.7057 36.3426 14.9346C36 15.1635 35.7329 15.4889 35.5752 15.8696C35.4176 16.2503 35.3763 16.6691 35.4567 17.0733C35.5371 17.4774 35.7355 17.8486 36.0269 18.14C36.3182 18.4313 36.6894 18.6297 37.0936 18.7101C37.4977 18.7905 37.9166 18.7493 38.2972 18.5916C38.6779 18.4339 39.0033 18.1669 39.2322 17.8243C39.4611 17.4817 39.5833 17.0789 39.5833 16.6668C39.5833 16.1143 39.3638 15.5844 38.9731 15.1937C38.5824 14.803 38.0525 14.5835 37.5 14.5835Z" fill="black"/>
</svg>
