<svg width="75" height="75" viewBox="0 0 75 75" fill="none" xmlns="http://www.w3.org/2000/svg">
<path d="M37.7991 21.6355C33.4988 21.6355 29.3756 23.3416 26.336 26.3789C23.2967 29.4161 21.5893 33.5364 21.5893 37.8341C21.5893 42.1279 23.2967 46.2483 26.336 49.2857C29.3753 52.3264 33.4985 54.0326 37.7991 54.0326C42.0998 54.0326 46.2227 52.3264 49.2623 49.2857C52.3016 46.2485 54.0089 42.1282 54.0089 37.8341C53.9983 33.5403 52.2874 29.427 49.2517 26.3897C46.2124 23.356 42.096 21.6425 37.7991 21.6355ZM48.302 30.924C47.4624 30.5204 46.5911 30.1948 45.6948 29.9399C45.4079 29.0408 45.0679 28.1594 44.6747 27.2992C46.127 28.2373 47.3632 29.4726 48.302 30.924ZM46.715 36.2089V34.2443C47.8238 34.6903 48.8262 35.3594 49.6622 36.2089H46.715ZM43.1267 36.2089H39.6128V32.4319C40.6542 32.4956 41.6886 32.6195 42.7123 32.8106C42.9248 33.9328 43.063 35.0691 43.1267 36.2089ZM39.6128 29.1116V26.0886C40.4381 26.9523 41.0899 27.9647 41.5398 29.0727L39.6128 29.1116ZM35.8332 26.2797V29.1116H33.9062C34.395 27.9788 35.1034 26.9523 35.9855 26.0886L35.8332 26.2797ZM35.8332 32.6974V36.2089H32.3192C32.3972 35.1575 32.5353 34.1098 32.7372 33.0762C33.8035 32.7895 34.8909 32.5735 35.9854 32.4319L35.8332 32.6974ZM28.8832 36.2089H26.0848C26.9243 35.3594 27.9268 34.6903 29.032 34.2443C28.9576 34.6974 28.9186 35.377 28.8832 36.2089ZM26.0884 39.9859H28.8832V41.9506V41.947C27.7957 41.3736 26.8428 40.5771 26.0848 39.6072L26.0884 39.9859ZM32.4751 39.9859H35.989V43.4975H35.9855C34.9441 43.4337 33.9097 43.3098 32.886 43.1187C32.6699 41.9577 32.5318 40.786 32.4715 39.6072L32.4751 39.9859ZM35.989 47.0833V49.9151H35.9855C35.1531 49.0585 34.4978 48.0426 34.0585 46.931L35.989 47.0833ZM39.7687 49.9151V47.0833H41.6957H41.6921C41.1502 48.0177 40.4452 48.8496 39.6128 49.5364L39.7687 49.9151ZM39.7687 43.4975L39.7651 39.6072H43.2791C43.2011 40.6585 43.063 41.7063 42.8611 42.7399C41.7878 42.9381 40.7038 43.0655 39.6128 43.1186L39.7687 43.4975ZM46.8709 39.9859H49.6657H49.6622C48.8262 40.8355 47.8238 41.5045 46.715 41.947C46.6406 40.9276 46.6796 40.2869 46.715 39.6072L46.8709 39.9859ZM30.9235 27.2992C30.5303 28.1594 30.1903 29.0408 29.9034 29.9399C29.0072 30.1948 28.1358 30.5205 27.2962 30.924C28.235 29.4726 29.4712 28.2373 30.9235 27.2992ZM27.1439 44.7045C27.9834 45.1045 28.8548 45.4337 29.751 45.685C30.0167 46.5947 30.3567 47.4797 30.7712 48.3293C29.3755 47.3735 28.1924 46.1381 27.2962 44.7045H27.1439ZM44.5259 48.4815C44.9226 47.6214 45.2627 46.7399 45.546 45.8373C46.4387 45.5859 47.3136 45.2567 48.1531 44.8568C47.2393 46.2373 46.0561 47.416 44.6747 48.3293L44.5259 48.4815ZM66.4419 20.9558H66.4384C64.2351 20.97 62.1133 21.7877 60.4697 23.2567L45.9605 12.7612C46.5167 11.5788 46.8001 10.2903 46.793 8.98413C46.793 4.02125 42.7654 0 37.7991 0C32.8328 0 28.8053 4.02125 28.8053 8.98413C28.7982 10.2903 29.0815 11.5788 29.6377 12.7612L15.1285 23.2567C12.9536 21.2319 9.91785 20.4072 7.01674 21.062C4.11564 21.7133 1.72462 23.7594 0.629994 26.5204C-0.46454 29.285 -0.117426 32.4107 1.55096 34.8708C3.21933 37.331 5.99648 38.8072 8.96849 38.8142C9.37231 38.8496 9.77613 38.8496 10.1799 38.8142L15.6598 55.7311H15.6563C12.9996 57.2427 11.2922 60.0001 11.1257 63.0515C10.9592 66.1028 12.3549 69.0303 14.8344 70.8214C17.3105 72.6126 20.5304 73.0232 23.3784 71.9116C26.2264 70.7966 28.3128 68.3151 28.9186 65.3205H46.6016C47.2073 68.3152 49.2973 70.7966 52.1453 71.9116C54.9932 73.0232 58.2132 72.6125 60.6893 70.8214C63.1653 69.0302 64.5645 66.1028 64.398 63.0515C64.2315 60.0001 62.5241 57.2426 59.8639 55.7311L65.3438 38.8142C65.7476 38.8496 66.1514 38.8496 66.5517 38.8142C71.3019 38.5063 75 34.5664 75 29.8089C75 25.0514 71.3019 21.1115 66.5517 20.8036L66.4419 20.9558ZM37.7991 3.66013C39.9847 3.66013 41.9541 4.97692 42.7901 6.99466C43.6261 9.0124 43.1656 11.3345 41.6211 12.8779C40.0732 14.4212 37.7495 14.8849 35.7303 14.0496C33.7112 13.2143 32.397 11.246 32.397 9.06197C32.397 6.07786 34.8165 3.66013 37.7991 3.66013ZM3.79323 29.7912C3.79323 27.6071 5.11093 25.639 7.13006 24.8001C9.14919 23.9647 11.4729 24.4284 13.0173 25.9718C14.5617 27.5152 15.0258 29.8373 14.1899 31.855C13.3503 33.8727 11.3808 35.1895 9.19526 35.1895C6.21263 35.1895 3.79323 32.7717 3.79323 29.7912ZM20.155 68.7577C17.9694 68.7719 15.9893 67.4692 15.1392 65.4586C14.2892 63.448 14.7354 61.1223 16.2692 59.5648C17.803 58.0108 20.1232 57.5329 22.1494 58.3542C24.1721 59.1754 25.5039 61.1365 25.5181 63.3206C25.5287 64.7507 24.969 66.1277 23.963 67.1472C22.957 68.1667 21.5861 68.7471 20.155 68.7577ZM55.4467 68.7577H55.4432C52.4889 68.7365 50.0979 66.347 50.0801 63.3948C50.0943 61.2107 51.4262 59.2532 53.4488 58.4284C55.475 57.6072 57.7952 58.085 59.329 59.6425C60.8628 61.1965 61.3091 63.5221 60.459 65.5328C59.6088 67.547 57.6287 68.8461 55.4432 68.8319L55.4467 68.7577ZM56.4669 54.4851H56.4633C56.1233 54.4639 55.7832 54.4639 55.4432 54.4851C51.1783 54.4851 47.5014 57.4833 46.6407 61.6568H28.9576C28.0969 57.4833 24.42 54.4851 20.1551 54.4851C19.815 54.4639 19.475 54.4639 19.1349 54.4851L13.6161 37.4939C16.2799 35.8975 17.9377 33.0443 18.0014 29.9399C18.0333 28.6408 17.7747 27.3523 17.2434 26.1664L31.7525 15.6672C35.1602 18.8354 40.4381 18.8354 43.8459 15.6672L58.355 26.2018C57.8237 27.3912 57.5651 28.6797 57.597 29.9788C57.6607 33.0833 59.3185 35.9328 61.9823 37.5292L56.4669 54.4851ZM66.5907 35.1894C64.4051 35.1894 62.4357 33.8727 61.5997 31.8549C60.7637 29.8372 61.2242 27.515 62.7687 25.9717C64.3166 24.4284 66.6403 23.9647 68.6595 24.8C70.6786 25.6389 71.9928 27.6071 71.9928 29.7911C71.9928 32.7717 69.5733 35.1894 66.5907 35.1894Z" fill="white"/>
</svg>
