<svg width="50" height="50" viewBox="0 0 50 50" fill="none" xmlns="http://www.w3.org/2000/svg">
<path d="M25 35.4165C25.5903 35.4165 26.0854 35.2165 26.4854 34.8165C26.8854 34.4165 27.0847 33.9221 27.0833 33.3332C27.0819 32.7443 26.8819 32.2498 26.4833 31.8498C26.0847 31.4498 25.5903 31.2498 25 31.2498C24.4097 31.2498 23.9153 31.4498 23.5167 31.8498C23.118 32.2498 22.918 32.7443 22.9167 33.3332C22.9153 33.9221 23.1153 34.4172 23.5167 34.8186C23.918 35.22 24.4125 35.4193 25 35.4165ZM22.9167 27.0832H27.0833V14.5832H22.9167V27.0832ZM25 45.8332C22.118 45.8332 19.4097 45.2859 16.875 44.1915C14.3403 43.0971 12.1354 41.613 10.2604 39.7394C8.38541 37.8658 6.90138 35.6609 5.80833 33.1248C4.71527 30.5887 4.16805 27.8804 4.16666 24.9998C4.16527 22.1193 4.71249 19.4109 5.80833 16.8748C6.90416 14.3387 8.38819 12.1339 10.2604 10.2603C12.1326 8.38664 14.3375 6.90262 16.875 5.80817C19.4125 4.71373 22.1208 4.1665 25 4.1665C27.8792 4.1665 30.5875 4.71373 33.125 5.80817C35.6625 6.90262 37.8674 8.38664 39.7396 10.2603C41.6118 12.1339 43.0965 14.3387 44.1937 16.8748C45.291 19.4109 45.8375 22.1193 45.8333 24.9998C45.8292 27.8804 45.2819 30.5887 44.1917 33.1248C43.1014 35.6609 41.6174 37.8658 39.7396 39.7394C37.8618 41.613 35.6569 43.0978 33.125 44.1936C30.593 45.2894 27.8847 45.8359 25 45.8332ZM25 41.6665C29.6528 41.6665 33.5937 40.0519 36.8229 36.8228C40.0521 33.5936 41.6667 29.6526 41.6667 24.9998C41.6667 20.3471 40.0521 16.4061 36.8229 13.1769C33.5937 9.94775 29.6528 8.33317 25 8.33317C20.3472 8.33317 16.4062 9.94775 13.1771 13.1769C9.94791 16.4061 8.33333 20.3471 8.33333 24.9998C8.33333 29.6526 9.94791 33.5936 13.1771 36.8228C16.4062 40.0519 20.3472 41.6665 25 41.6665Z" fill="black"/>
</svg>
