<svg width="40" height="41" viewBox="0 0 40 41" fill="none" xmlns="http://www.w3.org/2000/svg">
<path d="M33.2856 27.9274C33.9619 27.4189 34.4609 26.7105 34.7122 25.9025C34.9634 25.0946 34.954 24.2281 34.6855 23.4258C34.4169 22.6235 33.9026 21.926 33.2156 21.4322C32.5286 20.9383 31.7036 20.6732 30.8575 20.6743C30.0114 20.6754 29.1871 20.9426 28.5014 21.4382C27.8156 21.9338 27.3032 22.6326 27.0367 23.4357C26.7702 24.2387 26.7631 25.1052 27.0164 25.9125C27.2697 26.7197 27.7706 27.4269 28.4481 27.9336C27.8227 28.1641 27.2342 28.4845 26.7013 28.8849C28.0281 30.1368 30.0188 32.4586 29.6494 35.0305H35.3125C35.665 35.0309 36.0125 34.947 36.3261 34.7859C36.6396 34.6248 36.9101 34.3911 37.115 34.1043C38.63 31.8324 35.3131 28.5718 33.2856 27.9274ZM13.2894 28.8849C12.7581 28.4859 12.172 28.1656 11.5494 27.9336C12.2211 27.4232 12.7163 26.7154 12.9655 25.9094C13.2148 25.1033 13.2055 24.2395 12.9391 23.439C12.6727 22.6385 12.1624 21.9415 11.4799 21.4455C10.7974 20.9496 9.97679 20.6797 9.13314 20.6736C5.27189 20.6549 3.63814 25.6861 6.71752 27.9274C4.69564 28.5593 1.37252 31.8449 2.88064 34.1043C3.08551 34.3912 3.35598 34.625 3.66952 34.7862C3.98305 34.9475 4.33058 35.0314 4.68314 35.0311H10.335C10.01 32.663 11.6606 30.4405 13.2894 28.8849Z" fill="#F48120"/>
<path d="M22.7487 28.0086C26.9106 25.3236 25.0206 18.7086 19.9943 18.7086C18.9075 18.7165 17.852 19.0735 16.9835 19.7271C16.115 20.3806 15.4796 21.2959 15.171 22.3381C14.8625 23.3802 14.897 24.494 15.2697 25.515C15.6423 26.536 16.3333 27.4102 17.2406 28.0086C15.9492 28.4341 14.7738 29.1528 13.8064 30.1082C12.839 31.0637 12.1059 32.2301 11.6643 33.5161C11.5389 33.9114 11.507 34.3304 11.5712 34.7401C11.6354 35.1499 11.7938 35.5391 12.0341 35.8771C12.2744 36.2151 12.5899 36.4927 12.9558 36.688C13.3217 36.8833 13.7279 36.9909 14.1425 37.0023H25.7837C26.3707 36.9983 26.9407 36.804 27.4079 36.4486C27.8751 36.0932 28.2144 35.5958 28.375 35.0311C28.6937 33.5273 27.8331 32.0973 26.9231 30.9561C25.8584 29.5773 24.4044 28.5503 22.7487 28.0086ZM15.6137 17.1498H24.3762C24.8736 17.1482 25.3501 16.9498 25.7018 16.5981C26.0534 16.2463 26.2516 15.7697 26.2531 15.2723V6.50982C26.2516 6.01234 26.0533 5.53565 25.7015 5.18387C25.3498 4.83209 24.8731 4.63381 24.3756 4.63232H15.6131C15.1156 4.63381 14.6389 4.83209 14.2871 5.18387C13.9353 5.53565 13.7371 6.01234 13.7356 6.50982V15.2723C13.7371 15.7699 13.9354 16.2467 14.2873 16.5985C14.6393 16.9503 15.1161 17.1485 15.6137 17.1498ZM17.36 10.4467L19.3437 12.4367L22.5668 8.01795C22.6669 7.88935 22.8132 7.80474 22.9746 7.78203C23.1359 7.75932 23.2998 7.80029 23.4315 7.89628C23.5633 7.99226 23.6525 8.13573 23.6803 8.29631C23.7081 8.4569 23.6723 8.62201 23.5806 8.7567L19.9256 13.7636C19.8719 13.8364 19.8031 13.8969 19.724 13.9408C19.6449 13.9848 19.5573 14.0112 19.4671 14.0183C19.3769 14.0254 19.2862 14.0131 19.2012 13.982C19.1161 13.951 19.0388 13.9021 18.9743 13.8386L16.4712 11.3361C16.3594 11.217 16.2983 11.0591 16.3008 10.8958C16.3034 10.7325 16.3694 10.5765 16.4849 10.461C16.6004 10.3455 16.7563 10.2795 16.9197 10.277C17.083 10.2744 17.2409 10.3355 17.36 10.4473V10.4467Z" fill="#F48120"/>
</svg>
