<svg width="40" height="41" viewBox="0 0 40 41" fill="none" xmlns="http://www.w3.org/2000/svg">
<path d="M20.7719 14.0174C24.4507 16.3261 29.5682 13.5061 29.4926 9.07363C29.4909 7.54727 28.8838 6.08392 27.8043 5.00474C26.7249 3.92555 25.2614 3.31871 23.7351 3.31738C17.8813 3.35613 15.8313 11.038 20.7719 14.0174ZM36.6251 19.3486C36.3264 19.0223 35.9617 18.7633 35.5552 18.5888C35.1488 18.4144 34.7098 18.3284 34.2675 18.3367C33.8252 18.3449 33.3898 18.4473 32.9901 18.6368C32.5904 18.8264 32.2357 19.0989 31.9494 19.4361L27.3232 24.0674C27.4227 24.3013 27.5001 24.544 27.5544 24.7924C27.6888 25.4226 27.6813 26.0748 27.5324 26.7017C27.3836 27.3287 27.0971 27.9147 26.6938 28.4172C26.2905 28.9198 25.7804 29.3263 25.2006 29.6074C24.6208 29.8885 23.9857 30.0371 23.3413 30.0424H17.8401C17.6743 30.0424 17.5153 29.9765 17.3981 29.8593C17.2809 29.7421 17.2151 29.5831 17.2151 29.4174C17.2151 29.2516 17.2809 29.0927 17.3981 28.9754C17.5153 28.8582 17.6743 28.7924 17.8401 28.7924H23.3413C24.156 28.7924 24.9374 28.4687 25.5135 27.8927C26.0896 27.3166 26.4132 26.5352 26.4132 25.7205C26.4132 24.9058 26.0896 24.1245 25.5135 23.5484C24.9374 22.9723 24.156 22.6486 23.3413 22.6486C23.3413 22.6486 13.0582 22.6486 13.0019 22.6549C12.11 22.7018 11.2665 23.0756 10.6326 23.7049L2.67445 31.6736C2.55774 31.7906 2.49219 31.949 2.49219 32.1143C2.49219 32.2795 2.55774 32.4379 2.67445 32.5549L8.2507 38.1361C8.36941 38.2519 8.52865 38.3167 8.69445 38.3167C8.86025 38.3167 9.01949 38.2519 9.1382 38.1361L10.5132 36.7674C11.9951 36.5611 21.0282 35.3299 24.2351 34.8861C25.1023 34.7635 25.9069 34.3646 26.5294 33.7486L36.6001 23.6611C37.1672 23.0883 37.4874 22.3161 37.492 21.51C37.4967 20.7039 37.1855 19.928 36.6251 19.3486Z" fill="#F48120"/>
<path d="M26.3978 22.6672C26.4916 22.7609 26.5728 22.8672 26.6603 22.9672L31.2797 18.3422C31.5549 18.0681 31.8661 17.8326 32.2047 17.6422C31.1192 16.2903 29.7234 15.2204 28.1359 14.5234C27.019 15.4253 25.6523 15.9627 24.2203 16.0633C22.7883 16.1639 21.3598 15.8228 20.1278 15.0859C19.8475 14.9186 19.5801 14.7306 19.3278 14.5234C18.9853 14.6712 18.6515 14.8381 18.3278 15.0234C15.8905 16.4209 14.0858 18.7043 13.2891 21.3984H23.3409C23.9091 21.3964 24.472 21.5075 24.9967 21.7253C25.5214 21.9432 25.9982 22.2634 26.3978 22.6672Z" fill="#F48120"/>
</svg>
