<svg width="40" height="41" viewBox="0 0 40 41" fill="none" xmlns="http://www.w3.org/2000/svg">
<path d="M18.9859 31.4885H17.3516C17.2367 29.7612 16.4039 28.3081 15.1859 27.2479C15.6445 24.2651 18.2375 21.962 21.3445 21.962H23.125L22.5844 27.7487C22.5773 27.8354 22.593 27.9104 22.6352 27.9831L23.6648 29.8081C23.7383 29.9385 23.8664 30.0143 24.0148 30.0143C24.1656 30.0143 24.2937 29.9393 24.3672 29.8081L25.3969 27.9831C25.4391 27.9096 25.4547 27.8346 25.4477 27.7487L24.907 21.962H26.6875C30.1133 21.962 32.9172 24.7659 32.9172 28.1917V31.4893H29.0469V28.619C29.0469 28.2627 28.7586 27.9745 28.4023 27.9745C28.0461 27.9745 27.7578 28.2627 27.7578 28.619V31.4893H20.275V28.619C20.275 28.2627 19.9867 27.9745 19.6305 27.9745C19.2742 27.9745 18.9859 28.2627 18.9859 28.619V31.4885ZM24.0148 20.1588C26.4445 20.1588 28.4133 18.1901 28.4133 15.7627C28.4133 13.3331 26.4445 11.3643 24.0148 11.3643C21.5875 11.3643 19.6187 13.3331 19.6187 15.7627C19.6187 18.1901 21.5875 20.1588 24.0148 20.1588ZM34.4852 32.7776H17.3648V35.462H34.4859C34.7984 35.462 35.0531 35.2073 35.0531 34.8948V33.3471C35.0523 33.0338 34.7977 32.7776 34.4852 32.7776ZM9.99687 26.6299H6.19844C2.85703 26.6299 0.121875 29.0018 0.121875 31.8987V37.9331C0.121875 38.6393 0.785937 39.2127 1.59922 39.2127H14.5984C15.4109 39.2127 16.0734 38.6393 16.0734 37.9331V31.8987C16.0734 29.001 13.3383 26.6299 9.99687 26.6299ZM3.14062 21.2721C3.14062 24.0112 5.36172 26.2307 8.09922 26.2307C10.8367 26.2307 13.0555 24.012 13.0555 21.2721C13.0555 18.5346 10.8367 16.3159 8.09922 16.3159C5.36172 16.3167 3.14062 18.5354 3.14062 21.2721ZM40 3.43384V9.4354C40 9.99165 39.5461 10.4471 38.9883 10.4471H34.7562C34.5859 10.4471 34.4398 10.5112 34.3242 10.6401L32.1562 13.0713C31.9922 13.2549 31.7469 13.3151 31.5187 13.2284C31.2883 13.1401 31.1445 12.9315 31.1445 12.6877V11.0245C31.1445 10.7057 30.8852 10.4463 30.5664 10.4463H29.7359C29.1781 10.4463 28.7242 9.99009 28.7242 9.43462V3.43384C28.7242 2.87837 29.1781 2.42212 29.7359 2.42212H38.9883C39.5461 2.42212 40 2.87837 40 3.43384ZM35.5664 7.77056C35.5664 7.41431 35.2789 7.12603 34.9219 7.12603H31.868C31.5117 7.12603 31.2211 7.41431 31.2211 7.77056C31.2211 8.12681 31.5109 8.41743 31.868 8.41743H34.9219C35.2781 8.41665 35.5664 8.12681 35.5664 7.77056ZM37.5016 5.09712C37.5016 4.74087 37.2117 4.45259 36.857 4.45259H31.868C31.5117 4.45259 31.2211 4.74087 31.2211 5.09712C31.2211 5.45337 31.5109 5.74399 31.868 5.74399H36.857C37.2117 5.74399 37.5016 5.45415 37.5016 5.09712ZM0 9.4354V3.43384C0 2.87837 0.45625 2.42212 1.01172 2.42212H10.2664C10.8219 2.42212 11.2781 2.87837 11.2781 3.43384V9.4354C11.2781 9.99165 10.8219 10.4471 10.2664 10.4471H9.43594C9.11719 10.4471 8.85547 10.7065 8.85547 11.0252V12.6885C8.85547 12.9323 8.71172 13.1401 8.48359 13.2291C8.25547 13.3159 8.00781 13.2557 7.84609 13.0721L5.67578 10.6409C5.5625 10.5127 5.41484 10.4479 5.24375 10.4479H1.0125C0.45625 10.4479 0 9.99165 0 9.4354ZM8.77891 7.77056C8.77891 7.41431 8.49141 7.12603 8.13438 7.12603H5.08047C4.72422 7.12603 4.43359 7.41431 4.43359 7.77056C4.43359 8.12681 4.72344 8.41743 5.08047 8.41743H8.13438C8.49063 8.41665 8.77891 8.12681 8.77891 7.77056ZM2.50078 5.09712C2.50078 5.45337 2.78906 5.74399 3.14531 5.74399H8.13438C8.49063 5.74399 8.77891 5.45415 8.77891 5.09712C8.77891 4.74087 8.49141 4.45259 8.13438 4.45259H3.14531C2.78828 4.45259 2.50078 4.74087 2.50078 5.09712Z" fill="#F48120"/>
</svg>
