<svg width="80" height="80" viewBox="0 0 80 80" fill="none" xmlns="http://www.w3.org/2000/svg">
<path d="M40.0005 79.9999C62.0919 79.9999 80.0005 62.0913 80.0005 39.9999C80.0005 17.9085 62.0919 -6.10352e-05 40.0005 -6.10352e-05C17.9091 -6.10352e-05 0.000488281 17.9085 0.000488281 39.9999C0.000488281 62.0913 17.9091 79.9999 40.0005 79.9999Z" fill="#FFF2E8"/>
<path d="M24.9375 29.6875H23.0625V31.5625H24.9375V29.6875Z" fill="#F48120"/>
<path d="M30.5625 29.6875H28.6875V31.5625H30.5625V29.6875Z" fill="#F48120"/>
<path d="M67.6875 45.1469C67.7542 44.7441 67.7324 44.3317 67.6237 43.9383C67.5149 43.5447 67.3218 43.1796 67.0577 42.8683C66.7936 42.5569 66.465 42.3068 66.0945 42.1353C65.7241 41.9638 65.3207 41.875 64.9125 41.875H49.8188C48.9316 41.8735 48.0728 42.1877 47.3961 42.7614C46.7194 43.3351 46.2688 44.1308 46.125 45.0063L44.4562 55H40.5938L37.8844 47.5469C37.5791 46.7212 37.1128 45.9646 36.5125 45.3208C35.9122 44.677 35.1898 44.1589 34.3875 43.7969L28.6875 41.2656V40.4406C30.3309 39.8609 31.7542 38.786 32.7616 37.364C33.7689 35.9419 34.3108 34.2427 34.3125 32.5V20.3125C34.3125 20.0639 34.2137 19.8254 34.0379 19.6496C33.8621 19.4738 33.6236 19.375 33.375 19.375H22.125C20.8818 19.375 19.6895 19.8689 18.8105 20.748C17.9314 21.627 17.4375 22.8193 17.4375 24.0625V27.8594C16.6404 27.9714 15.9129 28.3741 15.3946 28.9898C14.8762 29.6057 14.6037 30.3912 14.6293 31.1957C14.6549 32.0002 14.9767 32.7668 15.5331 33.3484C16.0895 33.9301 16.8412 34.2857 17.6438 34.3469C18.128 36.4555 19.3945 38.3017 21.1875 39.5125V41.2187L16.4344 42.9531C14.8059 43.5421 13.3984 44.6186 12.4036 46.0361C11.4088 47.4536 10.8751 49.1432 10.875 50.875V55.9375C10.8778 56.9558 11.2173 57.9447 11.8406 58.75H11.8125C11.5639 58.75 11.3254 58.8488 11.1496 59.0246C10.9738 59.2004 10.875 59.4389 10.875 59.6875V63.4375C10.875 63.6861 10.9738 63.9246 11.1496 64.1004C11.3254 64.2762 11.5639 64.375 11.8125 64.375H13.6875V67.1875C13.6875 67.4361 13.7863 67.6746 13.9621 67.8504C14.1379 68.0262 14.3764 68.125 14.625 68.125H63.375C63.6236 68.125 63.8621 68.0262 64.0379 67.8504C64.2137 67.6746 64.3125 67.4361 64.3125 67.1875V64.375H66.1875C66.4361 64.375 66.6746 64.2762 66.8504 64.1004C67.0262 63.9246 67.125 63.6861 67.125 63.4375V59.6875C67.125 59.4389 67.0262 59.2004 66.8504 59.0246C66.6746 58.8488 66.4361 58.75 66.1875 58.75H65.3719C65.4322 58.5963 65.4731 58.4357 65.4937 58.2719L67.6875 45.1469ZM17.4375 32.4156C17.1635 32.3196 16.9261 32.1408 16.7581 31.904C16.5901 31.6672 16.4999 31.3841 16.4999 31.0938C16.4999 30.8034 16.5901 30.5203 16.7581 30.2835C16.9261 30.0467 17.1635 29.8679 17.4375 29.7719V32.4156ZM47.9719 45.3156C48.043 44.8775 48.2681 44.4793 48.6067 44.1923C48.9452 43.9053 49.3749 43.7485 49.8188 43.75H50.0812L47.5781 58.75H45.7313L47.9719 45.3156ZM44.1469 56.875L43.8281 58.75H37.125C36.8764 58.75 36.6379 58.6512 36.4621 58.4754C36.2863 58.2996 36.1875 58.0611 36.1875 57.8125V56.875H44.1469ZM19.3125 24.0625C19.3148 23.3173 19.6117 22.6032 20.1387 22.0762C20.6657 21.5492 21.3798 21.2523 22.125 21.25H32.4375V24.2594C31.8844 24.3438 31.3781 24.4469 30.8906 24.5406C29.5515 24.8385 28.1843 24.9924 26.8125 25C25.9641 25.0471 25.1158 24.9062 24.3281 24.5875C23.3292 24.1956 22.2595 24.0168 21.1875 24.0625C20.9389 24.0625 20.7004 24.1613 20.5246 24.3371C20.3488 24.5129 20.25 24.7514 20.25 25V26.875C20.25 27.1236 20.1512 27.3621 19.9754 27.5379C19.7996 27.7137 19.5611 27.8125 19.3125 27.8125V24.0625ZM19.3125 32.5V29.6875C20.0577 29.6852 20.7718 29.3883 21.2988 28.8613C21.8258 28.3343 22.1227 27.6202 22.125 26.875V25.975C22.6576 26.0148 23.1802 26.1415 23.6719 26.35C24.6708 26.7419 25.7405 26.9207 26.8125 26.875C28.3041 26.8678 29.7907 26.7012 31.2469 26.3781C31.6312 26.3031 32.025 26.2281 32.4375 26.1531V32.5C32.4375 34.2405 31.7461 35.9097 30.5153 37.1403C29.2847 38.3711 27.6155 39.0625 25.875 39.0625C24.1345 39.0625 22.4653 38.3711 21.2347 37.1403C20.0039 35.9097 19.3125 34.2405 19.3125 32.5ZM26.8125 40.8812V41.875C26.8125 42.3722 26.615 42.8492 26.2633 43.2008C25.9117 43.5525 25.4347 43.75 24.9375 43.75C24.4403 43.75 23.9633 43.5525 23.6117 43.2008C23.26 42.8492 23.0625 42.3722 23.0625 41.875V40.4406C23.964 40.7684 24.9157 40.9366 25.875 40.9375C26.1883 40.9377 26.5014 40.9189 26.8125 40.8812ZM12.75 50.875C12.7502 49.5287 13.1652 48.215 13.9385 47.113C14.7118 46.0109 15.8059 45.1738 17.0719 44.7156L21.4219 43.1313C21.6759 43.8537 22.1462 44.4805 22.7688 44.9265C23.3914 45.3725 24.136 45.6161 24.9019 45.6243C25.6676 45.6325 26.4174 45.4049 27.0494 44.9722C27.6814 44.5397 28.1648 43.9231 28.4344 43.2062L33.6188 45.5125C34.1947 45.7684 34.7131 46.1378 35.1431 46.5984C35.5732 47.0591 35.9061 47.6016 36.1219 48.1938L38.5969 55H35.325L33.3094 49.9656C33.2359 49.7902 33.112 49.6405 32.9535 49.5354C32.7951 49.4303 32.609 49.3744 32.4187 49.375C32.1701 49.375 31.9316 49.4738 31.7558 49.6496C31.5801 49.8254 31.4812 50.0639 31.4812 50.3125V58.75H27.75C27.7475 57.9257 27.5267 57.1166 27.1101 56.4052C26.6935 55.6938 26.0959 55.1055 25.3781 54.7L24.9281 51.1375L23.0719 51.3625L23.4094 54.1C23.2969 54.0906 23.1844 54.0625 23.0625 54.0625H17.4375V49.375H15.5625V55C15.5625 55.2486 15.6613 55.4871 15.8371 55.6629C16.0129 55.8387 16.2514 55.9375 16.5 55.9375H21.1875V58.75H15.5625C14.8173 58.7477 14.1032 58.4507 13.5762 57.9238C13.0493 57.3968 12.7522 56.6827 12.75 55.9375V50.875ZM34.4813 58.75H33.3562V55.1312L34.3125 57.5219V57.8125C34.315 58.1323 34.3721 58.4493 34.4813 58.75ZM25.875 58.75H23.0625V55.9375C23.8077 55.9398 24.5218 56.2368 25.0488 56.7637C25.5758 57.2907 25.8727 58.0048 25.875 58.75ZM62.4375 66.25H15.5625V64.375H62.4375V66.25ZM65.25 62.5H12.75V60.625H65.25V62.5ZM63.6469 57.9625C63.6134 58.1821 63.5023 58.3823 63.3337 58.5268C63.1651 58.6713 62.9502 58.7505 62.7281 58.75H49.4813L51.9844 43.75H64.9125C65.0485 43.7496 65.1831 43.7788 65.3066 43.8356C65.4302 43.8924 65.54 43.9755 65.6283 44.0789C65.7166 44.1824 65.7814 44.3038 65.818 44.4348C65.8547 44.5658 65.8624 44.7032 65.8406 44.8375L63.6469 57.9625Z" fill="#F48120"/>
<path d="M57.75 48.4375C57.1938 48.4375 56.6499 48.6024 56.1875 48.9115C55.7249 49.2205 55.3644 49.6598 55.1516 50.1738C54.9387 50.6876 54.883 51.2531 54.9915 51.7987C55.1001 52.3443 55.3679 52.8454 55.7613 53.2387C56.1546 53.6321 56.6558 53.8999 57.2013 54.0085C57.7469 54.117 58.3124 54.0613 58.8263 53.8484C59.3402 53.6356 59.7795 53.2751 60.0885 52.8125C60.3976 52.3501 60.5625 51.8062 60.5625 51.25C60.5625 50.5041 60.2662 49.7887 59.7387 49.2613C59.2113 48.7338 58.496 48.4375 57.75 48.4375ZM57.75 52.1875C57.5646 52.1875 57.3834 52.1326 57.2291 52.0295C57.075 51.9265 56.9548 51.7801 56.8839 51.6088C56.8129 51.4375 56.7943 51.249 56.8305 51.0671C56.8667 50.8852 56.9559 50.7182 57.0871 50.5871C57.2182 50.4559 57.3852 50.3667 57.5671 50.3305C57.749 50.2943 57.9375 50.3129 58.1088 50.3838C58.2801 50.4548 58.4265 50.575 58.5295 50.7291C58.6326 50.8833 58.6875 51.0646 58.6875 51.25C58.6875 51.4986 58.5887 51.7371 58.4129 51.9129C58.2371 52.0887 57.9986 52.1875 57.75 52.1875Z" fill="#F48120"/>
<path d="M53.0625 36.25C55.1021 36.25 57.0959 35.6452 58.7918 34.5121C60.4877 33.3789 61.8095 31.7683 62.59 29.8839C63.3705 27.9995 63.5748 25.9261 63.1768 23.9256C62.7789 21.9252 61.7968 20.0877 60.3546 18.6455C58.9123 17.2032 57.0748 16.2211 55.0744 15.8232C53.0739 15.4252 51.0005 15.6295 49.1161 16.41C47.2317 17.1905 45.6211 18.5123 44.4879 20.2082C43.3548 21.9041 42.75 23.8979 42.75 25.9375C42.7532 28.6715 43.8408 31.2927 45.774 33.226C47.7073 35.1592 50.3285 36.2468 53.0625 36.25ZM44.6803 25C44.8571 23.4179 45.4801 21.9187 46.4766 20.6772L47.7591 21.9597L49.0847 20.6341L47.8022 19.3516C49.0437 18.3551 50.5429 17.7322 52.125 17.5553V19.375H54V17.5553C55.5821 17.7322 57.0813 18.3551 58.3228 19.3516L57.0403 20.6341L58.3659 21.9597L59.6484 20.6772C60.6449 21.9187 61.2679 23.4179 61.4447 25H59.625V26.875H61.4447C61.2679 28.4571 60.6449 29.9563 59.6484 31.1978L58.3659 29.9153L57.0403 31.2409L58.3228 32.5234C57.0813 33.5199 55.5821 34.1429 54 34.3197V32.5H52.125V34.3197C50.5429 34.1429 49.0437 33.5199 47.8022 32.5234L49.0847 31.2409L47.7591 29.9153L46.4766 31.1978C45.4801 29.9563 44.8571 28.4571 44.6803 26.875H46.5V25H44.6803Z" fill="#F48120"/>
<path d="M53.7253 26.6003C53.9011 26.4245 53.9999 26.1861 54 25.9375V21.25H52.125V25.5494L50.5247 27.1497L51.8503 28.4753L53.7253 26.6003Z" fill="#F48120"/>
<path d="M53.0625 40C55.8438 40 58.5626 39.1753 60.8752 37.63C63.1878 36.0848 64.9902 33.8885 66.0546 31.319C67.1189 28.7494 67.3974 25.9219 66.8548 23.1941C66.3122 20.4662 64.9729 17.9605 63.0062 15.9938C61.0395 14.0271 58.5338 12.6878 55.806 12.1452C53.0781 11.6026 50.2506 11.8811 47.6811 12.9454C45.1115 14.0098 42.9152 15.8122 41.37 18.1248C39.8247 20.4374 39 23.1562 39 25.9375C39.0042 29.6658 40.4872 33.2402 43.1235 35.8765C45.7597 38.5128 49.3342 39.9958 53.0625 40ZM53.0625 13.75C55.473 13.75 57.8293 14.4648 59.8335 15.804C61.8378 17.1431 63.3998 19.0466 64.3222 21.2735C65.2447 23.5006 65.4861 25.951 65.0158 28.3152C64.5456 30.6793 63.3848 32.8509 61.6804 34.5554C59.9759 36.2598 57.8043 37.4206 55.4402 37.8908C53.076 38.3611 50.6256 38.1197 48.3985 37.1972C46.1716 36.2748 44.2682 34.7128 42.929 32.7085C41.5897 30.7043 40.875 28.348 40.875 25.9375C40.8788 22.7063 42.164 19.6085 44.4488 17.3237C46.7335 15.039 49.8313 13.7537 53.0625 13.75Z" fill="#F48120"/>
</svg>
