<svg width="39" height="39" viewBox="0 0 39 39" fill="none" xmlns="http://www.w3.org/2000/svg">
<g clip-path="url(#clip0_245_8812)">
<path d="M2.92633 25.9354C2.95508 26.0104 2.96873 26.0903 2.96651 26.1705C2.96429 26.2507 2.94624 26.3297 2.9134 26.403C2.88055 26.4762 2.83356 26.5423 2.77512 26.5973C2.71668 26.6523 2.64794 26.6953 2.57286 26.7236C2.49778 26.752 2.41783 26.7653 2.3376 26.7627C2.25737 26.7601 2.17845 26.7417 2.10536 26.7085C2.03228 26.6753 1.96647 26.628 1.91173 26.5693C1.85698 26.5106 1.81437 26.4416 1.78634 26.3664C0.439166 22.8033 0.238529 18.9626 1.20614 15.2595C2.19378 11.4796 4.32309 8.17534 7.36403 5.70394C9.28082 4.14615 11.4961 2.99245 13.8512 2.31482L12.9435 1.99277C12.7912 1.93871 12.6666 1.82636 12.5972 1.68044C12.5277 1.53452 12.5191 1.36698 12.5731 1.21467C12.5999 1.13925 12.6412 1.06985 12.6948 1.01041C12.7484 0.950974 12.8132 0.902675 12.8854 0.86827C12.9577 0.833866 13.036 0.81403 13.1159 0.809896C13.1958 0.805761 13.2758 0.817409 13.3512 0.844174L16.2467 1.87166C16.3367 1.90357 16.4179 1.95617 16.4838 2.02522C16.5497 2.09427 16.5985 2.17784 16.6262 2.26919C16.6538 2.36054 16.6597 2.45712 16.6432 2.55114C16.6267 2.64516 16.5884 2.73399 16.5312 2.81047L14.6628 5.31333C14.6061 5.38944 14.5323 5.45123 14.4475 5.49375C14.3626 5.53627 14.2689 5.55835 14.174 5.55822C14.061 5.55815 13.9502 5.52664 13.8541 5.46722C13.7579 5.40781 13.6802 5.32283 13.6296 5.22178C13.579 5.12073 13.5575 5.00759 13.5674 4.89501C13.5774 4.78244 13.6185 4.67485 13.6861 4.58429L14.5864 3.37826C12.2402 3.9916 10.0299 5.10782 8.13275 6.64961C2.41438 11.2971 0.32209 19.0474 2.92633 25.9354ZM32.9734 30.6289C32.9115 30.5781 32.8403 30.5401 32.7637 30.5169C32.6871 30.4937 32.6067 30.4858 32.527 30.4936C32.4474 30.5015 32.3701 30.525 32.2995 30.5627C32.229 30.6005 32.1665 30.6517 32.1158 30.7136C31.3837 31.605 30.5638 32.4205 29.6685 33.1478C22.8003 38.7296 13.0369 38.1644 6.87942 32.0246L8.12841 32.2552C8.20711 32.2698 8.2879 32.2687 8.36617 32.252C8.44443 32.2353 8.51864 32.2033 8.58456 32.1579C8.65048 32.1125 8.70682 32.0546 8.75035 31.9875C8.79389 31.9203 8.82377 31.8453 8.83829 31.7666C8.85282 31.6879 8.8517 31.6071 8.835 31.5288C8.81831 31.4505 8.78636 31.3763 8.74098 31.3104C8.6956 31.2445 8.63768 31.1882 8.57053 31.1446C8.50338 31.1011 8.42831 31.0712 8.34962 31.0567L5.32833 30.4988C5.23448 30.4815 5.13786 30.4865 5.04628 30.5133C4.9547 30.5402 4.8707 30.5882 4.80106 30.6534C4.73142 30.7187 4.67808 30.7994 4.64534 30.889C4.61259 30.9787 4.60136 31.0748 4.61255 31.1696L4.97916 34.2714C4.98803 34.3513 5.01262 34.4286 5.05152 34.499C5.09041 34.5693 5.14284 34.6313 5.20579 34.6813C5.26873 34.7313 5.34095 34.7683 5.41827 34.7903C5.4956 34.8123 5.57651 34.8187 5.65634 34.8093C5.73617 34.7998 5.81335 34.7747 5.88342 34.7353C5.9535 34.6959 6.01508 34.6431 6.06464 34.5798C6.11419 34.5165 6.15073 34.444 6.17215 34.3665C6.19358 34.289 6.19946 34.2081 6.18946 34.1283L6.04572 32.9121C9.06274 35.9014 12.9997 37.7362 17.2773 38.1179C17.8259 38.1669 18.3764 38.1915 18.9272 38.1915C23.115 38.1915 27.1505 36.7648 30.4371 34.0937C31.3959 33.3147 32.274 32.4412 33.0579 31.4865C33.1087 31.4247 33.1468 31.3534 33.17 31.2768C33.1933 31.2002 33.2012 31.1198 33.1933 31.0402C33.1855 30.9606 33.162 30.8832 33.1243 30.8127C33.0865 30.7421 33.0353 30.6796 32.9734 30.6289ZM38.2445 23.7606C38.026 23.5045 37.6414 23.4739 37.3854 23.6924L36.6494 24.3201C37.2505 21.8963 37.3548 19.3586 36.9461 16.8912C36.4301 13.776 35.0986 10.8266 33.0956 8.36211C30.2689 4.88402 26.2773 2.57084 21.8563 1.84842C21.7771 1.83486 21.6959 1.83711 21.6175 1.85506C21.5392 1.873 21.4651 1.90628 21.3996 1.95298C21.3342 1.99967 21.2786 2.05886 21.2361 2.12713C21.1937 2.1954 21.1651 2.27141 21.1521 2.35076C21.1392 2.43012 21.142 2.51125 21.1606 2.5895C21.1791 2.66774 21.2129 2.74154 21.2601 2.80665C21.3073 2.87176 21.3669 2.92689 21.4355 2.96885C21.5041 3.01082 21.5803 3.0388 21.6597 3.05118C25.786 3.72537 29.5114 5.88447 32.1498 9.13068C35.6664 13.4576 36.8327 19.0979 35.3644 24.4232L34.7697 23.0395C34.7382 22.966 34.6924 22.8994 34.6351 22.8435C34.5778 22.7877 34.51 22.7437 34.4356 22.714C34.3613 22.6844 34.2819 22.6697 34.2018 22.6708C34.1218 22.6719 34.0428 22.6887 33.9693 22.7204C33.8957 22.752 33.8292 22.7977 33.7733 22.8551C33.7175 22.9124 33.6735 22.9802 33.6439 23.0545C33.6142 23.1288 33.5995 23.2083 33.6006 23.2883C33.6017 23.3683 33.6185 23.4473 33.6501 23.5208L34.8834 26.3904C34.9211 26.4781 34.9789 26.5557 35.052 26.6169C35.1252 26.6782 35.2118 26.7214 35.3047 26.7431C35.3976 26.7648 35.4944 26.7643 35.5871 26.7418C35.6798 26.7193 35.766 26.6753 35.8386 26.6133L38.1762 24.6195C38.2371 24.5677 38.2871 24.5043 38.3235 24.433C38.3599 24.3617 38.3819 24.284 38.3883 24.2042C38.3946 24.1245 38.3852 24.0443 38.3605 23.9681C38.3358 23.892 38.2964 23.8215 38.2445 23.7606ZM16.6376 7.16027C16.6818 7.04533 16.7598 6.9465 16.8613 6.87679C16.9629 6.80709 17.0831 6.76979 17.2063 6.76981H20.5949C20.718 6.76981 20.8383 6.80712 20.9398 6.87682C21.0413 6.94652 21.1193 7.04535 21.1636 7.16027L21.8486 8.94018C22.7989 9.19521 23.7117 9.5736 24.5637 10.0657L26.3078 9.2911C26.4204 9.24112 26.5454 9.22641 26.6665 9.24892C26.7876 9.27142 26.899 9.33008 26.9861 9.41717L29.3821 11.8134C29.4692 11.9005 29.5278 12.0119 29.5503 12.133C29.5728 12.254 29.5581 12.3791 29.5081 12.4916L28.7331 14.2363C29.2251 15.088 29.6035 16.0005 29.8585 16.9505L31.6389 17.6358C31.7538 17.6801 31.8526 17.7581 31.9223 17.8596C31.992 17.9611 32.0293 18.0814 32.0293 18.2045V21.5931C32.0293 21.7162 31.992 21.8365 31.9223 21.938C31.8526 22.0395 31.7538 22.1175 31.6389 22.1618L29.859 22.8469C29.6039 23.7972 29.2255 24.71 28.7334 25.562L29.5081 27.3061C29.5581 27.4186 29.5728 27.5437 29.5503 27.6647C29.5278 27.7858 29.4691 27.8972 29.382 27.9843L26.9859 30.3804C26.8988 30.4674 26.7874 30.526 26.6664 30.5485C26.5453 30.571 26.4203 30.5563 26.3077 30.5064L24.563 29.7315C23.7113 30.2235 22.7988 30.6018 21.8488 30.8568L21.1635 32.6372C21.1192 32.7521 21.0412 32.8509 20.9397 32.9206C20.8382 32.9903 20.7179 33.0276 20.5948 33.0276H17.2062C17.083 33.0276 16.9628 32.9903 16.8613 32.9206C16.7598 32.8509 16.6817 32.7521 16.6375 32.6372L15.9525 30.8573C15.0022 30.6023 14.0894 30.2239 13.2373 29.7318L11.4933 30.5064C11.3808 30.5564 11.2557 30.5711 11.1346 30.5486C11.0136 30.5261 10.9021 30.4674 10.8151 30.3804L8.41893 27.9841C8.33186 27.8971 8.27322 27.7856 8.25073 27.6646C8.22824 27.5435 8.24295 27.4184 8.29294 27.3059L9.06792 25.5613C8.57592 24.7095 8.19758 23.797 7.94255 22.847L6.16226 22.1617C6.04735 22.1175 5.94853 22.0394 5.87883 21.9379C5.80913 21.8364 5.77182 21.7162 5.77181 21.593V18.2045C5.77181 18.0814 5.80911 17.9611 5.87882 17.8596C5.94852 17.7581 6.04734 17.68 6.16226 17.6358L7.94255 16.9505C8.19765 16.0005 8.57598 15.088 9.06792 14.2363L8.29294 12.4916C8.24295 12.3791 8.22824 12.254 8.25075 12.1329C8.27325 12.0119 8.33191 11.9004 8.41901 11.8134L10.8152 9.41724C10.9023 9.33015 11.0137 9.27148 11.1347 9.24897C11.2558 9.22647 11.3808 9.24118 11.4934 9.29118L13.2379 10.0659C14.0897 9.57388 15.0023 9.19554 15.9524 8.94056L16.6376 7.16027ZM16.5488 10.0465C15.5065 10.2944 14.5105 10.7073 13.5985 11.2696C13.5142 11.3215 13.4185 11.3521 13.3197 11.3587C13.221 11.3654 13.1221 11.3478 13.0316 11.3077L11.3811 10.5747L9.57667 12.3791L10.3098 14.0297C10.35 14.1202 10.3675 14.219 10.3609 14.3178C10.3543 14.4166 10.3237 14.5122 10.2718 14.5965C9.70959 15.5086 9.29664 16.5045 9.04857 17.5468C9.02569 17.6431 8.97968 17.7323 8.91454 17.8068C8.8494 17.8813 8.76709 17.9389 8.67472 17.9744L6.99056 18.6227V21.1744L8.67472 21.8227C8.76708 21.8583 8.84939 21.9158 8.91453 21.9903C8.97967 22.0648 9.02567 22.1541 9.04857 22.2504C9.29657 23.2927 9.70952 24.2886 10.2718 25.2006C10.3237 25.2849 10.3543 25.3806 10.3609 25.4793C10.3675 25.5781 10.35 25.677 10.3098 25.7675L9.57667 27.418L11.381 29.2225L13.0311 28.4896C13.1215 28.4495 13.2204 28.4319 13.3192 28.4386C13.418 28.4452 13.5136 28.4758 13.5979 28.5277C14.5102 29.09 15.5064 29.503 16.5489 29.751C16.6452 29.7739 16.7344 29.82 16.809 29.8851C16.8835 29.9503 16.941 30.0326 16.9765 30.1249L17.6246 31.8087H20.1764L20.8247 30.1244C20.8603 30.0321 20.9178 29.9498 20.9923 29.8846C21.0668 29.8195 21.156 29.7734 21.2523 29.7505C22.2946 29.5025 23.2905 29.0896 24.2025 28.5273C24.2868 28.4754 24.3824 28.4449 24.4812 28.4382C24.5799 28.4316 24.6788 28.4491 24.7693 28.4892L26.42 29.2224L28.2244 27.418L27.4915 25.768C27.4514 25.6775 27.4338 25.5786 27.4405 25.4798C27.4471 25.3811 27.4777 25.2854 27.5296 25.2011C28.0919 24.2889 28.5049 23.2927 28.753 22.2501C28.7759 22.1539 28.8219 22.0646 28.887 21.9901C28.9522 21.9156 29.0345 21.8581 29.1269 21.8225L30.8106 21.1744V18.6227L29.1264 17.9744C29.034 17.9389 28.9517 17.8814 28.8866 17.8069C28.8214 17.7324 28.7754 17.6431 28.7526 17.5468C28.5045 16.5046 28.0915 15.5086 27.5292 14.5966C27.4774 14.5123 27.4468 14.4167 27.4402 14.3179C27.4335 14.2191 27.4511 14.1202 27.4912 14.0298L28.2244 12.3791L26.42 10.5747L24.7699 11.3075C24.6794 11.3477 24.5805 11.3652 24.4818 11.3585C24.383 11.3519 24.2873 11.3213 24.203 11.2694C23.2908 10.7071 22.2946 10.2941 21.2521 10.0461C21.1558 10.0232 21.0665 9.97718 20.992 9.91203C20.9175 9.84688 20.86 9.76456 20.8244 9.67219L20.1764 7.98849H17.6246L16.9764 9.67249C16.9409 9.76489 16.8834 9.84723 16.8089 9.9124C16.7344 9.97757 16.6451 10.0236 16.5488 10.0465ZM18.9006 11.9178C23.3012 11.9178 26.8813 15.498 26.8813 19.8986C26.8813 24.2992 23.3012 27.8795 18.9006 27.8795C14.5 27.8795 10.9197 24.2993 10.9197 19.8986C10.9197 15.498 14.4999 11.9178 18.9006 11.9178ZM12.1384 19.8986C12.1384 23.6273 15.1719 26.6607 18.9005 26.6607C22.6291 26.6607 25.6625 23.6273 25.6625 19.8986C25.6625 16.17 22.6291 13.1366 18.9005 13.1366C15.1719 13.1366 12.1384 16.17 12.1384 19.8986ZM17.9822 23.3259C18.035 23.3401 18.0881 23.3468 18.1403 23.3468C18.2744 23.3467 18.4047 23.3023 18.5111 23.2206C18.6174 23.1389 18.6938 23.0245 18.7286 22.8949L20.2498 17.2177C20.2916 17.0616 20.2697 16.8953 20.1889 16.7553C20.1081 16.6153 19.975 16.5132 19.8189 16.4714C19.6628 16.4295 19.4964 16.4514 19.3565 16.5322C19.2165 16.6131 19.1144 16.7462 19.0726 16.9023L17.5513 22.5794C17.5306 22.6567 17.5253 22.7374 17.5357 22.8167C17.5462 22.8961 17.5721 22.9726 17.6121 23.0419C17.6522 23.1113 17.7054 23.172 17.7689 23.2207C17.8324 23.2695 17.9049 23.3052 17.9822 23.3259ZM13.7795 20.3647L16.2582 22.4534C16.3679 22.5461 16.507 22.5969 16.6506 22.5967C16.7394 22.5969 16.8272 22.5775 16.9078 22.5401C16.9883 22.5027 17.0597 22.448 17.1168 22.38C17.1684 22.3188 17.2074 22.2481 17.2317 22.1718C17.2559 22.0955 17.2649 22.0152 17.2581 21.9355C17.2512 21.8558 17.2288 21.7781 17.192 21.7071C17.1552 21.636 17.1048 21.5729 17.0436 21.5213L15.1179 19.8986L17.0436 18.2759C17.301 18.059 17.3338 17.6746 17.1168 17.4172C16.8999 17.1598 16.5155 17.127 16.2582 17.3439L13.7795 19.4326C13.7116 19.4898 13.6571 19.5612 13.6196 19.6417C13.5822 19.7222 13.5628 19.8099 13.5628 19.8986C13.5628 19.9874 13.5822 20.0751 13.6196 20.1556C13.6571 20.2361 13.7116 20.3075 13.7795 20.3647ZM20.6843 22.3801C20.7414 22.4481 20.8128 22.5027 20.8934 22.5402C20.9739 22.5776 21.0617 22.5969 21.1505 22.5968C21.2892 22.5968 21.4286 22.5497 21.5429 22.4534L24.0215 20.3647C24.0894 20.3075 24.144 20.2362 24.1814 20.1557C24.2189 20.0752 24.2383 19.9875 24.2383 19.8987C24.2383 19.8099 24.2189 19.7222 24.1814 19.6417C24.144 19.5612 24.0894 19.4899 24.0215 19.4327L21.5429 17.344C21.4193 17.2399 21.2594 17.1891 21.0984 17.2028C20.9374 17.2166 20.7884 17.2937 20.6843 17.4173C20.6327 17.4785 20.5937 17.5492 20.5695 17.6255C20.5452 17.7018 20.5363 17.7821 20.5431 17.8618C20.5499 17.9415 20.5723 18.0191 20.6091 18.0902C20.6459 18.1613 20.6964 18.2244 20.7576 18.276L22.6832 19.8986L20.7576 21.5214C20.6964 21.573 20.6459 21.6361 20.6091 21.7072C20.5723 21.7782 20.5499 21.8558 20.5431 21.9356C20.5363 22.0153 20.5452 22.0956 20.5695 22.1719C20.5937 22.2481 20.6327 22.3189 20.6843 22.3801Z" fill="black"/>
</g>
<defs>
<clipPath id="clip0_245_8812">
<rect width="39" height="39" fill="white"/>
</clipPath>
</defs>
</svg>
