<svg width="41" height="41" viewBox="0 0 41 41" fill="none" xmlns="http://www.w3.org/2000/svg">
<path d="M37.8366 2.08203H3.16277C2.5789 2.08271 2.01916 2.31499 1.60636 2.72791C1.19357 3.14082 0.961446 3.70064 0.960938 4.2845V27.2131C0.961446 27.797 1.19357 28.3568 1.60636 28.7697C2.01916 29.1826 2.5789 29.4149 3.16277 29.4156H14.0938V35.0742H12.1911C11.8604 35.0747 11.5435 35.2063 11.3097 35.4401C11.0759 35.6739 10.9443 35.9909 10.9438 36.3215V37.6707C10.9443 38.0013 11.0759 38.3183 11.3097 38.5521C11.5435 38.7859 11.8604 38.9175 12.1911 38.918H28.8089C29.1396 38.9175 29.4565 38.7859 29.6903 38.5521C29.9241 38.3183 30.0557 38.0013 30.0562 37.6707V36.3215C30.0557 35.9909 29.9241 35.6739 29.6903 35.4401C29.4565 35.2063 29.1396 35.0747 28.8089 35.0742H26.9062V29.4149H37.8366C38.4203 29.4144 38.9801 29.1824 39.393 28.7697C39.8059 28.3571 40.0382 27.7975 40.0391 27.2137V4.2845C40.0386 3.70053 39.8063 3.14061 39.3934 2.72768C38.9805 2.31475 38.4206 2.08254 37.8366 2.08203ZM28.775 37.6367L12.225 37.6707L12.1911 36.3555L28.775 36.3215V37.6367ZM25.625 35.0742H15.375V29.4149H25.625V35.0742ZM38.7578 27.2131C38.7576 27.4574 38.6605 27.6916 38.4878 27.8643C38.3151 28.037 38.0809 28.1342 37.8366 28.1343H3.16277C2.9185 28.134 2.68435 28.0367 2.51174 27.8639C2.33914 27.691 2.24219 27.4567 2.24219 27.2125V4.2845C2.24236 4.04034 2.33938 3.80622 2.51197 3.63351C2.68455 3.46081 2.91861 3.36362 3.16277 3.36328H37.8366C38.0809 3.36345 38.3151 3.46056 38.4878 3.63329C38.6605 3.80601 38.7576 4.04023 38.7578 4.2845V27.2131ZM26.1279 14.3333C26.1449 14.3458 26.1592 14.3615 26.1701 14.3796C26.181 14.3976 26.1882 14.4176 26.1914 14.4384C26.1945 14.4592 26.1936 14.4805 26.1885 14.5009C26.1834 14.5214 26.1744 14.5406 26.1618 14.5576L25.4751 15.4871C25.4499 15.5213 25.4121 15.5442 25.37 15.5505C25.328 15.5569 25.2851 15.5463 25.2509 15.5211C25.2166 15.4958 25.1938 15.458 25.1875 15.416C25.1811 15.3739 25.1917 15.3311 25.2169 15.2968L25.9043 14.3667C25.9298 14.3328 25.9676 14.3103 26.0096 14.304C26.0515 14.2978 26.0936 14.3083 26.1279 14.3333ZM21.386 10.225C21.386 10.1825 21.4029 10.1418 21.4329 10.1118C21.4629 10.0817 21.5037 10.0649 21.5461 10.0649H22.9414C22.9839 10.0649 23.0246 10.0817 23.0547 10.1118C23.0847 10.1418 23.1016 10.1825 23.1016 10.225C23.1016 10.2675 23.0847 10.3082 23.0547 10.3383C23.0246 10.3683 22.9839 10.3852 22.9414 10.3852H21.5461C21.5037 10.3852 21.4629 10.3683 21.4329 10.3383C21.4029 10.3082 21.386 10.2675 21.386 10.225ZM17.8984 10.225C17.8984 10.1825 17.9153 10.1418 17.9453 10.1118C17.9754 10.0817 18.0161 10.0649 18.0586 10.0649H19.4532C19.4957 10.0649 19.5364 10.0817 19.5665 10.1118C19.5965 10.1418 19.6134 10.1825 19.6134 10.225C19.6134 10.2675 19.5965 10.3082 19.5665 10.3383C19.5364 10.3683 19.4957 10.3852 19.4532 10.3852H18.0592C18.0167 10.3852 17.976 10.3683 17.946 10.3383C17.9159 10.3082 17.8991 10.2675 17.8991 10.225H17.8984ZM15.7491 15.5211C15.7322 15.5336 15.7129 15.5426 15.6925 15.5477C15.672 15.5528 15.6508 15.5538 15.63 15.5506C15.6091 15.5475 15.5891 15.5402 15.5711 15.5293C15.5531 15.5184 15.5374 15.5041 15.5249 15.4871L14.8382 14.5569C14.8143 14.5227 14.8047 14.4805 14.8115 14.4394C14.8182 14.3982 14.8408 14.3613 14.8744 14.3365C14.9079 14.3117 14.9498 14.301 14.9911 14.3066C15.0325 14.3123 15.07 14.3338 15.0957 14.3667L15.7831 15.2968C15.7956 15.3138 15.8046 15.333 15.8097 15.3535C15.8148 15.3739 15.8158 15.3952 15.8126 15.416C15.8095 15.4368 15.8022 15.4568 15.7913 15.4749C15.7804 15.4929 15.7661 15.5086 15.7491 15.5211ZM24.9927 18.1867L23.91 17.6076L24.4443 16.883C24.4682 16.8488 24.4778 16.8066 24.471 16.7655C24.4642 16.7243 24.4417 16.6874 24.4081 16.6626C24.3746 16.6378 24.3327 16.6271 24.2913 16.6327C24.25 16.6384 24.2125 16.6599 24.1868 16.6928L23.6243 17.4551L20.8024 15.9445C20.7093 15.8948 20.6055 15.8688 20.5 15.8688C20.3945 15.8688 20.2907 15.8948 20.1976 15.9445L17.3757 17.4545L16.8132 16.6921C16.7879 16.658 16.75 16.6353 16.708 16.629C16.6659 16.6228 16.6231 16.6335 16.589 16.6588C16.5548 16.6841 16.5321 16.722 16.5259 16.764C16.5196 16.8061 16.5304 16.8489 16.5557 16.883L17.0906 17.6069L16.0079 18.1867C15.9056 18.2414 15.82 18.3228 15.7603 18.4223C15.7006 18.5218 15.6691 18.6357 15.669 18.7517V24.6378C15.6691 24.7537 15.7006 24.8673 15.7602 24.9667C15.8197 25.0661 15.9051 25.1475 16.0073 25.2022L20.1976 27.4444C20.2906 27.4942 20.3945 27.5202 20.5 27.5202C20.6055 27.5202 20.7094 27.4942 20.8024 27.4444L24.9921 25.2022C25.0943 25.1476 25.1799 25.0662 25.2396 24.9669C25.2992 24.8675 25.3308 24.7537 25.331 24.6378V18.7511C25.331 18.6351 25.2996 18.5213 25.24 18.4218C25.1804 18.3223 25.0949 18.2414 24.9927 18.1867ZM20.5 17.236L23.3322 18.7517L20.5 20.2675L17.6678 18.7517L20.5 17.236ZM16.9503 19.8209L19.8594 21.3777V25.8108L16.9503 24.2541V19.8209ZM21.1406 25.8108V21.3777L24.0497 19.8209V24.2541L21.1406 25.8108ZM16.6024 12.7459V6.85981C16.6024 6.74394 16.5709 6.63026 16.5113 6.53087C16.4517 6.43148 16.3663 6.35011 16.2642 6.29542L12.0739 4.05323C11.9808 4.00355 11.877 3.97756 11.7715 3.97756C11.666 3.97756 11.5622 4.00355 11.4691 4.05323L7.27942 6.29542C7.17706 6.35008 7.09146 6.43151 7.03177 6.53103C6.97208 6.63055 6.94055 6.74441 6.94053 6.86045V12.7459C6.94048 12.8619 6.97192 12.9757 7.0315 13.0752C7.09107 13.1747 7.17653 13.2562 7.27878 13.3109L11.4691 15.5531C11.5621 15.6029 11.666 15.6289 11.7715 15.6289C11.877 15.6289 11.9809 15.6029 12.0739 15.5531L16.2635 13.3109C16.3659 13.2562 16.4515 13.1748 16.5112 13.0753C16.5709 12.9758 16.6024 12.8619 16.6024 12.7459ZM11.7715 5.34473L14.6037 6.85981L11.7715 8.37553L8.93928 6.85981L11.7715 5.34473ZM8.22178 7.92902L11.1309 9.48573V13.9189L8.22178 12.3621V7.92902ZM12.4121 13.9189V9.48573L15.3212 7.92902V12.3621L12.4121 13.9189ZM33.7212 6.29542L29.5309 4.05323C29.4378 4.00355 29.334 3.97756 29.2285 3.97756C29.123 3.97756 29.0192 4.00355 28.9261 4.05323L24.7365 6.29542C24.6342 6.35003 24.5486 6.43136 24.489 6.53076C24.4293 6.63015 24.3977 6.74388 24.3976 6.85981V12.7459C24.3975 12.8619 24.429 12.9757 24.4885 13.0752C24.5481 13.1747 24.6336 13.2562 24.7358 13.3109L28.9261 15.5531C29.0191 15.6029 29.123 15.6289 29.2285 15.6289C29.334 15.6289 29.4379 15.6029 29.5309 15.5531L33.7206 13.3109C33.8229 13.2562 33.9085 13.1748 33.9682 13.0753C34.0279 12.9758 34.0595 12.8619 34.0595 12.7459V6.85981C34.0594 6.74394 34.0279 6.63026 33.9683 6.53087C33.9088 6.43148 33.8234 6.35011 33.7212 6.29542ZM29.2285 5.34473L32.0607 6.85981L29.2285 8.37553L26.3963 6.85981L29.2285 5.34473ZM25.6788 7.92902L28.5879 9.48573V13.9189L25.6788 12.3621V7.92902ZM29.8691 13.9189V9.48573L32.7782 7.92902V12.3621L29.8691 13.9189Z" fill="black"/>
</svg>
