<svg width="38" height="38" viewBox="0 0 38 38" fill="none" xmlns="http://www.w3.org/2000/svg">
<g clip-path="url(#clip0_245_8767)">
<path d="M24.2254 37.9998H14.3691C14.0129 37.9998 13.7754 37.7029 13.7754 37.4061V34.6748C13.7754 34.3186 14.0723 34.0811 14.3691 34.0811C14.666 34.0811 14.9629 34.3779 14.9629 34.6748V36.8123H23.5723V34.6748C23.5723 34.3186 23.8691 34.0811 24.166 34.0811C24.4629 34.0811 24.7598 34.3779 24.7598 34.6748V37.4061C24.8191 37.7623 24.5223 37.9998 24.2254 37.9998Z" fill="black"/>
<path d="M26.9563 38H11.6375C11.2812 38 11.0437 37.7031 11.0437 37.4062C11.0437 37.1094 11.3406 36.8125 11.6375 36.8125H26.9563C27.3125 36.8125 27.55 37.1094 27.55 37.4062C27.55 37.7031 27.2531 38 26.9563 38ZM37.4062 26.3625H1.1875C0.83125 26.3625 0.59375 26.0656 0.59375 25.7688V13.775C0.59375 13.4188 0.890625 13.1813 1.1875 13.1813C1.48438 13.1813 1.78125 13.4781 1.78125 13.775V25.1156H36.8125V7.77813C36.8125 6.76875 35.9813 5.9375 34.9719 5.9375H15.5563C15.2 5.9375 14.9625 5.64062 14.9625 5.34375C14.9625 5.04688 15.2594 4.75 15.5563 4.75H34.9719C36.6344 4.75 38 6.11563 38 7.77813V25.7688C38 26.0656 37.7031 26.3625 37.4062 26.3625Z" fill="black"/>
<path d="M34.9719 32.8344H3.5625C1.9 32.8344 0.59375 31.4687 0.59375 29.8062V25.7094C0.59375 25.3531 0.890625 25.1156 1.1875 25.1156H37.4062C37.7625 25.1156 38 25.4125 38 25.7094V29.8062C38 31.4687 36.6344 32.8344 34.9719 32.8344ZM1.78125 26.3625V29.8062C1.78125 30.8156 2.6125 31.6469 3.62188 31.6469H35.0312C36.0406 31.6469 36.8719 30.8156 36.8719 29.8062V26.3625H1.78125Z" fill="black"/>
<path d="M19.2969 30.8156C18.2875 30.8156 17.5156 29.9843 17.5156 29.0343C17.5156 28.025 18.3469 27.2531 19.2969 27.2531C20.3063 27.2531 21.0781 28.0843 21.0781 29.0343C21.0781 29.9843 20.3063 30.8156 19.2969 30.8156ZM19.2969 28.3812C18.9406 28.3812 18.7031 28.6781 18.7031 28.9749C18.7031 29.3312 19 29.5687 19.2969 29.5687C19.6531 29.5687 19.8906 29.2718 19.8906 28.9749C19.8906 28.6781 19.5938 28.3812 19.2969 28.3812ZM19.6531 23.6312H18.8813C18.2281 23.6312 17.6344 23.1562 17.5156 22.5031L17.3375 21.3156C17.3375 21.2562 17.2781 21.1968 17.2188 21.1968C17.0406 21.1375 16.8625 21.0781 16.6844 20.9593C16.625 20.9593 16.5656 20.9 16.5062 20.9593L15.5563 21.6718C15.0219 22.0875 14.25 22.0281 13.775 21.5531L13.2406 20.9593C12.7656 20.4843 12.7063 19.7718 13.1219 19.2375L13.8344 18.2875C13.8937 18.2281 13.8937 18.1687 13.8344 18.1093C13.775 17.9312 13.6562 17.7531 13.5969 17.575L13.4781 17.4562L12.2906 17.2781C11.7563 17.2187 11.2812 16.625 11.2812 15.9718V15.1406C11.2812 14.4875 11.7562 13.8937 12.4094 13.775L13.5969 13.5968C13.6562 13.5968 13.7156 13.5375 13.7156 13.4781C13.775 13.3 13.8344 13.1218 13.9531 12.9437V12.825L13.1813 11.875C12.7656 11.3406 12.825 10.6281 13.3 10.1531L13.8344 9.55933C14.3094 9.08433 15.0812 9.02495 15.6156 9.44058L16.5656 10.1531C16.625 10.2125 16.6844 10.1531 16.7438 10.1531C16.9219 10.0937 17.1 9.97495 17.2781 9.91558C17.3375 9.91558 17.3969 9.8562 17.3969 9.79683L17.575 8.60933C17.6938 7.9562 18.2281 7.4812 18.9406 7.4812H19.7125C20.3656 7.4812 20.9594 7.9562 21.0781 8.60933L21.2563 9.79683C21.2563 9.8562 21.3156 9.91558 21.375 9.91558C21.5531 9.97495 21.7313 10.0343 21.9094 10.1531H22.0875L23.0375 9.44058C23.5719 9.08433 24.3438 9.08433 24.8188 9.55933L25.3531 10.1531C25.8281 10.6281 25.8875 11.3406 25.4719 11.875L24.7594 12.825C24.7 12.8843 24.7 12.9437 24.7594 13.0031C24.8188 13.1812 24.9375 13.3593 24.9969 13.5375C24.9969 13.5968 25.0563 13.6562 25.1156 13.6562L26.3031 13.8343C26.9563 13.9531 27.4313 14.4875 27.4313 15.2V16.0312C27.4313 16.6843 26.9563 17.2781 26.3031 17.3968L25.1156 17.575C25.0563 17.575 24.9969 17.6343 24.9969 17.6937C24.9375 17.8718 24.8781 18.05 24.7594 18.2281V18.3468L25.4719 19.2968C25.8875 19.8312 25.8281 20.5437 25.3531 21.0187L24.8188 21.6125C24.3438 22.0875 23.5719 22.1468 23.0375 21.7312L21.9688 20.9593C21.9094 20.9 21.85 20.9 21.7906 20.9593C21.6125 21.0187 21.4344 21.1375 21.2563 21.1968C21.1969 21.1968 21.1969 21.2562 21.1969 21.3156L21.0188 22.5031C20.9 23.1562 20.3656 23.6312 19.6531 23.6312ZM16.6844 19.7718C16.8625 19.7718 17.1 19.8312 17.2781 19.8906C17.3969 19.95 17.575 20.0093 17.6938 20.0687C18.1688 20.2468 18.4656 20.6624 18.5844 21.1375L18.7625 22.325C18.7625 22.3843 18.8219 22.4437 18.8813 22.4437H19.6531C19.7125 22.4437 19.7719 22.3843 19.7719 22.325L19.95 21.1375C20.0094 20.6624 20.3656 20.2468 20.8406 20.0687C21.0188 20.0093 21.1375 19.95 21.2563 19.8906C21.6719 19.7125 22.2656 19.7125 22.6219 20.0093L23.5719 20.7218C23.6313 20.7812 23.6906 20.7812 23.75 20.7218L24.2844 20.1281C24.3438 20.0687 24.3438 20.0093 24.2844 19.95L23.6906 19C23.3938 18.5843 23.3344 18.1093 23.5719 17.6343C23.6313 17.5156 23.6906 17.3375 23.75 17.2187C23.9281 16.7437 24.3438 16.3875 24.8188 16.3281L25.9469 16.15C26.0063 16.15 26.0656 16.0906 26.0656 16.0312V15.2C26.0656 15.1406 26.0063 15.0812 25.9469 15.0812L24.7594 14.9031C24.2844 14.8437 23.8688 14.4875 23.6906 14.0125C23.6313 13.8343 23.5719 13.7156 23.5125 13.5968C23.275 13.1218 23.3344 12.5875 23.6313 12.2312L24.3438 11.2812C24.4031 11.2218 24.4031 11.1625 24.3438 11.1031L23.8094 10.5687C23.75 10.5093 23.6906 10.5093 23.6313 10.5687L22.6813 11.2812C22.325 11.5781 21.7313 11.6375 21.3156 11.4C21.1969 11.3406 21.0188 11.2812 20.9 11.2218C20.425 11.0437 20.1281 10.6281 20.0094 10.1531L19.8313 8.96558C19.8313 8.9062 19.7719 8.84683 19.7125 8.84683H18.9406C18.8813 8.84683 18.8219 8.9062 18.8219 8.96558L18.6438 10.1531C18.5844 10.6281 18.2281 11.0437 17.7531 11.2218C17.6344 11.2812 17.4563 11.3406 17.3375 11.4C16.9219 11.5781 16.3281 11.5781 15.9719 11.2812L15.0219 10.5687C14.9625 10.5093 14.9031 10.5093 14.8438 10.5687L14.3094 11.1625C14.25 11.2218 14.25 11.2812 14.3094 11.3406L15.0219 12.2906C15.3187 12.7062 15.3781 13.1812 15.1406 13.6562C15.0813 13.775 15.0219 13.9531 14.9625 14.0718C14.7844 14.5468 14.3688 14.9031 13.8937 14.9625L12.7656 15.1406C12.7063 15.1406 12.6469 15.2 12.6469 15.2593V16.0906C12.6469 16.15 12.7063 16.2093 12.7656 16.2093L13.9531 16.3875C14.4281 16.4468 14.8438 16.8031 15.0219 17.2781C15.0812 17.4562 15.1406 17.575 15.2 17.6937C15.4375 18.1687 15.3781 18.7031 15.0813 19.0593L14.3688 20.0093C14.3094 20.0687 14.3094 20.1281 14.3688 20.1875L14.9031 20.7218C14.9625 20.7812 15.0219 20.7812 15.0813 20.7218L16.0313 20.0093C16.0906 19.8312 16.3875 19.7718 16.6844 19.7718Z" fill="black"/>
<path d="M19.2969 18.9406C17.3969 18.9406 15.9125 17.3969 15.9125 15.5563C15.9125 13.7156 17.4563 12.1719 19.2969 12.1719C21.1969 12.1719 22.6813 13.7156 22.6813 15.5563C22.6813 17.3969 21.1375 18.9406 19.2969 18.9406ZM19.2969 13.3594C18.1094 13.3594 17.1 14.3688 17.1 15.5563C17.1 16.7438 18.1094 17.7531 19.2969 17.7531C20.4844 17.7531 21.4938 16.7438 21.4938 15.5563C21.4938 14.3688 20.4844 13.3594 19.2969 13.3594ZM7.3625 14.1906H6.70938C6.11563 14.1906 5.58125 13.7156 5.4625 13.1219L5.28438 12.1125C5.10625 11.9938 4.92813 11.9344 4.75 11.875L3.91875 12.4688C3.38438 12.825 2.67188 12.7656 2.25625 12.35L1.84063 11.875C1.425 11.4594 1.36563 10.7469 1.72188 10.2719L2.31563 9.44063L2.1375 8.90625L1.06875 8.72812C0.475 8.60938 0 8.075 0 7.48125V6.76875C0 6.175 0.475 5.64062 1.06875 5.52187L2.07813 5.34375L2.1375 5.28437C2.19688 5.10625 2.25625 4.9875 2.31563 4.80938L1.72188 3.91875C1.36563 3.38438 1.425 2.73125 1.84063 2.31562L2.31563 1.84062C2.73125 1.425 3.44375 1.36563 3.97813 1.72188L4.80938 2.31562L5.34375 2.1375L5.52188 1.06875C5.64063 0.475 6.175 0 6.76875 0H7.42188C8.01563 0 8.55 0.475 8.66875 1.06875L8.84688 2.07812L8.90625 2.1375C9.08438 2.19688 9.20313 2.25625 9.38125 2.31562L10.2719 1.72188C10.7469 1.36563 11.5188 1.425 11.9344 1.84062L12.4094 2.31562C12.825 2.73125 12.8844 3.44375 12.5281 3.91875L11.9344 4.75L12.1125 5.28437L13.1813 5.4625C13.775 5.58125 14.25 6.11562 14.25 6.70937V7.42188C14.25 8.075 13.775 8.55 13.1813 8.66875L12.1719 8.84688C12.0531 9.025 11.9938 9.20312 11.9344 9.38125L12.5281 10.2719C12.8844 10.7469 12.825 11.4594 12.4094 11.875L11.9344 12.35C11.5188 12.7656 10.7469 12.825 10.2719 12.4688L9.44063 11.875L8.90625 12.0531L8.72813 13.1219C8.55 13.775 8.01563 14.1906 7.3625 14.1906ZM4.80938 10.6875C4.9875 10.6875 5.16563 10.7469 5.34375 10.8063L5.7 10.9844C6.11563 11.1625 6.4125 11.5188 6.53125 11.9938L6.70938 13.0031L7.42188 13.0625C7.42188 13.0625 7.48125 13.0625 7.48125 13.0031L7.65938 11.9938C7.71875 11.5188 8.01563 11.1625 8.49063 10.9844C8.60938 10.925 8.72813 10.8656 8.84688 10.8656C9.2625 10.6281 9.79688 10.6875 10.1531 10.9844L10.9844 11.5781H11.0438L11.5188 11.1031V11.0437L10.925 10.2125C10.6281 9.85625 10.6281 9.38125 10.8063 8.90625L10.9844 8.55C11.1625 8.13438 11.5188 7.77812 11.9938 7.71875L12.9438 7.54063L13.0031 7.48125V6.76875L12.9438 6.70937L11.8156 6.53125C11.3406 6.47188 10.9844 6.175 10.8063 5.7C10.8063 5.58125 10.7469 5.4625 10.6875 5.34375C10.5094 4.92812 10.5094 4.39375 10.8063 4.0375L11.4 3.20625V3.14688L10.925 2.67188H10.8656L10.0344 3.26562C9.67813 3.5625 9.14375 3.5625 8.72813 3.38437L8.37188 3.20625C7.95625 3.02813 7.65938 2.67188 7.54063 2.19688L7.3625 1.1875H6.70938C6.70938 1.1875 6.65 1.1875 6.65 1.24687L6.47188 2.25625C6.4125 2.73125 6.11563 3.0875 5.64063 3.26562C5.58125 3.325 5.4625 3.325 5.34375 3.38437C4.92813 3.62187 4.39375 3.5625 4.0375 3.26562L3.20625 2.67188H3.14688L2.67188 3.14688V3.20625L3.26563 4.0375C3.5625 4.45312 3.62188 4.92812 3.38438 5.34375C3.325 5.4625 3.26563 5.58125 3.26563 5.7C3.0875 6.11563 2.73125 6.47188 2.25625 6.53125L1.24688 6.70937L1.1875 6.76875V7.48125L1.24688 7.54063L2.25625 7.71875C2.73125 7.77812 3.0875 8.075 3.26563 8.55L3.44375 8.90625C3.62188 9.32187 3.62188 9.85625 3.325 10.2125L2.73125 11.0437V11.1031L3.20625 11.5781L3.5625 11.9938L3.20625 11.5188L4.0375 10.925C4.275 10.7469 4.5125 10.6875 4.80938 10.6875Z" fill="black"/>
<path d="M7.06523 10.0936C5.34336 10.0936 4.03711 8.7873 4.03711 7.1248C4.03711 5.4623 5.34336 4.09668 7.06523 4.09668C8.78711 4.09668 10.0934 5.40293 10.0934 7.1248C10.0934 8.84668 8.72773 10.0936 7.06523 10.0936ZM7.06523 5.28418C6.05586 5.28418 5.22461 6.11543 5.22461 7.1248C5.22461 8.13418 6.05586 8.96543 7.06523 8.96543C8.07461 8.96543 8.90586 8.13418 8.90586 7.1248C8.84648 6.11543 8.01523 5.28418 7.06523 5.28418Z" fill="black"/>
</g>
<defs>
<clipPath id="clip0_245_8767">
<rect width="38" height="38" fill="white"/>
</clipPath>
</defs>
</svg>
