<svg width="40" height="40" viewBox="0 0 40 40" fill="none" xmlns="http://www.w3.org/2000/svg">
<path d="M28.1248 28.0937C28.0161 28.0938 27.9092 28.0654 27.8148 28.0112L21.3861 24.3375C21.3128 24.2979 21.2481 24.244 21.196 24.179C21.1438 24.1141 21.1051 24.0393 21.0822 23.9592C21.0594 23.8791 21.0528 23.7952 21.0628 23.7125C21.0728 23.6298 21.0992 23.5499 21.1406 23.4776C21.1819 23.4052 21.2373 23.3419 21.3035 23.2912C21.3697 23.2406 21.4453 23.2037 21.5259 23.1828C21.6066 23.1618 21.6906 23.1572 21.773 23.1691C21.8555 23.1811 21.9347 23.2094 22.0061 23.2525L28.1248 26.7487L35.6148 22.4687L28.1248 18.1887L19.6848 23.0112C19.6136 23.0519 19.535 23.0782 19.4536 23.0886C19.3722 23.0989 19.2896 23.0931 19.2104 23.0715C19.1313 23.05 19.0571 23.013 18.9923 22.9627C18.9274 22.9125 18.873 22.85 18.8323 22.7787C18.7916 22.7075 18.7653 22.6289 18.755 22.5475C18.7446 22.4661 18.7504 22.3835 18.772 22.3043C18.7936 22.2252 18.8306 22.151 18.8808 22.0862C18.9311 22.0213 18.9936 21.9669 19.0648 21.9262L27.8148 16.9262C27.9092 16.8722 28.0161 16.8438 28.1248 16.8438C28.2336 16.8438 28.3404 16.8722 28.4348 16.9262L37.1848 21.9262C37.2804 21.9809 37.3599 22.0599 37.4151 22.1552C37.4704 22.2504 37.4995 22.3586 37.4995 22.4687C37.4995 22.5789 37.4704 22.687 37.4151 22.7823C37.3599 22.8776 37.2804 22.9566 37.1848 23.0112L28.4348 28.0112C28.3405 28.0654 28.2336 28.0938 28.1248 28.0937Z" fill="black"/>
<path d="M28.125 38.7188C28.0428 38.7193 27.9613 38.7035 27.8852 38.6722C27.8092 38.641 27.7401 38.595 27.682 38.5368C27.6238 38.4787 27.5778 38.4096 27.5466 38.3335C27.5153 38.2575 27.4995 38.176 27.5 38.0938V27.4688C27.5 27.3586 27.5292 27.2504 27.5845 27.1552C27.6398 27.0599 27.7194 26.9809 27.815 26.9263L36.565 21.9263C36.6602 21.8725 36.7677 21.8443 36.8771 21.8445C36.9864 21.8447 37.0938 21.8733 37.1888 21.9275C37.3813 22.04 37.5 22.2463 37.5 22.4688V33.0938C37.5 33.2039 37.4708 33.3121 37.4155 33.4074C37.3602 33.5027 37.2807 33.5816 37.185 33.6363L28.435 38.6363C28.3407 38.6904 28.2338 38.7188 28.125 38.7188ZM28.75 27.8313V37.0163L36.25 32.7313V23.5463L28.75 27.8313Z" fill="black"/>
<path d="M28.125 38.7188C28.0162 38.7188 27.9094 38.6904 27.815 38.6363L19.065 33.6363C18.9693 33.5817 18.8898 33.5027 18.8345 33.4074C18.7792 33.3122 18.75 33.204 18.75 33.0938V22.4688C18.75 22.3593 18.7788 22.2518 18.8335 22.157C18.8881 22.0622 18.9667 21.9833 19.0613 21.9284C19.156 21.8735 19.2634 21.8444 19.3729 21.844C19.4823 21.8436 19.59 21.872 19.685 21.9263L28.435 26.9263C28.5307 26.9809 28.6102 27.0599 28.6655 27.1552C28.7208 27.2504 28.75 27.3586 28.75 27.4688V38.0938C28.7493 38.2593 28.6833 38.4179 28.5662 38.535C28.4491 38.6521 28.2906 38.7181 28.125 38.7188ZM20 32.7313L27.5 37.0163V27.8313L20 23.5463V32.7313Z" fill="black"/>
<path d="M10.625 38.7188C10.5428 38.7193 10.4613 38.7035 10.3852 38.6722C10.3092 38.641 10.2401 38.595 10.182 38.5368C10.1238 38.4787 10.0778 38.4096 10.0466 38.3335C10.0153 38.2575 9.99951 38.176 10 38.0938V27.4688C10 27.3586 10.0292 27.2504 10.0845 27.1552C10.1398 27.0599 10.2194 26.9809 10.315 26.9263L19.065 21.9263C19.1602 21.8725 19.2677 21.8443 19.3771 21.8445C19.4864 21.8447 19.5938 21.8733 19.6888 21.9275C19.8813 22.04 20 22.2463 20 22.4688V33.0938C20 33.2039 19.9708 33.3121 19.9155 33.4074C19.8602 33.5027 19.7807 33.5816 19.685 33.6363L10.935 38.6363C10.8407 38.6904 10.7338 38.7188 10.625 38.7188ZM11.25 27.8313V37.0163L18.75 32.7313V23.5463L11.25 27.8313Z" fill="black"/>
<path d="M10.625 38.7187C10.5162 38.7188 10.4094 38.6903 10.315 38.6362L1.565 33.6362C1.46934 33.5816 1.38982 33.5026 1.33451 33.4074C1.27919 33.3121 1.25004 33.2039 1.25 33.0937V22.4687C1.25004 22.3593 1.27881 22.2518 1.33345 22.1569C1.38809 22.0621 1.46667 21.9833 1.56134 21.9283C1.65601 21.8734 1.76344 21.8443 1.87289 21.8439C1.98234 21.8436 2.08996 21.872 2.185 21.9262L10.935 26.9262C11.0307 26.9809 11.1102 27.0598 11.1655 27.1551C11.2208 27.2504 11.25 27.3586 11.25 27.4687V38.0937C11.2493 38.2593 11.1833 38.4179 11.0662 38.535C10.9491 38.652 10.7906 38.7181 10.625 38.7187ZM2.5 32.7312L10 37.0162V27.8312L2.5 23.5462V32.7312ZM19.375 12.5C19.2662 12.5 19.1593 12.4716 19.065 12.4175L10.315 7.41749C10.2194 7.3628 10.14 7.28383 10.0847 7.18856C10.0295 7.09329 10.0004 6.98512 10.0004 6.87499C10.0004 6.76486 10.0295 6.65668 10.0847 6.56142C10.14 6.46615 10.2194 6.38718 10.315 6.33249L19.065 1.33249C19.1594 1.27844 19.2662 1.25 19.375 1.25C19.4838 1.25 19.5906 1.27844 19.685 1.33249L28.435 6.33249C28.5306 6.38718 28.61 6.46615 28.6653 6.56142C28.7205 6.65668 28.7496 6.76486 28.7496 6.87499C28.7496 6.98512 28.7205 7.09329 28.6653 7.18856C28.61 7.28383 28.5306 7.3628 28.435 7.41749L19.685 12.4175C19.5906 12.4716 19.4838 12.5 19.375 12.5ZM11.885 6.87499L19.375 11.155L26.865 6.87499L19.375 2.59499L11.885 6.87499Z" fill="black"/>
<path d="M19.375 23.125C19.2928 23.1255 19.2113 23.1097 19.1352 23.0785C19.0592 23.0472 18.9901 23.0012 18.932 22.9431C18.8738 22.8849 18.8278 22.8159 18.7966 22.7398C18.7653 22.6637 18.7495 22.5822 18.75 22.5V11.875C18.75 11.7649 18.7792 11.6567 18.8345 11.5614C18.8898 11.4661 18.9694 11.3872 19.065 11.3325L27.815 6.33253C27.9102 6.2787 28.0177 6.25051 28.1271 6.25073C28.2364 6.25095 28.3438 6.27957 28.4388 6.33378C28.6313 6.44628 28.75 6.65253 28.75 6.87503V17.5C28.75 17.6102 28.7208 17.7184 28.6655 17.8137C28.6102 17.9089 28.5307 17.9879 28.435 18.0425L19.685 23.0425C19.5907 23.0966 19.4838 23.1251 19.375 23.125ZM20 12.2375V21.4225L27.5 17.1375V7.95253L20 12.2375Z" fill="black"/>
<path d="M19.375 23.1249C19.2093 23.1249 19.0503 23.059 18.9331 22.9418C18.8159 22.8246 18.75 22.6656 18.75 22.4999V12.2374L11.25 7.95238V14.3749C11.25 14.5406 11.1842 14.6996 11.067 14.8168C10.9498 14.934 10.7908 14.9999 10.625 14.9999C10.4593 14.9999 10.3003 14.934 10.1831 14.8168C10.0659 14.6996 10 14.5406 10 14.3749V6.87488C9.99891 6.76499 10.027 6.65677 10.0813 6.56126C10.1357 6.46575 10.2144 6.38637 10.3095 6.33121C10.4045 6.27606 10.5125 6.24711 10.6224 6.24732C10.7323 6.24752 10.8402 6.27687 10.935 6.33238L19.685 11.3324C19.7807 11.387 19.8602 11.466 19.9155 11.5612C19.9708 11.6565 20 11.7647 20 11.8749V22.4999C20 22.6656 19.9342 22.8246 19.817 22.9418C19.6998 23.059 19.5408 23.1249 19.375 23.1249Z" fill="black"/>
<path d="M10.6246 28.0937C10.5159 28.0938 10.409 28.0654 10.3146 28.0112L1.56465 23.0112C1.46905 22.9566 1.38961 22.8776 1.33435 22.7823C1.2791 22.687 1.25 22.5789 1.25 22.4687C1.25 22.3586 1.2791 22.2504 1.33435 22.1552C1.38961 22.0599 1.46905 21.9809 1.56465 21.9262L10.3146 16.9262C10.409 16.8722 10.5159 16.8437 10.6246 16.8438C10.7334 16.8437 10.8403 16.8722 10.9346 16.9262L16.7359 20.2412C16.8092 20.2809 16.8738 20.3347 16.926 20.3997C16.9782 20.4646 17.0169 20.5394 17.0397 20.6195C17.0626 20.6996 17.0692 20.7835 17.0592 20.8662C17.0492 20.9489 17.0227 21.0288 16.9814 21.1012C16.9401 21.1735 16.8847 21.2369 16.8185 21.2875C16.7523 21.3381 16.6767 21.375 16.596 21.396C16.5154 21.4169 16.4314 21.4216 16.3489 21.4096C16.2665 21.3976 16.1872 21.3693 16.1159 21.3262L10.6246 18.1887L3.13465 22.4687L10.6246 26.7487L19.0646 21.9262C19.2085 21.844 19.3792 21.8223 19.539 21.8659C19.6989 21.9095 19.8349 22.0149 19.9171 22.1587C19.9994 22.3026 20.0211 22.4733 19.9775 22.6331C19.9339 22.793 19.8285 22.929 19.6846 23.0112L10.9346 28.0112C10.8403 28.0654 10.7334 28.0938 10.6246 28.0937Z" fill="black"/>
</svg>
