<svg width="43" height="38" viewBox="0 0 43 38" fill="none" xmlns="http://www.w3.org/2000/svg">
<path d="M40.6904 3.09857H29.3598C29.3479 3.09857 29.3363 3.09966 29.3246 3.10032C28.9062 2.71068 28.4593 2.3524 27.9875 2.02843C27.85 1.93425 27.6805 1.89802 27.5162 1.92769C27.3519 1.95736 27.2061 2.05051 27.111 2.18667C27.016 2.32293 26.9794 2.49103 27.0093 2.65403C27.0392 2.81702 27.1332 2.96155 27.2706 3.05585C30.0527 4.9646 31.7136 8.10423 31.7136 11.4542C31.7136 17.0813 27.0972 21.6593 21.423 21.6593C15.7488 21.6593 11.1325 17.0813 11.1325 11.4542C11.1325 5.82727 15.7488 1.24929 21.423 1.24929C22.5494 1.24929 23.6564 1.42844 24.7132 1.78182C24.7915 1.80807 24.8744 1.81875 24.9569 1.81324C25.0394 1.80773 25.1201 1.78615 25.1942 1.74972C25.2683 1.71328 25.3345 1.66272 25.3889 1.60092C25.4433 1.53912 25.4849 1.46729 25.5113 1.38954C25.5377 1.31182 25.5484 1.22969 25.5429 1.14785C25.5373 1.06601 25.5155 0.986053 25.4788 0.912556C25.4421 0.83906 25.3911 0.773459 25.3288 0.7195C25.2665 0.665541 25.1941 0.624281 25.1157 0.598077C23.9289 0.201219 22.6865 0 21.423 0C15.0541 0 9.8727 5.13833 9.8727 11.4542C9.8727 17.7702 15.0541 22.9086 21.423 22.9086C27.7919 22.9086 32.9734 17.7702 32.9734 11.4542C32.9734 8.84356 32.0741 6.34731 30.4797 4.34786H40.6904C41.2693 4.34786 41.7402 4.81485 41.7402 5.38894V25.0489H36.7581C36.4102 25.0489 36.1282 25.3285 36.1282 25.6736C36.1282 26.0186 36.4102 26.2982 36.7581 26.2982H41.7402V29.5787C41.7402 30.1528 41.2693 30.6198 40.6904 30.6198H2.30957C1.73067 30.6198 1.25977 30.1528 1.25977 29.5787V26.2982H33.5859C33.9338 26.2982 34.2157 26.0186 34.2157 25.6736C34.2157 25.3285 33.9338 25.0489 33.5859 25.0489H1.25977V5.38894C1.25977 4.81485 1.73067 4.34786 2.30957 4.34786H9.82096C10.1689 4.34786 10.4508 4.06827 10.4508 3.72322C10.4508 3.37816 10.1689 3.09857 9.82096 3.09857H2.30957C1.03603 3.09857 0 4.12607 0 5.38894V29.5786C0 30.8415 1.03603 31.869 2.30957 31.869H16.1163V36.7507H14.2147C13.8667 36.7507 13.5848 37.0303 13.5848 37.3754C13.5848 37.7204 13.8667 38 14.2147 38H28.6313C28.9792 38 29.2612 37.7204 29.2612 37.3754C29.2612 37.0303 28.9792 36.7507 28.6313 36.7507H26.7297V31.869H40.6904C41.964 31.869 43 30.8415 43 29.5786V5.38894C43 4.12607 41.964 3.09857 40.6904 3.09857ZM25.47 36.7508H17.376V31.8691H25.47V36.7508Z" fill="black"/>
<path d="M16.935 6.46462C16.8006 5.75844 16.1771 5.24573 15.4523 5.24573H14.7788C14.4308 5.24573 14.1489 5.52532 14.1489 5.87037C14.1489 6.21543 14.4308 6.49502 14.7788 6.49502H15.4523C15.5104 6.49505 15.5666 6.51518 15.6113 6.55193C15.656 6.58868 15.6863 6.63975 15.6971 6.69632L17.5612 16.4878C17.5884 16.6308 17.6652 16.7599 17.7782 16.8528C17.8912 16.9457 18.0334 16.9965 18.1802 16.9965H18.6051C18.4118 17.2095 18.3049 17.486 18.305 17.7726C18.305 18.4164 18.8313 18.9384 19.4805 18.9384C20.1297 18.9384 20.656 18.4164 20.656 17.7726C20.656 17.4741 20.542 17.2027 20.3559 16.9965H22.9471C22.7538 17.2095 22.6469 17.486 22.647 17.7726C22.647 18.4164 23.1733 18.9384 23.8225 18.9384C24.4717 18.9384 24.998 18.4164 24.998 17.7726C24.998 17.4741 24.884 17.2027 24.6979 16.9965H25.2647C25.6126 16.9965 25.8945 16.7169 25.8945 16.3718C25.8945 16.0268 25.6126 15.7472 25.2647 15.7472H18.702L18.445 14.3974H25.4844C25.6312 14.3974 25.7733 14.3466 25.8863 14.2538C25.9992 14.161 26.076 14.0319 26.1033 13.889L27.2213 8.04006L27.2233 8.02881C27.2609 7.81019 27.1998 7.58765 27.0556 7.41816C26.9846 7.33453 26.896 7.26733 26.796 7.22126C26.696 7.17519 26.5871 7.15138 26.4768 7.15148H17.0658L16.935 6.46462ZM17.8745 11.3991H19.5929L19.7219 13.1481H18.2075L17.8745 11.3991ZM22.3725 11.3991L22.2436 13.1481H20.985L20.8561 11.3991H22.3725ZM20.764 10.1498L20.6351 8.40085H22.5935L22.4645 10.1498H20.764ZM23.5068 13.1481L23.6357 11.3991H25.2972L24.9629 13.1481H23.5068ZM25.5361 10.1498H23.7278L23.8567 8.40085H25.8704L25.5361 10.1498ZM19.3719 8.40085L19.5008 10.1498H17.6366L17.3036 8.40085H19.3719ZM4.10278 20.5908H7.82841C8.17636 20.5908 8.4583 20.3113 8.4583 19.9662C8.4583 19.6211 8.17636 19.3416 7.82841 19.3416H4.10278C3.75484 19.3416 3.4729 19.6211 3.4729 19.9662C3.4729 20.3113 3.75484 20.5908 4.10278 20.5908ZM4.10278 23.4083H11.0545C11.4025 23.4083 11.6844 23.1287 11.6844 22.7837C11.6844 22.4386 11.4025 22.159 11.0545 22.159H4.10278C3.75484 22.159 3.4729 22.4386 3.4729 22.7837C3.4729 23.1287 3.75484 23.4083 4.10278 23.4083ZM37.367 6.70448C37.2843 6.70447 37.2023 6.72062 37.1259 6.75201C37.0495 6.7834 36.9801 6.82941 36.9216 6.88741C36.8631 6.94542 36.8167 7.01428 36.785 7.09007C36.7534 7.16586 36.7371 7.24709 36.7371 7.32913V8.89249H35.1606C34.8127 8.89249 34.5307 9.17208 34.5307 9.51714C34.5307 9.86219 34.8127 10.1418 35.1606 10.1418H36.7371V11.7051C36.7371 12.0502 37.019 12.3298 37.367 12.3298C37.7149 12.3298 37.9969 12.0502 37.9969 11.7051V10.1418H39.5732C39.9212 10.1418 40.2031 9.86219 40.2031 9.51714C40.2031 9.17208 39.9212 8.89249 39.5732 8.89249H37.9969V7.32913C37.9969 7.16346 37.9305 7.00458 37.8124 6.88744C37.6942 6.77029 37.534 6.70448 37.367 6.70448Z" fill="black"/>
</svg>
