<svg width="37" height="37" viewBox="0 0 37 37" fill="none" xmlns="http://www.w3.org/2000/svg">
<path d="M32.2969 15.2349C32.1353 15.2349 31.9803 15.2991 31.866 15.4134L30.0379 17.2415L30.8996 18.1032L32.5492 16.4536H36.5625V15.2349H32.2969ZM32.9062 17.6724H36.5625V18.8911H32.9062V17.6724ZM32.9062 20.1099H36.5625V21.3286H32.9062V20.1099ZM5.66292 18.1032L6.52458 17.2415L4.69645 15.4134C4.5822 15.2991 4.42723 15.2349 4.26562 15.2349H0V16.4536H4.01334L5.66292 18.1032ZM0 17.6724H3.65625V18.8911H0V17.6724ZM0 20.1099H3.65625V21.3286H0V20.1099Z" fill="black"/>
<path d="M29.3782 23.2579C34.5438 29.9001 35.868 33.958 34.9125 34.9135C34.4506 35.3741 33.2629 35.2565 31.6383 34.6088C31.7412 34.0953 31.6761 33.5624 31.4525 33.0889C31.2289 32.6154 30.8587 32.2265 30.3969 31.9797C29.935 31.733 29.4059 31.6416 28.888 31.719C28.3701 31.7964 27.8909 32.0385 27.5214 32.4095C26.3371 31.6502 25.1833 30.8443 24.0626 29.994C26.5409 29.5552 28.6402 28.763 28.6402 27.4224V16.1581C29.9729 14.5591 31.1862 12.9894 32.2447 11.4757C32.4591 11.5408 32.6817 11.5754 32.9058 11.5787C33.3757 11.5807 33.8361 11.4463 34.2311 11.1917C34.6261 10.9371 34.9386 10.5733 35.1308 10.1445C35.323 9.7157 35.3865 9.2403 35.3137 8.77607C35.2409 8.31183 35.0348 7.87873 34.7205 7.52936C36.5377 4.17293 36.8924 1.90666 35.7742 0.788457C33.297 -1.68865 25.7335 3.70554 22.374 6.32768C21.0149 6.17544 19.6485 6.09752 18.2808 6.09429C14.6977 6.09429 7.92145 6.73108 7.92145 9.14116V14.2361C2.6138 7.60858 0.559596 2.74272 1.64916 1.65011C2.10985 1.18821 3.29874 1.30582 4.92333 1.9548C4.82024 2.46822 4.88524 3.00118 5.1087 3.47477C5.33216 3.94836 5.70219 4.3374 6.16401 4.58427C6.62583 4.83114 7.15487 4.92273 7.6728 4.84546C8.19073 4.76819 8.67001 4.52617 9.03966 4.15525C9.78051 4.6272 10.5086 5.11894 11.223 5.62994L11.9324 4.63849C11.1849 4.10402 10.4231 3.58993 9.64781 3.09677C9.71216 2.88298 9.74641 2.66127 9.74958 2.43804C9.75194 1.9396 9.60075 1.45253 9.31657 1.04304C9.03238 0.633551 8.62898 0.321513 8.16122 0.149347C7.69346 -0.0228184 7.18402 -0.046758 6.70217 0.0807831C6.22033 0.208324 5.78945 0.481158 5.46811 0.862192C3.22927 -0.0469958 1.65281 -0.0786834 0.787502 0.788457C-1.35933 2.93529 2.34324 9.44585 7.92145 16.149V20.403C6.78473 21.7624 5.6981 23.1628 4.66374 24.6016C4.13277 24.3575 3.53156 24.3132 2.97055 24.4768C2.40953 24.6404 1.92637 25.0009 1.60981 25.4921C1.29325 25.9833 1.16455 26.5723 1.24734 27.1508C1.33013 27.7293 1.61886 28.2585 2.06049 28.6412C0.0605177 32.2127 -0.373357 34.613 0.787502 35.7751C1.02122 35.9899 1.29585 36.1554 1.59499 36.2617C1.89412 36.368 2.21162 36.4129 2.52849 36.3936C5.13661 36.3936 9.50339 33.8763 14.1712 30.2341C15.5358 30.3874 16.9077 30.466 18.2808 30.4693C19.6491 30.4661 21.0161 30.3881 22.3758 30.2359C23.9645 31.476 25.4977 32.568 26.9138 33.4656C26.8493 33.6797 26.8151 33.9019 26.8121 34.1255C26.81 34.6239 26.9615 35.1108 27.2458 35.5201C27.5301 35.9294 27.9335 36.2413 28.4012 36.4134C28.869 36.5854 29.3783 36.6093 29.8601 36.4819C30.3419 36.3544 30.7727 36.0816 31.0942 35.7008C32.0127 36.1164 33.0008 36.3568 34.0076 36.4095C34.3297 36.4286 34.6524 36.3822 34.9561 36.2732C35.2598 36.1641 35.5383 35.9947 35.7748 35.7751C38.2519 33.298 32.7998 25.6729 30.341 22.5096L29.3782 23.2579ZM7.31208 1.21929C7.55313 1.21929 7.78876 1.29076 7.98918 1.42468C8.1896 1.5586 8.34581 1.74894 8.43806 1.97164C8.5303 2.19434 8.55444 2.43939 8.50741 2.6758C8.46039 2.91222 8.34431 3.12938 8.17387 3.29982C8.00342 3.47027 7.78626 3.58634 7.54985 3.63337C7.31343 3.68039 7.06838 3.65626 6.84568 3.56401C6.62299 3.47177 6.43264 3.31556 6.29873 3.11514C6.16481 2.91471 6.09333 2.67908 6.09333 2.43804C6.09333 2.1148 6.22173 1.80481 6.45029 1.57625C6.67885 1.34769 6.98885 1.21929 7.31208 1.21929ZM27.4215 21.3287C27.4215 21.7181 25.6902 22.5188 22.4246 22.9185L22.6714 22.6748C24.3127 21.0343 25.897 19.3378 27.4215 17.5883V21.3287ZM9.1402 22.8771C11.2553 24.0276 15.6361 24.3755 18.2808 24.3755C18.5581 24.3755 18.8567 24.3713 19.1681 24.3627C17.4492 25.971 15.6653 27.5083 13.8208 28.9708C10.7611 28.5601 9.1402 27.799 9.1402 27.4224V22.8771ZM18.2808 23.1568C17.4886 23.1568 16.7501 23.1324 16.0566 23.091C15.6175 22.6683 15.1822 22.2417 14.7507 21.8113C13.2151 20.2757 11.8135 18.7888 10.546 17.3507C13.0727 17.997 15.673 18.31 18.2808 18.2818C20.8869 18.31 23.4856 17.9976 26.0107 17.3525C24.2521 19.3368 22.4163 21.2513 20.5075 23.0916C19.7661 23.1352 19.0235 23.1569 18.2808 23.1568ZM9.1402 10.689C11.0092 11.7152 14.755 12.188 18.2808 12.188C21.7884 12.188 25.5482 11.7158 27.4215 10.6896V15.2349C27.4215 15.7657 24.2186 17.063 18.2808 17.063C12.3431 17.063 9.1402 15.7657 9.1402 15.2349V10.689ZM32.9058 10.3599C32.6648 10.3599 32.4291 10.2884 32.2287 10.1545C32.0283 10.0206 31.8721 9.83025 31.7798 9.60756C31.6876 9.38486 31.6635 9.13981 31.7105 8.90339C31.7575 8.66698 31.8736 8.44982 32.044 8.27937C32.2145 8.10893 32.4316 7.99285 32.6681 7.94583C32.9045 7.8988 33.1495 7.92294 33.3722 8.01518C33.5949 8.10743 33.7853 8.26364 33.9192 8.46406C34.0531 8.66448 34.1246 8.90011 34.1246 9.14116C34.1246 9.46439 33.9962 9.77439 33.7676 10.0029C33.5391 10.2315 33.2291 10.3599 32.9058 10.3599ZM34.9125 1.65011C35.4219 2.15955 35.3391 3.78963 33.7011 6.84808C33.446 6.75553 33.1771 6.7067 32.9058 6.70366C32.4239 6.704 31.9529 6.84719 31.5524 7.11513C31.1518 7.38306 30.8396 7.76372 30.6553 8.209C30.4711 8.65428 30.4229 9.1442 30.5169 9.61685C30.611 10.0895 30.843 10.5237 31.1837 10.8645C30.3721 12.0146 29.5238 13.1385 28.6402 14.2343V9.14116C28.6402 7.80054 26.5409 7.00835 24.0614 6.5696C30.2246 1.91702 33.9875 0.723863 34.9125 1.65011ZM18.2808 7.31304C24.2186 7.31304 27.4215 8.61039 27.4215 9.14116V9.18016L27.4099 9.17468C27.0315 9.92725 23.6488 10.9693 18.2808 10.9693C12.9025 10.9693 9.46622 9.90227 9.14752 9.16432H9.1402V9.14116C9.1402 8.61039 12.3431 7.31304 18.2808 7.31304ZM13.8891 22.6736C13.9725 22.757 14.056 22.8356 14.1395 22.9173C10.8727 22.5194 9.1402 21.7181 9.1402 21.3287V17.5798C10.6405 19.308 12.248 21.0295 13.8891 22.6736ZM3.65583 25.5943C3.89688 25.5943 4.13251 25.6658 4.33293 25.7997C4.53335 25.9336 4.68956 26.1239 4.78181 26.3466C4.87405 26.5693 4.89819 26.8144 4.85116 27.0508C4.80414 27.2872 4.68806 27.5044 4.51762 27.6748C4.34717 27.8453 4.13001 27.9613 3.8936 28.0084C3.65718 28.0554 3.41213 28.0313 3.18943 27.939C2.96674 27.8468 2.77639 27.6906 2.64248 27.4901C2.50856 27.2897 2.43708 27.0541 2.43708 26.813C2.43708 26.4898 2.56548 26.1798 2.79404 25.9512C3.0226 25.7227 3.3326 25.5943 3.65583 25.5943ZM1.64916 34.9135C1.11169 34.376 1.23844 32.5899 3.147 29.1951C3.31417 29.2315 3.48474 29.2501 3.65583 29.2505C4.3023 29.2505 4.92228 28.9937 5.3794 28.5366C5.83652 28.0795 6.09333 27.4595 6.09333 26.813C6.09184 26.2929 5.92234 25.7872 5.6101 25.3713C6.31372 24.3853 7.08417 23.3697 7.92145 22.3244V27.4224C7.92145 28.763 10.0165 29.5552 12.4918 29.9928C6.76364 34.2907 2.64061 35.9043 1.64916 34.9135ZM18.2808 29.2505C17.3632 29.251 16.4458 29.2169 15.5307 29.1482C17.4295 27.5931 19.2674 25.9651 21.0401 24.2677C23.3648 24.0928 25.9443 23.6802 27.4215 22.8771V27.4224C27.4215 27.799 25.8005 28.5601 22.7415 28.9708C21.9371 28.3342 21.1227 27.6639 20.2985 26.9599L19.5063 27.8855C20.0133 28.32 20.5178 28.7387 21.02 29.1488C20.1085 29.2169 19.1948 29.2509 18.2808 29.2505ZM29.2496 35.3443C29.0085 35.3443 28.7729 35.2728 28.5725 35.1389C28.3721 35.005 28.2158 34.8146 28.1236 34.5919C28.0314 34.3692 28.0072 34.1242 28.0542 33.8878C28.1013 33.6514 28.2173 33.4342 28.3878 33.2637C28.5582 33.0933 28.7754 32.9772 29.0118 32.9302C29.2482 32.8832 29.4933 32.9073 29.716 32.9996C29.9387 33.0918 30.129 33.248 30.2629 33.4484C30.3968 33.6489 30.4683 33.8845 30.4683 34.1255C30.4683 34.4488 30.3399 34.7588 30.1114 34.9873C29.8828 35.2159 29.5728 35.3443 29.2496 35.3443Z" fill="black"/>
</svg>
