<svg width="49" height="49" viewBox="0 0 49 49" fill="none" xmlns="http://www.w3.org/2000/svg">
<path d="M23.8684 38.2909C23.7152 38.5685 23.3707 38.6737 23.0932 38.5206C22.8156 38.3675 22.7104 38.0229 22.8635 37.7454L27.84 28.6536C28.0602 28.2517 28.6535 28.2421 28.8641 28.6919L33.3717 37.6688C33.6205 38.1761 33.0654 38.712 32.5678 38.4153L27.017 35.2188C26.749 35.0657 26.6533 34.7116 26.8064 34.4341C26.9596 34.1565 27.3137 34.0704 27.5816 34.2235L31.4863 36.4821L28.3186 30.1657L23.8684 38.2909ZM34.7498 27.1894C36.75 27.1798 38.5875 28.3569 39.3914 30.204C43.3057 30.07 46.6074 33.2569 46.6074 37.219C46.6074 41.0089 43.5928 44.1192 39.8125 44.2245H39.7838L19.4564 44.2341C16.7576 44.2341 14.3746 42.7028 13.1975 40.3868H2.9668C2.65098 40.3868 2.39258 40.1284 2.39258 39.8126V5.34033C2.39258 5.02451 2.65098 4.76611 2.9668 4.76611H32.8549C33.1707 4.76611 33.4291 5.02451 33.4291 5.34033V24.5575C33.9937 25.3519 34.4436 26.2323 34.7498 27.1894ZM12.7381 39.2384C11.7619 36.0036 13.2453 32.5487 16.2121 30.9983C15.6762 25.4093 20.0689 20.5667 25.6867 20.5667C28.2133 20.5667 30.5484 21.562 32.2807 23.2272V17.4468H3.54102V39.2384H12.7381ZM36.8936 28.9599C36.1662 28.4909 35.2857 28.2612 34.3957 28.3569C34.1182 28.3952 33.8406 28.2134 33.7736 27.9358C32.8166 24.3183 29.5148 21.7247 25.6771 21.7247C20.5857 21.7247 16.6811 26.2323 17.3893 31.2663C17.4275 31.5151 17.2936 31.764 17.0543 31.8692C13.3123 33.5345 12.384 38.4632 15.3029 41.3726C16.3652 42.4349 17.8295 43.0856 19.4564 43.0856H39.7838C41.3629 43.0378 42.7793 42.3583 43.8129 41.296C46.1098 38.9226 45.9949 35.1136 43.5545 32.8837C42.3678 31.7927 40.7408 31.2185 39.066 31.3716C38.8076 31.3907 38.5588 31.2376 38.4727 30.9792C38.176 30.1179 37.6113 29.4192 36.8936 28.9599ZM14.5469 13.1306C14.7957 13.322 14.8436 13.6856 14.6521 13.9345C14.4607 14.1833 14.0971 14.2312 13.8482 14.0397L10.6135 11.561C10.3072 11.3218 10.3168 10.872 10.623 10.6423L13.8578 8.16357C14.1066 7.97217 14.4703 8.02002 14.6617 8.26885C14.8531 8.51768 14.8053 8.88135 14.5564 9.07275L11.8959 11.1017L14.5469 13.1306ZM19.0449 7.98174C19.2076 7.7042 19.5521 7.61807 19.8297 7.77119C20.1072 7.93389 20.1934 8.27842 20.0402 8.55596L16.7672 14.2216C16.6141 14.4991 16.26 14.5853 15.9824 14.4321C15.7049 14.2694 15.6092 13.9249 15.7719 13.6474L19.0449 7.98174ZM21.9734 14.0397C21.7246 14.2312 21.3609 14.1833 21.1695 13.9345C20.9781 13.6856 21.026 13.322 21.2748 13.1306L23.9162 11.1017L21.2748 9.07275C21.026 8.88135 20.9781 8.51768 21.1695 8.26885C21.3609 8.02002 21.7246 7.97217 21.9734 8.16357L25.2082 10.6423C25.5049 10.872 25.524 11.3218 25.2178 11.561L21.9734 14.0397ZM6.60352 31.9937C6.2877 31.9937 6.0293 31.7353 6.0293 31.4194C6.0293 31.1036 6.2877 30.8452 6.60352 30.8452H10.8432C11.159 30.8452 11.4174 31.1036 11.4174 31.4194C11.4174 31.7353 11.159 31.9937 10.8432 31.9937H6.60352ZM6.60352 28.4048C6.2877 28.4048 6.0293 28.1464 6.0293 27.8306C6.0293 27.5147 6.2877 27.2563 6.60352 27.2563H15.0828C15.3986 27.2563 15.657 27.5147 15.657 27.8306C15.657 28.1464 15.3986 28.4048 15.0828 28.4048H6.60352ZM6.60352 24.8159C6.2877 24.8159 6.0293 24.5575 6.0293 24.2417C6.0293 23.9259 6.2877 23.6675 6.60352 23.6675H15.0828C15.3986 23.6675 15.657 23.9259 15.657 24.2417C15.657 24.5575 15.3986 24.8159 15.0828 24.8159H6.60352ZM6.60352 21.2271C6.2877 21.2271 6.0293 20.9687 6.0293 20.6528C6.0293 20.337 6.2877 20.0786 6.60352 20.0786H15.0828C15.3986 20.0786 15.657 20.337 15.657 20.6528C15.657 20.9687 15.3986 21.2271 15.0828 21.2271H6.60352ZM32.2807 5.91455H3.54102V16.2983H32.2807V5.91455Z" fill="black"/>
</svg>
