<svg width="51" height="51" viewBox="0 0 51 51" fill="none" xmlns="http://www.w3.org/2000/svg">
<path d="M47.8117 28.7999C47.8938 22.0862 41.4447 16.9535 35.3574 19.3394C35.4653 17.9719 35.3028 16.5966 34.8791 15.2919C34.4555 13.9872 33.779 12.7788 32.8884 11.7355C31.0896 9.62859 28.5275 8.32252 25.7658 8.10463C24.3983 7.99674 23.023 8.15925 21.7183 8.58288C20.4136 9.00651 19.2052 9.68297 18.1619 10.5736C16.055 12.3724 14.749 14.9345 14.5311 17.6962C8.21184 18.1799 3.18754 22.9389 3.18754 28.6238C3.174 33.158 6.40453 37.4005 11.2312 38.8477L28.0612 38.8469C28.9829 40.2894 30.2972 41.439 31.8496 42.1603C33.4021 42.8816 35.1282 43.1448 36.8251 42.919C38.522 42.6931 40.1192 41.9875 41.4289 40.8852C42.7386 39.7828 43.7064 38.3295 44.2186 36.6961C45.3524 35.7174 46.2607 34.5047 46.8809 33.1415C47.5012 31.7782 47.8188 30.2976 47.8117 28.7999ZM11.3842 37.2173C0.495699 32.9404 4.11112 19.5665 15.4809 19.2398C15.6366 19.2113 15.7794 19.1345 15.8891 19.0204C15.9988 18.9063 16.0698 18.7606 16.0921 18.6039C16.0739 17.3478 16.3233 16.1022 16.8239 14.95C17.3244 13.7978 18.0646 12.7654 18.9952 11.9214C19.9257 11.0775 21.0253 10.4414 22.2208 10.0555C23.4163 9.66958 24.6802 9.54266 25.9286 9.68317C27.1769 9.82369 28.381 10.2284 29.4608 10.8705C30.5406 11.5125 31.4713 12.3771 32.1909 13.4068C32.9106 14.4365 33.4027 15.6076 33.6346 16.8422C33.8665 18.0769 33.8328 19.3467 33.5357 20.5674C33.4867 20.7416 33.4976 20.9272 33.5667 21.0945C33.6357 21.2618 33.7589 21.4011 33.9166 21.49C34.0742 21.5789 34.2571 21.6123 34.436 21.5849C34.6149 21.5575 34.7794 21.4708 34.9032 21.3387C35.9848 20.7169 37.2096 20.3874 38.4572 20.3825C44.9024 20.3355 48.4102 28.6325 44.6067 33.8624C44.5553 31.517 43.5884 29.2847 41.9127 27.6428C40.237 26.0009 37.9855 25.0797 35.6395 25.0761C29.4948 24.951 24.9614 31.5387 27.2484 37.2173H11.3842ZM35.6395 41.4024C33.6911 41.4003 31.8231 40.6254 30.4454 39.2477C29.0677 37.87 28.2928 36.002 28.2907 34.0537C28.6764 24.3111 42.6042 24.3143 42.9883 34.0537C42.9862 36.002 42.2112 37.87 40.8335 39.2477C39.4558 40.6254 37.5878 41.4003 35.6395 41.4024Z" fill="black"/>
<path d="M36.2155 27.7901C36.0617 27.6389 35.8546 27.5542 35.639 27.5542C35.4233 27.5542 35.2162 27.6389 35.0624 27.7901L33.7141 29.1385C33.5649 29.2874 33.4796 29.4887 33.4764 29.6995C33.4732 29.9103 33.5522 30.1141 33.6968 30.2676C33.8414 30.4211 34.0401 30.5122 34.2507 30.5216C34.4613 30.5309 34.6673 30.4579 34.825 30.3178V32.412C34.825 32.628 34.9108 32.8352 35.0635 32.9879C35.2162 33.1406 35.4234 33.2264 35.6394 33.2264C35.8554 33.2264 36.0625 33.1406 36.2152 32.9879C36.368 32.8352 36.4538 32.628 36.4538 32.412V30.3178C36.6118 30.4553 36.8169 30.5263 37.0261 30.5159C37.2353 30.5054 37.4323 30.4144 37.5759 30.2619C37.7194 30.1094 37.7984 29.9072 37.7961 29.6977C37.7939 29.4883 37.7106 29.2879 37.5638 29.1385L36.2155 27.7901ZM36.4538 37.7893V35.6951C36.4538 35.4791 36.368 35.272 36.2152 35.1193C36.0625 34.9665 35.8554 34.8807 35.6394 34.8807C35.4234 34.8807 35.2162 34.9665 35.0635 35.1193C34.9108 35.272 34.825 35.4791 34.825 35.6951V37.7893C34.6669 37.6518 34.4618 37.5809 34.2526 37.5913C34.0434 37.6017 33.8464 37.6927 33.7028 37.8453C33.5593 37.9978 33.4803 38.2 33.4826 38.4094C33.4849 38.6189 33.5681 38.8193 33.7149 38.9687L35.0624 40.317C35.216 40.4686 35.4232 40.5536 35.639 40.5536C35.8548 40.5536 36.0619 40.4686 36.2155 40.317L37.5638 38.9687C37.7106 38.8193 37.7939 38.6189 37.7961 38.4094C37.7984 38.2 37.7194 37.9978 37.5759 37.8453C37.4323 37.6927 37.2353 37.6017 37.0261 37.5913C36.8169 37.5809 36.6118 37.6518 36.4538 37.7893Z" fill="black"/>
</svg>
