<svg width="38" height="38" viewBox="0 0 38 38" fill="none" xmlns="http://www.w3.org/2000/svg">
<g clip-path="url(#clip0_245_8913)">
<path d="M34.6154 6.56176C29.3871 5.12919 24.128 2.89855 19.4068 0.11105C19.2837 0.0383497 19.1434 0 19.0004 0C18.8575 0 18.7172 0.0383497 18.5941 0.11105C13.7366 2.97863 8.76175 5.08859 3.38498 6.56176C3.216 6.60805 3.06691 6.70857 2.96065 6.84788C2.85439 6.98718 2.79685 7.15754 2.79688 7.33274V15.5002C2.79688 23.9109 6.67695 29.4782 9.93203 32.6674C13.4363 36.1011 17.5184 38 19.0004 38C20.4824 38 24.5644 36.1011 28.0687 32.6674C31.3237 29.4782 35.2035 23.911 35.2035 15.5002V7.33267C35.2035 6.97256 34.9628 6.65683 34.6154 6.56176ZM33.6049 15.5001C33.6049 23.3556 29.9859 28.5506 26.9498 31.5254C23.5037 34.902 19.8193 36.4012 19.0004 36.4012C18.1816 36.4012 14.4969 34.902 11.0508 31.5254C8.01474 28.5505 4.39562 23.3556 4.39562 15.5001V7.93948C9.53733 6.4796 14.3258 4.44222 19.0006 1.7256C23.5586 4.37016 28.586 6.50884 33.6049 7.93918V15.5001Z" fill="black"/>
<path d="M11.916 7.84997C11.7543 7.43917 11.2902 7.23737 10.8793 7.39924C9.44589 7.9638 7.99288 8.47725 6.52302 8.93862C6.36063 8.98956 6.21873 9.091 6.11799 9.22817C6.01724 9.36535 5.96291 9.53109 5.96289 9.70129V12.7881C5.96289 13.2296 6.32085 13.5875 6.76223 13.5875C7.20361 13.5875 7.56156 13.2296 7.56156 12.7881V10.2855C8.87701 9.85978 10.1789 9.39327 11.4653 8.88659C11.8761 8.72487 12.0779 8.26078 11.916 7.84997ZM13.4345 8.0016C13.5417 8.0016 13.6506 7.98001 13.755 7.93444L13.7697 7.92805C14.1742 7.75082 14.3563 7.28005 14.1791 6.87578C14.0017 6.47136 13.5282 6.28841 13.1243 6.4655L13.1113 6.47106C12.7067 6.64778 12.524 7.11818 12.7007 7.52267C12.8318 7.82296 13.1261 8.0016 13.4345 8.0016ZM28.525 25.7748C28.1556 25.5334 27.6603 25.6372 27.4186 26.0068C26.7599 27.015 25.9871 27.9804 25.1214 28.876C24.4094 29.6125 23.643 30.2944 22.8286 30.9159C22.4776 31.1835 22.4101 31.6851 22.6776 32.0362C22.7522 32.1342 22.8485 32.2136 22.9588 32.2682C23.0692 32.3228 23.1907 32.3511 23.3138 32.351C23.4829 32.351 23.6532 32.2976 23.798 32.1872C24.6762 31.5169 25.5028 30.7815 26.2707 29.9872C27.2067 29.0191 28.0431 27.9741 28.757 26.8812C28.9985 26.5116 28.8946 26.0163 28.525 25.7748ZM20.9722 32.1695L20.9264 32.1965C20.5444 32.4178 20.4138 32.9067 20.635 33.2887C20.6875 33.3796 20.7575 33.4593 20.8408 33.5231C20.9242 33.5869 21.0193 33.6337 21.1207 33.6608C21.2221 33.6878 21.3279 33.6946 21.432 33.6807C21.536 33.6669 21.6364 33.6326 21.7272 33.58L21.7801 33.5489C22.1611 33.3258 22.289 32.8362 22.0659 32.4552C21.8427 32.0744 21.353 31.9466 20.9722 32.1695ZM13.5526 17.3685C13.0618 16.8776 12.4091 16.6075 11.7148 16.6075C11.0206 16.6075 10.3678 16.8777 9.87674 17.3685C8.86343 18.3821 8.86343 20.0312 9.87674 21.0447L14.5968 25.7645C15.0876 26.2553 15.7404 26.5255 16.4347 26.5255C17.129 26.5255 17.7818 26.2553 18.2727 25.7644L28.1261 15.9109C29.1393 14.8972 29.1393 13.2483 28.1259 12.2351C27.6351 11.7442 26.9823 11.4741 26.2879 11.4741C25.5936 11.4741 24.9408 11.7443 24.4499 12.2351L16.4346 20.2504L13.5526 17.3685ZM25.5804 13.3656C25.6731 13.2724 25.7834 13.1986 25.9049 13.1483C26.0263 13.098 26.1565 13.0724 26.288 13.0727C26.5555 13.0727 26.8066 13.1767 26.9957 13.3656C27.3857 13.7556 27.3857 14.3905 26.9955 14.7807L17.1423 24.634C16.9534 24.8228 16.702 24.9268 16.4347 24.9268C16.1674 24.9268 15.916 24.8228 15.727 24.634L11.0072 19.9142C10.617 19.5241 10.617 18.8892 11.007 18.4992C11.196 18.3103 11.4474 18.2062 11.7148 18.2062C11.9822 18.2062 12.2334 18.3101 12.4223 18.499L15.8694 21.9462C16.0194 22.096 16.2226 22.1803 16.4346 22.1803C16.6467 22.1803 16.8499 22.0961 16.9997 21.9462L25.5804 13.3656Z" fill="black"/>
</g>
<defs>
<clipPath id="clip0_245_8913">
<rect width="38" height="38" fill="white"/>
</clipPath>
</defs>
</svg>
