<svg width="42" height="42" viewBox="0 0 42 42" fill="none" xmlns="http://www.w3.org/2000/svg">
<path d="M9.06035 26.5165H32.9396C37.257 26.5165 40.7695 23.004 40.7695 18.6867C40.7695 14.7713 37.8213 11.4433 33.9823 10.9265C33.8371 8.99221 33.0028 7.19572 31.6066 5.82662C30.1038 4.35416 28.117 3.54287 26.0129 3.54287C24.0926 3.54287 22.2748 4.21635 20.8302 5.45092C20.1824 4.47068 19.3016 3.66639 18.2667 3.11007C17.2318 2.55375 16.0751 2.26277 14.9002 2.26318C10.9815 2.26318 7.79297 5.45174 7.79297 9.37037C7.79297 9.89947 7.85121 10.4228 7.96605 10.9347C4.1434 11.472 1.23047 14.7688 1.23047 18.6867C1.23047 23.004 4.74305 26.5165 9.06035 26.5165ZM15.9485 25.3041C15.9485 22.5183 18.215 20.2526 21 20.2526C23.785 20.2526 26.0515 22.5192 26.0515 25.3041C26.0515 25.3796 26.049 25.4559 26.0457 25.5322H15.9543C15.951 25.4559 15.9485 25.3796 15.9485 25.3041ZM27.0318 25.5322C27.0342 25.4559 27.0367 25.3804 27.0367 25.3041C27.0367 21.9761 24.3288 19.2683 21.0008 19.2683C17.6728 19.2683 14.965 21.9761 14.965 25.3041C14.965 25.3796 14.9666 25.4559 14.9699 25.5322H9.06199C8.88973 25.5322 8.71992 25.524 8.55012 25.5108V23.8161C8.55012 23.7121 8.59143 23.6123 8.66496 23.5388C8.7385 23.4653 8.83823 23.424 8.94223 23.424H11.089C11.6944 23.424 12.2079 23.0524 12.3966 22.4773C12.5377 22.0475 12.7132 21.6242 12.9183 21.2206C13.1923 20.68 13.0922 20.0541 12.664 19.6251L11.1456 18.1067C11.0718 18.0329 11.0316 17.9344 11.0316 17.8294C11.0316 17.7244 11.0718 17.626 11.1456 17.5522L13.2497 15.4481C13.3235 15.3742 13.422 15.334 13.527 15.334C13.632 15.334 13.7304 15.3742 13.8042 15.4481L15.3226 16.9665C15.7516 17.3947 16.3775 17.4947 16.9181 17.2208C17.3234 17.0157 17.7458 16.8401 18.1748 16.699C18.7499 16.5104 19.1215 15.9969 19.1215 15.3915V13.2455C19.1215 13.1415 19.1628 13.0418 19.2363 12.9683C19.3099 12.8947 19.4096 12.8534 19.5136 12.8534H22.4897C22.5937 12.8534 22.6934 12.8947 22.767 12.9683C22.8405 13.0418 22.8818 13.1415 22.8818 13.2455V15.3923C22.8818 15.9977 23.2534 16.5112 23.8284 16.6999C24.2583 16.841 24.6816 17.0165 25.0852 17.2216C25.6257 17.4956 26.2516 17.3955 26.6807 16.9673L28.1991 15.4489C28.2729 15.3751 28.3713 15.3349 28.4763 15.3349C28.5813 15.3349 28.6798 15.3751 28.7536 15.4489L30.8577 17.5538C30.9315 17.6276 30.9717 17.7261 30.9717 17.8311C30.9717 17.9361 30.9315 18.0345 30.8577 18.1083L29.3393 19.6267C28.9111 20.0549 28.811 20.6817 29.085 21.2222C29.2901 21.6267 29.4656 22.0499 29.6067 22.479C29.7954 23.054 30.3089 23.4256 30.9143 23.4256H33.0611C33.165 23.4256 33.2648 23.4669 33.3383 23.5405C33.4119 23.614 33.4532 23.7137 33.4532 23.8177V25.5125C33.2842 25.5248 33.1136 25.5338 32.9413 25.5338H27.0318V25.5322ZM8.6223 11.8551C8.77324 11.8453 8.91188 11.7665 8.99719 11.6418C9.0825 11.5171 9.10629 11.3596 9.06035 11.2153C8.87195 10.6179 8.77623 9.99512 8.77652 9.36873C8.77652 5.99232 11.5229 3.24592 14.8993 3.24592C16.0032 3.24565 17.0866 3.54382 18.035 4.10888C18.9833 4.67393 19.7612 5.48484 20.2863 6.4558C20.3602 6.59197 20.4939 6.68549 20.6481 6.70846C20.8015 6.73143 20.9565 6.67975 21.0664 6.56982C22.3888 5.2524 24.1459 4.52643 26.0129 4.52643C29.7946 4.52643 32.938 7.60178 33.0192 11.381C33.022 11.5029 33.0699 11.6195 33.1537 11.7082C33.2375 11.7968 33.3512 11.8512 33.4729 11.8608C37.0125 12.1365 39.7852 15.1347 39.7852 18.6858C39.7852 21.9466 37.4932 24.6799 34.4359 25.3648V23.8161C34.4359 23.0573 33.8182 22.4396 33.0594 22.4396H30.9127C30.7379 22.4396 30.5952 22.3362 30.5402 22.1697C30.3836 21.6931 30.1891 21.2239 29.9619 20.7752C29.8823 20.6185 29.9102 20.4446 30.0341 20.3207L31.5525 18.8023C31.8117 18.5431 31.9553 18.1969 31.9553 17.8286C31.9553 17.4603 31.8125 17.1149 31.5525 16.8557L29.4484 14.7516C29.1892 14.4924 28.843 14.3488 28.4747 14.3488C28.1064 14.3488 27.761 14.4916 27.501 14.7516L25.9826 16.27C25.8587 16.3939 25.6848 16.4218 25.5281 16.3422C25.0794 16.115 24.6102 15.9206 24.1336 15.7639C23.9671 15.7089 23.8637 15.5662 23.8637 15.3915V13.2447C23.8637 12.4859 23.246 11.8682 22.4872 11.8682H19.5111C18.7523 11.8682 18.1346 12.4859 18.1346 13.2447V15.3906C18.1346 15.5654 18.0313 15.7089 17.8648 15.7631C17.3882 15.9197 16.9189 16.1142 16.4702 16.3414C16.3136 16.421 16.1396 16.3931 16.0158 16.2692L14.4974 14.7508C14.2382 14.4916 13.892 14.348 13.5237 14.348C13.1554 14.348 12.81 14.4908 12.55 14.7508L10.4459 16.8549C10.1858 17.1141 10.0431 17.4603 10.0431 17.8286C10.0431 18.1969 10.1858 18.5423 10.4459 18.8015L11.9643 20.3199C12.0881 20.4438 12.116 20.6177 12.0364 20.7744C11.8092 21.2231 11.6148 21.6923 11.4581 22.1689C11.4032 22.3354 11.2604 22.4388 11.0857 22.4388H8.93895C8.18016 22.4388 7.56246 23.0565 7.56246 23.8153V25.364C4.5068 24.6807 2.21484 21.9474 2.21484 18.6867C2.21484 15.0855 5.02934 12.0856 8.6223 11.8551ZM15.5285 27.0481H15.5203C15.3899 27.0505 15.2657 27.1045 15.175 27.1983C15.0842 27.2921 15.0344 27.418 15.0363 27.5485L15.1069 31.7116L12.3121 34.6434C11.8591 34.3428 11.3274 34.1827 10.7838 34.1832C9.25231 34.1832 8.00707 35.4292 8.00707 36.9599C8.00707 38.4906 9.25313 39.7367 10.7838 39.7367C12.3145 39.7367 13.5606 38.4906 13.5606 36.9599C13.5606 36.348 13.3612 35.782 13.0241 35.3226L15.9584 32.2448C16.0475 32.1511 16.0963 32.0263 16.0945 31.897L16.0207 27.5321C16.0183 27.403 15.9655 27.2801 15.8734 27.1896C15.7814 27.0991 15.6576 27.0483 15.5285 27.0481ZM10.7838 38.7531C9.79535 38.7531 8.99145 37.9492 8.99145 36.9608C8.99145 35.9723 9.79535 35.1684 10.7838 35.1684C11.7723 35.1684 12.5762 35.9723 12.5762 36.9608C12.5762 37.9492 11.7723 38.7531 10.7838 38.7531ZM8.40984 29.4984C8.49899 29.4065 8.54873 29.2835 8.54848 29.1555V27.5403C8.54848 27.2688 8.32781 27.0481 8.05629 27.0481C7.78477 27.0481 7.5641 27.2688 7.5641 27.5403V28.9553L6.21141 30.349C5.76844 30.0504 5.23523 29.8749 4.66184 29.8749C3.13031 29.8749 1.88508 31.121 1.88508 32.6517C1.88508 34.1824 3.13113 35.4284 4.66184 35.4284C6.19336 35.4284 7.43859 34.1824 7.43859 32.6517C7.43859 32.0487 7.245 31.4901 6.91687 31.0348L8.40984 29.4984ZM4.66184 34.4449C3.67336 34.4449 2.86945 33.641 2.86945 32.6525C2.86945 31.664 3.67336 30.8601 4.66184 30.8601C5.65031 30.8601 6.45422 31.664 6.45422 32.6525C6.45422 33.641 5.65031 34.4449 4.66184 34.4449ZM37.3382 29.8757C36.7648 29.8757 36.2316 30.0504 35.7886 30.349L34.4359 28.9553V27.5403C34.4359 27.2688 34.2152 27.0481 33.9437 27.0481C33.6722 27.0481 33.4515 27.2688 33.4515 27.5403V29.1555C33.4515 29.2835 33.5016 29.4065 33.5902 29.4984L35.0823 31.0356C34.7542 31.4917 34.5606 32.0496 34.5606 32.6525C34.5606 34.184 35.8066 35.4292 37.3373 35.4292C38.868 35.4292 40.1141 34.1832 40.1141 32.6525C40.1141 31.1218 38.8689 29.8757 37.3382 29.8757ZM37.3382 34.4449C36.3497 34.4449 35.5458 33.641 35.5458 32.6525C35.5458 31.664 36.3497 30.8601 37.3382 30.8601C38.3266 30.8601 39.1305 31.664 39.1305 32.6525C39.1305 33.641 38.3266 34.4449 37.3382 34.4449ZM31.2162 34.184C30.6518 34.184 30.1268 34.3538 29.6879 34.6442L26.8931 31.7124L26.9637 27.5493C26.9686 27.2778 26.752 27.0538 26.4797 27.0489H26.4715C26.2032 27.0489 25.9842 27.2638 25.9793 27.5329L25.9055 31.8978C25.903 32.0274 25.9522 32.1521 26.0416 32.2456L28.9759 35.3234C28.6388 35.7828 28.4394 36.3488 28.4394 36.9608C28.4394 38.4923 29.6855 39.7375 31.2162 39.7375C32.7469 39.7375 33.9929 38.4915 33.9929 36.9608C33.9929 35.4301 32.7477 34.184 31.2162 34.184ZM31.2162 38.7531C30.2277 38.7531 29.4238 37.9492 29.4238 36.9608C29.4238 35.9723 30.2277 35.1684 31.2162 35.1684C32.2046 35.1684 33.0086 35.9723 33.0086 36.9608C33.0086 37.9492 32.2046 38.7531 31.2162 38.7531ZM21.4922 34.2283V27.5403C21.4922 27.2688 21.2715 27.0481 21 27.0481C20.7285 27.0481 20.5078 27.2688 20.5078 27.5403V34.2283C19.2109 34.4613 18.2232 35.5974 18.2232 36.9608C18.2232 38.4923 19.4693 39.7375 21 39.7375C22.5307 39.7375 23.7768 38.4915 23.7768 36.9608C23.7768 35.5974 22.7891 34.4613 21.4922 34.2283ZM21 38.7531C20.0115 38.7531 19.2076 37.9492 19.2076 36.9608C19.2076 35.9723 20.0115 35.1684 21 35.1684C21.9885 35.1684 22.7924 35.9723 22.7924 36.9608C22.7924 37.9492 21.9885 38.7531 21 38.7531Z" fill="black"/>
</svg>
