<svg width="46" height="46" viewBox="0 0 46 46" fill="none" xmlns="http://www.w3.org/2000/svg">
<path d="M15.3635 6.334C15.4353 6.334 15.5072 6.31603 15.5791 6.28908C15.8306 6.18127 16.0822 6.07346 16.3428 5.97463C16.6213 5.86681 16.756 5.55236 16.6482 5.27385C16.5404 4.99533 16.226 4.86057 15.9474 4.96838C15.6779 5.07619 15.4084 5.184 15.1388 5.30978C14.8693 5.42658 14.7435 5.75002 14.8693 6.01955C14.9592 6.21721 15.1568 6.334 15.3635 6.334Z" fill="black"/>
<path d="M36.6922 9.30781C33.0355 5.65117 28.175 3.63867 23 3.63867C21.1043 3.63867 19.2266 3.9082 17.4297 4.45625C17.1422 4.54609 16.9805 4.84258 17.0703 5.13008C17.1602 5.41758 17.4566 5.5793 17.7441 5.48945C19.4422 4.97734 21.2121 4.7168 23.009 4.7168C27.2406 4.7168 31.1488 6.16328 34.2484 8.58906C34.1137 8.61602 33.9699 8.65195 33.8352 8.70586C32.8648 9.03828 32.0023 9.91875 31.5711 10.9969C31.1578 12.0391 31.1938 13.1262 31.6699 14.0605C32.1281 14.941 33.0355 16.1809 34.0059 17.4746C34.5719 18.2383 35.8117 21.1133 34.7246 25.2641C34.1855 27.3035 33.2602 30.3402 32.6941 32.173L26.6387 14.5367H28.0402C28.777 14.5367 29.3789 13.9348 29.3789 13.198C29.3789 12.4613 28.777 11.8594 28.0402 11.8594H17.5824C16.8457 11.8594 16.2438 12.4613 16.2438 13.198C16.2438 13.9348 16.8457 14.5367 17.5824 14.5367H19.0199L21.4816 20.4754L18.0047 30.8703L12.4164 14.5457H13.818C14.5547 14.5457 15.1566 13.9438 15.1566 13.207C15.1566 12.4703 14.5547 11.8684 13.818 11.8684H8.5082C9.97266 9.95469 11.8324 8.31953 13.9887 7.08867C14.2492 6.94492 14.3391 6.6125 14.1953 6.35195C14.0516 6.09141 13.7191 6.00156 13.4586 6.14531C10.5297 7.81641 8.07695 10.2242 6.35195 13.1172C4.58203 16.1 3.63867 19.5141 3.63867 23C3.63867 28.175 5.65117 33.0355 9.30781 36.6922C12.9645 40.3488 17.825 42.3613 23 42.3613C25.6684 42.3613 28.2559 41.8312 30.6816 40.7801C30.9512 40.6633 31.077 40.3488 30.9602 40.0703C30.8434 39.8008 30.5289 39.675 30.2504 39.7918C30.0348 39.8816 29.8191 39.9715 29.6035 40.0523L23.9074 24.5723C23.8266 24.3566 23.6289 24.2219 23.4043 24.2219C23.1797 24.2219 22.973 24.3656 22.9012 24.5813L17.2051 40.3398C16.5312 40.1152 15.8844 39.8547 15.2555 39.5582L6.34297 15.4801C6.73828 14.5996 7.20547 13.7461 7.74453 12.9465H13.818C13.9617 12.9465 14.0785 13.0633 14.0785 13.207C14.0785 13.3508 13.9617 13.4676 13.818 13.4676H11.6617C11.491 13.4676 11.3203 13.5484 11.2215 13.6922C11.1227 13.8359 11.0957 14.0156 11.1496 14.1773L17.5016 32.7211C17.5734 32.9367 17.7801 33.0895 18.0137 33.0895C18.2473 33.0895 18.4539 32.9367 18.5258 32.7211L22.5777 20.6281C22.6227 20.5023 22.6137 20.3676 22.5688 20.2508L19.8914 13.791C19.8105 13.5934 19.6129 13.4586 19.3973 13.4586H17.6004C17.4566 13.4586 17.3398 13.3418 17.3398 13.198C17.3398 13.0543 17.4566 12.9375 17.6004 12.9375H28.0402C28.184 12.9375 28.3008 13.0543 28.3008 13.198C28.3008 13.3418 28.184 13.4586 28.0402 13.4586H25.884C25.7133 13.4586 25.5426 13.5395 25.4438 13.6832C25.3449 13.827 25.318 14.0066 25.3719 14.1684L32.2 34.0688C32.2719 34.2844 32.4785 34.4371 32.7121 34.4371H32.7211C32.9547 34.4371 33.1613 34.2844 33.2242 34.0598C33.2422 34.0059 34.9492 28.6242 35.7578 25.5336C36.9168 21.1313 35.677 17.9148 34.8594 16.8277C33.916 15.5699 33.0355 14.375 32.6223 13.5664C32.2898 12.9195 32.2629 12.1469 32.5684 11.4012C32.8828 10.6195 33.5207 9.95469 34.1855 9.72109C34.5809 9.58633 35.0031 9.55039 35.4434 9.61328C37.2492 11.2934 38.7137 13.3238 39.7199 15.5969C39.7289 16.9984 39.3785 18.0586 38.8484 19.6488C38.7316 20.0082 38.6059 20.3766 38.4711 20.7898C37.7164 23.1348 33.7813 34.8055 32.4965 38.6238C32.3348 38.7227 32.1641 38.8215 32.0023 38.9113C31.7418 39.0551 31.652 39.3875 31.7957 39.648C31.8945 39.8187 32.0742 39.9176 32.2629 39.9176C32.3527 39.9176 32.4426 39.8906 32.5324 39.8457C38.5969 36.4137 42.3613 29.9539 42.3613 22.991C42.3613 17.825 40.3488 12.9645 36.6922 9.30781ZM23.4133 26.3242L28.5973 40.4117C26.8004 40.9867 24.9227 41.2832 23.009 41.2832C21.3648 41.2832 19.7656 41.0586 18.2473 40.6543L23.4133 26.3242ZM13.827 38.8035C8.38242 35.632 4.7168 29.7383 4.7168 23C4.7168 20.9156 5.07617 18.8852 5.74102 16.9715L13.827 38.8035ZM33.9699 37.6266C35.5512 32.9367 38.8215 23.2426 39.4953 21.1223C39.6211 20.718 39.7469 20.3496 39.8637 19.9992C40.1332 19.1996 40.3578 18.5078 40.5285 17.816C41.0137 19.4602 41.2832 21.2031 41.2832 23C41.2832 28.7859 38.525 34.1945 33.9699 37.6266Z" fill="black"/>
</svg>
