<svg width="45" height="45" viewBox="0 0 45 45" fill="none" xmlns="http://www.w3.org/2000/svg">
<path fill-rule="evenodd" clip-rule="evenodd" d="M28.5097 22.0008C28.5097 22.1152 28.4109 22.2139 28.2965 22.2139L16.7044 22.2142C16.59 22.2142 16.4912 22.1155 16.4912 22.0011L16.4912 18.6118C16.4912 18.4974 16.5899 18.3987 16.7043 18.3987L28.2965 18.3984C28.4108 18.3984 28.5096 18.4971 28.5096 18.6115L28.5097 22.0008ZM28.2965 17.1664L16.7043 17.1666C15.9037 17.1666 15.2539 17.8164 15.254 18.6118L15.2541 22.0011C15.2541 22.7964 15.9039 23.4462 16.7045 23.4461L28.2966 23.4459C29.0972 23.4459 29.7418 22.7961 29.7418 22.0007L29.7417 18.6114C29.7416 17.8162 29.0969 17.1664 28.2965 17.1664ZM18.0093 28.1766H16.4913V26.6587H18.0093V28.1766ZM18.1652 25.4268H16.3354C15.7427 25.4268 15.2541 25.9102 15.2542 26.5028L15.2543 28.3326C15.2543 28.9252 15.7429 29.4138 16.3355 29.4137H18.1653C18.758 29.4137 19.2414 28.9251 19.2414 28.3325V26.5027C19.2412 25.9101 18.7578 25.4268 18.1652 25.4268ZM23.2597 33.224H21.7418V31.7061H23.2598L23.2597 33.224ZM23.4156 30.4689L21.5858 30.469C20.9932 30.469 20.5097 30.9577 20.5097 31.5503L20.5098 33.3801C20.5098 33.9727 20.9933 34.4561 21.5859 34.4561H23.4157C24.0083 34.4561 24.4917 33.9726 24.4917 33.3801V31.5503C24.4916 30.9575 24.0081 30.4689 23.4156 30.4689ZM23.2595 28.1765H21.7417V26.6586H23.2595V28.1765ZM23.4154 25.4266H21.5856C20.993 25.4266 20.5096 25.9101 20.5096 26.5026L20.5097 28.3324C20.5097 28.9251 20.9931 29.4137 21.5857 29.4136H23.4155C24.0081 29.4136 24.4915 28.925 24.4915 28.3323V26.5025C24.4914 25.91 24.008 25.4266 23.4154 25.4266ZM28.5099 33.2239H26.992L26.9918 26.6585H28.5098L28.5099 33.2239ZM28.6657 25.4265H26.8359C26.2433 25.4265 25.7599 25.91 25.7599 26.5025L25.7601 33.3799C25.7601 33.9725 26.2436 34.4559 26.8361 34.4559H28.6659C29.2586 34.4559 29.7419 33.9724 29.7419 33.3799L29.7418 26.5025C29.7418 25.9099 29.2583 25.4265 28.6657 25.4265ZM18.0094 33.2242H16.4914V31.7062H18.0094V33.2242ZM18.1653 30.4691L16.3355 30.4692C15.7429 30.4692 15.2543 30.9579 15.2544 31.5504V33.3802C15.2544 33.9729 15.743 34.4563 16.3356 34.4563H18.1654C18.7581 34.4563 19.2415 33.9728 19.2415 33.3802L19.2414 31.5504C19.2414 30.9577 18.7579 30.469 18.1653 30.4691ZM31.291 35.2199L31.2906 15.9447C31.2906 15.5288 30.9475 15.1857 30.5316 15.1857L14.4689 15.1861C14.0531 15.1861 13.71 15.5292 13.71 15.9451L13.7104 35.2203C13.7104 35.6362 14.0535 35.9793 14.4694 35.9792L30.5321 35.9788C30.9479 35.9789 31.291 35.6358 31.291 35.2199ZM10.3262 25.3022L12.4782 25.3021L12.478 15.9452C12.478 14.8483 13.372 13.9542 14.4689 13.9542L30.5315 13.9538C31.6283 13.9538 32.5225 14.8479 32.5225 15.9447L32.5228 25.3017L36.2812 25.3016C39.2286 25.3015 41.6249 22.8998 41.6248 19.9524C41.6247 16.5571 38.4935 14.0029 35.132 14.7283C34.6376 14.835 34.2478 14.3361 34.4302 13.8861C34.5965 13.491 34.6797 13.07 34.6797 12.6386C34.6796 10.1868 32.0655 8.6134 29.8972 9.75883C29.5864 9.92299 29.1978 9.79942 29.0498 9.47812C27.5994 6.41119 24.4805 4.43074 21.0964 4.43083C17.0417 4.43092 13.5329 7.17574 12.5609 11.1005C12.483 11.428 12.1555 11.6307 11.8332 11.5579C7.51563 10.5935 3.37563 13.8933 3.37572 18.3471C3.37599 22.1781 6.49503 25.3023 10.3262 25.3022ZM41.1523 39.3471C41.1523 40.0177 40.6066 40.5636 39.936 40.5636C39.2654 40.5636 38.7195 40.0178 38.7195 39.3472C38.7195 38.6766 39.2653 38.1308 39.9359 38.1308C40.6065 38.1308 41.1522 38.6766 41.1523 39.3471ZM5.06583 40.5645C4.39524 40.5645 3.84939 40.0187 3.84939 39.3481C3.84939 38.6775 4.39515 38.1317 5.06574 38.1317C5.73633 38.1317 6.28218 38.6775 6.28218 39.348C6.28218 40.0186 5.73642 40.5644 5.06583 40.5645ZM5.06565 30.9321C4.39506 30.9321 3.84921 30.3863 3.84921 29.7105C3.84921 29.0399 4.39497 28.494 5.06556 28.494C5.73615 28.494 6.282 29.0398 6.282 29.7104C6.282 30.3862 5.73615 30.9321 5.06565 30.9321ZM39.9356 28.4931C40.6062 28.4931 41.1521 29.0389 41.1521 29.7095C41.1521 30.3852 40.6063 30.9311 39.9357 30.9312C39.2651 30.9312 38.7193 30.3854 38.7193 29.7096C38.7193 29.039 39.265 28.4931 39.9356 28.4931ZM37.5601 30.3282C37.8356 31.3835 38.7973 32.1633 39.9357 32.1632C41.2872 32.1632 42.3893 31.0611 42.3892 29.7095C42.3892 28.358 41.2871 27.2611 39.9355 27.2611C38.7971 27.2611 37.8355 28.0409 37.56 29.0961L32.5229 29.0962L32.5228 26.5335L36.2812 26.5334C39.9096 26.5333 42.8621 23.5806 42.8621 19.9522C42.862 16.3238 39.9092 13.3713 36.2809 13.3713C36.1354 13.3713 35.995 13.3766 35.8547 13.3818C35.8962 13.1374 35.9118 12.8932 35.9118 12.6384C35.9117 9.50476 32.7852 7.36582 29.8921 8.41234C28.1347 5.206 24.7724 3.19864 21.0965 3.19873C16.6676 3.19882 12.8105 6.06838 11.5214 10.2478C11.1263 10.1854 10.726 10.1595 10.3258 10.1595C5.81364 10.1596 2.13858 13.8297 2.13867 18.347C2.13876 22.8591 5.81409 26.5342 10.3262 26.5341L12.4782 26.534L12.4783 29.0968L7.4412 29.0969C7.16562 28.0416 6.20397 27.2619 5.06556 27.2619C3.71403 27.2619 2.61198 28.3589 2.61207 29.7104C2.61207 31.0619 3.71412 32.164 5.06574 32.1639C6.20415 32.1639 7.1658 31.3841 7.44129 30.3288L12.4784 30.3287L12.4785 33.6816L8.73576 33.6816C8.53821 33.6816 8.3511 33.7752 8.23671 33.9363L5.95998 37.0658C4.36257 36.4328 2.61234 37.6202 2.61234 39.3479C2.61234 40.6995 3.71439 41.8015 5.06601 41.8014C7.13034 41.8014 8.27451 39.3849 6.95808 37.7936L9.0477 34.9189L12.4786 34.9188V35.2203C12.4786 36.3171 13.3727 37.2112 14.4696 37.2112L30.5322 37.2108C31.6291 37.2108 32.5231 36.3167 32.5231 35.2198V34.9183L35.9488 34.9182L38.0437 37.7928C36.7273 39.3844 37.8718 41.8007 39.936 41.8006C41.2875 41.8006 42.3896 40.6986 42.3895 39.347C42.3895 37.6192 40.6391 36.4319 39.0417 37.065L36.7648 33.9357C36.6453 33.7746 36.4633 33.681 36.2658 33.681L32.523 33.6811L32.5229 30.3282H37.5601Z" fill="black"/>
</svg>
