<svg width="28" height="38" viewBox="0 0 28 38" fill="none" xmlns="http://www.w3.org/2000/svg">
<path d="M7.35727 4.22356C7.35727 6.25521 5.71029 7.90219 3.67863 7.90219C1.64698 7.90219 0 6.25521 0 4.22356C0 2.1919 1.64698 0.544922 3.67863 0.544922C5.71029 0.544922 7.35727 2.1919 7.35727 4.22356ZM1.19986 4.22356C1.19986 5.59254 2.30965 6.70233 3.67863 6.70233C5.04762 6.70233 6.1574 5.59254 6.1574 4.22356C6.1574 2.85457 5.04762 1.74478 3.67863 1.74478C2.30965 1.74478 1.19986 2.85457 1.19986 4.22356Z" fill="#3D3D3D"/>
<line x1="5.68389" y1="6.36239" x2="14.0922" y2="13.7197" stroke="#3D3D3D" stroke-width="1.3"/>
<path d="M22.1088 7.13587C20.7686 8.39642 18.6602 8.33181 17.3997 6.99157C16.1391 5.65133 16.2037 3.54297 17.544 2.28242C18.8842 1.02188 20.9926 1.08648 22.2531 2.42672C23.5137 3.76697 23.4491 5.87532 22.1088 7.13587ZM18.1984 2.97818C17.2424 3.87732 17.1963 5.3812 18.0954 6.33718C18.9946 7.29316 20.4984 7.33925 21.4544 6.44011C22.4104 5.54097 22.4565 4.0371 21.5574 3.08111C20.6582 2.12513 19.1544 2.07905 18.1984 2.97818Z" fill="#3D3D3D"/>
<line x1="19.5679" y1="7.8914" x2="19.6499" y2="12.9895" stroke="#3D3D3D" stroke-width="1.3"/>
<path d="M9.90559 29.9825C11.8939 29.5653 13.8441 30.8389 14.2613 32.8272C14.6786 34.8156 13.405 36.7657 11.4166 37.183C9.42828 37.6002 7.47815 36.3266 7.06089 34.3383C6.64363 32.3499 7.91724 30.3998 9.90559 29.9825ZM11.1916 36.1108C12.5878 35.8178 13.4822 34.4484 13.1892 33.0522C12.8962 31.656 11.5268 30.7617 10.1306 31.0547C8.73436 31.3477 7.84002 32.7171 8.13302 34.1133C8.42603 35.5095 9.79541 36.4038 11.1916 36.1108Z" fill="#3D3D3D"/>
<line x1="12.0933" y1="30.6354" x2="15.2464" y2="26.4312" stroke="#3D3D3D" stroke-width="1.3"/>
<path d="M27.3264 19.4637C27.3264 24.1075 23.5619 27.872 18.9181 27.872C14.2743 27.872 10.5098 24.1075 10.5098 19.4637C10.5098 14.8199 14.2743 11.0554 18.9181 11.0554C23.5619 11.0554 27.3264 14.8199 27.3264 19.4637ZM13.2668 19.4637C13.2668 22.5848 15.797 25.115 18.9181 25.115C22.0392 25.115 24.5694 22.5848 24.5694 19.4637C24.5694 16.3426 22.0392 13.8124 18.9181 13.8124C15.797 13.8124 13.2668 16.3426 13.2668 19.4637Z" fill="#3D3D3D"/>
</svg>
