<svg width="47" height="31" viewBox="0 0 47 31" fill="none" xmlns="http://www.w3.org/2000/svg">
<path d="M37.2158 30.0185H35.259C34.9995 30.0185 34.7507 29.9151 34.5672 29.731C34.3837 29.5469 34.2806 29.2973 34.2806 29.037C34.2806 28.7766 34.3837 28.527 34.5672 28.3429C34.7507 28.1588 34.9995 28.0554 35.259 28.0554H37.2158C38.4386 28.0542 39.6441 27.7656 40.7357 27.2128C41.8273 26.66 42.7746 25.8583 43.5016 24.872C44.2286 23.8857 44.7152 22.7422 44.9223 21.5332C45.1295 20.3243 45.0513 19.0835 44.6943 17.9103C44.3372 16.737 43.7111 15.6641 42.8661 14.7774C42.0212 13.8907 40.9809 13.2149 39.8286 12.8042C38.6764 12.3935 37.4443 12.2593 36.2311 12.4125C35.0178 12.5656 33.8572 13.0017 32.8423 13.6859L31.2279 14.7852L31.3356 12.6259V12.351C31.337 11.0127 31.0657 9.68825 30.5382 8.459C30.0106 7.22976 29.2381 6.12173 28.268 5.203C27.2979 4.28428 26.1508 3.57427 24.8972 3.11663C23.6435 2.65898 22.3098 2.46336 20.978 2.54179C19.6462 2.62022 18.3445 2.97105 17.1528 3.5727C15.9612 4.17436 14.9047 5.01414 14.0485 6.04042C13.1922 7.0667 12.5542 8.2578 12.1737 9.54052C11.7932 10.8232 11.6782 12.1705 11.8357 13.4994L12.0119 14.9325L10.6127 14.5595C9.66916 14.2996 8.68103 14.2455 7.71488 14.4009C6.74873 14.5563 5.82699 14.9176 5.01173 15.4604C4.19647 16.0032 3.50661 16.715 2.98863 17.5478C2.47064 18.3805 2.13655 19.315 2.00885 20.2882C1.88114 21.2614 1.9628 22.2508 2.2483 23.1896C2.53381 24.1285 3.01655 24.9952 3.664 25.7311C4.31146 26.4671 5.1086 27.0554 6.00175 27.4563C6.8949 27.8572 7.86332 28.0615 8.84179 28.0554H11.777C12.0365 28.0554 12.2854 28.1588 12.4689 28.3429C12.6524 28.527 12.7555 28.7766 12.7555 29.037C12.7555 29.2973 12.6524 29.5469 12.4689 29.731C12.2854 29.9151 12.0365 30.0185 11.777 30.0185H8.84179C7.64111 30.0234 6.4521 29.782 5.34786 29.309C4.24361 28.836 3.24746 28.1414 2.42062 27.268C1.59378 26.3946 0.953727 25.3608 0.539802 24.2302C0.125877 23.0995 -0.0531756 21.8958 0.0136489 20.6932C0.0804735 19.4906 0.391764 18.3143 0.928386 17.2368C1.46501 16.1593 2.21563 15.2033 3.1341 14.4274C4.05258 13.6516 5.11951 13.0725 6.26931 12.7255C7.41912 12.3786 8.62751 12.2712 9.82021 12.4099V12.351C9.6723 9.22725 10.7674 6.17245 12.8647 3.85868C14.962 1.5449 17.8896 0.161673 21.0035 0.0132931C24.1174 -0.135087 27.1625 0.963533 29.469 3.06747C31.7754 5.17141 33.1543 8.10832 33.3022 11.2321C34.5332 10.6782 35.8667 10.3906 37.2158 10.388C39.8108 10.388 42.2994 11.4221 44.1343 13.2628C45.9692 15.1035 47 17.6001 47 20.2032C47 22.8064 45.9692 25.3029 44.1343 27.1437C42.2994 28.9844 39.8108 30.0185 37.2158 30.0185Z" fill="#333333"/>
<path d="M19.3708 26.8385C19.1765 26.8396 18.9862 26.7827 18.8243 26.6749C18.6623 26.5671 18.536 26.4134 18.4615 26.2334C18.387 26.0533 18.3676 25.8551 18.4058 25.6639C18.4441 25.4728 18.5382 25.2974 18.6761 25.1601C19.3121 24.522 20.0672 24.0159 20.8982 23.6705C21.7292 23.3252 22.6198 23.1475 23.5193 23.1475C24.4188 23.1475 25.3094 23.3252 26.1404 23.6705C26.9714 24.0159 27.7265 24.522 28.3625 25.1601C28.5447 25.344 28.647 25.5927 28.647 25.8521C28.647 26.1114 28.5447 26.3601 28.3625 26.544C28.1791 26.7268 27.9312 26.8294 27.6727 26.8294C27.4142 26.8294 27.1662 26.7268 26.9829 26.544C26.5285 26.087 25.9886 25.7244 25.3943 25.477C24.7999 25.2296 24.1628 25.1022 23.5193 25.1022C22.8758 25.1022 22.2387 25.2296 21.6443 25.477C21.05 25.7244 20.5101 26.087 20.0557 26.544C19.8751 26.729 19.6289 26.8348 19.3708 26.8385Z" fill="#333333"/>
<path d="M30.4344 24.0603C30.3056 24.061 30.178 24.0363 30.0588 23.9874C29.9396 23.9386 29.8312 23.8666 29.7397 23.7756C28.0886 22.1214 25.8505 21.1922 23.517 21.1922C21.1835 21.1922 18.9454 22.1214 17.2943 23.7756C17.11 23.9605 16.8602 24.0643 16.5996 24.0643C16.3391 24.0643 16.0892 23.9605 15.9049 23.7756C15.7207 23.5908 15.6172 23.3401 15.6172 23.0787C15.6172 22.8174 15.7207 22.5667 15.9049 22.3819C16.9044 21.3788 18.0911 20.583 19.3972 20.0401C20.7033 19.4972 22.1032 19.2178 23.517 19.2178C24.9308 19.2178 26.3307 19.4972 27.6368 20.0401C28.9429 20.583 30.1296 21.3788 31.1291 22.3819C31.2208 22.4731 31.2936 22.5817 31.3432 22.7013C31.3929 22.8209 31.4185 22.9492 31.4185 23.0787C31.4185 23.2083 31.3929 23.3366 31.3432 23.4562C31.2936 23.5758 31.2208 23.6844 31.1291 23.7756C31.0377 23.8666 30.9292 23.9386 30.81 23.9874C30.6908 24.0363 30.5632 24.061 30.4344 24.0603Z" fill="#333333"/>
<path d="M33.2047 21.283C33.0759 21.2838 32.9482 21.259 32.829 21.2102C32.7098 21.1613 32.6014 21.0894 32.51 20.9984C30.1248 18.6069 26.8906 17.2635 23.5183 17.2635C20.1461 17.2635 16.9119 18.6069 14.5267 20.9984C14.3425 21.1832 14.0926 21.287 13.832 21.287C13.5715 21.287 13.3216 21.1832 13.1374 20.9984C12.9531 20.8136 12.8496 20.5629 12.8496 20.3015C12.8496 20.0401 12.9531 19.7894 13.1374 19.6046C14.5003 18.2365 16.1186 17.1512 17.8998 16.4107C19.681 15.6702 21.5902 15.2891 23.5183 15.2891C25.4464 15.2891 27.3557 15.6702 29.1369 16.4107C30.9181 17.1512 32.5364 18.2365 33.8993 19.6046C33.991 19.6959 34.0638 19.8044 34.1135 19.924C34.1632 20.0436 34.1887 20.1719 34.1887 20.3015C34.1887 20.4311 34.1632 20.5594 34.1135 20.679C34.0638 20.7986 33.991 20.9071 33.8993 20.9984C33.8079 21.0894 33.6995 21.1613 33.5803 21.2102C33.4611 21.259 33.3334 21.2838 33.2047 21.283Z" fill="#333333"/>
<path d="M23.5193 30.9998C24.6001 30.9998 25.4762 30.1209 25.4762 29.0368C25.4762 27.9526 24.6001 27.0737 23.5193 27.0737C22.4386 27.0737 21.5625 27.9526 21.5625 29.0368C21.5625 30.1209 22.4386 30.9998 23.5193 30.9998Z" fill="#333333"/>
</svg>
