<svg width="80" height="80" viewBox="0 0 80 80" fill="none" xmlns="http://www.w3.org/2000/svg">
<path d="M40.0002 79.9999C62.0916 79.9999 80.0002 62.0913 80.0002 39.9999C80.0002 17.9085 62.0916 -6.10352e-05 40.0002 -6.10352e-05C17.9088 -6.10352e-05 0.000244141 17.9085 0.000244141 39.9999C0.000244141 62.0913 17.9088 79.9999 40.0002 79.9999Z" fill="#FFF2E8"/>
<path fill-rule="evenodd" clip-rule="evenodd" d="M61.7089 47.2113H54.6545C54.0867 47.2113 53.6222 46.7468 53.6222 46.1704V42.3077H51.0241C51.2908 43.1852 51.437 44.1057 51.437 45.0692C51.437 49.6632 48.968 49.9126 48.2195 54.4636H66.5437V42.3077H62.7499V46.1704C62.7499 46.7468 62.2853 47.2113 61.7089 47.2113ZM48.0131 56.5369C47.9959 56.9326 47.9873 57.3456 47.9873 57.7843C47.9873 58.3607 47.5227 58.8253 46.9549 58.8253H46.2667V61.9911C46.2667 62.5589 45.8021 63.0321 45.2257 63.0321H42.9718V64.1161C42.9718 64.6924 42.5072 65.157 41.9308 65.157C41.363 65.157 40.8984 64.6924 40.8984 64.1161V63.0321H38.6445C38.0681 63.0321 37.6035 62.5589 37.6035 61.9911V58.8253H36.9153C36.3475 58.8253 35.8829 58.3607 35.8829 57.7843C35.8829 57.3456 35.8657 56.9326 35.8485 56.5369H16.2855C15.7091 56.5369 15.2446 56.0723 15.2446 55.5045V42.3077H13.9111C13.3347 42.3077 12.8702 41.8431 12.8702 41.2667V31.9067C11.0205 30.1776 9.85913 27.7171 9.85913 24.99C9.85913 19.7594 14.109 15.5096 19.3395 15.5096C24.2088 15.5096 28.2264 19.2002 28.7511 23.9404H31.3836V16.5505C31.3836 15.9741 31.8482 15.5096 32.416 15.5096H51.4542C52.022 15.5096 52.4866 15.9741 52.4866 16.5505V23.9404H69.9591C70.5355 23.9404 71.0001 24.405 71.0001 24.9728V41.2667C71.0001 41.8431 70.5355 42.3077 69.9591 42.3077H68.6256V55.5045C68.6256 56.0723 68.1611 56.5369 67.5847 56.5369H48.0131ZM35.6421 54.4636C34.9022 49.9126 32.4332 49.6632 32.4332 45.0692C32.4332 44.1057 32.5794 43.1852 32.8375 42.3077H30.248V46.1704C30.248 46.7468 29.7835 47.2113 29.2157 47.2113H22.1613C21.5849 47.2113 21.1203 46.7468 21.1203 46.1704V42.3077H17.3265V54.4636H35.6421ZM46.0172 55.4529C46.0172 55.4185 46.0172 55.3841 46.0258 55.3583C46.3441 52.029 47.3076 50.4288 48.1077 49.0954C48.8045 47.9254 49.3637 47.0049 49.3637 45.0692C49.3637 40.9742 46.0258 37.6363 41.9308 37.6363C37.8444 37.6363 34.5065 40.9742 34.5065 45.0692C34.5065 47.0049 35.0657 47.9254 35.7625 49.0954C36.5626 50.4288 37.5261 52.029 37.8444 55.3583C37.8874 55.7282 37.9218 56.3218 37.939 56.752H45.9312C45.9484 56.2874 45.9742 55.8573 46.0172 55.4529ZM28.1747 42.3077H23.1936V45.138H28.1747V42.3077ZM33.4569 23.9404H50.4133V17.5915H33.4569V23.9404ZM54.6545 40.2344H68.9181V26.0137H28.7597C28.2436 30.7539 24.2174 34.4618 19.3395 34.4618C17.7566 34.4618 16.2597 34.0747 14.9435 33.3778V40.2344H33.758C35.4098 37.4384 38.4552 35.563 41.9308 35.563C45.4064 35.563 48.4518 37.4384 50.1122 40.2344H54.6545ZM26.7381 24.99V24.9728C26.7294 20.895 23.4087 17.5915 19.3395 17.5915C15.2532 17.5915 11.941 20.9036 11.941 24.99C11.941 29.0678 15.2532 32.3885 19.3395 32.3885C23.4173 32.3885 26.7294 29.0678 26.7381 24.99ZM39.6768 60.9502H44.1934V58.8253H39.6768V60.9502ZM41.9308 34.0747C41.363 34.0747 40.8984 33.6101 40.8984 33.0423V29.5581C40.8984 28.9904 41.363 28.5258 41.9308 28.5258C42.5072 28.5258 42.9718 28.9904 42.9718 29.5581V33.0423C42.9718 33.6101 42.5072 34.0747 41.9308 34.0747ZM49.011 35.9759C48.2195 35.9759 47.712 35.1156 48.1163 34.4188L49.8541 31.3992C50.138 30.9088 50.7746 30.7367 51.2736 31.0206C51.7639 31.3131 51.936 31.9412 51.6521 32.4401L49.9143 35.4511C49.7164 35.7867 49.3723 35.9759 49.011 35.9759ZM34.8592 35.9759C34.4979 35.9759 34.1538 35.7867 33.9559 35.4511L32.2181 32.4401C31.9342 31.9412 32.0977 31.3131 32.5966 31.0206C33.0956 30.7367 33.7322 30.9088 34.0161 31.3992L35.7539 34.4188C36.1582 35.1156 35.6507 35.9759 34.8592 35.9759ZM17.8168 28.6204C17.5415 28.6204 17.2748 28.5086 17.0856 28.3107L14.9349 26.1686C14.5305 25.7643 14.5305 25.1018 14.9349 24.6975C15.3392 24.2932 15.993 24.2932 16.4059 24.6975L17.8168 26.1084L22.2731 21.6607C22.6775 21.2563 23.3313 21.2563 23.7356 21.6607C24.1486 22.065 24.1486 22.7188 23.7356 23.1232L18.5481 28.3107C18.3588 28.5086 18.0921 28.6204 17.8168 28.6204ZM55.6955 45.138H60.6766V42.3077H55.6955V45.138Z" fill="#F48120"/>
</svg>
