<svg width="80" height="80" viewBox="0 0 80 80" fill="none" xmlns="http://www.w3.org/2000/svg">
<path d="M40.0005 79.9999C62.0919 79.9999 80.0005 62.0913 80.0005 39.9999C80.0005 17.9085 62.0919 -6.10352e-05 40.0005 -6.10352e-05C17.9091 -6.10352e-05 0.000488281 17.9085 0.000488281 39.9999C0.000488281 62.0913 17.9091 79.9999 40.0005 79.9999Z" fill="#FFF2E8"/>
<path d="M58.5625 20.375H21.4375C20.8905 20.375 20.3659 20.5923 19.9791 20.9791C19.5923 21.3659 19.375 21.8905 19.375 22.4375V59.5625C19.375 60.1095 19.5923 60.6341 19.9791 61.0209C20.3659 61.4077 20.8905 61.625 21.4375 61.625H58.5625C59.1095 61.625 59.6341 61.4077 60.0209 61.0209C60.4077 60.6341 60.625 60.1095 60.625 59.5625V22.4375C60.625 21.8905 60.4077 21.3659 60.0209 20.9791C59.6341 20.5923 59.1095 20.375 58.5625 20.375ZM20.75 22.4375C20.75 22.2552 20.8224 22.0803 20.9514 21.9514C21.0803 21.8224 21.2552 21.75 21.4375 21.75H58.5625C58.7448 21.75 58.9197 21.8224 59.0486 21.9514C59.1775 22.0803 59.25 22.2552 59.25 22.4375V28.625H20.75V22.4375ZM59.25 59.5625C59.25 59.7448 59.1775 59.9197 59.0486 60.0486C58.9197 60.1775 58.7448 60.25 58.5625 60.25H21.4375C21.2552 60.25 21.0803 60.1775 20.9514 60.0486C20.8224 59.9197 20.75 59.7448 20.75 59.5625V30H59.25V59.5625Z" fill="#F48120"/>
<path d="M55.8125 27.25H39.3125C38.7655 27.25 38.2409 27.0327 37.8541 26.6459C37.4673 26.2591 37.25 25.7345 37.25 25.1875C37.25 24.6405 37.4673 24.1159 37.8541 23.7291C38.2409 23.3423 38.7655 23.125 39.3125 23.125H55.8125C56.3595 23.125 56.8841 23.3423 57.2709 23.7291C57.6577 24.1159 57.875 24.6405 57.875 25.1875C57.875 25.7345 57.6577 26.2591 57.2709 26.6459C56.8841 27.0327 56.3595 27.25 55.8125 27.25ZM39.3125 24.5C39.1302 24.5 38.9553 24.5724 38.8264 24.7014C38.6975 24.8303 38.625 25.0052 38.625 25.1875C38.625 25.3698 38.6975 25.5447 38.8264 25.6736C38.9553 25.8026 39.1302 25.875 39.3125 25.875H55.8125C55.9948 25.875 56.1697 25.8026 56.2986 25.6736C56.4275 25.5447 56.5 25.3698 56.5 25.1875C56.5 25.0052 56.4275 24.8303 56.2986 24.7014C56.1697 24.5724 55.9948 24.5 55.8125 24.5H39.3125Z" fill="#F48120"/>
<path d="M24.1875 27.25C23.7796 27.25 23.3808 27.1291 23.0416 26.9024C22.7025 26.6758 22.4381 26.3536 22.282 25.9768C22.1259 25.5999 22.085 25.1852 22.1646 24.7851C22.2442 24.385 22.4406 24.0175 22.7291 23.7291C23.0175 23.4406 23.385 23.2442 23.7851 23.1646C24.1852 23.085 24.5999 23.1259 24.9768 23.282C25.3536 23.4381 25.6758 23.7025 25.9024 24.0416C26.1291 24.3808 26.25 24.7796 26.25 25.1875C26.25 25.7345 26.0327 26.2591 25.6459 26.6459C25.2591 27.0327 24.7345 27.25 24.1875 27.25ZM24.1875 24.5C24.0515 24.5 23.9186 24.5403 23.8055 24.6159C23.6925 24.6914 23.6044 24.7988 23.5523 24.9244C23.5003 25.05 23.4867 25.1883 23.5132 25.3216C23.5397 25.455 23.6052 25.5775 23.7014 25.6736C23.7975 25.7698 23.92 25.8353 24.0534 25.8618C24.1867 25.8883 24.325 25.8747 24.4506 25.8227C24.5762 25.7706 24.6836 25.6825 24.7591 25.5695C24.8347 25.4564 24.875 25.3235 24.875 25.1875C24.875 25.0052 24.8026 24.8303 24.6736 24.7014C24.5447 24.5724 24.3698 24.5 24.1875 24.5Z" fill="#F48120"/>
<path d="M29 27.25C28.5921 27.25 28.1933 27.1291 27.8541 26.9024C27.5149 26.6758 27.2506 26.3536 27.0945 25.9768C26.9384 25.5999 26.8976 25.1852 26.9771 24.7851C27.0567 24.385 27.2531 24.0175 27.5416 23.7291C27.83 23.4406 28.1976 23.2442 28.5976 23.1646C28.9977 23.085 29.4124 23.1259 29.7893 23.282C30.1661 23.4381 30.4883 23.7025 30.7149 24.0416C30.9416 24.3808 31.0625 24.7796 31.0625 25.1875C31.0625 25.7345 30.8452 26.2591 30.4584 26.6459C30.0716 27.0327 29.547 27.25 29 27.25ZM29 24.5C28.864 24.5 28.7311 24.5403 28.618 24.6159C28.505 24.6914 28.4169 24.7988 28.3648 24.9244C28.3128 25.05 28.2992 25.1883 28.3257 25.3216C28.3522 25.455 28.4177 25.5775 28.5139 25.6736C28.61 25.7698 28.7325 25.8353 28.8659 25.8618C28.9992 25.8883 29.1375 25.8747 29.2631 25.8227C29.3887 25.7706 29.4961 25.6825 29.5717 25.5695C29.6472 25.4564 29.6875 25.3235 29.6875 25.1875C29.6875 25.0052 29.615 24.8303 29.4861 24.7014C29.3572 24.5724 29.1823 24.5 29 24.5Z" fill="#F48120"/>
<path d="M33.8125 27.25C33.4046 27.25 33.0058 27.1291 32.6666 26.9024C32.3274 26.6758 32.0631 26.3536 31.907 25.9768C31.7509 25.5999 31.7101 25.1852 31.7896 24.7851C31.8692 24.385 32.0656 24.0175 32.3541 23.7291C32.6425 23.4406 33.0101 23.2442 33.4101 23.1646C33.8102 23.085 34.2249 23.1259 34.6018 23.282C34.9786 23.4381 35.3008 23.7025 35.5274 24.0416C35.7541 24.3808 35.875 24.7796 35.875 25.1875C35.875 25.7345 35.6577 26.2591 35.2709 26.6459C34.8841 27.0327 34.3595 27.25 33.8125 27.25ZM33.8125 24.5C33.6765 24.5 33.5436 24.5403 33.4305 24.6159C33.3175 24.6914 33.2294 24.7988 33.1773 24.9244C33.1253 25.05 33.1117 25.1883 33.1382 25.3216C33.1647 25.455 33.2302 25.5775 33.3264 25.6736C33.4225 25.7698 33.545 25.8353 33.6784 25.8618C33.8117 25.8883 33.95 25.8747 34.0756 25.8227C34.2012 25.7706 34.3086 25.6825 34.3842 25.5695C34.4597 25.4564 34.5 25.3235 34.5 25.1875C34.5 25.0052 34.4275 24.8303 34.2986 24.7014C34.1697 24.5724 33.9948 24.5 33.8125 24.5Z" fill="#F48120"/>
<path d="M36.5625 42.375H25.5625C25.3802 42.375 25.2053 42.3025 25.0764 42.1736C24.9475 42.0447 24.875 41.8698 24.875 41.6875V33.4375C24.875 33.2552 24.9475 33.0803 25.0764 32.9514C25.2053 32.8225 25.3802 32.75 25.5625 32.75H36.5625C36.7448 32.75 36.9197 32.8225 37.0486 32.9514C37.1775 33.0803 37.25 33.2552 37.25 33.4375V41.6875C37.25 41.8698 37.1775 42.0447 37.0486 42.1736C36.9197 42.3025 36.7448 42.375 36.5625 42.375ZM26.25 41H35.875V34.125H26.25V41Z" fill="#F48120"/>
<path d="M54.4375 35.5H40.6875C40.5052 35.5 40.3303 35.4275 40.2014 35.2986C40.0725 35.1697 40 34.9948 40 34.8125C40 34.6302 40.0725 34.4553 40.2014 34.3264C40.3303 34.1975 40.5052 34.125 40.6875 34.125H54.4375C54.6198 34.125 54.7947 34.1975 54.9236 34.3264C55.0525 34.4553 55.125 34.6302 55.125 34.8125C55.125 34.9948 55.0525 35.1697 54.9236 35.2986C54.7947 35.4275 54.6198 35.5 54.4375 35.5Z" fill="#F48120"/>
<path d="M54.4375 38.25H40.6875C40.5052 38.25 40.3303 38.1775 40.2014 38.0486C40.0725 37.9197 40 37.7448 40 37.5625C40 37.3802 40.0725 37.2053 40.2014 37.0764C40.3303 36.9475 40.5052 36.875 40.6875 36.875H54.4375C54.6198 36.875 54.7947 36.9475 54.9236 37.0764C55.0525 37.2053 55.125 37.3802 55.125 37.5625C55.125 37.7448 55.0525 37.9197 54.9236 38.0486C54.7947 38.1775 54.6198 38.25 54.4375 38.25Z" fill="#F48120"/>
<path d="M54.4375 41H40.6875C40.5052 41 40.3303 40.9275 40.2014 40.7986C40.0725 40.6697 40 40.4948 40 40.3125C40 40.1302 40.0725 39.9553 40.2014 39.8264C40.3303 39.6975 40.5052 39.625 40.6875 39.625H54.4375C54.6198 39.625 54.7947 39.6975 54.9236 39.8264C55.0525 39.9553 55.125 40.1302 55.125 40.3125C55.125 40.4948 55.0525 40.6697 54.9236 40.7986C54.7947 40.9275 54.6198 41 54.4375 41Z" fill="#F48120"/>
<path d="M54.4375 47.875H47.5625C47.3802 47.875 47.2053 47.8025 47.0764 47.6736C46.9475 47.5447 46.875 47.3698 46.875 47.1875V44.4375C46.875 44.2552 46.9475 44.0803 47.0764 43.9514C47.2053 43.8225 47.3802 43.75 47.5625 43.75H54.4375C54.6198 43.75 54.7947 43.8225 54.9236 43.9514C55.0525 44.0803 55.125 44.2552 55.125 44.4375V47.1875C55.125 47.3698 55.0525 47.5447 54.9236 47.6736C54.7947 47.8025 54.6198 47.875 54.4375 47.875ZM48.25 46.5H53.75V45.125H48.25V46.5Z" fill="#F48120"/>
<path d="M32.4375 47.875H25.5625C25.3802 47.875 25.2053 47.8025 25.0764 47.6736C24.9475 47.5447 24.875 47.3698 24.875 47.1875V44.4375C24.875 44.2552 24.9475 44.0803 25.0764 43.9514C25.2053 43.8225 25.3802 43.75 25.5625 43.75H32.4375C32.6198 43.75 32.7947 43.8225 32.9236 43.9514C33.0525 44.0803 33.125 44.2552 33.125 44.4375V47.1875C33.125 47.3698 33.0525 47.5447 32.9236 47.6736C32.7947 47.8025 32.6198 47.875 32.4375 47.875ZM26.25 46.5H31.75V45.125H26.25V46.5Z" fill="#F48120"/>
<path d="M43.4375 47.875H36.5625C36.3802 47.875 36.2053 47.8025 36.0764 47.6736C35.9475 47.5447 35.875 47.3698 35.875 47.1875V44.4375C35.875 44.2552 35.9475 44.0803 36.0764 43.9514C36.2053 43.8225 36.3802 43.75 36.5625 43.75H43.4375C43.6198 43.75 43.7947 43.8225 43.9236 43.9514C44.0525 44.0803 44.125 44.2552 44.125 44.4375V47.1875C44.125 47.3698 44.0525 47.5447 43.9236 47.6736C43.7947 47.8025 43.6198 47.875 43.4375 47.875ZM37.25 46.5H42.75V45.125H37.25V46.5Z" fill="#F48120"/>
<path d="M54.4375 57.5H25.5625C25.3802 57.5 25.2053 57.4275 25.0764 57.2986C24.9475 57.1697 24.875 56.9948 24.875 56.8125V49.9375C24.875 49.7552 24.9475 49.5803 25.0764 49.4514C25.2053 49.3225 25.3802 49.25 25.5625 49.25H54.4375C54.6198 49.25 54.7947 49.3225 54.9236 49.4514C55.0525 49.5803 55.125 49.7552 55.125 49.9375V56.8125C55.125 56.9948 55.0525 57.1697 54.9236 57.2986C54.7947 57.4275 54.6198 57.5 54.4375 57.5ZM26.25 56.125H53.75V50.625H26.25V56.125Z" fill="#F48120"/>
</svg>
