<svg width="80" height="80" viewBox="0 0 80 80" fill="none" xmlns="http://www.w3.org/2000/svg">
<path d="M40.0005 79.9999C62.0919 79.9999 80.0005 62.0913 80.0005 39.9999C80.0005 17.9085 62.0919 -6.10352e-05 40.0005 -6.10352e-05C17.9091 -6.10352e-05 0.000488281 17.9085 0.000488281 39.9999C0.000488281 62.0913 17.9091 79.9999 40.0005 79.9999Z" fill="#FFF2E8"/>
<path d="M41.775 26.7985C42.2125 26.9953 42.7375 26.7985 42.9344 26.35L43.875 24.2391H43.8859H47.3859H47.3969L48.3375 26.35C48.4797 26.6782 48.7969 26.875 49.1359 26.875C49.2562 26.875 49.3765 26.8532 49.4859 26.7985C49.9234 26.6016 50.1312 26.0875 49.9344 25.6391L46.4344 17.7641C46.2922 17.4469 45.9859 17.2391 45.6359 17.2391C45.2859 17.2391 44.9797 17.4469 44.8375 17.7641L41.3375 25.6391C41.1297 26.0875 41.3265 26.6016 41.775 26.7985ZM45.625 20.2798L46.6094 22.5001H44.6406L45.625 20.2798Z" fill="#F48120"/>
<path d="M49.125 20.75H50V21.625C50 22.1063 50.3937 22.5 50.875 22.5C51.3563 22.5 51.75 22.1063 51.75 21.625V20.75H52.625C53.1063 20.75 53.5 20.3563 53.5 19.875C53.5 19.3937 53.1063 19 52.625 19H51.75V18.125C51.75 17.6437 51.3563 17.25 50.875 17.25C50.3937 17.25 50 17.6437 50 18.125V19H49.125C48.6437 19 48.25 19.3937 48.25 19.875C48.25 20.3563 48.6437 20.75 49.125 20.75Z" fill="#F48120"/>
<path d="M29.875 31.25H41.25C41.7313 31.25 42.125 30.8563 42.125 30.375C42.125 29.8937 41.7313 29.5 41.25 29.5H29.875C29.3937 29.5 29 29.8937 29 30.375C29 30.8563 29.3937 31.25 29.875 31.25Z" fill="#F48120"/>
<path d="M29.875 34.75H52.625C53.1063 34.75 53.5 34.3563 53.5 33.875C53.5 33.3937 53.1063 33 52.625 33H29.875C29.3937 33 29 33.3937 29 33.875C29 34.3563 29.3937 34.75 29.875 34.75Z" fill="#F48120"/>
<path d="M22.875 34.75H26.375C26.8563 34.75 27.25 34.3563 27.25 33.875V30.375C27.25 29.8937 26.8563 29.5 26.375 29.5H22.875C22.3937 29.5 22 29.8937 22 30.375V33.875C22 34.3563 22.3937 34.75 22.875 34.75ZM25.5 33H23.75V31.25H25.5V33Z" fill="#F48120"/>
<path d="M29.875 38.25H41.25C41.7313 38.25 42.125 37.8563 42.125 37.375C42.125 36.8937 41.7313 36.5 41.25 36.5H29.875C29.3937 36.5 29 36.8937 29 37.375C29 37.8563 29.3937 38.25 29.875 38.25Z" fill="#F48120"/>
<path d="M29.875 41.75H52.625C53.1063 41.75 53.5 41.3563 53.5 40.875C53.5 40.3937 53.1063 40 52.625 40H29.875C29.3937 40 29 40.3937 29 40.875C29 41.3563 29.3937 41.75 29.875 41.75Z" fill="#F48120"/>
<path d="M22.875 41.75H26.375C26.8563 41.75 27.25 41.3563 27.25 40.875V37.375C27.25 36.8937 26.8563 36.5 26.375 36.5H22.875C22.3937 36.5 22 36.8937 22 37.375V40.875C22 41.3563 22.3937 41.75 22.875 41.75ZM25.5 40H23.75V38.25H25.5V40Z" fill="#F48120"/>
<path d="M29.875 45.25H41.25C41.7313 45.25 42.125 44.8563 42.125 44.375C42.125 43.8937 41.7313 43.5 41.25 43.5H29.875C29.3937 43.5 29 43.8937 29 44.375C29 44.8563 29.3937 45.25 29.875 45.25Z" fill="#F48120"/>
<path d="M22.875 48.75H26.375C26.8563 48.75 27.25 48.3563 27.25 47.875V44.375C27.25 43.8937 26.8563 43.5 26.375 43.5H22.875C22.3937 43.5 22 43.8937 22 44.375V47.875C22 48.3563 22.3937 48.75 22.875 48.75ZM25.5 47H23.75V45.25H25.5V47Z" fill="#F48120"/>
<path d="M29.875 52.25H41.25C41.7313 52.25 42.125 51.8563 42.125 51.375C42.125 50.8937 41.7313 50.5 41.25 50.5H29.875C29.3937 50.5 29 50.8937 29 51.375C29 51.8563 29.3937 52.25 29.875 52.25Z" fill="#F48120"/>
<path d="M26.375 55.75C26.8563 55.75 27.25 55.3563 27.25 54.875V51.375C27.25 50.8937 26.8563 50.5 26.375 50.5H22.875C22.3937 50.5 22 50.8937 22 51.375V54.875C22 55.3563 22.3937 55.75 22.875 55.75H26.375ZM25.5 54H23.75V52.25H25.5V54Z" fill="#F48120"/>
<path d="M31.625 19.875H40.375C40.8563 19.875 41.25 19.4813 41.25 19C41.25 18.5187 40.8563 18.125 40.375 18.125H31.625C31.1437 18.125 30.75 18.5187 30.75 19C30.75 19.4813 31.1437 19.875 31.625 19.875Z" fill="#F48120"/>
<path d="M31.625 23.375H38.625C39.1063 23.375 39.5 22.9813 39.5 22.5C39.5 22.0187 39.1063 21.625 38.625 21.625H31.625C31.1437 21.625 30.75 22.0187 30.75 22.5C30.75 22.9813 31.1437 23.375 31.625 23.375Z" fill="#F48120"/>
<path d="M68.9985 37.6266L65.4985 34.1266C65.1594 33.7875 64.6016 33.7875 64.2625 34.1266L60.7625 37.6266L60.511 37.8781V18.125C60.511 17.6437 60.1172 17.25 59.636 17.25H57.011V14.625C57.011 14.1437 56.6172 13.75 56.136 13.75H28.125C28.1141 13.75 28.1032 13.75 28.0922 13.75C28.0813 13.75 28.0703 13.75 28.0594 13.75C28.0266 13.75 27.9828 13.7609 27.95 13.7609C27.9172 13.7719 27.8735 13.7828 27.8407 13.7937C27.8297 13.7937 27.8188 13.8047 27.8078 13.8047C27.775 13.8156 27.7422 13.8266 27.7094 13.8484C27.6766 13.8703 27.6438 13.8922 27.611 13.9141C27.6 13.925 27.6 13.925 27.5891 13.9359C27.5563 13.9578 27.5235 13.9797 27.5016 14.0125L18.7516 22.7625C18.7188 22.7953 18.6969 22.8172 18.6751 22.85C18.6641 22.8609 18.6641 22.8609 18.6532 22.8719C18.6313 22.9047 18.6094 22.9375 18.5876 22.9703C18.5657 23.0031 18.5548 23.0359 18.5438 23.0687C18.5438 23.0797 18.5329 23.0906 18.5329 23.0906C18.5219 23.1234 18.511 23.1672 18.5001 23.2C18.4891 23.2328 18.4891 23.2766 18.4891 23.3094C18.4891 23.3203 18.4891 23.3312 18.4891 23.3422C18.4891 23.3531 18.4891 23.3641 18.4891 23.375V61.875C18.4891 62.3563 18.8829 62.75 19.3641 62.75H21.9891V65.375C21.9891 65.8563 22.3829 66.25 22.8641 66.25H59.6141C60.0953 66.25 60.4891 65.8563 60.4891 65.375V47.3609L65.4875 42.3625L68.9875 38.8625C69.3375 38.5234 69.3375 37.9766 68.9985 37.6266ZM58.75 19V39.6391L57 41.3891V19H58.75ZM27.25 16.7359V22.5H21.486L27.25 16.7359ZM20.2501 24.25H28.125C28.6063 24.25 29 23.8563 29 23.375V15.5H55.25V43.1391L51.3891 47H29.875C29.3938 47 29 47.3937 29 47.875C29 48.3563 29.3938 48.75 29.875 48.75H49.6391L45.0125 53.3766C45.0016 53.3875 45.0016 53.3875 44.9907 53.3984C44.9797 53.4203 44.9578 53.4312 44.9469 53.4531C44.936 53.4641 44.936 53.475 44.925 53.475C44.9141 53.4969 44.9032 53.5188 44.8813 53.5297C44.8813 53.5406 44.8703 53.5406 44.8703 53.5516C44.8594 53.5734 44.8485 53.5953 44.8375 53.6281C44.8375 53.6281 44.8375 53.6391 44.8266 53.6391L44.8157 53.65L44.6735 53.9781H29.875C29.3938 53.9781 29 54.3719 29 54.8531C29 55.3344 29.3938 55.7281 29.875 55.7281H43.9188L42.1907 59.7531C42.0485 60.0813 42.125 60.4641 42.3766 60.7156C42.5407 60.8797 42.7703 60.9672 43 60.9672C43.1203 60.9672 43.2297 60.9453 43.3391 60.9016L49.4532 58.2875L49.4641 58.2766C49.4641 58.2766 49.475 58.2766 49.475 58.2656C49.4969 58.2547 49.5188 58.2438 49.5516 58.2328C49.5625 58.2328 49.5735 58.2219 49.5735 58.2219C49.5953 58.2109 49.6172 58.2 49.6282 58.1781C49.6391 58.1672 49.65 58.1672 49.65 58.1562C49.6719 58.1453 49.6828 58.1234 49.7047 58.1125C49.7157 58.1016 49.7157 58.1016 49.7266 58.0906L52.1 55.7172H52.6141C53.0953 55.7172 53.4891 55.3234 53.4891 54.8422C53.4891 54.6891 53.4563 54.5578 53.3907 54.4266L55.2391 52.5781V61H20.2501V24.25ZM45.9203 55.5312L47.5938 57.2047L44.6625 58.4625L45.9203 55.5312ZM58.75 64.5H23.7501V62.75H56.125C56.6063 62.75 57 62.3563 57 61.875V50.8609L58.75 49.1109V64.5ZM49.125 56.2641L46.861 54L61.375 39.4859L63.6391 41.75L49.125 56.2641ZM64.875 40.5141L62.611 38.25L64.875 35.9859L67.1391 38.25L64.875 40.5141Z" fill="#F48120"/>
</svg>
