<svg xmlns="http://www.w3.org/2000/svg" width="55" height="55" viewBox="0 0 55 55">
  <g id="Group_8058" data-name="Group 8058" transform="translate(-1296 -2969)">
    <circle id="Ellipse_15" data-name="Ellipse 15" cx="27.5" cy="27.5" r="27.5" transform="translate(1296 2969)" fill="#f3f3f3"/>
    <g id="theme-customization" transform="translate(1306.15 2976)">
      <path id="Path_7051" data-name="Path 7051" d="M13.611,47.586H11.755a1.211,1.211,0,0,0-1.2,1.2v1.856a1.211,1.211,0,0,0,1.2,1.2h1.856a1.211,1.211,0,0,0,1.2-1.2V48.787A1.211,1.211,0,0,0,13.611,47.586ZM13.72,50.7a.117.117,0,0,1-.109.109H11.755a.117.117,0,0,1-.109-.109V48.841a.117.117,0,0,1,.109-.109h1.856a.117.117,0,0,1,.109.109Zm-.109-8.9H11.755A1.27,1.27,0,0,0,10.5,43.055v1.856a1.27,1.27,0,0,0,1.255,1.255h1.856a1.27,1.27,0,0,0,1.255-1.255V43.055A1.307,1.307,0,0,0,13.611,41.8Zm11.954,6.277H18.142a.516.516,0,0,0-.546.546.547.547,0,0,0,.546.546h7.423a.547.547,0,0,0,.546-.546A.516.516,0,0,0,25.565,48.077Zm0,2.293H18.142a.546.546,0,1,0,0,1.092h7.423a.546.546,0,1,0,0-1.092Z" transform="translate(-3.361 -18.076)" fill="#f48120"/>
      <path id="Path_7052" data-name="Path 7052" d="M36.178,31.311a28.988,28.988,0,0,0-2.62-2.948A7.284,7.284,0,0,0,30.719,16.9V5.985A4.007,4.007,0,0,0,26.735,2H7.085A4.007,4.007,0,0,0,3.1,5.985V33a3.96,3.96,0,0,0,3.985,3.93h19.65a3.931,3.931,0,0,0,3.821-2.948,4.027,4.027,0,0,0,.437.71,3.415,3.415,0,0,0,4.53,1.255A3.394,3.394,0,0,0,36.178,31.311ZM29.628,33a2.866,2.866,0,0,1-2.893,2.838H7.085A2.866,2.866,0,0,1,4.192,33V5.985A2.877,2.877,0,0,1,7.085,3.092h19.65a2.877,2.877,0,0,1,2.893,2.893V16.628a7.213,7.213,0,0,0-7.1,2.4l-.71-.819a6.483,6.483,0,0,0,1.638-4.258A6.416,6.416,0,0,0,19.148,7.9l.873-1.037h2.565a.546.546,0,1,0,0-1.092H19.748a.5.5,0,0,0-.437.218L17.947,7.622a1.57,1.57,0,0,0-.873-.164,6.394,6.394,0,0,0-6.386,6.386,6.479,6.479,0,0,0,1.365,3.93l-1.092,1.31H8.395a.546.546,0,0,0,0,1.092h2.838a.5.5,0,0,0,.437-.218l1.146-1.419a6.3,6.3,0,0,0,4.312,1.692,6.486,6.486,0,0,0,3.93-1.365l.819,1.037a6.281,6.281,0,0,0-.655,1.365,7.841,7.841,0,0,0-.382,2.948h-6a.516.516,0,0,0-.546.546.547.547,0,0,0,.546.546H21a7.73,7.73,0,0,0,.382,1.2h-6.6a.546.546,0,0,0,0,1.092h7.15a7.3,7.3,0,0,0,7.26,3.22.169.169,0,0,0,.055.109,7.29,7.29,0,0,0,.382.983V33Zm4.53-9.334a6.188,6.188,0,0,1-5.295,6.113,6.121,6.121,0,0,1-6.987-5.513,6.183,6.183,0,0,1,6.113-6.714,6.048,6.048,0,0,1,6.168,6.113ZM17.073,16.3a2.456,2.456,0,1,1,2.456-2.456A2.379,2.379,0,0,1,17.073,16.3Zm-5.295-2.456a5.187,5.187,0,0,1,1.2-3.33l1.255,1.255a3.524,3.524,0,0,0-.71,2.074,3.488,3.488,0,0,0,3,3.493v1.747a5.236,5.236,0,0,1-4.749-5.24Zm8.679-4.094L19.2,11.006a3.7,3.7,0,0,0-4.2,0L13.744,9.751a5.3,5.3,0,0,1,3.33-1.2A5.422,5.422,0,0,1,20.458,9.751Z" fill="#f48120"/>
      <path id="Path_7053" data-name="Path 7053" d="M49.078,37.33l-.327-.055a2.508,2.508,0,0,0-.382-.873l.218-.273a.428.428,0,0,0-.055-.6l-.6-.6a.5.5,0,0,0-.546-.055l-.328.218a6.065,6.065,0,0,0-.873-.382l-.055-.327A.463.463,0,0,0,45.694,34h-.873a.524.524,0,0,0-.491.382l-.055.273a2.508,2.508,0,0,0-.873.382h-.055l-.273-.164c-.491-.327-.873.382-1.146.6a.432.432,0,0,0-.055.6l.218.273a6.066,6.066,0,0,0-.382.873l-.327.055a.594.594,0,0,0-.382.546v.764a.524.524,0,0,0,.382.491l.327.055a3.236,3.236,0,0,0,.382.873l-.218.273a.489.489,0,0,0,.055.6l.546.546a.5.5,0,0,0,.6.055l.273-.218a6.065,6.065,0,0,0,.873.382l.055.327a.478.478,0,0,0,.491.382c.764,0,.819.055.983-.055.164-.055.218-.164.273-.327l.055-.327a3.236,3.236,0,0,0,.873-.382l.273.218a.5.5,0,0,0,.546,0l.6-.6a.432.432,0,0,0,.055-.6L48.369,40a6.065,6.065,0,0,0,.382-.873l.327-.055a.524.524,0,0,0,.382-.491v-.764A.441.441,0,0,0,49.078,37.33Zm-3.821,2.456a1.642,1.642,0,0,1-1.638-1.638,1.6,1.6,0,0,1,1.638-1.583,1.547,1.547,0,0,1,1.583,1.583A1.528,1.528,0,0,1,45.258,39.786Z" transform="translate(-17.213 -14.533)" fill="#f48120"/>
    </g>
  </g>
</svg>
