<svg xmlns="http://www.w3.org/2000/svg" width="43.336" height="40" viewBox="0 0 43.336 40">
  <path id="thorough-reporting" d="M57.069,79.344V80.91l1.566-1.566ZM48.529,58.5H47.456v2.206h5.722V58.5H52.1a.5.5,0,0,1-.492-.463,1.3,1.3,0,0,0-2.187-.877,1.324,1.324,0,0,0-.4.847.488.488,0,0,1-.492.492Zm-4.61,6.914a.492.492,0,0,1,0-.985h3.841a.492.492,0,0,1,0,.985Zm0,3.3a.492.492,0,0,1,0-.985h7.367a.492.492,0,0,1,0,.985Zm0,3.3a.492.492,0,0,1,0-.985h7.318a.492.492,0,0,1,0,.985ZM59.334,75.64a11.392,11.392,0,0,1-5.122-9.268h0v-.03A11.363,11.363,0,0,1,56.054,59.9H54.163v1.31a.494.494,0,0,1-.492.492H46.963a.488.488,0,0,1-.492-.492V59.9H41.3V81.609H56.094V78.861a.494.494,0,0,1,.492-.492h2.748ZM70.976,60.5a7.761,7.761,0,1,0,.256,10.972A7.763,7.763,0,0,0,70.976,60.5ZM65.411,57.38a8.744,8.744,0,1,1-8.539,8.943,8.752,8.752,0,0,1,8.539-8.943ZM76.886,75.443c-.68.709-1.408,1.418-2.068,2.137a1.23,1.23,0,0,0-.355.689.476.476,0,0,0,.108.414c1.448,1.369,2.9,2.718,4.344,4.088.266.256.817.03,1.123-.276.689-.719,1.418-1.438,2.088-2.167.286-.305.473-.837.227-1.083-1.448-1.359-2.9-2.728-4.344-4.088-.276-.256-.827-.01-1.123.286Zm-2.452,1.133,1.605-1.665-1.99-1.99h0a.494.494,0,0,1-.049-.64,10.427,10.427,0,0,0-8.6-16.6h-.049a10.434,10.434,0,0,0-7.289,3.221,10.485,10.485,0,0,0-2.876,7.4v.049h0a10.412,10.412,0,0,0,16.557,8.165.486.486,0,0,1,.66.03Zm-5.6-12.233a7.026,7.026,0,0,0-6.629.118c-1.605,1.044-1.448,2.492.177,3.437a7.025,7.025,0,0,0,6.629-.108c1.615-1.054,1.458-2.5-.177-3.447Zm-2.669,1.2a.8.8,0,1,0,.03,1.133.8.8,0,0,0-.03-1.133Zm-.591-1.211a1.783,1.783,0,1,1-1.743,1.822,1.784,1.784,0,0,1,1.743-1.822Zm-1.8-3.043a.491.491,0,0,1,.965-.177L65,62.6a8.425,8.425,0,0,1,1.221,0l.266-1.5a.491.491,0,0,1,.965.177l-.266,1.438a7.945,7.945,0,0,1,1.133.305l.571-1.182a.493.493,0,1,1,.886.433L69.2,63.427c2.374,1.29,2.6,3.7.345,5.171a8,8,0,0,1-7.653.138c-2.452-1.418-2.374-3.95.118-5.309l-.571-1.152a.5.5,0,0,1,.227-.66.493.493,0,0,1,.66.227l.561,1.182a7.606,7.606,0,0,1,1.133-.305ZM43.92,75.325a.492.492,0,0,1,0-.985h7.318a.492.492,0,0,1,0,.985ZM59.9,86.288H56.153v9.4H59.9ZM69.006,89.1a.49.49,0,0,1-.1-.975l6.451-.67c.355-.581.364-.975.128-1.221a3.81,3.81,0,0,0-2.246-.65l-6.727-.552L62.86,87.322h0a.455.455,0,0,1-.256.069l-1.724.01V94.63l2.354-.148h.03l9.485.01L83.78,87.016c1.862-1.261.266-3.024-.827-2.443l-7.062,3.762a.468.468,0,0,1-.207.069ZM55.168,87.282H41.3v7.594H55.168Z" transform="translate(-41.3 -55.684)"/>
</svg>
