<svg xmlns="http://www.w3.org/2000/svg" width="60" height="60" viewBox="0 0 60 60">
  <g id="Group_8495" data-name="Group 8495" transform="translate(-964 -4680)">
    <g id="Group_531" data-name="Group 531" transform="translate(286 -1020)">
      <circle id="Ellipse_14" data-name="Ellipse 14" cx="30" cy="30" r="30" transform="translate(678 5700)" fill="#fff2e8"/>
    </g>
    <g id="magnifying-marketing-optimization" transform="translate(930.265 4649.224)">
      <path id="Path_9136" data-name="Path 9136" d="M148.087,247.293a.622.622,0,0,0-.622-.622h-6.278a.622.622,0,0,0-.622.622v6.295a.622.622,0,0,0,.622.622h6.278a.622.622,0,1,0,0-1.245h-5.656v-5.05h5.656A.623.623,0,0,0,148.087,247.293Z" transform="translate(-87.57 -186.963)" fill="#f48120"/>
      <path id="Path_9137" data-name="Path 9137" d="M331.5,246.671h-12.49a.622.622,0,1,0,0,1.245h11.867v5.05H319.013a.622.622,0,1,0,0,1.245H331.5a.622.622,0,0,0,.622-.622v-6.295A.622.622,0,0,0,331.5,246.671Z" transform="translate(-249.057 -186.963)" fill="#f48120"/>
      <path id="Path_9138" data-name="Path 9138" d="M67.785,177.278a.622.622,0,1,0-.88.88L71.4,182.65a1.21,1.21,0,1,1-1.711,1.711l-5.97-5.97a12.024,12.024,0,1,0-1.017.744l6.106,6.106a2.455,2.455,0,1,0,3.471-3.472Zm-11.652,2.575A10.755,10.755,0,1,1,66.889,169.1,10.768,10.768,0,0,1,56.133,179.854Z" transform="translate(0 -105.621)" fill="#f48120"/>
      <path id="Path_9139" data-name="Path 9139" d="M92.383,197.017a8.332,8.332,0,1,0,8.332,8.332A8.342,8.342,0,0,0,92.383,197.017Zm0,15.42a7.087,7.087,0,1,1,7.087-7.087A7.1,7.1,0,0,1,92.383,212.437Z" transform="translate(-36.25 -141.872)" fill="#f48120"/>
      <path id="Path_9140" data-name="Path 9140" d="M210.346,46.192a.623.623,0,0,0,.973-.777l-.867-1.086,1.34-.369a.623.623,0,0,0,.354-.257l.765-1.16.765,1.16a.623.623,0,0,0,.354.257l1.34.369-.867,1.086a.622.622,0,0,0-.135.416l.063,1.388-1.3-.489a.623.623,0,0,0-.438,0l-2.184.82a.622.622,0,1,0,.438,1.165l1.966-.738,1.966.738a.622.622,0,0,0,.841-.611l-.095-2.1,1.31-1.641a.623.623,0,0,0-.321-.988l-2.024-.558-1.156-1.752a.622.622,0,0,0-1.039,0l-1.156,1.752-2.024.558a.623.623,0,0,0-.321.988Z" transform="translate(-149.495)" fill="#f48120"/>
      <path id="Path_9141" data-name="Path 9141" d="M99.125,64a.622.622,0,0,0,.973-.776l-.867-1.086,1.34-.369a.623.623,0,0,0,.354-.257l.765-1.16.765,1.16a.624.624,0,0,0,.354.257l1.34.369-.867,1.086a.622.622,0,0,0-.135.416l.063,1.388-1.3-.489a.622.622,0,0,0-.438,0l-2.184.821a.622.622,0,1,0,.438,1.165l1.966-.738,1.966.738a.622.622,0,0,0,.84-.611l-.095-2.1,1.309-1.641a.622.622,0,0,0-.321-.988l-2.024-.558-1.156-1.753a.623.623,0,0,0-1.039,0l-1.156,1.753-2.024.558a.623.623,0,0,0-.321.988Z" transform="translate(-48.494 -16.175)" fill="#f48120"/>
      <path id="Path_9142" data-name="Path 9142" d="M321.569,64a.623.623,0,0,0,.973-.776l-.867-1.086,1.34-.369a.623.623,0,0,0,.354-.257l.765-1.16.765,1.16a.623.623,0,0,0,.354.257l1.34.369-.867,1.086a.623.623,0,0,0-.135.416l.063,1.388-1.3-.489a.622.622,0,0,0-.438,0l-2.184.821a.622.622,0,1,0,.438,1.165l1.966-.738,1.966.738a.622.622,0,0,0,.841-.611l-.095-2.1,1.31-1.641a.622.622,0,0,0-.321-.988l-2.024-.558-1.156-1.753a.623.623,0,0,0-1.039,0l-1.156,1.753-2.024.558a.622.622,0,0,0-.321.988Z" transform="translate(-250.498 -16.175)" fill="#f48120"/>
      <path id="Path_9143" data-name="Path 9143" d="M172.311,270.851v1.965a.622.622,0,1,0,1.245,0v-1.965a.622.622,0,0,0-1.245,0Z" transform="translate(-116.4 -208.357)" fill="#f48120"/>
    </g>
  </g>
</svg>
