<svg xmlns="http://www.w3.org/2000/svg" width="60" height="60" viewBox="0 0 60 60">
  <g id="Group_8521" data-name="Group 8521" transform="translate(-644 -4264)">
    <g id="Group_530" data-name="Group 530" transform="translate(-34 -1577)">
      <circle id="Ellipse_14" data-name="Ellipse 14" cx="30" cy="30" r="30" transform="translate(678 5841)" fill="#fff2e8"/>
    </g>
    <g id="_37_rating" data-name="37 rating" transform="translate(649.024 4269.603)">
      <path id="Path_9234" data-name="Path 9234" d="M36.908,3.5H19.885A4.715,4.715,0,0,0,15.17,8.215V23.273a4.715,4.715,0,0,0,4.715,4.715h1.753L27.8,35.242a.786.786,0,0,0,1.383-.511V27.988h7.725a4.715,4.715,0,0,0,4.715-4.715V8.215A4.715,4.715,0,0,0,36.908,3.5Zm3.144,19.773a3.144,3.144,0,0,1-3.144,3.144H28.4a.786.786,0,0,0-.786.786v5.391l-5.014-5.9a.8.8,0,0,0-.6-.275H19.885a3.144,3.144,0,0,1-3.144-3.144V8.215a3.144,3.144,0,0,1,3.144-3.144H36.908a3.144,3.144,0,0,1,3.144,3.144Z" transform="translate(-2.397)" fill="#f48120"/>
      <path id="Path_9235" data-name="Path 9235" d="M39.239,10.536a.786.786,0,0,1-.786.786H20.126a.786.786,0,0,1,0-1.572H38.453A.786.786,0,0,1,39.239,10.536Z" transform="translate(-3.29 -1.338)" fill="#f48120"/>
      <path id="Path_9236" data-name="Path 9236" d="M39.239,14.706a.786.786,0,0,1-.786.786H20.126a.786.786,0,1,1,0-1.572H38.453a.778.778,0,0,1,.786.786Z" transform="translate(-3.29 -2.231)" fill="#f48120"/>
      <path id="Path_9237" data-name="Path 9237" d="M39.239,18.866a.786.786,0,0,1-.786.786H20.126a.786.786,0,1,1,0-1.572H38.453A.786.786,0,0,1,39.239,18.866Z" transform="translate(-3.29 -3.122)" fill="#f48120"/>
      <path id="Path_9238" data-name="Path 9238" d="M41.022,23.036a.786.786,0,0,1-.786.786H28.456a.786.786,0,1,1,0-1.572h11.78a.778.778,0,0,1,.786.786Z" transform="translate(-5.073 -4.015)" fill="#f48120"/>
      <path id="Path_9239" data-name="Path 9239" d="M41.022,27.2a.786.786,0,0,1-.786.786H28.456a.786.786,0,1,1,0-1.572h11.78A.786.786,0,0,1,41.022,27.2Z" transform="translate(-5.073 -4.905)" fill="#f48120"/>
      <path id="Path_9240" data-name="Path 9240" d="M15.508,45.414a.793.793,0,0,0-.747-.542H11.516L10.51,41.783a.786.786,0,0,0-1.493,0L8.011,44.871H4.765A.786.786,0,0,0,4.3,46.294L6.926,48.2l-1,3.081a.787.787,0,0,0,1.21.88l2.625-1.91,2.625,1.91a.786.786,0,0,0,1.21-.872L12.592,48.2l2.633-1.91A.8.8,0,0,0,15.508,45.414Zm-4.582,2.727.432,1.336-1.132-.825a.778.778,0,0,0-.927,0l-1.132.825L8.6,48.141a.78.78,0,0,0-.283-.872l-1.132-.825h1.4a.793.793,0,0,0,.747-.542l.432-1.336L10.2,45.9a.786.786,0,0,0,.747.542h1.4l-1.132.825A.768.768,0,0,0,10.926,48.141Z" transform="translate(0 -8.081)" fill="#f48120"/>
      <path id="Path_9241" data-name="Path 9241" d="M36.168,50.574a.786.786,0,0,0-.747-.542H32.176L31.17,46.943a.786.786,0,0,0-1.493,0l-1.006,3.089H25.425a.786.786,0,0,0-.464,1.422l2.633,1.91-1.006,3.089a.786.786,0,0,0,1.21.88l2.625-1.91,2.625,1.91a.786.786,0,0,0,1.21-.88l-1.006-3.089,2.633-1.91A.786.786,0,0,0,36.168,50.574Zm-4.582,2.735.432,1.328-1.132-.825a.8.8,0,0,0-.927,0l-1.132.825.432-1.328a.78.78,0,0,0-.283-.88L27.846,51.6h1.4a.786.786,0,0,0,.747-.542l.432-1.328.432,1.328a.786.786,0,0,0,.747.542H33l-1.132.825A.78.78,0,0,0,31.586,53.308Z" transform="translate(-4.424 -9.186)" fill="#f48120"/>
      <path id="Path_9242" data-name="Path 9242" d="M56.828,45.414a.779.779,0,0,0-.747-.542H52.836L51.83,41.783a.786.786,0,0,0-1.493,0l-1.006,3.089H46.085a.786.786,0,0,0-.464,1.422l2.633,1.91-1.006,3.089a.786.786,0,0,0,1.21.872l2.625-1.91,2.625,1.91a.794.794,0,0,0,.464.149.76.76,0,0,0,.464-.149.776.776,0,0,0,.283-.88l-1-3.081,2.625-1.91A.786.786,0,0,0,56.828,45.414Zm-4.582,2.727.432,1.336-1.132-.825a.776.776,0,0,0-.464-.149.794.794,0,0,0-.464.149l-1.132.825.432-1.336a.768.768,0,0,0-.283-.872l-1.132-.825h1.4a.786.786,0,0,0,.747-.542l.432-1.336.432,1.336a.793.793,0,0,0,.747.542h1.4l-1.132.825A.78.78,0,0,0,52.246,48.141Z" transform="translate(-8.847 -8.081)" fill="#f48120"/>
    </g>
  </g>
</svg>
