<svg xmlns="http://www.w3.org/2000/svg" width="60" height="60" viewBox="0 0 60 60">
  <g id="Group_8493" data-name="Group 8493" transform="translate(-416 -4028)">
    <circle id="Ellipse_14" data-name="Ellipse 14" cx="30" cy="30" r="30" transform="translate(416 4028)" fill="#fff2e8"/>
    <path id="settings" d="M31.891,13.781l-2.727-.605a12.542,12.542,0,0,0-.81-1.957L29.83,8.761a2.44,2.44,0,0,0,0-3.005l-1.5-1.5a2.494,2.494,0,0,0-3.075-.094L22.859,5.683a12.7,12.7,0,0,0-1.943-.815L20.3,2.108A2.494,2.494,0,0,0,18.062,0H15.937c-1.174,0-1.893,1.112-2.125,2.125l-.682,2.727a12.716,12.716,0,0,0-2.07.87L8.609,4.161a2.494,2.494,0,0,0-3.075.094l-1.5,1.5a2.438,2.438,0,0,0,0,3.005L5.583,11.35a12.642,12.642,0,0,0-.749,1.827l-2.726.605A2.493,2.493,0,0,0,0,16.022v2.125c0,1.174,1.112,1.893,2.125,2.125l2.761.69a12.641,12.641,0,0,0,.7,1.693l-1.554,2.59a2.439,2.439,0,0,0,0,3l1.5,1.5a2.494,2.494,0,0,0,3.075.095l2.457-1.566a12.6,12.6,0,0,0,2.082.874l.68,2.719C14.062,32.888,14.78,34,15.954,34h2.125a2.494,2.494,0,0,0,2.241-2.109l.613-2.767a12.59,12.59,0,0,0,1.92-.805l2.4,1.527a2.493,2.493,0,0,0,3.075-.095l1.5-1.5a2.439,2.439,0,0,0,0-3l-1.476-2.461a12.778,12.778,0,0,0,.761-1.821l2.761-.69C32.888,20.04,34,19.321,34,18.147V16.022A2.494,2.494,0,0,0,31.891,13.781ZM31.876,18a1.4,1.4,0,0,1-.476.2l-3.94.984L27.095,20.3a10.824,10.824,0,0,1-.635,1.518l-.533,1.048,2.081,3.471a1.506,1.506,0,0,1,.214.515l-1.4,1.4a1.664,1.664,0,0,1-.362-.148l-3.5-2.231-1.087.563a10.472,10.472,0,0,1-1.6.67l-1.158.375-.875,3.955a.808.808,0,0,1-.231.443H16.1a1.389,1.389,0,0,1-.2-.475l-.978-3.912-1.132-.359a10.479,10.479,0,0,1-1.731-.727l-1.093-.577-3.5,2.23a.8.8,0,0,1-.435.151L5.639,26.85a1.4,1.4,0,0,1,.192-.477L8,22.752l-.517-1.041A10.7,10.7,0,0,1,6.906,20.3l-.365-1.118-3.9-.975A1.5,1.5,0,0,1,2.125,18V16.022h0a2.571,2.571,0,0,1,.356-.151l4.008-.888.368-1.171a10.518,10.518,0,0,1,.625-1.52L8,11.252,5.853,7.669a1.509,1.509,0,0,1-.214-.515l1.4-1.4a1.68,1.68,0,0,1,.361.149l3.563,2.271L12.053,7.6a10.592,10.592,0,0,1,1.723-.725l1.129-.36.969-3.877a1.5,1.5,0,0,1,.213-.515h1.975c-.014.022.122.207.15.361l.892,4.031,1.157.374a10.613,10.613,0,0,1,1.618.679l1.087.565,3.425-2.182a.8.8,0,0,1,.435-.152l1.395,1.355a1.41,1.41,0,0,1-.193.479l-2.1,3.5.537,1.05a10.248,10.248,0,0,1,.675,1.625l.367,1.174,3.928.872a.745.745,0,0,1,.462.256ZM17.014,10.614A6.385,6.385,0,1,0,23.414,17a6.4,6.4,0,0,0-6.4-6.386ZM17,21.25A4.25,4.25,0,1,1,21.25,17,4.255,4.255,0,0,1,17,21.25Z" transform="translate(429 4041)" fill="#f48120"/>
  </g>
</svg>
