<svg xmlns="http://www.w3.org/2000/svg" width="60" height="60" viewBox="0 0 60 60">
  <g id="Group_8523" data-name="Group 8523" transform="translate(-420 -2405)">
    <g id="Group_528" data-name="Group 528" transform="translate(-258 -3689)">
      <circle id="Ellipse_14" data-name="Ellipse 14" cx="30" cy="30" r="30" transform="translate(678 6094)" fill="#fff2e8"/>
    </g>
    <g id="layer1" transform="translate(410.611 2129.938)">
      <path id="icon-3" d="M33.389.529a1.143,1.143,0,0,0-1.138,1.138V7.389a1.144,1.144,0,0,0,2.288,0V2.815H50.532V30.243H34.539V26.817a1.144,1.144,0,1,0-2.288,0v4.574a1.143,1.143,0,0,0,1.138,1.138H51.682a1.143,1.143,0,0,0,1.138-1.138V1.668A1.143,1.143,0,0,0,51.682.529Zm-10.4,9.145a1.143,1.143,0,0,0-1.029,1.138V23.384a1.143,1.143,0,0,0,1.147,1.147H37.963A1.143,1.143,0,0,0,39.1,23.384V21.806l5.205,2.6a1.143,1.143,0,0,0,1.654-1.02V10.813a1.143,1.143,0,0,0-1.172-1.138L39.1,12.391V10.813a1.143,1.143,0,0,0-1.138-1.138Zm1.257,2.286H36.816V22.246H24.244Zm19.431.7v8.875L39.1,19.252v-4.3Zm-17.141.44a1.143,1.143,0,1,0,1.143,1.143A1.143,1.143,0,0,0,26.534,13.1Z" transform="translate(0 288.533)" fill="#f48120"/>
    </g>
  </g>
</svg>
