<svg xmlns="http://www.w3.org/2000/svg" width="60" height="60" viewBox="0 0 60 60">
  <g id="Group_8522" data-name="Group 8522" transform="translate(-964 -4214)">
    <g id="Group_529" data-name="Group 529" transform="translate(286 -1761)">
      <circle id="Ellipse_14" data-name="Ellipse 14" cx="30" cy="30" r="30" transform="translate(678 5975)" fill="#fff2e8"/>
    </g>
    <g id="calendar" transform="translate(977 4227)">
      <path id="Path_9248" data-name="Path 9248" d="M10.531,50.719h3.188a.531.531,0,0,0,.531-.531V47.531A.531.531,0,0,0,13.719,47H10.531a.531.531,0,0,0-.531.531v2.656A.531.531,0,0,0,10.531,50.719Zm.531-2.656h2.125v1.594H11.063Z" transform="translate(-4.688 -22.031)" fill="#f48120"/>
      <path id="Path_9249" data-name="Path 9249" d="M22.531,50.719h3.188a.531.531,0,0,0,.531-.531V47.531A.531.531,0,0,0,25.719,47H22.531a.531.531,0,0,0-.531.531v2.656A.531.531,0,0,0,22.531,50.719Zm.531-2.656h2.125v1.594H23.063Z" transform="translate(-10.313 -22.031)" fill="#f48120"/>
      <path id="Path_9250" data-name="Path 9250" d="M34.531,50.719h3.188a.531.531,0,0,0,.531-.531V47.531A.531.531,0,0,0,37.719,47H34.531a.531.531,0,0,0-.531.531v2.656A.531.531,0,0,0,34.531,50.719Zm.531-2.656h2.125v1.594H35.063Z" transform="translate(-15.938 -22.031)" fill="#f48120"/>
      <path id="Path_9251" data-name="Path 9251" d="M10.531,39.719h3.188a.531.531,0,0,0,.531-.531V36.531A.531.531,0,0,0,13.719,36H10.531a.531.531,0,0,0-.531.531v2.656A.531.531,0,0,0,10.531,39.719Zm.531-2.656h2.125v1.594H11.063Z" transform="translate(-4.688 -16.875)" fill="#f48120"/>
      <path id="Path_9252" data-name="Path 9252" d="M22.531,39.719h3.188a.531.531,0,0,0,.531-.531V36.531A.531.531,0,0,0,25.719,36H22.531a.531.531,0,0,0-.531.531v2.656A.531.531,0,0,0,22.531,39.719Zm.531-2.656h2.125v1.594H23.063Z" transform="translate(-10.313 -16.875)" fill="#f48120"/>
      <path id="Path_9253" data-name="Path 9253" d="M34.531,39.719h3.188a.531.531,0,0,0,.531-.531V36.531A.531.531,0,0,0,37.719,36H34.531a.531.531,0,0,0-.531.531v2.656A.531.531,0,0,0,34.531,39.719Zm.531-2.656h2.125v1.594H35.063Z" transform="translate(-15.938 -16.875)" fill="#f48120"/>
      <path id="Path_9254" data-name="Path 9254" d="M46.531,39.719h3.188a.531.531,0,0,0,.531-.531V36.531A.531.531,0,0,0,49.719,36H46.531a.531.531,0,0,0-.531.531v2.656A.531.531,0,0,0,46.531,39.719Zm.531-2.656h2.125v1.594H47.063Z" transform="translate(-21.563 -16.875)" fill="#f48120"/>
      <path id="Path_9255" data-name="Path 9255" d="M10.531,28.719h3.188a.531.531,0,0,0,.531-.531V25.531A.531.531,0,0,0,13.719,25H10.531a.531.531,0,0,0-.531.531v2.656A.531.531,0,0,0,10.531,28.719Zm.531-2.656h2.125v1.594H11.063Z" transform="translate(-4.688 -11.719)" fill="#f48120"/>
      <path id="Path_9256" data-name="Path 9256" d="M22.531,28.719h3.188a.531.531,0,0,0,.531-.531V25.531A.531.531,0,0,0,25.719,25H22.531a.531.531,0,0,0-.531.531v2.656A.531.531,0,0,0,22.531,28.719Zm.531-2.656h2.125v1.594H23.063Z" transform="translate(-10.313 -11.719)" fill="#f48120"/>
      <path id="Path_9257" data-name="Path 9257" d="M34.531,28.719h3.188a.531.531,0,0,0,.531-.531V25.531A.531.531,0,0,0,37.719,25H34.531a.531.531,0,0,0-.531.531v2.656A.531.531,0,0,0,34.531,28.719Zm.531-2.656h2.125v1.594H35.063Z" transform="translate(-15.938 -11.719)" fill="#f48120"/>
      <path id="Path_9258" data-name="Path 9258" d="M46.531,28.719h3.188a.531.531,0,0,0,.531-.531V25.531A.531.531,0,0,0,49.719,25H46.531a.531.531,0,0,0-.531.531v2.656A.531.531,0,0,0,46.531,28.719Zm.531-2.656h2.125v1.594H47.063Z" transform="translate(-21.563 -11.719)" fill="#f48120"/>
      <path id="Path_9259" data-name="Path 9259" d="M31.875,2.125H28.156V1.594a1.594,1.594,0,0,0-3.187,0v.531H9.031V1.594a1.594,1.594,0,0,0-3.187,0v.531H2.125A2.124,2.124,0,0,0,0,4.25V31.875A2.124,2.124,0,0,0,2.125,34h29.75A2.124,2.124,0,0,0,34,31.875V4.25A2.124,2.124,0,0,0,31.875,2.125Zm-5.844-.531a.531.531,0,0,1,1.063,0V5.313a.531.531,0,0,1-1.062,0V1.594Zm-19.125,0a.531.531,0,0,1,1.063,0V5.313a.531.531,0,0,1-1.062,0V1.594ZM32.938,31.875a1.063,1.063,0,0,1-1.062,1.063H2.125a1.063,1.063,0,0,1-1.062-1.062V9.031H32.938Zm0-23.906H1.063V4.25A1.063,1.063,0,0,1,2.125,3.188H5.844V5.313a1.594,1.594,0,0,0,3.188,0V3.188H24.969V5.313a1.594,1.594,0,0,0,3.188,0V3.188h3.719A1.063,1.063,0,0,1,32.938,4.25Z" fill="#f48120"/>
    </g>
  </g>
</svg>
