<svg xmlns="http://www.w3.org/2000/svg" width="60" height="60" viewBox="0 0 60 60">
  <g id="Group_8498" data-name="Group 8498" transform="translate(-678 -6094)">
    <circle id="Ellipse_14" data-name="Ellipse 14" cx="30" cy="30" r="30" transform="translate(678 6094)" fill="#fff2e8"/>
    <g id="communication" transform="translate(690 6062.547)">
      <g id="Group_8422" data-name="Group 8422" transform="translate(0 46.9)">
        <path id="Path_9153" data-name="Path 9153" d="M0,60.784a12.888,12.888,0,0,0,3.146,8.335,4.958,4.958,0,0,1-1.793,2.095A1.315,1.315,0,0,0,.786,72.6a1.291,1.291,0,0,0,1.088,1,9.882,9.882,0,0,0,5.784-.889A17.285,17.285,0,0,0,15.7,74.668a17.58,17.58,0,0,0,4.814-.661.9.9,0,1,0-.492-1.727,15.731,15.731,0,0,1-4.322.6A15.387,15.387,0,0,1,8.1,70.9a.917.917,0,0,0-.911.007,7.436,7.436,0,0,1-3.822.992H3.352a7.059,7.059,0,0,0,1.676-2.646.911.911,0,0,0-.184-.926,11.012,11.012,0,0,1-3.05-7.548c0-6.666,6.24-12.083,13.913-12.083,7.115,0,13.061,4.63,13.825,10.768a.9.9,0,0,0,1.786-.228C30.444,52.207,23.733,46.9,15.707,46.9,7.049,46.9,0,53.133,0,60.784Z" transform="translate(0 -46.9)" fill="#f48120"/>
        <circle id="Ellipse_106" data-name="Ellipse 106" cx="1" cy="1" r="1" transform="translate(14.7 12.884)" fill="#f48120"/>
        <circle id="Ellipse_107" data-name="Ellipse 107" cx="1" cy="1" r="1" transform="translate(10.4 12.884)" fill="#f48120"/>
        <circle id="Ellipse_108" data-name="Ellipse 108" cx="1" cy="1" r="1" transform="translate(19.007 12.884)" fill="#f48120"/>
        <path id="Path_9154" data-name="Path 9154" d="M294.26,239.8a7.464,7.464,0,1,0,7.46,7.468A7.466,7.466,0,0,0,294.26,239.8Zm0,13.127a5.659,5.659,0,1,1,5.659-5.659A5.667,5.667,0,0,1,294.26,252.927Z" transform="translate(-265.72 -225.622)" fill="#f48120"/>
        <path id="Path_9155" data-name="Path 9155" d="M353.589,310.646l-2.131,2.117-.522-.522a.9.9,0,0,0-1.272,1.272l1.154,1.161a.9.9,0,0,0,.639.265h0a.9.9,0,0,0,.632-.265l2.771-2.749a.9.9,0,0,0-1.272-1.279Z" transform="translate(-323.719 -291.021)" fill="#f48120"/>
      </g>
    </g>
  </g>
</svg>
