<svg xmlns="http://www.w3.org/2000/svg" width="60" height="60" viewBox="0 0 60 60">
  <g id="Group_8513" data-name="Group 8513" transform="translate(-416 -7594)">
    <g id="Group_524" data-name="Group 524" transform="translate(416 7593.882)">
      <circle id="Ellipse_14" data-name="Ellipse 14" cx="30" cy="30" r="30" transform="translate(0 0.118)" fill="#fff2e8"/>
    </g>
    <g id="payment-security-bank" transform="translate(423 7551.979)">
      <g id="Group_8461" data-name="Group 8461" transform="translate(0 54.98)">
        <g id="Group_8460" data-name="Group 8460" transform="translate(0 0)">
          <path id="Path_9225" data-name="Path 9225" d="M40.289,54.98H2.418A2.421,2.421,0,0,0,0,57.4V82.1a2.421,2.421,0,0,0,2.418,2.418H28.763a.772.772,0,0,0,0-1.544H2.418a.876.876,0,0,1-.875-.875V57.4a.876.876,0,0,1,.875-.875h37.87a.876.876,0,0,1,.875.875V68.1a.772.772,0,0,0,1.544,0V57.4A2.421,2.421,0,0,0,40.289,54.98Z" transform="translate(0 -54.98)" fill="#f48120"/>
        </g>
      </g>
      <g id="Group_8463" data-name="Group 8463" transform="translate(4.94 60.743)">
        <g id="Group_8462" data-name="Group 8462" transform="translate(0 0)">
          <path id="Path_9226" data-name="Path 9226" d="M63.161,119.123H56.575a1.6,1.6,0,0,0-1.6,1.6v4.94a1.6,1.6,0,0,0,1.6,1.6h6.586a1.6,1.6,0,0,0,1.6-1.6v-4.94A1.6,1.6,0,0,0,63.161,119.123Zm-4.888,6.586h-1.7a.052.052,0,0,1-.051-.051v-4.94a.052.052,0,0,1,.051-.051h1.7Zm4.94-.051a.052.052,0,0,1-.051.051H59.817V123.96h.875a.772.772,0,0,0,0-1.544h-.875v-1.749h3.345a.052.052,0,0,1,.051.051Z" transform="translate(-54.98 -119.123)" fill="#f48120"/>
        </g>
      </g>
      <g id="Group_8465" data-name="Group 8465" transform="translate(23.875 59.92)">
        <g id="Group_8464" data-name="Group 8464" transform="translate(0 0)">
          <path id="Path_9227" data-name="Path 9227" d="M275.151,109.96a4.449,4.449,0,0,0-2.468.744,4.478,4.478,0,1,0,0,7.464,4.476,4.476,0,1,0,2.471-8.208Zm-3.627,7.1a2.932,2.932,0,1,1,0-5.243,4.466,4.466,0,0,0,0,5.243Zm3.627.311a2.935,2.935,0,0,1-1.314-.312,4.451,4.451,0,0,0,.851-2.621.772.772,0,1,0-1.544,0,2.914,2.914,0,0,1-.464,1.579,2.932,2.932,0,1,1,2.47,1.353Z" transform="translate(-265.735 -109.96)" fill="#f48120"/>
        </g>
      </g>
      <g id="Group_8467" data-name="Group 8467" transform="translate(4.94 73.092)">
        <g id="Group_8466" data-name="Group 8466">
          <path id="Path_9228" data-name="Path 9228" d="M62.337,256.573H55.751a.772.772,0,0,0,0,1.544h6.586a.772.772,0,0,0,0-1.544Z" transform="translate(-54.979 -256.573)" fill="#f48120"/>
        </g>
      </g>
      <g id="Group_8469" data-name="Group 8469" transform="translate(4.94 78.031)">
        <g id="Group_8468" data-name="Group 8468">
          <path id="Path_9229" data-name="Path 9229" d="M79.626,311.553H55.751a.772.772,0,1,0,0,1.544H79.626a.772.772,0,0,0,0-1.544Z" transform="translate(-54.979 -311.553)" fill="#f48120"/>
        </g>
      </g>
      <g id="Group_8471" data-name="Group 8471" transform="translate(14.819 73.092)">
        <g id="Group_8470" data-name="Group 8470">
          <path id="Path_9230" data-name="Path 9230" d="M172.3,256.573h-6.586a.772.772,0,0,0,0,1.544H172.3a.772.772,0,0,0,0-1.544Z" transform="translate(-164.939 -256.573)" fill="#f48120"/>
        </g>
      </g>
      <g id="Group_8473" data-name="Group 8473" transform="translate(24.698 73.092)">
        <g id="Group_8472" data-name="Group 8472">
          <path id="Path_9231" data-name="Path 9231" d="M280.61,256.573h-4.94a.772.772,0,1,0,0,1.544h4.94a.772.772,0,0,0,0-1.544Z" transform="translate(-274.899 -256.573)" fill="#f48120"/>
        </g>
      </g>
      <g id="Group_8475" data-name="Group 8475" transform="translate(31.284 69.799)">
        <g id="Group_8474" data-name="Group 8474" transform="translate(0 0)">
          <path id="Path_9232" data-name="Path 9232" d="M361.275,229.1v-3.471a5.711,5.711,0,0,0-11.423,0V229.1a2.422,2.422,0,0,0-1.647,2.291V238.8a2.421,2.421,0,0,0,2.418,2.418H360.5a2.421,2.421,0,0,0,2.418-2.418v-7.409A2.422,2.422,0,0,0,361.275,229.1Zm-9.879-3.471a4.168,4.168,0,0,1,8.336,0v3.345H351.4v-3.345Zm9.982,13.172a.876.876,0,0,1-.875.875h-9.879a.876.876,0,0,1-.875-.875v-7.409a.876.876,0,0,1,.875-.875H360.5a.876.876,0,0,1,.875.875Z" transform="translate(-348.206 -219.92)" fill="#f48120"/>
        </g>
      </g>
      <g id="Group_8477" data-name="Group 8477" transform="translate(36.635 82.148)">
        <g id="Group_8476" data-name="Group 8476">
          <path id="Path_9233" data-name="Path 9233" d="M409.774,357.369a2.006,2.006,0,0,0-.772,3.859v1.03a.772.772,0,0,0,1.544,0v-1.03a2.006,2.006,0,0,0-.772-3.859Zm0,2.47a.463.463,0,1,1,.463-.463A.464.464,0,0,1,409.774,359.839Z" transform="translate(-407.767 -357.369)" fill="#f48120"/>
        </g>
      </g>
    </g>
  </g>
</svg>
