<svg xmlns="http://www.w3.org/2000/svg" width="60" height="60" viewBox="0 0 60 60">
  <g id="Group_8498" data-name="Group 8498" transform="translate(-652 -4654)">
    <circle id="Ellipse_14" data-name="Ellipse 14" cx="30" cy="30" r="30" transform="translate(652 4654)" fill="#fff2e8"/>
    <g id="rating-rate" transform="translate(665.333 4667.195)">
      <g id="Group_8337" data-name="Group 8337" transform="translate(0 0.148)">
        <g id="Group_8336" data-name="Group 8336" transform="translate(0 0)">
          <path id="Path_9104" data-name="Path 9104" d="M11.077,4.14a.7.7,0,0,0-.478-.455L7.754,2.908,6.136.442a.721.721,0,0,0-1.161,0L3.357,2.908.512,3.685a.694.694,0,0,0-.359,1.1L2,7.09l-.141,2.946a.694.694,0,0,0,.94.683L5.555,9.675l2.759,1.044a.694.694,0,0,0,.94-.683L9.113,7.09l1.845-2.3A.7.7,0,0,0,11.077,4.14ZM7.865,6.426a.7.7,0,0,0-.152.468l.1,2.151L5.8,8.283a.693.693,0,0,0-.492,0L3.3,9.045l.1-2.151a.7.7,0,0,0-.152-.468L1.9,4.746l2.078-.567a.7.7,0,0,0,.4-.289l1.181-1.8,1.182,1.8a.7.7,0,0,0,.4.289l2.078.567Z" transform="translate(0 -0.148)" fill="#f48120"/>
        </g>
      </g>
      <g id="Group_8339" data-name="Group 8339" transform="translate(13.889 3.601)">
        <g id="Group_8338" data-name="Group 8338">
          <rect id="Rectangle_2754" data-name="Rectangle 2754" width="11.806" height="1.389" fill="#f48120"/>
        </g>
      </g>
      <g id="Group_8341" data-name="Group 8341" transform="translate(13.889 7.073)">
        <g id="Group_8340" data-name="Group 8340">
          <rect id="Rectangle_2755" data-name="Rectangle 2755" width="19.445" height="1.389" fill="#f48120"/>
        </g>
      </g>
      <g id="Group_8343" data-name="Group 8343" transform="translate(0 11.498)">
        <g id="Group_8342" data-name="Group 8342">
          <path id="Path_9105" data-name="Path 9105" d="M11.077,171.49a.7.7,0,0,0-.478-.455l-2.845-.777-1.618-2.466a.721.721,0,0,0-1.161,0l-1.618,2.466-2.846.777a.694.694,0,0,0-.359,1.1L2,174.44l-.141,2.946a.694.694,0,0,0,.94.683l2.758-1.044,2.759,1.044a.694.694,0,0,0,.94-.683l-.141-2.946,1.845-2.3A.7.7,0,0,0,11.077,171.49Zm-3.212,2.286a.7.7,0,0,0-.152.468l.1,2.152L5.8,175.632a.692.692,0,0,0-.492,0l-2.014.762.1-2.151a.7.7,0,0,0-.152-.468L1.9,172.1l2.078-.567a.7.7,0,0,0,.4-.289l1.181-1.8,1.182,1.8a.7.7,0,0,0,.4.289l2.078.567Z" transform="translate(0 -167.499)" fill="#f48120"/>
        </g>
      </g>
      <g id="Group_8345" data-name="Group 8345" transform="translate(13.889 14.712)">
        <g id="Group_8344" data-name="Group 8344">
          <rect id="Rectangle_2756" data-name="Rectangle 2756" width="11.806" height="1.389" fill="#f48120"/>
        </g>
      </g>
      <g id="Group_8347" data-name="Group 8347" transform="translate(13.889 18.184)">
        <g id="Group_8346" data-name="Group 8346">
          <rect id="Rectangle_2757" data-name="Rectangle 2757" width="19.445" height="1.389" fill="#f48120"/>
        </g>
      </g>
      <g id="Group_8349" data-name="Group 8349" transform="translate(0 22.847)">
        <g id="Group_8348" data-name="Group 8348">
          <path id="Path_9106" data-name="Path 9106" d="M11.077,338.835a.7.7,0,0,0-.478-.455L7.754,337.6l-1.618-2.466a.721.721,0,0,0-1.161,0L3.357,337.6l-2.846.777a.694.694,0,0,0-.359,1.1L2,341.785l-.141,2.946a.694.694,0,0,0,.94.683l2.758-1.044,2.759,1.044a.694.694,0,0,0,.94-.683l-.141-2.946,1.845-2.3A.7.7,0,0,0,11.077,338.835Zm-3.212,2.286a.7.7,0,0,0-.152.468l.1,2.151L5.8,342.978a.692.692,0,0,0-.492,0L3.3,343.74l.1-2.151a.7.7,0,0,0-.152-.468L1.9,339.441l2.078-.567a.7.7,0,0,0,.4-.289l1.181-1.8,1.182,1.8a.7.7,0,0,0,.4.289l2.078.567Z" transform="translate(0 -334.844)" fill="#f48120"/>
        </g>
      </g>
      <g id="Group_8351" data-name="Group 8351" transform="translate(13.889 26.517)">
        <g id="Group_8350" data-name="Group 8350">
          <rect id="Rectangle_2758" data-name="Rectangle 2758" width="11.806" height="1.389" fill="#f48120"/>
        </g>
      </g>
      <g id="Group_8353" data-name="Group 8353" transform="translate(13.889 29.99)">
        <g id="Group_8352" data-name="Group 8352">
          <rect id="Rectangle_2759" data-name="Rectangle 2759" width="19.445" height="1.389" fill="#f48120"/>
        </g>
      </g>
    </g>
  </g>
</svg>
