<svg id="Group_8511" data-name="Group 8511" xmlns="http://www.w3.org/2000/svg" width="60" height="60" viewBox="0 0 60 60">
  <circle id="Ellipse_14" data-name="Ellipse 14" cx="30" cy="30" r="30" fill="#fff2e8"/>
  <g id="_-Product-Icons" data-name="ðŸ”-Product-Icons" transform="translate(7.5 9.488)">
    <g id="ic_fluent_channel_notifications_24_regular" transform="translate(2.5 3)">
      <path id="_-Color" data-name="ðŸŽ¨-Color" d="M31.768,20.561A10.732,10.732,0,1,1,21.036,31.292,10.731,10.731,0,0,1,31.768,20.561ZM6.4,15.433V31.78a3.415,3.415,0,0,0,3.135,3.4l.28.011H19.7a12.622,12.622,0,0,0,1.383,2.928l-11.263,0A6.342,6.342,0,0,1,3.486,32.14l-.01-.36V15.433a4.411,4.411,0,0,0,2.928,0Zm27.316,20.74h-3.9l.013.228a1.951,1.951,0,0,0,3.889-.228Zm-1.945-11.71-.327.014a3.869,3.869,0,0,0-3.53,3.189l-.036.3-.011.4V30.89L26.2,32.556a.976.976,0,0,0,.521,1.653l.168.014h9.756a.976.976,0,0,0,.8-1.537l-.109-.128L35.68,30.9V28.262l-.011-.285A3.857,3.857,0,0,0,31.775,24.463ZM22.61,22.518a12.717,12.717,0,0,0-2.1,2.926h-5.82a1.464,1.464,0,0,1-.2-2.914l.2-.013ZM32.256,3a6.342,6.342,0,0,1,6.331,5.982l.01.36V20.6a12.625,12.625,0,0,0-2.927-1.383V9.341a3.415,3.415,0,0,0-3.135-3.4l-.28-.011H9.817A3.411,3.411,0,0,0,7,7.415a4.4,4.4,0,0,0-3.085-.392A6.347,6.347,0,0,1,9.457,3.01L9.817,3ZM27.382,15.675a1.464,1.464,0,0,1,.2,2.913l-.2.013H14.691a1.463,1.463,0,0,1-.2-2.913l.2-.013ZM4.939,8.854A2.439,2.439,0,1,1,2.5,11.293,2.439,2.439,0,0,1,4.939,8.854Z" transform="translate(-2.5 -3)" fill="#f48120"/>
    </g>
  </g>
</svg>
