<svg id="Group_8509" data-name="Group 8509" xmlns="http://www.w3.org/2000/svg" width="60" height="60" viewBox="0 0 60 60">
  <g id="Group_527" data-name="Group 527" transform="translate(-142 -5008)">
    <g id="Group_8508" data-name="Group 8508">
      <circle id="Ellipse_14" data-name="Ellipse 14" cx="30" cy="30" r="30" transform="translate(142 5008)" fill="#fff2e8"/>
    </g>
  </g>
  <g id="mobile" transform="translate(4.344 8)">
    <path id="Path_9212" data-name="Path 9212" d="M34.914,4H17.4a3.9,3.9,0,0,0-3.9,3.9V36.1A3.9,3.9,0,0,0,17.4,40H34.914a3.9,3.9,0,0,0,3.9-3.9h0V7.9A3.9,3.9,0,0,0,34.914,4ZM15.75,10.188H36.563V31.563H15.75ZM17.4,6.25H34.914A1.649,1.649,0,0,1,36.563,7.9h0V9.063H15.75V7.9A1.649,1.649,0,0,1,17.4,6.25Zm17.514,31.5H17.4A1.65,1.65,0,0,1,15.75,36.1V32.688H36.563V36.1A1.65,1.65,0,0,1,34.914,37.751Z" fill="#f48120"/>
    <path id="Path_9213" data-name="Path 9213" d="M35.766,57h-.281a.984.984,0,0,0-.984.984v.281a.984.984,0,0,0,.984.984h.281a.984.984,0,0,0,.984-.984v-.281A.984.984,0,0,0,35.766,57Z" transform="translate(-9.187 -23.187)" fill="#f48120"/>
    <path id="Path_9214" data-name="Path 9214" d="M40.422,30.027a.56.56,0,0,0-.717.344l-.152.434a.563.563,0,0,0,.344.717.551.551,0,0,0,.186.032.561.561,0,0,0,.53-.376l.152-.434A.561.561,0,0,0,40.422,30.027Z" transform="translate(-11.384 -11.372)" fill="#f48120"/>
    <path id="Path_9215" data-name="Path 9215" d="M38.052,33.581a.561.561,0,0,0-.717.344L35.74,38.469a.561.561,0,0,0,.344.716.554.554,0,0,0,.186.032.56.56,0,0,0,.53-.376L38.4,34.3A.562.562,0,0,0,38.052,33.581Z" transform="translate(-9.716 -12.927)" fill="#f48120"/>
    <path id="Path_9216" data-name="Path 9216" d="M34.735,22.3a.56.56,0,0,0-.717.344l-2.332,6.644a.561.561,0,0,0,.344.716.561.561,0,0,0,.717-.344l2.332-6.644A.562.562,0,0,0,34.735,22.3Z" transform="translate(-7.942 -7.994)" fill="#f48120"/>
    <path id="Path_9217" data-name="Path 9217" d="M30.8,37.922a.561.561,0,0,0-.717.344l-.343.975a.562.562,0,0,0,.344.717.554.554,0,0,0,.186.032.56.56,0,0,0,.53-.376l.343-.975A.563.563,0,0,0,30.8,37.922Z" transform="translate(-7.091 -14.826)" fill="#f48120"/>
  </g>
</svg>
