<svg xmlns="http://www.w3.org/2000/svg" width="60" height="60" viewBox="0 0 60 60">
  <g id="Group_8491" data-name="Group 8491" transform="translate(-416 -4252)">
    <g id="Group_8490" data-name="Group 8490" transform="translate(416 4268)">
      <g id="Group_524" data-name="Group 524" transform="translate(0 -16.118)">
        <circle id="Ellipse_14" data-name="Ellipse 14" cx="30" cy="30" r="30" transform="translate(0 0.118)" fill="#fff2e8"/>
      </g>
    </g>
    <g id="tracking-track" transform="translate(429 4263.999)">
      <g id="Group_8401" data-name="Group 8401">
        <g id="Group_8400" data-name="Group 8400">
          <path id="Path_9131" data-name="Path 9131" d="M33.469,8.447A.532.532,0,0,0,34,7.915V2.8A2.807,2.807,0,0,0,31.2,0H2.8A2.807,2.807,0,0,0,0,2.8V23.247a2.807,2.807,0,0,0,2.8,2.8H5.643a.532.532,0,1,0,0-1.065H2.8a1.741,1.741,0,0,1-1.739-1.739v-.035H32.936v.035A1.741,1.741,0,0,1,31.2,24.986H7.915a.532.532,0,1,0,0,1.065h5.609l-.839,4.614H11.89a1.67,1.67,0,0,0-1.668,1.668v1.136a.532.532,0,0,0,.532.532H23.247a.532.532,0,0,0,.532-.532V32.333a1.67,1.67,0,0,0-1.668-1.668h-.795l-.839-4.614H31.2a2.807,2.807,0,0,0,2.8-2.8V10.186a.532.532,0,1,0-1.065,0v11.96H1.065V3.9H32.936V7.915A.532.532,0,0,0,33.469,8.447Zm-18.863,17.6H19.4l.839,4.614H13.767Zm7.506,5.679a.6.6,0,0,1,.6.6v.6H11.286v-.6a.6.6,0,0,1,.6-.6ZM1.065,2.839V2.8A1.741,1.741,0,0,1,2.8,1.065H31.2A1.741,1.741,0,0,1,32.936,2.8v.035Z" fill="#f48120"/>
        </g>
      </g>
      <g id="Group_8403" data-name="Group 8403" transform="translate(3.407 4.543)">
        <g id="Group_8402" data-name="Group 8402">
          <path id="Path_9132" data-name="Path 9132" d="M77.393,69.545h-.418l.227-.227a.532.532,0,0,0-.753-.753l-.759.759-.759-.759a.532.532,0,0,0-.753.753l.227.227h-.418a.532.532,0,0,0-.532.532v2.875H65.468a3.372,3.372,0,0,0,0,6.743h7.95a2.307,2.307,0,1,1,0,4.614H57.489c.433-.557,1.016-1.335,1.6-2.2,1.568-2.311,2.363-4.066,2.363-5.215a5.075,5.075,0,1,0-10.151,0c0,1.149.8,2.9,2.363,5.215,1.127,1.661,2.234,2.994,2.3,3.074a.568.568,0,0,0,.411.194H73.418a3.372,3.372,0,1,0,0-6.743h-7.95a2.307,2.307,0,0,1,0-4.614H77.393a.532.532,0,0,0,.532-.532V70.078A.532.532,0,0,0,77.393,69.545ZM52.372,76.892a4.011,4.011,0,1,1,8.021,0c0,1.714-2.6,5.336-4.011,7.107C54.973,82.228,52.372,78.606,52.372,76.892ZM74.518,70.61h.639v.639h-.639Zm0,2.342v-.639h.639v.6c0,.012,0,.024,0,.035Zm2.342,0H76.22c0-.012,0-.024,0-.035v-.6h.6l.035,0Zm0-1.7-.035,0h-.6V70.61h.639Z" transform="translate(-51.307 -68.41)" fill="#f48120"/>
        </g>
      </g>
      <g id="Group_8405" data-name="Group 8405" transform="translate(5.679 10.222)">
        <g id="Group_8404" data-name="Group 8404">
          <path id="Path_9133" data-name="Path 9133" d="M88.316,153.921a2.8,2.8,0,1,0,2.8,2.8A2.807,2.807,0,0,0,88.316,153.921Zm0,4.543a1.739,1.739,0,1,1,1.739-1.739A1.741,1.741,0,0,1,88.316,158.464Z" transform="translate(-85.512 -153.921)" fill="#f48120"/>
        </g>
      </g>
    </g>
  </g>
</svg>
