<svg xmlns="http://www.w3.org/2000/svg" width="60" height="60" viewBox="0 0 60 60">
  <g id="Group_8494" data-name="Group 8494" transform="translate(-652 -4270)">
    <circle id="Ellipse_14" data-name="Ellipse 14" cx="30" cy="30" r="30" transform="translate(652 4270)" fill="#fff2e8"/>
    <g id="hotel" transform="translate(664.667 4262.184)">
      <g id="Group_8313" data-name="Group 8313" transform="translate(0 20.898)">
        <g id="Group_8312" data-name="Group 8312">
          <path id="Path_9084" data-name="Path 9084" d="M33.959,35.755h-.707V34.34H31.837v1.415H25.823V23.02a.708.708,0,0,0-.707-.707h-.707V20.9H22.993v1.415H11.673V20.9H10.258v1.415H9.551a.707.707,0,0,0-.707.707V35.755H2.83V34.34H1.415v1.415H.707A.707.707,0,0,0,0,36.463V52.027a.707.707,0,0,0,.707.707H33.959a.708.708,0,0,0,.707-.707V36.463A.707.707,0,0,0,33.959,35.755ZM8.843,51.32H1.415V40h5.66V38.585H1.415V37.17H8.843Zm10.612,0H15.211V46.367h1.415V49.9h1.415V46.367h1.415Zm4.952-14.857V51.32H20.871V46.367h1.061V44.952h-9.2v1.415H13.8V51.32H10.258V26.558H22.993V25.143H10.258V23.728h14.15Zm8.843,2.122h-5.66V40h5.66V51.32H25.823V37.17h7.429Z" transform="translate(0 -20.898)" fill="#f48120"/>
          <rect id="Rectangle_2698" data-name="Rectangle 2698" width="1.415" height="1.415" transform="translate(2.476 20.517)" fill="#f48120"/>
          <rect id="Rectangle_2699" data-name="Rectangle 2699" width="1.415" height="1.415" transform="translate(4.599 20.517)" fill="#f48120"/>
          <rect id="Rectangle_2700" data-name="Rectangle 2700" width="1.415" height="1.415" transform="translate(6.721 20.517)" fill="#f48120"/>
          <rect id="Rectangle_2701" data-name="Rectangle 2701" width="1.415" height="1.415" transform="translate(2.476 22.993)" fill="#f48120"/>
          <rect id="Rectangle_2702" data-name="Rectangle 2702" width="1.415" height="1.415" transform="translate(4.599 22.993)" fill="#f48120"/>
          <rect id="Rectangle_2703" data-name="Rectangle 2703" width="1.415" height="1.415" transform="translate(6.721 22.993)" fill="#f48120"/>
          <rect id="Rectangle_2704" data-name="Rectangle 2704" width="1.415" height="1.415" transform="translate(2.476 25.469)" fill="#f48120"/>
          <rect id="Rectangle_2705" data-name="Rectangle 2705" width="1.415" height="1.415" transform="translate(4.599 25.469)" fill="#f48120"/>
          <rect id="Rectangle_2706" data-name="Rectangle 2706" width="1.415" height="1.415" transform="translate(6.721 25.469)" fill="#f48120"/>
          <rect id="Rectangle_2707" data-name="Rectangle 2707" width="1.415" height="1.415" transform="translate(2.476 27.945)" fill="#f48120"/>
          <rect id="Rectangle_2708" data-name="Rectangle 2708" width="1.415" height="1.415" transform="translate(4.599 27.945)" fill="#f48120"/>
          <rect id="Rectangle_2709" data-name="Rectangle 2709" width="1.415" height="1.415" transform="translate(6.721 27.945)" fill="#f48120"/>
          <rect id="Rectangle_2710" data-name="Rectangle 2710" width="1.415" height="1.415" transform="translate(12.381 7.782)" fill="#f48120"/>
          <rect id="Rectangle_2711" data-name="Rectangle 2711" width="1.415" height="1.415" transform="translate(15.211 7.782)" fill="#f48120"/>
          <rect id="Rectangle_2712" data-name="Rectangle 2712" width="1.415" height="1.415" transform="translate(18.041 7.782)" fill="#f48120"/>
          <rect id="Rectangle_2713" data-name="Rectangle 2713" width="1.415" height="1.415" transform="translate(12.381 10.258)" fill="#f48120"/>
          <rect id="Rectangle_2714" data-name="Rectangle 2714" width="1.415" height="1.415" transform="translate(15.211 10.258)" fill="#f48120"/>
          <rect id="Rectangle_2715" data-name="Rectangle 2715" width="1.415" height="1.415" transform="translate(18.041 10.258)" fill="#f48120"/>
          <rect id="Rectangle_2716" data-name="Rectangle 2716" width="1.415" height="1.415" transform="translate(12.381 12.735)" fill="#f48120"/>
          <rect id="Rectangle_2717" data-name="Rectangle 2717" width="1.415" height="1.415" transform="translate(15.211 12.735)" fill="#f48120"/>
          <rect id="Rectangle_2718" data-name="Rectangle 2718" width="1.415" height="1.415" transform="translate(18.041 12.735)" fill="#f48120"/>
          <rect id="Rectangle_2719" data-name="Rectangle 2719" width="1.415" height="1.415" transform="translate(12.381 15.211)" fill="#f48120"/>
          <rect id="Rectangle_2720" data-name="Rectangle 2720" width="1.415" height="1.415" transform="translate(15.211 15.211)" fill="#f48120"/>
          <rect id="Rectangle_2721" data-name="Rectangle 2721" width="1.415" height="1.415" transform="translate(18.041 15.211)" fill="#f48120"/>
          <rect id="Rectangle_2722" data-name="Rectangle 2722" width="1.415" height="1.415" transform="translate(20.871 7.782)" fill="#f48120"/>
          <rect id="Rectangle_2723" data-name="Rectangle 2723" width="1.415" height="1.415" transform="translate(20.871 10.258)" fill="#f48120"/>
          <rect id="Rectangle_2724" data-name="Rectangle 2724" width="1.415" height="1.415" transform="translate(20.871 12.735)" fill="#f48120"/>
          <rect id="Rectangle_2725" data-name="Rectangle 2725" width="1.415" height="1.415" transform="translate(20.871 15.211)" fill="#f48120"/>
          <rect id="Rectangle_2726" data-name="Rectangle 2726" width="1.415" height="1.415" transform="translate(12.381 17.687)" fill="#f48120"/>
          <rect id="Rectangle_2727" data-name="Rectangle 2727" width="1.415" height="1.415" transform="translate(15.211 17.687)" fill="#f48120"/>
          <rect id="Rectangle_2728" data-name="Rectangle 2728" width="1.415" height="1.415" transform="translate(18.041 17.687)" fill="#f48120"/>
          <rect id="Rectangle_2729" data-name="Rectangle 2729" width="1.415" height="1.415" transform="translate(12.381 20.163)" fill="#f48120"/>
          <rect id="Rectangle_2730" data-name="Rectangle 2730" width="1.415" height="1.415" transform="translate(15.211 20.163)" fill="#f48120"/>
          <rect id="Rectangle_2731" data-name="Rectangle 2731" width="1.415" height="1.415" transform="translate(18.041 20.163)" fill="#f48120"/>
          <rect id="Rectangle_2732" data-name="Rectangle 2732" width="1.415" height="1.415" transform="translate(20.871 17.687)" fill="#f48120"/>
          <rect id="Rectangle_2733" data-name="Rectangle 2733" width="1.415" height="1.415" transform="translate(20.871 20.163)" fill="#f48120"/>
          <rect id="Rectangle_2734" data-name="Rectangle 2734" width="1.415" height="1.415" transform="translate(26.531 20.517)" fill="#f48120"/>
          <rect id="Rectangle_2735" data-name="Rectangle 2735" width="1.415" height="1.415" transform="translate(28.653 20.517)" fill="#f48120"/>
          <rect id="Rectangle_2736" data-name="Rectangle 2736" width="1.415" height="1.415" transform="translate(30.775 20.517)" fill="#f48120"/>
          <rect id="Rectangle_2737" data-name="Rectangle 2737" width="1.415" height="1.415" transform="translate(26.531 22.993)" fill="#f48120"/>
          <rect id="Rectangle_2738" data-name="Rectangle 2738" width="1.415" height="1.415" transform="translate(28.653 22.993)" fill="#f48120"/>
          <rect id="Rectangle_2739" data-name="Rectangle 2739" width="1.415" height="1.415" transform="translate(30.775 22.993)" fill="#f48120"/>
          <rect id="Rectangle_2740" data-name="Rectangle 2740" width="1.415" height="1.415" transform="translate(26.531 25.469)" fill="#f48120"/>
          <rect id="Rectangle_2741" data-name="Rectangle 2741" width="1.415" height="1.415" transform="translate(28.653 25.469)" fill="#f48120"/>
          <rect id="Rectangle_2742" data-name="Rectangle 2742" width="1.415" height="1.415" transform="translate(30.775 25.469)" fill="#f48120"/>
          <rect id="Rectangle_2743" data-name="Rectangle 2743" width="1.415" height="1.415" transform="translate(26.531 27.945)" fill="#f48120"/>
          <rect id="Rectangle_2744" data-name="Rectangle 2744" width="1.415" height="1.415" transform="translate(28.653 27.945)" fill="#f48120"/>
          <rect id="Rectangle_2745" data-name="Rectangle 2745" width="1.415" height="1.415" transform="translate(30.775 27.945)" fill="#f48120"/>
        </g>
      </g>
    </g>
  </g>
</svg>
