<svg xmlns="http://www.w3.org/2000/svg" width="60" height="60" viewBox="0 0 60 60">
  <g id="Group_8499" data-name="Group 8499" transform="translate(-678 -6094)">
    <circle id="Ellipse_14" data-name="Ellipse 14" cx="30" cy="30" r="30" transform="translate(678 6094)" fill="#fff2e8"/>
    <g id="Group_8424" data-name="Group 8424" transform="translate(690 6106.045)">
      <g id="Group_8423" data-name="Group 8423" transform="translate(0 0)">
        <path id="Path_9156" data-name="Path 9156" d="M32.693,26.565,34.91,23.27a.544.544,0,0,0,0-.6.629.629,0,0,0-.539-.3H30.776v-2.4a.566.566,0,0,0-.6-.6H27.606a34.3,34.3,0,0,0,1.434-9.883V7.4a.611.611,0,0,0-.3-.479L17.359-.27a.646.646,0,0,0-.659,0L5.319,6.918a.534.534,0,0,0-.3.479v2.1a33.877,33.877,0,0,0,1.43,9.883H3.822a.566.566,0,0,0-.6.6v2.4H-.371a.456.456,0,0,0-.479.359.544.544,0,0,0,0,.6l2.156,3.235L-.91,29.859a.544.544,0,0,0,0,.6.629.629,0,0,0,.539.3H5.02a.566.566,0,0,0,.6-.6v-2.4h4.927A28.455,28.455,0,0,0,16.58,35.37a.647.647,0,0,0,.419.18c.12,0,.18,0,.24-.12.06,0,.06-.06.12-.06A26.453,26.453,0,0,0,23.4,27.763H28.38v2.4a.566.566,0,0,0,.6.6H34.37c.24,0,.359-.18.479-.359a.544.544,0,0,0,0-.6ZM6.218,9.553v-1.8L17,.928,27.782,7.7v1.8a32.7,32.7,0,0,1-1.5,9.883H25.056a31.268,31.268,0,0,0,1.588-9.883V8.715a.611.611,0,0,0-.3-.479l-8.985-5.69a.646.646,0,0,0-.659,0L7.715,8.235a.534.534,0,0,0-.3.479v.779A30.888,30.888,0,0,0,9,19.377H7.715A32.312,32.312,0,0,1,6.218,9.553ZM14,11.59a3,3,0,1,1,3,3A2.966,2.966,0,0,1,14,11.59Zm3.055,4.193a4.191,4.191,0,0,1,4.133,3.594H12.867A4.252,4.252,0,0,1,17.06,15.783Zm5.3,3.594A5.361,5.361,0,0,0,19.311,15.1a4.193,4.193,0,1,0-4.624,0,5.361,5.361,0,0,0-3.046,4.278H10.231A30.791,30.791,0,0,1,8.614,9.493V9.014L17,3.743l8.386,5.271v.479a31.062,31.062,0,0,1-1.617,9.883ZM4.421,29.56H.767l1.8-2.7a.649.649,0,0,0,0-.659L.767,23.57H3.223v4.193a.566.566,0,0,0,.6.6h.6v1.2ZM17,34.112a24.5,24.5,0,0,1-5.091-6.349h1.523a16.86,16.86,0,0,0,3.149,4.313.579.579,0,0,0,.839,0,18.039,18.039,0,0,0,3.141-4.313h1.531A26.977,26.977,0,0,1,17,34.112Zm2.216-6.349a16.192,16.192,0,0,1-2.216,3,16.189,16.189,0,0,1-2.216-3Zm4.078-1.2a.611.611,0,0,0-.244-.06H10.89a.735.735,0,0,0-.29.06H4.421v-5.99H29.578v5.99Zm6.285,3V28.422h.6a.566.566,0,0,0,.6-.6V23.63h2.456l-1.8,2.636a.649.649,0,0,0,0,.659l1.8,2.636H29.579Z" transform="translate(1 0.36)" fill="#f48120"/>
        <path id="Path_9157" data-name="Path 9157" d="M145.093,316.145h2.4a.6.6,0,1,0,0-1.2h-2.4a.6.6,0,0,0,0,1.2Z" transform="translate(-134.281 -292.814)" fill="#f48120"/>
        <path id="Path_9158" data-name="Path 9158" d="M213.359,316.145h3.594a.6.6,0,1,0,0-1.2h-3.594a.6.6,0,1,0,0,1.2Z" transform="translate(-197.755 -292.814)" fill="#f48120"/>
        <path id="Path_9159" data-name="Path 9159" d="M150.484,349.08h-5.391a.6.6,0,1,0,0,1.2h5.391a.6.6,0,1,0,0-1.2Z" transform="translate(-134.281 -324.551)" fill="#f48120"/>
        <path id="Path_9160" data-name="Path 9160" d="M334.024,349.08h-1.2a.6.6,0,0,0,0,1.2h1.2a.6.6,0,0,0,0-1.2Z" transform="translate(-308.836 -324.551)" fill="#f48120"/>
        <path id="Path_9161" data-name="Path 9161" d="M259.021,349.08h-2.995a.6.6,0,0,0,0,1.2h2.995a.6.6,0,1,0,0-1.2Z" transform="translate(-237.427 -324.551)" fill="#f48120"/>
        <path id="Path_9162" data-name="Path 9162" d="M310.221,314.947h-2.995a.6.6,0,0,0,0,1.2h2.995a.6.6,0,0,0,0-1.2Z" transform="translate(-285.033 -292.814)" fill="#f48120"/>
      </g>
    </g>
  </g>
</svg>
