<svg xmlns="http://www.w3.org/2000/svg" width="60" height="60" viewBox="0 0 60 60">
  <g id="Group_8489" data-name="Group 8489" transform="translate(0 -0.118)">
    <circle id="Ellipse_14" data-name="Ellipse 14" cx="30" cy="30" r="30" transform="translate(0 0.118)" fill="#fff2e8"/>
    <path id="appointments_1_" data-name="appointments (1)" d="M6.286,0V9.643M21.715,0V9.643M5.321,14.464h5.786m11.572,0H16.893M5.321,20.25h5.786m5.786,0h5.786M2.429,4.821H25.572A1.929,1.929,0,0,1,27.5,6.75V26.036a1.929,1.929,0,0,1-1.929,1.929H2.429A1.929,1.929,0,0,1,.5,26.036V6.75A1.929,1.929,0,0,1,2.429,4.821Z" transform="translate(14.5 14.886)" fill="none" stroke="#f48120" stroke-width="2"/>
  </g>
</svg>
