<svg xmlns="http://www.w3.org/2000/svg" width="60" height="60" viewBox="0 0 60 60">
  <g id="Group_8496" data-name="Group 8496" transform="translate(-964 -4787)">
    <g id="Group_530" data-name="Group 530" transform="translate(286 -1054)">
      <circle id="Ellipse_14" data-name="Ellipse 14" cx="30" cy="30" r="30" transform="translate(678 5841)" fill="#fff2e8"/>
    </g>
    <g id="clipboard-report" transform="translate(928.439 4797.333)">
      <g id="Group_8411" data-name="Group 8411" transform="translate(51.458)">
        <g id="Group_8410" data-name="Group 8410">
          <path id="Path_9144" data-name="Path 9144" d="M76.421,6.9h-4V4.864A1.053,1.053,0,0,0,71.37,3.81H69.9L68,.524A1.066,1.066,0,0,0,67.086,0H63.775a1.053,1.053,0,0,0-.91.524L60.956,3.8H59.5a1.053,1.053,0,0,0-1.054,1.054V6.891h-4a2.981,2.981,0,0,0-2.981,2.981V34.885a2.981,2.981,0,0,0,2.981,2.981H76.415A2.981,2.981,0,0,0,79.4,34.885V9.878A2.971,2.971,0,0,0,76.421,6.9ZM64.379,2.1h2.1l.992,1.7H63.388ZM60.55,5.912h9.772V9.379H60.55ZM77.307,34.885H77.3a.878.878,0,0,1-.879.879H54.445a.878.878,0,0,1-.879-.879V9.878A.878.878,0,0,1,54.445,9h4v1.428A1.053,1.053,0,0,0,59.5,11.481H71.376a1.053,1.053,0,0,0,1.054-1.054V9h4a.878.878,0,0,1,.879.879V34.885Z" transform="translate(-51.458)" fill="#f48120"/>
        </g>
      </g>
      <g id="Group_8413" data-name="Group 8413" transform="translate(67.36 13.651)">
        <g id="Group_8412" data-name="Group 8412">
          <path id="Path_9145" data-name="Path 9145" d="M223.435,141.511h-6.074a1.053,1.053,0,0,0-1.054,1.054v6.91a1.053,1.053,0,0,0,1.054,1.054h6.074a1.053,1.053,0,0,0,1.054-1.054v-6.916A1.051,1.051,0,0,0,223.435,141.511Zm-1.048,6.922h-3.972v-4.814h3.972Z" transform="translate(-216.307 -141.511)" fill="#f48120"/>
        </g>
      </g>
      <g id="Group_8415" data-name="Group 8415" transform="translate(55.325 14.998)">
        <g id="Group_8414" data-name="Group 8414" transform="translate(0)">
          <path id="Path_9146" data-name="Path 9146" d="M100.776,155.475H92.594a1.054,1.054,0,1,0,0,2.108h8.182a1.054,1.054,0,1,0,0-2.108Z" transform="translate(-91.54 -155.475)" fill="#f48120"/>
        </g>
      </g>
      <g id="Group_8417" data-name="Group 8417" transform="translate(55.325 20.567)">
        <g id="Group_8416" data-name="Group 8416" transform="translate(0)">
          <path id="Path_9147" data-name="Path 9147" d="M100.776,213.2H92.594a1.054,1.054,0,0,0,0,2.108h8.182a1.054,1.054,0,0,0,0-2.108Z" transform="translate(-91.54 -213.204)" fill="#f48120"/>
        </g>
      </g>
      <g id="Group_8419" data-name="Group 8419" transform="translate(55.325 26.136)">
        <g id="Group_8418" data-name="Group 8418">
          <path id="Path_9148" data-name="Path 9148" d="M110.7,270.933H92.594a1.054,1.054,0,1,0,0,2.108h18.122a1.053,1.053,0,0,0,1.054-1.054A1.072,1.072,0,0,0,110.7,270.933Z" transform="translate(-91.54 -270.933)" fill="#f48120"/>
        </g>
      </g>
      <g id="Group_8421" data-name="Group 8421" transform="translate(55.325 31.705)">
        <g id="Group_8420" data-name="Group 8420">
          <path id="Path_9149" data-name="Path 9149" d="M110.7,328.663H92.594a1.054,1.054,0,0,0,0,2.108h18.122a1.053,1.053,0,0,0,1.054-1.054A1.067,1.067,0,0,0,110.7,328.663Z" transform="translate(-91.54 -328.663)" fill="#f48120"/>
        </g>
      </g>
    </g>
  </g>
</svg>
