<svg xmlns="http://www.w3.org/2000/svg" width="60" height="60" viewBox="0 0 60 60">
  <g id="Group_8496" data-name="Group 8496" transform="translate(-652 -4535)">
    <circle id="Ellipse_14" data-name="Ellipse 14" cx="30" cy="30" r="30" transform="translate(652 4535)" fill="#fff2e8"/>
    <g id="search" transform="translate(659.292 4545.667)">
      <path id="Path_9090" data-name="Path 9090" d="M34.4,0H13.854a3.021,3.021,0,0,0-2.965,2.472A3.022,3.022,0,0,0,8.472,4.889,3.021,3.021,0,0,0,6,7.854V35.646a3.024,3.024,0,0,0,3.021,3.021H29.562a3.021,3.021,0,0,0,2.965-2.472,3.022,3.022,0,0,0,2.417-2.417,3.021,3.021,0,0,0,2.472-2.965V3.021A3.024,3.024,0,0,0,34.4,0ZM29.562,37.458H9.021a1.815,1.815,0,0,1-1.812-1.812V7.854A1.815,1.815,0,0,1,9.021,6.042h15.1v6.646a.6.6,0,0,0,.6.6h6.646V35.646A1.815,1.815,0,0,1,29.562,37.458ZM25.333,6.9l5.187,5.187H25.333Zm7.25,28.042V12.687c0-.013-.007-.025-.008-.038a.621.621,0,0,0-.031-.155.491.491,0,0,0-.021-.057.6.6,0,0,0-.118-.177l-7.25-7.25a.586.586,0,0,0-.178-.118.488.488,0,0,0-.054-.019.6.6,0,0,0-.159-.032c-.012,0-.023-.007-.035-.007h-15a1.816,1.816,0,0,1,1.709-1.208H29.562V7.25a.6.6,0,0,0,.6.6h3.625V33.229A1.816,1.816,0,0,1,32.583,34.938ZM30.771,4.479l2.167,2.167H30.771Zm5.437,26.333A1.816,1.816,0,0,1,35,32.522V7.25c0-.013-.007-.025-.008-.038a.621.621,0,0,0-.031-.155A.453.453,0,0,0,34.941,7a.6.6,0,0,0-.118-.177L30.593,2.594a.6.6,0,0,0-.177-.118c-.019-.008-.037-.014-.057-.021a.575.575,0,0,0-.156-.031c-.013,0-.024-.007-.037-.007H12.145a1.816,1.816,0,0,1,1.709-1.208H34.4a1.815,1.815,0,0,1,1.812,1.812Z" fill="#f48120"/>
      <rect id="Rectangle_2746" data-name="Rectangle 2746" width="12" height="2" transform="translate(9.708 9.333)" fill="#f48120"/>
      <path id="Path_9091" data-name="Path 9091" d="M22.612,38.708a7.882,7.882,0,1,0-6.671-3.729l-5.6,5.6A1.812,1.812,0,0,0,12.9,43.145l5.607-5.607A7.8,7.8,0,0,0,22.612,38.708Zm0-14.5a6.646,6.646,0,1,1-4.143,11.833L17.424,35a6.637,6.637,0,0,1,5.187-10.789ZM12.048,42.29a.6.6,0,0,1-.854-.855l5.469-5.469a7.926,7.926,0,0,0,.855.854Z" transform="translate(-1.508 -9.104)" fill="#f48120"/>
      <path id="Path_9092" data-name="Path 9092" d="M27.437,37.875A5.437,5.437,0,1,0,22,32.437,5.444,5.444,0,0,0,27.437,37.875Zm0-9.667a4.229,4.229,0,1,1-4.229,4.229A4.234,4.234,0,0,1,27.437,28.208Z" transform="translate(-6.333 -10.688)" fill="#f48120"/>
      <rect id="Rectangle_2747" data-name="Rectangle 2747" width="2" height="1" transform="translate(9.708 12.333)" fill="#f48120"/>
      <rect id="Rectangle_2748" data-name="Rectangle 2748" width="3" height="1" transform="translate(13.708 12.333)" fill="#f48120"/>
      <rect id="Rectangle_2749" data-name="Rectangle 2749" width="4" height="1" transform="translate(25.708 29.333)" fill="#f48120"/>
      <rect id="Rectangle_2750" data-name="Rectangle 2750" width="2" height="1" transform="translate(27.708 27.333)" fill="#f48120"/>
      <rect id="Rectangle_2751" data-name="Rectangle 2751" width="8" height="1" transform="translate(14.708 32.333)" fill="#f48120"/>
      <rect id="Rectangle_2752" data-name="Rectangle 2752" width="6" height="1" transform="translate(23.708 32.333)" fill="#f48120"/>
      <rect id="Rectangle_2753" data-name="Rectangle 2753" width="3" height="1" transform="translate(9.708 14.333)" fill="#f48120"/>
    </g>
  </g>
</svg>
