<svg xmlns="http://www.w3.org/2000/svg" xmlns:xlink="http://www.w3.org/1999/xlink" width="50" height="50" viewBox="0 0 50 50">
  <defs>
    <clipPath id="clip-path">
      <rect id="Rectangle_2684" data-name="Rectangle 2684" width="50" height="50" transform="translate(403 1364)" fill="#fff" stroke="#707070" stroke-width="1"/>
    </clipPath>
  </defs>
  <g id="Mask_Group_8040" data-name="Mask Group 8040" transform="translate(-403 -1364)" clip-path="url(#clip-path)">
    <g id="code-svgrepo-com_1_" data-name="code-svgrepo-com (1)" transform="translate(404.561 1367.016)">
      <path id="Path_9457" data-name="Path 9457" d="M16.668,7.619a1.629,1.629,0,0,1,2.3-.121l3.774,3.4A42.223,42.223,0,0,1,26.58,14.61a5.931,5.931,0,0,1,1.639,3.872,5.931,5.931,0,0,1-1.639,3.872,42.206,42.206,0,0,1-3.837,3.716l-3.774,3.4a1.629,1.629,0,1,1-2.179-2.422l3.685-3.316a41.059,41.059,0,0,0,3.613-3.472,2.766,2.766,0,0,0,.874-1.775,2.766,2.766,0,0,0-.874-1.775,41.062,41.062,0,0,0-3.613-3.472L16.789,9.919A1.629,1.629,0,0,1,16.668,7.619Z" transform="translate(16.42 3.317)" fill="#f48120"/>
      <path id="Path_9458" data-name="Path 9458" d="M13.669,9.919A1.629,1.629,0,0,0,11.489,7.5l-3.774,3.4A42.24,42.24,0,0,0,3.879,14.61,5.931,5.931,0,0,0,2.24,18.483a5.931,5.931,0,0,0,1.639,3.872,42.225,42.225,0,0,0,3.837,3.716l3.774,3.4a1.629,1.629,0,0,0,2.18-2.422L9.984,23.73a41.063,41.063,0,0,1-3.612-3.472A2.767,2.767,0,0,1,5.5,18.483a2.767,2.767,0,0,1,.874-1.775,41.066,41.066,0,0,1,3.612-3.472Z" transform="translate(0 3.317)" fill="#f48120"/>
      <path id="Path_9459" data-name="Path 9459" d="M19.946,4.306a1.629,1.629,0,0,1,1.152,2L12.467,38.511a1.629,1.629,0,0,1-3.147-.843L17.95,5.458A1.629,1.629,0,0,1,19.946,4.306Z" transform="translate(8.232)" fill="#f48120"/>
    </g>
  </g>
</svg>
