<svg xmlns="http://www.w3.org/2000/svg" width="43.894" height="15.001" viewBox="0 0 43.894 15.001"><g transform="translate(10.181 0)"><path d="M250.833,23.107a2.478,2.478,0,0,1-1-.213h0l-6.957-3.1a2.475,2.475,0,0,1-1.252-3.261l3.1-6.957a2.475,2.475,0,0,1,3.261-1.252l6.957,3.1a2.475,2.475,0,0,1,1.252,3.261l-3.1,6.957A2.477,2.477,0,0,1,250.833,23.107Zm-.422-1.517a1.047,1.047,0,0,0,1.378-.526l3.1-6.957a1.047,1.047,0,0,0-.526-1.378l-6.961-3.1a1.047,1.047,0,0,0-1.378.526l-3.1,6.957a1.047,1.047,0,0,0,.526,1.378Z" transform="translate(-241.412 -8.112)" fill="#fff"/></g><g transform="translate(31.337 2.443)"><path d="M738.087,76.857H730.47a2.474,2.474,0,0,1-2.47-2.47V66.77a2.474,2.474,0,0,1,2.47-2.47h7.618a2.473,2.473,0,0,1,2.47,2.47v7.618A2.473,2.473,0,0,1,738.087,76.857ZM730.47,65.726a1.047,1.047,0,0,0-1.044,1.044v7.618a1.047,1.047,0,0,0,1.044,1.044h7.618a1.047,1.047,0,0,0,1.043-1.044V66.77a1.047,1.047,0,0,0-1.043-1.044Z" transform="translate(-728 -64.3)" fill="#fff"/></g><path d="M20.161,43.551l-1.026,2.3c-.013.026-.026.048-.039.07l.4,2.47a1.043,1.043,0,0,1-.861,1.2L11.113,50.8a1.054,1.054,0,0,1-.778-.183,1.025,1.025,0,0,1-.417-.678L8.7,42.416a1.054,1.054,0,0,1,.183-.778,1.025,1.025,0,0,1,.678-.417L17.083,40a1.1,1.1,0,0,1,.165-.013,1.048,1.048,0,0,1,1.03.878l.4,2.487,1.061-2.378-.057-.335A2.472,2.472,0,0,0,16.857,38.6L9.335,39.816a2.418,2.418,0,0,0-1.6.987A2.452,2.452,0,0,0,7.3,42.642l1.217,7.522A2.449,2.449,0,0,0,9.5,51.773a2.42,2.42,0,0,0,1.439.465,2.516,2.516,0,0,0,.4-.03l7.522-1.217a2.472,2.472,0,0,0,2.044-2.831Z" transform="translate(-7.264 -37.242)" fill="#fff"/><g transform="translate(21.271 1.49)"><path d="M497.137,50.8l1.1-2.474-.313-2.3a1.04,1.04,0,0,1,.9-1.17l7.548-1.026c.048,0,.1-.009.143-.009a1.05,1.05,0,0,1,.63.213c.035.026.065.057.1.083a2.487,2.487,0,0,1,1.265-.713,2.409,2.409,0,0,0-.5-.509,2.458,2.458,0,0,0-1.826-.483l-7.557,1.026a2.432,2.432,0,0,0-1.631.952,2.459,2.459,0,0,0-.483,1.826Z" transform="translate(-496.488 -42.389)" fill="#fff"/><path d="M532.374,104.4l-.991-7.3a1.041,1.041,0,0,0-1,1.039v2.144l.587,4.313a1.04,1.04,0,0,1-.9,1.17l-7.548,1.026a1.04,1.04,0,0,1-1.17-.9L521,103.335l-1.1,2.474.039.278a2.471,2.471,0,0,0,2.444,2.135,2.958,2.958,0,0,0,.339-.022l7.539-1.017a2.432,2.432,0,0,0,1.63-.952A2.459,2.459,0,0,0,532.374,104.4Z" transform="translate(-518.882 -94.721)" fill="#fff"/></g></svg>