<svg xmlns="http://www.w3.org/2000/svg" xmlns:xlink="http://www.w3.org/1999/xlink" width="45" height="45" viewBox="0 0 45 45">
  <defs>
    <linearGradient id="linear-gradient" x1="0.5" x2="0.156" y2="0.791" gradientUnits="objectBoundingBox">
      <stop offset="0" stop-color="#3e3e3e"/>
      <stop offset="1" stop-color="#1a1a1a"/>
    </linearGradient>
  </defs>
  <g id="Group_6" data-name="Group 6" transform="translate(0 -0.5)">
    <circle id="Ellipse_1" data-name="Ellipse 1" cx="22.5" cy="22.5" r="22.5" transform="translate(0 0.5)" fill="url(#linear-gradient)"/>
    <g id="migrate-svgrepo-com" transform="translate(87.75 -2.001)">
      <path id="Path_7193" data-name="Path 7193" d="M9.437,3.919a1.431,1.431,0,0,1,2.023,0L18.139,10.6a1.431,1.431,0,0,1,0,2.023L11.46,19.3a1.431,1.431,0,1,1-2.023-2.023L15.1,11.61,9.437,5.942a1.431,1.431,0,0,1,0-2.023Z" transform="translate(-71.977 14)" fill="#fff"/>
      <path id="Path_7194" data-name="Path 7194" d="M8.826,3.919a1.431,1.431,0,0,1,2.023,0L17.528,10.6a1.431,1.431,0,0,1,0,2.023L10.849,19.3a1.431,1.431,0,0,1-2.023-2.023l4.237-4.237H2.681a1.431,1.431,0,1,1,0-2.863H13.063L8.826,5.942a1.431,1.431,0,0,1,0-2.023Z" transform="translate(-79 14)" fill="#fff"/>
    </g>
  </g>
</svg>
