<svg xmlns="http://www.w3.org/2000/svg" width="60" height="60" viewBox="0 0 60 60">
  <g id="Group_74" data-name="Group 74" transform="translate(-1018 -461)">
    <circle id="Ellipse_14" data-name="Ellipse 14" cx="30" cy="30" r="30" transform="translate(1018 461)" fill="#fff2e8"/>
    <g id="Calculator" transform="translate(1024 471)">
      <path id="Path_9330" data-name="Path 9330" d="M34.9,15.238H15.6a.6.6,0,0,1-.6-.6V8.6a.6.6,0,0,1,.6-.6H34.9a.6.6,0,0,1,.6.6v6.032A.6.6,0,0,1,34.9,15.238Zm-18.7-1.206H34.3V9.206h-18.1Z" transform="translate(-1.587 -1.984)" fill="#f48120"/>
      <path id="Path_9331" data-name="Path 9331" d="M35.73,37.984H11.6a.6.6,0,0,1-.6-.6V3.6a.6.6,0,0,1,.6-.6H35.73a.6.6,0,0,1,.6.6V37.381A.6.6,0,0,1,35.73,37.984ZM12.206,36.778H35.127V4.206H12.206Z" fill="#f48120"/>
      <path id="Path_9332" data-name="Path 9332" d="M21.127,26.825H16.6a.6.6,0,0,1-.6-.6V22.6a.6.6,0,0,1,.6-.6h4.524a.6.6,0,0,1,.6.6v3.619A.6.6,0,0,1,21.127,26.825Zm-3.921-1.206h3.317V23.206H17.206Z" transform="translate(-1.984 -7.54)" fill="#f48120"/>
      <path id="Path_9333" data-name="Path 9333" d="M32.377,26.825H27.853a.6.6,0,0,1-.6-.6V22.6a.6.6,0,0,1,.6-.6h4.524a.6.6,0,0,1,.6.6v3.619A.6.6,0,0,1,32.377,26.825Zm-3.921-1.206h3.317V23.206H28.456Z" transform="translate(-6.448 -7.54)" fill="#f48120"/>
      <path id="Path_9334" data-name="Path 9334" d="M43.627,26.825H39.1a.6.6,0,0,1-.6-.6V22.6a.6.6,0,0,1,.6-.6h4.524a.6.6,0,0,1,.6.6v3.619A.6.6,0,0,1,43.627,26.825Zm-3.921-1.206h3.317V23.206H39.706Z" transform="translate(-10.913 -7.54)" fill="#f48120"/>
      <path id="Path_9335" data-name="Path 9335" d="M21.127,38.825H16.6a.6.6,0,0,1-.6-.6V34.6a.6.6,0,0,1,.6-.6h4.524a.6.6,0,0,1,.6.6v3.619A.6.6,0,0,1,21.127,38.825Zm-3.921-1.206h3.317V35.206H17.206Z" transform="translate(-1.984 -12.302)" fill="#f48120"/>
      <path id="Path_9336" data-name="Path 9336" d="M32.377,38.825H27.853a.6.6,0,0,1-.6-.6V34.6a.6.6,0,0,1,.6-.6h4.524a.6.6,0,0,1,.6.6v3.619A.6.6,0,0,1,32.377,38.825Zm-3.921-1.206h3.317V35.206H28.456Z" transform="translate(-6.448 -12.302)" fill="#f48120"/>
      <path id="Path_9337" data-name="Path 9337" d="M43.627,38.825H39.1a.6.6,0,0,1-.6-.6V34.6a.6.6,0,0,1,.6-.6h4.524a.6.6,0,0,1,.6.6v3.619A.6.6,0,0,1,43.627,38.825Zm-3.921-1.206h3.317V35.206H39.706Z" transform="translate(-10.913 -12.302)" fill="#f48120"/>
      <path id="Path_9338" data-name="Path 9338" d="M21.127,50.825H16.6a.6.6,0,0,1-.6-.6V46.6a.6.6,0,0,1,.6-.6h4.524a.6.6,0,0,1,.6.6v3.619A.6.6,0,0,1,21.127,50.825Zm-3.921-1.206h3.317V47.206H17.206Z" transform="translate(-1.984 -17.064)" fill="#f48120"/>
      <path id="Path_9339" data-name="Path 9339" d="M32.377,50.825H27.853a.6.6,0,0,1-.6-.6V46.6a.6.6,0,0,1,.6-.6h4.524a.6.6,0,0,1,.6.6v3.619A.6.6,0,0,1,32.377,50.825Zm-3.921-1.206h3.317V47.206H28.456Z" transform="translate(-6.448 -17.064)" fill="#f48120"/>
      <path id="Path_9340" data-name="Path 9340" d="M43.627,50.825H39.1a.6.6,0,0,1-.6-.6V46.6a.6.6,0,0,1,.6-.6h4.524a.6.6,0,0,1,.6.6v3.619A.6.6,0,0,1,43.627,50.825Zm-3.921-1.206h3.317V47.206H39.706Z" transform="translate(-10.913 -17.064)" fill="#f48120"/>
    </g>
  </g>
</svg>
