<?xml version="1.0" encoding="UTF-8"?>
<svg id="Layer_1" data-name="Layer 1" xmlns="http://www.w3.org/2000/svg" version="1.1" viewBox="0 0 45 45">
  <defs>
    <style>
      .cls-1 {
        fill: #000;
      }

      .cls-1, .cls-2, .cls-3 {
        stroke-width: 0px;
      }

      .cls-2 {
        fill: #2f2f2f;
      }

      .cls-3 {
        fill: #fff;
      }
    </style>
  </defs>
  <g id="customer_engagemtn" data-name="customer engagemtn">
    <circle id="Ellipse_45" data-name="Ellipse 45" class="cls-2" cx="22.5" cy="22.5" r="22.5"/>
    <path class="cls-1" d="M282,150.5c-1.8,0-3.2-1.5-3.2-3.3v-16.7c0-1.8,1.4-3.3,3.2-3.3h25.2c1.8,0,3.2,1.5,3.2,3.3v16.7c0,1.8-1.4,3.3-3.2,3.3h-25.2ZM282,128.5c-1.1,0-1.9.9-1.9,2v16.7c0,1.1.9,2,1.9,2h25.2c1.1,0,1.9-.9,1.9-2v-16.7c0-1.1-.9-2-1.9-2h-25.2Z"/>
    <path class="cls-3" d="M25.9,15.3c-.4,0-.7-.3-.7-.8s.3-.8.7-.8h10.3c.4,0,.7.3.7.8s-.3.8-.7.8h-10.3ZM25.9,19c-.4,0-.7-.3-.7-.8s.3-.8.7-.8h10.3c.4,0,.7.3.7.8s-.3.8-.7.8h-10.3ZM25.9,23c-.4,0-.7-.3-.7-.8s.3-.8.7-.8h8.7c.4,0,.7.3.7.8s-.3.8-.7.8h-8.7ZM10.8,30.8c0,0-.2,0-.2,0-.4-.1-.6-.6-.5-1,.7-2.5,2.4-4.5,4.7-5.5l.5-.3-.4-.4c-1.3-1.1-2-2.7-2-4.4,0-3.1,2.5-5.7,5.5-5.7s5.5,2.5,5.5,5.7-.7,3.3-2,4.4l-.4.4.5.3c2.1,1,4.2,3.5,5,6.1.5,1.7-.5,1.1,0,.5-.1.2-.5-.2-1-.2s-.6.8-.6.7c-1-3.3-3.8-6.4-6.8-6.4s-5.9,2.1-6.8,5.2c0,.4-.4.6-.7.6h0ZM18.3,15.1c-2.2,0-4,1.8-4,4.1s1.8,4.1,4,4.1,4-1.8,4-4.1c0-2.3-1.8-4.1-4-4.1Z"/>
  </g>
</svg>