<svg xmlns="http://www.w3.org/2000/svg" width="60" height="60" viewBox="0 0 60 60">
  <g id="Group_524" data-name="Group 524" transform="translate(0 -0.118)">
    <circle id="Ellipse_14" data-name="Ellipse 14" cx="30" cy="30" r="30" transform="translate(0 0.118)" fill="#fff2e8"/>
    <g id="support-svgrepo-com" transform="translate(12.666 10.784)">
      <rect id="view-box" width="36" height="36" transform="translate(0.334 0.334)" fill="none"/>
      <path id="Shape" d="M12.223,27.121a4.2,4.2,0,0,1,7.833-2.111c3.193-1.409,4.39-3.619,4.39-7.821V12.6c0-6.1-3.439-10.313-8.785-10.313S6.875,6.507,6.875,12.6v5.347A1.147,1.147,0,0,1,5.729,19.1H4.2A4.206,4.206,0,0,1,0,14.9V13.37a4.208,4.208,0,0,1,4.2-4.2h.73C6.088,3.711,10.047,0,15.66,0s9.57,3.711,10.727,9.167h.73a4.208,4.208,0,0,1,4.2,4.2V14.9a4.206,4.206,0,0,1-4.2,4.2h-.472a8.938,8.938,0,0,1-6.02,8.159,4.2,4.2,0,1,1-8.4-.136Zm2.292,0a1.91,1.91,0,1,0,1.91-1.91,1.91,1.91,0,0,0-1.91,1.91ZM26.737,16.808h.38a1.911,1.911,0,0,0,1.911-1.91V13.37a1.911,1.911,0,0,0-1.91-1.911h-.382ZM2.292,13.37V14.9A1.911,1.911,0,0,0,4.2,16.806h.382V11.459H4.2a1.911,1.911,0,0,0-1.91,1.911Z" transform="translate(2.674 3.438)" fill="#f48120"/>
    </g>
  </g>
</svg>
