<svg xmlns="http://www.w3.org/2000/svg" width="60" height="60" viewBox="0 0 60 60">
  <g id="Group_8365" data-name="Group 8365" transform="translate(-420 -2018)">
    <g id="Group_523" data-name="Group 523" transform="translate(-232 -2252)">
      <circle id="Ellipse_14" data-name="Ellipse 14" cx="30" cy="30" r="30" transform="translate(652 4270)" fill="#fff2e8"/>
    </g>
    <g id="ICON" transform="translate(554.02 1992)">
      <path id="Path_9139" data-name="Path 9139" d="M11.257,10.952q-.569.519-1.088,1.09-.285.315-.555.645A16.175,16.175,0,0,0,6.64,27.476a.622.622,0,0,0,1.192-.352,14.878,14.878,0,0,1-.574-3.2h6.525A19.4,19.4,0,0,0,14.8,29.364a19.446,19.446,0,0,0-4.509,2.59,14.909,14.909,0,0,1-1.549-2.5.622.622,0,1,0-1.116.548,16.169,16.169,0,0,0,14.514,9.051h.021a16.17,16.17,0,0,0,16.13-15.571.622.622,0,0,0,.027-.182.6.6,0,0,0-.019-.15c0-.086,0-.172,0-.259a16.078,16.078,0,0,0-1.923-7.647.621.621,0,1,0-1.094.589,14.832,14.832,0,0,1,1.772,6.845H30.545a19.481,19.481,0,0,0-.389-3.5,1.852,1.852,0,0,0,.081-.545V12.518c0-.014,0-.029,0-.043l1.63-.889A15.024,15.024,0,0,1,33.7,13.473a.622.622,0,0,0,.964-.786,16.329,16.329,0,0,0-1.641-1.734l.928-.506a.622.622,0,0,0,0-1.092L22.441,3.076a.621.621,0,0,0-.6,0L10.332,9.356a.622.622,0,0,0,0,1.092l.925.5Zm3.982,19.575a18.193,18.193,0,0,0-4.151,2.382,14.89,14.89,0,0,0,9.3,4.8A19.536,19.536,0,0,1,15.239,30.527Zm13.829.016a19.536,19.536,0,0,1-5.134,7.163,14.888,14.888,0,0,0,9.255-4.791,18.2,18.2,0,0,0-4.12-2.372Zm-6.29-1.356v7.873A18.291,18.291,0,0,0,27.9,30.108,18.159,18.159,0,0,0,22.779,29.186Zm-1.243,0a18.154,18.154,0,0,0-5.129.91,18.288,18.288,0,0,0,5.129,6.964Zm15.488-5.26H30.531a19.36,19.36,0,0,1-1.023,5.454,19.473,19.473,0,0,1,4.478,2.58A14.841,14.841,0,0,0,37.023,23.925Zm-7.737,0H22.779v4.017a19.4,19.4,0,0,1,5.564,1,18.123,18.123,0,0,0,.944-5.019Zm-7.751,4.016V23.925H15.028a18.128,18.128,0,0,0,.939,5.006,19.41,19.41,0,0,1,5.568-.99ZM29.1,20.354l-5.654,2.328H29.3a18.285,18.285,0,0,0-.2-2.328ZM12.831,11.81v6.731a.622.622,0,0,1-1.243,0V12.356q-.255.255-.5.522-.264.291-.513.6a14.854,14.854,0,0,0-3.353,9.209H13.77a19.524,19.524,0,0,1,.388-3.493,1.86,1.86,0,0,1-.084-.553V12.518c0-.01,0-.02,0-.03Zm2.383,8.545a18.389,18.389,0,0,0-.2,2.327h5.868Zm13.78-7.2-1.878,1.024a.622.622,0,1,1-.6-1.092L32.358,9.9,22.143,4.33,11.928,9.9l10.215,5.572,2.214-1.208a.622.622,0,0,1,.6,1.092l-2.511,1.37a.625.625,0,0,1-.6,0l-6.528-3.561v5.47a.621.621,0,0,0,.385.575l6.463,2.654,6.443-2.653a.622.622,0,0,0,.385-.575V13.153Z" transform="translate(-126.159 34.972)" fill="#f48120" fill-rule="evenodd"/>
    </g>
  </g>
</svg>
