<svg id="Group_8365" data-name="Group 8365" xmlns="http://www.w3.org/2000/svg" xmlns:xlink="http://www.w3.org/1999/xlink" width="45" height="45" viewBox="0 0 45 45">
  <defs>
    <linearGradient id="linear-gradient" x1="0.5" x2="0.156" y2="0.791" gradientUnits="objectBoundingBox">
      <stop offset="0" stop-color="#3e3e3e"/>
      <stop offset="1" stop-color="#1a1a1a"/>
    </linearGradient>
  </defs>
  <circle id="Ellipse_1" data-name="Ellipse 1" cx="22.5" cy="22.5" r="22.5" fill="url(#linear-gradient)"/>
  <g id="tournament_7659671" transform="translate(-11.964 482.963)">
    <path id="Path_9246" data-name="Path 9246" d="M33.445-472.925a6.5,6.5,0,0,0-2.766,1.023,6.355,6.355,0,0,0-2.293,7.909,6.693,6.693,0,0,0,3.249,3.193,6.5,6.5,0,0,0,1.557.455c.157.017.349.051.438.062l.152.034v1.9H30.246c-3.4,0-3.541.006-3.665.107s-.135.124-.152,1.349l-.017,1.242H23.006l-.118.129c-.118.124-.124.174-.124,1.349v1.22h-.776c-1.119,0-1.023-.208-1.023,2.2v1.945l.129.118c.129.124.157.124,2.069.124h1.945l.118-.129c.124-.129.124-.157.124-2.069v-1.945l-.129-.118c-.124-.112-.186-.124-.9-.124h-.77v-1.911h6.577v1.911h-.787c-.714,0-.8.011-.9.112s-.112.185-.112,2.08.006,1.973.112,2.08.185.112,2.046.112c1.821,0,1.939-.006,2.063-.107l.135-.107v-3.957l-.135-.107c-.112-.1-.225-.107-.883-.107h-.748L30.9-454.2c-.017-1.225-.017-1.242-.152-1.349s-.242-.107-1.838-.107H27.205v-1.911h13.94v1.911H39.437c-1.6,0-1.714.006-1.838.107s-.135.124-.152,1.349l-.017,1.242h-.748c-.658,0-.77.011-.883.107l-.135.107v3.957l.135.107c.124.1.242.107,2.063.107,1.861,0,1.939-.006,2.046-.112s.112-.185.112-2.08-.006-1.973-.112-2.08-.185-.112-.9-.112h-.787v-1.911H44.8v1.911h-.776c-1.119,0-1.023-.208-1.023,2.2v1.945l.129.118c.129.124.157.124,2.069.124h1.945l.118-.129c.124-.129.124-.157.124-2.069v-1.945l-.129-.118c-.124-.112-.185-.124-.9-.124h-.77v-1.225c0-1.209,0-1.231-.129-1.349s-.163-.124-1.827-.124H41.938l-.017-1.242c-.017-1.225-.017-1.242-.152-1.349s-.27-.107-3.665-.107H34.569v-1.906l.214-.034a6.525,6.525,0,0,0,2.822-.989,7.548,7.548,0,0,0,1.8-1.731,6.406,6.406,0,0,0,.562-6.223,6.584,6.584,0,0,0-3.9-3.446A7.166,7.166,0,0,0,33.445-472.925Zm1.5.809a5.573,5.573,0,0,1,4.716,6.408,5.359,5.359,0,0,1-1.7,3.142,5.52,5.52,0,0,1-7.049.444,7.33,7.33,0,0,1-1.327-1.349,5.554,5.554,0,0,1,.545-6.925,5.086,5.086,0,0,1,1.546-1.175A5.472,5.472,0,0,1,34.94-472.116ZM24.563-450.761v1.405H21.753v-2.811h2.811Zm7.364,0v1.405H29.117v-2.811h2.811Zm7.307,0v1.405H36.424v-2.811h2.811Zm7.364,0v1.405H43.788v-2.811H46.6Z" transform="translate(0 0)" fill="#f5f5f5"/>
    <path id="Path_9247" data-name="Path 9247" d="M196.877-433.9a1.027,1.027,0,0,0-.59,1.017v.332l-.281.028a.915.915,0,0,0-.478.18c-.332.253-.388.422-.41,1.231a3.035,3.035,0,0,0,.809,2.569l.36.377v1.124c0,1.017.011,1.13.1,1.214s.326.1,2.159.1c1.917,0,2.057-.006,2.142-.1s.1-.264.1-1.248v-1.141l.163-.287c.332-.579.348-.725.332-2.856l-.017-1.934-.157-.236c-.292-.45-.36-.461-2.327-.461A6.343,6.343,0,0,0,196.877-433.9Zm3.564.77a3.019,3.019,0,0,1,.051.967c-.017.888-.017.888-.157.961a6.832,6.832,0,0,1-1.546.073,6.832,6.832,0,0,1-1.546-.073c-.141-.073-.141-.073-.157-.961a3.018,3.018,0,0,1,.051-.967c.051-.062.371-.079,1.653-.079S200.39-433.2,200.441-433.134Zm-4.21,1.49a.837.837,0,0,1,.056.287,1.047,1.047,0,0,0,.59.866c.214.112.292.118,1.934.118h1.7l-.023.534a1.826,1.826,0,0,1-.157.8l-.135.27h-3.39l-.32-.332c-.472-.5-.551-.719-.585-1.675a2.263,2.263,0,0,1,.045-.888A.153.153,0,0,1,196.231-431.645Zm3.766,4.39v.731h-2.923v-1.461H200Z" transform="translate(-164.36 -36.772)" fill="#f5f5f5"/>
  </g>
</svg>
