<svg id="Group_8364" data-name="Group 8364" xmlns="http://www.w3.org/2000/svg" xmlns:xlink="http://www.w3.org/1999/xlink" width="45" height="45" viewBox="0 0 45 45">
  <defs>
    <linearGradient id="linear-gradient" x1="0.5" x2="0.156" y2="0.791" gradientUnits="objectBoundingBox">
      <stop offset="0" stop-color="#3e3e3e"/>
      <stop offset="1" stop-color="#1a1a1a"/>
    </linearGradient>
  </defs>
  <circle id="Ellipse_1" data-name="Ellipse 1" cx="22.5" cy="22.5" r="22.5" fill="url(#linear-gradient)"/>
  <g id="developing_12966767" transform="translate(7.465 484.482)">
    <path id="Path_9248" data-name="Path 9248" d="M121.942-474.459a2.235,2.235,0,0,0-.4.139c-.11.052-1.243,1.139-2.533,2.429l-2.336,2.336-.324-.133-.33-.133-.249-1.087a4.13,4.13,0,0,0-.364-1.2c-.11-.11-.191-.116-1.671-.116s-1.561.006-1.671.116a4.131,4.131,0,0,0-.364,1.208l-.249,1.087-.3.116-.3.11-.879-.555c-.486-.312-.937-.584-1.006-.607-.22-.087-.451.092-1.486,1.139-.827.833-1.029,1.07-1.029,1.191a4.8,4.8,0,0,0,.6,1.11l.607.954-.121.272a2.414,2.414,0,0,1-.139.3c-.012.012-.5.133-1.093.266a5.278,5.278,0,0,0-1.185.347c-.11.1-.116.179-.116,1.683v1.579l.139.1a3.857,3.857,0,0,0,.995.3c1.376.3,1.266.254,1.394.6l.116.295-.6.948a4.975,4.975,0,0,0-.6,1.1c0,.121.214.37,1.029,1.191a15.09,15.09,0,0,0,1.18,1.116c.208.11.272.081,1.324-.584l.879-.555.3.121.3.121.243,1.081a4.151,4.151,0,0,0,.358,1.2c.11.11.191.116,1.671.116s1.561-.006,1.671-.116a4.151,4.151,0,0,0,.359-1.2l.243-1.081.306-.121.3-.121.885.555c1.052.671,1.1.694,1.313.584a15.84,15.84,0,0,0,1.185-1.116c.81-.821,1.023-1.07,1.023-1.191a4.975,4.975,0,0,0-.6-1.1l-.6-.948.116-.295c.127-.341.017-.295,1.394-.6a3.857,3.857,0,0,0,.995-.3l.139-.1v-1.555c0-1.4-.012-1.561-.1-1.677s-.318-.179-1.191-.376a6.474,6.474,0,0,1-1.133-.318,3.04,3.04,0,0,1-.121-.3l-.075-.226,2.377-2.382c2.122-2.134,2.382-2.411,2.469-2.666a1.6,1.6,0,0,0-.006-1.052c-.075-.226-.231-.428-.792-1a6.085,6.085,0,0,0-.96-.844A1.646,1.646,0,0,0,121.942-474.459Zm.636.879a9.1,9.1,0,0,1,.711.677c.544.544.63.659.659.862.04.289-.058.48-.439.856l-.295.289-1.012-1.012-1.012-1.012.335-.335C121.942-473.673,122.231-473.766,122.578-473.581Zm-.937,2.267.995.995-3.4,3.4-3.394,3.394-1.012-1.012-1.012-1.012,3.383-3.383c1.862-1.862,3.394-3.383,3.412-3.383S121.092-471.863,121.641-471.314Zm-6.84-.081c.017.029.133.5.254,1.047a5.381,5.381,0,0,0,.33,1.1,1.138,1.138,0,0,0,.382.2l.289.092-.538.538-.544.544-.4-.081a4.556,4.556,0,0,0-4.944,2.521,4.644,4.644,0,0,0,0,3.863,4.58,4.58,0,0,0,4.105,2.608,4.539,4.539,0,0,0,4.395-3.44,5.236,5.236,0,0,0,.058-1.96l-.064-.289.538-.538.538-.544.127.289a1.187,1.187,0,0,0,.2.335c.04.023.526.15,1.087.278l1.012.237v2.186l-1.023.237a6.025,6.025,0,0,0-1.11.318,4.7,4.7,0,0,0-.526,1.336c.023.058.283.5.59.983l.549.879-.763.763-.763.769-.919-.578c-.746-.474-.948-.573-1.076-.549a5.516,5.516,0,0,0-1.214.52,17.391,17.391,0,0,0-.538,2.134,6.161,6.161,0,0,1-1.1.046,6.213,6.213,0,0,1-1.1-.046,17.765,17.765,0,0,0-.538-2.139,5.643,5.643,0,0,0-1.214-.515c-.127-.023-.335.081-1.076.549l-.914.578-.769-.769-.763-.763.549-.873c.3-.474.567-.919.584-.983a4.244,4.244,0,0,0-.52-1.341,6.025,6.025,0,0,0-1.11-.318l-1.023-.237v-2.186l1.023-.237a6.021,6.021,0,0,0,1.11-.318,4.6,4.6,0,0,0,.526-1.336c-.023-.064-.289-.509-.59-.989l-.555-.867.746-.746a8.641,8.641,0,0,1,.8-.746,10.276,10.276,0,0,1,.931.549,6.246,6.246,0,0,0,.989.549,5.585,5.585,0,0,0,1.272-.532,5.576,5.576,0,0,0,.312-1.081c.127-.549.243-1.023.26-1.052a5.941,5.941,0,0,1,1.07-.052A5.941,5.941,0,0,1,114.8-471.395Zm-.584,4.215a4.518,4.518,0,0,1-.659.734l-.694.694-.671,2.006a20.692,20.692,0,0,0-.648,2.163.483.483,0,0,0,.179.278l.162.121,2.064-.688,2.064-.688.7-.688.7-.688.035.214a4.206,4.206,0,0,1-.191,1.44,3.954,3.954,0,0,1-1.775,2.07,3.644,3.644,0,0,1-4.383-.682,3.468,3.468,0,0,1-1.087-2.6A3.468,3.468,0,0,1,111.1-466.1a3.618,3.618,0,0,1,2.642-1.116A1.39,1.39,0,0,1,114.217-467.18Zm.8,4.065c-.064.058-2.388.821-2.411.792a12.354,12.354,0,0,1,.382-1.255l.411-1.232.833.827A5.922,5.922,0,0,1,115.015-463.115Z" transform="translate(-98.424 0)" fill="#f5f5f5"/>
    <path id="Path_9249" data-name="Path 9249" d="M3.541-375.89a.882.882,0,0,0-.52.544c-.075.185-.087,1.087-.087,7.644v7.43H1.869c-1.44,0-1.336-.092-1.33,1.255a3.227,3.227,0,0,0,.133,1.353,1.922,1.922,0,0,0,1.474,1.2c.486.087,25.835.087,26.321,0a1.922,1.922,0,0,0,1.474-1.2,3.227,3.227,0,0,0,.133-1.353c.006-1.347.11-1.255-1.33-1.255H27.681v-7.448c0-7.187-.006-7.448-.11-7.685a1.036,1.036,0,0,0-.359-.4l-.243-.162-1.261-.017c-1.208-.017-1.266-.012-1.376.1a.447.447,0,0,0-.121.278c.006.382.145.422,1.428.422a3.968,3.968,0,0,1,1.162.069c.052.052.069,1.787.069,7.459v7.39H3.743v-7.39c0-5.672.017-7.407.069-7.459a7.59,7.59,0,0,1,1.729-.069c1.5,0,1.671-.012,1.781-.1a.408.408,0,0,0,.006-.6c-.116-.1-.266-.1-1.845-.1C3.945-376,3.749-375.988,3.541-375.89ZM29.3-358.942c0,.914-.173,1.342-.659,1.608-.168.092-1.064.1-13.334.1s-13.166-.006-13.334-.1c-.486-.266-.659-.694-.659-1.608v-.52H29.3Z" transform="translate(0 -92.787)" fill="#f5f5f5"/>
  </g>
</svg>
