<svg id="Group_8366" data-name="Group 8366" xmlns="http://www.w3.org/2000/svg" xmlns:xlink="http://www.w3.org/1999/xlink" width="45" height="45" viewBox="0 0 45 45">
  <defs>
    <linearGradient id="linear-gradient" x1="0.5" x2="0.156" y2="0.791" gradientUnits="objectBoundingBox">
      <stop offset="0" stop-color="#3e3e3e"/>
      <stop offset="1" stop-color="#1a1a1a"/>
    </linearGradient>
  </defs>
  <circle id="Ellipse_1" data-name="Ellipse 1" cx="22.5" cy="22.5" r="22.5" fill="url(#linear-gradient)"/>
  <g id="commerce_5311710" transform="translate(-24 458)">
    <path id="Path_9250" data-name="Path 9250" d="M32.158-447.842c-.158.152-.158.164-.158,1.366a8.649,8.649,0,0,0,.076,1.461,1.726,1.726,0,0,0,.746.873l.19.076v5.876l.158.152.152.158H43.834l.152-.158.158-.152v-5.876l.19-.076a1.726,1.726,0,0,0,.746-.873,8.649,8.649,0,0,0,.076-1.461c0-1.2,0-1.214-.158-1.366L44.846-448H32.31Zm1.866,1.708c0,.829-.006.867-.158,1.012a.493.493,0,0,1-.348.158.493.493,0,0,1-.348-.158c-.152-.145-.158-.183-.158-1.012v-.854h1.012Zm2.024,0c0,.829-.006.867-.158,1.012a.493.493,0,0,1-.348.158.493.493,0,0,1-.348-.158c-.152-.145-.158-.183-.158-1.012v-.854h1.012Zm2.024,0c0,.829-.006.867-.158,1.012a.493.493,0,0,1-.348.158.493.493,0,0,1-.348-.158c-.152-.145-.158-.183-.158-1.012v-.854h1.012Zm2.024,0c0,.829-.006.867-.158,1.012a.493.493,0,0,1-.348.158.493.493,0,0,1-.348-.158c-.152-.145-.158-.183-.158-1.012v-.854H40.1Zm2.024,0c0,.829-.006.867-.158,1.012a.493.493,0,0,1-.348.158.493.493,0,0,1-.348-.158c-.152-.145-.158-.183-.158-1.012v-.854H42.12Zm2.024,0c0,.829-.006.867-.158,1.012a.493.493,0,0,1-.348.158.493.493,0,0,1-.348-.158c-.152-.145-.158-.183-.158-1.012v-.854h1.012Zm-9.323,1.973a1.5,1.5,0,0,0,1.436.006l.3-.171.3.171a1.482,1.482,0,0,0,1.417,0l.3-.171.3.171a1.507,1.507,0,0,0,1.429,0l.3-.171.3.171a1.482,1.482,0,0,0,1.417,0l.3-.164.253.133.253.139v5.155H42.12v-3.738l-.158-.152-.152-.158H35.346l-.152.158c-.158.152-.158.164-.158,1.36,0,1.638-.133,1.518,1.676,1.518h1.36v1.012H34.024v-5.155l.24-.133c.127-.076.24-.139.24-.145A2.548,2.548,0,0,1,34.821-444.161Zm3.251,2.739v.506H36.048v-1.012h2.024Zm3.036,1.012v1.518H39.084v-3.036h2.024Z" fill="#f5f5f5"/>
    <path id="Path_9251" data-name="Path 9251" d="M254.078-431.091a17.694,17.694,0,0,0-1.942.923,2.351,2.351,0,0,0-.089.961v.841h-2.3l.645-.658c.544-.55.645-.683.645-.854a.528.528,0,0,0-.519-.512c-.183,0-.335.126-1.36,1.158-1.05,1.05-1.157,1.176-1.157,1.372s.108.323,1.157,1.373c1.025,1.031,1.176,1.158,1.36,1.158a.528.528,0,0,0,.519-.512c0-.171-.1-.3-.645-.854l-.645-.658h2.3v.848c0,.715.019.867.114.974a13.914,13.914,0,0,0,1.771.835l1.657.708v3.915l.158.152a.493.493,0,0,0,.348.158.493.493,0,0,0,.348-.158l.158-.152v-3.909l1.682-.721a12.2,12.2,0,0,0,1.771-.848,9.56,9.56,0,0,0,.089-2.315c0-2-.013-2.207-.108-2.321a34.789,34.789,0,0,0-3.96-1.714C256-431.9,255.1-431.533,254.078-431.091Zm3.137.715c.6.253,1.094.474,1.094.493s-.5.24-1.107.5l-1.107.462-1.075-.462a8.941,8.941,0,0,1-1.075-.506,21.647,21.647,0,0,1,2.119-.936A11.18,11.18,0,0,1,257.216-430.376Zm-2.4,2.011.772.329v2.948l-1.265-.544-1.265-.538v-2.948l.493.209C253.819-428.795,254.388-428.548,254.818-428.365Zm4.314.721v1.474l-1.214.531c-.664.291-1.233.538-1.265.55a10.839,10.839,0,0,1-.051-1.461v-1.48l1.252-.544c.683-.3,1.252-.538,1.265-.544S259.132-428.459,259.132-427.643Z" transform="translate(-202.338 -15.081)" fill="#f5f5f5"/>
    <path id="Path_9252" data-name="Path 9252" d="M75.771-255.842l-.158.152v2.764l-.386.076a4.068,4.068,0,0,0-2.707,2.1,4,4,0,0,0,.746,4.687,4,4,0,0,0,5.7,0,3.972,3.972,0,0,0,1.082-1.954l.082-.392h2.846l-.645.658c-.544.55-.645.683-.645.854a.528.528,0,0,0,.519.512c.183,0,.335-.127,1.36-1.158,1.05-1.05,1.157-1.176,1.157-1.373s-.108-.323-1.157-1.373c-1.025-1.031-1.176-1.158-1.36-1.158a.528.528,0,0,0-.519.512c0,.171.1.3.645.854l.645.658H80.129l-.082-.4a4.047,4.047,0,0,0-3.03-3.023l-.392-.082v-2.764l-.158-.152a.493.493,0,0,0-.348-.158A.493.493,0,0,0,75.771-255.842Zm1.075,3.985a3.1,3.1,0,0,1,2.214,2.226,3.047,3.047,0,0,1-2.214,3.656,3.054,3.054,0,0,1-3.669-2.214A3.046,3.046,0,0,1,76.846-251.857Z" transform="translate(-37.541 -179.856)" fill="#f5f5f5"/>
    <path id="Path_9253" data-name="Path 9253" d="M113.17-183.842a.479.479,0,0,0-.158.253c0,.076-.076.095-.348.095-.291,0-.38.025-.506.158-.152.145-.158.177-.158,1.107s.006.961.158,1.107.183.158,1.012.158h.854v.506h-.854c-.829,0-.867.006-1.012.158a.465.465,0,0,0,0,.7c.12.127.215.158.487.158.316,0,.342.013.43.209a.538.538,0,0,0,.272.259.483.483,0,0,0,.614-.259c.089-.2.114-.209.43-.209.272,0,.367-.032.487-.158.152-.145.158-.177.158-1.107s-.006-.961-.158-1.107-.183-.158-1.012-.158h-.854v-.506h.854c.829,0,.867-.006,1.012-.158a.493.493,0,0,0,.158-.348c0-.323-.24-.506-.664-.506-.272,0-.348-.019-.348-.095,0-.171-.3-.411-.506-.411A.493.493,0,0,0,113.17-183.842Z" transform="translate(-74.94 -247.302)" fill="#f5f5f5"/>
    <path id="Path_9254" data-name="Path 9254" d="M272.158-223.842c-.158.152-.158.164-.158,1.366a8.644,8.644,0,0,0,.076,1.461,1.726,1.726,0,0,0,.746.873l.19.076v5.876l.158.152.152.158h10.512l.152-.158.158-.152v-5.876l.19-.076a1.726,1.726,0,0,0,.746-.873,8.648,8.648,0,0,0,.076-1.461c0-1.2,0-1.214-.158-1.366l-.152-.158H272.31Zm1.866,1.708c0,.829-.006.867-.158,1.012a.493.493,0,0,1-.348.158.493.493,0,0,1-.348-.158c-.152-.145-.158-.183-.158-1.012v-.854h1.012Zm2.024,0c0,.829-.006.867-.158,1.012a.493.493,0,0,1-.348.158.493.493,0,0,1-.348-.158c-.152-.145-.158-.183-.158-1.012v-.854h1.012Zm2.024,0c0,.829-.006.867-.158,1.012a.493.493,0,0,1-.348.158.493.493,0,0,1-.348-.158c-.152-.145-.158-.183-.158-1.012v-.854h1.012Zm2.024,0c0,.829-.006.867-.158,1.012a.493.493,0,0,1-.348.158.493.493,0,0,1-.348-.158c-.152-.145-.158-.183-.158-1.012v-.854H280.1Zm2.024,0c0,.829-.006.867-.158,1.012a.493.493,0,0,1-.348.158.493.493,0,0,1-.348-.158c-.152-.145-.158-.183-.158-1.012v-.854h1.012Zm2.024,0c0,.829-.006.867-.158,1.012a.493.493,0,0,1-.348.158.493.493,0,0,1-.348-.158c-.152-.145-.158-.183-.158-1.012v-.854h1.012Zm-9.323,1.973a1.5,1.5,0,0,0,1.436.006l.3-.171.3.171a1.149,1.149,0,0,0,.708.171,1.149,1.149,0,0,0,.708-.171l.3-.171.3.171a1.18,1.18,0,0,0,.715.171,1.18,1.18,0,0,0,.715-.171l.3-.171.3.171a1.482,1.482,0,0,0,1.417,0l.3-.164.253.133.253.139v5.155H282.12v-3.738l-.158-.152-.152-.158h-6.464l-.152.158c-.158.152-.158.164-.158,1.36,0,1.638-.133,1.518,1.676,1.518h1.36v1.012h-4.048v-5.155l.24-.133c.127-.076.24-.139.24-.145A2.548,2.548,0,0,1,274.821-220.161Zm3.251,2.739v.506h-2.024v-1.012h2.024Zm3.036,1.012v1.518h-2.024v-3.036h2.024Z" transform="translate(-224.82 -209.832)" fill="#f5f5f5"/>
  </g>
</svg>
