<svg id="Group_8367" data-name="Group 8367" xmlns="http://www.w3.org/2000/svg" xmlns:xlink="http://www.w3.org/1999/xlink" width="45" height="45" viewBox="0 0 45 45">
  <defs>
    <linearGradient id="linear-gradient" x1="0.5" x2="0.156" y2="0.791" gradientUnits="objectBoundingBox">
      <stop offset="0" stop-color="#3e3e3e"/>
      <stop offset="1" stop-color="#1a1a1a"/>
    </linearGradient>
  </defs>
  <circle id="Ellipse_1" data-name="Ellipse 1" cx="22.5" cy="22.5" r="22.5" fill="url(#linear-gradient)"/>
  <g id="_14416777" data-name="14416777" transform="translate(-9.286 255.726)">
    <path id="Path_9250" data-name="Path 9250" d="M23.018-246.607A4.764,4.764,0,0,0,20.7-245.3a4.734,4.734,0,0,0,1.309,7.658,3.22,3.22,0,0,0,2.051.44,3.259,3.259,0,0,0,2.039-.429,4.835,4.835,0,0,0,2.34-2.387,3.109,3.109,0,0,0,.359-1.877,4.3,4.3,0,0,0-.973-3A4.887,4.887,0,0,0,23.018-246.607Zm2.421,1.02a4.369,4.369,0,0,1,2.12,1.888,4.755,4.755,0,0,1,.232,3.024,4.165,4.165,0,0,1-2.56,2.491,4.765,4.765,0,0,1-2.514-.07,4.607,4.607,0,0,1-2.155-1.946,4.256,4.256,0,0,1-.162-3.093,4.519,4.519,0,0,1,1.587-1.969A4.1,4.1,0,0,1,25.439-245.587Z" fill="#f5f5f5"/>
    <path id="Path_9251" data-name="Path 9251" d="M46.426-233.823a1.125,1.125,0,0,0-.081.51c0,.382-.035.44-.336.5a1.7,1.7,0,0,0-.7.429,1,1,0,0,0-.359.823c0,.857.591,1.379,1.587,1.379.892,0,1.367.359,1.077.811-.081.127-.417.185-1.286.232-.962.046-1.2.093-1.309.255-.22.359.046.614.73.649.591.035.591.035.591.429,0,.278.07.429.243.521.324.185.545-.023.591-.556.035-.359.081-.429.405-.51a1.336,1.336,0,0,0,.672-2.109A1.68,1.68,0,0,0,46.831-231c-.579,0-1.066-.243-1.066-.521,0-.359.487-.521,1.587-.521.927,0,1.089-.035,1.182-.22.2-.348-.081-.579-.741-.614l-.579-.035-.058-.463c-.046-.394-.1-.463-.348-.5A.587.587,0,0,0,46.426-233.823Z" transform="translate(-22.689 -11.359)" fill="#f5f5f5"/>
    <path id="Path_9252" data-name="Path 9252" d="M104.284-233.84c-.255.151-.266.637-.023.73.1.035,2.143.07,4.541.07a25.761,25.761,0,0,1,4.646.151,1.592,1.592,0,0,1,.8,1.529l.046.753H109.6c-4.634,0-4.7,0-4.831.243-.3.556-.209.568,4.8.591l4.646.035.058,5.619.058,5.619h.7l.035-6.812c.023-6.476.012-6.847-.2-7.31a2.124,2.124,0,0,0-1.634-1.228A84.92,84.92,0,0,0,104.284-233.84Z" transform="translate(-74.975 -11.284)" fill="#f5f5f5"/>
    <path id="Path_9253" data-name="Path 9253" d="M84.182-165.884a.432.432,0,0,0,.012.637A3.185,3.185,0,0,0,85-165.1l.684.058.962,2.549.973,2.549-.348.359a1.362,1.362,0,0,0,.938,2.363,1.38,1.38,0,0,0,1.39-1.448v-.405h.556c.556,0,.556,0,.51.336a1.533,1.533,0,0,0,.684,1.344,1.638,1.638,0,0,0,1.471-.012,1.609,1.609,0,0,0,.6-1.2,1.325,1.325,0,0,0-.521-1.077.293.293,0,0,1-.174-.232c0-.081.348-.985.765-1.993.568-1.355.741-1.888.66-2.016-.1-.162-.626-.2-3.684-.243l-3.557-.058-.278-.741a5.708,5.708,0,0,0-.405-.9A3.631,3.631,0,0,0,84.182-165.884Zm8.9,2.607c0,.058-.29.811-.66,1.691l-.66,1.6-1.622-.035-1.634-.035-.6-1.564c-.324-.857-.6-1.6-.6-1.657a25.207,25.207,0,0,1,2.885-.081A25.5,25.5,0,0,1,93.08-163.277Zm-4.379,4.5a.382.382,0,0,1-.081.521c-.382.417-.869.22-.869-.348,0-.394.081-.463.487-.463A.436.436,0,0,1,88.7-158.782Zm3.823,0a.382.382,0,0,1-.081.521c-.382.417-.869.22-.869-.348,0-.394.081-.463.487-.463A.436.436,0,0,1,92.524-158.782Z" transform="translate(-57.26 -71.35)" fill="#f5f5f5"/>
    <path id="Path_9254" data-name="Path 9254" d="M57.059-155.823c-.139.139-.093,13.659.046,14.03a2.493,2.493,0,0,0,1.425,1.3,38.535,38.535,0,0,0,4.924.1c4.148-.035,4.46-.046,4.576-.243.1-.174.081-.255-.151-.44-.255-.209-.487-.22-4.75-.22-3.951,0-4.507-.023-4.75-.185a1.88,1.88,0,0,1-.591-1.552v-.579l4.646-.023c4.6-.035,4.657-.035,4.819-.278.139-.22.139-.278-.023-.44s-.707-.185-4.819-.185H57.789l-.023-5.654-.035-5.642-.29-.035A.587.587,0,0,0,57.059-155.823Z" transform="translate(-33.323 -80.322)" fill="#f5f5f5"/>
    <path id="Path_9255" data-name="Path 9255" d="M158.1-91.586a5.138,5.138,0,0,0-3.232,2.757,3.213,3.213,0,0,0-.371,1.877,4.143,4.143,0,0,0,.278,1.773,4.806,4.806,0,0,0,5.144,2.989,4.768,4.768,0,0,0,2.688-1.344,4.75,4.75,0,0,0-1.274-7.658,3.517,3.517,0,0,0-1.819-.463A6.976,6.976,0,0,0,158.1-91.586Zm2.526,1.02a4.575,4.575,0,0,1,2.12,1.923,4.224,4.224,0,0,1,.151,3.1,4.188,4.188,0,0,1-1.935,2.132,4.093,4.093,0,0,1-3.07.162,4.471,4.471,0,0,1-2.155-1.9,2.864,2.864,0,0,1-.313-1.749,3.181,3.181,0,0,1,.278-1.738A3.938,3.938,0,0,1,160.629-90.566Z" transform="translate(-119.549 -137.099)" fill="#f5f5f5"/>
    <path id="Path_9256" data-name="Path 9256" d="M181.144-79.8a1.2,1.2,0,0,0-.162.533c-.023.348-.093.417-.405.5a1.336,1.336,0,0,0-.672,2.109,1.68,1.68,0,0,0,1.425.533c.579,0,1.066.243,1.066.521,0,.359-.487.521-1.587.521-.927,0-1.089.035-1.182.22-.2.348.081.579.741.614l.579.035.058.463c.058.429.093.463.405.463s.348-.035.382-.5c.023-.371.081-.487.232-.487a1.7,1.7,0,0,0,1.02-.718,1.436,1.436,0,0,0-.023-1.321,1.6,1.6,0,0,0-1.4-.626c-.892,0-1.367-.359-1.077-.811.081-.127.417-.185,1.286-.232.962-.046,1.2-.093,1.309-.266.22-.348-.046-.6-.73-.637-.591-.035-.591-.035-.591-.429,0-.278-.07-.44-.22-.521C181.306-79.982,181.294-79.982,181.144-79.8Z" transform="translate(-141.709 -147.463)" fill="#f5f5f5"/>
    <path id="Path_9257" data-name="Path 9257" d="M115.244-44.925a.27.27,0,0,0-.023.371c.093.162.336.2,1.425.2s1.332-.035,1.425-.2a.27.27,0,0,0-.023-.371A5.016,5.016,0,0,0,115.244-44.925Z" transform="translate(-84.765 -178.245)" fill="#f5f5f5"/>
  </g>
</svg>
