<svg id="Group_8365" data-name="Group 8365" xmlns="http://www.w3.org/2000/svg" xmlns:xlink="http://www.w3.org/1999/xlink" width="45" height="45" viewBox="0 0 45 45">
  <defs>
    <linearGradient id="linear-gradient" x1="0.5" x2="0.156" y2="0.791" gradientUnits="objectBoundingBox">
      <stop offset="0" stop-color="#3e3e3e"/>
      <stop offset="1" stop-color="#1a1a1a"/>
    </linearGradient>
  </defs>
  <circle id="Ellipse_1" data-name="Ellipse 1" cx="22.5" cy="22.5" r="22.5" fill="url(#linear-gradient)"/>
  <g id="retrieval_16407629_1_" data-name="retrieval_16407629 (1)" transform="translate(4.872 515.537)">
    <path id="Path_9250" data-name="Path 9250" d="M17.68-507.506a4.064,4.064,0,0,0-3.3,2.678c-.074.24-.114.3-.189.263a2.825,2.825,0,0,0-2.529-.011,2.978,2.978,0,0,0-1.539,2.512v.269l-.263.063a3,3,0,0,0-1.51,1l-.143.206-1.573.017c-1.407.017-1.6.029-1.774.126a1.282,1.282,0,0,0-.589.578l-.126.229L4.132-491.8c-.011,5.5,0,7.855.046,8.038a1.213,1.213,0,0,0,.647.83l.292.143h9.246v1.533l-1.013.023c-1.156.017-1.35.074-1.785.509a1.673,1.673,0,0,0-.509,1.259c-.023.481-.023.492.132.618l.16.12,5.332-.011c6.253-.017,5.607.063,5.567-.732a1.681,1.681,0,0,0-.578-1.3c-.435-.4-.566-.435-1.728-.469l-1.03-.034v-1.488l1.465-.017,1.465-.011.1.378a4.886,4.886,0,0,0,3.65,3.427,6.752,6.752,0,0,0,5.126-.669,6.228,6.228,0,0,0,1.579-1.591,5.054,5.054,0,0,0,.606-2.975,6.145,6.145,0,0,0-1.43-3.433c-.217-.3-.612-.847-.881-1.224l-.492-.681.143-.166a.942.942,0,0,0-.063-1.293l-.195-.195.372-.755c.669-1.344.692-2.174.074-2.552a1.457,1.457,0,0,0-1.047-.034c-.1.046-.206.069-.223.046s-.034-1.161-.034-2.54a13.032,13.032,0,0,0-.086-2.723,1.166,1.166,0,0,0-.572-.6c-.212-.114-.326-.126-1.585-.143l-1.362-.017-.057-.24a4.106,4.106,0,0,0-1.161-1.962,4.352,4.352,0,0,0-1.768-.893c-.309-.057-.389-.092-.389-.177a4.5,4.5,0,0,0-.435-1.5A3.973,3.973,0,0,0,17.68-507.506Zm1.276.83a3.488,3.488,0,0,1,2.083,1.688,4.286,4.286,0,0,1,.36,1.533c0,.378.092.446.664.521a2.917,2.917,0,0,1,1.934.984,3.118,3.118,0,0,1,.715,1.31,4.141,4.141,0,0,1-.029,1.55,3.068,3.068,0,0,1-2.271,2.14,6.121,6.121,0,0,1-1.167.086h-.818v-.933c0-1.442-.051-1.493-1.5-1.459l-.852.017-.166.189-.166.183v2H15.563v-1.6h.446c.555,0,.812-.114.9-.4a.722.722,0,0,0,.023-.343c-.04-.137-2.06-3.027-2.306-3.3a.565.565,0,0,0-.652-.114,12.833,12.833,0,0,0-1.322,1.716c-1,1.4-1.156,1.659-1.156,1.837,0,.441.257.606.95.606h.423v1.613l-1.385-.023-1.39-.017-.355-.166a2.381,2.381,0,0,1-1.053-1.03,2.031,2.031,0,0,1,.435-2.351,1.983,1.983,0,0,1,1.213-.612c.566-.086.584-.109.572-.835a1.948,1.948,0,0,1,.109-.881,1.981,1.981,0,0,1,2.695-1.161,2.953,2.953,0,0,1,.492.28c.223.172.5.195.624.046a1.576,1.576,0,0,0,.154-.509,3.26,3.26,0,0,1,2.351-2.557A4.06,4.06,0,0,1,18.956-506.677Zm-3.8,6.179L16-499.3l-.475.029c-.767.051-.709-.132-.709,2.329v2.077h-1.2v-2.077c0-1.139-.023-2.1-.046-2.134-.086-.137-.309-.195-.721-.195h-.429l.893-1.259a10.116,10.116,0,0,1,.938-1.219C14.276-501.716,14.682-501.161,15.151-500.5Zm-7.335.87c-.011.057-.046.212-.063.343l-.04.246H6.775c-.864,0-.95.011-1.053.114s-.114.189-.114,6.86c0,6.339.006,6.751.1,6.866l.1.12,8.038.017,8.038.011-.011.143c-.011.08-.034.418-.051.761l-.04.612-8.319-.011-8.324-.017L5.03-483.7c-.1-.132-.109-.338-.109-7.947v-7.815l.126-.132c.12-.132.137-.132,1.459-.132C7.754-499.725,7.845-499.72,7.817-499.628Zm20.442.051c.12.149.12.206.12,2.775v2.626l-.223-.223a1.329,1.329,0,0,0-.343-.263c-.12-.034-.12-.057-.12-2.054,0-1.957-.006-2.025-.12-2.174l-.114-.149h-2l.034-.275a2.143,2.143,0,0,1,.057-.343c.011-.051.326-.069,1.3-.069h1.287Zm-8.622,3.2c.023,2.466-.034,2.277.7,2.311a1.818,1.818,0,0,1,.486.046c0,.029-1.619,2.329-1.722,2.443a9.557,9.557,0,0,1-.927-1.2l-.893-1.253.481-.029c.772-.046.715.137.715-2.329v-2.077H19.62Zm-11.8-1.837a3.127,3.127,0,0,0,.229.538,2.912,2.912,0,0,0,1.888,1.493,13.551,13.551,0,0,0,1.591.063h1.327v.784c0,.887.04,1.024.343,1.179.172.086.326.1,1.1.086.9-.017.9-.017,1.058-.177s.16-.166.177-1.013l.017-.858h2.168v1.259h-.429c-.561,0-.807.1-.921.378a.454.454,0,0,0-.029.372c.051.149,1.814,2.678,2.22,3.181a.576.576,0,0,0,.7.246,6.892,6.892,0,0,0,1.133-1.425c.532-.744,1.058-1.488,1.173-1.659.263-.383.28-.618.046-.875-.154-.172-.183-.183-.687-.206l-.521-.023v-1.247H21.3a4.149,4.149,0,0,0,2.157-.406,3.068,3.068,0,0,0,.95-.7,4.916,4.916,0,0,0,.629-.767l.166-.3.858.011.858.017.017,1.756.011,1.756-.383.372-.383.378-.212-.172a1.709,1.709,0,0,0-1.11-.446c-.343-.017-.429,0-.6.114-.326.223-.418.458-.389,1.018a4.051,4.051,0,0,0,.629,1.842l.252.435-.154.114a1.021,1.021,0,0,0-.154,1.345l.154.2-.418.6c-.229.32-.658.91-.944,1.3a10.255,10.255,0,0,0-.8,1.27l-.275.555H14.264l-7.913.006V-498.3H7.1C7.691-498.3,7.839-498.278,7.839-498.215Zm20,4.583c.332.36.36.372.624.372.309,0,.395-.04.824-.36a.812.812,0,0,1,.544-.235l.24-.006-.006.372a3.575,3.575,0,0,1-.641,1.688l-.275.458-1.779.017-1.779.011-.2-.326a4.655,4.655,0,0,1-.784-1.974c0-.395.355-.366.944.069.343.252.418.286.675.286.28,0,.3-.011.647-.372.24-.246.4-.372.492-.372S27.606-493.884,27.835-493.632ZM29.6-490.5a.208.208,0,0,1,.08.189c-.017.1-.092.109-2.334.109s-2.317-.006-2.334-.109c-.051-.252.057-.263,2.334-.263A11.044,11.044,0,0,1,29.6-490.5Zm.046,1.6c.177.263.6.858.95,1.333a7.783,7.783,0,0,1,1.339,2.317,3.355,3.355,0,0,1,.183,1.516,3.205,3.205,0,0,1-.149,1.39,4.321,4.321,0,0,1-3.421,2.712,4.847,4.847,0,0,1-1.373.086,5.024,5.024,0,0,1-2.4-.561,3.272,3.272,0,0,1-1.093-.784,3.114,3.114,0,0,1-.738-.984,4.054,4.054,0,0,1-.406-1.848,5.79,5.79,0,0,1,1.425-3.644c.315-.423.761-1.047.99-1.385l.418-.612,1.98-.006h1.98Zm-11.511,6.883v.772H15.163v-1.545h2.975Zm2.792,1.636a1.1,1.1,0,0,1,.549.692l.034.16H16.65c-3.307,0-4.863-.017-4.863-.057a1.584,1.584,0,0,1,.275-.6,1.234,1.234,0,0,1,.326-.212c.217-.1.469-.109,4.257-.109C20.638-480.5,20.678-480.5,20.93-480.382Z" transform="translate(0 0)" fill="#f5f5f5"/>
    <path id="Path_9251" data-name="Path 9251" d="M341.34-170.891a.968.968,0,0,0-.223.378c-.074.229-.12.286-.309.36-.212.086-.235.08-.441-.034-.418-.24-.647-.154-1.213.441-.435.463-.481.641-.257,1.036l.132.223-.126.252c-.109.217-.154.257-.343.286a.705.705,0,0,0-.366.189c-.12.132-.137.206-.16.7-.029.852.086,1.1.572,1.184.183.034.223.074.3.28.114.3.114.315-.023.492a.633.633,0,0,0-.114.366c0,.2.04.263.481.715s.5.492.7.492a.713.713,0,0,0,.4-.132c.172-.12.183-.126.441-.029.2.074.275.137.3.246.12.555.252.629,1.11.629.629,0,.641,0,.807-.166a.549.549,0,0,0,.166-.28c0-.217.074-.309.326-.418l.257-.109.177.126a.709.709,0,0,0,.395.132c.195,0,.263-.051.7-.481a2.558,2.558,0,0,0,.515-.629.761.761,0,0,0-.109-.418c-.132-.269-.137-.28-.046-.526.086-.229.12-.263.32-.292a.926.926,0,0,0,.372-.172c.149-.126.154-.154.172-.812s.017-.687-.132-.864a.628.628,0,0,0-.383-.223c-.217-.046-.252-.074-.349-.315-.109-.263-.109-.269,0-.429.28-.395.2-.624-.4-1.207-.486-.463-.629-.509-1.018-.286-.212.12-.223.12-.475.023-.223-.086-.263-.126-.3-.3a1.016,1.016,0,0,0-.177-.372l-.143-.166h-.7C341.574-171,341.454-170.983,341.34-170.891Zm1.173.852c.04.28.126.349.744.606.532.217.624.223.9.029l.149-.1.212.217.212.217-.114.195c-.16.263-.149.4.1.967.217.492.309.589.652.658.143.029.154.051.154.338v.309l-.223.04a.835.835,0,0,0-.309.1,4.25,4.25,0,0,0-.5,1.19.864.864,0,0,0,.12.32l.126.2-.206.206-.206.206-.229-.126a.97.97,0,0,0-.315-.126,5.108,5.108,0,0,0-1.19.526,1.108,1.108,0,0,0-.08.292l-.04.217-.32-.017-.315-.017-.051-.24a.594.594,0,0,0-.114-.292,6.584,6.584,0,0,0-1.161-.469.888.888,0,0,0-.292.12l-.2.126-.217-.217-.223-.223.109-.177c.16-.257.137-.441-.1-1-.212-.475-.223-.486-.486-.572l-.269-.086v-.3c0-.3,0-.3.217-.36.286-.074.355-.16.578-.7.212-.515.217-.681.057-.915l-.12-.172.212-.217.217-.223.252.149.252.149.549-.223c.555-.223.761-.389.761-.624,0-.177.04-.2.372-.2h.3Z" transform="translate(-314.797 -317.283)" fill="#f5f5f5"/>
    <path id="Path_9252" data-name="Path 9252" d="M372.119-139.523a2.457,2.457,0,0,0-1.1.589,2.281,2.281,0,0,0,.566,3.707,1.547,1.547,0,0,0,.984.195,1.712,1.712,0,0,0,.938-.154,2.624,2.624,0,0,0,1.144-1.127,1.605,1.605,0,0,0,.183-.95,1.635,1.635,0,0,0-.154-.9,2.261,2.261,0,0,0-1.31-1.247A2.667,2.667,0,0,0,372.119-139.523Zm1.121.881a1.561,1.561,0,0,1,.864,1.533,1.54,1.54,0,0,1-1.613,1.35,1.514,1.514,0,0,1-1.1-2.454A1.541,1.541,0,0,1,373.241-138.642Z" transform="translate(-345.228 -346.929)" fill="#f5f5f5"/>
  </g>
</svg>
