<?xml version="1.0" encoding="UTF-8"?><svg id="Layer_1" xmlns="http://www.w3.org/2000/svg" viewBox="0 0 60 60"><defs><style>.cls-1{fill:#cb7128;}.cls-1,.cls-2,.cls-3,.cls-4,.cls-5,.cls-6,.cls-7,.cls-8{stroke-width:0px;}.cls-2{fill:#eec29e;}.cls-3{fill:#010101;}.cls-4{fill:#f0efef;}.cls-5{fill:#fff2e9;}.cls-6{fill:#f58220;}.cls-7{fill:#fff;}.cls-8{fill:#fbb579;}</style></defs><circle class="cls-5" cx="30" cy="30" r="30"/><path class="cls-4" d="M50.03,15.9v25.93c0,.93-.75,1.69-1.69,1.69H13.49c-.93,0-1.69-.75-1.69-1.69V15.9c0-.93.75-1.69,1.69-1.69h34.85c.93,0,1.69.75,1.69,1.69Z"/><path class="cls-4" d="M25.46,43.51h8.92v3.98h-8.92v-3.98ZM22.68,47.49h14.47v2.24h-14.47v-2.24Z"/><path class="cls-2" d="M14.21,16.62h33.41v22.84H14.21v-22.84Z"/><path class="cls-6" d="M31.86,41.48c0,.52-.43.95-.95.95s-.94-.43-.94-.95.42-.94.94-.94.95.42.95.94h0Z"/><path class="cls-8" d="M26.54,26.08c0,.17-.03.34-.1.48-.19.46-.64.77-1.15.77-.39,0-.74-.18-.97-.46-.18-.22-.28-.5-.27-.78,0-.69.56-1.25,1.25-1.25s1.25.56,1.25,1.25Z"/><path class="cls-1" d="M32.97,28.89c0,.69-.56,1.24-1.25,1.25-.69,0-1.25-.56-1.24-1.25,0-.17.04-.34.11-.5.2-.45.65-.74,1.14-.74.69,0,1.24.56,1.25,1.24Z"/><path class="cls-6" d="M20.36,31.11c0,.69-.56,1.25-1.25,1.25s-1.25-.56-1.25-1.25.56-1.25,1.25-1.25,1.25.56,1.25,1.25h0Z"/><path class="cls-3" d="M32.94,49.43h-1.2c-.17,0-.3.13-.3.3s.13.3.3.3h1.2c.17,0,.3-.13.3-.3s-.13-.3-.3-.3Z"/><path class="cls-3" d="M48.35,13.91h-1.32c-.17,0-.3.13-.3.3s.13.3.3.3h1.32c.76,0,1.38.62,1.38,1.38v25.93c0,.76-.62,1.38-1.38,1.38-6.64,0-34.79,0-34.85,0-.76,0-1.38-.62-1.38-1.38V15.9c0-.76.62-1.38,1.38-1.38h29.92c.17,0,.3-.13.3-.3s-.13-.3-.3-.3H13.49c-1.1,0-1.99.89-1.99,1.99v25.93c0,1.1.89,1.99,1.99,1.99h11.66v3.38h-2.48c-.17,0-.3.13-.3.3v2.24c0,.17.13.3.3.3h7.85c.17,0,.3-.13.3-.3s-.13-.3-.3-.3h-7.55v-1.64h13.87v1.64h-2.71c-.17,0-.3.13-.3.3s.13.3.3.3h3.01c.17,0,.3-.13.3-.3v-2.24c0-.17-.13-.3-.3-.3h-2.48v-3.38h13.67c1.1,0,1.99-.89,1.99-1.99V15.9c0-1.1-.89-1.99-1.99-1.99h0ZM34.07,47.19h-8.31v-3.38h8.31v3.38Z"/><path class="cls-3" d="M44.61,14.52h1.2c.17,0,.3-.13.3-.3s-.13-.3-.3-.3h-1.2c-.17,0-.3.13-.3.3s.13.3.3.3ZM47.62,39.77c.17,0,.3-.13.3-.3v-22.84c0-.17-.13-.3-.3-.3H14.21c-.17,0-.3.13-.3.3v22.84c0,.17.13.3.3.3h33.41ZM14.51,16.92h32.81v22.24h-5.65v-19.84l2.08,2.08c.11.12.3.13.43.02.12-.11.13-.3.02-.43,0,0-.01-.01-.02-.02l-2.6-2.6c-.12-.12-.31-.12-.43,0l-2.6,2.6c-.12.12-.12.31,0,.43.12.12.31.12.43,0,0,0,0,0,0,0l2.08-2.08v19.84h-2.62v-11.79c0-.17-.13-.3-.3-.3s-.3.13-.3.3v11.79h-2.61v-10.54c0-.17-.13-.3-.3-.3s-.3.13-.3.3v10.54h-2.62v-6.81c0-.17-.13-.3-.3-.3s-.3.13-.3.3v6.81h-2.62v-8.05c0-.17-.13-.3-.3-.3s-.3.13-.3.3v8.05h-2.62v-5.56c0-.17-.13-.3-.3-.3s-.3.13-.3.3v5.56h-2.62v-6.81c0-.17-.13-.3-.3-.3s-.3.13-.3.3v6.81h-2.62v-3.07c0-.17-.13-.3-.3-.3s-.3.13-.3.3v3.07h-4.04v-22.24h0ZM29.67,41.49c0,.69.56,1.25,1.24,1.25.69,0,1.25-.56,1.25-1.25,0-.69-.56-1.24-1.25-1.24-.69,0-1.24.56-1.24,1.24ZM31.56,41.49c0,.36-.29.65-.65.65-.36,0-.64-.29-.64-.65,0-.35.29-.64.64-.64.36,0,.64.28.65.64Z"/><path class="cls-3" d="M19.11,32.66c.85,0,1.55-.69,1.55-1.55,0-.27-.07-.51-.19-.73l3.84-3.11c.65.55,1.62.46,2.17-.19.04-.04.07-.09.1-.13l3.65,1.61c-.03.11-.04.22-.04.34,0,.85.69,1.55,1.55,1.55s1.55-.69,1.55-1.55c0-.25-.07-.5-.18-.72l3.24-2.63-.12,1.82c-.01.17.11.31.28.32s.31-.11.32-.28h0c.02-.26-.06.94.17-2.53,0-.13-.08-.25-.2-.28-.13-.04.06,0-2.6-.18-.18-.02-.31.12-.32.28-.01.17.12.31.28.32l1.75.11-3.18,2.58c-.28-.23-.62-.36-.98-.36-.51,0-.97.26-1.25.66l-3.67-1.62c.17-.84-.37-1.66-1.2-1.83-.1-.02-.21-.03-.31-.03-.86,0-1.55.7-1.55,1.55,0,.25.06.49.18.72l-3.84,3.12c-.27-.22-.61-.35-.97-.35-.85,0-1.55.69-1.55,1.55,0,.85.69,1.55,1.55,1.55h0ZM31.72,27.95c.51,0,.95.42.95.94,0,.52-.42.94-.95.94-.52,0-.94-.42-.94-.94,0-.53.43-.95.95-.95h0ZM25.29,25.13c.52,0,.95.42.95.94s-.41.94-.95.94c-.52,0-.94-.41-.94-.93,0,0,0,0,0-.01,0-.52.42-.95.94-.95h0ZM19.11,30.17c1.25,0,1.25,1.89,0,1.89-.52-.02-.93-.46-.91-.98.02-.5.42-.89.91-.91Z"/><path class="cls-7" d="M16.07,20.32c-.17,0-.3-.13-.3-.3v-.65c0-.66.53-1.19,1.19-1.19h.72c.17,0,.3.13.3.3s-.13.3-.3.3h-.72c-.32,0-.59.26-.59.59v.65c0,.17-.13.3-.3.3h0Z"/></svg>