<svg xmlns="http://www.w3.org/2000/svg" width="60" height="60" viewBox="0 0 60 60">
  <g id="advanced-search-filters" transform="translate(-142 -5124)">
    <circle id="Ellipse_14" data-name="Ellipse 14" cx="30" cy="30" r="30" transform="translate(142 5124)" fill="#fff2e8"/>
    <g id="noun-filter-search-3200915" transform="translate(151 5132.454)">
      <path id="Path_9144" data-name="Path 9144" d="M32.084,21.214a6.525,6.525,0,0,0-.815-7.25l1.814-3.2h1.15a.625.625,0,0,0,.625-.625V7.171a.625.625,0,0,0-.625-.625H6.625A.625.625,0,0,0,6,7.171v2.973a.625.625,0,0,0,.625.625H7.771L15.98,25.221V35.238a.625.625,0,0,0,.923.549l7.647-4.154a.625.625,0,0,0,.327-.549v-5.87l.347-.611a6.578,6.578,0,0,0,1.092.1,6.481,6.481,0,0,0,3.027-.745L32.692,27.3a1.92,1.92,0,0,0,1.367.566h.005a1.937,1.937,0,0,0,1.368-3.306ZM7.25,7.8H33.608V9.519H7.25ZM23.628,30.712l-6.4,3.475V25.679h6.4v5.033Zm.259-6.284H16.968L9.209,10.77H31.645l-1.305,2.3a6.51,6.51,0,1,0-6.36,11.193ZM22.6,21.908a5.263,5.263,0,1,1,3.721,1.541A5.269,5.269,0,0,1,22.6,21.908Zm11.953,4.507a.688.688,0,0,1-.488.2h0a.678.678,0,0,1-.483-.2l-3.167-3.167a6.622,6.622,0,0,0,.514-.46,6.555,6.555,0,0,0,.46-.512l3.166,3.166a.684.684,0,0,1,0,.969Z" transform="translate(0 0)" fill="#f48120"/>
      <path id="Path_9145" data-name="Path 9145" d="M36.652,18.592a4.088,4.088,0,0,0-2.908,1.2.625.625,0,0,0,.884.884,2.845,2.845,0,0,1,2.024-.838.625.625,0,1,0,0-1.25Z" transform="translate(-10.336 -4.517)" fill="#f48120"/>
    </g>
  </g>
</svg>
