<svg width="55" height="55" viewBox="0 0 55 55" fill="none" xmlns="http://www.w3.org/2000/svg">
<circle cx="27.5" cy="27.5" r="27.5" fill="#F4F4F4"/>
<path d="M27.4003 13.6C27.4003 13.2685 27.6688 13 28.0003 13H37.0005C37.332 13 37.6005 13.2685 37.6005 13.6C37.6005 13.9315 37.332 14.2 37.0005 14.2H28.0003C27.6688 14.2 27.4003 13.9315 27.4003 13.6ZM14.2004 14.2C14.4434 14.2 14.6623 14.0545 14.7554 13.8295C14.8469 13.606 14.7959 13.348 14.6249 13.1755C14.4524 13.0045 14.1944 12.9535 13.9709 13.045C13.7459 13.138 13.6004 13.357 13.6004 13.6C13.6004 13.759 13.6634 13.912 13.7759 14.0245C13.8884 14.1371 14.0413 14.2 14.2004 14.2ZM17.2004 14.2C17.4434 14.2 17.6623 14.0545 17.7554 13.8295C17.8469 13.606 17.7959 13.348 17.6249 13.1755C17.4524 13.0045 17.1944 12.9535 16.9709 13.045C16.7459 13.138 16.6004 13.357 16.6004 13.6C16.6004 13.759 16.6634 13.912 16.7759 14.0245C16.8884 14.1371 17.0413 14.2 17.2004 14.2ZM20.2004 14.2C20.4434 14.2 20.6623 14.0545 20.7553 13.8295C20.8468 13.606 20.7958 13.348 20.6249 13.1755C20.4524 13.0045 20.1943 12.9535 19.9709 13.045C19.7459 13.138 19.6004 13.357 19.6004 13.6C19.6004 13.759 19.6634 13.912 19.7759 14.0245C19.8884 14.1371 20.0413 14.2 20.2004 14.2ZM13.6378 24.79L15.4378 19.99C15.5263 19.7545 15.7498 19.6 16.0003 19.6C16.2508 19.6 16.4743 19.7545 16.5628 19.99L18.3628 24.79C18.4783 25.099 18.3208 25.4455 18.0103 25.5625C17.7013 25.678 17.3548 25.5205 17.2378 25.21L16.9348 24.4H15.0658L14.7613 25.21H14.7628C14.6458 25.5205 14.2993 25.678 13.9903 25.5625C13.6798 25.4455 13.5223 25.099 13.6378 24.79ZM15.5158 23.2H16.4848L16.0003 21.9085L15.5158 23.2ZM20.2002 25.6C19.8687 25.6 19.6002 25.3315 19.6002 25V20.2C19.6002 19.8685 19.8687 19.6 20.2002 19.6H21.7002C22.8597 19.6 23.8002 20.5405 23.8002 21.7C23.8002 22.8595 22.8597 23.8 21.7002 23.8H20.8002V25C20.8002 25.159 20.7372 25.312 20.6247 25.4245C20.5122 25.537 20.3592 25.6 20.2002 25.6ZM20.8002 22.6H21.7002C22.1967 22.6 22.6002 22.1965 22.6002 21.7C22.6002 21.2035 22.1967 20.7999 21.7002 20.7999H20.8002V22.6ZM26.2 25V20.2C26.2 19.8685 25.9315 19.6 25.6 19.6C25.2685 19.6 25 19.8685 25 20.2V25C25 25.3315 25.2685 25.6 25.6 25.6C25.9315 25.6 26.2 25.3315 26.2 25ZM26.8 39.4C26.8 39.559 26.7355 39.712 26.623 39.8245C26.5105 39.937 26.359 40 26.2 40H13C11.344 39.9985 10.0015 38.656 10 37V13C10.0015 11.344 11.344 10.0015 13 10H38.2C39.856 10.0015 41.1985 11.344 41.2 13V27.4C41.2 27.7315 40.9315 28 40.6 28C40.2685 28 40 27.7315 40 27.4V17.2002H11.2V37C11.2015 37.993 12.007 38.7985 13 38.8H26.2C26.359 38.8 26.5105 38.863 26.623 38.9755C26.7355 39.088 26.8 39.241 26.8 39.4ZM11.2 13V16H40V13C39.9985 12.007 39.193 11.2015 38.2 11.2H13C12.007 11.2015 11.2015 12.007 11.2 13ZM46 35.6064V37.1934C46.0015 37.6854 45.7015 38.1264 45.2455 38.3079L43.789 38.8899C43.678 39.2244 43.543 39.5514 43.3885 39.8679L44.005 41.3064H44.0035C44.1985 41.7564 44.098 42.2799 43.75 42.6264L42.6265 43.7499C42.28 44.0964 41.7565 44.1984 41.3065 44.0034L39.868 43.3869C39.5515 43.5429 39.2245 43.6779 38.89 43.7889L38.308 45.2454C38.1265 45.7029 37.6855 46.0014 37.1935 45.9999H35.6065C35.1145 46.0014 34.672 45.7029 34.492 45.2454L33.91 43.7889C33.5755 43.6779 33.2485 43.5429 32.932 43.3869L31.4935 44.0034C31.0435 44.1984 30.52 44.0964 30.1735 43.7499L29.05 42.6264C28.702 42.2799 28.6015 41.7564 28.7965 41.3049L29.413 39.8664L29.4115 39.8679C29.257 39.5514 29.122 39.2244 29.011 38.8899L27.5545 38.3079C27.0985 38.1264 26.7985 37.6854 26.8 37.1934V35.6064C26.7985 35.1145 27.0985 34.6734 27.5545 34.492L29.011 33.91C29.122 33.5755 29.257 33.2484 29.413 32.932L28.7965 31.4935V31.495C28.6015 31.0434 28.702 30.5199 29.05 30.1735L30.1735 29.0514V29.0499C30.5185 28.7019 31.0435 28.6014 31.4935 28.7964L32.932 29.413C33.2485 29.257 33.5755 29.122 33.91 29.0109L34.492 27.5544C34.6735 27.0969 35.1145 26.7984 35.6065 26.8H37.195H37.1935C37.6855 26.7985 38.128 27.097 38.308 27.5544L38.89 29.0109C39.2245 29.1219 39.5515 29.257 39.868 29.413L41.3065 28.7964C41.7565 28.6014 42.2815 28.7019 42.6265 29.0499L43.75 30.1735C44.098 30.52 44.1985 31.0434 44.0035 31.495L43.387 32.9335V32.932C43.543 33.2485 43.678 33.5755 43.789 33.91L45.2455 34.492C45.7015 34.6735 46.0015 35.1145 46 35.6064ZM44.8 35.6064L43.0795 34.9179C42.9085 34.8504 42.7795 34.7064 42.727 34.5309C42.5965 34.0839 42.4195 33.6534 42.1975 33.2454C42.109 33.0834 42.1 32.8899 42.172 32.7204L42.901 31.0209L41.779 29.8989L40.0795 30.6264C39.91 30.6999 39.718 30.6909 39.5559 30.6024C39.1465 30.3804 38.7159 30.2034 38.2689 30.0729C38.0934 30.0204 37.9494 29.8914 37.8819 29.7204L37.1934 27.9999H35.6064L34.9179 29.7204C34.8489 29.8914 34.7064 30.0204 34.5309 30.0729C34.0839 30.2034 33.6534 30.3804 33.2439 30.6024C33.0819 30.6909 32.8899 30.6999 32.7204 30.6264L31.0209 29.8989L29.8989 31.0209L30.6279 32.7204C30.6999 32.8899 30.6909 33.0834 30.6024 33.2454C30.3804 33.6534 30.2034 34.0839 30.0729 34.5309C30.0204 34.7064 29.8914 34.8504 29.7204 34.9179L27.9999 35.6064V37.1934L29.7204 37.8819C29.8914 37.9494 30.0204 38.0934 30.0729 38.2689C30.2034 38.7159 30.3804 39.1465 30.6024 39.5559C30.6894 39.7179 30.6984 39.91 30.6264 40.0795L29.8989 41.779L31.0209 42.901L32.7204 42.1735C32.8899 42.1 33.0834 42.109 33.2439 42.1975C33.6534 42.4195 34.0839 42.5965 34.5309 42.727C34.7064 42.7795 34.8504 42.9085 34.9179 43.0795L35.6064 44.8H37.1934L37.8819 43.0795C37.9509 42.9085 38.0934 42.7795 38.2689 42.727C38.7159 42.5965 39.1464 42.4195 39.5559 42.1975C39.7179 42.109 39.9099 42.1 40.0795 42.1735L41.779 42.901L42.901 41.779L42.1735 40.0795C42.1015 39.91 42.1105 39.7165 42.1975 39.5559C42.4195 39.1465 42.5965 38.7159 42.727 38.2689C42.7795 38.0934 42.9085 37.9494 43.0795 37.8819L44.8 37.1934L44.8 35.6064ZM41.2 36.3999C41.2 38.3409 40.03 40.0914 38.2375 40.834C36.4435 41.578 34.3779 41.167 33.0055 39.7945C31.633 38.422 31.222 36.3565 31.966 34.5625C32.7085 32.77 34.459 31.6 36.4001 31.6C39.0491 31.603 41.1969 33.7509 41.2 36.3999ZM40 36.3999C40 34.9434 39.1225 33.6309 37.777 33.0744C36.433 32.5164 34.8835 32.8254 33.8544 33.8544C32.8254 34.8834 32.5164 36.4329 33.0744 37.777C33.6309 39.1225 34.9434 40 36.4 40C38.3875 39.9985 39.9985 38.3874 40 36.3999ZM14.1998 29.1999H21.3998C21.7313 29.1999 21.9998 28.9314 21.9998 28.5999C21.9998 28.2684 21.7313 27.9999 21.3998 27.9999H14.1998C13.8683 27.9999 13.5998 28.2684 13.5998 28.5999C13.5998 28.9314 13.8683 29.1999 14.1998 29.1999ZM26.1998 32.1999C26.1998 32.0409 26.1368 31.8879 26.0243 31.7754C25.9118 31.6629 25.7588 31.5999 25.5998 31.5999H14.1996C13.8681 31.5999 13.5996 31.8684 13.5996 32.1999C13.5996 32.5314 13.8681 32.7999 14.1996 32.7999H25.5998C25.7588 32.7999 25.9118 32.7369 26.0243 32.6244C26.1368 32.5119 26.1998 32.3589 26.1998 32.1999ZM14.1998 35.1999C13.8683 35.1999 13.5998 35.4684 13.5998 35.7999C13.5998 36.1314 13.8683 36.3999 14.1998 36.3999H21.3998C21.7313 36.3999 21.9998 36.1314 21.9998 35.7999C21.9998 35.4684 21.7313 35.1999 21.3998 35.1999H14.1998ZM28 28.5997C28 28.4407 27.937 28.2877 27.8245 28.1752C27.712 28.0627 27.559 27.9997 27.4 27.9997H23.8C23.4685 27.9997 23.2 28.2682 23.2 28.5997C23.2 28.9312 23.4685 29.1997 23.8 29.1997H27.4C27.559 29.1997 27.712 29.1367 27.8245 29.0242C27.937 28.9117 28 28.7588 28 28.5997Z" fill="#F48102"/>
</svg>
