<svg width="149" height="149" viewBox="0 0 149 149" fill="none" xmlns="http://www.w3.org/2000/svg">
<path d="M74.39 148.78C115.474 148.78 148.78 115.474 148.78 74.39C148.78 33.3055 115.474 0 74.39 0C33.3055 0 0 33.3055 0 74.39C0 115.474 33.3055 148.78 74.39 148.78Z" fill="url(#paint0_linear_36_946)"/>
<path d="M88.5547 58.2712V30.1705C88.5547 29.5218 89.0797 29.0005 89.7247 29.0005C90.3697 29.0005 90.8947 29.5217 90.8947 30.1705V57.1058H117.83C118.475 57.1058 119 57.627 119 58.2758C119 58.9208 118.479 59.4458 117.83 59.4458L89.7255 59.4421C89.0805 59.4421 88.5555 58.9171 88.5555 58.2721L88.5547 58.2712ZM30.1708 59.4412H58.2713C58.9162 59.4412 59.4413 58.92 59.4413 58.2712V30.1705C59.4413 29.5218 58.9163 29.0005 58.2713 29.0005C57.6263 29.0005 57.1013 29.5217 57.1013 30.1705V57.1058H30.17C29.5213 57.1021 29 57.627 29 58.272C29 58.9169 29.5212 59.442 30.17 59.442L30.1708 59.4412ZM58.2713 88.5547H30.1708C29.522 88.5547 29.0008 89.0797 29.0008 89.7247C29.0008 90.3696 29.522 90.8947 30.1708 90.8947H57.1059V117.83C57.1059 118.475 57.6271 119 58.2759 119C58.9208 119 59.4459 118.479 59.4459 117.83L59.4421 89.7254C59.4421 89.0805 58.9171 88.5554 58.2721 88.5554L58.2713 88.5547ZM117.825 88.5547H89.7249C89.0799 88.5547 88.5549 89.0759 88.5549 89.7247V117.825C88.5549 118.47 89.0761 118.995 89.7249 118.995C90.3699 118.995 90.8949 118.474 90.8949 117.825V90.8939H117.83C118.475 90.8939 119 90.3727 119 89.7239C118.996 89.0789 118.475 88.5539 117.826 88.5539L117.825 88.5547ZM73.9981 37.8384C74.643 37.8384 75.1681 37.3172 75.1681 36.6684V30.17C75.1681 29.5213 74.6431 29 73.9981 29C73.3531 29 72.8281 29.5212 72.8281 30.17V36.6684C72.8281 37.3134 73.3531 37.8384 73.9981 37.8384ZM73.9981 49.4327C74.643 49.4327 75.1681 48.9115 75.1681 48.2627V41.7643C75.1681 41.1193 74.6468 40.5943 73.9981 40.5943C73.3531 40.5943 72.8281 41.1155 72.8281 41.7643V48.2627C72.8281 48.9077 73.3531 49.4327 73.9981 49.4327ZM73.9981 98.5632C73.3531 98.5632 72.8281 99.0844 72.8281 99.7331V106.232C72.8281 106.877 73.3493 107.402 73.9981 107.402C74.643 107.402 75.1681 106.88 75.1681 106.232V99.7331C75.1681 99.0882 74.6431 98.5632 73.9981 98.5632ZM73.9981 110.157C73.3531 110.157 72.8281 110.679 72.8281 111.327V117.826C72.8281 118.475 73.3531 118.996 73.9981 118.996C74.6431 118.996 75.1681 118.475 75.1681 117.826V111.327C75.1681 110.682 74.6431 110.157 73.9981 110.157ZM30.1708 75.1681H36.6691C37.3141 75.1681 37.8391 74.6469 37.8391 73.9981C37.8391 73.3532 37.3179 72.8281 36.6691 72.8281H30.1708C29.522 72.8281 29.0008 73.3531 29.0008 73.9981C29.0008 74.6431 29.522 75.1681 30.1708 75.1681ZM41.7611 72.8282C41.1162 72.8282 40.5912 73.3495 40.5912 73.9982C40.5912 74.6432 41.1124 75.1682 41.7611 75.1682H48.2595C48.9045 75.1682 49.4295 74.647 49.4295 73.9982C49.4295 73.3532 48.9083 72.8282 48.2595 72.8282H41.7611ZM99.7333 72.8282C99.0883 72.8282 98.5633 73.3495 98.5633 73.9982C98.5633 74.6432 99.0845 75.1682 99.7333 75.1682H106.232C106.877 75.1682 107.402 74.647 107.402 73.9982C107.402 73.3532 106.88 72.8282 106.232 72.8282H99.7333ZM88.1391 75.1681H94.6374C95.2824 75.1681 95.8074 74.6469 95.8074 73.9981C95.8074 73.3532 95.2862 72.8281 94.6374 72.8281H88.1391C87.4941 72.8281 86.9691 73.3494 86.9691 73.9981C86.9691 74.6431 87.494 75.1681 88.1391 75.1681ZM52.19 73.9981C52.19 74.6431 52.7112 75.1681 53.36 75.1681H59.8584C60.5033 75.1681 61.0283 74.6469 61.0283 73.9981C61.0283 73.3532 60.5071 72.8281 59.8584 72.8281H53.36C52.7113 72.8281 52.19 73.3531 52.19 73.9981ZM117.826 72.8281H111.328C110.683 72.8281 110.158 73.3494 110.158 73.9981C110.158 74.6431 110.679 75.1681 111.328 75.1681H117.826C118.475 75.1681 118.996 74.6431 118.996 73.9981C118.996 73.3531 118.475 72.8281 117.826 72.8281ZM93.4485 34.119C93.4485 31.8766 95.2746 30.0504 97.5171 30.0504C99.7595 30.0504 101.586 31.8765 101.586 34.119C101.586 35.9564 100.363 37.5126 98.687 38.015V49.3098H109.986C110.492 47.6374 112.059 46.4113 113.882 46.4113C116.124 46.4113 117.95 48.2374 117.95 50.4798C117.95 52.7223 116.124 54.5484 113.882 54.5484C112.044 54.5484 110.488 53.326 109.986 51.6498H97.5178C96.8729 51.6498 96.3478 51.1286 96.3478 50.4798V38.0158C94.6717 37.5133 93.4493 35.9572 93.4493 34.1197L93.4485 34.119ZM112.145 50.4794C112.145 51.4356 112.922 52.2119 113.878 52.2119C114.834 52.2119 115.61 51.4357 115.61 50.4794C115.61 49.5232 114.834 48.747 113.878 48.747C112.94 48.747 112.164 49.5082 112.145 50.4457V50.4794ZM95.785 34.119C95.785 35.0752 96.5612 35.8514 97.5174 35.8514C98.4737 35.8514 99.2499 35.0752 99.2499 34.119C99.2499 33.1665 98.4737 32.3865 97.5174 32.3865C96.5612 32.3865 95.785 33.1627 95.785 34.119ZM30.0508 50.4794C30.0508 48.2371 31.8769 46.4109 34.1193 46.4109C35.9417 46.4109 37.5091 47.637 38.0153 49.3095H49.3139V38.0146C47.6377 37.5122 46.4154 35.956 46.4154 34.1186C46.4154 31.8762 48.2415 30.05 50.4839 30.05C52.7262 30.05 54.5524 31.8761 54.5524 34.1186C54.5524 35.956 53.33 37.5122 51.6539 38.0146V50.4787C51.6539 51.1237 51.1327 51.6487 50.4839 51.6487H38.0161C37.5136 53.3248 35.9575 54.5473 34.1201 54.5473C31.8777 54.5473 30.0515 52.7249 30.0515 50.4787L30.0508 50.4794ZM50.4794 35.8517C51.4356 35.8517 52.2118 35.0755 52.2118 34.1192C52.2118 33.1668 51.4356 32.3868 50.4794 32.3868C49.5232 32.3868 48.747 33.163 48.747 34.1192C48.747 35.0717 49.5269 35.8517 50.4794 35.8517ZM32.3863 50.4794C32.3863 51.4356 33.1625 52.2119 34.1187 52.2119C35.0749 52.2119 35.8511 51.4357 35.8511 50.4794V50.4494C35.8324 49.5082 35.0562 48.7471 34.1187 48.7471C33.1625 48.7471 32.3863 49.527 32.3863 50.4794ZM54.5476 113.878C54.5476 116.12 52.7215 117.946 50.4791 117.946C48.2367 117.946 46.4106 116.12 46.4106 113.878C46.4106 112.04 47.6329 110.484 49.3091 109.982L49.3129 98.683H38.0143C37.5081 100.355 35.9406 101.582 34.1182 101.582C31.8759 101.582 30.0497 99.7554 30.0497 97.513C30.0497 95.2706 31.8758 93.4444 34.1182 93.4444C35.9557 93.4444 37.5119 94.6668 38.0143 96.343H50.4782C51.1232 96.343 51.6482 96.8642 51.6482 97.513V109.977C53.3244 110.483 54.5468 112.039 54.5468 113.877L54.5476 113.878ZM35.8508 97.5172C35.8508 96.561 35.0746 95.7848 34.1183 95.7848C33.1621 95.7848 32.3859 96.561 32.3859 97.5172C32.3859 98.4734 33.1621 99.2496 34.1183 99.2496C35.0558 99.2496 35.832 98.4884 35.8508 97.551V97.5172ZM52.2111 113.878C52.2111 112.921 51.4349 112.145 50.4787 112.145C49.5225 112.145 48.7463 112.921 48.7463 113.878C48.7463 114.834 49.5225 115.61 50.4787 115.61C51.4349 115.61 52.2111 114.834 52.2111 113.878ZM117.945 97.5172C117.945 99.7595 116.119 101.586 113.877 101.586C112.054 101.586 110.487 100.36 109.981 98.6872L98.6822 98.6834V109.978C100.358 110.481 101.581 112.037 101.581 113.874C101.581 116.117 99.7547 117.943 97.5123 117.943C95.2699 117.943 93.4437 116.117 93.4437 113.874C93.4437 112.037 94.6661 110.481 96.3423 109.978L96.346 97.518C96.346 96.8731 96.8673 96.3481 97.516 96.3481H109.98C110.482 94.6719 112.039 93.4495 113.876 93.4495C116.118 93.4495 117.945 95.2718 117.945 97.518L117.945 97.5172ZM97.5168 112.145C96.5606 112.145 95.7844 112.921 95.7844 113.877C95.7844 114.834 96.5606 115.61 97.5168 115.61C98.473 115.61 99.2492 114.834 99.2492 113.877C99.2492 112.925 98.4692 112.145 97.5168 112.145ZM115.61 97.5172C115.61 96.561 114.834 95.7848 113.877 95.7848C112.921 95.7848 112.145 96.561 112.145 97.5172V97.5472C112.164 98.4884 112.94 99.2496 113.877 99.2496C114.834 99.2496 115.61 98.4697 115.61 97.5172ZM67.9504 67.1961C67.9504 63.6938 70.8003 60.8401 74.3063 60.8401C77.8086 60.8401 80.6622 63.69 80.6622 67.1961C80.6622 70.6984 77.8123 73.552 74.3063 73.552C70.8003 73.552 67.9504 70.7021 67.9504 67.1961ZM70.2903 67.1961C70.2903 69.4122 72.0939 71.2122 74.3063 71.2122C76.5224 71.2122 78.3223 69.4085 78.3223 67.1961C78.3223 64.9799 76.5187 63.18 74.3063 63.18C72.0902 63.18 70.2903 64.9837 70.2903 67.1961ZM88.8854 86.0611C88.8854 90.3846 81.3746 92.717 74.3057 92.717C67.2374 92.717 59.7261 90.3846 59.7261 86.0611C59.7261 83.2263 63.1534 80.8939 68.6056 79.9039C68.2118 79.3339 67.7994 78.7564 67.3644 78.1527C65.1258 75.0404 62.5871 71.5155 62.5871 67.5558C62.5871 61.0948 67.8443 55.8376 74.3052 55.8376C80.7661 55.8376 86.0232 61.0949 86.0232 67.5558C86.0232 71.6018 83.4021 75.2167 81.0923 78.4042C80.7173 78.9217 80.3611 79.4167 80.0161 79.9079C85.4608 80.8978 88.8844 83.2265 88.8844 86.0614L88.8854 86.0611ZM69.2631 76.784C69.8781 77.639 70.5156 78.5239 71.078 79.3863L74.3066 84.0136L77.5389 79.3826C78.0602 78.6064 78.6151 77.8414 79.2001 77.0315C81.405 73.9904 83.6886 70.8443 83.6886 67.5557C83.6886 62.3847 79.4814 58.1737 74.3067 58.1737C69.1358 58.1737 64.9248 62.381 64.9248 67.5557C64.9248 70.758 67.1296 73.8216 69.2631 76.784ZM86.546 86.0611C86.546 84.6025 83.5649 82.7463 78.5364 82.0338L75.2628 86.7286C75.0453 87.0398 74.6853 87.2273 74.3029 87.2273C73.9204 87.2273 73.5642 87.0398 73.3429 86.7286L70.0693 82.0338C65.0408 82.7463 62.0597 84.6025 62.0597 86.0611C62.0597 87.8648 66.717 90.3772 74.3029 90.3772C81.8924 90.3772 86.546 87.861 86.546 86.0611Z" fill="white"/>
<defs>
<linearGradient id="paint0_linear_36_946" x1="148.78" y1="74.39" x2="0" y2="74.39" gradientUnits="userSpaceOnUse">
<stop stop-color="#3B3B3B"/>
<stop offset="1" stop-color="#191919"/>
</linearGradient>
</defs>
</svg>
