<svg id="Group_8364" data-name="Group 8364" xmlns="http://www.w3.org/2000/svg" xmlns:xlink="http://www.w3.org/1999/xlink" width="45" height="45" viewBox="0 0 45 45">
  <defs>
    <linearGradient id="linear-gradient" x1="0.5" x2="0.156" y2="0.791" gradientUnits="objectBoundingBox">
      <stop offset="0" stop-color="#3e3e3e"/>
      <stop offset="1" stop-color="#1a1a1a"/>
    </linearGradient>
  </defs>
  <circle id="Ellipse_1" data-name="Ellipse 1" cx="22.5" cy="22.5" r="22.5" fill="url(#linear-gradient)"/>
  <g id="noun-artificial-intelligence-6521531" transform="translate(-6.399 0.246)">
    <path id="Path_9169" data-name="Path 9169" d="M41.4,55.713a2.486,2.486,0,1,0-3.12,2.393,4.34,4.34,0,0,1-1.147,3.21,2.336,2.336,0,0,1-.813.461,6.414,6.414,0,0,0-.182-3.479c-.183-.422-1.2-1.8-6.792-1.732-5.557-.065-6.609,1.31-6.791,1.732a6.38,6.38,0,0,0-.19,3.439,2.321,2.321,0,0,1-.7-.42,4.34,4.34,0,0,1-1.147-3.21,2.483,2.483,0,1,0-1.244.007,5.5,5.5,0,0,0,1.59,4.157,3.638,3.638,0,0,0,1.856.84,8.673,8.673,0,0,0,2.047,3.33,7.045,7.045,0,0,0,4.579,1.927,6.974,6.974,0,0,0,4.578-1.926,8.676,8.676,0,0,0,2.042-3.314,3.669,3.669,0,0,0,1.967-.858,5.5,5.5,0,0,0,1.59-4.157A2.484,2.484,0,0,0,41.4,55.713Zm-22.754,0a1.236,1.236,0,0,1,.617-1.066v1.307h1.246V54.647a1.238,1.238,0,1,1-1.863,1.066Zm10.694,2.1h.015a23.586,23.586,0,0,1,2.467.107,2.5,2.5,0,0,1-4.948,0c.694-.068,1.448-.107,2.213-.107Zm-5.64.98c.119-.275.87-.53,1.932-.711a3.757,3.757,0,0,0,3.093,3.194v5.8a6.107,6.107,0,0,1-3.074-1.512C23.414,63.326,23.191,59.966,23.7,58.791Zm9.343,6.773a6.013,6.013,0,0,1-3.072,1.511v-5.8a3.758,3.758,0,0,0,3.093-3.192c1.063.181,1.813.434,1.932.709C35.5,59.966,35.279,63.326,33.041,65.564Zm5.872-8.611a1.236,1.236,0,0,1-.623-2.306v1.307h1.246V54.647a1.236,1.236,0,0,1-.623,2.306Z" transform="translate(0 -30.571)" fill="#fff"/>
    <path id="Path_9170" data-name="Path 9170" d="M56.693,38.359a1.637,1.637,0,0,1,1.636,1.636h1.246a2.854,2.854,0,0,0-.258-1.178,2.871,2.871,0,0,0,1.2-.871l-.967-.785a1.621,1.621,0,0,1-1.084.584,2.853,2.853,0,0,0-1.777-.631Z" transform="translate(-25.304 -20.194)" fill="#fff"/>
    <path id="Path_9171" data-name="Path 9171" d="M58.329,19.284h1.246A2.885,2.885,0,0,0,56.693,16.4v1.246A1.637,1.637,0,0,1,58.329,19.284Z" transform="translate(-25.304 -6.858)" fill="#fff"/>
    <path id="Path_9172" data-name="Path 9172" d="M25.988,19.73a2.873,2.873,0,0,0,2.778,3.638c.054,0,.1-.014.158-.017a2.862,2.862,0,0,0,4.982.847,2.862,2.862,0,0,0,4.982-.847c.053,0,.1.017.158.017a2.874,2.874,0,0,0,2.778-3.638,2.864,2.864,0,0,0,.866-4.276,2.847,2.847,0,0,0-1.013-4.335,2.878,2.878,0,0,0-2.8-3.565c-.016,0-.031,0-.046,0a2.863,2.863,0,0,0-4.926-.69,2.863,2.863,0,0,0-4.927.69c-.015,0-.03,0-.046,0a2.878,2.878,0,0,0-2.8,3.565,2.847,2.847,0,0,0-1.013,4.335,2.864,2.864,0,0,0,.866,4.276ZM36.166,7a1.632,1.632,0,0,1,1.437.863,2.859,2.859,0,0,0-.557.349l.793.961a1.615,1.615,0,0,1,1.04-.373,1.635,1.635,0,0,1,1.589,2.023c-.016,0-.031,0-.047,0v.132a1.609,1.609,0,0,1-.1.251l.1.051v.811A1.636,1.636,0,1,1,38.786,13.7H37.54a2.885,2.885,0,0,0,2.881,2.882,2.845,2.845,0,0,0,1.307-.328,1.63,1.63,0,0,1-1.307,2.611V20.11c.072,0,.14-.016.211-.021A1.635,1.635,0,0,1,37.8,21.541l-.951.8a2.867,2.867,0,0,0,.843.668,1.632,1.632,0,0,1-3.158-.583V14.594a2.861,2.861,0,0,0,1.636.514V13.863a1.637,1.637,0,0,1-1.636-1.636V8.635A1.637,1.637,0,0,1,36.166,7Zm-8.774,5.064v-.811l.1-.052a1.612,1.612,0,0,1-.1-.253v-.13c-.016,0-.03,0-.046,0A1.635,1.635,0,0,1,28.934,8.8a1.615,1.615,0,0,1,1.04.373l.793-.961a2.859,2.859,0,0,0-.557-.35,1.633,1.633,0,0,1,3.073.773v3.592a1.637,1.637,0,0,1-1.636,1.636v1.246a2.861,2.861,0,0,0,1.636-.514V22.43a1.632,1.632,0,0,1-3.158.583,2.871,2.871,0,0,0,.843-.668l-.951-.8a1.635,1.635,0,0,1-2.837-1.452c.071.005.139.021.211.021V18.864a1.63,1.63,0,0,1-1.307-2.611,2.844,2.844,0,0,0,1.307.328A2.885,2.885,0,0,0,30.273,13.7H29.027a1.636,1.636,0,1,1-1.636-1.636Z" transform="translate(-4.58)" fill="#fff"/>
    <path id="Path_9173" data-name="Path 9173" d="M39.9,17.649V16.4a2.885,2.885,0,0,0-2.882,2.881h1.246A1.637,1.637,0,0,1,39.9,17.649Z" transform="translate(-12.634 -6.858)" fill="#fff"/>
    <path id="Path_9174" data-name="Path 9174" d="M35.326,37.159l-.967.785a2.871,2.871,0,0,0,1.2.871,2.855,2.855,0,0,0-.258,1.178h1.246a1.637,1.637,0,0,1,1.636-1.636V37.113a2.853,2.853,0,0,0-1.777.631A1.622,1.622,0,0,1,35.326,37.159Z" transform="translate(-10.922 -20.194)" fill="#fff"/>
  </g>
</svg>
