<svg xmlns="http://www.w3.org/2000/svg" xmlns:xlink="http://www.w3.org/1999/xlink" width="45" height="45" viewBox="0 0 45 45">
  <defs>
    <linearGradient id="linear-gradient" x1="0.5" x2="0.156" y2="0.791" gradientUnits="objectBoundingBox">
      <stop offset="0" stop-color="#3e3e3e"/>
      <stop offset="1" stop-color="#1a1a1a"/>
    </linearGradient>
  </defs>
  <g id="ai-based-cybersecurity" transform="translate(0 -0.5)">
    <circle id="Ellipse_1" data-name="Ellipse 1" cx="22.5" cy="22.5" r="22.5" transform="translate(0 0.5)" fill="url(#linear-gradient)"/>
    <g id="noun-cybersecurity-5893791" transform="translate(-27 -40.3)">
      <g id="Group_8320" data-name="Group 8320" transform="translate(40.813 53.331)">
        <path id="Path_9174" data-name="Path 9174" d="M61.281,60.55a.432.432,0,0,1-.306-.131l-.613-.613a.432.432,0,0,0-.306-.131H58.438a.438.438,0,0,1,0-.875h1.6a1.224,1.224,0,0,1,.919.394l.612.612a.423.423,0,0,1,0,.613A.352.352,0,0,1,61.281,60.55Z" transform="translate(-58 -58.8)" fill="#fff"/>
      </g>
      <g id="Group_8321" data-name="Group 8321" transform="translate(37.75 51.8)">
        <circle id="Ellipse_119" data-name="Ellipse 119" cx="1.969" cy="1.969" r="1.969" fill="#fff"/>
      </g>
      <g id="Group_8322" data-name="Group 8322" transform="translate(40.813 71.269)">
        <path id="Path_9175" data-name="Path 9175" d="M60.034,142.987h-1.6a.438.438,0,0,1,0-.875h1.6a.432.432,0,0,0,.306-.131l1.05-1.05a.433.433,0,0,1,.612.612l-1.05,1.05A1.192,1.192,0,0,1,60.034,142.987Z" transform="translate(-58 -140.8)" fill="#fff"/>
      </g>
      <g id="Group_8323" data-name="Group 8323" transform="translate(37.75 71.05)">
        <circle id="Ellipse_120" data-name="Ellipse 120" cx="1.969" cy="1.969" r="1.969" fill="#fff"/>
      </g>
      <g id="Group_8324" data-name="Group 8324" transform="translate(36 61.425)">
        <circle id="Ellipse_121" data-name="Ellipse 121" cx="1.969" cy="1.969" r="1.969" fill="#fff"/>
      </g>
      <g id="Group_8325" data-name="Group 8325" transform="translate(55.469 53.331)">
        <path id="Path_9176" data-name="Path 9176" d="M125.438,60.55a.432.432,0,0,1-.306-.131.423.423,0,0,1,0-.613l.612-.612a1.31,1.31,0,0,1,.919-.394h1.6a.438.438,0,0,1,0,.875h-1.6a.432.432,0,0,0-.306.131l-.613.613A.431.431,0,0,1,125.438,60.55Z" transform="translate(-125 -58.8)" fill="#fff"/>
      </g>
      <g id="Group_8326" data-name="Group 8326" transform="translate(58.313 51.8)">
        <circle id="Ellipse_122" data-name="Ellipse 122" cx="1.969" cy="1.969" r="1.969" fill="#fff"/>
      </g>
      <g id="Group_8327" data-name="Group 8327" transform="translate(55.053 71.269)">
        <path id="Path_9177" data-name="Path 9177" d="M126.8,142.987h-1.6a1.225,1.225,0,0,1-.919-.394l-1.05-1.05a.433.433,0,0,1,.612-.612l1.05,1.05a.431.431,0,0,0,.306.131h1.6a.438.438,0,0,1,0,.875Z" transform="translate(-123.1 -140.8)" fill="#fff"/>
      </g>
      <g id="Group_8328" data-name="Group 8328" transform="translate(58.313 71.05)">
        <circle id="Ellipse_123" data-name="Ellipse 123" cx="1.969" cy="1.969" r="1.969" fill="#fff"/>
      </g>
      <g id="Group_8329" data-name="Group 8329" transform="translate(60.063 61.425)">
        <circle id="Ellipse_124" data-name="Ellipse 124" cx="1.969" cy="1.969" r="1.969" fill="#fff"/>
      </g>
      <g id="Group_8330" data-name="Group 8330" transform="translate(41.031 53.112)">
        <path id="Path_9178" data-name="Path 9178" d="M67.969,77.925a.369.369,0,0,1-.219-.066l-4.222-2.494A9.174,9.174,0,0,1,59,67.469V63.334a1.282,1.282,0,0,1,.678-1.138l7.328-4.134a1.9,1.9,0,0,1,1.925,0l7.35,4.134a1.334,1.334,0,0,1,.678,1.138v4.134a9.209,9.209,0,0,1-4.528,7.919l-4.244,2.472A.37.37,0,0,1,67.969,77.925Zm0-19.25a1.039,1.039,0,0,0-.547.153l-7.328,4.134a.451.451,0,0,0-.219.372v4.134a8.347,8.347,0,0,0,4.091,7.153l4,2.362,4-2.362a8.347,8.347,0,0,0,4.091-7.153V63.334a.424.424,0,0,0-.219-.372l-7.328-4.134A1.039,1.039,0,0,0,67.969,58.675Z" transform="translate(-59 -57.8)" fill="#fff"/>
      </g>
      <g id="Group_8331" data-name="Group 8331" transform="translate(45.188 60.987)">
        <path id="Path_9179" data-name="Path 9179" d="M85.875,93.8H79.75A1.755,1.755,0,0,0,78,95.55v3.719a2.633,2.633,0,0,0,2.625,2.625H85a2.633,2.633,0,0,0,2.625-2.625V95.55A1.755,1.755,0,0,0,85.875,93.8ZM83.25,98.547v1.159a.438.438,0,0,1-.875,0V98.547a1.316,1.316,0,1,1,1.75-1.247A1.354,1.354,0,0,1,83.25,98.547Z" transform="translate(-78 -93.8)" fill="#fff"/>
      </g>
      <g id="Group_8332" data-name="Group 8332" transform="translate(47.156 57.269)">
        <path id="Path_9180" data-name="Path 9180" d="M92.25,81.394a.439.439,0,0,1-.437-.437V79.644a1.969,1.969,0,0,0-3.937,0v1.313a.438.438,0,0,1-.875,0V79.644a2.844,2.844,0,0,1,5.688,0v1.313A.439.439,0,0,1,92.25,81.394Z" transform="translate(-87 -76.8)" fill="#fff"/>
      </g>
    </g>
  </g>
</svg>
