<svg xmlns="http://www.w3.org/2000/svg" width="60" height="60" viewBox="0 0 60 60">
  <g id="ai-based-cybersecurity-1" transform="translate(-267 -1397)">
    <circle id="Ellipse_30" data-name="Ellipse 30" cx="30" cy="30" r="30" transform="translate(267 1397)" fill="#f48120"/>
    <g id="noun-cybersecurity-5893791" transform="translate(241 1358.2)">
      <g id="Group_8320" data-name="Group 8320" transform="translate(42.875 53.987)">
        <path id="Path_9174" data-name="Path 9174" d="M62.688,61.3a.617.617,0,0,1-.438-.187l-.875-.875a.617.617,0,0,0-.437-.187H58.625a.625.625,0,0,1,0-1.25h2.281a1.749,1.749,0,0,1,1.313.563l.875.875a.6.6,0,0,1,0,.875A.5.5,0,0,1,62.688,61.3Z" transform="translate(-58 -58.8)" fill="#fff"/>
      </g>
      <g id="Group_8321" data-name="Group 8321" transform="translate(38.5 51.8)">
        <circle id="Ellipse_119" data-name="Ellipse 119" cx="2.813" cy="2.813" r="2.813" fill="#fff"/>
      </g>
      <g id="Group_8322" data-name="Group 8322" transform="translate(42.875 79.613)">
        <path id="Path_9175" data-name="Path 9175" d="M60.906,143.925H58.625a.625.625,0,0,1,0-1.25h2.281a.616.616,0,0,0,.438-.187l1.5-1.5a.619.619,0,1,1,.875.875l-1.5,1.5A1.7,1.7,0,0,1,60.906,143.925Z" transform="translate(-58 -140.8)" fill="#fff"/>
      </g>
      <g id="Group_8323" data-name="Group 8323" transform="translate(38.5 79.3)">
        <circle id="Ellipse_120" data-name="Ellipse 120" cx="2.813" cy="2.813" r="2.813" fill="#fff"/>
      </g>
      <g id="Group_8324" data-name="Group 8324" transform="translate(36 65.55)">
        <circle id="Ellipse_121" data-name="Ellipse 121" cx="2.813" cy="2.813" r="2.813" fill="#fff"/>
      </g>
      <g id="Group_8325" data-name="Group 8325" transform="translate(63.813 53.987)">
        <path id="Path_9176" data-name="Path 9176" d="M125.625,61.3a.617.617,0,0,1-.438-.187.6.6,0,0,1,0-.875l.875-.875a1.872,1.872,0,0,1,1.313-.563h2.281a.625.625,0,0,1,0,1.25h-2.281a.617.617,0,0,0-.438.187l-.875.875A.616.616,0,0,1,125.625,61.3Z" transform="translate(-125 -58.8)" fill="#fff"/>
      </g>
      <g id="Group_8326" data-name="Group 8326" transform="translate(67.875 51.8)">
        <circle id="Ellipse_122" data-name="Ellipse 122" cx="2.813" cy="2.813" r="2.813" fill="#fff"/>
      </g>
      <g id="Group_8327" data-name="Group 8327" transform="translate(63.219 79.613)">
        <path id="Path_9177" data-name="Path 9177" d="M128.381,143.925H126.1a1.75,1.75,0,0,1-1.313-.562l-1.5-1.5a.619.619,0,1,1,.875-.875l1.5,1.5a.616.616,0,0,0,.438.187h2.281a.625.625,0,0,1,0,1.25Z" transform="translate(-123.1 -140.8)" fill="#fff"/>
      </g>
      <g id="Group_8328" data-name="Group 8328" transform="translate(67.875 79.3)">
        <circle id="Ellipse_123" data-name="Ellipse 123" cx="2.813" cy="2.813" r="2.813" fill="#fff"/>
      </g>
      <g id="Group_8329" data-name="Group 8329" transform="translate(70.375 65.55)">
        <circle id="Ellipse_124" data-name="Ellipse 124" cx="2.813" cy="2.813" r="2.813" fill="#fff"/>
      </g>
      <g id="Group_8330" data-name="Group 8330" transform="translate(43.188 53.675)">
        <path id="Path_9178" data-name="Path 9178" d="M71.813,86.55a.527.527,0,0,1-.312-.094l-6.031-3.562A13.105,13.105,0,0,1,59,71.613V65.706a1.831,1.831,0,0,1,.969-1.625l10.469-5.906a2.708,2.708,0,0,1,2.75,0l10.5,5.906a1.906,1.906,0,0,1,.969,1.625v5.906a13.156,13.156,0,0,1-6.469,11.313l-6.062,3.531A.528.528,0,0,1,71.813,86.55Zm0-27.5a1.484,1.484,0,0,0-.781.219L60.563,65.175a.644.644,0,0,0-.312.531v5.906a11.925,11.925,0,0,0,5.844,10.219l5.719,3.375,5.719-3.375a11.925,11.925,0,0,0,5.844-10.219V65.706a.605.605,0,0,0-.312-.531L72.594,59.269A1.484,1.484,0,0,0,71.813,59.05Z" transform="translate(-59 -57.8)" fill="#fff"/>
      </g>
      <g id="Group_8331" data-name="Group 8331" transform="translate(49.125 64.925)">
        <path id="Path_9179" data-name="Path 9179" d="M89.25,93.8H80.5A2.507,2.507,0,0,0,78,96.3v5.313a3.761,3.761,0,0,0,3.75,3.75H88a3.761,3.761,0,0,0,3.75-3.75V96.3A2.507,2.507,0,0,0,89.25,93.8Zm-3.75,6.781v1.656a.625.625,0,0,1-1.25,0v-1.656a1.881,1.881,0,1,1,2.5-1.781A1.934,1.934,0,0,1,85.5,100.581Z" transform="translate(-78 -93.8)" fill="#fff"/>
      </g>
      <g id="Group_8332" data-name="Group 8332" transform="translate(51.938 59.612)">
        <path id="Path_9180" data-name="Path 9180" d="M94.5,83.363a.627.627,0,0,1-.625-.625V80.863a2.813,2.813,0,0,0-5.625,0v1.875a.625.625,0,0,1-1.25,0V80.863a4.063,4.063,0,0,1,8.125,0v1.875A.627.627,0,0,1,94.5,83.363Z" transform="translate(-87 -76.8)" fill="#fff"/>
      </g>
    </g>
  </g>
</svg>
