<svg id="ai-driven-performance-optimization" xmlns="http://www.w3.org/2000/svg" xmlns:xlink="http://www.w3.org/1999/xlink" width="45" height="45" viewBox="0 0 45 45">
  <defs>
    <linearGradient id="linear-gradient" x1="0.5" x2="0.156" y2="0.791" gradientUnits="objectBoundingBox">
      <stop offset="0" stop-color="#3e3e3e"/>
      <stop offset="1" stop-color="#1a1a1a"/>
    </linearGradient>
  </defs>
  <circle id="Ellipse_1" data-name="Ellipse 1" cx="22.5" cy="22.5" r="22.5" fill="url(#linear-gradient)"/>
  <g id="analysis-icon" transform="translate(9 8)">
    <path id="Path_9100" data-name="Path 9100" d="M12.336,0A12.337,12.337,0,0,1,22.66,19.088L28,24.906l-3.681,3.366-5.151-5.666A12.336,12.336,0,1,1,12.336,0Zm.255,9.474.343-1.3-1.946-.683L14.94,5.367l2.1,4.008-2.068-.644L14.687,10.1l-2.1-.626Zm6.545,9.389H6.826a.927.927,0,0,1-.925-.925l0-9.862H7.293v9.393H19.136v1.394Zm-3.051-6.6h1.783a.182.182,0,0,1,.182.182v3.713a.182.182,0,0,1-.182.182H16.085a.182.182,0,0,1-.182-.182V12.451a.181.181,0,0,1,.182-.184ZM9.06,9.994h1.783a.182.182,0,0,1,.182.182v5.988a.182.182,0,0,1-.182.182H9.06a.182.182,0,0,1-.182-.182V10.178a.183.183,0,0,1,.182-.184ZM14.59,11.2v4.967a.182.182,0,0,1-.182.182H12.628a.182.182,0,0,1-.182-.182V10.585l1.928.573c.03.009.06.016.09.023s.083.014.127.018Zm5.494-6.614a10.964,10.964,0,1,0,3.207,7.751,10.924,10.924,0,0,0-3.207-7.751Z" fill="#fff"/>
  </g>
</svg>
