<svg id="ai-driven-performance-optimization-1" xmlns="http://www.w3.org/2000/svg" width="30" height="30.291" viewBox="0 0 30 30.291">
  <path id="Path_9111" data-name="Path 9111" d="M13.217,0A13.218,13.218,0,0,1,24.279,20.451L30,26.685l-3.944,3.606L20.537,24.22A13.217,13.217,0,1,1,13.217,0Zm.274,10.15.367-1.4-2.085-.732,4.235-2.27,2.253,4.294-2.216-.69-.308,1.467-2.246-.67ZM20.5,20.21H7.313a.993.993,0,0,1-.991-.991l0-10.567H7.814V18.716H20.5V20.21Zm-3.268-7.067h1.91a.2.2,0,0,1,.195.195v3.978a.2.2,0,0,1-.195.195h-1.91a.2.2,0,0,1-.195-.195V13.34a.194.194,0,0,1,.195-.2ZM9.707,10.707h1.91a.2.2,0,0,1,.195.195v6.416a.2.2,0,0,1-.195.195H9.707a.2.2,0,0,1-.195-.195V10.9a.2.2,0,0,1,.195-.2ZM15.632,12v5.322a.2.2,0,0,1-.195.195H13.53a.2.2,0,0,1-.195-.195v-5.98l2.066.614c.032.01.064.017.1.025s.089.015.136.02Zm5.886-7.087a11.747,11.747,0,1,0,3.436,8.3,11.7,11.7,0,0,0-3.436-8.3Z" fill="#fff"/>
</svg>
