<svg width="149" height="149" viewBox="0 0 149 149" fill="none" xmlns="http://www.w3.org/2000/svg">
<path d="M74.39 148.78C115.474 148.78 148.78 115.474 148.78 74.39C148.78 33.3055 115.474 0 74.39 0C33.3055 0 0 33.3055 0 74.39C0 115.474 33.3055 148.78 74.39 148.78Z" fill="url(#paint0_linear_9_78)"/>
<path fill-rule="evenodd" clip-rule="evenodd" d="M77.7067 108.438C77.2179 108.719 76.5923 108.55 76.3107 108.061C76.029 107.572 76.1988 106.946 76.6876 106.665L81.5429 103.86C82.0317 103.578 82.6573 103.748 82.9389 104.237C83.2206 104.726 83.0508 105.351 82.5619 105.633L77.7067 108.438ZM78.3944 96.2003C78.5684 96.0263 78.7341 95.8482 78.8998 95.6659H85.7229C86.2904 95.6659 86.7502 95.206 86.7502 94.6385V49.6445C86.7502 49.0769 86.2904 48.6171 85.7229 48.6171L71.953 48.613C71.3854 48.613 70.9256 49.0728 70.9256 49.6404V71.2529C68.9288 70.8303 66.8367 70.8179 64.7902 71.2487V60.8133C64.7902 60.2458 64.3304 59.7859 63.7628 59.7859L49.9887 59.7901C49.4211 59.7901 48.9613 60.2499 48.9613 60.8175V94.6388C48.9613 95.2064 49.4211 95.6662 49.9887 95.6662H56.8158C58.7712 97.8494 61.29 99.3574 64.0158 100.086C66.4683 100.745 69.0907 100.774 71.6219 100.107L74.1945 104.561L73.0884 105.199C72.5995 105.484 72.4297 106.11 72.7155 106.599L78.0844 115.899C78.9378 117.378 80.3174 118.372 81.8543 118.787C83.3664 119.193 85.0318 119.031 86.4982 118.202C86.519 118.19 86.5397 118.182 86.5604 118.169C88.0393 117.316 89.0335 115.936 89.4479 114.399C89.8539 112.887 89.6923 111.218 88.8638 109.751C88.8513 109.731 88.8431 109.71 88.8306 109.689L83.4617 100.389C83.1759 99.9 82.5503 99.7302 82.0615 100.016L80.9595 100.654L78.3944 96.2003ZM73.5972 99.4316C74.1399 99.2038 74.6784 98.9386 75.2046 98.6362C75.2253 98.6279 75.246 98.6155 75.2667 98.6031C75.8094 98.2882 76.3314 97.9444 76.8202 97.5715L79.1857 101.673L75.9626 103.533L73.5972 99.4316ZM75.4076 31.0445C74.8442 30.9823 74.4382 30.4769 74.5003 29.9135C74.5624 29.3501 75.0679 28.9441 75.6313 29.0063L84.6416 30.0047C85.205 30.0668 85.611 30.5722 85.5489 31.1356C85.5364 31.2599 85.4991 31.3759 85.4453 31.4836L81.8245 39.74C81.5967 40.2579 80.9919 40.4981 80.4741 40.2703C79.9562 40.0424 79.716 39.4376 79.9438 38.9198L82.33 33.4763L53.1368 50.3334C52.648 50.6193 52.0183 50.4494 51.7366 49.9606C51.7242 49.944 51.7159 49.9233 51.7076 49.9067L47.246 42.1764L29.726 52.2888C29.2372 52.5705 28.6116 52.4006 28.33 51.9118C28.0483 51.423 28.2181 50.7974 28.7069 50.5157L47.1092 39.8892C47.5981 39.6075 48.2236 39.7774 48.5053 40.2662L52.996 48.0462L81.3111 31.6992L75.4076 31.0445ZM96.1791 48.6132H120.567C121.135 48.6132 121.594 49.073 121.594 49.6406V57.6691C121.594 58.2367 121.135 58.6965 120.567 58.6965H96.1791C95.6115 58.6965 95.1517 58.2367 95.1517 57.6691V49.6406C95.1517 49.0772 95.6115 48.6132 96.1791 48.6132ZM119.539 50.6721H97.2057V56.6417H119.539V50.6721ZM96.1791 67.2142C95.6115 67.2142 95.1517 66.7544 95.1517 66.1868C95.1517 65.6193 95.6115 65.1595 96.1791 65.1595H120.567C121.135 65.1595 121.594 65.6193 121.594 66.1868C121.594 66.7544 121.135 67.2142 120.567 67.2142H96.1791ZM60.5061 72.8898C60.4854 72.898 60.4646 72.9105 60.4439 72.9229C56.8977 74.9694 54.5199 78.2629 53.5381 81.925C52.5646 85.5664 52.9705 89.5807 54.988 93.1146C55.0005 93.1353 55.0088 93.156 55.0212 93.1768C55.104 93.3218 55.191 93.4668 55.278 93.6076H51.0194V61.8458H62.735V71.8504C61.9728 72.1321 61.2311 72.4755 60.5061 72.8898ZM72.98 71.8499V50.6722H84.6957V93.6109H80.4411C81.2158 92.364 81.8041 91.0093 82.1769 89.6009C83.1504 85.9594 82.7445 81.9451 80.727 78.4112C80.7187 78.3905 80.7062 78.3698 80.6938 78.3491C78.8918 75.2255 76.1201 73.0057 72.98 71.8499ZM71.1614 73.4242C71.3064 73.4615 71.4514 73.5029 71.5964 73.5485C71.6295 73.5609 71.6627 73.5692 71.6958 73.5775C74.6371 74.5054 77.2553 76.4939 78.9207 79.373L78.9497 79.4186C80.6854 82.4594 81.0376 85.9226 80.1925 89.0629C79.7202 90.8318 78.8668 92.4972 77.6738 93.9305C77.653 93.9553 77.6323 93.9802 77.6116 94.005C76.6961 95.0862 75.59 96.0309 74.3016 96.7848C74.256 96.8096 74.2105 96.8345 74.1649 96.8635C71.1283 98.5869 67.6816 98.9307 64.5456 98.0939C62.0848 97.4352 59.8188 96.0433 58.1037 94.0133C58.083 93.9843 58.0581 93.9553 58.0333 93.9263C57.59 93.3919 57.184 92.8161 56.8236 92.1988C56.7988 92.1533 56.7739 92.1077 56.7449 92.0621C55.0216 89.0255 54.6778 85.5788 55.5145 82.4428C56.3596 79.286 58.4103 76.4484 61.4676 74.6836L61.5131 74.6546C62.3127 74.1989 63.1413 73.8385 63.9863 73.5692C64.036 73.5568 64.0857 73.5402 64.1354 73.5236C66.4636 72.8318 68.8954 72.8152 71.1614 73.4242ZM96.1793 62.9556C95.6117 62.9556 95.1519 62.4958 95.1519 61.9282C95.1519 61.3607 95.6117 60.9008 96.1793 60.9008H120.567C121.135 60.9008 121.595 61.3607 121.595 61.9282C121.595 62.4958 121.135 62.9556 120.567 62.9556H96.1793ZM75.569 81.2741C75.5607 81.2575 75.5483 81.241 75.5441 81.2244C74.3096 79.1323 72.3501 77.7279 70.1669 77.1438C67.9589 76.5514 65.523 76.8 63.3895 78.0345C62.9007 78.3162 62.2751 78.1463 61.9934 77.6575C61.7117 77.1687 61.8816 76.5431 62.3704 76.2614C64.9969 74.7452 67.9879 74.4344 70.6973 75.1636C73.3775 75.8802 75.7886 77.6119 77.309 80.1887C77.3214 80.2094 77.3339 80.2301 77.3463 80.2508L77.3629 80.2798C77.6487 80.7686 77.4789 81.3983 76.99 81.68C76.5012 81.9659 75.8715 81.796 75.5898 81.3072L75.569 81.2741ZM82.2055 102.302L75.0055 106.457L79.8235 114.805C79.8484 114.842 79.8732 114.884 79.8939 114.925C80.4656 115.882 81.377 116.528 82.3837 116.798C83.3905 117.067 84.4924 116.967 85.4617 116.433C85.5031 116.404 85.5445 116.379 85.5901 116.358C86.5471 115.787 87.1933 114.875 87.4626 113.864C87.736 112.85 87.6283 111.735 87.0856 110.762L87.0566 110.716L82.2055 102.302ZM28.0274 70.9626H41.7973C42.3648 70.9626 42.8247 71.4224 42.8247 71.99V94.6344C42.8247 95.2019 42.3648 95.6618 41.7973 95.6618L28.0274 95.6659C27.4598 95.6659 27 95.2061 27 94.6385V71.9909C27 71.4234 27.4598 70.9626 28.0274 70.9626ZM40.7707 73.0215H29.055V93.6106H40.7707V73.0215Z" fill="white"/>
<defs>
<linearGradient id="paint0_linear_9_78" x1="148.78" y1="74.39" x2="0" y2="74.39" gradientUnits="userSpaceOnUse">
<stop stop-color="#3B3B3B"/>
<stop offset="1" stop-color="#191919"/>
</linearGradient>
</defs>
</svg>
