<svg width="256" height="256" viewBox="0 0 256 256" fill="none" xmlns="http://www.w3.org/2000/svg">
<path d="M123.569 45.6002C123.569 43.7033 125.105 42.1668 127.002 42.1668H178.503C180.4 42.1668 181.937 43.7033 181.937 45.6002C181.937 47.4971 180.4 49.0335 178.503 49.0335H127.002C125.105 49.0335 123.569 47.4971 123.569 45.6002ZM48.0354 49.0335C49.4259 49.0335 50.6791 48.2009 51.2112 46.9134C51.7348 45.6345 51.443 44.1582 50.4645 43.1712C49.4774 42.1927 48.0011 41.9008 46.7222 42.4244C45.4347 42.9566 44.6021 44.2098 44.6021 45.6002C44.6021 46.5101 44.9626 47.3856 45.6064 48.0294C46.2501 48.6732 47.1255 49.0335 48.0354 49.0335ZM65.2021 49.0335C66.5926 49.0335 67.8458 48.2009 68.3779 46.9134C68.9015 45.6345 68.6097 44.1582 67.6312 43.1712C66.6441 42.1927 65.1678 41.9008 63.8889 42.4244C62.6014 42.9566 61.7688 44.2098 61.7688 45.6002C61.7688 46.5101 62.1293 47.3856 62.7731 48.0294C63.4168 48.6732 64.2922 49.0335 65.2021 49.0335ZM82.3688 49.0335C83.7593 49.0335 85.0124 48.2009 85.5446 46.9134C86.0682 45.6345 85.7764 44.1582 84.7979 43.1712C83.8108 42.1927 82.3345 41.9008 81.0556 42.4244C79.7681 42.9566 78.9355 44.2098 78.9355 45.6002C78.9355 46.5101 79.296 47.3856 79.9398 48.0294C80.5835 48.6732 81.4589 49.0335 82.3688 49.0335ZM44.8163 109.632L55.1164 82.165C55.6228 80.8174 56.9017 79.9334 58.335 79.9334C59.7683 79.9334 61.0474 80.8174 61.5537 82.165L71.8537 109.632C72.5146 111.4 71.6133 113.383 69.8366 114.052C68.0684 114.713 66.0858 113.812 65.4162 112.035L63.6824 107.4H52.9875L51.2451 112.035H51.2537C50.5842 113.812 48.6015 114.713 46.8333 114.052C45.0565 113.383 44.1553 111.4 44.8163 109.632ZM55.5626 100.533H61.1074L58.335 93.1431L55.5626 100.533ZM82.3679 114.267C80.471 114.267 78.9346 112.73 78.9346 110.833V83.3667C78.9346 81.4698 80.471 79.9334 82.3679 79.9334H90.9512C97.586 79.9334 102.968 85.3151 102.968 91.9502C102.968 98.5852 97.5863 103.967 90.9512 103.967H85.8011V110.834C85.8011 111.743 85.4406 112.619 84.7968 113.263C84.1531 113.907 83.2778 114.267 82.3679 114.267ZM85.8013 97.1001H90.9514C93.7926 97.1001 96.1015 94.7911 96.1015 91.9499C96.1015 89.1088 93.7926 86.7998 90.9514 86.7998H85.8013V97.1001ZM116.7 110.833V83.3667C116.7 81.4698 115.164 79.9334 113.267 79.9334C111.37 79.9334 109.834 81.4698 109.834 83.3667V110.833C109.834 112.73 111.37 114.267 113.267 114.267C115.164 114.267 116.7 112.73 116.7 110.833ZM120.134 193.234C120.134 194.143 119.764 195.019 119.121 195.663C118.477 196.306 117.61 196.667 116.7 196.667H41.1667C31.6907 196.658 24.0086 188.976 24 179.5V42.1667C24.0086 32.6907 31.6907 25.0086 41.1667 25H185.367C194.843 25.0086 202.525 32.6907 202.534 42.1667V124.567C202.534 126.464 200.997 128 199.1 128C197.203 128 195.667 126.464 195.667 124.567V66.2012H30.8667V179.5C30.8753 185.182 35.4846 189.792 41.1667 189.8H116.7C117.61 189.8 118.477 190.161 119.121 190.805C119.764 191.448 120.134 192.324 120.134 193.234ZM30.8668 42.1666V59.3333H195.667V42.1666C195.658 36.4845 191.049 31.8752 185.367 31.8666H41.1668C35.4847 31.8752 30.8753 36.4845 30.8668 42.1666ZM230 171.526V180.607C230.009 183.422 228.292 185.946 225.683 186.985L217.349 190.315C216.713 192.229 215.941 194.1 215.057 195.911L218.585 204.143H218.576C219.692 206.718 219.117 209.713 217.125 211.696L210.696 218.125C208.714 220.108 205.718 220.691 203.143 219.576L194.912 216.048C193.101 216.94 191.229 217.713 189.315 218.348L185.985 226.683C184.946 229.301 182.423 231.009 179.608 231H170.527C167.711 231.009 165.179 229.3 164.149 226.683L160.819 218.348C158.905 217.713 157.034 216.94 155.222 216.048L146.991 219.576C144.416 220.691 141.42 220.108 139.438 218.125L133.009 211.696C131.017 209.713 130.442 206.718 131.558 204.134L135.086 195.903L135.077 195.911C134.193 194.1 133.421 192.229 132.786 190.315L124.451 186.985C121.842 185.946 120.125 183.422 120.134 180.607V171.526C120.125 168.711 121.842 166.187 124.451 165.149L132.786 161.818C133.421 159.904 134.193 158.033 135.086 156.222L131.558 147.991V147.999C130.442 145.416 131.017 142.42 133.009 140.437L139.438 134.017V134.008C141.412 132.017 144.416 131.442 146.991 132.558L155.222 136.086C157.034 135.193 158.905 134.42 160.819 133.785L164.149 125.451C165.188 122.833 167.711 121.125 170.526 121.133H179.616H179.608C182.423 121.125 184.955 122.833 185.985 125.451L189.315 133.785C191.229 134.42 193.101 135.193 194.912 136.086L203.143 132.558C205.718 131.442 208.722 132.017 210.696 134.008L217.125 140.437C219.117 142.42 219.692 145.416 218.576 147.999L215.048 156.231V156.222C215.941 158.033 216.713 159.904 217.349 161.818L225.683 165.149C228.292 166.187 230.009 168.711 230 171.526ZM223.134 171.526L213.289 167.586C212.31 167.2 211.572 166.376 211.271 165.372C210.525 162.814 209.512 160.35 208.242 158.016C207.735 157.089 207.684 155.981 208.096 155.012L212.267 145.287L205.847 138.866L196.122 143.029C195.152 143.45 194.053 143.398 193.126 142.892C190.783 141.621 188.319 140.608 185.761 139.862C184.757 139.561 183.933 138.823 183.547 137.845L179.607 128H170.526L166.586 137.845C166.191 138.823 165.376 139.561 164.372 139.862C161.814 140.609 159.35 141.621 157.007 142.892C156.08 143.398 154.981 143.45 154.012 143.029L144.287 138.866L137.866 145.287L142.038 155.012C142.45 155.981 142.398 157.089 141.892 158.016C140.621 160.35 139.608 162.814 138.862 165.372C138.561 166.376 137.823 167.2 136.845 167.586L126.999 171.526V180.607L136.845 184.547C137.823 184.933 138.561 185.757 138.862 186.761C139.608 189.319 140.621 191.783 141.892 194.126C142.389 195.053 142.441 196.152 142.029 197.122L137.866 206.847L144.287 213.267L154.011 209.104C154.981 208.684 156.089 208.735 157.007 209.242C159.35 210.512 161.814 211.525 164.372 212.271C165.376 212.572 166.2 213.31 166.586 214.289L170.526 224.134H179.607L183.547 214.289C183.942 213.31 184.757 212.572 185.761 212.271C188.319 211.525 190.783 210.512 193.126 209.242C194.053 208.735 195.152 208.684 196.122 209.104L205.847 213.267L212.267 206.847L208.104 197.122C207.692 196.152 207.744 195.045 208.242 194.126C209.512 191.783 210.525 189.319 211.271 186.761C211.572 185.757 212.31 184.933 213.289 184.547L223.134 180.607L223.134 171.526ZM202.534 176.067C202.534 187.174 195.839 197.19 185.582 201.439C175.316 205.697 163.496 203.345 155.643 195.491C147.789 187.637 145.437 175.818 149.695 165.552C153.944 155.295 163.96 148.6 175.067 148.6C190.226 148.618 202.516 160.909 202.534 176.067ZM195.667 176.067C195.667 167.732 190.646 160.222 182.946 157.037C175.256 153.844 166.389 155.612 160.501 161.5C154.612 167.389 152.844 176.255 156.037 183.946C159.222 191.646 166.732 196.667 175.067 196.667C186.44 196.658 195.658 187.44 195.667 176.067ZM48.0324 134.867H89.2324C91.1293 134.867 92.6658 133.33 92.6658 131.433C92.6658 129.536 91.1293 128 89.2324 128H48.0324C46.1354 128 44.599 129.536 44.599 131.433C44.599 133.33 46.1354 134.867 48.0324 134.867ZM116.699 152.033C116.699 151.123 116.339 150.248 115.695 149.604C115.051 148.96 114.176 148.6 113.266 148.6H48.0312C46.1343 148.6 44.5979 150.136 44.5979 152.033C44.5979 153.93 46.1343 155.467 48.0312 155.467H113.266C114.176 155.467 115.051 155.106 115.695 154.462C116.339 153.819 116.699 152.943 116.699 152.033ZM48.0324 169.2C46.1354 169.2 44.599 170.736 44.599 172.633C44.599 174.53 46.1354 176.067 48.0324 176.067H89.2324C91.1293 176.067 92.6658 174.53 92.6658 172.633C92.6658 170.736 91.1293 169.2 89.2324 169.2H48.0324ZM127 131.432C127 130.522 126.64 129.647 125.996 129.003C125.352 128.359 124.477 127.999 123.567 127.999H102.967C101.07 127.999 99.5335 129.535 99.5335 131.432C99.5335 133.329 101.07 134.865 102.967 134.865H123.567C124.477 134.865 125.352 134.505 125.996 133.861C126.64 133.217 127 132.342 127 131.432Z" fill="black"/>
</svg>
