<svg width="256" height="256" viewBox="0 0 256 256" fill="none" xmlns="http://www.w3.org/2000/svg">
<path d="M124.569 46.6001C124.569 44.7032 126.105 43.1668 128.002 43.1668H179.503C181.4 43.1668 182.936 44.7032 182.936 46.6001C182.936 48.4971 181.4 50.0335 179.503 50.0335H128.002C126.105 50.0335 124.569 48.4971 124.569 46.6001ZM49.0354 50.0335C50.4259 50.0335 51.679 49.2009 52.2112 47.9134C52.7348 46.6345 52.4429 45.1582 51.4644 44.1711C50.4774 43.1926 49.001 42.9008 47.7222 43.4244C46.4347 43.9566 45.6021 45.2097 45.6021 46.6002C45.6021 47.51 45.9626 48.3855 46.6063 49.0293C47.2501 49.6732 48.1255 50.0335 49.0354 50.0335ZM66.202 50.0335C67.5925 50.0335 68.8457 49.2009 69.3778 47.9134C69.9014 46.6345 69.6096 45.1582 68.6311 44.1711C67.644 43.1926 66.1677 42.9008 64.8888 43.4244C63.6013 43.9566 62.7688 45.2097 62.7688 46.6002C62.7688 47.51 63.1292 48.3855 63.773 49.0293C64.4168 49.6732 65.2921 50.0335 66.202 50.0335ZM83.3687 50.0335C84.7592 50.0335 86.0123 49.2009 86.5445 47.9134C87.0681 46.6345 86.7763 45.1582 85.7978 44.1711C84.8107 43.1926 83.3343 42.9008 82.0555 43.4244C80.768 43.9566 79.9354 45.2097 79.9354 46.6002C79.9354 47.51 80.2959 48.3855 80.9397 49.0293C81.5834 49.6732 82.4588 50.0335 83.3687 50.0335ZM45.8163 110.631L56.1163 83.1648C56.6227 81.8173 57.9016 80.9332 59.3349 80.9332C60.7683 80.9332 62.0473 81.8173 62.5536 83.1648L72.8536 110.631C73.5145 112.4 72.6132 114.382 70.8365 115.052C69.0683 115.713 67.0857 114.812 66.4161 113.035L64.6823 108.4H53.9874L52.245 113.035H52.2536C51.5841 114.812 49.6014 115.713 47.8332 115.052C46.0565 114.382 45.1553 112.4 45.8163 110.631ZM56.5626 101.533H62.1073L59.3349 94.1429L56.5626 101.533ZM83.3678 115.267C81.4709 115.267 79.9345 113.73 79.9345 111.833V84.3666C79.9345 82.4697 81.4709 80.9332 83.3678 80.9332H91.951C98.5859 80.9332 103.968 86.3149 103.968 92.95C103.968 99.5851 98.5861 104.967 91.951 104.967H86.8009V111.833C86.8009 112.743 86.4404 113.619 85.7967 114.263C85.1529 114.906 84.2777 115.267 83.3678 115.267ZM86.8011 98.0999H91.9513C94.7924 98.0999 97.1014 95.7909 97.1014 92.9498C97.1014 90.1086 94.7924 87.7997 91.9513 87.7997H86.8011V98.0999ZM117.7 111.833V84.3666C117.7 82.4697 116.164 80.9332 114.267 80.9332C112.37 80.9332 110.833 82.4697 110.833 84.3666V111.833C110.833 113.73 112.37 115.267 114.267 115.267C116.164 115.267 117.7 113.73 117.7 111.833ZM121.133 194.233C121.133 195.143 120.764 196.018 120.121 196.662C119.477 197.306 118.61 197.667 117.7 197.667H42.1667C32.6907 197.658 25.0086 189.976 25 180.5V43.1667C25.0086 33.6907 32.6907 26.0086 42.1667 26H186.367C195.843 26.0086 203.525 33.6907 203.533 43.1667V125.567C203.533 127.464 201.997 129 200.1 129C198.203 129 196.667 127.464 196.667 125.567V67.2011H31.8667V180.5C31.8752 186.182 36.4846 190.791 42.1667 190.8H117.7C118.61 190.8 119.477 191.16 120.121 191.804C120.764 192.448 121.133 193.323 121.133 194.233ZM31.8667 43.1666V60.3332H196.667V43.1666C196.658 37.4845 192.049 32.8752 186.367 32.8666H42.1667C36.4847 32.8752 31.8753 37.4845 31.8667 43.1666ZM231 172.526V181.607C231.009 184.422 229.292 186.946 226.683 187.984L218.348 191.314C217.713 193.229 216.94 195.1 216.056 196.911L219.584 205.142H219.576C220.691 207.717 220.116 210.713 218.125 212.696L211.696 219.125C209.713 221.107 206.718 221.691 204.143 220.575L195.911 217.047C194.1 217.94 192.229 218.712 190.315 219.348L186.985 227.682C185.946 230.3 183.423 232.008 180.607 231.999H171.526C168.711 232.008 166.179 230.3 165.149 227.682L161.819 219.348C159.904 218.713 158.033 217.94 156.222 217.047L147.991 220.575C145.416 221.691 142.42 221.107 140.437 219.125L134.008 212.696C132.017 210.713 131.442 207.717 132.558 205.134L136.086 196.902L136.077 196.911C135.193 195.1 134.421 193.229 133.785 191.314L125.451 187.984C122.841 186.946 121.125 184.422 121.133 181.607V172.526C121.125 169.71 122.842 167.187 125.451 166.148L133.785 162.818C134.42 160.904 135.193 159.033 136.086 157.222L132.558 148.99V148.999C131.442 146.415 132.017 143.42 134.008 141.437L140.437 135.017V135.008C142.412 133.017 145.416 132.442 147.991 133.557L156.222 137.085C158.033 136.193 159.904 135.42 161.819 134.785L165.149 126.45C166.187 123.832 168.711 122.124 171.526 122.133H180.616H180.607C183.422 122.125 185.955 123.833 186.985 126.45L190.315 134.785C192.229 135.42 194.1 136.193 195.911 137.085L204.143 133.557C206.718 132.442 209.722 133.017 211.696 135.008L218.125 141.437C220.116 143.42 220.691 146.415 219.576 148.999L216.048 157.23V157.222C216.94 159.033 217.713 160.904 218.348 162.818L226.683 166.148C229.292 167.187 231.009 169.71 231 172.526ZM224.133 172.526L214.288 168.586C213.31 168.2 212.571 167.376 212.271 166.371C211.524 163.814 210.511 161.35 209.241 159.015C208.735 158.088 208.683 156.981 209.095 156.011L213.267 146.286L206.846 139.866L197.121 144.029C196.151 144.449 195.053 144.398 194.126 143.891C191.782 142.621 189.319 141.608 186.761 140.862C185.757 140.561 184.933 139.823 184.547 138.844L180.607 128.999H171.526L167.586 138.844C167.191 139.823 166.376 140.561 165.371 140.862C162.814 141.608 160.35 142.621 158.007 143.891C157.08 144.398 155.981 144.449 155.011 144.029L145.286 139.866L138.866 146.286L143.037 156.011C143.449 156.981 143.398 158.088 142.891 159.015C141.621 161.35 140.608 163.814 139.861 166.371C139.561 167.376 138.823 168.2 137.844 168.586L127.999 172.526V181.607L137.844 185.547C138.823 185.933 139.561 186.757 139.861 187.761C140.608 190.319 141.621 192.782 142.891 195.126C143.389 196.053 143.441 197.151 143.029 198.121L138.866 207.846L145.286 214.267L155.011 210.104C155.981 209.683 157.088 209.735 158.007 210.241C160.35 211.511 162.813 212.524 165.371 213.271C166.376 213.571 167.2 214.31 167.586 215.288L171.526 225.133H180.607L184.547 215.288C184.941 214.31 185.757 213.571 186.761 213.271C189.319 212.524 191.782 211.511 194.126 210.241C195.053 209.735 196.151 209.683 197.121 210.104L206.846 214.267L213.267 207.846L209.104 198.121C208.692 197.151 208.743 196.044 209.241 195.126C210.511 192.782 211.524 190.319 212.271 187.761C212.571 186.757 213.31 185.933 214.288 185.547L224.133 181.607L224.133 172.526ZM203.533 177.066C203.533 188.173 196.838 198.19 186.581 202.439C176.316 206.696 164.496 204.344 156.643 196.491C148.789 188.637 146.437 176.818 150.695 166.552C154.943 156.295 164.96 149.6 176.067 149.6C191.225 149.617 203.516 161.908 203.533 177.066ZM196.667 177.066C196.667 168.732 191.645 161.222 183.946 158.037C176.255 154.844 167.389 156.612 161.5 162.5C155.612 168.388 153.844 177.255 157.037 184.946C160.221 192.645 167.732 197.666 176.066 197.666C187.439 197.658 196.658 188.439 196.667 177.066ZM49.0323 135.866H90.2323C92.1292 135.866 93.6656 134.33 93.6656 132.433C93.6656 130.536 92.1292 129 90.2323 129H49.0323C47.1354 129 45.599 130.536 45.599 132.433C45.599 134.33 47.1354 135.866 49.0323 135.866ZM117.699 153.033C117.699 152.123 117.338 151.248 116.695 150.604C116.051 149.96 115.175 149.6 114.266 149.6H49.0311C47.1342 149.6 45.5978 151.136 45.5978 153.033C45.5978 154.93 47.1342 156.466 49.0311 156.466H114.266C115.175 156.466 116.051 156.106 116.695 155.462C117.338 154.818 117.699 153.943 117.699 153.033ZM49.0323 170.2C47.1354 170.2 45.599 171.736 45.599 173.633C45.599 175.53 47.1354 177.066 49.0323 177.066H90.2323C92.1292 177.066 93.6656 175.53 93.6656 173.633C93.6656 171.736 92.1292 170.2 90.2323 170.2H49.0323ZM128 132.432C128 131.522 127.64 130.647 126.996 130.003C126.352 129.359 125.477 128.998 124.567 128.998H103.967C102.07 128.998 100.533 130.535 100.533 132.432C100.533 134.329 102.07 135.865 103.967 135.865H124.567C125.476 135.865 126.352 135.505 126.996 134.861C127.64 134.217 128 133.342 128 132.432Z" fill="black"/>
</svg>
