<svg width="80" height="80" viewBox="0 0 80 80" fill="none" xmlns="http://www.w3.org/2000/svg">
<g clip-path="url(#clip0_1_47)">
<mask id="mask0_1_47" style="mask-type:luminance" maskUnits="userSpaceOnUse" x="0" y="0" width="80" height="80">
<path d="M80 0H0V80H80V0Z" fill="white"/>
</mask>
<g mask="url(#mask0_1_47)">
<path d="M40 80C62.0914 80 80 62.0914 80 40C80 17.9086 62.0914 0 40 0C17.9086 0 0 17.9086 0 40C0 62.0914 17.9086 80 40 80Z" fill="#FFF2E8"/>
<path fill-rule="evenodd" clip-rule="evenodd" d="M31.469 50.3053H27.3761C26.9336 50.3053 26.6018 49.9735 26.6018 49.531V48.4248C25.938 48.2035 25.385 47.9823 24.8319 47.6504L24.0575 48.4248C23.7257 48.7566 23.2832 48.7566 22.9513 48.4248L20.0752 45.6593C19.9646 45.5487 19.854 45.3274 19.854 45.1062C19.854 44.885 19.9646 44.6637 20.0752 44.5531L20.8496 43.7788C20.6283 43.115 20.2965 42.5619 20.1858 41.8982H19.0796C18.6372 41.8982 18.3053 41.5664 18.3053 41.1239V37.1416C18.3053 36.6991 18.6372 36.3673 19.0796 36.3673H20.1858C20.2965 35.7035 20.6283 35.1504 20.8496 34.4867L20.0752 33.7124C19.9646 33.6018 19.854 33.3805 19.854 33.1593C19.854 32.9381 19.9646 32.7168 20.0752 32.6062L22.9513 29.8407C23.2832 29.5088 23.7257 29.5088 24.0575 29.8407L24.8319 30.615C25.385 30.3938 25.938 30.1726 26.6018 29.9513V28.7345C26.6018 28.292 26.9336 27.9602 27.3761 27.9602H31.469C31.9115 27.9602 32.2434 28.292 32.2434 28.7345V29.9513C32.9071 30.1726 33.5708 30.3938 34.0133 30.615L34.7876 29.8407C35.1195 29.5088 35.5619 29.5088 35.8938 29.8407L38.7699 32.6062C38.8805 32.7168 38.9911 32.9381 38.9911 33.1593C38.9911 33.3805 38.8805 33.6018 38.7699 33.7124L37.9956 34.4867C38.2168 35.1504 38.5487 35.7035 38.7699 36.3673H39.8761C40.3186 36.3673 40.6504 36.6991 40.6504 37.1416V41.1239C40.6504 41.5664 40.3186 41.8982 39.8761 41.8982H38.6593C38.5487 42.5619 38.2168 43.115 37.9956 43.7788L38.7699 44.5531C38.8805 44.6637 38.9911 44.885 38.9911 45.1062C38.9911 45.3274 38.8805 45.5487 38.7699 45.6593L35.8938 48.4248C35.5619 48.7566 35.1195 48.7566 34.7876 48.4248L34.0133 47.6504C33.4602 47.9823 32.7965 48.2035 32.2434 48.4248V49.531C32.2434 49.9735 31.9115 50.3053 31.469 50.3053ZM28.1504 48.7566H30.6947V47.8717C30.6947 47.5398 30.9159 47.208 31.2478 47.0973C32.1327 46.8761 33.0177 46.5442 33.6814 45.9911C34.0133 45.7699 34.3451 45.8805 34.677 46.1018L35.3407 46.7655L37.1106 45.1062L36.4469 44.4425C36.2257 44.2212 36.115 43.7788 36.3363 43.5575C36.6681 42.6726 37.1106 41.8982 37.3319 40.9027C37.4425 40.5708 37.7743 40.3496 38.1062 40.3496H39.1018V37.9159H38.1062C37.6637 37.9159 37.4425 37.6947 37.3319 37.2522C37.1106 36.3673 36.6681 35.5929 36.3363 34.708C36.115 34.3761 36.2257 34.0442 36.4469 33.823L37.1106 33.1593L35.3407 31.5L34.677 32.1637C34.3451 32.385 34.0133 32.385 33.6814 32.1637C33.1283 31.8319 32.354 31.5 31.2478 31.1681C30.9159 31.1681 30.6947 30.8363 30.6947 30.5044V29.5088H28.1504V30.5044C28.1504 30.8363 27.9292 31.1681 27.5973 31.1681C26.4911 31.5 25.7168 31.8319 25.1637 32.1637C24.8319 32.385 24.5 32.385 24.1681 32.1637L23.5044 31.5L21.7345 33.1593L22.3982 33.823C22.6195 34.0442 22.7301 34.4867 22.5088 34.708C22.0664 35.5929 21.7345 36.3673 21.5133 37.3628C21.4027 37.6947 21.0708 37.9159 20.7389 37.9159H19.854V40.3496H20.7389C21.0708 40.3496 21.4027 40.5708 21.5133 41.0133C21.7345 41.8982 22.0664 42.6726 22.5088 43.5575C22.7301 43.8894 22.6195 44.2212 22.3982 44.4425L21.7345 45.1062L23.5044 46.7655L24.1681 46.1018C24.3894 45.8805 24.8319 45.8805 25.1637 46.1018C25.8274 46.5442 26.7124 46.9867 27.5973 47.208C27.9292 47.208 28.1504 47.5398 28.1504 47.8717V48.7566Z" fill="#F48120"/>
<path fill-rule="evenodd" clip-rule="evenodd" d="M29.4779 45.7699C27.708 45.7699 25.9381 45.1062 24.7212 43.7788C23.5044 42.5619 22.8407 40.9027 22.8407 39.1327C22.8407 37.3628 23.5044 35.7035 24.7212 34.4867C26.0487 33.1593 27.708 32.4956 29.4779 32.4956C33.1283 32.4956 36.0044 35.4823 36.0044 39.1327C36.0044 42.7832 33.1283 45.7699 29.4779 45.7699ZM29.4779 34.0442C26.6018 34.0442 24.3894 36.2566 24.3894 39.1327C24.3894 42.0088 26.6018 44.2212 29.4779 44.2212C32.2434 44.2212 34.4558 41.8982 34.4558 39.1327C34.4558 36.3673 32.2434 34.0442 29.4779 34.0442Z" fill="#F48120"/>
<path fill-rule="evenodd" clip-rule="evenodd" d="M67.8628 60.4823H12.7743C12.3319 60.4823 12 60.1504 12 59.708V19.7743C12 19.3319 12.3319 19 12.7743 19H67.8628C68.3053 19 68.6372 19.3319 68.6372 19.7743V59.708C68.6372 60.1504 68.3053 60.4823 67.8628 60.4823ZM13.5487 58.9336H67.0885V20.5487H13.5487V58.9336Z" fill="#F48120"/>
<path fill-rule="evenodd" clip-rule="evenodd" d="M43.969 64.5752H36.6681C36.2257 64.5752 35.8938 64.2434 35.8938 63.8009V59.708C35.8938 59.2655 36.2257 58.9336 36.6681 58.9336H43.969C44.4115 58.9336 44.7434 59.2655 44.7434 59.708V63.8009C44.7434 64.2434 44.4115 64.5752 43.969 64.5752ZM37.4425 63.0265H43.1947V60.4823H37.4425V63.0265Z" fill="#F48120"/>
<path fill-rule="evenodd" clip-rule="evenodd" d="M51.6018 69H29.0354C28.5929 69 28.2611 68.6681 28.2611 68.2257V63.8009C28.2611 63.3584 28.5929 63.0266 29.0354 63.0266H51.6018C52.0442 63.0266 52.3761 63.3584 52.3761 63.8009V68.2257C52.3761 68.6681 52.0442 69 51.6018 69ZM29.8097 67.4513H50.8274V64.5752H29.8097V67.4513Z" fill="#F48120"/>
<path fill-rule="evenodd" clip-rule="evenodd" d="M64.323 58.0487H16.2035C15.7611 58.0487 15.4292 57.7168 15.4292 57.2743V22.3186C15.4292 21.8761 15.7611 21.5442 16.2035 21.5442H64.323C64.7655 21.5442 65.0973 21.8761 65.0973 22.3186V57.2743C65.0973 57.7168 64.7655 58.0487 64.323 58.0487ZM16.9779 56.5H63.5487V23.0929H16.9779V56.5Z" fill="#F48120"/>
<path fill-rule="evenodd" clip-rule="evenodd" d="M51.3805 53.6239C51.2699 53.6239 51.2699 53.6239 51.1593 53.6239C50.7168 53.5133 50.4956 53.0708 50.6062 52.6283L53.3717 42.2301C53.4823 41.8982 53.9248 41.5664 54.3673 41.677C54.6991 41.7876 55.031 42.2301 54.9204 42.6726L52.1549 53.0708C52.0442 53.4027 51.7124 53.6239 51.3805 53.6239Z" fill="#F48120"/>
<path fill-rule="evenodd" clip-rule="evenodd" d="M60.0088 48.4248C59.7876 48.4248 59.5664 48.3142 59.4557 48.2035L56.2478 44.9956C55.9159 44.6637 55.9159 44.2212 56.2478 43.8894C56.5796 43.5575 57.0221 43.5575 57.354 43.8894L60.5619 47.0973C60.8938 47.4292 60.8938 47.8717 60.5619 48.2035C60.4513 48.3142 60.2301 48.4248 60.0088 48.4248Z" fill="#F48120"/>
<path fill-rule="evenodd" clip-rule="evenodd" d="M56.8009 51.6327C56.5796 51.6327 56.3584 51.5221 56.2478 51.4115C55.9159 51.0797 55.9159 50.6372 56.2478 50.3053L59.4557 47.0973C59.7876 46.7655 60.2301 46.7655 60.5619 47.0973C60.8938 47.4292 60.8938 47.8717 60.5619 48.2035L57.354 51.4115C57.2434 51.5221 57.0221 51.6327 56.8009 51.6327Z" fill="#F48120"/>
<path fill-rule="evenodd" clip-rule="evenodd" d="M45.5177 48.4248C45.2965 48.4248 45.0752 48.3142 44.9646 48.2035C44.6327 47.8717 44.6327 47.4292 44.9646 47.0973L48.1726 43.8894C48.5044 43.5575 48.9469 43.5575 49.2788 43.8894C49.6106 44.2212 49.6106 44.6637 49.2788 44.9956L46.0708 48.2035C45.9602 48.3142 45.7389 48.4248 45.5177 48.4248Z" fill="#F48120"/>
<path fill-rule="evenodd" clip-rule="evenodd" d="M48.7257 51.6327C48.5044 51.6327 48.2832 51.5221 48.1726 51.4115L44.9646 48.2035C44.6327 47.8717 44.6327 47.4292 44.9646 47.0973C45.2965 46.7655 45.7389 46.7655 46.0708 47.0973L49.2788 50.3053C49.6106 50.6372 49.6106 51.0796 49.2788 51.4115C49.1681 51.5221 48.9469 51.6327 48.7257 51.6327Z" fill="#F48120"/>
<path fill-rule="evenodd" clip-rule="evenodd" d="M43.6372 39.7965C43.5265 39.7965 43.5265 39.7965 43.4159 39.7965C42.9734 39.6858 42.7522 39.2434 42.8628 38.8009L45.1858 29.9513C45.2965 29.6195 45.7389 29.2876 46.1814 29.3982C46.5133 29.5088 46.8451 29.9513 46.7345 30.3938L44.4115 39.2434C44.3009 39.5752 43.969 39.7965 43.6372 39.7965Z" fill="#F48120"/>
<path fill-rule="evenodd" clip-rule="evenodd" d="M48.3938 39.7965C48.0619 39.7965 47.7301 39.5752 47.6195 39.2434L45.1858 30.3938C45.0752 29.9513 45.2965 29.5089 45.7389 29.3982C46.1814 29.2876 46.6239 29.6195 46.7345 29.9513L49.1681 38.8009C49.2788 39.2434 49.0575 39.6858 48.615 39.7965C48.5044 39.7965 48.5044 39.7965 48.3938 39.7965Z" fill="#F48120"/>
<path fill-rule="evenodd" clip-rule="evenodd" d="M47.3982 36.3673H44.5221C44.0796 36.3673 43.7478 36.0354 43.7478 35.5929C43.7478 35.1504 44.0796 34.8186 44.5221 34.8186H47.3982C47.8407 34.8186 48.1726 35.1504 48.1726 35.5929C48.1726 36.0354 47.8407 36.3673 47.3982 36.3673Z" fill="#F48120"/>
<path fill-rule="evenodd" clip-rule="evenodd" d="M54.146 34.5973H50.8274C50.385 34.5973 50.0531 34.2655 50.0531 33.823V30.1726C50.0531 29.7301 50.385 29.3982 50.8274 29.3982H54.146C55.5841 29.3982 56.6903 30.5044 56.6903 31.9425C56.6903 33.3805 55.5841 34.5973 54.146 34.5973ZM51.6018 33.0487H54.146C54.6991 33.0487 55.1416 32.4956 55.1416 31.9425C55.1416 31.3894 54.6991 30.9469 54.146 30.9469H51.6018V33.0487Z" fill="#F48120"/>
<path fill-rule="evenodd" clip-rule="evenodd" d="M50.8274 39.7965C50.385 39.7965 50.0531 39.4646 50.0531 39.0221V33.823C50.0531 33.3805 50.385 33.0487 50.8274 33.0487C51.2699 33.0487 51.6018 33.3805 51.6018 33.823V39.0221C51.6018 39.4646 51.2699 39.7965 50.8274 39.7965Z" fill="#F48120"/>
<path fill-rule="evenodd" clip-rule="evenodd" d="M60.1195 39.7965C59.677 39.7965 59.3451 39.4646 59.3451 39.0221V30.1726C59.3451 29.7301 59.677 29.3982 60.1195 29.3982C60.5619 29.3982 60.8938 29.7301 60.8938 30.1726V39.0221C60.8938 39.4646 60.5619 39.7965 60.1195 39.7965Z" fill="#F48120"/>
<path fill-rule="evenodd" clip-rule="evenodd" d="M62 30.9469H58.2389C57.7965 30.9469 57.4646 30.615 57.4646 30.1726C57.4646 29.7301 57.7965 29.3982 58.2389 29.3982H62C62.4425 29.3982 62.7743 29.7301 62.7743 30.1726C62.7743 30.615 62.4425 30.9469 62 30.9469Z" fill="#F48120"/>
<path fill-rule="evenodd" clip-rule="evenodd" d="M62 39.7965H58.2389C57.7965 39.7965 57.4646 39.4646 57.4646 39.0221C57.4646 38.5796 57.7965 38.2478 58.2389 38.2478H62C62.4425 38.2478 62.7743 38.5796 62.7743 39.0221C62.7743 39.4646 62.4425 39.7965 62 39.7965Z" fill="#F48120"/>
</g>
</g>
<defs>
<clipPath id="clip0_1_47">
<rect width="80" height="80" fill="white"/>
</clipPath>
</defs>
</svg>
