<?xml version="1.0" encoding="UTF-8"?><svg id="Layer_1" xmlns="http://www.w3.org/2000/svg" xmlns:xlink="http://www.w3.org/1999/xlink" viewBox="0 0 557.5 557.5"><defs><style>.cls-1{fill:#fff;}.cls-2{fill:url(#linear-gradient);}</style><linearGradient id="linear-gradient" x1="583.5" y1="242.75" x2="26" y2="242.75" gradientTransform="translate(-26 36)" gradientUnits="userSpaceOnUse"><stop offset="0" stop-color="#3c3c3b"/><stop offset="1" stop-color="#191919"/></linearGradient></defs><circle class="cls-2" cx="278.75" cy="278.75" r="278.75"/><path class="cls-1" d="M94.63,142.27c-1.66,1.06-2.72,2.41-3.32,4.53s-.75,39.53-.6,121.47l.3,118.45,2.41,2.41,2.41,2.41h12.83c14.03,0,15.39-.3,17.35-3.92,1.51-3.02,1.51-5.28-.45-8.15-1.81-3.02-5.13-4.07-12.98-4.07h-5.73l.15-109.1-.15-109.25,141.69-.3,141.69-.15v4.98c0,8,2.26,11.02,8.3,11.02,2.57,0,3.62-.45,5.43-2.26l2.26-2.26v-22.03l-2.26-2.41-2.26-2.57-152.4-.3c-149.99,0-152.25,0-154.66,1.51Z"/><path class="cls-1" d="M145.93,181.5c-1.21.15-3.02,1.36-4.22,2.57l-2.26,2.26-.3,113.17c-.15,62.32,0,114.68.3,116.49.45,2.26,1.21,4.07,2.72,5.58l2.11,2.11h297.86l2.26-2.26c1.21-1.21,2.26-2.87,2.26-3.62.45-9.96.3-228.3-.15-230.26-.45-1.51-1.51-3.47-2.72-4.53l-1.96-1.81h-146.97c-80.88,0-147.87.15-148.93.3ZM430.52,221.64v24.44h-137.31c-130.22,0-137.31-.15-137.46-1.36-.3-3.62-.45-46.93-.3-47.23s62.02-.45,137.61-.45h137.31l.15,24.6h0ZM430.52,334.96v72.88H155.89l-.15-2.57c-.15-1.36-.15-34.1-.3-72.88l-.15-70.32h275.23v72.88h0Z"/><path class="cls-1" d="M172.79,209.87c-4.83,1.36-8,6.79-6.79,11.62.3,1.06,1.51,3.02,2.57,4.22,1.81,1.96,2.87,2.41,5.88,2.72,4.53.45,6.79-.75,9.2-4.22,4.98-7.24-2.11-16.75-10.86-14.33Z"/><path class="cls-1" d="M199.35,209.87c-2.72.75-6.04,4.38-6.79,7.39-.75,3.17,1.36,7.85,4.38,9.81,3.77,2.57,9.05,2.11,12.22-1.21,4.38-4.38,3.47-12.37-1.51-14.94-3.17-1.51-5.58-1.81-8.3-1.06Z"/><path class="cls-1" d="M225.91,209.87c-1.36.45-3.32,1.81-4.38,3.02-5.58,6.64-1.21,15.99,7.85,15.99,2.87,0,3.77-.45,6.19-3.02,2.57-2.41,3.02-3.47,3.02-6.04,0-1.81-.6-4.22-1.21-5.43-1.81-3.77-7.24-5.73-11.47-4.53Z"/></svg>