<?xml version="1.0" encoding="UTF-8"?><svg id="Layer_1" xmlns="http://www.w3.org/2000/svg" xmlns:xlink="http://www.w3.org/1999/xlink" viewBox="0 0 148.78 148.78"><defs><style>.cls-1{fill:#fff;}.cls-2{fill:url(#linear-gradient);}</style><linearGradient id="linear-gradient" x1="148.78" y1="77.61" x2="0" y2="77.61" gradientTransform="translate(0 152) scale(1 -1)" gradientUnits="userSpaceOnUse"><stop offset="0" stop-color="#3b3b3b"/><stop offset="1" stop-color="#191919"/></linearGradient></defs><circle class="cls-2" cx="74.39" cy="74.39" r="74.39"/><path class="cls-1" d="M47.88,27.74c-10.7,0-19.46,8.76-19.46,19.46v54.48c0,10.7,8.76,19.46,19.46,19.46h34.71c2.15.03,3.92-1.69,3.95-3.84.03-2.15-1.69-3.92-3.84-3.95-.04,0-.07,0-.11,0h-34.71c-6.49,0-11.67-5.18-11.67-11.67v-54.48c0-6.49,5.18-11.67,11.67-11.67,2.15.03,3.92-1.69,3.95-3.84.03-2.15-1.69-3.92-3.84-3.95-.04,0-.07,0-.11,0ZM60.89,27.74c-2.15-.03-3.92,1.69-3.95,3.84-.03,2.15,1.69,3.92,3.84,3.95.04,0,.07,0,.11,0h41.48c6.49,0,11.67,5.18,11.67,11.67v54.48c0,6.49-5.18,11.67-11.67,11.67h-4.56c-2.15-.03-3.92,1.69-3.95,3.84-.03,2.15,1.69,3.92,3.84,3.95.04,0,.07,0,.11,0h4.56c10.7,0,19.46-8.76,19.46-19.46v-54.48c0-10.7-8.76-19.46-19.46-19.46h-41.48ZM68.34,42.77c-.75-.05-1.52.11-2.22.51-1.87,1.09-2.49,3.45-1.42,5.32l5.93,10.28-13.47,23.35h-11.87c-2.15,0-3.89,1.74-3.89,3.89s1.74,3.89,3.89,3.89h37.31l-4.46-7.78h-12l19.42-33.62c1.06-1.87.44-4.23-1.42-5.32-1.87-1.06-4.26-.44-5.32,1.42l-3.68,6.39-3.68-6.39c-.66-1.17-1.85-1.84-3.1-1.93ZM82.62,64.06l-4.49,7.78,16.4,28.43c.73,1.25,2.02,1.95,3.37,1.95.67,0,1.32-.18,1.95-.52,1.87-1.09,2.49-3.45,1.43-5.32l-3.68-6.38h7.37c2.15,0,3.89-1.74,3.89-3.89s-1.74-3.89-3.89-3.89h-11.86l-10.48-18.16ZM49.67,95.19l-.7,1.2c-1.06,1.87-.44,4.23,1.43,5.32.62.34,1.27.52,1.95.52,1.35,0,2.64-.7,3.37-1.95l2.93-5.09h-8.98Z"/></svg>