<svg width="55" height="55" viewBox="0 0 55 55" fill="none" xmlns="http://www.w3.org/2000/svg">
<circle cx="27.5" cy="27.5" r="27.5" fill="#F4F4F4"/>
<path d="M27.2613 26.6933C25.2457 26.69 23.3484 27.6453 22.1529 29.2669C20.9557 30.8886 20.6023 32.9836 21.2009 34.9078C21.7994 36.8338 23.2773 38.3591 25.183 39.0168H25.2371C26.5442 39.4615 27.9613 39.4615 29.2683 39.0168C29.3072 39.0067 29.3444 38.9932 29.3799 38.9763C31.2772 38.3066 32.7432 36.778 33.3317 34.8537C33.9201 32.9311 33.56 30.8445 32.3628 29.228C31.1656 27.6131 29.2717 26.6612 27.2613 26.6662L27.2613 26.6933ZM27.2613 34.2095C27.0144 34.2095 26.7929 34.0607 26.6982 33.8341C26.6052 33.6058 26.6559 33.3437 26.8301 33.1695C27.0043 32.9953 27.2664 32.9446 27.4947 33.0376C27.7212 33.1323 27.87 33.3538 27.87 33.6007C27.87 33.7613 27.8058 33.9169 27.6925 34.0319C27.5775 34.1452 27.4219 34.2095 27.2613 34.2095ZM29.6202 37.9211V36.0543H30.6753C30.7937 36.0543 30.9086 36.0069 30.9932 35.9224C31.0777 35.8378 31.1251 35.7228 31.1251 35.6028V33.6599C31.8387 33.4367 32.28 32.7265 32.1684 31.9892C32.0551 31.252 31.421 30.7075 30.6753 30.7075C29.9279 30.7075 29.2938 31.252 29.1822 31.9892C29.0689 32.7265 29.512 33.4367 30.2238 33.6599V35.153L29.1687 35.1513C28.9201 35.1513 28.7172 35.3542 28.7172 35.6028V38.2677C28.3891 38.3607 28.0526 38.4199 27.7128 38.4486V35.0346C28.4213 34.8114 28.8626 34.1046 28.7493 33.369C28.6377 32.6352 28.0053 32.0924 27.2613 32.0924C26.5173 32.0924 25.8848 32.6352 25.7732 33.369C25.66 34.1046 26.1013 34.8114 26.8098 35.0346V38.4486C26.4767 38.4216 26.1452 38.3624 25.8223 38.2728V35.6028C25.8223 35.4827 25.7749 35.3677 25.6904 35.2832C25.6059 35.1986 25.4909 35.1513 25.3725 35.1513H24.3207V33.6599C25.0343 33.4367 25.4757 32.7265 25.3641 31.9892C25.2508 31.252 24.6166 30.7075 23.871 30.7075C23.1235 30.7075 22.4895 31.252 22.3779 31.9892C22.2646 32.7264 22.7076 33.4367 23.4195 33.6599V35.6028C23.4195 35.7228 23.4668 35.8378 23.5514 35.9224C23.6359 36.0069 23.7509 36.0543 23.8709 36.0543H24.921V37.9211C22.6467 36.8253 21.4309 34.3024 21.9923 31.8421C22.5537 29.3801 24.7435 27.6333 27.2683 27.6333C29.7931 27.6333 31.9828 29.3801 32.5443 31.8421C33.1057 34.3024 31.8899 36.8254 29.6155 37.9211L29.6202 37.9211ZM30.819 32.7992V32.7975C30.7734 32.7789 30.7243 32.7671 30.6753 32.7671C30.6229 32.7671 30.5738 32.7789 30.5265 32.7975C30.2289 32.7248 30.0344 32.4407 30.0733 32.1364C30.1105 31.8337 30.3692 31.6071 30.6753 31.6071C31.0101 31.6105 31.2806 31.881 31.284 32.2158C31.284 32.4965 31.0929 32.7417 30.819 32.8077L30.819 32.7992ZM24.0197 32.8077C23.9741 32.7874 23.925 32.7772 23.8743 32.7755C23.8236 32.7772 23.7729 32.7874 23.7255 32.8077C23.4009 32.7603 23.1743 32.4627 23.2132 32.1364C23.252 31.8117 23.5446 31.5766 23.8709 31.6071C24.2057 31.6155 24.4729 31.8895 24.4695 32.226C24.4695 32.4982 24.2835 32.7383 24.0197 32.8077ZM42.5475 10H12.7055C11.2107 10 10 11.2107 10 12.7055V37.1902C10 38.6833 11.2107 39.8957 12.7055 39.8957H16.4307C16.3512 40.3725 16.5085 40.8562 16.85 41.1977L18.9282 43.2809C19.5217 43.8491 20.4551 43.8491 21.0469 43.2809L21.9482 42.3797H21.9499C22.1291 42.2004 22.4031 42.1548 22.6297 42.2664C22.9763 42.4355 23.3314 42.586 23.6949 42.7179C23.9317 42.7991 24.0906 43.0223 24.0906 43.2725V44.5035C24.094 45.3304 24.7653 46 25.5922 46H28.5276C29.3562 46 30.0275 45.3304 30.0292 44.5035V43.2776C30.0275 43.024 30.1882 42.7991 30.4266 42.7179C30.8003 42.5877 31.1655 42.4372 31.5223 42.2664C31.7506 42.1548 32.0245 42.2004 32.2038 42.3797L33.0645 43.2455C33.6597 43.8085 34.593 43.8085 35.1883 43.2455L37.2664 41.1622C37.6097 40.8206 37.7636 40.3353 37.6824 39.8585H42.5471C44.0419 39.8585 45.2526 38.6478 45.2526 37.153V12.6683C45.2324 11.1887 44.0271 10 42.5475 10ZM12.7055 10.9013H42.5475C43.0261 10.9013 43.4843 11.0906 43.8225 11.4289C44.1606 11.7671 44.3518 12.227 44.3518 12.7055V15.7272L10.942 15.7256V12.6683C10.9622 11.7028 11.7383 10.9233 12.7055 10.9013ZM36.6443 40.5268L34.5611 42.605C34.326 42.8316 33.954 42.8316 33.719 42.605L32.8532 41.7443C32.4034 41.2945 31.7186 41.1761 31.1437 41.4518C30.8207 41.609 30.4876 41.7477 30.1477 41.8661C29.5457 42.0757 29.1433 42.6405 29.1416 43.278V44.5039C29.1399 44.6645 29.0757 44.8184 28.959 44.93C28.844 45.0416 28.6884 45.1025 28.5278 45.0991H25.5889C25.43 45.1008 25.2778 45.0382 25.1645 44.9266C25.0512 44.815 24.9886 44.6629 24.9886 44.5039V43.2459C24.9869 42.6135 24.5879 42.0504 23.9926 41.839C23.6612 41.7206 23.3383 41.5837 23.022 41.4281C22.8174 41.3283 22.5925 41.2759 22.3643 41.2759C21.9652 41.281 21.5847 41.4416 21.3041 41.7257L20.4028 42.627V42.6287C20.1644 42.8519 19.7924 42.8519 19.5557 42.6287L17.4758 40.5488C17.2424 40.3155 17.2424 39.935 17.4758 39.7017L18.4092 38.7683C18.8556 38.3219 18.9739 37.6438 18.7034 37.0722C18.563 36.7611 18.4413 36.4415 18.3381 36.1169C18.1285 35.5132 17.562 35.1057 16.9212 35.1023H15.5684C15.2505 35.0871 15.0002 34.825 15.0002 34.5071V31.5631C15.0002 31.2317 15.2691 30.9629 15.6005 30.9629H16.9803C17.6127 30.9629 18.1758 30.5655 18.3872 29.9703C18.5005 29.6727 18.6222 29.37 18.7609 29.069C19.0382 28.4958 18.9249 27.8092 18.4768 27.3561L17.4944 26.377C17.261 26.1437 17.261 25.7632 17.4944 25.5299L19.5726 23.4466C19.811 23.2217 20.183 23.2217 20.4214 23.4466L21.414 24.4392L21.4123 24.4375C21.8638 24.8874 22.5469 25.004 23.1218 24.7318C23.4042 24.6016 23.6951 24.4883 23.9927 24.3936C24.5896 24.1805 24.987 23.6157 24.9886 22.9817V21.5663C24.9886 21.2349 25.2575 20.9661 25.5889 20.9661H28.5278C28.8592 20.9678 29.1264 21.2349 29.1281 21.5663V22.9191C29.1315 23.5566 29.5356 24.1248 30.1376 24.3344C30.4453 24.4409 30.7463 24.5627 31.0405 24.6997C31.612 24.9719 32.2918 24.8535 32.7399 24.4071L33.7055 23.4416C33.9405 23.215 34.3125 23.215 34.5475 23.4416L36.6443 25.5434C36.8743 25.7785 36.8743 26.1539 36.6443 26.3906L35.7431 27.2918C35.2916 27.745 35.1766 28.4366 35.459 29.0099C35.6078 29.3193 35.7431 29.6355 35.8598 29.9568C36.0745 30.5503 36.6376 30.9443 37.2666 30.9443H38.5619C38.8849 30.9663 39.1334 31.2385 39.125 31.5632V34.5071C39.1233 34.8369 38.8544 35.1023 38.5247 35.1023H37.2802C36.641 35.104 36.0745 35.5115 35.8699 36.1169C35.7532 36.4517 35.618 36.7797 35.4641 37.0993C35.1783 37.6743 35.2899 38.3676 35.7431 38.8224L36.6444 39.6798C36.8743 39.9148 36.8743 40.2901 36.6443 40.5268ZM42.5475 38.9576H37.1819L36.3923 38.168C36.2147 37.9904 36.1691 37.7182 36.279 37.4916C36.4498 37.1382 36.6003 36.7763 36.7305 36.406C36.8133 36.1642 37.0399 36.0036 37.2936 36.0036H38.5347C39.3616 36.0036 40.0329 35.3339 40.0363 34.5071V31.5631C40.0329 30.7346 39.3616 30.0633 38.5347 30.0616H37.231C36.9808 30.0599 36.7575 29.9026 36.6713 29.6693C36.5394 29.3159 36.3889 28.9692 36.2215 28.631C36.1082 28.4045 36.1522 28.1322 36.3297 27.9513L37.231 27.05V27.0483C37.5134 26.7676 37.6706 26.3855 37.6706 25.9864C37.6706 25.5891 37.5134 25.2069 37.231 24.9245L35.1528 22.8464C34.5576 22.2782 33.6225 22.2782 33.029 22.8464L32.0635 23.8119C31.8859 23.9861 31.6188 24.0334 31.3921 23.9286C31.0675 23.7747 30.7344 23.6394 30.3945 23.5227C30.1561 23.4382 29.9954 23.2133 29.9937 22.9597V21.6069C30.014 20.7766 29.3579 20.0867 28.5277 20.0648H25.5888C24.7602 20.0664 24.089 20.7378 24.0872 21.5663V22.9681C24.0838 23.2184 23.9249 23.4416 23.6899 23.5279C23.3652 23.6445 23.0405 23.7798 22.7209 23.9286C22.4943 24.0385 22.2221 23.9946 22.0446 23.8153L21.052 22.8227V22.8244C20.4584 22.2562 19.5216 22.2562 18.9282 22.8244L16.8449 24.9026C16.2615 25.4894 16.2615 26.4397 16.8449 27.0264L17.8273 28.0004C18.0083 28.1796 18.0539 28.4536 17.9406 28.6818C17.7868 28.9997 17.6498 29.3261 17.5297 29.6592C17.4452 29.8959 17.222 30.0515 16.9717 30.0515H15.5919C14.7633 30.0599 14.0971 30.7346 14.0988 31.5632V34.5071C14.1005 35.334 14.7735 36.0036 15.6004 36.0036H16.9531C17.2068 36.0053 17.4334 36.1676 17.5128 36.4094C17.6346 36.7527 17.7749 37.0994 17.9322 37.4325V37.4341C18.0354 37.6624 17.9897 37.9296 17.8138 38.1105L16.9311 38.9577H12.7055C11.7095 38.9577 10.9012 38.1494 10.9012 37.1534V16.6102H44.3145V37.172C44.3061 38.1477 43.5232 38.9373 42.5475 38.9576ZM36.9962 18.6308C36.9962 18.7492 36.9489 18.8641 36.8643 18.9487C36.7798 19.0332 36.6648 19.0806 36.5464 19.0806H14.0994C13.8508 19.0806 13.6479 18.8794 13.6479 18.6308C13.6479 18.3805 13.8508 18.1793 14.0994 18.1793H36.5464C36.6648 18.1793 36.7798 18.2266 36.8643 18.3112C36.9489 18.3957 36.9962 18.5107 36.9962 18.6308ZM21.3363 21.1013C21.3363 21.2213 21.289 21.3363 21.2044 21.4208C21.1199 21.5054 21.0049 21.5527 20.8848 21.5527H14.099C13.8504 21.5527 13.6475 21.3498 13.6475 21.1012C13.6475 20.8527 13.8504 20.6497 14.099 20.6497H20.8627C20.9862 20.6447 21.1062 20.6886 21.1959 20.7749C21.2855 20.8594 21.3363 20.9778 21.3363 21.1013ZM42.2904 18.6308C42.2904 18.7492 42.243 18.8641 42.1585 18.9487C42.0739 19.0332 41.959 19.0806 41.8389 19.0806H39.5849C39.3363 19.0806 39.1334 18.8794 39.1334 18.6308C39.1334 18.3805 39.3363 18.1793 39.5849 18.1793H41.8389C42.0892 18.1793 42.2904 18.3805 42.2904 18.6308ZM42.2904 21.1013C42.2904 21.2213 42.243 21.3363 42.1585 21.4208C42.0739 21.5054 41.959 21.5527 41.8389 21.5527H39.5849C39.3363 21.5527 39.1334 21.3498 39.1334 21.1012C39.1334 20.8527 39.3363 20.6497 39.5849 20.6497H41.8389C41.959 20.6497 42.0739 20.6971 42.1585 20.7816C42.243 20.8662 42.2904 20.9812 42.2904 21.1013ZM42.2904 23.5768C42.2904 23.6969 42.243 23.8119 42.1585 23.8964C42.0739 23.981 41.959 24.0283 41.8389 24.0283H39.5849C39.3363 24.0283 39.1334 23.8254 39.1334 23.5768C39.1334 23.3282 39.3363 23.1253 39.5849 23.1253H41.8389C42.0892 23.1253 42.2904 23.3282 42.2904 23.5768ZM31.0675 14.8971H32.586C33.1051 14.8971 33.5261 14.4778 33.5295 13.9586V12.4249C33.5261 11.9058 33.1068 11.4847 32.586 11.4831H31.0523H31.0539C30.5348 11.4847 30.1155 11.9075 30.1155 12.4249V13.9586C30.1155 14.2106 30.2169 14.4507 30.3945 14.6266C30.5737 14.8024 30.8155 14.9005 31.0675 14.8971ZM31.032 12.4266L31.0303 12.425C31.0303 12.4047 31.0455 12.3878 31.0675 12.3844H32.586C32.6096 12.3844 32.6265 12.403 32.6265 12.425V13.9587C32.6248 13.9789 32.6079 13.9942 32.586 13.9942H31.0523H31.0539C31.0337 13.9925 31.0201 13.9773 31.0167 13.9587L31.032 12.4266ZM35.4469 14.8971H36.9806H36.9789C37.2275 14.8971 37.4659 14.7973 37.6418 14.6215C37.8176 14.4456 37.9157 14.2072 37.9157 13.9587V12.425C37.9157 11.9075 37.4964 11.4848 36.9789 11.4831H35.4452C34.9261 11.4848 34.505 11.9058 34.5033 12.425V13.9587C34.505 14.4778 34.9261 14.8971 35.4452 14.8971L35.4469 14.8971ZM35.4064 12.4266L35.4047 12.425C35.4047 12.403 35.4233 12.3844 35.4452 12.3844H36.9789C36.9992 12.3878 37.0145 12.4047 37.0145 12.425V13.9587C37.0128 13.9773 36.9975 13.9925 36.9789 13.9942H35.4452C35.425 13.9942 35.4064 13.9789 35.4047 13.9587L35.4064 12.4266ZM39.801 14.8971H41.3347C41.5832 14.8971 41.8217 14.7973 41.9975 14.6215C42.1733 14.4456 42.2714 14.2072 42.2714 13.9587V12.425C42.2714 11.9075 41.8521 11.4848 41.3346 11.4831H39.8009C39.297 11.5068 38.9014 11.921 38.8997 12.425V13.9587C38.9014 14.4626 39.2988 14.8751 39.801 14.8971ZM39.801 12.425C39.801 12.403 39.8196 12.3844 39.8416 12.3844H41.3753C41.3972 12.3844 41.4141 12.4047 41.4108 12.425V13.9587C41.4108 13.979 41.3939 13.9942 41.3753 13.9942H39.801C39.7807 13.9942 39.7621 13.979 39.7604 13.9587L39.801 12.425Z" fill="#F48102"/>
</svg>
