<svg width="149" height="149" viewBox="0 0 149 149" fill="none" xmlns="http://www.w3.org/2000/svg">
<path d="M74.39 148.78C115.474 148.78 148.78 115.474 148.78 74.39C148.78 33.3055 115.474 0 74.39 0C33.3055 0 0 33.3055 0 74.39C0 115.474 33.3055 148.78 74.39 148.78Z" fill="url(#paint0_linear_9_77)"/>
<path d="M88.5698 119H56.6496C50.5631 119 45.6121 114.049 45.6121 107.963V83.1854C45.6121 82.7948 45.9299 82.477 46.3206 82.477H55.4149C57.5139 82.477 59.2222 80.7706 59.2222 78.6716V60.481C59.2222 58.382 57.5139 56.6756 55.4149 56.6756H46.3206C45.9299 56.6756 45.6121 56.3579 45.6121 55.9672V40.0375C45.6121 33.951 50.5631 29 56.6496 29H88.5698C93.1585 29 97.318 31.9005 98.9211 36.218C99.0021 36.4346 98.9717 36.6795 98.8381 36.8697C98.7045 37.06 98.4879 37.1734 98.2572 37.1734H87.0659C85.2826 37.1734 83.718 38.4404 83.3435 40.1852C83.2869 40.4443 83.2585 40.7115 83.2585 40.9787V59.1694C83.2585 61.2684 84.9669 62.9747 87.0659 62.9747H98.8988C99.2895 62.9747 99.6073 63.2925 99.6073 63.6831V83.9121C99.6073 84.3027 99.2895 84.6205 98.8988 84.6205H93.626C91.527 84.6205 89.8187 86.3289 89.8187 88.4279V106.619C89.8187 108.718 91.527 110.424 93.626 110.424H98.3989C98.6256 110.424 98.8381 110.533 98.9717 110.715C99.1053 110.9 99.1417 111.134 99.0729 111.351C97.5852 115.925 93.3649 119 88.5698 119ZM47.029 83.8939V107.963C47.029 113.268 51.3444 117.583 56.6496 117.583H88.5698C92.4176 117.583 95.8404 115.312 97.3706 111.841H93.626C90.7457 111.841 88.4018 109.499 88.4018 106.619V88.4279C88.4018 85.5475 90.7457 83.2036 93.626 83.2036H98.1904V64.3916H87.0659C84.1856 64.3916 81.8417 62.0497 81.8417 59.1694V40.9787C81.8417 40.6083 81.8821 40.2399 81.9591 39.8857C82.4691 37.4952 84.6187 35.7565 87.0659 35.7565H97.1783C95.5611 32.524 92.2213 30.4169 88.5698 30.4169H56.6496C51.3444 30.4169 47.029 34.7323 47.029 40.0375V55.2588H55.4149C58.2952 55.2588 60.6391 57.6007 60.6391 60.481V78.6716C60.6391 81.552 58.2952 83.8939 55.4149 83.8939H47.029Z" fill="white" stroke="white" stroke-width="1.5"/>
<path d="M82.6493 40.7459H46.3206C45.9299 40.7459 45.6121 40.4281 45.6121 40.0375C45.6121 39.6468 45.9299 39.329 46.3206 39.329H82.6513C83.042 39.329 83.3597 39.6468 83.3597 40.0375C83.3597 40.4281 83.042 40.7459 82.6493 40.7459Z" fill="white"/>
<path d="M89.1102 106.248H46.3206C45.9299 106.248 45.6121 105.93 45.6121 105.54C45.6121 105.149 45.9299 104.831 46.3206 104.831H89.1102C89.5009 104.831 89.8187 105.149 89.8187 105.54C89.8187 105.93 89.5009 106.248 89.1102 106.248Z" fill="white"/>
<path d="M80.0382 35.0723H65.1792C64.7886 35.0723 64.4708 34.7545 64.4708 34.3639C64.4708 33.9732 64.7886 33.6555 65.1792 33.6555H80.0382C80.4288 33.6555 80.7466 33.9732 80.7466 34.3639C80.7466 34.7545 80.4288 35.0723 80.0382 35.0723Z" fill="white"/>
<path d="M105.257 64.3915H87.0659C84.1856 64.3915 81.8417 62.0497 81.8417 59.1693V40.9787C81.8417 40.6083 81.8822 40.2399 81.9591 39.8857C82.4692 37.4952 84.6188 35.7565 87.0659 35.7565H105.257C108.137 35.7565 110.479 38.0984 110.479 40.9787V59.1693C110.477 62.0497 108.135 64.3915 105.257 64.3915ZM87.0639 37.1733C85.2806 37.1733 83.716 38.4404 83.3415 40.1852C83.2849 40.4443 83.2565 40.7115 83.2565 40.9787V59.1693C83.2565 61.2683 84.9649 62.9747 87.0639 62.9747H105.255C107.354 62.9747 109.06 61.2683 109.06 59.1693V40.9787C109.06 38.8797 107.354 37.1733 105.255 37.1733H87.0639Z" fill="white"/>
<path d="M55.4129 83.8938H37.2222C34.3419 83.8938 32 81.5519 32 78.6716V60.481C32 57.6007 34.3419 55.2588 37.2222 55.2588H55.4129C58.2932 55.2588 60.6371 57.6007 60.6371 60.481V78.6716C60.6371 81.5519 58.2952 83.8938 55.4129 83.8938ZM37.2242 56.6756C35.1252 56.6756 33.4189 58.382 33.4189 60.481V78.6716C33.4189 80.7706 35.1252 82.477 37.2242 82.477H55.4149C57.5139 82.477 59.2222 80.7706 59.2222 78.6716V60.481C59.2222 58.382 57.5139 56.6756 55.4149 56.6756H37.2242Z" fill="white"/>
<path d="M111.813 111.841H93.624C90.7437 111.841 88.3998 109.499 88.3998 106.619V88.4278C88.3998 85.5475 90.7437 83.2036 93.624 83.2036H111.813C114.693 83.2036 117.037 85.5475 117.037 88.4278V106.619C117.039 109.499 114.695 111.841 111.813 111.841ZM93.626 84.6205C91.527 84.6205 89.8187 86.3288 89.8187 88.4278V106.619C89.8187 108.718 91.527 110.424 93.626 110.424H111.815C113.914 110.424 115.622 108.718 115.622 106.619V88.4278C115.622 86.3288 113.914 84.6205 111.815 84.6205H93.626Z" fill="white"/>
<path d="M96.1602 59.5964C95.893 59.5964 95.6501 59.4467 95.5287 59.2078L90.3409 48.982C89.003 46.3446 89.6912 43.1465 91.9784 41.3795C93.1848 40.4463 94.632 39.9525 96.1602 39.9525C97.6884 39.9525 99.1357 40.4463 100.342 41.3795C102.629 43.1485 103.317 46.3446 101.98 48.982L96.7917 59.2078C96.6703 59.4446 96.4254 59.5964 96.1602 59.5964ZM96.1602 41.3714C94.9478 41.3714 93.8021 41.762 92.8447 42.5008C91.0939 43.8529 90.5737 46.3102 91.6039 48.3424L96.1602 57.3213L100.716 48.3424C101.747 46.3102 101.225 43.8549 99.4757 42.5008C98.5183 41.762 97.3727 41.3714 96.1602 41.3714Z" fill="white"/>
<path d="M96.1602 49.3524C94.5956 49.3524 93.3204 48.0792 93.3204 46.5126C93.3204 44.9479 94.5935 43.6728 96.1602 43.6728C97.7248 43.6728 99 44.9459 99 46.5126C98.998 48.0792 97.7248 49.3524 96.1602 49.3524ZM96.1602 45.0917C95.3769 45.0917 94.7373 45.7293 94.7373 46.5146C94.7373 47.2979 95.3748 47.9376 96.1602 47.9376C96.9435 47.9376 97.5831 47.3 97.5831 46.5146C97.5811 45.7293 96.9435 45.0917 96.1602 45.0917Z" fill="white"/>
<path d="M53.0366 76.5059H39.6025C38.4245 76.5059 37.4671 75.5484 37.4671 74.3704V65.0089C37.4671 63.8309 38.4245 62.8735 39.6025 62.8735H53.0366C54.2146 62.8735 55.172 63.8309 55.172 65.0089V74.3704C55.172 75.5484 54.2126 76.5059 53.0366 76.5059ZM39.6025 64.2904C39.2058 64.2904 38.884 64.6122 38.884 65.0089V74.3704C38.884 74.7671 39.2058 75.089 39.6025 75.089H53.0366C53.4333 75.089 53.7551 74.7671 53.7551 74.3704V65.0089C53.7551 64.6122 53.4333 64.2904 53.0366 64.2904H39.6025Z" fill="white"/>
<path d="M46.3186 71.3626C46.2235 71.3626 46.1283 71.3444 46.0393 71.3059L37.8942 67.8062C37.534 67.6524 37.368 67.2354 37.5238 66.8751C37.6777 66.5148 38.0946 66.3489 38.4549 66.5047L46.3186 69.885L54.1823 66.5047C54.5425 66.3509 54.9575 66.5169 55.1133 66.8751C55.2672 67.2354 55.1012 67.6504 54.7429 67.8062L46.5979 71.3059C46.5089 71.3444 46.4137 71.3626 46.3186 71.3626Z" fill="white"/>
<path d="M109.434 105.728H96.0023C94.8243 105.728 93.8649 104.771 93.8649 103.592V94.231C93.8649 93.0529 94.8243 92.0935 96.0023 92.0935H98.0811C98.3888 90.6847 99.6457 89.6281 101.146 89.6281H104.289C105.789 89.6281 107.046 90.6847 107.354 92.0935H109.434C110.612 92.0935 111.57 93.0529 111.57 94.231V103.592C111.572 104.771 110.612 105.728 109.434 105.728ZM96.0043 93.5104C95.6076 93.5104 95.2838 93.8342 95.2838 94.231V103.592C95.2838 103.981 95.6137 104.311 96.0043 104.311H109.436C109.833 104.311 110.155 103.989 110.155 103.592V94.231C110.155 93.8342 109.833 93.5104 109.436 93.5104H106.72C106.329 93.5104 106.012 93.1926 106.012 92.8019V92.7655C106.012 91.8162 105.24 91.045 104.291 91.045H101.148C100.198 91.045 99.4271 91.8162 99.4271 92.7655V92.8019C99.4271 93.1926 99.1093 93.5104 98.7187 93.5104H96.0043Z" fill="white"/>
<path d="M102.718 101.997C100.988 101.997 99.581 100.591 99.581 98.8601C99.581 97.1295 100.988 95.7227 102.718 95.7227C104.449 95.7227 105.856 97.1295 105.856 98.8601C105.856 100.591 104.449 101.997 102.718 101.997ZM102.718 97.1396C101.769 97.1396 100.998 97.9108 100.998 98.8601C100.998 99.8094 101.769 100.581 102.718 100.581C103.668 100.581 104.439 99.8094 104.439 98.8601C104.439 97.9108 103.668 97.1396 102.718 97.1396Z" fill="white"/>
<defs>
<linearGradient id="paint0_linear_9_77" x1="148.78" y1="74.39" x2="0" y2="74.39" gradientUnits="userSpaceOnUse">
<stop stop-color="#3B3B3B"/>
<stop offset="1" stop-color="#191919"/>
</linearGradient>
</defs>
</svg>
