<svg width="256" height="256" viewBox="0 0 256 256" fill="none" xmlns="http://www.w3.org/2000/svg">
<path d="M145.72 94.4503C156.031 94.4503 164.4 102.81 164.4 113.129C164.408 118.084 162.44 122.839 158.931 126.34C155.43 129.84 150.676 131.817 145.72 131.817C140.765 131.817 136.011 129.84 132.51 126.34C125.221 119.042 125.221 107.217 132.51 99.9181C136.011 96.4174 140.765 94.4503 145.72 94.4503ZM155.143 103.716C152.643 101.216 149.256 99.8058 145.72 99.8058C142.185 99.8058 138.789 101.216 136.29 103.716C131.099 108.923 131.099 117.353 136.29 122.551C138.789 125.059 142.185 126.461 145.72 126.461C149.256 126.461 152.643 125.059 155.143 122.551C157.651 120.061 159.053 116.665 159.053 113.138C159.053 109.602 157.651 106.215 155.143 103.716ZM156.492 83.086H156.484C160.089 84.3923 163.433 86.3428 166.359 88.8247L172.246 85.4373C173.517 84.7145 175.137 85.1586 175.877 86.4213L183.949 100.415C184.681 101.695 184.237 103.324 182.965 104.064L177.105 107.451V107.443C177.793 111.231 177.793 115.106 177.105 118.885L182.957 122.264C184.228 123.004 184.672 124.633 183.941 125.913L175.868 139.907V139.898C175.128 141.169 173.5 141.605 172.219 140.873L166.342 137.486H166.35C163.424 139.968 160.081 141.901 156.467 143.198V149.956C156.467 151.427 155.265 152.629 153.793 152.629H137.64C136.159 152.629 134.966 151.427 134.966 149.956V143.181C131.344 141.892 127.991 139.95 125.065 137.451L119.196 140.856C117.916 141.578 116.296 141.143 115.556 139.872L107.483 125.895V125.886C106.769 124.606 107.222 122.995 108.493 122.264L114.354 118.876L114.363 118.885C113.666 115.097 113.666 111.222 114.363 107.442L108.493 104.038C107.222 103.306 106.778 101.678 107.509 100.398L115.582 86.421C116.322 85.1497 117.95 84.7055 119.222 85.437L125.1 88.8244C128.026 86.3339 131.378 84.3919 135.001 83.0945V76.3457C135.001 74.8653 136.194 73.6637 137.674 73.6637H153.828C155.308 73.6637 156.501 74.8654 156.501 76.3457L156.492 83.086ZM159.009 90.1222L159 90.1309C157.172 89.0685 155.23 88.2325 153.201 87.6316C151.999 87.3529 151.146 86.2731 151.146 85.0278V79.0192H140.348V85.0626C140.348 86.2556 139.555 87.3092 138.397 87.6314C134.234 88.8331 130.42 91.0362 127.311 94.0493C126.449 94.8679 125.16 95.0246 124.133 94.4325L118.873 91.3846L113.465 100.746L118.559 103.689V103.698C119.683 104.246 120.266 105.509 119.97 106.728C118.934 110.943 118.934 115.341 119.97 119.556C120.249 120.714 119.735 121.907 118.707 122.499L113.474 125.529L118.882 134.891L124.002 131.947C125.038 131.259 126.423 131.381 127.32 132.252C130.246 135.073 134.356 137.599 138.318 138.635H138.31C139.511 138.931 140.356 140.002 140.356 141.239V147.282H151.154V141.248C151.154 140.046 151.947 138.992 153.096 138.67C157.233 137.477 161.021 135.291 164.129 132.313C164.983 131.442 166.315 131.259 167.377 131.869L172.628 134.9L178.037 125.538L172.942 122.595C171.819 122.029 171.235 120.775 171.54 119.556C172.568 115.341 172.568 110.943 171.54 106.729C171.253 105.57 171.766 104.377 172.794 103.777L178.028 100.755L172.62 91.3935L167.517 94.3542V94.3629C166.472 95.0509 165.096 94.9203 164.19 94.0581C162.64 92.5516 160.898 91.2454 159.026 90.1656L159.009 90.1222ZM122.322 40.1636C129.28 40.1636 132.798 48.6367 127.869 53.5394C122.94 58.4421 114.493 54.9588 114.493 47.9923C114.493 43.6643 117.994 40.1636 122.322 40.1636ZM124.081 46.242H124.072C123.358 45.5367 122.296 45.3277 121.364 45.7108C120.441 46.094 119.831 46.9909 119.823 48.001C119.823 49.0024 120.423 49.9168 121.355 50.3088C122.287 50.7007 123.358 50.4916 124.072 49.7863C125.048 48.8109 125.048 47.2348 124.072 46.2595L124.081 46.242ZM102.145 40.1636C109.112 40.1636 112.621 48.6367 107.692 53.5394C102.763 58.4421 94.3163 54.9588 94.3163 47.9923C94.325 43.6643 97.8257 40.1549 102.154 40.1549L102.145 40.1636ZM103.904 46.242C103.19 45.5367 102.119 45.319 101.196 45.7021C100.264 46.094 99.6545 46.9909 99.6545 48.001C99.6545 49.0024 100.255 49.9081 101.187 50.2998C102.11 50.6917 103.181 50.4827 103.904 49.786C104.366 49.3158 104.636 48.6801 104.636 48.0183C104.636 47.3564 104.366 46.7208 103.904 46.2592L103.904 46.242ZM60.4595 63.3797L60.4507 42.7153C60.4595 35.148 66.5988 29.0087 74.1661 29H217.285C224.852 29.0174 230.991 35.148 231 42.7153V149.817C230.991 157.385 224.852 163.515 217.285 163.524H214.855V194.429H214.864C214.864 195.909 213.662 197.102 212.182 197.102H133.233V214.266H154.49C158.47 214.275 161.701 217.496 161.71 221.485V226.031C161.71 227.511 160.508 228.704 159.027 228.704H80.8548C79.3745 228.704 78.1814 227.511 78.1814 226.031V221.485C78.1901 217.505 81.421 214.275 85.4008 214.266H106.675L106.666 197.111H27.6731C26.2014 197.111 25 195.909 25 194.429V75.8926C25 74.4209 26.2015 73.2192 27.6731 73.2192H60.4418L60.4595 63.3797ZM65.8063 60.7064H225.662L225.654 42.7153C225.645 38.1 221.9 34.3641 217.285 34.3467H74.1667C69.5514 34.3642 65.8155 38.1 65.7981 42.7153L65.8063 60.7064ZM225.662 66.0531H65.7883V149.817C65.8057 154.432 69.5503 158.168 74.1656 158.177H217.284C221.899 158.168 225.644 154.432 225.653 149.817L225.662 66.0531ZM81.9687 40.1643C88.9352 40.1643 92.4445 48.6374 87.5158 53.5401C82.587 58.4427 74.14 54.9595 74.14 47.9929C74.1487 43.6737 77.6494 40.173 81.9687 40.1643ZM83.7538 46.2427C83.0398 45.5373 81.9688 45.3196 81.0369 45.7028C80.105 46.0859 79.4953 46.9916 79.4953 48.0016C79.4953 49.0117 80.0961 49.9175 81.0279 50.3094C81.9597 50.7014 83.031 50.4923 83.7538 49.7869C84.7118 48.8029 84.7118 47.2355 83.7538 46.2602V46.2427ZM157.992 39.337H214.665C216.136 39.337 217.338 40.5387 217.338 42.0104V54.0015C217.338 55.4819 216.136 56.6749 214.665 56.6749H157.992C156.511 56.6749 155.31 55.4819 155.31 54.0015V42.0104C155.31 40.5387 156.511 39.337 157.992 39.337ZM211.983 44.6838H160.665V51.3369H211.983V44.6838ZM209.527 163.532H204.685V184.571C204.685 186.051 203.492 187.244 202.012 187.244H37.8712C36.3995 187.244 35.1978 186.051 35.1978 184.571V85.7864C35.1978 84.306 36.3996 83.113 37.8712 83.113H60.4429L60.4516 78.576H30.3648L30.3561 191.748H209.509L209.527 163.532ZM199.33 163.532L74.1661 163.541C66.5988 163.532 60.4594 157.401 60.4507 149.825V88.4596H40.5525L40.5613 181.88H199.311L199.33 163.532ZM111.986 214.266H127.87L127.878 197.111H111.995L111.986 214.266ZM154.49 219.613H85.3817V219.622C84.3542 219.622 83.5269 220.449 83.5269 221.477V223.349H156.38C156.38 222.06 156.58 220.919 155.823 220.162H155.814C155.466 219.813 154.996 219.622 154.508 219.622L154.49 219.613Z" fill="black"/>
</svg>
