<svg xmlns="http://www.w3.org/2000/svg" xmlns:xlink="http://www.w3.org/1999/xlink" width="40" height="40" viewBox="0 0 40 40">
  <defs>
    <clipPath id="clip-path">
      <rect id="Rectangle_3618" data-name="Rectangle 3618" width="40" height="40" transform="translate(379 3253)" fill="none" stroke="#707070" stroke-width="1"/>
    </clipPath>
  </defs>
  <g id="Mask_Group_8050" data-name="Mask Group 8050" transform="translate(-379 -3253)" clip-path="url(#clip-path)">
    <g id="cpu-svgrepo-com" transform="translate(380.355 3253.355)">
      <path id="Path_9972" data-name="Path 9972" d="M9.317,10.317c.088-.088.246-.2.75-.265a20.414,20.414,0,0,1,2.394-.075h3.1a20.411,20.411,0,0,1,2.394.075c.5.068.662.177.75.265s.2.246.265.75a20.4,20.4,0,0,1,.075,2.394v3.1a20.4,20.4,0,0,1-.075,2.394c-.068.5-.177.662-.265.75s-.246.2-.75.265a20.4,20.4,0,0,1-2.394.075h-3.1a20.4,20.4,0,0,1-2.394-.075c-.5-.068-.662-.177-.75-.265s-.2-.246-.265-.75a20.406,20.406,0,0,1-.075-2.394v-3.1a20.406,20.406,0,0,1,.075-2.394C9.119,10.563,9.228,10.405,9.317,10.317Z" transform="translate(4.636 4.636)"/>
      <path id="Path_9973" data-name="Path 9973" d="M18.645,3a1.161,1.161,0,0,1,1.161,1.161V8.807c.85,0,1.621.008,2.323.027V4.161a1.161,1.161,0,0,1,2.323,0V8.806a1.17,1.17,0,0,1-.014.179A5.519,5.519,0,0,1,27.9,10.393,5.52,5.52,0,0,1,29.3,13.852a1.168,1.168,0,0,1,.179-.014h4.645a1.161,1.161,0,1,1,0,2.323H29.455c.019.7.026,1.473.028,2.323h4.645a1.161,1.161,0,1,1,0,2.323H29.482c0,.85-.008,1.621-.027,2.323h4.673a1.161,1.161,0,1,1,0,2.323H29.483a1.17,1.17,0,0,1-.179-.014A5.519,5.519,0,0,1,27.9,28.9,5.519,5.519,0,0,1,24.437,30.3a1.17,1.17,0,0,1,.014.179v4.645a1.161,1.161,0,1,1-2.323,0V30.455c-.7.019-1.473.026-2.323.028v4.645a1.161,1.161,0,1,1-2.323,0V30.482c-.85,0-1.621-.008-2.323-.027v4.673a1.161,1.161,0,1,1-2.322,0V30.483a1.168,1.168,0,0,1,.014-.179A5.52,5.52,0,0,1,9.393,28.9a5.519,5.519,0,0,1-1.409-3.458,1.171,1.171,0,0,1-.179.014H3.161a1.161,1.161,0,0,1,0-2.323H7.834c-.019-.7-.026-1.473-.028-2.323H3.161a1.161,1.161,0,0,1,0-2.323H7.807c0-.85.008-1.621.027-2.323H3.161a1.161,1.161,0,0,1,0-2.323H7.806a1.168,1.168,0,0,1,.179.014,5.519,5.519,0,0,1,1.409-3.459,5.519,5.519,0,0,1,3.459-1.409,1.168,1.168,0,0,1-.014-.179V4.161a1.161,1.161,0,0,1,2.322,0V8.834c.7-.019,1.473-.026,2.323-.028V4.161A1.161,1.161,0,0,1,18.645,3ZM17.02,12.29a21.35,21.35,0,0,0-2.627.1,3.45,3.45,0,0,0-2.083.925,3.45,3.45,0,0,0-.925,2.083,21.351,21.351,0,0,0-.1,2.627v3.25a21.351,21.351,0,0,0,.1,2.627,3.45,3.45,0,0,0,.925,2.083,3.45,3.45,0,0,0,2.083.925,21.357,21.357,0,0,0,2.627.1h3.25a21.359,21.359,0,0,0,2.627-.1A3.172,3.172,0,0,0,25.9,23.9a21.359,21.359,0,0,0,.1-2.627V18.02a21.359,21.359,0,0,0-.1-2.627A3.172,3.172,0,0,0,22.9,12.385a21.35,21.35,0,0,0-2.627-.1Z" transform="translate(0 0)" fill-rule="evenodd"/>
    </g>
  </g>
</svg>
