<svg xmlns="http://www.w3.org/2000/svg" xmlns:xlink="http://www.w3.org/1999/xlink" width="40" height="40" viewBox="0 0 40 40">
  <defs>
    <clipPath id="clip-path">
      <rect id="Rectangle_3617" data-name="Rectangle 3617" width="40" height="40" transform="translate(379 3253)" fill="none" stroke="#707070" stroke-width="1"/>
    </clipPath>
  </defs>
  <g id="Mask_Group_8049" data-name="Mask Group 8049" transform="translate(-379 -3253)" clip-path="url(#clip-path)">
    <path id="flow-cascade-svgrepo-com" d="M8.093,6.639A1.546,1.546,0,1,1,9.639,8.186,1.546,1.546,0,0,1,8.093,6.639Zm3.093,4.375a4.639,4.639,0,1,0-3.093,0V23.651a6.186,6.186,0,0,0,6.186,6.186h4.9a4.639,4.639,0,1,0,0-3.093h-4.9a3.093,3.093,0,0,1-3.093-3.093V18.184a6.158,6.158,0,0,0,3.093.828h4.9a4.639,4.639,0,1,0,0-3.093h-4.9a3.093,3.093,0,0,1-3.093-3.093Zm10.825,6.45a1.546,1.546,0,1,0,1.546-1.546A1.546,1.546,0,0,0,22.011,17.465Zm0,10.825a1.546,1.546,0,1,0,1.546-1.546A1.546,1.546,0,0,0,22.011,28.29Z" transform="translate(382.401 3255.535)" fill-rule="evenodd"/>
  </g>
</svg>
