<svg xmlns="http://www.w3.org/2000/svg" xmlns:xlink="http://www.w3.org/1999/xlink" width="40" height="40" viewBox="0 0 40 40">
  <defs>
    <clipPath id="clip-path">
      <rect id="Rectangle_3612" data-name="Rectangle 3612" width="40" height="40" transform="translate(379 3253)" fill="none" stroke="#707070" stroke-width="1"/>
    </clipPath>
  </defs>
  <g id="Mask_Group_8044" data-name="Mask Group 8044" transform="translate(-379 -3253)" clip-path="url(#clip-path)">
    <path id="plug-circle-svgrepo-com_1_" data-name="plug-circle-svgrepo-com (1)" d="M18.535,2A16.559,16.559,0,0,0,17.3,35.07V25.048a5.8,5.8,0,0,1-4.547-5.662v-.828A1.655,1.655,0,0,1,14.4,16.9h.413V13.591a1.24,1.24,0,1,1,2.48,0V16.9h2.48V13.591a1.24,1.24,0,1,1,2.48,0V16.9h.413a1.655,1.655,0,0,1,1.654,1.656v.828a5.8,5.8,0,0,1-4.547,5.662V35.07A16.559,16.559,0,0,0,18.535,2Z" transform="translate(380.465 3254.465)"/>
  </g>
</svg>
