<?xml version="1.0" encoding="UTF-8"?><svg id="Layer_1" xmlns="http://www.w3.org/2000/svg" viewBox="0 0 60 60"><defs><style>.cls-1{fill:#fee6d7;}.cls-1,.cls-2,.cls-3,.cls-4,.cls-5,.cls-6{stroke-width:0px;}.cls-2{fill:#df7226;}.cls-3{fill:#010101;}.cls-4{fill:#fff2e9;}.cls-5{fill:#fee7d7;}.cls-6{fill:#fff;}</style></defs><circle class="cls-4" cx="30" cy="30" r="30"/><path class="cls-2" d="M40.91,26.99c-8.46,1.13-16.39,2.55-23.38,3.78l15.73-8.95c.46-.26,1.05-.23,1.39.13.74.79,1.84,1.21,3.11,1.02.47-.07.92.11,1.14.5l2.01,3.52ZM12.68,38.16l.93,5.83c.08.53.54.95,1.11.98,1.5.08,2.68,1.03,3.13,2.14.2.51.78.8,1.36.71l22.8-3.63c.55-.09.95-.52,1.05-1.03.23-1.24,1.07-2.27,2.06-2.82.47-.27.76-.74.68-1.25l-.99-6.21c-.08-.49-.48-.86-.99-.96-1.37-.29-2.34-1.12-2.82-2.27-.21-.51-.81-.77-1.39-.68l-22.83,3.64c-.58.09-1.04.54-1.07,1.09-.07,1.25-.86,2.56-2.2,3.16-.55.24-.9.75-.81,1.3Z"/><path class="cls-3" d="M50.39,15.84h-1.21c-.07-.84-.46-1.64-1.1-2.26l.72-.71c.43-.43.43-1.14,0-1.57l-1.44-1.44c-.43-.43-1.14-.43-1.53-.04-.3.23-.56.51-.81.79-.69-.7-1.69-1.07-2.68-1.01,0-.19,0-.29,0-1.09,0-.62-.5-1.12-1.12-1.12h-2.09c-.61,0-1.11.5-1.11,1.12v1.15c-.81-.09-1.87.27-2.61,1.07h0c-.52-.52-.76-.76-1.01-1.01-.43-.43-1.14-.43-1.57,0l-1.47,1.47c-.43.43-.43,1.13-.01,1.56l.88.91c-.69.81-1.13,1.86-1.22,2.95h-1.09c-.61,0-1.11.5-1.11,1.11v1.96c0,.61.5,1.11,1.11,1.11h.91c-4.7,2.59-9.17,5.21-13.19,7.58-2.42-2.7-2.38-6.61-.24-9.24.39-.48.83-.89,1.29-1.19-.06.85.03,2.06.76,3.09.71,1,1.96,1.51,3.04,1.25,1.16-.29,2.04-1.5,2.01-2.75-.05-1.97-2.04-3.64-4.57-3.1,1.28-3.71,5.37-5.19,8.61-3.61.23.11.5.02.61-.21.11-.23.02-.5-.21-.61-3.96-1.93-8.95.16-10.07,4.8-.8.38-1.55.98-2.18,1.77-2.39,2.94-2.45,7.26.15,10.29-.79.47-2.75,1.62-3.85,2.27-.41.07-.84.15-1.25.22-1.79.3-3.1,2.02-2.93,3.83.6,5.95,1.27,9.56,2.04,12.72.37,1.55,1.96,2.73,3.58,2.59,5.62-.47,13.16-1.53,21.23-2.96.25-.04.41-.28.37-.53-.04-.25-.28-.41-.53-.37-8.04,1.43-15.55,2.47-21.15,2.95-1.14.11-2.33-.76-2.61-1.89-.91-3.74-1.5-7.39-2.02-12.59-.13-1.34.84-2.62,2.17-2.84,7.71-1.31,18.17-3.31,29.05-4.77,2.12-.26,2.5-.37,3.05-.26,1.26.21,2.32,1.22,2.56,2.45.88,4.54,1.53,7.75,1.93,12.3.09,1.08-.71,2.19-1.75,2.42-1.66.37-3.59.77-5.74,1.2-.25.05-.41.29-.36.54.05.25.29.41.54.36,2.18-.44,4.06-.83,5.75-1.21,1.49-.33,2.6-1.85,2.47-3.39-.38-4.28-.97-7.36-1.73-11.25-.19-.65-.11-2.05-1.4-3.27.49.38,1.08.3,1.46-.08l1.68-1.68c.43-.43.43-1.14,0-1.57l-1.02-1.02c.55-.69.87-1.51.91-2.34h1.07c.62,0,1.12-.5,1.12-1.12v-2.59c0-.61-.5-1.11-1.12-1.11ZM19.7,17.42c2.05-.71,3.87.52,3.91,2.11.02.83-.57,1.65-1.31,1.84-.71.17-1.58-.21-2.08-.89-.61-.85-.7-2.01-.53-3.05ZM15.58,30.64c4.38-2.58,14.22-8.42,20.15-11.46,1.29-.67,2.9-.14,3.6,1.01,1.5,2.44,2.47,4,3.62,6.07-2.29.35-3.95.25-27.37,4.38ZM40.7,15.04c1.4.14,2.53,1.15,2.87,2.55.33,1.32-.15,3.2-1.38,3.89-.25.14-.53.24-.8.31-.35-.58-.71-1.16-1.28-2.09-.7-1.13-2.04-1.82-3.41-1.73.28-1.92,2.14-3.13,4-2.94ZM45.12,26.57c.07-.06.14-.11.2-.17l.76.76c-.29-.24-.61-.44-.96-.59ZM50.59,19.54c0,.11-.09.2-.2.2h-1.54c-.27,0-.48.23-.46.5.08.88-.26,1.78-.94,2.45-.18.18-.18.47,0,.65l1.33,1.33c.08.08.08.2,0,.28l-1.68,1.68c-.1.1-.18.1-.27,0-1.18-1.13-1.21-1.35-1.54-1.35-.44,0-.37.47-1.28.98,0,0-.02,0-.03,0-.54-.99-1.26-2.24-2.1-3.63.22-.08.53-.21.75-.33,0,0,0,0,0,0,1.67-.94,2.23-3.24,1.82-4.91-.44-1.79-1.88-3.06-3.67-3.25-2.46-.25-4.87,1.5-5.05,4.05-.34.12-.62.26-3.68,1.93-.08-.15-.23-.25-.41-.25h-1.71c-.11,0-.19-.08-.19-.19v-1.96c0-.11.08-.19.19-.19,1.4-.04,1.62.1,1.85-.14.09-.09.13-.2.13-.33,0-1.14.48-2.32,1.27-3.07.09-.08.14-.2.14-.32,0-.33-.21-.35-1.31-1.55-.08-.08-.07-.2,0-.28l1.47-1.47c.08-.07.2-.07.27,0,.09.09.97.98,1.06,1.07.09.11.2.24.36.31.49.2.72-.13.79-.24l.05-.07c.53-.62,1.27-.9,1.91-.86.27.02.56.1.8-.11.27-.24.21-.5.21-1.95,0-.11.09-.2.19-.2h2.09c.11,0,.2.09.2.2,0,.7-.01,1.2,0,1.65.01.29.3.49.57.42.96-.23,2.06.18,2.61.98.17.24.51.26.7.06.36-.36.68-.77,1.11-1.11.08-.08.2-.08.27,0,1.41,1.45,1.5,1.41,1.5,1.58s-.11.15-1.13,1.2c-.2.2-.18.52.05.69.77.57,1.19,1.43,1.13,2.3-.02.26.19.49.46.49h1.66c.11,0,.2.09.2.19v2.59Z"/><path class="cls-6" d="M31.38,40.85c.25-.36.36-.74.33-1.1-.05-.71-.63-1.2-1.14-1.42-.38-.16-.76-.22-1.14-.28-.11-.02-.22-.04-.34-.06-.49-.09-.81-.23-1-.44-.2-.22-.28-.57-.2-.88.08-.31.31-.61.61-.79.57-.34,1.39-.24,1.86.24.18.18.47.18.65,0,.18-.18.18-.47,0-.65-.44-.45-1.06-.68-1.68-.7l-.13-.85c-.04-.25-.27-.42-.52-.38-.25.04-.42.27-.38.52l.13.84c-.14.05-.27.11-.4.18-.52.31-.9.8-1.03,1.35-.15.61,0,1.27.41,1.71.44.49,1.07.65,1.51.73.12.02.24.04.36.06.33.05.65.1.92.22.28.12.56.36.59.64.01.15-.05.33-.18.51-.28.41-.79.68-1.29.69-.49,0-1.01-.24-1.31-.65-.15-.2-.44-.25-.64-.1-.2.15-.25.44-.1.64.47.63,1.24,1.02,2.02,1.02h.04s.06-.01.09-.01l.15.93c.04.23.23.39.45.39.02,0,.05,0,.07,0,.25-.04.42-.27.38-.52l-.16-1.01c.41-.19.78-.47,1.04-.85Z"/><circle class="cls-1" cx="19.02" cy="40.05" r="1.61"/><circle class="cls-5" cx="40.17" cy="36.62" r="1.61"/></svg>