<?xml version="1.0" encoding="UTF-8"?><svg id="Layer_1" xmlns="http://www.w3.org/2000/svg" xmlns:xlink="http://www.w3.org/1999/xlink" viewBox="0 0 60 60"><defs><style>.cls-1{fill:url(#linear-gradient);}.cls-1,.cls-2{stroke-width:0px;}.cls-2,.cls-3{fill:#fff;}.cls-3{stroke:#fff;stroke-miterlimit:10;}</style><linearGradient id="linear-gradient" x1="60" y1="30" x2="0" y2="30" gradientUnits="userSpaceOnUse"><stop offset="0" stop-color="#3b3b3b"/><stop offset="1" stop-color="#191919"/></linearGradient></defs><circle class="cls-1" cx="30" cy="30" r="30"/><path class="cls-3" d="M48.34,17.68h-1.14c-.07-.79-.43-1.55-1.03-2.13l.68-.67c.41-.41.41-1.07,0-1.48l-1.36-1.36c-.41-.41-1.07-.41-1.44-.03-.28.22-.53.48-.77.74-.65-.66-1.59-1.01-2.52-.95,0-.18,0-.27,0-1.03,0-.58-.47-1.05-1.05-1.05h-1.97c-.58,0-1.04.47-1.04,1.05v1.09c-.76-.08-1.76.25-2.46,1.01h0c-.49-.49-.72-.71-.95-.95-.41-.41-1.07-.41-1.48,0l-1.38,1.38c-.4.4-.41,1.06-.01,1.48l.83.85c-.65.76-1.06,1.75-1.15,2.78h-1.03c-.58,0-1.04.47-1.04,1.05v1.85c0,.58.47,1.05,1.04,1.05h.86c-4.43,2.44-8.65,4.91-12.44,7.15-2.29-2.55-2.24-6.24-.23-8.71.37-.46.78-.84,1.22-1.13-.05.8.03,1.95.72,2.91.67.94,1.85,1.42,2.87,1.18,1.09-.27,1.92-1.41,1.89-2.59-.05-1.85-1.93-3.43-4.31-2.92,1.2-3.5,5.07-4.9,8.12-3.4.22.1.47.02.58-.2.1-.21.02-.47-.2-.58-3.74-1.82-8.44.15-9.49,4.52-.75.36-1.46.93-2.06,1.67-2.25,2.77-2.31,6.84.14,9.71-.74.44-2.59,1.53-3.63,2.14-.39.07-.79.14-1.17.2-1.68.28-2.92,1.91-2.76,3.62.56,5.61,1.2,9.02,1.92,11.99.35,1.46,1.85,2.57,3.37,2.44,5.3-.45,12.41-1.44,20.02-2.79.23-.04.39-.27.35-.5-.04-.23-.27-.39-.5-.35-7.58,1.35-14.67,2.33-19.94,2.78-1.08.1-2.2-.72-2.46-1.78-.86-3.53-1.41-6.97-1.9-11.87-.12-1.27.8-2.47,2.04-2.68,7.27-1.24,17.13-3.12,27.39-4.5,2-.24,2.35-.35,2.88-.24,1.19.2,2.18,1.15,2.41,2.31.83,4.28,1.44,7.31,1.82,11.6.09,1.02-.67,2.07-1.65,2.28-1.57.35-3.39.73-5.41,1.13-.23.05-.39.27-.34.51.05.23.27.39.51.34,2.06-.41,3.83-.78,5.43-1.14,1.41-.31,2.45-1.74,2.33-3.2-.36-4.04-.92-6.94-1.63-10.61-.18-.62-.1-1.93-1.32-3.09.46.36,1.02.28,1.37-.07l1.58-1.58c.41-.41.41-1.07,0-1.48l-.96-.96c.52-.65.82-1.42.86-2.21h1.01c.58,0,1.05-.47,1.05-1.05v-2.44c0-.58-.47-1.05-1.05-1.05ZM19.39,19.16c1.93-.67,3.65.49,3.69,1.99.02.78-.54,1.56-1.24,1.73-.67.16-1.49-.19-1.96-.84-.57-.8-.66-1.9-.5-2.88ZM15.51,31.64c4.13-2.44,13.41-7.94,19-10.8,1.22-.63,2.73-.13,3.4.95,1.42,2.3,2.33,3.77,3.41,5.73-2.16.33-3.72.23-25.81,4.13ZM39.2,16.92c1.32.14,2.38,1.08,2.71,2.41.31,1.25-.14,3.02-1.3,3.67-.23.13-.5.22-.76.3-.33-.54-.67-1.1-1.21-1.97-.66-1.07-1.92-1.71-3.21-1.63.27-1.81,2.02-2.95,3.77-2.78ZM43.37,27.8c.06-.05.13-.1.19-.16l.71.71c-.27-.22-.57-.41-.9-.55ZM48.53,21.17c0,.1-.09.19-.19.19h-1.45c-.25,0-.45.22-.43.47.08.83-.25,1.67-.89,2.31-.17.17-.17.44,0,.61l1.25,1.25c.07.07.07.19,0,.26l-1.58,1.58c-.09.09-.17.09-.26,0-1.12-1.06-1.14-1.27-1.45-1.27-.42,0-.35.45-1.21.92,0,0-.02,0-.03,0-.51-.93-1.19-2.12-1.98-3.43.21-.07.5-.2.71-.31,0,0,0,0,0,0,1.57-.89,2.11-3.05,1.71-4.63-.41-1.68-1.77-2.89-3.46-3.06-2.32-.24-4.6,1.41-4.76,3.82-.32.11-.58.24-3.47,1.82-.07-.14-.22-.24-.39-.24h-1.62c-.1,0-.18-.08-.18-.18v-1.85c0-.1.08-.18.18-.18,1.32-.04,1.53.09,1.75-.13.08-.08.13-.19.13-.31,0-1.08.45-2.19,1.2-2.9.08-.08.13-.19.13-.3,0-.31-.2-.33-1.24-1.46-.07-.07-.07-.19,0-.26l1.38-1.38c.07-.07.19-.07.26,0,.08.08.92.92,1,1.01.09.1.19.23.34.29.46.19.68-.12.75-.22l.05-.07c.5-.59,1.2-.85,1.8-.81.26.02.52.1.75-.11.26-.23.2-.47.2-1.84,0-.1.08-.19.18-.19h1.97c.1,0,.19.09.19.19,0,.66-.01,1.13,0,1.55.01.28.28.46.53.4.9-.22,1.94.17,2.47.93.16.23.48.25.66.06.34-.34.64-.72,1.05-1.05.07-.07.19-.07.26,0,1.33,1.37,1.41,1.33,1.41,1.49s-.11.14-1.06,1.13c-.19.19-.17.49.05.65.72.54,1.12,1.35,1.07,2.17-.02.24.18.46.43.46h1.57c.1,0,.19.08.19.18v2.44Z"/><path class="cls-3" d="M30.41,41.26c.23-.34.34-.7.31-1.04-.05-.67-.59-1.13-1.08-1.34-.36-.15-.72-.21-1.07-.26-.11-.02-.21-.03-.32-.05-.46-.08-.76-.22-.94-.42-.19-.21-.26-.53-.19-.83.07-.29.29-.57.58-.74.54-.32,1.31-.22,1.75.22.17.17.44.17.61,0,.17-.17.17-.44,0-.61-.42-.42-1-.64-1.58-.66l-.13-.8c-.04-.24-.26-.4-.49-.36-.24.04-.4.26-.36.49l.13.79c-.13.05-.25.1-.37.17-.49.29-.84.75-.98,1.28-.14.58,0,1.19.38,1.62.41.46,1.01.61,1.43.69.11.02.23.04.34.06.31.05.61.1.87.21.26.11.53.34.55.61.01.14-.05.31-.17.49-.27.39-.74.64-1.21.65-.46,0-.95-.23-1.23-.61-.14-.19-.41-.23-.6-.09-.19.14-.23.41-.09.6.44.59,1.17.96,1.9.96h.04s.06-.01.08-.01l.14.87c.03.21.22.36.43.36.02,0,.05,0,.07,0,.24-.04.4-.26.36-.49l-.15-.95c.39-.18.74-.45.98-.8Z"/><circle class="cls-2" cx="18.76" cy="40.51" r="1.52"/><circle class="cls-2" cx="38.71" cy="37.27" r="1.52"/></svg>