<svg width="80" height="80" viewBox="0 0 80 80" fill="none" xmlns="http://www.w3.org/2000/svg">
<g clip-path="url(#clip0_1_72)">
<mask id="mask0_1_72" style="mask-type:luminance" maskUnits="userSpaceOnUse" x="0" y="0" width="80" height="80">
<path d="M80 0H0V80H80V0Z" fill="white"/>
</mask>
<g mask="url(#mask0_1_72)">
<path d="M40 80C62.0914 80 80 62.0914 80 40C80 17.9086 62.0914 0 40 0C17.9086 0 0 17.9086 0 40C0 62.0914 17.9086 80 40 80Z" fill="#FFF2E8"/>
<path d="M16 58H45V67.766L51 64.166L57 67.766V58H64V20H16V58ZM55.265 51.214C55.175 51.305 55.079 51.389 54.984 51.474C54.93 51.522 54.88 51.573 54.824 51.619C54.762 51.671 54.696 51.715 54.632 51.764C53.789 52.409 52.773 52.838 51.664 52.961C51.646 52.963 51.628 52.967 51.609 52.969C51.408 52.989 51.204 53 50.998 53C50.792 53 50.588 52.989 50.387 52.969C50.369 52.967 50.351 52.963 50.332 52.961C49.223 52.838 48.208 52.409 47.364 51.764C47.3 51.715 47.234 51.67 47.172 51.619C47.117 51.573 47.066 51.522 47.012 51.474C46.917 51.389 46.822 51.305 46.731 51.214C45.66 50.13 44.996 48.642 44.996 47C44.996 43.691 47.687 41 50.996 41C54.305 41 56.996 43.691 56.996 47C57 48.641 56.337 50.129 55.265 51.214ZM55 64.234L51 61.834L47 64.234V58V53.93C47.034 53.95 47.072 53.963 47.107 53.982C47.372 54.13 47.645 54.266 47.927 54.384C47.939 54.389 47.952 54.393 47.965 54.398C48.902 54.784 49.926 55 51.001 55C52.076 55 53.1 54.784 54.037 54.398C54.049 54.393 54.062 54.389 54.075 54.384C54.357 54.266 54.63 54.131 54.895 53.982C54.93 53.963 54.968 53.95 55.002 53.93V58V64.234H55ZM18 22H62V56H57V52.274C58.241 50.864 59 49.021 59 47C59 42.589 55.411 39 51 39C46.589 39 43 42.589 43 47C43 49.021 43.759 50.864 45 52.274V56H18V22Z" fill="#F48120"/>
<path d="M53 26H27V28H53V26Z" fill="#F48120"/>
<path d="M48 32H32V34H48V32Z" fill="#F48120"/>
<path d="M33 50H22V52H33V50Z" fill="#F48120"/>
</g>
</g>
<defs>
<clipPath id="clip0_1_72">
<rect width="80" height="80" fill="white"/>
</clipPath>
</defs>
</svg>
