<svg xmlns="http://www.w3.org/2000/svg" width="60" height="60" viewBox="0 0 60 60">
  <g id="athlete-performance-tracking" transform="translate(-652 -4270)">
    <circle id="Ellipse_14" data-name="Ellipse 14" cx="30" cy="30" r="30" transform="translate(652 4270)" fill="#fff2e8"/>
    <g id="noun-smart-watch-6761919" transform="translate(648.332 4277.727)">
      <path id="Path_9126" data-name="Path 9126" d="M42.6,30.289H30.728a1.833,1.833,0,0,0-1.834,1.834V45.146a1.833,1.833,0,0,0,1.834,1.834H42.6a1.833,1.833,0,0,0,1.834-1.834V32.123A1.829,1.829,0,0,0,42.6,30.289Zm.615,14.857a.608.608,0,0,1-.609.609H30.728a.608.608,0,0,1-.609-.609V32.123a.608.608,0,0,1,.609-.609H42.6a.608.608,0,0,1,.609.609V45.146Z" transform="translate(-4.167 -16.154)" fill="#f48120"/>
      <path id="Path_9127" data-name="Path 9127" d="M44.057,21.081a1.612,1.612,0,0,0,1.611-1.611V16.687a1.612,1.612,0,0,0-1.611-1.611h-.718l0-.678a3.328,3.328,0,0,0-3.323-3.323h-.609l-1.4-7.307a1.841,1.841,0,0,0-1.8-1.5h-7.41a1.836,1.836,0,0,0-1.8,1.5L25.6,11.075h-.609A3.328,3.328,0,0,0,21.668,14.4V30.563a3.328,3.328,0,0,0,3.323,3.323H25.6l1.393,7.307a1.841,1.841,0,0,0,1.8,1.5h7.4a1.836,1.836,0,0,0,1.8-1.5l1.393-7.307H40a3.328,3.328,0,0,0,3.323-3.323V28.478h.718a1.612,1.612,0,0,0,1.611-1.611V24.085a1.612,1.612,0,0,0-1.611-1.611h-.718V21.081ZM28.191,3.992a.618.618,0,0,1,.6-.5h7.4a.619.619,0,0,1,.6.5l1.353,7.077H26.844ZM36.8,40.963a.618.618,0,0,1-.6.5l-7.4,0a.619.619,0,0,1-.6-.5l-1.353-7.075H38.154Zm5.311-10.4a2.1,2.1,0,0,1-2.1,2.1l-15.018,0a2.1,2.1,0,0,1-2.1-2.1V14.4a2.1,2.1,0,0,1,2.1-2.1H40.015a2.1,2.1,0,0,1,2.1,2.1V30.563ZM44.057,16.3a.387.387,0,0,1,.385.385v2.784a.387.387,0,0,1-.385.385h-.718V16.29h.718Zm0,7.4a.387.387,0,0,1,.385.385v2.784a.387.387,0,0,1-.385.385h-.718l0-3.554Z" transform="translate(0)" fill="#f48120"/>
      <path id="Path_9128" data-name="Path 9128" d="M44.579,51.266H43.534l-.827-1.925a.612.612,0,0,0-.539-.372.6.6,0,0,0-.564.327l-1.4,2.656L38.736,48.34a.564.564,0,0,0-.59-.379.6.6,0,0,0-.557.423L36.581,51.54H34.355a.609.609,0,0,0,0,1.217h2.674a.621.621,0,0,0,.584-.423l.628-1.97,1.328,3.265a.608.608,0,0,0,.539.379h.031a.6.6,0,0,0,.539-.327L42.09,51l.481,1.116a.61.61,0,0,0,.564.372h1.45a.608.608,0,0,0,.609-.609.621.621,0,0,0-.615-.614Z" transform="translate(-6.964 -26.341)" fill="#f48120"/>
      <path id="Path_9129" data-name="Path 9129" d="M46.89,41a.607.607,0,0,0,.655,0c.423-.263,2.521-1.667,2.521-3.144a1.9,1.9,0,0,0-1.892-1.892,1.861,1.861,0,0,0-.949.256,1.861,1.861,0,0,0-.949-.256,1.9,1.9,0,0,0-1.892,1.892c-.008,1.477,2.084,2.881,2.507,3.144Zm-.63-3.817a.651.651,0,0,1,.495.218.6.6,0,0,0,.455.205.617.617,0,0,0,.455-.205.649.649,0,0,1,.495-.218.666.666,0,0,1,.667.667c0,.519-.878,1.353-1.622,1.885-.744-.539-1.616-1.366-1.616-1.885A.681.681,0,0,1,46.26,37.187Z" transform="translate(-13.097 -19.429)" fill="#f48120"/>
    </g>
  </g>
</svg>
