<svg width="149" height="149" viewBox="0 0 149 149" fill="none" xmlns="http://www.w3.org/2000/svg">
<path d="M74.39 148.78C115.474 148.78 148.78 115.474 148.78 74.39C148.78 33.3055 115.474 0 74.39 0C33.3055 0 0 33.3055 0 74.39C0 115.474 33.3055 148.78 74.39 148.78Z" fill="url(#paint0_linear_36_944)"/>
<path fill-rule="evenodd" clip-rule="evenodd" d="M48.5662 69.2193V40.6716C48.5662 36.4495 52.0158 33 56.2378 33H111.328C115.55 33 119 36.4495 119 40.6716V94.9725C119 99.1946 115.55 102.644 111.328 102.644H64.8011C61.2688 108.177 56.3441 112.826 50.5763 116.005C50.1446 116.242 49.6402 116.219 49.243 115.989C43.5646 112.842 38.7426 108.335 35.2167 102.908C31.7761 97.6124 29.5695 91.4444 29.0047 84.8121C28.9631 84.3084 29.2023 83.8464 29.5916 83.58L48.5662 69.2193ZM71.7804 41.8833H73.5343C74.2842 41.8833 74.8921 41.2754 74.8921 40.5255C74.8921 39.7757 74.2842 39.1678 73.5343 39.1678H71.7804C71.0306 39.1678 70.4227 39.7757 70.4227 40.5255C70.4227 41.2754 71.0306 41.8833 71.7804 41.8833ZM64.5072 41.8833H66.2613C67.0112 41.8833 67.6191 41.2754 67.6191 40.5255C67.6191 39.7757 67.0112 39.1678 66.2613 39.1678H64.5072C63.7574 39.1678 63.1495 39.7757 63.1495 40.5255C63.1495 41.2754 63.7574 41.8833 64.5072 41.8833ZM76.6812 87.395H88.013C88.7628 87.395 89.3707 86.7871 89.3707 86.0372C89.3707 85.2873 88.7628 84.6794 88.013 84.6794H76.6812C75.9313 84.6794 75.3234 85.2873 75.3234 86.0372C75.3234 86.7871 75.9313 87.395 76.6812 87.395ZM76.6812 82.8011H88.013C88.7628 82.8011 89.3707 82.1932 89.3707 81.4433C89.3707 80.6934 88.7628 80.0855 88.013 80.0855H76.6812C75.9313 80.0855 75.3234 80.6934 75.3234 81.4433C75.3234 82.1932 75.9313 82.8011 76.6812 82.8011ZM63.1545 66.8071H88.013C88.7628 66.8071 89.3707 66.1992 89.3707 65.4494C89.3707 64.6995 88.7628 64.0916 88.013 64.0916H63.1545C62.4046 64.0916 61.7968 64.6995 61.7968 65.4494C61.7968 66.1992 62.4046 66.8071 63.1545 66.8071ZM63.1545 62.2132H88.013C88.7628 62.2132 89.3707 61.6053 89.3707 60.8554C89.3707 60.1056 88.7628 59.4977 88.013 59.4977H63.1545C62.4046 59.4977 61.7968 60.1056 61.7968 60.8554C61.7968 61.6053 62.4046 62.2132 63.1545 62.2132ZM100.11 85.3182L101.461 86.3575C102.053 86.8144 102.903 86.7052 103.36 86.1134L105.741 83.022C106.198 82.4304 106.089 81.5802 105.497 81.1233C104.906 80.6663 104.056 80.7755 103.599 81.3673L102.042 83.3884L101.765 83.1756C101.174 82.7186 100.323 82.8278 99.8665 83.4196C99.4095 84.011 99.5187 84.8612 100.11 85.3182ZM97.6116 76.0237C96.2269 76.0237 95.0871 77.1634 95.0871 78.5481V88.9324C95.0871 89.6279 95.3707 90.2595 95.8277 90.7163L95.8304 90.7136C96.2903 91.1723 96.9209 91.4569 97.6118 91.4569H107.996C108.687 91.4569 109.318 91.1723 109.777 90.7136L109.78 90.7163C110.237 90.2595 110.521 89.6279 110.521 88.9324V78.5481C110.521 77.4125 109.78 76.7887 109.78 76.7642C109.323 76.3074 108.692 76.0237 107.996 76.0237H97.6116ZM107.805 78.739H97.8027V88.7413H107.805V78.739ZM100.11 64.7303L101.461 65.7694C102.053 66.2264 102.903 66.1172 103.36 65.5254L105.741 62.4339C106.198 61.8423 106.089 60.9922 105.497 60.5352C104.906 60.0782 104.056 60.1874 103.599 60.7792L102.042 62.8003L101.765 62.5876C101.174 62.1306 100.323 62.2398 99.8665 62.8316C99.4095 63.4234 99.5187 64.2735 100.11 64.7303ZM97.6116 55.4358C96.2269 55.4358 95.0871 56.5755 95.0871 57.9603V68.3445C95.0871 69.0401 95.3707 69.6716 95.8277 70.1284C95.8522 70.1284 96.4759 70.869 97.6116 70.869H107.996C109.387 70.869 110.52 69.7356 110.52 68.3445V57.9603C110.52 56.8246 109.78 56.2008 109.78 56.1764C109.323 55.7196 108.691 55.4358 107.996 55.4358H97.6116ZM107.805 58.1513H97.8027V68.1534H107.805V58.1513ZM57.2341 41.8833H58.9879C59.7378 41.8833 60.3457 41.2754 60.3457 40.5255C60.3457 39.7757 59.7378 39.1678 58.9879 39.1678H57.2341C56.4842 39.1678 55.8763 39.7757 55.8763 40.5255C55.8763 41.2754 56.4842 41.8833 57.2341 41.8833ZM43.662 99.6361H56.1863V92.8406C56.1863 90.8732 54.5715 89.2584 52.6041 89.2584H47.2442C45.2768 89.2584 43.662 90.8732 43.662 92.8406V99.6361ZM57.544 102.352C58.2939 102.352 58.9018 101.744 58.9018 100.994V92.8406C58.9018 90.2062 57.2568 87.8941 54.8721 86.9673C58.4365 82.7702 55.4447 76.2811 49.924 76.2811C44.4033 76.2811 41.4116 82.7702 44.9759 86.9673C42.5915 87.8939 40.9464 90.2063 40.9464 92.8406V100.994C40.9464 101.744 41.5543 102.352 42.3042 102.352H57.544ZM52.5922 80.1014C50.2221 77.7312 46.1508 79.4175 46.1508 82.7696C46.1508 86.1216 50.222 87.8081 52.5922 85.4379C54.0656 83.9645 54.0656 81.5748 52.5922 80.1014ZM66.3864 99.9288H111.329C114.052 99.9288 116.285 97.6958 116.285 94.9727V48.0509H51.2818V69.2193L70.3076 83.6184C70.6923 83.9088 70.8785 84.3644 70.842 84.8117L70.8434 84.8119C70.3815 90.236 68.8213 95.349 66.3864 99.9288ZM62.3614 101.434C65.4331 96.7058 67.447 91.2243 68.0683 85.324L49.9242 71.5921L31.7801 85.324C33.0165 97.0668 39.8271 107.401 49.9242 113.259C54.9423 110.348 59.209 106.285 62.3614 101.434ZM116.285 45.3353V40.6716C116.285 37.9485 114.052 35.7155 111.329 35.7155H56.238C53.5149 35.7155 51.282 37.9485 51.282 40.6716V45.3353H116.285Z" fill="white"/>
<defs>
<linearGradient id="paint0_linear_36_944" x1="148.78" y1="74.39" x2="0" y2="74.39" gradientUnits="userSpaceOnUse">
<stop stop-color="#3B3B3B"/>
<stop offset="1" stop-color="#191919"/>
</linearGradient>
</defs>
</svg>
