<svg xmlns="http://www.w3.org/2000/svg" width="45" height="45" viewBox="0 0 45 45">
  <g id="Group_8409" data-name="Group 8409" transform="translate(-630 -437)">
    <circle id="Ellipse_45" data-name="Ellipse 45" cx="22.5" cy="22.5" r="22.5" transform="translate(630 437)" fill="#2f2f2f"/>
    <g id="Group_8342" data-name="Group 8342" transform="translate(631 453.004)">
      <path id="Path_9127" data-name="Path 9127" d="M17.546,14.667A.285.285,0,0,0,17.3,14.6a.337.337,0,0,0-.213.161l-.295.484a1.8,1.8,0,0,0-.33-.129,3.109,3.109,0,0,0-.341-.081l-.093-.634a.408.408,0,0,0-.132-.249.277.277,0,0,0-.248-.061l-.68.143a.336.336,0,0,0-.213.156.415.415,0,0,0-.058.29l.087.579a2.06,2.06,0,0,0-.312.188,2.741,2.741,0,0,0-.283.229l-.461-.371a.274.274,0,0,0-.242-.068.333.333,0,0,0-.213.163l-.394.654a.422.422,0,0,0-.058.29.38.38,0,0,0,.14.249l.415.344a2.606,2.606,0,0,0-.11.385c-.029.136-.052.262-.07.4l-.543.109a.336.336,0,0,0-.213.154.413.413,0,0,0-.052.29l.122.794a.416.416,0,0,0,.132.249.281.281,0,0,0,.248.068l.5-.1a2.691,2.691,0,0,0,.161.364c.058.115.128.229.2.337l-.318.532a.413.413,0,0,0,.079.532l.566.464a.281.281,0,0,0,.248.061.352.352,0,0,0,.219-.154l.295-.491a1.8,1.8,0,0,0,.33.129,3.109,3.109,0,0,0,.341.081l.093.634a.408.408,0,0,0,.132.249.277.277,0,0,0,.248.061l.68-.143a.341.341,0,0,0,.213-.154.415.415,0,0,0,.058-.29l-.087-.579a2.06,2.06,0,0,0,.312-.188,3.175,3.175,0,0,0,.289-.229l.456.371a.281.281,0,0,0,.248.068.323.323,0,0,0,.213-.161l.4-.661a.419.419,0,0,0,.052-.29.425.425,0,0,0-.134-.256l-.421-.337a2.606,2.606,0,0,0,.11-.385c.029-.136.052-.262.07-.4l.543-.109a.331.331,0,0,0,.213-.156.413.413,0,0,0,.052-.29l-.122-.794a.416.416,0,0,0-.132-.249.281.281,0,0,0-.248-.068l-.5.1a3.728,3.728,0,0,0-.161-.364,2.627,2.627,0,0,0-.2-.33l.318-.539a.413.413,0,0,0-.079-.532l-.56-.459-.016.007Zm5.12-2.193-1.264.014a.394.394,0,0,1-.006-.778l2.08-.025h.05l.008,0h0l.008,0h0l.008,0h0l.006,0h0l.006,0h0l.006,0h0l.006,0h0l.006,0h0l.006,0h0l.006,0h0l.006,0h0l.006,0h0l.006,0h0l.006,0h0l.006,0h0l.006,0h0l.006,0h0l.006,0h0l.006,0h0l.006,0h0l.006,0h0l.006,0h0l.006,0h0l.006,0h0l.006,0h0l.006,0,0,0,0,0,0,0,0,0h0l0,0v0l0,.007v0l0,.007v0l0,.007v0l0,.007v0l0,.007v0l0,.007v0l0,.007v0l0,.007v0l0,.007v0l0,.007v0l0,.007v0l0,.007v0l0,.007v0l0,.007v0l0,.007v0l0,.007,0,.007v0l0,.007v0l0,.007v0l0,.007v0l0,.007v0l0,.007v0l0,.009v0l0,.009v0l0,.009v0l0,.009v.045l.01,2.509a.367.367,0,0,1-.331.391.362.362,0,0,1-.333-.387l-.006-1.575L21.94,14.445a.3.3,0,0,1-.473,0,.44.44,0,0,1,0-.552l1.2-1.419ZM11.174.787,9.91.8A.363.363,0,0,1,9.574.416.365.365,0,0,1,9.906.025L11.986,0h.05l.008,0h0l.008,0h0l.008,0h0l.006,0h0l.006,0h0l.006,0h0l.006,0h0l.006,0h0l.006,0h0l.006,0h0l.006,0h0l.006,0h0l.006,0h0l.006,0h0l.006,0h0l.006,0h0l.006,0h0l.006,0h0l.006,0h0l.006,0h0l.006,0h0l.006,0h0l.006,0h0l.006,0h0l.006,0h0l.006,0,0,0,0,0,0,0,0,0v0l0,0v0l0,.007v0l0,.007v0l0,.007v0l0,.007v0l0,.007v0l0,.007v0l0,.007v0l0,.007v0l0,.007v0L12.3.2v0l0,.007v0l0,.007v0L12.29.226v0l0,.007v0l0,.007v0l0,.007,0,.007v0l0,.007v0l0,.007v0l0,.007v0l0,.007v0l0,.009v0l0,.009v0l0,.009v0l0,.009V.4l.01,2.509a.336.336,0,1,1-.665,0l-.006-1.575L10.431,2.763a.3.3,0,0,1-.473,0,.44.44,0,0,1,0-.552L11.174.787ZM18.9,4.018l-2.351.027a.543.543,0,0,1-.5-.577.546.546,0,0,1,.494-.586l3.573-.041h.056l.01,0h0l.01,0h0l.01,0h0l.01,0h0l.01,0h0l.01,0h0l.01,0h0l.01,0h0l.01,0h0l.01,0h0l.01,0h0l.01,0h0l.01,0h0l.01,0h0l.01,0h0l.01,0,0,0,.01,0,0,0,.008.007,0,0,.008.007,0,0,.008.007,0,0,.008.007,0,0,.008.007,0,0,.008.007,0,0,.008.007,0,0,.008.007,0,0,.008.007,0,0,.008.007,0,0L20.471,3l0,0,.008.009,0,0,.008.009,0,0,.006.009,0,0,.006.009,0,0,.006.009,0,0,.006.009,0,0,.006.009,0,0,.006.009,0,0,.006.009,0,0,.006.009,0,0,.006.009v0l.006.011v0l.006.011,0,.011v0l0,.011v0l0,.011v0l0,.011v0l0,.011v0l0,.011v0l0,.011v0l0,.011v0l0,.011v0l0,.011v0l0,.011v0l0,.014,0,.011v0l0,.011v0l0,.011v0l0,.014v.05l.016,4.229a.5.5,0,1,1-1,0l-.01-2.831-3.458,4.03a.451.451,0,0,1-.708,0,.654.654,0,0,1,0-.826L18.9,4.018ZM15.565,16.54a1.2,1.2,0,0,1,.537.014,1.327,1.327,0,0,1,.473.242,1.571,1.571,0,0,1,.359.439,1.625,1.625,0,0,1,.19.579,1.89,1.89,0,0,1-.012.627,1.808,1.808,0,0,1-.207.552,1.539,1.539,0,0,1-.376.419,1.158,1.158,0,0,1-.5.222,1.2,1.2,0,0,1-.537-.014,1.327,1.327,0,0,1-.473-.242,1.571,1.571,0,0,1-.359-.439,1.625,1.625,0,0,1-.19-.579,1.89,1.89,0,0,1,.012-.627,1.808,1.808,0,0,1,.207-.552,1.539,1.539,0,0,1,.376-.419,1.2,1.2,0,0,1,.5-.222ZM10.323,7.093a.24.24,0,0,0-.081-.068.2.2,0,0,0-.174,0,.3.3,0,0,0-.076.061l-.006.007-.653.763a.33.33,0,0,1-.473.048c-.076-.054-.149-.109-.237-.161s-.178-.109-.26-.156-.178-.1-.271-.136-.173-.075-.283-.115a.434.434,0,0,1-.254-.412V5.758a.3.3,0,0,0-.017-.109.235.235,0,0,0-.052-.081.281.281,0,0,0-.07-.061.194.194,0,0,0-.093-.02H6.068A.305.305,0,0,0,5.98,5.5a.312.312,0,0,0-.081.068.2.2,0,0,0-.047.081.3.3,0,0,0-.017.109V6.831a.431.431,0,0,1-.306.432c-.1.027-.19.054-.271.081s-.178.068-.271.109a2.455,2.455,0,0,0-.266.136c-.093.048-.173.1-.254.149a.326.326,0,0,1-.438-.075l-.721-.835C3.3,6.822,3.3,6.822,3.3,6.815a.281.281,0,0,0-.07-.061A.15.15,0,0,0,3.15,6.74a.171.171,0,0,0-.087.02.24.24,0,0,0-.081.068L2.1,7.86a.28.28,0,0,0-.058.1.306.306,0,0,0,0,.2.352.352,0,0,0,.052.088v.007l.653.763a.488.488,0,0,1,.041.552c-.047.088-.093.174-.138.276s-.093.208-.134.3-.081.208-.116.317-.064.2-.1.33a.381.381,0,0,1-.353.3H.958a.194.194,0,0,0-.093.02.487.487,0,0,0-.07.054.2.2,0,0,0-.047.081.3.3,0,0,0-.017.109v1.468a.476.476,0,0,0,.012.1.363.363,0,0,0,.058.1.163.163,0,0,0,.07.054.194.194,0,0,0,.093.02h.919a.4.4,0,0,1,.37.358c.023.115.047.222.07.31.029.109.058.215.093.324s.07.208.116.317.087.215.128.31a.476.476,0,0,1-.07.5l-.715.828-.01,0a.32.32,0,0,0-.052.081.232.232,0,0,0-.012.1.259.259,0,0,0,.017.1.228.228,0,0,0,.058.1l.872,1.032a.243.243,0,0,0,.081.061.211.211,0,0,0,.093.02.237.237,0,0,0,.1-.02.525.525,0,0,0,.076-.054l.647-.769a.331.331,0,0,1,.473-.054c.076.054.149.109.237.161s.178.109.26.154.178.1.271.136.173.075.283.115a.434.434,0,0,1,.254.412v1.165a.3.3,0,0,0,.017.109.35.35,0,0,0,.047.081.2.2,0,0,0,.167.075H7.012a.305.305,0,0,0,.087-.014.312.312,0,0,0,.081-.068.2.2,0,0,0,.047-.081.3.3,0,0,0,.017-.109V17.694a.431.431,0,0,1,.306-.432c.1-.027.19-.054.271-.081s.178-.068.271-.109.178-.081.271-.136.184-.1.266-.149a.326.326,0,0,1,.432.081l.71.835.006.007a.281.281,0,0,0,.07.061.173.173,0,0,0,.087.014.171.171,0,0,0,.087-.02.281.281,0,0,0,.07-.061c.006-.007.012-.014.017-.014l.878-1.011a.294.294,0,0,0,.052-.1.323.323,0,0,0,.017-.109.365.365,0,0,0-.017-.115.646.646,0,0,0-.047-.088l-.659-.756a.485.485,0,0,1-.047-.552c.047-.088.093-.174.138-.276s.093-.208.134-.3.081-.208.116-.317.064-.2.1-.33a.381.381,0,0,1,.353-.3h1a.194.194,0,0,0,.093-.02.294.294,0,0,0,.07-.054.279.279,0,0,0,.064-.195V11.7a.476.476,0,0,0-.012-.1.363.363,0,0,0-.058-.1.163.163,0,0,0-.07-.054.194.194,0,0,0-.093-.02H11.2a.4.4,0,0,1-.37-.364c-.023-.1-.047-.195-.07-.3s-.058-.208-.1-.324c0-.007-.006-.014-.006-.02-.035-.109-.07-.2-.1-.3s-.081-.2-.128-.3a.477.477,0,0,1,.064-.511L11.2,8.48c0-.007.006-.007.012-.007a.32.32,0,0,0,.052-.081.232.232,0,0,0,.012-.1.259.259,0,0,0-.017-.1.28.28,0,0,0-.058-.1l-.884-1.025,0,.018Zm.207-.871a1.025,1.025,0,0,1,.318.249L11.732,7.5h.006a1.225,1.225,0,0,1,.213.364,1.237,1.237,0,0,1,.076.439,1.361,1.361,0,0,1-.076.439,1.061,1.061,0,0,1-.219.358l-.52.613c.006.02.017.041.023.061.047.115.087.235.126.351,0,.007.006.014.006.02.041.115.076.242.11.378l.012.048h.636a.8.8,0,0,1,.376.088.972.972,0,0,1,.312.249l.006.007a1.1,1.1,0,0,1,.207.364,1.341,1.341,0,0,1,.076.432v1.468a1.2,1.2,0,0,1-.283.808.962.962,0,0,1-.318.249.88.88,0,0,1-.376.081h-.739c-.006.02-.017.048-.023.068-.041.122-.087.242-.132.364s-.1.249-.149.358l-.017.041.45.518.017.02a1.114,1.114,0,0,1,.2.371,1.352,1.352,0,0,1,0,.858,1.225,1.225,0,0,1-.2.371l-.012.014-.884,1.025a.966.966,0,0,1-.312.256.8.8,0,0,1-.382.088.94.94,0,0,1-.382-.088.961.961,0,0,1-.312-.256l-.514-.606a.161.161,0,0,1-.058.027c-.1.048-.2.1-.312.149s-.213.088-.324.129a.121.121,0,0,1-.047.014v.735a1.22,1.22,0,0,1-.076.439,1.148,1.148,0,0,1-.213.364l-.006.007a.92.92,0,0,1-.312.242.88.88,0,0,1-.37.088H5.759a.877.877,0,0,1-.692-.33,1.144,1.144,0,0,1-.213-.371,1.349,1.349,0,0,1-.07-.439v-.862c-.017-.007-.041-.02-.058-.027-.1-.048-.207-.1-.312-.156s-.213-.115-.306-.174l-.035-.02-.444.525-.017.02a.917.917,0,0,1-.318.235.869.869,0,0,1-.735,0,1.008,1.008,0,0,1-.318-.235l-.012-.014-.884-1.045a1.225,1.225,0,0,1-.213-.364,1.237,1.237,0,0,1-.076-.439,1.35,1.35,0,0,1,.076-.439,1.284,1.284,0,0,1,.219-.364l.52-.6a.224.224,0,0,1-.023-.068c-.041-.115-.087-.235-.128-.364s-.081-.249-.11-.378L1.6,13.945H.975A.8.8,0,0,1,.6,13.857a.972.972,0,0,1-.312-.249L.281,13.6a1.1,1.1,0,0,1-.207-.364A1.446,1.446,0,0,1,0,12.8V11.331a1.389,1.389,0,0,1,.07-.439,1.26,1.26,0,0,1,.213-.371A.962.962,0,0,1,.6,10.272a.88.88,0,0,1,.376-.081h.739c.006-.02.017-.048.023-.068.041-.122.087-.242.132-.364s.1-.249.149-.358l.017-.041-.444-.525a1.077,1.077,0,0,1-.213-.371A1.264,1.264,0,0,1,1.3,8.026a1.246,1.246,0,0,1,.076-.439,1.218,1.218,0,0,1,.213-.371l.878-1.032V6.177a1.038,1.038,0,0,1,.312-.249A.812.812,0,0,1,3.16,5.84a.885.885,0,0,1,.376.088.916.916,0,0,1,.306.256l.525.606a.329.329,0,0,0,.047-.027c.1-.054.2-.1.312-.154s.213-.088.324-.129A.121.121,0,0,1,5.1,6.467V5.731a1.212,1.212,0,0,1,.076-.439,1.148,1.148,0,0,1,.213-.364l.006-.007A.92.92,0,0,1,5.7,4.679a.88.88,0,0,1,.37-.088H7.332a.906.906,0,0,1,.376.081.933.933,0,0,1,.318.249,1.144,1.144,0,0,1,.213.371,1.349,1.349,0,0,1,.07.439v.862c.017.007.041.02.058.027.1.048.207.1.312.156s.213.115.306.174l.035.02.45-.518A.906.906,0,0,1,9.788,6.2a.829.829,0,0,1,.376-.088.812.812,0,0,1,.376.088v.018ZM6.541,8.953a2.272,2.272,0,0,1,.566.068,2.563,2.563,0,0,1,.537.195,3.323,3.323,0,0,1,.479.3,2.723,2.723,0,0,1,.415.4,2.848,2.848,0,0,1,.341.491,3.155,3.155,0,0,1,.26.559c.006.014.006.027.012.034a3.519,3.519,0,0,1,.155.593,4.154,4.154,0,0,1,.058.661,3.571,3.571,0,0,1-.058.661,3.748,3.748,0,0,1-.167.627,4.271,4.271,0,0,1-.26.559,3.884,3.884,0,0,1-.341.491,2.591,2.591,0,0,1-.421.4,2.456,2.456,0,0,1-.479.3c-.012.007-.023.007-.029.014a2.4,2.4,0,0,1-.508.181,2.642,2.642,0,0,1-.566.068,2.272,2.272,0,0,1-.566-.068,2.563,2.563,0,0,1-.537-.195,3.324,3.324,0,0,1-.479-.3,2.723,2.723,0,0,1-.415-.4A2.848,2.848,0,0,1,4.2,14.1a3.155,3.155,0,0,1-.26-.559c-.006-.014-.006-.027-.012-.034a3.519,3.519,0,0,1-.155-.593,4.154,4.154,0,0,1-.058-.661,3.571,3.571,0,0,1,.058-.661,3.749,3.749,0,0,1,.167-.627,4.271,4.271,0,0,1,.26-.559,3.363,3.363,0,0,1,.341-.491,2.836,2.836,0,0,1,.415-.4,2.456,2.456,0,0,1,.479-.3c.012-.007.023-.007.029-.014a2.4,2.4,0,0,1,.508-.181,2.642,2.642,0,0,1,.566-.068h.006Zm.423.916a1.712,1.712,0,0,0-.421-.048,1.744,1.744,0,0,0-.421.048,2.11,2.11,0,0,0-.37.129c-.006.007-.012.007-.023.014a2.318,2.318,0,0,0-.364.229,2.217,2.217,0,0,0-.306.29,2.06,2.06,0,0,0-.248.358,2.69,2.69,0,0,0-.2.425,2.721,2.721,0,0,0-.122.459,2.693,2.693,0,0,0-.041.491,2.745,2.745,0,0,0,.041.491,3.1,3.1,0,0,0,.11.432c.006.007.006.014.012.027a2.876,2.876,0,0,0,.2.425A2.438,2.438,0,0,0,5.058,14a1.873,1.873,0,0,0,.306.29,2.088,2.088,0,0,0,.364.229,1.861,1.861,0,0,0,.394.143,1.712,1.712,0,0,0,.421.048,1.744,1.744,0,0,0,.421-.048,2.056,2.056,0,0,0,.37-.129c.006-.007.012-.007.023-.014a2.318,2.318,0,0,0,.364-.229A2.217,2.217,0,0,0,8.028,14a2.06,2.06,0,0,0,.248-.358,2.69,2.69,0,0,0,.2-.425,2.9,2.9,0,0,0,.122-1.441,3.1,3.1,0,0,0-.11-.432c-.006-.007-.006-.014-.012-.027a2.876,2.876,0,0,0-.2-.425,2.438,2.438,0,0,0-.248-.358,1.873,1.873,0,0,0-.306-.29,2.088,2.088,0,0,0-.364-.229,1.779,1.779,0,0,0-.394-.143Z" transform="translate(10 -4.485)" fill="#fff"/>
    </g>
  </g>
</svg>
