<svg xmlns="http://www.w3.org/2000/svg" width="60" height="60" viewBox="0 0 60 60">
  <g id="Group_526" data-name="Group 526" transform="translate(-142 -5124)">
    <circle id="Ellipse_14" data-name="Ellipse 14" cx="30" cy="30" r="30" transform="translate(142 5124)" fill="#fff2e8"/>
    <g id="Group_8331" data-name="Group 8331" transform="translate(152 5137)">
      <path id="Path_9112" data-name="Path 9112" d="M8.226,0A8.216,8.216,0,0,0,5.508.46L7.67,2.8c4.913,5.314-.631,8.389-5.517,4.741L.268,6.135A8.228,8.228,0,0,0,12.3,15.373l4.036,4.284L7.024,27.639a3.083,3.083,0,0,0-.785.673l-.027.023,0,0a3.066,3.066,0,1,0,5.029,3.477l8.271-8.781,8.383,8.9a3.051,3.051,0,1,0,4.912-3.59l.01-.009-.074-.064a3.073,3.073,0,0,0-.565-.484L22.7,19.657l4.035-4.284A8.23,8.23,0,0,0,38.766,6.135L36.882,7.542C32,11.19,26.452,8.115,31.364,2.8L33.527.46A8.228,8.228,0,0,0,24.106,13l-4.589,3.933-4.588-3.934A8.227,8.227,0,0,0,8.226,0Z" fill="#f48120" fill-rule="evenodd"/>
    </g>
  </g>
</svg>
