<svg xmlns="http://www.w3.org/2000/svg" xmlns:xlink="http://www.w3.org/1999/xlink" width="45" height="45" viewBox="0 0 45 45">
  <defs>
    <linearGradient id="linear-gradient" x1="0.5" x2="0.156" y2="0.791" gradientUnits="objectBoundingBox">
      <stop offset="0" stop-color="#3e3e3e"/>
      <stop offset="1" stop-color="#1a1a1a"/>
    </linearGradient>
  </defs>
  <g id="Group_8410" data-name="Group 8410" transform="translate(-1251 858)">
    <circle id="Ellipse_1" data-name="Ellipse 1" cx="22.5" cy="22.5" r="22.5" transform="translate(1251 -858)" fill="url(#linear-gradient)"/>
    <g id="Group_8339" data-name="Group 8339" transform="translate(1264 -844.781)">
      <path id="Path_9124" data-name="Path 9124" d="M10.77.626A.7.7,0,0,1,11.534,0,.7.7,0,0,1,12.3.626v2.74a.7.7,0,0,1-.764.626.7.7,0,0,1-.764-.626V.626Zm3.357,8.191a4.852,4.852,0,1,1-1.863.368,4.86,4.86,0,0,1,1.863-.368Zm-.365,2.836a.425.425,0,0,1,.125-.3h0a.428.428,0,0,1,.731.3v2.279l1.7,1.011.014.009a.416.416,0,0,1,.181.252.428.428,0,0,1-.043.318l0,0a.055.055,0,0,1-.011.015.421.421,0,0,1-.25.179.428.428,0,0,1-.318-.043l-1.9-1.127a.441.441,0,0,1-.162-.153.419.419,0,0,1-.063-.221h0l0-2.526Zm3.207-.806a3.987,3.987,0,1,0,.874,1.3,4.013,4.013,0,0,0-.874-1.3ZM2.08,8.868c-.043,0-.082-.19-.082-.424s.034-.422.082-.422H4.164c.043,0,.082.19.082.422s-.034.424-.082.424Zm3.323,0c-.043,0-.082-.19-.082-.424s.034-.422.082-.422H7.486c.043,0,.082.19.082.422s-.034.424-.082.424Zm3.323,0c-.043,0-.082-.19-.082-.424s.034-.422.082-.422h2.084c.043,0,.082.189.082.421a6.294,6.294,0,0,0-.6.425Zm-6.64,2.424c-.043,0-.082-.19-.082-.424s.034-.424.082-.424H4.168c.043,0,.082.19.082.424s-.034.424-.082.424Zm3.323,0c-.043,0-.082-.19-.082-.424s.034-.424.082-.424H7.491c.043,0,.082.19.082.424s-.034.424-.082.424ZM2.089,13.719c-.043,0-.082-.19-.082-.424s.034-.424.082-.424H4.173c.043,0,.082.19.082.424s-.034.424-.082.424Zm3.323,0c-.043,0-.082-.19-.082-.424s.034-.424.082-.424H7.5c.043,0,.082.19.082.424s-.034.424-.082.424ZM3.91.626A.7.7,0,0,1,4.674,0a.7.7,0,0,1,.764.626v2.74a.706.706,0,0,1-.764.626.7.7,0,0,1-.764-.626V.626ZM.841,5.99H15.387V2.836a.38.38,0,0,0-.113-.272A.389.389,0,0,0,15,2.451H13.607a.424.424,0,0,1,0-.847H15a1.235,1.235,0,0,1,1.234,1.234V7.845a6.373,6.373,0,0,0-.858-.23V6.832H.841V15a.38.38,0,0,0,.113.272.389.389,0,0,0,.272.113H8.139a6.205,6.205,0,0,0,.3.855h-7.2a1.228,1.228,0,0,1-.872-.362A1.219,1.219,0,0,1,0,15.008V2.839A1.235,1.235,0,0,1,1.234,1.6H2.723a.424.424,0,1,1,0,.847H1.234a.38.38,0,0,0-.272.113.389.389,0,0,0-.113.272V5.991H.841ZM6.659,2.451a.424.424,0,1,1,0-.847H9.5a.424.424,0,0,1,0,.847Z" transform="translate(1)" fill="#fefefe"/>
    </g>
  </g>
</svg>
