<svg xmlns="http://www.w3.org/2000/svg" width="60" height="60" viewBox="0 0 60 60">
  <g id="Group_521" data-name="Group 521" transform="translate(-652 -4535)">
    <path id="Ellipse_14" data-name="Ellipse 14" d="M30,0A30,30,0,1,1,0,30,30,30,0,0,1,30,0Z" transform="translate(652 4535)" fill="#fff2e8"/>
    <g id="Group_8330" data-name="Group 8330" transform="translate(665 4552)">
      <path id="Path_9110" data-name="Path 9110" d="M2.4,1.534a.878.878,0,0,0-.867.867V24.332a.635.635,0,0,0,.264.46,1.3,1.3,0,0,0,.8.306h2.73V22.96a.767.767,0,0,1,.767-.766H10.21a.767.767,0,0,1,.767.766V25.1H24.514V22.96a.767.767,0,0,1,.767-.766h4.083a.767.767,0,0,1,.767.766V25.1H32.7a.792.792,0,0,0,.767-.767V5.478a.767.767,0,0,0-.767-.767H18.482a.767.767,0,0,1-.767-.767,5.684,5.684,0,0,0-.188-1.821.894.894,0,0,0-.942-.589H2.4ZM19.541,16.6h11.2V18.09h-11.2V16.6Zm0-7.784h11.2v1.489h-11.2V8.817Zm0,3.892h11.2V14.2h-11.2V12.709ZM7.522,7.945V9.227c-.646.165-.616,1.935.1,1.935.221,0,1.246,1.486,1.4,1.734.293.482,0,.659,0,.988-3.143.709-4.049,1.025-4.049,4.206H15.955c0-3.18-.907-3.5-4.049-4.206,0-.392-.259-.561,0-.988a11.457,11.457,0,0,1,1.38-1.734c.757.014.776-1.767.12-1.935V7.945c0-3.089-5.884-3.089-5.884,0ZM.706.707A2.4,2.4,0,0,1,2.4,0H16.585a2.3,2.3,0,0,1,2.374,1.584,5.111,5.111,0,0,1,.279,1.594H32.7a2.3,2.3,0,0,1,2.3,2.3V24.333a2.325,2.325,0,0,1-2.3,2.3H29.363a.767.767,0,0,1-.767-.766V23.728H26.048v2.139a.767.767,0,0,1-.767.766H10.21a.767.767,0,0,1-.767-.766V23.728H6.86v2.139a.767.767,0,0,1-.767.766H2.6a2.891,2.891,0,0,1-1.781-.666A2.128,2.128,0,0,1,0,24.333V2.4A2.4,2.4,0,0,1,.706.707Z" fill="#f48120"/>
    </g>
  </g>
</svg>
