<svg xmlns="http://www.w3.org/2000/svg" width="60" height="60" viewBox="0 0 60 60">
  <g id="Group_527" data-name="Group 527" transform="translate(-142 -5009)">
    <circle id="Ellipse_14" data-name="Ellipse 14" cx="30" cy="30" r="30" transform="translate(142 5009)" fill="#fff2e8"/>
    <g id="Group_8335" data-name="Group 8335" transform="translate(155.518 5024.497)">
      <path id="Path_9119" data-name="Path 9119" d="M4.188,3.439V20.673H28.755V3.439ZM6.57,17.682a.47.47,0,0,1,0-.939H9.535V9.727a.19.19,0,0,1,.059-.14l.024-.021a.192.192,0,0,1,.115-.038h1.5a.19.19,0,0,1,.14.059.188.188,0,0,1,.021.027.2.2,0,0,1,.035.113v7.018H13.54V11.82a.19.19,0,0,1,.059-.14.2.2,0,0,1,.14-.059h1.5a.186.186,0,0,1,.14.059.2.2,0,0,1,.059.14v4.926h2.114V7.635a.19.19,0,0,1,.059-.14.2.2,0,0,1,.14-.059h1.5a.19.19,0,0,1,.14.059h0a.2.2,0,0,1,.059.14v9.111h2.114v-6.42a.19.19,0,0,1,.059-.14h0a.2.2,0,0,1,.14-.059h1.5a.2.2,0,0,1,.14.059h0a.2.2,0,0,1,.059.14v6.42h2.077a.47.47,0,1,1,0,.939H6.57Zm9.17,6.734a.6.6,0,0,1,.172-.115V21.865H.6a.6.6,0,0,1,0-1.191h2.4V3.439H.6a.6.6,0,0,1,0-1.191H15.824V.638a.628.628,0,0,1,1.256,0v1.61H32.307a.6.6,0,1,1,0,1.191H29.943V20.673h2.425a.6.6,0,0,1,0,1.191h-15.2v2.5c.019.016.04.032.056.048l3.515,3.34a.628.628,0,1,1-.867.909l-2.707-2.573v2.275a.628.628,0,0,1-1.256,0V25.985l-2.82,2.68a.628.628,0,1,1-.867-.909l3.517-3.34Z" fill="#f48120" fill-rule="evenodd"/>
    </g>
  </g>
</svg>
