<svg xmlns="http://www.w3.org/2000/svg" width="60" height="60" viewBox="0 0 60 60">
  <g id="Group_527" data-name="Group 527" transform="translate(-142 -5009)">
    <circle id="Ellipse_14" data-name="Ellipse 14" cx="30" cy="30" r="30" transform="translate(142 5009)" fill="#fff2e8"/>
    <path id="Path_9111" data-name="Path 9111" d="M26.595,26.362a6.219,6.219,0,0,0-1.2-1.865,17.789,17.789,0,0,1,3.088,1.083c.571.357,1.418.628,1.648,1.058.568,1.066.485,2.249.788,3.384h-9.2v-.855h0V28.4h0v-.184h0v-.173l-.014-.116v-.057l.766.671,2.907-2.211,1.234.03ZM7.947,0h9.376A2.247,2.247,0,0,1,18.2.176a2.285,2.285,0,0,1,.752.5h0a2.317,2.317,0,0,1,.5.739,2.268,2.268,0,0,1,.176.872V7.363a2.247,2.247,0,0,1-.176.872,2.317,2.317,0,0,1-.5.739h0a2.331,2.331,0,0,1-.747.5,2.3,2.3,0,0,1-.872.173H15.7l-2.894,2.128-1.167-2.13H7.947a2.3,2.3,0,0,1-.872-.171,2.331,2.331,0,0,1-.742-.5h0a2.317,2.317,0,0,1-.5-.739,2.247,2.247,0,0,1-.176-.872V2.282A2.289,2.289,0,0,1,7.076.176,2.247,2.247,0,0,1,7.947,0Zm7.766,3.906a.858.858,0,1,1-.858.858A.858.858,0,0,1,15.713,3.906Zm-6.15,0a.858.858,0,1,1-.858.858A.858.858,0,0,1,9.563,3.906Zm3.075,0a.858.858,0,1,1-.858.858A.858.858,0,0,1,12.638,3.906ZM17.029.928H7.947A1.353,1.353,0,0,0,6.594,2.282V7.363A1.353,1.353,0,0,0,7.947,8.716h4.106a.346.346,0,0,1,.322.368l.728,1.321,2.165-1.592a.344.344,0,0,1,.244-.1h1.811A1.353,1.353,0,0,0,18.677,7.36V2.282A1.353,1.353,0,0,0,17.324.928ZM0,30.016c.406-5.267,1.4-3.294,5.893-6.107,1.24,3.218,7.195,3.435,8.5,0,3.879,2.479,5.814.606,5.79,6.107Zm7.292-6.358a1.927,1.927,0,0,1,.2-.7A2.826,2.826,0,0,1,6.377,20.9h-.06a.853.853,0,0,1-.4-.106,1.107,1.107,0,0,1-.444-.541c-.2-.471-.365-1.705.149-2.057l-.095-.06V18c-.022-.246-.027-.541-.03-.863-.03-1.164-.054-1.954-.988-2.247l-.4-.122.271-.328a15.334,15.334,0,0,1,2.339-2.374,5.955,5.955,0,0,1,2.707-1.313,3.248,3.248,0,0,1,2.631.736,4.729,4.729,0,0,1,.706.709,3.2,3.2,0,0,1,2.978,3.573,3.79,3.79,0,0,1-1.083,2.544A.812.812,0,0,1,15,18.4a.853.853,0,0,1,.3,1.042c-.1.317-.23.685-.349.993-.149.417-.363.5-.78.449a2.769,2.769,0,0,1-1.14,2.144l.13.52c-.4,1.965-4.7,2.179-5.863.111ZM31.6,4.041H22.31a1.367,1.367,0,0,0-1.353,1.353v6.012A1.367,1.367,0,0,0,22.31,12.76h1.353a.344.344,0,0,1,.322.365l.173,1.24,2.726-1.508a.344.344,0,0,1,.244-.1h4.783A1.367,1.367,0,0,0,33.264,11.4V5.414A1.367,1.367,0,0,0,31.911,4.06ZM27.106,7.308a.8.8,0,1,1-.578.234A.8.8,0,0,1,27.106,7.308Zm2.894,0a.8.8,0,1,1-.578.234A.8.8,0,0,1,30,7.308Zm-5.79,0a.8.8,0,1,1-.578.234A.8.8,0,0,1,24.21,7.308Zm-4.6,17.207.043-.016-.024.024h-.014Zm.9-1.213v.744l-.365.782.022.016.043.032.022.016h0l.032.027.022.019.022.016h0l.032.027.03.024.022.019.019.019.022.019.019.016.022.019.019.019.019.019h0l.027.027h0l.019.019.019.019.019.022.016.022.019.019h0l.016.019.019.022.016.022h0l.03.038h0l.016.022.016.022.019.024.016.022.016.024.035.046.016.024h0l.03.043.016.024v.024l.027.046h0v.027h0l.027.049h0v.054l.016.027V25.9l.154.084h0v.027h0l.024.051v.03l.014.03.027.062v.032l.024.062,1.275.988,2.593-2.03-.812-1.283v-.677a14.642,14.642,0,0,0,2.306-.271,3.145,3.145,0,0,0,1.462-.7,2.114,2.114,0,0,1-1.083-1.294c-.463-1.353-.024-2.347-.23-3.822-.271-1.979-1.6-2.68-2.9-2.385-1.416-1.353-4.534-.677-5.327,1.624a9.193,9.193,0,0,0-.16,2.929c-.057,1.581-.471,2.488-1.353,2.823a2.839,2.839,0,0,0,1.334.842,9.9,9.9,0,0,0,2.206.271Z" transform="translate(155 5024)" fill="#f48120" fill-rule="evenodd"/>
  </g>
</svg>
