<svg xmlns="http://www.w3.org/2000/svg" xmlns:xlink="http://www.w3.org/1999/xlink" width="45" height="45" viewBox="0 0 45 45">
  <defs>
    <linearGradient id="linear-gradient" x1="0.5" x2="0.156" y2="0.791" gradientUnits="objectBoundingBox">
      <stop offset="0" stop-color="#3e3e3e"/>
      <stop offset="1" stop-color="#1a1a1a"/>
    </linearGradient>
  </defs>
  <g id="Group_8408" data-name="Group 8408" transform="translate(-1511 932)">
    <g id="banner-main2" transform="translate(1511 -932)">
      <circle id="Ellipse_1" data-name="Ellipse 1" cx="22.5" cy="22.5" r="22.5" fill="url(#linear-gradient)"/>
    </g>
    <g id="Group_8341" data-name="Group 8341" transform="translate(1524 -919.207)">
      <path id="Path_9126" data-name="Path 9126" d="M8.709,20.906a.586.586,0,1,1,0,1.172H1.366a1.361,1.361,0,0,1-.965-.4,1.35,1.35,0,0,1-.4-.963V1.366A1.368,1.368,0,0,1,1.366,0H18.13A1.368,1.368,0,0,1,19.5,1.366v9.694a.586.586,0,0,1-1.172,0V1.366a.186.186,0,0,0-.057-.135.192.192,0,0,0-.135-.057H1.366a.2.2,0,0,0-.137.056.2.2,0,0,0-.056.137V20.714a.186.186,0,0,0,.057.135.193.193,0,0,0,.137.057ZM6.1,10.407a.959.959,0,0,1,.208-.936c.683-.4,1.624-.275,2.282-.735a1.8,1.8,0,0,0,.12-.232c.059-.137.115-.286.149-.388a4.765,4.765,0,0,1-.39-.557l-.4-.629a1.166,1.166,0,0,1-.225-.575.457.457,0,0,1,.04-.207.362.362,0,0,1,.137-.158.432.432,0,0,1,.1-.049A9.453,9.453,0,0,1,8.1,4.81a1.655,1.655,0,0,1,.049-.257A1.508,1.508,0,0,1,8.819,3.7a2.122,2.122,0,0,1,.561-.25c.126-.036-.108-.437.023-.451a3.213,3.213,0,0,1,2.083.983,1.543,1.543,0,0,1,.388.97L11.848,5.98h0a.286.286,0,0,1,.208.216.877.877,0,0,1-.11.541h0a.045.045,0,0,1-.007.013l-.451.742a3.832,3.832,0,0,1-.553.762L11,8.339a2.685,2.685,0,0,0,.295.379.055.055,0,0,1,.009.013,23.051,23.051,0,0,0,2.268.726l.02.011a.924.924,0,0,1,.212.934H6.1ZM18.38,14.2a.45.45,0,0,0-.331-.133.439.439,0,0,0-.323.146L17,14.973l2.043,1.973.735-.765a.478.478,0,0,0-.014-.654L18.38,14.2ZM15.19,20.874c-.27.086-.539.174-.807.262l-.807.27q-.951.313-1.066.345c-.072.022-.031-.275.131-.9l.5-1.946h0l3.2-3.267,2.041,1.964-3.2,3.268ZM5.7,17.134a.595.595,0,0,1,0-1.189H9.694a.595.595,0,0,1,0,1.189Zm0-3.718a.587.587,0,0,1,0-1.173h7.915a.587.587,0,0,1,0,1.173Z" transform="translate(0 -2)" fill="#fff"/>
    </g>
  </g>
</svg>
