<svg xmlns="http://www.w3.org/2000/svg" width="60" height="60" viewBox="0 0 60 60">
  <g id="Group_526" data-name="Group 526" transform="translate(-142 -5124)">
    <circle id="Ellipse_14" data-name="Ellipse 14" cx="30" cy="30" r="30" transform="translate(142 5124)" fill="#fff2e8"/>
    <path id="Path_9120" data-name="Path 9120" d="M.812,16.971a.771.771,0,0,1-.558-.213.812.812,0,0,1-.245-.567.8.8,0,0,1,.212-.57.775.775,0,0,1,.547-.249l2.412-.085a.782.782,0,0,1,.558.216.806.806,0,0,1,.195.86.785.785,0,0,1-.705.515l-2.415.082ZM19,11.441a1.681,1.681,0,0,1,.6.1,2.359,2.359,0,0,1,1.534,1.931,2.26,2.26,0,0,1-.033.681,2.625,2.625,0,0,1,.51.627,2.1,2.1,0,0,1,.279,1.112,2.006,2.006,0,0,1-.4,1.134,2.713,2.713,0,0,1-.669.638,2.547,2.547,0,0,1-.427,1.56,2,2,0,0,1-1.244.89A1.95,1.95,0,0,1,16.858,21.5a1.6,1.6,0,0,1-1-.851,1.713,1.713,0,0,1-1.141.879,1.755,1.755,0,0,1-1.439-.366,1.773,1.773,0,0,1-.65-1.052,1.764,1.764,0,0,1-.5-.1,2.367,2.367,0,0,1-1.523-1.86,2.179,2.179,0,0,1,.025-.746,2.585,2.585,0,0,1-.466-.567,2.165,2.165,0,0,1-.318-1.134,2.052,2.052,0,0,1,.4-1.188,2.774,2.774,0,0,1,.633-.621v-.233a2.511,2.511,0,0,1,.558-1.494,1.919,1.919,0,0,1,1.194-.723h0a1.456,1.456,0,0,1,.061-.216,1.863,1.863,0,0,1,.8-.947,1.71,1.71,0,0,1,1.224-.218,1.675,1.675,0,0,1,1.1.811,1.636,1.636,0,0,1,2.214-.647,1.908,1.908,0,0,1,.8.783,1.719,1.719,0,0,1,.156.42Zm-2.741.252v7.8a.4.4,0,0,1,.07.164c.109.681.4,1.009.728,1.1a1.1,1.1,0,0,0,.923-.216,1.038,1.038,0,0,0,.469-.794c0-.346-.245-.74-.915-1.086a.38.38,0,0,1-.05-.67.366.366,0,0,1,.387,0,2.286,2.286,0,0,1,1.26,1.336,1.32,1.32,0,0,0,.661-.53,1.807,1.807,0,0,0,.3-1.239.38.38,0,0,1,.176-.405,2.132,2.132,0,0,0,.65-.567,1.238,1.238,0,0,0,.254-.709,1.358,1.358,0,0,0-.19-.712,1.9,1.9,0,0,0-.5-.567.386.386,0,0,1-.156-.442,1.417,1.417,0,0,0,.07-.618,1.612,1.612,0,0,0-1.032-1.282.964.964,0,0,0-.382-.057,1.781,1.781,0,0,1-.36.666.366.366,0,0,1-.358.16.37.37,0,0,1-.3-.257.379.379,0,0,1,.1-.385.862.862,0,0,0,.137-1,1.124,1.124,0,0,0-.482-.468.97.97,0,0,0-.639-.1,1.186,1.186,0,0,0-.809.882Zm1.891,2.552a.381.381,0,0,1-.067-.515.367.367,0,0,1,.5-.095,2.774,2.774,0,0,1,.215.176,2.505,2.505,0,0,1,.812,1.667,2.681,2.681,0,0,1-.5,1.775c-.053.074-.114.147-.184.227a.369.369,0,0,1-.527.031.384.384,0,0,1-.031-.536,2.084,2.084,0,0,0,.131-.164,1.94,1.94,0,0,0,.36-1.273,1.752,1.752,0,0,0-.558-1.165,1.6,1.6,0,0,0-.153-.128Zm-2.635-2.158h0l-.017-.028h0c-.178-.734-.527-1.072-.887-1.134a1,1,0,0,0-.7.133,1.1,1.1,0,0,0-.513.44.939.939,0,0,0,.329,1.026.382.382,0,0,1,.02.533.367.367,0,0,1-.524.02,1.916,1.916,0,0,1-.558-.851,1.215,1.215,0,0,0-.65.442,1.75,1.75,0,0,0-.379,1.038,2.09,2.09,0,0,0,.02.343.382.382,0,0,1-.173.371,2.243,2.243,0,0,0-.633.567,1.3,1.3,0,0,0-.259.749,1.381,1.381,0,0,0,.209.726,1.812,1.812,0,0,0,.466.508.384.384,0,0,1,.139.434,1.463,1.463,0,0,0-.064.658,1.577,1.577,0,0,0,.363.788,1.6,1.6,0,0,0,.664.468,1.08,1.08,0,0,0,.3.057A2.439,2.439,0,0,1,13.969,18a.366.366,0,0,1,.387,0,.38.38,0,0,1-.05.67c-.7.366-.968.785-.968,1.154a.974.974,0,0,0,.393.74,1.039,1.039,0,0,0,.837.224c.36-.077.708-.414.887-1.151a.386.386,0,0,1,.056-.125Zm-2.755,1.806a.369.369,0,0,1,.528.01.385.385,0,0,1-.01.537,1.763,1.763,0,0,0-.516,1.182,1.923,1.923,0,0,0,.424,1.282.383.383,0,0,1-.057.532.368.368,0,0,1-.523-.058,2.712,2.712,0,0,1-.586-1.8,2.524,2.524,0,0,1,.739-1.7Zm-.318,15.06a.642.642,0,0,1-.134-1.27A8.511,8.511,0,0,0,9.92,23.252a13.808,13.808,0,0,1-2.312-3.36,10.284,10.284,0,0,1-1-4.407,10.506,10.506,0,0,1,1.221-4.713l.017-.028h0A8.845,8.845,0,0,1,12.137,6.93,9.339,9.339,0,0,1,16.6,6.28,10.116,10.116,0,0,1,20.86,7.673a8.9,8.9,0,0,1,3.723,4.287,9.656,9.656,0,0,1,.7,3.332,9.827,9.827,0,0,1-.722,3.913A13.946,13.946,0,0,1,21.936,23.3a9.168,9.168,0,0,0-2.058,3.338.643.643,0,0,1-.059,1.256l-.212.031c-.039.309-.064.638-.075.992h.07a.633.633,0,0,1,.711.547.639.639,0,0,1-.538.723l-.215.031v.128h0a5.164,5.164,0,0,1,0,.717H19.6a.644.644,0,0,1,.153,1.276l-.469.057a3.815,3.815,0,0,1-1.626,1.959,3.508,3.508,0,0,1-1.556.482,3.187,3.187,0,0,1-1.592-.337,3.4,3.4,0,0,1-1.467-1.449.645.645,0,0,1-.321-.746,5.648,5.648,0,0,1-.243-1.078h-.02a.633.633,0,0,1-.711-.547.639.639,0,0,1,.538-.723l.151-.02v-.984Zm1.04-1.44,5.128-.74a9.54,9.54,0,0,1,2.437-4.253,12.885,12.885,0,0,0,2.429-3.76,8.615,8.615,0,0,0,.641-3.437,8.4,8.4,0,0,0-.622-2.915A7.689,7.689,0,0,0,20.263,8.7,8.912,8.912,0,0,0,16.5,7.469a8.21,8.21,0,0,0-3.918.567,7.69,7.69,0,0,0-3.715,3.306,9.294,9.294,0,0,0-1.079,4.151,9.076,9.076,0,0,0,.887,3.893A12.737,12.737,0,0,0,10.8,22.466a9.469,9.469,0,0,1,2.674,5.047Zm4.933.584-4.8.692c0,.309.02.635,0,.978l4.741-.683c0-.349.02-.678.047-.987Zm-4.741,2.96a4.664,4.664,0,0,0,.148.715l4.587-.567a3.941,3.941,0,0,0,.017-.774h0v-.054l-4.741.686Zm.8,1.925a2.111,2.111,0,0,0,.583.44,2.034,2.034,0,0,0,1.021.2,2.351,2.351,0,0,0,1.035-.323,2.546,2.546,0,0,0,.8-.749Zm16.4-18.826a.772.772,0,0,1,.574.173.8.8,0,0,1-.415,1.409l-2.4.258a.767.767,0,0,1-.574-.176.8.8,0,0,1-.264-.852.787.787,0,0,1,.68-.566l2.4-.255ZM26.354,4.233a.794.794,0,0,1,.5-.337.781.781,0,0,1,.92.621.8.8,0,0,1-.117.6L26.315,7.154a.769.769,0,0,1-1.085.218.8.8,0,0,1-.215-1.1l1.339-2.042ZM15.985.757a.815.815,0,0,1,.24-.567.774.774,0,0,1,.856-.15.8.8,0,0,1,.466.745l-.059,2.453a.8.8,0,0,1-.393.719.773.773,0,0,1-.809-.018.8.8,0,0,1-.363-.735L15.985.748ZM3.91,4.7h0a.806.806,0,0,1-.025-1.112h0a.77.77,0,0,1,.53-.241.785.785,0,0,1,.558.213c.583.567,1.18,1.12,1.765,1.676a.809.809,0,0,1,.251.567.822.822,0,0,1-.209.567h0a.774.774,0,0,1-1.093.026C5.129,5.847,4.5,5.234,3.916,4.715Z" transform="translate(156.14 5136.211)" fill="#f48120"/>
  </g>
</svg>
