<svg xmlns="http://www.w3.org/2000/svg" width="60" height="60" viewBox="0 0 60 60">
  <g id="Group_525" data-name="Group 525" transform="translate(-142 -5243)">
    <circle id="Ellipse_14" data-name="Ellipse 14" cx="30" cy="30" r="30" transform="translate(142 5243)" fill="#fff2e8"/>
    <g id="Group_8336" data-name="Group 8336" transform="translate(281 5233.439)">
      <path id="Path_9121" data-name="Path 9121" d="M13,0A13,13,0,0,1,23.872,20.109L29.5,26.238,25.62,29.784l-5.426-5.969A13,13,0,1,1,13,0Zm.269,9.98.361-1.374-2.05-.72,4.164-2.232,2.215,4.222L15.775,9.2l-.3,1.442L13.264,9.98Zm6.9,9.891H7.191a.976.976,0,0,1-.974-.974l0-10.39H7.683v9.9H20.159v1.469Zm-3.214-6.948h1.878a.192.192,0,0,1,.191.191v3.912a.192.192,0,0,1-.191.191H16.946a.192.192,0,0,1-.191-.191V13.116a.191.191,0,0,1,.191-.194Zm-7.4-2.395h1.878a.192.192,0,0,1,.191.191v6.309a.192.192,0,0,1-.191.191H9.544a.192.192,0,0,1-.191-.191V10.722a.192.192,0,0,1,.191-.194ZM15.37,11.8v5.233a.192.192,0,0,1-.191.191H13.3a.192.192,0,0,1-.191-.191v-5.88l2.031.6c.032.01.063.017.095.024s.087.015.133.019ZM21.158,4.83A11.55,11.55,0,1,0,24.536,13,11.508,11.508,0,0,0,21.158,4.83Z" transform="translate(-124 24.56)" fill="#f48120"/>
    </g>
  </g>
</svg>
