<svg xmlns="http://www.w3.org/2000/svg" xmlns:xlink="http://www.w3.org/1999/xlink" width="45" height="45" viewBox="0 0 45 45">
  <defs>
    <linearGradient id="linear-gradient" x1="0.5" x2="0.156" y2="0.791" gradientUnits="objectBoundingBox">
      <stop offset="0" stop-color="#3e3e3e"/>
      <stop offset="1" stop-color="#1a1a1a"/>
    </linearGradient>
  </defs>
  <g id="Group_8407" data-name="Group 8407" transform="translate(-1251 932)">
    <g id="banner-main1" transform="translate(1251 -932)">
      <circle id="Ellipse_1" data-name="Ellipse 1" cx="22.5" cy="22.5" r="22.5" fill="url(#linear-gradient)"/>
    </g>
    <g id="Group_8338" data-name="Group 8338" transform="translate(1260 -922)">
      <path id="Path_9123" data-name="Path 9123" d="M9.216,11.624H10.1V9.756a3.656,3.656,0,0,1,1.076-2.588h0a3.651,3.651,0,0,1,5.177,0h0a3.655,3.655,0,0,1,1.076,2.588v1.868h.705a.286.286,0,0,1,.285.285v6.031a.287.287,0,0,1-.286.285H9.216a.287.287,0,0,1-.286-.285V11.91a.286.286,0,0,1,.286-.285ZM3.567,4.748A11.279,11.279,0,0,0,2.485,6.342a12.813,12.813,0,0,0-1.6,7.386,12.357,12.357,0,0,0,2.86,6.9A14.083,14.083,0,0,0,5.7,22.547a12.379,12.379,0,0,0,15.941-.164,14.052,14.052,0,0,0,1.906-1.952,12.328,12.328,0,0,0,2.581-5.8,12.5,12.5,0,0,0-.656-6.341A13.524,13.524,0,0,0,22.1,3.111,11.413,11.413,0,0,0,16.935.317,11.241,11.241,0,0,0,15.012.023,11.514,11.514,0,0,0,13,.071a.783.783,0,1,0,.171,1.556,9.956,9.956,0,0,1,1.741-.042,9.638,9.638,0,0,1,1.653.251A9.851,9.851,0,0,1,21.023,4.25,11.97,11.97,0,0,1,24,8.832a10.942,10.942,0,0,1,.576,5.551,10.765,10.765,0,0,1-2.257,5.068,12.488,12.488,0,0,1-1.692,1.738,10.815,10.815,0,0,1-13.956.14,12.527,12.527,0,0,1-1.738-1.7,10.793,10.793,0,0,1-2.492-6.031A11.249,11.249,0,0,1,3.851,7.108,10.106,10.106,0,0,1,4.923,5.56L5.037,8.7A.782.782,0,1,0,6.6,8.647L6.418,3.64a.782.782,0,0,0-.809-.754c-.027,0-.053,0-.08.007h0L.675,3.574A.782.782,0,0,0,.89,5.124l2.677-.376Zm7.958,6.877h4.483V9.735a2.236,2.236,0,0,0-.658-1.583h0a2.241,2.241,0,0,0-3.824,1.583v1.889Zm2.259,3.3.452,2.088L13,17.017l.364-2.116a.841.841,0,1,1,.424.023Z" transform="translate(0 0)" fill="#fff" fill-rule="evenodd"/>
    </g>
  </g>
</svg>
