<svg xmlns="http://www.w3.org/2000/svg" width="60" height="60" viewBox="0 0 60 60">
  <g id="Group_525" data-name="Group 525" transform="translate(-142 -5243)">
    <circle id="Ellipse_14" data-name="Ellipse 14" cx="30" cy="30" r="30" transform="translate(142 5243)" fill="#fff2e8"/>
    <g id="Group_8332" data-name="Group 8332" transform="translate(155.75 5254.47)">
      <path id="Path_9113" data-name="Path 9113" d="M23.365,24.018a1.166,1.166,0,0,1-.26.385l-1.181,1.181-.006.006a1.166,1.166,0,0,1-.385.26,1.158,1.158,0,0,1-.917,0,1.179,1.179,0,0,1-.376-.266l-.769-.76c-.047.021-.095.047-.139.068-.13.062-.266.115-.4.166a.025.025,0,0,1-.021.006c-.13.053-.269.1-.42.145a1.166,1.166,0,0,1-.145.041v.938a1.241,1.241,0,0,1-.089.459,1.114,1.114,0,0,1-.26.379l-.012.012a1.244,1.244,0,0,1-.385.254,1.215,1.215,0,0,1-.447.089H15.471a1.253,1.253,0,0,1-.459-.089,1.228,1.228,0,0,1-.645-.645,1.229,1.229,0,0,1-.089-.459V25.116c-.053-.021-.1-.036-.157-.056-.139-.053-.275-.115-.417-.178s-.275-.13-.405-.2c-.041-.021-.083-.047-.124-.068l-.66.672L12.5,25.3a1.225,1.225,0,0,1-.385.249,1.246,1.246,0,0,1-.894,0,1.215,1.215,0,0,1-.385-.246c-.006-.006-.012-.006-.012-.012L9.648,24.1a1.146,1.146,0,0,1-.266-.379,1.134,1.134,0,0,1-.095-.465,1.186,1.186,0,0,1,.095-.465,1.129,1.129,0,0,1,.266-.379l.755-.755c-.027-.053-.047-.1-.068-.145-.056-.13-.115-.266-.172-.411s-.1-.281-.145-.426a1.333,1.333,0,0,1-.041-.145H9.038a1.241,1.241,0,0,1-.459-.089,1.114,1.114,0,0,1-.379-.26l-.012-.012a1.292,1.292,0,0,1-.254-.379,1.215,1.215,0,0,1-.089-.447V17.659a1.13,1.13,0,0,1,.349-.843,1.166,1.166,0,0,1,.385-.26,1.229,1.229,0,0,1,.459-.089h1.071c.021-.053.036-.1.056-.157.053-.139.115-.275.178-.417s.13-.275.2-.405c.021-.041.047-.083.068-.124l-.672-.66-.015-.015a1.225,1.225,0,0,1-.249-.385,1.246,1.246,0,0,1,0-.894,1.215,1.215,0,0,1,.246-.385c.006-.006.006-.012.012-.012l1.192-1.181a1.166,1.166,0,0,1,.385-.26,1.158,1.158,0,0,1,.917,0,1.179,1.179,0,0,1,.376.266l.755.755c.053-.027.1-.047.145-.068.13-.056.266-.115.411-.172s.281-.1.426-.145c.053-.015.1-.033.145-.041V11.23a1.241,1.241,0,0,1,.089-.459,1.114,1.114,0,0,1,.26-.379l.012-.012a1.292,1.292,0,0,1,.379-.254,1.215,1.215,0,0,1,.447-.089h1.687a1.253,1.253,0,0,1,.459.089,1.228,1.228,0,0,1,.645.645,1.229,1.229,0,0,1,.089.459V12.3c.053.021.1.036.157.056.139.053.275.115.417.178s.275.13.405.2c.041.021.083.047.124.068l.66-.66a1.285,1.285,0,0,1,.385-.266,1.158,1.158,0,0,1,.917,0,1.126,1.126,0,0,1,.385.266l1.181,1.181.006.006a1.166,1.166,0,0,1,.26.385,1.142,1.142,0,0,1-.266,1.293l-.755.769c.021.047.047.095.068.139.053.118.109.249.166.391a.025.025,0,0,1,.006.021c.053.136.1.281.145.426a1.332,1.332,0,0,1,.041.145h.938a1.241,1.241,0,0,1,.459.089,1.114,1.114,0,0,1,.379.26l.012.012a1.292,1.292,0,0,1,.254.379,1.215,1.215,0,0,1,.089.447v1.687a1.188,1.188,0,0,1-.349.849,1.166,1.166,0,0,1-.385.26,1.229,1.229,0,0,1-.459.089H22.919c-.021.053-.036.1-.056.157-.053.139-.109.275-.178.417s-.13.275-.2.405c-.021.041-.047.083-.068.124l.66.66a1.285,1.285,0,0,1,.266.385,1.158,1.158,0,0,1,0,.917l.021-.015ZM13.488,34.7a16.266,16.266,0,0,1-1.071-31.72l.527,2.03a14.164,14.164,0,0,0,.547,27.545V30.383l3.962,3.252-3.962,3.252,0-2.19Zm6.051-31.96A16.264,16.264,0,0,1,21.732,34.12l-.337-.994-.337-.994c.083-.027.166-.056.246-.086A14.165,14.165,0,0,0,19.537,4.88V7.037L15.577,3.782,19.539.53V2.737ZM19.457,18.71a3.179,3.179,0,0,1-.056.589h-.006a2.924,2.924,0,0,1-.435,1.056,2.453,2.453,0,0,1-.349.432,2.9,2.9,0,0,1-.432.355,3.266,3.266,0,0,1-.506.269c-.006.006-.015.006-.021.012a3.017,3.017,0,0,1-.527.157,3.112,3.112,0,0,1-1.178,0,2.924,2.924,0,0,1-1.056-.435,2.788,2.788,0,0,1-.432-.355,3.055,3.055,0,0,1-.349-.432,3.266,3.266,0,0,1-.269-.506c-.006-.006-.006-.015-.012-.021a3.017,3.017,0,0,1-.157-.527,3.112,3.112,0,0,1,0-1.178,2.924,2.924,0,0,1,.435-1.056,2.454,2.454,0,0,1,.349-.432,2.9,2.9,0,0,1,.432-.355,3.547,3.547,0,0,1,.506-.272c.006-.006.015-.006.021-.012a3.3,3.3,0,0,1,.53-.157,3.112,3.112,0,0,1,1.178,0,2.822,2.822,0,0,1,.55.166,2.66,2.66,0,0,1,.506.272,2.788,2.788,0,0,1,.432.355,3.055,3.055,0,0,1,.349.432,3.266,3.266,0,0,1,.269.506c.006.006.006.015.012.021a3.018,3.018,0,0,1,.157.527,2.966,2.966,0,0,1,.059.589Z" transform="translate(0)" fill="#f48120" stroke="#f48120" stroke-width="0.5" fill-rule="evenodd"/>
    </g>
  </g>
</svg>
