<svg xmlns="http://www.w3.org/2000/svg" xmlns:xlink="http://www.w3.org/1999/xlink" width="60" height="60" viewBox="0 0 60 60">
  <defs>
    <clipPath id="clip-path">
      <rect id="Rectangle_2697" data-name="Rectangle 2697" width="45" height="27" transform="translate(0 1643)" fill="#fafafa"/>
    </clipPath>
  </defs>
  <g id="Group_7253" data-name="Group 7253" transform="translate(0 -0.457)">
    <circle id="Ellipse_30" data-name="Ellipse 30" cx="30" cy="30" r="30" transform="translate(0 0.457)" fill="#f48120"/>
    <g id="Mask_Group_322" data-name="Mask Group 322" transform="translate(9 -1625.543)" clip-path="url(#clip-path)">
      <g id="identity-verification-icon" transform="translate(1.445 1643)">
        <path id="Path_9105" data-name="Path 9105" d="M13.27,24.034v.646a.88.88,0,0,1-.879.873H8.467a.88.88,0,0,1-.88-.873v-.646H4.066A4.08,4.08,0,0,1,1.073,22.97,4.011,4.011,0,0,1,0,20V4.035A4.009,4.009,0,0,1,1.071,1.063,4.077,4.077,0,0,1,4.066,0H34.215a4.079,4.079,0,0,1,2.994,1.065,4.012,4.012,0,0,1,1.072,2.97v7.436a9.383,9.383,0,0,0-2.083-.61V4.035a2.075,2.075,0,0,0-.462-1.509,2.113,2.113,0,0,0-1.521-.458H4.066a2.12,2.12,0,0,0-1.522.457,2.082,2.082,0,0,0-.46,1.511V20a2.073,2.073,0,0,0,.462,1.508,2.113,2.113,0,0,0,1.521.458H25.394a9.236,9.236,0,0,0,.7,2.067ZM21.3,16.666a.733.733,0,0,1-.612-.811c0-.448.274-.811.612-.811h5.363a9.333,9.333,0,0,0-.829,1.622H21.3Zm0-4.434c-.338,0-.612-.364-.612-.811a.733.733,0,0,1,.612-.811H31.771A.6.6,0,0,1,32.3,11a9.4,9.4,0,0,0-2.829,1.227H21.3Zm0-4.436a.733.733,0,0,1-.612-.811.733.733,0,0,1,.612-.811H31.977a.733.733,0,0,1,.613.811.733.733,0,0,1-.613.811Zm-9.738,9.4H4.322a2.729,2.729,0,0,1,.447-.987,2.238,2.238,0,0,1,.707-.594c.829-.459,3.026-.6,3.848-1.249a8.991,8.991,0,0,0,.329-.885c0-.012-.007.02.034-.1a.511.511,0,0,0-.11-.384c-.152-.248-.408-.525-.523-.705l-.673-1.062A1.929,1.929,0,0,1,8,10.255a.751.751,0,0,1,.066-.347A.647.647,0,0,1,8.3,9.641a.8.8,0,0,1,.163-.083,16.859,16.859,0,0,1-.032-1.91,2.59,2.59,0,0,1,.083-.433,2.815,2.815,0,0,1,1.868-1.8c.42-.144.258-.487.682-.463a3.639,3.639,0,0,1,.5.065c.946.321.618.206,1.18.4a2.813,2.813,0,0,1,1.868,1.8,2.59,2.59,0,0,1,.083.433,16.859,16.859,0,0,1-.032,1.91.831.831,0,0,1,.164.083.651.651,0,0,1,.231.267.762.762,0,0,1,.067.347,1.945,1.945,0,0,1-.382.971l-.674,1.062c-.114.18-.371.458-.523.705a.507.507,0,0,0-.109.384l.033.1a9.432,9.432,0,0,0,.329.885c.823.648,3.019.79,3.848,1.249a2.229,2.229,0,0,1,.707.594,2.7,2.7,0,0,1,.447.987Z" fill="#fff" fill-rule="evenodd"/>
        <path id="Path_9106" data-name="Path 9106" d="M1174.262,550.676a7.29,7.29,0,1,1-7.346,7.29A7.318,7.318,0,0,1,1174.262,550.676Zm-2.1,6.235,1.112,1.032,2.907-2.926c.255-.257.415-.463.729-.141l1.02,1.038c.335.328.319.52,0,.827l-4.076,3.977c-.667.648-.55.687-1.226.022l-2.186-2.155a.29.29,0,0,1,.029-.455l1.184-1.219C1171.837,556.722,1171.98,556.738,1172.162,556.911Z" transform="translate(-1139.671 -537.918)" fill="#fff" fill-rule="evenodd"/>
      </g>
    </g>
  </g>
</svg>
