<svg xmlns="http://www.w3.org/2000/svg" width="60" height="60" viewBox="0 0 60 60">
  <g id="Group_523" data-name="Group 523" transform="translate(-652 -4270)">
    <circle id="Ellipse_14" data-name="Ellipse 14" cx="30" cy="30" r="30" transform="translate(652 4270)" fill="#fff2e8"/>
    <g id="Group_8329" data-name="Group 8329" transform="translate(666 4284)">
      <path id="Path_9108" data-name="Path 9108" d="M18.519,1.077A1.212,1.212,0,0,1,19.833,0a1.21,1.21,0,0,1,1.313,1.077V5.788a1.212,1.212,0,0,1-1.313,1.077,1.21,1.21,0,0,1-1.313-1.077V1.077Zm5.772,14.085a8.342,8.342,0,1,1-3.2.633,8.357,8.357,0,0,1,3.2-.633Zm-.627,4.876a.731.731,0,0,1,.215-.518h0a.736.736,0,0,1,1.257.521v3.919l2.93,1.739.024.016a.715.715,0,0,1,.311.433.736.736,0,0,1-.074.548l-.005.008a.1.1,0,0,1-.019.027.724.724,0,0,1-.431.308.736.736,0,0,1-.548-.074l-3.275-1.938a.758.758,0,0,1-.279-.263.72.72,0,0,1-.109-.38h0l0-4.344Zm5.514-1.385a6.856,6.856,0,1,0,1.5,2.241,6.9,6.9,0,0,0-1.5-2.241Zm-25.6-3.4c-.074,0-.141-.327-.141-.728s.058-.726.141-.726H7.159c.074,0,.141.327.141.726s-.058.728-.141.728Zm5.713,0c-.074,0-.141-.327-.141-.728s.058-.726.141-.726h3.584c.074,0,.141.327.141.726s-.058.728-.141.728Zm5.713,0c-.074,0-.141-.327-.141-.728S14.92,13.8,15,13.8h3.584c.074,0,.141.324.141.723a10.823,10.823,0,0,0-1.034.731ZM3.584,19.418c-.074,0-.141-.327-.141-.728s.058-.728.141-.728H7.167c.074,0,.141.327.141.728s-.058.728-.141.728Zm5.713,0c-.074,0-.141-.327-.141-.728s.058-.728.141-.728h3.584c.074,0,.141.327.141.728s-.058.728-.141.728ZM3.592,23.589c-.074,0-.141-.327-.141-.728s.058-.728.141-.728H7.175c.074,0,.141.327.141.728s-.058.728-.141.728Zm5.713,0c-.074,0-.141-.327-.141-.728s.058-.728.141-.728h3.584c.074,0,.141.327.141.728s-.058.728-.141.728ZM6.723,1.077A1.212,1.212,0,0,1,8.037,0,1.21,1.21,0,0,1,9.35,1.077V5.788A1.214,1.214,0,0,1,8.037,6.864,1.21,1.21,0,0,1,6.723,5.788V1.077ZM1.446,10.3H26.458V4.876a.654.654,0,0,0-.194-.468.668.668,0,0,0-.468-.194H23.4a.728.728,0,0,1,0-1.457h2.4a2.124,2.124,0,0,1,2.122,2.122v8.611a10.958,10.958,0,0,0-1.475-.4V11.748h-25V25.793a.654.654,0,0,0,.194.468.668.668,0,0,0,.468.194H13.995a10.67,10.67,0,0,0,.51,1.47H2.122a2.112,2.112,0,0,1-1.5-.622A2.1,2.1,0,0,1,0,25.807V4.881A2.124,2.124,0,0,1,2.122,2.76h2.56a.728.728,0,1,1,0,1.457H2.122a.654.654,0,0,0-.468.194.668.668,0,0,0-.194.468V10.3H1.446Zm10-6.085a.728.728,0,1,1,0-1.457h4.881a.728.728,0,0,1,0,1.457Z" fill="#f48120"/>
    </g>
  </g>
</svg>
