<svg width="80" height="80" viewBox="0 0 80 80" fill="none" xmlns="http://www.w3.org/2000/svg">
<g clip-path="url(#clip0_1_228)">
<mask id="mask0_1_228" style="mask-type:luminance" maskUnits="userSpaceOnUse" x="0" y="0" width="80" height="80">
<path d="M80 0H0V80H80V0Z" fill="white"/>
</mask>
<g mask="url(#mask0_1_228)">
<path d="M40 80C62.0914 80 80 62.0914 80 40C80 17.9086 62.0914 0 40 0C17.9086 0 0 17.9086 0 40C0 62.0914 17.9086 80 40 80Z" fill="#FFF2E8"/>
<path fill-rule="evenodd" clip-rule="evenodd" d="M56.4319 49.3521H15.1925C14.7418 49.3521 14.4038 49.0141 14.4038 48.5634V16.7887C14.4038 16.338 14.7418 16 15.1925 16H56.4319C56.8826 16 57.2207 16.338 57.2207 16.7887V48.5634C57.2207 49.0141 56.8826 49.3521 56.4319 49.3521ZM15.9812 47.7747H55.6432V17.5775H15.9812V47.7747Z" fill="#F48120"/>
<path fill-rule="evenodd" clip-rule="evenodd" d="M45.3897 26.7042H22.4038C21.953 26.7042 21.615 26.3662 21.615 25.9155C21.615 25.4648 21.953 25.1268 22.4038 25.1268H45.3897C45.8404 25.1268 46.1784 25.4648 46.1784 25.9155C46.1784 26.3662 45.8404 26.7042 45.3897 26.7042Z" fill="#F48120"/>
<path fill-rule="evenodd" clip-rule="evenodd" d="M47.3052 28.6197C45.8404 28.6197 44.6009 27.3803 44.6009 25.9155C44.6009 24.338 45.8404 23.2113 47.3052 23.2113C48.8826 23.2113 50.0094 24.338 50.0094 25.9155C50.0094 27.3803 48.8826 28.6197 47.3052 28.6197ZM47.3052 24.7887C46.7418 24.7887 46.1784 25.2394 46.1784 25.9155C46.1784 26.4789 46.7418 27.0423 47.3052 27.0423C47.9812 27.0423 48.4319 26.4789 48.4319 25.9155C48.4319 25.2394 47.9812 24.7887 47.3052 24.7887Z" fill="#F48120"/>
<path fill-rule="evenodd" clip-rule="evenodd" d="M49.2206 33.4648H26.2347C25.784 33.4648 25.446 33.1268 25.446 32.6761C25.446 32.2254 25.784 31.8873 26.2347 31.8873H49.2206C49.6714 31.8873 50.0094 32.2254 50.0094 32.6761C50.0094 33.1268 49.6714 33.4648 49.2206 33.4648Z" fill="#F48120"/>
<path fill-rule="evenodd" clip-rule="evenodd" d="M24.3192 35.3803C22.8545 35.3803 21.615 34.1408 21.615 32.6761C21.615 31.2113 22.8545 29.9718 24.3192 29.9718C25.784 29.9718 27.0235 31.2113 27.0235 32.6761C27.0235 34.1408 25.784 35.3803 24.3192 35.3803ZM24.3192 31.5493C23.6432 31.5493 23.1925 32 23.1925 32.6761C23.1925 33.3521 23.6432 33.8028 24.3192 33.8028C24.8826 33.8028 25.446 33.3521 25.446 32.6761C25.446 32 24.8826 31.5493 24.3192 31.5493Z" fill="#F48120"/>
<path fill-rule="evenodd" clip-rule="evenodd" d="M61.1643 64C61.0516 64 60.939 64 60.939 64C60.7136 63.8873 60.4883 63.7746 60.3756 63.662L57.8967 59.2676C56.6573 59.493 55.4178 59.493 54.1784 59.1549L51.6995 63.4366C51.4742 63.7746 51.0235 63.8873 50.6854 63.7746L45.7277 60.8451C45.5023 60.7324 45.3897 60.6197 45.277 60.3944C45.277 60.169 45.277 59.9437 45.3897 59.7183L47.9812 55.3239C47.6432 54.8732 47.3052 54.4225 47.0798 53.9718C46.7418 53.4084 46.4038 52.7324 46.1784 52.169H41.2207C40.77 52.169 40.4319 51.831 40.4319 51.3803V48.5634C40.4319 48.1127 40.77 47.7746 41.2207 47.7746C41.6714 47.7746 42.0094 48.1127 42.0094 48.5634V50.5915H46.7418C47.0798 50.5915 47.4178 50.8169 47.5305 51.1549C47.7559 51.831 47.9812 52.507 48.4319 53.1831C48.77 53.7465 49.108 54.3099 49.446 54.7606C49.6714 54.9859 49.784 55.3239 49.5587 55.662L47.1925 59.831L50.7981 61.9718L53.1643 57.9155C53.277 57.5775 53.615 57.4648 54.0657 57.4648C55.4178 57.9155 56.77 57.9155 58.2347 57.6901C58.5728 57.5775 58.9108 57.8028 59.0235 58.0282L61.3897 62.1972L64.9953 60.0563L62.7418 56.1127C62.6291 55.8873 62.6291 55.4366 62.8545 55.2113C63.9812 54.1972 64.77 52.8451 65.2207 51.493C65.3333 51.1549 65.6714 50.9296 66.0094 50.9296H70.5164V46.7606H66.1221C65.784 46.7606 65.446 46.5352 65.3333 46.1972C65.108 45.4084 64.8826 44.6197 64.4319 43.9437C64.0939 43.3803 63.6432 42.8169 63.1925 42.2535C62.9671 42.0282 62.9671 41.6901 63.0798 41.3521L65.3333 37.5211L61.7277 35.3803L59.4742 39.2113C59.3615 39.5493 59.0235 39.662 58.6854 39.5493C57.8967 39.4366 57.2207 39.3239 56.4319 39.3239C55.9812 39.3239 55.6432 38.9859 55.6432 38.5352C55.6432 38.0845 55.9812 37.7465 56.4319 37.7465C57.108 37.7465 57.784 37.8592 58.4601 37.9718L60.7136 33.9155C60.939 33.5775 61.5023 33.4648 61.8404 33.5775L66.7981 36.507C67.0235 36.6197 67.1361 36.7324 67.1361 36.9577C67.2488 37.1831 67.2488 37.4084 67.1361 37.6338L64.77 41.6901C65.108 42.1408 65.446 42.5915 65.784 43.1549C66.2347 43.831 66.4601 44.507 66.6854 45.1831H71.3052C71.7559 45.1831 72.0939 45.5211 72.0939 45.9718V51.7183C72.0939 52.169 71.7559 52.507 71.3052 52.507H66.4601C66.0094 53.7465 65.3333 54.8732 64.4319 55.8873L66.7981 59.9437C67.0235 60.2817 66.9108 60.8451 66.4601 61.0704L61.5023 63.8873C61.3897 64 61.277 64 61.1643 64Z" fill="#F48120"/>
<path fill-rule="evenodd" clip-rule="evenodd" d="M56.4319 53.6338C54.6291 53.6338 52.939 52.7324 52.0376 51.1549C51.5869 50.3662 51.3615 49.4648 51.3615 48.5634C51.3615 48.1127 51.6995 47.7746 52.1502 47.7746C52.4883 47.7746 52.939 48.1127 52.939 48.5634C52.939 49.2394 53.0516 49.8028 53.3897 50.3662C54.2911 52.0563 56.5446 52.6197 58.2347 51.6056C59.0235 51.1549 59.5869 50.3662 59.8122 49.4648C60.0376 48.5634 59.9249 47.662 59.4742 46.7606C58.7981 45.7465 57.6714 45.0704 56.4319 45.0704C55.9812 45.0704 55.6432 44.7324 55.6432 44.2817C55.6432 43.831 55.9812 43.493 56.4319 43.493C58.2347 43.493 59.9249 44.507 60.8263 45.9718C61.5023 47.2113 61.7277 48.5634 61.3897 49.9155C61.0516 51.2676 60.1502 52.2817 59.0235 52.9577C58.1221 53.4085 57.3333 53.6338 56.4319 53.6338Z" fill="#F48120"/>
<path fill-rule="evenodd" clip-rule="evenodd" d="M49.2207 40.2254H39.6432C39.1925 40.2254 38.8545 39.8873 38.8545 39.4366C38.8545 38.9859 39.1925 38.6479 39.6432 38.6479H49.2207C49.6714 38.6479 50.0094 38.9859 50.0094 39.4366C50.0094 39.8873 49.6714 40.2254 49.2207 40.2254ZM35.8122 40.2254H22.8545C22.4038 40.2254 22.0657 39.8873 22.0657 39.4366C22.0657 38.9859 22.4038 38.6479 22.8545 38.6479H35.8122C36.2629 38.6479 36.6009 38.9859 36.6009 39.4366C36.6009 39.8873 36.2629 40.2254 35.8122 40.2254Z" fill="#F48120"/>
<path fill-rule="evenodd" clip-rule="evenodd" d="M37.7277 42.1408C36.2629 42.1408 35.0235 40.9014 35.0235 39.4366C35.0235 37.9718 36.2629 36.7324 37.7277 36.7324C39.1925 36.7324 40.4319 37.9718 40.4319 39.4366C40.4319 40.9014 39.1925 42.1408 37.7277 42.1408ZM37.7277 38.3099C37.1643 38.3099 36.6009 38.8732 36.6009 39.4366C36.6009 40.1127 37.1643 40.5634 37.7277 40.5634C38.4038 40.5634 38.8545 40.1127 38.8545 39.4366C38.8545 38.8732 38.4038 38.3099 37.7277 38.3099Z" fill="#F48120"/>
</g>
</g>
<defs>
<clipPath id="clip0_1_228">
<rect width="80" height="80" fill="white"/>
</clipPath>
</defs>
</svg>
