<svg width="64" height="64" viewBox="0 0 64 64" fill="none" xmlns="http://www.w3.org/2000/svg">
<circle cx="32" cy="32" r="32" fill="#F48120"/>
<path fill-rule="evenodd" clip-rule="evenodd" d="M33.4223 21.912C33.0206 21.912 32.6942 21.5856 32.6942 21.1838V19.3258H29.5933V21.1838C29.5933 21.5856 29.2668 21.912 28.8651 21.912C28.4634 21.912 28.137 21.5856 28.137 21.1838V18.5977C28.137 18.1959 28.4634 17.8695 28.8651 17.8695H33.4098C33.8115 17.8695 34.1379 18.1959 34.1379 18.5977V21.1838C34.1379 21.5856 33.8115 21.912 33.4223 21.912Z" fill="white"/>
<path fill-rule="evenodd" clip-rule="evenodd" d="M33.4225 46.3677H28.8778C28.4761 46.3677 28.1497 46.0413 28.1497 45.6395V43.0533C28.1497 42.6516 28.4761 42.3252 28.8778 42.3252C29.2795 42.3252 29.606 42.6516 29.606 43.0533V44.9114H32.7069V43.0533C32.7069 42.6516 33.0333 42.3252 33.435 42.3252C33.8368 42.3252 34.1632 42.6516 34.1632 43.0533V45.6395C34.1381 46.0538 33.8116 46.3677 33.4225 46.3677Z" fill="white"/>
<path fill-rule="evenodd" clip-rule="evenodd" d="M21.8094 26.7209C21.6211 26.7209 21.4454 26.6455 21.2947 26.5074L19.4618 24.6745C19.1856 24.3983 19.1856 23.9338 19.4618 23.6576L22.6757 20.4437C22.9519 20.1675 23.4164 20.1675 23.6926 20.4437L25.5255 22.2766C25.8017 22.5528 25.8017 23.0173 25.5255 23.2935C25.2493 23.5697 24.7848 23.5697 24.5086 23.2935L23.1904 21.9753L20.9934 24.1723L22.3116 25.4905C22.5878 25.7667 22.5878 26.2312 22.3116 26.5074C22.1735 26.6455 21.9852 26.7209 21.8094 26.7209Z" fill="white"/>
<path fill-rule="evenodd" clip-rule="evenodd" d="M39.0971 44.0199C38.9087 44.0199 38.733 43.9446 38.5823 43.8065L36.762 41.9736C36.4858 41.6974 36.4858 41.2329 36.762 40.9567C37.0381 40.6805 37.5027 40.6805 37.7789 40.9567L39.0971 42.2749L41.2941 40.0779L39.9759 38.7597C39.6997 38.4835 39.6997 38.019 39.9759 37.7428C40.252 37.4666 40.7166 37.4666 40.9928 37.7428L42.8257 39.5757C43.1019 39.8519 43.1019 40.3164 42.8257 40.5926L39.6118 43.8065C39.4737 43.9446 39.2854 44.0199 39.0971 44.0199Z" fill="white"/>
<path fill-rule="evenodd" clip-rule="evenodd" d="M20.203 35.1189H17.6168C17.2151 35.1189 16.8887 34.7925 16.8887 34.3907V29.8461C16.8887 29.4443 17.2151 29.1179 17.6168 29.1179H20.203C20.6047 29.1179 20.9312 29.4443 20.9312 29.8461C20.9312 30.2478 20.6047 30.5742 20.203 30.5742H18.345V33.6751H20.203C20.6047 33.6751 20.9312 34.0015 20.9312 34.4033C20.9312 34.805 20.6047 35.1189 20.203 35.1189Z" fill="white"/>
<path fill-rule="evenodd" clip-rule="evenodd" d="M44.6713 35.1195H42.0851C41.6833 35.1195 41.3569 34.793 41.3569 34.3913C41.3569 33.9896 41.6833 33.6632 42.0851 33.6632H43.9431V30.5623H42.0851C41.6833 30.5623 41.3569 30.2358 41.3569 29.8341C41.3569 29.4324 41.6833 29.106 42.0851 29.106H44.6713C45.073 29.106 45.3994 29.4324 45.3994 29.8341V34.3788C45.3994 34.7931 45.073 35.1195 44.6713 35.1195Z" fill="white"/>
<path fill-rule="evenodd" clip-rule="evenodd" d="M20.203 35.1189H17.6168C17.2151 35.1189 16.8887 34.7925 16.8887 34.3907V29.8461C16.8887 29.4443 17.2151 29.1179 17.6168 29.1179H20.203C20.6047 29.1179 20.9312 29.4443 20.9312 29.8461C20.9312 30.2478 20.6047 30.5742 20.203 30.5742H18.345V33.6751H20.203C20.6047 33.6751 20.9312 34.0015 20.9312 34.4033C20.9312 34.805 20.6047 35.1189 20.203 35.1189Z" fill="white"/>
<path fill-rule="evenodd" clip-rule="evenodd" d="M44.6713 35.1195H42.0851C41.6833 35.1195 41.3569 34.793 41.3569 34.3913C41.3569 33.9896 41.6833 33.6632 42.0851 33.6632H43.9431V30.5623H42.0851C41.6833 30.5623 41.3569 30.2358 41.3569 29.8341C41.3569 29.4324 41.6833 29.106 42.0851 29.106H44.6713C45.073 29.106 45.3994 29.4324 45.3994 29.8341V34.3788C45.3994 34.7931 45.073 35.1195 44.6713 35.1195Z" fill="white"/>
<path fill-rule="evenodd" clip-rule="evenodd" d="M23.1904 44.0199C23.0021 44.0199 22.8138 43.9446 22.6757 43.8065L19.4618 40.5926C19.1856 40.3164 19.1856 39.8519 19.4618 39.5757L21.2947 37.7428C21.5709 37.4666 22.0354 37.4666 22.3116 37.7428C22.5878 38.019 22.5878 38.4835 22.3116 38.7597L20.9934 40.0779L23.1904 42.2749L24.5086 40.9567C24.7848 40.6805 25.2493 40.6805 25.5255 40.9567C25.8017 41.2329 25.8017 41.6974 25.5255 41.9736L23.7051 43.8065C23.567 43.9446 23.3787 44.0199 23.1904 44.0199Z" fill="white"/>
<path fill-rule="evenodd" clip-rule="evenodd" d="M40.4906 26.7209C40.3023 26.7209 40.1265 26.6455 39.9759 26.5074C39.6997 26.2312 39.6997 25.7667 39.9759 25.4905L41.2941 24.1723L39.0971 21.9753L37.7789 23.2935C37.5027 23.5697 37.0381 23.5697 36.762 23.2935C36.4858 23.0173 36.4858 22.5528 36.762 22.2766L38.5949 20.4437C38.8711 20.1675 39.3356 20.1675 39.6118 20.4437L42.8257 23.6576C42.9638 23.7957 43.0391 23.9715 43.0391 24.1723C43.0391 24.3732 42.9638 24.549 42.8257 24.6871L40.9928 26.5074C40.8547 26.6455 40.6663 26.7209 40.4906 26.7209Z" fill="white"/>
<path fill-rule="evenodd" clip-rule="evenodd" d="M37.2767 23.5061C37.1386 23.5061 37.0005 23.4684 36.875 23.3931C35.7702 22.665 34.565 22.1628 33.2719 21.8991C32.8827 21.8238 32.6316 21.4346 32.7069 21.0454C32.7823 20.6563 33.1715 20.4052 33.5606 20.4805C35.0295 20.7818 36.4105 21.3593 37.6659 22.1879C38.0049 22.4013 38.0927 22.8533 37.8668 23.1922C37.7412 23.3931 37.5027 23.5061 37.2767 23.5061Z" fill="white"/>
<path fill-rule="evenodd" clip-rule="evenodd" d="M20.2026 30.5746C20.1524 30.5746 20.1021 30.5746 20.0519 30.562C19.6627 30.4867 19.4116 30.0975 19.487 29.7083C19.7883 28.2395 20.3658 26.8585 21.1944 25.6031C21.4078 25.2641 21.8597 25.1762 22.1987 25.4022C22.5377 25.6156 22.6255 26.0676 22.3996 26.4066C21.6714 27.5113 21.1692 28.7166 20.9056 30.0096C20.8428 30.3361 20.5415 30.5746 20.2026 30.5746Z" fill="white"/>
<path fill-rule="evenodd" clip-rule="evenodd" d="M42.0846 30.5749C41.7456 30.5749 41.4443 30.3364 41.3815 29.9974C41.1179 28.7044 40.6157 27.4991 39.8876 26.3944C39.6742 26.0554 39.762 25.616 40.0884 25.39C40.4274 25.1766 40.8668 25.2645 41.0928 25.5909C41.9214 26.8463 42.4863 28.2273 42.8002 29.6961C42.8755 30.0853 42.6244 30.4745 42.2352 30.5498C42.185 30.5749 42.1348 30.5749 42.0846 30.5749Z" fill="white"/>
<path fill-rule="evenodd" clip-rule="evenodd" d="M33.4227 43.7816C33.0837 43.7816 32.7824 43.5431 32.7196 43.2041C32.6443 42.8149 32.8954 42.4257 33.2846 42.3504C34.5777 42.0868 35.7829 41.5846 36.8877 40.8564C37.2266 40.643 37.666 40.7309 37.892 41.0573C38.1054 41.3963 38.0175 41.8357 37.6911 42.0617C36.4357 42.8902 35.0547 43.4552 33.5859 43.769C33.5106 43.7816 33.4603 43.7816 33.4227 43.7816Z" fill="white"/>
<path fill-rule="evenodd" clip-rule="evenodd" d="M21.8098 38.9733C21.5712 38.9733 21.3453 38.8603 21.2072 38.6468C20.3786 37.3914 19.8136 36.0104 19.4998 34.5416C19.4245 34.1524 19.6756 33.7632 20.0647 33.6879C20.4539 33.6126 20.8431 33.8637 20.9184 34.2528C21.1821 35.5459 21.6842 36.7511 22.4124 37.8559C22.6258 38.1949 22.5379 38.6343 22.2115 38.8603C22.0734 38.9356 21.9353 38.9733 21.8098 38.9733Z" fill="white"/>
<path fill-rule="evenodd" clip-rule="evenodd" d="M28.878 43.7812C28.8278 43.7812 28.7776 43.7812 28.7274 43.7687C27.2585 43.4674 25.8776 42.8899 24.6221 42.0613C24.2832 41.8479 24.1953 41.3959 24.4213 41.057C24.6347 40.718 25.0866 40.6301 25.4256 40.8561C26.5304 41.5842 27.7356 42.0864 29.0287 42.35C29.4179 42.4254 29.669 42.8146 29.5936 43.2037C29.5058 43.5553 29.2045 43.7812 28.878 43.7812Z" fill="white"/>
<path fill-rule="evenodd" clip-rule="evenodd" d="M40.4907 38.9733C40.3526 38.9733 40.2145 38.9356 40.0889 38.8603C39.75 38.6468 39.6621 38.1949 39.8881 37.8559C40.6162 36.7511 41.1184 35.5459 41.382 34.2528C41.4574 33.8637 41.8465 33.6126 42.2357 33.6879C42.6249 33.7632 42.876 34.1524 42.8007 34.5416C42.4994 36.0104 41.9219 37.3914 41.0933 38.6468C40.9552 38.8603 40.7167 38.9733 40.4907 38.9733Z" fill="white"/>
<path fill-rule="evenodd" clip-rule="evenodd" d="M25.0235 23.5061C24.785 23.5061 24.559 23.3931 24.4209 23.1797C24.2075 22.8407 24.2954 22.4013 24.6218 22.1753C25.8772 21.3467 27.2582 20.7818 28.727 20.4679C29.1162 20.3926 29.5054 20.6437 29.5807 21.0329C29.656 21.4221 29.405 21.8112 29.0158 21.8866C27.7227 22.1502 26.5175 22.6524 25.4127 23.3805C25.2871 23.4684 25.1491 23.5061 25.0235 23.5061Z" fill="white"/>
<path fill-rule="evenodd" clip-rule="evenodd" d="M31.1503 38.9731C29.3174 38.9731 27.5974 38.2575 26.3043 36.9644C25.0112 35.6713 24.2957 33.9514 24.2957 32.1184C24.2957 30.2855 25.0112 28.5656 26.3043 27.2725C27.5974 25.9794 29.3174 25.2638 31.1503 25.2638C32.9832 25.2638 34.7032 25.9794 35.9962 27.2725C37.2893 28.5656 38.0049 30.2855 38.0049 32.1184C38.0049 33.9514 37.2893 35.6713 35.9962 36.9644C34.6906 38.2575 32.9707 38.9731 31.1503 38.9731ZM31.1503 26.7201C28.1749 26.7201 25.752 29.1431 25.752 32.1184C25.752 35.0938 28.1749 37.5168 31.1503 37.5168C34.1257 37.5168 36.5486 35.0938 36.5486 32.1184C36.5486 29.1431 34.1257 26.7201 31.1503 26.7201Z" fill="white"/>
<path fill-rule="evenodd" clip-rule="evenodd" d="M30.3092 34.5543C30.1209 34.5543 29.9451 34.479 29.7944 34.3409L28.1122 32.6586C27.836 32.3824 27.836 31.9179 28.1122 31.6417C28.3884 31.3655 28.8529 31.3655 29.1291 31.6417L30.2966 32.8093L33.1464 29.9595C33.4226 29.6833 33.8871 29.6833 34.1633 29.9595C34.4395 30.2357 34.4395 30.7002 34.1633 30.9764L30.8113 34.3284C30.6732 34.479 30.4975 34.5543 30.3092 34.5543Z" fill="white"/>
<path fill-rule="evenodd" clip-rule="evenodd" d="M10.8877 44.5599C10.486 44.5599 10.1595 44.2335 10.1595 43.8317V17.8318C10.1595 14.3543 12.9843 11.5295 16.4618 11.5295H44.5081C44.9098 11.5295 45.2362 11.856 45.2362 12.2577C45.2362 12.6594 44.9098 12.9858 44.5081 12.9858H16.4744C13.8003 12.9858 11.6158 15.1703 11.6158 17.8443V43.8317C11.6158 44.2335 11.2894 44.5599 10.8877 44.5599Z" fill="white"/>
<path fill-rule="evenodd" clip-rule="evenodd" d="M41.9724 15.522C41.784 15.522 41.6083 15.4466 41.4576 15.3085C41.1814 15.0323 41.1814 14.5678 41.4576 14.2916L43.4914 12.2578L41.4576 10.224C41.1814 9.94785 41.1814 9.48334 41.4576 9.20715C41.7338 8.93095 42.1983 8.93095 42.4745 9.20715L45.0231 11.7557C45.1611 11.8938 45.2365 12.0695 45.2365 12.2704C45.2365 12.4713 45.1611 12.647 45.0231 12.7851L42.4745 15.3336C42.3364 15.4466 42.1607 15.522 41.9724 15.522Z" fill="white"/>
<path fill-rule="evenodd" clip-rule="evenodd" d="M10.8875 48.8787C9.29309 48.8787 8 47.5856 8 45.9912C8 44.3969 9.29309 43.1038 10.8875 43.1038C12.4819 43.1038 13.775 44.3969 13.775 45.9912C13.775 47.5856 12.4819 48.8787 10.8875 48.8787ZM10.8875 44.5601C10.0966 44.5601 9.44374 45.2003 9.44374 46.0038C9.44374 46.7947 10.084 47.4475 10.8875 47.4475C11.691 47.4475 12.3312 46.8073 12.3312 46.0038C12.3312 45.2003 11.6784 44.5601 10.8875 44.5601Z" fill="white"/>
<path fill-rule="evenodd" clip-rule="evenodd" d="M45.8131 52.7204H17.7794C17.3777 52.7204 17.0513 52.394 17.0513 51.9922C17.0513 51.5905 17.3777 51.2641 17.7794 51.2641H45.8257C48.4998 51.2641 50.6842 49.0796 50.6842 46.4056V20.4056C50.6842 20.0039 51.0106 19.6775 51.4124 19.6775C51.8141 19.6775 52.1405 20.0039 52.1405 20.4056V46.4056C52.128 49.8956 49.2907 52.7204 45.8131 52.7204Z" fill="white"/>
<path fill-rule="evenodd" clip-rule="evenodd" d="M20.3153 55.2685C20.127 55.2685 19.9512 55.1932 19.8006 55.0551L17.2521 52.5066C16.9759 52.2304 16.9759 51.7659 17.2521 51.4897L19.8006 48.9412C20.0768 48.665 20.5413 48.665 20.8175 48.9412C21.0937 49.2173 21.0937 49.6819 20.8175 49.958L18.7962 51.9918L20.83 54.0256C21.1062 54.3018 21.1062 54.7663 20.83 55.0425C20.6919 55.1932 20.5036 55.2685 20.3153 55.2685Z" fill="white"/>
<path fill-rule="evenodd" clip-rule="evenodd" d="M51.4003 21.134C49.8059 21.134 48.5128 19.8409 48.5128 18.2465C48.5128 16.6521 49.8059 15.359 51.4003 15.359C52.9947 15.359 54.2878 16.6521 54.2878 18.2465C54.2878 19.8409 52.9947 21.134 51.4003 21.134ZM51.4003 16.8153C50.6094 16.8153 49.9566 17.4556 49.9566 18.259C49.9566 19.05 50.5968 19.7028 51.4003 19.7028C52.1912 19.7028 52.844 19.0625 52.844 18.259C52.844 17.4556 52.1912 16.8153 51.4003 16.8153Z" fill="white"/>
</svg>
