<svg xmlns="http://www.w3.org/2000/svg" width="60" height="60" viewBox="0 0 60 60">
  <g id="Group_524" data-name="Group 524" transform="translate(0 -0.118)">
    <circle id="Ellipse_14" data-name="Ellipse 14" cx="30" cy="30" r="30" transform="translate(0 0.118)" fill="#fff2e8"/>
    <g id="_4294594401582885787" data-name="4294594401582885787" transform="translate(15.703 15.73)">
      <g id="Path_780" data-name="Path 780" transform="translate(15.292 16.92)">
        <path id="Path_9012" data-name="Path 9012" d="M74.244,85.173l.035-.019a14.315,14.315,0,0,0,6.233-6.414l.019-.039c.147-.3.283-.607.4-.906L68.676,74.949l1.973,11.52a14.39,14.39,0,0,0,3.595-1.3Z" transform="translate(-68.676 -74.949)" fill="none"/>
      </g>
      <g id="Path_782" data-name="Path 782" transform="translate(0 0)">
        <path id="Path_9014" data-name="Path 9014" d="M14.9,17.168c-.006-.05-.009-.081-.011-.112s0-.038,0-.08v-.056a.3.3,0,0,1,.006-.073c.006-.026.006-.047.012-.084l.032-.151L19.215,2.037a14.606,14.606,0,0,0-2.433-.207A14.386,14.386,0,0,0,17.2,30.6Z" transform="translate(-2.603 -1.83)" fill="none"/>
      </g>
    </g>
    <path id="Path_9114" data-name="Path 9114" d="M16.555,27.226H1.747a1.751,1.751,0,0,1-1.234-.513L.468,26.66A1.74,1.74,0,0,1,0,25.489V1.747A1.744,1.744,0,0,1,.513.513L.567.468A1.737,1.737,0,0,1,1.737,0H21.511a1.751,1.751,0,0,1,1.747,1.747V15.6a.751.751,0,0,1-.014.147,6.731,6.731,0,1,1-6.689,11.472Zm3.388-8h.677a.468.468,0,0,1,.335.138.482.482,0,0,1,.14.337v2.486H23.34a.468.468,0,0,1,.468.468v.7a.5.5,0,0,1-.14.337l-.019.016a.468.468,0,0,1-.316.122H19.666a.234.234,0,0,1-.234-.234V19.666a.478.478,0,0,1,.473-.442Zm1.814-3.856V1.747a.258.258,0,0,0-.246-.234H1.747a.253.253,0,0,0-.155.054l-.019.019a.248.248,0,0,0-.073.173V25.482a.234.234,0,0,0,.054.152l.021.019a.234.234,0,0,0,.171.075H15.218a6.731,6.731,0,0,1,5.619-10.421,6.556,6.556,0,0,1,.913.063Zm2.894,2.861a5.385,5.385,0,1,0,1.571,3.807,5.385,5.385,0,0,0-1.571-3.807ZM4.867,17.346H6.975a.276.276,0,0,1,.283.276V19.73a.276.276,0,0,1-.276.276H4.874A.276.276,0,0,1,4.6,19.73V17.622a.276.276,0,0,1,.276-.276Zm5.151,2.173a.855.855,0,0,1,0-1.681h2.243a.855.855,0,0,1,0,1.681ZM4.867,5.186H6.975a.276.276,0,0,1,.283.276V7.569a.276.276,0,0,1-.276.276H4.874A.276.276,0,0,1,4.6,7.569V5.462a.276.276,0,0,1,.276-.276Zm5.151,2.17a.78.78,0,0,1-.7-.838.782.782,0,0,1,.7-.841h8.3a.782.782,0,0,1,.7.841.78.78,0,0,1-.7.838Zm-5.724,5.31a.468.468,0,0,1,.089-.66.522.522,0,0,1,.7-.021l.492.508,1.229-1.255a.452.452,0,0,1,.66.07.522.522,0,0,1,.042.7L5.869,13.682a.454.454,0,0,1-.66-.07l-.037-.044a.454.454,0,0,1-.073-.061Zm5.713.63a.782.782,0,0,1-.7-.841.782.782,0,0,1,.7-.841H18.32a.782.782,0,0,1,.7.841.782.782,0,0,1-.7.841Z" transform="translate(16 16.118)" fill="#f48120"/>
  </g>
</svg>
