<svg id="banner-main5" xmlns="http://www.w3.org/2000/svg" xmlns:xlink="http://www.w3.org/1999/xlink" width="45" height="45" viewBox="0 0 45 45">
  <defs>
    <linearGradient id="linear-gradient" x1="0.5" x2="0.156" y2="0.791" gradientUnits="objectBoundingBox">
      <stop offset="0" stop-color="#3e3e3e"/>
      <stop offset="1" stop-color="#1a1a1a"/>
    </linearGradient>
  </defs>
  <g id="Group_8411" data-name="Group 8411">
    <circle id="Ellipse_1" data-name="Ellipse 1" cx="22.5" cy="22.5" r="22.5" fill="url(#linear-gradient)"/>
    <g id="Group_8340" data-name="Group 8340" transform="translate(10 14.33)">
      <path id="Path_9125" data-name="Path 9125" d="M15.092,0A7.236,7.236,0,0,1,21.15,11.193l3.132,3.412-2.16,1.974L19.1,13.258a7.238,7.238,0,0,1-8.393-.273c-.759.765-1.484,1.492-2.094,2.1L4.416,10.944,1.468,13.807,0,12.339H0L4.442,8.022C5.829,9.409,7.2,10.78,8.6,12.163l.65-.656A7.237,7.237,0,0,1,15.092,0Zm-4.73,10.387,2.891-2.918L11.531,5.748,16.372,5.7v4.884L14.718,8.935c-.83.84-1.875,1.9-2.93,2.962a5.664,5.664,0,0,0,7.338-8.585h0a5.664,5.664,0,0,0-8.765,7.076Z" fill="#fff"/>
    </g>
  </g>
</svg>
