<svg id="Group_530" data-name="Group 530" xmlns="http://www.w3.org/2000/svg" width="60" height="60" viewBox="0 0 60 60">
  <circle id="Ellipse_14" data-name="Ellipse 14" cx="30" cy="30" r="30" fill="#fff2e8"/>
  <path id="Path_9116" data-name="Path 9116" d="M34.588,10.6l.9.9a.6.6,0,0,1,0,.859l-.724.724a4.836,4.836,0,0,1,.449,1.2h.937a.6.6,0,0,1,.6.6V16.16a.6.6,0,0,1-.6.6H35.124a4.806,4.806,0,0,1-.53,1.161l.664.661a.6.6,0,0,1,0,.859l-.9.9a.6.6,0,0,1-.862.012l-.724-.724a4.677,4.677,0,0,1-1.2.449v.937a.6.6,0,0,1-.6.6H29.7a.6.6,0,0,1-.6-.6V19.975a4.923,4.923,0,0,1-1.17-.524l-.661.658a.6.6,0,0,1-.859,0l-.9-.9a.6.6,0,0,1,0-.859l.724-.724a4.719,4.719,0,0,1-.449-1.2h-.937a.6.6,0,0,1-.6-.6V14.556a.6.6,0,0,1,.6-.6H25.88a4.806,4.806,0,0,1,.53-1.161l-.661-.67a.6.6,0,0,1,0-.859l.9-.9a.6.6,0,0,1,.859,0l.724.724a4.719,4.719,0,0,1,1.2-.449V9.708a.6.6,0,0,1,.6-.6h1.269a.6.6,0,0,1,.6.6v1.02a4.806,4.806,0,0,1,1.161.53l.661-.661a.6.6,0,0,1,.856,0Zm-21.4,5.264a.658.658,0,0,1-.6-.706.643.643,0,0,1,.6-.706h7.5a.661.661,0,0,1,.6.706.646.646,0,0,1-.6.706ZM8.229,13.766h2.526a.224.224,0,0,1,.236.236v2.529a.221.221,0,0,1-.236.227H8.229a.221.221,0,0,1-.236-.233V13.993a.224.224,0,0,1,.236-.236Zm0,6.239h2.526a.224.224,0,0,1,.236.236v2.526a.224.224,0,0,1-.236.236H8.229a.224.224,0,0,1-.236-.236V20.233A.224.224,0,0,1,8.229,20ZM13.185,22.1a.658.658,0,0,1-.6-.7.643.643,0,0,1,.6-.706H18.3a.658.658,0,0,1,.6.706.643.643,0,0,1-.6.7ZM8.96,10.525a.4.4,0,0,1-.542-.069l-.057-.048-.754-.775a.428.428,0,0,1,.072-.6.5.5,0,0,1,.658-.024l.4.425L10.207,8.08a.416.416,0,0,1,.6.141.473.473,0,0,1-.048.658l-1.8,1.652Zm4.19-.6c-.329,0-.548-.329-.548-.706s.218-.706.548-.706h8.678a.661.661,0,0,1,.6.706.646.646,0,0,1-.6.706ZM1.029,21.044A3.359,3.359,0,0,1,3.441,19.79V.9c-2.75.269-2.433,2.816-2.415,5.183V21.044ZM4.471,3.618h25.8a.706.706,0,0,1,.509.212A.718.718,0,0,1,31,4.339V6.434H29.665V4.788H4.471V20.307h0a.437.437,0,0,1-.374.434c-3.926.607-4.115,5.264-.114,5.931H29.665V24.719H31v2.574a.721.721,0,0,1-.212.509h0a.718.718,0,0,1-.509.212H3.947a4.6,4.6,0,0,1-3.2-1.736,5.171,5.171,0,0,1-.769-3.283V6.093c0-2.894-.03-6.021,4-6.093h.054a.44.44,0,0,1,.434.443Zm26.035,9.25a2.5,2.5,0,1,1-2.5,2.5,2.5,2.5,0,0,1,2.5-2.5Z" transform="translate(12.64 15.993)" fill="#f48120" fill-rule="evenodd"/>
</svg>
