<svg xmlns="http://www.w3.org/2000/svg" width="60" height="60" viewBox="0 0 60 60">
  <g id="Group_522" data-name="Group 522" transform="translate(-652 -4401)">
    <circle id="Ellipse_14" data-name="Ellipse 14" cx="30" cy="30" r="30" transform="translate(652 4401)" fill="#fff2e8"/>
    <path id="Path_9109" data-name="Path 9109" d="M25.514,14.687v-2.48c.114-.48.321-.621.558-.666.642-.1.57,3-.558,3.146ZM13.435,22.418,16.2,30.535l1.388-4.819-.681-.744a1.124,1.124,0,0,1-.2-1.176c.369-.729,1.131-.594,1.844-.594.747,0,1.667-.141,1.9.792a1.245,1.245,0,0,1-.24.978l-.681.744,1.388,4.819,2.5-8.118c1.8,1.622,8.151,1.949,10.136,3.056a5.252,5.252,0,0,1,1.652,1.4A6.715,6.715,0,0,1,36.432,30.5l.414,1.835a1.822,1.822,0,0,1-1.907,1.781H1.907A1.824,1.824,0,0,1,0,32.332L.414,30.5a6.724,6.724,0,0,1,1.233-3.626,5.143,5.143,0,0,1,1.652-1.4c1.988-1.107,8.334-1.433,10.136-3.056ZM9.866,6.257V4.671c.228-1.9,1.113-2.66,2.564-2.441A7.8,7.8,0,0,1,18.443,0c2.987-.06,5.536.639,7.386,2.534.972.969,1.388,2.471,1.137,4.6.051,2.093.282,3-.4,3.371,0,.057-.006.114-.009.174l-.468.294a.8.8,0,0,1,.8.606,2.541,2.541,0,0,1,.15.711,4.289,4.289,0,0,1-.018.8c-.111,1.017-.579,2.075-1.442,2.2a.462.462,0,0,1-.111,0v.147a6.148,6.148,0,0,1-1.9,4.255c-2.2,2.3-5.815,3.44-8.954.84a8.44,8.44,0,0,1-1.679-1.6l.015-.015-.012-.009a3.932,3.932,0,0,1-1.514-2.654.488.488,0,0,1-.009-.093h0V15.3a.371.371,0,0,1-.141,0c-.867-.126-1.331-1.188-1.442-2.2a4.559,4.559,0,0,1-.018-.8,2.518,2.518,0,0,1,.15-.711.783.783,0,0,1,.9-.594.953.953,0,0,1,.552.324v-.354l-.351-.2a4.2,4.2,0,0,1-.03-.87,10.021,10.021,0,0,1-1.17-3.638Zm14.916,4.273a5.073,5.073,0,0,0-2.2-2.636,23.815,23.815,0,0,0-2.264-.888,9.776,9.776,0,0,0-5.071.246c-.408.159-.84.354-1.3.585a3.679,3.679,0,0,0-1.883,2.342v5.992c.348,1.67.57,1.6,1.64,2.651l1.856,1.817a2.708,2.708,0,0,0,1.116.534c1.373.324,4.261.195,5.344-.945,1.613-1.568,2.876-2.288,2.762-4.8v-4.9Zm-4.882.279c-.489.186-.594.594-.321.747.321.18.729-.09,1.041-.189a3.079,3.079,0,0,1,2.5.153,3.571,3.571,0,0,1,.576.456,1.994,1.994,0,0,0-.351-.7c-.7-.9-2.5-.951-3.446-.462Zm-3.092,0c.489.186.594.594.321.747-.321.18-.729-.09-1.041-.189a3.079,3.079,0,0,0-2.5.153,3.571,3.571,0,0,0-.576.456,1.994,1.994,0,0,1,.351-.7c.708-.9,2.495-.951,3.446-.462Zm-2.552,1.754A.2.2,0,0,1,14,12.423a.237.237,0,0,1,.126-.291,3.393,3.393,0,0,1,2.447,0,.24.24,0,0,1,.132.288.2.2,0,0,1-.252.15,3.448,3.448,0,0,0-.4-.12.51.51,0,0,1,.021.153.567.567,0,1,1-1.092-.216,2.746,2.746,0,0,0-.72.177Zm6.564-.168a.556.556,0,0,0-.036.2.567.567,0,1,0,1.077-.249,3.743,3.743,0,0,1,.747.162.2.2,0,0,0,.249-.159.239.239,0,0,0-.138-.285,3.785,3.785,0,0,0-1.224-.2,3.839,3.839,0,0,0-1.209.2.234.234,0,0,0-.138.282.2.2,0,0,0,.249.156,3.663,3.663,0,0,1,.423-.111Zm-3.1,3.859a.262.262,0,1,1,.336-.4.6.6,0,0,0,.378.168.613.613,0,0,0,.393-.171.262.262,0,1,1,.333.4,1.105,1.105,0,0,1-.732.288,1.121,1.121,0,0,1-.708-.288Zm-.822,1.7a.275.275,0,0,1,.258-.486,2.712,2.712,0,0,0,1.253.342,2.536,2.536,0,0,0,1.236-.339.276.276,0,0,1,.267.483,3.032,3.032,0,0,1-1.5.4,3.23,3.23,0,0,1-1.514-.4Zm-5.566-3.269v-2.48c-.114-.48-.321-.621-.558-.666-.639-.1-.579,3,.558,3.146Z" transform="translate(664 4414.002)" fill="#f48120" fill-rule="evenodd"/>
  </g>
</svg>
