<svg id="Group_531" data-name="Group 531" xmlns="http://www.w3.org/2000/svg" width="60" height="60" viewBox="0 0 60 60">
  <circle id="Ellipse_14" data-name="Ellipse 14" cx="30" cy="30" r="30" fill="#fff2e8"/>
  <g id="Group_8333" data-name="Group 8333" transform="translate(14.139 14.515)">
    <path id="Path_9115" data-name="Path 9115" d="M18.008,1.048A1.18,1.18,0,0,1,19.286,0a1.176,1.176,0,0,1,1.278,1.048v4.58a1.18,1.18,0,0,1-1.278,1.048,1.176,1.176,0,0,1-1.278-1.048V1.048Zm-14.3,19.1H6.637a.339.339,0,0,1,.338.338V22.65a.339.339,0,0,1-.338.338H3.71a.339.339,0,0,1-.338-.338V20.487a.338.338,0,0,1,.338-.338Zm11.209-6.165h2.927a.342.342,0,0,1,.232.093,10.421,10.421,0,0,0-2.935,2.749h-.225a.339.339,0,0,1-.338-.338V14.325a.34.34,0,0,1,.338-.341Zm-5.6,0h2.927a.339.339,0,0,1,.338.338v2.163a.339.339,0,0,1-.338.338H9.314a.339.339,0,0,1-.338-.338V14.322a.339.339,0,0,1,.338-.338Zm-5.6,0H6.637a.339.339,0,0,1,.338.338v2.163a.339.339,0,0,1-.338.338H3.71a.339.339,0,0,1-.338-.338V14.322a.339.339,0,0,1,.338-.338Zm5.6,6.165h2.927a.339.339,0,0,1,.338.338V22.65a.339.339,0,0,1-.338.338H9.314a.339.339,0,0,1-.338-.338V20.487a.338.338,0,0,1,.338-.338Zm17.4-4.778A8.108,8.108,0,1,1,15.5,22.862a8.241,8.241,0,0,1,5.047-7.546,8.535,8.535,0,0,1,6.165.054Zm-4.35,7.275a1.355,1.355,0,0,1,.359-.279V18.84a.652.652,0,0,1,1.3,0v3.526a1.377,1.377,0,0,1,.56.56h2.52a.651.651,0,0,1,0,1.3h-2.52a1.376,1.376,0,1,1-2.223-1.582Zm6.061-4.469a6.114,6.114,0,1,0,1.311,1.709,6.29,6.29,0,0,0-1.311-1.709ZM6.539,1.048A1.18,1.18,0,0,1,7.817,0,1.178,1.178,0,0,1,9.095,1.048v4.58A1.181,1.181,0,0,1,7.817,6.676,1.178,1.178,0,0,1,6.539,5.628V1.048ZM1.407,10.014h24.32V4.742a.635.635,0,0,0-.188-.454.649.649,0,0,0-.454-.188H22.753a.707.707,0,0,1,0-1.415h2.331a2.062,2.062,0,0,1,2.063,2.063v8.372a10.575,10.575,0,0,0-1.435-.385V11.426H1.407V25.084a.635.635,0,0,0,.188.454.649.649,0,0,0,.454.188H13.607a10.4,10.4,0,0,0,.5,1.43H2.063A2.062,2.062,0,0,1,0,25.095V4.747A2.062,2.062,0,0,1,2.063,2.685H4.551a.707.707,0,0,1,0,1.415H2.063a.635.635,0,0,0-.454.188.649.649,0,0,0-.188.454v5.274H1.407v0ZM11.134,4.1a.707.707,0,1,1,0-1.415h4.747a.707.707,0,1,1,0,1.415Z" transform="translate(0.861 0.485)" fill="#f48120"/>
  </g>
</svg>
