<svg id="Group_528" data-name="Group 528" xmlns="http://www.w3.org/2000/svg" width="60" height="60" viewBox="0 0 60 60">
  <circle id="Ellipse_14" data-name="Ellipse 14" cx="30" cy="30" r="30" fill="#fff2e8"/>
  <g id="Group_8334" data-name="Group 8334" transform="translate(15.977 13.249)">
    <path id="Path_9118" data-name="Path 9118" d="M15.518,5.541a13.954,13.954,0,0,1,7.4,3.1L24.338,7.16a.762.762,0,0,1,1.077-.016l.954.927a.764.764,0,0,1,.016,1.074l-1.459,1.521A14.022,14.022,0,1,1,3.4,10.331L1.756,8.788a.759.759,0,0,1-.025-1.074l.919-.963a.764.764,0,0,1,1.074-.025L5.472,8.371A13.927,13.927,0,0,1,13.061,5.5V2.454h-2.7A.656.656,0,0,1,9.707,1.8V.654A.656.656,0,0,1,10.361,0h7.853a.656.656,0,0,1,.654.654V1.8a.656.656,0,0,1-.654.654h-2.7V5.541Zm-2.637,8.81h1.2a.4.4,0,0,1,.4.4v5H18.16a.4.4,0,0,1,.4.4v1.2a.4.4,0,0,1-.4.4H12.483v-7a.4.4,0,0,1,.4-.4ZM14.023,8.1A11.387,11.387,0,1,1,2.637,19.482,11.388,11.388,0,0,1,14.023,8.1Z" transform="translate(0.024 -0.249)" fill="#f48120" fill-rule="evenodd"/>
  </g>
</svg>
