<svg id="Group_529" data-name="Group 529" xmlns="http://www.w3.org/2000/svg" width="60" height="60" viewBox="0 0 60 60">
  <circle id="Ellipse_14" data-name="Ellipse 14" cx="30" cy="30" r="30" fill="#fff2e8"/>
  <path id="Path_9117" data-name="Path 9117" d="M22.335,13.75a5.635,5.635,0,0,1,.65.21,6.235,6.235,0,0,1,.888.44l.032.023a5.875,5.875,0,0,1,.75.55,5.788,5.788,0,0,1,.683.7h0a5.75,5.75,0,0,1,.555.8,6.5,6.5,0,0,1,.42.885h0a5.665,5.665,0,0,1,.268.968,5.75,5.75,0,0,1,.09,1.023v2.143h0a8.074,8.074,0,0,0,.06.918,7.41,7.41,0,0,0,.163.88h0a4.443,4.443,0,0,0,.288.8,5.213,5.213,0,0,0,.45.778h0a4.735,4.735,0,0,0,.658.735,7.565,7.565,0,0,0,.945.735.448.448,0,0,1-.25.82h-16.2a.45.45,0,0,1-.233-.835,8.466,8.466,0,0,0,.948-.72,4.513,4.513,0,0,0,.653-.75l.015-.023a5.385,5.385,0,0,0,.435-.75,4.728,4.728,0,0,0,.293-.808s0,0,0-.017a6.25,6.25,0,0,0,.158-.85,7.41,7.41,0,0,0,.057-.925V19.348a5.862,5.862,0,0,1,.09-1.022,5.638,5.638,0,0,1,.27-.974,6.35,6.35,0,0,1,.425-.893,5.7,5.7,0,0,1,.56-.8h0a5.8,5.8,0,0,1,.685-.7,5.92,5.92,0,0,1,.8-.573,5.708,5.708,0,0,1,.9-.435,5.227,5.227,0,0,1,.665-.205,1.363,1.363,0,0,1,.4-.658,1.685,1.685,0,0,1,2.043,0,1.338,1.338,0,0,1,.4.658ZM16.07.935A1.05,1.05,0,0,1,17.213,0a1.044,1.044,0,0,1,1.14.935V5.023a1.049,1.049,0,0,1-1.14.935,1.048,1.048,0,0,1-1.143-.935ZM3.32,17.98h2.6a.3.3,0,0,1,.3.3v1.93a.3.3,0,0,1-.3.3H3.31a.3.3,0,0,1-.31-.3v-1.93a.3.3,0,0,1,.3-.3Zm10-5.5h2.605a.3.3,0,0,1,.208.083,9.308,9.308,0,0,0-2.618,2.453h-.2a.3.3,0,0,1-.3-.3V12.783a.3.3,0,0,1,.3-.3Zm-5,0h2.605a.3.3,0,0,1,.3.3v1.933a.3.3,0,0,1-.3.3H8.312a.3.3,0,0,1-.313-.3V12.78a.3.3,0,0,1,.3-.3Zm-5,0h2.6a.3.3,0,0,1,.3.3v1.933a.3.3,0,0,1-.3.3H3.31a.3.3,0,0,1-.31-.3V12.78a.3.3,0,0,1,.3-.3Zm5,5.5h2.605a.3.3,0,0,1,.3.3v1.93a.3.3,0,0,1-.3.3H8.312a.3.3,0,0,1-.313-.3v-1.93a.3.3,0,0,1,.3-.3ZM5.835.935A1.049,1.049,0,0,1,6.975,0a1.046,1.046,0,0,1,1.14.935V5.023a1.049,1.049,0,0,1-1.14.935,1.046,1.046,0,0,1-1.14-.935Zm-4.585,8H22.96v-4.7a.558.558,0,0,0-.17-.405.57.57,0,0,0-.405-.17h-2.08a.633.633,0,0,1,0-1.263h2.08A1.843,1.843,0,0,1,24.228,4.25v7.458a9.486,9.486,0,0,0-1.283-.343V10.2H1.25V22.385a.565.565,0,0,0,.168.405.58.58,0,0,0,.408.17H12.143a9.25,9.25,0,0,0,.443,1.275H1.835A1.84,1.84,0,0,1,0,22.4V4.25A1.843,1.843,0,0,1,1.84,2.4H4.062a.633.633,0,0,1,0,1.263H1.84a.567.567,0,0,0-.4.17.58.58,0,0,0-.168.405V8.938H1.25Zm8.685-5.28a.633.633,0,0,1,0-1.25h4.238a.633.633,0,1,1,0,1.25Zm13.5,24.975a2.52,2.52,0,0,1-.3.808,2.6,2.6,0,0,1-.575.68,2.52,2.52,0,0,1-.773.453,2.615,2.615,0,0,1-.888.15,2.655,2.655,0,0,1-.888-.15A2.568,2.568,0,0,1,18.37,28.6a.275.275,0,0,1,.223-.318H23.16a.275.275,0,0,1,.275.275.25.25,0,0,1,0,.075Zm-.845-13.5a4.683,4.683,0,0,0-.728-.22.43.43,0,0,1-.37-.373.613.613,0,0,0-.16-.4.625.625,0,0,0-.408-.115.605.605,0,0,0-.4.108.613.613,0,0,0-.158.4h0a.428.428,0,0,1-.365.38,4.5,4.5,0,0,0-.775.218,4.628,4.628,0,0,0-.718.348,4.93,4.93,0,0,0-.643.463,4.722,4.722,0,0,0-.55.56h0a4.7,4.7,0,0,0-.45.65,4.958,4.958,0,0,0-.345.725,4.373,4.373,0,0,0-.218.775,4.59,4.59,0,0,0-.07.825V21.5a8.037,8.037,0,0,1-.06,1,7.787,7.787,0,0,1-.175.923s0,0,0,.02a5.482,5.482,0,0,1-.333.913,6.068,6.068,0,0,1-.483.845.153.153,0,0,0-.017.025,5.278,5.278,0,0,1-.75.843H27.4a5.293,5.293,0,0,1-.75-.835h0a6,6,0,0,1-.5-.868,5.25,5.25,0,0,1-.333-.918h0a7.328,7.328,0,0,1-.175-.945,8.654,8.654,0,0,1-.06-.975h0V19.47a4.483,4.483,0,0,0-.073-.825,4.2,4.2,0,0,0-.213-.768h0a4.75,4.75,0,0,0-.788-1.368h0a4.633,4.633,0,0,0-.55-.558,4.863,4.863,0,0,0-.633-.453H23.3a5.6,5.6,0,0,0-.718-.353Z" transform="translate(16 15)" fill="#f48120"/>
</svg>
