<svg xmlns="http://www.w3.org/2000/svg" width="60" height="60" viewBox="0 0 60 60">
  <g id="Group_526" data-name="Group 526" transform="translate(-142 -5124)">
    <circle id="Ellipse_14" data-name="Ellipse 14" cx="30" cy="30" r="30" transform="translate(142 5124)" fill="#fff2e8"/>
    <g id="Group_8365" data-name="Group 8365" transform="translate(152 5139.327)">
      <path id="Path_9154" data-name="Path 9154" d="M27.135,10.779l-.1-3.66L21.022,8.856a7.527,7.527,0,0,1-1.6.176,7.634,7.634,0,0,1-1.659-.176L12.017,7.1v3.713c.163,1.927,5.695,2.518,7.393,2.6,1.362.065,6.736-.643,7.442-1.753a2.009,2.009,0,0,0,.284-.878ZM.829,27.1H4.94a.714.714,0,0,1-.532-.686V8.229a.712.712,0,0,1,.709-.709H8.291a4.391,4.391,0,0,0-.167,1.11h-2.5V26.214h28.8V8.63H31.994a4.387,4.387,0,0,0-.163-1.11h2.994a.712.712,0,0,1,.709.709V26.414A.708.708,0,0,1,35,27.1h4.3a.831.831,0,0,1,.829.829h0a.831.831,0,0,1-.829.829H.829A.831.831,0,0,1,0,27.929H0A.83.83,0,0,1,.829,27.1ZM8.862,23.08a.48.48,0,1,1,0-.96H27.6a.48.48,0,1,1,0,.96Zm0-2.864a.48.48,0,1,1,0-.96H23.207a.48.48,0,0,1,0,.96Zm0-2.864a.48.48,0,1,1,0-.96H27.749a.48.48,0,1,1,0,.96ZM18.9,27.413h2.331a.4.4,0,0,1,.4.4h0a.4.4,0,0,1-.4.4H18.9a.4.4,0,0,1-.4-.4h0a.4.4,0,0,1,.4-.4ZM29.574,4.483V8.957h.14a.178.178,0,0,1,.176.176v1.2a.178.178,0,0,1-.176.176h-.144v.421a.389.389,0,0,1,.317.382h0a.392.392,0,0,1-.389.389h-.7a.39.39,0,0,1-.389-.389h0a.392.392,0,0,1,.317-.382v-.421h-.14a.178.178,0,0,1-.176-.176v-1.2a.176.176,0,0,1,.176-.176h.144V4.745L21.414,7.021a8.2,8.2,0,0,1-3.977,0L9.359,4.608l-.731-.219c-.911-.372-.682-1.244.163-1.447L17.93.212a4.72,4.72,0,0,1,2.828,0l8.973,2.7c.976.238,1.169,1.14.033,1.512l-.189.062Z" transform="translate(0 0)" fill="#f48120" fill-rule="evenodd"/>
    </g>
  </g>
</svg>
