<svg xmlns="http://www.w3.org/2000/svg" width="60" height="60" viewBox="0 0 60 60">
  <g id="Group_525" data-name="Group 525" transform="translate(-142 -5243)">
    <circle id="Ellipse_14" data-name="Ellipse 14" cx="30" cy="30" r="30" transform="translate(142 5243)" fill="#fff2e8"/>
    <g id="Group_8366" data-name="Group 8366" transform="translate(154.995 5256.011)">
      <path id="Path_9155" data-name="Path 9155" d="M25.418,2.471A1.571,1.571,0,0,0,24.2,2.186a1.669,1.669,0,0,0-1.05.676L21.7,4.9a9.856,9.856,0,0,0-1.622-.544c-.572-.143-1.108-.258-1.68-.344l-.459-2.672a1.662,1.662,0,0,0-.646-1.05A1.533,1.533,0,0,0,16.071.036l-3.351.6a1.667,1.667,0,0,0-1.05.657,1.546,1.546,0,0,0-.286,1.221l.429,2.441a10.517,10.517,0,0,0-1.537.792,13.731,13.731,0,0,0-1.394.962L6.612,5.146A1.508,1.508,0,0,0,5.419,4.86a1.641,1.641,0,0,0-1.05.687L2.436,8.31a1.592,1.592,0,0,0,.4,2.271L4.88,12.03a9.856,9.856,0,0,0-.544,1.622c-.143.572-.258,1.108-.344,1.68l-2.669.456c-2.265.426-.984,3.673-.706,5.218a1.689,1.689,0,0,0,.649,1.05,1.546,1.546,0,0,0,1.221.286l2.441-.429a10.517,10.517,0,0,0,.792,1.537c.286.487.63.962.962,1.421L5.116,27.114a1.508,1.508,0,0,0-.286,1.193,1.658,1.658,0,0,0,.676,1.05l2.785,1.955a1.556,1.556,0,0,0,1.221.258,1.751,1.751,0,0,0,1.078-.649l1.451-2.07a9.856,9.856,0,0,0,1.622.544c.572.143,1.105.258,1.68.344l.459,2.672a1.666,1.666,0,0,0,.649,1.05,1.533,1.533,0,0,0,1.221.258l3.348-.6a1.689,1.689,0,0,0,1.05-.649,1.546,1.546,0,0,0,.286-1.221l-.429-2.441a10.518,10.518,0,0,0,1.537-.792,15.727,15.727,0,0,0,1.421-.962l2.243,1.564a1.546,1.546,0,0,0,1.221.286,1.594,1.594,0,0,0,1.05-.676l1.955-2.788a1.556,1.556,0,0,0,.258-1.221,1.726,1.726,0,0,0-.657-1.078L28.882,21.72a9.856,9.856,0,0,0,.544-1.622c.143-.572.258-1.108.344-1.68l2.672-.459a1.643,1.643,0,0,0,1.05-.657,1.533,1.533,0,0,0,.258-1.221l-.6-3.348a1.689,1.689,0,0,0-.649-1.05,1.546,1.546,0,0,0-1.221-.286l-2.441.429a14.839,14.839,0,0,0-.792-1.537A11.219,11.219,0,0,0,27.084,8.9l1.564-2.271a1.508,1.508,0,0,0,.286-1.193,1.669,1.669,0,0,0-.676-1.05L25.495,2.441l-.077.03Zm-9.712,9.74h1.407a.47.47,0,0,1,.467.467v4.706h4.132a.471.471,0,0,1,.47.467V19.26a.469.469,0,0,1-.47.467H15.233V12.681a.472.472,0,0,1,.473-.47Zm-.47-4.294A9.367,9.367,0,0,1,18.873,8a9.573,9.573,0,0,1,3.2,1.4,9.638,9.638,0,0,1,2.43,2.546,8.5,8.5,0,0,1,1.287,3.362,9.367,9.367,0,0,1-.08,3.637,9.573,9.573,0,0,1-1.4,3.2,9.608,9.608,0,0,1-2.548,2.43A8.5,8.5,0,0,1,18.4,25.866a9.367,9.367,0,0,1-3.637-.08,9.573,9.573,0,0,1-3.2-1.4,9.638,9.638,0,0,1-2.43-2.546,8.5,8.5,0,0,1-1.287-3.362,9.367,9.367,0,0,1,.08-3.637,9.573,9.573,0,0,1,1.4-3.2A9.608,9.608,0,0,1,11.874,9.2a8.782,8.782,0,0,1,3.362-1.287Z" transform="translate(0 0)" fill="#f48120" fill-rule="evenodd"/>
    </g>
  </g>
</svg>
