<svg xmlns="http://www.w3.org/2000/svg" width="60" height="60" viewBox="0 0 60 60">
  <g id="Group_525" data-name="Group 525" transform="translate(-142 -5243)">
    <circle id="Ellipse_14" data-name="Ellipse 14" cx="30" cy="30" r="30" transform="translate(142 5243)" fill="#fff2e8"/>
    <g id="Group_8367" data-name="Group 8367" transform="translate(161 5260.386)">
      <path id="Path_9156" data-name="Path 9156" d="M14.973,7.432l3.411.012a3.413,3.413,0,0,1-1.017,2.417,3.464,3.464,0,0,1-.5.407l-1.9-2.836ZM.245,25.313A.418.418,0,0,1,0,24.934V.415A.415.415,0,0,1,.415,0H20.979a.415.415,0,0,1,.415.415V22.766a.629.629,0,0,1,0,.064,2.793,2.793,0,0,1-.8,1.9,3.084,3.084,0,0,1-2.017.755.472.472,0,0,1-.054,0H.587a.419.419,0,0,1-.342-.18ZM7.365,7.241H8.4a.1.1,0,0,1,.1.1V9.384a.1.1,0,0,1-.1.1H7.365a.1.1,0,0,1-.1-.1V7.34a.1.1,0,0,1,.1-.1ZM3.5,5.99H4.535a.1.1,0,0,1,.1.1v3.3a.1.1,0,0,1-.1.1H3.5a.1.1,0,0,1-.1-.1v-3.3a.1.1,0,0,1,.1-.1Zm1.936-.7H6.471a.1.1,0,0,1,.1.1v4a.1.1,0,0,1-.1.1H5.432a.1.1,0,0,1-.1-.1v-4a.1.1,0,0,1,.1-.1ZM20.566,22.755V.828H.828V24.666h17.7a2.294,2.294,0,0,0,1.494-.529,2.019,2.019,0,0,0,.548-1.382ZM3.49,22.124a.414.414,0,0,1,0-.828H18.116a.414.414,0,0,1,0,.828ZM3.556,19.1a.415.415,0,0,1,0-.83H18.079a.415.415,0,0,1,0,.83ZM3.49,16.083a.414.414,0,0,1,0-.828H9.741a.414.414,0,0,1,0,.828Zm7.846,0a.414.414,0,0,1,0-.828h6.743a.414.414,0,0,1,0,.828Zm-7.846-2.7a.415.415,0,0,1,0-.83H8.643a.415.415,0,0,1,0,.83Zm0-10.5a.415.415,0,0,1,0-.83H6.568a.415.415,0,0,1,0,.83ZM14.624,6.755,14.442,3.11a.13.13,0,0,1,.124-.137c.021,0,.046,0,.073,0l.073,0a3.784,3.784,0,0,1,3.817,3.517.13.13,0,0,1-.12.139l-3.647.261a.13.13,0,0,1-.139-.12.023.023,0,0,0,0-.01ZM14.71,3.23l.17,3.386,3.382-.241a3.524,3.524,0,0,0-3.544-3.143l-.008,0Zm-.494,4.044,1.828,3.166a3.655,3.655,0,1,1-2.359-6.782l.531,3.616Z" fill="#f48120" fill-rule="evenodd"/>
    </g>
  </g>
</svg>
