<svg xmlns="http://www.w3.org/2000/svg" width="60" height="60" viewBox="0 0 60 60">
  <g id="Group_522" data-name="Group 522" transform="translate(-652 -4401)">
    <circle id="Ellipse_14" data-name="Ellipse 14" cx="30" cy="30" r="30" transform="translate(652 4401)" fill="#fff2e8"/>
    <path id="Path_9148" data-name="Path 9148" d="M19.793,16.478a2.989,2.989,0,0,1,2.865,3.844,3.045,3.045,0,0,1-.274.637l1.089,1.187a.218.218,0,0,1-.013.306l-.828.756a.217.217,0,0,1-.306-.013l-1.037-1.14a3.01,3.01,0,0,1-.631.274l-.007,0a2.989,2.989,0,0,1-3.62-4,3.027,3.027,0,0,1,.648-.971,2.987,2.987,0,0,1,2.114-.877ZM15.706.913A1.028,1.028,0,0,1,16.819,0a1.026,1.026,0,0,1,1.114.913v4a1.028,1.028,0,0,1-1.114.913,1.027,1.027,0,0,1-1.113-.913ZM3.032,12.932c-.063,0-.12-.278-.12-.618s.05-.615.12-.615H6.072c.064,0,.12.278.12.615s-.05.618-.12.618Zm4.846,0c-.064,0-.12-.278-.12-.618s.05-.615.12-.615h3.039c.063,0,.12.278.12.615s-.05.618-.12.618Zm4.845,0c-.063,0-.12-.278-.12-.618s.05-.615.12-.615h3.039c.063,0,.12.275.12.613a9.346,9.346,0,0,0-.878.62H12.723ZM3.039,16.468c-.063,0-.12-.278-.12-.618s.05-.618.12-.618H6.079c.063,0,.12.278.12.618s-.05.618-.12.618Zm4.845,0c-.063,0-.12-.278-.12-.618s.05-.618.12-.618h3.039c.063,0,.12.278.12.618s-.05.618-.12.618ZM3.046,20.006c-.063,0-.12-.278-.12-.619s.05-.617.12-.617H6.085c.064,0,.12.278.12.617s-.05.619-.12.619Zm4.846,0c-.064,0-.12-.278-.12-.619s.05-.617.12-.617H10.93c.063,0,.12.278.12.617s-.05.619-.12.619ZM5.7.913A1.028,1.028,0,0,1,6.816,0,1.026,1.026,0,0,1,7.929.913v4a1.029,1.029,0,0,1-1.113.913A1.026,1.026,0,0,1,5.7,4.909ZM1.227,8.735H22.438v-4.6a.556.556,0,0,0-.164-.4.567.567,0,0,0-.4-.164H19.843a.618.618,0,0,1,0-1.236h2.034a1.8,1.8,0,0,1,1.8,1.8v7.3a9.25,9.25,0,0,0-1.252-.336V9.963H1.227V21.875a.557.557,0,0,0,.164.4.567.567,0,0,0,.4.164H11.869a8.915,8.915,0,0,0,.433,1.247H1.8a1.786,1.786,0,0,1-1.271-.528A1.772,1.772,0,0,1,0,21.885V4.139a1.8,1.8,0,0,1,1.8-1.8H3.97a.618.618,0,1,1,0,1.236H1.8a.555.555,0,0,0-.4.164.566.566,0,0,0-.165.4v4.6H1.227v0ZM9.71,3.574a.618.618,0,0,1,0-1.236H13.85a.618.618,0,1,1,0,1.236H9.71Zm10.456,9.136a7.163,7.163,0,0,1,5.064,12.228l-.036.034A7.161,7.161,0,0,1,15.1,14.808l.037-.034a7.142,7.142,0,0,1,5.027-2.065Zm4.2,2.958a5.949,5.949,0,0,0-8.376-.03l-.029.032a5.945,5.945,0,0,0,8.377,8.438l.029-.031a5.948,5.948,0,0,0,0-8.409Zm-3.257,2.48a1.894,1.894,0,0,0-.607-.406l-.011,0a1.882,1.882,0,0,0-1.416,0,1.894,1.894,0,0,0-.607.406,1.868,1.868,0,1,0,2.641,2.642,1.871,1.871,0,0,0,.407-2.034l-.005-.012A1.874,1.874,0,0,0,21.113,18.147Z" transform="translate(670 4418.455)" fill="#f48120"/>
  </g>
</svg>
