<svg id="Group_529" data-name="Group 529" xmlns="http://www.w3.org/2000/svg" width="60" height="60" viewBox="0 0 60 60">
  <circle id="Ellipse_14" data-name="Ellipse 14" cx="30" cy="30" r="30" fill="#fff2e8"/>
  <path id="Path_9094" data-name="Path 9094" d="M15.425,2.985,20.676,8.5l-5.338.089.088-5.607ZM21,19.036l.01.009a1.612,1.612,0,0,0,1.331.573,1.641,1.641,0,0,1,1.493.611,2.218,2.218,0,0,1,.379,1.243l0,.042a1.976,1.976,0,0,0,.458,1.179,3.219,3.219,0,0,1,.633,1.2,1.579,1.579,0,0,1-.7,1.641,1.191,1.191,0,0,0-.291.3,1.545,1.545,0,0,0-.1.651,1.857,1.857,0,0,1-2.01,2.025c-.55-.045-.712.145-1.156.495a1.773,1.773,0,0,1-2.593,0c-.432-.35-.593-.526-1.151-.495a1.866,1.866,0,0,1-2.016-2.025c-.012-.543-.021-.633-.4-.962a1.562,1.562,0,0,1-.7-1.636,3.241,3.241,0,0,1,.637-1.2c.728-.941.227-1.555.842-2.464l.009-.009a1.626,1.626,0,0,1,1.479-.6,1.6,1.6,0,0,0,1.336-.578,1.629,1.629,0,0,1,2.506,0Zm4.392,14.778L24,33.564l-.7,1.253a.041.041,0,0,1-.019.023c-.291.361-.559.351-.79.162a2.29,2.29,0,0,1-.522-.924l-.042-.106-1.474-2.783a.17.17,0,0,1,.074-.235.071.071,0,0,1,.023-.009,1.948,1.948,0,0,0,.509-.3c.193-.144.4-.325.605-.509a.176.176,0,0,1,.134-.046,3.374,3.374,0,0,0,1.133-.139,1.935,1.935,0,0,0,.925-.661.172.172,0,0,1,.245-.032.184.184,0,0,1,.046.06l1.706,3.291.148.319a.063.063,0,0,1,.01.027.864.864,0,0,1,0,.62.541.541,0,0,1-.62.236Zm-9.878-.25-1.392.25a.571.571,0,0,1-.624-.246.857.857,0,0,1,0-.619l.157-.347,1.706-3.291a.189.189,0,0,1,.046-.06.172.172,0,0,1,.246.032,2.307,2.307,0,0,0,2.057.8.174.174,0,0,1,.134.047,4.147,4.147,0,0,0,1.114.8.172.172,0,0,1,.1.245l-1.474,2.783-.042.106a2.292,2.292,0,0,1-.522.925c-.231.185-.495.2-.79-.162-.222-.419-.479-.849-.711-1.267ZM19.76,20.958A3.04,3.04,0,1,0,22.8,24,3.029,3.029,0,0,0,19.76,20.958ZM4.619,25.143H11.29v-1H4.619Zm0-3.849h9.173v-.014a4,4,0,0,1,.176-.988H4.619Zm0-3.849H18.086a3.264,3.264,0,0,1,.8-.375h.006v-.626H4.619Zm0-11.546h4.7v-1h-4.7v1Zm0,3.849H11.29v-1H4.619Zm0,3.849H18.87v-1H4.619ZM23.508,9.3a.874.874,0,0,0-.637-.843L15.138.322A.867.867,0,0,0,14.463,0H1.571A1.57,1.57,0,0,0,0,1.571v26.9a1.572,1.572,0,0,0,1.571,1.571H13.288l.718-1.386.008-.018H1.4V1.4H13.759V9.289a.882.882,0,0,0,.882.882H22.1V17.99c.357.3.218.121.271.119a4.874,4.874,0,0,1,1.133.142V9.3Z" transform="translate(19.658 13.119)" fill="#f48120"/>
</svg>
