<svg xmlns="http://www.w3.org/2000/svg" width="60" height="60" viewBox="0 0 60 60">
  <g id="Group_521" data-name="Group 521" transform="translate(-652 -4535)">
    <path id="Ellipse_14" data-name="Ellipse 14" d="M30,0A30,30,0,1,1,0,30,30,30,0,0,1,30,0Z" transform="translate(652 4535)" fill="#fff2e8"/>
    <path id="Path_9149" data-name="Path 9149" d="M16.23.945A1.069,1.069,0,0,1,17.381,0a1.078,1.078,0,0,1,1.163.945V5.072a1.067,1.067,0,0,1-1.163.945,1.053,1.053,0,0,1-1.152-.945Zm4.03,16.632a.735.735,0,1,1,1.468,0V20.79h2.294a.735.735,0,1,1,0,1.468H21a.738.738,0,0,1-.735-.735V17.567Zm-16.916.582H5.981a.3.3,0,0,1,.3.3v1.95a.3.3,0,0,1-.3.3H3.343a.3.3,0,0,1-.3-.3v-1.95a.3.3,0,0,1,.3-.3Zm10.1-5.556h2.638a.307.307,0,0,1,.209.084,9.392,9.392,0,0,0-2.645,2.478h-.2a.3.3,0,0,1-.3-.3V12.91a.307.307,0,0,1,.3-.307Zm-5.051,0h2.638a.3.3,0,0,1,.3.3v1.95a.3.3,0,0,1-.3.3H8.394a.3.3,0,0,1-.3-.3v-1.95a.3.3,0,0,1,.3-.3Zm-5.051,0H5.981a.3.3,0,0,1,.3.3v1.95a.3.3,0,0,1-.3.3H3.343a.3.3,0,0,1-.3-.3v-1.95a.3.3,0,0,1,.3-.3Zm5.051,5.556h2.638a.3.3,0,0,1,.3.3v1.95a.3.3,0,0,1-.3.3H8.394a.3.3,0,0,1-.3-.3v-1.95a.3.3,0,0,1,.3-.3Zm15.683-4.306a7.308,7.308,0,1,1-10.1,6.747,7.426,7.426,0,0,1,4.548-6.8A7.691,7.691,0,0,1,24.077,13.852Zm1.542,2.529A5.848,5.848,0,1,0,26.8,17.914a5.667,5.667,0,0,0-1.182-1.54ZM5.893.945A1.067,1.067,0,0,1,7.056,0,1.053,1.053,0,0,1,8.208.945V5.072a1.065,1.065,0,0,1-1.152.945,1.073,1.073,0,0,1-1.163-.945V.945ZM23.186,9.027V4.274a.572.572,0,0,0-.17-.409.584.584,0,0,0-.409-.17H20.513a.637.637,0,0,1,0-1.275h2.094a1.861,1.861,0,0,1,1.861,1.861v7.543a9.539,9.539,0,0,0-1.294-.347V10.3H1.268v12.31a.572.572,0,0,0,.17.409.584.584,0,0,0,.409.17H12.263a9.369,9.369,0,0,0,.447,1.289H1.861A1.861,1.861,0,0,1,0,22.614V4.278A1.861,1.861,0,0,1,1.861,2.417H4.1a.637.637,0,0,1,0,1.275H1.861a.572.572,0,0,0-.409.17.584.584,0,0,0-.17.409V9.027ZM10.034,3.692a.637.637,0,1,1,0-1.275h4.278a.637.637,0,1,1,0,1.275Z" transform="translate(668 4551.06)" fill="#f48120"/>
  </g>
</svg>
