<svg xmlns="http://www.w3.org/2000/svg" width="60" height="60" viewBox="0 0 60 60">
  <g id="Group_523" data-name="Group 523" transform="translate(-652 -4270)">
    <circle id="Ellipse_14" data-name="Ellipse 14" cx="30" cy="30" r="30" transform="translate(652 4270)" fill="#fff2e8"/>
    <path id="Path_9147" data-name="Path 9147" d="M4.654,0H31.678a.647.647,0,0,1,.644.644V18.81a.647.647,0,0,1-.484.624h3.908a.754.754,0,0,1,.745.76h0a.754.754,0,0,1-.754.751H.754A.754.754,0,0,1,0,20.194H0a.754.754,0,0,1,.754-.754H4.493a.647.647,0,0,1-.484-.624V.644A.647.647,0,0,1,4.654,0ZM17.186,19.716H19.3a.362.362,0,0,1,.362.359h0a.362.362,0,0,1-.362.362H17.186a.362.362,0,0,1-.362-.362h0a.362.362,0,0,1,.362-.359ZM24.7,14.587a.511.511,0,0,1-.137.074h0a.466.466,0,0,1-.154.024.484.484,0,0,1-.172-.039.493.493,0,0,1-.154-.1l-1.158-1.221-.552,1.028a1.31,1.31,0,0,1-.154.232.933.933,0,0,1-.187.175.526.526,0,0,1-.814-.178.8.8,0,0,1-.083-.19c-.552-2-1.372-4.027-1.933-6.032a.344.344,0,0,1,.431-.425c1.806.54,4.107,1.577,5.94,2.275.564.217.594.742.131,1.093a1.354,1.354,0,0,1-.241.143c-.35.151-.707.333-1.057.493l1.134,1.221a.413.413,0,0,1,.092.148h0a.4.4,0,0,1,.027.166h0a.469.469,0,0,1-.131.3,10.257,10.257,0,0,1-.834.784Zm-.3-.457.692-.653a16.761,16.761,0,0,1-1.4-1.515.264.264,0,0,1,.131-.347c.425-.178.974-.434,1.384-.647a.941.941,0,0,0,.146-.083.653.653,0,0,0,.092-.086l.021-.033-.033-.024-.08-.036-5.53-2.132,1.815,5.657a.374.374,0,0,0,.033.083l.021.033.033-.018a.428.428,0,0,0,.092-.089.989.989,0,0,0,.089-.137c.226-.422.5-1,.748-1.384l.03-.033a.264.264,0,0,1,.374,0l1.36,1.431ZM7.938,3.905h5.129a.832.832,0,0,1,.829.846V8.018a.835.835,0,0,1-.829.817H7.938A.834.834,0,0,1,7.107,8V4.752a.834.834,0,0,1,.832-.832Zm7.671,0h5.129a.835.835,0,0,1,.832.832V7c-.529-.2-1.036-.371-1.506-.511h-.03a1.844,1.844,0,0,0-.983,0,1.865,1.865,0,0,0-.826.475,1.91,1.91,0,0,0-.425.656,1.4,1.4,0,0,0-.053.157,1.88,1.88,0,0,0,0,.986h0l.021.074H15.609a.834.834,0,0,1-.829-.82V4.752a.832.832,0,0,1,.829-.832Zm7.671,0h5.129a.835.835,0,0,1,.832.832V8.018a.835.835,0,0,1-.832.832H26.187L26.1,8.814h0c-.57-.223-1.188-.478-1.847-.742-.594-.244-1.188-.493-1.8-.725v-2.6a.834.834,0,0,1,.829-.832ZM10.964,13.563c-.279,0-.279-1.028,0-1.028h8.018c.119.347.235.692.342,1.028Zm15.971-1.028h2.23c.276,0,.276,1.028,0,1.028H27.173V13.53a1.835,1.835,0,0,0-.021-.356.6.6,0,0,0-.033-.154,1.6,1.6,0,0,0-.062-.226,1.553,1.553,0,0,0-.122-.258ZM7.383,13.563c-.273,0-.273-1.028,0-1.028h2.6c.276,0,.276,1.028,0,1.028Zm-.089-2.15c-.276,0-.276-1.031,0-1.031h2.6c.276,0,.276,1.031,0,1.031Zm3.671,0c-.279,0-.279-1.031,0-1.031h7.279c.113.347.229.689.347,1.031Zm16.527-1.019h1.675c.276,0,.276,1.031,0,1.031H27.42a1.951,1.951,0,0,0,.089-.891.3.3,0,0,0-.018-.125ZM31.3,2.673H5.111v15.8H31.3ZM8.292,1.039a.389.389,0,1,1-.389.389A.389.389,0,0,1,8.292,1.039Zm-1.357,0a.389.389,0,1,1-.283.11A.389.389,0,0,1,6.934,1.039Zm-1.36,0a.389.389,0,1,1-.389.389A.389.389,0,0,1,5.574,1.039Z" transform="translate(663.754 4289.527)" fill="#f48120" fill-rule="evenodd"/>
  </g>
</svg>
