<svg xmlns="http://www.w3.org/2000/svg" width="60" height="60" viewBox="0 0 60 60">
  <g id="Group_520" data-name="Group 520" transform="translate(-652 -4654)">
    <circle id="Ellipse_14" data-name="Ellipse 14" cx="30" cy="30" r="30" transform="translate(652 4654)" fill="#fff2e8"/>
    <g id="Group_8362" data-name="Group 8362" transform="translate(665 4670.306)">
      <path id="Path_9150" data-name="Path 9150" d="M23.837,12.384a2.7,2.7,0,0,1,2.171,1.09,2.7,2.7,0,1,1,0,3.23,2.7,2.7,0,1,1-2.171-4.32ZM10.78,10.161c3,1.9,5.7,2.8,8.026,2.586a20.821,20.821,0,0,1-.886,7.7H31.951a.789.789,0,0,0,.784-.784V9.352H1.076V19.661a.789.789,0,0,0,.784.784h1.9a22.94,22.94,0,0,1-.971-7.825,11.459,11.459,0,0,0,8-2.46Zm6.727,11.36a11.383,11.383,0,0,1-6.7,6.3,11.049,11.049,0,0,1-6.65-6.3H1.86A1.865,1.865,0,0,1,0,19.664V1.86A1.86,1.86,0,0,1,1.86,0H31.951a1.86,1.86,0,0,1,1.857,1.857v17.8a1.865,1.865,0,0,1-1.857,1.86H17.506Zm-6.721-9.715c2.49,1.579,4.74,2.325,6.669,2.149a16.57,16.57,0,0,1-.85,6.666l-.019.05c-.022.055-.041.11-.063.162l-.025.061c-.019.05-.041.1-.061.149l-.025.058-.066.149-.03.069-.058.124-.041.083a9.446,9.446,0,0,1-5.409,4.809,9.133,9.133,0,0,1-5.376-4.809l-.008-.017,0-.019-.008-.017-.058-.129-.008-.017-.008-.017-.008-.017-.008-.017-.008-.017-.058-.132-.008-.017-.008-.017-.008-.017-.083-.2-.006-.017-.006-.017c-.019-.052-.041-.1-.061-.154l-.006-.017-.006-.017L5.06,20.64l-.006-.017L5,20.467l-.006-.017a18.5,18.5,0,0,1-.856-6.6,9.563,9.563,0,0,0,6.65-2.047Zm-9.709-7.8H32.732V1.86a.789.789,0,0,0-.784-.784H1.86a.789.789,0,0,0-.784.784V4.006Z" fill="#f48120" fill-rule="evenodd"/>
      <path id="Path_9151" data-name="Path 9151" d="M24.323,58.6l1.422-.019.107.028a5.519,5.519,0,0,1,.812.57,5.32,5.32,0,0,1,.523.506,20.535,20.535,0,0,1,1.629-2.27,19.685,19.685,0,0,1,2-2.08l.138-.052h1.554l-.314.347a33.088,33.088,0,0,0-2.625,3.315,32.418,32.418,0,0,0-2.121,3.53l-.2.377-.179-.382a9.284,9.284,0,0,0-1.2-1.945A7.871,7.871,0,0,0,24.21,58.98l.113-.382Z" transform="translate(-17.549 -40.071)" fill="#f48120"/>
    </g>
  </g>
</svg>
