<svg xmlns="http://www.w3.org/2000/svg" width="60" height="60" viewBox="0 0 60 60">
  <g id="Group_527" data-name="Group 527" transform="translate(-142 -5009)">
    <circle id="Ellipse_14" data-name="Ellipse 14" cx="30" cy="30" r="30" transform="translate(142 5009)" fill="#fff2e8"/>
    <g id="Group_8364" data-name="Group 8364" transform="translate(154 5021.814)">
      <path id="Path_9153" data-name="Path 9153" d="M25.391,14.616V12.148c.113-.477.319-.618.555-.663.639-.1.567,2.984-.555,3.131ZM13.37,22.31l2.749,8.079,1.382-4.8-.677-.74a1.119,1.119,0,0,1-.2-1.17c.367-.725,1.125-.591,1.835-.591.743,0,1.659-.14,1.892.788a1.239,1.239,0,0,1-.239.973l-.677.74,1.382,4.8L23.3,22.31c1.794,1.615,8.111,1.94,10.087,3.041a5.226,5.226,0,0,1,1.644,1.391,6.683,6.683,0,0,1,1.227,3.608l.412,1.826a1.813,1.813,0,0,1-1.9,1.773H1.9A1.815,1.815,0,0,1,0,32.176l.412-1.826a6.692,6.692,0,0,1,1.227-3.608,5.118,5.118,0,0,1,1.644-1.391c1.979-1.1,8.293-1.427,10.087-3.041ZM9.818,6.227V4.648C10.045,2.759,10.926,2,12.37,2.219A7.764,7.764,0,0,1,18.354,0c2.972-.06,5.509.636,7.35,2.522.967.964,1.382,2.459,1.131,4.581.051,2.083.281,2.987-.394,3.354,0,.057-.006.113-.009.173l-.466.292a.8.8,0,0,1,.8.6,2.528,2.528,0,0,1,.149.707,4.268,4.268,0,0,1-.018.8c-.11,1.012-.576,2.065-1.435,2.19a.46.46,0,0,1-.11,0v.146a6.119,6.119,0,0,1-1.892,4.235c-2.19,2.286-5.787,3.423-8.911.836a8.4,8.4,0,0,1-1.671-1.594l.015-.015-.012-.009a3.913,3.913,0,0,1-1.507-2.641.486.486,0,0,1-.009-.093h0v-.865a.37.37,0,0,1-.14,0c-.862-.125-1.325-1.182-1.435-2.19a4.537,4.537,0,0,1-.018-.8,2.506,2.506,0,0,1,.149-.707.779.779,0,0,1,.9-.591.948.948,0,0,1,.549.322v-.352l-.349-.2a4.18,4.18,0,0,1-.03-.865,9.973,9.973,0,0,1-1.164-3.62ZM24.662,10.48a5.049,5.049,0,0,0-2.19-2.623,23.7,23.7,0,0,0-2.253-.883,9.728,9.728,0,0,0-5.046.245c-.406.158-.836.352-1.3.582A3.661,3.661,0,0,0,12,10.131v5.963c.346,1.662.567,1.6,1.632,2.638L15.48,20.54a2.7,2.7,0,0,0,1.11.531c1.367.322,4.241.194,5.318-.94,1.606-1.561,2.862-2.277,2.749-4.772V10.48Zm-4.858.278c-.486.185-.591.591-.319.743.319.179.725-.09,1.036-.188a3.064,3.064,0,0,1,2.489.152,3.554,3.554,0,0,1,.573.454,1.985,1.985,0,0,0-.349-.7c-.7-.9-2.483-.946-3.429-.46Zm-3.077,0c.486.185.591.591.319.743-.319.179-.725-.09-1.036-.188a3.064,3.064,0,0,0-2.489.152,3.554,3.554,0,0,0-.573.454,1.985,1.985,0,0,1,.349-.7c.7-.9,2.483-.946,3.429-.46ZM14.187,12.5a.2.2,0,0,1-.257-.14.236.236,0,0,1,.125-.289,3.377,3.377,0,0,1,2.435,0,.239.239,0,0,1,.131.286.2.2,0,0,1-.251.149,3.431,3.431,0,0,0-.4-.119.507.507,0,0,1,.021.152.564.564,0,1,1-1.086-.215,2.732,2.732,0,0,0-.716.176Zm6.533-.167a.553.553,0,0,0-.036.2.564.564,0,1,0,1.071-.248,3.725,3.725,0,0,1,.743.161.2.2,0,0,0,.248-.158.238.238,0,0,0-.137-.284,3.767,3.767,0,0,0-1.218-.2,3.821,3.821,0,0,0-1.2.2.233.233,0,0,0-.137.281.2.2,0,0,0,.248.155,3.646,3.646,0,0,1,.421-.11Zm-3.083,3.841a.261.261,0,0,1,.334-.4.6.6,0,0,0,.376.167.61.61,0,0,0,.391-.17.261.261,0,0,1,.331.4,1.1,1.1,0,0,1-.728.286,1.116,1.116,0,0,1-.7-.286Zm-.818,1.692a.274.274,0,1,1,.257-.483,2.7,2.7,0,0,0,1.247.34,2.524,2.524,0,0,0,1.23-.337.275.275,0,0,1,.266.48,3.017,3.017,0,0,1-1.492.4,3.214,3.214,0,0,1-1.507-.4Zm-5.539-3.253V12.148c-.113-.477-.319-.618-.555-.663-.636-.1-.576,2.981.555,3.131Z" transform="translate(0 0)" fill="#f48120" fill-rule="evenodd"/>
    </g>
  </g>
</svg>
