<svg xmlns="http://www.w3.org/2000/svg" width="60" height="60" viewBox="0 0 60 60">
  <g id="Group_7805" data-name="Group 7805" transform="translate(-686 -4378)">
    <circle id="Ellipse_11" data-name="Ellipse 11" cx="30" cy="30" r="30" transform="translate(686 4378)" fill="#f5f5f5"/>
    <path id="Path_799" data-name="Path 799" d="M29.19,7.873H2.813A1.811,1.811,0,0,0,1,9.684V27.9a1.813,1.813,0,0,0,1.811,1.81h9.039l-1.688,4.309a.428.428,0,0,0,.4.584H21.386a.428.428,0,0,0,.4-.58l-1.635-4.314h9.039A1.813,1.813,0,0,0,31,27.9V9.684a1.812,1.812,0,0,0-1.811-1.812Zm-.134,18.671H2.946V10.429a.476.476,0,0,1,.409-.522H28.645a.477.477,0,0,1,.411.522Z" transform="translate(699.999 4386.763)" fill="#f48120"/>
  </g>
</svg>
