<svg xmlns="http://www.w3.org/2000/svg" width="60" height="60" viewBox="0 0 60 60">
  <g id="Group_7806" data-name="Group 7806" transform="translate(-686 -4277)">
    <circle id="Ellipse_12" data-name="Ellipse 12" cx="30" cy="30" r="30" transform="translate(686 4277)" fill="#f5f5f5"/>
    <g id="_7119424481582885797" data-name="7119424481582885797" transform="translate(702.25 4289.5)">
      <path id="Path_783" data-name="Path 783" d="M58.034,62.568a4.3,4.3,0,0,0-.917-.614,10.428,10.428,0,0,0-1.15-.495q-.409-.142-.7-.262a3.107,3.107,0,0,1-.487-.247.844.844,0,0,1-.289-.289.773.773,0,0,1-.092-.388.71.71,0,0,1,.3-.592,1.631,1.631,0,0,1,.973-.226,5.754,5.754,0,0,1,1.291.141,6.529,6.529,0,0,1,1.079.339l.437-1.693a5.589,5.589,0,0,0-.839-.282,7.929,7.929,0,0,0-1.262-.212V56.282H54.6v1.523a3.552,3.552,0,0,0-1.072.36,2.394,2.394,0,0,0-.733.6,2.369,2.369,0,0,0-.416.783,2.991,2.991,0,0,0-.134.9,2.159,2.159,0,0,0,.8,1.763,3.666,3.666,0,0,0,.8.5q.444.2.91.374t.846.317a3.65,3.65,0,0,1,.607.3,1.244,1.244,0,0,1,.367.346.808.808,0,0,1,.127.458.766.766,0,0,1-.317.656,2.116,2.116,0,0,1-1.178.233,5.183,5.183,0,0,1-1.446-.2,7.415,7.415,0,0,1-1.178-.437l-.607,1.622a9.618,9.618,0,0,0,.952.388,6.6,6.6,0,0,0,1.671.317v1.678h1.777V67.045a3.724,3.724,0,0,0,1.164-.367,2.59,2.59,0,0,0,.769-.606,2.172,2.172,0,0,0,.423-.768,2.858,2.858,0,0,0,.127-.839,2.53,2.53,0,0,0-.219-1.086A2.5,2.5,0,0,0,58.034,62.568Z" transform="translate(-41.498 -40.91)" fill="#f48120"/>
      <path id="Path_784" data-name="Path 784" d="M37.695,12.918,35.112,10.96l1.636-6.913a1.2,1.2,0,0,0-1.163-1.47H23a1.2,1.2,0,0,0-1.163,1.47L23.47,10.96l-2.583,1.958a13.957,13.957,0,0,0-5.5,11.7,13.433,13.433,0,0,0,6.27,10.935,14.17,14.17,0,0,0,7.209,2.184q.213.006.428.006t.428-.006a14.17,14.17,0,0,0,7.21-2.184A13.433,13.433,0,0,0,43.2,24.615,13.957,13.957,0,0,0,37.695,12.918Zm3.115,11.6a11.072,11.072,0,0,1-5.163,9.016,11.619,11.619,0,0,1-5.994,1.812c-.24.007-.481.007-.722,0a11.619,11.619,0,0,1-5.994-1.812,11.073,11.073,0,0,1-5.163-9.017,11.566,11.566,0,0,1,4.559-9.694l2.13-1.615a1.187,1.187,0,0,0,.515.121h2.441a1.2,1.2,0,0,0,0-2.39h-1.5L24.507,4.967h9.567l-1.413,5.972H31.586a1.2,1.2,0,1,0,0,2.39h2.02a1.187,1.187,0,0,0,.515-.121l2.13,1.615a11.566,11.566,0,0,1,4.559,9.694Z" transform="translate(-15.372 -2.576)" fill="#f48120"/>
    </g>
  </g>
</svg>
