<svg xmlns="http://www.w3.org/2000/svg" width="60" height="60" viewBox="0 0 60 60">
  <g id="Group_7824" data-name="Group 7824" transform="translate(-681 -5544)">
    <circle id="Ellipse_26" data-name="Ellipse 26" cx="30" cy="30" r="30" transform="translate(681 5544)" fill="#f5f5f5"/>
    <path id="Video_Play" data-name="Video Play" d="M14.086,0A14.086,14.086,0,1,0,28.172,14.086,14.086,14.086,0,0,0,14.086,0Zm5.927,14.559L11,20.194a.631.631,0,0,1-.293.09.563.563,0,0,1-.27-.068.575.575,0,0,1-.293-.5V8.452a.575.575,0,0,1,.293-.5.552.552,0,0,1,.575,0l9.015,5.634a.552.552,0,0,1,0,.947Z" transform="translate(697.25 5560.25)" fill="#f48120"/>
  </g>
</svg>
