<svg xmlns="http://www.w3.org/2000/svg" width="60" height="60" viewBox="0 0 60 60">
  <g id="Group_7807" data-name="Group 7807" transform="translate(-686 -4075)">
    <circle id="Ellipse_14" data-name="Ellipse 14" cx="30" cy="30" r="30" transform="translate(686 4075)" fill="#f5f5f5"/>
    <g id="_4294594401582885787" data-name="4294594401582885787" transform="translate(699.75 4087.75)">
      <path id="Path_780" data-name="Path 780" d="M75.048,86.649l.04-.022a16.384,16.384,0,0,0,7.134-7.335l.022-.045c.168-.346.325-.7.463-1.038l-14.03-3.257,2.258,13.185A16.469,16.469,0,0,0,75.048,86.649Z" transform="translate(-51.177 -55.587)" fill="#f48120"/>
      <path id="Path_781" data-name="Path 781" d="M83.971,20.85a16.209,16.209,0,0,0-.228-2.44l-.019-.113a16.669,16.669,0,0,0-.614-2.4l-.045-.122a16.566,16.566,0,0,0-1.048-2.407l-.064-.125a16.7,16.7,0,0,0-1.633-2.446l-.061-.071a16.378,16.378,0,0,0-7.023-5.03l-4.452,15.2,14.881,3.452a16.453,16.453,0,0,0,.309-3.413Zm-2.1.935L71.41,19.355,74.56,8.6a14.377,14.377,0,0,1,1.623,1.064,14.167,14.167,0,0,1,2.456,2.372l.074.087a14.525,14.525,0,0,1,1.4,2.1l.064.119a14.663,14.663,0,0,1,.916,2.108l.048.132a14.994,14.994,0,0,1,.524,2.06l.019.113a14.643,14.643,0,0,1,.2,2.128l0,.1c0,.267,0,.537-.013.8Z" transform="translate(-51.256 -4.67)" fill="#f48120"/>
      <path id="Path_782" data-name="Path 782" d="M16.681,19.385c-.007-.056-.011-.093-.013-.128s0-.044,0-.091V19.1c0-.028,0-.055.007-.084s.007-.053.014-.1l.037-.173L21.615,2.067a16.717,16.717,0,0,0-2.784-.234,16.465,16.465,0,1,0,.479,32.926Z" transform="translate(-2.605 -1.833)" fill="#f48120"/>
    </g>
  </g>
</svg>
