<svg xmlns="http://www.w3.org/2000/svg" width="60" height="60" viewBox="0 0 60 60">
  <g id="Group_7822" data-name="Group 7822" transform="translate(-681 -5663)">
    <circle id="Ellipse_27" data-name="Ellipse 27" cx="30" cy="30" r="30" transform="translate(681 5663)" fill="#f5f5f5"/>
    <g id="_8127673981537184110_1_" data-name="8127673981537184110 (1)" transform="translate(697.25 5676.75)">
      <path id="Path_795" data-name="Path 795" d="M44.253,8.328c-.017-.873-.032-1.7-.032-2.5A1.132,1.132,0,0,0,43.088,4.7c-4.841,0-8.527-1.391-11.6-4.379a1.132,1.132,0,0,0-1.578,0C26.838,3.308,23.152,4.7,18.311,4.7a1.132,1.132,0,0,0-1.132,1.132c0,.8-.016,1.623-.032,2.5-.155,8.126-.368,19.255,13.182,23.951a1.131,1.131,0,0,0,.741,0C44.62,27.583,44.408,16.454,44.253,8.328ZM30.7,30.009C19.079,25.787,19.255,16.54,19.41,8.371c.009-.49.018-.965.025-1.431A17.457,17.457,0,0,0,30.7,2.671,17.459,17.459,0,0,0,41.964,6.94c.006.466.015.94.025,1.43C42.145,16.54,42.32,25.787,30.7,30.009Z" transform="translate(-17.112 0)" fill="#f48120"/>
      <path id="Path_796" data-name="Path 796" d="M78.237,79.217l-5.464,5.463-2.332-2.332a1.132,1.132,0,0,0-1.6,1.6l3.132,3.132a1.132,1.132,0,0,0,1.6,0l6.264-6.264a1.132,1.132,0,1,0-1.6-1.6Z" transform="translate(-60.751 -66.979)" fill="#f48120"/>
    </g>
  </g>
</svg>
