<svg xmlns="http://www.w3.org/2000/svg" width="60" height="60" viewBox="0 0 60 60">
  <g id="Group_7808" data-name="Group 7808" transform="translate(-682 -4178)">
    <circle id="Ellipse_13" data-name="Ellipse 13" cx="30" cy="30" r="30" transform="translate(682 4178)" fill="#f5f5f5"/>
    <path id="XMLID_273_" d="M30.678,20.094l-.594-.343a2.257,2.257,0,0,1,0-3.909l.594-.343a3.383,3.383,0,0,0,1.239-4.624L30.788,8.921a3.389,3.389,0,0,0-4.624-1.239l-.594.342A2.257,2.257,0,0,1,22.186,6.07V5.385A3.389,3.389,0,0,0,18.8,2H16.544a3.389,3.389,0,0,0-3.385,3.385v.686A2.257,2.257,0,0,1,9.774,8.025L9.18,7.682A3.39,3.39,0,0,0,4.555,8.921L3.427,10.876A3.383,3.383,0,0,0,4.666,15.5l.595.343a2.257,2.257,0,0,1,0,3.909l-.594.343a3.383,3.383,0,0,0-1.239,4.624l1.128,1.954A3.389,3.389,0,0,0,9.18,27.912l.594-.342a2.257,2.257,0,0,1,3.385,1.954v.685a3.389,3.389,0,0,0,3.385,3.385H18.8a3.389,3.389,0,0,0,3.385-3.385v-.686a2.257,2.257,0,0,1,3.385-1.954l.594.343a3.391,3.391,0,0,0,4.624-1.239l1.128-1.954A3.383,3.383,0,0,0,30.678,20.094ZM17.672,23.439A5.642,5.642,0,1,1,23.314,17.8,5.648,5.648,0,0,1,17.672,23.439Z" transform="translate(694.028 4189.75)" fill="#f48120"/>
  </g>
</svg>
