<svg xmlns="http://www.w3.org/2000/svg" xmlns:xlink="http://www.w3.org/1999/xlink" width="260" height="80" viewBox="0 0 260 80"><defs><clipPath id="a"><rect width="260" height="80" fill="none"/></clipPath></defs><path d="M.912.93V57.306L22.026,78.411H81.072V24.634L57.339.911Z" transform="translate(0)" fill="#fff"/><path d="M1.825,56.93V1.842l55.137-.019,23.2,23.189V77.5H22.4ZM57.717,0,0,.019V57.685L21.649,79.324H81.985V24.257Z" fill="#f90"/><g clip-path="url(#a)"><path d="M16.2,13.865a2.832,2.832,0,0,0,.1.83,4.926,4.926,0,0,0,.3.672.414.414,0,0,1,.065.215.37.37,0,0,1-.177.28l-.588.392a.448.448,0,0,1-.243.084.432.432,0,0,1-.28-.131,2.913,2.913,0,0,1-.335-.438c-.094-.159-.187-.336-.29-.551a3.45,3.45,0,0,1-2.744,1.288,2.557,2.557,0,0,1-1.867-.672,2.4,2.4,0,0,1-.691-1.792A2.4,2.4,0,0,1,10.3,12.12a3.4,3.4,0,0,1,2.288-.728,7.351,7.351,0,0,1,.989.075c.345.047.7.121,1.073.2v-.681A2.068,2.068,0,0,0,14.216,9.5a2.149,2.149,0,0,0-1.522-.429,4.257,4.257,0,0,0-1.008.121,7.37,7.37,0,0,0-1.007.318,2.849,2.849,0,0,1-.327.121.557.557,0,0,1-.149.028c-.131,0-.2-.093-.2-.289V8.91a.594.594,0,0,1,.065-.326.7.7,0,0,1,.261-.2,5.39,5.39,0,0,1,1.176-.42,5.678,5.678,0,0,1,1.457-.177,3.414,3.414,0,0,1,2.445.755,3.085,3.085,0,0,1,.775,2.3v3.023Zm-3.791,1.418a3.025,3.025,0,0,0,.961-.168,2.081,2.081,0,0,0,.887-.6,1.481,1.481,0,0,0,.317-.6,3.353,3.353,0,0,0,.093-.812v-.392a7.79,7.79,0,0,0-.858-.158,6.916,6.916,0,0,0-.877-.056,2.155,2.155,0,0,0-1.392.373,1.3,1.3,0,0,0-.457,1.073,1.2,1.2,0,0,0,1.326,1.334m7.5,1.008a.525.525,0,0,1-.355-.093.768.768,0,0,1-.2-.364L17.166,8.621a1.629,1.629,0,0,1-.084-.373.2.2,0,0,1,.224-.233h.914a.52.52,0,0,1,.364.093.762.762,0,0,1,.187.364l1.568,6.177L21.8,8.472a.647.647,0,0,1,.177-.364.642.642,0,0,1,.373-.093h.747a.564.564,0,0,1,.373.093.626.626,0,0,1,.177.364l1.475,6.251,1.616-6.251a.8.8,0,0,1,.186-.364.61.61,0,0,1,.364-.093h.868a.207.207,0,0,1,.233.233.955.955,0,0,1-.018.149,1.325,1.325,0,0,1-.066.233l-2.249,7.213a.719.719,0,0,1-.2.364.6.6,0,0,1-.355.093h-.8a.566.566,0,0,1-.374-.093.664.664,0,0,1-.177-.373L22.7,9.815l-1.438,6.01a.741.741,0,0,1-.177.373.584.584,0,0,1-.374.093Zm12,.252a6.183,6.183,0,0,1-1.438-.168A4.262,4.262,0,0,1,29.394,16a.671.671,0,0,1-.289-.261.65.65,0,0,1-.056-.262V15c0-.2.074-.289.214-.289a.52.52,0,0,1,.168.028c.056.019.14.056.234.093a5.089,5.089,0,0,0,1.026.327,5.578,5.578,0,0,0,1.11.112,2.526,2.526,0,0,0,1.364-.308,1,1,0,0,0,.485-.886.91.91,0,0,0-.252-.654,2.355,2.355,0,0,0-.942-.485l-1.354-.42a2.839,2.839,0,0,1-1.494-.951,2.224,2.224,0,0,1-.467-1.353,2.077,2.077,0,0,1,.252-1.036,2.392,2.392,0,0,1,.672-.765,2.957,2.957,0,0,1,.97-.485,4.068,4.068,0,0,1,1.176-.159,4.684,4.684,0,0,1,.625.037c.215.028.411.066.607.1s.363.093.531.149a2.029,2.029,0,0,1,.392.168.818.818,0,0,1,.28.233.5.5,0,0,1,.084.308v.439c0,.2-.074.3-.214.3a.986.986,0,0,1-.355-.112,4.266,4.266,0,0,0-1.792-.364,2.412,2.412,0,0,0-1.242.261.9.9,0,0,0-.439.83.879.879,0,0,0,.28.663A2.8,2.8,0,0,0,32,11.3l1.326.42a2.844,2.844,0,0,1,1.448.9,2.111,2.111,0,0,1,.429,1.306A2.391,2.391,0,0,1,34.958,15a2.509,2.509,0,0,1-.681.822,3,3,0,0,1-1.036.522,4.427,4.427,0,0,1-1.335.2" transform="translate(0.004)" fill="#252f3e"/><path d="M33.671,21.077A20.144,20.144,0,0,1,22.3,24.548,20.57,20.57,0,0,1,8.42,19.257c-.289-.261-.028-.615.317-.41a28.012,28.012,0,0,0,13.891,3.686,27.74,27.74,0,0,0,10.594-2.165c.513-.233.952.336.448.709" transform="translate(0.004)" fill="#f90" fill-rule="evenodd"/><path d="M34.94,19.622c-.392-.5-2.6-.243-3.594-.121-.3.037-.346-.224-.075-.42,1.755-1.232,4.639-.877,4.975-.467s-.093,3.3-1.736,4.684c-.252.215-.5.1-.383-.177.373-.924,1.2-3,.812-3.5" transform="translate(0.013)" fill="#f90" fill-rule="evenodd"/><path d="M11.712,42v2.958h-1.7V36.87h3.1a2.807,2.807,0,0,1,2,.687,2.765,2.765,0,0,1,0,3.755,2.807,2.807,0,0,1-2,.687Zm0-1.305H12.9a1.187,1.187,0,0,0,.892-.319,1.577,1.577,0,0,0,0-1.878,1.185,1.185,0,0,0-.892-.322H11.712Z" transform="translate(0.004)" fill="#223143"/><path d="M23.017,44.957l-.575-1.847H19.677l-.547,1.847H17.294l2.85-8.087h1.927l2.851,8.087Zm-2.964-3.106h2.03l-1.026-3.385Z" transform="translate(0.007)" fill="#223143"/><path d="M27.55,44.957V36.87h3.128a2.883,2.883,0,0,1,2,.664,2.315,2.315,0,0,1,.737,1.81,2.126,2.126,0,0,1-.385,1.245,2.573,2.573,0,0,1-1.085.867l2.007,3.5H32.145l-1.753-3.174H29.255v3.174Zm1.7-4.354h1.212a1.225,1.225,0,0,0,.023-2.45H29.255Z" transform="translate(0.012)" fill="#223143"/><path d="M38.286,44.957V38.272H35.823v-1.4H42.5v1.4H40.036v6.685Z" transform="translate(0.015)" fill="#223143"/><path d="M46.906,44.957H45.2V36.871h2.035l3.284,5.658V36.871h1.7v8.086H50.2l-3.29-5.613Z" transform="translate(0.019)" fill="#223143"/><path d="M55.4,44.957V36.871h5.325v1.356H57.15v1.909h2.908v1.356H57.15V43.6h3.576v1.356Z" transform="translate(0.023)" fill="#223143"/><path d="M63.775,44.957V36.87H66.9a2.885,2.885,0,0,1,2,.664,2.315,2.315,0,0,1,.737,1.81,2.126,2.126,0,0,1-.385,1.245,2.573,2.573,0,0,1-1.085.867l2.007,3.5H68.37l-1.753-3.174H65.48v3.174Zm1.7-4.354h1.212a1.225,1.225,0,0,0,.023-2.45H65.48Z" transform="translate(0.027)" fill="#223143"/><path d="M29.48,53.774,29.03,52.48H27.024l-.432,1.294h-.741l1.8-4.869h.773l1.8,4.869Zm-2.269-1.836h1.638l-.824-2.388Z" transform="translate(0.011)" fill="#223143"/><path d="M30.75,53a2.362,2.362,0,0,1-.191-.988,2.509,2.509,0,0,1,.185-1,1.531,1.531,0,0,1,.526-.668,1.5,1.5,0,0,1,.876-.238,1.559,1.559,0,0,1,1.011.4V48.572h.7v5.2h-.576l-.093-.364a1.628,1.628,0,0,1-1.12.443,1.419,1.419,0,0,1-.783-.218A1.446,1.446,0,0,1,30.75,53m1.483-2.329q-.956,0-.956,1.311t1,1.31a1.511,1.511,0,0,0,.884-.326V50.977a1.519,1.519,0,0,0-.925-.308" transform="translate(0.013)" fill="#223143"/><path d="M35.823,53.774l-1.4-3.562h.745l1.005,2.931,1.005-2.931H37.9l-1.391,3.562Z" transform="translate(0.015)" fill="#223143"/><path d="M38.545,53.584a1.011,1.011,0,0,1-.3-.775.977.977,0,0,1,.366-.793,1.5,1.5,0,0,1,.983-.3,3.692,3.692,0,0,1,.885.119v-.471a.7.7,0,0,0-.172-.54,1.056,1.056,0,0,0-.677-.154,3.578,3.578,0,0,0-1.145.219v-.5a2.693,2.693,0,0,1,1.281-.285,1.6,1.6,0,0,1,1.06.278,1.069,1.069,0,0,1,.316.848v2.542h-.576l-.059-.36a1.765,1.765,0,0,1-1.163.453,1.115,1.115,0,0,1-.8-.283m.966-.246a1.647,1.647,0,0,0,.968-.357v-.716a3,3,0,0,0-.745-.094q-.792,0-.793.611a.552.552,0,0,0,.148.412.581.581,0,0,0,.422.144" transform="translate(0.016)" fill="#223143"/><path d="M44.584,53.774V51.393a.829.829,0,0,0-.151-.55.592.592,0,0,0-.472-.174,1.941,1.941,0,0,0-1.089.357v2.748h-.7V50.212h.584l.071.391a2.32,2.32,0,0,1,1.406-.5,1.048,1.048,0,0,1,.78.271,1.073,1.073,0,0,1,.266.782v2.615Z" transform="translate(0.018)" fill="#223143"/><path d="M46.556,53.38a2.37,2.37,0,0,1,.014-2.76,1.657,1.657,0,0,1,1.281-.487,2.087,2.087,0,0,1,.885.193v.5a2.624,2.624,0,0,0-.786-.127,1.07,1.07,0,0,0-.851.3,1.439,1.439,0,0,0-.261.958v.09a1.408,1.408,0,0,0,.264.943,1.052,1.052,0,0,0,.834.3,2.729,2.729,0,0,0,.827-.142v.5a2.09,2.09,0,0,1-.94.21,1.633,1.633,0,0,1-1.267-.473" transform="translate(0.02)" fill="#223143"/><path d="M50.228,53.031a1.164,1.164,0,0,0,.861.286A3.448,3.448,0,0,0,52.27,53.1v.5a2.836,2.836,0,0,1-1.331.278A1.6,1.6,0,0,1,49.7,53.4a1.973,1.973,0,0,1-.443-1.389A2.041,2.041,0,0,1,49.7,50.6a1.574,1.574,0,0,1,1.239-.5,1.4,1.4,0,0,1,1.049.377,1.478,1.478,0,0,1,.365,1.07,2.747,2.747,0,0,1-.058.591H49.929a1.254,1.254,0,0,0,.3.887m1.459-1.53q0-.867-.786-.867-.9,0-.971,1.054H51.68a1.622,1.622,0,0,0,.007-.187" transform="translate(0.021)" fill="#223143"/><path d="M53.159,53a2.362,2.362,0,0,1-.191-.988,2.509,2.509,0,0,1,.185-1,1.531,1.531,0,0,1,.526-.668,1.5,1.5,0,0,1,.876-.238,1.559,1.559,0,0,1,1.011.4V48.572h.7v5.2h-.576l-.093-.364a1.628,1.628,0,0,1-1.12.443,1.419,1.419,0,0,1-.783-.218A1.446,1.446,0,0,1,53.159,53m1.483-2.329q-.956,0-.956,1.311t1,1.31a1.511,1.511,0,0,0,.884-.326V50.977a1.519,1.519,0,0,0-.925-.308" transform="translate(0.022)" fill="#223143"/><path d="M60.274,53.774V49.495H58.723V48.9h3.825v.59H60.992v4.279Z" transform="translate(0.025)" fill="#223143"/><path d="M63.87,49.462a.428.428,0,0,1-.319.116.438.438,0,0,1-.322-.116.456.456,0,0,1,0-.61.438.438,0,0,1,.322-.115.428.428,0,0,1,.319.115.468.468,0,0,1,0,.61m-.673.75h.7v3.562h-.7Z" transform="translate(0.027)" fill="#223143"/><path d="M65.751,53.031a1.164,1.164,0,0,0,.861.286,3.448,3.448,0,0,0,1.18-.218v.5a2.836,2.836,0,0,1-1.331.278,1.6,1.6,0,0,1-1.244-.481,1.973,1.973,0,0,1-.443-1.389,2.041,2.041,0,0,1,.443-1.407,1.574,1.574,0,0,1,1.239-.5,1.4,1.4,0,0,1,1.049.377,1.478,1.478,0,0,1,.365,1.07,2.747,2.747,0,0,1-.058.591H65.452a1.254,1.254,0,0,0,.3.887M67.21,51.5q0-.867-.786-.867-.9,0-.971,1.054H67.2c0-.037.007-.1.007-.187" transform="translate(0.027)" fill="#223143"/><path d="M69.338,50.716a1.5,1.5,0,0,1,1.058-.534,2,2,0,0,1,.319.023v.608a3.112,3.112,0,0,0-.378-.028,1.447,1.447,0,0,0-.964.339v2.65h-.7V50.212h.583Z" transform="translate(0.029)" fill="#223143"/><path d="M45.6,58.229a1.128,1.128,0,0,1-.257-.743,1.344,1.344,0,0,1,.2-.738,1.322,1.322,0,0,1,.563-.48,2.176,2.176,0,0,1,.934-.175,3.462,3.462,0,0,1,1.232.254v.569a4.317,4.317,0,0,0-1.21-.217,1.224,1.224,0,0,0-.748.185.6.6,0,0,0-.248.5.639.639,0,0,0,.168.477,1.843,1.843,0,0,0,.626.333l.643.24a1.868,1.868,0,0,1,.814.51,1.173,1.173,0,0,1,.246.77,1.326,1.326,0,0,1-.478,1.075,1.948,1.948,0,0,1-1.293.4,3.163,3.163,0,0,1-1.4-.289v-.563a4.147,4.147,0,0,0,1.31.248,1.416,1.416,0,0,0,.863-.218.707.707,0,0,0,.285-.592.6.6,0,0,0-.165-.433,1.6,1.6,0,0,0-.56-.326l-.684-.261a1.933,1.933,0,0,1-.832-.526" transform="translate(0.019)" fill="#223143"/><path d="M50.248,60.325a1.164,1.164,0,0,0,.861.286,3.448,3.448,0,0,0,1.181-.218v.5a2.836,2.836,0,0,1-1.331.278,1.6,1.6,0,0,1-1.244-.481,1.973,1.973,0,0,1-.443-1.389,2.041,2.041,0,0,1,.443-1.407,1.574,1.574,0,0,1,1.239-.5A1.4,1.4,0,0,1,52,57.777a1.478,1.478,0,0,1,.365,1.07,2.746,2.746,0,0,1-.058.591H49.949a1.254,1.254,0,0,0,.3.887m1.459-1.53q0-.867-.786-.867-.9,0-.971,1.054H51.7c0-.037.007-.1.007-.187" transform="translate(0.021)" fill="#223143"/><path d="M53.836,58.01a1.5,1.5,0,0,1,1.058-.534,2,2,0,0,1,.319.023v.608a3.113,3.113,0,0,0-.378-.028,1.447,1.447,0,0,0-.964.339v2.65h-.7V57.506h.583Z" transform="translate(0.023)" fill="#223143"/><path d="M56.974,61.068l-1.4-3.562h.745l1.005,2.931,1.005-2.931h.718l-1.391,3.562Z" transform="translate(0.024)" fill="#223143"/><path d="M60.322,56.756a.428.428,0,0,1-.319.116.441.441,0,0,1-.323-.116.405.405,0,0,1-.116-.3.41.41,0,0,1,.116-.306A.444.444,0,0,1,60,56.031a.431.431,0,0,1,.319.115.42.42,0,0,1,.113.306.415.415,0,0,1-.113.3m-.673.751h.7v3.562h-.7Z" transform="translate(0.025)" fill="#223143"/><path d="M61.664,60.674a2.37,2.37,0,0,1,.014-2.76,1.657,1.657,0,0,1,1.281-.487,2.087,2.087,0,0,1,.885.193v.5a2.624,2.624,0,0,0-.786-.127,1.07,1.07,0,0,0-.851.3,1.439,1.439,0,0,0-.261.958v.09a1.408,1.408,0,0,0,.264.943,1.052,1.052,0,0,0,.834.3,2.729,2.729,0,0,0,.827-.142v.495a2.09,2.09,0,0,1-.94.21,1.633,1.633,0,0,1-1.267-.473" transform="translate(0.026)" fill="#223143"/><path d="M65.335,60.325a1.164,1.164,0,0,0,.861.286,3.448,3.448,0,0,0,1.18-.218v.5a2.836,2.836,0,0,1-1.331.278,1.6,1.6,0,0,1-1.244-.481A1.973,1.973,0,0,1,64.36,59.3,2.041,2.041,0,0,1,64.8,57.9a1.575,1.575,0,0,1,1.24-.5,1.394,1.394,0,0,1,1.048.377,1.478,1.478,0,0,1,.365,1.07,2.746,2.746,0,0,1-.058.591H65.036a1.254,1.254,0,0,0,.3.887m1.459-1.53q0-.867-.786-.867-.9,0-.971,1.054h1.751a1.623,1.623,0,0,0,.007-.187" transform="translate(0.027)" fill="#223143"/><path d="M69.765,60.5a.411.411,0,0,0,.18-.345.416.416,0,0,0-.11-.315,1.185,1.185,0,0,0-.393-.211l-.6-.223a1.021,1.021,0,0,1-.793-.985.892.892,0,0,1,.362-.738,1.467,1.467,0,0,1,.927-.281,2.6,2.6,0,0,1,1.067.223v.494a3.446,3.446,0,0,0-1.023-.175c-.449,0-.673.152-.67.456a.375.375,0,0,0,.111.287,1.453,1.453,0,0,0,.44.232l.547.212a1.456,1.456,0,0,1,.609.383.853.853,0,0,1,.187.571.956.956,0,0,1-.381.795,1.654,1.654,0,0,1-1.038.3,2.492,2.492,0,0,1-1.169-.267v-.491a3.756,3.756,0,0,0,1.116.216,1.091,1.091,0,0,0,.63-.134" transform="translate(0.029)" fill="#223143"/><rect width="78.082" height="78.049" transform="translate(181.918 1.206)" fill="#fff"/><rect width="78.082" height="2.918" transform="translate(181.918 1.206)" fill="#2f3c4c"/><path d="M195.558,19.653a2.123,2.123,0,0,0,.076.618,3.706,3.706,0,0,0,.223.5.306.306,0,0,1,.048.16.272.272,0,0,1-.132.208l-.438.292a.33.33,0,0,1-.181.063.321.321,0,0,1-.208-.1,2.194,2.194,0,0,1-.251-.327c-.069-.118-.139-.25-.215-.41a2.573,2.573,0,0,1-2.046.959,1.907,1.907,0,0,1-1.391-.5,1.96,1.96,0,0,1,.118-2.767,2.529,2.529,0,0,1,1.7-.543,5.487,5.487,0,0,1,.737.056c.257.035.521.091.8.153v-.508a1.544,1.544,0,0,0-.326-1.113,1.6,1.6,0,0,0-1.134-.32,3.2,3.2,0,0,0-.751.09,5.511,5.511,0,0,0-.751.237,1.807,1.807,0,0,1-.243.09.43.43,0,0,1-.112.021c-.1,0-.146-.069-.146-.215v-.34a.447.447,0,0,1,.049-.245.529.529,0,0,1,.2-.145,4.028,4.028,0,0,1,.876-.314,4.282,4.282,0,0,1,1.085-.131,2.543,2.543,0,0,1,1.823.563,2.3,2.3,0,0,1,.577,1.711v2.253Zm-2.825,1.056a2.245,2.245,0,0,0,.717-.125,1.538,1.538,0,0,0,.66-.445,1.1,1.1,0,0,0,.237-.445,2.523,2.523,0,0,0,.069-.6V18.8a5.76,5.76,0,0,0-.639-.118,5.228,5.228,0,0,0-.654-.042,1.6,1.6,0,0,0-1.036.278.993.993,0,0,0,.646,1.793m5.586.751a.392.392,0,0,1-.264-.069.576.576,0,0,1-.146-.271l-1.635-5.376a1.194,1.194,0,0,1-.063-.278.152.152,0,0,1,.167-.173h.682a.379.379,0,0,1,.271.07.565.565,0,0,1,.139.27l1.168,4.6,1.085-4.6a.486.486,0,0,1,.132-.27.477.477,0,0,1,.278-.07h.557a.412.412,0,0,1,.278.07.471.471,0,0,1,.132.27l1.1,4.659,1.2-4.659a.577.577,0,0,1,.139-.27.45.45,0,0,1,.271-.07h.647a.154.154,0,0,1,.173.173.775.775,0,0,1-.013.111,1,1,0,0,1-.049.175L202.9,21.126a.533.533,0,0,1-.146.272.451.451,0,0,1-.264.069h-.6a.422.422,0,0,1-.278-.069.493.493,0,0,1-.133-.278L200.4,16.634l-1.071,4.479a.551.551,0,0,1-.132.278.438.438,0,0,1-.279.069Zm8.94.188a4.63,4.63,0,0,1-1.071-.125,3.2,3.2,0,0,1-.8-.278.5.5,0,0,1-.215-.2.489.489,0,0,1-.042-.195V20.5c0-.146.056-.216.16-.216a.386.386,0,0,1,.125.021c.042.014.105.042.174.069a3.782,3.782,0,0,0,.765.244,4.224,4.224,0,0,0,.828.083,1.878,1.878,0,0,0,1.015-.229.749.749,0,0,0,.361-.66.677.677,0,0,0-.187-.487,1.752,1.752,0,0,0-.7-.361l-1.008-.313a2.123,2.123,0,0,1-1.113-.709,1.66,1.66,0,0,1-.347-1.01,1.551,1.551,0,0,1,.187-.772,1.8,1.8,0,0,1,.5-.57,2.221,2.221,0,0,1,.723-.361,3.017,3.017,0,0,1,.876-.118,3.315,3.315,0,0,1,.466.028c.16.02.306.048.452.076s.272.069.4.111a1.537,1.537,0,0,1,.292.125.586.586,0,0,1,.208.175.37.37,0,0,1,.063.228v.327c0,.146-.056.223-.16.223a.716.716,0,0,1-.264-.084,3.2,3.2,0,0,0-1.336-.271,1.8,1.8,0,0,0-.925.2.672.672,0,0,0-.327.62.662.662,0,0,0,.209.494,2.074,2.074,0,0,0,.765.382l.987.313a2.118,2.118,0,0,1,1.078.667,1.578,1.578,0,0,1,.32.973,1.793,1.793,0,0,1-.181.807,1.87,1.87,0,0,1-.508.612,2.228,2.228,0,0,1-.772.389,3.317,3.317,0,0,1-.994.146" transform="translate(0.081)" fill="#252f3e"/><path d="M208.575,25.028a15.01,15.01,0,0,1-8.474,2.587,15.331,15.331,0,0,1-10.344-3.943c-.216-.2-.021-.459.236-.306a20.87,20.87,0,0,0,10.352,2.747,20.677,20.677,0,0,0,7.9-1.613c.383-.174.71.25.334.528" transform="translate(0.08)" fill="#f90" fill-rule="evenodd"/><path d="M209.52,23.943c-.292-.376-1.934-.181-2.678-.09-.223.027-.257-.167-.056-.313a4.135,4.135,0,0,1,3.709-.348c.25.313-.07,2.462-1.295,3.491-.188.16-.368.076-.285-.132.278-.689.9-2.239.605-2.608" transform="translate(0.087)" fill="#f90" fill-rule="evenodd"/><path d="M216.06,20.181V16.242h.458l.05.286a1.4,1.4,0,0,1,.945-.369,1.017,1.017,0,0,1,.836.39,1.661,1.661,0,0,1,.311,1.064,1.671,1.671,0,0,1-.329,1.083,1.039,1.039,0,0,1-.846.409,1.264,1.264,0,0,1-.878-.327v1.4Zm1.853-3.326a.656.656,0,0,0-.57-.254,1.232,1.232,0,0,0-.735.254V18.4a1.226,1.226,0,0,0,.73.267q.762,0,.759-1.028a1.33,1.33,0,0,0-.184-.779" transform="translate(0.091)"/><path d="M219.388,18.894a.793.793,0,0,1-.236-.609.765.765,0,0,1,.287-.624,1.179,1.179,0,0,1,.773-.237,2.91,2.91,0,0,1,.7.094v-.372a.55.55,0,0,0-.135-.423.832.832,0,0,0-.533-.122,2.8,2.8,0,0,0-.9.172v-.39a2.1,2.1,0,0,1,1.006-.224,1.262,1.262,0,0,1,.833.218.841.841,0,0,1,.248.667v2h-.453l-.045-.283a1.392,1.392,0,0,1-.915.355.877.877,0,0,1-.627-.221m.759-.194a1.289,1.289,0,0,0,.761-.281v-.563a2.346,2.346,0,0,0-.585-.073q-.624,0-.624.48a.435.435,0,0,0,.116.324.459.459,0,0,0,.332.113" transform="translate(0.093)"/><path d="M222.76,16.639a1.182,1.182,0,0,1,.832-.42,1.517,1.517,0,0,1,.25.018v.478a2.63,2.63,0,0,0-.3-.022,1.135,1.135,0,0,0-.758.267v2.083h-.548v-2.8h.459Z" transform="translate(0.094)"/><path d="M225.425,19.081a.693.693,0,0,1-.785-.783V16.669h-.507v-.358l.523-.058.084-.8h.447v.788h.829v.426h-.829v1.6a.377.377,0,0,0,.091.288.466.466,0,0,0,.314.083,1.87,1.87,0,0,0,.445-.054v.391a1.68,1.68,0,0,1-.612.1" transform="translate(0.095)"/><path d="M228.473,19.043V17.171a.659.659,0,0,0-.118-.432.464.464,0,0,0-.372-.137,1.519,1.519,0,0,0-.856.281v2.16h-.548v-2.8h.459l.056.308a1.821,1.821,0,0,1,1.1-.392.825.825,0,0,1,.614.213.843.843,0,0,1,.209.615v2.056Z" transform="translate(0.096)"/><path d="M230.447,18.458a.914.914,0,0,0,.677.226,2.7,2.7,0,0,0,.927-.172v.4a2.24,2.24,0,0,1-1.045.218,1.265,1.265,0,0,1-.978-.378,1.563,1.563,0,0,1-.348-1.092,1.611,1.611,0,0,1,.348-1.106,1.238,1.238,0,0,1,.974-.391,1.094,1.094,0,0,1,.825.3,1.162,1.162,0,0,1,.287.842,2.132,2.132,0,0,1-.046.464h-1.857a.982.982,0,0,0,.235.7m1.146-1.2q0-.681-.618-.682-.71,0-.763.828h1.377c0-.028.005-.078.005-.146" transform="translate(0.097)"/><path d="M233.268,16.639a1.182,1.182,0,0,1,.832-.42,1.517,1.517,0,0,1,.25.018v.478a2.63,2.63,0,0,0-.3-.022,1.135,1.135,0,0,0-.758.267v2.083h-.548v-2.8h.459Z" transform="translate(0.098)"/><path d="M217.955,25.258V23.386a.659.659,0,0,0-.118-.432.464.464,0,0,0-.372-.137,1.519,1.519,0,0,0-.856.281v2.16h-.548v-2.8h.459l.056.308a1.821,1.821,0,0,1,1.1-.392.824.824,0,0,1,.614.213.843.843,0,0,1,.209.615v2.056Z" transform="translate(0.091)"/><path d="M219.929,24.673a.914.914,0,0,0,.677.226,2.7,2.7,0,0,0,.927-.172v.4a2.24,2.24,0,0,1-1.045.218,1.265,1.265,0,0,1-.978-.378,1.563,1.563,0,0,1-.348-1.092,1.611,1.611,0,0,1,.348-1.106,1.238,1.238,0,0,1,.974-.391,1.094,1.094,0,0,1,.825.3,1.163,1.163,0,0,1,.287.842,2.134,2.134,0,0,1-.046.464h-1.857a.982.982,0,0,0,.235.7m1.146-1.2q0-.681-.618-.682-.71,0-.763.828h1.377c0-.028,0-.078,0-.146" transform="translate(0.093)"/><path d="M223.191,25.3a.693.693,0,0,1-.785-.783V22.884H221.9v-.358l.523-.058.084-.8h.447v.788h.829v.426h-.829v1.6a.377.377,0,0,0,.091.288.466.466,0,0,0,.314.083,1.87,1.87,0,0,0,.445-.054v.391a1.68,1.68,0,0,1-.612.1" transform="translate(0.094)"/><path d="M226.728,25.258l-.6-2.194-.591,2.194h-.552l-.917-2.8h.575l.631,2.242.6-2.242h.572l.593,2.263.647-2.263h.556l-.939,2.8Z" transform="translate(0.095)"/><path d="M230.8,24.949a1.436,1.436,0,0,1-1.972,0,1.849,1.849,0,0,1,0-2.182,1.433,1.433,0,0,1,1.972,0,1.841,1.841,0,0,1,0,2.182m-1.764-1.091q0,1.041.778,1.041t.779-1.041q0-1.042-.779-1.041t-.778,1.041" transform="translate(0.097)"/><path d="M232.342,22.854a1.182,1.182,0,0,1,.832-.42,1.517,1.517,0,0,1,.25.018v.478a2.63,2.63,0,0,0-.3-.022,1.135,1.135,0,0,0-.758.267v2.083h-.548v-2.8h.459Z" transform="translate(0.098)"/><path d="M233.881,25.258V21.169h.548v2.508l1.19-1.219h.667l-1.326,1.33,1.415,1.47h-.691l-1.255-1.327v1.327Z" transform="translate(0.099)"/><path d="M196.3,56.111a5.085,5.085,0,0,1-1.868.332,3.441,3.441,0,0,1-2.675-.994,4.21,4.21,0,0,1-.906-2.929,4.158,4.158,0,0,1,.939-2.933,3.5,3.5,0,0,1,2.7-1.012,4.589,4.589,0,0,1,1.7.3v.575a6.6,6.6,0,0,0-1.626-.244,2.971,2.971,0,0,0-2.26.79,3.353,3.353,0,0,0-.746,2.381v.277q0,3.16,2.929,3.16a7.39,7.39,0,0,0,1.813-.276Z" transform="translate(0.081)" fill="#223143"/><path d="M199.723,56.487a2.365,2.365,0,0,1-1.89-.779,3.819,3.819,0,0,1,0-4.337,2.694,2.694,0,0,1,3.78,0,3.824,3.824,0,0,1,0,4.337,2.366,2.366,0,0,1-1.89.779m0-.575q1.912,0,1.913-2.376t-1.913-2.365q-1.913,0-1.913,2.365t1.913,2.376" transform="translate(0.083)" fill="#223143"/><path d="M207.668,56.321V52.542a1.6,1.6,0,0,0-.276-1.044,1.1,1.1,0,0,0-.884-.326,3.819,3.819,0,0,0-2.156.707v4.442h-.63V50.763h.553l.066.641a4.529,4.529,0,0,1,1.138-.6,3.467,3.467,0,0,1,1.16-.211,1.667,1.667,0,0,1,1.233.426,1.7,1.7,0,0,1,.426,1.254v4.044Z" transform="translate(0.086)" fill="#223143"/><path d="M212.827,54.862a.685.685,0,0,0-.215-.508,2.1,2.1,0,0,0-.724-.4l-1.006-.375a1.526,1.526,0,0,1-1.182-1.448,1.369,1.369,0,0,1,.514-1.11,2.034,2.034,0,0,1,1.343-.426,3.851,3.851,0,0,1,.807.089,4.009,4.009,0,0,1,.774.243v.519a5.331,5.331,0,0,0-1.615-.287,1.471,1.471,0,0,0-.906.237.831.831,0,0,0-.309.7.76.76,0,0,0,.215.58,2.765,2.765,0,0,0,.846.447l.884.332a2.124,2.124,0,0,1,.9.569,1.256,1.256,0,0,1,.282.834,1.439,1.439,0,0,1-.547,1.188,2.32,2.32,0,0,1-1.487.437,3.982,3.982,0,0,1-1.8-.4v-.52a5.471,5.471,0,0,0,1.847.354,1.669,1.669,0,0,0,1.027-.27.935.935,0,0,0,.354-.791" transform="translate(0.089)" fill="#223143"/><path d="M218.5,56.321l-.066-.608a3.627,3.627,0,0,1-2.178.774,1.642,1.642,0,0,1-1.222-.431,1.719,1.719,0,0,1-.425-1.26V50.763h.629v3.768a1.617,1.617,0,0,0,.277,1.055,1.081,1.081,0,0,0,.873.326,3.052,3.052,0,0,0,1.016-.166,4.263,4.263,0,0,0,1.017-.541V50.763h.629v5.558Z" transform="translate(0.091)" fill="#223143"/><path d="M222.274,56.277a2.189,2.189,0,0,1-.563.078.913.913,0,0,1-.691-.26,1,1,0,0,1-.249-.724V48.144h.63V55.36a.491.491,0,0,0,.094.342.455.455,0,0,0,.337.1,3.73,3.73,0,0,0,.442-.034Z" transform="translate(0.093)" fill="#223143"/><path d="M226.362,56.2a2.98,2.98,0,0,1-1.116.188,1.337,1.337,0,0,1-1-.348,1.384,1.384,0,0,1-.342-1.011V51.315h-1.039v-.441l1.061-.1.089-1.624h.519v1.613h1.769v.552h-1.769v3.68a.871.871,0,0,0,.193.641.913.913,0,0,0,.647.188,4.1,4.1,0,0,0,.983-.133Z" transform="translate(0.094)" fill="#223143"/><path d="M227.9,49.57a.459.459,0,0,1-.349-.133.555.555,0,0,1,0-.707.463.463,0,0,1,.349-.133.458.458,0,0,1,.347.133.552.552,0,0,1,0,.707.455.455,0,0,1-.347.133m-.321,1.194h.63v5.558h-.63Z" transform="translate(0.096)" fill="#223143"/><path d="M233.921,56.321V52.542a1.6,1.6,0,0,0-.276-1.044,1.1,1.1,0,0,0-.884-.326,3.819,3.819,0,0,0-2.156.707v4.442h-.63V50.763h.553l.066.641a4.529,4.529,0,0,1,1.138-.6,3.467,3.467,0,0,1,1.16-.211,1.667,1.667,0,0,1,1.233.426,1.7,1.7,0,0,1,.426,1.254v4.044Z" transform="translate(0.097)" fill="#223143"/><path d="M240.164,55.5a3.278,3.278,0,0,1-.906.541,2.549,2.549,0,0,1-.95.2,2.119,2.119,0,0,1-1.7-.756,3,3,0,0,1-.641-2.006,3.23,3.23,0,0,1,.635-2.11,2.119,2.119,0,0,1,1.73-.774,2.652,2.652,0,0,1,1.846.74l.067-.574h.552v5.3a2.728,2.728,0,0,1-.663,1.984,2.566,2.566,0,0,1-1.923.68,3.636,3.636,0,0,1-1.8-.42v-.52a4.842,4.842,0,0,0,1.769.365,1.991,1.991,0,0,0,1.509-.509,2.269,2.269,0,0,0,.48-1.6Zm-1.713.166a2.777,2.777,0,0,0,1.713-.707V51.89a3.4,3.4,0,0,0-.873-.547,2.348,2.348,0,0,0-.9-.172,1.588,1.588,0,0,0-1.332.575,2.736,2.736,0,0,0-.447,1.7,2.538,2.538,0,0,0,.469,1.652,1.667,1.667,0,0,0,1.366.569" transform="translate(0.1)" fill="#223143"/><path d="M191.7,64.946v3.115h-.63V60.4h2.642a2.273,2.273,0,0,1,1.675.619,2.495,2.495,0,0,1,0,3.3,2.277,2.277,0,0,1-1.675.619Zm0-.586h1.99a1.686,1.686,0,0,0,0-3.371H191.7Z" transform="translate(0.081)" fill="#223143"/><path d="M200.641,68.061l-.056-.641a3.135,3.135,0,0,1-1.989.763,1.654,1.654,0,0,1-1.211-.437,1.549,1.549,0,0,1-.448-1.166,1.571,1.571,0,0,1,.552-1.27,2.265,2.265,0,0,1,1.5-.464,5.442,5.442,0,0,1,1.58.254v-.928a1.255,1.255,0,0,0-.32-.967,1.557,1.557,0,0,0-1.061-.293,5.705,5.705,0,0,0-1.89.354v-.52a4.613,4.613,0,0,1,.95-.3,5.072,5.072,0,0,1,1.039-.111,2.16,2.16,0,0,1,1.443.409,1.554,1.554,0,0,1,.469,1.238v4.077Zm-1.957-.453a2.742,2.742,0,0,0,.906-.171,5.088,5.088,0,0,0,.983-.481V65.575a5.552,5.552,0,0,0-1.437-.2q-1.547,0-1.548,1.193a1.025,1.025,0,0,0,.276.774,1.138,1.138,0,0,0,.818.265" transform="translate(0.083)" fill="#223143"/><path d="M202.9,68.061V62.5h.552l.067.807a2.773,2.773,0,0,1,.823-.658,2.082,2.082,0,0,1,.912-.193,3.763,3.763,0,0,1,.453.033v.563c-.192-.014-.365-.022-.52-.022a2.061,2.061,0,0,0-.9.188,2.4,2.4,0,0,0-.757.608v4.232Z" transform="translate(0.086)" fill="#223143"/><path d="M209.755,67.939a2.98,2.98,0,0,1-1.116.188,1.337,1.337,0,0,1-1-.348,1.383,1.383,0,0,1-.342-1.011V63.055h-1.039v-.441l1.061-.1.089-1.624h.519V62.5H209.7v.552h-1.769v3.68a.871.871,0,0,0,.193.641.913.913,0,0,0,.647.188,4.1,4.1,0,0,0,.983-.133Z" transform="translate(0.087)" fill="#223143"/><path d="M214.872,68.061V64.282a1.6,1.6,0,0,0-.276-1.044,1.1,1.1,0,0,0-.884-.326,3.819,3.819,0,0,0-2.156.707v4.442h-.63V62.5h.553l.066.641a4.529,4.529,0,0,1,1.138-.6,3.467,3.467,0,0,1,1.16-.211,1.667,1.667,0,0,1,1.233.426,1.7,1.7,0,0,1,.426,1.254v4.044Z" transform="translate(0.089)" fill="#223143"/><path d="M217.555,65.387a2.532,2.532,0,0,0,.508,1.712,1.963,1.963,0,0,0,1.537.553,4.455,4.455,0,0,0,1.824-.387v.52a3.742,3.742,0,0,1-1.868.442,2.511,2.511,0,0,1-1.979-.746,3.243,3.243,0,0,1-.663-2.216,3.19,3.19,0,0,1,.668-2.16,2.352,2.352,0,0,1,1.874-.767,2.009,2.009,0,0,1,1.543.574,2.327,2.327,0,0,1,.535,1.647,4.341,4.341,0,0,1-.066.828ZM219.4,62.9q-1.747,0-1.846,1.978h3.36c.007-.1.011-.225.011-.365a1.69,1.69,0,0,0-.387-1.2A1.493,1.493,0,0,0,219.4,62.9" transform="translate(0.092)" fill="#223143"/><path d="M222.925,68.061V62.5h.552l.067.807a2.773,2.773,0,0,1,.823-.658,2.081,2.081,0,0,1,.912-.193,3.763,3.763,0,0,1,.453.033v.563c-.192-.014-.365-.022-.52-.022a2.062,2.062,0,0,0-.9.188,2.4,2.4,0,0,0-.757.608v4.232Z" transform="translate(0.094)" fill="#223143"/><path d="M192.815,44.941l-.321-.961h-1.531l-.309.961h-.675l1.4-3.829h.729l1.38,3.829Zm-1.692-1.453h1.217l-.611-1.768Z" transform="translate(0.08)" fill="#223143"/><path d="M195.831,44.941l-.066-.271A1.271,1.271,0,0,1,194.9,45a1.03,1.03,0,0,1-.848-.4,1.649,1.649,0,0,1-.318-1.064,1.971,1.971,0,0,1,.144-.779,1.213,1.213,0,0,1,.414-.528,1.094,1.094,0,0,1,.641-.19,1.272,1.272,0,0,1,.806.287v-1.48h.653v4.088Zm-.729-.453a1.116,1.116,0,0,0,.635-.21v-1.52a1.058,1.058,0,0,0-.624-.2.633.633,0,0,0-.544.235,1.214,1.214,0,0,0-.174.721q0,.972.707.972" transform="translate(0.082)" fill="#223143"/><path d="M197.913,44.941l-1.088-2.812h.652l.757,2.226.74-2.226h.652l-1.083,2.812Z" transform="translate(0.083)" fill="#223143"/><path d="M201.7,44.941l-.049-.271a1.5,1.5,0,0,1-.429.26,1.259,1.259,0,0,1-.466.094.867.867,0,0,1-.628-.232.87.87,0,0,1,.056-1.254,1.21,1.21,0,0,1,.792-.243,2.8,2.8,0,0,1,.641.083v-.327a.512.512,0,0,0-.121-.391.628.628,0,0,0-.426-.111,3.261,3.261,0,0,0-.989.182v-.458a2.015,2.015,0,0,1,.509-.166,3.017,3.017,0,0,1,.605-.061,1.246,1.246,0,0,1,.813.221.856.856,0,0,1,.261.691v1.983Zm-.745-.381a.879.879,0,0,0,.328-.069,1.333,1.333,0,0,0,.334-.2v-.531a2.494,2.494,0,0,0-.506-.06q-.56,0-.56.447a.406.406,0,0,0,.108.3.4.4,0,0,0,.3.108" transform="translate(0.085)" fill="#223143"/><path d="M204.87,44.941V43.079a.59.59,0,0,0-.11-.4.452.452,0,0,0-.354-.124,1.387,1.387,0,0,0-.746.243v2.138h-.652V42.129h.542l.066.31a1.765,1.765,0,0,1,1.083-.393.827.827,0,0,1,.613.212.845.845,0,0,1,.21.617v2.066Z" transform="translate(0.086)" fill="#223143"/><path d="M208.278,44.831A1.657,1.657,0,0,1,207.5,45a1.289,1.289,0,0,1-.994-.375,1.51,1.51,0,0,1-.348-1.067,1.566,1.566,0,0,1,.359-1.1,1.3,1.3,0,0,1,1.005-.392,1.6,1.6,0,0,1,.735.166v.458a2.38,2.38,0,0,0-.63-.1.77.77,0,0,0-.61.224,1.028,1.028,0,0,0-.2.693v.072a1.011,1.011,0,0,0,.2.685.775.775,0,0,0,.61.221,2.192,2.192,0,0,0,.652-.111Z" transform="translate(0.087)" fill="#223143"/><path d="M209.305,43.692a.847.847,0,0,0,.227.616.922.922,0,0,0,.648.2,2.69,2.69,0,0,0,.854-.154v.458a1.783,1.783,0,0,1-.445.158,2.454,2.454,0,0,1-.533.057A1.39,1.39,0,0,1,209,44.648a1.521,1.521,0,0,1-.359-1.094,1.625,1.625,0,0,1,.351-1.111,1.237,1.237,0,0,1,.98-.4,1.116,1.116,0,0,1,.832.295,1.147,1.147,0,0,1,.29.837,2.488,2.488,0,0,1-.048.514Zm.665-1.171a.589.589,0,0,0-.461.2.874.874,0,0,0-.2.535h1.211v-.044a.82.82,0,0,0-.139-.513.486.486,0,0,0-.406-.177" transform="translate(0.088)" fill="#223143"/><path d="M213.687,44.941l-.066-.271a1.271,1.271,0,0,1-.867.332,1.03,1.03,0,0,1-.848-.4,1.649,1.649,0,0,1-.318-1.064,1.971,1.971,0,0,1,.144-.779,1.213,1.213,0,0,1,.414-.528,1.094,1.094,0,0,1,.641-.19,1.274,1.274,0,0,1,.806.287v-1.48h.653v4.088Zm-.729-.453a1.116,1.116,0,0,0,.635-.21v-1.52a1.058,1.058,0,0,0-.624-.2.633.633,0,0,0-.544.235,1.214,1.214,0,0,0-.174.721q0,.972.707.972" transform="translate(0.09)" fill="#223143"/><path d="M145.662,1.041H91.948V55l25.014,25h53.979V26.309Z" transform="translate(0.039)" fill="#fff"/><path d="M145,2.686l24.291,24.281V78.355H117.62L93.594,54.338V2.686Zm.658-1.645H91.948V55l25.014,25H170.94V26.309Z" transform="translate(0.039)" fill="#f90"/><path d="M104.78,45.521v2.9h-1.646v-7.9h3.027a2.784,2.784,0,0,1,1.975.658,2.514,2.514,0,0,1-1.975,4.342Zm0-1.251h1.187a1,1,0,0,0,.853-.329,1.579,1.579,0,0,0,0-1.84,1.374,1.374,0,0,0-.853-.33H104.78Zm10.991,4.147-.523-1.775h-2.7l-.528,1.775h-1.776l2.763-7.9h1.91l2.7,7.9Zm-2.892-3.026h1.975l-.987-3.29Zm7.106,3.026v-7.9h3.027a2.769,2.769,0,0,1,1.975.658,2.524,2.524,0,0,1,.728,1.775,2.16,2.16,0,0,1-.4,1.251,2.641,2.641,0,0,1-1.052.857l1.975,3.42h-1.775l-1.711-3.091H121.63v3.026Zm1.646-4.278h1.188A1.044,1.044,0,0,0,124,43.218v-.329a1.042,1.042,0,0,0-.852-1.182h-1.452v2.432Zm8.623,4.278V41.9h-2.434V40.521h6.518V41.9H131.9v6.515Zm8.228-5.463v5.463h-1.512v-7.9h1.841l3.226,5.528V40.521h1.516v7.9h-1.845Zm8.1,5.463v-7.9h5.2v1.316h-3.49v1.844h2.832V45H148.29v2.1h3.49v1.316Zm8.228,0v-7.9h3.027a2.784,2.784,0,0,1,1.975.658,2.524,2.524,0,0,1,.723,1.775,2.154,2.154,0,0,1-.394,1.251,2.675,2.675,0,0,1-1.052.857l1.975,3.42h-1.776l-1.715-3.091h-1.117v3.026Zm1.646-4.278h1.186a1.047,1.047,0,0,0,1.182-.921v-.329a1.046,1.046,0,0,0-.853-1.182h-1.516Z" transform="translate(0.044)" fill="#242e3d"/><path d="M109.518,19.136a1.628,1.628,0,0,0,.134.788c.065.2.2.463.264.658a.251.251,0,0,1,.065.2c0,.13-.065.2-.2.264l-.593.394h-.2a.34.34,0,0,1-.264-.13,1.777,1.777,0,0,1-.329-.4,3.906,3.906,0,0,1-.264-.524,3.381,3.381,0,0,1-2.633,1.251,2.238,2.238,0,0,1-1.776-.658,2.331,2.331,0,0,1-.658-1.714,2.389,2.389,0,0,1,.788-1.84,3.577,3.577,0,0,1,2.174-.723,4.109,4.109,0,0,1,.922.065l.987.195v-.658a1.886,1.886,0,0,0-.4-1.446,1.882,1.882,0,0,0-1.447-.394,5.142,5.142,0,0,0-.987.13,5.866,5.866,0,0,0-.987.329c-.13.065-.2.065-.329.134h-.13c-.134,0-.2-.069-.2-.264v-.463a.606.606,0,0,1,.065-.329.924.924,0,0,1,.264-.195,3.19,3.19,0,0,1,1.117-.394,4.949,4.949,0,0,1,1.386-.2,3.249,3.249,0,0,1,2.3.723,2.928,2.928,0,0,1,.723,2.173ZM105.9,20.452a4.506,4.506,0,0,0,.922-.13,2.544,2.544,0,0,0,.857-.593,1.291,1.291,0,0,0,.329-.593,3.244,3.244,0,0,0,.065-.788v-.4a3.363,3.363,0,0,0-.788-.13,3.538,3.538,0,0,0-.857-.065,1.9,1.9,0,0,0-1.317.329,1.5,1.5,0,0,0-.13,1.974.925.925,0,0,0,.918.394m7.176.987a.5.5,0,0,1-.329-.065,1.46,1.46,0,0,1-.2-.329l-2.109-6.909a.73.73,0,0,1-.065-.329c0-.134.065-.2.13-.2h.922a.494.494,0,0,1,.329.065,1.551,1.551,0,0,1,.2.329l1.512,5.857L114.853,14a.368.368,0,0,1,.2-.329.731.731,0,0,1,.329-.065h.723a.494.494,0,0,1,.329.065,1.4,1.4,0,0,1,.2.329l1.382,5.991L119.526,14a.368.368,0,0,1,.2-.329.607.607,0,0,1,.329-.065h.857c.13,0,.2.065.2.134v.2c0,.065-.069.134-.069.2l-2.1,6.844a.364.364,0,0,1-.2.329c-.065.13-.2.13-.329.13h-.788a.5.5,0,0,1-.329-.065c-.065-.134-.13-.2-.2-.329l-1.382-5.727-1.382,5.727a.36.36,0,0,1-.2.329.391.391,0,0,1-.26.065Zm11.455.264a9.364,9.364,0,0,1-1.382-.134,6.165,6.165,0,0,1-1.052-.329.514.514,0,0,1-.329-.524v-.463c0-.195.065-.26.2-.26h.134c.065,0,.13.065.2.065a5.3,5.3,0,0,0,2.04.459,2.3,2.3,0,0,0,1.317-.329,1.116,1.116,0,0,0,.463-.853.637.637,0,0,0-.264-.593,2.47,2.47,0,0,0-.922-.463l-1.317-.394a2.86,2.86,0,0,1-1.447-.922,2.436,2.436,0,0,1-.463-1.316,1.879,1.879,0,0,1,.264-.987,2.345,2.345,0,0,1,.658-.723,2.462,2.462,0,0,1,.922-.459,3.2,3.2,0,0,1,1.117-.134,1.736,1.736,0,0,1,.593.069,1.948,1.948,0,0,1,.593.13c.2.065.329.065.528.13.13.069.26.069.394.134a.986.986,0,0,1,.264.195.5.5,0,0,1,.065.329v.4c0,.195-.065.26-.2.26a.508.508,0,0,1-.329-.13,3.766,3.766,0,0,0-1.711-.329,2.581,2.581,0,0,0-1.187.264.752.752,0,0,0-.394.788.836.836,0,0,0,.264.658,1.753,1.753,0,0,0,.987.463l1.252.394a3.054,3.054,0,0,1,1.382.853,2.024,2.024,0,0,1,.394,1.251,2.065,2.065,0,0,1-.264,1.052,1.933,1.933,0,0,1-.658.792,4.655,4.655,0,0,1-.987.524,4.98,4.98,0,0,1-1.117.134" transform="translate(0.044)" fill="#242e3d"/><path d="M126.173,25.98a19.213,19.213,0,0,1-10.862,3.29,19.667,19.667,0,0,1-13.23-5.069c-.265-.26,0-.589.329-.394a26.082,26.082,0,0,0,13.23,3.554,26.81,26.81,0,0,0,10.138-2.039c.459-.2.922.329.394.658m.459,1.974c-.13.264.134.394.4.195,1.577-1.316,1.975-4.078,1.646-4.472s-3.1-.723-4.742.459c-.264.2-.2.463.065.394.922-.13,3.031-.394,3.425.134s-.463,2.433-.792,3.29" transform="translate(0.043)" fill="#f90"/><path d="M114.568,55.654l-.8-3.423-.812,3.423h-.874l-1.3-4.565h.874l.874,3.7.812-3.568h.853l.823,3.557.884-3.691h.843l-1.3,4.565Z" transform="translate(0.047)" fill="#242e3d"/><path d="M117.863,54.164a1.023,1.023,0,0,0,.278.74,1.223,1.223,0,0,0,.8.226A3.489,3.489,0,0,0,120,54.955V55.5a2.263,2.263,0,0,1-.535.185,2.785,2.785,0,0,1-.637.072,1.674,1.674,0,0,1-1.255-.442A1.832,1.832,0,0,1,117.144,54a1.9,1.9,0,0,1,.421-1.316,1.493,1.493,0,0,1,1.172-.473,1.333,1.333,0,0,1,.987.35,1.36,1.36,0,0,1,.35,1,2.717,2.717,0,0,1-.062.607Zm.833-1.388a.763.763,0,0,0-.576.236,1.008,1.008,0,0,0-.257.638h1.523V53.6a.911.911,0,0,0-.175-.606.626.626,0,0,0-.514-.216" transform="translate(0.05)" fill="#242e3d"/><path d="M122.131,55.6a1.391,1.391,0,0,1-.514.093.785.785,0,0,1-.6-.216.952.952,0,0,1-.2-.648V50.781h.781V54.77a.358.358,0,0,0,.062.237.252.252,0,0,0,.205.072,1.364,1.364,0,0,0,.257-.021Z" transform="translate(0.051)" fill="#242e3d"/><path d="M124.112,55.6a1.4,1.4,0,0,1-.514.093.784.784,0,0,1-.6-.216.952.952,0,0,1-.2-.648V50.781h.78V54.77a.358.358,0,0,0,.063.237.252.252,0,0,0,.205.072,1.364,1.364,0,0,0,.257-.021Z" transform="translate(0.052)" fill="#242e3d"/><rect width="2.016" height="0.669" transform="translate(124.654 53.619)" fill="#242e3d"/><path d="M130.29,55.654l-.38-1.141h-1.749l-.37,1.141h-.833l1.657-4.564h.873l1.657,4.564Zm-1.944-1.727h1.379l-.689-2.107Z" transform="translate(0.054)" fill="#242e3d"/><path d="M131.664,55.654V52.3h.647l.1.5a1.9,1.9,0,0,1,.494-.4,1.034,1.034,0,0,1,.5-.123,1.891,1.891,0,0,1,.266.021v.709a2.259,2.259,0,0,0-.38-.031,1.5,1.5,0,0,0-.853.246v2.427Z" transform="translate(0.056)" fill="#242e3d"/><path d="M136.559,55.521a1.966,1.966,0,0,1-.926.205,1.568,1.568,0,0,1-1.193-.442,1.823,1.823,0,0,1-.411-1.275,1.849,1.849,0,0,1,.431-1.305,1.546,1.546,0,0,1,1.2-.473,2.025,2.025,0,0,1,.874.195v.555a2.791,2.791,0,0,0-.75-.133.925.925,0,0,0-.73.266,1.241,1.241,0,0,0-.237.834v.082a1.211,1.211,0,0,0,.237.822.944.944,0,0,0,.73.258,2.6,2.6,0,0,0,.771-.134Z" transform="translate(0.057)" fill="#242e3d"/><path d="M139.479,55.654V53.433a.675.675,0,0,0-.134-.463.536.536,0,0,0-.421-.153,1.675,1.675,0,0,0-.885.288v2.549h-.78V50.78h.78v1.852a2.14,2.14,0,0,1,1.235-.422.978.978,0,0,1,.73.257.989.989,0,0,1,.247.73v2.457Z" transform="translate(0.058)" fill="#242e3d"/><path d="M141.208,52.3h.771v3.351h-.771Zm.381-.555a.484.484,0,0,1-.339-.113.447.447,0,0,1-.123-.329.424.424,0,0,1,.123-.329.455.455,0,0,1,.339-.124.473.473,0,0,1,.349.124.421.421,0,0,1,.124.329.443.443,0,0,1-.124.329.5.5,0,0,1-.349.113" transform="translate(0.06)" fill="#242e3d"/><path d="M144.887,55.572a2.125,2.125,0,0,1-.73.124,1.107,1.107,0,0,1-.782-.237,1.02,1.02,0,0,1-.246-.75V52.9h-.566v-.493l.6-.083.113-.935h.638V52.3h.955v.6h-.955v1.779a.428.428,0,0,0,.1.318.584.584,0,0,0,.37.093,2.125,2.125,0,0,0,.5-.051Z" transform="translate(0.06)" fill="#242e3d"/><path d="M146.057,54.164a1.023,1.023,0,0,0,.278.74,1.221,1.221,0,0,0,.8.226,3.478,3.478,0,0,0,1.058-.175V55.5a2.255,2.255,0,0,1-.534.185,2.794,2.794,0,0,1-.638.072,1.671,1.671,0,0,1-1.254-.442A1.832,1.832,0,0,1,145.337,54a1.9,1.9,0,0,1,.422-1.316,1.491,1.491,0,0,1,1.172-.473,1.336,1.336,0,0,1,.987.35,1.36,1.36,0,0,1,.349,1,2.72,2.72,0,0,1-.061.607Zm.833-1.388a.761.761,0,0,0-.576.236,1.008,1.008,0,0,0-.257.638h1.523V53.6a.911.911,0,0,0-.175-.606.627.627,0,0,0-.514-.216" transform="translate(0.062)" fill="#242e3d"/><path d="M151.377,55.521a1.962,1.962,0,0,1-.925.205,1.572,1.572,0,0,1-1.194-.442,1.823,1.823,0,0,1-.411-1.275,1.844,1.844,0,0,1,.432-1.305,1.546,1.546,0,0,1,1.2-.473,2.031,2.031,0,0,1,.874.195v.555a2.79,2.79,0,0,0-.751-.133.927.927,0,0,0-.73.266,1.246,1.246,0,0,0-.236.834v.082a1.216,1.216,0,0,0,.236.822.945.945,0,0,0,.73.258,2.592,2.592,0,0,0,.771-.134Z" transform="translate(0.063)" fill="#242e3d"/><path d="M154,55.572a2.121,2.121,0,0,1-.73.124,1.106,1.106,0,0,1-.781-.237,1.016,1.016,0,0,1-.247-.75V52.9h-.565v-.493l.6-.083.114-.935h.637V52.3h.956v.6h-.956v1.779a.427.427,0,0,0,.1.318.586.586,0,0,0,.37.093,2.125,2.125,0,0,0,.5-.051Z" transform="translate(0.064)" fill="#242e3d"/><path d="M155.177,54.164a1.019,1.019,0,0,0,.278.74,1.221,1.221,0,0,0,.8.226,3.483,3.483,0,0,0,1.058-.175V55.5a2.248,2.248,0,0,1-.535.185,2.785,2.785,0,0,1-.637.072,1.675,1.675,0,0,1-1.255-.442A1.832,1.832,0,0,1,154.457,54a1.9,1.9,0,0,1,.421-1.316,1.493,1.493,0,0,1,1.173-.473,1.333,1.333,0,0,1,.987.35,1.36,1.36,0,0,1,.35,1,2.781,2.781,0,0,1-.061.607Zm.833-1.388a.759.759,0,0,0-.576.236,1,1,0,0,0-.257.638H156.7V53.6a.911.911,0,0,0-.176-.606.625.625,0,0,0-.513-.216" transform="translate(0.065)" fill="#242e3d"/><path d="M160.476,55.654l-.082-.318a1.528,1.528,0,0,1-1.039.39,1.235,1.235,0,0,1-1.007-.462,1.974,1.974,0,0,1-.38-1.275,2.235,2.235,0,0,1,.174-.925,1.474,1.474,0,0,1,.494-.628,1.272,1.272,0,0,1,.761-.226,1.535,1.535,0,0,1,.966.339V50.781h.771v4.873Zm-.874-.534a1.322,1.322,0,0,0,.761-.257v-1.81a1.28,1.28,0,0,0-.75-.236.767.767,0,0,0-.648.288,1.413,1.413,0,0,0-.206.853q0,1.161.843,1.162" transform="translate(0.067)" fill="#242e3d"/><path d="M112.863,60.517v1.718h-.791V57.67h1.7a1.466,1.466,0,0,1,1.08.389,1.545,1.545,0,0,1,0,2.077,1.483,1.483,0,0,1-1.08.381Zm0-.617h.822a.751.751,0,0,0,.576-.206.828.828,0,0,0,.2-.6.81.81,0,0,0-.2-.6.754.754,0,0,0-.576-.206h-.822Z" transform="translate(0.047)" fill="#242e3d"/><path d="M117.95,62.235l-.062-.319a2.023,2.023,0,0,1-.514.308,1.45,1.45,0,0,1-.555.113,1.037,1.037,0,0,1-.751-.277.974.974,0,0,1-.277-.72.948.948,0,0,1,.349-.771,1.4,1.4,0,0,1,.946-.3,3.152,3.152,0,0,1,.761.1v-.391a.594.594,0,0,0-.144-.463.77.77,0,0,0-.5-.133,3.88,3.88,0,0,0-1.183.216v-.545a2.5,2.5,0,0,1,.6-.2,3.879,3.879,0,0,1,.71-.071,1.421,1.421,0,0,1,.946.268,1,1,0,0,1,.308.812v2.365Zm-.915-.454a1.026,1.026,0,0,0,.4-.081,1.578,1.578,0,0,0,.411-.236v-.628a3.428,3.428,0,0,0-.617-.072q-.689,0-.689.525a.492.492,0,0,0,.134.37.5.5,0,0,0,.36.122" transform="translate(0.049)" fill="#242e3d"/><path d="M119.5,62.234V58.883h.647l.1.5a1.9,1.9,0,0,1,.493-.4,1.04,1.04,0,0,1,.5-.123,1.893,1.893,0,0,1,.267.021v.709a2.263,2.263,0,0,0-.381-.031,1.5,1.5,0,0,0-.852.246v2.427Z" transform="translate(0.051)" fill="#242e3d"/><path d="M123.978,62.152a2.125,2.125,0,0,1-.73.124,1.107,1.107,0,0,1-.782-.237,1.02,1.02,0,0,1-.246-.75v-1.81h-.566v-.493l.6-.083.113-.935H123v.915h.955v.6H123v1.779a.428.428,0,0,0,.1.318.584.584,0,0,0,.37.093,2.126,2.126,0,0,0,.5-.051Z" transform="translate(0.051)" fill="#242e3d"/><path d="M126.826,62.234V60.013a.681.681,0,0,0-.133-.463.54.54,0,0,0-.422-.153,1.675,1.675,0,0,0-.885.288v2.549h-.78V58.883h.647l.072.37a2.143,2.143,0,0,1,1.3-.463.981.981,0,0,1,.73.257.993.993,0,0,1,.246.73v2.457Z" transform="translate(0.053)" fill="#242e3d"/><path d="M129.07,60.744a1.023,1.023,0,0,0,.278.74,1.221,1.221,0,0,0,.8.226,3.483,3.483,0,0,0,1.058-.175v.545a2.254,2.254,0,0,1-.534.185,2.8,2.8,0,0,1-.638.072,1.675,1.675,0,0,1-1.255-.442,1.832,1.832,0,0,1-.432-1.316,1.893,1.893,0,0,1,.422-1.316,1.49,1.49,0,0,1,1.173-.473,1.336,1.336,0,0,1,.987.35,1.364,1.364,0,0,1,.349,1,2.721,2.721,0,0,1-.061.607Zm.833-1.388a.76.76,0,0,0-.576.236,1.008,1.008,0,0,0-.257.638h1.523v-.052a.916.916,0,0,0-.175-.606.627.627,0,0,0-.514-.216" transform="translate(0.054)" fill="#242e3d"/><path d="M132.031,62.234V58.883h.647l.1.5a1.914,1.914,0,0,1,.493-.4,1.043,1.043,0,0,1,.505-.123,1.891,1.891,0,0,1,.266.021v.709a2.251,2.251,0,0,0-.38-.031,1.5,1.5,0,0,0-.853.246v2.427Z" transform="translate(0.056)" fill="#242e3d"/><path d="M137.148,60.517v1.718h-.792V57.67h1.7a1.467,1.467,0,0,1,1.079.389,1.545,1.545,0,0,1,0,2.077,1.484,1.484,0,0,1-1.079.381Zm0-.617h.822a.751.751,0,0,0,.576-.206.828.828,0,0,0,.2-.6.81.81,0,0,0-.2-.6.754.754,0,0,0-.576-.206h-.822Z" transform="translate(0.058)" fill="#242e3d"/><path d="M140.283,62.234V58.883h.647l.1.5a1.9,1.9,0,0,1,.494-.4,1.037,1.037,0,0,1,.5-.123,1.9,1.9,0,0,1,.267.021v.709a2.28,2.28,0,0,0-.381-.031,1.507,1.507,0,0,0-.853.246v2.427Z" transform="translate(0.059)" fill="#242e3d"/><path d="M144.273,62.337a1.532,1.532,0,0,1-1.194-.473,1.857,1.857,0,0,1-.432-1.306,1.823,1.823,0,0,1,.432-1.295,1.536,1.536,0,0,1,1.194-.473,1.507,1.507,0,0,1,1.182.473,1.823,1.823,0,0,1,.431,1.295,1.857,1.857,0,0,1-.431,1.306,1.5,1.5,0,0,1-1.182.473m0-.617c.554,0,.833-.387.833-1.162s-.279-1.161-.833-1.161-.833.387-.833,1.161.278,1.162.833,1.162" transform="translate(0.06)" fill="#242e3d"/><path d="M148.8,61.8a1.458,1.458,0,0,1-.966.37,1.2,1.2,0,0,1-.987-.453,1.934,1.934,0,0,1-.36-1.233,2.179,2.179,0,0,1,.164-.874,1.371,1.371,0,0,1,.474-.607,1.286,1.286,0,0,1,.739-.216,1.385,1.385,0,0,1,.987.4l.072-.308h.638v3.125a1.655,1.655,0,0,1-.432,1.224,1.629,1.629,0,0,1-1.224.442,2.438,2.438,0,0,1-1.142-.278v-.545a3.7,3.7,0,0,0,1.1.2.953.953,0,0,0,.71-.226,1.036,1.036,0,0,0,.226-.741Zm-.74-.237a1.224,1.224,0,0,0,.74-.257V59.633a1.248,1.248,0,0,0-.729-.236.691.691,0,0,0-.6.267,1.331,1.331,0,0,0-.2.8c0,.737.261,1.1.782,1.1" transform="translate(0.062)" fill="#242e3d"/><path d="M150.516,62.234V58.883h.647l.1.5a1.9,1.9,0,0,1,.494-.4,1.037,1.037,0,0,1,.5-.123,1.9,1.9,0,0,1,.267.021v.709a2.271,2.271,0,0,0-.381-.031,1.507,1.507,0,0,0-.853.246v2.427Z" transform="translate(0.064)" fill="#242e3d"/><path d="M155.01,62.235l-.061-.319a2.04,2.04,0,0,1-.514.308,1.459,1.459,0,0,1-.556.113,1.037,1.037,0,0,1-.751-.277.974.974,0,0,1-.277-.72.947.947,0,0,1,.349-.771,1.4,1.4,0,0,1,.947-.3,3.151,3.151,0,0,1,.76.1v-.391a.6.6,0,0,0-.143-.463.777.777,0,0,0-.505-.133,3.885,3.885,0,0,0-1.182.216v-.545a2.5,2.5,0,0,1,.6-.2,3.888,3.888,0,0,1,.71-.071,1.421,1.421,0,0,1,.946.268,1,1,0,0,1,.308.812v2.365Zm-.915-.454a1.026,1.026,0,0,0,.4-.081,1.578,1.578,0,0,0,.411-.236v-.628a3.428,3.428,0,0,0-.616-.072q-.69,0-.69.525a.492.492,0,0,0,.134.37.5.5,0,0,0,.36.122" transform="translate(0.065)" fill="#242e3d"/><path d="M160.8,62.234V59.962a.618.618,0,0,0-.125-.432.479.479,0,0,0-.38-.133,1.5,1.5,0,0,0-.443.072,1.791,1.791,0,0,0-.39.174v2.591h-.782V59.962a.623.623,0,0,0-.123-.432.478.478,0,0,0-.38-.133,1.588,1.588,0,0,0-.421.061,1.542,1.542,0,0,0-.412.185v2.591h-.782V58.883h.649l.072.338a2.811,2.811,0,0,1,.616-.329,1.82,1.82,0,0,1,.6-.1.869.869,0,0,1,.842.452,2.234,2.234,0,0,1,1.256-.452,1.007,1.007,0,0,1,.73.257.965.965,0,0,1,.257.73v2.457Z" transform="translate(0.066)" fill="#242e3d"/></g></svg>