<svg width="149" height="149" viewBox="0 0 149 149" fill="none" xmlns="http://www.w3.org/2000/svg">
<path d="M74.39 148.78C115.474 148.78 148.78 115.474 148.78 74.39C148.78 33.3055 115.474 0 74.39 0C33.3055 0 0 33.3055 0 74.39C0 115.474 33.3055 148.78 74.39 148.78Z" fill="url(#paint0_linear_9_79)"/>
<path fill-rule="evenodd" clip-rule="evenodd" d="M46.6 83.6625C46.834 83.9218 46.9596 84.2611 46.9508 84.6103C46.9419 84.9595 46.7993 85.2919 46.5525 85.5391C46.3056 85.7862 45.9733 85.9291 45.6241 85.9383C45.2749 85.9475 44.9355 85.8223 44.676 85.5885L39.14 80.0555C38.8845 79.7998 38.741 79.453 38.741 79.0915C38.741 78.73 38.8845 78.3833 39.14 78.1275L44.676 72.5885C44.8029 72.4622 44.9534 72.3621 45.1189 72.2939C45.2844 72.2258 45.4618 72.1909 45.6408 72.1912C45.8199 72.1916 45.9971 72.2272 46.1623 72.2961C46.3276 72.3649 46.4777 72.4657 46.604 72.5925C46.7303 72.7194 46.8304 72.8699 46.8986 73.0354C46.9668 73.201 47.0017 73.3783 47.0013 73.5574C47.0009 73.7364 46.9653 73.9136 46.8964 74.0789C46.8276 74.2441 46.7269 74.3942 46.6 74.5205L42.033 79.0885L46.6 83.6625ZM60.122 74.5205C59.9951 74.3937 59.8945 74.2431 59.8259 74.0773C59.7572 73.9116 59.7219 73.7339 59.7219 73.5545C59.7219 73.3751 59.7572 73.1975 59.8259 73.0317C59.8945 72.866 59.9951 72.7154 60.122 72.5885C60.2489 72.4617 60.3995 72.361 60.5652 72.2924C60.731 72.2237 60.9086 72.1884 61.088 72.1884C61.2674 72.1884 61.445 72.2237 61.6108 72.2924C61.7765 72.361 61.9271 72.4617 62.054 72.5885L67.589 78.1235C67.7158 78.25 67.8163 78.4003 67.8849 78.5657C67.9535 78.7311 67.9888 78.9085 67.9888 79.0875C67.9888 79.2666 67.9535 79.4439 67.8849 79.6093C67.8163 79.7748 67.7158 79.925 67.589 80.0515L62.054 85.5885C61.7983 85.8442 61.4516 85.9878 61.09 85.9878C60.7284 85.9878 60.3817 85.8442 60.126 85.5885C59.8703 85.3329 59.7267 84.9861 59.7267 84.6245C59.7267 84.263 59.8703 83.9162 60.126 83.6605L64.7 79.0885L60.129 74.5175L60.122 74.5205ZM107.842 38.3515C103.406 36.5234 98.6392 35.6321 93.842 35.7335C89.0448 35.632 84.2784 36.5233 79.842 38.3515C76.609 39.8225 74.609 41.7365 74.609 43.7435C74.609 45.7505 76.609 47.6635 79.842 49.1355C84.2786 50.9629 89.0449 51.8538 93.842 51.7525C98.6391 51.8537 103.405 50.9628 107.842 49.1355C111.075 47.6635 113.074 45.7505 113.074 43.7435C113.074 41.7365 111.074 39.8225 107.842 38.3515ZM113.074 66.7455V60.5395C111.842 61.5949 110.46 62.4619 108.974 63.1125C104.185 65.1048 99.0358 66.084 93.85 65.9885C88.6637 66.0852 83.5136 65.107 78.724 63.1155C77.2379 62.4647 75.8563 61.5977 74.624 60.5425V66.7525C74.624 68.7595 76.624 70.6735 79.857 72.1445C84.2934 73.9727 89.0598 74.8641 93.857 74.7625C98.6542 74.8639 103.421 73.9726 107.857 72.1445C111.09 70.6735 113.089 68.7595 113.089 66.7525L113.074 66.7455ZM80.232 66.4535C80.5654 66.5892 80.8312 66.8517 80.971 67.1834C81.1108 67.515 81.1132 67.8887 80.9775 68.222C80.8418 68.5554 80.5793 68.8212 80.2476 68.961C79.916 69.1009 79.5424 69.1032 79.209 68.9675C78.887 68.8365 78.595 68.7115 78.336 68.5935C78.0307 68.4542 77.756 68.3209 77.512 68.1935C77.1899 68.0311 76.9455 67.7473 76.8326 67.4047C76.7197 67.0621 76.7476 66.6886 76.91 66.3665C77.0724 66.0444 77.3562 65.8 77.6988 65.6871C78.0415 65.5743 78.4149 65.6021 78.737 65.7645C78.995 65.8955 79.237 66.0135 79.465 66.1165C79.738 66.2405 79.993 66.3515 80.232 66.4485V66.4535ZM80.232 55.0825C80.5668 55.2182 80.8341 55.4813 80.9749 55.814C81.1157 56.1467 81.1187 56.5217 80.983 56.8565C80.8473 57.1914 80.5842 57.4586 80.2515 57.5994C79.9188 57.7403 79.5438 57.7432 79.209 57.6075C78.9623 57.5069 78.6713 57.3802 78.336 57.2275C78.0307 57.0882 77.756 56.9569 77.512 56.8335C77.1899 56.6711 76.9455 56.3873 76.8326 56.0447C76.7197 55.7021 76.7476 55.3286 76.91 55.0065C77.0724 54.6844 77.3562 54.44 77.6988 54.3271C78.0415 54.2142 78.4149 54.2421 78.737 54.4045C78.995 54.5379 79.2377 54.6549 79.465 54.7555C79.665 54.8455 79.9207 54.9545 80.232 55.0825ZM80.232 77.8135C80.5668 77.9492 80.8341 78.2123 80.9749 78.545C81.1157 78.8777 81.1187 79.2527 80.983 79.5875C80.8473 79.9224 80.5842 80.1896 80.2515 80.3304C79.9188 80.4713 79.5438 80.4742 79.209 80.3385C78.9623 80.2385 78.6713 80.1119 78.336 79.9585C78.0307 79.8199 77.756 79.6885 77.512 79.5645C77.1899 79.4021 76.9455 79.1183 76.8326 78.7757C76.7197 78.4331 76.7476 78.0596 76.91 77.7375C77.0724 77.4154 77.3562 77.171 77.6988 77.0581C78.0415 76.9453 78.4149 76.9731 78.737 77.1355C78.995 77.2689 79.2377 77.3859 79.465 77.4865C79.665 77.5765 79.9207 77.6855 80.232 77.8135ZM52.4 87.9755C52.2979 88.314 52.0683 88.5994 51.7596 88.7717C51.451 88.9439 51.0874 88.9894 50.7458 88.8985C50.4042 88.8076 50.1114 88.5875 49.9291 88.2846C49.7468 87.9818 49.6894 87.6199 49.769 87.2755L54.341 70.2105C54.3821 70.0326 54.4586 69.8647 54.5659 69.717C54.6732 69.5692 54.8092 69.4445 54.9657 69.3503C55.1221 69.2562 55.2959 69.1944 55.4768 69.1688C55.6576 69.1431 55.8417 69.1541 56.0182 69.2011C56.1947 69.248 56.3599 69.33 56.5041 69.4421C56.6483 69.5542 56.7684 69.6942 56.8574 69.8536C56.9464 70.0131 57.0024 70.1889 57.0221 70.3704C57.0418 70.552 57.0247 70.7357 56.972 70.9105L52.4 87.9755ZM75.968 58.0885C75.1639 57.356 74.6801 56.3367 74.621 55.2505V49.0335C75.8533 50.0887 77.2349 50.9557 78.721 51.6065C83.5116 53.5984 88.6627 54.5766 93.85 54.4795C99.0359 54.5761 104.186 53.5979 108.975 51.6065C110.461 50.9559 111.843 50.0889 113.075 49.0335V55.2495C113.075 57.2565 111.075 59.1695 107.843 60.6415C103.406 62.4688 98.6401 63.3597 93.843 63.2585C89.0459 63.3598 84.2796 62.4689 79.843 60.6415C78.5153 60.0727 77.288 59.2937 76.208 58.3345C76.1356 58.2415 76.0512 58.1584 75.957 58.0875L75.968 58.0885ZM59.9 52.7215C59.5382 52.7215 59.1913 52.5778 58.9355 52.322C58.6797 52.0662 58.536 51.7193 58.536 51.3575C58.536 50.9958 58.6797 50.6488 58.9355 50.393C59.1913 50.1372 59.5382 49.9935 59.9 49.9935H71.894V45.2935H33.664C33.151 45.2959 32.6597 45.5007 32.2969 45.8635C31.9342 46.2262 31.7294 46.7175 31.727 47.2305V57.8105H71.894V52.7215H59.9ZM38.148 52.7215C37.7862 52.7215 37.4393 52.5778 37.1835 52.322C36.9277 52.0662 36.784 51.7193 36.784 51.3575C36.784 50.9958 36.9277 50.6488 37.1835 50.393C37.4393 50.1372 37.7862 49.9935 38.148 49.9935C38.5098 49.9935 38.8567 50.1372 39.1125 50.393C39.3683 50.6488 39.512 50.9958 39.512 51.3575C39.512 51.7193 39.3683 52.0662 39.1125 52.322C38.8567 52.5778 38.5098 52.7215 38.148 52.7215ZM45.141 52.7215C44.7792 52.7215 44.4323 52.5778 44.1765 52.322C43.9207 52.0662 43.777 51.7193 43.777 51.3575C43.777 50.9958 43.9207 50.6488 44.1765 50.393C44.4323 50.1372 44.7792 49.9935 45.141 49.9935C45.5028 49.9935 45.8497 50.1372 46.1055 50.393C46.3613 50.6488 46.505 50.9958 46.505 51.3575C46.505 51.7193 46.3613 52.0662 46.1055 52.322C45.8497 52.5778 45.5028 52.7215 45.141 52.7215ZM52.134 52.7215C51.7722 52.7215 51.4253 52.5778 51.1695 52.322C50.9137 52.0662 50.77 51.7193 50.77 51.3575C50.77 50.9958 50.9137 50.6488 51.1695 50.393C51.4253 50.1372 51.7722 49.9935 52.134 49.9935C52.4958 49.9935 52.8427 50.1372 53.0985 50.393C53.3543 50.6488 53.498 50.9958 53.498 51.3575C53.498 51.7193 53.3543 52.0662 53.0985 52.322C52.8427 52.5778 52.4958 52.7215 52.134 52.7215ZM111.089 106.043L113.3 103.835L111.986 102.522C111.77 102.306 111.633 102.024 111.597 101.721C111.561 101.418 111.627 101.111 111.786 100.851C112.084 100.364 112.344 99.8547 112.563 99.3275C112.769 98.8309 112.938 98.3198 113.069 97.7985C113.121 97.4785 113.284 97.1872 113.531 96.977C113.778 96.7668 114.092 96.6514 114.416 96.6515H116.273V93.5275H114.416C114.112 93.5265 113.817 93.4235 113.579 93.2352C113.34 93.0468 113.172 92.7839 113.1 92.4885C112.839 91.4045 112.413 90.3668 111.838 89.4115C111.653 89.1488 111.566 88.829 111.593 88.5087C111.621 88.1883 111.761 87.8879 111.988 87.6605L113.3 86.3425L111.092 84.1345L109.778 85.4475C109.562 85.6635 109.281 85.8006 108.978 85.8369C108.675 85.8732 108.368 85.8065 108.108 85.6475C107.162 85.0677 106.132 84.6351 105.056 84.3645C104.734 84.315 104.44 84.1517 104.228 83.9042C104.016 83.6568 103.9 83.3415 103.9 83.0155V81.1585H100.781V83.0155C100.781 83.3205 100.678 83.6166 100.49 83.8562C100.301 84.0958 100.037 84.265 99.741 84.3365C98.6572 84.5981 97.6196 85.0233 96.664 85.5975C96.4015 85.7831 96.0819 85.8698 95.7616 85.8423C95.4413 85.8149 95.1411 85.675 94.914 85.4475L93.6 84.1345L91.392 86.3425L92.7 87.6555C92.9157 87.8714 93.0527 88.1534 93.089 88.4564C93.1252 88.7595 93.0587 89.0659 92.9 89.3265C92.6013 89.815 92.3415 90.3263 92.123 90.8555C91.9178 91.3506 91.749 91.8599 91.618 92.3795C91.5666 92.6995 91.4029 92.9907 91.1563 93.201C90.9096 93.4112 90.5961 93.5266 90.272 93.5265H88.412V96.6485H90.269C90.5738 96.6491 90.8696 96.7518 91.1091 96.9404C91.3486 97.1289 91.5179 97.3924 91.59 97.6885C91.7178 98.2215 91.8849 98.7443 92.09 99.2525C92.1 99.2725 92.109 99.2935 92.118 99.3155C92.3252 99.8162 92.5692 100.301 92.848 100.766C93.033 101.028 93.1194 101.348 93.092 101.668C93.0645 101.989 92.925 102.289 92.698 102.517L91.384 103.83L93.6 106.043L94.914 104.73C95.1295 104.514 95.4114 104.376 95.7143 104.34C96.0173 104.304 96.3236 104.371 96.584 104.53C97.0728 104.828 97.584 105.087 98.113 105.307C98.6083 105.51 99.1177 105.677 99.637 105.807C99.9569 105.858 100.248 106.022 100.458 106.268C100.668 106.515 100.784 106.829 100.784 107.153V109.019H103.9V107.162C103.9 106.857 104.003 106.561 104.191 106.321C104.379 106.082 104.643 105.912 104.939 105.841C106.023 105.58 107.061 105.155 108.016 104.58C108.279 104.394 108.598 104.308 108.919 104.335C109.239 104.362 109.54 104.502 109.767 104.73L111.081 106.043H111.089ZM88.526 85.9355C85.1523 85.5846 81.8678 84.6365 78.826 83.1355C76.206 81.7355 74.626 80.0265 74.626 78.2505V72.0395C75.8583 73.095 77.2399 73.9624 78.726 74.6135C83.5149 76.6054 88.6643 77.5843 93.85 77.4885C99.0359 77.5851 104.186 76.6069 108.975 74.6155C110.461 73.9646 111.843 73.0972 113.075 72.0415V78.2525C113.066 78.8574 112.896 79.449 112.583 79.9665C112.294 80.4514 111.939 80.8936 111.528 81.2805C111.382 81.2523 111.234 81.2379 111.086 81.2375C110.526 81.2376 109.985 81.4421 109.565 81.8125C109.525 81.8437 109.488 81.8771 109.452 81.9125L108.569 82.7955C108.257 82.6375 107.937 82.4905 107.609 82.3545C107.281 82.2185 106.954 82.0975 106.628 81.9915V80.7425C106.628 80.439 106.568 80.1384 106.452 79.858C106.336 79.5776 106.165 79.3229 105.95 79.1085C105.737 78.894 105.483 78.7236 105.204 78.6073C104.924 78.491 104.625 78.4309 104.322 78.4305H100.365C99.8055 78.4314 99.2654 78.6362 98.846 79.0065C98.8062 79.0378 98.7681 79.0711 98.732 79.1065C98.517 79.3209 98.3465 79.5756 98.2301 79.856C98.1138 80.1364 98.0539 80.437 98.054 80.7405V81.9885C97.7207 82.0972 97.3933 82.2182 97.072 82.3515C96.7507 82.4849 96.431 82.6319 96.113 82.7925L95.23 81.9095C94.8154 81.4948 94.2584 81.2537 93.6723 81.2351C93.0862 81.2165 92.515 81.4219 92.075 81.8095C92.0355 81.8407 91.9978 81.8741 91.962 81.9095L89.162 84.7095C88.8282 85.0414 88.6047 85.4681 88.522 85.9315L88.526 85.9355ZM115.519 105.47C115.734 105.255 115.904 105.001 116.02 104.72C116.137 104.44 116.196 104.14 116.196 103.837C116.196 103.533 116.137 103.233 116.02 102.953C115.904 102.672 115.734 102.418 115.519 102.204L114.636 101.322C114.794 101.01 114.941 100.69 115.077 100.362C115.213 100.034 115.334 99.7062 115.44 99.3795H116.689C117.302 99.379 117.89 99.1349 118.324 98.701C118.757 98.2671 119 97.6788 119 97.0655V93.1115C119.001 92.5505 118.796 92.0086 118.424 91.5885C118.393 91.5483 118.36 91.5102 118.324 91.4745C118.11 91.2594 117.856 91.0887 117.575 90.9723C117.295 90.856 116.994 90.7962 116.691 90.7965H115.44C115.331 90.4632 115.21 90.1355 115.077 89.8135C114.944 89.4915 114.797 89.1719 114.636 88.8545L115.519 87.9725C115.952 87.5387 116.195 86.9509 116.195 86.338C116.195 85.7252 115.952 85.1373 115.519 84.7035L113.729 82.9145C114.195 82.4346 114.601 81.9008 114.94 81.3245C115.498 80.3941 115.797 79.3314 115.806 78.2465V43.7055C115.786 40.5515 113.18 37.7925 108.976 35.8795C104.186 33.888 99.0363 32.9098 93.85 33.0065C88.6637 32.9098 83.5136 33.888 78.724 35.8795C75.035 37.5585 72.576 39.8895 72.016 42.5675H33.664C32.4278 42.5702 31.2431 43.0624 30.369 43.9365C29.4949 44.8106 29.0026 45.9954 29 47.2315V111.508C29.0029 112.744 29.4953 113.928 30.3693 114.802C31.2434 115.676 32.428 116.168 33.664 116.171H107.5C108.736 116.168 109.921 115.676 110.795 114.802C111.669 113.928 112.161 112.744 112.164 111.508V108.678C112.37 108.569 112.559 108.43 112.724 108.266L115.524 105.466L115.519 105.47ZM106.252 91.1785C107.157 92.0832 107.721 93.2737 107.846 94.5472C107.972 95.8207 107.652 97.0984 106.941 98.1625C106.231 99.2267 105.173 100.011 103.948 100.383C102.724 100.755 101.408 100.69 100.226 100.201C99.0437 99.7112 98.0677 98.8268 97.4643 97.6983C96.861 96.5698 96.6676 95.2669 96.9172 94.0118C97.1668 92.7567 97.8438 91.627 98.833 90.8151C99.8222 90.0033 101.062 89.5595 102.342 89.5595C103.068 89.5585 103.788 89.701 104.459 89.9788C105.13 90.2567 105.739 90.6644 106.252 91.1785ZM102.342 86.8325C104.252 86.8335 106.102 87.4966 107.578 88.7089C109.054 89.9212 110.064 91.6077 110.436 93.481C110.808 95.3544 110.518 97.2987 109.618 98.9828C108.717 100.667 107.26 101.987 105.495 102.717C103.73 103.447 101.767 103.543 99.9395 102.989C98.112 102.434 96.5333 101.262 95.4725 99.6743C94.4116 98.0862 93.9342 96.1793 94.1216 94.2786C94.3089 92.3779 95.1495 90.601 96.5 89.2505C97.2659 88.4829 98.176 87.8742 99.1778 87.4592C100.18 87.0443 101.254 86.8313 102.338 86.8325H102.342ZM40.105 105.073C39.9228 105.077 39.7415 105.046 39.5718 104.98C39.402 104.913 39.2473 104.814 39.1167 104.686C38.9861 104.559 38.8823 104.407 38.8115 104.24C38.7406 104.072 38.7041 103.891 38.7041 103.709C38.7041 103.527 38.7406 103.346 38.8115 103.179C38.8823 103.011 38.9861 102.859 39.1167 102.732C39.2473 102.604 39.402 102.505 39.5718 102.439C39.7415 102.372 39.9228 102.341 40.105 102.346H89.037C89.078 102.298 89.121 102.252 89.166 102.207L90.047 101.326C89.889 101.013 89.7427 100.695 89.608 100.371C89.598 100.347 89.588 100.322 89.58 100.297C89.457 99.9965 89.346 99.6965 89.244 99.3825H88C87.6974 99.3823 87.3979 99.3224 87.1186 99.2062C86.8392 99.0901 86.5855 98.9199 86.372 98.7055C86.1567 98.4914 85.986 98.2368 85.8696 97.9563C85.7532 97.6759 85.6936 97.3752 85.694 97.0715V97.0355H40.105C39.9228 97.0405 39.7415 97.0088 39.5718 96.9425C39.402 96.8762 39.2473 96.7766 39.1167 96.6495C38.9861 96.5224 38.8823 96.3704 38.8115 96.2025C38.7406 96.0346 38.7041 95.8543 38.7041 95.672C38.7041 95.4898 38.7406 95.3094 38.8115 95.1415C38.8823 94.9736 38.9861 94.8217 39.1167 94.6946C39.2473 94.5675 39.402 94.4678 39.5718 94.4015C39.7415 94.3352 39.9228 94.3036 40.105 94.3085H85.685V93.1115C85.6854 92.8089 85.7454 92.5093 85.8618 92.23C85.9781 91.9506 86.1484 91.6969 86.363 91.4835H86.368C86.5813 91.2673 86.8354 91.0956 87.1155 90.9784C87.3957 90.8611 87.6963 90.8007 88 90.8005H89.248C89.3567 90.4672 89.478 90.1399 89.612 89.8185V89.8135C89.7453 89.4895 89.8917 89.1712 90.051 88.8585L90.021 88.8275C85.6866 88.5596 81.4478 87.4381 77.548 85.5275C74.025 83.6495 71.898 81.1125 71.898 78.2455V60.5375H31.727V111.508C31.7296 112.02 31.9346 112.511 32.2973 112.874C32.66 113.236 33.1512 113.441 33.664 113.444H107.5C108.013 113.441 108.504 113.236 108.866 112.874C109.229 112.511 109.433 112.02 109.436 111.508V108.246L108.573 107.383C108.261 107.541 107.941 107.688 107.614 107.824C107.287 107.96 106.959 108.081 106.632 108.187V109.436C106.631 110.048 106.387 110.635 105.954 111.068C105.521 111.502 104.934 111.745 104.321 111.747H100.365C99.7524 111.745 99.1652 111.502 98.732 111.068C98.2989 110.635 98.0551 110.048 98.054 109.436V108.189C97.7207 108.08 97.3933 107.959 97.072 107.826C96.748 107.692 96.4297 107.546 96.117 107.386L95.235 108.268C94.8014 108.7 94.2137 108.943 93.601 108.943C92.9883 108.943 92.4006 108.7 91.967 108.268L89.167 105.468C89.0464 105.346 88.9397 105.212 88.849 105.068L40.105 105.073Z" fill="white"/>
<defs>
<linearGradient id="paint0_linear_9_79" x1="148.78" y1="74.39" x2="0" y2="74.39" gradientUnits="userSpaceOnUse">
<stop stop-color="#3B3B3B"/>
<stop offset="1" stop-color="#191919"/>
</linearGradient>
</defs>
</svg>
