<svg id="banner-main1" xmlns="http://www.w3.org/2000/svg" xmlns:xlink="http://www.w3.org/1999/xlink" width="45" height="45" viewBox="0 0 45 45">
  <defs>
    <linearGradient id="linear-gradient" x1="0.5" x2="0.156" y2="0.791" gradientUnits="objectBoundingBox">
      <stop offset="0" stop-color="#3e3e3e"/>
      <stop offset="1" stop-color="#1a1a1a"/>
    </linearGradient>
    <clipPath id="clip-path">
      <rect id="Rectangle_429" data-name="Rectangle 429" width="27.258" height="27.206" transform="translate(0 0)" fill="#fff"/>
    </clipPath>
  </defs>
  <circle id="Ellipse_1" data-name="Ellipse 1" cx="22.5" cy="22.5" r="22.5" fill="url(#linear-gradient)"/>
  <g id="Group_2024" data-name="Group 2024" transform="translate(9.371 9.366)">
    <g id="Group_2024-2" data-name="Group 2024" transform="translate(0 0.003)" clip-path="url(#clip-path)">
      <path id="Path_7195" data-name="Path 7195" d="M13.643,0A13.6,13.6,0,1,1,0,13.472,13.63,13.63,0,0,1,13.643,0m-.028,2.221a11.38,11.38,0,1,0,11.41,11.2,11.375,11.375,0,0,0-11.41-11.2" transform="translate(0.001 -0.004)" fill="#fff"/>
      <path id="Path_7196" data-name="Path 7196" d="M200.208,261.108q-.132-.606-.264-1.212c-.011-.048-.044-.1-.037-.143a2.878,2.878,0,0,1,.082-.3.891.891,0,0,1,.189.2,4.321,4.321,0,0,1,.165.468,3.352,3.352,0,0,0,.18.515,1.6,1.6,0,0,0,.308.362c.036.036.114.028.173.041a.638.638,0,0,0-.041-.182c-.346-.6-.075-1.193.03-1.786.008-.043.088-.073.134-.109.032.053.091.105.09.157q-.007.471-.038.942a1.678,1.678,0,0,0,.5.971.933.933,0,0,0,.333-.015c.2-.009.405-.014.608-.021-.015-.2-.039-.4-.043-.594a.985.985,0,0,1,.424-.854,1.833,1.833,0,0,0,.294-.257.615.615,0,0,1,.907-.188c.281.141.263.133.387-.152a1.1,1.1,0,0,0-.149-.991,2.868,2.868,0,0,1-.153-.358c-.01-.03.033-.1.068-.117a.154.154,0,0,1,.132.026,1.612,1.612,0,0,1,.4,1.5,1.709,1.709,0,0,1-.138.319.288.288,0,0,0,.1.454,2.373,2.373,0,0,1,.489.484c.158.2.315.27.549.132a1.461,1.461,0,0,1,1.7.238c.055.038.075.126.112.192-.087.011-.185.054-.258.027-.17-.062-.321-.186-.493-.231a1.968,1.968,0,0,0-.626-.056,1.479,1.479,0,0,0-.412.16c.066.1.138.2.2.3a.58.58,0,0,1-.108.767c-.126.129-.245.264-.366.4a1.221,1.221,0,0,1-1.262.387c-.224-.054-.272.019-.243.214a1.521,1.521,0,0,1,.032.2c0,.2-.157.436.07.6a1.309,1.309,0,0,0,.933.394,6.766,6.766,0,0,1,.943,0c.041,0,.08.078.12.12-.035.031-.067.084-.106.089-.628.086-1.257.351-1.885,0a.528.528,0,0,0-.133-.034.827.827,0,0,0,.037.126.69.69,0,0,0,.512.415,7.023,7.023,0,0,1,.979.354c.049.019.077.093.115.141-.066.033-.139.1-.2.093-.326-.057-.648-.135-.972-.2-.162-.034-.325-.06-.487-.09l-.025-.031.029.027a2.432,2.432,0,0,0,.241.4c.186.21.4.4.595.6.038.04.034.12.049.182-.074,0-.17.036-.218,0a2.961,2.961,0,0,1-1.22-1.27,2.494,2.494,0,0,0-.129-.269c-.044-.084-.094-.165-.141-.248.009.093.013.187.028.28.19,1.159.4,2.315.567,3.477.113.785.2,1.576.243,2.368.06,1.074.081,2.151.091,3.227a8.617,8.617,0,0,1-.108,1.285,1.388,1.388,0,0,1-.22.413c-.124-.071-.288-.114-.364-.219-.376-.525-.741-1.058-1.084-1.6-.193-.308-.329-.651-.505-.97a7.424,7.424,0,0,1-.712-2.921,1.9,1.9,0,0,1,.391-1.354,2.645,2.645,0,0,0,.47-1.391c.069-.691.138-1.383.2-2.075.02-.225.075-.474-.231-.582-.13-.046-.244-.08-.2.119a1.588,1.588,0,0,1-.284,1.177,5.6,5.6,0,0,1-.6.854,13.739,13.739,0,0,1-3.915,3.257c-.9.464-1.8.915-2.707,1.363a1.452,1.452,0,0,1-.362.075,1.9,1.9,0,0,1,.1-.373c.378-.775.725-1.568,1.16-2.311a21.712,21.712,0,0,1,1.593-2.4,11.24,11.24,0,0,1,2.54-2.362,1.616,1.616,0,0,1,1.441-.373.229.229,0,0,0,.078-.145.354.354,0,0,0-.437-.3c-.592.061-1.186.109-1.779.163a2.078,2.078,0,0,1-.3.036,2.521,2.521,0,0,0-1.631.5,2.126,2.126,0,0,1-1.368.327,8.359,8.359,0,0,1-4.355-1.51,10.873,10.873,0,0,1-1.154-.855c-.251-.213-.188-.4.14-.468a4.238,4.238,0,0,1,.835-.11c1.078-.012,2.159-.048,3.234.009,1.039.055,2.076.188,3.107.333,1.146.161,2.285.375,3.427.564a.672.672,0,0,0,.137-.005.514.514,0,0,0-.1-.1,1.52,1.52,0,0,0-.311-.154,2.575,2.575,0,0,1-1.343-1.26.522.522,0,0,1-.04-.182c.074.009.173-.008.218.033.219.2.416.428.638.625a2.4,2.4,0,0,0,.4.24l.027.028Z" transform="translate(-185.833 -252.217)" fill="#fff"/>
    </g>
  </g>
</svg>
