<svg id="banner-main6" xmlns="http://www.w3.org/2000/svg" xmlns:xlink="http://www.w3.org/1999/xlink" width="45" height="45" viewBox="0 0 45 45">
  <defs>
    <linearGradient id="linear-gradient" x1="0.5" x2="0.156" y2="0.791" gradientUnits="objectBoundingBox">
      <stop offset="0" stop-color="#3e3e3e"/>
      <stop offset="1" stop-color="#1a1a1a"/>
    </linearGradient>
  </defs>
  <circle id="Ellipse_1" data-name="Ellipse 1" cx="22.5" cy="22.5" r="22.5" fill="url(#linear-gradient)"/>
  <g id="test-svgrepo-com" transform="translate(-95.934 -223.539)">
    <g id="Group_2030" data-name="Group 2030" transform="translate(116.617 240.534)">
      <g id="Group_2029" data-name="Group 2029">
        <path id="Path_7210" data-name="Path 7210" d="M232.595,271.3H221.534a1.034,1.034,0,0,0,0,2.067h11.061a1.034,1.034,0,1,0,0-2.067Z" transform="translate(-220.5 -271.3)" fill="#fff"/>
      </g>
    </g>
    <g id="Group_2032" data-name="Group 2032" transform="translate(116.617 250.305)">
      <g id="Group_2031" data-name="Group 2031">
        <path id="Path_7211" data-name="Path 7211" d="M232.595,404.6H221.534a1.034,1.034,0,0,0,0,2.067h11.061a1.034,1.034,0,0,0,0-2.067Z" transform="translate(-220.5 -404.6)" fill="#fff"/>
      </g>
    </g>
    <g id="Group_2036" data-name="Group 2036" transform="translate(108.4 238.1)">
      <g id="Group_2035" data-name="Group 2035" transform="translate(0 0)">
        <path id="Path_7213" data-name="Path 7213" d="M114.315,238.1h-4.882a1.032,1.032,0,0,0-1.034,1.034v4.882a1.032,1.032,0,0,0,1.034,1.034h4.882a1.032,1.032,0,0,0,1.034-1.034v-4.882A1.032,1.032,0,0,0,114.315,238.1Zm-1.034,4.882h-2.815v-2.815h2.815Z" transform="translate(-108.4 -238.1)" fill="#fff"/>
      </g>
    </g>
    <g id="Group_2038" data-name="Group 2038" transform="translate(108.406 248.031)">
      <g id="Group_2037" data-name="Group 2037" transform="translate(0 0)">
        <path id="Path_7214" data-name="Path 7214" d="M116.159,373.877a1.04,1.04,0,0,0-1.466,0l-3.145,3.145-1.3-1.3a1.037,1.037,0,1,0-1.466,1.466l2.038,2.038a1.025,1.025,0,0,0,.733.3,1.057,1.057,0,0,0,.733-.3l3.878-3.878A1.04,1.04,0,0,0,116.159,373.877Z" transform="translate(-108.475 -373.575)" fill="#fff"/>
      </g>
    </g>
  </g>
</svg>
