<svg id="banner-main4" xmlns="http://www.w3.org/2000/svg" width="45" height="45" viewBox="0 0 45 45">
  <circle id="Ellipse_45" data-name="Ellipse 45" cx="22.5" cy="22.5" r="22.5" fill="#2f2f2f"/>
  <g id="Group_7978" data-name="Group 7978" transform="translate(12.256 18.331)">
    <path id="Path_9026" data-name="Path 9026" d="M27.891,24.213l-2.651-2.627a11.11,11.11,0,0,0,2.837-7.418,10.944,10.944,0,0,0-.884-4.344A11.29,11.29,0,0,0,12.46,3.878a11.362,11.362,0,0,0-3.573,2.4,11.125,11.125,0,0,0-2.4,12.239,11.246,11.246,0,0,0,10.355,6.824l10.588-.008a.675.675,0,0,0,.612-.408A.639.639,0,0,0,27.891,24.213Zm-11.053-.185a9.871,9.871,0,0,1-3.86-.778,9.975,9.975,0,0,1-3.155-2.11A9.8,9.8,0,0,1,7.7,10.333,9.9,9.9,0,0,1,9.824,7.2a9.764,9.764,0,0,1,3.155-2.11,9.965,9.965,0,0,1,7.72,0A9.975,9.975,0,0,1,23.853,7.2,9.822,9.822,0,0,1,25.985,18a9.818,9.818,0,0,1-1.674,2.657l-5.875-5.831h.876a.655.655,0,1,0,0-1.309H16.847a.665.665,0,0,0-.473.193.678.678,0,0,0-.186.578V16.61a.659.659,0,0,0,1.318,0v-.855l8.332,8.265Z" transform="translate(-6.6 -10.507)" fill="#fff"/>
    <path id="Path_9027" data-name="Path 9027" d="M82.243,83.829a4.406,4.406,0,1,1,4.433-4.406,4.186,4.186,0,0,1-.147,1.125.661.661,0,0,0,1.279.331,5.784,5.784,0,0,0,.186-1.463,5.669,5.669,0,0,0-1.682-4.044A5.743,5.743,0,0,0,76.5,79.423a5.669,5.669,0,0,0,1.682,4.044,5.727,5.727,0,0,0,4.069,1.671,5.975,5.975,0,0,0,1.527-.2.659.659,0,1,0-.349-1.271A4.4,4.4,0,0,1,82.243,83.829Z" transform="translate(-72.005 -75.762)" fill="#fff"/>
  </g>
</svg>
