<svg id="banner-main1" xmlns="http://www.w3.org/2000/svg" xmlns:xlink="http://www.w3.org/1999/xlink" width="45" height="45" viewBox="0 0 45 45">
  <defs>
    <linearGradient id="linear-gradient" x1="0.5" x2="0.156" y2="0.791" gradientUnits="objectBoundingBox">
      <stop offset="0" stop-color="#3e3e3e"/>
      <stop offset="1" stop-color="#1a1a1a"/>
    </linearGradient>
  </defs>
  <circle id="Ellipse_1" data-name="Ellipse 1" cx="22.5" cy="22.5" r="22.5" fill="url(#linear-gradient)"/>
  <g id="Group_7871" data-name="Group 7871" transform="translate(-236.18 -352.238)">
    <path id="Path_9023" data-name="Path 9023" d="M2.75-15.123A1.914,1.914,0,0,0,3.9-15.534a1.191,1.191,0,0,0,.387-.932,18.233,18.233,0,0,0-.142-1.912q-.158-1.485-.158-2.165a2.5,2.5,0,0,1,.735-1.92,2.741,2.741,0,0,1,1.951-.687h1.09v1.865H7.1q-.98,0-.98.932,0,.442.126,1.77.016.158.079.893t.063,1.3A2.268,2.268,0,0,1,5.973-15a1.924,1.924,0,0,1-1.248.711v.032a2,2,0,0,1,1.248.719,2.26,2.26,0,0,1,.411,1.4q0,.537-.063,1.272t-.079.924q-.126,1.327-.126,1.754a.933.933,0,0,0,.237.711,1.061,1.061,0,0,0,.743.221h.664v1.88H6.669a2.741,2.741,0,0,1-1.951-.687,2.5,2.5,0,0,1-.735-1.92q0-.7.158-2.181a18.189,18.189,0,0,0,.142-1.9A1.191,1.191,0,0,0,3.9-12.99,1.914,1.914,0,0,0,2.75-13.4ZM26.609-13.4a1.914,1.914,0,0,0-1.146.411,1.191,1.191,0,0,0-.387.932,18.188,18.188,0,0,0,.142,1.9q.158,1.485.158,2.181a2.5,2.5,0,0,1-.735,1.92,2.741,2.741,0,0,1-1.951.687H21.6v-1.88h.664a1.061,1.061,0,0,0,.743-.221.933.933,0,0,0,.237-.711q0-.427-.126-1.754-.016-.19-.079-.924t-.063-1.272a2.26,2.26,0,0,1,.411-1.4,2,2,0,0,1,1.248-.719v-.032A1.924,1.924,0,0,1,23.386-15a2.268,2.268,0,0,1-.411-1.39q0-.569.063-1.3t.079-.893q.126-1.327.126-1.77,0-.932-.98-.932H21.6V-23.15h1.09a2.741,2.741,0,0,1,1.951.687,2.5,2.5,0,0,1,.735,1.92q0,.679-.158,2.165a18.233,18.233,0,0,0-.142,1.912,1.191,1.191,0,0,0,.387.932,1.914,1.914,0,0,0,1.146.411Z" transform="translate(244 389)" fill="#fff"/>
    <circle id="Ellipse_65" data-name="Ellipse 65" cx="1.5" cy="1.5" r="1.5" transform="translate(253.508 372.508)" fill="#fff"/>
    <circle id="Ellipse_66" data-name="Ellipse 66" cx="1.5" cy="1.5" r="1.5" transform="translate(257.508 372.508)" fill="#fff"/>
    <circle id="Ellipse_67" data-name="Ellipse 67" cx="1.5" cy="1.5" r="1.5" transform="translate(261.508 372.508)" fill="#fff"/>
  </g>
</svg>
