<svg id="banner-main4" xmlns="http://www.w3.org/2000/svg" width="45" height="45" viewBox="0 0 45 45">
  <circle id="Ellipse_45" data-name="Ellipse 45" cx="22.5" cy="22.5" r="22.5" fill="#2f2f2f"/>
  <path id="bug-svgrepo-com" d="M14,23A6.249,6.249,0,0,1,7.75,16.749M14,23a6.249,6.249,0,0,0,6.249-6.249M14,23V16.749m-6.249,0V14.07a6.249,6.249,0,0,1,.14-1.9A2.5,2.5,0,0,1,9.424,10.64a6.249,6.249,0,0,1,1.9-.14h5.357a6.249,6.249,0,0,1,1.9.14,2.5,2.5,0,0,1,1.534,1.534,6.251,6.251,0,0,1,.14,1.9v2.678m-12.5,0H4m16.248,0H24m-3.75-5,3.125-3.125M4.625,24.873,9,20.5M7.75,11.749,4.625,8.624M23.373,24.873,19,20.5M16.5,6.75V5.5a2.5,2.5,0,0,0-5,0V6.75Z" transform="translate(8.501 8.564)" fill="none" stroke="#fff" stroke-linecap="round" stroke-linejoin="round" stroke-width="2"/>
</svg>
