<svg id="banner-main1" xmlns="http://www.w3.org/2000/svg" xmlns:xlink="http://www.w3.org/1999/xlink" width="45" height="45" viewBox="0 0 45 45">
  <defs>
    <linearGradient id="linear-gradient" x1="0.5" x2="0.156" y2="0.791" gradientUnits="objectBoundingBox">
      <stop offset="0" stop-color="#3e3e3e"/>
      <stop offset="1" stop-color="#1a1a1a"/>
    </linearGradient>
  </defs>
  <circle id="Ellipse_1" data-name="Ellipse 1" cx="22.5" cy="22.5" r="22.5" fill="url(#linear-gradient)"/>
  <g id="device-mobile-svgrepo-com" transform="translate(9.495 8.921)">
    <path id="Path_9453" data-name="Path 9453" d="M12.215,20.431A1.715,1.715,0,1,0,10.5,18.715,1.715,1.715,0,0,0,12.215,20.431Z" transform="translate(0.789 2.297)" fill="#fff"/>
    <path id="Path_9454" data-name="Path 9454" d="M5,22.727a3.28,3.28,0,0,0,3.1,3.431h9.8a3.28,3.28,0,0,0,3.1-3.431V4.431A3.28,3.28,0,0,0,17.906,1H8.1A3.28,3.28,0,0,0,5,4.431Zm3.1,1.144c-.292,0-.817-.34-.817-1.144V4.431c0-.8.525-1.144.817-1.144h9.8c.292,0,.817.34.817,1.144v18.3c0,.8-.525,1.144-.817,1.144Z" fill="#fff" fill-rule="evenodd"/>
  </g>
</svg>
