<svg id="banner-main6" xmlns="http://www.w3.org/2000/svg" xmlns:xlink="http://www.w3.org/1999/xlink" width="45" height="45" viewBox="0 0 45 45">
  <defs>
    <linearGradient id="linear-gradient" x1="0.5" x2="0.156" y2="0.791" gradientUnits="objectBoundingBox">
      <stop offset="0" stop-color="#3e3e3e"/>
      <stop offset="1" stop-color="#1a1a1a"/>
    </linearGradient>
  </defs>
  <circle id="Ellipse_1" data-name="Ellipse 1" cx="22.5" cy="22.5" r="22.5" fill="url(#linear-gradient)"/>
  <g id="Icon_feather-headphones" data-name="Icon feather-headphones" transform="translate(7.382 5.5)">
    <path id="Path_7007" data-name="Path 7007" d="M4.5,22.2V15.118a10.618,10.618,0,1,1,21.235,0V22.2" fill="none" stroke="#fff" stroke-linecap="round" stroke-linejoin="round" stroke-width="2"/>
    <path id="Path_7008" data-name="Path 7008" d="M25.735,26.9a2.359,2.359,0,0,1-2.359,2.359H22.2A2.359,2.359,0,0,1,19.836,26.9V23.359A2.359,2.359,0,0,1,22.2,21h3.539ZM4.5,26.9a2.359,2.359,0,0,0,2.359,2.359h1.18A2.359,2.359,0,0,0,10.4,26.9V23.359A2.359,2.359,0,0,0,8.039,21H4.5Z" transform="translate(0 -3.523)" fill="none" stroke="#fff" stroke-linecap="round" stroke-linejoin="round" stroke-width="2"/>
  </g>
</svg>
