<svg xmlns="http://www.w3.org/2000/svg" xmlns:xlink="http://www.w3.org/1999/xlink" width="45" height="45" viewBox="0 0 45 45">
  <defs>
    <linearGradient id="linear-gradient" x1="0.5" x2="0.156" y2="0.791" gradientUnits="objectBoundingBox">
      <stop offset="0" stop-color="#3e3e3e"/>
      <stop offset="1" stop-color="#1a1a1a"/>
    </linearGradient>
  </defs>
  <g id="banner-main3" transform="translate(0 -0.5)">
    <circle id="Ellipse_1" data-name="Ellipse 1" cx="22.5" cy="22.5" r="22.5" transform="translate(0 0.5)" fill="url(#linear-gradient)"/>
    <path id="workflow-svgrepo-com" d="M7.553,15.619H2.512A1.008,1.008,0,0,0,1.5,16.627v5.041a1.008,1.008,0,0,0,1.008,1.008H7.553a1.008,1.008,0,0,0,1.008-1.008V20.156H12.09a1.008,1.008,0,1,0,0-2.016H8.561V16.627A1.008,1.008,0,0,0,7.553,15.619ZM6.545,20.66H3.52V17.635H6.545ZM4.025,8.923V13.1a1.008,1.008,0,1,0,2.016,0V8.923a4.033,4.033,0,1,0-2.016,0ZM5.033,3.017A2.016,2.016,0,1,1,3.016,5.033,2.016,2.016,0,0,1,5.033,3.017ZM20.156,15.258V12.09a1.008,1.008,0,1,0-2.016,0v3.168a4.033,4.033,0,1,0,2.016,0Zm-1.008,5.906a2.016,2.016,0,1,1,2.016-2.016A2.016,2.016,0,0,1,19.147,21.164Zm-2.52-12.6h5.041a1.008,1.008,0,0,0,1.008-1.008V2.512A1.008,1.008,0,0,0,21.668,1.5H16.627a1.008,1.008,0,0,0-1.008,1.008V4.025H12.09a1.008,1.008,0,0,0,0,2.016h3.529V7.553A1.008,1.008,0,0,0,16.627,8.562Zm1.008-5.041H20.66V6.545H17.635Z" transform="translate(10.41 10.91)" fill="#fff"/>
  </g>
</svg>
