<svg id="banner-main2" xmlns="http://www.w3.org/2000/svg" xmlns:xlink="http://www.w3.org/1999/xlink" width="45" height="45" viewBox="0 0 45 45">
  <defs>
    <linearGradient id="linear-gradient" x1="0.5" x2="0.156" y2="0.791" gradientUnits="objectBoundingBox">
      <stop offset="0" stop-color="#3e3e3e"/>
      <stop offset="1" stop-color="#1a1a1a"/>
    </linearGradient>
  </defs>
  <circle id="Ellipse_1" data-name="Ellipse 1" cx="22.5" cy="22.5" r="22.5" fill="url(#linear-gradient)"/>
  <g id="layout-svgrepo-com" transform="translate(13.284 11.244)">
    <path id="Path_72" data-name="Path 72" d="M3,6.318A4.318,4.318,0,0,1,7.318,2h10.8a4.318,4.318,0,1,1,0,8.636H7.318A4.318,4.318,0,0,1,3,6.318Z" transform="translate(-3 -2)" fill="none" stroke="#fff" stroke-width="2"/>
    <path id="Path_73" data-name="Path 73" d="M3,16.159A2.159,2.159,0,0,1,5.159,14H8.4a2.159,2.159,0,0,1,2.159,2.159V19.4A2.159,2.159,0,0,1,8.4,21.557H5.159A2.159,2.159,0,0,1,3,19.4Z" transform="translate(-3 -1.046)" fill="none" stroke="#fff" stroke-width="2"/>
    <path id="Path_74" data-name="Path 74" d="M14,17.778a3.778,3.778,0,1,1,3.778,3.778A3.778,3.778,0,0,1,14,17.778Z" transform="translate(-2.125 -1.046)" fill="none" stroke="#fff" stroke-width="2"/>
  </g>
</svg>
