<svg xmlns="http://www.w3.org/2000/svg" xmlns:xlink="http://www.w3.org/1999/xlink" width="45" height="45" viewBox="0 0 45 45">
  <defs>
    <linearGradient id="linear-gradient" x1="0.5" x2="0.156" y2="0.791" gradientUnits="objectBoundingBox">
      <stop offset="0" stop-color="#3e3e3e"/>
      <stop offset="1" stop-color="#1a1a1a"/>
    </linearGradient>
  </defs>
  <g id="Group_6" data-name="Group 6" transform="translate(0 -0.5)">
    <circle id="Ellipse_1" data-name="Ellipse 1" cx="22.5" cy="22.5" r="22.5" transform="translate(0 0.5)" fill="url(#linear-gradient)"/>
    <g id="Icon_feather-headphones" data-name="Icon feather-headphones" transform="translate(7.81 7.31)">
      <path id="Path_9007" data-name="Path 9007" d="M4.5,21.484V14.69a10.19,10.19,0,1,1,20.381,0v6.794" fill="none" stroke="#fff" stroke-linecap="round" stroke-linejoin="round" stroke-width="2"/>
      <path id="Path_9008" data-name="Path 9008" d="M24.881,26.661a2.265,2.265,0,0,1-2.265,2.265H21.484a2.265,2.265,0,0,1-2.265-2.265v-3.4A2.265,2.265,0,0,1,21.484,21h3.4Zm-20.381,0a2.265,2.265,0,0,0,2.265,2.265H7.9a2.265,2.265,0,0,0,2.265-2.265v-3.4A2.265,2.265,0,0,0,7.9,21H4.5Z" transform="translate(0 -4.045)" fill="none" stroke="#fff" stroke-linecap="round" stroke-linejoin="round" stroke-width="2"/>
    </g>
  </g>
</svg>
