<svg xmlns="http://www.w3.org/2000/svg" xmlns:xlink="http://www.w3.org/1999/xlink" width="45" height="45" viewBox="0 0 45 45">
  <defs>
    <linearGradient id="linear-gradient" x1="0.5" x2="0.156" y2="0.791" gradientUnits="objectBoundingBox">
      <stop offset="0" stop-color="#3e3e3e"/>
      <stop offset="1" stop-color="#1a1a1a"/>
    </linearGradient>
  </defs>
  <g id="Group_6" data-name="Group 6" transform="translate(0 -0.5)">
    <circle id="Ellipse_1" data-name="Ellipse 1" cx="22.5" cy="22.5" r="22.5" transform="translate(0 0.5)" fill="url(#linear-gradient)"/>
    <path id="pen-nib-svgrepo-com" d="M16.28,4.32,15.5,3.535h0ZM8.452,8.037l.3,1.067ZM5.968,10.653l1.081.25h0ZM3.11,23.038l-1.081-.25a1.11,1.11,0,0,0,1.331,1.331ZM15.495,20.18,15.245,19.1h0ZM18.111,17.7l-1.067-.3Zm3.717-7.828.785.785h0Zm0-2.511-.785.785h0ZM18.791,4.32l.785-.785h0ZM22.57,8.955l-1.055-.343Zm0-.686-1.055.343ZM16.914,19.737l.577.948h0Zm.681-.647.917.625h0ZM7.057,8.553l.625.917h0Zm-.647.681.948.577h0ZM17.192,3.578l-.343-1.055Zm.686,0,.343-1.055h0ZM9.93,17.787a1.11,1.11,0,0,0-1.569-1.569Zm.947-1.961a.555.555,0,0,1-.555.555V18.6A2.774,2.774,0,0,0,13.1,15.825Zm-.555.555a.555.555,0,0,1-.555-.555H7.548A2.774,2.774,0,0,0,10.322,18.6Zm-.555-.555a.555.555,0,0,1,.555-.555V13.051a2.774,2.774,0,0,0-2.774,2.774Zm.555-.555a.555.555,0,0,1,.555.555H13.1a2.774,2.774,0,0,0-2.774-2.774ZM15.5,3.535,13.422,5.609l1.569,1.569L17.064,5.1ZM13.9,5.326,8.147,6.97,8.757,9.1,14.511,7.46ZM4.887,10.4,2.028,22.789l2.162.5L7.049,10.9ZM3.359,24.119l12.385-2.858-.5-2.163L2.86,21.957ZM19.178,18l1.644-5.754-2.134-.61-1.644,5.754Zm1.362-5.274,2.074-2.074L21.043,9.083,18.97,11.157Zm2.074-6.154L19.575,3.535,18.006,5.1l3.037,3.037Zm0,4.08c.207-.207.41-.408.566-.593a2.243,2.243,0,0,0,.446-.762l-2.111-.686c.022-.068.048-.078-.027.011s-.211.227-.443.46ZM21.043,8.142c.233.233.359.361.443.46s.049.079.027.011l2.111-.686a2.243,2.243,0,0,0-.446-.762c-.156-.184-.359-.386-.566-.593ZM23.625,9.3a2.22,2.22,0,0,0,0-1.372l-2.111.686h0ZM15.744,21.261a5.843,5.843,0,0,0,1.747-.576l-1.153-1.9a4.341,4.341,0,0,1-1.092.31Zm1.3-3.87a4.337,4.337,0,0,1-.366,1.075l1.834,1.249A5.843,5.843,0,0,0,19.178,18Zm.447,3.294a3.328,3.328,0,0,0,1.021-.97l-1.834-1.249a1.11,1.11,0,0,1-.34.323ZM8.147,6.97a5.844,5.844,0,0,0-1.715.665L7.682,9.47A4.337,4.337,0,0,1,8.757,9.1ZM7.049,10.9a4.337,4.337,0,0,1,.31-1.092l-1.9-1.153A5.844,5.844,0,0,0,4.887,10.4ZM6.433,7.636a3.329,3.329,0,0,0-.97,1.021l1.9,1.153a1.109,1.109,0,0,1,.323-.34ZM17.064,5.1c.233-.233.361-.359.46-.443s.079-.05.011-.027l-.686-2.111a2.243,2.243,0,0,0-.762.446c-.184.156-.386.359-.593.566Zm2.511-1.569c-.207-.207-.408-.41-.593-.566a2.243,2.243,0,0,0-.762-.446l-.686,2.111c-.068-.022-.078-.048.011.027s.227.211.46.443Zm-2.04,1.1h0l.686-2.111a2.219,2.219,0,0,0-1.372,0ZM13.422,7.178l5.548,5.548,1.569-1.569L14.991,5.609Zm-5.061,9.04L2.325,22.253l1.569,1.569L9.93,17.787Z" transform="translate(9.633 8.512)" fill="#fff"/>
  </g>
</svg>
