<svg id="banner-main1" xmlns="http://www.w3.org/2000/svg" xmlns:xlink="http://www.w3.org/1999/xlink" width="45" height="45" viewBox="0 0 45 45">
  <defs>
    <linearGradient id="linear-gradient" x1="0.5" x2="0.156" y2="0.791" gradientUnits="objectBoundingBox">
      <stop offset="0" stop-color="#3e3e3e"/>
      <stop offset="1" stop-color="#1a1a1a"/>
    </linearGradient>
  </defs>
  <circle id="Ellipse_1" data-name="Ellipse 1" cx="22.5" cy="22.5" r="22.5" fill="url(#linear-gradient)"/>
  <path id="strategy-svgrepo-com" d="M40.041,27.39h-3.62a1.438,1.438,0,0,0-1.434,1.434v.9H31.619V22.66a.5.5,0,0,0-.466-.466H26.387v-.86A1.438,1.438,0,0,0,24.953,19.9h-3.62A1.438,1.438,0,0,0,19.9,21.334v3.62a1.438,1.438,0,0,0,1.434,1.434h3.62a1.438,1.438,0,0,0,1.434-1.434v-.86H29.72V29.72H26.387V28.9a1.438,1.438,0,0,0-1.434-1.434h-3.62A1.438,1.438,0,0,0,19.9,28.9v3.584a1.438,1.438,0,0,0,1.434,1.434h3.62a1.438,1.438,0,0,0,1.434-1.434v-.86H29.72v5.627H26.387v-.824a1.438,1.438,0,0,0-1.434-1.434h-3.62A1.438,1.438,0,0,0,19.9,36.422v3.62a1.438,1.438,0,0,0,1.434,1.434h3.62a1.438,1.438,0,0,0,1.434-1.434v-.86h4.767a.5.5,0,0,0,.466-.466v-7.06h3.369v.788a1.438,1.438,0,0,0,1.434,1.434h3.62a1.438,1.438,0,0,0,1.434-1.434v-3.62A1.438,1.438,0,0,0,40.041,27.39ZM24.953,24.953h-3.62v-3.62h3.62Zm0,.717v-.717h0Zm0,6.809h-3.62V28.9h3.62Zm0,.717v-.717h0Zm0,6.845h-3.62v-3.62h3.62Zm0,.717v-.717h0Zm15.088-8.315h-3.62v-3.62h3.62Zm0,.717v-.717h0Z" transform="translate(-6.588 -8.587)" fill="#fff"/>
</svg>
