<svg id="banner-main6" xmlns="http://www.w3.org/2000/svg" xmlns:xlink="http://www.w3.org/1999/xlink" width="45" height="45" viewBox="0 0 45 45">
  <defs>
    <linearGradient id="linear-gradient" x1="0.5" x2="0.156" y2="0.791" gradientUnits="objectBoundingBox">
      <stop offset="0" stop-color="#3e3e3e"/>
      <stop offset="1" stop-color="#1a1a1a"/>
    </linearGradient>
  </defs>
  <circle id="Ellipse_1" data-name="Ellipse 1" cx="22.5" cy="22.5" r="22.5" fill="url(#linear-gradient)"/>
  <g id="Icon_feather-headphones" data-name="Icon feather-headphones" transform="translate(8.077 7.077)">
    <path id="Path_9451" data-name="Path 9451" d="M4.5,21.038V14.423a9.923,9.923,0,1,1,19.845,0v6.615" fill="none" stroke="#fff" stroke-linecap="round" stroke-linejoin="round" stroke-width="2"/>
    <path id="Path_9452" data-name="Path 9452" d="M24.345,26.513a2.205,2.205,0,0,1-2.205,2.205h-1.1a2.205,2.205,0,0,1-2.205-2.205V23.205A2.205,2.205,0,0,1,21.038,21h3.308Zm-19.845,0a2.205,2.205,0,0,0,2.205,2.205h1.1a2.205,2.205,0,0,0,2.205-2.205V23.205A2.205,2.205,0,0,0,7.808,21H4.5Z" transform="translate(0 -4.372)" fill="none" stroke="#fff" stroke-linecap="round" stroke-linejoin="round" stroke-width="2"/>
  </g>
</svg>
