<svg xmlns="http://www.w3.org/2000/svg" xmlns:xlink="http://www.w3.org/1999/xlink" width="45" height="45" viewBox="0 0 45 45">
  <defs>
    <linearGradient id="linear-gradient" x1="0.5" x2="0.156" y2="0.791" gradientUnits="objectBoundingBox">
      <stop offset="0" stop-color="#3e3e3e"/>
      <stop offset="1" stop-color="#1a1a1a"/>
    </linearGradient>
  </defs>
  <g id="Group_6" data-name="Group 6" transform="translate(0 -0.5)">
    <circle id="Ellipse_1" data-name="Ellipse 1" cx="22.5" cy="22.5" r="22.5" transform="translate(0 0.5)" fill="url(#linear-gradient)"/>
    <path id="cloud-network-svgrepo-com" d="M8.531,9.338A8.191,8.191,0,0,1,16.138,4.5a7.936,7.936,0,0,1,7.619,4.833,3.616,3.616,0,0,1,1.3-.242,3.828,3.828,0,0,1,0,7.653V19.9a2.975,2.975,0,1,1-1.487,0V16.745H16.882v6.219a2.975,2.975,0,1,1-1.487,0V16.745H8.7V19.9a3.073,3.073,0,0,1-.743,6.026A3.073,3.073,0,0,1,7.217,19.9V16.745a3.828,3.828,0,0,1,0-7.653A3.616,3.616,0,0,1,8.531,9.338Zm1.128,1.284a6.617,6.617,0,0,1,6.48-4.591c3.267,0,5.8,1.9,6.456,4.565a.759.759,0,0,0,.4.5.726.726,0,0,0,.78-.052,2.174,2.174,0,0,1,1.29-.422,2.3,2.3,0,0,1,0,4.592H7.217a2.3,2.3,0,0,1,0-4.592A2.171,2.171,0,0,1,8.437,11a1.086,1.086,0,0,0,.3.148A.741.741,0,0,0,9.659,10.622ZM6.474,22.868A1.487,1.487,0,1,1,7.961,24.4,1.509,1.509,0,0,1,6.474,22.868Zm16.356,0A1.487,1.487,0,1,1,24.316,24.4,1.509,1.509,0,0,1,22.829,22.868ZM16.138,24.4a1.531,1.531,0,1,0,1.487,1.531A1.509,1.509,0,0,0,16.138,24.4Z" transform="translate(6.362 6.255)" fill="#fff" fill-rule="evenodd"/>
  </g>
</svg>
