<svg id="banner-main1" xmlns="http://www.w3.org/2000/svg" xmlns:xlink="http://www.w3.org/1999/xlink" width="45" height="45" viewBox="0 0 45 45">
  <defs>
    <linearGradient id="linear-gradient" x1="0.5" x2="0.156" y2="0.791" gradientUnits="objectBoundingBox">
      <stop offset="0" stop-color="#3e3e3e"/>
      <stop offset="1" stop-color="#1a1a1a"/>
    </linearGradient>
  </defs>
  <circle id="Ellipse_1" data-name="Ellipse 1" cx="22.5" cy="22.5" r="22.5" fill="url(#linear-gradient)"/>
  <path id="store-2-svgrepo-com" d="M14.269,11.05a1.153,1.153,0,1,0-2.306,0Zm7.092,0a1.153,1.153,0,1,0-2.306,0Zm-9.4-.02a1.153,1.153,0,1,0,2.305.04Zm2.321-.855a1.153,1.153,0,1,0-2.305-.04Zm-.05,1.155A1.153,1.153,0,1,0,12,10.77Zm-1.36.682,1.115.291,0-.011Zm-2.193,2.422.4,1.081h0ZM8.1,13.077a1.153,1.153,0,1,0-1.314,1.895Zm.5.959a1.153,1.153,0,0,0-2.306-.024ZM7.355,22.274l1.153.014v0Zm.887,2.2-.82.81h0Zm2.187.913V24.232h0Zm3.159,1.153a1.153,1.153,0,1,0,0-2.306ZM6.78,14.97A1.153,1.153,0,0,0,8.1,13.079Zm-.756-4.814-1.081-.4q-.019.052-.033.105ZM7.307,6.7l1.081.4q.017-.045.03-.091Zm1.7-1.3V4.25h0Zm15.3,0,0-1.153h0Zm1.7,1.3-1.11.31q.013.046.03.091ZM27.3,10.157l1.114-.3c-.01-.036-.021-.071-.034-.105Zm-2.074,2.922a1.153,1.153,0,1,0,1.321,1.89ZM12.435,25.385a1.153,1.153,0,1,0,2.306,0Zm6.148,0a1.153,1.153,0,1,0,2.306,0Zm-5-1.153a1.153,1.153,0,0,0,0,2.306Zm6.148,2.306a1.153,1.153,0,1,0,0-2.306Zm-.681-15.474a1.153,1.153,0,1,0,2.306-.028Zm2.295-.922a1.153,1.153,0,1,0-2.306.028Zm-.02.627a1.153,1.153,0,1,0-2.236.563Zm-.877,1.239-1.118.282,0,.009Zm2.19,2.422-.4,1.081Zm3.9.543a1.153,1.153,0,0,0-1.311-1.9Zm.5-.96a1.153,1.153,0,1,0-2.306.022Zm-1.073,8.261-1.153.011v0Zm-.887,2.2-.82-.81Zm-2.187.913V24.232h0Zm-3.154-1.153a1.153,1.153,0,1,0,0,2.306ZM11.963,11.05a4.7,4.7,0,0,0,4.7,4.7V13.443a2.393,2.393,0,0,1-2.393-2.393Zm4.7,4.7a4.7,4.7,0,0,0,4.7-4.7H19.055a2.393,2.393,0,0,1-2.393,2.393ZM14.269,11.07l.015-.895-2.305-.04-.015.895ZM12,10.77l-.241.962,2.236.561.241-.962Zm-.239.951a2.382,2.382,0,0,1-1.478,1.632l.8,2.162A4.688,4.688,0,0,0,13.99,12.3Zm-1.478,1.632A2.382,2.382,0,0,1,8.1,13.077L6.782,14.972a4.688,4.688,0,0,0,4.3.544Zm-3.994.659L6.2,22.262l2.306.024.085-8.25ZM6.2,22.26a4.227,4.227,0,0,0,1.22,3.022l1.64-1.621a1.921,1.921,0,0,1-.555-1.374Zm1.22,3.022a4.227,4.227,0,0,0,3.007,1.256V24.232a1.921,1.921,0,0,1-1.367-.571Zm3.007,1.256h3.159V24.232H10.429ZM8.1,13.079a2.439,2.439,0,0,1-.961-2.627L4.91,9.859a4.745,4.745,0,0,0,1.87,5.11ZM7.1,10.557,8.388,7.1,6.227,6.3,4.943,9.754ZM8.417,7.011a.623.623,0,0,1,.6-.455L9.009,4.25A2.928,2.928,0,0,0,6.2,6.39Zm.594-.455h15.3V4.25H9.012Zm15.3,0a.622.622,0,0,1,.6.455l2.221-.621a2.928,2.928,0,0,0-2.812-2.14Zm.627.546,1.283,3.457,2.161-.8L27.1,6.3Zm1.25,3.352a2.44,2.44,0,0,1-.96,2.626l1.321,1.89a4.745,4.745,0,0,0,1.868-5.109ZM14.741,25.385V20.774H12.435v4.611Zm0-4.611a.384.384,0,0,1,.384-.384V18.084a2.69,2.69,0,0,0-2.69,2.69Zm.384-.384H18.2V18.084H15.125Zm3.074,0a.384.384,0,0,1,.384.384h2.306a2.69,2.69,0,0,0-2.69-2.69Zm.384.384v4.611h2.306V20.774Zm-5,5.764h6.148V24.232H13.588Zm7.773-15.5-.011-.895-2.306.028.011.895Zm-2.266.3.241.958,2.236-.563-.241-.958Zm.244.967a4.688,4.688,0,0,0,2.9,3.212l.8-2.161a2.382,2.382,0,0,1-1.476-1.632Zm2.9,3.212a4.688,4.688,0,0,0,4.3-.538l-1.311-1.9a2.383,2.383,0,0,1-2.184.273Zm2.489-1.475.08,8.25,2.306-.022-.08-8.25Zm.08,8.252a1.921,1.921,0,0,1-.555,1.374l1.64,1.621a4.227,4.227,0,0,0,1.22-3.022Zm-.555,1.374a1.921,1.921,0,0,1-1.367.571v2.306A4.227,4.227,0,0,0,25.9,25.282Zm-1.367.571H19.736v2.306H22.89Z" transform="translate(5.839 7.106)" fill="#fff"/>
</svg>
