<svg id="banner-main5" xmlns="http://www.w3.org/2000/svg" xmlns:xlink="http://www.w3.org/1999/xlink" width="45" height="45" viewBox="0 0 45 45">
  <defs>
    <linearGradient id="linear-gradient" x1="0.5" x2="0.156" y2="0.791" gradientUnits="objectBoundingBox">
      <stop offset="0" stop-color="#3e3e3e"/>
      <stop offset="1" stop-color="#1a1a1a"/>
    </linearGradient>
  </defs>
  <circle id="Ellipse_1" data-name="Ellipse 1" cx="22.5" cy="22.5" r="22.5" fill="url(#linear-gradient)"/>
  <path id="flow-tree-svgrepo-com" d="M22.733,22.59a1.144,1.144,0,1,0-1.144-1.144A1.144,1.144,0,0,0,22.733,22.59ZM19.3,21.446a3.433,3.433,0,0,1,2.288-3.236v-.2a3.432,3.432,0,0,0-3.432-3.432,5.694,5.694,0,0,1-3.432-1.143v4.77a3.432,3.432,0,1,1-2.288,0v-4.77a5.694,5.694,0,0,1-3.432,1.143,3.432,3.432,0,0,0-3.432,3.432v.2a3.432,3.432,0,1,1-2.288,0v-.2a5.719,5.719,0,0,1,5.719-5.719,3.432,3.432,0,0,0,3.432-3.432v-.2a3.432,3.432,0,1,1,2.288,0v.2a3.432,3.432,0,0,0,3.432,3.432,5.719,5.719,0,0,1,5.719,5.719v.2A3.432,3.432,0,1,1,19.3,21.446ZM13.583,6.575a1.144,1.144,0,1,0-1.144-1.144A1.144,1.144,0,0,0,13.583,6.575ZM4.432,20.3a1.144,1.144,0,1,0,1.144,1.144A1.144,1.144,0,0,0,4.432,20.3Zm10.295,1.144A1.144,1.144,0,1,1,13.583,20.3,1.144,1.144,0,0,1,14.726,21.446Z" transform="translate(9.417 8.054)" fill="#fff" fill-rule="evenodd"/>
</svg>
