<svg xmlns="http://www.w3.org/2000/svg" xmlns:xlink="http://www.w3.org/1999/xlink" width="45" height="45" viewBox="0 0 45 45">
  <defs>
    <linearGradient id="linear-gradient" x1="0.5" x2="0.156" y2="0.791" gradientUnits="objectBoundingBox">
      <stop offset="0" stop-color="#3e3e3e"/>
      <stop offset="1" stop-color="#1a1a1a"/>
    </linearGradient>
  </defs>
  <g id="Group_6" data-name="Group 6" transform="translate(0 -0.5)">
    <circle id="Ellipse_1" data-name="Ellipse 1" cx="22.5" cy="22.5" r="22.5" transform="translate(0 0.5)" fill="url(#linear-gradient)"/>
    <path id="api-svgrepo-com" d="M.5,3.77a3.27,3.27,0,1,1,6.22,1.41L8.674,7.132l.413-.413a3.27,3.27,0,0,1,4.624,0l.413.413,1.953-1.953a3.27,3.27,0,1,1,1.54,1.54L15.665,8.674l.413.413a3.27,3.27,0,0,1,0,4.624l-.413.413,1.953,1.953a3.27,3.27,0,1,1-1.54,1.54l-1.955-1.952-.413.413a3.27,3.27,0,0,1-4.624,0l-.413-.413L6.721,17.619a3.27,3.27,0,1,1-1.54-1.54l1.952-1.955-.413-.413a3.27,3.27,0,0,1,0-4.624l.413-.413L5.179,6.721A3.27,3.27,0,0,1,.5,3.77ZM3.77,2.68A1.09,1.09,0,1,0,4.86,3.77,1.09,1.09,0,0,0,3.77,2.68Zm0,15.258a1.09,1.09,0,1,0,1.09,1.09,1.09,1.09,0,0,0-1.09-1.09Zm14.168,1.09a1.09,1.09,0,1,1,1.09,1.09,1.09,1.09,0,0,1-1.09-1.09ZM19.028,2.68a1.09,1.09,0,1,0,1.09,1.09,1.09,1.09,0,0,0-1.09-1.09Zm-8.4,5.582a1.09,1.09,0,0,1,1.54,0l2.369,2.367a1.09,1.09,0,0,1,0,1.54l-2.369,2.369a1.09,1.09,0,0,1-1.54,0L8.26,12.169a1.09,1.09,0,0,1,0-1.54L10.629,8.26Z" transform="translate(12.101 11.602)" fill="#fff" fill-rule="evenodd"/>
  </g>
</svg>
