<svg xmlns="http://www.w3.org/2000/svg" xmlns:xlink="http://www.w3.org/1999/xlink" width="45" height="45" viewBox="0 0 45 45">
  <defs>
    <linearGradient id="linear-gradient" x1="0.5" x2="0.156" y2="0.791" gradientUnits="objectBoundingBox">
      <stop offset="0" stop-color="#3e3e3e"/>
      <stop offset="1" stop-color="#1a1a1a"/>
    </linearGradient>
  </defs>
  <g id="Group_6" data-name="Group 6" transform="translate(0 -0.5)">
    <circle id="Ellipse_1" data-name="Ellipse 1" cx="22.5" cy="22.5" r="22.5" transform="translate(0 0.5)" fill="url(#linear-gradient)"/>
    <g id="verify-svgrepo-com" transform="translate(10.287 10.097)">
      <path id="Path_7201" data-name="Path 7201" d="M8.38,12.216l2.625,2.636L16.266,9.58" transform="translate(0.569 0.676)" fill="none" stroke="#fff" stroke-linecap="round" stroke-linejoin="round" stroke-width="2"/>
      <path id="Path_7202" data-name="Path 7202" d="M11.531,2.489a2.2,2.2,0,0,1,2.745,0L16,3.971a2.414,2.414,0,0,0,1.373.512h1.852a2.111,2.111,0,0,1,2.1,2.1V8.437a2.444,2.444,0,0,0,.512,1.373l1.481,1.721a2.2,2.2,0,0,1,0,2.745L21.836,16a2.414,2.414,0,0,0-.512,1.373v1.852a2.111,2.111,0,0,1-2.1,2.1H17.37A2.443,2.443,0,0,0,16,21.835l-1.721,1.481a2.2,2.2,0,0,1-2.745,0L9.81,21.835a2.414,2.414,0,0,0-1.373-.512H6.553a2.111,2.111,0,0,1-2.1-2.1V17.358A2.479,2.479,0,0,0,3.949,16L2.479,14.265a2.193,2.193,0,0,1,0-2.723L3.949,9.81a2.479,2.479,0,0,0,.5-1.362V6.574a2.111,2.111,0,0,1,2.1-2.1H8.437A2.444,2.444,0,0,0,9.81,3.96Z" transform="translate(0 0)" fill="none" stroke="#fff" stroke-linecap="round" stroke-linejoin="round" stroke-width="2"/>
    </g>
  </g>
</svg>
