<svg id="banner-main2" xmlns="http://www.w3.org/2000/svg" xmlns:xlink="http://www.w3.org/1999/xlink" width="45" height="45" viewBox="0 0 45 45">
  <defs>
    <linearGradient id="linear-gradient" x1="0.5" x2="0.156" y2="0.791" gradientUnits="objectBoundingBox">
      <stop offset="0" stop-color="#3e3e3e"/>
      <stop offset="1" stop-color="#1a1a1a"/>
    </linearGradient>
  </defs>
  <circle id="Ellipse_1" data-name="Ellipse 1" cx="22.5" cy="22.5" r="22.5" fill="url(#linear-gradient)"/>
  <g id="gear-svgrepo-com" transform="translate(12.047 12.043)">
    <path id="Path_70" data-name="Path 70" d="M15.971,12.486A3.486,3.486,0,1,1,12.485,9a3.486,3.486,0,0,1,3.486,3.486Z" transform="translate(-2.029 -2.029)" fill="none" stroke="#fff" stroke-linecap="round" stroke-linejoin="round" stroke-width="2"/>
    <path id="Path_71" data-name="Path 71" d="M14.508,3.07A3.96,3.96,0,0,0,13.457,3a3.96,3.96,0,0,0-1.051.07,1.743,1.743,0,0,0-.884.6,3.958,3.958,0,0,0-.455.95,1.47,1.47,0,0,1-1.829.848l-.663-.221A3.9,3.9,0,0,0,7.638,5a1.743,1.743,0,0,0-.97.229,3.9,3.9,0,0,0-.726.641,3.942,3.942,0,0,0-.677.772,1.743,1.743,0,0,0-.211,1.027,3.942,3.942,0,0,0,.319.976,1.682,1.682,0,0,1-.7,2.067l-.322.193a3.845,3.845,0,0,0-.92.648,1.743,1.743,0,0,0-.351.621A3.892,3.892,0,0,0,3,13.3a4,4,0,0,0,.11,1.327,1.743,1.743,0,0,0,.461.681,3.951,3.951,0,0,0,1.182.591,1.315,1.315,0,0,1,.759,1.637l-.25.75a3.9,3.9,0,0,0-.268,1.034,1.742,1.742,0,0,0,.206.88,3.9,3.9,0,0,0,.7.806,3.9,3.9,0,0,0,.805.7,1.742,1.742,0,0,0,.881.208,3.9,3.9,0,0,0,1.034-.268l.612-.2a1.47,1.47,0,0,1,1.829.848,3.96,3.96,0,0,0,.455.95,1.743,1.743,0,0,0,.884.6,3.963,3.963,0,0,0,1.051.07,3.963,3.963,0,0,0,1.051-.07,1.743,1.743,0,0,0,.884-.6,3.96,3.96,0,0,0,.455-.95,1.469,1.469,0,0,1,1.829-.848l.612.2a3.9,3.9,0,0,0,1.034.268,1.743,1.743,0,0,0,.881-.208,3.9,3.9,0,0,0,.806-.7,3.9,3.9,0,0,0,.7-.806,1.743,1.743,0,0,0,.208-.881,3.9,3.9,0,0,0-.268-1.034l-.25-.749a1.316,1.316,0,0,1,.76-1.638,3.953,3.953,0,0,0,1.182-.591,1.743,1.743,0,0,0,.461-.681,4,4,0,0,0,.11-1.327,3.891,3.891,0,0,0-.083-1.131,1.744,1.744,0,0,0-.351-.621,3.848,3.848,0,0,0-.92-.648l-.323-.194a1.681,1.681,0,0,1-.7-2.066,3.943,3.943,0,0,0,.319-.976,1.743,1.743,0,0,0-.211-1.027,3.941,3.941,0,0,0-.677-.772,3.9,3.9,0,0,0-.726-.641A1.743,1.743,0,0,0,19.275,5a3.9,3.9,0,0,0-.936.249l-.663.221a1.469,1.469,0,0,1-1.829-.848,3.959,3.959,0,0,0-.455-.95A1.743,1.743,0,0,0,14.508,3.07Z" transform="translate(-3 -3)" fill="none" stroke="#fff" stroke-linecap="round" stroke-linejoin="round" stroke-width="2"/>
  </g>
</svg>
