<svg id="banner-main6" xmlns="http://www.w3.org/2000/svg" xmlns:xlink="http://www.w3.org/1999/xlink" width="45" height="45" viewBox="0 0 45 45">
  <defs>
    <linearGradient id="linear-gradient" x1="0.5" x2="0.156" y2="0.791" gradientUnits="objectBoundingBox">
      <stop offset="0" stop-color="#3e3e3e"/>
      <stop offset="1" stop-color="#1a1a1a"/>
    </linearGradient>
  </defs>
  <circle id="Ellipse_1" data-name="Ellipse 1" cx="22.5" cy="22.5" r="22.5" fill="url(#linear-gradient)"/>
  <g id="secure-shield-password-protect-safe-svgrepo-com" transform="translate(12.114 11.18)">
    <path id="Path_75" data-name="Path 75" d="M12.386,23.016a2.04,2.04,0,0,1-1.07-.292l-4.035-2.36A9.83,9.83,0,0,1,2.25,11.89V5.443A2.127,2.127,0,0,1,3.639,3.449L11.655.5a2.127,2.127,0,0,1,1.462,0l8.016,2.944a2.127,2.127,0,0,1,1.389,1.994V11.89a9.83,9.83,0,0,1-5.031,8.474l-4.034,2.359a2.04,2.04,0,0,1-1.07.292Zm0-20.976a.445.445,0,0,0-.16,0L4.211,5a.459.459,0,0,0-.3.445V11.89a8.175,8.175,0,0,0,4.207,7.039L12.152,21.3a.485.485,0,0,0,.465,0l4.034-2.366h0A8.175,8.175,0,0,0,20.86,11.89V5.443a.459.459,0,0,0-.3-.432L12.545,2.067a.445.445,0,0,0-.16-.027Z" transform="translate(-2.25 -0.375)" fill="#fff"/>
    <path id="Path_76" data-name="Path 76" d="M14.546,19.1a.864.864,0,0,1-.538-.193l-2.838-2.4a.833.833,0,0,1,1.07-1.276l2.227,1.874,3.8-4.187A.833.833,0,1,1,19.5,14.038l-4.3,4.785a.844.844,0,0,1-.654.277Z" transform="translate(-5.142 -4.49)" fill="#fff"/>
  </g>
</svg>
