<svg id="banner-main4" xmlns="http://www.w3.org/2000/svg" width="45" height="45" viewBox="0 0 45 45">
  <circle id="Ellipse_45" data-name="Ellipse 45" cx="22.5" cy="22.5" r="22.5" fill="#2f2f2f"/>
  <g id="Icon_feather-headphones" data-name="Icon feather-headphones" transform="translate(7.382 6.5)">
    <path id="Path_7007" data-name="Path 7007" d="M4.5,22.2V15.118a10.618,10.618,0,1,1,21.235,0V22.2" fill="none" stroke="#fff" stroke-linecap="round" stroke-linejoin="round" stroke-width="2"/>
    <path id="Path_7008" data-name="Path 7008" d="M25.735,26.9a2.359,2.359,0,0,1-2.359,2.359H22.2A2.359,2.359,0,0,1,19.836,26.9V23.359A2.359,2.359,0,0,1,22.2,21h3.539ZM4.5,26.9a2.359,2.359,0,0,0,2.359,2.359h1.18A2.359,2.359,0,0,0,10.4,26.9V23.359A2.359,2.359,0,0,0,8.039,21H4.5Z" transform="translate(0 -3.523)" fill="none" stroke="#fff" stroke-linecap="round" stroke-linejoin="round" stroke-width="2"/>
  </g>
</svg>
