<svg id="banner-main2" xmlns="http://www.w3.org/2000/svg" xmlns:xlink="http://www.w3.org/1999/xlink" width="45" height="45" viewBox="0 0 45 45">
  <defs>
    <linearGradient id="linear-gradient" x1="0.5" x2="0.156" y2="0.791" gradientUnits="objectBoundingBox">
      <stop offset="0" stop-color="#3e3e3e"/>
      <stop offset="1" stop-color="#1a1a1a"/>
    </linearGradient>
  </defs>
  <circle id="Ellipse_1" data-name="Ellipse 1" cx="22.5" cy="22.5" r="22.5" fill="url(#linear-gradient)"/>
  <g id="Group_7977" data-name="Group 7977" transform="translate(-231.055 7080.113)">
    <path id="Path_9024" data-name="Path 9024" d="M19.033,33.475h0a3.248,3.248,0,0,1-2.321-.96L5.845,21.621a.757.757,0,0,1,0-1.067L16.721,9.66a3.248,3.248,0,0,1,2.321-.96h0a3.263,3.263,0,0,1,2.321.96l3.859,3.877a.757.757,0,0,1,0,1.067l-6.474,6.483,6.474,6.483a.757.757,0,0,1,0,1.067l-3.877,3.877A3.212,3.212,0,0,1,19.033,33.475ZM7.446,21.087l10.342,10.36a1.756,1.756,0,0,0,1.245.516h0a1.756,1.756,0,0,0,1.245-.516L23.621,28.1l-6.474-6.483a.757.757,0,0,1,0-1.067l6.474-6.483-3.335-3.344a1.72,1.72,0,0,0-1.245-.516,1.756,1.756,0,0,0-1.245.516Z" transform="translate(234.375 -7078.7)" fill="#fff"/>
    <path id="Path_9025" data-name="Path 9025" d="M197.818,100.809a.746.746,0,0,1-.534-.222l-4.34-4.348a.757.757,0,0,1,0-1.067l4.34-4.348a.762.762,0,0,1,.534-.222.746.746,0,0,1,.534.222l2.561,2.57a3.279,3.279,0,0,1,0,4.624l-2.561,2.57A.746.746,0,0,1,197.818,100.809Zm-3.272-5.1,3.272,3.272,2.027-2.028a1.766,1.766,0,0,0,0-2.49l-2.027-2.027Z" transform="translate(63.913 -7153.317)" fill="#fff"/>
  </g>
</svg>
