<svg id="banner-main4" xmlns="http://www.w3.org/2000/svg" width="45" height="45" viewBox="0 0 45 45">
  <circle id="Ellipse_45" data-name="Ellipse 45" cx="22.5" cy="22.5" r="22.5" fill="#2f2f2f"/>
  <path id="mobile-check-svgrepo-com" d="M10.47,13.244l1.375,1.49,3.1-3.353M9.576,23.115h6.258a5.552,5.552,0,0,0,2.356-.244,2.235,2.235,0,0,0,.977-.977,5.552,5.552,0,0,0,.244-2.356V6.576a5.552,5.552,0,0,0-.244-2.356,2.235,2.235,0,0,0-.977-.977A5.553,5.553,0,0,0,15.834,3H9.576a5.553,5.553,0,0,0-2.356.244,2.235,2.235,0,0,0-.977.977A5.552,5.552,0,0,0,6,6.576V19.539A5.553,5.553,0,0,0,6.244,21.9a2.235,2.235,0,0,0,.977.977,5.552,5.552,0,0,0,2.355.243Z" transform="translate(9.795 9.442)" fill="none" stroke="#fff" stroke-linecap="round" stroke-linejoin="round" stroke-width="2"/>
</svg>
