<svg id="banner-main4" xmlns="http://www.w3.org/2000/svg" width="45" height="45" viewBox="0 0 45 45">
  <circle id="Ellipse_45" data-name="Ellipse 45" cx="22.5" cy="22.5" r="22.5" fill="#2f2f2f"/>
  <g id="Group_8346" data-name="Group 8346" transform="translate(11 9.732)">
    <path id="Path_9131" data-name="Path 9131" d="M11.4,0c4.267,2.7,8.121,3.984,11.429,3.681.578,11.685-3.738,18.586-11.385,21.466C4.062,22.452-.306,15.848.018,3.5A16.341,16.341,0,0,0,11.4,0ZM6.915,13.666a.576.576,0,0,1,.749-.875l2.352,2.021,5.153-5.666a.576.576,0,1,1,.853.776L10.491,16h0a.576.576,0,0,1-.8.05L6.915,13.666ZM11.407,1.444C15.183,3.838,18.6,4.97,21.524,4.7c.511,10.343-3.308,16.452-10.077,19C4.909,21.318,1.042,15.472,1.329,4.546a14.462,14.462,0,0,0,10.077-3.1Z" fill="#fff" fill-rule="evenodd"/>
  </g>
</svg>
