<svg id="banner-main4" xmlns="http://www.w3.org/2000/svg" width="45" height="45" viewBox="0 0 45 45">
  <circle id="Ellipse_45" data-name="Ellipse 45" cx="22.5" cy="22.5" r="22.5" fill="#2f2f2f"/>
  <g id="money-send-svgrepo-com" transform="translate(9.962 8.567)">
    <path id="Path_9014" data-name="Path 9014" d="M13.07,17.517v1.159a.706.706,0,0,1-1.412,0V17.485A3.53,3.53,0,0,1,9.329,16.01a.643.643,0,0,1-.169-.432.674.674,0,0,1,.706-.674.612.612,0,0,1,.474.221,2.866,2.866,0,0,0,1.317.959V13.407c-1.4-.559-2.108-1.37-2.108-2.434a2.392,2.392,0,0,1,2.108-2.287V7.516a.706.706,0,1,1,1.412,0V8.675A2.96,2.96,0,0,1,15.041,9.9a.78.78,0,0,1,.158.421.674.674,0,0,1-.674.7.664.664,0,0,1-.5-.232,2.235,2.235,0,0,0-.959-.7v2.371l.263.105c1.338.516,2.171,1.275,2.171,2.487a2.54,2.54,0,0,1-2.434,2.466Zm-1.412-5.669V10.14a.864.864,0,0,0-.569.833.98.98,0,0,0,.569.843Zm2.318,3.235c0-.516-.358-.822-.906-1.054v2.108a1.054,1.054,0,0,0,.906-1.085Z" transform="translate(0.385 0.209)" fill="#fff"/>
    <path id="Path_9015" data-name="Path 9015" d="M13.149,3.97H6.215A4.215,4.215,0,0,0,2,8.185V18.723a4.216,4.216,0,0,0,4.215,4.215H18.861a4.216,4.216,0,0,0,4.215-4.215v-6.4" transform="translate(0 0.057)" fill="none" stroke="#fff" stroke-linecap="round" stroke-linejoin="round" stroke-width="2"/>
    <path id="Path_9016" data-name="Path 9016" d="M16.34,8.885,22.3,2.92" transform="translate(0.772)" fill="none" stroke="#fff" stroke-linecap="round" stroke-linejoin="round" stroke-width="2"/>
    <path id="Path_9017" data-name="Path 9017" d="M17.48,2.92h4.763V7.694" transform="translate(0.833)" fill="none" stroke="#fff" stroke-linecap="round" stroke-linejoin="round" stroke-width="2"/>
  </g>
</svg>
