<svg xmlns="http://www.w3.org/2000/svg" width="74" height="74" viewBox="0 0 74 74">
  <g id="Group_8128" data-name="Group 8128" transform="translate(-1293 -5581)">
    <circle id="Ellipse_92" data-name="Ellipse 92" cx="37" cy="37" r="37" transform="translate(1293 5581)" fill="#fff"/>
    <path id="cross-platform" d="M8.5,39V37.377h7.1l-2.236-2.134A16.819,16.819,0,0,1,9.3,29.854,14.7,14.7,0,0,1,8,23.7a15.48,15.48,0,0,1,2.821-9.014,16.116,16.116,0,0,1,7.522-5.922v1.688a14.279,14.279,0,0,0-6.33,5.334A14.094,14.094,0,0,0,9.641,23.7a13.181,13.181,0,0,0,1.151,5.553,14.019,14.019,0,0,0,3.325,4.51l2.667,2.447V29.181h1.641V39Zm21.173-.751v-1.7a14.03,14.03,0,0,0,6.351-5.334A14.236,14.236,0,0,0,38.359,23.3a12.95,12.95,0,0,0-1.151-5.265,15.174,15.174,0,0,0-3.259-4.7l-2.654-2.548v7.028H29.653V8h9.928V9.623h-7.11l2.195,2.2A17.454,17.454,0,0,1,38.687,17.4,14.6,14.6,0,0,1,40,23.3a15.531,15.531,0,0,1-2.814,9.02A16.067,16.067,0,0,1,29.67,38.249Z" transform="translate(1306 5595)"/>
  </g>
</svg>
