<svg xmlns="http://www.w3.org/2000/svg" width="74" height="74" viewBox="0 0 74 74">
  <g id="Group_8134" data-name="Group 8134" transform="translate(-375 -5653)">
    <circle id="Ellipse_90" data-name="Ellipse 90" cx="37" cy="37" r="37" transform="translate(375 5653)" fill="#fff"/>
    <path id="b2b" d="M5.133,37.23V34.338a3.986,3.986,0,0,1,.727-2.406,4.932,4.932,0,0,1,2.056-1.59A41.954,41.954,0,0,1,13.2,28.392a21.856,21.856,0,0,1,5.948-.7,21.578,21.578,0,0,1,5.923.7,44.652,44.652,0,0,1,5.3,1.951,5.018,5.018,0,0,1,2.023,1.59,3.964,3.964,0,0,1,.733,2.406V37.23Zm31.538,0V34.453a7.379,7.379,0,0,0-.886-3.732,8.1,8.1,0,0,0-2.3-2.564,33.259,33.259,0,0,1,3.615.906,21.233,21.233,0,0,1,3.067,1.2A5.509,5.509,0,0,1,42.114,32a4.22,4.22,0,0,1,.758,2.451V37.23ZM19.152,22.757a5.631,5.631,0,0,1-5.788-5.788,5.552,5.552,0,0,1,1.647-4.122,5.651,5.651,0,0,1,4.141-1.628,5.568,5.568,0,0,1,5.75,5.75,5.651,5.651,0,0,1-1.628,4.141A5.552,5.552,0,0,1,19.152,22.757Zm13.6-5.788A5.651,5.651,0,0,1,31.12,21.11a5.569,5.569,0,0,1-4.136,1.647,1.347,1.347,0,0,1-.231-.017,1.368,1.368,0,0,1-.225-.063,7.4,7.4,0,0,0,1.427-2.537,9.909,9.909,0,0,0,.484-3.156,8.56,8.56,0,0,0-.529-3.086,12.924,12.924,0,0,0-1.383-2.637,1.121,1.121,0,0,0,.225-.019,1.4,1.4,0,0,1,.225-.023,5.569,5.569,0,0,1,5.769,5.75ZM6.671,35.692H31.594V34.338a2.562,2.562,0,0,0-.437-1.454A3.835,3.835,0,0,0,29.714,31.7,24.313,24.313,0,0,0,24.7,29.8a23.675,23.675,0,0,0-5.55-.569A23.749,23.749,0,0,0,13.6,29.8a24.271,24.271,0,0,0-5.017,1.9,3.966,3.966,0,0,0-1.458,1.185,2.507,2.507,0,0,0-.45,1.454ZM19.133,21.219a4.158,4.158,0,0,0,4.231-4.231,4.158,4.158,0,0,0-4.231-4.231A4.158,4.158,0,0,0,14.9,16.988a4.158,4.158,0,0,0,4.231,4.231Z" transform="translate(387.867 5665.781)"/>
  </g>
</svg>
