<svg xmlns="http://www.w3.org/2000/svg" width="74" height="74" viewBox="0 0 74 74">
  <g id="Group_8125" data-name="Group 8125" transform="translate(-740 -5463)">
    <circle id="Ellipse_91" data-name="Ellipse 91" cx="37" cy="37" r="37" transform="translate(740 5463)" fill="#fff"/>
    <path id="saas" d="M12.781,38a8.44,8.44,0,0,1-6.225-2.575A8.535,8.535,0,0,1,4,29.181a8.665,8.665,0,0,1,2.423-6.062A8.1,8.1,0,0,1,12.35,20.4,11.749,11.749,0,0,1,24.062,10.012a11.062,11.062,0,0,1,8.258,3.5,11.678,11.678,0,0,1,3.388,8.429v2.585h1.231a6.541,6.541,0,0,1,5,1.806,6.823,6.823,0,0,1,.077,9.69A6.51,6.51,0,0,1,37.242,38Zm0-1.538H37.242a5.2,5.2,0,0,0,3.7-8.877,5.033,5.033,0,0,0-3.7-1.523H34.169V21.938A10.121,10.121,0,0,0,31.2,14.585a9.773,9.773,0,0,0-7.258-3.035,9.811,9.811,0,0,0-7.244,3.035,10.077,10.077,0,0,0-3,7.354h-.989a6.872,6.872,0,0,0-5.077,2.117,7.069,7.069,0,0,0-2.092,5.163,6.977,6.977,0,0,0,2.123,5.119A6.977,6.977,0,0,0,12.781,36.461Z" transform="translate(753 5473.988)"/>
  </g>
</svg>
