<svg xmlns="http://www.w3.org/2000/svg" width="74" height="74" viewBox="0 0 74 74">
  <g id="Group_8130" data-name="Group 8130" transform="translate(-740 -5581)">
    <circle id="Ellipse_90" data-name="Ellipse 90" cx="37" cy="37" r="37" transform="translate(740 5581)" fill="#fff"/>
    <path id="native-ios" d="M14.769,44A2.759,2.759,0,0,1,12,41.231V6.769A2.759,2.759,0,0,1,14.769,4H33.231A2.759,2.759,0,0,1,36,6.769V41.231A2.759,2.759,0,0,1,33.231,44Zm-1.231-7.769v5a1.323,1.323,0,0,0,1.231,1.231H33.231a1.323,1.323,0,0,0,1.231-1.231v-5Zm10.471,4.4a1.265,1.265,0,0,0,.912-.376,1.236,1.236,0,0,0,.386-.921,1.255,1.255,0,0,0-.4-.932,1.278,1.278,0,0,0-.921-.387,1.233,1.233,0,0,0-.912.4,1.277,1.277,0,0,0-.386.921,1.216,1.216,0,0,0,.4.932A1.313,1.313,0,0,0,24.009,40.635ZM13.538,34.692H34.462V9.846H13.538Zm0-26.385H34.462V6.769a1.176,1.176,0,0,0-.385-.846,1.176,1.176,0,0,0-.846-.385H14.769a1.176,1.176,0,0,0-.846.385,1.176,1.176,0,0,0-.385.846Z" transform="translate(754 5594)"/>
  </g>
</svg>
