<svg xmlns="http://www.w3.org/2000/svg" width="74" height="74" viewBox="0 0 74 74">
  <g id="Group_8133" data-name="Group 8133" transform="translate(-1293 -5694)">
    <circle id="Ellipse_90" data-name="Ellipse 90" cx="37" cy="37" r="37" transform="translate(1293 5694)" fill="#fff"/>
    <path id="white_label" d="M24,42.539,11.123,32.861a2.372,2.372,0,0,1-.843-.954A2.842,2.842,0,0,1,10,30.654V7.769A2.759,2.759,0,0,1,12.769,5H35.231A2.759,2.759,0,0,1,38,7.769V30.654a2.842,2.842,0,0,1-.28,1.254,2.372,2.372,0,0,1-.843.954L24,42.538Zm0-1.981,11.962-9.077a1.073,1.073,0,0,0,.365-.423,1.273,1.273,0,0,0,.135-.577V7.769a1.176,1.176,0,0,0-.385-.846,1.176,1.176,0,0,0-.846-.385H12.769a1.176,1.176,0,0,0-.846.385,1.176,1.176,0,0,0-.385.846V30.481a1.273,1.273,0,0,0,.135.577,1.072,1.072,0,0,0,.365.423ZM21.9,27.615,31.815,17.7,30.7,16.638l-8.815,8.815-4.642-4.642-1.062,1.1ZM24,6.538h0Z" transform="translate(1305.869 5707.23)"/>
  </g>
</svg>
