<svg xmlns="http://www.w3.org/2000/svg" width="74" height="74" viewBox="0 0 74 74">
  <g id="Group_8135" data-name="Group 8135" transform="translate(-375 -5653)">
    <circle id="Ellipse_90" data-name="Ellipse 90" cx="37" cy="37" r="37" transform="translate(375 5653)" fill="#fff"/>
    <path id="web-portals" d="M4.308,38.922a.74.74,0,0,1-.549-.223.759.759,0,0,1-.22-.556.728.728,0,0,1,.22-.546.757.757,0,0,1,.549-.213H43.693a.741.741,0,0,1,.549.223.759.759,0,0,1,.22.556.728.728,0,0,1-.22.546.758.758,0,0,1-.549.213Zm4.461-4A2.759,2.759,0,0,1,6,32.153V11.691A2.759,2.759,0,0,1,8.77,8.922H39.231A2.759,2.759,0,0,1,42,11.691V32.153a2.759,2.759,0,0,1-2.769,2.769Zm0-1.539H39.231a1.324,1.324,0,0,0,1.231-1.231V11.691a1.324,1.324,0,0,0-1.231-1.231H8.77a1.324,1.324,0,0,0-1.231,1.231V32.153A1.324,1.324,0,0,0,8.77,33.383Z" transform="translate(388.461 5666.078)"/>
  </g>
</svg>
