<svg xmlns="http://www.w3.org/2000/svg" width="74" height="74" viewBox="0 0 74 74">
  <g id="Group_8132" data-name="Group 8132" transform="translate(-1006 -5694)">
    <circle id="Ellipse_90" data-name="Ellipse 90" cx="37" cy="37" r="37" transform="translate(1006 5694)" fill="#fff"/>
    <path id="mac-os" d="M31.4,5.912l-.03,1a7.927,7.927,0,0,1-1.953,4.823,7.562,7.562,0,0,1-2.326,1.836,6.271,6.271,0,0,1-2.382.721l-.877.062.021-.879a7.852,7.852,0,0,1,2.029-4.749l0,0,.083-.092.254-.282.014,0a8.608,8.608,0,0,1,4.179-2.25ZM25.61,12.477a5.827,5.827,0,0,0,.75-.324,5.927,5.927,0,0,0,1.825-1.433l.022-.026a6.679,6.679,0,0,0,1.4-2.671,7.063,7.063,0,0,0-2.521,1.765l-.13.148A6.855,6.855,0,0,0,25.61,12.477ZM30.734,14.7a8.7,8.7,0,0,1,6.748,2.867l.575.651-.73.544a8.929,8.929,0,0,0-1.359,1.267,7.754,7.754,0,0,0,.505,10.727,8.911,8.911,0,0,0,1.918,1.372l.618.326-.24.656c-.113.308-.241.628-.381.953a19.768,19.768,0,0,1-1.919,3.454l0,0a18.428,18.428,0,0,1-2.515,3.046,4.723,4.723,0,0,1-3.213,1.384,6.493,6.493,0,0,1-2.806-.681l-.071-.03a7.337,7.337,0,0,0-3.167-.711,7.815,7.815,0,0,0-3.254.734l-.107.044a6.7,6.7,0,0,1-2.752.69,4.429,4.429,0,0,1-3.035-1.341,21.348,21.348,0,0,1-2.694-3.229l0,0A21.706,21.706,0,0,1,9,25.507a11.079,11.079,0,0,1,2.9-7.98,8.874,8.874,0,0,1,6.34-2.731,9.249,9.249,0,0,1,3.338.781l.32.126.009,0c.367.145.746.294,1.089.408a4.159,4.159,0,0,0,1.239.244,4.125,4.125,0,0,0,1.239-.259c.313-.106.673-.245,1.022-.38l.01,0,.483-.186A10.533,10.533,0,0,1,30.734,14.7Zm4.959,3.336A7.316,7.316,0,0,0,30.734,16.3a9.113,9.113,0,0,0-3.176.725l-.472.181-.007,0c-.368.142-.745.288-1.091.405a5.581,5.581,0,0,1-1.75.342,5.661,5.661,0,0,1-1.741-.325c-.386-.127-.786-.285-1.173-.438l-.011,0L21,17.068a7.762,7.762,0,0,0-2.757-.672c-3.8,0-7.642,3.13-7.642,9.111a20.517,20.517,0,0,0,6.019,13.965,2.908,2.908,0,0,0,1.962.928,5.235,5.235,0,0,0,2.139-.568l.11-.045a9.483,9.483,0,0,1,3.864-.855,8.843,8.843,0,0,1,3.793.839l.069.03a4.926,4.926,0,0,0,2.181.554,3.168,3.168,0,0,0,2.142-.973A17.211,17.211,0,0,0,35.161,36.6a18.141,18.141,0,0,0,1.759-3.167q.053-.122.1-.243a10.53,10.53,0,0,1-1.646-1.264,9.114,9.114,0,0,1-2.922-6.791,9.258,9.258,0,0,1,2.305-6.15A10.414,10.414,0,0,1,35.693,18.038Z" transform="translate(1019 5707.088)"/>
  </g>
</svg>
