<svg id="billing-software-services" xmlns="http://www.w3.org/2000/svg" xmlns:xlink="http://www.w3.org/1999/xlink" width="45" height="45" viewBox="0 0 45 45">
  <defs>
    <linearGradient id="linear-gradient" x1="0.5" x2="0.156" y2="0.791" gradientUnits="objectBoundingBox">
      <stop offset="0" stop-color="#3e3e3e"/>
      <stop offset="1" stop-color="#1a1a1a"/>
    </linearGradient>
  </defs>
  <circle id="Ellipse_1" data-name="Ellipse 1" cx="22.5" cy="22.5" r="22.5" fill="url(#linear-gradient)"/>
  <g id="noun-billing-6912771" transform="translate(4.75 3.75)">
    <path id="Path_9198" data-name="Path 9198" d="M28.536,13.678H17.107a1.717,1.717,0,0,0-1.714,1.714v6.286a.572.572,0,0,0,1.143,0V15.392a.572.572,0,0,1,.571-.571H28.536a.572.572,0,0,1,.571.571V28.536a.572.572,0,0,1-.571.571H17.107a.572.572,0,0,1-.571-.571V25.678a.571.571,0,0,0-.571-.571H13.678a1.717,1.717,0,0,1-1.714-1.714V9.107a2.845,2.845,0,0,0-.054-.53c-.011-.055-.027-.106-.04-.16a3.154,3.154,0,0,0-.106-.342c-.023-.057-.046-.111-.072-.167h0a2.636,2.636,0,0,0-.164-.3c-.03-.048-.058-.1-.091-.142-.016-.023-.028-.048-.045-.071h12a2.287,2.287,0,0,1,2.285,2.285v1.143a.572.572,0,0,0,1.143,0V9.678A3.432,3.432,0,0,0,23.393,6.25H9.107a2.857,2.857,0,1,0,0,5.714,2.827,2.827,0,0,0,1.714-.586V23.393a2.86,2.86,0,0,0,2.856,2.858h1.714v2.285a1.717,1.717,0,0,0,1.714,1.714H28.536a1.717,1.717,0,0,0,1.714-1.714V15.392a1.717,1.717,0,0,0-1.714-1.714ZM9.107,10.822a1.715,1.715,0,1,1,1.714-1.714,1.716,1.716,0,0,1-1.714,1.714Z" fill="#fff"/>
    <path id="Path_9199" data-name="Path 9199" d="M58.2,46.239v-4a.572.572,0,0,0-.572-.571H48.489a.571.571,0,0,0-.571.571v4a.572.572,0,0,0,.571.572h9.142a.574.574,0,0,0,.572-.572Zm-1.143-.571h-8V42.81h8Z" transform="translate(-30.239 -25.703)" fill="#fff"/>
    <path id="Path_9200" data-name="Path 9200" d="M49.243,64.582h1.714a.307.307,0,0,1,.286.286v1.714a.286.286,0,0,1-.286.286H49.243a.307.307,0,0,1-.286-.286V64.868A.286.286,0,0,1,49.243,64.582Z" transform="translate(-30.993 -42.332)" fill="#fff"/>
    <path id="Path_9201" data-name="Path 9201" d="M62.786,64.582H64.5a.307.307,0,0,1,.286.286v1.714a.286.286,0,0,1-.286.286H62.786a.307.307,0,0,1-.286-.286V64.868A.286.286,0,0,1,62.786,64.582Z" transform="translate(-40.822 -42.332)" fill="#fff"/>
    <path id="Path_9202" data-name="Path 9202" d="M76.325,64.582h1.714a.307.307,0,0,1,.286.286v1.714a.286.286,0,0,1-.286.286H76.325a.307.307,0,0,1-.286-.286V64.868A.286.286,0,0,1,76.325,64.582Z" transform="translate(-50.647 -42.332)" fill="#fff"/>
    <path id="Path_9203" data-name="Path 9203" d="M49.243,77.082h1.714a.307.307,0,0,1,.286.286v1.714a.286.286,0,0,1-.286.286H49.243a.307.307,0,0,1-.286-.286V77.368A.286.286,0,0,1,49.243,77.082Z" transform="translate(-30.993 -51.404)" fill="#fff"/>
    <path id="Path_9204" data-name="Path 9204" d="M62.786,77.082H64.5a.307.307,0,0,1,.286.286v1.714a.286.286,0,0,1-.286.286H62.786a.307.307,0,0,1-.286-.286V77.368A.286.286,0,0,1,62.786,77.082Z" transform="translate(-40.822 -51.404)" fill="#fff"/>
    <path id="Path_9205" data-name="Path 9205" d="M76.325,77.082h1.714a.307.307,0,0,1,.286.286v1.714a.286.286,0,0,1-.286.286H76.325a.307.307,0,0,1-.286-.286V77.368A.286.286,0,0,1,76.325,77.082Z" transform="translate(-50.647 -51.404)" fill="#fff"/>
    <path id="Path_9206" data-name="Path 9206" d="M43.989,16.668h-8a.571.571,0,1,0,0,1.142h8a.571.571,0,1,0,0-1.142Z" transform="translate(-21.168 -7.561)" fill="#fff"/>
    <path id="Path_9207" data-name="Path 9207" d="M43.989,25h-8a.572.572,0,0,0,0,1.143h8a.572.572,0,0,0,0-1.143Z" transform="translate(-21.168 -13.607)" fill="#fff"/>
    <path id="Path_9208" data-name="Path 9208" d="M40.725,67.238a.572.572,0,0,1-1.143,0,.572.572,0,0,1,1.143,0" transform="translate(-24.19 -43.846)" fill="#fff"/>
    <path id="Path_9209" data-name="Path 9209" d="M78.225,27.656a.572.572,0,0,1-1.143,0,.572.572,0,0,1,1.143,0" transform="translate(-51.404 -15.12)" fill="#fff"/>
  </g>
</svg>
