<?xml version="1.0" encoding="UTF-8"?><svg id="Layer_1" xmlns="http://www.w3.org/2000/svg" viewBox="0 0 400 400"><path d="M186.88,395.78c-3.33-1.98-7-3.56-9.9-6.05-3.68-3.16-5.45-7.62-5.51-12.56-.07-6.23-.14-12.46-.03-18.69.2-11.18,7.9-19.23,19.08-19.73,6.22-.28,12.47-.28,18.69,0,11.18.5,18.87,8.55,19.09,19.73.11,5.72.09,11.45.01,17.17-.13,9.71-4.91,16.16-14.21,19.4-.45.16-.83.49-1.24.74h-25.98Z"/><path d="M193.33,242.77c0,12.48.02,24.96,0,37.44-.01,5.63-1.84,6.73-6.72,4.08-20.67-11.23-41.32-22.52-62.02-33.71-3.15-1.71-4.64-4.07-4.63-7.64.04-24.96,0-49.92.04-74.88,0-4.85,2.04-6.08,6.22-3.82,21.36,11.57,42.67,23.23,64.05,34.76,2.56,1.38,3.12,3.31,3.1,5.94-.07,12.61-.03,25.21-.03,37.82Z"/><path d="M206.42,242.19c0-12.35.06-24.7-.05-37.06-.03-2.99.84-4.89,3.63-6.39,20.84-11.2,41.58-22.56,62.37-33.86,5.76-3.13,7.4-2.13,7.41,4.54,0,24.07-.06,48.14.06,72.2.02,4.46-1.49,7.33-5.5,9.48-20.4,10.93-40.7,22.07-61.04,33.11-5.08,2.76-6.86,1.68-6.87-4.21-.02-12.61,0-25.21,0-37.82Z"/><path d="M199.76,110.23c1.67.66,3.26,1.11,4.68,1.88,20.68,11.21,41.35,22.44,61.96,33.76,1.29.71,2.99,2.34,2.91,3.43-.09,1.37-1.55,3.13-2.89,3.87-21.05,11.6-42.18,23.03-63.25,34.58-2.4,1.32-4.38,1.17-6.76-.13-20.84-11.44-41.76-22.74-62.59-34.21-1.48-.81-3.36-2.6-3.35-3.92.01-1.32,1.92-3.05,3.41-3.87,20.16-11.1,40.38-22.09,60.6-33.07,1.64-.89,3.43-1.52,5.28-2.33Z"/><path d="M361.48,88.56c3.05,0,6.11-.07,9.16,0,9.97.24,18.16,7.49,18.85,17.44.51,7.33.49,14.76,0,22.09-.63,9.22-7.84,16.5-17.04,17.13-7.46.51-15.02.53-22.47-.01-9.71-.71-16.96-8.94-17.16-18.71-.13-6.36-.14-12.72,0-19.07.23-10.32,8.46-18.54,18.75-18.86,3.3-.1,6.61-.02,9.92-.02Z"/><path d="M38.23,311.76c-3.05,0-6.11.07-9.16,0-9.94-.25-18.15-7.54-18.84-17.48-.51-7.33-.49-14.76.01-22.1.63-9.23,7.85-16.47,17.06-17.1,7.46-.51,15.02-.53,22.47.02,9.7.71,16.94,8.93,17.14,18.73.13,6.36.14,12.72,0,19.07-.25,10.32-8.47,18.52-18.77,18.84-3.3.1-6.61.02-9.92.02Z"/><path d="M332.79,283.04c0-3.05-.07-6.11,0-9.16.24-9.96,7.52-18.15,17.47-18.83,7.33-.5,14.76-.49,22.09.02,9.23.64,16.48,7.86,17.11,17.06.51,7.46.53,15.02-.02,22.47-.71,9.71-8.94,16.94-18.73,17.14-6.36.13-12.72.14-19.07,0-10.3-.24-18.53-8.5-18.84-18.78-.1-3.3-.02-6.61-.02-9.92Z"/><path d="M66.94,116.87c0,3.31.09,6.62-.01,9.92-.31,9.55-7.52,17.73-17.06,18.41-7.58.55-15.26.52-22.85-.01-8.81-.62-16.07-7.83-16.69-16.61-.54-7.71-.57-15.52.02-23.23.7-9.31,8.91-16.52,18.27-16.76,6.61-.17,13.23-.18,19.83,0,9.9.28,18.05,8.46,18.46,18.35.14,3.3.02,6.61.03,9.92Z"/><path d="M228.32,33.35c0,2.8.05,5.6,0,8.39-.24,11.07-7.62,19.13-18.63,19.78-6.59.39-13.24.41-19.82-.02-10.87-.72-18.21-8.71-18.42-19.57-.12-5.97-.13-11.96,0-17.93.25-11.22,8.5-19.31,19.75-19.44,5.85-.07,11.7-.08,17.55,0,11.02.16,19.2,8.23,19.55,19.25.1,3.18.02,6.36.02,9.54,0,0,.01,0,.02,0Z"/><path d="M161.02,56.76c.02,3.48-2.31,5.12-5.02,6.53-17.7,9.18-35.39,18.39-53.08,27.58-5.07,2.64-10.13,5.3-15.23,7.88-4.17,2.1-7.72,1.27-9.56-2.1-1.94-3.57-.62-7.26,3.55-9.43,22.97-11.98,45.95-23.95,68.96-35.87,5.36-2.78,10.44-.05,10.38,5.41Z"/><path d="M245.92,50.16c.74.28,2.21.69,3.54,1.37,22.77,11.81,45.53,23.64,68.28,35.51,4.49,2.34,5.87,5.97,3.85,9.61-1.94,3.49-5.43,4.22-9.89,1.91-22.88-11.88-45.75-23.78-68.61-35.7-3.76-1.96-5.18-4.69-4.14-8.01.93-2.97,3.01-4.63,6.99-4.69Z"/><path d="M84.4,300.31c.76.3,2.22.73,3.55,1.42,22.78,11.8,45.55,23.61,68.31,35.45,4.61,2.4,6,5.89,4,9.59-1.9,3.52-5.55,4.33-9.9,2.07-22.88-11.88-45.75-23.78-68.61-35.7-3.8-1.98-5.1-4.58-4.2-7.99.74-2.82,3.27-4.81,6.86-4.84Z"/><path d="M244.35,350.84c-1.65-1.47-3.91-2.75-5.04-4.69-1.43-2.46-.78-5.24,1.52-7.23.95-.82,2.11-1.4,3.24-1.98,21.96-11.45,43.93-22.88,65.9-34.31,1.35-.7,2.69-1.48,4.13-1.94,3.22-1.03,5.84.05,7.44,2.95,1.58,2.85,1.25,5.7-1.22,7.97-1.01.92-2.31,1.56-3.54,2.2-22.08,11.5-44.16,22.99-66.25,34.45-1.66.86-3.46,1.46-6.17,2.57Z"/><path d="M44.94,200.14c0,11.2.02,22.39-.01,33.59-.02,5.11-2.19,7.78-6.25,7.87-4.25.1-6.76-2.7-6.76-7.84-.03-22.52,0-45.04-.02-67.56,0-3.35,1.12-6.11,4.49-7.19,2.73-.87,5.53-.41,7.13,2.16.93,1.51,1.34,3.56,1.36,5.37.12,11.19.06,22.39.06,33.59Z"/><path d="M354.8,199.76c0-11.32-.05-22.65.02-33.97.03-4.73,2.81-7.39,7.02-7.05,3.62.29,5.89,2.83,5.95,7.09.11,6.61.03,13.23.03,19.85,0,16.03.02,32.06-.02,48.09-.01,4.84-2.18,7.56-6.01,7.83-4.2.29-6.96-2.39-6.99-7.1-.07-11.58-.02-23.15-.02-34.73Z"/><path d="M104.43,146.62c.03,6.02-4.47,9.32-8.92,7.3-5.2-2.37-10.24-5.11-15.19-7.96-2.99-1.72-3.8-5.4-2.32-8.34,1.51-2.98,4.93-4.54,8.09-3.05,5.39,2.55,10.68,5.36,15.8,8.41,1.41.84,2.07,2.92,2.54,3.63Z"/><path d="M295.41,145.89c.68-.74,1.82-2.65,3.51-3.65,4.48-2.65,9.14-5,13.82-7.3,3.65-1.79,7.12-.7,8.88,2.5,1.73,3.15.76,6.9-2.66,8.83-4.76,2.68-9.58,5.3-14.54,7.56-4.78,2.18-9.53-1.43-9.01-7.94Z"/><path d="M83.16,267.05c-1.82-1.68-4.23-3.05-5.32-5.11-1.4-2.65-.6-5.75,2.17-7.35,5.16-2.99,10.44-5.83,15.86-8.31,2.97-1.36,5.83-.27,7.55,2.66,1.64,2.81,1.9,6.15-.94,7.9-5.59,3.45-11.61,6.21-17.47,9.23-.32.17-.74.14-1.12.21-.24.26-.49.52-.73.78Z"/><path d="M302.3,245.81c.72.26,2.09.58,3.31,1.2,4.2,2.12,8.37,4.29,12.5,6.54,4.01,2.18,5.35,5.72,3.62,9.15-1.75,3.47-5.45,4.49-9.49,2.45-4.65-2.35-9.27-4.77-13.83-7.29-2.82-1.56-3.74-4.19-2.87-7.19.85-2.91,2.83-4.79,6.76-4.85Z"/><path d="M206.41,316.42c0,6.3-2.08,9.18-6.58,9.15-4.87-.03-6.81-3.34-6.5-11.13.2-5.06,2.74-7.68,7.14-7.35,4.29.32,5.95,2.93,5.94,9.33Z"/><path d="M206.41,84.07c0,6.49-2.16,9.36-6.87,9.17-4.47-.18-6.23-2.86-6.21-9.45.01-6.1,1.97-8.9,6.3-9.04,4.62-.15,6.79,2.83,6.79,9.32Z"/></svg>