<svg xmlns="http://www.w3.org/2000/svg" width="60" height="60" viewBox="0 0 60 60">
  <g id="Group_73" data-name="Group 73" transform="translate(-930 -510)">
    <circle id="Ellipse_14" data-name="Ellipse 14" cx="30" cy="30" r="30" transform="translate(930 510)" fill="#fff2e8"/>
    <g id="budget-cost-svgrepo-com" transform="translate(896.18 523.859)">
      <g id="Group_21" data-name="Group 21" transform="translate(53.946 2.64)">
        <g id="Group_20" data-name="Group 20" transform="translate(0)">
          <path id="Path_9292" data-name="Path 9292" d="M96.635,46.071v-1.72c.365.12.594.36.594.583a.5.5,0,1,0,.99,0,1.756,1.756,0,0,0-1.584-1.6v-.079a.5.5,0,0,0-.99,0v.079a1.756,1.756,0,0,0-1.584,1.6,2.012,2.012,0,0,0,1.584,1.833v1.72c-.365-.12-.594-.36-.594-.583a.5.5,0,0,0-.99,0,1.756,1.756,0,0,0,1.584,1.6v.079a.5.5,0,1,0,.99,0v-.079a1.756,1.756,0,0,0,1.584-1.6A2.012,2.012,0,0,0,96.635,46.071Zm-.99-.384c-.494-.242-.594-.453-.594-.753,0-.223.229-.464.594-.583Zm.99,2.8V47.151c.494.242.594.453.594.753C97.229,48.128,97,48.368,96.635,48.488Z" transform="translate(-94.061 -42.756)" fill="#f48120"/>
        </g>
      </g>
      <g id="Group_23" data-name="Group 23" transform="translate(59.227 3.696)">
        <g id="Group_22" data-name="Group 22" transform="translate(0)">
          <path id="Path_9293" data-name="Path 9293" d="M184.293,59.858h-4.224a.5.5,0,0,0,0,.99h4.224a.5.5,0,0,0,0-.99Z" transform="translate(-179.574 -59.858)" fill="#f48120"/>
        </g>
      </g>
      <g id="Group_25" data-name="Group 25" transform="translate(59.227 7.921)">
        <g id="Group_24" data-name="Group 24" transform="translate(0)">
          <path id="Path_9294" data-name="Path 9294" d="M180.6,128.268h-.528a.5.5,0,0,0,0,.99h.528a.5.5,0,0,0,0-.99Z" transform="translate(-179.574 -128.268)" fill="#f48120"/>
        </g>
      </g>
      <g id="Group_27" data-name="Group 27" transform="translate(53.946 11.617)">
        <g id="Group_26" data-name="Group 26" transform="translate(0)">
          <path id="Path_9295" data-name="Path 9295" d="M109.342,188.124H94.557a.5.5,0,1,0,0,.99h14.785a.5.5,0,1,0,0-.99Z" transform="translate(-94.062 -188.124)" fill="#f48120"/>
        </g>
      </g>
      <g id="Group_29" data-name="Group 29" transform="translate(57.114 14.785)">
        <g id="Group_28" data-name="Group 28" transform="translate(0)">
          <path id="Path_9296" data-name="Path 9296" d="M147.447,239.431h-1.584a.5.5,0,1,0,0,.99h1.584a.5.5,0,1,0,0-.99Z" transform="translate(-145.368 -239.431)" fill="#f48120"/>
        </g>
      </g>
      <g id="Group_31" data-name="Group 31" transform="translate(53.946 14.785)">
        <g id="Group_30" data-name="Group 30" transform="translate(0)">
          <path id="Path_9297" data-name="Path 9297" d="M95.613,239.431H94.557a.5.5,0,1,0,0,.99h1.056a.5.5,0,1,0,0-.99Z" transform="translate(-94.062 -239.431)" fill="#f48120"/>
        </g>
      </g>
      <g id="Group_33" data-name="Group 33" transform="translate(57.114 16.897)">
        <g id="Group_32" data-name="Group 32" transform="translate(0)">
          <path id="Path_9298" data-name="Path 9298" d="M147.447,273.636h-1.584a.5.5,0,1,0,0,.99h1.584a.5.5,0,1,0,0-.99Z" transform="translate(-145.368 -273.636)" fill="#f48120"/>
        </g>
      </g>
      <g id="Group_35" data-name="Group 35" transform="translate(53.946 16.897)">
        <g id="Group_34" data-name="Group 34" transform="translate(0)">
          <path id="Path_9299" data-name="Path 9299" d="M95.613,273.636H94.557a.5.5,0,1,0,0,.99h1.056a.5.5,0,1,0,0-.99Z" transform="translate(-94.062 -273.636)" fill="#f48120"/>
        </g>
      </g>
      <g id="Group_37" data-name="Group 37" transform="translate(57.114 19.009)">
        <g id="Group_36" data-name="Group 36" transform="translate(0)">
          <path id="Path_9300" data-name="Path 9300" d="M147.447,307.841h-1.584a.5.5,0,1,0,0,.99h1.584a.5.5,0,1,0,0-.99Z" transform="translate(-145.368 -307.841)" fill="#f48120"/>
        </g>
      </g>
      <g id="Group_39" data-name="Group 39" transform="translate(53.946 19.009)">
        <g id="Group_38" data-name="Group 38" transform="translate(0)">
          <path id="Path_9301" data-name="Path 9301" d="M95.613,307.841H94.557a.5.5,0,1,0,0,.99h1.056a.5.5,0,1,0,0-.99Z" transform="translate(-94.062 -307.841)" fill="#f48120"/>
        </g>
      </g>
      <g id="Group_41" data-name="Group 41" transform="translate(57.114 21.121)">
        <g id="Group_40" data-name="Group 40" transform="translate(0)">
          <path id="Path_9302" data-name="Path 9302" d="M147.447,342.045h-1.584a.5.5,0,1,0,0,.99h1.584a.5.5,0,1,0,0-.99Z" transform="translate(-145.368 -342.045)" fill="#f48120"/>
        </g>
      </g>
      <g id="Group_43" data-name="Group 43" transform="translate(53.946 21.121)">
        <g id="Group_42" data-name="Group 42" transform="translate(0)">
          <path id="Path_9303" data-name="Path 9303" d="M95.613,342.045H94.557a.5.5,0,1,0,0,.99h1.056a.5.5,0,1,0,0-.99Z" transform="translate(-94.062 -342.045)" fill="#f48120"/>
        </g>
      </g>
      <g id="Group_45" data-name="Group 45" transform="translate(57.114 23.233)">
        <g id="Group_44" data-name="Group 44" transform="translate(0)">
          <path id="Path_9304" data-name="Path 9304" d="M147.447,376.25h-1.584a.5.5,0,1,0,0,.99h1.584a.5.5,0,1,0,0-.99Z" transform="translate(-145.368 -376.25)" fill="#f48120"/>
        </g>
      </g>
      <g id="Group_47" data-name="Group 47" transform="translate(53.946 23.233)">
        <g id="Group_46" data-name="Group 46" transform="translate(0)">
          <path id="Path_9305" data-name="Path 9305" d="M95.613,376.25H94.557a.5.5,0,1,0,0,.99h1.056a.5.5,0,1,0,0-.99Z" transform="translate(-94.062 -376.25)" fill="#f48120"/>
        </g>
      </g>
      <g id="Group_49" data-name="Group 49" transform="translate(64.507 7.921)">
        <g id="Group_48" data-name="Group 48">
          <path id="Path_9306" data-name="Path 9306" d="M266.109,128.268h-.528a.5.5,0,1,0,0,.99h.528a.5.5,0,1,0,0-.99Z" transform="translate(-265.086 -128.268)" fill="#f48120"/>
        </g>
      </g>
      <g id="Group_51" data-name="Group 51" transform="translate(67.147 7.921)">
        <g id="Group_50" data-name="Group 50" transform="translate(0)">
          <path id="Path_9307" data-name="Path 9307" d="M308.864,128.268h-.528a.5.5,0,1,0,0,.99h.528a.5.5,0,1,0,0-.99Z" transform="translate(-307.841 -128.268)" fill="#f48120"/>
        </g>
      </g>
      <g id="Group_53" data-name="Group 53" transform="translate(61.867 7.921)">
        <g id="Group_52" data-name="Group 52">
          <path id="Path_9308" data-name="Path 9308" d="M223.353,128.268h-.528a.5.5,0,0,0,0,.99h.528a.5.5,0,0,0,0-.99Z" transform="translate(-222.33 -128.268)" fill="#f48120"/>
        </g>
      </g>
      <g id="Group_55" data-name="Group 55" transform="translate(59.226 5.808)">
        <g id="Group_54" data-name="Group 54" transform="translate(0)">
          <path id="Path_9309" data-name="Path 9309" d="M185.348,94.063h-5.28a.5.5,0,1,0,0,.99h5.28a.5.5,0,1,0,0-.99Z" transform="translate(-179.573 -94.063)" fill="#f48120"/>
        </g>
      </g>
      <g id="Group_57" data-name="Group 57" transform="translate(49.82 -1.859)">
        <g id="Group_56" data-name="Group 56" transform="translate(0)">
          <path id="Path_9310" data-name="Path 9310" d="M77.234,15.343h-2.4V6.454a.553.553,0,0,0-.162-.391l-5.9-5.9A.553.553,0,0,0,68.383,0H53.039a1.735,1.735,0,0,0-1.733,1.733V30.059a1.735,1.735,0,0,0,1.733,1.733h8.889V33.01a2.326,2.326,0,0,0,2.324,2.324H77.234a2.326,2.326,0,0,0,2.324-2.324V17.667A2.326,2.326,0,0,0,77.234,15.343Zm-8.3-13.454L72.948,5.9h-2.8a1.219,1.219,0,0,1-1.217-1.217ZM61.928,17.667V30.686H53.039a.628.628,0,0,1-.627-.627V1.733a.628.628,0,0,1,.627-.627h14.79V4.684a2.326,2.326,0,0,0,2.324,2.324h3.578v8.335H64.252A2.326,2.326,0,0,0,61.928,17.667ZM78.452,33.01a1.219,1.219,0,0,1-1.217,1.217H64.252a1.219,1.219,0,0,1-1.217-1.217V17.667a1.219,1.219,0,0,1,1.217-1.217H77.234a1.219,1.219,0,0,1,1.217,1.217Z" transform="translate(-51.306 0)" fill="#f48120"/>
        </g>
      </g>
      <g id="Group_59" data-name="Group 59" transform="translate(62.923 15.841)">
        <g id="Group_58" data-name="Group 58">
          <path id="Path_9311" data-name="Path 9311" d="M249.96,256.533h-9.5a1.024,1.024,0,0,0-1.023,1.023v2.112a1.024,1.024,0,0,0,1.023,1.023h9.5a1.024,1.024,0,0,0,1.023-1.023v-2.112A1.024,1.024,0,0,0,249.96,256.533Zm.033,3.135a.033.033,0,0,1-.033.033h-9.5a.033.033,0,0,1-.033-.033v-2.112a.033.033,0,0,1,.033-.033h9.5a.033.033,0,0,1,.033.033v2.112Z" transform="translate(-239.432 -256.533)" fill="#f48120"/>
        </g>
      </g>
      <g id="Group_61" data-name="Group 61" transform="translate(62.923 21.649)">
        <g id="Group_60" data-name="Group 60">
          <path id="Path_9312" data-name="Path 9312" d="M241.511,350.6h-1.056a1.024,1.024,0,0,0-1.023,1.023v1.056a1.024,1.024,0,0,0,1.023,1.023h1.056a1.024,1.024,0,0,0,1.023-1.023v-1.056A1.024,1.024,0,0,0,241.511,350.6Zm.033,2.079a.033.033,0,0,1-.033.033h-1.056a.033.033,0,0,1-.033-.033v-1.056a.033.033,0,0,1,.033-.033h1.056a.033.033,0,0,1,.033.033v1.056Z" transform="translate(-239.432 -350.596)" fill="#f48120"/>
        </g>
      </g>
      <g id="Group_63" data-name="Group 63" transform="translate(71.371 21.649)">
        <g id="Group_62" data-name="Group 62" transform="translate(0)">
          <path id="Path_9313" data-name="Path 9313" d="M378.33,350.6h-1.056a1.024,1.024,0,0,0-1.023,1.023v1.056a1.024,1.024,0,0,0,1.023,1.023h1.056a1.024,1.024,0,0,0,1.023-1.023v-1.056A1.024,1.024,0,0,0,378.33,350.6Zm.033,2.079a.033.033,0,0,1-.033.033h-1.056a.033.033,0,0,1-.033-.033v-1.056a.033.033,0,0,1,.033-.033h1.056a.033.033,0,0,1,.033.033Z" transform="translate(-376.251 -350.596)" fill="#f48120"/>
        </g>
      </g>
      <g id="Group_65" data-name="Group 65" transform="translate(67.147 21.649)">
        <g id="Group_64" data-name="Group 64" transform="translate(0)">
          <path id="Path_9314" data-name="Path 9314" d="M309.921,350.6h-1.056a1.024,1.024,0,0,0-1.023,1.023v1.056a1.024,1.024,0,0,0,1.023,1.023h1.056a1.024,1.024,0,0,0,1.023-1.023v-1.056A1.024,1.024,0,0,0,309.921,350.6Zm.033,2.079a.033.033,0,0,1-.033.033h-1.056a.033.033,0,0,1-.033-.033v-1.056a.033.033,0,0,1,.033-.033h1.056a.033.033,0,0,1,.033.033Z" transform="translate(-307.842 -350.596)" fill="#f48120"/>
        </g>
      </g>
      <g id="Group_67" data-name="Group 67" transform="translate(62.923 25.874)">
        <g id="Group_66" data-name="Group 66">
          <path id="Path_9315" data-name="Path 9315" d="M241.511,419.006h-1.056a1.024,1.024,0,0,0-1.023,1.023v1.056a1.024,1.024,0,0,0,1.023,1.023h1.056a1.024,1.024,0,0,0,1.023-1.023v-1.056A1.024,1.024,0,0,0,241.511,419.006Zm.033,2.079a.033.033,0,0,1-.033.033h-1.056a.033.033,0,0,1-.033-.033v-1.056a.033.033,0,0,1,.033-.033h1.056a.033.033,0,0,1,.033.033v1.056Z" transform="translate(-239.432 -419.006)" fill="#f48120"/>
        </g>
      </g>
      <g id="Group_69" data-name="Group 69" transform="translate(71.371 25.874)">
        <g id="Group_68" data-name="Group 68" transform="translate(0)">
          <path id="Path_9316" data-name="Path 9316" d="M378.33,419.006h-1.056a1.024,1.024,0,0,0-1.023,1.023v1.056a1.024,1.024,0,0,0,1.023,1.023h1.056a1.024,1.024,0,0,0,1.023-1.023v-1.056A1.024,1.024,0,0,0,378.33,419.006Zm.033,2.079a.033.033,0,0,1-.033.033h-1.056a.033.033,0,0,1-.033-.033v-1.056a.033.033,0,0,1,.033-.033h1.056a.033.033,0,0,1,.033.033Z" transform="translate(-376.251 -419.006)" fill="#f48120"/>
        </g>
      </g>
      <g id="Group_71" data-name="Group 71" transform="translate(67.147 25.874)">
        <g id="Group_70" data-name="Group 70" transform="translate(0)">
          <path id="Path_9317" data-name="Path 9317" d="M309.921,419.006h-1.056a1.024,1.024,0,0,0-1.023,1.023v1.056a1.024,1.024,0,0,0,1.023,1.023h1.056a1.024,1.024,0,0,0,1.023-1.023v-1.056A1.024,1.024,0,0,0,309.921,419.006Zm.033,2.079a.033.033,0,0,1-.033.033h-1.056a.033.033,0,0,1-.033-.033v-1.056a.033.033,0,0,1,.033-.033h1.056a.033.033,0,0,1,.033.033Z" transform="translate(-307.842 -419.006)" fill="#f48120"/>
        </g>
      </g>
    </g>
  </g>
</svg>
