<svg width="64" height="64" viewBox="0 0 64 64" fill="none" xmlns="http://www.w3.org/2000/svg">
<g clip-path="url(#clip0_3_195)">
<mask id="mask0_3_195" style="mask-type:luminance" maskUnits="userSpaceOnUse" x="0" y="0" width="64" height="64">
<path d="M64 0H0V64H64V0Z" fill="white"/>
</mask>
<g mask="url(#mask0_3_195)">
<path d="M32 64C49.6731 64 64 49.6731 64 32C64 14.3269 49.6731 0 32 0C14.3269 0 0 14.3269 0 32C0 49.6731 14.3269 64 32 64Z" fill="#F48120"/>
<g clip-path="url(#clip1_3_195)">
<path fill-rule="evenodd" clip-rule="evenodd" d="M45.1562 44.4375C41.4062 44.4375 38.3125 41.4375 38.3125 37.5938C38.3125 33.8438 41.4062 30.75 45.1562 30.75C48.9062 30.75 52 33.8438 52 37.5938C52 41.4375 48.9062 44.4375 45.1562 44.4375ZM45.1562 32.0625C42.1562 32.0625 39.625 34.5938 39.625 37.5938C39.625 40.6875 42.1562 43.125 45.1562 43.125C48.1562 43.125 50.6875 40.6875 50.6875 37.5938C50.6875 34.5938 48.1562 32.0625 45.1562 32.0625Z" fill="white"/>
<path fill-rule="evenodd" clip-rule="evenodd" d="M47.875 50.4375H43.8438C43.4688 50.4375 43.0938 50.1562 43.0938 49.7812C43.0938 49.3125 43.4688 49.0312 43.8438 49.0312H47.2188V45.5625C47.2188 45.375 47.3125 45.0938 47.5938 45L47.875 44.9062C48.1562 44.7188 48.3438 44.625 48.625 44.5312C48.9062 44.4375 49.1875 44.4375 49.375 44.625L51.8125 47.0625L54.7188 44.25L52.2812 41.8125C52.0938 41.625 52 41.25 52.1875 40.9688C52.2812 40.6875 52.375 40.4062 52.5625 40.0312C52.6562 39.75 52.8438 39.5625 53.2188 39.5625H56.6875V35.625H53.2188C52.8438 35.625 52.6562 35.3438 52.5625 35.1562C52.375 34.7812 52.2812 34.4062 52.1875 34.2188C52 33.9375 52.0938 33.5625 52.2812 33.375L54.7188 30.9375L51.9062 28.0312L49.4688 30.4688C49.2812 30.6562 48.9062 30.75 48.625 30.6562C48.4375 30.4688 48.0625 30.375 47.7812 30.1875C47.5 30.1875 47.3125 29.9062 47.3125 29.5312V26.0625H43.1875V29.625C43.1875 29.9062 43 30.1875 42.7188 30.2812C42.3438 30.375 42.0625 30.4688 41.7812 30.6562C41.5 30.75 41.2188 30.75 40.9375 30.5625L38.5 28.0312L35.5938 30.9375L38.125 33.375C38.3125 33.5625 38.4062 33.9375 38.2188 34.2188C38.125 34.4062 37.9375 34.6875 37.8438 34.9688L37.75 35.1562C37.6562 35.4375 37.4688 35.625 37.1875 35.625H33.7188V36.75C33.7188 37.125 33.3438 37.4062 32.9688 37.4062C32.5938 37.4062 32.3125 37.125 32.3125 36.75V34.9688C32.3125 34.5938 32.5938 34.2188 32.9688 34.2188H36.7188C36.7188 34.2188 36.7188 34.125 36.8125 34.0312L34.1875 31.5C34 31.4062 34 31.125 34 31.0312C34 30.8438 34 30.6562 34.1875 30.5625L37.9375 26.7188C38.125 26.5312 38.3125 26.5312 38.4062 26.5312C38.6875 26.5312 38.7812 26.5312 38.875 26.7188L41.5938 29.25C41.6875 29.1562 41.6875 29.1562 41.7812 29.1562V25.5C41.7812 25.125 42.0625 24.75 42.4375 24.75H47.875C48.25 24.75 48.625 25.125 48.625 25.5V29.1562C48.625 29.1562 48.7188 29.1562 48.8125 29.25L51.3438 26.625C51.4375 26.5312 51.7188 26.4375 51.8125 26.4375C52 26.4375 52.1875 26.5312 52.2812 26.625L56.125 30.4688C56.3125 30.5625 56.3125 30.75 56.3125 30.9375C56.3125 31.125 56.3125 31.3125 56.125 31.4062L53.5938 33.9375C53.5938 34.0312 53.5938 34.125 53.5938 34.2188H57.25C57.7188 34.2188 58 34.5 58 34.875V40.3125C58 40.6875 57.7188 40.9688 57.25 40.9688H53.6875C53.5938 41.0625 53.5938 41.1562 53.5938 41.1562L56.2188 43.7812C56.3125 43.9688 56.4062 44.1562 56.4062 44.25C56.4062 44.4375 56.3125 44.625 56.2188 44.7188L52.375 48.5625C52.1875 48.6562 52 48.75 51.9062 48.75C51.7188 48.75 51.5312 48.6562 51.4375 48.5625L48.8125 46.0312C48.7188 46.0312 48.625 46.0312 48.625 46.0312V49.7812C48.625 50.1562 48.25 50.4375 47.875 50.4375Z" fill="white"/>
<path fill-rule="evenodd" clip-rule="evenodd" d="M27.3438 33.1875C25.2812 33.1875 23.2188 32.625 22.0938 31.5C21.0625 30.4688 19.5625 28.125 18.8125 26.8125C18.3438 25.875 17.9688 25.5 17.5938 25.125C16.8438 24.2812 16.5625 23.8125 16.5625 21.5625C16.5625 21.1875 16.75 20.8125 17.0312 20.625C17.3125 20.3438 17.5938 20.25 17.9688 20.25V18.6562C17.9688 18.2812 18.25 17.9062 18.625 17.9062C19 17.9062 19.375 18.2812 19.375 18.6562V21C19.375 21.1875 19.2812 21.375 19.0938 21.5625C18.9062 21.6562 18.7188 21.75 18.5312 21.6562C18.3438 21.6562 18.1562 21.6562 17.9688 21.6562C17.9688 23.5312 18.1562 23.7188 18.625 24.2812C19 24.6562 19.4688 25.125 20.0312 26.1562C21.25 28.3125 22.375 29.9062 23.0312 30.6562C24.7188 32.25 30.0625 32.25 31.75 30.6562C32.4062 30 33.5312 28.3125 34.75 26.1562C35.4062 25.125 35.875 24.6562 36.1562 24.2812C36.625 23.7188 36.8125 23.625 36.8125 21.75C36.7188 21.6562 36.4375 21.75 36.25 21.75C36.0625 21.75 35.875 21.75 35.6875 21.5625C35.5 21.4688 35.4062 21.2812 35.4062 21V18.6562C35.4062 18.2812 35.7812 18 36.1562 18C36.5312 18 36.8125 18.2812 36.8125 18.6562V20.25C37.1875 20.25 37.4688 20.3438 37.75 20.5312C38.0312 20.8125 38.2188 21.1875 38.2188 21.4688C38.2188 23.8125 37.9375 24.2812 37.1875 25.125C36.8125 25.4062 36.4375 25.7812 35.9688 26.7188C35.125 28.0312 33.7188 30.4688 32.6875 31.4062C31.5625 32.625 29.5 33.1875 27.3438 33.1875Z" fill="white"/>
<path fill-rule="evenodd" clip-rule="evenodd" d="M38.2188 19.3125H16.5625C16.0938 19.3125 15.8125 19.0312 15.8125 18.5625V15.6562C15.8125 15.2812 16.0938 15 16.5625 15H24.3438C24.7188 15 25.0938 15.2812 25.0938 15.6562C25.0938 16.0312 24.7188 16.3125 24.3438 16.3125H17.2188V17.9062H37.5625V16.4062H30.4375C30.0625 16.4062 29.6875 16.0312 29.6875 15.75C29.6875 15.375 30.0625 15 30.4375 15H38.2188C38.6875 15 38.9688 15.375 38.9688 15.75V18.6562C38.875 19.0312 38.5938 19.3125 38.2188 19.3125Z" fill="white"/>
<path fill-rule="evenodd" clip-rule="evenodd" d="M35.3125 16.4062C34.9375 16.4062 34.6563 16.0312 34.6563 15.75C34.6563 11.7188 31.375 8.4375 27.3438 8.4375C23.4063 8.4375 20.125 11.625 20.125 15.6562C20.125 16.0312 19.8438 16.3125 19.375 16.3125C19 16.3125 18.7188 16.0312 18.7188 15.6562C18.7188 10.875 22.5625 7.03125 27.25 7.03125C32.0313 7.03125 35.875 10.875 35.875 15.6562C35.9688 16.0312 35.6875 16.4062 35.3125 16.4062Z" fill="white"/>
<path fill-rule="evenodd" clip-rule="evenodd" d="M27.3438 19.3125C25.375 19.3125 23.6875 17.625 23.6875 15.5625C23.6875 13.5 25.2812 11.9062 27.3438 11.9062C29.4062 11.9062 31.0938 13.5938 31.0938 15.5625C31.0938 17.625 29.4062 19.3125 27.3438 19.3125ZM27.3438 13.2188C26.125 13.2188 25 14.3438 25 15.5625C25 16.875 26.125 17.9062 27.3438 17.9062C28.6562 17.9062 29.6875 16.875 29.6875 15.5625C29.6875 14.3438 28.6562 13.2188 27.3438 13.2188Z" fill="white"/>
<path fill-rule="evenodd" clip-rule="evenodd" d="M27.3438 13.2188C26.9688 13.2188 26.6875 12.9375 26.6875 12.5625V7.6875C26.6875 7.3125 26.9688 6.9375 27.3438 6.9375C27.7188 6.9375 28.0938 7.3125 28.0938 7.6875V12.5625C28 13.0312 27.7188 13.2188 27.3438 13.2188Z" fill="white"/>
<path fill-rule="evenodd" clip-rule="evenodd" d="M44.0312 53.0625C43.6562 53.0625 43.2812 52.6875 43.2812 52.3125C43.2812 44.7187 37.9375 38.1562 30.4375 36.6562C30.0625 36.5625 29.875 36.2812 29.875 35.8125C29.9688 35.5312 30.3438 35.25 30.7188 35.3437C38.875 36.9375 44.6875 44.0625 44.6875 52.3125C44.6875 52.6875 44.4062 53.0625 44.0312 53.0625ZM10.75 53.0625C10.2812 53.0625 10 52.6875 10 52.3125C10 44.0625 15.9062 36.9375 23.9688 35.3437C24.3438 35.25 24.7188 35.4375 24.8125 35.8125C24.9062 36.1875 24.7188 36.5625 24.25 36.6562C16.75 38.1562 11.4062 44.7187 11.4062 52.3125C11.4062 52.6875 11.125 53.0625 10.75 53.0625Z" fill="white"/>
<path fill-rule="evenodd" clip-rule="evenodd" d="M27.3438 39.9375C25.1875 39.9375 23.5 38.1562 23.5 36V31.9688C23.5 31.5938 23.7812 31.2188 24.1562 31.2188C24.5312 31.2188 24.9062 31.5938 24.9062 31.9688V36C24.9062 37.4062 26.0312 38.5312 27.4375 38.5312C28.8438 38.5312 29.9688 37.4062 29.9688 36V31.9688C29.9688 31.5938 30.25 31.2188 30.625 31.2188C31 31.2188 31.375 31.5938 31.375 31.9688V36C31.2812 38.1562 29.5 39.9375 27.3438 39.9375Z" fill="white"/>
<path fill-rule="evenodd" clip-rule="evenodd" d="M44.0312 53.0625H10.75C10.2812 53.0625 10 52.6875 10 52.3125C10 51.9375 10.2812 51.6562 10.75 51.6562H44.0312C44.4062 51.6562 44.6875 51.9375 44.6875 52.3125C44.6875 52.6875 44.4062 53.0625 44.0312 53.0625Z" fill="white"/>
<path fill-rule="evenodd" clip-rule="evenodd" d="M20.0312 53.0625H16.375C16 53.0625 15.7188 52.6875 15.7188 52.3125V39.75C15.7188 39.375 16 39.0938 16.375 39.0938C16.75 39.0938 17.125 39.375 17.125 39.75V51.6562H19.375V37.4062C19.375 36.9375 19.6562 36.6562 20.0312 36.6562C20.4062 36.6562 20.6875 36.9375 20.6875 37.4062V52.3125C20.6875 52.6875 20.4062 53.0625 20.0312 53.0625Z" fill="white"/>
<path fill-rule="evenodd" clip-rule="evenodd" d="M38.3125 53.0625H34.6562C34.2812 53.0625 34 52.6875 34 52.3125V37.4062C34 36.9375 34.2812 36.6562 34.6562 36.6562C35.125 36.6562 35.4062 36.9375 35.4062 37.4062V51.6562H37.6562V39.75C37.6562 39.375 37.9375 39.0938 38.4062 39.0938C38.7812 39.0938 39.0625 39.375 39.0625 39.75V52.3125C39.0625 52.6875 38.6875 53.0625 38.3125 53.0625Z" fill="white"/>
</g>
</g>
</g>
<defs>
<clipPath id="clip0_3_195">
<rect width="64" height="64" fill="white"/>
</clipPath>
<clipPath id="clip1_3_195">
<rect width="48" height="48" fill="white" transform="translate(10 6)"/>
</clipPath>
</defs>
</svg>
