<svg xmlns="http://www.w3.org/2000/svg" enable-background="new 0 0 512 512" viewBox="0 0 512 512" width="256" height="256"><path fill="none" d="M439.791,198.189c-5.375-94.755-83.562-170.834-178.206-173.619
			C157.312,21.502,71.904,105.231,71.904,208.982c0,61.133,29.626,115.275,75.27,148.847c21.869,16.085,34.956,41.49,34.956,68.678
			v1.268c0,10.538,8.523,19.081,19.036,19.081h109.671c10.513,0,19.036-8.543,19.036-19.081v-1.212
			c0-27.555,13.694-52.899,35.768-69.324C413.474,321.649,443.487,263.353,439.791,198.189z" class="colorfff svgShape"></path><path fill="none" d="M290.565,452.878c0,19.125-15.472,34.633-34.576,34.633c-19.08,0-34.552-15.508-34.552-34.633" class="color5656d3 svgShape"></path><path fill="none" d="M223.332,91.162c-15.267,0-28.065,10.364-31.756,24.389c-1.498-0.19-3.014-0.321-4.564-0.321
			c-19.74,0-35.743,15.907-35.743,35.528c0,5.372,1.234,10.446,3.382,15.011c-15.222,4.074-26.442,17.852-26.442,34.27
			c0,15.573,10.095,28.772,24.123,33.57c-1.415,5.043-2.216,10.526-2.216,16.284c0,24.369,13.938,44.124,31.131,44.124
			c4.51,0,8.784-1.388,12.653-3.832c3.636,13.422,15.933,23.316,30.585,23.316c17.512,0,31.708-14.111,31.708-31.517V123.825
			C256.193,105.785,241.48,91.162,223.332,91.162z" class="colore3e3e3 svgShape"></path><path fill="none" d="M288.669,313.499c15.267,0,28.065-10.364,31.756-24.389c1.498,0.19,3.014,0.321,4.564,0.321
			c19.74,0,35.743-15.907,35.743-35.528c0-5.372-1.234-10.446-3.382-15.011c15.222-4.074,26.442-17.852,26.442-34.27
			c0-15.572-10.095-28.772-24.123-33.57c1.415-5.043,2.216-10.526,2.216-16.284c0-24.369-13.938-44.124-31.131-44.124
			c-4.51,0-8.784,1.388-12.653,3.832c-3.636-13.422-15.933-23.316-30.585-23.316c-17.512,0-31.708,14.111-31.708,31.517v158.158
			C255.809,298.875,270.521,313.499,288.669,313.499z" class="colore3e3e3 svgShape"></path><path fill="#fff" d="M255.987,494.746c22.647,0,41.101-18.133,41.75-40.655h13.099
			c14.488,0,26.273-11.806,26.273-26.315v-1.211c0-24.834,11.973-47.984,32.848-63.518c51.929-38.639,80.736-100.42,77.057-165.266
			c-5.577-98.291-86.93-177.55-185.216-180.442c-108.055-3.17-197.128,83.327-197.128,191.645
			c0,60.829,29.24,118.652,78.216,154.675c20.042,14.74,32.005,38.234,32.005,62.849v1.267c0,14.509,11.785,26.315,26.273,26.315
			h13.099C214.913,476.613,233.358,494.746,255.987,494.746z M178.886,384.072h154.285c-3.357,6.375-5.946,13.099-7.716,20.07
			H186.541C184.775,397.173,182.201,390.438,178.886,384.072z M151.46,352.001c-45.283-33.308-72.319-86.772-72.319-143.018
			c0-100.166,82.419-180.185,182.234-177.18c90.839,2.671,166.036,75.936,171.189,166.797
			c3.405,59.976-23.23,117.112-71.245,152.836c-7.195,5.355-13.462,11.506-18.77,18.241c-1.212-0.125-172.22-0.076-172.954-0.014
			C164.424,363.052,158.361,357.077,151.46,352.001z M189.362,427.775c-0.022-0.933,0.105-3.561-0.386-9.164h134.049
			c-0.491,5.634-0.365,8.291-0.385,9.164c0,6.533-5.294,11.846-11.804,11.846h-109.67
			C194.656,439.621,189.362,434.308,189.362,427.775z M283.268,454.091c-0.64,14.543-12.612,26.186-27.281,26.186
			c-14.655,0-26.613-11.643-27.253-26.186H283.268z" class="color231f20 svgShape"></path><path fill="#fff" d="M189.993,299.922c13.411,25.507,49.333,28.246,66.297,4.349
			c18.43,25.141,56.931,20.567,69.156-7.606c27.854-0.288,48.18-26.678,41.133-53.49c14.705-6.997,24.445-21.914,24.445-38.552
			c0-16.029-9.006-30.514-22.971-37.82c7.143-39.859-19.555-70.286-46.046-62.063c-6.608-12.569-19.815-20.812-34.492-20.812
			c-13.134,0-24.748,6.522-31.805,16.463c-7.298-9.955-19.076-16.463-32.38-16.463c-16.151,0-30.517,9.644-36.777,24.069
			c-27.854,0.288-48.18,26.678-41.133,53.49c-14.705,6.997-24.445,21.914-24.445,38.552c0,25.565,20.784,35.945,22.912,38.266
			C137.486,275.453,161.872,308.651,189.993,299.922z M287.516,98.397c11.031,0,20.739,7.39,23.602,17.971
			c0.603,2.218,2.218,4.018,4.362,4.851c2.138,0.831,4.55,0.596,6.491-0.626c20.295-12.853,36.526,18.729,31.602,44.299
			c-13.336,3.28-23.549,14.854-24.41,29.181c-0.24,3.989,2.798,7.416,6.787,7.656c3.904,0.252,7.411-2.738,7.654-6.785
			c0.514-8.51,7.076-15.292,15.307-16.363c10.598,4.353,17.645,14.566,17.645,26.04c0,11.181-6.678,21.183-16.697,25.711
			c-11.842-9.392-29.132-9.431-41.026,0.739c-3.038,2.598-3.396,7.164-0.796,10.2c2.586,3.036,7.164,3.398,10.197,0.798
			c6.483-5.545,15.872-5.601,22.397-0.608c0.064,0.167,0.097,0.343,0.174,0.507c8.574,18.269-4.261,38.927-24.049,40.14
			c-5.361-14.375-20.499-23.274-36.155-20.315c-3.924,0.744-6.505,4.529-5.76,8.455c0.74,3.928,4.508,6.505,8.455,5.76
			c8.747-1.659,17.202,3.449,20.018,11.59c-7.451,26.746-46.733,23.905-49.975-3.853c0.08-1.753,0.195-159.908-0.078-163.212
			C264.375,108.162,274.762,98.397,287.516,98.397z M158.436,239.732c13.298-3.286,23.541-14.832,24.402-29.145
			c0.24-3.989-2.798-7.416-6.787-7.656c-3.919-0.21-7.414,2.8-7.654,6.785c-0.514,8.511-7.101,15.279-15.319,16.358
			c-10.592-4.356-17.633-14.565-17.633-26.035c0-11.189,6.689-21.196,16.72-25.719c12.017,9.522,29.227,9.342,41.002-0.731
			c3.038-2.598,3.396-7.164,0.796-10.2c-2.581-3.033-7.159-3.394-10.197-0.798c-6.487,5.541-15.876,5.596-22.397,0.608
			c-0.064-0.167-0.097-0.343-0.174-0.506c-8.573-18.266,4.26-38.924,24.045-40.14c5.356,14.357,20.491,23.285,36.16,20.315
			c3.924-0.744,6.505-4.529,5.76-8.455c-0.739-3.928-4.531-6.523-8.455-5.76c-8.768,1.657-17.208-3.45-20.019-11.588
			c3.064-11.002,13.129-18.668,24.644-18.668c13.126,0,23.855,9.881,25.331,22.518c-0.08,1.757-0.216,159.665,0.078,163.212
			c-2.436,27.055-40.832,30.123-47.858,4.165c-0.603-2.218-2.218-4.018-4.362-4.851c-2.133-0.83-4.54-0.604-6.491,0.626
			C172.978,294.867,152.465,270.63,158.436,239.732z" class="color231f20 svgShape"></path><path fill="#fff" d="M202.56 232.628c17.727-.973 31.346-16.052 30.361-33.764-.226-3.987-3.42-7.053-7.63-6.82-3.989.221-7.042 3.636-6.82 7.626.546 9.675-6.913 17.973-16.711 18.513-3.989.219-7.042 3.632-6.825 7.621C195.158 229.872 198.703 232.894 202.56 232.628zM286.301 212.629c4.17 0 7.46-3.496 7.23-7.637-.546-9.675 6.913-17.973 16.711-18.513 3.989-.219 7.042-3.632 6.825-7.621-.217-3.989-3.551-7.133-7.626-6.825-17.727.973-31.346 16.052-30.361 33.764C279.297 209.65 282.486 212.629 286.301 212.629z" class="color231f20 svgShape"></path></svg>