<?xml version="1.0" encoding="UTF-8"?><svg id="Layer_1" xmlns="http://www.w3.org/2000/svg" viewBox="0 0 50.35 50.35"><defs><style>.cls-1{fill:#000;stroke-width:0px;}</style></defs><path class="cls-1" d="M13.91,25.17c0-1.95,0-3.9,0-5.86,0-.45.16-.73.55-.96,3.38-1.94,6.76-3.89,10.13-5.85.39-.23.72-.23,1.11,0,3.37,1.96,6.75,3.91,10.13,5.85.39.22.56.5.55.96-.01,3.9-.01,7.81,0,11.71,0,.45-.16.74-.55.96-3.38,1.94-6.76,3.89-10.13,5.85-.39.22-.72.23-1.11,0-3.37-1.96-6.75-3.91-10.13-5.85-.39-.22-.56-.5-.56-.95.02-1.95,0-3.9,0-5.86ZM24.41,36.11c.02-.12.03-.16.03-.21,0-3.34,0-6.68-.01-10.03,0-.17-.18-.41-.35-.51-2.77-1.62-5.55-3.22-8.33-4.82-.13-.08-.27-.14-.46-.25,0,3.49,0,6.88.01,10.27,0,.15.15.36.29.44.91.55,1.83,1.07,2.74,1.6,2,1.16,4,2.31,6.06,3.5ZM25.84,36.1c.13-.05.17-.07.22-.09,2.88-1.66,5.75-3.33,8.64-4.97.27-.16.29-.35.29-.61,0-3.23,0-6.45,0-9.68,0-.12-.02-.25-.03-.44-.71.41-1.36.8-2.02,1.16-.27.15-.36.32-.36.62.02,1.34,0,2.68,0,4.02,0,.37-.08.68-.43.88-.93.53-1.85,1.09-2.79,1.61-.59.33-1.09.02-1.11-.67-.02-.93,0-1.85,0-2.78,0-.29,0-.58,0-.96-.73.42-1.36.81-2.01,1.15-.31.16-.4.35-.4.69.01,3.09,0,6.19,0,9.28v.79ZM27.47,23.02c-.02-.07-.02-.09-.03-.1-2.94-1.71-5.88-3.41-8.83-5.11-.1-.06-.27-.08-.36-.03-.74.41-1.47.84-2.21,1.27.06.07.08.1.11.12,2.92,1.69,5.83,3.37,8.75,5.05.1.06.27.1.35.06.75-.41,1.48-.84,2.21-1.26ZM34.3,19.08c-3.03-1.75-5.99-3.46-8.95-5.16-.1-.06-.3-.05-.4,0-.72.4-1.43.82-2.15,1.23.04.04.05.08.08.09,2.93,1.7,5.86,3.39,8.8,5.08.1.06.27.09.36.05.75-.41,1.48-.85,2.27-1.31ZM19.86,16.85c.05.06.06.09.09.11,2.93,1.7,5.86,3.39,8.79,5.08.1.06.27.08.36.03.45-.24.88-.5,1.32-.76-.04-.07-.05-.1-.07-.12-2.93-1.7-5.86-3.39-8.8-5.08-.1-.06-.29-.06-.4,0-.44.23-.86.48-1.29.73ZM29.64,26.84c.54-.3.97-.54,1.39-.8.08-.05.16-.18.16-.27.01-1.06,0-2.13,0-3.28-.52.3-.97.54-1.4.81-.08.05-.15.18-.15.28-.01,1.05,0,2.1,0,3.26Z"/><path class="cls-1" d="M48.09,45.65c-.06.8-1.64,2.42-2.41,2.38-.29-.01-.61-.15-.85-.33-.4-.29-.79-.41-1.24-.22-.45.19-.62.56-.66,1.02-.07.75-.53,1.17-1.27,1.19-.5.01-.99.01-1.49,0-.74-.02-1.19-.43-1.3-1.17-.16-1.12-1.01-1.47-1.91-.78-.57.43-1.19.42-1.71-.07-.37-.35-.74-.71-1.09-1.09-.5-.53-.54-1.14-.08-1.7.32-.39.48-.79.26-1.28-.21-.46-.59-.63-1.07-.67-.63-.05-1.06-.44-1.11-1.07-.05-.62-.05-1.26,0-1.88.05-.64.48-1.01,1.15-1.1,1.13-.16,1.48-1,.79-1.91-.46-.6-.43-1.19.09-1.74.33-.35.67-.69,1.02-1.02.57-.55,1.15-.57,1.78-.09.87.67,1.74.31,1.88-.78.1-.75.53-1.16,1.28-1.2.5-.02.99-.02,1.49,0,.79.03,1.21.43,1.29,1.22.05.47.24.82.68,1.01.44.19.83.07,1.19-.23.64-.52,1.22-.48,1.81.08.36.34.71.69,1.05,1.06.46.5.48,1.12.06,1.67-.7.93-.36,1.76.8,1.93.71.11,1.13.56,1.14,1.27.01.51.01,1.03,0,1.54-.02.71-.45,1.17-1.16,1.24-.48.04-.87.22-1.05.69-.19.46-.05.86.25,1.24.17.22.26.51.39.78ZM45.67,35.27c-1.87,1.19-3.28.61-4.19-1.69h-1.21c-.49,2.16-2.01,2.78-4.09,1.76-.31.3-.6.58-.89.87,1.23,1.68.29,3.79-1.76,4.12v1.17c2.36.92,2.83,2.05,1.77,4.15.29.31.56.6.84.9,1.55-1.16,3.75-.51,4.15,1.72h1.21c.32-2.09,2.51-2.95,4.17-1.71.29-.29.58-.58.88-.88-.6-.8-.77-1.65-.4-2.58.38-.95,1.14-1.41,2.09-1.57v-1.26c-2.11-.41-2.74-1.94-1.73-4.15-.27-.28-.55-.57-.84-.87Z"/><path class="cls-1" d="M4.41,21.96c-.44.32-.8.58-1.16.83-.44.3-.84.27-1.09-.08-.25-.35-.15-.73.29-1.05.81-.59,1.63-1.19,2.45-1.77.53-.38.84-.33,1.22.19.6.81,1.19,1.63,1.77,2.45.32.44.3.84-.03,1.1-.36.28-.74.18-1.09-.29-.29-.39-.58-.79-.86-1.19-.06,0-.13.02-.19.03-.04,1.34-.17,2.69-.1,4.02.21,3.98,1.53,7.59,3.92,10.79.2.27.36.37.72.27,1.7-.46,3.25,1.12,2.8,2.83-.08.3-.04.47.22.66,4.05,3,8.58,4.36,13.6,3.89,1.53-.14,3.04-.59,4.55-.92.61-.13,1.12.24.95.78-.07.22-.33.46-.56.54-2.63.91-5.34,1.25-8.11,1.04-4.24-.32-8.04-1.76-11.42-4.34-.13-.1-.4-.13-.56-.07-.97.35-1.84.2-2.56-.53-.71-.72-.84-1.57-.51-2.52.06-.17.02-.46-.09-.6-2.17-2.84-3.54-6.03-4.11-9.56-.32-1.97-.36-3.95-.09-5.93.02-.15.03-.29.05-.56ZM11.75,39.5c0-.53-.42-.94-.95-.93-.5,0-.91.41-.93.91-.01.5.42.96.93.97.51,0,.95-.42.95-.95Z"/><path class="cls-1" d="M45.88,28.38c.44-.31.8-.57,1.16-.83.44-.31.84-.28,1.09.07.25.35.16.73-.28,1.05-.83.61-1.66,1.21-2.49,1.8-.5.35-.81.29-1.18-.2-.6-.81-1.19-1.63-1.77-2.45-.33-.46-.3-.88.06-1.13.36-.25.72-.15,1.05.3.29.39.58.79.96,1.32.08-.77.18-1.39.21-2.02.23-4.79-1.07-9.11-3.95-12.96-.21-.28-.39-.33-.73-.25-1.67.44-3.23-1.13-2.78-2.81.1-.36,0-.53-.27-.72-5.43-3.91-11.36-4.93-17.78-3.04-.11.03-.22.07-.33.1-.44.12-.81-.03-.94-.4-.14-.4.05-.8.52-.91,1.49-.35,2.98-.81,4.49-.97,5.57-.57,10.6.89,15.08,4.26.13.1.4.13.56.07.97-.34,1.84-.2,2.56.53.7.72.84,1.57.51,2.52-.06.17-.02.46.09.6,2.16,2.85,3.55,6.02,4.11,9.55.31,1.95.35,3.92.09,5.88-.02.17-.03.35-.06.62ZM40.42,10.84c0-.51-.45-.95-.95-.95-.5,0-.91.41-.92.91-.01.53.39.95.92.96.52,0,.96-.41.96-.93Z"/><path class="cls-1" d="M8.38,18.73c-.31,0-.63.02-.94,0-.58-.03-.92-.37-1.15-.88-.07-.16-.23-.34-.4-.4-.55-.21-.9-.58-.93-1.16-.04-.54-.04-1.09,0-1.63.02-.25.13-.55.3-.71.3-.26.31-.55.19-.84-.27-.67-.5-1.38-.9-1.97-1.58-2.27-.52-6.14,2.92-6.87,1.88-.39,3.47.24,4.63,1.79,1.09,1.45,1.12,3.4.23,4.95-.41.71-.69,1.48-.99,2.25-.06.16.08.4.16.59.11.29.31.56.35.85.06.51.04,1.02,0,1.54-.03.61-.37,1-.94,1.2-.14.05-.31.18-.36.31-.27.69-.63.96-1.38.99-.26,0-.53,0-.79,0,0,0,0,0,0-.01ZM7.65,13.43c.02-.05.05-.08.05-.11,0-.63-.05-1.26.03-1.88.13-1.09-.08-1.91-1.25-2.31-.43-.15-.52-.6-.33-.95.2-.37.64-.52,1.02-.22.85.68,1.63.7,2.49,0,.38-.31.81-.16,1.02.21.2.35.11.8-.32.95-1.18.41-1.4,1.25-1.26,2.35.07.52,0,1.06.01,1.59,0,.12.03.25.05.41.29-.11.71.22.79-.3.16-1.06.6-1.98,1.19-2.86.53-.79.57-1.65.31-2.52-.53-1.75-2.47-2.68-4.18-2.01-1.67.65-2.56,2.67-1.75,4.16.6,1.12,1.31,2.18,1.41,3.48h.73ZM7.67,17.32h1.48q.13-1.02,1.32-1.27v-1.17h-4.14v1.2q1.22.13,1.35,1.25Z"/><path class="cls-1" d="M13.36,2.44c-.42.61-.77,1.17-1.19,1.67-.09.11-.54.05-.7-.09-.16-.13-.29-.5-.22-.68.19-.48.46-.95.78-1.36.12-.15.49-.23.69-.17.22.07.37.35.64.62Z"/><path class="cls-1" d="M2.38,6.87c-.59-.38-1.14-.68-1.61-1.07-.13-.11-.12-.58.01-.74.15-.18.54-.32.75-.25.46.16.91.41,1.28.73.17.14.25.54.19.77-.06.21-.37.34-.62.56Z"/><path class="cls-1" d="M5.77,3.51c-.25.27-.4.56-.61.62-.22.06-.6-.02-.73-.18-.32-.39-.58-.85-.75-1.32-.07-.19.07-.57.24-.71.15-.13.61-.17.7-.06.41.49.75,1.05,1.16,1.65Z"/><path class="cls-1" d="M14.41,6.9c-.27-.26-.56-.41-.61-.63-.06-.22.04-.59.21-.73.38-.31.82-.56,1.28-.73.2-.07.59.04.72.21.14.17.18.64.07.74-.49.41-1.06.74-1.67,1.14Z"/><path class="cls-1" d="M9.08,1.98c0,.23.02.46,0,.69-.04.39-.29.59-.66.6-.35,0-.63-.18-.66-.54-.04-.51-.05-1.02,0-1.52.03-.38.32-.57.7-.55.35.02.59.22.63.58.03.24,0,.49,0,.74,0,0,0,0,0,0Z"/><path class="cls-1" d="M36.34,40.94c0-2.54,2.02-4.58,4.56-4.57,2.53,0,4.59,2.06,4.58,4.57,0,2.49-2.06,4.54-4.55,4.56-2.51.02-4.58-2.04-4.59-4.57ZM40.89,37.75c-1.77,0-3.17,1.42-3.15,3.2.01,1.74,1.43,3.15,3.16,3.16,1.74,0,3.2-1.45,3.2-3.19,0-1.76-1.44-3.17-3.21-3.17Z"/></svg>