<svg width="80" height="80" viewBox="0 0 80 80" fill="none" xmlns="http://www.w3.org/2000/svg">
<g clip-path="url(#clip0_1_243)">
<mask id="mask0_1_243" style="mask-type:luminance" maskUnits="userSpaceOnUse" x="0" y="0" width="80" height="80">
<path d="M80 0H0V80H80V0Z" fill="white"/>
</mask>
<g mask="url(#mask0_1_243)">
<path d="M40 80C62.0914 80 80 62.0914 80 40C80 17.9086 62.0914 0 40 0C17.9086 0 0 17.9086 0 40C0 62.0914 17.9086 80 40 80Z" fill="#FFF2E8"/>
<path fill-rule="evenodd" clip-rule="evenodd" d="M60.2925 68H36.1749C35.7847 68 35.4724 67.6698 35.4724 67.2678V62.7728H28.1928V67.2678C28.1928 67.6694 27.8805 68 27.4902 68H21.7574C18.581 68 16 65.3103 16 62C16 58.6897 18.581 56 21.7574 56H60.2974C60.6828 56 61 56.3306 61 56.7322V67.2678C60.9951 67.6694 60.6828 68 60.2925 68ZM36.8775 66.5356H59.5899V57.4644H21.7574C19.357 57.4644 17.4052 59.4984 17.4052 62C17.4052 64.5016 19.3566 66.5356 21.7574 66.5356H26.7925V62.0406C26.7925 61.639 27.1048 61.3084 27.4951 61.3084L36.1799 61.3088C36.5702 61.3088 36.8825 61.6394 36.8825 62.041L36.8821 66.5356H36.8775Z" fill="#F48120"/>
<path fill-rule="evenodd" clip-rule="evenodd" d="M16.7026 63C16.3123 63 16 62.6801 16 62.2916V18.3332C16 15.391 18.3712 13 21.2891 13H60.2974C60.6828 13 61 13.3149 61 13.7085V24.0203C61 24.953 59.5948 24.9533 59.5948 24.0203V14.4169H21.2937C19.1518 14.4169 17.4101 16.1732 17.4101 18.3332V62.2916C17.4052 62.6801 17.0929 63 16.7026 63ZM60.2925 57.8786C59.9071 57.8786 59.5899 57.5587 59.5899 57.1702V46.8583C59.5899 45.9267 60.9951 45.9267 60.9951 46.8583V57.1702C60.9947 57.5587 60.6828 57.8786 60.2925 57.8786Z" fill="#F48120"/>
<path fill-rule="evenodd" clip-rule="evenodd" d="M56.3116 62.9995H22.689C21.7705 62.9995 21.7702 61 22.689 61L56.3116 61.0005C57.2265 61.0005 57.2324 62.9995 56.3116 62.9995Z" fill="#F48120"/>
<path fill-rule="evenodd" clip-rule="evenodd" d="M27.6963 73C27.321 73 27 72.6795 27 72.283V61.717C27 61.3237 27.3095 61 27.6963 61H36.3037C36.6905 61 37 61.3237 37 61.717V72.283C37 72.9566 36.1776 73.2477 35.7671 72.7412L32 68.1153L28.2329 72.7412C28.0974 72.9104 27.8996 73 27.6963 73ZM32 66.283C32.2082 66.283 32.4014 66.3776 32.532 66.5372L35.6028 70.3115V62.4344L28.393 62.434V70.3112L31.4635 66.5368C31.5989 66.3776 31.7967 66.283 32 66.283Z" fill="#F48120"/>
<path fill-rule="evenodd" clip-rule="evenodd" d="M25 57C24.4445 57 24 56.6863 24 56.3053V13.6869C24 12.7712 26 12.7709 26 13.6869V56.3053C25.9995 56.6863 25.5555 57 25 57Z" fill="#F48120"/>
<path fill-rule="evenodd" clip-rule="evenodd" d="M60.9995 48C60.925 48 60.8505 47.985 60.7803 47.9595C49.5939 43.7244 50.9603 29.4719 51.1513 27.8639C51.1933 27.5188 51.4545 27.2197 51.7717 27.1945C58.9637 26.6183 60.0837 23 61.0042 23C61.2187 23 61.4192 23.1117 61.5451 23.2991C61.5639 23.3294 63.9187 26.6873 70.2273 27.1945C70.5583 27.2197 70.8242 27.509 70.8474 27.869C71.0387 29.4719 72.4142 43.7244 61.2187 47.9595C61.1489 47.985 61.0741 48 60.9995 48ZM52.4291 28.5943C52.182 31.5005 51.8322 42.8366 60.9995 46.4885C70.1759 42.8366 69.8217 31.5005 69.5699 28.5943C64.6458 28.0619 62.0396 25.9164 60.9995 24.8106C59.9598 25.9164 57.3532 28.0615 52.4291 28.5943Z" fill="#F48120"/>
<path fill-rule="evenodd" clip-rule="evenodd" d="M59.2343 37.9996C58.7446 37.9996 57.7944 36.7193 57.2038 36.0679C56.5826 35.3825 57.5208 34.3221 58.156 35.0172L59.2346 36.2074L62.8433 32.2253C63.4664 31.5377 64.422 32.5788 63.7955 33.2761L59.7106 37.7838C59.5795 37.928 59.4071 37.9996 59.2343 37.9996Z" fill="#F48120"/>
<path fill-rule="evenodd" clip-rule="evenodd" d="M45.2921 38H28.7088C27.7639 38 27.7636 36 28.7088 36H45.2921C46.2359 36 46.2359 38 45.2921 38Z" fill="#F48120"/>
<path fill-rule="evenodd" clip-rule="evenodd" d="M48.2986 44.9995H28.702C27.7662 44.9995 27.7658 43 28.702 43L48.2986 43.0005C49.2308 43.0005 49.2368 44.9995 48.2986 44.9995Z" fill="#F48120"/>
<path fill-rule="evenodd" clip-rule="evenodd" d="M53.2817 51H28.7187C27.7606 51 27.7602 50 28.7187 50H53.2817C54.2365 50 54.2424 51 53.2817 51Z" fill="#F48120"/>
</g>
</g>
<defs>
<clipPath id="clip0_1_243">
<rect width="80" height="80" fill="white"/>
</clipPath>
</defs>
</svg>
