<svg xmlns="http://www.w3.org/2000/svg" width="60" height="60" viewBox="0 0 60 60">
  <g id="Group_525" data-name="Group 525" transform="translate(-142 -5243)">
    <circle id="Ellipse_14" data-name="Ellipse 14" cx="30" cy="30" r="30" transform="translate(142 5243)" fill="#fff2e8"/>
    <g id="certification-award-svgrepo-com" transform="translate(156.985 5250.797)">
      <path id="Path_9227" data-name="Path 9227" d="M28.554,9.9H2.129A2.131,2.131,0,0,0,0,12.033V28.681a2.131,2.131,0,0,0,2.129,2.129h16.3a6.767,6.767,0,0,1-.448-2.11L2.1,28.681,2.129,12l26.456.031V28.681a.031.031,0,0,1-.031.031H27.6a6.752,6.752,0,0,1-.446,2.1h1.4a2.131,2.131,0,0,0,2.129-2.129V12.033A2.131,2.131,0,0,0,28.554,9.9Z" fill="#f48120"/>
      <path id="Path_9228" data-name="Path 9228" d="M307.843,237.988c2.086,0,3.776-2.136,3.776-4.771s-1.69-4.77-3.776-4.77-3.776,2.136-3.776,4.77S305.757,237.988,307.843,237.988Z" transform="translate(-285.052 -204.877)" fill="#f48120"/>
      <path id="Path_9229" data-name="Path 9229" d="M65.365,86.9h9.353a1.049,1.049,0,1,0,0-2.1H65.365a1.049,1.049,0,0,0,0,2.1Z" transform="translate(-60.294 -70.211)" fill="#f48120"/>
      <path id="Path_9230" data-name="Path 9230" d="M86.256,161.331a1.049,1.049,0,0,0-1.049-1.049H65.365a1.049,1.049,0,0,0,0,2.1H85.207A1.048,1.048,0,0,0,86.256,161.331Z" transform="translate(-60.294 -140.974)" fill="#f48120"/>
      <path id="Path_9231" data-name="Path 9231" d="M65.365,235.768a1.049,1.049,0,0,0,0,2.1h9.353a1.049,1.049,0,1,0,0-2.1Z" transform="translate(-60.294 -211.74)" fill="#f48120"/>
      <path id="Path_9232" data-name="Path 9232" d="M363.182,374.452A4.4,4.4,0,0,1,359.7,375.9l2.522,5.1a.183.183,0,0,0,.165.1h.013a.185.185,0,0,0,.161-.127l.636-1.953a.189.189,0,0,1,.093-.108.192.192,0,0,1,.081-.018.188.188,0,0,1,.062.01l1.937.68a.187.187,0,0,0,.061.01.183.183,0,0,0,.165-.264Z" transform="translate(-337.204 -341.751)" fill="#f48120"/>
      <path id="Path_9233" data-name="Path 9233" d="M277.049,374.461l-.012-.009-2.411,4.876a.184.184,0,0,0,.166.265.179.179,0,0,0,.06-.01l1.937-.68a.183.183,0,0,1,.236.117l.636,1.952a.183.183,0,0,0,.161.126h.013A.185.185,0,0,0,278,381l1.639-3.315-1.048-2.12A4.477,4.477,0,0,1,277.049,374.461Z" transform="translate(-257.435 -341.751)" fill="#f48120"/>
    </g>
  </g>
</svg>
