<svg width="28" height="28" viewBox="0 0 28 28" fill="none" xmlns="http://www.w3.org/2000/svg">
<path d="M14 28C21.732 28 28 21.732 28 14C28 6.26801 21.732 0 14 0C6.26801 0 0 6.26801 0 14C0 21.732 6.26801 28 14 28Z" fill="#FFF2E8"/>
<path d="M12.1522 19C11.9371 19 11.7306 18.9197 11.578 18.7761L7.23791 14.6916C6.9207 14.3932 6.9207 13.9092 7.23791 13.6106C7.55496 13.312 8.06935 13.3119 8.38639 13.6106L12.1188 17.123L19.5819 9.25526C19.8806 8.94066 20.3939 8.91286 20.7287 9.19411C21.0633 9.47535 21.0925 9.95853 20.7937 10.2735L12.7579 18.7446C12.6092 18.9014 12.3983 18.9936 12.1751 18.9997C12.1675 18.9998 12.1598 19 12.1522 19Z" fill="#F48120"/>
</svg>
