<svg xmlns="http://www.w3.org/2000/svg" xmlns:xlink="http://www.w3.org/1999/xlink" width="50" height="50" viewBox="0 0 50 50">
  <defs>
    <clipPath id="clip-path">
      <rect id="Rectangle_1269" data-name="Rectangle 1269" width="50" height="50" transform="translate(417 4595)" fill="#fff" stroke="#707070" stroke-width="1"/>
    </clipPath>
    <linearGradient id="linear-gradient" x1="0.5" x2="0.5" y2="1" gradientUnits="objectBoundingBox">
      <stop offset="0" stop-color="#f48120"/>
      <stop offset="1" stop-color="#ffc391"/>
    </linearGradient>
  </defs>
  <g id="Mask_Group_214" data-name="Mask Group 214" transform="translate(-417 -4595)" clip-path="url(#clip-path)">
    <g id="_16897535341582962153" data-name="16897535341582962153" transform="translate(419.319 4597.021)">
      <path id="Path_6988" data-name="Path 6988" d="M42.7,17.407l-2.41-2.874-.8-3.665a2.656,2.656,0,0,0-1.586-1.891l-3.47-1.425-2.41-2.874a2.655,2.655,0,0,0-2.283-.938l-3.735.351-3.47-1.425a2.655,2.655,0,0,0-2.457.231L16.94,4.941l-3.735.351a2.656,2.656,0,0,0-2.069,1.346L9.3,9.911,6.16,11.957A2.656,2.656,0,0,0,4.954,14.11l-.1,3.75L3.019,21.132A2.655,2.655,0,0,0,2.952,23.6L4.6,26.967l-.1,3.75a2.655,2.655,0,0,0,1.087,2.216l3.028,2.214,1.652,3.368a2.655,2.655,0,0,0,1.992,1.457l3.71.553L19,42.738a2.655,2.655,0,0,0,2.441.364l3.542-1.234,3.71.553a2.655,2.655,0,0,0,2.331-.812l2.563-2.739,3.542-1.234a2.655,2.655,0,0,0,1.686-1.8l1-3.616,2.563-2.739a2.655,2.655,0,0,0,.656-2.379l-.8-3.665,1-3.616a2.656,2.656,0,0,0-.525-2.412ZM23,36.249a13.391,13.391,0,1,1,13.39-13.391A13.391,13.391,0,0,1,23,36.249Z" fill="url(#linear-gradient)"/>
      <path id="Path_6989" data-name="Path 6989" d="M55.063,45.84a2.84,2.84,0,0,0-.55-.084c-1.249-.1-2.492-.209-3.741-.275a.506.506,0,0,1-.52-.394c-.5-1.267-1-2.534-1.512-3.8a.945.945,0,0,0-.938-.657,1,1,0,0,0-.974.616,3.083,3.083,0,0,0-.137.323L45.238,45.1c-.072.173-.137.293-.359.3-1.422.084-2.845.185-4.267.275a1.016,1.016,0,0,0-.944.95,1.312,1.312,0,0,0,.645,1.136c.968.813,1.93,1.632,2.9,2.444a.386.386,0,0,1,.143.454c-.359,1.363-.7,2.731-1.046,4.1a1,1,0,0,0,.729,1.243,1.285,1.285,0,0,0,1-.209c1.082-.687,2.187-1.351,3.269-2.044a.522.522,0,0,1,.657-.006c1.124.729,2.265,1.44,3.406,2.157A1.044,1.044,0,0,0,53,54.738c-.3-1.255-.6-2.51-.932-3.765a.661.661,0,0,1,.251-.777c1.034-.819,2.038-1.673,3.06-2.516a.917.917,0,0,0,.412-.789,1.016,1.016,0,0,0-.729-1.052Z" transform="translate(-24.728 -25.515)" fill="#fff"/>
    </g>
  </g>
</svg>
