<svg xmlns="http://www.w3.org/2000/svg" xmlns:xlink="http://www.w3.org/1999/xlink" width="50" height="50" viewBox="0 0 50 50">
  <defs>
    <clipPath id="clip-path">
      <rect id="Rectangle_1269" data-name="Rectangle 1269" width="50" height="50" transform="translate(417 4595)" fill="#fff" stroke="#707070" stroke-width="1"/>
    </clipPath>
    <linearGradient id="linear-gradient" x1="0.5" x2="0.5" y2="1" gradientUnits="objectBoundingBox">
      <stop offset="0" stop-color="#f48120"/>
      <stop offset="1" stop-color="#ffc391"/>
    </linearGradient>
  </defs>
  <g id="Mask_Group_213" data-name="Mask Group 213" transform="translate(-417 -4595)" clip-path="url(#clip-path)">
    <g id="_16405049131582960209_1_" data-name="16405049131582960209 (1)" transform="translate(415.295 4597.104)">
      <path id="Path_6982" data-name="Path 6982" d="M44.97,25.022l-8.039.691a.211.211,0,0,0-.127.364l2.028,1.913-.45.459-.3.307-1.525,1.583q-.881.929-1.756,1.862-.626.671-1.246,1.35-1.483,1.623-2.927,3.282c-.479.555-.957,1.113-1.427,1.676-.125.15-.248.3-.373.452l-.5-.283-7.848-4.412-1.253-.7-.9.978L17.2,35.765,8.362,45.4l1.857,1.811,9.567-9.233h0l5.6,3.643,2.864,1.863,1.039.676.238.154,1.351-1.184q.83-.728,1.634-1.48c.538-.5,1.069-1.007,1.6-1.515q1.583-1.529,3.119-3.1c1.029-1.044,2.038-2.106,3.045-3.17l1.5-1.609.2-.221.53-.578,1.936,1.826a.211.211,0,0,0,.356-.143l.4-7.895a.211.211,0,0,0-.229-.221Z" transform="translate(0 -15.504)" fill="#fff"/>
      <path id="Path_6983" data-name="Path 6983" d="M14.093,95.821a.692.692,0,0,0,.691.691h4.791a.692.692,0,0,0,.691-.691V81.842L14.093,87.8Z" transform="translate(-3.834 -53.514)" fill="url(#linear-gradient)"/>
      <path id="Path_6984" data-name="Path 6984" d="M39.952,72.548V88.831a.692.692,0,0,0,.691.691h4.791a.692.692,0,0,0,.691-.691v-14.2l-4.977-3.237Z" transform="translate(-21.132 -46.525)" fill="url(#linear-gradient)"/>
      <path id="Path_6985" data-name="Path 6985" d="M68.129,83.514l-2.318-1.506V94.656a.692.692,0,0,0,.691.691h4.791a.692.692,0,0,0,.691-.691V80.1c-.46.426-.942.86-1.431,1.29Z" transform="translate(-38.43 -52.349)" fill="url(#linear-gradient)"/>
      <path id="Path_6986" data-name="Path 6986" d="M94.3,57.82c-.949.966-1.816,1.831-2.631,2.626V77.275a.692.692,0,0,0,.691.691h4.791a.692.692,0,0,0,.691-.691V54.118l-.47.5C96.4,55.65,95.362,56.744,94.3,57.82Z" transform="translate(-55.729 -34.968)" fill="url(#linear-gradient)"/>
      <path id="Path_6987" data-name="Path 6987" d="M59.711,14.351a2.992,2.992,0,0,1-1.659.328,7.318,7.318,0,0,1-2.036-.278,10.412,10.412,0,0,1-1.659-.616L53.5,16.068a13.523,13.523,0,0,0,1.342.547,9.259,9.259,0,0,0,2.353.447v2.364h2.5V17a5.264,5.264,0,0,0,1.639-.516,3.63,3.63,0,0,0,1.083-.854,3.068,3.068,0,0,0,.6-1.081,4.018,4.018,0,0,0,.179-1.182,3.553,3.553,0,0,0-.308-1.528,3.507,3.507,0,0,0-.854-1.142,6.045,6.045,0,0,0-1.291-.865,14.6,14.6,0,0,0-1.62-.7q-.576-.2-.983-.368a4.366,4.366,0,0,1-.685-.348,1.2,1.2,0,0,1-.407-.407,1.083,1.083,0,0,1-.13-.547,1,1,0,0,1,.418-.834,2.293,2.293,0,0,1,1.371-.318,8.06,8.06,0,0,1,1.817.2,9.192,9.192,0,0,1,1.519.477l.616-2.384a7.97,7.97,0,0,0-1.182-.4,11.321,11.321,0,0,0-1.778-.3V1.845H57.2V3.991a4.987,4.987,0,0,0-1.51.506A3.267,3.267,0,0,0,54.07,6.444,4.206,4.206,0,0,0,53.881,7.7,3.049,3.049,0,0,0,55,10.188a5.216,5.216,0,0,0,1.132.705q.627.288,1.281.527c.45.16.848.308,1.193.447a5.143,5.143,0,0,1,.854.427,1.769,1.769,0,0,1,.516.486,1.136,1.136,0,0,1,.179.646,1.079,1.079,0,0,1-.447.924Z" transform="translate(-30.197)" fill="url(#linear-gradient)"/>
    </g>
  </g>
</svg>
