<svg xmlns="http://www.w3.org/2000/svg" xmlns:xlink="http://www.w3.org/1999/xlink" width="50" height="50" viewBox="0 0 50 50">
  <defs>
    <clipPath id="clip-path">
      <rect id="Rectangle_1269" data-name="Rectangle 1269" width="50" height="50" transform="translate(417 4595)" fill="#fff" stroke="#707070" stroke-width="1"/>
    </clipPath>
    <linearGradient id="linear-gradient" x1="0.5" x2="0.5" y2="1" gradientUnits="objectBoundingBox">
      <stop offset="0" stop-color="#f48120"/>
      <stop offset="1" stop-color="#ffc391"/>
    </linearGradient>
  </defs>
  <g id="Mask_Group_216" data-name="Mask Group 216" transform="translate(-417 -4595)" clip-path="url(#clip-path)">
    <g id="_5055292451582960216" data-name="5055292451582960216" transform="translate(418.854 4593.708)">
      <path id="Path_6997" data-name="Path 6997" d="M51.982,14.2q-.1-.294-.226-.581a10.938,10.938,0,0,0-9.985-6.677h-.156a10.938,10.938,0,0,0-9.985,6.677q-.121.287-.225.581a10.926,10.926,0,0,0,0,7.325q.1.294.226.581a10.983,10.983,0,0,0,4.641,5.233,5.216,5.216,0,0,1,.5-1.17,9.716,9.716,0,0,1-3.753-4.063h3.169a13.9,13.9,0,0,0,1.15,3.271l.016-.019a5.216,5.216,0,0,1,.962-.859,13.117,13.117,0,0,1-.824-2.392h3.57v1.467c.077,0,.154-.006.232-.006h.635c.133,0,.265.005.4.015V22.105h3.569a12.959,12.959,0,0,1-.865,2.479,5.2,5.2,0,0,1,.839.772c.04.046.079.093.117.14.012-.023.024-.045.036-.068A13.824,13.824,0,0,0,47.2,22.105h3.17a9.726,9.726,0,0,1-3.876,4.135,5.213,5.213,0,0,1,.483,1.178,10.99,10.99,0,0,0,4.782-5.314q.122-.286.226-.581a10.926,10.926,0,0,0,0-7.325Zm-16.03,6.642H32.507a9.656,9.656,0,0,1,0-5.959h3.445a20.332,20.332,0,0,0,0,5.959ZM33.02,13.619a9.708,9.708,0,0,1,5.295-4.8,8.907,8.907,0,0,0-.949,1.481,13.875,13.875,0,0,0-1.176,3.322Zm8.042,7.223H37.236a18.707,18.707,0,0,1,0-5.959h3.826Zm0-7.223h-3.57c.687-2.8,2.022-4.872,3.57-5.322ZM42.325,8.3c1.548.45,2.882,2.521,3.569,5.322H42.325Zm3.826,12.545H42.325V14.883h3.826a18.706,18.706,0,0,1,0,5.959ZM46.022,10.3a8.907,8.907,0,0,0-.949-1.481,9.707,9.707,0,0,1,5.3,4.8H47.2A13.82,13.82,0,0,0,46.022,10.3Zm4.859,10.545H47.434a20.391,20.391,0,0,0,0-5.959h3.446a9.681,9.681,0,0,1,0,5.959Z" transform="translate(-19.007)" fill="#fff"/>
      <path id="Path_6998" data-name="Path 6998" d="M73.182,97.981C71.414,97.1,67.535,95.8,67.535,95.8h-.328l-1.062,1.416,1,6.886h7.415a41.059,41.059,0,0,0-.357-4.75A1.888,1.888,0,0,0,73.182,97.981Z" transform="translate(-42.753 -59.652)" fill="url(#linear-gradient)"/>
      <path id="Path_6999" data-name="Path 6999" d="M59.009,69.161l.534-2.754a3.686,3.686,0,0,0-3.652-4.183h-.635A3.686,3.686,0,0,0,51.6,66.407l.534,2.754a3.5,3.5,0,0,0,6.871,0Z" transform="translate(-32.969 -37.113)" fill="url(#linear-gradient)"/>
      <path id="Path_7000" data-name="Path 7000" d="M42.787,95.8s-3.88,1.3-5.648,2.184a1.888,1.888,0,0,0-1.017,1.369,41.061,41.061,0,0,0-.357,4.75h7.415l1-6.886L43.115,95.8Z" transform="translate(-22.359 -59.651)" fill="url(#linear-gradient)"/>
      <path id="Path_7001" data-name="Path 7001" d="M100.818,85.631H91.252V85.6a42.165,42.165,0,0,0-.379-4.985,3.425,3.425,0,0,0-.661-1.506c.665-.236,1.136-.395,1.136-.395V77.651l-.09-.068a3.086,3.086,0,0,1-1.172-1.961l-.018-.113H89.98a1.192,1.192,0,0,1-1.1-.742,1.3,1.3,0,0,1-.162-.629A1.2,1.2,0,0,1,88.8,73.7a.617.617,0,0,1,.239-.384l.3-.182-.074-.323a3.746,3.746,0,0,1,3.721-4.519c.06,0,.118,0,.177,0s.117,0,.176,0a3.745,3.745,0,0,1,3.721,4.519l-.074.323.3.182a.616.616,0,0,1,.239.384,1.2,1.2,0,0,1,.084.442,1.294,1.294,0,0,1-.162.629,1.192,1.192,0,0,1-1.1.742h-.088l-.018.113a3.086,3.086,0,0,1-1.172,1.961l-.089.068v1.066s3.23,1.084,4.7,1.818a1.569,1.569,0,0,1,.846,1.14A34.225,34.225,0,0,1,100.818,85.631Z" transform="translate(-57.905 -41.183)" fill="url(#linear-gradient)"/>
      <path id="Path_7002" data-name="Path 7002" d="M14.563,74.138a1.3,1.3,0,0,1-.162.629,1.193,1.193,0,0,1-1.1.742H13.21l-.018.113a3.085,3.085,0,0,1-1.171,1.961l-.09.068v1.066s.411.138,1.007.349a3.437,3.437,0,0,0-.7,1.554,42.117,42.117,0,0,0-.379,4.983v.028H2.46a34.166,34.166,0,0,1,.3-3.955,1.571,1.571,0,0,1,.846-1.14c1.472-.734,4.7-1.818,4.7-1.818V77.651l-.09-.068a3.085,3.085,0,0,1-1.171-1.961l-.018-.113H6.938a1.193,1.193,0,0,1-1.1-.742,1.3,1.3,0,0,1-.162-.629,1.2,1.2,0,0,1,.085-.442A.616.616,0,0,1,6,73.311l.3-.182-.074-.323a3.745,3.745,0,0,1,3.721-4.519c.059,0,.118,0,.176,0s.117,0,.176,0a3.745,3.745,0,0,1,3.721,4.519l-.074.323.3.182a.616.616,0,0,1,.239.384A1.2,1.2,0,0,1,14.563,74.138Z" transform="translate(0 -41.183)" fill="url(#linear-gradient)"/>
    </g>
  </g>
</svg>
