<svg xmlns="http://www.w3.org/2000/svg" xmlns:xlink="http://www.w3.org/1999/xlink" width="50" height="50" viewBox="0 0 50 50">
  <defs>
    <clipPath id="clip-path">
      <rect id="Rectangle_1269" data-name="Rectangle 1269" width="50" height="50" transform="translate(417 4595)" fill="#fff" stroke="#707070" stroke-width="1"/>
    </clipPath>
    <linearGradient id="linear-gradient" x1="0.5" x2="0.5" y2="1" gradientUnits="objectBoundingBox">
      <stop offset="0" stop-color="#f48120"/>
      <stop offset="1" stop-color="#ffc391"/>
    </linearGradient>
  </defs>
  <g id="Mask_Group_217" data-name="Mask Group 217" transform="translate(-417 -4595)" clip-path="url(#clip-path)">
    <g id="_7955397731582955603" data-name="7955397731582955603" transform="translate(418.799 4598.016)">
      <path id="Path_7003" data-name="Path 7003" d="M55.908,41.777a20.583,20.583,0,0,0-.5-3.412,21.046,21.046,0,0,0-1.055-3.278,21.431,21.431,0,0,0-1.581-3.051l-1.966,1.2a19.086,19.086,0,0,1,1.332,2.74A18.617,18.617,0,0,1,53,38.894a18.072,18.072,0,0,1,.361,3.012c.023.505.016,1.012-.008,1.517l-.015.379-.034.377-.034.377c-.006.063-.01.126-.018.188l-.027.187a17.439,17.439,0,0,1-.628,2.952,18.124,18.124,0,0,1-1.1,2.8A18.733,18.733,0,0,1,49.94,53.26a17.5,17.5,0,0,1-1.949,2.281,17.947,17.947,0,0,1-19.276,3.977c-.427-.17-.847-.358-1.26-.56l1.2-2.077h-8.3l4.148,7.184,1.152-2c.587.28,1.185.534,1.795.758A21.192,21.192,0,0,0,44.53,61.783l.387-.2c.129-.068.259-.135.383-.212.251-.149.5-.3.753-.447l.731-.481c.242-.163.473-.341.71-.51a21.717,21.717,0,0,0,2.613-2.311,20.424,20.424,0,0,0,2.193-2.7,21.575,21.575,0,0,0,1.72-3.02,20.884,20.884,0,0,0,1.187-3.261,20.112,20.112,0,0,0,.634-3.4l.024-.215c.007-.072.01-.144.015-.216l.028-.432.027-.431.006-.432C55.956,42.927,55.948,42.351,55.908,41.777Z" transform="translate(-12.053 -20.674)" fill="url(#linear-gradient)"/>
      <path id="Path_7004" data-name="Path 7004" d="M4.691,21.253c0-.063.011-.126.016-.188l.034-.376.034-.376.053-.374.053-.374.027-.187.036-.185c.049-.247.094-.494.145-.74l.18-.732c.027-.123.068-.242.1-.362L5.482,17a18.793,18.793,0,0,1,1.125-2.785A18.537,18.537,0,0,1,10.136,9.4a18.769,18.769,0,0,1,2.3-1.9A17.27,17.27,0,0,1,15.007,6a18.591,18.591,0,0,1,2.774-1.052l.716-.192.724-.156c.06-.013.12-.027.181-.038l.183-.03.366-.059c.122-.019.243-.042.366-.058l.368-.041c.489-.065.983-.085,1.476-.111l.74-.007c.123,0,.247,0,.37.007l.37.012a18.6,18.6,0,0,1,2.922.387,18.139,18.139,0,0,1,2.809.86q.569.228,1.119.5L29.333,8.018h8.3L33.481.833,32.285,2.9q-.812-.379-1.652-.69a21.629,21.629,0,0,0-3.39-.935A22,22,0,0,0,23.756.915l-.438,0c-.146,0-.292,0-.438,0L22.006.95c-.582.045-1.164.088-1.74.179l-.433.061c-.144.022-.287.053-.43.079l-.429.082-.215.041c-.071.015-.142.034-.213.051l-.849.209L16.86,1.9a21.72,21.72,0,0,0-3.224,1.326,20.309,20.309,0,0,0-2.954,1.835A21.723,21.723,0,0,0,8.071,7.347a20.867,20.867,0,0,0-5.123,8.9l-.112.416c-.036.139-.078.277-.106.418l-.183.842c-.051.282-.1.566-.143.849l-.035.212-.025.214-.049.427-.048.427-.027.429-.027.429c0,.071-.01.143-.012.214l0,.215-.009.858c.011.286.012.572.031.857a20.647,20.647,0,0,0,1.482,6.659A21.393,21.393,0,0,0,5.22,32.763l1.886-1.124a18.331,18.331,0,0,1-2.118-5.672,18.873,18.873,0,0,1-.327-3.01c-.01-.252,0-.505-.006-.757l.03-.757Z" transform="translate(0 0)" fill="url(#linear-gradient)"/>
      <path id="Path_7005" data-name="Path 7005" d="M54.064,39.419H44.342V36.027a3.815,3.815,0,1,1,7.631,0,.849.849,0,0,0,1.7,0,5.513,5.513,0,1,0-11.026,0v3.392H40.089V50.951a2.162,2.162,0,0,0,2.162,2.162H56.226V41.58a2.161,2.161,0,0,0-2.162-2.162Zm-5.022,7.358v2.47a.885.885,0,1,1-1.769,0v-2.47a2.277,2.277,0,1,1,1.769,0Z" transform="translate(-25.125 -19.666)" fill="#fff"/>
    </g>
  </g>
</svg>
