<svg xmlns="http://www.w3.org/2000/svg" xmlns:xlink="http://www.w3.org/1999/xlink" width="180" height="60" viewBox="0 0 180 60">
  <defs>
    <clipPath id="clip-path">
      <rect id="Rectangle_1420" data-name="Rectangle 1420" width="180" height="60" transform="translate(446 9953)" fill="#fff" stroke="#707070" stroke-width="1"/>
    </clipPath>
  </defs>
  <g id="magento" transform="translate(-446 -9953)" clip-path="url(#clip-path)">
    <g id="Logo" transform="translate(457.097 9960.942)">
      <path id="Path_7500" data-name="Path 7500" d="M19.753,0,0,11.4V34.175l5.639,3.26L5.6,14.657,19.713,6.51l14.114,8.147V37.425l5.639-3.25V11.382Z" fill="#f26322"/>
      <path id="Path_7501" data-name="Path 7501" d="M237.682,317.274l-2.817,1.637-2.832-1.622V294.5l-5.634,3.255.01,22.779,8.451,4.882,8.46-4.882V297.755l-5.639-3.255Z" transform="translate(-215.133 -279.843)" fill="#f26322"/>
      <path id="Path_7502" data-name="Path 7502" d="M998.457,232l7.754,19.588h.065L1013.84,232h2.951v22.445h-2.041V234.886h-.065q-.159.533-.343,1.065-.159.438-.363.97c-.134.358-.259.692-.358,1.005l-6.5,16.518h-1.851l-6.564-16.513q-.189-.438-.378-.956t-.348-.99q-.189-.567-.378-1.1h-.065v19.559H995.6V232Z" transform="translate(-946.076 -220.459)" fill="#4d4d4d"/>
      <path id="Path_7503" data-name="Path 7503" d="M1479.5,366.667a4.779,4.779,0,0,1-1.677-.846,3.984,3.984,0,0,1-1.115-1.413,4.5,4.5,0,0,1-.408-1.976,4.622,4.622,0,0,1,.532-2.354,4.12,4.12,0,0,1,1.443-1.458,7.343,7.343,0,0,1,2.12-.831,22.707,22.707,0,0,1,2.588-.438q1.194-.124,2.026-.269a6.3,6.3,0,0,0,1.349-.363,1.6,1.6,0,0,0,.752-.582,1.815,1.815,0,0,0,.234-.99v-.314a2.96,2.96,0,0,0-1.005-2.464,4.538,4.538,0,0,0-2.886-.8q-4.335,0-4.554,3.613h-1.916a5.313,5.313,0,0,1,1.742-3.767,6.9,6.9,0,0,1,4.723-1.413,6.752,6.752,0,0,1,4.205,1.179,4.545,4.545,0,0,1,1.538,3.847v8.819a1.654,1.654,0,0,0,.269,1.05,1.071,1.071,0,0,0,.8.363,1.874,1.874,0,0,0,.328-.03c.115-.02.244-.055.393-.095h.094v1.413a3.689,3.689,0,0,1-.532.174,3.32,3.32,0,0,1-.786.08,2.488,2.488,0,0,1-1.7-.552,2.364,2.364,0,0,1-.692-1.742v-.343h-.085a9.47,9.47,0,0,1-.831.975,5.6,5.6,0,0,1-1.179.911,6.585,6.585,0,0,1-1.6.657,7.6,7.6,0,0,1-2.07.249,7.519,7.519,0,0,1-2.105-.284m4.788-1.712a5.478,5.478,0,0,0,1.712-1.085,4.394,4.394,0,0,0,1.384-3.17v-2.921a6.853,6.853,0,0,1-1.9.677q-1.115.239-2.309.393-1.035.159-1.916.328a4.743,4.743,0,0,0-1.523.547,2.813,2.813,0,0,0-1.02,1.02,3.29,3.29,0,0,0-.378,1.682,3.013,3.013,0,0,0,.3,1.413,2.563,2.563,0,0,0,.786.911,3.081,3.081,0,0,0,1.145.488,6.578,6.578,0,0,0,1.383.139,6.064,6.064,0,0,0,2.339-.423" transform="translate(-1402.853 -332.586)" fill="#4d4d4d"/>
      <path id="Path_7504" data-name="Path 7504" d="M1791.548,371.145a4.321,4.321,0,0,1-1.851-3.031h1.881a2.645,2.645,0,0,0,1.523,2.026,6.917,6.917,0,0,0,3.031.612,5.246,5.246,0,0,0,3.847-1.239,4.607,4.607,0,0,0,1.239-3.409v-2.573h-.094a6.714,6.714,0,0,1-2.105,2.1,5.814,5.814,0,0,1-3.046.722,6.765,6.765,0,0,1-2.887-.6,6.384,6.384,0,0,1-2.2-1.662,7.438,7.438,0,0,1-1.4-2.558,10.515,10.515,0,0,1-.488-3.28,10.066,10.066,0,0,1,.562-3.5,7.694,7.694,0,0,1,1.508-2.558,6.215,6.215,0,0,1,2.215-1.568,6.862,6.862,0,0,1,2.682-.533,5.731,5.731,0,0,1,3.106.771,6.424,6.424,0,0,1,2.04,2.085h.095v-2.518h1.926v15.6a6.257,6.257,0,0,1-1.508,4.365,7.147,7.147,0,0,1-5.43,1.946,7.7,7.7,0,0,1-4.648-1.209m8.51-8.212a7.885,7.885,0,0,0,1.289-4.708,10.382,10.382,0,0,0-.313-2.638,5.7,5.7,0,0,0-.975-2.055,4.454,4.454,0,0,0-1.647-1.334,5.3,5.3,0,0,0-2.309-.473,4.411,4.411,0,0,0-3.752,1.787,7.792,7.792,0,0,0-1.334,4.773,9.933,9.933,0,0,0,.314,2.558,6.144,6.144,0,0,0,.94,2.04,4.436,4.436,0,0,0,1.568,1.349,4.783,4.783,0,0,0,2.229.488,4.58,4.58,0,0,0,3.986-1.792" transform="translate(-1699.991 -332.68)" fill="#4d4d4d"/>
      <path id="Path_7505" data-name="Path 7505" d="M2125.93,365.768a6.62,6.62,0,0,1-2.369-1.787,8,8,0,0,1-1.458-2.7,10.934,10.934,0,0,1-.5-3.374,10.332,10.332,0,0,1,.533-3.374,8.427,8.427,0,0,1,1.488-2.7,6.734,6.734,0,0,1,2.324-1.792,7.1,7.1,0,0,1,3.061-.642,6.7,6.7,0,0,1,3.28.737,6.147,6.147,0,0,1,2.165,1.976,8.163,8.163,0,0,1,1.179,2.842,15.581,15.581,0,0,1,.343,3.295h-12.367a9.412,9.412,0,0,0,.393,2.558,6.423,6.423,0,0,0,1.035,2.055,4.7,4.7,0,0,0,1.712,1.383,5.478,5.478,0,0,0,2.419.5,4.594,4.594,0,0,0,3.155-.99,5.405,5.405,0,0,0,1.583-2.653h1.886a6.9,6.9,0,0,1-2.2,3.862,6.522,6.522,0,0,1-4.424,1.443,7.743,7.743,0,0,1-3.235-.642m7.659-11.3a5.521,5.521,0,0,0-.911-1.821,4.162,4.162,0,0,0-1.508-1.209,4.952,4.952,0,0,0-2.165-.438,5.083,5.083,0,0,0-2.185.438,4.668,4.668,0,0,0-1.617,1.209,6.032,6.032,0,0,0-1.05,1.807,8.92,8.92,0,0,0-.518,2.259h10.3a8.586,8.586,0,0,0-.344-2.245" transform="translate(-2016.038 -332.016)" fill="#4d4d4d"/>
      <path id="Path_7506" data-name="Path 7506" d="M2460.946,350.248v2.478h.065a6.667,6.667,0,0,1,2.15-2.026,6.264,6.264,0,0,1,3.28-.8,5.386,5.386,0,0,1,3.722,1.3,4.75,4.75,0,0,1,1.458,3.752v11.526h-1.946V355.145a3.425,3.425,0,0,0-.991-2.717,3.969,3.969,0,0,0-2.717-.861,5.441,5.441,0,0,0-1.946.348,5.135,5.135,0,0,0-1.6.956,4.4,4.4,0,0,0-1.085,1.458,4.354,4.354,0,0,0-.393,1.851v10.3H2459V350.248Z" transform="translate(-2336.647 -332.491)" fill="#4d4d4d"/>
      <path id="Path_7507" data-name="Path 7507" d="M2750.595,277.273a2.71,2.71,0,0,1-.846-2.245V263.194H2747.3v-1.6h2.448V256.6h1.946v4.992h3.016v1.6h-3.016v11.521a1.518,1.518,0,0,0,.393,1.209,1.8,1.8,0,0,0,1.175.328,3.332,3.332,0,0,0,.707-.08,3.24,3.24,0,0,0,.582-.174h.094v1.662a5.445,5.445,0,0,1-1.792.284,3.512,3.512,0,0,1-2.259-.677" transform="translate(-2610.599 -243.835)" fill="#4d4d4d"/>
      <path id="Path_7508" data-name="Path 7508" d="M2928.279,365.674a6.8,6.8,0,0,1-2.369-1.792,8.021,8.021,0,0,1-1.493-2.7,11.258,11.258,0,0,1,0-6.748,8.077,8.077,0,0,1,1.493-2.7,6.811,6.811,0,0,1,2.369-1.792,7.48,7.48,0,0,1,3.155-.642,7.377,7.377,0,0,1,3.14.642,6.847,6.847,0,0,1,2.354,1.792,7.75,7.75,0,0,1,1.473,2.7,11.135,11.135,0,0,1,.5,3.374,10.9,10.9,0,0,1-.5,3.374,7.862,7.862,0,0,1-1.473,2.7,6.838,6.838,0,0,1-2.354,1.792,7.357,7.357,0,0,1-3.14.642,7.459,7.459,0,0,1-3.155-.642m5.544-1.523a4.891,4.891,0,0,0,1.727-1.473,6.6,6.6,0,0,0,1.035-2.2,10.467,10.467,0,0,0,0-5.335,6.6,6.6,0,0,0-1.035-2.2,4.879,4.879,0,0,0-1.727-1.473,5.06,5.06,0,0,0-2.384-.533,5.35,5.35,0,0,0-2.4.533,5.072,5.072,0,0,0-1.727,1.473,6.442,6.442,0,0,0-1.05,2.2,10.491,10.491,0,0,0,0,5.335,6.5,6.5,0,0,0,1.05,2.2,4.893,4.893,0,0,0,4.13,2.006,5.009,5.009,0,0,0,2.384-.533" transform="translate(-2778.41 -331.921)" fill="#4d4d4d"/>
      <path id="Path_7509" data-name="Path 7509" d="M3236.44,331.28a2.091,2.091,0,0,1,0-4.18,2.091,2.091,0,0,1,0,4.18m0-3.942a1.849,1.849,0,1,0,1.757,1.851,1.7,1.7,0,0,0-1.757-1.851m.6,2.971-.692-.99h-.224v.956h-.4v-2.319h.7c.483,0,.806.244.806.677a.623.623,0,0,1-.468.637l.667.946Zm-.607-1.986h-.309v.682h.289c.259,0,.423-.109.423-.343s-.144-.343-.4-.343" transform="translate(-3073.457 -310.826)" fill="#4d4d4d"/>
    </g>
  </g>
</svg>
