<svg xmlns="http://www.w3.org/2000/svg" xmlns:xlink="http://www.w3.org/1999/xlink" width="180" height="60" viewBox="0 0 180 60">
  <defs>
    <clipPath id="clip-path">
      <rect id="Rectangle_1429" data-name="Rectangle 1429" width="180" height="60" transform="translate(446 9953)" fill="#fff" stroke="#707070" stroke-width="1"/>
    </clipPath>
    <linearGradient id="linear-gradient" y1="-0.005" x2="0" y2="-0.005" gradientUnits="objectBoundingBox">
      <stop offset="0" stop-color="#04b6f0"/>
      <stop offset="1" stop-color="#3ecaf0"/>
    </linearGradient>
  </defs>
  <g id="opencart" transform="translate(-446 -9953)" clip-path="url(#clip-path)">
    <g id="OpenCart_logo" transform="translate(455.692 9967.063)">
      <path id="Path_7538" data-name="Path 7538" d="M16.013,16.6a8.843,8.843,0,0,1-2.142,6.041,7.351,7.351,0,0,1-5.8,2.568,7.343,7.343,0,0,1-5.8-2.568A8.844,8.844,0,0,1,.115,16.6a8.823,8.823,0,0,1,2.148-6.041,7.426,7.426,0,0,1,5.8-2.54,7.379,7.379,0,0,1,5.8,2.54A8.821,8.821,0,0,1,16.013,16.6Zm-4.725,0a4.649,4.649,0,0,0-.78-2.739A2.8,2.8,0,0,0,8.067,12.6a2.8,2.8,0,0,0-2.442,1.259A4.613,4.613,0,0,0,4.84,16.6a4.761,4.761,0,0,0,.785,2.766,2.8,2.8,0,0,0,2.442,1.259,2.8,2.8,0,0,0,2.441-1.259A4.8,4.8,0,0,0,11.288,16.6Zm21.809,0a9.293,9.293,0,0,1-1.939,5.86,6.427,6.427,0,0,1-5.341,2.749,5.907,5.907,0,0,1-3.894-1.327c0,.2.023.694.068,1.48s.067,1.433.067,1.941q0,4.21-2.509,4.207a2.206,2.206,0,0,1-1.69-.723,2.514,2.514,0,0,1-.661-1.756V10.779a2.449,2.449,0,0,1,.678-1.727,2.215,2.215,0,0,1,1.679-.722,2.305,2.305,0,0,1,2.2,1.5,4.956,4.956,0,0,1,4.052-1.813,6.446,6.446,0,0,1,5.346,2.716A9.355,9.355,0,0,1,33.1,16.6Zm-4.725,0a4.651,4.651,0,0,0-.785-2.739,3,3,0,0,0-4.883,0,4.648,4.648,0,0,0-.78,2.739,4.8,4.8,0,0,0,.78,2.766,3,3,0,0,0,4.883,0A4.8,4.8,0,0,0,28.372,16.6Zm21.917-.508a2.015,2.015,0,0,1-.56,1.637,2.769,2.769,0,0,1-1.74.451H39.461a2.284,2.284,0,0,0,1.272,2.083,5.111,5.111,0,0,0,2.509.571,6.823,6.823,0,0,0,2.769-.757,7.042,7.042,0,0,1,2.074-.757,1.842,1.842,0,0,1,1.4.6,2.041,2.041,0,0,1,.571,1.446q0,1.938-2.9,3.02a12.962,12.962,0,0,1-4.5.818,7.785,7.785,0,0,1-5.974-2.45,8.679,8.679,0,0,1-2.283-6.16,8.521,8.521,0,0,1,2.373-6.058,7.728,7.728,0,0,1,5.878-2.524A7.1,7.1,0,0,1,48.1,10.406,8.144,8.144,0,0,1,50.289,16.092Zm-4.724-1.186a2.764,2.764,0,0,0-1-1.971,2.993,2.993,0,0,0-2.052-.886,3.028,3.028,0,0,0-2.085.886,2.64,2.64,0,0,0-.967,1.971Zm20.6,7.514a2.515,2.515,0,0,1-.661,1.756,2.206,2.206,0,0,1-1.69.723q-2.475,0-2.476-3.924c0-.5.034-1.293.1-2.382s.108-1.88.108-2.383q0-4.159-2.69-4.161T56.172,16.21c0,.5.028,1.3.079,2.383s.085,1.88.085,2.382q0,3.921-2.441,3.924a2.185,2.185,0,0,1-1.684-.723,2.494,2.494,0,0,1-.667-1.756V10.774A2.42,2.42,0,0,1,52.21,9.04a2.208,2.208,0,0,1,1.69-.711,2.371,2.371,0,0,1,2.356,1.5Q57.4,8.018,60.3,8.018a6.135,6.135,0,0,1,4.261,1.417,5.46,5.46,0,0,1,1.6,4.167Zm14.824-.5q0,1.6-2.085,2.535a8.4,8.4,0,0,1-3.509.756,7.342,7.342,0,0,1-5.8-2.568A8.845,8.845,0,0,1,67.441,16.6a8.872,8.872,0,0,1,2.193-6.086,7.291,7.291,0,0,1,5.759-2.5,9.364,9.364,0,0,1,3.538.6,2.711,2.711,0,0,1,2.056,2.54,2.376,2.376,0,0,1-.542,1.541,1.724,1.724,0,0,1-1.39.666,5.537,5.537,0,0,1-1.662-.383A5.418,5.418,0,0,0,75.67,12.6a3.148,3.148,0,0,0-2.629,1.2,4.307,4.307,0,0,0-.876,2.8,4.6,4.6,0,0,0,.786,2.733A2.786,2.786,0,0,0,75.4,20.625a6.281,6.281,0,0,0,1.9-.413,6.465,6.465,0,0,1,1.752-.411,1.759,1.759,0,0,1,1.362.666A2.192,2.192,0,0,1,80.987,21.918Zm17.175.5a2.513,2.513,0,0,1-.661,1.756,2.216,2.216,0,0,1-1.7.723,2.266,2.266,0,0,1-2.2-1.5A4.954,4.954,0,0,1,89.55,25.21a6.478,6.478,0,0,1-5.38-2.749,9.437,9.437,0,0,1-1.9-5.86,9.466,9.466,0,0,1,1.9-5.866,6.538,6.538,0,0,1,5.38-2.716A4.955,4.955,0,0,1,93.6,9.831a2.264,2.264,0,0,1,2.2-1.5,2.218,2.218,0,0,1,1.68.722,2.438,2.438,0,0,1,.677,1.722ZM93.438,16.6a4.644,4.644,0,0,0-.78-2.739A2.854,2.854,0,0,0,90.217,12.6a2.8,2.8,0,0,0-2.442,1.259,4.615,4.615,0,0,0-.784,2.739,4.921,4.921,0,0,0,.756,2.766,2.872,2.872,0,0,0,2.471,1.259,2.8,2.8,0,0,0,2.441-1.259A4.794,4.794,0,0,0,93.438,16.6Zm16.779-6.137a2.078,2.078,0,0,1-1.475,2.083q-1.364.458-2.718.937a3.3,3.3,0,0,0-1.481,3.14v5.8a2.523,2.523,0,0,1-.666,1.756,2.349,2.349,0,0,1-3.391,0,2.49,2.49,0,0,1-.668-1.756V10.774a2.439,2.439,0,0,1,.661-1.734,2.228,2.228,0,0,1,1.7-.711,2.372,2.372,0,0,1,2.356,1.5A4.288,4.288,0,0,1,107.8,8.018a2.323,2.323,0,0,1,1.712.722A2.4,2.4,0,0,1,110.217,10.463Zm12.326.215a1.864,1.864,0,0,1-1.231,1.993,9.39,9.39,0,0,1-2.528.214V22.42a2.522,2.522,0,0,1-.666,1.756,2.337,2.337,0,0,1-3.381,0,2.481,2.481,0,0,1-.677-1.756V12.885a4.657,4.657,0,0,1-2.125-.366,1.92,1.92,0,0,1-.912-1.841,1.846,1.846,0,0,1,.938-1.813,4.544,4.544,0,0,1,2.1-.361V6.483q0-3.565,2.362-3.562c1.571,0,2.362,1.185,2.362,3.562V8.5a9.389,9.389,0,0,1,2.528.214A1.842,1.842,0,0,1,122.543,10.677ZM160.5,7.81c-.013-1.449-2.693-2.107-9.633-2.107-16.281,0-20.412-.695-24.832-5.342,1.86,2.79,2.877,8.023,20.086,7.763,17.955-.276,7,4.625,3.814,10.162,5.748-5.125,10.547-8.5,10.565-10.456ZM137.621,22.692a2.461,2.461,0,0,1-4.922,0v0a2.473,2.473,0,0,1,2.462-2.46h0A2.459,2.459,0,0,1,137.621,22.692Zm11.212,0a2.461,2.461,0,0,1-4.922,0v0a2.472,2.472,0,0,1,2.462-2.46h0A2.459,2.459,0,0,1,148.833,22.692Z" transform="translate(0)" fill="url(#linear-gradient)"/>
    </g>
  </g>
</svg>
