<svg xmlns="http://www.w3.org/2000/svg" xmlns:xlink="http://www.w3.org/1999/xlink" width="180" height="60" viewBox="0 0 180 60">
  <defs>
    <clipPath id="clip-path">
      <rect id="Rectangle_1422" data-name="Rectangle 1422" width="180" height="60" transform="translate(446 9953)" fill="#fff" stroke="#707070" stroke-width="1"/>
    </clipPath>
  </defs>
  <g id="symfony" transform="translate(-446 -9953)" clip-path="url(#clip-path)">
    <g id="g10" transform="translate(425.533 9933.082)">
      <g id="g12" transform="translate(30.585 29.998)">
        <circle id="circle14" cx="19.92" cy="19.92" r="19.92"/>
        <path id="path16" d="M61.918,40.384a7.146,7.146,0,0,0-5.1,2.729,17.2,17.2,0,0,0-3.123,5.747c-1.248-1.023-2.211-2.347-4.214-2.925a5.149,5.149,0,0,0-4.669.852,4.187,4.187,0,0,0-1.428,2.081,4.709,4.709,0,0,0,1.191,4.319l1.224,1.31a1.862,1.862,0,0,1,.563,1.89,2.26,2.26,0,0,1-2.875,1.325c-.578-.179-1.408-.608-1.221-1.213a5.3,5.3,0,0,1,.35-.647,3,3,0,0,0,.155-.4,1.62,1.62,0,0,0-.913-2.03,1.358,1.358,0,0,0-1.865.943c-.348,1.129.192,3.173,3.083,4.065,3.386,1.041,6.251-.8,6.657-3.208.256-1.506-.425-2.626-1.67-4.065l-1.015-1.122a1.852,1.852,0,0,1-.19-2.466,2.18,2.18,0,0,1,2.555-.629c1.829.5,2.644,1.765,4,2.789-.561,1.841-.929,3.69-1.26,5.349l-.2,1.235c-.973,5.1-1.714,7.9-3.643,9.506a3.116,3.116,0,0,1-1.781.72.513.513,0,0,1-.588-.42c-.01-.308.25-.449.423-.588a1.068,1.068,0,0,0,.621-1.12,1.69,1.69,0,0,0-1.816-1.613,2.1,2.1,0,0,0-1.953,2.136c.047,1.408,1.36,2.464,3.339,2.4,1.059-.035,3.422-.465,5.75-3.234,2.71-3.174,3.469-6.812,4.039-9.475l.636-3.515c.354.042.732.071,1.143.08,3.376.072,5.064-1.677,5.09-2.948a1.379,1.379,0,0,0-1.236-1.51,1.409,1.409,0,0,0-1.337,1.085c-.154.71,1.074,1.35.114,1.972a5.349,5.349,0,0,1-3.626.5l.314-1.731c.638-3.281,1.427-7.318,4.417-7.415.218-.011,1.015.01,1.034.536,0,.176-.038.221-.244.624a1.427,1.427,0,0,0-.28.889,1.4,1.4,0,0,0,1.588,1.355,1.717,1.717,0,0,0,1.568-1.858c-.051-1.451-1.58-2.367-3.6-2.3Z" transform="translate(-33.289 -33.013)" fill="#fff"/>
      </g>
      <g id="g18" transform="translate(80.848 37.396)">
        <g id="g20" transform="translate(62.816 6.918)">
          <path id="path22" d="M197.64,50.172c4.594,0,7.673,3.319,7.673,7.91a7.69,7.69,0,1,1-15.374,0C189.939,53.491,193.017,50.172,197.64,50.172Zm0,13.571c3.259,0,4.71-2.963,4.71-5.661,0-2.873-1.748-5.657-4.71-5.657-2.992,0-4.74,2.785-4.74,5.657C192.9,60.78,194.352,63.743,197.64,63.743Z" transform="translate(-189.939 -50.172)"/>
        </g>
        <path id="path24" d="M185.168,48.747V47.7h-4V46.26c0-2.044.3-3.587,2.7-3.587.044,0,.091,0,.137.006,0,0,0-.008.009-.008a1.2,1.2,0,0,0,1.257-1.159l.048-.913a11.368,11.368,0,0,0-1.866-.177c-4.118,0-5.065,2.4-5.065,6.074v1.2h-3.559V48.87a1.263,1.263,0,0,0,1.247,1.077s.006,0,.01,0h2.3V62.807h1.538a1.266,1.266,0,0,0,1.246-1.094V49.95h2.786a1.263,1.263,0,0,0,1.216-1.2Z" transform="translate(-122.733 -40.423)"/>
        <path id="path26" d="M132.043,50.672s-.008,0-.015,0a1.611,1.611,0,0,0-1.4.949l-3.831,11.551h-.06L122.987,51.63a1.609,1.609,0,0,0-1.406-.955c-.007,0-.009,0-.015,0h-1.942l5.126,14.1a8.371,8.371,0,0,1,.535,1.6c0,.3-.83,3.733-3.32,3.733-.061,0-.123-.007-.184-.011a1.172,1.172,0,0,0-1.221,1.092l-.076.964a9.164,9.164,0,0,0,1.9.208c3.673,0,4.769-3.35,5.807-6.252l5.568-15.436h-1.714Z" transform="translate(-106.704 -43.399)"/>
        <path id="path28" d="M109.052,51.008c-2.3-1.177-4.816-1.976-4.86-4.344.007-2.514,2.318-3.175,4.1-3.173h.02a8.964,8.964,0,0,1,2,.209c.008,0,.006-.01.016-.01a1.2,1.2,0,0,0,1.249-1.081l.051-.913a14.745,14.745,0,0,0-3.449-.438c-3.871.024-6.746,1.972-6.755,5.69,0,3.25,2.194,4.51,4.551,5.651,2.311,1.111,4.84,2.028,4.862,4.711-.013,2.8-2.714,3.829-4.575,3.833a11.479,11.479,0,0,1-3.266-.589c-.624-.1-1.135.448-1.217,1.177l-.084.813a13.8,13.8,0,0,0,4.183.829h.016c4.337-.032,7.708-1.761,7.721-6.252,0-3.464-2.211-4.92-4.556-6.112Z" transform="translate(-101.417 -40.665)"/>
        <path id="path30" d="M163.165,65.638h0a1.261,1.261,0,0,0,1.228-.986v-8.7c0-3.289-1.389-5.778-5.243-5.778a5.389,5.389,0,0,0-4.681,2.934,4.464,4.464,0,0,0-4.294-2.934,5.105,5.105,0,0,0-4.8,2.549h-.06v-.94a1.263,1.263,0,0,0-1.261-1.25c-.006,0-.009,0-.013,0h-1.332V65.637h1.511a1.264,1.264,0,0,0,1.263-1.264.071.071,0,0,1,.013-.039V58.022c0-2.814,1.125-5.6,3.968-5.6,2.25,0,2.7,2.34,2.7,4.207v9.006H153.7a1.258,1.258,0,0,0,1.25-1.152V58.022c0-2.814,1.127-5.6,3.97-5.6,2.252,0,2.7,2.34,2.7,4.207v9.006h1.55Z" transform="translate(-113.408 -43.254)"/>
        <path id="path32" d="M227.229,65.638h0a1.262,1.262,0,0,0,1.258-1.208V56.66c0-4.058-1.75-6.489-5.661-6.489a5.435,5.435,0,0,0-4.948,2.758h-.058V51.8s0,0,0,0a1.264,1.264,0,0,0-1.262-1.265c-.008,0-.009,0-.014,0h-1.418V65.637h1.533a1.26,1.26,0,0,0,1.251-1.166V58.645c0-3.673,1.423-6.22,4.593-6.22,2.432.147,3.2,1.864,3.2,5.391v7.821h1.526Z" transform="translate(-134.437 -43.254)"/>
        <path id="path34" d="M248.227,50.672c-.007,0-.01,0-.016,0a1.61,1.61,0,0,0-1.4.949l-3.83,11.551h-.062L239.167,51.63a1.609,1.609,0,0,0-1.405-.955c-.006,0-.009,0-.014,0h-1.942l5.126,14.1a8.481,8.481,0,0,1,.536,1.6c0,.3-.831,3.733-3.322,3.733-.06,0-.121-.007-.184-.011a1.176,1.176,0,0,0-1.222,1.092l-.075.964a9.159,9.159,0,0,0,1.9.208c3.673,0,4.769-3.35,5.807-6.252l5.57-15.436h-1.714Z" transform="translate(-140.442 -43.399)"/>
      </g>
    </g>
  </g>
</svg>
