<svg xmlns="http://www.w3.org/2000/svg" xmlns:xlink="http://www.w3.org/1999/xlink" width="180" height="60" viewBox="0 0 180 60">
  <defs>
    <clipPath id="clip-path">
      <rect id="Rectangle_1425" data-name="Rectangle 1425" width="180" height="60" transform="translate(446 9953)" fill="#fff" stroke="#707070" stroke-width="1"/>
    </clipPath>
    <clipPath id="clip-path-2">
      <path id="Path_7527" data-name="Path 7527" d="M0,0H169.611V28.269H0Z" fill="#fff"/>
    </clipPath>
  </defs>
  <g id="nopcommerce" transform="translate(-446 -9953)" clip-path="url(#clip-path)">
    <g id="logo" transform="translate(451.194 9968.865)" clip-path="url(#clip-path-2)">
      <path id="Path_7523" data-name="Path 7523" d="M52.894,11.919a3.854,3.854,0,0,1,2.786-1.336,1.845,1.845,0,0,1,1.457.542,2.11,2.11,0,0,1,.479,1.452v6.593h1.871V12.3a3.191,3.191,0,0,0-.872-2.385,3.275,3.275,0,0,0-2.4-.859,4.3,4.3,0,0,0-1.882.392,5.741,5.741,0,0,0-1.563,1.133l-.276-1.377H51.023V19.17H52.9V11.919h0Zm17.278-.01a4.47,4.47,0,0,0-1.021-1.579,4.2,4.2,0,0,0-1.531-.955A5.656,5.656,0,0,0,65.7,9.057a5.25,5.25,0,0,0-1.935.35A4.524,4.524,0,0,0,62.2,10.425a4.714,4.714,0,0,0-1.052,1.642,6.057,6.057,0,0,0-.383,2.227,5.894,5.894,0,0,0,.372,2.173,4.587,4.587,0,0,0,1.021,1.59,4.238,4.238,0,0,0,1.53.976,5.48,5.48,0,0,0,1.925.328,5.278,5.278,0,0,0,1.936-.35,4.457,4.457,0,0,0,1.563-1.029,4.808,4.808,0,0,0,1.052-1.664,6.143,6.143,0,0,0,.383-2.237,5.917,5.917,0,0,0-.372-2.173Zm-1.829,4.071a3.178,3.178,0,0,1-.649,1.144,2.252,2.252,0,0,1-.936.615,3.35,3.35,0,0,1-1.085.181,2.913,2.913,0,0,1-1.085-.212,2.588,2.588,0,0,1-.946-.657,3.327,3.327,0,0,1-.67-1.156,5.053,5.053,0,0,1-.255-1.707,5.6,5.6,0,0,1,.244-1.791,3.056,3.056,0,0,1,.649-1.134,2.2,2.2,0,0,1,.936-.594,3.546,3.546,0,0,1,1.085-.17,3.051,3.051,0,0,1,1.085.2,2.506,2.506,0,0,1,.947.647,3.326,3.326,0,0,1,.669,1.145,4.957,4.957,0,0,1,.255,1.7A5.6,5.6,0,0,1,68.343,15.979Zm9.4,3.063a4.456,4.456,0,0,0,1.573-.975,4.726,4.726,0,0,0,1.106-1.675,6.389,6.389,0,0,0,.415-2.417,5.261,5.261,0,0,0-1.149-3.648,4.025,4.025,0,0,0-3.146-1.271,3.607,3.607,0,0,0-1.7.381,6.122,6.122,0,0,0-1.3.912l-.276-1.293H71.716V24.046h1.85V18.661a3.714,3.714,0,0,0,1.074.509,4.448,4.448,0,0,0,1.308.191,5.252,5.252,0,0,0,1.8-.319Zm.468-7.537a4.194,4.194,0,0,1,.67,2.512,5.262,5.262,0,0,1-.276,1.824,3.481,3.481,0,0,1-.723,1.208,2.6,2.6,0,0,1-1.021.668,3.434,3.434,0,0,1-1.148.2,3.755,3.755,0,0,1-1.106-.17,3.461,3.461,0,0,1-1.042-.529V11.9a4.5,4.5,0,0,1,1.021-.88,2.762,2.762,0,0,1,1.553-.434,2.387,2.387,0,0,1,2.073.921Zm9.462,5.162a3.52,3.52,0,0,1-1.286-.837,3.826,3.826,0,0,1-.862-1.41,5.749,5.749,0,0,1-.308-1.972,5.783,5.783,0,0,1,.319-2.047,3.67,3.67,0,0,1,.872-1.368,3.36,3.36,0,0,1,1.3-.773,5.1,5.1,0,0,1,1.6-.243,4.875,4.875,0,0,1,1.477.212,6.182,6.182,0,0,1,1.16.488l.722-2.353a7.618,7.618,0,0,0-1.392-.541,8.143,8.143,0,0,0-2.287-.264,8.474,8.474,0,0,0-2.988.5,6.391,6.391,0,0,0-2.254,1.4,6.082,6.082,0,0,0-1.425,2.183,7.75,7.75,0,0,0-.5,2.831,7.568,7.568,0,0,0,.521,2.872,6.246,6.246,0,0,0,1.457,2.184,6.4,6.4,0,0,0,2.254,1.389,8.286,8.286,0,0,0,2.893.487,9.073,9.073,0,0,0,2.329-.254,5.825,5.825,0,0,0,1.371-.508L92,16.328a3.994,3.994,0,0,1-1.105.445,6.542,6.542,0,0,1-1.617.171,4.5,4.5,0,0,1-1.606-.276Z" transform="translate(-4.496 -0.49)" fill="#363e4e"/>
      <path id="Path_7524" data-name="Path 7524" d="M106.833,12.058a4.743,4.743,0,0,0-1.106-1.641,4.591,4.591,0,0,0-1.67-1.009,6.288,6.288,0,0,0-2.095-.339,5.893,5.893,0,0,0-2.106.372,4.83,4.83,0,0,0-2.84,2.788,6.08,6.08,0,0,0-.414,2.311,5.623,5.623,0,0,0,.4,2.194,4.641,4.641,0,0,0,1.105,1.622,4.815,4.815,0,0,0,1.67,1.008,6.125,6.125,0,0,0,2.095.348,5.893,5.893,0,0,0,2.106-.37,4.933,4.933,0,0,0,1.7-1.071,5.006,5.006,0,0,0,1.138-1.7,5.806,5.806,0,0,0,.415-2.248,5.9,5.9,0,0,0-.4-2.269Zm-3,3.774a2.626,2.626,0,0,1-.457.922,1.747,1.747,0,0,1-.659.509,1.954,1.954,0,0,1-.777.159,1.914,1.914,0,0,1-1.467-.72,3.366,3.366,0,0,1-.637-2.269,5.381,5.381,0,0,1,.17-1.474,2.739,2.739,0,0,1,.458-.943,1.607,1.607,0,0,1,.659-.51,2.088,2.088,0,0,1,.776-.148,1.832,1.832,0,0,1,1.467.709,2.758,2.758,0,0,1,.468.954,5.108,5.108,0,0,1,.17,1.41,4.956,4.956,0,0,1-.17,1.4Zm7.672-3.307a2.724,2.724,0,0,1,.915-.784,2.233,2.233,0,0,1,1.063-.3,1.159,1.159,0,0,1,.914.383,1.468,1.468,0,0,1,.341,1.017v6.636h3.147v-7.04a2.331,2.331,0,0,1,.915-.741,2.541,2.541,0,0,1,1.063-.254,1.162,1.162,0,0,1,.915.383,1.472,1.472,0,0,1,.34,1.017v6.636h3.148V12.525a3.461,3.461,0,0,0-.894-2.576,3.459,3.459,0,0,0-2.531-.88A4.122,4.122,0,0,0,119,9.493a5.566,5.566,0,0,0-1.542,1.124,3.07,3.07,0,0,0-3-1.548,4,4,0,0,0-1.807.4,5.494,5.494,0,0,0-1.489,1.1L110.8,9.3h-2.446V19.479H111.5V12.525h0Zm17.035,0a2.724,2.724,0,0,1,.915-.784,2.238,2.238,0,0,1,1.063-.3,1.162,1.162,0,0,1,.915.383,1.472,1.472,0,0,1,.34,1.017v6.636h3.148v-7.04a2.328,2.328,0,0,1,.914-.741,2.544,2.544,0,0,1,1.063-.254,1.161,1.161,0,0,1,.915.383,1.467,1.467,0,0,1,.34,1.017v6.636H141.3V12.525a3.461,3.461,0,0,0-.894-2.576,3.458,3.458,0,0,0-2.53-.88,4.122,4.122,0,0,0-1.84.424,5.586,5.586,0,0,0-1.542,1.124,3.07,3.07,0,0,0-3-1.548,4,4,0,0,0-1.808.4,5.49,5.49,0,0,0-1.488,1.1L127.837,9.3h-2.446V19.479h3.148V12.525h0Zm23.112,1.442a4.947,4.947,0,0,0-1.255-3.626,4.505,4.505,0,0,0-3.36-1.272,5.431,5.431,0,0,0-2.095.392,4.66,4.66,0,0,0-1.627,1.113,5.02,5.02,0,0,0-1.053,1.728,6.348,6.348,0,0,0-.372,2.216,5.454,5.454,0,0,0,.457,2.332,4.545,4.545,0,0,0,1.234,1.611,5.116,5.116,0,0,0,1.807.943,7.606,7.606,0,0,0,2.18.307,9.442,9.442,0,0,0,2.158-.212,7.464,7.464,0,0,0,1.457-.488l-.574-2.161a5.193,5.193,0,0,1-1.105.4,6.141,6.141,0,0,1-1.532.17,4.052,4.052,0,0,1-2.084-.488,1.662,1.662,0,0,1-.83-1.547V15.3h6.593V13.967Zm-6.529-.763a2.307,2.307,0,0,1,.574-1.41,1.62,1.62,0,0,1,1.233-.52,1.41,1.41,0,0,1,.691.159,1.341,1.341,0,0,1,.468.424,1.876,1.876,0,0,1,.266.6,2.877,2.877,0,0,1,.085.7l-3.317.043Zm10.311,6.276V14.391a3.024,3.024,0,0,1,.649-2.2,2.228,2.228,0,0,1,1.627-.636,3.247,3.247,0,0,1,.894.106,3.106,3.106,0,0,1,.6.233l.51-2.438a2.538,2.538,0,0,0-.626-.264,3.037,3.037,0,0,0-.862-.117,3.356,3.356,0,0,0-2,.615,3.019,3.019,0,0,0-.659.647,4.915,4.915,0,0,0-.468.753L154.775,9.3h-2.468V19.478h3.126Zm8.935-2.216a2.382,2.382,0,0,1-.915-.531,2.788,2.788,0,0,1-.659-.954,3.577,3.577,0,0,1-.255-1.432,3.032,3.032,0,0,1,.766-2.257,2.725,2.725,0,0,1,2-.753,3.41,3.41,0,0,1,1.052.17,4.727,4.727,0,0,1,.947.424l.659-2.141a5.737,5.737,0,0,0-1.584-.572,7.74,7.74,0,0,0-1.435-.149,6.314,6.314,0,0,0-2.276.392,5.256,5.256,0,0,0-1.765,1.1,4.865,4.865,0,0,0-1.148,1.7,5.668,5.668,0,0,0-.4,2.173,5.7,5.7,0,0,0,.426,2.28,4.747,4.747,0,0,0,1.159,1.654,4.842,4.842,0,0,0,1.744,1.007,6.893,6.893,0,0,0,2.2.338,7.06,7.06,0,0,0,1.872-.233,5.429,5.429,0,0,0,1.212-.445l-.574-2.121a5.626,5.626,0,0,1-.8.329,3.689,3.689,0,0,1-1.2.18,3.388,3.388,0,0,1-1.021-.159Zm13.5-3.3a4.947,4.947,0,0,0-1.255-3.626,4.508,4.508,0,0,0-3.36-1.272,5.436,5.436,0,0,0-2.1.392,4.669,4.669,0,0,0-1.627,1.113,5,5,0,0,0-1.052,1.728,6.348,6.348,0,0,0-.372,2.216,5.454,5.454,0,0,0,.457,2.332A4.543,4.543,0,0,0,169.8,18.46a5.122,5.122,0,0,0,1.808.943,7.6,7.6,0,0,0,2.179.307,9.456,9.456,0,0,0,2.159-.212,7.464,7.464,0,0,0,1.457-.488l-.574-2.161a5.225,5.225,0,0,1-1.106.4,6.139,6.139,0,0,1-1.531.17,4.056,4.056,0,0,1-2.085-.488,1.662,1.662,0,0,1-.829-1.547V15.3h6.593V13.967ZM171.34,13.2a2.307,2.307,0,0,1,.574-1.41,1.62,1.62,0,0,1,1.233-.52,1.408,1.408,0,0,1,.691.159,1.341,1.341,0,0,1,.468.424,1.877,1.877,0,0,1,.266.6,2.877,2.877,0,0,1,.085.7l-3.317.043Z" transform="translate(-8.512 -0.799)" fill="#363e4e"/>
      <path id="Path_7525" data-name="Path 7525" d="M33.475,28.156A4.318,4.318,0,0,1,29.1,23.877a4.977,4.977,0,0,1,4.942-4.828,4.568,4.568,0,0,1,4.5,4.318,5.007,5.007,0,0,1-5.061,4.789Zm-16.08-3.623a4.891,4.891,0,0,1,4.673-4.788,3.5,3.5,0,0,1,3.421,2.677,4.89,4.89,0,0,1-4.5,5.816,3.555,3.555,0,0,1-3.6-3.705Zm20.7-10.9a3.259,3.259,0,0,0-1.377-3.967,4.71,4.71,0,0,0-5.94,1.076,3.731,3.731,0,0,0-1,2.82A3.526,3.526,0,0,0,33.815,16.7a4.9,4.9,0,0,0,4.274-3.07ZM22.1,17.5a2.983,2.983,0,0,1-3.035-3.784,4.752,4.752,0,0,1,4.4-3.6,3.033,3.033,0,0,1,3.111,3.8A4.735,4.735,0,0,1,22.1,17.5ZM8.319,24.739a4.779,4.779,0,0,1,2.994-4.016,2.937,2.937,0,0,1,4.21,3.055,4.791,4.791,0,0,1-2.784,4.1c-2.255,1.122-4.466-.3-4.42-3.141ZM35.341,0A2.882,2.882,0,0,1,36.97.484a2.717,2.717,0,0,1,1,3.739,4.879,4.879,0,0,1-5.192,2.383,2.8,2.8,0,0,1-1.8-4.438A4.833,4.833,0,0,1,35.341,0ZM0,24.828a4.581,4.581,0,0,1,2.644-3.505,2.473,2.473,0,0,1,3.782,2.365,4.79,4.79,0,0,1-2.639,4.128C1.819,28.87,0,27.761,0,24.828ZM23.107,8.076a2.549,2.549,0,0,1-2.573-3.383,4.587,4.587,0,0,1,4.952-3.017A2.484,2.484,0,0,1,27.4,4.949a4.674,4.674,0,0,1-4.292,3.128ZM14.59,11.433a2.489,2.489,0,0,1,2.429,3.058,4.511,4.511,0,0,1-3.629,3.541,2.456,2.456,0,0,1-2.92-2.458,4.387,4.387,0,0,1,4.119-4.14ZM12.081,7.1c.069-2.23,2.738-4.371,4.854-3.891a2.255,2.255,0,0,1,1.789,2.015c.2,2.231-2.617,4.675-4.827,4.186A2.222,2.222,0,0,1,12.081,7.1ZM4.76,18.754a2.122,2.122,0,0,1-2.143-2.292A4.551,4.551,0,0,1,6.24,12.284a2.164,2.164,0,0,1,2.6,2.012,4.47,4.47,0,0,1-4.077,4.459ZM4.906,8.4a4.169,4.169,0,0,1,3.6-3.693A1.887,1.887,0,0,1,10.572,7a4.328,4.328,0,0,1-3.493,3.334A1.842,1.842,0,0,1,4.905,8.4Z" transform="translate(0 0)" fill="#40bdd7"/>
      <path id="Path_7526" data-name="Path 7526" d="M33.475,28.156A4.318,4.318,0,0,1,29.1,23.877a4.977,4.977,0,0,1,4.942-4.828,4.568,4.568,0,0,1,4.5,4.318,5.007,5.007,0,0,1-5.061,4.789Zm-16.08-3.623a4.891,4.891,0,0,1,4.673-4.788,3.5,3.5,0,0,1,3.421,2.677,4.89,4.89,0,0,1-4.5,5.816,3.555,3.555,0,0,1-3.6-3.705Zm20.7-10.9a3.259,3.259,0,0,0-1.377-3.967,4.71,4.71,0,0,0-5.94,1.076,3.731,3.731,0,0,0-1,2.82A3.526,3.526,0,0,0,33.815,16.7a4.9,4.9,0,0,0,4.274-3.07ZM22.1,17.5a2.983,2.983,0,0,1-3.035-3.784,4.752,4.752,0,0,1,4.4-3.6,3.033,3.033,0,0,1,3.111,3.8A4.735,4.735,0,0,1,22.1,17.5ZM8.319,24.739a4.779,4.779,0,0,1,2.994-4.016,2.937,2.937,0,0,1,4.21,3.055,4.791,4.791,0,0,1-2.784,4.1c-2.255,1.122-4.466-.3-4.42-3.141ZM35.341,0A2.882,2.882,0,0,1,36.97.484a2.717,2.717,0,0,1,1,3.739,4.879,4.879,0,0,1-5.192,2.383,2.8,2.8,0,0,1-1.8-4.438A4.833,4.833,0,0,1,35.341,0ZM0,24.828a4.581,4.581,0,0,1,2.644-3.505,2.473,2.473,0,0,1,3.782,2.365,4.79,4.79,0,0,1-2.639,4.128C1.819,28.87,0,27.761,0,24.828ZM23.107,8.076a2.549,2.549,0,0,1-2.573-3.383,4.587,4.587,0,0,1,4.952-3.017A2.484,2.484,0,0,1,27.4,4.949a4.674,4.674,0,0,1-4.292,3.128ZM14.59,11.433a2.489,2.489,0,0,1,2.429,3.058,4.511,4.511,0,0,1-3.629,3.541,2.456,2.456,0,0,1-2.92-2.458,4.387,4.387,0,0,1,4.119-4.14ZM12.081,7.1c.069-2.23,2.738-4.371,4.854-3.891a2.255,2.255,0,0,1,1.789,2.015c.2,2.231-2.617,4.675-4.827,4.186A2.222,2.222,0,0,1,12.081,7.1ZM4.76,18.754a2.122,2.122,0,0,1-2.143-2.292A4.551,4.551,0,0,1,6.24,12.284a2.164,2.164,0,0,1,2.6,2.012,4.47,4.47,0,0,1-4.077,4.459ZM4.906,8.4a4.169,4.169,0,0,1,3.6-3.693A1.887,1.887,0,0,1,10.572,7a4.328,4.328,0,0,1-3.493,3.334A1.842,1.842,0,0,1,4.905,8.4Z" transform="translate(0 0)" fill="#40bdd7"/>
    </g>
  </g>
</svg>
