<svg xmlns="http://www.w3.org/2000/svg" xmlns:xlink="http://www.w3.org/1999/xlink" width="180" height="60" viewBox="0 0 180 60">
  <defs>
    <clipPath id="clip-path">
      <rect id="Rectangle_1424" data-name="Rectangle 1424" width="180" height="60" transform="translate(446 9953)" fill="#fff" stroke="#707070" stroke-width="1"/>
    </clipPath>
  </defs>
  <g id="woocommerce" transform="translate(-446 -9953)" clip-path="url(#clip-path)">
    <g id="woocommerce-svgrepo-com" transform="translate(453.14 9971.142)">
      <path id="Path_7521" data-name="Path 7521" d="M50.987,0H5.218A5.219,5.219,0,0,0,0,5.241v17.47a5.239,5.239,0,0,0,5.241,5.241H26.919l9.908,5.517-2.253-5.517H50.987a5.239,5.239,0,0,0,5.241-5.241V5.241A5.239,5.239,0,0,0,50.987,0ZM4.253,4.046A1.85,1.85,0,0,0,2.8,4.758,2.053,2.053,0,0,0,2.437,6.3Q4.471,19.229,6.23,23.746c.46,1.1.988,1.632,1.609,1.586.965-.069,2.115-1.4,3.471-4q1.069-2.207,3.31-6.62,1.862,6.517,5.08,9.793a2.311,2.311,0,0,0,1.816.851,1.481,1.481,0,0,0,1.218-.828,2.728,2.728,0,0,0,.276-1.517,42.811,42.811,0,0,1,.644-8.758c.6-3.862,1.333-6.643,2.23-8.3a2,2,0,0,0,.23-1.1A1.8,1.8,0,0,0,25.4,3.54a2,2,0,0,0-1.448-.46,1.766,1.766,0,0,0-1.517,1.011Q20.3,7.988,19.4,16.735a42.931,42.931,0,0,1-2.184-7.862c-.253-1.356-.873-2-1.885-1.931a2.182,2.182,0,0,0-1.724,1.379L8.575,17.907q-1.241-5-2.322-12.206A1.679,1.679,0,0,0,4.253,4.046ZM48.55,5.7a5.294,5.294,0,0,1,3.678,2.667,8.7,8.7,0,0,1,1.1,4.529A12.315,12.315,0,0,1,51.538,19.4c-1.379,2.3-3.172,3.448-5.4,3.448a6.038,6.038,0,0,1-1.241-.138,5.294,5.294,0,0,1-3.678-2.666,8.9,8.9,0,0,1-1.1-4.552,12.181,12.181,0,0,1,1.793-6.482c1.4-2.3,3.2-3.448,5.4-3.448A6.033,6.033,0,0,1,48.55,5.7Zm-.965,12.436a6.081,6.081,0,0,0,1.747-3.4,9.926,9.926,0,0,0,.161-1.7,5.833,5.833,0,0,0-.414-2.092c-.345-.9-.8-1.379-1.356-1.494-.827-.161-1.632.3-2.39,1.425a7.429,7.429,0,0,0-1.218,2.736,7.984,7.984,0,0,0-.161,1.678,5.833,5.833,0,0,0,.414,2.092c.345.9.8,1.379,1.356,1.494A2.21,2.21,0,0,0,47.584,18.137Zm-9.77-9.77A5.342,5.342,0,0,0,34.137,5.7,6.035,6.035,0,0,0,32.9,5.563c-2.207,0-4,1.149-5.4,3.448A12.18,12.18,0,0,0,25.7,15.494a8.9,8.9,0,0,0,1.1,4.552,5.294,5.294,0,0,0,3.678,2.666,6.034,6.034,0,0,0,1.241.138c2.23,0,4.023-1.149,5.4-3.448A12.315,12.315,0,0,0,38.918,12.9,8.7,8.7,0,0,0,37.815,8.367Zm-2.9,6.367a6.08,6.08,0,0,1-1.747,3.4,2.21,2.21,0,0,1-1.862.736c-.552-.115-1.012-.6-1.356-1.494a5.834,5.834,0,0,1-.414-2.092,7.991,7.991,0,0,1,.161-1.678,7.432,7.432,0,0,1,1.218-2.736c.759-1.126,1.563-1.586,2.391-1.425.552.115,1.012.6,1.356,1.494a5.833,5.833,0,0,1,.414,2.092A8.055,8.055,0,0,1,34.918,14.735Z" transform="translate(0)" fill="#7f54b3" fill-rule="evenodd"/>
      <path id="Path_7522" data-name="Path 7522" d="M186.58,20.427a7.776,7.776,0,0,0-2.3,5.793,8.329,8.329,0,0,0,2.276,6.092,7.982,7.982,0,0,0,5.954,2.322,8.655,8.655,0,0,0,2.391-.368V30.541a7.735,7.735,0,0,1-2.092.345,3.764,3.764,0,0,1-2.919-1.218,4.82,4.82,0,0,1-1.1-3.333,4.777,4.777,0,0,1,1.081-3.218,3.441,3.441,0,0,1,2.736-1.264,8.585,8.585,0,0,1,2.3.345V18.473a9.6,9.6,0,0,0-2.506-.3A7.828,7.828,0,0,0,186.58,20.427Zm15.953-2.276a6.183,6.183,0,0,0-4.965,2.115,8.845,8.845,0,0,0-1.77,5.908,9.766,9.766,0,0,0,1.77,6.276,6.253,6.253,0,0,0,5.149,2.184,6.111,6.111,0,0,0,5.034-2.184,9.5,9.5,0,0,0,1.77-6.115,9.191,9.191,0,0,0-1.793-6.069A6.509,6.509,0,0,0,202.533,18.151ZM204.349,30.1a2.042,2.042,0,0,1-1.816.966,1.848,1.848,0,0,1-1.678-.966,8.515,8.515,0,0,1-.574-3.885c0-3.011.758-4.506,2.3-4.506,1.609,0,2.437,1.517,2.437,4.575A8.064,8.064,0,0,1,204.349,30.1Zm16.528-11.517-.828,3.517c-.207.9-.414,1.816-.6,2.758l-.46,2.437c-.437-2.437-1.035-5.333-1.793-8.712h-5.333l-2,15.654h4l1.08-10.781,2.736,10.781h2.85l2.621-10.758,1.127,10.758h4.184l-2.115-15.654Zm19.148,0-.827,3.517c-.207.9-.414,1.816-.6,2.758l-.46,2.437c-.437-2.437-1.035-5.333-1.793-8.712h-5.333l-2,15.654h4l1.08-10.781,2.736,10.781h2.85l2.6-10.758L243.4,34.243h4.184l-2.115-15.654Zm13.011,9.471h3.747V24.818h-3.747V21.944h4.322V18.611h-8.551V34.265h8.574V30.932h-4.345Zm16.252-2.483a4.185,4.185,0,0,0,.667-2.207,4.121,4.121,0,0,0-1.724-3.494,7.8,7.8,0,0,0-4.713-1.287H258.6V34.243h4.23V27.116h.069l3.425,7.126h4.46L267.4,27.185A4.179,4.179,0,0,0,269.289,25.576Zm-6.482-.253V21.6a3.866,3.866,0,0,1,2.161.506,1.788,1.788,0,0,1,.644,1.563C265.61,24.749,264.668,25.3,262.806,25.323Zm9.631-4.9a7.778,7.778,0,0,0-2.3,5.793,8.328,8.328,0,0,0,2.276,6.092,7.982,7.982,0,0,0,5.954,2.322,8.646,8.646,0,0,0,2.39-.368V30.541a7.728,7.728,0,0,1-2.092.345,3.764,3.764,0,0,1-2.919-1.218,4.819,4.819,0,0,1-1.1-3.333,4.778,4.778,0,0,1,1.08-3.218,3.442,3.442,0,0,1,2.735-1.264,8.584,8.584,0,0,1,2.3.345V18.473a9.591,9.591,0,0,0-2.5-.3A7.867,7.867,0,0,0,272.437,20.427Zm13.725,10.459V28.036h3.746V24.795h-3.746V21.921h4.344V18.588h-8.551V34.243h8.574V30.909h-4.367Z" transform="translate(-124.536 -12.267)" fill-rule="evenodd"/>
    </g>
  </g>
</svg>
