<svg xmlns="http://www.w3.org/2000/svg" xmlns:xlink="http://www.w3.org/1999/xlink" width="180" height="60" viewBox="0 0 180 60">
  <defs>
    <clipPath id="clip-path">
      <rect id="Rectangle_1428" data-name="Rectangle 1428" width="180" height="60" transform="translate(446 9953)" fill="#fff" stroke="#707070" stroke-width="1"/>
    </clipPath>
  </defs>
  <g id="bigcommerce" transform="translate(-446 -9953)" clip-path="url(#clip-path)">
    <g id="Page-1" transform="translate(458.177 9965.483)">
      <g id="Style-Guide---Navigation-Elements" transform="translate(0 0.002)">
        <path id="BG---Logo-Main" d="M122.537,1593.847a3.647,3.647,0,0,0-2.9-1.509,4.184,4.184,0,0,0,0,8.36,4.273,4.273,0,0,0,2.632-.92.184.184,0,0,0,.054-.13v-1.3a.152.152,0,0,0-.149-.153h-2.989a.214.214,0,0,1-.216-.212v-1.934a.224.224,0,0,1,.216-.224h5.36v-2.865l-1.731.943A.212.212,0,0,1,122.537,1593.847ZM97.373,1595.2h3.193a1.318,1.318,0,0,0,1.486-1.332,1.337,1.337,0,0,0-1.486-1.332H97.373a.192.192,0,0,0-.2.189V1595A.194.194,0,0,0,97.373,1595.2Zm12.983,7.488a.172.172,0,0,1-.178.177h-2.35a.172.172,0,0,1-.178-.177v-12.369a.179.179,0,0,1,.178-.177h2.35a.18.18,0,0,1,.178.177Zm13.514-29.608-23.315,17.062h.6c2.42,0,3.658,1.545,3.658,3.243a2.922,2.922,0,0,1-1.615,2.736.193.193,0,0,0,.009.354,3.14,3.14,0,0,1,1.853,2.948,3.338,3.338,0,0,1-3.7,3.443h-6.7a.192.192,0,0,1-.2-.189V1594.6l-17.294,12.664a.424.424,0,0,0,.251.766h46.695a.424.424,0,0,0,.424-.424v-6.4a7.009,7.009,0,0,1-4.909,1.9,6.583,6.583,0,1,1,0-13.159,5.912,5.912,0,0,1,4.909,2.358v-18.878A.428.428,0,0,0,123.869,1573.082Zm-26.5,27.4h3.307c1.01,0,1.619-.531,1.619-1.451a1.452,1.452,0,0,0-1.619-1.45H97.373a.2.2,0,0,0-.2.2v2.5A.2.2,0,0,0,97.373,1600.485Zm40.723-.389-1.457-.755a.208.208,0,0,0-.269.083,3.639,3.639,0,0,1-2.989,1.686,4.615,4.615,0,0,1,0-9.2,3.583,3.583,0,0,1,2.988,1.686.221.221,0,0,0,.272.071l1.447-.79a.217.217,0,0,0,.081-.307,5.434,5.434,0,0,0-4.788-2.641,6.581,6.581,0,0,0,0,13.159,5.52,5.52,0,0,0,4.8-2.677A.223.223,0,0,0,138.1,1600.1Zm7.6,1.014c-2.483,0-4.066-1.981-4.066-4.6s1.582-4.6,4.066-4.6c2.466,0,4.066,1.969,4.066,4.6S148.157,1601.11,145.692,1601.11Zm-1.737-10.954a6.257,6.257,0,0,0-4.536,6.355c0,3.8,2.594,6.58,6.273,6.58a6.082,6.082,0,0,0,6.115-5.011C152.811,1593.245,148.572,1588.918,143.955,1590.156Zm23.27-.012h-2.789a.3.3,0,0,0-.281.189l-3.372,8.726-3.392-8.726a.3.3,0,0,0-.281-.189h-2.79a.142.142,0,0,0-.149.141v12.428a.152.152,0,0,0,.149.153h1.93a.153.153,0,0,0,.15-.153v-9.681l3.879,9.763a.119.119,0,0,0,.1.071h.808a.119.119,0,0,0,.1-.071l3.86-9.763v9.681a.152.152,0,0,0,.149.153h1.93a.153.153,0,0,0,.15-.153v-12.428A.143.143,0,0,0,167.225,1590.144Zm28.508,0h-8.248a.223.223,0,0,0-.23.224v12.263a.233.233,0,0,0,.23.236h8.248a.233.233,0,0,0,.229-.236v-1.509a.23.23,0,0,0-.229-.224h-6.018a.233.233,0,0,1-.23-.236v-3.078a.233.233,0,0,1,.23-.236H195.6a.231.231,0,0,0,.23-.224v-1.509a.234.234,0,0,0-.23-.236h-5.885a.223.223,0,0,1-.23-.224v-2.818a.233.233,0,0,1,.23-.236h6.018a.23.23,0,0,0,.229-.224v-1.509A.223.223,0,0,0,195.733,1590.144Zm8.694,6h-2.839a.229.229,0,0,1-.228-.224v-3.6a.229.229,0,0,1,.228-.224h2.839a2.027,2.027,0,1,1,0,4.044Zm1.75,1.651a3.575,3.575,0,0,0,2.708-3.667,3.862,3.862,0,0,0-4.173-3.985h-5.354a.222.222,0,0,0-.228.224v12.263a.233.233,0,0,0,.228.236h1.773a.233.233,0,0,0,.229-.236v-4.292a.222.222,0,0,1,.228-.224h1.871a.22.22,0,0,1,.2.106l2.668,4.528a.231.231,0,0,0,.2.118h2.049a.231.231,0,0,0,.193-.354c-.588-.943-2.2-3.526-2.734-4.375A.228.228,0,0,1,206.177,1597.8Zm20.216-5.7h6.029a.22.22,0,0,0,.224-.224v-1.509a.22.22,0,0,0-.224-.224h-8.259a.22.22,0,0,0-.224.224v12.275a.228.228,0,0,0,.224.224h8.259a.228.228,0,0,0,.224-.224v-1.521a.228.228,0,0,0-.224-.224h-6.029a.228.228,0,0,1-.225-.224v-3.1a.228.228,0,0,1,.225-.224h5.9a.22.22,0,0,0,.224-.224V1595.6a.228.228,0,0,0-.224-.224h-5.9a.22.22,0,0,1-.225-.224v-2.83A.228.228,0,0,1,226.393,1592.1Zm-4.728,7.947-1.457-.755a.216.216,0,0,0-.269.071,3.639,3.639,0,0,1-2.989,1.686,4.615,4.615,0,0,1,0-9.2,3.61,3.61,0,0,1,2.988,1.686.2.2,0,0,0,.272.071l1.446-.778a.219.219,0,0,0,.081-.307,5.442,5.442,0,0,0-4.787-2.653,6.587,6.587,0,0,0,0,13.171,5.5,5.5,0,0,0,4.8-2.688A.21.21,0,0,0,221.664,1600.049Zm-37.98-9.9h-2.79a.3.3,0,0,0-.281.189l-3.372,8.726-3.392-8.726a.3.3,0,0,0-.281-.189H170.78a.143.143,0,0,0-.15.141v12.428a.153.153,0,0,0,.15.153h1.93a.153.153,0,0,0,.15-.153v-9.681l3.878,9.763a.121.121,0,0,0,.1.071h.807a.118.118,0,0,0,.1-.071l3.86-9.763v9.681a.152.152,0,0,0,.15.153h1.93a.152.152,0,0,0,.149-.153v-12.428A.142.142,0,0,0,183.685,1590.144Z" transform="translate(-77 -1573.002)" fill="#34313f" fill-rule="evenodd"/>
      </g>
    </g>
  </g>
</svg>
