<svg xmlns="http://www.w3.org/2000/svg" xmlns:xlink="http://www.w3.org/1999/xlink" width="180" height="60" viewBox="0 0 180 60">
  <defs>
    <clipPath id="clip-path">
      <rect id="Rectangle_1427" data-name="Rectangle 1427" width="180" height="60" transform="translate(446 9953)" fill="#fff" stroke="#707070" stroke-width="1"/>
    </clipPath>
  </defs>
  <g id="prestashop" transform="translate(-446 -9953)" clip-path="url(#clip-path)">
    <g id="logo-w.b3cd5cfd" transform="translate(458 9976.877)">
      <path id="Path_7528" data-name="Path 7528" d="M4.517,12.083H7.19a8.06,8.06,0,0,0,3.411-.737,5.141,5.141,0,0,0,2.3-2.12,5.9,5.9,0,0,0,.83-3.134,5.9,5.9,0,0,0-.83-3.134A5.709,5.709,0,0,0,10.6.837,8.06,8.06,0,0,0,7.19.1H0V17.338H4.517Zm0-8.2h2.3a2.3,2.3,0,0,1,1.751.645,1.972,1.972,0,0,1,.645,1.659,2.065,2.065,0,0,1-.645,1.567A2.524,2.524,0,0,1,6.821,8.4h-2.3Z" transform="translate(0 -0.008)"/>
      <path id="Path_7529" data-name="Path 7529" d="M30.274,8.957a5.631,5.631,0,0,0,.737-2.765,5.9,5.9,0,0,0-.83-3.134,6.371,6.371,0,0,0-2.3-2.12h0A8.179,8.179,0,0,0,24.374.2H17V17.438h4.609V12.091h2.4l2.581,5.346h4.978L28.43,10.985A6.483,6.483,0,0,0,30.274,8.957Zm-4.609-1.2a2.706,2.706,0,0,1-1.751.645h-2.3V3.887h2.4a2.3,2.3,0,0,1,1.751.645A1.972,1.972,0,0,1,26.4,6.192,1.844,1.844,0,0,1,25.665,7.759Z" transform="translate(-1.329 -0.016)"/>
      <path id="Path_7530" data-name="Path 7530" d="M39.617,10.524h5.9v-3.6h-5.9V3.979h7.374V.2H35.1V17.345H47.268V13.566H39.617Z" transform="translate(-2.745 -0.016)"/>
      <path id="Path_7531" data-name="Path 7531" d="M63.458,14.749a4.606,4.606,0,0,0,.922-2.858,4.81,4.81,0,0,0-.737-2.673A4.12,4.12,0,0,0,61.8,7.743a9.623,9.623,0,0,0-2.858-.83q-1.8-.415-2.489-.553A3.251,3.251,0,0,1,55.346,5.9a.9.9,0,0,1-.369-.83,1.25,1.25,0,0,1,.645-1.2,3.249,3.249,0,0,1,3.318.184,2.081,2.081,0,0,1,.737,1.475H64.1a4.8,4.8,0,0,0-.922-2.858A5.361,5.361,0,0,0,60.693.737,9.278,9.278,0,0,0,57.1,0a8.06,8.06,0,0,0-3.411.737,5.591,5.591,0,0,0-2.4,1.936,4.877,4.877,0,0,0-.83,2.765A5.136,5.136,0,0,0,51.2,8.2a5.079,5.079,0,0,0,1.844,1.567,10.538,10.538,0,0,0,2.858.83c1.2.277,2.028.461,2.581.553a3.251,3.251,0,0,1,1.106.461.9.9,0,0,1,.369.83,1.25,1.25,0,0,1-.645,1.2,3.279,3.279,0,0,1-1.751.461,2.926,2.926,0,0,1-2.12-.645h0a1.971,1.971,0,0,1-.83-1.659L50,11.707a4.688,4.688,0,0,0,.922,2.95,6.241,6.241,0,0,0,2.673,2.12,8.4,8.4,0,0,0,3.779.737,9.278,9.278,0,0,0,3.6-.737A5.517,5.517,0,0,0,63.458,14.749Z" transform="translate(-3.91 0)"/>
      <path id="Path_7532" data-name="Path 7532" d="M80.519.2H66.6V3.979h4.7V17.345h4.517V3.979h4.7Z" transform="translate(-5.208 -0.016)"/>
      <path id="Path_7533" data-name="Path 7533" d="M86.176.2,80,17.438h4.7l1.014-3.226h5.992l1.106,3.226H97.7L91.707.2Zm.83,10.324L88.849,4.9l1.844,5.623Z" transform="translate(-6.256 -0.016)"/>
      <path id="Path_7534" data-name="Path 7534" d="M113.274,14.749a4.606,4.606,0,0,0,.922-2.858,4.81,4.81,0,0,0-.737-2.673,4.12,4.12,0,0,0-1.844-1.475,14.545,14.545,0,0,0-2.95-.83,17.628,17.628,0,0,1-2.489-.553A3.251,3.251,0,0,1,105.07,5.9a.9.9,0,0,1-.369-.83,1.25,1.25,0,0,1,.645-1.2,3.249,3.249,0,0,1,3.318.184,2.081,2.081,0,0,1,.737,1.475h4.425a4.8,4.8,0,0,0-.922-2.858A5.361,5.361,0,0,0,110.416.737a8.492,8.492,0,0,0-3.5-.737A8.06,8.06,0,0,0,103.5.737a5.591,5.591,0,0,0-2.4,1.936,4.877,4.877,0,0,0-.83,2.765,5.136,5.136,0,0,0,.737,2.765,5.079,5.079,0,0,0,1.844,1.567,10.538,10.538,0,0,0,2.858.83c1.2.277,2.028.461,2.581.553a3.251,3.251,0,0,1,1.106.461.9.9,0,0,1,.369.83,1.25,1.25,0,0,1-.645,1.2,3.279,3.279,0,0,1-1.751.461,2.926,2.926,0,0,1-2.12-.645h0a1.971,1.971,0,0,1-.83-1.659L100,11.707a4.688,4.688,0,0,0,.922,2.95,6.241,6.241,0,0,0,2.673,2.12,8.655,8.655,0,0,0,3.779.737,8.937,8.937,0,0,0,3.6-.737A7.95,7.95,0,0,0,113.274,14.749Z" transform="translate(-7.82)"/>
      <path id="Path_7535" data-name="Path 7535" d="M128.232,6.745h-5.715V.2H118V17.345h4.517V10.616h5.715v6.729h4.517V.2h-4.517Z" transform="translate(-9.228 -0.016)"/>
      <path id="Path_7536" data-name="Path 7536" d="M152.916,13.274a9.109,9.109,0,0,0,1.106-4.517,9.362,9.362,0,0,0-1.106-4.517,8.277,8.277,0,0,0-3.042-3.134A9.467,9.467,0,0,0,145.265,0a8.866,8.866,0,0,0-4.517,1.106,8.277,8.277,0,0,0-3.042,3.134A9.109,9.109,0,0,0,136.6,8.757a9.362,9.362,0,0,0,1.106,4.517,8.277,8.277,0,0,0,3.042,3.134,9.109,9.109,0,0,0,4.517,1.106,8.866,8.866,0,0,0,4.517-1.106A8.515,8.515,0,0,0,152.916,13.274Zm-4.609-.922a3.838,3.838,0,0,1-5.9,0,5.579,5.579,0,0,1-1.106-3.6,5.579,5.579,0,0,1,1.106-3.6,3.838,3.838,0,0,1,5.9,0,5.579,5.579,0,0,1,1.106,3.6A5.579,5.579,0,0,1,148.307,12.352Z" transform="translate(-10.682 0)"/>
      <path id="Path_7537" data-name="Path 7537" d="M168.693.937A8.06,8.06,0,0,0,165.282.2H158V17.438h4.517V12.091h2.673a8.06,8.06,0,0,0,3.411-.737,5.141,5.141,0,0,0,2.3-2.12,5.9,5.9,0,0,0,.83-3.134,5.9,5.9,0,0,0-.83-3.134A4.732,4.732,0,0,0,168.693.937Zm-2.12,6.821a2.706,2.706,0,0,1-1.751.645h-2.212V3.887h2.3a2.3,2.3,0,0,1,1.751.645,1.972,1.972,0,0,1,.645,1.659A1.844,1.844,0,0,1,166.573,7.759Z" transform="translate(-12.356 -0.016)"/>
    </g>
  </g>
</svg>
