<svg xmlns="http://www.w3.org/2000/svg" xmlns:xlink="http://www.w3.org/1999/xlink" width="180" height="60" viewBox="0 0 180 60">
  <defs>
    <clipPath id="clip-path">
      <rect id="Rectangle_1421" data-name="Rectangle 1421" width="180" height="60" transform="translate(446 9953)" fill="#fff" stroke="#707070" stroke-width="1"/>
    </clipPath>
  </defs>
  <g id="shopify" transform="translate(-446 -9953)" clip-path="url(#clip-path)">
    <g id="Shopify_logo_2018" transform="translate(458.989 9960.492)">
      <path id="Path_7510" data-name="Path 7510" d="M34.224,8.526a.429.429,0,0,0-.388-.361c-.161-.014-3.313-.061-3.313-.061s-2.636-2.56-2.9-2.82a1.077,1.077,0,0,0-.967-.123l-1.324.41A9.285,9.285,0,0,0,24.7,4.013a4.464,4.464,0,0,0-3.974-2.741h-.006c-.115,0-.23.011-.345.021-.049-.059-.1-.117-.15-.173A3.48,3.48,0,0,0,17.463,0c-2.145.061-4.281,1.61-6.013,4.362a17.272,17.272,0,0,0-2.409,6.251L4.818,11.924c-1.243.391-1.282.429-1.445,1.6C3.253,14.41,0,39.563,0,39.563l27.26,4.715,11.815-2.937S34.255,8.75,34.224,8.526ZM23.97,5.993l-2.115.655a11.714,11.714,0,0,0-.651-3.9C22.831,3.053,23.632,4.895,23.97,5.993Zm-3.542,1.1L15.877,8.5a10.788,10.788,0,0,1,2.3-4.46,4.592,4.592,0,0,1,1.545-1.125A10.229,10.229,0,0,1,20.429,7.09ZM17.506,1.429a2.188,2.188,0,0,1,1.29.338,6.209,6.209,0,0,0-1.666,1.3,12.5,12.5,0,0,0-2.823,5.92l-3.738,1.157C11.308,6.7,14.2,1.525,17.506,1.429Z" transform="translate(0 0)" fill="#95bf47"/>
      <path id="Path_7511" data-name="Path 7511" d="M43.517,9.983c-.161-.014-3.313-.061-3.313-.061s-2.636-2.56-2.9-2.82a.644.644,0,0,0-.366-.168V46.093l11.814-2.936s-4.82-32.59-4.851-32.814A.431.431,0,0,0,43.517,9.983Z" transform="translate(-9.68 -1.817)" fill="#5e8e3e"/>
      <path id="Path_7512" data-name="Path 7512" d="M23.291,19.132l-1.372,5.134a7.794,7.794,0,0,0-3.345-.582c-2.661.168-2.689,1.846-2.662,2.268.145,2.3,6.185,2.8,6.524,8.175.267,4.231-2.244,7.125-5.862,7.353a8.785,8.785,0,0,1-6.733-2.287l.92-3.914s2.406,1.816,4.333,1.694a1.7,1.7,0,0,0,1.662-1.827c-.189-2.995-5.108-2.818-5.419-7.739-.262-4.141,2.458-8.337,8.459-8.716A7.377,7.377,0,0,1,23.291,19.132Z" transform="translate(-2.579 -4.891)" fill="#fff"/>
      <path id="Path_7513" data-name="Path 7513" d="M70.588,31.038c-1.359-.737-2.057-1.359-2.057-2.213,0-1.087.97-1.785,2.484-1.785a8.872,8.872,0,0,1,3.337.737l1.242-3.8s-1.142-.893-4.5-.893c-4.676,0-7.917,2.678-7.917,6.443,0,2.135,1.513,3.765,3.532,4.928,1.63.931,2.213,1.591,2.213,2.561,0,1.009-.815,1.824-2.328,1.824a10.453,10.453,0,0,1-4.385-1.165l-1.319,3.8a10.1,10.1,0,0,0,5.278,1.32c4.813,0,8.267-2.367,8.267-6.637C74.43,33.871,72.685,32.241,70.588,31.038Z" transform="translate(-15.954 -6.048)"/>
      <path id="Path_7514" data-name="Path 7514" d="M94.956,20.2a7.245,7.245,0,0,0-5.666,2.833L89.212,23l2.057-10.75H85.912l-5.2,27.36h5.356l1.785-9.352c.7-3.532,2.522-5.7,4.23-5.7,1.2,0,1.669.815,1.669,1.98A12.277,12.277,0,0,1,93.52,28.9L91.5,39.61h5.356l2.1-11.061a19.966,19.966,0,0,0,.389-3.493C99.341,22.029,97.75,20.2,94.956,20.2Z" transform="translate(-21.149 -3.209)"/>
      <path id="Path_7515" data-name="Path 7515" d="M118.56,23.03c-6.443,0-10.711,5.822-10.711,12.3,0,4.152,2.561,7.49,7.374,7.49,6.326,0,10.6-5.666,10.6-12.3C125.818,26.678,123.566,23.03,118.56,23.03Zm-2.639,15.68c-1.824,0-2.6-1.552-2.6-3.493,0-3.066,1.592-8.072,4.5-8.072,1.9,0,2.522,1.63,2.522,3.221C120.344,33.664,118.755,38.709,115.921,38.709Z" transform="translate(-28.26 -6.035)"/>
      <path id="Path_7516" data-name="Path 7516" d="M145.443,23.03a7.329,7.329,0,0,0-5.667,3.182H139.7l.311-2.872h-4.735c-.232,1.941-.66,4.889-1.086,7.1l-3.726,19.6h5.356l1.474-7.917h.117a6.24,6.24,0,0,0,3.144.7c6.287,0,10.4-6.442,10.4-12.963C150.954,26.251,149.362,23.03,145.443,23.03ZM140.32,38.786a3.406,3.406,0,0,1-2.213-.776L139,33c.621-3.337,2.367-5.55,4.231-5.55,1.63,0,2.134,1.513,2.134,2.95C145.365,33.858,143.308,38.786,140.32,38.786Z" transform="translate(-34.186 -6.035)"/>
      <path id="Path_7517" data-name="Path 7517" d="M167.5,12.617a3.057,3.057,0,0,0-3.066,3.1,2.468,2.468,0,0,0,2.522,2.678h.077a3.025,3.025,0,0,0,3.144-3.1A2.547,2.547,0,0,0,167.5,12.617Z" transform="translate(-43.088 -3.306)"/>
      <path id="Path_7518" data-name="Path 7518" d="M158.441,42.586H163.8l3.649-18.977h-5.4Z" transform="translate(-41.517 -6.186)"/>
      <path id="Path_7519" data-name="Path 7519" d="M184.622,20.456H180.9l.193-.893c.311-1.824,1.4-3.454,3.183-3.454a5.58,5.58,0,0,1,1.707.272l1.048-4.191a7.073,7.073,0,0,0-2.911-.465,7.953,7.953,0,0,0-5.239,1.785,10.167,10.167,0,0,0-3.1,6.054l-.154.893h-2.485l-.776,4.037h2.485l-2.833,14.98h5.356l2.833-14.98h3.687Z" transform="translate(-45.072 -3.072)"/>
      <path id="Path_7520" data-name="Path 7520" d="M201.337,23.609s-3.348,8.435-4.851,13.039h-.078c-.1-1.483-1.319-13.039-1.319-13.039h-5.628l3.223,17.424a1.136,1.136,0,0,1-.117.893,9.185,9.185,0,0,1-2.911,3.222,11.6,11.6,0,0,1-3.026,1.513L188.1,51.2a12.228,12.228,0,0,0,5.239-2.911c2.446-2.289,4.7-5.822,7.024-10.634l6.559-14.049h-5.588Z" transform="translate(-48.903 -6.186)"/>
    </g>
  </g>
</svg>
