<svg width="80" height="80" viewBox="0 0 80 80" fill="none" xmlns="http://www.w3.org/2000/svg">
<g clip-path="url(#clip0_1_289)">
<path d="M40 80C62.0914 80 80 62.0914 80 40C80 17.9086 62.0914 0 40 0C17.9086 0 0 17.9086 0 40C0 62.0914 17.9086 80 40 80Z" fill="#FFF2E8"/>
<path d="M25.0426 60.1497C25.8758 60.1497 26.5511 59.4743 26.5511 58.6412C26.5511 57.8081 25.8758 57.1327 25.0426 57.1327C24.2095 57.1327 23.5341 57.8081 23.5341 58.6412C23.5341 59.4743 24.2095 60.1497 25.0426 60.1497Z" fill="#F48120"/>
<path d="M39.5244 67.3905C40.3575 67.3905 41.0329 66.7151 41.0329 65.882C41.0329 65.0489 40.3575 64.3735 39.5244 64.3735C38.6913 64.3735 38.0159 65.0489 38.0159 65.882C38.0159 66.7151 38.6913 67.3905 39.5244 67.3905Z" fill="#F48120"/>
<path d="M54.6093 60.1497C55.4424 60.1497 56.1178 59.4743 56.1178 58.6412C56.1178 57.8081 55.4424 57.1327 54.6093 57.1327C53.7762 57.1327 53.1008 57.8081 53.1008 58.6412C53.1008 59.4743 53.7762 60.1497 54.6093 60.1497Z" fill="#F48120"/>
<path fill-rule="evenodd" clip-rule="evenodd" d="M26.5088 46.2472H23.6487C21.9592 46.2472 20.4205 45.5533 19.3042 44.4431C18.1879 43.3268 17.5 41.7881 17.5 40.0985C17.5 38.6443 18.0129 37.2987 18.8697 36.2428C19.6059 35.3377 20.5894 34.6377 21.7178 34.2576C21.6454 33.9498 21.5851 33.6421 21.5428 33.3283C21.4644 32.8034 21.4282 32.2724 21.4282 31.7293C21.4282 29.1829 22.3031 26.8357 23.7633 24.9712C25.1813 23.167 27.1605 21.8214 29.4414 21.1878C30.1534 19.0397 31.5111 17.1873 33.2851 15.8598C35.1074 14.4961 37.3762 13.6875 39.826 13.6875C42.2758 13.6875 44.4903 14.478 46.3066 15.8115C48.0625 17.1088 49.4201 18.913 50.1563 21.0189C52.5941 21.5257 54.7361 22.8472 56.2809 24.6876C57.8799 26.5883 58.8453 29.0442 58.8453 31.7233C58.8453 32.3026 58.7971 32.8818 58.7065 33.4551C58.6462 33.8412 58.5617 34.2214 58.4652 34.5895C59.4005 35.0601 60.197 35.7601 60.7883 36.6169C61.4641 37.6065 61.8624 38.8012 61.8624 40.0804C61.8624 41.77 61.1684 43.3087 60.0582 44.425C58.9419 45.5413 57.4032 46.2291 55.7137 46.2291H52.8535V51.1107C52.8535 51.4607 52.5699 51.7443 52.2199 51.7443H27.1424C26.7924 51.7443 26.5088 51.4607 26.5088 51.1107V46.2291V46.2472ZM54.2474 56.0948C54.9111 56.0948 55.5145 56.3664 55.955 56.8008C56.3895 57.2353 56.661 57.8387 56.661 58.5084C56.661 59.1782 56.3895 59.7816 55.955 60.2161C55.5206 60.6505 54.9172 60.9221 54.2474 60.9221C53.5776 60.9221 52.9742 60.6505 52.5397 60.2161C52.2501 59.9264 52.0268 59.5584 51.9182 59.148H47.2418C46.8919 59.148 46.6083 58.8644 46.6083 58.5145V53.5122C46.6083 53.1623 46.8919 52.8787 47.2418 52.8787C47.5918 52.8787 47.8754 53.1623 47.8754 53.5122V57.8809H51.9122C52.0268 57.4706 52.2441 57.1025 52.5337 56.8129C52.9682 56.3784 53.5716 56.1069 54.2413 56.1069L54.2474 56.0948ZM55.0559 57.6999C54.8508 57.4947 54.5612 57.368 54.2474 57.368C53.9336 57.368 53.644 57.4947 53.4388 57.6999C53.2337 57.905 53.1069 58.1947 53.1069 58.5084C53.1069 58.8222 53.2337 59.1118 53.4388 59.317C53.644 59.5222 53.9336 59.6489 54.2474 59.6489C54.5612 59.6489 54.8508 59.5222 55.0559 59.317C55.2611 59.1118 55.3878 58.8222 55.3878 58.5084C55.3878 58.1947 55.2611 57.905 55.0559 57.6999ZM40.3811 63.2572C40.7914 63.3719 41.1595 63.5891 41.4492 63.8787C41.8836 64.3132 42.1551 64.9166 42.1551 65.5864C42.1551 66.2562 41.8836 66.8596 41.4492 67.294C41.0147 67.7285 40.4113 68 39.7415 68C39.0717 68 38.4683 67.7285 38.0339 67.294C37.5994 66.8596 37.3279 66.2562 37.3279 65.5864C37.3279 64.9166 37.5994 64.3132 38.0339 63.8787C38.3235 63.5891 38.6916 63.3658 39.1019 63.2572V54.0975C39.1019 53.7476 39.3855 53.464 39.7355 53.464C40.0855 53.464 40.3691 53.7476 40.3691 54.0975V63.2572H40.3811ZM40.5501 64.7778C40.3449 64.5727 40.0553 64.4459 39.7415 64.4459C39.4277 64.4459 39.1381 64.5727 38.933 64.7778C38.7278 64.983 38.6011 65.2726 38.6011 65.5864C38.6011 65.9002 38.7278 66.1898 38.933 66.3949C39.1381 66.6001 39.4277 66.7268 39.7415 66.7268C40.0553 66.7268 40.3449 66.6001 40.5501 66.3949C40.7552 66.1898 40.882 65.9002 40.882 65.5864C40.882 65.2726 40.7552 64.983 40.5501 64.7778ZM25.1029 56.0888C25.7667 56.0888 26.3761 56.3603 26.8105 56.7948C27.1002 57.0844 27.3234 57.4525 27.432 57.8628H31.4688V53.4941C31.4688 53.1442 31.7524 52.8606 32.1024 52.8606C32.4524 52.8606 32.736 53.1442 32.736 53.4941V58.4964C32.736 58.8463 32.4524 59.1299 32.1024 59.1299H27.426C27.3114 59.5403 27.0941 59.9083 26.8045 60.198C26.3701 60.6324 25.7667 60.904 25.0969 60.904C24.4271 60.904 23.8237 60.6324 23.3892 60.198C22.9548 59.7635 22.6833 59.1601 22.6833 58.4903C22.6833 57.8206 22.9548 57.2172 23.3892 56.7827C23.8237 56.3482 24.4271 56.0767 25.0969 56.0767L25.1029 56.0888ZM25.9115 57.6938C25.7063 57.4887 25.4167 57.362 25.1029 57.362C24.7891 57.362 24.4995 57.4887 24.2943 57.6938C24.0892 57.899 23.9625 58.1886 23.9625 58.5024C23.9625 58.8162 24.0892 59.1058 24.2943 59.311C24.4995 59.5161 24.7891 59.6428 25.1029 59.6428C25.4167 59.6428 25.7063 59.5161 25.9115 59.311C26.1166 59.1058 26.2433 58.8162 26.2433 58.5024C26.2433 58.1886 26.1166 57.899 25.9115 57.6938ZM30.8473 48.4497H30.9016C31.2516 48.4497 31.5352 48.1661 31.5352 47.8161C31.5352 47.4661 31.2516 47.1825 30.9016 47.1825H30.8473C30.4973 47.1825 30.2137 47.4661 30.2137 47.8161C30.2137 48.1661 30.4973 48.4497 30.8473 48.4497ZM37.9434 48.4497H48.503C48.8529 48.4497 49.1365 48.1661 49.1365 47.8161C49.1365 47.4661 48.8529 47.1825 48.503 47.1825H37.9434C37.5934 47.1825 37.3098 47.4661 37.3098 47.8161C37.3098 48.1661 37.5934 48.4497 37.9434 48.4497ZM30.8473 39.5253H30.9016C31.2516 39.5253 31.5352 39.2417 31.5352 38.8917C31.5352 38.5418 31.2516 38.2582 30.9016 38.2582H30.8473C30.4973 38.2582 30.2137 38.5418 30.2137 38.8917C30.2137 39.2417 30.4973 39.5253 30.8473 39.5253ZM37.9434 39.5253H48.503C48.8529 39.5253 49.1365 39.2417 49.1365 38.8917C49.1365 38.5418 48.8529 38.2582 48.503 38.2582H37.9434C37.5934 38.2582 37.3098 38.5418 37.3098 38.8917C37.3098 39.2417 37.5934 39.5253 37.9434 39.5253ZM30.8473 30.6009H30.9016C31.2516 30.6009 31.5352 30.3173 31.5352 29.9674C31.5352 29.6174 31.2516 29.3338 30.9016 29.3338H30.8473C30.4973 29.3338 30.2137 29.6174 30.2137 29.9674C30.2137 30.3173 30.4973 30.6009 30.8473 30.6009ZM37.9434 30.6009H48.503C48.8529 30.6009 49.1365 30.3173 49.1365 29.9674C49.1365 29.6174 48.8529 29.3338 48.503 29.3338H37.9434C37.5934 29.3338 37.3098 29.6174 37.3098 29.9674C37.3098 30.3173 37.5934 30.6009 37.9434 30.6009ZM52.8414 44.968H55.7016C57.0411 44.968 58.26 44.4189 59.147 43.5319C60.034 42.6449 60.5831 41.426 60.5831 40.0865C60.5831 39.0667 60.2694 38.1194 59.7323 37.335C59.1832 36.5324 58.4048 35.9049 57.4877 35.5428C57.1558 35.4342 56.9748 35.0782 57.0834 34.7463C57.2403 34.2636 57.367 33.7628 57.4454 33.2559C57.5239 32.7672 57.5661 32.2543 57.5661 31.7233C57.5661 29.3519 56.7153 27.1796 55.3033 25.5022C53.8672 23.7945 51.8519 22.5938 49.5529 22.2015C49.3236 22.1593 49.1245 21.9964 49.0521 21.7611C48.4366 19.7698 47.1875 18.0501 45.5463 16.8373C43.9473 15.6546 41.962 14.9607 39.82 14.9607C37.6779 14.9607 35.6504 15.6727 34.0393 16.8795C32.386 18.1165 31.143 19.8664 30.5456 21.8878C30.4853 22.099 30.3103 22.2679 30.087 22.3283C27.9449 22.8412 26.0865 24.0721 24.765 25.7556C23.4737 27.3969 22.7014 29.4726 22.7014 31.7233C22.7014 32.206 22.7376 32.6767 22.8039 33.1353C22.8703 33.6059 22.9729 34.0645 23.1117 34.511C23.1117 34.5291 23.1177 34.5412 23.1237 34.5593C23.1961 34.9032 22.9789 35.2411 22.635 35.3135C21.5247 35.5549 20.5532 36.1704 19.8653 37.0272C19.1895 37.8659 18.7792 38.9279 18.7792 40.0865C18.7792 41.426 19.3283 42.6449 20.2153 43.5319C21.1023 44.4189 22.3212 44.968 23.6608 44.968H26.5209V44.5094C26.5209 44.1595 26.8045 43.8759 27.1545 43.8759H52.2139C52.5639 43.8759 52.8475 44.1595 52.8475 44.5094V44.968H52.8414ZM51.5683 45.143H27.782V50.4832H51.5743V45.143H51.5683ZM27.1424 34.9455C26.7924 34.9455 26.5088 35.2291 26.5088 35.579V42.1924C26.5088 42.5423 26.7924 42.8259 27.1424 42.8259H52.2018C52.5518 42.8259 52.8354 42.5423 52.8354 42.1924V35.579C52.8354 35.2291 52.5518 34.9455 52.2018 34.9455H27.1424ZM51.5683 36.2187H27.782V41.5588H51.5743V36.2187H51.5683ZM27.1424 26.0332C26.7924 26.0332 26.5088 26.3168 26.5088 26.6667V33.2801C26.5088 33.63 26.7924 33.9136 27.1424 33.9136H52.2018C52.5518 33.9136 52.8354 33.63 52.8354 33.2801V26.6667C52.8354 26.3168 52.5518 26.0332 52.2018 26.0332H27.1424ZM51.5683 27.3064H27.782V32.6465H51.5743V27.3064H51.5683Z" fill="#F48120"/>
</g>
<defs>
<clipPath id="clip0_1_289">
<rect width="80" height="80" fill="white"/>
</clipPath>
</defs>
</svg>
