<svg xmlns="http://www.w3.org/2000/svg" width="370" height="185" viewBox="0 0 370 185">
  <g id="Group_8409" data-name="Group 8409" transform="translate(-375 -3676)">
    <g id="Group_8410" data-name="Group 8410" transform="translate(-800 -599)">
      <rect id="Rectangle_3622" data-name="Rectangle 3622" width="370" height="185" transform="translate(1175 4275)" fill="#232323"/>
      <g id="undraw_investment_data_re_sh9x" transform="translate(1230.057 4204.763)">
        <rect id="Rectangle_3689" data-name="Rectangle 3689" width="2.091" height="1.743" transform="translate(32.008 190.068)" fill="#f0f0f0"/>
        <path id="Path_9924" data-name="Path 9924" d="M406.99,541.3h-4.12v-1.743h4.12Zm-8.241,0h-4.121v-1.743h4.121Zm-8.241,0h-4.12v-1.743h4.12Zm-8.241,0h-4.121v-1.743h4.121Zm-8.241,0h-4.12v-1.743h4.12Zm-8.241,0h-4.12v-1.743h4.12Zm-8.241,0h-4.12v-1.743h4.12Zm-8.241,0h-4.12v-1.743h4.12Zm-8.241,0h-4.12v-1.743h4.12Zm-8.241,0H328.7v-1.743h4.121Zm-8.241,0h-4.121v-1.743h4.121Zm-8.241,0h-4.121v-1.743h4.121Zm-8.241,0h-4.121v-1.743H308.1Zm-8.241,0h-4.12v-1.743h4.12Zm-8.241,0h-4.12v-1.743h4.121Zm-8.241,0h-4.12v-1.743h4.121Zm-8.241,0h-4.12v-1.743h4.121Zm-8.241,0h-4.12v-1.743h4.121Zm-8.241,0h-4.12v-1.743h4.12Zm-8.241,0h-4.12v-1.743h4.12Zm-8.241,0h-4.12v-1.743h4.12Zm-8.241,0h-4.12v-1.743h4.121Zm-8.241,0h-4.12v-1.743h4.121Zm-8.241,0h-4.121v-1.743h4.121Z" transform="translate(-175.104 -349.49)" fill="#f0f0f0"/>
        <rect id="Rectangle_3690" data-name="Rectangle 3690" width="2.091" height="1.743" transform="translate(32.008 145.808)" fill="#f0f0f0"/>
        <path id="Path_9925" data-name="Path 9925" d="M406.99,414.3h-4.12v-1.742h4.12Zm-8.241,0h-4.121v-1.742h4.121Zm-8.241,0h-4.12v-1.742h4.12Zm-8.241,0h-4.121v-1.742h4.121Zm-8.241,0h-4.12v-1.742h4.12Zm-8.241,0h-4.12v-1.742h4.12Zm-8.241,0h-4.12v-1.742h4.12Zm-8.241,0h-4.12v-1.742h4.12Zm-8.241,0h-4.12v-1.742h4.12Zm-8.241,0H328.7v-1.742h4.121Zm-8.241,0h-4.121v-1.742h4.121Zm-8.241,0h-4.121v-1.742h4.121Zm-8.241,0h-4.121v-1.742H308.1Zm-8.241,0h-4.12v-1.742h4.12Zm-8.241,0h-4.12v-1.742h4.121Zm-8.241,0h-4.12v-1.742h4.121Zm-8.241,0h-4.12v-1.742h4.121Zm-8.241,0h-4.12v-1.742h4.121Zm-8.241,0h-4.12v-1.742h4.12Zm-8.241,0h-4.12v-1.742h4.12Zm-8.241,0h-4.12v-1.742h4.12Zm-8.241,0h-4.12v-1.742h4.121Zm-8.241,0h-4.12v-1.742h4.121Zm-8.241,0h-4.121v-1.742h4.121Z" transform="translate(-175.104 -266.75)" fill="#f0f0f0"/>
        <rect id="Rectangle_3691" data-name="Rectangle 3691" width="2.091" height="1.743" transform="translate(32.008 101.548)" fill="#f0f0f0"/>
        <path id="Path_9926" data-name="Path 9926" d="M406.99,287.3h-4.12v-1.743h4.12Zm-8.241,0h-4.121v-1.743h4.121Zm-8.241,0h-4.12v-1.743h4.12Zm-8.241,0h-4.121v-1.743h4.121Zm-8.241,0h-4.12v-1.743h4.12Zm-8.241,0h-4.12v-1.743h4.12Zm-8.241,0h-4.12v-1.743h4.12Zm-8.241,0h-4.12v-1.743h4.12Zm-8.241,0h-4.12v-1.743h4.12Zm-8.241,0H328.7v-1.743h4.121Zm-8.241,0h-4.121v-1.743h4.121Zm-8.241,0h-4.121v-1.743h4.121Zm-8.241,0h-4.121v-1.743H308.1Zm-8.241,0h-4.12v-1.743h4.12Zm-8.241,0h-4.12v-1.743h4.121Zm-8.241,0h-4.12v-1.743h4.121Zm-8.241,0h-4.12v-1.743h4.121Zm-8.241,0h-4.12v-1.743h4.121Zm-8.241,0h-4.12v-1.743h4.12Zm-8.241,0h-4.12v-1.743h4.12Zm-8.241,0h-4.12v-1.743h4.12Zm-8.241,0h-4.12v-1.743h4.121Zm-8.241,0h-4.12v-1.743h4.121Zm-8.241,0h-4.121v-1.743h4.121Z" transform="translate(-175.104 -184.01)" fill="#f0f0f0"/>
        <rect id="Rectangle_3692" data-name="Rectangle 3692" width="17.077" height="50.563" transform="translate(83.063 173.421)" fill="#505050"/>
        <rect id="Rectangle_3693" data-name="Rectangle 3693" width="17.077" height="50.563" transform="translate(86.2 173.421)" fill="#f48120"/>
        <rect id="Rectangle_3694" data-name="Rectangle 3694" width="17.077" height="86.238" transform="translate(123.49 137.746)" fill="#505050"/>
        <rect id="Rectangle_3695" data-name="Rectangle 3695" width="17.077" height="86.238" transform="translate(126.626 137.746)" fill="#f48120"/>
        <rect id="Rectangle_3696" data-name="Rectangle 3696" width="17.077" height="121.913" transform="translate(163.916 102.071)" fill="#505050"/>
        <rect id="Rectangle_3697" data-name="Rectangle 3697" width="17.077" height="121.913" transform="translate(167.055 102.071)" fill="#f48120"/>
        <circle id="Ellipse_254" data-name="Ellipse 254" cx="4.182" cy="4.182" r="4.182" transform="translate(28 98.237)" fill="#f0f0f0"/>
        <circle id="Ellipse_255" data-name="Ellipse 255" cx="4.182" cy="4.182" r="4.182" transform="translate(28 142.497)" fill="#f0f0f0"/>
        <circle id="Ellipse_256" data-name="Ellipse 256" cx="4.182" cy="4.182" r="4.182" transform="translate(28 186.758)" fill="#f0f0f0"/>
      </g>
    </g>
  </g>
</svg>
