<svg xmlns="http://www.w3.org/2000/svg" xmlns:xlink="http://www.w3.org/1999/xlink" width="38" height="41.999" viewBox="0 0 38 41.999">
  <defs>
    <linearGradient id="linear-gradient" x1="0.5" x2="0.5" y2="1" gradientUnits="objectBoundingBox">
      <stop offset="0" stop-color="#f6893b"/>
      <stop offset="1" stop-color="#fabe8c"/>
    </linearGradient>
  </defs>
  <g id="_16211460761715236951" data-name="16211460761715236951" transform="translate(-5 -3.001)">
    <path id="Path_7407" data-name="Path 7407" d="M39.58,13.14l-.89-.3a16.22,16.22,0,0,0-2.53-.622,5,5,0,1,0-5.32,0,16.361,16.361,0,0,0-2.53.622l-.89.3A4.987,4.987,0,0,0,24,17.88V27a2.98,2.98,0,0,0,4,2.82V41.75a3.248,3.248,0,0,0,5.5,2.343A3.248,3.248,0,0,0,39,41.75V29.82A2.957,2.957,0,0,0,40,30a3.009,3.009,0,0,0,3-3V17.88a4.987,4.987,0,0,0-3.42-4.74ZM33.5,5a3,3,0,1,1-3,3A3,3,0,0,1,33.5,5ZM41,27a1,1,0,0,1-2,0V20a1,1,0,0,0-2,0V41.75a1.25,1.25,0,0,1-2.5,0V30a1,1,0,0,0-2,0V41.75a1.25,1.25,0,0,1-2.5,0V20a1,1,0,0,0-2,0v7a1,1,0,0,1-2,0V17.88a2.988,2.988,0,0,1,2.05-2.84l.89-.3a14.513,14.513,0,0,1,9.12,0l.89.3A2.988,2.988,0,0,1,41,17.88V27Z" fill="url(#linear-gradient)"/>
    <path id="Path_7408" data-name="Path 7408" d="M11,4a6,6,0,1,0,6,6A6.006,6.006,0,0,0,11,4Zm0,10a4,4,0,1,1,4-4A4,4,0,0,1,11,14Z" fill="url(#linear-gradient)"/>
    <path id="Path_7409" data-name="Path 7409" d="M11.973,8.421,10.558,9.836l-.53-.53A1,1,0,0,0,8.614,10.72l1.237,1.237a1,1,0,0,0,1.414,0l2.122-2.122a1,1,0,0,0-1.414-1.414Z" fill="url(#linear-gradient)"/>
    <path id="Path_7410" data-name="Path 7410" d="M11,18a6,6,0,1,0,6,6A6.006,6.006,0,0,0,11,18Zm0,10a4,4,0,1,1,4-4A4,4,0,0,1,11,28Z" fill="url(#linear-gradient)"/>
    <path id="Path_7411" data-name="Path 7411" d="M11.973,22.421l-1.415,1.415-.53-.53A1,1,0,0,0,8.614,24.72l1.237,1.237a1,1,0,0,0,1.414,0l2.122-2.122a1,1,0,0,0-1.414-1.414Z" fill="url(#linear-gradient)"/>
    <path id="Path_7412" data-name="Path 7412" d="M11,32a6,6,0,1,0,6,6A6.006,6.006,0,0,0,11,32Zm0,10a4,4,0,1,1,4-4A4,4,0,0,1,11,42Z" fill="url(#linear-gradient)"/>
    <path id="Path_7413" data-name="Path 7413" d="M11.973,36.422l-1.415,1.414-.53-.53A1,1,0,1,0,8.614,38.72l1.237,1.237a1,1,0,0,0,1.414,0l2.122-2.121a1,1,0,0,0-1.414-1.414Z" fill="url(#linear-gradient)"/>
    <path id="Path_7414" data-name="Path 7414" d="M19.78,9H26a1,1,0,0,0,0-2H19.78a1,1,0,0,0,0,2Z" fill="url(#linear-gradient)"/>
    <path id="Path_7415" data-name="Path 7415" d="M19.78,13h3.81a1,1,0,0,0,0-2H19.78a1,1,0,0,0,0,2Z" fill="url(#linear-gradient)"/>
    <path id="Path_7416" data-name="Path 7416" d="M19.78,23H21a1,1,0,0,0,0-2H19.78a1,1,0,1,0,0,2Z" fill="url(#linear-gradient)"/>
    <path id="Path_7417" data-name="Path 7417" d="M19.78,27H21a1,1,0,0,0,0-2H19.78a1,1,0,1,0,0,2Z" fill="url(#linear-gradient)"/>
    <path id="Path_7418" data-name="Path 7418" d="M25,35H19.78a1,1,0,1,0,0,2H25a1,1,0,0,0,0-2Z" fill="url(#linear-gradient)"/>
    <path id="Path_7419" data-name="Path 7419" d="M25,39H19.78a1,1,0,1,0,0,2H25a1,1,0,0,0,0-2Z" fill="url(#linear-gradient)"/>
  </g>
</svg>
