<svg xmlns="http://www.w3.org/2000/svg" width="370" height="185" viewBox="0 0 370 185">
  <g id="Group_8408" data-name="Group 8408" transform="translate(-775 -4275)">
    <rect id="Rectangle_3621" data-name="Rectangle 3621" width="370" height="185" transform="translate(775 4275)" fill="#232323"/>
    <g id="Group_8426" data-name="Group 8426" transform="translate(-12842.987 769.141)">
      <g id="undraw_goals_re_lu76" transform="translate(13679 3529.769)">
        <rect id="Rectangle_3666" data-name="Rectangle 3666" width="207.146" height="10.513" transform="translate(0 105.599) rotate(-30.649)" fill="#f2f2f2"/>
        <rect id="Rectangle_3667" data-name="Rectangle 3667" width="207.146" height="10.513" transform="translate(38.733 114.452) rotate(-30.649)" fill="#f2f2f2"/>
        <rect id="Rectangle_3668" data-name="Rectangle 3668" width="207.146" height="10.513" transform="translate(73.039 124.136) rotate(-30.649)" fill="#f2f2f2"/>
        <circle id="Ellipse_213" data-name="Ellipse 213" cx="55.795" cy="55.795" r="55.795" transform="translate(60.282 12.198)" fill="#191919"/>
        <path id="Path_9718" data-name="Path 9718" d="M385.341,210.824a56.21,56.21,0,1,1,56.21,56.21A56.274,56.274,0,0,1,385.341,210.824Zm.83,0a55.38,55.38,0,1,0,55.38-55.38A55.443,55.443,0,0,0,386.171,210.824Z" transform="translate(-325.474 -142.831)" fill="#c4c4c4"/>
        <path id="Path_9719" data-name="Path 9719" d="M526.082,306.039h0a9.946,9.946,0,1,1,9.946,9.946,9.946,9.946,0,0,1-9.946-9.946Zm9.946-9.461a9.472,9.472,0,0,0-9.461,9.461h0a9.461,9.461,0,1,0,9.461-9.461Z" transform="translate(-419.951 -237.803)" fill="#3f3d56"/>
        <path id="Path_9720" data-name="Path 9720" d="M498.776,287.709h0A18.922,18.922,0,1,1,517.7,306.631a18.922,18.922,0,0,1-18.922-18.922ZM517.7,269.273a18.437,18.437,0,1,0,18.437,18.437A18.437,18.437,0,0,0,517.7,269.273Z" transform="translate(-401.621 -219.474)" fill="#ccc"/>
        <path id="Path_9721" data-name="Path 9721" d="M444.166,251.05a36.873,36.873,0,1,1,36.873,36.873A36.873,36.873,0,0,1,444.166,251.05Zm36.873-36.388a36.388,36.388,0,1,0,36.388,36.388A36.388,36.388,0,0,0,481.039,214.662Z" transform="translate(-364.962 -182.815)" fill="#ccc"/>
        <circle id="Ellipse_214" data-name="Ellipse 214" cx="4.609" cy="4.609" r="4.609" transform="translate(111.467 63.384)" fill="#6c63ff"/>
        <circle id="Ellipse_215" data-name="Ellipse 215" cx="4.609" cy="4.609" r="4.609" transform="translate(99.581 76.726)" fill="#f48120"/>
        <circle id="Ellipse_216" data-name="Ellipse 216" cx="4.609" cy="4.609" r="4.609" transform="translate(145.955 74.785)" fill="#f48120"/>
        <circle id="Ellipse_217" data-name="Ellipse 217" cx="2.183" cy="2.183" r="2.183" transform="translate(113.893 65.81)" fill="#2f2e41"/>
        <circle id="Ellipse_218" data-name="Ellipse 218" cx="2.183" cy="2.183" r="2.183" transform="translate(148.381 77.211)" fill="#e6e6e6"/>
        <circle id="Ellipse_219" data-name="Ellipse 219" cx="2.183" cy="2.183" r="2.183" transform="translate(102.007 79.394)" fill="#e6e6e6"/>
        <circle id="Ellipse_220" data-name="Ellipse 220" cx="2.183" cy="2.183" r="2.183" transform="translate(12.007 41.308)" fill="#f48120"/>
        <path id="Path_9722" data-name="Path 9722" d="M157.07,131.686H61.248V131.2h96.307v24.986h-.486Z" transform="translate(-41.114 -88.073)" fill="#e6e6e6"/>
        <path id="Path_9723" data-name="Path 9723" d="M227.2,238.2a6.307,6.307,0,1,1,6.307,6.307A6.307,6.307,0,0,1,227.2,238.2Zm6.307-5.822a5.822,5.822,0,1,0,5.822,5.822,5.822,5.822,0,0,0-5.822-5.822Z" transform="translate(-219.316 -194.704)" fill="#e6e6e6"/>
        <circle id="Ellipse_221" data-name="Ellipse 221" cx="2.183" cy="2.183" r="2.183" transform="translate(26.562 104.138)" fill="#f48120"/>
        <path id="Path_9724" data-name="Path 9724" d="M271.478,429.333h0a6.307,6.307,0,1,1,6.307,6.307A6.307,6.307,0,0,1,271.478,429.333Zm6.307-5.822a5.822,5.822,0,1,0,5.822,5.822A5.822,5.822,0,0,0,277.785,423.511Z" transform="translate(-249.04 -323.011)" fill="#e6e6e6"/>
        <circle id="Ellipse_222" data-name="Ellipse 222" cx="2.183" cy="2.183" r="2.183" transform="translate(216.062 51.497)" fill="#f48120"/>
        <path id="Path_9725" data-name="Path 9725" d="M847.963,269.191a6.307,6.307,0,1,1,6.307,6.307A6.307,6.307,0,0,1,847.963,269.191Zm6.307-5.822a5.829,5.829,0,0,0-5.822,5.822h0a5.822,5.822,0,1,0,5.822-5.822Z" transform="translate(-636.025 -215.511)" fill="#e6e6e6"/>
        <path id="Path_9726" data-name="Path 9726" d="M457.3,163.539l61.856-.974.008.485-61.378.967v24.505H457.3Z" transform="translate(-306.976 -109.127)" fill="#e6e6e6"/>
        <path id="Path_9727" data-name="Path 9727" d="M105.9,272.672h69.137v-24.5h.485v24.986H105.9Z" transform="translate(-71.087 -166.593)" fill="#e6e6e6"/>
        <rect id="Rectangle_3669" data-name="Rectangle 3669" width="26.685" height="1.698" transform="translate(0.848 54.893)" fill="#ccc"/>
        <rect id="Rectangle_3670" data-name="Rectangle 3670" width="26.685" height="1.698" transform="translate(0.848 59.745)" fill="#ccc"/>
        <rect id="Rectangle_3671" data-name="Rectangle 3671" width="26.685" height="1.698" transform="translate(0.848 64.597)" fill="#ccc"/>
        <rect id="Rectangle_3672" data-name="Rectangle 3672" width="26.685" height="1.698" transform="translate(15.403 117.723)" fill="#ccc"/>
        <rect id="Rectangle_3673" data-name="Rectangle 3673" width="26.685" height="1.698" transform="translate(15.403 122.575)" fill="#ccc"/>
        <rect id="Rectangle_3674" data-name="Rectangle 3674" width="26.685" height="1.698" transform="translate(15.403 127.426)" fill="#ccc"/>
        <rect id="Rectangle_3675" data-name="Rectangle 3675" width="26.685" height="1.698" transform="translate(204.903 65.324)" fill="#ccc"/>
        <rect id="Rectangle_3676" data-name="Rectangle 3676" width="26.685" height="1.698" transform="translate(204.903 70.176)" fill="#ccc"/>
        <rect id="Rectangle_3677" data-name="Rectangle 3677" width="26.685" height="1.698" transform="translate(204.903 75.028)" fill="#ccc"/>
      </g>
      <circle id="Ellipse_223" data-name="Ellipse 223" cx="12.551" cy="12.551" r="12.551" transform="translate(13782.838 3585.812)" fill="#f48120"/>
      <path id="Path_9728" data-name="Path 9728" d="M14.976-82.136v2.1H5.891l-.412-1.349a5.759,5.759,0,0,0,1.236-1.676,5.07,5.07,0,0,0,.393-2.126,3.958,3.958,0,0,0-.037-.431H4.992v-1.8H6.547a8.246,8.246,0,0,1-.375-2.3,4.22,4.22,0,0,1,.553-2.2A3.605,3.605,0,0,1,8.27-93.337a5.125,5.125,0,0,1,2.285-.487,4.176,4.176,0,0,1,3.175,1.152,4.313,4.313,0,0,1,1.152,2.95H12.466A2.149,2.149,0,0,0,12-91.136a1.769,1.769,0,0,0-1.4-.515,1.867,1.867,0,0,0-1.4.524,2.219,2.219,0,0,0-.515,1.611,4.563,4.563,0,0,0,.1.965q.1.478.309,1.133h3.521v1.8H9.562a3.975,3.975,0,0,1,.037.45,4.395,4.395,0,0,1-.309,1.6,4.124,4.124,0,0,1-.946,1.433Z" transform="translate(13785.382 3684.82)" fill="#fff"/>
    </g>
  </g>
</svg>
