<svg xmlns="http://www.w3.org/2000/svg" xmlns:xlink="http://www.w3.org/1999/xlink" width="37.734" height="41.999" viewBox="0 0 37.734 41.999">
  <defs>
    <linearGradient id="linear-gradient" x1="0.5" x2="0.5" y2="1" gradientUnits="objectBoundingBox">
      <stop offset="0" stop-color="#f69047"/>
      <stop offset="0.146" stop-color="#f79147"/>
      <stop offset="1" stop-color="#fabe8c"/>
    </linearGradient>
  </defs>
  <g id="_12830932311579838420" data-name="12830932311579838420" transform="translate(-235.336 -233)">
    <g id="Group_8369" data-name="Group 8369" transform="translate(262.288 265.358)">
      <g id="Group_8368" data-name="Group 8368">
        <path id="Path_7420" data-name="Path 7420" d="M356.9,396a.9.9,0,1,0,.9.9A.9.9,0,0,0,356.9,396Z" transform="translate(-356 -396)" fill="url(#linear-gradient)"/>
      </g>
    </g>
    <g id="Group_8371" data-name="Group 8371" transform="translate(235.336 233)">
      <g id="Group_8370" data-name="Group 8370">
        <path id="Path_7421" data-name="Path 7421" d="M55.91,29.831l-3.9-1.3-1.4-2.8a8.984,8.984,0,0,0,2.432-4.753l.175-1.046H54.71a2.464,2.464,0,0,0,2.461-2.461V12.3a12.3,12.3,0,1,0-24.609,0v5.168a2.465,2.465,0,0,0,1.641,2.32v.961a2.464,2.464,0,0,0,2.461,2.461h.72a8.9,8.9,0,0,0,1.376,2.131c.116.134.237.263.361.389l-1.4,2.8-3.9,1.3A12.091,12.091,0,0,0,26,41.179a.82.82,0,0,0,.82.82H62.913a.82.82,0,0,0,.82-.82A12.091,12.091,0,0,0,55.91,29.831Zm-.379-12.359a.821.821,0,0,1-.82.82H53.458c.209-1.615.347-3.334.4-5.027,0-.048,0-.094,0-.141h1.664Zm-20.507.82a.821.821,0,0,1-.82-.82V13.125h1.665q0,.128.009.258v.009h0c.057,1.646.195,3.321.4,4.9H35.023Zm1.641,3.281a.821.821,0,0,1-.82-.82v-.82h.672l.175,1.047c.033.2.074.4.122.594Zm-.819-10.09H34.234a10.664,10.664,0,0,1,21.265,0H53.889a8.308,8.308,0,0,0-8.288-8.2H44.133A8.308,8.308,0,0,0,35.845,11.484Zm8.288-6.562H45.6A6.67,6.67,0,0,1,52.249,11.6c0,.258,0,.483-.006.687,0,0,0,.005,0,.008l-1.026-.147a13.181,13.181,0,0,1-7.411-3.705.821.821,0,0,0-.58-.24,7.421,7.421,0,0,0-5.706,2.7A6.668,6.668,0,0,1,44.133,4.922Zm-5.62,16.652a46.888,46.888,0,0,1-.984-7.961l1.1-1.472A5.774,5.774,0,0,1,42.9,9.853a14.837,14.837,0,0,0,8.083,3.92l1.208.173c-.081,1.713-.246,3.432-.482,5.013v0c-.075.508-.134.835-.286,1.749a6.968,6.968,0,0,1-4.945,5.6,6.454,6.454,0,0,1-7.245-3.1h1.672a2.465,2.465,0,0,0,2.32,1.641h1.641a2.461,2.461,0,1,0,0-4.922H43.226A2.462,2.462,0,0,0,40.9,21.574Zm4.644,6.4a8.228,8.228,0,0,0,3.051.069l-1.449,1.533Zm.474,2.794-2.6,2.751a31.255,31.255,0,0,1-1.837-4.259l.977-1.954Zm5.794-3.739,1.116,2.232A31.245,31.245,0,0,1,48.7,33.52l-2.785-2.785Zm-7.019-4.634a.82.82,0,0,1,.82-.82h1.641a.82.82,0,0,1,0,1.641H43.226A.821.821,0,0,1,42.406,22.394ZM27.673,40.358a10.367,10.367,0,0,1,6.669-8.971L37.8,30.237A32.883,32.883,0,0,0,40.13,35.3l0,.008h0a32.891,32.891,0,0,0,2.245,3.429l1.009,1.62Zm17.193-.731-1.112-1.786q-.019-.03-.04-.058a31.278,31.278,0,0,1-1.848-2.761l2.925-3.094,3.082,3.082a31.242,31.242,0,0,1-1.855,2.772C45.979,37.836,46.036,37.752,44.867,39.627Zm1.477.731,1.009-1.62a32.88,32.88,0,0,0,2.261-3.456l.012-.022v0a32.857,32.857,0,0,0,2.31-5.021l3.453,1.151a10.367,10.367,0,0,1,6.669,8.971H46.344Z" transform="translate(-26)" fill="url(#linear-gradient)"/>
      </g>
    </g>
    <g id="Group_8373" data-name="Group 8373" transform="translate(264.547 266.292)">
      <g id="Group_8372" data-name="Group 8372">
        <path id="Path_7422" data-name="Path 7422" d="M395.129,418.363a8.982,8.982,0,0,0-2.543-3.088.9.9,0,0,0-1.1,1.424,7.175,7.175,0,0,1,2.031,2.466.9.9,0,0,0,1.608-.8Z" transform="translate(-391.139 -415.089)" fill="url(#linear-gradient)"/>
      </g>
    </g>
  </g>
</svg>
