<svg width="64" height="64" viewBox="0 0 64 64" fill="none" xmlns="http://www.w3.org/2000/svg">
<circle cx="32" cy="32" r="32" fill="#F48120"/>
<path d="M35.9329 26.4319L35.4525 26.6776L35.1376 26.4818C34.8142 26.2808 34.4752 26.1061 34.1238 25.9595C33.7721 25.8131 33.4085 25.6968 33.0371 25.6119L32.6817 25.5311L32.2743 24.2795H30.7215L30.3167 25.5311L29.9587 25.6119C29.588 25.6965 29.2253 25.8127 28.8746 25.9595C28.5221 26.1056 28.1822 26.2803 27.8582 26.4818L27.5475 26.6776L26.3747 26.0797L25.2775 27.1769L25.8759 28.3497L25.6796 28.6605C25.2727 29.3072 24.9785 30.0183 24.8097 30.7635L24.7262 31.1184L23.4779 31.5263V33.0776L24.7262 33.4855L24.8097 33.8404C24.9816 34.5846 25.2755 35.2953 25.6796 35.9434L25.8759 36.2542L25.2775 37.4276L26.3747 38.5248L27.5475 37.9263L27.8582 38.1221C28.5057 38.5255 29.2151 38.8194 29.9581 38.992L30.3162 39.0728L30.7209 40.3244H32.2754L32.6828 39.0728L33.0382 38.992C33.4096 38.9071 33.7731 38.7908 34.1249 38.6444C34.4763 38.497 34.8153 38.3214 35.1386 38.1195L35.4536 37.9237L36.6238 38.5221L37.721 37.4249L37.1241 36.2553L37.3178 35.9445C37.521 35.6211 37.6966 35.2811 37.8428 34.9281C37.9879 34.5756 38.1041 34.2118 38.1903 33.8404L38.2711 33.4855L39.5221 33.0776V31.5263L38.2722 31.1184L38.1913 30.7635C38.1051 30.3925 37.9889 30.029 37.8438 29.6768C37.6977 29.3239 37.5221 28.9839 37.3188 28.6605L37.1251 28.3497L37.721 27.1769L36.6238 26.0797L35.9329 26.4319ZM39.1436 45.1337H40.4655V39.9826C40.4655 39.8115 40.5335 39.6474 40.6545 39.5264C40.7755 39.4054 40.9396 39.3374 41.1107 39.3374C41.2818 39.3374 41.4459 39.4054 41.5669 39.5264C41.6879 39.6474 41.7559 39.8115 41.7559 39.9826V45.1316H43.0752C43.2462 45.1318 43.4102 45.1999 43.5311 45.3209C43.652 45.4418 43.7201 45.6057 43.7204 45.7768V49.7057C43.7204 49.7904 43.7038 49.8744 43.6714 49.9527C43.639 50.031 43.5915 50.1021 43.5316 50.1621C43.4716 50.222 43.4005 50.2695 43.3222 50.3019C43.2439 50.3343 43.1599 50.3509 43.0752 50.3509H39.1436C39.0589 50.3509 38.975 50.3343 38.8967 50.3019C38.8183 50.2695 38.7472 50.222 38.6873 50.1621C38.6273 50.1021 38.5798 50.031 38.5474 49.9527C38.515 49.8744 38.4984 49.7904 38.4984 49.7057V45.7789C38.4987 45.6078 38.5668 45.4439 38.6877 45.323C38.8087 45.202 38.9726 45.1339 39.1436 45.1337ZM42.43 46.4241H39.7888V49.0647H42.43V46.4241ZM19.9248 45.1337H21.2441V39.9826C21.2441 39.8115 21.3121 39.6474 21.4331 39.5264C21.5541 39.4054 21.7182 39.3374 21.8893 39.3374C22.0604 39.3374 22.2245 39.4054 22.3455 39.5264C22.4665 39.6474 22.5345 39.8115 22.5345 39.9826V45.1316H23.8537C24.0248 45.1318 24.1887 45.1999 24.3096 45.3209C24.4306 45.4418 24.4987 45.6057 24.4989 45.7768V49.7057C24.499 49.7904 24.4824 49.8744 24.45 49.9527C24.4176 50.031 24.37 50.1021 24.3101 50.1621C24.2502 50.222 24.179 50.2695 24.1007 50.3019C24.0224 50.3343 23.9385 50.3509 23.8537 50.3509H19.9248C19.84 50.3512 19.756 50.3347 19.6776 50.3023C19.5992 50.27 19.5279 50.2225 19.468 50.1625C19.408 50.1026 19.3605 50.0313 19.3282 49.9529C19.2958 49.8745 19.2793 49.7905 19.2796 49.7057V45.7789C19.2796 45.6941 19.2962 45.6102 19.3286 45.5319C19.361 45.4536 19.4085 45.3824 19.4684 45.3225C19.5284 45.2626 19.5995 45.215 19.6778 45.1826C19.7561 45.1502 19.8401 45.1336 19.9248 45.1337ZM23.2085 46.4241H20.5674V49.0647H23.2085V46.4241ZM29.5329 48.629H30.8548V43.4842C30.8548 43.3131 30.9228 43.149 31.0438 43.028C31.1648 42.907 31.3289 42.839 31.5 42.839C31.6711 42.839 31.8352 42.907 31.9562 43.028C32.0772 43.149 32.1452 43.3131 32.1452 43.4842V48.629H33.4645C33.6356 48.6292 33.7996 48.6974 33.9206 48.8184C34.0415 48.9395 34.1095 49.1036 34.1097 49.2747V53.2062C34.1094 53.3772 34.0413 53.5412 33.9204 53.6621C33.7994 53.7831 33.6355 53.8511 33.4645 53.8514H29.5329C29.3622 53.851 29.1986 53.7828 29.0781 53.6618C28.9576 53.5408 28.8901 53.377 28.8903 53.2062V49.2747C28.8901 49.1039 28.9576 48.9401 29.0781 48.8191C29.1986 48.6981 29.3622 48.6294 29.5329 48.629ZM32.8193 49.9193H30.1781V52.5605H32.8193V49.9193ZM50.4233 34.8074H54.3548C54.5258 34.8077 54.6898 34.8757 54.8107 34.9967C54.9317 35.1176 54.9997 35.2816 55 35.4526V39.3841C54.9996 39.5551 54.9315 39.719 54.8106 39.8399C54.6897 39.9608 54.5258 40.0289 54.3548 40.0293H50.4233C50.2523 40.0288 50.0885 39.9606 49.9677 39.8397C49.8468 39.7189 49.7786 39.5551 49.7781 39.3841V38.0623H42.8321C42.661 38.0623 42.4969 37.9943 42.3759 37.8733C42.2549 37.7523 42.1869 37.5882 42.1869 37.4171V32.9479H40.8131V34.0136L39.3526 34.4887C39.2645 34.8059 39.1572 35.1175 39.0313 35.4216C38.9044 35.7253 38.7596 36.0212 38.5977 36.3078L39.2954 37.6727L36.8736 40.0944L35.5045 39.3994C34.9313 39.7256 34.3197 39.9792 33.6839 40.1543L33.2114 41.6121H29.7891L29.3135 40.1543C28.9967 40.0654 28.6854 39.9581 28.3811 39.833C28.0767 39.7063 27.78 39.5615 27.4929 39.3994L26.1237 40.0944L23.7025 37.6727L24.3997 36.3078C24.2377 36.0206 24.0929 35.724 23.9661 35.4195C23.8401 35.1154 23.7329 34.8038 23.6448 34.4866L22.1869 34.0115V32.9479H20.8105V37.4176C20.8107 37.5024 20.7941 37.5864 20.7618 37.6647C20.7294 37.7431 20.6819 37.8143 20.6219 37.8743C20.562 37.9342 20.4908 37.9817 20.4124 38.0141C20.334 38.0464 20.25 38.063 20.1653 38.0628H13.2193V39.3841C13.2193 39.5553 13.1513 39.7194 13.0303 39.8404C12.9093 39.9614 12.7452 40.0293 12.5741 40.0293H8.64519C8.47408 40.0293 8.30997 39.9614 8.18897 39.8404C8.06798 39.7194 8 39.5553 8 39.3841V35.4526C7.99993 35.3678 8.01657 35.2839 8.04897 35.2056C8.08137 35.1273 8.12889 35.0561 8.18882 34.9962C8.24874 34.9363 8.3199 34.8888 8.39821 34.8564C8.47652 34.824 8.56045 34.8073 8.64519 34.8074H12.5741C12.7452 34.8074 12.9093 34.8754 13.0303 34.9964C13.1513 35.1174 13.2193 35.2815 13.2193 35.4526V36.7719H19.519V32.9479H19.3022C18.0278 32.9464 16.7966 32.4852 15.8349 31.6491C14.8731 30.8129 14.2452 29.6578 14.0665 28.396C13.8878 27.1341 14.1702 25.8502 14.862 24.7798C15.5537 23.7095 16.6084 22.9245 17.8323 22.5692C17.8118 22.3655 17.8013 22.1723 17.8013 21.9917C17.8021 20.4393 18.3843 18.9434 19.4332 17.7989C20.482 16.6544 21.9214 15.9441 23.4679 15.808C24.1557 14.4797 25.1797 13.3547 26.4377 12.5453C27.65 11.7685 29.04 11.3127 30.4769 11.2205C31.9138 11.1284 33.3506 11.403 34.6523 12.0186C35.9539 12.6341 37.0778 13.5704 37.9182 14.7396C38.7587 15.9087 39.2882 17.2723 39.4571 18.7022C39.572 18.6943 39.6817 18.6891 39.7888 18.6891C40.8989 18.6894 41.9775 19.0582 42.8554 19.7377C43.7333 20.4171 44.3608 21.3687 44.6396 22.4432C45.9388 22.6811 47.1021 23.3959 47.9014 24.4473C48.7007 25.4988 49.0782 26.811 48.9599 28.1265C48.8416 29.4419 48.2359 30.6657 47.2618 31.5576C46.2877 32.4495 45.0154 32.9452 43.6947 32.9474H43.4752V36.7719H49.7749V35.4526C49.7753 35.2816 49.8434 35.1177 49.9644 34.9968C50.0853 34.8759 50.2491 34.8078 50.4201 34.8074H50.4233ZM53.7096 36.0978H51.0685V38.7389H53.7096V36.0978ZM11.9289 36.0978H9.29039V38.7389H11.9289V36.0978ZM31.5 27.7334C32.5566 27.7339 33.5803 28.1007 34.3968 28.7714C35.2133 29.4421 35.7719 30.3751 35.9776 31.4115C36.1833 32.4479 36.0233 33.5235 35.5249 34.4552C35.0264 35.3868 34.2204 36.1169 33.2441 36.5209C32.2678 36.9249 31.1816 36.9779 30.1706 36.6709C29.1596 36.3638 28.2863 35.7158 27.6995 34.8371C27.1127 33.9584 26.8487 32.9034 26.9525 31.8519C27.0563 30.8004 27.5215 29.8175 28.2688 29.0705C28.6927 28.6456 29.1963 28.3088 29.7509 28.0793C30.3054 27.8498 30.8999 27.7323 31.5 27.7334ZM33.8172 29.985C33.2813 29.4502 32.5765 29.1178 31.823 29.0443C31.0695 28.9708 30.3137 29.1608 29.6846 29.5819C29.0554 30.003 28.5916 30.6293 28.3723 31.3539C28.153 32.0786 28.1917 32.8568 28.4818 33.5562C28.7719 34.2555 29.2955 34.8327 29.9633 35.1893C30.6312 35.546 31.402 35.6601 32.1445 35.5122C32.8871 35.3643 33.5554 34.9636 34.0357 34.3783C34.5159 33.793 34.7784 33.0593 34.7785 32.3022C34.7787 31.8717 34.6939 31.4454 34.529 31.0477C34.364 30.6501 34.1222 30.2889 33.8172 29.985ZM40.8131 31.6565H43.6968C44.7279 31.656 45.7191 31.2577 46.464 30.5447C47.2088 29.8316 47.6499 28.8587 47.6954 27.8286C47.7408 26.7984 47.3872 25.7904 46.708 25.0145C46.0289 24.2386 45.0766 23.7546 44.0495 23.6632C43.9064 23.6508 43.7714 23.5908 43.6663 23.4928C43.5612 23.3948 43.4919 23.2645 43.4694 23.1225C43.332 22.2457 42.8853 21.4471 42.2103 20.8709C41.5352 20.2947 40.6763 19.9791 39.7888 19.981C39.6623 19.9802 39.5357 19.9862 39.4098 19.9989H39.3946C39.264 20.0146 39.1333 20.0356 39.0024 20.0619C38.9647 20.0703 38.9261 20.0747 38.8875 20.075C38.8032 20.0777 38.7192 20.0638 38.6403 20.034C38.5614 20.0042 38.4892 19.9591 38.4278 19.9013C38.3663 19.8435 38.317 19.7741 38.2824 19.6972C38.2479 19.6202 38.2289 19.5372 38.2265 19.4529C38.1686 17.8321 37.5659 16.2781 36.5159 15.042C35.4659 13.806 34.0298 12.96 32.4396 12.6408C30.8495 12.3217 29.1981 12.5479 27.7524 13.283C26.3067 14.0181 25.1511 15.2191 24.4722 16.6921C24.4225 16.8036 24.3421 16.8987 24.2404 16.9662C24.1387 17.0337 24.0199 17.0708 23.8978 17.0732C22.6135 17.1032 21.3919 17.6348 20.4946 18.5541C19.5972 19.4735 19.0954 20.7075 19.0964 21.9922C19.0964 22.1676 19.1043 22.3266 19.1174 22.4705C19.1305 22.6143 19.1563 22.776 19.1878 22.943V22.9634C19.2154 23.1317 19.175 23.3041 19.0756 23.4427C18.9762 23.5813 18.8258 23.6748 18.6575 23.7026C17.7192 23.8584 16.8666 24.342 16.2516 25.0675C15.759 25.6502 15.4432 26.3614 15.3412 27.1174C15.2393 27.8735 15.3555 28.643 15.6761 29.3352C15.9967 30.0275 16.5084 30.6138 17.151 31.025C17.7936 31.4363 18.5403 31.6553 19.3032 31.6565H22.1869V30.5908L23.6448 30.1157C23.7329 29.7985 23.8402 29.487 23.9661 29.1828C24.0929 28.8784 24.2377 28.5818 24.3997 28.2946L23.7025 26.9296L26.1237 24.5079L27.4929 25.203C27.7796 25.0409 28.0763 24.8969 28.3811 24.772C28.6849 24.6449 28.9963 24.5367 29.3135 24.4481L29.7891 22.9902H33.2109L33.6834 24.4481C34.3182 24.6262 34.9294 24.8797 35.504 25.203L36.8731 24.5079L39.2948 26.9296L38.5971 28.2946C38.7592 28.5818 38.904 28.8784 39.0308 29.1828C39.1566 29.487 39.2639 29.7985 39.3521 30.1157L40.8125 30.5908L40.8131 31.6565Z" fill="white"/>
</svg>
