<svg xmlns="http://www.w3.org/2000/svg" width="370" height="185" viewBox="0 0 370 185">
  <g id="Group_8411" data-name="Group 8411" transform="translate(-775 -4275)">
    <rect id="Rectangle_3621" data-name="Rectangle 3621" width="370" height="185" transform="translate(775 4275)" fill="#232323"/>
    <g id="undraw_data_reports_706v" transform="translate(538.734 4187.065)">
      <path id="Path_9685" data-name="Path 9685" d="M695.1,498.17H523.454a2.707,2.707,0,0,1-2.7-2.7V420.821a2.708,2.708,0,0,1,2.7-2.7H695.1a2.708,2.708,0,0,1,2.7,2.7v74.645A2.708,2.708,0,0,1,695.1,498.17ZM523.454,419.2a1.625,1.625,0,0,0-1.623,1.623v74.645a1.624,1.624,0,0,0,1.623,1.623H695.1a1.625,1.625,0,0,0,1.623-1.623V420.821A1.625,1.625,0,0,0,695.1,419.2Z" transform="translate(-188.25 -256.3)" fill="#e6e6e6"/>
      <path id="Path_9686" data-name="Path 9686" d="M544.873,443.616a1.623,1.623,0,0,0,0,3.245h22.718a1.623,1.623,0,1,0,0-3.245Z" transform="translate(-202.636 -272.605)" fill="#e6e6e6"/>
      <path id="Path_9687" data-name="Path 9687" d="M707.406,473.763v30.092H554.21V488.011c1.061-.681,2.128-1.359,3.2-2.015,4.6-2.814,9.522-5.447,14.887-6.422a22.472,22.472,0,0,1,7.685-.1,43.862,43.862,0,0,1,7.82,2.3,53.412,53.412,0,0,0,7.669,2.405,22.457,22.457,0,0,0,7.778.153c4.926-.739,9.554-2.718,14.163-4.509,4.638-1.8,9.416-3.5,14.435-3.726,4.955-.224,9.849.947,14.55,2.4,9.586,2.958,19.374,7.346,29.524,4.337,10.307-3.051,19.787-11.859,31.21-9.246A.43.43,0,0,1,707.406,473.763Z" transform="translate(-209.644 -291.467)" fill="#e6e6e6" opacity="0.1"/>
      <path id="Path_9688" data-name="Path 9688" d="M707.21,474.287a.462.462,0,0,1-.525.23,17.082,17.082,0,0,0-4.151-.429c-11.235.2-19.874,9.243-30.86,10.6-9.905,1.219-19.228-3.6-28.541-6.115a33.8,33.8,0,0,0-14.808-1.113c-4.941.879-9.579,2.9-14.235,4.7-4.484,1.727-9.144,3.333-14,3.413-5.338.09-10.145-2.111-15.1-3.787a26.879,26.879,0,0,0-7.944-1.631,24.035,24.035,0,0,0-7.829,1.212c-5.261,1.673-10,4.653-14.616,7.615a.41.41,0,0,1-.272.074.5.5,0,0,1-.211-.9l.211-.134c1.059-.681,2.124-1.359,3.2-2.015,4.589-2.814,9.5-5.447,14.856-6.422a22.379,22.379,0,0,1,7.669-.1,43.694,43.694,0,0,1,7.8,2.3,53.22,53.22,0,0,0,7.653,2.405,22.363,22.363,0,0,0,7.762.154c4.916-.739,9.534-2.719,14.133-4.509,4.628-1.8,9.4-3.5,14.4-3.726,4.944-.224,9.828.947,14.52,2.4,9.566,2.958,19.333,7.346,29.462,4.337,10.286-3.051,19.746-11.859,31.144-9.246a.43.43,0,0,1,.269.169A.493.493,0,0,1,707.21,474.287Z" transform="translate(-209.449 -291.467)" fill="#f48120"/>
      <circle id="Ellipse_204" data-name="Ellipse 204" cx="2.239" cy="2.239" r="2.239" transform="translate(363.435 186.163)" fill="#f48120"/>
      <circle id="Ellipse_205" data-name="Ellipse 205" cx="2.239" cy="2.239" r="2.239" transform="translate(420.044 183.285)" fill="#f48120"/>
      <circle id="Ellipse_206" data-name="Ellipse 206" cx="2.239" cy="2.239" r="2.239" transform="translate(489.126 180.406)" fill="#f48120"/>
      <path id="Path_9689" data-name="Path 9689" d="M606.373,593.616a1.623,1.623,0,0,0,0,3.245h22.718a1.623,1.623,0,0,0,0-3.245Z" transform="translate(-241.959 -368.514)" fill="#e6e6e6"/>
      <circle id="Ellipse_207" data-name="Ellipse 207" cx="6.13" cy="6.13" r="6.13" transform="translate(343.679 220.414)" fill="#f48120"/>
      <path id="Path_9690" data-name="Path 9690" d="M758.373,593.616a1.623,1.623,0,0,0,0,3.245h22.718a1.623,1.623,0,1,0,0-3.245Z" transform="translate(-339.147 -368.514)" fill="#e6e6e6"/>
      <circle id="Ellipse_208" data-name="Ellipse 208" cx="6.13" cy="6.13" r="6.13" transform="translate(398.491 220.414)" fill="#f48120"/>
      <path id="Path_9691" data-name="Path 9691" d="M910.373,593.616a1.623,1.623,0,0,0,0,3.245h22.718a1.623,1.623,0,0,0,0-3.245Z" transform="translate(-436.336 -368.514)" fill="#e6e6e6"/>
      <circle id="Ellipse_209" data-name="Ellipse 209" cx="6.13" cy="6.13" r="6.13" transform="translate(453.302 220.414)" fill="#f48120"/>
      <path id="Path_78" data-name="Path 78" d="M816.212,322.045H731.528c-1.651,0-2.989-.953-2.99-2.128V301.512c0-1.174,1.34-2.128,2.99-2.128h84.684c1.651,0,2.989.953,2.99,2.128v18.406C819.2,321.092,817.863,322.044,816.212,322.045Zm-84.684-21.811c-.991,0-1.793.572-1.794,1.277v18.406c0,.7.8,1.276,1.794,1.277h84.684c.991,0,1.793-.572,1.794-1.277v-18.4c0-.7-.8-1.276-1.794-1.277Z" transform="translate(-321.109 -180.384)" fill="#e6e6e6"/>
      <path id="Path_9692" data-name="Path 9692" d="M786.732,328.391a1.805,1.805,0,0,0-1.8,1.8v12.621a1.805,1.805,0,0,0,1.8,1.8H851.28a1.805,1.805,0,0,0,1.8-1.8V330.194a1.805,1.805,0,0,0-1.8-1.8Z" transform="translate(-357.165 -198.931)" fill="#f48120"/>
      <circle id="Ellipse_210" data-name="Ellipse 210" cx="3.967" cy="3.967" r="3.967" transform="translate(434.616 133.788)" fill="#fff"/>
      <path id="Path_9693" data-name="Path 9693" d="M862.184,346.616a1.623,1.623,0,0,0,0,3.245H884.9a1.623,1.623,0,1,0,0-3.245Z" transform="translate(-405.524 -210.584)" fill="#fff"/>
    </g>
  </g>
</svg>
