<?xml version="1.0" encoding="UTF-8"?><svg id="Layer_1" xmlns="http://www.w3.org/2000/svg" xmlns:xlink="http://www.w3.org/1999/xlink" viewBox="0 0 60 60"><defs><style>.cls-1{fill:url(#linear-gradient);}.cls-1,.cls-2{stroke-width:0px;}.cls-2{fill:#fff;}</style><linearGradient id="linear-gradient" x1="60" y1="30" x2="0" y2="30" gradientUnits="userSpaceOnUse"><stop offset="0" stop-color="#3b3b3b"/><stop offset="1" stop-color="#191919"/></linearGradient></defs><circle class="cls-1" cx="30" cy="30" r="30"/><path class="cls-2" d="M17.5,33.05v11.53c0,.95.77,1.71,1.71,1.71h20.56c.95,0,1.71-.77,1.71-1.71v-11.53c3.41-.63,5.66-3.9,5.03-7.31-.48-2.61-2.55-4.63-5.17-5.06.09-.4.14-.81.14-1.23,0-3.15-2.54-5.71-5.69-5.71-1.22,0-2.4.39-3.38,1.11-3.17-3.51-8.58-3.78-12.09-.61-1.8,1.62-2.82,3.93-2.82,6.35v.11c-3.41.64-5.66,3.92-5.02,7.33.48,2.55,2.47,4.55,5.02,5.02ZM39.77,45.15h-20.56c-.32,0-.57-.26-.57-.57v-8.1c.18.07.38.1.57.11h6.85v.57c0,1.26,1.02,2.28,2.28,2.28h2.28c1.26,0,2.28-1.02,2.28-2.28v-.57h6.85c.19,0,.39-.04.57-.11v8.1c0,.32-.26.57-.57.57ZM27.21,36.58h4.57v.57c0,.63-.51,1.14-1.14,1.14h-2.28c-.63,0-1.14-.51-1.14-1.14v-.57ZM39.77,35.44h-20.56c-.32,0-.57-.26-.57-.57v-5.14c0-.32.26-.57.57-.57h20.56c.32,0,.57.26.57.57v5.14c0,.32-.26.57-.57.57ZM34.06,28.01h-1.14v-1.14c0-.63-.51-1.14-1.14-1.14h-4.57c-.63,0-1.14.51-1.14,1.14v1.14h-1.14v-1.14c0-1.26,1.02-2.28,2.28-2.28h4.57c1.26,0,2.28,1.02,2.28,2.28v1.14ZM31.78,28.01h-4.57v-1.14h4.57v1.14ZM18.15,21.76c.3-.03.53-.29.51-.6v-.16c-.02-.14-.03-.27-.03-.41,0-4.1,3.31-7.42,7.41-7.43,2.28,0,4.43,1.04,5.84,2.83.1.12.24.2.4.21.16.01.31-.04.43-.15,1.86-1.69,4.75-1.55,6.44.31.76.84,1.18,1.94,1.18,3.07,0,.52-.09,1.04-.27,1.53-.11.3.05.62.34.73.05.02.11.03.17.03,2.83.13,5.02,2.53,4.89,5.37-.11,2.31-1.74,4.26-3.99,4.77v-2.15c0-.95-.77-1.71-1.71-1.71h-4.57v-1.14c0-1.89-1.53-3.42-3.43-3.43h-4.57c-1.89,0-3.42,1.53-3.43,3.43v1.14h-4.57c-.95,0-1.71.77-1.71,1.71v2.15c-2.77-.63-4.5-3.38-3.87-6.15.49-2.16,2.31-3.76,4.52-3.97Z"/></svg>