<svg width="149" height="149" viewBox="0 0 149 149" fill="none" xmlns="http://www.w3.org/2000/svg">
<path d="M74.39 148.78C115.474 148.78 148.78 115.474 148.78 74.39C148.78 33.3055 115.474 0 74.39 0C33.3055 0 0 33.3055 0 74.39C0 115.474 33.3055 148.78 74.39 148.78Z" fill="url(#paint0_linear_29_488)"/>
<path d="M115.095 46.5348H92.0737L83.3122 37.3938C83.0872 37.1406 82.7497 37 82.4122 37H51.3746C50.6996 37 50.137 37.5625 50.137 38.2376V46.535H32.8955C30.7439 46.535 29 48.2929 29 50.4447V107.204C29 109.356 30.7439 111.114 32.8955 111.114H115.11C117.262 111.114 119.02 109.37 119.02 107.204V50.4447C119.006 48.293 117.262 46.535 115.096 46.535L115.095 46.5348ZM52.6116 58.7278V58.6856V39.4892H81.174V52.2304C81.174 53.693 82.3554 54.8884 83.818 54.8884H95.9129V58.6996V58.7277V99.8774H52.6121L52.6116 58.7278ZM116.53 107.204C116.53 107.992 115.897 108.638 115.096 108.638H32.8952C32.1217 108.638 31.4748 108.006 31.4748 107.204V59.951H50.1366V101.101C50.1366 101.776 50.6991 102.338 51.3742 102.338H97.1366C97.8117 102.338 98.3742 101.776 98.3742 101.101V59.951H116.53L116.53 107.204Z" fill="white"/>
<path d="M56.3244 46.4781H71.8648C72.5539 46.4781 73.1024 45.9156 73.1024 45.2405C73.1024 44.5655 72.5398 44.0029 71.8648 44.0029H56.3244C55.6353 44.0029 55.0868 44.5655 55.0868 45.2405C55.0868 45.9156 55.6353 46.4781 56.3244 46.4781Z" fill="white"/>
<path d="M56.3244 52.5953H71.8648C72.5539 52.5953 73.1024 52.0327 73.1024 51.3577C73.1024 50.6686 72.5398 50.1201 71.8648 50.1201H56.3244C55.6353 50.1201 55.0868 50.6827 55.0868 51.3577C55.0868 52.0327 55.6353 52.5953 56.3244 52.5953Z" fill="white"/>
<path d="M56.3244 58.6998H84.0993C84.7884 58.6998 85.3368 58.1372 85.3368 57.4622C85.3368 56.7871 84.7743 56.2246 84.0993 56.2246H56.3244C55.6353 56.2246 55.0868 56.7871 55.0868 57.4622C55.0868 58.1372 55.6353 58.6998 56.3244 58.6998Z" fill="white"/>
<path d="M56.3244 64.8033H84.0993C84.7884 64.8033 85.3368 64.2407 85.3368 63.5657C85.3368 62.8907 84.7743 62.3281 84.0993 62.3281H56.3244C55.6353 62.3281 55.0868 62.8907 55.0868 63.5657C55.0868 64.2407 55.6353 64.8033 56.3244 64.8033Z" fill="white"/>
<path d="M84.0434 79.2741H83.2699C82.9887 78.2335 82.5949 77.249 82.0464 76.3349L82.6089 75.7724C82.9324 75.463 83.1012 75.0551 83.1012 74.6051C83.1012 74.141 82.9324 73.7191 82.6089 73.4378L80.7103 71.5392C80.401 71.2158 79.9931 71.047 79.5431 71.047C79.093 71.047 78.6852 71.2158 78.3758 71.5392L77.8132 72.0877C76.8851 71.5392 75.9006 71.1454 74.874 70.8642V70.0907C74.874 69.1766 74.1287 68.4312 73.2005 68.4312H70.5143C69.5862 68.4312 68.8548 69.1484 68.8548 70.0907V70.8642C67.8142 71.1454 66.8297 71.5392 65.9156 72.0877L65.353 71.5392C65.0436 71.2158 64.6358 71.047 64.1858 71.047C63.7076 71.047 63.2998 71.2158 63.0185 71.5392L61.1339 73.4238C60.8105 73.7191 60.6277 74.141 60.6277 74.6051C60.6277 75.0551 60.7964 75.463 61.1199 75.7724L61.6683 76.3349C61.1339 77.263 60.7261 78.2756 60.4589 79.2741H59.6713C58.7432 79.2741 58.0118 79.9914 58.0118 80.9337V83.6198C58.0118 84.5339 58.7431 85.2934 59.6713 85.2934H60.4589C60.7261 86.2919 61.1339 87.3044 61.6683 88.2326L61.1199 88.7951C60.7964 89.1045 60.6277 89.5124 60.6277 89.9624C60.6277 90.4124 60.7964 90.8203 61.1199 91.1297L63.0044 93.0283C63.3138 93.3517 63.7217 93.5205 64.1857 93.5205C64.6358 93.5205 65.0436 93.3517 65.353 93.0283L65.9156 92.4798C66.8156 93.0142 67.8001 93.4079 68.8548 93.6893V94.4628C68.8548 95.3769 69.5861 96.1363 70.5143 96.1363H73.2004C74.1145 96.1363 74.874 95.391 74.874 94.4628V93.6893C75.9146 93.408 76.8991 93.0142 77.8132 92.4798L78.3758 93.0283C78.6852 93.3517 79.093 93.5205 79.543 93.5205C79.9931 93.5205 80.4009 93.3517 80.7103 93.0283L82.6089 91.1297C82.9324 90.8203 83.1011 90.4124 83.1011 89.9624C83.1011 89.5124 82.9324 89.1045 82.6089 88.7951L82.0464 88.2326C82.5949 87.3185 82.9886 86.334 83.2699 85.2934H84.0434C84.9575 85.2934 85.717 84.548 85.717 83.6198V80.9337C85.717 80.0196 84.9576 79.2741 84.0434 79.2741ZM64.8326 82.2837C64.8326 78.4023 67.9828 75.2521 71.8643 75.2521C75.7458 75.2521 78.896 78.4023 78.896 82.2837C78.896 86.1652 75.7458 89.3154 71.8643 89.3154C67.9828 89.3014 64.8326 86.1512 64.8326 82.2837Z" fill="white"/>
<defs>
<linearGradient id="paint0_linear_29_488" x1="148.78" y1="74.39" x2="0" y2="74.39" gradientUnits="userSpaceOnUse">
<stop stop-color="#3B3B3B"/>
<stop offset="1" stop-color="#191919"/>
</linearGradient>
</defs>
</svg>
