<?xml version="1.0" encoding="UTF-8"?><svg id="Layer_1" xmlns="http://www.w3.org/2000/svg" xmlns:xlink="http://www.w3.org/1999/xlink" viewBox="0 0 60 60"><defs><style>.cls-1{fill:url(#linear-gradient);}.cls-1,.cls-2,.cls-3,.cls-4,.cls-5,.cls-6,.cls-7{stroke-width:0px;}.cls-2{fill:url(#linear-gradient-6);}.cls-3{fill:url(#linear-gradient-5);}.cls-4{fill:url(#linear-gradient-2);}.cls-5{fill:url(#linear-gradient-3);}.cls-6{fill:#fff2e9;}.cls-7{fill:url(#linear-gradient-4);}</style><linearGradient id="linear-gradient" x1="288.55" y1="-272.45" x2="317.01" y2="-272.45" gradientTransform="translate(-276 -246) scale(1 -1)" gradientUnits="userSpaceOnUse"><stop offset="0" stop-color="#010101"/><stop offset="1" stop-color="#f48220"/></linearGradient><linearGradient id="linear-gradient-2" x1="288.55" y1="-272.45" x2="317.01" y2="-272.45" xlink:href="#linear-gradient"/><linearGradient id="linear-gradient-3" x1="288.55" y1="-262.99" x2="317.01" y2="-262.99" xlink:href="#linear-gradient"/><linearGradient id="linear-gradient-4" x1="288.55" y1="-281.99" x2="317.01" y2="-281.99" xlink:href="#linear-gradient"/><linearGradient id="linear-gradient-5" x1="288.55" y1="-285.93" x2="317.01" y2="-285.93" xlink:href="#linear-gradient"/><linearGradient id="linear-gradient-6" x1="288.55" y1="-285.93" x2="317.01" y2="-285.93" xlink:href="#linear-gradient"/></defs><circle class="cls-6" cx="30" cy="30" r="30"/><path class="cls-1" d="M23.47,24.68c-.29.27-.31.72-.05,1.01,0,0,0,0,0,0l.57.62c.34.37.52.84.52,1.42,0,.4.32.68.72.68s.72-.36.72-.75c0-.86-.32-1.68-.9-2.31l-.57-.62c-.27-.29-.72-.31-1.01-.05Z"/><path class="cls-4" d="M35.99,24.73l-.57.62c-.59.65-.91,1.5-.9,2.38,0,.4.32.68.72.68s.72-.36.72-.75c0-.5.18-.98.52-1.35l.57-.62c.27-.29.25-.74-.04-1.01,0,0,0,0,0,0-.29-.27-.74-.25-1.01.04,0,0,0,0,0,0Z"/><path class="cls-5" d="M21.64,28.45c.4,0,.72-.32.72-.72v-2.45c0-.7.37-1.35.97-1.71l2.67-1.6,1.42,1.78c.13.16.32.26.52.27h.04c.19,0,.37-.07.51-.21l1.03-1.03v4.95c0,.4.32.72.72.72s.72-.32.72-.72v-4.98l1.05,1.05c.13.13.32.21.51.21h.04c.2-.01.39-.11.52-.27l1.42-1.77,2.67,1.6c.6.36.97,1.02.97,1.71v2.45c0,.4.32.72.72.72s.72-.32.72-.72v-2.45c0-1.2-.64-2.32-1.66-2.94l-3.11-1.87-1.15-1.28c-.07-.08-.17-.11-.26-.15v-1.08c1.08-.91,1.7-2.24,1.7-3.65v-1.67l.71-3.31c.13-.69-.03-1.4-.44-1.97-.4-.57-1.01-.96-1.7-1.07l-4.45-.74c-.74-.13-1.51.08-2.08.57-.42.36-.72.85-.84,1.39-1.13.34-1.81,1.5-1.54,2.66l.68,2.48v1.65c0,1.45.67,2.82,1.8,3.73v.95c-.13.03-.25.1-.35.2l-1.14,1.26-3.14,1.88c-1.03.62-1.66,1.74-1.66,2.94v2.45c0,.4.32.71.72.71ZM30.24,20.24l-1.6-.76v-.62c.5.18,1.03.29,1.6.29.6,0,1.16-.12,1.69-.32v.61s-1.69.8-1.69.8ZM33.37,21.06l-.93,1.16-.98-.98,1.45-.69s.46.51.46.51ZM26.13,9.86c-.1-.44.18-.87.62-.96.06-.01.12-.02.17-.02.4,0,.72-.37.72-.77,0-.63.51-1.14,1.14-1.13.06,0,.12,0,.18.02l4.45.74c.31.05.58.22.76.48.18.26.25.57.2.86l-.41,1.88-.34-.42c-.14-.17-.34-.27-.56-.27h-5.66c-.22,0-.42.1-.56.27l-.4.49s-.32-1.18-.32-1.18ZM26.85,14.32v-1.49l.9-1.12h4.98l.9,1.12v1.49c0,1.87-1.52,3.39-3.39,3.39s-3.39-1.52-3.39-3.39ZM27.57,20.56l1.45.69-.98.98-.93-1.16s.46-.51.46-.51Z"/><path class="cls-7" d="M38.01,41.73c.2-.34.09-.78-.25-.98,0,0,0,0,0,0l-6.82-4.09v-6.04c0-.4-.32-.72-.72-.72s-.72.32-.72.72v6.04l-6.82,4.09c-.34.2-.45.64-.25.98.2.34.64.45.98.25l6.8-4.08,6.8,4.08c.34.2.78.09.98-.24,0,0,0,0,0,0Z"/><path class="cls-3" d="M21.05,43.1l-2.7-1.01v-1.22c.73-.68,1.14-1.64,1.14-2.63v-1.35l.68-2.48c.1-.56-.02-1.14-.35-1.6-.33-.47-.83-.79-1.39-.88l-3.33-.56c-1.06-.17-2.08.47-2.37,1.5-.32.12-.6.32-.81.58-.35.44-.49,1.01-.33,1.68l.63,1.51v1.59c0,1.05.46,1.99,1.17,2.66v1.19l-2.7,1.01c-1.19.45-1.98,1.59-1.98,2.86v1.85c0,.4.32.72.72.72s.72-.32.72-.72v-1.85c0-.67.42-1.28,1.05-1.52l2.56-.96c.44.72,1.22,1.2,2.12,1.2s1.68-.49,2.12-1.2l2.56.96c.63.24,1.05.85,1.05,1.52v1.85c0,.4.32.72.72.72s.72-.32.72-.72v-1.85c0-1.27-.79-2.41-1.98-2.86ZM13.14,35.18l-.2-.47c-.03-.13,0-.26.09-.36.08-.1.2-.16.33-.16.4,0,.72-.36.72-.75,0-.2.09-.38.24-.51.15-.13.35-.18.54-.15l3.33.56c.18.03.35.13.46.29.1.13.14.3.13.46l-.28,1.03c-.14-.15-.33-.23-.53-.23h-4.24c-.23,0-.45.11-.58.3ZM16.92,42.2c-.02.58-.51,1.03-1.09,1.01-.55-.02-.99-.46-1.01-1.01v-.49c.33.1.67.17,1.04.17s.73-.07,1.07-.18v.5h0ZM18.06,38.23c0,1.22-.99,2.21-2.21,2.21s-2.21-.99-2.21-2.21v-1.07s.02-.01.03-.03l.47-.83h3.45l.47.69v1.23Z"/><path class="cls-2" d="M49.7,43.1l-2.34-.88-.35-.55v-.8c.73-.68,1.14-1.64,1.14-2.63v-1.35l.68-2.48c.1-.56-.02-1.14-.35-1.6-.33-.47-.83-.79-1.39-.88l-3.33-.56c-.61-.1-1.23.07-1.7.47-.32.27-.55.63-.66,1.04-.32.12-.6.32-.81.58-.35.44-.49,1.01-.33,1.68l.63,1.51v1.59c0,1.05.46,1.99,1.17,2.66v.78l-.35.55-2.34.88c-1.19.45-1.98,1.59-1.98,2.86v1.85c0,.4.32.72.72.72s.72-.32.72-.72v-1.11l1.59-2.46,2.02-.76c.44.72,1.22,1.2,2.12,1.2s1.68-.49,2.12-1.2l2.02.76,1.59,2.46v1.11c0,.4.32.72.72.72s.72-.32.72-.72v-1.85c0-1.27-.8-2.41-1.99-2.86ZM41.79,35.18l-.2-.47c-.03-.13,0-.26.09-.36.08-.1.2-.16.33-.16.4,0,.72-.36.72-.75,0-.2.09-.38.24-.51.15-.13.35-.18.54-.15l3.33.56c.18.03.35.13.46.29.1.13.14.3.13.46l-.28,1.03c-.14-.15-.33-.23-.53-.23h-4.24c-.23,0-.45.11-.58.3ZM45.57,42.2c-.02.58-.51,1.03-1.09,1.01-.55-.02-.99-.46-1.01-1.01v-.49c.33.1.67.17,1.04.17s.73-.07,1.07-.18v.5h0ZM46.71,38.23c0,1.22-.99,2.21-2.21,2.21s-2.21-.99-2.21-2.21v-1.07s.02-.01.03-.03l.47-.83h3.45l.47.69v1.23Z"/></svg>