<svg width="45" height="45" viewBox="0 0 45 45" fill="none" xmlns="http://www.w3.org/2000/svg">
<g clip-path="url(#clip0_1_2)">
<path d="M45 22.5C45 10.0736 34.9264 0 22.5 0C10.0736 0 0 10.0736 0 22.5C0 34.9264 10.0736 45 22.5 45C34.9264 45 45 34.9264 45 22.5Z" fill="url(#paint0_linear_1_2)"/>
<path fill-rule="evenodd" clip-rule="evenodd" d="M17.6421 21.857C17.2568 20.2396 17.5282 18.7313 18.417 17.6065C19.284 16.4992 20.6982 15.841 22.1956 15.841C23.1764 15.841 24.1353 16.12 24.9672 16.6474C25.1117 16.739 25.208 16.8785 25.2386 17.0442C25.2693 17.2055 25.2342 17.3755 25.1379 17.5106C25.1335 17.515 25.116 17.5411 25.0854 17.5804C25.2518 17.6414 25.4094 17.7155 25.5364 17.8158C25.6239 17.8812 25.6896 17.9727 25.729 18.0773C25.7597 18.1602 26.4909 20.1088 25.8166 21.9006C25.8122 21.966 25.8122 22.0314 25.8122 22.0968C25.764 23.6226 25.7115 25.3271 24.2491 26.4562C24.306 26.8791 24.4111 27.3281 24.5687 27.6376H26.2019C28.0802 27.6376 29.6039 29.159 29.6039 31.0249V33.2003H31.2414V22.9556L29.5426 23.9234C29.5382 23.9277 29.5339 23.9277 29.5295 23.9321H29.5251L29.5207 23.9364H29.5163L29.512 23.9408H29.5076H29.5032L29.4988 23.9452L29.4944 23.9495H29.4901H29.4857L29.4813 23.9539H29.4769L29.4726 23.9582H29.4682H29.4638L29.4594 23.9626L29.4507 23.967H29.4419V23.9713H29.4375H29.4332H29.4288L29.4244 23.9757H29.42L29.4113 23.98H29.4069H29.4025L29.3937 23.9844C29.385 23.9844 29.3806 23.9888 29.3762 23.9888H29.3719H29.3675H29.3631C29.35 23.9931 29.3412 23.9931 29.3281 23.9975H29.3237C29.3106 23.9975 29.293 24.0018 29.2799 24.0018H29.2755H29.2668C29.2624 24.0018 29.2536 24.0018 29.2493 24.0018H29.2449H29.2405H29.2361H29.2274H29.2186H29.2142H29.2099H29.2055H29.2011H29.1967H29.188H29.1836H29.1792H29.1748L29.1704 23.9975H29.1661H29.1617H29.1573H29.1486H29.1442H29.1398V23.9931H29.1354H29.131H29.1267H29.1223H29.1179L29.1135 23.9888H29.1091H29.1048H29.1004H29.096L29.0916 23.9844H29.0873H29.0829L29.0785 23.98H29.0741H29.0697L29.0654 23.9757H29.061H29.0566H29.0522L29.0479 23.9713H29.0435H29.0391L29.0347 23.967H29.0303L29.026 23.9626H29.0216H29.0172L29.0128 23.9582H29.0084H29.0041L28.9997 23.9539H28.9953L28.9866 23.9495L28.9822 23.9452H28.9778H28.9734L28.969 23.9408L28.9603 23.9364L28.9515 23.9321L28.9471 23.9277H28.9428L28.934 23.9234L28.9253 23.9146L28.9165 23.9103L28.9077 23.9059L28.899 23.9016L28.8902 23.8928L28.8815 23.8885L28.8771 23.8841L28.8683 23.8754L28.8596 23.871L28.8508 23.8623L28.8421 23.858L28.8377 23.8536C28.7063 23.7359 28.6319 23.5746 28.6319 23.3959V21.3992H27.5679C27.4848 21.3992 27.4016 21.3818 27.3315 21.3513C27.3271 21.3513 27.3228 21.3469 27.3184 21.3469C27.314 21.3426 27.3096 21.3426 27.3052 21.3426V21.3382C27.3009 21.3382 27.2965 21.3382 27.2921 21.3338C27.2877 21.3295 27.2833 21.3295 27.279 21.3251C27.2746 21.3251 27.2702 21.3208 27.2658 21.3208C27.2615 21.3164 27.2571 21.3164 27.2527 21.3121C27.2483 21.3121 27.2439 21.3077 27.2396 21.3033C27.2352 21.3033 27.2308 21.299 27.2264 21.2946C27.222 21.2946 27.2177 21.2903 27.2133 21.2903C27.2133 21.2859 27.2089 21.2815 27.2045 21.2815C27.0557 21.1682 26.9593 20.9938 26.9593 20.7933V13.5304C26.9593 13.1948 27.2308 12.9245 27.5679 12.9245H31.2414V11.7997H12.2172V33.2003H13.8547V31.0249C13.8547 29.159 15.3784 27.6376 17.2524 27.6376H19.0038C19.157 27.3281 19.2621 26.8834 19.3234 26.4606C17.769 25.2835 17.6946 23.4831 17.6421 21.857ZM32.4543 33.8019V33.8062V37.394C32.4543 37.7297 32.1828 38 31.85 38H11.6086C11.2758 38 11 37.7297 11 37.394V33.8062V11.1938V7.60596C11 7.27029 11.2758 7 11.6086 7H31.85C32.1828 7 32.4543 7.27029 32.4543 7.60596V11.1938V12.9245H38.3914C38.7242 12.9245 39 13.1948 39 13.5304V20.7933C39 21.129 38.7242 21.3992 38.3914 21.3992H33.978L32.4543 22.2668V33.8019ZM28.1765 14.1364V20.1873H29.2405C29.2449 20.1873 29.2493 20.1873 29.2536 20.1873C29.258 20.1917 29.2668 20.1917 29.2711 20.1917C29.2755 20.1917 29.2799 20.1917 29.2843 20.1917C29.293 20.1917 29.2974 20.1917 29.3018 20.1917C29.3062 20.1917 29.3106 20.1917 29.3149 20.196C29.3237 20.196 29.3281 20.196 29.3324 20.196C29.3368 20.196 29.3412 20.196 29.3456 20.2004C29.35 20.2004 29.3587 20.2004 29.3631 20.2004C29.3675 20.2004 29.3719 20.2048 29.3762 20.2048C29.3806 20.2048 29.385 20.2091 29.3894 20.2091C29.6521 20.2745 29.8491 20.5143 29.8491 20.7933V22.354L30.8824 21.7654L31.5479 21.3862L33.5138 20.2701C33.6058 20.2178 33.7109 20.1873 33.816 20.1873H37.7828V14.1364H28.1765ZM12.2172 10.5922H31.2414V8.21193H12.2172V10.5922ZM23.2508 10.008H20.2078C19.8707 10.008 19.5992 9.73773 19.5992 9.40205C19.5992 9.06638 19.8707 8.79609 20.2078 8.79609H23.2508C23.588 8.79609 23.8594 9.06638 23.8594 9.40205C23.8594 9.73773 23.588 10.008 23.2508 10.008ZM28.9953 34.4122H26.2194H17.2392H14.4633H12.2172V36.7881H31.2414V34.4122H28.9953ZM36.3992 16.5254H29.5601C29.223 16.5254 28.9515 16.2551 28.9515 15.9194C28.9515 15.5881 29.223 15.3135 29.5601 15.3135H36.3992C36.7364 15.3135 37.0078 15.5881 37.0078 15.9194C37.0078 16.2551 36.7364 16.5254 36.3992 16.5254ZM36.3992 19.0103H29.5601C29.223 19.0103 28.9515 18.7356 28.9515 18.4043C28.9515 18.0686 29.223 17.7983 29.5601 17.7983H36.3992C36.7364 17.7983 37.0078 18.0686 37.0078 18.4043C37.0078 18.7356 36.7364 19.0103 36.3992 19.0103ZM24.5118 28.8495L22.1825 31.4303C22.0643 31.5567 21.9023 31.6309 21.7271 31.6309H21.7228C21.5476 31.6265 21.3812 31.5524 21.2674 31.4216L19.0519 28.8495H17.2524C16.0483 28.8495 15.0719 29.826 15.0719 31.0249V33.2003H16.6306V31.6832C16.6306 31.3475 16.9021 31.0772 17.2392 31.0772C17.572 31.0772 17.8435 31.3475 17.8435 31.6832V33.2003H25.6108V31.6832C25.6108 31.3475 25.8866 31.0772 26.2194 31.0772C26.5565 31.0772 26.828 31.3475 26.828 31.6832V33.2003H28.3867V31.0249C28.3867 29.826 27.4103 28.8495 26.2019 28.8495H24.5118ZM23.1238 27.097C23.0056 27.1537 22.8962 27.206 22.8042 27.2496C22.3445 27.4763 22.0643 27.5897 21.7841 27.5897C21.5082 27.5897 21.228 27.4763 20.7639 27.2496C20.6719 27.206 20.5668 27.1537 20.4443 27.097C20.3698 27.4589 20.256 27.8469 20.0852 28.1869L21.7403 30.1094L23.4829 28.1782C23.3121 27.8425 23.1983 27.4545 23.1238 27.097ZM20.2691 25.641C20.2823 25.6497 20.2954 25.6584 20.3085 25.6671C20.4311 25.7456 20.5625 25.8154 20.707 25.8807C20.9478 25.9897 21.1448 26.0856 21.3024 26.1641C21.5082 26.2644 21.7271 26.3734 21.7884 26.3777C21.8453 26.3734 22.0599 26.2644 22.2701 26.1641C22.4277 26.0856 22.6203 25.9897 22.8611 25.8807C24.3586 25.192 24.5249 24.0541 24.5862 22.2798C23.7412 22.1011 22.2088 21.639 21.7096 20.584C21.5301 20.5186 21.3331 20.4227 21.1536 20.2745C20.7245 20.754 20.002 21.4167 18.868 22.1098C18.9337 23.7751 19.1045 24.9086 20.2691 25.641ZM21.1754 18.6397C21.193 18.6397 21.2105 18.6397 21.2324 18.6441C21.4776 18.6659 21.6877 18.8402 21.7578 19.08C21.8629 19.4288 22.2219 19.468 22.2263 19.468C22.4977 19.4898 22.721 19.6903 22.7736 19.9563C22.8787 20.4794 23.9076 20.8935 24.7964 21.0897C25.0153 20.1263 24.7833 19.1323 24.6607 18.7095C24.4943 18.6572 24.2141 18.5961 23.9776 18.5743C23.7587 18.5569 23.5617 18.4174 23.4741 18.2125C23.3866 18.0076 23.4172 17.7722 23.5529 17.5978C23.6099 17.5281 23.6755 17.4452 23.7368 17.3624C23.2508 17.1575 22.7254 17.0529 22.1956 17.0529C21.0704 17.0529 20.0152 17.5368 19.3759 18.352C18.8549 19.0146 18.6228 19.8429 18.6973 20.7802C20.1334 19.8124 20.6063 19.019 20.6369 18.9667C20.742 18.7618 20.9478 18.6397 21.1754 18.6397Z" fill="white"/>
</g>
<defs>
<linearGradient id="paint0_linear_1_2" x1="22" y1="-3.29812e-07" x2="22" y2="45" gradientUnits="userSpaceOnUse">
<stop stop-color="#353535"/>
<stop offset="0.122222" stop-color="#323232"/>
<stop offset="1" stop-color="#1B1B1B"/>
</linearGradient>
<clipPath id="clip0_1_2">
<rect width="45" height="45" fill="white"/>
</clipPath>
</defs>
</svg>
