<svg id="Group_530" data-name="Group 530" xmlns="http://www.w3.org/2000/svg" width="60" height="60" viewBox="0 0 60 60">
  <circle id="Ellipse_14" data-name="Ellipse 14" cx="30" cy="30" r="30" fill="#fff2e8"/>
  <g id="Group_8323" data-name="Group 8323" transform="translate(14 18.588)">
    <path id="Path_9101" data-name="Path 9101" d="M1.987,0H30.6a2,2,0,0,1,1.987,1.99V12.4a8.636,8.636,0,0,0-1.933-.455v-8.2H1.908V20.814H21.062a8.658,8.658,0,0,0,.279,1.883H1.987A2,2,0,0,1,0,20.707V1.99A2,2,0,0,1,1.987,0Zm28.1,14.236a6.681,6.681,0,0,1,5.593,10.332l2.89,3.151-1.993,1.823-2.787-3.066a6.677,6.677,0,1,1-3.7-12.24Zm3.55,3.126a5.016,5.016,0,1,0,1.472,3.55,5.013,5.013,0,0,0-1.472-3.55Zm-15.1-.577h3.355a8.379,8.379,0,0,0-.421,1.061H18.535V16.784Zm0-2.705h5.379a8.624,8.624,0,0,0-1,1.061H18.532V14.079Zm5.888-4.8H25.9a.125.125,0,0,1,.132.132v2.916a.125.125,0,0,1-.132.132H24.42a.125.125,0,0,1-.132-.132V9.412a.136.136,0,0,1,.132-.132ZM18.692,7.5h1.484a.126.126,0,0,1,.132.135v4.72a.125.125,0,0,1-.132.132H18.692a.125.125,0,0,1-.132-.132V7.636c-.028-.078.053-.132.132-.132ZM21.555,6.5h1.484a.125.125,0,0,1,.132.132v5.728a.125.125,0,0,1-.132.132H21.555a.125.125,0,0,1-.132-.132V6.628a.125.125,0,0,1,.132-.132ZM10.42,12.78l4.507.078a4.826,4.826,0,0,1-2.122,4L10.42,12.78Zm-.452-.769L9.914,6.76V6.415l.345.025h0a6.307,6.307,0,0,1,1.246.213,5.82,5.82,0,0,1,1.139.452,6.031,6.031,0,0,1,3.207,5.037l.025.345h-.345l-5.222-.16h-.292l-.05-.317Zm.584-4.93.053,4.613,4.588.132a5.421,5.421,0,0,0-2.837-4.19,6.532,6.532,0,0,0-1.007-.4c-.292-.05-.53-.1-.8-.157ZM9.519,12.516l2.57,4.453a5.145,5.145,0,1,1-2.784-9.6l.213,5.144Z" fill="#f48120" fill-rule="evenodd"/>
  </g>
</svg>
