<svg id="Group_531" data-name="Group 531" xmlns="http://www.w3.org/2000/svg" width="60" height="60" viewBox="0 0 60 60">
  <circle id="Ellipse_14" data-name="Ellipse 14" cx="30" cy="30" r="30" fill="#fff2e8"/>
  <g id="Group_8322" data-name="Group 8322" transform="translate(14.01 13.064)">
    <path id="Path_9100" data-name="Path 9100" d="M23.172,20.066a6.438,6.438,0,0,1,5.389,9.959l2.785,3.034-1.921,1.757-2.686-2.955a6.436,6.436,0,1,1-3.567-11.8ZM1.63,11.577h0V24.919a.276.276,0,0,0,.076.2.274.274,0,0,0,.2.079h12.05c.83.085.856,1.521,0,1.646H6.24V29.9a.262.262,0,0,0,.079.2.271.271,0,0,0,.2.076h7.44c.6.068.8,1.434,0,1.646H6.524a1.887,1.887,0,0,1-1.354-.567A1.906,1.906,0,0,1,4.6,29.9v-3.06H1.911a1.887,1.887,0,0,1-1.354-.567A1.906,1.906,0,0,1-.01,24.916v-23A1.9,1.9,0,0,1,.559.567,1.906,1.906,0,0,1,1.914,0H22.121a1.9,1.9,0,0,1,1.354.564,1.909,1.909,0,0,1,.564,1.354v3.06h2.692A1.93,1.93,0,0,1,28.652,6.9V17.388c-.057.6-1.533.609-1.657,0V6.9a.266.266,0,0,0-.272-.275H24.031V17.391c-.145.544-1.371.626-1.646,0V11.577H1.63Zm0-1.516H22.385V1.921a.262.262,0,0,0-.079-.2.274.274,0,0,0-.2-.079H1.9a.262.262,0,0,0-.2.079.271.271,0,0,0-.076.2v8.14Zm9.4-3.958h1.337a.113.113,0,0,1,.119.119V9.186a.113.113,0,0,1-.119.119H11.031a.113.113,0,0,1-.119-.119V6.222a.13.13,0,0,1,.119-.119Zm6.59,0h1.337a.113.113,0,0,1,.119.119V9.186a.113.113,0,0,1-.119.119H17.622a.113.113,0,0,1-.119-.119V6.222a.13.13,0,0,1,.119-.119ZM14.327,3.6h1.337a.112.112,0,0,1,.119.119V9.208a.113.113,0,0,1-.119.119H14.327a.113.113,0,0,1-.119-.119V3.714a.113.113,0,0,1,.119-.119ZM4.444,4.5H5.781a.113.113,0,0,1,.119.119V9.208a.113.113,0,0,1-.119.119H4.444a.113.113,0,0,1-.119-.119V4.624C4.3,4.55,4.373,4.5,4.444,4.5ZM7.736,3.6H9.074a.113.113,0,0,1,.119.119V9.208a.113.113,0,0,1-.119.119H7.736a.113.113,0,0,1-.119-.119V3.714A.113.113,0,0,1,7.736,3.6Zm4.352,15.439,3.726.065a3.986,3.986,0,0,1-1.754,3.309l-1.972-3.374Zm-.2-1.139-.043-4.341v-.286l.286.023h0a5.374,5.374,0,0,1,1.031.176,5.059,5.059,0,0,1,.943.371A4.99,4.99,0,0,1,16.755,18l.023.286h-.286l-4.318-.13h-.241l-.048-.263Zm.482-4.08.043,3.816,3.794.11a4.476,4.476,0,0,0-2.346-3.462,5.315,5.315,0,0,0-.833-.331c-.241-.045-.439-.088-.657-.133Zm-1.527,4.831,2.128,3.683a4.256,4.256,0,1,1-2.3-7.939l.176,4.256Zm15.756,4.431A4.836,4.836,0,1,0,28.014,26.5a4.827,4.827,0,0,0-1.419-3.423Z" fill="#f48120" fill-rule="evenodd"/>
  </g>
</svg>
