<svg id="Group_528" data-name="Group 528" xmlns="http://www.w3.org/2000/svg" width="60" height="60" viewBox="0 0 60 60">
  <circle id="Ellipse_14" data-name="Ellipse 14" cx="30" cy="30" r="30" fill="#fff2e8"/>
  <path id="Path_9103" data-name="Path 9103" d="M.9,0h31.27a.9.9,0,0,1,.9.9V21.62a.9.9,0,0,1-.9.9H.9a.9.9,0,0,1-.9-.9V.893A.9.9,0,0,1,.9,0ZM3.4,6.246H5.721a.2.2,0,0,1,.2.213v.78a.2.2,0,0,1-.2.2H3.4a.2.2,0,0,1-.2-.2v-.78a.2.2,0,0,1,.2-.2Zm0,6.558h8.138a.2.2,0,0,1,.2.2V13.8a.2.2,0,0,1-.2.2H3.4a.2.2,0,0,1-.2-.2v-.791A.2.2,0,0,1,3.4,12.8Zm0-3.34H8.434a.207.207,0,0,1,.2.2v.791a.207.207,0,0,1-.2.2H3.4a.2.2,0,0,1-.2-.2V9.669A.2.2,0,0,1,3.4,9.464Zm0,6.677H15.022a.2.2,0,0,1,.2.2v.791a.2.2,0,0,1-.2.2H3.4a.2.2,0,0,1-.2-.2v-.791a.2.2,0,0,1,.2-.2Zm9.061,7.613h8.154a4.188,4.188,0,0,0,2.177,3.668H10.28A4.42,4.42,0,0,0,12.457,23.754ZM31.892,3.135V19.064a.807.807,0,0,1-.807.807H1.973a.807.807,0,0,1-.794-.807V3.135H8.488V4.177a.538.538,0,0,0,.538.538h.821a4.252,4.252,0,0,0,.379,1.041l-.63.632a.538.538,0,0,0,0,.751l.783.786a.538.538,0,0,0,.753,0l.579-.581a4.2,4.2,0,0,0,1.02.46V8.7a.538.538,0,0,0,.538.538h1.111a.538.538,0,0,0,.538-.538V7.89A4.115,4.115,0,0,0,15.966,7.5l.632.632a.538.538,0,0,0,.751,0l.786-.786a.538.538,0,0,0,0-.751l-.579-.579A4.246,4.246,0,0,0,18.019,5h.893a.538.538,0,0,0,.538-.538V3.348a.554.554,0,0,0-.043-.213ZM28.313,6.973l.872.872a.589.589,0,0,1,0,.832l-.7.7a4.664,4.664,0,0,1,.436,1.16h.907a.592.592,0,0,1,.584.589V12.36a.589.589,0,0,1-.589.589h-.99a4.653,4.653,0,0,1-.514,1.128l.643.643a.592.592,0,0,1,0,.834l-.867.861a.592.592,0,0,1-.834,0l-.7-.7a4.682,4.682,0,0,1-1.163.436v.91a.592.592,0,0,1-.589.589H23.574a.592.592,0,0,1-.589-.589v-.982a4.7,4.7,0,0,1-1.128-.514l-.643.643a.592.592,0,0,1-.834,0l-.869-.867a.589.589,0,0,1,0-.832l.7-.7a4.763,4.763,0,0,1-.433-1.157h-.91a.592.592,0,0,1-.589-.589V10.818a.592.592,0,0,1,.589-.592h.993A4.554,4.554,0,0,1,20.374,9.1l-.643-.643a.587.587,0,0,1,0-.834l.869-.872a.592.592,0,0,1,.834,0l.7.7a4.664,4.664,0,0,1,1.16-.436V6.109a.592.592,0,0,1,.589-.589h1.233a.592.592,0,0,1,.589.589V7.1a4.653,4.653,0,0,1,1.128.514l.643-.643a.592.592,0,0,1,.834,0ZM16.05,3.135a2.185,2.185,0,1,1-4.185,0Zm8.3,6.031a2.422,2.422,0,1,1-2.422,2.422,2.422,2.422,0,0,1,2.422-2.422Zm6.278-7.842a.538.538,0,1,1-.538.538A.538.538,0,0,1,30.624,1.324Zm-3.617,0a.538.538,0,1,1-.538.538A.538.538,0,0,1,27.008,1.324Zm1.808,0a.538.538,0,1,1-.538.538A.538.538,0,0,1,28.816,1.324Z" transform="translate(13 16.478)" fill="#f48120" fill-rule="evenodd"/>
</svg>
