<svg xmlns="http://www.w3.org/2000/svg" xmlns:xlink="http://www.w3.org/1999/xlink" width="40" height="40" viewBox="0 0 40 40">
  <defs>
    <clipPath id="clip-path">
      <rect id="Rectangle_3616" data-name="Rectangle 3616" width="40" height="40" transform="translate(379 3253)" fill="none" stroke="#707070" stroke-width="1"/>
    </clipPath>
  </defs>
  <g id="Mask_Group_8048" data-name="Mask Group 8048" transform="translate(-379 -3253)" clip-path="url(#clip-path)">
    <g id="cloud-plus-svgrepo-com" transform="translate(380.593 3254.593)">
      <path id="Path_9547" data-name="Path 9547" d="M14.563,27.126c-3.094,0-4.641,0-5.6-.961S8,23.656,8,20.563s0-4.641.961-5.6S11.469,14,14.563,14s4.641,0,5.6.961.961,2.508.961,5.6,0,4.641-.961,5.6S17.656,27.126,14.563,27.126Zm1.094-9.48a1.094,1.094,0,0,0-2.188,0v1.823H11.646a1.094,1.094,0,0,0,0,2.188h1.823V23.48a1.094,1.094,0,0,0,2.188,0V21.657H17.48a1.094,1.094,0,0,0,0-2.188H15.657Z" transform="translate(3.844 7.688)" fill-rule="evenodd"/>
      <path id="Path_9548" data-name="Path 9548" d="M9.383,28.251V28.1a30.473,30.473,0,0,1,.142-3.782,5.687,5.687,0,0,1,1.54-3.413,5.687,5.687,0,0,1,3.413-1.54,30.472,30.472,0,0,1,3.782-.142h.294a30.472,30.472,0,0,1,3.782.142,5.292,5.292,0,0,1,4.953,4.953,29.9,29.9,0,0,1,.142,3.719,9.24,9.24,0,0,0,1.075-17.813A9.382,9.382,0,0,0,9.813,11.265a9.149,9.149,0,0,0,.581,3.219,7.147,7.147,0,0,0-1.363-.13,6.949,6.949,0,1,0,0,13.9Z" transform="translate(0 0)"/>
    </g>
  </g>
</svg>
