<svg xmlns="http://www.w3.org/2000/svg" width="60" height="60" viewBox="0 0 60 60">
  <g id="Group_522" data-name="Group 522" transform="translate(-652 -4401)">
    <circle id="Ellipse_14" data-name="Ellipse 14" cx="30" cy="30" r="30" transform="translate(652 4401)" fill="#fff2e8"/>
    <g id="Group_8316" data-name="Group 8316" transform="translate(646 4432.469)">
      <path id="Path_9089" data-name="Path 9089" d="M23.679,12.326l2.474.008a2.48,2.48,0,0,1-.737,1.753,2.678,2.678,0,0,1-.36.3l-1.376-2.056ZM21.034.359a.21.21,0,0,1,.014-.3.214.214,0,0,1,.3.014c.16.173.317.358.471.55s.293.382.431.58a.213.213,0,1,1-.352.238c-.13-.19-.268-.377-.412-.555s-.3-.363-.452-.528ZM17.353.828a.212.212,0,0,1-.076-.29.216.216,0,0,1,.29-.079,7.415,7.415,0,0,1,1.891,1.815,6.665,6.665,0,0,1,1.173,2.213.212.212,0,0,1-.412.1,6.239,6.239,0,0,0-1.1-2.062,6.977,6.977,0,0,0-1.766-1.7ZM19.246.565a.211.211,0,1,1,.279-.317,9.122,9.122,0,0,1,1.143,1.238,8.64,8.64,0,0,1,.886,1.384.212.212,0,0,1-.379.19,8.347,8.347,0,0,0-.843-1.317A8.913,8.913,0,0,0,19.246.565ZM12.08,6.506a1.047,1.047,0,0,0,.038.534,1.7,1.7,0,0,0,.1.244,1.992,1.992,0,0,0,.141.241,1.716,1.716,0,0,0,.173.219,1.691,1.691,0,0,0,.192.179l0,0a1.026,1.026,0,0,0,.528.228,1.558,1.558,0,0,0,.8-.312l.046-.033.005,0c.081-.054.165-.106.247-.157a.217.217,0,0,1,.152-.024.2.2,0,0,1,.122.084.081.081,0,0,1,.016.03l.081.144,0,0c.106.19.209.377.317.558a5.733,5.733,0,0,0,.317.482l0,0,.011.016a.6.6,0,0,0,.046.062l0,.005c.065.089.133.182.2.266a1.109,1.109,0,0,0,.2.2h0a.163.163,0,0,0,.135.035.312.312,0,0,0,.168-.141l.041-.068.041-.065,0,0a1.533,1.533,0,0,0,.111-.192.494.494,0,0,0,.043-.149.682.682,0,0,0-.084-.014h0c-.219-.027-.436-.051-.507-.48v0h0l-.008-.054h0c-.008-.057-.014-.1-.019-.122a.133.133,0,0,0-.008-.035v.005h0c-.019-.011-.041-.022-.07-.035l-.024-.011h0a.472.472,0,0,1-.176-.149.66.66,0,0,1-.106-.225h0a1.342,1.342,0,0,1-.041-.257,1.638,1.638,0,0,1,.008-.287v0a.211.211,0,0,1,.035-.092l0-.005a.213.213,0,0,1,.076-.062l.008,0a6.265,6.265,0,0,1,1.588-.49,6.607,6.607,0,0,1,1-.076,7.464,7.464,0,0,1-1.764-1.766,7.832,7.832,0,0,1-1.189-2.268,6.958,6.958,0,0,1-.685,1.46c-.385.62-2.216,2.14-2.319,2.587ZM16.1,3.751a1.278,1.278,0,0,1,.61-.1.988.988,0,0,1,.918,1.078,1.962,1.962,0,0,1-.23.718q.171.163.366.333a4.581,4.581,0,0,0,.566.423,2.686,2.686,0,0,0,.515.257.229.229,0,0,0,.046-.011.216.216,0,0,0,.043-.022.343.343,0,0,0,.035-.03.607.607,0,0,0,.054-.2,1.173,1.173,0,0,0-.005-.274h0a3.484,3.484,0,0,0-.36-1.051,8.876,8.876,0,0,0-.813-1.309,10.109,10.109,0,0,0-.994-1.16,4.747,4.747,0,0,0-.918-.74l0,0a1.572,1.572,0,0,0-.284-.127l-.005,0a.473.473,0,0,0-.2-.022h0c-.014,0-.022,0-.03.005l0,0h0a.172.172,0,0,0-.019.033c0,.005-.008.014-.014.024l-.008.016v.011a1.627,1.627,0,0,0,.068.642,5.137,5.137,0,0,0,.358.916c.1.209.2.4.3.582Zm-.363,4.438ZM18.214,6.9h-.005a5.759,5.759,0,0,0-2.487.485c0,.043,0,.087,0,.13a.824.824,0,0,0,.024.146h0a.412.412,0,0,0,.035.084.12.12,0,0,0,.035.038l.024.011h0l.005,0h0a.471.471,0,0,1,.236.179v0a.762.762,0,0,1,.081.29h0l0,.014v0h0l.008.054v0c.022.122.087.13.154.138h0c.331.038.45.2.45.4a1.164,1.164,0,0,1-.233.585h0a.658.658,0,0,0-.038.06c-.011.019-.024.038-.035.057l-.005.008s0,.005-.005.008a.709.709,0,0,1-.439.333.576.576,0,0,1-.436-.119,2.346,2.346,0,0,1-.477-.523l-.022-.03-.022-.03h0l-.038-.054,0-.005a5.858,5.858,0,0,1-.331-.507c-.1-.171-.206-.36-.314-.553l0,0-.06.038h0l-.079.051-.005,0a1.5,1.5,0,0,1-1.032.358,1.473,1.473,0,0,1-.737-.317,1.875,1.875,0,0,1-.241-.222,2.523,2.523,0,0,1-.211-.266,2.372,2.372,0,0,1-.168-.29,1.932,1.932,0,0,1-.119-.306v0a1.453,1.453,0,0,1-.046-.748c.23-.973,2.376-2.016,3.143-4.462v0c.035-.116.07-.222.1-.32h0a1.9,1.9,0,0,1,.108-.252l0,0a.642.642,0,0,1,.057-.089.336.336,0,0,1,.076-.076.389.389,0,0,1,.1-.051.647.647,0,0,1,.119-.027h0a.858.858,0,0,1,.355.035,1.821,1.821,0,0,1,.39.171l0,0a5.071,5.071,0,0,1,.992.791,10.338,10.338,0,0,1,1.043,1.216,9.318,9.318,0,0,1,.859,1.387,3.869,3.869,0,0,1,.39,1.16,1.553,1.553,0,0,1,0,.4.932.932,0,0,1-.108.331l0,0c-.163.287-.683.282-1,.279-.041,0-.079,0-.106,0ZM4.245,5.26h6.069l-.165.921H4.663V22.252H28.555V6.184h-7.12l.333-.921h7.123a.591.591,0,0,1,.588.588V22.42a.587.587,0,0,1-.442.569H32.6a.689.689,0,0,1,.688.688h0a.689.689,0,0,1-.688.688H.688A.689.689,0,0,1,0,23.677H0a.689.689,0,0,1,.688-.688H4.1a.592.592,0,0,1-.442-.569V5.851a.591.591,0,0,1,.588-.591ZM15.678,23.246h1.934a.332.332,0,0,1,.331.331h0a.332.332,0,0,1-.331.331H15.678a.332.332,0,0,1-.331-.331h0a.332.332,0,0,1,.331-.331ZM10.184,10.383h.753a.073.073,0,0,1,.073.073v2.685a.073.073,0,0,1-.073.073h-.753a.073.073,0,0,1-.073-.073V10.456a.073.073,0,0,1,.073-.073ZM6.776,9.475h.753a.073.073,0,0,1,.073.073v3.592a.073.073,0,0,1-.073.073H6.776a.073.073,0,0,1-.073-.073V9.549a.073.073,0,0,1,.073-.073Zm1.7-.509h.753a.073.073,0,0,1,.073.073v4.1a.073.073,0,0,1-.073.073H8.48a.073.073,0,0,1-.073-.073v-4.1a.073.073,0,0,1,.073-.073ZM6.819,20.19a.3.3,0,0,1,0-.6h19.65a.3.3,0,0,1,0,.6ZM6.77,18a.3.3,0,0,1,0-.6h8.442a.3.3,0,0,1,0,.6Zm9.6,0a.3.3,0,0,1,0-.6h10.1a.3.3,0,0,1,0,.6Zm-9.6-1.953a.3.3,0,0,1,0-.6H19.523a.3.3,0,0,1,0,.6Zm16.654-4.21-.133-2.644a.1.1,0,0,1,.089-.1c.016,0,.033,0,.054,0h.054A2.749,2.749,0,0,1,26.26,11.64a.094.094,0,0,1-.087.1l-2.644.19a.094.094,0,0,1-.1-.087c-.005-.005-.005-.005-.005-.008Zm.062-2.558.122,2.455,2.452-.176a2.56,2.56,0,0,0-2.571-2.281l0,0Zm-.358,2.934,1.325,2.3a2.652,2.652,0,1,1-1.71-4.92l.385,2.623Z" transform="translate(20 -12.92)" fill="#f48120" fill-rule="evenodd"/>
    </g>
  </g>
</svg>
