<svg xmlns="http://www.w3.org/2000/svg" width="60" height="60" viewBox="0 0 60 60">
  <g id="Group_524" data-name="Group 524" transform="translate(0 -0.118)">
    <circle id="Ellipse_14" data-name="Ellipse 14" cx="30" cy="30" r="30" transform="translate(0 0.118)" fill="#fff2e8"/>
    <g id="_4294594401582885787" data-name="4294594401582885787" transform="translate(15.703 15.73)">
      <g id="Path_780" data-name="Path 780" transform="translate(15.292 16.92)">
        <path id="Path_9012" data-name="Path 9012" d="M74.244,85.173l.035-.019a14.315,14.315,0,0,0,6.233-6.414l.019-.039c.147-.3.283-.607.4-.906L68.676,74.949l1.973,11.52a14.39,14.39,0,0,0,3.595-1.3Z" transform="translate(-68.676 -74.949)" fill="none"/>
      </g>
      <g id="Path_782" data-name="Path 782" transform="translate(0 0)">
        <path id="Path_9014" data-name="Path 9014" d="M14.9,17.168c-.006-.05-.009-.081-.011-.112s0-.038,0-.08v-.056a.3.3,0,0,1,.006-.073c.006-.026.006-.047.012-.084l.032-.151L19.215,2.037a14.606,14.606,0,0,0-2.433-.207A14.386,14.386,0,0,0,17.2,30.6Z" transform="translate(-2.603 -1.83)" fill="none"/>
      </g>
    </g>
    <path id="Path_9099" data-name="Path 9099" d="M16.5,33.467H2.147a2.153,2.153,0,0,1-1.517-.63l-.055-.069A2.138,2.138,0,0,1,0,31.329V2.147A2.144,2.144,0,0,1,.63.63L.7.576A2.135,2.135,0,0,1,2.135,0h24.3a2.153,2.153,0,0,1,2.147,2.147V16.363a10.872,10.872,0,0,0-1.845-.345V2.147a.317.317,0,0,0-.3-.288H2.147a.311.311,0,0,0-.19.066l-.023.023a.305.305,0,0,0-.089.213v29.16a.288.288,0,0,0,.066.187l.026.023a.288.288,0,0,0,.21.092H15.456A10.97,10.97,0,0,0,16.5,33.467Zm8.009-9.836h.832a.576.576,0,0,1,.412.17.593.593,0,0,1,.173.414v3.056h2.76a.576.576,0,0,1,.576.576v.863a.61.61,0,0,1-.173.414l-.023.02a.576.576,0,0,1-.388.15H24.173a.288.288,0,0,1-.288-.288V24.173a.587.587,0,0,1,.581-.544Zm1.1-4.817a8.273,8.273,0,1,1-5.842,2.423A8.273,8.273,0,0,1,25.611,18.814Zm4.679,3.594a6.619,6.619,0,1,0,1.94,4.679,6.619,6.619,0,0,0-1.94-4.679Zm-18,1.583a1.05,1.05,0,0,1,0-2.066h2.757a1.05,1.05,0,0,1,0,2.066ZM5.96,21.321H8.55a.34.34,0,0,1,.371.34v2.59a.34.34,0,0,1-.34.34H5.991a.34.34,0,0,1-.34-.34V21.66a.34.34,0,0,1,.34-.34Zm0-14.947H8.55a.34.34,0,0,1,.371.34V9.3a.34.34,0,0,1-.34.34H5.991a.34.34,0,0,1-.34-.34V6.714a.34.34,0,0,1,.34-.34Zm6.331,2.668a.958.958,0,0,1-.863-1.03.961.961,0,0,1,.863-1.033H22.518a.961.961,0,0,1,.863,1.033.958.958,0,0,1-.863,1.03ZM5.278,15.568a.576.576,0,0,1,.109-.812.642.642,0,0,1,.863-.026l.6.624,1.511-1.542a.555.555,0,0,1,.812.086.642.642,0,0,1,.052.863L7.214,16.817a.558.558,0,0,1-.812-.086l-.046-.055a.558.558,0,0,1-.089-.075Zm7.022.774a.961.961,0,0,1-.863-1.033.961.961,0,0,1,.863-1.033H22.518a.961.961,0,0,1,.863,1.033.961.961,0,0,1-.863,1.033Z" transform="translate(17 14.639)" fill="#f48120"/>
  </g>
</svg>
