<svg xmlns="http://www.w3.org/2000/svg" width="60" height="60" viewBox="0 0 60 60">
  <g id="Group_523" data-name="Group 523" transform="translate(-652 -4270)">
    <circle id="Ellipse_14" data-name="Ellipse 14" cx="30" cy="30" r="30" transform="translate(652 4270)" fill="#fff2e8"/>
    <g id="Group_8315" data-name="Group 8315" transform="translate(696 4346.1)">
      <path id="Path_9088" data-name="Path 9088" d="M14,0A14,14,0,0,1,25.712,21.656l6.058,6.6-4.179,3.82-5.842-6.427A14,14,0,1,1,14,0ZM9.883,8.756c2.039-2.251,4.394-3.474,6.159-1.473a1.845,1.845,0,0,1,1.223.5,2.964,2.964,0,0,1,.507,2.975v.885a1.144,1.144,0,0,1,.436.741,2.1,2.1,0,0,1,.033.641,1.738,1.738,0,0,1-.164.607.78.78,0,0,1-.579.464c-.255.272-.5.562-.726.842a8.635,8.635,0,0,0-.6.836.46.46,0,0,0-.035.441c.019.069.041.14.055.217.447.1.85.173,1.212.24,2.3.431,3.016.565,3.016,3.559a.277.277,0,0,1-.278.277H8.74a.276.276,0,0,1-.277-.277c0-2.993.712-3.127,3.016-3.559.364-.068.773-.145,1.219-.24.017-.06.036-.116.056-.17a.478.478,0,0,0-.044-.486,8.859,8.859,0,0,0-.6-.836c-.222-.279-.473-.57-.727-.842a.782.782,0,0,1-.577-.463,1.762,1.762,0,0,1-.166-.609,2.312,2.312,0,0,1,.034-.641,1.145,1.145,0,0,1,.43-.738l-.3-.178c-.08-.885.153-2.423-.928-2.714l0,0Zm7.338,1.768a2.792,2.792,0,0,0-.279-.926,3.848,3.848,0,0,0-.751-.639l-.036-.028c-.068-.049-.137-.1-.208-.142a4.662,4.662,0,0,1-2.5.688,2.468,2.468,0,0,0-1.784.97v1.376a.275.275,0,0,1-.214.269c-.11.033-.192.2-.237.408a1.54,1.54,0,0,0-.024.477,1.116,1.116,0,0,0,.108.408c.052.1.117.17.194.17h.016a.282.282,0,0,1,.2.085c.294.307.581.639.834.957a8.664,8.664,0,0,1,.637.894.941.941,0,0,1,.093.951.7.7,0,0,0-.052.217.28.28,0,0,1-.235.274c-.533.12-1,.205-1.4.282-1.885.354-2.517.472-2.561,2.742H19.87c-.043-2.27-.677-2.388-2.56-2.742-.415-.076-.886-.164-1.426-.288a.272.272,0,0,1-.214-.268,1.046,1.046,0,0,0-.053-.291.914.914,0,0,1,.094-.877,8.831,8.831,0,0,1,.635-.894c.253-.318.54-.65.834-.954a.27.27,0,0,1,.22-.085h0c.076,0,.142-.069.194-.17a1.133,1.133,0,0,0,.108-.408,1.642,1.642,0,0,0-.025-.477c-.044-.211-.126-.381-.242-.411a.278.278,0,0,1-.208-.269v-1.3l-.008,0Zm5.564-5.318A12.419,12.419,0,1,0,26.431,14a12.4,12.4,0,0,0-3.646-8.789Z" transform="translate(-29 -62.298)" fill="#f48120"/>
    </g>
  </g>
</svg>
