<svg xmlns="http://www.w3.org/2000/svg" width="60" height="60" viewBox="0 0 60 60">
  <g id="Group_525" data-name="Group 525" transform="translate(-142 -5243)">
    <circle id="Ellipse_14" data-name="Ellipse 14" cx="30" cy="30" r="30" transform="translate(142 5243)" fill="#fff2e8"/>
    <g id="Group_8321" data-name="Group 8321" transform="translate(156.569 5257.677)">
      <path id="Path_9097" data-name="Path 9097" d="M11.427,21.374a4.77,4.77,0,0,0,8.653,0,16.552,16.552,0,0,1-1.286-1.639l-.01-.013a4.677,4.677,0,0,1-3.041,1.04,4.63,4.63,0,0,1-3.238-1.3c-.051-.046-.1-.092-.149-.141-.12.336-.274.738-.438,1.112a6.209,6.209,0,0,1-.492.94Zm9.242-.3c1.913,1.242,6.268,1.565,7.961,2.508a4.758,4.758,0,0,1,1.509,1.278c.868,1.148,2.646,5.313-.236,5.533h-5.42l.666-7.459a14.514,14.514,0,0,1-4.442-1.463c-.082,0-.113.036-.233.143-1.078,4.116-7.692,4.721-9.531-.092a14.941,14.941,0,0,1-4.59,1.4L7.4,30.39H1.586c-2.882-.22-1.1-4.385-.236-5.533a4.758,4.758,0,0,1,1.509-1.278c1.719-.963,6.2-1.278,8.056-2.577a5.816,5.816,0,0,0,.425-.827c.213-.487.407-1.019.533-1.383a17.232,17.232,0,0,1-1.393-1.983l-1.36-2.164a1.529,1.529,0,0,1-.295-.056c-1.109-.348-2.034-2.818-1.852-3.983.1-.661.338-.9.715-1.043a.536.536,0,0,1-.028-.172V6.9a5.676,5.676,0,0,1,.735-2.69A7.928,7.928,0,0,1,10.38,1.863,9.027,9.027,0,0,1,16.064,0a8.787,8.787,0,0,1,5.592,2,7.236,7.236,0,0,1,1.814,2.38,6.633,6.633,0,0,1,.676,2.833V9.261a.528.528,0,1,1-1.055,0V7.206a5.6,5.6,0,0,0-.569-2.38A6.146,6.146,0,0,0,20.974,2.8a7.727,7.727,0,0,0-4.921-1.747A7.934,7.934,0,0,0,11.035,2.7,6.86,6.86,0,0,0,9.317,4.722a4.618,4.618,0,0,0-.6,2.185V9.284l.015-.005.435.54c-.036-.927-.038-1.916,0-2.789a5.2,5.2,0,0,1,.174-.912,5.389,5.389,0,0,1,2.38-3.033,7.649,7.649,0,0,1,9.493,1.009,5.462,5.462,0,0,1,1.378,3.453L22.506,11.2h0a1.019,1.019,0,0,1,.743.768,3.181,3.181,0,0,1-.387,1.924h0l-.023.046-1.606,2.643A13.8,13.8,0,0,1,19.265,19.3l.049.067a14.674,14.674,0,0,0,1.355,1.706ZM9.9,11.715l.62,1.7a1.01,1.01,0,0,1,.059.512l.005-.005a8.026,8.026,0,0,0,3.573,2.293,1.05,1.05,0,0,1,.318-.423,2.353,2.353,0,0,1,2.1.02.98.98,0,0,1,.09,1.227c-.51.681-2.628.108-3.338-.12a10.183,10.183,0,0,1-3.148-2.07l.966,1.534a12.061,12.061,0,0,0,1.893,2.487,3.873,3.873,0,0,0,2.7,1.089A3.99,3.99,0,0,0,18.6,18.825a12.575,12.575,0,0,0,1.949-2.656l1.586-2.613a2.535,2.535,0,0,0,.336-1.391c-.041-.159-.215-.236-.51-.248-.064,0-.128,0-.192,0s-.146.008-.223.015a.5.5,0,0,1-.123-.008,2.29,2.29,0,0,1-.435-.023l.543-2.405c-4.032.635-7.047-2.359-11.309-.6l.307,2.836a2.509,2.509,0,0,1-.487-.02h0a1.319,1.319,0,0,0-.143.005Z" transform="translate(0 0)" fill="#f48120"/>
    </g>
  </g>
</svg>
