<svg xmlns="http://www.w3.org/2000/svg" width="60" height="60" viewBox="0 0 60 60">
  <g id="Group_527" data-name="Group 527" transform="translate(-142 -5009)">
    <circle id="Ellipse_14" data-name="Ellipse 14" cx="30" cy="30" r="30" transform="translate(142 5009)" fill="#fff2e8"/>
    <g id="Group_8319" data-name="Group 8319" transform="translate(156 5020.129)">
      <path id="Path_9095" data-name="Path 9095" d="M12.59,5.08a.677.677,0,0,0,.428-.039l-.254-1.454a1.97,1.97,0,0,1,.437-.858,1.372,1.372,0,0,1,.76-.413c.4-.03.517.263.918.52A6.451,6.451,0,0,0,18.635,3.9l-.311,1.256a.607.607,0,0,0,.338.033c.242-.021.389,0,.425.078.057.114.006.35-.165.733L18.1,7.353a6.413,6.413,0,0,1-1.008,1.373,2.047,2.047,0,0,1-1.466.583,1.99,1.99,0,0,1-1.385-.556,6.176,6.176,0,0,1-.978-1.286L12.53,6.3h0l0-.006a1.732,1.732,0,0,1-.344-.835.4.4,0,0,1,.033-.185.283.283,0,0,1,.1-.111.611.611,0,0,1,.278-.087Zm.673,5.477,1.31,3.85.658-2.285-.323-.353a.528.528,0,0,1-.1-.556c.173-.347.535-.281.873-.281s.79-.066.9.377a.591.591,0,0,1-.114.464l-.323.353.658,2.285,1.184-3.85c.855.769,3.386.924,4.328,1.448a2.478,2.478,0,0,1,.784.664,3.165,3.165,0,0,1,.583,1.72l.2,3.114a.865.865,0,0,1-.9.846H8.273a.862.862,0,0,1-.9-.846l.2-3.114a3.175,3.175,0,0,1,.586-1.72,2.445,2.445,0,0,1,.784-.664c.939-.526,3.47-.682,4.325-1.451Zm4.086,8.57v3.53H30.261v6.7H27.686V25.231H17.348v3.715H14.6V25.231H4.176v4.128H1.6v-6.7h13v-3.53ZM28.975,30.977a2.888,2.888,0,1,1-2.889,2.889,2.887,2.887,0,0,1,2.889-2.889Zm-26.088,0A2.888,2.888,0,1,1,0,33.864a2.889,2.889,0,0,1,2.886-2.886Zm13.089,0a2.888,2.888,0,1,1-2.886,2.889,2.887,2.887,0,0,1,2.886-2.889ZM19.14,4.757l.045-1.872a2.84,2.84,0,0,0-.715-1.792A4.156,4.156,0,0,0,14.2.244a3.5,3.5,0,0,0-.664.323,2.792,2.792,0,0,0-1.235,1.576,2.681,2.681,0,0,0-.09.473,18.887,18.887,0,0,0,.033,2.064.954.954,0,0,0-.191.1.743.743,0,0,0-.26.3.882.882,0,0,0-.075.392,2.16,2.16,0,0,0,.419,1.077l.733,1.164a6.57,6.57,0,0,0,1.059,1.382,2.439,2.439,0,0,0,1.7.682,2.48,2.48,0,0,0,1.786-.709,6.9,6.9,0,0,0,1.089-1.472l.835-1.373c.006-.009.009-.018.015-.027h0a1.424,1.424,0,0,0,.159-1.137.6.6,0,0,0-.374-.3Z" transform="translate(0 0)" fill="#f48120" fill-rule="evenodd"/>
    </g>
  </g>
</svg>
