<svg xmlns="http://www.w3.org/2000/svg" width="60" height="60" viewBox="0 0 60 60">
  <g id="Group_526" data-name="Group 526" transform="translate(-142 -5124)">
    <circle id="Ellipse_14" data-name="Ellipse 14" cx="30" cy="30" r="30" transform="translate(142 5124)" fill="#fff2e8"/>
    <g id="Group_8320" data-name="Group 8320" transform="translate(150.883 5141.162)">
      <path id="Path_9096" data-name="Path 9096" d="M32.143,22.615l.7-2.653-.479-.524a.793.793,0,0,1-.143-.828c.259-.514.8-.419,1.3-.419.528,0,1.178-.1,1.342.559a.872.872,0,0,1-.168.689l-.479.524.416,1.594,2.758-2.4,1.43.035a11.227,11.227,0,0,0-1.846-2.618,23.788,23.788,0,0,1,3.81,1.706,3.137,3.137,0,0,1,1.269,1.227,7.294,7.294,0,0,1,.713,3.174l.2,1H35.187l.007.024H32.219A1.166,1.166,0,0,1,31,24.838H11.969a1.168,1.168,0,0,1-1.223-1.143l.266-4.209a4.313,4.313,0,0,1,.79-2.328,3.327,3.327,0,0,1,1.059-.9c1.276-.71,4.254-.919,5.411-1.961l1.772,5.212.891-3.094-.437-.479a.718.718,0,0,1-.129-.755c.238-.468.727-.381,1.185-.381.479,0,1.07-.091,1.22.51a.8.8,0,0,1-.154.626l-.437.479.891,3.094,1.6-5.212c1.157,1.042,4.139,1.251,5.411,1.961a3.29,3.29,0,0,1,1.059.9,4.3,4.3,0,0,1,.79,2.328l.2,3.129Zm-26.8-5.743,1.189,3.492.6-2.073-.294-.322a.482.482,0,0,1-.087-.507c.157-.315.486-.255.794-.255s.717-.059.818.343a.538.538,0,0,1-.1.419l-.294.322.6,2.073,1.077-3.492a2.142,2.142,0,0,0,.629.36,5.817,5.817,0,0,0-.238.584,7.022,7.022,0,0,0-.35,1.769h0c0,.014,0,.031,0,.045l-.259,4.048H.821A.781.781,0,0,1,0,22.912l.178-2.566A2.9,2.9,0,0,1,.71,18.787a2.24,2.24,0,0,1,.71-.6c.853-.475,3.15-.615,3.926-1.314Zm-.584-4.95A.571.571,0,0,0,4.5,12a.249.249,0,0,0-.08.091.362.362,0,0,0-.028.157,1.569,1.569,0,0,0,.308.748L4.7,13h0l.664,1.056a5.735,5.735,0,0,0,.884,1.164,1.776,1.776,0,0,0,1.244.5A1.848,1.848,0,0,0,8.809,15.2a5.892,5.892,0,0,0,.909-1.241l.745-1.227c.15-.343.2-.549.147-.647-.031-.059-.154-.077-.357-.059a.6.6,0,0,1-.409-.07l.374-1.119A5.839,5.839,0,0,1,6.81,9.873c-.364-.231-.472-.5-.835-.472a1.209,1.209,0,0,0-.689.374,1.8,1.8,0,0,0-.4.78l.22,1.339a.367.367,0,0,1-.35.028Zm5.918-.332a.541.541,0,0,1,.35.283,1.3,1.3,0,0,1-.143,1.049h0a.1.1,0,0,1-.014.028l-.755,1.244a6.237,6.237,0,0,1-.989,1.339,2.257,2.257,0,0,1-1.632.647,2.217,2.217,0,0,1-1.556-.622A5.958,5.958,0,0,1,4.974,14.3L4.31,13.243a1.988,1.988,0,0,1-.385-.986A.761.761,0,0,1,4,11.893a.658.658,0,0,1,.245-.283.883.883,0,0,1,.182-.091,16.309,16.309,0,0,1-.028-1.853,2.656,2.656,0,0,1,.08-.43A2.549,2.549,0,0,1,5.6,7.807a2.936,2.936,0,0,1,.6-.294,3.772,3.772,0,0,1,3.87.769,2.575,2.575,0,0,1,.65,1.625l-.042,1.681Zm6.677-4.674a.791.791,0,0,0-.346.112.341.341,0,0,0-.119.136.585.585,0,0,0-.042.234A2.247,2.247,0,0,0,17.31,8.51l.007.007h0l.989,1.577a8.3,8.3,0,0,0,1.318,1.734,2.667,2.667,0,0,0,1.853.748,2.735,2.735,0,0,0,1.965-.78A8.721,8.721,0,0,0,24.8,9.943l1.112-1.832c.224-.51.294-.818.22-.965-.045-.094-.241-.115-.57-.084a.258.258,0,0,1-.073,0,1.07,1.07,0,0,1-.444-.108l.5-1.671A8.678,8.678,0,0,1,20.46,3.847c-.542-.346-.706-.741-1.248-.7a1.85,1.85,0,0,0-1.028.556,2.674,2.674,0,0,0-.591,1.161l.353,2.02a.658.658,0,0,1-.591.035Zm8.879-.5a.812.812,0,0,1,.524.423A1.938,1.938,0,0,1,26.546,8.4h0a.381.381,0,0,1-.021.038L25.4,10.3a9.124,9.124,0,0,1-1.479,2,3.382,3.382,0,0,1-2.436.968,3.33,3.33,0,0,1-2.321-.93,8.9,8.9,0,0,1-1.44-1.877L16.73,8.887a2.973,2.973,0,0,1-.573-1.472,1.154,1.154,0,0,1,.1-.545,1.01,1.01,0,0,1,.364-.423,1.105,1.105,0,0,1,.273-.136,25.857,25.857,0,0,1-.042-2.762,3.751,3.751,0,0,1,.122-.64A3.777,3.777,0,0,1,18.653.777a4.581,4.581,0,0,1,.9-.437,5.629,5.629,0,0,1,5.775,1.15A3.842,3.842,0,0,1,26.3,3.916l-.063,2.5Zm3.436,8.606L30.545,15l.724-.017a6.407,6.407,0,0,1,1.475-7.033,4.55,4.55,0,0,0,2.436,2.72,12.9,12.9,0,0,1,1.828,1.681c.1-.43-.294-.954-.78-1.493a2.348,2.348,0,0,1,1.15,1.126A3.148,3.148,0,0,1,37.6,14a4.172,4.172,0,0,1-.259.972H38.55c1.272-2.723.465-6.761-2.136-8.473A3.509,3.509,0,0,0,34.107,6a3.776,3.776,0,0,0-2.538.64,6.414,6.414,0,0,0-2.534,4.593c-.066,1.073-.112,2.926.636,3.789Z" transform="translate(0 0)" fill="#f48120" fill-rule="evenodd"/>
    </g>
  </g>
</svg>
