<svg xmlns="http://www.w3.org/2000/svg" width="60" height="60" viewBox="0 0 60 60">
  <g id="Group_521" data-name="Group 521" transform="translate(-652 -4535)">
    <path id="Ellipse_14" data-name="Ellipse 14" d="M30,0A30,30,0,1,1,0,30,30,30,0,0,1,30,0Z" transform="translate(652 4535)" fill="#fff2e8"/>
    <path id="Path_9090" data-name="Path 9090" d="M28.161,17.06l1.11,1.11a.753.753,0,0,1,0,1.062l-.894.894a5.971,5.971,0,0,1,.555,1.469h1.158a.753.753,0,0,1,.753.753v1.569a.753.753,0,0,1-.753.753H28.834a5.933,5.933,0,0,1-.653,1.436l.819.819a.753.753,0,0,1,0,1.065L27.89,29.1a.753.753,0,0,1-1.062,0l-.894-.894a6.026,6.026,0,0,1-1.481.555v1.158a.753.753,0,0,1-.753.753H22.122a.753.753,0,0,1-.753-.753V28.663a6.026,6.026,0,0,1-1.436-.655l-.821.819a.753.753,0,0,1-1.062,0l-1.11-1.11a.753.753,0,0,1,0-1.062l.894-.894a5.911,5.911,0,0,1-.555-1.479H16.121a.753.753,0,0,1-.753-.753V21.959a.753.753,0,0,1,.753-.753h1.256a5.959,5.959,0,0,1,.655-1.439l-.821-.819a.753.753,0,0,1,0-1.062l1.11-1.11a.753.753,0,0,1,1.062,0l.9.894a5.984,5.984,0,0,1,1.479-.555V15.96a.753.753,0,0,1,.753-.753h1.579a.753.753,0,0,1,.753.753v1.256a5.913,5.913,0,0,1,1.439.655l.821-.811a.753.753,0,0,1,1.065,0ZM4.5,6.827a26.885,26.885,0,0,0,8.168,1.12,26.55,26.55,0,0,0,8.176-1.12c1.82-.608,2.945-1.343,2.945-2.064S22.669,3.31,20.849,2.7a26.877,26.877,0,0,0-8.168-1.122A26.966,26.966,0,0,0,4.5,2.7C.65,3.99.542,5.5,4.5,6.827Zm7.829,17.027a28.092,28.092,0,0,1-8.321-1.205,10.011,10.011,0,0,1-2.431-1.143V26.24c.143.67,1.235,1.346,2.93,1.911a26.877,26.877,0,0,0,8.168,1.122c.54,0,1.072,0,1.592-.038a3.837,3.837,0,0,0,.5.635h0l.866.864c-.954.08-1.951.123-2.976.123A28.482,28.482,0,0,1,4,29.65C2.82,29.258-.02,27.965-.02,26.421v-.5Q0,15.34-.015,4.771C-.015,3.289,1.524,2.039,4,1.208A28.6,28.6,0,0,1,12.681,0a28.482,28.482,0,0,1,8.668,1.208c2.235.746,3.746,1.861,4,3.164a.781.781,0,0,1,.045.266v7.749a3.767,3.767,0,0,0-1.3-.229h-.3a.464.464,0,0,0,0-.058h0V7.161a10.082,10.082,0,0,1-2.456,1.16,28.265,28.265,0,0,1-8.655,1.22A28.53,28.53,0,0,1,4,8.321,10.011,10.011,0,0,1,1.572,7.176v5.072c.143.673,1.235,1.348,2.93,1.913a26.877,26.877,0,0,0,8.168,1.122c1.027,0,2.024-.045,2.971-.128l-.409.412c-.058.05-.113.1-.168.156a3.767,3.767,0,0,0-.766,1.1c-.53.023-1.072.035-1.62.035A28.482,28.482,0,0,1,4.01,15.651a10.011,10.011,0,0,1-2.428-1.137v4.733c.143.67,1.235,1.343,2.923,1.911a26.487,26.487,0,0,0,7.807,1.12v1.256a2.386,2.386,0,0,0,.015.329Zm10.772-4a3.086,3.086,0,1,1-3.089,3.086,3.086,3.086,0,0,1,3.089-3.086Z" transform="translate(667.02 4549.032)" fill="#f48120" fill-rule="evenodd"/>
  </g>
</svg>
