<svg xmlns="http://www.w3.org/2000/svg" width="60" height="60" viewBox="0 0 60 60">
  <g id="Group_520" data-name="Group 520" transform="translate(-652 -4654)">
    <circle id="Ellipse_14" data-name="Ellipse 14" cx="30" cy="30" r="30" transform="translate(652 4654)" fill="#fff2e8"/>
    <g id="Group_8317" data-name="Group 8317" transform="translate(665 4667.979)">
      <path id="Path_9091" data-name="Path 9091" d="M8.369,25.255V14.9h4.659a17.48,17.48,0,0,1,5.926,2.669h3.619c1.638.1,2.5,1.759.9,2.85-1.27.93-2.943.878-4.659.724a.779.779,0,1,0,0,1.538c.428.033.895-.067,1.3-.068,2.142,0,3.906-.412,4.986-2.1l.543-1.267,5.383-2.669c2.694-.887,4.608,1.931,2.624,3.89a70.51,70.51,0,0,1-11.988,7.056,8.117,8.117,0,0,1-8.911,0L8.369,25.255Zm20.265-16.6a.324.324,0,0,0-.249-.058.335.335,0,0,0-.214.139l-.3.417a1.994,1.994,0,0,0-.33-.11c-.116-.029-.226-.052-.341-.07l-.093-.545a.333.333,0,0,0-.133-.214.314.314,0,0,0-.249-.052l-.684.122a.343.343,0,0,0-.214.133.319.319,0,0,0-.058.249l.087.5a1.989,1.989,0,0,0-.313.162,2.454,2.454,0,0,0-.284.2L24.8,9.206a.309.309,0,0,0-.243-.058.334.334,0,0,0-.214.139l-.394.562a.326.326,0,0,0,.081.463l.417.3a2.063,2.063,0,0,0-.11.33c-.029.116-.052.226-.07.342l-.544.093a.337.337,0,0,0-.215.133.317.317,0,0,0-.052.249l.122.684a.342.342,0,0,0,.134.214.317.317,0,0,0,.249.058l.5-.087a2.048,2.048,0,0,0,.162.313,3.192,3.192,0,0,0,.2.29l-.319.458a.308.308,0,0,0-.058.243.335.335,0,0,0,.139.214l.568.4a.322.322,0,0,0,.249.052.353.353,0,0,0,.22-.133l.3-.423a1.994,1.994,0,0,0,.33.11c.116.029.226.052.341.07l.093.544a.334.334,0,0,0,.133.214.314.314,0,0,0,.249.052l.684-.122a.342.342,0,0,0,.214-.133.319.319,0,0,0,.058-.249l-.087-.5a1.987,1.987,0,0,0,.313-.162,3.294,3.294,0,0,0,.29-.2l.458.319a.316.316,0,0,0,.249.058.323.323,0,0,0,.215-.139l.4-.568a.319.319,0,0,0,.052-.249.351.351,0,0,0-.133-.22l-.423-.29a2.009,2.009,0,0,0,.11-.33c.029-.116.052-.226.07-.342l.545-.093a.336.336,0,0,0,.214-.133.315.315,0,0,0,.052-.249l-.122-.684a.342.342,0,0,0-.133-.214.318.318,0,0,0-.249-.058l-.5.087a2.66,2.66,0,0,0-.162-.313,2.086,2.086,0,0,0-.2-.284l.318-.463a.309.309,0,0,0,.058-.243.336.336,0,0,0-.139-.214l-.562-.394-.017.006Zm-1.987,1.61a1.334,1.334,0,0,1,1.372.6,1.278,1.278,0,0,1,.191.5,1.335,1.335,0,0,1-.6,1.373,1.278,1.278,0,0,1-.5.191,1.336,1.336,0,0,1-1.373-.6,1.284,1.284,0,0,1-.191-.5,1.335,1.335,0,0,1,.6-1.373,1.269,1.269,0,0,1,.5-.191Zm-5.26-8.122a.242.242,0,0,0-.081-.058.226.226,0,0,0-.174,0,.317.317,0,0,0-.076.052l-.006.006L20.4,2.8a.37.37,0,0,1-.475.041c-.075-.046-.151-.093-.237-.139s-.18-.093-.261-.133-.18-.081-.272-.116-.174-.064-.284-.1A.372.372,0,0,1,18.611,2V1A.218.218,0,0,0,18.593.9a.2.2,0,0,0-.052-.07.268.268,0,0,0-.07-.052.217.217,0,0,0-.093-.018H17.117a.346.346,0,0,0-.087.012.3.3,0,0,0-.081.058A.163.163,0,0,0,16.9.9.223.223,0,0,0,16.885,1v.921a.379.379,0,0,1-.307.371c-.1.023-.191.046-.272.07s-.18.058-.272.093a2.671,2.671,0,0,0-.267.116c-.093.041-.174.087-.255.128a.367.367,0,0,1-.44-.064l-.724-.718c-.005-.006-.005-.006-.005-.012a.273.273,0,0,0-.07-.052.173.173,0,0,0-.081-.012.2.2,0,0,0-.087.017.233.233,0,0,0-.081.058l-.881.886a.232.232,0,0,0-.058.081.191.191,0,0,0-.017.087.2.2,0,0,0,.017.087.29.29,0,0,0,.052.075v.006l.655.655a.369.369,0,0,1,.041.475c-.046.075-.093.151-.139.238s-.093.18-.133.261-.081.18-.116.272-.064.174-.1.284a.372.372,0,0,1-.353.255h-1a.221.221,0,0,0-.093.017.478.478,0,0,0-.07.047.159.159,0,0,0-.046.069.223.223,0,0,0-.017.093V7.062a.346.346,0,0,0,.012.087.3.3,0,0,0,.058.081.16.16,0,0,0,.07.046A.219.219,0,0,0,12,7.294h.921a.379.379,0,0,1,.371.307c.023.1.046.191.07.267.029.093.058.185.093.278s.07.18.116.272.087.185.128.267a.367.367,0,0,1-.07.435l-.718.713-.006.006a.268.268,0,0,0-.052.07.174.174,0,0,0-.012.081.2.2,0,0,0,.017.087.191.191,0,0,0,.058.081l.875.887a.242.242,0,0,0,.081.052.238.238,0,0,0,.093.017.272.272,0,0,0,.1-.017.536.536,0,0,0,.075-.046l.649-.66a.37.37,0,0,1,.475-.046c.075.046.15.093.237.139s.18.093.261.133.18.081.272.116.174.064.284.1a.372.372,0,0,1,.255.353v1a.223.223,0,0,0,.017.093.287.287,0,0,0,.046.07.218.218,0,0,0,.168.064h1.263a.344.344,0,0,0,.087-.012.306.306,0,0,0,.081-.058.168.168,0,0,0,.047-.07.223.223,0,0,0,.018-.093v-.921a.379.379,0,0,1,.307-.371c.1-.023.191-.046.272-.07s.179-.058.272-.093.179-.07.272-.116.186-.087.267-.127a.367.367,0,0,1,.435.07l.712.718.006.006a.266.266,0,0,0,.069.052.269.269,0,0,0,.175-.006.292.292,0,0,0,.07-.052c.006-.006.012-.012.017-.012l.881-.869a.237.237,0,0,0,.052-.081.232.232,0,0,0,.018-.093.261.261,0,0,0-.018-.1.518.518,0,0,0-.046-.075l-.66-.649a.369.369,0,0,1-.047-.475c.047-.075.093-.151.139-.238s.093-.18.133-.261.081-.18.116-.272.064-.174.1-.284a.372.372,0,0,1,.353-.255h1a.215.215,0,0,0,.093-.018.292.292,0,0,0,.07-.046.217.217,0,0,0,.064-.168V6.113a.348.348,0,0,0-.012-.087.308.308,0,0,0-.058-.081.161.161,0,0,0-.069-.046.223.223,0,0,0-.093-.017h-.922a.379.379,0,0,1-.37-.313c-.023-.081-.047-.168-.07-.255s-.058-.18-.1-.278c0-.006-.006-.012-.006-.018-.035-.093-.07-.174-.1-.255s-.081-.174-.127-.255a.367.367,0,0,1,.064-.44l.718-.724c0-.006.006-.006.012-.006a.27.27,0,0,0,.052-.07.173.173,0,0,0,.012-.081.194.194,0,0,0-.017-.087.233.233,0,0,0-.058-.081l-.887-.881,0,0ZM21.6,1.4a1,1,0,0,1,.318.214l.887.881h.006a1.043,1.043,0,0,1,.214.313.921.921,0,0,1,.076.377,1.011,1.011,0,0,1-.076.377.889.889,0,0,1-.22.307l-.522.527c.006.017.018.035.023.052.047.1.087.2.128.3,0,.006.006.012.006.018.041.1.075.208.11.324l.012.041h.637a.911.911,0,0,1,.377.075.952.952,0,0,1,.313.214l.006.006a.93.93,0,0,1,.209.313,1.015,1.015,0,0,1,.075.371V7.37a.944.944,0,0,1-.284.7.963.963,0,0,1-.318.214,1.014,1.014,0,0,1-.377.07h-.742c-.006.017-.017.041-.023.058-.041.1-.087.208-.133.313s-.1.214-.151.307l-.018.035.452.446.018.017a.939.939,0,0,1,.2.319,1,1,0,0,1-.2,1.055l-.012.012-.887.881a.964.964,0,0,1-.313.22.918.918,0,0,1-.382.075,1.073,1.073,0,0,1-.382-.075.918.918,0,0,1-.312-.22l-.516-.521a.183.183,0,0,1-.058.023c-.1.041-.2.087-.313.127s-.214.075-.324.11a.137.137,0,0,1-.047.012v.631a.91.91,0,0,1-.075.377.947.947,0,0,1-.214.313l-.006.006a.923.923,0,0,1-.313.208,1,1,0,0,1-.37.075H16.81a.944.944,0,0,1-.7-.284.969.969,0,0,1-.214-.319,1.013,1.013,0,0,1-.07-.377V11.43c-.017-.006-.041-.017-.058-.023-.1-.041-.208-.087-.313-.133s-.214-.1-.307-.151l-.035-.017-.446.452-.017.017a.931.931,0,0,1-.319.2,1.007,1.007,0,0,1-.736,0,1,1,0,0,1-.319-.2l-.012-.012-.886-.9a1.043,1.043,0,0,1-.214-.313.93.93,0,0,1-.075-.377,1.016,1.016,0,0,1,.075-.377,1.059,1.059,0,0,1,.22-.313l.521-.516a.171.171,0,0,1-.023-.058c-.041-.1-.087-.2-.128-.313s-.081-.214-.11-.324l-.012-.047h-.631a.911.911,0,0,1-.377-.075.946.946,0,0,1-.313-.214l-.006-.006a.925.925,0,0,1-.208-.313,1.009,1.009,0,0,1-.075-.371V5.787a.943.943,0,0,1,.284-.7.969.969,0,0,1,.319-.214,1.007,1.007,0,0,1,.377-.07h.742c.006-.017.017-.041.023-.058.041-.1.087-.209.133-.313s.1-.214.151-.307l.017-.035-.446-.452a.906.906,0,0,1-.214-.319.95.95,0,0,1-.075-.377.928.928,0,0,1,.075-.377.992.992,0,0,1,.214-.319l.881-.886V1.362a1.043,1.043,0,0,1,.313-.214.93.93,0,0,1,.377-.075,1.008,1.008,0,0,1,.377.075.888.888,0,0,1,.307.22l.527.521a.36.36,0,0,0,.047-.023c.1-.047.2-.087.313-.133s.214-.075.324-.11a.134.134,0,0,1,.046-.012V.979A.911.911,0,0,1,16.213.6.95.95,0,0,1,16.428.29l.006-.006a.928.928,0,0,1,.313-.208A1.008,1.008,0,0,1,17.117,0h1.263a1.035,1.035,0,0,1,.377.07.91.91,0,0,1,.319.214A.97.97,0,0,1,19.289.6a1.018,1.018,0,0,1,.07.377v.742c.017.006.041.017.058.023.1.041.209.087.313.133s.214.1.307.151l.035.017.452-.446a.9.9,0,0,1,.318-.214.951.951,0,0,1,.377-.075.931.931,0,0,1,.377.075V1.4Zm-4,2.346a2.666,2.666,0,0,1,.568.058,2.728,2.728,0,0,1,.539.168,3.489,3.489,0,0,1,.481.261,2.6,2.6,0,0,1,.417.342,2.435,2.435,0,0,1,.342.423,2.588,2.588,0,0,1,.261.481c.006.012.006.023.012.029a2.839,2.839,0,0,1,.156.51,3.067,3.067,0,0,1,.058.568,2.672,2.672,0,0,1-.058.568,2.738,2.738,0,0,1-.168.539,3.5,3.5,0,0,1-.261.481,3.374,3.374,0,0,1-.342.423,2.391,2.391,0,0,1-.423.342,2.562,2.562,0,0,1-.481.261c-.012.006-.023.006-.029.012a2.874,2.874,0,0,1-.509.157,3.1,3.1,0,0,1-.568.058,2.652,2.652,0,0,1-.568-.058,2.761,2.761,0,0,1-.539-.168A3.533,3.533,0,0,1,16,8.933a2.6,2.6,0,0,1-.417-.342,2.446,2.446,0,0,1-.342-.423,2.589,2.589,0,0,1-.261-.481c-.006-.012-.006-.023-.012-.029a2.832,2.832,0,0,1-.156-.51,3.091,3.091,0,0,1-.058-.568,2.648,2.648,0,0,1,.058-.568,2.74,2.74,0,0,1,.168-.539,3.453,3.453,0,0,1,.261-.481,2.978,2.978,0,0,1,.342-.423A2.629,2.629,0,0,1,16,4.229a2.556,2.556,0,0,1,.481-.261c.012-.006.023-.006.029-.012a2.855,2.855,0,0,1,.51-.156,3.091,3.091,0,0,1,.568-.058Zm.423.788a2.021,2.021,0,0,0-.423-.041,2.058,2.058,0,0,0-.423.041,2.279,2.279,0,0,0-.371.11c-.006.006-.012.006-.023.012a2.2,2.2,0,0,0-.365.2A2.133,2.133,0,0,0,16.1,5.1a1.8,1.8,0,0,0-.249.307,2.159,2.159,0,0,0-.2.365,2.053,2.053,0,0,0-.122.394,2.019,2.019,0,0,0-.041.423,2.058,2.058,0,0,0,.041.423,2.365,2.365,0,0,0,.11.371c.006.006.006.012.012.023a2.19,2.19,0,0,0,.2.365,2.1,2.1,0,0,0,.249.307,1.8,1.8,0,0,0,.307.249,2.158,2.158,0,0,0,.365.2,2.1,2.1,0,0,0,.394.122,2,2,0,0,0,.423.041,2.043,2.043,0,0,0,.423-.041,2.348,2.348,0,0,0,.371-.11c.006-.006.012-.006.023-.012a2.21,2.21,0,0,0,.365-.2,2.1,2.1,0,0,0,.307-.249,1.825,1.825,0,0,0,.249-.307,2.168,2.168,0,0,0,.2-.365,2.1,2.1,0,0,0,.122-.394,2,2,0,0,0,.041-.423,2.037,2.037,0,0,0-.041-.423,2.31,2.31,0,0,0-.11-.371c-.006-.006-.006-.012-.012-.023A2.161,2.161,0,0,0,19.08,5.1a1.8,1.8,0,0,0-.307-.249,2.169,2.169,0,0,0-.365-.2,2.108,2.108,0,0,0-.394-.121ZM0,13.9H6.966V26.3H0V13.9Z" fill="#f48120" fill-rule="evenodd"/>
    </g>
  </g>
</svg>
