<svg id="Group_529" data-name="Group 529" xmlns="http://www.w3.org/2000/svg" width="60" height="60" viewBox="0 0 60 60">
  <circle id="Ellipse_14" data-name="Ellipse 14" cx="30" cy="30" r="30" fill="#fff2e8"/>
  <g id="Group_8324" data-name="Group 8324" transform="translate(53 24.536)">
    <path id="Path_9102" data-name="Path 9102" d="M22.024,4.493a.493.493,0,0,0-.17-.122.473.473,0,0,0-.364,0,.618.618,0,0,0-.158.109l-.012.012L19.947,5.865a.775.775,0,0,1-1,.085c-.158-.1-.316-.194-.5-.291s-.376-.194-.546-.279-.376-.17-.571-.243c-.17-.061-.364-.134-.6-.207a.78.78,0,0,1-.534-.741v-2.1a.465.465,0,0,0-.036-.194.421.421,0,0,0-.109-.146.568.568,0,0,0-.146-.109.462.462,0,0,0-.194-.036H13.075a.728.728,0,0,0-.182.024.641.641,0,0,0-.17.122.338.338,0,0,0-.1.146.462.462,0,0,0-.037.194V4.019a.794.794,0,0,1-.644.777c-.207.049-.4.1-.571.146-.194.061-.376.121-.571.194a5.509,5.509,0,0,0-.559.243c-.194.085-.364.182-.534.267a.77.77,0,0,1-.923-.134L7.271,4.007C7.259,4,7.259,4,7.259,3.983a.576.576,0,0,0-.146-.109.361.361,0,0,0-.17-.024.406.406,0,0,0-.182.037.493.493,0,0,0-.17.122L4.745,5.865a.5.5,0,0,0-.122.17.476.476,0,0,0,0,.364.618.618,0,0,0,.109.158V6.57L6.105,7.942a.775.775,0,0,1,.085,1c-.1.158-.194.316-.291.5s-.194.376-.279.546-.17.376-.243.571c-.061.17-.134.364-.207.6a.78.78,0,0,1-.741.534h-2.1a.461.461,0,0,0-.194.036.994.994,0,0,0-.146.1.34.34,0,0,0-.1.146.462.462,0,0,0-.037.194v.214a6.1,6.1,0,0,0-1.542.72v-.958a2.166,2.166,0,0,1,.146-.789,2.155,2.155,0,0,1,.449-.668,2.02,2.02,0,0,1,.668-.449,2.122,2.122,0,0,1,.789-.146H3.92c.012-.037.037-.085.049-.121.085-.219.182-.437.279-.656s.206-.449.316-.644L4.6,8.585l-.935-.947a1.9,1.9,0,0,1-.449-.668,1.992,1.992,0,0,1-.158-.789,1.95,1.95,0,0,1,.158-.789,2.085,2.085,0,0,1,.449-.668L5.51,2.866V2.854a2.169,2.169,0,0,1,.656-.449,1.951,1.951,0,0,1,.789-.158,2.129,2.129,0,0,1,.789.158,1.849,1.849,0,0,1,.644.461L9.493,3.959a.714.714,0,0,0,.1-.049c.206-.1.425-.182.656-.279s.449-.158.68-.231a.284.284,0,0,1,.1-.024V2.052a1.913,1.913,0,0,1,.158-.789A1.979,1.979,0,0,1,11.63.607L11.642.6A1.939,1.939,0,0,1,12.3.158,2.118,2.118,0,0,1,13.075,0h2.647a2.164,2.164,0,0,1,.789.146A1.909,1.909,0,0,1,17.179.6a2.024,2.024,0,0,1,.449.668,2.122,2.122,0,0,1,.146.789V3.606c.036.012.085.037.121.049.219.085.437.182.656.279s.449.206.644.316l.073.037.947-.935a1.907,1.907,0,0,1,.668-.449,1.992,1.992,0,0,1,.789-.158,1.95,1.95,0,0,1,.789.158v.024a2.089,2.089,0,0,1,.668.449l1.858,1.846H25a2.177,2.177,0,0,1,.449.656,1.954,1.954,0,0,1,.158.789,2.133,2.133,0,0,1-.158.789,1.847,1.847,0,0,1-.461.644L23.894,9.2c.012.037.036.073.049.109.1.207.182.425.267.632,0,.012.012.024.012.037.085.206.158.437.231.68l.024.085h1.336a1.91,1.91,0,0,1,.789.158,1.979,1.979,0,0,1,.656.449l.012.012a1.944,1.944,0,0,1,.437.656,2.116,2.116,0,0,1,.158.777v.4h-.378A6.47,6.47,0,0,0,25.6,11.982c-.054-.025-.109-.048-.165-.07a6.841,6.841,0,0,0-2.423-.5c-.025-.093-.05-.187-.076-.282-.061-.182-.121-.376-.206-.583,0-.012-.012-.024-.012-.037-.073-.194-.146-.364-.219-.534s-.17-.364-.267-.534a.77.77,0,0,1,.134-.923l1.506-1.518c0-.012.012-.012.024-.012A.563.563,0,0,0,24,6.848a.36.36,0,0,0,.024-.17A.4.4,0,0,0,23.99,6.5a.492.492,0,0,0-.121-.17L22.011,4.48l.012.013ZM6.2,21.7a3.573,3.573,0,0,1-3.767.734A4.458,4.458,0,0,1,0,19.915c4.253,1.928,5.776-3.605.74-3.772a3.914,3.914,0,0,1,5.636-.478,6.2,6.2,0,0,0,1.852,1.1,3.081,3.081,0,0,0,.893.1c1.17,0,7.3-.129,8.545-.156,2.338-.046,3.52-3.64,6.845-2.373a4.459,4.459,0,0,1,2.432,2.521c-4.253-1.928-5.776,3.605-.74,3.772a3.914,3.914,0,0,1-5.636.478c-.8-.6-1.31-1.3-2.893-1.254-1.1.047-7.219.118-8.32.192a3.19,3.19,0,0,0-1,.177A10.686,10.686,0,0,0,6.214,21.7ZM14.071,7.844a5.587,5.587,0,0,1,1.19.121,5.777,5.777,0,0,1,1.129.352,7.3,7.3,0,0,1,1.008.546,5.49,5.49,0,0,1,.874.716,5.082,5.082,0,0,1,.716.886,5.383,5.383,0,0,1,.546,1.008c.012.024.012.049.024.061a5.979,5.979,0,0,1,.3.922c-.347.231-.678.483-1,.738h-.423c-.012-.092-.028-.184-.047-.275a4.842,4.842,0,0,0-.231-.777c-.012-.012-.012-.024-.024-.049a4.614,4.614,0,0,0-.413-.765,4.468,4.468,0,0,0-.522-.644,3.792,3.792,0,0,0-.644-.522,4.583,4.583,0,0,0-.765-.413,4.366,4.366,0,0,0-.826-.255,4.217,4.217,0,0,0-.886-.085,4.3,4.3,0,0,0-.886.085,4.846,4.846,0,0,0-.777.231c-.012.012-.024.012-.049.024a4.574,4.574,0,0,0-.765.413,4.482,4.482,0,0,0-.644.522,3.793,3.793,0,0,0-.522.644,4.581,4.581,0,0,0-.413.765,4.368,4.368,0,0,0-.255.826c-.02.089-.035.181-.047.275H8.15a5.154,5.154,0,0,1,.093-.591,5.752,5.752,0,0,1,.352-1.129,7.291,7.291,0,0,1,.546-1.008,6.167,6.167,0,0,1,.716-.886,5.49,5.49,0,0,1,.874-.716,5.4,5.4,0,0,1,1.008-.546c.024-.012.049-.012.061-.024a5.977,5.977,0,0,1,1.068-.328,6.487,6.487,0,0,1,1.19-.121h.013Z" transform="translate(-37 -7.14)" fill="#f48120"/>
  </g>
</svg>
