<svg xmlns="http://www.w3.org/2000/svg" xmlns:xlink="http://www.w3.org/1999/xlink" width="40" height="40" viewBox="0 0 40 40">
  <defs>
    <clipPath id="clip-path">
      <rect id="Rectangle_3617" data-name="Rectangle 3617" width="40" height="40" transform="translate(379 3253)" fill="none" stroke="#707070" stroke-width="1"/>
    </clipPath>
  </defs>
  <g id="Mask_Group_8049" data-name="Mask Group 8049" transform="translate(-379 -3253)" clip-path="url(#clip-path)">
    <g id="页面-1" transform="translate(377.542 3251.542)">
      <g id="Device">
        <g id="bulb_fill">
          <path id="MingCute" d="M42.917,0V42.917H0V0ZM22.52,41.589l-.021,0-.127.063-.034.007h0l-.027-.007-.127-.063a.038.038,0,0,0-.042.01l-.007.019-.031.764.009.036.02.022.185.132.026.007h0l.021-.007.185-.132.023-.029h0l.006-.03-.031-.764a.038.038,0,0,0-.029-.032Zm.474-.2-.025,0-.33.165-.018.018h0l0,.02.032.768.009.023h0l.015.013.359.166a.045.045,0,0,0,.051-.014l.007-.025-.061-1.1a.045.045,0,0,0-.035-.038Zm-1.279,0a.041.041,0,0,0-.049.009l-.01.025-.061,1.1a.041.041,0,0,0,.03.042l.028,0,.359-.166.017-.014h0l.007-.021.032-.768-.006-.023h0l-.017-.016Z" fill="none"/>
          <path id="形状" d="M20.094,34.187a1.788,1.788,0,0,1,.209,3.564l-.209.012H16.517a1.788,1.788,0,0,1-.209-3.564l.209-.012ZM18.306,2A14.246,14.246,0,0,1,32.611,16.186,16.684,16.684,0,0,1,27.641,27.8l-.509.507h0l-.484.45h0l-.449.393h0l-.591.481h0l-.587.437h0a3.58,3.58,0,0,0-.983,1.212l-.366.652a2.184,2.184,0,0,1-1.982,1.362H14.92a2.185,2.185,0,0,1-1.982-1.362l-.21-.373a4.214,4.214,0,0,0-1.139-1.491l-.416-.306h0l-.355-.277h0l-.407-.335h0l-.449-.393h0l-.484-.45h0L8.97,27.8A16.684,16.684,0,0,1,4,16.186,14.246,14.246,0,0,1,18.306,2Zm3.053,7.676A1.789,1.789,0,0,0,19,9.528l-.168.149L15.266,13.24a1.806,1.806,0,0,0-.15,2.384l.15.17,2.3,2.3-2.312,2.312a1.788,1.788,0,0,0,2.36,2.678l.168-.149,3.564-3.564a1.806,1.806,0,0,0,.15-2.384l-.15-.17-2.3-2.3,2.312-2.312A1.788,1.788,0,0,0,21.358,9.676Z" transform="translate(3.153 1.576)"/>
        </g>
      </g>
    </g>
  </g>
</svg>
