<svg xmlns="http://www.w3.org/2000/svg" xmlns:xlink="http://www.w3.org/1999/xlink" width="60" height="60" viewBox="0 0 60 60">
  <defs>
    <clipPath id="clip-path">
      <rect id="Rectangle_267" data-name="Rectangle 267" width="33.068" height="24.801" rx="2" fill="none" stroke="#f48120" stroke-linecap="round" stroke-linejoin="round" stroke-width="4"/>
    </clipPath>
  </defs>
  <g id="Group_525" data-name="Group 525" transform="translate(-142 -5243)">
    <circle id="Ellipse_14" data-name="Ellipse 14" cx="30" cy="30" r="30" transform="translate(142 5243)" fill="#fff2e8"/>
    <g id="payment-card-svgrepo-com" transform="translate(159.586 5263.688)">
      <g id="Mask_Group_322" data-name="Mask Group 322" transform="translate(-4.12 -3.09)" clip-path="url(#clip-path)">
        <g id="content-management" transform="translate(1.99 0)">
          <path id="Path_9178" data-name="Path 9178" d="M28.121,1.609H.968A.969.969,0,0,0,0,2.577V25.443a.969.969,0,0,0,.968.968H28.121a.969.969,0,0,0,.968-.968V2.577A.969.969,0,0,0,28.121,1.609ZM.506,15.532a7.283,7.283,0,0,1,11.273,2.756,7.367,7.367,0,0,1,.053,5.671H.506Zm11.737,2.554A7.793,7.793,0,0,0,.506,14.892V10.62l2.22-.963.621,1.432a.253.253,0,0,0,.27.15A10,10,0,0,1,6.25,11.2a.253.253,0,0,0,.265-.158l.574-1.452,4.484,1.771L11,12.809a.253.253,0,0,0,.085.3,10,10,0,0,1,1.893,1.831A.253.253,0,0,0,13.3,15l1.412-.612,1.918,4.423-1.409.611-.005,0a.253.253,0,0,0-.167.277,9.989,9.989,0,0,1,.043,2.634.253.253,0,0,0,.158.265l1.452.574-.31.783H12.375A7.872,7.872,0,0,0,12.243,18.086ZM16.9,22.71,15.61,22.2a10.493,10.493,0,0,0-.039-2.379l1.268-.55a.494.494,0,0,0,.256-.648l-1.928-4.447a.494.494,0,0,0-.648-.257l-1.268.55a10.5,10.5,0,0,0-1.71-1.654l.508-1.286a.494.494,0,0,0-.278-.639L7.262,9.11a.494.494,0,0,0-.64.277l-.508,1.286a10.5,10.5,0,0,0-2.379.039l-.55-1.268a.493.493,0,0,0-.649-.255l-2.031.881V5.588H28.582V8.2H23.29a.253.253,0,1,0,0,.506h5.293V23.959H16.932l.241-.609A.494.494,0,0,0,16.9,22.71ZM.968,2.116H28.121a.462.462,0,0,1,.462.462v.9H10.129a.253.253,0,0,0,0,.506H28.582v1.1H.506v-2.5A.462.462,0,0,1,.968,2.116ZM28.121,25.9H.968a.462.462,0,0,1-.462-.462v-.978H28.582v.978A.462.462,0,0,1,28.121,25.9Z" transform="translate(0 -1.609)" fill="#f48120"/>
          <path id="Path_9179" data-name="Path 9179" d="M1.93,4.244a.908.908,0,1,0-.908-.908A.909.909,0,0,0,1.93,4.244Zm0-1.31a.4.4,0,1,1-.4.4A.4.4,0,0,1,1.93,2.934Z" transform="translate(0.339 -1.338)" fill="#f48120"/>
          <path id="Path_9180" data-name="Path 9180" d="M3.83,4.244a.908.908,0,1,0-.908-.908A.909.909,0,0,0,3.83,4.244Zm0-1.31a.4.4,0,1,1-.4.4A.4.4,0,0,1,3.83,2.934Z" transform="translate(0.97 -1.338)" fill="#f48120"/>
          <path id="Path_9181" data-name="Path 9181" d="M5.73,4.244a.908.908,0,1,0-.908-.908A.909.909,0,0,0,5.73,4.244Zm0-1.31a.4.4,0,1,1-.4.4A.4.4,0,0,1,5.73,2.934Z" transform="translate(1.6 -1.338)" fill="#f48120"/>
          <path id="Path_9182" data-name="Path 9182" d="M2.391,13.009a.253.253,0,0,0,.2.464,4.434,4.434,0,0,1,5.825,2.3.253.253,0,0,0,.464-.2A4.941,4.941,0,0,0,2.391,13.009Z" transform="translate(0.743 2.039)" fill="#f48120"/>
        </g>
      </g>
    </g>
  </g>
</svg>
