<svg width="256" height="256" viewBox="0 0 256 256" fill="none" xmlns="http://www.w3.org/2000/svg">
<path d="M54.3612 161.886C52.8926 161.886 51.6935 160.687 51.6935 159.218C51.6935 157.741 52.8927 156.551 54.3612 156.551H124.52C125.997 156.551 127.187 157.741 127.187 159.218C127.187 160.687 125.997 161.886 124.52 161.886H54.3612ZM72.1832 132.845C72.1832 134.313 70.9841 135.513 69.5156 135.513C68.0384 135.513 66.8392 134.313 66.8392 132.845C66.8392 129.734 62.955 128.839 61.1563 130.664V130.655C60.5828 131.237 60.2613 132.019 60.27 132.845V145.193C60.27 148.269 64.1455 149.173 65.9616 147.374V147.365C66.5264 146.783 66.8479 146.001 66.8479 145.184C66.8479 143.715 68.0384 142.516 69.5156 142.516C70.9928 142.516 72.1832 143.715 72.1832 145.184C72.1832 149.859 68.4034 153.639 63.7371 153.639C61.1738 153.639 59.1231 152.909 57.3677 151.154H57.359C55.7775 149.581 54.8909 147.435 54.8909 145.201V132.845C54.8909 128.17 58.6794 124.39 63.3458 124.39C65.9178 124.39 67.9601 125.111 69.7154 126.867V126.858C71.2969 128.439 72.1832 130.586 72.1832 132.828V132.845ZM123.963 133.045C123.963 134.513 122.764 135.712 121.295 135.712C119.818 135.712 118.628 134.513 118.628 133.045C118.619 131.707 117.819 130.507 116.586 129.995C115.352 129.482 113.935 129.769 112.988 130.716C112.041 131.654 111.763 133.071 112.276 134.305C112.78 135.539 113.987 136.347 115.317 136.347C122.99 136.347 126.857 145.653 121.434 151.084C116.012 156.515 106.68 152.648 106.68 144.984C106.68 143.507 107.879 142.316 109.356 142.316C110.824 142.316 112.024 143.507 112.024 144.984C112.024 146.314 112.832 147.521 114.066 148.025C115.291 148.538 116.716 148.251 117.654 147.304C118.593 146.357 118.871 144.941 118.358 143.707C117.846 142.481 116.646 141.682 115.308 141.682C107.644 141.682 103.786 132.358 109.208 126.936C114.63 121.514 123.954 125.372 123.954 133.036L123.963 133.045ZM92.1082 150.954V150.945C92.1082 152.422 90.9177 153.621 89.4405 153.621C87.9634 153.621 86.7729 152.422 86.7729 150.945V132.263C86.7729 131.159 86.1385 129.752 85.3478 129.752C84.279 129.752 83.8445 129.578 83.3318 130.247H83.3231C82.8973 130.829 82.6714 131.542 82.6975 132.263V150.945C82.6975 152.422 81.4983 153.621 80.0211 153.621C78.5526 153.621 77.3535 152.422 77.3535 150.945V132.263C77.3535 128.257 80.0996 124.408 84.1055 124.408C86.1822 124.408 87.6331 124.408 89.4405 126.007C91.2219 124.408 92.6904 124.408 94.7758 124.408C98.7817 124.408 101.536 128.24 101.536 132.263V150.945H101.545C101.545 152.422 100.346 153.621 98.8689 153.621C97.4003 153.621 96.2012 152.422 96.2012 150.945V132.263C96.2012 131.159 95.5842 129.752 94.7848 129.752C93.6986 129.752 93.2815 129.578 92.7689 130.247C92.3431 130.829 92.1171 131.542 92.1432 132.263L92.1082 150.954ZM179.42 65.3549C191.09 65.3549 201.135 73.6011 203.411 85.054C205.688 96.5066 199.562 107.969 188.769 112.435C177.986 116.902 165.55 113.122 159.061 103.416C152.579 93.7095 153.856 80.7703 162.111 72.5151C166.708 67.9271 172.929 65.3549 179.42 65.3549ZM192.94 76.295C187.466 70.8208 179.237 69.1784 172.086 72.1414C164.934 75.1045 160.277 82.0823 160.277 89.8158C160.277 97.5582 164.934 104.527 172.086 107.49C179.237 110.453 187.466 108.811 192.94 103.345C200.405 95.8722 200.405 83.7589 192.94 76.295ZM193.071 49.5745C198.354 51.3732 203.229 54.1886 207.417 57.873L216.02 52.9026H216.011C217.288 52.1727 218.913 52.6072 219.652 53.8758L230.644 72.9318C231.365 74.2091 230.931 75.8254 229.662 76.564L221.077 81.517H221.068C222.172 86.9826 222.172 92.6135 221.068 98.0791L229.671 103.05C230.948 103.788 231.374 105.413 230.644 106.69L219.652 125.738C219.278 126.372 218.67 126.824 217.957 126.998C217.236 127.163 216.489 127.032 215.872 126.624L214.429 125.816V184.347C214.429 185.816 213.23 187.015 211.762 187.015H132.983V204.142H154.212C158.183 204.15 161.398 207.365 161.407 211.336V215.881C161.407 217.358 160.207 218.549 158.739 218.549H80.7079C79.2307 218.549 78.0405 217.358 78.0405 215.881V211.345C78.0492 207.374 81.2642 204.15 85.244 204.142H106.455V187.015H27.6677C26.1905 187.015 25 185.824 25 184.347V66.0747C25 64.5975 26.1905 63.407 27.6677 63.407H133.687L139.17 53.8835H139.179C139.918 52.6235 141.534 52.1978 142.803 52.919L151.414 57.8894C155.593 54.1963 160.468 51.3723 165.743 49.5736V39.6676C165.743 38.1904 166.942 37 168.41 37H190.403C191.881 37 193.071 38.1905 193.071 39.6676L193.071 49.5745ZM209.085 122.705L207.391 121.732C206.383 122.618 205.332 123.461 204.237 124.243V174.468L204.245 174.477C204.245 175.954 203.046 177.144 201.578 177.144H37.8433C36.3661 177.144 35.1669 175.954 35.1669 174.477V75.9378C35.1669 74.4606 36.3661 73.2702 37.8433 73.2702H128.022C128.074 73.1659 128.118 73.0529 128.179 72.9573L130.603 68.7604L30.3359 68.7517V181.672H209.095L209.085 122.705ZM198.91 127.536C197.033 128.518 195.078 129.361 193.071 130.056V139.971V139.962C193.071 141.439 191.881 142.639 190.403 142.639H168.419C166.942 142.639 165.751 141.439 165.751 139.962V130.056C160.477 128.258 155.611 125.434 151.422 121.758L142.803 126.728C141.525 127.449 139.909 127.015 139.17 125.738L128.169 106.69V106.699C127.448 105.422 127.883 103.797 129.151 103.067L137.737 98.1138L137.745 98.1051C136.659 92.6395 136.659 87.0086 137.745 81.5344L132.68 78.5973H40.5093V171.817H198.927L198.91 127.536ZM197.972 57.6381C195.4 56.1522 192.654 54.9705 189.795 54.145C188.587 53.8582 187.735 52.7807 187.735 51.5468V42.336H171.078V51.5468C171.086 52.7372 170.296 53.7886 169.149 54.1187C163.318 55.7871 157.983 58.8718 153.621 63.0861C152.769 63.903 151.483 64.0594 150.458 63.4772L142.446 58.8544L137.64 67.1876L137.649 67.1789C137.571 67.3354 137.493 67.4831 137.397 67.6308L134.121 73.3051L134.486 73.5136L134.477 73.5049C134.634 73.5744 134.782 73.6613 134.929 73.7569L141.959 77.8148C143.08 78.371 143.671 79.6223 143.375 80.8388C141.924 86.7389 141.924 92.8912 143.375 98.7912C143.654 99.9382 143.132 101.137 142.107 101.728L134.113 106.342L142.446 120.784L150.301 116.257H150.309C151.352 115.57 152.725 115.701 153.62 116.561C157.965 120.749 163.257 123.817 169.053 125.502C170.243 125.789 171.086 126.858 171.095 128.083V137.303H187.735V128.083C187.735 126.893 188.526 125.85 189.673 125.52C193.331 124.477 196.798 122.87 199.961 120.758C200.057 120.68 200.152 120.619 200.248 120.55C202.012 119.359 203.672 118.021 205.21 116.552C206.061 115.736 207.347 115.579 208.373 116.161L212.891 118.777L212.882 118.768C213.039 118.838 213.187 118.916 213.334 119.012L216.384 120.793L224.718 106.351L216.775 101.772H216.767C215.715 101.181 215.194 99.9643 215.481 98.7913C216.923 92.9 216.923 86.739 215.481 80.8476C215.211 79.6919 215.724 78.5014 216.749 77.9106L224.735 73.3052L216.384 58.8546L208.529 63.3906C207.486 64.0771 206.114 63.9467 205.218 63.0865C203.029 60.9836 200.596 59.1588 197.972 57.6381ZM111.799 204.142H127.649V187.015H111.799V204.142ZM154.211 209.477H85.2517V209.486C84.2263 209.486 83.3921 210.311 83.3834 211.336V213.205H156.062C156.062 211.919 156.28 210.78 155.524 210.024H155.515C155.167 209.677 154.698 209.486 154.212 209.486L154.211 209.477Z" fill="black"/>
</svg>
