<svg xmlns="http://www.w3.org/2000/svg" width="60" height="60" viewBox="0 0 60 60">
  <g id="Group_524" data-name="Group 524" transform="translate(0 -0.118)">
    <circle id="Ellipse_14" data-name="Ellipse 14" cx="30" cy="30" r="30" transform="translate(0 0.118)" fill="#fff2e8"/>
    <g id="file-text-svgrepo-com" transform="translate(13.784 12.698)">
      <path id="Path_9183" data-name="Path 9183" d="M9,17h9.614" transform="translate(2.409 8.432)" fill="none" stroke="#f48120" stroke-linecap="round" stroke-width="1"/>
      <path id="Path_9184" data-name="Path 9184" d="M9,13h9.614" transform="translate(2.409 6.023)" fill="none" stroke="#f48120" stroke-linecap="round" stroke-width="1"/>
      <path id="Path_9185" data-name="Path 9185" d="M9,9h1.6" transform="translate(2.409 3.614)" fill="none" stroke="#f48120" stroke-linecap="round" stroke-width="1"/>
      <path id="Path_9186" data-name="Path 9186" d="M5,7.807A4.807,4.807,0,0,1,9.807,3h8.286a3.2,3.2,0,0,1,2.266.939l6.134,6.134a3.2,3.2,0,0,1,.939,2.266v14.7a4.807,4.807,0,0,1-4.807,4.807H9.807A4.807,4.807,0,0,1,5,27.034Z" fill="none" stroke="#f48120" stroke-width="1"/>
      <path id="Path_9187" data-name="Path 9187" d="M13,3V6.2a6.409,6.409,0,0,0,6.409,6.409h3.2" transform="translate(4.818)" fill="none" stroke="#f48120" stroke-width="1"/>
    </g>
  </g>
</svg>
