<svg xmlns="http://www.w3.org/2000/svg" width="60" height="60" viewBox="0 0 60 60">
  <g id="Group_527" data-name="Group 527" transform="translate(-142 -5008)">
    <circle id="Ellipse_14" data-name="Ellipse 14" cx="30" cy="30" r="30" transform="translate(142 5008)" fill="#fff2e8"/>
    <g id="Layer" transform="translate(140.875 5006.868)">
      <g id="Group_8351" data-name="Group 8351" transform="translate(15.169 14.173)">
        <g id="Group_8348" data-name="Group 8348" transform="translate(17.253 10.066)">
          <path id="Path_9175" data-name="Path 9175" d="M976.869,576.974a.561.561,0,0,1-.561-.561,3.387,3.387,0,0,0-3.012-3.18.561.561,0,1,1,0-1.122,4.471,4.471,0,0,1,4.134,4.3A.561.561,0,0,1,976.869,576.974Z" transform="translate(-972.735 -572.111)" fill="#f48120"/>
        </g>
        <g id="Group_8349" data-name="Group 8349" transform="translate(0 0)">
          <path id="Path_9176" data-name="Path 9176" d="M28.971,42.908h-4.03a.561.561,0,0,1-.554-.472l-.551-3.421a12.348,12.348,0,0,1-3.2-1.325l-2.81,2.03a.561.561,0,0,1-.725-.058l-2.849-2.849a.561.561,0,0,1-.058-.725l2.03-2.81a12.349,12.349,0,0,1-1.326-3.2l-3.421-.551a.561.561,0,0,1-.472-.554v-4.03a.561.561,0,0,1,.472-.554L14.9,23.84a12.348,12.348,0,0,1,1.325-3.2l-2.03-2.81a.561.561,0,0,1,.058-.725L17.1,14.258a.561.561,0,0,1,.725-.058l2.81,2.03a12.344,12.344,0,0,1,3.2-1.325l.551-3.421a.561.561,0,0,1,.554-.472h4.03a.561.561,0,0,1,.554.472l.551,3.421a12.34,12.34,0,0,1,3.2,1.326l2.81-2.03a.561.561,0,0,1,.725.058l2.849,2.849a.561.561,0,0,1,.058.725l-2.03,2.81a12.343,12.343,0,0,1,1.326,3.2l3.421.551a.561.561,0,0,1,.472.554v4.03a.561.561,0,0,1-.472.554l-3.421.551a12.344,12.344,0,0,1-1.325,3.2l2.03,2.81a.561.561,0,0,1-.058.725l-2.849,2.849a.561.561,0,0,1-.725.058l-2.81-2.03a12.343,12.343,0,0,1-3.2,1.325l-.551,3.421A.561.561,0,0,1,28.971,42.908Zm-3.552-1.122h3.074l.534-3.318a.561.561,0,0,1,.431-.458A11.232,11.232,0,0,0,33,36.542a.561.561,0,0,1,.628.02l2.725,1.969,2.173-2.173-1.969-2.725A.561.561,0,0,1,36.538,33a11.24,11.24,0,0,0,1.468-3.542.561.561,0,0,1,.458-.43l3.318-.534V25.423l-3.318-.534a.561.561,0,0,1-.458-.431,11.233,11.233,0,0,0-1.468-3.542.561.561,0,0,1,.019-.628l1.969-2.725L36.353,15.39l-2.725,1.969a.561.561,0,0,1-.628.019,11.231,11.231,0,0,0-3.542-1.468.561.561,0,0,1-.431-.458l-.534-3.318H25.419l-.534,3.318a.561.561,0,0,1-.431.458,11.238,11.238,0,0,0-3.542,1.468.561.561,0,0,1-.628-.019L17.559,15.39l-2.173,2.174,1.969,2.725a.561.561,0,0,1,.019.628,11.239,11.239,0,0,0-1.468,3.542.561.561,0,0,1-.458.43l-3.318.534V28.5l3.318.534a.561.561,0,0,1,.458.43A11.238,11.238,0,0,0,17.374,33a.561.561,0,0,1-.019.628l-1.969,2.725,2.173,2.173,2.725-1.969a.561.561,0,0,1,.628-.02,11.241,11.241,0,0,0,3.542,1.468.561.561,0,0,1,.431.458Z" transform="translate(-11.008 -11.012)" fill="#f48120"/>
        </g>
        <g id="Group_8350" data-name="Group 8350" transform="translate(7.32 7.319)">
          <path id="Path_9177" data-name="Path 9177" d="M427.651,436.267a8.629,8.629,0,1,1,8.629-8.629A8.638,8.638,0,0,1,427.651,436.267Zm0-16.135a7.507,7.507,0,1,0,7.507,7.506A7.515,7.515,0,0,0,427.651,420.132Z" transform="translate(-419.022 -419.01)" fill="#f48120"/>
        </g>
      </g>
    </g>
  </g>
</svg>
