<svg id="banner-main5" xmlns="http://www.w3.org/2000/svg" xmlns:xlink="http://www.w3.org/1999/xlink" width="45" height="45" viewBox="0 0 45 45">
  <defs>
    <linearGradient id="linear-gradient" x1="0.5" x2="0.156" y2="0.791" gradientUnits="objectBoundingBox">
      <stop offset="0" stop-color="#3e3e3e"/>
      <stop offset="1" stop-color="#1a1a1a"/>
    </linearGradient>
  </defs>
  <circle id="Ellipse_1" data-name="Ellipse 1" cx="22.5" cy="22.5" r="22.5" fill="url(#linear-gradient)"/>
  <g id="content-settings-svgrepo-com" transform="translate(232.001 -38)">
    <path id="Path_9096" data-name="Path 9096" d="M19.8,3.006,19.594,3H6.655l-.207.006A3.656,3.656,0,0,0,3,6.656V19.594L3,19.8a3.656,3.656,0,0,0,3.65,3.449h6.494a7.28,7.28,0,0,1-.8-1.687h-5.7l-.161-.007a1.969,1.969,0,0,1-1.807-1.962V8.625H21.562v3.728a7.277,7.277,0,0,1,1.688.8V6.656l-.006-.207A3.657,3.657,0,0,0,19.8,3.006ZM6.656,4.688H19.594a1.969,1.969,0,0,1,1.969,1.969v.281H4.688V6.656A1.969,1.969,0,0,1,6.656,4.688Z" transform="translate(-223.219 46.75)" fill="#fff"/>
    <path id="Path_9097" data-name="Path 9097" d="M11.616,10.229A.844.844,0,0,0,10.78,9.5H6.843l-.114.008A.844.844,0,0,0,6,10.344v7.875l.008.115a.844.844,0,0,0,.836.729H10.78l.115-.008a.844.844,0,0,0,.729-.836V10.344Zm-3.93.958h2.25v6.188H7.687Z" transform="translate(-222.844 47.563)" fill="#fff"/>
    <path id="Path_9098" data-name="Path 9098" d="M17.9,9.5a.844.844,0,0,1,.115,1.68l-.115.008H12.847a.844.844,0,0,1-.114-1.68l.114-.008Z" transform="translate(-222.093 47.563)" fill="#fff"/>
    <path id="Path_9099" data-name="Path 9099" d="M13,16.566l-.5-.484a6.237,6.237,0,0,1,.959-1.766l.677.2a2.25,2.25,0,0,0,2.825-1.63l.194-.805a5.846,5.846,0,0,1,1.938,0l.194.805a2.25,2.25,0,0,0,2.825,1.63l.677-.2a6.242,6.242,0,0,1,.959,1.766l-.5.484a2.25,2.25,0,0,0,0,3.243l.5.484a6.243,6.243,0,0,1-.959,1.766l-.677-.2a2.25,2.25,0,0,0-2.825,1.63l-.194.805a5.846,5.846,0,0,1-1.938,0l-.194-.805a2.25,2.25,0,0,0-2.825-1.63l-.677.2a6.237,6.237,0,0,1-.959-1.766l.5-.484A2.25,2.25,0,0,0,13,16.566Zm6.753,1.621a1.632,1.632,0,1,0-1.631,1.688A1.66,1.66,0,0,0,19.755,18.188Z" transform="translate(-222.031 47.875)" fill="#fff"/>
  </g>
</svg>
