<svg width="45" height="45" viewBox="0 0 45 45" fill="none" xmlns="http://www.w3.org/2000/svg">
<rect width="45" height="45" rx="22.5" fill="url(#paint0_linear_1_16)"/>
<path d="M26 22C26 21.4067 25.8241 20.8266 25.4944 20.3333C25.1648 19.8399 24.6962 19.4554 24.1481 19.2284C23.5999 19.0013 22.9967 18.9419 22.4147 19.0576C21.8328 19.1734 21.2982 19.4591 20.8787 19.8787C20.4591 20.2982 20.1734 20.8328 20.0576 21.4147C19.9419 21.9967 20.0013 22.5999 20.2284 23.1481C20.4554 23.6962 20.8399 24.1648 21.3333 24.4944C21.8266 24.8241 22.4067 25 23 25C23.7954 24.9991 24.5579 24.6827 25.1203 24.1203C25.6827 23.5579 25.9991 22.7954 26 22ZM23 22.8571C22.8305 22.8571 22.6648 22.8069 22.5238 22.7127C22.3828 22.6185 22.273 22.4846 22.2081 22.328C22.1432 22.1714 22.1263 21.9991 22.1593 21.8328C22.1924 21.6665 22.274 21.5138 22.3939 21.3939C22.5138 21.274 22.6665 21.1924 22.8328 21.1593C22.9991 21.1263 23.1714 21.1432 23.328 21.2081C23.4846 21.273 23.6185 21.3828 23.7127 21.5238C23.8069 21.6648 23.8571 21.8305 23.8571 22C23.8569 22.2272 23.7665 22.4451 23.6058 22.6058C23.4451 22.7665 23.2272 22.8569 23 22.8571Z" fill="white"/>
<path d="M11 12C12.1046 12 13 11.1046 13 10C13 8.89543 12.1046 8 11 8C9.89543 8 9 8.89543 9 10C9 11.1046 9.89543 12 11 12Z" fill="white"/>
<path d="M35 12C36.1046 12 37 11.1046 37 10C37 8.89543 36.1046 8 35 8C33.8954 8 33 8.89543 33 10C33 11.1046 33.8954 12 35 12Z" fill="white"/>
<path d="M35 36C36.1046 36 37 35.1046 37 34C37 32.8954 36.1046 32 35 32C33.8954 32 33 32.8954 33 34C33 35.1046 33.8954 36 35 36Z" fill="white"/>
<path d="M11 36C12.1046 36 13 35.1046 13 34C13 32.8954 12.1046 32 11 32C9.89543 32 9 32.8954 9 34C9 35.1046 9.89543 36 11 36Z" fill="white"/>
<path d="M15.7735 14.0908L15.1132 14.751L15.7734 15.4115L16.4338 14.7513L15.7735 14.0908Z" fill="white"/>
<path d="M17.094 15.4116L16.4338 16.0718L17.094 16.7321L17.7543 16.0718L17.094 15.4116Z" fill="white"/>
<path d="M13.132 11.4495L12.4716 12.1097L13.1319 12.7702L13.7923 12.11L13.132 11.4495Z" fill="white"/>
<path d="M14.4529 12.7702L13.7927 13.4305L14.4529 14.0908L15.1132 13.4305L14.4529 12.7702Z" fill="white"/>
<path d="M18.4146 16.7321L17.7543 17.3928L18.415 18.0531L19.0753 17.3924L18.4146 16.7321Z" fill="white"/>
<path d="M19.7356 18.0529L19.0752 18.7131L19.7355 19.3736L20.3959 18.7134L19.7356 18.0529Z" fill="white"/>
<path d="M22.5 11.4933V12H23.5V11.4933C23.9713 11.3853 24.3821 11.1285 24.6553 10.7709C24.9285 10.4134 25.0454 9.97972 24.9841 9.55119C24.9227 9.12265 24.6874 8.72868 24.3221 8.44311C23.9569 8.15755 23.4868 8 23 8C22.5132 8 22.0431 8.15755 21.6779 8.44311C21.3126 8.72868 21.0773 9.12265 21.0159 9.55119C20.9546 9.97972 21.0715 10.4134 21.3447 10.7709C21.6179 11.1285 22.0287 11.3853 22.5 11.4933Z" fill="white"/>
<path d="M28.9803 15.4116L28.32 16.0718L28.9803 16.7321L29.6406 16.0718L28.9803 15.4116Z" fill="white"/>
<path d="M30.3009 14.0908L29.6405 14.7512L30.3008 15.4115L30.9612 14.7511L30.3009 14.0908Z" fill="white"/>
<path d="M31.6218 12.7702L30.9616 13.4305L31.6218 14.0908L32.2821 13.4305L31.6218 12.7702Z" fill="white"/>
<path d="M32.9424 11.4495L32.2821 12.1099L32.9423 12.7702L33.6027 12.1098L32.9424 11.4495Z" fill="white"/>
<path d="M27.6598 16.7323L26.9995 17.3926L27.6598 18.0529L28.32 17.3926L27.6598 16.7323Z" fill="white"/>
<path d="M26.3387 18.0529L25.6784 18.7134L26.3388 19.3736L26.9991 18.7131L26.3387 18.0529Z" fill="white"/>
<path d="M35.2222 20C34.8292 20.0013 34.4476 20.1495 34.1373 20.4214C33.827 20.6933 33.6055 21.0735 33.5076 21.5025H33V22.5041H33.5076C33.5912 22.8661 33.7633 23.1943 34.0042 23.4516C34.2451 23.7089 34.5452 23.8849 34.8704 23.9597C35.1957 24.0344 35.533 24.0049 35.8441 23.8744C36.1552 23.744 36.4276 23.5179 36.6303 23.2218C36.8331 22.9257 36.9581 22.5714 36.9912 22.1992C37.0242 21.8271 36.964 21.4519 36.8174 21.1164C36.6707 20.7808 36.4435 20.4983 36.1615 20.301C35.8796 20.1037 35.5542 19.9994 35.2222 20Z" fill="white"/>
<path d="M10.7778 24C11.1708 23.9987 11.5524 23.8505 11.8627 23.5786C12.173 23.3067 12.3945 22.9265 12.4924 22.4975H13V21.4959H12.4924C12.4088 21.1339 12.2367 20.8057 11.9958 20.5484C11.7549 20.2911 11.4548 20.1151 11.1296 20.0403C10.8043 19.9656 10.467 19.9951 10.1559 20.1256C9.84484 20.256 9.57245 20.4821 9.36968 20.7782C9.16691 21.0743 9.04189 21.4286 9.00883 21.8008C8.97576 22.1729 9.03598 22.5481 9.18263 22.8836C9.32928 23.2192 9.55649 23.5017 9.83845 23.699C10.1204 23.8963 10.4458 24.0006 10.7778 24Z" fill="white"/>
<path d="M22.5 32.5067C22.0287 32.6147 21.6179 32.8715 21.3447 33.2291C21.0715 33.5866 20.9546 34.0203 21.0159 34.4488C21.0773 34.8773 21.3126 35.2713 21.6779 35.5569C22.0431 35.8425 22.5132 36 23 36C23.4868 36 23.9569 35.8425 24.3221 35.5569C24.6874 35.2713 24.9227 34.8773 24.9841 34.4488C25.0454 34.0203 24.9285 33.5866 24.6553 33.2291C24.3821 32.8715 23.9713 32.6147 23.5 32.5067V32H22.5V32.5067Z" fill="white"/>
<path d="M26.3388 24.6563L25.6784 25.3165L26.3387 25.977L26.9991 25.3168L26.3388 24.6563Z" fill="white"/>
<path d="M27.6598 25.977L26.9995 26.6373L27.6598 27.2976L28.32 26.6373L27.6598 25.977Z" fill="white"/>
<path d="M28.9803 27.2978L28.32 27.9581L28.9803 28.6184L29.6406 27.9581L28.9803 27.2978Z" fill="white"/>
<path d="M30.3009 28.6184L29.6405 29.2786L30.3008 29.9391L30.9612 29.2789L30.3009 28.6184Z" fill="white"/>
<path d="M31.6218 29.9391L30.9616 30.5994L31.6218 31.2597L32.2821 30.5994L31.6218 29.9391Z" fill="white"/>
<path d="M32.9424 31.2597L32.2821 31.9199L32.9423 32.5804L33.6027 31.9202L32.9424 31.2597Z" fill="white"/>
<path d="M19.7356 24.6563L19.0752 25.3167L19.7355 25.977L20.3959 25.3166L19.7356 24.6563Z" fill="white"/>
<path d="M18.415 25.9768L17.7543 26.6371L18.4146 27.2978L19.0753 26.6375L18.415 25.9768Z" fill="white"/>
<path d="M17.094 27.2978L16.4338 27.9581L17.094 28.6184L17.7543 27.9581L17.094 27.2978Z" fill="white"/>
<path d="M15.7734 28.6184L15.1132 29.2789L15.7735 29.9391L16.4338 29.2786L15.7734 28.6184Z" fill="white"/>
<path d="M14.4529 29.9391L13.7927 30.5994L14.4529 31.2597L15.1132 30.5994L14.4529 29.9391Z" fill="white"/>
<path d="M13.132 31.2597L12.4716 31.9201L13.1319 32.5804L13.7923 31.92L13.132 31.2597Z" fill="white"/>
<defs>
<linearGradient id="paint0_linear_1_16" x1="22" y1="-3.29812e-07" x2="22" y2="45" gradientUnits="userSpaceOnUse">
<stop stop-color="#353535"/>
<stop offset="0.122222" stop-color="#323232"/>
<stop offset="1" stop-color="#1B1B1B"/>
</linearGradient>
</defs>
</svg>
