<svg xmlns="http://www.w3.org/2000/svg" width="60" height="60" viewBox="0 0 60 60">
  <g id="Group_525" data-name="Group 525" transform="translate(-142 -5243)">
    <circle id="Ellipse_14" data-name="Ellipse 14" cx="30" cy="30" r="30" transform="translate(142 5243)" fill="#fff2e8"/>
    <g id="ICON" transform="translate(154.791 5255.935)">
      <path id="Path_9142" data-name="Path 9142" d="M19.961,26.5l-1.369,5.111a.52.52,0,0,0,.843.528l1.941-1.681.841,2.426a.52.52,0,0,0,.991-.024l.871-2.97.86,2.968a.521.521,0,0,0,.992.025l.841-2.426,1.941,1.681a.52.52,0,0,0,.843-.528L28.186,26.5a5.726,5.726,0,1,0-8.225,0Zm.879.742-.8,3,1.24-1.073a.52.52,0,0,1,.833.223L22.667,31l.818-2.792a5.688,5.688,0,0,1-2.646-.971Zm6.468,0a5.688,5.688,0,0,1-2.631.97l.806,2.785.556-1.605a.52.52,0,0,1,.833-.223l1.24,1.073-.8-3ZM3,19.13v7.8A1.562,1.562,0,0,0,4.561,28.5H18.35a.52.52,0,0,0,0-1.041H4.561a.521.521,0,0,1-.52-.52v-7.8A.52.52,0,1,0,3,19.13ZM3,4.561V17.049a.52.52,0,0,0,1.041,0V7.683h15.61a.52.52,0,0,0,0-1.041H4.041V4.561a.521.521,0,0,1,.52-.52h26.8a.521.521,0,0,1,.52.52V6.642H21.732a.52.52,0,0,0,0,1.041H31.878V26.935a.521.521,0,0,1-.52.52h-1.3a.52.52,0,1,0,0,1.041h1.3a1.561,1.561,0,0,0,1.561-1.561V4.561A1.561,1.561,0,0,0,31.358,3H4.561A1.561,1.561,0,0,0,3,4.561ZM24.073,17.829a4.686,4.686,0,1,1-4.686,4.686A4.688,4.688,0,0,1,24.073,17.829Zm-7.545,7.024V23.813a1.561,1.561,0,0,0-1.561-1.561H7.683a1.561,1.561,0,0,0-1.561,1.561v1.041a1.561,1.561,0,0,0,1.561,1.561h7.285A1.561,1.561,0,0,0,16.529,24.854Zm8-6.31a.52.52,0,0,0-.91,0L22.589,20.4l-2.08.407a.521.521,0,0,0-.281.865l1.443,1.552-.255,2.1a.52.52,0,0,0,.736.534l1.922-.893,1.922.893a.52.52,0,0,0,.736-.534l-.255-2.1,1.443-1.552a.521.521,0,0,0-.281-.865l-2.08-.407-1.03-1.852Zm-9.04,5.269v1.041a.521.521,0,0,1-.52.52H7.683a.521.521,0,0,1-.52-.52V23.813a.521.521,0,0,1,.52-.52h7.285A.521.521,0,0,1,15.488,23.813Zm8.585-3.946.693,1.246a.522.522,0,0,0,.355.258l1.4.274-.971,1.044a.522.522,0,0,0-.135.417l.172,1.415-1.292-.6a.52.52,0,0,0-.438,0l-1.292.6.172-1.415a.522.522,0,0,0-.135-.417l-.971-1.044,1.4-.274a.522.522,0,0,0,.355-.258Zm-17.431.824h9.626a.52.52,0,0,0,0-1.041H6.642a.52.52,0,1,0,0,1.041Zm0-2.081H17.569a.52.52,0,0,0,0-1.041H6.642a.52.52,0,1,0,0,1.041Zm0-2.081H18.61a.52.52,0,1,0,0-1.041H6.642a.52.52,0,1,0,0,1.041Zm0-2.081H29.016a.52.52,0,1,0,0-1.041H6.642a.52.52,0,1,0,0,1.041Zm0-2.081H29.016a.52.52,0,1,0,0-1.041H6.642a.52.52,0,0,0,0,1.041Zm4.683-2.081H24.594a.52.52,0,0,0,0-1.041H11.325a.52.52,0,0,0,0,1.041ZM5.6,4.821a.52.52,0,1,1-.52.52A.521.521,0,0,1,5.6,4.821Zm2.081,0a.52.52,0,1,1-.52.52A.521.521,0,0,1,7.683,4.821Zm2.081,0a.52.52,0,1,1-.52.52A.521.521,0,0,1,9.764,4.821Z" fill="#f48120" fill-rule="evenodd"/>
    </g>
  </g>
</svg>
