<svg xmlns="http://www.w3.org/2000/svg" width="60" height="60" viewBox="0 0 60 60">
  <g id="Group_7253" data-name="Group 7253" transform="translate(-267 -1397)">
    <circle id="Ellipse_30" data-name="Ellipse 30" cx="30" cy="30" r="30" transform="translate(267 1397)" fill="#f48120"/>
    <path id="Path_9170" data-name="Path 9170" d="M20.046,2.245a.566.566,0,0,1,.561.55V9.623l5.881-5.881a1.015,1.015,0,0,1,1.428,0l2.029,2.029a.319.319,0,0,1,.043.383A1.921,1.921,0,0,0,29.716,7.4a1.955,1.955,0,0,0,.558,1.14,1.915,1.915,0,0,0,1.14.558,1.971,1.971,0,0,0,1.229-.256.319.319,0,0,1,.4.037l2.029,2.029a1.015,1.015,0,0,1,0,1.428L20.608,26.8v1a.545.545,0,0,1-.544.544H1.56a1.551,1.551,0,0,1-1.1-.458h0A1.561,1.561,0,0,1,0,26.788V1.477a.516.516,0,0,1,.06-.248A1.668,1.668,0,0,1,1.667,0h18.38a.544.544,0,1,1,0,1.088H1.667a.578.578,0,0,0-.409.987.574.574,0,0,0,.409.17Zm.561,8.276V13.7c.078.014.167.035.271.06l.5-.5.461.461-.213.213.55.13.561-.561.463.463-.273.273.7.161L24.8,13.227a.513.513,0,0,1,.7.1h0a.51.51,0,0,1,.1.7L24.425,15.2l.161.694.271-.271.463.463-.558.558.127.55.21-.21.463.463-.5.5,0,.012c.239,1.048.026.72-.769,1.514l-1.151-2.988-1.14,1.14a1.462,1.462,0,0,1-.322,1.431h0l-.486-.475c-.037-.233-.055-.4-.075-.521a.814.814,0,0,1-.207-.144h0a.714.714,0,0,1-.132-.181c-.049-.006-.109-.012-.176-.02v4.9l1.655,1.655,9.4-9.4-7.7-7.7-3.359,3.359Zm0,4.485v1.739a2.777,2.777,0,0,1,.6.072l1.137-1.137-1.742-.674Zm0,8.475v2.438L21.828,24.7l-1.221-1.218ZM32.1,14.427l-7.7-7.7,2.536-2.536a.376.376,0,0,1,.273-.109.4.4,0,0,1,.273.109l1.86,1.86a2.608,2.608,0,0,0-.236,1.428,2.579,2.579,0,0,0,3.676,2.015l1.86,1.86a.376.376,0,0,1,.109.273.4.4,0,0,1-.109.273l-.009-.009L32.1,14.427Zm-17.151.478a.263.263,0,0,1,.049,0,6.163,6.163,0,0,0,.3-.6s0-.006.006-.012a4.951,4.951,0,0,0,.305-1,5.112,5.112,0,0,0,.1-.82H14.094a5.213,5.213,0,0,1-.728,2.424h1.583v.006Zm-.282.515H13.046a10.885,10.885,0,0,1-1.992,2.119c.13-.017.262-.037.389-.063a4.872,4.872,0,0,0,1.008-.314,5.657,5.657,0,0,0,.921-.5,5.16,5.16,0,0,0,.789-.648,5.066,5.066,0,0,0,.515-.6Zm-5,2.116a10.891,10.891,0,0,1-1.992-2.119H6.054a5.316,5.316,0,0,0,1.3,1.244,5.411,5.411,0,0,0,.921.5s.006,0,.012.006a5.15,5.15,0,0,0,1,.308c.127.026.256.046.389.063ZM5.714,14.905H7.349a5.2,5.2,0,0,1-.728-2.424H5.006a5.862,5.862,0,0,0,.1.82,4.872,4.872,0,0,0,.314,1.008,5.742,5.742,0,0,0,.3.6Zm-.708-2.939H6.629a5.626,5.626,0,0,1,.8-2.424H5.711a5.742,5.742,0,0,0-.3.6s0,.006-.006.012a4.951,4.951,0,0,0-.305,1,5.335,5.335,0,0,0-.1.818ZM6.051,9.024H7.766A12.092,12.092,0,0,1,9.7,6.9c-.144.017-.285.037-.423.066a4.872,4.872,0,0,0-1.008.314,5.886,5.886,0,0,0-.921.5,5.16,5.16,0,0,0-.789.648,5.065,5.065,0,0,0-.515.6l0,0ZM11.016,6.9a11.871,11.871,0,0,1,1.937,2.124h1.716a5.316,5.316,0,0,0-1.3-1.244,5.411,5.411,0,0,0-.921-.5s-.006,0-.012-.006a5.15,5.15,0,0,0-1-.308c-.141-.029-.282-.049-.423-.066v0Zm3.99,2.64H13.285a5.638,5.638,0,0,1,.8,2.424h1.624a5.862,5.862,0,0,0-.1-.82,4.872,4.872,0,0,0-.314-1.008,5.2,5.2,0,0,0-.294-.6ZM9.18,6.462a6.106,6.106,0,0,1,2.36,0,5.494,5.494,0,0,1,1.1.34.03.03,0,0,1,.014.006,6.341,6.341,0,0,1,1,.544,5.725,5.725,0,0,1,.866.711,5.4,5.4,0,0,1,.711.866,6.216,6.216,0,0,1,.544,1,5.583,5.583,0,0,1,.345,1.111,6.106,6.106,0,0,1,0,2.36,5.494,5.494,0,0,1-.34,1.1.03.03,0,0,1-.006.014,6.1,6.1,0,0,1-.544,1,5.725,5.725,0,0,1-.711.866,5.4,5.4,0,0,1-.866.711,6.217,6.217,0,0,1-1,.544,5.583,5.583,0,0,1-1.111.345,6.106,6.106,0,0,1-2.36,0,5.493,5.493,0,0,1-1.1-.34.03.03,0,0,1-.014-.006,6.341,6.341,0,0,1-1-.544,5.725,5.725,0,0,1-.866-.711,5.4,5.4,0,0,1-.711-.866,6.216,6.216,0,0,1-.544-1A5.583,5.583,0,0,1,4.6,13.4a6.106,6.106,0,0,1,0-2.36,5.494,5.494,0,0,1,.34-1.1.03.03,0,0,1,.006-.014,6.1,6.1,0,0,1,.544-1A5.557,5.557,0,0,1,6.2,8.063a5.4,5.4,0,0,1,.866-.711,6.217,6.217,0,0,1,1-.544A5.642,5.642,0,0,1,9.18,6.462Zm1.436.771v1.79h1.707a12.353,12.353,0,0,0-1.707-1.79Zm0,2.306v2.424h2.956A5.274,5.274,0,0,0,12.68,9.54Zm0,2.939V14.9h2.153a4.832,4.832,0,0,0,.815-2.424Zm0,2.942v1.811a11.267,11.267,0,0,0,1.793-1.811ZM10.1,17.231V15.421H8.31A10.918,10.918,0,0,0,10.1,17.231Zm0-2.326V12.482H7.136a4.851,4.851,0,0,0,.815,2.424Zm0-2.939V9.543H8.037a5.286,5.286,0,0,0-.892,2.424Zm0-2.942V7.234A12.065,12.065,0,0,0,8.4,9.024ZM6.5,24.646a.544.544,0,0,1,0-1.088h7.585a.544.544,0,0,1,0,1.088ZM4.289,21.8a.544.544,0,1,1,0-1.088H16.3a.544.544,0,1,1,0,1.088ZM19.52,3.333H1.667a1.664,1.664,0,0,1-.579-.1V26.788a.482.482,0,0,0,.138.334h0a.47.47,0,0,0,.334.138H19.52V3.333Z" transform="translate(284 1413.139)" fill="#fff"/>
  </g>
</svg>
