<svg xmlns="http://www.w3.org/2000/svg" width="60" height="60" viewBox="0 0 60 60">
  <g id="Group_7253" data-name="Group 7253" transform="translate(-267 -1397)">
    <circle id="Ellipse_30" data-name="Ellipse 30" cx="30" cy="30" r="30" transform="translate(267 1397)" fill="#f48120"/>
    <path id="Path_9171" data-name="Path 9171" d="M9.593,19.6a.742.742,0,0,1,0-1.461h3.352a.742.742,0,0,1,0,1.461Zm11.471-3.027a6.817,6.817,0,1,1-4.822,2,6.8,6.8,0,0,1,4.822-2Zm-.521,3.63a.61.61,0,1,1,1.22,0v3.177l2.375,1.407a.609.609,0,0,1-.62,1.048l-2.643-1.566a.609.609,0,0,1-.332-.543V20.206Zm4.483-.77a5.6,5.6,0,1,0,1.64,3.961,5.587,5.587,0,0,0-1.64-3.961Zm-14.181,7.6a.73.73,0,1,1,0,1.461H1.7A1.7,1.7,0,0,1,0,26.8V1.7A1.7,1.7,0,0,1,1.7,0H22.579a1.7,1.7,0,0,1,1.7,1.7V13.328a.73.73,0,1,1-1.461,0V1.7a.244.244,0,0,0-.239-.239H1.7a.232.232,0,0,0-.167.071.221.221,0,0,0-.074.167V26.8a.232.232,0,0,0,.071.167.237.237,0,0,0,.167.071ZM4.7,17.825H6.534a.241.241,0,0,1,.241.241V19.9a.241.241,0,0,1-.241.241H4.7a.241.241,0,0,1-.241-.241V18.066a.243.243,0,0,1,.241-.241Zm0-12.541H6.534a.241.241,0,0,1,.241.241V7.357a.241.241,0,0,1-.241.241H4.7a.241.241,0,0,1-.241-.241V5.525A.245.245,0,0,1,4.7,5.284ZM9.593,7.062a.678.678,0,0,1-.612-.73.68.68,0,0,1,.612-.73h8.72a.678.678,0,0,1,.612.73.68.68,0,0,1-.612.73ZM5.452,13.8a.41.41,0,0,1-.543-.061.413.413,0,0,1-.052-.044l-.767-.792a.43.43,0,0,1,.084-.622.5.5,0,0,1,.666-.02l.418.43L6.6,11.614a.43.43,0,0,1,.612.14.5.5,0,0,1-.042.664L5.452,13.8Zm3.738-.612a.742.742,0,0,1,0-1.461h8.72a.742.742,0,0,1,0,1.461Z" transform="translate(283.059 1411.893)" fill="#fff"/>
  </g>
</svg>
