<svg xmlns="http://www.w3.org/2000/svg" width="60" height="60" viewBox="0 0 60 60">
  <g id="Group_7268" data-name="Group 7268" transform="translate(0 -0.091)">
    <circle id="Ellipse_34" data-name="Ellipse 34" cx="30" cy="30" r="30" transform="translate(0 0.091)" fill="#f48120"/>
    <path id="Path_9165" data-name="Path 9165" d="M.876,0H30.429A.877.877,0,0,1,31.3.876V6.91l-.051-.04a5.519,5.519,0,0,0-1.336-.807V2.249a.774.774,0,0,0-.773-.772H2.163a.773.773,0,0,0-.774.772V16.536a.776.776,0,0,0,.774.773H21.757a3.617,3.617,0,0,0,.765,1.29A10.548,10.548,0,0,0,18.9,19.9H.876A.878.878,0,0,1,0,19.021V.876A.877.877,0,0,1,.876,0Zm27.4,25.329H19.325a.264.264,0,0,1-.264-.264.92.92,0,0,1,.029-.223c.424-3.36,2.16-3.418,4.029-3.907a5.828,5.828,0,0,0,2.17-.976,1.112,1.112,0,0,0,.445-1.059,2.439,2.439,0,0,1-.877-1.733H24.8a.726.726,0,0,1-.359-.094,1.035,1.035,0,0,1-.452-.723,3.611,3.611,0,0,1-.015-1.15l.015-.057a.662.662,0,0,1,.331-.431h0c-.063-1.166.135-3.013-1.063-3.376,2.364-2.921,5.09-4.511,7.137-1.912,2.28.119,3.3,3.48,1.881,5.289h-.059a.659.659,0,0,1,.33.431l.016.057a3.613,3.613,0,0,1-.016,1.15,1.031,1.031,0,0,1-.451.723.728.728,0,0,1-.359.094h-.054a2.442,2.442,0,0,1-.877,1.733,1.112,1.112,0,0,0,.445,1.059,5.828,5.828,0,0,0,2.17.976c1.868.488,3.6.547,4.029,3.907a.92.92,0,0,1,.029.223.264.264,0,0,1-.264.264ZM11.681,21.1H17.77a9.01,9.01,0,0,0-1.113,4.25h-7.1A5.552,5.552,0,0,0,11.681,21.1Z" transform="translate(11 17.414)" fill="#fff" fill-rule="evenodd"/>
  </g>
</svg>
