<svg xmlns="http://www.w3.org/2000/svg" width="35" height="35" viewBox="0 0 35 35">
  <g id="headphone-svgrepo-com_1_" data-name="headphone-svgrepo-com (1)" transform="translate(-1.998 -2.05)">
    <path id="Path_7266" data-name="Path 7266" d="M3.314,33.75A1.386,1.386,0,0,1,2,32.318V21.433A19.954,19.954,0,0,1,6.971,7.7,16.607,16.607,0,0,1,19.412,2.05C29.106,2.05,37,10.663,37,21.242V32.127a1.317,1.317,0,1,1-2.625,0V21.242c0-8.994-6.7-16.327-14.961-16.327A14.075,14.075,0,0,0,8.843,9.708,16.939,16.939,0,0,0,4.626,21.395V32.3A1.38,1.38,0,0,1,3.314,33.75Z" transform="translate(0 0)" fill="#292d32"/>
    <path id="Path_7268" data-name="Path 7268" d="M21.315,12.45h-.233a6.842,6.842,0,0,0-6.832,6.832v3.371a6.842,6.842,0,0,0,6.832,6.832h.233a6.842,6.842,0,0,0,6.832-6.832V19.282A6.842,6.842,0,0,0,21.315,12.45Z" transform="translate(8.85 7.564)" fill="#292d32"/>
    <path id="Path_7269" data-name="Path 7269" d="M21.315,12.45h-.233a6.842,6.842,0,0,0-6.832,6.832v3.371a6.842,6.842,0,0,0,6.832,6.832h.233a6.842,6.842,0,0,0,6.832-6.832V19.282A6.842,6.842,0,0,0,21.315,12.45Z" transform="translate(-12.252 7.564)" fill="#292d32"/>
  </g>
</svg>
