<?xml version="1.0" encoding="UTF-8"?><svg id="Layer_1" xmlns="http://www.w3.org/2000/svg" xmlns:xlink="http://www.w3.org/1999/xlink" viewBox="0 0 60 60"><defs><style>.cls-1{fill:url(#linear-gradient);}.cls-1,.cls-2{stroke-width:0px;}.cls-2{fill:#fff;}</style><linearGradient id="linear-gradient" x1="60" y1="30" x2="0" y2="30" gradientUnits="userSpaceOnUse"><stop offset="0" stop-color="#3b3b3b"/><stop offset="1" stop-color="#191919"/></linearGradient></defs><circle class="cls-1" cx="30" cy="30" r="30"/><path class="cls-2" d="M46.75,47.93H13.25c-1.86,0-3.37-1.51-3.37-3.37h0v-27.5c0-1.86,1.51-3.37,3.37-3.37h33.49c1.86,0,3.37,1.51,3.37,3.37v27.5c0,1.86-1.51,3.37-3.37,3.37ZM13.25,15.08c-1.1,0-1.99.89-1.99,1.99h0v27.5c0,1.1.89,1.99,1.99,1.99h33.49c1.1,0,1.99-.89,1.99-1.99v-27.5c0-1.1-.89-1.99-1.99-1.99H13.25Z"/><path class="cls-2" d="M46.29,23.69h-15.96c-.16,0-.32-.06-.44-.16l-2.94-2.44H10.58c-.38,0-.69-.31-.69-.69s.31-.69.69-.69h16.62c.16,0,.32.06.44.16l2.94,2.44h15.46l2.94-2.44c.3-.24.73-.2.97.1.24.29.2.72-.09.96l-3.13,2.6c-.12.1-.28.16-.44.16Z"/><path class="cls-2" d="M17.01,18.21h-2.11c-.38,0-.69-.31-.69-.69s.31-.69.69-.69h2.11c.38,0,.69.31.69.69s-.31.69-.69.69Z"/><path class="cls-2" d="M22.11,18.21h-2.11c-.38,0-.69-.31-.69-.69s.31-.69.69-.69h2.11c.38,0,.69.31.69.69s-.31.69-.69.69Z"/><path class="cls-2" d="M27.2,18.21h-2.11c-.38,0-.69-.31-.69-.69s.31-.69.69-.69h2.11c.38,0,.69.31.69.69s-.31.69-.69.69Z"/><path class="cls-2" d="M44.5,20.77h-12.06c-.38,0-.69-.31-.69-.69s.31-.69.69-.69h12.06c.38,0,.69.31.69.69s-.31.69-.69.69Z"/><path class="cls-2" d="M44.5,18h-12.06c-.38,0-.69-.31-.69-.69s.31-.69.69-.69h12.06c.38,0,.69.31.69.69s-.31.69-.69.69Z"/><path class="cls-2" d="M24.9,26.89h-11.1c-.38,0-.69-.31-.69-.69s.31-.69.69-.69h11.1c.38,0,.69.31.69.69s-.31.69-.69.69Z"/><path class="cls-2" d="M24.9,24.13h-11.1c-.38,0-.69-.31-.69-.69s.31-.69.69-.69h11.1c.38,0,.69.31.69.69s-.31.69-.69.69Z"/><path class="cls-2" d="M38.41,43.97c-4.89,0-8.85-3.96-8.85-8.85,0-4.89,3.96-8.85,8.85-8.85,4.89,0,8.85,3.96,8.85,8.85h0c0,4.88-3.96,8.84-8.85,8.85ZM38.41,27.65c-4.12,0-7.47,3.34-7.47,7.46,0,4.12,3.34,7.47,7.46,7.47,4.12,0,7.47-3.34,7.47-7.46h0c0-4.12-3.34-7.46-7.46-7.46h0Z"/><path class="cls-2" d="M38.41,39.37c-2.35,0-4.25-1.9-4.25-4.25s1.9-4.25,4.25-4.25c2.35,0,4.25,1.9,4.25,4.25h0c0,2.35-1.9,4.25-4.25,4.25ZM38.41,32.25c-1.58,0-2.87,1.28-2.87,2.87s1.28,2.87,2.87,2.87,2.87-1.28,2.87-2.87h0c0-1.58-1.28-2.87-2.87-2.87Z"/><path class="cls-2" d="M38.4,32.25c-.38,0-.69-.31-.69-.69,0-.12.03-.24.09-.34l1.1-1.96-1.1-1.96c-.19-.33-.07-.76.27-.94s.76-.07.94.27l1.29,2.3c.12.21.12.47,0,.68l-1.29,2.3c-.12.22-.36.35-.61.35Z"/><path class="cls-2" d="M44.4,35.54c-.06,0-.12,0-.17-.02l-2.55-.65c-.37-.1-.59-.47-.5-.84s.47-.59.84-.5l2.18.56,1.61-1.57c.27-.27.71-.26.98.01s.26.71-.01.98h0l-1.89,1.84c-.13.13-.31.19-.49.19Z"/><path class="cls-2" d="M42.48,42.87c-.12,0-.25-.03-.35-.1l-2.27-1.34c-.21-.12-.33-.34-.34-.59l-.03-2.64c0-.38.3-.69.68-.7s.69.3.7.68h0l.03,2.25,1.93,1.15c.33.19.44.62.24.95-.12.21-.35.34-.6.34h0Z"/><path class="cls-2" d="M32.64,41.58c-.06,0-.13,0-.19-.03-.37-.1-.58-.48-.48-.85l.71-2.54c.07-.23.25-.41.48-.48l2.54-.71c.37-.11.75.1.86.46.11.37-.1.75-.46.86,0,0-.02,0-.03,0l-2.16.61-.61,2.16c-.08.3-.36.5-.66.5Z"/><path class="cls-2" d="M35.32,34.03c-.24,0-.47-.13-.59-.34l-1.15-1.93-2.25-.03c-.38,0-.69-.32-.68-.7s.32-.69.7-.68l2.64.03c.24,0,.46.13.59.34l1.35,2.27c.19.33.09.75-.24.95-.11.06-.23.1-.35.1h0Z"/><path class="cls-2" d="M15.83,43.97c-1.69,0-3.07-1.32-3.07-2.95s1.38-2.95,3.07-2.95c.66,0,1.3.21,1.83.59.31.22.38.65.16.96-.22.31-.65.38-.96.16-.3-.21-.66-.33-1.03-.33-.93,0-1.68.71-1.68,1.57s.76,1.57,1.68,1.57c.37,0,.73-.11,1.03-.33.31-.22.74-.15.96.16.22.31.15.74-.16.96-.54.38-1.18.58-1.83.58Z"/><path class="cls-2" d="M28.5,43.97c-.38,0-.69-.31-.69-.69v-1.1l-.58,1.36c-.15.35-.55.52-.9.37-.17-.07-.3-.2-.37-.37l-.57-1.36v1.1c0,.38-.31.69-.69.69s-.69-.31-.69-.69v-4.52c0-.38.31-.69.69-.69.28,0,.53.17.64.42l1.26,3.01,1.26-3.01c.15-.35.55-.52.9-.37.26.11.42.36.42.64v4.52c0,.38-.31.69-.69.69Z"/><path class="cls-2" d="M20.99,41.71h-1.43c-.38,0-.69-.31-.69-.69v-2.26c0-.38.31-.69.69-.69h1.44c1.39,0,2.11.92,2.11,1.82s-.73,1.82-2.11,1.82ZM20.25,40.32h.74c.51,0,.73-.22.73-.44s-.23-.44-.73-.44h-.74v.88Z"/><path class="cls-2" d="M19.56,43.97c-.38,0-.69-.31-.69-.69v-2.26c0-.38.31-.69.69-.69s.69.31.69.69v2.26c0,.38-.31.69-.69.69Z"/><path class="cls-2" d="M22.41,43.97c-.24,0-.46-.12-.59-.32l-1.42-2.26c-.21-.32-.12-.75.2-.96s.75-.12.96.2c0,0,0,.01.01.02l1.42,2.26c.2.32.11.75-.22.95-.11.07-.24.11-.37.11Z"/><path class="cls-2" d="M26.7,30.4h-12.9c-.38,0-.69-.31-.69-.69s.31-.69.69-.69h12.9c.38,0,.69.31.69.69s-.31.69-.69.69Z"/><path class="cls-2" d="M26.7,33.21h-12.9c-.38,0-.69-.31-.69-.69s.31-.69.69-.69h12.9c.38,0,.69.31.69.69s-.31.69-.69.69Z"/><path class="cls-2" d="M26.7,36.03h-12.9c-.38,0-.69-.31-.69-.69s.31-.69.69-.69h12.9c.38,0,.69.31.69.69s-.31.69-.69.69Z"/></svg>