<svg xmlns="http://www.w3.org/2000/svg" width="35" height="35" viewBox="0 0 35 35">
  <path id="code-circle-svgrepo-com" d="M37,19.5A17.5,17.5,0,1,1,19.5,2,17.5,17.5,0,0,1,37,19.5ZM22.1,9.78a1.312,1.312,0,0,1,.928,1.607L18.5,28.291a1.312,1.312,0,1,1-2.536-.679l4.529-16.9A1.313,1.313,0,0,1,22.1,9.78ZM24.7,13.322a1.312,1.312,0,0,1,1.856,0l.365.365a32.062,32.062,0,0,1,2.676,2.874,4.767,4.767,0,0,1,1.144,2.94,4.767,4.767,0,0,1-1.144,2.94,32.069,32.069,0,0,1-2.676,2.874l-.365.365A1.312,1.312,0,0,1,24.7,23.822l.3-.3a31.027,31.027,0,0,0,2.51-2.674,2.213,2.213,0,0,0,.606-1.347,2.213,2.213,0,0,0-.606-1.347A31.025,31.025,0,0,0,25,15.478l-.3-.3A1.312,1.312,0,0,1,24.7,13.322Zm-12.25,0A1.312,1.312,0,1,1,14.3,15.178l-.3.3a31.047,31.047,0,0,0-2.51,2.674,2.212,2.212,0,0,0-.606,1.347,2.212,2.212,0,0,0,.606,1.347A31.049,31.049,0,0,0,14,23.522l.3.3a1.312,1.312,0,1,1-1.856,1.856l-.365-.365A32.069,32.069,0,0,1,9.407,22.44,4.768,4.768,0,0,1,8.263,19.5a4.768,4.768,0,0,1,1.144-2.94,32.065,32.065,0,0,1,2.676-2.874Z" transform="translate(-2 -2)" fill-rule="evenodd"/>
</svg>
