<svg width="45" height="45" viewBox="0 0 45 45" fill="none" xmlns="http://www.w3.org/2000/svg">
<g clip-path="url(#clip0_1_2)">
<path d="M45 22.5C45 10.0736 34.9264 0 22.5 0C10.0736 0 0 10.0736 0 22.5C0 34.9264 10.0736 45 22.5 45C34.9264 45 45 34.9264 45 22.5Z" fill="url(#paint0_linear_1_2)"/>
<path fill-rule="evenodd" clip-rule="evenodd" d="M34.1749 34.3339H10.4C9.43944 34.3339 8.67096 33.5654 8.67096 32.6209V13.7131C8.67096 12.7685 9.43944 12 10.4 12H34.1749C35.1195 12 35.8879 12.7685 35.8879 13.7131V32.6209C35.8879 33.5654 35.1195 34.3339 34.1749 34.3339ZM10.4 12.8165C9.90373 12.8165 9.50348 13.2168 9.50348 13.7131V32.6209C9.50348 33.1012 9.90373 33.5014 10.4 33.5014H34.1749C34.6712 33.5014 35.0714 33.1012 35.0714 32.6209V13.7131C35.0714 13.2168 34.6712 12.8165 34.1749 12.8165H10.4Z" fill="white"/>
<path fill-rule="evenodd" clip-rule="evenodd" d="M35.5837 16.755H9.18329C8.95915 16.755 8.76703 16.5628 8.76703 16.3387C8.76703 16.1146 8.95915 15.9224 9.18329 15.9224H35.5837C35.8079 15.9224 36 16.1146 36 16.3387C36 16.5628 35.8079 16.755 35.5837 16.755Z" fill="white"/>
<path fill-rule="evenodd" clip-rule="evenodd" d="M16.3558 14.8338H11.1365C10.9124 14.8338 10.7202 14.6416 10.7202 14.4175C10.7202 14.1774 10.9124 14.0012 11.1365 14.0012H16.3558C16.5799 14.0012 16.772 14.1774 16.772 14.4175C16.772 14.6416 16.5799 14.8338 16.3558 14.8338Z" fill="white"/>
<path fill-rule="evenodd" clip-rule="evenodd" d="M20.8546 14.7537H18.6932C18.4691 14.7537 18.293 14.5616 18.293 14.3375C18.293 14.1133 18.4691 13.9212 18.6932 13.9212H20.8546C21.0947 13.9212 21.2709 14.1133 21.2709 14.3375C21.2709 14.5616 21.0947 14.7537 20.8546 14.7537Z" fill="white"/>
<path fill-rule="evenodd" clip-rule="evenodd" d="M33.3904 20.6294H27.0344C26.8103 20.6294 26.6342 20.4533 26.6342 20.2291C26.6342 19.989 26.8103 19.8129 27.0344 19.8129H33.3904C33.6305 19.8129 33.8067 19.989 33.8067 20.2291C33.8067 20.4533 33.6305 20.6294 33.3904 20.6294Z" fill="white"/>
<path fill-rule="evenodd" clip-rule="evenodd" d="M33.3904 23.4311H27.0344C26.8103 23.4311 26.6342 23.239 26.6342 23.0149C26.6342 22.7907 26.8103 22.5986 27.0344 22.5986H33.3904C33.6305 22.5986 33.8067 22.7907 33.8067 23.0149C33.8067 23.239 33.6305 23.4311 33.3904 23.4311Z" fill="white"/>
<path fill-rule="evenodd" clip-rule="evenodd" d="M33.3904 26.2169H27.0344C26.8103 26.2169 26.6342 26.0408 26.6342 25.8166C26.6342 25.5765 26.8103 25.4004 27.0344 25.4004H33.3904C33.6305 25.4004 33.8067 25.5765 33.8067 25.8166C33.8067 26.0408 33.6305 26.2169 33.3904 26.2169Z" fill="white"/>
<path fill-rule="evenodd" clip-rule="evenodd" d="M33.3904 29.0186H27.0344C26.8103 29.0186 26.6342 28.8265 26.6342 28.6024C26.6342 28.3782 26.8103 28.1861 27.0344 28.1861H33.3904C33.6305 28.1861 33.8067 28.3782 33.8067 28.6024C33.8067 28.8265 33.6305 29.0186 33.3904 29.0186Z" fill="white"/>
<path fill-rule="evenodd" clip-rule="evenodd" d="M13.1698 26.7452C12.5614 26.7452 11.985 26.5211 11.5368 26.1048C10.5601 25.1922 10.4961 23.6553 11.3927 22.6626C11.8249 22.1984 12.4333 21.9102 13.0737 21.8942C13.7141 21.8621 14.3225 22.0863 14.8028 22.5346C14.9629 22.6947 14.9789 22.9508 14.8188 23.1269C14.6587 23.287 14.4025 23.303 14.2424 23.1429C13.9222 22.8548 13.522 22.6947 13.1057 22.7107C12.6895 22.7267 12.2892 22.9188 12.001 23.223C11.4087 23.8794 11.4567 24.904 12.0971 25.4964C12.4013 25.7846 12.8015 25.9447 13.2338 25.9287C13.6501 25.9127 14.0343 25.7206 14.3225 25.4164C14.4826 25.2403 14.7387 25.2242 14.9149 25.3843C15.075 25.5444 15.091 25.8006 14.9309 25.9607C14.4986 26.441 13.9062 26.7292 13.2658 26.7452C13.2338 26.7452 13.2018 26.7452 13.1698 26.7452Z" fill="white"/>
<path fill-rule="evenodd" clip-rule="evenodd" d="M15.7954 26.7452C15.5553 26.7452 15.3792 26.5691 15.3792 26.3449V22.3264C15.3792 22.0863 15.5553 21.9102 15.7954 21.9102H17.7166C18.4531 21.9102 19.0454 22.5506 19.0454 23.3511C19.0454 23.9114 18.7573 24.3917 18.309 24.6319L19.0935 26.1528C19.2055 26.3449 19.1255 26.6011 18.9174 26.6972C18.7252 26.8092 18.4691 26.7292 18.373 26.5211L17.4604 24.792H16.2117V26.3449C16.2117 26.5691 16.0195 26.7452 15.7954 26.7452ZM16.2117 23.9595H17.7006C17.7006 23.9595 17.7166 23.9595 17.7326 23.9595C17.9888 23.9595 18.2289 23.6713 18.2289 23.3511C18.2289 23.0149 17.9888 22.7427 17.7166 22.7427H16.2117V23.9595Z" fill="white"/>
<path fill-rule="evenodd" clip-rule="evenodd" d="M20.2302 26.7612C20.006 26.7612 19.8139 26.5851 19.8139 26.361L19.7339 22.3745C19.7179 22.1823 19.8459 22.0062 20.0381 21.9582C20.2142 21.9102 20.4063 21.9902 20.5023 22.1503L21.7671 24.3757L22.9198 22.1023C22.9999 21.9422 23.192 21.8461 23.3841 21.8942C23.5602 21.9262 23.7043 22.0863 23.7043 22.2784L23.7844 26.2809C23.8004 26.505 23.6083 26.6972 23.3841 26.6972C23.144 26.6972 22.9679 26.5211 22.9679 26.2969L22.9038 23.9434L22.1514 25.4484C22.1354 25.4804 22.1033 25.5124 22.0713 25.5444C22.0393 25.5765 22.0073 25.6085 21.9592 25.6405C21.8952 25.6565 21.8472 25.6725 21.7831 25.6725C21.7351 25.6725 21.6711 25.6565 21.623 25.6405C21.575 25.6245 21.527 25.5925 21.495 25.5605C21.4629 25.5284 21.4309 25.4964 21.4149 25.4644L20.5984 23.9915L20.6464 26.3449C20.6464 26.5691 20.4703 26.7612 20.2462 26.7612C20.2302 26.7612 20.2302 26.7612 20.2302 26.7612Z" fill="white"/>
<path fill-rule="evenodd" clip-rule="evenodd" d="M23.6403 29.7871H16.0676C15.8434 29.7871 15.6513 29.611 15.6513 29.3708C15.6513 29.1467 15.8434 28.9546 16.0676 28.9546H23.6403C23.8644 28.9546 24.0565 29.1467 24.0565 29.3708C24.0565 29.611 23.8644 29.7871 23.6403 29.7871Z" fill="white"/>
<path fill-rule="evenodd" clip-rule="evenodd" d="M14.2425 29.7871H12.0331C11.7929 29.7871 11.6168 29.611 11.6168 29.3708C11.6168 29.1467 11.7929 28.9546 12.0331 28.9546H14.2425C14.4666 28.9546 14.6587 29.1467 14.6587 29.3708C14.6587 29.611 14.4666 29.7871 14.2425 29.7871Z" fill="white"/>
<path fill-rule="evenodd" clip-rule="evenodd" d="M23.6403 32.1245H16.0676C15.8434 32.1245 15.6513 31.9324 15.6513 31.7083C15.6513 31.4681 15.8434 31.292 16.0676 31.292H23.6403C23.8644 31.292 24.0565 31.4681 24.0565 31.7083C24.0565 31.9324 23.8644 32.1245 23.6403 32.1245Z" fill="white"/>
<path fill-rule="evenodd" clip-rule="evenodd" d="M14.2425 32.1245H12.0331C11.7929 32.1245 11.6168 31.9324 11.6168 31.7083C11.6168 31.4681 11.7929 31.292 12.0331 31.292H14.2425C14.4666 31.292 14.6587 31.4681 14.6587 31.7083C14.6587 31.9324 14.4666 32.1245 14.2425 32.1245Z" fill="white"/>
<path fill-rule="evenodd" clip-rule="evenodd" d="M23.6403 18.9804H16.0676C15.8434 18.9804 15.6513 18.7882 15.6513 18.5641C15.6513 18.3239 15.8434 18.1478 16.0676 18.1478H23.6403C23.8644 18.1478 24.0565 18.3239 24.0565 18.5641C24.0565 18.7882 23.8644 18.9804 23.6403 18.9804Z" fill="white"/>
<path fill-rule="evenodd" clip-rule="evenodd" d="M14.2425 18.9804H12.0331C11.7929 18.9804 11.6168 18.7882 11.6168 18.5641C11.6168 18.3239 11.7929 18.1478 12.0331 18.1478H14.2425C14.4666 18.1478 14.6587 18.3239 14.6587 18.5641C14.6587 18.7882 14.4666 18.9804 14.2425 18.9804Z" fill="white"/>
</g>
<defs>
<linearGradient id="paint0_linear_1_2" x1="22" y1="-3.29812e-07" x2="22" y2="45" gradientUnits="userSpaceOnUse">
<stop stop-color="#353535"/>
<stop offset="0.122222" stop-color="#323232"/>
<stop offset="1" stop-color="#1B1B1B"/>
</linearGradient>
<clipPath id="clip0_1_2">
<rect width="45" height="45" fill="white"/>
</clipPath>
</defs>
</svg>
