<svg width="64" height="64" viewBox="0 0 64 64" fill="none" xmlns="http://www.w3.org/2000/svg">
<path d="M32 64C49.6731 64 64 49.6731 64 32C64 14.3269 49.6731 0 32 0C14.3269 0 0 14.3269 0 32C0 49.6731 14.3269 64 32 64Z" fill="#F48120"/>
<g clip-path="url(#clip0_3_196)">
<path fill-rule="evenodd" clip-rule="evenodd" d="M53.9909 49.6989H10.9302C8.77865 49.6989 7 47.8414 7 45.5607V42.0894C7 41.6735 7.32991 41.3436 7.74589 41.3436H26.4433C26.8521 41.3436 27.182 41.6735 27.182 42.0894V43.4163C27.182 43.7462 27.433 44.033 27.7199 44.033H37.316C37.61 44.033 37.8539 43.7462 37.8539 43.4163V42.0894C37.8539 41.6735 38.191 41.3436 38.5998 41.3436H57.2541C57.6701 41.3436 58 41.6735 58 42.0894V45.5607C57.9211 47.8414 56.1425 49.6989 53.9909 49.6989ZM8.49177 42.8353V45.5607C8.49177 47.0525 9.60343 48.2502 10.9733 48.2502H53.9909C55.3535 48.2502 56.4724 47.0525 56.4724 45.5607V42.8353H39.2668V43.4521C39.2668 44.614 38.3918 45.5248 37.2801 45.5248H27.684C26.6082 45.5248 25.6974 44.614 25.6974 43.4521V42.8353H8.49177Z" fill="white"/>
<path fill-rule="evenodd" clip-rule="evenodd" d="M51.8823 42.8353C51.4663 42.8353 51.1364 42.5054 51.1364 42.0894V19.1319C51.1364 18.386 50.4694 17.7262 49.7307 17.7262H15.1904C14.4445 17.7262 13.7847 18.386 13.7847 19.1319V42.1325C13.7847 42.5413 13.4548 42.8784 13.0388 42.8784C12.6228 42.8784 12.2929 42.5413 12.2929 42.1325V19.1319C12.2929 17.6043 13.5767 16.2775 15.1474 16.2775H49.7307C51.2583 16.2775 52.5851 17.5613 52.5851 19.1319V42.1325C52.621 42.5054 52.2911 42.8353 51.8823 42.8353Z" fill="white"/>
<path fill-rule="evenodd" clip-rule="evenodd" d="M54.8586 42.8353C54.4427 42.8353 54.1128 42.5054 54.1128 42.0894V19.1319C54.1128 16.7365 52.1692 14.7498 49.7307 14.7498H15.1904C12.7878 14.7498 10.8083 16.6934 10.8083 19.1319V42.1325C10.8083 42.5413 10.4712 42.8784 10.0624 42.8784C9.64644 42.8784 9.31653 42.5413 9.31653 42.1325V19.1319C9.31653 15.9045 11.92 13.3011 15.1474 13.3011H49.7307C52.9509 13.3011 55.5615 15.9045 55.5615 19.1319V42.1325C55.6045 42.5054 55.2674 42.8353 54.8586 42.8353Z" fill="white"/>
<path fill-rule="evenodd" clip-rule="evenodd" d="M38.5209 42.8353H26.4432C26.0273 42.8353 25.6974 42.5054 25.6974 42.0894C25.6974 41.6735 26.0273 41.3436 26.4432 41.3436H38.5209C38.9297 41.3436 39.2668 41.6735 39.2668 42.0894C39.2668 42.5054 38.9297 42.8353 38.5209 42.8353Z" fill="white"/>
<path fill-rule="evenodd" clip-rule="evenodd" d="M21.9751 35.3908C20.8133 35.3908 19.7805 35.1398 18.9987 34.6019C18.2098 34.064 17.6289 33.3181 17.2201 32.4073C16.8041 31.5036 16.6392 30.5067 16.6392 29.4739C16.6392 28.3551 16.883 27.3223 17.299 26.4545C17.758 25.5437 18.4178 24.8408 19.2856 24.389C20.1104 23.93 21.0212 23.722 22.0182 23.722C23.1728 23.722 24.1626 24.016 24.9515 24.5898C25.7404 25.2138 26.3142 26.0385 26.6082 27.1143C26.7301 27.4873 26.4791 27.9033 26.1134 28.0252C25.7404 28.1471 25.3244 27.9033 25.2025 27.5303C24.9945 26.7844 24.5785 26.1676 24.0407 25.7517C23.5028 25.3357 22.8429 25.1707 21.9751 25.1707C21.2292 25.1707 20.5694 25.3357 19.9454 25.6656C19.3287 26.0027 18.8696 26.4545 18.5397 27.1143C18.2098 27.7813 18.0018 28.5631 18.0018 29.4739C18.0018 30.2987 18.1668 31.0876 18.4967 31.8335C18.7908 32.4933 19.1996 33.0312 19.7375 33.4042C20.2754 33.7341 21.0212 33.9421 21.9321 33.9421C22.7999 33.9421 23.5028 33.691 24.0837 33.2392C24.6646 32.7802 25.0734 32.1204 25.3244 31.1665C25.4464 30.8007 25.8193 30.5497 26.2353 30.6716C26.6082 30.8007 26.8521 31.1665 26.7301 31.5825C26.4002 32.8232 25.8193 33.7341 24.9945 34.3939C24.1626 35.0609 23.1298 35.3908 21.9751 35.3908Z" fill="white"/>
<path fill-rule="evenodd" clip-rule="evenodd" d="M47.6221 35.2258C47.2062 35.2258 46.8762 34.8888 46.8762 34.48V27.9821L44.4306 33.4472C44.3087 33.691 44.0648 33.856 43.7708 33.856C43.4839 33.856 43.2329 33.691 43.111 33.4472L40.4215 27.8172V34.48C40.4215 34.8888 40.0915 35.2258 39.6756 35.2258C39.2668 35.2258 38.9297 34.8888 38.9297 34.48V24.6328C38.9297 24.3029 39.1807 24.016 39.5106 23.93C39.8405 23.8511 40.1704 24.016 40.3354 24.3459L43.7277 31.4606L46.9121 24.3459C47.0412 24.016 47.4141 23.8511 47.7441 23.93C48.074 24.016 48.325 24.3029 48.325 24.6328V34.48C48.3609 34.8888 48.0309 35.2258 47.6221 35.2258Z" fill="white"/>
<path fill-rule="evenodd" clip-rule="evenodd" d="M29.4985 35.2258C29.0897 35.2258 28.7598 34.8888 28.7598 34.48V30.0907C28.7598 29.6819 29.0897 29.352 29.4985 29.352C29.9145 29.352 30.2444 29.6819 30.2444 30.0907V34.48C30.2014 34.8888 29.9145 35.2258 29.4985 35.2258Z" fill="white"/>
<path fill-rule="evenodd" clip-rule="evenodd" d="M36.8642 35.2258C36.6132 35.2258 36.4123 35.0967 36.2402 34.8888L34.5046 32.2064C34.2177 31.7474 33.9308 31.3745 33.5579 31.0446C33.4288 30.9227 33.1419 30.7577 32.9339 30.6286C32.647 30.4636 32.5179 30.1768 32.561 29.8469C32.604 29.5528 32.855 29.309 33.1849 29.2659C33.9667 29.187 34.5046 28.936 34.8345 28.5631C35.2074 28.1901 35.3365 27.7742 35.3365 27.2793C35.3365 26.8705 35.2074 26.4975 34.9995 26.1676C34.7986 25.8305 34.5907 25.6297 34.2966 25.5437H34.2607C34.0528 25.4648 33.5579 25.3357 32.5179 25.3357H29.4627C29.0467 25.3357 28.7168 25.0058 28.7168 24.5898C28.7168 24.181 29.0467 23.8511 29.4627 23.8511H32.5179C33.4718 23.8511 34.2177 23.973 34.7556 24.138C35.3724 24.3459 35.8744 24.7547 36.2402 25.3787C36.5773 25.9596 36.7781 26.5764 36.7781 27.2434C36.7781 28.1112 36.4912 28.8499 35.9103 29.4739C35.6665 29.7608 35.2935 30.0118 34.9206 30.2198C35.2505 30.5497 35.5374 30.9227 35.7884 31.3315L37.524 33.9851C37.732 34.315 37.6531 34.7668 37.316 34.9748C37.1511 35.1828 37.0291 35.2258 36.8642 35.2258Z" fill="white"/>
<path fill-rule="evenodd" clip-rule="evenodd" d="M29.4985 30.8366C29.0897 30.8366 28.7598 30.5067 28.7598 30.0907V24.6328C28.7598 24.224 29.0897 23.8869 29.4985 23.8869C29.9145 23.8869 30.2444 24.224 30.2444 24.6328V30.0907C30.2014 30.5067 29.9145 30.8366 29.4985 30.8366Z" fill="white"/>
<path fill-rule="evenodd" clip-rule="evenodd" d="M33.3069 30.7147H29.4985C29.0897 30.7147 28.7598 30.3848 28.7598 29.9688C28.7598 29.5528 29.0897 29.2229 29.4985 29.2229H33.3069C33.7228 29.2229 34.0528 29.5528 34.0528 29.9688C34.0528 30.3848 33.7228 30.7147 33.3069 30.7147Z" fill="white"/>
</g>
<defs>
<clipPath id="clip0_3_196">
<rect width="51" height="51" fill="white" transform="translate(7 6)"/>
</clipPath>
</defs>
</svg>
