<svg xmlns="http://www.w3.org/2000/svg" width="60" height="60" viewBox="0 0 60 60">
  <g id="Group_125" data-name="Group 125" transform="translate(-1010 -385)">
    <circle id="Ellipse_14" data-name="Ellipse 14" cx="30" cy="30" r="30" transform="translate(1010 385)" fill="#fff2e8"/>
    <g id="currency-bitcoin-svgrepo-com" transform="translate(1019.5 394.5)">
      <g id="Group_124" data-name="Group 124" transform="translate(15.039 11.538)">
        <g id="Group_123" data-name="Group 123" transform="translate(1.892 1.892)">
          <path id="Path_9363" data-name="Path 9363" d="M25.516,22.773a3.785,3.785,0,1,1,0,7.57H19.272V15.2h6.245a3.785,3.785,0,0,1,0,7.57Z" transform="translate(-19.272 -15.203)" fill="none" stroke="#f48120" stroke-linecap="round" stroke-linejoin="round" stroke-width="1"/>
          <line id="Line_1" data-name="Line 1" x1="6.245" transform="translate(0 7.57)" fill="none" stroke="#f48120" stroke-linecap="round" stroke-linejoin="round" stroke-width="1"/>
        </g>
        <line id="Line_2" data-name="Line 2" x1="1.892" transform="translate(0 17.031)" fill="none" stroke="#f48120" stroke-linecap="round" stroke-linejoin="round" stroke-width="1"/>
        <line id="Line_3" data-name="Line 3" x1="1.892" transform="translate(0 1.892)" fill="none" stroke="#f48120" stroke-linecap="round" stroke-linejoin="round" stroke-width="1"/>
        <line id="Line_4" data-name="Line 4" y1="1.892" transform="translate(3.785 17.031)" fill="none" stroke="#f48120" stroke-linecap="round" stroke-linejoin="round" stroke-width="1"/>
        <line id="Line_5" data-name="Line 5" y1="1.892" transform="translate(7.57 17.031)" fill="none" stroke="#f48120" stroke-linecap="round" stroke-linejoin="round" stroke-width="1"/>
        <line id="Line_6" data-name="Line 6" y1="1.892" transform="translate(3.785)" fill="none" stroke="#f48120" stroke-linecap="round" stroke-linejoin="round" stroke-width="1"/>
        <line id="Line_7" data-name="Line 7" y1="1.892" transform="translate(7.57)" fill="none" stroke="#f48120" stroke-linecap="round" stroke-linejoin="round" stroke-width="1"/>
      </g>
      <circle id="c" cx="18.5" cy="18.5" r="18.5" transform="translate(2.5 2.5)" fill="none" stroke="#f48120" stroke-linecap="round" stroke-linejoin="round" stroke-width="1"/>
    </g>
  </g>
</svg>
