<svg id="energy-trading" xmlns="http://www.w3.org/2000/svg" width="60" height="60" viewBox="0 0 60 60">
  <circle id="Ellipse_153" data-name="Ellipse 153" cx="30" cy="30" r="30" fill="#f48120"/>
  <g id="Page-1" transform="translate(-31.532 -73.978)">
    <path id="coin-svgrepo-com" d="M42,14.75c0,5.385-8.73,9.75-19.5,9.75M42,14.75C42,9.365,33.27,5,22.5,5S3,9.365,3,14.75m39,0V26.667c0,4.786-8.73,8.667-19.5,8.667m0-10.833C11.73,24.5,3,20.135,3,14.75M22.5,24.5V35.333M3,14.75V26.667c0,4.786,8.73,8.667,19.5,8.667M11.667,33.874V22.858M33.333,33.874V22.858M31.167,14.75c0,1.795-3.88,3.25-8.667,3.25s-8.667-1.455-8.667-3.25,3.88-3.25,8.667-3.25S31.167,12.955,31.167,14.75Z" transform="translate(39.032 83.811)" fill="none" stroke="#fff" stroke-linecap="round" stroke-linejoin="round" stroke-width="2"/>
  </g>
</svg>
