<svg width="55" height="55" viewBox="0 0 55 55" fill="none" xmlns="http://www.w3.org/2000/svg">
<circle cx="27.5" cy="27.5" r="27.5" fill="#F4F4F4"/>
<path d="M45.9007 29.0195C45.9007 29.0195 45.8821 28.9822 45.8759 28.9636C45.851 28.914 45.82 28.8705 45.789 28.8333C45.7766 28.8209 45.7641 28.8022 45.7517 28.7898C45.7021 28.7402 45.64 28.6967 45.5779 28.6719L37.2669 25.1091V14.3402C37.2669 14.2657 37.2483 14.1912 37.2234 14.1229C37.2172 14.1043 37.2048 14.0857 37.1986 14.0671C37.1738 14.0174 37.1428 13.974 37.1117 13.9367C37.0993 13.9243 37.0869 13.9057 37.0745 13.8933C37.0248 13.8436 36.9628 13.8002 36.9007 13.7753L28.2172 10.0512C28.0621 9.98293 27.8821 9.98293 27.7269 10.0512L19.0434 13.7753C18.9752 13.8064 18.9193 13.8498 18.8697 13.8933C18.8572 13.9057 18.8448 13.9243 18.8324 13.9367C18.7952 13.974 18.7703 14.0174 18.7455 14.0671C18.7331 14.0857 18.7269 14.1043 18.7207 14.1229C18.6959 14.1912 18.6772 14.2657 18.6772 14.3402V25.1029L10.3662 28.6657C10.2979 28.6967 10.2421 28.7402 10.1924 28.7836C10.18 28.796 10.1676 28.8147 10.1552 28.8271C10.1179 28.8643 10.0931 28.9078 10.0683 28.9574C10.0559 28.976 10.0497 28.9947 10.0434 29.0133C10.0186 29.0816 10 29.156 10 29.2305V40.4029C10 40.6512 10.149 40.8747 10.3786 40.974L19.0683 44.6981C19.1428 44.7291 19.2234 44.7478 19.3103 44.7478C19.3972 44.7478 19.4779 44.7291 19.5524 44.6981L28 41.0795L36.4476 44.6981C36.5221 44.7291 36.6028 44.7478 36.6897 44.7478C36.7766 44.7478 36.8572 44.7291 36.9317 44.6981L45.6214 40.974C45.851 40.8747 46 40.6512 46 40.4029V29.2305C46 29.156 45.9814 29.0816 45.9566 29.0133L45.9007 29.0195ZM18.6338 43.1898L11.1855 39.9995V30.1802L18.6338 33.3705V43.1898ZM19.2545 32.2843L12.1414 29.2367L19.2545 26.1891L26.3676 29.2367L19.2545 32.2843ZM27.3234 39.9995L19.8752 43.1898V33.3705L27.3234 30.1802V39.9995ZM27.3234 28.2933L23.9097 26.8284L19.8752 25.0967V15.2774L27.3234 18.4678V28.2871V28.2933ZM20.831 14.3402L27.9441 11.2926L35.0572 14.3402L27.9441 17.3878L20.831 14.3402ZM36.0131 15.2836V25.1029L31.9786 26.8347L28.5648 28.2995V18.4802L36.0131 15.2898V15.2836ZM36.0131 43.1898L28.5648 39.9995V30.1802L36.0131 33.3705V43.1898ZM36.6338 32.2843L29.5207 29.2367L36.6338 26.1891L43.7469 29.2367L36.6338 32.2843ZM44.7028 39.9995L37.2545 43.1898V33.3705L44.7028 30.1802V39.9995Z" fill="#F4962F"/>
</svg>
