<svg xmlns="http://www.w3.org/2000/svg" width="45" height="45" viewBox="0 0 45 45">
  <g id="customer_engagemtn" transform="translate(-630 -392)">
    <circle id="Ellipse_45" data-name="Ellipse 45" cx="22.5" cy="22.5" r="22.5" transform="translate(630 392)" fill="#2f2f2f"/>
    <g id="customer" transform="translate(631.394 375.6)">
      <g id="Group_8375" data-name="Group 8375" transform="translate(9.887 27.4)">
        <path id="Path_9268" data-name="Path 9268" d="M29.648,47.913a4.292,4.292,0,0,0-1.632-3.222,10.848,10.848,0,0,0-2.866-1.485C24,42.745,23,42.358,22.692,41.657a14.687,14.687,0,0,1-.042-1.5v-.23a3.458,3.458,0,0,0,.607-.91,5.322,5.322,0,0,0,.46-1.36,1.294,1.294,0,0,0,.429-.366,2.661,2.661,0,0,0,.481-1.339,1.65,1.65,0,0,0-.3-1.224,11.14,11.14,0,0,0,.408-2.155,4.837,4.837,0,0,0-.544-2.992,2.779,2.779,0,0,0-1.914-1.276,3.181,3.181,0,0,0-2.552-.91h-.01a4.762,4.762,0,0,0-3.954,1.653c-.952,1.255-1.13,3.159-.533,5.669a1.645,1.645,0,0,0-.324,1.245,2.661,2.661,0,0,0,.481,1.339,1.328,1.328,0,0,0,.439.366,4.955,4.955,0,0,0,1.088,2.27v.23a14.687,14.687,0,0,1-.042,1.5c-.3.69-1.308,1.088-2.469,1.548A10.908,10.908,0,0,0,11.521,44.7a4.2,4.2,0,0,0-1.632,3.211.473.473,0,0,0,.136.366.508.508,0,0,0,.356.157H29.146a.453.453,0,0,0,.356-.157.446.446,0,0,0,.146-.366Zm-18.693-.46a3.19,3.19,0,0,1,1.2-1.977,9.926,9.926,0,0,1,2.615-1.328c1.349-.533,2.626-1.036,3.054-2.176l.031-.126a15.659,15.659,0,0,0,.052-1.663v-.46a.524.524,0,0,0-.262-.439,3.989,3.989,0,0,1-.889-2.029.482.482,0,0,0-.45-.439c-.063,0-.314-.178-.408-.962a.583.583,0,0,1,.146-.544.492.492,0,0,0,.22-.544,10.369,10.369,0,0,1-.387-2.96,3.793,3.793,0,0,1,.669-2.155,3.855,3.855,0,0,1,3.18-1.255c.921,0,1.611.23,1.831.617a.477.477,0,0,0,.366.241,1.9,1.9,0,0,1,1.433.858c.764,1.224.324,3.473-.063,4.613a.483.483,0,0,0,.209.575s.2.136.146.544c-.094.774-.345.952-.408.962a.491.491,0,0,0-.45.439,4.076,4.076,0,0,1-.858,2.029.494.494,0,0,0-.262.429v.46a15.581,15.581,0,0,0,.052,1.663.279.279,0,0,0,.031.126c.429,1.14,1.695,1.642,3.044,2.176a10.182,10.182,0,0,1,2.6,1.328,3.237,3.237,0,0,1,1.2,1.977l-17.657.021Zm23.5-1.841a.508.508,0,0,1-.356.157H31.071a.492.492,0,0,1,0-.983h2.469a2.638,2.638,0,0,0-.962-1.527A8.2,8.2,0,0,0,30.4,42.149c-1.151-.45-2.239-.889-2.615-1.883l-.031-.126a13.418,13.418,0,0,1-.042-1.412v-.387a.484.484,0,0,1,.251-.429,3.285,3.285,0,0,0,.69-1.653.491.491,0,0,1,.45-.439c.042-.021.209-.178.282-.743.031-.272-.084-.366-.094-.377a.488.488,0,0,1-.209-.575c.314-.952.68-2.814.063-3.818A1.505,1.505,0,0,0,28,29.618a.528.528,0,0,1-.366-.251c-.167-.293-.732-.481-1.464-.481a5.059,5.059,0,0,0-.826.073.493.493,0,0,1-.157-.973,7.022,7.022,0,0,1,.973-.084h.01a2.778,2.778,0,0,1,2.2.774,2.408,2.408,0,0,1,1.632,1.109c.858,1.37.377,3.5.136,4.362A1.48,1.48,0,0,1,30.38,35.2a2.35,2.35,0,0,1-.418,1.172,1.117,1.117,0,0,1-.356.314,4.2,4.2,0,0,1-.889,1.893v.167c0,.418-.01.774.031,1.234.251.554,1.109.889,2.019,1.245A9.3,9.3,0,0,1,33.2,42.484a3.641,3.641,0,0,1,1.4,2.762.636.636,0,0,1-.146.366Z" transform="translate(-9.887 -27.4)" fill="#fff"/>
      </g>
    </g>
  </g>
</svg>
