<?xml version="1.0" encoding="UTF-8"?><svg id="Layer_1" xmlns="http://www.w3.org/2000/svg" viewBox="0 0 496.1 452.82"><defs><style>.cls-1{fill:#010101;fill-rule:evenodd;}</style></defs><path class="cls-1" d="M222.32,267.7c-16.53,25.86-45.51,43.03-78.46,43.03-51.36,0-93.05-41.71-93.05-93.05,0-4.39,3.55-7.97,7.94-7.97h170.23c4.39,0,7.94,3.57,7.94,7.97,0,12.68-2.53,24.79-7.15,35.81,5.41,1.84,11.22,2.8,17.25,2.8,27.12,0,49.63-20.02,53.47-46.1h-53.47v-15.88h61.99c4.39,0,7.94,3.55,7.94,7.94,0,38.59-31.34,69.93-69.93,69.93-8.69,0-17.02-1.59-24.69-4.47h0ZM143.85,294.84c39.93,0,72.8-30.37,76.78-69.23H67.08c3.97,38.86,36.85,69.23,76.78,69.23ZM15.88,66.98v269.35c0,5.93,2.36,11.61,6.55,15.81,4.19,4.19,9.88,6.55,15.81,6.55h218.91v15.88H38.24c-10.12,0-19.85-4.02-27.02-11.19-7.17-7.17-11.22-16.9-11.22-27.05V38.24C0,17.12,17.12,0,38.24,0h369.53c10.15,0,19.88,4.04,27.05,11.22,7.15,7.17,11.19,16.9,11.19,27.02v180.57h-15.88V38.24c0-5.93-2.36-11.61-6.55-15.81-4.19-4.19-9.88-6.55-15.81-6.55H38.24c-12.33,0-22.36,10.02-22.36,22.36v12.85h392.68v15.88H15.88ZM143.85,99.21c25.66,0,46.48,20.84,46.48,46.48s-20.82,46.5-46.48,46.5-46.48-20.82-46.48-46.5,20.82-46.48,46.48-46.48ZM143.85,115.09c-16.9,0-30.6,13.72-30.6,30.6s13.7,30.62,30.6,30.62,30.62-13.72,30.62-30.62-13.72-30.6-30.62-30.6ZM247,109.68c19.88,0,36.01,16.13,36.01,36.01s-16.13,36.03-36.01,36.03-36.03-16.13-36.03-36.03,16.15-36.01,36.03-36.01ZM247,125.56c-11.12,0-20.15,9.03-20.15,20.12s9.03,20.15,20.15,20.15,20.12-9.03,20.12-20.15-9.01-20.12-20.12-20.12ZM371.52,273.36l-15.71-2.28,4.22-29.13c.57-3.92,3.92-6.8,7.84-6.8h43.87c3.95,0,7.3,2.88,7.87,6.8l3.57,24.59c6.05,2.63,11.76,5.93,17,9.85l23.1-9.23c3.67-1.46,7.84,0,9.83,3.4l21.94,37.99c1.96,3.42,1.14,7.77-1.96,10.22l-19.53,15.38c.37,3.23.57,6.5.57,9.83s-.2,6.6-.57,9.83l19.53,15.38c3.1,2.43,3.92,6.8,1.96,10.2l-21.94,37.99c-1.99,3.42-6.15,4.86-9.83,3.4l-23.1-9.21c-5.24,3.9-10.94,7.22-17,9.83l-3.57,24.62c-.57,3.9-3.92,6.8-7.87,6.8h-43.87c-3.92,0-7.27-2.9-7.84-6.8l-3.57-24.62c-6.05-2.61-11.76-5.93-17-9.83l-23.1,9.21c-3.67,1.46-7.87.02-9.83-3.4l-21.94-37.99c-1.99-3.4-1.14-7.77,1.96-10.2l19.53-15.38c-.37-3.23-.57-6.5-.57-9.83s.2-6.6.57-9.83l-19.53-15.38c-3.1-2.46-3.95-6.8-1.96-10.22l21.94-37.99c1.96-3.4,6.15-4.86,9.83-3.4l27.37,10.92-5.88,14.76-20.99-8.39-15.06,26.08,17.72,14c2.31,1.79,3.42,4.71,2.93,7.59-.69,3.85-1.04,7.82-1.04,11.86s.35,7.99,1.04,11.86c.5,2.85-.62,5.78-2.93,7.59l-17.72,13.97,15.06,26.08,20.99-8.36c2.7-1.09,5.81-.6,8.04,1.29,6.03,5.06,12.95,9.11,20.5,11.86,2.75.99,4.71,3.42,5.14,6.3l3.23,22.36h30.12l3.25-22.36c.42-2.88,2.38-5.31,5.14-6.3,7.54-2.75,14.47-6.8,20.5-11.86,2.23-1.89,5.34-2.38,8.04-1.29l20.99,8.36,15.06-26.08-17.74-13.97c-2.28-1.81-3.4-4.74-2.9-7.59.67-3.87,1.04-7.82,1.04-11.86s-.37-8.01-1.04-11.86c-.5-2.88.62-5.81,2.9-7.59l17.74-14-15.06-26.08-20.99,8.39c-2.7,1.07-5.81.57-8.04-1.29-6.03-5.06-12.95-9.11-20.5-11.86-2.75-1.02-4.71-3.42-5.14-6.33l-3.25-22.33h-30.12l-3.23,22.33ZM389.81,302.91c22.68,0,41.07,18.39,41.07,41.07s-18.39,41.07-41.07,41.07-41.07-18.41-41.07-41.07,18.41-41.07,41.07-41.07ZM389.81,318.79c-13.9,0-25.19,11.29-25.19,25.19s11.29,25.19,25.19,25.19,25.19-11.29,25.19-25.19-11.27-25.19-25.19-25.19Z"/></svg>