<?xml version="1.0" encoding="UTF-8"?><svg id="Layer_1" xmlns="http://www.w3.org/2000/svg" xmlns:xlink="http://www.w3.org/1999/xlink" viewBox="0 0 148.78 148.78"><defs><style>.cls-1{fill:#fff;}.cls-2{fill:url(#linear-gradient);}</style><linearGradient id="linear-gradient" x1="148.78" y1="77.61" x2="0" y2="77.61" gradientTransform="translate(0 152) scale(1 -1)" gradientUnits="userSpaceOnUse"><stop offset="0" stop-color="#3b3b3b"/><stop offset="1" stop-color="#191919"/></linearGradient></defs><circle class="cls-2" cx="74.39" cy="74.39" r="74.39"/><path class="cls-1" d="M118.71,30.96H36.06c-2.03,0-3.67,1.65-3.67,3.67v82.65c0,2.03,1.65,3.67,3.67,3.67h82.65c2.03,0,3.67-1.65,3.67-3.67V34.63c0-2.03-1.65-3.67-3.67-3.67ZM118.71,117.28H36.06V47.49h82.65v69.8ZM118.71,43.81H36.06v-9.18h82.65v9.18Z"/><rect class="cls-1" x="39.73" y="37.39" width="6.43" height="3.67"/><rect class="cls-1" x="48.92" y="37.39" width="6.43" height="3.67"/><rect class="cls-1" x="108.61" y="37.39" width="6.43" height="3.67"/><path class="cls-1" d="M54.43,86.06h3.16c.18.5.38.99.6,1.46l-2.23,2.24c-.69.69-1.08,1.61-1.08,2.59s.38,1.9,1.08,2.59l5.2,5.2c.69.69,1.61,1.08,2.59,1.08s1.9-.38,2.59-1.07l2.24-2.23c.47.21.96.41,1.46.6v3.16c0,2.03,1.65,3.67,3.67,3.67h7.35c2.03,0,3.67-1.65,3.67-3.67v-3.16c.5-.18.99-.38,1.46-.6l2.24,2.23c.69.69,1.61,1.08,2.59,1.08s1.9-.38,2.59-1.08l5.2-5.2c.69-.69,1.08-1.61,1.08-2.59s-.38-1.9-1.07-2.59l-2.23-2.24c.21-.47.41-.96.6-1.46h3.16c2.03,0,3.67-1.65,3.67-3.67v-7.35c0-2.03-1.65-3.67-3.67-3.67h-3.16c-.18-.5-.38-.99-.6-1.46l2.23-2.24c.69-.69,1.08-1.61,1.08-2.59s-.38-1.9-1.08-2.59l-5.2-5.2c-.69-.69-1.61-1.08-2.59-1.08s-1.9.38-2.59,1.07l-2.24,2.23c-.47-.21-.96-.41-1.46-.6v-3.16c0-2.03-1.65-3.67-3.67-3.67h-7.35c-2.03,0-3.67,1.65-3.67,3.67v3.16c-.5.18-.99.38-1.46.6l-2.24-2.23c-.69-.69-1.61-1.08-2.59-1.08s-1.9.38-2.59,1.08l-5.2,5.2c-.69.69-1.08,1.61-1.08,2.59s.38,1.9,1.07,2.59l2.23,2.24c-.21.47-.41.96-.6,1.46h-3.16c-2.03,0-3.67,1.65-3.67,3.67v7.35c0,2.03,1.65,3.67,3.67,3.67ZM54.43,75.04h4.48c.81,0,1.53-.53,1.76-1.31.36-1.21.82-2.32,1.36-3.3.39-.71.27-1.6-.31-2.18l-3.16-3.17,5.19-5.19,3.18,3.16c.58.57,1.46.7,2.18.31.98-.54,2.09-.99,3.3-1.36.78-.23,1.31-.95,1.31-1.76v-4.48h7.35v4.48c0,.81.53,1.53,1.31,1.76,1.21.36,2.32.82,3.3,1.36.71.39,1.6.27,2.18-.31l3.17-3.16,5.19,5.19-3.16,3.18c-.57.58-.7,1.46-.31,2.18.54.98.99,2.09,1.36,3.3.23.78.95,1.31,1.76,1.31h4.48v7.35h-4.48c-.81,0-1.53.53-1.76,1.31-.36,1.21-.82,2.32-1.36,3.3-.39.71-.27,1.6.31,2.18l3.16,3.17-5.19,5.19-3.18-3.16c-.58-.57-1.46-.7-2.18-.31-.98.54-2.09.99-3.3,1.36-.78.23-1.31.95-1.31,1.76v4.48h-7.35v-4.48c0-.81-.53-1.53-1.31-1.76-1.21-.36-2.32-.82-3.3-1.36-.28-.15-.58-.23-.88-.23-.47,0-.94.18-1.3.53l-3.17,3.16-5.19-5.19,3.16-3.18c.57-.58.7-1.46.31-2.18-.54-.98-.99-2.09-1.36-3.3-.23-.78-.95-1.31-1.76-1.31h-4.48v-7.35Z"/><path class="cls-1" d="M77.39,87.9c5.06,0,9.18-4.12,9.18-9.18s-4.12-9.18-9.18-9.18-9.18,4.12-9.18,9.18,4.12,9.18,9.18,9.18ZM77.39,73.2c3.04,0,5.51,2.47,5.51,5.51s-2.47,5.51-5.51,5.51-5.51-2.47-5.51-5.51,2.47-5.51,5.51-5.51Z"/><rect class="cls-1" x="102.18" y="58.51" width="3.67" height="3.67"/><rect class="cls-1" x="107.69" y="58.51" width="3.67" height="3.67"/><rect class="cls-1" x="113.2" y="58.51" width="3.67" height="3.67"/><rect class="cls-1" x="37.9" y="95.24" width="3.67" height="3.67"/><rect class="cls-1" x="43.41" y="95.24" width="3.67" height="3.67"/><rect class="cls-1" x="48.92" y="95.24" width="3.67" height="3.67"/><rect class="cls-1" x="44.32" y="109.94" width="66.12" height="3.67"/></svg>