<svg xmlns="http://www.w3.org/2000/svg" xmlns:xlink="http://www.w3.org/1999/xlink" width="45" height="45" viewBox="0 0 45 45">
  <defs>
    <linearGradient id="linear-gradient" x1="0.5" x2="0.156" y2="0.791" gradientUnits="objectBoundingBox">
      <stop offset="0" stop-color="#3e3e3e"/>
      <stop offset="1" stop-color="#1a1a1a"/>
    </linearGradient>
  </defs>
  <g id="customer_software" transform="translate(-370 -327)">
    <circle id="Ellipse_1" data-name="Ellipse 1" cx="22.5" cy="22.5" r="22.5" transform="translate(370 327)" fill="url(#linear-gradient)"/>
    <g id="Group_8363" data-name="Group 8363" transform="translate(196 -104)">
      <path id="Path_9241" data-name="Path 9241" d="M41.1,203.6H57.527" transform="translate(145.352 258.468)" fill="#fefefe"/>
      <path id="Path_9252" data-name="Path 9252" d="M24.8,45.588a.488.488,0,0,0,.977,0h0a.486.486,0,0,0-.488-.488.493.493,0,0,0-.488.488Z" transform="translate(159.843 399.376)" fill="#fefefe"/>
      <path id="Path_9253" data-name="Path 9253" d="M54.4,45.588a.488.488,0,1,0,.977,0h0a.486.486,0,0,0-.488-.488.493.493,0,0,0-.488.488Z" transform="translate(133.528 399.376)" fill="#fefefe"/>
      <path id="Path_9254" data-name="Path 9254" d="M39.6,45.588a.488.488,0,0,0,.977,0h0a.486.486,0,0,0-.488-.488.493.493,0,0,0-.488.488Z" transform="translate(146.685 399.376)" fill="#fefefe"/>
      <path id="Path_9255" data-name="Path 9255" d="M67.021,95.442,68.5,93.966a.494.494,0,0,0-.7-.7h0l-1.831,1.842a.5.5,0,0,0,0,.7L67.8,97.651a.492.492,0,0,0,.7,0h0a.5.5,0,0,0,0-.7Zm7.059,2.175a.5.5,0,0,0,.7,0l1.842-1.809a.5.5,0,0,0,0-.7l-1.842-1.842a.494.494,0,0,0-.7.7h0l1.476,1.476L74.08,96.918a.5.5,0,0,0,0,.7Zm-1.632-4.2a.5.5,0,0,0-.677.178h0l-1.82,3.2a.491.491,0,0,0,.832.522c.011-.011.011-.022.022-.033l1.842-3.174a.491.491,0,0,0-.166-.677A.049.049,0,0,1,72.448,93.422Z" transform="translate(123.371 356.681)" fill="#fefefe"/>
      <path id="Path_9256" data-name="Path 9256" d="M35.073,45.729a.144.144,0,0,1-.133-.089,5.332,5.332,0,0,0-.821-1.421.151.151,0,0,1,0-.166,1.135,1.135,0,0,0-.411-1.543l-.366-.222V33.276A1.476,1.476,0,0,0,31.865,31.8H11.476A1.476,1.476,0,0,0,10,33.276V45.763a1.142,1.142,0,0,0,1.143,1.143H17.88l-.488,1.82h-.655a2.135,2.135,0,0,0-2.076,1.643h-1.21a.486.486,0,0,0-.488.488.493.493,0,0,0,.488.488H26a.968.968,0,0,0,.033.355,1.107,1.107,0,0,0,.533.688l1.043.6a1.129,1.129,0,0,0,1.543-.422h0a.142.142,0,0,1,.155-.067,5.03,5.03,0,0,0,1.632,0,.149.149,0,0,1,.155.078,1.124,1.124,0,0,0,.988.566A1.1,1.1,0,0,0,32.653,53l1.043-.6a1.179,1.179,0,0,0,.533-.688,1.145,1.145,0,0,0-.111-.855.151.151,0,0,1,0-.166,5.332,5.332,0,0,0,.821-1.421.129.129,0,0,1,.133-.089A1.137,1.137,0,0,0,36.2,48.049v-1.2A1.149,1.149,0,0,0,35.073,45.729ZM10.988,33.276a.486.486,0,0,1,.488-.488H31.843a.486.486,0,0,1,.488.488v1.476H10.988Zm.155,12.653a.171.171,0,0,1-.166-.166h0V35.74H32.331v6.038a1.139,1.139,0,0,0-1.243.488.152.152,0,0,1-.144.067,5.03,5.03,0,0,0-1.632,0,.127.127,0,0,1-.144-.067,1.129,1.129,0,0,0-1.543-.422h-.011l-1.043.6a1.107,1.107,0,0,0-.533.688,1.129,1.129,0,0,0,.111.866.151.151,0,0,1,0,.166,5.511,5.511,0,0,0-.821,1.421.144.144,0,0,1-.133.089,1.092,1.092,0,0,0-.666.222ZM24.3,48.737H18.38l.488-1.82H24.04v1.132A1.22,1.22,0,0,0,24.3,48.737Zm-7.547.988h8.779a5.64,5.64,0,0,0,.388.655H15.7a1.144,1.144,0,0,1,1.043-.655Zm18.469-1.687a.147.147,0,0,1-.144.144,1.126,1.126,0,0,0-1.054.733,3.954,3.954,0,0,1-.666,1.143,1.124,1.124,0,0,0-.1,1.276.189.189,0,0,1,0,.111.115.115,0,0,1-.067.089l-1.021.577a.145.145,0,0,1-.2-.055h0a1.12,1.12,0,0,0-1.165-.544,3.709,3.709,0,0,1-1.31,0,1.128,1.128,0,0,0-1.165.555.159.159,0,0,1-.2.055l-1.043-.6a.173.173,0,0,1-.067-.089.189.189,0,0,1,0-.111,1.142,1.142,0,0,0-.1-1.276,4.223,4.223,0,0,1-.666-1.143,1.124,1.124,0,0,0-1.043-.71.147.147,0,0,1-.144-.144v-1.2a.138.138,0,0,1,.133-.144h.011a1.126,1.126,0,0,0,1.054-.733,3.682,3.682,0,0,1,.666-1.143,1.143,1.143,0,0,0,.1-1.276.189.189,0,0,1,0-.111.173.173,0,0,1,.067-.089l1.043-.6a.094.094,0,0,1,.078,0,.128.128,0,0,1,.122.067,1.145,1.145,0,0,0,1.165.555,3.709,3.709,0,0,1,1.31,0,1.136,1.136,0,0,0,1.154-.577.159.159,0,0,1,.2-.055h0l1.043.6a.173.173,0,0,1,.067.089.189.189,0,0,1,0,.111,1.142,1.142,0,0,0,.1,1.276,4.411,4.411,0,0,1,.666,1.154,1.14,1.14,0,0,0,1.054.755.138.138,0,0,1,.144.133v1.176Z" transform="translate(173 411.2)" fill="#fefefe"/>
      <path id="Path_9257" data-name="Path 9257" d="M173.342,152.6a2.242,2.242,0,1,0,2.242,2.242h0A2.236,2.236,0,0,0,173.342,152.6Zm0,3.485a1.254,1.254,0,1,1,1.254-1.254,1.26,1.26,0,0,1-1.254,1.254Z" transform="translate(29.781 303.808)" fill="#fefefe"/>
    </g>
  </g>
</svg>
