<svg width="80" height="80" viewBox="0 0 80 80" fill="none" xmlns="http://www.w3.org/2000/svg">
<circle cx="40" cy="40" r="40" fill="#FFF2E8"/>
<rect x="30.3423" y="15.5624" width="5.12457" height="10.2491" rx="1" fill="#F48120"/>
<rect x="30.3423" y="52.7153" width="5.12457" height="11.5303" rx="1" fill="#F48120"/>
<path d="M67.7277 39.5394C67.717 35.8485 66.9387 32.2001 65.4423 28.8261C63.946 25.4521 61.7643 22.4262 59.0357 19.9405C56.3072 17.4549 53.0916 15.5639 49.5931 14.3877C46.0946 13.2115 42.3897 12.7758 38.7137 13.1082C38.4952 13.1346 38.2955 13.2449 38.1569 13.4159C38.0182 13.5868 37.9514 13.8049 37.9706 14.0242C37.9985 14.2398 38.1077 14.4366 38.2758 14.5745C38.4439 14.7123 38.6582 14.7808 38.8751 14.766C45.4422 14.1187 51.9975 16.1067 57.0988 20.2926C62.2002 24.4786 65.4297 30.5196 66.077 37.0867C66.7243 43.6538 64.7363 50.209 60.5503 55.3104C56.3644 60.4117 50.3234 63.6412 43.7563 64.2885L43.746 62.2605L38.7983 65.1315L43.755 68V65.9207C50.3101 65.277 56.3923 62.2214 60.8219 57.3468C65.2515 52.4721 67.7126 46.126 67.7277 39.5394Z" fill="#111111"/>
<path d="M33.0766 14.2959C32.2409 14.2993 31.4078 14.3907 30.5912 14.5688C30.5682 14.5688 30.5425 14.5918 30.5182 14.5918C8.07257 22.3543 8.07386 56.7504 30.5425 64.4911H30.5912C33.1766 65.2213 36.25 64.7114 36.3756 61.4753V55.0426C36.3719 54.1697 36.0228 53.3337 35.4047 52.7172C34.7866 52.1008 33.9496 51.754 33.0766 51.7527H30.5912C29.1649 51.7476 27.7986 51.1776 26.7916 50.1674C25.7846 49.1573 25.2188 47.7893 25.2181 46.3629V31.8988C25.2007 31.2323 25.331 30.5702 25.5998 29.96C25.8685 29.3499 26.269 28.8068 26.7724 28.3697C27.2759 27.9326 27.8699 27.6124 28.5117 27.432C29.1536 27.2516 29.8274 27.2156 30.4849 27.3264H33.0818C33.9585 27.3223 34.7978 26.9705 35.4154 26.3481C36.033 25.7257 36.3783 24.8837 36.3756 24.007V17.5846C36.3715 16.7119 36.0223 15.8762 35.4042 15.26C34.7861 14.6438 33.9494 14.2972 33.0766 14.2959ZM34.7421 55.0426V61.4701C34.6986 63.2778 32.7435 63.2778 31.4047 62.9793V53.3861H33.0702C33.289 53.3848 33.506 53.4266 33.7087 53.5091C33.9113 53.5916 34.0957 53.7133 34.2514 53.8671C34.407 54.021 34.5308 54.204 34.6156 54.4057C34.7005 54.6074 34.7448 54.8238 34.746 55.0426H34.7421ZM25.6716 27.1265C24.9979 27.7233 24.4612 28.4588 24.0985 29.2826C23.7359 30.1064 23.5557 30.9989 23.5706 31.8988V46.3629C23.5761 48.0822 24.2101 49.7402 25.3531 51.0246C26.4961 52.309 28.0693 53.1311 29.7764 53.3362V62.5604C29.2618 62.386 28.7615 62.1718 28.28 61.9198C10.344 52.0268 11.0602 24.9858 29.7764 16.4995V25.6199C28.2704 25.6061 26.8111 26.1417 25.6716 27.1265ZM34.746 24.007C34.7436 24.4471 34.5671 24.8684 34.255 25.1788C33.9429 25.4892 33.5206 25.6635 33.0805 25.6635H31.415V16.0754C32.7794 15.8115 34.6832 15.7372 34.7524 17.5846L34.746 24.007Z" fill="#111111"/>
<path d="M42.1996 42.4079L49.9441 50.6649C50.0936 50.8156 50.2958 50.9024 50.508 50.9069C50.7203 50.9114 50.926 50.8332 51.0817 50.689C51.2375 50.5447 51.3311 50.3456 51.3428 50.1336C51.3545 49.9216 51.2834 49.7134 51.1445 49.5528L43.4103 41.2946C43.6475 40.911 43.8036 40.483 43.8692 40.0368C43.9347 39.5906 43.9082 39.1358 43.7913 38.7002C43.6744 38.2647 43.4696 37.8577 43.1894 37.5043C42.9093 37.1509 42.5598 36.8585 42.1624 36.6453L45.5472 22.2325C45.5967 22.0196 45.5595 21.7958 45.4439 21.6103C45.3284 21.4248 45.1439 21.2928 44.931 21.2434C44.7181 21.194 44.4943 21.2311 44.3088 21.3467C44.1234 21.4623 43.9914 21.6468 43.9419 21.8596L40.5687 36.2507C35.1431 36.7824 37.2608 44.6845 42.1996 42.4079ZM38.9967 39.5394C39.0087 39.1129 39.1865 38.7079 39.4923 38.4105C39.7982 38.113 40.208 37.9466 40.6347 37.9466C41.0613 37.9466 41.4711 38.113 41.777 38.4105C42.0829 38.7079 42.2607 39.1129 42.2726 39.5394C42.2522 39.9598 42.0709 40.3562 41.7662 40.6464C41.4615 40.9367 41.0568 41.0987 40.636 41.0987C40.2151 41.0987 39.8104 40.9367 39.5057 40.6464C39.201 40.3562 39.0197 39.9598 38.9993 39.5394H38.9967Z" fill="#111111"/>
</svg>
