<svg xmlns="http://www.w3.org/2000/svg" width="28.466" height="25.111" viewBox="0 0 28.466 25.111">
  <g id="custom-sports-software-development" transform="translate(0.5 0.5)">
    <path id="Path_1427" data-name="Path 1427" d="M47.006,49.857a.435.435,0,0,0-.585.189L43.508,55.74a.435.435,0,0,0,.774.4l2.913-5.694A.434.434,0,0,0,47.006,49.857Z" transform="translate(-31.623 -37.81)" fill="#fff" stroke="#fff" stroke-width="1"/>
    <path id="Path_1428" data-name="Path 1428" d="M64.39,48.912a.435.435,0,0,0-.615.615L66.553,52.3l-2.778,2.777a.435.435,0,0,0,.615.615l3.086-3.085a.435.435,0,0,0,0-.615Z" transform="translate(-45.958 -37.082)" fill="#fff" stroke="#fff" stroke-width="1"/>
    <path id="Path_1429" data-name="Path 1429" d="M26.535,48.913a.435.435,0,0,0-.615,0L22.835,52a.435.435,0,0,0,0,.615L25.921,55.7a.435.435,0,0,0,.615-.615L23.758,52.3l2.777-2.777A.435.435,0,0,0,26.535,48.913Z" transform="translate(-16.887 -37.082)" fill="#fff" stroke="#fff" stroke-width="1"/>
    <path id="Path_1430" data-name="Path 1430" d="M29.657,8.414H3.061a.435.435,0,0,0-.435.435V32.09a.435.435,0,0,0,.435.435h26.6a.435.435,0,0,0,.435-.435V8.849A.435.435,0,0,0,29.657,8.414Zm-.435.87v5.468H3.5V9.284ZM3.5,31.655V15.621H29.222V31.655H3.5Z" transform="translate(-2.626 -8.414)" fill="#fff" stroke="#fff" stroke-width="1"/>
    <path id="Path_1431" data-name="Path 1431" d="M12.5,19.721h2a.435.435,0,1,0,0-.87h-2a.435.435,0,1,0,0,.87Z" transform="translate(-9.327 -15.825)" fill="#fff" stroke="#fff" stroke-width="1"/>
    <path id="Path_1432" data-name="Path 1432" d="M27.261,19.721h2a.435.435,0,0,0,0-.87h-2a.435.435,0,1,0,0,.87Z" transform="translate(-19.811 -15.825)" fill="#fff" stroke="#fff" stroke-width="1"/>
  </g>
</svg>
