<?xml version="1.0" encoding="UTF-8"?><svg id="Layer_1" xmlns="http://www.w3.org/2000/svg" viewBox="0 0 60 60"><defs><style>.cls-1{fill:#010101;}.cls-1,.cls-2,.cls-3,.cls-4,.cls-5{stroke-width:0px;}.cls-2{fill:#ead5c3;}.cls-3{fill:#fff3e9;}.cls-4{fill:#fff2e9;}.cls-5{fill:#f58220;}</style></defs><circle class="cls-4" cx="30" cy="30" r="30"/><path class="cls-5" d="M49.33,8.02l-.37.1c-.23.06-.41.24-.47.47l-.1.37-.1-.37c-.06-.23-.24-.41-.47-.47l-.37-.1.37-.1c.23-.06.41-.24.47-.47l.1-.37.1.37c.06.23.24.41.47.47l.37.1h0ZM13.5,8.57l-.37.1c-.23.06-.41.24-.47.47l-.1.37-.1-.37c-.06-.23-.24-.41-.47-.47l-.37-.1.37-.1c.23-.06.41-.24.47-.47l.1-.37.1.37c.06.23.24.41.47.47l.37.1h0ZM48.39,30.67l-.37.1c-.23.06-.41.24-.47.47l-.1.37-.1-.37c-.06-.23-.24-.41-.47-.47l-.37-.1.37-.1c.23-.06.41-.24.47-.47l.1-.37.1.37c.06.23.24.41.47.47l.37.1ZM49.01,44.14l-.24.07c-.15.04-.27.16-.31.31l-.07.24-.07-.24c-.04-.15-.16-.27-.31-.31l-.24-.07.24-.07c.15-.04.27-.16.31-.31l.07-.24.07.24c.04.15.16.27.31.31l.24.07ZM13.19,22.93l-.25.07c-.15.04-.27.16-.31.31l-.07.25-.07-.25c-.04-.15-.16-.27-.31-.31l-.25-.07.25-.07c.15-.04.27-.16.31-.31l.07-.25.07.25c.04.15.16.27.31.31l.25.07h0ZM18.37,20.5l-.17.05c-.11.03-.19.11-.22.22l-.05.17-.05-.17c-.03-.11-.11-.19-.22-.22l-.17-.05.17-.05c.11-.03.19-.11.22-.22l.05-.17.05.17c.03.11.11.19.22.22l.17.05ZM33.68,26.14l-4.2,4.2-4.31-4.31c-.96-.96-.96-2.52,0-3.49.96-.96,2.52-.96,3.49,0,.37.37.61.85.69,1.37.08-.53.33-1.02.71-1.39,1-1,2.62-1,3.62,0,1,1,1,2.62,0,3.62h0Z"/><path class="cls-2" d="M16.51,42.79h-3.54c-.87,0-1.57-.71-1.57-1.57v-11.69c0-.87.71-1.57,1.57-1.57h3.54c.87,0,1.57.71,1.57,1.57v11.69c0,.87-.71,1.57-1.57,1.57Z"/><path class="cls-3" d="M29.11,37.62h7.27c.85,0,1.54-.69,1.54-1.54s-.69-1.54-1.54-1.54h-6.37c-.55,0-1.08-.19-1.5-.53l-4.84-3.86c-.69-.55-1.55-.85-2.43-.85h-3.16v10.58h2.14c.41,0,.82.11,1.17.33l6.57,3.95c.77.46,1.69.56,2.54.27l16.7-6.35c.92-.31,1.42-1.32,1.11-2.24-.28-.82-1.12-1.32-1.97-1.17l-9.72,2.95"/><path class="cls-2" d="M43.28,9.45h3.54c.87,0,1.57.71,1.57,1.57v11.69c0,.87-.71,1.57-1.57,1.57h-3.54c-.87,0-1.57-.71-1.57-1.57v-11.69c0-.87.71-1.57,1.57-1.57Z"/><path class="cls-3" d="M30.68,13.99h-7.27c-.85,0-1.54.69-1.54,1.54,0,.85.69,1.54,1.54,1.54h6.37c.55,0,1.08.19,1.5.53l4.84,3.86c.69.55,1.55.85,2.43.85h3.16v-10.58h-2.14c-.41,0-.82-.11-1.17-.33l-6.57-3.95c-.76-.46-1.69-.56-2.54-.27l-16.7,6.35c-.92.31-1.42,1.32-1.1,2.24.28.82,1.11,1.32,1.97,1.17l9.72-2.95"/><path class="cls-1" d="M50.05,46.21H9.74c-.35,0-.63.28-.63.63s.28.63.63.63h40.32c.35,0,.63-.28.63-.63s-.28-.63-.63-.63ZM29.04,30.78c.13.13.28.19.45.19s.32-.06.44-.19l4.2-4.2c1.24-1.25,1.24-3.27,0-4.51-1.24-1.25-3.26-1.25-4.51,0,0,0,0,0,0,0-.09.09-.19.2-.27.3-.08-.1-.16-.2-.25-.28-1.38-1.37-3.72-1.16-4.79.52-.78,1.23-.61,2.83.42,3.86l4.31,4.31ZM25.37,23.29c.55-.93,1.98-1.16,2.83-.3.28.28.46.63.52,1.01.05.31.31.54.62.54s.57-.22.62-.53c.06-.4.25-.76.54-1.05.75-.75,1.97-.75,2.73,0,.76.76.76,1.98,0,2.73l-3.75,3.75-3.87-3.86c-.61-.61-.71-1.57-.25-2.29h0ZM20.7,26.8c-.34.05-.58.37-.52.71,0,0,0,0,0,0,.06.37.42.58.72.52.31-.04.53-.31.53-.62,0-.03,0-.06,0-.1-.05-.34-.37-.58-.71-.52,0,0,0,0,0,0ZM22.2,22.36c.16-.31.04-.68-.27-.84,0,0,0,0,0,0-.31-.16-.69-.04-.85.27-.16.31-.03.69.28.85.35.16.7.01.85-.28ZM20.8,24.05c-.3,0-.57.22-.62.54-.04.34.21.66.55.7.32.04.62-.18.69-.5,0-.04,0-.07,0-.1,0-.34-.27-.63-.62-.63ZM22.81,19.42c-.23.22-.26.63,0,.89.24.24.64.25.89,0,.25-.24.25-.63.02-.87,0,0-.01-.01-.02-.02-.23-.23-.66-.23-.89,0ZM36.68,29.74c-.16.3-.04.68.26.84,0,0,0,0,.01,0,.31.16.69.04.85-.27.16-.31.03-.69-.28-.85,0,0,0,0,0,0-.31-.16-.68-.04-.84.27,0,0,0,0,0,0ZM38.71,27.52c.06-.3-.15-.66-.53-.72-.3-.06-.66.16-.72.53-.06.34.18.66.52.72.34.05.67-.18.72-.52h0ZM37.99,24.06c-.35.05-.58.37-.53.72.05.31.31.53.62.53.34,0,.63-.27.63-.62,0,0,0,0,0-.01,0-.41-.39-.68-.72-.62ZM35.18,32.68c.28.26.66.24.89,0,.26-.26.23-.65,0-.89-.3-.27-.68-.21-.89,0-.22.22-.26.63,0,.89Z"/><path class="cls-1" d="M12.97,43.42h3.54c1.22,0,2.2-.99,2.2-2.2v-.07h1.51c.59,0,.92.3,1.06.36.3.18.69.08.86-.22.18-.3.08-.68-.22-.86,0,0,0,0,0,0-.15-.07-.73-.54-1.7-.54h-1.51v-9.32h2.61c.71,0,1.4.27,1.96.71l4.84,3.86c.54.43,1.21.66,1.9.66h6.36c.5,0,.91.4.91.91s-.41.91-.91.91h-7.27c-.35,0-.63.28-.63.63s.28.63.63.63h7.27c.47,0,3.91-1.1,10.1-2.96.5-.07,1.03.22,1.22.72.22.57-.04,1.26-.71,1.49l-16.68,6.34c-.67.23-1.4.15-2.01-.21l-3.06-1.84c-.29-.19-.68-.11-.87.19-.19.29-.11.68.19.87.01,0,.02.02.04.02l3.06,1.84c.93.56,2.06.68,3.09.32l16.68-6.34c1.25-.42,1.92-1.77,1.5-3.02-.01-.03-.02-.07-.04-.1-.47-1.23-1.82-1.75-2.72-1.48l-7.62,2.31c.01-.1.02-.2.02-.3,0-1.2-.96-2.17-2.16-2.17,0,0,0,0-.01,0h-6.36c-.4,0-.8-.14-1.11-.38l-4.84-3.86c-.8-.64-1.79-.98-2.82-.98h-2.54c-.11-1.13-1.06-1.99-2.19-1.99h-3.54c-1.22,0-2.2.99-2.2,2.2v11.69c0,1.22.99,2.2,2.2,2.2h0ZM12.02,29.52c0-.52.42-.94.94-.94h3.54c.52,0,.94.42.94.94v11.69c0,.52-.42.94-.94.94h-3.54c-.52,0-.94-.42-.94-.94,0,0,0-11.69,0-11.69ZM13.57,17.55s.05,0,.08-.01l7.62-2.31c-.16,1.19.67,2.28,1.85,2.45.1.01.2.02.3.02h6.37c.4,0,.79.14,1.11.39l4.84,3.86c.8.63,1.8.98,2.82.99h2.54c.11,1.13,1.06,1.99,2.19,1.99h3.54c1.22,0,2.2-.99,2.2-2.2v-2.07c0-.35-.28-.63-.63-.63s-.63.28-.63.63v2.07c0,.52-.42.94-.94.94h-3.54c-.52,0-.94-.42-.94-.94v-11.7c0-.52.42-.94.94-.94h3.54c.52,0,.94.42.94.94v6.32c0,.35.28.63.63.63s.63-.28.63-.63v-6.32c0-1.22-.99-2.2-2.2-2.2h-3.54c-1.22,0-2.2.99-2.2,2.2v.07h-1.51c-.3,0-.59-.08-.85-.23l-6.56-3.95c-.93-.56-2.07-.68-3.09-.32l-16.67,6.34c-1.25.43-1.92,1.8-1.49,3.05.01.03.02.06.03.09.41,1.06,1.52,1.69,2.64,1.49h0ZM12.82,14.11l16.67-6.34c.67-.23,1.4-.15,2.01.21l6.57,3.95c.45.27.97.42,1.5.42h1.51v9.32h-2.53c-.74,0-1.46-.25-2.03-.71-3.05-2.44-1.86-1.48-4.84-3.86-.54-.43-1.21-.66-1.9-.67h-6.37c-.5,0-.91-.41-.91-.91s.41-.91.91-.91h7.27c.35,0,.63-.28.63-.63s-.28-.63-.63-.63h-7.27c-.72,0-.62.17-10.09,2.96-.52.08-1.03-.22-1.22-.71-.22-.57.03-1.25.72-1.5Z"/></svg>