<svg width="55" height="55" viewBox="0 0 55 55" fill="none" xmlns="http://www.w3.org/2000/svg">
<circle cx="27.5" cy="27.5" r="27.5" fill="#F4F4F4"/>
<path fill-rule="evenodd" clip-rule="evenodd" d="M41.1599 10C43.0267 10 44.5404 11.5136 44.5404 13.3804C44.5404 15.2471 43.0267 16.7607 41.1599 16.7607C39.2931 16.7607 37.7794 15.2471 37.7794 13.3804C37.7794 11.5136 39.2927 10 41.1599 10ZM18.857 27.2494C18.6058 27.0674 18.5498 26.7162 18.7318 26.4646C18.9134 26.2138 19.265 26.1574 19.5162 26.3394L21.1542 27.527C21.4975 27.7618 21.5083 28.2398 21.1374 28.4834L19.5138 29.6514C19.263 29.8322 18.9126 29.7754 18.7318 29.5238C18.5506 29.2722 18.6082 28.9226 18.859 28.7414L19.1082 28.5622H14.8373C14.5137 28.5622 14.2617 28.3038 14.2773 27.9502V23.9682C14.2765 23.653 14.5337 23.4079 14.8377 23.4079C15.1473 23.4079 15.3977 23.6586 15.3977 23.9682V27.4378H19.1162L18.8566 27.2498L18.857 27.2494ZM37.1366 28.7506C37.3878 28.9326 37.4438 29.2838 37.2618 29.535C37.0802 29.7862 36.7286 29.8422 36.4774 29.6606L34.839 28.4734C34.4961 28.2386 34.4849 27.7606 34.8558 27.5166L36.4794 26.3486C36.7306 26.1678 37.081 26.225 37.2618 26.4762C37.4426 26.7274 37.3854 27.0778 37.1342 27.2586L36.885 27.4378H41.1559C41.4799 27.4378 41.7319 27.6962 41.7159 28.0498L41.7167 32.0318C41.7167 32.341 41.4655 32.5917 41.1559 32.5917C40.8463 32.5917 40.5959 32.341 40.5959 32.0318V28.5626H36.8766L37.1366 28.7506ZM28.4844 19.6471C28.2812 19.9879 27.7804 20.0331 27.5276 19.6639L26.3404 18.0259C26.1584 17.7747 26.2144 17.4235 26.4656 17.2415C26.7168 17.0595 27.068 17.1155 27.25 17.3667L27.4384 17.6259V14.8371C27.4384 14.5136 27.6968 14.2612 28.05 14.2768H35.675C35.9842 14.2768 36.2354 14.5271 36.2354 14.8367C36.2354 15.1463 35.9842 15.3971 35.675 15.3971H28.5632V17.6179L28.7424 17.3687C28.9232 17.1175 29.2736 17.0603 29.5248 17.2415C29.776 17.4223 29.8332 17.7723 29.6524 18.0239L28.4844 19.6471ZM27.5172 36.3453C27.7204 36.0041 28.2208 35.9589 28.4736 36.3285L29.6608 37.9665C29.8428 38.2177 29.7868 38.5689 29.5356 38.7513C29.2844 38.9329 28.9332 38.8773 28.7512 38.6257L28.5632 38.3665V41.1553C28.5632 41.4789 28.3044 41.7312 27.9512 41.7156L20.3262 41.7164C20.0166 41.7164 19.7658 41.4653 19.7658 41.1561C19.7658 40.8469 20.0166 40.5957 20.3262 40.5957H27.4384V38.3749L27.2588 38.6241C27.0776 38.8753 26.7276 38.9325 26.4764 38.7517C26.2252 38.5709 26.168 38.2205 26.3488 37.9693L27.5168 36.3461L27.5172 36.3453ZM28.0004 25.1858C29.5544 25.1858 30.8149 26.4462 30.8149 28.0002C30.8149 29.5542 29.5544 30.8142 28.0004 30.8142C26.4464 30.8142 25.1863 29.5542 25.1863 28.0002C25.1863 26.4462 26.4464 25.1858 28.0004 25.1858ZM29.1952 26.8054C28.134 25.7438 26.3112 26.499 26.3112 28.0002C26.3112 29.5014 28.134 30.2562 29.1952 29.1946C29.8548 28.535 29.8548 27.4654 29.1952 26.8054ZM22.6031 27.643V28.3574L21.7155 29.3426C21.2242 29.8886 21.1414 30.669 21.5103 31.3078L21.8923 31.9678C22.2615 32.6057 22.9771 32.9237 23.6951 32.7713L24.9943 32.495C25.1979 32.6357 25.3875 32.7449 25.6107 32.8509L26.0208 34.1141C26.2484 34.8145 26.8836 35.2761 27.6192 35.2761H28.3816C29.1172 35.2761 29.7524 34.8141 29.9796 34.1141L30.3901 32.8509C30.6133 32.7449 30.8025 32.6357 31.0061 32.495L32.3057 32.7713C32.6645 32.8477 33.0229 32.8057 33.3401 32.6653C33.6421 32.531 33.9029 32.305 34.0869 32.0046L34.4909 31.3078C34.8598 30.669 34.7769 29.8886 34.2853 29.3426L33.3981 28.3574V27.643L34.2853 26.6574C34.7769 26.1114 34.8598 25.331 34.4909 24.6922L34.1089 24.0326C33.7393 23.3947 33.0237 23.0763 32.3061 23.2287L31.0065 23.5051C30.8033 23.3643 30.6133 23.2551 30.3905 23.1491L29.98 21.8863C29.7528 21.1859 29.1176 20.7239 28.382 20.7239H27.6196C26.884 20.7239 26.2488 21.1859 26.0212 21.8863L25.6111 23.1491C25.3875 23.2551 25.1979 23.3643 24.9947 23.5051L23.6955 23.2287C23.3367 23.1523 22.9783 23.1939 22.6611 23.3351C22.3591 23.4699 22.0983 23.695 21.9143 23.9958L21.5103 24.6926C21.1414 25.3314 21.2242 26.1118 21.7155 26.6578L22.6031 27.643ZM22.5507 25.9062L23.5875 27.0578C23.7035 27.1762 23.7667 27.3438 23.7455 27.521C23.7031 27.8634 23.7027 28.1294 23.7443 28.4706C23.7639 28.6366 23.7183 28.7974 23.6047 28.9238L22.5503 30.095C22.3819 30.2818 22.3563 30.5306 22.4807 30.7462L22.8611 31.4074C22.9879 31.6242 23.2135 31.7266 23.4615 31.6742L25.0035 31.3478C25.1571 31.3154 25.3231 31.347 25.4579 31.4494C25.6803 31.6182 25.9944 31.8118 26.2548 31.9138C26.4136 31.9702 26.5452 32.097 26.6016 32.2698L27.0884 33.7681C27.1652 34.0057 27.368 34.1525 27.6188 34.1525H28.3812C28.6316 34.1525 28.8344 34.0057 28.9116 33.7681L29.3996 32.2698C29.4484 32.1206 29.5592 31.9926 29.7148 31.927C29.9652 31.8214 30.3041 31.6406 30.5093 31.4746C30.6377 31.3614 30.8165 31.3082 30.9969 31.3466L32.5381 31.6746C32.7865 31.727 33.0121 31.625 33.1381 31.4074L33.5197 30.747C33.6437 30.5318 33.6181 30.2826 33.4501 30.0958L32.4133 28.9442C32.2969 28.8262 32.2337 28.6582 32.2553 28.481C32.3001 28.1154 32.2853 27.8642 32.2541 27.5034C32.2409 27.3534 32.2877 27.199 32.3957 27.0782L33.4505 25.9074C33.6185 25.7202 33.6441 25.4714 33.5201 25.2558L33.1397 24.5946C33.0125 24.3778 32.7869 24.2754 32.5389 24.3282L30.9973 24.6542C30.8437 24.6866 30.6777 24.655 30.5429 24.5526C30.3201 24.3834 30.0064 24.1906 29.746 24.0882C29.5872 24.0318 29.4552 23.905 29.3992 23.7322L28.9124 22.2339C28.8352 21.9963 28.6324 21.8495 28.382 21.8495H27.6196C27.3688 21.8495 27.166 21.9963 27.0892 22.2339L26.6012 23.7318C26.5524 23.8814 26.4416 24.0094 26.2856 24.075C26.0352 24.1806 25.6963 24.3614 25.4911 24.5274C25.3623 24.6406 25.1839 24.6938 25.0031 24.6554L23.4619 24.3278C23.2139 24.275 22.9883 24.377 22.8623 24.595L22.4807 25.2554C22.3567 25.4706 22.3819 25.7198 22.5503 25.907L22.5507 25.9062ZM19.1202 46H10.5624C10.252 46 10 45.7484 10 45.4376C10 42.764 12.1676 40.5965 14.8413 40.5965C17.515 40.5965 19.6822 42.764 19.6822 45.4376C19.6822 45.748 19.431 46 19.1202 46ZM11.1676 44.8752H18.5154C18.2426 43.0772 16.6905 41.7216 14.8417 41.7216C12.9929 41.7216 11.4408 43.0772 11.1676 44.8752ZM14.8417 33.4245C16.7085 33.4245 18.2222 34.9377 18.2222 36.8049C18.2222 38.6721 16.7085 40.1853 14.8417 40.1853C12.9749 40.1853 11.4612 38.6717 11.4612 36.8049C11.4612 34.9381 12.9749 33.4245 14.8417 33.4245ZM16.4365 35.2097C15.5557 34.3293 14.1273 34.3293 13.2469 35.2097C12.3661 36.0905 12.3661 37.5189 13.2469 38.3997C14.1273 39.2801 15.5557 39.2801 16.4365 38.3997C17.3174 37.5189 17.3174 36.0905 16.4365 35.2097ZM19.1202 22.5763H10.5624C10.252 22.5763 10 22.3243 10 22.0139C10 19.3403 12.1676 17.1727 14.8413 17.1727C17.515 17.1727 19.6822 19.3403 19.6822 22.0139C19.6822 22.3243 19.431 22.5763 19.1202 22.5763ZM11.1676 21.4511H18.5154C18.2426 19.6531 16.6905 18.2975 14.8417 18.2975C12.9929 18.2975 11.4408 19.6535 11.1676 21.4511ZM14.8413 10C16.7081 10 18.2218 11.5136 18.2218 13.3804C18.2218 15.2471 16.7081 16.7607 14.8413 16.7607C12.9745 16.7607 11.4608 15.2471 11.4608 13.3804C11.4608 11.5136 12.9745 10 14.8413 10ZM16.4361 11.7856C15.5553 10.9048 14.1269 10.9048 13.2465 11.7856C12.3657 12.666 12.3657 14.0944 13.2465 14.9751C14.1273 15.8559 15.5553 15.8555 16.4361 14.9751C17.317 14.0944 17.317 12.666 16.4361 11.7856ZM45.4384 45.9996H36.8806C36.5698 45.9996 36.3178 45.748 36.3178 45.4372C36.3178 42.7636 38.4854 40.5961 41.1591 40.5961C43.8328 40.5961 46 42.7636 46 45.4372C46 45.7476 45.7488 45.9996 45.4384 45.9996ZM37.4854 44.8748H44.8332C44.5604 43.0768 43.0083 41.7212 41.1595 41.7212C39.3107 41.7212 37.7586 43.0768 37.4854 44.8748ZM41.1595 33.4241C43.0263 33.4241 44.54 34.9373 44.54 36.8045C44.54 38.6717 43.0263 40.1849 41.1595 40.1849C39.2927 40.1849 37.779 38.6713 37.779 36.8045C37.779 34.9377 39.2923 33.4241 41.1595 33.4241ZM42.7543 35.2093C41.8735 34.3289 40.4455 34.3289 39.5647 35.2093C38.6838 36.0901 38.6838 37.5185 39.5647 38.3993C40.4455 39.2797 41.8735 39.2797 42.7543 38.3993C43.6351 37.5185 43.6351 36.0901 42.7543 35.2093ZM45.4384 22.5759H36.8806C36.5698 22.5759 36.3178 22.3239 36.3178 22.0135C36.3178 19.3399 38.4854 17.1723 41.1591 17.1723C43.8328 17.1723 46 19.3399 46 22.0135C46 22.3239 45.7488 22.5759 45.4384 22.5759ZM37.4854 21.4507H44.8332C44.5604 19.6527 43.0083 18.2971 41.1595 18.2971C39.3107 18.2971 37.7586 19.6531 37.4854 21.4507ZM42.7543 11.7856C41.8735 10.9048 40.4455 10.9048 39.5647 11.7856C38.6838 12.666 38.6838 14.0944 39.5647 14.9751C40.4455 15.8555 41.8735 15.8555 42.7543 14.9751C43.6351 14.0944 43.6351 12.666 42.7543 11.7856Z" fill="#F48102"/>
</svg>
