<svg width="149" height="149" viewBox="0 0 149 149" fill="none" xmlns="http://www.w3.org/2000/svg">
<path d="M74.39 148.78C115.474 148.78 148.78 115.474 148.78 74.39C148.78 33.3055 115.474 0 74.39 0C33.3055 0 0 33.3055 0 74.39C0 115.474 33.3055 148.78 74.39 148.78Z" fill="url(#paint0_linear_29_490)"/>
<path fill-rule="evenodd" clip-rule="evenodd" d="M49.2614 87.9011C49.1731 87.9011 49.0833 87.8903 48.9941 87.8653C48.4443 87.7186 48.1179 87.1532 48.2653 86.604L52.1009 72.29C52.2483 71.7389 52.8131 71.4133 53.363 71.5601C53.9128 71.7085 54.2391 72.2721 54.0917 72.8231L50.256 87.1371C50.1327 87.5987 49.7163 87.9011 49.2614 87.9011Z" fill="white"/>
<path fill-rule="evenodd" clip-rule="evenodd" d="M46.1927 87.4664C46.0179 87.4664 45.8408 87.4217 45.6784 87.3286L34.0381 80.6072C33.7193 80.423 33.5229 80.083 33.5229 79.7145C33.5229 79.3477 33.7193 79.0061 34.0381 78.8218L45.6784 72.1021C46.1711 71.8177 46.8016 71.9859 47.0862 72.4797C47.3708 72.9716 47.2017 73.6032 46.7089 73.8877L36.6144 79.7145L46.7089 85.5432C47.2017 85.8276 47.3708 86.4573 47.0862 86.9511C46.8953 87.2821 46.5489 87.4664 46.1927 87.4664Z" fill="white"/>
<path fill-rule="evenodd" clip-rule="evenodd" d="M56.1638 87.4664C55.8078 87.4664 55.4614 87.2821 55.2705 86.9511C54.9859 86.4573 55.1548 85.8276 55.6476 85.5432L65.7423 79.7145L55.6476 73.8876C55.1548 73.6032 54.9859 72.9716 55.2705 72.4797C55.555 71.9859 56.1851 71.8177 56.6782 72.1022L68.3184 78.8218C68.6373 79.006 68.8337 79.3478 68.8337 79.7145C68.8337 80.083 68.6372 80.423 68.3184 80.6072L56.6782 87.3286C56.5159 87.4216 56.3386 87.4664 56.1638 87.4664Z" fill="white"/>
<path fill-rule="evenodd" clip-rule="evenodd" d="M111.048 46.9203H38.8953C38.3262 46.9203 37.8649 46.4588 37.8649 45.8899C37.8649 45.321 38.3262 44.8594 38.8953 44.8594H111.048C111.617 44.8594 112.079 45.321 112.079 45.8899C112.079 46.4587 111.617 46.9204 111.048 46.9203Z" fill="white"/>
<path fill-rule="evenodd" clip-rule="evenodd" d="M51.7564 42.332H47.1624C46.4035 42.332 45.7884 41.7165 45.7884 40.958C45.7884 40.1994 46.4035 39.584 47.1624 39.584L51.7564 39.584C52.5153 39.584 53.1304 40.1994 53.1304 40.958C53.1304 41.7165 52.5153 42.332 51.7564 42.332Z" fill="white"/>
<path fill-rule="evenodd" clip-rule="evenodd" d="M61.0656 42.332H56.4716C55.7127 42.332 55.0974 41.7165 55.0974 40.958C55.0974 40.1994 55.7127 39.584 56.4716 39.584L61.0656 39.584C61.8245 39.584 62.4396 40.1994 62.4396 40.958C62.4396 41.7165 61.8245 42.332 61.0656 42.332Z" fill="white"/>
<path fill-rule="evenodd" clip-rule="evenodd" d="M70.3753 42.332H65.7813C65.0225 42.332 64.4072 41.7165 64.4072 40.958C64.4072 40.1994 65.0225 39.584 65.7812 39.584L70.3753 39.584C71.1341 39.584 71.7494 40.1994 71.7494 40.958C71.7494 41.7165 71.1341 42.332 70.3753 42.332Z" fill="white"/>
<path fill-rule="evenodd" clip-rule="evenodd" d="M38.8955 67.9683C38.3264 67.9683 37.8649 67.5067 37.8649 66.9378L37.865 39.6157C37.865 37.0699 39.9359 35 42.4813 35H107.463C110.008 35 112.079 37.0699 112.079 39.6157V53.6543C112.079 54.2231 111.618 54.6847 111.049 54.6847C110.479 54.6847 110.018 54.2231 110.018 53.6543V39.6157C110.018 38.2077 108.872 37.061 107.463 37.061H42.4813C41.0722 37.061 39.9259 38.2077 39.9259 39.6157L39.9259 66.9378C39.9259 67.5067 39.4646 67.9683 38.8955 67.9683ZM111.048 87.9893C110.479 87.9893 110.018 87.5277 110.018 86.9588V72.4694C110.018 71.9006 110.479 71.439 111.048 71.439C111.618 71.439 112.079 71.9006 112.079 72.4694V86.9588C112.079 87.5277 111.618 87.9893 111.048 87.9893ZM107.463 114.569H42.4812C39.9358 114.569 37.8649 112.497 37.8649 109.951L37.8649 92.4904C37.8649 91.9215 38.3263 91.46 38.8954 91.46C39.4645 91.46 39.9258 91.9215 39.9258 92.4904L39.9259 109.951C39.9259 111.361 41.0722 112.508 42.4812 112.508H107.463C108.872 112.508 110.018 111.361 110.018 109.951V105.774C110.018 105.203 110.479 104.744 111.049 104.744C111.618 104.744 112.079 105.203 112.079 105.774V109.951C112.079 112.497 110.008 114.569 107.463 114.569Z" fill="white"/>
<path fill-rule="evenodd" clip-rule="evenodd" d="M31.0609 91.4595H71.296V67.9659H31.0609V91.4595ZM72.3264 93.5204H30.0305C29.4614 93.5204 29 93.0589 29 92.4899V66.9372C29 66.3665 29.4614 65.9067 30.0305 65.9067H72.3264C72.8955 65.9067 73.3569 66.3665 73.3569 66.9372V92.4899C73.3569 93.0589 72.8955 93.5204 72.3264 93.5204Z" fill="white"/>
<path fill-rule="evenodd" clip-rule="evenodd" d="M87.8573 71.4421H116.938V54.6878H87.8573V71.4421ZM117.969 73.5031H86.8268C86.2577 73.5031 85.7965 73.0415 85.7965 72.4726V53.6575C85.7965 53.0884 86.2577 52.627 86.8268 52.627H117.969C118.538 52.627 118.999 53.0885 118.999 53.6575V72.4726C118.999 73.0415 118.538 73.5031 117.969 73.5031Z" fill="white"/>
<path fill-rule="evenodd" clip-rule="evenodd" d="M87.8585 104.743H116.939V87.9882H87.8585V104.743ZM117.97 106.803H86.8281C86.259 106.803 85.7976 106.342 85.7976 105.773V86.9578C85.7976 86.3888 86.259 85.9273 86.8281 85.9273L117.97 85.9272C118.539 85.9272 119 86.3889 119 86.9578V105.773C119 106.342 118.539 106.803 117.97 106.803Z" fill="white"/>
<path fill-rule="evenodd" clip-rule="evenodd" d="M113.538 60.3773H91.2594C90.6903 60.3773 90.229 59.9159 90.229 59.3469C90.2291 58.778 90.6903 58.3165 91.2594 58.3165L113.538 58.3164C114.107 58.3164 114.568 58.778 114.568 59.3469C114.568 59.9158 114.107 60.3774 113.538 60.3773Z" fill="white"/>
<path fill-rule="evenodd" clip-rule="evenodd" d="M113.538 67.806H91.2594C90.6903 67.806 90.229 67.3445 90.229 66.7756C90.2291 66.2067 90.6903 65.7451 91.2594 65.7451H113.538C114.107 65.7451 114.568 66.2067 114.568 66.7756C114.568 67.3445 114.107 67.806 113.538 67.806Z" fill="white"/>
<path fill-rule="evenodd" clip-rule="evenodd" d="M113.538 93.6757H91.2594C90.6903 93.6757 90.229 93.2142 90.229 92.6452C90.2291 92.0745 90.6903 91.6147 91.2594 91.6147H113.538C114.107 91.6147 114.568 92.0745 114.568 92.6452C114.568 93.2141 114.107 93.6758 113.538 93.6757Z" fill="white"/>
<path fill-rule="evenodd" clip-rule="evenodd" d="M113.538 101.117H91.2594C90.6903 101.117 90.229 100.656 90.229 100.087C90.2291 99.5177 90.6903 99.0562 91.2594 99.0562H113.538C114.107 99.0562 114.568 99.5177 114.568 100.087C114.568 100.656 114.107 101.117 113.538 101.117Z" fill="white"/>
<defs>
<linearGradient id="paint0_linear_29_490" x1="148.78" y1="74.39" x2="0" y2="74.39" gradientUnits="userSpaceOnUse">
<stop stop-color="#3B3B3B"/>
<stop offset="1" stop-color="#191919"/>
</linearGradient>
</defs>
</svg>
