<?xml version="1.0" encoding="UTF-8"?><svg id="Layer_1" xmlns="http://www.w3.org/2000/svg" viewBox="0 0 60 60"><defs><style>.cls-1{fill:#010101;}.cls-1,.cls-2,.cls-3{stroke-width:0px;}.cls-2{fill:#fff2e9;}.cls-3{fill:#f58220;}</style></defs><circle class="cls-2" cx="30" cy="30" r="30"/><path class="cls-1" d="M44.47,40.99l-4.26,1.58,3.56,2.84.71-4.42ZM14.61,40.99l4.26,1.58-3.56,2.84-.71-4.42Z"/><path class="cls-1" d="M33.33,48.78h-.38c.7-.78,1.09-1.79,1.09-2.84,0-2.35-1.91-4.27-4.27-4.27s-4.27,1.91-4.27,4.27c0,1.05.39,2.06,1.09,2.84h-.38c-1.96,0-3.56,1.59-3.56,3.56v3.56h1.42v-3.56c0-1.18.96-2.13,2.13-2.13h7.11c1.18,0,2.13.96,2.13,2.13v3.56h1.42v-3.56c0-1.96-1.6-3.56-3.56-3.56ZM29.77,48.78c-1.57,0-2.84-1.28-2.84-2.84s1.28-2.84,2.84-2.84,2.84,1.28,2.84,2.84-1.28,2.84-2.84,2.84Z"/><path class="cls-3" d="M25.51,52.34h1.42v3.56h-1.42v-3.56ZM32.62,52.34h1.42v3.56h-1.42v-3.56ZM39.03,24.76c0-.19-.07-.37-.21-.5l-3.02-3.02c-.28-.28-.73-.28-1,0,0,0,0,0,0,0l-.84.82c-.43-.22-.88-.4-1.34-.55v-1.17c0-.39-.32-.71-.71-.71h-4.27c-.39,0-.71.32-.71.71l-.02,1.17c-.45.15-.9.33-1.34.56l-.83-.83c-.28-.28-.73-.28-1,0,0,0,0,0,0,0l-3.02,3.02c-.28.28-.28.72,0,1,0,0,0,0,0,0l.82.84c-.22.43-.4.88-.55,1.34h-1.17c-.39,0-.71.32-.71.71v4.27c0,.39.32.71.71.71l1.17.02c.15.45.33.9.56,1.34l-.83.83c-.28.28-.28.72,0,1,0,0,0,0,0,0l3.02,3.02c.28.28.73.28,1,0,0,0,0,0,0,0l.84-.82c.42.22.87.4,1.34.55v1.17c0,.39.32.71.71.71h4.27c.39,0,.71-.32.71-.71l.02-1.17c.46-.15.91-.34,1.34-.56l.83.83c.28.28.73.28,1,0h0s3.02-3.02,3.02-3.02c.28-.28.28-.72,0-1,0,0,0,0,0,0l-.82-.84c.22-.43.4-.88.55-1.34h1.17c.39,0,.71-.32.71-.71v-4.27c0-.39-.32-.71-.71-.71l-1.17-.02c-.15-.46-.34-.91-.56-1.34l.83-.83c.13-.13.21-.31.21-.5h0ZM38.56,28.87h.46v2.84h-.46c-.62,0-1.16.4-1.36,1-.12.38-.28.76-.46,1.12-.29.55-.19,1.22.25,1.67l.32.32-2.01,2.01-.32-.32c-.44-.44-1.12-.54-1.67-.25-.36.18-.73.34-1.12.46-.59.19-1,.73-1,1.36v.46h-2.84v-.46c0-.62-.4-1.16-1-1.36-.38-.12-.76-.28-1.11-.46-.55-.29-1.23-.19-1.67.25l-.32.32-2.01-2.01.32-.32c.44-.44.54-1.12.25-1.67-.18-.36-.34-.73-.46-1.12-.19-.59-.73-1-1.36-1h-.46v-2.84h.46c.62,0,1.16-.4,1.36-1,.12-.38.28-.76.46-1.12.29-.55.19-1.22-.25-1.67l-.32-.32,2.01-2.01.32.32c.44.44,1.12.54,1.67.25.36-.18.73-.34,1.12-.46.59-.19,1-.73,1-1.36v-.46h2.84v.46c0,.62.4,1.16,1,1.36.38.12.76.28,1.11.46.55.29,1.23.19,1.67-.25l.32-.32,2.01,2.01-.32.32c-.44.44-.54,1.12-.25,1.67.18.36.34.73.46,1.12.19.59.74,1,1.36,1h0Z"/><path class="cls-1" d="M29.77,23.9c-3.53,0-6.4,2.87-6.4,6.4s2.87,6.4,6.4,6.4,6.4-2.87,6.4-6.4-2.87-6.4-6.4-6.4ZM29.77,35.27c-2.74,0-4.98-2.23-4.98-4.98s2.23-4.98,4.98-4.98,4.98,2.23,4.98,4.98-2.23,4.98-4.98,4.98ZM45.42,11.81c-3.53,0-6.4,2.87-6.4,6.4s2.87,6.4,6.4,6.4,6.4-2.87,6.4-6.4-2.87-6.4-6.4-6.4ZM45.42,23.18c-1.01,0-1.99-.31-2.82-.88.12-1.1,1.33-1.96,2.82-1.96.78,0,1.52.24,2.07.67.45.36.7.81.75,1.29-.83.57-1.81.88-2.82.88ZM43.99,17.5c0-.78.64-1.42,1.42-1.42s1.42.64,1.42,1.42-.64,1.42-1.42,1.42-1.42-.64-1.42-1.42ZM49.39,21.19c-.24-.5-.59-.94-1.02-1.28-.26-.2-.55-.37-.85-.51.47-.52.74-1.19.74-1.9,0-1.57-1.28-2.84-2.84-2.84s-2.84,1.28-2.84,2.84c0,.73.28,1.39.74,1.89-.85.4-1.51,1.04-1.87,1.8-.65-.86-1-1.91-1-2.98,0-2.74,2.23-4.98,4.98-4.98s4.98,2.23,4.98,4.98c0,1.08-.35,2.12-1,2.98ZM20.53,18.21c0-3.53-2.87-6.4-6.4-6.4s-6.4,2.87-6.4,6.4,2.87,6.4,6.4,6.4,6.4-2.87,6.4-6.4ZM10.16,21.19c-.65-.86-1-1.91-1-2.98,0-2.74,2.23-4.98,4.98-4.98s4.98,2.23,4.98,4.98c0,1.08-.35,2.12-1,2.98-.24-.5-.59-.94-1.02-1.28-.26-.2-.55-.37-.85-.51.47-.52.74-1.19.74-1.9,0-1.57-1.28-2.84-2.84-2.84s-2.84,1.28-2.84,2.84c0,.73.28,1.39.74,1.89-.85.4-1.51,1.04-1.87,1.8ZM15.55,17.5c0,.78-.64,1.42-1.42,1.42s-1.42-.64-1.42-1.42.64-1.42,1.42-1.42,1.42.64,1.42,1.42ZM14.13,20.34c.78,0,1.52.24,2.07.67.45.36.7.81.75,1.29-.83.58-1.81.88-2.82.88-1.01,0-1.99-.31-2.82-.88.12-1.1,1.33-1.96,2.82-1.96Z"/><path class="cls-1" d="M29.91,28.69l-.14.12-.14-.12c-.8-.72-2.01-.72-2.8,0-.4.36-.62.85-.62,1.37s.22,1,.62,1.37l2.46,2.24c.27.25.69.25.96,0l2.46-2.24c.4-.36.62-.84.62-1.37s-.22-1.01-.62-1.37c-.8-.71-2.01-.71-2.8,0ZM31.76,30.37l-1.98,1.8-1.98-1.8c-.09-.08-.15-.19-.15-.31,0-.08.03-.2.15-.31.12-.11.28-.16.44-.16s.33.05.44.16l.62.56c.27.25.69.25.96,0l.62-.56h0c.24-.22.65-.22.89,0,.12.11.15.23.15.31,0,.12-.06.24-.15.31h0ZM24.31,47.18c-2.15-.73-4.13-1.88-5.83-3.38l1.07-.86c.31-.25.35-.69.11-1-.08-.1-.19-.18-.31-.22l-4.26-1.58c-.37-.14-.78.05-.91.42-.04.12-.06.24-.04.36l.71,4.42c.05.35.35.6.7.6.16,0,.32-.05.44-.16l1.36-1.09c1.88,1.71,4.09,3.01,6.5,3.83,0,0,.45-1.35.45-1.35ZM16.06,43.91l-.32-2.01,1.94.72-1.62,1.3ZM46.16,26.21c.45,1.55.68,3.16.68,4.79,0,2.64-.58,5.16-1.74,7.51l1.28.63c1.25-2.53,1.89-5.31,1.88-8.13,0-1.77-.25-3.51-.74-5.19l-1.36.4h0ZM21.58,16.03c2.51-1.37,5.33-2.09,8.19-2.09,2.83,0,5.64.71,8.11,2.05l.68-1.25c-2.7-1.46-5.72-2.22-8.79-2.22-3.1,0-6.17.78-8.87,2.26,0,0,.68,1.25.68,1.25ZM12.71,31.01c0-1.63.23-3.24.68-4.8l-1.37-.4c-.49,1.69-.74,3.44-.74,5.19,0,2.86.63,5.59,1.88,8.13l1.28-.63c-1.15-2.33-1.74-4.9-1.74-7.51h0ZM44.46,40.14l-4.26,1.58c-.37.14-.56.55-.42.92.04.12.12.23.22.31l1.07.86c-1.7,1.5-3.68,2.65-5.83,3.38l.46,1.35c2.41-.82,4.62-2.12,6.5-3.83l1.36,1.09c.31.25.75.2,1-.11.08-.1.13-.21.15-.33l.71-4.42c.06-.39-.2-.75-.59-.81-.12-.02-.24,0-.36.03h0ZM43.48,43.91l-1.62-1.3,1.94-.72-.32,2.01Z"/></svg>