<svg width="80" height="80" viewBox="0 0 80 80" fill="none" xmlns="http://www.w3.org/2000/svg">
<g clip-path="url(#clip0_3_497)">
<path d="M40 80C62.0914 80 80 62.0914 80 40C80 17.9086 62.0914 0 40 0C17.9086 0 0 17.9086 0 40C0 62.0914 17.9086 80 40 80Z" fill="#FFF2E8"/>
<path d="M71.9338 25.1798L71.8362 24.3548L71.0449 24.1196C60.6347 21.0277 56.7043 16.9949 56.6702 16.9586L55.7642 16L54.8558 16.9543C54.826 16.9853 52.5143 19.3454 46.7913 21.8362C43.4045 20.0417 39.6069 19.0852 35.7557 19.0852C22.6569 19.0852 12 29.8325 12 43.0426C12 56.2527 22.6569 67 35.7557 67C46.5312 67 55.8614 59.7602 58.6651 49.3339C73.6409 41.2921 71.9536 25.3479 71.9338 25.1798ZM28.7537 22.8269C27.2996 24.541 26.0487 26.7712 25.0798 29.4072C23.8987 28.7122 22.7812 27.8994 21.7373 26.9717C23.7713 25.165 26.1449 23.7488 28.7537 22.8269ZM19.9618 28.7481C21.3029 29.957 22.7489 31.0081 24.2932 31.8691C23.4656 34.8411 22.9721 38.1964 22.8758 41.7818H14.564C14.8543 36.7847 16.8409 32.2514 19.9618 28.7481ZM14.564 44.3035H22.8758C22.9716 47.8699 23.4613 51.2079 24.281 54.1682C22.7309 55.0337 21.2796 56.0905 19.9344 57.3067C16.829 53.8077 14.8535 49.2861 14.564 44.3035ZM21.707 59.0859C22.7544 58.1517 23.876 57.3331 25.062 56.6335C26.0332 59.2894 27.291 61.5345 28.7537 63.2584C26.1317 62.3318 23.7478 60.9054 21.707 59.0859ZM34.5054 64.2993C31.5941 63.5431 29.0169 60.2008 27.3421 55.4581C29.5914 54.4796 32.0074 53.9122 34.5054 53.7664V64.2993ZM34.5054 51.2446C31.7507 51.3883 29.0788 51.98 26.5894 53.0296C25.8921 50.3831 25.4683 47.4192 25.3752 44.3036H34.5054V51.2446ZM34.5054 41.7817H25.3752C25.4689 38.647 25.8965 35.6646 26.6013 33.0059C29.0872 34.0525 31.7552 34.6417 34.5054 34.7853V41.7817ZM34.5054 32.2635C32.0138 32.1181 29.6037 31.5538 27.3594 30.5801C29.0346 25.8626 31.6037 22.5396 34.5054 21.7861V32.2635ZM43.5643 23.1064C43.4139 23.1601 43.2592 23.2135 43.1055 23.2668C42.9835 23.1111 42.8635 22.9494 42.7391 22.8022C43.0156 22.8992 43.2918 22.9981 43.5643 23.1064ZM37.006 21.7865C38.4084 22.1515 39.602 23.0693 40.5418 24.099C40.5191 24.1058 40.4989 24.1128 40.4761 24.1196L39.6849 24.3548L39.5872 25.1798C39.5789 25.2498 39.2837 28.0583 40.0169 31.8884C39.0265 32.0915 38.0208 32.2254 37.006 32.2849V21.7865ZM37.006 34.8066C38.2192 34.7428 39.4216 34.5858 40.6045 34.3386C41.2896 36.7066 42.3979 39.289 44.1612 41.7817H37.006V34.8066ZM37.006 44.3035H46.1398C46.0486 47.4366 45.6217 50.3928 44.9327 53.0335C42.4407 51.9812 39.7652 51.3885 37.0061 51.2446L37.006 44.3035ZM37.006 64.302V53.7664C39.5155 53.9127 41.9418 54.485 44.1993 55.4712C42.5282 60.2361 39.9386 63.5545 37.006 64.302ZM42.6585 63.3219C44.1475 61.5857 45.4286 59.3066 46.4205 56.6154C47.6276 57.3248 48.7677 58.1582 49.8312 59.1104C47.7503 60.9629 45.3209 62.405 42.6585 63.3219ZM51.6082 57.3358C50.2472 56.1006 48.7778 55.0276 47.2061 54.1526C47.8653 51.7982 48.3261 49.2171 48.5343 46.4675C50.3821 47.9818 52.599 49.3622 55.2709 50.5077L55.6157 50.6552C54.679 53.1543 53.3153 55.4095 51.6082 57.3358ZM55.7605 47.9717C42.2954 41.9116 41.8705 29.5906 42.0121 26.2868C49.8619 23.8438 54.0621 20.9187 55.7605 19.5149C57.4577 20.9181 61.6567 23.8419 69.5004 26.2837C69.6066 29.5567 69.0865 41.9676 55.7605 47.9717Z" fill="#F48120"/>
</g>
<defs>
<clipPath id="clip0_3_497">
<rect width="80" height="80" fill="white"/>
</clipPath>
</defs>
</svg>
