<svg xmlns="http://www.w3.org/2000/svg" width="370" height="185" viewBox="0 0 370 185">
  <g id="Group_8409" data-name="Group 8409" transform="translate(-375 -3676)">
    <g id="Group_8410" data-name="Group 8410" transform="translate(-800 -599)">
      <rect id="Rectangle_3622" data-name="Rectangle 3622" width="370" height="185" transform="translate(1175 4275)" fill="#232323"/>
      <g id="undraw_investment_data_re_sh9x" transform="translate(1248 4205.763)">
        <rect id="Rectangle_3689" data-name="Rectangle 3689" width="1.719" height="1.432" transform="translate(31.294 173.722)" fill="#f0f0f0"/>
        <path id="Path_9924" data-name="Path 9924" d="M372.517,540.99H369.13v-1.432h3.387Zm-6.774,0h-3.387v-1.432h3.387Zm-6.774,0h-3.387v-1.432h3.387Zm-6.774,0h-3.387v-1.432h3.387Zm-6.774,0h-3.387v-1.432h3.387Zm-6.774,0h-3.387v-1.432h3.387Zm-6.774,0h-3.387v-1.432h3.387Zm-6.774,0h-3.387v-1.432H325.1Zm-6.774,0h-3.387v-1.432h3.387Zm-6.774,0h-3.387v-1.432h3.387Zm-6.774,0h-3.387v-1.432h3.387Zm-6.774,0h-3.387v-1.432H298Zm-6.774,0h-3.387v-1.432h3.387Zm-6.774,0h-3.387v-1.432h3.387Zm-6.774,0h-3.387v-1.432h3.387Zm-6.774,0h-3.387v-1.432H270.9Zm-6.774,0h-3.387v-1.432h3.387Zm-6.774,0h-3.387v-1.432h3.387Zm-6.774,0h-3.387v-1.432h3.387Zm-6.774,0H240.42v-1.432h3.387Zm-6.774,0h-3.387v-1.432h3.387Zm-6.774,0h-3.387v-1.432h3.387Zm-6.774,0H220.1v-1.432h3.387Zm-6.774,0h-3.387v-1.432h3.387Z" transform="translate(-176.923 -365.836)" fill="#f0f0f0"/>
        <rect id="Rectangle_3690" data-name="Rectangle 3690" width="1.719" height="1.432" transform="translate(31.294 137.34)" fill="#f0f0f0"/>
        <path id="Path_9925" data-name="Path 9925" d="M372.517,413.99H369.13v-1.432h3.387Zm-6.774,0h-3.387v-1.432h3.387Zm-6.774,0h-3.387v-1.432h3.387Zm-6.774,0h-3.387v-1.432h3.387Zm-6.774,0h-3.387v-1.432h3.387Zm-6.774,0h-3.387v-1.432h3.387Zm-6.774,0h-3.387v-1.432h3.387Zm-6.774,0h-3.387v-1.432H325.1Zm-6.774,0h-3.387v-1.432h3.387Zm-6.774,0h-3.387v-1.432h3.387Zm-6.774,0h-3.387v-1.432h3.387Zm-6.774,0h-3.387v-1.432H298Zm-6.774,0h-3.387v-1.432h3.387Zm-6.774,0h-3.387v-1.432h3.387Zm-6.774,0h-3.387v-1.432h3.387Zm-6.774,0h-3.387v-1.432H270.9Zm-6.774,0h-3.387v-1.432h3.387Zm-6.774,0h-3.387v-1.432h3.387Zm-6.774,0h-3.387v-1.432h3.387Zm-6.774,0H240.42v-1.432h3.387Zm-6.774,0h-3.387v-1.432h3.387Zm-6.774,0h-3.387v-1.432h3.387Zm-6.774,0H220.1v-1.432h3.387Zm-6.774,0h-3.387v-1.432h3.387Z" transform="translate(-176.923 -275.218)" fill="#f0f0f0"/>
        <rect id="Rectangle_3691" data-name="Rectangle 3691" width="1.719" height="1.432" transform="translate(31.294 100.958)" fill="#f0f0f0"/>
        <path id="Path_9926" data-name="Path 9926" d="M372.517,286.99H369.13v-1.432h3.387Zm-6.774,0h-3.387v-1.432h3.387Zm-6.774,0h-3.387v-1.432h3.387Zm-6.774,0h-3.387v-1.432h3.387Zm-6.774,0h-3.387v-1.432h3.387Zm-6.774,0h-3.387v-1.432h3.387Zm-6.774,0h-3.387v-1.432h3.387Zm-6.774,0h-3.387v-1.432H325.1Zm-6.774,0h-3.387v-1.432h3.387Zm-6.774,0h-3.387v-1.432h3.387Zm-6.774,0h-3.387v-1.432h3.387Zm-6.774,0h-3.387v-1.432H298Zm-6.774,0h-3.387v-1.432h3.387Zm-6.774,0h-3.387v-1.432h3.387Zm-6.774,0h-3.387v-1.432h3.387Zm-6.774,0h-3.387v-1.432H270.9Zm-6.774,0h-3.387v-1.432h3.387Zm-6.774,0h-3.387v-1.432h3.387Zm-6.774,0h-3.387v-1.432h3.387Zm-6.774,0H240.42v-1.432h3.387Zm-6.774,0h-3.387v-1.432h3.387Zm-6.774,0h-3.387v-1.432h3.387Zm-6.774,0H220.1v-1.432h3.387Zm-6.774,0h-3.387v-1.432h3.387Z" transform="translate(-176.923 -184.6)" fill="#f0f0f0"/>
        <rect id="Rectangle_3692" data-name="Rectangle 3692" width="14.037" height="51.565" transform="translate(73.262 174.152)" fill="#505050"/>
        <rect id="Rectangle_3693" data-name="Rectangle 3693" width="14.037" height="51.565" transform="translate(75.841 174.152)" fill="#f48120"/>
        <rect id="Rectangle_3694" data-name="Rectangle 3694" width="14.037" height="87.947" transform="translate(106.493 137.77)" fill="#505050"/>
        <rect id="Rectangle_3695" data-name="Rectangle 3695" width="14.037" height="87.947" transform="translate(109.071 137.77)" fill="#f48120"/>
        <rect id="Rectangle_3696" data-name="Rectangle 3696" width="14.037" height="124.328" transform="translate(139.724 101.388)" fill="#505050"/>
        <rect id="Rectangle_3697" data-name="Rectangle 3697" width="14.037" height="124.328" transform="translate(142.302 101.388)" fill="#f48120"/>
        <circle id="Ellipse_254" data-name="Ellipse 254" cx="3.438" cy="3.438" r="3.438" transform="translate(28 98.237)" fill="#f0f0f0"/>
        <circle id="Ellipse_255" data-name="Ellipse 255" cx="3.438" cy="3.438" r="3.438" transform="translate(28 134.619)" fill="#f0f0f0"/>
        <circle id="Ellipse_256" data-name="Ellipse 256" cx="3.438" cy="3.438" r="3.438" transform="translate(28 171.001)" fill="#f0f0f0"/>
      </g>
    </g>
  </g>
</svg>
