<svg width="149" height="149" viewBox="0 0 149 149" fill="none" xmlns="http://www.w3.org/2000/svg">
<path d="M74.39 148.78C115.474 148.78 148.78 115.474 148.78 74.39C148.78 33.3055 115.474 0 74.39 0C33.3055 0 0 33.3055 0 74.39C0 115.474 33.3055 148.78 74.39 148.78Z" fill="url(#paint0_linear_36_943)"/>
<path fill-rule="evenodd" clip-rule="evenodd" d="M58.32 81.4135C55.5989 80.4449 51.8245 79.8434 47.6353 79.8434C43.4459 79.8434 39.6677 80.4449 36.9506 81.4135C34.5506 82.2689 33.0667 83.3236 33.0667 84.3781C33.0667 85.4326 34.5506 86.4873 36.9506 87.3427C39.6717 88.3113 43.4461 88.9128 47.6353 88.9128C51.8247 88.9128 55.6029 88.3113 58.32 87.3427C60.72 86.4873 62.2039 85.4326 62.2039 84.3781C62.2039 83.3236 60.72 82.2689 58.32 81.4135ZM64.2712 84.3469V84.3782V112.403C64.2712 114.422 62.2627 116.149 59.0169 117.309C56.0882 118.352 52.0633 119 47.6356 119C43.2079 119 39.1825 118.356 36.2543 117.309C33.0085 116.153 31 114.422 31 112.403V84.3782V84.3469C31.0196 82.3393 33.0242 80.6245 36.2543 79.4723C39.183 78.4294 43.2079 77.781 47.6356 77.781C52.0633 77.781 56.0887 78.4255 59.0169 79.4723C62.247 80.6245 64.2517 82.3393 64.2712 84.3469ZM37.3851 92.1549C37.0093 92.0299 36.653 91.901 36.3241 91.7682C35.9717 91.6237 35.6624 91.487 35.3962 91.3581C34.8872 91.1042 34.2725 91.3112 34.0141 91.819C33.7596 92.3267 33.9671 92.94 34.4761 93.1978C34.8363 93.3774 35.1965 93.5376 35.5489 93.6821C35.9286 93.8344 36.328 93.9829 36.7352 94.1157C37.2755 94.2953 37.8589 93.9985 38.039 93.4595C38.2191 92.9204 37.9215 92.3385 37.3812 92.1588L37.3851 92.1549ZM33.0666 93.7134V87.6826C33.9123 88.292 34.989 88.831 36.2575 89.2802C39.1862 90.3231 43.2111 90.9715 47.6388 90.9715C52.0665 90.9715 56.0919 90.327 59.0201 89.2802C60.2886 88.8271 61.3653 88.2881 62.211 87.6826V93.7134C62.211 94.768 60.7271 95.8226 58.3271 96.6779C55.606 97.6466 51.8316 98.2481 47.6424 98.2481C43.453 98.2481 39.6748 97.6466 36.9578 96.6779C34.5577 95.8225 33.0738 94.7679 33.0738 93.7134H33.0666ZM37.3851 101.498C37.0093 101.373 36.6569 101.244 36.328 101.111C36.003 100.978 35.6937 100.842 35.4001 100.697C34.8911 100.443 34.2686 100.65 34.0141 101.162C33.7596 101.67 33.9671 102.291 34.48 102.545C34.8128 102.709 35.1691 102.869 35.5528 103.025C35.9326 103.177 36.328 103.322 36.7391 103.459C37.2794 103.638 37.8628 103.342 38.0429 102.803C38.223 102.263 37.9255 101.681 37.3852 101.502L37.3851 101.498ZM33.0666 103.056C33.0666 104.111 34.5505 105.166 36.9505 106.021C39.6716 106.99 43.446 107.591 47.6352 107.591C51.8246 107.591 55.6028 106.99 58.3199 106.021C60.7199 105.166 62.2038 104.111 62.2038 103.056V97.0178C61.3581 97.6271 60.2814 98.1661 59.0129 98.6154C56.0842 99.6583 52.0593 100.307 47.6316 100.307C43.2034 100.307 39.1785 99.6622 36.2503 98.6154C34.9818 98.1623 33.9051 97.6233 33.0594 97.0178V103.056H33.0666ZM62.2078 106.361C61.3621 106.97 60.2854 107.509 59.0169 107.958C56.0882 109.001 52.0633 109.65 47.6356 109.65C43.2079 109.65 39.1825 109.005 36.2543 107.958C34.9858 107.505 33.9091 106.966 33.0634 106.361V112.399C33.0634 113.454 34.5473 114.509 36.9473 115.364C39.6684 116.333 43.4428 116.934 47.632 116.934C51.8214 116.934 55.5996 116.333 58.3167 115.364C60.7167 114.509 62.2006 113.454 62.2006 112.399V106.361H62.2078ZM37.3845 110.841C37.0087 110.716 36.6524 110.587 36.3235 110.454C35.9711 110.31 35.6618 110.173 35.3956 110.044C34.8866 109.79 34.2719 109.997 34.0135 110.505C33.759 111.013 33.9665 111.626 34.4755 111.884C34.8357 112.064 35.1959 112.224 35.5483 112.368C35.928 112.521 36.3235 112.669 36.7346 112.802C37.2749 112.981 37.8583 112.685 38.0384 112.146C38.2185 111.607 37.9209 111.025 37.3806 110.845L37.3845 110.841ZM111.865 81.4093C109.144 80.4407 105.37 79.8392 101.181 79.8392C96.9914 79.8392 93.2132 80.4407 90.4962 81.4093C88.0961 82.2647 86.6122 83.3194 86.6122 84.3739C86.6122 85.4285 88.0961 86.4831 90.4962 87.3385C93.2172 88.3071 96.9916 88.9086 101.181 88.9086C105.37 88.9086 109.148 88.3071 111.865 87.3385C114.266 86.4831 115.749 85.4284 115.749 84.3739C115.749 83.3193 114.266 82.2647 111.865 81.4093ZM117.817 84.3427V84.374V112.399C117.817 114.418 115.808 116.145 112.562 117.305C109.634 118.347 105.609 118.996 101.181 118.996C96.7529 118.996 92.728 118.351 89.7998 117.305C86.554 116.148 84.5455 114.418 84.5455 112.399V84.374V84.3427C84.5651 82.3351 86.5697 80.6203 89.7998 79.4681C92.7285 78.4252 96.7534 77.7768 101.181 77.7768C105.609 77.7768 109.634 78.4213 112.562 79.4681C115.793 80.6203 117.797 82.3351 117.817 84.3427ZM90.9307 92.1507C90.5548 92.0257 90.1985 91.8968 89.8696 91.764C89.5172 91.6195 89.2079 91.4828 88.9417 91.3539C88.4327 91.1 87.818 91.307 87.5596 91.8148C87.3051 92.3225 87.5126 92.9358 88.0216 93.1936C88.3818 93.3732 88.742 93.5334 89.0944 93.6779C89.4742 93.8302 89.8735 93.9787 90.2807 94.1115C90.821 94.2911 91.4044 93.9943 91.5845 93.4553C91.7646 92.9162 91.4671 92.3343 90.9268 92.1546L90.9307 92.1507ZM86.6121 93.7092V87.6784C87.4578 88.2878 88.5345 88.8268 89.8031 89.276C92.7317 90.3189 96.7566 90.9673 101.184 90.9673C105.612 90.9673 109.637 90.3228 112.566 89.276C113.834 88.8229 114.911 88.2839 115.757 87.6784V93.7092C115.757 94.7638 114.273 95.8184 111.873 96.6737C109.152 97.6424 105.377 98.2439 101.188 98.2439C96.9986 98.2439 93.2203 97.6424 90.5033 96.6737C88.1032 95.8183 86.6193 94.7637 86.6193 93.7092H86.6121ZM90.9307 101.494C90.5548 101.369 90.2024 101.24 89.8735 101.107C89.5485 100.974 89.2392 100.838 88.9456 100.693C88.4366 100.439 87.8141 100.646 87.5596 101.158C87.3051 101.666 87.5126 102.287 88.0255 102.541C88.3583 102.705 88.7146 102.865 89.0983 103.021C89.4781 103.173 89.8735 103.318 90.2846 103.455C90.8249 103.634 91.4083 103.337 91.5884 102.798C91.7685 102.259 91.471 101.677 90.9307 101.498L90.9307 101.494ZM86.6121 103.052C86.6121 104.107 88.096 105.161 90.4961 106.017C93.2171 106.985 96.9915 107.587 101.181 107.587C105.37 107.587 109.148 106.985 111.865 106.017C114.265 105.161 115.749 104.107 115.749 103.052V97.0136C114.904 97.6229 113.827 98.1619 112.558 98.6112C109.63 99.6541 105.605 100.302 101.177 100.302C96.7489 100.302 92.724 99.658 89.7958 98.6112C88.5273 98.1581 87.4506 97.6191 86.6049 97.0136V103.052H86.6121ZM115.753 106.357C114.908 106.966 113.831 107.505 112.562 107.954C109.634 108.997 105.609 109.645 101.181 109.645C96.7529 109.645 92.728 109.001 89.7998 107.954C88.5313 107.501 87.4546 106.962 86.6089 106.357V112.395C86.6089 113.45 88.0928 114.505 90.4928 115.36C93.2139 116.329 96.9883 116.93 101.178 116.93C105.367 116.93 109.145 116.329 111.862 115.36C114.262 114.504 115.746 113.45 115.746 112.395V106.357H115.753ZM90.9301 110.837C90.5542 110.712 90.1979 110.583 89.869 110.45C89.5166 110.306 89.2073 110.169 88.9411 110.04C88.4321 109.786 87.8174 109.993 87.559 110.501C87.3045 111.009 87.512 111.622 88.021 111.88C88.3812 112.059 88.7414 112.219 89.0938 112.364C89.4736 112.516 89.869 112.665 90.2801 112.798C90.8204 112.977 91.4038 112.68 91.5839 112.141C91.764 111.602 91.4665 111.02 90.9262 110.841L90.9301 110.837ZM64.7837 73.1328V64.3093C64.7837 63.739 65.2457 63.2782 65.8173 63.2782H67.7083L61.7336 56.0679L55.759 63.2782H57.65C58.2217 63.2782 58.6836 63.7391 58.6836 64.3093V73.1328H64.7875H64.7837ZM90.1432 64.3093V55.4858H84.0393V64.3093C84.0393 64.8796 83.5773 65.3404 83.0058 65.3404H81.1147L83.3777 68.0707C83.4012 68.0941 83.4247 68.1215 83.4443 68.1488L87.0933 72.5508L90.7423 68.1488C90.7619 68.1215 90.7854 68.0941 90.8089 68.0707L93.0719 65.3404H91.1808C90.6092 65.3404 90.1473 64.8795 90.1473 64.3093H90.1432ZM92.0499 69.7933L87.8841 74.8202C87.52 75.2576 86.8701 75.3201 86.4316 74.9569C86.3767 74.91 86.3258 74.8592 86.2828 74.8046L82.1287 69.7933H66.8474V74.164C66.8474 74.7343 66.3854 75.1951 65.8138 75.1951H57.6466C57.0749 75.1951 56.613 74.7342 56.613 74.164V69.7933H52.3766C48.9743 69.7933 45.885 68.4067 43.6416 66.1724C41.4021 63.9382 40.0122 60.8526 40.0122 57.4622C40.0122 53.9039 41.4216 50.8573 43.7004 48.6777C45.8068 46.6623 48.6571 45.3968 51.8129 45.1663C51.8403 40.7136 53.661 36.6865 56.5895 33.7652C59.5416 30.8202 63.6175 29 68.1202 29C71.3738 29 74.4042 29.953 76.9491 31.5936C79.3257 33.1247 81.2755 35.2535 82.5872 37.765C82.8182 37.7064 83.0492 37.6595 83.2802 37.6166C83.8126 37.5228 84.3608 37.476 84.9089 37.476C87.3677 37.476 89.6151 38.4095 91.3065 39.9406C92.7865 41.2843 93.8435 43.0848 94.2469 45.1238H96.4473C99.8496 45.1238 102.939 46.5103 105.182 48.7446C107.422 50.9788 108.812 54.0644 108.812 57.4587C108.812 60.8529 107.422 63.9348 105.182 66.1689C102.943 68.4031 99.8496 69.7897 96.4473 69.7897H92.0543L92.0499 69.7933Z" fill="#FCFCFC"/>
<defs>
<linearGradient id="paint0_linear_36_943" x1="148.78" y1="74.39" x2="0" y2="74.39" gradientUnits="userSpaceOnUse">
<stop stop-color="#3B3B3B"/>
<stop offset="1" stop-color="#191919"/>
</linearGradient>
</defs>
</svg>
