<svg xmlns="http://www.w3.org/2000/svg" xmlns:xlink="http://www.w3.org/1999/xlink" width="40" height="40" viewBox="0 0 40 40">
  <defs>
    <clipPath id="clip-path">
      <rect id="Rectangle_3618" data-name="Rectangle 3618" width="40" height="40" transform="translate(379 3253)" fill="none" stroke="#707070" stroke-width="1"/>
    </clipPath>
  </defs>
  <g id="Mask_Group_8050" data-name="Mask Group 8050" transform="translate(-379 -3253)" clip-path="url(#clip-path)">
    <g id="Layer_2" data-name="Layer 2" transform="translate(381 3255.336)">
      <g id="invisible_box" data-name="invisible box">
        <rect id="Rectangle_3703" data-name="Rectangle 3703" width="36" height="36" transform="translate(0 -0.336)" fill="none"/>
      </g>
      <g id="icons_Q2" data-name="icons Q2" transform="translate(4.458 1.486)">
        <path id="Path_9979" data-name="Path 9979" d="M31.262,22.8a1.486,1.486,0,0,0-1.486,1.486v.743H17.888a1.486,1.486,0,0,1,0-2.972H20.86a8.916,8.916,0,1,0,0-17.832H8.972V3.486A1.486,1.486,0,0,0,6,3.486V12.4a1.486,1.486,0,1,0,2.972,0v-.743H20.86a1.486,1.486,0,0,1,0,2.972H17.888a8.916,8.916,0,1,0,0,17.832H29.776v.743a1.486,1.486,0,1,0,2.972,0V24.29A1.486,1.486,0,0,0,31.262,22.8Z" transform="translate(-6 -2)"/>
      </g>
    </g>
  </g>
</svg>
