<svg id="Group_8347" data-name="Group 8347" xmlns="http://www.w3.org/2000/svg" xmlns:xlink="http://www.w3.org/1999/xlink" width="45" height="45" viewBox="0 0 45 45">
  <defs>
    <linearGradient id="linear-gradient" x1="0.5" x2="0.156" y2="0.791" gradientUnits="objectBoundingBox">
      <stop offset="0" stop-color="#3e3e3e"/>
      <stop offset="1" stop-color="#1a1a1a"/>
    </linearGradient>
  </defs>
  <circle id="Ellipse_1" data-name="Ellipse 1" cx="22.5" cy="22.5" r="22.5" fill="url(#linear-gradient)"/>
  <g id="analytics-business-data-svgrepo-com" transform="translate(-142.759 -142.232)">
    <path id="Path_1" data-name="Path 1" d="M157.568,678.435h-3.487a1.322,1.322,0,0,0-1.322,1.322v3.487a1.322,1.322,0,0,0,1.322,1.322h3.487a1.322,1.322,0,0,0,1.322-1.322v-3.487A1.322,1.322,0,0,0,157.568,678.435Zm-2.556,3.518h-.275a.453.453,0,1,1,0-.905h.275a.453.453,0,0,1,0,.905Zm1.9,0h-.275a.453.453,0,1,1,0-.905h.275a.453.453,0,1,1,0,.905Z" transform="translate(0 -507.151)" fill="#fff"/>
    <path id="Path_2" data-name="Path 2" d="M420.142,678.435h-3.487a1.322,1.322,0,0,0-1.322,1.322v3.487a1.322,1.322,0,0,0,1.322,1.322h3.487a1.322,1.322,0,0,0,1.322-1.322v-3.487A1.322,1.322,0,0,0,420.142,678.435Zm-2.556,3.518h-.275a.453.453,0,0,1,0-.905h.275a.453.453,0,0,1,0,.905Zm1.9,0h-.275a.453.453,0,0,1,0-.905h.275a.453.453,0,0,1,0,.905Z" transform="translate(-253.067 -507.151)" fill="#fff"/>
    <path id="Path_3" data-name="Path 3" d="M682.717,678.435H679.23a1.322,1.322,0,0,0-1.322,1.322v3.487a1.322,1.322,0,0,0,1.322,1.322h3.487a1.322,1.322,0,0,0,1.322-1.322v-3.487A1.322,1.322,0,0,0,682.717,678.435Zm-2.556,3.518h-.275a.453.453,0,0,1,0-.905h.275a.453.453,0,0,1,0,.905Zm1.9,0h-.275a.453.453,0,0,1,0-.905h.275a.453.453,0,0,1,0,.905Z" transform="translate(-506.135 -507.151)" fill="#fff"/>
    <path id="Path_4" data-name="Path 4" d="M451.328,225.852a1.828,1.828,0,1,0,1.828,1.828A1.83,1.83,0,0,0,451.328,225.852Zm0,2.444a.616.616,0,1,1,.616-.616A.615.615,0,0,1,451.328,228.3Z" transform="translate(-285.997 -70.954)" fill="#fff"/>
    <path id="Path_5" data-name="Path 5" d="M216.816,166.517a.635.635,0,0,1,.634.634v3.229h.905V167.15a1.54,1.54,0,0,0-1.539-1.539h-1.521a.634.634,0,0,1-.634-.634v-5.819a5.706,5.706,0,0,0,1.551-1.98H218.9a.453.453,0,0,0,0-.905h-2.684c-1.026-2.253-3.912-3.908-7.365-4.041v.527a.453.453,0,1,1-.905,0v-.527c-3.453.134-6.339,1.788-7.365,4.041h-2.684a.453.453,0,0,0,0,.905h2.684a5.705,5.705,0,0,0,1.551,1.98v5.819a.634.634,0,0,1-.634.634h-1.521a1.541,1.541,0,0,0-1.539,1.539v3.229h.905V167.15a.635.635,0,0,1,.634-.634h1.521a1.541,1.541,0,0,0,1.539-1.539v-5.169a9.577,9.577,0,0,0,3.08,1.191v9.445a2.208,2.208,0,0,1,.537-.066h.368v-9.232q.454.055.923.073v-.527a.453.453,0,1,1,.905,0v.527q.469-.018.923-.073v9.232h.368a2.208,2.208,0,0,1,.537.066V161a9.58,9.58,0,0,0,3.08-1.191v5.169a1.541,1.541,0,0,0,1.539,1.539Zm-13.021-9.175a.616.616,0,1,1,.615-.616A.612.612,0,0,1,203.794,157.341Zm4.6,2.118a2.734,2.734,0,1,1,2.734-2.734A2.737,2.737,0,0,1,208.395,159.46Zm4.6-2.118a.616.616,0,1,1,.419-.164A.616.616,0,0,1,213,157.341Z" transform="translate(-43.063)" fill="#fff"/>
  </g>
</svg>
