<svg xmlns="http://www.w3.org/2000/svg" xmlns:xlink="http://www.w3.org/1999/xlink" width="35" height="35" viewBox="0 0 35 35">
  <defs>
    <clipPath id="clip-path">
      <rect id="Rectangle_3866" data-name="Rectangle 3866" width="35" height="35" transform="translate(401 4812)" fill="none" stroke="#707070" stroke-width="1"/>
    </clipPath>
    <clipPath id="clip-path-2">
      <rect id="Rectangle_3870" data-name="Rectangle 3870" width="34" height="31.284" fill="none"/>
    </clipPath>
  </defs>
  <g id="Mask_Group_8018" data-name="Mask Group 8018" transform="translate(-401 -4812)" clip-path="url(#clip-path)">
    <g id="Group_8627" data-name="Group 8627" transform="translate(401 4814.1)">
      <g id="Group_8627-2" data-name="Group 8627" clip-path="url(#clip-path-2)">
        <path id="Path_9328" data-name="Path 9328" d="M147.007,103.22l8.625,14.939a35.2,35.2,0,0,0-5.535,1.156,37.964,37.964,0,0,0-5.237,2.024l-5.989-10.373a37.348,37.348,0,0,0,4.385-3.536,33.65,33.65,0,0,0,3.75-4.21" transform="translate(-132.075 -98.168)" fill="#191919"/>
        <path id="Path_9329" data-name="Path 9329" d="M5.419,279.3l5.916,10.245c-.081.058-.148.116-.223.159-.965.559-1.927,1.123-2.9,1.672a4.492,4.492,0,0,1-6.195-1.665Q1.3,288.487.607,287.256a4.481,4.481,0,0,1,1.645-6.145c.962-.565,1.931-1.116,2.9-1.673.077-.045.158-.084.269-.143" transform="translate(0 -265.626)" fill="#191919"/>
        <path id="Path_9330" data-name="Path 9330" d="M331.572,34.16a3.08,3.08,0,0,1,2.688-.5,2.851,2.851,0,0,1,1.695,1.28,2.9,2.9,0,0,1,.293,2.486,3.134,3.134,0,0,1-1.716,1.869c.084.149.148.267.216.384q1.4,2.436,2.812,4.87a1.694,1.694,0,0,1,.2,1.423,1.589,1.589,0,0,1-1.365,1.161,1.608,1.608,0,0,1-1.571-.663,2.5,2.5,0,0,1-.184-.291q-4.451-7.708-8.9-15.416a1.865,1.865,0,0,1-.3-1.245,1.664,1.664,0,0,1,3-.755,3.9,3.9,0,0,1,.218.352q1.346,2.33,2.692,4.661c.069.119.141.235.235.39" transform="translate(-309.484 -26.693)" fill="#f48120"/>
        <path id="Path_9331" data-name="Path 9331" d="M197.314,507.591l3.582-2.061a1.159,1.159,0,0,1,.142.1q1.611,1.608,3.219,3.219a1.039,1.039,0,0,1,.2,1.322,1.125,1.125,0,0,1-.167.218c-.453.457-.9.918-1.367,1.364a1.022,1.022,0,0,1-1.487,0c-1.348-1.334-2.685-2.68-4.026-4.022a1.267,1.267,0,0,1-.1-.139" transform="translate(-187.657 -480.788)" fill="#191919"/>
        <path id="Path_9332" data-name="Path 9332" d="M506.972,0a.815.815,0,0,1,.828.959c-.207,1.048-.43,2.093-.664,3.135a.836.836,0,0,1-1.638-.331q.314-1.536.657-3.066a.807.807,0,0,1,.817-.7" transform="translate(-480.741 0)" fill="#f48120"/>
        <path id="Path_9333" data-name="Path 9333" d="M603.692,226.851a.837.837,0,0,1-1.137.787c-.331-.1-.656-.213-.984-.319-.645-.209-1.291-.413-1.933-.629a.827.827,0,0,1-.6-1.015.8.8,0,0,1,1-.6c.651.188,1.293.407,1.938.614.383.123.767.242,1.145.379a.814.814,0,0,1,.567.785" transform="translate(-569.692 -214.026)" fill="#f48120"/>
        <path id="Path_9334" data-name="Path 9334" d="M588.409,95.062a.921.921,0,0,1-.78-.58.82.82,0,0,1,.227-.909,1.866,1.866,0,0,1,.286-.19c.814-.473,1.627-.948,2.445-1.412a1.326,1.326,0,0,1,.48-.17.8.8,0,0,1,.846.516.827.827,0,0,1-.261.96,1.578,1.578,0,0,1-.2.133c-.835.483-1.667.969-2.507,1.444a3.864,3.864,0,0,1-.536.208" transform="translate(-558.819 -87.303)" fill="#f48120"/>
      </g>
    </g>
  </g>
</svg>
