<svg xmlns="http://www.w3.org/2000/svg" xmlns:xlink="http://www.w3.org/1999/xlink" width="35" height="35" viewBox="0 0 35 35">
  <defs>
    <clipPath id="clip-path">
      <rect id="Rectangle_3866" data-name="Rectangle 3866" width="35" height="35" transform="translate(401 4812)" fill="none" stroke="#707070" stroke-width="1"/>
    </clipPath>
    <clipPath id="clip-path-2">
      <rect id="Rectangle_3867" data-name="Rectangle 3867" width="34" height="34.106" fill="#191919"/>
    </clipPath>
  </defs>
  <g id="Mask_Group_8018" data-name="Mask Group 8018" transform="translate(-401 -4812)" clip-path="url(#clip-path)">
    <g id="Group_8624" data-name="Group 8624" transform="translate(401.5 4812.447)">
      <g id="Group_8624-2" data-name="Group 8624" clip-path="url(#clip-path-2)">
        <path id="Path_9309" data-name="Path 9309" d="M259.478,0a6.566,6.566,0,0,1,.677.519c1.2,1.185,2.389,2.381,3.581,3.574a2.687,2.687,0,0,1,.27.293.956.956,0,0,1,.11,1.035.953.953,0,0,1-.867.576c-.33.014-.661,0-1.032,0v.381c0,1.487-.019,2.974.008,4.46A1.092,1.092,0,0,1,261.074,12q-1.863-.042-3.727,0A1.094,1.094,0,0,1,256.2,10.84c.028-1.475.009-2.951.009-4.427V6c-.289,0-.562.007-.834,0a1.729,1.729,0,0,1-.49-.062.99.99,0,0,1-.486-1.524,1.981,1.981,0,0,1,.22-.248Q256.5,2.281,258.386.4a4.289,4.289,0,0,1,.559-.4h.533" transform="translate(-242.211)" fill="#f48120"/>
        <path id="Path_9310" data-name="Path 9310" d="M198.234,418.484a15.586,15.586,0,0,1-4.641-.732,6.381,6.381,0,0,1-1.88-.9,4.173,4.173,0,0,1-.808-.78,1.486,1.486,0,0,1-.008-1.855,3.344,3.344,0,0,1,1.034-.926,9.661,9.661,0,0,1,3.139-1.142,17.241,17.241,0,0,1,4.27-.327,14.322,14.322,0,0,1,4.963.99,5.129,5.129,0,0,1,1.5.905,3.211,3.211,0,0,1,.466.518,1.5,1.5,0,0,1,0,1.83,3.317,3.317,0,0,1-1,.913,8.665,8.665,0,0,1-2.581,1.034,17.786,17.786,0,0,1-4.46.474" transform="translate(-181.583 -392.369)" fill="#191919"/>
        <path id="Path_9311" data-name="Path 9311" d="M381.384,302.377a1.517,1.517,0,0,1,.324-.971,3.348,3.348,0,0,1,1.013-.9,8.757,8.757,0,0,1,2.554-1.009,17.552,17.552,0,0,1,5.413-.426,15.2,15.2,0,0,1,3.524.629,7.617,7.617,0,0,1,1.9.858,3.357,3.357,0,0,1,.929.846,1.539,1.539,0,0,1,0,1.914,3.447,3.447,0,0,1-1.042.916,8.814,8.814,0,0,1-2.459.981,17.285,17.285,0,0,1-3.517.482.463.463,0,0,1-.442-.211,6.08,6.08,0,0,0-2.388-1.807,13.673,13.673,0,0,0-3.986-1.107c-.515-.07-1.036-.1-1.554-.151-.085-.008-.17-.028-.27-.045" transform="translate(-363.386 -284.914)" fill="#191919"/>
        <path id="Path_9312" data-name="Path 9312" d="M16.148,302.289c-.436.039-.822.07-1.206.11a14.344,14.344,0,0,0-4.643,1.2,5.99,5.99,0,0,0-2.421,1.867.333.333,0,0,1-.345.134c-.706-.063-1.415-.105-2.117-.2a11.534,11.534,0,0,1-2.977-.792,5.318,5.318,0,0,1-1.508-.895A3.225,3.225,0,0,1,.46,303.2a1.521,1.521,0,0,1,.006-1.885,3.413,3.413,0,0,1,1.012-.9,8.581,8.581,0,0,1,2.328-.953,16.925,16.925,0,0,1,5.173-.518,14.274,14.274,0,0,1,4.707.917,5.636,5.636,0,0,1,1.713,1,2.069,2.069,0,0,1,.687,1.037c.029.115.038.235.062.393" transform="translate(-0.13 -284.815)" fill="#191919"/>
        <path id="Path_9313" data-name="Path 9313" d="M8.084,33.926v.405c0,1.043-.02,2.087.007,3.129A1.082,1.082,0,0,1,6.95,38.6q-1.88-.039-3.762,0a1.077,1.077,0,0,1-1.121-1.123c.025-1.042.007-2.086.007-3.129v-.39c-.1-.01-.179-.025-.263-.026-.255,0-.511.007-.766-.005a.96.96,0,0,1-.884-.6A.961.961,0,0,1,.3,32.288a2.344,2.344,0,0,1,.2-.219Q2.376,30.2,4.248,28.327A1.036,1.036,0,0,1,5.9,28.316Q7.8,30.208,9.691,32.1a1.181,1.181,0,0,1,.383.683,1,1,0,0,1-.948,1.136c-.331.015-.663,0-1.042,0" transform="translate(-0.066 -26.594)" fill="#f48120"/>
        <path id="Path_9314" data-name="Path 9314" d="M516.165,33.92v.4c0,1.043-.02,2.087.007,3.129a1.082,1.082,0,0,1-1.139,1.139q-1.88-.039-3.762,0a1.077,1.077,0,0,1-1.123-1.121c.025-1.042.007-2.086.007-3.129v-.391c-.093-.01-.177-.025-.261-.026-.266,0-.534.01-.8-.007a1,1,0,0,1-.753-1.577,2.068,2.068,0,0,1,.243-.273q1.87-1.873,3.743-3.743a1.035,1.035,0,0,1,1.652-.014q1.9,1.892,3.792,3.788a1.186,1.186,0,0,1,.384.682,1,1,0,0,1-.946,1.137c-.331.016-.664,0-1.044,0" transform="translate(-484.173 -26.588)" fill="#f48120"/>
        <path id="Path_9315" data-name="Path 9315" d="M190.41,554.146c.473.249.874.482,1.294.675a13.487,13.487,0,0,0,3.6,1.023,19.574,19.574,0,0,0,3.778.235,16.419,16.419,0,0,0,5.557-1.046c.522-.21,1.014-.495,1.519-.746.076-.038.15-.08.231-.123a1.982,1.982,0,0,1-.676,1.988,5.541,5.541,0,0,1-1.585.96,13.127,13.127,0,0,1-3.47.864,17.715,17.715,0,0,1-2.888.122,14.774,14.774,0,0,1-4.875-.919,5.683,5.683,0,0,1-1.742-1.017,1.922,1.922,0,0,1-.685-1.075,7.88,7.88,0,0,1-.057-.941" transform="translate(-181.425 -527.997)" fill="#191919"/>
        <path id="Path_9316" data-name="Path 9316" d="M190.522,639.2c.417.221.807.452,1.216.641a13.493,13.493,0,0,0,3.6,1.03,19.664,19.664,0,0,0,3.778.24,16.456,16.456,0,0,0,5.59-1.048c.522-.21,1.014-.495,1.519-.746.076-.038.151-.08.232-.122a2,2,0,0,1-.7,2.012,6.349,6.349,0,0,1-2.213,1.185,14.7,14.7,0,0,1-3.579.689,18.573,18.573,0,0,1-3.057-.009,12.655,12.655,0,0,1-4.55-1.136,6.2,6.2,0,0,1-1.008-.639,1.993,1.993,0,0,1-.82-2.1" transform="translate(-181.488 -609.028)" fill="#191919"/>
        <path id="Path_9317" data-name="Path 9317" d="M572.164,445.193v-2.03a14.475,14.475,0,0,0,6.961-1.926,2.028,2.028,0,0,1-.378,1.681,4.569,4.569,0,0,1-1.7,1.2,11.473,11.473,0,0,1-3.125.874c-.569.082-1.143.132-1.761.2" transform="translate(-545.164 -420.416)" fill="#191919"/>
        <path id="Path_9318" data-name="Path 9318" d="M579.229,526.2a2.016,2.016,0,0,1-.707,2.017,5.526,5.526,0,0,1-1.44.882,13.912,13.912,0,0,1-4.8,1.021v-2.005c.165-.014.336-.031.508-.044A15.36,15.36,0,0,0,578,526.856c.332-.15.646-.342.968-.515l.26-.142" transform="translate(-545.272 -501.368)" fill="#191919"/>
        <path id="Path_9319" data-name="Path 9319" d="M7,443.333v2c-.265-.014-.516-.016-.765-.042a14.23,14.23,0,0,1-3.593-.786A6.03,6.03,0,0,1,.72,443.413a1.98,1.98,0,0,1-.671-2A14.476,14.476,0,0,0,7,443.333" transform="translate(0 -420.588)" fill="#191919"/>
        <path id="Path_9320" data-name="Path 9320" d="M7.127,527.951v2c-.241-.012-.469-.015-.7-.037a13.4,13.4,0,0,1-4.182-1,4.984,4.984,0,0,1-1.378-.858,1.97,1.97,0,0,1-.7-2.022,14.466,14.466,0,0,0,6.961,1.917" transform="translate(-0.122 -501.211)" fill="#191919"/>
      </g>
    </g>
  </g>
</svg>
