<?xml version="1.0" encoding="UTF-8"?><svg id="Layer_1" xmlns="http://www.w3.org/2000/svg" viewBox="0 0 400 400"><path d="M193.4,239.86v-77.51c-1.43,0-2.82,0-4.2,0-12.79,0-25.59.02-38.38,0-5.72-.01-7.95-2.2-7.96-7.86-.02-45.36-.02-90.73,0-136.09,0-5.74,2.19-7.97,7.83-7.98,20.18-.03,40.36-.1,60.54.11,2.24.02,4.99,1.16,6.6,2.72,12.19,11.87,24.23,23.89,36.09,36.09,1.63,1.68,2.79,4.6,2.8,6.95.18,32.7.13,65.41.11,98.11,0,5.7-2.22,7.93-7.87,7.95-14.09.03-28.18,0-42.53,0v77.57c10.58,3.11,21.28,6.28,32.01,9.41,37.29,10.87,74.58,21.71,111.86,32.57,7.09,2.07,7.86,3.1,7.86,10.55,0,15.03,0,30.07,0,45.1,0,5.62-1.07,7.12-6.56,8.72-49.41,14.43-98.82,28.86-148.27,43.17-2.13.62-4.75.62-6.88,0-49.57-14.36-99.11-28.85-148.65-43.32-5.04-1.47-6.25-3.03-6.25-8.11-.02-15.82-.02-31.65,0-47.47,0-5.04,1.23-6.59,6.29-8.07,46.76-13.66,93.52-27.31,140.28-40.97,1.76-.51,3.5-1.08,5.29-1.64ZM193.3,253.19c-40.56,11.83-80.87,23.58-121.18,35.33,1.17,1.18,2.24,1.6,3.33,1.92,40.19,11.71,80.38,23.43,120.61,35.01,2.36.68,5.24.71,7.59.03,36.82-10.57,73.6-21.31,110.38-32.02,4.57-1.33,9.11-2.74,13.67-4.12-.03-.28-.05-.56-.08-.84-40.35-11.77-80.7-23.54-121.15-35.34v32.23c.27.18.54.35.81.53,4.43-4.63,8.86-9.26,12.64-13.22,3.3,2.87,6.33,5.51,9.57,8.32-8.09,8.08-16,16-23.95,23.88-4.23,4.2-7.18,4.15-11.47-.11-7.2-7.16-14.38-14.34-21.55-21.53-.79-.79-1.47-1.7-1.91-2.21,2.94-3.16,5.61-6.02,8.96-9.62,4.46,4.92,8.76,9.64,13.74,15.13v-33.38ZM243.89,149.53V61.05c-9.5,0-18.71,0-27.92,0-8.15,0-9.79-1.6-9.79-9.59,0-8.3,0-16.61-.01-24.91,0-1.12-.15-2.25-.22-3.27h-50.2v126.26h88.14ZM54.2,297.4c0,11.87.09,23.07-.07,34.26-.04,2.67.99,3.49,3.38,4.18,35.14,10.17,70.25,20.45,105.38,30.7,10.08,2.94,20.17,5.87,30.49,8.87v-37.44c-46.19-13.47-92.39-26.94-139.17-40.58ZM345.49,297.44c-46.75,13.63-92.95,27.11-139.17,40.59v37.39c1.84-.52,3.47-.95,5.09-1.42,20.34-5.92,40.69-11.84,61.03-17.78,23.25-6.79,46.5-13.56,69.71-20.46,1.29-.38,3.18-1.87,3.2-2.87.23-11.59.14-23.18.14-35.44ZM219.08,33.36v14.71h14.55c-4.76-4.81-9.69-9.8-14.55-14.71Z"/><path d="M73.44,162.35c-.16,10.28,7.91,18.64,18.14,18.94,6.32.18,12.66,0,18.99.06,18.49.14,32.12,13.79,32.28,32.32.02,2.75,0,5.49,0,9.62,5.08-5.64,9.4-10.44,13.83-15.35,3.7,3.73,6.46,6.52,9.58,9.66-4.6,4.59-9.15,9.12-13.69,13.66-3.73,3.73-7.4,7.52-11.22,11.16-3.06,2.91-6.32,3.18-9.16.41-8.48-8.28-16.77-16.74-25.29-25.3,3.1-2.87,6.05-5.6,9.71-9,4.07,4.5,8.35,9.24,12.64,13.97.37-.18.75-.36,1.12-.53-.24-4.39.03-8.89-.82-13.16-1.74-8.76-9.17-14.59-18.11-14.78-5.54-.11-11.08-.03-16.62-.03-19.88-.01-32.43-11.35-34.48-31.66-1.33,0-2.72,0-4.11,0-12.79,0-25.58.02-38.37,0-5.73-.01-7.97-2.2-7.98-7.83-.02-45.49-.02-90.97,0-136.46,0-5.39,2.3-7.63,7.76-7.64,20.18-.03,40.35-.11,60.53.12,2.34.03,5.2,1.29,6.89,2.94,12.1,11.76,24.04,23.69,35.81,35.79,1.64,1.68,2.85,4.58,2.86,6.93.18,32.83.14,65.66.11,98.49,0,5.39-2.31,7.64-7.76,7.66-12.79.04-25.58.01-38.37.01-1.43,0-2.85,0-4.27,0ZM22.87,23.15v126.3h88.06V61.05c-10.13,0-20,.03-29.87,0-5.64-.02-7.82-2.24-7.85-7.96-.03-6.19,0-12.39,0-18.58,0-3.76,0-7.52,0-11.35H22.87ZM86.06,33.07v15.04h14.92c-4.93-4.97-9.87-9.95-14.92-15.04Z"/><path d="M270.43,222.5c4.37-4.66,8.75-9.31,13.3-14.16,3.14,3.36,5.82,6.22,8.72,9.33-.4.49-.98,1.32-1.68,2.02-7.26,7.29-14.52,14.57-21.82,21.82-4.3,4.27-7.23,4.29-11.47.08-7.94-7.89-15.84-15.82-23.92-23.9,3.17-2.84,6.16-5.52,9.43-8.46,3.94,4.09,8.38,8.7,12.83,13.31.34-.15.68-.3,1.03-.45,0-2.95-.03-5.91,0-8.86.22-18,13.91-31.68,31.93-31.87,6.46-.07,12.93.13,19.38-.07,10.23-.31,18.38-8.82,18.03-18.94-1.41,0-2.84,0-4.27,0-12.66,0-25.32.02-37.98,0-5.95-.01-8.1-2.16-8.1-8.11-.02-18.19,0-36.39,0-54.58,0-26.9,0-53.79,0-80.69,0-6.51,2.02-8.56,8.44-8.56,19.78-.01,39.56-.12,59.34.14,2.58.03,5.74,1.35,7.59,3.14,11.94,11.55,23.56,23.42,35.38,35.1,2.33,2.31,3.29,4.81,3.28,8.08-.08,32.3-.04,64.6-.05,96.91,0,6.51-2.03,8.57-8.43,8.58-12.66.02-25.32,0-37.98,0-1.29,0-2.59,0-3.8,0-.7,3.4-1.09,6.54-2.01,9.51-3.97,12.89-15.75,21.78-29.23,22.1-6.46.15-12.92,0-19.38.06-11.31.12-19.35,8.19-19.48,19.52-.03,2.77,0,5.53,0,8.3l.92.66ZM288.77,23.24v126.16h88.06V61.05c-9.55,0-18.77,0-28,0-8.06,0-9.67-1.62-9.67-9.71,0-9.31,0-18.63,0-28.11h-50.39ZM352.1,32.52v15.51h15.46c-5.24-5.26-10.15-10.18-15.46-15.51Z"/><path d="M231.27,86.19h-62.79v-12.22h62.79v12.22Z"/><path d="M231.22,111.54h-62.81v-12.18h62.81v12.18Z"/><path d="M168.27,60.72v-12.04h24.97v12.04h-24.97Z"/><path d="M180.65,136.86h-12.2v-12.26h12.2v12.26Z"/><path d="M206.1,124.62v12.08h-12.3v-12.08h12.3Z"/><path d="M219,136.73v-12.14h12.31v12.14h-12.31Z"/><path d="M35.4,73.87h62.86v12.29h-62.86v-12.29Z"/><path d="M98.34,99.32v12.18h-62.82v-12.18h62.82Z"/><path d="M98.34,124.64v12.19h-62.82v-12.19h62.82Z"/><path d="M60.45,48.64v12.1h-24.96v-12.1h24.96Z"/><path d="M364.3,73.99v12.19h-62.82v-12.19h62.82Z"/><path d="M301.38,99.2h62.83v12.26h-62.83v-12.26Z"/><path d="M301.35,136.75v-12.18h62.82v12.18h-62.82Z"/><path d="M326.33,48.68v12.16h-24.97v-12.16h24.97Z"/></svg>