<?xml version="1.0" encoding="UTF-8"?><svg id="Layer_1" xmlns="http://www.w3.org/2000/svg" viewBox="0 0 60 60"><defs><style>.cls-1{fill:#010101;}.cls-1,.cls-2,.cls-3{stroke-width:0px;}.cls-2{fill:#fff2e9;}.cls-3{fill:#f48220;}</style></defs><circle class="cls-2" cx="30" cy="30" r="30"/><path class="cls-3" d="M9.65,37.06v4.94c0,1.03.83,1.86,1.85,1.86h36.6c1.02,0,1.85-.83,1.85-1.86v-4.94H9.65Z"/><path class="cls-1" d="M48.1,10.81H11.49c-1.42,0-2.57,1.16-2.57,2.58v28.61c0,1.42,1.15,2.58,2.57,2.58h17.58v6.45h-7.15c-.4,0-.72.32-.72.72s.32.72.72.72h15.75c.4,0,.72-.32.72-.72s-.32-.72-.72-.72h-7.15v-6.45h17.58c1.42,0,2.57-1.16,2.57-2.58V13.39c0-1.42-1.15-2.58-2.57-2.58ZM10.37,13.39c0-.63.5-1.14,1.13-1.14h36.6c.62,0,1.13.51,1.13,1.14v22.95H10.37V13.39ZM49.22,42c0,.63-.5,1.14-1.13,1.14H11.49c-.62,0-1.13-.51-1.13-1.14v-4.22h38.86v4.22Z"/><circle class="cls-3" cx="33.84" cy="23.07" r="1.22"/><circle class="cls-3" cx="26.53" cy="17.62" r="1.22"/><circle class="cls-3" cx="20.09" cy="22.46" r="1.22"/><path class="cls-3" d="M38.28,15.65c0,.39.17.74.46.96.22.17.49.26.76.26.67,0,1.22-.54,1.22-1.21,0,0,0,0,0,0,0-.67-.54-1.22-1.21-1.22,0,0,0,0,0,0-.67,0-1.22.54-1.22,1.21,0,0,0,0,0,0Z"/><path class="cls-1" d="M39.49,13.71c-1.07,0-1.94.87-1.94,1.94,0,.41.12.79.34,1.11l-3.8,4.41c-.38-.06-.77,0-1.12.18l-4.62-3.1c.42-1.24-.52-2.56-1.83-2.56-1.15,0-2.05,1.03-1.92,2.16l-3.33,3.1c-.33-.26-.74-.42-1.19-.42-1.07,0-1.94.87-1.94,1.94s.87,1.94,1.94,1.94c1.15,0,2.05-1.02,1.92-2.16l3.33-3.1c.59.47,1.4.54,2.07.2l4.61,3.09c-.44,1.24.5,2.57,1.82,2.57,1.07,0,1.94-.87,1.94-1.94,0-.43-.15-.84-.41-1.17l3.75-4.35c1.18.22,2.31-.69,2.31-1.9,0-1.07-.87-1.94-1.94-1.94ZM20.09,22.96c-.27,0-.5-.22-.5-.5s.22-.5.5-.5.5.22.5.5-.22.5-.5.5ZM26.53,18.12c-.27,0-.5-.22-.5-.5s.22-.5.5-.5.5.22.5.5-.22.5-.5.5ZM33.84,23.56c-.27,0-.5-.22-.5-.5s.22-.5.5-.5.5.22.5.5-.22.5-.5.5ZM39.49,16.14c-.12,0-.22-.03-.32-.11-.11-.09-.18-.23-.18-.38,0-.27.22-.5.5-.5s.5.22.5.5c0,.27-.22.5-.5.5ZM19.56,34.88c-.4,0-.72-.32-.72-.72v-8.28c0-.4.32-.72.72-.72s.72.32.72.72v8.28c0,.4-.32.72-.72.72Z"/><path class="cls-1" d="M26.46,34.88c-.4,0-.72-.32-.72-.72v-10.34c0-.4.32-.72.72-.72s.72.32.72.72v10.34c0,.4-.32.72-.72.72ZM33.36,34.88c-.4,0-.72-.32-.72-.72v-6.68c0-.4.32-.72.72-.72s.72.32.72.72v6.68c0,.4-.32.72-.72.72ZM40.26,34.88c-.4,0-.72-.32-.72-.72v-13.79c0-.4.32-.72.72-.72s.72.32.72.72v13.79c0,.4-.32.72-.72.72Z"/></svg>