<svg xmlns="http://www.w3.org/2000/svg" xmlns:xlink="http://www.w3.org/1999/xlink" width="40" height="40" viewBox="0 0 40 40">
  <defs>
    <clipPath id="clip-path">
      <rect id="Rectangle_3612" data-name="Rectangle 3612" width="40" height="40" transform="translate(379 3253)" fill="none" stroke="#707070" stroke-width="1"/>
    </clipPath>
  </defs>
  <g id="Mask_Group_8044" data-name="Mask Group 8044" transform="translate(-379 -3253)" clip-path="url(#clip-path)">
    <path id="Icon_ionic-ios-cloud-done" data-name="Icon ionic-ios-cloud-done" d="M30.734,16.158A10.546,10.546,0,0,0,11.573,11.3a4.984,4.984,0,0,0-1.891-.373,5.207,5.207,0,0,0-5.02,5.161A6.868,6.868,0,0,0,0,22.605,6.613,6.613,0,0,0,6.391,29.25H29.616a6.617,6.617,0,0,0,1.118-13.092Zm-5.245-1.216-9.4,9.443H16.08a1.27,1.27,0,0,1-.816.387,1.231,1.231,0,0,1-.823-.4L10.5,20.433a.28.28,0,0,1,0-.4l1.252-1.252a.272.272,0,0,1,.394,0L15.272,21.9l8.578-8.641a.278.278,0,0,1,.2-.084h0a.255.255,0,0,1,.2.084l1.23,1.273A.277.277,0,0,1,25.488,14.941Z" transform="translate(380.997 3255)"/>
  </g>
</svg>
