<svg xmlns="http://www.w3.org/2000/svg" width="370" height="185" viewBox="0 0 370 185">
  <g id="Group_8411" data-name="Group 8411" transform="translate(-775 -4275)">
    <rect id="Rectangle_3621" data-name="Rectangle 3621" width="370" height="185" transform="translate(775 4275)" fill="#232323"/>
    <g id="undraw_learning_re_32qv" transform="translate(734.777 4313.569)">
      <path id="Path_9933" data-name="Path 9933" d="M203.628,100.014V9.938a8.611,8.611,0,0,1,8.6-8.6h178.6a8.611,8.611,0,0,1,8.6,8.6v90.076a8.612,8.612,0,0,1-8.6,8.6H212.23a8.612,8.612,0,0,1-8.6-8.6ZM398.562,9.938a7.729,7.729,0,0,0-7.729-7.729H212.23a7.73,7.73,0,0,0-7.73,7.73v90.076a7.73,7.73,0,0,0,7.73,7.73H333.713a64.849,64.849,0,0,0,64.849-64.849V9.938Z" transform="translate(-55.03 -0.754)" fill="#e6e6e6"/>
      <g id="Group_8438" data-name="Group 8438" transform="translate(106.041 16.967)">
        <path id="Path_9934" data-name="Path 9934" d="M211.521,38.907h-100.1a5.387,5.387,0,0,0-5.382,5.382V81.06a5.387,5.387,0,0,0,5.382,5.382h100.1A5.387,5.387,0,0,0,216.9,81.06V44.289A5.387,5.387,0,0,0,211.521,38.907Z" transform="translate(-106.041 -38.907)"/>
      </g>
      <path id="Path_9936" data-name="Path 9936" d="M127.154,77.336h88.963a1.526,1.526,0,0,1,1.526,1.526h0a1.526,1.526,0,0,1-1.526,1.526H127.154a1.526,1.526,0,0,1-1.526-1.526h0A1.526,1.526,0,0,1,127.154,77.336Z" transform="translate(-11.045 -43.61)" fill="#f48120"/>
      <path id="Path_9937" data-name="Path 9937" d="M127.154,100.336h32.271a1.526,1.526,0,0,1,1.526,1.526h0a1.526,1.526,0,0,1-1.526,1.526H127.154a1.526,1.526,0,0,1-1.526-1.526h0A1.526,1.526,0,0,1,127.154,100.336Z" transform="translate(-11.045 -56.58)" fill="#f48120"/>
      <path id="Path_9938" data-name="Path 9938" d="M493.379,62.132H432.325a1.744,1.744,0,1,1,0-3.489h61.053a1.744,1.744,0,0,1,0,3.489Z" transform="translate(-183.01 -33.069)" fill="#e6e6e6"/>
      <path id="Path_9939" data-name="Path 9939" d="M491.115,152.828H406.041v-.436c28.012,4.3,56.4,3.942,85.074,0Z" transform="translate(-169.172 -85.935)" fill="#e6e6e6"/>
      <path id="Path_9940" data-name="Path 9940" d="M493.379,113.133H432.325a1.744,1.744,0,1,1,0-3.489h61.053a1.744,1.744,0,0,1,0,3.489Z" transform="translate(-183.01 -61.829)" fill="#e6e6e6"/>
      <rect id="Rectangle_3699" data-name="Rectangle 3699" width="85.074" height="0.436" transform="translate(237.305 72.563)" fill="#e6e6e6"/>
      <path id="Path_9941" data-name="Path 9941" d="M493.379,86.825H432.325a1.744,1.744,0,1,1,0-3.489h61.053a1.744,1.744,0,0,1,0,3.489Z" transform="translate(-183.01 -46.994)" fill="#e6e6e6"/>
      <path id="Path_9942" data-name="Path 9942" d="M492.115,178.3c-29.365-2-57.884-2.316-85.074,0v-.436h85.074Z" transform="translate(-169.736 -99.63)" fill="#e6e6e6"/>
      <g id="Group_8439" data-name="Group 8439" transform="translate(197.067 51.085)">
        <path id="Path_9943" data-name="Path 9943" d="M328.252,137.628l-3.589-1.7a26.36,26.36,0,0,1,3.42,7.816,26.337,26.337,0,0,1,4.838-7.026l-3.793.976c2.337-11.455,11.129-19.679,21.2-19.679v-.872c-10.516,0-19.685,8.568-22.071,20.486Z" transform="translate(-320.35 -117.142)" fill="#a5a5a5"/>
        <path id="Path_9944" data-name="Path 9944" d="M339.193,199.631H316.516a1.744,1.744,0,0,1,0-3.489h22.677a1.744,1.744,0,1,1,0,3.489Z" transform="translate(-314.772 -161.691)" fill="#f48120"/>
      </g>
      <g id="Group_8440" data-name="Group 8440" transform="translate(157.32 38.959)">
        <circle id="Ellipse_258" data-name="Ellipse 258" cx="6.105" cy="6.105" r="6.105" transform="translate(0)" fill="#f48120"/>
        <path id="Path_9945" data-name="Path 9945" d="M236.816,95.028a.661.661,0,0,0-.9.235l-2.177,4.313a9.457,9.457,0,0,0-2.2-2.389.658.658,0,0,0-.895.235.671.671,0,0,0,.235.9,7.875,7.875,0,0,1,2.32,3,.658.658,0,0,0,1.13,0l2.72-5.389a.67.67,0,0,0-.235-.895h0Z" transform="translate(-227.535 -92.498)" fill="#fff"/>
      </g>
      <g id="Group_8441" data-name="Group 8441" transform="translate(230.584 21.079)">
        <circle id="Ellipse_259" data-name="Ellipse 259" cx="6.105" cy="6.105" r="6.105" fill="#f48120"/>
        <path id="Path_9946" data-name="Path 9946" d="M404.816,54.028a.661.661,0,0,0-.9.235l-2.177,4.313a9.458,9.458,0,0,0-2.2-2.389.658.658,0,0,0-.9.235.671.671,0,0,0,.235.9,7.875,7.875,0,0,1,2.32,3,.658.658,0,0,0,1.13,0l2.72-5.389a.67.67,0,0,0-.235-.9h0Z" transform="translate(-395.535 -51.498)" fill="#fff"/>
      </g>
      <g id="Group_8442" data-name="Group 8442" transform="translate(318.239 31.109)">
        <circle id="Ellipse_260" data-name="Ellipse 260" cx="6.105" cy="6.105" r="6.105" fill="#f48120"/>
        <path id="Path_9947" data-name="Path 9947" d="M605.815,77.028a.66.66,0,0,0-.895.235l-2.177,4.313a9.458,9.458,0,0,0-2.2-2.389.658.658,0,0,0-.9.235.671.671,0,0,0,.235.9,7.875,7.875,0,0,1,2.32,3,.658.658,0,0,0,1.13,0l2.72-5.389a.67.67,0,0,0-.235-.895h0Z" transform="translate(-596.535 -74.498)" fill="#fff"/>
      </g>
      <g id="Group_8444" data-name="Group 8444" transform="translate(169.699 55.384)">
        <path id="Path_9948" data-name="Path 9948" d="M269.82,147.024H255.114a1.658,1.658,0,0,1-1.656-1.656,24.9,24.9,0,0,1,0-16.713A1.658,1.658,0,0,1,255.114,127H269.82a1.658,1.658,0,0,1,1.656,1.656v16.713a1.658,1.658,0,0,1-1.656,1.656Z" transform="translate(-252.015 -127)" fill="#e6e6e6"/>
        <path id="Path_9949" data-name="Path 9949" d="M260.771,128.131a4.313,4.313,0,0,0-4.313,4.313v13.207a1.517,1.517,0,0,0,1.517,1.517h8.132a7.381,7.381,0,0,0,7.381-7.381V129.648a1.517,1.517,0,0,0-1.517-1.517h-11.2Z" transform="translate(-254.52 -127.638)" fill="#fff"/>
        <g id="Group_8443" data-name="Group 8443" transform="translate(2.983 4.72)">
          <path id="Path_9950" data-name="Path 9950" d="M274.527,138.454h-6.885a.315.315,0,1,1,0-.63h6.885a.315.315,0,0,1,0,.63Z" transform="translate(-263.633 -137.824)" fill="#e6e6e6"/>
          <path id="Path_9951" data-name="Path 9951" d="M274.527,153.847h-6.885a.315.315,0,1,1,0-.63h6.885a.315.315,0,0,1,0,.63Z" transform="translate(-263.633 -146.505)" fill="#e6e6e6"/>
          <path id="Path_9952" data-name="Path 9952" d="M273.444,146.155H259.17a.315.315,0,1,1,0-.63h14.274a.315.315,0,1,1,0,.63Z" transform="translate(-258.855 -142.167)" fill="#e6e6e6"/>
        </g>
        <path id="Path_9953" data-name="Path 9953" d="M284.586,160.1H278.63a.315.315,0,1,1,0-.63h5.956a.315.315,0,1,1,0,.63Z" transform="translate(-266.846 -145.313)" fill="#e6e6e6"/>
      </g>
      <g id="Group_8449" data-name="Group 8449" transform="translate(110.826 0)">
        <path id="Path_9966" data-name="Path 9966" d="M134.82,20.024H120.114a1.658,1.658,0,0,1-1.656-1.656,24.9,24.9,0,0,1,0-16.712A1.658,1.658,0,0,1,120.114,0H134.82a1.658,1.658,0,0,1,1.656,1.656V18.368a1.658,1.658,0,0,1-1.656,1.656Z" transform="translate(-117.015 0)" fill="#e6e6e6"/>
        <path id="Path_9967" data-name="Path 9967" d="M125.771,1.131a4.313,4.313,0,0,0-4.313,4.313V18.652a1.517,1.517,0,0,0,1.517,1.517h8.132a7.381,7.381,0,0,0,7.381-7.381V2.648a1.517,1.517,0,0,0-1.517-1.517Z" transform="translate(-119.52 -0.638)" fill="#fff"/>
        <g id="Group_8448" data-name="Group 8448" transform="translate(2.983 4.721)">
          <path id="Path_9968" data-name="Path 9968" d="M139.527,11.454h-6.885a.315.315,0,1,1,0-.63h6.885a.315.315,0,0,1,0,.63Z" transform="translate(-128.633 -10.825)" fill="#e6e6e6"/>
          <path id="Path_9969" data-name="Path 9969" d="M139.527,26.847h-6.885a.315.315,0,1,1,0-.63h6.885a.315.315,0,0,1,0,.63Z" transform="translate(-128.633 -19.504)" fill="#e6e6e6"/>
          <path id="Path_9970" data-name="Path 9970" d="M138.444,19.155H124.17a.315.315,0,1,1,0-.63h14.274a.315.315,0,0,1,0,.63Z" transform="translate(-123.855 -15.167)" fill="#e6e6e6"/>
        </g>
        <path id="Path_9971" data-name="Path 9971" d="M149.586,33.105H143.63a.315.315,0,1,1,0-.63h5.956a.315.315,0,0,1,0,.63Z" transform="translate(-131.846 -18.313)" fill="#e6e6e6"/>
      </g>
    </g>
  </g>
</svg>
