<svg xmlns="http://www.w3.org/2000/svg" xmlns:xlink="http://www.w3.org/1999/xlink" width="40" height="40" viewBox="0 0 40 40">
  <defs>
    <clipPath id="clip-path">
      <rect id="Rectangle_3616" data-name="Rectangle 3616" width="40" height="40" transform="translate(379 3253)" fill="none" stroke="#707070" stroke-width="1"/>
    </clipPath>
    <clipPath id="clip-path-2">
      <rect id="Rectangle_3662" data-name="Rectangle 3662" width="33.193" height="33.192" fill="none"/>
    </clipPath>
  </defs>
  <g id="Mask_Group_8048" data-name="Mask Group 8048" transform="translate(-379 -3253)" clip-path="url(#clip-path)">
    <g id="Group_8414" data-name="Group 8414" transform="translate(383.307 3256.302)">
      <g id="Group_8413" data-name="Group 8413" clip-path="url(#clip-path-2)">
        <path id="Path_9640" data-name="Path 9640" d="M16.631,0c.78,0,1.56-.006,2.34,0s.809.02.817.784c.009.808.023,1.617-.006,2.423a.7.7,0,0,0,.555.783c.863.309,1.707.669,2.551,1.028.552.235.585.23.994-.212.548-.592,1.1-1.186,1.679-1.743.473-.452.581-.439,1.033.009,1.227,1.215,2.436,2.449,3.672,3.656.323.315.286.519-.021.81-.667.632-1.3,1.3-1.958,1.942a.606.606,0,0,0-.127.808c.4.884.785,1.781,1.12,2.693a.543.543,0,0,0,.607.419c.864-.008,1.727-.011,2.591,0,.667.01.706.045.71.721q.014,2.465,0,4.931c0,.7-.035.725-.784.733-.78.009-1.561.02-2.34-.007a.711.711,0,0,0-.837.575,24.084,24.084,0,0,1-1.058,2.534.6.6,0,0,0,.111.809c.643.617,1.268,1.253,1.893,1.889.46.467.465.481.032.917q-1.853,1.87-3.722,3.724c-.407.4-.425.4-.858-.027-.637-.624-1.274-1.248-1.888-1.894a.652.652,0,0,0-.878-.136c-.832.38-1.684.721-2.544,1.035-.367.134-.543.3-.532.712.024.863.017,1.727,0,2.591-.01.625-.047.667-.674.672q-2.507.017-5.015,0c-.649,0-.683-.048-.691-.74-.011-.836-.018-1.672,0-2.507a.657.657,0,0,0-.512-.73c-.887-.324-1.764-.68-2.624-1.07a.609.609,0,0,0-.8.16c-.64.66-1.312,1.289-1.941,1.959-.308.328-.513.3-.811-.008-1.208-1.234-2.442-2.444-3.656-3.672-.466-.471-.465-.549-.008-1.021.6-.619,1.207-1.233,1.833-1.827a.657.657,0,0,0,.137-.879c-.372-.836-.7-1.693-1.006-2.556a.662.662,0,0,0-.736-.509c-.863.019-1.727.015-2.591,0-.637-.01-.678-.044-.683-.662q-.017-2.549,0-5.1c0-.557.066-.61.64-.62.836-.015,1.672,0,2.507-.006.692-.006.662-.024.9-.708.269-.759.575-1.507.913-2.237.271-.586.308-.577-.168-1.062C4.24,8.816,3.659,8.255,3.1,7.676c-.5-.518-.508-.585-.015-1.082q1.794-1.811,3.606-3.6c.437-.433.451-.43.916.028.635.625,1.271,1.251,1.888,1.894a.608.608,0,0,0,.808.129Q11.551,4.476,12.845,4a.7.7,0,0,0,.567-.777c-.03-.835-.018-1.671-.006-2.507.01-.67.046-.7.718-.714.836-.011,1.672,0,2.507,0m.254,10.263h0c0-.864.009-1.728,0-2.591-.009-.71-.134-.8-.853-.741a9.937,9.937,0,0,0-5.246,1.961,8.881,8.881,0,0,0-2.5,2.874c-.213.391-.173.458.292.481a5.65,5.65,0,0,0,1,0,3.774,3.774,0,0,1,3.53,1.2,1.016,1.016,0,0,0,1.271.322,1.2,1.2,0,0,1,.578-.027,1.565,1.565,0,0,1,1.3,1.419A1.5,1.5,0,0,1,14.99,16.61a1.425,1.425,0,0,1-1.6-1.036,2.029,2.029,0,0,0-.757-1.155c-.34-.243-.658-.517-1.01-.74a1.443,1.443,0,0,0-.68-.258c-1-.026-2.006,0-3.009-.012a.515.515,0,0,0-.584.468,17.023,17.023,0,0,0-.383,2.883,9.334,9.334,0,0,0,1.485,4.973,9.638,9.638,0,0,0,6.276,4.339c.716.156.838.046.843-.682.009-1.142,0-2.285,0-3.427,0-1.043,0-1.045-1.07-1.034a2.517,2.517,0,0,0-2.149.6,1.319,1.319,0,0,1-1.861-.295,1.371,1.371,0,0,1,.029-1.832,1.415,1.415,0,0,1,2.187-.051,1.163,1.163,0,0,0,1.013.423c.7-.018,1.393-.011,2.09,0,.774.01.8.033.8.8.006,1.672,0,3.344.005,5.016,0,.666.089.732.716.673a9.418,9.418,0,0,0,5.139-1.988A9.3,9.3,0,0,0,24.9,21.539c.334-.607.263-.724-.409-.738a16.966,16.966,0,0,0-1.922.011,2.578,2.578,0,0,1-2.048-.7c-.617-.541-1.213-1.173-2.161-1.059a.242.242,0,0,1-.08-.021,1.466,1.466,0,0,1-1.144-1.614,1.537,1.537,0,0,1,1.637-1.238,1.422,1.422,0,0,1,1.28,1.572.841.841,0,0,0,.4.906c.352.272.692.563,1.062.81a1.393,1.393,0,0,0,.676.27c1.03.028,2.062.006,3.093.014a.565.565,0,0,0,.643-.512,18.631,18.631,0,0,0,.341-2.221,9.115,9.115,0,0,0-1.306-5.266,9.651,9.651,0,0,0-6.372-4.6c-.549-.121-.636-.051-.644.523-.014,1.087-.013,2.174,0,3.26.016,1.677-.222,1.422,1.47,1.456a1.533,1.533,0,0,0,1.448-.571,1.323,1.323,0,0,1,1.947.016,1.419,1.419,0,0,1,.177,1.96,1.36,1.36,0,0,1-2.113.143,1.5,1.5,0,0,0-1.243-.513c-.695.034-1.393.018-2.089,0-.657-.012-.654-.023-.652-.652,0-.836,0-1.672,0-2.508" transform="translate(0 0)"/>
      </g>
    </g>
  </g>
</svg>
