<svg xmlns="http://www.w3.org/2000/svg" width="60" height="60" viewBox="0 0 60 60">
  <g id="data_analy" transform="translate(-188 -3050)">
    <circle id="Ellipse_14" data-name="Ellipse 14" cx="30" cy="30" r="30" transform="translate(188 3050)" fill="#fff2e8"/>
    <g id="data" transform="translate(173.5 3054)">
      <g id="Group_8403" data-name="Group 8403" transform="translate(31.5 10)">
        <path id="Path_9330" data-name="Path 9330" d="M57.681,14.368c0-2.4-5.887-4.368-13.09-4.368S31.5,11.967,31.5,14.368v5.819a2.1,2.1,0,0,0,.733,1.451A1.877,1.877,0,0,0,31.5,23.09V28.91a2.1,2.1,0,0,0,.733,1.451,1.877,1.877,0,0,0-.733,1.451v5.819c0,2.4,5.887,4.368,13.09,4.368s13.09-1.967,13.09-4.368V31.813a2.1,2.1,0,0,0-.733-1.451,1.877,1.877,0,0,0,.733-1.451V23.09a2.1,2.1,0,0,0-.733-1.451,1.877,1.877,0,0,0,.733-1.451ZM56.229,35.679v1.967c0,1.6-5.236,2.916-11.639,2.916s-11.639-1.316-11.639-2.916V33.861c2.184,1.384,6.552,2.4,11.639,2.4s9.455-.95,11.639-2.4ZM44.59,34.743c-6.4,0-11.639-1.316-11.639-2.916a1.18,1.18,0,0,1,.366-.733c2.252,1.316,6.471,2.184,11.273,2.184s9.021-.868,11.273-2.184a1.013,1.013,0,0,1,.366.733C56.229,33.427,50.993,34.743,44.59,34.743Zm11.639-7.786v1.967c0,1.6-5.236,2.916-11.639,2.916s-11.639-1.316-11.639-2.916V25.139c2.184,1.384,6.552,2.4,11.639,2.4s9.455-.95,11.639-2.4Zm-11.639-.95c-6.4,0-11.639-1.316-11.639-2.916a1.18,1.18,0,0,1,.366-.733c2.252,1.316,6.471,2.184,11.273,2.184s9.021-.868,11.273-2.184a1.013,1.013,0,0,1,.366.733C56.229,24.691,50.993,26.007,44.59,26.007ZM56.229,18.22v1.967c0,1.6-5.236,2.916-11.639,2.916s-11.639-1.316-11.639-2.916V16.4c2.184,1.384,6.552,2.4,11.639,2.4s9.455-.95,11.639-2.4Zm-11.639-.95c-6.4,0-11.639-1.316-11.639-2.916s5.236-2.9,11.639-2.9,11.639,1.316,11.639,2.916S50.993,17.271,44.59,17.271Z" transform="translate(-31.5 -10)" fill="#f48120" stroke="#fff2e8" stroke-width="0.3"/>
      </g>
    </g>
  </g>
</svg>
