<svg xmlns="http://www.w3.org/2000/svg" xmlns:xlink="http://www.w3.org/1999/xlink" width="40" height="40" viewBox="0 0 40 40">
  <defs>
    <clipPath id="clip-path">
      <rect id="Rectangle_3616" data-name="Rectangle 3616" width="40" height="40" transform="translate(379 3253)" fill="none" stroke="#707070" stroke-width="1"/>
    </clipPath>
  </defs>
  <g id="Mask_Group_8048" data-name="Mask Group 8048" transform="translate(-379 -3253)" clip-path="url(#clip-path)">
    <g id="Layer_2" data-name="Layer 2" transform="translate(382.137 3255.924)">
      <g id="invisible_box" data-name="invisible box" transform="translate(-0.213)">
        <rect id="Rectangle_3702" data-name="Rectangle 3702" width="35" height="35" transform="translate(0.076 0.076)" fill="none"/>
      </g>
      <g id="Q3_icons" data-name="Q3 icons" transform="translate(1.441 1.456)">
        <path id="Path_9978" data-name="Path 9978" d="M13.648,13.65v8.738h8.738V13.65ZM20.2,20.2H15.833V15.834H20.2ZM13.648,13.65v8.738h8.738V13.65ZM20.2,20.2H15.833V15.834H20.2ZM13.648,13.65v8.738h8.738V13.65ZM20.2,20.2H15.833V15.834H20.2ZM13.648,13.65v8.738h8.738V13.65ZM20.2,20.2H15.833V15.834H20.2ZM33.744,14.16,30.4,11.393V6a.728.728,0,0,0-.437-.655L22.75,2.073h-.291l-.437.146-4,2.621-4-2.694L13.575,2h-.291L6.076,5.349A.728.728,0,0,0,5.639,6v5.388L2.289,14.16A.582.582,0,0,0,2,14.742V21.3a.655.655,0,0,0,.291.583l3.349,2.767v5.388a.728.728,0,0,0,.437.655l7.208,3.277h.291l.437-.146,4-2.621,4,2.694.437.146h.291l7.208-3.277a.728.728,0,0,0,.437-.655V24.645l3.349-2.767a.655.655,0,0,0,.291-.583V14.742a.582.582,0,0,0-.291-.583ZM22.75,5.641a1.092,1.092,0,1,1-1.092,1.092A1.092,1.092,0,0,1,22.75,5.641Zm-9.466,0a1.092,1.092,0,1,1-1.092,1.092A1.092,1.092,0,0,1,13.284,5.641Zm0,24.756A1.092,1.092,0,1,1,14.376,29.3,1.092,1.092,0,0,1,13.284,30.4Zm9.466,0A1.092,1.092,0,1,1,23.842,29.3,1.092,1.092,0,0,1,22.75,30.4Zm2.913-11.65a1.092,1.092,0,1,1,0,2.184H24.57v2.184a1.456,1.456,0,0,1-1.456,1.456H20.929v1.092a1.092,1.092,0,1,1-2.184,0V24.572H17.289v1.092a1.092,1.092,0,1,1-2.184,0V24.572H12.92a1.456,1.456,0,0,1-1.456-1.456V20.931H10.372a1.092,1.092,0,1,1,0-2.184h1.092V17.291H10.372a1.092,1.092,0,1,1,0-2.184h1.092V12.922a1.456,1.456,0,0,1,1.456-1.456H15.1V10.373a1.092,1.092,0,0,1,2.184,0v1.092h1.456V10.373a1.092,1.092,0,0,1,2.184,0v1.092h2.184a1.456,1.456,0,0,1,1.456,1.456v2.184h1.092a1.092,1.092,0,1,1,0,2.184H24.57v1.456ZM13.648,22.388h8.738V13.65H13.648Zm2.184-6.553H20.2V20.2H15.833ZM13.648,13.65v8.738h8.738V13.65ZM20.2,20.2H15.833V15.834H20.2ZM13.648,13.65v8.738h8.738V13.65ZM20.2,20.2H15.833V15.834H20.2Z" transform="translate(-1.993 -2)"/>
      </g>
    </g>
  </g>
</svg>
