<svg xmlns="http://www.w3.org/2000/svg" xmlns:xlink="http://www.w3.org/1999/xlink" width="30" height="30" viewBox="0 0 30 30">
  <defs>
    <clipPath id="clip-path">
      <rect id="Rectangle_2629" data-name="Rectangle 2629" width="30" height="30" transform="translate(385 3895)" fill="none" stroke="#000" stroke-width="1"/>
    </clipPath>
  </defs>
  <g id="Mask_Group_8023" data-name="Mask Group 8023" transform="translate(-385 -3895)" clip-path="url(#clip-path)">
    <path id="blockchain-svgrepo-com" d="M4.5,6.842A2.342,2.342,0,0,1,6.842,4.5h4.684a2.342,2.342,0,0,1,2.342,2.342V8.4h4.684V6.842A2.342,2.342,0,0,1,20.9,4.5H25.58a2.342,2.342,0,0,1,2.342,2.342v4.684a2.342,2.342,0,0,1-2.342,2.342H24.019v4.684H25.58A2.342,2.342,0,0,1,27.922,20.9V25.58a2.342,2.342,0,0,1-2.342,2.342H20.9a2.342,2.342,0,0,1-2.342-2.342V24.019H13.869V25.58a2.342,2.342,0,0,1-2.342,2.342H6.842A2.342,2.342,0,0,1,4.5,25.58V20.9a2.342,2.342,0,0,1,2.342-2.342H8.4V13.869H6.842A2.342,2.342,0,0,1,4.5,11.527Zm17.957,7.027H20.9a2.342,2.342,0,0,1-2.342-2.342V9.965H13.869v1.561a2.342,2.342,0,0,1-2.342,2.342H9.965v4.684h1.561A2.342,2.342,0,0,1,13.869,20.9v1.561h4.684V20.9A2.342,2.342,0,0,1,20.9,18.553h1.561ZM6.842,6.061a.781.781,0,0,0-.781.781v4.684a.781.781,0,0,0,.781.781h4.684a.781.781,0,0,0,.781-.781V6.842a.781.781,0,0,0-.781-.781ZM6.061,20.9a.781.781,0,0,1,.781-.781h4.684a.781.781,0,0,1,.781.781V25.58a.781.781,0,0,1-.781.781H6.842a.781.781,0,0,1-.781-.781Zm14.053,0a.781.781,0,0,1,.781-.781H25.58a.781.781,0,0,1,.781.781V25.58a.781.781,0,0,1-.781.781H20.9a.781.781,0,0,1-.781-.781Zm0-14.053a.781.781,0,0,1,.781-.781H25.58a.781.781,0,0,1,.781.781v4.684a.781.781,0,0,1-.781.781H20.9a.781.781,0,0,1-.781-.781Z" transform="translate(384.289 3894.289)" fill-rule="evenodd"/>
  </g>
</svg>
