<svg xmlns="http://www.w3.org/2000/svg" width="370" height="185" viewBox="0 0 370 185">
  <g id="Group_8408" data-name="Group 8408" transform="translate(-775 -4275)">
    <rect id="Rectangle_3621" data-name="Rectangle 3621" width="370" height="185" transform="translate(775 4275)" fill="#232323"/>
    <g id="undraw_business_decisions_re_84ag" transform="translate(850 4304)">
      <circle id="Ellipse_132" data-name="Ellipse 132" cx="2.383" cy="2.383" r="2.383" transform="translate(58.736 0)" fill="#e6e6e6"/>
      <circle id="Ellipse_133" data-name="Ellipse 133" cx="2.383" cy="2.383" r="2.383" transform="translate(70.798 0)" fill="#e6e6e6"/>
      <circle id="Ellipse_134" data-name="Ellipse 134" cx="2.383" cy="2.383" r="2.383" transform="translate(82.86 0)" fill="#e6e6e6"/>
      <circle id="Ellipse_135" data-name="Ellipse 135" cx="2.383" cy="2.383" r="2.383" transform="translate(94.922 0)" fill="#e6e6e6"/>
      <circle id="Ellipse_136" data-name="Ellipse 136" cx="2.383" cy="2.383" r="2.383" transform="translate(106.984 0)" fill="#e6e6e6"/>
      <circle id="Ellipse_137" data-name="Ellipse 137" cx="2.383" cy="2.383" r="2.383" transform="translate(58.736 12.213)" fill="#e6e6e6"/>
      <circle id="Ellipse_138" data-name="Ellipse 138" cx="2.383" cy="2.383" r="2.383" transform="translate(70.798 12.213)" fill="#e6e6e6"/>
      <circle id="Ellipse_139" data-name="Ellipse 139" cx="2.383" cy="2.383" r="2.383" transform="translate(82.86 12.213)" fill="#e6e6e6"/>
      <circle id="Ellipse_140" data-name="Ellipse 140" cx="2.383" cy="2.383" r="2.383" transform="translate(94.922 12.213)" fill="#f48120"/>
      <circle id="Ellipse_141" data-name="Ellipse 141" cx="2.383" cy="2.383" r="2.383" transform="translate(106.984 12.213)" fill="#e6e6e6"/>
      <circle id="Ellipse_142" data-name="Ellipse 142" cx="2.383" cy="2.383" r="2.383" transform="translate(131.108 12.213)" fill="#e6e6e6"/>
      <circle id="Ellipse_143" data-name="Ellipse 143" cx="2.383" cy="2.383" r="2.383" transform="translate(58.736 24.427)" fill="#e6e6e6"/>
      <circle id="Ellipse_144" data-name="Ellipse 144" cx="2.383" cy="2.383" r="2.383" transform="translate(70.798 24.427)" fill="#e6e6e6"/>
      <circle id="Ellipse_145" data-name="Ellipse 145" cx="2.383" cy="2.383" r="2.383" transform="translate(82.86 24.427)" fill="#e6e6e6"/>
      <circle id="Ellipse_146" data-name="Ellipse 146" cx="2.383" cy="2.383" r="2.383" transform="translate(94.922 24.427)" fill="#e6e6e6"/>
      <circle id="Ellipse_147" data-name="Ellipse 147" cx="2.383" cy="2.383" r="2.383" transform="translate(106.984 24.427)" fill="#e6e6e6"/>
      <circle id="Ellipse_148" data-name="Ellipse 148" cx="2.383" cy="2.383" r="2.383" transform="translate(58.736 36.64)" fill="#e6e6e6"/>
      <circle id="Ellipse_149" data-name="Ellipse 149" cx="2.383" cy="2.383" r="2.383" transform="translate(70.798 36.64)" fill="#e6e6e6"/>
      <circle id="Ellipse_150" data-name="Ellipse 150" cx="2.383" cy="2.383" r="2.383" transform="translate(82.86 36.64)" fill="#e6e6e6"/>
      <circle id="Ellipse_151" data-name="Ellipse 151" cx="2.383" cy="2.383" r="2.383" transform="translate(94.922 36.64)" fill="#e6e6e6"/>
      <circle id="Ellipse_152" data-name="Ellipse 152" cx="2.383" cy="2.383" r="2.383" transform="translate(106.984 36.64)" fill="#e6e6e6"/>
      <circle id="Ellipse_153" data-name="Ellipse 153" cx="2.383" cy="2.383" r="2.383" transform="translate(119.046 36.64)" fill="#e6e6e6"/>
      <circle id="Ellipse_154" data-name="Ellipse 154" cx="2.383" cy="2.383" r="2.383" transform="translate(131.108 36.64)" fill="#e6e6e6"/>
      <circle id="Ellipse_155" data-name="Ellipse 155" cx="2.383" cy="2.383" r="2.383" transform="translate(143.17 36.64)" fill="#e6e6e6"/>
      <circle id="Ellipse_156" data-name="Ellipse 156" cx="2.383" cy="2.383" r="2.383" transform="translate(155.232 36.64)" fill="#e6e6e6"/>
      <circle id="Ellipse_157" data-name="Ellipse 157" cx="2.383" cy="2.383" r="2.383" transform="translate(167.294 36.64)" fill="#e6e6e6"/>
      <circle id="Ellipse_158" data-name="Ellipse 158" cx="2.383" cy="2.383" r="2.383" transform="translate(106.984 48.854)" fill="#e6e6e6"/>
      <circle id="Ellipse_159" data-name="Ellipse 159" cx="2.383" cy="2.383" r="2.383" transform="translate(119.046 48.854)" fill="#f48120"/>
      <circle id="Ellipse_160" data-name="Ellipse 160" cx="2.383" cy="2.383" r="2.383" transform="translate(131.108 48.854)" fill="#e6e6e6"/>
      <circle id="Ellipse_161" data-name="Ellipse 161" cx="2.383" cy="2.383" r="2.383" transform="translate(143.17 48.854)" fill="#e6e6e6"/>
      <circle id="Ellipse_162" data-name="Ellipse 162" cx="2.383" cy="2.383" r="2.383" transform="translate(155.232 48.854)" fill="#e6e6e6"/>
      <circle id="Ellipse_163" data-name="Ellipse 163" cx="2.383" cy="2.383" r="2.383" transform="translate(167.294 48.854)" fill="#e6e6e6"/>
      <circle id="Ellipse_164" data-name="Ellipse 164" cx="2.383" cy="2.383" r="2.383" transform="translate(106.984 61.067)" fill="#e6e6e6"/>
      <circle id="Ellipse_165" data-name="Ellipse 165" cx="2.383" cy="2.383" r="2.383" transform="translate(119.046 61.067)" fill="#e6e6e6"/>
      <circle id="Ellipse_166" data-name="Ellipse 166" cx="2.383" cy="2.383" r="2.383" transform="translate(131.108 61.067)" fill="#e6e6e6"/>
      <circle id="Ellipse_167" data-name="Ellipse 167" cx="2.383" cy="2.383" r="2.383" transform="translate(143.17 61.067)" fill="#e6e6e6"/>
      <circle id="Ellipse_168" data-name="Ellipse 168" cx="2.383" cy="2.383" r="2.383" transform="translate(155.232 61.067)" fill="#f48120"/>
      <circle id="Ellipse_169" data-name="Ellipse 169" cx="2.383" cy="2.383" r="2.383" transform="translate(167.294 61.067)" fill="#e6e6e6"/>
      <circle id="Ellipse_170" data-name="Ellipse 170" cx="2.383" cy="2.383" r="2.383" transform="translate(106.984 73.281)" fill="#e6e6e6"/>
      <circle id="Ellipse_171" data-name="Ellipse 171" cx="2.383" cy="2.383" r="2.383" transform="translate(119.046 73.281)" fill="#e6e6e6"/>
      <circle id="Ellipse_172" data-name="Ellipse 172" cx="2.383" cy="2.383" r="2.383" transform="translate(131.108 73.281)" fill="#e6e6e6"/>
      <circle id="Ellipse_173" data-name="Ellipse 173" cx="2.383" cy="2.383" r="2.383" transform="translate(143.17 73.281)" fill="#e6e6e6"/>
      <circle id="Ellipse_174" data-name="Ellipse 174" cx="2.383" cy="2.383" r="2.383" transform="translate(155.232 73.281)" fill="#e6e6e6"/>
      <circle id="Ellipse_175" data-name="Ellipse 175" cx="2.383" cy="2.383" r="2.383" transform="translate(167.294 73.281)" fill="#e6e6e6"/>
      <circle id="Ellipse_176" data-name="Ellipse 176" cx="2.383" cy="2.383" r="2.383" transform="translate(58.736 85.494)" fill="#e6e6e6"/>
      <circle id="Ellipse_177" data-name="Ellipse 177" cx="2.383" cy="2.383" r="2.383" transform="translate(70.798 85.494)" fill="#e6e6e6"/>
      <circle id="Ellipse_178" data-name="Ellipse 178" cx="2.383" cy="2.383" r="2.383" transform="translate(82.86 85.494)" fill="#e6e6e6"/>
      <circle id="Ellipse_179" data-name="Ellipse 179" cx="2.383" cy="2.383" r="2.383" transform="translate(94.922 85.494)" fill="#e6e6e6"/>
      <circle id="Ellipse_180" data-name="Ellipse 180" cx="2.383" cy="2.383" r="2.383" transform="translate(106.984 85.494)" fill="#e6e6e6"/>
      <circle id="Ellipse_181" data-name="Ellipse 181" cx="2.383" cy="2.383" r="2.383" transform="translate(119.046 85.494)" fill="#e6e6e6"/>
      <circle id="Ellipse_182" data-name="Ellipse 182" cx="2.383" cy="2.383" r="2.383" transform="translate(131.108 85.494)" fill="#e6e6e6"/>
      <circle id="Ellipse_183" data-name="Ellipse 183" cx="2.383" cy="2.383" r="2.383" transform="translate(143.17 85.494)" fill="#e6e6e6"/>
      <circle id="Ellipse_184" data-name="Ellipse 184" cx="2.383" cy="2.383" r="2.383" transform="translate(155.232 85.494)" fill="#e6e6e6"/>
      <circle id="Ellipse_185" data-name="Ellipse 185" cx="2.383" cy="2.383" r="2.383" transform="translate(167.294 85.494)" fill="#e6e6e6"/>
      <circle id="Ellipse_186" data-name="Ellipse 186" cx="2.383" cy="2.383" r="2.383" transform="translate(58.734 97.708)" fill="#e6e6e6"/>
      <circle id="Ellipse_187" data-name="Ellipse 187" cx="2.383" cy="2.383" r="2.383" transform="translate(70.798 97.708)" fill="#e6e6e6"/>
      <circle id="Ellipse_188" data-name="Ellipse 188" cx="2.383" cy="2.383" r="2.383" transform="translate(58.734 109.921)" fill="#e6e6e6"/>
      <circle id="Ellipse_189" data-name="Ellipse 189" cx="2.383" cy="2.383" r="2.383" transform="translate(70.798 109.921)" fill="#e6e6e6"/>
      <circle id="Ellipse_190" data-name="Ellipse 190" cx="2.383" cy="2.383" r="2.383" transform="translate(94.922 109.921)" fill="#e6e6e6"/>
      <path id="Path_9631" data-name="Path 9631" d="M658.472,218.142H564.043a1.751,1.751,0,0,1-1.749-1.749V192.97a1.751,1.751,0,0,1,1.749-1.749h94.429a1.751,1.751,0,0,1,1.749,1.749v23.424A1.751,1.751,0,0,1,658.472,218.142ZM564.043,191.92a1.05,1.05,0,0,0-1.049,1.049v23.424a1.05,1.05,0,0,0,1.049,1.049h94.429a1.05,1.05,0,0,0,1.049-1.049V192.97a1.05,1.05,0,0,0-1.049-1.049Z" transform="translate(-440.936 -190.029)" fill="#e6e6e6"/>
      <circle id="Ellipse_191" data-name="Ellipse 191" cx="7.344" cy="7.344" r="7.344" transform="translate(128.003 7.308)" fill="#f48120"/>
      <path id="Path_9632" data-name="Path 9632" d="M648.518,215.708a1.224,1.224,0,0,0,0,2.448h32.526a1.224,1.224,0,1,0,0-2.448Z" transform="translate(-496.208 -205.952)" fill="#e6e6e6"/>
      <path id="Path_9633" data-name="Path 9633" d="M648.518,236.708a1.224,1.224,0,0,0,0,2.448h57.707a1.224,1.224,0,0,0,0-2.448Z" transform="translate(-496.208 -219.608)" fill="#e6e6e6"/>
      <path id="Path_9634" data-name="Path 9634" d="M311.472,354.142H217.043a1.751,1.751,0,0,1-1.749-1.749V328.97a1.751,1.751,0,0,1,1.749-1.749h94.429a1.751,1.751,0,0,1,1.749,1.749v23.424A1.751,1.751,0,0,1,311.472,354.142ZM217.043,327.92a1.05,1.05,0,0,0-1.049,1.049v23.424a1.05,1.05,0,0,0,1.049,1.049h94.429a1.05,1.05,0,0,0,1.049-1.049V328.97a1.05,1.05,0,0,0-1.049-1.049Z" transform="translate(-215.294 -278.465)" fill="#e6e6e6"/>
      <circle id="Ellipse_192" data-name="Ellipse 192" cx="7.344" cy="7.344" r="7.344" transform="translate(6.645 54.872)" fill="#f48120"/>
      <path id="Path_9635" data-name="Path 9635" d="M301.518,351.708a1.224,1.224,0,1,0,0,2.448h33.924a1.224,1.224,0,1,0,0-2.448Z" transform="translate(-270.567 -294.388)" fill="#e6e6e6"/>
      <path id="Path_9636" data-name="Path 9636" d="M301.518,372.708a1.224,1.224,0,1,0,0,2.448h57.707a1.224,1.224,0,0,0,0-2.448Z" transform="translate(-270.567 -308.043)" fill="#e6e6e6"/>
      <path id="Path_9637" data-name="Path 9637" d="M555.472,501.142H461.043a1.751,1.751,0,0,1-1.749-1.749V475.97a1.751,1.751,0,0,1,1.749-1.749h94.429a1.751,1.751,0,0,1,1.749,1.749v23.424a1.751,1.751,0,0,1-1.749,1.749ZM461.043,474.92a1.05,1.05,0,0,0-1.049,1.049v23.424a1.05,1.05,0,0,0,1.049,1.049h94.429a1.05,1.05,0,0,0,1.049-1.049V475.97a1.05,1.05,0,0,0-1.049-1.049Z" transform="translate(-373.959 -374.054)" fill="#575757"/>
      <circle id="Ellipse_193" data-name="Ellipse 193" cx="7.344" cy="7.344" r="7.344" transform="translate(91.981 106.284)" fill="#f48120"/>
      <path id="Path_9638" data-name="Path 9638" d="M545.518,498.708a1.224,1.224,0,0,0,0,2.448h31.127a1.224,1.224,0,1,0,0-2.448Z" transform="translate(-429.231 -389.977)" fill="#e6e6e6"/>
      <path id="Path_9639" data-name="Path 9639" d="M545.518,519.708a1.224,1.224,0,0,0,0,2.448h57.707a1.224,1.224,0,0,0,0-2.448Z" transform="translate(-429.231 -403.632)" fill="#e6e6e6"/>
    </g>
  </g>
</svg>
