<svg xmlns="http://www.w3.org/2000/svg" width="60" height="60" viewBox="0 0 60 60">
  <g id="Data_deriven" transform="translate(-400 -2932)">
    <circle id="Ellipse_14" data-name="Ellipse 14" cx="30" cy="30" r="30" transform="translate(400 2932)" fill="#fff2e8"/>
    <g id="Group_8398" data-name="Group 8398" transform="translate(257.05 67)">
      <path id="Path_9316" data-name="Path 9316" d="M96.983,102.82h-.144a2.95,2.95,0,0,1-2.074-.979l-7.532-8.093h-.3a6.125,6.125,0,0,1-6.653-1.426,6.022,6.022,0,0,1-1.915-3.845,3.471,3.471,0,0,1,.2-1.382,1.658,1.658,0,0,1,1.238-1.08,1.746,1.746,0,0,1,1.627.446l1.728,1.728h.2l1.67-.3a.263.263,0,0,0,.2-.2l.3-1.67a.246.246,0,0,0,0-.144l-1.728-1.728a1.726,1.726,0,0,1-.49-1.57,1.706,1.706,0,0,1,1.037-1.238,3.464,3.464,0,0,1,1.426-.245,5.969,5.969,0,0,1,3.845,1.872c1.526,1.526,2.506,4.536,1.382,6.754v.144l.1.1.1.1.3.3,7.776,7.042a2.843,2.843,0,0,1,.979,2.074,3.184,3.184,0,0,1-3.053,3.341h-.23Zm-9.85-10.6a1.558,1.558,0,0,1,1.138.49l7.632,8.122a1.422,1.422,0,0,0,1.037.49,1.81,1.81,0,0,0,1.325-.49,1.769,1.769,0,0,0,.49-1.282,1.422,1.422,0,0,0-.49-1.037L89.6,90.637l.1-.1a1.6,1.6,0,0,1,.043-1.526c.792-1.526.043-3.845-1.138-5.026a4.53,4.53,0,0,0-2.909-1.426,2.044,2.044,0,0,0-.835.144.185.185,0,0,0-.144.144.252.252,0,0,0,.043.245l1.728,1.728a1.72,1.72,0,0,1,.49,1.526l-.3,1.67A1.717,1.717,0,0,1,85.29,89.4l-1.656.317a1.72,1.72,0,0,1-1.526-.49L80.379,87.5a.252.252,0,0,0-.245-.043.185.185,0,0,0-.144.144,2.09,2.09,0,0,0-.144.792A4.708,4.708,0,0,0,81.272,91.3a4.758,4.758,0,0,0,5.069,1.138,1.914,1.914,0,0,1,.792-.216Z" transform="translate(87.437 2807.149)" fill="#f48120" stroke="#fff2e8" stroke-width="0.5"/>
      <path id="Path_9318" data-name="Path 9318" d="M28.966,43.986H24.53a.738.738,0,0,1-.734-.734V40.688a13.734,13.734,0,0,1-4.637-2.016l-1.771,1.771a.73.73,0,0,1-1.037,0L13.2,37.289a.73.73,0,0,1,0-1.037l1.973-1.915A13.573,13.573,0,0,1,13.5,29.7H10.734A.738.738,0,0,1,10,28.966V24.53a.738.738,0,0,1,.734-.734h3.053a13.337,13.337,0,0,1,1.973-4.133l-2.218-2.232a.73.73,0,0,1,0-1.037L16.7,13.24a.73.73,0,0,1,1.037,0L20.2,15.7a13.653,13.653,0,0,1,4.09-1.483V10.734A.738.738,0,0,1,25.02,10h4.435a.738.738,0,0,1,.734.734v3.643a13.131,13.131,0,0,1,3.888,1.67L36.555,13.6a.73.73,0,0,1,1.037,0l3.154,3.154a.73.73,0,0,1,0,1.037l-2.463,2.463a13.343,13.343,0,0,1,1.728,4.032h3.255A.738.738,0,0,1,44,25.02v4.435a.738.738,0,0,1-.734.734H40.1a14.8,14.8,0,0,1-.59,2.074.73.73,0,0,1-.95.432.564.564,0,0,1-.23-.144l-2.117-1.872a.712.712,0,0,1-.245-.734,9.517,9.517,0,1,0-6.495,6.639.712.712,0,0,1,.734.245L32.033,38.9a.731.731,0,0,1-.058,1.037,1.243,1.243,0,0,1-.23.144,12.316,12.316,0,0,1-2.117.634v2.506a.778.778,0,0,1-.662.763Zm-3.7-1.483h2.952V40.1a.733.733,0,0,1,.634-.734l1.426-.346-.835-.835a11.023,11.023,0,1,1,8.093-8.28l.936.792c.13-.432.216-.878.3-1.325a.71.71,0,0,1,.734-.634h3.01V25.783h-3.1a.728.728,0,0,1-.734-.59,11.914,11.914,0,0,0-1.973-4.579.723.723,0,0,1,.1-.936l2.362-2.362L37.1,15.2,34.74,17.56a.741.741,0,0,1-.936.1,11.92,11.92,0,0,0-4.479-1.973.74.74,0,0,1-.59-.734V11.483H25.783v3.355a.733.733,0,0,1-.634.734,12.137,12.137,0,0,0-4.637,1.67.723.723,0,0,1-.936-.1l-2.333-2.319L15.17,16.9l2.16,2.16a.73.73,0,0,1,.043.979,11.8,11.8,0,0,0-2.261,4.68.74.74,0,0,1-.734.59H11.483V28.26h2.664a.733.733,0,0,1,.734.634,12.134,12.134,0,0,0,1.829,5.127.723.723,0,0,1-.1.936l-1.829,1.829L16.9,38.8l1.67-1.67a.73.73,0,0,1,.979-.043,11.843,11.843,0,0,0,5.127,2.261.74.74,0,0,1,.59.734Z" transform="translate(145.95 2868)" fill="#f48120" stroke="#fff2e8" stroke-width="0.5"/>
    </g>
  </g>
</svg>
