<svg xmlns="http://www.w3.org/2000/svg" xmlns:xlink="http://www.w3.org/1999/xlink" width="35" height="35" viewBox="0 0 35 35">
  <defs>
    <clipPath id="clip-path">
      <rect id="Rectangle_3866" data-name="Rectangle 3866" width="35" height="35" transform="translate(401 4812)" fill="none" stroke="#707070" stroke-width="1"/>
    </clipPath>
    <clipPath id="clip-path-2">
      <rect id="Rectangle_3868" data-name="Rectangle 3868" width="34" height="25.523" fill="none"/>
    </clipPath>
  </defs>
  <g id="Mask_Group_8018" data-name="Mask Group 8018" transform="translate(-401 -4812)" clip-path="url(#clip-path)">
    <g id="Group_8625" data-name="Group 8625" transform="translate(402 4816.739)">
      <g id="Group_8625-2" data-name="Group 8625" clip-path="url(#clip-path-2)">
        <path id="Path_9321" data-name="Path 9321" d="M82.654,70.582c-.529-.631-1.021-1.224-1.52-1.811-.485-.57-.988-1.123-1.463-1.7a4.917,4.917,0,0,0-1.846-1.356,9.486,9.486,0,0,0-8.538.214c-.115.058-.231.115-.4.2a2.29,2.29,0,0,1,.085-.274q1.051-2.181,2.105-4.361a1,1,0,0,1,.431-.469c.464-.255.915-.536,1.388-.774a3.925,3.925,0,0,1,1.744-.413,8.987,8.987,0,0,1,2.48.186,6.285,6.285,0,0,1,2.149,1.084.848.848,0,0,1,.342.567c.122.688.251,1.375.379,2.061.013.07.038.138.067.238a2.031,2.031,0,0,0,1.125-.19,2.885,2.885,0,0,1,3.118.069c.338.216.673.083,1.036.146.068-.389.133-.741.192-1.095s.112-.714.166-1.071a1.229,1.229,0,0,1,.431-.766,5,5,0,0,1,3.246-1.225,8,8,0,0,1,3.027.4,5.125,5.125,0,0,1,1.562.891.9.9,0,0,1,.223.278q1.139,2.26,2.266,4.526a1.72,1.72,0,0,1,.06.187c-.159-.078-.262-.126-.364-.178a9.423,9.423,0,0,0-9.52.239,2.851,2.851,0,0,0-.72.6c-.984,1.126-1.948,2.269-2.919,3.406-.1.118-.2.24-.329.4" transform="translate(-65.652 -57.024)" fill="#191919"/>
        <path id="Path_9322" data-name="Path 9322" d="M8.121,214.233a8.116,8.116,0,1,1,8.114-8.127,8.091,8.091,0,0,1-8.114,8.127m.021-13.575a5.389,5.389,0,1,0,5.373,5.386,5.4,5.4,0,0,0-5.373-5.386" transform="translate(0 -188.711)" fill="#191919"/>
        <path id="Path_9323" data-name="Path 9323" d="M386.755,214.235a8.116,8.116,0,1,1,8.118-8.124,8.111,8.111,0,0,1-8.118,8.124m.009-13.575a5.391,5.391,0,1,0,5.374,5.409,5.327,5.327,0,0,0-5.374-5.409" transform="translate(-360.873 -188.712)" fill="#191919"/>
        <path id="Path_9324" data-name="Path 9324" d="M442.573,2.478A2.948,2.948,0,0,1,444.859.566a3.524,3.524,0,0,1,3.53,1.386,2.976,2.976,0,0,1-.367-.031,7.989,7.989,0,0,0-5.348.534.467.467,0,0,1-.1.022" transform="translate(-421.809 -0.478)" fill="#f48120"/>
        <path id="Path_9325" data-name="Path 9325" d="M165.639,1.977a9.181,9.181,0,0,0-2.827-.737,10.135,10.135,0,0,0-2.9.2A3.143,3.143,0,0,1,162.831.013a3.261,3.261,0,0,1,2.808,1.964" transform="translate(-152.406 0)" fill="#f48120"/>
      </g>
    </g>
  </g>
</svg>
