<svg xmlns="http://www.w3.org/2000/svg" xmlns:xlink="http://www.w3.org/1999/xlink" width="35" height="35" viewBox="0 0 35 35">
  <defs>
    <clipPath id="clip-path">
      <rect id="Rectangle_3866" data-name="Rectangle 3866" width="35" height="35" transform="translate(401 4812)" fill="none" stroke="#707070" stroke-width="1"/>
    </clipPath>
    <clipPath id="clip-path-2">
      <rect id="Rectangle_3869" data-name="Rectangle 3869" width="34" height="34.007" fill="none"/>
    </clipPath>
  </defs>
  <g id="Mask_Group_8018" data-name="Mask Group 8018" transform="translate(-401 -4812)" clip-path="url(#clip-path)">
    <g id="Group_8626" data-name="Group 8626" transform="translate(401 4812)">
      <g id="Group_8626-2" data-name="Group 8626" clip-path="url(#clip-path-2)">
        <path id="Path_9326" data-name="Path 9326" d="M34.018,262.95a3.239,3.239,0,0,1-.446.556,1.29,1.29,0,0,1-.522.177,1.509,1.509,0,0,1-.331.005H1.318c-.111,0-.222,0-.332,0a1,1,0,0,1,0-2c.351-.012.7,0,1.087,0,0-.15,0-.269,0-.388q0-3.253,0-6.506a1,1,0,0,1,.754-1.04,1.306,1.306,0,0,1,.328-.033q1.909,0,3.817,0a1.006,1.006,0,0,1,1.091,1.1q0,3.236,0,6.473v.376h1.975v-.393q0-4.415,0-8.829a1.007,1.007,0,0,1,.746-1.078,1.543,1.543,0,0,1,.394-.037c1.228,0,2.457.022,3.684-.01a1.1,1.1,0,0,1,1.176,1.165c-.02,2.921-.009,5.842-.009,8.763v.415h1.975v-.38q0-6.207,0-12.414a1.739,1.739,0,0,1,.055-.489.944.944,0,0,1,.908-.7q2.025-.013,4.049,0a.986.986,0,0,1,.975.977c0,.11,0,.221,0,.332q0,6.124,0,12.248c0,.132,0,.264,0,.421h1.966c0-.113.009-.24.009-.368q0-7.17,0-14.339,0-2.423,0-4.846a1,1,0,0,1,.759-1.035,1.333,1.333,0,0,1,.328-.032c1.272,0,2.545.012,3.817-.007a1.071,1.071,0,0,1,1.092,1.111c-.013,3.474-.006,6.948-.006,10.423q0,4.348,0,8.7v.423c.282,0,.535.017.785,0a1.147,1.147,0,0,1,1.265.742Z" transform="translate(-0.018 -229.689)" fill="#191919"/>
        <path id="Path_9327" data-name="Path 9327" d="M34,7.369c-.023.036-.05.07-.069.107a.964.964,0,0,1-.946.6,1.1,1.1,0,0,1-.969-.787c-.144-.51-.275-1.024-.411-1.536q-.235-.88-.471-1.76c-.014-.052-.037-.1-.069-.186-.053.07-.092.115-.123.165A33.913,33.913,0,0,1,24.6,11.512a40.525,40.525,0,0,1-9.442,6.4,35,35,0,0,1-8.827,2.981,27.668,27.668,0,0,1-5.24.513,1.028,1.028,0,0,1-.915-.438,1,1,0,0,1,.515-1.513,1.427,1.427,0,0,1,.423-.064,28.841,28.841,0,0,0,10.468-2.113A38.1,38.1,0,0,0,25.006,8.331,29.159,29.159,0,0,0,29.254,2.87c.045-.076.087-.153.15-.265a1.777,1.777,0,0,0-.227.027c-1.153.306-2.3.616-3.458.918a1.6,1.6,0,0,1-.52.071.981.981,0,0,1-.9-.868,1,1,0,0,1,.721-1.093c.5-.146,1-.27,1.5-.4Q28.665.684,30.809.11a2.241,2.241,0,0,0,.27-.11h.6a1.459,1.459,0,0,1,.758,1.048c.466,1.813.961,3.618,1.448,5.425a2.758,2.758,0,0,0,.118.3Z" transform="translate(0)" fill="#f48120"/>
      </g>
    </g>
  </g>
</svg>
