<svg xmlns="http://www.w3.org/2000/svg" xmlns:xlink="http://www.w3.org/1999/xlink" width="35" height="35" viewBox="0 0 35 35">
  <defs>
    <clipPath id="clip-path">
      <rect id="Rectangle_3866" data-name="Rectangle 3866" width="35" height="35" transform="translate(401 4812)" fill="none" stroke="#707070" stroke-width="1"/>
    </clipPath>
    <clipPath id="clip-path-2">
      <rect id="Rectangle_3871" data-name="Rectangle 3871" width="34" height="32.219" fill="none"/>
    </clipPath>
  </defs>
  <g id="Mask_Group_8018" data-name="Mask Group 8018" transform="translate(-401 -4812)" clip-path="url(#clip-path)">
    <g id="Group_8629" data-name="Group 8629" transform="translate(401 4814.781)">
      <g id="Group_8628" data-name="Group 8628" clip-path="url(#clip-path-2)">
        <path id="Path_9335" data-name="Path 9335" d="M9.959,307.97a7.769,7.769,0,0,0-.9,2.671c.22,0,.417,0,.612,0a3.018,3.018,0,0,1,.528.037.539.539,0,0,1,.427.538.547.547,0,0,1-.411.552,1.489,1.489,0,0,1-.385.044q-4.767,0-9.533,0c-.092,0-.185-.013-.3-.022v-2.3c.1-.044.217-.1.335-.144.726-.282,1.449-.571,2.18-.836a.492.492,0,0,0,.355-.382,13.616,13.616,0,0,1,1.537-3.714.531.531,0,0,0,.02-.557c-.326-.707-.638-1.42-.954-2.132-.047-.107-.087-.217-.119-.3l3.275-3.274c.059.022.157.054.252.1.744.329,1.49.656,2.23.994a.461.461,0,0,0,.485-.027,13.519,13.519,0,0,1,3.677-1.532.588.588,0,0,0,.459-.418c.274-.753.574-1.5.854-2.249a.332.332,0,0,1,.358-.26c1.394.008,2.788,0,4.182.006a1.452,1.452,0,0,1,.163.021c.04.086.089.178.126.274q.441,1.138.877,2.279c.057.148.116.267.3.311a14.313,14.313,0,0,1,4.047,1.7l2.7-1.194,3.291,3.29c-.02.051-.061.171-.112.286-.32.723-.637,1.447-.967,2.165a.472.472,0,0,0,.023.494,13.677,13.677,0,0,1,1.552,3.746.469.469,0,0,0,.328.364c.741.274,1.477.562,2.214.846.109.042.216.09.333.138v2.309c-.119.006-.233.018-.347.018q-4.731,0-9.462.005a1.683,1.683,0,0,1-.386-.037.55.55,0,0,1-.439-.565.536.536,0,0,1,.466-.541c.256-.035.518-.02.777-.029.092,0,.184-.012.275-.017a6.313,6.313,0,0,0-.86-2.643l-.537.3c-.134.074-.264.159-.4.221a.571.571,0,0,1-.759-.246.552.552,0,0,1,.194-.746c.235-.157.488-.287.732-.431.04-.023.074-.054.147-.109a7.82,7.82,0,0,0-2.056-1.906l-.334.562c-.066.112-.125.228-.2.335a.574.574,0,1,1-.988-.586c.106-.21.234-.41.35-.616.046-.081.084-.167.135-.268a7.4,7.4,0,0,0-2.735-.678c0,.35.007.666,0,.982a.574.574,0,1,1-1.147.029c-.009-.165,0-.331,0-.5s0-.3,0-.512a7.262,7.262,0,0,0-2.743.684c.164.288.331.546.461.822a.94.94,0,0,1,.088.472.5.5,0,0,1-.417.43.533.533,0,0,1-.593-.22c-.121-.174-.221-.363-.329-.545-.071-.12-.141-.242-.209-.358a6.034,6.034,0,0,0-2.063,1.9c.171.1.343.2.513.3a3.691,3.691,0,0,1,.39.243.569.569,0,0,1-.581.97c-.214-.1-.413-.228-.619-.343-.112-.062-.224-.123-.359-.2" transform="translate(0 -280.83)" fill="#191919"/>
        <path id="Path_9336" data-name="Path 9336" d="M498.02,18.07l-2.1-2.108-2.23.983V5.509a2.806,2.806,0,0,0-.3-.035c-.461,0-.921,0-1.382,0a1.279,1.279,0,0,1-.282-.018.3.3,0,0,1-.2-.489,1.953,1.953,0,0,1,.176-.221l3.738-4.4c.046-.054.091-.109.14-.16.229-.246.385-.246.612.016.356.41.705.826,1.057,1.24l2.8,3.294.136.163a.332.332,0,0,1-.278.575c-.5,0-.992,0-1.488,0-.094,0-.187.009-.319.015V18.057l-.084.013" transform="translate(-468.251 0)" fill="#f48120"/>
        <path id="Path_9337" data-name="Path 9337" d="M47.752,158.677v4.232l-2.224-.981-2.181,2.18v-5.4c-.13-.01-.231-.025-.332-.026q-.708,0-1.417,0c-.181,0-.366,0-.45-.2-.075-.183.036-.312.146-.442q1.709-2.01,3.415-4.022c.176-.207.348-.417.529-.619.234-.26.377-.263.609.005.571.661,1.133,1.329,1.7,2l2.176,2.565a2.068,2.068,0,0,1,.157.192.312.312,0,0,1-.262.52c-.188.015-.378,0-.566,0h-1.3" transform="translate(-39.181 -145.962)" fill="#f48120"/>
        <path id="Path_9338" data-name="Path 9338" d="M272.922,82.125v3.713h-4.4V82.125h-.806c-.319,0-.637,0-.956,0-.17,0-.341-.007-.425-.186s.014-.312.127-.444q.816-.956,1.627-1.916l2.2-2.591a2.743,2.743,0,0,1,.188-.212.3.3,0,0,1,.49.005c.187.2.356.409.532.616q1.674,1.97,3.344,3.941c.145.171.393.329.255.6s-.412.175-.638.179c-.494.009-.989,0-1.534,0" transform="translate(-253.719 -73.03)" fill="#f48120"/>
        <path id="Path_9339" data-name="Path 9339" d="M333.9,598.588a1.265,1.265,0,0,1-.793-2.107,1.16,1.16,0,0,1,1.321-.342.69.69,0,0,0,.652-.069c.822-.488,1.653-.961,2.481-1.438a1.842,1.842,0,0,1,.283-.146.564.564,0,0,1,.676.241.573.573,0,0,1-.1.712,1.7,1.7,0,0,1-.293.2c-.827.479-1.651.964-2.485,1.43a.652.652,0,0,0-.369.5,1.258,1.258,0,0,1-1.372,1.023" transform="translate(-317.046 -566.369)" fill="#191919"/>
      </g>
    </g>
  </g>
</svg>
