<svg xmlns="http://www.w3.org/2000/svg" xmlns:xlink="http://www.w3.org/1999/xlink" width="35" height="35" viewBox="0 0 35 35">
  <defs>
    <clipPath id="clip-path">
      <rect id="Rectangle_3866" data-name="Rectangle 3866" width="35" height="35" transform="translate(401 4812)" fill="none" stroke="#707070" stroke-width="1"/>
    </clipPath>
    <clipPath id="clip-path-2">
      <rect id="Rectangle_3865" data-name="Rectangle 3865" width="24.5" height="30.8" fill="#fff"/>
    </clipPath>
  </defs>
  <g id="Mask_Group_8018" data-name="Mask Group 8018" transform="translate(-401 -4812)" clip-path="url(#clip-path)">
    <g id="Group_8615" data-name="Group 8615" transform="translate(406.6 4814.1)">
      <g id="Group_8614" data-name="Group 8614" clip-path="url(#clip-path-2)">
        <path id="Path_9305" data-name="Path 9305" d="M103.5,0a1.077,1.077,0,0,1,.705.958c.134,1.083.3,2.162.45,3.243a2.381,2.381,0,0,1,.05.356.664.664,0,0,0,.22.475q1.268,1.375,2.529,2.757,1.192,1.3,2.384,2.6a2.087,2.087,0,0,1,.11,2.891q-.561.709-1.136,1.408a2.1,2.1,0,0,1-2.527.656c-1.191-.468-2.378-.942-3.567-1.414a1.312,1.312,0,0,0-.852-.108,1.086,1.086,0,0,0-.7,1.572,2.834,2.834,0,0,0,.2.3c.645.9,1.287,1.8,1.939,2.689a1.294,1.294,0,0,1,.271.837c-.015.471,0,.942,0,1.413,0,.068-.007.136-.012.22H90.446c-.092-.443-.194-.881-.274-1.322a19.724,19.724,0,0,1-.307-4.607A13.057,13.057,0,0,1,92.5,7.387,12.174,12.174,0,0,1,96.209,4.25a16.75,16.75,0,0,1,3.829-1.544,1.132,1.132,0,0,0,.556-.332q.9-.957,1.818-1.894a6.067,6.067,0,0,1,.607-.48Zm-.854,8.786a.9.9,0,0,0-.906-.9.893.893,0,0,0-.011,1.786.907.907,0,0,0,.917-.888" transform="translate(-85.981)" fill="#191919"/>
        <path id="Path_9306" data-name="Path 9306" d="M11.247,637.717H21.3c.081,0,.162,0,.242,0a.892.892,0,0,1,.9.875q.02.931,0,1.863a.894.894,0,0,1-.889.883c-.081,0-.161,0-.242,0H1.142c-.081,0-.162,0-.242,0a.9.9,0,0,1-.885-.86q-.028-.946,0-1.893a.9.9,0,0,1,.908-.868c.091,0,.182,0,.273,0H11.247" transform="translate(0 -610.541)" fill="#191919"/>
        <path id="Path_9307" data-name="Path 9307" d="M74.174,534.467H56.61a2.289,2.289,0,0,1-.024-.23c0-.5,0-1,0-1.5a.917.917,0,0,1,.989-.973q7.8,0,15.6-.007a.961.961,0,0,1,1,1c-.019.56,0,1.121,0,1.715" transform="translate(-54.154 -509.093)" fill="#191919"/>
        <path id="Path_9308" data-name="Path 9308" d="M10.83,47.313l-.359.177a13.809,13.809,0,0,0-7.793,9.892,19.59,19.59,0,0,0-.356,4.84c.007.178.024.355.039.563a2.019,2.019,0,0,1-.216-.061q-.655-.274-1.307-.554a.877.877,0,0,1-.588-.894,20.367,20.367,0,0,1,1.831-7.993,10.68,10.68,0,0,1,3.9-4.491,9.9,9.9,0,0,1,4.786-1.515c.008,0,.017.01.061.036" transform="translate(-0.239 -45.262)" fill="#f48120"/>
      </g>
    </g>
  </g>
</svg>
