<svg xmlns="http://www.w3.org/2000/svg" width="370" height="185" viewBox="0 0 370 185">
  <g id="Group_8411" data-name="Group 8411" transform="translate(-775 -4275)">
    <rect id="Rectangle_3621" data-name="Rectangle 3621" width="370" height="185" transform="translate(775 4275)" fill="#232323"/>
    <g id="Group_8412" data-name="Group 8412" transform="translate(-5447.545 455.952)">
      <g id="undraw_investing_re_bov7" transform="translate(6325.85 3857)">
        <path id="Path_9629" data-name="Path 9629" d="M104.657,54.3l-.3-.4,28.576-21.275,28.019,20.9,28.4-30.837.051-.021,27.564-11.376.189.459L189.649,23.106,161.018,54.192,132.937,33.246Z" transform="translate(-95.546 -8.489)" fill="#fff"/>
        <path id="Path_9610" data-name="Path 9610" d="M267.2,417.881H251.79a1.576,1.576,0,0,1-1.574-1.574V365.518a1.576,1.576,0,0,1,1.574-1.574H267.2a1.576,1.576,0,0,1,1.574,1.574v50.789A1.576,1.576,0,0,1,267.2,417.881Z" transform="translate(-250.216 -308.786)" fill="#f48120"/>
        <path id="Path_9611" data-name="Path 9611" d="M380.441,356.847H365.027a1.576,1.576,0,0,1-1.574-1.574V284.329a1.576,1.576,0,0,1,1.574-1.574h15.414a1.576,1.576,0,0,1,1.574,1.574v70.943A1.576,1.576,0,0,1,380.441,356.847Z" transform="translate(-335.343 -247.751)" fill="#f48120"/>
        <path id="Path_9612" data-name="Path 9612" d="M493.679,417.881H478.265a1.576,1.576,0,0,1-1.574-1.574V365.518a1.576,1.576,0,0,1,1.574-1.574h15.414a1.576,1.576,0,0,1,1.574,1.574v50.789A1.576,1.576,0,0,1,493.679,417.881Z" transform="translate(-420.471 -308.786)" fill="#f48120"/>
        <path id="Path_9613" data-name="Path 9613" d="M606.917,332.752H591.5a1.542,1.542,0,0,1-1.574-1.5V252.208a1.542,1.542,0,0,1,1.574-1.5h15.414a1.542,1.542,0,0,1,1.574,1.5v79.041A1.542,1.542,0,0,1,606.917,332.752Z" transform="translate(-505.599 -223.656)" fill="#f48120"/>
        <path id="Path_9614" data-name="Path 9614" d="M720.154,289.387H704.74a1.576,1.576,0,0,1-1.574-1.574V194.594a1.576,1.576,0,0,1,1.574-1.574h15.414a1.576,1.576,0,0,1,1.574,1.574v93.218A1.576,1.576,0,0,1,720.154,289.387Z" transform="translate(-590.727 -180.291)" fill="#f48120"/>
        <circle id="Ellipse_126" data-name="Ellipse 126" cx="3.182" cy="3.182" r="3.182" transform="translate(6.099 42.43)" fill="#9c9c9c"/>
        <circle id="Ellipse_127" data-name="Ellipse 127" cx="3.182" cy="3.182" r="3.182" transform="translate(34.209 21.745)" fill="#9c9c9c"/>
        <circle id="Ellipse_128" data-name="Ellipse 128" cx="3.182" cy="3.182" r="3.182" transform="translate(62.319 42.43)" fill="#9c9c9c"/>
        <circle id="Ellipse_129" data-name="Ellipse 129" cx="3.182" cy="3.182" r="3.182" transform="translate(90.428 11.668)" fill="#9c9c9c"/>
        <circle id="Ellipse_130" data-name="Ellipse 130" cx="3.182" cy="3.182" r="3.182" transform="translate(118.538 0)" fill="#9c9c9c"/>
      </g>
      <g id="Group_8411-2" data-name="Group 8411" transform="translate(6443.158 3888.186)">
        <circle id="Ellipse_131" data-name="Ellipse 131" cx="22" cy="22" r="22" transform="translate(0.387 0.027)" fill="#fff"/>
        <path id="Path_9630" data-name="Path 9630" d="M21.928-74v3.559H6.517l-.7-2.288a9.77,9.77,0,0,0,2.1-2.844,8.6,8.6,0,0,0,.667-3.606,6.714,6.714,0,0,0-.064-.731H4.992v-3.05H7.629a13.987,13.987,0,0,1-.635-3.908A7.159,7.159,0,0,1,7.931-90.6,6.116,6.116,0,0,1,10.553-93a8.694,8.694,0,0,1,3.876-.826,7.084,7.084,0,0,1,5.386,1.954,7.316,7.316,0,0,1,1.954,5h-4.1a3.646,3.646,0,0,0-.794-2.4,3,3,0,0,0-2.383-.874,3.167,3.167,0,0,0-2.367.89,3.764,3.764,0,0,0-.874,2.733,7.74,7.74,0,0,0,.175,1.636q.175.81.524,1.922h5.974v3.05H12.745a6.743,6.743,0,0,1,.064.763,7.455,7.455,0,0,1-.524,2.717A7,7,0,0,1,10.68-74Z" transform="translate(8.059 102.648)"/>
      </g>
    </g>
  </g>
</svg>
