<svg xmlns="http://www.w3.org/2000/svg" xmlns:xlink="http://www.w3.org/1999/xlink" width="45" height="45" viewBox="0 0 45 45">
  <defs>
    <linearGradient id="linear-gradient" x1="0.5" x2="0.156" y2="0.791" gradientUnits="objectBoundingBox">
      <stop offset="0" stop-color="#3e3e3e"/>
      <stop offset="1" stop-color="#1a1a1a"/>
    </linearGradient>
  </defs>
  <g id="data_analytics" transform="translate(-630 -457)">
    <g id="banner-main6" transform="translate(630 457)">
      <circle id="Ellipse_1" data-name="Ellipse 1" cx="22.5" cy="22.5" r="22.5" fill="url(#linear-gradient)"/>
    </g>
    <g id="data" transform="translate(608.5 458.018)">
      <g id="Group_8377" data-name="Group 8377" transform="translate(34.5 9.982)">
        <g id="Group_8376" data-name="Group 8376" transform="translate(0 0)">
          <path id="Path_9269" data-name="Path 9269" d="M41.93,10a18.653,18.653,0,0,0-6.283,1.1c-.924.428-1.323,1.041-1.06,1.624.253.564,1,.992,2.354,1.342A33.585,33.585,0,0,0,49,14.331a9.494,9.494,0,0,0,1.537-.37.477.477,0,0,0,.088-.729c-.165-.165-.292-.165-.914-.019a26.922,26.922,0,0,1-6.137.564,26.572,26.572,0,0,1-6.37-.622,3.653,3.653,0,0,1-1.731-.739.231.231,0,0,1,.1-.175C36.153,11.7,38.545,11.18,41.3,11c.4-.019,1.42-.049,2.285-.049a29.011,29.011,0,0,1,3.812.185c2.091.233,3.8.681,4.221,1.109l.117.117v3.1a18.5,18.5,0,0,1-.068,3.209,2.942,2.942,0,0,1-1.1.535,20.547,20.547,0,0,1-4.415.739c-.934.078-4.162.078-5.116,0-3.141-.243-5.592-.875-5.592-1.449,0-.126-.165-.3-.331-.36a.354.354,0,0,0-.311.019c-.311.126-.3-.029-.3,3.589V24.99l.117.233c.525,1.05,3.112,1.731,7.382,1.945,3.55.175,7.761-.292,9.414-1.041.165-.078.3-.136.311-.136s.019,1.031.019,2.285v2.285l-.126.117c-.5.467-2.412.934-4.882,1.177-.982.1-4.143.136-5.291.068-2.927-.175-5.495-.739-5.942-1.3a13.039,13.039,0,0,1-.058-2.081V26.517l-.126-.126a.475.475,0,0,0-.759.126,17.386,17.386,0,0,0-.049,2.159c0,1.974,0,2.062.1,2.256.379.846,2.14,1.469,5.047,1.789a36.082,36.082,0,0,0,7.245.068c3.268-.3,5.291-.963,5.7-1.867.088-.195.1-.282.1-3.248V24.63l-.156-.156a.416.416,0,0,0-.292-.156.454.454,0,0,0-.5.4c0,.224-.477.5-1.332.749a31.1,31.1,0,0,1-13.654,0,3.452,3.452,0,0,1-1.186-.525l-.117-.117V22.306c0-1.381.019-2.509.039-2.509a3.712,3.712,0,0,1,.4.156,22.705,22.705,0,0,0,7.722,1.011c3.628,0,6.672-.447,8.1-1.2a2.132,2.132,0,0,0,.934-.895c.029-.117.049-1.206.049-3.433,0-3.18,0-3.258-.1-3.453-.438-.963-2.626-1.634-6.253-1.906C45.236,9.994,42.97,9.955,41.93,10Z" transform="translate(-34.5 -9.982)" fill="#fff"/>
          <path id="Path_9270" data-name="Path 9270" d="M34.821,49.431a.436.436,0,0,0-.233.185c-.088.136-.088.233-.088,1.682a14.574,14.574,0,0,0,.049,1.644.471.471,0,0,0,.778.117l.117-.136V51.308c0-1.6,0-1.614-.1-1.731A.52.52,0,0,0,34.821,49.431Z" transform="translate(-34.5 -45.578)" fill="#fff"/>
          <path id="Path_9271" data-name="Path 9271" d="M211.933,113.215c-.224.117-.224.165-.233,1.877v1.614l.126.126a.476.476,0,0,0,.739-.1c.068-.117.078-.311.078-1.7v-1.576l-.156-.156A.431.431,0,0,0,211.933,113.215Z" transform="translate(-194.467 -103.118)" fill="#fff"/>
        </g>
      </g>
    </g>
  </g>
</svg>
