<svg xmlns="http://www.w3.org/2000/svg" xmlns:xlink="http://www.w3.org/1999/xlink" width="40" height="40" viewBox="0 0 40 40">
  <defs>
    <clipPath id="clip-path">
      <rect id="Rectangle_3617" data-name="Rectangle 3617" width="40" height="40" transform="translate(379 3253)" fill="none" stroke="#707070" stroke-width="1"/>
    </clipPath>
  </defs>
  <g id="Mask_Group_8049" data-name="Mask Group 8049" transform="translate(-379 -3253)" clip-path="url(#clip-path)">
    <g id="Layer_2" data-name="Layer 2" transform="translate(382.194 3255.194)">
      <g id="invisible_box" data-name="invisible box" transform="translate(-0.077 -0.077)">
        <rect id="Rectangle_3663" data-name="Rectangle 3663" width="36" height="36" transform="translate(-0.117 -0.117)" fill="none"/>
      </g>
      <g id="dashboard-svgrepo-com" transform="translate(0.788 0.787)">
        <path id="Path_9975" data-name="Path 9975" d="M17.545,28.023a22.931,22.931,0,0,0,4.846-.4,6.848,6.848,0,0,0,3.475-1.757,6.848,6.848,0,0,0,1.757-3.475,22.931,22.931,0,0,0,.4-4.846V13a3,3,0,0,0-3-3H13a3,3,0,0,0-3,3V25.019a3,3,0,0,0,3,3Z" transform="translate(4.015 4.015)"/>
        <path id="Path_9976" data-name="Path 9976" d="M2,17.545a22.932,22.932,0,0,0,.4,4.846,6.848,6.848,0,0,0,1.757,3.475,6.848,6.848,0,0,0,3.475,1.757q.2.043.394.082a2.608,2.608,0,0,0,2.986-2.723V13a3,3,0,0,0-3-3H5a3,3,0,0,0-3,3Z" transform="translate(0 4.015)"/>
        <path id="Path_9977" data-name="Path 9977" d="M12.383,2a22.933,22.933,0,0,0-4.846.4A6.848,6.848,0,0,0,4.062,4.156,6.848,6.848,0,0,0,2.3,7.631q-.037.168-.07.338A2.658,2.658,0,0,0,5,11.011H28.9a2.608,2.608,0,0,0,2.723-2.986q-.038-.2-.082-.394a6.849,6.849,0,0,0-1.757-3.475A6.848,6.848,0,0,0,26.313,2.4,22.933,22.933,0,0,0,21.466,2Z" transform="translate(0.094 0)"/>
      </g>
    </g>
  </g>
</svg>
