<svg xmlns="http://www.w3.org/2000/svg" width="60" height="60" viewBox="0 0 60 60">
  <g id="delivery_management" transform="translate(-416 -2635)">
    <circle id="Ellipse_14" data-name="Ellipse 14" cx="30" cy="30" r="30" transform="translate(416 2635)" fill="#fff2e8"/>
    <g id="delivery" transform="translate(418.038 2615.002)">
      <g id="Group_8387" data-name="Group 8387" transform="translate(9.962 35.998)">
        <g id="Group_8386" data-name="Group 8386" transform="translate(0 0)">
          <path id="Path_9293" data-name="Path 9293" d="M16.307,36.12a6.7,6.7,0,0,0-1.668.531,7.919,7.919,0,0,0-4.58,8.432A8.781,8.781,0,0,0,11,47.737l.349.622v4.823c0,2.715.03,5,.076,5.232a2.225,2.225,0,0,0,.682,1.319c.531.47.819.561,1.956.607l1,.03.045.273a4.787,4.787,0,0,0,1.153,2,4.243,4.243,0,0,0,6.051-.015,4.432,4.432,0,0,0,1.107-1.9l.091-.349,3.564-.03c3.791-.03,3.731-.03,4.216-.394.212-.167.243-.167.349-.061a2.593,2.593,0,0,0,1.426.455l.607.03.121.425a4.292,4.292,0,0,0,8.311-.2c.076-.273.136-.44.136-.364,0,.121.076.121.94.091a2.538,2.538,0,0,0,1.319-.212,2.451,2.451,0,0,0,1.107-1.077l.182-.349V50.664l-.167-.531c-.288-.925-.7-1.577-2.4-3.852-1.911-2.548-2.427-3.094-3.276-3.534-.637-.318-.743-.334-4.368-.3l-3.412.015V41.443c0-1,0-1.031-.212-1.456a2.4,2.4,0,0,0-.5-.667c-.531-.455-.561-.455-4.186-.455H24.011l-.561-.546A7.878,7.878,0,0,0,19.219,36.1,9.367,9.367,0,0,0,16.307,36.12Zm2.957,1.441a6.4,6.4,0,0,1,4.974,5.581,5.785,5.785,0,0,1-.152,2.2,6.446,6.446,0,0,1-4.459,4.686,4.777,4.777,0,0,1-1.774.182,5.216,5.216,0,0,1-1.714-.152,6.49,6.49,0,0,1-4.61-4.929,7.834,7.834,0,0,1,0-2.593,6.561,6.561,0,0,1,3.2-4.337,8.018,8.018,0,0,1,2.154-.728A7.85,7.85,0,0,1,19.264,37.56Zm11.253,2.866.2.167.015,8.887c.015,6.233,0,8.933-.061,9.054a.508.508,0,0,1-.227.273,27.318,27.318,0,0,1-3.549.061l-3.4-.015L23.4,58.5a4.489,4.489,0,0,0-2.214-2.7,4.7,4.7,0,0,0-1.941-.485A4.442,4.442,0,0,0,15.9,56.973a5.335,5.335,0,0,0-.819,1.638l-.045.273H13.3l-.243-.243-.243-.243V54.2c0-2.32.015-4.2.045-4.2a1.7,1.7,0,0,1,.3.2,7.963,7.963,0,0,0,1.592.91A7.882,7.882,0,0,0,25.3,46.357a8.135,8.135,0,0,0-.227-5.581l-.212-.5h5.445Zm8.69,3.564a4.672,4.672,0,0,1,1.4,1.259c0,.015-.849.046-1.9.046-2.2,0-2.411.045-3,.622-.637.637-.728,1.062-.7,3.23.015,1.441.03,1.608.182,1.911a2.816,2.816,0,0,0,1.122,1.183l.334.182,3.852.03,3.852.03V55.4c0,3.17,0,3.185-.394,3.4a2.547,2.547,0,0,1-.971.091c-.743,0-.773,0-.773.152,0,.091-.045-.046-.106-.288a4.347,4.347,0,0,0-4.474-3.4,4.066,4.066,0,0,0-2.73,1.259,4.279,4.279,0,0,0-1.122,1.835l-.121.44H33.2a.957.957,0,0,1-.895-.349c-.121-.136-.136-14.074-.015-14.286a1.006,1.006,0,0,1,.288-.273c.212-.136.349-.136,3.306-.121C38.753,43.854,38.98,43.869,39.208,43.991Zm3.458,3.943c.5.682,1.031,1.441,1.153,1.683a5.624,5.624,0,0,1,.5,1.335c0,.076-.607.091-3.685.076l-3.685-.015-.243-.258-.243-.273V48.889c0-1.759.015-1.865.425-2.063.212-.106.5-.121,2.548-.121h2.29Zm-22.2,9.084a3.1,3.1,0,0,1,1.41,1.41,1.947,1.947,0,0,1,.227,1.183,1.921,1.921,0,0,1-.227,1.168,2.968,2.968,0,0,1-1.365,1.4,1.924,1.924,0,0,1-1.213.227,2.128,2.128,0,0,1-1.228-.212,3.02,3.02,0,0,1-1.623-2.123,2.849,2.849,0,0,1,.819-2.472,2.513,2.513,0,0,1,2.093-.8A2.183,2.183,0,0,1,20.463,57.018Zm18.669.03a3.114,3.114,0,0,1,1.365,1.4,2,2,0,0,1,.227,1.2,1.757,1.757,0,0,1-.273,1.244A3.022,3.022,0,0,1,39.086,62.2a1.966,1.966,0,0,1-1.168.2,1.975,1.975,0,0,1-1.228-.227,2.833,2.833,0,0,1-.88-4.489,2.537,2.537,0,0,1,2.2-.895A1.869,1.869,0,0,1,39.132,57.049Z" transform="translate(-9.962 -35.998)" fill="#f48120"/>
          <path id="Path_9294" data-name="Path 9294" d="M45.837,50.067a.62.62,0,0,0-.273.152c-.288.258-.318.455-.318,2.624V54.9l-.182.258a1.151,1.151,0,0,0-.182.47c0,.182-.136.349-.834,1.062a5.5,5.5,0,0,0-.88,1.031.687.687,0,0,0,1,.789,9.975,9.975,0,0,0,.955-.88c.622-.622.8-.773.971-.773a1.035,1.035,0,0,0,.789-.455,1.117,1.117,0,0,0,.015-1.274l-.2-.288V52.781c0-2.442-.015-2.548-.546-2.684A.785.785,0,0,0,45.837,50.067Z" transform="translate(-38.112 -47.928)" fill="#f48120"/>
        </g>
      </g>
    </g>
  </g>
</svg>
