<svg width="80" height="80" viewBox="0 0 80 80" fill="none" xmlns="http://www.w3.org/2000/svg">
<g clip-path="url(#clip0_1_259)">
<mask id="mask0_1_259" style="mask-type:luminance" maskUnits="userSpaceOnUse" x="0" y="0" width="80" height="80">
<path d="M80 0H0V80H80V0Z" fill="white"/>
</mask>
<g mask="url(#mask0_1_259)">
<path d="M40 80C62.0914 80 80 62.0914 80 40C80 17.9086 62.0914 0 40 0C17.9086 0 0 17.9086 0 40C0 62.0914 17.9086 80 40 80Z" fill="#FFF2E8"/>
<path d="M13.8571 66H24.1429C24.6169 66 25 65.6201 25 65.15V60.05C25 58.2191 23.8197 56.6695 22.18 56.0728C22.8597 55.3197 23.2857 54.3372 23.2857 53.25C23.2857 53.1642 23.284 53.0783 23.2789 53.0367C23.1631 50.7731 21.2843 49 19 49C16.7157 49 14.8369 50.7731 14.7246 52.9924C14.716 53.0783 14.7143 53.1642 14.7143 53.25C14.7143 54.3372 15.1403 55.3197 15.82 56.0728C14.1803 56.6695 13 58.2191 13 60.05V65.15C13 65.6201 13.3831 66 13.8571 66ZM19 55.8C17.8591 55.8 16.9 55.0545 16.5649 54.032C18.0031 53.0553 19.996 53.0553 21.4343 54.032C21.1 55.0545 20.1409 55.8 19 55.8ZM19 50.7C19.9386 50.7 20.7537 51.2057 21.2037 51.9716C20.5077 51.697 19.762 51.55 19 51.55C18.2346 51.55 17.4854 51.6987 16.786 51.9758C17.2326 51.2142 18.0537 50.7 19 50.7ZM14.7143 60.05C14.7143 58.6441 15.868 57.5 17.2857 57.5H20.7143C22.132 57.5 23.2857 58.6441 23.2857 60.05V64.3H14.7143V60.05Z" fill="#F48120"/>
<path d="M32 60.05V65.15C32 65.6201 32.3831 66 32.8571 66H43.1429C43.6169 66 44 65.6201 44 65.15V60.05C44 58.2191 42.8197 56.6695 41.18 56.0728C41.8597 55.3197 42.2857 54.3372 42.2857 53.25C42.2857 53.1642 42.284 53.0783 42.2789 53.0367C42.1631 50.7731 40.2843 49 38 49C35.7157 49 33.8369 50.7731 33.7246 52.9924C33.716 53.0783 33.7143 53.1642 33.7143 53.25C33.7143 54.3372 34.1403 55.3197 34.82 56.0728C33.1803 56.6695 32 58.2191 32 60.05ZM38 55.8C36.8591 55.8 35.9 55.0545 35.5649 54.032C37.0031 53.0553 38.996 53.0553 40.4343 54.032C40.1 55.0545 39.1409 55.8 38 55.8ZM38 50.7C38.9386 50.7 39.7537 51.2057 40.2037 51.9716C39.5077 51.697 38.762 51.55 38 51.55C37.2346 51.55 36.4854 51.6987 35.786 51.9758C36.2326 51.2142 37.0537 50.7 38 50.7ZM33.7143 60.05C33.7143 58.6441 34.868 57.5 36.2857 57.5H39.7143C41.132 57.5 42.2857 58.6441 42.2857 60.05V64.3H33.7143V60.05Z" fill="#F48120"/>
<path d="M61.752 52.3739C62.6769 51.3784 63.25 50.0187 63.25 48.52C63.25 48.4114 63.2483 48.302 63.2413 48.244C63.1004 45.3037 60.7982 43 58 43C55.2018 43 52.8996 45.3037 52.7631 48.1934C52.7517 48.302 52.75 48.4114 52.75 48.52C52.75 50.0187 53.3231 51.3784 54.248 52.3739C52.3843 52.9001 51 54.6757 51 56.8V65.08C51 65.5888 51.3911 66 51.875 66H64.125C64.6089 66 65 65.5888 65 65.08V56.8C65 54.6757 63.6157 52.9001 61.752 52.3739ZM54.5927 49.3342C55.4135 48.2458 56.6613 47.6 58 47.6C59.3387 47.6 60.5865 48.2458 61.4073 49.3342C61.0529 50.9718 59.6634 52.2 58 52.2C56.3366 52.2 54.9471 50.9718 54.5927 49.3342ZM58 44.84C59.232 44.84 60.3091 45.5171 60.9339 46.5512C60.0475 46.0424 59.0439 45.76 58 45.76C56.9518 45.76 55.9437 46.0452 55.0547 46.5586C55.676 45.5272 56.7593 44.84 58 44.84ZM63.25 64.16H52.75V56.8C52.75 55.2783 53.9277 54.04 55.375 54.04H60.625C62.0723 54.04 63.25 55.2783 63.25 56.8V64.16Z" fill="#F48120"/>
<path d="M58.2577 22.0238L54.4865 21.406L52.7916 17.539C52.6481 17.21 52.3401 17 52.0006 17C51.6611 17 51.3531 17.21 51.2087 17.539L49.5139 21.406L45.7426 22.0238C45.4189 22.0772 45.1494 22.3191 45.0453 22.6528C44.9411 22.9866 45.0199 23.3531 45.2483 23.6053L48.0019 26.6295L47.35 30.9109C47.2958 31.2652 47.4366 31.6215 47.7096 31.8286C47.9826 32.0349 48.3449 32.0574 48.6371 31.883L52.0006 29.8909L55.3632 31.8821C55.4945 31.9608 55.6406 31.9992 55.7858 31.9992C55.9626 31.9992 56.1393 31.9411 56.2898 31.8277C56.5628 31.6205 56.7037 31.2643 56.6495 30.9099L55.9976 26.6286L58.7512 23.6044C58.9804 23.3522 59.0592 22.9856 58.9542 22.6519C58.8492 22.3182 58.5814 22.0772 58.2577 22.0238ZM54.4366 25.6583C54.2423 25.8711 54.1548 26.1702 54.1995 26.4636L54.6326 29.3069L52.4241 27.9982C52.2929 27.9204 52.1476 27.881 52.0015 27.881C51.8554 27.881 51.7101 27.9204 51.5789 27.9982L49.3704 29.3069L49.8035 26.4636C49.8481 26.1702 49.7597 25.8702 49.5664 25.6583L47.693 23.6015L50.2419 23.1844C50.5297 23.1375 50.7774 22.9388 50.9016 22.6566L52.0006 20.1442L53.1013 22.6566C53.2256 22.9397 53.4732 23.1384 53.7611 23.1844L56.31 23.6015L54.4366 25.6583Z" fill="#F48120"/>
<path d="M35.35 20.2063C35.0822 19.9878 34.7049 19.9389 34.3837 20.0786C34.0634 20.2183 33.8571 20.5218 33.8571 20.8569V22.5712H23.9048C23.4044 22.5712 23 22.9544 23 23.4284V28.5714C23 29.0454 23.4044 29.4285 23.9048 29.4285H33.8571V31.1428C33.8571 31.478 34.0634 31.7814 34.3837 31.9211C34.505 31.9743 34.6334 32 34.7619 32C34.9736 32 35.1835 31.9297 35.35 31.7934L41.6833 26.6505C41.8842 26.4876 42 26.2502 42 25.9999C42 25.7496 41.8842 25.5122 41.6833 25.3493L35.35 20.2063ZM35.6667 29.2794V28.5714C35.6667 28.0974 35.2622 27.7142 34.7619 27.7142H24.8095V24.2856H34.7619C35.2622 24.2856 35.6667 23.9024 35.6667 23.4284V22.7204L39.7055 25.9999L35.6667 29.2794Z" fill="#F48120"/>
<path d="M30 61H27V63H30V61Z" fill="#F48120"/>
<path d="M49 61H46V63H49V61Z" fill="#F48120"/>
<path d="M62.3273 14H18.6727C17.1992 14 16 15.1828 16 16.6364V35.0909C16 36.5444 17.1992 37.7273 18.6727 37.7273H51.2185L55.4058 42.6845C55.5786 42.8866 55.8308 43 56.0909 43C56.1684 43 56.2468 42.9895 56.3243 42.9692C56.6602 42.8796 56.9123 42.6045 56.9702 42.2653L57.7364 37.7273H62.3273C63.8008 37.7273 65 36.5444 65 35.0909V16.6364C65 15.1828 63.8008 14 62.3273 14ZM63.2182 35.0909C63.2182 35.576 62.8191 35.9697 62.3273 35.9697H56.9818C56.5462 35.9697 56.1747 36.2808 56.1034 36.7044L55.5314 40.0868L52.3206 36.2861C52.1513 36.0857 51.901 35.9697 51.6364 35.9697H18.6727C18.1809 35.9697 17.7818 35.576 17.7818 35.0909V16.6364C17.7818 16.1513 18.1809 15.7576 18.6727 15.7576H62.3273C62.8191 15.7576 63.2182 16.1513 63.2182 16.6364V35.0909Z" fill="#F48120"/>
</g>
</g>
<defs>
<clipPath id="clip0_1_259">
<rect width="80" height="80" fill="white"/>
</clipPath>
</defs>
</svg>
