<svg width="45" height="45" viewBox="0 0 45 45" fill="none" xmlns="http://www.w3.org/2000/svg">
<g clip-path="url(#clip0_1_2)">
<path d="M45 22.5C45 10.0736 34.9264 0 22.5 0C10.0736 0 0 10.0736 0 22.5C0 34.9264 10.0736 45 22.5 45C34.9264 45 45 34.9264 45 22.5Z" fill="url(#paint0_linear_1_2)"/>
<path d="M18.9859 13.6444C16.2958 13.6444 15.4701 13.671 12.7532 13.671C12.4336 13.671 12.1406 13.6976 11.8743 13.7509C11.5813 13.8042 11.3149 13.8841 11.0752 13.9906C10.8089 14.0972 10.5691 14.2303 10.3294 14.3902C10.0897 14.55 9.87662 14.7364 9.66354 14.9495C9.45046 15.1626 9.26401 15.3757 9.1042 15.6154C8.94439 15.8551 8.81121 16.0948 8.70467 16.3612C8.59812 16.6275 8.51822 16.8939 8.46495 17.1602C8.41168 17.4532 8.38504 17.7462 8.38504 18.0392V26.9088C8.38504 27.2284 8.41168 27.5214 8.46495 27.7878C8.51822 28.0808 8.59812 28.3471 8.70467 28.5868C8.81121 28.8532 8.94439 29.0929 9.1042 29.3326C9.26401 29.5723 9.45046 29.7854 9.66354 29.9985C9.87662 30.2116 10.1163 30.398 10.3561 30.5579C10.5958 30.7177 10.8355 30.8508 11.1019 30.9574C11.3682 31.0639 11.6346 31.1438 11.9009 31.1971C12.1939 31.2504 12.4869 31.277 12.7799 31.277H16.1359C16.2425 31.277 16.349 31.3036 16.4289 31.3569C16.5088 31.4102 16.5887 31.4635 16.6687 31.5434C16.935 31.8896 17.2014 32.2359 17.4944 32.5555C17.7873 32.8751 18.0803 33.1948 18.4266 33.4877C18.7462 33.7807 19.0658 34.0737 19.4387 34.3401C19.785 34.6064 20.1579 34.8728 20.5042 35.1125C20.8504 35.3522 21.2233 35.5653 21.6228 35.7784C21.9957 35.9915 22.3953 36.1779 22.7948 36.3644C22.8481 36.391 22.9013 36.391 22.928 36.3644C23.0079 36.3111 23.0345 36.2312 22.9812 36.1513C22.9013 36.0181 22.8481 35.9116 22.7682 35.7784C22.7149 35.6452 22.635 35.5387 22.5817 35.4055C22.4752 35.1391 22.3686 34.8994 22.2621 34.6331C22.1556 34.3667 22.049 34.1004 21.9691 33.8074C21.8892 33.541 21.7827 33.2747 21.7027 33.0083C21.6228 32.742 21.5429 32.4756 21.463 32.1826C21.4364 32.1027 21.4364 32.0228 21.4364 31.9429C21.4364 31.7564 21.5163 31.5966 21.6228 31.4635C21.756 31.3303 21.9158 31.2504 22.1023 31.2504H26.0177C26.3373 31.2504 26.6303 31.2237 26.8967 31.1705C27.163 31.1172 27.4294 31.0373 27.6957 30.9308C27.9354 30.8242 28.2018 30.691 28.4149 30.5312C28.6546 30.3714 28.8943 30.185 29.1074 29.9452C29.3205 29.7322 29.5069 29.5191 29.6667 29.2794C29.8265 29.0396 29.9597 28.7999 30.0663 28.5336C30.1728 28.2672 30.2527 28.0009 30.306 27.7345C30.3593 27.4415 30.3859 27.1485 30.3859 26.8555V25.0443C30.3859 24.1387 31.5579 24.1387 31.7709 24.778V26.8555C31.7709 27.2551 31.7443 27.628 31.6644 28.0009C31.5845 28.3738 31.4779 28.72 31.3448 29.0929C31.2116 29.4392 31.0251 29.7588 30.8121 30.0784C30.599 30.398 30.3593 30.691 30.0663 30.9574C29.7999 31.2504 29.4803 31.4901 29.1873 31.7032C28.8677 31.9163 28.548 32.0761 28.2284 32.2359C27.8822 32.3691 27.5093 32.4756 27.163 32.5555C26.7901 32.6354 26.4172 32.6621 26.0177 32.6621H23.2476C23.221 32.6621 23.221 32.6621 23.1943 32.6621C23.1144 32.6887 23.0612 32.7686 23.0878 32.8485C23.1411 33.0083 23.1943 33.1948 23.2476 33.3812C23.3275 33.6209 23.4341 33.8873 23.5406 34.127C23.6471 34.3667 23.727 34.6064 23.8336 34.8195V34.8462C23.9401 35.0859 24.0467 35.299 24.1798 35.5387C24.313 35.7518 24.4728 35.9915 24.6326 36.2046C24.7925 36.4176 24.9789 36.6307 25.192 36.8704C25.4051 37.0835 25.6182 37.3233 25.8845 37.5097C26.0177 37.6429 26.0976 37.8027 26.1242 37.9891C26.1242 38.1489 26.071 38.3354 25.9644 38.4686C25.8845 38.5751 25.778 38.6284 25.6448 38.655C25.5382 38.6817 25.4051 38.6817 25.2719 38.655C24.7658 38.5218 24.2597 38.362 23.7803 38.2022C23.3009 38.0424 22.8214 37.856 22.3686 37.6429C21.9158 37.4564 21.463 37.2167 21.0369 37.0036C20.6107 36.7639 20.1845 36.5242 19.785 36.2578C19.3855 35.9915 18.9859 35.7251 18.613 35.4321C18.2401 35.1391 17.8672 34.8195 17.521 34.4999C17.228 34.2335 16.935 33.9406 16.6687 33.6209C16.4023 33.3279 16.1093 33.0083 15.8696 32.6887C15.843 32.6354 15.7897 32.6088 15.7364 32.6088H12.7532C12.3537 32.6088 11.9808 32.5821 11.6079 32.5022C11.235 32.4223 10.8888 32.3158 10.5425 32.1826C10.1962 32.0494 9.87662 31.863 9.557 31.6499C9.23737 31.4368 8.94439 31.1971 8.67803 30.9308C8.38504 30.6378 8.14532 30.3448 7.93224 30.0518C7.71916 29.7322 7.53271 29.4125 7.39953 29.0663C7.26635 28.72 7.15981 28.3738 7.07991 28.0009C7.02664 27.6812 7 27.3083 7 26.9088V17.9859C7 17.5864 7.02664 17.2135 7.10654 16.8406C7.18645 16.4677 7.29299 16.1215 7.42617 15.7752C7.55934 15.4289 7.74579 15.1093 7.95887 14.7897C8.17196 14.4701 8.41168 14.1771 8.70467 13.9107C8.99766 13.6177 9.29065 13.378 9.58364 13.1649C9.90326 12.9518 10.2229 12.792 10.5425 12.6322C10.8888 12.499 11.2617 12.3925 11.6346 12.3126C12.0075 12.2327 12.3804 12.2061 12.7799 12.2061C15.5766 12.2061 16.5088 12.2061 19.3056 12.2061C19.9714 12.3925 19.9981 13.6444 18.9859 13.6444ZM22.4752 15.0294C22.342 15.2958 22.3154 15.6687 22.342 16.0149C22.3686 16.1747 22.3953 16.3345 22.4219 16.4944C22.4752 16.6542 22.5284 16.8406 22.5817 17.0004C22.6616 17.1602 22.7415 17.3201 22.8214 17.4799C22.9013 17.613 23.0079 17.7729 23.1144 17.8794C23.3808 18.1724 23.6738 18.4121 24.02 18.492C24.6326 18.6785 25.6981 18.1458 26.2574 17.9593C26.3639 17.9327 26.4971 17.9327 26.577 17.9859C26.6836 18.0392 26.7635 18.1191 26.8167 18.2257C26.8167 18.2523 26.8167 18.2523 26.8434 18.2789C26.87 18.3855 26.9233 18.492 26.9499 18.5986C27.2163 19.3976 27.456 20.17 27.749 20.7827C27.7756 20.8359 27.8023 20.9158 27.8289 20.9691V20.9957C27.9088 21.1822 28.0153 21.3686 28.1219 21.5551C28.2284 21.7415 28.3083 21.8747 28.4149 21.9813C28.4681 22.0345 28.548 22.0878 28.628 22.0878C28.7079 22.0878 28.8144 22.0345 28.9742 21.9013C29.0275 21.8214 29.1074 21.7682 29.1873 21.6883C29.2406 21.635 29.3205 21.5551 29.427 21.4485C29.72 21.1822 30.1462 20.7827 30.306 20.5696L30.2261 20.5429C29.3205 20.2499 29.3737 19.7705 29.427 19.3443C29.4537 19.2112 29.4537 19.078 29.427 18.9981C29.427 18.9714 29.4004 18.9981 29.3471 18.9448C29.3205 18.9182 29.2938 18.9182 29.2672 18.8915C29.134 18.785 29.0541 18.6785 28.9742 18.5453C28.8943 18.3855 28.8677 18.2257 28.841 18.0658C28.8144 17.906 28.841 17.7196 28.8677 17.5598C28.8943 17.3467 28.9476 17.1602 29.0009 17.0004C29.0275 16.9205 29.0541 16.8672 29.1074 16.814C29.1607 16.7607 29.2406 16.7341 29.3205 16.7074C31.185 16.2813 32.1438 16.6275 33.0494 16.9472C33.1826 17.0004 33.3424 17.0537 33.4756 17.107C33.0761 16.7074 32.7298 16.2546 32.3836 15.7486C31.8242 14.9495 31.3448 14.0705 30.9452 13.1649C30.5191 12.2593 30.1994 11.3271 29.9597 10.4481C29.7999 9.8355 29.6667 9.22289 29.6135 8.69018C29.2139 9.3827 28.6546 10.2084 27.8555 11.0607C27.1097 11.7533 22.7682 14.3635 22.4752 15.0294ZM33.6088 12.9785C33.6354 13.3247 33.5289 13.8042 33.3424 14.2037C33.2092 14.4967 33.0494 14.7364 32.8896 14.8696C33.2359 15.4023 33.6354 15.9084 34.0349 16.3345C34.4345 16.7607 34.834 17.107 35.2602 17.3733H35.2868C35.2868 17.3733 35.3134 17.3733 35.3401 17.3733C35.3667 17.3733 35.3934 17.3733 35.42 17.3467C35.4466 17.3467 35.4733 17.3201 35.4733 17.3201C35.5532 17.2401 35.6064 17.1336 35.6331 17.0004C35.6863 16.8406 35.713 16.6808 35.713 16.4944C35.7396 15.9084 35.6331 15.1892 35.42 14.3902C35.1803 13.5112 34.8074 12.5523 34.3812 11.6201C33.955 10.7145 33.449 9.80886 32.9429 9.06307C32.4635 8.34392 31.9574 7.7313 31.5046 7.33177C31.3448 7.17196 31.1583 7.06542 31.0251 6.98551C30.892 6.9056 30.7854 6.87897 30.6789 6.87897H30.6522C30.6256 6.9056 30.599 6.93224 30.5723 6.98551C30.4125 7.38504 30.4125 8.02429 30.5191 8.79672C30.6256 9.56915 30.8653 10.4481 31.185 11.3537C31.2649 11.3271 31.3181 11.3271 31.4247 11.3271C31.7177 11.3004 32.0906 11.3271 32.4635 11.4603C32.8364 11.5934 33.2092 11.8332 33.4223 12.2327C33.5022 12.4191 33.5821 12.6589 33.6088 12.9785ZM35.2335 18.2789C35.2069 18.2789 35.1536 18.2789 35.127 18.2789C35.1004 18.2789 35.0471 18.2789 35.0205 18.2523L34.8873 18.2257C34.5677 18.199 34.2214 18.1191 33.8751 18.0658H33.8485C33.4756 17.9859 33.156 17.8794 32.8364 17.7462C32.0906 17.4532 31.2915 17.1336 29.7733 17.4532C29.7466 17.5331 29.7466 17.5864 29.7466 17.6663C29.7466 17.7462 29.72 17.8528 29.7466 17.9327C29.7466 17.9859 29.7733 18.0392 29.7733 18.0925C29.7733 18.1191 29.7999 18.1457 29.7999 18.1457L29.8265 18.1724C30.0396 18.3322 30.1462 18.4121 30.2261 18.6252C30.306 18.8116 30.2794 18.9981 30.2794 19.1845C30.2527 19.371 30.2527 19.5574 30.4658 19.6373C30.7322 19.7172 30.9985 19.8238 31.1583 20.17C31.185 20.1967 31.185 20.2499 31.2116 20.2766C31.2116 20.3032 31.2116 20.3565 31.2116 20.3831C31.1583 20.8892 30.4125 21.6084 29.9864 22.0079C29.9065 22.0878 29.8266 22.1677 29.7733 22.221L29.7466 22.2476C29.6934 22.3009 29.6401 22.3541 29.5868 22.4074V22.514C29.2406 22.8602 28.8943 22.9934 28.6013 22.9934C28.2817 22.9934 28.0153 22.8336 27.7756 22.5939C27.6158 22.4341 27.4826 22.221 27.3495 22.0079C27.2429 21.7948 27.1364 21.5817 27.0298 21.342C27.0032 21.2887 26.9766 21.2088 26.9499 21.1556C26.6569 20.5163 26.3906 19.7705 26.1509 18.9714C25.3784 19.2911 24.6593 19.6373 23.7803 19.371C23.2742 19.2112 22.8481 18.8915 22.4752 18.492C22.342 18.3322 22.2088 18.1458 22.1023 17.9593C21.9957 17.7729 21.8892 17.5864 21.8093 17.3733C21.7294 17.1602 21.6495 16.9738 21.5962 16.7607C21.5429 16.5476 21.4897 16.3345 21.4897 16.1215C21.4364 15.5888 21.4897 15.0827 21.6761 14.6565C22.2355 13.4313 25.9111 11.8332 27.3495 10.235C28.3083 9.14298 28.8677 8.13083 29.2672 7.38504V7.35841C29.5069 6.93224 29.6934 6.58598 29.8798 6.34626C29.9331 6.29299 29.9864 6.23972 30.0396 6.18645C30.0929 6.13318 30.1462 6.10654 30.2261 6.05327C30.306 6.05327 30.3593 6.02664 30.4392 6C30.5191 6 30.599 6 30.6789 6C30.892 6.02664 31.1051 6.07991 31.3448 6.18645C31.5845 6.29299 31.7976 6.4528 32.0373 6.66589C32.5434 7.11869 33.1027 7.75794 33.6354 8.53036C34.1948 9.32943 34.7008 10.2617 35.1536 11.2205C35.6064 12.2061 36.006 13.2182 36.2723 14.1771C36.512 15.056 36.6186 15.8551 36.5919 16.521C36.5653 16.814 36.512 17.0537 36.4321 17.2934C36.3522 17.5331 36.2457 17.7196 36.0859 17.906L36.0592 17.9327L36.0326 17.9859C35.9261 18.0658 35.8195 18.1191 35.713 18.1724C35.6064 18.2257 35.4999 18.2523 35.42 18.2523C35.3934 18.2523 35.3401 18.2523 35.3134 18.2523L35.2335 18.2789ZM24.4995 27.335C24.8457 27.335 25.1387 27.042 25.1387 26.6957C25.1387 26.3495 24.8457 26.0565 24.4995 26.0565L17.6542 25.9499L16.349 25.87C16.0028 25.8434 15.6831 26.1097 15.6565 26.4826C15.6299 26.8289 15.8962 27.1485 16.2691 27.1752L17.5743 27.2551C17.6009 27.2284 23.9135 27.3083 24.4995 27.335ZM22.4485 23.2864C22.7948 23.2864 23.0878 22.9934 23.0878 22.6471C23.0878 22.3009 22.7948 22.0079 22.4485 22.0079H13.2061C12.8598 22.0079 12.5668 22.3009 12.5668 22.6471C12.5668 22.9934 12.8598 23.2864 13.2061 23.2864H22.4485ZM19.5719 19.4243C19.9182 19.4243 20.2112 19.1313 20.2112 18.785C20.2112 18.4387 19.9182 18.1457 19.5719 18.1457H13.2061C12.8598 18.1457 12.5668 18.4387 12.5668 18.785C12.5668 19.1313 12.8598 19.4243 13.2061 19.4243H19.5719Z" fill="white"/>
</g>
<defs>
<linearGradient id="paint0_linear_1_2" x1="22" y1="-3.29812e-07" x2="22" y2="45" gradientUnits="userSpaceOnUse">
<stop stop-color="#353535"/>
<stop offset="0.122222" stop-color="#323232"/>
<stop offset="1" stop-color="#1B1B1B"/>
</linearGradient>
<clipPath id="clip0_1_2">
<rect width="45" height="45" fill="white"/>
</clipPath>
</defs>
</svg>
