<?xml version="1.0" encoding="UTF-8"?><svg id="Layer_1" xmlns="http://www.w3.org/2000/svg" viewBox="0 0 400 400"><path d="M9.87,112.56c2.4-1.65,4.69-3.51,7.22-4.93,24.48-13.65,49.01-27.24,73.53-40.83,1.18-.66,2.37-1.36,3.65-1.79,2.87-.97,5.19.01,6.61,2.58,1.34,2.44.86,4.84-1.23,6.71-.9.81-2.05,1.36-3.13,1.96-18.35,10.19-36.72,20.37-55.07,30.56-1.04.57-2.02,1.23-3.77,2.31h323.97c-1.03-.76-1.68-1.34-2.42-1.75-49.89-27.68-99.81-55.31-149.67-83.05-6.69-3.72-12.94-3.66-19.62.1-21.85,12.28-43.82,24.35-65.75,36.5-1.08.6-2.13,1.33-3.29,1.68-2.79.84-5.24.15-6.65-2.52-1.37-2.59-.92-5.05,1.4-6.97.75-.62,1.66-1.07,2.52-1.55,22.46-12.46,44.93-24.91,67.39-37.38,9.41-5.22,18.89-5.35,28.27-.15,57.26,31.7,114.49,63.47,171.75,95.17,2.93,1.62,4.33,3.77,4.23,7.13-.14,4.45-.03,8.9-.03,13.35-.02,13.8-8.2,22.87-21.92,24.03-2.36.2-3.77,1-5.08,2.9-5.13,7.42-10.5,14.67-15.57,22.13-1.09,1.6-1.86,3.79-1.86,5.71-.1,43.4-.1,86.8,0,130.2,0,1.93.7,4.14,1.79,5.74,5.14,7.56,10.59,14.91,15.77,22.44,1.33,1.93,2.68,2.89,5.11,2.71,3.07-.23,6.18-.13,9.27,0,6.81.27,12.22,5.51,12.44,12.31.21,6.55.23,13.11,0,19.66-.23,6.67-4.48,10.35-10.32,12.56H20.25c-4.94-1.62-8.21-5.05-10.39-9.65v-25.23c3.16-7.43,8.8-10.54,16.77-9.73,1.83.19,3.76.31,5.54-.06,1.49-.31,3.29-1.04,4.13-2.18,5.72-7.74,11.27-15.62,16.75-23.53.78-1.12,1.27-2.69,1.28-4.06.07-43.98.07-87.95-.02-131.93,0-1.57-.73-3.35-1.64-4.68-5.26-7.62-10.6-15.19-16.12-22.62-.91-1.23-2.85-2.21-4.4-2.34-5.88-.52-11.44-2.08-15.24-6.6-2.92-3.48-4.73-7.9-7.04-11.9,0-7.67,0-15.33,0-23ZM300.61,185.33v4.4c0,18.8,0,37.59-.01,56.39,0,1.35.04,2.76-.3,4.04-.76,2.87-2.76,4.39-5.76,4.13-2.98-.26-4.69-2.03-4.99-5.02-.12-1.23-.07-2.47-.07-3.71,0-20.28.05-40.56-.08-60.84-.01-1.94-.7-4.15-1.79-5.75-5.14-7.56-10.59-14.92-15.77-22.45-1.34-1.94-2.74-2.72-5.14-2.71-44.64.07-89.28.07-133.92,0-2.22,0-3.59.69-4.86,2.53-5.27,7.63-10.76,15.1-16.01,22.74-.97,1.42-1.68,3.35-1.69,5.04-.09,43.65-.09,87.3,0,130.95,0,1.7.68,3.65,1.65,5.06,5.31,7.74,10.74,15.42,16.34,22.95.91,1.22,2.93,2.29,4.43,2.3,44.76.12,89.53.12,134.29,0,1.51,0,3.52-1.06,4.45-2.28,4.13-5.39,7.62-11.3,11.97-16.49,4.89-5.84,6.67-12.08,6.25-19.68-.58-10.6-.19-21.26-.1-31.9.03-3.44,2.42-5.8,5.46-5.8,2.88,0,5.18,2.21,5.56,5.42.12.98.06,1.98.06,2.96,0,10.76,0,21.52,0,32.27,0,1.31,0,2.62,0,4.01h33.28v-128.6h-33.28ZM199.71,378.89c38.45,0,76.91,0,115.36,0,19.78,0,39.57-.06,59.35.06,3.21.02,4.47-.95,4.28-4.24-.23-4.07-.05-8.16-.05-12.24q0-5.84-5.86-5.84c-115.36,0-230.72,0-346.08,0-.74,0-1.49.06-2.22,0-2.51-.22-3.6.79-3.52,3.41.14,4.45.04,8.9.04,13.35q0,5.5,5.49,5.51c57.74,0,115.48,0,173.22,0ZM21,120.69c0,3.43,0,6.62,0,9.81,0,.86-.02,1.74.1,2.59.7,4.68,4.19,8.38,8.89,9.27,1.68.32,3.44.36,5.16.36,109.79.02,219.59.02,329.38,0,1.72,0,3.48-.05,5.16-.38,4.69-.9,8.37-4.6,8.78-9.32.35-4.02.07-8.09.07-12.34H21ZM65.81,185.38v128.59h33.02v-128.59h-33.02ZM115.71,345.38c-.67-1.14-1.13-2.07-1.71-2.9-3.41-4.84-6.93-9.6-10.22-14.52-1.31-1.96-2.75-2.73-5.14-2.69-9.5.14-19.02.41-28.49-.08-5.43-.28-8.92,1.19-11.66,5.99-2.76,4.84-6.38,9.19-9.93,14.19h67.16ZM351.08,345.38c-4.71-6.63-8.91-12.69-13.32-18.6-.64-.86-2.27-1.36-3.45-1.38-7.16-.13-14.31-.08-21.47-.06-4.93.02-10.68-1.45-14.57.59-4.02,2.12-6.26,7.65-9.22,11.74-1.75,2.41-3.39,4.9-5.33,7.71h67.36ZM48.71,154.11c4.71,6.64,8.92,12.7,13.32,18.64.58.78,2.07,1.25,3.14,1.25,11.38.09,22.75.08,34.13.02,1.02,0,2.49-.19,2.99-.86,4.53-6.12,8.89-12.36,13.65-19.05H48.71ZM350.89,154.19h-67.1c4.62,6.51,8.84,12.57,13.24,18.5.59.79,2.05,1.29,3.12,1.3,11.5.09,23,.08,34.5.02.89,0,2.18-.22,2.62-.82,4.51-6.13,8.89-12.36,13.62-19.01Z"/><path d="M199.98,94.96c-14.25.09-25.73-11.32-25.7-25.54.03-14.04,11.34-25.44,25.38-25.58,14.08-.14,25.7,11.45,25.7,25.63,0,14.08-11.27,25.4-25.38,25.49ZM199.69,83.83c8.03.06,14.41-6.17,14.53-14.17.12-8.08-6.44-14.74-14.47-14.69-7.92.05-14.32,6.5-14.35,14.45-.02,8,6.28,14.36,14.29,14.41Z"/><path d="M263.6,249.73c-.04,35.02-28.76,63.73-63.78,63.73-35.18,0-63.89-28.85-63.78-64.09.11-35.06,28.8-63.52,63.95-63.43,35.13.08,63.64,28.67,63.6,63.79ZM199.75,197.07c-29.02.03-52.55,23.55-52.58,52.55-.03,28.91,23.6,52.61,52.53,52.71,29,.1,52.84-23.78,52.77-52.84-.07-28.96-23.69-52.45-52.72-52.42Z"/><path d="M194.04,213.05c.64-5.88,2.14-7.93,5.77-7.94,3.65,0,5.16,2.04,5.81,8.11,1.58.32,3.26.57,4.89,1.02,6.81,1.86,11.73,8.59,11.71,15.82,0,3.33-1.49,5.44-4.81,5.98-3.05.5-5.68-1.52-6.17-4.99-.47-3.33-1.35-6-5.59-6.3v19.04c7.82.72,14.04,4.19,15.6,11.98,1.15,5.78,1.19,12.14.06,17.91-1.51,7.75-7.48,11.53-15.68,12.1-.28,4.12-.65,8.74-6.31,8.37-4.67-.31-5.13-4.25-5.21-8.2-1.67-.27-3.24-.4-4.74-.79-6.62-1.72-11.68-8.27-11.91-15.33-.13-3.87,1.68-6.33,4.87-6.65,3.25-.32,5.28,1.74,6.28,5.46.52,1.95,1.93,3.71,3.13,5.42.26.36,1.34.15,2.28.22v-18.54c-2.46-.67-4.97-.96-7.12-2.01-7.17-3.5-9.48-9.68-9.59-17.36-.12-8.66.51-16.76,9.4-21.2,2.15-1.07,4.68-1.38,7.32-2.12ZM193.92,243.76v-18.92c-5.18.99-5.95,3.03-5.37,13.36.22,3.96,1.49,5.31,5.37,5.57ZM205.61,255.04v19.23c.81,0,1.51.21,1.96-.03,5.82-3.17,3-8.7,3.41-13.27.29-3.15-1.47-5.28-5.38-5.92Z"/></svg>