<?xml version="1.0" encoding="UTF-8"?><svg id="Layer_1" xmlns="http://www.w3.org/2000/svg" xmlns:xlink="http://www.w3.org/1999/xlink" viewBox="0 0 60 60"><defs><style>.cls-1{fill:url(#linear-gradient);}.cls-1,.cls-2{stroke-width:0px;}.cls-2{fill:#fff;}</style><linearGradient id="linear-gradient" x1="60" y1="30" x2="0" y2="30" gradientUnits="userSpaceOnUse"><stop offset="0" stop-color="#3b3b3b"/><stop offset="1" stop-color="#191919"/></linearGradient></defs><circle class="cls-1" cx="30" cy="30" r="30"/><path class="cls-2" d="M46.69,21.88h-6.97v-8.87h1.27v5.07c0,.35.28.63.63.63s.63-.28.63-.63v-6.97c0-.35-.28-.63-.63-.63s-.63.28-.63.63v.63h-1.27v-.63c0-1.05-.85-1.9-1.9-1.9h-1.27c-1.05,0-1.9.85-1.9,1.9v10.77H13.74c-1.4,0-2.53,1.13-2.53,2.53v20.28c0,1.4,1.13,2.53,2.53,2.53h32.95c1.4,0,2.53-1.13,2.53-2.53v-20.28c0-1.4-1.13-2.53-2.53-2.53ZM37.46,29.92c-.08.15-.27.21-.43.13-.06-.03-.1-.08-.13-.13l-.69-1.71h1.93l-.69,1.71ZM38.45,26.95h-2.54v-12.68h2.54v12.68ZM35.92,11.1c0-.35.28-.63.63-.63h1.27c.35,0,.63.28.63.63v1.9h-2.54v-1.9ZM12.47,44.69v-20.28c0-.7.57-1.27,1.27-1.27h2.53v22.81h-2.53c-.7,0-1.27-.57-1.27-1.27ZM17.54,23.14h17.11v4.44s.01.08.02.11c0,.04.01.08.02.12h0s1.03,2.58,1.03,2.58c.15.38.45.69.82.85v.77c0,.35.28.63.63.63s.63-.28.63-.63v-.77c.38-.16.67-.47.82-.85l1.03-2.57h0c.01-.05.02-.09.02-.13.01-.04.02-.08.02-.12v-4.44h3.17v22.81h-25.35v-22.81ZM47.96,44.69c0,.7-.57,1.27-1.27,1.27h-2.53v-22.81h2.53c.7,0,1.27.57,1.27,1.27v20.28Z"/><path class="cls-2" d="M14.37,30.75c-.35,0-.63.28-.63.63v.63c0,.35.28.63.63.63s.63-.28.63-.63v-.63c0-.35-.28-.63-.63-.63ZM14.37,33.92c-.35,0-.63.28-.63.63v3.17c0,.35.28.63.63.63s.63-.28.63-.63v-3.17c0-.35-.28-.63-.63-.63ZM46.06,32.65c-.35,0-.63.28-.63.63v2.53c0,.35.28.63.63.63s.63-.28.63-.63v-2.53c0-.35-.28-.63-.63-.63ZM39.72,39.62h-19.01c-.35,0-.63.28-.63.63s.28.63.63.63h19.01c.35,0,.63-.28.63-.63s-.28-.63-.63-.63ZM21.34,37.72c.06,0,.12,0,.17-.02.74-.23,1.44-.56,2.09-.98,1.23.72,2.65,1.06,4.07,1,1.04.03,2.06-.18,3-.63,1.05.47,2.19.69,3.34.63,1.32,0,3.8-.66,3.8-3.17,0-.35-.28-.63-.63-.63s-.63.28-.63.63c0,1.87-2.43,1.9-2.53,1.9-.74.02-1.48-.07-2.2-.26.74-.92,1.12-2.08,1.06-3.26,0-1.19-.96-2.16-2.15-2.16-1.19,0-2.16.96-2.16,2.15h0c-.07,1.17.28,2.32.98,3.26-.61.19-1.24.27-1.87.26-1.03.04-2.06-.16-3-.57,1.1-.98,1.74-2.39,1.73-3.87,0-1.4-1.13-2.54-2.53-2.54s-2.53,1.13-2.53,2.54c-.07,1.39.38,2.75,1.25,3.84-.45.26-.93.47-1.42.62-.34.1-.53.45-.43.78.08.27.33.46.61.46ZM30.72,32.02c.5.01.9.42.89.92.08.97-.27,1.92-.94,2.61-.58-.56-.83-1.41-.83-2.61,0-.5.39-.91.89-.92ZM22.61,32.02c0-.7.57-1.27,1.27-1.27s1.27.57,1.27,1.27c-.01,1.21-.57,2.35-1.51,3.11-.73-.86-1.1-1.98-1.02-3.11Z"/></svg>