<svg id="drag-and-drop" xmlns="http://www.w3.org/2000/svg" xmlns:xlink="http://www.w3.org/1999/xlink" width="45" height="45" viewBox="0 0 45 45">
  <defs>
    <linearGradient id="linear-gradient" x1="0.5" x2="0.156" y2="0.791" gradientUnits="objectBoundingBox">
      <stop offset="0" stop-color="#3e3e3e"/>
      <stop offset="1" stop-color="#1a1a1a"/>
    </linearGradient>
  </defs>
  <circle id="Ellipse_1" data-name="Ellipse 1" cx="22.5" cy="22.5" r="22.5" fill="url(#linear-gradient)"/>
  <g id="Drag_and_Drop" data-name="Drag and Drop" transform="translate(9 8)">
    <path id="Path_9309" data-name="Path 9309" d="M11.25,26.487H10.083a.583.583,0,0,1,0-1.167H11.25a.583.583,0,0,1,0,1.167Zm-3.5,0c-1.132,0-2.036-1.167-1.3-1.61a.583.583,0,0,1,.8.175.583.583,0,0,0,.49.268.583.583,0,0,1,0,1.167ZM6,23.069V21.9a.583.583,0,1,1,1.167,0v1.167a.583.583,0,1,1-1.167,0Zm0-3.5V18.4a.583.583,0,1,1,1.167,0v1.167a.583.583,0,1,1-1.167,0Zm13.131-2.012c-.455,0-.426-.4-.881-.4h-.169a.583.583,0,0,1,0-1.167c1.429,0,1.954.974,1.435,1.429A.583.583,0,0,1,19.131,17.556Zm-11.55-.4A.585.585,0,1,1,7.5,15.987a10.657,10.657,0,0,1,1.248,0,.583.583,0,0,1,0,1.167Zm8.167,0H14.581a.583.583,0,1,1,0-1.167h1.167a.583.583,0,0,1,0,1.167Zm-3.5,0H11.081a.583.583,0,1,1,0-1.167h1.167a.583.583,0,1,1,0,1.167Z" transform="translate(-2.5 -6.237)" fill="#fff"/>
    <path id="Path_9310" data-name="Path 9310" d="M28.917,21H20.75A1.75,1.75,0,0,0,19,22.75v5.833a1.75,1.75,0,0,0,1.75,1.75h5.524l-.227-3.418a.583.583,0,0,1,.618-.618l2.094.14-1.75-1.75a.583.583,0,0,0-.828,0l-1.447,1.452-1.785-2.007a.583.583,0,0,0-.887,0l-1.9,2.257V22.75a.583.583,0,0,1,.583-.583h8.167a.583.583,0,0,1,.583.583v3.733l1.167.082V22.75A1.75,1.75,0,0,0,28.917,21Z" transform="translate(-7.917 -8.333)" fill="#fff"/>
    <path id="Path_9311" data-name="Path 9311" d="M19.25,1H1.75A1.75,1.75,0,0,0,0,2.75V22.583a1.75,1.75,0,0,0,1.75,1.75H18.509l-.076-1.167H1.75a.583.583,0,0,1-.583-.583V6.833H19.833V11.5H21V2.75A1.75,1.75,0,0,0,19.25,1Zm.583,4.667H1.167V2.75a.583.583,0,0,1,.583-.583h17.5a.583.583,0,0,1,.583.583Z" transform="translate(0 0)" fill="#fff"/>
    <path id="Path_9312" data-name="Path 9312" d="M5.167,5.583A.583.583,0,1,1,4.583,5,.583.583,0,0,1,5.167,5.583Z" transform="translate(-1.667 -1.667)" fill="#fff"/>
    <path id="Path_9313" data-name="Path 9313" d="M9.167,5.583A.583.583,0,1,1,8.583,5,.583.583,0,0,1,9.167,5.583Z" transform="translate(-3.333 -1.667)" fill="#fff"/>
    <path id="Path_9314" data-name="Path 9314" d="M13.167,5.583A.583.583,0,1,1,12.583,5,.583.583,0,0,1,13.167,5.583Z" transform="translate(-5 -1.667)" fill="#fff"/>
    <path id="Path_9315" data-name="Path 9315" d="M33.15,32.15l.414,6.189L34.8,36.274l4.538,4.538,2.473-2.473L37.274,33.8l2.065-1.237Z" transform="translate(-13.812 -12.979)" fill="#fff"/>
  </g>
</svg>
