<?xml version="1.0" encoding="UTF-8"?><svg id="Layer_1" xmlns="http://www.w3.org/2000/svg" xmlns:xlink="http://www.w3.org/1999/xlink" viewBox="0 0 60 60"><defs><style>.cls-1{fill:url(#linear-gradient);stroke-width:0px;}.cls-2{fill:#fff;stroke:#fff;stroke-miterlimit:10;}</style><linearGradient id="linear-gradient" x1="60" y1="30" x2="0" y2="30" gradientUnits="userSpaceOnUse"><stop offset="0" stop-color="#3b3b3b"/><stop offset="1" stop-color="#191919"/></linearGradient></defs><circle class="cls-1" cx="30" cy="30" r="30"/><path class="cls-2" d="M45,43.96l2.87-2.81c.17-.16.17-.43.01-.6l-1.55-1.63c.2-.36.37-.72.51-1.09l2.18.04c.22.01.43-.18.43-.42l.07-4.05c0-.24-.18-.43-.42-.43l-1.98-.03c-.11-.45-.27-.9-.46-1.32l1.39-1.36c.17-.16.17-.43.01-.6l-2.77-2.92c-.16-.17-.43-.18-.6-.01,0,0,0,0,0,0l-1.29,1.26c-.44-.26-.9-.47-1.38-.64l.03-1.78c0-.24-.18-.43-.42-.43l-3.99-.07c-.23,0-.43.17-.43.41,0,0,0,0,0,.01l-.03,1.78c-.3.09-.6.21-.89.34v-12.03h0c0-2.25-5.88-3.46-11.42-3.46s-11.42,1.21-11.42,3.46c0,0,0,.02,0,.03v29.02c0,2.52,5.88,3.88,11.42,3.88s11.42-1.36,11.42-3.88v-2.34c.2.09.4.17.61.24l-.05,2.43c0,.24.18.43.42.43h0s3.99.07,3.99.07h0c.23,0,.42-.19.43-.42l.04-2.43c.34-.1.67-.23.98-.38l1.65,1.73c.16.17.43.18.6.01,0,0,0,0,0,0ZM24.9,19.02c2.81,0,8.33-.38,10.56-2.06v5.88s0,0,0,.01c0,1.43-4.34,3.03-10.56,3.03s-10.54-1.59-10.56-3.02v-5.9c2.24,1.68,7.76,2.06,10.56,2.06ZM24.89,26.73c4.27,0,8.74-.81,10.57-2.34v5.7s0,0,0,.01c0,1.44-4.43,3.03-10.56,3.03s-10.54-1.59-10.56-3.02v-5.72c1.83,1.53,6.3,2.33,10.56,2.33ZM14.33,31.65c1.83,1.53,6.3,2.33,10.56,2.33,2.61,0,8.39-.48,10.57-2.3v.97l-.07,5.01c-.57,1.34-4.72,2.72-10.49,2.72-6.21,0-10.54-1.59-10.56-3.02,0,0,0-5.72,0-5.72ZM36.31,37.37h0s0-.01,0-.01v-4.54c.75-1.01,1.92-1.61,3.17-1.61,2.37.03,4.02,1.96,3.98,4.11-.04,2.2-1.83,3.98-3.98,3.98-1.34-.01-2.44-.62-3.17-1.59,0,0,0-.34,0-.34ZM24.9,12.96c6.54,0,10.56,1.51,10.56,2.6,0,1.09-4.02,2.6-10.56,2.6s-10.56-1.52-10.56-2.6h0c.01-1.09,4.03-2.6,10.56-2.6ZM35.46,44.61c0,1.43-4.34,3.03-10.56,3.03s-10.56-1.6-10.56-3.03v-5.71c1.83,1.53,6.3,2.33,10.56,2.33s8.74-.81,10.56-2.34v5.71ZM42.63,41.32c-.42.22-.89.41-1.4.54-.19.05-.32.21-.32.4l-.04,2.32-3.13-.05.04-2.32c0-.19-.12-.36-.3-.42-.4-.12-.79-.28-1.17-.47v-2.36c.83.74,1.9,1.17,3.17,1.19,2.62,0,4.79-2.16,4.84-4.82.05-2.61-1.97-4.95-4.84-4.98-1.17,0-2.29.43-3.17,1.2v-3.01c.45-.24.93-.42,1.41-.55.19-.05.32-.21.32-.4l.03-1.67,3.13.05-.03,1.67c0,.19.12.36.31.42.62.18,1.21.46,1.77.81.17.11.39.09.53-.05l1.21-1.19,2.18,2.3-1.31,1.28c-.13.13-.17.33-.08.5.27.55.47,1.13.59,1.73.04.2.21.34.41.34l1.89.03-.06,3.2-2.06-.03c-.18,0-.35.12-.41.29-.17.5-.4.99-.7,1.49-.1.16-.08.38.06.52l1.48,1.55-2.26,2.22-1.57-1.65c-.13-.14-.34-.17-.51-.08Z"/><path class="cls-2" d="M38.44,20.52l1.07.02c.05.13.1.26.16.38l-.79.77c-.17.16-.17.43-.01.6l1.54,1.61c.16.17.43.18.6.01,0,0,0,0,0,0l.85-.83c.1.05.2.09.31.13l-.02,1.21c0,.23.18.43.42.43l2.2.04h0c.23,0,.42-.19.43-.42l.02-1.21c.11-.04.21-.08.31-.12l.82.86c.16.17.43.18.6.02,0,0,0,0,0,0l1.59-1.55c.17-.16.17-.43.01-.6l-.76-.8c.07-.13.13-.25.18-.38l1.08.02c.25.01.43-.18.43-.42l.04-2.24c0-.24-.18-.43-.42-.43l-.95-.02c-.05-.17-.11-.34-.17-.5l.67-.66c.17-.16.17-.43.01-.6l-1.53-1.61c-.16-.17-.43-.18-.6-.01,0,0,0,0,0,0l-.61.6c-.17-.09-.36-.18-.54-.25l.02-.85c0-.24-.18-.43-.42-.43l-2.21-.04h0c-.23,0-.42.19-.43.42l-.02.85c-.19.06-.37.14-.55.23l-.58-.62c-.16-.17-.43-.18-.6-.02,0,0,0,0,0,0l-1.59,1.56c-.17.16-.17.43-.01.6l.65.68c-.07.16-.14.32-.19.49l-.95-.02h0c-.23,0-.42.19-.43.42l-.04,2.24c0,.24.18.43.42.43ZM38.91,18.29h.85c.2.02.38-.11.42-.31.08-.31.19-.61.35-.9.09-.16.06-.37-.06-.5l-.57-.6.98-.96.51.54c.14.14.36.18.53.07.29-.18.61-.31.94-.4.19-.05.32-.21.32-.4v-.73s1.37.02,1.37.02v.73c-.02.19.11.36.29.42.33.1.64.24.93.43.17.11.39.08.53-.05l.53-.52.94,1-.59.58c-.13.13-.17.33-.08.5.14.28.25.59.31.91.04.2.21.34.41.34h.85s-.03,1.4-.03,1.4l-.95-.02c-.16,0-.35.12-.41.29-.09.27-.22.54-.37.79-.1.16-.08.38.05.52l.69.73-.98.96-.73-.77c-.13-.14-.34-.17-.51-.08-.23.12-.48.22-.74.28-.19.05-.32.21-.32.4l-.02,1.09-1.35-.02.02-1.09c0-.19-.12-.36-.31-.42-.25-.07-.5-.18-.72-.31-.17-.1-.38-.07-.51.07l-.76.74-.95-.99.72-.7c.14-.14.17-.35.07-.52-.14-.25-.26-.52-.34-.8-.05-.18-.22-.3-.4-.31l-.95-.02s.03-1.39.03-1.39Z"/><path class="cls-2" d="M43.73,21.97h.05c1.55,0,2.84-1.28,2.87-2.85.03-1.55-1.16-2.92-2.86-2.95-1.55,0-2.84,1.28-2.87,2.85-.03,1.6,1.23,2.93,2.82,2.96ZM43.82,17.02h0c1.11.02,1.99.95,1.97,2.08-.02,1.11-.92,2.02-2.01,2.02v.43l-.04-.43c-1.11-.02-2-.95-1.98-2.09.02-1.12.93-2.01,2.05-2.01Z"/></svg>