<svg xmlns="http://www.w3.org/2000/svg" width="60" height="60" viewBox="0 0 60 60">
  <g id="driver_application" transform="translate(-142 -2550)">
    <circle id="Ellipse_14" data-name="Ellipse 14" cx="30" cy="30" r="30" transform="translate(142 2550)" fill="#fff2e8"/>
    <g id="driver_male" transform="translate(144.045 2551.613)">
      <g id="Group_8389" data-name="Group 8389" transform="translate(9.955 10.387)">
        <g id="Group_8388" data-name="Group 8388">
          <path id="Path_9295" data-name="Path 9295" d="M116.083,10.464a9.734,9.734,0,0,0-6.5,3.614,5.23,5.23,0,0,0-1.255,2.767,1.43,1.43,0,0,0,.832,1.618l.438.227-.06.423c-.03.227-.076,1.3-.121,2.359-.166,5.655,1.058,9.435,3.432,10.539a2.512,2.512,0,0,0,1.391.287c.423.015.756.015.756.03a5.678,5.678,0,0,1-.575.318,11.279,11.279,0,0,0-3.962,3.447c-.3.454-3.886,8.18-4.461,9.586-.03.091,1.875.121,9.39.121h9.435l-.045-.348c-.03-.181-.257-2.177-.5-4.43-.257-2.3-.529-4.415-.65-4.823a5.607,5.607,0,0,0-1.557-2.828,5.352,5.352,0,0,0-4.264-1.633l-.862.03.907-.484a13.91,13.91,0,0,0,3.508-2.6,17.228,17.228,0,0,0,2.495-2.948,1.311,1.311,0,0,1,.65-.484,5.428,5.428,0,0,0,2.465-3.175,8.615,8.615,0,0,0,0-3.206,9.59,9.59,0,0,0-8.452-8.392A8.762,8.762,0,0,0,116.083,10.464Zm2.707,1.573a8.054,8.054,0,0,1,6.169,4.748,8.587,8.587,0,0,1,.559,5.2c-.151.393-.181.318-.076-.272a3.349,3.349,0,0,0-.166-1.754,2.968,2.968,0,0,0-2.419-1.573.849.849,0,0,0-.832.348c-.5.5-.65,1.043-.741,2.994-.045.907-.091,1.663-.106,1.678a1.229,1.229,0,0,1-.408-.227c-.272-.181-.393-.318-.393-.454a8.336,8.336,0,0,0-.953-2.253,6.913,6.913,0,0,0-4.612-3.206,23.6,23.6,0,0,0-4.309-.06c-.7.091-.771.03-.665-.514a7.957,7.957,0,0,1,2.858-3.417,8.808,8.808,0,0,1,2.782-1.149A10.587,10.587,0,0,1,118.79,12.037Zm-5.08,6.517a5.984,5.984,0,0,1,3.659,1.709,6.8,6.8,0,0,1,1.6,2.722,2.113,2.113,0,0,0,1.21,1.512,2.464,2.464,0,0,0,1.074.393c.484.03.5.03.847-.333.469-.484.559-.922.65-2.828a7.535,7.535,0,0,1,.181-1.769l.106-.2.378.212c.575.333.665.5.6,1.391-.121,1.8-1.331,3.992-3.281,5.957-2.1,2.1-4.37,3.417-6.124,3.553a1.822,1.822,0,0,1-1.164-.181c-1.195-.559-2.041-2.4-2.434-5.353a31.5,31.5,0,0,1-.03-5.731l.106-1.028.287-.03A9.987,9.987,0,0,1,113.709,18.554Zm5.232,14.636A4.169,4.169,0,0,1,121,34.234c.408.423.408.423.136.348a4.013,4.013,0,0,0-2.948.62c-1.709,1.164-2.495,3.039-3.069,7.212-.106.756-.212,1.512-.242,1.678l-.045.3h-3.251c-1.8,0-3.266-.03-3.266-.076,0-.121,2.812-6.32,3.206-7.046a9.314,9.314,0,0,1,2.3-2.54,8.6,8.6,0,0,1,3.659-1.588A4.792,4.792,0,0,1,118.941,33.19Zm2.48,3.085a3.138,3.138,0,0,1,1,1.179c.06.181.786,6.4.786,6.774,0,.181-.03.181-3.4.181-1.875,0-3.417-.03-3.447-.076a28.831,28.831,0,0,1,.968-5.413C118.094,36.577,119.924,35.383,121.421,36.275Z" transform="translate(-91.476 -10.387)" fill="#f48120" stroke="#fff2e8" stroke-width="0.3"/>
          <path id="Path_9296" data-name="Path 9296" d="M10.446,100.522c-1.285.817-.03,3.447,3.584,7.53l.983,1.134-1.754,3.493L11.5,116.171l-.726,2.9-.726,2.9.393.106c.2.045.514.136.7.181a1.16,1.16,0,0,0,.348.06c.015-.015.333-1.285.711-2.827l.7-2.8,1.588-3.19,1.588-3.19,1.24,1.179a34.084,34.084,0,0,0,4.355,3.584c1.648,1.089,2.646,1.391,3.266,1a1.337,1.337,0,0,0,.575-1.089c0-1.467-2.707-5.232-6.532-9.027C14.755,101.777,11.64,99.766,10.446,100.522Zm1.86,1.8a28.56,28.56,0,0,1,4.219,3.3l.62.59-.7.5c-.544.408-.665.559-.665.741,0,.136-.03.227-.106.227a25.855,25.855,0,0,1-3.659-4.657C11.307,101.822,11.338,101.762,12.305,102.321Zm6.668,5.746a29.737,29.737,0,0,1,4.823,6.32c.151.348.151.348-.015.287a16.083,16.083,0,0,1-2.449-1.588l-.862-.665-1.391-2.359c-.771-1.3-1.391-2.389-1.391-2.434a.962.962,0,0,1,.469-.363A9.722,9.722,0,0,1,18.973,108.067Z" transform="translate(-9.955 -86.76)" fill="#f48120" stroke="#fff2e8" stroke-width="0.3"/>
        </g>
      </g>
    </g>
  </g>
</svg>
