<?xml version="1.0" encoding="UTF-8"?>
<svg id="Layer_1" data-name="Layer 1" xmlns="http://www.w3.org/2000/svg" version="1.1" xmlns:xlink="http://www.w3.org/1999/xlink" viewBox="0 0 45 45">
  <defs>
    <style>
      .cls-1 {
        fill: url(#linear-gradient);
        stroke-width: 0px;
      }

      .cls-2 {
        fill: #fff;
        stroke: #fff2e8;
        stroke-width: .3px;
      }
    </style>
    <linearGradient id="linear-gradient" x1="-915.5" y1="1245.7" x2="-915.8" y2="1244.9" gradientTransform="translate(41228 56058) scale(45 -45)" gradientUnits="userSpaceOnUse">
      <stop offset="0" stop-color="#3e3e3e"/>
      <stop offset="1" stop-color="#1a1a1a"/>
    </linearGradient>
  </defs>
  <g id="data_analytics" data-name="data analytics">
    <g id="banner-main6">
      <circle id="Ellipse_1" data-name="Ellipse 1" class="cls-1" cx="22.5" cy="22.5" r="22.5"/>
    </g>
    <g id="driver_male" data-name="driver male">
      <g id="Group_8389" data-name="Group 8389">
        <g id="Group_8388" data-name="Group 8388">
          <path id="Path_9295" data-name="Path 9295" class="cls-2" d="M28.3,12.1c-1.7.2-3.3,1.1-4.4,2.4-.5.5-.8,1.2-.8,1.9,0,.5.1.9.6,1.1l.3.2v.3c0,.2,0,.9-.1,1.6-.1,3.8.7,6.4,2.3,7.1.3.2.6.2.9.2.3,0,.5,0,.5,0-.1,0-.3.2-.4.2-1.1.6-2,1.4-2.7,2.3-.2.3-2.6,5.5-3,6.5,0,0,1.3,0,6.4,0h6.4v-.2c0-.1-.2-1.5-.4-3-.2-1.6-.4-3-.4-3.3-.2-.7-.5-1.4-1.1-1.9-.7-.8-1.8-1.2-2.9-1.1h-.6s.6-.3.6-.3c.9-.5,1.7-1.1,2.4-1.8.6-.6,1.2-1.3,1.7-2,.1-.2.3-.3.4-.3.8-.5,1.4-1.2,1.7-2.1.1-.7.1-1.5,0-2.2-.4-3-2.7-5.3-5.7-5.7-.5,0-1.1,0-1.6,0ZM30.1,13.1c1.9.3,3.4,1.5,4.2,3.2.5,1.1.6,2.3.4,3.5-.1.3-.1.2,0-.2,0-.4,0-.8-.1-1.2-.3-.6-.9-1-1.6-1.1-.2,0-.4,0-.6.2-.3.3-.4.7-.5,2,0,.6,0,1.1,0,1.1-.1,0-.2,0-.3-.2-.2-.1-.3-.2-.3-.3-.1-.5-.4-1.1-.6-1.5-.7-1.1-1.8-1.9-3.1-2.2-1-.1-1.9-.1-2.9,0-.5,0-.5,0-.5-.3.4-.9,1.1-1.7,1.9-2.3.6-.4,1.2-.6,1.9-.8.7-.1,1.5-.2,2.2,0ZM26.7,17.5c.9,0,1.8.5,2.5,1.2.5.5.9,1.2,1.1,1.8,0,.5.4.8.8,1,.2.1.5.2.7.3.3,0,.3,0,.6-.2.3-.3.4-.6.4-1.9,0-.4,0-.8.1-1.2h0c0-.1.3,0,.3,0,.4.2.5.3.4.9,0,1.2-.9,2.7-2.2,4-1.4,1.4-3,2.3-4.1,2.4-.3,0-.5,0-.8-.1-.8-.4-1.4-1.6-1.6-3.6-.1-1.3-.1-2.6,0-3.9v-.7c0,0,.3,0,.3,0,.5,0,1.1,0,1.6,0h0ZM30.2,27.4c.5,0,1,.3,1.4.7q.3.3,0,.2c-.7-.1-1.4,0-2,.4-1.2.8-1.7,2.1-2.1,4.9,0,.5-.1,1-.2,1.1v.2h-2.2c-1.2,0-2.2,0-2.2,0,0,0,1.9-4.3,2.2-4.8.4-.7.9-1.2,1.6-1.7.7-.5,1.6-.9,2.5-1.1.3,0,.7,0,1,0h0ZM31.9,29.5c.3.2.5.5.7.8,0,.1.5,4.3.5,4.6s0,.1-2.3.1-2.3,0-2.3,0c.1-1.2.3-2.5.7-3.7.5-1.6,1.8-2.4,2.8-1.8h0Z"/>
          <path id="Path_9296" data-name="Path 9296" class="cls-2" d="M12,21.3c-.9.6,0,2.3,2.4,5.1l.7.8-1.2,2.4-1.2,2.4-.5,2-.5,2h.3c.1.1.3.2.5.2,0,0,.2,0,.2,0,0,0,.2-.9.5-1.9l.5-1.9,1.1-2.2,1.1-2.2.8.8c.9.9,1.9,1.7,2.9,2.4,1.1.7,1.8.9,2.2.7.2-.2.4-.4.4-.7,0-1-1.8-3.5-4.4-6.1-2.9-2.8-5-4.2-5.8-3.7ZM13.2,22.5c1,.7,2,1.4,2.9,2.2l.4.4-.5.3c-.4.3-.5.4-.5.5s0,.2,0,.2c-.9-1-1.8-2-2.5-3.2-.5-.8-.5-.9.2-.5h0ZM17.7,26.4c1.3,1.3,2.4,2.7,3.3,4.3q.1.2,0,.2c-.6-.3-1.1-.7-1.7-1.1l-.6-.5-.9-1.6c-.5-.9-.9-1.6-.9-1.6,0-.1.2-.2.3-.2.2.2.4.4.6.5h0Z"/>
        </g>
      </g>
    </g>
  </g>
</svg>