<svg id="easy-collaboration" xmlns="http://www.w3.org/2000/svg" xmlns:xlink="http://www.w3.org/1999/xlink" width="45" height="45" viewBox="0 0 45 45">
  <defs>
    <linearGradient id="linear-gradient" x1="0.5" x2="0.156" y2="0.791" gradientUnits="objectBoundingBox">
      <stop offset="0" stop-color="#3e3e3e"/>
      <stop offset="1" stop-color="#1a1a1a"/>
    </linearGradient>
  </defs>
  <circle id="Ellipse_1" data-name="Ellipse 1" cx="22.5" cy="22.5" r="22.5" fill="url(#linear-gradient)"/>
  <path id="noun-collaboration-7094476" d="M15.492,15.842a2.081,2.081,0,1,1,.35,2.923A2.081,2.081,0,0,1,15.492,15.842Zm.474-2.637a4.155,4.155,0,0,0-.791.328.381.381,0,0,1-.368,0h0l-1.044-.576-.806.806.576,1.044a.385.385,0,0,1-.011.389,4.215,4.215,0,0,0-.316.771.386.386,0,0,1-.28.266l-1.126.326V17.7l1.145.33a.385.385,0,0,1,.261.26,4.155,4.155,0,0,0,.328.791.384.384,0,0,1,0,.368h0l-.576,1.044.806.806,1.044-.576a.385.385,0,0,1,.389.01,4.215,4.215,0,0,0,.771.316.386.386,0,0,1,.266.28l.326,1.127H17.7l.331-1.147a.385.385,0,0,1,.26-.261,4.155,4.155,0,0,0,.791-.328.384.384,0,0,1,.368,0h0l1.044.576.806-.806-.576-1.044a.385.385,0,0,1,.01-.389,4.215,4.215,0,0,0,.316-.771.384.384,0,0,1,.28-.266l1.127-.326V16.554l-1.146-.331a.383.383,0,0,1-.261-.26,4.155,4.155,0,0,0-.328-.791.381.381,0,0,1,0-.368h0l.576-1.044-.806-.806-1.044.576a.385.385,0,0,1-.389-.01,4.215,4.215,0,0,0-.771-.316.382.382,0,0,1-.265-.28L17.7,11.795l-.163,0h-.978l-.331,1.146a.385.385,0,0,1-.26.261ZM12.727,24.177a7.638,7.638,0,0,0,3.6.135c.615-.105,1.668-.737,1.769-.394a.613.613,0,0,1-.11.467.285.285,0,0,0-.068.106,2.833,2.833,0,0,1-.307.363,3.764,3.764,0,0,1-1.285.87,24.888,24.888,0,0,1-3.7.589.3.3,0,0,0,.033.6A25.293,25.293,0,0,0,16.5,26.3a4.3,4.3,0,0,0,1.542-1.024,3.2,3.2,0,0,0,.379-.459,12.276,12.276,0,0,0,2.006-1.579c.589-.541,1-.923,1.258-.813l.041.032c.274.246-.09.942-.264,1.233a11.205,11.205,0,0,1-2.9,2.9,12.6,12.6,0,0,1-3.312,1.618,4.075,4.075,0,0,1-.792.172,10.1,10.1,0,0,1-1.906.063,3.748,3.748,0,0,0-2.384.378,2.743,2.743,0,0,0-.428.5l-2.42-3.488c.358-.253.655-.478.915-.678,1.246-.95,1.642-1.251,4.491-.979ZM9.5,30.033,6.337,25.471l-1.185.819,3.357,4.837,1.185-.819Zm14.676-8.5a7.653,7.653,0,0,0,.135-3.6c-.105-.615-.737-1.668-.394-1.769a.618.618,0,0,1,.467.11.285.285,0,0,0,.106.068,2.741,2.741,0,0,1,.363.307,3.764,3.764,0,0,1,.87,1.285,24.863,24.863,0,0,1,.589,3.7.3.3,0,0,0,.6-.034,25.4,25.4,0,0,0-.613-3.834,4.3,4.3,0,0,0-1.024-1.542,3.2,3.2,0,0,0-.459-.379,12.276,12.276,0,0,0-1.579-2.006c-.541-.589-.922-1-.813-1.258a.347.347,0,0,1,.032-.041c.246-.274.942.09,1.233.265a11.165,11.165,0,0,1,2.9,2.9,12.6,12.6,0,0,1,1.618,3.312,4.075,4.075,0,0,1,.172.792,10.1,10.1,0,0,1,.063,1.906,3.748,3.748,0,0,0,.378,2.384,2.743,2.743,0,0,0,.5.428l-3.488,2.42c-.253-.358-.478-.653-.678-.915-.95-1.246-1.251-1.642-.979-4.491Zm5.856,3.225-4.562,3.166L26.29,29.1l4.837-3.357-.819-1.185Zm-8.5-14.676a7.653,7.653,0,0,0-3.6-.135c-.615.105-1.668.737-1.769.394a.613.613,0,0,1,.11-.467.285.285,0,0,0,.068-.106,2.915,2.915,0,0,1,.307-.363,3.764,3.764,0,0,1,1.285-.87,24.888,24.888,0,0,1,3.7-.589.3.3,0,1,0-.033-.6,25.293,25.293,0,0,0-3.835.613,4.3,4.3,0,0,0-1.542,1.024,3.2,3.2,0,0,0-.379.459,12.276,12.276,0,0,0-2.006,1.579c-.589.541-1,.922-1.258.813-.014-.009-.028-.021-.041-.032-.274-.246.09-.94.264-1.233a11.205,11.205,0,0,1,2.9-2.9,12.6,12.6,0,0,1,3.312-1.618,4.075,4.075,0,0,1,.792-.172A10.1,10.1,0,0,1,21.7,5.814a3.748,3.748,0,0,0,2.384-.378,2.749,2.749,0,0,0,.428-.5l2.42,3.488c-.358.253-.653.478-.915.678-1.246.95-1.642,1.251-4.491.979Zm3.225-5.856,3.166,4.562L29.1,7.965,25.748,3.128l-1.185.819Zm-14.674,8.5-.147.844a6.047,6.047,0,0,0,.011,2.762c.105.615.737,1.668.394,1.769a.613.613,0,0,1-.467-.11.285.285,0,0,0-.106-.068,2.741,2.741,0,0,1-.363-.307,3.764,3.764,0,0,1-.87-1.285,24.888,24.888,0,0,1-.589-3.7.3.3,0,0,0-.6.033A25.293,25.293,0,0,0,7.957,16.5a4.3,4.3,0,0,0,1.024,1.542,3.2,3.2,0,0,0,.459.379,12.276,12.276,0,0,0,1.579,2.006c.541.589.922,1,.813,1.258a.347.347,0,0,1-.032.041c-.246.274-.94-.09-1.233-.264a11.183,11.183,0,0,1-2.9-2.9,12.566,12.566,0,0,1-1.618-3.312,4.075,4.075,0,0,1-.172-.792,10.1,10.1,0,0,1-.063-1.906,3.748,3.748,0,0,0-.378-2.384,2.7,2.7,0,0,0-.5-.428l3.488-2.42c.253.358.478.653.678.915.949,1.244,1.25,1.639.978,4.488ZM4.222,9.5,8.784,6.336,7.965,5.151,3.128,8.508l.819,1.185Z" transform="translate(5.872 5.872)" fill="#fff" fill-rule="evenodd"/>
</svg>
