<svg xmlns="http://www.w3.org/2000/svg" xmlns:xlink="http://www.w3.org/1999/xlink" width="45" height="45" viewBox="0 0 45 45">
  <defs>
    <linearGradient id="linear-gradient" x1="0.5" x2="0.156" y2="0.791" gradientUnits="objectBoundingBox">
      <stop offset="0" stop-color="#3e3e3e"/>
      <stop offset="1" stop-color="#1a1a1a"/>
    </linearGradient>
  </defs>
  <g id="ecommerce_online" transform="translate(-370 -392)">
    <circle id="Ellipse_1" data-name="Ellipse 1" cx="22.5" cy="22.5" r="22.5" transform="translate(370 392)" fill="url(#linear-gradient)"/>
    <g id="online" transform="translate(371.04 387)">
      <g id="Group_8365" data-name="Group 8365" transform="translate(9.96 17)">
        <g id="Group_8364" data-name="Group 8364" transform="translate(0 0)">
          <path id="Path_9258" data-name="Path 9258" d="M10.436,17.087a.9.9,0,0,0-.308.27l-.135.193-.029,8.23c-.01,8.143-.01,8.239.106,8.422a.98.98,0,0,0,.3.3c.183.106.3.116,5.342.116H20.86v2.849h-1.5c-1.588,0-1.723.019-1.838.27a.38.38,0,0,0,.077.5l.135.144H24.9l.135-.144a.38.38,0,0,0,.077-.5c-.115-.241-.25-.27-1.838-.27h-1.5V34.614h5.159c5.015,0,5.159-.01,5.332-.116a.931.931,0,0,0,.3-.337c.116-.231.116-.289.116-8.335,0-7.854-.01-8.114-.106-8.355a.677.677,0,0,0-.337-.356C32.006,17,32,17,21.3,17,12.447,17.01,10.58,17.019,10.436,17.087Zm21.339,7.392v6.564H10.869V17.914H31.775v6.564Zm0,8.345V33.7H10.869V31.948H31.775v.876Z" transform="translate(-9.96 -17)" fill="#f8f8f8"/>
          <path id="Path_9259" data-name="Path 9259" d="M52.4,40.552V41h1.8l.9,3.176.9,3.176h8.855l.876-2.57c.481-1.405.886-2.6.9-2.637s-1.126-.067-5.592-.067H55.442l-.279-.991-.289-.991H52.4ZM64.816,44.71l-.587,1.723H56.693l-.27-.991c-.154-.549-.356-1.319-.462-1.723L55.769,43H65.4Z" transform="translate(-48.315 -37.877)" fill="#f8f8f8"/>
          <path id="Path_9260" data-name="Path 9260" d="M91.474,120.986a1.289,1.289,0,0,0-.674,1.078,1.272,1.272,0,0,0,.866,1.136,1.193,1.193,0,0,0,1.319-.462c.164-.2.173-.26.173-.664a.909.909,0,0,0-.173-.693A1.226,1.226,0,0,0,91.474,120.986Zm.635.8a.594.594,0,0,1,.173.173.292.292,0,1,1-.443-.135C91.984,121.708,91.965,121.708,92.109,121.785Z" transform="translate(-83.019 -110.87)" fill="#f8f8f8"/>
          <path id="Path_9261" data-name="Path 9261" d="M161.741,121.125a1.187,1.187,0,0,0-.741,1.117,1.214,1.214,0,0,0,1.222,1.2,1.449,1.449,0,0,0,.9-.462,1.188,1.188,0,0,0-.26-1.723.781.781,0,0,0-.6-.183A1.465,1.465,0,0,0,161.741,121.125Zm.616.876a.293.293,0,0,1-.183.529.3.3,0,0,1-.26-.395.494.494,0,0,1,.289-.231C162.213,121.914,162.29,121.953,162.357,122Z" transform="translate(-146.462 -111.057)" fill="#f8f8f8"/>
        </g>
      </g>
    </g>
  </g>
</svg>
