<svg width="256" height="256" viewBox="0 0 256 256" fill="none" xmlns="http://www.w3.org/2000/svg">
<path d="M211.926 40H44.0741C33.5357 40 25 48.5357 25 59.0741V196.407C25 201.462 27.0123 206.316 30.5888 209.893C34.1651 213.469 39.0195 215.481 44.0741 215.481H211.926C216.981 215.481 221.835 213.469 225.411 209.893C228.987 206.316 231 201.462 231 196.407V59.0741C231 54.0195 228.988 49.1651 225.411 45.5888C221.835 42.0125 216.981 40 211.926 40ZM44.0741 47.6296H211.926C218.249 47.6296 223.37 52.7511 223.37 59.0741V78.1481H32.6296V59.0741C32.6296 52.7511 37.7511 47.6296 44.0741 47.6296ZM211.926 207.852H44.0741C37.7511 207.852 32.6296 202.73 32.6296 196.407V85.779H223.37V196.407C223.37 202.73 218.249 207.852 211.926 207.852ZM44.0741 62.8889C44.0741 60.7812 45.7812 59.0741 47.8889 59.0741H97.4803C99.5879 59.0741 101.295 60.7812 101.295 62.8889C101.295 64.9966 99.5879 66.7037 97.4803 66.7037H47.8889C45.7812 66.7037 44.0741 64.9966 44.0741 62.8889ZM169.962 62.8889C169.962 60.7812 171.669 59.0741 173.777 59.0741H181.406C183.514 59.0741 185.221 60.7812 185.221 62.8889C185.221 64.9966 183.514 66.7037 181.406 66.7037H173.777C171.669 66.7037 169.962 64.9966 169.962 62.8889ZM196.667 62.8889C196.667 60.7812 198.374 59.0741 200.481 59.0741H209.79C211.897 59.0741 213.604 60.7812 213.604 62.8889C213.604 64.9966 211.897 66.7037 209.79 66.7037H200.481C198.374 66.7037 196.667 64.9966 196.667 62.8889ZM157.183 116.296H91.0726C88.0398 109.344 81.1826 104.852 73.6009 104.852H68.2982C66.1905 104.852 64.4834 106.559 64.4834 108.667C64.4834 110.774 66.1905 112.481 68.2982 112.481H73.6009C78.1501 112.481 82.2701 115.181 84.0917 119.348L104.768 166.652C106.59 170.819 110.71 173.519 115.259 173.519H146.617C151.634 173.509 156.059 170.228 157.528 165.431L168.095 131.099C169.153 127.637 168.514 123.87 166.369 120.952C164.213 118.033 160.807 116.306 157.183 116.296ZM160.998 128.847L150.431 163.179C149.944 164.781 148.476 165.878 146.807 165.888H115.258C113.751 165.878 112.387 164.982 111.786 163.599L94.3908 123.925H157.183C158.394 123.934 159.52 124.516 160.235 125.489C160.941 126.452 161.151 127.701 160.807 128.846L160.998 128.847ZM120.369 181.148C120.369 182.159 119.969 183.132 119.253 183.847C118.538 184.563 117.565 184.963 116.554 184.963H108.925C106.817 184.963 105.11 183.256 105.11 181.148C105.11 179.041 106.817 177.334 108.925 177.334H116.554C117.565 177.334 118.538 177.734 119.253 178.449C119.969 179.165 120.369 180.137 120.369 181.148ZM154.701 181.148C154.701 182.159 154.301 183.132 153.585 183.847C152.87 184.563 151.897 184.963 150.886 184.963H143.257C141.149 184.963 139.442 183.256 139.442 181.148C139.442 179.041 141.149 177.334 143.257 177.334H150.886C151.897 177.334 152.87 177.734 153.585 178.449C154.301 179.165 154.701 180.137 154.701 181.148Z" fill="black"/>
</svg>
