<svg width="256" height="256" viewBox="0 0 256 256" fill="none" xmlns="http://www.w3.org/2000/svg">
<path d="M178.245 75.1953H89.2575L85.1654 61.908C84.8612 60.8482 83.8896 60.122 82.7807 60.122H67.7075C66.3238 60.122 65.1953 61.2505 65.1953 62.6342C65.1953 64.0179 66.3238 65.1464 67.7075 65.1464H80.926L100.248 127.921L95.4792 142.239C95.224 143.014 95.3516 143.848 95.8324 144.496C96.2937 145.163 97.0493 145.536 97.854 145.536H101.77C100.896 147.018 100.366 148.726 100.366 150.561C100.366 156.115 104.861 160.61 110.415 160.61C115.969 160.61 120.464 156.115 120.464 150.561C120.464 148.726 119.934 147.018 119.061 145.536H146.969C146.115 147.018 145.585 148.726 145.585 150.561C145.585 156.115 150.08 160.61 155.634 160.61C161.188 160.61 165.683 156.115 165.683 150.561C165.683 148.627 165.104 146.841 164.171 145.34C165.055 144.938 165.683 144.055 165.683 143.024C165.683 141.64 164.554 140.512 163.17 140.512H101.348L104.684 130.463H163.171C164.28 130.463 165.251 129.737 165.585 128.677L180.658 78.4329C180.884 77.6773 180.737 76.853 180.256 76.2249C179.775 75.5674 179.05 75.1953 178.245 75.1953ZM115.44 150.562C115.44 153.329 113.183 155.586 110.415 155.586C107.648 155.586 105.391 153.329 105.391 150.562C105.391 147.794 107.648 145.537 110.415 145.537C113.183 145.537 115.44 147.794 115.44 150.562ZM155.635 155.586C152.868 155.586 150.611 153.329 150.611 150.562C150.611 147.794 152.868 145.537 155.635 145.537C158.402 145.537 160.659 147.794 160.659 150.562C160.659 153.329 158.402 155.586 155.635 155.586ZM161.317 125.439H104.734L90.8191 80.2197H174.88L161.317 125.439ZM221.354 35H34.6464C29.3177 35 25 39.318 25 44.6464V176.057C25 181.415 29.318 185.733 34.6464 185.733H105.39V215.88H87.8047C86.421 215.88 85.2925 217.008 85.2925 218.392C85.2925 219.776 86.421 220.904 87.8047 220.904H168.195C169.579 220.904 170.708 219.776 170.708 218.392C170.708 217.008 169.579 215.88 168.195 215.88H150.61V185.733H221.354C226.682 185.733 231 181.415 231 176.087V44.6484C231 39.3197 226.682 35 221.354 35ZM145.585 215.879H110.415V185.732H145.585V215.879ZM221.354 180.708H34.6464C32.1048 180.708 30.0244 178.628 30.0244 176.086V155.586H72.7319C74.1156 155.586 75.2442 154.457 75.2442 153.074C75.2442 151.69 74.1156 150.562 72.7319 150.562H30.0244V44.6469C30.0244 42.0857 32.1048 40.0249 34.6464 40.0249H221.326C223.887 40.0249 225.948 42.1053 225.948 44.6469V150.562H188.295C186.911 150.562 185.783 151.69 185.783 153.074C185.783 154.457 186.911 155.586 188.295 155.586H225.978V176.086C225.978 178.628 223.895 180.708 221.354 180.708Z" fill="black"/>
</svg>
