<svg id="emission-tracking" xmlns="http://www.w3.org/2000/svg" width="45" height="45" viewBox="0 0 45 45">
  <circle id="Ellipse_45" data-name="Ellipse 45" cx="22.5" cy="22.5" r="22.5" fill="#2f2f2f"/>
  <g id="noun-carbon-emission-6243606" transform="translate(-19.752 -42.907)">
    <path id="Path_9181" data-name="Path 9181" d="M153.866,315.675l-.6.6v-3.936a.427.427,0,0,0-.426-.426.422.422,0,0,0-.426.426v3.936l-.6-.6a.422.422,0,0,0-.605,0,.437.437,0,0,0,0,.605l1.32,1.32a.424.424,0,0,0,.307.12.416.416,0,0,0,.3-.12l1.32-1.32a.421.421,0,0,0,0-.605A.411.411,0,0,0,153.866,315.675Z" transform="translate(-114.371 -243.178)" fill="none"/>
    <path id="Path_9182" data-name="Path 9182" d="M228.306,315.824l-.6.6v-3.945a.426.426,0,1,0-.852,0v3.945l-.6-.6a.422.422,0,0,0-.605,0,.437.437,0,0,0,0,.605l1.329,1.32a.432.432,0,0,0,.6,0l1.329-1.32a.437.437,0,0,0,0-.605A.422.422,0,0,0,228.306,315.824Z" transform="translate(-184.534 -243.31)" fill="none"/>
    <path id="Path_9183" data-name="Path 9183" d="M302.771,315.824l-.6.6v-3.945a.427.427,0,0,0-.426-.426.433.433,0,0,0-.426.426v3.945l-.588-.6a.428.428,0,1,0-.605.605l1.32,1.32a.443.443,0,0,0,.605,0l1.32-1.32a.437.437,0,0,0,0-.605A.423.423,0,0,0,302.771,315.824Z" transform="translate(-254.723 -243.31)" fill="none"/>
    <path id="Path_9184" data-name="Path 9184" d="M55.189,211.065a5.242,5.242,0,0,0-2.931-2.811,4.715,4.715,0,0,0-3.136-.153,6.621,6.621,0,0,0-2.5-2.573,6.3,6.3,0,0,0-6.909.162,6.71,6.71,0,0,0-2.394,2.693,4.539,4.539,0,0,0-1.627.136,5.012,5.012,0,0,0-3.288,2.829,3.71,3.71,0,0,0-2.275,2.1,4.131,4.131,0,0,0,.264,3.919,3.569,3.569,0,0,0,2.888,1.772H50.937a5.151,5.151,0,0,0,4.234-3.092A5.718,5.718,0,0,0,55.189,211.065Zm-15.1,4.047-1.32,1.32a.443.443,0,0,1-.605,0l-1.32-1.32a.437.437,0,0,1,0-.605.422.422,0,0,1,.605,0l.6.6v-3.936a.422.422,0,0,1,.426-.426.427.427,0,0,1,.426.426V215.1l.6-.6a.411.411,0,0,1,.6,0A.421.421,0,0,1,40.091,215.112Zm4.285.017-1.329,1.32a.432.432,0,0,1-.6,0l-1.329-1.32a.437.437,0,0,1,0-.605.422.422,0,0,1,.605,0l.6.6v-3.945a.426.426,0,0,1,.852,0v3.945l.6-.6a.422.422,0,0,1,.605,0A.437.437,0,0,1,44.377,215.129Zm4.277,0-1.32,1.32a.424.424,0,0,1-.307.12.416.416,0,0,1-.3-.12l-1.32-1.32a.428.428,0,0,1,.605-.605l.588.6v-3.945a.433.433,0,0,1,.426-.426.427.427,0,0,1,.426.426v3.945l.6-.6a.423.423,0,0,1,.605,0A.437.437,0,0,1,48.654,215.129Z" transform="translate(0 -142.01)" fill="#fff"/>
    <path id="Path_9185" data-name="Path 9185" d="M430.815,238.569a.771.771,0,1,0-.775-.758A.763.763,0,0,0,430.815,238.569Z" transform="translate(-377.288 -172.598)" fill="#fff"/>
    <path id="Path_9186" data-name="Path 9186" d="M354.455,184.176h.009a1.823,1.823,0,0,0,0-3.646,1.763,1.763,0,0,0-1.269.519,1.785,1.785,0,0,0-.554,1.3,1.831,1.831,0,0,0,.528,1.3A1.784,1.784,0,0,0,354.455,184.176Z" transform="translate(-304.336 -119.347)" fill="#fff"/>
    <path id="Path_9187" data-name="Path 9187" d="M371.653,90.45a.775.775,0,1,0-.775-.758A.763.763,0,0,0,371.653,90.45Z" transform="translate(-321.525 -32.982)" fill="#fff"/>
    <path id="Path_9188" data-name="Path 9188" d="M374.3,147.457a.609.609,0,1,0,.605.6A.608.608,0,0,0,374.3,147.457Z" transform="translate(-324.173 -88.174)" fill="#fff"/>
    <path id="Path_9189" data-name="Path 9189" d="M295.892,112.544h.009a1.345,1.345,0,0,0,.963-.392,1.37,1.37,0,1,0-2.334-.98A1.352,1.352,0,0,0,295.892,112.544Z" transform="translate(-249.564 -52.691)" fill="#fff"/>
    <path id="Path_9190" data-name="Path 9190" d="M291.9,170.37a.776.776,0,0,0,.767-.775.79.79,0,0,0-.775-.775.775.775,0,1,0,.008,1.55Z" transform="translate(-246.35 -108.31)" fill="#fff"/>
    <path id="Path_9191" data-name="Path 9191" d="M259.712,72.95a.771.771,0,0,0,.767-.775.79.79,0,0,0-.775-.775.775.775,0,0,0,.008,1.55Z" transform="translate(-216.017 -16.488)" fill="#fff"/>
    <path id="Path_9192" data-name="Path 9192" d="M208.215,131.969a1.564,1.564,0,0,0,1.551,1.61h.034a1.579,1.579,0,0,0,1.133-2.675,1.58,1.58,0,0,0-1.133-.494,1.6,1.6,0,0,0-1.116.452A1.56,1.56,0,0,0,208.215,131.969Z" transform="translate(-168.209 -72.107)" fill="#fff"/>
    <path id="Path_9193" data-name="Path 9193" d="M207.663,55.449a.771.771,0,0,0,0-1.542.759.759,0,0,0-.775.784A.747.747,0,0,0,207.663,55.449Z" transform="translate(-166.958)" fill="#fff"/>
    <path id="Path_9194" data-name="Path 9194" d="M185.273,191.7a.771.771,0,1,0-.775-.758A.753.753,0,0,0,185.273,191.7Z" transform="translate(-145.854 -128.421)" fill="#fff"/>
    <path id="Path_9195" data-name="Path 9195" d="M121.223,91.8a1.825,1.825,0,0,0,1.287-3.118,1.8,1.8,0,0,0-1.3-.537,1.764,1.764,0,0,0-1.286.537,1.846,1.846,0,0,0-.528,1.3A1.825,1.825,0,0,0,121.223,91.8Z" transform="translate(-84.497 -32.271)" fill="#fff"/>
    <path id="Path_9196" data-name="Path 9196" d="M89.614,188.475h.009a1.793,1.793,0,0,0,1.84-1.874,1.82,1.82,0,1,0-3.11,1.354A1.79,1.79,0,0,0,89.614,188.475Z" transform="translate(-54.737 -123.399)" fill="#fff"/>
    <path id="Path_9197" data-name="Path 9197" d="M55.823,275.78a.771.771,0,0,0,0-1.542.771.771,0,1,0,0,1.542Z" transform="translate(-23.842 -207.67)" fill="#fff"/>
  </g>
</svg>
