<svg xmlns="http://www.w3.org/2000/svg" width="60" height="60" viewBox="0 0 60 60">
  <g id="emission-tracking-1" transform="translate(-267 -1397)">
    <circle id="Ellipse_30" data-name="Ellipse 30" cx="30" cy="30" r="30" transform="translate(267 1397)" fill="#f48120"/>
    <g id="noun-carbon-emission-6243606" transform="translate(247.248 1355.093)">
      <path id="Path_9181" data-name="Path 9181" d="M155.358,317.7l-.918.918v-6.055a.657.657,0,0,0-.655-.655.649.649,0,0,0-.655.655v6.055l-.918-.918a.648.648,0,0,0-.931,0,.673.673,0,0,0,0,.931l2.031,2.031a.653.653,0,0,0,.472.184.64.64,0,0,0,.459-.184l2.031-2.031a.648.648,0,0,0,0-.931A.633.633,0,0,0,155.358,317.7Z" transform="translate(-110.617 -235.196)" fill="none"/>
      <path id="Path_9182" data-name="Path 9182" d="M229.8,317.856l-.918.918v-6.068a.655.655,0,1,0-1.31,0v6.068l-.918-.918a.65.65,0,0,0-.931,0,.673.673,0,0,0,0,.931l2.045,2.031a.664.664,0,0,0,.918,0l2.045-2.031a.673.673,0,0,0,0-.931A.65.65,0,0,0,229.8,317.856Z" transform="translate(-178.476 -235.323)" fill="none"/>
      <path id="Path_9183" data-name="Path 9183" d="M304.262,317.856l-.918.918v-6.068a.657.657,0,0,0-.655-.655.666.666,0,0,0-.655.655v6.068l-.9-.918a.658.658,0,0,0-.931.931l2.031,2.031a.681.681,0,0,0,.931,0l2.031-2.031a.673.673,0,0,0,0-.931A.65.65,0,0,0,304.262,317.856Z" transform="translate(-246.361 -235.323)" fill="none"/>
      <path id="Path_9184" data-name="Path 9184" d="M68.885,214.559a8.065,8.065,0,0,0-4.509-4.325A7.254,7.254,0,0,0,59.552,210,10.186,10.186,0,0,0,55.7,206.04a9.7,9.7,0,0,0-10.63.249,10.323,10.323,0,0,0-3.684,4.142,6.983,6.983,0,0,0-2.5.209,7.711,7.711,0,0,0-5.059,4.352,5.708,5.708,0,0,0-3.5,3.237,6.355,6.355,0,0,0,.407,6.03,5.491,5.491,0,0,0,4.444,2.726H62.345a7.924,7.924,0,0,0,6.514-4.758A8.8,8.8,0,0,0,68.885,214.559Zm-23.227,6.227-2.031,2.031a.681.681,0,0,1-.931,0l-2.031-2.031a.673.673,0,0,1,0-.931.648.648,0,0,1,.931,0l.918.918v-6.055a.649.649,0,0,1,.655-.655.657.657,0,0,1,.655.655v6.055l.918-.918a.633.633,0,0,1,.918,0A.648.648,0,0,1,45.659,220.786Zm6.593.026-2.045,2.031a.664.664,0,0,1-.918,0l-2.045-2.031a.673.673,0,0,1,0-.931.65.65,0,0,1,.931,0l.918.918V214.73a.655.655,0,0,1,1.31,0V220.8l.918-.918a.65.65,0,0,1,.931,0A.673.673,0,0,1,52.252,220.812Zm6.58,0L56.8,222.843a.653.653,0,0,1-.472.184.64.64,0,0,1-.459-.184l-2.031-2.031a.658.658,0,0,1,.931-.931l.9.918V214.73a.666.666,0,0,1,.655-.655.657.657,0,0,1,.655.655V220.8l.918-.918a.65.65,0,0,1,.931,0A.673.673,0,0,1,58.832,220.812Z" transform="translate(0 -137.348)" fill="#fff"/>
      <path id="Path_9185" data-name="Path 9185" d="M431.232,239.4a1.186,1.186,0,1,0-1.192-1.166A1.174,1.174,0,0,0,431.232,239.4Z" transform="translate(-364.904 -166.933)" fill="#fff"/>
      <path id="Path_9186" data-name="Path 9186" d="M355.432,186.14h.013a2.8,2.8,0,0,0,0-5.61,2.712,2.712,0,0,0-1.953.8,2.747,2.747,0,0,0-.852,1.992,2.817,2.817,0,0,0,.812,1.992A2.744,2.744,0,0,0,355.432,186.14Z" transform="translate(-294.346 -115.43)" fill="#fff"/>
      <path id="Path_9187" data-name="Path 9187" d="M372.07,91.285a1.192,1.192,0,1,0-1.192-1.166A1.175,1.175,0,0,0,372.07,91.285Z" transform="translate(-310.971 -31.899)" fill="#fff"/>
      <path id="Path_9188" data-name="Path 9188" d="M374.631,147.457a.937.937,0,1,0,.931.93A.935.935,0,0,0,374.631,147.457Z" transform="translate(-313.532 -85.28)" fill="#fff"/>
      <path id="Path_9189" data-name="Path 9189" d="M296.626,114.017h.013a2.07,2.07,0,0,0,1.482-.6,2.107,2.107,0,1,0-3.591-1.507A2.08,2.08,0,0,0,296.626,114.017Z" transform="translate(-241.372 -50.961)" fill="#fff"/>
      <path id="Path_9190" data-name="Path 9190" d="M292.325,171.205a1.2,1.2,0,0,0,1.18-1.193,1.215,1.215,0,0,0-1.192-1.192,1.193,1.193,0,1,0,.012,2.385Z" transform="translate(-238.264 -104.755)" fill="#fff"/>
      <path id="Path_9191" data-name="Path 9191" d="M260.129,73.785a1.187,1.187,0,0,0,1.18-1.192,1.215,1.215,0,0,0-1.193-1.192,1.193,1.193,0,0,0,.012,2.385Z" transform="translate(-208.926 -15.946)" fill="#fff"/>
      <path id="Path_9192" data-name="Path 9192" d="M208.215,132.809a2.406,2.406,0,0,0,2.386,2.477h.052a2.429,2.429,0,0,0,1.743-4.116,2.431,2.431,0,0,0-1.743-.76,2.463,2.463,0,0,0-1.717.695A2.4,2.4,0,0,0,208.215,132.809Z" transform="translate(-162.687 -69.74)" fill="#fff"/>
      <path id="Path_9193" data-name="Path 9193" d="M208.08,56.279a1.186,1.186,0,0,0,0-2.372,1.167,1.167,0,0,0-1.192,1.206A1.15,1.15,0,0,0,208.08,56.279Z" transform="translate(-161.477 0)" fill="#fff"/>
      <path id="Path_9194" data-name="Path 9194" d="M185.69,192.53a1.186,1.186,0,1,0-1.193-1.167A1.158,1.158,0,0,0,185.69,192.53Z" transform="translate(-141.066 -124.206)" fill="#fff"/>
      <path id="Path_9195" data-name="Path 9195" d="M122.2,93.769a2.808,2.808,0,0,0,1.979-4.8,2.774,2.774,0,0,0-1.993-.826,2.713,2.713,0,0,0-1.979.826,2.84,2.84,0,0,0-.812,1.992A2.808,2.808,0,0,0,122.2,93.769Z" transform="translate(-81.724 -31.211)" fill="#fff"/>
      <path id="Path_9196" data-name="Path 9196" d="M90.577,190.439h.013a2.759,2.759,0,0,0,2.831-2.884,2.8,2.8,0,1,0-4.784,2.084A2.754,2.754,0,0,0,90.577,190.439Z" transform="translate(-52.94 -119.348)" fill="#fff"/>
      <path id="Path_9197" data-name="Path 9197" d="M56.24,276.61a1.186,1.186,0,0,0,0-2.373,1.186,1.186,0,1,0,0,2.373Z" transform="translate(-23.06 -200.853)" fill="#fff"/>
    </g>
  </g>
</svg>
