<?xml version="1.0" encoding="UTF-8"?><svg id="Layer_1" xmlns="http://www.w3.org/2000/svg" viewBox="0 0 60 60"><defs><style>.cls-1{fill:#f48120;stroke-width:0px;}.cls-2{fill:#fff;stroke:#fff;stroke-miterlimit:10;}</style></defs><circle class="cls-1" cx="30" cy="30" r="30"/><path class="cls-2" d="M24.53,45.89l4.02-5.64,7.49-10.5,2.14-3h-6.4l.73-6.47.8-7.07-4.22,5.73-7.74,10.52-2.23,3.03h6.53l-.55,6.51-.58,6.9h0ZM22.89,30.58l7.74-10.52-.97,8.59h4.83l-7.49,10.5.72-8.57h-4.84Z"/><path class="cls-2" d="M20.57,10.35c2.57-1.09,5.31-1.64,8.13-1.64s5.56.55,8.13,1.64c2.49,1.05,4.72,2.56,6.64,4.48.47.47.92.97,1.35,1.48h-4.72c-.52,0-.95.43-.95.95s.42.95.95.95h6.62c.07,0,.13,0,.19-.02.01,0,.02,0,.03,0,.02,0,.04,0,.06-.01,0,0,0,0,.01,0,.39-.13.66-.49.66-.9v-6.65c0-.52-.43-.95-.95-.95s-.95.43-.95.95v3.89c-4.18-4.72-10.27-7.69-17.07-7.69-12.55,0-22.74,10.25-22.79,22.79,0,.52.43.95.95.95s.95-.43.95-.95c0-2.82.55-5.56,1.64-8.13,1.05-2.49,2.56-4.72,4.48-6.64,1.92-1.92,4.15-3.43,6.64-4.48ZM50.54,28.65c-.52,0-.95.42-.95.95,0,2.82-.55,5.56-1.64,8.13-1.05,2.49-2.56,4.72-4.48,6.64-1.92,1.92-4.15,3.43-6.64,4.48-2.58,1.09-5.31,1.64-8.13,1.64s-5.56-.55-8.13-1.64c-2.49-1.05-4.72-2.56-6.64-4.48-.47-.47-.92-.97-1.35-1.48h4.72c.52,0,.95-.42.95-.95s-.43-.95-.95-.95h-6.62c-.07,0-.13,0-.19.02-.01,0-.02,0-.03,0-.02,0-.04,0-.06.02,0,0,0,0,0,0-.35.11-.61.42-.65.79,0,.04,0,.07,0,.11v6.65c0,.52.42.95.95.95h0c.52,0,.95-.42.95-.95v-3.89c4.18,4.72,10.27,7.69,17.07,7.69,12.55,0,22.74-10.25,22.79-22.79,0-.52-.42-.95-.95-.95h0Z"/></svg>