<svg xmlns="http://www.w3.org/2000/svg" width="60" height="60" viewBox="0 0 60 60">
  <g id="erp_system" transform="translate(-964 -1779)">
    <circle id="Ellipse_14" data-name="Ellipse 14" cx="30" cy="30" r="30" transform="translate(964 1779)" fill="#fff2e8"/>
    <g id="management" transform="translate(968.1 1783)">
      <g id="Group_8371" data-name="Group 8371" transform="translate(9.9 10)">
        <path id="Path_9267" data-name="Path 9267" d="M41.343,29.686H38.874a12.343,12.343,0,0,1-.453,1.372l-.082.206-.082.192.027-.069a13.916,13.916,0,0,1-.672,1.358l1.742,1.742a.952.952,0,0,1,0,1.344L35.746,39.44a.978.978,0,0,1-1.344,0L32.659,37.7a14.126,14.126,0,0,1-1.29.645l-.343.151c-.494.192-.96.343-1.427.48v2.469a.948.948,0,0,1-.947.947h-5.1a.948.948,0,0,1-.947-.947V38.974a12.342,12.342,0,0,1-1.372-.453l-.11-.041-.3-.123a12.558,12.558,0,0,1-1.29-.645l-1.742,1.742a.978.978,0,0,1-1.344,0l-3.608-3.608a.952.952,0,0,1,0-1.344l1.742-1.742a14.126,14.126,0,0,1-.645-1.29l-.137-.343a13.629,13.629,0,0,1-.48-1.44H10.847A.948.948,0,0,1,9.9,28.74v-5.1a.948.948,0,0,1,.947-.947h2.469a12.343,12.343,0,0,1,.453-1.372l.123-.3c.219-.508.453-.96.686-1.386L12.85,17.888a.961.961,0,0,1,0-1.344l3.608-3.608a.978.978,0,0,1,1.344,0l1.742,1.742a12.558,12.558,0,0,1,1.29-.645l.4-.165a12.343,12.343,0,0,1,1.372-.453V10.947A.948.948,0,0,1,23.55,10h5.1a.948.948,0,0,1,.947.947V13.4a12.344,12.344,0,0,1,1.372.453l.329.137c.494.219.947.439,1.372.672l1.742-1.742a.978.978,0,0,1,1.344,0l3.608,3.608a.932.932,0,0,1,.274.672.956.956,0,0,1-.274.672l-1.742,1.742a14.127,14.127,0,0,1,.645,1.29l.137.343a13.431,13.431,0,0,1,.48,1.427h2.469a.948.948,0,0,1,.947.947v5.1a.972.972,0,0,1-.96.96Zm-11-14.021a11.938,11.938,0,0,0-1.605-.508l-.4-.1V12.1H23.879v2.963l-.4.1a11.741,11.741,0,0,0-1.536.48l-.082.027-.1.041h0l-.123.055a10.554,10.554,0,0,0-1.468.768l-.357.219-2.1-2.1-3.155,3.155,2.1,2.1-.219.343a11.732,11.732,0,0,0-.741,1.427l-.069.178h0l-.041.11a11.939,11.939,0,0,0-.508,1.605l-.1.4H12.013v4.459h2.963l.1.4a11.741,11.741,0,0,0,.48,1.536h0l.069.178.055.123a10,10,0,0,0,.768,1.482l.219.357-2.1,2.1,3.155,3.155,2.1-2.1.357.219a10.806,10.806,0,0,0,1.427.741h0l.11.041h0l.137.055a11.694,11.694,0,0,0,1.633.521l.4.1v2.963h4.459V37.328l.4-.1a11.742,11.742,0,0,0,1.536-.48l.178-.069.165-.069-.055.027a10.873,10.873,0,0,0,1.5-.782l.357-.22,2.1,2.1,3.155-3.155-2.1-2.1.219-.357a10.8,10.8,0,0,0,.741-1.427l.069-.178h0l.055-.123a11.621,11.621,0,0,0,.508-1.578l.1-.4h2.963V23.966H37.255l-.1-.4a11.741,11.741,0,0,0-.48-1.536l-.123-.288a10,10,0,0,0-.768-1.482l-.219-.343,2.1-2.1-3.155-3.155-2.1,2.085-.357-.219a10.8,10.8,0,0,0-1.427-.741l-.165-.069M26.1,32.951a6.777,6.777,0,1,1,6.777-6.777A6.783,6.783,0,0,1,26.1,32.951Zm0-11.551a4.788,4.788,0,1,0,4.788,4.788A4.792,4.792,0,0,0,26.1,21.4Z" transform="translate(-9.9 -10)" fill="#f48120"/>
      </g>
    </g>
  </g>
</svg>
