<svg xmlns="http://www.w3.org/2000/svg" width="28.596" height="23.21" viewBox="0 0 28.596 23.21">
  <g id="_15088334301582956843_1_" data-name="15088334301582956843 (1)" transform="translate(-2.301 -13.922)">
    <path id="Path_6935" data-name="Path 6935" d="M51.93,57.968l-.225-.027a4.156,4.156,0,0,0-.644-1.549l.141-.18c.128-.164.253-.33.374-.5l-.952-.952c-.171.12-.337.246-.5.374l-.18.141a4.157,4.157,0,0,0-1.551-.644q-.013-.113-.027-.225c-.026-.206-.054-.412-.09-.618H46.929c-.036.206-.064.412-.09.618q-.014.113-.027.225a4.155,4.155,0,0,0-1.551.644l-.18-.141c-.164-.128-.329-.253-.5-.374l-.953.952c.12.171.246.337.374.5l.141.179a4.158,4.158,0,0,0-.644,1.551l-.225.027c-.206.026-.412.054-.618.09v1.347c.206.036.412.064.618.09l.225.027a4.156,4.156,0,0,0,.643,1.549c-.047.06-.095.119-.141.18-.127.164-.253.33-.373.5l.953.952c.172-.12.338-.245.5-.372.061-.046.12-.094.18-.141a4.157,4.157,0,0,0,1.547.643c.008.075.017.15.027.225.026.206.055.412.091.618h1.347c.037-.206.065-.412.092-.618.01-.075.018-.15.027-.225a4.158,4.158,0,0,0,1.547-.643c.06.047.12.095.18.141.164.127.33.253.5.372l.952-.952c-.12-.172-.245-.338-.373-.5-.046-.061-.094-.12-.141-.18a4.158,4.158,0,0,0,.643-1.547l.225-.027c.206-.026.412-.055.618-.091V58.06C52.342,58.023,52.136,57.995,51.93,57.968Zm-3,3.381a2.934,2.934,0,0,1-3.945-1.288,2.88,2.88,0,0,1-.174-.421,2.935,2.935,0,0,1,1.46-3.522,2.891,2.891,0,0,1,.424-.176,2.939,2.939,0,0,1,1.815,0,2.887,2.887,0,0,1,.423.176,2.934,2.934,0,0,1,0,5.231Z" transform="translate(-31.003 -30.627)" fill="#000"/>
    <path id="Path_6936" data-name="Path 6936" d="M29.686,13.922H3.512A1.211,1.211,0,0,0,2.3,15.133V17.94H30.9V15.133A1.211,1.211,0,0,0,29.686,13.922ZM4.7,16.294a.573.573,0,0,1-.4.17.548.548,0,0,1-.4-.17.574.574,0,1,1,.807,0Zm2.018,0a.573.573,0,0,1-.4.17.548.548,0,0,1-.4-.17.574.574,0,1,1,.807,0Zm2.018,0a.573.573,0,0,1-.4.17.548.548,0,0,1-.4-.17.574.574,0,1,1,.807,0Z" fill="#000"/>
    <path id="Path_6937" data-name="Path 6937" d="M2.3,36.185v16.84a1.211,1.211,0,0,0,1.211,1.211H29.686A1.211,1.211,0,0,0,30.9,53.025V36.185ZM29.32,52.659H3.877v-14.9H29.32Z" transform="translate(0 -17.104)" fill="#000"/>
  </g>
</svg>
