<svg xmlns="http://www.w3.org/2000/svg" width="60" height="60" viewBox="0 0 60 60">
  <g id="Group_523" data-name="Group 523" transform="translate(-652 -4270)">
    <circle id="Ellipse_14" data-name="Ellipse 14" cx="30" cy="30" r="30" transform="translate(652 4270)" fill="#fff2e8"/>
    <path id="scope-expense-claims-write-svgrepo-com" d="M8.078,147.63c3.734,0,6.523-1.432,6.523-2.713v-2.109a11.46,11.46,0,0,1-6.523,1.7,11.456,11.456,0,0,1-6.523-1.7v2.109C1.555,146.2,4.344,147.63,8.078,147.63Zm0,4.65c3.734,0,6.523-1.432,6.523-2.713v-2.083a11.46,11.46,0,0,1-6.523,1.7,11.456,11.456,0,0,1-6.523-1.7v2.083C1.555,150.848,4.344,152.28,8.078,152.28ZM14.6,154.3h0c0-.008,0-.018,0-.024v-2.136a11.447,11.447,0,0,1-6.523,1.7,11.443,11.443,0,0,1-6.523-1.7V154.3c0,1.28,2.789,2.713,6.523,2.713S14.6,155.575,14.6,154.3ZM8.078,137.529c-3.734,0-6.523,1.432-6.523,2.713s2.789,2.713,6.523,2.713,6.523-1.431,6.523-2.713S11.812,137.529,8.078,137.529Zm0-1.549c4.6,0,8.073,1.832,8.073,4.261v14.029c0,.006,0,.016,0,.024h0c0,2.431-3.472,4.263-8.073,4.263-4.391,0-7.744-1.669-8.044-3.935a.8.8,0,0,1-.029-.2V140.242C.005,137.813,3.475,135.98,8.078,135.98ZM36.032,128a2.716,2.716,0,0,1,2.713,2.713v25.133a2.716,2.716,0,0,1-2.713,2.713H20.682a2.716,2.716,0,0,1-2.713-2.713V130.713A2.716,2.716,0,0,1,20.682,128Zm1.162,27.846V130.713a1.165,1.165,0,0,0-1.162-1.164H20.682a1.165,1.165,0,0,0-1.162,1.164v25.133a1.163,1.163,0,0,0,1.162,1.162h15.35A1.163,1.163,0,0,0,37.194,155.846Zm-3.03-22.554a1.164,1.164,0,0,1,1.162,1.162v3.07a1.164,1.164,0,0,1-1.162,1.162H22.55a1.165,1.165,0,0,1-1.164-1.162v-3.07a1.165,1.165,0,0,1,1.164-1.162Zm-11.227,3.844H33.778v-2.295H22.937Zm.507,4.355a1.282,1.282,0,1,1-1.282,1.282A1.282,1.282,0,0,1,23.444,141.491Zm4.913,0a1.282,1.282,0,1,1-1.282,1.282A1.282,1.282,0,0,1,28.357,141.491Zm4.912-.107a1.282,1.282,0,1,1-1.282,1.282A1.282,1.282,0,0,1,33.27,141.384Zm-9.826,4.7a1.281,1.281,0,1,1-1.282,1.282A1.282,1.282,0,0,1,23.444,146.084Zm4.913,0a1.281,1.281,0,1,1-1.282,1.282A1.282,1.282,0,0,1,28.357,146.084Zm4.912,0a1.281,1.281,0,1,1-1.282,1.282A1.282,1.282,0,0,1,33.27,146.084Zm-9.826,4.7a1.281,1.281,0,1,1-1.282,1.282A1.282,1.282,0,0,1,23.444,150.783Zm4.913,0a1.281,1.281,0,1,1-1.282,1.282A1.282,1.282,0,0,1,28.357,150.783Zm4.912,0a1.281,1.281,0,1,1-1.282,1.282A1.282,1.282,0,0,1,33.27,150.783Z" transform="translate(661.255 4156.72)" fill="#f48120"/>
  </g>
</svg>
