<svg xmlns="http://www.w3.org/2000/svg" width="33.384" height="25.158" viewBox="0 0 33.384 25.158">
  <g id="_820169231582962155" data-name="820169231582962155" transform="translate(-1.711 -17.059)">
    <path id="Path_6943" data-name="Path 6943" d="M70.391,67.217h5.744a.615.615,0,0,1,.615.615v3.439a.615.615,0,0,1-.615.615H70.391a.615.615,0,0,1-.615-.615V67.832a.615.615,0,0,1,.615-.615Z" transform="translate(-49.825 -36.717)"/>
    <path id="Path_6944" data-name="Path 6944" d="M39.338,58.085c-.132,0-.265-.006-.4-.017V61.4h.006v8.423a1.273,1.273,0,0,0,.011.151H26.61c-.006-1.156,0-8.442-.006-9.608l-6.2.077v9.531H17.32a1.273,1.273,0,0,0,.011-.151V61.4h.006V58.068c-.131.011-.263.017-.4.017a4.906,4.906,0,0,1-1.91-.386l-.02,14.268H41.246V57.7A4.914,4.914,0,0,1,39.338,58.085Z" transform="translate(-9.737 -29.749)"/>
    <path id="Path_6945" data-name="Path 6945" d="M35.079,24.628l-2.513-7.569H4.24L1.727,24.628s-.036,0,0,0a4.6,4.6,0,0,1,3.035,1.232,3.381,3.381,0,0,0,.627.494,3.456,3.456,0,0,0,4.258-.494,4.464,4.464,0,0,1,2.616-1.234h1.012a4.634,4.634,0,0,1,2.658,1.234,3.527,3.527,0,0,0,4.941,0,4.634,4.634,0,0,1,2.658-1.234h1.012a4.464,4.464,0,0,1,2.616,1.234,3.456,3.456,0,0,0,4.258.494,3.381,3.381,0,0,0,.627-.494,4.6,4.6,0,0,1,3.035-1.232C35.115,24.628,35.079,24.628,35.079,24.628Z"/>
  </g>
</svg>
