<svg xmlns="http://www.w3.org/2000/svg" width="28.545" height="31.116" viewBox="0 0 28.545 31.116">
  <g id="_1778291061582967233" data-name="1778291061582967233" transform="translate(-7.157 -2.021)">
    <path id="Path_6940" data-name="Path 6940" d="M35.667,12.375A11.244,11.244,0,0,0,16.957,4.89a31.532,31.532,0,0,0,2.491,2.4s.006.006.01.008a7.787,7.787,0,1,1-1.641,10.039l-.092-.025a6.322,6.322,0,0,1-3.946-3.869,11.643,11.643,0,0,1-.5-1.434,11.2,11.2,0,0,0,3.29,9.276l-.913,1.072-1.3-1.106L7.733,29.158a2.414,2.414,0,1,0,3.676,3.131l6.628-7.909-.936-.8-.228-.192.915-1.074q.423.31.863.577A11.244,11.244,0,0,0,35.667,12.375Z" transform="translate(0 0)"/>
    <path id="Path_6941" data-name="Path 6941" d="M34.877,17.823a10.651,10.651,0,0,0,.518,1.569,5.122,5.122,0,0,0,3.13,3.149,3.7,3.7,0,0,0,2.126-.035,49.988,49.988,0,0,1-3.981-7.146.083.083,0,0,1,.142-.083,49.166,49.166,0,0,0,5.392,6.2,3.309,3.309,0,0,0,.508-.818A3.075,3.075,0,0,0,42.643,18a6.644,6.644,0,0,0-1.969-2.1c-.543-.415-1.1-.809-1.588-1.228a32.651,32.651,0,0,1-3.022-2.966c-.087-.1-.975-.95-.922-1.085a10.329,10.329,0,0,0-.647,4.554,13.8,13.8,0,0,0,.382,2.645Z" transform="translate(-20.459 -6.442)"/>
    <path id="Path_6942" data-name="Path 6942" d="M75.467,45.276a6.561,6.561,0,0,0,.717-.732,8.512,8.512,0,0,0,.936-1.367A6.414,6.414,0,0,0,78,40.464c-.007.09-.734.321-.81.353a20.325,20.325,0,0,1-2.492.824c-.385.1-.8.167-1.22.25a4.118,4.118,0,0,0-1.669.63,1.91,1.91,0,0,0-.765,1.463,2.165,2.165,0,0,0,1.817,2.19A3.177,3.177,0,0,0,75.467,45.276Z" transform="translate(-47.849 -28.791)"/>
  </g>
</svg>
