<svg id="banner-main6" xmlns="http://www.w3.org/2000/svg" xmlns:xlink="http://www.w3.org/1999/xlink" width="45" height="45" viewBox="0 0 45 45">
  <defs>
    <linearGradient id="linear-gradient" x1="0.5" x2="0.156" y2="0.791" gradientUnits="objectBoundingBox">
      <stop offset="0" stop-color="#3e3e3e"/>
      <stop offset="1" stop-color="#1a1a1a"/>
    </linearGradient>
  </defs>
  <circle id="Ellipse_1" data-name="Ellipse 1" cx="22.5" cy="22.5" r="22.5" fill="url(#linear-gradient)"/>
  <path id="scope-expense-claims-read-svgrepo-com" d="M5.269,140.8c2.435,0,4.253-.934,4.253-1.769v-1.375a7.472,7.472,0,0,1-4.253,1.106,7.47,7.47,0,0,1-4.253-1.106v1.375C1.016,139.866,2.834,140.8,5.269,140.8Zm0,3.032c2.435,0,4.253-.934,4.253-1.769V140.7a7.473,7.473,0,0,1-4.253,1.106A7.47,7.47,0,0,1,1.016,140.7v1.358C1.016,142.9,2.834,143.832,5.269,143.832Zm4.253,1.314h0c0-.005,0-.012,0-.016v-1.393a7.464,7.464,0,0,1-4.253,1.106,7.462,7.462,0,0,1-4.253-1.106v1.409c0,.835,1.818,1.769,4.253,1.769s4.253-.934,4.253-1.769ZM5.269,134.214c-2.435,0-4.253.934-4.253,1.769s1.818,1.769,4.253,1.769,4.253-.933,4.253-1.769S7.7,134.214,5.269,134.214Zm0-1.01c3,0,5.264,1.195,5.264,2.779v9.148s0,.011,0,.016h0c0,1.585-2.264,2.78-5.264,2.78-2.863,0-5.05-1.088-5.245-2.565a.52.52,0,0,1-.019-.13v-9.248C.005,134.4,2.268,133.2,5.269,133.2ZM23.5,128a1.771,1.771,0,0,1,1.769,1.769v16.388a1.771,1.771,0,0,1-1.769,1.769H13.488a1.771,1.771,0,0,1-1.769-1.769V129.769A1.771,1.771,0,0,1,13.488,128Zm.758,18.157V129.769a.759.759,0,0,0-.758-.759H13.488a.759.759,0,0,0-.758.759v16.388a.758.758,0,0,0,.758.758H23.5a.758.758,0,0,0,.758-.758Zm-1.975-14.706a.759.759,0,0,1,.758.758v2a.759.759,0,0,1-.758.758H14.706a.759.759,0,0,1-.759-.758v-2a.759.759,0,0,1,.759-.758Zm-7.321,2.506h7.069v-1.5H14.958Zm.331,2.84a.836.836,0,1,1-.836.836A.836.836,0,0,1,15.288,136.8Zm3.2,0a.836.836,0,1,1-.836.836A.836.836,0,0,1,18.492,136.8Zm3.2-.07a.836.836,0,1,1-.836.836A.836.836,0,0,1,21.7,136.727Zm-6.407,3.064a.835.835,0,1,1-.836.836A.836.836,0,0,1,15.288,139.791Zm3.2,0a.835.835,0,1,1-.836.836A.836.836,0,0,1,18.492,139.791Zm3.2,0a.835.835,0,1,1-.836.836A.836.836,0,0,1,21.7,139.791Zm-6.407,3.064a.835.835,0,1,1-.836.836A.836.836,0,0,1,15.288,142.855Zm3.2,0a.835.835,0,1,1-.836.836A.836.836,0,0,1,18.492,142.855Zm3.2,0a.835.835,0,1,1-.836.836A.836.836,0,0,1,21.7,142.855Z" transform="translate(8.995 -116.168)" fill="#fff"/>
</svg>
