<svg xmlns="http://www.w3.org/2000/svg" width="27.636" height="25.962" viewBox="0 0 27.636 25.962">
  <g id="_15355263541582988846" data-name="15355263541582988846" transform="translate(-2.318 -6.055)">
    <path id="Path_6938" data-name="Path 6938" d="M21.378,6.922a2.841,2.841,0,0,0-2.084-.866H5.268a2.842,2.842,0,0,0-2.084.866,2.842,2.842,0,0,0-.866,2.084V29.067a2.841,2.841,0,0,0,.866,2.083,2.84,2.84,0,0,0,2.084.866H18.2a2.8,2.8,0,0,1-.8-1.985V27.876H5.268A1.177,1.177,0,0,1,4.1,26.706V9.006A1.176,1.176,0,0,1,5.268,7.837H19.294a1.177,1.177,0,0,1,1.169,1.169v4.668h1.781V9.006a2.844,2.844,0,0,0-.867-2.084ZM11.451,29.189a1.158,1.158,0,1,1-.35.83,1.136,1.136,0,0,1,.35-.83Z"/>
    <path id="Path_6939" data-name="Path 6939" d="M84.622,44.552a1.911,1.911,0,0,0-1.4-.583H75.505a1.991,1.991,0,0,0-1.985,1.985v13.5a1.99,1.99,0,0,0,1.985,1.985H83.22a1.991,1.991,0,0,0,1.985-1.985v-13.5A1.913,1.913,0,0,0,84.622,44.552Zm-4.7,16.1a.779.779,0,1,1,.236-.558A.763.763,0,0,1,79.921,60.651Zm4.086-2.787a.792.792,0,0,1-.787.787H75.505a.792.792,0,0,1-.787-.787V45.954a.792.792,0,0,1,.787-.787H83.22a.792.792,0,0,1,.787.787Z" transform="translate(-55.251 -29.42)"/>
  </g>
</svg>
