<?xml version="1.0" encoding="UTF-8"?><svg id="Layer_1" xmlns="http://www.w3.org/2000/svg" xmlns:xlink="http://www.w3.org/1999/xlink" viewBox="0 0 60 60"><defs><style>.cls-1{fill:url(#linear-gradient);}.cls-1,.cls-2,.cls-3,.cls-4{stroke-width:0px;}.cls-2{fill:#000;}.cls-3{fill:#b7b7b8;}.cls-4{fill:#fff;}</style><linearGradient id="linear-gradient" x1="60" y1="30" x2="0" y2="30" gradientUnits="userSpaceOnUse"><stop offset="0" stop-color="#3b3b3b"/><stop offset="1" stop-color="#191919"/></linearGradient></defs><circle class="cls-1" cx="30" cy="30" r="30"/><rect class="cls-3" x="35.07" y="13.99" width="1.33" height="3.33"/><rect class="cls-3" x="41.06" y="21.31" width="3.33" height="1.33"/><rect class="cls-3" x="27.09" y="21.31" width="3.33" height="1.33"/><rect class="cls-3" x="38.51" y="16.65" width="3.76" height="1.33" transform="translate(-.41 33.64) rotate(-45)"/><rect class="cls-3" x="30.41" y="15.44" width="1.33" height="3.76" transform="translate(-3.14 27.05) rotate(-45)"/><rect class="cls-3" x="41.06" y="24.75" width="1.33" height="3.76" transform="translate(-6.61 37.31) rotate(-45)"/><rect class="cls-3" x="27.87" y="25.97" width="3.76" height="1.33" transform="translate(-10.12 28.84) rotate(-45)"/><rect class="cls-2" x="21" y="34.04" width="5.19" height="2.82" transform="translate(-18.15 27.07) rotate(-45)"/><path class="cls-4" d="M39.65,21.83h0c-.45-2.16-2.56-3.55-4.72-3.1s-3.55,2.56-3.1,4.72c.11.55.34,1.07.67,1.52.25.34.43.73.52,1.14-1.02.4-1.53,1.55-1.13,2.57.21.54.65.96,1.19,1.15v.12c0,1.47,1.19,2.66,2.66,2.66s2.66-1.19,2.66-2.66v-.12c1.04-.36,1.58-1.49,1.22-2.53-.19-.55-.62-.99-1.17-1.2.09-.4.26-.78.51-1.11.67-.91.92-2.06.69-3.17ZM34.04,20.59c1.14-.93,2.81-.77,3.75.37.77.94.81,2.27.1,3.25-.39.52-.65,1.12-.77,1.76h-2.77c-.12-.64-.39-1.25-.77-1.77-.82-1.14-.62-2.72.47-3.61h0ZM35.74,31.29c-.74,0-1.33-.6-1.33-1.33h2.66c0,.74-.6,1.33-1.33,1.33ZM37.73,28.63h-3.99c-.37,0-.67-.3-.67-.67s.3-.67.67-.67h3.99c.37,0,.67.3.67.67s-.3.67-.67.67Z"/><rect class="cls-4" x="35.07" y="13.99" width="1.33" height="3.33"/><rect class="cls-4" x="41.06" y="21.31" width="3.33" height="1.33"/><rect class="cls-4" x="27.09" y="21.31" width="3.33" height="1.33"/><rect class="cls-4" x="38.51" y="16.65" width="3.76" height="1.33" transform="translate(-.41 33.64) rotate(-45)"/><rect class="cls-4" x="30.41" y="15.44" width="1.33" height="3.76" transform="translate(-3.14 27.05) rotate(-45)"/><rect class="cls-4" x="41.06" y="24.75" width="1.33" height="3.76" transform="translate(-6.61 37.31) rotate(-45)"/><rect class="cls-4" x="27.87" y="25.97" width="3.76" height="1.33" transform="translate(-10.12 28.84) rotate(-45)"/><path class="cls-4" d="M35.74,10.66c-6.98,0-12.64,5.66-12.64,12.64s5.66,12.64,12.64,12.64,12.64-5.66,12.64-12.64c0-6.98-5.66-12.64-12.64-12.64ZM35.74,34.62c-6.25,0-11.31-5.07-11.31-11.31s5.07-11.31,11.31-11.31,11.31,5.07,11.31,11.31c0,6.25-5.07,11.31-11.31,11.31Z"/><path class="cls-4" d="M35.74,8c-8.45,0-15.3,6.84-15.31,15.28,0,3.35,1.09,6.61,3.12,9.27l-2.79,2.79-.53-.53c-.26-.26-.68-.26-.94,0l-8.49,8.49c-.65.65-1.02,1.54-1.02,2.46,0,1.93,1.56,3.49,3.49,3.49.93,0,1.81-.37,2.47-1.02l8.49-8.49c.26-.26.26-.68,0-.94l-.53-.53,2.79-2.79c6.73,5.11,16.33,3.8,21.44-2.94,5.11-6.73,3.8-16.33-2.94-21.44-2.66-2.02-5.91-3.11-9.25-3.11ZM14.8,47.3c-.84.84-2.21.84-3.05,0-.84-.84-.84-2.21,0-3.05l8.02-8.02,3.05,3.05-8.02,8.02ZM22.76,37.34l-1.06-1.06,2.7-2.7c.33.37.69.72,1.06,1.06l-2.7,2.7ZM35.74,37.28c-7.72,0-13.98-6.26-13.98-13.98s6.26-13.98,13.98-13.98,13.98,6.26,13.98,13.98c0,7.71-6.26,13.97-13.98,13.98Z"/></svg>