<svg width="45" height="45" viewBox="0 0 45 45" fill="none" xmlns="http://www.w3.org/2000/svg">
<rect width="45" height="45" rx="22.5" fill="url(#paint0_linear_1_16)"/>
<path d="M10.4333 21H22.5667C22.8059 21 23 20.776 23 20.5V15.5C23 15.224 22.8059 15 22.5667 15H10.4333C10.1941 15 10 15.224 10 15.5V20.5C10 20.776 10.1941 21 10.4333 21ZM10.8667 16H22.1333V20H10.8667V16Z" fill="white"/>
<path d="M15.5714 22H10.4286C10.192 22 10 22.1493 10 22.3333V23.6667C10 23.8507 10.192 24 10.4286 24H15.5714C15.808 24 16 23.8507 16 23.6667V22.3333C16 22.1493 15.808 22 15.5714 22ZM15.1429 23.3333H10.8571V22.6667H15.1429V23.3333Z" fill="white"/>
<path d="M22.5714 22H17.4286C17.192 22 17 22.1493 17 22.3333V23.6667C17 23.8507 17.192 24 17.4286 24H22.5714C22.808 24 23 23.8507 23 23.6667V22.3333C23 22.1493 22.808 22 22.5714 22ZM22.1429 23.3333H17.8571V22.6667H22.1429V23.3333Z" fill="white"/>
<path d="M12.5 25H10.5C10.224 25 10 25.224 10 25.5V27.5C10 27.776 10.224 28 10.5 28H12.5C12.776 28 13 27.776 13 27.5V25.5C13 25.224 12.776 25 12.5 25ZM12 27H11V26H12V27Z" fill="white"/>
<path d="M15.5 25H13.5C13.224 25 13 25.224 13 25.5V27.5C13 27.776 13.224 28 13.5 28H15.5C15.776 28 16 27.776 16 27.5V25.5C16 25.224 15.776 25 15.5 25ZM15 27H14V26H15V27Z" fill="white"/>
<path d="M19.5 25H17.5C17.224 25 17 25.224 17 25.5V27.5C17 27.776 17.224 28 17.5 28H19.5C19.776 28 20 27.776 20 27.5V25.5C20 25.224 19.776 25 19.5 25ZM19 27H18V26H19V27Z" fill="white"/>
<path d="M12.5 29H10.5C10.224 29 10 29.224 10 29.5V31.5C10 31.776 10.224 32 10.5 32H12.5C12.776 32 13 31.776 13 31.5V29.5C13 29.224 12.776 29 12.5 29ZM12 31H11V30H12V31Z" fill="white"/>
<path d="M15.5 29H13.5C13.224 29 13 29.224 13 29.5V31.5C13 31.776 13.224 32 13.5 32H15.5C15.776 32 16 31.776 16 31.5V29.5C16 29.224 15.776 29 15.5 29ZM15 31H14V30H15V31Z" fill="white"/>
<path d="M19.5 29H17.5C17.224 29 17 29.224 17 29.5V31.5C17 31.776 17.224 32 17.5 32H19.5C19.776 32 20 31.776 20 31.5V29.5C20 29.224 19.776 29 19.5 29ZM19 31H18V30H19V31Z" fill="white"/>
<path d="M35.5625 29.7273C35.804 29.7273 36 29.5236 36 29.2727V27.4545C36 27.2036 35.804 27 35.5625 27H30.3125C30.071 27 29.875 27.2036 29.875 27.4545V28.8182H29.4375C29.196 28.8182 29 29.0218 29 29.2727V31.0909C29 31.3418 29.196 31.5455 29.4375 31.5455H29.875V32.4545H29.4375C29.196 32.4545 29 32.6582 29 32.9091V34.7273C29 34.9782 29.196 35.1818 29.4375 35.1818H29.875V36.5455C29.875 36.7964 30.071 37 30.3125 37H35.5625C35.804 37 36 36.7964 36 36.5455V34.7273C36 34.4764 35.804 34.2727 35.5625 34.2727H35.125V33.3636H35.5625C35.804 33.3636 36 33.16 36 32.9091V31.0909C36 30.84 35.804 30.6364 35.5625 30.6364H35.125V29.7273H35.5625ZM29.875 29.7273H34.25V30.6364H29.875V29.7273ZM29.875 34.2727V33.3636H34.25V34.2727H29.875ZM35.125 36.0909H30.75V35.1818H35.125V36.0909ZM35.125 32.4545H30.75V31.5455H35.125V32.4545ZM30.75 28.8182V27.9091H35.125V28.8182H30.75Z" fill="white"/>
<path d="M27.5455 28.1538C27.7964 28.1538 28 27.9557 28 27.7115V25.9423C28 25.6982 27.7964 25.5 27.5455 25.5H25.2727V16.2115C25.2727 14.9921 24.2532 14 23 14H10.2727C9.01955 14 8 14.9921 8 16.2115V33.0192C8 34.2387 9.01955 35.2308 10.2727 35.2308H20.7273V36.5577C20.7273 36.8018 20.9309 37 21.1818 37H26.6364C26.8873 37 27.0909 36.8018 27.0909 36.5577V35.2308H27.5455C27.7964 35.2308 28 35.0326 28 34.7885V33.0192C28 32.7751 27.7964 32.5769 27.5455 32.5769H27.0909V31.6923H27.5455C27.7964 31.6923 28 31.4942 28 31.25V29.4808C28 29.2366 27.7964 29.0385 27.5455 29.0385H27.0909V28.1538H27.5455ZM10.2727 34.3462C9.68091 34.3462 9.18091 33.9751 8.99273 33.4615H19.8182V32.5769H8.90909V16.2115C8.90909 15.48 9.52091 14.8846 10.2727 14.8846H23C23.7518 14.8846 24.3636 15.48 24.3636 16.2115V25.5H22.0909C21.84 25.5 21.6364 25.6982 21.6364 25.9423V27.2692H21.1818C20.9309 27.2692 20.7273 27.4674 20.7273 27.7115V29.4808C20.7273 29.7249 20.9309 29.9231 21.1818 29.9231H21.6364V30.8077H21.1818C20.9309 30.8077 20.7273 31.0058 20.7273 31.25V33.0192C20.7273 33.2634 20.9309 33.4615 21.1818 33.4615H21.6364V34.3462H21.1818H10.2727ZM26.1818 28.1538V29.0385H21.6364V28.1538H26.1818ZM26.1818 31.6923V32.5769H21.6364V31.6923H26.1818ZM26.1818 36.1154H21.6364V35.2308H26.1818V36.1154ZM27.0909 34.3462H22.5455V33.4615H27.0909V34.3462ZM27.0909 30.8077H22.5455V29.9231H27.0909V30.8077ZM22.5455 27.2692V26.3846H27.0909V27.2692H22.5455Z" fill="white"/>
<path d="M35.5596 9H33.3576V9.95768H34.4965L31.1557 13.5902L30.1459 12.4922C29.9737 12.305 29.6953 12.305 29.5231 12.4922L26 16.3229L26.6227 17L29.8345 13.5078L30.8443 14.6058C31.0165 14.793 31.2948 14.793 31.467 14.6058L35.1192 10.6348V11.873H36V9.47884C36 9.21452 35.8027 9 35.5596 9Z" fill="white"/>
<path d="M31.5 19.25C31.7755 19.25 32 19.4371 32 19.6667H33C33 19.1242 32.5805 18.6658 32 18.4933V18H31V18.4933C30.4195 18.6658 30 19.1242 30 19.6667C30 20.3558 30.673 20.9167 31.5 20.9167C31.7755 20.9167 32 21.1037 32 21.3333C32 21.5629 31.7755 21.75 31.5 21.75C31.2245 21.75 31 21.5629 31 21.3333H30C30 21.8758 30.4195 22.3342 31 22.5067V23H32V22.5067C32.5805 22.3342 33 21.8758 33 21.3333C33 20.6442 32.327 20.0833 31.5 20.0833C31.2245 20.0833 31 19.8962 31 19.6667C31 19.4371 31.2245 19.25 31.5 19.25Z" fill="white"/>
<path d="M31.5 16C29.0187 16 27 18.0187 27 20.5C27 22.9813 29.0187 25 31.5 25C33.9813 25 36 22.9813 36 20.5C36 18.0187 33.9813 16 31.5 16ZM31.5 24.1C29.5151 24.1 27.9 22.4849 27.9 20.5C27.9 18.5151 29.5151 16.9 31.5 16.9C33.4849 16.9 35.1 18.5151 35.1 20.5C35.1 22.4849 33.4849 24.1 31.5 24.1Z" fill="white"/>
<path d="M16 9H15V10H16V9Z" fill="white"/>
<path d="M16 11H15V12H16V11Z" fill="white"/>
<path d="M15 10H14V11H15V10Z" fill="white"/>
<path d="M17 10H16V11H17V10Z" fill="white"/>
<path d="M26 10H25V11H26V10Z" fill="white"/>
<path d="M26 12H25V13H26V12Z" fill="white"/>
<path d="M25 11H24V12H25V11Z" fill="white"/>
<path d="M27 11H26V12H27V11Z" fill="white"/>
<defs>
<linearGradient id="paint0_linear_1_16" x1="22" y1="-3.29812e-07" x2="22" y2="45" gradientUnits="userSpaceOnUse">
<stop stop-color="#353535"/>
<stop offset="0.122222" stop-color="#323232"/>
<stop offset="1" stop-color="#1B1B1B"/>
</linearGradient>
</defs>
</svg>
