<svg id="energy-trading" xmlns="http://www.w3.org/2000/svg" width="60" height="60" viewBox="0 0 60 60">
  <circle id="Ellipse_153" data-name="Ellipse 153" cx="30" cy="30" r="30" fill="#f48120"/>
  <g id="money-integral-line-svgrepo-com" transform="translate(-66.096 -98.57)">
    <path id="Path_9258" data-name="Path 9258" d="M462.588,116.116c0-3.646-4.883-6.4-11.359-6.4s-11.359,2.749-11.359,6.4c0,.032.007.063.008.095h-.008v4.868h3.245v-.4a16.813,16.813,0,0,0,8.114,1.834,17.329,17.329,0,0,0,7.619-1.581,1.455,1.455,0,0,1,.495.913c0,1.254-3.236,3.15-8.114,3.15h-3.244v3.245h3.244a17.328,17.328,0,0,0,7.62-1.582,1.446,1.446,0,0,1,.493.914c0,1.254-3.236,3.15-8.114,3.15l-1.149.005c-.706.006-1.39.013-2.056,0l-.079,3.244c.357.009.718.012,1.086.012q.528,0,1.074-.005l1.124-.005a17.324,17.324,0,0,0,7.624-1.584,1.452,1.452,0,0,1,.49.915c0,1.254-3.236,3.15-8.114,3.15h-3.244v3.245h3.244a17.326,17.326,0,0,0,7.624-1.584,1.449,1.449,0,0,1,.49.915c0,1.254-3.236,3.15-8.114,3.15h-3.244v3.245h3.244c6.476,0,11.359-2.749,11.359-6.4,0-.03,0-.064,0-.095h0V116.211h-.008c0-.032.009-.063.009-.095Zm-19.473,0c0-1.254,3.236-3.15,8.114-3.15s8.114,1.9,8.114,3.15-3.236,3.15-8.114,3.15S443.115,117.369,443.115,116.116Z" transform="translate(-349.492)" fill="#fff"/>
    <path id="Path_9259" data-name="Path 9259" d="M85.509,365.71c-6.476,0-11.359,2.749-11.359,6.4,0,.032.007.063.008.095H74.15V383.56c0,3.646,4.883,6.4,11.359,6.4s11.359-2.749,11.359-6.4V372.2H96.86c0-.032.008-.063.008-.095C96.868,368.46,91.985,365.71,85.509,365.71ZM77.4,377.833a1.442,1.442,0,0,1,.492-.915,19.145,19.145,0,0,0,15.241,0,1.455,1.455,0,0,1,.495.913c0,1.254-3.236,3.15-8.114,3.15S77.4,379.087,77.4,377.833Zm8.114-8.877c4.878,0,8.114,1.9,8.114,3.15s-3.236,3.15-8.114,3.15-8.114-1.9-8.114-3.15S80.631,368.956,85.509,368.956Zm0,17.755c-4.878,0-8.114-1.9-8.114-3.15a1.449,1.449,0,0,1,.493-.914,19.145,19.145,0,0,0,15.241,0,1.446,1.446,0,0,1,.493.914C93.623,384.815,90.387,386.711,85.509,386.711Z" transform="translate(0 -244.631)" fill="#fff"/>
  </g>
</svg>
