<svg xmlns="http://www.w3.org/2000/svg" width="60" height="60" viewBox="0 0 60 60">
  <g id="Group_123" data-name="Group 123" transform="translate(-1034 -519)">
    <circle id="Ellipse_14" data-name="Ellipse 14" cx="30" cy="30" r="30" transform="translate(1034 519)" fill="#fff2e8"/>
    <g id="financial-gain-svgrepo-com" transform="translate(1044.667 529.667)">
      <path id="financial--gain_1_" d="M26.45,37.76a11.324,11.324,0,0,1-11.3-10.875H10.742a.435.435,0,0,1-.435-.435V10.742a.435.435,0,0,1,.435-.435h6.042a.435.435,0,0,1,.435.435v9.177a11.128,11.128,0,0,1,2.755-2.738V1.074a.435.435,0,0,1,.435-.435H26.45a.436.436,0,0,1,.308.127.445.445,0,0,1,.127.309V15.149A11.31,11.31,0,0,1,26.45,37.76Zm0-21.75A10.44,10.44,0,1,0,36.89,26.45,10.363,10.363,0,0,0,26.45,16.01Zm-15.273,10h3.972a11.227,11.227,0,0,1,1.2-4.634v-10.2H11.177Zm9.667-24.5V16.63c.1-.058.205-.116.311-.172a11.219,11.219,0,0,1,4.861-1.31V1.51Zm6.042,30.982h-.87V30.51h-3.19v-.87h5.437a1.377,1.377,0,1,0,0-2.755H24.636a2.247,2.247,0,0,1,0-4.495h1.379V20.409h.871V22.39h3.189v.871H24.636a1.377,1.377,0,0,0,0,2.755h3.626a2.247,2.247,0,1,1,0,4.495H26.885ZM7.117,26.885H1.075A.435.435,0,0,1,.64,26.45V17.992a.435.435,0,0,1,.435-.435H7.117a.435.435,0,0,1,.435.435V26.45A.435.435,0,0,1,7.117,26.885Zm-5.607-.87H6.682V18.427H1.51Z" transform="translate(0.133 0.133)" fill="#f48120"/>
      <rect id="_Transparent_Rectangle" width="38" height="38" transform="translate(0.333 0.333)" fill="none"/>
    </g>
  </g>
</svg>
