<svg xmlns="http://www.w3.org/2000/svg" width="60" height="60" viewBox="0 0 60 60">
  <g id="Group_142" data-name="Group 142" transform="translate(-928 -580)">
    <circle id="Ellipse_14" data-name="Ellipse 14" cx="30" cy="30" r="30" transform="translate(928 580)" fill="#fff2e8"/>
    <g id="money-cash-svgrepo-com" transform="translate(939 589.706)">
      <g id="Group_126" data-name="Group 126" transform="translate(0 6.114)">
        <g id="Group_125" data-name="Group 125">
          <path id="Path_9364" data-name="Path 9364" d="M31.358,63.944,25.7,61.26a3.7,3.7,0,0,0,.961-3.387,3.638,3.638,0,0,0-4.348-2.85.673.673,0,0,0-.209.085c-.083-.032-.167-.063-.253-.087a3.08,3.08,0,0,0-3.038.822L10,64.284a6.981,6.981,0,0,0-1.895,2.8c-.1.274-.189.554-.276.826A6.426,6.426,0,0,1,6.719,70.27L6.2,69.725a1.682,1.682,0,0,0-2.374-.05L.516,72.845a1.681,1.681,0,0,0-.05,2.374L12.155,87.41a1.668,1.668,0,0,0,1.177.515h.036a1.667,1.667,0,0,0,1.161-.466l1.918-1.839a.676.676,0,0,0-.936-.977l-1.918,1.839a.329.329,0,0,1-.233.089.325.325,0,0,1-.229-.1l-2.8-2.919,3.777-3.622,2.8,2.919a.676.676,0,1,0,.976-.936l-.745-.777,4.694-4.406a.676.676,0,0,0-.926-.986l-4.7,4.415L7.658,71.249a7.294,7.294,0,0,0,1.464-2.93c.087-.272.17-.529.261-.782a5.644,5.644,0,0,1,1.558-2.277l8.8-8.442a1.739,1.739,0,0,1,1.724-.5,1.767,1.767,0,0,1,1.211,1.247,1.98,1.98,0,0,1-.713,1.9l-6.211,5.956a.676.676,0,0,0-.02.956l.474.495a2.066,2.066,0,0,1-.061,2.921l-1.979,1.9a.676.676,0,0,0,.936.977l1.979-1.9a3.419,3.419,0,0,0,.1-4.834l-.006-.007L22.209,61.1l8.569,4.062a.676.676,0,1,0,.579-1.222ZM13.174,78.957,9.4,82.578l-7.954-8.3a.331.331,0,0,1,.01-.461l3.306-3.17a.334.334,0,0,1,.233-.089.325.325,0,0,1,.229.1ZM24.517,60.511a.677.677,0,0,0-.123.132l-1.164-.552a3.193,3.193,0,0,0,.764-2.847,2.989,2.989,0,0,0-.386-.893,2.393,2.393,0,0,1,.909,4.161Z" transform="translate(0 -54.902)" fill="#f48120"/>
        </g>
      </g>
      <g id="Group_128" data-name="Group 128" transform="translate(8.761 2.778)">
        <g id="Group_127" data-name="Group 127">
          <path id="Path_9365" data-name="Path 9365" d="M142.015,9.582a.675.675,0,0,0-.735-.612l-19.268,1.755a1.5,1.5,0,0,0-1.355,1.626l.115,1.266a.676.676,0,0,0,.673.615c.021,0,.041,0,.062,0a.676.676,0,0,0,.612-.735L122,12.228a.146.146,0,0,1,.13-.156L141.4,10.317A.676.676,0,0,0,142.015,9.582Z" transform="translate(-120.65 -8.967)" fill="#f48120"/>
        </g>
      </g>
      <g id="Group_130" data-name="Group 130" transform="translate(32.427 2.294)">
        <g id="Group_129" data-name="Group 129">
          <path id="Path_9366" data-name="Path 9366" d="M451.325,13.223l-.871-9.569A1.5,1.5,0,0,0,448.827,2.3l-1.631.149a.676.676,0,1,0,.123,1.347l1.631-.149a.147.147,0,0,1,.157.13l.871,9.569a.146.146,0,0,1-.13.156l-2.095.191a.676.676,0,0,0,.061,1.35c.021,0,.041,0,.062,0l2.095-.191a1.5,1.5,0,0,0,1.355-1.626Z" transform="translate(-446.581 -2.294)" fill="#f48120"/>
        </g>
      </g>
      <g id="Group_132" data-name="Group 132" transform="translate(30.554 5.221)">
        <g id="Group_131" data-name="Group 131">
          <path id="Path_9367" data-name="Path 9367" d="M424.191,48.22a2.159,2.159,0,0,1-.3-4.276.676.676,0,0,0-.252-1.329,3.511,3.511,0,0,0,.489,6.957h.032a.676.676,0,0,0,.031-1.352Z" transform="translate(-420.785 -42.602)" fill="#f48120"/>
        </g>
      </g>
      <g id="Group_134" data-name="Group 134" transform="translate(9.003 6.66)">
        <g id="Group_133" data-name="Group 133">
          <path id="Path_9368" data-name="Path 9368" d="M130.648,63.416l-1.757-.84a1.5,1.5,0,0,0-2,.7l-2.842,5.939a.676.676,0,1,0,1.22.584l2.842-5.939a.146.146,0,0,1,.192-.068l1.757.84a.676.676,0,0,0,.584-1.22Z" transform="translate(-123.987 -62.429)" fill="#f48120"/>
        </g>
      </g>
      <g id="Group_136" data-name="Group 136" transform="translate(18.908 16.674)">
        <g id="Group_135" data-name="Group 135">
          <path id="Path_9369" data-name="Path 9369" d="M278.4,201.96a1.487,1.487,0,0,0-.765-.853l-1.478-.707a.676.676,0,1,0-.584,1.22l1.478.707a.146.146,0,0,1,.068.192l-4.147,8.667a.147.147,0,0,1-.2.066l-11.415-5.364a.676.676,0,0,0-.575,1.224l11.411,5.362a1.5,1.5,0,0,0,2-.7l4.147-8.667A1.487,1.487,0,0,0,278.4,201.96Z" transform="translate(-260.393 -200.334)" fill="#f48120"/>
        </g>
      </g>
      <g id="Group_138" data-name="Group 138" transform="translate(18.583 14.085)">
        <g id="Group_137" data-name="Group 137">
          <path id="Path_9370" data-name="Path 9370" d="M263.157,167.172a3.727,3.727,0,0,0-3.51-2.486,3.725,3.725,0,0,0-1.61,7.085,3.693,3.693,0,0,0,1.605.366A3.746,3.746,0,0,0,263,170.019,3.7,3.7,0,0,0,263.157,167.172Zm-1.373,2.263a2.386,2.386,0,0,1-2.142,1.349,2.348,2.348,0,0,1-1.022-.233,2.372,2.372,0,0,1,1.026-4.512,2.373,2.373,0,0,1,2.138,3.4Z" transform="translate(-255.92 -164.686)" fill="#f48120"/>
        </g>
      </g>
      <g id="Group_140" data-name="Group 140" transform="translate(28.85 19.104)">
        <g id="Group_139" data-name="Group 139">
          <path id="Path_9371" data-name="Path 9371" d="M402.03,234.022a3.511,3.511,0,0,0-3.139,6.227.676.676,0,1,0,.746-1.128,2.159,2.159,0,0,1,1.93-3.828.676.676,0,1,0,.463-1.271Z" transform="translate(-397.322 -233.807)" fill="#f48120"/>
        </g>
      </g>
    </g>
  </g>
</svg>
