<?xml version="1.0" encoding="UTF-8"?><svg id="Layer_1" xmlns="http://www.w3.org/2000/svg" viewBox="0 0 458 458"><path d="M115.27,412.8c-3.33,0-6.12.06-8.9-.01-9.34-.24-15.59-5.14-19.01-14.03-.9-2.34-3.07-4.57-5.25-5.88-1.29-.78-4.03-.24-5.58.65-8.32,4.76-16.74,3.74-23.46-3.04-4.71-4.75-10.22-9.2-9.43-16.75.4-3.83,1.72-7.76,3.51-11.19,2.33-4.46.96-9.16-3.97-10.84-14.02-4.79-19.99-19.1-13.55-32.59,2.49-5.21,6.57-8.65,12.08-10.45,6.74-2.2,7.91-5.39,4.42-11.63-2.42-4.33-3.13-8.89-1.73-13.72,3.44-11.9,17.2-23.37,32.5-14.53,3.9,2.25,9.4.29,11.02-3.77,5.43-13.64,8.88-16.01,23.42-16.11,1.15,0,2.3-.11,3.68-.19v-21.66c-1.84,0-3.55,0-5.26,0-26.69,0-53.38.03-80.07-.02-9.9-.02-15.71-3.85-17.66-11.61-.5-1.98-.53-4.11-.54-6.17-.05-11.71-.03-23.42-.02-35.14.01-13.63,5.41-18.99,19.22-19,26.25-.02,52.49,0,78.74,0h5.84c0-2.2,0-3.92,0-5.65,0-36.62-.02-73.24.01-109.86.01-14.61,7.48-25.28,20.02-28.47,2.68-.68,5.57-.76,8.36-.77,56.35-.04,112.69-.04,169.04-.03,16.38,0,25.85,8.24,28.33,24.53.08.56.33,1.09.57,1.85,9.84-.48,19.28,1.23,26.58,7.93,4.84,4.44,9.29,5.91,15.89,5.11,18.47-2.24,31.15,14.56,31.71,29.37.68,17.94-11.58,32.91-28.79,33.73-13.02.62-26.09.25-39.13.32-1.74,0-3.47,0-5.49,0v74.61c10.55,0,20.9.09,31.24-.12,1.25-.03,2.72-1.53,3.65-2.7,17.83-22.41,51.8-20.16,66.67,4.45,4.13,6.83,1.29,12.1-6.64,12.21-5.04.07-10.08-.05-15.12.04-4.9.09-8.07,3.11-8.11,7.55-.04,4.41,3.13,7.61,7.96,7.72,5.33.13,10.68-.04,16.01.07,6.84.15,9.7,5.24,6.45,11.29-13.23,24.57-48.28,27.83-66.24,6.01-2.24-2.72-4.44-3.73-7.84-3.65-9.17.2-18.34.07-27.91.07v66.38c1.78,0,3.51,0,5.25,0,23.58,0,47.15-.06,70.73.03,13.19.05,23.83,7.35,25.59,19.5,1.45,10,1.43,20.48.17,30.51-1.39,11.02-11.8,18.27-23.54,18.31-24.32.07-48.64.02-72.95.02-1.62,0-3.24,0-5.4,0-.09,1.9-.23,3.61-.23,5.31-.02,16.46.08,32.91-.04,49.37-.1,13.84-7.88,24.37-20.2,27.44-2.55.64-5.28.71-7.93.71-56.79.04-113.58.04-170.37.02-17.32,0-27.95-10.49-28.29-27.82-.05-2.48,0-4.97,0-7.7ZM328.22,297.11V113.14c-6.93,0-13.73.23-20.5-.05-16.1-.66-27.72-12.76-27.5-28.35.21-15.41,12.01-26.68,28.2-27.16,1.41-.04,3.02-1.19,4.12-2.26,4.32-4.19,8.54-8.48,12.64-12.89,1.06-1.14,2.14-2.78,2.2-4.24.36-9.02-4.95-14.3-14.15-14.3-56.19-.02-112.37,0-168.56,0-10.84,0-15.7,4.85-15.71,15.7,0,36.91,0,73.82,0,110.72,0,1.44,0,2.88,0,4.81,2.21,0,3.96,0,5.71,0,26.68,0,53.38.34,80.05-.1,27.01-.45,31.98,1.37,30.88,30.7-.33,8.73.01,17.49-.07,26.23-.07,7.7-5.64,13.88-13.25,14.8-2.05.25-4.14.29-6.21.29-30.54.02-61.08.01-91.62.01-1.73,0-3.46,0-5.5,0,0,14.31,0,28.01,0,41.71,0,50.54-.01,101.09.01,151.63,0,9.61,4.89,14.39,14.59,14.39,56.63.01,113.26,0,169.89,0,9.65,0,14.89-5.15,14.91-14.72.04-16.75.01-33.5,0-50.25,0-1.3-.12-2.59-.2-4.34h-5.44c-51.29,0-102.59.02-153.88-.01-15.58,0-26.18-10.61-26.34-26.23-.05-4.45-.01-8.89,0-13.34,0-18.79,10.01-28.78,28.84-28.78,50.4,0,100.81,0,151.21,0h5.66ZM364.6,310.96h-5.46c-24.46,0-48.92,0-73.39,0-38.84,0-77.68-.01-116.53.01-8.64,0-12.8,4.17-12.9,12.78-.06,4.74-.03,9.49,0,14.23.04,9.88,4.15,13.96,14.13,13.96,63.16,0,126.31,0,189.47,0h4.69v-40.98ZM175.02,213.36v-44.29c-.75-.11-1.18-.23-1.6-.23-48.18-.01-96.37,0-144.55-.08-3.35,0-3.92,1.47-3.9,4.31.09,11.56.25,23.13-.07,34.68-.12,4.54,1.24,5.72,5.74,5.71,46.55-.16,93.1-.1,139.65-.1,1.47,0,2.93,0,4.72,0ZM115.23,300.08c0-11.66.01-23.34-.03-35.02,0-.66-.31-1.53-.79-1.94-3.16-2.68-11.73.11-12.99,4.18-4.49,14.5-18.05,20.19-31.59,13.14-4.08-2.12-6.94-.81-9.76,2.28-2.61,2.87-3.34,5.53-1.2,9.14,6.68,11.25,1.55,24.7-10.92,29.18-6.21,2.23-6.35,2.82-6.53,10.22-.12,4.94,2.45,6.46,6.68,7.72,12.47,3.7,18.54,20.45,10.99,30.33-2.73,3.57-2.4,6,.8,8.64,1.03.84,1.97,1.81,2.83,2.83,1.97,2.32,4.3,2.74,6.65.93,10.87-8.35,27.33-.25,30.83,11.65,1.68,5.71,4.8,7.12,11.9,5.83,5.11-.93,2.6-5.12,3.1-7.95.3-1.72.06-3.55.06-5.33v-22.93c-25.19-2.1-37.79-13.21-37.26-32.38.52-19.07,13.73-30.01,37.23-30.52ZM346.62,99.49v-.02c12.88,0,25.77.11,38.65-.04,7.21-.09,13.35-4.84,15.79-11.66,2.7-7.54.58-16.02-5.26-21.1-5.12-4.44-12.19-4.93-19.08-1.3-4.55,2.39-7.63,1.64-10.48-2.88-5.6-8.9-13.6-13.14-24-11.85-10.01,1.24-16.6,7.16-20.14,16.54-2.07,5.47-4.76,6.71-10.31,5.08-1.8-.53-3.79-.97-5.62-.78-7.45.78-12.68,6.95-12.4,14.29.29,7.53,6.43,13.61,14.19,13.69,12.88.12,25.77.03,38.65.03ZM189.35,168.83v44.53c13.36,0,26.38-.03,39.41.03,2.25,0,3.2-.79,3.19-3.1-.06-12.74.04-25.48-.17-38.21-.02-1.1-1.9-3.09-2.95-3.11-13.02-.21-26.05-.14-39.47-.14ZM378.83,351.85c14.51,0,28.71.2,42.89-.1,5.68-.12,9.56-4.36,9.69-9.7.16-6.66.2-13.33-.05-19.99-.25-6.57-4.88-10.89-11.5-11.08-4.14-.11-8.29-.03-12.44-.03-9.45,0-18.91,0-28.59,0v40.89ZM422.49,231.39c-15.68-4.56-21.81-10.06-21.96-20.78-.2-14.41,8.2-21.47,22.28-23.2-10.82-7.11-24.65-5.16-33.23,4.21-8.73,9.54-9.08,24.13-.81,34.18,8.06,9.8,22.29,12.29,33.72,5.59ZM115.26,347.92c0-9.62-.18-19.39.09-29.13.11-3.86-1.6-4.86-4.9-5.07-7.02-.44-13.64,3.17-16.86,9.38-3.28,6.32-2.46,14.13,2.05,19.6,4.65,5.64,11.79,7.63,19.62,5.22ZM369.38,201.97h-26.95v14.8h26.95v-14.8Z"/><path d="M27.26,83.32c-.1-16.61,8.66-27.85,21.64-28.54,5.03-.27,10.19,2.21,15.31,3.35,1.27.28,2.93.72,3.9.18,9.76-5.46,19.56-6.68,28.54.94,9.37,7.95,10.89,18.62,7.9,30-3.16,12.03-10.75,21.16-20.92,27.76-18.32,11.9-15.86,12.03-34.38.06-12.83-8.29-21.34-19.95-21.97-33.74ZM40.89,79.56c.04,9.36,4.67,18.06,13.45,24.36,13.53,9.7,10.81,9.59,24.07-.1,7.34-5.36,12.71-12.48,13.6-22,.48-5.07-.42-9.94-5.15-12.87-4.82-2.99-9.15-.61-13.14,2.15-7.23,5.01-7.18,5.04-14.27.21-3.94-2.68-8.19-4.58-12.84-2.05-4.55,2.47-5.64,6.93-5.72,10.31Z"/><path d="M228.73,49.49c-4.45,0-8.9.06-13.34-.02-5.08-.09-8.09-2.73-8.05-6.92.03-4.03,2.9-6.72,7.73-6.79,9.04-.12,18.09-.11,27.13,0,4.86.06,7.74,2.68,7.83,6.69.09,4.2-2.92,6.92-7.96,7.02-4.45.09-8.9.02-13.34.02Z"/><path d="M229.12,409.2c4.45,0,8.9-.1,13.34.03,4.72.13,7.62,2.91,7.56,6.96-.06,3.87-2.83,6.65-7.34,6.72-9.34.15-18.68.15-28.02,0-4.51-.07-7.28-2.85-7.34-6.72-.06-4.05,2.84-6.84,7.56-6.96,4.74-.12,9.49-.03,14.23-.03Z"/><path d="M109.45,197.99c-14.53,0-29.05,0-43.58,0-1.33,0-2.7.08-3.98-.2-3.62-.77-5.82-3.01-5.76-6.81.06-3.8,2.35-5.93,5.97-6.63,1.01-.2,2.07-.14,3.1-.14,29.65,0,59.29,0,88.94,0,1.04,0,2.09-.06,3.11.09,3.71.54,6.49,3.5,6.26,6.9-.25,3.71-2.37,5.99-6.05,6.63-1.3.23-2.66.16-3.99.16-14.67,0-29.35,0-44.02,0Z"/><path d="M44.84,184.21c4.38.08,7.6,3.05,7.55,6.95-.05,4.05-3.58,7-8.15,6.81-4.41-.18-7.45-3.18-7.27-7.18.17-3.96,3.41-6.67,7.87-6.58Z"/><path d="M386.88,328.08c.04-9.3,7.23-16.39,16.36-16.15,8.89.23,15.97,7.94,15.09,17.29-.37,3.88.64,6.31,3.31,8.85,3.27,3.12,3.24,7.01.48,9.85-2.88,2.96-6.9,2.99-10.15-.52-2.45-2.64-4.83-3.45-8.48-3.1-9.14.88-16.64-6.75-16.6-16.23ZM405.73,328.47c-1.38-1.3-2.25-2.12-3.12-2.94-.72.82-2.08,1.72-1.99,2.44.12.99,1.19,2.16,2.15,2.64.42.21,1.6-1.11,2.96-2.13Z"/></svg>