<svg xmlns="http://www.w3.org/2000/svg" xmlns:xlink="http://www.w3.org/1999/xlink" width="45" height="45" viewBox="0 0 45 45">
  <defs>
    <linearGradient id="linear-gradient" x1="0.5" x2="0.156" y2="0.791" gradientUnits="objectBoundingBox">
      <stop offset="0" stop-color="#3e3e3e"/>
      <stop offset="1" stop-color="#1a1a1a"/>
    </linearGradient>
  </defs>
  <g id="banner-main" transform="translate(0 -0.5)">
    <circle id="Ellipse_1" data-name="Ellipse 1" cx="22.5" cy="22.5" r="22.5" transform="translate(0 0.5)" fill="url(#linear-gradient)"/>
    <path id="money-svgrepo-com" d="M16.4,32.141l.862-.616,3.864,6.487,16.016-9.658L38,29.382,21.126,39.451Zm.325-3.518.657-.411,3.864,6.693,16.016-9.452.657,1.233L21.246,36.549Zm-.208-3.719L33.6,15.042l4.932,8.542L21.448,33.447Zm11.1-4.521a3.7,3.7,0,1,0,3.7,3.7A3.7,3.7,0,0,0,27.613,20.384Zm1.7,6.035-.562.325-.309-.535-.591.23-.494.073-.217-.761.515-.062.558-.219a.994.994,0,0,0,.365-.337.35.35,0,0,0,.021-.363.393.393,0,0,0-.326-.184l-.613.057a2.293,2.293,0,0,1-.954.023,1,1,0,0,1-.658-.5,1.09,1.09,0,0,1-.13-.8,1.467,1.467,0,0,1,.513-.776l-.312-.54.558-.322.289.5.518-.213.412-.073.207.742-.38.05-.582.236a.69.69,0,0,0-.324.325.326.326,0,0,0,.023.287.346.346,0,0,0,.306.153l.685-.071a1.921,1.921,0,0,1,.98.016,1.09,1.09,0,0,1,.59.524,1.124,1.124,0,0,1,.133.823,1.493,1.493,0,0,1-.554.815Z" transform="translate(-4.533 -3.792)" fill="#fff"/>
  </g>
</svg>
