<svg width="80" height="80" viewBox="0 0 80 80" fill="none" xmlns="http://www.w3.org/2000/svg">
<circle cx="40" cy="40" r="40" fill="#FFF2E8"/>
<path d="M40.8749 35.7733H40.6882C36.8932 35.7733 33.8447 38.8218 33.8447 42.6168V42.8035C33.8447 46.5985 36.8932 49.647 40.6882 49.647H40.8749C44.6699 49.647 47.7184 46.5985 47.7184 42.8035V42.6168C47.7184 38.884 44.6699 35.7733 40.8749 35.7733ZM46.4741 42.8035C46.4741 45.9141 43.9855 48.4027 40.8749 48.4027H40.6882C37.5775 48.4027 35.089 45.9141 35.089 42.8035V42.6168C35.089 39.5061 37.5775 37.0176 40.6882 37.0176H40.8749C43.9855 37.0176 46.4741 39.5061 46.4741 42.6168V42.8035Z" fill="#111111"/>
<path d="M47.0339 52.8821H46.7851L46.5984 53.0687C45.0431 54.5618 43.0523 55.3706 40.8748 55.3706C38.6973 55.3706 36.7065 54.5618 35.1511 53.0687L34.9645 52.8821H34.7156C30.4229 53.1931 27.0634 56.8015 27.0634 61.1565V66.7557H54.8106V61.1565C54.6862 56.8015 51.3267 53.1931 47.0339 52.8821ZM53.4419 65.4492H28.1832V61.0943C28.1832 57.4859 30.9206 54.4996 34.4668 54.0641C36.2088 55.6817 38.4484 56.5527 40.8748 56.5527C43.2389 56.5527 45.4786 55.6817 47.2828 54.0641C50.829 54.4374 53.5664 57.4859 53.5664 61.0943V65.4492H53.4419Z" fill="#111111"/>
<path d="M62.8986 45.3542V45.1676C62.8986 42.0569 60.41 39.5684 57.2993 39.5684H57.1749C54.0642 39.5684 51.5757 42.0569 51.5757 45.1676V45.292C51.5757 48.4027 54.0642 50.8912 57.1749 50.8912H57.2993C60.41 50.9535 62.8986 48.4027 62.8986 45.3542ZM52.82 45.3542V45.1676C52.82 42.7413 54.7486 40.8126 57.1749 40.8126H57.2993C59.7257 40.8126 61.6543 42.7413 61.6543 45.1676V45.292C61.6543 47.7183 59.7257 49.647 57.2993 49.647H57.1749C54.7486 49.7092 52.82 47.7183 52.82 45.3542Z" fill="#111111"/>
<path d="M62.2764 54.1263H61.3432L61.1566 54.313C60.099 55.4328 58.7925 55.9928 57.1749 55.9928V57.237C58.9791 57.237 60.5967 56.6149 61.8409 55.3706H62.2142C64.6406 55.3706 66.6314 57.3615 66.6314 59.7878V62.9607H57.2371V64.2049H68.0001V59.7878C67.9379 56.6149 65.3871 54.1263 62.2764 54.1263Z" fill="#111111"/>
<path d="M30.0497 45.3542V45.1676C30.0497 42.0569 27.5611 39.5684 24.4505 39.5684H24.326C21.2154 39.5684 18.7268 42.0569 18.7268 45.1676V45.292C18.7268 48.4027 21.2154 50.8912 24.326 50.8912H24.4505C27.5611 50.9535 30.0497 48.4027 30.0497 45.3542ZM24.4505 49.7092H24.326C21.8997 49.7092 19.9711 47.7806 19.9711 45.3542V45.1676C19.9711 42.7413 21.8997 40.8126 24.326 40.8126H24.4505C26.8768 40.8126 28.8054 42.7413 28.8054 45.1676V45.292C28.8054 47.7183 26.8768 49.7092 24.4505 49.7092Z" fill="#111111"/>
<path d="M14.9318 59.7878C14.9318 57.3615 16.9226 55.3706 19.3489 55.3706H19.7222C21.0287 56.6149 22.5841 57.237 24.3882 57.237V55.9928C22.7707 55.9928 21.4642 55.4328 20.4066 54.313L20.2199 54.1263H19.3489C16.2383 54.1263 13.6875 56.6771 13.6875 59.7878V64.2049H24.4505V62.9607H14.9318V59.7878Z" fill="#111111"/>
<path d="M20.7799 29.4276H24.9482L29.1787 34.8401C29.3031 34.9646 29.4898 35.089 29.6764 35.089C29.863 35.089 30.0497 34.9646 30.1741 34.8401L33.7203 29.4276H46.0386C46.4119 29.4276 46.6607 29.1787 46.6607 28.8054V14.3096C46.6607 13.9364 46.4119 13.6875 46.0386 13.6875H20.7799C20.4066 13.6875 20.1577 13.9364 20.1577 14.3096V28.8676C20.1577 29.1787 20.4688 29.4276 20.7799 29.4276ZM21.402 14.9318H45.4165V28.2455H33.4092C33.2226 28.2455 33.0359 28.3699 32.9115 28.4943L29.6142 33.4092L25.7569 28.4321C25.6325 28.3077 25.4459 28.1833 25.2592 28.1833H21.402V14.9318Z" fill="#F48120"/>
<path d="M40.9993 18.7268H25.8813V19.9711H40.9993V18.7268Z" fill="#F48120"/>
<path d="M35.3378 23.144H25.8813V24.3883H35.3378V23.144Z" fill="#F48120"/>
</svg>
