<svg width="149" height="149" viewBox="0 0 149 149" fill="none" xmlns="http://www.w3.org/2000/svg">
<path d="M74.39 148.78C115.474 148.78 148.78 115.474 148.78 74.39C148.78 33.3055 115.474 0 74.39 0C33.3055 0 0 33.3055 0 74.39C0 115.474 33.3055 148.78 74.39 148.78Z" fill="url(#paint0_linear_9_80)"/>
<path d="M75.433 29.3872L91.8438 38.8665C92.7337 39.3824 93.2616 40.2884 93.2616 41.3163V60.2728C93.2616 61.2987 92.7337 62.2066 91.8438 62.7226L75.433 72.2018C74.5311 72.7178 73.5052 72.7178 72.6053 72.2018L56.1886 62.7226C55.2986 62.2066 54.7707 61.3007 54.7707 60.2728V41.3143C54.7707 40.2884 55.2986 39.3804 56.1886 38.8645C61.6641 35.7067 67.1297 32.543 72.5993 29.3852C73.4992 28.8713 74.5371 28.8713 75.433 29.3872ZM35.9042 103.463L43.0816 107.607L50.259 103.463L43.0816 99.3197L35.9042 103.463ZM50.959 104.897L43.4876 109.211C43.2496 109.353 42.9436 109.365 42.6816 109.217L35.1982 104.897V112.737L43.0776 117.282L50.957 112.737V104.897H50.959ZM52.1569 113.883L43.4896 118.888C43.2516 119.03 42.9456 119.042 42.6836 118.894L34.0723 113.923C33.7943 113.799 33.6024 113.521 33.6024 113.197V103.407C33.6024 103.407 33.9203 102.767 34.0043 102.715L42.6716 97.7098C42.9156 97.5678 43.2216 97.5558 43.4816 97.7038L52.1089 102.687C52.3749 102.817 52.5569 103.089 52.5569 103.407L52.5509 113.197C52.5529 113.469 52.4109 113.741 52.1569 113.883ZM112.83 104.897L105.347 109.217C105.087 109.365 104.781 109.353 104.541 109.211L97.0693 104.897V112.737L104.949 117.282L112.828 112.737V104.897H112.83ZM97.7673 103.463L104.951 107.607L112.128 103.463L104.951 99.3197L97.7673 103.463ZM104.543 118.888L95.8754 113.883C95.6195 113.741 95.4795 113.469 95.4795 113.197L95.4735 103.407C95.4735 103.089 95.6555 102.817 95.9214 102.687L104.549 97.7038C104.809 97.5558 105.115 97.5678 105.359 97.7098L114.026 102.715C114.282 102.863 114.422 103.129 114.422 103.407L114.428 113.197C114.428 113.521 114.236 113.797 113.958 113.923L105.347 118.894C105.087 119.04 104.781 119.03 104.543 118.888ZM74.8151 77.8954V81.7731C74.8151 82.827 73.2172 82.827 73.2172 81.7731V77.8954H62.2601C61.2062 77.8954 61.2062 76.2975 62.2601 76.2975H85.7742C86.8282 76.2975 86.8282 77.8954 85.7742 77.8954H74.8151ZM44.8935 92.2223H41.1818C40.2398 92.2223 39.4519 91.4963 39.3679 90.5564L39.1859 88.5665C39.1799 88.4426 39.1119 88.4026 39.0099 88.3686C37.752 87.9046 36.5721 87.2187 35.5402 86.3567C35.4602 86.2887 35.3922 86.2827 35.3022 86.3227L33.4824 87.1667C32.6044 87.5686 31.6065 87.2287 31.1306 86.4007L29.2427 83.135C28.7727 82.319 29.0047 81.2691 29.7707 80.7312L31.4085 79.5813C31.4885 79.5253 31.5165 79.4513 31.4985 79.3553C31.2605 77.9954 31.2605 76.4415 31.4985 75.0816C31.5145 74.9856 31.4865 74.9116 31.4085 74.8556L29.7707 73.7057C29.0047 73.1678 28.7727 72.1178 29.2427 71.3019L31.1306 68.0362C31.6065 67.2022 32.6044 66.8683 33.4824 67.2702L35.3022 68.1142C35.3922 68.1542 35.4602 68.1482 35.5402 68.0802C36.5721 67.2182 37.752 66.5323 39.0099 66.0683C39.1119 66.0343 39.1799 65.9943 39.1859 65.8703L39.3679 63.8805C39.4539 62.9386 40.2418 62.2146 41.1818 62.2146H44.8955C45.8414 62.2146 46.6293 62.9406 46.7093 63.8805L46.8913 65.8703C46.9033 65.9943 46.9713 66.0343 47.0673 66.0683C48.3252 66.5323 49.5051 67.2182 50.537 68.0802C50.617 68.1482 50.691 68.1542 50.781 68.1142L52.5949 67.2702C53.4728 66.8683 54.4707 67.2022 54.9527 68.0362L56.8345 71.3019C57.3045 72.1178 57.0725 73.1678 56.3066 73.7057L54.6687 74.8556C54.5887 74.9116 54.5607 74.9856 54.5787 75.0816C54.8167 76.4415 54.8167 77.9954 54.5787 79.3553C54.5627 79.4513 54.5907 79.5253 54.6687 79.5813L56.3066 80.7312C57.0725 81.2691 57.3045 82.319 56.8345 83.135L54.9527 86.4007C54.4707 87.2287 53.4728 87.5686 52.5949 87.1667L50.781 86.3227C50.691 86.2827 50.617 86.2887 50.537 86.3567C49.5051 87.2187 48.3252 87.9046 47.0673 88.3686C46.9713 88.4026 46.9033 88.4426 46.8913 88.5665L46.7093 90.5564C46.6293 91.4963 45.8414 92.2223 44.8935 92.2223ZM43.0396 71.6259C39.9499 71.6259 37.4501 74.1317 37.4501 77.2154C37.4501 80.2992 39.9499 82.805 43.0396 82.805C46.1234 82.805 48.6292 80.2992 48.6292 77.2154C48.6292 74.1317 46.1234 71.6259 43.0396 71.6259ZM43.0396 73.2258C45.2394 73.2258 47.0253 75.0116 47.0253 77.2174C47.0253 79.4233 45.2394 81.2091 43.0396 81.2091C40.8338 81.2091 39.0479 79.4233 39.0479 77.2174C39.0499 75.0116 40.8358 73.2258 43.0396 73.2258ZM41.1818 90.6224H44.8955C45.0155 90.6224 45.1114 90.5424 45.1214 90.4184L45.3034 88.4286C45.3654 87.6966 45.8254 87.1187 46.5053 86.8687C47.6052 86.4607 48.6132 85.8768 49.5091 85.1288C50.0591 84.6689 50.801 84.5729 51.4469 84.8688L53.2608 85.7128C53.3808 85.7648 53.4988 85.7188 53.5608 85.6108L55.4546 82.335C55.5166 82.233 55.4826 82.1031 55.3866 82.0351L53.7488 80.8852C53.1708 80.4772 52.8808 79.7912 53.0008 79.0873C53.2108 77.8854 53.2108 76.5475 53.0008 75.3456C52.8808 74.6436 53.1708 73.9577 53.7488 73.5477L55.3866 72.3978C55.4826 72.3298 55.5166 72.1998 55.4546 72.0978L53.5608 68.8221C53.4988 68.7141 53.3788 68.6681 53.2608 68.7201L51.4469 69.564C50.801 69.858 50.0591 69.762 49.5091 69.3041C48.6132 68.5561 47.6052 67.9722 46.5053 67.5642C45.8254 67.3142 45.3654 66.7363 45.3034 66.0043L45.1214 64.0145C45.1094 63.8905 45.0135 63.8105 44.8955 63.8105H41.1818C41.0618 63.8105 40.9658 63.8905 40.9558 64.0145L40.7738 66.0043C40.7118 66.7363 40.2578 67.3142 39.5719 67.5642C38.472 67.9722 37.4641 68.5561 36.5681 69.3041C36.0242 69.764 35.2822 69.86 34.6343 69.564L32.8144 68.7201C32.6944 68.6681 32.5764 68.7141 32.5204 68.8221L30.6266 72.0978C30.5646 72.1998 30.5926 72.3298 30.6886 72.3978L32.3265 73.5477C32.9104 73.9557 33.1944 74.6416 33.0744 75.3456C32.8644 76.5475 32.8644 77.8854 33.0744 79.0873C33.1944 79.7892 32.9104 80.4752 32.3265 80.8852L30.6886 82.0351C30.5926 82.1031 30.5646 82.233 30.6266 82.335L32.5204 85.6108C32.5764 85.7188 32.6964 85.7648 32.8144 85.7128L34.6343 84.8688C35.2802 84.5749 36.0222 84.6709 36.5681 85.1288C37.4641 85.8768 38.472 86.4607 39.5719 86.8687C40.2578 87.1187 40.7118 87.6966 40.7738 88.4286L40.9558 90.4184C40.9658 90.5424 41.0618 90.6224 41.1818 90.6224ZM103.137 92.2223H106.851C107.796 92.2223 108.58 91.4963 108.664 90.5564L108.846 88.5665C108.858 88.4426 108.92 88.4026 109.022 88.3686C110.28 87.9046 111.46 87.2187 112.492 86.3567C112.572 86.2887 112.64 86.2827 112.736 86.3227L114.55 87.1667C115.428 87.5686 116.426 87.2287 116.902 86.4007L118.79 83.135C119.26 82.319 119.028 81.2691 118.262 80.7312L116.624 79.5813C116.544 79.5253 116.516 79.4513 116.534 79.3553C116.772 77.9954 116.772 76.4415 116.534 75.0816C116.516 74.9856 116.546 74.9116 116.624 74.8556L118.262 73.7057C119.028 73.1678 119.26 72.1178 118.79 71.3019L116.902 68.0362C116.426 67.2022 115.428 66.8683 114.55 67.2702L112.736 68.1142C112.64 68.1542 112.572 68.1482 112.492 68.0802C111.46 67.2182 110.28 66.5323 109.022 66.0683C108.92 66.0343 108.858 65.9943 108.846 65.8703L108.664 63.8805C108.578 62.9386 107.796 62.2146 106.851 62.2146H103.137C102.191 62.2146 101.407 62.9406 101.323 63.8805L101.141 65.8703C101.129 65.9943 101.061 66.0343 100.965 66.0683C99.7071 66.5323 98.5272 67.2182 97.4953 68.0802C97.4153 68.1482 97.3413 68.1542 97.2513 68.1142L95.4375 67.2702C94.5595 66.8683 93.5616 67.2022 93.0797 68.0362L91.1978 71.3019C90.7278 72.1178 90.9598 73.1678 91.7258 73.7057L93.3636 74.8556C93.4436 74.9116 93.4716 74.9856 93.4536 75.0816C93.2157 76.4415 93.2157 77.9954 93.4536 79.3553C93.4716 79.4513 93.4416 79.5253 93.3636 79.5813L91.7258 80.7312C90.9598 81.2691 90.7278 82.319 91.1978 83.135L93.0797 86.4007C93.5616 87.2287 94.5595 87.5686 95.4375 87.1667L97.2513 86.3227C97.3413 86.2827 97.4153 86.2887 97.4953 86.3567C98.5272 87.2187 99.7071 87.9046 100.965 88.3686C101.061 88.4026 101.129 88.4426 101.141 88.5665L101.323 90.5564C101.407 91.4963 102.189 92.2223 103.137 92.2223ZM104.989 71.6259C108.078 71.6259 110.578 74.1317 110.578 77.2154C110.578 80.2992 108.078 82.805 104.989 82.805C101.905 82.805 99.4052 80.2992 99.4052 77.2154C99.4052 74.1317 101.905 71.6259 104.989 71.6259ZM104.989 73.2258C102.789 73.2258 101.003 75.0116 101.003 77.2174C101.003 79.4233 102.789 81.2091 104.989 81.2091C107.195 81.2091 108.98 79.4233 108.98 77.2174C108.98 75.0116 107.195 73.2258 104.989 73.2258ZM106.849 90.6224H103.135C103.015 90.6224 102.919 90.5424 102.909 90.4184L102.727 88.4286C102.665 87.6966 102.211 87.1187 101.525 86.8687C100.425 86.4607 99.4172 85.8768 98.5212 85.1288C97.9713 84.6689 97.2293 84.5729 96.5834 84.8688L94.7695 85.7128C94.6495 85.7648 94.5315 85.7188 94.4755 85.6108L92.5757 82.335C92.5197 82.233 92.5477 82.1031 92.6437 82.0351L94.2816 80.8852C94.8655 80.4772 95.1495 79.7912 95.0295 79.0873C94.8195 77.8854 94.8195 76.5475 95.0295 75.3456C95.1495 74.6436 94.8655 73.9577 94.2816 73.5477L92.6437 72.3978C92.5477 72.3298 92.5197 72.1998 92.5757 72.0978L94.4755 68.8221C94.5315 68.7141 94.6515 68.6681 94.7695 68.7201L96.5834 69.564C97.2293 69.858 97.9713 69.762 98.5212 69.3041C99.4172 68.5561 100.425 67.9722 101.525 67.5642C102.211 67.3142 102.665 66.7363 102.727 66.0043L102.909 64.0145C102.921 63.8905 103.017 63.8105 103.135 63.8105H106.849C106.969 63.8105 107.065 63.8905 107.075 64.0145L107.257 66.0043C107.319 66.7363 107.773 67.3142 108.458 67.5642C109.558 67.9722 110.566 68.5561 111.462 69.3041C112.006 69.764 112.754 69.86 113.396 69.564L115.216 68.7201C115.336 68.6681 115.454 68.7141 115.51 68.8221L117.404 72.0978C117.466 72.1998 117.438 72.3298 117.342 72.3978L115.704 73.5477C115.12 73.9557 114.836 74.6416 114.956 75.3456C115.166 76.5475 115.166 77.8854 114.956 79.0873C114.836 79.7892 115.12 80.4752 115.704 80.8852L117.342 82.0351C117.438 82.1031 117.466 82.233 117.404 82.335L115.51 85.6108C115.454 85.7188 115.334 85.7648 115.216 85.7128L113.396 84.8688C112.756 84.5749 112.008 84.6709 111.462 85.1288C110.566 85.8768 109.558 86.4607 108.458 86.8687C107.773 87.1187 107.319 87.6966 107.257 88.4286L107.075 90.4184C107.065 90.5424 106.969 90.6224 106.849 90.6224ZM67.8756 104.805C66.8217 104.805 66.8217 103.201 67.8756 103.201H80.1547C81.2086 103.201 81.2086 104.805 80.1547 104.805H67.8756ZM67.8756 99.2897C66.8217 99.2897 66.8217 97.6918 67.8756 97.6918H80.1547C81.2086 97.6918 81.2086 99.2897 80.1547 99.2897H67.8756ZM67.8756 110.317C66.8217 110.317 66.8217 108.719 67.8756 108.719H80.1547C81.2086 108.719 81.2086 110.317 80.1547 110.317H67.8756ZM67.4457 90.6564V94.6701C67.4457 96.3019 66.1078 97.6398 64.4759 97.6398H60.6782V114.85C60.6782 116.222 61.8061 117.35 63.184 117.35H84.8563C86.2222 117.35 87.3561 116.222 87.3561 114.85V93.1562C87.3561 91.7903 86.2222 90.6564 84.8563 90.6564H67.4457ZM61.8661 96.042H64.4739C65.2279 96.042 65.8458 95.424 65.8458 94.6701V92.0403L61.8661 96.042ZM59.3563 96.3019L66.3338 89.2905C66.4878 89.1365 66.6917 89.0585 66.8957 89.0585L84.8543 89.0525C87.1041 89.0525 88.952 90.9064 88.952 93.1562V114.85C88.952 117.1 87.1041 118.954 84.8543 118.954H63.182C60.9202 118.954 59.0783 117.106 59.0783 114.85V96.9039C59.0783 96.6659 59.1863 96.4439 59.3563 96.3019ZM74.8151 52.8054V67.3342C74.8151 68.3881 73.2172 68.3881 73.2172 67.3342V52.8114C73.0972 52.7654 72.9852 52.7094 72.8713 52.6474L60.3042 45.392C59.3923 44.87 60.1903 43.4921 61.0982 44.0141L73.6652 51.2655C73.8812 51.3895 74.1411 51.3895 74.3631 51.2655L86.9261 44.0141C87.8381 43.4921 88.632 44.87 87.7201 45.392L75.1571 52.6474C75.0411 52.7094 74.9271 52.7654 74.8151 52.8054ZM73.4032 30.7711C67.9276 33.9289 62.4561 37.0866 56.9805 40.2504C56.5845 40.4763 56.3686 40.8503 56.3686 41.3163V60.2728C56.3686 60.7367 56.5845 61.1067 56.9805 61.3387L73.3972 70.8179C73.7892 71.0439 74.2371 71.0439 74.6331 70.8179L91.0498 61.3387C91.4458 61.1067 91.6618 60.7387 91.6618 60.2728V41.3143C91.6618 40.8503 91.4458 40.4743 91.0498 40.2484L74.6331 30.7691C74.2351 30.5451 73.7932 30.5451 73.4032 30.7711Z" fill="white" stroke="white"/>
<defs>
<linearGradient id="paint0_linear_9_80" x1="148.78" y1="74.39" x2="0" y2="74.39" gradientUnits="userSpaceOnUse">
<stop stop-color="#3B3B3B"/>
<stop offset="1" stop-color="#191919"/>
</linearGradient>
</defs>
</svg>
