<svg width="80" height="80" viewBox="0 0 80 80" fill="none" xmlns="http://www.w3.org/2000/svg">
<g clip-path="url(#clip0_3_497)">
<path d="M40 80C62.0914 80 80 62.0914 80 40C80 17.9086 62.0914 0 40 0C17.9086 0 0 17.9086 0 40C0 62.0914 17.9086 80 40 80Z" fill="#FFF2E8"/>
<path fill-rule="evenodd" clip-rule="evenodd" d="M54.2344 57.1835V57.1035C54.2344 56.6166 54.6268 56.2241 55.1138 56.2241C55.6007 56.2241 55.9932 56.6166 55.9932 57.1035V57.1835H56.6836C57.1633 57.1835 57.5557 57.576 57.5557 58.0629C57.5557 58.5498 57.1633 58.9423 56.6836 58.9423H54.4233V60.3159H56.6836C57.1633 60.3159 57.5557 60.7084 57.5557 61.1953V64.3277C57.5557 64.8146 57.1633 65.2071 56.6836 65.2071H55.9932V65.2871C55.9932 65.774 55.6007 66.1665 55.1138 66.1665C54.6268 66.1665 54.2344 65.774 54.2344 65.2871V65.2071H53.5512C53.0643 65.2071 52.6718 64.8146 52.6718 64.3277C52.6718 63.8408 53.0643 63.4483 53.5512 63.4483H55.8042V62.0747H53.5512C53.0643 62.0747 52.6718 61.6822 52.6718 61.1953V58.0629C52.6718 57.576 53.0643 57.1835 53.5512 57.1835H54.2344ZM14 26.499V17.8794C14 17.3925 14.3925 17 14.8794 17H64.8017C65.2886 17 65.6811 17.3925 65.6811 17.8794V58.1356C65.6811 58.6225 65.2886 59.015 64.8017 59.015H62.5269V67.7872C62.5269 68.2741 62.1344 68.6666 61.6475 68.6666H18.0336C17.5467 68.6666 17.1542 68.2741 17.1542 67.7872V59.015H14.8794C14.3925 59.015 14 58.6225 14 58.1356V26.499ZM63.9296 25.6196V18.7588H15.7588V25.6196H63.9296ZM60.7754 55.4828H18.9057V66.9078H60.7754V55.4828ZM62.5269 57.2562H63.9296V27.3711H15.7588V57.2562H17.1542V44.6975C17.1542 44.2178 17.5467 43.8181 18.0336 43.8181H21.1224V37.2625C21.1224 36.7756 21.5221 36.3831 22.0018 36.3831H23.2155V34.3627C23.2155 31.5573 25.4976 29.268 28.3102 29.268C30.8976 29.268 33.0706 31.2085 33.3686 33.774C33.4267 34.261 33.0852 34.697 32.5982 34.7479C32.1185 34.806 31.6825 34.4572 31.6243 33.9775C31.4354 32.2914 30.0036 31.0268 28.3102 31.0268C26.4642 31.0268 24.9671 32.524 24.9671 34.3627V36.3831H34.6187C35.0983 36.3831 35.4908 36.7756 35.4908 37.2625V43.8181H40.3093L47.9914 29.7041C48.3257 29.1008 49.2051 29.1008 49.5321 29.7041L57.2214 43.8181H61.6475C62.1344 43.8181 62.5269 44.2178 62.5269 44.6975V57.2562ZM22.8812 45.6059H33.7393V38.1347H22.8812V45.6059ZM21.1224 45.5769H18.9057V49.8794H60.7754V45.5769H58.1735C58.4206 46.0202 58.7404 46.4345 58.4351 46.9505C58.2752 47.2121 57.9845 47.3793 57.6793 47.3793H39.8514C39.1828 47.3793 38.7613 46.667 39.0811 46.0783L39.35 45.5769H35.4908V46.4781C35.4908 46.965 35.0983 47.3575 34.6187 47.3575H22.0018C21.5221 47.3575 21.1224 46.965 21.1224 46.4781V45.5769ZM48.7617 31.9643L41.3268 45.6205H56.2039C53.7256 41.0708 51.24 36.514 48.7617 31.9643ZM21.8347 23.0686H18.5496C18.0627 23.0686 17.6702 22.6689 17.6702 22.1892C17.6702 21.7022 18.0627 21.3098 18.5496 21.3098H21.8347C22.3216 21.3098 22.7141 21.7022 22.7141 22.1892C22.7141 22.6761 22.3216 23.0686 21.8347 23.0686ZM28.5791 23.0686H25.2941C24.8144 23.0686 24.422 22.6689 24.422 22.1892C24.422 21.7022 24.8144 21.3098 25.2941 21.3098H28.5791C29.0661 21.3098 29.4585 21.7022 29.4585 22.1892C29.4585 22.6761 29.0661 23.0686 28.5791 23.0686ZM35.3309 23.0686H32.0459C31.5589 23.0686 31.1665 22.6689 31.1665 22.1892C31.1665 21.7022 31.5589 21.3098 32.0459 21.3098H35.3309C35.8106 21.3098 36.203 21.7022 36.203 22.1892C36.203 22.6761 35.8106 23.0686 35.3309 23.0686ZM18.9057 53.724H60.7754V51.6382H18.9057V53.724ZM31.072 61.3407H22.3289C21.8492 61.3407 21.4567 60.9482 21.4567 60.4685C21.4567 59.9816 21.8492 59.5891 22.3289 59.5891H31.072C31.5589 59.5891 31.9514 59.9816 31.9514 60.4685C31.9514 60.9482 31.5589 61.3407 31.072 61.3407ZM38.3616 64.7783H22.9975C22.5178 64.7783 22.1254 64.3859 22.1254 63.8989C22.1254 63.4192 22.5178 63.0268 22.9975 63.0268H38.3616C38.8485 63.0268 39.241 63.4192 39.241 63.8989C39.241 64.3859 38.8485 64.7783 38.3616 64.7783ZM39.4154 35.4965H37.6929C37.206 35.4965 36.8135 35.104 36.8135 34.6171C36.8135 34.1301 37.206 33.7377 37.6929 33.7377H39.4154C39.8951 33.7377 40.2875 34.1301 40.2875 34.6171C40.2875 35.104 39.8951 35.4965 39.4154 35.4965ZM36.9443 32.6766C36.174 32.6766 35.7742 31.739 36.3266 31.1794L37.5403 29.9657C37.8819 29.6241 38.4415 29.6241 38.7831 29.9657C39.1247 30.3073 39.1247 30.8669 38.7831 31.2085L37.5694 32.4222C37.3949 32.5966 37.1696 32.6766 36.9443 32.6766ZM38.1581 39.5228C37.94 39.5228 37.7147 39.4429 37.5403 39.2684L36.3266 38.0547C35.985 37.7131 35.985 37.1535 36.3266 36.8119C36.6682 36.4704 37.2278 36.4704 37.5694 36.8119L38.7831 38.0257C39.3354 38.578 38.9357 39.5228 38.1581 39.5228ZM48.7617 42.0811C48.2821 42.0811 47.8896 41.6886 47.8896 41.2017V35.3729C47.8896 34.886 48.2821 34.4935 48.7617 34.4935C49.2487 34.4935 49.6411 34.886 49.6411 35.3729V41.2017C49.6411 41.6886 49.2487 42.0811 48.7617 42.0811ZM48.7617 44.8428C48.2821 44.8428 47.8896 44.4504 47.8896 43.9634V43.3239C47.8896 42.8442 48.2821 42.4517 48.7617 42.4517C49.2487 42.4517 49.6411 42.8442 49.6411 43.3239V43.9634C49.6411 44.4504 49.2487 44.8428 48.7617 44.8428ZM28.3102 43.4983C27.8233 43.4983 27.4308 43.1058 27.4308 42.6262V41.1217C27.4308 40.6348 27.8233 40.2423 28.3102 40.2423C28.7972 40.2423 29.1896 40.6348 29.1896 41.1217V42.6262C29.1896 43.1058 28.7972 43.4983 28.3102 43.4983Z" fill="#F48120"/>
</g>
<defs>
<clipPath id="clip0_3_497">
<rect width="80" height="80" fill="white"/>
</clipPath>
</defs>
</svg>
