<svg id="energy-trading" xmlns="http://www.w3.org/2000/svg" width="60" height="60" viewBox="0 0 60 60">
  <circle id="Ellipse_153" data-name="Ellipse 153" cx="30" cy="30" r="30" fill="#f48120"/>
  <g id="Page-1" transform="translate(-31.532 -73.978)">
    <path id="fraudprotectpendingminor-svgrepo-com" d="M39.05,28.707A28.159,28.159,0,0,1,22,42,28.155,28.155,0,0,1,4.955,28.708C1.595,22.453,1.1,14.868,3.49,6.688A53.127,53.127,0,0,0,22,2a53.106,53.106,0,0,0,18.51,4.688c2.4,8.18,1.9,15.765-1.465,22.02ZM29.495,22a2.5,2.5,0,1,0,2.5-2.5A2.5,2.5,0,0,0,29.495,22Zm-10,0a2.5,2.5,0,1,0,2.5-2.5A2.5,2.5,0,0,0,19.495,22Zm-10,0a2.5,2.5,0,1,0,2.5-2.5A2.5,2.5,0,0,0,9.495,22Z" transform="translate(39.528 83.978)" fill="#fff"/>
  </g>
</svg>
