<?xml version="1.0" encoding="UTF-8"?><svg id="Layer_1" xmlns="http://www.w3.org/2000/svg" viewBox="0 0 60 60"><defs><style>.cls-1{fill:#fff;fill-rule:evenodd;}.cls-1,.cls-2{stroke-width:0px;}.cls-2{fill:#f48120;}</style></defs><circle class="cls-2" cx="30" cy="30" r="30"/><path class="cls-1" d="M40.69,43.63c0,1.88-1.64,3.41-3.66,3.41s-3.66-1.53-3.66-3.41v-3.41h7.32v3.41h0ZM34.24,38.3c0-1.43,1.25-2.59,2.79-2.59s2.79,1.16,2.79,2.59v.54h-5.58v-.54h0ZM41.37,38.85h-.18v-.54c0-2.18-1.87-3.96-4.16-3.96s-4.16,1.78-4.16,3.96v.54h-.18c-.38,0-.68.31-.68.68v4.09c0,2.63,2.26,4.78,5.03,4.78s5.03-2.14,5.03-4.78v-4.09c0-.38-.31-.68-.68-.68h0ZM24.4,17.75v-2.05c0-.38.31-.68.68-.68s.68.31.68.68v2.05c0,.38-.31.68-.68.68s-.68-.31-.68-.68h0ZM27.27,17.75v-2.05c0-.38.31-.68.68-.68s.68.31.68.68v2.05c0,.38-.31.68-.68.68s-.68-.31-.68-.68h0ZM30.13,17.75v-2.05c0-.38.31-.68.68-.68s.68.31.68.68v2.05c0,.38-.31.68-.68.68s-.68-.31-.68-.68h0ZM33,17.75v-2.05c0-.38.31-.68.68-.68s.68.31.68.68v2.05c0,.38-.31.68-.68.68-.38,0-.68-.31-.68-.68h0ZM35.86,17.75v-2.05c0-.38.31-.68.68-.68s.68.31.68.68v2.05c0,.38-.31.68-.68.68-.38,0-.68-.31-.68-.68h0ZM38.73,17.75v-2.05c0-.38.31-.68.68-.68s.68.31.68.68v2.05c0,.38-.31.68-.68.68-.38,0-.68-.31-.68-.68h0ZM41.6,17.75v-2.05c0-.38.31-.68.68-.68s.68.31.68.68v2.05c0,.38-.31.68-.68.68s-.68-.31-.68-.68h0ZM44.46,17.75v-2.05c0-.38.31-.68.68-.68s.68.31.68.68v2.05c0,.38-.31.68-.68.68-.38,0-.68-.31-.68-.68h0ZM21.95,37.08s-.02.05-.05.05h-8.35s-.05-.02-.05-.05v-2.95c0-2.33,1.9-4.23,4.23-4.23s4.23,1.9,4.23,4.23v2.95h0ZM15.53,26.35c0-1.21.98-2.19,2.19-2.19s2.19.98,2.19,2.19-.98,2.19-2.19,2.19c-1.21,0-2.19-.98-2.19-2.19h0ZM20.04,29.04c.76-.65,1.24-1.62,1.24-2.69,0-1.96-1.6-3.56-3.56-3.56s-3.56,1.59-3.56,3.56c0,1.07.48,2.04,1.24,2.69-1.93.88-3.28,2.83-3.28,5.09v2.95c0,.78.64,1.42,1.42,1.42h8.35c.78,0,1.42-.64,1.42-1.42v-2.95c0-2.26-1.35-4.21-3.28-5.09h0ZM47.51,40.1c1.58-.63,2.68-2.18,2.68-3.93v-15.28H7.76v15.28c0,2.33,1.9,4.23,4.23,4.23h14.59c-.26-2.5-.18-5.06-.11-7.44.01-.33.26-.61.59-.66.38-.05.76-.11,1.14-.18-.11-4.85,3.89-8.85,8.82-8.85s8.91,3.96,8.82,8.85c.38.07.76.13,1.14.18.33.04.58.32.59.66.07,2.28.14,4.74-.08,7.14h0ZM41.82,31.14c-1.63-.52-3.14-1.15-4.45-1.88-.21-.11-.46-.11-.66,0-1.31.72-2.83,1.36-4.45,1.88.39-2.29,2.38-4.04,4.79-4.04,2.4,0,4.4,1.75,4.79,4.04h0ZM43.97,31.74c-.25-.06-.49-.12-.73-.19-.2-3.24-2.91-5.82-6.21-5.82s-6.01,2.58-6.21,5.82l-1.25.3c.05-3.98,3.37-7.21,7.46-7.21s7.41,3.23,7.46,7.21c-.17-.04-.34-.08-.52-.12h0ZM45.25,44.42c1.15-3.31,1.1-7.27.99-10.84-3.21-.49-6.52-1.52-9.21-2.94-2.69,1.42-6,2.45-9.21,2.94-.11,3.57-.16,7.53.99,10.84,1.3,3.73,3.91,6.09,8.22,7.4,4.3-1.31,6.92-3.67,8.22-7.4h0ZM11.99,13.93c-2.33,0-4.23,1.9-4.23,4.23v1.36h42.43v-1.36c0-2.33-1.9-4.23-4.23-4.23H11.99ZM45.96,12.57H11.99c-3.09,0-5.6,2.51-5.6,5.6v18.01c0,3.09,2.51,5.6,5.6,5.6h14.77c.92,5.73,3.89,9.61,10.08,11.42.13.04.26.04.39,0,6.26-1.83,9.22-5.78,10.11-11.59,2.44-.62,4.23-2.87,4.23-5.43v-18.01c0-3.09-2.51-5.6-5.6-5.6Z"/></svg>