<?xml version="1.0" encoding="UTF-8"?><svg id="Layer_1" xmlns="http://www.w3.org/2000/svg" xmlns:xlink="http://www.w3.org/1999/xlink" viewBox="0 0 60 60"><defs><style>.cls-1{fill:url(#linear-gradient);}.cls-1,.cls-2{stroke-width:0px;}.cls-2{fill:#fff;}</style><linearGradient id="linear-gradient" x1="60" y1="30" x2="0" y2="30" gradientUnits="userSpaceOnUse"><stop offset="0" stop-color="#3b3b3b"/><stop offset="1" stop-color="#191919"/></linearGradient></defs><circle class="cls-1" cx="30" cy="30" r="30"/><path class="cls-2" d="M47.25,13.55H12.75c-2.07,0-3.75,1.68-3.75,3.75v22.5c0,2.07,1.68,3.75,3.75,3.75h20.01c.41,0,.75-.34.75-.75s-.34-.75-.75-.75H12.75c-1.24,0-2.25-1.01-2.25-2.25v-18h39v9.92c0,.41.34.75.75.75s.75-.34.75-.75v-14.42c0-2.07-1.68-3.75-3.75-3.75ZM10.5,20.3v-3c0-1.24,1.01-2.25,2.25-2.25h34.5c1.24,0,2.25,1.01,2.25,2.25v3H10.5Z"/><path class="cls-2" d="M12.75,34.55c-.41,0-.75.34-.75.75h0v4.5c0,.41.34.75.75.75h9c.41,0,.75-.34.75-.75h0v-4.5c0-.41-.34-.75-.75-.75h-9ZM21,39.05h-7.5v-3h7.5v3ZM27,25.55h20.25c.41,0,.75-.34.75-.75s-.34-.75-.75-.75h-20.25c-.41,0-.75.34-.75.75s.34.75.75.75ZM41.78,29.8c0-.41-.34-.75-.75-.75h-14.03c-.41,0-.75.34-.75.75s.34.75.75.75h14.03c.41,0,.75-.34.75-.75h0ZM32.75,34.04h-5.75c-.41,0-.75.34-.75.75s.34.75.75.75h5.75c.41,0,.75-.34.75-.75s-.34-.75-.75-.75ZM32.69,39.05h-5.69c-.41,0-.75.34-.75.75s.34.75.75.75h5.69c.41,0,.75-.34.75-.75s-.34-.75-.75-.75ZM50.43,34.17l-7.22-2.58c-.16-.06-.34-.06-.51,0l-7.22,2.58c-.3.11-.49.38-.5.7l-.07,6.65c0,4.42,4.06,7,8.04,8.03,3.99-1.03,8.03-3.6,8.04-8.03l-.07-6.64c0-.31-.2-.59-.5-.7ZM42.96,48.02c-1.85-.51-3.55-1.46-4.97-2.76-1.01-.97-1.58-2.32-1.57-3.73l.07-6.12,6.47-2.32,6.47,2.32.07,6.11c-.03,3.62-3.37,5.48-6.54,6.5Z"/><path class="cls-2" d="M45.32,38.09l-3.32,3.32-1.39-1.39c-.29-.29-.77-.3-1.06,0-.29.29-.3.77,0,1.06,0,0,0,0,0,0l1.92,1.93c.29.29.77.29,1.06,0h0s3.85-3.85,3.85-3.85c.29-.29.29-.77,0-1.06-.29-.29-.77-.29-1.06,0h0Z"/></svg>