<svg width="149" height="149" viewBox="0 0 149 149" fill="none" xmlns="http://www.w3.org/2000/svg">
<path d="M74.39 148.78C115.474 148.78 148.78 115.474 148.78 74.39C148.78 33.3055 115.474 0 74.39 0C33.3055 0 0 33.3055 0 74.39C0 115.474 33.3055 148.78 74.39 148.78Z" fill="url(#paint0_linear_9_81)"/>
<path d="M57.0384 75.9988C57.0834 75.1435 56.7863 74.3241 56.2101 73.6939C55.0216 72.3884 52.9958 72.2983 51.6903 73.4778L40.8139 83.3998C40.1477 84.003 39.7695 84.8673 39.7695 85.7677C39.7695 86.6681 40.1477 87.5324 40.8139 88.1357L51.6993 98.0396C52.2845 98.5798 53.0498 98.8769 53.8511 98.8769C54.7515 98.8769 55.6158 98.4988 56.2191 97.8325C56.7953 97.2023 57.0924 96.383 57.0474 95.5276C57.0114 94.6723 56.6333 93.889 56.003 93.3127L47.7107 85.7677L56.003 78.2227C56.6333 77.6375 57.0024 76.8541 57.0384 75.9988ZM54.6705 76.7551L44.7755 85.7677L54.6705 94.7713C54.9136 94.9874 55.0486 95.2935 55.0666 95.6176C55.0846 95.9418 54.9676 96.2569 54.7515 96.5C54.3193 96.9772 53.509 97.0222 53.0318 96.581L42.1375 86.6681C41.8854 86.434 41.7413 86.1098 41.7413 85.7677C41.7413 85.4256 41.8854 85.0924 42.1375 84.8673L53.0228 74.9544C53.2569 74.7383 53.554 74.6393 53.8421 74.6393C54.1753 74.6393 54.5084 74.7743 54.7425 75.0354C54.9586 75.2785 55.0756 75.5846 55.0576 75.9088C55.0486 76.2329 54.9136 76.539 54.6705 76.7551ZM79.2773 95.5276C79.2413 96.383 79.5294 97.2023 80.1056 97.8325C80.7089 98.4988 81.5732 98.8769 82.4736 98.8769C83.2659 98.8769 84.0312 98.5798 84.6254 98.0396L95.5108 88.1267C96.1771 87.5234 96.5552 86.6591 96.5552 85.7587C96.5552 84.8583 96.1771 84.003 95.5108 83.3908L84.6254 73.4868C83.9952 72.9106 83.1849 72.6134 82.3205 72.6585C81.4652 72.7035 80.6819 73.0726 80.1056 73.7029C79.5294 74.3331 79.2323 75.1525 79.2773 76.0078C79.3223 76.8631 79.6915 77.6465 80.3217 78.2227L88.614 85.7677L80.3217 93.3127C79.6915 93.8799 79.3223 94.6723 79.2773 95.5276ZM81.6543 94.7713L91.5492 85.7677L81.6543 76.7551C81.4112 76.539 81.2761 76.2329 81.2581 75.9088C81.2401 75.5846 81.3571 75.2695 81.5732 75.0264C81.7893 74.7833 82.0864 74.6483 82.4196 74.6303C82.4376 74.6303 82.4556 74.6303 82.4826 74.6303C82.7887 74.6303 83.0768 74.7383 83.3019 74.9454L94.1873 84.8583C94.4394 85.0924 94.5834 85.4166 94.5834 85.7587C94.5834 86.1008 94.4394 86.434 94.1873 86.6591L83.2929 96.572C82.8067 97.0132 82.0054 96.9772 81.5732 96.491C81.3571 96.2479 81.2401 95.9418 81.2581 95.6176C81.2671 95.2935 81.4112 94.9874 81.6543 94.7713ZM62.0624 98.6339C62.4496 98.7959 62.8547 98.8769 63.2779 98.8769C64.5834 98.8769 65.7449 98.0936 66.2401 96.8962L74.3794 77.0702C75.0456 75.4406 74.2623 73.5678 72.6327 72.9016C71.003 72.2353 69.1303 73.0186 68.464 74.6483L60.3247 94.4742C59.6495 96.0858 60.4238 97.9586 62.0624 98.6339ZM62.1435 95.2125L70.2827 75.3866C70.4718 74.9184 70.931 74.6303 71.4172 74.6303C71.5702 74.6303 71.7233 74.6573 71.8764 74.7203C72.4976 74.9724 72.7947 75.6927 72.5426 76.3139L64.4034 96.1399C64.1513 96.7431 63.431 97.0582 62.8097 96.8061C62.1885 96.545 61.8914 95.8337 62.1435 95.2125ZM113.617 29H46.9184C44.8115 29 43.1008 30.7017 43.1008 32.8085V44.6753H34.8175C32.7107 44.6753 31 46.3769 31 48.4748V115.191C31 117.298 32.7107 119 34.8175 119H101.516C103.614 119 105.325 117.298 105.325 115.191V103.325H113.626C115.724 103.325 117.444 101.623 117.444 99.5252V32.8085C117.435 30.7017 115.715 29 113.617 29ZM103.344 115.191C103.344 116.2 102.525 117.019 101.516 117.019H34.8175C33.8001 117.019 32.9808 116.2 32.9808 115.191V54.5072H103.353V115.191H103.344ZM103.344 52.5264H32.9718V48.4748C32.9718 47.4754 33.7911 46.6561 34.8085 46.6561H101.507C102.516 46.6561 103.335 47.4754 103.335 48.4748V52.5264H103.344ZM115.463 99.5252C115.463 100.525 114.634 101.344 113.626 101.344H105.325V48.4748C105.325 46.3769 103.614 44.6753 101.516 44.6753H45.0816V32.8085C45.0816 31.8001 45.901 30.9808 46.9184 30.9808H113.617C114.625 30.9808 115.454 31.8001 115.454 32.8085V99.5252H115.463ZM88.8391 49.5912C88.8391 50.3565 88.2179 50.9778 87.4526 50.9778C86.6873 50.9778 86.066 50.3565 86.066 49.5912C86.066 48.8169 86.6873 48.2047 87.4526 48.2047C88.2179 48.2047 88.8391 48.8259 88.8391 49.5912ZM94.5204 49.5912C94.5204 50.3565 93.9082 50.9778 93.1339 50.9778C92.3685 50.9778 91.7473 50.3565 91.7473 49.5912C91.7473 48.8169 92.3685 48.2047 93.1339 48.2047C93.9082 48.2047 94.5204 48.8259 94.5204 49.5912ZM100.22 49.5912C100.22 50.3565 99.5984 50.9778 98.8331 50.9778C98.0678 50.9778 97.4466 50.3565 97.4466 49.5912C97.4466 48.8169 98.0678 48.2047 98.8331 48.2047C99.5984 48.2047 100.22 48.8259 100.22 49.5912ZM100.616 34.4922C100.616 35.2665 99.9946 35.8788 99.2293 35.8788C98.464 35.8788 97.8427 35.2665 97.8427 34.4922C97.8427 33.7269 98.464 33.1056 99.2293 33.1056C99.9946 33.1056 100.616 33.7269 100.616 34.4922ZM106.306 34.4922C106.306 35.2665 105.694 35.8788 104.92 35.8788C104.154 35.8788 103.533 35.2665 103.533 34.4922C103.533 33.7269 104.154 33.1056 104.92 33.1056C105.694 33.1056 106.306 33.7269 106.306 34.4922ZM111.996 34.4922C111.996 35.2665 111.375 35.8788 110.61 35.8788C109.845 35.8788 109.223 35.2665 109.223 34.4922C109.223 33.7269 109.845 33.1056 110.61 33.1056C111.375 33.1056 111.996 33.7269 111.996 34.4922ZM38.8241 104.873C38.8241 104.324 39.2653 103.883 39.8145 103.883H55.8679C56.4172 103.883 56.8583 104.324 56.8583 104.873C56.8583 105.423 56.4172 105.864 55.8679 105.864H39.8145C39.2743 105.864 38.8241 105.423 38.8241 104.873ZM38.8241 111.788C38.8241 111.239 39.2653 110.798 39.8145 110.798H68.1579C68.7071 110.798 69.1483 111.239 69.1483 111.788C69.1483 112.337 68.7071 112.779 68.1579 112.779H39.8145C39.2743 112.779 38.8241 112.337 38.8241 111.788ZM38.8241 59.2431C38.8241 58.6939 39.2653 58.2527 39.8145 58.2527H50.4748C51.024 58.2527 51.4652 58.6939 51.4652 59.2431C51.4652 59.7923 51.024 60.2335 50.4748 60.2335H39.8145C39.2743 60.2335 38.8241 59.7923 38.8241 59.2431ZM38.8241 66.1669C38.8241 65.6176 39.2653 65.1765 39.8145 65.1765H58.6321C59.1813 65.1765 59.6224 65.6176 59.6224 66.1669C59.6224 66.7161 59.1813 67.1573 58.6321 67.1573H39.8145C39.2743 67.1483 38.8241 66.7071 38.8241 66.1669Z" fill="white"/>
<defs>
<linearGradient id="paint0_linear_9_81" x1="148.78" y1="74.39" x2="0" y2="74.39" gradientUnits="userSpaceOnUse">
<stop stop-color="#3B3B3B"/>
<stop offset="1" stop-color="#191919"/>
</linearGradient>
</defs>
</svg>
