<?xml version="1.0" encoding="UTF-8"?>
<!DOCTYPE svg PUBLIC "-//W3C//DTD SVG 1.1//EN" "http://www.w3.org/Graphics/SVG/1.1/DTD/svg11.dtd">
<!-- Creator: CorelDRAW -->
<svg xmlns="http://www.w3.org/2000/svg" xml:space="preserve" width="1.70666in" height="1.70666in" version="1.1" style="shape-rendering:geometricPrecision; text-rendering:geometricPrecision; image-rendering:optimizeQuality; fill-rule:evenodd; clip-rule:evenodd"
viewBox="0 0 1707 1707"
 xmlns:xlink="http://www.w3.org/1999/xlink">
 <defs>
  <style type="text/css">
   <![CDATA[
    .fil0 {fill:black}
   ]]>
  </style>
 </defs>
 <g id="Layer_x0020_1">
  <metadata id="CorelCorpID_0Corel-Layer"/>
  <g id="_328326312">
   <g>
    <g>
     <path class="fil0" d="M253 661c-54,0 -99,-45 -99,-99 0,-10 2,-18 3,-26l-132 0c-13,0 -25,-11 -25,-25l0 -457c0,-13 12,-24 25,-24l457 0c14,0 25,11 25,24l0 174c0,10 -6,18 -16,22 -8,4 -19,3 -26,-4 -10,-8 -21,-14 -35,-14 -29,0 -51,22 -51,50 0,29 24,51 51,51 13,0 25,-5 35,-14 7,-5 17,-7 26,-4 9,4 14,13 14,22l0 172c0,14 -11,25 -25,25l-131 0c2,9 4,18 4,27 1,55 -45,100 -100,100zm-204 -175l148 0c10,0 18,5 23,14 4,8 2,19 -5,26 -8,8 -12,21 -12,35 0,27 23,50 50,50 29,0 51,-23 51,-50 0,-13 -4,-25 -14,-35 -7,-7 -8,-18 -4,-26 4,-9 13,-14 22,-14l147 0 0 -107c-8,3 -18,4 -26,4 -56,0 -100,-44 -100,-100 0,-54 44,-98 100,-98 10,0 18,1 26,4l0 -110 -406 0 0 407z"/>
    </g>
    <g>
     <path class="fil0" d="M482 1677l-457 0c-13,0 -25,-11 -25,-25l0 -455c0,-14 12,-25 25,-25l174 0c9,0 18,6 22,14 4,8 3,20 -4,27 -9,8 -13,20 -13,34 0,28 22,50 50,50 29,0 52,-22 52,-50 0,-12 -5,-25 -14,-34 -7,-7 -9,-18 -4,-27 4,-8 12,-14 22,-14l172 0c14,0 25,11 25,25l0 132c8,-3 16,-4 25,-4 55,0 99,44 99,98 0,56 -44,100 -99,100 -9,0 -17,-1 -25,-4l0 132c-2,15 -13,26 -25,26zm-433 -48l408 0 0 -149c0,-10 5,-18 14,-22 8,-4 19,-3 26,4 10,8 21,14 33,14 29,0 52,-24 52,-51 0,-28 -24,-50 -52,-50 -12,0 -23,5 -33,14 -7,7 -18,8 -26,4 -9,-4 -14,-13 -14,-22l0 -149 -107 0c3,9 4,18 4,27 0,54 -44,98 -100,98 -54,0 -98,-44 -98,-98 0,-10 1,-18 3,-27l-110 0 0 407z"/>
    </g>
    <g>
     <path class="fil0" d="M1683 1677l-457 0c-13,0 -25,-11 -25,-25l0 -173c0,-10 6,-18 14,-22 9,-5 20,-3 27,4 11,9 22,14 34,14 28,0 50,-23 50,-52 0,-27 -22,-50 -50,-50 -12,0 -23,5 -34,14 -7,6 -17,7 -27,4 -8,-4 -14,-12 -14,-22l0 -172c0,-14 12,-25 25,-25l132 0c-3,-8 -4,-18 -4,-26 0,-54 44,-99 100,-99 54,0 98,45 98,99 0,10 -1,18 -2,26l131 0c14,0 25,11 25,25l0 455c0,14 -11,25 -23,25zm-432 -48l407 0 0 -407 -147 0c-10,0 -18,-5 -22,-14 -5,-8 -3,-19 4,-26 8,-8 12,-21 12,-35 0,-27 -22,-50 -50,-50 -29,0 -51,23 -51,50 0,13 4,25 14,35 7,7 8,18 4,26 -4,9 -13,14 -22,14l-149 0 0 107c9,-3 18,-4 27,-4 54,0 98,44 98,98 0,56 -44,100 -98,100 -10,0 -18,-1 -27,-4l0 110z"/>
    </g>
    <g>
     <path class="fil0" d="M1683 534l-172 0c-10,0 -18,-5 -22,-14 -5,-8 -3,-19 4,-26 8,-10 12,-22 12,-35 0,-27 -22,-49 -50,-49 -29,0 -51,22 -51,49 0,13 4,24 14,35 5,7 7,17 4,26 -4,9 -13,14 -22,14l-174 0c-13,0 -25,-11 -25,-25l0 -131c-8,2 -18,4 -26,4 -54,0 -98,-45 -98,-100 0,-54 44,-99 98,-99 10,0 18,2 26,3l0 -132c0,-13 12,-24 25,-24l455 0c14,0 25,11 25,24l0 455c0,14 -11,25 -23,25zm-133 -48l108 0 0 -407 -407 0 0 149c0,10 -5,18 -15,22 -10,4 -19,1 -26,-5 -9,-9 -20,-13 -34,-13 -27,0 -49,24 -49,50 0,29 22,51 49,51 13,0 25,-4 35,-14 7,-7 18,-8 26,-4 9,4 14,13 14,22l0 147 107 0c-3,-8 -4,-18 -4,-26 0,-54 44,-98 100,-98 54,0 98,44 98,98 2,10 0,19 -2,28z"/>
    </g>
    <g>
     <g>
      <path class="fil0" d="M902 1164l-68 0c-11,0 -21,-7 -24,-18l-19 -79c-11,-4 -21,-8 -32,-15l-65 41c-10,6 -22,4 -31,-3l-48 -48c-9,-8 -10,-21 -4,-29l43 -71c-6,-11 -10,-22 -13,-33l-75 -17c-11,-3 -19,-12 -19,-23l0 -68c0,-11 7,-21 18,-24l80 -19c4,-11 9,-23 14,-32l-40 -65c-6,-10 -4,-23 4,-31l49 -48c8,-9 20,-10 29,-5l71 43c11,-5 22,-9 31,-12l18 -75c3,-11 13,-19 24,-19l68 0c11,0 21,8 24,18l19 80c11,4 22,8 32,14l65 -40c10,-6 22,-4 31,4l48 48c8,9 10,20 4,29l-41 71c5,11 9,22 12,32l75 18c11,3 18,13 18,24l0 68c0,11 -8,20 -18,23l-79 20c-4,11 -8,20 -15,32l41 65c6,9 4,22 -2,30l-52 47c-8,9 -19,10 -29,5l-71 -42c-11,6 -22,10 -33,12l-17 74c-2,10 -12,18 -23,18zm-50 -49l29 0 15 -69c3,-10 10,-17 20,-18 16,-3 32,-10 48,-18 7,-4 17,-4 24,0l65 39 21 -21 -39 -61c-6,-8 -6,-18 0,-26 10,-17 17,-32 21,-46 3,-8 10,-15 18,-18l73 -18 0 -29 -70 -17c-10,-3 -17,-10 -18,-18 -3,-15 -10,-32 -18,-47 -5,-7 -5,-17 0,-24l38 -65 -20 -21 -59 38c-8,4 -18,4 -25,0 -13,-9 -29,-15 -47,-21 -8,-3 -14,-10 -16,-18l-18 -74 -30 0 -16 70c-3,10 -10,16 -18,18 -15,3 -32,10 -47,18 -7,4 -17,4 -24,-2l-65 -40 -21 21 37 61c5,8 5,18 0,25 -8,14 -15,29 -20,47 -3,9 -10,14 -17,17l-75 18 0 32 71 15c10,3 17,10 18,19 3,17 10,32 18,49 4,7 4,17 -1,24l-41 65 21 21 61 -39c8,-6 18,-6 27,0 16,9 31,16 45,21 9,2 16,9 18,18l17 74z"/>
     </g>
     <g>
      <path class="fil0" d="M873 968c-70,0 -125,-55 -125,-123 0,-69 55,-125 125,-125 68,0 123,56 123,125 2,68 -54,123 -123,123zm0 -201c-42,0 -77,35 -77,77 0,41 35,75 77,75 41,0 75,-34 75,-75 1,-42 -34,-77 -75,-77z"/>
     </g>
    </g>
    <g>
     <g>
      <path class="fil0" d="M991 286l-311 0c-14,0 -25,-11 -25,-25 0,-14 11,-25 25,-25l312 0c14,0 25,11 25,25 0,14 -12,25 -26,25z"/>
     </g>
     <g>
      <path class="fil0" d="M680 286c-6,0 -13,-3 -17,-7 -9,-10 -9,-25 0,-35l67 -66c10,-10 25,-10 35,0 9,10 9,25 0,35l-68 66c-5,6 -11,7 -17,7z"/>
     </g>
     <g>
      <path class="fil0" d="M745 351c-5,0 -12,-2 -16,-7l-66 -65c-9,-10 -9,-25 0,-34 10,-10 25,-10 35,0l67 65c9,9 9,25 0,34 -7,5 -13,7 -20,7z"/>
     </g>
    </g>
    <g>
     <g>
      <path class="fil0" d="M296 1057c-14,0 -25,-11 -25,-25l0 -312c0,-14 11,-25 25,-25 14,0 25,11 25,25l0 312c-2,14 -13,25 -25,25z"/>
     </g>
     <g>
      <path class="fil0" d="M296 1057c-7,0 -13,-3 -17,-7l-65 -66c-10,-10 -10,-25 0,-35 10,-10 25,-10 35,0l65 67c10,9 10,25 0,34 -6,4 -13,7 -18,7z"/>
     </g>
     <g>
      <path class="fil0" d="M296 1057c-6,0 -13,-3 -17,-7 -10,-9 -10,-25 0,-34l67 -67c9,-10 25,-10 34,0 10,10 10,25 0,35l-66 66c-6,4 -13,7 -18,7z"/>
     </g>
    </g>
    <g>
     <g>
      <path class="fil0" d="M1067 1441l-312 0c-14,0 -25,-11 -25,-25 0,-13 11,-25 25,-25l312 0c14,0 25,12 25,25 0,14 -11,25 -25,25z"/>
     </g>
     <g>
      <path class="fil0" d="M1002 1507c-6,0 -13,-3 -17,-7 -10,-10 -10,-25 0,-35l67 -67c9,-9 25,-9 34,0 10,10 10,25 0,35l-66 67c-6,4 -13,7 -18,7z"/>
     </g>
     <g>
      <path class="fil0" d="M1067 1441c-6,0 -13,-2 -17,-7l-66 -66c-10,-10 -10,-25 0,-35 9,-10 25,-10 34,0l67 67c10,9 10,25 0,34 -6,5 -11,7 -18,7z"/>
     </g>
    </g>
    <g>
     <g>
      <path class="fil0" d="M1451 981c-14,0 -25,-11 -25,-25l0 -311c0,-14 11,-25 25,-25 14,0 25,11 25,25l0 312c-1,14 -12,24 -25,24z"/>
     </g>
     <g>
      <path class="fil0" d="M1516 735c-5,0 -12,-2 -16,-6l-67 -67c-10,-10 -10,-25 0,-35 10,-9 25,-9 35,0l66 67c10,10 10,25 0,35 -5,5 -11,6 -18,6z"/>
     </g>
     <g>
      <path class="fil0" d="M1385 735c-6,0 -13,-2 -17,-6 -10,-10 -10,-25 0,-35l66 -67c10,-9 25,-9 35,0 10,10 10,25 0,35l-66 67c-6,5 -13,6 -18,6z"/>
     </g>
    </g>
   </g>
  </g>
 </g>
</svg>
