<svg xmlns="http://www.w3.org/2000/svg" width="48" height="25" viewBox="0 0 48 25">
  <g id="Group_7639" data-name="Group 7639" transform="translate(-1324.334 -4330)">
    <g id="android-svgrepo-com" transform="translate(1324.334 4330)">
      <path id="Path_8788" data-name="Path 8788" d="M-96.208,131.048l.271-.41.271-.4.6-.908a.231.231,0,0,0-.068-.332.226.226,0,0,0-.329.068l-.638.967-.271.41-.271.41a7.771,7.771,0,0,0-2.853-.527,7.808,7.808,0,0,0-2.853.527l-.271-.41-.271-.41-.638-.967a.245.245,0,0,0-.329-.068.25.25,0,0,0-.068.332l.6.908.271.4.271.41a5.5,5.5,0,0,0-3.414,4.843h13.416A5.511,5.511,0,0,0-96.208,131.048Zm-6.171,2.9a.718.718,0,0,1-.716-.723.718.718,0,0,1,.716-.723.718.718,0,0,1,.716.723A.718.718,0,0,1-102.379,133.947Zm5.745,0a.718.718,0,0,1-.716-.723.718.718,0,0,1,.716-.723.718.718,0,0,1,.716.723A.706.706,0,0,1-96.634,133.947Z" transform="translate(110.002 -128.954)" fill="#fff"/>
      <path id="Path_8789" data-name="Path 8789" d="M-106.294,209.8l-.106.01v10.643a1.522,1.522,0,0,0,1.519,1.533h1.093a1.382,1.382,0,0,0-.058.4v3.066a1.452,1.452,0,0,0,1.441,1.455,1.452,1.452,0,0,0,1.441-1.455v-3.066a1.381,1.381,0,0,0-.058-.4h2.67a1.382,1.382,0,0,0-.058.4v3.066a1.452,1.452,0,0,0,1.441,1.455,1.452,1.452,0,0,0,1.441-1.455v-3.066a1.381,1.381,0,0,0-.058-.4h1.093a1.522,1.522,0,0,0,1.519-1.533V209.8h-13.319Z" transform="translate(110.183 -201.906)" fill="#fff"/>
      <path id="Path_8790" data-name="Path 8790" d="M-144.577,209.9A1.443,1.443,0,0,0-146,211.355v6.21a1.443,1.443,0,0,0,1.423,1.455,1.443,1.443,0,0,0,1.423-1.455v-6.21A1.443,1.443,0,0,0-144.577,209.9Z" transform="translate(146 -201.997)" fill="#fff"/>
      <path id="Path_8791" data-name="Path 8791" d="M43.723,209.9a1.443,1.443,0,0,0-1.423,1.455v6.21a1.424,1.424,0,1,0,2.847,0v-6.21A1.443,1.443,0,0,0,43.723,209.9Z" transform="translate(-24.147 -201.997)" fill="#fff"/>
    </g>
    <path id="apple-logo-svgrepo-com" d="M22.163,23.874c-1.023,1.55-2.108,3.062-3.759,3.087s-2.182-.987-4.055-.987-2.465.962-4.031,1.025c-1.615.062-2.835-1.65-3.87-3.162-2.108-3.087-3.723-8.774-1.553-12.6A6.01,6.01,0,0,1,9.973,8.1c1.578-.025,3.082,1.087,4.055,1.087s2.786-1.337,4.7-1.137a5.7,5.7,0,0,1,4.487,2.475,5.7,5.7,0,0,0-2.65,4.762,5.5,5.5,0,0,0,3.3,5.05A13.905,13.905,0,0,1,22.163,23.874Zm-7.038-20A5.577,5.577,0,0,1,18.749,2a5.52,5.52,0,0,1-1.282,3.987,4.477,4.477,0,0,1-3.636,1.775A5.389,5.389,0,0,1,15.125,3.875Z" transform="translate(1348.47 4328)" fill="#fff"/>
  </g>
</svg>
