<svg xmlns="http://www.w3.org/2000/svg" width="25" height="25" viewBox="0 0 25 25">
  <g id="vr-arrows-svgrepo-com" transform="translate(2.5 1.764)">
    <path id="Path_8756" data-name="Path 8756" d="M6,16.9l-.279-1.526a42.5,42.5,0,0,1,6.749-.512,42.5,42.5,0,0,1,6.749.512L18.94,16.9a40.692,40.692,0,0,0-6.466-.49h-.008A40.693,40.693,0,0,0,6,16.9Z" transform="translate(-2.471 0.78)" fill="#fff"/>
    <path id="Line_1" data-name="Line 1" d="M-.952,10.213H-2.5V0H-.952Z" transform="translate(23.452 9.525)" fill="#fff"/>
    <path id="Line_2" data-name="Line 2" d="M-.952,10.213H-2.5V0H-.952Z" transform="translate(0 9.525)" fill="#fff"/>
    <path id="Path_8757" data-name="Path 8757" d="M5.681,23.686l-.951-.178A15.876,15.876,0,0,1,.681,22.272a4.83,4.83,0,0,1-1.31-.907,1.973,1.973,0,0,1-.621-1.386H.362c0,.06.183.4,1.031.821a12.415,12.415,0,0,0,2.677.9V12.575a14.565,14.565,0,0,1-3.409-1.1,4.639,4.639,0,0,1-1.3-.917,2.021,2.021,0,0,1-.605-1.4,1.918,1.918,0,0,1,.4-1.148,3.426,3.426,0,0,1,.889-.81A9.844,9.844,0,0,1,2.768,6.07a33.088,33.088,0,0,1,8.482-.98,33.155,33.155,0,0,1,8.482.978A9.877,9.877,0,0,1,22.462,7.2a3.426,3.426,0,0,1,.889.806,1.908,1.908,0,0,1,.4,1.146,1.987,1.987,0,0,1-.607,1.381,4.741,4.741,0,0,1-1.3.915,14.356,14.356,0,0,1-3.413,1.114V21.7c3.019-.681,3.707-1.531,3.707-1.723H23.75a2.008,2.008,0,0,1-.607,1.393,4.654,4.654,0,0,1-1.3.912,15.886,15.886,0,0,1-4.071,1.225l-.949.174V11.2l.663-.122a13.975,13.975,0,0,0,3.642-1.1c.842-.427,1.014-.762,1.014-.828,0-.152-.48-.851-2.83-1.5a31.556,31.556,0,0,0-8.058-.92,31.489,31.489,0,0,0-8.058.922C.842,8.3.362,9.011.362,9.164c0,.094.182.427,1.011.843a14.289,14.289,0,0,0,3.646,1.084l.663.122Z" transform="translate(-1.25 -0.451)" fill="#fff"/>
    <path id="Path_8758" data-name="Path 8758" d="M18.654,5.676,17.56,4.581l2-2-2-2.011,1.1-1.092,3.093,3.106Z" transform="translate(0.048 -1.24)" fill="#fff"/>
    <path id="Path_8759" data-name="Path 8759" d="M1.792,5.676-1.3,2.582,1.791-.524,2.888.568l-2,2.011,2,2Z" transform="translate(-0.494 -1.24)" fill="#fff"/>
    <path id="Line_3" data-name="Line 3" d="M2.036-.952H0V-2.5H2.036Z" transform="translate(2.578 3.056)" fill="#fff"/>
    <path id="Line_4" data-name="Line 4" d="M2.036-.952H0V-2.5H2.036Z" transform="translate(6.847 3.056)" fill="#fff"/>
    <path id="Line_5" data-name="Line 5" d="M2.036-.952H0V-2.5H2.036Z" transform="translate(11.116 3.056)" fill="#fff"/>
    <path id="Line_6" data-name="Line 6" d="M2.036-.952H0V-2.5H2.036Z" transform="translate(15.385 3.056)" fill="#fff"/>
  </g>
</svg>
