<svg xmlns="http://www.w3.org/2000/svg" width="175" height="70" viewBox="0 0 175 70">
  <g id="Group_8069" data-name="Group 8069" transform="translate(-424 -3858)">
    <rect id="Rectangle_1683" data-name="Rectangle 1683" width="175" height="70" rx="35" transform="translate(424 3858)"/>
    <g id="Group_8072" data-name="Group 8072" transform="translate(-721.85 -328.365)">
      <g id="Group_8073" data-name="Group 8073" transform="translate(1189.684 4201.121)">
        <g id="Group_8072-2" data-name="Group 8072" transform="translate(0 24.767)">
          <path id="cryengine-svgrepo-com" d="M55.3,15.724a4.776,4.776,0,0,1,3.033,1.082l.053.045-.56.894a3.74,3.74,0,1,0,1.173,3.337L59,21.031H55.8l.65-1.041h3.63v.522A4.78,4.78,0,1,1,55.3,15.724Zm-50.517,0A4.8,4.8,0,0,1,8.23,17.2l.045.049-.59.909a3.739,3.739,0,1,0-.1,4.814l.038-.045.793.676A4.779,4.779,0,1,1,4.78,15.724Zm9.17.056c2.4,0,3.36,1.127,3.36,2.755a2.523,2.523,0,0,1-2.334,2.653l-.053.011,2.638,4.04H16.3l-2.492-3.976h-1.8V25.24H10.985V15.781Zm22.1,8.542v.917H29.576v-.917Zm-15.1-8.542,2.6,4.318a1.764,1.764,0,0,1,.169.432,2.065,2.065,0,0,1,.162-.41l.023-.038,2.586-4.3H27.6l-5.878,9.463H20.7L23.135,21.3,19.82,15.781ZM86.8,24.323v.917H80.326v-.917ZM69.657,15.781l5.682,7.836a2.127,2.127,0,0,1-.079-.477V15.781h1.022v9.463h-.97l-5.694-7.862a1.819,1.819,0,0,1,.09.534v7.328H68.687V15.781Zm-5.115,0v9.463H63.52V15.781Zm-24.033,0,5.682,7.836a2.127,2.127,0,0,1-.079-.477V15.781h1.022v9.463h-.97l-5.694-7.862a1.818,1.818,0,0,1,.09.534v7.328H39.539V15.781Zm46.289,4v.932H80.326v-.932H86.8Zm-50.75,0v.932H29.576v-.932h6.471ZM13.965,16.7H12.011v3.634h1.943c1.443,0,2.311-.421,2.311-1.8S15.393,16.7,13.965,16.7Zm75.129-2.131a1.1,1.1,0,1,1-1.1,1.1A1.1,1.1,0,0,1,89.094,14.567Zm-2.3,1.214V16.7H80.326v-.917Zm-50.75,0V16.7H30.523l.567-.917Zm53.046-1.03a.909.909,0,1,0,.913.909A.908.908,0,0,0,89.094,14.751Zm.008.342c.282,0,.406.143.406.342a.306.306,0,0,1-.222.316l-.023.008.3.462h-.218l-.252-.391a.106.106,0,0,1-.015-.041v-.011h-.218v.443h-.18V15.089H89.1Zm0,.173h-.244v.342H89.1c.154,0,.225-.041.225-.169S89.255,15.266,89.1,15.266Z" transform="translate(0 -14.567)" fill="#fff"/>
        </g>
        <path id="cryengine-svgrepo-com-2" data-name="cryengine-svgrepo-com" d="M24.134,6.652l.331-.026C15.6,8.689,10.331,15.39,10.331,16.262v0s0-.034.008.135v.023h0c.18.951,2.8,5.543,12.932,8.272-11.613-.921-16.889-6.569-17.148-8.223l0-.053h0c0-.173,0-.139,0-.128h0l0-.049c.139-1.7,7.246-8.689,18.016-9.591l.331-.026Zm3.687-.071c12.06.628,19.076,7.8,19.14,9.8v0c0-.008,0,0,0,.124v.023H46.95c-.094,1.007-3.927,5.1-9.662,6.99C30.279,25.822,19,24.984,19,16.2a7.5,7.5,0,0,1,14.991.019,7.864,7.864,0,0,1-2.183,5.333,16.594,16.594,0,0,0,9.914-3.822,5.082,5.082,0,0,0,.887-1.067.523.523,0,0,0,.075-.271C42.688,15.488,37.844,8.558,27.821,6.581Zm-1.342,5.363a4.25,4.25,0,1,0,4.25,4.25A4.249,4.249,0,0,0,26.479,11.944Zm20.478,4.442Z" transform="translate(19.098 -6.581)" fill="#fff"/>
      </g>
    </g>
  </g>
</svg>
