<svg xmlns="http://www.w3.org/2000/svg" width="175" height="70" viewBox="0 0 175 70">
  <g id="Group_8068" data-name="Group 8068" transform="translate(-424 -3858)">
    <rect id="Rectangle_1683" data-name="Rectangle 1683" width="175" height="70" rx="35" transform="translate(424 3858)" fill="#f16529"/>
    <g id="html-5-svgrepo-com" transform="translate(1093.226 3804.234)">
      <path id="Path_9128" data-name="Path 9128" d="M31.76,70.766l-2.853,31.959L16.083,106.28,3.295,102.73.445,70.766Z" transform="translate(-558.521)" fill="#e44d26"/>
      <path id="Path_9129" data-name="Path 9129" d="M128,122.24l10.362-2.873,2.438-27.31H128V122.24Z" transform="translate(-670.418 -18.678)" fill="#f16529"/>
      <path id="Path_9130" data-name="Path 9130" d="M52.2,127.915h5.546V124h-9.83l.094,1.052.964,10.8h8.773v-3.92H52.56l-.358-4.014Z" transform="translate(-600.166 -46.695)" fill="#ebebeb"/>
      <path id="Path_9131" data-name="Path 9131" d="M61.893,236.542H57.958l.549,6.155,8.03,2.229.018-.005v-4.079l-.017,0-4.366-1.179-.279-3.127Z" transform="translate(-608.974 -145.427)" fill="#ebebeb"/>
      <path id="Path_9132" data-name="Path 9132" d="M24.181,0h5.561V5.495H34.83V0h5.562V16.639H34.83V11.068H29.742v5.572H24.181V0Z" transform="translate(-660.407 80.183)" fill="#fff"/>
      <path id="Path_9133" data-name="Path 9133" d="M83.439,5.518h-4.9V0H93.9V5.518H89V16.639H83.439V5.518Z" transform="translate(-696.141 80.183)" fill="#fff"/>
      <path id="Path_9134" data-name="Path 9134" d="M130.469,0h5.8l3.567,5.847L143.4,0h5.8V16.639h-5.539V8.392l-3.826,5.916h-.1l-3.829-5.916v8.247h-5.442V0Z" transform="translate(-730.274 80.183)" fill="#fff"/>
      <path id="Path_9135" data-name="Path 9135" d="M193.21,0h5.563V11.139h7.821v5.5H193.21V0Z" transform="translate(-771.516 80.183)" fill="#ebebeb"/>
      <path id="Path_9136" data-name="Path 9136" d="M127.89,192.556h4.827l-.455,5.084-4.372,1.18V202.9l8.037-2.227.059-.662.921-10.321.1-1.053H127.89v3.92Z" transform="translate(-670.322 -103.402)" fill="#fff"/>
      <path id="Path_9137" data-name="Path 9137" d="M127.89,127.906v.01h9.469l.079-.881.179-1.987L137.71,124h-9.82v3.911Z" transform="translate(-670.322 -46.695)" fill="#fff"/>
    </g>
  </g>
</svg>
