<svg xmlns="http://www.w3.org/2000/svg" width="175" height="70" viewBox="0 0 175 70">
  <g id="Group_8069" data-name="Group 8069" transform="translate(-424 -3858)">
    <rect id="Rectangle_1683" data-name="Rectangle 1683" width="175" height="70" rx="35" transform="translate(424 3858)" fill="#5d6bbc"/>
    <g id="ISO_C__Logo" data-name="ISO_C++_Logo" transform="translate(488.5 3866.363)">
      <path id="Path_9143" data-name="Path 9143" d="M174.928,111.408a3.988,3.988,0,0,0,.572-1.92V88.007a3.986,3.986,0,0,0-.572-1.919L153,98.748Z" transform="translate(-130.5 -73.428)" fill="#3749b0"/>
      <path id="Path_9144" data-name="Path 9144" d="M27.769,197.031l18.6-10.74a3.986,3.986,0,0,0,1.376-1.455L25.82,172.175,3.893,184.835a3.987,3.987,0,0,0,1.376,1.455l18.6,10.74A4.322,4.322,0,0,0,27.769,197.031Z" transform="translate(-3.321 -146.855)" fill="#2d3399"/>
      <path id="Path_9145" data-name="Path 9145" d="M44.428,12.66A3.989,3.989,0,0,0,43.051,11.2L24.449.464a4.322,4.322,0,0,0-3.9,0L1.949,11.2A4.323,4.323,0,0,0,0,14.579V36.06a3.986,3.986,0,0,0,.572,1.92L22.5,25.32Z" transform="translate(0 0)" fill="#5d6bbc"/>
      <g id="Group_8078" data-name="Group 8078" transform="translate(7.5 10.32)">
        <path id="Path_9146" data-name="Path 9146" d="M66,100.175a15,15,0,1,1,12.99-22.5L72.5,81.427a7.5,7.5,0,1,0,0,7.5l6.492,3.756A15.054,15.054,0,0,1,66,100.175Z" transform="translate(-51 -70.175)" fill="#fff"/>
      </g>
      <g id="Group_8079" data-name="Group 8079" transform="translate(32.5 22.82)">
        <path id="Path_9147" data-name="Path 9147" d="M226,156.842h-1.667v-1.667h-1.666v1.667H221v1.667h1.667v1.667h1.666v-1.667H226Z" transform="translate(-221 -155.175)" fill="#fff"/>
      </g>
      <g id="Group_8080" data-name="Group 8080" transform="translate(38.75 22.82)">
        <path id="Path_9148" data-name="Path 9148" d="M268.5,156.842h-1.667v-1.667h-1.666v1.667H263.5v1.667h1.667v1.667h1.666v-1.667H268.5Z" transform="translate(-263.5 -155.175)" fill="#fff"/>
      </g>
    </g>
  </g>
</svg>
