<svg xmlns="http://www.w3.org/2000/svg" width="175" height="70" viewBox="0 0 175 70">
  <g id="Group_8067" data-name="Group 8067" transform="translate(-424 -3858)">
    <rect id="Rectangle_1683" data-name="Rectangle 1683" width="175" height="70" rx="35" transform="translate(424 3858)" fill="#545454"/>
    <g id="g849" transform="translate(459.125 3873.92)">
      <path id="path4" d="M617.241,140.582V129.769h4.532v10.971c0,1.829.954,3.021,3.18,3.021a2.842,2.842,0,0,0,3.1-3.1V129.769h4.532v10.812c0,4.214-2.544,6.758-7.632,6.758C619.785,147.419,617.241,144.875,617.241,140.582Zm17.411-6.678h4.055v1.829h.079a4.5,4.5,0,0,1,4.055-2.147c2.862,0,4.532,2.067,4.532,5.009V147.1h-4.214v-7.712a2.032,2.032,0,0,0-2.067-2.306c-1.352,0-2.305,1.193-2.305,2.783V147.1h-4.214V133.9Zm14.867-5.168h4.214v3.419h-4.214Zm0,5.168h4.214v13.118h-4.214Zm7.473,9.7v-6.281h-1.749V133.9h1.749V129.77h4.055V133.9h2.385v3.419h-2.385v5.406c0,1.034.556,1.272,1.431,1.272h.954v3.021a11.152,11.152,0,0,1-2.305.239C658.741,147.26,656.992,146.465,656.992,143.6Zm9.063,4.532h1.431c1.193,0,1.749-.477,1.749-1.352a8.1,8.1,0,0,0-.795-2.7l-3.9-10.1h4.373l1.749,5.565c.4,1.272.795,3.021.795,3.021h.08s.4-1.749.795-3.021l1.749-5.565H678.3l-4.532,13.277c-1.034,3.1-2.306,4.134-4.929,4.134h-2.7Z" transform="translate(-574.549 -119.832)" fill="#fff"/>
      <path id="path6" d="M33.788,26.712V8.9L18.365,0V6.837l6.042,3.5c.239.159.239.477,0,.557l-7.155,4.134a.606.606,0,0,1-.636,0L9.461,10.892a.306.306,0,0,1,0-.557l6.042-3.5V0L0,8.9V26.712l5.883-3.419v-7a.376.376,0,0,1,.477-.318l7.155,4.134a.6.6,0,0,1,.318.557v8.268a.376.376,0,0,1-.477.318l-6.042-3.5L1.431,29.177l15.423,8.984,15.423-8.9-5.883-3.419-6.042,3.5c-.239.159-.477,0-.477-.318V20.75a.669.669,0,0,1,.318-.557l7.155-4.134c.239-.159.477,0,.477.318v7Z" fill="#fff"/>
      <path id="path8" d="M243.678,157.992l15.423-8.9-5.883-3.419-6.042,3.5c-.238.159-.477,0-.477-.318v-8.268a.669.669,0,0,1,.318-.557l7.155-4.134c.238-.159.477,0,.477.318v7l5.883,3.419V128.736l-16.854,9.779Z" transform="translate(-226.824 -119.832)" fill="#fff"/>
      <path id="path10" d="M18.365,0V6.837l6.042,3.5c.239.159.239.477,0,.557l-7.155,4.134a.606.606,0,0,1-.636,0L9.461,10.892a.306.306,0,0,1,0-.557l6.042-3.5V0L0,8.9l16.854,9.779L33.709,8.9Z" fill="#fff"/>
      <path id="path12" d="M13.436,149.168l-6.042-3.5-5.883,3.419,15.423,8.9V138.515L0,128.736v17.808l5.883-3.419v-7a.376.376,0,0,1,.477-.318l7.155,4.134a.6.6,0,0,1,.318.557v8.268c.08.318-.159.557-.4.4Z" transform="translate(0 -119.832)" fill="#fff"/>
    </g>
  </g>
</svg>
