<svg xmlns="http://www.w3.org/2000/svg" width="63" height="25" viewBox="0 0 63 25">
  <g id="Group_7641" data-name="Group 7641" transform="translate(-1159 -4474)">
    <path id="xbox-svgrepo-com" d="M13.48,4.679A14.435,14.435,0,0,0,8.093,2.808L8.016,2.8c-.058,0-.126-.007-.195-.007a2.851,2.851,0,0,0-1.4.367l.014-.007A12.3,12.3,0,0,1,13.444.98h.051a12.417,12.417,0,0,1,7.075,2.2l-.042-.027a2.8,2.8,0,0,0-1.383-.36q-.106,0-.21.007h.009a14.667,14.667,0,0,0-5.533,1.912l.068-.037ZM4.787,4.549a.391.391,0,0,0-.092.045h0A12.494,12.494,0,0,0,3.77,21.354l-.018-.023C2.292,18.617,7.48,10.966,10.085,7.883,7.148,4.953,5.694,4.5,5.08,4.5H5.053a.752.752,0,0,0-.271.05l0,0ZM16.878,7.883c2.6,3.084,7.8,10.742,6.329,13.45a12.492,12.492,0,0,0-.945-16.739l0,0a.328.328,0,0,0-.083-.043h0A.835.835,0,0,0,21.9,4.5h-.012c-.617,0-2.068.452-5,3.381ZM5.253,22.889a12.5,12.5,0,0,0,16.472-.012l-.014.012C23.666,20.9,17.215,13.818,13.48,11,9.749,13.819,3.294,20.9,5.253,22.89Z" transform="translate(1196.02 4473.02)" fill="#fff"/>
    <g id="play-station-logo-svgrepo-com" transform="translate(1159 4474)">
      <path id="Path_32" data-name="Path 32" d="M10.456,23.415l-.036,2.452a9.9,9.9,0,0,1-4.543.739c-3.136-.04-5.912-.973-5.878-3s5.192-4.245,10.384-5.178V21.27L4.867,22.827s-.944,1.288.325,1.325A16.279,16.279,0,0,0,10.456,23.415Zm8.04-6.737a2.853,2.853,0,0,0,2.884,1.169c.748-.085,2.883-2.961,1.513-7.4s-11.32-6.229-11.32-6.229v22.9l4.578,2.1L16.223,8.5,18.5,9.513v7.165Zm4.651,2.57a17.646,17.646,0,0,0-5.769,1.441c-.025.014,0,2.416,0,2.416l6.958-1.752,2.453,1.168-9.445,3.546v2.685s10.78-3.739,12.366-5.178S26,18.548,23.147,19.248Z" transform="translate(0 -4.219)" fill="#fff"/>
    </g>
  </g>
</svg>
