<svg xmlns="http://www.w3.org/2000/svg" width="175" height="70" viewBox="0 0 175 70">
  <g id="Group_8066" data-name="Group 8066" transform="translate(-424 -3858)">
    <rect id="Rectangle_1683" data-name="Rectangle 1683" width="175" height="70" rx="35" transform="translate(424 3858)"/>
    <g id="Unreal_Engine_Logo" transform="translate(-568.216 3534.112)">
      <g id="Group_8071" data-name="Group 8071" transform="translate(1019.333 339.507)">
        <g id="Group_8070" data-name="Group 8070" transform="translate(43.888 10.34)">
          <path id="Path_9114" data-name="Path 9114" d="M174.27,492.269H168.3V486.79h5.876V488H169.9v.933h4.05v1.145H169.9v.944h4.37v1.247Zm0,0" transform="translate(-150.259 -474.215)" fill="#fff" fill-rule="evenodd"/>
          <path id="Path_9115" data-name="Path 9115" d="M463.966,492.912H458.09V487.52h5.785v1.189h-4.21v.918h3.986v1.126h-3.986v.929h4.3v1.228Zm0,0" transform="translate(-405.607 -474.858)" fill="#fff" fill-rule="evenodd"/>
          <path id="Path_9116" data-name="Path 9116" d="M233.207,492.269h-2.415l-3.18-4.1h-.031v4.1H226V486.79h2.454l3.141,4.1h.031v-4.1h1.584v5.479Zm0,0" transform="translate(-201.101 -474.215)" fill="#fff" fill-rule="evenodd"/>
          <path id="Path_9117" data-name="Path 9117" d="M394.214,492.269H391.8l-3.181-4.1h-.031v4.1H387V486.79h2.454l3.141,4.1h.031v-4.1h1.588Zm0,0" transform="translate(-342.966 -474.215)" fill="#fff" fill-rule="evenodd"/>
          <path id="Path_9118" data-name="Path 9118" d="M300.09,492.271q-.759,0-1.307-.038a4.9,4.9,0,0,1-.94-.14,1.794,1.794,0,0,1-.626-.294,1.234,1.234,0,0,1-.376-.487,2.487,2.487,0,0,1-.187-.729,9.564,9.564,0,0,1-.046-1.013v-.16a9.321,9.321,0,0,1,.049-1.02,2.488,2.488,0,0,1,.183-.732,1.254,1.254,0,0,1,.377-.486,1.746,1.746,0,0,1,.628-.288,4.9,4.9,0,0,1,.938-.139q.553-.036,1.307-.036h.238q.632,0,1.108.027a5.712,5.712,0,0,1,.817.1,1.988,1.988,0,0,1,.565.2,1.008,1.008,0,0,1,.357.317,1.218,1.218,0,0,1,.179.462,3.489,3.489,0,0,1,.05.629v.21h-1.545v-.067a.762.762,0,0,0-.058-.314.43.43,0,0,0-.227-.2,1.653,1.653,0,0,0-.475-.107q-.307-.03-.808-.031h-.135q-.455,0-.777.015a2.974,2.974,0,0,0-.536.068.9.9,0,0,0-.339.151.581.581,0,0,0-.188.265,1.571,1.571,0,0,0-.078.416c-.012.165-.018.364-.018.594v.1c0,.227.006.421.018.582a1.532,1.532,0,0,0,.078.408.574.574,0,0,0,.188.263.9.9,0,0,0,.339.151,2.985,2.985,0,0,0,.536.068q.322.017.777.016h.135c.247,0,.46,0,.638-.013s.329-.024.452-.043a1.133,1.133,0,0,0,.292-.082.445.445,0,0,0,.17-.133.432.432,0,0,0,.08-.187,1.551,1.551,0,0,0,.019-.252v-.152h-2.1v-1.058h3.629v1.217a4.106,4.106,0,0,1-.051.693,1.482,1.482,0,0,1-.185.515,1.1,1.1,0,0,1-.357.357,1.921,1.921,0,0,1-.574.227,5.253,5.253,0,0,1-.832.119c-.323.024-.7.036-1.129.036Zm0,0" transform="translate(-263.317 -474.145)" fill="#fff" fill-rule="evenodd"/>
          <path id="Path_9119" data-name="Path 9119" d="M365.3,492.679H363.69V487.24H365.3Zm0,0" transform="translate(-322.426 -474.612)" fill="#fff" fill-rule="evenodd"/>
          <path id="Path_9120" data-name="Path 9120" d="M22.236,390.8q-1.165,0-2.042-.063a9.43,9.43,0,0,1-1.514-.213,3.608,3.608,0,0,1-1.054-.409,2.055,2.055,0,0,1-.667-.647,2.581,2.581,0,0,1-.351-.925,6.7,6.7,0,0,1-.1-1.253v-6.18h2.817v5.268q0,.488.034.839a2.029,2.029,0,0,0,.139.594.967.967,0,0,0,.3.4,1.47,1.47,0,0,0,.524.238,4.03,4.03,0,0,0,.8.119c.319.018.7.027,1.137.027H22.5q.66,0,1.136-.031a4.541,4.541,0,0,0,.8-.113,1.41,1.41,0,0,0,.524-.238,1.008,1.008,0,0,0,.3-.4,1.992,1.992,0,0,0,.14-.594q.033-.357.033-.832V381.11h2.818v6.18a7.312,7.312,0,0,1-.1,1.249,2.554,2.554,0,0,1-.341.928,2.031,2.031,0,0,1-.66.647,3.578,3.578,0,0,1-1.052.409,9.43,9.43,0,0,1-1.52.213q-.885.062-2.062.063Z" transform="translate(-16.506 -381.095)" fill="#fff" fill-rule="evenodd"/>
          <path id="Path_9121" data-name="Path 9121" d="M144.035,390.585h-4.212l-5.546-7.167h-.055v7.167H131.46V381h4.279l5.478,7.174h.053V381h2.762v9.581Zm0,0" transform="translate(-117.797 -380.999)" fill="#fff" fill-rule="evenodd"/>
          <path id="Path_9122" data-name="Path 9122" d="M260.411,385.829c.486,0,.872-.014,1.161-.044a1.571,1.571,0,0,0,.656-.187.649.649,0,0,0,.292-.391,2.626,2.626,0,0,0,.069-.664v-.165a2.589,2.589,0,0,0-.069-.656.618.618,0,0,0-.3-.385,1.649,1.649,0,0,0-.66-.179c-.289-.03-.673-.044-1.154-.044H256.9v2.716Zm5.016,4.746h-2.784V389.8a6.636,6.636,0,0,0-.033-.723,1.47,1.47,0,0,0-.144-.512.876.876,0,0,0-.305-.336,1.538,1.538,0,0,0-.521-.2,5.06,5.06,0,0,0-.8-.093q-.475-.025-1.127-.025H256.9v2.662H254.11v-9.585h7.432a10.559,10.559,0,0,1,1.925.145,2.749,2.749,0,0,1,1.189.485,1.75,1.75,0,0,1,.6.9,4.951,4.951,0,0,1,.166,1.386v.336a4.93,4.93,0,0,1-.088.988,2.149,2.149,0,0,1-.286.729,1.665,1.665,0,0,1-.51.505,2.428,2.428,0,0,1-.769.3v.055a4.118,4.118,0,0,1,.826.21,1.108,1.108,0,0,1,.508.378,1.526,1.526,0,0,1,.252.657,6.485,6.485,0,0,1,.068,1.038v1.465Zm0,0" transform="translate(-225.87 -380.988)" fill="#fff" fill-rule="evenodd"/>
          <path id="Path_9123" data-name="Path 9123" d="M375.131,390.585H364.72V381h10.247v2.119h-7.458v1.629h7.063v2h-7.063V388.4h7.622v2.18Zm0,0" transform="translate(-323.334 -380.999)" fill="#fff" fill-rule="evenodd"/>
          <path id="Path_9124" data-name="Path 9124" d="M465.98,386.969l-1.953-3.845h-.069l-1.939,3.845Zm4.93,3.72h-3.038l-.878-1.72h-5.975l-.864,1.72H457.14l5.145-9.579h3.457Zm0,0" transform="translate(-404.77 -381.095)" fill="#fff" fill-rule="evenodd"/>
          <path id="Path_9125" data-name="Path 9125" d="M590.918,390.689H581.69V381.11h2.817v7.356h6.411v2.229Zm0,0" transform="translate(-514.517 -381.095)" fill="#fff" fill-rule="evenodd"/>
        </g>
        <path id="Path_9126" data-name="Path 9126" d="M261.512,87.377h0a11.8,11.8,0,0,1-6.559,7.984l-1.9-2.139-3.209,3.228a11.852,11.852,0,0,1-9.373-4.808,4.621,4.621,0,0,0,1.051.2.956.956,0,0,0,1.095-1.07V82.064a1.433,1.433,0,0,0-1.8-1.435c-1.486.34-2.674,4.049-2.674,4.049a11.872,11.872,0,0,1,10.1-11.819,4.623,4.623,0,0,0-2.535,3.7c0,2.031,1.227,1.791,1.59,1.492V89.809a1.9,1.9,0,0,0,.238.415,1.734,1.734,0,0,0,1.423.718,5.758,5.758,0,0,0,2.823-1.4V80.02a3.286,3.286,0,0,0-1.461-2.539,3.382,3.382,0,0,1,2.4.56h0a8.823,8.823,0,0,1,.625-.688,11.782,11.782,0,0,1,6.638-3.406h0S256.5,76.68,256.5,80.341c0,2.725.07,9.37.07,9.37C257.862,90.954,259.779,89.159,261.512,87.377Z" transform="translate(-230.615 -65.253)" fill="#fff" fill-rule="evenodd"/>
        <path id="Path_9127" data-name="Path 9127" d="M194.24,8.48a19.381,19.381,0,1,0,19.382,19.381A19.381,19.381,0,0,0,194.24,8.48Zm0,37.986A18.606,18.606,0,1,1,212.845,27.86,18.607,18.607,0,0,1,194.24,46.466Z" transform="translate(-174.86 -8.48)" fill="#fff" fill-rule="evenodd"/>
      </g>
    </g>
  </g>
</svg>
