<svg xmlns="http://www.w3.org/2000/svg" width="60" height="60" viewBox="0 0 60 60">
  <g id="Group_531" data-name="Group 531" transform="translate(-678 -5700)">
    <circle id="Ellipse_14" data-name="Ellipse 14" cx="30" cy="30" r="30" transform="translate(678 5700)" fill="#fff2e8"/>
    <g id="early-education-learning-abc-cubes-play-svgrepo-com" transform="translate(692.197 5711.196)">
      <rect id="Rectangle_2705" data-name="Rectangle 2705" width="15" height="15" transform="translate(1.803 16.803)" fill="none" stroke="#f48120" stroke-linecap="round" stroke-linejoin="round" stroke-miterlimit="10" stroke-width="1"/>
      <rect id="Rectangle_2706" data-name="Rectangle 2706" width="15" height="15" transform="translate(16.803 16.803)" fill="none" stroke="#f48120" stroke-linecap="round" stroke-linejoin="round" stroke-miterlimit="10" stroke-width="1"/>
      <rect id="Rectangle_2707" data-name="Rectangle 2707" width="15" height="15" transform="translate(5.803 1.803)" fill="none" stroke="#f48120" stroke-linecap="round" stroke-linejoin="round" stroke-miterlimit="10" stroke-width="1"/>
      <path id="Path_9188" data-name="Path 9188" d="M5,27.459,9.23,19l4.23,8.459" transform="translate(0.172 0.976)" fill="none" stroke="#f48120" stroke-linecap="round" stroke-linejoin="round" stroke-miterlimit="10" stroke-width="1"/>
      <line id="Line_48" data-name="Line 48" x2="5" transform="translate(6.803 24.803)" fill="none" stroke="#f48120" stroke-linecap="round" stroke-linejoin="round" stroke-miterlimit="10" stroke-width="1"/>
      <path id="Path_9189" data-name="Path 9189" d="M16.4,6.48A3.964,3.964,0,0,0,13.23,5a4.23,4.23,0,0,0,0,8.459,3.964,3.964,0,0,0,3.172-1.48" transform="translate(0.402 0.172)" fill="none" stroke="#f48120" stroke-linecap="round" stroke-linejoin="round" stroke-miterlimit="10" stroke-width="1"/>
      <path id="Path_9190" data-name="Path 9190" d="M24.23,23.23H20V19h4.23a2.121,2.121,0,0,1,2.115,2.115h0A2.121,2.121,0,0,1,24.23,23.23Z" transform="translate(1.033 0.976)" fill="none" stroke="#f48120" stroke-linecap="round" stroke-linejoin="round" stroke-miterlimit="10" stroke-width="1"/>
      <path id="Path_9191" data-name="Path 9191" d="M24.23,27.23H20V23h4.23a2.121,2.121,0,0,1,2.115,2.115h0A2.121,2.121,0,0,1,24.23,27.23Z" transform="translate(1.033 1.205)" fill="none" stroke="#f48120" stroke-linecap="round" stroke-linejoin="round" stroke-miterlimit="10" stroke-width="1"/>
    </g>
  </g>
</svg>
