<svg xmlns="http://www.w3.org/2000/svg" width="30" height="25.304" viewBox="0 0 30 25.304">
  <g id="gamification" transform="translate(0 -40.076)">
    <path id="Path_9119" data-name="Path 9119" d="M22.822,226.9H7.178a7.178,7.178,0,1,0,5.984,11.143h3.674A7.178,7.178,0,1,0,22.822,226.9Zm0,12.506a5.322,5.322,0,0,1-4.442-2.387l-.549-.827H12.17l-.549.827a5.327,5.327,0,1,1-4.443-8.268H22.822a5.327,5.327,0,0,1,0,10.655Z" transform="translate(0 -175.876)" fill="#fff"/>
    <path id="Path_9120" data-name="Path 9120" d="M244.83,44.226a1.013,1.013,0,0,1,.08-.4,1.032,1.032,0,0,1,.371-.451,1.025,1.025,0,0,1,.969-.094,1.026,1.026,0,0,1,.451.371,1.011,1.011,0,0,1,.174.572,2.523,2.523,0,0,0,5.045,0v-4.15h-1.5v4.15a1.011,1.011,0,0,1-.08.4,1.033,1.033,0,0,1-.371.451,1.027,1.027,0,0,1-.969.094,1.028,1.028,0,0,1-.45-.371,1.017,1.017,0,0,1-.175-.571,2.493,2.493,0,0,0-.2-.983,2.523,2.523,0,0,0-4.847.983v6.135h1.5V44.226Z" transform="translate(-229.072)" fill="#fff"/>
    <path id="Path_9121" data-name="Path 9121" d="M71.8,293.338H69.872v2.214H67.658v1.929h2.214v2.214H71.8v-2.214h2.214v-1.929H71.8Z" transform="translate(-63.694 -238.422)" fill="#fff"/>
    <path id="Path_9122" data-name="Path 9122" d="M369.528,284.1a1.19,1.19,0,1,0,1.683,0A1.19,1.19,0,0,0,369.528,284.1Z" transform="translate(-347.548 -229.397)" fill="#fff"/>
    <path id="Path_9123" data-name="Path 9123" d="M324.176,329.451a1.19,1.19,0,1,0,1.683,0A1.19,1.19,0,0,0,324.176,329.451Z" transform="translate(-304.853 -272.091)" fill="#fff"/>
    <path id="Path_9124" data-name="Path 9124" d="M369.522,374.8a1.19,1.19,0,1,0,1.683,0A1.189,1.189,0,0,0,369.522,374.8Z" transform="translate(-347.542 -314.779)" fill="#fff"/>
    <path id="Path_9125" data-name="Path 9125" d="M416.549,329.452a1.19,1.19,0,1,0,0,1.683A1.19,1.19,0,0,0,416.549,329.452Z" transform="translate(-390.229 -272.092)" fill="#fff"/>
  </g>
</svg>
