<?xml version="1.0" encoding="UTF-8"?><svg id="Layer_1" xmlns="http://www.w3.org/2000/svg" viewBox="0 0 60 60"><defs><style>.cls-1,.cls-2{fill:none;}.cls-1,.cls-3{stroke-width:0px;}.cls-2{stroke:#fff;stroke-linecap:round;stroke-linejoin:round;}.cls-3{fill:#f48120;}</style></defs><circle class="cls-3" cx="30" cy="30" r="30"/><path class="cls-1" d="M45.87,47.05v5.58c0,.73-.64,1.37-1.37,1.37H14.94c-.73,0-1.37-.64-1.37-1.37v-1.19c1.65-2.01,3.02-3.93,4.12-5.76h26.81c.73,0,1.37.64,1.37,1.37Z"/><line class="cls-2" x1="15.35" y1="32.5" x2="16.35" y2="32.5"/><line class="cls-2" x1="15.35" y1="35.6" x2="16.35" y2="35.6"/><line class="cls-2" x1="19.25" y1="32.5" x2="20.25" y2="32.5"/><line class="cls-2" x1="19.25" y1="35.6" x2="20.25" y2="35.6"/><line class="cls-2" x1="23.05" y1="32.5" x2="24.05" y2="32.5"/><line class="cls-2" x1="23.05" y1="35.6" x2="24.05" y2="35.6"/><circle class="cls-2" cx="36.75" cy="34" r="1.7"/><line class="cls-2" x1="15.35" y1="45.4" x2="16.35" y2="45.4"/><line class="cls-2" x1="15.35" y1="48.5" x2="16.35" y2="48.5"/><line class="cls-2" x1="19.25" y1="45.4" x2="20.25" y2="45.4"/><line class="cls-2" x1="19.25" y1="48.5" x2="20.25" y2="48.5"/><line class="cls-2" x1="23.05" y1="45.4" x2="24.05" y2="45.4"/><line class="cls-2" x1="23.05" y1="48.5" x2="24.05" y2="48.5"/><line class="cls-2" x1="26.85" y1="45.4" x2="27.85" y2="45.4"/><line class="cls-2" x1="26.85" y1="48.5" x2="27.85" y2="48.5"/><line class="cls-2" x1="30.75" y1="45.4" x2="31.75" y2="45.4"/><line class="cls-2" x1="30.75" y1="48.5" x2="31.57" y2="48.5"/><path class="cls-2" d="M37.25,15c1.7,5.9-3.6,11.2-9.5,9.5-2.4-.7-4.4-2.6-5.1-5.1-1.7-5.9,3.6-11.2,9.5-9.5,2.5.7,4.4,2.6,5.1,5.1Z"/><ellipse class="cls-2" cx="29.95" cy="17.2" rx="3.5" ry="7.6"/><path class="cls-2" d="M23.85,12.6c.9.3,1.9.6,3,.8,1,.2,2,.3,3.1.3s2.1-.1,3.1-.3c1.1-.2,2.1-.4,3-.8M36.05,21.8c-.9-.3-1.9-.6-3-.8-1-.2-2-.3-3.1-.3s-2.1.1-3.1.3c-1.1.2-2.1.4-3,.8"/><line class="cls-2" x1="29.95" y1="9.6" x2="29.95" y2="24.8"/><line class="cls-2" x1="37.55" y1="17.2" x2="22.35" y2="17.2"/><path class="cls-2" d="M29.95,36l-9.4-10.6c-4.4-5-4.2-12.5.5-17.2h0c4.9-4.9,12.9-4.9,17.8,0h0c4.7,4.7,4.9,12.2.5,17.2l-9.4,10.6Z"/><circle class="cls-2" cx="42.85" cy="46.9" r="1.7"/><circle class="cls-2" cx="36.75" cy="46.9" r="1.7"/><circle class="cls-2" cx="42.85" cy="34" r="1.7"/><path class="cls-2" d="M47.65,43.9v6.1c0,.8-.7,1.5-1.5,1.5H13.85c-.8,0-1.5-.7-1.5-1.5v-6.1c0-.8.7-1.5,1.5-1.5h32.2c.9,0,1.6.6,1.6,1.5ZM24.15,29.4h-10.3c-.8,0-1.5.7-1.5,1.5v6.1c0,.8.7,1.5,1.5,1.5h32.2c.8,0,1.5-.7,1.5-1.5v-6.1c0-.8-.7-1.5-1.5-1.5h-10.2"/></svg>