<svg xmlns="http://www.w3.org/2000/svg" xmlns:xlink="http://www.w3.org/1999/xlink" width="40" height="40" viewBox="0 0 40 40">
  <defs>
    <linearGradient id="linear-gradient" x1="0.5" x2="0.5" y2="1" gradientUnits="objectBoundingBox">
      <stop offset="0" stop-color="#feaa49"/>
      <stop offset="1" stop-color="#f80"/>
    </linearGradient>
  </defs>
  <g id="pie-chart-2-svgrepo-com" transform="translate(-2 -2.409)">
    <path id="Path_7560" data-name="Path 7560" d="M10.621,6.079A19.394,19.394,0,0,1,13.469,4.5c2.8-1.254,4.2-1.882,6.065-.675S21.4,7.017,21.4,10.977V14.04c0,3.85,0,5.775,1.2,6.971s3.121,1.2,6.971,1.2h3.063c3.96,0,5.94,0,7.147,1.863s.58,3.264-.675,6.065A19.4,19.4,0,1,1,10.621,6.079Z" transform="translate(0 0.805)" fill="url(#linear-gradient)"/>
    <path id="Path_7561" data-name="Path 7561" d="M29.2,11.923A16.387,16.387,0,0,0,19.984,2.7C16.837,1.465,14,4.316,14,7.7v8.167a2.042,2.042,0,0,0,2.042,2.042h8.167C27.592,17.908,30.443,15.071,29.2,11.923Z" transform="translate(12.501 0)" fill="url(#linear-gradient)"/>
  </g>
</svg>
