<svg xmlns="http://www.w3.org/2000/svg" width="17.87" height="17.75" viewBox="0 0 17.87 17.75">
  <g id="graph-up" transform="translate(-4.75 -4.25)">
    <path id="Path_7404" data-name="Path 7404" d="M21.75,21.25H10.143A4.643,4.643,0,0,1,5.5,16.607V5" transform="translate(0)" fill="none" stroke="#fff" stroke-linecap="round" stroke-linejoin="round" stroke-width="1.5"/>
    <path id="Path_7405" data-name="Path 7405" d="M16.9,7.25a.871.871,0,1,0,0,1.741Zm4.5,1.741a.871.871,0,1,0,0-1.741Zm.871-.871a.871.871,0,0,0-1.741,0Zm-1.741,4.187a.871.871,0,1,0,1.741,0Zm1.54-3.63A.871.871,0,0,0,20.74,7.564ZM16.767,13.7l.585.645a.877.877,0,0,0,.084-.088Zm-1.821.071-.539.683.006,0Zm-1.218-.961.539-.683,0,0Zm-1.952.212-.67-.556-.025.032Zm-.149.176.621.61.013-.014ZM7.865,15.791A.871.871,0,0,0,9.108,17.01Zm9.04-6.8h4.5V7.25H16.9Zm3.634-.871v4.187H22.28V8.121Zm.2-.557L16.1,13.143l1.338,1.114,4.643-5.579Zm-4.558,5.491a.548.548,0,0,1-.7.027l-1.066,1.377a2.289,2.289,0,0,0,2.939-.114Zm-.7.032-1.218-.961-1.079,1.367,1.218.961Zm-1.222-.965a2.281,2.281,0,0,0-3.157.344l1.34,1.111a.54.54,0,0,1,.747-.081Zm-3.182.375a1.257,1.257,0,0,1-.088.1l1.269,1.192a3.027,3.027,0,0,0,.209-.248Zm-.075.091-3.141,3.2L9.108,17.01l3.141-3.2Z" transform="translate(0.34 0.362)" fill="#fff"/>
  </g>
</svg>
