<svg width="80" height="80" viewBox="0 0 80 80" fill="none" xmlns="http://www.w3.org/2000/svg">
<g clip-path="url(#clip0_1_299)">
<path d="M40 80C62.0914 80 80 62.0914 80 40C80 17.9086 62.0914 0 40 0C17.9086 0 0 17.9086 0 40C0 62.0914 17.9086 80 40 80Z" fill="#FFF2E8"/>
<path d="M56.6865 35.7441H66.3356C66.5701 35.7441 66.7599 35.5544 66.7599 35.3198V31.3027C67.4721 31.1151 68 30.4727 68 29.7016C68 28.7835 67.2558 28.0394 66.3379 28.0394C65.4199 28.0394 64.6758 28.7835 64.6758 29.7016C64.6758 30.4711 65.2013 31.1121 65.9113 31.3014V34.8955H56.6865V17.4894C56.6865 15.7723 55.2362 14.375 53.4536 14.375H27.8081C26.0205 14.375 24.5661 15.7723 24.5661 17.4894V19.9591H23.9719C23.7374 19.9591 23.5476 20.1489 23.5476 20.3834V25.1362C23.5476 25.3708 23.7374 25.5605 23.9719 25.5605H24.5661V27.7244H24.1335C23.899 27.7244 23.7092 27.9142 23.7092 28.1487V32.9007C23.7092 33.1353 23.899 33.325 24.1335 33.325H24.5661V34.8955H15.774V31.302C16.4849 31.1135 17.0116 30.4718 17.0116 29.7016C17.0116 28.7835 16.2674 28.0394 15.3495 28.0394C14.4315 28.0394 13.6875 28.7835 13.6875 29.7016C13.6875 30.4719 14.2142 31.1137 14.9253 31.3021V35.3198C14.9253 35.5544 15.1151 35.7441 15.3496 35.7441H24.5661V42.6167L18.9417 42.6026C18.7542 41.8901 18.1117 41.3621 17.3404 41.3621C16.4224 41.3621 15.6782 42.1062 15.6782 43.0242C15.6782 43.9421 16.4224 44.6863 17.3404 44.6863C18.1097 44.6863 18.7506 44.1609 18.9401 43.4512L24.5661 43.4653V49.0979L15.353 49.033H15.3496C15.2378 49.033 15.13 49.077 15.0505 49.1565C14.9701 49.2361 14.9253 49.3446 14.9253 49.4573V53.4125C14.2142 53.6009 13.6875 54.2427 13.6875 55.013C13.6875 55.9311 14.4315 56.6752 15.3495 56.6752C16.2674 56.6752 17.0116 55.9311 17.0116 55.013C17.0116 54.2428 16.4849 53.6011 15.774 53.4125V49.885L24.5661 49.9466V63.367C24.5661 65.104 26.096 66.4839 27.8081 66.4839H53.4552C55.3116 66.4839 56.6865 64.9648 56.6865 63.367V63.3645C56.6865 60.0481 56.6865 53.4948 56.6865 49.9467L65.9113 49.8842V53.4131C65.2013 53.6024 64.6758 54.2435 64.6758 55.013C64.6758 55.9311 65.4199 56.6752 66.3379 56.6752C67.2558 56.6752 68 55.9311 68 55.013C68 54.2419 67.4721 53.5994 66.7599 53.4118V49.4573C66.7599 49.2237 66.5707 49.033 66.3356 49.033H66.3331L56.6865 49.0981V43.4732L62.7476 43.4521C62.9373 44.1613 63.578 44.6863 64.3471 44.6863C65.2649 44.6863 66.0092 43.9421 66.0092 43.0242C66.0092 42.1062 65.2649 41.3621 64.3471 41.3621C63.5753 41.3621 62.9324 41.8906 62.7454 42.6034L56.6865 42.6246V35.7441ZM25.4147 17.4894C25.4147 16.2397 26.4888 15.2236 27.8081 15.2236H35.4851L35.6678 15.5708C35.9691 16.1431 36.6631 16.5146 37.4312 16.5146H43.3539C44.8898 16.5146 45.2204 15.3111 45.3002 15.2236H53.4536C54.768 15.2236 55.8379 16.2397 55.8379 17.4894V61.7459C55.8379 62.9982 54.7688 64.0167 53.4552 64.0167H27.8081C26.4896 64.0167 25.4172 62.9982 25.4172 61.7459C25.4172 61.7415 25.4148 61.7379 25.4147 61.7335C25.4147 60.0183 25.4147 16.0855 25.4147 17.4894Z" fill="#F48120"/>
<path d="M30.9093 61.8396H50.3516C51.7621 61.8396 52.9099 60.6917 52.9099 59.2812V20.7115C52.9099 19.301 51.7621 18.1532 50.3516 18.1532H30.9093C29.4988 18.1532 28.351 19.301 28.351 20.7115V59.2812C28.351 60.6917 29.4988 61.8396 30.9093 61.8396ZM29.1996 20.7115C29.1996 19.7684 29.9662 19.0018 30.9093 19.0018H50.3516C51.2947 19.0018 52.0613 19.7684 52.0613 20.7115V59.2812C52.0613 60.2243 51.2947 60.9909 50.3516 60.9909H30.9093C29.9662 60.9909 29.1996 60.2243 29.1996 59.2812V20.7115Z" fill="#F48120"/>
<path d="M37.2023 38.8496L36.4215 40.6063H37.983L37.2023 38.8496Z" fill="#F48120"/>
<path d="M31.0072 43.4324C30.4726 43.7378 30.2859 44.4337 30.5999 44.9769L31.7032 46.8778C32.0086 47.4209 32.696 47.6076 33.2476 47.2936L34.7158 46.445C35.6917 47.4209 36.9052 48.1338 38.2546 48.5157V50.1025C38.2546 50.722 38.7638 51.2313 39.3832 51.2313H41.5897C42.2261 51.2313 42.7269 50.722 42.7269 50.1025V48.5157C44.7042 47.9481 46.0519 46.6116 46.2317 46.4873L48.0139 47.5228C48.5654 47.8368 49.2528 47.6501 49.5583 47.1069L50.6616 45.2059C50.9756 44.6629 50.7889 43.9669 50.2542 43.6615C50.1693 43.6122 48.357 42.5592 48.4722 42.6261C48.8175 41.1673 48.7767 39.7967 48.4552 38.5103C48.5412 38.4605 50.126 37.5438 50.0251 37.6022C50.5683 37.2968 50.7549 36.6009 50.441 36.0662L49.3293 34.1568C49.0237 33.6137 48.3279 33.427 47.7847 33.7325L46.1808 34.666C45.2218 33.7325 44.0422 33.0536 42.7269 32.6802V30.7538C42.7269 30.1258 42.2261 29.6251 41.5897 29.6251H39.3832C38.7638 29.6251 38.2546 30.1258 38.2546 30.7538V32.6802C35.9951 33.3153 35.1631 34.5556 34.911 34.5556L33.2476 33.5882C32.696 33.2658 32.0086 33.4695 31.7032 34.004L30.5999 35.9134C30.2859 36.4482 30.4726 37.1355 31.0072 37.4495C31.0929 37.4998 32.6693 38.425 32.5688 38.366C32.183 39.7156 32.1906 41.2156 32.5008 42.5668C32.4158 42.6161 30.9114 43.488 31.0072 43.4324ZM44.3307 38.3491C44.3307 37.8378 45.0946 37.8394 45.0946 38.3491V41.8199C45.0946 42.3436 44.3307 42.35 44.3307 41.8199V38.3491ZM40.1385 38.3576C40.1385 38.1226 40.2748 38.001 40.5034 38.001H41.9546C42.9141 38.001 43.3719 38.5202 43.3719 39.274C43.3719 40.0288 42.9134 40.5469 41.9546 40.5469H40.8938V41.8199C40.8938 42.3566 40.1385 42.3456 40.1385 41.8199V38.3576ZM36.8035 38.2047C36.9429 37.8908 37.4488 37.8819 37.5926 38.2047L39.2304 41.7181C39.4302 42.1168 38.8118 42.4078 38.6025 41.9897L38.2461 41.2004H36.167L35.8105 41.9897C35.6278 42.3545 35.1316 42.1751 35.1316 41.8708C35.1316 41.7277 35.1427 41.7958 36.8035 38.2047Z" fill="#F48120"/>
<path d="M42.6504 39.2824C42.6504 38.8242 42.3874 38.5951 41.8613 38.5951H40.8938V39.9614H41.8613C42.3874 39.9614 42.6504 39.7407 42.6504 39.2824Z" fill="#F48120"/>
</g>
<defs>
<clipPath id="clip0_1_299">
<rect width="80" height="80" fill="white"/>
</clipPath>
</defs>
</svg>
