<svg width="45" height="45" viewBox="0 0 45 45" fill="none" xmlns="http://www.w3.org/2000/svg">
<g clip-path="url(#clip0_4_90)">
<path d="M45 22.5C45 10.0736 34.9264 0 22.5 0C10.0736 0 0 10.0736 0 22.5C0 34.9264 10.0736 45 22.5 45C34.9264 45 45 34.9264 45 22.5Z" fill="url(#paint0_linear_4_90)"/>
<path d="M35 28.5206V22.4999C35 22.2238 34.7761 21.9999 34.5 21.9999H34V18.8206C34 17.8185 33.3646 16.9229 32.4189 16.5917L25.9242 14.3183L27.3786 12.8638C27.5739 12.6686 27.5739 12.352 27.3786 12.1568L27.0251 11.8032L28.0858 10.7425C28.2811 10.5473 28.2811 10.2307 28.0858 10.0355L29.8535 8.2677C30.0488 8.07245 30.0488 7.75588 29.8535 7.56063L28.4393 6.14644C28.2441 5.95119 27.9275 5.95119 27.7323 6.14644L25.9645 7.9142C25.7693 7.71894 25.4527 7.71894 25.2574 7.9142L24.1968 8.97489L23.8432 8.62132C23.6479 8.42607 23.3314 8.42607 23.1361 8.62132L17.8402 13.9173L16.9811 13.0582C16.4801 12.5571 15.6648 12.5571 15.1638 13.0582L14.3047 13.9173C14.1094 14.1125 14.1094 14.4291 14.3047 14.6243L13.686 15.2431C13.2474 15.6817 13.2474 16.3955 13.686 16.8341L14.2163 17.3644C14.4356 17.5837 14.7237 17.6934 15.0118 17.6934C15.2999 17.6934 15.588 17.5838 15.8073 17.3644L16.426 16.7457L16.7796 17.0992L16.1609 17.7179C15.9484 17.9304 15.8314 18.2129 15.8314 18.5134C15.8314 18.8139 15.9484 19.0964 16.1609 19.3089L16.6912 19.8392C16.9105 20.0586 17.1986 20.1682 17.4867 20.1682C17.7748 20.1682 18.0629 20.0586 18.2822 19.8392L18.9009 19.2206L19.2544 19.5741L18.6357 20.1928C18.197 20.6314 18.197 21.3452 18.6357 21.7838L19.166 22.3141C19.3853 22.5335 19.6734 22.6431 19.9615 22.6431C20.2495 22.6431 20.5377 22.5334 20.757 22.3141L21.3757 21.6954C21.4734 21.7931 21.6013 21.8419 21.7293 21.8419C21.8573 21.8419 21.9852 21.7931 22.0829 21.6954L22.9421 20.8363C23.4431 20.3352 23.4431 19.5201 22.9421 19.0191L22.0829 18.1599L23.6119 16.631L27.6256 19.2107C28.092 19.5104 28.3113 20.092 28.1588 20.6252L27.7659 21.9999H24.5C24.2239 21.9999 24 22.2238 24 22.4999V28.5H15V27.5H16.5C16.7761 27.5 17 27.2761 17 27V26H18C18.2761 26 18.5 25.7761 18.5 25.5V23.4999C18.5 23.2238 18.2761 22.9999 18 22.9999H9C8.72387 22.9999 8.5 23.2238 8.5 23.4999V25.5C8.5 25.7761 8.72387 26 9 26H10V27C10 27.2761 10.2239 27.5 10.5 27.5H12V28.5H9.30338C8.03325 28.5 7 29.5332 7 30.8034V32.1642C7 33.1764 7.82356 34 8.83588 34H11V35.5C11 35.7761 11.2239 36 11.5 36H14.5C14.6894 36 14.8625 35.893 14.9472 35.7236L15.809 34H28.191L29.0528 35.7236C29.1375 35.893 29.3106 36 29.5 36H32.5C32.7761 36 33 35.7761 33 35.5V34H35.1641C36.1764 34 37 33.1764 37 32.1641V30.8033C37 29.6361 36.1271 28.6696 35 28.5206ZM28.0858 7.20694L28.7929 7.91407L27.3787 9.32826L26.6716 8.62114L28.0858 7.20694ZM25.6109 8.97476L27.0251 10.389L26.318 11.0961L24.9037 9.68189L25.6109 8.97476ZM15.1001 16.6572C15.0512 16.706 14.972 16.7059 14.9233 16.6572L14.3929 16.1269C14.3442 16.0782 14.3442 15.9989 14.3929 15.9501L15.0116 15.3314L15.7188 16.0385L15.1001 16.6572ZM17.5749 19.1321C17.5262 19.1808 17.4469 19.1808 17.3981 19.1321L16.8678 18.6018C16.8191 18.5531 16.8191 18.4737 16.8678 18.425L17.4865 17.8063L18.1936 18.5134L17.5749 19.1321ZM20.0498 21.607C20.001 21.6557 19.9218 21.6557 19.873 21.607L19.3427 21.0767C19.2939 21.0279 19.2939 20.9486 19.3427 20.8999L19.9614 20.2812L20.6685 20.9883L20.0498 21.607ZM22.2348 19.7261C22.3459 19.8372 22.3459 20.018 22.2348 20.1291L21.7292 20.6347L15.3652 14.2707L15.8708 13.7652C15.9819 13.654 16.1628 13.654 16.2739 13.7652L22.2348 19.7261ZM21.3756 17.4527L18.5472 14.6243L23.4896 9.68189L26.318 12.5103L21.3756 17.4527ZM28.166 18.3693L24.3354 15.9072L25.1394 15.1031L32.0886 17.5355C32.6337 17.7265 33 18.2429 33 18.8206V21.9999H28.8059L29.1201 20.8999C29.3972 19.9311 29.0138 18.9141 28.166 18.3693ZM25 22.9999H34V28.5H32.5V27.5C32.5 25.8458 31.1542 24.5 29.5 24.5C27.8458 24.5 26.5 25.8458 26.5 27.5V28.5H25V22.9999ZM31.5 27.5V28.5H27.5V27.5C27.5 26.3971 28.3972 25.5 29.5 25.5C30.6028 25.5 31.5 26.3971 31.5 27.5ZM9.5 25V23.9999H17.5V25H9.5ZM11 26.5V26H16V26.5H11ZM14 27.5V28.5H13V27.5H14ZM14.191 35H12V34H14.691L14.191 35ZM32 35H29.809L29.309 34H32V35ZM36 32.1641C36 32.625 35.625 33 35.1641 33H8.83588C8.375 33 8 32.625 8 32.1641V32H36V32.1641ZM36 31H8V30.8034C8 30.0847 8.58469 29.5 9.30338 29.5H34.6967C35.4154 29.5 36.0001 30.0847 36.0001 30.8034V31H36Z" fill="white"/>
</g>
<defs>
<linearGradient id="paint0_linear_4_90" x1="22" y1="-3.29812e-07" x2="22" y2="45" gradientUnits="userSpaceOnUse">
<stop stop-color="#353535"/>
<stop offset="0.122222" stop-color="#323232"/>
<stop offset="1" stop-color="#1B1B1B"/>
</linearGradient>
<clipPath id="clip0_4_90">
<rect width="45" height="45" fill="white"/>
</clipPath>
</defs>
</svg>
