<svg width="45" height="45" viewBox="0 0 45 45" fill="none" xmlns="http://www.w3.org/2000/svg">
<g clip-path="url(#clip0_4_90)">
<path d="M45 22.5C45 10.0736 34.9264 0 22.5 0C10.0736 0 0 10.0736 0 22.5C0 34.9264 10.0736 45 22.5 45C34.9264 45 45 34.9264 45 22.5Z" fill="url(#paint0_linear_4_90)"/>
<path d="M24.3705 20.7102H25.6567C25.784 20.7041 25.9112 20.7245 26.0308 20.7703C26.1505 20.8161 26.2602 20.8862 26.3536 20.9766C26.4469 21.0671 26.5221 21.1761 26.5746 21.2972C26.6271 21.4182 26.656 21.549 26.6594 21.6818C26.6596 21.8097 26.6345 21.9361 26.5857 22.0535C26.537 22.1707 26.4656 22.2763 26.376 22.3636C26.1857 22.5501 25.9342 22.6538 25.673 22.6534H23.2153C23.0346 22.6534 22.8613 22.7282 22.7336 22.8614C22.6058 22.9946 22.5341 23.1753 22.5341 23.3636C22.5341 23.552 22.6058 23.7327 22.7336 23.8659C22.8613 23.999 23.0346 24.0739 23.2153 24.0739H24.3052V25.2898C24.3052 25.4781 24.3769 25.6588 24.5047 25.792C24.6324 25.9252 24.8057 26 24.9864 26C25.1671 26 25.3403 25.9252 25.468 25.792C25.5958 25.6588 25.6676 25.4781 25.6676 25.2898V24.0739C26.2781 24.0726 26.8643 23.824 27.3025 23.3807C27.5224 23.1598 27.6974 22.8951 27.8173 22.6023C27.9371 22.3094 27.9993 21.9945 28 21.6761C27.9914 21.0347 27.7395 20.4228 27.2993 19.9745C26.8591 19.5263 26.2665 19.278 25.6513 19.2841H24.3705C24.118 19.2902 23.8733 19.1922 23.6897 19.0114C23.506 18.8305 23.3982 18.5814 23.3897 18.3182C23.3894 18.1909 23.4139 18.0648 23.4617 17.9476C23.5094 17.8305 23.5795 17.7245 23.6675 17.6364C23.8581 17.446 24.1121 17.34 24.376 17.3409H26.8175C26.9981 17.3409 27.1714 17.2661 27.2991 17.1329C27.4269 16.9997 27.4987 16.819 27.4987 16.6307C27.4987 16.4423 27.4269 16.2616 27.2991 16.1285C27.1714 15.9953 26.9981 15.9205 26.8175 15.9205H25.6948V14.7102C25.6948 14.5219 25.6231 14.3412 25.4953 14.208C25.3676 14.0748 25.1943 14 25.0136 14C24.8329 14 24.6597 14.0748 24.532 14.208C24.4042 14.3412 24.3324 14.5219 24.3324 14.7102V15.9261C23.7225 15.9253 23.1362 16.1719 22.6975 16.6136C22.4776 16.8345 22.3026 17.0992 22.1827 17.392C22.0629 17.6849 22.0007 17.9998 22 18.3182C22.0035 18.638 22.0678 18.9539 22.1891 19.2477C22.3105 19.5414 22.4864 19.8072 22.7069 20.0296C22.9273 20.252 23.1878 20.4267 23.4734 20.5435C23.7589 20.6603 24.0639 20.717 24.3705 20.7102Z" fill="white"/>
<path d="M28.3182 27H20.6818C20.501 27 20.3275 27.0527 20.1997 27.1464C20.0718 27.2402 20 27.3674 20 27.5C20 27.6326 20.0718 27.7598 20.1997 27.8536C20.3275 27.9473 20.501 28 20.6818 28H28.3182C28.499 28 28.6725 27.9473 28.8003 27.8536C28.9282 27.7598 29 27.6326 29 27.5C29 27.3674 28.9282 27.2402 28.8003 27.1464C28.6725 27.0527 28.499 27 28.3182 27Z" fill="white"/>
<path d="M28.3182 30H20.6818C20.501 30 20.3275 30.0527 20.1997 30.1464C20.0718 30.2402 20 30.3674 20 30.5C20 30.6326 20.0718 30.7598 20.1997 30.8536C20.3275 30.9473 20.501 31 20.6818 31H28.3182C28.499 31 28.6725 30.9473 28.8003 30.8536C28.9282 30.7598 29 30.6326 29 30.5C29 30.3674 28.9282 30.2402 28.8003 30.1464C28.6725 30.0527 28.499 30 28.3182 30Z" fill="white"/>
<path d="M30.8682 9.00227H10.8057C10.7726 8.99924 10.7394 8.99924 10.7063 9.00227C9.42653 9.10374 8.23141 9.69066 7.35918 10.6461C6.48696 11.6015 6.00165 12.8552 6 14.1574V29.6227C6.00146 30.6863 6.41862 31.7059 7.16002 32.4579C7.90142 33.21 8.90657 33.6332 9.95504 33.6347H14.816V38.2967C14.816 38.4268 14.8517 38.5543 14.9191 38.6649C14.9865 38.7756 15.083 38.865 15.1977 38.9232C15.3124 38.9813 15.4408 39.006 15.5685 38.9943C15.6962 38.9826 15.8182 38.9351 15.9208 38.8571L20.2072 35.5959L24.4937 38.8571C24.6125 38.9497 24.7581 39 24.908 39C25.0578 39 25.2035 38.9497 25.3223 38.8571L29.6087 35.5959L33.8952 38.8571C34.014 38.9495 34.1599 38.9988 34.3095 38.9971C34.4004 38.9979 34.4905 38.9803 34.5746 38.9453C34.6587 38.9104 34.7351 38.8589 34.7994 38.7936C34.8637 38.7285 34.9145 38.651 34.9489 38.5656C34.9834 38.4803 35.0007 38.3889 35 38.2967V13.188C34.9985 12.0774 34.5625 11.0127 33.7878 10.2279C33.0131 9.44309 31.963 9.00227 30.8682 9.00227ZM7.38095 29.6395V14.1742C7.38095 13.1741 7.77262 12.2149 8.4698 11.5076C9.16696 10.8004 10.1125 10.4031 11.0985 10.4031C12.0844 10.4031 13.03 10.8004 13.7271 11.5076C14.4243 12.2149 14.816 13.1741 14.816 14.1742V32.2507H9.95504C9.27236 32.2507 8.61762 31.9756 8.13488 31.4859C7.65215 30.9962 7.38095 30.332 7.38095 29.6395ZM33.619 36.9239L30.023 34.1894C29.9035 34.0985 29.7582 34.0494 29.6087 34.0494C29.4593 34.0494 29.314 34.0985 29.1945 34.1894L24.919 37.4562L20.6326 34.1951C20.5127 34.105 20.3675 34.0564 20.2183 34.0564C20.0691 34.0564 19.9239 34.105 19.804 34.1951L16.1969 36.8959V14.1742C16.1964 13.4661 16.0519 12.7658 15.7724 12.1169C15.493 11.4681 15.0847 10.8847 14.5729 10.4031H30.8682C31.6007 10.4031 32.3032 10.6983 32.8211 11.2237C33.3391 11.7491 33.6301 12.4618 33.6301 13.2048L33.619 36.9239Z" fill="white"/>
</g>
<defs>
<linearGradient id="paint0_linear_4_90" x1="22" y1="-3.29812e-07" x2="22" y2="45" gradientUnits="userSpaceOnUse">
<stop stop-color="#353535"/>
<stop offset="0.122222" stop-color="#323232"/>
<stop offset="1" stop-color="#1B1B1B"/>
</linearGradient>
<clipPath id="clip0_4_90">
<rect width="45" height="45" fill="white"/>
</clipPath>
</defs>
</svg>
