<svg width="45" height="45" viewBox="0 0 45 45" fill="none" xmlns="http://www.w3.org/2000/svg">
<g clip-path="url(#clip0_4_90)">
<path d="M45 22.5C45 10.0736 34.9264 0 22.5 0C10.0736 0 0 10.0736 0 22.5C0 34.9264 10.0736 45 22.5 45C34.9264 45 45 34.9264 45 22.5Z" fill="url(#paint0_linear_4_90)"/>
<path d="M8.44971 22.6986H13.31V12.626C13.3108 11.933 13.5864 11.2687 14.0765 10.7787C14.5665 10.2888 15.2309 10.0132 15.9238 10.0125H34.3862C35.0792 10.0132 35.7435 10.2888 36.2336 10.7787C36.7236 11.2687 36.9992 11.933 37 12.626V24.4948C36.9993 25.1877 36.7237 25.8521 36.2337 26.342C35.7437 26.832 35.0794 27.1076 34.3865 27.1083H32.0298V29.9622C32.0324 30.2006 31.9629 30.4342 31.8305 30.6323C31.698 30.8305 31.5088 30.9841 31.2876 31.0729C31.1395 31.1351 30.9806 31.1674 30.82 31.1678C30.6631 31.1672 30.5078 31.1355 30.3632 31.0745C30.2186 31.0135 30.0876 30.9244 29.9777 30.8123L26.2737 27.1083H21.6152V31.7981C21.6148 32.2703 21.427 32.7231 21.0931 33.057C20.7592 33.391 20.3065 33.5788 19.8343 33.5793H13.5223L11.2881 35.8138C11.2038 35.8985 11.1037 35.9656 10.9934 36.0114C10.8831 36.0572 10.7648 36.0807 10.6454 36.0807C10.5254 36.0805 10.4066 36.0569 10.2957 36.0111C10.1291 35.9424 9.98673 35.8257 9.88663 35.6758C9.78652 35.526 9.73321 35.3498 9.73345 35.1696V33.5793H8.44971C7.97749 33.5788 7.52477 33.391 7.19088 33.057C6.85699 32.7231 6.66922 32.2703 6.66875 31.7981V24.4799C6.66921 24.0077 6.85699 23.5549 7.19087 23.221C7.52476 22.887 7.97749 22.6992 8.44971 22.6986ZM26.4566 26.2249C26.5737 26.2249 26.6861 26.2715 26.7689 26.3543L30.6023 30.1877C30.6469 30.2322 30.7037 30.2626 30.7655 30.2749C30.8273 30.2871 30.8914 30.2808 30.9496 30.2567C31.0079 30.2326 31.0576 30.1917 31.0927 30.1393C31.1277 30.0869 31.1464 30.0253 31.1464 29.9622V26.6666C31.1464 26.5495 31.193 26.4371 31.2758 26.3543C31.3586 26.2715 31.471 26.2249 31.5881 26.2249H34.3865C34.8452 26.2244 35.285 26.042 35.6093 25.7176C35.9336 25.3933 36.1161 24.9535 36.1166 24.4948V12.626C36.1161 12.1673 35.9336 11.7275 35.6092 11.4031C35.2848 11.0788 34.845 10.8964 34.3862 10.8959H15.9238C15.4651 10.8964 15.0253 11.0788 14.7009 11.4031C14.3765 11.7275 14.194 12.1673 14.1935 12.626V22.6986H19.8343C20.3064 22.6991 20.7591 22.8869 21.093 23.2207C21.4268 23.5545 21.6147 24.0071 21.6152 24.4793V26.2249L26.4566 26.2249ZM7.55219 31.7981C7.55239 32.0361 7.64701 32.2643 7.81528 32.4326C7.98355 32.6009 8.21171 32.6956 8.44971 32.6959H10.1752C10.2923 32.6959 10.4046 32.7425 10.4875 32.8253C10.5703 32.9082 10.6169 33.0205 10.6169 33.1376L10.6635 35.1892L13.0271 32.8253C13.1099 32.7425 13.2222 32.6959 13.3394 32.6959H19.8343C20.0723 32.6956 20.3005 32.6009 20.4687 32.4326C20.637 32.2643 20.7316 32.0361 20.7318 31.7981V24.4793C20.7315 24.2414 20.6368 24.0133 20.4686 23.8451C20.3003 23.6769 20.0722 23.5823 19.8343 23.5821H8.44971C8.21171 23.5823 7.98354 23.677 7.81527 23.8454C7.647 24.0137 7.55239 24.2419 7.55219 24.4799V31.7981Z" fill="white"/>
<path d="M19.777 19.7654V17.3555C19.7774 17.0959 19.8806 16.8472 20.0641 16.6636C20.2476 16.4801 20.4964 16.3769 20.7559 16.3766H22.9712V14.1611C22.9715 13.9016 23.0747 13.6528 23.2582 13.4693C23.4418 13.2857 23.6905 13.1825 23.9501 13.1822H26.3599C26.6195 13.1825 26.8682 13.2857 27.0518 13.4693C27.2353 13.6528 27.3385 13.9016 27.3388 14.1611V16.3766H29.5541C29.8136 16.3769 30.0624 16.4801 30.2459 16.6636C30.4294 16.8472 30.5326 17.0959 30.533 17.3555V19.7654C30.5326 20.0249 30.4294 20.2737 30.2459 20.4572C30.0624 20.6407 29.8136 20.744 29.5541 20.7443H27.3388V22.9592C27.3385 23.2187 27.2353 23.4675 27.0518 23.651C26.8682 23.8345 26.6195 23.9378 26.3599 23.9381H23.95C23.6905 23.9378 23.4417 23.8345 23.2582 23.651C23.0747 23.4675 22.9715 23.2187 22.9711 22.9592V20.7443H20.7559C20.4964 20.7439 20.2476 20.6407 20.0641 20.4572C19.8806 20.2737 19.7774 20.0249 19.777 19.7654ZM23.4129 19.8609C23.53 19.8609 23.6423 19.9074 23.7252 19.9903C23.808 20.0731 23.8545 20.1854 23.8546 20.3026V22.9592C23.8546 22.9717 23.857 22.9842 23.8618 22.9957C23.8666 23.0073 23.8737 23.0179 23.8825 23.0267C23.8914 23.0356 23.9019 23.0426 23.9135 23.0474C23.9251 23.0522 23.9375 23.0547 23.95 23.0547H26.3599C26.3725 23.0547 26.3849 23.0522 26.3965 23.0474C26.4081 23.0426 26.4186 23.0356 26.4275 23.0267C26.4363 23.0179 26.4434 23.0073 26.4482 22.9957C26.453 22.9842 26.4554 22.9717 26.4554 22.9592V20.3026C26.4554 20.1854 26.502 20.0731 26.5848 19.9902C26.6676 19.9074 26.78 19.8609 26.8971 19.8608H29.5541C29.5666 19.8608 29.579 19.8584 29.5906 19.8536C29.6022 19.8488 29.6127 19.8418 29.6216 19.8329C29.6304 19.824 29.6375 19.8135 29.6423 19.8019C29.6471 19.7903 29.6495 19.7779 29.6495 19.7654V17.3555C29.6495 17.3429 29.6471 17.3305 29.6423 17.3189C29.6375 17.3073 29.6304 17.2968 29.6216 17.2879C29.6127 17.2791 29.6022 17.272 29.5906 17.2672C29.579 17.2624 29.5666 17.26 29.5541 17.26H26.8971C26.78 17.26 26.6676 17.2134 26.5848 17.1306C26.502 17.0477 26.4554 16.9354 26.4554 16.8183V14.1611C26.4554 14.1485 26.453 14.1361 26.4482 14.1245C26.4434 14.1129 26.4363 14.1024 26.4275 14.0935C26.4186 14.0847 26.4081 14.0776 26.3965 14.0728C26.3849 14.0681 26.3725 14.0656 26.3599 14.0656H23.95C23.9375 14.0656 23.9251 14.0681 23.9135 14.0728C23.9019 14.0776 23.8914 14.0847 23.8825 14.0935C23.8737 14.1024 23.8666 14.1129 23.8618 14.1245C23.857 14.1361 23.8546 14.1485 23.8546 14.1611V16.8183C23.8545 16.9354 23.808 17.0477 23.7252 17.1306C23.6423 17.2134 23.53 17.26 23.4129 17.26H20.7559C20.7434 17.26 20.731 17.2624 20.7194 17.2672C20.7078 17.272 20.6973 17.2791 20.6884 17.2879C20.6795 17.2968 20.6725 17.3073 20.6677 17.3189C20.6629 17.3305 20.6604 17.3429 20.6604 17.3555V19.7654C20.6604 19.7779 20.6629 19.7903 20.6677 19.8019C20.6725 19.8135 20.6795 19.824 20.6884 19.8329C20.6973 19.8418 20.7078 19.8488 20.7194 19.8536C20.731 19.8584 20.7434 19.8609 20.7559 19.8609H23.4129Z" fill="white"/>
<path d="M10.0854 26.1018H18.1985C18.3157 26.1018 18.428 26.1484 18.5109 26.2312C18.5937 26.314 18.6403 26.4264 18.6403 26.5435C18.6403 26.6607 18.5937 26.773 18.5109 26.8559C18.428 26.9387 18.3157 26.9853 18.1985 26.9853H10.0854C9.96827 26.9853 9.85592 26.9387 9.77308 26.8559C9.69025 26.773 9.64371 26.6607 9.64371 26.5435C9.64371 26.4264 9.69025 26.314 9.77308 26.2312C9.85592 26.1484 9.96827 26.1018 10.0854 26.1018Z" fill="white"/>
<path d="M10.0854 29.2922H18.1985C18.3157 29.2922 18.428 29.3387 18.5109 29.4216C18.5937 29.5044 18.6403 29.6168 18.6403 29.7339C18.6403 29.8511 18.5937 29.9634 18.5109 30.0462C18.428 30.1291 18.3157 30.1756 18.1985 30.1756H10.0854C9.96827 30.1756 9.85592 30.1291 9.77308 30.0462C9.69025 29.9634 9.64371 29.8511 9.64371 29.7339C9.64371 29.6168 9.69025 29.5044 9.77308 29.4216C9.85592 29.3387 9.96827 29.2922 10.0854 29.2922Z" fill="white"/>
</g>
<defs>
<linearGradient id="paint0_linear_4_90" x1="22" y1="-3.29812e-07" x2="22" y2="45" gradientUnits="userSpaceOnUse">
<stop stop-color="#353535"/>
<stop offset="0.122222" stop-color="#323232"/>
<stop offset="1" stop-color="#1B1B1B"/>
</linearGradient>
<clipPath id="clip0_4_90">
<rect width="45" height="45" fill="white"/>
</clipPath>
</defs>
</svg>
