<svg width="45" height="45" viewBox="0 0 45 45" fill="none" xmlns="http://www.w3.org/2000/svg">
<g clip-path="url(#clip0_4_90)">
<path d="M45 22.5C45 10.0736 34.9264 0 22.5 0C10.0736 0 0 10.0736 0 22.5C0 34.9264 10.0736 45 22.5 45C34.9264 45 45 34.9264 45 22.5Z" fill="url(#paint0_linear_4_90)"/>
<path fill-rule="evenodd" clip-rule="evenodd" d="M20.763 33.1932H6.83973C6.60885 33.1932 6.42175 33.0061 6.42175 32.7752V28.9789C6.42175 26.6551 8.31228 24.7647 10.636 24.7647H16.9668C19.2906 24.7647 21.181 26.6552 21.181 28.9789V32.7752C21.181 33.0061 20.9938 33.1932 20.763 33.1932ZM7.25776 32.3571H20.345V28.9789C20.345 27.1161 18.8295 25.6007 16.9668 25.6007H10.636C8.7732 25.6007 7.25776 27.1161 7.25776 28.9789V32.3571Z" fill="white"/>
<path fill-rule="evenodd" clip-rule="evenodd" d="M9.51087 33.1932C9.27999 33.1932 9.0929 33.0061 9.0929 32.7751V29.7966C9.0929 29.5658 9.27999 29.3786 9.51087 29.3786C9.74182 29.3786 9.92892 29.5658 9.92892 29.7966V32.7751C9.92892 33.0061 9.74175 33.1932 9.51087 33.1932Z" fill="white"/>
<path fill-rule="evenodd" clip-rule="evenodd" d="M18.092 33.1932C17.861 33.1932 17.674 33.0061 17.674 32.7751V29.7966C17.674 29.5658 17.861 29.3786 18.092 29.3786C18.3229 29.3786 18.51 29.5658 18.51 29.7966V32.7751C18.51 33.0061 18.3228 33.1932 18.092 33.1932Z" fill="white"/>
<path fill-rule="evenodd" clip-rule="evenodd" d="M13.8014 24.1514C11.7792 24.1514 10.134 22.5063 10.134 20.4841C10.134 18.462 11.7792 16.8169 13.8014 16.8169C15.8236 16.8169 17.4688 18.462 17.4688 20.4841C17.4688 22.5063 15.8236 24.1514 13.8014 24.1514ZM13.8014 17.653C12.2402 17.653 10.9701 18.923 10.9701 20.4842C10.9701 22.0453 12.2403 23.3154 13.8014 23.3154C15.3626 23.3154 16.6327 22.0453 16.6327 20.4842C16.6327 18.923 15.3626 17.653 13.8014 17.653Z" fill="white"/>
<path fill-rule="evenodd" clip-rule="evenodd" d="M15.2637 25.6006H12.3393C12.1084 25.6006 11.9213 25.4135 11.9213 25.1826V23.3865C11.9213 23.2414 11.9966 23.1066 12.1202 23.0305C12.2439 22.9545 12.3981 22.9479 12.5277 23.0133C12.9248 23.2137 13.3535 23.3154 13.8016 23.3154C14.2497 23.3154 14.6783 23.2137 15.0754 23.0133C15.2051 22.9479 15.3593 22.9545 15.4829 23.0305C15.6065 23.1067 15.6818 23.2414 15.6818 23.3865V25.1827C15.6817 25.4135 15.4946 25.6006 15.2637 25.6006ZM12.7574 24.7646H14.8457V24.0011C14.5095 24.101 14.1603 24.1514 13.8015 24.1514C13.4428 24.1514 13.0935 24.101 12.7574 24.0011L12.7574 24.7646Z" fill="white"/>
<path fill-rule="evenodd" clip-rule="evenodd" d="M38.9319 33.1932H25.0086C24.7777 33.1932 24.5906 33.0061 24.5906 32.7752V28.9789C24.5906 26.6551 26.4812 24.7647 28.8049 24.7647H35.1357C37.4595 24.7647 39.35 26.6552 39.35 28.9789V32.7752C39.35 33.0061 39.1628 33.1932 38.9319 33.1932ZM25.4267 32.3571H38.5139V28.9789C38.5139 27.1161 36.9985 25.6007 35.1357 25.6007H28.8049C26.9421 25.6007 25.4267 27.1161 25.4267 28.9789V32.3571Z" fill="white"/>
<path fill-rule="evenodd" clip-rule="evenodd" d="M27.6798 33.1932C27.4489 33.1932 27.2617 33.0061 27.2617 32.7751V29.7966C27.2617 29.5658 27.4489 29.3786 27.6798 29.3786C27.9106 29.3786 28.0978 29.5658 28.0978 29.7966V32.7751C28.0978 33.0061 27.9106 33.1932 27.6798 33.1932Z" fill="white"/>
<path fill-rule="evenodd" clip-rule="evenodd" d="M36.261 33.1932C36.0301 33.1932 35.843 33.0061 35.843 32.7751V29.7966C35.843 29.5658 36.0301 29.3786 36.261 29.3786C36.4919 29.3786 36.679 29.5658 36.679 29.7966V32.7751C36.679 33.0061 36.4919 33.1932 36.261 33.1932Z" fill="white"/>
<path fill-rule="evenodd" clip-rule="evenodd" d="M31.9704 24.1514C29.9482 24.1514 28.3031 22.5063 28.3031 20.4841C28.3031 18.462 29.9482 16.8169 31.9704 16.8169C33.9925 16.8169 35.6378 18.462 35.6378 20.4841C35.6378 22.5063 33.9925 24.1514 31.9704 24.1514ZM31.9704 17.653C30.4092 17.653 29.1392 18.923 29.1392 20.4842C29.1392 22.0453 30.4092 23.3154 31.9704 23.3154C33.5316 23.3154 34.8017 22.0453 34.8017 20.4842C34.8017 18.923 33.5316 17.653 31.9704 17.653Z" fill="white"/>
<path fill-rule="evenodd" clip-rule="evenodd" d="M33.4326 25.6006H30.5081C30.2773 25.6006 30.0901 25.4135 30.0901 25.1826V23.3865C30.0901 23.2414 30.1654 23.1066 30.289 23.0305C30.4128 22.9544 30.567 22.9479 30.6965 23.0133C31.0937 23.2137 31.5223 23.3153 31.9704 23.3153C32.4185 23.3153 32.8472 23.2137 33.2443 23.0133C33.374 22.9479 33.5281 22.9544 33.6517 23.0305C33.7754 23.1067 33.8507 23.2414 33.8507 23.3865V25.1827C33.8506 25.4135 33.6635 25.6006 33.4326 25.6006ZM30.9263 24.7646H33.0146V24.0011C32.6784 24.101 32.3293 24.1514 31.9704 24.1514C31.6117 24.1514 31.2624 24.101 30.9264 24.0011L30.9263 24.7646Z" fill="white"/>
<path fill-rule="evenodd" clip-rule="evenodd" d="M21.3144 18.7133C21.2036 18.7133 21.0972 18.6693 21.0188 18.5909L18.6761 16.248H17.5354C17.0962 16.248 16.739 15.8908 16.739 15.4516V6.79649C16.739 6.35731 17.0963 6 17.5354 6H28.2366C28.6757 6 29.0329 6.35738 29.0329 6.79649V15.4516C29.0329 15.8908 28.6757 16.248 28.2366 16.248H23.953L21.61 18.5909C21.5316 18.6693 21.4254 18.7133 21.3144 18.7133ZM17.5751 15.4119H18.8492C18.9601 15.4119 19.0664 15.456 19.1449 15.5344L21.3145 17.7041L23.4843 15.5344C23.5627 15.456 23.6691 15.4119 23.7799 15.4119H28.1971V6.83603H17.5751L17.5751 15.4119Z" fill="white"/>
<path fill-rule="evenodd" clip-rule="evenodd" d="M26.6507 9.28925H19.1213C18.8903 9.28925 18.7032 9.10208 18.7032 8.8712C18.7032 8.64032 18.8903 8.45316 19.1213 8.45316H26.6507C26.8816 8.45316 27.0688 8.64032 27.0688 8.8712C27.0688 9.10208 26.8816 9.28925 26.6507 9.28925Z" fill="white"/>
<path fill-rule="evenodd" clip-rule="evenodd" d="M26.6507 11.542H19.1213C18.8903 11.542 18.7032 11.3549 18.7032 11.124C18.7032 10.8931 18.8903 10.7059 19.1213 10.7059H26.6507C26.8816 10.7059 27.0688 10.8931 27.0688 11.124C27.0688 11.3549 26.8816 11.542 26.6507 11.542Z" fill="white"/>
<path fill-rule="evenodd" clip-rule="evenodd" d="M26.6507 13.7947H19.1213C18.8903 13.7947 18.7032 13.6077 18.7032 13.3767C18.7032 13.1458 18.8903 12.9586 19.1213 12.9586L26.6507 12.9587C26.8816 12.9587 27.0688 13.1458 27.0688 13.3768C27.0688 13.6077 26.8816 13.7947 26.6507 13.7947Z" fill="white"/>
</g>
<defs>
<linearGradient id="paint0_linear_4_90" x1="22" y1="-3.29812e-07" x2="22" y2="45" gradientUnits="userSpaceOnUse">
<stop stop-color="#353535"/>
<stop offset="0.122222" stop-color="#323232"/>
<stop offset="1" stop-color="#1B1B1B"/>
</linearGradient>
<clipPath id="clip0_4_90">
<rect width="45" height="45" fill="white"/>
</clipPath>
</defs>
</svg>
