<svg width="45" height="45" viewBox="0 0 45 45" fill="none" xmlns="http://www.w3.org/2000/svg">
<g clip-path="url(#clip0_4_90)">
<path d="M45 22.5C45 10.0736 34.9264 0 22.5 0C10.0736 0 0 10.0736 0 22.5C0 34.9264 10.0736 45 22.5 45C34.9264 45 45 34.9264 45 22.5Z" fill="url(#paint0_linear_4_90)"/>
<path d="M11.9688 14.5625C11.0231 14.5625 10.0987 14.8429 9.31243 15.3683C8.52616 15.8937 7.91333 16.6404 7.55145 17.514C7.18957 18.3877 7.09489 19.3491 7.27937 20.2765C7.46386 21.204 7.91923 22.0559 8.5879 22.7246C9.25657 23.3933 10.1085 23.8486 11.036 24.0331C11.9634 24.2176 12.9248 24.1229 13.7985 23.761C14.6721 23.3992 15.4188 22.7863 15.9442 22.0001C16.4696 21.2138 16.75 20.2894 16.75 19.3438C16.7486 18.0761 16.2444 16.8608 15.3481 15.9644C14.4517 15.0681 13.2364 14.5639 11.9688 14.5625ZM11.9688 23.0625C11.2333 23.0625 10.5143 22.8444 9.90273 22.4358C9.29118 22.0272 8.81454 21.4464 8.53308 20.7669C8.25161 20.0873 8.17797 19.3396 8.32146 18.6183C8.46495 17.8969 8.81912 17.2343 9.3392 16.7142C9.85928 16.1941 10.5219 15.8399 11.2433 15.6965C11.9646 15.553 12.7123 15.6266 13.3919 15.9081C14.0714 16.1895 14.6522 16.6662 15.0608 17.2777C15.4694 17.8893 15.6875 18.6083 15.6875 19.3438C15.6864 20.3297 15.2942 21.2749 14.5971 21.9721C13.8999 22.6692 12.9547 23.0614 11.9688 23.0625Z" fill="white"/>
<path d="M11.9687 12.4375C10.325 12.4396 8.73598 13.0278 7.48713 14.0965C6.23829 15.1652 5.41155 16.6443 5.15549 18.2679C4.89944 19.8915 5.23087 21.5532 6.09021 22.9544C6.94955 24.3556 8.28046 25.4043 9.84373 25.9121V27.8438C9.84373 27.9846 9.89971 28.1198 9.99933 28.2194C10.099 28.319 10.2341 28.375 10.375 28.375V36.3438C10.375 36.4846 10.431 36.6198 10.5306 36.7194C10.6302 36.819 10.7653 36.875 10.9062 36.875H13.0312C13.1721 36.875 13.3073 36.819 13.4069 36.7194C13.5065 36.6198 13.5625 36.4846 13.5625 36.3438V28.375C13.7034 28.375 13.8385 28.319 13.9381 28.2194C14.0378 28.1198 14.0937 27.9846 14.0937 27.8438V25.9121C15.657 25.4043 16.9879 24.3556 17.8473 22.9544C18.7066 21.5532 19.038 19.8915 18.782 18.2679C18.5259 16.6443 17.6992 15.1652 16.4503 14.0965C15.2015 13.0278 13.6124 12.4396 11.9687 12.4375ZM12.5 35.8125H11.4375V28.375H12.5V35.8125ZM13.0312 26.25V27.3125H10.9062V26.25H13.0312ZM11.9687 25.1875C10.813 25.1875 9.68312 24.8448 8.72212 24.2026C7.76112 23.5605 7.01211 22.6479 6.56981 21.5801C6.12751 20.5123 6.01179 19.3373 6.23727 18.2037C6.46275 17.0701 7.01932 16.0289 7.83658 15.2116C8.65384 14.3943 9.6951 13.8378 10.8287 13.6123C11.9623 13.3868 13.1372 13.5025 14.205 13.9448C15.2728 14.3871 16.1855 15.1361 16.8276 16.0971C17.4698 17.0581 17.8125 18.188 17.8125 19.3438C17.8107 20.893 17.1944 22.3784 16.0989 23.4739C15.0034 24.5694 13.518 25.1857 11.9687 25.1875Z" fill="white"/>
<path d="M9.3125 19.3438H10.375C10.375 18.9211 10.5429 18.5157 10.8418 18.2168C11.1407 17.9179 11.5461 17.75 11.9688 17.75V16.6875C11.2645 16.6883 10.5894 16.9685 10.0914 17.4664C9.59347 17.9644 9.31334 18.6395 9.3125 19.3438Z" fill="white"/>
<path d="M24.7188 15.625H25.7812V14.5625H26.8438V13.5H25.7812V12.4375H24.7188V13.5H23.6562V14.5625H24.7188V15.625Z" fill="white"/>
<path d="M26.3125 16.6875H22.0625V17.75H26.3125V16.6875Z" fill="white"/>
<path d="M28.4375 18.8125H22.0625V19.875H28.4375V18.8125Z" fill="white"/>
<path d="M28.4375 16.6875H27.375V17.75H28.4375V16.6875Z" fill="white"/>
<path d="M23.125 20.9375H22.0625V22H23.125V20.9375Z" fill="white"/>
<path d="M28.4375 20.9375H24.1875V22H28.4375V20.9375Z" fill="white"/>
<path d="M33.2044 14.5625H31.6388V15.625H33.2044V14.5625Z" fill="white"/>
<path d="M32.6875 23.071V22H34.8125C34.9534 22 35.0885 21.944 35.1882 21.8444C35.2878 21.7448 35.3438 21.6097 35.3438 21.4688V8.71876C35.3438 8.57786 35.2878 8.44274 35.1882 8.34311C35.0885 8.24348 34.9534 8.18751 34.8125 8.18751H32.6344C32.5124 7.58704 32.1867 7.04719 31.7123 6.65943C31.2378 6.27167 30.644 6.05984 30.0312 6.05984C29.4185 6.05984 28.8247 6.27167 28.3502 6.65943C27.8758 7.04719 27.5501 7.58704 27.4281 8.18751H25.2713C25.2665 8.18751 25.2622 8.18751 25.2574 8.18751C25.2527 8.18751 25.2383 8.18751 25.2287 8.18751C24.6191 8.18867 24.0287 8.40104 23.5579 8.78847C23.0872 9.1759 22.7653 9.71446 22.6469 10.3125H20.4688C20.3279 10.3125 20.1927 10.3685 20.0931 10.4681C19.9935 10.5677 19.9375 10.7029 19.9375 10.8438V23.5938C19.9375 23.7347 19.9935 23.8698 20.0931 23.9694C20.1927 24.069 20.3279 24.125 20.4688 24.125H23.125V25.1875H22.776C20.3322 25.1875 18.3438 27.0299 18.3438 29.2941V37.4063C18.3438 37.5472 18.3997 37.6823 18.4993 37.7819C18.599 37.8815 18.7341 37.9375 18.875 37.9375H31.625C31.7659 37.9375 31.901 37.8815 32.0007 37.7819C32.1003 37.6823 32.1562 37.5472 32.1562 37.4063V36.3438H36.4062C36.5471 36.3438 36.6823 36.2878 36.7819 36.1882C36.8815 36.0885 36.9375 35.9534 36.9375 35.8125V27.1691C36.9375 24.9617 35.0468 23.1608 32.6875 23.071ZM31.625 23.0625H30.5625V22H31.625V23.0625ZM34.2812 20.9375H30.5625V19.875H33.2188V18.8125H30.5625V17.75H33.2188V16.6875H30.5625V12.4375H31.625V11.375H30.5625V10.8438C30.5625 10.7029 30.5065 10.5677 30.4069 10.4681C30.3073 10.3685 30.1721 10.3125 30.0312 10.3125H27.8568L27.8531 10.2987C27.8531 10.2902 27.8483 10.2817 27.8462 10.2727C27.8134 10.12 27.7668 9.97067 27.707 9.82641C27.7017 9.81313 27.6975 9.79879 27.6916 9.78551C27.6287 9.64109 27.5529 9.50259 27.4653 9.37166L27.4409 9.33501C27.4218 9.30738 27.4048 9.2771 27.3846 9.25001H34.2812V20.9375ZM30.0525 7.12501C30.3802 7.1254 30.6995 7.22796 30.9661 7.41841C31.2328 7.60885 31.4334 7.8777 31.54 8.18751H28.523C28.635 7.87281 28.8427 7.6011 29.1171 7.41053C29.3914 7.21996 29.7185 7.12011 30.0525 7.12501ZM25.2713 9.25001C25.3685 9.25078 25.4654 9.26057 25.5608 9.27923C25.5895 9.28454 25.6171 9.29304 25.6452 9.29995C25.7108 9.31588 25.7752 9.33611 25.8381 9.36051C25.8662 9.37113 25.8939 9.38229 25.921 9.39504C25.9871 9.426 26.051 9.4615 26.1122 9.50129C26.1287 9.51191 26.1457 9.52095 26.1622 9.5321C26.3222 9.64346 26.4604 9.78339 26.5696 9.94488C26.5739 9.95073 26.5776 9.95763 26.5813 9.96348C26.6326 10.042 26.6771 10.1248 26.7141 10.211L26.7226 10.2312C26.7338 10.2578 26.7386 10.287 26.7481 10.3146H23.7418C23.8534 9.99954 24.061 9.72737 24.3353 9.5364C24.6097 9.34542 24.937 9.24527 25.2713 9.25001ZM21 11.375H29.5V23.0625H21V11.375ZM24.1875 24.125H26.3125V25.1875H24.1875V24.125ZM31.0938 36.875H19.4062V29.2941C19.4062 27.6153 20.9177 26.25 22.776 26.25H27.724C29.5823 26.25 31.0938 27.6153 31.0938 29.2941V36.875ZM35.875 35.2813H32.1562V29.2941C32.1562 27.0299 30.1678 25.1875 27.724 25.1875H27.375V24.1309C27.4372 24.1271 27.4972 24.125 27.5572 24.125H32.5053C34.3636 24.125 35.875 25.4903 35.875 27.1691V35.2813Z" fill="white"/>
</g>
<defs>
<linearGradient id="paint0_linear_4_90" x1="22" y1="-3.29812e-07" x2="22" y2="45" gradientUnits="userSpaceOnUse">
<stop stop-color="#353535"/>
<stop offset="0.122222" stop-color="#323232"/>
<stop offset="1" stop-color="#1B1B1B"/>
</linearGradient>
<clipPath id="clip0_4_90">
<rect width="45" height="45" fill="white"/>
</clipPath>
</defs>
</svg>
