<svg width="45" height="45" viewBox="0 0 45 45" fill="none" xmlns="http://www.w3.org/2000/svg">
<g clip-path="url(#clip0_4_90)">
<path d="M45 22.5C45 10.0736 34.9264 0 22.5 0C10.0736 0 0 10.0736 0 22.5C0 34.9264 10.0736 45 22.5 45C34.9264 45 45 34.9264 45 22.5Z" fill="url(#paint0_linear_4_90)"/>
<path d="M34.1391 31.8787L31.2581 30.9182V30.1218C31.9187 29.6594 32.4184 28.9832 32.6542 28.1935H33.3226C34.1763 28.1935 34.871 27.4988 34.871 26.6452C34.871 26.1894 34.6692 25.7832 34.3549 25.4994V24.5806C34.3549 21.7347 32.0395 19.4194 29.1936 19.4194C29.0191 19.4194 28.8473 19.4286 28.6774 19.4457V9.09677C28.6774 7.3889 27.2885 6 25.5807 6H13.1936C11.4857 6 10.0968 7.3889 10.0968 9.09677V34.9032C10.0968 36.6111 11.4857 38 13.1936 38H35.3871C35.672 38 35.9033 37.7693 35.9033 37.4839V34.3267C35.9033 33.2145 35.1941 32.2302 34.1391 31.8787ZM32.2903 34.9032C32.2903 35.1881 32.0586 35.4194 31.7742 35.4194C31.4898 35.4194 31.2581 35.1881 31.2581 34.9032C31.2581 34.6183 31.4898 34.3871 31.7742 34.3871C32.0586 34.3871 32.2903 34.6183 32.2903 34.9032ZM30.2258 31.0766L29.1936 32.1089L28.1613 31.0766V30.7742V30.6219C28.4885 30.72 28.8349 30.7742 29.1936 30.7742C29.5523 30.7742 29.8986 30.72 30.2258 30.6219V31.0766ZM31.7742 27.1613C31.7742 28.5843 30.6165 29.7419 29.1936 29.7419C27.7706 29.7419 26.6129 28.5843 26.6129 27.1613V25.0968H28.6774C29.2932 25.0968 29.8475 24.8258 30.2258 24.3964C30.6042 24.8258 31.1585 25.0968 31.7742 25.0968V27.1613ZM33.3226 27.1613H32.8065V26.129H33.3226C33.607 26.129 33.8387 26.3603 33.8387 26.6452C33.8387 26.9301 33.607 27.1613 33.3226 27.1613ZM33.3226 24.5806V25.0968H32.8065V24.5806C32.8065 24.2952 32.5753 24.0645 32.2903 24.0645H31.7742C31.2049 24.0645 30.742 23.6015 30.742 23.0323C30.742 22.7468 30.5107 22.5161 30.2258 22.5161C29.9409 22.5161 29.7097 22.7468 29.7097 23.0323C29.7097 23.6015 29.2467 24.0645 28.6774 24.0645H26.0968C25.8119 24.0645 25.5807 24.2952 25.5807 24.5806V25.0968H25.0645V24.5806C25.0645 22.304 26.9169 20.4516 29.1936 20.4516C31.4702 20.4516 33.3226 22.304 33.3226 24.5806ZM25.5807 27.1613H25.0645C24.7802 27.1613 24.5484 26.9301 24.5484 26.6452C24.5484 26.3603 24.7802 26.129 25.0645 26.129H25.5807V27.1613ZM25.3257 21.1752C24.7925 21.7801 24.4008 22.5089 24.1964 23.3141C23.0129 24.7742 21.2694 25.6129 19.3871 25.6129C15.9719 25.6129 13.1936 22.8346 13.1936 19.4194C13.1936 16.0041 15.9719 13.2258 19.3871 13.2258C22.8023 13.2258 25.5807 16.0041 25.5807 19.4194C25.5807 20.0175 25.4934 20.607 25.3257 21.1752ZM26.5727 20.1425C26.5964 19.9025 26.6129 19.6619 26.6129 19.4194C26.6129 15.4348 23.3716 12.1935 19.3871 12.1935C15.4026 12.1935 12.1613 15.4348 12.1613 19.4194C12.1613 23.4039 15.4026 26.6452 19.3871 26.6452C21.1162 26.6452 22.7435 26.0366 24.0323 24.9492V25.4999C23.718 25.7832 23.5162 26.1899 23.5162 26.6457C23.5162 27.4994 24.2109 28.1941 25.0645 28.1941H25.7329C25.9688 28.9837 26.4684 29.6604 27.1291 30.1223V30.7742H11.1291V11.1613H27.6452V19.6573C27.2663 19.777 26.9087 19.9432 26.5727 20.1425ZM13.1936 7.03226H25.5807C26.7193 7.03226 27.6452 7.95819 27.6452 9.09677V10.129H11.1291V9.09677C11.1291 7.95819 12.055 7.03226 13.1936 7.03226ZM11.1291 34.9032V31.8065H24.4643L24.248 31.8787C23.1931 32.2302 22.4839 33.2145 22.4839 34.3267V36.9677H13.1936C12.055 36.9677 11.1291 36.0418 11.1291 34.9032ZM34.871 36.9677H23.5162V34.3267C23.5162 33.6594 23.9414 33.0689 24.5747 32.8573L26.0968 32.3499V33.4498C25.4976 33.6635 25.0645 34.2312 25.0645 34.9032V35.9355H26.0968V34.9032C26.0968 34.6183 26.3285 34.3871 26.6129 34.3871C26.8973 34.3871 27.1291 34.6183 27.1291 34.9032V35.9355H28.1613V34.9032C28.1613 34.2312 27.7283 33.6635 27.1291 33.4498V32.0062L27.5058 31.8808L28.8287 33.2036C28.9293 33.3043 29.0614 33.3548 29.1936 33.3548C29.3257 33.3548 29.4578 33.3043 29.5585 33.2036L30.8813 31.8808L31.2581 32.0062V33.4498C30.6589 33.6635 30.2258 34.2312 30.2258 34.9032C30.2258 35.7569 30.9205 36.4516 31.7742 36.4516C32.6279 36.4516 33.3226 35.7569 33.3226 34.9032C33.3226 34.2312 32.8896 33.6635 32.2903 33.4498V32.3499L33.8124 32.8573C34.4457 33.0689 34.871 33.6594 34.871 34.3267V36.9677Z" fill="white"/>
<path d="M20.4194 32.8387H18.3549C17.5012 32.8387 16.8065 33.5334 16.8065 34.3871C16.8065 35.2408 17.5012 35.9355 18.3549 35.9355H20.4194C21.2731 35.9355 21.9678 35.2408 21.9678 34.3871C21.9678 33.5334 21.2731 32.8387 20.4194 32.8387ZM20.4194 34.9032H18.3549C18.0705 34.9032 17.8388 34.672 17.8388 34.3871C17.8388 34.1022 18.0705 33.871 18.3549 33.871H20.4194C20.7038 33.871 20.9356 34.1022 20.9356 34.3871C20.9356 34.672 20.7038 34.9032 20.4194 34.9032Z" fill="white"/>
<path d="M20.9355 8.06451H17.8387V9.09677H20.9355V8.06451Z" fill="white"/>
<path d="M21.9678 21.4839H21.4517V17.871C21.4517 17.5856 21.2205 17.3548 20.9356 17.3548H17.3226C17.0377 17.3548 16.8065 17.5856 16.8065 17.871V19.9355C16.8065 20.2209 17.0377 20.4516 17.3226 20.4516H18.3549V21.4839H17.3226C17.0377 21.4839 16.8065 21.7146 16.8065 22V24.0645C16.8065 24.3499 17.0377 24.5806 17.3226 24.5806H21.9678C22.2527 24.5806 22.4839 24.3499 22.4839 24.0645V22C22.4839 21.7146 22.2527 21.4839 21.9678 21.4839ZM21.4517 23.5484H17.8388V22.5161H18.871C19.1559 22.5161 19.3872 22.2854 19.3872 22V19.9355C19.3872 19.6501 19.1559 19.4194 18.871 19.4194H17.8388V18.3871H20.4194V22C20.4194 22.2854 20.6506 22.5161 20.9356 22.5161H21.4517V23.5484Z" fill="white"/>
<path d="M19.3871 16.8387C20.2408 16.8387 20.9355 16.144 20.9355 15.2903C20.9355 14.4366 20.2408 13.7419 19.3871 13.7419C18.5335 13.7419 17.8387 14.4366 17.8387 15.2903C17.8387 16.144 18.5335 16.8387 19.3871 16.8387ZM19.3871 14.7742C19.6715 14.7742 19.9033 15.0054 19.9033 15.2903C19.9033 15.5752 19.6715 15.8064 19.3871 15.8064C19.1027 15.8064 18.871 15.5752 18.871 15.2903C18.871 15.0054 19.1027 14.7742 19.3871 14.7742Z" fill="white"/>
</g>
<defs>
<linearGradient id="paint0_linear_4_90" x1="22" y1="-3.29812e-07" x2="22" y2="45" gradientUnits="userSpaceOnUse">
<stop stop-color="#353535"/>
<stop offset="0.122222" stop-color="#323232"/>
<stop offset="1" stop-color="#1B1B1B"/>
</linearGradient>
<clipPath id="clip0_4_90">
<rect width="45" height="45" fill="white"/>
</clipPath>
</defs>
</svg>
