<svg xmlns="http://www.w3.org/2000/svg" xmlns:xlink="http://www.w3.org/1999/xlink" width="50" height="55" viewBox="0 0 50 55">
  <defs>
    <clipPath id="clip-path">
      <rect id="Rectangle_698" data-name="Rectangle 698" width="50" height="55" fill="none"/>
    </clipPath>
  </defs>
  <g id="Group_1174" data-name="Group 1174" transform="translate(0 0)">
    <path id="Line_128" data-name="Line 128" d="M3.28,1.617a.373.373,0,0,1-.139-.027L-.265.222A.374.374,0,0,1-.473-.265.374.374,0,0,1,.014-.473L3.419.894a.375.375,0,0,1-.14.722Z" transform="translate(21.431 40.021)" fill="#603813"/>
    <path id="Line_129" data-name="Line 129" d="M.483,3.484a.375.375,0,0,1-.368-.305L-.494-.056a.374.374,0,0,1,.3-.437.374.374,0,0,1,.437.3L.851,3.041a.375.375,0,0,1-.368.444Z" transform="translate(21.731 40.119)" fill="#603813"/>
    <path id="Line_130" data-name="Line 130" d="M1.633,2.261a.374.374,0,0,1-.282-.128L-.407.121A.374.374,0,0,1-.372-.407a.374.374,0,0,1,.528.035L1.915,1.64a.374.374,0,0,1-.282.621Z" transform="translate(22.023 40.25)" fill="#603813"/>
    <g id="Group_1173" data-name="Group 1173" transform="translate(0 0)">
      <g id="Group_1172" data-name="Group 1172" clip-path="url(#clip-path)">
        <path id="Path_2371" data-name="Path 2371" d="M54.7,15.97l9.581-.676s-6.055,1.494-7.953,2.23l-1.856.43Z" transform="translate(-14.28 -3.954)" fill="#603813"/>
        <path id="Path_2372" data-name="Path 2372" d="M37.673,22.615s-1.088-4.126,2.17-6.477c3.537-2.551,10.406-.262,10.406-.262l-.065,1.553a12.293,12.293,0,0,0-5.631,1.149,38.029,38.029,0,0,0-6.88,4.037" transform="translate(-9.83 -3.861)" fill="#faaf40"/>
        <path id="Path_2373" data-name="Path 2373" d="M50.246,18.3h1.693s-5.045,2.732-6.77,8.031l-7.433-2.846s6.391-5.5,12.511-5.185" transform="translate(-9.892 -4.727)" fill="#f05a28"/>
        <path id="Path_2374" data-name="Path 2374" d="M39.331,28.14s-.814,6.591-3.027,10.1c-2.292,3.637-6.858,8.858-20.833,10.428V44.049A59.933,59.933,0,0,0,25.8,41.607c4.6-1.658,8.984-11.34,6.1-16.313Z" transform="translate(-4.056 -6.539)" fill="#fff5eb"/>
        <path id="Path_2375" data-name="Path 2375" d="M31.9,25.294a14.3,14.3,0,0,1,1.888,10.119c-1.215,5.5-13.281,9.509-18.316,8.636,0,0,4.992-12.911,16.428-18.755" transform="translate(-4.056 -6.539)" fill="#faaf40"/>
        <path id="Path_2376" data-name="Path 2376" d="M11.585,50.588A23.664,23.664,0,0,0,14.58,62.539,11.8,11.8,0,0,1,10.109,58.7S8.46,65.985,7.375,68.078c0,0,.781-6.8.26-8.745,0,0-1.736,3.075-6.988,5.735,0,0,9.028-11.427,10.938-14.48" transform="translate(-0.17 -13.078)" fill="#603813"/>
        <path id="Path_2377" data-name="Path 2377" d="M28.838,19.264,7.54,0S5.89,11.866,13.963,17.228s14.874,2.035,14.874,2.035" transform="translate(-1.94 0)" fill="#a0c0e5"/>
        <path id="Path_2378" data-name="Path 2378" d="M26.9,22.429,0,12.5S2.858,24.133,12.336,26.1,26.9,22.429,26.9,22.429" transform="translate(0 -3.232)" fill="#a0c0e5"/>
        <path id="Path_2379" data-name="Path 2379" d="M29.447,23.511l.08-.082-.089-.082L10.159,16.232a13.286,13.286,0,0,0,4.527,5.193c7.476,4.966,13.857,2.481,14.761,2.087" transform="translate(-2.663 -4.197)" fill="#5fb0e2"/>
        <path id="Path_2380" data-name="Path 2380" d="M47.3,19.459a1.467,1.467,0,0,1,.982-1.593,3.068,3.068,0,0,1,2.367.366,7.022,7.022,0,0,1-1.679,1.351,1.591,1.591,0,0,1-1.67-.125" transform="translate(-12.397 -4.589)" fill="#eed6c3"/>
        <path id="Path_2381" data-name="Path 2381" d="M47.919,18.147a1.5,1.5,0,0,0-.618,1.415,1.62,1.62,0,0,0,1.33.258,1.034,1.034,0,0,0-.712-1.673" transform="translate(-12.397 -4.692)" fill="#603813"/>
      </g>
    </g>
  </g>
</svg>
