<svg xmlns="http://www.w3.org/2000/svg" xmlns:xlink="http://www.w3.org/1999/xlink" width="108.41" height="108.392" viewBox="0 0 108.41 108.392">
  <defs>
    <linearGradient id="linear-gradient" x1="0.5" x2="0.5" y2="1" gradientUnits="objectBoundingBox">
      <stop offset="0" stop-color="#f48120"/>
      <stop offset="1" stop-color="#ffd0a8"/>
    </linearGradient>
  </defs>
  <g id="noun-iaas-infrastructure-6614154" transform="translate(-2 -2)">
    <path id="Path_130" data-name="Path 130" d="M44.807,33.226a1.812,1.812,0,0,0,1.807-1.807V27.807a1.807,1.807,0,1,0-3.613,0V31.42A1.812,1.812,0,0,0,44.807,33.226Z" transform="translate(33.068 19.357)" fill="url(#linear-gradient)"/>
    <path id="Path_131" data-name="Path 131" d="M40.807,33.226a1.812,1.812,0,0,0,1.807-1.807V27.807a1.807,1.807,0,1,0-3.613,0V31.42A1.812,1.812,0,0,0,40.807,33.226Z" transform="translate(29.842 19.357)" fill="url(#linear-gradient)"/>
    <path id="Path_132" data-name="Path 132" d="M36.807,33.226a1.812,1.812,0,0,0,1.807-1.807V27.807a1.807,1.807,0,0,0-3.613,0V31.42A1.812,1.812,0,0,0,36.807,33.226Z" transform="translate(26.616 19.357)" fill="url(#linear-gradient)"/>
    <circle id="Ellipse_4" data-name="Ellipse 4" cx="3.678" cy="3.678" r="3.678" transform="translate(32.649 45.522)" fill="url(#linear-gradient)"/>
    <circle id="Ellipse_5" data-name="Ellipse 5" cx="3.678" cy="3.678" r="3.678" transform="translate(43.683 45.522)" fill="url(#linear-gradient)"/>
    <path id="Path_133" data-name="Path 133" d="M85.1,23.678a25.294,25.294,0,0,0-3.848.307,25.271,25.271,0,0,0-50.113,0,23.332,23.332,0,0,0-3.848-.307A25.286,25.286,0,0,0,17.572,72.31a1.81,1.81,0,1,0,1.391-3.342,21.67,21.67,0,0,1,13.4-41.081,1.846,1.846,0,0,0,1.5-.307,1.821,1.821,0,0,0,.723-1.355,21.648,21.648,0,0,1,43.248,0,1.8,1.8,0,0,0,2.222,1.662,21.675,21.675,0,0,1,13.4,41.081,1.814,1.814,0,0,0,.686,3.487,1.515,1.515,0,0,0,.686-.145,25.286,25.286,0,0,0-9.719-48.632Z" transform="translate(0 0)" fill="url(#linear-gradient)"/>
    <path id="Path_134" data-name="Path 134" d="M44.807,49.226a1.812,1.812,0,0,0,1.807-1.807V43.807a1.807,1.807,0,1,0-3.613,0V47.42A1.812,1.812,0,0,0,44.807,49.226Z" transform="translate(33.068 32.261)" fill="url(#linear-gradient)"/>
    <path id="Path_135" data-name="Path 135" d="M40.807,49.226a1.812,1.812,0,0,0,1.807-1.807V43.807a1.807,1.807,0,1,0-3.613,0V47.42A1.812,1.812,0,0,0,40.807,49.226Z" transform="translate(29.842 32.261)" fill="url(#linear-gradient)"/>
    <path id="Path_136" data-name="Path 136" d="M36.807,49.226a1.812,1.812,0,0,0,1.807-1.807V43.807a1.807,1.807,0,0,0-3.613,0V47.42A1.812,1.812,0,0,0,36.807,49.226Z" transform="translate(26.616 32.261)" fill="url(#linear-gradient)"/>
    <circle id="Ellipse_6" data-name="Ellipse 6" cx="3.678" cy="3.678" r="3.678" transform="translate(32.649 74.333)" fill="url(#linear-gradient)"/>
    <circle id="Ellipse_7" data-name="Ellipse 7" cx="3.678" cy="3.678" r="3.678" transform="translate(43.683 74.333)" fill="url(#linear-gradient)"/>
    <path id="Path_137" data-name="Path 137" d="M90.1,80.616a7.226,7.226,0,0,0-6.973,5.42H61.2a3.624,3.624,0,0,0-3.613-3.613H53.97V75.2H79.261a5.436,5.436,0,0,0,5.42-5.42V55.324a5.436,5.436,0,0,0-5.42-5.42V46.291a5.436,5.436,0,0,0,5.42-5.42V26.42A5.436,5.436,0,0,0,79.261,21h-54.2a5.436,5.436,0,0,0-5.42,5.42V40.872a5.436,5.436,0,0,0,5.42,5.42V49.9a5.436,5.436,0,0,0-5.42,5.42V69.776a5.436,5.436,0,0,0,5.42,5.42H50.357v7.226H46.744a3.624,3.624,0,0,0-3.613,3.613H21.2a7.226,7.226,0,1,0,0,3.613H43.131a3.624,3.624,0,0,0,3.613,3.613H57.583A3.624,3.624,0,0,0,61.2,89.648H83.127A7.216,7.216,0,1,0,90.1,80.616ZM23.259,40.872V26.42a1.812,1.812,0,0,1,1.807-1.807h54.2a1.812,1.812,0,0,1,1.807,1.807V40.872a1.812,1.812,0,0,1-1.807,1.807h-54.2A1.812,1.812,0,0,1,23.259,40.872Zm5.42,5.42h46.97V49.9H28.678Zm-5.42,23.485V55.324a1.812,1.812,0,0,1,1.807-1.807h54.2a1.812,1.812,0,0,1,1.807,1.807V69.776a1.812,1.812,0,0,1-1.807,1.807h-54.2A1.812,1.812,0,0,1,23.259,69.776ZM14.226,91.455a3.613,3.613,0,1,1,3.613-3.613A3.624,3.624,0,0,1,14.226,91.455Zm32.518-1.807V86.035H57.583v1.807h0v1.807ZM90.1,91.455a3.613,3.613,0,1,1,3.613-3.613A3.624,3.624,0,0,1,90.1,91.455Z" transform="translate(4.033 15.324)" fill="url(#linear-gradient)"/>
  </g>
</svg>
