<svg xmlns="http://www.w3.org/2000/svg" xmlns:xlink="http://www.w3.org/1999/xlink" width="25" height="25" viewBox="0 0 25 25">
  <defs>
    <clipPath id="clip-path">
      <rect id="Rectangle_2776" data-name="Rectangle 2776" width="25" height="25" transform="translate(807 3003)" fill="#fff" stroke="#707070" stroke-width="1"/>
    </clipPath>
  </defs>
  <g id="Mask_Group_8046" data-name="Mask Group 8046" transform="translate(-807 -3003)" clip-path="url(#clip-path)">
    <path id="Icon_awesome-laptop-code" data-name="Icon awesome-laptop-code" d="M9,9.013a.574.574,0,0,0,.8,0l.4-.39a.542.542,0,0,0,0-.78l-1.26-1.23,1.26-1.23a.542.542,0,0,0,0-.78l-.4-.39a.574.574,0,0,0-.8,0L6.938,6.224a.542.542,0,0,0,0,.78L9,9.013Zm3.387-.389.4.39a.574.574,0,0,0,.8,0L15.638,7a.542.542,0,0,0,0-.78L13.58,4.215a.574.574,0,0,0-.8,0l-.4.39a.542.542,0,0,0,0,.78l1.26,1.23-1.26,1.23A.542.542,0,0,0,12.382,8.624Zm9.628,5.706H13.458a1.1,1.1,0,0,1-1.155,1.1H10.159A1.184,1.184,0,0,1,9,14.33H.564A.56.56,0,0,0,0,14.881v.551a2.238,2.238,0,0,0,2.258,2.2h18.06a2.238,2.238,0,0,0,2.258-2.2v-.551A.56.56,0,0,0,22.011,14.33ZM20.318,1.653A1.679,1.679,0,0,0,18.625,0H3.951A1.679,1.679,0,0,0,2.258,1.653V13.228h18.06Zm-2.258,9.37H4.515V2.2H18.06Z" transform="translate(807.542 3006.643)"/>
  </g>
</svg>
