<svg xmlns="http://www.w3.org/2000/svg" xmlns:xlink="http://www.w3.org/1999/xlink" width="25" height="25" viewBox="0 0 25 25">
  <defs>
    <clipPath id="clip-path">
      <rect id="Rectangle_2777" data-name="Rectangle 2777" width="25" height="25" transform="translate(1204 3000)" fill="#fff" stroke="#707070" stroke-width="1"/>
    </clipPath>
  </defs>
  <g id="Mask_Group_8047" data-name="Mask Group 8047" transform="translate(-1204 -3000)" clip-path="url(#clip-path)">
    <path id="mobile-alt-2-svgrepo-com" d="M12,18h.01M11,6h2M9.2,21h5.6a4.968,4.968,0,0,0,2.108-.218,2,2,0,0,0,.874-.874A4.968,4.968,0,0,0,18,17.8V6.2a4.968,4.968,0,0,0-.218-2.108,2,2,0,0,0-.874-.874A4.969,4.969,0,0,0,14.8,3H9.2a4.969,4.969,0,0,0-2.108.218,2,2,0,0,0-.874.874A4.969,4.969,0,0,0,6,6.2V17.8a4.969,4.969,0,0,0,.218,2.108,2,2,0,0,0,.874.874A4.968,4.968,0,0,0,9.2,21Z" transform="translate(1204.5 3000.5)" fill="none" stroke="#000" stroke-linecap="round" stroke-linejoin="round" stroke-width="2"/>
  </g>
</svg>
