<svg width="80" height="80" viewBox="0 0 80 80" fill="none" xmlns="http://www.w3.org/2000/svg">
<g clip-path="url(#clip0_1_15)">
<mask id="mask0_1_15" style="mask-type:luminance" maskUnits="userSpaceOnUse" x="0" y="0" width="80" height="80">
<path d="M80 0H0V80H80V0Z" fill="white"/>
</mask>
<g mask="url(#mask0_1_15)">
<path d="M40 80C62.0914 80 80 62.0914 80 40C80 17.9086 62.0914 0 40 0C17.9086 0 0 17.9086 0 40C0 62.0914 17.9086 80 40 80Z" fill="#FFF2E8"/>
<path d="M24 39.816V55H26V39.816C27.161 39.402 28 38.302 28 37C28 35.346 26.654 34 25 34C23.346 34 22 35.346 22 37C22 38.302 22.839 39.402 24 39.816ZM25 36C25.552 36 26 36.449 26 37C26 37.551 25.552 38 25 38C24.448 38 24 37.551 24 37C24 36.449 24.448 36 25 36Z" fill="#F48120"/>
<path d="M25 29C16.729 29 10 35.729 10 44C10 49.131 12.668 53.935 17 56.675V60C17 60.28 17.116 60.531 17.302 60.713C17.114 61.105 17 61.538 17 62C17 63.046 17.54 63.967 18.354 64.504C18.136 64.907 18 65.362 18 65.852V66.149C18 67.456 18.888 68.548 20.089 68.884C20.509 71.219 22.546 73 25 73C27.454 73 29.491 71.219 29.911 68.883C31.112 68.547 32 67.455 32 66.148V65.851C32 65.361 31.864 64.906 31.646 64.503C32.46 63.967 33 63.046 33 62C33 61.538 32.886 61.105 32.699 60.713C32.884 60.531 33 60.28 33 60V56.675C37.332 53.934 40 49.131 40 44C40 35.729 33.271 29 25 29ZM25 71C23.698 71 22.598 70.161 22.184 69H27.815C27.402 70.161 26.302 71 25 71ZM30 66.148C30 66.618 29.618 67 29.148 67H20.851C20.382 67 20 66.618 20 66.148V65.851C20 65.382 20.382 65 20.852 65H29.149C29.618 65 30 65.382 30 65.852V66.148ZM30 63H20C19.448 63 19 62.551 19 62C19 61.449 19.448 61 20 61H30C30.552 61 31 61.449 31 62C31 62.551 30.552 63 30 63ZM31.499 55.247C31.19 55.425 31 55.755 31 56.112V59H26V57H24V59H19V56.112C19 55.755 18.81 55.425 18.501 55.247C14.491 52.923 12 48.614 12 44C12 36.832 17.832 31 25 31C32.168 31 38 36.832 38 44C38 48.614 35.509 52.923 31.499 55.247Z" fill="#F48120"/>
<path d="M28 46V54H30V46.414L30.715 45.699C31.106 45.887 31.538 46 32 46C33.654 46 35 44.654 35 43C35 41.346 33.654 40 32 40C30.346 40 29 41.346 29 43C29 43.462 29.113 43.894 29.301 44.285L28.293 45.293C28.105 45.48 28 45.735 28 46ZM32 42C32.552 42 33 42.449 33 43C33 43.551 32.552 44 32 44C31.448 44 31 43.551 31 43C31 42.449 31.448 42 32 42Z" fill="#F48120"/>
<path d="M18 46C18.462 46 18.894 45.887 19.285 45.699L20 46.414V54H22V46C22 45.735 21.895 45.48 21.707 45.293L20.699 44.285C20.887 43.894 21 43.462 21 43C21 41.346 19.654 40 18 40C16.346 40 15 41.346 15 43C15 44.654 16.346 46 18 46ZM18 42C18.552 42 19 42.449 19 43C19 43.551 18.552 44 18 44C17.448 44 17 43.551 17 43C17 42.449 17.448 42 18 42Z" fill="#F48120"/>
<path d="M48 26C48 26.552 48.447 27 49 27H50.522C50.627 27.297 50.749 27.589 50.883 27.873L49.807 28.95C49.619 29.138 49.514 29.392 49.514 29.657C49.514 29.922 49.619 30.177 49.807 30.364L52.635 33.193C53.026 33.584 53.658 33.584 54.049 33.193L55.126 32.117C55.41 32.252 55.701 32.373 55.999 32.478V34C55.999 34.552 56.446 35 56.999 35H60.999C61.552 35 61.999 34.552 61.999 34V32.478C62.297 32.373 62.588 32.252 62.872 32.117L63.949 33.193C64.34 33.584 64.972 33.584 65.363 33.193L68.191 30.364C68.379 30.176 68.484 29.922 68.484 29.657C68.484 29.392 68.379 29.137 68.191 28.95L67.115 27.873C67.25 27.589 67.371 27.297 67.476 27H69C69.553 27 70 26.552 70 26V22C70 21.448 69.553 21 69 21H67.478C67.373 20.703 67.251 20.411 67.117 20.127L68.193 19.05C68.381 18.862 68.486 18.608 68.486 18.343C68.486 18.078 68.381 17.823 68.193 17.636L65.365 14.807C64.974 14.416 64.342 14.416 63.951 14.807L62.874 15.883C62.589 15.749 62.298 15.628 62 15.522V14C62 13.448 61.553 13 61 13H57C56.447 13 56 13.448 56 14V15.522C55.702 15.627 55.411 15.748 55.127 15.883L54.05 14.808C53.659 14.417 53.027 14.417 52.636 14.808L49.808 17.637C49.62 17.825 49.515 18.079 49.515 18.344C49.515 18.609 49.62 18.864 49.808 19.051L50.884 20.128C50.749 20.411 50.628 20.703 50.522 21H49C48.447 21 48 21.448 48 22V26ZM50 23H51.262C51.718 23 52.116 22.692 52.23 22.25C52.394 21.616 52.645 21.01 52.976 20.45C53.207 20.057 53.144 19.557 52.822 19.235L51.929 18.343L53.343 16.928L54.236 17.82C54.559 18.144 55.06 18.207 55.452 17.974C56.011 17.644 56.616 17.394 57.251 17.23C57.691 17.117 58 16.718 58 16.262V15H60V16.262C60 16.718 60.309 17.116 60.75 17.23C61.385 17.394 61.99 17.644 62.549 17.974C62.941 18.205 63.442 18.144 63.765 17.82L64.658 16.928L66.072 18.343L65.179 19.235C64.857 19.557 64.793 20.057 65.025 20.45C65.356 21.01 65.607 21.616 65.771 22.25C65.885 22.691 66.283 23 66.739 23H68V25H66.738C66.282 25 65.884 25.308 65.77 25.75C65.606 26.384 65.355 26.99 65.024 27.55C64.793 27.943 64.856 28.443 65.178 28.765L66.071 29.657L64.657 31.072L63.764 30.18C63.442 29.858 62.942 29.794 62.548 30.026C61.989 30.356 61.384 30.606 60.749 30.77C60.309 30.883 60 31.282 60 31.738V33H58V31.738C58 31.282 57.691 30.884 57.25 30.77C56.615 30.606 56.01 30.356 55.451 30.026C55.059 29.795 54.557 29.856 54.235 30.18L53.342 31.072L51.928 29.657L52.821 28.765C53.143 28.443 53.207 27.943 52.975 27.55C52.644 26.99 52.393 26.384 52.229 25.75C52.115 25.308 51.718 25 51.262 25H50V23Z" fill="#F48120"/>
<path d="M30.53 20.122C31.212 20.663 32.063 21 33 21C35.206 21 37 19.206 37 17C37 16.962 36.99 16.927 36.989 16.889C40.471 15.853 44.186 15.72 47.777 16.545L48.224 14.596C44.302 13.696 40.237 13.84 36.428 14.972C35.73 13.797 34.462 13 33 13C30.794 13 29 14.794 29 17C29 17.545 29.111 18.064 29.309 18.538C26.467 20.647 24.124 23.392 22.51 26.544L24.289 27.455C25.77 24.566 27.922 22.05 30.53 20.122ZM33 15C34.103 15 35 15.897 35 17C35 18.103 34.103 19 33 19C31.897 19 31 18.103 31 17C31 15.897 31.897 15 33 15Z" fill="#F48120"/>
<path d="M35.364 56.569L34.635 58.431C37.297 59.472 40.111 60 43 60C45.74 60 48.408 59.501 50.954 58.562C51.688 59.434 52.774 60 54 60C56.206 60 58 58.206 58 56C58 55.519 57.901 55.065 57.745 54.637C62.997 50.257 66 43.878 66 37C66 36.304 65.969 35.601 65.906 34.91L63.914 35.09C63.971 35.721 64 36.363 64 37C64 43.219 61.312 48.992 56.603 52.988C55.901 52.381 54.998 52 54 52C51.794 52 50 53.794 50 56C50 56.258 50.029 56.509 50.076 56.753C45.335 58.442 40.034 58.395 35.364 56.569ZM54 54C55.103 54 56 54.897 56 56C56 57.103 55.103 58 54 58C52.897 58 52 57.103 52 56C52 54.897 52.897 54 54 54Z" fill="#F48120"/>
<path d="M59 29C61.757 29 64 26.757 64 24C64 21.243 61.757 19 59 19C56.243 19 54 21.243 54 24C54 26.757 56.243 29 59 29ZM59 21C60.654 21 62 22.346 62 24C62 25.654 60.654 27 59 27C57.346 27 56 25.654 56 24C56 22.346 57.346 21 59 21Z" fill="#F48120"/>
</g>
</g>
<defs>
<clipPath id="clip0_1_15">
<rect width="80" height="80" fill="white"/>
</clipPath>
</defs>
</svg>
