<svg id="banner-main6" xmlns="http://www.w3.org/2000/svg" xmlns:xlink="http://www.w3.org/1999/xlink" width="45" height="45" viewBox="0 0 45 45">
  <defs>
    <linearGradient id="linear-gradient" x1="0.5" x2="0.156" y2="0.791" gradientUnits="objectBoundingBox">
      <stop offset="0" stop-color="#3e3e3e"/>
      <stop offset="1" stop-color="#1a1a1a"/>
    </linearGradient>
  </defs>
  <circle id="Ellipse_1" data-name="Ellipse 1" cx="22.5" cy="22.5" r="22.5" fill="url(#linear-gradient)"/>
  <g id="welfare-pension-insurance-premium-svgrepo-com" transform="translate(8.139 -30.957)">
    <path id="Path_9254" data-name="Path 9254" d="M10.988,57.166h0Zm-.169,1.114h0Zm.127-1.119h-.005a.318.318,0,0,1,.043,0l-.069,0Zm-.005,0h.465a2.052,2.052,0,0,1,2.052,2.052v7.375a.563.563,0,0,1-1.127,0V59.213a.926.926,0,0,0-.926-.926H10.9l-5.293,0a.563.563,0,0,1-.4-.165l-2.5-2.5A.924.924,0,0,0,1.4,56.93l2.933,2.933a.92.92,0,0,0,.671.268H9.915a.563.563,0,0,1,.563.563v5.892a.563.563,0,0,1-1.127,0V61.259H5.012a2.05,2.05,0,0,1-1.474-.6L.605,57.727a2.05,2.05,0,0,1,2.9-2.9l2.331,2.331h5.055l.05,0ZM17.335,58.28Zm-.17-1.114h0Zm.074,1.121h-.49a.926.926,0,0,0-.926.926v7.375a.563.563,0,0,1-1.127,0V59.213a2.052,2.052,0,0,1,2.052-2.052h.459l.055,0h5.055l2.331-2.331a2.05,2.05,0,0,1,2.9,2.9L24.616,60.66a2.038,2.038,0,0,1-1.464.6H18.8v5.329a.563.563,0,0,1-1.127,0V60.7a.563.563,0,0,1,.563-.563h4.9a.546.546,0,0,0-.077.005.637.637,0,0,1,.09-.006.916.916,0,0,0,.664-.269l2.933-2.933a.924.924,0,0,0-1.306-1.306l-2.5,2.5a.563.563,0,0,1-.4.165H17.28l-.041,0Zm1.509-13.763a2.441,2.441,0,1,0-2.441,2.441A2.441,2.441,0,0,0,18.747,44.525Zm1.127,0a3.568,3.568,0,1,1-3.568-3.568A3.568,3.568,0,0,1,19.874,44.525Z" transform="translate(0)" fill="#fff"/>
    <path id="Path_9255" data-name="Path 9255" d="M197.867,164.213v-5.68a1.69,1.69,0,0,1,1.69-1.69h3.286a1.69,1.69,0,0,1,1.69,1.69v5.68a.563.563,0,1,0,1.127,0v-5.68a2.817,2.817,0,0,0-2.817-2.817h-3.286a2.817,2.817,0,0,0-2.817,2.817v5.68a.563.563,0,1,0,1.127,0Zm-2.312-.041v-8.728a2.661,2.661,0,0,0-5.321,0,.563.563,0,1,0,1.127,0,1.534,1.534,0,1,1,3.068,0v8.728a.563.563,0,1,0,1.127,0Z" transform="translate(-184.997 -108.75)" fill="#fff"/>
  </g>
</svg>
