<svg xmlns="http://www.w3.org/2000/svg" width="60" height="60" viewBox="0 0 60 60">
  <g id="Group_19" data-name="Group 19" transform="translate(-930 -510)">
    <circle id="Ellipse_14" data-name="Ellipse 14" cx="30" cy="30" r="30" transform="translate(930 510)" fill="#fff2e8"/>
    <g id="welfare-pension-insurance-premium-svgrepo-com_1_" data-name="welfare-pension-insurance-premium-svgrepo-com (1)" transform="translate(942.995 483.043)">
      <path id="Path_9276" data-name="Path 9276" d="M13.548,60.945h0Zm-.208,1.374.01,0Zm.157-1.38h-.006a.394.394,0,0,1,.053.005l-.085-.005H13.5Zm-.006,0h.573a2.531,2.531,0,0,1,2.531,2.531v9.094a.695.695,0,0,1-1.389,0V63.469a1.141,1.141,0,0,0-1.141-1.141h-.629c-.015,0-6.527,0-6.527,0a.7.7,0,0,1-.491-.2L3.338,59.043a1.139,1.139,0,0,0-1.611,1.611l3.617,3.617a1.135,1.135,0,0,0,.828.331h6.054a.7.7,0,0,1,.695.695v7.266a.695.695,0,0,1-1.389,0V65.992H6.18a2.528,2.528,0,0,1-1.818-.739L.745,61.637a2.528,2.528,0,0,1,3.575-3.576L7.2,60.936h6.234ZM21.375,62.318Zm-.21-1.373h0Zm.091,1.383h-.6a1.141,1.141,0,0,0-1.141,1.141v9.094a.695.695,0,0,1-1.389,0V63.469a2.531,2.531,0,0,1,2.531-2.531h.566l.068,0H27.52l2.875-2.874a2.528,2.528,0,0,1,3.576,3.575l-3.617,3.617a2.513,2.513,0,0,1-1.805.738H23.184v6.571a.695.695,0,0,1-1.389,0V65.3a.7.7,0,0,1,.695-.695h6.046a.672.672,0,0,0-.095.007.78.78,0,0,1,.11-.007,1.129,1.129,0,0,0,.819-.331l3.617-3.617a1.139,1.139,0,0,0-1.611-1.611L28.3,62.121a.7.7,0,0,1-.491.2h-6.5l-.051,0Zm1.861-16.971a3.01,3.01,0,1,0-3.01,3.01A3.01,3.01,0,0,0,23.117,45.357Zm1.389,0a4.4,4.4,0,1,1-4.4-4.4,4.4,4.4,0,0,1,4.4,4.4Z" transform="translate(0)" fill="#f48120"/>
      <path id="Path_9277" data-name="Path 9277" d="M199.647,166.877v-7a2.084,2.084,0,0,1,2.084-2.084h4.052a2.084,2.084,0,0,1,2.084,2.084v7a.695.695,0,1,0,1.389,0v-7a3.473,3.473,0,0,0-3.473-3.473h-4.052a3.473,3.473,0,0,0-3.473,3.473v7a.695.695,0,1,0,1.389,0Zm-2.851-.051V156.064a3.281,3.281,0,1,0-6.562,0,.695.695,0,0,0,1.389,0,1.892,1.892,0,1,1,3.783,0v10.763a.695.695,0,0,0,1.389,0Z" transform="translate(-183.777 -108.033)" fill="#f48120"/>
    </g>
  </g>
</svg>
