<svg xmlns="http://www.w3.org/2000/svg" width="60" height="60" viewBox="0 0 60 60">
  <g id="Group_530" data-name="Group 530" transform="translate(-678 -5841)">
    <circle id="Ellipse_14" data-name="Ellipse 14" cx="30" cy="30" r="30" transform="translate(678 5841)" fill="#fff2e8"/>
    <g id="illustration-of-class-svgrepo-com" transform="translate(676.018 5857)">
      <path id="Path_9192" data-name="Path 9192" d="M52.693,6.657a3.329,3.329,0,1,0-3.329-3.329A3.328,3.328,0,0,0,52.693,6.657Z" transform="translate(-29.34)" fill="#f48120"/>
      <circle id="Ellipse_121" data-name="Ellipse 121" cx="2.868" cy="2.868" r="2.868" transform="translate(19.273 18.203)" fill="#f48120"/>
      <path id="Path_9193" data-name="Path 9193" d="M26.282,447.639a3.616,3.616,0,0,0-3.642,3.588l7.231.054A3.616,3.616,0,0,0,26.282,447.639Z" transform="translate(-4.128 -422.306)" fill="#f48120"/>
      <circle id="Ellipse_122" data-name="Ellipse 122" cx="2.868" cy="2.868" r="2.868" transform="translate(28.762 18.203)" fill="#f48120"/>
      <path id="Path_9194" data-name="Path 9194" d="M193.945,447.639a3.616,3.616,0,0,0-3.642,3.588l7.231.054A3.616,3.616,0,0,0,193.945,447.639Z" transform="translate(-162.303 -422.306)" fill="#f48120"/>
      <circle id="Ellipse_123" data-name="Ellipse 123" cx="2.868" cy="2.868" r="2.868" transform="translate(38.25 18.203)" fill="#f48120"/>
      <path id="Path_9195" data-name="Path 9195" d="M361.6,447.639a3.616,3.616,0,0,0-3.643,3.588l7.231.054A3.616,3.616,0,0,0,361.6,447.639Z" transform="translate(-320.471 -422.306)" fill="#f48120"/>
      <path id="Path_9196" data-name="Path 9196" d="M28.4,144.685a5.067,5.067,0,0,0-4.322-5.046v1.267h-1.5V139.64a5.067,5.067,0,0,0-4.322,4.97v3.334H28.4v-3.259Zm-4.322-.225h-1.5v-2.509h1.5v2.509Z" transform="translate(0 -131.736)" fill="#f48120"/>
      <path id="Path_9197" data-name="Path 9197" d="M286.12,93.135a.924.924,0,1,0,.924.924A.924.924,0,0,0,286.12,93.135Z" transform="translate(-251.826 -87.864)" fill="#f48120"/>
      <path id="Path_9198" data-name="Path 9198" d="M415.291,93.135a.924.924,0,1,0,.924.924A.924.924,0,0,0,415.291,93.135Z" transform="translate(-373.686 -87.864)" fill="#f48120"/>
      <path id="Path_9199" data-name="Path 9199" d="M350.717,93.135a.924.924,0,1,0,.924.924A.923.923,0,0,0,350.717,93.135Z" transform="translate(-312.767 -87.864)" fill="#f48120"/>
      <path id="Path_9200" data-name="Path 9200" d="M189.664.809H183.4a4.323,4.323,0,0,0-4.318,4.319V6.814l-.973.575L176,8.634l2.072,1.308,1.587,1a4.315,4.315,0,0,0,3.742,2.162h6.263a4.323,4.323,0,0,0,4.318-4.319V5.128A4.324,4.324,0,0,0,189.664.809Zm2.822,7.979a2.823,2.823,0,0,1-2.822,2.823H183.4A2.823,2.823,0,0,1,180.806,9.9L178.87,8.677l1.708-1.009V5.128A2.823,2.823,0,0,1,183.4,2.305h6.263a2.823,2.823,0,0,1,2.822,2.823Z" transform="translate(-148.809 -0.763)" fill="#f48120"/>
    </g>
  </g>
</svg>
