<?xml version="1.0" encoding="UTF-8"?>
<!DOCTYPE svg PUBLIC "-//W3C//DTD SVG 1.1//EN" "http://www.w3.org/Graphics/SVG/1.1/DTD/svg11.dtd">
<!-- Creator: CorelDRAW -->
<svg xmlns="http://www.w3.org/2000/svg" xml:space="preserve" width="1.70666in" height="1.70666in" version="1.1" style="shape-rendering:geometricPrecision; text-rendering:geometricPrecision; image-rendering:optimizeQuality; fill-rule:evenodd; clip-rule:evenodd"
viewBox="0 0 1707 1707"
 xmlns:xlink="http://www.w3.org/1999/xlink">
 <defs>
  <style type="text/css">
   <![CDATA[
    .fil0 {fill:black}
   ]]>
  </style>
 </defs>
 <g id="Layer_x0020_1">
  <metadata id="CorelCorpID_0Corel-Layer"/>
  <path class="fil0" d="M993 1157c-20,0 -41,-8 -60,-27l-74 -74 -85 85c-17,17 -38,26 -61,26 0,0 0,0 0,0 -76,0 -119,-93 -63,-149l85 -85 -33 -33c-150,45 -286,-110 -220,-254 8,-16 30,-20 43,-7l93 92c25,26 65,-13 39,-39l-93 -93c-13,-12 -9,-35 8,-43 143,-66 299,71 254,221l33 33 22 -23c-46,-152 112,-286 254,-220 16,7 20,30 7,43l-92 93c-26,26 13,64 39,39l93 -93c12,-13 35,-9 43,8 67,145 -71,299 -221,253l-22 23 74 74c60,60 10,150 -63,150zm-19 550l-242 0c-11,0 -22,-8 -25,-19l-62 -208c-30,-9 -59,-22 -88,-36l-190 103c-10,5 -23,4 -32,-5l-171 -171c-8,-8 -10,-21 -4,-31l102 -191c-14,-28 -26,-57 -36,-87l-207 -62c-11,-4 -19,-14 -19,-26l0 -242c0,-11 8,-22 19,-25l207 -62c10,-30 22,-59 36,-88l-102 -190c-6,-10 -4,-23 4,-32l171 -171c9,-8 22,-10 32,-4l190 102c29,-14 58,-26 88,-36l62 -207c3,-11 14,-19 25,-19l242 0c12,0 22,8 26,19l62 207c30,10 59,22 87,36l191 -102c10,-6 23,-4 31,4l171 171c9,9 10,22 5,32l-103 190c14,29 27,58 36,88l208 62c11,3 19,14 19,25l0 242c0,12 -8,22 -19,26l-208 62c-10,30 -22,59 -36,87l103 191c5,10 4,23 -5,31l-171 171c-8,9 -21,10 -31,5l-191 -103c-28,14 -57,27 -87,36l-62 208c-4,11 -14,19 -26,19zm-222 -54l202 0 61 -201c2,-9 9,-16 18,-18 35,-11 71,-26 104,-44 8,-4 17,-4 25,1l186 99 142 -142 -99 -186c-5,-8 -5,-17 -1,-25 18,-33 33,-69 44,-104 2,-9 9,-16 18,-18l201 -61 0 -202 -201 -60c-9,-3 -16,-9 -18,-18 -11,-36 -26,-71 -44,-104 -4,-8 -4,-18 1,-25l99 -186 -142 -143 -186 100c-8,4 -17,4 -25,0 -33,-18 -69,-32 -104,-43 -9,-3 -16,-9 -18,-18l-61 -202 -202 0 -60 202c-3,9 -9,15 -18,18 -36,11 -71,25 -104,43 -8,4 -18,4 -25,0l-186 -100 -143 143 100 186c4,7 4,17 0,25 -18,33 -32,68 -43,104 -3,9 -9,15 -18,18l-202 60 0 202 202 61c9,2 15,9 18,18 11,35 25,71 43,104 4,8 4,17 0,25l-100 186 143 142 186 -99c7,-5 17,-5 25,0 33,17 68,32 104,43 9,2 15,9 18,18l60 201zm101 -305c-132,0 -256,-52 -349,-145 -193,-193 -193,-506 0,-699 192,-192 507,-192 699,0 193,193 193,506 0,699 -94,93 -218,145 -350,145zm0 -936c-117,0 -228,46 -311,130 -172,171 -172,451 0,623 171,172 452,172 623,0 172,-172 172,-452 0,-623 -83,-84 -194,-130 -312,-130zm-14 588l139 -139c19,-19 41,4 79,4 78,0 139,-70 130,-146l-61 61c-31,31 -83,31 -114,0 -32,-32 -32,-83 0,-115l61 -61c-98,-12 -175,88 -137,180 4,10 2,21 -6,29l-242 242c-31,32 17,79 48,48l103 -103zm57 18l75 75c32,32 80,-16 47,-48l-74 -74 -48 47zm-123 -123l48 -48 -45 -44c-7,-8 -10,-20 -6,-29 39,-93 -38,-192 -136,-180l61 61c51,51 13,138 -58,138 -21,0 -42,-9 -57,-24l-61 -61c-11,98 88,175 180,137 10,-4 22,-2 29,5l45 45z"/>
 </g>
</svg>
