<svg xmlns="http://www.w3.org/2000/svg" width="60" height="60" viewBox="0 0 60 60">
  <g id="Group_158" data-name="Group 158" transform="translate(-1164 -601)">
    <g id="Group_157" data-name="Group 157">
      <g id="risk-icon" transform="translate(1164 601)">
        <circle id="Ellipse_153" data-name="Ellipse 153" cx="30" cy="30" r="30" fill="#f48120"/>
      </g>
    </g>
    <path id="investment-money-capital-funds-svgrepo-com_1_" data-name="investment-money-capital-funds-svgrepo-com (1)" d="M30.483,24.693H24.846V18.818a4.7,4.7,0,0,0-4.7-4.7H6.7a4.7,4.7,0,0,0-4.7,4.7V34.386a2.067,2.067,0,0,0,3.519,1.461,2.037,2.037,0,0,0,.6-1.461V21.159a.582.582,0,0,1,.582-.582h.015a.573.573,0,0,1,.582.582V36.444H19.626V21.2a.591.591,0,1,1,1.178.015v5.219a2.339,2.339,0,0,0,2.356,2.341l7.322.015a2.062,2.062,0,0,0,2.058-2.058h0A2.049,2.049,0,0,0,30.483,24.693Zm8.053-8.545c-1.089-1.775-3.4-4.787-4.548-6.263l3.027-4.459H28.634L31.646,9.87c-1.148,1.461-3.475,4.489-4.563,6.278a5.621,5.621,0,0,0-1.044,3.191,4.049,4.049,0,0,0,3.892,4.175h5.741a4.049,4.049,0,0,0,3.892-4.175A5.512,5.512,0,0,0,38.535,16.148ZM33.286,20.07v.805h-1V20.04a3.142,3.142,0,0,1-1.461-.79l.761-.835a2.589,2.589,0,0,0,1.074.552c.6.089.954-.194,1-.567.075-.7-1.3-.969-1.789-1.238a1.806,1.806,0,0,1-1.178-1.655,1.67,1.67,0,0,1,1.611-1.7v-.865h1v.895a3.533,3.533,0,0,1,1.4.731l-.686.895a2.484,2.484,0,0,0-.984-.537c-.477-.119-1,.015-1.029.537-.015.209.075.641,1.118.954.552.179,1.834.552,1.834,1.894A1.808,1.808,0,0,1,33.286,20.07ZM8.606,7.976a4.876,4.876,0,1,1,4.876,4.876A4.878,4.878,0,0,1,8.606,7.976Z" transform="translate(1175 611.556)" fill="#fff"/>
  </g>
</svg>
