<svg xmlns="http://www.w3.org/2000/svg" width="60" height="60" viewBox="0 0 60 60">
  <g id="Group_73" data-name="Group 73" transform="translate(-1018 -461)">
    <circle id="Ellipse_14" data-name="Ellipse 14" cx="30" cy="30" r="30" transform="translate(1018 461)" fill="#fff2e8"/>
    <g id="Group_19" data-name="Group 19" transform="translate(1032 475)">
      <path id="Path_9287" data-name="Path 9287" d="M18.8,23.011h1.044V20.4a5.188,5.188,0,0,0-4.961-5.222,2.377,2.377,0,0,0,.261-1.044V13.089A2.1,2.1,0,0,0,13.056,11H6.789A2.1,2.1,0,0,0,4.7,13.089v1.044a2.377,2.377,0,0,0,.261,1.044A5.223,5.223,0,0,0,0,20.4V31.367a5.238,5.238,0,0,0,5.222,5.222h9.4V35.544h-9.4a4.19,4.19,0,0,1-4.178-4.178V20.4a4.19,4.19,0,0,1,4.178-4.178h5.744V15.178H6.789a1.048,1.048,0,0,1-1.044-1.044V13.089a1.048,1.048,0,0,1,1.044-1.044h6.267A1.048,1.048,0,0,1,14.1,13.089v1.044a1.048,1.048,0,0,1-1.044,1.044.522.522,0,1,0,0,1.044h1.567A4.19,4.19,0,0,1,18.8,20.4Z" transform="translate(0 -5.256)" fill="#f48120"/>
      <path id="Path_9288" data-name="Path 9288" d="M15.611,30.089h1.044a1.539,1.539,0,0,1,1.567,1.567h1.044a2.586,2.586,0,0,0-2.611-2.611V28H15.611v1.044a2.611,2.611,0,0,0,0,5.222h1.044a1.567,1.567,0,1,1,0,3.133H15.611a1.539,1.539,0,0,1-1.567-1.567H13a2.586,2.586,0,0,0,2.611,2.611v1.044h1.044V38.444a2.611,2.611,0,1,0,0-5.222H15.611a1.567,1.567,0,0,1,0-3.133Z" transform="translate(-6.211 -13.378)" fill="#f48120"/>
      <rect id="Rectangle_2704" data-name="Rectangle 2704" width="1" height="1" transform="translate(5.667 12.667)" fill="#f48120"/>
      <rect id="Rectangle_2705" data-name="Rectangle 2705" height="1" transform="translate(7.667 12.667)" fill="#f48120"/>
      <rect id="Rectangle_2706" data-name="Rectangle 2706" width="1" height="1" transform="translate(8.667 12.667)" fill="#f48120"/>
      <rect id="Rectangle_2707" data-name="Rectangle 2707" width="1" height="1" transform="translate(11.667 12.667)" fill="#f48120"/>
      <rect id="Rectangle_2708" data-name="Rectangle 2708" width="1" height="1" transform="translate(13.667 12.667)" fill="#f48120"/>
      <rect id="Rectangle_2709" data-name="Rectangle 2709" width="1" height="1" transform="translate(5.667 27.667)" fill="#f48120"/>
      <rect id="Rectangle_2710" data-name="Rectangle 2710" height="1" transform="translate(7.667 27.667)" fill="#f48120"/>
      <rect id="Rectangle_2711" data-name="Rectangle 2711" width="1" height="1" transform="translate(8.667 27.667)" fill="#f48120"/>
      <rect id="Rectangle_2712" data-name="Rectangle 2712" width="1" height="1" transform="translate(11.667 27.667)" fill="#f48120"/>
      <rect id="Rectangle_2713" data-name="Rectangle 2713" width="1" height="1" transform="translate(13.667 27.667)" fill="#f48120"/>
      <path id="Path_9289" data-name="Path 9289" d="M47.056,30H40.789a.493.493,0,0,0-.522.522v3.656H34.522A.493.493,0,0,0,34,34.7V45.144a.493.493,0,0,0,.522.522H47.056a.493.493,0,0,0,.522-.522V30.522A.493.493,0,0,0,47.056,30Zm-5.744,3.133h5.222v1.044H41.311Zm5.222,2.089v1.044H41.311V35.222Zm0,3.133H41.311V37.311h5.222Zm0,2.089H41.311V39.4h5.222ZM35.044,39.4h5.222v1.044H35.044Zm5.222-1.044H35.044V37.311h5.222Zm-5.222,3.133h5.222v1.044H35.044Zm6.267,0h5.222v1.044H41.311Zm0-10.444h5.222v1.044H41.311Zm-6.267,4.178h5.222v1.044H35.044Zm0,8.356h5.222v1.044H35.044Zm11.489,1.044H41.311V43.578h5.222Z" transform="translate(-16.244 -14.333)" fill="#f48120"/>
      <path id="Path_9290" data-name="Path 9290" d="M48.011,0H36.522A.493.493,0,0,0,36,.522v9.4a.645.645,0,0,0,.209.418l5.744,4.178a.522.522,0,0,0,.627,0l5.744-4.178a.645.645,0,0,0,.209-.418V.522A.493.493,0,0,0,48.011,0Zm-.522,1.044V4.178H37.044V1.044ZM42.267,13.473,37.044,9.661V5.222H47.489V9.661Z" transform="translate(-17.2)" fill="#f48120"/>
      <rect id="Rectangle_2714" data-name="Rectangle 2714" width="1" height="1" transform="translate(21.667 2.667)" fill="#f48120"/>
      <rect id="Rectangle_2715" data-name="Rectangle 2715" width="1" height="1" transform="translate(23.667 2.667)" fill="#f48120"/>
      <rect id="Rectangle_2716" data-name="Rectangle 2716" width="1" height="1" transform="translate(25.667 2.667)" fill="#f48120"/>
      <rect id="Rectangle_2717" data-name="Rectangle 2717" width="1" height="1" transform="translate(27.667 2.667)" fill="#f48120"/>
      <path id="Path_9291" data-name="Path 9291" d="M45.176,15.02l-1.2-.783-.574.888,1.567,1.044a.742.742,0,0,0,.313.1.286.286,0,0,0,.313-.209l3.133-3.133L48,12.2Z" transform="translate(-20.736 -5.829)" fill="#f48120"/>
    </g>
  </g>
</svg>
