<svg id="banner-main4" xmlns="http://www.w3.org/2000/svg" width="45" height="45" viewBox="0 0 45 45">
  <circle id="Ellipse_45" data-name="Ellipse 45" cx="22.5" cy="22.5" r="22.5" fill="#2f2f2f"/>
  <g id="investment-insurance-svgrepo-com" transform="translate(24 2)">
    <g id="Group_8363" data-name="Group 8363" transform="translate(-15 9)">
      <path id="Path_9241" data-name="Path 9241" d="M14.7,20.392h.817V18.35a4.056,4.056,0,0,0-3.879-4.083,1.859,1.859,0,0,0,.2-.817v-.817A1.638,1.638,0,0,0,10.208,11h-4.9a1.638,1.638,0,0,0-1.633,1.633v.817a1.859,1.859,0,0,0,.2.817A4.084,4.084,0,0,0,0,18.35v8.575a4.1,4.1,0,0,0,4.083,4.083h7.35v-.817H4.083A3.276,3.276,0,0,1,.817,26.925V18.35a3.276,3.276,0,0,1,3.267-3.267H8.575v-.817H5.308a.819.819,0,0,1-.817-.817v-.817a.819.819,0,0,1,.817-.817h4.9a.819.819,0,0,1,.817.817v.817a.819.819,0,0,1-.817.817.408.408,0,1,0,0,.817h1.225A3.276,3.276,0,0,1,14.7,18.35Z" transform="translate(0 -6.508)" fill="#fff"/>
      <path id="Path_9242" data-name="Path 9242" d="M15.042,29.633h.817a1.2,1.2,0,0,1,1.225,1.225H17.9a2.022,2.022,0,0,0-2.042-2.042V28h-.817v.817a2.042,2.042,0,0,0,0,4.083h.817a1.225,1.225,0,1,1,0,2.45h-.817a1.2,1.2,0,0,1-1.225-1.225H13a2.022,2.022,0,0,0,2.042,2.042v.817h.817v-.817a2.042,2.042,0,1,0,0-4.083h-.817a1.225,1.225,0,0,1,0-2.45Z" transform="translate(-7.692 -16.567)" fill="#fff"/>
      <rect id="Rectangle_3354" data-name="Rectangle 3354" width="1.089" transform="translate(3.539 10.072)" fill="#fff"/>
      <rect id="Rectangle_3355" data-name="Rectangle 3355" transform="translate(5.717 10.072)" fill="#fff"/>
      <rect id="Rectangle_3356" data-name="Rectangle 3356" width="1.089" transform="translate(7.894 10.072)" fill="#fff"/>
      <rect id="Rectangle_3357" data-name="Rectangle 3357" width="1.089" transform="translate(8.983 10.072)" fill="#fff"/>
      <rect id="Rectangle_3358" data-name="Rectangle 3358" transform="translate(11.161 10.072)" fill="#fff"/>
      <rect id="Rectangle_3359" data-name="Rectangle 3359" width="1.089" transform="translate(3.539 22.05)" fill="#fff"/>
      <rect id="Rectangle_3360" data-name="Rectangle 3360" transform="translate(5.717 22.05)" fill="#fff"/>
      <rect id="Rectangle_3361" data-name="Rectangle 3361" width="1.089" transform="translate(7.894 22.05)" fill="#fff"/>
      <rect id="Rectangle_3362" data-name="Rectangle 3362" width="1.089" transform="translate(8.983 22.05)" fill="#fff"/>
      <rect id="Rectangle_3363" data-name="Rectangle 3363" transform="translate(11.161 22.05)" fill="#fff"/>
      <path id="Path_9243" data-name="Path 9243" d="M44.208,30h-4.9a.386.386,0,0,0-.408.408v2.858H34.408a.386.386,0,0,0-.408.408v8.167a.386.386,0,0,0,.408.408h9.8a.386.386,0,0,0,.408-.408V30.408A.386.386,0,0,0,44.208,30Zm-4.492,2.45H43.8v.817H39.717ZM43.8,34.083V34.9H39.717v-.817Zm0,2.45H39.717v-.817H43.8Zm0,1.633H39.717V37.35H43.8Zm-8.983-.817H38.9v.817H34.817Zm4.083-.817H34.817v-.817H38.9Zm-4.083,2.45H38.9V39.8H34.817Zm4.9,0H43.8V39.8H39.717Zm0-8.167H43.8v.817H39.717Zm-4.9,3.267H38.9V34.9H34.817Zm0,6.533H38.9v.817H34.817Zm8.983.817H39.717v-.817H43.8Z" transform="translate(-20.117 -17.75)" fill="#fff"/>
      <path id="Path_9244" data-name="Path 9244" d="M45.392,0H36.408A.386.386,0,0,0,36,.408v7.35a.5.5,0,0,0,.163.327l4.492,3.267a.408.408,0,0,0,.49,0l4.492-3.267a.5.5,0,0,0,.163-.327V.408A.386.386,0,0,0,45.392,0Zm-.408.817v2.45H36.817V.817ZM40.9,10.535,36.817,7.554V4.083h8.167V7.554Z" transform="translate(-21.3)" fill="#fff"/>
      <rect id="Rectangle_3364" data-name="Rectangle 3364" height="1.089" transform="translate(17.694 1.361)" fill="#fff"/>
      <rect id="Rectangle_3365" data-name="Rectangle 3365" width="1.089" height="1.089" transform="translate(18.783 1.361)" fill="#fff"/>
      <rect id="Rectangle_3366" data-name="Rectangle 3366" width="1.089" height="1.089" transform="translate(19.872 1.361)" fill="#fff"/>
      <rect id="Rectangle_3367" data-name="Rectangle 3367" height="1.089" transform="translate(22.05 1.361)" fill="#fff"/>
      <path id="Path_9245" data-name="Path 9245" d="M44.788,14.405l-.939-.613-.449.694,1.225.817a.58.58,0,0,0,.245.082.224.224,0,0,0,.245-.163l2.45-2.45-.572-.572Z" transform="translate(-25.678 -7.218)" fill="#fff"/>
    </g>
  </g>
</svg>
