<?xml version="1.0" encoding="UTF-8"?><svg id="Layer_1" xmlns="http://www.w3.org/2000/svg" xmlns:xlink="http://www.w3.org/1999/xlink" viewBox="0 0 148.78 148.78"><defs><style>.cls-1{fill:#fff;}.cls-2{fill:url(#linear-gradient);}</style><linearGradient id="linear-gradient" x1="148.78" y1="77.61" x2="0" y2="77.61" gradientTransform="translate(0 152) scale(1 -1)" gradientUnits="userSpaceOnUse"><stop offset="0" stop-color="#3b3b3b"/><stop offset="1" stop-color="#191919"/></linearGradient></defs><circle class="cls-2" cx="74.39" cy="74.39" r="74.39"/><path class="cls-1" d="M46.42,57.95h-1.95c-2.54,0-4.6,2.06-4.6,4.6v1.95c0,2.54,2.06,4.6,4.6,4.6h1.95c2.54,0,4.6-2.06,4.6-4.6v-1.95c0-2.54-2.06-4.6-4.6-4.6ZM47.95,64.5c0,.85-.69,1.53-1.53,1.53h-1.95c-.85,0-1.53-.69-1.53-1.53v-1.95c0-.85.69-1.53,1.53-1.53h1.95c.85,0,1.53.69,1.53,1.53v1.95ZM46.42,71.49h-1.95c-2.54,0-4.6,2.06-4.6,4.6v1.95c0,2.54,2.06,4.6,4.6,4.6h1.95c2.54,0,4.6-2.06,4.6-4.6v-1.95c0-2.54-2.06-4.6-4.6-4.6ZM47.95,78.04c0,.85-.69,1.53-1.53,1.53h-1.95c-.85,0-1.53-.69-1.53-1.53v-1.95c0-.85.69-1.53,1.53-1.53h1.95c.85,0,1.53.69,1.53,1.53v1.95ZM46.42,84.97h-1.95c-2.54,0-4.6,2.06-4.6,4.6v1.86c0,2.54,2.06,4.6,4.6,4.6h1.95c2.54,0,4.6-2.06,4.6-4.6v-1.9c0-2.54-2.06-4.6-4.6-4.6v.05ZM47.95,91.43c0,.85-.69,1.53-1.53,1.53h-1.95c-.85,0-1.53-.69-1.53-1.53v-1.9c0-.85.69-1.53,1.53-1.53h1.95c.85,0,1.53.69,1.53,1.53v1.9ZM46.42,98.37h-1.95c-2.54,0-4.6,2.06-4.6,4.6v1.95c0,2.54,2.06,4.6,4.6,4.6h1.95c2.54,0,4.6-2.06,4.6-4.6v-1.9c0-2.54-2.06-4.6-4.6-4.6v-.05ZM47.95,104.92c0,.85-.69,1.53-1.53,1.53h-1.95c-.85,0-1.53-.69-1.53-1.53v-1.9c0-.85.69-1.53,1.53-1.53h1.95c.85,0,1.53.69,1.53,1.53v1.9ZM49.31,46.42c0-.85.69-1.53,1.53-1.53h1.53c.85,0,1.53.69,1.53,1.53s-.69,1.53-1.53,1.53h-1.53c-.83,0-1.51-.66-1.53-1.49v-.05ZM72.55,46.42c0-.85.69-1.53,1.53-1.53h1.53c.85,0,1.53.69,1.53,1.53s-.69,1.53-1.53,1.53h-1.59c-.83,0-1.51-.66-1.53-1.49l.06-.05ZM117.89,51.02l-.15-.11c-.46-.26-.72-.76-.69-1.29v-1.43c-.04-.54.23-1.05.69-1.32l.14.08c2.11-1.25,2.81-3.98,1.56-6.09,0-.01-.02-.03-.02-.04l-2.35-4.08c-1.27-2.11-4.02-2.8-6.13-1.53-.43.28-.98.28-1.41,0-.44-.28-.9-.52-1.4-.78-.46-.27-.72-.77-.69-1.3.06-2.46-1.89-4.51-4.35-4.57-.05,0-.09,0-.14,0h-4.74c-2.47,0-4.47,2.02-4.46,4.49,0,.04,0,.07,0,.11.01.51-.28.99-.74,1.21-.48.26-.94.52-1.38.8-.4.24-.89.24-1.29,0l-.17-.11c-2.14-1.24-4.88-.52-6.12,1.62,0,0,0,.01-.01.02l-2.21,3.93c-.87-1.02-2.14-1.62-3.48-1.63h-4.32v-1.15c0-2.54-2.06-4.6-4.6-4.6h-13.36c-2.54,0-4.6,2.06-4.6,4.6v1.15h-4.29c-2.5,0-4.54,1.99-4.6,4.49h-4.14c-4.06,0-7.35,3.3-7.35,7.36v62.34c0,4.07,3.28,7.37,7.35,7.38h69.96c2.54,0,4.6-2.06,4.6-4.6v-24.38c.03-2.29-1.64-4.26-3.91-4.6.19-.49.29-1.01.29-1.53v-17.79c-.01-1.39-.65-2.69-1.73-3.56.11-.18.26-.32.44-.43.49-.25.95-.52,1.44-.81.42-.26.96-.26,1.38,0l.15.08c2.12,1.19,4.81.44,6.01-1.67l2.36-4.09c.6-1.02.77-2.24.46-3.39-.29-1.11-1-2.07-1.99-2.65v-.11ZM54.53,37.85c0-.85.69-1.53,1.53-1.53h13.36c.85,0,1.53.69,1.53,1.53v1.15h-16.42v-1.15ZM45.63,45.04h0v-1.41c0-.85.69-1.53,1.53-1.53h31.18c.85,0,1.53.69,1.53,1.53v5.26c0,.85-.69,1.53-1.53,1.53h-31.18c-.85,0-1.53-.69-1.53-1.53v-3.85ZM55.69,96.03h20.35v10.43h-20.33c-.85,0-1.53.69-1.53,1.53s.69,1.53,1.53,1.53h20.33v6.44c0,.52.1,1.04.29,1.53h-37.91c-2.37,0-4.29-1.94-4.28-4.31h0v-62.34c0-2.37,1.92-4.29,4.29-4.29h4.14v2.3c0,2.54,2.06,4.6,4.6,4.6h31.16c2.54,0,4.6-2.06,4.6-4.6v-2.3h4.14c2.37,0,4.28,1.93,4.28,4.29v12.27h-7.1c-1.9.01-3.61,1.19-4.28,2.98h-24.28c-.85,0-1.53.69-1.53,1.53s.69,1.53,1.53,1.53h23.95v10.43h-23.97c-.85,0-1.53.69-1.53,1.53s.69,1.53,1.53,1.53h23.97v2.9c.01.52.11,1.04.29,1.53-2.27.34-3.94,2.31-3.91,4.6v1.27h-20.35c-.85,0-1.53.69-1.53,1.53s.69,1.53,1.53,1.53ZM92.99,46.51c1.06-3.33,4.17-5.57,7.67-5.52,4.43-.03,8.04,3.54,8.07,7.97.03,4.43-3.54,8.04-7.97,8.07-2.41.02-4.7-1.05-6.23-2.91v-3.27c-.03-1.57-.57-3.1-1.53-4.34ZM92.99,75.65l1.53-1.53,1.53,1.53c1.04,1.06,2.74,1.08,3.8.04.52-.51.81-1.21.81-1.94v-7.67h4.09c.85,0,1.53.69,1.53,1.53v17.88c.01.75-.53,1.41-1.27,1.53h-21.01c-.74-.13-1.28-.78-1.27-1.53v-17.84c0-.85.69-1.53,1.53-1.53h4.09v7.67c0,1.09.65,2.06,1.66,2.48.33.13.69.2,1.04.2.7,0,1.38-.28,1.89-.77l.05-.06ZM91.46,72.83v-6.7h6.13v6.76l-1.2-1.18c-1.05-1.04-2.74-1.04-3.79,0l-1.15,1.12ZM99.02,100.12l-2.36-2.33c-1.16-1.16-3.04-1.17-4.21,0,0,0,0,0,0,0l-2.22,2.38v-10.08h8.7l.11,10.09-1.09,1.09,1.09-1.09v-.06ZM108.42,89.99c.85,0,1.53.69,1.53,1.53v24.44c0,.85-.69,1.53-1.53,1.53h-27.77c-.85,0-1.53-.69-1.53-1.53v-24.38c0-.85.69-1.53,1.53-1.53h6.43v10.14c.09,1.69,1.53,2.99,3.22,2.91.7-.04,1.37-.31,1.89-.78l2.24-2.35,2.36,2.35h0c.56.55,1.31.86,2.1.87.39,0,.79-.08,1.15-.23,1.11-.48,1.84-1.57,1.86-2.78v-10.09h3.36l3.17-.11ZM114.03,48.93v.54c-.12,1.66.71,3.25,2.15,4.09l.15.09c.34.21.57.57.63.97.1.35.04.73-.15,1.04l-2.36,4.11c-.18.32-.49.55-.84.64-.36.1-.74.05-1.06-.14l-.15-.08c-1.4-.79-3.12-.76-4.48.09-.38.25-.78.48-1.2.67-.86.48-1.53,1.23-1.92,2.13h-10.37v-4.89c5.09,3.39,11.96,2.01,15.35-3.08,3.39-5.09,2.01-11.96-3.08-15.35-1.82-1.21-3.95-1.86-6.14-1.86-4.33-.02-8.27,2.51-10.06,6.46-1.06-.57-2.24-.87-3.44-.89h-2.84c-.11-.37-.07-.78.12-1.12l2.38-4.09c.37-.62,1.16-.85,1.81-.52l.15.11c1.41.87,3.19.87,4.6,0,.38-.25.77-.46,1.13-.66,1.51-.77,2.44-2.34,2.39-4.03,0-.76.62-1.38,1.38-1.38,0,0,.01,0,.02,0h4.74c.78,0,1.41.64,1.4,1.42,0,.04,0,.08,0,.11.07,1.57.95,2.98,2.33,3.73.41.21.8.43,1.17.66,1.41.87,3.19.87,4.6,0,.67-.38,1.52-.15,1.9.52l2.42,4.13c.19.32.25.7.15,1.06-.09.36-.32.66-.64.84l-.14.09c-1.44.86-2.28,2.46-2.16,4.14.02.18.02.35.02.51l.03-.06ZM87.42,105.49h-3.36c-1.69,0-3.07,1.37-3.07,3.07v3.34c0,1.69,1.37,3.07,3.07,3.07h3.36c1.69,0,3.07-1.37,3.07-3.07v-3.34c0-1.69-1.37-3.07-3.07-3.07ZM84.06,111.9v-3.34h3.36v3.34h-3.36ZM85.75,81.11h7.15c.85,0,1.53.69,1.53,1.53s-.69,1.53-1.53,1.53h-7.15c-.85,0-1.53-.69-1.53-1.53s.69-1.53,1.53-1.53Z"/></svg>