<svg width="45" height="45" viewBox="0 0 45 45" fill="none" xmlns="http://www.w3.org/2000/svg">
<path d="M22.5 45C34.9264 45 45 34.9264 45 22.5C45 10.0736 34.9264 0 22.5 0C10.0736 0 0 10.0736 0 22.5C0 34.9264 10.0736 45 22.5 45Z" fill="url(#paint0_linear_208_158)"/>
<g clip-path="url(#clip0_208_158)">
<path d="M16.3772 28.5361C16.5655 28.4527 16.7843 28.5382 16.8673 28.7274C16.9504 28.9166 16.8653 29.1363 16.6769 29.2197C16.2901 29.3906 15.889 29.4517 15.4779 29.411C15.2713 29.3906 15.0647 29.3438 14.8561 29.2726C14.8642 29.3581 14.8743 29.4435 14.8865 29.5269C14.9229 29.8016 14.9715 30.0824 15.0343 30.3692C15.0566 30.4689 15.0363 30.5666 14.9877 30.6459C14.7751 31.0752 14.6697 31.4353 14.6495 31.7323C14.6292 32.0436 14.7123 32.2776 14.8763 32.4444C15.0566 32.6296 15.3422 32.7516 15.7027 32.8188C16.2759 32.9266 17.0091 32.894 17.8071 32.7496C18.0927 32.6987 18.3985 32.6336 18.7165 32.5543C19.0082 32.481 19.2998 32.3997 19.5875 32.3061C20.0492 32.1576 20.5009 31.9805 20.9161 31.7751C21.2807 31.594 21.6129 31.3926 21.8903 31.1688C22.0504 31.0406 22.2853 31.0671 22.4129 31.2278C22.5405 31.3885 22.5142 31.6245 22.3542 31.7527C22.0342 32.009 21.6554 32.2389 21.2442 32.4444C20.8493 32.6397 20.4219 32.8127 19.9844 32.9591C19.9925 33.2074 19.9824 33.4556 19.9581 33.7058C19.9237 34.0517 19.8629 34.3914 19.7738 34.7231C19.7211 34.9224 19.5166 35.0404 19.3181 34.9875C19.1196 34.9347 19.0021 34.7292 19.0548 34.5298C19.1338 34.2307 19.1905 33.9316 19.2188 33.6346C19.233 33.4861 19.2411 33.3355 19.2431 33.185C19.1257 33.2175 19.0082 33.248 18.8927 33.2765C18.5727 33.3559 18.2507 33.425 17.9367 33.48C17.0516 33.6387 16.2273 33.6753 15.565 33.5492C15.0607 33.4535 14.6414 33.2643 14.3477 32.9632C14.0358 32.6458 13.8738 32.2227 13.9082 31.6815C13.9325 31.3132 14.05 30.888 14.2809 30.3997C14.2282 30.1495 14.1857 29.8891 14.1492 29.6205C14.1087 29.3153 14.0824 29.0061 14.0723 28.6928V28.6867C14.0702 28.6724 14.0662 28.6582 14.0662 28.644C14.0115 28.0723 14.0054 27.5148 13.9973 26.9513L13.9953 26.7946L13.1264 26.762H13.1183C12.8874 26.7559 12.6808 26.6888 12.5086 26.5749C12.3446 26.467 12.2129 26.3185 12.1258 26.1395C12.0408 25.9686 11.9962 25.7692 12.0003 25.5515C12.0063 25.2504 12.1076 24.9127 12.3284 24.5668L13.2621 22.6503C13.7198 21.7104 13.7158 21.5863 13.6955 21.0919C13.6874 20.8701 13.6753 20.5873 13.6894 20.1621C13.7057 19.6555 13.7624 19.1713 13.8717 18.7176C13.9487 18.3941 14.054 18.0869 14.1877 17.798L12.4864 17.0534C12.298 16.972 12.2129 16.7523 12.2939 16.5631C12.3061 16.5366 12.3182 16.5142 12.3344 16.4919C16.3853 10.9458 20.9627 9.41789 24.8312 10.1849C27.0916 10.6325 29.1049 11.8654 30.63 13.5418C32.1531 15.2142 33.1881 17.3301 33.496 19.5457C34.0003 23.1895 32.544 27.0916 28.0618 29.7324C28.0213 29.7548 27.9808 29.7711 27.9382 29.7792C27.9403 30.3346 27.9747 30.8717 28.0375 31.3946C28.1631 32.4261 28.4041 33.3925 28.7443 34.2999C28.8173 34.4932 28.72 34.7068 28.5276 34.78C28.3352 34.8533 28.1225 34.7556 28.0496 34.5623C27.6871 33.5959 27.4319 32.5726 27.3002 31.4841C27.1686 30.3997 27.1585 29.2482 27.284 28.0194C27.3043 27.8139 27.4866 27.6654 27.6911 27.6857C27.8957 27.7061 28.0436 27.8892 28.0233 28.0946C27.9949 28.3754 27.9727 28.6521 27.9585 28.9247C31.9263 26.4691 33.2185 22.9392 32.7628 19.6474C32.4772 17.5824 31.509 15.6069 30.0872 14.0444C28.6633 12.4819 26.7898 11.3344 24.6895 10.9173C21.1653 10.2195 16.9888 11.5948 13.2135 16.559L14.8318 17.269C14.8541 17.2772 14.8743 17.2874 14.8966 17.2996C15.0728 17.4054 15.1295 17.6353 15.0222 17.8123C14.8257 18.1398 14.686 18.504 14.5928 18.8946C14.4956 19.2974 14.447 19.7308 14.4308 20.1865C14.4186 20.5833 14.4287 20.8538 14.4368 21.0634C14.4632 21.7043 14.4692 21.867 13.9284 22.9779L12.9927 24.9005C12.9846 24.9188 12.9745 24.9371 12.9644 24.9554C12.8165 25.1833 12.7476 25.3908 12.7456 25.5658C12.7436 25.6593 12.7618 25.7428 12.7942 25.8099C12.8185 25.8689 12.8611 25.9177 12.9117 25.9503C12.9725 25.991 13.0494 26.0133 13.1385 26.0174H13.1527L14.372 26.0622C14.5685 26.0683 14.7265 26.229 14.7305 26.4263C14.7346 26.5932 14.7366 26.7681 14.7386 26.9411C14.7447 27.4416 14.7528 27.94 14.7933 28.4405C15.0546 28.5646 15.3078 28.6419 15.5528 28.6663C15.8344 28.6969 16.1098 28.6541 16.3772 28.5361ZM22.7836 17.2751C22.8605 17.1978 22.9537 17.1592 23.061 17.1592C23.1664 17.1592 23.2616 17.1999 23.3385 17.2751L23.7578 17.6963C23.8712 17.623 23.9907 17.5579 24.1143 17.503C24.2378 17.444 24.3654 17.3972 24.493 17.3525V16.7055C24.493 16.5956 24.5295 16.5041 24.6064 16.4268C24.6834 16.3494 24.7745 16.3128 24.8839 16.3128H25.6921C25.7933 16.3128 25.8845 16.3494 25.9655 16.4268C26.0424 16.5041 26.0809 16.5956 26.0809 16.7055V17.2975C26.2146 17.3301 26.3463 17.3708 26.4739 17.4176C26.6015 17.4644 26.721 17.5234 26.8344 17.5864L27.3002 17.1266C27.3731 17.0493 27.4602 17.0086 27.5696 17.0086C27.6749 17.0086 27.7661 17.0493 27.8471 17.1266L28.4102 17.6963C28.4871 17.7736 28.5256 17.8672 28.5256 17.975C28.5256 18.0808 28.4851 18.1764 28.4102 18.2537L27.9909 18.6749C28.0638 18.7888 28.1246 18.9089 28.1833 19.033C28.242 19.1571 28.2886 19.2852 28.3332 19.4175H28.9773C29.0866 19.4175 29.1778 19.4541 29.2548 19.5314C29.3317 19.6087 29.3682 19.7003 29.3682 19.8101V20.6219C29.3682 20.7236 29.3317 20.8152 29.2548 20.8966C29.1778 20.9739 29.0866 21.0125 28.9773 21.0125H28.3879C28.3555 21.1468 28.315 21.2791 28.2684 21.4072C28.2218 21.5354 28.1631 21.6595 28.1003 21.7795L28.558 22.2393C28.635 22.3126 28.6735 22.4001 28.6735 22.5099C28.6735 22.6157 28.633 22.7073 28.558 22.7887L27.9909 23.3665C27.9139 23.4397 27.8208 23.4763 27.7134 23.4763C27.6081 23.4763 27.5129 23.4397 27.4359 23.3665L27.0167 22.9392C26.9032 23.0124 26.7837 23.0735 26.6602 23.1325C26.5366 23.1915 26.409 23.2383 26.2814 23.283V23.93C26.2814 24.0399 26.245 24.1314 26.168 24.2087C26.0911 24.286 25.9999 24.3227 25.8905 24.3227H25.0844C24.9832 24.3227 24.892 24.286 24.811 24.2087C24.734 24.1314 24.6955 24.0399 24.6955 23.93V23.338C24.5619 23.3054 24.4302 23.2647 24.3026 23.2179C24.175 23.1711 24.0515 23.1121 23.932 23.0491L23.4742 23.5089C23.4013 23.5862 23.3102 23.6269 23.2008 23.6269C23.0914 23.6269 23.0003 23.5862 22.9274 23.5089L22.3521 22.9392C22.2792 22.8578 22.2428 22.7683 22.2428 22.6605C22.2428 22.5547 22.2792 22.4591 22.3521 22.3818L22.7775 21.9606C22.7046 21.8467 22.6418 21.7266 22.5851 21.6025C22.5284 21.4784 22.4797 21.3503 22.4352 21.2221H21.7911C21.6817 21.2221 21.5906 21.1855 21.5136 21.1082C21.4367 21.0308 21.4002 20.9393 21.4002 20.8294V20.0177C21.4002 19.9159 21.4367 19.8244 21.5136 19.743C21.5906 19.6657 21.6817 19.627 21.7911 19.627H22.3805C22.4129 19.4948 22.4534 19.3666 22.5 19.2364C22.5466 19.1042 22.6053 18.9841 22.6681 18.8682L22.2104 18.4002C22.1334 18.327 22.0949 18.2395 22.0949 18.1296C22.0949 18.0238 22.1354 17.9323 22.2104 17.8509L22.7775 17.2853L22.7836 17.2751ZM18.3114 21.6351C18.3621 21.5985 18.4127 21.5883 18.4715 21.5985C18.5302 21.6086 18.5768 21.6392 18.6092 21.69L18.7975 21.9565C18.8664 21.9281 18.9353 21.9057 19.0082 21.8833C19.0811 21.865 19.154 21.8507 19.231 21.8385L19.2938 21.4886C19.3039 21.4296 19.3343 21.3828 19.3809 21.3503C19.4274 21.3177 19.4821 21.3055 19.5409 21.3136L19.9784 21.3909C20.033 21.4011 20.0796 21.4316 20.1161 21.4784C20.1485 21.5252 20.1627 21.5802 20.1525 21.6392L20.0979 21.9606C20.1667 21.9891 20.2356 22.0257 20.2984 22.0623C20.3632 22.103 20.4219 22.1437 20.4807 22.1864L20.7764 21.981C20.823 21.9443 20.8756 21.9342 20.9323 21.9443C20.9911 21.9545 21.0336 21.985 21.0701 22.0359L21.3253 22.398C21.3617 22.4489 21.3718 22.4998 21.3617 22.5588C21.3516 22.6178 21.3212 22.6645 21.2706 22.6971L21.0052 22.8863C21.0336 22.9555 21.0559 23.0247 21.0782 23.0979C21.0964 23.1711 21.1106 23.2444 21.1227 23.3217L21.4711 23.3848C21.5298 23.3949 21.5764 23.4255 21.6088 23.4722C21.6412 23.519 21.6534 23.574 21.6453 23.633L21.5683 24.0724C21.5582 24.1274 21.5278 24.1742 21.4812 24.2108C21.4346 24.2433 21.3799 24.2576 21.3212 24.2474L21.0012 24.1925C20.9728 24.2616 20.9364 24.3308 20.8999 24.3939C20.8594 24.459 20.8189 24.5221 20.7764 24.5811L20.9809 24.874C21.0174 24.9208 21.0275 24.9717 21.0174 25.0307C21.0073 25.0897 20.9769 25.1324 20.9263 25.169L20.5657 25.4294C20.5151 25.462 20.4645 25.4742 20.4057 25.462C20.347 25.4518 20.3004 25.4213 20.268 25.3786L20.0796 25.108C20.0108 25.1365 19.9419 25.1589 19.869 25.1812C19.7961 25.1995 19.7232 25.2138 19.6462 25.226L19.5834 25.5759C19.5733 25.6349 19.5429 25.6817 19.4963 25.7143C19.4497 25.7468 19.395 25.759 19.3363 25.7509L18.8988 25.6736C18.8441 25.6634 18.7975 25.6329 18.7611 25.5861C18.7287 25.5393 18.7145 25.4844 18.7246 25.4254L18.7793 25.1039C18.7104 25.0754 18.6416 25.0388 18.5788 25.0022C18.514 24.9615 18.4512 24.9208 18.3925 24.8781L18.1008 25.0836C18.0542 25.1202 18.0016 25.1304 17.9408 25.1202C17.8821 25.11 17.8355 25.0795 17.8031 25.0327L17.5438 24.6706C17.5114 24.6197 17.4993 24.5688 17.5114 24.5098C17.5215 24.4508 17.5479 24.4041 17.5944 24.3715L17.8679 24.1823C17.8395 24.1131 17.8172 24.0439 17.795 23.9707C17.7767 23.8975 17.7626 23.8242 17.7504 23.7469L17.402 23.6838C17.3433 23.6737 17.2967 23.6431 17.2643 23.5964C17.2319 23.5496 17.2197 23.4946 17.2278 23.4356L17.3048 22.9962C17.3149 22.9412 17.3453 22.8944 17.3919 22.8578C17.4385 22.8212 17.4932 22.811 17.5519 22.8212L17.8719 22.8761C17.9003 22.807 17.9347 22.7419 17.9732 22.6747C18.0137 22.6096 18.0542 22.5465 18.0967 22.4916L17.8922 22.1946C17.8557 22.1478 17.8456 22.0949 17.8557 22.0379C17.8659 21.9789 17.8962 21.9362 17.9469 21.8996L18.3074 21.6432L18.3114 21.6351ZM19.5713 22.7541C19.4659 22.7358 19.3647 22.7398 19.2614 22.7622C19.1601 22.7887 19.0689 22.8273 18.9879 22.8822C18.9069 22.9412 18.8381 23.0145 18.7813 23.102C18.7226 23.1895 18.6861 23.2891 18.6679 23.3949C18.6497 23.5007 18.6537 23.6025 18.676 23.7062C18.7023 23.8079 18.7408 23.8995 18.7955 23.9809C18.8543 24.0623 18.9272 24.1314 19.0143 24.1884C19.1014 24.2474 19.2006 24.284 19.3059 24.3023C19.4112 24.3206 19.5125 24.3166 19.6158 24.2942C19.7171 24.2677 19.8082 24.2291 19.8892 24.1742C19.9703 24.1152 20.0391 24.0419 20.0958 23.9544C20.1546 23.8669 20.191 23.7673 20.2093 23.6615C20.2275 23.5557 20.2234 23.4539 20.2012 23.3502C20.1748 23.2485 20.1363 23.1569 20.0817 23.0755C20.0229 22.9962 19.95 22.925 19.8629 22.868C19.7738 22.809 19.6766 22.7724 19.5713 22.7541ZM25.3862 18.7176C25.1675 18.7176 24.9649 18.7583 24.7685 18.8417C24.576 18.9251 24.4079 19.0391 24.2621 19.1815C24.1203 19.3239 24.0069 19.4968 23.9239 19.6901C23.8408 19.8874 23.8003 20.0929 23.8003 20.3106C23.8003 20.5304 23.8408 20.7338 23.9239 20.9312C24.0069 21.1244 24.1203 21.2933 24.2621 21.4398C24.4039 21.5822 24.576 21.6961 24.7685 21.7795C24.9609 21.863 25.1695 21.9036 25.3862 21.9036C25.605 21.9036 25.8075 21.863 26.004 21.7795C26.1964 21.6961 26.3645 21.5822 26.5103 21.4398C26.6521 21.2974 26.7655 21.1265 26.8486 20.9312C26.9316 20.7379 26.9721 20.5283 26.9721 20.3106C26.9721 20.0909 26.9316 19.8874 26.8486 19.6901C26.7655 19.4968 26.6521 19.328 26.5103 19.1815C26.3685 19.0391 26.1964 18.9251 26.004 18.8417C25.8075 18.7583 25.605 18.7176 25.3862 18.7176Z" fill="white"/>
</g>
<defs>
<linearGradient id="paint0_linear_208_158" x1="22.5" y1="0" x2="7.02" y2="35.595" gradientUnits="userSpaceOnUse">
<stop stop-color="#3E3E3E"/>
<stop offset="1" stop-color="#1A1A1A"/>
</linearGradient>
<clipPath id="clip0_208_158">
<rect width="21.5909" height="25" fill="white" transform="translate(12 10)"/>
</clipPath>
</defs>
</svg>
