<svg width="45" height="45" viewBox="0 0 45 45" fill="none" xmlns="http://www.w3.org/2000/svg">
<path d="M22.5 45C34.9264 45 45 34.9264 45 22.5C45 10.0736 34.9264 0 22.5 0C10.0736 0 0 10.0736 0 22.5C0 34.9264 10.0736 45 22.5 45Z" fill="url(#paint0_linear_200_47)"/>
<g clip-path="url(#clip0_200_47)">
<path fill-rule="evenodd" clip-rule="evenodd" d="M11.5256 13H33.4744C34.3084 13 35 13.715 35 14.5771V29.4229C35 30.285 34.3084 31 33.4744 31H11.5256C10.6916 31 10 30.285 10 29.4229V14.5771C10 13.715 10.6916 13 11.5256 13ZM24.2189 26.3107H30.0163V27.1519H24.2189V26.3107ZM24.2189 24.1659H32.1725V25.007H24.2189V24.1659ZM28.7347 20.3598H29.8739C29.9349 20.3598 29.9756 20.4019 29.9756 20.465V22.778C29.9756 22.8411 29.9349 22.8832 29.8739 22.8832H28.7347C28.6737 22.8832 28.633 22.8411 28.633 22.778V20.465C28.633 20.4229 28.6737 20.3598 28.7347 20.3598ZM24.3409 18.9509H25.4801C25.5411 18.9509 25.5818 18.993 25.5818 19.0561V22.7991C25.5818 22.8621 25.5411 22.9042 25.4801 22.9042H24.3409C24.2799 22.9042 24.2392 22.8621 24.2392 22.7991V19.0561C24.2189 18.993 24.2799 18.9509 24.3409 18.9509ZM26.5378 18.1519H27.677C27.738 18.1519 27.7787 18.1939 27.7787 18.257V22.7991C27.7787 22.8621 27.738 22.9042 27.677 22.9042H26.5378C26.4768 22.9042 26.4361 22.8621 26.4361 22.7991V18.257C26.4361 18.1939 26.4768 18.1519 26.5378 18.1519ZM17.9943 23.1355L21.4524 23.1986C21.4524 24.4813 20.8421 25.6589 19.8251 26.3738L17.9943 23.1355ZM17.6485 22.5257L17.6078 18.3621V18.0888L17.8723 18.1098C18.1977 18.1308 18.5232 18.1939 18.8283 18.278C19.1334 18.3621 19.4182 18.4883 19.703 18.6355C21.1066 19.3925 22.083 20.9065 22.1644 22.6308L22.1847 22.9042H21.9203L17.9129 22.778H17.6892L17.6485 22.5257ZM18.096 18.6145L18.1367 22.2734L21.6558 22.3785C21.5134 20.9486 20.6591 19.7079 19.4793 19.0561C19.2352 18.9299 18.9707 18.8248 18.7063 18.7407C18.4825 18.6986 18.2994 18.6565 18.096 18.6145ZM17.3027 22.9252L19.2758 26.4579C18.6656 26.8154 17.9943 27.0047 17.3027 27.0047C15.1261 27.0047 13.3564 25.1752 13.3564 22.9252C13.3564 20.7383 15.0244 18.9299 17.14 18.8458L17.3027 22.9252ZM33.5151 15.965H11.4646V29.507H33.5151V15.965Z" fill="white"/>
</g>
<defs>
<linearGradient id="paint0_linear_200_47" x1="22.5" y1="0" x2="7.02" y2="35.595" gradientUnits="userSpaceOnUse">
<stop stop-color="#3E3E3E"/>
<stop offset="1" stop-color="#1A1A1A"/>
</linearGradient>
<clipPath id="clip0_200_47">
<rect width="25" height="18" fill="white" transform="translate(10 13)"/>
</clipPath>
</defs>
</svg>
