<svg width="45" height="45" viewBox="0 0 45 45" fill="none" xmlns="http://www.w3.org/2000/svg">
<path d="M22.5 45C34.9264 45 45 34.9264 45 22.5C45 10.0736 34.9264 0 22.5 0C10.0736 0 0 10.0736 0 22.5C0 34.9264 10.0736 45 22.5 45Z" fill="url(#paint0_linear_405_14)"/>
<path d="M18.0687 13.16H13.8352L7 22.1513L13.8352 31.1427H18.0687L11.2335 22.1513L18.0687 13.16ZM26.1764 13.16H30.41L37.2451 22.1513L30.41 31.1427H26.1764L33.0116 22.1513L26.1764 13.16ZM24.2713 10.0095L25.7383 10.3516C25.9697 10.4057 26.1124 10.6371 26.0607 10.8685L20.5227 34.6673C20.4685 34.8962 20.2372 35.0415 20.0058 34.9898L18.5413 34.6477C18.3099 34.5935 18.1672 34.3621 18.2189 34.1308L23.7569 10.3319C23.8111 10.103 24.0424 9.95778 24.2713 10.0095Z" fill="white"/>
<defs>
<linearGradient id="paint0_linear_405_14" x1="22.5" y1="0" x2="7.02" y2="35.595" gradientUnits="userSpaceOnUse">
<stop stop-color="#3E3E3E"/>
<stop offset="1" stop-color="#1A1A1A"/>
</linearGradient>
</defs>
</svg>
