<svg width="45" height="45" viewBox="0 0 45 45" fill="none" xmlns="http://www.w3.org/2000/svg">
<path d="M22.5 45C34.9264 45 45 34.9264 45 22.5C45 10.0736 34.9264 0 22.5 0C10.0736 0 0 10.0736 0 22.5C0 34.9264 10.0736 45 22.5 45Z" fill="url(#paint0_linear_405_15)"/>
<g clip-path="url(#clip0_405_15)">
<path fill-rule="evenodd" clip-rule="evenodd" d="M17.5767 10H26.9213C27.6303 10 28.2805 10.293 28.7444 10.7568C29.2144 11.2288 29.498 11.8738 29.498 12.5879V32.4101C29.498 33.1222 29.2063 33.7752 28.7444 34.2411C28.2744 34.7131 27.6323 34.998 26.9213 34.998H17.5767C16.8677 34.998 16.2174 34.705 15.7536 34.2411C15.2836 33.7691 15 33.1242 15 32.4101V12.5879C15 11.8758 15.2917 11.2227 15.7536 10.7568C16.2256 10.2848 16.8677 10 17.5767 10ZM17.1635 15.5542H27.3365V20.5387H17.1635V15.5542ZM22.6977 28.4733H27.3386V29.4438H22.6977V28.4733ZM17.1635 21.8551H21.4661V23.8387H17.1635V21.8551ZM22.6977 21.851H27.3386V23.8407H22.6977V21.851ZM22.6288 25.1632H27.2697V27.1529H22.6288V25.1632ZM17.2303 25.1652H21.5329V27.1488H17.2303V25.1652ZM17.1635 28.4753H21.4661V29.4438H17.1635V28.4753ZM22.2459 31.818C22.8294 31.818 23.3074 32.29 23.3074 32.8841C23.3074 33.4701 22.8375 33.9502 22.2459 33.9502C21.6625 33.9502 21.1845 33.4782 21.1845 32.8841C21.1865 32.2982 21.6565 31.818 22.2459 31.818ZM15.7313 31.0083H28.7606V14.0141H15.7313V31.0083Z" fill="white"/>
</g>
<defs>
<linearGradient id="paint0_linear_405_15" x1="22.5" y1="0" x2="7.02" y2="35.595" gradientUnits="userSpaceOnUse">
<stop stop-color="#3E3E3E"/>
<stop offset="1" stop-color="#1A1A1A"/>
</linearGradient>
<clipPath id="clip0_405_15">
<rect width="14.5" height="25" fill="white" transform="translate(15 10)"/>
</clipPath>
</defs>
</svg>
