<svg width="45" height="45" viewBox="0 0 45 45" fill="none" xmlns="http://www.w3.org/2000/svg">
<path d="M22.5 45C34.9264 45 45 34.9264 45 22.5C45 10.0736 34.9264 0 22.5 0C10.0736 0 0 10.0736 0 22.5C0 34.9264 10.0736 45 22.5 45Z" fill="url(#paint0_linear_208_101)"/>
<g clip-path="url(#clip0_208_101)">
<path d="M17.6411 10H26.3569C27.0839 10 27.7472 10.3031 28.2252 10.7894C28.7032 11.2777 29 11.9552 29 12.6978V32.3022C29 33.0448 28.7032 33.7223 28.2252 34.2106C27.7492 34.6969 27.0839 35 26.3569 35H17.6411C16.9141 35 16.2508 34.6969 15.7728 34.2106C15.2968 33.7223 15 33.0448 15 32.3022V12.6978C15 11.9552 15.2968 11.2777 15.7748 10.7894C16.2508 10.3031 16.9141 10 17.6411 10ZM24.6122 22.8052C24.6002 21.5682 25.6001 20.9741 25.6459 20.9456C25.0842 20.1054 24.2079 19.9894 23.8951 19.9772C23.1502 19.8999 22.4412 20.4248 22.0627 20.4248C21.6843 20.4248 21.1007 19.9874 20.4833 19.9996C19.6707 20.0118 18.9218 20.4818 18.5035 21.2244C17.659 22.7197 18.2884 24.9353 19.111 26.1479C19.5133 26.7419 19.9913 27.4093 20.6207 27.3848C21.2262 27.3604 21.4553 26.9841 22.1882 26.9841C22.9212 26.9841 23.1263 27.3848 23.7677 27.3726C24.419 27.3604 24.8333 26.7684 25.2316 26.1723C25.6937 25.4826 25.8829 24.8173 25.8949 24.7827C25.8809 24.7766 24.6241 24.2843 24.6122 22.8052ZM23.4092 19.1736C23.7438 18.7606 23.9688 18.1868 23.9071 17.6131C23.4271 17.6335 22.8435 17.9407 22.4989 18.3537C22.1882 18.7199 21.9173 19.3038 21.991 19.8653C22.5248 19.908 23.0745 19.5866 23.4092 19.1736ZM28.3626 31.2952V12.7852H15.6334V31.2911C20.061 31.2931 23.937 31.2952 28.3626 31.2952Z" fill="white"/>
</g>
<defs>
<linearGradient id="paint0_linear_208_101" x1="22.5" y1="0" x2="7.02" y2="35.595" gradientUnits="userSpaceOnUse">
<stop stop-color="#3E3E3E"/>
<stop offset="1" stop-color="#1A1A1A"/>
</linearGradient>
<clipPath id="clip0_208_101">
<rect width="14" height="25" fill="white" transform="translate(15 10)"/>
</clipPath>
</defs>
</svg>
