<svg width="45" height="45" viewBox="0 0 45 45" fill="none" xmlns="http://www.w3.org/2000/svg">
<path d="M22.5 45C34.9264 45 45 34.9264 45 22.5C45 10.0736 34.9264 0 22.5 0C10.0736 0 0 10.0736 0 22.5C0 34.9264 10.0736 45 22.5 45Z" fill="url(#paint0_linear_405_16)"/>
<g clip-path="url(#clip0_405_16)">
<path fill-rule="evenodd" clip-rule="evenodd" d="M20.7781 22.6835L18.5896 26.5355L18.999 28.0624L20.5151 27.6561L20.2075 26.5082L21.4636 26.1717L21.1271 24.9154L22.1832 24.8462L22.2273 23.6208C22.8796 23.8418 23.609 23.8782 24.3329 23.6843C26.228 23.1765 27.3682 21.2823 26.8785 19.4547C26.3887 17.6269 24.4543 16.5568 22.5592 17.0644C20.6642 17.5722 19.5241 19.4663 20.014 21.2941C20.157 21.829 20.4243 22.299 20.7781 22.6835ZM24.8563 34.1558C25.0468 34.3558 25.0386 34.6723 24.8388 34.8626C24.6389 35.053 24.3223 35.0449 24.1319 34.8449L22.5295 33.1566C22.347 32.9648 22.347 32.6657 22.5238 32.4736L24.1262 30.7288C24.3131 30.5256 24.6297 30.5126 24.8329 30.6993C25.0362 30.8861 25.0492 31.2029 24.8624 31.4061L24.188 32.1404C27.3743 31.5709 29.6078 30.0052 30.9628 27.9975C31.9117 26.5914 32.4339 24.9667 32.5542 23.3148C32.6748 21.6563 32.3918 19.9727 31.7302 18.4568C30.6771 16.0435 28.6621 14.0519 25.7873 13.2635C25.5212 13.1911 25.3644 12.9168 25.4368 12.6507C25.509 12.3848 25.7835 12.2277 26.0496 12.3001C29.2432 13.176 31.4795 15.3835 32.6463 18.0574C33.3733 19.7233 33.6843 21.5694 33.5523 23.3852C33.4196 25.2075 32.8422 27.0022 31.7926 28.5574C30.2356 30.8641 27.6479 32.6403 23.9435 33.1941L24.8563 34.1558ZM20.7617 10.8444C20.5712 10.6444 20.5794 10.3279 20.7794 10.1376C20.9792 9.94741 21.2957 9.95535 21.4862 10.1553L23.0885 11.8438C23.271 12.0356 23.2712 12.3349 23.0942 12.5268L21.4921 14.2716C21.3049 14.4748 20.9883 14.4881 20.7851 14.3011C20.582 14.1141 20.5688 13.7975 20.7556 13.5943L21.4805 12.8051C18.8228 13.1235 16.6131 14.5705 15.1165 16.5557C14.0876 17.9205 13.3959 19.5367 13.1261 21.2144C12.8575 22.8862 13.0079 24.6198 13.6622 26.2262C14.6095 28.5525 16.6234 30.619 19.9643 31.8558C20.2237 31.9508 20.357 32.2384 20.2618 32.4979C20.1668 32.7573 19.8791 32.8905 19.6197 32.7955C15.984 31.4495 13.7816 29.1738 12.7343 26.6022C12.0098 24.8228 11.8427 22.9051 12.1396 21.0579C12.4356 19.2165 13.1926 17.4454 14.3177 15.9529C16.0235 13.6905 18.5748 12.0611 21.651 11.7811L20.7617 10.8444ZM23.6548 19.1815C23.3166 19.2722 23.1156 19.6201 23.2063 19.9585C23.2969 20.2968 23.645 20.4976 23.9833 20.4071C24.3217 20.3166 24.5225 19.9685 24.4317 19.6301C24.3412 19.2918 23.9933 19.091 23.6548 19.1815Z" fill="white"/>
</g>
<defs>
<linearGradient id="paint0_linear_405_16" x1="22.5" y1="0" x2="7.02" y2="35.595" gradientUnits="userSpaceOnUse">
<stop stop-color="#3E3E3E"/>
<stop offset="1" stop-color="#1A1A1A"/>
</linearGradient>
<clipPath id="clip0_405_16">
<rect width="21.582" height="25" fill="white" transform="translate(12 10)"/>
</clipPath>
</defs>
</svg>
