<?xml version="1.0" encoding="UTF-8"?><svg id="Layer_1" xmlns="http://www.w3.org/2000/svg" xmlns:xlink="http://www.w3.org/1999/xlink" viewBox="0 0 557.5 557.5"><defs><style>.cls-1{fill:#fff;}.cls-2{fill:url(#linear-gradient);}</style><linearGradient id="linear-gradient" x1="583.5" y1="242.75" x2="26" y2="242.75" gradientTransform="translate(-26 36)" gradientUnits="userSpaceOnUse"><stop offset="0" stop-color="#3c3c3b"/><stop offset="1" stop-color="#191919"/></linearGradient></defs><circle class="cls-2" cx="278.75" cy="278.75" r="278.75"/><path class="cls-1" d="M414.37,208.36l27.63-38.56-42.29-45.63-40.54,24.71c-10.61-6.59-22.12-11.88-34.33-15.76l-7.69-46.88-62.21-2.36-11.22,46.23c-12.16,2.84-24,7.22-35.32,13.06l-38.55-27.73-45.63,42.3,24.63,40.54c-6.68,10.82-11.95,22.34-15.71,34.32l-46.86,7.69-2.36,62.21,46.14,11.22c2.85,12.24,7.23,24.12,13.06,35.41l-27.63,38.56,42.29,45.64,40.54-24.73c10.84,6.69,22.32,11.95,34.23,15.71l7.69,46.85,62.2,2.46,11.23-46.17c12.47-2.95,24.35-7.36,35.42-13.12l38.55,27.72,45.63-42.3-24.63-40.54c6.67-10.82,11.94-22.34,15.71-34.32l46.86-7.69,2.36-62.21-46.14-11.22c-2.85-12.23-7.23-24.12-13.06-35.41h0ZM459.48,306.84l-44.61,7.32-1.05,3.69c-3.83,13.37-9.68,26.15-17.38,37.98l-2.08,3.19,23.44,38.57-31.12,28.84-36.7-26.39-3.36,1.87c-12.05,6.69-25.23,11.58-39.19,14.53l-3.73.79-10.67,43.89-42.42-1.67-7.32-44.62-3.68-1.06c-13.28-3.8-26.02-9.65-37.89-17.38l-3.2-2.08-38.56,23.52-28.85-31.12,26.29-36.68-1.83-3.34c-6.79-12.38-11.66-25.56-14.45-39.18l-.78-3.76-43.93-10.68,1.61-42.42,44.61-7.33,1.06-3.69c3.82-13.37,9.67-26.14,17.37-37.97l2.08-3.19-23.44-38.56,31.12-28.84,36.67,26.37,3.35-1.83c12.42-6.81,25.58-11.67,39.09-14.45l3.76-.78,10.69-44.01,42.42,1.61,7.31,44.59,3.66,1.07c13.68,3.99,26.45,9.86,37.98,17.46l3.21,2.11,38.59-23.52,28.85,31.12-26.29,36.67,1.83,3.34c6.78,12.38,11.65,25.56,14.45,39.18l.78,3.76,43.92,10.68-1.61,42.42h-.01Z"/><path class="cls-1" d="M282.92,168.79c-60.72-2.18-111.82,45.15-114.11,105.78-2.3,60.63,45.15,111.82,105.77,114.12,1.41.05,2.82.08,4.22.08,58.76,0,107.65-46.65,109.89-105.86,2.3-60.63-45.15-111.82-105.77-114.12ZM275.04,376.59c-53.95-2.05-96.18-47.6-94.13-101.56,2-52.7,45.5-94.21,97.8-94.21,1.24,0,2.5.02,3.75.07,53.95,2.05,96.18,47.6,94.13,101.56-2.05,53.95-47.37,96.31-101.56,94.13h0Z"/><path class="cls-1" d="M278.42,287.34c.3,0,.61.01.91.01,9.91,0,19.7-6.15,27.64-17.41,6.8-9.63,11.26-21.87,11.64-31.95.39-10.22-3.22-19.98-10.18-27.48-6.95-7.5-16.41-11.85-26.62-12.23-10.27-.4-19.99,3.23-27.48,10.18-7.5,6.95-11.85,16.41-12.23,26.63-.38,10.07,3.13,22.62,9.19,32.74,7.28,12.19,16.92,19.12,27.14,19.51h0ZM262.55,217.34c4.88-4.52,11.16-6.98,17.77-6.98.34,0,.68,0,1.02.02,6.99.27,13.45,3.24,18.2,8.37,4.76,5.13,7.23,11.79,6.96,18.78-.3,7.74-4,17.72-9.43,25.43-5.66,8.03-12.18,12.48-18.19,12.28-5.89-.22-12.17-5.19-17.21-13.62-4.83-8.09-7.77-18.32-7.48-26.07.27-6.99,3.24-13.45,8.37-18.21h0Z"/><path class="cls-1" d="M307.41,288.32l-14.37-.54-15.67,27.3-13.57-28.42-14.42-.55c-21.69-.7-39.88,16.13-40.7,37.79l-.42,11.14,12.1.45.42-11.13c.58-14.98,13.19-26.8,28.14-26.14l7.11.27,14.91,31.25,1.04,3.96,4.69.17h4.94l1.14-3.83,17.16-29.9,7.05.27c15.02.57,26.77,13.22,26.21,28.2l-.42,11.07,12.1.46.42-11.07c.81-21.65-16.15-39.94-37.84-40.77h0Z"/></svg>