<svg width="41" height="40" viewBox="0 0 41 40" fill="none" xmlns="http://www.w3.org/2000/svg">
<path fill-rule="evenodd" clip-rule="evenodd" d="M20.8428 33.75C21.3317 33.7626 21.7964 33.9657 22.1377 34.316C22.479 34.6662 22.67 35.1359 22.67 35.625C22.67 36.1141 22.479 36.5838 22.1377 36.934C21.7964 37.2843 21.3317 37.4874 20.8428 37.5C20.3539 37.4874 19.8893 37.2843 19.548 36.934C19.2066 36.5838 19.0156 36.1141 19.0156 35.625C19.0156 35.1359 19.2066 34.6662 19.548 34.316C19.8893 33.9657 20.3539 33.7626 20.8428 33.75ZM12.0928 33.75C12.5817 33.7626 13.0464 33.9657 13.3877 34.316C13.729 34.6662 13.92 35.1359 13.92 35.625C13.92 36.1141 13.729 36.5838 13.3877 36.934C13.0464 37.2843 12.5817 37.4874 12.0928 37.5C11.6039 37.4874 11.1393 37.2843 10.798 36.934C10.4566 36.5838 10.2656 36.1141 10.2656 35.625C10.2656 35.1359 10.4566 34.6662 10.798 34.316C11.1393 33.9657 11.6039 33.7626 12.0928 33.75ZM29.5928 33.75C29.1039 33.7626 28.6393 33.9657 28.298 34.316C27.9566 34.6662 27.7656 35.1359 27.7656 35.625C27.7656 36.1141 27.9566 36.5838 28.298 36.934C28.6393 37.2843 29.1039 37.4874 29.5928 37.5C30.0817 37.4874 30.5464 37.2843 30.8877 36.934C31.229 36.5838 31.42 36.1141 31.42 35.625C31.42 35.1359 31.229 34.6662 30.8877 34.316C30.5464 33.9657 30.0817 33.7626 29.5928 33.75Z" fill="url(#paint0_linear_0_487)"/>
<path fill-rule="evenodd" clip-rule="evenodd" d="M20.2188 24.375C20.2188 24.2092 20.2846 24.0503 20.4018 23.9331C20.519 23.8158 20.678 23.75 20.8438 23.75C21.0095 23.75 21.1685 23.8158 21.2857 23.9331C21.4029 24.0503 21.4688 24.2092 21.4688 24.375V33.75C21.4616 33.9109 21.3926 34.0629 21.2761 34.1742C21.1597 34.2855 21.0048 34.3477 20.8438 34.3477C20.6827 34.3477 20.5278 34.2855 20.4114 34.1742C20.2949 34.0629 20.2259 33.9109 20.2188 33.75V24.375ZM15.2188 24.375C15.2188 24.2092 15.2846 24.0503 15.4018 23.9331C15.519 23.8158 15.678 23.75 15.8438 23.75C16.0095 23.75 16.1685 23.8158 16.2857 23.9331C16.4029 24.0503 16.4688 24.2092 16.4688 24.375V28.75C16.4688 28.8661 16.4365 28.9799 16.3755 29.0786C16.3144 29.1773 16.227 29.257 16.1231 29.3088L12.7188 31.0113V33.75C12.7188 33.9158 12.6529 34.0747 12.5357 34.1919C12.4185 34.3092 12.2595 34.375 12.0938 34.375C11.928 34.375 11.769 34.3092 11.6518 34.1919C11.5346 34.0747 11.4688 33.9158 11.4688 33.75V30.625C11.4688 30.3881 11.6025 30.1719 11.8144 30.0662L15.2188 28.3637V24.375ZM25.2188 24.375C25.2188 24.2092 25.2846 24.0503 25.4018 23.9331C25.519 23.8158 25.678 23.75 25.8438 23.75C26.0095 23.75 26.1685 23.8158 26.2857 23.9331C26.4029 24.0503 26.4688 24.2092 26.4688 24.375V28.3637L29.8731 30.0662C29.977 30.118 30.0644 30.1977 30.1255 30.2964C30.1865 30.3951 30.2188 30.5089 30.2188 30.625V33.75C30.2188 33.9158 30.1529 34.0747 30.0357 34.1919C29.9185 34.3092 29.7595 34.375 29.5938 34.375C29.428 34.375 29.269 34.3092 29.1518 34.1919C29.0346 34.0747 28.9688 33.9158 28.9688 33.75V31.0113L25.5644 29.3088C25.4605 29.257 25.3731 29.1773 25.312 29.0786C25.251 28.9799 25.2187 28.8661 25.2188 28.75V24.375Z" fill="url(#paint1_linear_0_487)"/>
<path fill-rule="evenodd" clip-rule="evenodd" d="M27.6731 11.455C27.6619 11.5572 27.6761 11.6606 27.7144 11.7559C27.7527 11.8513 27.8139 11.9358 27.8927 12.0019C27.9714 12.068 28.0652 12.1136 28.1658 12.1348C28.2664 12.1559 28.3707 12.1519 28.4694 12.1231C29.0378 11.9582 29.6268 11.8746 30.2188 11.875C33.6681 11.875 36.4688 14.6756 36.4688 18.125C36.4688 21.5744 33.6681 24.375 30.2188 24.375H10.8438C7.73938 24.375 5.21875 21.8544 5.21875 18.75C5.21875 15.6456 7.73938 13.125 10.8438 13.125C11.3137 13.125 11.77 13.1825 12.2063 13.2913C12.3115 13.318 12.422 13.3167 12.5267 13.2876C12.6313 13.2585 12.7266 13.2026 12.803 13.1253C12.8794 13.0481 12.9343 12.9523 12.9623 12.8473C12.9902 12.7423 12.9903 12.6319 12.9625 12.5269C12.8001 11.906 12.7181 11.2668 12.7188 10.625C12.7188 6.48562 16.0794 3.125 20.2188 3.125C24.3581 3.125 27.7188 6.48562 27.7188 10.625C27.7188 10.9056 27.7031 11.1825 27.6731 11.455ZM26.4688 15V21.25C26.4688 21.4158 26.5346 21.5747 26.6518 21.6919C26.769 21.8092 26.928 21.875 27.0938 21.875C27.2595 21.875 27.4185 21.8092 27.5357 21.6919C27.6529 21.5747 27.7188 21.4158 27.7188 21.25V15C27.7188 14.8342 27.6529 14.6753 27.5357 14.5581C27.4185 14.4408 27.2595 14.375 27.0938 14.375C26.928 14.375 26.769 14.4408 26.6518 14.5581C26.5346 14.6753 26.4688 14.8342 26.4688 15ZM13.9688 21.25C13.9688 21.4158 14.0346 21.5747 14.1518 21.6919C14.269 21.8092 14.428 21.875 14.5938 21.875C14.7595 21.875 14.9185 21.8092 15.0357 21.6919C15.1529 21.5747 15.2188 21.4158 15.2188 21.25V19.375H17.7188V21.25C17.7188 21.4158 17.7846 21.5747 17.9018 21.6919C18.019 21.8092 18.178 21.875 18.3438 21.875C18.5095 21.875 18.6685 21.8092 18.7857 21.6919C18.9029 21.5747 18.9688 21.4158 18.9688 21.25V17.5C18.9688 17.3648 18.9249 17.2332 18.8438 17.125L16.9688 14.625C16.9105 14.5474 16.835 14.4844 16.7483 14.441C16.6615 14.3976 16.5658 14.375 16.4688 14.375C16.3717 14.375 16.276 14.3976 16.1892 14.441C16.1025 14.4844 16.027 14.5474 15.9688 14.625L14.0938 17.125C14.0126 17.2332 13.9688 17.3648 13.9688 17.5V21.25ZM21.4688 18.75H24.5938C24.7595 18.75 24.9185 18.6842 25.0357 18.5669C25.1529 18.4497 25.2188 18.2908 25.2188 18.125V15C25.2188 14.8342 25.1529 14.6753 25.0357 14.5581C24.9185 14.4408 24.7595 14.375 24.5938 14.375H20.8438C20.678 14.375 20.519 14.4408 20.4018 14.5581C20.2846 14.6753 20.2188 14.8342 20.2188 15V21.25C20.2188 21.4158 20.2846 21.5747 20.4018 21.6919C20.519 21.8092 20.678 21.875 20.8438 21.875C21.0095 21.875 21.1685 21.8092 21.2857 21.6919C21.4029 21.5747 21.4688 21.4158 21.4688 21.25V18.75Z" fill="url(#paint2_linear_0_487)"/>
<path fill-rule="evenodd" clip-rule="evenodd" d="M21.4688 15.625H23.9688V17.5H21.4688V15.625ZM17.7188 18.125H15.2188V17.7081L16.4688 16.0419L17.7188 17.7081V18.125Z" fill="url(#paint3_linear_0_487)"/>
<defs>
<linearGradient id="paint0_linear_0_487" x1="20.8428" y1="33.75" x2="20.8428" y2="37.5" gradientUnits="userSpaceOnUse">
<stop stop-color="#F48120"/>
<stop offset="1" stop-color="#BD661D"/>
</linearGradient>
<linearGradient id="paint1_linear_0_487" x1="20.8438" y1="23.75" x2="20.8438" y2="34.375" gradientUnits="userSpaceOnUse">
<stop stop-color="#F48120"/>
<stop offset="1" stop-color="#BD661D"/>
</linearGradient>
<linearGradient id="paint2_linear_0_487" x1="20.8438" y1="3.125" x2="20.8438" y2="24.375" gradientUnits="userSpaceOnUse">
<stop stop-color="#F48120"/>
<stop offset="1" stop-color="#BD661D"/>
</linearGradient>
<linearGradient id="paint3_linear_0_487" x1="19.5938" y1="15.625" x2="19.5938" y2="18.125" gradientUnits="userSpaceOnUse">
<stop stop-color="#F48120"/>
<stop offset="1" stop-color="#BD661D"/>
</linearGradient>
</defs>
</svg>
