<svg width="40" height="41" viewBox="0 0 40 41" fill="none" xmlns="http://www.w3.org/2000/svg">
<path d="M25.2233 31.1702V32.1025H7.92684V7.25547H25.2233V14.3666C25.45 14.2618 25.6971 14.2083 25.9468 14.2102H27.2439V4.05959C27.2439 2.82018 26.2015 1.75488 24.9333 1.75488H8.21096C7.60019 1.75644 7.01488 1.99975 6.583 2.43163C6.15112 2.86351 5.9078 3.44882 5.90625 4.05959V36.509C5.90687 37.1201 6.14989 37.7059 6.58197 38.138C7.01405 38.5701 7.5999 38.8131 8.21096 38.8137H24.9333C25.5447 38.8125 26.1308 38.5694 26.5637 38.1377C26.9966 37.7059 27.2411 37.1204 27.2439 36.509V31.4019H26.0915C25.7865 31.4043 25.4866 31.3242 25.2233 31.1702ZM15.1015 3.92606H18.0427C18.3674 3.92606 18.6221 4.18665 18.6221 4.50547C18.6221 4.82429 18.3674 5.08429 18.0427 5.08429H15.1015C14.7827 5.08429 14.5221 4.82371 14.5221 4.50547C14.5221 4.18724 14.7827 3.92606 15.1015 3.92606ZM18.4886 36.2543H14.6557C14.5795 36.2547 14.504 36.24 14.4336 36.211C14.3632 36.1821 14.2992 36.1395 14.2453 36.0857C14.1914 36.0318 14.1487 35.9679 14.1197 35.8975C14.0907 35.8271 14.0759 35.7516 14.0763 35.6755C14.0763 35.3567 14.3368 35.0961 14.6557 35.0961H18.4886C18.8133 35.0961 19.068 35.3567 19.068 35.6755C19.0687 35.7517 19.0542 35.8274 19.0253 35.8979C18.9965 35.9685 18.9538 36.0326 18.8999 36.0865C18.8459 36.1404 18.7817 36.183 18.7111 36.2118C18.6405 36.2407 18.5649 36.2551 18.4886 36.2543Z" fill="url(#paint0_linear_0_464)"/>
<path d="M20.1469 16.3449C20.201 16.3984 20.265 16.4407 20.3354 16.4695C20.4058 16.4983 20.4812 16.5129 20.5572 16.5125C20.6332 16.5121 20.7085 16.4967 20.7786 16.4673C20.8487 16.4378 20.9123 16.3948 20.9658 16.3408L23.3858 13.8984C23.4933 13.79 23.5537 13.6435 23.5537 13.4908C23.5537 13.3381 23.4933 13.1915 23.3858 13.0831L20.9658 10.6408C20.8564 10.5383 20.7115 10.4822 20.5616 10.4842C20.4117 10.4863 20.2685 10.5464 20.162 10.6518C20.0554 10.7573 19.9939 10.8999 19.9904 11.0498C19.9868 11.1997 20.0414 11.3451 20.1428 11.4555L22.1593 13.4908L20.1428 15.5261C20.0893 15.5801 20.047 15.6441 20.0182 15.7145C19.9894 15.7849 19.9748 15.8603 19.9752 15.9363C19.9756 16.0124 19.991 16.0876 20.0204 16.1577C20.0499 16.2278 20.0929 16.2914 20.1469 16.3449ZM12.9999 10.6372C12.946 10.5835 12.882 10.541 12.8116 10.5121C12.7412 10.4832 12.6658 10.4685 12.5897 10.4689C12.5137 10.4692 12.4384 10.4845 12.3682 10.514C12.2981 10.5435 12.2345 10.5866 12.1811 10.6408L9.76165 13.0831C9.6541 13.1915 9.59375 13.3381 9.59375 13.4908C9.59375 13.6435 9.6541 13.79 9.76165 13.8984L12.1811 16.3408C12.2891 16.4499 12.4361 16.5116 12.5896 16.5124C12.7432 16.5132 12.8908 16.4529 12.9999 16.3449C13.109 16.2368 13.1708 16.0899 13.1715 15.9363C13.1723 15.7828 13.112 15.6352 13.004 15.5261L10.9881 13.4908L13.004 11.4555C13.0575 11.4015 13.0999 11.3374 13.1286 11.267C13.1574 11.1966 13.172 11.1213 13.1716 11.0452C13.1712 10.9692 13.1559 10.8939 13.1264 10.8238C13.0969 10.7537 13.0539 10.6907 12.9999 10.6372ZM17.5069 9.00077L14.1081 17.5537C14.0801 17.6244 14.0662 17.6999 14.0674 17.7759C14.0685 17.852 14.0846 17.927 14.1148 17.9968C14.1449 18.0666 14.1885 18.1298 14.2431 18.1828C14.2977 18.2357 14.3621 18.2774 14.4328 18.3055C14.5035 18.3335 14.579 18.3474 14.6551 18.3462C14.7311 18.3451 14.8061 18.329 14.876 18.2988C14.9458 18.2687 15.0089 18.2251 15.0619 18.1705C15.1149 18.1159 15.1565 18.0514 15.1846 17.9808L18.5834 9.42783C18.6115 9.35715 18.6253 9.28163 18.6242 9.2056C18.623 9.12957 18.6069 9.0545 18.5768 8.9847C18.5466 8.91489 18.503 8.8517 18.4484 8.79875C18.3939 8.74579 18.3294 8.7041 18.2587 8.67606C18.188 8.64802 18.1125 8.63418 18.0365 8.63532C17.9604 8.63646 17.8854 8.65257 17.8156 8.68272C17.7458 8.71287 17.6826 8.75648 17.6296 8.81105C17.5767 8.86562 17.535 8.93009 17.5069 9.00077ZM33.5593 21.4855L32.2875 21.3419C32.1498 20.7971 31.9307 20.2761 31.6375 19.7967V19.7919L32.3899 18.7314C32.5605 18.4902 32.5334 18.1602 32.324 17.9508L31.4128 17.0402C31.3073 16.9345 31.1665 16.8715 31.0174 16.8631C30.8682 16.8548 30.7213 16.9017 30.6046 16.9949L29.6069 17.7914C29.123 17.5047 28.5987 17.2926 28.0516 17.1619L27.8352 15.8737C27.8115 15.7319 27.7382 15.6031 27.6285 15.5102C27.5187 15.4174 27.3795 15.3665 27.2358 15.3666H25.9446C25.6352 15.3666 25.3758 15.599 25.3411 15.9061L25.1969 17.1825C24.6531 17.3226 24.1326 17.5416 23.6522 17.8325L22.5875 17.0761C22.4704 16.9928 22.3276 16.9539 22.1845 16.966C22.0413 16.9782 21.9071 17.0407 21.8058 17.1425L20.8987 18.0525C20.6811 18.2714 20.6611 18.6184 20.8534 18.8596L21.6516 19.8631C21.3614 20.3458 21.1475 20.8704 21.0175 21.4184L19.7334 21.6349C19.4411 21.6843 19.2275 21.9372 19.2275 22.2337V23.5208C19.2275 23.8296 19.4593 24.0896 19.7658 24.1243L21.0328 24.2678C21.1764 24.8208 21.3964 25.3419 21.6875 25.8178V25.8231L20.9369 26.8778C20.7652 27.119 20.7928 27.4502 21.0016 27.6596L21.9134 28.5708C22.1311 28.7884 22.4793 28.8084 22.7205 28.6161L23.724 27.8184C24.2065 28.1041 24.7289 28.3162 25.274 28.4478L25.4905 29.7361C25.5399 30.029 25.7928 30.2431 26.0893 30.2431H27.3811C27.6899 30.2431 27.9499 30.0108 27.9846 29.7037L28.1281 28.4272C28.6737 28.2917 29.195 28.0725 29.6734 27.7772L30.7381 28.5337C30.9793 28.7055 31.3105 28.6772 31.5199 28.4672L32.4269 27.5567C32.6446 27.3384 32.6646 26.9919 32.4722 26.7502L31.6781 25.7514C31.9639 25.2653 32.176 24.7396 32.3075 24.1914L33.5916 23.9749C33.884 23.9255 34.0981 23.6725 34.0981 23.3761V22.089C34.0981 21.7802 33.8664 21.5202 33.5593 21.4855ZM26.6652 25.3014C26.0031 25.3014 25.3681 25.0383 24.8999 24.5702C24.4317 24.102 24.1687 23.467 24.1687 22.8049C24.1696 22.1431 24.433 21.5086 24.9009 21.0406C25.3689 20.5727 26.0034 20.3093 26.6652 20.3084C27.3265 20.3095 27.9603 20.573 28.4274 21.0411C28.8945 21.5092 29.1567 22.1436 29.1564 22.8049C29.1569 23.1324 29.0929 23.4569 28.9679 23.7597C28.843 24.0624 28.6596 24.3376 28.4282 24.5695C28.1969 24.8013 27.9221 24.9853 27.6195 25.1109C27.317 25.2365 26.9927 25.3012 26.6652 25.3014Z" fill="url(#paint1_linear_0_464)"/>
<defs>
<linearGradient id="paint0_linear_0_464" x1="16.5751" y1="1.75488" x2="16.5751" y2="38.8137" gradientUnits="userSpaceOnUse">
<stop stop-color="#F48120"/>
<stop offset="1" stop-color="#BD661D"/>
</linearGradient>
<linearGradient id="paint1_linear_0_464" x1="21.8459" y1="8.63525" x2="21.8459" y2="30.2431" gradientUnits="userSpaceOnUse">
<stop stop-color="#F48120"/>
<stop offset="1" stop-color="#BD661D"/>
</linearGradient>
</defs>
</svg>
