<svg width="40" height="41" viewBox="0 0 40 41" fill="none" xmlns="http://www.w3.org/2000/svg">
<g clip-path="url(#clip0_0_476)">
<path d="M32.7508 23.3084C33.2383 23.7959 33.5414 24.4709 33.5414 25.2154C33.5414 25.9615 33.2383 26.635 32.7508 27.124C32.2617 27.6115 31.5883 27.9123 30.8438 27.9123C30.0977 27.9123 29.4242 27.6115 28.9352 27.124C28.4477 26.635 28.1469 25.9615 28.1469 25.2154C28.1469 24.4717 28.4484 23.7959 28.9352 23.3084C29.4242 22.8209 30.0977 22.5178 30.8438 22.5178C31.5883 22.5178 32.2617 22.8209 32.7508 23.3084ZM40.0016 24.6482V25.7842C40.0016 26.1232 39.7914 26.4131 39.468 26.517L38.6617 26.7779C38.4094 26.86 38.2297 27.0459 38.1594 27.3006C37.9991 27.862 37.7747 28.403 37.4906 28.9131C37.3625 29.1436 37.3578 29.4021 37.4773 29.6373L37.8625 30.3943C38.0172 30.6951 37.9602 31.0475 37.7211 31.2889L36.9172 32.0928C36.6781 32.3318 36.3258 32.3873 36.0227 32.2342L35.2656 31.849C35.0312 31.7271 34.7719 31.7318 34.5414 31.8623C34.0318 32.1468 33.4906 32.3704 32.9289 32.5287C32.6742 32.6021 32.4883 32.7811 32.4086 33.0334L32.1453 33.8396C32.0414 34.1631 31.7531 34.3709 31.4125 34.3709H30.2766C29.9375 34.3709 29.6477 34.1623 29.5438 33.8396L29.2828 33.0334C29.2008 32.7811 29.0148 32.6014 28.7602 32.5287C28.1985 32.3703 27.6573 32.1466 27.1477 31.8623C26.9172 31.7342 26.6586 31.7271 26.4234 31.849L25.6664 32.2342C25.3648 32.3873 25.0133 32.3318 24.7719 32.0928L23.968 31.2889C23.7289 31.0475 23.6734 30.6951 23.8266 30.3943L24.2117 29.6373C24.3336 29.4029 24.3289 29.1436 24.1984 28.9131C23.914 28.4035 23.6903 27.8623 23.532 27.3006C23.4586 27.0459 23.2797 26.86 23.0273 26.7779L22.2211 26.517C21.8977 26.4131 21.6898 26.1225 21.6898 25.7842V24.6482C21.6898 24.3068 21.8977 24.0193 22.2211 23.9154L23.0297 23.6521C23.2797 23.5701 23.4594 23.3865 23.532 23.1318C23.6915 22.5705 23.9151 22.0295 24.1984 21.5193C24.3289 21.2889 24.3336 21.0303 24.2117 20.7951L23.8266 20.0381C23.6734 19.735 23.7289 19.3826 23.968 19.1436L24.7719 18.3396C25.0133 18.1006 25.3656 18.0428 25.6664 18.1982L26.4234 18.5834C26.6578 18.7029 26.9172 18.6982 27.1477 18.5701C27.6523 18.2889 28.193 18.0631 28.7602 17.9014C29.0148 17.8303 29.2008 17.6514 29.2828 17.399L29.5438 16.5928C29.6477 16.2693 29.9383 16.0592 30.2766 16.0592H31.4125C31.7539 16.0592 32.0414 16.2693 32.1453 16.5928L32.4086 17.399C32.4883 17.6514 32.6742 17.8311 32.9289 17.9014C33.4903 18.0616 34.0314 18.286 34.5414 18.5701C34.7719 18.6982 35.0305 18.7029 35.2656 18.5834L36.0227 18.1982C36.3258 18.0436 36.6781 18.1006 36.9172 18.3396L37.7211 19.1436C37.9602 19.3826 38.018 19.735 37.8625 20.0381L37.4773 20.7951C37.3578 21.0295 37.3625 21.2889 37.4906 21.5193C37.7719 22.024 37.9977 22.5646 38.1594 23.1318C38.2305 23.3865 38.4094 23.5725 38.6617 23.6521L39.468 23.9154C39.7914 24.0193 40.0016 24.3068 40.0016 24.6482ZM34.8305 25.2154C34.8305 24.1146 34.3852 23.1186 33.6633 22.3967C32.9414 21.6748 31.9445 21.2271 30.8438 21.2271C29.7406 21.2271 28.7445 21.6748 28.0227 22.3967C27.3008 23.1186 26.8555 24.1154 26.8555 25.2154C26.8555 26.3186 27.3008 27.3146 28.0227 28.0365C28.7445 28.7584 29.7414 29.2037 30.8438 29.2037C31.9445 29.2037 32.9406 28.7584 33.6633 28.0365C34.3852 27.3146 34.8305 26.3178 34.8305 25.2154ZM22.1742 33.7459H19.3547L18.4953 31.3498H12.3453L11.4883 33.7459H8.66875C8.3125 33.7459 8.02188 34.0342 8.02188 34.3904C8.02188 34.7467 8.31172 35.0373 8.66875 35.0373H22.1734C22.5297 35.0373 22.8203 34.7475 22.8203 34.3904C22.8211 34.0334 22.5313 33.7459 22.1742 33.7459ZM20.425 24.2936H0V8.64355C0 7.53184 0.910156 6.62402 2.02188 6.62402H28.8227C29.9344 6.62402 30.8445 7.53184 30.8445 8.64355V14.767H30.2758C29.3766 14.767 28.593 15.3381 28.3156 16.1936L28.1359 16.7404C27.6641 16.8912 27.2055 17.0818 26.7648 17.31L26.2508 17.0482C25.4516 16.6404 24.4922 16.7912 23.857 17.4271L23.0531 18.2311C22.4172 18.8646 22.2672 19.8232 22.6742 20.6248L22.9352 21.1389C22.7094 21.5795 22.5187 22.0381 22.368 22.51L21.8188 22.6873C21.0805 22.9271 20.5531 23.5475 20.425 24.2936ZM8.12266 15.7811L12.3969 13.3936C12.707 13.2209 12.8195 12.8287 12.6469 12.5186C12.4742 12.2084 12.082 12.0959 11.7719 12.2686L6.49688 15.2139C6.3893 15.2734 6.30033 15.3615 6.23984 15.4686C6.06719 15.7787 6.17969 16.1709 6.48984 16.3436L11.7719 19.2936C12.082 19.4662 12.4742 19.3553 12.6469 19.0436C12.8195 18.7334 12.707 18.3412 12.3969 18.1686L8.12266 15.7811ZM16.6688 10.3443C16.3211 10.2646 15.9758 10.4818 15.8961 10.8295L13.693 20.4475C13.6133 20.7928 13.8305 21.1381 14.1758 21.2178C14.5234 21.2975 14.8687 21.0803 14.9484 20.7326L17.1516 11.117C17.2312 10.7693 17.0141 10.424 16.6688 10.3443ZM19.0719 19.2936L24.3539 16.3436C24.6641 16.1709 24.7766 15.7787 24.6039 15.4686C24.5436 15.3614 24.4546 15.2732 24.3469 15.2139L19.0719 12.2686C18.7617 12.0959 18.3695 12.2084 18.1969 12.5186C18.0242 12.8287 18.1367 13.2209 18.4469 13.3936L22.7211 15.7811L18.4469 18.1686C18.1367 18.3412 18.0242 18.7334 18.1969 19.0436C18.3695 19.3553 18.7617 19.4662 19.0719 19.2936ZM21.8203 27.7443C20.9656 27.4678 20.3961 26.6834 20.3961 25.7842V25.585H0V28.0389C0 29.1482 0.910156 30.0584 2.02188 30.0584H22.5664C22.5977 29.974 22.6328 29.8904 22.675 29.8084L22.9359 29.2943C22.7099 28.8532 22.5194 28.3947 22.3664 27.9232L21.8203 27.7443Z" fill="url(#paint0_linear_0_476)"/>
</g>
<defs>
<linearGradient id="paint0_linear_0_476" x1="20.0008" y1="6.62402" x2="20.0008" y2="35.0373" gradientUnits="userSpaceOnUse">
<stop stop-color="#F48120"/>
<stop offset="1" stop-color="#BD661D"/>
</linearGradient>
<clipPath id="clip0_0_476">
<rect width="40" height="40" fill="white" transform="translate(0 0.830078)"/>
</clipPath>
</defs>
</svg>
