<svg width="40" height="41" viewBox="0 0 40 41" fill="none" xmlns="http://www.w3.org/2000/svg">
<path d="M28.9974 29.4971H10.9974C9.98073 29.4971 9.16406 30.3137 9.16406 31.3304V35.9971C9.16406 37.0137 9.98073 37.8304 10.9974 37.8304H28.9974C30.0141 37.8304 30.8307 37.0137 30.8307 35.9971V31.3304C30.8307 30.3137 30.0141 29.4971 28.9974 29.4971ZM12.9974 34.6637C12.4474 34.6637 11.9974 34.2137 11.9974 33.6637C11.9974 33.1137 12.4474 32.6637 12.9974 32.6637C13.5474 32.6637 13.9974 33.1137 13.9974 33.6637C13.9974 34.2137 13.5474 34.6637 12.9974 34.6637ZM27.9974 34.4971H19.9974C19.5307 34.4971 19.1641 34.1304 19.1641 33.6637C19.1641 33.1971 19.5307 32.8304 19.9974 32.8304H27.9974C28.4641 32.8304 28.8307 33.1971 28.8307 33.6637C28.8307 34.1304 28.4641 34.4971 27.9974 34.4971ZM23.9141 18.0804L20.5807 14.7471C20.2474 14.4137 19.7307 14.4137 19.3974 14.7471L16.0641 18.0804C15.7307 18.4137 15.7307 18.9304 16.0641 19.2637C16.3974 19.5971 16.9141 19.5971 17.2474 19.2637L19.1641 17.3471V26.9971C19.1641 27.4471 19.5474 27.8304 19.9974 27.8304C20.4474 27.8304 20.8307 27.4471 20.8307 26.9971V17.3471L22.7474 19.2637C22.8228 19.3424 22.9134 19.405 23.0137 19.4477C23.1139 19.4905 23.2218 19.5125 23.3307 19.5125C23.4397 19.5125 23.5476 19.4905 23.6478 19.4477C23.7481 19.405 23.8386 19.3424 23.9141 19.2637C24.2474 18.9304 24.2474 18.4137 23.9141 18.0804Z" fill="url(#paint0_linear_0_501)"/>
<path d="M29.2646 8.19697C28.9812 8.19697 28.6979 8.19697 28.4146 8.24697C26.9812 4.86364 23.6979 2.64697 20.0146 2.64697C16.3312 2.64697 13.0312 4.86364 11.6146 8.24697C11.3312 8.21364 11.0479 8.19697 10.7646 8.19697C6.21458 8.19697 2.53125 11.897 2.53125 16.4303C2.53125 20.9636 6.23125 24.6636 10.7646 24.6636H17.5312V20.9803C16.9985 21.1763 16.4148 21.1839 15.8771 21.0019C15.3395 20.8198 14.8805 20.459 14.5765 19.9797C14.2725 19.5003 14.1419 18.9313 14.2064 18.3673C14.271 17.8034 14.5268 17.2786 14.9312 16.8803L18.2646 13.547C18.4956 13.3132 18.7707 13.1275 19.0739 13.0008C19.3772 12.8741 19.7026 12.8089 20.0312 12.8089C20.3599 12.8089 20.6853 12.8741 20.9886 13.0008C21.2918 13.1275 21.5669 13.3132 21.7979 13.547L25.1312 16.8803C26.1146 17.8636 26.1146 19.447 25.1312 20.4136C24.6479 20.897 23.9979 21.147 23.3646 21.147C23.0812 21.147 22.7979 21.0803 22.5312 20.9803V24.6636H29.2979C33.8479 24.6636 37.5312 20.9636 37.5312 16.4303C37.5312 11.897 33.8312 8.19697 29.2979 8.19697H29.2646Z" fill="url(#paint1_linear_0_501)"/>
<defs>
<linearGradient id="paint0_linear_0_501" x1="19.9974" y1="14.4971" x2="19.9974" y2="37.8304" gradientUnits="userSpaceOnUse">
<stop stop-color="#F48120"/>
<stop offset="1" stop-color="#BD661D"/>
</linearGradient>
<linearGradient id="paint1_linear_0_501" x1="20.0312" y1="2.64697" x2="20.0312" y2="24.6636" gradientUnits="userSpaceOnUse">
<stop stop-color="#F48120"/>
<stop offset="1" stop-color="#BD661D"/>
</linearGradient>
</defs>
</svg>
