<svg width="55" height="55" viewBox="0 0 55 55" fill="none" xmlns="http://www.w3.org/2000/svg">
<circle cx="27.5" cy="27.5" r="27.5" fill="#F4F4F4"/>
<path d="M21.0323 33.3867C18.791 33.3867 16.9677 35.2099 16.9677 37.4512C16.9677 39.6925 18.791 41.5158 21.0323 41.5158C23.2735 41.5158 25.0968 39.6925 25.0968 37.4512C25.0968 35.2099 23.2735 33.3867 21.0323 33.3867ZM21.0323 40.3545C19.4314 40.3545 18.129 39.0521 18.129 37.4512C18.129 35.8504 19.4314 34.548 21.0323 34.548C22.6331 34.548 23.9355 35.8504 23.9355 37.4512C23.9355 39.0521 22.6331 40.3545 21.0323 40.3545Z" fill="#F4962F"/>
<path d="M21.0322 35.71C20.0719 35.71 19.2903 36.4915 19.2903 37.4519C19.2903 38.4123 20.0719 39.1938 21.0322 39.1938C21.9926 39.1938 22.7742 38.4123 22.7742 37.4519C22.7742 36.4915 21.9926 35.71 21.0322 35.71ZM21.0322 38.0325C20.7123 38.0325 20.4516 37.7718 20.4516 37.4519C20.4516 37.132 20.7123 36.8713 21.0322 36.8713C21.3522 36.8713 21.6129 37.132 21.6129 37.4519C21.6129 37.7718 21.3522 38.0325 21.0322 38.0325Z" fill="#F4962F"/>
<path d="M46 11.7662L44.6169 9H27.6412L26.2581 11.7662V23.7472C25.0085 21.8555 22.8677 20.6129 20.4516 20.6129C16.9921 20.6129 14.1214 23.0882 13.5785 26.4484C11.5654 26.6894 10 28.4075 10 30.4839C10 32.7252 11.8232 34.5484 14.0645 34.5484H15.202C15.2258 34.6663 15.2275 34.7853 15.1811 34.8939C15.1486 34.9688 15.1172 35.0448 15.0876 35.1203C15.0249 35.2829 14.8873 35.4089 14.7114 35.4664C13.9774 35.7079 13.4839 36.3896 13.4839 37.1625V37.7408C13.4839 38.5136 13.9774 39.1953 14.7125 39.4368C14.8879 39.4943 15.0249 39.6203 15.0876 39.7817C15.1172 39.8584 15.148 39.9344 15.1811 40.0099C15.2496 40.1684 15.2415 40.3531 15.159 40.5168C14.8101 41.2066 14.943 42.0381 15.49 42.5845L15.8988 42.9939C16.4457 43.5403 17.2766 43.6738 17.9665 43.3248C18.1302 43.2412 18.3143 43.2337 18.4739 43.3028C18.5488 43.3353 18.6249 43.3666 18.7004 43.3963C18.863 43.459 18.989 43.5966 19.0465 43.7725C19.2886 44.5065 19.9703 45 20.7431 45H21.3214C22.0943 45 22.7759 44.5064 23.0175 43.7714C23.075 43.596 23.201 43.459 23.3624 43.3963C23.439 43.3666 23.5151 43.3359 23.5906 43.3028C23.7491 43.2337 23.9343 43.2424 24.0975 43.3248C24.7873 43.6738 25.6182 43.5403 26.1652 42.9939L26.5745 42.5851C27.1215 42.0387 27.2545 41.2072 26.9055 40.5174C26.8225 40.3537 26.8149 40.169 26.8834 40.0099C26.9159 39.935 26.9473 39.859 26.9769 39.7835C27.0396 39.6209 27.1772 39.4949 27.3532 39.4374C27.5274 39.3799 27.687 39.2963 27.8305 39.1941H46V11.7662ZM32.0181 29.9032C31.7347 27.9366 30.0433 26.4194 28 26.4194C27.8055 26.4194 27.6121 26.4408 27.4194 26.4693V26.4194H28H44.8387V29.9032H32.0181ZM27.4194 25.2581V21.7742H44.8387V25.2581H27.4194ZM27.4194 20.6129V17.129H44.8387V20.6129H27.4194ZM27.4194 15.9677V12.4839H44.8387V15.9677H27.4194ZM43.8992 10.1613L44.4799 11.3226H27.7782L28.3588 10.1613H43.8992ZM11.1613 30.4839C11.1613 28.883 12.4637 27.5806 14.0355 27.5801L14.6248 27.5824L14.6725 27.054C14.943 24.0439 17.4276 21.7742 20.4516 21.7742C23.5209 21.7742 26.0635 24.1763 26.2401 27.2427L26.2848 28.019L27.017 27.7554C27.3386 27.6393 27.6696 27.5806 28 27.5806C29.6008 27.5806 30.9032 28.883 30.9032 30.4839C30.9032 32.0847 29.6008 33.3871 28 33.3871H27.0826C27.0396 32.9928 26.8695 32.6137 26.5739 32.3187L26.1652 31.9099C25.6182 31.363 24.7873 31.23 24.0975 31.579C23.9343 31.662 23.7497 31.6701 23.59 31.601C23.5157 31.5685 23.4396 31.5377 23.3635 31.5075C23.2015 31.4448 23.075 31.3072 23.0175 31.1313C22.7759 30.3968 22.0943 29.9032 21.3214 29.9032H20.7431C19.9703 29.9032 19.2886 30.3968 19.047 31.1319C18.9895 31.3072 18.8635 31.4443 18.701 31.507C18.6249 31.5366 18.5494 31.5674 18.4739 31.6005C18.3154 31.669 18.1308 31.6614 17.967 31.5784C17.2772 31.2294 16.4463 31.3624 15.8994 31.9094L15.4906 32.3181C15.195 32.6137 15.0249 32.9928 14.9819 33.3871H14.0645C12.4637 33.3871 11.1613 32.0847 11.1613 30.4839ZM27.4194 37.7408C27.4194 38.0108 27.2469 38.2488 26.9897 38.3336C26.4834 38.4997 26.0839 38.8748 25.8946 39.3625C25.8702 39.4246 25.8446 39.4868 25.8185 39.5472C25.6118 40.0233 25.6298 40.5674 25.869 41.0406C25.991 41.2815 25.9445 41.5719 25.7535 41.7629L25.3441 42.1723C25.1531 42.3633 24.8622 42.4097 24.6218 42.2878C24.1492 42.0486 23.6045 42.0306 23.129 42.2373C23.068 42.2634 23.0059 42.289 22.9426 42.3139C22.4554 42.5032 22.0809 42.9027 21.9143 43.4096C21.8301 43.6663 21.5914 43.8387 21.3214 43.8387H20.7431C20.4731 43.8387 20.235 43.6663 20.1503 43.409C19.9842 42.9027 19.6091 42.5032 19.1214 42.3139C19.0592 42.2895 18.9971 42.264 18.9367 42.2379C18.7172 42.1421 18.4832 42.0944 18.2481 42.0944C17.9734 42.0944 17.6982 42.1595 17.4433 42.2878C17.2017 42.4092 16.9114 42.3633 16.721 42.1723L16.3116 41.7629C16.1206 41.5719 16.0741 41.2815 16.1961 41.0406C16.4353 40.5674 16.4533 40.0233 16.2466 39.5477C16.2205 39.4868 16.1949 39.4246 16.1699 39.3614C15.9806 38.8742 15.5812 38.4997 15.0743 38.333C14.8176 38.2494 14.6452 38.0108 14.6452 37.7408V37.1625C14.6452 36.8925 14.8176 36.6544 15.0743 36.5696C15.5812 36.4035 15.9806 36.0285 16.1699 35.5407C16.1943 35.4786 16.2199 35.4165 16.246 35.3561C16.4527 34.8799 16.4347 34.3359 16.1955 33.8626C16.0735 33.6217 16.12 33.3308 16.311 33.1397L16.7198 32.731C16.9108 32.5394 17.2012 32.4923 17.4427 32.6154C17.9159 32.8546 18.4612 32.8726 18.9355 32.6659C18.9971 32.6392 19.0592 32.6137 19.1214 32.5899C19.6085 32.4 19.9836 32.0005 20.1503 31.4942C20.2345 31.237 20.4731 31.0645 20.7431 31.0645H21.3214C21.5914 31.0645 21.8295 31.237 21.9143 31.4942C22.0809 32.0005 22.4554 32.4 22.9426 32.5893C23.0047 32.6137 23.0668 32.6392 23.1278 32.6654C23.6034 32.8721 24.148 32.8535 24.6212 32.6148C24.8616 32.4923 25.1525 32.5394 25.3441 32.7304L25.7529 33.1392C25.9439 33.3302 25.9904 33.6211 25.8685 33.8621C25.6292 34.3353 25.6112 34.8794 25.8179 35.3549C25.8441 35.4159 25.8696 35.478 25.8946 35.5413C26.0839 36.0285 26.4834 36.403 26.9903 36.5696C27.2469 36.6538 27.4194 36.8925 27.4194 37.1625V37.7408ZM28.5563 38.0323C28.5719 37.937 28.5806 37.8395 28.5806 37.7408V37.1625C28.5806 36.3896 28.0871 35.7079 27.352 35.4664C27.1766 35.4089 27.0396 35.2829 26.9769 35.1215C26.9473 35.0448 26.9165 34.9688 26.8834 34.8933C26.8364 34.7853 26.8387 34.6663 26.8625 34.5484H28C30.0433 34.5484 31.7347 33.0312 32.0181 31.0645H44.8387V38.0323H28.5563Z" fill="#F4962F"/>
<path d="M29.1613 14.8068C29.482 14.8068 29.7419 14.5468 29.7419 14.2262C29.7419 13.9055 29.482 13.6455 29.1613 13.6455C28.8406 13.6455 28.5807 13.9055 28.5807 14.2262C28.5807 14.5468 28.8406 14.8068 29.1613 14.8068Z" fill="#F4962F"/>
<path d="M31.4839 14.8068C31.8046 14.8068 32.0645 14.5468 32.0645 14.2262C32.0645 13.9055 31.8046 13.6455 31.4839 13.6455C31.1632 13.6455 30.9032 13.9055 30.9032 14.2262C30.9032 14.5468 31.1632 14.8068 31.4839 14.8068Z" fill="#F4962F"/>
<path d="M33.8064 14.8068C34.1271 14.8068 34.3871 14.5468 34.3871 14.2262C34.3871 13.9055 34.1271 13.6455 33.8064 13.6455C33.4858 13.6455 33.2258 13.9055 33.2258 14.2262C33.2258 14.5468 33.4858 14.8068 33.8064 14.8068Z" fill="#F4962F"/>
<path d="M43.0968 19.4513C43.4174 19.4513 43.6774 19.1914 43.6774 18.8707C43.6774 18.55 43.4174 18.29 43.0968 18.29C42.7761 18.29 42.5161 18.55 42.5161 18.8707C42.5161 19.1914 42.7761 19.4513 43.0968 19.4513Z" fill="#F4962F"/>
<path d="M40.7742 19.4513C41.0949 19.4513 41.3548 19.1914 41.3548 18.8707C41.3548 18.55 41.0949 18.29 40.7742 18.29C40.4535 18.29 40.1935 18.55 40.1935 18.8707C40.1935 19.1914 40.4535 19.4513 40.7742 19.4513Z" fill="#F4962F"/>
<path d="M38.4516 19.4513C38.7723 19.4513 39.0323 19.1914 39.0323 18.8707C39.0323 18.55 38.7723 18.29 38.4516 18.29C38.1309 18.29 37.871 18.55 37.871 18.8707C37.871 19.1914 38.1309 19.4513 38.4516 19.4513Z" fill="#F4962F"/>
<path d="M29.1613 24.0968C29.482 24.0968 29.7419 23.8369 29.7419 23.5162C29.7419 23.1955 29.482 22.9355 29.1613 22.9355C28.8406 22.9355 28.5807 23.1955 28.5807 23.5162C28.5807 23.8369 28.8406 24.0968 29.1613 24.0968Z" fill="#F4962F"/>
<path d="M31.4839 24.0968C31.8046 24.0968 32.0645 23.8369 32.0645 23.5162C32.0645 23.1955 31.8046 22.9355 31.4839 22.9355C31.1632 22.9355 30.9032 23.1955 30.9032 23.5162C30.9032 23.8369 31.1632 24.0968 31.4839 24.0968Z" fill="#F4962F"/>
<path d="M33.8064 24.0968C34.1271 24.0968 34.3871 23.8369 34.3871 23.5162C34.3871 23.1955 34.1271 22.9355 33.8064 22.9355C33.4858 22.9355 33.2258 23.1955 33.2258 23.5162C33.2258 23.8369 33.4858 24.0968 33.8064 24.0968Z" fill="#F4962F"/>
<path d="M43.0968 28.7423C43.4174 28.7423 43.6774 28.4824 43.6774 28.1617C43.6774 27.841 43.4174 27.5811 43.0968 27.5811C42.7761 27.5811 42.5161 27.841 42.5161 28.1617C42.5161 28.4824 42.7761 28.7423 43.0968 28.7423Z" fill="#F4962F"/>
<path d="M40.7742 28.7423C41.0949 28.7423 41.3548 28.4824 41.3548 28.1617C41.3548 27.841 41.0949 27.5811 40.7742 27.5811C40.4535 27.5811 40.1935 27.841 40.1935 28.1617C40.1935 28.4824 40.4535 28.7423 40.7742 28.7423Z" fill="#F4962F"/>
<path d="M38.4516 28.7423C38.7723 28.7423 39.0323 28.4824 39.0323 28.1617C39.0323 27.841 38.7723 27.5811 38.4516 27.5811C38.1309 27.5811 37.871 27.841 37.871 28.1617C37.871 28.4824 38.1309 28.7423 38.4516 28.7423Z" fill="#F4962F"/>
<path d="M39.0323 36.8707H43.6774V32.2256H39.0323V36.8707ZM40.1935 33.3869H42.5161V35.7095H40.1935V33.3869Z" fill="#F4962F"/>
<path d="M33.2258 36.8707H37.871V32.2256H33.2258V36.8707ZM34.3871 33.3869H36.7097V35.7095H34.3871V33.3869Z" fill="#F4962F"/>
<path d="M12.9033 12.079V19.4515H14.0645V12.079L15.3234 13.9673L16.2896 13.3228L13.4839 9.11426L10.6782 13.3228L11.6444 13.9673L12.9033 12.079Z" fill="#F4962F"/>
<path d="M16.2896 15.6453L15.3234 16.2898L18.129 20.4984L20.9347 16.2898L19.9685 15.6453L18.7097 17.5336V10.1611H17.5484V17.5336L16.2896 15.6453Z" fill="#F4962F"/>
<path d="M22.1935 12.079V19.4515H23.3548V12.079L24.6137 13.9673L25.5799 13.3228L22.7742 9.11426L19.9685 13.3228L20.9347 13.9673L22.1935 12.079Z" fill="#F4962F"/>
<path d="M20.4516 24.0968V22.9355C17.8904 22.9355 15.8065 25.0195 15.8065 27.5807H16.9677C16.9677 25.6594 18.5303 24.0968 20.4516 24.0968Z" fill="#F4962F"/>
</svg>
