<svg width="55" height="55" viewBox="0 0 55 55" fill="none" xmlns="http://www.w3.org/2000/svg">
<circle cx="27.5" cy="27.5" r="27.5" fill="#F4F4F4"/>
<path d="M36.7807 18.0244H21.2295L20.5143 15.7024C20.4612 15.5172 20.2914 15.3902 20.0976 15.3902H17.4634C17.2216 15.3902 17.0244 15.5875 17.0244 15.8293C17.0244 16.0711 17.2216 16.2683 17.4634 16.2683H19.7735L23.1502 27.2387L22.3167 29.7408C22.2722 29.8763 22.2945 30.022 22.3785 30.1352C22.4591 30.2519 22.5911 30.317 22.7318 30.317H23.416C23.2634 30.576 23.1708 30.8744 23.1708 31.1951C23.1708 32.1657 23.9563 32.9512 24.9269 32.9512C25.8975 32.9512 26.683 32.1657 26.683 31.1951C26.683 30.8744 26.5904 30.576 26.4378 30.317H31.3149C31.1657 30.576 31.0731 30.8744 31.0731 31.1951C31.0731 32.1657 31.8586 32.9512 32.8292 32.9512C33.7999 32.9512 34.5853 32.1657 34.5853 31.1951C34.5853 30.8572 34.4841 30.5451 34.3212 30.2827C34.4756 30.2124 34.5853 30.0581 34.5853 29.878C34.5853 29.6362 34.3881 29.439 34.1463 29.439H23.3423L23.9254 27.6829H34.1463C34.3401 27.6829 34.5099 27.556 34.5682 27.3707L37.2024 18.5902C37.2418 18.4582 37.2161 18.3141 37.1321 18.2044C37.048 18.0894 36.9213 18.0244 36.7807 18.0244ZM25.805 31.1952C25.805 31.6789 25.4106 32.0733 24.9269 32.0733C24.4433 32.0733 24.0489 31.6788 24.0489 31.1952C24.0489 30.7116 24.4433 30.3172 24.9269 30.3172C25.4106 30.3172 25.805 30.7116 25.805 31.1952ZM32.8294 32.0733C32.3458 32.0733 31.9514 31.6788 31.9514 31.1952C31.9514 30.7116 32.3458 30.3172 32.8294 30.3172C33.313 30.3172 33.7075 30.7116 33.7075 31.1952C33.7075 31.6788 33.313 32.0733 32.8294 32.0733ZM33.8224 26.805H23.9342L21.5024 18.9025H36.1926L33.8224 26.805ZM44.3142 11H11.6858C10.7546 11 10 11.7546 10 12.6858V35.6508C10 36.5872 10.7546 37.3418 11.6858 37.3418H24.0488V42.6101H20.9756C20.7338 42.6101 20.5365 42.8073 20.5365 43.0491C20.5365 43.2909 20.7338 43.4881 20.9756 43.4881H35.0244C35.2662 43.4881 35.4635 43.2909 35.4635 43.0491C35.4635 42.8073 35.2662 42.6101 35.0244 42.6101H31.9512V37.3418H44.3142C45.2454 37.3418 46 36.5872 46 35.656V12.6861C46 11.7549 45.2454 11 44.3142 11ZM31.0732 42.6099H24.9268V37.3416H31.0732V42.6099ZM44.3142 36.4635H11.6858C11.2416 36.4635 10.8781 36.1 10.8781 35.6558V32.0733H18.3415C18.5833 32.0733 18.7805 31.8761 18.7805 31.6342C18.7805 31.3924 18.5833 31.1952 18.3415 31.1952H10.8781V12.6859C10.8781 12.2383 11.2416 11.8781 11.6858 11.8781H44.3094C44.757 11.8781 45.1171 12.2417 45.1171 12.6859V31.1952H38.537C38.2952 31.1952 38.098 31.3924 38.098 31.6342C38.098 31.8761 38.2952 32.0733 38.537 32.0733H45.1224V35.6558C45.1224 36.1 44.7584 36.4635 44.3142 36.4635Z" fill="#F48102"/>
</svg>
