<svg width="80" height="80" viewBox="0 0 80 80" fill="none" xmlns="http://www.w3.org/2000/svg">
<circle cx="40" cy="40" r="40" fill="#FFF2E8"/>
<path d="M34.9999 43.9374L48.7499 36.0337L34.9999 28.1249V43.9374Z" fill="#111111"/>
<path d="M40.4978 23.1617C33.7112 23.1617 28.1901 28.6832 28.1901 35.4719C28.1901 42.2584 33.7115 47.7821 40.4978 47.7821C47.2843 47.7821 52.8055 42.2606 52.8055 35.4719C52.8079 28.6829 47.2864 23.1617 40.4978 23.1617ZM44.991 36.8952L37.5519 40.9485C37.2482 41.1135 36.9397 41.1971 36.6336 41.1971C35.7249 41.1971 35.0649 40.4654 35.0649 39.4539V31.4883C35.0649 30.4768 35.7249 29.745 36.6336 29.745C36.9397 29.745 37.2482 29.8287 37.5519 29.9937L44.9934 34.047C45.5937 34.3746 45.9404 34.8935 45.938 35.4721C45.9356 36.0485 45.5912 36.5676 44.991 36.8952Z" fill="#F48120"/>
<path d="M58.5686 35.4703C58.5686 40.6116 56.3662 45.5283 52.5281 48.9571C52.1503 49.2966 52.1168 49.8753 52.454 50.2532C52.6358 50.4564 52.8868 50.5592 53.1403 50.5592C53.3579 50.5592 53.5755 50.4827 53.7501 50.3249C57.9779 46.5466 60.405 41.1325 60.405 35.4675C60.405 29.8025 57.9826 24.3909 53.7574 20.6174C53.3796 20.2779 52.7985 20.3138 52.4614 20.6916C52.1242 21.0694 52.1577 21.6505 52.5355 21.9877C56.3687 25.4168 58.5687 30.3285 58.5687 35.4695L58.5686 35.4703Z" fill="#111111"/>
<path d="M27.2453 50.3176C27.4199 50.4731 27.6398 50.552 27.8575 50.552C28.1109 50.552 28.362 50.4491 28.5438 50.2459C28.8809 49.8681 28.8475 49.287 28.4696 48.9498C24.634 45.5254 22.434 40.6139 22.434 35.4722C22.434 30.3286 24.634 25.4167 28.4696 21.9922C28.8475 21.655 28.8809 21.0739 28.5438 20.6961C28.2066 20.3183 27.6255 20.2848 27.2477 20.622C23.0223 24.3931 20.6001 29.807 20.6001 35.472C20.5953 41.1346 23.0201 46.5466 27.2453 50.3176Z" fill="#111111"/>
<path d="M66.1635 35.4703C66.1635 42.7735 63.0381 49.7535 57.5858 54.6196C57.2079 54.9568 57.1745 55.5379 57.5116 55.9157C57.6934 56.119 57.9445 56.2218 58.1979 56.2218C58.4155 56.2218 58.6332 56.1453 58.8077 55.9875C64.6497 50.7721 68.0001 43.2923 68.0001 35.4675C68.0001 27.6482 64.6522 20.1705 58.8151 14.9524C58.4372 14.6152 57.8562 14.6463 57.519 15.0241C57.1794 15.402 57.2129 15.983 57.5907 16.3202C63.0381 21.196 66.1636 28.1737 66.1636 35.4696L66.1635 35.4703Z" fill="#111111"/>
<path d="M22.185 55.9826C22.3596 56.1405 22.5796 56.217 22.7972 56.217C23.0483 56.217 23.2994 56.1142 23.4811 55.9109C23.8183 55.5331 23.7872 54.952 23.4094 54.6148C17.962 49.7438 14.8365 42.7662 14.8365 35.4704C14.8365 28.177 17.9596 21.1994 23.402 16.3259C23.7798 15.9864 23.8109 15.4077 23.4738 15.0298C23.1342 14.652 22.5531 14.6185 22.1777 14.9581C16.3453 20.1807 13 27.6558 13 35.4708C13 43.2882 16.3478 50.7652 22.185 55.9834V55.9826Z" fill="#111111"/>
<path d="M30.5042 59.9261C28.8447 59.9261 27.4935 61.2748 27.4935 62.9344C27.4935 64.594 28.8446 65.9451 30.5042 65.9451C32.1638 65.9451 33.5125 64.594 33.5125 62.9344C33.5125 61.2773 32.1638 59.9261 30.5042 59.9261Z" fill="#111111"/>
<path d="M13.9183 62.0184C13.4113 62.0184 13 62.4297 13 62.9367C13 63.4436 13.4113 63.8549 13.9183 63.8549H25.7387C25.6837 63.5608 25.6526 63.25 25.6526 62.9367C25.6526 62.6234 25.6837 62.3174 25.7387 62.0184H13.9183Z" fill="#111111"/>
<path d="M67.0819 62.0184H35.2655C35.3205 62.3173 35.3516 62.6234 35.3516 62.9367C35.3516 63.25 35.3205 63.5608 35.2655 63.8549H67.0794C67.5864 63.8549 67.9977 63.4436 67.9977 62.9367C68.0001 62.4273 67.5888 62.0184 67.0819 62.0184Z" fill="#111111"/>
</svg>
