<svg width="80" height="80" viewBox="0 0 80 80" fill="none" xmlns="http://www.w3.org/2000/svg">
<circle cx="40" cy="40" r="40" fill="#FFF2E8"/>
<path d="M63.7526 15.532H32.042C31.3814 15.532 30.7787 15.8021 30.3423 16.2384C29.9084 16.6724 29.636 17.2775 29.636 17.9381V41.1623C29.636 41.8229 29.9084 42.4256 30.3423 42.862C30.7763 43.2959 31.3814 43.5683 32.042 43.5683H51.1409C51.329 43.5683 51.5026 43.6238 51.6472 43.7202L59.5886 47.9538V44.4941C59.5886 43.983 60.0032 43.5683 60.5144 43.5683H63.7498C64.4128 43.5683 65.0155 43.2983 65.4495 42.8644C65.8858 42.428 66.1558 41.8253 66.1558 41.1623V17.9405C66.1558 17.2776 65.8858 16.6748 65.4519 16.2433C65.0155 15.8069 64.4128 15.5369 63.7474 15.5369L63.7526 15.532ZM33.6455 23.6882C33.1344 23.6882 32.7197 23.2735 32.7197 22.7624C32.7197 22.2513 33.1344 21.8366 33.6455 21.8366H42.5101C43.0213 21.8366 43.4359 22.2513 43.4359 22.7624C43.4359 23.2735 43.0213 23.6882 42.5101 23.6882H33.6455ZM19.5612 57.4095C19.0501 57.4095 18.6354 56.9949 18.6354 56.4837C18.6354 55.9726 19.0501 55.558 19.5612 55.558H35.8785C36.3896 55.558 36.8042 55.9726 36.8042 56.4837C36.8042 56.9949 36.3896 57.4095 35.8785 57.4095H19.5612ZM19.5612 46.3026C19.0501 46.3026 18.6354 45.8879 18.6354 45.3768C18.6354 44.8657 19.0501 44.451 19.5612 44.451H25.6246C26.1357 44.451 26.5504 44.8657 26.5504 45.3768C26.5504 45.8879 26.1357 46.3026 25.6246 46.3026H19.5612ZM33.6455 37.2639C33.1344 37.2639 32.7197 36.8492 32.7197 36.3381C32.7197 35.827 33.1344 35.4123 33.6455 35.4123H57.2122C57.7233 35.4123 58.138 35.827 58.138 36.3381C58.138 36.8492 57.7233 37.2639 57.2122 37.2639H33.6455ZM46.2108 23.6907C45.6997 23.6907 45.285 23.276 45.285 22.7649C45.285 22.2538 45.6997 21.8391 46.2108 21.8391H62.1466C62.6577 21.8391 63.0724 22.2538 63.0724 22.7649C63.0724 23.276 62.6577 23.6907 62.1466 23.6907H46.2108ZM19.5581 51.8573C19.047 51.8573 18.6324 51.4426 18.6324 50.9315C18.6324 50.4204 19.047 50.0057 19.5581 50.0057H39.576C40.0871 50.0057 40.5018 50.4204 40.5018 50.9315C40.5018 51.4426 40.0871 51.8573 39.576 51.8573H19.5581ZM33.6424 30.4797C33.1313 30.4797 32.7166 30.065 32.7166 29.5539C32.7166 29.0428 33.1313 28.6282 33.6424 28.6282H62.1466C62.6577 28.6282 63.0724 29.0428 63.0724 29.5539C63.0724 30.065 62.6577 30.4797 62.1466 30.4797H33.6424ZM45.4362 45.4225V59.977C45.4362 60.9462 45.0409 61.8286 44.402 62.465C43.7655 63.1015 42.8831 63.4993 41.9139 63.4993H27.2582L20.1679 67.2796C19.7171 67.5183 19.1602 67.3471 18.9191 66.9011C18.8444 66.7613 18.8106 66.6142 18.8106 66.4671L18.8058 63.4993H17.2098C16.243 63.4993 15.363 63.1039 14.7242 62.465C14.0829 61.8213 13.6875 60.9413 13.6875 59.9794V41.8903C13.6875 40.9283 14.0829 40.0459 14.7218 39.4071C15.3655 38.7657 16.243 38.3704 17.2098 38.3704H27.7742V17.9451C27.7742 16.7734 28.254 15.7078 29.023 14.9363C29.7921 14.1672 30.8602 13.6875 32.0318 13.6875H63.7424C64.9116 13.6875 65.9725 14.1649 66.7464 14.9363L66.7512 14.9411C67.5227 15.7126 68 16.7783 68 17.9451V41.1669C68 42.3337 67.5226 43.3969 66.7512 44.1684L66.7464 44.1733C65.9749 44.9447 64.9092 45.4221 63.7424 45.4221H61.4327V49.4965C61.4279 49.6436 61.3942 49.7906 61.3194 49.9305C61.0807 50.3813 60.5214 50.5501 60.0706 50.309L50.9066 45.4221H45.4266L45.4362 45.4225ZM27.7791 40.2198H17.2147C16.7542 40.2198 16.3347 40.4078 16.0357 40.7068C15.7319 41.0105 15.5439 41.4276 15.5439 41.8881V59.9773C15.5439 60.4354 15.7319 60.8549 16.0309 61.1538C16.3347 61.4576 16.7542 61.6456 17.2147 61.6456H19.7364C20.2475 61.6456 20.6622 62.0603 20.6622 62.5714V64.9269L26.5303 61.7975C26.6774 61.7011 26.851 61.6456 27.0366 61.6456H41.9139C42.372 61.6456 42.7891 61.4576 43.0929 61.1538C43.3943 60.8524 43.5847 60.4329 43.5847 59.9749V45.4203H32.039C30.8673 45.4203 29.7993 44.9405 29.0302 44.1715C28.2587 43.4 27.7814 42.3344 27.7814 41.1627V40.2177L27.7791 40.2198Z" fill="#111111"/>
<path d="M19.2422 45.4727H26.6485" stroke="#F48120" stroke-width="3.5" stroke-linecap="round"/>
<path d="M19.2422 51.0275H40.8438" stroke="#F48120" stroke-width="3.5" stroke-linecap="round"/>
<path d="M19.2422 56.5822H37.1407" stroke="#F48120" stroke-width="3.5" stroke-linecap="round"/>
</svg>
