<svg width="80" height="80" viewBox="0 0 80 80" fill="none" xmlns="http://www.w3.org/2000/svg">
<g clip-path="url(#clip0_1_295)">
<path d="M40 80C62.0914 80 80 62.0914 80 40C80 17.9086 62.0914 0 40 0C17.9086 0 0 17.9086 0 40C0 62.0914 17.9086 80 40 80Z" fill="#FFF2E8"/>
<path d="M40.52 55.766C44.2248 55.766 47.2281 52.7626 47.2281 49.0578C47.2281 45.353 44.2248 42.3497 40.52 42.3497C36.8152 42.3497 33.8118 45.353 33.8118 49.0578C33.8118 52.7626 36.8152 55.766 40.52 55.766Z" fill="#F48120"/>
<path d="M42.5428 47.238C42.0497 46.8569 42.6309 46.1041 43.124 46.4853L45.6562 48.4434C45.9087 48.6363 45.8944 49.0151 45.6467 49.2009L43.1264 51.1519C42.6333 51.533 42.0544 50.7803 42.5451 50.3991L44.5914 48.8173L42.5428 47.238ZM52.3714 43.1741C52.8074 43.8982 53.1718 44.6605 53.4696 45.4514C53.5506 45.6706 53.7197 45.804 53.9508 45.8326L56.5998 46.1613C57.3716 46.259 57.9529 46.9141 57.9529 47.6978V52.0928C57.9529 52.8766 57.3716 53.5317 56.5998 53.6293L54.2296 53.9247C53.9866 53.9557 53.8055 54.1057 53.7341 54.3392C53.5411 54.968 53.3124 55.5636 53.0314 56.1592C52.9337 56.3688 52.9575 56.5951 53.1028 56.7785L54.5345 58.6175C55.0157 59.2369 54.9633 60.1087 54.4107 60.6591L51.2995 63.7702C50.7445 64.3252 49.875 64.3776 49.258 63.894L47.5715 62.5839C47.3785 62.4362 47.1474 62.4124 46.9283 62.5267C46.2732 62.8674 45.6229 63.1461 44.9273 63.3771C44.7034 63.451 44.5557 63.6296 44.5295 63.8678L44.2698 65.9594C44.1722 66.7359 43.517 67.3172 42.7334 67.3125H38.3383C37.5545 67.3172 36.8995 66.736 36.8018 65.9594L36.5422 63.8678C36.5136 63.632 36.3659 63.4533 36.142 63.3771C35.4464 63.1437 34.7985 62.8673 34.1434 62.5267C33.929 62.4124 33.6908 62.4362 33.5002 62.5839L31.8136 63.894C31.1943 64.3752 30.3248 64.3228 29.7721 63.7702L26.661 60.6591C26.1059 60.1088 26.0535 59.2346 26.5371 58.6175L27.9688 56.7785C28.1117 56.5975 28.1379 56.3688 28.0355 56.1592C27.7592 55.5636 27.5305 54.9681 27.3352 54.3392C27.2637 54.1057 27.0827 53.9533 26.8397 53.9247L24.4695 53.6293C23.6929 53.5316 23.1164 52.8765 23.1164 52.0928V47.6978C23.1164 46.914 23.6929 46.2589 24.4695 46.1613L27.116 45.8326C27.3495 45.8016 27.521 45.6706 27.602 45.4514C27.8997 44.6582 28.2642 43.8935 28.7002 43.1741C28.8336 42.9597 28.8193 42.7024 28.662 42.5023L27.6115 41.154C27.1303 40.5394 27.1875 39.6628 27.7354 39.1125L30.1461 36.7017C30.7011 36.1467 31.5706 36.0943 32.1876 36.5779L33.8051 37.8357C33.9956 37.981 34.2196 38.0048 34.4339 37.9C35.1819 37.5331 35.8442 37.2663 36.6422 37.0424C36.4754 36.4683 36.4373 35.8585 36.5302 35.2701H16.0911C13.9757 35.2701 12.8752 32.6784 14.3926 31.1633C14.5451 31.0084 14.7213 30.8774 14.9095 30.7678C14.1615 30.1937 13.6875 29.2957 13.6875 28.2999L13.6899 20.4721C13.6899 18.7617 15.0858 17.3658 16.7914 17.3658H24.6241C26.3345 17.3658 27.7256 18.7617 27.7256 20.4721V28.3024C27.7256 29.1409 27.3945 29.8984 26.8538 30.4558H54.2151C53.6743 29.8984 53.3408 29.1384 53.3408 28.3024L53.3432 20.4721C53.3432 18.7617 54.7392 17.3658 56.4496 17.3658H64.2798C65.9902 17.3658 67.3862 18.7617 67.3862 20.4721V28.3024C67.3862 29.2981 66.9145 30.1962 66.1641 30.7703C67.5457 31.554 67.803 33.4407 66.681 34.5627C66.2451 35.001 65.6424 35.2726 64.9802 35.2726L44.5368 35.2702C44.6273 35.8562 44.5892 36.4684 44.4248 37.0425C45.2181 37.2664 45.8827 37.5332 46.6307 37.9001C46.8451 38.0049 47.0738 37.9811 47.2596 37.8357L48.877 36.578C49.4987 36.0968 50.3682 36.1492 50.9233 36.7018L53.334 39.1126C53.8843 39.6628 53.9391 40.5419 53.4579 41.1541L52.4073 42.5024C52.2525 42.7025 52.238 42.9597 52.3714 43.1741ZM24.6241 18.3234H16.7914C15.6075 18.3234 14.6404 19.2906 14.6404 20.4745V28.3047C14.6404 29.4887 15.6075 30.4582 16.7914 30.4582H24.6241C25.808 30.4582 26.7752 29.4887 26.7752 28.3047V20.4721C26.7752 19.2881 25.8104 18.3234 24.6241 18.3234ZM17.8659 27.6758C17.8659 28.3047 16.9131 28.3047 16.9131 27.6758V24.7124C16.9131 24.0835 17.8659 24.0835 17.8659 24.7124V27.6758ZM21.1843 27.6758C21.1843 28.3047 20.2314 28.3047 20.2314 27.6758V22.6757C20.2314 22.0468 21.1843 22.0468 21.1843 22.6757V27.6758ZM24.5026 27.6758C24.5026 28.3047 23.5498 28.3047 23.5498 27.6758L23.5521 21.1012C23.5521 20.4724 24.505 20.4724 24.505 21.1012L24.5026 27.6758ZM36.6206 13.6875H44.4533C46.1613 13.6875 47.5548 15.0835 47.5548 16.7939V24.6241C47.5548 26.3345 46.1588 27.7305 44.4533 27.7305H36.6206C34.9102 27.7305 33.519 26.3345 33.519 24.6241V16.7939C33.519 15.0811 34.9102 13.6875 36.6206 13.6875ZM44.4533 14.638H36.6206C35.4367 14.638 34.4695 15.6075 34.4695 16.7914V24.6217C34.4695 25.8056 35.4367 26.7751 36.6206 26.7751H44.4533C45.6372 26.7751 46.6043 25.8056 46.6043 24.6217V16.7939C46.6043 15.6076 45.6396 14.638 44.4533 14.638ZM37.6927 23.9928C37.6927 24.6217 36.7398 24.6217 36.7398 23.9928L36.7422 21.0294C36.7422 20.4005 37.695 20.4005 37.695 21.0294L37.6927 23.9928ZM41.0134 23.9928C41.0134 24.6217 40.0605 24.6217 40.0605 23.9928V18.995C40.0605 18.3662 41.0134 18.3662 41.0134 18.995V23.9928ZM44.3317 23.9928C44.3317 24.6217 43.3789 24.6217 43.3789 23.9928L43.3812 17.4206C43.3812 16.7918 44.3341 16.7918 44.3341 17.4206L44.3317 23.9928ZM57.5218 27.6756C57.5218 28.3045 56.5665 28.3045 56.5665 27.6756V24.7122C56.5665 24.0834 57.5218 24.0834 57.5218 24.7122V27.6756ZM60.8425 27.6756C60.8425 28.3045 59.8896 28.3045 59.8896 27.6756V22.6755C59.8896 22.0466 60.8425 22.0466 60.8425 22.6755V27.6756ZM64.1608 27.6756C64.1608 28.3045 63.2079 28.3045 63.2079 27.6756L63.2103 21.101C63.2103 20.4722 64.1632 20.4722 64.1632 21.101L64.1608 27.6756ZM64.2775 18.3233H56.4497C55.2658 18.3233 54.2987 19.2904 54.2987 20.4743V28.3046C54.2987 29.4885 55.2658 30.458 56.4497 30.458H64.28C65.4639 30.458 66.4334 29.4885 66.4334 28.3046V20.4719C66.4334 19.2879 65.4639 18.3233 64.2775 18.3233ZM29.522 43.6672C29.1123 44.3438 28.7692 45.0536 28.4953 45.7826C28.2928 46.3329 27.8164 46.7069 27.2399 46.7784L24.5909 47.1071C24.2884 47.1476 24.0716 47.393 24.0716 47.6979V52.0929C24.0335 52.0929 24.1145 52.6218 24.5909 52.6837L26.9612 52.9791C27.5757 53.0553 28.0689 53.4722 28.2523 54.0629C28.4286 54.637 28.6501 55.2159 28.905 55.759C29.1575 56.2974 29.0908 56.8977 28.7263 57.3622L27.2923 59.2012C27.1112 59.437 27.1255 59.7729 27.3447 59.9873L30.4558 63.0984C30.6702 63.3128 31.0061 63.3319 31.2419 63.1509L32.9285 61.8359C33.4097 61.4596 34.0457 61.4 34.5912 61.6882C35.182 61.9955 35.8204 62.2647 36.4541 62.4791C37.0282 62.6721 37.4236 63.1557 37.4974 63.756L37.7571 65.8475C37.7952 66.1501 38.043 66.3668 38.3479 66.3668H42.7429C43.0455 66.3668 43.2932 66.1525 43.3337 65.8475L43.5934 63.756C43.6672 63.1557 44.0603 62.6721 44.6367 62.4791C45.2704 62.2647 45.9088 61.9979 46.4996 61.6882C47.0475 61.4024 47.6764 61.4596 48.1623 61.8359L49.8489 63.1509C50.0847 63.3319 50.4158 63.3176 50.6326 63.0984L53.7438 59.9873C53.9581 59.7729 53.9796 59.4371 53.7962 59.2012L52.3645 57.3622C52 56.8953 51.9309 56.295 52.1858 55.759C52.4383 55.2159 52.6622 54.6394 52.8385 54.0629C53.0195 53.4722 53.515 53.0577 54.1249 52.9791L56.4975 52.6837C56.9692 52.6218 57.0549 52.0929 57.0168 52.0929V47.6979C57.0168 47.3953 56.7976 47.1476 56.4975 47.1071L53.8485 46.7784C53.272 46.7069 52.7956 46.3329 52.5931 45.7826C52.3192 45.0537 51.9738 44.3414 51.5664 43.6672C51.2329 43.1098 51.271 42.4333 51.6712 41.9187L52.7218 40.5705C52.9076 40.3322 52.8885 40.0035 52.6694 39.7843L50.2586 37.3784C50.0442 37.1592 49.7107 37.1425 49.4749 37.3259L47.855 38.5837C47.3786 38.9553 46.764 39.0173 46.2256 38.7505C45.4657 38.3789 44.8654 38.174 44.065 37.9215C42.5118 40.6228 38.5884 40.6228 37.0355 37.9215C36.2351 38.174 35.6347 38.3788 34.8748 38.7505C34.3341 39.0173 33.7171 38.9553 33.2407 38.5837L31.6232 37.3259C31.3874 37.1401 31.0563 37.1568 30.8395 37.3784L28.4287 39.7843C28.2143 40.0035 28.1929 40.3322 28.3787 40.5705L29.4244 41.9187C29.8104 42.4309 29.8555 43.1122 29.522 43.6672ZM44.2629 34.3173H64.9782C66.2551 34.3173 66.9221 32.757 66.0049 31.8399C65.7429 31.5778 65.3808 31.4158 64.9782 31.4158L16.0917 31.4111C14.8197 31.4111 14.1502 32.9714 15.0674 33.8885C15.3294 34.1506 15.6915 34.3125 16.0917 34.3125H36.8071C38.203 31.0585 42.8667 31.0585 44.2629 34.3173ZM42.7288 33.717C41.5234 32.5164 39.5486 32.5164 38.3456 33.717C37.1426 34.92 37.145 36.8948 38.3456 38.0978C39.5486 39.3008 41.5234 39.2984 42.7288 38.0978C43.9294 36.8948 43.9294 34.92 42.7288 33.717ZM40.5372 42.6071C37.033 42.6071 34.1864 45.4514 34.1864 48.9579C34.1864 52.4644 37.0331 55.3087 40.5372 55.3087C44.0413 55.3087 46.888 52.4644 46.888 48.9579C46.888 45.4514 44.0413 42.6071 40.5372 42.6071ZM47.8411 48.9579C47.8411 52.9885 44.5728 56.257 40.5372 56.257C36.4994 56.257 33.2332 52.9887 33.2332 48.9579C33.2332 44.9273 36.4968 41.6588 40.5372 41.6588C44.5725 41.6588 47.8411 44.9272 47.8411 48.9579ZM40.8421 46.3018C41.0327 45.7062 41.9355 45.9945 41.7473 46.5876L40.2346 51.3329C40.0441 51.9284 39.1412 51.6402 39.3294 51.047L40.8421 46.3018ZM37.9501 46.4852C38.4432 46.1041 39.0221 46.8568 38.5314 47.238L36.4851 48.8198L38.5314 50.4015C39.0245 50.7827 38.4432 51.5355 37.9501 51.1543C37.6405 50.9161 35.4203 49.2248 35.3298 49.1128C35.1725 48.9032 35.2083 48.6078 35.4179 48.4482L37.9501 46.4852Z" fill="#F48120"/>
</g>
<defs>
<clipPath id="clip0_1_295">
<rect width="80" height="80" fill="white"/>
</clipPath>
</defs>
</svg>
