<svg width="45" height="45" viewBox="0 0 45 45" fill="none" xmlns="http://www.w3.org/2000/svg">
<rect width="45" height="45" rx="22.5" fill="url(#paint0_linear_1_16)"/>
<path d="M17.3166 13.6366C17.1274 13.6994 17 13.8752 17 14.0746V15.9254C17 16.1248 17.1274 16.3006 17.3166 16.3634L18.3214 16.6962L18.4945 17.1134L18.0708 18.006C17.9992 18.1569 18.0145 18.3351 18.1118 18.4717C18.5028 19.0209 18.9795 19.4982 19.5288 19.8886C19.6658 19.9865 19.8445 20.0008 19.9945 19.9297L20.8686 19.5148C21.0131 19.5831 21.1612 19.6449 21.3108 19.6985L21.6371 20.6838C21.6994 20.8726 21.8752 21 22.0746 21H23.9254C24.1248 21 24.3006 20.8726 24.3634 20.6834L24.6897 19.698C24.8392 19.6445 24.9869 19.5831 25.1318 19.5148L26.006 19.9292C26.1574 20.0003 26.3351 19.9855 26.4717 19.8882C27.0209 19.4972 27.4982 19.0205 27.8886 18.4712C27.986 18.3346 28.0012 18.1565 27.9297 18.0055L27.5148 17.1314C27.5831 16.9869 27.6449 16.8388 27.6985 16.6892L28.6838 16.3629C28.8726 16.3006 29 16.1248 29 15.9254V14.0746C29 13.8752 28.8726 13.6994 28.6834 13.6366L27.698 13.3103C27.6445 13.1608 27.5831 13.0131 27.5148 12.8682L27.9292 11.994C28.0008 11.8431 27.9855 11.6649 27.8882 11.5283C27.4972 10.9791 27.0205 10.5018 26.4712 10.1114C26.3346 10.014 26.156 9.99877 26.0055 10.0703L25.1314 10.4848C24.9865 10.4165 24.8388 10.3551 24.6892 10.3015L24.3629 9.31615C24.3006 9.12738 24.1248 9 23.9254 9H22.0746C21.8752 9 21.6994 9.12738 21.6366 9.31662L21.3038 10.3214L20.8866 10.4945L19.994 10.0708C19.8426 9.99923 19.6654 10.0145 19.5283 10.1118C18.9791 10.5028 18.5018 10.9795 18.1114 11.5288C18.014 11.6654 17.9988 11.8435 18.0703 11.9945L18.4945 12.8871L18.3209 13.3043L17.3166 13.6366ZM18.8115 14.1138C18.9385 14.0718 19.0414 13.9763 19.0926 13.8531L19.4258 13.0514C19.4757 12.9305 19.4725 12.7943 19.4162 12.6766L19.0238 11.8509C19.2666 11.544 19.5435 11.2675 19.85 11.0243L20.6757 11.4166C20.7943 11.4729 20.9309 11.4766 21.0505 11.4263L21.8522 11.0935C21.9763 11.0423 22.0718 10.9394 22.1134 10.8125L22.4083 9.92308H23.5917L23.8862 10.8115C23.9332 10.9542 24.0468 11.0645 24.1898 11.1083C24.4358 11.1831 24.6782 11.2837 24.9089 11.4065C25.0382 11.4748 25.1918 11.478 25.3238 11.4162L26.1495 11.0238C26.456 11.2671 26.7329 11.544 26.9762 11.8505L26.5838 12.6762C26.5211 12.8082 26.5248 12.9618 26.5935 13.0911C26.7168 13.3218 26.8169 13.5637 26.8917 13.8102C26.9355 13.9537 27.0458 14.0672 27.1885 14.1138L28.0769 14.4083V15.5917L27.1885 15.8862C27.0458 15.9332 26.9355 16.0468 26.8917 16.1898C26.8169 16.4363 26.7163 16.6786 26.5935 16.9085C26.5248 17.0377 26.5211 17.1918 26.5838 17.3238L26.9762 18.1495C26.7334 18.4565 26.4565 18.7329 26.15 18.9762L25.3243 18.5838C25.1923 18.5206 25.0386 18.5243 24.9094 18.5935C24.6786 18.7168 24.4368 18.8169 24.1903 18.8917C24.0468 18.9355 23.9332 19.0458 23.8866 19.1885L23.5917 20.0769H22.4083L22.1138 19.1885C22.0668 19.0458 21.9532 18.9355 21.8102 18.8917C21.5637 18.8169 21.3214 18.7163 21.0915 18.5935C20.9618 18.5238 20.8077 18.5206 20.6762 18.5838L19.8505 18.9762C19.5435 18.7334 19.2671 18.4565 19.0238 18.15L19.4162 17.3243C19.472 17.2062 19.4757 17.07 19.4258 16.9495L19.0931 16.1478C19.0418 16.0237 18.9389 15.9282 18.812 15.8866L17.9231 15.5917V14.4083L18.8115 14.1138Z" fill="white"/>
<path d="M23 18C24.6542 18 26 16.6542 26 15C26 13.3458 24.6542 12 23 12C21.3458 12 20 13.3458 20 15C20 16.6542 21.3458 18 23 18ZM23 12.9231C24.1451 12.9231 25.0769 13.8549 25.0769 15C25.0769 16.1451 24.1451 17.0769 23 17.0769C21.8549 17.0769 20.9231 16.1451 20.9231 15C20.9231 13.8549 21.8549 12.9231 23 12.9231Z" fill="white"/>
<path d="M17.3499 9.00595L14 9.45755L14.1831 10.3486L16.0557 10.0961C14.7805 11.5385 14.0916 13.2654 14.0916 15.0691C14.0916 17.2915 15.1384 19.3977 17.0383 21L17.844 20.3745C16.1445 18.9416 15.2082 17.0571 15.2082 15.0691C15.2082 13.0807 16.1445 11.1967 17.8446 9.76419C18.0109 9.62374 18.0478 9.41285 17.9356 9.24079C17.8228 9.06782 17.5849 8.97479 17.3499 9.00595Z" fill="white"/>
<path d="M28.9438 9L28.1531 9.62547C29.8212 11.0575 30.7402 12.9416 30.7402 14.9305C30.7402 16.9184 29.8212 18.803 28.1525 20.2359C27.9794 20.3845 27.9503 20.6112 28.0824 20.7864C28.1843 20.9219 28.3624 21 28.5482 21C28.603 21 28.6578 20.9932 28.712 20.9792L32 20.1302L31.6723 19.2686L30.1001 19.6741C31.229 18.2795 31.8362 16.6393 31.8362 14.9305C31.8362 12.7077 30.8087 10.6018 28.9438 9Z" fill="white"/>
<path d="M22.5172 29.25H14.7931V27.45C14.7931 27.2722 14.6811 27.1111 14.5068 27.0391C14.333 26.9667 14.1298 26.9964 13.9874 27.1156L9.15979 31.1656C9.05793 31.2507 9 31.3726 9 31.5C9 31.6273 9.05793 31.7493 9.15979 31.8343L13.9874 35.8843C14.0781 35.9604 14.1935 36 14.3103 36C14.377 36 14.4436 35.9874 14.5068 35.9608C14.6811 35.8888 14.7931 35.7277 14.7931 35.55V34.2H22.5172C22.7842 34.2 23 33.9988 23 33.75V29.7C23 29.4511 22.7842 29.25 22.5172 29.25ZM22.0345 33.3H14.3103C14.0434 33.3 13.8276 33.5011 13.8276 33.75V34.5397L10.2045 31.5L13.8276 28.4602V29.7C13.8276 29.9488 14.0434 30.15 14.3103 30.15H22.0345V33.3Z" fill="white"/>
<path d="M32.0126 22.1158C31.8707 21.9966 31.6674 21.9664 31.4932 22.0393C31.3189 22.1113 31.2069 22.2724 31.2069 22.4502V23.8001H23.4828C23.2158 23.8001 23 24.0013 23 24.2501V28.3001C23 28.5489 23.2158 28.75 23.4828 28.75H31.2069V30.55C31.2069 30.7278 31.3189 30.8889 31.4932 30.9609C31.5564 30.9874 31.623 31 31.6897 31C31.8065 31 31.9219 30.9604 32.0126 30.8844L36.8402 26.8344C36.9421 26.7494 37 26.6274 37 26.5001C37 26.3727 36.9421 26.2508 36.8402 26.1657L32.0126 22.1158ZM32.1724 29.5398V28.3001C32.1724 28.0512 31.9566 27.8501 31.6897 27.8501H23.9655V24.7001H31.6897C31.9566 24.7001 32.1724 24.499 32.1724 24.2501V23.4604L35.7955 26.5001L32.1724 29.5398Z" fill="white"/>
<path d="M28 33H24V34H28V33Z" fill="white"/>
<path d="M28 31H24V32H28V31Z" fill="white"/>
<path d="M30 31H29V32H30V31Z" fill="white"/>
<path d="M30 33H29V34H30V33Z" fill="white"/>
<path d="M22 24H18V25H22V24Z" fill="white"/>
<path d="M22 26H18V27H22V26Z" fill="white"/>
<path d="M17 26H16V27H17V26Z" fill="white"/>
<path d="M17 24H16V25H17V24Z" fill="white"/>
<defs>
<linearGradient id="paint0_linear_1_16" x1="22" y1="-3.29812e-07" x2="22" y2="45" gradientUnits="userSpaceOnUse">
<stop stop-color="#353535"/>
<stop offset="0.122222" stop-color="#323232"/>
<stop offset="1" stop-color="#1B1B1B"/>
</linearGradient>
</defs>
</svg>
