<?xml version="1.0" encoding="UTF-8"?><svg id="Layer_1" xmlns="http://www.w3.org/2000/svg" xmlns:xlink="http://www.w3.org/1999/xlink" viewBox="0 0 60 60"><defs><style>.cls-1{fill:url(#linear-gradient);}.cls-1,.cls-2{stroke-width:0px;}.cls-2{fill:#fff;}</style><linearGradient id="linear-gradient" x1="336" y1="-276.45" x2="276" y2="-276.45" gradientTransform="translate(-276 -246.45) scale(1 -1)" gradientUnits="userSpaceOnUse"><stop offset="0" stop-color="#3c3c3b"/><stop offset="1" stop-color="#191919"/></linearGradient></defs><circle class="cls-1" cx="30" cy="30" r="30"/><path class="cls-2" d="M40.94,36.77c-.39,0-.71-.32-.71-.71v-1.42c0-.39.32-.71.71-.71s.71.32.71.71v1.42c0,.39-.32.71-.71.71Z"/><path class="cls-2" d="M42.36,35.35h-11.34c-.39,0-.71-.32-.71-.71v-2.83c0-.39.32-.71.71-.71h11.34c.39,0,.71.32.71.71v2.83c0,.39-.32.71-.71.71ZM31.73,33.94h9.92v-1.42h-9.92v1.42Z"/><path class="cls-2" d="M40.94,32.52h-11.34c-.39,0-.71-.32-.71-.71v-2.83c0-.39.32-.71.71-.71h11.34c.39,0,.71.32.71.71v2.83c0,.39-.32.71-.71.71ZM30.31,31.1h9.92v-1.42h-9.92v1.42Z"/><path class="cls-2" d="M42.36,29.69h-11.34c-.39,0-.71-.32-.71-.71s.32-.71.71-.71h10.63v-1.42h-10.63c-.39,0-.71-.32-.71-.71s.32-.71.71-.71h11.34c.39,0,.71.32.71.71v2.83c0,.39-.32.71-.71.71ZM36.69,25.43c-3.52,0-6.38-2.86-6.38-6.38s2.86-6.38,6.38-6.38,6.38,2.86,6.38,6.38-2.86,6.38-6.38,6.38ZM36.69,14.09c-2.74,0-4.96,2.23-4.96,4.96s2.23,4.96,4.96,4.96,4.96-2.23,4.96-4.96-2.23-4.96-4.96-4.96ZM50.91,35.15c-.41-.53-1.98-2.12-4.84-.4-1.2.72-2.06,1.48-2.82,2.16-.47.42-.88.78-1.29,1.07-.32.22-.4.66-.18.99.22.32.66.4.99.18.48-.33.94-.74,1.42-1.17.72-.63,1.53-1.35,2.61-2,1.14-.68,2.09-.75,2.75-.21.54.45.66,1.13.65,1.21l-6.72,6.44-9.24,4.45c-.56.26-1.57.34-2.15.18l-11.39-3.45c-.07-.02-.14-.03-.21-.03h-.97v1.42h.87l11.31,3.42c.33.09.72.14,1.12.14.71,0,1.47-.14,2.03-.4l9.35-4.5c.07-.03.13-.08.18-.13l6.81-6.53c.6-.6.47-1.87-.28-2.84Z"/><path class="cls-2" d="M39.68,38.14c-.85-.91-2.22-1.36-4.06-1.36h-4.03c-.15,0-.28-.39-.4-.5-.88-.87-2.95-2.33-6.88-2.33-.68,0-1.32.04-1.9.13-.39.06-.65.42-.6.81.06.39.42.65.81.6.51-.08,1.08-.12,1.69-.12,3.42,0,5.11,1.25,5.88,1.92.39.35.62.91,1.26.91h4.16c1.44,0,2.45.31,3.03.92.53.57.61,1.92.6,1.92h-8.2c-.39,0-.71.32-.71.71s.32.71.71.71h8.88c.39,0,.71-.32.71-.71v-.2c.05-.66.15-2.22-.95-3.39ZM19.7,46.69h-4.27v-1.42h3.54v-9.92h-4.25v-1.42h4.98c.39,0,.69.32.69.71v11.34c0,.39-.29.71-.69.71Z"/><path class="cls-2" d="M11.2,49.53c-.39,0-.71-.32-.71-.71h0c0-.39.32-.71.71-.71h3.52v-12.76h-3.52c-.39,0-.71-.32-.71-.71h0c0-.39.32-.71.71-.71h4.25c.39,0,.69.32.69.71v14.17c0,.39-.29.71-.69.71h-4.25Z"/><path class="cls-2" d="M41.29,11.79c-.12,0-.24-.03-.35-.09-.34-.2-.45-.63-.26-.97l1.06-1.84c.2-.34.63-.45.97-.26.34.2.45.63.26.97l-1.06,1.84c-.13.23-.37.35-.61.35ZM44.67,15.16c-.24,0-.48-.13-.61-.35-.2-.34-.08-.77.26-.97l1.84-1.06c.34-.19.77-.08.97.26.2.34.08.77-.26.97l-1.84,1.06c-.11.06-.23.09-.35.09ZM26.87,25.43c-.24,0-.48-.13-.61-.35-.2-.34-.08-.77.26-.97l1.84-1.06c.34-.2.77-.08.97.26.2.34.08.77-.26.97l-1.84,1.06c-.11.06-.23.09-.35.09ZM48.03,19.76h-2.13c-.39,0-.71-.32-.71-.71s.32-.71.71-.71h2.13c.39,0,.71.32.71.71s-.32.71-.71.71ZM27.48,19.76h-2.13c-.39,0-.71-.32-.71-.71s.32-.71.71-.71h2.13c.39,0,.71.32.71.71s-.32.71-.71.71ZM46.51,25.43c-.12,0-.24-.03-.35-.09l-1.84-1.06c-.34-.2-.45-.63-.26-.97.19-.34.63-.45.97-.26l1.84,1.06c.34.2.45.63.26.97-.13.23-.37.35-.61.35ZM28.71,15.16c-.12,0-.24-.03-.35-.09l-1.84-1.06c-.34-.2-.45-.63-.26-.97.2-.34.63-.45.97-.26l1.84,1.06c.34.2.45.63.26.97-.13.23-.37.35-.61.35ZM32.08,11.79c-.24,0-.48-.13-.61-.35l-1.06-1.84c-.2-.34-.08-.77.26-.97.34-.2.77-.08.97.26l1.06,1.84c.2.34.08.77-.26.97-.11.07-.23.09-.35.09Z"/></svg>