<?xml version="1.0" encoding="UTF-8"?><svg id="Layer_1" xmlns="http://www.w3.org/2000/svg" viewBox="0 0 60 60"><defs><style>.cls-1{fill:#f7943e;}.cls-1,.cls-2,.cls-3,.cls-4,.cls-5,.cls-6{stroke-width:0px;}.cls-2{fill:#010101;}.cls-3{fill:#fff2e9;}.cls-4{fill:#f58220;}.cls-5{fill:#fedbbf;}.cls-6{fill:#f6dac2;}</style></defs><circle class="cls-3" cx="30" cy="30" r="30"/><path class="cls-6" d="M46.02,50.14v-31.93l-8.19-8.22H14.18v40.15h31.84Z"/><path class="cls-4" d="M37.72,10v4.15c0,2.29,1.86,4.15,4.15,4.15h4.15l-8.31-8.31Z"/><path class="cls-2" d="M22.49,22.46h27.69v15.23h-27.69v-15.23Z"/><path class="cls-1" d="M44.64,25.23h-16.61c0,1.53-1.24,2.77-2.77,2.77v4.15c1.53,0,2.77,1.24,2.77,2.77h16.61c0-1.53,1.24-2.77,2.77-2.77v-4.15c-1.53,0-2.77-1.24-2.77-2.77Z"/><circle class="cls-4" cx="36.33" cy="30.07" r="4.85"/><path class="cls-5" d="M25.26,47.38h13.15c1.15,0,2.08-.93,2.08-2.08s-.93-2.08-2.08-2.08h-7.1"/><path class="cls-5" d="M22.93,39.76l5.55,3.89c.94.66,2.23.43,2.89-.51,0,0,0,0,0,0,.24-.35.38-.76.37-1.18,0-.68-.33-1.32-.89-1.71l-9.06-6.71-4.85.69-6.92-1.38v9.69h6.23l6.23,4.85h12.81"/><path class="cls-2" d="M50.18,21.76h-3.46v-3.55c0-.18-.07-.36-.2-.49l-8.19-8.22c-.13-.13-.31-.2-.49-.2H14.18c-.38,0-.69.31-.69.69v22.83l-3.32-.66c-.2-.04-.41.01-.57.15-.16.13-.26.33-.26.53v9.69c0,.38.3.69.68.69,0,0,0,0,.01,0h3.46v6.92c0,.38.31.69.69.69h31.84c.38,0,.69-.31.69-.69v-11.77h3.46c.38,0,.69-.31.69-.69v-15.23c0-.38-.31-.69-.69-.69ZM38.41,11.55l6.04,6.06h-2.58c-1.91,0-3.46-1.55-3.46-3.46v-2.6ZM14.87,10.69h22.15v3.46c0,2.67,2.17,4.84,4.85,4.85h3.46v2.77h-22.84c-.38,0-.69.31-.69.69v10.4s-.06,0-.1,0l-4.73.67-2.1-.42V10.69ZM10.72,41.84v-8.15l6.1,1.22c.08.01.15.02.23,0l4.57-.65,8.85,6.56c.37.26.59.69.59,1.14,0,.28-.09.56-.25.79-.44.62-1.3.78-1.93.34l-5.55-3.89-.79,1.14,5.55,3.89c1.1.76,2.58.63,3.53-.3h6.8c.76,0,1.38.62,1.38,1.38,0,.76-.62,1.38-1.38,1.38h-15.69l-6.04-4.7c-.12-.1-.27-.15-.42-.15h-5.54ZM45.33,49.45H14.87v-6.23h1.15l6.04,4.7c.12.09.27.14.42.15h15.92c1.53,0,2.77-1.24,2.77-2.77s-1.24-2.77-2.77-2.77h-6.04c.04-.19.07-.38.07-.57,0-.9-.43-1.74-1.16-2.26l-1.77-1.32h15.83v11.08ZM49.49,36.99h-21.85l-4.45-3.29v-10.55h26.3v13.84Z"/><path class="cls-2" d="M25.26,32.84c1.15,0,2.08.93,2.08,2.08,0,.38.31.69.69.69h16.61c.38,0,.69-.31.69-.69,0-1.15.93-2.08,2.08-2.08.38,0,.69-.31.69-.69v-4.15c0-.38-.31-.69-.69-.69-1.15,0-2.08-.93-2.08-2.08,0-.38-.31-.69-.69-.69h-16.61c-.38,0-.69.31-.69.69,0,1.15-.93,2.08-2.08,2.08-.38,0-.69.31-.69.69v4.15c0,.38.31.69.69.69ZM32.18,30.07c0-2.29,1.86-4.15,4.15-4.15s4.15,1.86,4.15,4.15-1.86,4.15-4.15,4.15c-2.29,0-4.15-1.86-4.15-4.15ZM44.02,25.92c.28,1.36,1.34,2.42,2.7,2.7v2.91c-1.36.28-2.42,1.34-2.7,2.7h-4.03c2.29-2,2.53-5.49.53-7.78-.16-.19-.34-.36-.53-.53h4.03ZM25.95,28.62c1.36-.28,2.42-1.34,2.7-2.7h4.03c-2.29,2-2.53,5.49-.53,7.78.16.19.34.36.53.53h-4.03c-.28-1.36-1.34-2.42-2.7-2.7v-2.91ZM21.1,16.23h13.84v1.38h-13.84v-1.38ZM16.95,16.23h2.77v1.38h-2.77v-1.38ZM21.1,12.77h13.84v1.38h-13.84v-1.38ZM16.95,12.77h2.77v1.38h-2.77v-1.38Z"/></svg>