<?xml version="1.0" encoding="UTF-8"?><svg id="Layer_1" xmlns="http://www.w3.org/2000/svg" viewBox="0 0 60 60"><defs><style>.cls-1{fill:#f48120;}.cls-1,.cls-2{stroke-width:0px;}.cls-2{fill:#fff;}</style></defs><circle class="cls-1" cx="30" cy="30" r="30"/><path class="cls-2" d="M41.68,36.2c-.41,0-.75-.33-.75-.75v-1.49c0-.41.33-.75.75-.75s.75.33.75.75v1.49c0,.41-.33.75-.75.75Z"/><path class="cls-2" d="M43.17,34.7h-11.95c-.41,0-.75-.33-.75-.75v-2.99c0-.41.33-.75.75-.75h11.95c.41,0,.75.33.75.75v2.99c0,.41-.33.75-.75.75ZM31.97,33.21h10.45v-1.49h-10.45v1.49Z"/><path class="cls-2" d="M41.68,31.72h-11.95c-.41,0-.75-.33-.75-.75v-2.99c0-.41.33-.75.75-.75h11.95c.41,0,.75.33.75.75v2.99c0,.41-.33.75-.75.75ZM30.48,30.22h10.45v-1.49h-10.45v1.49Z"/><path class="cls-2" d="M43.17,28.73h-11.95c-.41,0-.75-.33-.75-.75s.33-.75.75-.75h11.2v-1.49h-11.2c-.41,0-.75-.33-.75-.75s.33-.75.75-.75h11.95c.41,0,.75.33.75.75v2.99c0,.41-.33.75-.75.75ZM37.2,24.25c-3.71,0-6.72-3.02-6.72-6.72s3.02-6.72,6.72-6.72,6.72,3.02,6.72,6.72-3.02,6.72-6.72,6.72ZM37.2,12.3c-2.88,0-5.23,2.34-5.23,5.23s2.34,5.23,5.23,5.23,5.23-2.34,5.23-5.23-2.34-5.23-5.23-5.23ZM52.19,34.49c-.43-.56-2.08-2.23-5.1-.42-1.26.76-2.17,1.56-2.97,2.27-.5.44-.92.82-1.36,1.12-.34.23-.42.7-.19,1.04.23.34.7.42,1.04.19.51-.35.99-.78,1.5-1.23.76-.67,1.61-1.42,2.75-2.11,1.2-.72,2.2-.79,2.89-.22.57.47.69,1.19.69,1.28l-7.08,6.79-9.73,4.69c-.59.27-1.65.36-2.26.19l-12-3.63c-.07-.02-.14-.03-.22-.03h-1.03v1.49h.92l11.91,3.61c.35.1.76.14,1.18.14.75,0,1.55-.15,2.14-.42l9.85-4.74c.07-.03.14-.08.19-.13l7.18-6.88c.63-.63.5-1.97-.29-2.99Z"/><path class="cls-2" d="M40.35,37.64c-.89-.95-2.33-1.44-4.28-1.44h-4.24c-.16,0-.3-.41-.42-.53-.93-.92-3.11-2.46-7.24-2.46-.72,0-1.39.05-2,.14-.41.06-.69.44-.63.85.06.41.44.69.85.63.54-.08,1.14-.12,1.78-.12,3.6,0,5.39,1.31,6.2,2.03.41.36.65.96,1.33.96h4.38c1.51,0,2.59.32,3.19.97.56.6.64,2.02.63,2.02h-8.64c-.41,0-.75.34-.75.75s.33.75.75.75h9.35c.41,0,.75-.34.75-.75v-.21c.05-.7.16-2.34-1-3.58ZM19.3,46.65h-4.5v-1.49h3.73v-10.45h-4.48v-1.49h5.25c.41,0,.72.33.72.75v11.95c0,.41-.31.75-.72.75Z"/><path class="cls-2" d="M10.34,49.64c-.41,0-.75-.33-.75-.75h0c0-.41.33-.75.75-.75h3.71v-13.44h-3.71c-.41,0-.75-.33-.75-.75h0c0-.41.33-.75.75-.75h4.48c.41,0,.72.33.72.75v14.93c0,.41-.31.75-.72.75h-4.48Z"/><path class="cls-2" d="M42.05,9.87c-.13,0-.26-.03-.37-.1-.36-.21-.48-.66-.27-1.02l1.12-1.94c.21-.36.66-.48,1.02-.27.36.21.48.66.27,1.02l-1.12,1.94c-.14.24-.39.37-.65.37ZM45.61,13.42c-.26,0-.51-.13-.65-.37-.21-.36-.09-.81.27-1.02l1.94-1.12c.36-.2.81-.08,1.02.27.21.36.09.81-.27,1.02l-1.94,1.12c-.12.07-.24.1-.37.1ZM26.85,24.25c-.26,0-.51-.13-.65-.37-.21-.36-.09-.81.27-1.02l1.94-1.12c.36-.21.82-.09,1.02.27.21.36.09.81-.27,1.02l-1.94,1.12c-.12.07-.25.1-.37.1ZM49.15,18.28h-2.24c-.41,0-.75-.33-.75-.75s.33-.75.75-.75h2.24c.41,0,.75.33.75.75s-.33.75-.75.75ZM27.49,18.28h-2.24c-.41,0-.75-.33-.75-.75s.33-.75.75-.75h2.24c.41,0,.75.33.75.75s-.33.75-.75.75ZM47.55,24.25c-.13,0-.26-.03-.37-.1l-1.94-1.12c-.36-.21-.48-.66-.27-1.02.2-.36.66-.48,1.02-.27l1.94,1.12c.36.21.48.66.27,1.02-.14.24-.39.37-.65.37ZM28.79,13.42c-.13,0-.26-.03-.37-.1l-1.94-1.12c-.36-.21-.48-.66-.27-1.02.21-.36.66-.48,1.02-.27l1.94,1.12c.36.21.48.66.27,1.02-.14.24-.39.37-.65.37ZM32.35,9.87c-.26,0-.51-.13-.65-.37l-1.12-1.94c-.21-.36-.09-.81.27-1.02.36-.21.81-.09,1.02.27l1.12,1.94c.21.36.09.81-.27,1.02-.12.07-.25.1-.37.1Z"/></svg>