<svg id="Group_526" data-name="Group 526" xmlns="http://www.w3.org/2000/svg" width="60" height="60" viewBox="0 0 60 60">
  <circle id="Ellipse_14" data-name="Ellipse 14" cx="30" cy="30" r="30" fill="#fff2e8"/>
  <g id="Group_8350" data-name="Group 8350" transform="translate(13 16.407)">
    <path id="Path_9140" data-name="Path 9140" d="M19.36,21.4,23.044,24.5a1.532,1.532,0,0,1,1.607,1.391,1.54,1.54,0,0,1-1.657,1.391,1.542,1.542,0,0,1-1.657-1.391,1.253,1.253,0,0,1,.025-.25l-3.2-2.689v1.978H15.863V23L12.608,25.74a1.358,1.358,0,0,1,.008.152h0a1.541,1.541,0,0,1-1.66,1.391A1.542,1.542,0,0,1,9.3,25.892,1.542,1.542,0,0,1,10.957,24.5c.028,0,.056,0,.081,0l3.684-3.093L0,21.4V1.758a.413.413,0,0,1,.448-.367H15.863V0h2.294V1.391h15.61a.415.415,0,0,1,.448.367V21.4H19.36ZM7.487,14.662l6.477-5.317c1.6,1.347,3.191,2.679,4.811,4.024l4.291-3.647L21.075,8.05l5.6-.042v4.744l-1.913-1.606c-1.994,1.7-3.979,3.386-5.978,5.067l-4.856-4.026-4.745,3.9-1.7-1.426Zm24.2-9.581H2.484V19.259h29.2V5.081Z" fill="#f48120"/>
  </g>
</svg>
