<svg id="Group_529" data-name="Group 529" xmlns="http://www.w3.org/2000/svg" width="60" height="60" viewBox="0 0 60 60">
  <circle id="Ellipse_14" data-name="Ellipse 14" cx="30" cy="30" r="30" fill="#fff2e8"/>
  <g id="Group_8353" data-name="Group 8353" transform="translate(14.999 13.177)">
    <path id="Path_9144" data-name="Path 9144" d="M15.281,0C21,3.625,26.165,5.339,30.6,4.934c.774,15.66-5.009,24.909-15.258,28.769C5.443,30.09-.411,21.239.023,4.7A21.9,21.9,0,0,0,15.281,0ZM15.4,5.36C19.3,7.832,22.826,9,25.85,8.725c.528,10.679-3.416,16.986-10.4,19.618l-.131-.049V5.429L15.4,5.36Zm-.117-3.425C20.348,5.143,24.921,6.661,28.845,6.3c.685,13.862-4.434,22.049-13.505,25.465C6.579,28.57,1.4,20.736,1.781,6.092A19.382,19.382,0,0,0,15.287,1.935Z" transform="translate(0)" fill="#f48120" fill-rule="evenodd"/>
  </g>
</svg>
