<svg xmlns="http://www.w3.org/2000/svg" width="60" height="60" viewBox="0 0 60 60">
  <g id="Group_520" data-name="Group 520" transform="translate(-652 -4654)">
    <circle id="Ellipse_14" data-name="Ellipse 14" cx="30" cy="30" r="30" transform="translate(652 4654)" fill="#fff2e8"/>
    <path id="Path_9138" data-name="Path 9138" d="M19.119,15a6.232,6.232,0,1,1-6.234,6.233A6.232,6.232,0,0,1,19.119,15ZM9.835,24.537a.671.671,0,0,1,0,1.328H1.542A1.549,1.549,0,0,1,0,24.321V1.542A1.529,1.529,0,0,1,.447.447h0A1.54,1.54,0,0,1,1.542,0H20.491a1.549,1.549,0,0,1,1.545,1.542V12.1a.671.671,0,1,1-1.328,0V1.542a.224.224,0,0,0-.224-.224H1.542a.224.224,0,0,0-.152.06h0a.224.224,0,0,0-.063.152V24.321a.221.221,0,0,0,.217.217ZM5.1,15.942a1.187,1.187,0,1,1-1.185,1.187A1.187,1.187,0,0,1,5.1,15.942Zm0-5.812a1.187,1.187,0,1,1-1.185,1.187A1.187,1.187,0,0,1,5.1,10.13Zm3.619,7.661a.671.671,0,0,1,0-1.323h3.033a.671.671,0,0,1,0,1.323Zm0-11.382a.615.615,0,0,1-.554-.671.615.615,0,0,1,.554-.671h7.334a.617.617,0,0,1,.557.671.617.617,0,0,1-.557.671Zm-5-.458A.391.391,0,0,1,3.8,5.385a.447.447,0,0,1,.6-.018l.38.391L6,4.777a.389.389,0,0,1,.554.127.447.447,0,0,1-.038.6L4.956,6.764a.376.376,0,0,1-.5-.058.25.25,0,0,1-.045-.04l-.7-.718ZM8.34,11.986a.671.671,0,0,1,0-1.323h7.345a.671.671,0,0,1,0,1.323Zm9.744,6.673a.691.691,0,1,1,1.379,0V21.39h1.949a.691.691,0,1,1,0,1.379H18.777a.688.688,0,0,1-.688-.688V18.658Z" transform="translate(669 4670.412)" fill="#f48120" fill-rule="evenodd"/>
  </g>
</svg>
