<svg xmlns="http://www.w3.org/2000/svg" width="60" height="60" viewBox="0 0 60 60">
  <g id="Group_521" data-name="Group 521" transform="translate(-652 -4535)">
    <path id="Ellipse_14" data-name="Ellipse 14" d="M30,0A30,30,0,1,1,0,30,30,30,0,0,1,30,0Z" transform="translate(652 4535)" fill="#fff2e8"/>
    <path id="Path_9137" data-name="Path 9137" d="M0,21.736V9.371H26.485V21.736ZM3.97.711A.634.634,0,0,0,3.429.47c-.474.057-.567.549-.616.926-.148,1.087-.844,4.428-.934,5.023a.624.624,0,0,0,.137.531.634.634,0,0,0,.5.217c.587-.005,3.859-.184,4.987-.163.4,0,.978.031,1.118-.466a.631.631,0,0,0-.155-.572L7.174,4.448A12.521,12.521,0,0,1,22.081,6.555c.305.305.593.624.859.95h3.522a15.41,15.41,0,0,0-21.2-5.287L3.967.711ZM24.156,30.856a.631.631,0,0,0,.549.223c.468-.072.549-.564.587-.945.114-1.092.707-4.451.776-5.052a.626.626,0,0,0-.663-.725c-.585.023-3.851.313-4.992.313-.4,0-.978,0-1.1.5a.634.634,0,0,0,.173.567l1.39,1.524A12.526,12.526,0,0,1,5.815,25.24a12.867,12.867,0,0,1-1.157-1.359H1.209A15.406,15.406,0,0,0,22.87,29.438l1.294,1.418ZM15.662,16.819a2.948,2.948,0,1,1-1.32-3.952,2.948,2.948,0,0,1,1.32,3.952Zm6.628,3L4.234,19.694A1.918,1.918,0,0,0,2.29,17.81l-.078-4.524A1.92,1.92,0,0,0,4.1,11.343l18.059.119A1.92,1.92,0,0,0,24.1,13.348l.078,4.524a1.918,1.918,0,0,0-1.889,1.944Z" transform="translate(669 4549.091)" fill="#f48120" fill-rule="evenodd"/>
  </g>
</svg>
