<svg xmlns="http://www.w3.org/2000/svg" width="60" height="60" viewBox="0 0 60 60">
  <g id="Group_7253" data-name="Group 7253" transform="translate(-267 -1397)">
    <circle id="Ellipse_30" data-name="Ellipse 30" cx="30" cy="30" r="30" transform="translate(267 1397)" fill="#f48120"/>
    <path id="Path_9132" data-name="Path 9132" d="M5.132,6.612,5.4,9.934a1.109,1.109,0,0,0,.192.616.4.4,0,0,0,.322.1h1.03a.382.382,0,0,0,.331-.128.883.883,0,0,0,.13-.5V6.365a.183.183,0,0,1,0-.06h0a.277.277,0,0,0-.117-.2.779.779,0,0,0-.427-.081c-.45,0-.913.013-1.359,0a.427.427,0,0,0-.32.111.6.6,0,0,0-.055.456v.017Zm15.6,9.516,2.09,1.649a.64.64,0,0,1,.107.9l-.913,1.163-3.1-2.444.915-1.158a.64.64,0,0,1,.9-.107Zm-8.291,8.69a.7.7,0,1,1,0,1.393H1.621A1.623,1.623,0,0,1,0,24.59V1.621A1.623,1.623,0,0,1,1.621,0h19.36a1.623,1.623,0,0,1,1.63,1.621V13.353c0,.759-.326.877-.663.9s-.73-.092-.73-.9V1.621a.213.213,0,0,0-.068-.16.228.228,0,0,0-.16-.068H1.621a.237.237,0,0,0-.162.066.241.241,0,0,0-.066.162V24.588a.213.213,0,0,0,.068.16.228.228,0,0,0,.162.068ZM5.03,20.881a.706.706,0,0,1,0-1.41h9.949l-.9,1.16a1.826,1.826,0,0,0-.177.25ZM5.3,17.007a.7.7,0,0,1,0-1.393H16.706a.7.7,0,0,1,.7.7.258.258,0,0,1,0,.041,1.775,1.775,0,0,0-.13.213,1.736,1.736,0,0,0-.267.286l-.1.124a.7.7,0,0,1-.2.03Zm13.28,7.252c-.723.32-1.3.478-2.024.8-1.536.529-1.493.885-1.365-.64l.3-2.6h0l2.973-3.84,3.1,2.44-2.973,3.84Zm-2.56-2.02,2.033,1.6-1.423.64c-1.113.493-1.079.73-.9-.427l.288-1.813ZM15.439,5.913a.454.454,0,0,1,.055-.055.953.953,0,0,1,.661-.213h1.252a1.237,1.237,0,0,1,.766.2.742.742,0,0,1,.256.734L18.088,10.1a1.222,1.222,0,0,1-.256.732.785.785,0,0,1-.663.258h-1.1a.723.723,0,0,1-.5-.151.866.866,0,0,1-.213-.264h-.427a.877.877,0,0,1-.013.482.939.939,0,0,1-.309.439,1.084,1.084,0,0,1-.482.213.947.947,0,0,1-.48-.043,1.3,1.3,0,0,1-.572.352,1.067,1.067,0,0,1-.608-.015,1.28,1.28,0,0,1-.655.392,1.233,1.233,0,0,1-.776-.1,1.19,1.19,0,0,1-.252.143,1.067,1.067,0,0,1-.439.081,1.188,1.188,0,0,1-.8-.294,2.346,2.346,0,0,1-.444-.61l-.744-1.3H7.845a1.039,1.039,0,0,1-.186.407.84.84,0,0,1-.725.318H5.917a.853.853,0,0,1-.685-.26,1.529,1.529,0,0,1-.316-.892V9.966L4.648,6.653a1.017,1.017,0,0,1,.162-.83.885.885,0,0,1,.672-.277H6.86a1.222,1.222,0,0,1,.685.16.715.715,0,0,1,.294.369H8.888a3.165,3.165,0,0,1,.832-.427,2.267,2.267,0,0,1,.945-.1l.358-.427.021-.021a1.527,1.527,0,0,1,.367-.26,1.907,1.907,0,0,1,.442-.169,2.773,2.773,0,0,1,.749-.083,3.4,3.4,0,0,1,.8.109h0a3.967,3.967,0,0,1,1.212.653l.273.188.544.365Zm-4.746,6.126-.5-.947a.243.243,0,1,1,.429-.23l.565,1.067a.8.8,0,0,0,.523.09.781.781,0,0,0,.386-.23l-.8-1.261a.244.244,0,1,1,.412-.26l.853,1.354a.6.6,0,0,0,.382.028.793.793,0,0,0,.339-.213l-.768-1.448a.243.243,0,1,1,.427-.23l.811,1.525a.461.461,0,0,0,.292.043.538.538,0,0,0,.254-.113.422.422,0,0,0,.126-.52.213.213,0,0,1-.019-.073.254.254,0,0,1-.083-.1L12.506,7.254c-.173-.292-.324-.3-.467-.213a2.56,2.56,0,0,0-.373.3c-.075.07-.151.139-.226.2l-.322.267a1.4,1.4,0,0,1-.742.3A1.107,1.107,0,0,1,9.9,8.05a.913.913,0,0,1-.39-.277.924.924,0,0,1-.2-.514.245.245,0,0,1,.073-.194l.877-1.043a1.706,1.706,0,0,0-.4.073,2.914,2.914,0,0,0-.753.395.235.235,0,0,1-.151.053H7.892V9.925h.6a.245.245,0,0,1,.213.132l.811,1.414a2,2,0,0,0,.343.491.727.727,0,0,0,.493.171.572.572,0,0,0,.241-.045.68.68,0,0,0,.1-.049Zm4.5-1.851.034-3.84-.606-.4-.282-.186a3.554,3.554,0,0,0-1.067-.582h0a2.942,2.942,0,0,0-.678-.094,2.319,2.319,0,0,0-.621.066,1.532,1.532,0,0,0-.337.13,1.154,1.154,0,0,0-.254.177l-.4.476A.224.224,0,0,1,10.923,6L9.812,7.316a.4.4,0,0,0,.26.288.623.623,0,0,0,.265.032.913.913,0,0,0,.48-.2l.314-.26c.073-.058.141-.122.213-.183a2.956,2.956,0,0,1,.452-.363c.386-.233.766-.233,1.139.386l1.758,3.17ZM6.531,9.172a.309.309,0,1,1-.221.091.311.311,0,0,1,.221-.091Zm10.025,0a.306.306,0,1,1-.006,0Z" transform="translate(285 1413.673)" fill="#fff" fill-rule="evenodd"/>
  </g>
</svg>
