<svg id="Group_528" data-name="Group 528" xmlns="http://www.w3.org/2000/svg" width="60" height="60" viewBox="0 0 60 60">
  <circle id="Ellipse_14" data-name="Ellipse 14" cx="30" cy="30" r="30" fill="#fff2e8"/>
  <g id="Group_8354" data-name="Group 8354" transform="translate(15 15.097)">
    <path id="Path_9145" data-name="Path 9145" d="M13.454,0A13.433,13.433,0,0,1,24.7,20.781l5.814,6.336L26.5,30.782l-5.606-6.168A13.428,13.428,0,0,1,.026,13.667a.768.768,0,0,1,0-.394A13.422,13.422,0,0,1,13.454,0ZM1.711,11.309q.235-.229.475-.447A16.132,16.132,0,0,1,12.763,6.456a16.992,16.992,0,0,1,11.183,4.172q.677.558,1.331,1.188A11.913,11.913,0,0,0,21.888,5h0A11.935,11.935,0,0,0,1.711,11.309Zm23.507,4.126A15.4,15.4,0,0,1,13.7,20.525,17.086,17.086,0,0,1,3.8,17.374a17.569,17.569,0,0,1-2.065-1.709,11.935,11.935,0,0,0,23.486-.231ZM13.289,12.176a1.314,1.314,0,0,1,.37.053.611.611,0,0,0,.878.849,1.314,1.314,0,1,1-1.248-.9Zm0-3.382a4.7,4.7,0,1,1-3.32,1.375,4.681,4.681,0,0,1,3.32-1.375Zm2.26,2.435a3.2,3.2,0,1,0,.936,2.26,3.186,3.186,0,0,0-.936-2.26ZM3.22,12A18.772,18.772,0,0,0,1.77,13.473a16.113,16.113,0,0,0,2.91,2.645A15.557,15.557,0,0,0,13.7,18.992a14.021,14.021,0,0,0,8.731-3.032,14.168,14.168,0,0,0,2.385-2.434,21.424,21.424,0,0,0-1.84-1.712A15.486,15.486,0,0,0,12.793,7.989,14.618,14.618,0,0,0,3.22,12Z" fill="#f48120"/>
  </g>
</svg>
