<svg id="Group_531" data-name="Group 531" xmlns="http://www.w3.org/2000/svg" width="60" height="60" viewBox="0 0 60 60">
  <circle id="Ellipse_14" data-name="Ellipse 14" cx="30" cy="30" r="30" fill="#fff2e8"/>
  <g id="Group_8351" data-name="Group 8351" transform="translate(14 14)">
    <path id="Path_9142" data-name="Path 9142" d="M22.069,15.192c3.51,2.225,6.681,3.276,9.4,3.028.476,9.612-3.075,15.292-9.367,17.66-6.076-2.219-9.668-7.65-9.4-17.806a13.449,13.449,0,0,0,9.367-2.882ZM5.522,15.2a.812.812,0,0,1,0-1.618H9.881a.812.812,0,0,1,0,1.618ZM23.672,4.9h2.645A1.894,1.894,0,0,1,28.21,6.795v8.258c-.531-.184-1.072-.4-1.621-.634V6.795a.254.254,0,0,0-.082-.19.27.27,0,0,0-.19-.082H23.672v6.433q-.8-.451-1.612-.969h0l-.009.006V1.892a.254.254,0,0,0-.082-.19.265.265,0,0,0-.19-.082H1.892A.254.254,0,0,0,1.7,1.7a.258.258,0,0,0-.082.19V24.358a.254.254,0,0,0,.082.19.27.27,0,0,0,.19.082h8.561q.166.832.374,1.618H6.155v3.013a.254.254,0,0,0,.082.19.27.27,0,0,0,.19.082h5.527c.242.564.508,1.1.788,1.621H6.427a1.894,1.894,0,0,1-1.892-1.892V26.25H1.892A1.894,1.894,0,0,1,0,24.358V1.892A1.894,1.894,0,0,1,1.892,0H21.78a1.894,1.894,0,0,1,1.892,1.892V4.9ZM5.522,6.541a.776.776,0,0,1-.739-.809.776.776,0,0,1,.739-.809H17.634a.776.776,0,0,1,.739.809.776.776,0,0,1-.739.809Zm0,4.33a.812.812,0,0,1,0-1.618H17.634a.812.812,0,0,1,0,1.618ZM22.145,18.48C24.539,20,26.7,20.714,28.557,20.545c.324,6.555-2.1,10.427-6.386,12.042-.026-.009-.053-.02-.082-.029V18.521l.055-.041Zm-.073-2.1c3.107,1.968,5.913,2.9,8.322,2.681.42,8.509-2.721,13.534-8.29,15.633-5.379-1.962-8.558-6.771-8.325-15.762a11.88,11.88,0,0,0,8.293-2.552Z" fill="#f48120" fill-rule="evenodd"/>
  </g>
</svg>
