<svg xmlns="http://www.w3.org/2000/svg" width="60" height="60" viewBox="0 0 60 60">
  <g id="Logistic_man" transform="translate(-188 -2975)">
    <circle id="Ellipse_14" data-name="Ellipse 14" cx="30" cy="30" r="30" transform="translate(188 2975)" fill="#fff2e8"/>
    <g id="Logistics" transform="translate(192 2952.4)">
      <g id="Group_8402" data-name="Group 8402" transform="translate(10 40.6)">
        <path id="Path_9325" data-name="Path 9325" d="M29.709,60.941H20.755v-.686a2.474,2.474,0,0,0-4.947,0v.686H10V40.6H29.709Zm-7.65-1.371h6.278V41.958H11.371V59.569H14.49a3.846,3.846,0,0,1,7.569,0Z" transform="translate(-10 -40.6)" fill="#f48120" stroke="#fff2e8" stroke-width="0.2"/>
        <path id="Path_9326" data-name="Path 9326" d="M159.877,89.418h-4.531v-.686a2.474,2.474,0,0,0-4.947,0v.686h-3.9V73.5h7c.5,0,1.076.35,1.9,1.129a20.682,20.682,0,0,1,1.963,2.245,22.575,22.575,0,0,1,1.707,2.514,4.271,4.271,0,0,1,.807,2.07v7.959Zm-3.227-1.371h1.855V81.459a3.89,3.89,0,0,0-.592-1.331,22.931,22.931,0,0,0-1.546-2.285,21.981,21.981,0,0,0-1.788-2.084,3.466,3.466,0,0,0-1.116-.887h-5.62V88.046h1.223a3.854,3.854,0,0,1,7.582,0Z" transform="translate(-128.149 -69.077)" fill="#f48120" stroke="#fff2e8" stroke-width="0.2"/>
        <path id="Path_9327" data-name="Path 9327" d="M184.286,98.726H174.7V92.3h6.386l.2.255a27.025,27.025,0,0,1,2.017,2.823,4.916,4.916,0,0,1,.981,2.353v.995Zm-8.228-1.358h6.749a8.137,8.137,0,0,0-.672-1.277,24.116,24.116,0,0,0-1.694-2.406h-4.369v3.684Z" transform="translate(-152.558 -85.349)" fill="#f48120" stroke="#fff2e8" stroke-width="0.2"/>
        <path id="Path_9328" data-name="Path 9328" d="M169.145,165.89a3.845,3.845,0,1,1,3.845-3.845A3.844,3.844,0,0,1,169.145,165.89Zm0-6.319a2.474,2.474,0,1,0,2.474,2.474A2.476,2.476,0,0,0,169.145,159.571Z" transform="translate(-144.421 -142.39)" fill="#f48120" stroke="#fff2e8" stroke-width="0.2"/>
        <path id="Path_9329" data-name="Path 9329" d="M46.845,165.89a3.845,3.845,0,1,1,3.845-3.845A3.844,3.844,0,0,1,46.845,165.89Zm0-6.319a2.474,2.474,0,1,0,2.474,2.474A2.476,2.476,0,0,0,46.845,159.571Z" transform="translate(-38.563 -142.39)" fill="#f48120" stroke="#fff2e8" stroke-width="0.2"/>
      </g>
    </g>
  </g>
</svg>
