<svg xmlns="http://www.w3.org/2000/svg" width="60" height="60" viewBox="0 0 60 60">
  <g id="Group_7253" data-name="Group 7253" transform="translate(-267 -1397)">
    <circle id="Ellipse_30" data-name="Ellipse 30" cx="30" cy="30" r="30" transform="translate(267 1397)" fill="#f48120"/>
    <path id="Path_9133" data-name="Path 9133" d="M13.338,0c4.992,2.938,9.5,4.329,13.373,4a31.723,31.723,0,0,1-.984,10.387,5.8,5.8,0,0,0-1.821-.373,27.153,27.153,0,0,0,.76-8.531c-3.277.278-7.1-.9-11.321-3.387A17.06,17.06,0,0,1,2.067,5.319C1.9,11.352,3.038,15.895,5.244,19.2c1.63-1.266,4.407-1.075,5.722-2.754.095-.13.138-.2.137-.257,0-.03-1.427-1.654-1.555-1.843-.336-.5-.965-1.17-.965-1.751a.948.948,0,0,1,.678-.851c-.031-.492-.052-.991-.052-1.485,0-.292.006-.587.017-.877a1.937,1.937,0,0,1,.106-.441,3.172,3.172,0,0,1,1.5-1.77,4.346,4.346,0,0,1,.815-.361c.515-.174.265-.93.831-.942A7.662,7.662,0,0,1,16.82,7.76a2.762,2.762,0,0,1,.866,1.916l-.053,2.148a.745.745,0,0,1,.555.442c.181.678-.577,1.522-.93,2.061-.325.5-1.566,1.856-1.567,1.867-.006.058.026.132.111.25A4.819,4.819,0,0,0,18.289,17.9a5.071,5.071,0,0,0-.2,1.106,2.069,2.069,0,0,0-.282.219l-.006.005a1.914,1.914,0,0,0-.628,1.4V25.6a22.131,22.131,0,0,1-3.781,1.721C4.749,24.394-.363,17.219.016,3.807A20.152,20.152,0,0,0,13.338,0Zm6.071,20.034h.223V19.4a3.813,3.813,0,0,1,1.181-2.742,4.139,4.139,0,0,1,5.731,0A3.811,3.811,0,0,1,27.724,19.4v.638h.223a.64.64,0,0,1,.66.614V26.71a.64.64,0,0,1-.66.614H19.408a.639.639,0,0,1-.66-.614V20.648A.639.639,0,0,1,19.408,20.034Zm3.746,3.92-.687,1.672h2.42l-.637-1.695a1.157,1.157,0,0,0,.681-1.035,1.258,1.258,0,0,0-2.508,0,1.164,1.164,0,0,0,.731,1.058Zm-2.273-3.92h5.593V19.4a2.692,2.692,0,0,0-.829-1.939,2.831,2.831,0,0,0-3.934,0,2.69,2.69,0,0,0-.83,1.939v.638Z" transform="translate(283.003 1412.898)" fill="#fff" fill-rule="evenodd"/>
  </g>
</svg>
