<svg width="45" height="45" viewBox="0 0 45 45" fill="none" xmlns="http://www.w3.org/2000/svg">
<g clip-path="url(#clip0_1_2)">
<path d="M45 22.5C45 10.0736 34.9264 0 22.5 0C10.0736 0 0 10.0736 0 22.5C0 34.9264 10.0736 45 22.5 45C34.9264 45 45 34.9264 45 22.5Z" fill="url(#paint0_linear_1_2)"/>
<path d="M37.5 20H34.7488C34.4279 18.4329 33.8102 16.9417 32.9287 15.6069L34.8744 13.6613C34.9681 13.5675 35.0207 13.4404 35.0207 13.3078C35.0207 13.1753 34.9681 13.0481 34.8744 12.9544L32.0456 10.1256C31.9519 10.0319 31.8247 9.97929 31.6922 9.97929C31.5596 9.97929 31.4325 10.0319 31.3388 10.1256L29.3931 12.0712C28.0583 11.1898 26.5671 10.5721 25 10.2513V7.5C25 7.36739 24.9473 7.24021 24.8536 7.14645C24.7598 7.05268 24.6326 7 24.5 7H20.5C20.3674 7 20.2402 7.05268 20.1464 7.14645C20.0527 7.24021 20 7.36739 20 7.5V10.2513C18.4329 10.5721 16.9417 11.1898 15.6069 12.0712L13.6613 10.1256C13.5675 10.0319 13.4404 9.97929 13.3078 9.97929C13.1753 9.97929 13.0481 10.0319 12.9544 10.1256L10.1256 12.9544C10.0319 13.0481 9.97929 13.1753 9.97929 13.3078C9.97929 13.4404 10.0319 13.5675 10.1256 13.6613L12.0712 15.6069C11.1898 16.9417 10.5721 18.4329 10.2513 20H7.5C7.36739 20 7.24021 20.0527 7.14645 20.1464C7.05268 20.2402 7 20.3674 7 20.5V24.5C7 24.6326 7.05268 24.7598 7.14645 24.8536C7.24021 24.9473 7.36739 25 7.5 25H10.2513C10.5721 26.5671 11.1898 28.0583 12.0712 29.3931L10.1256 31.3388C10.0319 31.4325 9.97929 31.5596 9.97929 31.6922C9.97929 31.8247 10.0319 31.9519 10.1256 32.0456L12.9544 34.8744C13.0481 34.9681 13.1753 35.0207 13.3078 35.0207C13.4404 35.0207 13.5675 34.9681 13.6613 34.8744L15.6069 32.9287C16.9417 33.8102 18.4329 34.4279 20 34.7488V37.5C20 37.6326 20.0527 37.7598 20.1464 37.8536C20.2402 37.9473 20.3674 38 20.5 38H24.5C24.6326 38 24.7598 37.9473 24.8536 37.8536C24.9473 37.7598 25 37.6326 25 37.5V34.7488C26.5671 34.4279 28.0583 33.8102 29.3931 32.9287L31.3388 34.8744C31.4325 34.9681 31.5596 35.0207 31.6922 35.0207C31.8247 35.0207 31.9519 34.9681 32.0456 34.8744L34.8744 32.0456C34.9681 31.9519 35.0207 31.8247 35.0207 31.6922C35.0207 31.5596 34.9681 31.4325 34.8744 31.3388L32.9287 29.3931C33.8102 28.0583 34.4279 26.5671 34.7488 25H37.5C37.6326 25 37.7598 24.9473 37.8536 24.8536C37.9473 24.7598 38 24.6326 38 24.5V20.5C38 20.3674 37.9473 20.2402 37.8536 20.1464C37.7598 20.0527 37.6326 20 37.5 20ZM37 24H34.3331C34.2148 24 34.1004 24.042 34.0101 24.1184C33.9198 24.1948 33.8595 24.3008 33.84 24.4175C33.5504 26.1272 32.8785 27.7494 31.8744 29.1631C31.8056 29.2593 31.7733 29.3768 31.7831 29.4946C31.793 29.6124 31.8444 29.7228 31.9281 29.8062L33.8137 31.6925L31.6925 33.8137L29.8062 31.9281C29.7228 31.8444 29.6124 31.793 29.4946 31.7831C29.3768 31.7733 29.2593 31.8056 29.1631 31.8744C27.7494 32.8785 26.1272 33.5504 24.4175 33.84C24.3008 33.8595 24.1948 33.9198 24.1184 34.0101C24.042 34.1004 24 34.2148 24 34.3331V37H21V34.3331C21 34.2148 20.958 34.1004 20.8816 34.0101C20.8052 33.9198 20.6992 33.8595 20.5825 33.84C18.8728 33.5504 17.2506 32.8785 15.8369 31.8744C15.7407 31.8056 15.6232 31.7733 15.5054 31.7831C15.3876 31.793 15.2772 31.8444 15.1938 31.9281L13.3075 33.8137L11.1863 31.6925L13.0719 29.8062C13.1556 29.7228 13.207 29.6124 13.2169 29.4946C13.2267 29.3768 13.1944 29.2593 13.1256 29.1631C12.1215 27.7494 11.4496 26.1272 11.16 24.4175C11.1405 24.3008 11.0802 24.1948 10.9899 24.1184C10.8996 24.042 10.7852 24 10.6669 24H8V21H10.6669C10.7852 21 10.8996 20.958 10.9899 20.8816C11.0802 20.8052 11.1405 20.6992 11.16 20.5825C11.4496 18.8728 12.1215 17.2506 13.1256 15.8369C13.1944 15.7407 13.2267 15.6232 13.2169 15.5054C13.207 15.3876 13.1556 15.2772 13.0719 15.1938L11.1863 13.3075L13.3075 11.1863L15.1938 13.0719C15.2772 13.1556 15.3876 13.207 15.5054 13.2169C15.6232 13.2267 15.7407 13.1944 15.8369 13.1256C17.2506 12.1215 18.8728 11.4496 20.5825 11.16C20.6992 11.1405 20.8052 11.0802 20.8816 10.9899C20.958 10.8996 21 10.7852 21 10.6669V8H24V10.6669C24 10.7852 24.042 10.8996 24.1184 10.9899C24.1948 11.0802 24.3008 11.1405 24.4175 11.16C26.1272 11.4496 27.7494 12.1215 29.1631 13.1256C29.2593 13.1944 29.3768 13.2267 29.4946 13.2169C29.6124 13.207 29.7228 13.1556 29.8062 13.0719L31.6925 11.1863L33.8137 13.3075L31.9281 15.1938C31.8444 15.2772 31.793 15.3876 31.7831 15.5054C31.7733 15.6232 31.8056 15.7407 31.8744 15.8369C32.8785 17.2506 33.5504 18.8728 33.84 20.5825C33.8595 20.6992 33.9198 20.8052 34.0101 20.8816C34.1004 20.958 34.2148 21 34.3331 21H37V24Z" fill="white"/>
<path d="M22.5 13C17.2619 13 13 17.2619 13 22.5C13 27.7381 17.2619 32 22.5 32C27.7381 32 32 27.7381 32 22.5C32 17.2619 27.7381 13 22.5 13ZM23.5 26.5V30.9406C22.8357 31.0198 22.1643 31.0198 21.5 30.9406V26.5C21.4999 26.4177 21.4795 26.3367 21.4407 26.2641C21.4019 26.1915 21.3459 26.1296 21.2775 26.0837L18.5 24.2325V19.7406L20 18.5406V22.9513C20 23.0342 20.0206 23.1158 20.06 23.1888C20.0994 23.2618 20.1563 23.3238 20.2256 23.3694L22.2256 24.6819C22.3071 24.7354 22.4025 24.7639 22.5 24.7639C22.5975 24.7639 22.6929 24.7354 22.7744 24.6819L24.7744 23.3694C24.8437 23.3238 24.9006 23.2618 24.94 23.1888C24.9794 23.1158 25 23.0342 25 22.9513V18.5406L26.5 19.7406V24.2325L23.7225 26.0837C23.6541 26.1296 23.5981 26.1915 23.5593 26.2641C23.5205 26.3367 23.5001 26.4177 23.5 26.5ZM24.5 30.7619V26.7675L27.2775 24.9163C27.3459 24.8704 27.4019 24.8085 27.4407 24.7359C27.4795 24.6633 27.4999 24.5823 27.5 24.5V19.5C27.5 19.425 27.4832 19.3509 27.4508 19.2833C27.4183 19.2157 27.3711 19.1563 27.3125 19.1094L24.8125 17.1094C24.7389 17.0505 24.6502 17.0136 24.5566 17.0029C24.463 16.9922 24.3683 17.0082 24.2834 17.0491C24.1984 17.0899 24.1268 17.1539 24.0766 17.2337C24.0265 17.3134 23.9999 17.4058 24 17.5V22.6812L22.5 23.6656L21 22.6812V17.5C21.0001 17.4058 20.9735 17.3134 20.9234 17.2337C20.8732 17.1539 20.8016 17.0899 20.7166 17.0491C20.6317 17.0082 20.537 16.9922 20.4434 17.0029C20.3498 17.0136 20.2611 17.0505 20.1875 17.1094L17.6875 19.1094C17.6289 19.1563 17.5817 19.2157 17.5492 19.2833C17.5168 19.3509 17.5 19.425 17.5 19.5V24.5C17.5001 24.5823 17.5205 24.6633 17.5593 24.7359C17.5981 24.8085 17.6541 24.8704 17.7225 24.9163L20.5 26.7675V30.7619C16.775 29.86 14 26.4981 14 22.5C14 17.8131 17.8131 14 22.5 14C27.1869 14 31 17.8131 31 22.5C31 26.4981 28.225 29.86 24.5 30.7619Z" fill="white"/>
</g>
<defs>
<linearGradient id="paint0_linear_1_2" x1="22" y1="-3.29812e-07" x2="22" y2="45" gradientUnits="userSpaceOnUse">
<stop stop-color="#353535"/>
<stop offset="0.122222" stop-color="#323232"/>
<stop offset="1" stop-color="#1B1B1B"/>
</linearGradient>
<clipPath id="clip0_1_2">
<rect width="45" height="45" fill="white"/>
</clipPath>
</defs>
</svg>
