<svg id="banner-main6" xmlns="http://www.w3.org/2000/svg" xmlns:xlink="http://www.w3.org/1999/xlink" width="45" height="45" viewBox="0 0 45 45">
  <defs>
    <linearGradient id="linear-gradient" x1="0.5" x2="0.156" y2="0.791" gradientUnits="objectBoundingBox">
      <stop offset="0" stop-color="#3e3e3e"/>
      <stop offset="1" stop-color="#1a1a1a"/>
    </linearGradient>
  </defs>
  <circle id="Ellipse_1" data-name="Ellipse 1" cx="22.5" cy="22.5" r="22.5" fill="url(#linear-gradient)"/>
  <g id="firewall-svgrepo-com" transform="translate(12.479 12.273)">
    <g id="Group_2039" data-name="Group 2039" transform="translate(0.108)">
      <path id="Path_7224" data-name="Path 7224" d="M20.241,11.13a.921.921,0,0,0-1.208-.1,6.451,6.451,0,0,0-.606-1.248,5.308,5.308,0,0,0-.782-.984V.923A.923.923,0,0,0,16.722,0H1.031A.923.923,0,0,0,.108.923V17.537a.923.923,0,0,0,.923.923H11.5a5.319,5.319,0,0,0,1.023,1.765,5.88,5.88,0,0,0,8.656.054C23.05,18.2,22.3,13.234,20.241,11.13ZM15.8,8.307H13.03V1.846H15.8ZM11.184,1.846V8.307H1.954V1.846Zm-9.23,8.307H5.646v6.461H1.954Zm9.236,6.461h-3.7V10.153h7.2l0,.007-.057.1-.023.042-.054.1-.022.042-.053.1-.02.04q-.027.054-.052.109l-.017.036q-.027.059-.053.12l-.012.028q-.029.069-.057.139l0,.011a6.633,6.633,0,0,0-.216.644l0,.007q-.022.078-.042.158l0,.02q-.018.073-.036.148l-.006.026q-.016.072-.031.145l-.006.028q-.015.073-.028.147l0,.027q-.014.076-.026.153l0,.023q-.013.082-.024.165l0,.013q-.037.275-.059.563a.925.925,0,0,0-1.479,0h0q-.071.094-.137.191l-.035.053c-.031.047-.062.094-.092.141l-.043.071c-.026.042-.051.085-.075.127-.015.027-.03.054-.044.081s-.044.081-.065.122-.029.058-.043.087-.039.08-.057.12-.027.06-.04.091-.035.08-.051.12l-.037.092q-.024.061-.046.123c-.011.031-.022.061-.032.092s-.028.084-.042.127l-.028.09q-.02.066-.037.132c-.008.029-.016.058-.023.087-.012.046-.022.092-.033.138-.006.028-.013.056-.019.084-.01.048-.019.1-.028.144,0,.027-.01.053-.014.08-.008.049-.016.1-.023.149,0,.026-.007.051-.011.077-.006.051-.012.1-.017.152,0,.025-.005.05-.008.075,0,.051-.008.1-.011.153,0,.025,0,.051,0,.076,0,.049,0,.1,0,.148,0,.027,0,.055,0,.082C11.191,16.6,11.19,16.607,11.19,16.614Zm8.617,2.43a4.035,4.035,0,0,1-5.9-.037,3.533,3.533,0,0,1-.8-1.641v-.009a3.777,3.777,0,0,1-.065-.5V16.84q0-.077-.006-.153c0-.008,0-.017,0-.025q0-.069,0-.138c0-.007,0-.013,0-.02,0-.047,0-.093.007-.139,0-.015,0-.029,0-.044q.005-.066.013-.132c0-.016,0-.031.006-.047q.007-.058.016-.115l0-.024.076.1a7.7,7.7,0,0,0,1.115,1.212.962.962,0,0,0,.2.129l.015.007.05.022.052.019.014,0a.891.891,0,0,0,.471.017h0l.054-.015.013,0,.044-.015.022-.008.033-.014.031-.014.024-.012.038-.02.017-.01.042-.027.012-.008.043-.032.01-.008.041-.035.011-.01.037-.036.014-.015.03-.034.019-.024.021-.027.025-.036.011-.017.024-.041h0l.006-.01,0,0a.886.886,0,0,0,.1-.482.072.072,0,0,0,0-.008c0-.015,0-.029,0-.044s0-.012,0-.021l-.005-.033a11.091,11.091,0,0,1-.049-3.9l0-.013q.017-.08.036-.159l0-.015a5,5,0,0,1,.192-.612l.008-.021c.015-.038.031-.075.046-.112l.021-.05c.015-.033.03-.066.045-.1l.028-.059.045-.091.034-.064.046-.084.041-.07c.015-.025.029-.05.044-.074q.042-.068.087-.134l.038-.053c.02-.029.04-.057.061-.085l.043-.056.062-.079.045-.054.034-.039c.053.073.108.154.164.242a5.672,5.672,0,0,1,.781,3.077A.923.923,0,0,0,19.1,14.6a2.931,2.931,0,0,0,.7-.758C20.544,15.618,20.671,18.084,19.807,19.044Z" transform="translate(-0.108)" fill="#fff"/>
    </g>
  </g>
</svg>
