<svg id="banner-main6" xmlns="http://www.w3.org/2000/svg" xmlns:xlink="http://www.w3.org/1999/xlink" width="45" height="45" viewBox="0 0 45 45">
  <defs>
    <linearGradient id="linear-gradient" x1="0.5" x2="0.156" y2="0.791" gradientUnits="objectBoundingBox">
      <stop offset="0" stop-color="#3e3e3e"/>
      <stop offset="1" stop-color="#1a1a1a"/>
    </linearGradient>
  </defs>
  <circle id="Ellipse_1" data-name="Ellipse 1" cx="22.5" cy="22.5" r="22.5" fill="url(#linear-gradient)"/>
  <path id="law-svgrepo-com" d="M12.75,2.75a.75.75,0,0,0-1.5,0V4.5H9.276a1.75,1.75,0,0,0-.985.3L6.6,5.957A.25.25,0,0,1,6.455,6h-4.1a.75.75,0,0,0,0,1.5H3.93L.563,15.18a.762.762,0,0,0,.21.88,3.483,3.483,0,0,0,.309.221,6.077,6.077,0,0,0,.792.433,6.98,6.98,0,0,0,5.752,0,6.077,6.077,0,0,0,.792-.433,3.194,3.194,0,0,0,.31-.223.75.75,0,0,0,.209-.878L5.569,7.5h.886a1.752,1.752,0,0,0,.984-.3l1.7-1.154A.25.25,0,0,1,9.275,6H11.25V20.5H6.763a.75.75,0,0,0,0,1.5H17.237a.75.75,0,0,0,0-1.5H12.75V6h1.974a.246.246,0,0,1,.14.043l1.7,1.154a1.752,1.752,0,0,0,.984.3h.886l-3.368,7.68a.75.75,0,0,0,.23.9c.012.009,0,0,0,0a3.154,3.154,0,0,0,.31.206,6.206,6.206,0,0,0,.79.4,7.456,7.456,0,0,0,5.711,0,6.3,6.3,0,0,0,.79-.4,3.5,3.5,0,0,0,.31-.206.75.75,0,0,0,.23-.9L20.07,7.5h1.578a.75.75,0,0,0,0-1.5h-4.1a.25.25,0,0,1-.14-.043L15.709,4.8a1.75,1.75,0,0,0-.984-.3H12.75ZM2.193,15.2a5.466,5.466,0,0,0,5.114,0L4.75,9.368Zm14.51-.024c.082.04.174.083.275.126a5.939,5.939,0,0,0,4.819-.126L19.25,9.367,16.7,15.174Z" transform="translate(11.498 10)" fill="#fff" fill-rule="evenodd"/>
</svg>
