<svg xmlns="http://www.w3.org/2000/svg" xmlns:xlink="http://www.w3.org/1999/xlink" width="45" height="45" viewBox="0 0 45 45">
  <defs>
    <linearGradient id="linear-gradient" x1="0.5" x2="0.156" y2="0.791" gradientUnits="objectBoundingBox">
      <stop offset="0" stop-color="#3e3e3e"/>
      <stop offset="1" stop-color="#1a1a1a"/>
    </linearGradient>
  </defs>
  <g id="Group_6" data-name="Group 6" transform="translate(0 -0.5)">
    <circle id="Ellipse_1" data-name="Ellipse 1" cx="22.5" cy="22.5" r="22.5" transform="translate(0 0.5)" fill="url(#linear-gradient)"/>
    <path id="storage-svgrepo-com" d="M5,9.583V5.194A2.28,2.28,0,0,1,7.357,3H19.144A2.28,2.28,0,0,1,21.5,5.194V9.583M5,9.583H21.5M5,9.583v6.583M21.5,9.583v6.583m0,0v4.389a2.28,2.28,0,0,1-2.357,2.194H7.357A2.28,2.28,0,0,1,5,20.556V16.167m16.5,0H5m3.536-3.292h.012M8.536,6.292h.012M8.536,19.459h.012" transform="translate(9.249 10.125)" fill="none" stroke="#fff" stroke-linecap="round" stroke-linejoin="round" stroke-width="2"/>
  </g>
</svg>
