<svg id="banner-main1" xmlns="http://www.w3.org/2000/svg" xmlns:xlink="http://www.w3.org/1999/xlink" width="45" height="45" viewBox="0 0 45 45">
  <defs>
    <linearGradient id="linear-gradient" x1="0.5" x2="0.156" y2="0.791" gradientUnits="objectBoundingBox">
      <stop offset="0" stop-color="#3e3e3e"/>
      <stop offset="1" stop-color="#1a1a1a"/>
    </linearGradient>
    <clipPath id="clip-path">
      <rect id="Rectangle_432" data-name="Rectangle 432" width="25.501" height="29.628" transform="translate(0 0)" fill="#fff"/>
    </clipPath>
  </defs>
  <circle id="Ellipse_1" data-name="Ellipse 1" cx="22.5" cy="22.5" r="22.5" fill="url(#linear-gradient)"/>
  <g id="Group_2040" data-name="Group 2040" transform="translate(8.249 7.614)">
    <g id="Group_2040-2" data-name="Group 2040" transform="translate(0 -0.001)" clip-path="url(#clip-path)">
      <path id="Path_7225" data-name="Path 7225" d="M134.65,103.074A13.949,13.949,0,0,1,134.1,91.84a11.5,11.5,0,0,1,4.676-5.216A12.935,12.935,0,0,1,142,85.186c4.74-1.37,9.411.825,12.5,4.436a10.416,10.416,0,0,1,.693.9,17.551,17.551,0,0,0-1.687-1.491c-3.544-2.779-7.863-4.175-12.186-2.366a13.6,13.6,0,0,0-3.661,2.249,11.206,11.206,0,0,0-3.769,8.638,18.978,18.978,0,0,0,.76,5.522" transform="translate(-129.966 -82.74)" fill="#fff"/>
      <path id="Path_7226" data-name="Path 7226" d="M15.389,29.6A14.677,14.677,0,0,1,.081,16.321,14.85,14.85,0,0,1,11.028.439,13.819,13.819,0,0,1,15.389.03a15.976,15.976,0,0,0-4.224.859A14.825,14.825,0,0,0,1.205,14.814,14.929,14.929,0,0,0,15.389,29.6" transform="translate(0 0.001)" fill="#fff"/>
      <path id="Path_7227" data-name="Path 7227" d="M262.336,449.74l.172,2.565h-.172a3.229,3.229,0,0,0-.985-1.658,2.4,2.4,0,0,0-1.535-.506,2.379,2.379,0,0,0-2.312,1.6,5.414,5.414,0,0,0-.348,2.075,4.406,4.406,0,0,0,.328,1.775,2.459,2.459,0,0,0,.987,1.152,2.84,2.84,0,0,0,1.5.4,2.61,2.61,0,0,0,1.3-.314,4.272,4.272,0,0,0,1.235-1.249l.172.111a3.962,3.962,0,0,1-1.324,1.474,3.352,3.352,0,0,1-1.8.467,3.4,3.4,0,0,1-2.9-1.391,3.976,3.976,0,0,1-.768-2.437,4.328,4.328,0,0,1,.506-2.075,3.663,3.663,0,0,1,1.394-1.466,3.765,3.765,0,0,1,1.939-.52,3.554,3.554,0,0,1,1.613.4.876.876,0,0,0,.334.122.367.367,0,0,0,.261-.106.868.868,0,0,0,.206-.417Z" transform="translate(-249.747 -438.947)" fill="#fff"/>
      <path id="Path_7228" data-name="Path 7228" d="M570.446,464.265v.206h-3.232v-.206h.267a.806.806,0,0,0,.679-.273,1.7,1.7,0,0,0,.133-.857v-4.873a2.5,2.5,0,0,0-.072-.757.5.5,0,0,0-.228-.239,1.055,1.055,0,0,0-.512-.133h-.267v-.206h3.232v.206h-.273a.8.8,0,0,0-.673.273,1.635,1.635,0,0,0-.139.857v4.873a2.5,2.5,0,0,0,.072.757.5.5,0,0,0,.234.239,1.023,1.023,0,0,0,.506.133Z" transform="translate(-553.601 -445.961)" fill="#fff"/>
      <path id="Path_7229" data-name="Path 7229" d="M747.671,449.74v2.609h-.206a3.251,3.251,0,0,0-.359-1.2,1.867,1.867,0,0,0-.737-.707,2.04,2.04,0,0,0-.99-.261,1.347,1.347,0,0,0-.957.353,1.075,1.075,0,0,0-.378.8.952.952,0,0,0,.239.629,6.148,6.148,0,0,0,1.641,1.113,11.355,11.355,0,0,1,1.444.871,2.124,2.124,0,0,1,.6.715,1.883,1.883,0,0,1,.209.862,1.953,1.953,0,0,1-.665,1.477,2.407,2.407,0,0,1-1.711.62,3.62,3.62,0,0,1-.618-.05,6.319,6.319,0,0,1-.715-.2,3.206,3.206,0,0,0-.687-.175.291.291,0,0,0-.22.083.664.664,0,0,0-.12.345h-.206v-2.587h.206a3.654,3.654,0,0,0,.389,1.216,1.869,1.869,0,0,0,.748.67,2.32,2.32,0,0,0,1.1.267,1.571,1.571,0,0,0,1.1-.367,1.137,1.137,0,0,0,.4-.868,1.177,1.177,0,0,0-.153-.562,1.677,1.677,0,0,0-.476-.529,13.649,13.649,0,0,0-1.185-.709,11.489,11.489,0,0,1-1.377-.865,2.331,2.331,0,0,1-.62-.712,1.766,1.766,0,0,1-.211-.857,1.857,1.857,0,0,1,.623-1.4,2.22,2.22,0,0,1,1.586-.587,3.182,3.182,0,0,1,1.274.295,1.309,1.309,0,0,0,.439.139.331.331,0,0,0,.236-.086.688.688,0,0,0,.147-.348Z" transform="translate(-725.324 -438.947)" fill="#fff"/>
      <path id="Path_7230" data-name="Path 7230" d="M1011.753,726.293a.593.593,0,0,1,.439.181.619.619,0,1,1-1.057.437.593.593,0,0,1,.181-.44.6.6,0,0,1,.437-.178" transform="translate(-986.869 -708.863)" fill="#fff"/>
    </g>
  </g>
</svg>
