<svg id="banner-main4" xmlns="http://www.w3.org/2000/svg" width="45" height="45" viewBox="0 0 45 45">
  <circle id="Ellipse_45" data-name="Ellipse 45" cx="22.5" cy="22.5" r="22.5" fill="#2f2f2f"/>
  <g id="data-2-svgrepo-com" transform="translate(10 11)">
    <path id="Path_7216" data-name="Path 7216" d="M7,8H4A2.006,2.006,0,0,1,2,6V4A2.006,2.006,0,0,1,4,2H7A2.006,2.006,0,0,1,9,4V6A2.006,2.006,0,0,1,7,8Z" fill="none" stroke="#fff" stroke-linecap="round" stroke-linejoin="round" stroke-width="2"/>
    <path id="Path_7217" data-name="Path 7217" d="M20.8,7H17.2A1.2,1.2,0,0,1,16,5.8V4.2A1.2,1.2,0,0,1,17.2,3h3.6A1.2,1.2,0,0,1,22,4.2V5.8A1.2,1.2,0,0,1,20.8,7Z" fill="none" stroke="#fff" stroke-linecap="round" stroke-linejoin="round" stroke-width="2"/>
    <path id="Path_7218" data-name="Path 7218" d="M20.8,14.5H17.2A1.2,1.2,0,0,1,16,13.3V11.7a1.2,1.2,0,0,1,1.2-1.2h3.6A1.2,1.2,0,0,1,22,11.7v1.6A1.2,1.2,0,0,1,20.8,14.5Z" fill="none" stroke="#fff" stroke-linecap="round" stroke-linejoin="round" stroke-width="2"/>
    <path id="Path_7219" data-name="Path 7219" d="M9,5h7" fill="none" stroke="#fff" stroke-linecap="round" stroke-linejoin="round" stroke-width="2"/>
    <path id="Path_7221" data-name="Path 7221" d="M12.5,5V18a2.006,2.006,0,0,0,2,2H16" transform="translate(-1 1)" fill="none" stroke="#fff" stroke-linecap="round" stroke-linejoin="round" stroke-width="2"/>
    <path id="Path_7222" data-name="Path 7222" d="M12.5,12.5H16" fill="none" stroke="#fff" stroke-linecap="round" stroke-linejoin="round" stroke-width="2"/>
    <path id="Path_7223" data-name="Path 7223" d="M20.8,22H17.2A1.2,1.2,0,0,1,16,20.8V19.2A1.2,1.2,0,0,1,17.2,18h3.6A1.2,1.2,0,0,1,22,19.2v1.6A1.2,1.2,0,0,1,20.8,22Z" fill="none" stroke="#fff" stroke-linecap="round" stroke-linejoin="round" stroke-width="2"/>
  </g>
</svg>
