<svg width="256" height="256" viewBox="0 0 256 256" fill="none" xmlns="http://www.w3.org/2000/svg">
<path d="M82.3822 108.597C86.985 109.495 90.2289 111.687 91.5221 114.777C92.7934 117.868 92.0482 121.726 89.418 125.627C87.3138 128.718 87.4672 132.772 89.7906 135.709C93.0783 139.852 96.8483 143.644 100.991 146.932C103.928 149.255 107.983 149.408 111.095 147.304C114.997 144.652 118.854 143.907 121.945 145.178C125.035 146.471 127.227 149.715 128.126 154.362C128.827 158.044 131.808 160.806 135.534 161.244C138.164 161.551 140.816 161.705 143.447 161.705C146.099 161.705 148.729 161.551 151.359 161.244C155.085 160.806 158.066 158.044 158.768 154.362C159.666 149.715 161.858 146.449 164.949 145.178C168.039 143.907 171.897 144.652 175.798 147.304C178.91 149.408 182.965 149.255 185.902 146.91C190.045 143.622 193.815 139.852 197.103 135.688C199.426 132.75 199.579 128.696 197.475 125.605C194.845 121.704 194.078 117.846 195.371 114.756C196.642 111.665 199.886 109.473 204.511 108.575C208.193 107.851 210.933 104.87 211.372 101.166C211.963 95.9715 211.963 90.7111 211.372 85.5165C210.955 81.7904 208.193 78.8095 204.511 78.1081C199.908 77.2095 196.664 75.0176 195.371 71.9271C194.1 68.8367 194.845 64.979 197.475 61.0776C199.579 57.9871 199.426 53.9322 197.103 50.9951C193.815 46.8526 190.045 43.0607 185.902 39.773C182.965 37.4496 178.91 37.2962 175.798 39.4003C171.897 42.0525 168.039 42.7977 164.949 41.5264C161.858 40.2332 159.666 36.9893 158.768 32.3426C158.066 28.6604 155.085 25.8987 151.359 25.4603C146.099 24.8466 140.773 24.8466 135.534 25.4603C131.808 25.8987 128.827 28.6604 128.126 32.3426C127.227 36.9893 125.035 40.2552 121.945 41.5264C118.854 42.7977 114.997 42.0525 111.095 39.4003C107.983 37.2962 103.928 37.4496 100.991 39.773C96.8483 43.0607 93.0783 46.8307 89.7906 50.9951C87.4672 53.9322 87.3138 57.9871 89.418 61.0776C92.0482 64.979 92.8153 68.8367 91.5221 71.9271C90.2509 75.0176 87.0069 77.2095 82.3822 78.1081C78.6999 78.8314 75.9601 81.8123 75.5217 85.5165C74.9299 90.7111 74.9299 95.9715 75.5217 101.166C75.9601 104.892 78.6999 107.873 82.3822 108.597ZM81.3301 86.196C81.4616 84.9905 82.2945 84.0699 83.5 83.8507C90.0974 82.5575 94.8537 79.1383 96.914 74.1847C98.9744 69.2312 98.0319 63.4228 94.24 57.8337C93.5605 56.8254 93.6044 55.598 94.3496 54.6336C97.3524 50.8417 100.794 47.3786 104.585 44.3758C105.55 43.6087 106.777 43.5648 107.786 44.2443C113.375 48.0362 119.183 48.9787 124.159 46.9183C129.134 44.858 132.575 40.0798 133.846 33.4386C134.088 32.233 134.986 31.4002 136.192 31.2686C140.992 30.7207 145.88 30.7207 150.68 31.2686C151.907 31.4002 152.806 32.255 153.025 33.4386C154.296 40.0798 157.737 44.858 162.713 46.9183C167.688 48.9787 173.497 48.0142 179.086 44.2443C180.094 43.5648 181.322 43.6087 182.286 44.3758C186.078 47.3786 189.519 50.8417 192.522 54.6336C193.289 55.598 193.333 56.8254 192.631 57.8337C188.861 63.4228 187.919 69.2312 189.957 74.1847C192.018 79.1383 196.774 82.5794 203.371 83.8507C204.577 84.0918 205.41 84.9905 205.541 86.196C206.089 90.9522 206.089 95.7743 205.541 100.531C205.41 101.736 204.577 102.635 203.371 102.876C196.774 104.169 192.018 107.588 189.957 112.542C187.897 117.495 188.839 123.304 192.631 128.893C193.311 129.901 193.267 131.129 192.522 132.093C189.519 135.885 186.078 139.348 182.286 142.351C181.322 143.118 180.094 143.162 179.086 142.482C173.497 138.69 167.688 137.748 162.713 139.808C157.737 141.869 154.296 146.647 153.025 153.288C152.784 154.493 151.885 155.326 150.68 155.458C145.88 156.006 140.992 156.006 136.192 155.458C134.964 155.326 134.066 154.472 133.846 153.288C132.575 146.647 129.134 141.869 124.159 139.808C122.449 139.107 120.63 138.756 118.745 138.756C115.194 138.756 111.446 140.027 107.786 142.482C106.777 143.162 105.55 143.118 104.585 142.351C100.794 139.348 97.3524 135.885 94.3496 132.093C93.5825 131.129 93.5386 129.901 94.24 128.893C98.0099 123.304 98.9524 117.495 96.914 112.542C94.8537 107.588 90.0974 104.147 83.5 102.876C82.2945 102.635 81.4616 101.736 81.3301 100.531C80.7821 95.7524 80.7821 90.9303 81.3301 86.196ZM143.447 129.923C163.612 129.923 180.006 113.528 180.006 93.3633C180.006 73.1984 163.612 56.8035 143.447 56.8035C123.282 56.8035 106.887 73.1984 106.887 93.3633C106.887 113.506 123.282 129.923 143.447 129.923ZM117.999 110.569L121.287 107.281C124.334 104.235 125.671 100.224 125.057 95.9715C124.224 90.1194 126.153 84.3987 130.318 80.2342C134.263 76.2889 139.742 74.382 145.156 74.8861L135.227 84.8151C134.482 85.5603 134.197 86.6343 134.482 87.6426L137.156 97.6154C137.419 98.6237 138.208 99.4127 139.216 99.6758L149.189 102.35C150.197 102.613 151.271 102.328 152.017 101.605L161.946 91.6756C162.45 97.0894 160.543 102.569 156.598 106.514C152.433 110.679 146.691 112.586 140.86 111.775C136.608 111.161 132.597 112.52 129.55 115.545L126.263 118.832C122.997 116.597 120.191 113.791 117.999 110.569ZM143.447 62.6119C160.39 62.6119 174.176 76.3985 174.176 93.3413C174.176 110.284 160.39 124.071 143.447 124.071C139.238 124.071 135.249 123.216 131.589 121.682L133.649 119.621C135.381 117.89 137.594 117.145 140.005 117.495C147.677 118.591 155.217 116.071 160.696 110.591C167.425 103.884 169.639 93.7578 166.329 84.837C165.979 83.8945 165.19 83.2151 164.225 82.9959C163.261 82.7767 162.253 83.0836 161.529 83.785L149.08 96.2346L142.373 94.4373L140.575 87.7303L153.025 75.2806C153.726 74.5793 154.033 73.571 153.814 72.5847C153.595 71.6203 152.915 70.8093 151.973 70.4805C143.052 67.1709 132.926 69.3627 126.197 76.0916C120.717 81.5712 118.197 89.1111 119.293 96.7825C119.643 99.2155 118.898 101.407 117.167 103.139L115.106 105.199C113.572 101.539 112.717 97.5497 112.717 93.3413C112.717 76.3985 126.504 62.6119 143.447 62.6119ZM229.608 167.995C229.608 167.973 229.586 167.973 229.586 167.951C227.482 164.466 220.468 157.124 200.522 164.488L143.6 185.902C144.06 182.724 143.359 179.174 141.54 175.93C137.704 169.157 129.901 165.124 120.63 165.124L77.4067 165.036C77.3848 165.036 77.3629 165.036 77.341 165.036C70.086 165.036 63.1817 167.71 57.7898 172.576L53.8445 172.664C53.8445 168.762 50.6664 165.584 46.7649 165.584H32.0796C28.1782 165.584 25 168.762 25 172.664V223.887C25 227.788 28.1782 230.967 32.0796 230.967H46.7649C50.6664 230.967 53.8445 227.788 53.8445 223.887V223.646L122.887 224.062C138.449 224.062 144.477 221.235 151.469 217.947L221.038 185.289C226.013 182.943 229.388 179.59 230.55 175.886C231.383 173.256 231.054 170.516 229.608 167.995ZM48.0142 223.909C48.0142 224.588 47.4444 225.158 46.7649 225.158H32.0796C31.4002 225.158 30.8303 224.588 30.8303 223.909V172.686C30.8303 172.006 31.4002 171.436 32.0796 171.436H46.7649C47.4444 171.436 48.0142 172.006 48.0142 172.686V223.909ZM224.983 174.154C224.325 176.236 221.914 178.428 218.539 180.028L148.97 212.687C142.351 215.799 137.134 218.254 122.887 218.254L53.8226 217.837V178.538L59.0611 178.406C59.8063 178.384 60.5077 178.1 61.0337 177.573C65.4393 173.256 71.2258 170.888 77.341 170.888C77.3629 170.888 77.3848 170.888 77.4067 170.888L120.608 170.976C130.887 170.976 135.096 176.456 136.433 178.823C138.099 181.782 138.362 185.091 137.046 187.261C135.709 189.497 133.101 189.914 131.172 189.87C131.15 189.87 131.129 189.87 131.107 189.87H99.7853C98.1634 189.87 96.8702 191.185 96.8702 192.785C96.8702 194.385 98.1853 195.7 99.7853 195.7H131.063C133.43 195.766 135.578 195.327 137.397 194.473L202.538 169.968C215.448 165.212 222.353 167.36 224.544 170.954C225.18 172.05 225.312 173.058 224.983 174.154Z" fill="black"/>
</svg>
