<svg id="banner-main2" xmlns="http://www.w3.org/2000/svg" xmlns:xlink="http://www.w3.org/1999/xlink" width="45" height="45" viewBox="0 0 45 45">
  <defs>
    <linearGradient id="linear-gradient" x1="0.5" x2="0.156" y2="0.791" gradientUnits="objectBoundingBox">
      <stop offset="0" stop-color="#3e3e3e"/>
      <stop offset="1" stop-color="#1a1a1a"/>
    </linearGradient>
  </defs>
  <circle id="Ellipse_1" data-name="Ellipse 1" cx="22.5" cy="22.5" r="22.5" fill="url(#linear-gradient)"/>
  <path id="shield-bolt-svgrepo-com" d="M13,10.189l-1.8,3.6H16l-1.8,3.6m9-3.6c0,5.355-6.554,9.236-8.833,10.423a1.924,1.924,0,0,1-.541.226,1.361,1.361,0,0,1-.459,0,1.924,1.924,0,0,1-.541-.226C10.554,23.026,4,19.145,4,13.79V9.25A5.463,5.463,0,0,1,4.157,7.4a2.4,2.4,0,0,1,.656-.947,5.464,5.464,0,0,1,1.679-.8l6.436-2.414a2.551,2.551,0,0,1,.5-.159,1.2,1.2,0,0,1,.343,0,2.551,2.551,0,0,1,.5.159l6.436,2.414a5.463,5.463,0,0,1,1.679.8,2.4,2.4,0,0,1,.656.947,5.462,5.462,0,0,1,.157,1.852Z" transform="translate(9.897 8.737)" fill="none" stroke="#fff" stroke-linecap="round" stroke-linejoin="round" stroke-width="2"/>
</svg>
