<svg xmlns="http://www.w3.org/2000/svg" width="60" height="60" viewBox="0 0 60 60">
  <g id="management-and-reporting" transform="translate(-672 -5966)">
    <circle id="Ellipse_14" data-name="Ellipse 14" cx="30" cy="30" r="30" transform="translate(672 5966)" fill="#fff2e8"/>
    <g id="noun-management-6768690" transform="translate(683.875 5977.875)">
      <path id="Path_9159" data-name="Path 9159" d="M47.312,34.375h-1a1,1,0,1,0,0,2h1a1,1,0,1,0,0-2Z" transform="translate(-28.687 -21.25)" fill="#f48120"/>
      <path id="Path_9160" data-name="Path 9160" d="M11.937,25.125a1,1,0,0,0,1-1v-1a1,1,0,0,1,1-1h8.5v2a1,1,0,1,0,2,0v-2h8.5a1,1,0,0,1,1,1v1a1,1,0,1,0,2,0v-1a3.009,3.009,0,0,0-3-3h-8.5v-2h2.5a3.009,3.009,0,0,0,3-3v-2a4.983,4.983,0,0,0-3.13-4.6,3.375,3.375,0,0,0,.13-.9v-2a2.5,2.5,0,0,0-2.5-2.5h-2a2.5,2.5,0,0,0-2.5,2.5v2a3.375,3.375,0,0,0,.13.9,4.957,4.957,0,0,0-3.13,4.6v2a3.009,3.009,0,0,0,3,3h2.5v2h-8.5a3.009,3.009,0,0,0-3,3v1a1,1,0,0,0,1,1Zm10-19.5a.5.5,0,0,1,.5-.5h2a.5.5,0,0,1,.5.5v2a1.5,1.5,0,1,1-3,0Zm-2,10.5a1,1,0,0,1-1-1v-2a2.986,2.986,0,0,1,2.22-2.87,3.486,3.486,0,0,0,2.28.87,3.435,3.435,0,0,0,2.28-.87,2.986,2.986,0,0,1,2.22,2.87v2a1,1,0,0,1-1,1Z" transform="translate(-5.312)" fill="#f48120"/>
      <path id="Path_9161" data-name="Path 9161" d="M43.563,75h-2a2.5,2.5,0,0,0-2.5,2.5v2a2.5,2.5,0,0,0,2.5,2.5h2a2.5,2.5,0,0,0,2.5-2.5v-2A2.5,2.5,0,0,0,43.563,75Zm.5,4.5a.5.5,0,0,1-.5.5h-2a.5.5,0,0,1-.5-.5v-2a.5.5,0,0,1,.5-.5h2a.5.5,0,0,1,.5.5Z" transform="translate(-24.437 -48.875)" fill="#f48120"/>
      <path id="Path_9162" data-name="Path 9162" d="M7.626,75h-2a2.5,2.5,0,0,0-2.5,2.5v2a2.5,2.5,0,0,0,2.5,2.5h2a2.5,2.5,0,0,0,2.5-2.5v-2A2.5,2.5,0,0,0,7.626,75Zm.5,4.5a.5.5,0,0,1-.5.5h-2a.5.5,0,0,1-.5-.5v-2a.5.5,0,0,1,.5-.5h2a.5.5,0,0,1,.5.5Z" transform="translate(0 -48.875)" fill="#f48120"/>
      <path id="Path_9163" data-name="Path 9163" d="M79.5,75h-2A2.5,2.5,0,0,0,75,77.5v2A2.5,2.5,0,0,0,77.5,82h2A2.5,2.5,0,0,0,82,79.5v-2A2.5,2.5,0,0,0,79.5,75Zm.5,4.5a.5.5,0,0,1-.5.5h-2a.5.5,0,0,1-.5-.5v-2a.5.5,0,0,1,.5-.5h2a.5.5,0,0,1,.5.5Z" transform="translate(-48.874 -48.875)" fill="#f48120"/>
    </g>
  </g>
</svg>
