<svg xmlns="http://www.w3.org/2000/svg" width="60" height="60" viewBox="0 0 60 60">
  <g id="market_trand" transform="translate(-400 -2857)">
    <circle id="Ellipse_14" data-name="Ellipse 14" cx="30" cy="30" r="30" transform="translate(400 2857)" fill="#fff2e8"/>
    <g id="trends" transform="translate(404.973 2841.359)">
      <g id="Group_8414" data-name="Group 8414" transform="translate(10.027 33.641)">
        <g id="Group_8413" data-name="Group 8413">
          <path id="Path_9365" data-name="Path 9365" d="M21.7,33.741a2.549,2.549,0,0,0-1.654,1.39,1.788,1.788,0,0,0-.2,1.045,6.449,6.449,0,0,0,.026.715,23.613,23.613,0,0,1-2.422,2.25L15.018,41.3l-.265-.106a2.524,2.524,0,0,0-2.739,4.169,2.256,2.256,0,0,0,1.694.622,1.743,1.743,0,0,0,1.019-.2,2.561,2.561,0,0,0,1.39-2.951c-.093-.331-.079-.371.013-.463.132-.132,4.433-3.891,4.592-4.023.093-.079.159-.066.45.079a2.527,2.527,0,0,0,2.872-.41l.291-.265,2.038.94,2.051.94.026.49a2.489,2.489,0,0,0,4.288,1.509,2.461,2.461,0,0,0,.7-1.522l.04-.437,2.025-.847,2.025-.847.344.318a2.443,2.443,0,0,0,2.792.423,2.53,2.53,0,0,0,1.39-2.647,2.645,2.645,0,0,0-1.548-1.959,2.362,2.362,0,0,0-.953-.146,1.743,1.743,0,0,0-1.019.2,2.563,2.563,0,0,0-1.456,1.985l-.04.371-2.051.834-2.064.873L32.672,38A3.13,3.13,0,0,0,32,37.579a1.7,1.7,0,0,0-1.006-.2,2.219,2.219,0,0,0-1.628.556l-.3.265-2.091-.966-2.1-.966-.04-.4a2.512,2.512,0,0,0-2-2.17A2.031,2.031,0,0,0,21.7,33.741Z" transform="translate(-11.038 -33.641)" fill="#f48120"/>
          <path id="Path_9366" data-name="Path 9366" d="M20.73,123.777a2.979,2.979,0,0,0-2.078,3.983l.132.3-1.919,1.694c-1.059.926-1.945,1.694-1.972,1.707a.7.7,0,0,1-.3-.146,2.976,2.976,0,0,0-4.222,1.165,2.892,2.892,0,0,0,.648,3.547,2.961,2.961,0,0,0,4.817-1.39,3.545,3.545,0,0,0-.119-2c-.093-.225-.159-.423-.159-.423s.86-.768,1.919-1.681l1.906-1.681.291.225a2.993,2.993,0,0,0,4.222-.728L24,128.2l1.482.688c1.178.543,1.5.715,1.482.807a3.388,3.388,0,0,0-.013,1.27,3,3,0,0,0,1.615,2.117,1.96,1.96,0,0,0,1.151.265,2.516,2.516,0,0,0,1.072-.119,2.84,2.84,0,0,0,1.787-1.615,2.052,2.052,0,0,0,.212-1.231V129.6l1.456-.622c1.35-.569,1.456-.609,1.522-.49a2.978,2.978,0,1,0,3.348-4.447,3.288,3.288,0,0,0-2.025.146,2.888,2.888,0,0,0-1.734,2.713v.529l-1.5.622-1.5.622-.384-.384a2.955,2.955,0,0,0-4.2-.013l-.357.357-1.535-.7-1.535-.7.026-.357a3.049,3.049,0,0,0-1.535-2.832A3.482,3.482,0,0,0,20.73,123.777Zm1.509,1.1a1.928,1.928,0,0,1,1.151,1.787,1.971,1.971,0,0,1-3.705.94,2.26,2.26,0,0,1-.172-1.469,2.11,2.11,0,0,1,1.337-1.363A2.214,2.214,0,0,1,22.238,124.875Zm16.714.172a2.044,2.044,0,0,1,.622.4,1.958,1.958,0,0,1-.437,3.269,2.066,2.066,0,0,1-1.681.013,2.219,2.219,0,0,1-.953-.926,2.481,2.481,0,0,1,0-1.747A2,2,0,0,1,38.952,125.047Zm-8.245,3.586a2.24,2.24,0,0,1,1.032,1.151,2.037,2.037,0,0,1-.6,2.117,1.843,1.843,0,0,1-1.323.463,1.965,1.965,0,1,1,.887-3.732Zm-17.019,3.322a2.224,2.224,0,0,1,1.151,1.151,2,2,0,0,1-1.085,2.514,1.966,1.966,0,0,1-1.548,0,1.758,1.758,0,0,1-.993-.953A1.981,1.981,0,0,1,13.689,131.955Z" transform="translate(-10.027 -111.792)" fill="#f48120"/>
        </g>
      </g>
    </g>
  </g>
</svg>
