<svg xmlns="http://www.w3.org/2000/svg" width="55" height="55" viewBox="0 0 55 55">
  <g id="Group_2478" data-name="Group 2478" transform="translate(-1093 -3083)">
    <circle id="Ellipse_17" data-name="Ellipse 17" cx="27.5" cy="27.5" r="27.5" transform="translate(1093 3083)" fill="#f3f3f3"/>
    <g id="Membership" transform="translate(1095.997 3082.915)">
      <g id="Group_8326" data-name="Group 8326" transform="translate(10 10)">
        <path id="Path_7040" data-name="Path 7040" d="M30.561,42.9H16.175A6.062,6.062,0,0,1,10,36.736V32.624a6.155,6.155,0,0,1,5.966-6.175,10.374,10.374,0,0,1-1.854-6.175C14.112,14.53,18.224,10,23.368,10s9.256,4.53,9.256,10.288a12.106,12.106,0,0,1-1.854,6.175,6.3,6.3,0,0,1,5.966,6.175V36.75A6.19,6.19,0,0,1,30.561,42.9ZM23.368,12.063c-3.9,0-7.193,3.708-7.193,8.224s3.29,8.224,7.193,8.224,7.193-3.694,7.193-8.224-3.081-8.224-7.193-8.224ZM34.673,32.624a4.129,4.129,0,0,0-4.112-4.112H28.916a8.739,8.739,0,0,1-5.548,2.063,9.2,9.2,0,0,1-5.548-2.063H16.161a4.129,4.129,0,0,0-4.112,4.112v4.112a4.129,4.129,0,0,0,4.112,4.112H30.352a4.129,4.129,0,0,0,4.112-4.112V32.624Z" transform="translate(-10 -10)" fill="#f48120"/>
        <path id="Path_7041" data-name="Path 7041" d="M157.12,37.959h-.209a9.83,9.83,0,0,0,1.45-4.935c0-4.53-3.29-8.224-7.4-8.224a7.682,7.682,0,0,0-2.258.4,6.046,6.046,0,0,1,1.241,1.241h0c.418,0,.613-.209,1.032-.209,3.081,0,5.757,2.886,5.757,6.58,0,3.29-2.258,6.175-5.144,6.58h0a4.29,4.29,0,0,1,2.063,1.032,4.411,4.411,0,0,0,1.645-1.032h1.854a3.243,3.243,0,0,1,3.29,3.29v3.29a3.425,3.425,0,0,1-3.29,3.5h-1.032a7.58,7.58,0,0,1-.209,1.645h1.436a5.185,5.185,0,0,0,4.935-5.144v-3.29A5.173,5.173,0,0,0,157.12,37.959Z" transform="translate(-129.366 -22.737)" fill="#f48120"/>
      </g>
    </g>
  </g>
</svg>
