<svg xmlns="http://www.w3.org/2000/svg" width="60" height="60" viewBox="0 0 60 60">
  <g id="menu_mangement" transform="translate(-92 -2784)">
    <circle id="Ellipse_14" data-name="Ellipse 14" cx="30" cy="30" r="30" transform="translate(92 2784)" fill="#fff2e8"/>
    <g id="menu" transform="translate(98.006 2755.009)">
      <g id="Group_8395" data-name="Group 8395" transform="translate(9.994 48.991)">
        <g id="Group_8394" data-name="Group 8394" transform="translate(0 0)">
          <path id="Path_9300" data-name="Path 9300" d="M10.7,49.137a1.843,1.843,0,0,0-.447.374,1.2,1.2,0,0,0,0,1.365c.411.555-.8.507,14.032.507s13.622.048,14.032-.507a1.257,1.257,0,0,0,0-1.377c-.411-.555.8-.507-14.056-.507C12.086,49.016,10.926,49.029,10.7,49.137Z" transform="translate(-10.032 -48.991)" fill="#f48120"/>
          <path id="Path_9301" data-name="Path 9301" d="M10.7,118.137a1.843,1.843,0,0,0-.447.374,1.2,1.2,0,0,0,0,1.365c.411.555-.8.507,14.032.507s13.622.048,14.032-.507a1.257,1.257,0,0,0,0-1.377c-.411-.556.8-.507-14.056-.507C12.086,118,10.926,118.029,10.7,118.137Z" transform="translate(-10.032 -109.659)" fill="#f48120"/>
          <path id="Path_9302" data-name="Path 9302" d="M10.683,187.113a1.178,1.178,0,0,0-.447,1.787c.4.519-.761.483,14.02.483,14.829,0,13.622.048,14.032-.507a1.257,1.257,0,0,0,0-1.377c-.411-.556.8-.507-14.056-.507C13.328,187.016,10.864,187.029,10.683,187.113Z" transform="translate(-9.994 -170.326)" fill="#f48120"/>
        </g>
      </g>
    </g>
  </g>
</svg>
