<svg width="256" height="256" viewBox="0 0 256 256" fill="none" xmlns="http://www.w3.org/2000/svg">
<path d="M88.129 164.549C75.3039 164.549 64.871 174.982 64.871 187.807C64.871 200.632 75.3039 211.065 88.129 211.065C100.954 211.065 111.387 200.632 111.387 187.807C111.387 174.982 100.954 164.549 88.129 164.549ZM88.129 204.42C78.9687 204.42 71.5161 196.967 71.5161 187.807C71.5161 178.647 78.9687 171.194 88.129 171.194C97.2894 171.194 104.742 178.647 104.742 187.807C104.742 196.967 97.2894 204.42 88.129 204.42Z" fill="black"/>
<path d="M88.129 177.839C82.6335 177.839 78.1613 182.311 78.1613 187.807C78.1613 193.302 82.6335 197.774 88.129 197.774C93.6246 197.774 98.0968 193.302 98.0968 187.807C98.0968 182.311 93.6246 177.839 88.129 177.839ZM88.129 191.129C86.2983 191.129 84.8064 189.637 84.8064 187.807C84.8064 185.976 86.2983 184.484 88.129 184.484C89.9598 184.484 91.4516 185.976 91.4516 187.807C91.4516 189.637 89.9598 191.129 88.129 191.129Z" fill="black"/>
<path d="M231 40.8288L223.086 25H125.947L118.032 40.8288V109.387C110.882 98.5619 98.6317 91.4516 84.8065 91.4516C65.0105 91.4516 48.5837 105.616 45.4771 124.844C33.9577 126.222 25 136.054 25 147.935C25 160.761 35.4329 171.194 48.2581 171.194H54.767C54.9032 171.868 54.9132 172.549 54.6474 173.17C54.4613 173.599 54.2819 174.034 54.1125 174.466C53.7536 175.397 52.9662 176.118 51.9594 176.447C47.7597 177.829 44.9355 181.729 44.9355 186.152V189.461C44.9355 193.883 47.7597 197.784 51.9661 199.166C52.9695 199.495 53.7536 200.216 54.1125 201.14C54.2819 201.579 54.458 202.014 54.6474 202.446C55.0395 203.353 54.9929 204.409 54.5211 205.346C52.5243 209.294 53.2851 214.052 56.415 217.178L58.7541 219.52C61.884 222.647 66.6386 223.411 70.5858 221.414C71.5228 220.936 72.576 220.893 73.4897 221.288C73.9184 221.474 74.3536 221.654 74.7855 221.823C75.7159 222.182 76.4369 222.969 76.7658 223.976C78.1513 228.176 82.052 231 86.4744 231H89.7837C94.206 231 98.1067 228.176 99.4889 223.969C99.8179 222.966 100.539 222.182 101.463 221.823C101.901 221.654 102.336 221.477 102.768 221.288C103.675 220.893 104.735 220.943 105.669 221.414C109.616 223.411 114.371 222.647 117.501 219.52L119.843 217.181C122.973 214.055 123.734 209.297 121.737 205.35C121.262 204.413 121.219 203.356 121.611 202.446C121.797 202.017 121.976 201.582 122.146 201.15C122.504 200.22 123.292 199.499 124.299 199.17C125.295 198.841 126.209 198.362 127.03 197.778H231V40.8288ZM150.992 144.613C149.371 133.359 139.692 124.677 128 124.677C126.887 124.677 125.781 124.8 124.677 124.963V124.677H128H224.355V144.613H150.992ZM124.677 118.032V98.0968H224.355V118.032H124.677ZM124.677 91.4516V71.5161H224.355V91.4516H124.677ZM124.677 64.871V44.9355H224.355V64.871H124.677ZM218.979 31.6452L222.301 38.2903H126.731L130.053 31.6452H218.979ZM31.6452 147.935C31.6452 138.775 39.0977 131.323 48.0919 131.319L51.4644 131.333L51.7368 128.309C53.2851 111.085 67.5025 98.0968 84.8065 98.0968C102.37 98.0968 116.919 111.842 117.929 129.389L118.185 133.831L122.375 132.323C124.216 131.658 126.109 131.323 128 131.323C137.16 131.323 144.613 138.775 144.613 147.935C144.613 157.096 137.16 164.548 128 164.548H122.75C122.504 162.292 121.531 160.123 119.84 158.435L117.501 156.096C114.371 152.966 109.616 152.205 105.669 154.202C104.735 154.677 103.679 154.724 102.765 154.328C102.34 154.142 101.904 153.966 101.469 153.793C100.542 153.434 99.8179 152.647 99.4889 151.64C98.1067 147.437 94.206 144.613 89.7837 144.613H86.4744C82.052 144.613 78.1513 147.437 76.7691 151.643C76.4402 152.647 75.7192 153.431 74.7889 153.79C74.3536 153.959 73.9217 154.135 73.4897 154.325C72.5827 154.717 71.5261 154.674 70.5891 154.199C66.6419 152.202 61.8873 152.963 58.7574 156.092L56.4183 158.432C54.7271 160.123 53.7536 162.292 53.5077 164.548H48.2581C39.0977 164.548 31.6452 157.096 31.6452 147.935ZM124.677 189.461C124.677 191.006 123.691 192.368 122.219 192.853C119.321 193.804 117.035 195.95 115.952 198.741C115.813 199.097 115.667 199.452 115.517 199.798C114.334 202.522 114.437 205.635 115.806 208.343C116.504 209.722 116.238 211.383 115.145 212.477L112.803 214.819C111.709 215.912 110.045 216.178 108.669 215.48C105.965 214.111 102.848 214.008 100.127 215.191C99.778 215.341 99.4225 215.487 99.0603 215.63C96.2727 216.713 94.1296 218.999 93.176 221.899C92.6943 223.368 91.3287 224.355 89.7837 224.355H86.4744C84.9294 224.355 83.5671 223.368 83.082 221.896C82.1318 218.999 79.9854 216.713 77.1944 215.63C76.8389 215.49 76.4834 215.344 76.1378 215.194C74.8819 214.646 73.5429 214.374 72.1973 214.374C70.6257 214.374 69.0508 214.746 67.5922 215.48C66.21 216.175 64.5487 215.912 63.4589 214.819L61.1165 212.477C60.0233 211.383 59.7575 209.722 60.4553 208.343C61.8242 205.635 61.9272 202.522 60.7443 199.801C60.5948 199.452 60.4486 199.097 60.3057 198.734C59.2226 195.947 56.9366 193.804 54.036 192.85C52.5675 192.372 51.5806 191.006 51.5806 189.461V186.152C51.5806 184.607 52.5675 183.245 54.036 182.759C56.9366 181.809 59.2226 179.663 60.3057 176.872C60.4453 176.516 60.5915 176.161 60.741 175.815C61.9238 173.091 61.8208 169.977 60.4519 167.27C59.7542 165.891 60.02 164.226 61.1131 163.133L63.4522 160.794C64.5454 159.697 66.2066 159.428 67.5888 160.133C70.2967 161.502 73.4166 161.605 76.1312 160.422C76.4834 160.269 76.8389 160.123 77.1944 159.986C79.9821 158.9 82.1285 156.614 83.082 153.717C83.5638 152.245 84.9294 151.258 86.4744 151.258H89.7837C91.3287 151.258 92.6909 152.245 93.176 153.717C94.1296 156.614 96.2727 158.9 99.0603 159.983C99.4158 160.123 99.7714 160.269 100.12 160.418C102.841 161.601 105.958 161.495 108.666 160.129C110.041 159.428 111.706 159.697 112.803 160.791L115.142 163.13C116.235 164.223 116.501 165.887 115.803 167.266C114.434 169.974 114.331 173.087 115.514 175.809C115.663 176.157 115.809 176.513 115.952 176.875C117.035 179.663 119.321 181.806 122.222 182.759C123.691 183.241 124.677 184.607 124.677 186.152V189.461ZM131.183 191.129C131.273 190.584 131.323 190.026 131.323 189.461V186.152C131.323 181.729 128.498 177.829 124.292 176.447C123.289 176.118 122.504 175.397 122.146 174.473C121.976 174.034 121.8 173.599 121.611 173.167C121.342 172.549 121.355 171.868 121.491 171.194H128C139.692 171.194 149.371 162.512 150.992 151.258H224.355V191.129H131.183Z" fill="black"/>
<path d="M134.645 58.2262C136.48 58.2262 137.968 56.7386 137.968 54.9036C137.968 53.0686 136.48 51.5811 134.645 51.5811C132.81 51.5811 131.323 53.0686 131.323 54.9036C131.323 56.7386 132.81 58.2262 134.645 58.2262Z" fill="black"/>
<path d="M147.935 58.2262C149.771 58.2262 151.258 56.7386 151.258 54.9036C151.258 53.0686 149.771 51.5811 147.935 51.5811C146.1 51.5811 144.613 53.0686 144.613 54.9036C144.613 56.7386 146.1 58.2262 147.935 58.2262Z" fill="black"/>
<path d="M161.226 58.2262C163.061 58.2262 164.548 56.7386 164.548 54.9036C164.548 53.0686 163.061 51.5811 161.226 51.5811C159.391 51.5811 157.903 53.0686 157.903 54.9036C157.903 56.7386 159.391 58.2262 161.226 58.2262Z" fill="black"/>
<path d="M214.387 84.8063C216.222 84.8063 217.71 83.3187 217.71 81.4837C217.71 79.6487 216.222 78.1611 214.387 78.1611C212.552 78.1611 211.065 79.6487 211.065 81.4837C211.065 83.3187 212.552 84.8063 214.387 84.8063Z" fill="black"/>
<path d="M201.097 84.8063C202.932 84.8063 204.419 83.3187 204.419 81.4837C204.419 79.6487 202.932 78.1611 201.097 78.1611C199.262 78.1611 197.774 79.6487 197.774 81.4837C197.774 83.3187 199.262 84.8063 201.097 84.8063Z" fill="black"/>
<path d="M187.806 84.8063C189.641 84.8063 191.129 83.3187 191.129 81.4837C191.129 79.6487 189.641 78.1611 187.806 78.1611C185.971 78.1611 184.484 79.6487 184.484 81.4837C184.484 83.3187 185.971 84.8063 187.806 84.8063Z" fill="black"/>
<path d="M134.645 111.387C136.48 111.387 137.968 109.9 137.968 108.065C137.968 106.23 136.48 104.742 134.645 104.742C132.81 104.742 131.323 106.23 131.323 108.065C131.323 109.9 132.81 111.387 134.645 111.387Z" fill="black"/>
<path d="M147.935 111.387C149.771 111.387 151.258 109.9 151.258 108.065C151.258 106.23 149.771 104.742 147.935 104.742C146.1 104.742 144.613 106.23 144.613 108.065C144.613 109.9 146.1 111.387 147.935 111.387Z" fill="black"/>
<path d="M161.226 111.387C163.061 111.387 164.548 109.9 164.548 108.065C164.548 106.23 163.061 104.742 161.226 104.742C159.391 104.742 157.903 106.23 157.903 108.065C157.903 109.9 159.391 111.387 161.226 111.387Z" fill="black"/>
<path d="M214.387 137.967C216.222 137.967 217.71 136.48 217.71 134.645C217.71 132.81 216.222 131.322 214.387 131.322C212.552 131.322 211.065 132.81 211.065 134.645C211.065 136.48 212.552 137.967 214.387 137.967Z" fill="black"/>
<path d="M201.097 137.967C202.932 137.967 204.419 136.48 204.419 134.645C204.419 132.81 202.932 131.322 201.097 131.322C199.262 131.322 197.774 132.81 197.774 134.645C197.774 136.48 199.262 137.967 201.097 137.967Z" fill="black"/>
<path d="M187.806 137.967C189.641 137.967 191.129 136.48 191.129 134.645C191.129 132.81 189.641 131.322 187.806 131.322C185.971 131.322 184.484 132.81 184.484 134.645C184.484 136.48 185.971 137.967 187.806 137.967Z" fill="black"/>
<path d="M191.129 184.484H217.71V157.903H191.129V184.484ZM197.774 164.548H211.065V177.839H197.774V164.548Z" fill="black"/>
<path d="M157.903 184.484H184.484V157.903H157.903V184.484ZM164.548 164.548H177.839V177.839H164.548V164.548Z" fill="black"/>
<path d="M41.613 42.6204V84.8072H48.2581V42.6204L55.4615 53.4254L60.9903 49.7373L44.9356 25.6553L28.8809 49.7373L34.4096 53.4254L41.613 42.6204Z" fill="black"/>
<path d="M60.9903 63.0273L55.4615 66.7153L71.5162 90.7974L87.5709 66.7153L82.0422 63.0273L74.8388 73.8323V31.6455H68.1936V73.8323L60.9903 63.0273Z" fill="black"/>
<path d="M94.7741 42.6204V84.8072H101.419V42.6204L108.623 53.4254L114.151 49.7373L98.0967 25.6553L82.042 49.7373L87.5707 53.4254L94.7741 42.6204Z" fill="black"/>
<path d="M84.8064 111.387V104.742C70.1505 104.742 58.2258 116.667 58.2258 131.323H64.871C64.871 120.328 73.812 111.387 84.8064 111.387Z" fill="black"/>
</svg>
