<svg xmlns="http://www.w3.org/2000/svg" width="60" height="60" viewBox="0 0 60 60">
  <g id="moible__order" data-name="moible _order" transform="translate(-416 -2517)">
    <circle id="Ellipse_14" data-name="Ellipse 14" cx="30" cy="30" r="30" transform="translate(416 2517)" fill="#fff2e8"/>
    <g id="_34_ecommerce_2" data-name="34 ecommerce 2" transform="translate(420.31 2525.5)">
      <path id="Path_9280" data-name="Path 9280" d="M33.029,3.5H17.479A3.789,3.789,0,0,0,13.69,7.289V35.711A3.789,3.789,0,0,0,17.479,39.5H33.029a3.789,3.789,0,0,0,3.789-3.789V7.289A3.789,3.789,0,0,0,33.029,3.5ZM29.581,4.763l-.524,1.952h-7.6l-.524-1.952Zm5.975,30.947a2.526,2.526,0,0,1-2.526,2.526H17.479a2.526,2.526,0,0,1-2.526-2.526V34.353h20.6Zm0-2.621h-20.6V7.289a2.526,2.526,0,0,1,2.526-2.526h2.141l.613,2.28a1.259,1.259,0,0,0,1.219.935h7.6a1.259,1.259,0,0,0,1.219-.935l.613-2.28h2.141a2.526,2.526,0,0,1,2.526,2.526Z" transform="translate(0)" fill="#f48120"/>
      <path id="Path_9281" data-name="Path 9281" d="M32.346,54.426H29.595a.632.632,0,1,0,0,1.263h2.751a.632.632,0,1,0,0-1.263Z" transform="translate(-5.627 -18.762)" fill="#f48120"/>
      <path id="Path_9282" data-name="Path 9282" d="M33.366,23.345A1.269,1.269,0,0,0,32,22.158H30.947V20.895a1.895,1.895,0,1,0-3.789,0v1.263H26.1a1.263,1.263,0,0,0-1.364,1.124L24,31.076a1.271,1.271,0,0,0,1.371,1.187h7.364a1.279,1.279,0,0,0,1.371-1.244Zm-4.945-2.451a.632.632,0,1,1,1.263,0v1.263H28.421ZM32.735,31H25.371a.382.382,0,0,1-.095-.013l.714-7.547a.418.418,0,0,1,.114-.019h1.055v1.895a.632.632,0,1,0,1.263,0V23.421h1.263v1.895a.632.632,0,1,0,1.263,0V23.421H32a.326.326,0,0,1,.107.019l.726,7.547a.4.4,0,0,1-.1.013Z" transform="translate(-3.798 -5.711)" fill="#f48120"/>
      <path id="Path_9283" data-name="Path 9283" d="M33.106,15.606a.632.632,0,0,1-.442.183.616.616,0,0,1-.448-.189l-2.046-2.078-2.116,2.084a.632.632,0,1,1-.884-.9l2.558-2.526a.632.632,0,0,1,.9.006l2.488,2.526a.623.623,0,0,1-.006.891Z" transform="translate(-4.884 -3.131)" fill="#f48120"/>
      <path id="Path_9284" data-name="Path 9284" d="M33.112,44.054,30.624,46.58a.632.632,0,0,1-.9.006L27.169,44.06a.632.632,0,1,1,.884-.9l2.116,2.084,2.046-2.078a.632.632,0,1,1,.9.884Z" transform="translate(-4.884 -14.532)" fill="#f48120"/>
    </g>
  </g>
</svg>
