<svg id="energy-trading" xmlns="http://www.w3.org/2000/svg" width="60" height="60" viewBox="0 0 60 60">
  <circle id="Ellipse_153" data-name="Ellipse 153" cx="30" cy="30" r="30" fill="#f48120"/>
  <path id="mobile-signal-svgrepo-com" d="M13.661,34.982H8.686c-1.99,0-2.985,0-3.745-.387a3.553,3.553,0,0,1-1.553-1.553C3,32.282,3,31.287,3,29.3V8.686C3,6.7,3,5.7,3.387,4.94A3.553,3.553,0,0,1,4.94,3.387C5.7,3,6.7,3,8.686,3h9.95c1.99,0,2.985,0,3.746.387A3.553,3.553,0,0,1,23.934,4.94c.387.76.387,1.755.387,3.745v6.752M34.982,34.982H35M11.884,8.33h3.554M27.875,34.982a7.107,7.107,0,0,1,7.107-7.107M20.768,34.982A14.214,14.214,0,0,1,34.982,20.768" transform="translate(11 11.009)" fill="none" stroke="#fff" stroke-linecap="round" stroke-linejoin="round" stroke-width="2"/>
</svg>
