<svg xmlns="http://www.w3.org/2000/svg" width="60" height="60" viewBox="0 0 60 60">
  <g id="mobile_application" transform="translate(-964 -2039)">
    <circle id="Ellipse_14" data-name="Ellipse 14" cx="30" cy="30" r="30" transform="translate(964 2039)" fill="#fff2e8"/>
    <g id="mobile-development-coding-code-xcode-svgrepo-com" transform="translate(979 2050)">
      <path id="Path_9277" data-name="Path 9277" d="M22.051,27.359v4.872a2.443,2.443,0,0,1-2.436,2.436H7.436A2.443,2.443,0,0,1,5,32.231V5.436A2.443,2.443,0,0,1,7.436,3h12.18a2.443,2.443,0,0,1,2.436,2.436V7.872" transform="translate(0 0)" fill="none" stroke="#f48120" stroke-linecap="round" stroke-linejoin="round" stroke-miterlimit="10" stroke-width="1.2"/>
      <line id="Line_50" data-name="Line 50" x2="17" transform="translate(5 8)" fill="none" stroke="#f48120" stroke-linecap="round" stroke-linejoin="round" stroke-miterlimit="10" stroke-width="1.2"/>
      <line id="Line_51" data-name="Line 51" x2="17" transform="translate(5 27)" fill="none" stroke="#f48120" stroke-linecap="round" stroke-linejoin="round" stroke-miterlimit="10" stroke-width="1.2"/>
      <line id="Line_52" data-name="Line 52" x2="3" transform="translate(12 31)" fill="none" stroke="#f48120" stroke-linecap="round" stroke-linejoin="round" stroke-miterlimit="10" stroke-width="1.2"/>
      <path id="Path_9278" data-name="Path 9278" d="M14.654,12,11,15.654l3.654,3.654" transform="translate(1.308 1.962)" fill="none" stroke="#f48120" stroke-linecap="round" stroke-linejoin="round" stroke-miterlimit="10" stroke-width="1.2"/>
      <path id="Path_9279" data-name="Path 9279" d="M24,12l3.654,3.654L24,19.308" transform="translate(4.141 1.962)" fill="none" stroke="#f48120" stroke-linecap="round" stroke-linejoin="round" stroke-miterlimit="10" stroke-width="1.2"/>
      <line id="Line_53" data-name="Line 53" x1="4" y2="9" transform="translate(20 13)" fill="none" stroke="#f48120" stroke-linecap="round" stroke-linejoin="round" stroke-miterlimit="10" stroke-width="1.2"/>
    </g>
  </g>
</svg>
