<svg width="45" height="45" viewBox="0 0 45 45" fill="none" xmlns="http://www.w3.org/2000/svg">
<rect width="45" height="45" rx="22.5" fill="url(#paint0_linear_1_16)"/>
<path fill-rule="evenodd" clip-rule="evenodd" d="M21.0524 28.5569H22.9481C23.0714 28.5569 23.1896 28.5076 23.2768 28.4196C23.3639 28.3317 23.4129 28.2125 23.4129 28.0882V26.8429C23.7546 26.7418 24.0844 26.6039 24.3967 26.4315L25.2698 27.3119C25.357 27.3998 25.4751 27.4492 25.5984 27.4492C25.7216 27.4492 25.8398 27.3998 25.9269 27.3119L27.2675 25.9602C27.3546 25.8723 27.4036 25.7531 27.4036 25.6288C27.4036 25.5045 27.3546 25.3853 27.2675 25.2974L26.3943 24.4167C26.5653 24.1016 26.7021 23.769 26.8025 23.4244H28.0367C28.16 23.4244 28.2782 23.375 28.3654 23.2871C28.4525 23.1992 28.5015 23.0799 28.5015 22.9556V21.0438C28.5015 20.9194 28.4525 20.8002 28.3654 20.7123C28.2782 20.6244 28.16 20.575 28.0367 20.575H26.8025C26.7022 20.2304 26.5654 19.8978 26.3943 19.5828L27.2675 18.7024C27.3546 18.6145 27.4035 18.4953 27.4035 18.371C27.4035 18.2467 27.3546 18.1275 27.2675 18.0396L25.9269 16.6875C25.838 16.6028 25.7204 16.5556 25.5982 16.5556C25.4759 16.5556 25.3583 16.6028 25.2695 16.6875L24.3964 17.5681C24.0841 17.3957 23.7542 17.2578 23.4126 17.1568V15.9117C23.4126 15.7874 23.3636 15.6682 23.2764 15.5802C23.1893 15.4923 23.0711 15.4429 22.9478 15.4429H21.052C20.9287 15.4429 20.8105 15.4923 20.7233 15.5802C20.6362 15.6682 20.5872 15.7874 20.5872 15.9117V17.1567C20.2456 17.2577 19.9157 17.3956 19.6034 17.568L18.7305 16.6874C18.6418 16.6026 18.5242 16.5553 18.402 16.5553C18.2797 16.5553 18.1622 16.6026 18.0734 16.6874L16.7328 18.0394C16.6897 18.083 16.6554 18.1347 16.632 18.1915C16.6087 18.2484 16.5966 18.3094 16.5966 18.371C16.5966 18.4326 16.6087 18.4935 16.632 18.5504C16.6554 18.6073 16.6897 18.659 16.7328 18.7025L17.6057 19.5829C17.4348 19.8979 17.298 20.2306 17.1976 20.5751H15.964C15.8408 20.5751 15.7226 20.6245 15.6354 20.7124C15.5482 20.8003 15.4993 20.9195 15.4993 21.0439V22.9558C15.4993 23.0802 15.5482 23.1994 15.6354 23.2873C15.7226 23.3752 15.8408 23.4246 15.964 23.4246H17.1983C17.2985 23.7692 17.4352 24.1019 17.6061 24.4169L16.7332 25.2976C16.69 25.3411 16.6558 25.3927 16.6324 25.4495C16.609 25.5064 16.5969 25.5673 16.5969 25.6289C16.5969 25.6904 16.609 25.7514 16.6324 25.8082C16.6558 25.8651 16.69 25.9167 16.7332 25.9602L18.0738 27.3119C18.161 27.3998 18.2792 27.4492 18.4024 27.4492C18.5256 27.4492 18.6438 27.3998 18.731 27.3119L19.6038 26.4315C19.9161 26.604 20.246 26.742 20.5876 26.8432V28.0882C20.5876 28.2125 20.6366 28.3317 20.7237 28.4196C20.8109 28.5076 20.9291 28.5569 21.0524 28.5569ZM20.9107 35.6437H23.0894C23.3226 35.6435 23.5462 35.5499 23.7112 35.3836C23.8761 35.2173 23.9689 34.9917 23.9691 34.7565V33.9186C23.9689 33.6833 23.8761 33.4578 23.7112 33.2915C23.5463 33.1251 23.3227 33.0316 23.0895 33.0313H20.9109C20.6776 33.0315 20.4539 33.1251 20.2889 33.2914C20.1239 33.4577 20.0311 33.6833 20.0308 33.9186V34.7565C20.0312 34.9917 20.124 35.2172 20.289 35.3835C20.4539 35.5498 20.6775 35.6433 20.9107 35.6435V35.6437ZM23.0399 34.7062H20.9604V33.969H23.0399L23.0399 34.7062ZM18.4936 10.1314H25.5732C25.6965 10.1314 25.8147 10.082 25.9019 9.99412C25.989 9.90621 26.038 9.78697 26.038 9.66265C26.038 9.53832 25.989 9.41908 25.9019 9.33117C25.8147 9.24326 25.6965 9.19387 25.5732 9.19387H18.4936C18.3704 9.19387 18.2521 9.24326 18.165 9.33117C18.0778 9.41908 18.0289 9.53832 18.0289 9.66265C18.0289 9.78697 18.0778 9.90621 18.165 9.99412C18.2521 10.082 18.3703 10.1314 18.4936 10.1314ZM13.9298 32.6123H30.0707V35.4637C30.0706 35.6225 30.0079 35.7748 29.8966 35.887C29.7852 35.9993 29.6342 36.0624 29.4768 36.0626H14.5232C14.3658 36.0624 14.2149 35.9992 14.1036 35.887C13.9923 35.7747 13.9297 35.6225 13.9295 35.4637V32.6122L13.9298 32.6123ZM31 32.1591V32.1435V11.8565V11.8409V8.53635C30.9995 8.12903 30.8389 7.73852 30.5533 7.4505C30.2678 7.16248 29.8806 7.00047 29.4768 7H14.5232C14.1194 7.00047 13.7322 7.16248 13.4467 7.4505C13.1611 7.73852 13.0005 8.12903 13 8.53635V35.4636C13.0005 35.8709 13.1611 36.2614 13.4467 36.5494C13.7322 36.8374 14.1194 36.9995 14.5232 37H29.4768C29.8806 36.9995 30.2678 36.8375 30.5533 36.5495C30.8389 36.2615 30.9995 35.871 31 35.4636V32.1588V32.1591ZM30.0705 11.3878H13.9298V8.53647C13.9299 8.37771 13.9926 8.22549 14.1039 8.11322C14.2152 8.00095 14.3661 7.9378 14.5235 7.93761H29.4768C29.6342 7.93778 29.7852 8.00092 29.8965 8.11319C30.0079 8.22545 30.0705 8.37767 30.0707 8.53647V11.3878H30.0705ZM30.0705 31.6748H13.9298V12.3252H30.0707L30.0705 31.6748ZM22.0003 25.2107C22.63 25.2107 23.2455 25.0224 23.7691 24.6695C24.2927 24.3167 24.7007 23.8151 24.9417 23.2283C25.1826 22.6416 25.2457 21.9959 25.1228 21.373C24.9999 20.7501 24.6967 20.1779 24.2514 19.7289C23.8061 19.2798 23.2388 18.974 22.6212 18.8501C22.0036 18.7263 21.3634 18.7899 20.7817 19.033C20.2 19.2761 19.7028 19.6877 19.353 20.2158C19.0032 20.744 18.8165 21.3648 18.8166 21.9999C18.8175 22.8513 19.1533 23.6674 19.7501 24.2694C20.347 24.8713 21.1562 25.2098 22.0003 25.2107ZM22.0003 19.7266C22.4461 19.7266 22.882 19.8599 23.2526 20.1097C23.6233 20.3596 23.9123 20.7147 24.0829 21.1301C24.2535 21.5456 24.2981 22.0027 24.2111 22.4437C24.1241 22.8848 23.9094 23.2899 23.5942 23.6078C23.2789 23.9258 22.8772 24.1423 22.4399 24.23C22.0027 24.3177 21.5494 24.2727 21.1375 24.1006C20.7257 23.9285 20.3736 23.637 20.1259 23.2631C19.8783 22.8892 19.7461 22.4496 19.7461 21.9999C19.7468 21.3972 19.9845 20.8192 20.4071 20.393C20.8297 19.9668 21.4026 19.727 22.0003 19.7264V19.7266ZM22.4834 27.6196H21.5172V26.4786C21.5172 26.3712 21.4806 26.2671 21.4136 26.1836C21.3466 26.1002 21.2532 26.0424 21.149 26.0201C20.6631 25.916 20.2004 25.7225 19.784 25.4493C19.6947 25.3908 19.5882 25.365 19.4823 25.3763C19.3765 25.3875 19.2776 25.4351 19.2024 25.511L18.4021 26.3181L17.719 25.6291L18.5192 24.8217C18.5946 24.7458 18.6418 24.6461 18.6529 24.5393C18.6641 24.4325 18.6385 24.325 18.5804 24.235C18.3093 23.8152 18.1175 23.3484 18.0144 22.8583C17.9923 22.7532 17.9351 22.659 17.8523 22.5914C17.7696 22.5238 17.6663 22.4869 17.5598 22.4869H16.4288V21.5126H17.5597C17.6662 21.5126 17.7695 21.4758 17.8522 21.4082C17.935 21.3406 17.9922 21.2464 18.0143 21.1413C18.1174 20.6513 18.3094 20.1848 18.5805 19.7651C18.6385 19.675 18.6641 19.5675 18.6529 19.4607C18.6418 19.3538 18.5946 19.2541 18.5192 19.1781L17.719 18.371L18.4022 17.6818L19.2024 18.4889C19.2776 18.565 19.3765 18.6126 19.4824 18.6238C19.5883 18.635 19.6948 18.6092 19.7841 18.5505C20.2003 18.2772 20.6631 18.0837 21.1491 17.98C21.2532 17.9576 21.3466 17.8999 21.4136 17.8164C21.4806 17.733 21.5172 17.6288 21.5172 17.5214V16.3805H22.4834V17.5214C22.4834 17.6288 22.52 17.733 22.587 17.8164C22.654 17.8999 22.7474 17.9576 22.8516 17.98C23.3374 18.0839 23.8001 18.2774 24.2163 18.5508C24.3056 18.6094 24.4121 18.6352 24.5181 18.624C24.624 18.6128 24.7229 18.5652 24.7982 18.4892L25.5985 17.6818L26.2816 18.371L25.4813 19.1782C25.4059 19.2541 25.3587 19.3539 25.3476 19.4608C25.3365 19.5677 25.3622 19.6751 25.4203 19.7652C25.6913 20.185 25.8832 20.6516 25.9863 21.1416C26.0084 21.2467 26.0656 21.3409 26.1484 21.4085C26.2311 21.4761 26.3344 21.5129 26.4409 21.5129H27.5718V22.4874H26.4406C26.3341 22.4874 26.2308 22.5243 26.1481 22.5919C26.0653 22.6595 26.0081 22.7537 25.986 22.8587C25.883 23.349 25.6911 23.8158 25.42 24.2358C25.3621 24.3258 25.3365 24.4332 25.3476 24.54C25.3587 24.6468 25.4058 24.7465 25.481 24.8224L26.2813 25.6298L25.5985 26.3185L24.7982 25.5114C24.723 25.4355 24.6241 25.3879 24.5182 25.3767C24.4124 25.3654 24.3059 25.3912 24.2166 25.4497C23.8002 25.7228 23.3375 25.9162 22.8516 26.0202C22.7474 26.0425 22.654 26.1003 22.587 26.1837C22.52 26.2672 22.4834 26.3713 22.4834 26.4787V27.6194V27.6196Z" fill="white"/>
<defs>
<linearGradient id="paint0_linear_1_16" x1="22" y1="-3.29812e-07" x2="22" y2="45" gradientUnits="userSpaceOnUse">
<stop stop-color="#353535"/>
<stop offset="0.122222" stop-color="#323232"/>
<stop offset="1" stop-color="#1B1B1B"/>
</linearGradient>
</defs>
</svg>
