<svg xmlns="http://www.w3.org/2000/svg" xmlns:xlink="http://www.w3.org/1999/xlink" width="40" height="40" viewBox="0 0 40 40">
  <defs>
    <clipPath id="clip-path">
      <rect id="Rectangle_3617" data-name="Rectangle 3617" width="40" height="40" transform="translate(379 3253)" fill="none" stroke="#707070" stroke-width="1"/>
    </clipPath>
  </defs>
  <g id="Mask_Group_8049" data-name="Mask Group 8049" transform="translate(-379 -3253)" clip-path="url(#clip-path)">
    <path id="graphql-svgrepo-com" d="M18.734,3.667l6.578,3.8a2.863,2.863,0,0,1,4.047-.1,2.955,2.955,0,0,1,.5.635,2.863,2.863,0,0,1-1.808,4.2v7.6a2.842,2.842,0,0,1,2.109,3.427,2.944,2.944,0,0,1-.307.771,2.859,2.859,0,0,1-3.906,1.042,2.728,2.728,0,0,1-.7-.568L18.707,28.25a2.854,2.854,0,0,1-1.813,3.6A2.784,2.784,0,0,1,16,32a2.851,2.851,0,0,1-2.854-2.849,2.9,2.9,0,0,1,.12-.813l-6.583-3.8A2.853,2.853,0,0,1,2.551,20.6a2.891,2.891,0,0,1,1.4-.807V12.2A2.852,2.852,0,0,1,1.838,8.755,2.814,2.814,0,0,1,2.14,8a2.867,2.867,0,0,1,4.542-.542l6.583-3.8A2.85,2.85,0,0,1,15.187.119,2.677,2.677,0,0,1,16,0a2.85,2.85,0,0,1,2.854,2.844,2.921,2.921,0,0,1-.12.823Zm-.687,1.172c-.026.026-.047.052-.078.078l8.615,14.917c.036-.01.078-.021.109-.031V12.194A2.841,2.841,0,0,1,24.62,8.746c0-.031.016-.068.021-.1Zm-4.021.078-.078-.078-6.594,3.8a2.849,2.849,0,0,1-1.948,3.526c-.036.01-.068.016-.1.026V19.8l.115.031L14.032,4.916Zm2.771.677a2.937,2.937,0,0,1-1.589,0L6.593,20.511A2.919,2.919,0,0,1,7.4,21.9H24.609a2.882,2.882,0,0,1,.8-1.4Zm1.312,21.635,6.552-3.786c-.021-.063-.036-.125-.052-.188H7.39l-.031.109,6.589,3.8a2.854,2.854,0,0,1,4.161.062Z" transform="translate(384.242 3257.001)"/>
  </g>
</svg>
