<svg xmlns="http://www.w3.org/2000/svg" width="370" height="185" viewBox="0 0 370 185">
  <g id="Group_8409" data-name="Group 8409" transform="translate(-375 -3676)">
    <g id="Group_8410" data-name="Group 8410" transform="translate(-800 -599)">
      <rect id="Rectangle_3622" data-name="Rectangle 3622" width="370" height="185" transform="translate(1175 4275)" fill="#232323"/>
      <g id="Group_8428" data-name="Group 8428" transform="translate(4 4.5)">
        <g id="undraw_data_extraction_re_0rd3" transform="translate(933.446 4296)">
          <path id="Path_9749" data-name="Path 9749" d="M721.011,246.579h-49.9v-.708H720.3V212.961h.708Z" transform="translate(-225.628 -137.599)" fill="#e4e4e4"/>
          <path id="Path_9750" data-name="Path 9750" d="M353.822,285.579h-.708V251.961h49.9v.708H353.822Z" transform="translate(-20.161 -162.798)" fill="#e4e4e4"/>
          <path id="Path_9751" data-name="Path 9751" d="M470.011,73.579h-49.9V39.961h.708V72.872h49.189Z" transform="translate(-63.451 -25.82)" fill="#e4e4e4"/>
          <path id="Path_680" data-name="Path 680" d="M568.553,154.52a1.01,1.01,0,0,0,0,2.021h20.5a1.01,1.01,0,0,0,0-2.021Z" transform="translate(-221.819 -154.52)" fill="#cbcbcb"/>
          <path id="Path_681" data-name="Path 681" d="M568.553,171.342a1.01,1.01,0,0,0,0,2.021h20.5a1.01,1.01,0,0,0,0-2.021Z" transform="translate(-221.819 -165.389)" fill="#cbcbcb"/>
          <path id="Path_683" data-name="Path 683" d="M979.531,351a1.01,1.01,0,0,0,0-2.021h-20.5a1.01,1.01,0,0,0,0,2.021Z" transform="translate(-474.117 -280.167)" fill="#cbcbcb"/>
          <path id="Path_684" data-name="Path 684" d="M979.531,334.18a1.01,1.01,0,0,0,0-2.021h-20.5a1.01,1.01,0,0,0,0,2.021Z" transform="translate(-474.117 -269.297)" fill="#cbcbcb"/>
          <path id="Path_9752" data-name="Path 9752" d="M704.321,352.21a37.865,37.865,0,1,1,37.865-37.865,37.865,37.865,0,0,1-37.865,37.865Zm0-75.022a37.157,37.157,0,1,0,37.157,37.157,37.157,37.157,0,0,0-37.157-37.157Z" transform="translate(-285.729 -233.321)" fill="#e4e4e4"/>
          <circle id="Ellipse_224" data-name="Ellipse 224" cx="4.247" cy="4.247" r="4.247" transform="translate(399.128 43.513)" fill="#f48120"/>
          <circle id="Ellipse_225" data-name="Ellipse 225" cx="4.247" cy="4.247" r="4.247" transform="translate(377.542 85.625)" fill="#f48120"/>
          <circle id="Ellipse_226" data-name="Ellipse 226" cx="4.247" cy="4.247" r="4.247" transform="translate(439.824 104.734)" fill="#f48120"/>
          <path id="Path_683-2" data-name="Path 683" d="M501.263,514.267a1.01,1.01,0,0,0,0,2.021h20.5a1.01,1.01,0,0,0,0-2.021Z" transform="translate(-178.341 -386.96)" fill="#cbcbcb"/>
          <path id="Path_684-2" data-name="Path 684" d="M501.263,531.09a1.01,1.01,0,1,0,0,2.021h20.5a1.01,1.01,0,0,0,0-2.021Z" transform="translate(-178.341 -397.83)" fill="#cbcbcb"/>
          <path id="Path_9847" data-name="Path 9847" d="M694.413,332.393a27.957,27.957,0,1,1,27.957-27.957,27.957,27.957,0,0,1-27.957,27.957Zm0-55.391a27.434,27.434,0,1,0,27.434,27.434A27.434,27.434,0,0,0,694.413,277Z" transform="translate(-275.821 -223.413)" fill="#e4e4e4"/>
          <path id="Path_9848" data-name="Path 9848" d="M682.6,308.761a16.14,16.14,0,1,1,16.14-16.14,16.14,16.14,0,0,1-16.14,16.14Zm0-31.979a15.839,15.839,0,1,0,15.839,15.839A15.839,15.839,0,0,0,682.6,276.782Z" transform="translate(-264.005 -211.596)" fill="#e4e4e4"/>
          <circle id="Ellipse_244" data-name="Ellipse 244" cx="18" cy="18" r="18" transform="translate(400.554 63)" fill="#f48120"/>
        </g>
        <rect id="Rectangle_3685" data-name="Rectangle 3685" width="58" height="14" rx="7" transform="translate(1309 4292)" fill="#fff"/>
        <rect id="Rectangle_3686" data-name="Rectangle 3686" width="58" height="14" rx="7" transform="translate(1399 4339)" fill="#fff"/>
        <rect id="Rectangle_3687" data-name="Rectangle 3687" width="58" height="14" rx="7" transform="translate(1286 4420)" fill="#fff"/>
      </g>
    </g>
  </g>
</svg>
