<svg id="banner-main5" xmlns="http://www.w3.org/2000/svg" xmlns:xlink="http://www.w3.org/1999/xlink" width="45" height="45" viewBox="0 0 45 45">
  <defs>
    <linearGradient id="linear-gradient" x1="0.5" x2="0.156" y2="0.791" gradientUnits="objectBoundingBox">
      <stop offset="0" stop-color="#3e3e3e"/>
      <stop offset="1" stop-color="#1a1a1a"/>
    </linearGradient>
  </defs>
  <g id="Modern-Retail-FMCG-Analytics-Solutions">
    <circle id="Ellipse_1" data-name="Ellipse 1" cx="22.5" cy="22.5" r="22.5" fill="url(#linear-gradient)"/>
    <g id="noun-analytics-6980275" transform="translate(0 -6.101)">
      <path id="Path_9179" data-name="Path 9179" d="M23.488,44.609h4.075v7.738H23.488Z" transform="translate(-9.105 -17.893)" fill="#fff"/>
      <path id="Path_9180" data-name="Path 9180" d="M40.488,39.07h4.075v9.539H40.488Z" transform="translate(-20.58 -14.154)" fill="#fff"/>
      <path id="Path_9181" data-name="Path 9181" d="M57.48,46.77h4.075v7.036H57.48Z" transform="translate(-32.049 -19.351)" fill="#fff"/>
      <path id="Path_9182" data-name="Path 9182" d="M74.48,32.57h4.075V44.222H74.48Z" transform="translate(-43.524 -9.766)" fill="#fff"/>
      <path id="Path_9183" data-name="Path 9183" d="M11.6,44.331H12.61v-1.6H36V41.721H12.61V26.238H11.6V41.721H10v1.014h1.6Z" transform="translate(0 -5.492)" fill="#fff"/>
      <path id="Path_9184" data-name="Path 9184" d="M43.809,20.519A1.209,1.209,0,1,0,42.6,19.31a1.23,1.23,0,0,0,.046.312L38.8,22.833a1.177,1.177,0,0,0-1.3.179l-3.529-1.6a1.207,1.207,0,0,0-2.4-.137L28.119,22.4a1.208,1.208,0,1,0,.312.961l3.442-1.121a1.194,1.194,0,0,0,1.677.094l3.527,1.6a1.209,1.209,0,0,0,2.417-.006,1.23,1.23,0,0,0-.046-.312L43.293,20.4a1.194,1.194,0,0,0,.517.121Z" transform="translate(-10.816)" fill="#fff"/>
    </g>
  </g>
</svg>
