<?xml version="1.0" encoding="UTF-8"?><svg id="Layer_1" xmlns="http://www.w3.org/2000/svg" viewBox="0 0 50.35 50.35"><defs><style>.cls-1{fill:#000;stroke-width:0px;}</style></defs><path class="cls-1" d="M38.85,15.2c.61,1.05,1.18,2.04,1.77,3.07-.65.38-1.25.75-1.88,1.08-.45.24-.56.56-.4,1.05.24.74.43,1.49.6,2.25.11.49.35.73.87.72.71-.02,1.41,0,2.15,0v3.56c-.71,0-1.41,0-2.12,0-.63,0-.76.13-.9.72-.18.76-.37,1.51-.61,2.25-.15.47-.04.77.39,1.01.62.34,1.23.71,1.9,1.1-.59,1.03-1.17,2.03-1.77,3.07-.64-.37-1.25-.72-1.86-1.07-.54-.31-.72-.26-1.14.18-.52.55-1.06,1.09-1.62,1.61-.45.42-.49.59-.18,1.14.34.6.69,1.2,1.07,1.86-1.02.59-2.03,1.17-3.08,1.78-.36-.63-.71-1.24-1.07-1.85-.32-.54-.49-.59-1.08-.42-.76.22-1.53.43-2.3.61-.43.1-.65.32-.65.77,0,.73,0,1.45,0,2.22h-3.56c0-.7,0-1.39,0-2.08,0-.69-.09-.78-.79-.94-.72-.17-1.45-.35-2.15-.59-.49-.16-.8-.07-1.05.38-.34.62-.71,1.23-1.09,1.89-1.03-.59-2.03-1.17-3.07-1.77.37-.64.72-1.25,1.07-1.86.31-.54.26-.72-.18-1.14-.55-.53-1.09-1.06-1.61-1.61-.42-.44-.6-.48-1.14-.17-.6.34-1.2.69-1.85,1.06-.59-1.02-1.17-2.02-1.78-3.07.63-.37,1.24-.72,1.85-1.07.54-.32.59-.49.42-1.08-.22-.76-.43-1.53-.61-2.3-.1-.43-.32-.64-.77-.63-.73.01-1.45,0-2.22,0v-3.56c.71,0,1.4,0,2.09,0,.64,0,.77-.13.92-.76.18-.76.38-1.51.62-2.25.15-.45.03-.75-.37-.97-.63-.36-1.26-.73-1.92-1.11.6-1.03,1.18-2.04,1.78-3.07.67.38,1.3.73,1.92,1.11.4.24.71.18,1.03-.16.55-.59,1.13-1.17,1.72-1.72.35-.32.4-.64.16-1.03-.37-.62-.72-1.25-1.11-1.92,1.02-.59,2.01-1.16,3.08-1.78.34.59.68,1.17,1.01,1.75.4.69.5.7,1.26.47.68-.21,1.37-.38,2.06-.54.6-.14.74-.28.74-.88,0-.69,0-1.39,0-2.12h3.56c0,.7.02,1.41,0,2.11-.02.51.2.77.7.89.77.18,1.54.38,2.3.61.47.14.77.03,1.01-.4.34-.62.71-1.23,1.09-1.89,1.03.6,2.03,1.17,3.07,1.77-.38.66-.73,1.3-1.11,1.92-.24.4-.19.71.15,1.03.59.55,1.17,1.13,1.72,1.72.34.36.65.41,1.07.15.6-.37,1.23-.71,1.89-1.09ZM25.18,36.83c6.46,0,11.71-5.25,11.7-11.7,0-6.44-5.27-11.7-11.71-11.7-6.44,0-11.69,5.26-11.69,11.71,0,6.46,5.24,11.69,11.7,11.69Z"/><path class="cls-1" d="M38.79,6.29c.11.92.2,1.73.3,2.53.03.24.05.47.07.71.03.41-.16.67-.55.71-.38.03-.6-.22-.65-.58-.09-.64-.16-1.28-.23-1.92-.1-.81-.19-1.61-.29-2.42-.08-.64.11-.88.73-.95,1.33-.15,2.66-.32,3.98-.48.05,0,.1-.01.15-.02.6-.06.89.1.95.5.06.41-.22.64-.84.72-.86.1-1.71.21-2.68.33.24.19.42.34.6.48,5.09,4.08,8.12,9.35,9.08,15.8,1.5,10.08-3.55,19.98-12.08,24.67-8.41,4.63-16.86,4.41-25.15-.48-.36-.21-.58-.49-.36-.92.17-.35.57-.4,1.01-.12,2.94,1.84,6.13,3.01,9.58,3.39,5.55.62,10.73-.53,15.41-3.58,5.55-3.62,9.1-8.73,10.18-15.26,1.53-9.28-1.48-16.96-8.85-22.87-.08-.06-.16-.11-.36-.24Z"/><path class="cls-1" d="M6.61,39.12c.18-.79.34-1.53.5-2.27.01-.07.02-.13.04-.2.14-.62.38-.85.8-.77.4.08.53.4.39,1.03-.28,1.32-.56,2.65-.85,3.97-.15.7-.36.84-1.07.68-1.37-.29-2.74-.6-4.11-.9-.49-.11-.71-.39-.62-.76.09-.37.41-.53.89-.43,1.05.23,2.11.46,3.19.69-.62-.95-1.24-1.84-1.78-2.77C-3.99,23.68,3.1,6.02,18.36,1.62c4.34-1.25,8.71-1.29,13.09-.16.23.06.51.18.63.37.1.15.08.5-.04.64-.13.15-.45.26-.66.22-.95-.16-1.88-.44-2.83-.57-7.85-1.04-14.59,1.24-20.13,6.9-3.61,3.68-5.72,8.15-6.33,13.27-.73,6.09.74,11.65,4.34,16.63.04.05.09.1.19.2Z"/><path class="cls-1" d="M25.36,26.4c1.49-1.54,2.94-3.05,4.46-4.62-.22-.02-.36-.04-.5-.04-.69,0-1.39.01-2.08,0-.36,0-.61-.2-.62-.6,0-.36.19-.59.55-.6,1.39-.02,2.78-.02,4.17-.02.38,0,.58.26.58.63,0,1.34,0,2.68.01,4.01,0,.38-.2.63-.57.64-.41.02-.63-.24-.64-.64-.02-.81,0-1.61,0-2.53-.2.19-.33.3-.44.41-1.42,1.48-2.84,2.95-4.27,4.43-.56.58-.83.58-1.36-.03-.46-.54-.92-1.08-1.39-1.62-.79.78-1.56,1.54-2.33,2.29-.46.45-.9.92-1.36,1.37-.36.35-.71.39-.97.1-.3-.34-.2-.65.09-.94,1.36-1.37,2.72-2.74,4.09-4.11.37-.37.68-.35,1.04.06.51.58,1.01,1.18,1.54,1.8Z"/></svg>