<svg xmlns="http://www.w3.org/2000/svg" width="370" height="185" viewBox="0 0 370 185">
  <g id="Group_8411" data-name="Group 8411" transform="translate(-775 -4275)">
    <rect id="Rectangle_3621" data-name="Rectangle 3621" width="370" height="185" transform="translate(775 4275)" fill="#232323"/>
    <g id="undraw_data_processing_yrrv" transform="translate(869.135 4284.449)">
      <g id="Group_8429" data-name="Group 8429" transform="translate(-16.457 130.546)">
        <g id="Group_8435" data-name="Group 8435" transform="translate(0 0)">
          <ellipse id="Ellipse_233" data-name="Ellipse 233" cx="2.188" cy="2.188" rx="2.188" ry="2.188" transform="translate(7.553 2.231)" fill="#e6e6e6"/>
          <ellipse id="Ellipse_234" data-name="Ellipse 234" cx="2.188" cy="2.188" rx="2.188" ry="2.188" transform="translate(18.198 2.231)" fill="#e6e6e6"/>
          <ellipse id="Ellipse_235" data-name="Ellipse 235" cx="2.188" cy="2.188" rx="2.188" ry="2.188" transform="translate(28.844 2.231)" fill="#e6e6e6"/>
          <ellipse id="Ellipse_236" data-name="Ellipse 236" cx="2.188" cy="2.188" rx="2.188" ry="2.188" transform="translate(39.488 2.231)" fill="#e6e6e6"/>
          <ellipse id="Ellipse_237" data-name="Ellipse 237" cx="2.188" cy="2.188" rx="2.188" ry="2.188" transform="translate(50.133 2.231)" fill="#e6e6e6"/>
          <ellipse id="Ellipse_238" data-name="Ellipse 238" cx="2.188" cy="2.188" rx="2.188" ry="2.188" transform="translate(60.778 2.231)" fill="#e6e6e6"/>
          <ellipse id="Ellipse_239" data-name="Ellipse 239" cx="2.188" cy="2.188" rx="2.188" ry="2.188" transform="translate(71.423 2.231)" fill="#e6e6e6"/>
          <path id="Path_9805" data-name="Path 9805" d="M256.494,247.382H176.226a1.446,1.446,0,0,1-1.444-1.444v-5.754a1.446,1.446,0,0,1,1.444-1.444h80.268a1.446,1.446,0,0,1,1.444,1.444v5.754A1.446,1.446,0,0,1,256.494,247.382Zm-80.268-8.064a.867.867,0,0,0-.866.866v5.754a.867.867,0,0,0,.866.866h80.268a.867.867,0,0,0,.866-.866v-5.754a.867.867,0,0,0-.866-.866Z" transform="translate(-174.782 -238.74)" fill="#e6e6e6"/>
        </g>
      </g>
      <g id="Group_8430" data-name="Group 8430" transform="translate(-16.457 86.235)">
        <path id="Path_9806" data-name="Path 9806" d="M202.785,145.925a1.314,1.314,0,0,1,1.313,1.313v28.45A1.314,1.314,0,0,1,202.785,177H174.917a1.314,1.314,0,0,1-1.313-1.313v-28.45a1.314,1.314,0,0,1,1.313-1.313h27.869m0-1.313H174.917a2.626,2.626,0,0,0-2.626,2.626v28.45a2.626,2.626,0,0,0,2.626,2.626h27.869a2.626,2.626,0,0,0,2.626-2.626v-28.45A2.626,2.626,0,0,0,202.785,144.612Z" transform="translate(-172.291 -144.612)" fill="#e6e6e6"/>
        <path id="Path_9807" data-name="Path 9807" d="M208.285,164.079H189.691a.656.656,0,0,1,0-1.313h18.594a.656.656,0,1,1,0,1.313Z" transform="translate(-182.138 -155.288)" fill="#f48120"/>
        <path id="Path_9808" data-name="Path 9808" d="M208.285,175.364H189.691a.656.656,0,0,1,0-1.313h18.594a.656.656,0,1,1,0,1.313Z" transform="translate(-182.138 -161.924)" fill="#f48120"/>
        <path id="Path_9809" data-name="Path 9809" d="M208.285,186.647H189.691a.656.656,0,1,1,0-1.313h18.594a.656.656,0,1,1,0,1.313Z" transform="translate(-182.138 -168.559)" fill="#f48120"/>
        <path id="Path_9810" data-name="Path 9810" d="M208.285,197.932H189.691a.656.656,0,1,1,0-1.313h18.594a.656.656,0,1,1,0,1.313Z" transform="translate(-182.138 -175.195)" fill="#f48120"/>
        <path id="Path_9811" data-name="Path 9811" d="M208.285,209.217H189.691a.656.656,0,0,1,0-1.313h18.594a.656.656,0,1,1,0,1.313Z" transform="translate(-182.138 -181.832)" fill="#f48120"/>
      </g>
      <g id="Group_8433" data-name="Group 8433" transform="translate(29.875 46.354)">
        <path id="Path_9812" data-name="Path 9812" d="M433.846,145.925a1.314,1.314,0,0,1,1.313,1.313v28.45A1.314,1.314,0,0,1,433.846,177H405.978a1.314,1.314,0,0,1-1.313-1.313v-28.45a1.314,1.314,0,0,1,1.313-1.313h27.869m0-1.313H405.978a2.626,2.626,0,0,0-2.626,2.626v28.45a2.626,2.626,0,0,0,2.626,2.626h27.869a2.626,2.626,0,0,0,2.626-2.626v-28.45a2.626,2.626,0,0,0-2.626-2.626Z" transform="translate(-403.352 -144.612)" fill="#e6e6e6"/>
        <g id="Group_8432" data-name="Group 8432" transform="translate(6.898 7.478)">
          <path id="Path_9813" data-name="Path 9813" d="M439.346,164.079H420.752a.656.656,0,1,1,0-1.313h18.594a.656.656,0,1,1,0,1.313Z" transform="translate(-420.095 -162.766)" fill="#f48120"/>
          <path id="Path_9814" data-name="Path 9814" d="M439.346,175.364H420.752a.656.656,0,1,1,0-1.313h18.594a.656.656,0,1,1,0,1.313Z" transform="translate(-420.095 -169.402)" fill="#f48120"/>
          <path id="Path_9815" data-name="Path 9815" d="M439.346,186.647H420.752a.656.656,0,1,1,0-1.313h18.594a.656.656,0,1,1,0,1.313Z" transform="translate(-420.095 -176.037)" fill="#f48120"/>
          <path id="Path_9816" data-name="Path 9816" d="M439.346,197.932H420.752a.656.656,0,1,1,0-1.313h18.594a.656.656,0,1,1,0,1.313Z" transform="translate(-420.095 -182.673)" fill="#f48120"/>
          <path id="Path_9817" data-name="Path 9817" d="M439.346,209.217H420.752a.656.656,0,1,1,0-1.313h18.594a.656.656,0,0,1,0,1.313Z" transform="translate(-420.095 -189.309)" fill="#f48120"/>
        </g>
      </g>
      <g id="Group_8431" data-name="Group 8431" transform="translate(30.479 93.637)">
        <path id="Path_9824" data-name="Path 9824" d="M317.743,188.881h-28.6a2.921,2.921,0,0,1-2.917-2.917V165.5a2.921,2.921,0,0,1,2.917-2.917h28.6a2.921,2.921,0,0,1,2.917,2.917v20.464A2.921,2.921,0,0,1,317.743,188.881Zm-28.6-24.986a1.606,1.606,0,0,0-1.6,1.6v20.464a1.606,1.606,0,0,0,1.6,1.6h28.6a1.606,1.606,0,0,0,1.6-1.6V165.5a1.606,1.606,0,0,0-1.6-1.6Z" transform="translate(-286.228 -162.583)" fill="#e6e6e6"/>
        <path id="Path_9825" data-name="Path 9825" d="M323.11,182.938H304.516a.656.656,0,0,1,0-1.313H323.11a.656.656,0,1,1,0,1.313Z" transform="translate(-296.598 -173.78)" fill="#f48120"/>
        <path id="Path_9826" data-name="Path 9826" d="M323.11,194.223H304.516a.656.656,0,0,1,0-1.313H323.11a.656.656,0,1,1,0,1.313Z" transform="translate(-296.598 -180.416)" fill="#f48120"/>
        <path id="Path_9827" data-name="Path 9827" d="M323.11,205.507H304.516a.656.656,0,0,1,0-1.313H323.11a.656.656,0,1,1,0,1.313Z" transform="translate(-296.598 -187.052)" fill="#f48120"/>
      </g>
      <g id="Group_8434" data-name="Group 8434" transform="translate(73.338 11.974)">
        <path id="Path_9828" data-name="Path 9828" d="M550.877,206.359l-27.467-7.965a2.92,2.92,0,0,1-1.989-3.614l5.7-19.654a2.921,2.921,0,0,1,3.614-1.99L558.2,181.1a2.92,2.92,0,0,1,1.989,3.615l-5.7,19.654a2.921,2.921,0,0,1-3.615,1.989ZM530.37,174.4a1.606,1.606,0,0,0-1.988,1.094l-5.7,19.654a1.606,1.606,0,0,0,1.094,1.988l27.467,7.965A1.606,1.606,0,0,0,553.231,204l5.7-19.654a1.606,1.606,0,0,0-1.094-1.988Z" transform="translate(-521.306 -173.02)" fill="#f48120"/>
        <path id="Path_9829" data-name="Path 9829" d="M566.849,201.374l-17.858-5.179a.656.656,0,0,1,.366-1.261l17.858,5.179a.656.656,0,0,1-.366,1.261Z" transform="translate(-537.308 -185.891)" fill="#f48120"/>
        <path id="Path_9830" data-name="Path 9830" d="M563.706,212.212l-17.858-5.179a.656.656,0,1,1,.366-1.261l17.858,5.179a.656.656,0,0,1-.366,1.261Z" transform="translate(-535.46 -192.265)" fill="#f48120"/>
        <path id="Path_9831" data-name="Path 9831" d="M560.563,223.05,542.7,217.871a.656.656,0,0,1,.366-1.261l17.858,5.179a.656.656,0,0,1-.366,1.261Z" transform="translate(-533.612 -198.638)" fill="#f48120"/>
      </g>
      <path id="Path_9832" data-name="Path 9832" d="M477.552,565.81H448.421l.987-12.837h27.156Z" transform="translate(-323.555 -413.163)" fill="#e6e6e6"/>
      <rect id="Rectangle_3682" data-name="Rectangle 3682" width="32.587" height="2.962" transform="translate(123.385 151.166)" fill="#e6e6e6"/>
      <path id="Path_9833" data-name="Path 9833" d="M563.473,374.74H452.133a2.962,2.962,0,0,0-2.962,2.962h0v67.89H566.435V377.7a2.963,2.963,0,0,0-2.963-2.962Z" transform="translate(-368.248 -317.633)" fill="none" stroke="#c1c1c1" stroke-linecap="round" stroke-linejoin="round" stroke-width="1"/>
      <path id="Path_9834" data-name="Path 9834" d="M449.171,651.326v11.109a2.963,2.963,0,0,0,2.963,2.963h111.34a2.963,2.963,0,0,0,2.962-2.963h0V651.326Z" transform="translate(-368.248 -523.366)" fill="#e6e6e6"/>
      <rect id="Rectangle_3683" data-name="Rectangle 3683" width="105.662" height="59.25" transform="translate(86.847 63.279)" fill="#e6e6e6" opacity="0.13"/>
      <circle id="Ellipse_240" data-name="Ellipse 240" cx="2.962" cy="2.962" r="2.962" transform="translate(136.716 131.91)" fill="#bfbfbf"/>
      <circle id="Ellipse_241" data-name="Ellipse 241" cx="0.562" cy="0.562" r="0.562" transform="translate(89.58 64.657)" fill="#fff"/>
      <circle id="Ellipse_242" data-name="Ellipse 242" cx="0.562" cy="0.562" r="0.562" transform="translate(91.714 64.657)" fill="#fff"/>
      <circle id="Ellipse_243" data-name="Ellipse 243" cx="0.562" cy="0.562" r="0.562" transform="translate(93.848 64.657)" fill="#fff"/>
      <rect id="Rectangle_3684" data-name="Rectangle 3684" width="99.884" height="49.76" transform="translate(89.58 67.13)" fill="#232323"/>
      <path id="Path_9835" data-name="Path 9835" d="M507.86,443.411a.353.353,0,0,0-.353.353v17.849a.353.353,0,0,0,.353.353h20.612a.353.353,0,0,0,.353-.353V443.764a.353.353,0,0,0-.353-.353Z" transform="translate(-411.64 -368.713)" fill="#e6e6e6"/>
      <path id="Path_9836" data-name="Path 9836" d="M637.055,443.635a.354.354,0,0,0-.353.353v17.791a.354.354,0,0,0,.353.353H657.6a.353.353,0,0,0,.353-.353V443.988a.353.353,0,0,0-.353-.353Z" transform="translate(-507.74 -368.879)" fill="#e6e6e6"/>
      <path id="Path_9837" data-name="Path 9837" d="M764.9,442.907a.353.353,0,0,0-.353.353v17.978a.353.353,0,0,0,.353.353h20.76a.353.353,0,0,0,.353-.353V443.26a.353.353,0,0,0-.353-.353Z" transform="translate(-602.833 -368.338)" fill="#e6e6e6"/>
      <path id="Path_9838" data-name="Path 9838" d="M508.236,550.333a.73.73,0,0,0,0,1.46h19.38a.73.73,0,1,0,0-1.46Z" transform="translate(-411.64 -448.245)" fill="#e6e6e6"/>
      <path id="Path_9839" data-name="Path 9839" d="M508.236,563.889a.73.73,0,1,0,0,1.46h8.726a.73.73,0,0,0,0-1.46Z" transform="translate(-411.64 -458.328)" fill="#f48120"/>
      <path id="Path_9840" data-name="Path 9840" d="M638.82,550.333a.73.73,0,1,0,0,1.46H658.2a.73.73,0,0,0,0-1.46Z" transform="translate(-508.772 -448.245)" fill="#e6e6e6"/>
      <path id="Path_9841" data-name="Path 9841" d="M638.82,563.889a.73.73,0,0,0,0,1.46h8.726a.73.73,0,0,0,0-1.46Z" transform="translate(-508.772 -458.328)" fill="#f48120"/>
      <path id="Path_9842" data-name="Path 9842" d="M766.14,550.333a.73.73,0,0,0,0,1.46h19.38a.73.73,0,0,0,0-1.46Z" transform="translate(-603.477 -448.245)" fill="#e6e6e6"/>
      <path id="Path_9843" data-name="Path 9843" d="M508.236,536.333a.73.73,0,0,0,0,1.46h19.38a.73.73,0,1,0,0-1.46Z" transform="translate(-411.64 -437.831)" fill="#e6e6e6"/>
      <path id="Path_9844" data-name="Path 9844" d="M638.82,536.333a.73.73,0,1,0,0,1.46H658.2a.73.73,0,0,0,0-1.46Z" transform="translate(-508.772 -437.831)" fill="#e6e6e6"/>
      <path id="Path_9845" data-name="Path 9845" d="M766.14,536.333a.73.73,0,1,0,0,1.46h19.38a.73.73,0,0,0,0-1.46Z" transform="translate(-603.477 -437.831)" fill="#e6e6e6"/>
      <path id="Path_9846" data-name="Path 9846" d="M766.14,563.889a.73.73,0,0,0,0,1.46h8.726a.73.73,0,1,0,0-1.46Z" transform="translate(-603.477 -458.328)" fill="#f48120"/>
    </g>
  </g>
</svg>
