<svg xmlns="http://www.w3.org/2000/svg" xmlns:xlink="http://www.w3.org/1999/xlink" width="40" height="40" viewBox="0 0 40 40">
  <defs>
    <clipPath id="clip-path">
      <rect id="Rectangle_3618" data-name="Rectangle 3618" width="40" height="40" transform="translate(379 3253)" fill="none" stroke="#707070" stroke-width="1"/>
    </clipPath>
  </defs>
  <g id="Mask_Group_8050" data-name="Mask Group 8050" transform="translate(-379 -3253)" clip-path="url(#clip-path)">
    <path id="cube-fill-svgrepo-com" d="M19.189,17.7,33.091,9.8a3.461,3.461,0,0,0-.812-.576L21.875,3.3a5.454,5.454,0,0,0-2.686-.8,5.454,5.454,0,0,0-2.686.8L6.1,9.229a3.455,3.455,0,0,0-.812.576Zm-1,16.912V19.471L4.329,11.561a4.935,4.935,0,0,0-.118,1.122v11.5A3.608,3.608,0,0,0,6.336,27.9l11.555,6.582A1.3,1.3,0,0,0,18.186,34.611Zm2.007,0a1.3,1.3,0,0,0,.3-.133L32.043,27.9a3.608,3.608,0,0,0,2.125-3.719v-11.5a4.939,4.939,0,0,0-.118-1.122l-13.857,7.91Z" transform="translate(379.811 3254.444)"/>
  </g>
</svg>
