<svg xmlns="http://www.w3.org/2000/svg" width="370" height="185" viewBox="0 0 370 185">
  <g id="Group_8408" data-name="Group 8408" transform="translate(-775 -4275)">
    <rect id="Rectangle_3621" data-name="Rectangle 3621" width="370" height="185" transform="translate(775 4275)" fill="#232323"/>
    <g id="undraw_data_points_re_vkpq" transform="translate(652.737 4300.959)">
      <path id="Path_9762" data-name="Path 9762" d="M529.965,149.129h-188.4a2.711,2.711,0,0,0-2.708,2.708V279.5a2.711,2.711,0,0,0,2.708,2.708h188.4a2.711,2.711,0,0,0,2.708-2.708V151.837A2.711,2.711,0,0,0,529.965,149.129ZM531.9,279.5a1.935,1.935,0,0,1-1.934,1.934h-188.4a1.935,1.935,0,0,1-1.934-1.934V151.837a1.935,1.935,0,0,1,1.934-1.934h188.4a1.935,1.935,0,0,1,1.934,1.934Z" transform="translate(-128.5 -149.129)" fill="#9f9f9f"/>
      <rect id="Rectangle_3680" data-name="Rectangle 3680" width="193.045" height="0.774" transform="translate(210.741 10.848)" fill="#9f9f9f"/>
      <circle id="Ellipse_228" data-name="Ellipse 228" cx="2.321" cy="2.321" r="2.321" transform="translate(214.996 3.482)" fill="#9f9f9f"/>
      <circle id="Ellipse_229" data-name="Ellipse 229" cx="2.321" cy="2.321" r="2.321" transform="translate(221.67 3.482)" fill="#9f9f9f"/>
      <circle id="Ellipse_230" data-name="Ellipse 230" cx="2.321" cy="2.321" r="2.321" transform="translate(228.343 3.482)" fill="#9f9f9f"/>
      <path id="Path_9763" data-name="Path 9763" d="M575.559,215.045h-32.5a2.708,2.708,0,0,1,0-5.416h32.5a2.708,2.708,0,0,1,0,5.416Z" transform="translate(-252.047 -186.224)" fill="#ccc"/>
      <path id="Path_9764" data-name="Path 9764" d="M562.548,249.045H485.562a2.708,2.708,0,0,1,0-5.416h76.986a2.708,2.708,0,1,1,0,5.416Z" transform="translate(-216.792 -207.071)" fill="#ccc"/>
      <path id="Path_9765" data-name="Path 9765" d="M725.151,419.813a14.754,14.754,0,1,1,14.754-14.754,14.754,14.754,0,0,1-14.754,14.754Zm0-28.491a13.737,13.737,0,1,0,13.737,13.737,13.737,13.737,0,0,0-13.737-13.737Z" transform="translate(-356.306 -297.002)" fill="#fff"/>
      <path id="Path_9766" data-name="Path 9766" d="M405.415,317.67a14.754,14.754,0,1,1,14.754-14.754A14.754,14.754,0,0,1,405.415,317.67Zm0-28.491a13.737,13.737,0,1,0,13.737,13.737,13.737,13.737,0,0,0-13.737-13.737Z" transform="translate(-160.265 -234.375)" fill="#fff"/>
      <path id="Path_9767" data-name="Path 9767" d="M423.14,321.725a1.458,1.458,0,0,1-1.458-1.456v-8.279a1.457,1.457,0,0,1,1.456-1.456h0a1.457,1.457,0,0,1,1.456,1.456v8.278A1.457,1.457,0,0,1,423.14,321.725Zm-3.8,0a1.462,1.462,0,0,1-1.477-1.456v-4.46a1.457,1.457,0,0,1,1.456-1.455h.021a1.457,1.457,0,0,1,1.456,1.455v4.459a1.457,1.457,0,0,1-1.456,1.456Zm-3.837,0a1.458,1.458,0,0,1-1.458-1.456V307.538a1.457,1.457,0,0,1,1.456-1.456h0a1.457,1.457,0,0,1,1.456,1.456V320.27a1.457,1.457,0,0,1-1.455,1.456Zm-3.823,0a1.456,1.456,0,0,1-1.457-1.457l0-1.912a1.456,1.456,0,0,1,2.911,0v1.912a1.457,1.457,0,0,1-1.455,1.456Z" transform="translate(-172.258 -245.363)" fill="#f48120"/>
      <path id="Path_9771" data-name="Path 9771" d="M567.483,317.67a14.754,14.754,0,1,1,14.754-14.754A14.754,14.754,0,0,1,567.483,317.67Zm0-28.491a13.737,13.737,0,1,0,13.737,13.737,13.737,13.737,0,0,0-13.737-13.737Z" transform="translate(-259.635 -234.375)" fill="#fff"/>
      <path id="Path_9772" data-name="Path 9772" d="M568.9,323.171a1.073,1.073,0,0,1-.76-1.83l5.451-5.467a.91.91,0,0,1,.648-.269h0a.91.91,0,0,1,.648.268l2.528,2.528a.546.546,0,0,0,.389.161h0a.545.545,0,0,0,.389-.161l3.57-3.576a.183.183,0,0,0,0-.259l-1.155-1.153a.55.55,0,0,1,.388-.939h4.1a.55.55,0,0,1,.55.55v4.1a.55.55,0,0,1-.939.389l-1.157-1.157a.183.183,0,0,0-.259,0l-4.834,4.83a.91.91,0,0,1-.648.268h0a.91.91,0,0,1-.648-.268l-2.53-2.53a.563.563,0,0,0-.777,0l-4.2,4.2A1.065,1.065,0,0,1,568.9,323.171Z" transform="translate(-268.895 -249.283)" fill="#f48120"/>
      <path id="Path_9773" data-name="Path 9773" d="M567.483,417.67a14.754,14.754,0,1,1,14.754-14.754A14.754,14.754,0,0,1,567.483,417.67Z" transform="translate(-259.635 -295.688)" fill="#4a4a4a"/>
      <path id="Path_9774" data-name="Path 9774" d="M725.483,314.67a14.754,14.754,0,1,1,14.754-14.754A14.754,14.754,0,0,1,725.483,314.67Z" transform="translate(-356.51 -232.535)" fill="#4a4a4a"/>
      <path id="Path_9775" data-name="Path 9775" d="M417.341,388.161a14.81,14.81,0,0,0-7.23,1.9,13.74,13.74,0,0,1,2.631,26.879,14.171,14.171,0,0,0,1.76.46,14.6,14.6,0,0,0,2.84.275,14.755,14.755,0,0,0,0-29.51Z" transform="translate(-172.19 -295.688)" fill="#4a4a4a"/>
      <path id="Path_9776" data-name="Path 9776" d="M386.4,390.58a14.31,14.31,0,0,0-2.84-.279,14.771,14.771,0,1,0,2.84.279Zm1,27.668a13.738,13.738,0,1,1-3.838-26.93c.406,0,.809.019,1.207.05a13.74,13.74,0,0,1,2.631,26.879Z" transform="translate(-146.842 -297)" fill="#fff"/>
      <path id="Path_9777" data-name="Path 9777" d="M412.537,411.526a8.276,8.276,0,0,0-9.9-6.23c-.209.048-.425.106-.616.165L404,414.125l8.664-1.968C412.625,411.955,412.584,411.735,412.537,411.526Z" transform="translate(-167.233 -306.068)" fill="#f48120"/>
      <path id="Path_9778" data-name="Path 9778" d="M400.932,416.676l-8.668,1.968L390.3,409.98a8.272,8.272,0,1,0,10.629,6.7Z" transform="translate(-156.467 -309.067)" fill="#f48120"/>
      <path id="Path_9802" data-name="Path 9802" d="M743.528,440.763H732.7a1.161,1.161,0,0,1,0-2.321h10.832a1.161,1.161,0,0,1,0,2.321Z" transform="translate(-369.267 -326.517)" fill="#f48120"/>
      <path id="Path_9803" data-name="Path 9803" d="M743.528,427.763H732.7a1.161,1.161,0,0,1,0-2.321h10.832a1.161,1.161,0,0,1,0,2.321Z" transform="translate(-369.267 -318.547)" fill="#f48120"/>
      <path id="Path_9804" data-name="Path 9804" d="M743.528,414.763H732.7a1.161,1.161,0,0,1,0-2.321h10.832a1.161,1.161,0,1,1,0,2.321Z" transform="translate(-369.267 -310.576)" fill="#f48120"/>
    </g>
  </g>
</svg>
