<svg width="55" height="55" viewBox="0 0 55 55" fill="none" xmlns="http://www.w3.org/2000/svg">
<circle cx="27.5" cy="27.5" r="27.5" fill="#F4F4F4"/>
<path d="M45.9243 30.0704L45.8108 29.9569L37.1133 25.0788V15.209C37.1133 15.1712 37.1133 15.0955 37.0755 15.0577C37.0755 15.0199 37.0755 14.9821 37.0377 14.9821L28.2268 10.0283C28.1512 9.99055 28.0377 9.99055 27.9242 10.0283L18.9998 14.9443L18.8865 15.0577C18.8487 15.0955 18.8487 15.1333 18.8487 15.209V25.23L10.1512 29.9569C10.1134 29.9947 10.1134 29.9947 10.0756 30.0325L10.0378 30.0703C10 30.1081 10 30.1459 10 30.2216V40.2804C10 40.3939 10.0378 40.4695 10.1513 40.5451L19.0001 45.688H19.0756H19.1512C19.189 45.688 19.2647 45.688 19.3025 45.6502L28 40.5829L36.6975 45.6502H36.7731H36.8487C36.8865 45.6502 36.9622 45.6502 36.9999 45.6124L45.8487 40.5073C45.9243 40.4695 46 40.356 46 40.2427V30.2216C45.9622 30.1837 45.9622 30.1459 45.9244 30.0703L45.9243 30.0704ZM27.6974 29.7301L19.4915 25.041V15.6628L27.6974 19.8981V29.7301ZM36.8109 34.4192L28.7562 30.2595L31.3277 28.7469L36.8487 25.6461L45.0168 30.1839L36.8109 34.4192ZM36.5461 25.041L31.0629 28.2175L28.3023 29.7679V19.9359L36.546 15.6628L36.5461 25.041ZM28.0755 10.6334L36.2057 15.209L27.9998 19.3687L19.7939 15.1712L28.0755 10.6334ZM19.3023 25.646L27.2435 30.2595L19.2267 34.3813L10.983 30.2217L19.3023 25.646ZM10.6426 30.7133L18.8864 34.9486V44.894L10.6426 40.0914V30.7133ZM19.4536 35.062L27.6973 30.8267V40.0914L19.4536 44.894V35.062ZM28.3024 30.7133L36.5461 34.9486V44.894L28.3024 40.0914V30.7133ZM37.1511 44.894V34.9864L45.3948 30.7511V40.0914L37.1511 44.894Z" fill="#F48102" stroke="#F48102" stroke-width="0.5"/>
<path d="M17.3738 36.0074L12.3066 38.8436C12.1553 38.9192 12.1175 39.1082 12.1931 39.2595C12.2309 39.3351 12.3444 39.4108 12.4577 39.4108C12.4955 39.4108 12.5712 39.4108 12.609 39.373L17.6763 36.5369C17.8276 36.4613 17.9031 36.31 17.8276 36.1587C17.752 36.0074 17.6007 35.9319 17.4494 36.0074L17.3738 36.0074Z" fill="#F48102"/>
<path d="M21.1932 24.436C21.2309 24.436 21.3066 24.436 21.3444 24.3982L26.4117 21.562C26.563 21.4864 26.6008 21.2974 26.5252 21.1461C26.4496 20.9948 26.2605 20.957 26.1092 21.0326L21.042 23.8687C20.8907 23.9443 20.8529 24.1334 20.9285 24.2847C21.0041 24.3604 21.1176 24.436 21.1932 24.436Z" fill="#F48102"/>
<path d="M34.9201 36.0074L29.8528 38.8058C29.7015 38.8814 29.6637 39.0704 29.7393 39.2217C29.7771 39.3352 29.8906 39.373 30.004 39.373C30.0418 39.373 30.1175 39.373 30.1553 39.3352L35.2225 36.5369C35.3738 36.4613 35.4116 36.2722 35.336 36.1209C35.2603 35.9696 35.0712 35.9318 34.9201 36.0074Z" fill="#F48102"/>
<path d="M29.815 21.562L34.8823 24.3981C34.9201 24.4359 34.9579 24.4359 35.0336 24.4359C35.1471 24.4359 35.2604 24.3604 35.2982 24.2846C35.3738 24.1334 35.336 23.9443 35.1847 23.8687L30.1175 21.0326C29.9662 20.957 29.7771 20.9948 29.7015 21.1461C29.626 21.3351 29.6637 21.4863 29.815 21.562Z" fill="#F48102"/>
<path d="M26.4117 38.8436L21.3444 36.0452C21.1931 35.9696 21.0419 35.9696 20.9285 36.1208C20.8529 36.2721 20.8529 36.4234 21.0041 36.5367C21.0419 36.5367 21.0419 36.5745 21.0797 36.5745L26.1469 39.4107C26.1847 39.4485 26.2604 39.4485 26.2982 39.4485C26.4495 39.4485 26.6008 39.2972 26.6008 39.1459C26.6008 38.9948 26.525 38.8814 26.4117 38.8436Z" fill="#F48102"/>
<path d="M43.9579 38.8436L38.8907 36.0452C38.7394 35.9697 38.5503 36.0074 38.4747 36.1587C38.3992 36.31 38.4369 36.4991 38.5882 36.5747L43.6555 39.4108C43.6933 39.4486 43.769 39.4486 43.8068 39.4486C43.9203 39.4486 44.0336 39.373 44.0714 39.2973C44.147 39.1084 44.1092 38.9193 43.9579 38.8436Z" fill="#F48102"/>
</svg>
