<svg xmlns="http://www.w3.org/2000/svg" width="60" height="60" viewBox="0 0 60 60">
  <g id="monitoring-water-quality" transform="translate(-678 -5841)">
    <circle id="Ellipse_14" data-name="Ellipse 14" cx="30" cy="30" r="30" transform="translate(678 5841)" fill="#fff2e8"/>
    <g id="water_drop" data-name="water drop" transform="translate(691 5854)">
      <path id="Path_9241" data-name="Path 9241" d="M29.355,32.546a3.168,3.168,0,0,1-2.251-.939l-3.731-3.722a1.063,1.063,0,1,1,1.5-1.506L28.607,30.1a1.057,1.057,0,1,0,1.5-1.494L26.38,24.874a1.063,1.063,0,1,1,1.506-1.5L31.608,27.1a3.19,3.19,0,0,1-2.253,5.441Z" transform="translate(1.463 1.463)" fill="#f48120"/>
      <path id="Path_9242" data-name="Path 9242" d="M19.387,22.817a1.06,1.06,0,0,1-.752-.312l-1.493-1.493a1.063,1.063,0,1,1,1.5-1.5l.741.742,2.982-2.982a1.063,1.063,0,1,1,1.5,1.5l-3.734,3.734A1.06,1.06,0,0,1,19.387,22.817Z" transform="translate(1.067 1.076)" fill="#f48120"/>
      <path id="Path_9243" data-name="Path 9243" d="M20.571,30.142a9.571,9.571,0,1,1,9.571-9.571A9.571,9.571,0,0,1,20.571,30.142Zm0-17.015a7.444,7.444,0,1,0,7.444,7.444A7.444,7.444,0,0,0,20.571,13.127Z" transform="translate(0.698 0.698)" fill="#f48120"/>
      <path id="Path_9244" data-name="Path 9244" d="M13.825,34.03A13.84,13.84,0,0,1,0,20.205C0,12.783,12.559.8,13.093.291a1.064,1.064,0,0,1,1.464,0A73.347,73.347,0,0,1,24.885,12.649a1.063,1.063,0,0,1-1.81,1.117A69.558,69.558,0,0,0,13.82,2.549C9.976,6.347,2.127,15.15,2.127,20.205A11.709,11.709,0,0,0,21.643,28.92a1.063,1.063,0,1,1,1.42,1.584,13.819,13.819,0,0,1-9.239,3.526Z" transform="translate(0 0)" fill="#f48120"/>
    </g>
  </g>
</svg>
