<svg xmlns="http://www.w3.org/2000/svg" viewBox="0 0 512 512" width="256" height="256" fill="#fff"><path d="M406.464 241.354v-26.878l7.903 5.742c18.749 13.585 45.056 9.385 58.642-9.364 13.585-18.749 9.385-45.055-9.355-58.636L265.799 8.469c-14.825-11.195-34.882-11.389-49.946-.472L17.354 152.213C-1.395 165.8-5.595 192.107 7.991 210.855c8.204 11.321 21.043 17.337 34.058 17.337a41.765 41.765 0 0 0 24.591-7.98l7.895-5.736v171.302c0 31.212 25.393 56.604 56.604 56.604H255.49C279.092 483.918 323.742 512 374.833 512 450.467 512 512 450.467 512 374.833c0-64.75-45.101-119.159-105.536-133.479zM57.241 207.266c-11.605 8.405-27.885 5.805-36.293-5.799-8.41-11.604-5.81-27.888 5.804-36.303L225.249 20.947c9.337-6.766 21.775-6.635 30.952.324l.132.098L454.258 165.17c11.605 8.41 14.205 24.693 5.795 36.297-8.409 11.604-24.691 14.205-36.29 5.802L245.202 77.536c-1.402-1.019-3.052-1.528-4.702-1.528s-3.3.509-4.702 1.528L57.241 207.266zm33.295 178.512V202.852L240.5 93.896l149.964 108.955v35.711a137.928 137.928 0 0 0-15.63-.896c-29.919 0-57.626 9.635-80.195 25.956-3.433-13.3-15.531-23.154-29.888-23.154h-48.499c-17.018 0-30.864 13.845-30.864 30.863v155.051H131.14c-22.39.001-40.604-18.214-40.604-40.604zm110.851 40.605V271.332c0-8.195 6.668-14.863 14.864-14.863h48.499c8.196 0 14.863 6.668 14.863 14.863v4.87c-25.845 24.96-41.946 59.948-41.946 98.631 0 18.225 3.582 35.626 10.063 51.55h-46.343zM374.833 496c-66.812 0-121.167-54.355-121.167-121.167s54.355-121.167 121.167-121.167S496 308.021 496 374.833 441.645 496 374.833 496zm38.778-105.895c-17.189 0-31.174 13.985-31.174 31.175s13.985 31.174 31.174 31.174 31.174-13.984 31.174-31.174-13.984-31.175-31.174-31.175zm0 46.349c-8.367 0-15.174-6.807-15.174-15.174s6.807-15.175 15.174-15.175 15.174 6.808 15.174 15.175-6.806 15.174-15.174 15.174zm16.565-124.385-97.608 135.865a7.99 7.99 0 0 1-6.504 3.333 7.959 7.959 0 0 1-4.661-1.504 8 8 0 0 1-1.83-11.165l97.608-135.865a8.001 8.001 0 0 1 12.995 9.336zm-62.947 16.318c0-17.189-13.985-31.174-31.174-31.174s-31.174 13.984-31.174 31.174 13.985 31.175 31.174 31.175 31.174-13.986 31.174-31.175zm-46.348 0c0-8.367 6.807-15.174 15.174-15.174s15.174 6.807 15.174 15.174-6.807 15.175-15.174 15.175-15.174-6.808-15.174-15.175z"></path></svg>