<svg xmlns="http://www.w3.org/2000/svg" width="60" height="60" viewBox="0 0 60 60">
  <g id="multivendor" transform="translate(-205 -2717)">
    <circle id="Ellipse_14" data-name="Ellipse 14" cx="30" cy="30" r="30" transform="translate(205 2717)" fill="#fff2e8"/>
    <g id="users" transform="translate(207.015 2703.112)">
      <g id="Group_8393" data-name="Group 8393" transform="translate(9.985 28.888)">
        <g id="Group_8392" data-name="Group 8392" transform="translate(0)">
          <path id="Path_9298" data-name="Path 9298" d="M130.105,29.012a6.3,6.3,0,0,0-4.408,3.61,6.655,6.655,0,0,0-.691,2.58,7.215,7.215,0,0,0,3.041,6.574l.415.276-.614.215a10.5,10.5,0,0,0-4.992,3.9c-.476.722-.553,1.044-.307,1.275a.72.72,0,0,0,.676.077,5.193,5.193,0,0,0,.445-.6,9.1,9.1,0,0,1,6.344-4.055,10.227,10.227,0,0,1,3.487.2,9.193,9.193,0,0,1,4.086,2.35,9.044,9.044,0,0,1,2.673,5.867l.046.614H127.187l-.154.2a.441.441,0,0,0,.031.691l.184.2h6.881c6.681,0,6.881-.015,7.019-.154.23-.23.276-.8.184-1.859a10.2,10.2,0,0,0-3.594-6.943,9.739,9.739,0,0,0-2.811-1.674c-.814-.323-.829-.323-.645-.445a7.06,7.06,0,0,0,3.164-4.884,7.653,7.653,0,0,0-.6-4.362A6.131,6.131,0,0,0,130.105,29.012Zm2.2,1.091a4.551,4.551,0,0,1,2.35,1.352,5.355,5.355,0,0,1,1.459,2.273c1.106,3.256-.568,6.85-3.61,7.741a5.128,5.128,0,0,1-2.55-.046,5.6,5.6,0,0,1-3.732-4.27,7.757,7.757,0,0,1,.046-2.918,5.457,5.457,0,0,1,4.27-4.224A7.067,7.067,0,0,1,132.3,30.1Z" transform="translate(-105.143 -28.888)" fill="#f48120"/>
          <path id="Path_9299" data-name="Path 9299" d="M19.726,58.177a7.254,7.254,0,0,0-5.437,5.929,11.91,11.91,0,0,0,.046,3.3A7.58,7.58,0,0,0,17.5,72.231l.415.276-.568.184a13.264,13.264,0,0,0-2.719,1.367,12.132,12.132,0,0,0-3.5,4.055c-.968,1.92-1.475,5.238-.891,5.821.154.154.384.154,10.552.154,10.03,0,10.414-.015,10.552-.154.476-.476.123-3.41-.614-5.161a10.923,10.923,0,0,0-4.147-4.946,12.33,12.33,0,0,0-2.365-1.137l-.522-.169.445-.307a8.019,8.019,0,0,0,3.241-7.357,7.4,7.4,0,0,0-4.915-6.512A7.539,7.539,0,0,0,19.726,58.177Zm2.12,1.152a5.617,5.617,0,0,1,3.026,2A7.3,7.3,0,0,1,26.1,67.393a6.073,6.073,0,0,1-4.055,4.562,5.43,5.43,0,0,1-2.673-.031c-3.195-1.06-4.915-5.023-3.717-8.617C16.623,60.4,19.249,58.714,21.845,59.329ZM22.4,73.368a9.629,9.629,0,0,1,4.977,2.473,9.764,9.764,0,0,1,2.98,5.821c.031.246.077.645.092.891l.046.43H11.078l.061-.691a9.7,9.7,0,0,1,6.62-8.571A10.255,10.255,0,0,1,22.4,73.368Z" transform="translate(-9.985 -53.629)" fill="#f48120"/>
        </g>
      </g>
    </g>
  </g>
</svg>
