<svg width="149" height="149" viewBox="0 0 149 149" fill="none" xmlns="http://www.w3.org/2000/svg">
<path d="M74.39 148.78C115.474 148.78 148.78 115.474 148.78 74.39C148.78 33.3055 115.474 0 74.39 0C33.3055 0 0 33.3055 0 74.39C0 115.474 33.3055 148.78 74.39 148.78Z" fill="url(#paint0_linear_36_945)"/>
<path d="M88.1977 91.8998L96.2125 83.8693C102.16 77.7992 105.474 69.6215 105.435 61.1153C105.395 52.6092 102.005 44.4628 96.0013 38.4484C89.9977 32.4341 81.8666 29.0385 73.377 29.0003C64.8874 28.9621 56.7262 32.2845 50.669 38.2446C44.6432 44.3015 41.2596 52.5048 41.2596 61.0569C41.2596 69.609 44.6432 77.8123 50.669 83.8693L58.6838 91.8998C44.2132 94.0214 35 99.0313 35 104.93C35 113.737 54.5432 119 73.4388 119C92.3344 119 111.878 113.737 111.878 104.93C111.88 99.0326 102.667 94.0201 88.1977 91.8998ZM52.4154 39.9957C58.0048 34.4773 65.5447 31.3966 73.3916 31.4251C81.2385 31.4535 88.756 34.5889 94.3054 40.1477C99.8547 45.7065 102.986 53.2379 103.016 61.1001C103.046 68.9623 99.9736 76.5178 94.4673 82.1194L73.4414 103.181L52.4154 82.1194C46.8516 76.5275 43.7273 68.9536 43.7273 61.0576C43.7273 53.1616 46.8516 45.5876 52.4154 39.9957ZM73.4414 116.531C52.2409 116.531 37.4717 110.422 37.4717 104.936C37.4717 100.333 47.2859 95.8178 60.884 94.1081L72.5675 105.812C72.7996 106.043 73.1138 106.174 73.4414 106.174C73.7689 106.174 74.0831 106.043 74.3152 105.812L86.0001 94.1068C99.5968 95.8153 109.411 100.333 109.411 104.936C109.411 110.416 94.6418 116.531 73.4414 116.531ZM77.2665 80.1753L78.4829 76.3789C79.3739 76.0954 80.2389 75.7357 81.0684 75.3039L84.6285 77.1172C84.8613 77.236 85.1256 77.2779 85.3836 77.237C85.6415 77.196 85.88 77.0743 86.0647 76.8893L89.7968 73.1499C89.9821 72.9647 90.1038 72.7251 90.1443 72.4659C90.1847 72.2068 90.1418 71.9414 90.0217 71.7083L88.2016 68.149C88.6282 67.3187 88.9879 66.4554 89.2771 65.5676L93.0751 64.3293C93.3229 64.2482 93.5387 64.0906 93.6917 63.8792C93.8447 63.6677 93.9271 63.4132 93.927 63.152V57.8674C93.927 57.6064 93.8446 57.3521 93.6916 57.1408C93.5385 56.9296 93.3228 56.7722 93.0751 56.6913L89.2784 55.4544C88.9927 54.5627 88.6338 53.6963 88.2054 52.8639L90.0217 49.3085C90.1419 49.0756 90.1849 48.8105 90.1444 48.5515C90.104 48.2925 89.9822 48.0531 89.7968 47.8682L86.0647 44.1275C85.8798 43.9427 85.6413 43.8212 85.3833 43.7805C85.1254 43.7398 84.8611 43.7819 84.6285 43.9009L81.0684 45.7142C80.2389 45.2827 79.3739 44.9234 78.4829 44.6404L77.2665 40.8467C77.187 40.5967 77.0301 40.3785 76.8187 40.2236C76.6072 40.0688 76.3521 39.9853 76.0901 39.9854H70.8107C70.5501 39.9852 70.2962 40.0676 70.0853 40.221C69.8745 40.3743 69.7175 40.5907 69.6369 40.8389L68.3998 44.6456C67.5092 44.9291 66.6443 45.2879 65.8144 45.7181L62.2698 43.9048C62.0375 43.7862 61.7737 43.7443 61.5162 43.785C61.2588 43.8257 61.0207 43.947 60.8361 44.1314L57.1028 47.8708C56.9187 48.0551 56.7976 48.2931 56.7567 48.5507C56.7158 48.8082 56.7573 49.0721 56.8753 49.3046L58.6851 52.8704C58.2575 53.7022 57.9012 54.5687 57.6199 55.4609L53.8141 56.6952C53.5659 56.7759 53.3495 56.9333 53.196 57.1448C53.0425 57.3563 52.9597 57.6111 52.9596 57.8726V63.1585C52.9595 63.4202 53.0421 63.6752 53.1956 63.887C53.3491 64.0988 53.5657 64.2564 53.8141 64.3371L57.6199 65.5715C57.9017 66.4634 58.258 67.33 58.6851 68.162L56.8753 71.7277C56.7573 71.9602 56.7158 72.2241 56.7567 72.4817C56.7976 72.7392 56.9187 72.9772 57.1028 73.1616L60.8361 76.897C61.0207 77.082 61.2589 77.2036 61.5166 77.2446C61.7744 77.2855 62.0385 77.2437 62.2711 77.125L65.817 75.3117C66.6472 75.7412 67.5121 76.1 68.4024 76.3841L69.6421 80.1869C69.7225 80.4353 69.8794 80.6517 70.0903 80.8051C70.3013 80.9585 70.5553 81.0409 70.8159 81.0405H76.0953C76.3576 81.0392 76.6126 80.9541 76.8232 80.7976C77.0339 80.641 77.1892 80.4212 77.2665 80.1701V80.1753ZM71.7078 78.5627L70.5444 74.9943C70.4816 74.7978 70.3708 74.62 70.222 74.4773C70.0733 74.3345 69.8912 74.2313 69.6925 74.177C68.5563 73.8628 67.4634 73.4085 66.4388 72.8248C66.2607 72.723 66.0601 72.6673 65.8551 72.6627C65.6502 72.6582 65.4473 72.705 65.265 72.7989L61.9427 74.5008L59.4801 72.0347L61.1722 68.6969C61.2637 68.5154 61.3092 68.3141 61.3047 68.1108C61.3001 67.9075 61.2458 67.7084 61.1464 67.5312C60.5659 66.5052 60.116 65.4104 59.8071 64.2724C59.7534 64.0738 59.6512 63.8918 59.5097 63.7428C59.3682 63.5938 59.1918 63.4824 58.9966 63.4188L55.421 62.2531V58.7637L58.9966 57.598C59.192 57.5346 59.3684 57.4233 59.5099 57.2742C59.6515 57.1252 59.7536 56.9431 59.8071 56.7444C60.1151 55.6069 60.5651 54.5129 61.1464 53.4882C61.2458 53.3109 61.3001 53.1119 61.3047 52.9086C61.3092 52.7053 61.2637 52.504 61.1722 52.3225L59.4801 48.986L61.944 46.5185L65.2714 48.2205C65.4541 48.3136 65.657 48.3598 65.8619 48.3548C66.0668 48.3498 66.2673 48.2939 66.4452 48.192C67.4675 47.6101 68.5584 47.1584 69.6925 46.8475C69.8893 46.7929 70.0695 46.6904 70.2172 46.5492C70.3649 46.408 70.4755 46.2324 70.5392 46.038L71.7027 42.4709H75.1839L76.3332 46.038C76.397 46.2331 76.5082 46.4092 76.6566 46.5507C76.805 46.6922 76.9862 46.7946 77.1838 46.8488C78.3191 47.159 79.4107 47.6121 80.4324 48.1972C80.6096 48.2989 80.8093 48.3549 81.0136 48.3601C81.2178 48.3653 81.4201 48.3196 81.6023 48.227L84.9465 46.5185L87.4027 48.9795L85.6963 52.3225C85.6028 52.5067 85.557 52.7115 85.5628 52.9181C85.5687 53.1246 85.6261 53.3264 85.7299 53.5051C86.3164 54.5313 86.7716 55.6275 87.0847 56.7678C87.1401 56.9634 87.2428 57.1424 87.3837 57.2888C87.5247 57.4352 87.6994 57.5445 87.8926 57.6071L91.4476 58.7637V62.2609L87.8913 63.4201C87.6984 63.4824 87.5238 63.5915 87.3831 63.7377C87.2423 63.8839 87.1398 64.0627 87.0847 64.2581C86.7618 65.3986 86.3044 66.4966 85.7221 67.5286C85.6229 67.7059 85.5687 67.905 85.5642 68.1082C85.5597 68.3115 85.6051 68.5127 85.6963 68.6943L87.4027 72.0399L84.9465 74.5008L81.601 72.7989C81.4194 72.7082 81.2185 72.6634 81.0157 72.6684C80.8129 72.6733 80.6144 72.7279 80.4375 72.8274C79.416 73.4123 78.325 73.8658 77.1902 74.177C76.9929 74.231 76.8119 74.3332 76.6637 74.4745C76.5155 74.6158 76.4045 74.7917 76.3409 74.9866L75.1917 78.5536L71.7078 78.5627ZM83.6008 60.5162C83.6021 58.5029 83.0074 56.5345 81.8921 54.86C80.7767 53.1854 79.1908 51.8798 77.3348 51.1085C75.4788 50.3371 73.4362 50.1345 71.4654 50.5264C69.4945 50.9183 67.6839 51.887 66.2625 53.31C64.8412 54.7331 63.873 56.5465 63.4804 58.5209C63.0877 60.4953 63.2883 62.5421 64.0568 64.4022C64.8252 66.2624 66.127 67.8525 67.7975 68.9713C69.468 70.0901 71.4321 70.6874 73.4414 70.6877C76.1343 70.6849 78.7161 69.6119 80.6203 67.704C82.5245 65.7961 83.5955 63.2092 83.5982 60.511L83.6008 60.5162ZM73.4414 68.2189C71.9212 68.2187 70.4352 67.7668 69.1714 66.9204C67.9075 66.074 66.9225 64.8711 66.3409 63.4638C65.7594 62.0565 65.6073 60.508 65.9041 59.0142C66.2008 57.5203 66.9329 56.1482 68.008 55.0712C69.083 53.9943 70.4526 53.2609 71.9436 52.9639C73.4346 52.6668 74.98 52.8194 76.3844 53.4023C77.7889 53.9853 78.9893 54.9724 79.8338 56.2389C80.6784 57.5054 81.1291 58.9943 81.1291 60.5175C81.126 62.5593 80.3151 64.5166 78.874 65.9603C77.4329 67.404 75.4792 68.2162 73.4414 68.2189Z" fill="white"/>
<defs>
<linearGradient id="paint0_linear_36_945" x1="148.78" y1="74.39" x2="0" y2="74.39" gradientUnits="userSpaceOnUse">
<stop stop-color="#3B3B3B"/>
<stop offset="1" stop-color="#191919"/>
</linearGradient>
</defs>
</svg>
