<svg xmlns="http://www.w3.org/2000/svg" width="55" height="55" viewBox="0 0 55 55">
  <g id="Group_2477" data-name="Group 2477" transform="translate(-1296 -3080)">
    <g id="Group_8054" data-name="Group 8054">
      <circle id="Ellipse_16" data-name="Ellipse 16" cx="27.5" cy="27.5" r="27.5" transform="translate(1296 3080)" fill="#f3f3f3"/>
      <g id="money-icon" transform="translate(1304 3093)">
        <path id="Path_7024" data-name="Path 7024" d="M35.951,11.873a2.581,2.581,0,0,1,.387,1.334c0,2.466-3.815,4.465-8.517,4.465s-8.517-2-8.517-4.465a2.581,2.581,0,0,1,.387-1.334C20.774,13.686,24,15,27.821,15s7.047-1.316,8.129-3.132Zm-19.3,6.651a2.589,2.589,0,0,1,.387,1.334c0,2.466-3.815,4.465-8.517,4.465S0,22.324,0,19.858a2.581,2.581,0,0,1,.387-1.334C1.47,20.337,4.7,21.656,8.517,21.656s7.047-1.316,8.129-3.132Zm-6.893-6.53-.018-1.106a.929.929,0,0,0,.612-.228.755.755,0,0,0,.263-.515.747.747,0,0,0-.228-.609,1.287,1.287,0,0,0-.825-.313,1.168,1.168,0,0,0-.813.169.787.787,0,0,0-.316.594,1.131,1.131,0,0,0,.346.887l-.207.881L5.628,10.93l.251-2.91,1.029.089-.18,2.076.961.257a1.693,1.693,0,0,1,.52-1.964,1.927,1.927,0,0,1,1.428-.387,2.065,2.065,0,0,1,1.227.52,1.828,1.828,0,0,1,.624,1.621,1.949,1.949,0,0,1-.538,1.26,1.723,1.723,0,0,1-1.2.5ZM8.517,7.559c3.865,0,7,1.23,7,2.744s-3.135,2.744-7,2.744-7-1.224-7-2.741,3.135-2.747,7-2.747Zm0-.908c4.7,0,8.517,2,8.517,4.465s-3.815,4.465-8.517,4.465S0,13.58,0,11.116,3.815,6.651,8.517,6.651Zm8.159,7.44a2.577,2.577,0,0,1,.358,1.28c0,2.466-3.815,4.465-8.517,4.465S0,17.838,0,15.375a2.539,2.539,0,0,1,.358-1.28c1.053,1.839,4.306,3.182,8.159,3.182s7.109-1.343,8.159-3.185ZM30.9,2.647l-.1,1.109-4.181-.364A3.8,3.8,0,0,1,27.334,4.9l-1.005-.089a3.2,3.2,0,0,0-.455-.988,2.046,2.046,0,0,0-.866-.778l.08-.9,5.811.5ZM27.821.911c3.865,0,7,1.23,7,2.744s-3.135,2.744-7,2.744-7-1.23-7-2.744,3.135-2.744,7-2.744Zm0-.911c4.7,0,8.517,2,8.517,4.465s-3.815,4.465-8.517,4.465-8.517-2-8.517-4.465S23.12,0,27.821,0ZM35.98,7.44a2.577,2.577,0,0,1,.358,1.28c0,2.466-3.815,4.465-8.517,4.465s-8.517-2-8.517-4.465a2.539,2.539,0,0,1,.358-1.28c1.05,1.839,4.306,3.182,8.159,3.182s7.109-1.34,8.159-3.182ZM35.9,20.973a2.627,2.627,0,0,1,.441,1.419c0,2.466-3.815,4.465-8.517,4.465s-8.517-2-8.517-4.465a2.6,2.6,0,0,1,.441-1.419c1.133,1.768,4.32,3.046,8.076,3.046s6.946-1.275,8.076-3.046Zm.041-4.593a2.584,2.584,0,0,1,.4,1.354c0,2.466-3.815,4.465-8.517,4.465s-8.517-2-8.517-4.465a2.6,2.6,0,0,1,.4-1.354c1.094,1.8,4.315,3.108,8.118,3.108s7.02-1.3,8.118-3.108Z" fill="#f48120" fill-rule="evenodd"/>
      </g>
    </g>
  </g>
</svg>
