<svg xmlns="http://www.w3.org/2000/svg" width="60" height="60" viewBox="0 0 60 60">
  <g id="multimedia-galleries" transform="translate(0 -0.118)">
    <circle id="Ellipse_14" data-name="Ellipse 14" cx="30" cy="30" r="30" transform="translate(0 0.118)" fill="#fff2e8"/>
    <g id="multiple-images-svgrepo-com" transform="translate(15 15.112)">
      <path id="Path_9152" data-name="Path 9152" d="M27.51.006H11.84A2.492,2.492,0,0,0,9.351,2.5V4.681H7.164A2.492,2.492,0,0,0,4.675,7.17V9.357H2.489A2.492,2.492,0,0,0,0,11.846v15.67a2.492,2.492,0,0,0,2.489,2.489H18.16a2.492,2.492,0,0,0,2.489-2.489V25.33h2.187a2.492,2.492,0,0,0,2.489-2.489V20.654H27.51A2.492,2.492,0,0,0,30,18.165V2.5A2.492,2.492,0,0,0,27.51.006Zm-25.4,11.84a.381.381,0,0,1,.38-.38H18.16a.381.381,0,0,1,.38.38v11.23l-4.778-.355-2.19-2.512a.792.792,0,0,0-1.09-.1L8.7,21.532,6.714,17.068a.792.792,0,0,0-1.4-.093L2.109,22.182ZM18.54,25.1H2.171l3.707-6.017L7.672,23.11a.792.792,0,0,0,1.216.3l1.989-1.586,1.906,2.186a.794.794,0,0,0,.538.269l5.219.388V25.1Zm0,2.417a.381.381,0,0,1-.38.38H2.489a.381.381,0,0,1-.38-.38v-.835H18.54Zm4.676-4.675a.381.381,0,0,1-.38.38H20.649V11.846A2.492,2.492,0,0,0,18.16,9.357H6.784V7.17a.38.38,0,0,1,.38-.38H22.836a.381.381,0,0,1,.38.38V22.84Zm4.675-4.675a.381.381,0,0,1-.38.38H25.325V7.17a2.492,2.492,0,0,0-2.489-2.489H11.46V2.5a.381.381,0,0,1,.38-.38H27.51a.381.381,0,0,1,.38.38v15.67Z" transform="translate(0 0)" fill="#f48120"/>
      <path id="Path_9153" data-name="Path 9153" d="M182.171,219.382a2.464,2.464,0,1,0-2.465-2.464A2.465,2.465,0,0,0,182.171,219.382Z" transform="translate(-168.673 -201.282)" fill="#f48120"/>
    </g>
  </g>
</svg>
