<?xml version="1.0" encoding="UTF-8"?><svg id="Layer_1" xmlns="http://www.w3.org/2000/svg" viewBox="0 0 458 458"><path d="M417.74,281.41c-.15,92.28-74.8,166.69-167.09,166.54-91.36-.15-165.87-75.15-165.71-166.82.16-91.99,75.16-166.26,167.63-165.98,90.71.28,165.32,75.38,165.17,166.26ZM251.33,430.69c82.47-.11,149.23-66.79,149.16-149.01-.07-82.96-66.85-149.43-149.96-149.28-81.86.15-148.38,67.09-148.33,149.26.05,82.33,66.9,149.13,149.13,149.03Z"/><path d="M240.56,27.22c-1.31,5.23-2.44,10.01-3.71,14.75-3.33,12.44-13.09,20.21-25.96,20.27-25.56.12-51.13.11-76.69,0-13.17-.05-22.82-7.83-26.24-20.62-1.26-4.7-1.34-11.17-4.45-13.53-3.19-2.41-9.44-.82-14.35-.86-6.94-.06-13.88-.09-20.81.01-6.52.1-9.73,3.32-9.96,9.73-.05,1.46-.01,2.92-.01,4.38,0,119.23,0,238.46,0,357.69,0,12.18,1.97,14.12,14.38,14.12,14.97,0,29.95-.1,44.92.05,7.54.08,12.19,6.83,8.36,12.44-1.58,2.32-5.21,4.49-7.96,4.55-17.34.4-34.7.51-52.03.08-13.68-.34-24.23-11.44-24.89-25.12-.08-1.64-.04-3.29-.04-4.93,0-119.96,0-239.92,0-359.89,0-20.2,10.12-30.38,30.21-30.38,67.56,0,135.12,0,202.68,0,19.43,0,29.78,10.33,29.8,29.7,0,15.52.26,31.05-.22,46.55-.09,3.08-2.39,6.83-4.85,8.83-1.61,1.31-6.26,1.07-7.88-.36-2.25-1.99-4.04-5.73-4.12-8.76-.4-15.69-.17-31.4-.19-47.1-.01-8.62-2.91-11.56-11.43-11.58-11.31-.03-22.61,0-34.55,0ZM222.43,27.49h-100.13c.53,2.27.94,4.2,1.42,6.11,2.63,10.37,3.97,11.42,14.54,11.42,21.7,0,43.4,0,65.1,0,15.99,0,16.81-.73,19.06-17.53Z"/><path d="M152.09,207.24c8.86-8.89,17.35-17.4,26.19-26.26,3.5,1.98,7.26,4.13,11.04,6.27,6.2,3.51,12.64-.07,12.7-7.05q.09-12.58,12.25-15.76c6.34-1.67,12.71-3.24,18.99-5.14,3.15-.95,5.18-.54,6.53,2.68.92,2.17,2.44,4.08,3.41,6.23,1.7,3.78,3.83,5.89,8.61,5.86,4.67-.04,6.73-2.01,8.72-5.71,5.48-10.2,5.62-10.15,16.69-7.23,8.08,2.13,16.15,4.33,24.52,6.59,0,4.86-.08,9.41.02,13.95.12,5.24,8.04,9.83,12.62,7.38,2.09-1.12,4.11-2.36,6.17-3.53,1.9-1.08,3.82-2.13,6.13-3.43,7.94,7.95,15.98,15.87,23.81,24.02.88.92,1.07,3.31.55,4.6-1.15,2.85-2.96,5.43-4.49,8.12-4.36,7.64-1.01,13.4,7.79,13.41q10.84,0,13.73,10.64c1.86,6.86,3.58,13.76,5.57,20.57.92,3.12.48,5.21-2.74,6.54-2.01.83-3.75,2.31-5.76,3.12-4.63,1.85-6.64,4.83-6.19,10.05.29,3.32,1.31,5.18,4.21,6.8,11.59,6.47,11.54,6.57,7.99,19.63-1.86,6.86-3.71,13.71-5.59,20.56-.14.5-.48.95-.94,1.82-4.38,0-8.93-.09-13.47.02-5.26.13-9.79,8.07-7.26,12.66,2.19,3.98,4.5,7.9,7,12.28-8.04,7.99-15.98,16.02-24.15,23.82-.91.87-3.34,1.03-4.6.47-3.31-1.47-6.25-3.79-9.58-5.23-1.75-.76-4.06-.71-6.02-.41-4.79.73-6.13,3.71-5.99,8.51.35,11.37.1,11.38-11.06,14.56-6.66,1.9-13.38,3.62-19.95,5.77-2.98.98-4.77.69-6.06-2.31-.94-2.16-2.68-4.03-3.35-6.25-2-6.59-7.08-6.57-12.24-5.74-1.55.25-3.1,2.13-4.14,3.61-2.58,3.67-4.08,9.33-7.5,10.83-3.15,1.39-8.23-1.54-12.45-2.64-6.17-1.62-12.28-3.45-18.48-4.9-2.99-.7-4.43-1.94-4.08-5.17.26-2.34-.25-4.79.11-7.1.78-4.94-1.36-7.63-5.67-9.8-3.04-1.53-5.15-1.36-7.97.29-11.07,6.49-11.1,6.37-20.19-2.66-5.56-5.53-11.21-10.97-17.11-16.74,2.49-4.36,4.87-8.39,7.11-12.49,2.94-5.38-1.27-12.43-7.38-12.49q-12.69-.12-15.99-12.63c-1.59-5.99-2.97-12.04-4.92-17.92-1.3-3.93-.31-6.16,3.38-7.68,1.84-.76,3.46-2.05,5.28-2.87,3.73-1.69,5.89-3.75,5.95-8.56.06-4.96-2.59-6.6-6.06-8.5-9.79-5.38-9.76-5.44-6.88-16.28,1.83-6.87,3.82-13.69,5.45-20.61.75-3.19,2.09-4.74,5.55-4.34,2.34.27,4.78-.23,7.1.11,4.72.69,7.19-1.46,9.41-5.45,1.78-3.2,1.7-5.52-.21-8.41-2.2-3.33-4.04-6.91-6.1-10.49ZM355.49,303.03c-13.59-2.03-13.72-11.57-12.7-21.75.14-1.45.23-2.95-.01-4.37-1.34-7.8.93-13.47,9.01-15.93,3.39-1.04,3.73-3.3,2.65-6.38-.96-2.73-1.1-6.11-5.34-5.27-8.37,1.66-13.28-2.13-16.22-9.68-1.04-2.69-2.53-5.35-4.39-7.55-5.68-6.72-5.84-13.1.33-19.53.6-.63.88-1.56,1.01-1.81-2.23-2.83-4.23-5.36-5.95-7.54-5.07,2.43-9.51,6.31-13.74,6.1-4.38-.22-8.56-4.42-12.83-6.87-.63-.36-1.23-.8-1.9-1.09-7.73-3.45-14.07-7.77-11.46-17.85.04-.17.07-.46-.02-.53-1.96-1.47-3.76-3.5-5.97-4.17-1.49-.45-4.85.62-5.16,1.67-2.93,9.91-10.21,10.92-18.76,9.95-2.34-.27-4.8-.38-7.1.02-8.09,1.41-13.7-1.2-16.28-9.3-1.04-3.25-3.31-3.42-6.06-2.42-2.57.94-6.45.75-5.5,5.12,1.97,9.1-2.78,13.73-10.42,16.9-2.84,1.17-5.67,2.71-8.02,4.66-5.92,4.89-11.52,5.15-17.23-.18-2.78-2.59-5.14-1.79-7.29.99-.99,1.28-2.21,2.4-3.55,3.82,1.49,2.57,2.67,5.29,4.44,7.53,2.69,3.4,2.47,6.25.07,9.78-3.27,4.82-6.34,9.86-8.74,15.15-2.52,5.54-6.02,8.37-12.18,7.04-5.43-1.17-7.6,1.58-8.12,6.5-.11,1.04-.39,2.06-.77,3.97,14,2.17,13.46,12.35,12.6,22.72-.12,1.45-.25,2.97.02,4.37,1.54,7.87-1.59,12.83-9.09,15.37-1.28.43-2.32,1.56-3.73,2.54,2.39,3.22-.25,10.11,6.42,9.1,8.85-1.34,13.57,2.54,16.54,10.1.53,1.34,1.32,2.62,2.17,3.79,6.02,8.3,10.28,16.62-.18,24.89,2.89,2.89,5.18,5.18,7.68,7.69,2.52-1.49,5.15-2.78,7.47-4.49,3.18-2.35,5.93-2.52,9.36-.2,4.51,3.07,9.24,5.97,14.23,8.14,6.56,2.86,9.74,7.1,8.26,14.33-.96,4.72,2.24,5.42,5.74,6.68,4.16,1.5,5.1-1.01,6.43-3.66.73-1.47,1.75-2.82,2.28-4.35,1.21-3.49,3.48-4.55,7.12-4.36,5.83.31,11.73.57,17.51-.05,6.54-.7,10.84,1.19,12.93,7.62,1.47,4.52,4.23,5.21,8.84,3.84,4.13-1.23,4.11-3.82,3.66-6.63-1.08-6.76,1.52-10.91,7.78-13.54,4-1.68,7.92-3.91,11.33-6.58,5.51-4.32,10.56-4.75,15.84.09,3.22,2.95,6.06,2.51,8.56-1.03.82-1.16,1.88-2.15,2.57-2.92-2.11-4.9-5.94-9.62-5.54-13.95.45-4.79,4.76-9.22,7.39-13.81.64-1.11,1.5-2.13,1.91-3.31,2.52-7.17,7.26-10.43,14.94-8.83,3.68.77,5.31-1.17,5.85-4.54.26-1.6.67-3.17,1.28-5.99Z"/><path d="M306.42,281.99c-.52,30.94-25.09,54.98-55.85,54.64-30.63-.34-54.92-25.44-54.32-56.11.6-30.53,25.48-54.62,55.82-54.06,30.67.57,54.86,25.28,54.35,55.54ZM213.22,280.83c-.6,20.52,16.24,38.07,37.25,38.82,20.49.73,38.13-16.07,38.95-37.09.81-20.67-16.25-38.44-37.53-39.1-20.43-.63-38.06,16.4-38.68,37.37Z"/></svg>