<svg xmlns="http://www.w3.org/2000/svg" width="60" height="60" viewBox="0 0 60 60">
  <g id="Group_530" data-name="Group 530" transform="translate(-678 -5841)">
    <circle id="Ellipse_14" data-name="Ellipse 14" cx="30" cy="30" r="30" transform="translate(678 5841)" fill="#fff2e8"/>
    <g id="offline-svgrepo-com" transform="translate(690.332 5852.331)">
      <path id="Path_9158" data-name="Path 9158" d="M35.338,19.1a7.362,7.362,0,0,1-7.362,7.362H26.5V24.991h1.472a5.875,5.875,0,0,0,.917-11.682l-1.163-.183-.077-1.175A7.793,7.793,0,0,0,12.615,9.64l-.585,1.5-1.439-.711a3.353,3.353,0,0,0-1.477-.349,3.209,3.209,0,0,0-1.718.5,3.247,3.247,0,0,0-1.444,2.054l-.166.744-.7.294A5.89,5.89,0,0,0,7.362,24.991H16.2v1.472H7.362A7.362,7.362,0,0,1,4.515,12.312a4.726,4.726,0,0,1,2.094-2.98A4.668,4.668,0,0,1,9.115,8.6a4.812,4.812,0,0,1,2.129.5,9.266,9.266,0,0,1,17.879,2.749A7.344,7.344,0,0,1,35.338,19.1ZM22.391,25.727,27.023,21.1l-1.041-1.041L21.35,24.686l-4.632-4.632L15.677,21.1l4.632,4.632L15.677,30.36,16.718,31.4l4.632-4.632L25.982,31.4l1.041-1.041Z" transform="translate(0 1.512)" fill="#f48120"/>
      <path id="Path_9159" data-name="Path 9159" d="M0,0H35.338V35.338H0Z" transform="translate(0)" fill="none"/>
    </g>
  </g>
</svg>
