<svg xmlns="http://www.w3.org/2000/svg" width="60" height="60" viewBox="0 0 60 60">
  <g id="oil-and-gas-supply-chain-management" transform="translate(-267 -1397)">
    <circle id="Ellipse_30" data-name="Ellipse 30" cx="30" cy="30" r="30" transform="translate(267 1397)" fill="#f48120"/>
    <path id="noun-tanker-truck-5797728" d="M25,21H21.91a.274.274,0,0,0,.04-.05A6.978,6.978,0,0,0,24,16.01V10.97a6.986,6.986,0,0,0-6.81-6.98H17v-2a1,1,0,0,0,0-2H7a1,1,0,0,0,0,2v2H6.98A7,7,0,0,0-.01,10.98v5.04a7,7,0,0,0,2.05,4.94c.01.02.03.03.04.05H1a1,1,0,0,0-1,1v3a1,1,0,0,0,1,1H7.54a3.993,3.993,0,0,0,6.92,0H27.53a3.993,3.993,0,0,0,6.92,0h4.54a1,1,0,0,0,1-1v-3a1,1,0,0,0-1-1h-1v-8a1.094,1.094,0,0,0-.13-.5L33.99,5.74V5.01a3,3,0,0,0-3-3h-5a1,1,0,0,0-1,1v18h0ZM11,22a2,2,0,1,1-2,2,2.006,2.006,0,0,1,2-2Zm20,0a2,2,0,1,1-2,2,2.006,2.006,0,0,1,2-2ZM11,23a1,1,0,1,1-1,1,1,1,0,0,1,1-1Zm20,0a1,1,0,1,1-1,1,1,1,0,0,1,1-1Zm-3.87,0H14.88a4.089,4.089,0,0,1,.13,1h12a3.657,3.657,0,0,1,.13-1h0Zm-20,0H2v1H7a3.657,3.657,0,0,1,.13-1h0Zm27.75,0a4.089,4.089,0,0,1,.13,1h3V23ZM32.43,7H27.01V21h1.36a3.985,3.985,0,0,1,5.28,0h2.36V19h-1a1,1,0,0,1,0-2h1V16h-7a1,1,0,0,1-1-1V9a1,1,0,0,1,1-1H33l-.57-1h0ZM17.03,6H6.98A4.985,4.985,0,0,0,2,10.98v5.04A4.985,4.985,0,0,0,6.98,21H8.35a3.98,3.98,0,0,1,4.64-.46V11a1,1,0,0,1,2,0v2h3V11a1,1,0,0,1,2,0v9.01a4.784,4.784,0,0,0,.54-.47,4.947,4.947,0,0,0,1.46-3.52V10.98A4.985,4.985,0,0,0,17.01,6h0Zm.98,14.9V19h-3v2h2.02a4.591,4.591,0,0,0,.98-.1Zm-3-5.9v2h3V15ZM8.82,9.42A1.009,1.009,0,0,0,8.01,9a1,1,0,0,0-.81.42,22.683,22.683,0,0,0-1.66,2.76A4.719,4.719,0,0,0,5.01,14a3,3,0,0,0,6,0,4.673,4.673,0,0,0-.53-1.82A21.356,21.356,0,0,0,8.82,9.42Zm-.81,2.41q.21.345.42.72A3.92,3.92,0,0,1,9.01,14a1,1,0,0,1-2,0,3.92,3.92,0,0,1,.58-1.45c.13-.25.28-.5.42-.72ZM34.14,10H30.01v4h6v-.73L34.14,10ZM32.01,5h-5V4h4a1.033,1.033,0,0,1,.71.29.99.99,0,0,1,.29.71ZM9,2V4h6V2Z" transform="translate(277.01 1413.01)" fill="#fff" fill-rule="evenodd"/>
  </g>
</svg>
