<?xml version="1.0" encoding="UTF-8"?><svg id="Layer_1" xmlns="http://www.w3.org/2000/svg" xmlns:xlink="http://www.w3.org/1999/xlink" viewBox="0 0 148.78 148.78"><defs><style>.cls-1{fill:#fff;}.cls-2{fill:url(#linear-gradient);}</style><linearGradient id="linear-gradient" x1="148.78" y1="77.61" x2="0" y2="77.61" gradientTransform="translate(0 152) scale(1 -1)" gradientUnits="userSpaceOnUse"><stop offset="0" stop-color="#3b3b3b"/><stop offset="1" stop-color="#191919"/></linearGradient></defs><circle class="cls-2" cx="74.39" cy="74.39" r="74.39"/><path class="cls-1" d="M30.23,88.49l5.8,1.45c.41.21.62.41.83.83.62,2.07,1.45,4.15,2.49,6.22.21.41.21.83,0,1.24l-2.9,5.18c-1.24,2.07-.83,4.77.83,6.63l7.05,7.05c1.66,1.66,4.56,2.07,6.63.83l4.98-3.11c.41-.21.83-.21,1.24,0,1.87,1.04,3.94,1.87,6.22,2.49.41.21.83.41.83.83l1.45,5.8c.62,2.49,2.69,4.15,5.18,4.15h9.74c2.49,0,4.56-1.66,5.18-4.15l1.45-5.8c.21-.41.41-.83.83-.83,2.28-.62,4.35-1.66,6.22-2.49.41-.21,1.04-.21,1.24,0l5.18,3.11c.83.41,1.87.83,2.69.83,1.45,0,2.9-.62,3.73-1.66l7.05-7.05c1.66-1.66,2.07-4.35.83-6.63l-3.11-4.98c-.21-.41-.21-1.04,0-1.24,1.04-2.07,1.87-4.15,2.49-6.22.21-.41.41-.83.83-.83l5.8-1.45c2.49-.62,4.15-2.69,4.15-5.18v-9.95c0-2.49-1.66-4.56-4.15-5.18l-5.8-1.45c-.41-.21-.83-.41-.83-.83-.62-2.07-1.45-4.15-2.49-6.22-.21-.41-.21-.83,0-1.24l3.11-5.18c1.24-2.07.83-4.77-.83-6.63l-7.05-7.05c-1.66-1.66-4.56-2.07-6.63-.83l-4.98,3.11c-.41.21-.83.21-1.24,0-1.87-1.04-3.94-1.87-6.22-2.49-.41-.21-.83-.41-.83-.83l-1.24-6.01c-.62-2.49-2.69-4.15-5.18-4.15h-9.74c-2.49,0-4.56,1.66-5.18,4.15l-1.45,5.8c-.41.41-.62.62-1.04.83-2.07.62-4.35,1.45-6.22,2.49-.41.21-.83.21-1.24,0l-5.18-2.9c-2.07-1.24-4.98-.83-6.63.83l-7.05,6.84c-1.66,1.66-2.07,4.35-.83,6.63l3.11,4.98c.21.41.21,1.04,0,1.24-1.04,2.07-1.87,4.15-2.49,6.22-.21.41-.41.83-.83.83l-5.8,1.66c-2.49.62-4.15,2.69-4.15,5.18v9.95c0,2.49,1.66,4.56,4.15,5.18ZM30.23,73.36c0-.62.41-1.04,1.04-1.24l5.8-1.45c1.87-.41,3.32-1.87,3.73-3.73.62-1.87,1.24-3.73,2.28-5.6.83-1.66.83-3.73-.21-5.39l-3.11-4.98c-.21-.41-.21-1.24.21-1.45l7.05-7.05c.41-.41,1.04-.41,1.45-.21l5.18,3.11c1.66,1.04,3.73,1.04,5.39,0,1.66-.83,3.52-1.66,5.6-2.28,1.87-.62,3.11-2.07,3.73-3.94l1.24-5.39c.21-.62.62-1.04,1.24-1.04h9.74c.62,0,1.04.41,1.24,1.04l1.45,5.8c.41,1.87,1.87,3.32,3.73,3.73,2.07.62,3.94,1.45,5.6,2.28,1.66.83,3.73.83,5.39-.21l4.98-3.11c.41-.21,1.24-.21,1.45.21l7.05,7.05c.41.41.41,1.04.21,1.45l-3.11,5.18c-1.04,1.66-1.04,3.52-.21,5.39,1.04,1.87,1.66,3.73,2.28,5.6.62,1.87,2.07,3.11,3.94,3.73l5.8,1.45c.62.21,1.04.62,1.04,1.24v9.95c0,.62-.41,1.04-1.04,1.24l-5.8,1.45c-1.87.41-3.32,1.87-3.73,3.73-.62,1.87-1.45,3.73-2.28,5.6-.83,1.66-.83,3.73.21,5.39l3.11,4.98c.21.41.21,1.24-.21,1.45l-7.05,7.05c-.41.41-1.04.41-1.45.21l-5.18-3.11c-1.66-1.04-3.52-1.04-5.39-.21-1.66.83-3.52,1.66-5.6,2.28-1.87.62-3.11,2.07-3.73,3.94l-1.24,5.39c-.21.62-.62,1.04-1.24,1.04h-9.74c-.62,0-1.04-.41-1.24-1.04l-1.45-5.8c-.41-1.87-1.87-3.32-3.73-3.73-1.87-.62-3.73-1.45-5.6-2.28-.83-.41-1.66-.62-2.69-.62s-1.87.21-2.69.83l-4.98,3.11c-.41.21-1.24.21-1.45-.21l-7.05-7.05c-.41-.41-.41-1.04-.21-1.45l3.11-5.18c1.04-1.66,1.04-3.52.21-5.39-1.04-1.87-1.66-3.73-2.28-5.6-.62-1.87-2.07-3.11-3.94-3.73l-5.8-1.24c-.62-.21-1.04-.62-1.04-1.24v-9.95Z"/><path class="cls-1" d="M76.04,108.39c16.58-.21,29.85-13.47,29.85-30.06s-13.47-30.06-30.06-30.06-30.06,13.47-30.06,30.06,13.68,30.27,30.27,30.06ZM86.4,93.05c-.62.41-1.24,1.04-1.24,1.87v7.46c-6.01,2.49-13.06,2.49-19.07,0v-7.46c0-.62-.41-1.24-.83-1.66-4.15-2.69-7.05-7.46-7.88-12.44-.83-5.8,1.04-11.61,4.98-15.75.83-.83,2.07-.21,2.07,1.04v9.74c0,2.28,1.24,4.15,3.32,4.98l5.6,2.49c1.45.62,2.9.62,4.35,0l5.6-2.49c2.07-.83,3.32-2.9,3.32-4.98v-9.74c0-1.24,1.45-1.66,2.28-.83,3.32,3.52,5.18,8.08,5.18,12.85.21,8.91-6.43,14.3-7.67,14.93ZM75.83,52.42c14.3,0,25.91,11.61,25.91,25.91,0,9.33-4.98,17.41-12.23,21.97v-4.15c3.52-2.49,8.91-8.91,8.91-18.24,0-5.8-2.28-11.4-6.22-15.75-3.32-3.52-9.33-1.04-9.33,3.73v9.74c0,.41-.21,1.04-.83,1.24l-5.6,2.49c-.41.21-.62.21-1.04,0l-5.8-2.49c-.41-.21-.83-.62-.83-1.24v-9.74c0-4.77-5.8-7.26-9.33-3.94-4.98,5.18-7.26,12.23-6.22,19.28.83,5.8,4.15,11.19,8.71,14.51v4.35c-7.46-4.56-12.23-12.65-12.23-21.97.21-14.1,11.82-25.7,26.12-25.7Z"/></svg>