<?xml version="1.0" encoding="UTF-8"?><svg id="Layer_1" xmlns="http://www.w3.org/2000/svg" viewBox="0 0 60 60"><defs><style>.cls-1{fill:#fae1cc;}.cls-1,.cls-2,.cls-3,.cls-4,.cls-5{stroke-width:0px;}.cls-2{fill:#010101;}.cls-3{fill:#fff2e9;}.cls-4{fill:#fbb97e;}.cls-5{fill:#f58220;}</style></defs><circle class="cls-3" cx="30" cy="30" r="30"/><path class="cls-2" d="M51.9,43.01l-3.51-6.99V13.27c0-1.15-.94-2.09-2.09-2.09H15.6c-1.16,0-2.1.94-2.1,2.09v22.76l-3.34,6.99c-.05.09-.07.18-.07.27,0,.86.7,1.56,1.56,1.56h38.76c.86,0,1.56-.7,1.56-1.56,0-.1-.02-.2-.07-.28ZM14.76,13.27c0-.46.37-.83.83-.83h30.7c.45,0,.82.37.82.83v3.64H14.76v-3.64ZM14.76,18.18h32.36v17.35H14.76v-17.35ZM50.41,43.58H11.64c-.12,0-.23-.08-.27-.18l3.15-6.59h32.84l3.31,6.6c-.05.1-.14.18-.27.18Z"/><path class="cls-5" d="M46.3,12.44H15.6c-.46,0-.83.37-.83.83v3.64h32.36v-3.64c0-.46-.37-.83-.82-.83ZM23.78,15.31h-3.36c-.35,0-.63-.28-.63-.63s.29-.63.63-.63h3.36c.35,0,.63.29.63.63,0,.35-.28.63-.63.63ZM40.46,15.31h-12.78c-.35,0-.63-.28-.63-.63s.28-.63.63-.63h12.78c.35,0,.63.29.63.63s-.29.63-.63.63ZM47.37,36.8H14.53l-3.15,6.59c.04.1.14.18.27.18h38.76c.12,0,.22-.07.27-.18l-3.31-6.6ZM35.76,40.46h-9.47c-.35,0-.63-.28-.63-.63s.29-.64.63-.64h9.47c.35,0,.63.28.63.64s-.28.63-.63.63Z"/><path class="cls-1" d="M14.76,18.18v17.35h32.36v-17.35H14.76ZM29.95,26.78c-.21.28-.61.34-.89.13l-.02-.02v5.44c0,.35-.29.63-.63.63h-8.97c-.35,0-.64-.28-.64-.63v-5.44l-.03.02c-.11.09-.25.12-.38.12-.19,0-.39-.09-.51-.26-.21-.28-.15-.68.13-.89l5.55-4.12c.22-.17.54-.16.76,0l5.5,4.12c.28.21.34.61.13.89ZM43.49,31.83h-9.96c-.35,0-.64-.28-.64-.63s.28-.63.64-.63h9.96c.35,0,.63.28.63.63s-.28.63-.63.63ZM43.49,27.49h-9.96c-.35,0-.64-.28-.64-.63s.28-.64.64-.64h9.96c.35,0,.63.29.63.64,0,.35-.28.63-.63.63ZM43.49,23.16h-9.96c-.35,0-.64-.28-.64-.63s.28-.63.64-.63h9.96c.35,0,.63.28.63.63s-.28.63-.63.63Z"/><path class="cls-2" d="M24.42,14.68c0,.35-.28.63-.63.63h-3.36c-.35,0-.63-.28-.63-.63s.29-.63.63-.63h3.36c.35,0,.63.29.63.63ZM41.1,14.68c0,.35-.29.63-.63.63h-12.78c-.35,0-.63-.28-.63-.63s.28-.63.63-.63h12.78c.35,0,.63.29.63.63ZM29.82,25.89l-5.5-4.12c-.22-.16-.54-.17-.76,0l-5.55,4.12c-.28.21-.34.61-.13.89.12.16.32.26.51.26.13,0,.27-.04.38-.12l.03-.02v5.44c0,.35.28.63.64.63h8.97c.35,0,.63-.28.63-.63v-5.44l.02.02c.28.21.68.15.89-.13.21-.28.15-.68-.13-.89ZM24.6,31.7h-1.36v-3.42h1.36v3.42ZM27.77,31.7h-1.9v-4.05c0-.35-.28-.63-.64-.63h-2.63c-.35,0-.63.28-.63.63v4.05h-1.9v-5.75l3.87-2.87,3.83,2.87s0,5.76,0,5.76Z"/><rect class="cls-4" x="23.24" y="28.29" width="1.36" height="3.42"/><path class="cls-5" d="M27.77,25.94v5.76h-1.9v-4.05c0-.35-.28-.63-.64-.63h-2.63c-.35,0-.63.28-.63.63v4.05h-1.9v-5.75l3.87-2.87,3.83,2.87Z"/><path class="cls-2" d="M44.13,22.53c0,.35-.28.63-.63.63h-9.96c-.35,0-.64-.28-.64-.63s.28-.63.64-.63h9.96c.35,0,.63.28.63.63ZM44.13,26.86c0,.35-.28.63-.63.63h-9.96c-.35,0-.64-.28-.64-.63s.28-.64.64-.64h9.96c.35,0,.63.29.63.64ZM44.13,31.19c0,.35-.28.63-.63.63h-9.96c-.35,0-.64-.28-.64-.63s.28-.63.64-.63h9.96c.35,0,.63.28.63.63ZM36.4,39.83c0,.35-.28.63-.63.63h-9.47c-.35,0-.63-.28-.63-.63s.29-.64.63-.64h9.47c.35,0,.63.28.63.64Z"/></svg>