<?xml version="1.0" encoding="UTF-8"?><svg id="Layer_1" xmlns="http://www.w3.org/2000/svg" xmlns:xlink="http://www.w3.org/1999/xlink" viewBox="0 0 148.78 148.78"><defs><style>.cls-1{fill:#fff;}.cls-2{fill:url(#linear-gradient);}</style><linearGradient id="linear-gradient" x1="148.78" y1="77.61" x2="0" y2="77.61" gradientTransform="translate(0 152) scale(1 -1)" gradientUnits="userSpaceOnUse"><stop offset="0" stop-color="#3b3b3b"/><stop offset="1" stop-color="#191919"/></linearGradient></defs><circle class="cls-2" cx="74.39" cy="74.39" r="74.39"/><path class="cls-1" d="M54.3,72.48h39.8v4.5h-39.8v-4.5ZM54.3,92.27h24.36v4.5h-24.36v-4.5Z"/><path class="cls-1" d="M102.87,121.13h-57.42c-1.2,0-2.32-.22-3.45-.67-1.05-.45-2.02-1.05-2.77-1.87-.82-.82-1.42-1.72-1.87-2.77-.45-1.12-.67-2.25-.67-3.45v-59.74c0-1.2.22-2.32.67-3.45.45-1.05,1.05-2.02,1.87-2.77.82-.82,1.72-1.42,2.77-1.87,1.12-.45,2.25-.67,3.45-.67h8.69v4.42h-8.69c-2.4,0-4.42,1.95-4.42,4.42v59.74c0,2.4,1.95,4.42,4.42,4.42h57.34c2.4,0,4.42-1.95,4.42-4.42v-59.81c0-2.4-1.95-4.42-4.42-4.42h-8.62v-4.42h8.69c1.2,0,2.32.22,3.45.67,1.05.45,2.02,1.05,2.77,1.87.82.82,1.42,1.72,1.87,2.77.45,1.12.67,2.25.67,3.45v59.74c0,1.2-.22,2.32-.67,3.45-.45,1.05-1.05,2.02-1.87,2.77-.82.82-1.72,1.42-2.77,1.87-1.12.52-2.25.75-3.45.75Z"/><path class="cls-1" d="M96.2,57.04h-44.07v-14.39c0-3.07,2.47-5.55,5.55-5.55h5.7c2.02-4.05,6.22-6.67,10.87-6.67s8.84,2.62,10.87,6.67h5.7c3.07,0,5.55,2.47,5.55,5.55l-.15,14.39ZM56.55,52.62h35.3v-9.97c0-.6-.52-1.12-1.12-1.12h-8.77l-.52-1.5c-1.05-3.07-3.97-5.17-7.27-5.17s-6.22,2.1-7.27,5.17l-.52,1.5h-8.77c-.6,0-1.12.52-1.12,1.12v9.97h.07Z"/></svg>