<svg width="80" height="80" viewBox="0 0 80 80" fill="none" xmlns="http://www.w3.org/2000/svg">
<circle cx="40" cy="40" r="40" fill="#FFF2E8"/>
<path d="M42.2221 26.5736H25.7128V28.438H42.2221V26.5736Z" fill="#111111"/>
<path d="M55.5435 38.8667H39.0342V40.7311H55.5435V38.8667Z" fill="#111111"/>
<path d="M55.5433 30.6698H25.7128V32.5342H55.5433V30.6698Z" fill="#111111"/>
<path d="M55.5433 34.7681H25.7128V36.6325H55.5433V34.7681Z" fill="#111111"/>
<path d="M34.4083 57.3647C34.1483 57.3452 33.888 57.3981 33.6563 57.5176C33.4247 57.637 33.2306 57.8184 33.0957 58.0415C32.772 58.6831 32.625 59.3993 32.6697 60.1165C32.625 60.8338 32.772 61.55 33.0957 62.1916C33.2437 62.4007 33.4396 62.5713 33.6671 62.689C33.8946 62.8067 34.147 62.8682 34.4031 62.8682C34.6593 62.8682 34.9117 62.8067 35.1392 62.689C35.3667 62.5713 35.5626 62.4007 35.7106 62.1916C36.0346 61.5501 36.182 60.8339 36.1375 60.1165C36.182 59.3992 36.0346 58.683 35.7106 58.0415C35.5775 57.819 35.3853 57.638 35.1553 57.5185C34.9254 57.399 34.6667 57.3457 34.4083 57.3647Z" fill="#111111"/>
<path d="M61.1364 51.3788V26.8675L60.8633 26.5943L47.5421 13.2731L47.269 13H23.8483C22.8593 13 21.9109 13.3929 21.2116 14.0921C20.5123 14.7914 20.1195 15.7399 20.1195 16.7288V48.1832C19.8368 48.3454 19.6019 48.5791 19.4383 48.8609C19.2746 49.1427 19.188 49.4626 19.1873 49.7885V63.339C19.1887 64.5747 19.6803 65.7594 20.5541 66.6332C21.4279 67.507 22.6125 67.9985 23.8483 68H57.4076C58.6433 67.9985 59.828 67.507 60.7018 66.6332C61.5756 65.7594 62.0671 64.5747 62.0686 63.339V52.985C62.068 52.659 61.9815 52.3389 61.8179 52.0569C61.6542 51.775 61.4192 51.5411 61.1364 51.3788ZM37.0222 63.2458C36.7079 63.6283 36.3076 63.9311 35.854 64.1294C35.4004 64.3278 34.9062 64.4159 34.412 64.3868C33.8456 64.4041 33.283 64.2872 32.7704 64.0456C32.3366 63.8286 31.9628 63.5085 31.6816 63.1134C31.3938 62.702 31.189 62.2384 31.0784 61.7486C30.8336 60.6698 30.8336 59.5498 31.0784 58.471C31.189 57.9813 31.3938 57.5177 31.6816 57.1063C31.9628 56.7111 32.3366 56.391 32.7704 56.1741C33.2876 55.949 33.8456 55.8328 34.4097 55.8328C34.9737 55.8328 35.5317 55.949 36.049 56.1741C36.4802 56.3924 36.852 56.7124 37.1322 57.1063C37.4199 57.5177 37.6248 57.9813 37.7353 58.471C37.8607 59.0082 37.9232 59.5582 37.9218 60.1098C37.9913 61.2275 37.6736 62.3349 37.0222 63.2458ZM44.2468 57.4736H42.1325V64.2786H40.3539V57.4736H38.2508V55.955H44.2468V57.4736ZM50.4664 57.4736H48.3522V64.2786H46.5735V57.4736H44.4705V55.955H50.4664V57.4736ZM59.272 51.1206H38.8437L36.6064 48.5608C36.4314 48.3608 36.2157 48.2005 35.9738 48.0907C35.7318 47.9809 35.4692 47.9241 35.2034 47.9241H21.9839V16.7288C21.9839 16.2343 22.1803 15.7601 22.5299 15.4105C22.8796 15.0608 23.3538 14.8644 23.8483 14.8644H45.9508V24.4568C45.9508 25.4457 46.3437 26.3942 47.043 27.0934C47.7423 27.7927 48.6907 28.1856 49.6796 28.1856H59.272V51.1206Z" fill="#111111"/>
<line x1="25.3751" y1="27.3126" x2="42.5626" y2="27.3126" stroke="#F48120" stroke-width="3"/>
<line x1="25.3751" y1="31.4373" x2="55.6251" y2="31.4373" stroke="#F48120" stroke-width="3"/>
<line x1="25.3751" y1="35.5625" x2="55.6251" y2="35.5625" stroke="#F48120" stroke-width="3"/>
<line x1="38.4379" y1="39.6877" x2="55.6254" y2="39.6877" stroke="#F48120" stroke-width="3"/>
</svg>
