<svg xmlns="http://www.w3.org/2000/svg" width="43" height="43.004" viewBox="0 0 43 43.004">
  <g id="Group_604" data-name="Group 604" transform="translate(0.677 0.509)">
    <g id="Group_7699" data-name="Group 7699" transform="translate(0.823 0.991)">
      <path id="Path_452" data-name="Path 452" d="M17.492,26.664s-2.606-.879-2.606-5.274c-1.438,0-1.438-3.515,0-3.515,0-.588-2.606-7.032,1.74-6.153.87-3.515,10.435-3.515,11.305,0,.6,2.44-.87,5.721-.87,6.153,1.438,0,1.438,3.515,0,3.515,0,4.394-2.606,5.274-2.606,5.274v4.394c4.308,1.635,8.575,2.983,10.759,4.526a20.368,20.368,0,0,0-.134-28.529,19.85,19.85,0,0,0-28.227.021,20.368,20.368,0,0,0-.093,28.529c2.313-1.617,6.874-3.069,10.74-4.548Z" transform="translate(-0.976 -1.175)" fill="none" stroke="#fff" stroke-linejoin="round" stroke-width="3"/>
      <path id="Path_453" data-name="Path 453" d="M7.4,39.087A21.475,21.475,0,0,0,21.99,44.659a21.47,21.47,0,0,0,14.577-5.591" transform="translate(-1.983 -4.654)" fill="none" stroke="#fff" stroke-linejoin="round" stroke-width="3"/>
    </g>
  </g>
</svg>
