<svg xmlns="http://www.w3.org/2000/svg" xmlns:xlink="http://www.w3.org/1999/xlink" width="40" height="40" viewBox="0 0 40 40">
  <defs>
    <clipPath id="clip-path">
      <rect id="Rectangle_2552" data-name="Rectangle 2552" width="40" height="40" transform="translate(18776 3259)" fill="#fff" stroke="#707070" stroke-width="3"/>
    </clipPath>
  </defs>
  <g id="Mask_Group_8012" data-name="Mask Group 8012" transform="translate(-18776 -3259)" clip-path="url(#clip-path)">
    <path id="diagram-project-1-svgrepo-com" d="M13.544,9.272h16.87M12.922,13.93l9.653,13.905M6.374,14.544h3.8a5.239,5.239,0,0,0,2.223-.23,2.109,2.109,0,0,0,.922-.922,5.239,5.239,0,0,0,.23-2.223v-3.8a5.239,5.239,0,0,0-.23-2.223,2.109,2.109,0,0,0-.922-.922A5.239,5.239,0,0,0,10.17,4h-3.8a5.239,5.239,0,0,0-2.223.23,2.109,2.109,0,0,0-.922.922A5.239,5.239,0,0,0,3,7.374v3.8a5.239,5.239,0,0,0,.23,2.223,2.109,2.109,0,0,0,.922.922A5.239,5.239,0,0,0,6.374,14.544Zm18.978,23.2h3.8a5.238,5.238,0,0,0,2.223-.23,2.108,2.108,0,0,0,.922-.922,5.238,5.238,0,0,0,.23-2.223v-3.8a5.238,5.238,0,0,0-.23-2.223,2.108,2.108,0,0,0-.922-.922,5.238,5.238,0,0,0-2.223-.23h-3.8a5.238,5.238,0,0,0-2.223.23,2.108,2.108,0,0,0-.922.922,5.238,5.238,0,0,0-.23,2.223v3.8a5.238,5.238,0,0,0,.23,2.223,2.108,2.108,0,0,0,.922.922A5.238,5.238,0,0,0,25.352,37.739Zm8.435-23.2h3.8a5.239,5.239,0,0,0,2.223-.23,2.109,2.109,0,0,0,.922-.922,5.239,5.239,0,0,0,.23-2.223v-3.8a5.239,5.239,0,0,0-.23-2.223,2.109,2.109,0,0,0-.922-.922A5.239,5.239,0,0,0,37.583,4h-3.8a5.239,5.239,0,0,0-2.223.23,2.109,2.109,0,0,0-.922.922,5.239,5.239,0,0,0-.23,2.223v3.8a5.239,5.239,0,0,0,.23,2.223,2.109,2.109,0,0,0,.922.922A5.239,5.239,0,0,0,33.787,14.544Z" transform="translate(18774.021 3258.13)" fill="none" stroke="#fff" stroke-linecap="round" stroke-linejoin="round" stroke-width="3"/>
  </g>
</svg>
