<svg xmlns="http://www.w3.org/2000/svg" width="60" height="60" viewBox="0 0 60 60">
  <g id="Group_7253" data-name="Group 7253" transform="translate(-267 -1397)">
    <circle id="Ellipse_30" data-name="Ellipse 30" cx="30" cy="30" r="30" transform="translate(267 1397)" fill="#f48120"/>
    <g id="Group_8318" data-name="Group 8318" transform="translate(284 1410.952)">
      <path id="Path_9092" data-name="Path 9092" d="M9.65,15.729a.776.776,0,0,1,0-1.53h8.5a.776.776,0,0,1,0,1.53Zm1.741,12.665a.767.767,0,0,1,0,1.534H1.785A1.788,1.788,0,0,1,0,28.143V1.785A1.788,1.788,0,0,1,1.785,0H23.71A1.788,1.788,0,0,1,25.5,1.785V14a.767.767,0,1,1-1.534,0V1.785a.243.243,0,0,0-.076-.175.247.247,0,0,0-.175-.076H1.785a.261.261,0,0,0-.178.073.266.266,0,0,0-.073.178V28.14a.254.254,0,0,0,.251.251h9.606ZM24.039,18.106a.589.589,0,0,0-.434-.173.573.573,0,0,0-.424.19l-.952.991L24.9,21.693l.962-1a.627.627,0,0,0-.017-.857l-1.807-1.729Zm-4.99,9.662c-.353.112-.7.229-1.055.343s-.7.236-1.055.353q-1.246.409-1.393.451t.17-1.171l.66-2.545h0l5.005-5.207,2.669,2.569-5,5.207Zm-9.4-6.591a.79.79,0,0,1,0-1.554h4.187a.79.79,0,0,1,0,1.554Zm0-10.884a.712.712,0,0,1-.643-.765.711.711,0,0,1,.643-.765h8.5a.712.712,0,0,1,.643.765.711.711,0,0,1-.643.765Zm-3.687,9.06a.906.906,0,1,1-.906.906.906.906,0,0,1,.906-.906Zm0-5.363a.906.906,0,1,1-.906.906.906.906,0,0,1,.906-.906Zm0-5.363a.906.906,0,1,1-.906.906.906.906,0,0,1,.906-.906Z" transform="translate(0 0)" fill="#fff" fill-rule="evenodd"/>
    </g>
  </g>
</svg>
