<svg id="Group_7256" data-name="Group 7256" xmlns="http://www.w3.org/2000/svg" width="60" height="60" viewBox="0 0 60 60">
  <circle id="Ellipse_32" data-name="Ellipse 32" cx="30" cy="30" r="30" fill="#f48120"/>
  <path id="Path_9094" data-name="Path 9094" d="M14.466,2.8,19.39,7.975l-5.006.084L14.466,2.8ZM19.7,17.852l.009.008a1.512,1.512,0,0,0,1.248.537,1.539,1.539,0,0,1,1.4.573,2.08,2.08,0,0,1,.356,1.166l0,.039a1.853,1.853,0,0,0,.429,1.105,3.019,3.019,0,0,1,.594,1.127,1.481,1.481,0,0,1-.654,1.539,1.117,1.117,0,0,0-.273.282,1.449,1.449,0,0,0-.1.611,1.742,1.742,0,0,1-1.885,1.9c-.515-.042-.668.136-1.084.464a1.662,1.662,0,0,1-2.432,0c-.405-.328-.556-.493-1.079-.464a1.75,1.75,0,0,1-1.89-1.9c-.011-.509-.019-.593-.377-.9a1.465,1.465,0,0,1-.654-1.535,3.039,3.039,0,0,1,.6-1.127c.683-.883.213-1.459.789-2.311l.008-.008a1.525,1.525,0,0,1,1.387-.559,1.5,1.5,0,0,0,1.253-.542,1.528,1.528,0,0,1,2.35,0Zm4.119,13.859-1.3-.234-.655,1.175a.038.038,0,0,1-.017.021c-.273.338-.524.329-.741.152a2.147,2.147,0,0,1-.49-.867l-.039-.1-1.383-2.61a.159.159,0,0,1,.069-.221.066.066,0,0,1,.021-.008,1.827,1.827,0,0,0,.477-.277c.181-.135.373-.3.567-.477a.165.165,0,0,1,.125-.043,3.164,3.164,0,0,0,1.062-.13,1.814,1.814,0,0,0,.867-.62.161.161,0,0,1,.23-.03.172.172,0,0,1,.043.057l1.6,3.086.139.3a.059.059,0,0,1,.009.026.811.811,0,0,1,0,.581.508.508,0,0,1-.581.221Zm-9.264-.234-1.305.234a.536.536,0,0,1-.585-.23.8.8,0,0,1,0-.58l.147-.326,1.6-3.086a.177.177,0,0,1,.043-.056.161.161,0,0,1,.23.03,2.164,2.164,0,0,0,1.929.75.163.163,0,0,1,.125.044,3.889,3.889,0,0,0,1.045.754.161.161,0,0,1,.091.23l-1.383,2.61-.039.1a2.15,2.15,0,0,1-.49.867c-.217.173-.464.186-.741-.152-.208-.393-.449-.8-.667-1.188Zm3.98-11.822a2.851,2.851,0,1,0,2.852,2.853A2.841,2.841,0,0,0,18.531,19.655Zm-14.2,3.924h6.256v-.94H4.331Zm0-3.61h8.6v-.014a3.749,3.749,0,0,1,.165-.927H4.331Zm0-3.61h12.63a3.061,3.061,0,0,1,.747-.351h.006V15.42H4.331Zm0-10.828H8.739v-.94H4.331v.94Zm0,3.61h6.256V8.2H4.331Zm0,3.61H17.7v-.94H4.331ZM22.046,8.719a.82.82,0,0,0-.6-.791L14.2.3a.813.813,0,0,0-.632-.3H1.473A1.472,1.472,0,0,0,0,1.473V26.7A1.474,1.474,0,0,0,1.473,28.17H12.461l.673-1.3.008-.017H1.316V1.309H12.9v7.4a.827.827,0,0,0,.827.827h7v7.333c.335.277.2.114.254.111a4.571,4.571,0,0,1,1.062.133v-8.4Z" transform="translate(18.467 14.25)" fill="#fff"/>
</svg>
