<svg xmlns="http://www.w3.org/2000/svg" width="60" height="60" viewBox="0 0 60 60">
  <g id="Group_7253" data-name="Group 7253" transform="translate(-267 -1397)">
    <circle id="Ellipse_30" data-name="Ellipse 30" cx="30" cy="30" r="30" transform="translate(267 1397)" fill="#f48120"/>
    <path id="Path_9093" data-name="Path 9093" d="M2.426,15.759a1.076,1.076,0,0,1,1.452-.082l2.695,2.2A1.076,1.076,0,0,1,5.21,19.547l-.968-.793a14,14,0,0,0,27.677-2.96.9.9,0,1,1,1.8,0,15.8,15.8,0,0,1-31.2,3.474l-.563.794A1.074,1.074,0,1,1,.2,18.817l2.016-2.838a1.068,1.068,0,0,1,.209-.22Zm10.563-6.69c2.225-2.75,4.789-4.245,6.714-1.8,2.213.116,3.161,3.474,1.639,5.131a.61.61,0,0,1,.3.069.516.516,0,0,1,.249.313,1.683,1.683,0,0,1-.1.876c-.1.442-.215.929-.718.9l-.08-.009a2.433,2.433,0,0,1-1.05,1.885c.111.162.223.326.345.483a1.418,1.418,0,0,0,.22.243c1.006.843,2.9,1.027,3.965,1.621a2.847,2.847,0,0,1,.905.766,6.063,6.063,0,0,1,.853,2.955.859.859,0,0,1,.026.207.249.249,0,0,1-.249.249H9.41a.249.249,0,0,1-.249-.249.891.891,0,0,1,.027-.21,6.068,6.068,0,0,1,.852-2.951,2.865,2.865,0,0,1,.906-.766C12,18.2,13.8,18.01,14.873,17.191a6.453,6.453,0,0,0,.438-1,2.3,2.3,0,0,1-.825-1.632h-.051a.691.691,0,0,1-.337-.089.974.974,0,0,1-.425-.679c-.074-.347-.164-1.348.315-1.543-.059-1.1.127-2.835-1-3.176ZM19.662,16.7a2.7,2.7,0,0,1-1.848.8,2.969,2.969,0,0,1-1.964-.841l-.234-.2a5.341,5.341,0,0,1-.484,1.035,2.865,2.865,0,0,0,5.161.012A5.611,5.611,0,0,1,19.662,16.7ZM19.4,9.329a2.352,2.352,0,0,1-1.569.7c-.156.028-.307.046-.459.065a3.268,3.268,0,0,0-1.676.587,1.612,1.612,0,0,0-.636.795,2.018,2.018,0,0,0-.024,1.1.217.217,0,0,1-.009.123.22.22,0,0,1-.283.131c-.178-.065-.561-.269-.656-.042a2.906,2.906,0,0,0,.013.909c.067.314.185.49.522.387l.059-.009a.221.221,0,0,1,.226.215,2.2,2.2,0,0,0,1.006,1.845l.225.2a2.544,2.544,0,0,0,1.67.731,2.3,2.3,0,0,0,1.594-.726l.229-.217a2.03,2.03,0,0,0,.9-1.877.221.221,0,0,1,.342-.2.45.45,0,0,0,.213.082c.186.01.289-.7.353-.89a.613.613,0,0,0,.023-.318c-.021-.072-.086-.076-.152-.07a.769.769,0,0,0-.362.156.22.22,0,0,1-.363-.2,4.229,4.229,0,0,0-.145-2.543,2.165,2.165,0,0,0-.98-.972l-.064.048ZM4.476,11.9a.9.9,0,1,1-1.722-.5A15.8,15.8,0,0,1,31.861,8.361L32.248,7.3a1.074,1.074,0,0,1,2.019.731l-1.2,3.269a1.075,1.075,0,0,1-.157.286,1.072,1.072,0,0,1-1.367.445L28.366,10.62a1.073,1.073,0,1,1,.875-1.96l.974.433A14,14,0,0,0,4.476,11.9Z" transform="translate(279.998 1411.56)" fill="#fff"/>
  </g>
</svg>
