<svg xmlns="http://www.w3.org/2000/svg" xmlns:xlink="http://www.w3.org/1999/xlink" width="107.985" height="110.026" viewBox="0 0 107.985 110.026">
  <defs>
    <linearGradient id="linear-gradient" x1="0.5" x2="0.5" y2="1" gradientUnits="objectBoundingBox">
      <stop offset="0" stop-color="#f48120"/>
      <stop offset="1" stop-color="#ffd0a8"/>
    </linearGradient>
  </defs>
  <g id="Group_145" data-name="Group 145" transform="translate(-1058.539 -6494)">
    <g id="noun-cloud-service-paas-2741594" transform="translate(1058.539 6494)">
      <g id="Group_136" data-name="Group 136">
        <g id="Group_131" data-name="Group 131">
          <path id="Path_128" data-name="Path 128" d="M16.724,61.216H54.532v2.492a2.571,2.571,0,0,0-2.211,2.1l-.551,3.02a18.667,18.667,0,0,0-6.27,2.6l-2.492-1.759a2.656,2.656,0,0,0-3.34.283l-1.337,1.332a2.6,2.6,0,0,0-.289,3.352l1.734,2.5a18.66,18.66,0,0,0-2.587,6.3l-3.005.519a2.6,2.6,0,0,0-2.161,2.567v1.888a2.6,2.6,0,0,0,2.161,2.567l3.008.55a18.772,18.772,0,0,0,2.6,6.279l-1.754,2.478a2.6,2.6,0,0,0,.288,3.35l1.339,1.334a2.656,2.656,0,0,0,3.338.281l2.516-1.741A18.622,18.622,0,0,0,51.8,106.1l.522,3.016a2.6,2.6,0,0,0,2.567,2.163h1.888a2.6,2.6,0,0,0,2.567-2.162l.551-3.02a18.8,18.8,0,0,0,6.267-2.606l2.5,1.761a2.658,2.658,0,0,0,3.34-.283l1.337-1.333a2.6,2.6,0,0,0,.291-3.349l-1.738-2.514A18.824,18.824,0,0,0,74.475,91.5l3.007-.52a2.6,2.6,0,0,0,2.159-2.567V86.523a2.6,2.6,0,0,0-2.161-2.566l-3.007-.55a18.751,18.751,0,0,0-2.606-6.28l1.756-2.492a2.6,2.6,0,0,0-.289-3.348L72,69.953a2.659,2.659,0,0,0-3.34-.282l-2.518,1.744a18.729,18.729,0,0,0-6.274-2.59l-.522-3.02a2.572,2.572,0,0,0-2.211-2.1V61.216H94.939a14.887,14.887,0,0,0,.022-29.774q-.635,0-1.272.055A15.967,15.967,0,0,0,74.02,13.886,19.417,19.417,0,0,0,38.73,11.46a1.3,1.3,0,0,0-.078.182,18.842,18.842,0,0,0-1.008,2.238A15.951,15.951,0,0,0,17.993,31.5c-.427-.037-.855-.056-1.282-.056a14.887,14.887,0,0,0,.013,29.775ZM59.346,71.368A16.216,16.216,0,0,1,64.732,73.6a2.659,2.659,0,0,0,2.927-.045l2.5-1.761L71.5,73.136l-1.758,2.492a2.613,2.613,0,0,0-.044,2.926,16.208,16.208,0,0,1,2.234,5.4A2.608,2.608,0,0,0,74.032,86l3.01.526-.005,1.9-3.005.519a2.607,2.607,0,0,0-2.1,2.043A16.249,16.249,0,0,1,69.7,96.365a2.611,2.611,0,0,0,.044,2.929l1.756,2.5-1.345,1.334-2.5-1.761a2.654,2.654,0,0,0-2.926-.044,16.243,16.243,0,0,1-5.384,2.232,2.608,2.608,0,0,0-2.045,2.1l-.521,3.019,0,0,0,1.3v-1.3l-1.893-.005-.522-3.018a2.608,2.608,0,0,0-2.045-2.1,16.055,16.055,0,0,1-5.381-2.228,2.665,2.665,0,0,0-1.447-.429,2.564,2.564,0,0,0-1.486.47l-2.5,1.76-1.338-1.34,1.754-2.478a2.609,2.609,0,0,0,.047-2.931,16.2,16.2,0,0,1-2.232-5.4,2.607,2.607,0,0,0-2.1-2.045l-3.01-.527.005-1.894L37.631,86a2.6,2.6,0,0,0,2.1-2.047,16.133,16.133,0,0,1,2.227-5.4,2.609,2.609,0,0,0-.042-2.936l-1.751-2.482,1.345-1.332L44,73.554a2.652,2.652,0,0,0,2.935.041,16.063,16.063,0,0,1,5.379-2.227,2.608,2.608,0,0,0,2.045-2.1l.527-3.023,1.893,0,.521,3.02A2.611,2.611,0,0,0,59.346,71.368ZM55.837,23.355a2.86,2.86,0,0,1,3,3.033,2.849,2.849,0,0,1-3,3.031C51.828,29.42,51.825,23.355,55.837,23.355ZM16.711,34.04a12.55,12.55,0,0,1,2.637.283,1.282,1.282,0,0,0,1.211-.37,1.3,1.3,0,0,0,.321-1.224A13.35,13.35,0,0,1,38.059,16.713a1.3,1.3,0,0,0,1.667-.865,15.939,15.939,0,0,1,1.29-3.114,1.149,1.149,0,0,0,.077-.177,16.793,16.793,0,0,1,13.439-8.62V20.9a5.4,5.4,0,0,0-4.292,5.483,5.6,5.6,0,1,0,11.2,0,5.444,5.444,0,0,0-4.3-5.505V3.937A16.733,16.733,0,0,1,71.939,15.866a1.3,1.3,0,0,0,1.68.86,13.337,13.337,0,0,1,17.181,16,1.3,1.3,0,0,0,1.533,1.594,12.523,12.523,0,0,1,2.628-.283,12.29,12.29,0,0,1,12.194,10.99H89.629a.432.432,0,0,1-.306-.127l-4.976-4.976A3.054,3.054,0,0,0,82.2,39.04H71.513a5.631,5.631,0,1,0,0,2.6H82.2a.44.44,0,0,1,.306.127l4.975,4.975a3.011,3.011,0,0,0,2.146.889h17.525A12.3,12.3,0,0,1,94.939,58.617H16.724A12.3,12.3,0,0,1,4.508,47.63H22.035a3.007,3.007,0,0,0,2.144-.888l4.976-4.976a.438.438,0,0,1,.306-.127H40.15a5.631,5.631,0,1,0,0-2.6H29.461a3.012,3.012,0,0,0-2.144.888L22.339,44.9a.425.425,0,0,1-.3.126H4.508A12.3,12.3,0,0,1,16.711,34.04Zm52.369,6.3a3.032,3.032,0,1,1-3.031-3.032A3.036,3.036,0,0,1,69.081,40.34Zm-26.5,0a3.032,3.032,0,1,1,3.032,3.032A3.036,3.036,0,0,1,42.583,40.34Z" transform="translate(-1.839 -1.25)" fill="url(#linear-gradient)"/>
        </g>
        <g id="Group_132" data-name="Group 132" transform="translate(45.277 51.96)">
          <rect id="Rectangle_99" data-name="Rectangle 99" width="2.917" height="2.892" fill="url(#linear-gradient)"/>
        </g>
        <g id="Group_133" data-name="Group 133" transform="translate(52.535 51.96)">
          <rect id="Rectangle_100" data-name="Rectangle 100" width="2.917" height="2.892" fill="url(#linear-gradient)"/>
        </g>
        <g id="Group_134" data-name="Group 134" transform="translate(59.792 51.96)">
          <rect id="Rectangle_101" data-name="Rectangle 101" width="2.917" height="2.892" fill="url(#linear-gradient)"/>
        </g>
        <g id="Group_135" data-name="Group 135" transform="translate(42.584 76.01)">
          <path id="Path_129" data-name="Path 129" d="M26.063,55.485a11.409,11.409,0,1,0,11.4-11.417A11.415,11.415,0,0,0,26.063,55.485Zm20.351,0a8.942,8.942,0,1,1-8.95-8.95A8.952,8.952,0,0,1,46.415,55.485Z" transform="translate(-26.063 -44.068)" fill="url(#linear-gradient)"/>
        </g>
      </g>
    </g>
  </g>
</svg>
