<?xml version="1.0" encoding="UTF-8"?><svg id="Layer_1" xmlns="http://www.w3.org/2000/svg" viewBox="0 0 400 400"><path d="M309.45,287.84c11.41-8.3,27.31-7.22,37.67,6.66,3.88-1.58,7.56-3.65,11.51-4.58,15.48-3.65,30.98,8.04,31.19,23.97.35,25.93.09,51.86.07,77.79,0,.25-.14.49-.3.99h-12.61c0-1.58,0-3.03,0-4.47,0-24.18.05-48.35-.03-72.53-.03-9.64-8.85-15.97-17.46-12.64-5.3,2.05-8.14,6.1-8.39,11.78-.17,3.77-.03,7.56-.05,11.34-.03,5.4-2.43,8.46-6.58,8.39-4.13-.07-6.36-3.06-6.38-8.58-.02-5.54.04-11.08-.02-16.61-.09-7.9-5.61-13.67-12.97-13.66-7.39.01-12.85,5.76-12.93,13.69-.06,5.81.02,11.62-.02,17.42-.04,4.78-2.5,7.7-6.4,7.75-3.92.05-6.5-2.88-6.53-7.6-.05-7.97.03-15.94-.03-23.91-.06-7.96-5.47-13.75-12.81-13.83-7.55-.08-13.05,5.73-13.09,13.93-.05,7.83.02,15.67-.02,23.5-.02,5-2.61,8.02-6.64,7.91-3.89-.11-6.29-3.01-6.3-7.84-.02-33.77.01-67.53-.03-101.3-.01-10.15-8.92-16.62-17.79-13.07-5.1,2.04-8.1,6.69-8.11,12.84-.03,22.02-.01,44.03-.01,66.05,0,18.1-.05,36.2.04,54.3.02,3.87-.8,7.18-4.9,8.26-4.12,1.08-6.45-1.46-8.32-4.8-3.76-6.71-7.64-13.35-11.55-19.97-4.08-6.91-11.55-9.14-17.99-5.47-6.4,3.64-8.4,11.36-4.46,18.27,9.02,15.82,18.18,31.56,27.58,47.85-3.62,2.13-7.16,4.21-11,6.47-.84-1.32-1.67-2.51-2.39-3.76-7.77-13.43-15.4-26.94-23.32-40.28-4.34-7.31-7.36-14.74-5.04-23.7h-39.49c.75,1.44,1.35,2.84,2.17,4.09,5.7,8.76,8.2,18.34,7.99,28.78-.21,10.37-.05,20.75-.05,31.39h-12.96c0-9.97-.27-19.8.08-29.61.32-9.25-1.86-17.55-6.98-25.27-3.73-5.62-6.86-11.63-10.51-17.29-2.34-3.62-2.33-6.8-.15-10.52,9.22-15.7,18.23-31.54,27.4-47.27,2.07-3.56,3.1-7.23,1.94-11.22-1.48-5.09-4.85-8.39-10.18-9.25-5.79-.94-10.43,1.12-13.42,6.19-6.09,10.34-12.04,20.78-18.04,31.18-6.88,11.91-13.75,23.81-20.89,36.17-3.77-2.17-7.33-4.22-10.74-6.18.04-.65-.05-.99.08-1.15,4.97-6.07,6.14-12.68,3.57-20.19-.84-2.45-.48-5.35-.48-8.04-.03-30.12-.02-60.23-.02-91.44-1.04,1.84-1.64,2.76-2.1,3.76-8.2,17.75-16.36,35.52-24.56,53.27-3.91,8.47-5.79,17.32-5.77,26.67.06,38.36.03,76.72.03,115.08,0,1.61,0,3.22,0,5.12h-12.96c0-1.44,0-2.87,0-4.31,0-38.49.05-76.99-.03-115.48-.03-11.68,2.39-22.72,7.3-33.3,9.31-20.06,18.35-40.25,27.91-60.19,1.89-3.94,5.72-6.93,8.44-10.51.92-1.22,1.68-2.93,1.68-4.42.1-27.69.07-55.38.07-83.07,0-10.4-.05-20.8.01-31.2.16-26.31,19.86-46.13,46.16-46.19,42.54-.1,85.07-.07,127.61,0,26.83.04,46.56,19.73,46.58,46.58.06,74.02.04,148.03-.04,222.05,0,3.04.78,4.47,3.68,5.99,4.54,2.37,8.47,5.91,13.11,9.27ZM273.28,279.15q6.48-1.88,6.48-7.97c0-73.34.01-146.68,0-220.02,0-20.55-13.75-34.25-34.32-34.26-41.86-.02-83.72-.02-125.58,0-20.85,0-34.54,13.64-34.54,34.44-.01,74.56,0,149.11,0,223.67,0,1.28,0,2.55,0,3.83,1.47-1.06,2.27-2.24,2.98-3.47,6.42-11.09,12.73-22.25,19.26-33.28,6.07-10.25,17.41-15.1,28.37-12.43,17.13,4.17,25.21,22.72,16.45,38.38-8.03,14.36-16.44,28.52-24.67,42.77-.71,1.23-1.32,2.52-2.07,3.94.78.19,1.14.35,1.51.35,17.42.02,34.84.06,52.26-.04,1.33,0,2.79-.79,3.95-1.56,9.08-6.05,20.02-6.33,28.9-.2,2.99,2.07,5.82,2.05,9.18,1.47,0-1.84,0-3.45,0-5.06,0-28.5-.09-57,.04-85.5.07-14.4,11.62-25.74,25.81-25.77,14.21-.03,25.78,11.25,25.95,25.63.17,14.04.04,28.09.05,42.14,0,4.29,0,8.58,0,12.95Z"/><path d="M57.23,96.65c-3.01,2.81-5.93,5.55-9.21,8.61-2.27-2.15-4.84-4.58-8-7.59v74.62h-12.91v-73.78l-1.05-.64c-2.22,2.78-4.43,5.56-6.75,8.46-3.71-3.83-6.51-6.72-9.32-9.62,6.49-6.67,12.91-13.53,19.65-20.07,2.41-2.34,5.69-2.01,8.09.33,6.54,6.4,12.9,12.99,19.48,19.66Z"/><path d="M323.71,97.62c-2.28,2.64-4.56,5.27-6.93,8.01-3.05-3.11-5.88-5.98-8.67-8.83,6.55-6.74,12.99-13.6,19.72-20.16,2.26-2.21,5.5-2.09,7.77.14,6.63,6.5,13.02,13.24,19.65,20.04-2.91,2.63-5.9,5.32-9.21,8.31-2.13-2.02-4.7-4.45-7.74-7.34v74.38h-13.05v-73.66c-.51-.3-1.02-.59-1.53-.89Z"/><path d="M27.21,185.65h12.44v12.51h-12.44v-12.51Z"/><path d="M337.9,185.69v12.44h-12.51v-12.44h12.51Z"/><path d="M337.92,211.69v12.45h-12.46v-12.45h12.46Z"/><path d="M117.73,146.35c0-35.71,29.22-64.67,65.21-64.62,35.28.05,64.43,29.29,64.41,64.62-.02,35.94-29.05,65.07-64.81,65.01-35.89-.06-64.8-29.06-64.81-65.02ZM182.49,94.7c-28.78.1-51.89,23.37-51.8,52.19.08,28.44,23.46,51.57,52.08,51.53,28.38-.04,51.74-23.58,51.62-52.01-.12-28.59-23.42-51.81-51.89-51.71Z"/><path d="M182.51,302.15c-4.45,0-8.91.1-13.35-.02-10.74-.3-19.12-9-19.02-19.65.1-10.43,8.48-18.99,19.06-19.18,8.9-.16,17.81-.16,26.71,0,10.58.2,18.94,8.77,19.02,19.22.08,10.64-8.31,19.31-19.06,19.6-4.45.12-8.9.02-13.35.02ZM182.22,289.19c4.05,0,8.1.04,12.15-.01,4.72-.06,7.64-2.64,7.57-6.57-.06-3.81-2.87-6.33-7.36-6.37-8.1-.06-16.2-.08-24.3,0-4.42.04-7.22,2.72-7.16,6.55.06,3.8,2.88,6.3,7.35,6.38,3.91.07,7.83.01,11.74.02Z"/><path d="M156.93,29.86h51.28v12.76h-51.28v-12.76Z"/><path d="M130.96,30.06h12.49v12.47h-12.49v-12.47Z"/><path d="M189.02,179.14v6.08h-12.86v-6.02c-6.62-.59-12.34-2.93-15.85-8.5-1.98-3.15-2.93-6.95-4.57-11h13.59c1,5.38,4.81,6.69,9.82,6.35,3.23-.22,6.48.06,9.72-.08,3.88-.17,6.52-2.8,6.6-6.3.08-3.68-2.63-6.45-6.72-6.58-3.91-.13-7.83-.01-11.74-.04-11.05-.08-19.6-7.62-20.34-17.92-.77-10.63,6.51-19.24,17.7-20.92.4-.06.8-.11,1.54-.22.09-1.91.19-3.88.29-6.07h12.73v5.98c6.59.67,12.37,2.92,15.85,8.53,1.96,3.16,2.92,6.95,4.55,11.01h-13.57c-1.01-5.38-4.81-6.69-9.83-6.35-3.23.22-6.48-.06-9.72.08-3.89.17-6.51,2.77-6.59,6.29-.09,3.67,2.62,6.45,6.71,6.59,3.91.13,7.83.02,11.74.04,11.07.07,19.59,7.58,20.35,17.91.77,10.46-6.37,19.09-17.29,20.89-.53.09-1.07.13-2.1.26Z"/></svg>