<svg xmlns="http://www.w3.org/2000/svg" width="60" height="60" viewBox="0 0 60 60">
  <g id="Group_74" data-name="Group 74" transform="translate(-1018 -461)">
    <circle id="Ellipse_14" data-name="Ellipse 14" cx="30" cy="30" r="30" transform="translate(1018 461)" fill="#fff2e8"/>
    <g id="payment-method-svgrepo-com" transform="translate(1031 465.9)">
      <g id="Group_73" data-name="Group 73" transform="translate(0 9.1)">
        <path id="Path_9319" data-name="Path 9319" d="M30.776,13.822h-8.24V11.575A2.478,2.478,0,0,0,20.054,9.1H2.475A2.477,2.477,0,0,0,0,11.575v27.05A2.477,2.477,0,0,0,2.475,41.1h17.58a2.483,2.483,0,0,0,2.482-2.475V35.259h8.24a2.483,2.483,0,0,0,2.482-2.475V16.3A2.493,2.493,0,0,0,30.776,13.822Zm-2.44,1.659V33.6h-1.6V15.481ZM20.877,38.618a.819.819,0,0,1-.823.816H2.475a.817.817,0,0,1-.816-.816V11.575a.817.817,0,0,1,.816-.816h17.58a.823.823,0,0,1,.823.816Zm1.659-23.138h2.551V33.6H22.536Zm9.056,17.3a.819.819,0,0,1-.823.816H30V15.481h.774a.823.823,0,0,1,.823.816Z" transform="translate(0 -9.1)" fill="#f48120"/>
        <path id="Path_9320" data-name="Path 9320" d="M65.715,83.045h9.505a2.115,2.115,0,0,0,2.115-2.115V74.715A2.115,2.115,0,0,0,75.221,72.6H65.715A2.115,2.115,0,0,0,63.6,74.715V80.93A2.115,2.115,0,0,0,65.715,83.045Zm-.456-8.33a.456.456,0,0,1,.456-.456h9.505a.456.456,0,0,1,.456.456V80.93a.456.456,0,0,1-.456.456H65.715a.456.456,0,0,1-.456-.456Z" transform="translate(-59.203 -68.21)" fill="#f48120"/>
        <path id="Path_9321" data-name="Path 9321" d="M65.529,273.5h-1.1a.83.83,0,1,0,0,1.659h1.1a.83.83,0,1,0,0-1.659Z" transform="translate(-59.203 -255.222)" fill="#f48120"/>
        <path id="Path_9322" data-name="Path 9322" d="M144.929,273.5h-1.1a.83.83,0,1,0,0,1.659h1.1a.83.83,0,1,0,0-1.659Z" transform="translate(-133.115 -255.222)" fill="#f48120"/>
        <path id="Path_9323" data-name="Path 9323" d="M224.429,273.5h-1.1a.83.83,0,1,0,0,1.659h1.1a.83.83,0,1,0,0-1.659Z" transform="translate(-207.119 -255.222)" fill="#f48120"/>
        <path id="Path_9324" data-name="Path 9324" d="M65.529,327.7h-1.1a.83.83,0,1,0,0,1.659h1.1a.83.83,0,1,0,0-1.659Z" transform="translate(-59.203 -305.675)" fill="#f48120"/>
        <path id="Path_9325" data-name="Path 9325" d="M144.929,327.7h-1.1a.83.83,0,1,0,0,1.659h1.1a.83.83,0,1,0,0-1.659Z" transform="translate(-133.115 -305.675)" fill="#f48120"/>
        <path id="Path_9326" data-name="Path 9326" d="M224.429,327.7h-1.1a.83.83,0,1,0,0,1.659h1.1a.83.83,0,1,0,0-1.659Z" transform="translate(-207.119 -305.675)" fill="#f48120"/>
        <path id="Path_9327" data-name="Path 9327" d="M65.529,381.9h-1.1a.83.83,0,0,0,0,1.659h1.1a.83.83,0,0,0,0-1.659Z" transform="translate(-59.203 -356.129)" fill="#f48120"/>
        <path id="Path_9328" data-name="Path 9328" d="M144.929,381.9h-1.1a.83.83,0,0,0,0,1.659h1.1a.83.83,0,0,0,0-1.659Z" transform="translate(-133.115 -356.129)" fill="#f48120"/>
        <path id="Path_9329" data-name="Path 9329" d="M224.429,381.9h-1.1a.83.83,0,0,0,0,1.659h1.1a.83.83,0,0,0,0-1.659Z" transform="translate(-207.119 -356.129)" fill="#f48120"/>
      </g>
    </g>
  </g>
</svg>
