<?xml version="1.0" encoding="UTF-8"?><svg id="Layer_1" xmlns="http://www.w3.org/2000/svg" xmlns:xlink="http://www.w3.org/1999/xlink" viewBox="0 0 60 60"><defs><style>.cls-1{fill:url(#linear-gradient);}.cls-1,.cls-2{stroke-width:0px;}.cls-2{fill:#fff;}</style><linearGradient id="linear-gradient" x1="60" y1="30" x2="0" y2="30" gradientUnits="userSpaceOnUse"><stop offset="0" stop-color="#3b3b3b"/><stop offset="1" stop-color="#191919"/></linearGradient></defs><circle class="cls-1" cx="30" cy="30" r="30"/><path class="cls-2" d="M35.22,18.19c.11.12.26.2.42.21.01,0,.03,0,.04,0,.15,0,.3-.06.41-.16l2.35-2.16c.25-.22.26-.6.04-.85s-.6-.26-.85-.04l-1.89,1.73-.51-.6c-.21-.25-.59-.28-.85-.07-.25.21-.28.59-.07.85l.91,1.08h0ZM49.68,38.81c-.18-.66-.71-1.51-2.26-1.8-.7-.12-1.42-.08-2.13.12l-6.97,1.93c-.01-.53-.2-.9-.39-1.13-.48-.6-1.35-.9-2.59-.9-.96,0-1.99-.14-3.02-.45-1.62-.49-3.56-1.17-4.11-1.36-.97-.34-1.99-.45-2.94-.3-1.8.28-3.39,1.2-4.39,1.9-.5-.48-1.18-.78-1.92-.78h-1.86c-.74.02-1.44.31-1.96.84s-.8,1.23-.8,1.97l.05,7.28c0,.74.3,1.44.83,1.96.52.52,1.21.8,1.95.8h1.86c.74-.02,1.44-.31,1.96-.84.1-.1.19-.22.27-.33.74-.19,1.73-.32,2.96-.39.64-.04,1.31,0,2.03.14,5.14.96,10.29-.65,10.46-.71,3.09-.7,8.7-3.52,11.77-5.15,1.02-.55,1.53-1.7,1.23-2.79h0ZM19,47.67h-1.84s0,.01-.01.01c-.42,0-.81-.16-1.1-.45-.3-.3-.47-.69-.47-1.11l-.05-7.28c0-.42.16-.82.45-1.12s.69-.47,1.11-.47h1.84s0-.01.01-.01c.86,0,1.57.7,1.57,1.56l.05,7.28c0,.42-.16.82-.45,1.12-.3.3-.69.47-1.11.47ZM47.88,40.55c-2.43,1.28-8.4,4.34-11.52,5.05-.05.02-5.09,1.59-9.93.68-.82-.15-1.57-.2-2.31-.16-.92.05-1.71.14-2.39.26.01-.1.03-.2.03-.31l-.05-7.28c0-.34-.08-.67-.19-.97.89-.63,2.33-1.46,3.91-1.71.76-.12,1.58-.03,2.36.24.56.2,2.52.88,4.16,1.38,1.11.33,2.21.5,3.27.5.85,0,1.52.15,1.76.45.05.06.2.24.09.73,0,.02,0,.04,0,.06-.02.12-.19,1.17-1.59,1.43-.5.1-1.05.06-1.6-.12-1.81-.57-5.14-1.27-7.12.48-.25.22-.27.6-.05.85.12.13.28.2.45.2.14,0,.28-.05.4-.15,1.59-1.41,4.69-.64,5.95-.24.74.24,1.5.29,2.19.15,1.3-.25,1.99-1.02,2.31-1.7l7.58-2.09c.54-.15,1.08-.18,1.6-.09,1.12.21,1.27.75,1.31.93.15.54-.13,1.14-.64,1.42h0Z"/><path class="cls-2" d="M21.02,33.99h17.46c2.12,0,3.84-1.73,3.84-3.85v-8.44c0-1.48-.86-2.82-2.15-3.46.2-.53.3-1.06.3-1.58v-2.42c0-.25-.15-.47-.38-.56-.02,0-1.64-.66-3.24-2.49-.11-.13-.28-.2-.45-.2h0c-.17,0-.34.07-.45.2-1.6,1.83-3.22,2.48-3.24,2.49-.23.09-.38.31-.38.56v2.42c0,.39.06.78.18,1.18h-11.48c-2.12,0-3.84,1.73-3.84,3.85v8.44c0,2.12,1.72,3.85,3.84,3.85h0ZM33.52,14.64c.57-.29,1.69-.94,2.87-2.15,1.18,1.21,2.31,1.87,2.87,2.15v2.03c0,.52-.15,1.07-.44,1.63-.66,1.3-1.88,2.32-2.43,2.73-.21-.16-.52-.41-.86-.73-.57-.53-1.21-1.27-1.62-2.11-.26-.53-.38-1.04-.38-1.52v-2.03h0ZM18.39,21.7c0-1.46,1.18-2.65,2.63-2.65h11.98c.07.12.14.23.21.34.01.02.03.05.05.07.06.09.12.17.18.26.02.03.05.07.07.1.05.07.11.15.16.22.03.04.06.07.09.11.05.07.11.13.16.2.03.04.07.08.1.11.05.06.11.12.16.18.03.04.07.08.11.11.05.06.1.11.16.16.04.04.07.07.11.11.05.05.1.1.15.15.04.03.07.07.11.1.05.05.1.09.15.14.04.03.07.06.11.09.05.04.1.08.14.12.03.03.07.06.1.08.05.04.09.07.14.11.03.03.07.05.1.07.04.03.09.06.13.09.03.02.06.04.09.06.04.03.08.05.11.07.03.02.05.03.08.05.04.02.07.04.1.06.02.01.05.03.07.03.03.02.06.03.1.04.01,0,.03.01.05.02.04.01.08.02.11.02.05,0,.12-.02.21-.06,0,0,.02,0,.03,0,.08-.04.18-.09.29-.16.02-.01.03-.02.05-.03.11-.07.23-.15.35-.25.02-.01.04-.03.06-.04.13-.1.26-.21.4-.33.02-.02.03-.03.05-.05.14-.13.29-.27.44-.41,0,0,.02-.02.02-.03.31-.31.62-.66.9-1.02.01-.02.03-.03.04-.05.13-.17.25-.35.37-.53.01-.02.02-.03.04-.05.89.44,1.48,1.36,1.48,2.38v8.44c0,1.46-1.18,2.65-2.63,2.65h-17.46c-1.45,0-2.63-1.19-2.63-2.65v-8.44h0Z"/><path class="cls-2" d="M21.07,24.5h2.91c.7,0,1.27-.57,1.27-1.27v-1.57c0-.7-.57-1.27-1.27-1.27h-2.91c-.7,0-1.27.57-1.27,1.27v1.57c0,.7.57,1.27,1.27,1.27ZM21,21.66s.03-.07.07-.07h2.91s.07.03.07.07v1.57s-.03.07-.07.07h-2.91s-.07-.03-.07-.07c0,0,0-1.57,0-1.57ZM20.04,27.12h18.62c.33,0,.6-.27.6-.6s-.27-.6-.6-.6h-18.62c-.33,0-.6.27-.6.6s.27.6.6.6ZM22.82,30.58h-1.44c-.16,0-.3-.13-.3-.3v-1.64c0-.33-.27-.6-.6-.6s-.6.27-.6.6v1.64c0,.83.67,1.5,1.5,1.5h1.44c.33,0,.6-.27.6-.6s-.27-.6-.6-.6h0ZM38.24,28.03h-3.65c-.33,0-.6.27-.6.6s.27.6.6.6h3.65c.33,0,.6-.27.6-.6s-.27-.6-.6-.6ZM36.86,29.61h-2.27c-.33,0-.6.27-.6.6s.27.6.6.6h2.27c.33,0,.6-.27.6-.6s-.27-.6-.6-.6Z"/></svg>