<?xml version="1.0" encoding="UTF-8"?><svg id="Layer_1" xmlns="http://www.w3.org/2000/svg" xmlns:xlink="http://www.w3.org/1999/xlink" viewBox="0 0 148.78 148.78"><defs><style>.cls-1{fill:#fff;}.cls-2{fill:url(#linear-gradient);}</style><linearGradient id="linear-gradient" x1="148.78" y1="77.61" x2="0" y2="77.61" gradientTransform="translate(0 152) scale(1 -1)" gradientUnits="userSpaceOnUse"><stop offset="0" stop-color="#3b3b3b"/><stop offset="1" stop-color="#191919"/></linearGradient></defs><circle class="cls-2" cx="74.39" cy="74.39" r="74.39"/><path class="cls-1" d="M122.17,41.09c0-3.58-2.84-6.42-6.42-6.42H33.02c-3.58,0-6.42,2.84-6.42,6.42v53.31c0,3.58,2.84,6.42,6.42,6.42h32.25v4.78h-1.79c-2.24,0-4.03,1.79-4.03,4.03v16.43c0,2.24,1.79,4.03,4.03,4.03h24.79c2.24,0,4.03-1.79,4.03-4.03v-16.43c0-2.24-1.79-4.03-4.03-4.03h-1.79v-4.78h29.27c3.58,0,6.42-2.84,6.42-6.42,0,0,0-53.31,0-53.31ZM29.59,49.9h89.59v8.36H29.59s0-8.36,0-8.36ZM33.02,37.66h82.72c1.94,0,3.43,1.49,3.43,3.43v5.67H29.59v-5.67c0-1.94,1.49-3.43,3.43-3.43ZM89.47,109.78v16.43c0,.6-.45,1.05-1.05,1.05h-24.94c-.6,0-1.05-.45-1.05-1.05v-16.43c0-.6.45-1.05,1.05-1.05h24.79c.6,0,1.19.45,1.19,1.05ZM68.26,105.75v-7.17c0-4.18,3.43-7.62,7.62-7.62s7.62,3.43,7.62,7.62v7.17h-15.23ZM115.75,97.83h-29.27c-.3-5.52-4.93-10-10.6-10s-10.3,4.48-10.6,10h-32.25c-1.94,0-3.43-1.49-3.43-3.43v-33.15h89.59v33.15c0,1.94-1.49,3.43-3.43,3.43Z"/><path class="cls-1" d="M103.05,71.25c-1.64,0-3.14.45-4.48,1.34-1.34-.9-2.84-1.34-4.48-1.34-4.63,0-8.21,3.73-8.21,8.21s3.73,8.21,8.21,8.21c1.64,0,3.29-.45,4.48-1.34,1.34.9,2.84,1.34,4.48,1.34,1.19,0,2.24-.3,3.43-.75,2.99-1.34,4.93-4.18,4.93-7.62-.15-4.33-3.73-8.06-8.36-8.06ZM88.72,79.62c0-2.84,2.39-5.23,5.23-5.23s5.23,2.39,5.23,5.23c0,2.99-2.39,5.23-5.23,5.23s-5.23-2.39-5.23-5.23ZM105.15,84.39c-1.19.6-2.84.75-4.48-.15.9-1.34,1.49-2.99,1.49-4.78s-.6-3.43-1.49-4.78c.75-.3,1.49-.6,2.24-.6,2.84,0,5.23,2.39,5.23,5.23.15,2.39-1.05,4.18-2.99,5.08ZM39,76.33h29.71c.9,0,1.49-.6,1.49-1.49s-.6-1.49-1.49-1.49h-29.71c-.9,0-1.49.6-1.49,1.49,0,.75.6,1.49,1.49,1.49ZM81.1,82.75h-42.11c-.9,0-1.49.6-1.49,1.49s.6,1.49,1.49,1.49h42.26c.9,0,1.49-.6,1.49-1.49-.15-.75-.75-1.49-1.64-1.49ZM75.88,120.83c.9,0,1.49-.6,1.49-1.49v-2.84c0-.9-.6-1.49-1.49-1.49s-1.49.6-1.49,1.49v2.84c0,.9.75,1.49,1.49,1.49Z"/></svg>