<svg id="Layer_1" data-name="Layer 1" xmlns="http://www.w3.org/2000/svg" viewBox="0 0 122.88 106.93"><title>online-card-payment</title><path d="M65.5,6.11A42.76,42.76,0,0,0,55.54,9a48,48,0,0,0-7.63,4.13,43.79,43.79,0,0,0-6.54,5.39h0a44.71,44.71,0,0,0-3.55,4H50.73A100,100,0,0,1,65.5,6.11ZM5.13,53.25H71a5.14,5.14,0,0,1,5.13,5.13V101.8A5.16,5.16,0,0,1,71,106.93H5.13A5.14,5.14,0,0,1,0,101.8V58.38a5.16,5.16,0,0,1,5.13-5.13Zm8,42a1.52,1.52,0,1,1,0-3H28.65a1.52,1.52,0,0,1,0,3Zm0-7.2a1.52,1.52,0,0,1,0-3H36.16a1.52,1.52,0,1,1,0,3Zm37.23-4.81a6.88,6.88,0,0,1,5.53,2.78,6.89,6.89,0,1,1,0,8.22,6.89,6.89,0,1,1-5.53-11ZM3.54,63.85h69V58.38a1.59,1.59,0,0,0-.47-1.12A1.61,1.61,0,0,0,71,56.79H5.13a1.57,1.57,0,0,0-1.59,1.59v5.47Zm69,13.61h-69V101.8A1.6,1.6,0,0,0,4,102.93a1.57,1.57,0,0,0,1.12.47H71a1.6,1.6,0,0,0,1.12-.48,1.52,1.52,0,0,0,.48-1.12V77.46ZM111.49,72h.11a49.14,49.14,0,0,0,2.29-4.66l.06-.13A42,42,0,0,0,116.48,59a43.46,43.46,0,0,0,.79-6.19H104.89A44.35,44.35,0,0,1,99.19,72Zm-3.57,5.53H95.75A82.09,82.09,0,0,1,85.6,89.31V81.39q1.75-1.94,3.29-3.88H85.6V72h7.21a40.34,40.34,0,0,0,6.56-19.2H85.6V50A6.74,6.74,0,0,0,85,47.25H99.25q-1-9.47-7.17-19.21H75.63v15.1H70.1V28H53.65a46.92,46.92,0,0,0-6.5,15.1H41.52A49.81,49.81,0,0,1,47.23,28H34.14a47.86,47.86,0,0,0-2.3,4.65l-.06.13a42.27,42.27,0,0,0-2.53,8.24c-.14.68-.26,1.38-.36,2.08H23.3c.15-1.07.32-2.12.53-3.16a48.73,48.73,0,0,1,2.87-9.32l.07-.15A52.16,52.16,0,0,1,31.39,22a48.9,48.9,0,0,1,6.08-7.38,48.34,48.34,0,0,1,7.38-6.07,52.2,52.2,0,0,1,8.52-4.63A49.11,49.11,0,0,1,72.87,0a50.92,50.92,0,0,1,10,1,47.56,47.56,0,0,1,9.32,2.87l.15.06a52.62,52.62,0,0,1,8.52,4.63A49.29,49.29,0,0,1,114.34,22,53,53,0,0,1,119,30.51,47.78,47.78,0,0,1,121.9,40a51.87,51.87,0,0,1,0,20.07A47.26,47.26,0,0,1,119,69.36l-.06.15A53,53,0,0,1,114.34,78a48.34,48.34,0,0,1-6.07,7.38,48.9,48.9,0,0,1-7.38,6.08,52.16,52.16,0,0,1-8.52,4.62,47.88,47.88,0,0,1-6.77,2.32V92.7A44.09,44.09,0,0,0,90.19,91a47.13,47.13,0,0,0,7.63-4.13,42.69,42.69,0,0,0,6.54-5.39h0a43.36,43.36,0,0,0,3.55-4Zm-3.14-30.26h12.49a43.27,43.27,0,0,0-.79-6.19,42.73,42.73,0,0,0-2.58-8.37A50.26,50.26,0,0,0,111.6,28H98.5a47.34,47.34,0,0,1,6.28,19.21ZM57.58,22.51H70.1V9.38A102.12,102.12,0,0,0,57.58,22.51Zm18,0H88.15A102.12,102.12,0,0,0,75.63,9.38V22.51Zm19.37,0h12.92a44.71,44.71,0,0,0-3.55-4h0a43.29,43.29,0,0,0-6.54-5.39A47.09,47.09,0,0,0,90.19,9l-.14-.06A42,42,0,0,0,81.82,6.4c-.52-.11-1-.2-1.59-.29A100,100,0,0,1,95,22.51Z"/></svg>