<svg xmlns="http://www.w3.org/2000/svg" width="60" height="60" viewBox="0 0 60 60">
  <g id="Group_523" data-name="Group 523" transform="translate(-652 -4270)">
    <circle id="Ellipse_14" data-name="Ellipse 14" cx="30" cy="30" r="30" transform="translate(652 4270)" fill="#fff2e8"/>
    <g id="analytics-svgrepo-com" transform="translate(612.141 4283.936)">
      <g id="Group_8353" data-name="Group 8353" transform="translate(57.192)">
        <g id="Group_8352" data-name="Group 8352">
          <path id="Path_9205" data-name="Path 9205" d="M79.579,0H59.755a2.566,2.566,0,0,0-2.563,2.563v27a2.566,2.566,0,0,0,2.563,2.563H79.579a2.566,2.566,0,0,0,2.563-2.563v-27A2.566,2.566,0,0,0,79.579,0ZM65.395,1.025H73.94V2.051H65.395Zm0,2.051H73.94v1.2a.513.513,0,0,1-.513.513H65.908a.513.513,0,0,1-.513-.513Zm.513,2.734h7.519a1.54,1.54,0,0,0,1.538-1.538v-1.2h4.1V22.9H73.427a.513.513,0,0,0-.513.513v5.639H60.268V3.076h4.1v1.2A1.54,1.54,0,0,0,65.908,5.81ZM78.341,23.925l-4.4,4.4v-4.4Zm2.776,5.639A1.54,1.54,0,0,1,79.579,31.1H59.755a1.54,1.54,0,0,1-1.538-1.538v-27a1.54,1.54,0,0,1,1.538-1.538H64.37V2.051H59.755a.513.513,0,0,0-.513.513v27a.513.513,0,0,0,.513.513H73.427a.513.513,0,0,0,.363-.15l6.152-6.152a.513.513,0,0,0,.15-.363V2.563a.513.513,0,0,0-.513-.513H74.965V1.025h4.614a1.54,1.54,0,0,1,1.538,1.538v27Z" transform="translate(-57.192)" fill="#f48120"/>
        </g>
      </g>
      <g id="Group_8355" data-name="Group 8355" transform="translate(63.344 7.519)">
        <g id="Group_8354" data-name="Group 8354">
          <path id="Path_9206" data-name="Path 9206" d="M167.368,129.4H167.2v-9.057a.513.513,0,0,0-.513-.513h-2.051a.513.513,0,0,0-.513.513v7.519a.513.513,0,1,0,1.025,0v-7.007h1.025V129.4H163.1v-7.007a.513.513,0,0,0-.513-.513h-2.051a.513.513,0,0,0-.513.513v5.469a.513.513,0,1,0,1.025,0v-4.956h1.025V129.4h-3.076v-4.956a.513.513,0,0,0-.513-.513H156.43a.513.513,0,0,0-.513.513v3.418a.513.513,0,1,0,1.025,0v-2.905h1.025V129.4h-2.222a.513.513,0,0,0,0,1.025h11.621a.513.513,0,0,0,0-1.025Z" transform="translate(-155.234 -119.83)" fill="#f48120"/>
        </g>
      </g>
      <g id="Group_8357" data-name="Group 8357" transform="translate(63.344 22.9)">
        <g id="Group_8356" data-name="Group 8356">
          <path id="Path_9207" data-name="Path 9207" d="M159.763,364.936h-4.016a.513.513,0,0,0,0,1.025h4.016a.513.513,0,0,0,0-1.025Z" transform="translate(-155.234 -364.936)" fill="#f48120"/>
        </g>
      </g>
      <g id="Group_8359" data-name="Group 8359" transform="translate(63.344 19.995)">
        <g id="Group_8358" data-name="Group 8358">
          <path id="Path_9208" data-name="Path 9208" d="M163.779,318.638h-8.032a.513.513,0,1,0,0,1.025h8.032a.513.513,0,0,0,0-1.025Z" transform="translate(-155.234 -318.638)" fill="#f48120"/>
        </g>
      </g>
    </g>
  </g>
</svg>
