<svg width="55" height="55" viewBox="0 0 55 55" fill="none" xmlns="http://www.w3.org/2000/svg">
<circle cx="27.5" cy="27.5" r="27.5" fill="#F4F4F4"/>
<path d="M38.4679 19.8138C37.972 19.4192 37.4519 19.0518 36.9122 18.7147L35.7391 20.7466C35.5803 21.0233 35.2266 21.1185 34.9499 20.9598C34.6732 20.801 34.578 20.4473 34.7367 20.1706L35.9114 18.1357C35.2508 17.7834 34.5644 17.4735 33.8553 17.2104C32.2029 16.5997 30.428 16.2383 28.5774 16.1748V18.5182C28.5774 18.8387 28.3174 19.0987 27.9969 19.0987C27.6764 19.0987 27.4163 18.8387 27.4163 18.5182V16.1748C24.7722 16.264 22.282 16.964 20.0841 18.1372L21.2572 20.1676C21.4175 20.4442 21.3238 20.7995 21.0471 20.9583C20.7704 21.1185 20.4152 21.0248 20.2564 20.7481L19.0832 18.7162C17.9977 19.395 16.9939 20.1948 16.0943 21.0958C15.1933 21.9969 14.395 22.9992 13.7147 24.0847L15.7466 25.2579C16.0233 25.4182 16.117 25.7719 15.9568 26.0486C15.7965 26.3253 15.4428 26.419 15.1661 26.2587L13.1357 25.0856C11.9625 27.2838 11.264 29.7737 11.1733 32.4178H13.5167C13.8372 32.4178 14.0972 32.6779 14.0972 32.9984C14.0972 33.3189 13.8372 33.5789 13.5167 33.5789H10.5837C10.2632 33.5789 10.0032 33.3189 10.0032 32.9984C10.0032 28.0289 12.0184 23.5297 15.2749 20.2717C18.5283 17.0183 23.0217 15.0046 27.9849 15H28.0182C30.2149 15.0015 32.3177 15.3976 34.2637 16.1187C36.1262 16.8127 37.8437 17.8044 39.3585 19.0366C40.2974 18.2126 41.0699 17.6956 42.1856 18.8128C43.2999 19.9271 42.7843 20.7011 41.9619 21.64C43.1971 23.1564 44.1903 24.8753 44.8813 26.7348C45.6039 28.6851 46 30.7955 46 32.9969C46 33.3175 45.74 33.5775 45.4195 33.5775H42.4865C42.166 33.5775 41.906 33.3175 41.906 32.9969C41.906 32.6764 42.166 32.4164 42.4865 32.4164H44.8299C44.7679 30.5659 44.405 28.791 43.7927 27.1385C43.5297 26.4295 43.2197 25.7431 42.869 25.0839L40.8371 26.2571C40.5604 26.4173 40.2052 26.3236 40.0464 26.0469C39.8862 25.7703 39.9799 25.415 40.2566 25.2562L42.29 24.0831C41.9528 23.5418 41.5855 23.0233 41.1909 22.5274L31.9022 33.3565L31.7646 33.5061C31.2264 34.0443 30.5068 34.2983 29.7796 34.2923C29.0705 34.2862 28.3479 34.0292 27.784 33.5454L27.6131 33.3897L27.4589 33.2204C26.9736 32.655 26.7151 31.9338 26.7106 31.2232C26.7045 30.496 26.9585 29.7764 27.4967 29.2382L27.6479 29.1006L38.477 19.8119L38.4679 19.8138ZM24.8538 36.9986C24.5333 36.9986 24.2732 36.7386 24.2732 36.4181C24.2732 36.0976 24.5333 35.8376 24.8538 35.8376H31.1399C31.4604 35.8376 31.7204 36.0976 31.7204 36.4181C31.7204 36.7386 31.4604 36.9986 31.1399 36.9986H24.8538ZM39.9146 36.9986C39.5941 36.9986 39.3341 36.7386 39.3341 36.4181C39.3341 36.0976 39.5941 35.8376 39.9146 35.8376H45.4131C45.7336 35.8376 45.9937 36.0976 45.9937 36.4181C45.9937 36.7386 45.7336 36.9986 45.4131 36.9986H39.9146ZM10.5805 36.9986C10.26 36.9986 10 36.7386 10 36.4181C10 36.0976 10.26 35.8376 10.5805 35.8376H16.8667C17.1872 35.8376 17.4472 36.0976 17.4472 36.4181C17.4472 36.7386 17.1872 36.9986 16.8667 36.9986H10.5805ZM40.8671 21.1289C41.3977 20.5348 41.8014 20.0812 41.3584 19.6382C40.917 19.1968 40.4619 19.602 39.8677 20.1311L39.4958 20.4576L28.3916 29.982L28.3084 30.0606C28 30.3691 27.8534 30.7893 27.8579 31.2157C27.8609 31.6586 28.0227 32.1122 28.3281 32.466L28.5291 32.6671C28.8844 32.9709 29.3364 33.1327 29.7809 33.1372C30.2073 33.1402 30.6276 32.9951 30.936 32.6867L31.0146 32.6035L40.539 21.4993L40.8671 21.1274L40.8671 21.1289ZM22.4395 40.7435C22.119 40.7435 21.8589 40.4835 21.8589 40.163C21.8589 39.8425 22.119 39.5824 22.4395 39.5824H33.553C33.8735 39.5824 34.1336 39.8425 34.1336 40.163C34.1336 40.4835 33.8735 40.7435 33.553 40.7435H22.4395Z" fill="#F48102"/>
</svg>
