<svg width="149" height="149" viewBox="0 0 149 149" fill="none" xmlns="http://www.w3.org/2000/svg">
<path d="M74.39 148.78C115.474 148.78 148.78 115.474 148.78 74.39C148.78 33.3055 115.474 0 74.39 0C33.3055 0 0 33.3055 0 74.39C0 115.474 33.3055 148.78 74.39 148.78Z" fill="url(#paint0_linear_29_492)"/>
<path d="M115.83 55.8296C115.659 55.6275 115.412 55.5108 115.152 55.5018C114.887 55.4884 114.636 55.5916 114.452 55.7757L99.2729 70.9544L99.2684 70.9589L99.2639 70.9634C99.2505 70.9769 99.2415 70.9903 99.2325 71.0038C99.2011 71.0352 99.1742 71.0711 99.1472 71.1071C99.1338 71.1295 99.1203 71.1564 99.1068 71.1789C99.0933 71.2103 99.0754 71.2373 99.0619 71.2687C99.0485 71.2956 99.044 71.327 99.035 71.3585C99.026 71.3854 99.017 71.4123 99.008 71.4438C99.0036 71.4752 98.9991 71.5066 98.9991 71.5336C98.9946 71.565 98.9901 71.5919 98.9901 71.6234C98.9901 71.6548 98.9946 71.6817 98.9991 71.7131C99.0036 71.7446 99.0036 71.776 99.008 71.8029C99.0125 71.8344 99.026 71.8703 99.035 71.9017C99.044 71.9286 99.0485 71.9511 99.0574 71.978C99.0754 72.0184 99.0978 72.0588 99.1203 72.0992C99.1293 72.1127 99.1338 72.1262 99.1427 72.1396C99.1427 72.1441 99.1472 72.1441 99.1472 72.1486C102.761 77.7559 104.669 84.2162 104.669 90.8293C104.669 91.35 105.091 91.772 105.612 91.772H127.807C128.328 91.772 128.75 91.35 128.75 90.8293C128.746 77.9939 124.158 65.5675 115.83 55.8296ZM106.532 89.882C106.366 83.4846 104.508 77.2582 101.123 71.7622L115.058 57.827C122.483 66.8598 126.645 78.1684 126.857 89.8774L106.532 89.882ZM112.629 53.7287C112.804 53.5536 112.907 53.3111 112.903 53.0597C112.903 52.8083 112.8 52.5704 112.62 52.3908C103.098 43.0393 90.5271 37.5706 77.216 37.0006C76.9601 36.9916 76.7087 37.0859 76.5246 37.261C76.3405 37.4361 76.2328 37.683 76.2328 37.9389V55.9104V55.9149V55.9194C76.2328 55.9822 76.2373 56.0406 76.2508 56.099C76.2552 56.1259 76.2642 56.1483 76.2732 56.1753C76.2822 56.2067 76.2912 56.2426 76.3046 56.274C76.3181 56.3055 76.3361 56.3324 76.3495 56.3593C76.363 56.3863 76.3765 56.4087 76.3899 56.4357C76.4079 56.4626 76.4258 56.4806 76.4483 56.5075C76.4663 56.5299 76.4842 56.5569 76.5067 56.5793C76.5291 56.6018 76.5516 56.6152 76.5695 56.6332C76.5964 56.6556 76.6189 56.6781 76.6458 56.6961C76.6728 56.714 76.7042 56.7275 76.7356 56.7454C76.7581 56.7589 76.7805 56.7724 76.8075 56.7858C76.8613 56.8083 76.9197 56.8262 76.9825 56.8397H76.987H76.9915C84.435 58.3886 91.2773 62.4605 96.2916 68.3237C96.3365 68.409 96.3904 68.4898 96.4622 68.5616C96.6463 68.7457 96.8887 68.8355 97.1267 68.8355C97.3467 68.8355 97.5622 68.7547 97.7417 68.6021C97.7462 68.5976 97.7552 68.5931 97.7597 68.5886C97.7642 68.5841 97.7642 68.5841 97.7687 68.5796C97.7776 68.5706 97.7866 68.5661 97.7956 68.5572L112.629 53.7287ZM78.1237 55.1653V38.9361C90.2856 39.6858 101.76 44.6781 110.622 53.0781L97.1986 66.5019C92.139 60.8407 85.4229 56.8497 78.1226 55.1661L78.1237 55.1653ZM35.4377 55.9554C35.2806 55.695 35.0112 55.5289 34.7104 55.502C34.4096 55.475 34.1133 55.5963 33.9158 55.8297C25.5879 65.5673 21 77.9939 21 90.8246C21 91.3454 21.422 91.7674 21.9428 91.7674H34.3241C34.8449 91.7674 35.2669 91.3454 35.2669 90.8246C35.2669 82.7706 37.7316 75.4344 42.3916 69.5764C42.4231 69.563 42.459 69.5495 42.4904 69.5315C42.9349 69.2667 43.0785 68.6875 42.8136 68.2431L35.4377 55.9554ZM33.3951 89.8826H22.8898C23.1008 78.2724 27.1952 67.0542 34.5034 58.0575L40.8022 68.5448C36.1287 74.4888 33.5791 81.8329 33.3951 89.8826ZM72.2424 56.1979C72.3277 56.2024 72.413 56.2069 72.4983 56.2159H72.5298C72.5387 56.2159 72.5522 56.2204 72.5612 56.2204C72.5836 56.2204 72.6016 56.2159 72.6195 56.2159C72.651 56.2114 72.6869 56.2114 72.7183 56.2069C72.7497 56.2024 72.7767 56.1934 72.8036 56.1844C72.835 56.1755 72.862 56.1665 72.8934 56.1575C72.9203 56.1485 72.9518 56.1351 72.9787 56.1171C73.0056 56.1036 73.0326 56.0902 73.055 56.0767C73.082 56.0587 73.1044 56.0408 73.1313 56.0228C73.1538 56.0049 73.1762 55.9869 73.1987 55.9645C73.2211 55.942 73.2436 55.9196 73.2615 55.8971C73.284 55.8747 73.3019 55.8522 73.3199 55.8298C73.3379 55.8073 73.3513 55.7804 73.3693 55.7535C73.3827 55.7265 73.4007 55.6996 73.4142 55.6726C73.4276 55.6457 73.4366 55.6143 73.4456 55.5873C73.4546 55.5604 73.468 55.529 73.4725 55.4976C73.4815 55.4661 73.486 55.4347 73.4905 55.4033C73.495 55.3808 73.4995 55.3629 73.4995 55.3404V55.309C73.4995 55.3 73.504 55.2866 73.504 55.2776V37.9485V37.9171C73.4995 37.8138 73.4815 37.7106 73.4456 37.6163V37.6118C73.3962 37.4726 73.3109 37.3514 73.2077 37.2526C73.1089 37.1628 72.9967 37.0955 72.8665 37.0506H72.862C72.7677 37.0192 72.6689 37.0012 72.5657 37.0012H72.5208C59.2142 37.5714 46.6432 43.0395 37.1259 52.3914C36.8161 52.6967 36.7533 53.1726 36.9777 53.5452L44.2911 65.7611C44.2911 65.7611 44.2911 65.7656 44.2955 65.7656L44.3 65.7701C44.4751 66.0664 44.7894 66.228 45.1081 66.228C45.2742 66.228 45.4403 66.1831 45.5885 66.0933C45.6828 66.0349 45.7591 65.9631 45.8264 65.8868C52.6054 59.6465 61.985 56.2069 72.2424 56.1979ZM71.6229 38.9355V54.3257C61.5082 54.4649 52.2377 57.8141 45.3143 63.8208L38.9708 53.2212C47.8554 44.7362 59.3898 39.6906 71.6229 38.9355ZM64.4622 73.3431C64.4353 73.3296 64.4038 73.3207 64.3769 73.3117C64.2467 73.2713 64.1165 73.2668 63.9863 73.2802C63.8561 73.2982 63.7304 73.3431 63.6137 73.4149C63.5912 73.4284 63.5643 73.4464 63.5419 73.4643L50.4456 83.0358C50.0281 83.341 49.9338 83.9292 50.2391 84.3511C50.4232 84.6025 50.7105 84.7372 50.9978 84.7372C51.1909 84.7372 51.3839 84.6789 51.55 84.5576L64.2417 75.278L70.7918 77.8055C70.8232 77.819 70.8591 77.8325 70.895 77.8415C71.0252 77.8774 71.1599 77.8863 71.2901 77.8639C71.4203 77.8459 71.546 77.7966 71.6627 77.7247C71.6942 77.7068 71.7211 77.6843 71.748 77.6619L79.7437 71.3632L80.7987 72.5259C80.9783 72.7234 81.2342 72.8357 81.4946 72.8357C81.5619 72.8357 81.6293 72.8267 81.6921 72.8132C82.0198 72.7414 82.2847 72.499 82.388 72.1802L83.883 67.5202C83.9862 67.2014 83.9099 66.8512 83.6854 66.5998C83.461 66.3529 83.1198 66.2407 82.792 66.3125L78.0107 67.3451C77.683 67.4169 77.4181 67.6594 77.3149 67.9781C77.2116 68.2968 77.2879 68.647 77.5124 68.8984L78.4776 69.9624L70.9893 75.8615L64.4622 73.3431ZM81.6028 68.4945L81.1045 70.0523L80.0046 68.8402L81.6028 68.4945ZM49.0455 93.2181C48.5248 93.2181 48.1028 93.6401 48.1028 94.1609V103.813C48.1028 104.334 48.5248 104.756 49.0455 104.756L57.6339 104.751C58.1547 104.751 58.5767 104.329 58.5767 103.809V94.1609C58.5767 93.6401 58.1547 93.2181 57.6339 93.2181H49.0455ZM56.691 102.87H49.9838V95.0991H56.691V102.87ZM65.6744 86.0527C65.1536 86.0527 64.7316 86.4747 64.7316 86.9955V103.813C64.7316 104.334 65.1536 104.756 65.6744 104.756H74.2627C74.7835 104.756 75.2055 104.334 75.2055 103.813L75.201 86.9955C75.201 86.4747 74.779 86.0527 74.2582 86.0527H65.6744ZM73.3198 102.87H66.6126V87.9387H73.3198V102.87ZM90.8868 78.6903H82.2985C81.7777 78.6903 81.3557 79.1123 81.3557 79.6331V103.818C81.3557 104.338 81.7777 104.76 82.2985 104.76H90.8868C91.4076 104.76 91.8296 104.338 91.8296 103.818V79.6331C91.8251 79.1078 91.4031 78.6903 90.8868 78.6903ZM89.944 102.87H83.2369V80.5717H89.944V102.87ZM91.8251 109.937C91.8251 110.457 91.4031 110.879 90.8823 110.879H49.0456C48.5249 110.879 48.1028 110.457 48.1028 109.937C48.1028 109.416 48.5249 108.994 49.0456 108.994H90.8823C91.4031 108.998 91.8251 109.416 91.8251 109.937Z" fill="white"/>
<defs>
<linearGradient id="paint0_linear_29_492" x1="148.78" y1="74.39" x2="0" y2="74.39" gradientUnits="userSpaceOnUse">
<stop stop-color="#3B3B3B"/>
<stop offset="1" stop-color="#191919"/>
</linearGradient>
</defs>
</svg>
