<svg xmlns="http://www.w3.org/2000/svg" width="60" height="60" viewBox="0 0 60 60">
  <g id="performance" transform="translate(-400 -2783)">
    <circle id="Ellipse_14" data-name="Ellipse 14" cx="30" cy="30" r="30" transform="translate(400 2783)" fill="#fff2e8"/>
    <g id="My_performance" transform="translate(392.4 2786.975)">
      <g id="Group_8412" data-name="Group 8412" transform="translate(23.6 10.025)">
        <path id="Path_9360" data-name="Path 9360" d="M183.671,116.57h-6.188a.588.588,0,0,1-.583-.583v-18.6a.588.588,0,0,1,.583-.583h6.188a.588.588,0,0,1,.583.583v18.6a.588.588,0,0,1-.583.583Zm-5.6-1.166H183.1V97.966h-5.035V115.4Z" transform="translate(-156.587 -85.302)" fill="#f48120"/>
        <path id="Path_9361" data-name="Path 9361" d="M107.071,168.706h-6.188a.588.588,0,0,1-.583-.583v-10.64a.588.588,0,0,1,.583-.583h6.188a.588.588,0,0,1,.583.583v10.64a.6.6,0,0,1-.583.583Zm-5.618-1.166h5.035v-9.474h-5.035v9.474Z" transform="translate(-90.137 -137.438)" fill="#f48120"/>
        <path id="Path_9362" data-name="Path 9362" d="M30.371,206.529H24.183a.588.588,0,0,1-.583-.583v-4.863a.588.588,0,0,1,.583-.583h6.188a.588.588,0,0,1,.583.583v4.863a.588.588,0,0,1-.583.583Zm-5.6-1.166H29.8v-3.71H24.766v3.71Z" transform="translate(-23.6 -175.261)" fill="#f48120"/>
        <path id="Path_9363" data-name="Path 9363" d="M164.9,20.172a.572.572,0,0,1-.411-.172.584.584,0,0,1,0-.822l4.081-4.081-4.081-4.081a.581.581,0,0,1,.822-.822l4.492,4.492a.584.584,0,0,1,0,.822L165.315,20a.572.572,0,0,1-.411.172Z" transform="translate(-145.678 -10.025)" fill="#f48120"/>
        <path id="Path_9364" data-name="Path 9364" d="M49.614,60.158a.258.258,0,0,1-.106-.013.591.591,0,0,1-.464-.676A19.19,19.19,0,0,1,67.78,43.9a.583.583,0,0,1,0,1.166A17.988,17.988,0,0,0,50.2,59.694a.6.6,0,0,1-.583.464Z" transform="translate(-45.665 -39.411)" fill="#f48120"/>
      </g>
    </g>
  </g>
</svg>
