<svg xmlns="http://www.w3.org/2000/svg" width="60" height="60" viewBox="0 0 60 60">
  <g id="Group_529" data-name="Group 529" transform="translate(-678 -5975)">
    <circle id="Ellipse_14" data-name="Ellipse 14" cx="30" cy="30" r="30" transform="translate(678 5975)" fill="#fff2e8"/>
    <g id="learning-head-book-education-svgrepo-com" transform="translate(691 5989)">
      <line id="Line_49" data-name="Line 49" y2="5" transform="translate(23 24)" fill="none" stroke="#f48120" stroke-linecap="round" stroke-linejoin="round" stroke-miterlimit="10" stroke-width="2"/>
      <path id="Path_9201" data-name="Path 9201" d="M10,21V10A2.946,2.946,0,0,0,7,7H1V18H7a2.946,2.946,0,0,1,3,3h0" fill="none" stroke="#f48120" stroke-linecap="round" stroke-linejoin="round" stroke-miterlimit="10" stroke-width="2"/>
      <path id="Path_9202" data-name="Path 9202" d="M10,21V10a2.946,2.946,0,0,1,3-3h6V18H13a2.946,2.946,0,0,0-3,3h0" fill="none" stroke="#f48120" stroke-linecap="round" stroke-linejoin="round" stroke-miterlimit="10" stroke-width="2"/>
      <path id="Path_9203" data-name="Path 9203" d="M12.2,18.1c.3.3.5.6.8.9v8" fill="none" stroke="#f48120" stroke-linecap="round" stroke-linejoin="round" stroke-miterlimit="10" stroke-width="2"/>
      <path id="Path_9204" data-name="Path 9204" d="M22,24h4a2.006,2.006,0,0,0,2-2V18h3l-3-6A9,9,0,0,0,11.1,7.7" fill="none" stroke="#f48120" stroke-linecap="round" stroke-linejoin="round" stroke-miterlimit="10" stroke-width="2"/>
    </g>
  </g>
</svg>
