<svg xmlns="http://www.w3.org/2000/svg" width="60" height="60" viewBox="0 0 60 60">
  <g id="personilized" transform="translate(-323 -2860)">
    <circle id="Ellipse_14" data-name="Ellipse 14" cx="30" cy="30" r="30" transform="translate(323 2860)" fill="#fff2e8"/>
    <g id="gears" transform="translate(325.963 2867.925)">
      <g id="Group_8410" data-name="Group 8410" transform="translate(10.037 4.075)">
        <g id="Group_8409" data-name="Group 8409" transform="translate(0 0)">
          <path id="Path_9352" data-name="Path 9352" d="M99.452,4.179a2.926,2.926,0,0,0-1.87,2.1c-.029.186-.086.314-.157.328s-.357.143-.657.271l-.542.228-.257-.171a2.847,2.847,0,0,0-3.9,3.968l.143.186-.271.657-.257.657-.457.114a2.819,2.819,0,0,0-1.213,4.753,3.18,3.18,0,0,0,1.413.757c.257.043.271.057.514.685l.257.642-.243.443a2.8,2.8,0,0,0,2.684,4.154,3.3,3.3,0,0,0,1.427-.471l.171-.143.285.143c.157.071.443.2.657.285.357.128.385.157.414.428a2.747,2.747,0,0,0,1.185,1.756,2.556,2.556,0,0,0,1.713.457,2.175,2.175,0,0,0,1.085-.243,2.775,2.775,0,0,0,1.556-1.97c.029-.271.057-.3.414-.428a4.761,4.761,0,0,0,.657-.285l.285-.143.171.143a3.239,3.239,0,0,0,1.427.471,2.807,2.807,0,0,0,2.684-4.154l-.243-.443.257-.642c.257-.614.271-.642.514-.685a3.079,3.079,0,0,0,1.456-.8,2.812,2.812,0,0,0-1.213-4.682l-.514-.143-.257-.642-.257-.642.143-.2a2.866,2.866,0,0,0,.2-2.784,2.909,2.909,0,0,0-4.1-1.185l-.257.171-.642-.271-.642-.271-.071-.343a2.893,2.893,0,0,0-1.556-1.913,1.942,1.942,0,0,0-1.085-.243A2.967,2.967,0,0,0,99.452,4.179Zm1.37,1.456a1.732,1.732,0,0,1,.728.614,2.946,2.946,0,0,1,.114.685c.057.685.171.814.928,1.056a8.4,8.4,0,0,1,1.213.5c.856.414,1.056.414,1.442,0a1.712,1.712,0,0,1,.485-.385,1.774,1.774,0,0,1,1.156.057,1.356,1.356,0,0,1,.571,1.784c-.086.171-.171.314-.214.314-.114,0-.414.371-.457.571-.029.157.014.343.285.856a13.082,13.082,0,0,1,.542,1.3c.271.814.4.914,1.042.942a1.232,1.232,0,0,1,.985.371,1.109,1.109,0,0,1,.4.956,1.328,1.328,0,0,1-1.5,1.342c-.528,0-.685.143-.9.871a11.125,11.125,0,0,1-.542,1.3c-.328.671-.357.728-.285.971a.982.982,0,0,0,.328.457,1.132,1.132,0,0,1,.443.971,1.233,1.233,0,0,1-.956,1.256,1.278,1.278,0,0,1-1.342-.357c-.357-.457-.642-.471-1.427-.057a10.681,10.681,0,0,1-1.2.5c-.828.257-1,.443-1,1.013a1.254,1.254,0,0,1-.443,1.1,1.3,1.3,0,0,1-2-.243,1.693,1.693,0,0,1-.214-.8c-.057-.7-.143-.8-.985-1.056a9.319,9.319,0,0,1-1.2-.5c-.785-.4-.942-.4-1.313-.029a1.337,1.337,0,0,1-1.1.514,1.285,1.285,0,0,1-1.313-1.17,1.128,1.128,0,0,1,.414-1.1.93.93,0,0,0,.343-.485c.071-.243.057-.3-.271-.971a11.122,11.122,0,0,1-.542-1.3,2.62,2.62,0,0,0-.314-.685,1.322,1.322,0,0,0-.7-.171A1.552,1.552,0,0,1,91.2,16.4a1.315,1.315,0,0,1-.571-1.071,1.212,1.212,0,0,1,.328-.942,1.338,1.338,0,0,1,1.085-.428c.614-.029.757-.143,1-.9a9.707,9.707,0,0,1,.528-1.27c.414-.842.4-1-.029-1.4a1.253,1.253,0,0,1-.471-1.028,1.269,1.269,0,0,1,1.313-1.285,1.227,1.227,0,0,1,1.042.457c.4.414.614.414,1.427,0a10.679,10.679,0,0,1,1.2-.5c.771-.243.942-.414.942-1.013a1.318,1.318,0,0,1,.885-1.342A1.009,1.009,0,0,1,100.822,5.635Z" transform="translate(-77.86 -4.075)" fill="#f48120" stroke="#fff2e8" stroke-width="0.3"/>
          <path id="Path_9353" data-name="Path 9353" d="M146.722,58.832a3.163,3.163,0,0,0-1.656.9,3.342,3.342,0,1,0,5.681,2.37,3.2,3.2,0,0,0-1-2.355,3.09,3.09,0,0,0-1.684-.9A2.263,2.263,0,0,0,146.722,58.832Zm1.27,1.5a1.985,1.985,0,0,1,1.056.885,1.831,1.831,0,0,1-1.627,2.741,1.853,1.853,0,0,1-.742-3.554A2.142,2.142,0,0,1,147.992,60.33Z" transform="translate(-124.93 -50.934)" fill="#f48120" stroke="#fff2e8" stroke-width="0.3"/>
          <path id="Path_9354" data-name="Path 9354" d="M19.809,131.722a2.644,2.644,0,0,0-1.427,1.085c-.071.186-.114.214-.557.257s-.471.043-.728-.2a2.426,2.426,0,0,0-2.684-.385,2.366,2.366,0,0,0-1.256,2.5c.086.457.071.471-.228.856-.186.228-.243.257-.642.285a2.718,2.718,0,0,0-1.456.614,2.343,2.343,0,0,0-.571,2.755,2.8,2.8,0,0,0,.942,1.042c.157.086.2.157.257.528l.057.443-.257.285a2.354,2.354,0,0,0,.642,3.726,2.33,2.33,0,0,0,1.527.228c.357-.071.371-.071.7.171s.328.271.371.685a2.592,2.592,0,0,0,1.527,2.127,2.392,2.392,0,0,0,2.784-.885c.228-.343.228-.343.671-.385s.457-.043.7.2a3.643,3.643,0,0,0,.671.443,2.351,2.351,0,0,0,3.255-2.669c-.071-.314-.071-.328.171-.6a2.643,2.643,0,0,0,.243-.328,1.093,1.093,0,0,1,.471-.086,2.361,2.361,0,0,0,1.2-4.311c-.328-.2-.328-.214-.371-.628s-.029-.443.2-.685a3.463,3.463,0,0,0,.428-.628,1.636,1.636,0,0,0,.2-1,1.944,1.944,0,0,0-.6-1.6,2.37,2.37,0,0,0-2.17-.728l-.4.071-.343-.271-.343-.271-.029-.485a2.328,2.328,0,0,0-2.213-2.17A1.8,1.8,0,0,0,19.809,131.722Zm.9,1.47a.977.977,0,0,1,.385.3c.143.186.157.243.114.785-.057.7,0,.8.557,1.171a6.2,6.2,0,0,1,.842.657c.4.371.485.414.742.414a1.124,1.124,0,0,0,.528-.143.861.861,0,1,1,.842,1.5.9.9,0,0,0-.542.642,4.7,4.7,0,0,0,.1.628,5.762,5.762,0,0,1,.1.985c0,.614.128.8.728,1.071.328.157.457.243.542.443a.862.862,0,0,1-.014.871.84.84,0,0,1-.956.371c-.657-.171-.8-.1-1.256.571a4.592,4.592,0,0,1-.6.742c-.5.471-.557.757-.271,1.313.171.328.171.385.1.628a.83.83,0,0,1-.842.628.854.854,0,0,1-.828-.557c-.214-.414-.371-.471-1.213-.328A7.613,7.613,0,0,1,18.7,146a.885.885,0,0,0-.9.528c-.214.485-.3.614-.542.742a.7.7,0,0,1-.742.029.908.908,0,0,1-.428-1.185c.114-.428-.014-.7-.542-1.028a7.84,7.84,0,0,1-.871-.685c-.4-.357-.514-.414-.742-.414a.825.825,0,0,0-.457.143.867.867,0,1,1-.856-1.5c.443-.186.571-.571.4-1.256-.029-.157-.086-.571-.114-.9-.057-.728-.143-.871-.7-1.128-.485-.214-.657-.443-.657-.871a.832.832,0,0,1,1.071-.828,1.047,1.047,0,0,0,.856-.057,3.4,3.4,0,0,0,.4-.514,7.674,7.674,0,0,1,.628-.8c.471-.528.528-.728.285-1.171a.867.867,0,1,1,1.485-.871c.2.428.428.514,1.128.4.3-.043.785-.114,1.113-.143.5-.043.6-.071.785-.257a.959.959,0,0,0,.271-.443.887.887,0,0,1,.6-.628A.529.529,0,0,1,20.709,133.193Z" transform="translate(-10.037 -113.462)" fill="#f48120" stroke="#fff2e8" stroke-width="0.3"/>
          <path id="Path_9355" data-name="Path 9355" d="M52.816,172.569a2.867,2.867,0,0,0-1.87,1.841,3.013,3.013,0,0,0,.128,1.97,2.867,2.867,0,0,0,2.113,1.6,2.827,2.827,0,0,0,3.169-2.327,2.868,2.868,0,0,0-1.6-2.969,2.054,2.054,0,0,0-1.028-.2A3.126,3.126,0,0,0,52.816,172.569Zm1.356,1.5a1.175,1.175,0,0,1,.714,1.213,1.292,1.292,0,0,1-2.355.657,1.324,1.324,0,0,1,0-1.427A1.307,1.307,0,0,1,54.172,174.068Z" transform="translate(-45.013 -148.442)" fill="#f48120" stroke="#fff2e8" stroke-width="0.3"/>
        </g>
      </g>
    </g>
  </g>
</svg>
