<?xml version="1.0" encoding="UTF-8"?><svg id="Layer_1" xmlns="http://www.w3.org/2000/svg" viewBox="0 0 400 400"><path d="M300.95,225.86v4.97c0,41.82,0,83.64,0,125.47,0,20.84-13.27,34.07-34.14,34.07-44.86,0-89.71,0-134.57,0-20.6,0-33.93-13.31-33.94-33.87-.01-37.6,0-75.2,0-112.8,0-1.57,0-3.15,0-5.32-3.26,0-6.37.03-9.47,0-4.53-.06-6.41-1.57-7.55-5.95-.17-.64-.28-1.29-.42-1.93q-2.63-12.64-14.71-17.5c-.98-.39-2.57-.18-3.51.37-3.75,2.19-7.38,4.61-11.03,6.98-3.39,2.2-6.42,1.79-9.24-1.07-4.54-4.6-9.12-9.16-13.72-13.71-2.87-2.84-3.16-5.88-.94-9.25,2.1-3.19,4.13-6.44,6.19-9.66.43-.67.91-1.31,1.25-2.02,1.04-2.19-4.91-14.67-7.29-15.24-4.23-1.01-8.47-1.95-12.71-2.9-3.79-.85-5.53-3.26-5.53-7.07.01-6.46.02-12.93,0-19.39-.01-4.03,1.92-6.37,5.89-7.19,4-.82,8.03-1.59,11.91-2.81,1.43-.45,2.66-2,3.64-3.3.77-1.01.78-2.58,1.53-3.61,3.9-5.38,2.11-9.74-1.38-14.72-7.03-10.03-6.74-10.23,1.96-18.98,3.07-3.09,6.17-6.15,9.2-9.27,2.81-2.89,5.83-3.29,9.23-1.08,3.54,2.3,7.02,4.7,10.72,6.72,1.22.67,3.06.53,4.55.3,1.25-.19,2.35-1.35,3.59-1.55,6.74-1.08,9.09-5.54,9.61-11.73.2-2.34.86-4.67,1.54-6.94,1.02-3.44,4.05-5.34,7.2-4.71,3.26.65,5.6,3.54,4.98,7-1.23,6.87-2.6,13.74-4.46,20.45-.48,1.74-2.81,3.37-4.67,4.24-5.46,2.57-11.16,4.62-16.66,7.12-2.81,1.28-5.28,1.29-7.83-.37-2.76-1.8-5.73-3.33-8.27-5.4-2.72-2.21-4.49-1.62-6.53.83-1.33,1.6-3.14,2.79-5.01,4.4,2.64,4.11,4.86,7.8,7.32,11.32,2.21,3.18,2.2,6.08.45,9.57-2.41,4.8-4.43,9.83-6.18,14.91-1.21,3.51-3.17,5.55-6.82,6.25-4.24.81-8.43,1.88-12.71,2.85v10.73c4.49,1.04,8.92,2.17,13.4,3.08,3.23.66,4.84,2.62,5.95,5.6,2.02,5.41,4.24,10.75,6.67,15.99,1.36,2.93,1.47,5.49-.32,8.19-2.04,3.08-3.9,6.27-6.02,9.29-1.21,1.72-1.06,2.82.42,4.37,5.66,5.89,5.59,5.95,12.28,1.68.56-.35,1.16-.65,1.65-1.09,4.93-4.4,9.79-4.43,15.38-.75,3.33,2.19,7.43,3.39,11.33,4.47,4.07,1.13,6.32,3.35,7,7.52.66,4.02,1.67,7.98,2.56,12.12h5.34v-37.69c-11.43-.58-21.06-4.79-28.57-13.4-14.6-16.74-11.33-43.65,6.96-55.62,1.8-1.18,4.89-1.57,6.89-.88,1.63.56,3.61,3.41,3.44,5.03-.24,2.26-1.89,4.86-3.72,6.39-6.85,5.73-10.41,12.84-10.07,21.75.51,13.13,11.95,23.99,25.27,23.74,0-1.54,0-3.09,0-4.64,0-41.95,0-83.91,0-125.86,0-20.61,13.3-33.93,33.86-33.94,44.99-.01,89.98-.01,134.97,0,20.54,0,33.82,13.34,33.82,33.98.01,37.6,0,75.2,0,112.8v5.21c3.22,0,6.2-.02,9.18,0,4.94.05,6.85,1.57,7.97,6.43.89,3.85,1.5,7.78,2.62,11.55.4,1.33,1.79,2.61,3.04,3.39,1.65,1.03,3.83,1.23,5.42,2.33,4.14,2.87,7.61,2.03,11.25-.98,2.31-1.92,5.05-3.35,7.62-4.95,2.97-1.85,5.83-1.56,8.3.86,4.91,4.79,9.75,9.65,14.56,14.55,2.58,2.62,2.73,5.56.76,8.63-2.35,3.66-4.82,7.25-6.94,11.04-.63,1.12-.51,2.85-.24,4.21.27,1.38,1.48,2.58,1.71,3.96,1.08,6.55,5.45,8.42,11.42,9.51,12.05,2.22,12,2.53,12,14.85,0,4.22.04,8.44-.01,12.67-.05,4.49-1.56,6.33-5.98,7.49-.64.17-1.28.33-1.92.49-4.19,1.04-9.3.97-12.3,3.45-2.88,2.38-3.68,7.38-5.15,11.31-.37,1-.18,2.56.38,3.5,2.21,3.75,4.65,7.35,7.02,11,2.1,3.23,1.78,6.22-.91,8.95-4.64,4.69-9.3,9.36-13.94,14.04-2.84,2.86-5.89,3.15-9.26.93-3.19-2.1-6.43-4.13-9.65-6.19-.67-.43-1.3-.92-2.01-1.25-2.23-1.04-14.65,4.97-15.19,7.36-.94,4.11-1.74,8.25-2.74,12.34-1.04,4.26-4.1,6.48-7.61,5.71-3.61-.79-5.51-3.91-4.66-8.27,1.17-6.08,2.29-12.19,4.04-18.12.6-2.04,2.69-4.18,4.66-5.16,5.52-2.73,11.24-5.14,17.07-7.12,2.2-.75,5.22-.64,7.35.28,3.47,1.49,6.58,3.86,9.7,6.06,1.77,1.24,2.9,1.03,4.36-.5,1.81-1.89,3.95-3.47,6.09-5.32-2.76-4.31-4.98-8.01-7.44-11.55-2.12-3.05-2.14-5.86-.51-9.22,2.41-4.95,4.5-10.08,6.35-15.27,1.18-3.32,2.99-5.37,6.52-6.03,4.27-.8,8.48-1.86,12.9-2.85v-10.93c-4.22-.93-8.41-1.97-12.66-2.77-3.65-.69-5.6-2.76-6.8-6.26-1.75-5.08-3.77-10.11-6.18-14.91-1.76-3.49-1.78-6.4.46-9.56,1.98-2.79,3.62-5.83,5.61-8.62,1.27-1.78.93-2.86-.52-4.36-5.63-5.83-5.57-5.88-12.28-1.6-1.55.99-3.17,1.91-4.65,3-3.17,2.33-6.13,1.99-9.56.24-4.55-2.32-9.3-4.37-14.17-5.9-4.03-1.27-6.24-3.47-6.94-7.59-.68-4.01-1.68-7.97-2.56-12.05h-5.36v37.53c2.11.32,4.28.61,6.44.97,14.84,2.53,27.18,13.94,30.32,28.73,3.36,15.79-1.55,28.9-14.23,38.89-1.68,1.32-4.37,2.21-6.46,1.99-4.69-.49-6.51-6.5-3.31-10.11.95-1.07,2.21-1.87,3.32-2.8,8.1-6.79,11.1-17.98,7.51-27.97-3.57-9.91-12.88-16.55-23.78-16.58ZM110.96,200.15c0,52.24,0,104.47,0,156.71,0,13.12,7.77,20.83,20.96,20.83,45.11,0,90.23,0,135.34,0,13.38,0,21.01-7.7,21.01-21.19,0-104.08,0-208.16,0-312.24,0-13.67-7.61-21.22-21.36-21.22-44.85,0-89.7,0-134.55,0-13.92,0-21.41,7.55-21.41,21.58,0,51.84,0,103.68,0,155.52Z"/><path d="M332.72,61.08c3.41.06,6.2,2.91,6.2,6.33,0,3.68-3.17,7.02-6.62,6.94-3.58-.07-6-2.64-6.01-6.37,0-4.04,2.72-6.97,6.43-6.91Z"/><path d="M326.29,93.31c0-4.04,2.73-6.97,6.44-6.9,3.4.06,6.19,2.92,6.19,6.34,0,3.68-3.18,7.01-6.63,6.93-3.58-.08-6-2.65-6-6.38Z"/><path d="M326.29,118.46c.08-4,2.93-6.9,6.62-6.72,3.4.16,6.11,3.1,6.01,6.52-.11,3.7-3.37,6.93-6.81,6.74-3.6-.2-5.89-2.77-5.82-6.54Z"/><path d="M60.3,281.81c.09-3.81,2.74-6.63,6.27-6.67,3.55-.03,6.49,3,6.36,6.56-.14,3.76-3.25,6.76-6.85,6.6-3.66-.16-5.87-2.64-5.78-6.49Z"/><path d="M60.3,307.14c.09-3.81,2.74-6.63,6.27-6.66,3.55-.03,6.48,3,6.35,6.56-.14,3.76-3.25,6.76-6.85,6.59-3.63-.17-5.86-2.67-5.78-6.49Z"/><path d="M66.26,338.97c-3.65-.07-5.97-2.54-5.96-6.32.02-3.99,2.81-6.94,6.49-6.84,3.39.09,6.18,2.98,6.15,6.38-.03,3.73-3.11,6.85-6.68,6.78Z"/><path d="M151.5,200.3c6.23,6.22,12.09,12.07,17.94,17.92,1.03,1.02,2.11,2,3.03,3.11,2.45,2.94,2.36,6.45-.16,8.89-2.5,2.43-6,2.45-8.9-.11-1.77-1.57-3.38-3.33-5.05-5.01-6.43-6.43-12.89-12.84-19.28-19.3-3.85-3.89-3.83-6.96.06-10.89,7.8-7.86,15.62-15.69,23.49-23.48,3.34-3.31,7-3.55,9.74-.82,2.74,2.73,2.52,6.42-.78,9.75-6.5,6.54-13.08,13-20.1,19.95Z"/><path d="M247.68,200.15c-6.44-6.36-12.54-12.37-18.63-18.39-.84-.83-1.73-1.64-2.47-2.56-2.25-2.83-2.11-6.21.26-8.59,2.37-2.38,5.98-2.75,8.56-.25,8.78,8.55,17.46,17.21,25.98,26.02,2.57,2.66,2.13,5.97-.41,8.55-8.31,8.46-16.69,16.87-25.18,25.16-2.76,2.69-6.39,2.54-8.89.13-2.6-2.51-2.69-6.26.13-9.17,5.78-5.96,11.72-11.77,17.58-17.65.91-.92,1.77-1.88,3.06-3.25Z"/><path d="M212.27,175.83c-.88,3.48-1.94,7.68-2.99,11.89-3.16,12.63-6.3,25.26-9.49,37.88-1.23,4.87-4.2,7.16-7.92,6.25-3.96-.96-5.51-4.35-4.24-9.46,3.99-16.08,7.98-32.16,12.03-48.22.98-3.87,3.79-5.87,7.11-5.39,3.11.44,5.44,3.11,5.48,7.05Z"/><path d="M199.31,48.38c-5.94,0-11.87.05-17.81-.02-4.37-.05-7.13-2.52-7.18-6.23-.05-3.73,2.7-6.36,7.01-6.39,12.13-.07,24.27-.06,36.41,0,4.38.02,7.13,2.51,7.18,6.23.05,3.84-2.8,6.36-7.41,6.4-6.07.06-12.14.01-18.2.01Z"/></svg>