<?xml version="1.0" encoding="UTF-8"?><svg id="Layer_1" xmlns="http://www.w3.org/2000/svg" viewBox="0 0 60 60"><defs><style>.cls-1{fill:none;}.cls-1,.cls-2{stroke-width:0px;}.cls-2{fill:#f48120;}.cls-3{fill:#fff;stroke:#fff;stroke-miterlimit:10;}</style></defs><circle class="cls-2" cx="30" cy="30" r="30"/><path class="cls-1" d="M45.87,47.05v5.58c0,.73-.64,1.37-1.37,1.37H14.94c-.73,0-1.37-.64-1.37-1.37v-1.19c1.65-2.01,3.02-3.93,4.12-5.76h26.81c.73,0,1.37.64,1.37,1.37Z"/><path class="cls-3" d="M45.04,17.35v-.64h.64c.35,0,.64-.29.64-.64h3.19c.35,0,.64-.29.64-.64s-.29-.64-.64-.64h-3.19v-1.91h3.19c.35,0,.64-.29.64-.64s-.29-.64-.64-.64h-3.19c0-.35-.29-.64-.64-.64h-3.83c-1.41,0-2.55,1.14-2.55,2.55v3.83c0,.35.29.64.64.64v6.38h-.32c-.35,0-.64.29-.64.64v1.28h-.64c-.35,0-.64.29-.64.64v.32h-3.39c-.5-1.02-1.33-1.85-2.35-2.35v-4.39c.56-.15.96-.65.96-1.23v-3.83c0-.7-.57-1.28-1.28-1.28h-3.83c-.7,0-1.28.57-1.28,1.28h0v3.83c0,.58.4,1.09.96,1.23v4.39c-1.02.5-1.85,1.33-2.35,2.35h-3.39v-.32c0-.35-.29-.64-.64-.64h-.64v-1.28c0-.35-.29-.64-.64-.64h-.32v-6.38c.35,0,.64-.29.64-.64v-3.83c0-1.41-1.14-2.55-2.55-2.55h-3.83c-.35,0-.64.29-.64.64h-3.19c-.35,0-.64.29-.64.64s.29.64.64.64h3.19v1.91h-3.19c-.35,0-.64.29-.64.64s.29.64.64.64h3.19c0,.35.29.64.64.64h.64v.64c0,.35.29.64.64.64v6.38h-.32c-.35,0-.64.29-.64.64v1.28h-.64c-.35,0-.64.29-.64.64v.32h-2.87c-.35,0-.64.29-.64.64s.29.64.64.64h2.87v1.91h-2.87c-.35,0-.64.29-.64.64s.29.64.64.64h2.87v.32c0,.35.29.64.64.64h.64v1.28c0,.35.29.64.64.64h.32v6.38c-.35,0-.64.29-.64.64v.64h-.64c-.35,0-.64.29-.64.64h-3.19c-.35,0-.64.29-.64.64s.29.64.64.64h3.19v1.91h-3.19c-.35,0-.64.29-.64.64s.29.64.64.64h3.19c0,.35.29.64.64.64h3.83c1.41,0,2.55-1.14,2.55-2.55v-3.83c0-.35-.29-.64-.64-.64v-6.38h.32c.35,0,.64-.29.64-.64v-1.28h.64c.35,0,.64-.29.64-.64v-.32h3.39c.5,1.02,1.33,1.85,2.35,2.35v5.03c-.56.15-.96.65-.96,1.23v3.83c0,.7.57,1.28,1.28,1.28h3.83c.7,0,1.28-.57,1.28-1.28h0v-3.83c0-.58-.4-1.09-.96-1.23v-5.03c1.02-.5,1.85-1.33,2.35-2.35h3.39v.32c0,.35.29.64.64.64h.64v1.28c0,.35.29.64.64.64h.32v6.38c-.35,0-.64.29-.64.64v3.83c0,1.41,1.14,2.55,2.55,2.55h3.83c.35,0,.64-.29.64-.64h3.19c.35,0,.64-.29.64-.64s-.29-.64-.64-.64h-3.19v-1.91h3.19c.35,0,.64-.29.64-.64s-.29-.64-.64-.64h-3.19c0-.35-.29-.64-.64-.64h-.64v-.64c0-.35-.29-.64-.64-.64v-6.38h.32c.35,0,.64-.29.64-.64v-1.28h.64c.35,0,.64-.29.64-.64v-.32h2.87c.35,0,.64-.29.64-.64s-.29-.64-.64-.64h-2.87v-1.91h2.87c.35,0,.64-.29.64-.64s-.29-.64-.64-.64h-2.87v-.32c0-.35-.29-.64-.64-.64h-.64v-1.28c0-.35-.29-.64-.64-.64h-.32v-6.38c.35,0,.64-.29.64-.64ZM14.4,15.43v-3.19h3.19c.7,0,1.28.57,1.28,1.28h0v3.19h-3.19v-.64c0-.35-.29-.64-.64-.64h-.64ZM18.23,17.99v6.38h-1.91v-6.38h1.91ZM18.87,45.43c0,.7-.57,1.28-1.28,1.28h-3.19v-3.19h.64c.35,0,.64-.29.64-.64v-.64h3.19v3.19ZM16.32,40.97v-6.38h1.91v6.38h-1.91ZM20.46,31.39h-.64c-.35,0-.64.29-.64.64v1.28h-3.83v-1.28c0-.35-.29-.64-.64-.64h-.64v-3.83h.64c.35,0,.64-.29.64-.64v-1.28h3.83v1.28c0,.35.29.64.64.64h.64v3.83ZM24.71,30.43h-2.96v-1.91h2.96c-.12.63-.12,1.28,0,1.91ZM27.8,15.43h3.83v3.83h-3.83v-3.83ZM30.68,20.54v3.92c-.63-.12-1.28-.12-1.91,0v-3.92h1.91ZM31.63,44.16h-3.83v-3.83h3.83v3.83ZM28.76,39.05v-4.56c.63.12,1.28.12,1.91,0v4.56h-1.91ZM29.72,33.31c-2.12,0-3.83-1.71-3.83-3.83s1.71-3.83,3.83-3.83,3.83,1.71,3.83,3.83c0,2.11-1.72,3.83-3.83,3.83ZM37.7,30.43h-2.96c.12-.63.12-1.28,0-1.91h2.96v1.91ZM45.04,43.52v3.19h-3.19c-.7,0-1.28-.57-1.28-1.28h0v-3.19h3.19v.64c0,.35.29.64.64.64h.64ZM41.21,40.97v-6.38h1.91v6.38h-1.91ZM44.72,27.56h.64v3.83h-.64c-.35,0-.64.29-.64.64v1.28h-3.83v-1.28c0-.35-.29-.64-.64-.64h-.64v-3.83h.64c.35,0,.64-.29.64-.64v-1.28h3.83v1.28c0,.35.29.64.64.64ZM41.21,24.37v-6.38h1.91v6.38h-1.91ZM43.76,16.07v.64h-3.19v-3.19c0-.7.57-1.28,1.28-1.28h3.19v3.19h-.64c-.35,0-.64.29-.64.64Z"/></svg>