<?xml version="1.0" encoding="UTF-8"?><svg id="Layer_1" xmlns="http://www.w3.org/2000/svg" xmlns:xlink="http://www.w3.org/1999/xlink" viewBox="0 0 60 60"><defs><style>.cls-1{fill:url(#linear-gradient);}.cls-1,.cls-2{stroke-width:0px;}.cls-2{fill:#fff;}</style><linearGradient id="linear-gradient" x1="60" y1="30" x2="0" y2="30" gradientUnits="userSpaceOnUse"><stop offset="0" stop-color="#3b3b3b"/><stop offset="1" stop-color="#191919"/></linearGradient></defs><circle class="cls-1" cx="30" cy="30" r="30"/><path class="cls-2" d="M43.98,19.97v-.56h.56c.31,0,.56-.25.56-.56h2.82c.31,0,.56-.25.56-.56s-.25-.56-.56-.56h-2.82v-1.69h2.82c.31,0,.56-.25.56-.56s-.25-.56-.56-.56h-2.82c0-.31-.25-.56-.56-.56h-3.39c-1.25,0-2.26,1.01-2.26,2.26v3.39c0,.31.25.56.56.56v5.65h-.28c-.31,0-.56.25-.56.56v1.13h-.56c-.31,0-.56.25-.56.56v.28h-3c-.44-.9-1.18-1.64-2.08-2.08v-3.89c.5-.13.85-.58.85-1.09v-3.39c0-.62-.51-1.13-1.13-1.13h-3.39c-.62,0-1.13.51-1.13,1.13h0v3.39c0,.51.35.96.85,1.09v3.89c-.9.44-1.64,1.18-2.08,2.08h-3v-.28c0-.31-.25-.56-.56-.56h-.56v-1.13c0-.31-.25-.56-.56-.56h-.28v-5.65c.31,0,.56-.25.56-.56v-3.39c0-1.25-1.01-2.26-2.26-2.26h-3.39c-.31,0-.56.25-.56.56h-2.82c-.31,0-.56.25-.56.56s.25.56.56.56h2.82v1.69h-2.82c-.31,0-.56.25-.56.56s.25.56.56.56h2.82c0,.31.25.56.56.56h.56v.56c0,.31.25.56.56.56v5.65h-.28c-.31,0-.56.25-.56.56v1.13h-.56c-.31,0-.56.25-.56.56v.28h-2.54c-.31,0-.56.25-.56.56s.25.56.56.56h2.54v1.69h-2.54c-.31,0-.56.25-.56.56s.25.56.56.56h2.54v.28c0,.31.25.56.56.56h.56v1.13c0,.31.25.56.56.56h.28v5.65c-.31,0-.56.25-.56.56v.56h-.56c-.31,0-.56.25-.56.56h-2.82c-.31,0-.56.25-.56.56s.25.56.56.56h2.82v1.69h-2.82c-.31,0-.56.25-.56.56s.25.56.56.56h2.82c0,.31.25.56.56.56h3.39c1.25,0,2.26-1.01,2.26-2.26v-3.39c0-.31-.25-.56-.56-.56v-5.65h.28c.31,0,.56-.25.56-.56v-1.13h.56c.31,0,.56-.25.56-.56v-.28h3c.44.9,1.18,1.64,2.08,2.08v4.45c-.5.13-.85.58-.85,1.09v3.39c0,.62.51,1.13,1.13,1.13h3.39c.62,0,1.13-.51,1.13-1.13h0v-3.39c0-.51-.35-.96-.85-1.09v-4.45c.9-.44,1.64-1.18,2.08-2.08h3v.28c0,.31.25.56.56.56h.56v1.13c0,.31.25.56.56.56h.28v5.65c-.31,0-.56.25-.56.56v3.39c0,1.25,1.01,2.26,2.26,2.26h3.39c.31,0,.56-.25.56-.56h2.82c.31,0,.56-.25.56-.56s-.25-.56-.56-.56h-2.82v-1.69h2.82c.31,0,.56-.25.56-.56s-.25-.56-.56-.56h-2.82c0-.31-.25-.56-.56-.56h-.56v-.56c0-.31-.25-.56-.56-.56v-5.65h.28c.31,0,.56-.25.56-.56v-1.13h.56c.31,0,.56-.25.56-.56v-.28h2.54c.31,0,.56-.25.56-.56s-.25-.56-.56-.56h-2.54v-1.69h2.54c.31,0,.56-.25.56-.56s-.25-.56-.56-.56h-2.54v-.28c0-.31-.25-.56-.56-.56h-.56v-1.13c0-.31-.25-.56-.56-.56h-.28v-5.65c.31,0,.56-.25.56-.56ZM16.87,18.27v-2.82h2.82c.62,0,1.13.51,1.13,1.13h0v2.82h-2.82v-.56c0-.31-.25-.56-.56-.56h-.56ZM20.26,20.53v5.65h-1.69v-5.65h1.69ZM20.83,44.81c0,.62-.51,1.13-1.13,1.13h-2.82v-2.82h.56c.31,0,.56-.25.56-.56v-.56h2.82v2.82ZM18.57,40.86v-5.65h1.69v5.65h-1.69ZM22.24,32.39h-.56c-.31,0-.56.25-.56.56v1.13h-3.39v-1.13c0-.31-.25-.56-.56-.56h-.56v-3.39h.56c.31,0,.56-.25.56-.56v-1.13h3.39v1.13c0,.31.25.56.56.56h.56v3.39ZM25.99,31.54h-2.62v-1.69h2.62c-.11.56-.11,1.13,0,1.69ZM28.73,18.27h3.39v3.39h-3.39v-3.39ZM31.27,22.79v3.47c-.56-.11-1.13-.11-1.69,0v-3.47h1.69ZM32.12,43.68h-3.39v-3.39h3.39v3.39ZM29.58,39.16v-4.03c.56.11,1.13.11,1.69,0v4.03h-1.69ZM30.43,34.08c-1.87,0-3.39-1.52-3.39-3.39s1.52-3.39,3.39-3.39,3.39,1.52,3.39,3.39c0,1.87-1.52,3.39-3.39,3.39ZM37.48,31.54h-2.62c.11-.56.11-1.13,0-1.69h2.62v1.69ZM43.98,43.12v2.82h-2.82c-.62,0-1.13-.51-1.13-1.13h0v-2.82h2.82v.56c0,.31.25.56.56.56h.56ZM40.59,40.86v-5.65h1.69v5.65h-1.69ZM43.7,29h.56v3.39h-.56c-.31,0-.56.25-.56.56v1.13h-3.39v-1.13c0-.31-.25-.56-.56-.56h-.56v-3.39h.56c.31,0,.56-.25.56-.56v-1.13h3.39v1.13c0,.31.25.56.56.56ZM40.59,26.18v-5.65h1.69v5.65h-1.69ZM42.85,18.84v.56h-2.82v-2.82c0-.62.51-1.13,1.13-1.13h2.82v2.82h-.56c-.31,0-.56.25-.56.56Z"/></svg>