<svg xmlns="http://www.w3.org/2000/svg" width="60" height="60" viewBox="0 0 60 60">
  <g id="player-and-team-statistics" transform="translate(-142 -5243)">
    <circle id="Ellipse_14" data-name="Ellipse 14" cx="30" cy="30" r="30" transform="translate(142 5243)" fill="#fff2e8"/>
    <g id="statistics-svgrepo-com" transform="translate(156.399 5258)">
      <path id="Path_9146" data-name="Path 9146" d="M9.538,9.393l6.847,2.823a1.012,1.012,0,0,0,1.256-.418l3.083-5.192,5.633-2.772.174,2.56a.183.183,0,0,0,.327.1L31.577.342A.2.2,0,0,0,31.6.127a.2.2,0,0,0-.182-.114L23.663,0a.183.183,0,0,0-.171.118.185.185,0,0,0,.049.2l1.923,1.7-5.9,2.9a1.015,1.015,0,0,0-.424.391l-2.791,4.7L10.31,7.523a1.011,1.011,0,1,0-.772,1.869Z" transform="translate(-7.806)" fill="#f48120"/>
      <path id="Path_9147" data-name="Path 9147" d="M29.084,445.01H2.118a1.517,1.517,0,1,0,0,3.034H29.084a1.517,1.517,0,0,0,0-3.034Z" transform="translate(0 -417.971)" fill="#f48120"/>
      <path id="Path_9148" data-name="Path 9148" d="M40.759,241.837a.613.613,0,0,0-.612.613v9.1a.613.613,0,0,0,.612.613h3.578a.613.613,0,0,0,.613-.613v-9.1a.613.613,0,0,0-.613-.613Z" transform="translate(-37.143 -227.143)" fill="#f48120"/>
      <path id="Path_9149" data-name="Path 9149" d="M375.761,72.554v19.42a.613.613,0,0,0,.612.613h3.579a.613.613,0,0,0,.612-.613V72.554a.613.613,0,0,0-.612-.613h-3.579A.613.613,0,0,0,375.761,72.554Z" transform="translate(-352.365 -67.57)" fill="#f48120"/>
      <path id="Path_9150" data-name="Path 9150" d="M264.492,161.045a.613.613,0,0,0-.613.613v14.006a.613.613,0,0,0,.613.613h3.578a.613.613,0,0,0,.612-.613V161.658a.613.613,0,0,0-.612-.613Z" transform="translate(-247.281 -151.26)" fill="#f48120"/>
      <path id="Path_9151" data-name="Path 9151" d="M152.625,286.386a.613.613,0,0,0-.613.613v6.39a.613.613,0,0,0,.613.613H156.2a.613.613,0,0,0,.613-.613V287a.613.613,0,0,0-.613-.613Z" transform="translate(-142.211 -268.985)" fill="#f48120"/>
    </g>
  </g>
</svg>
