<svg width="256" height="256" viewBox="0 0 256 256" fill="none" xmlns="http://www.w3.org/2000/svg">
<path fill-rule="evenodd" clip-rule="evenodd" d="M203.304 25C213.986 25 222.648 33.6613 222.648 44.3438C222.648 55.0263 213.986 63.6877 203.304 63.6877C192.621 63.6877 183.96 55.0263 183.96 44.3438C183.96 33.6613 192.619 25 203.304 25ZM75.6817 123.708C74.2442 122.667 73.9238 120.657 74.9653 119.217C76.0044 117.782 78.0164 117.459 79.4539 118.501L88.8271 125.297C90.791 126.64 90.8528 129.376 88.7309 130.77L79.4401 137.453C78.005 138.488 75.9999 138.163 74.9653 136.723C73.9284 135.283 74.258 133.283 75.6931 132.246L77.1192 131.221H52.6801C50.8284 131.221 49.3864 129.742 49.4756 127.718V104.932C49.4711 103.128 50.9428 101.725 52.6824 101.725C54.4541 101.725 55.887 103.16 55.887 104.932V124.786H77.1649L75.6794 123.711L75.6817 123.708ZM180.282 132.299C181.719 133.34 182.04 135.35 180.998 136.787C179.959 138.225 177.947 138.545 176.51 137.506L167.134 130.712C165.172 129.369 165.108 126.634 167.23 125.237L176.521 118.554C177.958 117.519 179.964 117.846 180.998 119.284C182.033 120.721 181.705 122.726 180.268 123.761L178.842 124.786H203.281C205.135 124.786 206.577 126.265 206.485 128.288L206.49 151.075C206.49 152.844 205.053 154.279 203.281 154.279C201.509 154.279 200.076 152.844 200.076 151.075V131.223H178.794L180.282 132.299ZM130.772 80.2046C129.609 82.1548 126.743 82.4135 125.297 80.3008L118.503 70.9276C117.462 69.4901 117.782 67.4804 119.22 66.439C120.657 65.3975 122.667 65.7179 123.708 67.1554L124.786 68.6386V52.6801C124.786 50.8284 126.265 49.3841 128.286 49.4733H171.918C173.687 49.4733 175.125 50.9062 175.125 52.6779C175.125 54.4495 173.687 55.8847 171.918 55.8847H131.223V68.5929L132.248 67.1668C133.283 65.7294 135.288 65.4021 136.725 66.439C138.163 67.4736 138.49 69.4764 137.456 70.9161L130.772 80.2046ZM125.237 175.759C126.4 173.806 129.263 173.548 130.71 175.663L137.504 185.036C138.545 186.473 138.225 188.483 136.787 189.527C135.35 190.566 133.34 190.248 132.299 188.808L131.223 187.325V203.283C131.223 205.135 129.742 206.579 127.721 206.49L84.089 206.495C82.3173 206.495 80.8822 205.057 80.8822 203.288C80.8822 201.518 82.3173 200.081 84.089 200.081H124.786V187.373L123.759 188.799C122.722 190.236 120.719 190.564 119.281 189.529C117.844 188.494 117.517 186.489 118.551 185.052L125.235 175.763L125.237 175.759ZM128.002 111.9C136.895 111.9 144.107 119.112 144.107 128.005C144.107 136.897 136.895 144.107 128.002 144.107C119.11 144.107 111.9 136.897 111.9 128.005C111.9 119.112 119.11 111.9 128.002 111.9ZM134.839 121.168C128.767 115.093 118.336 119.414 118.336 128.005C118.336 136.595 128.767 140.914 134.839 134.839C138.614 131.065 138.614 124.944 134.839 121.168ZM97.1176 125.961V130.049L92.0385 135.686C89.2276 138.811 88.7538 143.276 90.8642 146.932L93.0502 150.709C95.1629 154.359 99.2578 156.179 103.366 155.307L110.801 153.725C111.966 154.531 113.051 155.156 114.328 155.763L116.674 162.991C117.977 166.999 121.612 169.64 125.821 169.64H130.184C134.393 169.64 138.028 166.997 139.328 162.991L141.676 155.763C142.954 155.156 144.036 154.531 145.201 153.725L152.638 155.307C154.691 155.744 156.742 155.504 158.557 154.7C160.285 153.931 161.778 152.638 162.831 150.919L165.143 146.932C167.253 143.276 166.779 138.811 163.966 135.686L158.889 130.049V125.961L163.966 120.321C166.779 117.196 167.253 112.73 165.143 109.075L162.957 105.301C160.842 101.65 156.747 99.8277 152.64 100.7L145.204 102.281C144.041 101.476 142.954 100.851 141.679 100.244L139.33 93.0181C138.03 89.0102 134.395 86.3665 130.186 86.3665H125.823C121.614 86.3665 117.979 89.0102 116.677 93.0181L114.33 100.244C113.051 100.851 111.966 101.476 110.803 102.281L103.369 100.7C101.316 100.263 99.2646 100.501 97.4495 101.309C95.7214 102.08 94.229 103.369 93.1761 105.09L90.8642 109.077C88.7538 112.733 89.2276 117.198 92.0385 120.323L97.1176 125.961ZM96.8178 116.022L102.751 122.612C103.414 123.289 103.776 124.248 103.655 125.262C103.412 127.222 103.41 128.744 103.648 130.696C103.76 131.646 103.499 132.566 102.849 133.29L96.8155 139.992C95.8518 141.061 95.7053 142.484 96.4172 143.718L98.594 147.502C99.3196 148.742 100.611 149.328 102.03 149.028L110.854 147.161C111.733 146.975 112.682 147.156 113.454 147.742C114.726 148.708 116.523 149.816 118.013 150.4C118.922 150.722 119.675 151.448 119.998 152.437L122.784 161.011C123.223 162.371 124.383 163.211 125.819 163.211H130.181C131.614 163.211 132.775 162.371 133.216 161.011L136.009 152.437C136.288 151.583 136.922 150.85 137.813 150.475C139.246 149.871 141.184 148.836 142.359 147.886C143.093 147.239 144.116 146.934 145.149 147.154L153.968 149.031C155.389 149.331 156.68 148.747 157.401 147.502L159.585 143.723C160.295 142.491 160.148 141.065 159.187 139.996L153.254 133.406C152.588 132.731 152.226 131.77 152.35 130.756C152.606 128.664 152.521 127.226 152.343 125.162C152.267 124.303 152.535 123.42 153.153 122.729L159.189 116.029C160.15 114.958 160.297 113.534 159.587 112.3L157.411 108.517C156.683 107.276 155.392 106.69 153.973 106.992L145.151 108.858C144.272 109.043 143.322 108.862 142.551 108.276C141.276 107.308 139.481 106.205 137.991 105.619C137.083 105.296 136.327 104.57 136.007 103.582L133.221 95.0072C132.779 93.6476 131.619 92.8076 130.186 92.8076H125.823C124.388 92.8076 123.228 93.6476 122.788 95.0072L119.996 103.579C119.716 104.435 119.082 105.168 118.19 105.543C116.757 106.147 114.818 107.182 113.644 108.132C112.907 108.78 111.886 109.084 110.851 108.864L102.032 106.99C100.613 106.688 99.3219 107.271 98.6009 108.519L96.4172 112.298C95.7076 113.529 95.8518 114.955 96.8155 116.027L96.8178 116.022ZM77.1878 231.007H28.2182C26.442 231.007 25 229.567 25 227.789C25 212.489 37.4038 200.086 52.703 200.086C68.0023 200.086 80.4038 212.489 80.4038 227.789C80.4038 229.565 78.9663 231.007 77.1878 231.007ZM31.6814 224.57H73.7269C72.1659 214.282 63.2848 206.524 52.7053 206.524C42.1258 206.524 33.2448 214.282 31.6814 224.57ZM52.7053 159.045C63.3878 159.045 72.0492 167.704 72.0492 178.389C72.0492 189.073 63.3878 197.733 52.7053 197.733C42.0228 197.733 33.3615 189.071 33.3615 178.389C33.3615 167.706 42.0228 159.045 52.7053 159.045ZM61.8313 169.26C56.7911 164.222 48.6173 164.222 43.5793 169.26C38.5391 174.301 38.5391 182.474 43.5793 187.515C48.6173 192.553 56.7911 192.553 61.8313 187.515C66.8716 182.474 66.8716 174.301 61.8313 169.26ZM77.1878 96.9666H28.2182C26.442 96.9666 25 95.5245 25 93.7483C25 78.449 37.4038 66.0453 52.703 66.0453C68.0023 66.0453 80.4038 78.449 80.4038 93.7483C80.4038 95.5245 78.9663 96.9666 77.1878 96.9666ZM31.6814 90.5278H73.7269C72.1659 80.239 63.2848 72.4818 52.7053 72.4818C42.1258 72.4818 33.2448 80.2413 31.6814 90.5278ZM52.703 25C63.3855 25 72.0469 33.6613 72.0469 44.3438C72.0469 55.0263 63.3855 63.6877 52.703 63.6877C42.0206 63.6877 33.3592 55.0263 33.3592 44.3438C33.3592 33.6613 42.0206 25 52.703 25ZM61.829 35.2178C56.7888 30.1776 48.615 30.1776 43.577 35.2178C38.5368 40.2558 38.5368 48.4296 43.577 53.4698C48.6173 58.5101 56.7888 58.5078 61.829 53.4698C66.8693 48.4296 66.8693 40.2558 61.829 35.2178ZM227.786 231.005H178.817C177.038 231.005 175.596 229.565 175.596 227.786C175.596 212.487 188 200.083 203.299 200.083C218.599 200.083 231 212.487 231 227.786C231 229.563 229.563 231.005 227.786 231.005ZM182.278 224.568H224.323C222.762 214.279 213.881 206.522 203.302 206.522C192.722 206.522 183.841 214.279 182.278 224.568ZM203.302 159.043C213.984 159.043 222.645 167.702 222.645 178.386C222.645 189.071 213.984 197.73 203.302 197.73C192.619 197.73 183.958 189.069 183.958 178.386C183.958 167.704 192.617 159.043 203.302 159.043ZM212.428 169.258C207.387 164.22 199.216 164.22 194.176 169.258C189.135 174.298 189.135 182.472 194.176 187.512C199.216 192.55 207.387 192.55 212.428 187.512C217.468 182.472 217.468 174.298 212.428 169.258ZM227.786 96.9643H178.817C177.038 96.9643 175.596 95.5222 175.596 93.746C175.596 78.4467 188 66.043 203.299 66.043C218.599 66.043 231 78.4467 231 93.746C231 95.5222 229.563 96.9643 227.786 96.9643ZM182.278 90.5255H224.323C222.762 80.2367 213.881 72.4795 203.302 72.4795C192.722 72.4795 183.841 80.239 182.278 90.5255ZM212.428 35.2178C207.387 30.1776 199.216 30.1776 194.176 35.2178C189.135 40.2558 189.135 48.4296 194.176 53.4698C199.216 58.5078 207.387 58.5078 212.428 53.4698C217.468 48.4296 217.468 40.2558 212.428 35.2178Z" fill="black"/>
</svg>
