<svg width="149" height="149" viewBox="0 0 149 149" fill="none" xmlns="http://www.w3.org/2000/svg">
<path d="M74.39 148.78C115.474 148.78 148.78 115.474 148.78 74.39C148.78 33.3055 115.474 0 74.39 0C33.3055 0 0 33.3055 0 74.39C0 115.474 33.3055 148.78 74.39 148.78Z" fill="url(#paint0_linear_29_489)"/>
<path fill-rule="evenodd" clip-rule="evenodd" d="M106.898 29C111.565 29 115.349 32.784 115.349 37.451C115.349 42.118 111.565 45.902 106.898 45.902C102.231 45.902 98.447 42.118 98.447 37.451C98.447 32.784 102.23 29 106.898 29ZM51.142 72.124C50.514 71.669 50.374 70.791 50.829 70.162C51.283 69.535 52.162 69.394 52.79 69.849L56.885 72.818C57.743 73.405 57.77 74.6 56.843 75.209L52.784 78.129C52.157 78.581 51.281 78.439 50.829 77.81C50.376 77.181 50.52 76.307 51.147 75.854L51.77 75.406H41.093C40.284 75.406 39.654 74.76 39.693 73.876V63.921C39.691 63.133 40.334 62.52 41.094 62.52C41.868 62.52 42.494 63.147 42.494 63.921V72.595H51.79L51.141 72.125L51.142 72.124ZM96.84 75.877C97.468 76.332 97.608 77.21 97.153 77.838C96.699 78.466 95.82 78.606 95.192 78.152L91.096 75.184C90.239 74.597 90.211 73.402 91.138 72.792L95.197 69.872C95.825 69.42 96.701 69.563 97.153 70.191C97.605 70.819 97.462 71.695 96.834 72.147L96.211 72.595H106.888C107.698 72.595 108.328 73.241 108.288 74.125L108.29 84.08C108.29 84.853 107.662 85.48 106.888 85.48C106.114 85.48 105.488 84.853 105.488 84.08V75.407H96.19L96.84 75.877ZM75.21 53.118C74.702 53.97 73.45 54.083 72.818 53.16L69.85 49.065C69.395 48.437 69.535 47.559 70.163 47.104C70.791 46.649 71.669 46.789 72.124 47.417L72.595 48.065V41.093C72.595 40.284 73.241 39.653 74.124 39.692H93.186C93.959 39.692 94.587 40.318 94.587 41.092C94.587 41.866 93.959 42.493 93.186 42.493H75.407V48.045L75.855 47.422C76.307 46.794 77.183 46.651 77.811 47.104C78.439 47.556 78.582 48.431 78.13 49.06L75.21 53.118ZM72.792 94.864C73.3 94.011 74.551 93.898 75.183 94.822L78.151 98.917C78.606 99.545 78.466 100.423 77.838 100.879C77.21 101.333 76.332 101.194 75.877 100.565L75.407 99.917V106.889C75.407 107.698 74.76 108.329 73.877 108.29L54.815 108.292C54.041 108.292 53.414 107.664 53.414 106.891C53.414 106.118 54.041 105.49 54.815 105.49H72.595V99.938L72.146 100.561C71.693 101.189 70.818 101.332 70.19 100.88C69.562 100.428 69.419 99.552 69.871 98.924L72.791 94.866L72.792 94.864ZM74 66.965C77.885 66.965 81.036 70.116 81.036 74.001C81.036 77.886 77.885 81.036 74 81.036C70.115 81.036 66.965 77.886 66.965 74.001C66.965 70.116 70.115 66.965 74 66.965ZM76.987 71.014C74.334 68.36 69.777 70.248 69.777 74.001C69.777 77.754 74.334 79.641 76.987 76.987C78.636 75.338 78.636 72.664 76.987 71.014ZM60.507 73.108V74.894L58.288 77.357C57.06 78.722 56.853 80.673 57.775 82.27L58.73 83.92C59.653 85.515 61.442 86.31 63.237 85.929L66.485 85.238C66.994 85.59 67.468 85.863 68.026 86.128L69.051 89.286C69.62 91.037 71.208 92.191 73.047 92.191H74.953C76.792 92.191 78.38 91.036 78.948 89.286L79.974 86.128C80.532 85.863 81.005 85.59 81.514 85.238L84.763 85.929C85.66 86.12 86.556 86.015 87.349 85.664C88.104 85.328 88.756 84.763 89.216 84.012L90.226 82.27C91.148 80.673 90.941 78.722 89.712 77.357L87.494 74.894V73.108L89.712 70.644C90.941 69.279 91.148 67.328 90.226 65.731L89.271 64.082C88.347 62.487 86.558 61.691 84.764 62.072L81.515 62.763C81.007 62.411 80.532 62.138 79.975 61.873L78.949 58.716C78.381 56.965 76.793 55.81 74.954 55.81H73.048C71.209 55.81 69.621 56.965 69.052 58.716L68.027 61.873C67.468 62.138 66.994 62.411 66.486 62.763L63.238 62.072C62.341 61.881 61.445 61.985 60.652 62.338C59.897 62.675 59.245 63.238 58.785 63.99L57.775 65.732C56.853 67.329 57.06 69.28 58.288 70.645L60.507 73.108ZM60.376 68.766L62.968 71.645C63.258 71.941 63.416 72.36 63.363 72.803C63.257 73.659 63.256 74.324 63.36 75.177C63.409 75.592 63.295 75.994 63.011 76.31L60.375 79.238C59.954 79.705 59.89 80.327 60.201 80.866L61.152 82.519C61.469 83.061 62.033 83.317 62.653 83.186L66.508 82.37C66.892 82.289 67.307 82.368 67.644 82.624C68.2 83.046 68.985 83.53 69.636 83.785C70.033 83.926 70.362 84.243 70.503 84.675L71.72 88.421C71.912 89.015 72.419 89.382 73.046 89.382H74.952C75.578 89.382 76.085 89.015 76.278 88.421L77.498 84.675C77.62 84.302 77.897 83.982 78.286 83.818C78.912 83.554 79.759 83.102 80.272 82.687C80.593 82.404 81.04 82.271 81.491 82.367L85.344 83.187C85.965 83.318 86.529 83.063 86.844 82.519L87.798 80.868C88.108 80.33 88.044 79.707 87.624 79.24L85.032 76.361C84.741 76.066 84.583 75.646 84.637 75.203C84.749 74.289 84.712 73.661 84.634 72.759C84.601 72.384 84.718 71.998 84.988 71.696L87.625 68.769C88.045 68.301 88.109 67.679 87.799 67.14L86.848 65.487C86.53 64.945 85.966 64.689 85.346 64.821L81.492 65.636C81.108 65.717 80.693 65.638 80.356 65.382C79.799 64.959 79.015 64.477 78.364 64.221C77.967 64.08 77.637 63.763 77.497 63.331L76.28 59.585C76.087 58.991 75.58 58.624 74.954 58.624H73.048C72.421 58.624 71.914 58.991 71.722 59.585L70.502 63.33C70.38 63.704 70.103 64.024 69.713 64.188C69.087 64.452 68.24 64.904 67.727 65.319C67.405 65.602 66.959 65.735 66.507 65.639L62.654 64.82C62.034 64.688 61.47 64.943 61.155 65.488L60.201 67.139C59.891 67.677 59.954 68.3 60.375 68.768L60.376 68.766ZM51.8 119.001H30.406C29.63 119.001 29 118.372 29 117.595C29 110.911 34.419 105.492 41.103 105.492C47.787 105.492 53.205 110.911 53.205 117.595C53.205 118.371 52.577 119.001 51.8 119.001ZM31.919 116.189H50.288C49.606 111.694 45.726 108.305 41.104 108.305C36.482 108.305 32.602 111.694 31.919 116.189ZM41.104 87.562C45.771 87.562 49.555 91.345 49.555 96.013C49.555 100.681 45.771 104.464 41.104 104.464C36.437 104.464 32.653 100.68 32.653 96.013C32.653 91.346 36.437 87.562 41.104 87.562ZM45.091 92.025C42.889 89.824 39.318 89.824 37.117 92.025C34.915 94.227 34.915 97.798 37.117 100C39.318 102.201 42.889 102.201 45.091 100C47.293 97.798 47.293 94.227 45.091 92.025ZM51.8 60.441H30.406C29.63 60.441 29 59.811 29 59.035C29 52.351 34.419 46.932 41.103 46.932C47.787 46.932 53.205 52.351 53.205 59.035C53.205 59.811 52.577 60.441 51.8 60.441ZM31.919 57.628H50.288C49.606 53.133 45.726 49.744 41.104 49.744C36.482 49.744 32.602 53.134 31.919 57.628ZM41.103 29C45.77 29 49.554 32.784 49.554 37.451C49.554 42.118 45.77 45.902 41.103 45.902C36.436 45.902 32.652 42.118 32.652 37.451C32.652 32.784 36.436 29 41.103 29ZM45.09 33.464C42.888 31.262 39.317 31.262 37.116 33.464C34.914 35.665 34.914 39.236 37.116 41.438C39.318 43.64 42.888 43.639 45.09 41.438C47.292 39.236 47.292 35.665 45.09 33.464ZM117.594 119H96.2C95.423 119 94.793 118.371 94.793 117.594C94.793 110.91 100.212 105.491 106.896 105.491C113.58 105.491 118.998 110.91 118.998 117.594C118.998 118.37 118.37 119 117.594 119ZM97.712 116.188H116.081C115.399 111.693 111.519 108.304 106.897 108.304C102.275 108.304 98.395 111.693 97.712 116.188ZM106.897 87.561C111.564 87.561 115.348 91.344 115.348 96.012C115.348 100.68 111.564 104.463 106.897 104.463C102.23 104.463 98.446 100.679 98.446 96.012C98.446 91.345 102.229 87.561 106.897 87.561ZM110.884 92.024C108.682 89.823 105.112 89.823 102.91 92.024C100.708 94.226 100.708 97.797 102.91 99.999C105.112 102.2 108.682 102.2 110.884 99.999C113.086 97.797 113.086 94.226 110.884 92.024ZM117.594 60.44H96.2C95.423 60.44 94.793 59.81 94.793 59.034C94.793 52.35 100.212 46.931 106.896 46.931C113.58 46.931 118.998 52.35 118.998 59.034C118.998 59.81 118.37 60.44 117.594 60.44ZM97.712 57.627H116.081C115.399 53.132 111.519 49.743 106.897 49.743C102.275 49.743 98.395 53.133 97.712 57.627ZM110.884 33.464C108.682 31.262 105.112 31.262 102.91 33.464C100.708 35.665 100.708 39.236 102.91 41.438C105.112 43.639 108.682 43.639 110.884 41.438C113.086 39.236 113.086 35.665 110.884 33.464Z" fill="white"/>
<defs>
<linearGradient id="paint0_linear_29_489" x1="148.78" y1="74.39" x2="0" y2="74.39" gradientUnits="userSpaceOnUse">
<stop stop-color="#3B3B3B"/>
<stop offset="1" stop-color="#191919"/>
</linearGradient>
</defs>
</svg>
