<svg xmlns="http://www.w3.org/2000/svg" width="60" height="60" viewBox="0 0 60 60">
  <g id="Group_73" data-name="Group 73" transform="translate(-1018 -461)">
    <circle id="Ellipse_14" data-name="Ellipse 14" cx="30" cy="30" r="30" transform="translate(1018 461)" fill="#fff2e8"/>
    <g id="portfolio-svgrepo-com_2_" data-name="portfolio-svgrepo-com (2)" transform="translate(1031.001 459.233)">
      <g id="Group_72" data-name="Group 72" transform="translate(-0.001 15.767)">
        <path id="Path_9318" data-name="Path 9318" d="M32.629,21.844a1.635,1.635,0,0,0-1.2-.525H22.049V19.5a1.631,1.631,0,0,0-.126-3.128,22.732,22.732,0,0,0-5.392-.6,22.732,22.732,0,0,0-5.392.6,1.631,1.631,0,0,0-.441,2.984,1.649,1.649,0,0,0,.314.145v1.82H1.63A1.631,1.631,0,0,0,0,23.081L.462,28.8V43.5a3.3,3.3,0,0,0,3.3,3.3H29.3a3.3,3.3,0,0,0,3.3-3.3V28.8l.458-5.722A1.636,1.636,0,0,0,32.629,21.844ZM10.961,18.1a.59.59,0,0,1,.43-.715,21.686,21.686,0,0,1,5.14-.573,21.683,21.683,0,0,1,5.14.573.59.59,0,1,1-.285,1.145,20.51,20.51,0,0,0-4.855-.538,20.51,20.51,0,0,0-4.857.538.581.581,0,0,1-.136.017h-.008a.58.58,0,0,1-.3-.083A.589.589,0,0,1,10.961,18.1Zm10.047,1.41V21.32H12.054V19.506a19.658,19.658,0,0,1,4.477-.477A19.654,19.654,0,0,1,21.007,19.506ZM31.558,43.5A2.258,2.258,0,0,1,29.3,45.752H3.759A2.258,2.258,0,0,1,1.5,43.5V34.344A4.374,4.374,0,0,0,2.683,35.5V43.5a1.077,1.077,0,0,0,1.076,1.076H29.3A1.077,1.077,0,0,0,30.378,43.5V35.5a4.374,4.374,0,0,0,1.18-1.158V43.5ZM9.312,38.464a1.633,1.633,0,0,0,1.631-1.631v-.59H22.118v.59a1.631,1.631,0,0,0,3.262,0v-.59h2.554a4.41,4.41,0,0,0,1.4-.228V43.5a.035.035,0,0,1-.035.035H3.759a.035.035,0,0,1-.035-.035V36.014a4.409,4.409,0,0,0,1.4.228H7.681v.59A1.633,1.633,0,0,0,9.312,38.464Zm0-1.666a1.622,1.622,0,0,0,.59-.111v.146a.59.59,0,0,1-1.18,0v-.146A1.622,1.622,0,0,0,9.312,36.8Zm-.59-1.631V34.022H9.9v1.145a.59.59,0,0,1-1.18,0ZM23.749,36.8a1.622,1.622,0,0,0,.59-.111v.146a.59.59,0,0,1-1.18,0v-.146A1.622,1.622,0,0,0,23.749,36.8Zm-.59-1.631V34.022h1.18v1.145a.59.59,0,0,1-1.18,0ZM32.019,23,31.29,32.1a3.384,3.384,0,0,1-3.356,3.1H25.38V33.5a.521.521,0,0,0-.521-.521H22.638a.521.521,0,0,0-.521.521v1.7H10.943V33.5a.521.521,0,0,0-.521-.521H8.2a.521.521,0,0,0-.521.521v1.7H5.127a3.384,3.384,0,0,1-3.356-3.1L1.042,23a.59.59,0,0,1,.588-.637h29.8a.59.59,0,0,1,.588.637Z" transform="translate(0.001 -15.767)" fill="#f48120"/>
      </g>
    </g>
  </g>
</svg>
