<svg id="banner-main2" xmlns="http://www.w3.org/2000/svg" xmlns:xlink="http://www.w3.org/1999/xlink" width="45" height="45" viewBox="0 0 45 45">
  <defs>
    <linearGradient id="linear-gradient" x1="0.5" x2="0.156" y2="0.791" gradientUnits="objectBoundingBox">
      <stop offset="0" stop-color="#3e3e3e"/>
      <stop offset="1" stop-color="#1a1a1a"/>
    </linearGradient>
  </defs>
  <circle id="Ellipse_1" data-name="Ellipse 1" cx="22.5" cy="22.5" r="22.5" fill="url(#linear-gradient)"/>
  <path id="portfolio-svgrepo-com" d="M23.377,7.656H18.219V5.748C18.219,4.719,17.312,4,15.948,4H13.163c-1.408,0-2.132.735-2.132,1.748V7.656H5.873A2.193,2.193,0,0,0,3.5,9.606V20.05A2.193,2.193,0,0,0,5.873,22h17.5a2.193,2.193,0,0,0,2.373-1.95h0V9.606A2.193,2.193,0,0,0,23.377,7.656ZM12.4,5.748c0-.605.654-.623.762-.623H15.6c.432,0,1.245.108,1.245.623V7.656H12.4ZM23.377,20.875H5.873a.927.927,0,0,1-1-.825V14.969H5.941a.287.287,0,1,0,0-.562H4.869v-4.8a.928.928,0,0,1,1-.825h17.5a.928.928,0,0,1,1,.825h0v4.8H16.849v-.262A1.287,1.287,0,0,0,15.457,13H13.793A1.287,1.287,0,0,0,12.4,14.145v.262H7.995a.287.287,0,1,0,0,.562H12.4v.543a1.287,1.287,0,0,0,1.393,1.145h1.664a1.287,1.287,0,0,0,1.393-1.145h0v-.543h7.531V20.05A.927.927,0,0,1,23.377,20.875Zm-7.212-6.73h0v1.367a.655.655,0,0,1-.708.582H13.793a.655.655,0,0,1-.709-.582V14.145a.654.654,0,0,1,.709-.582h1.664A.654.654,0,0,1,16.165,14.145Z" transform="translate(7.5 10)" fill="#fff"/>
</svg>
