<svg xmlns="http://www.w3.org/2000/svg" width="60" height="60" viewBox="0 0 60 60">
  <g id="POS" transform="translate(-92 -2858)">
    <circle id="Ellipse_14" data-name="Ellipse 14" cx="30" cy="30" r="30" transform="translate(92 2858)" fill="#fff2e8"/>
    <g id="pos-2" data-name="pos" transform="translate(69.336 2859.95)">
      <g id="Group_8397" data-name="Group 8397" transform="translate(39.663 10.05)">
        <g id="Group_8396" data-name="Group 8396" transform="translate(0 0)">
          <path id="Path_9303" data-name="Path 9303" d="M44.122,10.118a4.893,4.893,0,0,0-2.919,1.49,4.728,4.728,0,0,0-1.369,2.3l-.15.542-.015,10.111c-.015,11.149-.03,10.667.406,11.57A3.891,3.891,0,0,0,42.272,38l.361.105.015,2.934c.015,2.919.015,2.934.181,3.25a2.467,2.467,0,0,0,1.1,1.083l.391.181H58.611l.376-.181a2.226,2.226,0,0,0,1.083-.978l.2-.361.015-2.964L60.3,38.1l.286-.09A3.794,3.794,0,0,0,63.17,35.3c.15-.647.15-20.266,0-21.049a5.2,5.2,0,0,0-4.423-4.138C58.085,10.027,44.724,10.027,44.122,10.118ZM59,11.592a3.729,3.729,0,0,1,1.64.888,3.441,3.441,0,0,1,1.038,1.61l.181.527-.015,10.261-.015,10.261-.165.3a2.5,2.5,0,0,1-.993,1.023l-.361.2-8.7.015c-8.666.015-8.7.015-9.072-.135a2.429,2.429,0,0,1-1.219-1.143l-.181-.346V24.787c0-9.855,0-10.291.135-10.652a3.836,3.836,0,0,1,2.859-2.573c.15-.03,3.46-.06,7.357-.06C57.5,11.487,58.626,11.517,59,11.592ZM47.071,41.142v2.979H44.544L44.3,43.88l-.241-.241V38.133h2.979l.03,3.009ZM58.942,40.8a11.888,11.888,0,0,1-.105,2.889c-.226.466,0,.451-5.416.451h-4.89V38.178H58.942V40.8Z" transform="translate(-39.663 -10.05)" fill="#f48120" stroke="#fff2e8" stroke-width="0.5"/>
          <path id="Path_9304" data-name="Path 9304" d="M60.846,29.85a2.177,2.177,0,0,0-1.384,1.444,9.212,9.212,0,0,0-.09,2.257c.03,1.76.03,1.911.166,2.212a2.3,2.3,0,0,0,1.053,1.083l.391.2H75.425l.316-.15a2.463,2.463,0,0,0,1.083-1.023L77,35.508l.015-2c.03-2.392,0-2.483-.6-3.114a1.983,1.983,0,0,0-.8-.542c-.391-.15-.436-.15-7.433-.15C61.673,29.715,61.177,29.73,60.846,29.85ZM75.32,31.28c.316.226.361.466.361,2.106s-.045,1.9-.361,2.106c-.15.105-.8.105-7.056.105-5.191,0-6.936-.015-7.071-.09-.361-.166-.376-.316-.376-2.152,0-1.805.03-1.926.361-2.106.135-.075,1.474-.09,7.071-.09C74.537,31.174,75.184,31.174,75.32,31.28Z" transform="translate(-56.402 -26.744)" fill="#f48120" stroke="#fff2e8" stroke-width="0.5"/>
          <path id="Path_9305" data-name="Path 9305" d="M69.707,98.746a.725.725,0,0,0-.105,1.219c.166.12.271.135,1.113.135,1.234,0,1.474-.12,1.474-.722a.649.649,0,0,0-.2-.466l-.2-.226-.933-.015A3.191,3.191,0,0,0,69.707,98.746Z" transform="translate(-64.857 -85.332)" fill="#f48120" stroke="#fff2e8" stroke-width="0.5"/>
          <path id="Path_9306" data-name="Path 9306" d="M109.191,98.66a.826.826,0,0,0-.376,1.053c.15.271.421.346,1.414.346.9,0,.948,0,1.143-.181a.653.653,0,0,0,.2-.827c-.15-.376-.421-.451-1.414-.451A5.323,5.323,0,0,0,109.191,98.66Z" transform="translate(-98.352 -85.277)" fill="#f48120" stroke="#fff2e8" stroke-width="0.5"/>
          <path id="Path_9307" data-name="Path 9307" d="M148.351,98.636a.791.791,0,0,0-.451.677.622.622,0,0,0,.241.481l.241.241h1.986l.241-.241a.651.651,0,0,0-.181-1.113A6.4,6.4,0,0,0,148.351,98.636Z" transform="translate(-131.615 -85.253)" fill="#f48120" stroke="#fff2e8" stroke-width="0.5"/>
          <path id="Path_9308" data-name="Path 9308" d="M69.626,128.34a.79.79,0,0,0-.391.812.932.932,0,0,0,.256.376c.2.165.241.181,1.143.181,1.234,0,1.49-.12,1.49-.722a.649.649,0,0,0-.2-.466l-.2-.226-.933-.015A2.749,2.749,0,0,0,69.626,128.34Z" transform="translate(-64.776 -110.474)" fill="#f48120" stroke="#fff2e8" stroke-width="0.5"/>
          <path id="Path_9309" data-name="Path 9309" d="M109.076,128.205a.688.688,0,0,0-.376.662c0,.557.271.692,1.444.692,1.008,0,1.174-.06,1.369-.436a.511.511,0,0,0,.03-.527c-.15-.406-.421-.5-1.414-.5A2.9,2.9,0,0,0,109.076,128.205Z" transform="translate(-98.313 -110.339)" fill="#f48120" stroke="#fff2e8" stroke-width="0.5"/>
          <path id="Path_9310" data-name="Path 9310" d="M148.351,128.174a.791.791,0,0,0-.451.677.622.622,0,0,0,.241.481l.241.241h1.986l.241-.241a.651.651,0,0,0-.181-1.113A5.663,5.663,0,0,0,148.351,128.174Z" transform="translate(-131.615 -110.338)" fill="#f48120" stroke="#fff2e8" stroke-width="0.5"/>
          <path id="Path_9311" data-name="Path 9311" d="M69.6,157.79a.747.747,0,0,0-.391.782.942.942,0,0,0,.241.361l.2.2h.948c1.249,0,1.49-.12,1.49-.722a.649.649,0,0,0-.2-.466l-.2-.226-.933-.015A3.415,3.415,0,0,0,69.6,157.79Z" transform="translate(-64.749 -135.485)" fill="#f48120" stroke="#fff2e8" stroke-width="0.5"/>
          <path id="Path_9312" data-name="Path 9312" d="M109.091,157.705a.62.62,0,0,0-.391.617c0,.617.241.737,1.444.737,1.008,0,1.174-.06,1.369-.436a.511.511,0,0,0,.03-.527c-.15-.406-.421-.5-1.414-.5A2.685,2.685,0,0,0,109.091,157.705Z" transform="translate(-98.313 -135.4)" fill="#f48120" stroke="#fff2e8" stroke-width="0.5"/>
          <path id="Path_9313" data-name="Path 9313" d="M148.479,157.674a.761.761,0,0,0-.346,1.038c.165.3.376.361,1.4.361h.948l.241-.241a.651.651,0,0,0-.181-1.113A5.574,5.574,0,0,0,148.479,157.674Z" transform="translate(-131.743 -135.399)" fill="#f48120" stroke="#fff2e8" stroke-width="0.5"/>
          <path id="Path_9314" data-name="Path 9314" d="M207.361,59.439c-.361.2-.346-.181-.361,8.741,0,8.952-.015,8.606.346,8.8a.763.763,0,0,0,.858-.135l.226-.2V59.739l-.226-.2A.687.687,0,0,0,207.361,59.439Z" transform="translate(-181.823 -51.923)" fill="#f48120" stroke="#fff2e8" stroke-width="0.5"/>
        </g>
      </g>
    </g>
  </g>
</svg>
