<svg width="149" height="149" viewBox="0 0 149 149" fill="none" xmlns="http://www.w3.org/2000/svg">
<path d="M74.39 148.78C115.474 148.78 148.78 115.474 148.78 74.39C148.78 33.3055 115.474 0 74.39 0C33.3055 0 0 33.3055 0 74.39C0 115.474 33.3055 148.78 74.39 148.78Z" fill="url(#paint0_linear_36_967)"/>
<path d="M78.8774 89.6308C79.8158 89.3368 80.7258 88.9588 81.5963 88.5015C81.6324 88.4875 81.6719 88.4849 81.7095 88.494C81.7471 88.5031 81.781 88.5234 81.8068 88.5523C82.3812 89.1255 83.1596 89.4474 83.9711 89.4474C84.7826 89.4474 85.561 89.1255 86.1355 88.5523L88.5524 86.1354C89.1257 85.5606 89.4476 84.782 89.4476 83.9703C89.4476 83.1585 89.1257 82.3799 88.5524 81.8052C88.524 81.7794 88.5041 81.7456 88.4956 81.7082C88.487 81.6708 88.4901 81.6317 88.5045 81.5962C88.9685 80.7139 89.3499 79.7906 89.644 78.8381C89.6542 78.8033 89.7108 78.767 89.8139 78.767C90.6243 78.7651 91.401 78.4422 91.974 77.8689C92.5469 77.2957 92.8694 76.5189 92.871 75.7084V72.2913C92.8702 71.4799 92.5476 70.7018 91.9739 70.1279C91.4003 69.554 90.6224 69.231 89.811 69.2299C89.7736 69.2322 89.7365 69.2231 89.7044 69.204C89.6723 69.1848 89.6467 69.1564 89.631 69.1225C89.3369 68.1841 88.959 67.2741 88.5016 66.4036C88.4872 66.3676 88.4844 66.328 88.4935 66.2903C88.5026 66.2525 88.5232 66.2186 88.5524 66.1931C89.1256 65.6186 89.4475 64.8403 89.4475 64.0287C89.4475 63.2172 89.1256 62.4389 88.5524 61.8644L86.1355 59.4475C85.5609 58.8738 84.7823 58.5517 83.9704 58.5517C83.1585 58.5517 82.3798 58.8738 81.8053 59.4475C81.7802 59.4764 81.7467 59.4967 81.7095 59.5055C81.6722 59.5144 81.6331 59.5113 81.5977 59.4968C80.7269 59.0386 79.8164 58.6601 78.8774 58.366C78.8435 58.3503 78.8151 58.3247 78.7959 58.2926C78.7767 58.2605 78.7677 58.2233 78.77 58.186C78.7681 57.375 78.4448 56.5979 77.8709 56.0249C77.2971 55.4519 76.5195 55.1297 75.7085 55.1289H72.2914C71.887 55.1302 71.4867 55.2114 71.1137 55.3678C70.7407 55.5243 70.4023 55.7528 70.1178 56.0404C69.8334 56.3279 69.6085 56.6688 69.4561 57.0435C69.3038 57.4182 69.2269 57.8193 69.23 58.2237C69.232 58.2505 69.2265 58.2773 69.2142 58.3011C69.2019 58.3249 69.1833 58.3449 69.1603 58.3587C68.2078 58.6526 67.2845 59.0341 66.4023 59.4983C66.3663 59.5129 66.3266 59.5158 66.2888 59.5067C66.2511 59.4976 66.2171 59.4769 66.1918 59.4475C65.6173 58.8743 64.8389 58.5524 64.0274 58.5524C63.2159 58.5524 62.4375 58.8743 61.8631 59.4475L59.4476 61.8644C58.8743 62.4391 58.5524 63.2177 58.5524 64.0295C58.5524 64.8412 58.8743 65.6198 59.4476 66.1945C59.4756 66.2202 59.4953 66.2538 59.5041 66.2908C59.5129 66.3278 59.5104 66.3666 59.4969 66.4021C59.0387 67.273 58.6603 68.1834 58.3661 69.1225C58.3504 69.1564 58.3248 69.1848 58.2927 69.204C58.2606 69.2231 58.2235 69.2322 58.1861 69.2299C57.3752 69.2318 56.598 69.5551 56.025 70.1289C55.452 70.7028 55.1298 71.4804 55.129 72.2913V75.7084C55.1298 76.5199 55.4524 77.2979 56.026 77.8718C56.5997 78.4458 57.3776 78.7687 58.189 78.7699C58.2264 78.7676 58.2635 78.7766 58.2956 78.7958C58.3277 78.8149 58.3533 78.8434 58.369 78.8773C58.663 79.8157 59.041 80.7256 59.4984 81.5962C59.5128 81.6322 59.5156 81.6718 59.5065 81.7095C59.4974 81.7472 59.4768 81.7811 59.4476 81.8066C58.8744 82.3811 58.5525 83.1595 58.5525 83.971C58.5525 84.7825 58.8744 85.5609 59.4476 86.1354L61.8645 88.5523C62.4392 89.1255 63.2178 89.4475 64.0296 89.4475C64.8413 89.4475 65.6199 89.1255 66.1947 88.5523C66.2205 88.5244 66.254 88.5048 66.291 88.496C66.3279 88.4873 66.3667 88.4897 66.4023 88.5029C67.2731 88.9611 68.1836 89.3396 69.1226 89.6337C69.1565 89.6494 69.1849 89.675 69.2041 89.7071C69.2233 89.7393 69.2323 89.7764 69.23 89.8137C69.2319 90.6247 69.5552 91.4018 70.1291 91.9749C70.7029 92.5479 71.4805 92.8701 72.2914 92.8708H75.7085C76.52 92.8701 77.298 92.5475 77.872 91.9738C78.4459 91.4002 78.7688 90.6223 78.77 89.8108C78.7677 89.7735 78.7767 89.7364 78.7959 89.7042C78.8151 89.6721 78.8435 89.6465 78.8774 89.6308ZM75.8668 89.8108C75.8664 89.8525 75.8495 89.8924 75.8199 89.9218C75.7903 89.9511 75.7503 89.9676 75.7085 89.9676H72.2914C72.2497 89.9676 72.2097 89.9511 72.1801 89.9218C72.1504 89.8924 72.1336 89.8525 72.1332 89.8108C72.139 89.1538 71.9337 88.5123 71.5474 87.9807C71.1612 87.4492 70.6144 87.0557 69.9877 86.8583C69.2165 86.6174 68.4687 86.3069 67.7537 85.9307C67.3164 85.7003 66.8297 85.5798 66.3355 85.5794C65.9272 85.5806 65.5231 85.6623 65.1465 85.82C64.7698 85.9777 64.428 86.2082 64.1406 86.4983C64.111 86.5279 64.0708 86.5445 64.0289 86.5445C63.987 86.5445 63.9468 86.5279 63.9171 86.4983L61.5002 84.0813C61.4705 84.0514 61.4538 84.011 61.4538 83.9688C61.4538 83.9267 61.4705 83.8862 61.5002 83.8563C61.9703 83.3946 62.2793 82.7939 62.3815 82.1429C62.4838 81.4919 62.3737 80.8254 62.0677 80.2418C61.6923 79.5271 61.3823 78.7798 61.1416 78.0092C60.9442 77.3825 60.5507 76.8358 60.0192 76.4495C59.4876 76.0633 58.8461 75.8579 58.189 75.8637C58.1478 75.8634 58.1084 75.8469 58.0791 75.8179C58.0498 75.7889 58.033 75.7496 58.0323 75.7084V72.2913C58.0323 72.2496 58.0487 72.2096 58.0781 72.18C58.1074 72.1503 58.1473 72.1335 58.189 72.1331C58.8461 72.1389 59.4876 71.9335 60.0192 71.5473C60.5507 71.161 60.9442 70.6143 61.1416 69.9876C61.3825 69.2164 61.6929 68.4686 62.0692 67.7536C62.3744 67.1701 62.484 66.5039 62.3818 65.8534C62.2796 65.2028 61.971 64.6024 61.5016 64.1405C61.472 64.1109 61.4554 64.0707 61.4554 64.0287C61.4554 63.9868 61.472 63.9466 61.5016 63.917L63.9185 61.5C63.9486 61.4707 63.989 61.4543 64.031 61.4543C64.0731 61.4543 64.1134 61.4707 64.1435 61.5C64.6054 61.9689 65.2057 62.277 65.856 62.3789C66.5062 62.4808 67.1719 62.3712 67.7552 62.0662C68.4798 61.6852 69.2378 61.3713 70.0197 61.1284C70.6425 60.9318 71.185 60.539 71.5662 60.0087C71.9474 59.4784 72.1468 58.839 72.1347 58.186C72.1358 58.145 72.1528 58.1061 72.182 58.0774C72.2112 58.0487 72.2505 58.0325 72.2914 58.0321H75.7085C75.7503 58.0321 75.7903 58.0486 75.8199 58.078C75.8495 58.1073 75.8664 58.1472 75.8668 58.1889C75.861 58.8459 76.0663 59.4875 76.4526 60.019C76.8388 60.5506 77.3856 60.9441 78.0123 61.1415C78.7835 61.3823 79.5313 61.6928 80.2463 62.0691C80.8299 62.374 81.496 62.4835 82.1464 62.3813C82.7969 62.2791 83.3974 61.9707 83.8593 61.5015C83.889 61.4719 83.9292 61.4553 83.9711 61.4553C84.013 61.4553 84.0532 61.4719 84.0829 61.5015L86.4998 63.9184C86.5295 63.9483 86.5462 63.9888 86.5462 64.0309C86.5462 64.0731 86.5295 64.1135 86.4998 64.1434C86.0297 64.6051 85.7207 65.2059 85.6184 65.8568C85.5162 66.5078 85.6263 67.1744 85.9323 67.7579C86.3077 68.4727 86.6177 69.2199 86.8584 69.9905C87.0558 70.6172 87.4493 71.164 87.9808 71.5502C88.5124 71.9365 89.1539 72.1418 89.811 72.136C89.8527 72.1364 89.8925 72.1532 89.9219 72.1829C89.9513 72.2125 89.9677 72.2525 89.9677 72.2942V75.7113C89.9677 75.7984 89.8966 75.8695 89.7761 75.8695C89.1293 75.8646 88.498 76.0676 87.9752 76.4487C87.4525 76.8297 87.0661 77.3687 86.8729 77.986C86.6309 78.7675 86.3175 79.525 85.9366 80.2491C85.6314 80.8326 85.5218 81.4987 85.624 82.1493C85.7262 82.7998 86.0348 83.4003 86.5042 83.8621C86.5338 83.8918 86.5504 83.932 86.5504 83.9739C86.5504 84.0158 86.5338 84.056 86.5042 84.0857L84.0873 86.5026C84.0725 86.5175 84.055 86.5293 84.0357 86.5374C84.0164 86.5454 83.9957 86.5496 83.9747 86.5496C83.9538 86.5496 83.9331 86.5454 83.9138 86.5374C83.8945 86.5293 83.877 86.5175 83.8622 86.5026C83.4003 86.0309 82.7987 85.7207 82.1466 85.6179C81.4944 85.5151 80.8265 85.6253 80.2419 85.9321C79.5272 86.3076 78.78 86.6175 78.0093 86.8583C77.3832 87.0562 76.8371 87.4499 76.4514 87.9814C76.0657 88.5129 75.8608 89.1542 75.8668 89.8108Z" fill="white"/>
<path d="M84.1613 74.0002C84.1613 71.9904 83.5653 70.0259 82.4488 68.3549C81.3323 66.6838 79.7453 65.3814 77.8886 64.6124C76.0318 63.8433 73.9887 63.642 72.0176 64.0341C70.0465 64.4262 68.236 65.394 66.8149 66.815C65.3938 68.2361 64.426 70.0467 64.034 72.0178C63.6419 73.9889 63.8431 76.032 64.6122 77.8887C65.3813 79.7455 66.6837 81.3324 68.3547 82.449C70.0257 83.5655 71.9903 84.1615 74 84.1615C76.694 84.1584 79.2768 83.0868 81.1817 81.1819C83.0867 79.2769 84.1582 76.6942 84.1613 74.0002ZM74 81.2582C72.5645 81.2582 71.1612 80.8325 69.9676 80.035C68.7741 79.2375 67.8438 78.1039 67.2944 76.7777C66.7451 75.4515 66.6014 73.9921 66.8814 72.5842C67.1615 71.1763 67.8527 69.883 68.8678 68.8679C69.8828 67.8529 71.1761 67.1616 72.584 66.8816C73.992 66.6015 75.4513 66.7452 76.7776 67.2946C78.1038 67.8439 79.2373 68.7742 80.0349 69.9678C80.8324 71.1614 81.2581 72.5647 81.2581 74.0002C81.2558 75.9244 80.4903 77.7692 79.1297 79.1298C77.769 80.4905 75.9243 81.2559 74 81.2582Z" fill="white"/>
<path d="M39.1613 49.3226C41.171 49.3226 43.1356 48.7266 44.8066 47.6101C46.4776 46.4936 47.78 44.9066 48.5491 43.0499C49.3182 41.1931 49.5194 39.15 49.1273 37.1789C48.7353 35.2078 47.7675 33.3973 46.3464 31.9762C44.9253 30.5551 43.1148 29.5873 41.1437 29.1953C39.1726 28.8032 37.1295 29.0044 35.2727 29.7735C33.416 30.5426 31.829 31.845 30.7125 33.516C29.5959 35.187 29 37.1516 29 39.1613C29.0031 41.8553 30.0746 44.4381 31.9796 46.343C33.8845 48.248 36.4673 49.3195 39.1613 49.3226ZM39.1613 31.9032C40.5968 31.9032 42.0001 32.3289 43.1937 33.1264C44.3872 33.924 45.3175 35.0575 45.8669 36.3838C46.4162 37.71 46.5599 39.1693 46.2799 40.5773C45.9998 41.9852 45.3086 43.2785 44.2935 44.2935C43.2785 45.3086 41.9852 45.9998 40.5773 46.2799C39.1693 46.56 37.71 46.4162 36.3837 45.8669C35.0575 45.3175 33.924 44.3872 33.1264 43.1937C32.3289 42.0001 31.9032 40.5968 31.9032 39.1613C31.9055 37.237 32.671 35.3923 34.0316 34.0316C35.3923 32.671 37.237 31.9055 39.1613 31.9032Z" fill="white"/>
<path d="M108.839 29C106.829 29 104.864 29.5959 103.193 30.7125C101.522 31.829 100.22 33.416 99.4509 35.2727C98.6818 37.1295 98.4806 39.1726 98.8727 41.1437C99.2648 43.1148 100.233 44.9253 101.654 46.3464C103.075 47.7675 104.885 48.7353 106.856 49.1273C108.827 49.5194 110.871 49.3182 112.727 48.5491C114.584 47.78 116.171 46.4776 117.288 44.8066C118.404 43.1356 119 41.171 119 39.1613C118.997 36.4673 117.925 33.8845 116.02 31.9796C114.116 30.0746 111.533 29.0031 108.839 29ZM108.839 46.4194C107.403 46.4194 106 45.9937 104.806 45.1961C103.613 44.3986 102.682 43.2651 102.133 41.9388C101.584 40.6126 101.44 39.1532 101.72 37.7453C102 36.3374 102.691 35.0441 103.706 34.0291C104.722 33.014 106.015 32.3227 107.423 32.0427C108.831 31.7626 110.29 31.9064 111.616 32.4557C112.943 33.0051 114.076 33.9353 114.874 35.1289C115.671 36.3225 116.097 37.7258 116.097 39.1613C116.094 41.0855 115.329 42.9303 113.968 44.291C112.608 45.6516 110.763 46.417 108.839 46.4194Z" fill="white"/>
<path d="M39.1613 98.6777C37.1516 98.6777 35.187 99.2737 33.516 100.39C31.845 101.507 30.5426 103.094 29.7735 104.95C29.0044 106.807 28.8032 108.85 29.1953 110.821C29.5873 112.792 30.5551 114.603 31.9762 116.024C33.3973 117.445 35.2078 118.413 37.1789 118.805C39.15 119.197 41.1931 118.996 43.0499 118.227C44.9066 117.458 46.4936 116.155 47.6101 114.484C48.7266 112.813 49.3226 110.849 49.3226 108.839C49.3195 106.145 48.248 103.562 46.343 101.657C44.4381 99.7524 41.8553 98.6808 39.1613 98.6777ZM39.1613 116.097C37.7258 116.097 36.3225 115.671 35.1289 114.874C33.9353 114.076 33.0051 112.943 32.4557 111.617C31.9064 110.29 31.7626 108.831 32.0427 107.423C32.3227 106.015 33.014 104.722 34.0291 103.707C35.0441 102.692 36.3374 102 37.7453 101.72C39.1532 101.44 40.6126 101.584 41.9388 102.133C43.2651 102.683 44.3986 103.613 45.1962 104.807C45.9937 106 46.4194 107.404 46.4194 108.839C46.4171 110.763 45.6516 112.608 44.291 113.969C42.9303 115.329 41.0855 116.095 39.1613 116.097Z" fill="white"/>
<path d="M108.839 98.6777C106.829 98.6777 104.864 99.2737 103.193 100.39C101.522 101.507 100.22 103.094 99.4509 104.95C98.6818 106.807 98.4806 108.85 98.8727 110.821C99.2648 112.792 100.233 114.603 101.654 116.024C103.075 117.445 104.885 118.413 106.856 118.805C108.827 119.197 110.871 118.996 112.727 118.227C114.584 117.458 116.171 116.155 117.288 114.484C118.404 112.813 119 110.849 119 108.839C118.997 106.145 117.925 103.562 116.02 101.657C114.116 99.7524 111.533 98.6808 108.839 98.6777ZM108.839 116.097C107.403 116.097 106 115.671 104.806 114.874C103.613 114.076 102.682 112.943 102.133 111.617C101.584 110.29 101.44 108.831 101.72 107.423C102 106.015 102.691 104.722 103.706 103.707C104.722 102.692 106.015 102 107.423 101.72C108.831 101.44 110.29 101.584 111.616 102.133C112.943 102.683 114.076 103.613 114.874 104.807C115.671 106 116.097 107.404 116.097 108.839C116.094 110.763 115.329 112.608 113.968 113.969C112.608 115.329 110.763 116.095 108.839 116.097Z" fill="white"/>
<path d="M94.3226 37.71H78.3548V40.6132H94.3226V37.71Z" fill="white"/>
<path d="M75.4516 37.71H72.5484V40.6132H75.4516V37.71Z" fill="white"/>
<path d="M69.6452 37.71H53.6774V40.6132H69.6452V37.71Z" fill="white"/>
<path d="M100.129 72.5488H97.2258V75.4521H100.129V72.5488Z" fill="white"/>
<path d="M110.29 74.0003V53.6777H107.387V72.5487H103.032V75.4519H108.839C109.224 75.4519 109.593 75.299 109.865 75.0268C110.137 74.7545 110.29 74.3853 110.29 74.0003Z" fill="white"/>
<path d="M37.7097 74.0004V94.323H40.6129V75.4521H44.9678V72.5488H39.1613C38.7763 72.5488 38.4071 72.7018 38.1349 72.974C37.8626 73.2462 37.7097 73.6154 37.7097 74.0004Z" fill="white"/>
<path d="M50.7742 72.5488H47.871V75.4521H50.7742V72.5488Z" fill="white"/>
<path d="M94.3226 107.387H78.3548V110.29H94.3226V107.387Z" fill="white"/>
<path d="M75.4516 107.387H72.5484V110.29H75.4516V107.387Z" fill="white"/>
<path d="M69.6452 107.387H53.6774V110.29H69.6452V107.387Z" fill="white"/>
<defs>
<linearGradient id="paint0_linear_36_967" x1="148.78" y1="74.39" x2="0" y2="74.39" gradientUnits="userSpaceOnUse">
<stop stop-color="#3B3B3B"/>
<stop offset="1" stop-color="#191919"/>
</linearGradient>
</defs>
</svg>
