<?xml version="1.0" encoding="UTF-8"?><svg id="Layer_1" xmlns="http://www.w3.org/2000/svg" viewBox="0 0 50.35 50.35"><defs><style>.cls-1{fill:#000;stroke-width:0px;}</style></defs><path class="cls-1" d="M46.43,49.67H3.93c-.1-.04-.2-.08-.3-.11-1.43-.39-2.37-1.28-2.81-2.7-.05-.15-.1-.29-.14-.44,0-14.16,0-28.33,0-42.49.03-.05.07-.11.08-.17.48-1.96,1.89-3.08,3.93-3.08,13.65,0,27.31,0,40.96,0,.41,0,.83.04,1.23.14,1.71.45,2.79,1.95,2.79,3.82,0,13.68,0,27.36,0,41.04,0,.1,0,.19,0,.29-.11,1.51-.81,2.63-2.18,3.3-.34.17-.71.26-1.07.39ZM2.2,11.39c0,.21,0,.37,0,.53,0,11.24,0,22.48,0,33.73,0,1.61.91,2.5,2.53,2.51,13.64,0,27.27,0,40.91,0,1.62,0,2.52-.9,2.52-2.52,0-11.24,0-22.48,0-33.73v-.52H2.2ZM2.23,9.83h45.93v-.54c0-1.48,0-2.97,0-4.45,0-1.79-.85-2.64-2.63-2.64-13.56,0-27.12,0-40.68,0-.14,0-.29,0-.43,0-1.25.04-2.2.98-2.21,2.24-.02,1.71,0,3.41,0,5.12,0,.08.01.15.03.27Z"/><path class="cls-1" d="M37.65,22.4c.5-.51.96-1,1.43-1.47.43-.43.88-.46,1.21-.12.32.33.27.77-.13,1.18-.48.48-.97.95-1.44,1.4.67.91,1.33,1.72,1.9,2.6,2.36,3.68,3.25,7.71,2.82,12.04-.07.72-.59,1.08-1.13.8-.37-.19-.43-.53-.39-.9.16-1.51.15-3.02-.08-4.53-.51-3.32-1.89-6.23-4.11-8.74-.03-.03-.07-.05-.14-.1-.12.11-.23.21-.34.32-3.03,3.03-6.06,6.07-9.11,9.09-.26.25-.29.43-.14.77.58,1.34.08,2.89-1.15,3.7-1.22.8-2.83.63-3.86-.42-1.02-1.03-1.18-2.62-.38-3.82.82-1.23,2.36-1.73,3.7-1.14.34.15.52.1.77-.15,3.04-3.05,6.08-6.09,9.13-9.14.09-.09.21-.15.4-.43-.13-.06-.28-.09-.39-.18-4.98-4.1-10.58-5.27-16.65-3.13-5.93,2.1-9.55,6.43-10.93,12.58-.37,1.62-.42,3.29-.25,4.95.02.21.04.41.03.62-.01.4-.3.72-.68.73-.4.01-.7-.17-.77-.57-.09-.52-.14-1.04-.16-1.57-.39-9.34,6.09-17.43,15.31-18.98,5.64-.95,10.67.52,15.05,4.2.13.11.27.22.47.39ZM26.72,35.91c0-.85-.68-1.55-1.53-1.56-.85,0-1.55.68-1.56,1.53,0,.86.67,1.54,1.53,1.55.87,0,1.55-.66,1.56-1.52Z"/><path class="cls-1" d="M32.05,3.73c1.29,0,2.32,1.01,2.32,2.28,0,1.27-1.02,2.31-2.3,2.3-1.23,0-2.28-1.05-2.28-2.29,0-1.26,1.02-2.29,2.26-2.3ZM32.86,6.04c0-.44-.33-.78-.77-.79-.43,0-.78.35-.78.78,0,.41.35.76.75.77.44.01.8-.33.8-.76Z"/><path class="cls-1" d="M38.19,3.73c1.28,0,2.31,1.02,2.31,2.3,0,1.27-1.04,2.3-2.32,2.29-1.23,0-2.28-1.07-2.27-2.3.01-1.26,1.03-2.28,2.28-2.28ZM38.19,5.25c-.43,0-.77.37-.76.81.01.41.37.75.77.74.44,0,.79-.35.78-.79,0-.44-.35-.77-.79-.77Z"/><path class="cls-1" d="M46.62,6.02c0,1.25-1.01,2.3-2.25,2.31-1.27.01-2.34-1.03-2.33-2.29,0-1.27,1.04-2.3,2.32-2.3,1.26,0,2.26,1.01,2.27,2.28ZM45.1,6.04c0-.45-.34-.79-.77-.79-.44,0-.78.35-.78.79,0,.42.38.77.81.77.41,0,.74-.35.74-.77Z"/></svg>