<?xml version="1.0" encoding="UTF-8"?><svg id="Layer_1" xmlns="http://www.w3.org/2000/svg" viewBox="0 0 50.35 50.35"><defs><style>.cls-1{fill:#000;stroke-width:0px;}</style></defs><path class="cls-1" d="M22.71,49.41c-.91-.51-1.04-.79-.93-1.83.57-5.03,1.13-10.06,1.7-15.08.08-.69.16-1.38.25-2.14h-.58c-2.89,0-5.77,0-8.66,0-1.51,0-2.12-.98-1.46-2.32,4.33-8.7,8.66-17.4,12.99-26.1.06-.13.13-.25.2-.37.32-.49.88-.72,1.38-.59.56.15,1.01.65.97,1.25-.07,1.08-.2,2.16-.32,3.24-.36,3.16-.73,6.33-1.09,9.49-.21,1.79-.41,3.57-.61,5.36-.02.15-.03.3-.05.51.21,0,.38,0,.55,0,3.06,0,6.12,0,9.18,0,.93,0,1.49.6,1.34,1.41-.04.2-.13.39-.22.57-4.35,8.55-8.69,17.1-13.06,25.65-.19.38-.6.64-.91.96h-.66Z"/><path class="cls-1" d="M22.12,3.97c-.56,1.13-1.09,2.2-1.62,3.27-.41.82-.8,1.64-1.23,2.45-.12.21-.33.43-.55.52-3.55,1.6-6.28,4.08-8.03,7.56-2.31,4.6-2.45,9.31-.37,14.02,1.84,4.19,5,7.05,9.26,8.69.13.05.26.1.41.16-.19,1.73-.39,3.43-.58,5.14-7.46-1.8-15.69-9.41-15.67-20.61.02-11.62,8.88-19.95,18.4-21.2Z"/><path class="cls-1" d="M28.27,46.36c.14-.28.27-.53.39-.78.83-1.64,1.66-3.29,2.51-4.92.12-.23.35-.45.58-.56,4.79-2.25,7.95-5.89,9.22-11.03,1.23-4.95.25-9.54-2.78-13.66-1.91-2.59-4.42-4.42-7.44-5.54-.12-.04-.23-.09-.39-.16.2-1.72.39-3.43.59-5.16,8.41,2.14,16.63,10.81,15.58,22.57-1.01,11.23-10.11,18.3-18.27,19.23Z"/></svg>