<?xml version="1.0" encoding="UTF-8"?><svg id="Layer_1" xmlns="http://www.w3.org/2000/svg" viewBox="0 0 60 60"><defs><style>.cls-1{fill:#fff;fill-rule:evenodd;}.cls-1,.cls-2{stroke-width:0px;}.cls-2{fill:#f48120;}</style></defs><circle class="cls-2" cx="30" cy="30" r="30"/><path class="cls-1" d="M36.63,45.5c-.4,0-.72-.35-.72-.75v-7.94c-1.15-.32-2-1.4-2-2.65,0-1.5,1.22-2.75,2.72-2.75s2.75,1.25,2.75,2.75c0,1.25-.85,2.32-2,2.65v7.94c0,.4-.32.75-.75.75ZM39.58,45.5c-.4,0-.75-.35-.75-.75v-3.79c0-.4.35-.75.75-.75.42,0,.75.35.75.75v3.79c0,.4-.32.75-.75.75ZM42.53,45.5c-.4,0-.75-.35-.75-.75v-3.79c0-.4.35-.75.75-.75s.75.35.75.75v3.79c0,.4-.35.75-.75.75ZM44.72,36.81c-1.15-.32-2-1.4-2-2.65,0-1.5,1.22-2.75,2.75-2.75s2.72,1.25,2.72,2.75c0,1.25-.82,2.32-1.97,2.65v7.94c0,.4-.35.75-.75.75-.42,0-.75-.35-.75-.75v-7.94Z"/><path class="cls-1" d="M47.39,49.52H12.57c-.4,0-.75-.35-.75-.75v-4.02c0-.42.35-.75.75-.75h34.83c.4,0,.72.32.72.75v4.02c0,.4-.32.75-.72.75ZM13.32,48.02h33.33v-2.52H13.32v2.52Z"/><path class="cls-1" d="M50.54,45.5H9.42c-.42,0-.75-.35-.75-.75v-16.18c0-.4.32-.75.75-.75h41.12c.4,0,.75.35.75.75v16.18c0,.4-.35.75-.75.75ZM10.17,44h39.62v-14.68H10.17v14.68Z"/><path class="cls-1" d="M29.97,40.91h-14.2c-.42,0-.75-.32-.75-.75v-6.99c0-.42.32-.75.75-.75h14.2c.42,0,.75.32.75.75v6.99c0,.42-.32.75-.75.75ZM16.49,39.44h12.73v-5.54h-12.73v5.54Z"/><path class="cls-1" d="M15.76,40.91h-3.27c-.4,0-.75-.32-.75-.75v-6.99c0-.42.35-.75.75-.75h3.27c.4,0,.72.32.72.75v6.99c0,.42-.32.75-.72.75ZM13.24,39.44h1.77v-5.54h-1.77v5.54ZM11.59,25.88h0c-.2,0-.4-.07-.52-.22l-2.17-2.17c-.3-.27-.3-.75,0-1.05l9.89-9.89c.3-.3.77-.3,1.05,0l2.17,2.17c.3.27.3.75,0,1.05l-9.89,9.89c-.15.15-.32.22-.52.22ZM10.47,22.96l1.12,1.12,8.84-8.84-1.12-1.12-8.84,8.84ZM24.5,12.97h-.05c-.22-.02-.42-.12-.55-.3-.3-.37-.62-.72-.95-1.07-.35-.35-.7-.65-1.1-.95-.15-.12-.27-.32-.27-.55-.02-.2.05-.42.22-.57l1.9-1.9c.27-.27.75-.27,1.05,0l2.17,2.17c.12.15.2.32.2.52s-.07.4-.2.52l-1.9,1.9c-.15.15-.35.22-.52.22ZM23.43,10c.2.17.4.35.57.55.17.17.37.37.55.57l.77-.8-1.1-1.1-.8.77ZM29.39,23.86c-.12,0-.25-.02-.37-.1-.35-.2-.47-.65-.3-1l2.27-4.19c.2-.35.65-.47,1.02-.3.35.2.5.65.3,1.02l-2.27,4.17c-.12.25-.4.4-.65.4ZM30.82,26.25c-.32,0-.62-.2-.72-.52-.1-.4.12-.82.52-.92l4.17-1.25c.37-.12.8.1.92.5.1.4-.12.82-.52.92l-4.14,1.25c-.07.02-.15.02-.22.02ZM44.2,24.88h-3.17c-.42,0-.75-.35-.75-.75v-2c-.7-.27-1.32-.65-1.9-1.1l-1.75,1c-.35.2-.8.07-1.02-.27l-1.57-2.75c-.1-.17-.12-.37-.07-.57s.17-.35.35-.45l1.72-1c-.05-.37-.07-.72-.07-1.1s.02-.75.07-1.1l-1.72-1c-.17-.1-.3-.27-.35-.45-.05-.2-.02-.4.07-.57l1.57-2.75c.22-.35.67-.47,1.02-.27l1.75,1c.55-.47,1.2-.85,1.9-1.1v-2c0-.42.32-.75.75-.75h3.17c.4,0,.75.32.75.75v2c.67.25,1.32.62,1.9,1.1l1.72-1c.37-.2.82-.07,1.02.27l1.6,2.75c.1.17.12.37.07.57-.05.17-.17.35-.35.45l-1.75,1c.07.35.1.72.1,1.1s-.02.72-.1,1.1l1.75,1c.17.1.3.25.35.45s.02.4-.07.57l-1.6,2.75c-.1.17-.25.3-.45.35s-.4.02-.57-.07l-1.72-1c-.57.45-1.22.82-1.9,1.1v2c0,.4-.35.75-.75.75ZM41.75,23.38h1.7v-1.8c0-.32.22-.62.55-.72.82-.22,1.6-.67,2.22-1.27.25-.25.6-.3.9-.12l1.55.9.85-1.45-1.55-.9c-.3-.17-.45-.52-.35-.85.1-.4.15-.85.15-1.27,0-.45-.05-.87-.15-1.3-.1-.32.05-.65.35-.82l1.55-.9-.85-1.47-1.55.92c-.3.15-.65.1-.9-.12-.62-.6-1.4-1.05-2.22-1.3-.32-.07-.55-.37-.55-.7v-1.8h-1.7v1.8c0,.32-.2.62-.52.7-.85.25-1.62.7-2.25,1.3-.22.22-.6.27-.87.12l-1.57-.9-.85,1.45,1.57.9c.27.17.42.5.35.82-.12.42-.17.85-.17,1.3,0,.42.05.87.17,1.27.07.32-.07.67-.35.85l-1.57.9.85,1.45,1.57-.9c.27-.17.65-.12.87.12.62.6,1.4,1.05,2.25,1.27.32.1.52.4.52.72v1.8Z"/><path class="cls-1" d="M42.6,19.76c-2.15,0-3.87-1.72-3.87-3.87s1.72-3.89,3.87-3.89,3.89,1.75,3.89,3.89-1.75,3.87-3.89,3.87ZM42.6,13.5c-1.32,0-2.4,1.07-2.4,2.4s1.07,2.4,2.4,2.4,2.4-1.07,2.4-2.4-1.07-2.4-2.4-2.4Z"/><path class="cls-1" d="M26.82,21.34c-.17,0-.37-.07-.52-.22l-12.86-12.86c-.22-.22-.27-.52-.17-.77.07-.27.32-.47.62-.5.42-.05.87-.07,1.32-.07,3.32,0,6.44,1.3,8.79,3.64,2.67,2.67,3.97,6.37,3.57,10.11-.02.3-.22.55-.5.62-.07.02-.15.05-.25.05Z"/></svg>