<svg xmlns="http://www.w3.org/2000/svg" width="60" height="60" viewBox="0 0 60 60">
  <g id="Group_521" data-name="Group 521" transform="translate(-652 -4535)">
    <circle id="Ellipse_14" data-name="Ellipse 14" cx="30" cy="30" r="30" transform="translate(652 4535)" fill="#fff2e8"/>
    <g id="analytics-board-bussiness-svgrepo-com" transform="translate(583.8 4476.41)">
      <path id="Path_9212" data-name="Path 9212" d="M114.8,72.793H98.336V71.236a.336.336,0,0,0-.673,0v1.557H81.2v4.335h.788L81.969,97.58H92.262l-1.672,8.9h1.663l2.653-8.9h1.816l.452,5.911H98.8l.452-5.911h1.826l2.653,8.9h1.663l-1.672-8.9h10.293V77.128h.788ZM91.753,105.807h-.346l1.547-8.227H94.2Zm6.43-2.979H97.8l-.4-5.238h1.182Zm6.4,2.979h-.346l-2.451-8.227h1.249Zm8.083-9.573H83.314l.019-19.107h29.333Zm-30.121-22.1h30.909v1.643H82.546Z" transform="translate(0 0)" fill="#f48120"/>
      <path id="Path_9213" data-name="Path 9213" d="M372.836,158.573h1.211a.336.336,0,1,0,0-.673h-1.211a.336.336,0,1,0,0,.673Z" transform="translate(-263.303 -78.638)" fill="#f48120"/>
      <path id="Path_9214" data-name="Path 9214" d="M265.936,158.573h8.554a.336.336,0,0,0,0-.673h-8.554a.336.336,0,1,0,0,.673Z" transform="translate(-166.677 -78.638)" fill="#f48120"/>
      <path id="Path_9215" data-name="Path 9215" d="M265.936,170.873h11.485a.336.336,0,1,0,0-.673H265.936a.336.336,0,1,0,0,.673Z" transform="translate(-166.677 -89.756)" fill="#f48120"/>
      <path id="Path_9216" data-name="Path 9216" d="M322.706,182.5h-6.67a.336.336,0,0,0,0,.673h6.67a.336.336,0,0,0,0-.673Z" transform="translate(-211.962 -100.874)" fill="#f48120"/>
      <path id="Path_9217" data-name="Path 9217" d="M265.936,183.173h3.5a.336.336,0,1,0,0-.673h-3.5a.336.336,0,1,0,0,.673Z" transform="translate(-166.677 -100.874)" fill="#f48120"/>
      <path id="Path_9218" data-name="Path 9218" d="M265.936,195.473h11.485a.336.336,0,1,0,0-.673H265.936a.336.336,0,1,0,0,.673Z" transform="translate(-166.677 -111.992)" fill="#f48120"/>
      <path id="Path_9219" data-name="Path 9219" d="M372.24,207.1h-1.4a.336.336,0,0,0,0,.673h1.4a.336.336,0,1,0,0-.673Z" transform="translate(-261.496 -123.11)" fill="#f48120"/>
      <path id="Path_9220" data-name="Path 9220" d="M265.936,207.773h8.4a.336.336,0,0,0,0-.673h-8.4a.336.336,0,1,0,0,.673Z" transform="translate(-166.677 -123.11)" fill="#f48120"/>
      <path id="Path_9221" data-name="Path 9221" d="M265.936,219.973h11.485a.336.336,0,1,0,0-.673H265.936a.336.336,0,1,0,0,.673Z" transform="translate(-166.677 -134.137)" fill="#f48120"/>
      <path id="Path_9222" data-name="Path 9222" d="M265.936,232.273h9.755a.336.336,0,1,0,0-.673h-9.755a.336.336,0,1,0,0,.673Z" transform="translate(-166.677 -145.255)" fill="#f48120"/>
      <path id="Path_9223" data-name="Path 9223" d="M277.758,253.7H265.6v5.238h12.158Zm-.673,4.565H266.273v-3.892h10.812Z" transform="translate(-166.677 -165.231)" fill="#f48120"/>
      <path id="Path_9224" data-name="Path 9224" d="M130.109,192.128a5.213,5.213,0,0,0,5.209-5.209v-.336h-4.834l.529-4.805-.336-.048c-.192-.019-.384-.029-.567-.029a5.214,5.214,0,0,0,0,10.428Zm0-9.755h.163l-.538,4.873h4.9a4.538,4.538,0,1,1-4.527-4.873Z" transform="translate(-39.5 -100.151)" fill="#f48120"/>
      <path id="Path_9225" data-name="Path 9225" d="M191.242,177.606l-.067-.327a5.181,5.181,0,0,0-3.585-3.883l-.317-.1-1.672,5.536Zm-3.537-3.47a4.486,4.486,0,0,1,1.7,1.163,4.58,4.58,0,0,1,1.019,1.8l-3.864.836Z" transform="translate(-94.366 -92.558)" fill="#f48120"/>
    </g>
  </g>
</svg>
