<svg width="45" height="45" viewBox="0 0 45 45" fill="none" xmlns="http://www.w3.org/2000/svg">
<rect x="0.000137329" width="45" height="45" rx="22.5" fill="url(#paint0_linear_1_16)"/>
<path fill-rule="evenodd" clip-rule="evenodd" d="M19.5603 38.0469H17.2594C17.0553 38.0469 16.8883 37.8675 16.8326 37.6882L16.1275 34.5791C15.645 34.4197 15.1811 34.2005 14.7172 33.9015L12.3606 35.4959C12.1751 35.6155 11.9338 35.5756 11.7854 35.4361L10.171 33.7022C10.004 33.5428 9.98548 33.2837 10.0968 33.1243L11.6369 30.3939C11.3957 29.9156 11.2287 29.3974 11.0988 28.8394L8.37112 28.1419C8.167 28.102 8 27.9027 8 27.6835V25.2122C8 24.993 8.167 24.7937 8.33401 24.7538L11.2473 23.9965C11.4328 23.4185 11.6369 22.9203 11.8967 22.5018L10.3937 19.9308C10.3009 19.7515 10.3195 19.4924 10.4679 19.3329L12.1008 17.5991C12.2493 17.4197 12.4905 17.3998 12.639 17.4994L15.1811 19.1735C15.6636 18.9144 16.1275 18.7151 16.6285 18.5756L17.2408 15.646C17.2965 15.4267 17.482 15.2673 17.6862 15.2673H19.9871C20.2097 15.2673 20.3768 15.4267 20.4324 15.626L21.119 18.755C21.5829 18.9144 22.0839 19.1735 22.5107 19.4326L24.8858 17.8382C25.0714 17.7186 25.2941 17.7585 25.4425 17.898L27.0754 19.6319C27.2239 19.7913 27.261 20.0504 27.1496 20.2497L25.6095 22.9601C25.8322 23.4584 26.0177 23.9766 26.1662 24.5346L29.4691 25.3318C29.6918 25.3916 29.8588 25.6506 29.8031 25.9097C29.7475 26.1489 29.4877 26.3283 29.265 26.2685L25.6837 25.3916C25.4982 25.3517 25.3683 25.1923 25.3497 25.0328C25.2198 24.3552 24.9972 23.7573 24.6817 23.1794C24.6075 23 24.6075 22.8406 24.6817 22.6811L26.1662 20.0504L25.0343 18.8347L22.7148 20.4091C22.5663 20.5287 22.3808 20.5287 22.2323 20.4091C21.6942 20.0504 21.119 19.7714 20.5623 19.5721C20.4139 19.5322 20.284 19.3927 20.2469 19.2134L19.6345 16.2638H18.0387L17.4264 19.1137C17.3893 19.2931 17.2408 19.4326 17.0924 19.4725C16.5171 19.612 15.9233 19.8312 15.3667 20.1501C15.2368 20.2497 15.0512 20.2497 14.9213 20.1301L12.4534 18.5358L11.3401 19.7116L12.7874 22.2028C12.8987 22.3623 12.8616 22.5615 12.7874 22.721C12.4905 23.2192 12.2493 23.8171 12.0266 24.5346C11.971 24.694 11.8411 24.7937 11.6926 24.8535L8.90924 25.5709V27.2849L11.5813 27.9625C11.7668 27.9824 11.8967 28.1419 11.9153 28.3212C12.0637 28.9988 12.2678 29.6366 12.5647 30.1747C12.639 30.3341 12.639 30.4936 12.5647 30.653L11.0617 33.2837L12.1936 34.4994L14.5131 32.925C14.6615 32.8253 14.8471 32.8253 14.9956 32.925C15.5522 33.2837 16.1089 33.5627 16.6841 33.762C16.8326 33.8218 16.9625 33.9613 16.981 34.1208L17.649 37.1102H19.2263L19.8386 34.2603C19.8757 34.061 20.0242 33.9215 20.1726 33.9015C20.8221 33.7222 21.3788 33.5029 21.8798 33.204C22.0839 33.0645 22.3622 33.1442 22.4921 33.4033C22.622 33.6424 22.5478 33.9215 22.3066 34.061C21.8241 34.3599 21.2489 34.619 20.6365 34.7784L20.0242 37.7081C19.9685 37.9074 19.783 38.0469 19.5603 38.0469Z" fill="white"/>
<path fill-rule="evenodd" clip-rule="evenodd" d="M27.8733 38.1465C25.3683 38.1465 23.3457 35.9742 23.3457 33.3236C23.3457 30.6331 25.3683 28.4607 27.8733 28.4607C30.3598 28.4607 32.3824 30.6331 32.3824 33.3236C32.3824 35.9742 30.3598 38.1465 27.8733 38.1465ZM27.8733 29.4173C25.8693 29.4173 24.2364 31.1512 24.2364 33.3236C24.2364 35.4361 25.8693 37.1899 27.8733 37.1899C29.8588 37.1899 31.4731 35.4361 31.4731 33.3236C31.4731 31.1512 29.8588 29.4173 27.8733 29.4173Z" fill="white"/>
<path fill-rule="evenodd" clip-rule="evenodd" d="M29.1351 34.9379C29.0238 34.9379 28.8939 34.898 28.8197 34.8183L27.6692 33.5627C27.595 33.483 27.5393 33.3435 27.5393 33.2239V30.9121C27.5393 30.6331 27.7434 30.4138 28.0032 30.4138C28.263 30.4138 28.4671 30.6331 28.4671 30.9121V33.0047L29.4877 34.1208C29.6732 34.32 29.6732 34.619 29.4877 34.8183C29.3578 34.898 29.2279 34.9379 29.1351 34.9379Z" fill="white"/>
<path fill-rule="evenodd" clip-rule="evenodd" d="M27.8733 40C24.4219 40 21.62 36.9906 21.62 33.3236C21.62 29.6166 24.4219 26.6073 27.8733 26.6073C31.2876 26.6073 34.0895 29.6166 34.0895 33.3236C34.0895 36.9906 31.2876 40 27.8733 40ZM27.8733 27.5639C24.9044 27.5639 22.5107 30.1348 22.5107 33.3236C22.5107 36.4725 24.9044 39.0434 27.8733 39.0434C30.8051 39.0434 33.1988 36.4725 33.1988 33.3236C33.1988 30.1348 30.8051 27.5639 27.8733 27.5639Z" fill="white"/>
<path fill-rule="evenodd" clip-rule="evenodd" d="M21.6942 20.0305C21.4344 20.0305 21.2303 19.7913 21.2303 19.5322V12.9156H20.2469C20.0984 12.9156 19.95 12.8359 19.8757 12.6764C19.783 12.4971 19.783 12.3376 19.8757 12.1782L23.0859 6.25909C23.1601 6.11958 23.3086 6 23.4756 6C23.624 6 23.7725 6.09965 23.8653 6.25909L27.0754 12.1981C27.1496 12.3376 27.1496 12.5369 27.0754 12.6964C27.0012 12.8558 26.8342 12.9555 26.6857 12.9555H25.7023V18.4162C25.7023 18.6952 25.4982 18.9144 25.2384 18.9144C24.9972 18.9144 24.7745 18.6952 24.7745 18.4162V12.4174C24.7745 12.1383 24.9972 11.9191 25.2384 11.9191H25.9064L23.4756 7.45487L21.0448 11.9191H21.6942C21.954 11.9191 22.1581 12.1383 22.1581 12.4174V19.5322C22.1581 19.7913 21.954 20.0305 21.6942 20.0305Z" fill="white"/>
<path fill-rule="evenodd" clip-rule="evenodd" d="M32.9205 30.7526C32.6607 30.7526 32.4566 30.5334 32.4566 30.2544V16.7022C32.4566 16.4232 32.6607 16.204 32.9205 16.204H33.6442L31.1391 10.3447L28.6341 16.204H29.3578C29.6176 16.204 29.8217 16.4232 29.8217 16.7022V27.265C29.8217 27.544 29.6176 27.7632 29.3578 27.7632C29.098 27.7632 28.8939 27.544 28.8939 27.265V17.2005H27.929C27.762 17.2005 27.6135 17.1208 27.5393 16.9812C27.4651 16.8417 27.428 16.6823 27.5022 16.5029L30.7309 9.02931C30.8051 8.84995 30.9536 8.7503 31.1391 8.7503C31.3247 8.7503 31.4731 8.84995 31.5474 9.02931L34.7761 16.5029C34.8132 16.6424 34.8132 16.8417 34.739 16.9812C34.6648 17.1208 34.5163 17.2005 34.3493 17.2005H33.3844V30.2544C33.3473 30.5334 33.1432 30.7526 32.9205 30.7526Z" fill="white"/>
<defs>
<linearGradient id="paint0_linear_1_16" x1="22.0001" y1="-3.29812e-07" x2="22.0001" y2="45" gradientUnits="userSpaceOnUse">
<stop stop-color="#353535"/>
<stop offset="0.122222" stop-color="#323232"/>
<stop offset="1" stop-color="#1B1B1B"/>
</linearGradient>
</defs>
</svg>
