<?xml version="1.0" encoding="utf-8"?>
<!-- Svg Vector Icons : http://www.onlinewebfonts.com/icon -->
<!DOCTYPE svg PUBLIC "-//W3C//DTD SVG 1.1//EN" "http://www.w3.org/Graphics/SVG/1.1/DTD/svg11.dtd">
<svg version="1.1" xmlns="http://www.w3.org/2000/svg" xmlns:xlink="http://www.w3.org/1999/xlink" x="0px" y="0px" viewBox="0 0 256 256" enable-background="new 0 0 256 256" xml:space="preserve">
<metadata> Svg Vector Icons : http://www.onlinewebfonts.com/icon </metadata>
<g><g><path fill="#000000" d="M239.3,41.6L177.6,3.4c-5.1-3.2-12-2.7-16.6,1l-33,26.5L95,4.4c-4.7-3.7-11.6-4.2-16.6-1L16.7,41.6c-8.2,5.1-9.1,17-1.6,23.2l28.6,23.9l-23.3,18.2c-7.7,5.9-7.3,17.9,0.9,23.3l59.2,39.2c5.1,3.4,11.8,3.1,16.7-0.6l30.8-23.7l30.6,23.7c4.7,3.6,11.8,3.9,16.8,0.6l59.2-39.2c8.1-5.4,8.5-17.3,0.9-23.2l-23.2-18.2l28.6-23.9C248.4,58.7,247.5,46.8,239.3,41.6L239.3,41.6z M198.3,96.9l27.2,21.3l-58.2,38.6l-27.1-21L198.3,96.9L198.3,96.9z M140.3,40.2l29.7-23.9l60.6,37.6l-30.6,25.6L140.3,40.2L140.3,40.2z M185.2,87.6L127.9,126L70.5,88L128,50L185.2,87.6L185.2,87.6z M115.7,135.8l-27,20.8l-58.4-38.4l26.9-21.1L115.7,135.8L115.7,135.8z M25.3,53.9l60.8-37.5l29.6,23.8L56.1,79.6L25.3,53.9L25.3,53.9z"/><path fill="#000000" d="M129.8,163.2l-39.6,30.1l-46.3-30.7v38.2c0,5.1,2.6,9.6,7.1,12.4l69.9,39.5c4.6,2.6,10.4,2.7,15,0.1l69.4-39.7c4.2-2.6,6.9-7.3,6.9-12.3v-35.9L169,193.2L129.8,163.2z M58.9,190.4L82.3,206c5.1,3.4,11.8,3.1,16.7-0.5l30.8-23.4l30.6,23.4c4.7,3.6,11.8,3.9,16.8,0.6l20-13.3v7.8l-68.6,39.2l-69.7-39.2V190.4L58.9,190.4z"/></g></g>
</svg>