<svg xmlns="http://www.w3.org/2000/svg" width="60" height="60" viewBox="0 0 60 60">
  <g id="Group_522" data-name="Group 522" transform="translate(-652 -4401)">
    <circle id="Ellipse_14" data-name="Ellipse 14" cx="30" cy="30" r="30" transform="translate(652 4401)" fill="#fff2e8"/>
    <g id="progress-svgrepo-com" transform="translate(663.833 4413.333)">
      <path id="Path_9209" data-name="Path 9209" d="M7.05,18.792l5.7-5.907A.783.783,0,0,1,13.9,12.9l1.277,1.373a.8.8,0,0,0,1.166,0l3.3-3.464" transform="translate(2.714 4.658)" fill="none" stroke="#f48120" stroke-linecap="round" stroke-linejoin="round" stroke-miterlimit="10" stroke-width="2"/>
      <path id="Path_9210" data-name="Path 9210" d="M19.236,15.258l.112-5.508a.9.9,0,0,0-.878-.91l-5.54.032" transform="translate(6.221 3.483)" fill="none" stroke="#f48120" stroke-linecap="round" stroke-linejoin="round" stroke-miterlimit="10" stroke-width="2"/>
      <path id="Path_9211" data-name="Path 9211" d="M17.667,33.333A15.167,15.167,0,1,0,2.5,18.167,15.167,15.167,0,0,0,17.667,33.333Z" transform="translate(0 0)" fill="none" stroke="#f48120" stroke-linecap="round" stroke-linejoin="round" stroke-miterlimit="10" stroke-width="2"/>
    </g>
  </g>
</svg>
