<svg xmlns="http://www.w3.org/2000/svg" width="60" height="60" viewBox="0 0 60 60">
  <g id="projects-and-resource-management-systems" transform="translate(-267 -1397)">
    <circle id="Ellipse_30" data-name="Ellipse 30" cx="30" cy="30" r="30" transform="translate(267 1397)" fill="#f48120"/>
    <g id="noun-resource-allocation-7021134" transform="translate(272.469 1407)">
      <path id="Path_9217" data-name="Path 9217" d="M18.782,69.1a2.618,2.618,0,1,1-2.614-2.614A2.619,2.619,0,0,1,18.782,69.1Z" transform="translate(-3.608 -39.872)" fill="#fff"/>
      <path id="Path_9218" data-name="Path 9218" d="M17.582,86.257A1.291,1.291,0,0,1,17,87.364a8.11,8.11,0,0,1-4.441,1.445,8.113,8.113,0,0,1-4.447-1.445,1.276,1.276,0,0,1-.582-1.107,4.729,4.729,0,0,1,5.016-4.928,4.732,4.732,0,0,1,5.035,4.928Z" transform="translate(0 -48.774)" fill="#fff"/>
      <path id="Path_9219" data-name="Path 9219" d="M48.688,69.1a2.618,2.618,0,1,1-2.614-2.614A2.619,2.619,0,0,1,48.688,69.1Z" transform="translate(-21.543 -39.872)" fill="#fff"/>
      <path id="Path_9220" data-name="Path 9220" d="M47.494,86.248a1.311,1.311,0,0,1-.588,1.107,7.57,7.57,0,0,1-8.888-.006,1.305,1.305,0,0,1-.582-1.107,4.735,4.735,0,0,1,5.022-4.928,4.743,4.743,0,0,1,5.035,4.935Z" transform="translate(-17.935 -48.765)" fill="#fff"/>
      <path id="Path_9221" data-name="Path 9221" d="M78.61,69.1a2.618,2.618,0,1,1-2.621-2.614A2.62,2.62,0,0,1,78.61,69.1Z" transform="translate(-39.488 -39.872)" fill="#fff"/>
      <path id="Path_9222" data-name="Path 9222" d="M77.4,86.248a1.321,1.321,0,0,1-.582,1.107,7.57,7.57,0,0,1-8.888-.006,1.3,1.3,0,0,1-.588-1.107,5.03,5.03,0,0,1,10.057.006Z" transform="translate(-35.871 -48.765)" fill="#fff"/>
      <path id="Path_9223" data-name="Path 9223" d="M26.1,48.494a.432.432,0,0,0-.432-.432h-3.8a3.608,3.608,0,0,0-3.6,3.6v2.446a.432.432,0,0,0,.863,0V51.665a2.743,2.743,0,0,1,2.739-2.739h3.8A.432.432,0,0,0,26.1,48.494Z" transform="translate(-6.438 -28.824)" fill="#fff"/>
      <path id="Path_9224" data-name="Path 9224" d="M69.114,51.65V54.1a.432.432,0,0,0,.863,0V51.65a3.608,3.608,0,0,0-3.6-3.6h-3.8a.432.432,0,1,0,0,.863h3.8a2.747,2.747,0,0,1,2.739,2.739Z" transform="translate(-32.75 -28.815)" fill="#fff"/>
      <path id="Path_9225" data-name="Path 9225" d="M49.785,48.156V40.462a.432.432,0,0,0-.863,0v7.7a.432.432,0,0,0,.432.432.442.442,0,0,0,.432-.438Z" transform="translate(-24.823 -24.007)" fill="#fff"/>
      <path id="Path_9226" data-name="Path 9226" d="M46,6.329h-.682a6.457,6.457,0,0,0-.851-2.058l.488-.488a.672.672,0,0,0,0-.951L43.849,1.726a.679.679,0,0,0-.963,0l-.488.488a6.482,6.482,0,0,0-2.051-.851V.675A.677.677,0,0,0,39.671,0H38.108a.674.674,0,0,0-.669.669v.688a6.665,6.665,0,0,0-2.058.851l-.488-.488a.647.647,0,0,0-.475-.2.661.661,0,0,0-.482.2L32.829,2.827a.672.672,0,0,0,0,.957l.488.488a6.317,6.317,0,0,0-.851,2.058h-.688A.674.674,0,0,0,31.109,7V8.562a.675.675,0,0,0,.669.675h.688a6.664,6.664,0,0,0,.851,2.058l-.488.488a.647.647,0,0,0-.2.475.661.661,0,0,0,.2.482l1.107,1.107a.661.661,0,0,0,.482.2.647.647,0,0,0,.475-.2l.488-.488a6.516,6.516,0,0,0,2.058.851V14.9a.674.674,0,0,0,.669.669h1.564a.675.675,0,0,0,.675-.669V14.21a6.63,6.63,0,0,0,2.051-.851l.494.488a.647.647,0,0,0,.475.2.672.672,0,0,0,.482-.2l1.107-1.107a.672.672,0,0,0,0-.951l-.488-.488a6.516,6.516,0,0,0,.851-2.058H46a.677.677,0,0,0,.675-.675V7A.677.677,0,0,0,46,6.329ZM35.087,7.78a3.806,3.806,0,1,1,3.8,3.809A3.805,3.805,0,0,1,35.087,7.78Z" transform="translate(-14.14 0)" fill="#fff"/>
    </g>
  </g>
</svg>
