<svg width="45" height="45" viewBox="0 0 45 45" fill="none" xmlns="http://www.w3.org/2000/svg">
<g clip-path="url(#clip0_1_2)">
<path d="M45 22.5C45 10.0736 34.9264 0 22.5 0C10.0736 0 0 10.0736 0 22.5C0 34.9264 10.0736 45 22.5 45C34.9264 45 45 34.9264 45 22.5Z" fill="url(#paint0_linear_1_2)"/>
<path d="M17.5 13H11.5C11.3674 13 11.2402 13.0527 11.1464 13.1464C11.0527 13.2402 11 13.3674 11 13.5V19.5C11 19.6326 11.0527 19.7598 11.1464 19.8536C11.2402 19.9473 11.3674 20 11.5 20H17.5C17.6326 20 17.7598 19.9473 17.8536 19.8536C17.9473 19.7598 18 19.6326 18 19.5V13.5C18 13.3674 17.9473 13.2402 17.8536 13.1464C17.7598 13.0527 17.6326 13 17.5 13ZM17 19H12V14H17V19Z" fill="white"/>
<path d="M17.5 21H11.5C11.3674 21 11.2402 21.0527 11.1464 21.1464C11.0527 21.2402 11 21.3674 11 21.5V27.5C11 27.6326 11.0527 27.7598 11.1464 27.8536C11.2402 27.9473 11.3674 28 11.5 28H17.5C17.6326 28 17.7598 27.9473 17.8536 27.8536C17.9473 27.7598 18 27.6326 18 27.5V21.5C18 21.3674 17.9473 21.2402 17.8536 21.1464C17.7598 21.0527 17.6326 21 17.5 21ZM17 27H12V22H17V27Z" fill="white"/>
<path d="M26 13H20V14H26V13Z" fill="white"/>
<path d="M26 16H20V17H26V16Z" fill="white"/>
<path d="M26 19H20V20H26V19Z" fill="white"/>
<path d="M26 22H20V23H26V22Z" fill="white"/>
<path d="M26 25H20V26H26V25Z" fill="white"/>
<path d="M35.5 25H34.322C34.7827 24.6302 35.1659 24.173 35.4495 23.6548C35.733 23.1365 35.9114 22.5673 35.9744 21.9799C36.0374 21.3924 35.9838 20.7984 35.8166 20.2317C35.6493 19.6651 35.3718 19.1371 35 18.678V12H35.5C35.8978 12 36.2794 11.842 36.5607 11.5607C36.842 11.2794 37 10.8978 37 10.5C37 10.1022 36.842 9.72064 36.5607 9.43934C36.2794 9.15804 35.8978 9 35.5 9H8.5C8.10218 9 7.72064 9.15804 7.43934 9.43934C7.15804 9.72064 7 10.1022 7 10.5C7 10.8978 7.15804 11.2794 7.43934 11.5607C7.72064 11.842 8.10218 12 8.5 12H9V28.5C9 28.8978 9.15804 29.2794 9.43934 29.5607C9.72064 29.842 10.1022 30 10.5 30H21.5V34.05C20.893 34.1739 20.3536 34.5188 19.9864 35.0178C19.6192 35.5168 19.4504 36.1344 19.5127 36.7508C19.5749 37.3672 19.8639 37.9385 20.3234 38.354C20.783 38.7694 21.3805 38.9995 22 38.9995C22.6195 38.9995 23.217 38.7694 23.6766 38.354C24.1361 37.9385 24.4251 37.3672 24.4873 36.7508C24.5496 36.1344 24.3808 35.5168 24.0136 35.0178C23.6464 34.5188 23.107 34.1739 22.5 34.05V30H26V30.5C26 30.8978 26.158 31.2794 26.4393 31.5607C26.7206 31.842 27.1022 32 27.5 32H28V37.5C28 37.8978 28.158 38.2794 28.4393 38.5607C28.7206 38.842 29.1022 39 29.5 39H30.5C30.8702 38.9987 31.2267 38.8597 31.5 38.61C31.7733 38.8597 32.1298 38.9987 32.5 39H33.5C33.8978 39 34.2794 38.842 34.5607 38.5607C34.842 38.2794 35 37.8978 35 37.5V32H35.5C35.8978 32 36.2794 31.842 36.5607 31.5607C36.842 31.2794 37 30.8978 37 30.5V26.5C37 26.1022 36.842 25.7206 36.5607 25.4393C36.2794 25.158 35.8978 25 35.5 25ZM23.5 36.5C23.5 36.7967 23.412 37.0867 23.2472 37.3334C23.0824 37.58 22.8481 37.7723 22.574 37.8858C22.2999 37.9993 21.9983 38.0291 21.7074 37.9712C21.4164 37.9133 21.1491 37.7704 20.9393 37.5607C20.7296 37.3509 20.5867 37.0836 20.5288 36.7926C20.4709 36.5017 20.5006 36.2001 20.6142 35.926C20.7277 35.6519 20.92 35.4176 21.1666 35.2528C21.4133 35.088 21.7033 35 22 35C22.3978 35 22.7794 35.158 23.0607 35.4393C23.342 35.7206 23.5 36.1022 23.5 36.5ZM29 32V26H31V29.5H32V26H34V32H29ZM31.5 25C30.5721 24.9989 29.6824 24.6299 29.0263 23.9737C28.3701 23.3176 28.0011 22.4279 28 21.5C28 21.471 28.0035 21.443 28.0045 21.4145L29.9685 21.0145L31.342 21.4725C31.4446 21.5067 31.5554 21.5067 31.658 21.4725L33.032 21.0145L34.9955 21.407C34.9955 21.4375 35 21.4675 35 21.498C34.9995 22.4263 34.6306 23.3164 33.9744 23.973C33.3182 24.6296 32.4283 24.9989 31.5 25ZM28.196 20.3555C28.4334 19.6691 28.8788 19.0737 29.4703 18.6522C30.0617 18.2306 30.7697 18.0037 31.496 18.0031C32.2223 18.0025 32.9308 18.2282 33.5229 18.6488C34.115 19.0694 34.5614 19.664 34.8 20.35L33.1 20.01C33.0148 19.9923 32.9264 19.9976 32.844 20.0255L31.502 20.4755L30.16 20.0255C30.0769 19.9982 29.9882 19.9928 29.9025 20.01L28.196 20.3555ZM8 10.5C8 10.3674 8.05268 10.2402 8.14645 10.1464C8.24021 10.0527 8.36739 10 8.5 10H35.5C35.6326 10 35.7598 10.0527 35.8536 10.1464C35.9473 10.2402 36 10.3674 36 10.5C36 10.6326 35.9473 10.7598 35.8536 10.8536C35.7598 10.9473 35.6326 11 35.5 11H8.5C8.36739 11 8.24021 10.9473 8.14645 10.8536C8.05268 10.7598 8 10.6326 8 10.5ZM26 26.5V29H10.5C10.3674 29 10.2402 28.9473 10.1464 28.8536C10.0527 28.7598 10 28.6326 10 28.5V12H34V17.761C33.0375 17.1148 31.8626 16.8653 30.7205 17.0646C29.5784 17.2639 28.5575 17.8967 27.8708 18.8307C27.1841 19.7648 26.8847 20.928 27.0351 22.0775C27.1855 23.227 27.7741 24.2741 28.678 25H27.5C27.1022 25 26.7206 25.158 26.4393 25.4393C26.158 25.7206 26 26.1022 26 26.5ZM27.5 31C27.3674 31 27.2402 30.9473 27.1464 30.8536C27.0527 30.7598 27 30.6326 27 30.5V26.5C27 26.3674 27.0527 26.2402 27.1464 26.1464C27.2402 26.0527 27.3674 26 27.5 26H28V31H27.5ZM30.5 38H29.5C29.3674 38 29.2402 37.9473 29.1464 37.8536C29.0527 37.7598 29 37.6326 29 37.5V33H31V37.5C31 37.6326 30.9473 37.7598 30.8536 37.8536C30.7598 37.9473 30.6326 38 30.5 38ZM33.5 38H32.5C32.3674 38 32.2402 37.9473 32.1464 37.8536C32.0527 37.7598 32 37.6326 32 37.5V33H34V37.5C34 37.6326 33.9473 37.7598 33.8536 37.8536C33.7598 37.9473 33.6326 38 33.5 38ZM36 30.5C36 30.6326 35.9473 30.7598 35.8536 30.8536C35.7598 30.9473 35.6326 31 35.5 31H35V26H35.5C35.6326 26 35.7598 26.0527 35.8536 26.1464C35.9473 26.2402 36 26.3674 36 26.5V30.5Z" fill="white"/>
<path d="M33.5 21.5H32.5V22.5H33.5V21.5Z" fill="white"/>
<path d="M31.5 23.5C31.3842 23.4964 31.2706 23.4677 31.167 23.4159C31.0634 23.3641 30.9723 23.2905 30.9 23.2L30.1 23.8C30.263 24.0173 30.4744 24.1938 30.7174 24.3152C30.9603 24.4367 31.2283 24.5 31.5 24.5C31.7717 24.5 32.0396 24.4367 32.2826 24.3152C32.5256 24.1938 32.737 24.0173 32.9 23.8L32.1 23.2C32.0276 23.2905 31.9365 23.3641 31.8329 23.4159C31.7293 23.4677 31.6157 23.4964 31.5 23.5Z" fill="white"/>
<path d="M30.5 21.5H29.5V22.5H30.5V21.5Z" fill="white"/>
</g>
<defs>
<linearGradient id="paint0_linear_1_2" x1="22" y1="-3.29812e-07" x2="22" y2="45" gradientUnits="userSpaceOnUse">
<stop stop-color="#353535"/>
<stop offset="0.122222" stop-color="#323232"/>
<stop offset="1" stop-color="#1B1B1B"/>
</linearGradient>
<clipPath id="clip0_1_2">
<rect width="45" height="45" fill="white"/>
</clipPath>
</defs>
</svg>
