<svg width="64" height="64" viewBox="0 0 64 64" fill="none" xmlns="http://www.w3.org/2000/svg">
<g clip-path="url(#clip0_3_195)">
<mask id="mask0_3_195" style="mask-type:luminance" maskUnits="userSpaceOnUse" x="0" y="0" width="64" height="64">
<path d="M64 0H0V64H64V0Z" fill="white"/>
</mask>
<g mask="url(#mask0_3_195)">
<path d="M32 64C49.6731 64 64 49.6731 64 32C64 14.3269 49.6731 0 32 0C14.3269 0 0 14.3269 0 32C0 49.6731 14.3269 64 32 64Z" fill="#F48120"/>
<path d="M53 53V14.75C53 14.5511 52.921 14.3603 52.7803 14.2197C52.6397 14.079 52.4489 14 52.25 14H36.5V10.25C36.5 10.0511 36.421 9.86033 36.2803 9.71968C36.1397 9.57902 35.9489 9.5 35.75 9.5H14.75C14.5511 9.5 14.3603 9.57902 14.2197 9.71968C14.079 9.86033 14 10.0511 14 10.25V26.75H15.5V11H35V27.5H36.5V15.5H51.5V53H36.5V49.2906L50.2372 44.7116C50.423 44.6496 50.5772 44.5174 50.6668 44.3432C50.7565 44.169 50.7745 43.9667 50.7168 43.7794L47.7168 34.0294C47.6588 33.8406 47.5286 33.6823 47.3544 33.589C47.1803 33.4956 46.9764 33.4748 46.787 33.5309L44.7336 34.1394L35.3556 29.0896C35.1805 28.9953 34.9751 28.9745 34.7845 29.0317C34.594 29.0888 34.4339 29.2193 34.3396 29.3944L34.1055 29.8291L24.2 22.4C24.0702 22.3026 23.9123 22.25 23.75 22.25C23.5877 22.25 23.4298 22.3026 23.3 22.4L11.3 31.4C11.2069 31.4698 11.1313 31.5604 11.0792 31.6646C11.0271 31.7687 11 31.8836 11 32V53H9.5V54.5H54.5V53H53ZM35 53H30.5V51.2906L35 49.7906V53ZM49.0677 43.5202L30.256 49.7908L27.6752 40.7581L46.5014 35.18L49.0677 43.5202ZM35.3048 30.766L42.6927 34.7441L31.3537 38.1038L35.3048 30.766ZM12.5 32.375L23.75 23.9375L33.3864 31.1648L29.3265 38.7044L26.537 39.5309C26.3474 39.5871 26.1878 39.7157 26.0926 39.889C25.9975 40.0622 25.9745 40.2659 26.0289 40.456L27.0414 44H26V45.5H27.47L29 50.8551V53H24.5V37.25H28.25V35.75H17.75C17.5511 35.75 17.3603 35.829 17.2197 35.9697C17.079 36.1103 17 36.3011 17 36.5V53H12.5V32.375ZM23 53H18.5V37.25H23V53Z" fill="white"/>
<path d="M20.75 33.5H26.75C26.9489 33.5 27.1397 33.421 27.2803 33.2803C27.421 33.1397 27.5 32.9489 27.5 32.75V29.75C27.5 29.6336 27.4729 29.5187 27.4208 29.4146C27.3687 29.3104 27.2931 29.2198 27.2 29.15L24.2 26.9C24.0702 26.8026 23.9123 26.75 23.75 26.75C23.5877 26.75 23.4298 26.8026 23.3 26.9L20.3 29.15C20.2069 29.2198 20.1313 29.3104 20.0792 29.4146C20.0271 29.5187 20 29.6336 20 29.75V32.75C20 32.9489 20.079 33.1397 20.2197 33.2803C20.3603 33.421 20.5511 33.5 20.75 33.5ZM21.5 30.125L23.75 28.4375L26 30.125V32H21.5V30.125Z" fill="white"/>
<path d="M21.5 44H20V45.5H21.5V44Z" fill="white"/>
<path d="M33.0062 45.4548L40.1472 42.8581C40.5997 43.4291 41.2447 43.8155 41.9616 43.9451C42.6784 44.0746 43.4179 43.9384 44.0415 43.5619C44.6652 43.1854 45.1302 42.5944 45.3493 41.8997C45.5685 41.205 45.527 40.4543 45.2324 39.788C44.9379 39.1218 44.4105 38.5858 43.7492 38.2804C43.0878 37.975 42.3378 37.9212 41.6397 38.1291C40.9415 38.3369 40.3431 38.7922 39.9565 39.4096C39.5698 40.027 39.4215 40.7641 39.5394 41.483L38.3461 41.917L37.4614 39.2628L36.0385 39.7372L36.9359 42.4298L35.431 42.977L34.9027 41.4977L33.4901 42.0022L34.0212 43.4896L32.4937 44.0451L33.0062 45.4548ZM42.4999 39.5C42.7966 39.5 43.0866 39.5879 43.3333 39.7528C43.58 39.9176 43.7723 40.1518 43.8858 40.426C43.9993 40.7 44.029 41.0017 43.9711 41.2926C43.9133 41.5836 43.7704 41.8509 43.5606 42.0606C43.3509 42.2704 43.0836 42.4133 42.7926 42.4711C42.5016 42.5291 42.2 42.4993 41.926 42.3858C41.6518 42.2723 41.4176 42.08 41.2527 41.8333C41.0879 41.5867 40.9999 41.2966 40.9999 41C41.0004 40.6023 41.1586 40.221 41.4398 39.9398C41.721 39.6586 42.1023 39.5005 42.4999 39.5Z" fill="white"/>
<path d="M20.75 13.25H17.75V14.75H20.75V13.25Z" fill="white"/>
<path d="M26.75 13.25H23.75V14.75H26.75V13.25Z" fill="white"/>
<path d="M32.75 13.25H29.75V14.75H32.75V13.25Z" fill="white"/>
<path d="M20.75 17H17.75V18.5H20.75V17Z" fill="white"/>
<path d="M26.75 17H23.75V18.5H26.75V17Z" fill="white"/>
<path d="M32.75 17H29.75V18.5H32.75V17Z" fill="white"/>
<path d="M20.75 20.75H17.75V22.25H20.75V20.75Z" fill="white"/>
<path d="M26.75 20.75H25.25V22.25H26.75V20.75Z" fill="white"/>
<path d="M32.75 20.75H29.75V22.25H32.75V20.75Z" fill="white"/>
<path d="M32.75 24.5H31.25V26H32.75V24.5Z" fill="white"/>
<path d="M41 17.75H38V19.25H41V17.75Z" fill="white"/>
<path d="M45.5 17.75H42.5V19.25H45.5V17.75Z" fill="white"/>
<path d="M50 17.75H47V19.25H50V17.75Z" fill="white"/>
<path d="M41 21.5H38V23H41V21.5Z" fill="white"/>
<path d="M45.5 21.5H42.5V23H45.5V21.5Z" fill="white"/>
<path d="M50 21.5H47V23H50V21.5Z" fill="white"/>
<path d="M41 25.25H38V26.75H41V25.25Z" fill="white"/>
<path d="M45.5 25.25H42.5V26.75H45.5V25.25Z" fill="white"/>
<path d="M50 25.25H47V26.75H50V25.25Z" fill="white"/>
<path d="M41 29H39.5V30.5H41V29Z" fill="white"/>
<path d="M45.5 29H42.5V30.5H45.5V29Z" fill="white"/>
<path d="M50 29H47V30.5H50V29Z" fill="white"/>
<path d="M50 46.25H47V47.75H50V46.25Z" fill="white"/>
<path d="M41 50H38V51.5H41V50Z" fill="white"/>
<path d="M45.5 50H42.5V51.5H45.5V50Z" fill="white"/>
<path d="M50 50H47V51.5H50V50Z" fill="white"/>
</g>
</g>
<defs>
<clipPath id="clip0_3_195">
<rect width="64" height="64" fill="white"/>
</clipPath>
</defs>
</svg>
