<svg xmlns="http://www.w3.org/2000/svg" width="60" height="60" viewBox="0 0 60 60">
  <g id="Group_8507" data-name="Group 8507" transform="translate(-416 -6126)">
    <circle id="Ellipse_14" data-name="Ellipse 14" cx="30" cy="30" r="30" transform="translate(416 6126)" fill="#fff2e8"/>
    <g id="call-performance-report" transform="translate(427.667 6137.667)">
      <path id="Path_9188" data-name="Path 9188" d="M11.71,31a6.71,6.71,0,1,0,6.71,6.71A6.717,6.717,0,0,0,11.71,31Zm5.563,6.151h-5v-5A5.6,5.6,0,0,1,17.273,37.151ZM6.118,37.71a5.6,5.6,0,0,1,5.032-5.563V43.273A5.6,5.6,0,0,1,6.118,37.71Zm6.151,5.563v-5h5A5.6,5.6,0,0,1,12.269,43.273Z" transform="translate(-1.763 -13.226)" fill="#f48120"/>
      <path id="Path_9189" data-name="Path 9189" d="M43.566,22.375l1.13.5a2.343,2.343,0,0,0,2.61-.485l.759-.759a1.909,1.909,0,0,0,0-2.7l-.887-.887a1.955,1.955,0,0,0-2.7,0l-.357.357a.686.686,0,0,1-.488.2H43.55a.686.686,0,0,1-.488-.2l-.386-.386a.691.691,0,0,1,.056-1.028l.322-.257a1.434,1.434,0,0,0,.118-2.134l-1.026-1.026a1.955,1.955,0,0,0-2.7,0l-.759.759a2.364,2.364,0,0,0-.5,2.594A10.452,10.452,0,0,0,43.566,22.375Zm-4.088-7.252.759-.759a.791.791,0,0,1,1.118,0l1.026,1.026a.321.321,0,0,1,.092.223.313.313,0,0,1-.118.246l-.321.257a1.809,1.809,0,0,0-.15,2.692l.386.386a1.8,1.8,0,0,0,1.279.53h.083a1.8,1.8,0,0,0,1.279-.53l.357-.357a.811.811,0,0,1,1.118,0l.887.887a.791.791,0,0,1,0,1.118l-.759.759a1.239,1.239,0,0,1-1.365.253l-1.13-.5a9.335,9.335,0,0,1-4.8-4.867,1.245,1.245,0,0,1,.26-1.363Z" transform="translate(-16.312 -5.305)" fill="#f48120"/>
      <path id="Path_9190" data-name="Path 9190" d="M29.676,20.011h4.313a1.679,1.679,0,0,0,1.677-1.677V7.151a1.679,1.679,0,0,0-1.677-1.677H27.839V1H5.8L1,5.8V33.43H14.809l3.355,2.237H33.989a1.679,1.679,0,0,0,1.677-1.677V31.753a1.679,1.679,0,0,0-1.677-1.677H27.839V21.16Zm4.872-12.86V18.333a.559.559,0,0,1-.559.559H29.356L25.6,21.238V18.892H19.452a.559.559,0,0,1-.559-.559V7.151a.559.559,0,0,1,.559-.559H33.989A.559.559,0,0,1,34.548,7.151ZM5.473,2.909V5.473H2.909ZM18.892,33.43h8.946v1.118H18.892Zm10.064-2.237h1.118v3.355H28.957Zm-1.118,1.118H18.892V31.193h8.946ZM17.774,34.063l-1.788-1.192,1.788-1.192Zm16.774-2.31v2.237a.559.559,0,0,1-.559.559h-2.8V31.193h2.8A.559.559,0,0,1,34.548,31.753ZM26.72,30.075H18.164l-3.355,2.237H2.118V6.591H6.591V2.118H26.72V5.473H19.452a1.679,1.679,0,0,0-1.677,1.677V18.333a1.679,1.679,0,0,0,1.677,1.677h5.032v3.246l2.237-1.4Z" fill="#f48120"/>
      <path id="Path_9191" data-name="Path 9191" d="M16.742,12.118H15.624v6.71H14.505V11H13.387v7.828H12.269V15.473H11.151v3.355H10.032V13.237H8.914v5.591H7.8V14.355H6.677v4.473H5v1.118H18.419V18.828H16.742Z" transform="translate(-1.763 -4.409)" fill="#f48120"/>
    </g>
  </g>
</svg>
