<svg xmlns="http://www.w3.org/2000/svg" width="45" height="45" viewBox="0 0 45 45">
  <g id="Group_8490" data-name="Group 8490" transform="translate(-630 -428)">
    <g id="banner-main4" transform="translate(630 428)">
      <circle id="Ellipse_45" data-name="Ellipse 45" cx="22.5" cy="22.5" r="22.5" fill="#2f2f2f"/>
    </g>
    <g id="airline-rapid-board" transform="translate(635.667 434.667)">
      <path id="Path_9173" data-name="Path 9173" d="M18.352,23.176H16.3v-2.05a3.079,3.079,0,0,0-3.075-3.075h-4.1A3.079,3.079,0,0,0,6.05,21.126v2.05H4v-2.05A5.132,5.132,0,0,1,9.126,16h4.1a5.132,5.132,0,0,1,5.126,5.126Z" transform="translate(0.032 0.333)" fill="#fff"/>
      <path id="Path_9174" data-name="Path 9174" d="M11.126,6.05A3.075,3.075,0,1,1,8.05,9.126,3.075,3.075,0,0,1,11.126,6.05m0-2.05a5.126,5.126,0,1,0,5.126,5.126A5.126,5.126,0,0,0,11.126,4Z" transform="translate(0.082 0.032)" fill="#fff"/>
      <rect id="Rectangle_2768" data-name="Rectangle 2768" width="28" height="2" transform="translate(2.333 26.333)" fill="#fff"/>
      <path id="Path_9175" data-name="Path 9175" d="M30.1,8.1H28.05V6.05H26V4h4.1Z" transform="translate(0.584 0.032)" fill="#fff"/>
      <path id="Path_9176" data-name="Path 9176" d="M19,4h4.1V6.05H21.05V8.1H19Z" transform="translate(0.409 0.032)" fill="#fff"/>
      <rect id="Rectangle_2769" data-name="Rectangle 2769" width="2" height="2" transform="translate(28.333 13.333)" fill="#fff"/>
      <rect id="Rectangle_2770" data-name="Rectangle 2770" width="2" height="2" transform="translate(26.333 11.333)" fill="#fff"/>
      <path id="Path_9177" data-name="Path 9177" d="M19,11h2.05v2.05H23.1V15.1H19Z" transform="translate(0.409 0.208)" fill="#fff"/>
      <rect id="_Transparent_Rectangle_" data-name="&lt;Transparent Rectangle&gt;" width="34" height="34" transform="translate(-0.667 -0.667)" fill="none"/>
    </g>
  </g>
</svg>
