<svg width="64" height="64" viewBox="0 0 64 64" fill="none" xmlns="http://www.w3.org/2000/svg">
<path d="M32 64C49.6731 64 64 49.6731 64 32C64 14.3269 49.6731 0 32 0C14.3269 0 0 14.3269 0 32C0 49.6731 14.3269 64 32 64Z" fill="#F48120"/>
<g clip-path="url(#clip0_3_196)">
<path d="M22.0673 25.4385H8.56219C8.33213 25.4385 8.12513 25.2982 8.03991 25.0841C7.95497 24.8701 8.00841 24.6257 8.17547 24.4676C8.21879 24.4263 12.5453 20.2902 14.0044 16.0253C14.0823 15.7975 14.2961 15.6448 14.5365 15.6448L30.7355 15.6451C30.9633 15.6451 31.168 15.782 31.2555 15.9921C31.3427 16.2022 31.2946 16.4447 31.1332 16.605L22.465 25.2734C22.3592 25.3789 22.2167 25.4382 22.0673 25.4382V25.4385ZM9.90095 24.3135H21.8342L29.3776 16.7701H14.932C13.7423 19.9181 11.2673 22.849 9.90123 24.3132L9.90095 24.3135Z" fill="white"/>
<path d="M52.2152 50.3231H25.0396C24.8902 50.3231 24.7471 50.2637 24.6416 50.158C24.5361 50.0525 24.4768 49.9091 24.4771 49.76L24.4892 28.0542C24.4892 27.8269 24.6264 27.6219 24.8365 27.5347C24.8945 27.5105 24.9549 27.4967 25.0154 27.4933L38.3056 14.2034C38.5169 13.9924 38.8901 13.9924 39.1016 14.2034L52.6258 27.7276C52.7313 27.8331 52.7906 27.9765 52.7906 28.1256L52.7785 49.7611C52.778 50.0716 52.526 50.3231 52.2155 50.3231H52.2152ZM25.6024 49.1975H51.653L51.6648 28.3573L38.7036 15.3962L25.6142 28.4859L25.6024 49.1975Z" fill="white"/>
<path d="M25.0526 50.323H10.8179C10.5074 50.323 10.2554 50.0708 10.2554 49.7605V28.0685C10.2554 27.758 10.5074 27.506 10.8179 27.506H23.4688L25.0478 27.4931C25.1932 27.4779 25.3414 27.5504 25.4486 27.6559C25.5549 27.7616 25.6148 27.9054 25.6148 28.055V49.76C25.6148 50.071 25.3633 50.3228 25.0523 50.3228L25.0526 50.323ZM11.3804 49.1975H24.4903V28.6226L23.4739 28.631H11.3804V49.1978V49.1975Z" fill="white"/>
<path d="M25.0655 28.631H8.5625C8.252 28.631 8 28.379 8 28.0685V24.876C8 24.5655 8.252 24.3135 8.5625 24.3135H22.0676C22.2954 24.3135 22.5005 24.4508 22.5877 24.6611C22.6113 24.7182 22.6245 24.7773 22.629 24.8366L25.4634 27.6711C25.6243 27.832 25.6724 28.0738 25.5858 28.2839C25.4983 28.494 25.2938 28.6313 25.066 28.6313L25.0655 28.631ZM9.125 27.506H23.7073L21.6398 25.4385H9.125V27.5063V27.506Z" fill="white"/>
<path d="M20.6999 37.4558H15.1711C14.8606 37.4558 14.6086 37.2035 14.6086 36.8933V31.3645C14.6086 31.054 14.8606 30.802 15.1711 30.802H20.6999C21.0104 30.802 21.2624 31.0543 21.2624 31.3645V36.8927C21.2624 37.2032 21.0104 37.4558 20.6999 37.4558ZM15.7336 36.3305H20.1374V31.9273H15.7336V36.3305Z" fill="white"/>
<path d="M20.6999 47.0147H15.1711C14.8606 47.0147 14.6086 46.7624 14.6086 46.4522V40.9228C14.6086 40.6123 14.8606 40.3603 15.1711 40.3603H20.6999C21.0104 40.3603 21.2624 40.6126 21.2624 40.9228V46.4516C21.2624 46.7621 21.0104 47.0147 20.6999 47.0147ZM15.7336 45.8891H20.1374V41.4853H15.7336V45.8891Z" fill="white"/>
<path d="M38.7765 27.3072C36.6893 27.3072 34.9917 25.6092 34.9917 23.5224C34.9917 21.4358 36.6896 19.7378 38.7765 19.7378C40.8631 19.7378 42.5615 21.4358 42.5615 23.5224C42.5615 25.6092 40.8636 27.3072 38.7765 27.3072ZM38.7765 20.8623C37.3097 20.8623 36.1167 22.0556 36.1167 23.5224C36.1167 24.9891 37.3095 26.1824 38.7765 26.1824C40.2432 26.1824 41.4365 24.9891 41.4365 23.5224C41.4365 22.0556 40.2432 20.8623 38.7765 20.8623Z" fill="white"/>
<path d="M44.5314 50.323H32.736C32.4255 50.323 32.1735 50.0708 32.1735 49.7605V34.3457C32.1735 34.0352 32.4258 33.7832 32.736 33.7832H44.5309C44.8414 33.7832 45.0934 34.0355 45.0934 34.3457V49.7605C45.0939 50.071 44.8414 50.323 44.5314 50.323ZM33.2991 49.1975H43.9683V34.908H33.2991V49.1975Z" fill="white"/>
<path d="M52.2568 28.7162C52.1075 28.7162 51.9646 28.6569 51.8589 28.5514L38.7039 15.3964L25.5484 28.552C25.3374 28.7629 24.9639 28.7629 24.753 28.552L21.5721 25.3713C21.3521 25.1516 21.3521 24.7956 21.5721 24.5759L38.3057 7.84232C38.5256 7.62238 38.8819 7.62238 39.1016 7.84232L55.8349 24.5759C56.0549 24.7953 56.0549 25.1516 55.8349 25.3713L52.6545 28.5522C52.5491 28.6577 52.4059 28.7168 52.2568 28.7168V28.7162ZM22.7657 24.9733L25.1507 27.3583L38.3057 14.2034C38.5256 13.9834 38.8819 13.9834 39.1016 14.2034L52.2568 27.3586L54.6416 24.9736L38.7036 9.03539L22.7654 24.9733H22.7657Z" fill="white"/>
<path d="M38.6339 50.323C38.3234 50.323 38.0714 50.0708 38.0714 49.7605V34.3457C38.0714 34.0352 38.3237 33.7832 38.6339 33.7832C38.9441 33.7832 39.1964 34.0355 39.1964 34.3457V49.7605C39.1964 50.071 38.9444 50.323 38.6339 50.323Z" fill="white"/>
<path d="M40.3948 43.4361C40.0843 43.4361 39.8323 43.1838 39.8323 42.8736V41.2339C39.8323 40.9234 40.0846 40.6714 40.3948 40.6714C40.705 40.6714 40.9573 40.9236 40.9573 41.2339V42.8736C40.9573 43.1838 40.7053 43.4361 40.3948 43.4361Z" fill="white"/>
<path d="M36.873 43.4361C36.5625 43.4361 36.3105 43.1838 36.3105 42.8736V41.2339C36.3105 40.9234 36.5627 40.6714 36.873 40.6714C37.1832 40.6714 37.4355 40.9236 37.4355 41.2339V42.8736C37.4355 43.1838 37.1835 43.4361 36.873 43.4361Z" fill="white"/>
</g>
<defs>
<clipPath id="clip0_3_196">
<rect width="48" height="48" fill="white" transform="translate(8 5)"/>
</clipPath>
</defs>
</svg>
