<svg width="80" height="80" viewBox="0 0 80 80" fill="none" xmlns="http://www.w3.org/2000/svg">
<g clip-path="url(#clip0_1_89)">
<mask id="mask0_1_89" style="mask-type:luminance" maskUnits="userSpaceOnUse" x="0" y="0" width="80" height="80">
<path d="M80 0H0V80H80V0Z" fill="white"/>
</mask>
<g mask="url(#mask0_1_89)">
<path d="M40 80C62.0914 80 80 62.0914 80 40C80 17.9086 62.0914 0 40 0C17.9086 0 0 17.9086 0 40C0 62.0914 17.9086 80 40 80Z" fill="#FFF2E8"/>
<path fill-rule="evenodd" clip-rule="evenodd" d="M41.6485 49.8897C41.5752 49.8897 41.5752 49.8897 41.5385 49.8897C36.9922 49.4497 33.3625 47.5065 30.6494 44.1701C23.5366 35.1874 25.4797 19.2753 25.5531 18.6154C25.6264 18.2121 25.993 17.9188 26.3963 17.8454C38.1654 16.8555 40.7686 12.7125 40.8786 12.5658C40.9152 12.4192 41.0619 12.3092 41.2452 12.2359C41.6485 11.9792 42.1985 12.1625 42.4551 12.5658C42.4918 12.6758 45.0949 16.8555 57.0107 17.8454C57.414 17.9188 57.744 18.2121 57.8173 18.6154C57.8906 19.2753 59.8338 35.1874 52.721 44.1701C50.0445 47.5432 46.3048 49.4864 41.7952 49.8897C41.6852 49.8897 41.6852 49.8897 41.6485 49.8897ZM27.2396 19.6053C26.9463 22.7584 26.1764 35.7007 32.0426 43.0335C34.4257 46.04 37.6155 47.7265 41.6485 48.1298C45.6449 47.7265 48.908 45.9666 51.2545 43.0335C57.084 35.7007 56.3141 22.7584 56.0208 19.6053C46.9281 18.6887 43.0784 15.9389 41.6485 14.4723C40.1453 15.9389 36.3323 18.6887 27.2396 19.6053Z" fill="#F48120"/>
<path fill-rule="evenodd" clip-rule="evenodd" d="M41.6485 45.3067C41.5752 45.3067 41.5752 45.3067 41.5385 45.3067C38.0921 45.0134 35.3423 43.5468 33.2525 40.9437C27.8629 34.1975 29.3295 22.2451 29.3661 21.7318C29.4394 21.3285 29.8061 20.9619 30.2094 20.9619C38.8254 20.2652 40.7686 17.2588 40.8419 17.1488C40.9152 17.0022 41.0252 16.8922 41.1719 16.7822C41.5752 16.5255 42.1618 16.7455 42.3818 17.1488C42.4551 17.2588 44.3983 20.2652 53.0876 20.9619C53.491 20.9985 53.8576 21.3285 53.8943 21.7318C53.9309 22.2451 55.4341 34.1975 50.0445 40.9437C47.9547 43.5468 45.1316 45.0134 41.7218 45.3067C41.6852 45.3067 41.6852 45.3067 41.6485 45.3067ZM31.126 22.6851C30.906 25.3249 30.466 34.6008 34.6824 39.8804C36.4056 42.0803 38.7521 43.2902 41.6485 43.5835C44.545 43.2902 46.9281 42.0803 48.6513 39.8804C52.8677 34.6008 52.4277 25.3249 52.2077 22.6851C45.7915 22.0251 42.8584 20.1553 41.6485 18.982C40.4019 20.1553 37.5055 22.0251 31.126 22.6851Z" fill="#F48120"/>
<path fill-rule="evenodd" clip-rule="evenodd" d="M39.742 37.1306C39.7053 37.1306 39.7053 37.1306 39.742 37.1306C39.4853 37.1306 39.2654 37.0206 39.082 36.874C39.0454 36.8373 39.0087 36.764 38.9354 36.7273L34.3524 32.1443C33.4358 31.2277 33.4358 29.7979 34.3524 28.8813C34.7557 28.478 35.3423 28.2213 35.8923 28.2213C36.5156 28.2213 37.1022 28.478 37.5055 28.8813L39.7053 31.0444L45.7549 25.0315C46.1582 24.6282 46.7081 24.3716 47.2948 24.3716C47.8814 24.3716 48.5047 24.6282 48.908 25.0315C49.3479 25.5082 49.5679 26.0581 49.5679 26.6448C49.5679 27.268 49.3113 27.818 48.8713 28.2213L40.5119 36.7273C40.4753 36.764 40.4019 36.8373 40.3653 36.874C40.2186 37.0206 39.962 37.1306 39.742 37.1306ZM35.9289 30.0178C35.8556 30.0178 35.7456 30.0178 35.6356 30.1645C35.4157 30.3845 35.4157 30.7144 35.6356 30.9344L39.742 35.0041L47.7347 27.0114C47.8447 26.9014 47.8814 26.7548 47.8814 26.7181C47.8814 26.6081 47.8814 26.4981 47.7347 26.3514C47.5881 26.2048 47.4781 26.2048 47.3681 26.2048C47.2948 26.2048 47.1848 26.2048 47.0748 26.3514L40.5119 32.8043C40.4753 32.8776 40.4019 32.9143 40.3653 32.9509C40.1453 33.1709 39.962 33.2076 39.7053 33.2076C39.4487 33.2076 39.2654 33.1343 39.0454 32.9509C39.0087 32.9143 38.9354 32.8776 38.8987 32.8043L36.2589 30.2378C36.1489 30.0545 36.0023 30.0178 35.9289 30.0178Z" fill="#F48120"/>
<path fill-rule="evenodd" clip-rule="evenodd" d="M56.6807 63.272C56.5707 63.272 56.4241 63.272 56.3141 63.162C55.8741 62.9787 55.6541 62.4654 55.8741 61.9887C57.5606 58.249 59.3938 56.9658 61.1537 55.7559C64.0135 53.776 67.2766 51.4662 71.1263 36.0674C71.2363 35.6641 71.1629 35.2974 70.9796 35.0041C70.833 34.7475 70.503 34.5275 70.173 34.4542C69.5497 34.2708 68.7798 34.4542 68.5231 35.4074C68.2665 36.4707 68.0099 37.4239 67.8265 38.3405C66.25 45.3067 65.1867 49.8897 55.8741 53.2627C55.4341 53.4094 54.9208 53.1894 54.7742 52.7128C54.5909 52.2361 54.8109 51.7229 55.3241 51.5762C58.5139 50.403 60.6404 49.1197 62.0703 47.6532C62.1436 47.6165 62.1803 47.5065 62.217 47.4698C62.5469 47.1399 62.4003 46.6999 62.217 46.5532C62.0703 46.3333 61.777 46.0766 61.3004 46.3333L55.6541 49.3764C53.2343 50.6963 52.7577 52.0162 51.9511 54.4726C51.7678 55.0959 51.5111 55.7925 51.2545 56.5992C51.1078 57.0758 50.5212 57.3324 50.0812 57.1124C49.6046 56.9658 49.3479 56.4158 49.5679 55.9392C49.8246 55.2426 50.0812 54.5093 50.2645 53.9227C51.1078 51.4295 51.7678 49.4497 54.8109 47.7998L60.4571 44.7567C61.6303 44.1701 62.8769 44.4634 63.6469 45.49C64.8201 43.4368 65.3701 41.017 66.1033 37.9372C66.2867 36.984 66.5433 36.0307 66.7999 34.9308C67.3132 32.9509 69.1098 32.291 70.613 32.6943C71.3829 32.9143 72.0429 33.3542 72.5195 33.9775C72.9595 34.7108 73.1061 35.5541 72.9228 36.4707C68.8898 52.4928 65.3701 54.9859 62.2903 57.1858C60.6037 58.3224 59.1372 59.4223 57.5973 62.722C57.3407 63.052 57.0474 63.272 56.6807 63.272Z" fill="#F48120"/>
<path fill-rule="evenodd" clip-rule="evenodd" d="M53.0143 67.8916C52.5744 67.8916 52.1711 67.745 51.8044 67.4517L45.4982 61.3288C45.1316 61.0355 44.9483 60.5588 44.9483 60.1189C44.9483 59.6789 45.0949 59.2023 45.3882 58.8356C45.3882 58.8356 45.3882 58.8356 45.3882 58.799L48.468 55.6825C48.7613 55.3526 49.2013 55.1326 49.6779 55.1326C50.1179 55.1326 50.5945 55.2792 50.9245 55.6092L57.2307 61.6954C57.5973 61.9887 57.8173 62.4654 57.8173 62.9053C57.8173 63.382 57.6706 63.8219 57.3407 64.1886L54.2976 67.3417C54.0043 67.635 53.5276 67.855 53.0143 67.8916ZM46.7815 60.0089L53.0143 66.1318L56.0941 62.9787L49.7879 56.9291L46.7815 60.0089Z" fill="#F48120"/>
<path fill-rule="evenodd" clip-rule="evenodd" d="M26.653 63.272C26.2864 63.272 25.993 63.052 25.8097 62.7587C24.3432 59.4589 22.8766 58.3957 21.1534 57.2224C18.037 55.0226 14.5172 52.5295 10.5209 36.5073C10.2642 35.6274 10.4109 34.7475 10.9242 34.0509C11.3275 33.4276 11.9874 32.9509 12.794 32.7676C14.3339 32.3643 16.0938 33.0243 16.6071 35.0041C16.8637 36.0674 17.1204 37.094 17.3404 38.0106C18.037 41.0537 18.5869 43.4735 19.7602 45.5267C20.5301 44.5001 21.8134 44.2068 22.9866 44.83L28.6328 47.8731C31.6759 49.4864 32.3359 51.4662 33.1425 53.9594C33.3625 54.6193 33.5458 55.2793 33.8758 56.0125C34.0224 56.4525 33.8024 56.9658 33.3625 57.1858C32.8859 57.3324 32.3726 57.1124 32.1892 56.6725C31.8593 55.9025 31.6759 55.1693 31.456 54.5093C30.6494 52.0895 30.2461 50.7696 27.7896 49.4497L22.18 46.4066C21.7034 46.1499 21.4101 46.4066 21.2634 46.5899C21.0801 46.8099 20.9334 47.2132 21.2634 47.5065C21.3001 47.5432 21.3367 47.6165 21.4101 47.7265C22.8766 49.2297 24.9665 50.5129 28.1562 51.6129C28.6328 51.7962 28.8895 52.2728 28.7062 52.7494C28.5595 53.1894 28.0462 53.4461 27.6063 53.2994C18.2936 49.963 17.267 45.38 15.6538 38.4139C15.4338 37.4973 15.2139 36.4707 14.9572 35.4074C14.7006 34.4542 13.9306 34.2708 13.3073 34.4542C12.9774 34.5275 12.6474 34.7475 12.5007 35.0041C12.2808 35.2974 12.2441 35.6641 12.3541 36.0674C16.0938 51.4662 19.3202 53.776 22.18 55.7559C23.9399 56.9658 25.7364 58.249 27.4596 61.9887C27.6429 62.4654 27.4596 62.9787 26.983 63.162C26.9096 63.272 26.7263 63.272 26.653 63.272Z" fill="#F48120"/>
<path fill-rule="evenodd" clip-rule="evenodd" d="M30.2827 67.8916C29.8427 67.8916 29.3661 67.7083 29.0361 67.3417L26.0297 64.2252C25.6631 63.8953 25.5164 63.4186 25.5164 62.9787C25.5164 62.4654 25.7364 62.0621 26.0664 61.6954L32.3359 55.6459C32.6292 55.3526 33.1425 55.1326 33.6191 55.1326C34.0591 55.1326 34.5357 55.3526 34.8657 55.6825L37.8721 58.799C37.8721 58.799 37.8721 58.799 37.8721 58.8356C38.5321 59.5689 38.4954 60.6322 37.8355 61.3288L31.566 67.4517C31.1626 67.7083 30.7227 67.8916 30.2827 67.8916ZM33.5458 56.9291L27.3129 62.9787L30.2827 66.0584L36.5522 60.0089L33.5458 56.9291Z" fill="#F48120"/>
</g>
</g>
<defs>
<clipPath id="clip0_1_89">
<rect width="80" height="80" fill="white"/>
</clipPath>
</defs>
</svg>
