<svg xmlns="http://www.w3.org/2000/svg" xmlns:xlink="http://www.w3.org/1999/xlink" width="40" height="40" viewBox="0 0 40 40">
  <defs>
    <clipPath id="clip-path">
      <rect id="Rectangle_3612" data-name="Rectangle 3612" width="40" height="40" transform="translate(379 3253)" fill="none" stroke="#707070" stroke-width="1"/>
    </clipPath>
  </defs>
  <g id="Mask_Group_8044" data-name="Mask Group 8044" transform="translate(-379 -3253)" clip-path="url(#clip-path)">
    <path id="verify-svgrepo-com" d="M35.577,17l-2.335-2.713a3.805,3.805,0,0,1-.807-2.163V9.211A3.326,3.326,0,0,0,29.122,5.9H26.2a3.851,3.851,0,0,1-2.163-.807L21.328,2.756a3.46,3.46,0,0,0-4.326,0l-2.7,2.352a3.961,3.961,0,0,1-2.163.79H9.173A3.326,3.326,0,0,0,5.86,9.211v2.936a3.907,3.907,0,0,1-.79,2.146l-2.318,2.73a3.457,3.457,0,0,0,0,4.292l2.318,2.73a3.907,3.907,0,0,1,.79,2.146v2.936a3.326,3.326,0,0,0,3.313,3.313h2.97a3.851,3.851,0,0,1,2.163.807l2.713,2.335a3.46,3.46,0,0,0,4.326,0l2.712-2.335a3.8,3.8,0,0,1,2.163-.807h2.918a3.326,3.326,0,0,0,3.313-3.313V26.207a3.851,3.851,0,0,1,.807-2.163l2.335-2.712A3.483,3.483,0,0,0,35.577,17Zm-9.271-1.082-8.292,8.292a1.285,1.285,0,0,1-1.82,0L12.04,20.061a1.287,1.287,0,1,1,1.82-1.82L17.1,21.486,24.487,14.1a1.287,1.287,0,0,1,1.82,1.82Z" transform="translate(378.994 3253.665)"/>
  </g>
</svg>
