<svg width="41" height="45" viewBox="0 0 41 45" fill="none" xmlns="http://www.w3.org/2000/svg">
<g clip-path="url(#clip0_128_22976)">
<path fill-rule="evenodd" clip-rule="evenodd" d="M20.4029 0C28.0376 4.83969 34.9352 7.12862 40.8539 6.58824C41.8881 27.4979 34.1663 39.8457 20.4811 45C7.26686 40.1761 -0.549755 28.3589 0.0301644 6.27016C6.97866 6.63393 13.7962 5.13229 20.4029 0ZM24.4667 19.35V17.8703C24.4667 16.7052 24.0134 15.649 23.2823 14.8872C22.56 14.1342 21.5654 13.6659 20.4723 13.6659C19.3801 13.6659 18.3855 14.1342 17.6632 14.8872C16.9322 15.649 16.4788 16.7052 16.4788 17.8703V19.35H24.4667ZM14.6933 19.35V17.8703C14.6933 16.2316 15.3392 14.7387 16.3795 13.6536C17.4295 12.5597 18.8776 11.8804 20.4732 11.8804C22.0689 11.8804 23.5178 12.5588 24.566 13.6536C25.6073 14.7387 26.2531 16.2316 26.2531 17.8703V19.35H26.8919C27.4103 19.35 27.8347 19.7744 27.8347 20.2928V30.2586C27.8347 30.7779 27.4103 31.2023 26.8919 31.2023H14.0546C13.5353 31.2023 13.1117 30.7779 13.1117 30.2586V20.2928C13.1109 19.7744 13.5353 19.35 14.0546 19.35H14.6933ZM19.6991 25.715L18.6807 28.38H22.2648L21.322 25.6781C21.9204 25.3706 22.329 24.7467 22.329 24.028C22.329 23.0017 21.4986 22.1714 20.4723 22.1714C19.4478 22.1714 18.6166 23.0017 18.6166 24.028C18.6166 24.7757 19.0603 25.4207 19.6991 25.715ZM20.4161 3.48303C26.7478 7.4959 32.8246 9.75231 37.7337 9.30332C38.5913 26.6438 31.83 37.2423 20.4829 41.5161C9.52239 37.5164 2.68286 27.359 3.16349 9.04059C9.52327 9.37361 15.3515 7.4177 20.4161 3.48303Z" fill="black"/>
</g>
<defs>
<clipPath id="clip0_128_22976">
<rect width="40.9458" height="45" fill="white"/>
</clipPath>
</defs>
</svg>
