<svg width="66" height="45" viewBox="0 0 66 45" fill="none" xmlns="http://www.w3.org/2000/svg">
<path d="M40.9569 0C46.3727 0 51.2846 2.20388 54.8451 5.74833C58.4003 9.3035 60.5934 14.2046 60.5934 19.6312C60.5934 23.5939 59.4137 27.2939 57.3975 30.3771L65.8967 39.6377L60.0358 44.9946L51.8315 35.9807C48.7214 38.0559 44.9732 39.2624 40.9569 39.2624C36.4847 39.2624 32.3558 37.761 29.0527 35.2407C26.9936 37.3159 25.0256 39.2892 23.3687 40.9461L11.9846 29.7015L3.98415 37.4714L0 33.4872L12.0543 21.7707C15.8186 25.535 19.54 29.2564 23.3419 33.01L25.1061 31.2297C22.7252 27.9802 21.3257 23.98 21.3257 19.6366C21.3257 14.2207 23.5296 9.30887 27.074 5.75369C30.6292 2.1878 35.5303 0 40.9569 0ZM28.1196 28.1893L35.9646 20.2693L31.2941 15.5988L44.4316 15.4808V28.7363L39.9434 24.2481C37.6913 26.5271 34.8546 29.3959 31.9912 32.2861C34.5275 34.1361 37.6591 35.2353 41.0373 35.2353C45.2788 35.2353 49.1289 33.5087 51.9066 30.7257C54.6896 27.9427 56.4162 24.0979 56.4162 19.8564C56.4162 15.6149 54.6896 11.7648 51.9066 8.98713C49.1236 6.20412 45.2788 4.47748 41.0373 4.47748C36.7958 4.47748 32.9457 6.20412 30.168 8.98713C27.385 11.7701 25.6584 15.6149 25.6584 19.8564C25.6584 22.9236 26.5646 25.7871 28.1196 28.1893Z" fill="black"/>
</svg>
