<svg width="45" height="45" viewBox="0 0 45 45" fill="none" xmlns="http://www.w3.org/2000/svg">
<path d="M22.5 45C34.9264 45 45 34.9264 45 22.5C45 10.0736 34.9264 0 22.5 0C10.0736 0 0 10.0736 0 22.5C0 34.9264 10.0736 45 22.5 45Z" fill="url(#paint0_linear_229_78)"/>
<g clip-path="url(#clip0_229_78)">
<path d="M13.9872 28.5226C13.8002 28.6867 13.5147 28.6696 13.349 28.484C13.1837 28.2983 13.2014 28.0146 13.3884 27.8505C13.9015 27.4007 14.2764 26.8206 14.4925 26.0919C14.7161 25.3396 14.7718 24.4245 14.6402 23.3273C14.3966 22.1403 14.3527 21.0444 14.4954 20.0551C14.6443 19.0183 14.9974 18.0978 15.5372 17.3117C15.6783 17.107 15.9601 17.0541 16.1664 17.1941C16.3731 17.3337 16.426 17.6134 16.2853 17.8182C15.8239 18.4903 15.5212 19.2833 15.392 20.1817C15.2636 21.0721 15.3042 22.0658 15.5265 23.1478C15.5323 23.1694 15.5368 23.1922 15.5397 23.2154C15.6873 24.4371 15.6196 25.4739 15.3608 26.3455C15.0946 27.2423 14.6283 27.9604 13.9872 28.5226ZM16.0749 28.3346C16.2078 28.1245 16.4875 28.0618 16.6988 28.1937C16.91 28.3256 16.9736 28.6028 16.8407 28.8129L15.9937 30.1526C15.8608 30.3627 15.5815 30.4258 15.3699 30.2935C15.1586 30.1616 15.095 29.8844 15.2283 29.6747L16.0749 28.3346ZM20.3877 28.795C20.4414 28.5532 20.6826 28.4001 20.9262 28.4534C21.1699 28.5068 21.3241 28.7465 21.2704 28.9884L20.9041 30.6236C20.8504 30.8655 20.6088 31.0181 20.3651 30.9648C20.1215 30.9115 19.9677 30.6721 20.0214 30.4303L20.3877 28.795ZM20.8647 20.7496C20.8196 20.5062 20.9824 20.2721 21.2281 20.2273C21.4734 20.1826 21.7092 20.3442 21.7543 20.588C21.968 21.7279 22.0706 22.8799 22.0739 24.0381C22.0775 25.1906 21.9824 26.3484 21.8019 27.5065C21.7638 27.7512 21.5329 27.9189 21.2864 27.8811C21.0394 27.8432 20.8705 27.614 20.9086 27.3694C21.0821 26.2568 21.1736 25.1446 21.1703 24.0381C21.167 22.9373 21.069 21.8398 20.8647 20.7496ZM18.0633 30.8089C17.919 31.0116 17.6364 31.0596 17.4325 30.9163C17.2283 30.7735 17.1799 30.493 17.3238 30.2902C17.6167 29.8803 17.8657 29.4284 18.0691 28.935L18.0789 28.9134C18.2774 28.4266 18.4317 27.8978 18.5391 27.3258L18.5395 27.3242C18.7426 26.2425 18.6449 24.8584 18.5527 23.5504C18.5215 23.1108 18.4911 22.6784 18.4715 22.2335C18.4432 21.5838 18.4313 20.945 18.5531 20.3637C18.6872 19.7254 18.9764 19.1705 19.5551 18.7683C19.6859 18.6775 19.8262 18.5969 19.9771 18.5277C20.1285 18.4581 20.2925 18.3975 20.4685 18.3478C20.5998 18.3107 20.7294 18.2814 20.8557 18.2599C21.7228 18.1129 22.4114 18.3364 22.943 18.7968C23.4458 19.2324 23.7879 19.8736 23.9967 20.6006C24.059 20.8176 24.1099 21.0444 24.1497 21.2764C24.1714 21.4022 24.1899 21.5304 24.205 21.6583C24.2198 21.7845 24.2317 21.9143 24.2403 22.0462C24.2793 22.6296 24.2895 23.276 24.2735 23.9555C23.8363 24.4636 23.4965 25.0468 23.2707 25.6763C23.3777 24.398 23.4032 23.1429 23.3343 22.1028C23.3269 21.9929 23.3162 21.8785 23.3023 21.7604C23.2896 21.6501 23.2732 21.539 23.2543 21.4278C23.2202 21.2296 23.1759 21.0346 23.1222 20.8473C22.9586 20.2758 22.7047 19.7848 22.3462 19.4742C22.0164 19.1888 21.5767 19.0525 21.0083 19.149C20.916 19.1648 20.8188 19.1868 20.7171 19.2157C20.5842 19.2532 20.4644 19.2967 20.3574 19.346C20.2499 19.3952 20.156 19.449 20.0739 19.5056C19.715 19.7551 19.5313 20.1195 19.4419 20.5469C19.3402 21.0305 19.3521 21.6049 19.3779 22.1948C19.3951 22.5848 19.4267 23.0334 19.4591 23.4906C19.5551 24.8511 19.6568 26.2914 19.4312 27.4899C19.3123 28.1196 19.14 28.7066 18.9173 29.2526L18.9079 29.2774C18.6798 29.8298 18.3976 30.3403 18.0633 30.8089ZM23.5176 29.9328C23.436 30.2617 23.3478 30.5748 23.2543 30.8671C23.1788 31.1036 22.9241 31.2351 22.6858 31.1602C22.4471 31.0853 22.315 30.8321 22.3905 30.5956C22.6251 29.8628 22.8232 28.9839 22.9783 28.0451C23.0435 28.7168 23.2305 29.3535 23.5176 29.9328ZM17.3292 27.0343C17.2861 27.2794 17.0515 27.443 16.805 27.4003C16.5581 27.3575 16.3932 27.1243 16.4363 26.8796C16.5322 26.3427 16.5868 25.7422 16.6061 25.0888C16.6253 24.4253 16.6089 23.6978 16.5642 22.9202C16.5544 22.7476 16.54 22.5421 16.5257 22.343C16.4309 21.0122 16.3546 19.9395 17.1405 18.5526C17.3136 18.2464 17.5224 17.9619 17.7701 17.7009C18.0182 17.4396 18.3033 17.2043 18.6285 16.9991C18.6511 16.9849 18.6749 16.9726 18.6987 16.9629C19.1761 16.7353 19.6527 16.5586 20.1273 16.4438C20.6182 16.3246 21.1047 16.2724 21.5849 16.2981C21.8343 16.3107 22.0267 16.5216 22.014 16.7695C22.0013 17.017 21.7884 17.2079 21.539 17.1953C21.1465 17.1741 20.7462 17.2177 20.3397 17.3162C19.9349 17.4143 19.5198 17.5686 19.0978 17.7697C18.8414 17.933 18.6195 18.1162 18.4292 18.3164C18.2348 18.5212 18.0695 18.7476 17.9309 18.9922C17.2775 20.1455 17.3456 21.0981 17.4292 22.2795V22.2811C17.442 22.459 17.4551 22.6414 17.4682 22.871C17.5137 23.6648 17.5301 24.4159 17.5096 25.1132C17.4891 25.8212 17.4309 26.466 17.3292 27.0343ZM23.1682 17.694C22.9549 17.565 22.8876 17.2881 23.0176 17.0764C23.1476 16.8648 23.4266 16.798 23.6398 16.927C23.7612 17.0007 23.8855 17.0846 24.0118 17.179C24.1398 17.2743 24.2612 17.3736 24.3752 17.4766C25.6943 18.6653 26.296 20.4492 26.4867 22.3955C26.1824 22.5123 25.8912 22.6552 25.616 22.8209C25.4818 20.9442 24.9687 19.2255 23.7657 18.1414C23.6628 18.0486 23.564 17.9672 23.4696 17.8967C23.3726 17.8242 23.272 17.7566 23.1682 17.694ZM12.7481 26.8312C12.5595 26.9932 12.2736 26.9728 12.1103 26.7852C11.9467 26.5979 11.9676 26.3142 12.1563 26.1521C12.2592 26.0634 12.3503 25.958 12.4282 25.835C12.509 25.708 12.5771 25.5594 12.6308 25.3893C12.9073 24.514 12.7395 23.596 12.5693 22.6658C12.4528 22.0291 12.3355 21.3871 12.3396 20.7138C12.3601 17.2784 14.5245 14.4768 17.3571 13.0426C18.5453 12.4409 19.8549 12.079 21.1756 12.0114C22.5025 11.9438 23.8392 12.1743 25.0746 12.7572C27.8189 14.053 30.0502 17.0748 30.528 22.4167C30.2274 22.2978 29.9136 22.2038 29.59 22.1382C29.0826 17.3891 27.1032 14.71 24.6882 13.5698C23.5923 13.0523 22.4032 12.8484 21.2216 12.9086C20.0329 12.9693 18.848 13.2978 17.7684 13.845C15.214 15.1383 13.2616 17.6496 13.2432 20.7175C13.2399 21.3086 13.3498 21.9107 13.4589 22.507C13.6492 23.5484 13.8375 24.5759 13.4958 25.6567C13.4187 25.9002 13.3174 26.1192 13.194 26.3134C13.0676 26.5124 12.9183 26.6846 12.7481 26.8312ZM18.2332 16.0286C18.017 16.1532 17.7397 16.0799 17.6146 15.8654C17.4895 15.6504 17.5634 15.3756 17.7795 15.251C18.2504 14.9816 18.7516 14.7674 19.2704 14.6111C20.6912 14.1824 22.2346 14.1946 23.6374 14.6836C25.0479 15.1753 26.3161 16.1446 27.1787 17.6268C27.4654 18.1202 27.7078 18.6727 27.8952 19.2845C28.1479 20.1105 28.3238 21.0256 28.4202 22.0283C28.1126 22.0316 27.8107 22.0597 27.517 22.1109C27.4264 21.1616 27.2632 20.3055 27.0302 19.5446C26.8649 19.0044 26.65 18.5159 26.3953 18.0771C25.648 16.7931 24.5537 15.9545 23.3396 15.5315C22.1182 15.1057 20.7728 15.0955 19.5325 15.4693C19.0838 15.6048 18.6466 15.7917 18.2332 16.0286Z" fill="white"/>
<path fill-rule="evenodd" clip-rule="evenodd" d="M28.4804 23.0283C30.9774 23.0283 32.9999 25.0373 32.9999 27.5141C32.9999 29.9924 30.9758 32.0002 28.4804 32.0002C25.9833 32.0002 23.9604 29.9912 23.9604 27.5141C23.9604 25.0361 25.9846 23.0283 28.4804 23.0283ZM27.0776 26.8012L27.8787 27.5523L29.7715 25.6475C29.9286 25.4896 30.0271 25.363 30.2203 25.5604L30.8482 26.1987C31.0541 26.4011 31.0438 26.5195 30.8494 26.708L28.2371 29.2589C27.827 29.6578 27.8984 29.6822 27.4825 29.2731L26.0211 27.8304C25.9341 27.7371 25.9436 27.6431 26.0387 27.5499L26.7671 26.8004C26.8775 26.6848 26.9653 26.695 27.0776 26.8012Z" fill="white"/>
</g>
<defs>
<linearGradient id="paint0_linear_229_78" x1="22.5" y1="0" x2="7.02" y2="35.595" gradientUnits="userSpaceOnUse">
<stop stop-color="#3E3E3E"/>
<stop offset="1" stop-color="#1A1A1A"/>
</linearGradient>
<clipPath id="clip0_229_78">
<rect width="21" height="20" fill="white" transform="translate(12 12)"/>
</clipPath>
</defs>
</svg>
