<svg width="45" height="45" viewBox="0 0 45 45" fill="none" xmlns="http://www.w3.org/2000/svg">
<path d="M22.5 45C34.9264 45 45 34.9264 45 22.5C45 10.0736 34.9264 0 22.5 0C10.0736 0 0 10.0736 0 22.5C0 34.9264 10.0736 45 22.5 45Z" fill="url(#paint0_linear_1_10)"/>
<path fill-rule="evenodd" clip-rule="evenodd" d="M25.5103 18.0002L26.143 18.6286C26.3089 18.7934 26.3089 19.0658 26.143 19.2306L25.632 19.7382C25.7735 19.9997 25.8797 20.2809 25.9483 20.5754H26.6097C26.8464 20.5754 27.0388 20.7665 27.0388 21.0016V21.8915C27.0388 22.1266 26.8464 22.3178 26.6097 22.3178H25.8886C25.8001 22.6078 25.674 22.8803 25.5147 23.133L25.9815 23.5966C26.1474 23.7614 26.1474 24.0338 25.9815 24.1986L25.3488 24.8271C25.1829 24.9919 24.9087 24.9919 24.7428 24.8271L24.234 24.3217C23.9708 24.4623 23.6876 24.5678 23.389 24.6359V25.2929C23.389 25.528 23.1966 25.7192 22.9599 25.7192H22.064C21.8273 25.7192 21.6349 25.528 21.6349 25.2929V24.5766C21.3429 24.4887 21.0686 24.3634 20.8142 24.2052L20.3519 24.6667C20.186 24.8315 19.9118 24.8315 19.7459 24.6667L19.1132 24.0382C18.9473 23.8734 18.9473 23.601 19.1132 23.4362L19.622 22.9308C19.4804 22.6693 19.3742 22.3881 19.3057 22.0937H18.6443C18.4098 22.0937 18.2151 21.9025 18.2151 21.6674V20.7775C18.2151 20.5424 18.4076 20.3512 18.6443 20.3512H19.3654C19.4539 20.0612 19.58 19.7887 19.7392 19.536L19.2725 19.0724C19.1066 18.9076 19.1066 18.6352 19.2725 18.4704L19.9051 17.842C20.071 17.6772 20.3453 17.6772 20.5112 17.842L21.0222 18.3495C21.2854 18.2089 21.5685 18.1034 21.8649 18.0353V17.3783C21.8649 17.1432 22.0574 16.9521 22.2941 16.9521H23.1899C23.4266 16.9521 23.6191 17.1432 23.6191 17.3783V18.0946C23.911 18.1825 24.1853 18.3078 24.4397 18.466L24.9064 18.0024C25.0723 17.8332 25.3444 17.8332 25.5103 18.0002ZM19.7613 31.4276C19.5092 31.4342 19.288 31.2497 19.2526 30.997C19.215 30.7333 19.3941 30.4894 19.6552 30.4389C19.3676 28.8195 18.5823 27.9274 17.7528 26.9848C17.1069 26.2509 16.4367 25.4884 15.908 24.3656C15.3882 23.2604 15.1029 22.1178 15.1117 20.9313C15.1228 19.7448 15.4258 18.5231 16.085 17.2597C16.0894 17.2509 16.0938 17.2443 16.0983 17.2355C16.9632 15.7809 18.1731 14.8097 19.5202 14.2648C20.6506 13.8056 21.8782 13.6496 23.0815 13.7594C24.2804 13.8693 25.455 14.2428 26.4814 14.8449C27.7865 15.6117 28.8593 16.7499 29.4499 18.1869C29.7684 18.9648 29.9852 19.8327 30.0117 20.7841C30.0383 21.7311 29.8746 22.7528 29.4344 23.8339C28.846 25.2819 28.0674 26.1806 27.3396 27.0221C26.6694 27.7978 26.0456 28.5185 25.6983 29.6237C25.8952 29.6698 26.05 29.8302 26.081 30.0412C26.1186 30.3136 25.9262 30.5663 25.6519 30.6037L25.4838 30.6278C25.4528 30.8673 25.4329 31.1244 25.4241 31.3991L25.4794 31.3903C25.7536 31.3529 26.008 31.5441 26.0456 31.8166C26.0832 32.089 25.8908 32.3417 25.6165 32.3791L25.444 32.4032C25.4462 32.4362 25.4484 32.4692 25.4506 32.5021C25.4661 32.6955 25.4683 32.8822 25.4572 33.0602L25.486 33.0558C25.7625 33.0229 26.0124 33.2184 26.0478 33.4909C26.081 33.7655 25.8841 34.0138 25.6099 34.049L25.2382 34.0951C24.9728 34.7785 24.4994 35.2992 23.9398 35.62C23.5549 35.842 23.128 35.9694 22.6989 35.9958C22.2631 36.0221 21.8229 35.9408 21.4203 35.7475C20.9602 35.5234 20.5488 35.152 20.2502 34.6181C20.1064 34.5456 20.0002 34.4049 19.9781 34.2336C19.9693 34.1654 19.9759 34.0995 19.9936 34.038C19.9073 33.7831 19.8432 33.5041 19.8012 33.1964L19.7857 33.1986C19.5114 33.236 19.257 33.0448 19.2194 32.7724C19.1818 32.4999 19.3742 32.2472 19.6485 32.2099L19.768 32.1923C19.7746 31.9242 19.7724 31.6693 19.7613 31.4276ZM10.482 21.9333C10.2232 21.9399 10.0086 21.7399 9.99979 21.4828C9.99094 21.2257 10.1944 21.0126 10.4532 21.0038L12.3777 20.9379C12.6365 20.9291 12.8511 21.1313 12.8599 21.3883C12.8688 21.6454 12.6652 21.8586 12.4064 21.8673L10.482 21.9333ZM34.4844 20.0414C34.741 20.015 34.971 20.2018 34.9976 20.4567C35.0241 20.7116 34.8361 20.9401 34.5795 20.9665L32.6639 21.1664C32.4073 21.1928 32.1773 21.006 32.1507 20.7511C32.1242 20.4963 32.3122 20.2677 32.5688 20.2414L34.4844 20.0414ZM30.9961 12.2477C31.1399 12.0346 31.4296 11.9775 31.6442 12.1203C31.8588 12.2631 31.9163 12.5509 31.7725 12.7641L30.7019 14.3549C30.5581 14.568 30.2683 14.6252 30.0538 14.4823C29.8392 14.3395 29.7817 14.0517 29.9255 13.8385L30.9961 12.2477ZM22.7475 9.45279C22.7542 9.19571 22.9687 8.99356 23.2253 9.00016C23.4841 9.00675 23.6876 9.21988 23.681 9.47477L23.6323 11.3864C23.6257 11.6435 23.4111 11.8456 23.1545 11.839C22.8957 11.8324 22.6922 11.6193 22.6989 11.3644L22.7475 9.45279ZM13.07 12.4125C12.8798 12.2367 12.871 11.9423 13.0457 11.7555C13.2227 11.5666 13.5191 11.5578 13.7071 11.7314L15.1161 13.0365C15.3064 13.2123 15.3152 13.5067 15.1405 13.6935C14.9635 13.8825 14.6671 13.8913 14.4791 13.7177L13.07 12.4125ZM20.5908 30.3048L24.6808 29.727C25.0325 28.2548 25.7979 27.3693 26.6274 26.4135C27.3087 25.6269 28.0342 24.7875 28.5651 23.4823C28.9544 22.5265 29.0982 21.63 29.0761 20.8039C29.0539 19.9799 28.8637 19.2196 28.5806 18.5319C28.0718 17.2948 27.1406 16.3105 26.0036 15.6425C25.0945 15.1086 24.057 14.7768 22.9975 14.6823C21.9424 14.5856 20.8651 14.724 19.8719 15.1261C18.7084 15.5985 17.6621 16.4379 16.9101 17.7013C16.3261 18.8263 16.0562 19.903 16.0474 20.9379C16.0385 21.9794 16.2929 22.9879 16.7552 23.9701C17.2264 24.9721 17.8546 25.684 18.4563 26.3695C19.3941 27.4374 20.2812 28.446 20.5908 30.3048ZM24.5149 30.7597L20.6948 31.298C20.7059 31.5397 20.7103 31.7924 20.7059 32.0605L24.4773 31.5287C24.4817 31.2585 24.4928 31.0014 24.5149 30.7597ZM20.7258 33.0668C20.7523 33.269 20.7921 33.4535 20.843 33.6249L24.5039 33.1767C24.5282 32.9877 24.5326 32.7878 24.5149 32.5746V32.5702L24.5127 32.5329L20.7258 33.0668ZM21.3628 34.5697C21.5044 34.717 21.6614 34.8312 21.8273 34.9103C22.0817 35.0334 22.3626 35.0839 22.6391 35.0685C22.9245 35.0509 23.2076 34.9652 23.4664 34.8158C23.7098 34.6752 23.9287 34.4796 24.1035 34.2336L21.3628 34.5697ZM22.6281 19.5844C23.5992 19.5844 24.3888 20.3666 24.3888 21.3334C24.3888 22.3002 23.6014 23.0824 22.6281 23.0824C21.6548 23.0824 20.8673 22.3002 20.8673 21.3334C20.8673 20.3666 21.657 19.5844 22.6281 19.5844Z" fill="white"/>
<defs>
<linearGradient id="paint0_linear_1_10" x1="22.5" y1="0" x2="7.02" y2="35.595" gradientUnits="userSpaceOnUse">
<stop stop-color="#3E3E3E"/>
<stop offset="1" stop-color="#1A1A1A"/>
</linearGradient>
</defs>
</svg>
