<svg width="45" height="45" viewBox="0 0 45 45" fill="none" xmlns="http://www.w3.org/2000/svg">
<path d="M22.5 45C34.9264 45 45 34.9264 45 22.5C45 10.0736 34.9264 0 22.5 0C10.0736 0 0 10.0736 0 22.5C0 34.9264 10.0736 45 22.5 45Z" fill="url(#paint0_linear_229_72)"/>
<path fill-rule="evenodd" clip-rule="evenodd" d="M21.0337 15.7275L20.0732 20.6101L19.0991 19.1421C17.0005 19.9846 15.823 21.374 15.6487 23.512C13.926 20.499 14.9719 17.7988 17.156 16.2163L16.1614 14.7192L21.0337 15.7275ZM24.925 13H31.9985C32.2737 13 32.5249 13.1128 32.7061 13.2939C32.8872 13.4751 33 13.7246 33 14.0015V19.501C33 19.7761 32.8872 20.0273 32.7061 20.2085C32.6855 20.229 32.665 20.2478 32.6428 20.2649C32.4685 20.4119 32.2429 20.5024 31.9985 20.5024H24.925C24.6499 20.5024 24.3987 20.3896 24.2175 20.2085C24.0364 20.0273 23.9236 19.7778 23.9236 19.501V14.0015C23.9236 13.728 24.0364 13.4785 24.2175 13.2957L24.2192 13.2939C24.3987 13.1128 24.6499 13 24.925 13ZM13.0015 24.428H20.075C20.3501 24.428 20.6013 24.5408 20.7825 24.7219C20.9636 24.9031 21.0764 25.1526 21.0764 25.4294V30.929C21.0764 31.2041 20.9636 31.4553 20.7825 31.6365C20.762 31.657 20.7415 31.6758 20.7192 31.6929C20.5449 31.8398 20.3193 31.9304 20.075 31.9304H13.0015C12.7263 31.9304 12.4751 31.8176 12.2939 31.6365C12.1128 31.4553 12 31.2041 12 30.9272V25.4277C12 25.1526 12.1128 24.9014 12.2939 24.7202C12.3145 24.6997 12.3384 24.6792 12.3606 24.6621C12.5349 24.5151 12.7588 24.428 13.0015 24.428ZM19.7332 25.7678H13.3416V30.5872H19.7349V25.7678H19.7332ZM31.6584 14.3416H25.2668V19.1609H31.6602V14.3416H31.6584ZM24.1338 30.353L25.0942 25.4705L26.0684 26.9385C28.167 26.0959 29.3445 24.7083 29.5205 22.5703C31.2432 25.5833 30.1973 28.2852 28.0132 29.866L29.0078 31.363L24.1338 30.353Z" fill="white"/>
<defs>
<linearGradient id="paint0_linear_229_72" x1="22.5" y1="0" x2="7.02" y2="35.595" gradientUnits="userSpaceOnUse">
<stop stop-color="#3E3E3E"/>
<stop offset="1" stop-color="#1A1A1A"/>
</linearGradient>
</defs>
</svg>
