<svg width="55" height="45" viewBox="0 0 55 45" fill="none" xmlns="http://www.w3.org/2000/svg">
<g clip-path="url(#clip0_128_22974)">
<path fill-rule="evenodd" clip-rule="evenodd" d="M1.47498 0H52.79C53.1808 0.00116492 53.5553 0.156938 53.8317 0.433297C54.108 0.709657 54.2638 1.08415 54.265 1.47498V35.4789C54.2638 35.8697 54.108 36.2442 53.8317 36.5206C53.5553 36.7969 53.1808 36.9527 52.79 36.9539H1.47498C1.28071 36.9533 1.08845 36.9145 0.909179 36.8396C0.729912 36.7647 0.56715 36.6552 0.430186 36.5175C0.293221 36.3797 0.184737 36.2163 0.110927 36.0365C0.0371166 35.8568 -0.000574185 35.6643 6.61142e-06 35.4701V1.46614C0.00349129 1.07685 0.160287 0.704617 0.436397 0.430161C0.712507 0.155704 1.08567 0.00114653 1.47498 0ZM5.57312 10.2498H9.38862C9.43309 10.2509 9.47688 10.2609 9.51746 10.2791C9.55804 10.2973 9.5946 10.3234 9.625 10.3558C9.65541 10.3883 9.67906 10.4265 9.69458 10.4682C9.7101 10.5098 9.71719 10.5542 9.71541 10.5986V11.8793C9.71425 11.9675 9.67838 12.0518 9.61557 12.1138C9.55275 12.1758 9.46804 12.2105 9.37979 12.2105H5.57312C5.48486 12.2105 5.40016 12.1758 5.33734 12.1138C5.27453 12.0518 5.23866 11.9675 5.23749 11.8793V10.5986C5.23866 10.5104 5.27453 10.4261 5.33734 10.3642C5.40016 10.3022 5.48486 10.2674 5.57312 10.2674V10.2498ZM5.57312 21.0118H18.9274C19.0156 21.0118 19.1003 21.0465 19.1632 21.1085C19.226 21.1705 19.2618 21.2547 19.263 21.343V22.6413C19.2618 22.7296 19.226 22.8138 19.1632 22.8758C19.1003 22.9378 19.0156 22.9725 18.9274 22.9725H5.57312C5.48486 22.9725 5.40016 22.9378 5.33734 22.8758C5.27453 22.8138 5.23866 22.7296 5.23749 22.6413V21.343C5.23866 21.2547 5.27453 21.1705 5.33734 21.1085C5.40016 21.0465 5.48486 21.0118 5.57312 21.0118ZM5.57312 15.5314H13.84C13.9287 15.5325 14.0134 15.5683 14.0761 15.631C14.1388 15.6937 14.1745 15.7784 14.1757 15.867V17.1654C14.1734 17.2532 14.1372 17.3368 14.0746 17.3986C14.012 17.4603 13.928 17.4955 13.84 17.4966H5.57312C5.48486 17.4966 5.40016 17.4618 5.33734 17.3998C5.27453 17.3378 5.23866 17.2536 5.23749 17.1654V15.867C5.23749 15.778 5.27285 15.6926 5.3358 15.6297C5.39874 15.5668 5.48411 15.5314 5.57312 15.5314ZM5.57312 26.4877H24.6506C24.7389 26.4889 24.8231 26.5248 24.8851 26.5876C24.9471 26.6504 24.9819 26.7351 24.9819 26.8234V28.1217C24.9807 28.2092 24.9454 28.2928 24.8836 28.3546C24.8217 28.4165 24.7381 28.4518 24.6506 28.4529H5.57312C5.48486 28.4529 5.40016 28.4181 5.33734 28.3562C5.27453 28.2942 5.23866 28.2099 5.23749 28.1217V26.8234C5.23749 26.7343 5.27285 26.649 5.3358 26.586C5.39874 26.5231 5.48411 26.4877 5.57312 26.4877ZM20.4421 38.9809H33.8229C33.8582 41.2949 34.8121 43.3705 37.3955 45H16.8695C18.9495 43.4941 20.4509 41.6703 20.4421 38.9809ZM52.3351 5.14475V31.2836C52.3351 31.635 52.1956 31.972 51.9471 32.2204C51.6987 32.4689 51.3617 32.6084 51.0103 32.6084H3.237C2.88948 32.6026 2.55815 32.4605 2.31445 32.2127C2.07075 31.9649 1.93421 31.6312 1.93426 31.2836V5.14475H13.9284V6.85378C13.9284 7.08802 14.0214 7.31267 14.1871 7.47831C14.3527 7.64394 14.5773 7.737 14.8116 7.737H16.1585C16.2906 8.3314 16.4999 8.90596 16.7812 9.44602L15.7478 10.4838C15.5873 10.6487 15.4975 10.8697 15.4975 11.0999C15.4975 11.33 15.5873 11.551 15.7478 11.7159L17.0329 13.0054C17.198 13.1672 17.42 13.2579 17.6511 13.2579C17.8823 13.2579 18.1043 13.1672 18.2694 13.0054L19.2188 12.0515C19.7406 12.3767 20.3035 12.6307 20.8925 12.8067V14.2728C20.8925 14.5071 20.9856 14.7317 21.1512 14.8973C21.3169 15.063 21.5415 15.156 21.7758 15.156H23.5996C23.8339 15.156 24.0585 15.063 24.2241 14.8973C24.3898 14.7317 24.4828 14.5071 24.4828 14.2728V12.948C25.0821 12.8122 25.6601 12.5953 26.2007 12.3032L27.2385 13.341C27.4034 13.5015 27.6244 13.5913 27.8545 13.5913C28.0846 13.5913 28.3057 13.5015 28.4706 13.341L29.7601 12.0515C29.9206 11.8866 30.0104 11.6656 30.0104 11.4355C30.0104 11.2054 29.9206 10.9843 29.7601 10.8194L28.8106 9.86997C29.1362 9.34943 29.3916 8.78815 29.5702 8.20069H31.0363C31.2706 8.20069 31.4952 8.10763 31.6608 7.942C31.8265 7.77636 31.9195 7.55171 31.9195 7.31747V5.49362C31.9192 5.37381 31.8952 5.25525 31.8489 5.14475H52.3351ZM46.4617 11.4421L47.8925 12.8729C48.073 13.0542 48.1742 13.2995 48.1742 13.5552C48.1742 13.8109 48.073 14.0562 47.8925 14.2375L46.7399 15.3901C47.062 15.9899 47.3026 16.63 47.4554 17.2934H48.9436C49.1982 17.2969 49.4412 17.4002 49.6205 17.5811C49.7997 17.7619 49.9007 18.0059 49.9019 18.2605V20.2831C49.9019 20.5396 49.8 20.7856 49.6186 20.967C49.4372 21.1484 49.1912 21.2502 48.9347 21.2502H47.3096C47.1122 21.9019 46.8286 22.5242 46.4662 23.1006L47.5216 24.156C47.7023 24.338 47.8037 24.5841 47.8037 24.8405C47.8037 25.097 47.7023 25.343 47.5216 25.525L46.0996 26.9382C45.9176 27.1189 45.6716 27.2203 45.4151 27.2203C45.1587 27.2203 44.9126 27.1189 44.7306 26.9382L43.5824 25.7856C42.9811 26.1077 42.3395 26.3483 41.6747 26.501V27.9936C41.6735 28.2498 41.5713 28.4951 41.3901 28.6762C41.209 28.8573 40.9637 28.9596 40.7076 28.9607H38.685C38.4289 28.9596 38.1835 28.8573 38.0024 28.6762C37.8213 28.4951 37.719 28.2498 37.7179 27.9936V26.3817C37.0666 26.1835 36.4444 25.8998 35.8675 25.5383L34.8121 26.5937C34.6301 26.7744 34.384 26.8758 34.1276 26.8758C33.8711 26.8758 33.6251 26.7744 33.4431 26.5937L32.0167 25.1717C31.8363 24.9905 31.735 24.7452 31.735 24.4895C31.735 24.2337 31.8363 23.9884 32.0167 23.8072L33.1649 22.6546C32.8464 22.0551 32.6074 21.4168 32.4539 20.7556H30.9612C30.7051 20.7545 30.4598 20.6522 30.2787 20.4711C30.0975 20.29 29.9953 20.0447 29.9941 19.7885V17.7527C29.9941 17.4958 30.0959 17.2493 30.2771 17.0673C30.4584 16.8852 30.7043 16.7823 30.9612 16.7812H32.5908C32.7863 16.1288 33.0701 15.5063 33.4343 14.9308L32.3788 13.8754C32.2883 13.7858 32.2164 13.6792 32.1674 13.5617C32.1183 13.4443 32.0931 13.3182 32.0931 13.1909C32.0931 13.0636 32.1183 12.9375 32.1674 12.82C32.2164 12.7025 32.2883 12.5959 32.3788 12.5064L33.8052 11.0756C33.9872 10.8949 34.2333 10.7935 34.4897 10.7935C34.7462 10.7935 34.9922 10.8949 35.1742 11.0756L36.3268 12.2282C36.9266 11.9061 37.5667 11.6655 38.2301 11.5128V10.0245C38.2313 9.76839 38.3336 9.52308 38.5147 9.34196C38.6958 9.16084 38.9411 9.05857 39.1973 9.05741H41.2198C41.476 9.05857 41.7213 9.16084 41.9024 9.34196C42.0835 9.52308 42.1858 9.76839 42.187 10.0245V11.6541C42.8386 11.8515 43.4609 12.1351 44.0373 12.4975L45.0927 11.4421C45.2747 11.2614 45.5208 11.16 45.7772 11.16C46.0337 11.16 46.2797 11.2614 46.4617 11.4421ZM26.3376 5.14475C26.4989 5.68032 26.5327 6.24621 26.4362 6.79717C26.3398 7.34813 26.1158 7.8689 25.7822 8.31783C25.4485 8.76677 25.0145 9.13143 24.5147 9.38267C24.015 9.63391 23.4634 9.76476 22.9041 9.76476C22.3447 9.76476 21.7932 9.63391 21.2934 9.38267C20.7937 9.13143 20.3596 8.76677 20.026 8.31783C19.6924 7.8689 19.4684 7.34813 19.3719 6.79717C19.2755 6.24621 19.3093 5.68032 19.4706 5.14475H26.3376ZM39.9524 15.0412C40.7385 15.0412 41.5069 15.2743 42.1605 15.711C42.8141 16.1478 43.3235 16.7685 43.6244 17.4947C43.9252 18.221 44.0039 19.0201 43.8505 19.7911C43.6972 20.5621 43.3186 21.2702 42.7628 21.8261C42.207 22.3819 41.4988 22.7605 40.7278 22.9138C39.9568 23.0672 39.1577 22.9885 38.4314 22.6876C37.7052 22.3868 37.0845 21.8774 36.6477 21.2238C36.211 20.5702 35.9779 19.8018 35.9779 19.0157C35.9779 17.9616 36.3967 16.9507 37.142 16.2053C37.8874 15.46 38.8983 15.0412 39.9524 15.0412ZM50.2552 2.17272C50.4298 2.17272 50.6006 2.22452 50.7458 2.32157C50.8911 2.41862 51.0043 2.55656 51.0711 2.71794C51.138 2.87933 51.1555 3.05692 51.1214 3.22824C51.0873 3.39957 51.0032 3.55695 50.8797 3.68047C50.7562 3.80399 50.5988 3.88811 50.4275 3.92219C50.2561 3.95626 50.0786 3.93877 49.9172 3.87193C49.7558 3.80508 49.6178 3.69187 49.5208 3.54663C49.4237 3.40138 49.3719 3.23062 49.3719 3.05594C49.3719 2.82169 49.465 2.59704 49.6306 2.43141C49.7963 2.26577 50.0209 2.17272 50.2552 2.17272ZM44.3199 2.17272C44.4946 2.17272 44.6654 2.22452 44.8106 2.32157C44.9559 2.41862 45.0691 2.55656 45.1359 2.71794C45.2028 2.87933 45.2203 3.05692 45.1862 3.22824C45.1521 3.39957 45.068 3.55695 44.9445 3.68047C44.8209 3.80399 44.6636 3.88811 44.4922 3.92219C44.3209 3.95626 44.1433 3.93877 43.9819 3.87193C43.8205 3.80508 43.6826 3.69187 43.5856 3.54663C43.4885 3.40138 43.4367 3.23062 43.4367 3.05594C43.4367 2.82169 43.5298 2.59704 43.6954 2.43141C43.861 2.26577 44.0857 2.17272 44.3199 2.17272ZM47.2875 2.17272C47.4622 2.17272 47.633 2.22452 47.7782 2.32157C47.9235 2.41862 48.0367 2.55656 48.1035 2.71794C48.1704 2.87933 48.1879 3.05692 48.1538 3.22824C48.1197 3.39957 48.0356 3.55695 47.9121 3.68047C47.7886 3.80399 47.6312 3.88811 47.4599 3.92219C47.2885 3.95626 47.1109 3.93877 46.9496 3.87193C46.7882 3.80508 46.6502 3.69187 46.5532 3.54663C46.4561 3.40138 46.4043 3.23062 46.4043 3.05594C46.4043 2.82169 46.4974 2.59704 46.663 2.43141C46.8287 2.26577 47.0533 2.17272 47.2875 2.17272Z" fill="black"/>
</g>
<defs>
<clipPath id="clip0_128_22974">
<rect width="54.265" height="45" fill="white"/>
</clipPath>
</defs>
</svg>
