<svg width="45" height="45" viewBox="0 0 45 45" fill="none" xmlns="http://www.w3.org/2000/svg">
<path d="M22.5 45C34.9264 45 45 34.9264 45 22.5C45 10.0736 34.9264 0 22.5 0C10.0736 0 0 10.0736 0 22.5C0 34.9264 10.0736 45 22.5 45Z" fill="url(#paint0_linear_128_15176)"/>
<path d="M33.453 19.803H29.833C29.453 19.804 29.0889 19.9555 28.8202 20.2242C28.5515 20.4929 28.4001 20.857 28.399 21.237V22.137H25.031V15.073C25.023 14.952 24.9714 14.8381 24.8857 14.7523C24.7999 14.6666 24.686 14.615 24.565 14.607H19.799V13.747C19.798 13.367 19.6465 13.0029 19.3778 12.7342C19.1091 12.4655 18.745 12.314 18.365 12.313H14.745C14.3652 12.3143 14.0013 12.4658 13.7328 12.7345C13.4643 13.0032 13.3131 13.3672 13.312 13.747V17.367C13.3131 17.747 13.4645 18.1111 13.7332 18.3798C14.0019 18.6485 14.366 18.7999 14.746 18.801H18.366C18.746 18.7999 19.1101 18.6485 19.3788 18.3798C19.6475 18.1111 19.799 17.747 19.8 17.367V16.507H23.132V22.133H19.799V21.313C19.798 20.933 19.6465 20.5689 19.3778 20.3002C19.1091 20.0315 18.745 19.88 18.365 19.879H14.745C14.3652 19.8803 14.0013 20.0318 13.7328 20.3005C13.4643 20.5692 13.3131 20.9332 13.312 21.313V24.897C13.3131 25.277 13.4645 25.6411 13.7332 25.9098C14.0019 26.1785 14.366 26.3299 14.746 26.331H18.366C18.746 26.3299 19.1101 26.1785 19.3788 25.9098C19.6475 25.6411 19.799 25.277 19.8 24.897V24.037H23.132V29.664H19.799V28.84C19.798 28.46 19.6465 28.0959 19.3778 27.8272C19.1091 27.5585 18.745 27.407 18.365 27.406H14.745C14.3661 27.4073 14.0029 27.5581 13.7346 27.8257C13.4662 28.0933 13.3144 28.456 13.312 28.835V32.455C13.3131 32.835 13.4645 33.1991 13.7332 33.4678C14.0019 33.7365 14.366 33.8879 14.746 33.889H18.366C18.746 33.8879 19.1101 33.7365 19.3788 33.4678C19.6475 33.1991 19.799 32.835 19.8 32.455V31.595H24.567C24.688 31.587 24.8019 31.5353 24.8876 31.4496C24.9734 31.3639 25.025 31.25 25.033 31.129V24.069H28.402V24.857C28.4031 25.237 28.5545 25.6011 28.8232 25.8698C29.0919 26.1385 29.456 26.2899 29.836 26.291H33.456C33.836 26.2899 34.2001 26.1385 34.4688 25.8698C34.7375 25.6011 34.889 25.237 34.89 24.857V21.237C34.889 20.8565 34.7371 20.4919 34.4678 20.2231C34.1984 19.9543 33.8335 19.8033 33.453 19.803ZM18.365 17.366H14.745V13.746H18.365V17.366ZM18.365 24.892H14.745V21.313H18.365V24.892ZM18.365 32.454H14.745V28.834H18.365V32.454ZM33.453 24.856H29.833V21.236H33.453V24.856Z" fill="white"/>
<defs>
<linearGradient id="paint0_linear_128_15176" x1="22.5" y1="0" x2="7.02" y2="35.595" gradientUnits="userSpaceOnUse">
<stop stop-color="#3E3E3E"/>
<stop offset="1" stop-color="#1A1A1A"/>
</linearGradient>
</defs>
</svg>
