<svg width="54" height="45" viewBox="0 0 54 45" fill="none" xmlns="http://www.w3.org/2000/svg">
<path fill-rule="evenodd" clip-rule="evenodd" d="M13.0543 39.394V23.2356H20.3215C23.4028 23.7884 26.4841 25.4583 29.5654 27.3988H35.2099C37.7656 27.5528 39.103 30.1427 36.6213 31.8442C34.641 33.2953 32.0306 33.2135 29.3536 32.9732C27.5082 32.8822 27.4272 35.364 29.3536 35.3718C30.0219 35.4235 30.7492 35.2672 31.3846 35.2664C34.7259 35.2633 37.4781 34.6244 39.1617 31.9851L40.0089 30.0092L48.406 25.8461C52.6081 24.4623 55.5936 28.8582 52.4987 31.9142C46.4166 36.339 40.1787 39.9809 33.7994 42.9213C29.1659 45.7396 24.5328 45.6442 19.8992 42.9213L13.0543 39.394ZM44.6643 13.5007C44.5462 13.4193 44.4114 13.383 44.2753 13.4101C44.1401 13.4372 44.0223 13.5095 43.9409 13.6272L43.4801 14.2775C43.3178 14.2053 43.1458 14.151 42.9646 14.1059C42.7843 14.0609 42.6123 14.0245 42.432 13.9974L42.2867 13.148C42.26 13.0031 42.1874 12.8946 42.0789 12.8136C41.9616 12.7322 41.8351 12.7051 41.6907 12.7322L40.6238 12.9222C40.4885 12.9493 40.38 13.0128 40.2894 13.13C40.208 13.2478 40.1721 13.3742 40.1988 13.5186L40.3349 14.2959C40.1629 14.3685 40.0006 14.4495 39.847 14.5492C39.6929 14.6394 39.5402 14.7479 39.4041 14.8565L38.6811 14.3593C38.5639 14.2779 38.4374 14.242 38.3017 14.2692C38.1656 14.2963 38.0488 14.3685 37.9674 14.4862L37.353 15.3628C37.2716 15.4801 37.2357 15.6157 37.2624 15.7514C37.2899 15.8963 37.3626 16.0043 37.4794 16.0857L38.1297 16.5466C38.058 16.7094 38.0033 16.8809 37.9578 17.0616C37.9122 17.2424 37.8764 17.4139 37.8492 17.5947L37.0007 17.7395C36.8554 17.7667 36.7477 17.8389 36.6654 17.9474C36.584 18.0651 36.5578 18.1916 36.5841 18.336L36.774 19.4025C36.8016 19.5382 36.8646 19.6463 36.9827 19.7368C37.1 19.8182 37.2265 19.8541 37.3709 19.827L38.1477 19.6913C38.2203 19.8629 38.3017 20.0257 38.4006 20.1793C38.4912 20.3329 38.5997 20.4865 38.7083 20.6309L38.2107 21.3447C38.1293 21.462 38.0934 21.5889 38.121 21.7241C38.1477 21.8598 38.2203 21.977 38.3372 22.0584L39.2225 22.6821C39.3406 22.7635 39.4763 22.7901 39.6115 22.7635C39.7476 22.7363 39.8645 22.6733 39.9551 22.5556L40.4159 21.8961C40.5782 21.9683 40.7502 22.0226 40.9314 22.0676C41.1117 22.1127 41.2837 22.149 41.464 22.1762L41.6093 23.0252C41.636 23.17 41.7086 23.2781 41.8172 23.3595C41.9344 23.4413 42.0609 23.468 42.2053 23.4413L43.2723 23.2514C43.4075 23.2243 43.516 23.1613 43.6066 23.0435C43.688 22.9258 43.7239 22.7993 43.6972 22.6545L43.5611 21.8777C43.7331 21.8055 43.8954 21.7241 44.049 21.6248C44.2031 21.5342 44.3558 21.4256 44.5011 21.3175L45.2149 21.8147C45.3322 21.8961 45.4586 21.9324 45.603 21.9048C45.7483 21.8777 45.856 21.8055 45.9383 21.6882L46.5614 20.8025C46.6428 20.6852 46.67 20.5495 46.6428 20.4138C46.6161 20.2782 46.5531 20.1609 46.435 20.0703L45.775 19.6182C45.8477 19.4555 45.9015 19.2839 45.947 19.1032C45.9925 18.9224 46.0284 18.7509 46.0555 18.5701L46.905 18.4253C47.0494 18.3982 47.1579 18.3259 47.2393 18.2174C47.3207 18.0997 47.3479 17.9732 47.3207 17.8288L47.1308 16.7623C47.1032 16.6266 47.0402 16.5181 46.9229 16.428C46.8056 16.3466 46.6792 16.3102 46.5339 16.3374L45.7571 16.473C45.6853 16.3102 45.603 16.1475 45.5041 15.9851C45.4136 15.8223 45.305 15.6779 45.1974 15.5427L45.6941 14.8197C45.7755 14.702 45.8122 14.5755 45.7847 14.4403C45.7571 14.3051 45.6853 14.1873 45.5676 14.1059L44.6915 13.4915L44.6643 13.5007ZM41.5651 16.0127C41.8447 15.9672 42.1248 15.9672 42.4053 16.031C42.6762 16.0945 42.9208 16.2026 43.1462 16.3562C43.3633 16.5098 43.5523 16.7089 43.7059 16.9435C43.8596 17.1781 43.9589 17.4406 44.0044 17.7207C44.0499 18.0008 44.0499 18.2809 43.9865 18.5609C43.923 18.8318 43.8145 19.076 43.6609 19.3018C43.5077 19.5189 43.3086 19.7084 43.0736 19.862C42.8386 20.0156 42.5769 20.115 42.2968 20.1605C42.0163 20.2055 41.7371 20.2055 41.4566 20.1421C41.1857 20.0786 40.941 19.9705 40.7157 19.8169C40.4986 19.6633 40.3087 19.4642 40.1551 19.2296C40.0019 18.9946 39.9021 18.7325 39.8566 18.4524C39.812 18.1723 39.812 17.8923 39.8754 17.6122C39.9389 17.3413 40.0474 17.0971 40.2001 16.8713C40.3542 16.6542 40.5533 16.4647 40.7874 16.3111C41.022 16.1571 41.2846 16.0577 41.5651 16.0127ZM33.3596 3.34345C33.3141 3.29837 33.2782 3.27124 33.2332 3.25286C33.1973 3.23492 33.1518 3.22573 33.0971 3.22573C33.0432 3.22573 32.9977 3.23492 32.9618 3.25286C32.926 3.27124 32.8804 3.29837 32.8437 3.33426L32.8349 3.34345L31.8135 4.36442C31.6153 4.56311 31.2989 4.59024 31.0726 4.42788C30.9553 4.35567 30.8376 4.28303 30.7024 4.21082C30.558 4.13861 30.4219 4.06597 30.2954 4.00295C30.1593 3.93949 30.0149 3.87647 29.8705 3.82221C29.744 3.77713 29.5996 3.72287 29.4276 3.6686C29.1838 3.5872 29.0302 3.36139 29.0302 3.1172V1.55444C29.0302 1.50018 29.021 1.44591 29.0027 1.40959C28.9843 1.37326 28.9571 1.32819 28.9213 1.30106C28.8854 1.26473 28.8486 1.2376 28.8127 1.21966C28.7768 1.20128 28.7221 1.19209 28.6683 1.19209H26.6994C26.6452 1.19209 26.6001 1.20128 26.5638 1.21047C26.5275 1.22885 26.4824 1.25554 26.4373 1.30106C26.401 1.33738 26.3738 1.37326 26.3647 1.40959C26.3467 1.44591 26.3375 1.50018 26.3375 1.55444V2.99116C26.3375 3.28043 26.1297 3.515 25.8588 3.56926C25.7052 3.60558 25.5607 3.64147 25.4343 3.67779C25.2894 3.72331 25.1542 3.76838 25.0093 3.82221C24.8737 3.87647 24.7293 3.93074 24.5936 4.00295C24.4487 4.0664 24.3223 4.13861 24.1958 4.20207C23.9608 4.32854 23.6899 4.28346 23.5092 4.10229L22.3797 2.98197C22.3713 2.97278 22.3713 2.97278 22.3713 2.96403C22.335 2.9277 22.2987 2.90057 22.2628 2.88263C22.2265 2.86469 22.1906 2.86469 22.1363 2.86469C22.0821 2.86469 22.037 2.87388 22.0007 2.89182C21.9552 2.9102 21.9193 2.93689 21.8742 2.98241L20.5005 4.36486C20.455 4.40994 20.4279 4.44626 20.4099 4.49134C20.3915 4.52766 20.3828 4.57273 20.3828 4.627C20.3828 4.68126 20.392 4.72634 20.4099 4.76266C20.4279 4.79899 20.455 4.84406 20.4913 4.88038V4.88957L21.5123 5.91055C21.7114 6.10967 21.7385 6.42563 21.5757 6.65145C21.5035 6.76917 21.4313 6.88645 21.3591 7.02212C21.2865 7.16653 21.2143 7.3022 21.1512 7.42867C21.0878 7.56433 21.0243 7.70875 20.9705 7.8536C20.9254 7.98007 20.8712 8.12449 20.8169 8.29648C20.7355 8.54023 20.5097 8.69384 20.2655 8.69384H18.7023C18.648 8.69384 18.5938 8.70303 18.5579 8.72097C18.5216 8.73935 18.4857 8.76605 18.4494 8.79362C18.413 8.8295 18.3859 8.86583 18.3771 8.90171C18.3592 8.93803 18.35 8.9923 18.35 9.04656V11.0163C18.35 11.0706 18.3592 11.1157 18.3684 11.152C18.3863 11.1883 18.4135 11.2334 18.459 11.2784C18.4953 11.3148 18.5312 11.3419 18.5675 11.3507C18.6038 11.369 18.6581 11.3778 18.7124 11.3778H20.1491C20.4384 11.3778 20.6734 11.5857 20.7276 11.857C20.7635 12.0106 20.7998 12.155 20.8362 12.2727C20.8812 12.4171 20.9267 12.562 20.9806 12.7064C21.0348 12.8421 21.0891 12.9865 21.1613 13.1313C21.234 13.285 21.297 13.4206 21.3604 13.5471C21.4781 13.7821 21.4326 14.053 21.2519 14.225L20.1311 15.3365L20.122 15.3457C20.0856 15.382 20.0585 15.4179 20.0406 15.4543C20.0226 15.4906 20.0226 15.5269 20.0226 15.5807C20.0226 15.635 20.0318 15.6801 20.0497 15.7164C20.0677 15.7615 20.0948 15.807 20.1399 15.8429L21.5044 17.2258C21.5407 17.2621 21.5858 17.2892 21.6309 17.3072C21.6764 17.3255 21.7215 17.3343 21.7757 17.3343C21.83 17.3343 21.8843 17.3251 21.9293 17.3072C21.9652 17.2892 22.0107 17.2621 22.0471 17.2349L23.0593 16.2048C23.258 15.9969 23.5744 15.979 23.8002 16.1326C23.9179 16.2048 24.0347 16.2774 24.1704 16.3496C24.3153 16.4218 24.4505 16.494 24.577 16.5575C24.7126 16.621 24.857 16.684 25.0019 16.7382C25.1284 16.7833 25.2732 16.8376 25.4448 16.8918C25.689 16.9732 25.8426 17.1991 25.8426 17.4433V19.0064C25.8426 19.0607 25.8518 19.115 25.8697 19.1513C25.8876 19.1876 25.9148 19.2327 25.9419 19.2598C26.0141 19.332 26.0955 19.3592 26.204 19.3592H28.1742C28.2281 19.3592 28.2736 19.35 28.3095 19.3408C28.3453 19.3229 28.3909 19.2957 28.4359 19.2506C28.4718 19.2143 28.4994 19.178 28.5086 19.1421C28.5265 19.1058 28.5361 19.0515 28.5361 18.9973V17.5605C28.5361 17.2713 28.744 17.0363 29.0149 16.982C29.1681 16.9457 29.3134 16.9098 29.4398 16.8735C29.5843 16.828 29.7195 16.7829 29.8648 16.7286C30 16.6744 30.1444 16.6201 30.2888 16.5479C30.4429 16.4757 30.5785 16.4122 30.705 16.3492C30.94 16.2315 31.2109 16.277 31.3829 16.4577L32.494 17.5785L32.5032 17.5877C32.5391 17.624 32.575 17.6511 32.6109 17.6691C32.6476 17.6875 32.6931 17.6875 32.747 17.6875C32.8017 17.6875 32.8463 17.6783 32.8831 17.6603C32.9189 17.6419 32.9548 17.6148 32.9916 17.5789C33.0004 17.5697 33.0095 17.561 33.0183 17.561L34.392 16.2052C34.4288 16.1689 34.4554 16.1238 34.4734 16.0787C34.4922 16.0337 34.501 15.9882 34.501 15.9343C34.501 15.8801 34.4922 15.8258 34.4734 15.7807C34.4554 15.7444 34.4288 15.6993 34.4016 15.663L33.3715 14.6508C33.1627 14.4521 33.1448 14.1357 33.2988 13.9099C33.3715 13.7922 33.4432 13.6749 33.5159 13.5392C33.5876 13.3948 33.6603 13.2591 33.7237 13.1327C33.7872 12.997 33.8502 12.8526 33.904 12.7077C33.9496 12.5813 34.0043 12.4368 34.0581 12.2649C34.1395 12.0207 34.3649 11.8675 34.6095 11.8675H36.1727C36.2274 11.8675 36.2812 11.8583 36.3171 11.8399C36.353 11.822 36.3985 11.7948 36.4256 11.7677C36.4983 11.6955 36.525 11.6141 36.525 11.5056V9.53583C36.525 9.48156 36.5162 9.43649 36.507 9.40016C36.4891 9.36428 36.4615 9.31877 36.4164 9.27369C36.3806 9.23781 36.3447 9.21023 36.3088 9.20148C36.272 9.18354 36.2182 9.17435 36.1644 9.17435H34.7268C34.4379 9.17435 34.1942 8.95729 34.1491 8.6864C34.1132 8.55993 34.0765 8.42426 34.0406 8.28904C33.9951 8.15337 33.95 8.00852 33.8865 7.85535C33.8865 7.84616 33.8778 7.83697 33.8778 7.82778C33.8231 7.68336 33.7693 7.55689 33.7146 7.43042C33.6511 7.29475 33.5881 7.15909 33.5163 7.03262C33.3898 6.79761 33.4349 6.52673 33.6157 6.34599L34.7364 5.21648C34.7364 5.20729 34.7456 5.20729 34.7543 5.20729C34.7902 5.1714 34.8178 5.13508 34.8357 5.09876C34.8537 5.06243 34.8537 5.02655 34.8537 4.97228C34.8537 4.91758 34.8449 4.87251 34.827 4.83662C34.809 4.79111 34.7815 4.75522 34.7364 4.71015L33.3535 3.33645L33.3596 3.34345ZM33.6852 2.17806C33.8752 2.25945 34.0375 2.36798 34.1819 2.5124L35.5648 3.8861H35.5736C35.718 4.03095 35.8265 4.19331 35.9079 4.37405C35.9902 4.56398 36.0261 4.75347 36.0261 4.96134C36.0261 5.16965 35.9806 5.36833 35.9079 5.54907C35.8265 5.72981 35.718 5.89217 35.5653 6.02783L34.7517 6.85013C34.7609 6.87726 34.7793 6.90439 34.7876 6.93153C34.8602 7.08513 34.9237 7.24793 34.9867 7.4011C34.9867 7.41029 34.9959 7.41948 34.9959 7.42867C35.0594 7.58227 35.1132 7.75382 35.1679 7.93456L35.1858 7.99802H36.1797C36.3876 7.99802 36.5858 8.03434 36.767 8.11574C36.9473 8.18795 37.1096 8.30567 37.2549 8.45008L37.2637 8.45927C37.4081 8.60369 37.5166 8.76648 37.5893 8.94722C37.661 9.12796 37.7066 9.32664 37.7066 9.52576V11.4955C37.7066 11.9204 37.5621 12.2815 37.2637 12.5799C37.1193 12.7248 36.9473 12.8421 36.767 12.9143C36.5858 12.9865 36.3876 13.0228 36.1797 13.0228H35.0222C35.0134 13.0499 34.9955 13.0863 34.9863 13.1134C34.9228 13.2762 34.8502 13.4386 34.7784 13.6014C34.697 13.7729 34.6244 13.9357 34.5434 14.0801L34.5158 14.1344L35.2209 14.8302L35.2484 14.8573C35.3928 15.0022 35.4922 15.1737 35.5648 15.3545C35.6366 15.5352 35.6734 15.7251 35.6734 15.933C35.6734 16.1317 35.6366 16.3216 35.5648 16.5024C35.4922 16.6831 35.3928 16.8459 35.2484 16.9995L35.2305 17.0174L33.8476 18.3912C33.7032 18.5448 33.5399 18.6533 33.3596 18.7347C33.1793 18.8161 32.9802 18.852 32.7632 18.852C32.5553 18.852 32.357 18.8069 32.1667 18.7347C31.9767 18.6533 31.8144 18.536 31.6796 18.3912L30.8752 17.578C30.8477 17.596 30.8205 17.6052 30.7847 17.6144C30.6306 17.6778 30.4683 17.75 30.2967 17.813C30.1344 17.8765 29.9624 17.9308 29.7908 17.985C29.7632 17.9942 29.7453 18.0034 29.7182 18.0034V18.9881C29.7182 19.1959 29.6823 19.3946 29.6009 19.5754C29.5282 19.7561 29.411 19.9189 29.2665 20.0633L29.2574 20.0725C29.1129 20.2169 28.9506 20.3254 28.7694 20.3977C28.5891 20.4703 28.39 20.5154 28.1917 20.5154H26.2216C25.7966 20.5154 25.4356 20.371 25.1371 20.0725C24.9927 19.9276 24.875 19.7561 24.8028 19.5754C24.7306 19.3946 24.6942 19.1959 24.6942 18.9881V17.8288C24.6671 17.8196 24.6308 17.8017 24.6037 17.7925C24.4409 17.729 24.2785 17.6568 24.1157 17.5846C23.9437 17.5032 23.7814 17.431 23.6365 17.3496L23.5822 17.3225L22.8864 18.0275L22.8593 18.0546C22.7144 18.1995 22.5429 18.2988 22.3621 18.371C22.1814 18.4432 21.9919 18.4796 21.784 18.4796C21.5854 18.4796 21.3954 18.4432 21.2147 18.371C21.034 18.2984 20.8712 18.199 20.7176 18.0546L20.6992 18.0367L19.3167 16.6358C19.1723 16.491 19.0638 16.3286 18.9824 16.1479C18.901 15.958 18.8651 15.7685 18.8651 15.5606C18.8651 15.3527 18.9102 15.154 18.9824 14.9733C19.0638 14.7926 19.1815 14.6298 19.3259 14.4854L20.139 13.681C20.1211 13.6539 20.1119 13.6267 20.1031 13.5904C20.0397 13.4368 19.9675 13.274 19.904 13.1025C19.8406 12.9305 19.7775 12.7681 19.7325 12.5966L19.7141 12.5239H18.7294C18.5211 12.5239 18.3224 12.488 18.1417 12.4066C17.961 12.3344 17.7986 12.2167 17.6538 12.0723L17.6446 12.0631C17.5001 11.9187 17.3916 11.7559 17.3194 11.5752C17.2472 11.3944 17.2017 11.1957 17.2017 10.9971V9.02731C17.2017 8.81944 17.238 8.62951 17.3102 8.44002C17.3824 8.25928 17.5001 8.09692 17.6446 7.94288C17.7894 7.79846 17.961 7.68074 18.1417 7.60853C18.3224 7.53589 18.5211 7.5 18.7294 7.5H19.8861C19.8953 7.47287 19.9132 7.43654 19.9224 7.40985C19.9858 7.24705 20.0581 7.08426 20.1303 6.9219C20.2117 6.74991 20.2839 6.58755 20.3653 6.4427L20.3924 6.38844L19.6966 5.68386C19.5517 5.53944 19.4344 5.37665 19.3622 5.18672C19.2808 4.99679 19.2445 4.79811 19.2445 4.59943C19.2445 4.39112 19.2808 4.20163 19.3622 4.01214C19.4436 3.82221 19.5517 3.65941 19.6966 3.515L21.0703 2.13254V2.12379C21.2151 1.97937 21.3775 1.87084 21.5582 1.78944C21.7482 1.70805 21.9377 1.67172 22.1455 1.67172C22.3538 1.67172 22.5525 1.7168 22.7328 1.78944C22.9136 1.87084 23.0763 1.97937 23.212 2.13254L24.0339 2.94565C24.0614 2.93646 24.0886 2.91851 24.1065 2.90976C24.2601 2.83712 24.4229 2.7741 24.5945 2.70189C24.7573 2.63844 24.9288 2.58417 25.1004 2.53034C25.1275 2.52115 25.1454 2.51196 25.1726 2.51196V1.52731C25.1726 1.31944 25.2089 1.12076 25.2903 0.940016C25.3629 0.759278 25.4802 0.596919 25.6246 0.452066L25.6338 0.442876C25.7787 0.29846 25.941 0.189929 26.1218 0.117721C26.3025 0.0455129 26.5008 0 26.6994 0H28.6692C28.8771 0 29.0665 0.0363228 29.2565 0.108531C29.4464 0.180739 29.6096 0.29846 29.7541 0.442876C29.8985 0.587291 30.0158 0.759278 30.0884 0.940016C30.1602 1.12076 30.1969 1.31944 30.1969 1.52731V2.68395C30.2236 2.69314 30.2604 2.71108 30.2866 2.72027C30.4499 2.78373 30.6122 2.85593 30.7746 2.92814C30.9466 3.00954 31.1089 3.08175 31.2542 3.16315L31.3081 3.19028L32.0131 2.49446C32.1575 2.3496 32.3198 2.23232 32.5098 2.16011C32.6997 2.07871 32.8988 2.04239 33.0971 2.04239C33.3058 2.04239 33.4953 2.07871 33.6852 2.16011V2.17806ZM27.4403 5.83747C27.7388 5.83747 28.0368 5.86504 28.3256 5.92805C28.6062 5.98232 28.8862 6.07247 29.1659 6.19019C29.4285 6.30791 29.6814 6.44314 29.9164 6.59675C30.1514 6.75035 30.3685 6.93109 30.5667 7.12977C30.7658 7.32889 30.9461 7.54551 31.1002 7.78971C31.2625 8.02471 31.3986 8.27722 31.5072 8.53936C31.5159 8.55774 31.5159 8.57568 31.5251 8.58443C31.6336 8.84657 31.715 9.1179 31.7689 9.3796C31.8236 9.66887 31.8595 9.96689 31.8595 10.2649C31.8595 10.5629 31.8319 10.8614 31.7689 11.1507C31.715 11.4307 31.6245 11.7108 31.5072 11.9909C31.389 12.253 31.2542 12.506 31.1002 12.741C30.9378 12.976 30.7658 13.1926 30.5667 13.4005C30.3685 13.5996 30.1514 13.7803 29.9068 13.9339C29.6727 14.0967 29.4188 14.232 29.1571 14.3405C29.1392 14.3497 29.1213 14.3497 29.1116 14.3584C28.849 14.467 28.5782 14.5484 28.3169 14.6026C28.0272 14.6569 27.7287 14.6932 27.4316 14.6932C27.1331 14.6932 26.8351 14.6661 26.5458 14.6026C26.2658 14.5484 25.9852 14.4578 25.7052 14.3405C25.443 14.2228 25.1901 14.0871 24.9551 13.9339C24.7201 13.7803 24.5034 13.5996 24.3048 13.4005C24.1061 13.2018 23.9253 12.9847 23.7713 12.741C23.6089 12.506 23.4733 12.253 23.3647 11.9909C23.3556 11.973 23.3556 11.9546 23.3464 11.9458C23.2378 11.6837 23.1564 11.4128 23.1026 11.1507C23.0483 10.8614 23.012 10.5634 23.012 10.2649C23.012 9.96645 23.0392 9.66843 23.1026 9.3796C23.1569 9.09952 23.247 8.81944 23.3647 8.53936C23.482 8.27722 23.6177 8.02427 23.7713 7.78971C23.9253 7.5547 24.1061 7.33764 24.3048 7.12977C24.5034 6.93109 24.7205 6.75035 24.9551 6.59675C25.1901 6.43395 25.443 6.29829 25.7052 6.19019C25.7235 6.181 25.7415 6.181 25.7507 6.17181C26.0128 6.06328 26.2837 5.98232 26.5458 5.92805C26.8351 5.87379 27.1331 5.83747 27.4316 5.83747H27.4403ZM28.1003 7.06632C27.8924 7.02124 27.6661 7.00286 27.4403 7.00286C27.2145 7.00286 26.9979 7.02124 26.7808 7.06632C26.573 7.11139 26.3835 7.16566 26.2027 7.2383C26.1935 7.24749 26.1844 7.24749 26.1664 7.25624C25.9585 7.34683 25.7686 7.44617 25.5971 7.56346C25.4255 7.68074 25.2627 7.80765 25.1183 7.95207C24.9734 8.09692 24.8382 8.25928 24.7297 8.43126C24.612 8.60281 24.5126 8.79274 24.4225 9.00061C24.3406 9.19054 24.2776 9.39798 24.2326 9.61504C24.1875 9.82291 24.1691 10.0487 24.1691 10.2745C24.1691 10.5004 24.1875 10.717 24.2326 10.934C24.2781 11.1419 24.3323 11.3314 24.4041 11.5121C24.4133 11.5213 24.4133 11.5301 24.4225 11.5485C24.5126 11.7563 24.6124 11.9458 24.7297 12.1178C24.847 12.2898 24.9734 12.4522 25.1183 12.5966C25.2627 12.7414 25.4255 12.8766 25.5971 12.9852C25.7686 13.1029 25.9585 13.2022 26.1664 13.2924C26.3563 13.3738 26.5642 13.4368 26.7808 13.4823C26.9891 13.5278 27.215 13.5458 27.4403 13.5458C27.6657 13.5458 27.8832 13.5278 28.1003 13.4823C28.3081 13.4368 28.4976 13.383 28.6788 13.3108C28.6876 13.3016 28.6968 13.3016 28.7147 13.2924C28.9226 13.2018 29.1121 13.1025 29.284 12.9852C29.456 12.8679 29.6184 12.7414 29.7628 12.5966C29.9072 12.4517 30.0433 12.2894 30.1519 12.1178C30.2691 11.9458 30.3689 11.7563 30.4586 11.5485C30.54 11.3585 30.603 11.1507 30.6486 10.934C30.6941 10.7262 30.712 10.5004 30.712 10.2745C30.712 10.0487 30.6941 9.83166 30.6486 9.61504C30.603 9.40717 30.5492 9.21724 30.4766 9.0365C30.4678 9.02731 30.4678 9.01856 30.4586 9.00018C30.3689 8.7923 30.2687 8.60238 30.1519 8.43083C30.0337 8.25884 29.9072 8.09648 29.7628 7.95163C29.6184 7.80721 29.456 7.67155 29.284 7.56302C29.1121 7.4453 28.9226 7.34596 28.7147 7.25581C28.5252 7.17528 28.3173 7.11139 28.1003 7.06632ZM0 21.683H10.8666V41.0168H0V21.683Z" fill="black"/>
</svg>
