<svg width="64" height="64" viewBox="0 0 64 64" fill="none" xmlns="http://www.w3.org/2000/svg">
<g clip-path="url(#clip0_3_195)">
<mask id="mask0_3_195" style="mask-type:luminance" maskUnits="userSpaceOnUse" x="0" y="0" width="64" height="64">
<path d="M64 0H0V64H64V0Z" fill="white"/>
</mask>
<g mask="url(#mask0_3_195)">
<path d="M32 64C49.6731 64 64 49.6731 64 32C64 14.3269 49.6731 0 32 0C14.3269 0 0 14.3269 0 32C0 49.6731 14.3269 64 32 64Z" fill="#F48120"/>
<g clip-path="url(#clip1_3_195)">
<path d="M31.625 42.75H30.375V44H31.625V42.75Z" fill="white"/>
<path d="M29.125 42.75H27.875V44H29.125V42.75Z" fill="white"/>
<path d="M34.125 42.75H32.875V44H34.125V42.75Z" fill="white"/>
<path d="M16 16.5H14.75V17.75H16V16.5Z" fill="white"/>
<path d="M18.5 16.5H17.25V17.75H18.5V16.5Z" fill="white"/>
<path d="M21 16.5H19.75V17.75H21V16.5Z" fill="white"/>
<path d="M17.875 34H22.875C23.22 34 23.5 34.28 23.5 34.625C23.5 34.97 23.22 35.25 22.875 35.25H21C19.9662 35.25 19.125 36.0912 19.125 37.125C19.125 38.1588 19.9662 39 21 39H30.375C30.5413 39 30.7006 38.9338 30.8181 38.8156C30.9787 38.6544 34.75 34.8263 34.75 31.5C34.75 28.3687 33.1144 26.5 30.375 26.5C27.6356 26.5 26 28.3687 26 31.5C26 33.8063 27.8112 36.3506 28.9762 37.75H21C20.655 37.75 20.375 37.47 20.375 37.125C20.375 36.78 20.655 36.5 21 36.5H22.875C23.9088 36.5 24.75 35.6588 24.75 34.625C24.75 33.5912 23.9088 32.75 22.875 32.75H19.2737C20.4387 31.3506 22.25 28.8063 22.25 26.5C22.25 23.3687 20.6144 21.5 17.875 21.5C15.1356 21.5 13.5 23.3687 13.5 26.5C13.5 29.8263 17.2713 33.6544 17.4319 33.8156C17.5494 33.9337 17.7087 34 17.875 34ZM30.375 27.75C32.3906 27.75 33.5 29.0819 33.5 31.5C33.5 33.7019 31.3306 36.3819 30.375 37.4556C29.4194 36.3812 27.25 33.7019 27.25 31.5C27.25 29.0819 28.3594 27.75 30.375 27.75ZM17.875 22.75C19.8906 22.75 21 24.0819 21 26.5C21 28.7019 18.8306 31.3819 17.875 32.4556C16.9194 31.3819 14.75 28.7019 14.75 26.5C14.75 24.0819 15.8594 22.75 17.875 22.75Z" fill="white"/>
<path d="M19.75 25.875C19.75 24.8412 18.9088 24 17.875 24C16.8412 24 16 24.8412 16 25.875C16 26.9088 16.8412 27.75 17.875 27.75C18.9088 27.75 19.75 26.9088 19.75 25.875ZM17.25 25.875C17.25 25.53 17.53 25.25 17.875 25.25C18.22 25.25 18.5 25.53 18.5 25.875C18.5 26.22 18.22 26.5 17.875 26.5C17.53 26.5 17.25 26.22 17.25 25.875Z" fill="white"/>
<path d="M32.25 30.875C32.25 29.8412 31.4088 29 30.375 29C29.3412 29 28.5 29.8412 28.5 30.875C28.5 31.9088 29.3412 32.75 30.375 32.75C31.4088 32.75 32.25 31.9088 32.25 30.875ZM29.75 30.875C29.75 30.53 30.03 30.25 30.375 30.25C30.72 30.25 31 30.53 31 30.875C31 31.22 30.72 31.5 30.375 31.5C30.03 31.5 29.75 31.22 29.75 30.875Z" fill="white"/>
<path d="M47.875 14H14.125C12.4019 14 11 15.48 11 17.2031V43.375C11 45.0981 12.4019 46.5 14.125 46.5H25.0981L23.6919 50.25H19.75C19.4044 50.25 19.125 50.5294 19.125 50.875C19.125 52.5981 20.5269 54 22.25 54H39.75C41.4731 54 42.875 52.5981 42.875 50.875C42.875 50.5294 42.5956 50.25 42.25 50.25H38.3081L36.9019 46.5H47.875C49.5981 46.5 51 45.0981 51 43.375V17.2031C51 15.48 49.5981 14 47.875 14ZM14.125 15.25H47.875C48.9088 15.25 49.75 16.1694 49.75 17.2031V19H13.5V20.25H49.75V40.25H12.25V17.2031C12.25 16.1694 13.0912 15.25 14.125 15.25ZM39.75 52.75H22.25C21.435 52.75 20.74 52.2275 20.4819 51.5H24.125H37.875H41.5181C41.26 52.2275 40.565 52.75 39.75 52.75ZM36.9731 50.25H25.0269L26.4331 46.5H35.5662L36.9731 50.25ZM47.875 45.25H36H26H14.125C13.0912 45.25 12.25 44.4088 12.25 43.375V41.5H49.75V43.375C49.75 44.4088 48.9088 45.25 47.875 45.25Z" fill="white"/>
<path d="M36.625 29H41C41.3456 29 41.625 28.7206 41.625 28.375V25.875C41.625 25.5294 41.3456 25.25 41 25.25H36.625C36.2794 25.25 36 25.5294 36 25.875V28.375C36 28.7206 36.2794 29 36.625 29ZM37.25 26.5H40.375V27.75H37.25V26.5Z" fill="white"/>
<path d="M43.5 29H47.875C48.2206 29 48.5 28.7206 48.5 28.375V25.875C48.5 25.5294 48.2206 25.25 47.875 25.25H43.5C43.1544 25.25 42.875 25.5294 42.875 25.875V28.375C42.875 28.7206 43.1544 29 43.5 29ZM44.125 26.5H47.25V27.75H44.125V26.5Z" fill="white"/>
<path d="M48.5 30.25H36V31.5H48.5V30.25Z" fill="white"/>
<path d="M48.5 32.75H36V34H48.5V32.75Z" fill="white"/>
<path d="M48.5 35.25H36V36.5H48.5V35.25Z" fill="white"/>
<path d="M37.875 22.125H36V23.375H37.875V22.125Z" fill="white"/>
<path d="M41.625 22.125H39.125V23.375H41.625V22.125Z" fill="white"/>
<path d="M48.5 22.125H42.875V23.375H48.5V22.125Z" fill="white"/>
</g>
</g>
</g>
<defs>
<clipPath id="clip0_3_195">
<rect width="64" height="64" fill="white"/>
</clipPath>
<clipPath id="clip1_3_195">
<rect width="40" height="40" fill="white" transform="translate(11 14)"/>
</clipPath>
</defs>
</svg>
