<svg xmlns="http://www.w3.org/2000/svg" width="60" height="60" viewBox="0 0 60 60">
  <g id="Group_523" data-name="Group 523" transform="translate(-652 -4270)">
    <circle id="Ellipse_14" data-name="Ellipse 14" cx="30" cy="30" r="30" transform="translate(652 4270)" fill="#fff2e8"/>
    <g id="time-svgrepo-com" transform="translate(666.439 4284.439)">
      <path id="Path_9162" data-name="Path 9162" d="M30.122,15.561A14.561,14.561,0,1,1,15.561,1,14.561,14.561,0,0,1,30.122,15.561Zm-26.465,0a11.9,11.9,0,1,0,11.9-11.9A11.9,11.9,0,0,0,3.656,15.561Z" fill="#f48120"/>
      <path id="Path_9163" data-name="Path 9163" d="M12.324,5A1.324,1.324,0,0,0,11,6.324v8.56a1.268,1.268,0,0,0,.168.6,1.318,1.318,0,0,0,.517.544L17.8,19.563a1.324,1.324,0,0,0,1.324-2.293l-5.476-3.162V6.324A1.324,1.324,0,0,0,12.324,5Z" transform="translate(3.237 1.295)" fill="#f48120"/>
    </g>
  </g>
</svg>
