<?xml version="1.0" encoding="UTF-8"?><svg id="Layer_1" xmlns="http://www.w3.org/2000/svg" viewBox="0 0 60 60"><defs><style>.cls-1{fill:#010101;}.cls-1,.cls-2,.cls-3{stroke-width:0px;}.cls-2{fill:#fff2e9;}.cls-3{fill:#f48220;}</style></defs><circle class="cls-2" cx="30" cy="30" r="30"/><path class="cls-1" d="M30.36,44.97H12.31c-1.92,0-3.47-1.56-3.47-3.47v-25c0-1.92,1.56-3.47,3.47-3.47h21.24c.38,0,.69.31.69.69s-.31.69-.69.69H12.31c-1.15,0-2.08.94-2.08,2.08v25c0,1.15.94,2.08,2.08,2.08h18.05c.38,0,.69.31.69.69s-.31.69-.69.69ZM49.81,32.71c-.38,0-.69-.31-.69-.69v-8.72c0-.38.31-.69.69-.69s.69.31.69.69v8.72c0,.38-.31.69-.69.69Z"/><path class="cls-1" d="M30.36,44.97H12.31c-1.92,0-3.47-1.56-3.47-3.47v-2.78c0-.38.31-.69.69-.69h20.83c.38,0,.69.31.69.69s-.31.69-.69.69H10.23v2.08c0,1.15.94,2.08,2.08,2.08h18.05c.38,0,.69.31.69.69s-.31.69-.69.69Z"/><path class="cls-3" d="M30.61,50.52h-7.88c-.24,0-.47-.12-.59-.33s-.14-.46-.03-.67l1.39-2.78c.17-.34.59-.48.93-.31.34.17.48.59.31.93l-.89,1.77h6.76c.38,0,.69.31.69.69s-.31.69-.69.69Z"/><path class="cls-1" d="M48.42,50.52h-13.89c-1.15,0-2.08-.94-2.08-2.08v-12.5c0-1.15.94-2.08,2.08-2.08h13.89c1.15,0,2.08.94,2.08,2.08v12.5c0,1.15-.94,2.08-2.08,2.08ZM34.53,35.24c-.38,0-.69.31-.69.69v12.5c0,.38.31.69.69.69h13.89c.38,0,.69-.31.69-.69v-12.5c0-.38-.31-.69-.69-.69h-13.89Z"/><path class="cls-3" d="M17.17,35.24h-3.47c-.38,0-.69-.31-.69-.69v-5.56c0-.38.31-.69.69-.69h3.47c.38,0,.69.31.69.69v5.56c0,.38-.31.69-.69.69ZM14.39,33.86h2.08v-4.17h-2.08v4.17ZM23.42,35.24h-3.47c-.38,0-.69-.31-.69-.69v-9.72c0-.38.31-.69.69-.69h3.47c.38,0,.69.31.69.69v9.72c0,.38-.31.69-.69.69ZM20.64,33.86h2.08v-8.33h-2.08v8.33ZM29.67,35.24h-3.47c-.38,0-.69-.31-.69-.69v-7.64c0-.38.31-.69.69-.69h3.47c.38,0,.69.31.69.69v7.64c0,.38-.31.69-.69.69ZM26.89,33.86h2.08v-6.25h-2.08v6.25Z"/><path class="cls-1" d="M22.03,17.88h-8.33c-.38,0-.69-.31-.69-.69s.31-.69.69-.69h8.33c.38,0,.69.31.69.69s-.31.69-.69.69ZM22.03,20.66h-8.33c-.38,0-.69-.31-.69-.69s.31-.69.69-.69h8.33c.38,0,.69.31.69.69s-.31.69-.69.69ZM17.17,23.44h-3.47c-.38,0-.69-.31-.69-.69s.31-.69.69-.69h3.47c.38,0,.69.31.69.69s-.31.69-.69.69Z"/><path class="cls-3" d="M42.86,24.13c-4.22,0-7.64-3.42-7.64-7.64s3.42-7.64,7.64-7.64,7.64,3.42,7.64,7.64-3.42,7.64-7.64,7.64ZM42.86,10.25c-3.44,0-6.25,2.81-6.25,6.25s2.81,6.25,6.25,6.25,6.25-2.81,6.25-6.25-2.81-6.25-6.25-6.25Z"/><path class="cls-1" d="M49.81,39.41h-16.67c-.38,0-.69-.31-.69-.69s.31-.69.69-.69h16.67c.38,0,.69.31.69.69s-.31.69-.69.69ZM37.31,35.24c-.38,0-.69-.31-.69-.69v-2.08c0-.38.31-.69.69-.69s.69.31.69.69v2.08c0,.38-.31.69-.69.69ZM45.64,35.24c-.38,0-.69-.31-.69-.69v-2.08c0-.38.31-.69.69-.69s.69.31.69.69v2.08c0,.38-.31.69-.69.69ZM44.95,18.58c-.13,0-.26-.03-.38-.12l-2.08-1.39c-.19-.13-.31-.35-.31-.58v-3.47c0-.38.31-.69.69-.69s.69.31.69.69v3.1l1.77,1.18c.32.22.4.65.19.97-.13.2-.35.31-.58.31Z"/><path class="cls-3" d="M38.7,44.97h-2.78c-.38,0-.69-.31-.69-.69v-2.78c0-.38.31-.69.69-.69h2.78c.38,0,.69.31.69.69v2.78c0,.38-.31.69-.69.69ZM36.61,43.58h1.39v-1.39h-1.39v1.39Z"/></svg>