<svg width="64" height="64" viewBox="0 0 64 64" fill="none" xmlns="http://www.w3.org/2000/svg">
<path d="M32 64C49.6731 64 64 49.6731 64 32C64 14.3269 49.6731 0 32 0C14.3269 0 0 14.3269 0 32C0 49.6731 14.3269 64 32 64Z" fill="#F48120"/>
<path d="M15.8438 29.9375H17.2188C17.6746 29.9375 18.1118 29.7564 18.4341 29.4341C18.7564 29.1118 18.9375 28.6746 18.9375 28.2188V26.8438C18.9375 26.3879 18.7564 25.9507 18.4341 25.6284C18.1118 25.3061 17.6746 25.125 17.2188 25.125H15.8438C15.3879 25.125 14.9507 25.3061 14.6284 25.6284C14.3061 25.9507 14.125 26.3879 14.125 26.8438V28.2188C14.125 28.6746 14.3061 29.1118 14.6284 29.4341C14.9507 29.7564 15.3879 29.9375 15.8438 29.9375ZM15.5 26.8438C15.5 26.7526 15.5362 26.6651 15.6007 26.6007C15.6651 26.5362 15.7526 26.5 15.8438 26.5H17.2188C17.3099 26.5 17.3974 26.5362 17.4618 26.6007C17.5263 26.6651 17.5625 26.7526 17.5625 26.8438V28.2188C17.5625 28.3099 17.5263 28.3974 17.4618 28.4618C17.3974 28.5263 17.3099 28.5625 17.2188 28.5625H15.8438C15.7526 28.5625 15.6651 28.5263 15.6007 28.4618C15.5362 28.3974 15.5 28.3099 15.5 28.2188V26.8438Z" fill="white"/>
<path d="M33.375 21.6875C31.0634 21.6875 28.8038 22.373 26.8818 23.6572C24.9598 24.9414 23.4618 26.7668 22.5772 28.9024C21.6926 31.038 21.4611 33.388 21.9121 35.6551C22.363 37.9223 23.4762 40.0048 25.1107 41.6393C26.7452 43.2738 28.8277 44.387 31.0949 44.8379C33.362 45.2889 35.712 45.0574 37.8476 44.1728C39.9832 43.2882 41.8086 41.7902 43.0928 39.8682C44.377 37.9462 45.0625 35.6866 45.0625 33.375C45.059 30.2763 43.8266 27.3056 41.6355 25.1145C39.4444 22.9234 36.4737 21.691 33.375 21.6875ZM30.625 43.3039C29.0936 42.8781 27.6816 42.1032 26.5 41.0399V32H30.625V43.3039ZM38.875 42.0836C37.6248 42.8766 36.2174 43.3889 34.75 43.5851V29.25H38.875V42.0836ZM40.25 41.0399V28.5625C40.25 28.3802 40.1776 28.2053 40.0486 28.0764C39.9197 27.9474 39.7448 27.875 39.5625 27.875H34.0625C33.8802 27.875 33.7053 27.9474 33.5764 28.0764C33.4474 28.2053 33.375 28.3802 33.375 28.5625V43.6875C32.9149 43.6841 32.4555 43.6499 32 43.5851V31.3125C32 31.1302 31.9276 30.9553 31.7986 30.8264C31.6697 30.6974 31.4948 30.625 31.3125 30.625H25.8125C25.6302 30.625 25.4553 30.6974 25.3264 30.8264C25.1974 30.9553 25.125 31.1302 25.125 31.3125V39.5364C23.9245 37.9346 23.2161 36.018 23.0863 34.0205C22.9564 32.023 23.4108 30.0308 24.3938 28.2871C25.3769 26.5434 26.8462 25.1235 28.6225 24.2006C30.3988 23.2777 32.4053 22.8917 34.3972 23.0897C36.3891 23.2877 38.2803 24.0612 39.8402 25.3157C41.4 26.5703 42.561 28.2517 43.1815 30.1548C43.8021 32.0579 43.8553 34.1005 43.3348 36.0334C42.8142 37.9663 41.7424 39.7058 40.25 41.0399Z" fill="white"/>
<path d="M52.625 20.3125H48.5V21.6875H52.625V20.3125Z" fill="white"/>
<path d="M52.625 23.0625H48.5V24.4375H52.625V23.0625Z" fill="white"/>
<path d="M47.9039 26.1562L46.795 28.0812C45.7316 25.3881 43.8837 23.0765 41.4908 21.4461C39.0979 19.8157 36.2705 18.9418 33.375 18.9375C32.9109 18.9375 32.4531 18.9643 32 19.0063V13.4375C32 12.8905 31.7827 12.3659 31.3959 11.9791C31.0091 11.5923 30.4845 11.375 29.9375 11.375H13.4375C12.8905 11.375 12.3659 11.5923 11.9791 11.9791C11.5923 12.3659 11.375 12.8905 11.375 13.4375V36.8125C11.375 37.3595 11.5923 37.8841 11.9791 38.2709C12.3659 38.6577 12.8905 38.875 13.4375 38.875H16.875V49.1875C16.875 49.3698 16.9474 49.5447 17.0764 49.6736C17.2053 49.8026 17.3802 49.875 17.5625 49.875H23.0625C23.2448 49.875 23.4197 49.8026 23.5486 49.6736C23.6776 49.5447 23.75 49.3698 23.75 49.1875V44.1055C24.1857 44.4997 24.6448 44.867 25.125 45.2055V49.1875C25.125 49.3698 25.1974 49.5447 25.3264 49.6736C25.4553 49.8026 25.6302 49.875 25.8125 49.875H31.3125C31.4948 49.875 31.6697 49.8026 31.7986 49.6736C31.9276 49.5447 32 49.3698 32 49.1875V47.7438C32.4531 47.7864 32.9109 47.8125 33.375 47.8125V49.1875C33.375 49.3698 33.4474 49.5447 33.5764 49.6736C33.7053 49.8026 33.8802 49.875 34.0625 49.875H39.5625C39.7448 49.875 39.9197 49.8026 40.0486 49.6736C40.1776 49.5447 40.25 49.3698 40.25 49.1875V46.0676L40.2631 46.0601C40.3387 46.1508 40.4116 46.2416 40.4996 46.3351L45.3588 51.195C45.7398 51.5866 46.1949 51.8987 46.6975 52.113C47.2001 52.3273 47.7403 52.4397 48.2867 52.4435C48.8331 52.4473 49.3748 52.3425 49.8804 52.1352C50.386 51.9279 50.8453 51.6222 51.2317 51.2359C51.6182 50.8496 51.924 50.3904 52.1315 49.8849C52.339 49.3794 52.444 48.8377 52.4404 48.2913C52.4367 47.7449 52.3246 47.2047 52.1105 46.702C51.8963 46.1992 51.5844 45.7441 51.1929 45.3629L46.3241 40.4947C46.2374 40.4102 46.1488 40.3394 46.0601 40.2658C47.8002 37.089 48.2655 33.3688 47.3615 29.8612L48.8974 27.1875H52.625V25.8125H48.5C48.3792 25.8124 48.2605 25.8441 48.1559 25.9044C48.0512 25.9648 47.9643 26.0516 47.9039 26.1562ZM13.4375 37.5C13.2552 37.5 13.0803 37.4276 12.9514 37.2986C12.8224 37.1697 12.75 36.9948 12.75 36.8125V13.4375C12.75 13.2552 12.8224 13.0803 12.9514 12.9514C13.0803 12.8224 13.2552 12.75 13.4375 12.75H29.9375C30.1198 12.75 30.2947 12.8224 30.4236 12.9514C30.5526 13.0803 30.625 13.2552 30.625 13.4375V19.2077C30.1584 19.2994 29.7001 19.4119 29.25 19.5452V17.5625C29.2489 16.6512 28.8864 15.7774 28.242 15.133C27.5976 14.4886 26.7238 14.1261 25.8125 14.125H17.5625C16.6512 14.1261 15.7774 14.4886 15.133 15.133C14.4886 15.7774 14.1261 16.6512 14.125 17.5625V20.3125C14.1261 21.2238 14.4886 22.0976 15.133 22.742C15.7774 23.3864 16.6512 23.7489 17.5625 23.75H22.6445C20.2598 26.3887 18.9389 29.8184 18.9375 33.375V33.0312C18.9375 32.5754 18.7564 32.1382 18.4341 31.8159C18.1118 31.4936 17.6746 31.3125 17.2188 31.3125H15.8438C15.3879 31.3125 14.9507 31.4936 14.6284 31.8159C14.3061 32.1382 14.125 32.5754 14.125 33.0312V34.4062C14.125 34.8621 14.3061 35.2993 14.6284 35.6216C14.9507 35.9439 15.3879 36.125 15.8438 36.125H16.875V37.5H13.4375ZM25.125 16.1875H23.75C23.3853 16.1875 23.0356 16.3324 22.7777 16.5902C22.5199 16.8481 22.375 17.1978 22.375 17.5625V20.3125C22.375 20.6772 22.5199 21.0269 22.7777 21.2848C23.0356 21.5426 23.3853 21.6875 23.75 21.6875H24.9332C24.63 21.9075 24.3316 22.133 24.0463 22.375H17.5625C17.0155 22.375 16.4909 22.1577 16.1041 21.7709C15.7173 21.3841 15.5 20.8595 15.5 20.3125V17.5625C15.5 17.0155 15.7173 16.4909 16.1041 16.1041C16.4909 15.7173 17.0155 15.5 17.5625 15.5H25.8125C26.3595 15.5 26.8841 15.7173 27.2709 16.1041C27.6577 16.4909 27.875 17.0155 27.875 17.5625V20.032C27.3812 20.236 26.8992 20.4673 26.4312 20.725C26.4753 20.5919 26.4985 20.4527 26.5 20.3125V17.5625C26.5 17.1978 26.3551 16.8481 26.0973 16.5902C25.8394 16.3324 25.4897 16.1875 25.125 16.1875ZM25.125 20.3125H23.75V17.5625H25.125V20.3125ZM17.5625 33.375C17.3802 33.375 17.2053 33.4474 17.0764 33.5764C16.9474 33.7053 16.875 33.8802 16.875 34.0625V34.75H15.8438C15.7526 34.75 15.6651 34.7138 15.6007 34.6493C15.5362 34.5849 15.5 34.4974 15.5 34.4062V33.0312C15.5 32.9401 15.5362 32.8526 15.6007 32.7882C15.6651 32.7237 15.7526 32.6875 15.8438 32.6875H17.2188C17.3099 32.6875 17.3974 32.7237 17.4618 32.7882C17.5263 32.8526 17.5625 32.9401 17.5625 33.0312V33.375ZM18.25 48.5V34.75H19.0063C19.2866 37.6841 20.4627 40.4609 22.375 42.7037V48.5H18.25ZM30.625 48.5H26.5V46.0676C27.7914 46.7676 29.1826 47.2649 30.625 47.5423V48.5ZM38.875 48.5H34.75V47.7438C36.1684 47.6093 37.5587 47.2638 38.875 46.7187V48.5ZM45.3602 41.4717L50.2222 46.3337C50.4786 46.5883 50.6821 46.8912 50.8209 47.2248C50.9598 47.5584 51.0313 47.9162 51.0313 48.2776C51.0313 48.639 50.9598 48.9968 50.8209 49.3304C50.6821 49.664 50.4786 49.9669 50.2222 50.2215C49.6998 50.7237 49.0033 51.0042 48.2786 51.0042C47.554 51.0042 46.8575 50.7237 46.3351 50.2215L41.482 45.3684C41.4717 45.3574 41.4641 45.3471 41.4545 45.3368C42.9841 44.3 44.3023 42.9815 45.3389 41.4518L45.3602 41.4717ZM33.375 46.4375C30.7915 46.4375 28.266 45.6714 26.1179 44.2361C23.9697 42.8007 22.2955 40.7607 21.3068 38.3738C20.3182 35.9869 20.0595 33.3605 20.5635 30.8266C21.0675 28.2928 22.3116 25.9652 24.1384 24.1384C25.9652 22.3116 28.2928 21.0675 30.8266 20.5635C33.3605 20.0595 35.9869 20.3182 38.3738 21.3068C40.7607 22.2955 42.8007 23.9697 44.2361 26.1179C45.6714 28.266 46.4375 30.7915 46.4375 33.375C46.4337 36.8382 45.0562 40.1585 42.6074 42.6074C40.1585 45.0562 36.8382 46.4337 33.375 46.4375Z" fill="white"/>
</svg>
