<svg xmlns="http://www.w3.org/2000/svg" width="60" height="60" viewBox="0 0 60 60">
  <g id="recycling-planning" transform="translate(-138 -5240)">
    <circle id="Ellipse_14" data-name="Ellipse 14" cx="30" cy="30" r="30" transform="translate(138 5240)" fill="#fff2e8"/>
    <g id="noun-recycling-6059593" transform="translate(148.01 5249)">
      <path id="Path_9267" data-name="Path 9267" d="M30.942,9.683l-3.39,2.187a.655.655,0,0,0,.137,1.167l10.267,3.695a.668.668,0,0,0,.223.041.652.652,0,0,0,.335-.091.663.663,0,0,0,.315-.462L40.483,5.77a.644.644,0,0,0-.259-.629.657.657,0,0,0-.69-.066L36.819,6.42C35.8,4.781,32.531,0,28.983,0H28.9a15.2,15.2,0,0,0-6.745,1.654c-2.842,1.188-6.389,8.551-6.785,9.394a.652.652,0,0,0,.37.9l5.892,2.1a.645.645,0,0,0,.807-.325c.01-.025,1.182-2.4,2.416-4.354A31.451,31.451,0,0,1,27.674,5.6,18.3,18.3,0,0,1,30.942,9.683Zm-2.02-8.369h.056C31.82,1.314,35,5.846,35.992,7.6a.652.652,0,0,0,.863.264l2.121-1.051-1.33,8.409-8.272-2.974,2.8-1.807a.657.657,0,0,0,.218-.873c-2.735-4.847-5.857-6.75-7.861-7.5A15.021,15.021,0,0,1,28.922,1.314ZM23.746,8.663c-.924,1.472-1.8,3.126-2.218,3.953l-4.659-1.66c.381-.756,1.071-2.081,1.888-3.446,1.979-3.3,3.192-4.3,3.791-4.6a7.8,7.8,0,0,1,2.761.969,11.056,11.056,0,0,1,1.355.878A31.521,31.521,0,0,0,23.746,8.663Z" transform="translate(-7.541)" fill="#f48120"/>
      <path id="Path_9268" data-name="Path 9268" d="M53.468,32.563a.662.662,0,0,0-.457-.279.636.636,0,0,0-.508.152l-4.76,4.06a.658.658,0,0,0-.122.863c.015.02,1.487,2.223,2.568,4.268a30.779,30.779,0,0,1,1.852,4.329,18,18,0,0,1-5.171.782l-.2-4.03a.657.657,0,0,0-1.081-.467l-8.328,7.049a.675.675,0,0,0-.233.508.642.642,0,0,0,.244.5l8.232,6.648a.648.648,0,0,0,.411.147.684.684,0,0,0,.264-.056.655.655,0,0,0,.391-.558l.188-3.025a24.8,24.8,0,0,0,3.583-.386c3.065-.579,5.06-1.68,5.933-3.268a15.277,15.277,0,0,0,1.934-6.669C58.6,40.079,54,33.33,53.468,32.563Zm-2.121,8.45c-.817-1.538-1.812-3.116-2.314-3.893l3.761-3.207c.467.711,1.269,1.964,2.045,3.36,1.868,3.365,2.132,4.913,2.091,5.583A8.906,8.906,0,0,1,53.275,45.5,32.55,32.55,0,0,0,51.347,41.013Zm3.781,8.161c-1.37,2.507-6.948,3-8.978,2.984h-.005a.656.656,0,0,0-.655.614l-.147,2.36-6.628-5.349L45.424,44.1l.162,3.329a.656.656,0,0,0,.65.624h.239c5.42,0,8.562-1.726,10.191-3.065A15.052,15.052,0,0,1,55.128,49.174Z" transform="translate(-18.242 -15.897)" fill="#f48120"/>
      <path id="Path_9269" data-name="Path 9269" d="M16.307,46.111a.658.658,0,0,0-.65-.584c-.025,0-2.675-.01-4.974-.254A30.6,30.6,0,0,1,6.06,44.39,18.49,18.49,0,0,1,8.3,39.666l3.451,2.086a.651.651,0,0,0,.69-.01.661.661,0,0,0,.3-.624L11.546,30.272a.655.655,0,0,0-.289-.477.665.665,0,0,0-.553-.081L.589,32.824a.658.658,0,0,0-.208,1.147l2.4,1.847A24.213,24.213,0,0,0,1.1,39.011c-1.233,2.862-1.436,5.136-.6,6.75a15.259,15.259,0,0,0,4.451,5.334c2.091,1.837,8.993,1.974,10.972,1.974.208,0,.36,0,.447-.005a.63.63,0,0,0,.482-.223A.64.64,0,0,0,17,52.333ZM1.665,45.157c-1.309-2.538,1.391-7.44,2.543-9.115a.655.655,0,0,0-.142-.893L2.188,33.707l8.14-2.5.964,8.739L8.44,38.219a.656.656,0,0,0-.878.188c-3.152,4.588-3.492,8.227-3.284,10.358A14.946,14.946,0,0,1,1.665,45.157ZM5.9,50.176a8,8,0,0,1-.345-2.908,11.094,11.094,0,0,1,.193-1.6,31.578,31.578,0,0,0,4.8.914c1.731.183,3.6.239,4.522.254l.558,4.913C12.9,51.729,7.5,51.43,5.9,50.176Z" transform="translate(0 -14.62)" fill="#f48120"/>
    </g>
  </g>
</svg>
