<?xml version="1.0" encoding="UTF-8"?><svg id="Layer_1" xmlns="http://www.w3.org/2000/svg" viewBox="0 0 497.84 612"><defs><style>.cls-1{fill:#010101;}</style></defs><path class="cls-1" d="M468.02,0H29.82C13.36.02,0,13.38,0,29.87v389.2c0,16.49,13.36,29.85,29.82,29.87h105.53c4.23,3.94,8.63,7.67,13.24,11.16,2.7,2.06,6.4,2.27,9.34.53l23.11-13.77c2.77,1.58,5.57,3.04,8.44,4.42v97.48l-15.2,15.22c-11.09-5.35-24.42-1.94-31.57,8.1-7.12,10.06-5.97,23.78,2.72,32.48,8.7,8.72,22.42,9.89,32.45,2.8,10.06-7.12,13.53-20.46,8.2-31.55l17.68-17.68c1.58-1.58,2.44-3.7,2.44-5.93v-94.2c2.1.69,4.23,1.36,6.38,1.94l6.6,26.07h.02c.84,3.3,3.58,5.76,6.95,6.24,4.73.67,9.54,1.1,14.36,1.34v38.05c-11.57,4.09-18.52,15.89-16.44,27.98,2.08,12.09,12.55,20.93,24.81,20.93s22.75-8.84,24.81-20.93c2.08-12.09-4.88-23.9-16.44-27.98v-38.05c4.83-.24,9.65-.67,14.39-1.34h.02c3.37-.48,6.12-2.94,6.95-6.24l6.57-26.07c2.15-.62,4.28-1.22,6.4-1.96v94.23c0,2.22.88,4.35,2.46,5.93l17.68,17.68-.02-.02c-5.31,11.11-1.86,24.42,8.17,31.52,10.04,7.1,23.73,5.95,32.43-2.75,8.7-8.7,9.87-22.42,2.75-32.45-7.12-10.01-20.43-13.48-31.52-8.15l-15.22-15.22v-97.48c2.87-1.39,5.66-2.84,8.44-4.42l23.11,13.77v.02c2.92,1.74,6.62,1.53,9.34-.53,4.59-3.49,9.01-7.22,13.24-11.16h105.53c16.49-.02,29.85-13.38,29.85-29.87V29.87C497.84,13.38,484.49.02,468.02,0h0ZM163.42,595.07c-3.39,0-6.48-2.06-7.77-5.21-1.31-3.15-.6-6.76,1.82-9.18,2.41-2.39,6.05-3.11,9.18-1.82,3.15,1.31,5.21,4.4,5.19,7.79,0,4.66-3.78,8.41-8.41,8.41h0ZM342.79,586.68v-.02c-.02,3.39-2.08,6.45-5.21,7.74-3.15,1.29-6.76.57-9.15-1.84-2.39-2.41-3.11-6.02-1.79-9.15,1.29-3.13,4.37-5.19,7.77-5.16,2.22,0,4.35.88,5.93,2.46,1.58,1.58,2.46,3.73,2.46,5.95v.02ZM29.82,16.73h438.2c7.24.02,13.1,5.9,13.1,13.14v47.03H16.73V29.88c0-7.24,5.86-13.12,13.1-13.14h0ZM248.92,563.76c-3.39,0-6.45-2.06-7.77-5.19-1.29-3.15-.57-6.76,1.84-9.18,2.39-2.41,6.02-3.13,9.15-1.82,3.15,1.29,5.21,4.35,5.21,7.74,0,2.25-.88,4.4-2.46,5.97-1.6,1.58-3.73,2.46-5.97,2.46h0ZM343.53,443.31l-22.49-13.38c-2.68-1.58-6.02-1.55-8.68.1-11.11,6.88-23.25,11.93-35.99,14.91-3.04.72-5.42,3.08-6.19,6.12l-6.36,25.31h-.02c-9.89.98-19.88.98-29.78,0l-6.43-25.33c-.74-3.04-3.13-5.4-6.17-6.12-12.71-2.99-24.88-8.03-35.97-14.91-2.65-1.65-6-1.67-8.68-.07l-22.46,13.38h-.02c-7.7-6.31-14.77-13.38-21.05-21.08l13.41-22.42h-.02c1.63-2.7,1.6-6.05-.07-8.72-6.91-11.09-11.93-23.23-14.89-35.94-.72-3.06-3.08-5.47-6.12-6.21l-25.36-6.4c-.5-4.95-.76-9.92-.76-14.89s.24-9.94.74-14.89l25.36-6.4h.02c3.04-.76,5.4-3.15,6.12-6.21,2.96-12.71,7.98-24.88,14.89-35.97,1.67-2.65,1.7-6.02.07-8.7l-13.38-22.37c6.28-7.72,13.36-14.77,21.05-21.08l22.46,13.38h.02c2.68,1.6,6.02,1.55,8.68-.1,11.09-6.88,23.25-11.9,35.97-14.91,3.04-.72,5.4-3.06,6.17-6.07l6.43-25.33c9.89-1,19.88-1,29.78,0l6.38,25.31c.76,3.04,3.15,5.4,6.19,6.12,12.74,2.99,24.88,8.03,35.99,14.91,2.65,1.65,6,1.67,8.68.07l22.46-13.38h.02c7.7,6.31,14.77,13.36,21.05,21.08l-13.38,22.39c-1.63,2.68-1.6,6.05.07,8.7,6.91,11.09,11.93,23.25,14.89,35.97.72,3.06,3.08,5.45,6.12,6.21l25.31,6.38c.48,4.99.74,9.99.74,14.91s-.24,9.89-.74,14.91l-25.33,6.38v-.02c-3.06.76-5.4,3.18-6.12,6.21-2.96,12.74-8.01,24.88-14.91,35.97-1.65,2.65-1.7,6.02-.07,8.72l13.41,22.42c-6.31,7.7-13.34,14.75-21.03,21.05h0ZM468.02,432.2h-89.93c1.15-1.41,2.25-2.84,3.35-4.28h-.02c2.06-2.7,2.27-6.4.53-9.32l-13.79-23.09-.02-.02c5.69-9.92,10.08-20.53,13.1-31.57l26.07-6.57c3.32-.81,5.81-3.61,6.26-7,2.06-15.06,2.06-30.35,0-45.43-.45-3.39-2.94-6.14-6.26-6.98l-26.07-6.57-.02.02c-3.01-11.04-7.41-21.65-13.07-31.59l13.79-23.09c1.74-2.92,1.55-6.62-.5-9.34-9.2-12.14-20.03-22.97-32.17-32.17-2.7-2.06-6.4-2.27-9.34-.53l-23.11,13.77v.02c-9.94-5.66-20.55-10.06-31.57-13.1l-6.57-26.07c-.84-3.3-3.58-5.76-6.95-6.24-15.1-2.08-30.4-2.08-45.5,0-3.37.48-6.12,2.94-6.95,6.24l-6.6,26.07c-11.04,3.04-21.63,7.43-31.57,13.1l-23.13-13.79c-2.92-1.74-6.62-1.53-9.34.53-12.14,9.2-22.94,20.03-32.14,32.17-2.08,2.72-2.27,6.4-.53,9.34l13.79,23.09c-5.66,9.92-10.06,20.53-13.07,31.57l-26.1,6.57c-3.3.84-5.78,3.58-6.24,6.98-2.1,15.08-2.1,30.4,0,45.5.45,3.39,2.94,6.14,6.24,6.95l26.07,6.57h.02c3.01,11.04,7.41,21.65,13.07,31.57l-13.79,23.09v.02c-1.74,2.92-1.55,6.62.53,9.32,1.1,1.43,2.2,2.87,3.35,4.28H29.88l-.02.02c-3.49-.02-6.81-1.41-9.27-3.87-2.46-2.46-3.85-5.81-3.85-9.3V93.66h464.39v325.42c0,7.24-5.86,13.12-13.1,13.14v-.02ZM287.73,46.84c-.02-2.22.86-4.35,2.44-5.9,1.58-1.58,3.7-2.46,5.93-2.46h144.77c2.27-.07,4.45.79,6.07,2.37,1.63,1.58,2.53,3.75,2.53,6s-.91,4.42-2.53,6c-1.63,1.58-3.8,2.44-6.07,2.37h-144.77c-2.22,0-4.35-.88-5.93-2.44-1.58-1.58-2.44-3.7-2.44-5.93ZM68.66,66.89c8.1,0,15.41-4.88,18.52-12.38,3.11-7.5,1.39-16.13-4.35-21.87-5.74-5.74-14.36-7.43-21.87-4.33-7.48,3.11-12.38,10.42-12.36,18.52.02,11.06,8.99,20.03,20.05,20.05h0ZM68.66,43.52c1.34,0,2.56.81,3.06,2.06.53,1.24.24,2.68-.72,3.61-.96.96-2.39,1.24-3.61.74-1.24-.53-2.06-1.74-2.06-3.08,0-1.82,1.48-3.3,3.32-3.32h0ZM167.86,66.89c8.1,0,15.41-4.9,18.5-12.4,3.11-7.5,1.36-16.11-4.37-21.84s-14.36-7.43-21.84-4.33c-7.5,3.11-12.38,10.42-12.38,18.52.02,11.09,9.01,20.05,20.1,20.05h0ZM167.86,43.52c1.34.02,2.53.84,3.04,2.08.5,1.24.22,2.65-.74,3.61-.96.93-2.37,1.22-3.61.69-1.24-.5-2.06-1.72-2.06-3.06.02-.88.36-1.72,1-2.34.62-.65,1.48-.98,2.37-.98h0ZM118.27,66.89c8.1,0,15.41-4.9,18.5-12.4,3.11-7.5,1.39-16.11-4.37-21.84-5.74-5.74-14.36-7.43-21.84-4.33-7.48,3.11-12.38,10.42-12.38,18.52.02,11.09,9.01,20.05,20.1,20.05h0ZM118.27,43.52c1.34.02,2.53.84,3.04,2.08s.22,2.65-.74,3.61c-.93.93-2.37,1.22-3.61.69-1.24-.5-2.03-1.72-2.03-3.06,0-.88.33-1.72.98-2.34.62-.65,1.48-.98,2.37-.98h0ZM248.92,226.98c-33.41-.02-64.67,16.56-83.41,44.24-18.71,27.67-22.51,62.83-10.08,93.87,12.43,31.02,39.43,53.87,72.08,60.96.36.1.72.19,1.1.26,13.36,2.72,27.12,2.72,40.48,0,.45-.07.88-.17,1.31-.31,32.6-7.15,59.55-29.99,71.93-60.99,12.38-31.02,8.58-66.15-10.13-93.78-18.71-27.65-49.9-44.24-83.28-44.26h0ZM238.38,410.93v-50.16c0-3.35-2.01-6.38-5.11-7.7-12.21-5.19-21.05-16.11-23.56-29.16-2.53-13.02,1.58-26.46,10.99-35.85v34.87c0,3.01,1.58,5.76,4.18,7.27l19.84,11.45c2.6,1.48,5.78,1.48,8.36,0l19.86-11.45c2.58-1.51,4.18-4.25,4.18-7.27v-34.87c9.39,9.39,13.5,22.82,10.99,35.85-2.51,13.02-11.35,23.97-23.54,29.18-3.11,1.29-5.11,4.33-5.11,7.7v50.16c-7,.91-14.08.91-21.08,0v-.02ZM276.21,407.03v-41.03c18.81-10.35,30.16-30.45,29.3-51.91-.86-21.46-13.77-40.6-33.34-49.45-2.6-1.17-5.59-.93-7.98.6-2.39,1.55-3.82,4.18-3.82,7.03v45.86l-11.45,6.6-11.49-6.6v-45.86c0-2.84-1.46-5.47-3.85-7.03-2.39-1.53-5.38-1.77-7.98-.6-19.57,8.84-32.48,27.98-33.31,49.47-.84,21.46,10.54,41.56,29.35,51.88v41.06c-38.79-13.34-62.28-52.77-55.52-93.25,6.74-40.46,41.77-70.12,82.81-70.12s76.07,29.66,82.81,70.12c6.76,40.48-16.73,79.91-55.52,93.25v-.02Z"/></svg>