<?xml version="1.0" encoding="UTF-8"?><svg id="Layer_1" xmlns="http://www.w3.org/2000/svg" viewBox="0 0 60 60"><defs><style>.cls-1{fill:#010101;}.cls-1,.cls-2,.cls-3{stroke-width:0px;}.cls-2{fill:#fff2e9;}.cls-3{fill:#f48220;}</style></defs><circle class="cls-2" cx="30" cy="30" r="30"/><path class="cls-3" d="M42.28,13.56h-12.51c-.58,0-1.04.47-1.04,1.04v1.56c0,.58.47,1.04,1.04,1.04h12.51c.58,0,1.04-.47,1.04-1.04v-1.56c0-.58-.47-1.04-1.04-1.04ZM29.77,16.17v-1.56h12.51v1.56s-12.51,0-12.51,0ZM43.06,18.78h-9.38c-.29,0-.52.23-.52.52s.23.52.52.52h9.38c.29,0,.52-.23.52-.52s-.23-.52-.52-.52Z"/><path class="cls-1" d="M33.68,21.91h7.82c.29,0,.52-.23.52-.52s-.23-.52-.52-.52h-7.82c-.29,0-.52.23-.52.52s.23.52.52.52ZM28.65,20.86l.79.66c.22.18.55.15.74-.07l1.29-1.56c.18-.22.15-.55-.07-.73-.22-.18-.55-.15-.73.07l-.96,1.16-.39-.32c-.22-.18-.55-.15-.73.07-.18.22-.15.55.07.73h0Z"/><path class="cls-3" d="M43.06,23.47h-9.38c-.29,0-.52.23-.52.52s.23.52.52.52h9.38c.29,0,.52-.23.52-.52s-.23-.52-.52-.52Z"/><path class="cls-1" d="M33.68,26.6h8.34c.29,0,.52-.23.52-.52s-.23-.52-.52-.52h-8.34c-.29,0-.52.23-.52.52s.23.52.52.52Z"/><path class="cls-3" d="M28.65,25.56l.79.66c.22.18.55.15.74-.07l1.29-1.56c.18-.22.15-.55-.07-.73s-.55-.15-.73.07l-.96,1.16-.39-.32c-.22-.18-.55-.15-.73.07-.18.22-.15.55.07.73h0ZM43.06,28.16h-9.38c-.29,0-.52.23-.52.52s.23.52.52.52h9.38c.29,0,.52-.23.52-.52s-.23-.52-.52-.52Z"/><path class="cls-1" d="M33.68,31.29h6.78c.29,0,.52-.23.52-.52s-.23-.52-.52-.52h-6.78c-.29,0-.52.23-.52.52s.23.52.52.52ZM29.77,31.03c.15,0,.3-.07.4-.19l1.29-1.56c.18-.22.15-.55-.07-.73-.22-.18-.55-.15-.73.07h0l-.96,1.16-.39-.32c-.22-.18-.55-.15-.73.07-.18.22-.15.55.07.73l.79.66c.09.08.21.12.33.12Z"/><path class="cls-3" d="M43.58,33.38c0-.29-.23-.52-.52-.52h-9.38c-.29,0-.52.23-.52.52s.23.52.52.52h9.38c.29,0,.52-.23.52-.52Z"/><path class="cls-1" d="M33.68,34.94c-.29,0-.52.23-.52.52s.23.52.52.52h8.34c.29,0,.52-.23.52-.52s-.23-.52-.52-.52h-8.34Z"/><path class="cls-3" d="M30.67,33.3l-.96,1.16-.39-.32c-.07-.06-.16-.1-.25-.11-.03.16-.06.32-.11.47.26.33.44.71.52,1.12.01.06.22.1.27.1.17.01.33-.06.44-.19l1.29-1.56c.19-.22.17-.55-.05-.74s-.55-.17-.74.05c0,0-.01.01-.02.02Z"/><path class="cls-1" d="M44.1,10.43h-16.16c-1.15,0-2.08.93-2.09,2.09v16.48c.08.14.16.29.22.44.29.06.57.17.82.32V12.52c0-.58.47-1.04,1.04-1.04h16.16c.58,0,1.04.47,1.04,1.04v24.5c0,.58-.47,1.04-1.04,1.04h-15.02c.04.33,0,.66-.11.98,0,.02-.02.04-.03.07h15.16c1.15,0,2.08-.93,2.09-2.09V12.52c0-1.15-.93-2.08-2.09-2.09Z"/><path class="cls-3" d="M24.35,32.97c-.23-.18-.55-.14-.73.09l-4.19,5.31-2.36-2.06c-.21-.19-.54-.18-.74.04-.19.21-.18.54.04.74,0,0,0,0,.01.01l2.77,2.42c.09.08.22.13.34.13.02,0,.03,0,.05,0,.14-.01.27-.08.36-.2l4.53-5.74c.18-.23.14-.55-.09-.73,0,0,0,0,0,0h0Z"/><circle class="cls-1" cx="8.13" cy="44.06" r=".52"/><path class="cls-1" d="M10.47,43.54h-.78c-.29,0-.52.23-.52.52s.23.52.52.52h.78c.29,0,.52-.23.52-.52s-.23-.52-.52-.52ZM49.32,43.54h-.78c-.29,0-.52.23-.52.52s.23.52.52.52h.78c.29,0,.52-.23.52-.52s-.23-.52-.52-.52Z"/><circle class="cls-1" cx="50.88" cy="44.06" r=".52"/><path class="cls-3" d="M38.41,45.63h-2.17c-.29.02-.5.27-.48.56.02.26.22.46.48.48h2.17c.29-.02.5-.27.48-.56-.02-.26-.22-.46-.48-.48ZM22.77,45.63h-2.17c-.29.02-.5.27-.48.56.02.26.22.46.48.48h2.17c.29-.02.5-.27.48-.56-.02-.26-.22-.46-.48-.48ZM34.72,45.63h-10.43c-.29,0-.52.23-.52.52s.23.52.52.52h4.16v.52h-2.07c-.29,0-.52.23-.52.52s.23.52.52.52h6.52c.29,0,.52-.23.52-.52s-.23-.52-.52-.52h-2.33v-.52h4.16c.29,0,.52-.23.52-.52s-.23-.52-.52-.52Z"/><path class="cls-1" d="M46.9,43.54h-24.38c.13-.11.25-.22.35-.35.08-.1.17-.19.27-.26.13-.01.26,0,.38.02.35.08.71.04,1.03-.11.29-.21.51-.51.61-.85.04-.12.1-.24.17-.35.12-.05.24-.09.36-.11.35-.04.68-.2.93-.46.2-.29.3-.65.28-1,0-.13.01-.26.05-.39.09-.09.19-.17.3-.23.66-.27.97-1.02.7-1.68-.02-.04-.03-.08-.05-.12-.05-.13-.08-.26-.09-.39.05-.11.12-.22.21-.32.53-.49.57-1.31.08-1.85-.03-.03-.05-.06-.08-.08-.08-.1-.15-.2-.21-.32.01-.13.04-.27.09-.39.33-.63.09-1.41-.53-1.74-.04-.02-.08-.04-.12-.05-.11-.06-.21-.14-.3-.23-.03-.13-.05-.26-.05-.39.02-.36-.08-.71-.28-1-.25-.26-.58-.42-.93-.46-.13-.02-.25-.06-.36-.11-.07-.11-.13-.22-.17-.35-.1-.34-.32-.64-.61-.85-.32-.15-.69-.19-1.03-.11-.13.02-.25.03-.38.02-.1-.07-.19-.16-.27-.26-.21-.29-.52-.5-.87-.59-.35-.03-.71.06-1,.25-.11.07-.23.12-.36.15-.13-.03-.25-.09-.36-.15-.29-.2-.65-.29-1-.25-.35.09-.66.3-.87.59-.08.1-.17.19-.27.26-.13.01-.26,0-.38-.02-.35-.08-.71-.04-1.03.11-.29.21-.51.51-.61.85-.04.12-.1.24-.17.35-.12.05-.24.09-.36.11-.35.04-.68.2-.93.46-.2.29-.3.65-.28,1,0,.13-.01.26-.05.39-.09.09-.19.17-.3.23-.32.16-.58.43-.72.76-.09.34-.06.71.07,1.03.05.13.08.26.09.39-.05.11-.12.22-.21.32-.53.49-.57,1.31-.08,1.85.03.03.05.06.08.08.08.1.15.2.21.32-.01.13-.04.27-.09.39-.14.33-.16.69-.07,1.03.15.33.4.59.72.76.11.06.21.14.3.23.03.13.05.26.05.39-.02.36.08.71.28,1,.25.26.58.42.93.46.13.02.25.06.36.11.07.11.13.22.17.35.1.34.32.64.61.85.32.15.69.19,1.03.11.13-.02.25-.03.38-.02.1.07.19.16.27.26.11.13.23.24.35.35h-6.66c-.29-.04-.55.17-.59.45-.04.29.17.55.45.59.05,0,.09,0,.14,0h34.79c.29.04.55-.17.59-.45s-.17-.55-.45-.59c-.05,0-.09,0-.14,0h0ZM18.5,41.95c-.14-.05-.29-.07-.44-.07-.15,0-.29.02-.44.04-.12.02-.24.03-.36.03-.07-.11-.13-.23-.17-.35-.09-.28-.25-.54-.46-.75-.24-.18-.52-.29-.81-.34-.12-.02-.24-.06-.36-.1-.03-.13-.05-.26-.05-.39,0-.3-.05-.59-.18-.86-.16-.25-.38-.45-.64-.59-.11-.06-.21-.14-.31-.23.01-.13.04-.26.09-.38.11-.28.15-.58.12-.88-.07-.29-.21-.55-.4-.77-.09-.1-.16-.21-.21-.33.05-.12.13-.24.21-.34.19-.22.33-.48.4-.77.03-.3,0-.6-.12-.88-.04-.12-.07-.24-.09-.37.09-.09.2-.17.31-.24.26-.14.48-.34.64-.59.13-.27.19-.56.18-.86,0-.13.01-.26.04-.38.12-.05.24-.09.36-.11.29-.04.57-.16.81-.34.21-.21.37-.46.46-.75.04-.12.1-.23.16-.34.13,0,.25,0,.38.02.29.06.59.05.88-.03.27-.12.5-.31.69-.54.08-.1.17-.19.27-.27.12.03.23.09.34.15.25.16.55.26.85.28.3-.02.59-.11.85-.28.1-.06.21-.11.32-.15.11.08.2.17.28.27.18.23.42.42.69.54.29.08.59.1.88.03.12-.02.24-.03.36-.03.07.11.13.23.17.35.09.28.25.54.46.75.24.18.52.29.81.34.12.02.24.06.36.1.03.13.05.26.05.39,0,.3.05.59.18.86.16.25.38.45.64.59.11.06.21.14.31.23-.01.13-.04.26-.09.38-.11.28-.15.58-.12.88.07.29.21.55.4.77.09.1.16.21.21.33-.05.12-.13.23-.21.33-.19.22-.33.48-.4.77-.03.3,0,.6.12.88.04.12.07.24.09.37-.09.09-.2.17-.31.24-.26.14-.48.34-.64.59-.13.27-.19.56-.18.86,0,.13-.01.26-.04.38-.12.05-.24.09-.36.11-.29.04-.57.16-.81.34-.21.21-.37.46-.46.75-.04.12-.1.23-.16.34-.13,0-.25,0-.38-.02-.29-.06-.59-.05-.88.03-.27.12-.5.31-.69.54-.08.1-.17.19-.27.27-.12-.03-.23-.09-.34-.15-.25-.16-.55-.26-.85-.28-.3.02-.59.11-.85.28-.1.06-.21.11-.32.15-.11-.08-.2-.17-.28-.27-.18-.23-.42-.42-.69-.54h0ZM20.28,43.53c.11-.07.23-.12.36-.15.13.03.25.09.36.15h.02s-.76,0-.76,0h.02s0,0,0,0ZM35.07,7.05c.43,0,.78-.35.78-.78s-.35-.78-.78-.78-.78.35-.78.78c0,.43.35.78.78.78ZM35.07,5.87c.22,0,.39.18.39.39s-.18.39-.39.39-.39-.18-.39-.39c0-.22.18-.39.39-.39ZM16.9,16.69c-.29,0-.52.23-.52.52s.23.52.52.52.52-.23.52-.52c0-.29-.23-.52-.52-.52ZM16.9,17.47c-.14,0-.26-.12-.26-.26s.12-.26.26-.26.26.12.26.26c0,.14-.12.26-.26.26ZM21.42,7.65c-.29,0-.52.23-.52.52s.23.52.52.52.52-.23.52-.52c0-.29-.23-.52-.52-.52ZM21.42,8.43c-.14,0-.26-.12-.26-.26s.12-.26.26-.26.26.12.26.26c0,.14-.12.26-.26.26ZM49.06,15.39c-.29,0-.52.23-.52.52s.23.52.52.52.52-.23.52-.52c0-.29-.23-.52-.52-.52ZM49.06,16.17c-.14,0-.26-.12-.26-.26s.12-.26.26-.26.26.12.26.26c0,.14-.12.26-.26.26ZM13.33,6.26c0-.29-.23-.52-.52-.52s-.52.23-.52.52.23.52.52.52c.29,0,.52-.23.52-.52ZM12.55,6.26c0-.14.12-.26.26-.26s.26.12.26.26-.12.26-.26.26c-.14,0-.26-.12-.26-.26Z"/><path class="cls-3" d="M29.19,8.74l.39-.51-.24-.14-.25.57h0l-.25-.57-.25.14.38.5h0s-.6-.07-.6-.07v.28l.6-.08h0s-.39.51-.39.51l.23.15.27-.58h0l.24.57.26-.15-.39-.49h0s.62.07.62.07v-.28l-.62.08s0,0,0,0ZM8.95,13.6l-.22.29.13.08.15-.33h0l.14.33.15-.08-.23-.28h0s.35.04.35.04v-.16l-.35.05h0s.22-.3.22-.3l-.14-.08-.14.33h0l-.15-.33-.14.08.22.29h0s-.35-.04-.35-.04v.16l.35-.04s0,0,0,0ZM44.74,9.01v-.27l-.6.08h0s.38-.51.38-.51l-.24-.14-.24.56h0l-.25-.56-.24.14.38.49h0s-.59-.07-.59-.07v.27l.59-.08h0s-.38.5-.38.5l.23.14.26-.56h0l.24.56.25-.14-.38-.48h0s.6.06.6.06h0ZM49.67,8.03l.33-.43-.21-.12-.21.48h0l-.21-.48-.21.12.32.42h0s-.51-.06-.51-.06v.23l.51-.07h0s-.33.43-.33.43l.2.12.22-.49h0l.21.48.22-.12-.33-.41h0s.52.06.52.06v-.23l-.52.07s0,0,0,0Z"/></svg>