<?xml version="1.0" encoding="UTF-8"?><svg id="Layer_1" xmlns="http://www.w3.org/2000/svg" viewBox="0 0 60 60"><defs><style>.cls-1{fill:#202020;}.cls-1,.cls-2,.cls-3,.cls-4{stroke-width:0px;}.cls-2{fill:#fff2e9;}.cls-3{fill:#f58220;}.cls-4{fill:#f2e8df;}</style></defs><circle class="cls-2" cx="30" cy="30" r="30"/><path class="cls-4" d="M32.4,36v-7.56c0-1.14-.92-2.06-2.06-2.06s-2.06.92-2.06,2.06v7.56h-14.44c-.76,0-1.37-.62-1.38-1.38v-17.88c0-.76.62-1.37,1.38-1.38h31.63c.76,0,1.37.62,1.38,1.38v17.88c0,.76-.62,1.37-1.38,1.38h-13.06ZM43.4,29.12c0-1.52-1.23-2.75-2.75-2.75s-2.75,1.23-2.75,2.75,1.23,2.75,2.75,2.75,2.75-1.23,2.75-2.75ZM21.4,23.88c0-.46-.13-.92-.38-1.31l-2.37-3.76-2.37,3.76c-.25.39-.38.85-.38,1.31,0,.88.47,1.69,1.24,2.11.95.5,2.08.5,3.03,0,.77-.42,1.25-1.23,1.24-2.11Z"/><path class="cls-3" d="M40.65,42.87c0-1.14.92-2.06,2.06-2.06s2.06.92,2.06,2.06v7.56h-20.63v-6.88c0-2.28,1.85-4.12,4.13-4.13v-11c0-1.14.92-2.06,2.06-2.06s2.06.92,2.06,2.06v11.69c0-1.14.93-2.06,2.06-2.06.55,0,1.07.22,1.46.6.03.03.05.05.08.08.34.38.53.87.53,1.38v1.38c0-1.14.92-2.06,2.06-2.06s2.06.92,2.06,2.06v1.38Z"/><path class="cls-1" d="M48.21,11.93H13.83c-2.66,0-4.81,2.16-4.81,4.81v17.88c0,2.66,2.16,4.81,4.81,4.81h9.63c.38,0,.69-.31.69-.69s-.31-.69-.69-.69h-9.63c-1.9,0-3.44-1.54-3.44-3.44v-17.88c0-1.9,1.54-3.43,3.44-3.44h34.38c1.9,0,3.44,1.54,3.44,3.44v17.88c0,1.9-1.54,3.44-3.44,3.44h-3.44c-.38,0-.69.31-.69.69s.31.69.69.69h3.44c2.66,0,4.81-2.16,4.81-4.81v-17.88c0-2.66-2.16-4.81-4.81-4.81Z"/><path class="cls-1" d="M37.21,36.68h8.25c1.14,0,2.06-.92,2.06-2.06v-17.88c0-1.14-.92-2.06-2.06-2.06H13.83c-1.14,0-2.06.93-2.06,2.06v17.88c0,1.14.92,2.06,2.06,2.06h11.69c.38,0,.69-.31.69-.69s-.31-.69-.69-.69h-11.69c-.38,0-.69-.31-.69-.69v-17.88c0-.19.08-.36.21-.49.13-.13.3-.2.48-.2h31.63c.38,0,.69.31.69.69v17.88c0,.38-.31.69-.69.69h-8.25c-.38,0-.69.31-.69.69s.31.69.69.69ZM50.27,27.75v-4.13c0-.38-.31-.69-.69-.69s-.69.31-.69.69v4.13c0,.38.31.69.69.69s.69-.31.69-.69Z"/><path class="cls-1" d="M42.71,40.12c-.55,0-1.08.16-1.54.47-.49-1.43-2.05-2.19-3.48-1.7-.23.08-.44.19-.64.32-.11-.33-.28-.63-.51-.88-.04-.05-.09-.11-.14-.15-.88-.89-2.25-1.06-3.32-.42v-9.32c0-1.52-1.23-2.75-2.75-2.75s-2.75,1.23-2.75,2.75v10.37c-2.37.34-4.12,2.37-4.13,4.76v6.19c0,.38.31.69.69.69s.69-.31.69-.69v-6.19c0-1.63,1.15-3.04,2.75-3.37v6.12c0,.38.31.69.69.69s.69-.31.69-.69v-17.88c0-.76.62-1.38,1.38-1.38s1.38.62,1.38,1.38v17.88c0,.38.31.69.69.69s.69-.31.69-.69v-6.19c0-.76.62-1.37,1.38-1.37.36,0,.71.14.97.4l.05.06c.23.25.35.58.35.91v6.19c0,.38.31.69.69.69s.69-.31.69-.69v-4.81c0-.76.62-1.38,1.38-1.38s1.38.62,1.38,1.38v4.81c0,.38.31.69.69.69s.69-.31.69-.69v-3.44c0-.76.62-1.38,1.38-1.38s1.38.62,1.38,1.38v6.88c0,.38.31.69.69.69s.69-.31.69-.69v-6.88c0-1.52-1.23-2.75-2.75-2.75ZM21.6,22.2l-2.37-3.76c-.23-.32-.68-.4-1-.17-.06.05-.12.1-.17.17l-2.37,3.76c-.32.5-.49,1.09-.49,1.68-.01,1.13.61,2.18,1.6,2.72,1.15.61,2.52.61,3.67,0,1-.54,1.62-1.58,1.6-2.72,0-.59-.16-1.18-.48-1.68ZM19.84,25.38c-.75.4-1.64.4-2.38,0-.54-.3-.88-.88-.87-1.5,0-.34.09-.67.28-.95l1.79-2.84,1.79,2.84c.18.28.27.61.27.94,0,.62-.33,1.2-.87,1.5h0ZM21.4,28.43h-5.5c-.38,0-.69.31-.69.69s.31.69.69.69h5.5c.38,0,.69-.31.69-.69s-.31-.69-.69-.69ZM21.4,31.18h-5.5c-.38,0-.69.31-.69.69s.31.69.69.69h5.5c.38,0,.69-.31.69-.69s-.31-.69-.69-.69Z"/><path class="cls-1" d="M34.11,31.51c.33.19.75.09.94-.24,1.56-2.6.72-5.98-1.88-7.55-.32-.21-.74-.13-.95.19-.21.32-.13.74.19.95.02.01.04.02.06.03,1.95,1.18,2.58,3.71,1.4,5.67-.19.33-.09.75.24.94Z"/><path class="cls-1" d="M44.16,20.96c.4-.38.62-.91.61-1.46,0-1.14-.92-2.06-2.06-2.06h-17.19c-1.14,0-2.06.93-2.06,2.06,0,1.14.92,2.06,2.06,2.06h2.06c.38,0,.69-.31.69-.69s-.31-.69-.69-.69h-2.06c-.38,0-.69-.31-.69-.69,0-.19.08-.36.21-.49.13-.13.3-.2.48-.2h17.19c.38,0,.69.31.69.69,0,.19-.08.36-.21.49-.13.13-.3.2-.48.2h-12.38c-.38,0-.69.31-.69.69v2.11c-3.01.38-5.15,3.13-4.77,6.14.1.76.35,1.49.74,2.15.18.33.6.46.93.28.33-.18.46-.6.28-.93,0-.02-.02-.03-.03-.05-.38-.64-.59-1.38-.59-2.13,0-2.28,1.85-4.12,4.13-4.13.38,0,.69-.31.69-.69v-2.06h11.69c.54,0,1.07-.21,1.45-.6ZM40.65,25.68c-1.9,0-3.44,1.54-3.44,3.44s1.54,3.44,3.44,3.44,3.44-1.54,3.44-3.44c0-1.9-1.54-3.44-3.44-3.44ZM40.65,31.18c-1.14,0-2.06-.92-2.06-2.06s.92-2.06,2.06-2.06,2.06.92,2.06,2.06-.92,2.06-2.06,2.06h0Z"/><path class="cls-1" d="M43.4,22.93h-5.5c-.38,0-.69.31-.69.69s.31.69.69.69h5.5c.38,0,.69-.31.69-.69s-.31-.69-.69-.69Z"/></svg>