<svg width="45" height="45" viewBox="0 0 45 45" fill="none" xmlns="http://www.w3.org/2000/svg">
<g clip-path="url(#clip0_1_2)">
<path d="M45 22.5C45 10.0736 34.9264 0 22.5 0C10.0736 0 0 10.0736 0 22.5C0 34.9264 10.0736 45 22.5 45C34.9264 45 45 34.9264 45 22.5Z" fill="url(#paint0_linear_1_2)"/>
<path fill-rule="evenodd" clip-rule="evenodd" d="M18.7602 31.3082C16.2583 31.3082 14.2953 30.1727 14.2953 28.7101V22.4554C14.2953 20.9928 16.2583 19.8765 18.7602 19.8765C21.262 19.8765 23.225 21.012 23.2058 22.4746V28.7101C23.2058 30.1727 21.2428 31.3082 18.7602 31.3082ZM35.8114 32.0395H34.7337V33.5406C34.7337 33.81 34.5027 34.041 34.2333 34.041H32.1548V36.1195C32.1548 36.3889 31.9431 36.6006 31.6544 36.6006H9.61869C9.34926 36.6006 9.11832 36.3889 9.11832 36.1195V8.07923C9.11832 7.79055 9.34926 7.57886 9.61869 7.57886H11.6779V5.50037C11.6779 5.23094 11.9089 5 12.1783 5H25.0726C25.2073 5 25.342 5.05774 25.4382 5.15396L34.5797 14.2954C34.6759 14.3917 34.7337 14.5264 34.7337 14.6611V16.1622C36.562 16.1622 36.2348 15.912 36.5042 18.3754C37.0623 18.5871 37.582 18.895 38.0631 19.2607L39.6797 18.5486C39.9106 18.4524 40.1801 18.5486 40.3148 18.7603L41.8929 21.4931C42.0276 21.7241 41.9699 21.9935 41.7582 22.1475L40.334 23.2059C40.411 23.8025 40.411 24.3992 40.334 24.9958L41.7582 26.0542C41.9699 26.189 42.0276 26.4776 41.8929 26.6893L40.3148 29.4414C40.1801 29.6531 39.9106 29.7493 39.6797 29.6338L38.0631 28.9218C37.582 29.3067 37.0623 29.5954 36.5042 29.8263L36.3118 31.5969C36.2733 31.847 36.0616 32.0395 35.8114 32.0395ZM33.7329 32.0395C31.9046 32.0395 32.2318 32.2897 31.9624 29.8263C31.4042 29.5954 30.8846 29.3067 30.4035 28.9218L28.7869 29.6338C28.556 29.7493 28.2673 29.6531 28.1518 29.4414L26.5737 26.6893C26.439 26.4776 26.4967 26.189 26.7084 26.0542L28.1326 24.9958C28.0556 24.3992 28.0556 23.8025 28.1326 23.2059L26.7084 22.1475C26.4967 21.9935 26.439 21.7241 26.5737 21.4931L28.1518 18.7603C28.2673 18.5486 28.556 18.4524 28.7869 18.5486L30.4035 19.2607C30.8846 18.895 31.4042 18.5871 31.9624 18.3754C32.2318 15.912 31.9046 16.1622 33.7329 16.1622V15.1422H25.0726C24.8031 15.1422 24.5914 14.9305 24.5914 14.6611V6.00075H12.6787V33.0402H33.7329V32.0395ZM33.0978 31.0387H35.3688L35.542 29.4029C35.6189 28.8255 36.4465 29.0372 37.6397 27.9788C37.7936 27.844 38.0053 27.8055 38.1786 27.9018L39.6797 28.5561L40.8151 26.5931C38.7559 25.0727 39.391 25.8425 39.391 24.0912C39.391 22.3399 38.7559 23.129 40.8151 21.6086L39.6797 19.6456L38.1786 20.2999C37.6204 20.5501 37.4087 19.7226 35.8884 19.2029C35.6959 19.1452 35.5612 18.972 35.542 18.7796L35.3688 17.163H33.0978L32.9246 18.7796C32.8476 19.3762 32.0393 19.1645 30.8269 20.2229C30.6729 20.3577 30.4612 20.3769 30.288 20.2999L28.7869 19.6456L27.6514 21.6086C29.7107 23.129 29.0756 22.3399 29.0756 24.0912C29.0756 25.8425 29.7107 25.0727 27.6514 26.5931L28.7869 28.5561L30.288 27.8825C30.8461 27.6516 31.0578 28.4791 32.5782 28.9988C32.7707 29.0565 32.9054 29.2104 32.9246 29.4029L33.0978 31.0387ZM34.2333 28.2867C31.9239 28.2867 30.0378 26.4199 30.0378 24.0912C30.0378 21.7818 31.9239 19.8958 34.2333 19.8958C36.5427 19.8958 38.4287 21.7818 38.4287 24.0912C38.4287 26.4199 36.5427 28.2867 34.2333 28.2867ZM34.2333 20.8965C32.4627 20.8965 31.0386 22.3399 31.0386 24.0912C31.0386 25.8618 32.4627 27.3052 34.2333 27.3052C36.0038 27.3052 37.428 25.8618 37.428 24.0912C37.428 22.3399 36.0038 20.8965 34.2333 20.8965ZM31.1733 34.041H12.1783C11.9089 34.041 11.6779 33.81 11.6779 33.5406V8.56036H10.1191V35.6191H31.1733V34.041ZM25.573 14.1607H33.0401L25.573 6.69358V14.1607ZM28.2288 17.6056H14.2568C13.6217 17.6056 13.6217 16.6048 14.2568 16.6048H28.2288C28.8639 16.6048 28.8639 17.6056 28.2288 17.6056ZM22.5899 8.84904H14.6802C14.0258 8.84904 14.0258 7.84829 14.6802 7.84829H22.5899C23.2443 7.84829 23.2443 8.84904 22.5899 8.84904ZM22.5899 11.7551H14.6802C14.0258 11.7551 14.0258 10.7736 14.6802 10.7736H22.5899C23.2443 10.7736 23.2443 11.7551 22.5899 11.7551ZM22.5899 14.6803H14.6802C14.0258 14.6803 14.0258 13.6796 14.6802 13.6796H22.5899C23.2443 13.6796 23.2443 14.6803 22.5899 14.6803ZM15.296 28.6908C15.296 29.4606 16.6817 30.3074 18.7602 30.3074C20.7809 30.3074 22.2243 29.4799 22.2243 28.7101V28.2674C20.473 29.4991 17.0281 29.4991 15.296 28.2674V28.6908ZM15.296 26.6123C15.296 27.3822 16.6817 28.2097 18.7602 28.2097C20.7809 28.2097 22.205 27.3822 22.2243 26.6316V26.189C20.473 27.4206 17.0281 27.4206 15.296 26.189V26.6123ZM15.296 24.5339C15.296 25.2844 16.6817 26.1312 18.7602 26.1312C20.7809 26.1312 22.205 25.3037 22.2243 24.5531V24.1105C20.473 25.3422 17.0281 25.3422 15.296 24.1105V24.5339ZM22.2243 22.4746C22.2243 21.7048 20.8001 20.858 18.7602 20.858C16.7202 20.858 15.296 21.7048 15.296 22.4554C15.296 23.2059 16.7202 24.0527 18.7602 24.0527C20.7809 24.0527 22.205 23.2059 22.2243 22.4746Z" fill="white"/>
</g>
<defs>
<linearGradient id="paint0_linear_1_2" x1="22" y1="-3.29812e-07" x2="22" y2="45" gradientUnits="userSpaceOnUse">
<stop stop-color="#353535"/>
<stop offset="0.122222" stop-color="#323232"/>
<stop offset="1" stop-color="#1B1B1B"/>
</linearGradient>
<clipPath id="clip0_1_2">
<rect width="45" height="45" fill="white"/>
</clipPath>
</defs>
</svg>
