<?xml version="1.0" encoding="UTF-8"?><svg id="Layer_1" xmlns="http://www.w3.org/2000/svg" viewBox="0 0 60 60"><defs><style>.cls-1{fill:#f48120;stroke-width:0px;}.cls-2{fill:#fff;stroke:#fff;stroke-miterlimit:10;stroke-width:2px;}</style></defs><circle class="cls-1" cx="30" cy="30" r="30"/><path class="cls-2" d="M29.73,51.25c-.86,0-1.72-.05-2.57-.16-1.04-.13-1.84-.98-1.91-2.02l-.18-2.82c-1.16-.34-2.28-.8-3.35-1.39l-2.12,1.87c-.78.69-1.95.73-2.78.08-.67-.52-1.32-1.1-1.93-1.7s-1.18-1.26-1.7-1.93c-.64-.83-.61-2,.08-2.78l1.87-2.12c-.59-1.07-1.05-2.19-1.39-3.35l-2.82-.18c-1.04-.07-1.89-.87-2.02-1.91-.1-.84-.16-1.71-.16-2.57s.05-1.72.16-2.57c.13-1.04.98-1.84,2.02-1.91l2.82-.18c.34-1.16.8-2.28,1.39-3.35l-1.87-2.12c-.69-.78-.73-1.95-.08-2.78.52-.67,1.1-1.32,1.7-1.93.61-.61,1.26-1.18,1.93-1.7.83-.64,1.99-.61,2.78.08l2.12,1.87c1.07-.59,2.19-1.05,3.35-1.39l.18-2.82c.07-1.04.87-1.89,1.91-2.02,1.69-.21,3.45-.21,5.13,0,1.04.13,1.84.98,1.91,2.02l.18,2.82c1.16.34,2.28.8,3.35,1.39l2.12-1.87c.78-.69,1.95-.72,2.78-.08.67.52,1.32,1.09,1.93,1.7.61.61,1.18,1.26,1.7,1.93.64.83.61,2-.08,2.78l-1.87,2.12c.59,1.07,1.05,2.19,1.39,3.35l2.82.18c1.04.07,1.89.87,2.02,1.91.1.84.16,1.71.16,2.57s-.05,1.72-.16,2.57c-.13,1.04-.98,1.84-2.02,1.91l-2.82.18c-.34,1.16-.8,2.28-1.39,3.35l1.87,2.12c.69.78.73,1.95.08,2.78-.52.67-1.1,1.32-1.7,1.93s-1.26,1.18-1.93,1.7c-.83.64-2,.61-2.78-.08l-2.12-1.87c-1.07.59-2.19,1.05-3.35,1.39l-.18,2.82c-.07,1.04-.87,1.89-1.91,2.02-.84.1-1.71.16-2.57.16ZM21.64,43.25c.13,0,.25.03.37.1,1.24.73,2.56,1.28,3.94,1.64.3.08.52.34.54.66l.21,3.33c.02.35.29.63.64.68,1.57.19,3.21.19,4.78,0,.35-.04.62-.33.64-.68l.21-3.33c.02-.31.24-.58.54-.66,1.38-.35,2.7-.9,3.94-1.64.27-.16.61-.13.85.08l2.51,2.21c.26.23.66.24.93.03.62-.49,1.23-1.02,1.79-1.59s1.1-1.17,1.59-1.79c.22-.28.21-.67-.03-.93l-2.21-2.51c-.21-.24-.24-.58-.08-.85.73-1.24,1.28-2.56,1.64-3.94.08-.3.34-.52.66-.54l3.33-.21c.35-.02.63-.29.68-.64.1-.78.15-1.59.15-2.39s-.05-1.6-.15-2.39h0c-.04-.35-.33-.62-.68-.64l-3.33-.21c-.31-.02-.58-.24-.66-.54-.35-1.38-.9-2.7-1.64-3.94-.16-.27-.13-.61.08-.85l2.21-2.51c.23-.26.24-.66.03-.93-.49-.62-1.02-1.23-1.59-1.79-.57-.57-1.17-1.1-1.79-1.59-.28-.22-.67-.21-.93.03l-2.51,2.21c-.24.21-.58.24-.85.08-1.24-.73-2.56-1.28-3.94-1.64-.3-.08-.52-.34-.54-.66l-.21-3.33c-.02-.35-.29-.63-.64-.68-1.57-.19-3.21-.19-4.78,0-.35.04-.62.33-.64.68l-.21,3.33c-.02.31-.24.58-.54.66-1.38.35-2.7.9-3.94,1.64-.27.16-.61.13-.85-.08l-2.51-2.21c-.26-.23-.65-.24-.93-.03-.62.49-1.23,1.02-1.79,1.59-.57.57-1.1,1.17-1.59,1.79-.22.28-.21.67.03.93l2.21,2.51c.21.24.24.58.08.85-.73,1.24-1.28,2.56-1.64,3.94-.08.3-.34.52-.66.54l-3.33.21c-.35.02-.63.29-.68.64-.1.78-.15,1.59-.15,2.39s.05,1.6.15,2.39c.04.35.33.62.68.64l3.33.21c.31.02.58.24.66.54.35,1.38.9,2.7,1.64,3.94.16.27.13.61-.08.85l-2.21,2.51c-.23.26-.24.66-.03.93.49.62,1.02,1.23,1.59,1.79s1.17,1.1,1.79,1.59c.28.22.67.21.93-.03l2.51-2.21c.14-.12.31-.18.48-.18h0ZM29.73,42.47c-5.12,0-9.28-4.17-9.28-9.29,0-4.02,1.12-5.52,4.43-9.97.88-1.18,1.88-2.53,3.09-4.21.41-.57,1.07-.91,1.76-.91s1.36.34,1.76.91h0c1.2,1.68,2.2,3.02,3.09,4.21,3.32,4.45,4.43,5.95,4.43,9.97,0,5.11-4.16,9.28-9.28,9.29h0ZM29.73,19.55c-.24,0-.45.11-.59.3-1.21,1.69-2.21,3.04-3.1,4.23-3.27,4.38-4.15,5.56-4.15,9.1,0,4.32,3.52,7.84,7.84,7.84,4.32,0,7.83-3.53,7.83-7.84,0-3.54-.88-4.72-4.15-9.1-.89-1.19-1.89-2.54-3.1-4.23h0c-.14-.19-.35-.3-.59-.3h0ZM28.9,38.12c.12-.38-.08-.79-.46-.91-1.75-.57-2.93-2.19-2.93-4.02,0-.4-.32-.72-.72-.72s-.72.32-.72.72c0,2.46,1.58,4.63,3.92,5.4.07.02.15.04.22.04.3,0,.59-.19.69-.5h0Z"/></svg>