<svg xmlns="http://www.w3.org/2000/svg" width="60" height="60" viewBox="0 0 60 60">
  <g id="Group_531" data-name="Group 531" transform="translate(-678 -5700)">
    <circle id="Ellipse_14" data-name="Ellipse 14" cx="30" cy="30" r="30" transform="translate(678 5700)" fill="#fff2e8"/>
    <g id="responsive-marketing-svgrepo-com" transform="translate(690.586 5717.721)">
      <path id="Path_9143" data-name="Path 9143" d="M196.35,252.217a1.42,1.42,0,1,0,1.42,1.42A1.422,1.422,0,0,0,196.35,252.217Zm0,2.278a.858.858,0,1,1,.858-.858A.859.859,0,0,1,196.35,254.5Z" transform="translate(-180.866 -239.53)" fill="#f48120"/>
      <path id="Path_9144" data-name="Path 9144" d="M31.874,13.078H29.719V1.99A1.992,1.992,0,0,0,27.729,0H3.24A1.992,1.992,0,0,0,1.25,1.99V19.581a1.992,1.992,0,0,0,1.99,1.99h8.569l-1.022,3.943h-.081a1.542,1.542,0,0,0-1.541,1.541V28.2a.281.281,0,0,0,.281.281H21.523A.281.281,0,0,0,21.8,28.2V27.054a1.543,1.543,0,0,0-1.541-1.541h-.081L19.16,21.57H22.34V30.79a1.707,1.707,0,0,0,1.7,1.7h7.83a1.707,1.707,0,0,0,1.7-1.7V14.782A1.707,1.707,0,0,0,31.874,13.078ZM22.9,15.064H33.017V28.391H22.9ZM32.98,14.5H22.938a1.144,1.144,0,0,1,1.106-.861h7.83A1.144,1.144,0,0,1,32.98,14.5Zm-8.936-1.424a1.707,1.707,0,0,0-1.7,1.7v.683H1.812V2.194H29.156V13.078ZM3.24.562H27.729a1.429,1.429,0,0,1,1.38,1.069H1.86A1.429,1.429,0,0,1,3.24.562Zm18,26.491v.864H9.727v-.864a.979.979,0,0,1,.978-.978h9.558A.98.98,0,0,1,21.241,27.054ZM19.6,25.513H11.367l1.022-3.943h6.19ZM3.24,21.008a1.429,1.429,0,0,1-1.427-1.427V17.84H6.154a.281.281,0,0,0,0-.562H1.812v-1.25H22.34v4.98H3.24ZM31.874,31.932h-7.83A1.144,1.144,0,0,1,22.9,30.79v-.566h2.649a.281.281,0,0,0,0-.562H22.9v-.708H33.017V30.79A1.144,1.144,0,0,1,31.874,31.932Z" transform="translate(0 -4)" fill="#f48120"/>
      <path id="Path_9145" data-name="Path 9145" d="M390.4,443.6a1.031,1.031,0,1,0,1.032,1.031A1.033,1.033,0,0,0,390.4,443.6Zm0,1.5a.469.469,0,1,1,.469-.469A.47.47,0,0,1,390.4,445.1Z" transform="translate(-362.438 -418.254)" fill="#f48120"/>
      <path id="Path_9146" data-name="Path 9146" d="M416.442,250.47h-2.76a.281.281,0,0,0-.281.281V253.3a.281.281,0,0,0,.281.281h2.76a.281.281,0,0,0,.281-.281v-2.545A.281.281,0,0,0,416.442,250.47Zm-.281,2.545h-2.2v-1.982h2.2Z" transform="translate(-384.883 -237.899)" fill="#f48120"/>
      <path id="Path_9147" data-name="Path 9147" d="M349.509,253.577h2.762a.281.281,0,0,0,.281-.281v-2.545a.281.281,0,0,0-.281-.281h-2.762a.281.281,0,0,0-.281.281V253.3A.281.281,0,0,0,349.509,253.577Zm.281-2.545h2.2v1.982h-2.2Z" transform="translate(-324.956 -237.899)" fill="#f48120"/>
      <path id="Path_9148" data-name="Path 9148" d="M356.515,310.4h-7.006a.281.281,0,0,0-.281.281v2.236a.281.281,0,0,0,.281.281h7.006a.281.281,0,0,0,.281-.281v-2.236A.281.281,0,0,0,356.515,310.4Zm-.281,2.236H349.79v-1.673h6.444Z" transform="translate(-324.956 -293.861)" fill="#f48120"/>
      <path id="Path_9149" data-name="Path 9149" d="M356.515,365.99h-7.006a.281.281,0,0,0,0,.562h7.006a.281.281,0,1,0,0-.562Z" transform="translate(-324.956 -345.776)" fill="#f48120"/>
      <path id="Path_9150" data-name="Path 9150" d="M356.515,384.387h-7.006a.281.281,0,1,0,0,.562h7.006a.281.281,0,1,0,0-.562Z" transform="translate(-324.956 -362.956)" fill="#f48120"/>
      <path id="Path_9151" data-name="Path 9151" d="M172.288,48.02H157.137a.281.281,0,0,0-.281.281v3.043a.281.281,0,0,0,.281.281h15.151a.281.281,0,0,0,.281-.281V48.3A.281.281,0,0,0,172.288,48.02Zm-.281,3.043H157.418V48.582h14.588Z" transform="translate(-145.311 -48.843)" fill="#f48120"/>
      <path id="Path_9152" data-name="Path 9152" d="M39.137,51.626h5.69a.281.281,0,0,0,.281-.281V48.3a.281.281,0,0,0-.281-.281h-5.69a.281.281,0,0,0-.281.281v3.043A.281.281,0,0,0,39.137,51.626Zm.281-3.043h5.127v2.481H39.418Z" transform="translate(-35.118 -48.843)" fill="#f48120"/>
      <path id="Path_9153" data-name="Path 9153" d="M62.095,119.687H39.137a.281.281,0,0,0-.281.281V121.3a.281.281,0,0,0,.281.281H62.095a.281.281,0,0,0,.281-.281v-1.328A.281.281,0,0,0,62.095,119.687Zm-.281,1.328h-22.4v-.765h22.4Z" transform="translate(-35.118 -115.768)" fill="#f48120"/>
      <path id="Path_9154" data-name="Path 9154" d="M44.562,165.828H39.137a.281.281,0,0,0,0,.562h5.425a.281.281,0,0,0,0-.562Z" transform="translate(-35.118 -158.857)" fill="#f48120"/>
      <path id="Path_9155" data-name="Path 9155" d="M44.562,187.828H39.137a.281.281,0,0,0,0,.562h5.425a.281.281,0,0,0,0-.562Z" transform="translate(-35.118 -179.401)" fill="#f48120"/>
      <path id="Path_9156" data-name="Path 9156" d="M173.216,165.828H158.2a.281.281,0,0,0,0,.562h15.015a.281.281,0,0,0,0-.562Z" transform="translate(-146.305 -158.857)" fill="#f48120"/>
      <path id="Path_9157" data-name="Path 9157" d="M164.019,187.828H158.2a.281.281,0,0,0,0,.562h5.818a.281.281,0,1,0,0-.562Z" transform="translate(-146.305 -179.401)" fill="#f48120"/>
    </g>
  </g>
</svg>
