<svg xmlns="http://www.w3.org/2000/svg" xmlns:xlink="http://www.w3.org/1999/xlink" width="45" height="45" viewBox="0 0 45 45">
  <defs>
    <linearGradient id="linear-gradient" x1="0.5" x2="0.156" y2="0.791" gradientUnits="objectBoundingBox">
      <stop offset="0" stop-color="#3e3e3e"/>
      <stop offset="1" stop-color="#1a1a1a"/>
    </linearGradient>
  </defs>
  <g id="restaurant_management" transform="translate(-370 -587)">
    <circle id="Ellipse_1" data-name="Ellipse 1" cx="22.5" cy="22.5" r="22.5" transform="translate(370 587)" fill="url(#linear-gradient)"/>
    <g id="management" transform="translate(371.1 588)">
      <g id="Group_8371" data-name="Group 8371" transform="translate(9.9 10)">
        <path id="Path_9267" data-name="Path 9267" d="M32.228,23.979H30.474a8.765,8.765,0,0,1-.321.974l-.058.146-.058.136.019-.049a9.882,9.882,0,0,1-.477.964l1.237,1.237a.676.676,0,0,1,0,.955l-2.562,2.562a.7.7,0,0,1-.955,0l-1.237-1.237a10.031,10.031,0,0,1-.916.458l-.244.107c-.351.136-.682.244-1.013.341v1.753a.674.674,0,0,1-.672.672H19.593a.674.674,0,0,1-.672-.672V30.574a8.765,8.765,0,0,1-.974-.321l-.078-.029-.214-.088a8.918,8.918,0,0,1-.916-.458L15.5,30.915a.7.7,0,0,1-.955,0l-2.562-2.562a.676.676,0,0,1,0-.955l1.237-1.237a10.031,10.031,0,0,1-.458-.916l-.1-.244a9.678,9.678,0,0,1-.341-1.023H10.572a.674.674,0,0,1-.672-.672V19.683a.674.674,0,0,1,.672-.672h1.753a8.765,8.765,0,0,1,.321-.974l.088-.214c.156-.36.321-.682.487-.984L11.994,15.6a.682.682,0,0,1,0-.955l2.562-2.562a.7.7,0,0,1,.955,0l1.237,1.237a8.918,8.918,0,0,1,.916-.458l.283-.117a8.765,8.765,0,0,1,.974-.321V10.672A.674.674,0,0,1,19.593,10h3.624a.674.674,0,0,1,.672.672v1.744a8.765,8.765,0,0,1,.974.321l.234.1c.351.156.672.312.974.477l1.237-1.237a.7.7,0,0,1,.955,0l2.562,2.562a.662.662,0,0,1,.195.477.679.679,0,0,1-.195.477l-1.237,1.237a10.031,10.031,0,0,1,.458.916l.1.244A9.538,9.538,0,0,1,30.484,19h1.753a.674.674,0,0,1,.672.672V23.3a.69.69,0,0,1-.682.682Zm-7.813-9.956a8.477,8.477,0,0,0-1.14-.36l-.283-.068v-2.1H19.827v2.1l-.283.068A8.337,8.337,0,0,0,18.453,14l-.058.019-.068.029h0l-.088.039a7.5,7.5,0,0,0-1.042.546l-.253.156-1.49-1.49-2.241,2.241,1.49,1.49-.156.244a8.331,8.331,0,0,0-.526,1.013l-.049.127h0l-.029.078a8.478,8.478,0,0,0-.36,1.14l-.068.283H11.4v3.166h2.1l.068.283a8.337,8.337,0,0,0,.341,1.091h0l.049.127.039.088a7.1,7.1,0,0,0,.546,1.052l.156.253-1.49,1.49,2.241,2.241,1.49-1.49.253.156a7.673,7.673,0,0,0,1.013.526h0l.078.029h0l.1.039a8.3,8.3,0,0,0,1.159.37l.283.068v2.1h3.166v-2.1l.283-.068A8.337,8.337,0,0,0,24.366,29l.127-.049.117-.049-.039.019a7.721,7.721,0,0,0,1.062-.555l.253-.156,1.49,1.49,2.241-2.241-1.49-1.49.156-.253a7.672,7.672,0,0,0,.526-1.013l.049-.127h0l.039-.088a8.252,8.252,0,0,0,.36-1.12l.068-.283h2.1V19.917h-2.1l-.068-.283a8.337,8.337,0,0,0-.341-1.091l-.088-.2a7.1,7.1,0,0,0-.546-1.052l-.156-.244,1.49-1.49-2.241-2.241-1.49,1.481-.253-.156a7.672,7.672,0,0,0-1.013-.526l-.117-.049M21.4,26.3a4.812,4.812,0,1,1,4.812-4.812A4.816,4.816,0,0,1,21.4,26.3Zm0-8.2a3.4,3.4,0,1,0,3.4,3.4,3.4,3.4,0,0,0-3.4-3.4Z" transform="translate(-9.9 -10)" fill="#fff"/>
      </g>
    </g>
  </g>
</svg>
