<svg xmlns="http://www.w3.org/2000/svg" width="60" height="60" viewBox="0 0 60 60">
  <g id="restaurant_panel" transform="translate(-1552 -2069)">
    <circle id="Ellipse_14" data-name="Ellipse 14" cx="30" cy="30" r="30" transform="translate(1552 2069)" fill="#fff2e8"/>
    <g id="restaurant" transform="translate(1552 2068.9)">
      <g id="Group_8385" data-name="Group 8385" transform="translate(10 10.1)">
        <g id="Group_8384" data-name="Group 8384" transform="translate(0 0)">
          <path id="Path_9285" data-name="Path 9285" d="M27.591,12.865l-2.747,2.747-.57-.276a4.789,4.789,0,0,0-1.123-.38,4.019,4.019,0,0,0-4.32,2.989,9.345,9.345,0,0,0,0,3.024l.138.518-4.475,4.475L10,30.456l4.994,5.011,4.994,4.994.017,4.061.017,4.061.225.415a2.644,2.644,0,0,0,1.21,1.244,1.765,1.765,0,0,0,1.123.276,1.793,1.793,0,0,0,1.123-.276A2.642,2.642,0,0,0,24.912,49c.207-.4.225-.484.259-1.866l.035-1.451L27.8,48.271l2.592,2.592,2.592-2.592,2.592-2.592.035,1.451c.017,1.4.035,1.469.259,1.866a2.567,2.567,0,0,0,1.21,1.244,1.912,1.912,0,0,0,1.123.276,1.821,1.821,0,0,0,1.123-.276A2.642,2.642,0,0,0,40.533,49l.225-.415.017-4.061.017-4.061,4.994-4.994L50.8,30.456,46.3,25.963l-4.475-4.475.138-.518A14.149,14.149,0,0,0,42.106,18V15.543H40.793v3.905H38.857V15.543H37.509v3.905H35.574v-4.2L33,12.675C31.582,11.258,30.407,10.1,30.39,10.1S29.111,11.344,27.591,12.865Zm4.769,1.02L34.3,15.82v3.318l-1.953-1.953L30.39,15.249,28.438,17.2l-1.953,1.953v-.4A4.033,4.033,0,0,0,26,16.977l-.225-.4,2.281-2.3C29.319,13.02,30.356,12,30.39,12,30.407,11.966,31.306,12.83,32.36,13.884ZM23.5,16.321a1.926,1.926,0,0,1,.864.57c.657.657.778.985.812,2.315a3.824,3.824,0,0,1-.415,2.333,2.607,2.607,0,0,1-2.419,1.106A2.35,2.35,0,0,1,20.3,21.194l-.294-.57V19.466a3.372,3.372,0,0,1,.449-2.229A2.713,2.713,0,0,1,23.5,16.321Zm8.934,2.834c1.763,1.78,2.022,2.074,2.264,2.575a4.171,4.171,0,0,0,1.832,1.832,4.711,4.711,0,0,1,.795.484l.225.207V35h-1.97v3.594l-2.592,2.592L30.39,43.778,27.8,41.186l-2.592-2.592V34.983H23.271V24.235l.225-.207a3.862,3.862,0,0,1,.778-.484A4.171,4.171,0,0,0,26.1,21.712c.242-.5.5-.795,2.264-2.575,1.089-1.106,2-2,2.039-2S31.323,18.049,32.429,19.155Zm8.26,1.607a3.1,3.1,0,0,1-.207.449,2.481,2.481,0,0,1-1.123,1.175,2.706,2.706,0,0,1-3.024-.467,2.425,2.425,0,0,1-.553-.812l-.138-.38h2.506C39.566,20.727,40.689,20.744,40.689,20.762ZM20.126,23.025a5.443,5.443,0,0,0,1.382.795l.242.086L18.467,27.19l-3.283,3.283L17.6,32.892l2.4,2.4v3.318l-4.078-4.078-4.078-4.078,3.888-3.888c2.16-2.143,3.923-3.905,3.94-3.905C19.677,22.662,19.884,22.818,20.126,23.025Zm24.9,3.542,3.888,3.888-4.078,4.078-4.061,4.061V35.277l2.4-2.4L45.6,30.456l-3.283-3.283c-2.713-2.713-3.249-3.283-3.128-3.318a5.823,5.823,0,0,0,1.5-.847c.207-.173.38-.311.4-.328C41.121,22.662,42.883,24.425,45.026,26.568ZM21.958,30.283v4.7h-.19a16.112,16.112,0,0,1-2.454-2.264L17.05,30.456l2.436-2.436c1.331-1.331,2.436-2.436,2.454-2.436S21.958,27.708,21.958,30.283Zm19.492,2.436A15.162,15.162,0,0,1,39,34.983h-.19V25.548L41.259,28l2.454,2.454ZM23.91,36.936v.657H21.318V36.279H23.91Zm15.552,0v.657H36.87V36.279h2.592ZM23.91,43.606c0,5.218.017,5.063-.518,5.443a1.794,1.794,0,0,1-1.572,0c-.518-.38-.518-.242-.518-5.443V38.888H23.91Zm15.552,0c0,5.218.017,5.063-.518,5.443a1.794,1.794,0,0,1-1.572,0c-.518-.38-.518-.242-.518-5.443V38.888h2.592v4.717Zm-6.48-.553,2.592-2.592v3.318L32.982,46.37,30.39,48.962,27.8,46.37l-2.592-2.592V40.461L27.8,43.053l2.592,2.592Z" transform="translate(-10 -10.1)" fill="#f48120"/>
        </g>
      </g>
    </g>
  </g>
</svg>
