<svg width="80" height="80" viewBox="0 0 80 80" fill="none" xmlns="http://www.w3.org/2000/svg">
<g clip-path="url(#clip0_1_109)">
<mask id="mask0_1_109" style="mask-type:luminance" maskUnits="userSpaceOnUse" x="0" y="0" width="80" height="80">
<path d="M80 0H0V80H80V0Z" fill="white"/>
</mask>
<g mask="url(#mask0_1_109)">
<path d="M40 80C62.0914 80 80 62.0914 80 40C80 17.9086 62.0914 0 40 0C17.9086 0 0 17.9086 0 40C0 62.0914 17.9086 80 40 80Z" fill="#FFF2E8"/>
<path d="M34.625 35.4828C34.6254 36.1132 34.7577 36.7363 35.0129 37.31C34.1778 37.4318 33.4134 37.8579 32.86 38.5103C32.3066 39.1628 32.0013 39.9977 32 40.8621V46.2414C32 46.4079 32.0453 46.5711 32.1307 46.7127C32.2161 46.8544 32.3383 46.9689 32.4836 47.0434L33.75 47.6921V56.1034C33.7499 56.2212 33.7725 56.3378 33.8165 56.4466C33.8604 56.5554 33.9249 56.6543 34.0061 56.7376C34.0874 56.8208 34.1839 56.8869 34.2901 56.9319C34.3963 56.9769 34.5101 57.0001 34.625 57H43.375C43.4899 57.0001 43.6037 56.9769 43.7099 56.9319C43.8161 56.8869 43.9126 56.8208 43.9939 56.7376C44.0751 56.6543 44.1396 56.5554 44.1835 56.4466C44.2275 56.3378 44.2501 56.2212 44.25 56.1034V47.6921L45.5164 47.0434C45.6617 46.9689 45.7839 46.8544 45.8693 46.7127C45.9547 46.5711 46 46.4079 46 46.2414V40.8621C45.9987 39.9977 45.6934 39.1628 45.14 38.5103C44.5866 37.8579 43.8222 37.4318 42.9871 37.31C43.2423 36.7363 43.3746 36.1132 43.375 35.4828C43.375 34.2939 42.9141 33.1536 42.0936 32.313C41.2731 31.4723 40.1603 31 39 31C37.8397 31 36.7269 31.4723 35.9064 32.313C35.0859 33.1536 34.625 34.2939 34.625 35.4828ZM41.625 35.4828C41.6248 35.8659 41.5434 36.2444 41.3866 36.5922C41.2298 36.94 41.0012 37.2488 40.7167 37.4974C40.5825 37.6174 40.4873 37.7766 40.4438 37.9535C40.4003 38.1305 40.4106 38.3168 40.4732 38.4877C40.5358 38.6585 40.6478 38.8057 40.7942 38.9096C40.9406 39.0134 41.1145 39.069 41.2926 39.069H42.5C42.9639 39.0696 43.4087 39.2587 43.7368 39.5948C44.0648 39.931 44.2494 40.3867 44.25 40.8621V45.6872L42.9836 46.3359C42.8383 46.4104 42.7161 46.5249 42.6307 46.6666C42.5453 46.8082 42.5 46.9714 42.5 47.1379V55.2069H35.5V47.1379C35.5 46.9714 35.4547 46.8082 35.3693 46.6666C35.2839 46.5249 35.1617 46.4104 35.0164 46.3359L33.75 45.6872V40.8621C33.7506 40.3867 33.9352 39.931 34.2632 39.5948C34.5913 39.2587 35.0361 39.0696 35.5 39.069H36.7074C36.8855 39.069 37.0594 39.0134 37.2058 38.9096C37.3522 38.8057 37.4642 38.6585 37.5268 38.4877C37.5895 38.3168 37.5997 38.1305 37.5562 37.9535C37.5127 37.7766 37.4175 37.6174 37.2833 37.4974C36.9988 37.2488 36.7702 36.94 36.6134 36.5922C36.4566 36.2444 36.3752 35.8659 36.375 35.4828C36.375 34.7694 36.6516 34.0853 37.1438 33.5809C37.6361 33.0765 38.3038 32.7931 39 32.7931C39.6962 32.7931 40.3639 33.0765 40.8562 33.5809C41.3484 34.0853 41.625 34.7694 41.625 35.4828Z" fill="#F48120"/>
<path d="M37.7307 40L37 41.5182L38.1827 42.1315V45H39.8173V42.1315L41 41.5182L40.2693 40L39 40.659L37.7307 40Z" fill="#F48120"/>
<path d="M57.3541 28.9999L57.1597 28.9416C51.4218 27.2241 46.0693 24.4135 41.3962 20.6641L39.5655 19.1977C39.4047 19.0697 39.2054 19 39 19C38.7946 19 38.5953 19.0697 38.4345 19.1977L36.6038 20.6641C31.9309 24.4133 26.5787 27.2239 20.8412 28.9416L20.6459 28.9999C20.4592 29.0556 20.2955 29.1701 20.1791 29.3264C20.0627 29.4828 19.9999 29.6726 20 29.8676V57.0598C19.9975 57.7695 20.2088 58.4635 20.6063 59.0512C21.0038 59.6389 21.5691 60.0931 22.2283 60.3543L38.6642 66.9354C38.8798 67.0215 39.1202 67.0215 39.3357 66.9354L55.7716 60.3543C56.4309 60.0931 56.9962 59.639 57.3937 59.0512C57.7912 58.4635 58.0025 57.7695 58 57.0598V29.8676C58.0001 29.6726 57.9373 29.4828 57.8209 29.3264C57.7045 29.1701 57.5408 29.0556 57.3541 28.9999ZM56.1905 57.0598C56.1918 57.4071 56.0885 57.7468 55.894 58.0344C55.6995 58.3221 55.4228 58.5443 55.1001 58.6721L39 65.1188L22.8999 58.6721C22.5772 58.5443 22.3005 58.3221 22.106 58.0344C21.9115 57.7468 21.8082 57.4071 21.8095 57.0598V30.5398C27.6011 28.7443 33.0034 25.8742 37.7347 22.0792L39 21.0647L40.2653 22.0792C44.9965 25.8741 50.3989 28.744 56.1905 30.5389V57.0598Z" fill="#F48120"/>
<path d="M38.4261 24.2129L37.5601 24.9591C34.142 27.9078 30.1843 30.1588 25.9086 31.586L24.6032 32.0232C24.4275 32.0819 24.2747 32.1946 24.1664 32.3455C24.0581 32.4964 23.9999 32.6777 24 32.8636V53.8663C24 54.6459 24.2263 55.4087 24.6511 56.0611C25.0759 56.7136 25.6809 57.2275 26.392 57.5399L38.6467 62.9256C38.7581 62.9746 38.8784 63 39 63C39.1216 63 39.2419 62.9746 39.3533 62.9256L51.6088 57.5399C52.3197 57.2273 52.9245 56.7133 53.3491 56.0609C53.7738 55.4085 54 54.6458 54 53.8663V32.8636C54.0001 32.6777 53.9419 32.4964 53.8336 32.3455C53.7253 32.1946 53.5725 32.0819 53.3968 32.0232L52.0914 31.586C47.8155 30.1589 43.8577 27.9076 40.4399 24.9582L39.5739 24.2129C39.414 24.0755 39.2104 24 39 24C38.7896 24 38.586 24.0755 38.4261 24.2129ZM51.533 33.267L52.2353 33.5024V53.8663C52.2351 54.3012 52.1089 54.7266 51.872 55.0906C51.6352 55.4546 51.2979 55.7414 50.9014 55.916L39 61.1459L27.0994 55.916C26.7028 55.7416 26.3653 55.4548 26.1282 55.0908C25.8912 54.7268 25.7649 54.3013 25.7647 53.8663V33.5024L26.467 33.267C30.9591 31.7679 35.117 29.4031 38.7079 26.3051L39 26.0532L39.2921 26.3042C42.8828 29.4028 47.0407 31.7679 51.533 33.267Z" fill="#F48120"/>
<path d="M57 13C55.6487 13.0014 54.3149 13.2982 53.0976 13.8686C51.8803 14.439 50.8105 15.2683 49.9676 16.295C49.1246 17.3218 48.5301 18.5198 48.228 19.8002C47.9259 21.0806 47.924 22.4107 48.2224 23.692L49.9784 23.3058C49.6701 21.9896 49.7599 20.6148 50.2369 19.3471C50.7139 18.0794 51.5578 16.9728 52.6669 16.1606C53.776 15.3485 55.1031 14.8653 56.4882 14.7695C57.8732 14.6737 59.2573 14.9692 60.4735 15.6205C61.6898 16.2718 62.6864 17.251 63.3433 18.4403C64.0002 19.6296 64.2894 20.9781 64.1759 22.3235C64.0625 23.6688 63.5514 24.9536 62.7041 26.023C61.8567 27.0925 60.7094 27.9009 59.4003 28.351L59.9997 30C62.0014 29.3119 63.6885 27.958 64.7628 26.1777C65.837 24.3974 66.2294 22.3052 65.8704 20.271C65.5115 18.2367 64.4243 16.3912 62.8011 15.0607C61.178 13.7302 59.1232 13.0003 57 13Z" fill="#F48120"/>
<path d="M58 17H56V24H58V17Z" fill="#F48120"/>
<path d="M58 26H56V27H58V26Z" fill="#F48120"/>
<path d="M21.9323 15.7185L27.4423 25.1535L29 24.2465L22.6918 13.4465C22.6073 13.313 22.4912 13.2023 22.3536 13.1245C22.216 13.0466 22.0614 13.0038 21.9033 13C21.7442 13.0017 21.5884 13.0455 21.4518 13.1269C21.3151 13.2082 21.2025 13.3243 21.1253 13.4632L12.1136 29.6632C12.0373 29.8001 11.9982 29.9546 12.0001 30.1114C12.002 30.2681 12.0448 30.4216 12.1244 30.5566C12.204 30.6917 12.3176 30.8037 12.4538 30.8815C12.5901 30.9592 12.7443 31.0001 12.9012 31H18.3083V29.2H14.4325L21.9323 15.7185Z" fill="#F48120"/>
<path d="M23 19H21V25H23V19Z" fill="#F48120"/>
<path d="M23 27H21V28H23V27Z" fill="#F48120"/>
<path d="M66 65H64V67H66V65Z" fill="#F48120"/>
<path d="M66 62H64V63H66V62Z" fill="#F48120"/>
<path d="M62 65H61V67H62V65Z" fill="#F48120"/>
<path d="M14 65H12V67H14V65Z" fill="#F48120"/>
<path d="M14 62H12V63H14V62Z" fill="#F48120"/>
<path d="M17 65H16V67H17V65Z" fill="#F48120"/>
</g>
</g>
<defs>
<clipPath id="clip0_1_109">
<rect width="80" height="80" fill="white"/>
</clipPath>
</defs>
</svg>
