<svg width="149" height="149" viewBox="0 0 149 149" fill="none" xmlns="http://www.w3.org/2000/svg">
<path d="M74.39 148.78C115.474 148.78 148.78 115.474 148.78 74.39C148.78 33.3055 115.474 0 74.39 0C33.3055 0 0 33.3055 0 74.39C0 115.474 33.3055 148.78 74.39 148.78Z" fill="url(#paint0_linear_36_942)"/>
<path d="M117.594 43.0625H113.726C113.617 42.7844 113.5 42.5096 113.376 42.2379L115.776 39.8381C115.906 39.7076 116.01 39.5525 116.081 39.3819C116.151 39.2113 116.188 39.0284 116.188 38.8438C116.188 38.6591 116.151 38.4762 116.081 38.3056C116.01 38.135 115.906 37.9799 115.776 37.8494L110.151 32.2244C110.02 32.0938 109.865 31.9902 109.694 31.9195C109.524 31.8488 109.341 31.8124 109.156 31.8124C108.972 31.8124 108.789 31.8488 108.618 31.9195C108.447 31.9902 108.292 32.0938 108.162 32.2244L105.762 34.625C105.491 34.5005 105.216 34.384 104.938 34.2754V30.4062C104.938 30.0333 104.789 29.6756 104.526 29.4119C104.262 29.1482 103.904 29 103.531 29H95.0938C94.7208 29 94.3631 29.1482 94.0994 29.4119C93.8357 29.6756 93.6875 30.0333 93.6875 30.4062V34.2745C93.4094 34.3829 93.1345 34.4994 92.8629 34.6241L90.4631 32.2244C90.3326 32.0938 90.1775 31.9902 90.0069 31.9195C89.8363 31.8488 89.6534 31.8124 89.4688 31.8124C89.2841 31.8124 89.1012 31.8488 88.9306 31.9195C88.76 31.9902 88.6049 32.0938 88.4744 32.2244L82.8494 37.8494C82.7188 37.9799 82.6152 38.135 82.5445 38.3056C82.4738 38.4762 82.4374 38.6591 82.4374 38.8438C82.4374 39.0284 82.4738 39.2113 82.5445 39.3819C82.6152 39.5525 82.7188 39.7076 82.8494 39.8381L85.25 42.2379C85.1255 42.5093 85.009 42.7842 84.9004 43.0625H81.0312C80.6583 43.0625 80.3006 43.2107 80.0369 43.4744C79.7732 43.7381 79.625 44.0958 79.625 44.4688V52.9062C79.625 53.2792 79.7732 53.6369 80.0369 53.9006C80.3006 54.1643 80.6583 54.3125 81.0312 54.3125H84.8995C85.008 54.5906 85.1245 54.8654 85.2491 55.1371L82.8494 57.5369C82.7188 57.6674 82.6152 57.8225 82.5445 57.9931C82.4738 58.1637 82.4374 58.3466 82.4374 58.5312C82.4374 58.7159 82.4738 58.8988 82.5445 59.0694C82.6152 59.24 82.7188 59.3951 82.8494 59.5256L88.4744 65.1506C88.6049 65.2812 88.76 65.3848 88.9306 65.4555C89.1012 65.5262 89.2841 65.5626 89.4688 65.5626C89.6534 65.5626 89.8363 65.5262 90.0069 65.4555C90.1775 65.3848 90.3326 65.2812 90.4631 65.1506L92.8629 62.7509C93.1343 62.8753 93.4092 62.9919 93.6875 63.1005V66.9688C93.6875 67.3417 93.8357 67.6994 94.0994 67.9631C94.3631 68.2268 94.7208 68.375 95.0938 68.375H103.531C103.904 68.375 104.262 68.2268 104.526 67.9631C104.789 67.6994 104.938 67.3417 104.938 66.9688V63.1005C105.216 62.9921 105.49 62.8756 105.762 62.7509L108.162 65.1506C108.292 65.2812 108.447 65.3848 108.618 65.4555C108.789 65.5262 108.972 65.5626 109.156 65.5626C109.341 65.5626 109.524 65.5262 109.694 65.4555C109.865 65.3848 110.02 65.2812 110.151 65.1506L115.776 59.5256C115.906 59.3951 116.01 59.24 116.081 59.0694C116.151 58.8988 116.188 58.7159 116.188 58.5312C116.188 58.3466 116.151 58.1637 116.081 57.9931C116.01 57.8225 115.906 57.6674 115.776 57.5369L113.376 55.1371C113.5 54.8657 113.617 54.5908 113.726 54.3125H117.594C117.967 54.3125 118.324 54.1643 118.588 53.9006C118.852 53.6369 119 53.2792 119 52.9062V44.4688C119 44.0958 118.852 43.7381 118.588 43.4744C118.324 43.2107 117.967 43.0625 117.594 43.0625ZM116.188 51.5H112.73C112.43 51.5 112.139 51.5956 111.897 51.7729C111.656 51.9502 111.478 52.2 111.388 52.4858C111.143 53.267 110.822 54.0223 110.43 54.7411C110.285 55.0077 110.229 55.3143 110.273 55.615C110.316 55.9156 110.455 56.1942 110.67 56.409L112.793 58.5312L109.156 62.1676L107.034 60.0451C106.819 59.8303 106.541 59.6908 106.24 59.6476C105.939 59.6043 105.633 59.6596 105.366 59.8051C104.647 60.1972 103.892 60.518 103.111 60.763C102.825 60.8525 102.575 61.031 102.398 61.2723C102.221 61.5137 102.125 61.8054 102.125 62.1049V65.5625H96.5V62.1049C96.5 61.8054 96.4044 61.5137 96.2271 61.2723C96.0498 61.031 95.8 60.8525 95.5142 60.763C94.733 60.518 93.9777 60.1972 93.2589 59.8051C92.9923 59.6596 92.6857 59.6043 92.385 59.6476C92.0844 59.6908 91.8058 59.8303 91.591 60.0451L89.4688 62.1676L85.8324 58.5312L87.9549 56.409C88.1697 56.1942 88.3092 55.9156 88.3524 55.615C88.3957 55.3143 88.3404 55.0077 88.1949 54.7411C87.8028 54.0223 87.482 53.267 87.237 52.4858C87.1475 52.2 86.969 51.9502 86.7277 51.7729C86.4863 51.5956 86.1946 51.5 85.8951 51.5H82.4375V45.875H85.8951C86.1946 45.875 86.4863 45.7794 86.7277 45.6021C86.969 45.4248 87.1475 45.175 87.237 44.8892C87.482 44.108 87.8028 43.3527 88.1949 42.6339C88.3404 42.3673 88.3957 42.0607 88.3524 41.76C88.3092 41.4594 88.1697 41.1808 87.9549 40.966L85.8324 38.8438L89.4688 35.2074L91.591 37.3299C91.8058 37.5447 92.0844 37.6842 92.385 37.7274C92.6857 37.7707 92.9923 37.7154 93.2589 37.5699C93.9777 37.1778 94.733 36.857 95.5142 36.612C95.8 36.5225 96.0498 36.344 96.2271 36.1027C96.4044 35.8613 96.5 35.5696 96.5 35.2701V31.8125H102.125V35.2701C102.125 35.5696 102.221 35.8613 102.398 36.1027C102.575 36.344 102.825 36.5225 103.111 36.612C103.892 36.857 104.647 37.1778 105.366 37.5699C105.633 37.7154 105.939 37.7707 106.24 37.7274C106.541 37.6842 106.819 37.5447 107.034 37.3299L109.156 35.2074L112.793 38.8438L110.67 40.966C110.455 41.1808 110.316 41.4594 110.273 41.76C110.229 42.0607 110.285 42.3673 110.43 42.6339C110.822 43.3527 111.143 44.108 111.388 44.8892C111.478 45.175 111.656 45.4248 111.897 45.6021C112.139 45.7794 112.43 45.875 112.73 45.875H116.188V51.5Z" fill="white"/>
<path d="M99.3125 37.4375C97.0875 37.4375 94.9124 38.0973 93.0623 39.3335C91.2123 40.5696 89.7703 42.3266 88.9189 44.3823C88.0674 46.438 87.8446 48.7 88.2787 50.8823C88.7128 53.0646 89.7842 55.0691 91.3576 56.6425C92.9309 58.2158 94.9355 59.2873 97.1177 59.7213C99.3 60.1554 101.562 59.9326 103.618 59.0811C105.673 58.2297 107.43 56.7877 108.667 54.9377C109.903 53.0876 110.563 50.9125 110.563 48.6875C110.559 45.7048 109.373 42.8453 107.264 40.7362C105.155 38.6272 102.295 37.4408 99.3125 37.4375ZM99.3125 57.125C97.6437 57.125 96.0124 56.6301 94.6249 55.703C93.2373 54.7759 92.1559 53.4581 91.5173 51.9164C90.8787 50.3746 90.7116 48.6781 91.0371 47.0414C91.3627 45.4047 92.1663 43.9013 93.3463 42.7213C94.5263 41.5413 96.0297 40.7377 97.6664 40.4121C99.3031 40.0866 101 40.2537 102.541 40.8923C104.083 41.5309 105.401 42.6123 106.328 43.9999C107.255 45.3874 107.75 47.0187 107.75 48.6875C107.748 50.9245 106.858 53.0692 105.276 54.651C103.694 56.2328 101.55 57.1225 99.3125 57.125Z" fill="white"/>
<path d="M99.3125 43.0625C98.2 43.0625 97.1124 43.3924 96.1874 44.0105C95.2624 44.6286 94.5414 45.5071 94.1157 46.5349C93.6899 47.5627 93.5785 48.6937 93.7956 49.7849C94.0126 50.876 94.5484 51.8783 95.335 52.665C96.1217 53.4516 97.124 53.9874 98.2151 54.2044C99.3063 54.4215 100.437 54.3101 101.465 53.8843C102.493 53.4586 103.371 52.7376 103.99 51.8126C104.608 50.8876 104.938 49.8 104.938 48.6875C104.936 47.1962 104.343 45.7664 103.288 44.7119C102.234 43.6573 100.804 43.0642 99.3125 43.0625ZM99.3125 51.5C98.7562 51.5 98.2125 51.335 97.75 51.026C97.2874 50.717 96.927 50.2777 96.7141 49.7638C96.5012 49.2499 96.4455 48.6844 96.554 48.1388C96.6626 47.5932 96.9304 47.0921 97.3238 46.6988C97.7171 46.3054 98.2182 46.0376 98.7638 45.929C99.3094 45.8205 99.8749 45.8762 100.389 46.0891C100.903 46.302 101.342 46.6624 101.651 47.125C101.96 47.5875 102.125 48.1312 102.125 48.6875C102.124 49.4332 101.828 50.148 101.3 50.6753C100.773 51.2025 100.058 51.4991 99.3125 51.5Z" fill="white"/>
<path d="M97.9063 99.3125C96.5156 99.3125 95.1562 99.7249 93.9999 100.497C92.8436 101.27 91.9424 102.368 91.4102 103.653C90.878 104.938 90.7388 106.352 91.0101 107.715C91.2814 109.079 91.9511 110.332 92.9344 111.316C93.9177 112.299 95.1706 112.969 96.5345 113.24C97.8985 113.511 99.3122 113.372 100.597 112.84C101.882 112.308 102.98 111.406 103.753 110.25C104.525 109.094 104.938 107.734 104.938 106.344C104.935 104.48 104.194 102.692 102.876 101.374C101.558 100.056 99.7704 99.3146 97.9063 99.3125ZM97.9063 110.562C97.0719 110.562 96.2562 110.315 95.5624 109.852C94.8687 109.388 94.3279 108.729 94.0086 107.958C93.6893 107.187 93.6058 106.339 93.7686 105.521C93.9313 104.702 94.3331 103.951 94.9231 103.361C95.5132 102.771 96.2649 102.369 97.0832 102.206C97.9016 102.043 98.7498 102.127 99.5207 102.446C100.292 102.765 100.95 103.306 101.414 104C101.878 104.694 102.125 105.509 102.125 106.344C102.124 107.462 101.679 108.535 100.888 109.325C100.097 110.116 99.0247 110.561 97.9063 110.562Z" fill="white"/>
<path d="M36.0312 71.1875C36.8079 71.1875 37.4375 70.5579 37.4375 69.7812C37.4375 69.0046 36.8079 68.375 36.0312 68.375C35.2546 68.375 34.625 69.0046 34.625 69.7812C34.625 70.5579 35.2546 71.1875 36.0312 71.1875Z" fill="white"/>
<path d="M97.9062 107.75C98.6829 107.75 99.3125 107.12 99.3125 106.344C99.3125 105.567 98.6829 104.938 97.9062 104.938C97.1296 104.938 96.5 105.567 96.5 106.344C96.5 107.12 97.1296 107.75 97.9062 107.75Z" fill="white"/>
<path d="M36.0312 79.625C36.8079 79.625 37.4375 78.9954 37.4375 78.2188C37.4375 77.4421 36.8079 76.8125 36.0312 76.8125C35.2546 76.8125 34.625 77.4421 34.625 78.2188C34.625 78.9954 35.2546 79.625 36.0312 79.625Z" fill="white"/>
<path d="M36.0312 88.0625C36.8079 88.0625 37.4375 87.4329 37.4375 86.6562C37.4375 85.8796 36.8079 85.25 36.0312 85.25C35.2546 85.25 34.625 85.8796 34.625 86.6562C34.625 87.4329 35.2546 88.0625 36.0312 88.0625Z" fill="white"/>
<path d="M103.531 71.1875H95.0937C94.7207 71.1875 94.3631 71.3357 94.0993 71.5994C93.8356 71.8631 93.6875 72.2208 93.6875 72.5938V82.4375H90.875C90.5968 82.4375 90.3249 82.52 90.0937 82.6745C89.8624 82.829 89.6821 83.0486 89.5757 83.3056C89.4693 83.5626 89.4414 83.8453 89.4957 84.1181C89.5499 84.3909 89.6839 84.6415 89.8806 84.8381L98.3181 93.2756C98.4486 93.4062 98.6037 93.5098 98.7743 93.5805C98.9449 93.6512 99.1278 93.6876 99.3125 93.6876C99.4971 93.6876 99.68 93.6512 99.8506 93.5805C100.021 93.5098 100.176 93.4062 100.307 93.2756L108.744 84.8381C108.941 84.6415 109.075 84.3909 109.129 84.1181C109.184 83.8453 109.156 83.5626 109.049 83.3056C108.943 83.0486 108.763 82.829 108.531 82.6745C108.3 82.52 108.028 82.4375 107.75 82.4375H104.937V72.5938C104.937 72.2208 104.789 71.8631 104.526 71.5994C104.262 71.3357 103.904 71.1875 103.531 71.1875ZM99.3125 90.2926L94.2698 85.25H95.0937C95.4667 85.25 95.8244 85.1018 96.0881 84.8381C96.3518 84.5744 96.5 84.2167 96.5 83.8438V74H102.125V83.8438C102.125 84.2167 102.273 84.5744 102.537 84.8381C102.801 85.1018 103.158 85.25 103.531 85.25H104.355L99.3125 90.2926Z" fill="white"/>
<path d="M54.9348 91.9396C55.6975 91.6407 56.4308 91.2713 57.125 90.8363V95.7472C57.125 96.0253 57.2075 96.2972 57.362 96.5284C57.5165 96.7597 57.7361 96.94 57.9931 97.0464C58.2501 97.1528 58.5328 97.1807 58.8056 97.1264C59.0784 97.0722 59.329 96.9382 59.5256 96.7415L61.5144 94.7528L68.4754 101.714C68.606 101.844 68.761 101.948 68.9316 102.019C69.1023 102.089 69.2852 102.126 69.4699 102.126C69.6546 102.126 69.8374 102.089 70.0081 102.019C70.1787 101.948 70.3337 101.844 70.4643 101.714L76.4305 95.7475C76.5611 95.6169 76.6648 95.4619 76.7354 95.2912C76.8061 95.1206 76.8425 94.9377 76.8425 94.753C76.8425 94.5683 76.8061 94.3854 76.7354 94.2148C76.6648 94.0442 76.5611 93.8891 76.4305 93.7585L69.4696 86.7976L71.4582 84.8086C71.6548 84.612 71.7887 84.3614 71.8429 84.0886C71.8972 83.8159 71.8693 83.5332 71.7629 83.2762C71.6564 83.0193 71.4762 82.7997 71.245 82.6452C71.0138 82.4907 70.7419 82.4082 70.4638 82.4082H59.9375V65.5627H70.4636C70.7417 65.5627 71.0136 65.4802 71.2448 65.3257C71.476 65.1712 71.6563 64.9516 71.7627 64.6946C71.8691 64.4377 71.897 64.155 71.8428 63.8822C71.7885 63.6095 71.6546 63.3589 71.458 63.1622L69.4694 61.1733L76.4303 54.2123C76.561 54.0817 76.6646 53.9267 76.7353 53.7561C76.806 53.5854 76.8423 53.4025 76.8423 53.2178C76.8423 53.0331 76.806 52.8503 76.7353 52.6796C76.6646 52.509 76.561 52.3539 76.4303 52.2234L70.4638 46.2577C70.3332 46.1271 70.1782 46.0235 70.0075 45.9528C69.8369 45.8821 69.654 45.8457 69.4693 45.8457C69.2846 45.8457 69.1017 45.8821 68.9311 45.9528C68.7605 46.0235 68.6054 46.1271 68.4748 46.2577L61.5139 53.2186L59.5249 51.23C59.3283 51.0336 59.0778 50.8999 58.8051 50.8457C58.5325 50.7916 58.2499 50.8195 57.9931 50.9259C57.7363 51.0322 57.5168 51.2123 57.3623 51.4434C57.2078 51.6744 57.1252 51.9461 57.125 52.2241V57.1635C56.4307 56.7287 55.6975 56.3594 54.9348 56.0605C52.1165 54.9336 48.3996 54.3127 44.4688 54.3127C40.5379 54.3127 36.821 54.9336 34.0027 56.0608C30.7766 57.3513 29 59.2275 29 61.3439V86.6564C29 88.7729 30.7766 90.6491 34.0027 91.9396C36.821 93.0668 40.5379 93.6877 44.4688 93.6877C48.3996 93.6877 52.1165 93.0668 54.9348 91.9396ZM59.9375 55.6189L60.52 56.2015C60.6506 56.3321 60.8056 56.4356 60.9763 56.5063C61.1469 56.577 61.3298 56.6134 61.5144 56.6134C61.6991 56.6134 61.882 56.577 62.0526 56.5063C62.2232 56.4356 62.3782 56.3321 62.5088 56.2015L69.4698 49.2405L73.4473 53.2181L66.4864 60.179C66.3558 60.3096 66.2522 60.4647 66.1816 60.6353C66.1109 60.8059 66.0745 60.9888 66.0745 61.1734C66.0745 61.3581 66.1109 61.541 66.1816 61.7116C66.2522 61.8822 66.3558 62.0373 66.4864 62.1678L67.0688 62.7502H59.9375V55.6189ZM59.9375 85.2205H67.0686L66.4862 85.803C66.3556 85.9336 66.252 86.0886 66.1814 86.2593C66.1107 86.4299 66.0743 86.6127 66.0743 86.7974C66.0743 86.9821 66.1107 87.165 66.1814 87.3356C66.252 87.5062 66.3556 87.6612 66.4862 87.7918L73.4472 94.7528L69.4696 98.7303L62.5087 91.7694C62.3781 91.6388 62.223 91.5352 62.0524 91.4645C61.8818 91.3938 61.6989 91.3574 61.5142 91.3574C61.3295 91.3574 61.1466 91.3938 60.9759 91.4645C60.8053 91.5352 60.6503 91.6388 60.5197 91.7694L59.9375 92.3518V85.2205ZM44.4688 57.1252C52.1947 57.1252 57.125 59.6239 57.125 61.3439C57.125 63.064 52.1947 65.5627 44.4688 65.5627C36.7428 65.5627 31.8125 63.064 31.8125 61.3439C31.8125 59.6239 36.7428 57.1252 44.4688 57.1252ZM31.8125 65.5239C32.5067 65.9588 33.24 66.3282 34.0027 66.6271C36.821 67.7543 40.5379 68.3752 44.4688 68.3752C48.3996 68.3752 52.1165 67.7543 54.9348 66.6271C55.6975 66.3282 56.4308 65.9588 57.125 65.5239V69.7814C57.125 71.5015 52.1947 74.0002 44.4688 74.0002C36.7428 74.0002 31.8125 71.5015 31.8125 69.7814V65.5239ZM31.8125 73.9614C32.5067 74.3963 33.24 74.7657 34.0027 75.0646C36.821 76.1918 40.5379 76.8127 44.4688 76.8127C48.3996 76.8127 52.1165 76.1918 54.9348 75.0646C55.6975 74.7657 56.4308 74.3963 57.125 73.9614V78.2189C57.125 79.939 52.1947 82.4377 44.4688 82.4377C36.7428 82.4377 31.8125 79.939 31.8125 78.2189V73.9614ZM31.8125 86.6564V82.3988C32.5067 82.8338 33.24 83.2032 34.0027 83.5021C36.821 84.6293 40.5379 85.2502 44.4688 85.2502C48.3996 85.2502 52.1165 84.6293 54.9348 83.5021C55.6975 83.2032 56.4308 82.8338 57.125 82.3988V86.6564C57.125 88.3765 52.1947 90.8752 44.4688 90.8752C36.7428 90.8752 31.8125 88.3765 31.8125 86.6564Z" fill="white"/>
<path d="M113.402 99.6431C108.775 95.747 103.417 93.6875 97.9063 93.6875C92.3955 93.6875 87.0373 95.747 82.4106 99.6431C78.9412 102.565 77.102 105.476 77.0263 105.598C76.8866 105.822 76.8125 106.08 76.8125 106.344C76.8125 106.607 76.8866 106.866 77.0263 107.089C77.1027 107.212 78.9412 110.123 82.4106 113.044C87.0373 116.941 92.3955 119 97.9063 119C103.417 119 108.775 116.941 113.402 113.044C116.871 110.123 118.71 107.212 118.786 107.089C118.926 106.866 119 106.607 119 106.344C119 106.08 118.926 105.822 118.786 105.598C118.71 105.476 116.871 102.564 113.402 99.6431ZM111.521 110.951C107.366 114.426 102.786 116.188 97.9063 116.188C93.0267 116.188 88.4462 114.426 84.2916 110.951C82.665 109.589 81.2022 108.043 79.9324 106.344C81.2022 104.644 82.6651 103.098 84.2918 101.736C88.4462 98.2617 93.0267 96.5 97.9063 96.5C102.786 96.5 107.366 98.2617 111.521 101.736C113.148 103.098 114.61 104.644 115.88 106.344C114.61 108.043 113.148 109.59 111.521 110.951H111.521Z" fill="white"/>
<defs>
<linearGradient id="paint0_linear_36_942" x1="148.78" y1="74.39" x2="0" y2="74.39" gradientUnits="userSpaceOnUse">
<stop stop-color="#3B3B3B"/>
<stop offset="1" stop-color="#191919"/>
</linearGradient>
</defs>
</svg>
