<svg width="80" height="80" viewBox="0 0 80 80" fill="none" xmlns="http://www.w3.org/2000/svg">
<g clip-path="url(#clip0_3_657)">
<mask id="mask0_3_657" style="mask-type:luminance" maskUnits="userSpaceOnUse" x="0" y="0" width="80" height="80">
<path d="M80 0H0V80H80V0Z" fill="white"/>
</mask>
<g mask="url(#mask0_3_657)">
<mask id="mask1_3_657" style="mask-type:luminance" maskUnits="userSpaceOnUse" x="0" y="0" width="80" height="80">
<path d="M80 0H0V80H80V0Z" fill="white"/>
</mask>
<g mask="url(#mask1_3_657)">
<path d="M40 80C62.0914 80 80 62.0914 80 40C80 17.9086 62.0914 0 40 0C17.9086 0 0 17.9086 0 40C0 62.0914 17.9086 80 40 80Z" fill="#FFF2E8"/>
</g>
</g>
<path d="M66.7769 58.6747L66.4688 58.3938L56.3097 49.875C57.4835 47.97 58.1109 45.7789 58.1237 43.5414C58.1365 41.3039 57.5341 39.1059 56.3822 37.1875V24.1919C56.385 24.1617 56.385 24.1314 56.3822 24.1013C56.3864 24.0834 56.3864 24.0647 56.3822 24.0469C56.3573 23.8448 56.2608 23.6584 56.1103 23.5213L45.5616 12.9816C45.3851 12.8146 45.1519 12.7207 44.9091 12.7188H20.25C19.0482 12.7188 17.8957 13.1961 17.0459 14.0459C16.1961 14.8957 15.7188 16.0482 15.7188 17.25V60.75C15.7188 61.9518 16.1961 63.1043 17.0459 63.954C17.8957 64.8038 19.0482 65.2812 20.25 65.2812H51.8509C53.0527 65.2812 54.2053 64.8038 55.055 63.954C55.9048 63.1043 56.3822 61.9518 56.3822 60.75V58.7834L60.7866 64.0487C64.4569 68.2719 70.565 62.78 66.7769 58.6747ZM53.2919 50.8447C51.5921 52.5483 49.3539 53.6095 46.9591 53.847C44.5642 54.0845 42.1611 53.4838 40.1599 52.1471C38.1586 50.8104 36.6831 48.8208 35.9852 46.5176C35.2872 44.2145 35.4101 41.7405 36.3328 39.5178C37.2555 37.2952 38.9208 35.4615 41.0446 34.3296C43.1685 33.1978 45.6193 32.838 47.9788 33.3116C50.3383 33.7853 52.4604 35.063 53.983 36.9267C55.5056 38.7904 56.3343 41.1247 56.3278 43.5312C56.3291 44.8903 56.0615 46.236 55.5405 47.4912C55.0194 48.7464 54.2552 49.8861 53.2919 50.8447ZM45.8153 15.8091L53.2828 23.2856H45.8153V15.8091ZM54.5697 60.75C54.5697 61.471 54.2832 62.1626 53.7734 62.6724C53.2635 63.1823 52.5719 63.4688 51.8509 63.4688H20.25C19.5289 63.4688 18.8374 63.1823 18.3276 62.6724C17.8177 62.1626 17.5312 61.471 17.5312 60.75V17.25C17.5312 16.5289 17.8177 15.8374 18.3276 15.3276C18.8374 14.8177 19.5289 14.5312 20.25 14.5312H44.0028V24.1919C44.0028 24.4322 44.0983 24.6628 44.2683 24.8327C44.4382 25.0026 44.6687 25.0981 44.9091 25.0981H54.5697V34.8856C52.3348 32.65 49.3183 31.3708 46.1576 31.3184C42.997 31.266 39.9396 32.4444 37.6319 34.6047H23.7844C23.544 34.6047 23.3135 34.7002 23.1436 34.8701C22.9736 35.04 22.8781 35.2706 22.8781 35.5109C22.8781 35.7513 22.9736 35.9818 23.1436 36.1517C23.3135 36.3217 23.544 36.4172 23.7844 36.4172H36.0459C35.1312 37.6844 34.4752 39.1194 34.1156 40.6403H23.7844C23.544 40.6403 23.3135 40.7358 23.1436 40.9058C22.9736 41.0757 22.8781 41.3062 22.8781 41.5466C22.8781 41.7869 22.9736 42.0175 23.1436 42.1874C23.3135 42.3573 23.544 42.4528 23.7844 42.4528H33.8438C33.7253 43.8689 33.8541 45.2949 34.2244 46.6669H23.7844C23.544 46.6669 23.3135 46.7624 23.1436 46.9323C22.9736 47.1022 22.8781 47.3328 22.8781 47.5731C22.8781 47.8135 22.9736 48.044 23.1436 48.2139C23.3135 48.3839 23.544 48.4794 23.7844 48.4794H34.8316C35.4365 49.8283 36.2808 51.0566 37.3238 52.1044C37.5322 52.3037 37.7406 52.485 37.9581 52.6753H23.7844C23.544 52.6753 23.3135 52.7708 23.1436 52.9408C22.9736 53.1107 22.8781 53.3412 22.8781 53.5816C22.8781 53.8219 22.9736 54.0525 23.1436 54.2224C23.3135 54.3923 23.544 54.4878 23.7844 54.4878H40.7313C42.5588 55.3576 44.5747 55.7569 46.596 55.6493C48.6171 55.5417 50.5792 54.9306 52.3041 53.8716L54.5697 56.5903V60.75ZM65.4447 63.0881C65.2235 63.3077 64.9585 63.4782 64.6669 63.5886C64.3755 63.6989 64.064 63.7467 63.7529 63.7288C63.4417 63.7108 63.1378 63.6275 62.861 63.4843C62.5841 63.3412 62.3404 63.1413 62.1459 62.8978L53.7812 52.8475C54.0531 52.6209 55.0319 51.6422 55.2494 51.3884L65.2906 59.7803C65.5356 59.9749 65.7367 60.2189 65.8808 60.4966C66.0249 60.7743 66.1086 61.0793 66.1265 61.3916C66.1446 61.7039 66.0963 62.0165 65.9851 62.3088C65.8738 62.6012 65.702 62.8668 65.4809 63.0881H65.4447Z" fill="#F48120"/>
<path d="M23.7844 30.3816H36.055C36.2953 30.3816 36.5259 30.286 36.6958 30.1161C36.8658 29.9462 36.9612 29.7156 36.9612 29.4753C36.9612 29.235 36.8658 29.0044 36.6958 28.8345C36.5259 28.6646 36.2953 28.5691 36.055 28.5691H23.7844C23.544 28.5691 23.3136 28.6646 23.1436 28.8345C22.9736 29.0044 22.8781 29.235 22.8781 29.4753C22.8781 29.7156 22.9736 29.9462 23.1436 30.1161C23.3136 30.286 23.544 30.3816 23.7844 30.3816Z" fill="#F48120"/>
</g>
<defs>
<clipPath id="clip0_3_657">
<rect width="80" height="80" fill="white"/>
</clipPath>
</defs>
</svg>
