<svg width="80" height="80" viewBox="0 0 80 80" fill="none" xmlns="http://www.w3.org/2000/svg">
<path d="M40.0001 80C62.0915 80 80.0001 62.0914 80.0001 40C80.0001 17.9086 62.0915 0 40.0001 0C17.9087 0 6.10352e-05 17.9086 6.10352e-05 40C6.10352e-05 62.0914 17.9087 80 40.0001 80Z" fill="#FFF2E8"/>
<path d="M46.4375 44.4375H55.5V53.5" stroke="#F48120" stroke-width="2" stroke-miterlimit="10" stroke-linecap="round" stroke-linejoin="round"/>
<path d="M22.875 51.6875H31.9375V42.625" stroke="#F48120" stroke-width="2" stroke-miterlimit="10" stroke-linecap="round" stroke-linejoin="round"/>
<path d="M55.5 45.1625C54.2312 46.6125 52.9625 48.0625 51.5125 49.5125C38.825 62.2 23.7812 68 17.9812 62.2C12.1812 56.4 17.8 41.3562 30.6687 28.6687C43.5375 15.9812 58.4 10.1812 64.2 15.9812C66.7375 18.5187 67.1 22.5062 65.65 27.4" stroke="#F48120" stroke-width="2" stroke-miterlimit="10" stroke-linecap="round" stroke-linejoin="round"/>
<path d="M31.9375 50.7812C31.3937 50.4187 31.0312 49.875 30.4875 49.3312C17.8 36.6437 12 21.6 17.8 15.8C23.6 9.99999 38.6437 15.6187 51.3312 28.4875C64.0187 41.3562 69.8187 56.2187 64.0187 62.0187C60.9375 65.1 55.3187 64.9187 48.7937 62.2" stroke="#F48120" stroke-width="2" stroke-miterlimit="10" stroke-linecap="round" stroke-linejoin="round"/>
</svg>
