<svg width="80" height="80" viewBox="0 0 80 80" fill="none" xmlns="http://www.w3.org/2000/svg">
<path d="M40.0001 80C62.0915 80 80.0001 62.0914 80.0001 40C80.0001 17.9086 62.0915 0 40.0001 0C17.9087 0 6.10352e-05 17.9086 6.10352e-05 40C6.10352e-05 62.0914 17.9087 80 40.0001 80Z" fill="#FFF2E8"/>
<path fill-rule="evenodd" clip-rule="evenodd" d="M40 12.5C25.9178 12.5 14.5 23.9167 14.5 38C14.5 52.0833 25.9178 63.5 40 63.5C44.7668 63.5 49.2222 62.1937 53.0363 59.9208C53.1672 59.843 53.3041 59.7807 53.4451 59.733C53.5551 59.6956 53.6693 59.6677 53.7834 59.649C53.9371 59.6235 54.0947 59.6152 54.2504 59.6245C54.4226 59.6349 54.5928 59.6661 54.7609 59.719L64.9086 62.9081L61.719 52.7614C61.5385 52.184 61.6111 51.5562 61.9203 51.0363C64.1947 47.2232 65.5 42.7673 65.5 38C65.5 23.9167 54.0822 12.5 40 12.5ZM10.25 38C10.25 21.5696 23.5686 8.25 40 8.25C56.4314 8.25 69.75 21.5696 69.75 38C69.75 43.2098 68.4094 48.1125 66.052 52.3748L69.5736 63.5762C70.3455 66.0343 68.0338 68.3455 65.5768 67.5731L54.3748 64.0525C50.1125 66.4089 45.2108 67.75 40 67.75C23.5686 67.75 10.25 54.4304 10.25 38ZM42.125 34.8125V50.75C42.125 51.2989 41.9175 51.7995 41.575 52.1767C41.2783 52.5056 40.8778 52.7406 40.4254 52.8325C40.2885 52.8605 40.1453 52.875 40 52.875C39.3836 52.875 38.8297 52.6135 38.4416 52.1959C38.0908 51.8166 37.875 51.3082 37.875 50.75V34.8125C37.875 33.639 38.8254 32.6875 40 32.6875C41.1746 32.6875 42.125 33.639 42.125 34.8125ZM40 29.5C41.7598 29.5 43.1875 28.0728 43.1875 26.3125C43.1875 25.0752 42.482 24.0022 41.4527 23.4742C41.0168 23.251 40.523 23.125 40 23.125C38.2402 23.125 36.8125 24.5522 36.8125 26.3125C36.8125 28.0728 38.2402 29.5 40 29.5Z" fill="#F48120"/>
</svg>
