<svg width="80" height="80" viewBox="0 0 80 80" fill="none" xmlns="http://www.w3.org/2000/svg">
<path d="M40.0001 80C62.0915 80 80.0001 62.0914 80.0001 40C80.0001 17.9086 62.0915 0 40.0001 0C17.9087 0 6.10352e-05 17.9086 6.10352e-05 40C6.10352e-05 62.0914 17.9087 80 40.0001 80Z" fill="#FFF2E8"/>
<g clip-path="url(#clip0_3_728)">
<path d="M41 35.9375C41.6428 35.9375 42.2711 35.7469 42.8056 35.3898C43.3401 35.0327 43.7566 34.5251 44.0026 33.9312C44.2486 33.3374 44.313 32.6839 44.1876 32.0535C44.0622 31.423 43.7526 30.8439 43.2981 30.3894C42.8436 29.9349 42.2645 29.6254 41.634 29.4999C41.0036 29.3745 40.3501 29.4389 39.7563 29.6849C39.1624 29.9309 38.6548 30.3474 38.2977 30.8819C37.9406 31.4164 37.75 32.0447 37.75 32.6875C37.751 33.5492 38.0937 34.3752 38.703 34.9845C39.3123 35.5938 40.1383 35.9365 41 35.9375ZM41 31.0625C41.3214 31.0625 41.6356 31.1578 41.9028 31.3364C42.17 31.5149 42.3783 31.7687 42.5013 32.0656C42.6243 32.3626 42.6565 32.6893 42.5938 33.0045C42.5311 33.3197 42.3763 33.6093 42.149 33.8366C41.9218 34.0638 41.6322 34.2186 41.317 34.2813C41.0018 34.344 40.6751 34.3118 40.3781 34.1888C40.0812 34.0658 39.8274 33.8575 39.6489 33.5903C39.4703 33.3231 39.375 33.0089 39.375 32.6875C39.3755 32.2567 39.5469 31.8437 39.8515 31.539C40.1562 31.2344 40.5692 31.063 41 31.0625Z" fill="#F48120"/>
<path d="M36.125 28.625H36.9375C37.153 28.625 37.3597 28.5394 37.512 28.387C37.6644 28.2347 37.75 28.028 37.75 27.8125C37.75 27.597 37.6644 27.3903 37.512 27.238C37.3597 27.0856 37.153 27 36.9375 27H36.125C35.9095 27 35.7028 27.0856 35.5505 27.238C35.3981 27.3903 35.3125 27.597 35.3125 27.8125C35.3125 28.028 35.3981 28.2347 35.5505 28.387C35.7028 28.5394 35.9095 28.625 36.125 28.625Z" fill="#F48120"/>
<path d="M45.0625 28.625H45.875C46.0905 28.625 46.2972 28.5394 46.4495 28.387C46.6019 28.2347 46.6875 28.028 46.6875 27.8125C46.6875 27.597 46.6019 27.3903 46.4495 27.238C46.2972 27.0856 46.0905 27 45.875 27H45.0625C44.847 27 44.6403 27.0856 44.488 27.238C44.3356 27.3903 44.25 27.597 44.25 27.8125C44.25 28.028 44.3356 28.2347 44.488 28.387C44.6403 28.5394 44.847 28.625 45.0625 28.625Z" fill="#F48120"/>
<path d="M36.9375 56.25H36.125C35.9095 56.25 35.7028 56.3356 35.5505 56.488C35.3981 56.6403 35.3125 56.847 35.3125 57.0625C35.3125 57.278 35.3981 57.4847 35.5505 57.637C35.7028 57.7894 35.9095 57.875 36.125 57.875H36.9375C37.153 57.875 37.3597 57.7894 37.512 57.637C37.6644 57.4847 37.75 57.278 37.75 57.0625C37.75 56.847 37.6644 56.6403 37.512 56.488C37.3597 56.3356 37.153 56.25 36.9375 56.25Z" fill="#F48120"/>
<path d="M45.875 56.25H45.0625C44.847 56.25 44.6403 56.3356 44.488 56.488C44.3356 56.6403 44.25 56.847 44.25 57.0625C44.25 57.278 44.3356 57.4847 44.488 57.637C44.6403 57.7894 44.847 57.875 45.0625 57.875H45.875C46.0905 57.875 46.2972 57.7894 46.4495 57.637C46.6019 57.4847 46.6875 57.278 46.6875 57.0625C46.6875 56.847 46.6019 56.6403 46.4495 56.488C46.2972 56.3356 46.0905 56.25 45.875 56.25Z" fill="#F48120"/>
<path d="M36.125 42.4375H45.875C46.0905 42.4375 46.2972 42.3519 46.4495 42.1995C46.6019 42.0472 46.6875 41.8405 46.6875 41.625C46.6875 41.4095 46.6019 41.2028 46.4495 41.0505C46.2972 40.8981 46.0905 40.8125 45.875 40.8125H36.125C35.9095 40.8125 35.7028 40.8981 35.5505 41.0505C35.3981 41.2028 35.3125 41.4095 35.3125 41.625C35.3125 41.8405 35.3981 42.0472 35.5505 42.1995C35.7028 42.3519 35.9095 42.4375 36.125 42.4375Z" fill="#F48120"/>
<path d="M26.375 40.8125C27.0178 40.8125 27.6461 40.6219 28.1806 40.2648C28.7151 39.9077 29.1316 39.4001 29.3776 38.8062C29.6236 38.2124 29.688 37.5589 29.5626 36.9285C29.4372 36.298 29.1276 35.7189 28.6731 35.2644C28.2186 34.8099 27.6395 34.5004 27.009 34.3749C26.3786 34.2495 25.7251 34.3139 25.1313 34.5599C24.5374 34.8059 24.0298 35.2224 23.6727 35.7569C23.3156 36.2914 23.125 36.9197 23.125 37.5625C23.126 38.4242 23.4687 39.2502 24.078 39.8595C24.6873 40.4688 25.5133 40.8115 26.375 40.8125ZM26.375 35.9375C26.6964 35.9375 27.0106 36.0328 27.2778 36.2114C27.545 36.3899 27.7533 36.6437 27.8763 36.9406C27.9993 37.2376 28.0315 37.5643 27.9688 37.8795C27.9061 38.1947 27.7513 38.4843 27.524 38.7116C27.2968 38.9388 27.0072 39.0936 26.692 39.1563C26.3768 39.219 26.0501 39.1868 25.7531 39.0638C25.4562 38.9408 25.2024 38.7325 25.0239 38.4653C24.8453 38.1981 24.75 37.8839 24.75 37.5625C24.7505 37.1317 24.9219 36.7187 25.2265 36.414C25.5312 36.1094 25.9442 35.938 26.375 35.9375Z" fill="#F48120"/>
<path d="M21.5 33.5H22.3125C22.528 33.5 22.7347 33.4144 22.887 33.262C23.0394 33.1097 23.125 32.903 23.125 32.6875C23.125 32.472 23.0394 32.2653 22.887 32.113C22.7347 31.9606 22.528 31.875 22.3125 31.875H21.5C21.2845 31.875 21.0778 31.9606 20.9255 32.113C20.7731 32.2653 20.6875 32.472 20.6875 32.6875C20.6875 32.903 20.7731 33.1097 20.9255 33.262C21.0778 33.4144 21.2845 33.5 21.5 33.5Z" fill="#F48120"/>
<path d="M30.4375 33.5H31.25C31.4655 33.5 31.6722 33.4144 31.8245 33.262C31.9769 33.1097 32.0625 32.903 32.0625 32.6875C32.0625 32.472 31.9769 32.2653 31.8245 32.113C31.6722 31.9606 31.4655 31.875 31.25 31.875H30.4375C30.222 31.875 30.0153 31.9606 29.863 32.113C29.7106 32.2653 29.625 32.472 29.625 32.6875C29.625 32.903 29.7106 33.1097 29.863 33.262C30.0153 33.4144 30.222 33.5 30.4375 33.5Z" fill="#F48120"/>
<path d="M31.25 45.6875H21.5C21.2845 45.6875 21.0778 45.7731 20.9255 45.9255C20.7731 46.0778 20.6875 46.2845 20.6875 46.5C20.6875 46.7155 20.7731 46.9222 20.9255 47.0745C21.0778 47.2269 21.2845 47.3125 21.5 47.3125H31.25C31.4655 47.3125 31.6722 47.2269 31.8245 47.0745C31.9769 46.9222 32.0625 46.7155 32.0625 46.5C32.0625 46.2845 31.9769 46.0778 31.8245 45.9255C31.6722 45.7731 31.4655 45.6875 31.25 45.6875Z" fill="#F48120"/>
<path d="M55.625 40.8125C56.2678 40.8125 56.8961 40.6219 57.4306 40.2648C57.9651 39.9077 58.3816 39.4001 58.6276 38.8062C58.8736 38.2124 58.938 37.5589 58.8126 36.9285C58.6872 36.298 58.3776 35.7189 57.9231 35.2644C57.4686 34.8099 56.8895 34.5004 56.259 34.3749C55.6286 34.2495 54.9751 34.3139 54.3813 34.5599C53.7874 34.8059 53.2798 35.2224 52.9227 35.7569C52.5656 36.2914 52.375 36.9197 52.375 37.5625C52.376 38.4242 52.7187 39.2502 53.328 39.8595C53.9373 40.4688 54.7633 40.8115 55.625 40.8125ZM55.625 35.9375C55.9464 35.9375 56.2606 36.0328 56.5278 36.2114C56.795 36.3899 57.0033 36.6437 57.1263 36.9406C57.2493 37.2376 57.2815 37.5643 57.2188 37.8795C57.1561 38.1947 57.0013 38.4843 56.774 38.7116C56.5468 38.9388 56.2572 39.0936 55.942 39.1563C55.6268 39.219 55.3001 39.1868 55.0031 39.0638C54.7062 38.9408 54.4524 38.7325 54.2739 38.4653C54.0953 38.1981 54 37.8839 54 37.5625C54.0005 37.1317 54.1719 36.7187 54.4765 36.414C54.7812 36.1094 55.1942 35.938 55.625 35.9375Z" fill="#F48120"/>
<path d="M50.75 33.5H51.5625C51.778 33.5 51.9847 33.4144 52.137 33.262C52.2894 33.1097 52.375 32.903 52.375 32.6875C52.375 32.472 52.2894 32.2653 52.137 32.113C51.9847 31.9606 51.778 31.875 51.5625 31.875H50.75C50.5345 31.875 50.3278 31.9606 50.1755 32.113C50.0231 32.2653 49.9375 32.472 49.9375 32.6875C49.9375 32.903 50.0231 33.1097 50.1755 33.262C50.3278 33.4144 50.5345 33.5 50.75 33.5Z" fill="#F48120"/>
<path d="M60.5 45.6875H50.75C50.5345 45.6875 50.3278 45.7731 50.1755 45.9255C50.0231 46.0778 49.9375 46.2845 49.9375 46.5C49.9375 46.7155 50.0231 46.9222 50.1755 47.0745C50.3278 47.2269 50.5345 47.3125 50.75 47.3125H60.5C60.7155 47.3125 60.9222 47.2269 61.0745 47.0745C61.2269 46.9222 61.3125 46.7155 61.3125 46.5C61.3125 46.2845 61.2269 46.0778 61.0745 45.9255C60.9222 45.7731 60.7155 45.6875 60.5 45.6875Z" fill="#F48120"/>
<path d="M45.875 43.25H36.125C35.9095 43.25 35.7028 43.3356 35.5505 43.488C35.3981 43.6403 35.3125 43.847 35.3125 44.0625C35.3125 44.278 35.3981 44.4847 35.5505 44.637C35.7028 44.7894 35.9095 44.875 36.125 44.875H45.875C46.0905 44.875 46.2972 44.7894 46.4495 44.637C46.6019 44.4847 46.6875 44.278 46.6875 44.0625C46.6875 43.847 46.6019 43.6403 46.4495 43.488C46.2972 43.3356 46.0905 43.25 45.875 43.25Z" fill="#F48120"/>
<path d="M31.25 48.125H21.5C21.2845 48.125 21.0778 48.2106 20.9255 48.363C20.7731 48.5153 20.6875 48.722 20.6875 48.9375C20.6875 49.153 20.7731 49.3597 20.9255 49.512C21.0778 49.6644 21.2845 49.75 21.5 49.75H31.25C31.4655 49.75 31.6722 49.6644 31.8245 49.512C31.9769 49.3597 32.0625 49.153 32.0625 48.9375C32.0625 48.722 31.9769 48.5153 31.8245 48.363C31.6722 48.2106 31.4655 48.125 31.25 48.125Z" fill="#F48120"/>
<path d="M60.5 48.125H50.75C50.5345 48.125 50.3278 48.2106 50.1755 48.363C50.0231 48.5153 49.9375 48.722 49.9375 48.9375C49.9375 49.153 50.0231 49.3597 50.1755 49.512C50.3278 49.6644 50.5345 49.75 50.75 49.75H60.5C60.7155 49.75 60.9222 49.6644 61.0745 49.512C61.2269 49.3597 61.3125 49.153 61.3125 48.9375C61.3125 48.722 61.2269 48.5153 61.0745 48.363C60.9222 48.2106 60.7155 48.125 60.5 48.125Z" fill="#F48120"/>
<path d="M44.25 45.6875H37.75C37.5345 45.6875 37.3278 45.7731 37.1755 45.9255C37.0231 46.0778 36.9375 46.2845 36.9375 46.5C36.9375 46.7155 37.0231 46.9222 37.1755 47.0745C37.3278 47.2269 37.5345 47.3125 37.75 47.3125H44.25C44.4655 47.3125 44.6722 47.2269 44.8245 47.0745C44.9769 46.9222 45.0625 46.7155 45.0625 46.5C45.0625 46.2845 44.9769 46.0778 44.8245 45.9255C44.6722 45.7731 44.4655 45.6875 44.25 45.6875Z" fill="#F48120"/>
<path d="M29.625 50.5625H23.125C22.9095 50.5625 22.7028 50.6481 22.5505 50.8005C22.3981 50.9528 22.3125 51.1595 22.3125 51.375C22.3125 51.5905 22.3981 51.7972 22.5505 51.9495C22.7028 52.1019 22.9095 52.1875 23.125 52.1875H29.625C29.8405 52.1875 30.0472 52.1019 30.1995 51.9495C30.3519 51.7972 30.4375 51.5905 30.4375 51.375C30.4375 51.1595 30.3519 50.9528 30.1995 50.8005C30.0472 50.6481 29.8405 50.5625 29.625 50.5625Z" fill="#F48120"/>
<path d="M58.875 50.5625H52.375C52.1595 50.5625 51.9528 50.6481 51.8005 50.8005C51.6481 50.9528 51.5625 51.1595 51.5625 51.375C51.5625 51.5905 51.6481 51.7972 51.8005 51.9495C51.9528 52.1019 52.1595 52.1875 52.375 52.1875H58.875C59.0905 52.1875 59.2972 52.1019 59.4495 51.9495C59.6019 51.7972 59.6875 51.5905 59.6875 51.375C59.6875 51.1595 59.6019 50.9528 59.4495 50.8005C59.2972 50.6481 59.0905 50.5625 58.875 50.5625Z" fill="#F48120"/>
<path d="M62.9375 14.8125H19.0625C18.2008 14.8133 17.3746 15.156 16.7653 15.7653C16.156 16.3746 15.8133 17.2008 15.8125 18.0625V61.9375C15.8135 62.7992 16.1562 63.6252 16.7655 64.2345C17.3748 64.8438 18.2008 65.1865 19.0625 65.1875H62.9375C63.7991 65.1864 64.6251 64.8436 65.2344 64.2344C65.8436 63.6251 66.1864 62.7991 66.1875 61.9375V18.0625C66.1865 17.2008 65.8438 16.3748 65.2345 15.7655C64.6252 15.1562 63.7992 14.8135 62.9375 14.8125ZM64.5625 61.9375C64.5619 62.3683 64.3906 62.7813 64.0859 63.0859C63.7813 63.3906 63.3683 63.5619 62.9375 63.5625H19.0625C18.6317 63.5619 18.2187 63.3906 17.9141 63.0859C17.6095 62.7813 17.4381 62.3683 17.4375 61.9375V21.3125H64.5625V61.9375ZM64.5625 19.6875H17.4375V18.0625C17.4381 17.6317 17.6095 17.2187 17.9141 16.9141C18.2187 16.6095 18.6317 16.4381 19.0625 16.4375H62.9375C63.3683 16.4381 63.7813 16.6095 64.0859 16.9141C64.3906 17.2187 64.5619 17.6317 64.5625 18.0625V19.6875Z" fill="#F48120"/>
<path d="M60.5 29.4375H50.75C50.1791 29.4368 49.6183 29.5879 49.125 29.8752V27.8125C49.124 26.9508 48.7813 26.1248 48.172 25.5155C47.5627 24.9062 46.7367 24.5635 45.875 24.5625H36.125C35.2633 24.5635 34.4373 24.9062 33.828 25.5155C33.2187 26.1248 32.876 26.9508 32.875 27.8125V29.8752C32.3817 29.5879 31.8209 29.4368 31.25 29.4375H21.5C20.6383 29.4385 19.8123 29.7812 19.203 30.3905C18.5937 30.9998 18.251 31.8258 18.25 32.6875V57.0625C18.251 57.9242 18.5937 58.7502 19.203 59.3595C19.8123 59.9688 20.6383 60.3115 21.5 60.3125H60.5C61.3616 60.3114 62.1876 59.9686 62.7969 59.3594C63.4061 58.7501 63.7489 57.9241 63.75 57.0625V32.6875C63.7489 31.8259 63.4061 30.9999 62.7969 30.3906C62.1876 29.7814 61.3616 29.4386 60.5 29.4375ZM32.875 58.6875H21.5C21.0692 58.6869 20.6562 58.5156 20.3516 58.2109C20.047 57.9063 19.8756 57.4933 19.875 57.0625V44.0625H32.875V58.6875ZM32.875 42.4375H19.875V32.6875C19.8756 32.2567 20.047 31.8437 20.3516 31.5391C20.6562 31.2345 21.0692 31.0631 21.5 31.0625H31.25C31.6808 31.0631 32.0938 31.2345 32.3984 31.5391C32.703 31.8437 32.8744 32.2567 32.875 32.6875V42.4375ZM47.5 58.6875H34.5V55.4375H47.5V58.6875ZM47.5 53.8125H34.5V39.1875H47.5V53.8125ZM47.5 37.5625H34.5V27.8125C34.5006 27.3817 34.672 26.9687 34.9766 26.6641C35.2812 26.3595 35.6942 26.1881 36.125 26.1875H45.875C46.3058 26.1881 46.7188 26.3595 47.0234 26.6641C47.3281 26.9687 47.4994 27.3817 47.5 27.8125V37.5625ZM62.125 57.0625C62.1244 57.4933 61.9531 57.9063 61.6484 58.2109C61.3438 58.5156 60.9308 58.6869 60.5 58.6875H49.125V44.0625H62.125V57.0625ZM62.125 42.4375H49.125V32.6875C49.1256 32.2567 49.2969 31.8437 49.6016 31.5391C49.9062 31.2345 50.3192 31.0631 50.75 31.0625H60.5C60.9308 31.0631 61.3438 31.2345 61.6484 31.5391C61.9531 31.8437 62.1244 32.2567 62.125 32.6875V42.4375Z" fill="#F48120"/>
<path d="M18.9609 18.875C19.4097 18.875 19.7734 18.5112 19.7734 18.0625C19.7734 17.6138 19.4097 17.25 18.9609 17.25C18.5122 17.25 18.1484 17.6138 18.1484 18.0625C18.1484 18.5112 18.5122 18.875 18.9609 18.875Z" fill="#F48120"/>
<path d="M21.5 18.875C21.9487 18.875 22.3125 18.5112 22.3125 18.0625C22.3125 17.6138 21.9487 17.25 21.5 17.25C21.0513 17.25 20.6875 17.6138 20.6875 18.0625C20.6875 18.5112 21.0513 18.875 21.5 18.875Z" fill="#F48120"/>
<path d="M23.9375 18.875C24.3862 18.875 24.75 18.5112 24.75 18.0625C24.75 17.6138 24.3862 17.25 23.9375 17.25C23.4888 17.25 23.125 17.6138 23.125 18.0625C23.125 18.5112 23.4888 18.875 23.9375 18.875Z" fill="#F48120"/>
</g>
<defs>
<clipPath id="clip0_3_728">
<rect width="52" height="52" fill="white" transform="translate(15 14)"/>
</clipPath>
</defs>
</svg>
