<svg width="80" height="80" viewBox="0 0 80 80" fill="none" xmlns="http://www.w3.org/2000/svg">
<path d="M40.0001 80C62.0915 80 80.0001 62.0914 80.0001 40C80.0001 17.9086 62.0915 0 40.0001 0C17.9087 0 6.10352e-05 17.9086 6.10352e-05 40C6.10352e-05 62.0914 17.9087 80 40.0001 80Z" fill="#FFF2E8"/>
<g clip-path="url(#clip0_3_728)">
<path d="M45.2634 19.6181C50.8265 19.6181 52.5437 19.6642 58.1067 19.6642C58.7418 19.6642 59.3515 19.7206 59.9408 19.8334C60.525 19.9462 61.089 20.1103 61.6123 20.3358C62.1406 20.5614 62.6537 20.8434 63.1465 21.1767C63.6343 21.5099 64.0966 21.8996 64.5335 22.3353C64.9704 22.7763 65.3565 23.2479 65.6817 23.735C66.017 24.2323 66.2964 24.7501 66.5149 25.2833C66.7333 25.8166 66.901 26.3805 67.0128 26.9701C67.1245 27.5648 67.1804 28.1801 67.1804 28.8209V47.401C67.1804 48.0419 67.1245 48.6571 67.0128 49.2519C66.901 49.8466 66.7333 50.4105 66.5149 50.9386C66.2913 51.477 66.0119 51.9948 65.6817 52.487C65.3515 52.9791 64.9653 53.4457 64.5335 53.8866L64.5284 53.8917C64.0763 54.3378 63.6038 54.7274 63.1161 55.0556C62.6283 55.3888 62.1152 55.6657 61.5869 55.8913C61.0585 56.1117 60.5047 56.2809 59.9205 56.3937C59.3413 56.5065 58.7316 56.5629 58.1017 56.5629H51.1516C50.9332 56.5629 50.7198 56.6142 50.5217 56.7116C50.3388 56.8039 50.1711 56.9372 50.0441 57.1115L50.0339 57.1217C49.4852 57.8549 48.9112 58.5675 48.3066 59.2545C47.702 59.9364 47.072 60.5978 46.3963 61.2233C45.741 61.8385 45.05 62.4281 44.3337 62.9972C43.6173 63.5663 42.8756 64.0995 42.1186 64.602C41.3921 65.0839 40.625 65.5453 39.8273 65.9811C39.0399 66.4118 38.2321 66.8117 37.409 67.1808C37.3176 67.2218 37.216 67.2167 37.1245 67.1654C36.9721 67.0783 36.9162 66.8783 37.0026 66.7245C37.1499 66.463 37.2922 66.2016 37.4344 65.9247C37.5716 65.6684 37.6935 65.4069 37.8155 65.13C38.0492 64.602 38.2727 64.0636 38.4861 63.5099C38.7045 62.9511 38.9078 62.3922 39.1059 61.8129C39.2939 61.2746 39.4666 60.7157 39.6343 60.1518C39.8019 59.5878 39.9594 59.0187 40.1118 58.4496C40.1525 58.2804 40.1931 58.1112 40.1931 57.9369C40.1931 57.5575 40.0407 57.2038 39.7918 56.9525L39.7765 56.9372C39.5225 56.6808 39.1669 56.5167 38.7858 56.5167H30.7079C30.0729 56.5167 29.4683 56.4603 28.8891 56.3476C28.315 56.2348 27.7664 56.0707 27.2431 55.8502L27.2329 55.8451C26.7147 55.64 26.2117 55.3632 25.7291 55.0351C25.2312 54.6967 24.7486 54.2916 24.2863 53.8405L24.2812 53.8353C23.8443 53.3944 23.4581 52.9279 23.1279 52.4357C22.7926 51.9384 22.5183 51.4257 22.2947 50.8874C22.0763 50.3541 21.9086 49.7902 21.7968 49.2006C21.6851 48.6059 21.6292 47.9906 21.6292 47.3498V43.5712C21.6292 41.6742 19.1957 41.6588 18.7892 43.0124V47.3241C18.7892 48.1342 18.8654 48.9237 19.0077 49.6825C19.155 50.4567 19.3735 51.2052 19.6631 51.9332C19.9476 52.6356 20.3083 53.3124 20.7452 53.9635C21.1821 54.6095 21.6901 55.2299 22.2693 55.8144C22.8434 56.3988 23.4581 56.9115 24.1034 57.3524C24.7384 57.7882 25.409 58.1522 26.1051 58.4394L26.1152 58.4445C26.8316 58.7367 27.5784 58.9572 28.3404 59.1059C29.0924 59.2494 29.8747 59.3263 30.6774 59.3263H36.4844C36.52 59.3263 36.5606 59.3314 36.5962 59.3417C36.7638 59.3981 36.8553 59.5775 36.8045 59.7467L36.7994 59.757C36.6876 60.1159 36.5758 60.4748 36.4488 60.8593L36.4437 60.8798C36.2659 61.3976 36.0678 61.9257 35.8595 62.4538C35.6614 62.9511 35.4581 63.4433 35.2448 63.9149C35.2397 63.9406 35.2346 63.9611 35.2244 63.9867C35.0161 64.4635 34.7774 64.9352 34.4979 65.4018C34.2236 65.8683 33.9137 66.3246 33.5784 66.7758C33.2329 67.227 32.8468 67.6833 32.42 68.1447L32.4048 68.1652C31.973 68.6266 31.5056 69.0829 31.0026 69.5238C30.713 69.7853 30.5555 70.1442 30.5352 70.5031C30.5149 70.862 30.6317 71.2311 30.8908 71.5233C31.0737 71.7284 31.2973 71.8668 31.5411 71.9386C31.785 72.0104 32.0492 72.0207 32.2981 71.9489C33.3548 71.6618 34.3913 71.349 35.3972 71.0004C36.4031 70.6518 37.3786 70.2724 38.3134 69.8622C39.2583 69.452 40.183 69.0009 41.0771 68.5138C41.9662 68.0319 42.8299 67.5089 43.6631 66.9552C44.4912 66.4118 45.2939 65.8324 46.0712 65.2172C46.8485 64.602 47.5953 63.956 48.3117 63.2843L48.3269 63.2689C48.9315 62.6947 49.5157 62.0897 50.0847 61.4643C50.6588 60.8285 51.2126 60.1723 51.7308 59.5058C51.7867 59.4186 51.8883 59.3571 52.0001 59.3571H58.1067C58.9247 59.3571 59.7071 59.2802 60.4641 59.1366C61.2261 58.9879 61.9577 58.7675 62.6588 58.4804L62.669 58.4752C63.3752 58.1728 64.0458 57.8036 64.691 57.3678C65.3311 56.932 65.9408 56.4296 66.52 55.8451C67.0991 55.2606 67.6072 54.6403 68.0441 53.9943C68.4759 53.3483 68.8417 52.6664 69.1262 51.964C69.4158 51.2514 69.6343 50.508 69.7816 49.7338C69.9239 48.975 70.0001 48.1803 70.0001 47.3549V28.7748C70.0001 27.9494 69.9239 27.1547 69.7816 26.3959C69.6343 25.6217 69.4158 24.8783 69.1262 24.1708C68.8417 23.4684 68.4759 22.7865 68.0441 22.1405C67.6072 21.4894 67.0991 20.869 66.525 20.2897C65.9459 19.7052 65.3362 19.1925 64.691 18.7516C64.0559 18.3158 63.3853 17.9518 62.6893 17.6647L62.6791 17.6596C61.9577 17.3673 61.216 17.1469 60.4488 16.9982C59.6969 16.8546 58.9145 16.7777 58.1118 16.7777C52.3303 16.7777 50.3946 16.7521 44.6131 16.7521C43.2363 17.1571 43.1449 19.6181 45.2634 19.6181ZM33.8883 48.247C33.1516 48.2572 32.5521 47.6625 32.542 46.9191C32.5318 46.1757 33.1211 45.5707 33.8578 45.5604L47.9713 45.3451L50.6741 45.1708C51.4107 45.1247 52.0407 45.6886 52.0864 46.4269C52.1321 47.1703 51.5733 47.8061 50.8417 47.8522L48.1389 48.0265C48.1389 48.0265 35.0771 48.2265 33.8883 48.247ZM38.1152 39.808C37.3786 39.808 36.7791 39.203 36.7791 38.4596C36.7791 37.7162 37.3786 37.1112 38.1152 37.1112H57.177C57.9137 37.1112 58.5132 37.7162 58.5132 38.4596C58.5132 39.203 57.9137 39.808 57.177 39.808H38.1152ZM44.0492 31.7587C43.3125 31.7587 42.713 31.1537 42.713 30.4103C42.713 29.6669 43.3125 29.0619 44.0492 29.0619H57.177C57.9137 29.0619 58.5132 29.6669 58.5132 30.4103C58.5132 31.1537 57.9137 31.7587 57.177 31.7587H44.0492ZM24.3777 9.26675L28.0102 18.2184L37.5716 18.9362C37.8053 18.9516 37.9831 19.1566 37.9679 19.3976C37.9577 19.5207 37.8968 19.6283 37.8104 19.7052L30.4996 25.9499L32.7757 35.3527C32.8316 35.5834 32.6893 35.8141 32.4607 35.8705C32.3388 35.9013 32.2219 35.8756 32.1254 35.809L23.9814 30.723L15.8273 35.8141C15.6292 35.9372 15.365 35.8756 15.2431 35.6757C15.1821 35.5731 15.1669 35.4552 15.1923 35.3476L17.4683 25.9447L10.1525 19.7001C9.97465 19.5463 9.94925 19.2746 10.1017 19.0951C10.1779 19.0028 10.2846 18.9516 10.3963 18.9413L19.9577 18.2235L23.5902 9.27187C23.6766 9.05141 23.9255 8.94887 24.144 9.03603C24.2558 9.07705 24.3371 9.16421 24.3777 9.26675Z" fill="#F48120"/>
</g>
<defs>
<clipPath id="clip0_3_728">
<rect width="60" height="63" fill="white" transform="translate(10 9)"/>
</clipPath>
</defs>
</svg>
