<svg width="80" height="80" viewBox="0 0 80 80" fill="none" xmlns="http://www.w3.org/2000/svg">
<path d="M40.0001 80C62.0915 80 80.0001 62.0914 80.0001 40C80.0001 17.9086 62.0915 0 40.0001 0C17.9087 0 6.10352e-05 17.9086 6.10352e-05 40C6.10352e-05 62.0914 17.9087 80 40.0001 80Z" fill="#FFF2E8"/>
<g clip-path="url(#clip0_3_728)">
<path d="M11.7322 66.4855C14.557 67.6894 17.596 68.31 20.6666 68.31C23.7373 68.31 26.7763 67.6894 29.6011 66.4855C29.8184 66.3923 30.0036 66.2374 30.1337 66.0401C30.2639 65.8427 30.3333 65.6114 30.3333 65.375C30.3386 63.7056 29.8409 62.0733 28.9051 60.6909C27.9692 59.3084 26.6387 58.24 25.0867 57.6247L24.5128 57.3952C25.0581 56.6786 25.3925 55.8239 25.4781 54.9275C25.5637 54.0311 25.3972 53.1285 24.9973 52.3217C24.5974 51.5149 23.9801 50.8358 23.2149 50.361C22.4497 49.8862 21.5672 49.6346 20.6666 49.6346C19.7661 49.6346 18.8835 49.8862 18.1184 50.361C17.3532 50.8358 16.7359 51.5149 16.336 52.3217C15.9361 53.1285 15.7696 54.0311 15.8552 54.9275C15.9408 55.8239 16.2752 56.6786 16.8205 57.3952L16.2478 57.6247C14.6955 58.2396 13.3646 59.308 12.4285 60.6905C11.4924 62.0729 10.9946 63.7054 11 65.375C11 65.6114 11.0694 65.8427 11.1996 66.0401C11.3297 66.2374 11.5149 66.3923 11.7322 66.4855ZM20.6666 52.0833C21.1446 52.0833 21.6119 52.2251 22.0093 52.4906C22.4067 52.7562 22.7164 53.1336 22.8994 53.5752C23.0823 54.0168 23.1301 54.5027 23.0369 54.9715C22.9436 55.4403 22.7135 55.8709 22.3755 56.2088C22.0375 56.5468 21.6069 56.777 21.1381 56.8702C20.6693 56.9635 20.1834 56.9156 19.7418 56.7327C19.3002 56.5498 18.9228 56.24 18.6573 55.8426C18.3917 55.4452 18.25 54.978 18.25 54.5C18.25 53.8591 18.5046 53.2444 18.9578 52.7912C19.411 52.3379 20.0257 52.0833 20.6666 52.0833ZM17.1444 59.8686L18.4832 59.3333H22.8501L24.1889 59.8686C25.1659 60.2554 26.0218 60.8962 26.6681 61.7247C27.3143 62.5532 27.7274 63.5394 27.8647 64.5811C23.2259 66.3332 18.1074 66.3332 13.4686 64.5811C13.6059 63.5394 14.019 62.5532 14.6652 61.7247C15.3115 60.8962 16.1674 60.2554 17.1444 59.8686Z" fill="#F48120"/>
<path d="M11.7322 27.8188C14.5563 29.0251 17.5957 29.6459 20.6666 29.6434C23.7376 29.6459 26.777 29.0251 29.6011 27.8188C29.8184 27.7256 30.0036 27.5708 30.1337 27.3734C30.2639 27.176 30.3333 26.9448 30.3333 26.7083C30.3386 25.0389 29.8409 23.4066 28.9051 22.0242C27.9692 20.6418 26.6387 19.5733 25.0867 18.9581L24.5128 18.7285C25.0581 18.0119 25.3925 17.1573 25.4781 16.2608C25.5637 15.3644 25.3972 14.4619 24.9973 13.655C24.5974 12.8482 23.9801 12.1691 23.2149 11.6943C22.4497 11.2196 21.5672 10.968 20.6666 10.968C19.7661 10.968 18.8835 11.2196 18.1184 11.6943C17.3532 12.1691 16.7359 12.8482 16.336 13.655C15.9361 14.4619 15.7696 15.3644 15.8552 16.2608C15.9408 17.1573 16.2752 18.0119 16.8205 18.7285L16.2478 18.9581C14.6955 19.573 13.3646 20.6413 12.4285 22.0238C11.4924 23.4063 10.9946 25.0388 11 26.7083C11 26.9448 11.0694 27.176 11.1996 27.3734C11.3297 27.5708 11.5149 27.7256 11.7322 27.8188ZM20.6666 13.4167C21.1446 13.4167 21.6119 13.5584 22.0093 13.824C22.4067 14.0895 22.7164 14.4669 22.8994 14.9085C23.0823 15.3501 23.1301 15.836 23.0369 16.3048C22.9436 16.7736 22.7135 17.2042 22.3755 17.5422C22.0375 17.8802 21.6069 18.1103 21.1381 18.2036C20.6693 18.2968 20.1834 18.249 19.7418 18.0661C19.3002 17.8831 18.9228 17.5734 18.6573 17.176C18.3917 16.7786 18.25 16.3113 18.25 15.8333C18.25 15.1924 18.5046 14.5777 18.9578 14.1245C19.411 13.6713 20.0257 13.4167 20.6666 13.4167ZM17.1444 21.202L18.4832 20.6667H22.8501L24.1889 21.202C25.1659 21.5887 26.0218 22.2295 26.6681 23.058C27.3143 23.8866 27.7274 24.8727 27.8647 25.9145C23.2259 27.6666 18.1074 27.6666 13.4686 25.9145C13.6059 24.8727 14.019 23.8866 14.6652 23.058C15.3115 22.2295 16.1674 21.5887 17.1444 21.202Z" fill="#F48120"/>
<path d="M63.7534 18.9581L63.1795 18.7285C63.7248 18.0119 64.0592 17.1573 64.1448 16.2608C64.2304 15.3644 64.0639 14.4619 63.664 13.655C63.2641 12.8482 62.6468 12.1691 61.8816 11.6943C61.1164 11.2196 60.2338 10.968 59.3333 10.968C58.4328 10.968 57.5502 11.2196 56.7851 11.6943C56.0199 12.1691 55.4026 12.8482 55.0027 13.655C54.6028 14.4619 54.4363 15.3644 54.5219 16.2608C54.6075 17.1573 54.9418 18.0119 55.4872 18.7285L54.9145 18.9581C53.3622 19.573 52.0313 20.6413 51.0952 22.0238C50.1591 23.4063 49.6613 25.0388 49.6667 26.7083C49.6667 26.9448 49.7361 27.176 49.8662 27.3734C49.9964 27.5708 50.1816 27.7256 50.3989 27.8188C53.223 29.0251 56.2624 29.6459 59.3333 29.6434C62.4042 29.6459 65.4437 29.0251 68.2678 27.8188C68.4851 27.7256 68.6703 27.5708 68.8004 27.3734C68.9306 27.176 69 26.9448 69 26.7083C69.0053 25.0389 68.5076 23.4066 67.5718 22.0242C66.6359 20.6418 65.3053 19.5733 63.7534 18.9581ZM59.3333 13.4167C59.8113 13.4167 60.2785 13.5584 60.676 13.824C61.0734 14.0895 61.3831 14.4669 61.566 14.9085C61.749 15.3501 61.7968 15.836 61.7036 16.3048C61.6103 16.7736 61.3802 17.2042 61.0422 17.5422C60.7042 17.8802 60.2736 18.1103 59.8048 18.2036C59.336 18.2968 58.8501 18.249 58.4085 18.0661C57.9669 17.8831 57.5895 17.5734 57.3239 17.176C57.0584 16.7786 56.9167 16.3113 56.9167 15.8333C56.9167 15.1924 57.1713 14.5777 57.6245 14.1245C58.0777 13.6713 58.6924 13.4167 59.3333 13.4167ZM52.1353 25.9145C52.2725 24.8727 52.6857 23.8866 53.3319 23.058C53.9782 22.2295 54.8341 21.5887 55.811 21.202L57.1499 20.6667H61.5168L62.8556 21.202C63.8326 21.5887 64.6885 22.2295 65.3348 23.058C65.981 23.8866 66.3941 24.8727 66.5314 25.9145C61.8926 27.6666 56.7741 27.6666 52.1353 25.9145Z" fill="#F48120"/>
<path d="M63.7534 57.6247L63.1795 57.3952C63.7248 56.6786 64.0592 55.8239 64.1448 54.9275C64.2304 54.0311 64.0639 53.1285 63.664 52.3217C63.2641 51.5149 62.6468 50.8358 61.8816 50.361C61.1164 49.8862 60.2338 49.6346 59.3333 49.6346C58.4328 49.6346 57.5502 49.8862 56.7851 50.361C56.0199 50.8358 55.4026 51.5149 55.0027 52.3217C54.6028 53.1285 54.4363 54.0311 54.5219 54.9275C54.6075 55.8239 54.9418 56.6786 55.4872 57.3952L54.9145 57.6247C53.3622 58.2396 52.0313 59.308 51.0952 60.6905C50.1591 62.0729 49.6613 63.7054 49.6667 65.375C49.6667 65.6114 49.7361 65.8427 49.8662 66.0401C49.9964 66.2374 50.1816 66.3923 50.3989 66.4855C53.2237 67.6894 56.2627 68.31 59.3333 68.31C62.404 68.31 65.443 67.6894 68.2678 66.4855C68.4851 66.3923 68.6703 66.2374 68.8004 66.0401C68.9306 65.8427 69 65.6114 69 65.375C69.0053 63.7056 68.5076 62.0733 67.5718 60.6909C66.6359 59.3084 65.3053 58.24 63.7534 57.6247ZM59.3333 52.0833C59.8113 52.0833 60.2785 52.2251 60.676 52.4906C61.0734 52.7562 61.3831 53.1336 61.566 53.5752C61.749 54.0168 61.7968 54.5027 61.7036 54.9715C61.6103 55.4403 61.3802 55.8709 61.0422 56.2088C60.7042 56.5468 60.2736 56.777 59.8048 56.8702C59.336 56.9635 58.8501 56.9156 58.4085 56.7327C57.9669 56.5498 57.5895 56.24 57.3239 55.8426C57.0584 55.4452 56.9167 54.978 56.9167 54.5C56.9167 53.8591 57.1713 53.2444 57.6245 52.7912C58.0777 52.3379 58.6924 52.0833 59.3333 52.0833ZM52.1353 64.5811C52.2725 63.5394 52.6857 62.5532 53.3319 61.7247C53.9782 60.8962 54.8341 60.2554 55.811 59.8686L57.1499 59.3333H61.5168L62.8556 59.8686C63.8326 60.2554 64.6885 60.8962 65.3348 61.7247C65.981 62.5532 66.3941 63.5394 66.5314 64.5811C61.8926 66.3332 56.7741 66.3332 52.1353 64.5811Z" fill="#F48120"/>
<path d="M53.2916 40C53.2916 34.0043 47.6004 29.125 40.6041 29.125C33.6079 29.125 27.9166 34.0043 27.9166 40C27.9708 41.8277 28.4992 43.6099 29.4499 45.1717C30.4006 46.7336 31.741 48.0215 33.3396 48.909L32.0999 52.6271C31.9842 52.9716 31.9807 53.3439 32.09 53.6905C32.1992 54.0371 32.4156 54.3402 32.7079 54.5561C33.0002 54.772 33.3535 54.8897 33.7169 54.8922C34.0803 54.8947 34.4351 54.7819 34.7304 54.5701L39.9263 50.8557C40.1486 50.8678 40.3733 50.875 40.6005 50.875C47.6004 50.875 53.2916 45.9958 53.2916 40ZM40.6041 48.4583C40.2888 48.4583 39.977 48.4414 39.6677 48.4185C39.3855 48.3947 39.1041 48.4732 38.875 48.6396L35.0712 51.3583L35.952 48.7157C36.0446 48.4398 36.0344 48.1397 35.9235 47.8706C35.8125 47.6016 35.6081 47.3816 35.3479 47.2512C33.9185 46.6311 32.6912 45.6233 31.805 44.3418C30.9188 43.0603 30.409 41.5563 30.3333 40C30.3333 35.3358 34.9407 31.5417 40.6041 31.5417C46.2676 31.5417 50.875 35.3358 50.875 40C50.875 44.6642 46.2676 48.4583 40.6041 48.4583Z" fill="#F48120"/>
<path d="M14.9295 31.1393C12.9123 36.8742 12.9123 43.1258 14.9295 48.8607L17.2084 48.056C15.3751 42.8418 15.3751 37.1583 17.2084 31.9441L14.9295 31.1393Z" fill="#F48120"/>
<path d="M33.0943 63.1662L32.4056 65.4825C37.3621 66.9502 42.6378 66.9502 47.5943 65.4825L46.9056 63.1662C42.3976 64.4941 37.6023 64.4941 33.0943 63.1662Z" fill="#F48120"/>
<path d="M65.0705 48.8607C67.0877 43.1258 67.0877 36.8742 65.0705 31.1393L62.7916 31.9441C64.6249 37.1583 64.6249 42.8418 62.7916 48.056L65.0705 48.8607Z" fill="#F48120"/>
<path d="M51.5069 18.743L52.6597 16.6187C48.771 14.5171 44.4203 13.4167 40 13.4167C35.5797 13.4167 31.229 14.5171 27.3403 16.6187L28.493 18.743C32.0387 16.8677 35.9889 15.8875 40 15.8875C44.011 15.8875 47.9613 16.8677 51.5069 18.743Z" fill="#F48120"/>
</g>
<defs>
<clipPath id="clip0_3_728">
<rect width="58" height="58" fill="white" transform="translate(11 11)"/>
</clipPath>
</defs>
</svg>
