<svg width="80" height="80" viewBox="0 0 80 80" fill="none" xmlns="http://www.w3.org/2000/svg">
<g clip-path="url(#clip0_3_657)">
<mask id="mask0_3_657" style="mask-type:luminance" maskUnits="userSpaceOnUse" x="0" y="0" width="80" height="80">
<path d="M80 0H0V80H80V0Z" fill="white"/>
</mask>
<g mask="url(#mask0_3_657)">
<mask id="mask1_3_657" style="mask-type:luminance" maskUnits="userSpaceOnUse" x="0" y="0" width="80" height="80">
<path d="M80 0H0V80H80V0Z" fill="white"/>
</mask>
<g mask="url(#mask1_3_657)">
<path d="M40 80C62.0914 80 80 62.0914 80 40C80 17.9086 62.0914 0 40 0C17.9086 0 0 17.9086 0 40C0 62.0914 17.9086 80 40 80Z" fill="#FFF2E8"/>
<path d="M55.1276 45.9135C55.1242 45.9135 55.1202 45.9135 55.1168 45.9135C54.7624 45.9095 54.4358 45.7218 54.2542 45.4175L44.5929 29.192C44.5658 29.1466 44.5427 29.0999 44.5231 29.0511C43.3183 27.0731 42.6827 24.8065 42.6827 22.483C42.6949 15.4961 48.3841 9.81903 55.3675 9.81903C55.3729 9.81903 55.3777 9.81903 55.3831 9.81903C58.7732 9.82377 61.9559 11.1478 64.3451 13.5466C66.733 15.9433 68.0449 19.1295 68.0401 22.5169C68.0401 24.8058 67.4072 27.0603 66.2079 29.0504C66.1848 29.1155 66.1543 29.1778 66.1171 29.2381L55.9902 45.4365C55.8032 45.7326 55.4773 45.9135 55.1276 45.9135ZM46.4332 28.3091L55.1486 42.9463L64.2801 28.3403C64.3031 28.2779 64.3323 28.217 64.3682 28.1594C65.4401 26.447 66.0066 24.4955 66.0066 22.5162V22.5148C66.0114 19.6688 64.9096 16.9936 62.9045 14.9804C60.8988 12.9672 58.2263 11.8559 55.3804 11.8512C55.3763 11.8512 55.3716 11.8512 55.3668 11.8512C49.5021 11.8512 44.725 16.6182 44.7155 22.4843C44.7155 24.486 45.2786 26.4389 46.3431 28.1302C46.3797 28.1865 46.4095 28.2468 46.4332 28.3091Z" fill="#F48120"/>
<path d="M55.3709 27.2446C55.3675 27.2446 55.3641 27.2446 55.3601 27.2446C53.929 27.2446 52.5812 26.6855 51.5682 25.6705C50.5538 24.6541 49.9968 23.3043 49.9995 21.8684C50.0009 20.4373 50.5606 19.0908 51.5756 18.0785C52.5893 17.0682 53.9351 16.5118 55.3669 16.5118C55.3682 16.5118 55.3702 16.5118 55.3723 16.5118C58.33 16.5152 60.7349 18.9262 60.7322 21.8867C60.7308 23.3198 60.1711 24.6669 59.156 25.6793C58.143 26.6889 56.7993 27.2446 55.3709 27.2446ZM55.3662 18.5447C54.4772 18.5447 53.6403 18.8903 53.0108 19.5184C52.3806 20.1466 52.033 20.9827 52.0323 21.8718C52.031 22.7642 52.3772 23.6031 53.0074 24.2346C53.6362 24.8648 54.4731 25.2117 55.3621 25.2117C55.3641 25.2117 55.3662 25.2117 55.3689 25.2117C56.2579 25.2117 57.092 24.8668 57.7209 24.24C58.351 23.6119 58.6987 22.775 58.6993 21.8853C58.7007 20.0463 57.2072 18.5474 55.3696 18.5454C55.3689 18.5447 55.3675 18.5447 55.3662 18.5447Z" fill="#F48120"/>
<path d="M71.9655 60.3318H11.077C10.7355 60.3318 10.417 60.1604 10.2287 59.8751C10.041 59.5905 10.0084 59.23 10.1426 58.9156L21.2181 33.0023C21.378 32.6282 21.746 32.3849 22.1525 32.3849H48.2865C48.8483 32.3849 49.3029 32.8396 49.3029 33.4014C49.3029 33.9631 48.8483 34.4178 48.2865 34.4178H22.8234L12.6166 58.2983H70.4253L60.5336 35.1577C60.3127 34.6414 60.5526 34.0444 61.0689 33.8235C61.5832 33.6033 62.1822 33.8418 62.4031 34.3588L72.9 58.9149C73.0341 59.2293 73.0016 59.5898 72.8139 59.8744C72.6255 60.1604 72.3071 60.3318 71.9655 60.3318Z" fill="#F48120"/>
<path d="M55.2476 60.1496C54.738 60.1496 54.2982 59.7674 54.2393 59.2483C54.2332 59.1982 53.584 54.1974 46.5823 53.0095C45.9311 52.8991 44.8924 52.7981 43.6889 52.6822C37.0626 52.0412 31.0183 51.2091 29.8529 48.1104C29.1007 46.1114 30.1998 44.5875 31.082 43.363C32.0483 42.0227 32.3668 41.4372 31.8735 40.5963C31.5611 40.0637 30.5664 39.63 29.6042 39.2106C27.7204 38.3893 25.1401 37.2645 25.1265 34.1813C25.1238 33.6196 25.5771 33.1629 26.1382 33.1602C26.1396 33.1602 26.1416 33.1602 26.143 33.1602C26.7027 33.1602 27.1567 33.6121 27.1594 34.1718C27.1668 35.8117 28.3953 36.4656 30.4173 37.3471C31.6777 37.8967 32.9807 38.4645 33.6278 39.5684C34.8373 41.631 33.6204 43.3196 32.732 44.5522C31.8986 45.7082 31.4053 46.4638 31.7563 47.3948C32.5728 49.5652 40.2135 50.3038 43.8854 50.6596C45.1275 50.7795 46.2002 50.8832 46.9225 51.0058C55.4143 52.4471 56.2287 58.751 56.2592 59.0186C56.3229 59.5763 55.9225 60.0798 55.3648 60.1435C55.3255 60.1475 55.2862 60.1496 55.2476 60.1496Z" fill="#F48120"/>
</g>
</g>
</g>
<defs>
<clipPath id="clip0_3_657">
<rect width="80" height="80" fill="white"/>
</clipPath>
</defs>
</svg>
