<svg width="80" height="80" viewBox="0 0 80 80" fill="none" xmlns="http://www.w3.org/2000/svg">
<g clip-path="url(#clip0_3_657)">
<mask id="mask0_3_657" style="mask-type:luminance" maskUnits="userSpaceOnUse" x="0" y="0" width="80" height="80">
<path d="M80 0H0V80H80V0Z" fill="white"/>
</mask>
<g mask="url(#mask0_3_657)">
<mask id="mask1_3_657" style="mask-type:luminance" maskUnits="userSpaceOnUse" x="0" y="0" width="80" height="80">
<path d="M80 0H0V80H80V0Z" fill="white"/>
</mask>
<g mask="url(#mask1_3_657)">
<path d="M40 80C62.0914 80 80 62.0914 80 40C80 17.9086 62.0914 0 40 0C17.9086 0 0 17.9086 0 40C0 62.0914 17.9086 80 40 80Z" fill="#FFF2E8"/>
</g>
</g>
<g clip-path="url(#clip1_3_657)">
<path d="M28.7565 32.2514H10.7496C10.4429 32.2514 10.1669 32.0642 10.0533 31.7789C9.94 31.4935 10.0113 31.1676 10.234 30.9568C10.2918 30.9017 16.0604 25.387 18.0059 19.7004C18.1098 19.3967 18.3948 19.1931 18.7154 19.1931L40.314 19.1934C40.6178 19.1934 40.8908 19.3761 41.0074 19.6562C41.1236 19.9363 41.0595 20.2596 40.8443 20.4733L29.2867 32.0312C29.1457 32.1719 28.9556 32.251 28.7565 32.251V32.2514ZM12.5346 30.7513H28.4456L38.5035 20.6934H19.2427C17.6564 24.8908 14.3564 28.7987 12.535 30.751L12.5346 30.7513Z" fill="#F48120"/>
<path d="M68.9536 65.4307H32.7195C32.5204 65.4307 32.3295 65.3516 32.1889 65.2106C32.0482 65.07 31.9691 64.8787 31.9695 64.68L31.9856 35.7389C31.9856 35.4359 32.1686 35.1625 32.4487 35.0462C32.526 35.014 32.6066 34.9956 32.6872 34.9911L50.4076 17.2712C50.6892 16.9899 51.1868 16.9899 51.4688 17.2712L69.5011 35.3035C69.6418 35.4441 69.7209 35.6354 69.7209 35.8341L69.7048 64.6815C69.704 65.0955 69.368 65.4307 68.954 65.4307H68.9536ZM33.4699 63.93H68.204L68.2198 36.1431L50.9382 18.8616L33.4856 36.3145L33.4699 63.93Z" fill="#F48120"/>
<path d="M32.7367 65.4307H13.7571C13.3431 65.4307 13.0071 65.0944 13.0071 64.6807V35.758C13.0071 35.344 13.3431 35.008 13.7571 35.008H30.6251L32.7303 34.9907C32.9242 34.9705 33.1218 35.0672 33.2647 35.2079C33.4065 35.3489 33.4863 35.5405 33.4863 35.74V64.68C33.4863 65.0947 33.1511 65.4304 32.7363 65.4304L32.7367 65.4307ZM14.5071 63.93H31.9871V36.4968L30.6318 36.508H14.5071V63.9304V63.93Z" fill="#F48120"/>
<path d="M32.754 36.508H10.75C10.336 36.508 10 36.172 10 35.758V31.5013C10 31.0873 10.336 30.7513 10.75 30.7513H28.7568C29.0606 30.7513 29.334 30.9343 29.4502 31.2148C29.4817 31.291 29.4993 31.3697 29.5053 31.4488L33.2846 35.2281C33.4991 35.4426 33.5632 35.7651 33.4477 36.0452C33.3311 36.3254 33.0585 36.5084 32.7547 36.5084L32.754 36.508ZM11.5 35.008H30.9431L28.1864 32.2513H11.5V35.0084V35.008Z" fill="#F48120"/>
<path d="M26.9332 48.2744H19.5614C19.1474 48.2744 18.8114 47.9381 18.8114 47.5244V40.1527C18.8114 39.7387 19.1474 39.4026 19.5614 39.4026H26.9332C27.3472 39.4026 27.6832 39.739 27.6832 40.1527V47.5237C27.6832 47.9377 27.3472 48.2744 26.9332 48.2744ZM20.3114 46.7741H26.1832V40.903H20.3114V46.7741Z" fill="#F48120"/>
<path d="M26.9332 61.0196H19.5614C19.1474 61.0196 18.8114 60.6832 18.8114 60.2696V52.8971C18.8114 52.4831 19.1474 52.1471 19.5614 52.1471H26.9332C27.3472 52.1471 27.6832 52.4834 27.6832 52.8971V60.2688C27.6832 60.6828 27.3472 61.0196 26.9332 61.0196ZM20.3114 59.5188H26.1832V53.6471H20.3114V59.5188Z" fill="#F48120"/>
<path d="M51.0353 34.7429C48.2524 34.7429 45.9889 32.479 45.9889 29.6965C45.9889 26.9143 48.2528 24.6505 51.0353 24.6505C53.8174 24.6505 56.0821 26.9143 56.0821 29.6965C56.0821 32.479 53.8182 34.7429 51.0353 34.7429ZM51.0353 26.1497C49.0797 26.1497 47.4889 27.7408 47.4889 29.6965C47.4889 31.6521 49.0793 33.2432 51.0353 33.2432C52.9909 33.2432 54.582 31.6521 54.582 29.6965C54.582 27.7408 52.9909 26.1497 51.0353 26.1497Z" fill="#F48120"/>
<path d="M58.7086 65.4307H42.9814C42.5674 65.4307 42.2314 65.0944 42.2314 64.6807V44.1277C42.2314 43.7137 42.5678 43.3777 42.9814 43.3777H58.7078C59.1218 43.3777 59.4578 43.714 59.4578 44.1277V64.6807C59.4586 65.0947 59.1218 65.4307 58.7086 65.4307ZM43.7321 63.93H57.9578V44.8773H43.7321V63.93Z" fill="#F48120"/>
<path d="M69.0091 36.6216C68.81 36.6216 68.6195 36.5425 68.4785 36.4019L50.9386 18.8619L33.3979 36.4026C33.1166 36.6839 32.6186 36.6839 32.3374 36.4026L28.0961 32.1617C27.8028 31.8689 27.8028 31.3941 28.0961 31.1012L50.4076 8.78976C50.7008 8.49651 51.1759 8.49651 51.4688 8.78976L73.7799 31.1012C74.0732 31.3937 74.0732 31.8689 73.7799 32.1617L69.5394 36.403C69.3988 36.5436 69.2079 36.6224 69.0091 36.6224V36.6216ZM29.6876 31.6311L32.8676 34.8111L50.4076 17.2712C50.7008 16.9779 51.1759 16.9779 51.4688 17.2712L69.0091 34.8115L72.1888 31.6315L50.9382 10.3805L29.6872 31.6311H29.6876Z" fill="#F48120"/>
<path d="M50.8452 65.4307C50.4312 65.4307 50.0952 65.0944 50.0952 64.6807V44.1277C50.0952 43.7137 50.4315 43.3777 50.8452 43.3777C51.2588 43.3777 51.5952 43.714 51.5952 44.1277V64.6807C51.5952 65.0947 51.2592 65.4307 50.8452 65.4307Z" fill="#F48120"/>
<path d="M53.1931 56.2481C52.7791 56.2481 52.4431 55.9117 52.4431 55.4981V53.3118C52.4431 52.8978 52.7794 52.5618 53.1931 52.5618C53.6067 52.5618 53.9431 52.8982 53.9431 53.3118V55.4981C53.9431 55.9117 53.6071 56.2481 53.1931 56.2481Z" fill="#F48120"/>
<path d="M48.4973 56.2481C48.0833 56.2481 47.7473 55.9117 47.7473 55.4981V53.3118C47.7473 52.8978 48.0836 52.5618 48.4973 52.5618C48.9109 52.5618 49.2473 52.8982 49.2473 53.3118V55.4981C49.2473 55.9117 48.9113 56.2481 48.4973 56.2481Z" fill="#F48120"/>
</g>
</g>
<defs>
<clipPath id="clip0_3_657">
<rect width="80" height="80" fill="white"/>
</clipPath>
<clipPath id="clip1_3_657">
<rect width="64" height="64" fill="white" transform="translate(10 5)"/>
</clipPath>
</defs>
</svg>
