<svg width="80" height="80" viewBox="0 0 80 80" fill="none" xmlns="http://www.w3.org/2000/svg">
<g clip-path="url(#clip0_3_657)">
<mask id="mask0_3_657" style="mask-type:luminance" maskUnits="userSpaceOnUse" x="0" y="0" width="80" height="80">
<path d="M80 0H0V80H80V0Z" fill="white"/>
</mask>
<g mask="url(#mask0_3_657)">
<mask id="mask1_3_657" style="mask-type:luminance" maskUnits="userSpaceOnUse" x="0" y="0" width="80" height="80">
<path d="M80 0H0V80H80V0Z" fill="white"/>
</mask>
<g mask="url(#mask1_3_657)">
<path d="M40 80C62.0914 80 80 62.0914 80 40C80 17.9086 62.0914 0 40 0C17.9086 0 0 17.9086 0 40C0 62.0914 17.9086 80 40 80Z" fill="#FFF2E8"/>
<path d="M64.5912 51.2364L62.2988 47.6818C58.3392 41.8273 56.2552 34.9273 56.2552 27.8182C56.2552 20.2909 51.2536 14.2273 44.5848 12.1364C43.9596 10.2545 42.084 9 40 9C37.916 9 36.0404 10.2545 35.4152 12.1364C28.7464 14.2273 23.7448 20.2909 23.7448 27.8182C23.7448 34.9273 21.6608 41.8273 17.7012 47.6818L15.4088 51.2364C14.3668 52.9091 15.4088 55 17.4928 55H62.5072C64.5912 55 65.6332 52.9091 64.5912 51.2364Z" stroke="#F48120" stroke-width="2" stroke-miterlimit="10" stroke-linecap="round" stroke-linejoin="round"/>
<path d="M48 55C48 59.4 44.4 63 40 63C35.6 63 32 59.4 32 55" stroke="#F48120" stroke-width="2" stroke-miterlimit="10" stroke-linecap="round" stroke-linejoin="round"/>
</g>
</g>
</g>
<defs>
<clipPath id="clip0_3_657">
<rect width="80" height="80" fill="white"/>
</clipPath>
</defs>
</svg>
