<svg width="80" height="80" viewBox="0 0 80 80" fill="none" xmlns="http://www.w3.org/2000/svg">
<path d="M40 80C62.0914 80 80 62.0914 80 40C80 17.9086 62.0914 0 40 0C17.9086 0 0 17.9086 0 40C0 62.0914 17.9086 80 40 80Z" fill="#FFF2E8"/>
<path d="M69.74 18.33L60.74 8.33C60.6465 8.22641 60.5324 8.14353 60.4049 8.0867C60.2775 8.02986 60.1395 8.00033 60 8H27C25.6739 8 24.4021 8.52678 23.4645 9.46447C22.5268 10.4021 22 11.6739 22 13V28H13C12.2051 28.0024 11.4434 28.3192 10.8813 28.8813C10.3192 29.4434 10.0024 30.2051 10 31V65C10.0024 65.7949 10.3192 66.5566 10.8813 67.1187C11.4434 67.6808 12.2051 67.9976 13 68H65C66.3261 68 67.5979 67.4732 68.5355 66.5355C69.4732 65.5979 70 64.3261 70 63V19C70.0022 18.7516 69.9092 18.5119 69.74 18.33ZM61 11.61L66.75 18H62C61.7348 18 61.4804 17.8946 61.2929 17.7071C61.1054 17.5196 61 17.2652 61 17V11.61ZM36 65C36 65.2652 35.8946 65.5196 35.7071 65.7071C35.5196 65.8946 35.2652 66 35 66H13C12.7348 66 12.4804 65.8946 12.2929 65.7071C12.1054 65.5196 12 65.2652 12 65V31C12 30.7348 12.1054 30.4804 12.2929 30.2929C12.4804 30.1054 12.7348 30 13 30H35C35.2652 30 35.5196 30.1054 35.7071 30.2929C35.8946 30.4804 36 30.7348 36 31V65ZM68 63C67.9976 63.7949 67.6808 64.5566 67.1187 65.1187C66.5566 65.6808 65.7949 65.9976 65 66H37.82C37.9364 65.6793 37.9973 65.3411 38 65V31C37.9976 30.2051 37.6808 29.4434 37.1187 28.8813C36.5566 28.3192 35.7949 28.0024 35 28H24V13C24.0024 12.2051 24.3192 11.4434 24.8813 10.8813C25.4434 10.3192 26.2051 10.0024 27 10H59V17C59.0024 17.7949 59.3192 18.5566 59.8813 19.1187C60.4434 19.6808 61.2051 19.9976 62 20H68V63Z" fill="#F48120"/>
<path d="M44 18H28V20H44V18Z" fill="#F48120"/>
<path d="M30 14H28V16H30V14Z" fill="#F48120"/>
<path d="M44 14H32V16H44V14Z" fill="#F48120"/>
<path d="M64 24H28V26H64V24Z" fill="#F48120"/>
<path d="M64 28H40V30H64V28Z" fill="#F48120"/>
<path d="M32 44H16C15.4696 44 14.9609 44.2107 14.5858 44.5858C14.2107 44.9609 14 45.4696 14 46V62C14 62.5304 14.2107 63.0391 14.5858 63.4142C14.9609 63.7893 15.4696 64 16 64H32C32.5304 64 33.0391 63.7893 33.4142 63.4142C33.7893 63.0391 34 62.5304 34 62V46C34 45.4696 33.7893 44.9609 33.4142 44.5858C33.0391 44.2107 32.5304 44 32 44ZM32 50H28V46H32V50ZM22 56V52H26V56H22ZM26 58V62H22V58H26ZM20 56H16V52H20V56ZM22 50V46H26V50H22ZM28 52H32V56H28V52ZM20 46V50H16V46H20ZM16 58H20V62H16V58ZM28 62V58H32V62H28Z" fill="#F48120"/>
<path d="M32 32H16C15.4696 32 14.9609 32.2107 14.5858 32.5858C14.2107 32.9609 14 33.4696 14 34V40C14 40.5304 14.2107 41.0391 14.5858 41.4142C14.9609 41.7893 15.4696 42 16 42H32C32.5304 42 33.0391 41.7893 33.4142 41.4142C33.7893 41.0391 34 40.5304 34 40V34C34 33.4696 33.7893 32.9609 33.4142 32.5858C33.0391 32.2107 32.5304 32 32 32ZM32 40H16V34H32V40Z" fill="#F48120"/>
<path d="M29 36H27V38H29V36Z" fill="#F48120"/>
<path d="M25 36H23V38H25V36Z" fill="#F48120"/>
<path d="M21 36H19V38H21V36Z" fill="#F48120"/>
<path d="M52 42H54C54.2652 42 54.5196 42.1054 54.7071 42.2929C54.8946 42.4804 55 42.7348 55 43H57C57 42.2044 56.6839 41.4413 56.1213 40.8787C55.5587 40.3161 54.7956 40 54 40V39H52V40C51.2044 40 50.4413 40.3161 49.8787 40.8787C49.3161 41.4413 49 42.2044 49 43C49 43.7956 49.3161 44.5587 49.8787 45.1213C50.4413 45.6839 51.2044 46 52 46H54C54.2652 46 54.5196 46.1054 54.7071 46.2929C54.8946 46.4804 55 46.7348 55 47C55 47.2652 54.8946 47.5196 54.7071 47.7071C54.5196 47.8946 54.2652 48 54 48H52C51.7348 48 51.4804 47.8946 51.2929 47.7071C51.1054 47.5196 51 47.2652 51 47H49C49 47.7956 49.3161 48.5587 49.8787 49.1213C50.4413 49.6839 51.2044 50 52 50V51H54V50C54.7956 50 55.5587 49.6839 56.1213 49.1213C56.6839 48.5587 57 47.7956 57 47C57 46.2044 56.6839 45.4413 56.1213 44.8787C55.5587 44.3161 54.7956 44 54 44H52C51.7348 44 51.4804 43.8946 51.2929 43.7071C51.1054 43.5196 51 43.2652 51 43C51 42.7348 51.1054 42.4804 51.2929 42.2929C51.4804 42.1054 51.7348 42 52 42Z" fill="#F48120"/>
<path d="M53 35C51.0222 35 49.0888 35.5865 47.4443 36.6853C45.7998 37.7841 44.5181 39.3459 43.7612 41.1732C43.0043 43.0004 42.8063 45.0111 43.1922 46.9509C43.578 48.8907 44.5304 50.6725 45.9289 52.0711C47.3275 53.4696 49.1093 54.422 51.0491 54.8079C52.9889 55.1937 54.9996 54.9957 56.8268 54.2388C58.6541 53.4819 60.2159 52.2002 61.3147 50.5557C62.4135 48.9112 63 46.9778 63 45C62.9971 42.3487 61.9426 39.8069 60.0679 37.9321C58.1931 36.0574 55.6513 35.0029 53 35ZM53 53C51.4178 53 49.871 52.5308 48.5554 51.6518C47.2399 50.7727 46.2145 49.5233 45.609 48.0615C45.0035 46.5997 44.845 44.9911 45.1537 43.4393C45.4624 41.8874 46.2243 40.462 47.3432 39.3431C48.462 38.2243 49.8874 37.4624 51.4393 37.1537C52.9911 36.845 54.5997 37.0035 56.0615 37.609C57.5233 38.2145 58.7727 39.2398 59.6518 40.5554C60.5308 41.871 61 43.4177 61 45C60.9976 47.121 60.154 49.1544 58.6542 50.6542C57.1545 52.154 55.121 52.9976 53 53Z" fill="#F48120"/>
</svg>
