<svg width="80" height="80" viewBox="0 0 80 80" fill="none" xmlns="http://www.w3.org/2000/svg">
<path d="M40.0001 80C62.0915 80 80.0001 62.0914 80.0001 40C80.0001 17.9086 62.0915 0 40.0001 0C17.9087 0 6.10352e-05 17.9086 6.10352e-05 40C6.10352e-05 62.0914 17.9087 80 40.0001 80Z" fill="#FFF2E8"/>
<path fill-rule="evenodd" clip-rule="evenodd" d="M42.5403 36.9787C44.9069 27.9184 40.7751 28.5198 40.7751 28.5198C38.6819 25.0363 33.4722 24.7552 33.4722 24.7552C24.6932 23.5055 22.7874 30.7537 22.7874 30.7537C21.1628 35.8618 24.5526 41.626 24.5526 41.626C23.1545 35.7759 28.1298 35.1198 28.1298 35.1198C31.9414 35.1198 35.378 33.0265 35.378 33.0265C41.1891 31.0349 40.7283 41.626 40.7283 41.626C41.4703 40.9308 42.5403 36.9787 42.5403 36.9787Z" stroke="#F48120" stroke-width="2" stroke-linecap="round" stroke-linejoin="round"/>
<path d="M40.7282 41.6259L39.7988 45.8202C38.4475 51.889 26.8332 51.889 25.482 45.8202L24.5526 41.6259" stroke="#F48120" stroke-width="2" stroke-linecap="round" stroke-linejoin="round"/>
<path fill-rule="evenodd" clip-rule="evenodd" d="M22.5062 53.6542H26.7161L32.5506 58.3015L38.5647 53.6542H42.7746C46.3518 53.6542 49.2808 56.5832 49.2808 60.1604V66.6666H16V60.1604C16 56.5832 18.929 53.6542 22.5062 53.6542Z" stroke="#F48120" stroke-width="2" stroke-linecap="round" stroke-linejoin="round"/>
<path d="M22.0922 66.6666V61.0899" stroke="#F48120" stroke-width="2" stroke-linecap="round" stroke-linejoin="round"/>
<path d="M43.1886 66.6666V61.0899" stroke="#F48120" stroke-width="2" stroke-linecap="round" stroke-linejoin="round"/>
<path d="M27.7392 49.007L26.7161 53.6542M38.5647 53.6542L37.5415 49.007" stroke="#F48120" stroke-width="2" stroke-linecap="round" stroke-linejoin="round"/>
<path d="M51.1554 19.7564H45.8911V27.731H51.1554V19.7564Z" stroke="#F48120" stroke-width="2" stroke-linecap="round" stroke-linejoin="round"/>
<path d="M60.3718 16.765H55.1075V27.7232H60.3718V16.765Z" stroke="#F48120" stroke-width="2" stroke-linecap="round" stroke-linejoin="round"/>
<path d="M69.5883 14H64.324V27.731H69.5883V14Z" stroke="#F48120" stroke-width="2" stroke-linecap="round" stroke-linejoin="round"/>
<path d="M45.8911 27.731H69.5883" stroke="#F48120" stroke-width="2" stroke-linecap="round" stroke-linejoin="round"/>
<path d="M57.7396 51.0924C63.0282 51.0924 67.3154 46.8051 67.3154 41.5166C67.3154 36.2281 63.0282 31.9409 57.7396 31.9409C52.4511 31.9409 48.1639 36.2281 48.1639 41.5166C48.1639 46.8051 52.4511 51.0924 57.7396 51.0924Z" stroke="#F48120" stroke-width="2" stroke-linecap="round" stroke-linejoin="round"/>
<path d="M57.7396 46.6638C60.5823 46.6638 62.8868 44.3593 62.8868 41.5166C62.8868 38.6739 60.5823 36.3694 57.7396 36.3694C54.8969 36.3694 52.5925 38.6739 52.5925 41.5166C52.5925 44.3593 54.8969 46.6638 57.7396 46.6638Z" stroke="#F48120" stroke-width="2" stroke-linecap="round" stroke-linejoin="round"/>
<path d="M57.7396 36.3694V31.9409" stroke="#F48120" stroke-width="2" stroke-linecap="round" stroke-linejoin="round"/>
<path d="M61.3793 45.1563L64.5114 48.2884" stroke="#F48120" stroke-width="2" stroke-linecap="round" stroke-linejoin="round"/>
<path d="M52.5925 41.5166H48.1639" stroke="#F48120" stroke-width="2" stroke-linecap="round" stroke-linejoin="round"/>
</svg>
