<svg width="80" height="80" viewBox="0 0 80 80" fill="none" xmlns="http://www.w3.org/2000/svg">
<path d="M40.0001 80C62.0915 80 80.0001 62.0914 80.0001 40C80.0001 17.9086 62.0915 0 40.0001 0C17.9087 0 6.10352e-05 17.9086 6.10352e-05 40C6.10352e-05 62.0914 17.9087 80 40.0001 80Z" fill="#FFF2E8"/>
<path fill-rule="evenodd" clip-rule="evenodd" d="M54.4429 36.8957C52.778 36.8957 51.4528 35.5366 51.4528 33.8717C51.4528 32.2068 52.778 30.8477 54.4429 30.8477C56.1078 30.8477 57.4669 32.2068 57.4669 33.8717C57.4669 35.5366 56.1078 36.8957 54.4429 36.8957ZM60.1851 58.6075C62.4956 58.6075 64.3644 60.4763 64.3644 62.7868C64.3644 65.0972 62.4956 67 60.1851 67C58.1804 67 56.4815 65.5729 56.0738 63.6702H44.4534C44.4534 64.4177 44.6573 65.7428 43.57 65.7428H34.43C33.3427 65.7428 33.5466 64.4177 33.5466 63.6702H21.9262C21.5185 65.5729 19.8196 67 17.8149 67C15.5044 67 13.6356 65.0972 13.6356 62.7868C13.6356 60.4763 15.5044 58.6075 17.8149 58.6075C19.8196 58.6075 21.5185 60.0346 21.9262 61.9373H33.5466C33.5466 59.423 33.3767 59.8647 38.0996 59.8647V57.6221H17.9508C17.4751 57.6221 17.0674 57.2484 17.0674 56.7387V45.662C17.0674 45.1863 17.4751 44.7786 17.9508 44.7786H24.4405V40.2935H17.9508C17.4751 40.2935 17.0674 39.8858 17.0674 39.4101V28.3333C17.0674 27.8237 17.4751 27.4499 17.9508 27.4499H60.0152C60.5249 27.4499 60.8987 27.8237 60.8987 28.3333V39.4101C60.8987 39.8858 60.5249 40.2935 60.0152 40.2935H53.5595V44.7786H60.0152C60.5249 44.7786 60.8987 45.1863 60.8987 45.662V56.7387C60.8987 57.2484 60.5249 57.6221 60.0152 57.6221H39.8664V59.8647C44.6233 59.8647 44.4534 59.423 44.4534 61.9373H56.0738C56.4815 60.0346 58.1804 58.6075 60.1851 58.6075ZM35.3134 63.976H42.6866V61.6315H35.3134V63.976ZM17.8149 60.3743C16.4558 60.3743 15.3685 61.4616 15.3685 62.7868C15.3685 64.1459 16.4558 65.2331 17.8149 65.2331C19.14 65.2331 20.2613 64.1459 20.2613 62.7868C20.2613 61.4616 19.14 60.3743 17.8149 60.3743ZM60.1851 60.3743C58.826 60.3743 57.7387 61.4616 57.7387 62.7868C57.7387 64.1459 58.826 65.2331 60.1851 65.2331C61.5103 65.2331 62.5975 64.1459 62.5975 62.7868C62.5975 61.4616 61.5103 60.3743 60.1851 60.3743ZM48.0211 35.9443H29.911C29.4353 35.9443 29.0615 35.5706 29.0615 35.0949V32.6485C29.0615 32.1728 29.4353 31.7651 29.911 31.7651H48.0211C48.4968 31.7651 48.9045 32.1728 48.9045 32.6485V35.0949C48.9045 35.5706 48.4968 35.9443 48.0211 35.9443ZM30.7944 34.2115H47.1377V33.5319H30.7944V34.2115ZM48.0211 53.307H29.911C29.4353 53.307 29.0615 52.8992 29.0615 52.4235V50.0111C29.0615 49.5015 29.4353 49.1277 29.911 49.1277H48.0211C48.4968 49.1277 48.9045 49.5015 48.9045 50.0111V52.4235C48.9045 52.8992 48.4968 53.307 48.0211 53.307ZM30.7944 51.5401H47.1377V50.8606H30.7944V51.5401ZM28.1441 46.5454H18.8342V55.8893H59.1658V46.5454H28.1441ZM29.0275 40.2935V44.7786H48.9725V40.2935H29.0275ZM26.2074 44.7786H27.2607V40.2935H26.2074V44.7786ZM51.7926 44.7786V40.2935H50.7393V44.7786H51.7926ZM47.2396 25.0035C44.2156 25.0035 41.4634 23.3046 40.1043 20.6204H27.0228C25.0182 20.6204 23.3872 18.9895 23.3872 16.9848C23.3872 15.0141 25.0182 13.3831 27.0228 13.3831H40.1043C43.0943 7.471 51.7247 7.57293 54.5108 13.6549C54.7827 14.2326 54.341 14.8781 53.7294 14.8781H48.5647C45.7786 14.8781 45.7786 19.1254 48.5647 19.1254H53.7294C54.341 19.1254 54.7827 19.7709 54.5108 20.3486C53.2197 23.1687 50.3656 25.0035 47.2396 25.0035ZM27.0228 15.15C24.5765 15.15 24.5765 18.8535 27.0228 18.8535H40.6819C41.0217 18.8535 41.3615 19.0574 41.4974 19.3972C43.2982 23.8143 49.2443 24.5618 52.1324 20.8582H48.5647C46.4241 20.8582 44.6913 19.1254 44.6913 16.9848C44.6913 14.8781 46.4241 13.1453 48.5647 13.1453H52.1324C49.2443 9.44171 43.3322 10.1892 41.4974 14.6063C41.3615 14.9461 41.0217 15.15 40.6819 15.15H27.0228ZM37.7258 17.8682H32.5272C31.372 17.8682 31.372 16.1353 32.5272 16.1353H37.7258C38.8471 16.1353 38.8471 17.8682 37.7258 17.8682ZM23.5231 54.2244C21.8922 54.2244 20.5331 52.8653 20.5331 51.2003C20.5331 49.5354 21.8922 48.2103 23.5231 48.2103C25.1881 48.2103 26.5472 49.5354 26.5472 51.2003C26.5472 52.8653 25.1881 54.2244 23.5231 54.2244ZM23.5231 49.9432C22.8436 49.9432 22.266 50.5208 22.266 51.2003C22.266 51.9139 22.8436 52.4575 23.5231 52.4575C24.2367 52.4575 24.7803 51.9139 24.7803 51.2003C24.7803 50.5208 24.2367 49.9432 23.5231 49.9432ZM54.4429 54.2244C52.778 54.2244 51.4528 52.8653 51.4528 51.2003C51.4528 49.5354 52.778 48.2103 54.4429 48.2103C56.1078 48.2103 57.4669 49.5354 57.4669 51.2003C57.4669 52.8653 56.1078 54.2244 54.4429 54.2244ZM54.4429 49.9432C53.7633 49.9432 53.1857 50.5208 53.1857 51.2003C53.1857 51.9139 53.7633 52.4575 54.4429 52.4575C55.1564 52.4575 55.7001 51.9139 55.7001 51.2003C55.7001 50.5208 55.1564 49.9432 54.4429 49.9432ZM18.8342 38.5266H59.1658V29.2167H18.8342V38.5266ZM23.5231 36.8957C21.8922 36.8957 20.5331 35.5366 20.5331 33.8717C20.5331 32.2068 21.8922 30.8477 23.5231 30.8477C25.1881 30.8477 26.5472 32.2068 26.5472 33.8717C26.5472 35.5366 25.1881 36.8957 23.5231 36.8957ZM23.5231 32.6145C22.8436 32.6145 22.266 33.1921 22.266 33.8717C22.266 34.5513 22.8436 35.1289 23.5231 35.1289C24.2367 35.1289 24.7803 34.5513 24.7803 33.8717C24.7803 33.1921 24.2367 32.6145 23.5231 32.6145ZM54.4429 32.6145C53.7633 32.6145 53.1857 33.1921 53.1857 33.8717C53.1857 34.5513 53.7633 35.1289 54.4429 35.1289C55.1564 35.1289 55.7001 34.5513 55.7001 33.8717C55.7001 33.1921 55.1564 32.6145 54.4429 32.6145Z" fill="#F48120"/>
</svg>
