<svg width="80" height="80" viewBox="0 0 80 80" fill="none" xmlns="http://www.w3.org/2000/svg">
<path d="M40.0001 80C62.0915 80 80.0001 62.0914 80.0001 40C80.0001 17.9086 62.0915 0 40.0001 0C17.9087 0 6.10352e-05 17.9086 6.10352e-05 40C6.10352e-05 62.0914 17.9087 80 40.0001 80Z" fill="#FFF2E8"/>
<path d="M66.1875 13.5312C66.1867 12.8104 65.9 12.1194 65.3903 11.6097C64.8806 11.1 64.1896 10.8133 63.4688 10.8125H49.875C49.1542 10.8133 48.4632 11.1 47.9534 11.6097C47.4438 12.1194 47.157 12.8104 47.1562 13.5312V27.125C47.1558 27.7943 47.4032 28.44 47.8508 28.9375C47.4032 29.435 47.1558 30.0807 47.1562 30.75V32.8134C47.0419 32.7175 46.9263 32.6227 46.8081 32.5303L45.6919 33.9582C47.4769 35.3518 48.7824 37.2677 49.4262 39.4389C50.0701 41.61 50.02 43.928 49.2832 46.0694C48.5464 48.2107 47.1595 50.0686 45.3161 51.3838C43.4726 52.6991 41.2646 53.4061 39 53.4062C38.4395 53.4064 37.8799 53.3635 37.3259 53.2782L37.0491 55.0696C37.6947 55.1689 38.3468 55.2188 39 55.2188C41.9852 55.2214 44.8748 54.1665 47.1562 52.2414V62.4688C47.156 62.709 47.0604 62.9393 46.8905 63.1092C46.7206 63.2792 46.4903 63.3748 46.25 63.375H31.75C31.5097 63.3748 31.2794 63.2792 31.1095 63.1092C30.9396 62.9393 30.844 62.709 30.8438 62.4688V51.0327L31.4712 50.3787C29.9053 48.8764 28.8246 46.9399 28.3682 44.8184C27.9118 42.6969 28.1006 40.4873 28.9103 38.4739C29.7199 36.4605 31.1134 34.7353 32.9114 33.5204C34.7095 32.3055 36.83 31.6562 39 31.6562C39.2784 31.6562 39.5603 31.6669 39.8378 31.688L39.9748 29.8806C39.6519 29.8561 39.3239 29.8438 39 29.8438C37.0248 29.847 35.0776 30.3107 33.3129 31.1979C31.5482 32.0851 30.0146 33.3714 28.8338 34.9547C27.653 36.538 26.8574 38.3747 26.5103 40.3192C26.1632 42.2636 26.274 44.2622 26.834 46.1562H14.5312C13.8104 46.157 13.1194 46.4438 12.6097 46.9534C12.1 47.4632 11.8133 48.1542 11.8125 48.875V62.4688C11.8133 63.1896 12.1 63.8806 12.6097 64.3903C13.1194 64.9 13.8104 65.1867 14.5312 65.1875H28.125C28.7943 65.188 29.44 64.9405 29.9375 64.493C30.435 64.9405 31.0807 65.188 31.75 65.1875H46.25C46.9193 65.188 47.565 64.9405 48.0625 64.493C48.56 64.9405 49.2057 65.188 49.875 65.1875H63.4688C64.1896 65.1867 64.8806 64.9 65.3903 64.3903C65.9 63.8806 66.1867 63.1896 66.1875 62.4688V48.875C66.188 48.2057 65.9405 47.56 65.493 47.0625C65.9405 46.565 66.188 45.9193 66.1875 45.25V30.75C66.188 30.0807 65.9405 29.435 65.493 28.9375C65.9405 28.44 66.188 27.7943 66.1875 27.125V13.5312ZM22.6875 47.9688H25.4062V53.4062H22.6875V47.9688ZM29.0312 62.4688C29.031 62.709 28.9354 62.9393 28.7655 63.1092C28.5956 63.2792 28.3653 63.3748 28.125 63.375H14.5312C14.291 63.3748 14.0606 63.2792 13.8907 63.1092C13.7208 62.9393 13.6253 62.709 13.625 62.4688V48.875C13.6253 48.6347 13.7208 48.4044 13.8907 48.2345C14.0606 48.0646 14.291 47.969 14.5312 47.9688H20.875V54.3125C20.875 54.5529 20.9705 54.7833 21.1405 54.9533C21.3104 55.1233 21.5409 55.2188 21.7812 55.2188H26.3125C26.5529 55.2188 26.7833 55.1233 26.9533 54.9533C27.1233 54.7833 27.2188 54.5529 27.2188 54.3125V47.9688H27.5277C27.9359 48.8278 28.4404 49.6376 29.0312 50.3828V62.4688ZM58.0312 12.625H60.75V18.0625H58.0312V12.625ZM64.375 62.4688C64.3748 62.709 64.2792 62.9393 64.1092 63.1092C63.9393 63.2792 63.709 63.3748 63.4688 63.375H49.875C49.6347 63.3748 49.4044 63.2792 49.2345 63.1092C49.0646 62.9393 48.969 62.709 48.9688 62.4688V50.3711C49.5542 49.6283 50.0549 48.8226 50.4617 47.9688H56.2188V54.3125C56.2188 54.5529 56.3142 54.7833 56.4842 54.9533C56.6542 55.1233 56.8846 55.2188 57.125 55.2188H61.6562C61.8966 55.2188 62.127 55.1233 62.2971 54.9533C62.467 54.7833 62.5625 54.5529 62.5625 54.3125V47.9688H63.4688C63.709 47.969 63.9393 48.0646 64.1092 48.2345C64.2792 48.4044 64.3748 48.6347 64.375 48.875V62.4688ZM58.0312 53.4062V47.9688H60.75V53.4062H58.0312ZM64.375 45.25C64.3748 45.4903 64.2792 45.7206 64.1092 45.8905C63.9393 46.0604 63.709 46.156 63.4688 46.1562H51.1589C51.7395 44.2072 51.8436 42.1475 51.4624 40.1499C51.0813 38.1524 50.2261 36.2755 48.9688 34.6772V30.75C48.969 30.5097 49.0646 30.2794 49.2345 30.1095C49.4044 29.9396 49.6347 29.844 49.875 29.8438H56.2188V36.1875C56.2188 36.4279 56.3142 36.6583 56.4842 36.8283C56.6542 36.9983 56.8846 37.0938 57.125 37.0938H61.6562C61.8966 37.0938 62.127 36.9983 62.2971 36.8283C62.467 36.6583 62.5625 36.4279 62.5625 36.1875V29.8438H63.4688C63.709 29.844 63.9393 29.9396 64.1092 30.1095C64.2792 30.2794 64.3748 30.5097 64.375 30.75V45.25ZM58.0312 35.2812V29.8438H60.75V35.2812H58.0312ZM64.375 27.125C64.3748 27.3653 64.2792 27.5956 64.1092 27.7655C63.9393 27.9354 63.709 28.031 63.4688 28.0312H49.875C49.6347 28.031 49.4044 27.9354 49.2345 27.7655C49.0646 27.5956 48.969 27.3653 48.9688 27.125V13.5312C48.969 13.291 49.0646 13.0606 49.2345 12.8907C49.4044 12.7208 49.6347 12.6253 49.875 12.625H56.2188V18.9688C56.2188 19.2091 56.3142 19.4396 56.4842 19.6095C56.6542 19.7795 56.8846 19.875 57.125 19.875H61.6562C61.8966 19.875 62.127 19.7795 62.2971 19.6095C62.467 19.4396 62.5625 19.2091 62.5625 18.9688V12.625H63.4688C63.709 12.6253 63.9393 12.7208 64.1092 12.8907C64.2792 13.0606 64.3748 13.291 64.375 13.5312V27.125Z" fill="#F48120"/>
<path d="M15.7029 36.8283C15.8729 36.9983 16.1034 37.0938 16.3438 37.0938C16.5841 37.0938 16.8146 36.9983 16.9846 36.8283L25.8594 27.9534L28.8435 30.9377C29.0136 31.1076 29.2441 31.2031 29.4844 31.2031C29.7248 31.2031 29.9553 31.1076 30.1252 30.9377L40.8125 20.2504L43.7967 23.2346C43.9234 23.3613 44.0849 23.4477 44.2607 23.4826C44.4365 23.5176 44.6188 23.4995 44.7843 23.431C44.9499 23.3624 45.0915 23.2463 45.191 23.0972C45.2906 22.9482 45.3438 22.773 45.3438 22.5938V11.7188C45.3438 11.4784 45.2483 11.2479 45.0783 11.078C44.9084 10.908 44.6779 10.8125 44.4375 10.8125H33.5625C33.3833 10.8125 33.208 10.8657 33.0591 10.9653C32.91 11.0649 32.7939 11.2064 32.7252 11.372C32.6567 11.5376 32.6387 11.7198 32.6737 11.8956C32.7087 12.0714 32.7949 12.2329 32.9217 12.3596L35.9059 15.3438L29.4844 21.7653L26.5002 18.781C26.3303 18.6111 26.0998 18.5157 25.8594 18.5157C25.6191 18.5157 25.3886 18.6111 25.2185 18.781L12.0779 31.9217C11.908 32.0916 11.8125 32.3221 11.8125 32.5625C11.8125 32.8029 11.908 33.0334 12.0779 33.2033L15.7029 36.8283ZM25.8594 20.7034L28.8435 23.6877C29.0136 23.8576 29.2441 23.9531 29.4844 23.9531C29.7248 23.9531 29.9553 23.8576 30.1252 23.6877L37.8283 15.9846C37.9984 15.8146 38.0938 15.5841 38.0938 15.3438C38.0938 15.1034 37.9984 14.8729 37.8283 14.7029L35.7504 12.625H43.5312V20.4059L41.4533 18.3279C41.2834 18.158 41.0529 18.0626 40.8125 18.0626C40.5722 18.0626 40.3417 18.158 40.1717 18.3279L29.4844 29.0153L26.5002 26.031C26.3303 25.8611 26.0998 25.7656 25.8594 25.7656C25.6191 25.7656 25.3886 25.8611 25.2185 26.031L16.3438 34.9059L14.0004 32.5625L25.8594 20.7034Z" fill="#F48120"/>
<path d="M46.1706 36.8766L44.6545 35.3607C44.5107 35.2168 44.3224 35.1255 44.1203 35.1016C43.9182 35.0776 43.7139 35.1224 43.5403 35.2288L42.1313 36.0922L41.3368 35.7629L40.9532 34.1637C40.9057 33.9657 40.793 33.7894 40.6331 33.6634C40.4732 33.5373 40.2755 33.4688 40.072 33.4688H37.928C37.7245 33.4688 37.5268 33.5373 37.3669 33.6634C37.207 33.7894 37.0943 33.9657 37.0468 34.1637L36.6632 35.7629L35.8687 36.0922L34.4597 35.2288C34.2861 35.1225 34.0818 35.0777 33.8797 35.1016C33.6775 35.1255 33.4893 35.2168 33.3453 35.3607L31.8294 36.8767C31.6855 37.0207 31.5942 37.2088 31.5703 37.4109C31.5464 37.613 31.5912 37.8174 31.6976 37.9909L32.561 39.3999L32.2317 40.1945L30.6325 40.5781C30.4345 40.6255 30.2582 40.7382 30.1321 40.8982C30.006 41.058 29.9375 41.2557 29.9375 41.4593V43.6032C29.9375 43.8068 30.006 44.0045 30.1321 44.1643C30.2582 44.3243 30.4345 44.437 30.6325 44.4844L32.2317 44.868L32.561 45.6626L31.6976 47.0716C31.5912 47.2451 31.5464 47.4495 31.5703 47.6516C31.5942 47.8538 31.6855 48.0419 31.8294 48.1859L33.3455 49.7018C33.4894 49.8457 33.6776 49.937 33.8797 49.9609C34.0818 49.9848 34.2861 49.9401 34.4597 49.8337L35.8687 48.9703L36.6632 49.2996L37.0468 50.8988C37.0943 51.0968 37.207 51.2731 37.3669 51.3991C37.5268 51.5252 37.7245 51.5938 37.928 51.5938H40.072C40.2755 51.5938 40.4732 51.5252 40.6331 51.3991C40.793 51.2731 40.9057 51.0968 40.9532 50.8988L41.3368 49.2996L42.1313 48.9703L43.5403 49.8337C43.7139 49.9401 43.9182 49.9848 44.1203 49.9609C44.3225 49.937 44.5107 49.8457 44.6547 49.7018L46.1706 48.1858C46.3145 48.0418 46.4058 47.8537 46.4297 47.6516C46.4536 47.4495 46.4088 47.2451 46.3025 47.0716L45.439 45.6626L45.7683 44.868L47.3675 44.4844C47.5655 44.437 47.7418 44.3243 47.8679 44.1643C47.994 44.0045 48.0625 43.8068 48.0625 43.6032V41.4593C48.0625 41.2557 47.994 41.058 47.8679 40.8982C47.7418 40.7382 47.5655 40.6255 47.3675 40.5781L45.7683 40.1945L45.439 39.3999L46.3025 37.9909C46.4088 37.8174 46.4536 37.613 46.4297 37.4109C46.4058 37.2087 46.3145 37.0206 46.1706 36.8766ZM46.25 42.174V42.8885L44.8966 43.2132C44.7575 43.2465 44.6283 43.3122 44.5195 43.4051C44.4107 43.498 44.3255 43.6154 44.2706 43.7474L43.5878 45.3953C43.5331 45.5275 43.5103 45.6707 43.5215 45.8133C43.5327 45.9559 43.5776 46.0938 43.6522 46.2157L44.3837 47.4094L43.8781 47.9149L42.6845 47.1835C42.5626 47.1087 42.4246 47.064 42.2821 47.0528C42.1395 47.0415 41.9962 47.0642 41.8641 47.119L40.2162 47.8019C40.0841 47.8567 39.9667 47.9419 39.8739 48.0508C39.781 48.1595 39.7153 48.2888 39.6818 48.4279L39.3573 49.7812H38.6427L38.318 48.4279C38.2847 48.2888 38.219 48.1595 38.1261 48.0508C38.0333 47.9419 37.9159 47.8567 37.7838 47.8019L36.1359 47.119C36.0037 47.0643 35.8605 47.0415 35.7179 47.0528C35.5754 47.064 35.4374 47.1088 35.3155 47.1835L34.1219 47.9149L33.6163 47.4094L34.3478 46.2157C34.4224 46.0938 34.4673 45.9559 34.4785 45.8133C34.4897 45.6707 34.4669 45.5275 34.4122 45.3953L33.7294 43.7474C33.6745 43.6154 33.5893 43.498 33.4805 43.4051C33.3717 43.3122 33.2425 43.2465 33.1034 43.2131L31.75 42.8885V42.174L33.1034 41.8493C33.2425 41.816 33.3717 41.7503 33.4805 41.6574C33.5893 41.5645 33.6745 41.4471 33.7294 41.3151L34.4122 39.6672C34.4669 39.535 34.4897 39.3918 34.4785 39.2492C34.4673 39.1066 34.4224 38.9687 34.3478 38.8468L33.6163 37.6531L34.1219 37.1476L35.3155 37.879C35.4374 37.9537 35.5754 37.9984 35.7179 38.0096C35.8605 38.0208 36.0037 37.9982 36.1359 37.9435L37.7838 37.2606C37.9159 37.2058 38.0333 37.1206 38.1261 37.0117C38.219 36.903 38.2847 36.7737 38.3182 36.6346L38.6427 35.2812H39.3573L39.682 36.6346C39.7153 36.7737 39.781 36.903 39.8739 37.0117C39.9667 37.1206 40.0841 37.2058 40.2162 37.2606L41.8641 37.9435C41.9963 37.9982 42.1395 38.021 42.2821 38.0097C42.4246 37.9985 42.5626 37.9537 42.6845 37.879L43.8781 37.1476L44.3837 37.6531L43.6522 38.8468C43.5776 38.9687 43.5327 39.1066 43.5215 39.2492C43.5103 39.3918 43.5331 39.535 43.5878 39.6672L44.2706 41.3151C44.3255 41.4471 44.4107 41.5645 44.5195 41.6574C44.6283 41.7503 44.7575 41.816 44.8966 41.8494L46.25 42.174Z" fill="#F48120"/>
<path d="M39 38.9062C38.283 38.9062 37.5822 39.1189 36.9861 39.5172C36.3899 39.9155 35.9253 40.4817 35.651 41.144C35.3766 41.8064 35.3048 42.5352 35.4447 43.2385C35.5846 43.9416 35.9297 44.5875 36.4368 45.0945C36.9437 45.6015 37.5896 45.9467 38.2928 46.0866C38.996 46.2265 39.7249 46.1547 40.3872 45.8803C41.0496 45.6059 41.6158 45.1414 42.0141 44.5452C42.4124 43.9491 42.625 43.2482 42.625 42.5312C42.6239 41.5702 42.2417 40.6487 41.5621 39.9692C40.8825 39.2896 39.9611 38.9074 39 38.9062ZM39 44.3438C38.6416 44.3438 38.2911 44.2375 37.993 44.0383C37.695 43.8391 37.4627 43.5561 37.3255 43.2249C37.1883 42.8936 37.1524 42.5292 37.2223 42.1777C37.2923 41.8261 37.4649 41.5031 37.7183 41.2496C37.9719 40.9962 38.2948 40.8235 38.6464 40.7535C38.998 40.6836 39.3624 40.7195 39.6936 40.8567C40.0249 40.9939 40.3078 41.2262 40.5071 41.5243C40.7062 41.8223 40.8125 42.1727 40.8125 42.5312C40.8119 43.0118 40.6208 43.4725 40.281 43.8122C39.9413 44.1521 39.4805 44.3432 39 44.3438Z" fill="#F48120"/>
<path d="M14.5312 18.0625C15.2521 18.0633 15.9431 18.35 16.4528 18.8597C16.9625 19.3694 17.2492 20.0604 17.25 20.7812C17.25 21.0216 17.3455 21.2522 17.5154 21.4221C17.6854 21.592 17.9159 21.6875 18.1562 21.6875C18.3966 21.6875 18.6271 21.592 18.7971 21.4221C18.967 21.2522 19.0625 21.0216 19.0625 20.7812C19.0633 20.0604 19.35 19.3694 19.8597 18.8597C20.3694 18.35 21.0604 18.0633 21.7812 18.0625C22.0216 18.0625 22.2522 17.967 22.4221 17.7971C22.592 17.6271 22.6875 17.3966 22.6875 17.1562C22.6875 16.9159 22.592 16.6854 22.4221 16.5154C22.2522 16.3455 22.0216 16.25 21.7812 16.25C21.0604 16.2492 20.3694 15.9625 19.8597 15.4528C19.35 14.9431 19.0633 14.2521 19.0625 13.5312C19.0625 13.2909 18.967 13.0604 18.7971 12.8904C18.6271 12.7205 18.3966 12.625 18.1562 12.625C17.9159 12.625 17.6854 12.7205 17.5154 12.8904C17.3455 13.0604 17.25 13.2909 17.25 13.5312C17.2492 14.2521 16.9625 14.9431 16.4528 15.4528C15.9431 15.9625 15.2521 16.2492 14.5312 16.25C14.2909 16.25 14.0604 16.3455 13.8904 16.5154C13.7205 16.6854 13.625 16.9159 13.625 17.1562C13.625 17.3966 13.7205 17.6271 13.8904 17.7971C14.0604 17.967 14.2909 18.0625 14.5312 18.0625ZM18.1562 16.2471C18.4149 16.5915 18.721 16.8976 19.0654 17.1562C18.721 17.4149 18.4149 17.721 18.1562 18.0654C17.8976 17.721 17.5915 17.4149 17.2471 17.1562C17.5915 16.8976 17.8976 16.5915 18.1562 16.2471Z" fill="#F48120"/>
<path d="M40.8125 23.5C40.2748 23.5 39.7491 23.6595 39.302 23.9582C38.855 24.2569 38.5065 24.6815 38.3007 25.1784C38.0949 25.6751 38.0411 26.2218 38.146 26.7491C38.2509 27.2766 38.5099 27.761 38.89 28.1412C39.2703 28.5214 39.7547 28.7804 40.2821 28.8853C40.8095 28.9902 41.3562 28.9364 41.8529 28.7305C42.3497 28.5248 42.7743 28.1763 43.073 27.7292C43.3718 27.2821 43.5313 26.7565 43.5313 26.2188C43.5305 25.4979 43.2438 24.8069 42.7341 24.2972C42.2243 23.7875 41.5333 23.5008 40.8125 23.5ZM40.8125 27.125C40.6333 27.125 40.4581 27.0719 40.309 26.9723C40.16 26.8727 40.0438 26.7311 39.9753 26.5655C39.9066 26.4 39.8887 26.2177 39.9237 26.0419C39.9586 25.8661 40.0449 25.7047 40.1717 25.5779C40.2984 25.4512 40.4599 25.3648 40.6357 25.3299C40.8115 25.2949 40.9938 25.3128 41.1593 25.3815C41.3249 25.45 41.4665 25.5662 41.5661 25.7152C41.6656 25.8643 41.7188 26.0395 41.7188 26.2188C41.7185 26.459 41.6229 26.6893 41.453 26.8592C41.2831 27.0292 41.0528 27.1248 40.8125 27.125Z" fill="#F48120"/>
<path d="M20.875 37.0938C20.875 36.8534 20.7795 36.6228 20.6096 36.4529C20.4396 36.283 20.2091 36.1875 19.9688 36.1875C19.7284 36.1875 19.4979 36.283 19.3279 36.4529C19.158 36.6228 19.0625 36.8534 19.0625 37.0938C19.0617 37.8146 18.775 38.5056 18.2653 39.0153C17.7556 39.525 17.0646 39.8117 16.3438 39.8125C16.1034 39.8125 15.8729 39.908 15.7029 40.0779C15.533 40.2478 15.4375 40.4784 15.4375 40.7188C15.4375 40.9591 15.533 41.1897 15.7029 41.3596C15.8729 41.5295 16.1034 41.625 16.3438 41.625C17.0646 41.6258 17.7556 41.9125 18.2653 42.4222C18.775 42.9319 19.0617 43.6229 19.0625 44.3438C19.0625 44.5841 19.158 44.8147 19.3279 44.9846C19.4979 45.1545 19.7284 45.25 19.9688 45.25C20.2091 45.25 20.4396 45.1545 20.6096 44.9846C20.7795 44.8147 20.875 44.5841 20.875 44.3438C20.8758 43.6229 21.1625 42.9319 21.6722 42.4222C22.1819 41.9125 22.8729 41.6258 23.5938 41.625C23.8341 41.625 24.0647 41.5295 24.2346 41.3596C24.4045 41.1897 24.5 40.9591 24.5 40.7188C24.5 40.4784 24.4045 40.2478 24.2346 40.0779C24.0647 39.908 23.8341 39.8125 23.5938 39.8125C22.8729 39.8117 22.1819 39.525 21.6722 39.0153C21.1625 38.5056 20.8758 37.8146 20.875 37.0938ZM19.9688 41.6278C19.7101 41.2835 19.404 40.9774 19.0596 40.7188C19.404 40.4601 19.7101 40.154 19.9688 39.8097C20.2274 40.154 20.5335 40.4601 20.8779 40.7188C20.5335 40.9774 20.2274 41.2835 19.9688 41.6278Z" fill="#F48120"/>
<path d="M33.1436 53.7889C33.7705 54.1155 34.4236 54.3891 35.0963 54.6067L35.6536 52.882C35.0777 52.6956 34.5183 52.4614 33.9814 52.1817L33.1436 53.7889Z" fill="#F48120"/>
<path d="M41.5104 31.9473C42.0841 32.0829 42.6456 32.2651 43.1895 32.4924L43.8887 30.8201C43.2533 30.5547 42.5973 30.3417 41.9271 30.1833L41.5104 31.9473Z" fill="#F48120"/>
</svg>
