<svg width="80" height="80" viewBox="0 0 80 80" fill="none" xmlns="http://www.w3.org/2000/svg">
<path d="M40.0001 80C62.0915 80 80.0001 62.0914 80.0001 40C80.0001 17.9086 62.0915 0 40.0001 0C17.9087 0 6.10352e-05 17.9086 6.10352e-05 40C6.10352e-05 62.0914 17.9087 80 40.0001 80Z" fill="#FFF2E8"/>
<path d="M68.875 53.0662H67.3281V19.6641C67.3281 18.3266 66.7968 17.044 65.8511 16.0983C64.9054 15.1525 63.6228 14.6212 62.2853 14.6212H17.7147C16.3773 14.6212 15.0946 15.1525 14.1489 16.0983C13.2032 17.044 12.6719 18.3266 12.6719 19.6641V53.0662H11.125C10.8515 53.0662 10.5892 53.1749 10.3958 53.3683C10.2024 53.5617 10.0938 53.824 10.0938 54.0975V57.4697C10.0965 59.036 10.7199 60.5374 11.8275 61.645C12.9351 62.7526 14.4365 63.376 16.0028 63.3787H63.9972C65.5635 63.376 67.0649 62.7526 68.1725 61.645C69.2801 60.5374 69.9035 59.036 69.9062 57.4697V54.0975C69.9062 53.824 69.7976 53.5617 69.6042 53.3683C69.4108 53.1749 69.1485 53.0662 68.875 53.0662ZM14.7344 19.6641C14.7344 18.8736 15.0484 18.1156 15.6073 17.5567C16.1662 16.9977 16.9243 16.6837 17.7147 16.6837H62.2853C63.0757 16.6837 63.8338 16.9977 64.3927 17.5567C64.9516 18.1156 65.2656 18.8736 65.2656 19.6641V53.0662H49.2812C49.1212 53.0662 48.9633 53.1035 48.8201 53.1751C48.6769 53.2467 48.5523 53.3507 48.4563 53.4787L45.6719 57.1912H34.3281L31.5437 53.4375C31.4477 53.3094 31.3231 53.2055 31.1799 53.1339C31.0367 53.0623 30.8788 53.025 30.7188 53.025H14.7344V19.6641ZM67.8438 57.4697C67.8438 58.4899 67.4385 59.4682 66.7171 60.1896C65.9957 60.911 65.0174 61.3162 63.9972 61.3162H16.0028C14.9826 61.3162 14.0043 60.911 13.2829 60.1896C12.5615 59.4682 12.1562 58.4899 12.1562 57.4697V55.1287H30.2031L32.9875 58.8412C33.0836 58.9693 33.2081 59.0733 33.3513 59.1449C33.4945 59.2165 33.6524 59.2537 33.8125 59.2537H46.1875C46.3476 59.2537 46.5055 59.2165 46.6487 59.1449C46.7919 59.0733 46.9164 58.9693 47.0125 58.8412L49.7969 55.1287H67.8438V57.4697Z" fill="#F48120"/>
<path d="M40 50.0447C40.1807 50.0459 40.3585 49.9997 40.5156 49.9106L52.375 43.0631C52.5324 42.9723 52.663 42.8414 52.7535 42.6839C52.844 42.5263 52.8914 42.3476 52.8906 42.1659V28.4812C52.8914 28.2995 52.844 28.1208 52.7535 27.9633C52.663 27.8057 52.5324 27.6749 52.375 27.5841L40.5156 20.7366C40.3589 20.646 40.181 20.5984 40 20.5984C39.819 20.5984 39.6412 20.646 39.4844 20.7366L27.625 27.5841C27.4676 27.6749 27.3371 27.8057 27.2465 27.9633C27.156 28.1208 27.1087 28.2995 27.1094 28.4812V42.1659C27.1087 42.3476 27.156 42.5263 27.2465 42.6839C27.3371 42.8414 27.4676 42.9723 27.625 43.0631L39.4844 49.9106C39.6415 49.9997 39.8194 50.0459 40 50.0447ZM34.3591 26.0784L43.4547 32.1422L40 34.1325L30.2031 28.4812L34.3591 26.0784ZM41.0313 47.25V35.9062L44.3725 33.9778V36.855C44.3725 37.1285 44.4812 37.3908 44.6746 37.5842C44.868 37.7776 45.1303 37.8862 45.4038 37.8862C45.6773 37.8862 45.9396 37.7776 46.133 37.5842C46.3264 37.3908 46.435 37.1285 46.435 36.855V32.8125L50.8281 30.2756V41.6194L41.0313 47.25ZM40 22.8197L49.7969 28.4812L45.445 30.9872L36.3494 24.9337L40 22.8197ZM29.1719 30.2653L38.9688 35.9062V47.25L29.1719 41.5781V30.2653Z" fill="#F48120"/>
</svg>
