<svg xmlns="http://www.w3.org/2000/svg" width="60" height="60" viewBox="0 0 60 60">
  <g id="saas-software" transform="translate(-269 -1397)">
    <circle id="Ellipse_30" data-name="Ellipse 30" cx="30" cy="30" r="30" transform="translate(269 1397)" fill="#f48120"/>
    <path id="noun-cloud-computing-5285933" d="M10.034,37.758H32.112a.513.513,0,0,0,.512-.512V35.977A2.049,2.049,0,0,0,30.394,34.2H26.416V30.043h9.043a2.621,2.621,0,0,0,2.614-2.614V9.448a2.621,2.621,0,0,0-2.614-2.614H30.2a6.557,6.557,0,0,1,.384,1.173A4.929,4.929,0,0,1,32.04,9.02h3.485a.364.364,0,0,1,.363.363V25.64H6.259V9.382a.364.364,0,0,1,.363-.363h3.485a4.932,4.932,0,0,1,.9-.711,7.146,7.146,0,0,1,.23-1.474H6.687A2.621,2.621,0,0,0,4.073,9.448V27.429a2.621,2.621,0,0,0,2.614,2.614H15.73V34.2H11.752a2.049,2.049,0,0,0-2.229,1.781v1.269a.513.513,0,0,0,.512.512ZM21.658,21.265a1.462,1.462,0,1,1-1.17,0V16.247H18.895v4.345a.585.585,0,0,1-.585.585H15.331a1.462,1.462,0,1,1,0-1.17h2.394v-3.76h-4.14A3.751,3.751,0,0,1,12.173,9.02q-.01-.172-.01-.346A6,6,0,0,1,22.33,4.364a5.419,5.419,0,0,1,7.21,4.509,3.752,3.752,0,0,1-.979,7.374h-4.14v3.76h2.394a1.462,1.462,0,1,1,0,1.17H23.836a.585.585,0,0,1-.585-.585V16.247H21.657v5.018ZM18.16,4.358a.585.585,0,1,1,0,1.17,3.145,3.145,0,0,0-3.146,3.146.585.585,0,1,1-1.17,0A4.315,4.315,0,0,1,18.16,4.358Z" transform="translate(277.927 1406.323)" fill="#fff" fill-rule="evenodd"/>
  </g>
</svg>
