<svg xmlns="http://www.w3.org/2000/svg" xmlns:xlink="http://www.w3.org/1999/xlink" width="110" height="120" viewBox="0 0 110 120">
  <defs>
    <linearGradient id="linear-gradient" x1="0.5" x2="0.5" y2="1" gradientUnits="objectBoundingBox">
      <stop offset="0" stop-color="#f48120"/>
      <stop offset="1" stop-color="#ffd0a8"/>
    </linearGradient>
  </defs>
  <g id="noun-saas-6386083" transform="translate(-4.027 -0.36)">
    <g id="Group_130" data-name="Group 130" transform="translate(4.027 0.36)">
      <g id="Group_129" data-name="Group 129">
        <path id="Path_109" data-name="Path 109" d="M6.294,33.835a1.327,1.327,0,0,1-1.343-1.31V4.077a1.344,1.344,0,0,1,2.686,0V32.525A1.327,1.327,0,0,1,6.294,33.835Z" transform="translate(81.021 44.529)" fill-rule="evenodd" fill="url(#linear-gradient)"/>
        <path id="Path_110" data-name="Path 110" d="M3.257,33.835a1.327,1.327,0,0,1-1.343-1.31V4.077a1.327,1.327,0,0,1,1.343-1.31A1.327,1.327,0,0,1,4.6,4.077V32.525A1.327,1.327,0,0,1,3.257,33.835Z" transform="translate(22.877 44.529)" fill-rule="evenodd" fill="url(#linear-gradient)"/>
        <path id="Path_111" data-name="Path 111" d="M77.808,50.276H61.143a1.309,1.309,0,1,1,0-2.617H77.808A8.261,8.261,0,0,0,78.5,31.153a1.367,1.367,0,0,1-.92-.464,1.289,1.289,0,0,1-.31-.963c.024-.254.036-.51.036-.759a8.241,8.241,0,0,0-5.274-7.655,1.309,1.309,0,0,1-.835-1.182,8.425,8.425,0,0,0-8.473-8.073c-.218,0-.438.008-.654.022a1.347,1.347,0,0,1-1.364-.854,12.973,12.973,0,0,0-24.524,1.059,1.317,1.317,0,0,1-.685.827,1.375,1.375,0,0,1-1.089.06,8.621,8.621,0,0,0-3-.535,8.465,8.465,0,0,0-8.378,7.008,1.337,1.337,0,0,1-1.469,1.1c-.3-.03-.6-.046-.9-.046a8.383,8.383,0,0,0-8.476,8.267,8.214,8.214,0,0,0,.043.843A1.316,1.316,0,0,1,11.1,31.235a8.294,8.294,0,0,0-7.09,8.157,8.383,8.383,0,0,0,8.476,8.267H29.15a1.309,1.309,0,1,1,0,2.618H12.486A11.038,11.038,0,0,1,1.324,39.392,10.884,10.884,0,0,1,9.489,28.9,11.042,11.042,0,0,1,20.618,18.08,11.206,11.206,0,0,1,31.4,10.015a11.489,11.489,0,0,1,2.6.3,15.71,15.71,0,0,1,28.858-.876,11.13,11.13,0,0,1,10.966,9.795,10.824,10.824,0,0,1,6.161,9.481,10.865,10.865,0,0,1-2.177,21.563Z" transform="translate(11.579 -0.36)" fill-rule="evenodd" fill="url(#linear-gradient)"/>
        <path id="Path_112" data-name="Path 112" d="M21.466,44.058h6.7l.621-5.3a1.311,1.311,0,0,1,.889-1.086,14.7,14.7,0,0,0,4.684-2.642,1.371,1.371,0,0,1,1.411-.21l5.022,2.128,3.348-5.655-4.4-3.177a1.3,1.3,0,0,1-.521-1.293,14.057,14.057,0,0,0,0-5.281,1.294,1.294,0,0,1,.521-1.294l4.4-3.177-3.348-5.655-5.023,2.129a1.37,1.37,0,0,1-1.41-.207A14.66,14.66,0,0,0,29.672,10.7a1.319,1.319,0,0,1-.889-1.089l-.621-5.3h-6.7l-.621,5.3a1.319,1.319,0,0,1-.889,1.089,14.661,14.661,0,0,0-4.683,2.642,1.377,1.377,0,0,1-1.41.207L8.84,11.418,5.492,17.073l4.4,3.177a1.3,1.3,0,0,1,.521,1.294,14.084,14.084,0,0,0,0,5.281,1.294,1.294,0,0,1-.521,1.294l-4.4,3.177L8.84,36.949l5.023-2.129a1.376,1.376,0,0,1,1.41.208,14.67,14.67,0,0,0,4.683,2.642,1.318,1.318,0,0,1,.889,1.086l.621,5.3Zm7.894,2.62H20.267a1.331,1.331,0,0,1-1.335-1.16l-.664-5.671a17.264,17.264,0,0,1-4.087-2.306L8.811,39.818a1.362,1.362,0,0,1-1.7-.546l-4.546-7.68a1.289,1.289,0,0,1,.364-1.708l4.7-3.4a16.655,16.655,0,0,1,0-4.6l-4.7-3.4a1.289,1.289,0,0,1-.364-1.708L7.112,9.1a1.362,1.362,0,0,1,1.7-.546l5.371,2.276A17.266,17.266,0,0,1,18.268,8.52l.665-5.671a1.331,1.331,0,0,1,1.334-1.16H29.36a1.332,1.332,0,0,1,1.334,1.16l.664,5.671a17.256,17.256,0,0,1,4.087,2.306L40.817,8.55a1.361,1.361,0,0,1,1.7.546l4.547,7.68a1.29,1.29,0,0,1-.364,1.709l-4.7,3.4a16.612,16.612,0,0,1,0,4.6l4.7,3.4a1.29,1.29,0,0,1,.364,1.709l-4.547,7.68a1.362,1.362,0,0,1-1.7.546l-5.37-2.276a17.239,17.239,0,0,1-4.088,2.306l-.664,5.671a1.332,1.332,0,0,1-1.334,1.16Z" transform="translate(31.912 24.424)" fill-rule="evenodd" fill="url(#linear-gradient)"/>
        <path id="Path_113" data-name="Path 113" d="M13.269,4.943a7.509,7.509,0,0,0-7.594,7.4,7.51,7.51,0,0,0,7.594,7.407,7.51,7.51,0,0,0,7.594-7.407A7.509,7.509,0,0,0,13.269,4.943Zm0,17.431A10.167,10.167,0,0,1,2.989,12.347,10.167,10.167,0,0,1,13.269,2.323,10.166,10.166,0,0,1,23.55,12.347,10.167,10.167,0,0,1,13.269,22.374Z" transform="translate(43.456 36.258)" fill-rule="evenodd" fill="url(#linear-gradient)"/>
        <path id="Path_114" data-name="Path 114" d="M26.574,6.835a19.777,19.777,0,0,0-20,19.5,19.777,19.777,0,0,0,20,19.5,19.778,19.778,0,0,0,20-19.5A19.778,19.778,0,0,0,26.574,6.835Zm0,41.625c-12.507,0-22.683-9.923-22.683-22.122S14.067,4.215,26.574,4.215s22.684,9.923,22.684,22.122S39.082,48.459,26.574,48.459Z" transform="translate(60.741 71.53)" fill-rule="evenodd" fill="url(#linear-gradient)"/>
        <path id="Path_115" data-name="Path 115" d="M47.916,7.894H5.235a1.31,1.31,0,1,1,0-2.62H47.916a1.31,1.31,0,1,1,0,2.62Z" transform="translate(60.741 91.283)" fill-rule="evenodd" fill="url(#linear-gradient)"/>
        <path id="Path_116" data-name="Path 116" d="M23.364,11.205A40.187,40.187,0,0,1,4.783,7.174a1.293,1.293,0,0,1-.571-1.766,1.359,1.359,0,0,1,1.812-.559A37.5,37.5,0,0,0,23.364,8.585,37.493,37.493,0,0,0,40.705,4.849a1.362,1.362,0,0,1,1.812.559,1.294,1.294,0,0,1-.571,1.766A40.189,40.189,0,0,1,23.364,11.205Z" transform="translate(63.952 80.611)" fill-rule="evenodd" fill="url(#linear-gradient)"/>
        <path id="Path_117" data-name="Path 117" d="M41.324,12.155A1.361,1.361,0,0,1,40.7,12,37.526,37.526,0,0,0,23.364,8.268,37.527,37.527,0,0,0,6.023,12a1.359,1.359,0,0,1-1.812-.557,1.293,1.293,0,0,1,.571-1.766A40.187,40.187,0,0,1,23.364,5.648,40.188,40.188,0,0,1,41.946,9.682a1.294,1.294,0,0,1,.571,1.766A1.348,1.348,0,0,1,41.324,12.155Z" transform="translate(63.952 98.266)" fill-rule="evenodd" fill="url(#linear-gradient)"/>
        <path id="Path_118" data-name="Path 118" d="M17.723,6.835c-5.79,0-10.682,8.93-10.682,19.5s4.892,19.5,10.682,19.5,10.683-8.932,10.683-19.5S23.513,6.835,17.723,6.835Zm0,41.625c-7.5,0-13.369-9.718-13.369-22.122S10.226,4.215,17.723,4.215,31.092,13.93,31.092,26.337,25.219,48.459,17.723,48.459Z" transform="translate(69.593 71.53)" fill-rule="evenodd" fill="url(#linear-gradient)"/>
        <path id="Path_119" data-name="Path 119" d="M6.294,48.459a1.327,1.327,0,0,1-1.343-1.31V5.524a1.344,1.344,0,0,1,2.686,0V47.149A1.327,1.327,0,0,1,6.294,48.459Z" transform="translate(81.022 71.53)" fill-rule="evenodd" fill="url(#linear-gradient)"/>
        <path id="Path_120" data-name="Path 120" d="M4.678,6.835A1.294,1.294,0,0,0,3.37,8.109V36.817a1.292,1.292,0,0,0,1.308,1.275H48.959a1.292,1.292,0,0,0,1.308-1.274V8.109a1.294,1.294,0,0,0-1.308-1.274ZM48.959,40.711H4.678A3.949,3.949,0,0,1,.683,36.817V8.109A3.95,3.95,0,0,1,4.678,4.215H48.959a3.95,3.95,0,0,1,3.995,3.895V36.817a3.949,3.949,0,0,1-3.995,3.894Z" transform="translate(-0.683 71.53)" fill-rule="evenodd" fill="url(#linear-gradient)"/>
        <path id="Path_121" data-name="Path 121" d="M51.611,8.088H2.027a1.31,1.31,0,1,1,0-2.62H51.611a1.31,1.31,0,1,1,0,2.62Z" transform="translate(-0.683 94.909)" fill-rule="evenodd" fill="url(#linear-gradient)"/>
        <path id="Path_122" data-name="Path 122" d="M2.724,16.317a1.359,1.359,0,0,1-.425-.068,1.3,1.3,0,0,1-.85-1.657L4.1,6.833a1.35,1.35,0,0,1,1.7-.827A1.3,1.3,0,0,1,6.65,7.663L4,15.422A1.341,1.341,0,0,1,2.724,16.317Z" transform="translate(12.672 103.683)" fill-rule="evenodd" fill="url(#linear-gradient)"/>
        <path id="Path_123" data-name="Path 123" d="M6.311,16.317a1.341,1.341,0,0,1-1.274-.9L2.385,7.663a1.3,1.3,0,0,1,.849-1.656,1.351,1.351,0,0,1,1.7.827l2.652,7.759a1.3,1.3,0,0,1-.849,1.657,1.367,1.367,0,0,1-.425.068Z" transform="translate(30.564 103.683)" fill-rule="evenodd" fill="url(#linear-gradient)"/>
        <path id="Path_124" data-name="Path 124" d="M7.045,8.324H3.876a1.31,1.31,0,1,1,0-2.62H7.045a1.311,1.311,0,1,1,0,2.62Z" transform="translate(34.734 99.297)" fill-rule="evenodd" fill="url(#linear-gradient)"/>
        <path id="Path_125" data-name="Path 125" d="M6.669,8.324H3.5a1.31,1.31,0,1,1,0-2.62H6.669a1.311,1.311,0,1,1,0,2.62Z" transform="translate(27.525 99.297)" fill-rule="evenodd" fill="url(#linear-gradient)"/>
        <path id="Path_126" data-name="Path 126" d="M34.286,8.954H2.468a1.31,1.31,0,1,1,0-2.62H34.287a1.311,1.311,0,1,1,0,2.62Z" transform="translate(7.758 111.046)" fill-rule="evenodd" fill="url(#linear-gradient)"/>
        <path id="Path_127" data-name="Path 127" d="M19.537,7.894H4.488a1.31,1.31,0,1,1,0-2.62H19.537a1.31,1.31,0,1,1,0,2.62Z" transform="translate(46.44 91.283)" fill-rule="evenodd" fill="url(#linear-gradient)"/>
      </g>
    </g>
  </g>
</svg>
