<svg xmlns="http://www.w3.org/2000/svg" width="60" height="60" viewBox="0 0 60 60">
  <g id="Group_521" data-name="Group 521" transform="translate(-652 -4535)">
    <circle id="Ellipse_14" data-name="Ellipse 14" cx="30" cy="30" r="30" transform="translate(652 4535)" fill="#fff2e8"/>
    <g id="Layer_2" data-name="Layer 2" transform="translate(662.068 4545.068)">
      <g id="invisible_box" data-name="invisible box">
        <rect id="Rectangle_2704" data-name="Rectangle 2704" width="40" height="40" transform="translate(-0.068 -0.068)" fill="none"/>
      </g>
      <g id="icons_Q2" data-name="icons Q2" transform="translate(1.661 1.691)">
        <circle id="Ellipse_112" data-name="Ellipse 112" cx="2" cy="2" r="2" transform="translate(16.271 16.241)" fill="#f48120"/>
        <ellipse id="Ellipse_113" data-name="Ellipse 113" cx="2" cy="1.5" rx="2" ry="1.5" transform="translate(16.271 10.241)" fill="#f48120"/>
        <ellipse id="Ellipse_114" data-name="Ellipse 114" cx="2" cy="1.5" rx="2" ry="1.5" transform="translate(16.271 3.241)" fill="#f48120"/>
        <ellipse id="Ellipse_115" data-name="Ellipse 115" cx="2" cy="1.5" rx="2" ry="1.5" transform="translate(16.271 30.241)" fill="#f48120"/>
        <ellipse id="Ellipse_116" data-name="Ellipse 116" cx="2" cy="1.5" rx="2" ry="1.5" transform="translate(16.271 23.241)" fill="#f48120"/>
        <ellipse id="Ellipse_117" data-name="Ellipse 117" cx="1.5" cy="2" rx="1.5" ry="2" transform="translate(23.271 16.241)" fill="#f48120"/>
        <ellipse id="Ellipse_118" data-name="Ellipse 118" cx="1.5" cy="2" rx="1.5" ry="2" transform="translate(30.271 16.241)" fill="#f48120"/>
        <ellipse id="Ellipse_119" data-name="Ellipse 119" cx="1.5" cy="2" rx="1.5" ry="2" transform="translate(3.271 16.241)" fill="#f48120"/>
        <ellipse id="Ellipse_120" data-name="Ellipse 120" cx="1.5" cy="2" rx="1.5" ry="2" transform="translate(10.271 16.241)" fill="#f48120"/>
        <path id="Path_9166" data-name="Path 9166" d="M39.627,10.311a3.322,3.322,0,0,0-2.907,1.661H32.983V8.235a3.322,3.322,0,1,0-3.322,0v7.059H36.72a3.322,3.322,0,1,0,2.907-4.983Zm-8.3-3.322a1.661,1.661,0,1,1,1.661-1.661A1.661,1.661,0,0,1,31.322,6.989Zm8.3,8.3a1.661,1.661,0,1,1,1.661-1.661A1.661,1.661,0,0,1,39.627,15.294Z" transform="translate(-6.407 -2.036)" fill="#f48120"/>
        <path id="Path_9167" data-name="Path 9167" d="M2,13.633a3.322,3.322,0,0,0,6.229,1.661h7.059V8.235a3.322,3.322,0,1,0-3.322,0v3.737H8.229A3.322,3.322,0,0,0,2,13.633Zm9.966-8.3a1.661,1.661,0,1,1,1.661,1.661A1.661,1.661,0,0,1,11.966,5.328Zm-8.3,8.3a1.661,1.661,0,1,1,1.661,1.661A1.661,1.661,0,0,1,3.661,13.633Z" transform="translate(-1.999 -2.036)" fill="#f48120"/>
        <path id="Path_9168" data-name="Path 9168" d="M39.627,28a3.322,3.322,0,0,0-2.907,1.661H29.661V36.72a3.322,3.322,0,1,0,3.322,0V32.983H36.72A3.322,3.322,0,1,0,39.627,28Zm-8.3,13.288a1.661,1.661,0,1,1,1.661-1.661A1.661,1.661,0,0,1,31.322,41.288Zm8.3-8.3a1.661,1.661,0,1,1,1.661-1.661A1.661,1.661,0,0,1,39.627,32.983Z" transform="translate(-6.407 -6.437)" fill="#f48120"/>
        <path id="Path_9169" data-name="Path 9169" d="M15.294,36.72V29.661H8.235a3.322,3.322,0,1,0,0,3.322h3.737V36.72a3.322,3.322,0,1,0,3.322,0ZM5.328,32.983a1.661,1.661,0,1,1,1.661-1.661A1.661,1.661,0,0,1,5.328,32.983Zm8.3,8.3a1.661,1.661,0,1,1,1.661-1.661A1.661,1.661,0,0,1,13.633,41.288Z" transform="translate(-2.006 -6.437)" fill="#f48120"/>
      </g>
    </g>
  </g>
</svg>
