<svg xmlns="http://www.w3.org/2000/svg" width="60" height="60" viewBox="0 0 60 60">
  <g id="scheduling-and-route-management" transform="translate(-142 -5008)">
    <circle id="Ellipse_14" data-name="Ellipse 14" cx="30" cy="30" r="30" transform="translate(142 5008)" fill="#fff2e8"/>
    <path id="noun-waste-management-7025294" d="M3.044,22.539a.643.643,0,1,1-1.286,0A19,19,0,0,1,19.052,3.616L16.61,1.633a.64.64,0,0,1,.8-1L21.162,3.68a.639.639,0,0,1,.091.9L18.21,8.327a.636.636,0,0,1-.5.236.609.609,0,0,1-.4-.146.644.644,0,0,1-.1-.9l2.152-2.65A17.675,17.675,0,0,0,3.044,22.539ZM29.622,37.885a17.644,17.644,0,0,1-23.5-5.358l3.445.436a.642.642,0,1,0,.162-1.273l-4.788-.606a.639.639,0,0,0-.473.128.66.66,0,0,0-.245.428l-.611,4.789a.64.64,0,0,0,.556.717.472.472,0,0,0,.083,0,.641.641,0,0,0,.635-.56l.385-3.043A18.986,18.986,0,0,0,30.26,39a.644.644,0,0,0,.236-.875.637.637,0,0,0-.875-.236ZM41.707,29.6a.639.639,0,0,0-.837-.343l-2.831,1.186A19,19,0,0,0,30.265,6.082a.641.641,0,1,0-.638,1.111,17.639,17.639,0,0,1,7.107,23.024l-1.343-3.2a.64.64,0,1,0-1.181.494l1.871,4.452a.643.643,0,0,0,.593.394.659.659,0,0,0,.249-.05l4.452-1.871a.634.634,0,0,0,.332-.832ZM31.652,14.744v1.8A1.147,1.147,0,0,1,30.5,17.691h-.734l-1.156,14.86a2.1,2.1,0,0,1-2.089,1.932H15a2.109,2.109,0,0,1-2.089-1.932l-1.153-14.86h-.734a1.147,1.147,0,0,1-1.148-1.148v-1.8A1.147,1.147,0,0,1,11.025,13.6h4.659v-.141a2.862,2.862,0,0,1,2.857-2.86h4.441a2.866,2.866,0,0,1,2.86,2.86V13.6H30.5a1.151,1.151,0,0,1,1.15,1.148ZM16.968,13.6h7.6v-.141a1.581,1.581,0,0,0-1.579-1.579H18.542a1.578,1.578,0,0,0-1.576,1.579Zm11.517,4.1H13.045L14.19,32.453A.807.807,0,0,0,15,33.2H26.53a.812.812,0,0,0,.813-.75Zm1.884-2.815H11.158v1.531H30.366ZM14.595,25.925v-.954a.926.926,0,0,1,.635-.879l.526-.17a4.969,4.969,0,0,1,.39-.938l-.253-.5a.9.9,0,0,1,.175-1.069l.672-.672a.912.912,0,0,1,1.074-.17l.494.253a5.373,5.373,0,0,1,.938-.39l.17-.523a.912.912,0,0,1,.875-.643h.954a.927.927,0,0,1,.879.638l.17.526a5.191,5.191,0,0,1,.938.39l.494-.253a.918.918,0,0,1,1.069.17l.672.672a.909.909,0,0,1,.17,1.074l-.249.489a5.163,5.163,0,0,1,.39.938l.526.17a.921.921,0,0,1,.638.879v.954a.924.924,0,0,1-.638.879l-.526.17a5.341,5.341,0,0,1-.39.938l.253.494a.912.912,0,0,1-.17,1.069l-.672.672a.918.918,0,0,1-1.069.17l-.494-.249a5.414,5.414,0,0,1-.938.39l-.17.526a.921.921,0,0,1-.879.638h-.954a.912.912,0,0,1-.875-.643l-.17-.523a5.1,5.1,0,0,1-.938-.39l-.494.253a.916.916,0,0,1-1.074-.17l-.672-.672a.926.926,0,0,1-.17-1.079l.249-.489a5.038,5.038,0,0,1-.385-.938l-.526-.17a.9.9,0,0,1-.645-.871Zm1.281-.261.46.149a.011.011,0,0,1,.008,0,.918.918,0,0,1,.6.638,3.812,3.812,0,0,0,.407.983.9.9,0,0,1,.024.883l-.22.431.306.306.431-.22a.928.928,0,0,1,.883.024,3.812,3.812,0,0,0,.983.407.909.909,0,0,1,.643.609l.149.457h.431l.149-.46a.011.011,0,0,1,0-.008.916.916,0,0,1,.635-.6,4.2,4.2,0,0,0,.986-.407.9.9,0,0,1,.883-.024l.431.22.3-.3-.22-.436a.927.927,0,0,1,.024-.883,3.933,3.933,0,0,0,.407-.983.9.9,0,0,1,.6-.638.011.011,0,0,0,.008,0l.46-.149v-.431l-.46-.149a.911.911,0,0,1-.606-.643,4.12,4.12,0,0,0-.407-.983.912.912,0,0,1-.029-.875.011.011,0,0,1,0-.008l.22-.431-.3-.306-.431.22a.916.916,0,0,1-.888-.024,4.005,4.005,0,0,0-.978-.407h0a.922.922,0,0,1-.635-.6.011.011,0,0,0,0-.008l-.149-.46h-.431l-.152.46a.923.923,0,0,1-.643.606,3.953,3.953,0,0,0-.978.407.912.912,0,0,1-.888.024l-.431-.22-.306.306.22.431a.928.928,0,0,1-.024.883,3.781,3.781,0,0,0-.407.978.917.917,0,0,1-.614.646l-.457.149,0,.434Zm2.1-.219a2.786,2.786,0,1,1,2.786,2.786,2.787,2.787,0,0,1-2.786-2.786Zm1.281,0a1.5,1.5,0,1,0,1.5-1.5A1.507,1.507,0,0,0,19.259,25.446Z" transform="translate(150.242 5016.504)" fill="#f48120"/>
  </g>
</svg>
