<?xml version="1.0" encoding="UTF-8"?><svg id="Layer_1" xmlns="http://www.w3.org/2000/svg" viewBox="0 0 458 458"><path d="M225.2,448.47c-30.09-12.16-57.7-28.47-82.17-49.86-48.62-42.5-79.7-95.38-93.23-158.51-4.32-20.14-6.11-40.56-6.06-61.16.07-26.53.01-53.06.02-79.59,0-10.07,3.42-15.16,12.73-19.03,54.57-22.66,109.15-45.27,163.68-68.02,5.79-2.42,11.17-2.43,16.92-.04,54.54,22.72,109.1,45.41,163.7,67.99,8.7,3.6,12.82,9.65,12.77,19.1-.15,27.1,0,54.2-.06,81.3-.22,117.18-68.42,219.89-176.36,265.69-1.69.72-3.39,1.42-5.08,2.14h-6.85ZM380.25,157.35c-.33-.02-.66-.04-.99-.06,0-14.98-.07-29.95.06-44.93.02-2.78-.63-4.27-3.4-5.41-48.03-19.84-96-39.83-144.05-59.64-1.84-.76-4.54-.77-6.38,0-48.04,19.81-96.01,39.8-144.04,59.65-2.64,1.09-3.57,2.37-3.55,5.28.14,23.39-.54,46.81.3,70.17.59,16.46,1.63,33.18,5.08,49.22,17.83,82.93,65.61,142.61,141.91,179.58,2.4,1.16,4.3,1.25,6.77.11,37.01-17.17,68.3-41.61,93.42-73.78,28.07-35.93,45.7-76.48,51.26-121.77,2.37-19.33,2.47-38.93,3.61-58.41Z"/><path d="M209.12,240.12c15.31-15.36,29.49-29.59,43.68-43.81,9.77-9.79,19.53-19.58,29.33-29.33,7.84-7.8,18.4-8.21,25.44-1.06,6.95,7.05,6.56,17.45-1.12,25.14-27.79,27.85-55.61,55.67-83.45,83.46-8.44,8.42-18.19,8.35-26.66-.1-15.44-15.4-30.87-30.81-46.25-46.27-4.93-4.95-6.64-10.92-4.44-17.65,2.08-6.35,6.6-10.24,13.13-11.53,6.43-1.27,11.69,1.12,16.2,5.65,10.36,10.41,20.77,20.75,31.11,31.18,1.09,1.1,1.81,2.55,3.04,4.32Z"/></svg>