<svg id="secure-access_" data-name="secure-access " xmlns="http://www.w3.org/2000/svg" xmlns:xlink="http://www.w3.org/1999/xlink" width="45" height="45" viewBox="0 0 45 45">
  <defs>
    <linearGradient id="linear-gradient" x1="0.5" x2="0.156" y2="0.791" gradientUnits="objectBoundingBox">
      <stop offset="0" stop-color="#3e3e3e"/>
      <stop offset="1" stop-color="#1a1a1a"/>
    </linearGradient>
  </defs>
  <circle id="Ellipse_1" data-name="Ellipse 1" cx="22.5" cy="22.5" r="22.5" fill="url(#linear-gradient)"/>
  <g id="noun-password-6832127" transform="translate(1.188 -1.814)">
    <path id="Path_9332" data-name="Path 9332" d="M35.294,70.312H8.331a.558.558,0,0,0-.519.519v6.222a.558.558,0,0,0,.519.519H35.294a.558.558,0,0,0,.519-.519V70.831A.558.558,0,0,0,35.294,70.312ZM14.087,73.994l-1.3.415.778,1.089a.548.548,0,0,1-.1.726.737.737,0,0,1-.311.1.472.472,0,0,1-.415-.207l-.778-1.089-.778,1.089a.472.472,0,0,1-.415.207.737.737,0,0,1-.311-.1.507.507,0,0,1-.1-.726l.778-1.089-1.3-.415a.594.594,0,0,1-.363-.674.539.539,0,0,1,.674-.311l1.3.415V72.075a.519.519,0,0,1,1.037,0v1.348l1.3-.415a.539.539,0,0,1,.674.311.594.594,0,0,1-.363.674Zm6.585,0-1.3.415.778,1.089a.548.548,0,0,1-.1.726.737.737,0,0,1-.311.1.472.472,0,0,1-.415-.207l-.778-1.089-.778,1.089a.472.472,0,0,1-.415.207.737.737,0,0,1-.311-.1.558.558,0,0,1-.1-.726l.778-1.089-1.3-.415a.525.525,0,1,1,.363-.985l1.3.415V72.075a.49.49,0,0,1,.519-.519.52.52,0,0,1,.519.519v1.348l1.3-.415a.539.539,0,0,1,.674.311.7.7,0,0,1-.415.674Zm6.585,0-1.3.415.778,1.089a.548.548,0,0,1-.1.726.737.737,0,0,1-.311.1.472.472,0,0,1-.415-.207l-.778-1.089-.778,1.089a.472.472,0,0,1-.415.207.737.737,0,0,1-.311-.1.558.558,0,0,1-.1-.726l.778-1.089-1.3-.415a.525.525,0,1,1,.363-.985l1.3.415V72.075a.52.52,0,0,1,.519-.519.49.49,0,0,1,.519.519v1.348l1.3-.415a.539.539,0,0,1,.674.311.7.7,0,0,1-.415.674Zm6.533,0-1.3.415.778,1.089a.548.548,0,0,1-.1.726.737.737,0,0,1-.311.1.472.472,0,0,1-.415-.207l-.778-1.089-.778,1.089a.472.472,0,0,1-.415.207.737.737,0,0,1-.311-.1.507.507,0,0,1-.1-.726l.778-1.089-1.3-.415a.594.594,0,0,1-.363-.674.519.519,0,0,1,.674-.311l1.3.415V72.075a.519.519,0,0,1,1.037,0v1.348l1.3-.415a.539.539,0,0,1,.674.311.594.594,0,0,1-.363.674Z" transform="translate(0 -41.758)" fill="#fff"/>
    <path id="Path_9333" data-name="Path 9333" d="M29.008,25.443H42.231a.575.575,0,0,0,.57-.57V16.058a.575.575,0,0,0-.57-.57H40.26V12.48a4.667,4.667,0,0,0-9.333,0v3.007H29.009a.575.575,0,0,0-.57.57v8.815a.575.575,0,0,0,.57.57ZM35.594,22.7a2.23,2.23,0,1,1,0-4.459,2.213,2.213,0,0,1,2.23,2.23A2.246,2.246,0,0,1,35.594,22.7ZM32.586,12.48a3.007,3.007,0,1,1,6.015,0v3.007H32.586Z" transform="translate(-13.781)" fill="#fff"/>
  </g>
</svg>
