<svg width="80" height="80" viewBox="0 0 80 80" fill="none" xmlns="http://www.w3.org/2000/svg">
<g clip-path="url(#clip0_1_189)">
<mask id="mask0_1_189" style="mask-type:luminance" maskUnits="userSpaceOnUse" x="0" y="0" width="80" height="80">
<path d="M80 0H0V80H80V0Z" fill="white"/>
</mask>
<g mask="url(#mask0_1_189)">
<path d="M40 80C62.0914 80 80 62.0914 80 40C80 17.9086 62.0914 0 40 0C17.9086 0 0 17.9086 0 40C0 62.0914 17.9086 80 40 80Z" fill="#FFF2E8"/>
<path d="M64.1333 57.4286H60.6667V34.2857C60.6653 33.1495 60.2083 32.0602 59.396 31.2567C58.5835 30.4533 57.4822 30.0014 56.3333 30H50.2667C50.0368 30 49.8163 30.0903 49.6538 30.2511C49.4913 30.4118 49.4 30.6298 49.4 30.8571C49.4 31.0845 49.4913 31.3025 49.6538 31.4632C49.8163 31.6239 50.0368 31.7143 50.2667 31.7143H56.3333C57.0229 31.7143 57.6842 31.9852 58.1718 32.4675C58.6594 32.9497 58.9333 33.6038 58.9333 34.2857V57.4286H45.0667C44.8368 57.4286 44.6163 57.5189 44.4538 57.6796C44.2913 57.8403 44.2 58.0584 44.2 58.2857V60H33.8V58.2857C33.8 58.0584 33.7087 57.8403 33.5462 57.6796C33.3837 57.5189 33.1632 57.4286 32.9333 57.4286H13.8667C13.6368 57.4286 13.4164 57.5189 13.2538 57.6796C13.0913 57.8403 13 58.0584 13 58.2857V61.7143C13.0014 62.8505 13.4584 63.9398 14.2707 64.7433C15.0831 65.5467 16.1845 65.9986 17.3333 66H29.4667C29.6965 66 29.917 65.9097 30.0795 65.7489C30.242 65.5882 30.3333 65.3702 30.3333 65.1429C30.3333 64.9155 30.242 64.6975 30.0795 64.5368C29.917 64.3761 29.6965 64.2857 29.4667 64.2857H17.3333C16.6438 64.2857 15.9825 64.0148 15.4949 63.5325C15.0073 63.0503 14.7333 62.3962 14.7333 61.7143V59.1429H32.0667V60.8571C32.0667 61.0845 32.158 61.3025 32.3205 61.4632C32.483 61.6239 32.7035 61.7143 32.9333 61.7143H45.0667C45.2965 61.7143 45.517 61.6239 45.6795 61.4632C45.842 61.3025 45.9333 61.0845 45.9333 60.8571V59.1429H63.2667V61.7143C63.2667 62.3962 62.9927 63.0503 62.5051 63.5325C62.0175 64.0148 61.3562 64.2857 60.6667 64.2857H32.9333C32.7035 64.2857 32.483 64.3761 32.3205 64.5368C32.158 64.6975 32.0667 64.9155 32.0667 65.1429C32.0667 65.3702 32.158 65.5882 32.3205 65.7489C32.483 65.9097 32.7035 66 32.9333 66H60.6667C61.8155 65.9986 62.9169 65.5467 63.7293 64.7433C64.5416 63.9398 64.9986 62.8505 65 61.7143V58.2857C65 58.0584 64.9087 57.8403 64.7462 57.6796C64.5837 57.5189 64.3632 57.4286 64.1333 57.4286Z" fill="#F48120"/>
<path d="M61 63C61.5523 63 62 62.5523 62 62C62 61.4477 61.5523 61 61 61C60.4477 61 60 61.4477 60 62C60 62.5523 60.4477 63 61 63Z" fill="#F48120"/>
<path d="M57 63C57.5523 63 58 62.5523 58 62C58 61.4477 57.5523 61 57 61C56.4477 61 56 61.4477 56 62C56 62.5523 56.4477 63 57 63Z" fill="#F48120"/>
<path d="M21 63C21.5523 63 22 62.5523 22 62C22 61.4477 21.5523 61 21 61C20.4477 61 20 61.4477 20 62C20 62.5523 20.4477 63 21 63Z" fill="#F48120"/>
<path d="M17 63C17.5523 63 18 62.5523 18 62C18 61.4477 17.5523 61 17 61C16.4477 61 16 61.4477 16 62C16 62.5523 16.4477 63 17 63Z" fill="#F48120"/>
<path d="M42.5 44C42.7761 44 43 43.7761 43 43.5C43 43.2239 42.7761 43 42.5 43C42.2239 43 42 43.2239 42 43.5C42 43.7761 42.2239 44 42.5 44Z" fill="#F48120"/>
<path d="M46 44C46.5523 44 47 43.7761 47 43.5C47 43.2239 46.5523 43 46 43C45.4477 43 45 43.2239 45 43.5C45 43.7761 45.4477 44 46 44Z" fill="#F48120"/>
<path d="M49.5 44C49.7761 44 50 43.7761 50 43.5C50 43.2239 49.7761 43 49.5 43C49.2239 43 49 43.2239 49 43.5C49 43.7761 49.2239 44 49.5 44Z" fill="#F48120"/>
<path d="M53 44C53.5523 44 54 43.7761 54 43.5C54 43.2239 53.5523 43 53 43C52.4477 43 52 43.2239 52 43.5C52 43.7761 52.4477 44 53 44Z" fill="#F48120"/>
<path d="M49.875 50C49.643 50 49.4204 50.0878 49.2563 50.2441C49.0922 50.4003 49 50.6123 49 50.8333V54.1667C49 54.3877 49.0922 54.5997 49.2563 54.7559C49.4204 54.9122 49.643 55 49.875 55H55.125C55.357 55 55.5796 54.9122 55.7437 54.7559C55.9078 54.5997 56 54.3877 56 54.1667V50.8333C56 50.6123 55.9078 50.4003 55.7437 50.2441C55.5796 50.0878 55.357 50 55.125 50H49.875ZM54.25 53.3333H50.75V51.6667H54.25V53.3333Z" fill="#F48120"/>
<path d="M41.875 50C41.643 50 41.4204 50.0878 41.2563 50.2441C41.0922 50.4003 41 50.6123 41 50.8333V54.1667C41 54.3877 41.0922 54.5997 41.2563 54.7559C41.4204 54.9122 41.643 55 41.875 55H47.125C47.357 55 47.5796 54.9122 47.7437 54.7559C47.9078 54.5997 48 54.3877 48 54.1667V50.8333C48 50.6123 47.9078 50.4003 47.7437 50.2441C47.5796 50.0878 47.357 50 47.125 50H41.875ZM46.25 53.3333H42.75V51.6667H46.25V53.3333Z" fill="#F48120"/>
<path d="M62.3818 14H30.0909C29.3966 14 28.7306 14.2766 28.2396 14.7688C27.7486 15.2611 27.4727 15.9288 27.4727 16.625V25.375C27.4727 26.0711 27.7486 26.7389 28.2396 27.2311C28.7306 27.7234 29.3966 28 30.0909 28H38.4045L39.8323 29.75H21.3636C20.2067 29.7514 19.0977 30.2128 18.2796 31.0329C17.4616 31.8531 17.0014 32.9651 17 34.125V55.125C17 55.357 17.092 55.5796 17.2556 55.7437C17.4193 55.9078 17.6413 56 17.8727 56C18.1042 56 18.3262 55.9078 18.4898 55.7437C18.6535 55.5796 18.7455 55.357 18.7455 55.125V34.125C18.7455 33.4289 19.0213 32.7611 19.5123 32.2689C20.0033 31.7766 20.6693 31.5 21.3636 31.5H41.2618L45.9981 37.3039C46.0799 37.4041 46.1828 37.4849 46.2995 37.5405C46.4161 37.596 46.5436 37.6248 46.6727 37.625C46.7727 37.6251 46.872 37.6077 46.966 37.5734C47.1354 37.5127 47.2821 37.4011 47.3858 37.2537C47.4895 37.1063 47.5453 36.9304 47.5455 36.75V28H62.3818C63.0762 28 63.7421 27.7234 64.2331 27.2311C64.7241 26.7389 65 26.0711 65 25.375V16.625C65 15.9288 64.7241 15.2611 64.2331 14.7688C63.7421 14.2766 63.0762 14 62.3818 14ZM63.2545 25.375C63.2545 25.607 63.1626 25.8296 62.9989 25.9937C62.8353 26.1578 62.6133 26.25 62.3818 26.25H46.6727C46.4413 26.25 46.2193 26.3422 46.0556 26.5063C45.892 26.6704 45.8 26.893 45.8 27.125V34.3L39.4937 26.5729C39.412 26.4722 39.309 26.391 39.1922 26.3351C39.0754 26.2793 38.9476 26.2503 38.8182 26.25H30.0909C29.8595 26.25 29.6374 26.1578 29.4738 25.9937C29.3102 25.8296 29.2182 25.607 29.2182 25.375V16.625C29.2182 16.3929 29.3102 16.1704 29.4738 16.0063C29.6374 15.8422 29.8595 15.75 30.0909 15.75H62.3818C62.6133 15.75 62.8353 15.8422 62.9989 16.0063C63.1626 16.1704 63.2545 16.3929 63.2545 16.625V25.375Z" fill="#F48120"/>
<path d="M37.8821 18.75C37.7717 18.5495 37.5903 18.4032 37.3776 18.3432C37.1649 18.2831 36.9382 18.3143 36.7472 18.4297L35.832 18.9845V17.875C35.832 17.6429 35.7443 17.4204 35.5883 17.2563C35.4323 17.0922 35.2206 17 35 17C34.7794 17 34.5677 17.0922 34.4117 17.2563C34.2557 17.4204 34.168 17.6429 34.168 17.875V18.9845L33.2528 18.4297C33.0618 18.3155 32.8356 18.2854 32.6235 18.346C32.4116 18.4065 32.2309 18.5528 32.121 18.7529C32.0112 18.953 31.9811 19.1907 32.0372 19.4141C32.0934 19.6374 32.2313 19.8284 32.4208 19.9453L33.336 20.5L32.4208 21.0547C32.3254 21.1118 32.2417 21.1881 32.1744 21.2793C32.1072 21.3705 32.0578 21.4747 32.0291 21.5861C32.0003 21.6975 31.9928 21.8137 32.0069 21.9282C32.0211 22.0426 32.0566 22.153 32.1114 22.2529C32.1664 22.3528 32.2395 22.4404 32.3266 22.5105C32.4138 22.5806 32.5133 22.6319 32.6194 22.6613C32.7255 22.6908 32.836 22.698 32.9447 22.6823C33.0534 22.6667 33.1581 22.6286 33.2528 22.5703L34.168 22.0155V23.125C34.168 23.357 34.2557 23.5796 34.4117 23.7437C34.5677 23.9078 34.7794 24 35 24C35.2206 24 35.4323 23.9078 35.5883 23.7437C35.7443 23.5796 35.832 23.357 35.832 23.125V22.0155L36.7472 22.5703C36.8419 22.6286 36.9466 22.6667 37.0553 22.6823C37.164 22.698 37.2745 22.6908 37.3806 22.6613C37.4867 22.6319 37.5862 22.5806 37.6734 22.5105C37.7605 22.4404 37.8336 22.3528 37.8886 22.2529C37.9434 22.153 37.9789 22.0426 37.9931 21.9282C38.0072 21.8137 37.9997 21.6975 37.9709 21.5861C37.9422 21.4747 37.8928 21.3705 37.8256 21.2793C37.7583 21.1881 37.6746 21.1118 37.5792 21.0547L36.664 20.5L37.5792 19.9453C37.77 19.8289 37.9091 19.6377 37.9659 19.4136C38.0227 19.1894 37.9926 18.9508 37.8821 18.75Z" fill="#F48120"/>
<path d="M45.8693 18.75C45.7405 18.5495 45.5286 18.4032 45.2802 18.3432C45.0318 18.2831 44.767 18.3143 44.544 18.4297L43.4752 18.9845V17.875C43.4752 17.6429 43.3728 17.4204 43.1906 17.2563C43.0084 17.0922 42.7612 17 42.5035 17C42.2458 17 41.9987 17.0922 41.8165 17.2563C41.6343 17.4204 41.5319 17.6429 41.5319 17.875V18.9845L40.4631 18.4297C40.24 18.3155 39.9759 18.2854 39.7282 18.346C39.4806 18.4065 39.2697 18.5528 39.1413 18.7529C39.0131 18.953 38.9779 19.1907 39.0435 19.4141C39.1091 19.6374 39.2701 19.8284 39.4914 19.9453L40.5602 20.5L39.4914 21.0547C39.3801 21.1118 39.2822 21.1881 39.2037 21.2793C39.1252 21.3705 39.0675 21.4747 39.034 21.5861C39.0003 21.6975 38.9916 21.8137 39.0081 21.9282C39.0246 22.0426 39.0661 22.153 39.1302 22.2529C39.1943 22.3528 39.2797 22.4404 39.3814 22.5105C39.4833 22.5806 39.5995 22.6319 39.7233 22.6613C39.8472 22.6908 39.9764 22.698 40.1033 22.6823C40.2303 22.6667 40.3525 22.6286 40.4631 22.5703L41.5319 22.0155V23.125C41.5319 23.357 41.6343 23.5796 41.8165 23.7437C41.9987 23.9078 42.2458 24 42.5035 24C42.7612 24 43.0084 23.9078 43.1906 23.7437C43.3728 23.5796 43.4752 23.357 43.4752 23.125V22.0155L44.544 22.5703C44.7671 22.6844 45.0312 22.7145 45.2788 22.654C45.5264 22.5935 45.7374 22.4472 45.8657 22.2471C45.994 22.047 46.0292 21.8094 45.9636 21.586C45.898 21.3626 45.737 21.1716 45.5156 21.0547L44.4468 20.5L45.5156 19.9453C45.7384 19.8289 45.9009 19.6377 45.9673 19.4136C46.0335 19.1894 45.9984 18.9508 45.8693 18.75Z" fill="#F48120"/>
<path d="M52.888 18.75C52.7776 18.5495 52.5959 18.4032 52.383 18.3432C52.1701 18.2831 51.9431 18.3143 51.752 18.4297L50.8359 18.9845V17.875C50.8359 17.6429 50.7481 17.4204 50.5919 17.2563C50.4358 17.0922 50.2239 17 50.003 17C49.7822 17 49.5703 17.0922 49.4141 17.2563C49.258 17.4204 49.1702 17.6429 49.1702 17.875V18.9845L48.2541 18.4297C48.1593 18.3714 48.0545 18.3333 47.9457 18.3177C47.8369 18.302 47.7262 18.3092 47.62 18.3387C47.5138 18.3682 47.4142 18.4194 47.3269 18.4895C47.2397 18.5596 47.1665 18.6472 47.1116 18.7471C47.0567 18.847 47.0211 18.9574 47.007 19.0718C46.9928 19.1862 47.0003 19.3025 47.0291 19.4139C47.0578 19.5252 47.1073 19.6295 47.1746 19.7207C47.2419 19.8119 47.3258 19.8882 47.4212 19.9453L48.3373 20.5L47.4212 21.0547C47.3258 21.1118 47.2419 21.1881 47.1746 21.2793C47.1073 21.3705 47.0578 21.4747 47.0291 21.5861C47.0003 21.6975 46.9928 21.8137 47.007 21.9282C47.0211 22.0426 47.0567 22.153 47.1116 22.2529C47.1665 22.3528 47.2397 22.4404 47.3269 22.5105C47.4142 22.5806 47.5138 22.6319 47.62 22.6613C47.7262 22.6908 47.8369 22.698 47.9457 22.6823C48.0545 22.6667 48.1593 22.6286 48.2541 22.5703L49.1702 22.0155V23.125C49.1702 23.357 49.258 23.5796 49.4141 23.7437C49.5703 23.9078 49.7822 24 50.003 24C50.2239 24 50.4358 23.9078 50.5919 23.7437C50.7481 23.5796 50.8359 23.357 50.8359 23.125V22.0155L51.752 22.5703C51.9432 22.6844 52.1696 22.7145 52.3819 22.654C52.5941 22.5935 52.7749 22.4472 52.8849 22.2471C52.9948 22.047 53.025 21.8094 52.9688 21.586C52.9126 21.3626 52.7746 21.1716 52.5848 21.0547L51.6687 20.5L52.5848 19.9453C52.7758 19.8289 52.9151 19.6377 52.9719 19.4136C53.0287 19.1894 52.9986 18.9508 52.888 18.75Z" fill="#F48120"/>
<path d="M60.888 18.75C60.7776 18.5495 60.5959 18.4032 60.383 18.3432C60.1701 18.2831 59.9431 18.3143 59.752 18.4297L58.8359 18.9845V17.875C58.8359 17.6429 58.7481 17.4204 58.5919 17.2563C58.4358 17.0922 58.2239 17 58.003 17C57.7822 17 57.5703 17.0922 57.4141 17.2563C57.258 17.4204 57.1702 17.6429 57.1702 17.875V18.9845L56.2541 18.4297C56.1593 18.3714 56.0545 18.3333 55.9457 18.3177C55.8369 18.302 55.7262 18.3092 55.62 18.3387C55.5138 18.3682 55.4142 18.4194 55.3269 18.4895C55.2397 18.5596 55.1665 18.6472 55.1116 18.7471C55.0567 18.847 55.0211 18.9574 55.007 19.0718C54.9928 19.1862 55.0003 19.3025 55.0291 19.4139C55.0578 19.5252 55.1073 19.6295 55.1746 19.7207C55.2419 19.8119 55.3258 19.8882 55.4212 19.9453L56.3373 20.5L55.4212 21.0547C55.3258 21.1118 55.2419 21.1881 55.1746 21.2793C55.1073 21.3705 55.0578 21.4747 55.0291 21.5861C55.0003 21.6975 54.9928 21.8137 55.007 21.9282C55.0211 22.0426 55.0567 22.153 55.1116 22.2529C55.1665 22.3528 55.2397 22.4404 55.3269 22.5105C55.4142 22.5806 55.5138 22.6319 55.62 22.6613C55.7262 22.6908 55.8369 22.698 55.9457 22.6823C56.0545 22.6667 56.1593 22.6286 56.2541 22.5703L57.1702 22.0155V23.125C57.1702 23.357 57.258 23.5796 57.4141 23.7437C57.5703 23.9078 57.7822 24 58.003 24C58.2239 24 58.4358 23.9078 58.5919 23.7437C58.7481 23.5796 58.8359 23.357 58.8359 23.125V22.0155L59.752 22.5703C59.9432 22.6844 60.1696 22.7145 60.3819 22.654C60.5941 22.5935 60.7749 22.4472 60.8849 22.2471C60.9948 22.047 61.025 21.8094 60.9688 21.586C60.9126 21.3626 60.7746 21.1716 60.5848 21.0547L59.6687 20.5L60.5848 19.9453C60.7758 19.8289 60.9151 19.6377 60.9719 19.4136C61.0287 19.1894 60.9986 18.9508 60.888 18.75Z" fill="#F48120"/>
<path d="M38.9928 37.3484H38.6987C37.8436 37.3437 36.9918 37.235 36.1614 37.0245C35.9403 36.9697 35.707 37.0077 35.513 37.1299C35.319 37.2521 35.1801 37.4486 35.1269 37.6762C35.0736 37.9038 35.1105 38.1438 35.2293 38.3435C35.348 38.5431 35.539 38.686 35.7601 38.7408C36.5393 38.9359 37.3346 39.0556 38.1354 39.0982V41.1172C38.1394 42.8383 37.7652 44.5381 37.0407 46.0892C36.3162 47.6404 35.2602 49.0029 33.9517 50.0748L30.418 52.9851L26.8843 50.073C25.6503 49.0569 24.6404 47.7825 23.9214 46.3342C23.2025 44.8858 22.791 43.2967 22.7144 41.6723C22.6992 41.44 22.597 41.2229 22.4294 41.0665C22.2618 40.9102 22.0418 40.8268 21.8157 40.834C21.7031 40.8396 21.5926 40.868 21.4907 40.9177C21.3887 40.9674 21.2973 41.0372 21.2217 41.1233C21.1459 41.2094 21.0876 41.31 21.0497 41.4193C21.0118 41.5286 20.9954 41.6446 21.0011 41.7605C21.0901 43.6347 21.5651 45.4681 22.3948 47.1392C23.2244 48.8102 24.3896 50.2807 25.8133 51.4532L29.8821 54.8064C30.0342 54.9317 30.2232 55 30.418 55C30.6128 55 30.8018 54.9317 30.9539 54.8064L35.0227 51.4532C36.5327 50.2165 37.7513 48.6444 38.5873 46.8544C39.4234 45.0645 39.8551 43.1031 39.8503 41.1172V40.8781H55.285V46.1727H40.9239C40.6965 46.1727 40.4783 46.2656 40.3176 46.4311C40.1568 46.5966 40.0664 46.8211 40.0664 47.0551C40.0664 47.2891 40.1568 47.5136 40.3176 47.6791C40.4783 47.8445 40.6965 47.9375 40.9239 47.9375H56.1425C56.3699 47.9375 56.5881 47.8445 56.7488 47.6791C56.9096 47.5136 57 47.2891 57 47.0551V39.9957C57 39.7616 56.9096 39.5371 56.7488 39.3717C56.5881 39.2061 56.3699 39.1132 56.1425 39.1132H39.8503V38.2308C39.8503 37.9968 39.7599 37.7723 39.5992 37.6068C39.4384 37.4413 39.2202 37.3484 38.9928 37.3484Z" fill="#F48120"/>
<path d="M33.5493 35.8699C32.7317 35.42 31.9777 34.8738 31.3055 34.244C31.1404 34.0878 30.9166 34 30.6831 34C30.4497 34 30.2258 34.0878 30.0608 34.244C29.0286 35.2267 27.8009 36.0057 26.4485 36.536C25.0961 37.0663 23.646 37.3372 22.1822 37.3332H21.8803C21.6468 37.3332 21.4229 37.4211 21.2578 37.5773C21.0928 37.7337 21 37.9456 21 38.1666C21 38.3876 21.0928 38.5996 21.2578 38.7559C21.4229 38.9122 21.6468 39 21.8803 39H22.1822C25.3115 39.0081 28.3355 37.9311 30.6831 35.9724C31.2962 36.4736 31.9568 36.9199 32.6567 37.3057C32.7566 37.3642 32.8677 37.4032 32.9837 37.4203C33.0996 37.4375 33.218 37.4326 33.3319 37.4058C33.4458 37.379 33.5529 37.3309 33.6469 37.2644C33.7409 37.1979 33.8198 37.1142 33.8792 37.0184C33.9385 36.9226 33.9771 36.8164 33.9924 36.7062C34.0078 36.5961 33.9998 36.4841 33.9688 36.3771C33.9378 36.2699 33.8845 36.1696 33.812 36.0823C33.7396 35.9949 33.6493 35.9221 33.5467 35.8682L33.5493 35.8699Z" fill="#F48120"/>
<path d="M34.471 41.241L30.5978 44.9273L28.529 42.9583C28.3589 42.802 28.131 42.7154 27.8944 42.7174C27.6578 42.7193 27.4316 42.8096 27.2643 42.9688C27.097 43.128 27.0021 43.3434 27 43.5685C26.998 43.7937 27.089 44.0106 27.2533 44.1725L29.9599 46.7486C30.1291 46.9096 30.3585 47 30.5978 47C30.8371 47 31.0665 46.9096 31.2357 46.7486L35.7467 42.4552C35.9111 42.2932 36.002 42.0763 36 41.8512C35.9979 41.626 35.903 41.4107 35.7357 41.2515C35.5684 41.0923 35.3422 41.0019 35.1056 41C34.869 40.9981 34.6411 41.0846 34.471 41.241Z" fill="#F48120"/>
</g>
</g>
<defs>
<clipPath id="clip0_1_189">
<rect width="80" height="80" fill="white"/>
</clipPath>
</defs>
</svg>
