<?xml version="1.0" encoding="UTF-8"?><svg id="Layer_1" xmlns="http://www.w3.org/2000/svg" xmlns:xlink="http://www.w3.org/1999/xlink" viewBox="0 0 148.78 148.78"><defs><style>.cls-1{fill:#fff;}.cls-2{fill:url(#linear-gradient);}</style><linearGradient id="linear-gradient" x1="148.78" y1="77.61" x2="0" y2="77.61" gradientTransform="translate(0 152) scale(1 -1)" gradientUnits="userSpaceOnUse"><stop offset="0" stop-color="#3b3b3b"/><stop offset="1" stop-color="#191919"/></linearGradient></defs><circle class="cls-2" cx="74.39" cy="74.39" r="74.39"/><path class="cls-1" d="M117.29,82.06h-34.5c-.79,0-1.44-.64-1.44-1.44s.64-1.44,1.44-1.44h34.5c.79,0,1.44-.64,1.44-1.44v-11.5c0-.79-.65-1.44-1.44-1.44h-34.5c-.79,0-1.44-.64-1.44-1.44s.64-1.44,1.44-1.44h34.5c2.38,0,4.31,1.93,4.31,4.31v11.5c0,2.38-1.93,4.31-4.31,4.31Z"/><path class="cls-1" d="M88.54,76.31c-2.38,0-4.31-1.93-4.31-4.31s1.93-4.31,4.31-4.31,4.31,1.93,4.31,4.31-1.93,4.31-4.31,4.31ZM88.54,70.56c-.79,0-1.44.64-1.44,1.44s.65,1.44,1.44,1.44,1.44-.64,1.44-1.44-.65-1.44-1.44-1.44ZM100.04,76.31c-2.38,0-4.31-1.93-4.31-4.31s1.93-4.31,4.31-4.31,4.31,1.93,4.31,4.31-1.93,4.31-4.31,4.31ZM100.04,70.56c-.79,0-1.44.64-1.44,1.44s.65,1.44,1.44,1.44,1.44-.64,1.44-1.44-.65-1.44-1.44-1.44ZM111.54,76.31c-2.38,0-4.31-1.93-4.31-4.31s1.93-4.31,4.31-4.31,4.31,1.93,4.31,4.31-1.93,4.31-4.31,4.31ZM111.54,70.56c-.79,0-1.44.64-1.44,1.44s.65,1.44,1.44,1.44,1.44-.64,1.44-1.44-.65-1.44-1.44-1.44Z"/><path class="cls-1" d="M82.79,116.57h-46c-2.38,0-4.31-1.93-4.31-4.31V31.75c0-2.38,1.93-4.31,4.31-4.31h46c2.38,0,4.31,1.93,4.31,4.31v27.31c0,.79-.64,1.44-1.44,1.44s-1.44-.64-1.44-1.44v-27.31c0-.79-.65-1.44-1.44-1.44h-46c-.79,0-1.44.64-1.44,1.44v80.5c0,.79.65,1.44,1.44,1.44h46c.79,0,1.44-.64,1.44-1.44v-27.31c0-.79.64-1.44,1.44-1.44s1.44.64,1.44,1.44v27.31c0,2.38-1.93,4.31-4.31,4.31Z"/><path class="cls-1" d="M85.66,41.81h-51.75c-.79,0-1.44-.64-1.44-1.44s.64-1.44,1.44-1.44h51.75c.79,0,1.44.64,1.44,1.44s-.64,1.44-1.44,1.44ZM85.66,105.06h-51.75c-.79,0-1.44-.64-1.44-1.44s.64-1.44,1.44-1.44h51.75c.79,0,1.44.64,1.44,1.44s-.64,1.44-1.44,1.44ZM64.1,36.06h-8.63c-.79,0-1.44-.64-1.44-1.44s.64-1.44,1.44-1.44h8.63c.79,0,1.44.64,1.44,1.44s-.64,1.44-1.44,1.44ZM59.79,93.56c-11.89,0-21.56-9.67-21.56-21.56s9.67-21.56,21.56-21.56,21.56,9.67,21.56,21.56-9.67,21.56-21.56,21.56ZM59.79,53.31c-10.3,0-18.69,8.38-18.69,18.69s8.38,18.69,18.69,18.69,18.69-8.38,18.69-18.69-8.38-18.69-18.69-18.69Z"/><path class="cls-1" d="M59.79,83.5c-.79,0-1.44-.64-1.44-1.44v-2.88c0-.79.64-1.44,1.44-1.44s1.44.64,1.44,1.44v2.88c0,.79-.64,1.44-1.44,1.44ZM59.79,66.25c-.79,0-1.44-.64-1.44-1.44v-2.88c0-.79.64-1.44,1.44-1.44s1.44.64,1.44,1.44v2.88c0,.79-.64,1.44-1.44,1.44Z"/><path class="cls-1" d="M59.7,80.63c-2.42,0-4.43-1.19-5.25-3.11-.31-.73.03-1.58.76-1.89s1.57.03,1.89.76c.44,1.03,1.64,1.39,2.67,1.37.82,0,1.6-.24,2.15-.64.51-.37.75-.82.74-1.38-.01-1.21-.79-1.62-3.27-2.35-2.25-.65-5.32-1.55-5.35-5.08-.03-3.14,2.92-4.88,5.73-4.93,2.48.02,4.54,1.16,5.38,3.11.31.73-.03,1.57-.76,1.89-.73.31-1.58-.03-1.89-.76-.44-1.03-1.71-1.34-2.69-1.37-1.13.02-2.91.58-2.9,2.02.01,1.21.79,1.62,3.27,2.35,2.25.65,5.32,1.55,5.35,5.08.02,1.49-.67,2.81-1.92,3.73-1.04.75-2.39,1.18-3.81,1.19h-.11Z"/></svg>