<svg width="62" height="63" viewBox="0 0 62 63" fill="none" xmlns="http://www.w3.org/2000/svg">
<g filter="url(#filter0_d_0_41)">
<path d="M31.0004 53.67C44.8075 53.67 56.0004 42.4772 56.0004 28.67C56.0004 14.8629 44.8075 3.67004 31.0004 3.67004C17.1933 3.67004 6.00043 14.8629 6.00043 28.67C6.00043 42.4772 17.1933 53.67 31.0004 53.67Z" fill="white"/>
</g>
<path d="M40.4514 22.04H21.8394C20.7348 22.04 19.8394 22.9354 19.8394 24.04V36.948C19.8394 38.0525 20.7348 38.948 21.8394 38.948H40.4514C41.556 38.948 42.4514 38.0525 42.4514 36.948V24.04C42.4514 22.9354 41.556 22.04 40.4514 22.04Z" fill="#4989F5"/>
<path d="M41.2944 21.913H20.9714C20.3414 21.913 19.8524 26.785 19.8524 27.413L30.9824 38.948H41.2944C41.5978 38.9472 41.8886 38.8263 42.1032 38.6117C42.3177 38.3972 42.4386 38.1064 42.4394 37.803V23.057C42.4384 22.7537 42.3174 22.4632 42.1028 22.2488C41.8883 22.0345 41.5977 21.9138 41.2944 21.913Z" fill="url(#paint0_linear_0_41)"/>
<path d="M25.0024 24.871H31.4634V16.392H25.9724L25.0024 24.871Z" fill="#3C4BA6"/>
<path d="M37.9245 24.871H31.4635V16.392H36.9565L37.9245 24.871ZM42.4525 17.999L42.4604 18.028C42.4574 18.018 42.4545 18.009 42.4525 17.999Z" fill="#7BABF7"/>
<path d="M42.4565 18.028L42.4485 17.999C42.3489 17.5429 42.0961 17.1348 41.7322 16.8424C41.3683 16.55 40.9153 16.391 40.4485 16.392H36.9485L37.9155 24.872H44.3765L42.4565 18.028Z" fill="#3F51B5"/>
<path d="M20.4755 18L20.4675 18.029C20.4695 18.019 20.4735 18.009 20.4755 18Z" fill="#7BABF7"/>
<path d="M20.4664 18.028L20.4744 17.999C20.5739 17.5438 20.8259 17.1362 21.1888 16.8439C21.5516 16.5517 22.0035 16.3922 22.4694 16.392H25.9694L25.0024 24.872H18.5414L20.4664 18.028Z" fill="#7BABF7"/>
<path fill-rule="evenodd" clip-rule="evenodd" d="M25.0135 24.869C25.0135 25.7252 24.6733 26.5464 24.0679 27.1519C23.4624 27.7573 22.6412 28.0974 21.785 28.0974C20.9287 28.0974 20.1075 27.7573 19.5021 27.1519C18.8966 26.5464 18.5565 25.7252 18.5565 24.869H25.0135Z" fill="#709BE0"/>
<path fill-rule="evenodd" clip-rule="evenodd" d="M31.4704 24.869C31.4704 25.7252 31.1303 26.5464 30.5248 27.1519C29.9193 27.7573 29.0982 28.0974 28.2419 28.0974C27.3857 28.0974 26.5645 27.7573 25.959 27.1519C25.3536 26.5464 25.0134 25.7252 25.0134 24.869H31.4704Z" fill="#3C4BA6"/>
<path fill-rule="evenodd" clip-rule="evenodd" d="M37.9274 24.869C37.9274 25.7252 37.5873 26.5464 36.9818 27.1519C36.3764 27.7573 35.5552 28.0974 34.6989 28.0974C33.8427 28.0974 33.0215 27.7573 32.4161 27.1519C31.8106 26.5464 31.4705 25.7252 31.4705 24.869H37.9274Z" fill="#709BE0"/>
<path fill-rule="evenodd" clip-rule="evenodd" d="M44.3834 24.869C44.3834 25.7252 44.0433 26.5464 43.4378 27.1519C42.8323 27.7573 42.0112 28.0974 41.1549 28.0974C40.2987 28.0974 39.4775 27.7573 38.872 27.1519C38.2665 26.5464 37.9265 25.7252 37.9265 24.869H44.3834Z" fill="#3C4BA6"/>
<path d="M41.1554 33.616C41.1444 33.462 41.1254 33.322 41.0984 33.143H37.5765C37.5765 33.636 37.5765 34.173 37.5765 34.666H39.6164C39.5731 34.8957 39.4848 35.1146 39.3566 35.3101C39.2284 35.5055 39.0628 35.6737 38.8694 35.805V35.796C38.6197 35.9599 38.3383 36.0696 38.0434 36.118C37.7483 36.1733 37.4455 36.1733 37.1504 36.118C36.851 36.056 36.5675 35.9331 36.3174 35.757C35.9484 35.4951 35.6638 35.1312 35.4985 34.71C35.4855 34.677 35.4745 34.644 35.4625 34.61C35.3024 34.1389 35.3024 33.6281 35.4625 33.157C35.5749 32.8262 35.7601 32.5248 36.0044 32.275C36.2853 31.9841 36.6409 31.7763 37.0322 31.6743C37.4235 31.5724 37.8353 31.5802 38.2225 31.697C38.525 31.7897 38.8015 31.9525 39.0295 32.172L39.7175 31.484C39.8385 31.361 39.9645 31.243 40.0815 31.116C39.7324 30.7903 39.3225 30.5365 38.8754 30.369C38.0619 30.074 37.172 30.0663 36.3534 30.347L36.2684 30.377C35.3854 30.7088 34.659 31.3596 34.2325 32.201C33.9822 32.6978 33.8457 33.2441 33.8331 33.8002C33.8204 34.3563 33.9319 34.9082 34.1594 35.4159C34.3868 35.9235 34.7246 36.3741 35.1481 36.7348C35.5715 37.0954 36.0701 37.3572 36.6075 37.501C37.2351 37.6625 37.8925 37.6694 38.5234 37.521C39.113 37.3924 39.6561 37.1045 40.0936 36.6888C40.531 36.2731 40.846 35.7453 41.0044 35.163C41.1473 34.6606 41.1985 34.1365 41.1554 33.616Z" fill="white"/>
<defs>
<filter id="filter0_d_0_41" x="0.000427246" y="0.670044" width="62.0001" height="62" filterUnits="userSpaceOnUse" color-interpolation-filters="sRGB">
<feFlood flood-opacity="0" result="BackgroundImageFix"/>
<feColorMatrix in="SourceAlpha" type="matrix" values="0 0 0 0 0 0 0 0 0 0 0 0 0 0 0 0 0 0 127 0" result="hardAlpha"/>
<feOffset dy="3"/>
<feGaussianBlur stdDeviation="3"/>
<feColorMatrix type="matrix" values="0 0 0 0 0 0 0 0 0 0 0 0 0 0 0 0 0 0 0.071 0"/>
<feBlend mode="normal" in2="BackgroundImageFix" result="effect1_dropShadow_0_41"/>
<feBlend mode="normal" in="SourceGraphic" in2="effect1_dropShadow_0_41" result="shape"/>
</filter>
<linearGradient id="paint0_linear_0_41" x1="19.8524" y1="30.4305" x2="42.4394" y2="30.4305" gradientUnits="userSpaceOnUse">
<stop offset="0.03" stop-color="#4079D8"/>
<stop offset="1" stop-color="#4989F5"/>
</linearGradient>
</defs>
</svg>
