<svg xmlns="http://www.w3.org/2000/svg" xmlns:xlink="http://www.w3.org/1999/xlink" width="118.611" height="139.688" viewBox="0 0 118.611 139.688">
  <defs>
    <linearGradient id="linear-gradient" x1="0.5" x2="0.5" y2="1" gradientUnits="objectBoundingBox">
      <stop offset="0" stop-color="#f48120"/>
      <stop offset="1" stop-color="#f3b57f"/>
    </linearGradient>
  </defs>
  <g id="undraw_documents_re_isxv" transform="translate(0 0)">
    <path id="Path_9407" data-name="Path 9407" d="M202.185,213.783H181.751a3.986,3.986,0,0,1-3.981-3.981V128.074a3.986,3.986,0,0,1,3.981-3.981h55.425l10.144,9.058v16.468h-.468V133.36l-9.855-8.8H181.751a3.517,3.517,0,0,0-3.513,3.513V209.8a3.517,3.517,0,0,0,3.513,3.513h20.434Z" transform="translate(-177.77 -124.093)" fill="#ccc"/>
    <path id="Path_9408" data-name="Path 9408" d="M440.074,133.46h-6.323a3.986,3.986,0,0,1-3.981-3.981v-5.152a.234.234,0,1,1,.468,0v5.152a3.517,3.517,0,0,0,3.513,3.513h6.323a.234.234,0,0,1,0,.468Z" transform="translate(-370.757 -124.093)" fill="#ccc"/>
    <path id="Path_9409" data-name="Path 9409" d="M259.576,214.593H206.183a1.873,1.873,0,0,0,0,3.747h53.393a1.873,1.873,0,1,0,0-3.747Z" transform="translate(-198.095 -193.4)" fill="#e6e6e6"/>
    <path id="Path_9410" data-name="Path 9410" d="M232.646,180.593H206.183a1.873,1.873,0,0,0,0,3.747h26.462a1.873,1.873,0,0,0,0-3.747Z" transform="translate(-198.095 -167.362)" fill="#e6e6e6"/>
    <path id="Path_9411" data-name="Path 9411" d="M206.183,281.593a1.873,1.873,0,0,0,0,3.747h16.734v-3.747Z" transform="translate(-198.095 -244.71)" fill="#e6e6e6"/>
    <path id="Path_9412" data-name="Path 9412" d="M206.183,247.593a1.873,1.873,0,0,0,0,3.747h16.734v-3.747Z" transform="translate(-198.095 -218.672)" fill="#e6e6e6"/>
    <path id="Path_9413" data-name="Path 9413" d="M222.591,361.492h-15a3.868,3.868,0,0,1-3.864-3.864V337.957a3.868,3.868,0,0,1,3.864-3.864h15Z" transform="translate(-197.651 -284.916)" fill="#e6e6e6"/>
    <path id="Path_9414" data-name="Path 9414" d="M307.685,321.283H287.251a3.985,3.985,0,0,1-3.981-3.981V235.574a3.985,3.985,0,0,1,3.981-3.981h55.425l10.144,9.058v15.531h-.468V240.86l-9.855-8.8H287.251a3.517,3.517,0,0,0-3.513,3.513V317.3a3.517,3.517,0,0,0,3.513,3.513h20.434Z" transform="translate(-258.564 -206.419)" fill="#ccc"/>
    <path id="Path_9415" data-name="Path 9415" d="M545.574,240.96h-6.323a3.985,3.985,0,0,1-3.981-3.981v-5.152a.234.234,0,1,1,.468,0v5.152a3.517,3.517,0,0,0,3.513,3.513h6.323a.234.234,0,1,1,0,.468Z" transform="translate(-451.552 -206.419)" fill="#ccc"/>
    <path id="Path_9416" data-name="Path 9416" d="M365.076,322.093H311.683a1.873,1.873,0,1,0,0,3.747h53.393a1.873,1.873,0,0,0,0-3.747Z" transform="translate(-278.889 -275.726)" fill="#e6e6e6"/>
    <path id="Path_9417" data-name="Path 9417" d="M338.145,288.093H311.683a1.873,1.873,0,1,0,0,3.747h26.462a1.873,1.873,0,1,0,0-3.747Z" transform="translate(-278.889 -249.688)" fill="#e6e6e6"/>
    <path id="Path_9418" data-name="Path 9418" d="M365.076,322.093H311.683a1.873,1.873,0,1,0,0,3.747h53.393a1.873,1.873,0,0,0,0-3.747Z" transform="translate(-278.889 -275.726)" fill="#e6e6e6"/>
    <path id="Path_9419" data-name="Path 9419" d="M338.145,288.093H311.683a1.873,1.873,0,1,0,0,3.747h26.462a1.873,1.873,0,1,0,0-3.747Z" transform="translate(-278.889 -249.688)" fill="#e6e6e6"/>
    <path id="Path_9420" data-name="Path 9420" d="M311.683,389.093a1.873,1.873,0,1,0,0,3.747h16.734v-3.747Z" transform="translate(-278.889 -327.036)" fill="#e6e6e6"/>
    <path id="Path_9421" data-name="Path 9421" d="M311.683,355.093a1.873,1.873,0,1,0,0,3.747h16.734v-3.747Z" transform="translate(-278.889 -300.998)" fill="#e6e6e6"/>
    <path id="Path_9422" data-name="Path 9422" d="M311.683,389.093a1.873,1.873,0,1,0,0,3.747h16.734v-3.747Z" transform="translate(-278.889 -327.036)" fill="#e6e6e6"/>
    <path id="Path_9423" data-name="Path 9423" d="M311.683,355.093a1.873,1.873,0,1,0,0,3.747h16.734v-3.747Z" transform="translate(-278.889 -300.998)" fill="#e6e6e6"/>
    <path id="Path_9424" data-name="Path 9424" d="M328.091,468.992h-15a3.868,3.868,0,0,1-3.864-3.864V445.457a3.868,3.868,0,0,1,3.864-3.864h15Z" transform="translate(-278.445 -367.242)" fill="#e6e6e6"/>
    <path id="Path_9425" data-name="Path 9425" d="M389.176,338.178a3.98,3.98,0,0,0-1.906,3.4v.585h.468v-.585a3.519,3.519,0,0,1,2.611-3.4Zm57.5-.585H391.251a3.986,3.986,0,0,0-3.981,3.981V423.3a3.987,3.987,0,0,0,3.981,3.981h61.589a3.987,3.987,0,0,0,3.981-3.981V346.651Zm9.676,85.709a3.517,3.517,0,0,1-3.513,3.513H391.251a3.517,3.517,0,0,1-3.513-3.513V341.574a3.519,3.519,0,0,1,2.611-3.4,3.475,3.475,0,0,1,.9-.117H446.5l9.854,8.8Zm-67.176-85.124a3.98,3.98,0,0,0-1.906,3.4v.586h.468v-.586a3.519,3.519,0,0,1,2.611-3.4Z" transform="translate(-338.21 -287.596)"/>
    <path id="Path_9426" data-name="Path 9426" d="M649.574,346.96h-6.323a3.986,3.986,0,0,1-3.981-3.981v-5.152a.234.234,0,1,1,.468,0v5.152a3.517,3.517,0,0,0,3.513,3.513h6.323a.234.234,0,1,1,0,.468Z" transform="translate(-531.197 -287.596)"/>
    <path id="Path_9427" data-name="Path 9427" d="M469.078,431.84H415.685a1.873,1.873,0,1,1,0-3.747h53.392a1.873,1.873,0,1,1,0,3.747Z" transform="translate(-358.536 -356.903)" fill="#ccc"/>
    <path id="Path_9428" data-name="Path 9428" d="M442.148,397.84H415.685a1.873,1.873,0,1,1,0-3.747h26.462a1.873,1.873,0,1,1,0,3.747Z" transform="translate(-358.536 -330.865)" fill="#ccc"/>
    <path id="Path_9429" data-name="Path 9429" d="M469.078,498.84H415.685a1.873,1.873,0,1,1,0-3.747h53.392a1.873,1.873,0,1,1,0,3.747Z" transform="translate(-358.536 -408.213)" fill="#ccc"/>
    <path id="Path_9430" data-name="Path 9430" d="M442.148,464.84H415.685a1.873,1.873,0,1,1,0-3.747h26.462a1.873,1.873,0,0,1,0,3.747Z" transform="translate(-358.536 -382.175)" fill="#ccc"/>
    <path id="Path_9431" data-name="Path 9431" d="M466.739,574.992H417.093a3.868,3.868,0,0,1-3.864-3.864V551.457a3.868,3.868,0,0,1,3.864-3.864h49.646a3.868,3.868,0,0,1,3.864,3.864v19.671A3.868,3.868,0,0,1,466.739,574.992Z" transform="translate(-358.09 -448.419)" fill="url(#linear-gradient)"/>
  </g>
</svg>
