<svg width="62" height="63" viewBox="0 0 62 63" fill="none" xmlns="http://www.w3.org/2000/svg">
<g filter="url(#filter0_d_0_15)">
<path d="M31 53.67C44.8071 53.67 56 42.4772 56 28.67C56 14.8629 44.8071 3.67004 31 3.67004C17.1929 3.67004 6 14.8629 6 28.67C6 42.4772 17.1929 53.67 31 53.67Z" fill="white"/>
</g>
<path d="M44.593 28.9789C44.5937 28.0461 44.511 27.115 44.346 26.1969H31.535V31.4649H38.855C38.6989 32.2961 38.3763 33.0872 37.9067 33.7906C37.437 34.494 36.83 35.0951 36.122 35.5579V38.9829H40.542C41.8796 37.6923 42.9316 36.1354 43.63 34.4129C44.3285 32.6905 44.6579 30.8406 44.597 28.9829" fill="#4285F4"/>
<path d="M31.535 42.2699C34.8447 42.3615 38.0642 41.1849 40.535 38.9809L36.121 35.5559C35.0726 36.2335 33.8829 36.6621 32.6432 36.8089C31.4035 36.9556 30.1467 36.8166 28.969 36.4025C27.7914 35.9884 26.7242 35.3101 25.8491 34.4198C24.9741 33.5294 24.3146 32.4506 23.921 31.2659H19.395V34.7769C20.5252 37.0283 22.259 38.9213 24.4027 40.2445C26.5465 41.5676 29.0158 42.2689 31.535 42.2699Z" fill="#34A853"/>
<path d="M23.919 31.2529C23.3415 29.5783 23.3415 27.7585 23.919 26.0839V22.5729H19.395C18.4358 24.4618 17.9359 26.5504 17.9359 28.6689C17.9359 30.7874 18.4358 32.876 19.395 34.7649L22.919 32.0199L23.919 31.2529Z" fill="#FBBC05"/>
<path d="M31.535 20.4839C33.4682 20.4563 35.3359 21.1839 36.741 22.5119L40.636 18.6169C38.1764 16.3006 34.9144 15.0284 31.536 15.0679C29.0141 15.0685 26.5421 15.7714 24.3972 17.0979C22.2523 18.4243 20.5191 20.3219 19.392 22.5779L23.918 26.0889C24.4442 24.4772 25.4616 23.0705 26.8276 22.0663C28.1936 21.062 29.8397 20.5104 31.535 20.4889" fill="#EA4335"/>
<defs>
<filter id="filter0_d_0_15" x="0" y="0.670044" width="62" height="62" filterUnits="userSpaceOnUse" color-interpolation-filters="sRGB">
<feFlood flood-opacity="0" result="BackgroundImageFix"/>
<feColorMatrix in="SourceAlpha" type="matrix" values="0 0 0 0 0 0 0 0 0 0 0 0 0 0 0 0 0 0 127 0" result="hardAlpha"/>
<feOffset dy="3"/>
<feGaussianBlur stdDeviation="3"/>
<feColorMatrix type="matrix" values="0 0 0 0 0 0 0 0 0 0 0 0 0 0 0 0 0 0 0.071 0"/>
<feBlend mode="normal" in2="BackgroundImageFix" result="effect1_dropShadow_0_15"/>
<feBlend mode="normal" in="SourceGraphic" in2="effect1_dropShadow_0_15" result="shape"/>
</filter>
</defs>
</svg>
