<?xml version="1.0" encoding="UTF-8"?><svg id="Layer_1" xmlns="http://www.w3.org/2000/svg" xmlns:xlink="http://www.w3.org/1999/xlink" viewBox="0 0 148.78 148.78"><defs><style>.cls-1{fill:#fff;}.cls-2{fill:url(#linear-gradient);}</style><linearGradient id="linear-gradient" x1="148.78" y1="77.61" x2="0" y2="77.61" gradientTransform="translate(0 152) scale(1 -1)" gradientUnits="userSpaceOnUse"><stop offset="0" stop-color="#3b3b3b"/><stop offset="1" stop-color="#191919"/></linearGradient></defs><circle class="cls-2" cx="74.39" cy="74.39" r="74.39"/><path class="cls-1" d="M31.31,84.78l10.02.79c.83,3.22,2.11,6.3,3.83,9.21l-6.52,7.67c-.67.79-.63,1.96.1,2.69l8.71,8.71c.73.73,1.9.77,2.69.1l7.67-6.52c2.9,1.72,5.99,3,9.21,3.83l.79,10.02c.08,1.03.95,1.82,1.98,1.82h12.33c1.03,0,1.9-.79,1.98-1.82l.79-10.02c3.22-.83,6.3-2.11,9.21-3.83l7.67,6.52c.79.67,1.96.63,2.69-.1l8.71-8.71c.73-.73.77-1.9.1-2.69l-6.52-7.67c1.72-2.88,3-5.99,3.83-9.21l10.02-.79c1.03-.08,1.82-.95,1.82-1.98v-12.33c0-1.03-.79-1.9-1.82-1.98l-10.02-.79c-.83-3.22-2.11-6.3-3.83-9.21l6.52-7.67c.67-.79.63-1.96-.1-2.69l-8.71-8.71c-.73-.73-1.9-.77-2.69-.1l-7.67,6.52c-2.88-1.72-5.97-3-9.21-3.83l-.79-10.02c-.08-1.03-.95-1.82-1.98-1.82h-12.33c-1.03,0-1.9.79-1.98,1.82l-.79,10.02c-3.22.83-6.3,2.11-9.21,3.83l-7.67-6.52c-.79-.67-1.96-.61-2.69.1l-8.71,8.73c-.73.73-.77,1.9-.1,2.69l6.52,7.67c-1.72,2.88-3,5.99-3.83,9.21l-10.02.79c-1.03.08-1.82.95-1.82,1.98v12.33c0,1.01.79,1.88,1.82,1.96ZM33.44,72.29l9.64-.77c.87-.08,1.6-.71,1.78-1.56.81-3.75,2.29-7.31,4.41-10.59.47-.73.41-1.7-.16-2.35l-6.28-7.37,6.14-6.14,7.37,6.28c.67.57,1.62.63,2.35.16,3.26-2.11,6.82-3.6,10.59-4.41.85-.18,1.48-.91,1.56-1.78l.73-9.6h8.67l.77,9.64c.08.87.71,1.6,1.56,1.78,3.75.81,7.31,2.29,10.59,4.41.73.47,1.7.41,2.35-.16l7.37-6.28,6.14,6.14-6.28,7.37c-.57.67-.63,1.62-.16,2.35,2.11,3.26,3.6,6.82,4.41,10.59.18.85.91,1.48,1.78,1.56l9.64.77v8.69l-9.64.77c-.87.08-1.6.71-1.78,1.56-.81,3.75-2.29,7.31-4.41,10.59-.47.73-.41,1.7.16,2.35l6.28,7.37-6.14,6.14-7.37-6.28c-.66-.57-1.62-.63-2.35-.16-3.23,2.1-6.82,3.59-10.59,4.41-.85.18-1.48.91-1.56,1.78l-.75,9.56h-8.69l-.77-9.64c-.07-.87-.71-1.59-1.56-1.78-3.75-.79-7.31-2.27-10.59-4.41-.73-.48-1.69-.41-2.35.16l-7.37,6.28-6.14-6.14,6.28-7.37c.57-.67.63-1.62.16-2.35-2.1-3.23-3.6-6.82-4.41-10.59-.19-.85-.91-1.49-1.78-1.56l-9.6-.73v-8.69Z"/><path class="cls-1" d="M60.63,85.04h-4.29c-.81,0-1.48-.67-1.48-1.48,0-1.09-.89-1.98-1.98-1.98s-1.98.89-1.98,1.98c0,3,2.43,5.43,5.43,5.43h4.29c3,0,5.43-2.43,5.43-5.43v-3.46c0-3-2.43-5.43-5.43-5.43h-4.29c-.81,0-1.48-.67-1.48-1.48v-3.46c0-.81.65-1.48,1.48-1.48h4.29c.81,0,1.48.67,1.48,1.48,0,1.09.89,1.98,1.98,1.98s1.98-.89,1.98-1.98c0-3-2.43-5.43-5.43-5.43h-4.29c-2.98,0-5.43,2.43-5.43,5.43v3.46c0,3,2.43,5.43,5.43,5.43h4.29c.81,0,1.48.67,1.48,1.48v3.46c0,.81-.67,1.48-1.48,1.48ZM91.21,88.99h4.29c2.98,0,5.43-2.43,5.43-5.43v-13.83c0-3-2.43-5.43-5.43-5.43h-4.29c-3,0-5.43,2.43-5.43,5.43v13.83c0,3,2.43,5.43,5.43,5.43ZM89.73,69.73c0-.81.67-1.48,1.48-1.48h4.29c.81,0,1.48.67,1.48,1.48v13.83c0,.81-.65,1.48-1.48,1.48h-4.29c-.81,0-1.48-.67-1.48-1.48v-13.83ZM73.79,88.99h7.74c1.09,0,1.98-.89,1.98-1.98s-.89-1.98-1.98-1.98h-7.74c-.81,0-1.48-.67-1.48-1.48v-4.94h9.21c1.09,0,1.98-.89,1.98-1.98s-.89-1.98-1.98-1.98h-9.21v-4.94c0-.81.67-1.48,1.48-1.48h7.74c1.09,0,1.98-.89,1.98-1.98s-.89-1.98-1.98-1.98h-7.74c-3,0-5.43,2.43-5.43,5.43v13.83c0,3,2.43,5.43,5.43,5.43Z"/></svg>