<svg width="62" height="63" viewBox="0 0 62 63" fill="none" xmlns="http://www.w3.org/2000/svg">
<g filter="url(#filter0_d_0_63)">
<path d="M31 53.67C44.8071 53.67 56 42.4772 56 28.67C56 14.8629 44.8071 3.67004 31 3.67004C17.1929 3.67004 6 14.8629 6 28.67C6 42.4772 17.1929 53.67 31 53.67Z" fill="white"/>
</g>
<path d="M40.711 36.3874C40.7133 36.8438 40.6186 37.2954 40.4332 37.7125C40.2478 38.1295 39.9759 38.5024 39.6355 38.8065C39.2952 39.1105 38.8941 39.3388 38.4589 39.4762C38.0237 39.6136 37.5642 39.6569 37.111 39.6034C36.313 39.4863 35.5855 39.0811 35.0659 38.4642C34.5464 37.8474 34.2707 37.0616 34.291 36.2554V17.0794C34.2708 16.2727 34.5469 15.4865 35.0671 14.8696C35.5872 14.2527 36.3154 13.8478 37.114 13.7314C37.5672 13.6778 38.0266 13.7212 38.4619 13.8585C38.8971 13.9959 39.2982 14.2242 39.6385 14.5283C39.9789 14.8323 40.2508 15.2052 40.4362 15.6223C40.6216 16.0393 40.7163 16.491 40.714 16.9474L40.711 36.3874Z" fill="#F9AB00"/>
<path d="M20.5049 33.2093C21.14 33.2093 21.7608 33.3977 22.2889 33.7505C22.8169 34.1033 23.2285 34.6048 23.4715 35.1916C23.7146 35.7783 23.7781 36.4239 23.6542 37.0468C23.5303 37.6697 23.2245 38.2418 22.7755 38.6909C22.3264 39.1399 21.7543 39.4458 21.1314 39.5697C20.5085 39.6936 19.8629 39.63 19.2761 39.3869C18.6894 39.1439 18.1879 38.7323 17.8351 38.2043C17.4823 37.6762 17.2939 37.0554 17.2939 36.4204C17.2939 35.5687 17.6322 34.752 18.2344 34.1498C18.8366 33.5477 19.6533 33.2093 20.5049 33.2093ZM28.9529 23.4784C28.0956 23.5244 27.29 23.9027 26.7071 24.5331C26.1242 25.1634 25.8099 25.9961 25.8309 26.8544V35.4764C25.8309 37.8164 26.8609 39.2373 28.3699 39.5403C28.8377 39.6352 29.3208 39.6247 29.784 39.5097C30.2472 39.3947 30.679 39.178 31.0481 38.8753C31.4172 38.5727 31.7143 38.1917 31.9178 37.76C32.1214 37.3283 32.2263 36.8567 32.2249 36.3794V26.7034C32.2257 26.2757 32.1412 25.8521 31.9765 25.4574C31.8119 25.0627 31.5702 24.7047 31.2658 24.4043C30.9613 24.1039 30.6001 23.8672 30.2032 23.7079C29.8063 23.5486 29.3816 23.4699 28.9539 23.4764L28.9529 23.4784Z" fill="#E37400"/>
<defs>
<filter id="filter0_d_0_63" x="0" y="0.670044" width="62" height="62" filterUnits="userSpaceOnUse" color-interpolation-filters="sRGB">
<feFlood flood-opacity="0" result="BackgroundImageFix"/>
<feColorMatrix in="SourceAlpha" type="matrix" values="0 0 0 0 0 0 0 0 0 0 0 0 0 0 0 0 0 0 127 0" result="hardAlpha"/>
<feOffset dy="3"/>
<feGaussianBlur stdDeviation="3"/>
<feColorMatrix type="matrix" values="0 0 0 0 0 0 0 0 0 0 0 0 0 0 0 0 0 0 0.071 0"/>
<feBlend mode="normal" in2="BackgroundImageFix" result="effect1_dropShadow_0_63"/>
<feBlend mode="normal" in="SourceGraphic" in2="effect1_dropShadow_0_63" result="shape"/>
</filter>
</defs>
</svg>
