<svg width="149" height="149" viewBox="0 0 149 149" fill="none" xmlns="http://www.w3.org/2000/svg">
<path d="M74.39 148.78C115.474 148.78 148.78 115.474 148.78 74.39C148.78 33.3055 115.474 0 74.39 0C33.3055 0 0 33.3055 0 74.39C0 115.474 33.3055 148.78 74.39 148.78Z" fill="url(#paint0_linear_29_493)"/>
<path d="M35.9518 30C32.127 30 29 33.1293 29 36.9548V90.3384C29 94.1639 32.127 97.2901 35.9518 97.2901H56.4433C56.7749 97.6703 57.121 98.0434 57.4828 98.4053C64.6704 105.597 75.594 106.826 84.0594 102.093L97.972 116.027C100.326 118.383 104.185 118.383 106.539 116.027C108.893 113.672 108.893 109.807 106.539 107.451L96.3871 97.2901H112.048C115.873 97.2901 119 94.1639 119 90.3384V36.9548C119 33.1293 115.873 30 112.048 30H35.9518ZM35.9518 33.1062H112.048C114.207 33.1062 115.897 34.7938 115.897 36.9548V45.1551H32.1031V36.9548C32.1031 34.7938 33.7934 33.1062 35.9518 33.1062ZM41.0762 37.1063C39.9966 37.1345 39.1064 38.0415 39.1064 39.1276C39.1064 40.2309 40.025 41.158 41.1277 41.158C42.2304 41.158 43.1581 40.2309 43.1581 39.1276C43.1581 38.0243 42.2304 37.1063 41.1277 37.1063C41.1106 37.1063 41.0932 37.1059 41.0762 37.1063ZM50.2856 37.1063C49.206 37.1345 48.3158 38.0415 48.3158 39.1276C48.3158 40.2309 49.2344 41.158 50.3371 41.158C51.4398 41.158 52.3675 40.2309 52.3675 39.1276C52.3675 38.0243 51.4398 37.1063 50.3371 37.1063C50.32 37.1063 50.3026 37.1059 50.2856 37.1063ZM59.495 37.1063C58.4154 37.1345 57.5252 38.0415 57.5252 39.1276C57.5252 40.2309 58.4468 41.158 59.5495 41.158C60.6522 41.158 61.5768 40.2309 61.5768 39.1276C61.5768 38.0243 60.6522 37.1063 59.5495 37.1063C59.5324 37.1063 59.5119 37.1059 59.495 37.1063ZM32.1031 48.2582H115.897V90.3384C115.897 92.4994 114.207 94.187 112.048 94.187H93.287L92.6203 93.5203C96.2654 86.9831 96.3641 78.9807 92.9142 72.3651L103.893 61.192L103.745 65.4497C103.731 65.8592 103.88 66.2576 104.158 66.558C104.437 66.8583 104.823 67.0362 105.233 67.0528C105.438 67.0613 105.642 67.0291 105.834 66.9582C106.027 66.8873 106.203 66.7789 106.353 66.6394C106.503 66.5 106.624 66.3321 106.709 66.1456C106.794 65.9591 106.841 65.7576 106.848 65.5527L107.136 57.3191C107.142 57.1296 107.113 56.9406 107.051 56.7615C107.044 56.7391 107.036 56.7168 107.027 56.6948C107.018 56.6723 107.009 56.65 106.999 56.628C106.998 56.6259 106.997 56.6237 106.996 56.6216C106.978 56.5803 106.958 56.5399 106.936 56.5004C106.932 56.4943 106.928 56.4883 106.923 56.4822C106.914 56.4668 106.905 56.4516 106.896 56.4365C106.891 56.4284 106.886 56.4204 106.881 56.4125C106.882 56.4135 106.88 56.4114 106.881 56.4125C106.875 56.4022 106.865 56.3889 106.859 56.3788C106.851 56.3686 106.843 56.3584 106.835 56.3484C106.829 56.3413 106.823 56.3342 106.817 56.3272C106.807 56.313 106.797 56.2989 106.787 56.285C106.782 56.2789 106.776 56.2729 106.771 56.2668C106.759 56.2526 106.747 56.2385 106.735 56.2246C106.717 56.205 106.699 56.1858 106.68 56.1672C106.679 56.165 106.678 56.1628 106.677 56.1607C106.671 56.1566 106.665 56.1524 106.659 56.1484C106.567 56.0582 106.464 55.9798 106.353 55.915C106.349 55.914 106.345 55.913 106.341 55.9119C106.232 55.8507 106.116 55.8029 105.995 55.7695C105.979 55.7651 105.963 55.761 105.947 55.7572C105.837 55.7297 105.724 55.7143 105.61 55.7114C105.591 55.7111 105.572 55.7111 105.553 55.7114C105.546 55.7114 105.539 55.7114 105.532 55.7114L97.1344 55.9993C96.725 56.0159 96.3387 56.1938 96.06 56.4941C95.7812 56.7944 95.6326 57.1929 95.6465 57.6024C95.6531 57.8062 95.6999 58.0067 95.7841 58.1924C95.8683 58.3781 95.9882 58.5454 96.1371 58.6847C96.286 58.824 96.4609 58.9326 96.6518 59.0043C96.8427 59.076 97.0458 59.1093 97.2496 59.1025L101.747 58.9509L91.2342 69.6482C90.5488 68.6993 89.7815 67.7929 88.9281 66.939C80.258 58.2641 66.1516 58.2641 57.4816 66.939C50.1069 74.3178 49.0043 85.6305 54.1754 94.1854H35.9503C33.792 94.1854 32.1017 92.4977 32.1017 90.3368L32.1031 48.2582ZM73.2045 63.5193C78.0981 63.5193 82.993 65.3903 86.7353 69.1347C87.5996 69.9994 88.3616 70.9249 89.0263 71.8984L79.7744 81.3139L74.5955 75.253C74.4507 75.0836 74.2711 74.9474 74.069 74.8536C73.8668 74.7598 73.6469 74.7107 73.424 74.7095C73.2012 74.7083 72.9807 74.7552 72.7776 74.8469C72.5745 74.9385 72.3935 75.0729 72.2469 75.2407L62.0435 86.9472C61.7733 87.2571 61.6372 87.6616 61.665 88.0719C61.6928 88.4821 61.8824 88.8646 62.192 89.1351C62.5019 89.4054 62.9065 89.5415 63.3167 89.5137C63.727 89.4858 64.1094 89.2963 64.38 88.9866L73.4045 78.6317L78.5017 84.6229C78.6415 84.7871 78.814 84.9204 79.0083 85.0142C79.2025 85.108 79.4142 85.1603 79.6298 85.1677C79.8453 85.1751 80.0601 85.1375 80.2603 85.0572C80.4605 84.977 80.6418 84.8559 80.7926 84.7017L90.6142 74.7074C93.2675 80.5017 92.8728 87.3381 89.4323 92.8232C89.3837 92.8874 89.3401 92.9552 89.302 93.0262C88.5754 94.1526 87.7221 95.2207 86.7353 96.2081C85.7361 97.2079 84.6524 98.0723 83.5109 98.8052C83.481 98.8233 83.4517 98.8425 83.4231 98.8626C76.024 103.555 66.1363 102.671 59.6768 96.208C59.2368 95.7678 58.8226 95.3115 58.4343 94.8413C58.4158 94.8185 58.3966 94.7963 58.3768 94.7746C52.2187 87.2473 52.6534 76.1617 59.6768 69.1343C63.4191 65.39 68.3109 63.5193 73.2045 63.5193ZM90.8778 96.175L104.351 109.648C105.528 110.826 105.528 112.653 104.351 113.83C103.174 115.008 101.349 115.008 100.172 113.83L86.6989 100.354C87.4739 99.7609 88.2209 99.1141 88.9293 98.4053C89.6371 97.6972 90.2856 96.9498 90.8778 96.175Z" fill="white"/>
<defs>
<linearGradient id="paint0_linear_29_493" x1="148.78" y1="74.39" x2="0" y2="74.39" gradientUnits="userSpaceOnUse">
<stop stop-color="#3B3B3B"/>
<stop offset="1" stop-color="#191919"/>
</linearGradient>
</defs>
</svg>
