<svg width="64" height="64" viewBox="0 0 64 64" fill="none" xmlns="http://www.w3.org/2000/svg">
<path d="M32.0001 64C49.6732 64 64.0001 49.6731 64.0001 32C64.0001 14.3269 49.6732 0 32.0001 0C14.327 0 0.00012207 14.3269 0.00012207 32C0.00012207 49.6731 14.327 64 32.0001 64Z" fill="#F48120"/>
<path d="M14.7188 21.0625C13.3281 21.0625 11.9687 21.4749 10.8124 22.2475C9.65612 23.0201 8.7549 24.1182 8.22273 25.403C7.69055 26.6878 7.5513 28.1016 7.82261 29.4655C8.09391 30.8294 8.76357 32.0823 9.74691 33.0656C10.7302 34.0489 11.9831 34.7186 13.347 34.9899C14.711 35.2612 16.1247 35.122 17.4095 34.5898C18.6943 34.0576 19.7924 33.1564 20.565 32.0001C21.3376 30.8438 21.75 29.4844 21.75 28.0938C21.7479 26.2296 21.0065 24.4424 19.6883 23.1242C18.3701 21.806 16.5829 21.0646 14.7188 21.0625ZM14.7188 33.5625C13.6371 33.5625 12.5798 33.2418 11.6805 32.6408C10.7811 32.0399 10.0802 31.1858 9.66629 30.1865C9.25237 29.1873 9.14407 28.0877 9.35508 27.0268C9.5661 25.966 10.0869 24.9916 10.8518 24.2268C11.6166 23.4619 12.591 22.9411 13.6519 22.7301C14.7127 22.5191 15.8123 22.6274 16.8116 23.0413C17.8108 23.4552 18.6649 24.1561 19.2659 25.0555C19.8668 25.9548 20.1875 27.0121 20.1875 28.0938C20.1858 29.5436 19.6091 30.9337 18.5839 31.9589C17.5587 32.9841 16.1686 33.5608 14.7188 33.5625Z" fill="white"/>
<path d="M14.7188 17.9375C12.3016 17.9405 9.96475 18.8056 8.12821 20.3772C6.29167 21.9488 5.07587 24.1239 4.69933 26.5116C4.32278 28.8993 4.81017 31.343 6.07391 33.4035C7.33764 35.4641 9.29486 37.0063 11.5938 37.7531V40.5938C11.5938 40.801 11.6761 40.9997 11.8226 41.1462C11.9691 41.2927 12.1678 41.375 12.375 41.375V53.0938C12.375 53.301 12.4574 53.4997 12.6039 53.6462C12.7504 53.7927 12.9491 53.875 13.1563 53.875H16.2813C16.4885 53.875 16.6872 53.7927 16.8337 53.6462C16.9802 53.4997 17.0625 53.301 17.0625 53.0938V41.375C17.2697 41.375 17.4685 41.2927 17.615 41.1462C17.7615 40.9997 17.8438 40.801 17.8438 40.5938V37.7531C20.1427 37.0063 22.1 35.4641 23.3637 33.4035C24.6274 31.343 25.1148 28.8993 24.7383 26.5116C24.3617 24.1239 23.1459 21.9488 21.3094 20.3772C19.4728 18.8056 17.136 17.9405 14.7188 17.9375ZM15.5 52.3125H13.9375V41.375H15.5V52.3125ZM16.2813 38.25V39.8125H13.1563V38.25H16.2813ZM14.7188 36.6875C13.0191 36.6875 11.3576 36.1835 9.94437 35.2392C8.53113 34.2949 7.42965 32.9527 6.77921 31.3824C6.12877 29.8121 5.95858 28.0842 6.29018 26.4172C6.62177 24.7502 7.44024 23.2189 8.6421 22.0171C9.84396 20.8152 11.3752 19.9967 13.0422 19.6651C14.7093 19.3335 16.4372 19.5037 18.0075 20.1542C19.5778 20.8046 20.9199 21.9061 21.8642 23.3193C22.8085 24.7326 23.3125 26.3941 23.3125 28.0938C23.3099 30.3721 22.4036 32.5564 20.7925 34.1675C19.1815 35.7785 16.9972 36.6848 14.7188 36.6875Z" fill="white"/>
<path d="M10.8125 28.0938H12.375C12.375 27.4721 12.6219 26.876 13.0615 26.4365C13.501 25.9969 14.0971 25.75 14.7188 25.75V24.1875C13.6831 24.1887 12.6903 24.6007 11.958 25.333C11.2257 26.0653 10.8137 27.0581 10.8125 28.0938Z" fill="white"/>
<path d="M33.4688 22.625H35.0312V21.0625H36.5938V19.5H35.0312V17.9375H33.4688V19.5H31.9062V21.0625H33.4688V22.625Z" fill="white"/>
<path d="M35.8125 24.1875H29.5625V25.75H35.8125V24.1875Z" fill="white"/>
<path d="M38.9375 27.3125H29.5625V28.875H38.9375V27.3125Z" fill="white"/>
<path d="M38.9375 24.1875H37.375V25.75H38.9375V24.1875Z" fill="white"/>
<path d="M31.125 30.4375H29.5625V32H31.125V30.4375Z" fill="white"/>
<path d="M38.9375 30.4375H32.6875V32H38.9375V30.4375Z" fill="white"/>
<path d="M45.9476 21.0625H43.6453V22.625H45.9476V21.0625Z" fill="white"/>
<path d="M45.1875 33.575V32H48.3125C48.5197 32 48.7184 31.9177 48.8649 31.7712C49.0114 31.6247 49.0938 31.426 49.0938 31.2188V12.4688C49.0938 12.2616 49.0114 12.0628 48.8649 11.9163C48.7184 11.7698 48.5197 11.6875 48.3125 11.6875H45.1094C44.9301 10.8045 44.451 10.0106 43.7533 9.44034C43.0557 8.8701 42.1823 8.55859 41.2812 8.55859C40.3802 8.55859 39.5068 8.8701 38.8092 9.44034C38.1115 10.0106 37.6324 10.8045 37.4531 11.6875H34.2813C34.2742 11.6875 34.268 11.6875 34.2609 11.6875C34.2539 11.6875 34.2328 11.6875 34.2187 11.6875C33.3222 11.6892 32.4539 12.0015 31.7617 12.5713C31.0694 13.141 30.596 13.933 30.4219 14.8125H27.2188C27.0115 14.8125 26.8128 14.8948 26.6663 15.0413C26.5198 15.1878 26.4375 15.3866 26.4375 15.5938V34.3438C26.4375 34.551 26.5198 34.7497 26.6663 34.8962C26.8128 35.0427 27.0115 35.125 27.2188 35.125H31.125V36.6875H30.6117C27.018 36.6875 24.0938 39.3969 24.0938 42.7266V54.6563C24.0938 54.8635 24.1761 55.0622 24.3226 55.2087C24.4691 55.3552 24.6678 55.4375 24.875 55.4375H43.625C43.8322 55.4375 44.0309 55.3552 44.1774 55.2087C44.3239 55.0622 44.4062 54.8635 44.4062 54.6563V53.0938H50.6562C50.8635 53.0938 51.0622 53.0115 51.2087 52.8649C51.3552 52.7184 51.4375 52.5197 51.4375 52.3125V39.6016C51.4375 36.3555 48.657 33.707 45.1875 33.575ZM43.625 33.5625H42.0625V32H43.625V33.5625ZM47.5312 30.4375H42.0625V28.875H45.9688V27.3125H42.0625V25.75H45.9688V24.1875H42.0625V17.9375H43.625V16.375H42.0625V15.5938C42.0625 15.3866 41.9802 15.1878 41.8337 15.0413C41.6872 14.8948 41.4885 14.8125 41.2812 14.8125H38.0836L38.0781 14.7922C38.0781 14.7797 38.0711 14.7672 38.068 14.7539C38.0197 14.5294 37.9511 14.3098 37.8633 14.0977C37.8555 14.0781 37.8492 14.057 37.8406 14.0375C37.748 13.8251 37.6367 13.6215 37.5078 13.4289L37.4719 13.375C37.4438 13.3344 37.4188 13.2899 37.3891 13.25H47.5312V30.4375ZM41.3125 10.125C41.7943 10.1256 42.264 10.2764 42.6561 10.5565C43.0482 10.8365 43.3432 11.2319 43.5 11.6875H39.0633C39.2279 11.2247 39.5334 10.8251 39.9369 10.5449C40.3403 10.2646 40.8213 10.1178 41.3125 10.125ZM34.2813 13.25C34.4242 13.2512 34.5667 13.2655 34.707 13.293C34.7492 13.3008 34.7898 13.3133 34.8312 13.3234C34.9276 13.3469 35.0224 13.3766 35.1148 13.4125C35.1562 13.4281 35.1969 13.4445 35.2367 13.4633C35.334 13.5088 35.4279 13.561 35.518 13.6195C35.5422 13.6352 35.5672 13.6484 35.5914 13.6649C35.8268 13.8286 36.0299 14.0344 36.1906 14.2719C36.1969 14.2805 36.2023 14.2906 36.2078 14.2992C36.2833 14.4147 36.3486 14.5365 36.4031 14.6633L36.4156 14.693C36.432 14.732 36.4391 14.775 36.4531 14.8156H32.032C32.1962 14.3523 32.5014 13.952 32.9049 13.6712C33.3084 13.3903 33.7897 13.243 34.2813 13.25ZM28 16.375H40.5V33.5625H28V16.375ZM32.6875 35.125H35.8125V36.6875H32.6875V35.125ZM42.8438 53.875H25.6562V42.7266C25.6562 40.2578 27.8789 38.25 30.6117 38.25H37.8883C40.6211 38.25 42.8438 40.2578 42.8438 42.7266V53.875ZM49.875 51.5313H44.4062V42.7266C44.4062 39.3969 41.482 36.6875 37.8883 36.6875H37.375V35.1336C37.4664 35.1281 37.5547 35.125 37.643 35.125H44.9195C47.6523 35.125 49.875 37.1328 49.875 39.6016V51.5313Z" fill="white"/>
</svg>
