<svg xmlns="http://www.w3.org/2000/svg" width="36.312" height="31.124" viewBox="0 0 36.312 31.124">
  <g id="commerce_5311710_1_" data-name="commerce_5311710 (1)" transform="translate(-32 448)">
    <path id="Path_9260" data-name="Path 9260" d="M32.2-447.8c-.2.194-.2.211-.2,1.751a11.084,11.084,0,0,0,.1,1.872,2.212,2.212,0,0,0,.956,1.118l.243.1v7.53l.2.195.195.2H47.165l.195-.2.2-.195v-7.53l.243-.1a2.212,2.212,0,0,0,.956-1.118,11.084,11.084,0,0,0,.1-1.872c0-1.54,0-1.556-.2-1.751l-.195-.2H32.4Zm2.391,2.188c0,1.062-.008,1.11-.2,1.3a.632.632,0,0,1-.446.2.632.632,0,0,1-.446-.2c-.195-.186-.2-.235-.2-1.3V-446.7h1.3Zm2.594,0c0,1.062-.008,1.11-.2,1.3a.632.632,0,0,1-.446.2.632.632,0,0,1-.446-.2c-.195-.186-.2-.235-.2-1.3V-446.7h1.3Zm2.594,0c0,1.062-.008,1.11-.2,1.3a.632.632,0,0,1-.446.2.632.632,0,0,1-.446-.2c-.195-.186-.2-.235-.2-1.3V-446.7h1.3Zm2.594,0c0,1.062-.008,1.11-.2,1.3a.632.632,0,0,1-.446.2.632.632,0,0,1-.446-.2c-.195-.186-.2-.235-.2-1.3V-446.7h1.3Zm2.594,0c0,1.062-.008,1.11-.2,1.3a.632.632,0,0,1-.446.2.632.632,0,0,1-.446-.2c-.195-.186-.2-.235-.2-1.3V-446.7h1.3Zm2.594,0c0,1.062-.008,1.11-.2,1.3a.632.632,0,0,1-.446.2.632.632,0,0,1-.446-.2c-.195-.186-.2-.235-.2-1.3V-446.7h1.3ZM35.615-443.08a1.925,1.925,0,0,0,1.84.008l.381-.219.389.219a1.9,1.9,0,0,0,1.816,0l.389-.219.381.219a1.931,1.931,0,0,0,1.832,0l.381-.219.389.219a1.9,1.9,0,0,0,1.816,0l.389-.211.324.17.324.178v6.606h-1.3v-4.79l-.2-.195-.195-.2H36.288l-.195.2c-.2.195-.2.211-.2,1.743,0,2.1-.17,1.945,2.148,1.945h1.743v1.3H34.594v-6.606l.308-.17c.162-.1.308-.178.308-.186A3.249,3.249,0,0,1,35.615-443.08Zm4.166,3.51v.648H37.187v-1.3h2.594Zm3.891,1.3v1.945H41.078v-3.891h2.594Z"/>
    <path id="Path_9261" data-name="Path 9261" d="M255.789-430.863a22.694,22.694,0,0,0-2.488,1.183,3.013,3.013,0,0,0-.113,1.232v1.078h-2.95l.827-.843c.7-.705.827-.875.827-1.094a.677.677,0,0,0-.665-.657c-.235,0-.43.162-1.743,1.483-1.345,1.345-1.483,1.508-1.483,1.759s.138.413,1.483,1.759c1.313,1.321,1.508,1.483,1.743,1.483a.677.677,0,0,0,.665-.657c0-.219-.13-.389-.827-1.094l-.827-.843h2.95v1.086c0,.916.024,1.11.146,1.248a17.835,17.835,0,0,0,2.269,1.07l2.124.908v5.017l.2.194a.631.631,0,0,0,.446.2.632.632,0,0,0,.446-.2l.2-.194v-5.009l2.156-.924a15.63,15.63,0,0,0,2.269-1.086,12.249,12.249,0,0,0,.113-2.967c0-2.561-.016-2.829-.138-2.975a44.583,44.583,0,0,0-5.074-2.2C258.253-431.9,257.1-431.43,255.789-430.863Zm4.02.916a15.333,15.333,0,0,1,1.4.632c0,.024-.64.308-1.418.64l-1.418.592L257-428.674a11.444,11.444,0,0,1-1.378-.648,27.762,27.762,0,0,1,2.715-1.2A14.351,14.351,0,0,1,259.809-429.947Zm-3.072,2.577.989.421v3.777l-1.621-.7-1.621-.689v-3.777l.632.267C255.457-427.921,256.186-427.6,256.738-427.369Zm5.528.924v1.888l-1.556.681c-.851.373-1.581.689-1.621.705a13.885,13.885,0,0,1-.065-1.872v-1.9l1.6-.7c.875-.381,1.6-.689,1.621-.7S262.265-427.491,262.265-426.445Z" transform="translate(-198.493 -14.795)"/>
    <path id="Path_9262" data-name="Path 9262" d="M76.811-255.8l-.2.195v3.542l-.494.1a5.213,5.213,0,0,0-3.469,2.691,5.124,5.124,0,0,0,.956,6.006,5.125,5.125,0,0,0,7.3,0,5.09,5.09,0,0,0,1.386-2.5l.105-.5h3.647l-.827.843c-.7.705-.827.875-.827,1.094a.677.677,0,0,0,.665.657c.235,0,.43-.162,1.743-1.483,1.345-1.345,1.483-1.508,1.483-1.759s-.138-.413-1.483-1.759c-1.313-1.321-1.508-1.483-1.743-1.483a.677.677,0,0,0-.665.657c0,.219.13.389.827,1.094l.827.843H82.4l-.105-.511a5.186,5.186,0,0,0-3.882-3.874l-.5-.105V-255.6l-.2-.195a.632.632,0,0,0-.446-.2A.632.632,0,0,0,76.811-255.8Zm1.378,5.106a3.966,3.966,0,0,1,2.837,2.853,3.9,3.9,0,0,1-2.837,4.685,3.914,3.914,0,0,1-4.7-2.837A3.9,3.9,0,0,1,78.189-250.691Z" transform="translate(-36.828 -176.438)"/>
    <path id="Path_9263" data-name="Path 9263" d="M113.5-183.8a.614.614,0,0,0-.2.324c0,.1-.1.122-.446.122-.373,0-.486.032-.648.2-.195.186-.2.227-.2,1.418s.008,1.232.2,1.418.235.2,1.3.2h1.094v.648H113.5c-1.062,0-1.11.008-1.3.2a.6.6,0,0,0,0,.892c.154.162.276.2.624.2.405,0,.438.016.551.267a.69.69,0,0,0,.349.332.62.62,0,0,0,.786-.332c.113-.251.146-.267.551-.267.349,0,.47-.041.624-.2.195-.186.2-.227.2-1.418s-.008-1.232-.2-1.418-.235-.2-1.3-.2H113.3v-.648h1.094c1.062,0,1.11-.008,1.3-.2a.632.632,0,0,0,.2-.446c0-.413-.308-.648-.851-.648-.349,0-.446-.024-.446-.122,0-.219-.381-.527-.648-.527A.632.632,0,0,0,113.5-183.8Z" transform="translate(-73.516 -242.602)"/>
    <path id="Path_9264" data-name="Path 9264" d="M272.2-223.8c-.2.195-.2.211-.2,1.751a11.079,11.079,0,0,0,.1,1.872,2.212,2.212,0,0,0,.956,1.119l.243.1v7.53l.2.195.194.2h13.471l.195-.2.2-.195v-7.53l.243-.1a2.212,2.212,0,0,0,.956-1.119,11.083,11.083,0,0,0,.1-1.872c0-1.54,0-1.556-.2-1.751l-.194-.2H272.4Zm2.391,2.188c0,1.062-.008,1.11-.2,1.3a.632.632,0,0,1-.446.2.632.632,0,0,1-.446-.2c-.195-.186-.2-.235-.2-1.3V-222.7h1.3Zm2.594,0c0,1.062-.008,1.11-.2,1.3a.632.632,0,0,1-.446.2.632.632,0,0,1-.446-.2c-.195-.186-.2-.235-.2-1.3V-222.7h1.3Zm2.594,0c0,1.062-.008,1.11-.2,1.3a.632.632,0,0,1-.446.2.632.632,0,0,1-.446-.2c-.195-.186-.2-.235-.2-1.3V-222.7h1.3Zm2.594,0c0,1.062-.008,1.11-.2,1.3a.632.632,0,0,1-.446.2.632.632,0,0,1-.446-.2c-.195-.186-.2-.235-.2-1.3V-222.7h1.3Zm2.594,0c0,1.062-.008,1.11-.2,1.3a.632.632,0,0,1-.446.2.632.632,0,0,1-.446-.2c-.195-.186-.2-.235-.2-1.3V-222.7h1.3Zm2.594,0c0,1.062-.008,1.11-.2,1.3a.632.632,0,0,1-.446.2.632.632,0,0,1-.446-.2c-.194-.186-.2-.235-.2-1.3V-222.7h1.3Zm-11.947,2.529a1.925,1.925,0,0,0,1.84.008l.381-.219.389.219a1.472,1.472,0,0,0,.908.219,1.473,1.473,0,0,0,.908-.219l.389-.219.381.219a1.512,1.512,0,0,0,.916.219,1.513,1.513,0,0,0,.916-.219l.381-.219.389.219a1.9,1.9,0,0,0,1.816,0l.389-.211.324.17.324.178v6.606h-1.3v-4.79l-.2-.195-.195-.2h-8.284l-.194.2c-.2.195-.2.211-.2,1.743,0,2.1-.17,1.945,2.148,1.945h1.743v1.3h-5.187v-6.606l.308-.17c.162-.1.308-.178.308-.186A3.263,3.263,0,0,1,275.615-219.08Zm4.166,3.51v.648h-2.594v-1.3h2.594Zm3.891,1.3v1.945h-2.594v-3.891h2.594Z" transform="translate(-220.547 -205.844)"/>
  </g>
</svg>
