<svg width="64" height="64" viewBox="0 0 64 64" fill="none" xmlns="http://www.w3.org/2000/svg">
<path d="M32 64C49.6731 64 64 49.6731 64 32C64 14.3269 49.6731 0 32 0C14.3269 0 0 14.3269 0 32C0 49.6731 14.3269 64 32 64Z" fill="#F48120"/>
<path d="M24 27.3333H22.6667V28H22V29.3333H22.6667V30H24V29.3333H24.6667V28H24V27.3333Z" fill="white"/>
<path d="M22.6666 42.3906L21.2526 40.976L20.3099 41.9186L22.1953 43.8046C22.3203 43.9296 22.4898 43.9998 22.6666 43.9998C22.8434 43.9998 23.0129 43.9296 23.1379 43.8046L26.9093 40.0333L25.9666 39.0906L22.6666 42.3906Z" fill="white"/>
<path d="M50 35.3333C49.5063 35.3346 49.0309 35.52 48.6667 35.8533C48.3032 35.5189 47.8273 35.3333 47.3333 35.3333C46.8394 35.3333 46.3635 35.5189 46 35.8533C45.6358 35.52 45.1604 35.3346 44.6667 35.3333C44.4392 35.3351 44.2138 35.3757 44 35.4533V32H50C50.1768 32 50.3464 31.9298 50.4714 31.8047C50.5964 31.6797 50.6667 31.5101 50.6667 31.3333V20.6667C50.6667 20.4899 50.5964 20.3203 50.4714 20.1953C50.3464 20.0702 50.1768 20 50 20H34.6667V15.3333C34.6667 14.4493 34.3155 13.6014 33.6904 12.9763C33.0652 12.3512 32.2174 12 31.3333 12H15.3333C14.4493 12 13.6014 12.3512 12.9763 12.9763C12.3512 13.6014 12 14.4493 12 15.3333V48.6667C12 49.5507 12.3512 50.3986 12.9763 51.0237C13.6014 51.6488 14.4493 52 15.3333 52H31.3333C32.2174 52 33.0652 51.6488 33.6904 51.0237C34.3155 50.3986 34.6667 49.5507 34.6667 48.6667V32H40V33.4533C39.7862 33.3757 39.5608 33.3351 39.3333 33.3333H38C37.8232 33.3333 37.6536 33.4036 37.5286 33.5286C37.4036 33.6536 37.3333 33.8232 37.3333 34V42C37.3345 42.0469 37.3389 42.0937 37.3467 42.14L39.3467 51.4733C39.3787 51.6227 39.4611 51.7565 39.5801 51.8524C39.699 51.9482 39.8472 52.0004 40 52H49.3333C49.4822 51.9999 49.6268 51.9499 49.744 51.8581C49.8612 51.7663 49.9443 51.6379 49.98 51.4933L51.98 43.4933C51.9932 43.441 51.9999 43.3873 52 43.3333V37.3333C51.9984 36.8034 51.7872 36.2956 51.4125 35.9209C51.0377 35.5461 50.5299 35.3349 50 35.3333ZM28.92 13.3333L28.44 14.3C28.3841 14.411 28.2983 14.5041 28.1923 14.5689C28.0863 14.6337 27.9642 14.6675 27.84 14.6667H18.8267C18.7024 14.6675 18.5804 14.6337 18.4744 14.5689C18.3684 14.5041 18.2826 14.411 18.2267 14.3L17.7467 13.3333H28.92ZM33.3333 48.6667C33.3318 49.1966 33.1205 49.7044 32.7458 50.0791C32.3711 50.4539 31.8633 50.6651 31.3333 50.6667H15.3333C14.8034 50.6651 14.2956 50.4539 13.9209 50.0791C13.5461 49.7044 13.3349 49.1966 13.3333 48.6667V15.3333C13.3349 14.8034 13.5461 14.2956 13.9209 13.9209C14.2956 13.5461 14.8034 13.3349 15.3333 13.3333H16.2533L17.0333 14.8933C17.1991 15.2268 17.455 15.5072 17.7719 15.7028C18.0889 15.8984 18.4542 16.0013 18.8267 16H27.84C28.2124 16.0013 28.5778 15.8984 28.8947 15.7028C29.2117 15.5072 29.4675 15.2268 29.6333 14.8933L30.4133 13.3333H31.3333C31.8633 13.3349 32.3711 13.5461 32.7458 13.9209C33.1205 14.2956 33.3318 14.8034 33.3333 15.3333V20H30C29.8232 20 29.6536 20.0702 29.5286 20.1953C29.4036 20.3203 29.3333 20.4899 29.3333 20.6667V31.3333C29.3333 31.5101 29.4036 31.6797 29.5286 31.8047C29.6536 31.9298 29.8232 32 30 32H33.3333V48.6667ZM30.6667 30.6667V21.3333H49.3333V30.6667H44V27.3333C43.9987 27.0505 43.9374 26.7711 43.8202 26.5137C43.703 26.2563 43.5325 26.0267 43.32 25.84C43.2878 25.1893 43.0653 24.5623 42.6801 24.0368C42.2949 23.5113 41.764 23.1104 41.1532 22.8838C40.5423 22.6572 39.8784 22.6149 39.2437 22.762C38.609 22.9091 38.0314 23.2393 37.5826 23.7116C37.1338 24.1838 36.8334 24.7774 36.7187 25.4188C36.604 26.0602 36.6801 26.7211 36.9375 27.3196C37.1949 27.9181 37.6222 28.428 38.1666 28.786C38.711 29.1439 39.3485 29.3342 40 29.3333V30.6667H30.6667ZM41.88 25.3467C41.3724 25.3757 40.8951 25.5976 40.5457 25.9669C40.1962 26.3361 40.001 26.8249 40 27.3333V28C39.6323 28.0019 39.2712 27.9024 38.9564 27.7124C38.6416 27.5224 38.3852 27.2493 38.2155 26.9231C38.0458 26.5969 37.9693 26.2303 37.9944 25.8634C38.0195 25.4966 38.1453 25.1438 38.3578 24.8438C38.5704 24.5437 38.8616 24.3081 39.1994 24.1628C39.5371 24.0175 39.9084 23.9681 40.2724 24.0201C40.6364 24.0721 40.9791 24.2234 41.2627 24.4574C41.5463 24.6915 41.7599 24.9991 41.88 25.3467ZM50.6667 43.2533L48.8133 50.6667H40.54L38.6667 41.9267V34.6667H39.3333C39.5101 34.6667 39.6797 34.7369 39.8047 34.8619C39.9298 34.987 40 35.1565 40 35.3333V40.6667H41.3333V27.3333C41.3333 27.1565 41.4036 26.987 41.5286 26.8619C41.6536 26.7369 41.8232 26.6667 42 26.6667C42.1768 26.6667 42.3464 26.7369 42.4714 26.8619C42.5964 26.987 42.6667 27.1565 42.6667 27.3333V40.6667H44V37.3333C44 37.1565 44.0702 36.987 44.1953 36.8619C44.3203 36.7369 44.4899 36.6667 44.6667 36.6667C44.8435 36.6667 45.013 36.7369 45.1381 36.8619C45.2631 36.987 45.3333 37.1565 45.3333 37.3333V40.6667H46.6667V37.3333C46.6667 37.1565 46.7369 36.987 46.8619 36.8619C46.987 36.7369 47.1565 36.6667 47.3333 36.6667C47.5101 36.6667 47.6797 36.7369 47.8047 36.8619C47.9298 36.987 48 37.1565 48 37.3333V40.6667H49.3333V37.3333C49.3333 37.1565 49.4036 36.987 49.5286 36.8619C49.6536 36.7369 49.8232 36.6667 50 36.6667C50.1768 36.6667 50.3464 36.7369 50.4714 36.8619C50.5964 36.987 50.6667 37.1565 50.6667 37.3333V43.2533Z" fill="white"/>
<path d="M25.3334 25.3333V24C25.6867 23.9989 26.0252 23.8581 26.275 23.6083C26.5248 23.3585 26.6657 23.02 26.6667 22.6667V21.3333C26.6657 20.98 26.5248 20.6415 26.275 20.3917C26.0252 20.1419 25.6867 20.0011 25.3334 20H21.3334C20.9801 20.0011 20.6416 20.1419 20.3917 20.3917C20.1419 20.6415 20.0011 20.98 20 21.3333V22.6667C20.0011 23.02 20.1419 23.3585 20.3917 23.6083C20.6416 23.8581 20.9801 23.9989 21.3334 24V25.3333C20.8034 25.3349 20.2956 25.5461 19.9209 25.9209C19.5462 26.2956 19.335 26.8034 19.3334 27.3333V31.3333C19.3334 31.5101 19.4036 31.6797 19.5286 31.8047C19.6537 31.9298 19.8232 32 20 32H26.6667C26.8435 32 27.0131 31.9298 27.1381 31.8047C27.2631 31.6797 27.3334 31.5101 27.3334 31.3333V27.3333C27.3318 26.8034 27.1206 26.2956 26.7458 25.9209C26.3711 25.5461 25.8633 25.3349 25.3334 25.3333ZM21.3334 21.3333H25.3334V22.6667H21.3334V21.3333ZM24 24V25.3333H22.6667V24H24ZM26 30.6667H20.6667V27.3333C20.6667 27.1565 20.7369 26.987 20.862 26.8619C20.987 26.7369 21.1566 26.6667 21.3334 26.6667H25.3334C25.5102 26.6667 25.6798 26.7369 25.8048 26.8619C25.9298 26.987 26 27.1565 26 27.3333V30.6667Z" fill="white"/>
<path d="M23.3333 34.6667C22.0148 34.6667 20.7258 35.0577 19.6295 35.7902C18.5332 36.5228 17.6787 37.564 17.1741 38.7821C16.6695 40.0003 16.5375 41.3408 16.7947 42.634C17.052 43.9272 17.6869 45.115 18.6193 46.0474C19.5516 46.9797 20.7395 47.6147 22.0327 47.8719C23.3259 48.1292 24.6663 47.9971 25.8845 47.4926C27.1027 46.988 28.1439 46.1335 28.8764 45.0372C29.609 43.9408 30 42.6519 30 41.3334C29.9971 39.5661 29.2939 37.8721 28.0442 36.6224C26.7946 35.3728 25.1005 34.6695 23.3333 34.6667ZM23.3333 46.6667C22.2785 46.6667 21.2473 46.3539 20.3703 45.7679C19.4932 45.1818 18.8096 44.3489 18.4059 43.3743C18.0023 42.3998 17.8967 41.3274 18.1024 40.2929C18.3082 39.2583 18.8162 38.308 19.5621 37.5621C20.3079 36.8162 21.2582 36.3083 22.2928 36.1025C23.3274 35.8967 24.3997 36.0023 25.3743 36.406C26.3488 36.8097 27.1818 37.4933 27.7678 38.3703C28.3538 39.2474 28.6666 40.2785 28.6666 41.3334C28.6647 42.7472 28.1022 44.1027 27.1024 45.1024C26.1026 46.1022 24.7472 46.6647 23.3333 46.6667Z" fill="white"/>
</svg>
