<svg width="64" height="64" viewBox="0 0 64 64" fill="none" xmlns="http://www.w3.org/2000/svg">
<path d="M32 64C49.6731 64 64 49.6731 64 32C64 14.3269 49.6731 0 32 0C14.3269 0 0 14.3269 0 32C0 49.6731 14.3269 64 32 64Z" fill="#F48120"/>
<path d="M53.0136 31.5571H45.5208V16.029C45.5197 14.9607 45.0947 13.9366 44.3393 13.1812C43.5839 12.4259 42.5597 12.0011 41.4914 12H13.0294C11.9612 12.0011 10.937 12.4259 10.1815 13.1812C9.42612 13.9365 9.00119 14.9607 9 16.029V34.3262C9.00115 35.3944 9.42601 36.4185 10.1813 37.1739C10.9367 37.9292 11.9608 38.354 13.029 38.3552H16.6621V42.7548C16.6581 43.1223 16.7652 43.4824 16.9694 43.7879C17.1736 44.0934 17.4653 44.3301 17.8064 44.467C18.0346 44.563 18.2796 44.6127 18.5272 44.6133C18.7691 44.6124 19.0085 44.5635 19.2314 44.4695C19.4543 44.3754 19.6563 44.238 19.8257 44.0653L25.5359 38.3552H32.7174V45.5851C32.7181 46.313 33.0076 47.011 33.5223 47.5258C34.037 48.0406 34.735 48.3302 35.463 48.331H45.1937L48.6379 51.7757C48.7678 51.9062 48.9222 52.0097 49.0923 52.0803C49.2623 52.1509 49.4446 52.1872 49.6288 52.1871C49.8137 52.1869 49.9969 52.1504 50.1678 52.0798C50.4246 51.9739 50.6441 51.794 50.7984 51.563C50.9527 51.332 51.0349 51.0604 51.0346 50.7826V48.331H53.0136C53.7416 48.3302 54.4395 48.0406 54.9542 47.5258C55.469 47.011 55.7584 46.313 55.7592 45.5851V34.3031C55.7584 33.5752 55.469 32.8772 54.9542 32.3624C54.4395 31.8475 53.7416 31.558 53.0136 31.5571ZM25.2539 36.9933C25.0733 36.9933 24.9001 37.0651 24.7724 37.1928L18.8628 43.1024C18.7941 43.1711 18.7065 43.2179 18.6112 43.2368C18.5159 43.2557 18.4171 43.246 18.3273 43.2088C18.2376 43.1716 18.1608 43.1086 18.1068 43.0278C18.0529 42.947 18.024 42.852 18.024 42.7548V37.6742C18.024 37.4937 17.9522 37.3205 17.8245 37.1928C17.6968 37.0651 17.5237 36.9933 17.3431 36.9933H13.029C12.3219 36.9925 11.6439 36.7113 11.1439 36.2113C10.6439 35.7113 10.3627 35.0333 10.3619 34.3262V16.029C10.3627 15.3218 10.644 14.6438 11.1441 14.1438C11.6442 13.6438 12.3223 13.3626 13.0294 13.3619H41.4914C42.1986 13.3626 42.8766 13.6438 43.3767 14.1438C43.8768 14.6438 44.1581 15.3218 44.1589 16.029V31.5571H35.463C34.7351 31.5579 34.0373 31.8473 33.5226 32.3619C33.0079 32.8766 32.7183 33.5744 32.7174 34.3022V36.9932L25.2539 36.9933ZM54.3972 45.5851C54.3969 45.952 54.2511 46.3038 53.9917 46.5632C53.7322 46.8227 53.3805 46.9687 53.0136 46.9691H50.3536C50.173 46.9692 49.9998 47.0409 49.8721 47.1686C49.7444 47.2963 49.6727 47.4695 49.6726 47.6501L49.6008 50.8128L45.9571 47.1686C45.8294 47.0409 45.6562 46.9692 45.4756 46.9691H35.463C35.096 46.9687 34.7443 46.8227 34.4849 46.5632C34.2255 46.3037 34.0796 45.9519 34.0793 45.585V34.3022C34.0798 33.9355 34.2258 33.5839 34.4851 33.3246C34.7445 33.0653 35.0962 32.9194 35.463 32.919H53.0136C53.3805 32.9195 53.7323 33.0655 53.9917 33.3249C54.2511 33.5844 54.3969 33.9362 54.3972 34.3031V45.5851Z" fill="white"/>
<path d="M35.5511 27.0352V23.32C35.5506 22.9199 35.3914 22.5364 35.1085 22.2535C34.8256 21.9706 34.4421 21.8114 34.042 21.8109H30.627V18.3955C30.6265 17.9954 30.4673 17.6118 30.1844 17.3289C29.9015 17.046 29.518 16.8869 29.1179 16.8864H25.4028C25.0027 16.8869 24.6192 17.046 24.3363 17.3289C24.0534 17.6118 23.8942 17.9954 23.8937 18.3955V21.8109H20.4787C20.0786 21.8114 19.6951 21.9706 19.4122 22.2535C19.1293 22.5364 18.9701 22.9199 18.9696 23.32V27.0352C18.9701 27.4352 19.1293 27.8188 19.4122 28.1017C19.6951 28.3846 20.0786 28.5437 20.4787 28.5443H23.8937V31.9588C23.8942 32.3589 24.0534 32.7424 24.3363 33.0253C24.6192 33.3082 25.0027 33.4674 25.4028 33.4679H29.1179C29.518 33.4674 29.9016 33.3082 30.1845 33.0253C30.4674 32.7424 30.6265 32.3589 30.627 31.9588V28.5442H34.042C34.4421 28.5437 34.8256 28.3845 35.1085 28.1016C35.3914 27.8188 35.5506 27.4352 35.5511 27.0352ZM29.9461 27.1823C29.7655 27.1824 29.5923 27.2541 29.4646 27.3818C29.3369 27.5095 29.2652 27.6827 29.2651 27.8633V31.9588C29.2651 31.9781 29.2613 31.9973 29.2539 32.0151C29.2465 32.033 29.2357 32.0492 29.222 32.0629C29.2084 32.0766 29.1921 32.0874 29.1743 32.0948C29.1564 32.1022 29.1373 32.106 29.1179 32.106H25.4028C25.3835 32.106 25.3643 32.1022 25.3465 32.0948C25.3286 32.0874 25.3124 32.0766 25.2987 32.0629C25.285 32.0492 25.2742 32.033 25.2668 32.0151C25.2594 31.9973 25.2556 31.9781 25.2556 31.9588V27.8633C25.2556 27.6827 25.1838 27.5095 25.0561 27.3818C24.9284 27.2541 24.7553 27.1824 24.5747 27.1823H20.4787C20.4594 27.1823 20.4402 27.1785 20.4224 27.1711C20.4045 27.1637 20.3883 27.1529 20.3746 27.1392C20.3609 27.1255 20.3501 27.1093 20.3427 27.0915C20.3353 27.0736 20.3315 27.0545 20.3315 27.0351V23.32C20.3315 23.3007 20.3353 23.2815 20.3427 23.2637C20.3501 23.2458 20.3609 23.2296 20.3746 23.2159C20.3883 23.2022 20.4045 23.1914 20.4224 23.184C20.4402 23.1766 20.4594 23.1728 20.4787 23.1728H24.5747C24.7553 23.1728 24.9284 23.101 25.0561 22.9733C25.1838 22.8456 25.2556 22.6724 25.2556 22.4918V18.3955C25.2556 18.3761 25.2594 18.357 25.2668 18.3391C25.2742 18.3213 25.285 18.305 25.2987 18.2914C25.3124 18.2777 25.3286 18.2668 25.3465 18.2595C25.3643 18.2521 25.3835 18.2483 25.4028 18.2483H29.1179C29.1373 18.2483 29.1564 18.2521 29.1743 18.2594C29.1921 18.2668 29.2084 18.2777 29.222 18.2914C29.2357 18.305 29.2465 18.3213 29.2539 18.3391C29.2613 18.357 29.2651 18.3761 29.2651 18.3955V22.4918C29.2652 22.6724 29.3369 22.8456 29.4646 22.9733C29.5923 23.101 29.7655 23.1728 29.9461 23.1728H34.042C34.0614 23.1728 34.0805 23.1766 34.0984 23.184C34.1162 23.1914 34.1325 23.2022 34.1461 23.2159C34.1598 23.2296 34.1707 23.2458 34.178 23.2637C34.1854 23.2815 34.1892 23.3007 34.1892 23.32V27.0352C34.1892 27.0545 34.1854 27.0736 34.178 27.0915C34.1707 27.1094 34.1598 27.1256 34.1461 27.1393C34.1325 27.1529 34.1162 27.1638 34.0984 27.1712C34.0805 27.1786 34.0614 27.1824 34.042 27.1823H29.9461Z" fill="white"/>
<path d="M50.492 36.8035H37.9847C37.8041 36.8035 37.6309 36.8753 37.5032 37.003C37.3755 37.1307 37.3037 37.3039 37.3037 37.4845C37.3037 37.6651 37.3755 37.8383 37.5032 37.966C37.6309 38.0937 37.8041 38.1654 37.9847 38.1654H50.492C50.6726 38.1654 50.8458 38.0937 50.9735 37.966C51.1012 37.8383 51.1729 37.6651 51.1729 37.4845C51.1729 37.3039 51.1012 37.1307 50.9735 37.003C50.8458 36.8753 50.6726 36.8035 50.492 36.8035Z" fill="white"/>
<path d="M50.492 41.7219H37.9847C37.8041 41.7219 37.6309 41.7936 37.5032 41.9213C37.3755 42.049 37.3037 42.2222 37.3037 42.4028C37.3037 42.5834 37.3755 42.7566 37.5032 42.8843C37.6309 43.012 37.8041 43.0838 37.9847 43.0838H50.492C50.6726 43.0838 50.8458 43.012 50.9735 42.8843C51.1012 42.7566 51.1729 42.5834 51.1729 42.4028C51.1729 42.2222 51.1012 42.049 50.9735 41.9213C50.8458 41.7936 50.6726 41.7219 50.492 41.7219Z" fill="white"/>
</svg>
