<svg xmlns="http://www.w3.org/2000/svg" width="60" height="60" viewBox="0 0 60 60">
  <g id="service-icon5" transform="translate(-405 -1257)">
    <g id="Group_7253" data-name="Group 7253" transform="translate(138 -140)">
      <circle id="Ellipse_30" data-name="Ellipse 30" cx="30" cy="30" r="30" transform="translate(267 1397)" fill="#f48120"/>
    </g>
    <g id="data_6908171" transform="translate(415.985 1743.651)">
      <path id="Path_9283" data-name="Path 9283" d="M18.506-472.581a1.481,1.481,0,0,0-.23,2.692c.193.1.2.126.2.734s-.007.63-.163.66a7.722,7.722,0,0,0-3.885,1.639c-.074.052-.222-.044-.578-.4-.423-.423-.467-.5-.408-.652a1.4,1.4,0,0,0-.319-1.327,1.441,1.441,0,0,0-2.187-.067,1.441,1.441,0,0,0-.119,1.95,1.379,1.379,0,0,0,1.327.519l.541-.037.408.415a2.815,2.815,0,0,1,.415.475,1.331,1.331,0,0,1-.23.349l-.237.3-4.582.015-4.59.022-.2.208-.208.2-.022,9.639-.015,9.639H.317l-.156.2c-.156.2-.163.267-.133,1.357a4.257,4.257,0,0,0,.185,1.527A3.188,3.188,0,0,0,2.06-440.7l.437.163h33l.415-.171a3.192,3.192,0,0,0,1.869-1.809,4.362,4.362,0,0,0,.185-1.542c.03-1.09.022-1.157-.133-1.357l-.156-.2H34.493v-19.294l-.215-.215-.215-.215H24.95l-.245-.341-.245-.341.423-.423.415-.423.5.03a1.3,1.3,0,0,0,.808-.126,1.458,1.458,0,0,0,.015-2.632,1.915,1.915,0,0,0-.608-.193,1.551,1.551,0,0,0-1.535,1.854l.089.319-.393.393a2.371,2.371,0,0,1-.46.4,2.32,2.32,0,0,1-.445-.289,7.283,7.283,0,0,0-2.87-1.268c-.267-.044-.556-.1-.645-.119-.163-.03-.171-.067-.171-.63v-.6l.341-.3a1.34,1.34,0,0,0,.549-1.149,1.472,1.472,0,0,0-1.35-1.468A1.724,1.724,0,0,0,18.506-472.581Zm.786,1.127a.437.437,0,0,1-.3.7.4.4,0,0,1-.386-.393.37.37,0,0,1,.386-.423A.449.449,0,0,1,19.292-471.454Zm-6.94,2.944c.156.222.148.326-.03.5a.421.421,0,0,1-.741-.237A.436.436,0,0,1,12.352-468.51Zm13.9-.074a.512.512,0,0,1-.052.653.439.439,0,0,1-.675-.319A.464.464,0,0,1,26.247-468.584Zm-5.8,1.32a6.157,6.157,0,0,1,4.479,4.479,7.327,7.327,0,0,1,.044,2.81,6.192,6.192,0,0,1-4.123,4.441,4.122,4.122,0,0,1-1.78.237,4.765,4.765,0,0,1-1.654-.163,6.131,6.131,0,0,1-4.093-8.06,6.184,6.184,0,0,1,4.189-3.745A7.252,7.252,0,0,1,20.449-467.264ZM12.4-464.18c0,.03-.082.274-.178.549a7.08,7.08,0,0,0-.282,1.1l-.089.6h-.682c-.638,0-.675-.007-.756-.178a1.655,1.655,0,0,0-1.305-.712,1.629,1.629,0,0,0-1.453,1.527,1.638,1.638,0,0,0,.83,1.3,1.522,1.522,0,0,0,1.52-.126,2.439,2.439,0,0,0,.43-.46l.148-.237.63.022.63.015.052.423a7.737,7.737,0,0,0,1.342,3.292l.334.46-.393.386-.4.393-.653.007a1.553,1.553,0,0,0-.934.178,1.554,1.554,0,0,0-.5,2.017,1.48,1.48,0,0,0,2.477.163,1.625,1.625,0,0,0,.3-1.2l-.044-.349.46-.415.46-.423.237.178a7.6,7.6,0,0,0,3.544,1.49l.349.044v.645l-.007.645-.274.171a1.441,1.441,0,0,0-.037,2.417,1.48,1.48,0,0,0,2.18-.586,1.464,1.464,0,0,0-.46-1.794l-.289-.193v-1.305l.282-.044a7.883,7.883,0,0,0,3.344-1.335l.475-.348.423.423.43.423-.037.467a1.33,1.33,0,0,0,.415,1.253,1.481,1.481,0,0,0,2.388-.43,1.5,1.5,0,0,0-1.624-2.091l-.356.045-.43-.438-.43-.437.3-.393a7.167,7.167,0,0,0,1.312-3.1c.059-.341.111-.63.111-.645a3.485,3.485,0,0,1,.623-.03c.615,0,.623,0,.712.215a1.379,1.379,0,0,0,1.312.749,1.448,1.448,0,0,0,1.12-2.417,1.442,1.442,0,0,0-2.232-.022l-.349.363h-.593c-.667,0-.578.089-.741-.793a7.5,7.5,0,0,0-.408-1.379c-.052-.119.163-.126,3.848-.126h3.9v18.611H4.537v-18.611h3.93C10.632-464.224,12.4-464.2,12.4-464.18ZM9.49-461.57c.133.178.082.386-.148.556-.185.141-.208.141-.386.022-.371-.237-.171-.853.245-.749A.592.592,0,0,1,9.49-461.57Zm19.575-.089a.4.4,0,0,1,.163.3.55.55,0,0,1-.408.475.55.55,0,0,1-.408-.475.5.5,0,0,1,.408-.415A.593.593,0,0,1,29.065-461.659Zm-16.8,6.977a.446.446,0,0,1-.252.764.436.436,0,0,1-.267-.771C11.959-454.837,12.092-454.837,12.263-454.681Zm14,.111a.324.324,0,0,1,0,.408.472.472,0,0,1-.289.23.427.427,0,0,1-.282-.764A.359.359,0,0,1,26.262-454.57Zm-6.926,2.914a.362.362,0,0,1-.289.541.362.362,0,0,1-.371-.578A.429.429,0,0,1,19.337-451.656Zm17.529,7.838a1.975,1.975,0,0,1-.645,1.7c-.623.564.949.519-17.336.5L2.5-441.646l-.349-.2a2.123,2.123,0,0,1-1.023-2.076v-.578h35.74Z" transform="translate(0 0)" fill="#fafafa"/>
      <path id="Path_9284" data-name="Path 9284" d="M201.749-366.809a.72.72,0,0,0-.308.279,17.657,17.657,0,0,0-.106,2.836v2.653h-1.154v-1.49c0-1.461-.01-1.5-.24-1.73a.792.792,0,0,0-.481-.24.792.792,0,0,0-.481.24c-.231.231-.24.269-.24,1.73v1.49h-1.154v-1.865c0-1.923-.067-2.394-.384-2.557a.723.723,0,0,0-.846.1c-.2.192-.211.26-.211,2.259v2.067h-1.154v-.913c0-.846-.019-.942-.24-1.154a.616.616,0,0,0-.961,0c-.221.211-.24.308-.24,1.134v.913l-.577.038a1.4,1.4,0,0,0-.769.221.762.762,0,0,0,0,1.009c.221.221-.471.2,6.815.2h4.845l.231-.211a.69.69,0,0,0,.038-.961c-.135-.173-.3-.221-.759-.26l-.586-.038-.029-2.74-.029-2.74-.231-.183A.615.615,0,0,0,201.749-366.809Z" transform="translate(-179.167 -98.409)" fill="#fafafa"/>
      <path id="Path_9285" data-name="Path 9285" d="M132.947-144.9a.733.733,0,0,0-.048,1.24c.135.077,3.73.106,11.574.106h11.382l.2-.221a.664.664,0,0,0-.029-.98L155.8-145l-11.324.01C138.243-144.99,133.062-144.952,132.947-144.9Z" transform="translate(-125.437 -303.615)" fill="#fafafa"/>
      <path id="Path_9286" data-name="Path 9286" d="M218.511-80.837a.971.971,0,0,0-.269.433c-.048.211,0,.317.231.558l.288.288h6.162l.26-.221a.684.684,0,0,0,.048-1.048c-.211-.163-.452-.173-3.374-.173C218.991-81,218.684-80.981,218.511-80.837Z" transform="translate(-202.855 -363.523)" fill="#fafafa"/>
    </g>
  </g>
</svg>
