<svg xmlns="http://www.w3.org/2000/svg" width="60" height="60" viewBox="0 0 60 60">
  <g id="service-icon2" transform="translate(-269 -1397)">
    <circle id="Ellipse_30" data-name="Ellipse 30" cx="30" cy="30" r="30" transform="translate(269 1397)" fill="#f48120"/>
    <g id="_7993953781548402148" data-name="7993953781548402148" transform="translate(281 1409)">
      <g id="Group_8366" data-name="Group 8366">
        <g id="Group_8365" data-name="Group 8365">
          <path id="Path_9246" data-name="Path 9246" d="M20.5,11.242a5.952,5.952,0,1,0,5.952,5.952A5.958,5.958,0,0,0,20.5,11.242Zm0,6.613a.661.661,0,1,1,.661-.661A.662.662,0,0,1,20.5,17.855Zm.661,3.915V19.056a1.984,1.984,0,1,0-1.323,0V21.77a4.629,4.629,0,1,1,1.323,0Z" transform="translate(-2.045 -1.58)" fill="#fff"/>
          <path id="Path_9247" data-name="Path 9247" d="M28.35,20.685q.092-.205.172-.411l3.22-.536V14.65l-3.22-.536c-.1-.26-.216-.52-.346-.777l-1.181.6a7.119,7.119,0,0,1,.408.977l.125.379,2.892.483v2.847l-2.892.482-.125.379a7.188,7.188,0,0,1-.408.977l-.18.357L28.521,23.2l-2.013,2.014-2.389-1.706-.356.179a7.231,7.231,0,0,1-.978.408l-.379.125-.482,2.892H19.076l-.482-2.892-.379-.125a7.2,7.2,0,0,1-.977-.408l-.357-.179-2.389,1.706-2.41-2.41-.935.935,3.2,3.2,2.658-1.9q.205.092.411.172l.537,3.221h5.088l.537-3.221c.137-.053.274-.11.411-.172l2.658,1.9,3.6-3.6Z" transform="translate(-2.234 -2.106)" fill="#fff"/>
          <path id="Path_9248" data-name="Path 9248" d="M9.258,14.649v5.089l3.22.536c.1.26.216.52.346.777l1.181-.6a7.119,7.119,0,0,1-.408-.977l-.125-.379-2.892-.483V15.77l2.892-.482.125-.379a7.188,7.188,0,0,1,.408-.977l.18-.357-1.706-2.388,2.013-2.014,2.389,1.706.357-.18a7.191,7.191,0,0,1,.977-.407l.379-.125.482-2.892h2.848l.482,2.892.379.125a7.135,7.135,0,0,1,.977.407l.357.18,2.389-1.706,2.41,2.41.935-.935-3.2-3.2-2.658,1.9c-.137-.061-.274-.118-.411-.172l-.536-3.22H17.956l-.537,3.22c-.138.054-.275.111-.411.172l-2.658-1.9-3.6,3.6,1.9,2.659q-.092.205-.172.411Z" transform="translate(-1.855)" fill="#fff"/>
          <rect id="Rectangle_2710" data-name="Rectangle 2710" width="1.323" height="1.323" transform="translate(17.794 7.711)" fill="#fff"/>
          <rect id="Rectangle_2711" data-name="Rectangle 2711" width="1.323" height="1.323" transform="translate(12.495 10.47) rotate(-45)" fill="#fff"/>
          <rect id="Rectangle_2712" data-name="Rectangle 2712" width="1.323" height="1.323" transform="translate(10.676 14.828)" fill="#fff"/>
          <rect id="Rectangle_2713" data-name="Rectangle 2713" width="1.323" height="1.323" transform="translate(14.365 20.518) rotate(135)" fill="#fff"/>
          <rect id="Rectangle_2714" data-name="Rectangle 2714" width="1.323" height="1.323" transform="translate(17.794 21.946)" fill="#fff"/>
          <rect id="Rectangle_2715" data-name="Rectangle 2715" width="1.323" height="1.323" transform="translate(24.415 20.519) rotate(135)" fill="#fff"/>
          <rect id="Rectangle_2716" data-name="Rectangle 2716" width="1.323" height="1.323" transform="translate(24.912 14.828)" fill="#fff"/>
          <rect id="Rectangle_2717" data-name="Rectangle 2717" width="1.323" height="1.323" transform="translate(22.544 10.47) rotate(-45)" fill="#fff"/>
          <path id="Path_9249" data-name="Path 9249" d="M20.5,37.032a1.984,1.984,0,1,0,1.984,1.984A1.986,1.986,0,0,0,20.5,37.032Zm0,2.645a.661.661,0,1,1,.661-.661A.662.662,0,0,1,20.5,39.677Z" transform="translate(-2.045 -4.089)" fill="#fff"/>
          <path id="Path_9250" data-name="Path 9250" d="M39.016,37.032A1.984,1.984,0,1,0,41,39.016,1.986,1.986,0,0,0,39.016,37.032Zm0,2.645a.661.661,0,1,1,.661-.661A.662.662,0,0,1,39.016,39.677Z" transform="translate(-4.089 -4.089)" fill="#fff"/>
          <path id="Path_9251" data-name="Path 9251" d="M1.984,37.032a1.984,1.984,0,1,0,1.984,1.984A1.986,1.986,0,0,0,1.984,37.032Zm0,2.645a.661.661,0,1,1,.661-.661A.662.662,0,0,1,1.984,39.677Z" transform="translate(0 -4.089)" fill="#fff"/>
          <path id="Path_9252" data-name="Path 9252" d="M1.984,30.419A1.984,1.984,0,1,0,3.968,32.4,1.986,1.986,0,0,0,1.984,30.419Zm0,2.645a.661.661,0,1,1,.661-.661A.662.662,0,0,1,1.984,33.065Z" transform="translate(0 -3.359)" fill="#fff"/>
          <rect id="Rectangle_2718" data-name="Rectangle 2718" width="1.323" height="5.952" transform="translate(17.794 25.669)" fill="#fff"/>
          <path id="Path_9253" data-name="Path 9253" d="M12.565,35.048a3.31,3.31,0,0,1-3.306,3.306H5.29v1.323H9.258a4.635,4.635,0,0,0,4.629-4.629V27.113H12.565Z" transform="translate(0 -4.089)" fill="#fff"/>
          <path id="Path_9254" data-name="Path 9254" d="M8.6,31.081a.662.662,0,0,1-.661.661H5.29v1.323H7.935a1.986,1.986,0,0,0,1.984-1.984V21.161H8.6Z" transform="translate(0 -2.974)" fill="#fff"/>
          <path id="Path_9255" data-name="Path 9255" d="M39.016,30.419A1.984,1.984,0,1,0,41,32.4,1.986,1.986,0,0,0,39.016,30.419Zm0,2.645a.661.661,0,1,1,.661-.661A.662.662,0,0,1,39.016,33.065Z" transform="translate(-4.089 -3.359)" fill="#fff"/>
          <path id="Path_9256" data-name="Path 9256" d="M28.435,35.048V27.113H27.113v7.935a4.635,4.635,0,0,0,4.629,4.629H35.71V38.355H31.742A3.31,3.31,0,0,1,28.435,35.048Z" transform="translate(-4.089 -4.089)" fill="#fff"/>
          <path id="Path_9257" data-name="Path 9257" d="M32.4,31.081V21.161H31.081v9.919a1.986,1.986,0,0,0,1.984,1.984H35.71V31.742H33.065A.662.662,0,0,1,32.4,31.081Z" transform="translate(-4.089 -2.974)" fill="#fff"/>
          <path id="Path_9258" data-name="Path 9258" d="M36.911,14.548a5.053,5.053,0,0,0-4.763-5.29,4.337,4.337,0,0,0-.623.05,5.613,5.613,0,0,0-5.33-5.341,4.88,4.88,0,0,0-1.764.337A6.523,6.523,0,0,0,18.455,0,6.525,6.525,0,0,0,12.48,4.3a4.871,4.871,0,0,0-1.764-.337A5.613,5.613,0,0,0,5.387,9.305a4.168,4.168,0,0,0-.624-.047A5.053,5.053,0,0,0,0,14.548a5.053,5.053,0,0,0,4.763,5.29H7.144V18.516H4.763a3.789,3.789,0,0,1-3.572-3.968,3.789,3.789,0,0,1,3.572-3.968,3.492,3.492,0,0,1,3.064,1.926l1.02-.682A4.961,4.961,0,0,0,6.561,9.654,4.388,4.388,0,0,1,10.716,5.29a3.934,3.934,0,0,1,2.755,1.156l.787-.992a5.411,5.411,0,0,0-.7-.579,5.343,5.343,0,0,1,4.9-3.552,5.342,5.342,0,0,1,4.9,3.556,5.528,5.528,0,0,0-1.182,1.1l.892.876A4.007,4.007,0,0,1,26.195,5.29a4.387,4.387,0,0,1,4.155,4.357,4.735,4.735,0,0,0-1.535,1.123l.833.944a3.374,3.374,0,0,1,2.5-1.134,3.789,3.789,0,0,1,3.572,3.968,3.789,3.789,0,0,1-3.572,3.968H29.767v1.323h2.381A5.053,5.053,0,0,0,36.911,14.548Z" fill="#fff"/>
        </g>
      </g>
    </g>
  </g>
</svg>
