<svg width="64" height="64" viewBox="0 0 64 64" fill="none" xmlns="http://www.w3.org/2000/svg">
<g clip-path="url(#clip0_3_166)">
<path d="M32 64C49.6731 64 64 49.6731 64 32C64 14.3269 49.6731 0 32 0C14.3269 0 0 14.3269 0 32C0 49.6731 14.3269 64 32 64Z" fill="#F48120"/>
<path d="M33.6667 16.4999C33.8434 16.4999 34.013 16.434 34.1381 16.3169C34.2631 16.1996 34.3333 16.0406 34.3333 15.8748C34.3335 15.7598 34.3675 15.6471 34.4315 15.5491C34.4955 15.451 34.5872 15.3714 34.6963 15.319C34.8056 15.2667 34.9281 15.2435 35.0503 15.2522C35.1726 15.2608 35.29 15.301 35.3895 15.3682C35.4891 15.4354 35.5669 15.527 35.6144 15.633C35.6621 15.739 35.6775 15.8553 35.6592 15.969C35.6408 16.0827 35.5894 16.1894 35.5105 16.2774C35.4315 16.3654 35.3282 16.4314 35.212 16.468C34.9508 16.555 34.7253 16.7169 34.5675 16.9308C34.41 17.1445 34.328 17.3995 34.3333 17.6594V18.375C34.3333 18.5407 34.4036 18.6997 34.5285 18.817C34.6536 18.9341 34.8232 19 35 19C35.1768 19 35.3464 18.9341 35.4715 18.817C35.5964 18.6997 35.6667 18.5407 35.6667 18.375L35.6353 17.6531C35.9844 17.5435 36.2943 17.3456 36.5311 17.0815C36.7679 16.8173 36.9223 16.497 36.9774 16.1559C37.0326 15.8147 36.9861 15.4658 36.8433 15.1478C36.7007 14.8297 36.467 14.5548 36.1683 14.3532C35.8695 14.1516 35.5173 14.0312 35.1502 14.0053C34.7833 13.9793 34.4158 14.0489 34.0881 14.2062C33.7605 14.3636 33.4856 14.6026 33.2936 14.8969C33.1016 15.1914 33 15.5298 33 15.8748C33 16.0406 33.0702 16.1996 33.1952 16.3169C33.3203 16.434 33.4899 16.4999 33.6667 16.4999Z" fill="white"/>
<path d="M23.75 30H25.25C25.4489 30 25.6397 29.9473 25.7804 29.8536C25.921 29.7598 26 29.6326 26 29.5C26 29.3674 25.921 29.2402 25.7804 29.1464C25.6397 29.0527 25.4489 29 25.25 29H23.75C23.5511 29 23.3603 29.0527 23.2196 29.1464C23.079 29.2402 23 29.3674 23 29.5C23 29.6326 23.079 29.7598 23.2196 29.8536C23.3603 29.9473 23.5511 30 23.75 30Z" fill="white"/>
<path d="M27.6429 30H35.3571C35.5276 30 35.6911 29.9473 35.8118 29.8536C35.9323 29.7598 36 29.6326 36 29.5C36 29.3674 35.9323 29.2402 35.8118 29.1464C35.6911 29.0527 35.5276 29 35.3571 29H27.6429C27.4724 29 27.3089 29.0527 27.1882 29.1464C27.0677 29.2402 27 29.3674 27 29.5C27 29.6326 27.0677 29.7598 27.1882 29.8536C27.3089 29.9473 27.4724 30 27.6429 30Z" fill="white"/>
<path d="M23.75 32H25.25C25.4489 32 25.6397 31.9473 25.7804 31.8536C25.921 31.7598 26 31.6326 26 31.5C26 31.3674 25.921 31.2402 25.7804 31.1464C25.6397 31.0527 25.4489 31 25.25 31H23.75C23.5511 31 23.3603 31.0527 23.2196 31.1464C23.079 31.2402 23 31.3674 23 31.5C23 31.6326 23.079 31.7598 23.2196 31.8536C23.3603 31.9473 23.5511 32 23.75 32Z" fill="white"/>
<path d="M27.6429 32H35.3571C35.5276 32 35.6911 31.9473 35.8118 31.8536C35.9323 31.7598 36 31.6326 36 31.5C36 31.3674 35.9323 31.2402 35.8118 31.1464C35.6911 31.0527 35.5276 31 35.3571 31H27.6429C27.4724 31 27.3089 31.0527 27.1882 31.1464C27.0677 31.2402 27 31.3674 27 31.5C27 31.6326 27.0677 31.7598 27.1882 31.8536C27.3089 31.9473 27.4724 32 27.6429 32Z" fill="white"/>
<path d="M23.75 35H25.25C25.4489 35 25.6397 34.9473 25.7804 34.8536C25.921 34.7598 26 34.6326 26 34.5C26 34.3674 25.921 34.2402 25.7804 34.1464C25.6397 34.0527 25.4489 34 25.25 34H23.75C23.5511 34 23.3603 34.0527 23.2196 34.1464C23.079 34.2402 23 34.3674 23 34.5C23 34.6326 23.079 34.7598 23.2196 34.8536C23.3603 34.9473 23.5511 35 23.75 35Z" fill="white"/>
<path d="M27.6429 35H35.3571C35.5276 35 35.6911 34.9473 35.8118 34.8536C35.9323 34.7598 36 34.6326 36 34.5C36 34.3674 35.9323 34.2402 35.8118 34.1464C35.6911 34.0527 35.5276 34 35.3571 34H27.6429C27.4724 34 27.3089 34.0527 27.1882 34.1464C27.0677 34.2402 27 34.3674 27 34.5C27 34.6326 27.0677 34.7598 27.1882 34.8536C27.3089 34.9473 27.4724 35 27.6429 35Z" fill="white"/>
<path d="M50.3667 43.6667H49.7333V20.2333C49.7333 19.3934 49.3997 18.588 48.8058 17.9942C48.212 17.4003 47.4066 17.0667 46.5667 17.0667H44.6667V15.1667C44.6667 14.3268 44.333 13.5214 43.7392 12.9275C43.1454 12.3336 42.3399 12 41.5 12H27.5667C26.7268 12 25.9213 12.3336 25.3275 12.9275C24.7337 13.5214 24.4 14.3268 24.4 15.1667V17.0667H17.4333C16.5934 17.0667 15.788 17.4003 15.1942 17.9942C14.6003 18.588 14.2667 19.3934 14.2667 20.2333V43.6667H13.6333C13.4654 43.6667 13.3043 43.7334 13.1854 43.8521C13.0667 43.971 13 44.1321 13 44.3V46.8333C13 47.6732 13.3337 48.4787 13.9275 49.0725C14.5213 49.6663 15.3268 50 16.1667 50H47.8333C48.6732 50 49.4787 49.6663 50.0725 49.0725C50.6663 48.4787 51 47.6732 51 46.8333V44.3C51 44.1321 50.9333 43.971 50.8146 43.8521C50.6957 43.7334 50.5346 43.6667 50.3667 43.6667ZM25.6667 15.1667C25.6683 14.6632 25.8688 14.1808 26.2249 13.8249C26.5808 13.4688 27.0632 13.2682 27.5667 13.2667H41.5C42.0035 13.2682 42.4858 13.4688 42.8418 13.8249C43.1978 14.1808 43.3984 14.6632 43.4 15.1667V20.2333C43.3984 20.7368 43.1978 21.2192 42.8418 21.5751C42.4858 21.9312 42.0035 22.1317 41.5 22.1333H40.2333C40.0654 22.1333 39.9043 22.2001 39.7854 22.3188C39.6667 22.4376 39.6 22.5987 39.6 22.7667V24.1157L36.7816 22.241C36.6791 22.1705 36.5577 22.133 36.4333 22.1333H27.5667C27.0632 22.1317 26.5808 21.9312 26.2249 21.5751C25.8688 21.2192 25.6683 20.7368 25.6667 20.2333V15.1667ZM24.4634 20.8667C24.6112 21.5811 25.0003 22.2227 25.5655 22.684C26.1306 23.1454 26.8372 23.3981 27.5667 23.4H36.2434L39.885 25.8256C39.9803 25.8883 40.0907 25.9242 40.2047 25.9294C40.3186 25.9346 40.4318 25.9089 40.5323 25.855C40.6329 25.8012 40.717 25.7213 40.7759 25.6235C40.8347 25.5258 40.8661 25.4141 40.8667 25.3V23.4H41.5C42.2295 23.3981 42.936 23.1454 43.5012 22.684C44.0663 22.2227 44.4555 21.5811 44.6034 20.8667H45.9333V41.1333H18.0667V20.8667H24.4634ZM15.5333 20.2333C15.5348 19.7299 15.7356 19.2475 16.0915 18.8915C16.4475 18.5354 16.9299 18.3349 17.4333 18.3333H24.4V19.6H17.4333C17.2654 19.6 17.1043 19.6667 16.9854 19.7854C16.8667 19.9043 16.8 20.0654 16.8 20.2333V41.7667C16.8 41.9346 16.8667 42.0957 16.9854 42.2146C17.1043 42.3333 17.2654 42.4 17.4333 42.4H46.5667C46.7346 42.4 46.8957 42.3333 47.0146 42.2146C47.1333 42.0957 47.2 41.9346 47.2 41.7667V20.2333C47.2 20.0654 47.1333 19.9043 47.0146 19.7854C46.8957 19.6667 46.7346 19.6 46.5667 19.6H44.6667V18.3333H46.5667C47.0701 18.3349 47.5525 18.5354 47.9085 18.8915C48.2644 19.2475 48.4651 19.7299 48.4667 20.2333V43.6667H15.5333V20.2333ZM34.5333 44.9333V45.5667C34.5333 45.7346 34.4666 45.8957 34.3479 46.0146C34.229 46.1333 34.0679 46.2 33.9 46.2H30.1C29.9321 46.2 29.771 46.1333 29.6521 46.0146C29.5334 45.8957 29.4667 45.7346 29.4667 45.5667V44.9333H34.5333ZM49.7333 46.8333C49.7317 47.3368 49.5311 47.8192 49.1751 48.1751C48.8192 48.5311 48.3368 48.7317 47.8333 48.7333H16.1667C15.6632 48.7317 15.1808 48.5311 14.8249 48.1751C14.4689 47.8192 14.2681 47.3368 14.2667 46.8333V44.9333H28.2V45.5667C28.2016 46.0701 28.4021 46.5525 28.7582 46.9085C29.1142 47.2644 29.5965 47.4651 30.1 47.4667H33.9C34.4035 47.4651 34.8858 47.2644 35.2418 46.9085C35.5978 46.5525 35.7984 46.0701 35.8 45.5667V44.9333H49.7333V46.8333Z" fill="white"/>
<path d="M36.875 26H23.125C22.2961 26 21.5013 26.3353 20.9153 26.9319C20.3293 27.5286 20 28.3379 20 29.1818V34.2727C20 35.1166 20.3293 35.9259 20.9153 36.5226C21.5013 37.1192 22.2961 37.4545 23.125 37.4545H25V39.3636C24.9991 39.479 25.0297 39.5923 25.0881 39.6912C25.1466 39.7899 25.2307 39.8704 25.3313 39.9236C25.43 39.9787 25.5419 40.0049 25.6544 39.9992C25.767 39.9937 25.8757 39.9565 25.9687 39.8917L29.5624 37.4545H36.875C37.7039 37.4545 38.4987 37.1192 39.0847 36.5226C39.6707 35.9259 40 35.1166 40 34.2727V29.1818C40 28.3379 39.6707 27.5286 39.0847 26.9319C38.4987 26.3353 37.7039 26 36.875 26ZM38.75 34.2727C38.7484 34.7786 38.5504 35.2633 38.1991 35.6209C37.8479 35.9786 37.3719 36.1802 36.875 36.1818H29.375C29.2523 36.1815 29.1324 36.2192 29.0313 36.29L26.25 38.1736V36.8182C26.25 36.6494 26.1841 36.4875 26.067 36.3681C25.9497 36.2488 25.7907 36.1818 25.625 36.1818H23.125C22.6281 36.1802 22.1521 35.9786 21.8009 35.6209C21.4494 35.2633 21.2516 34.7786 21.25 34.2727V29.1818C21.2516 28.6759 21.4494 28.1913 21.8009 27.8336C22.1521 27.4758 22.6281 27.2742 23.125 27.2727H36.875C37.3719 27.2742 37.8479 27.4758 38.1991 27.8336C38.5504 28.1913 38.7484 28.6759 38.75 29.1818V34.2727Z" fill="white"/>
<path d="M34.5 21C34.7761 21 35 20.7761 35 20.5C35 20.2239 34.7761 20 34.5 20C34.2239 20 34 20.2239 34 20.5C34 20.7761 34.2239 21 34.5 21Z" fill="white"/>
</g>
<defs>
<clipPath id="clip0_3_166">
<rect width="64" height="64" fill="white"/>
</clipPath>
</defs>
</svg>
