<svg width="64" height="64" viewBox="0 0 64 64" fill="none" xmlns="http://www.w3.org/2000/svg">
<path d="M32.0001 64C49.6732 64 64.0001 49.6731 64.0001 32C64.0001 14.3269 49.6732 0 32.0001 0C14.327 0 0.00012207 14.3269 0.00012207 32C0.00012207 49.6731 14.327 64 32.0001 64Z" fill="#F48120"/>
<path fill-rule="evenodd" clip-rule="evenodd" d="M28.2475 48.1932H10.2281C9.92927 48.1932 9.68713 47.951 9.68713 47.6522V42.7391C9.68713 39.7317 12.1338 37.2851 15.1412 37.2851H23.3344C26.3418 37.2851 28.7884 39.7318 28.7884 42.7391V47.6522C28.7884 47.951 28.5462 48.1932 28.2475 48.1932ZM10.7691 47.1112H27.7065V42.7391C27.7065 40.3283 25.7451 38.367 23.3344 38.367H15.1412C12.7304 38.367 10.7691 40.3283 10.7691 42.7391V47.1112Z" fill="white"/>
<path fill-rule="evenodd" clip-rule="evenodd" d="M13.685 48.1932C13.3862 48.1932 13.144 47.9511 13.144 47.6522V43.7974C13.144 43.4986 13.3862 43.2564 13.685 43.2564C13.9839 43.2564 14.226 43.4986 14.226 43.7974V47.6522C14.226 47.9511 13.9838 48.1932 13.685 48.1932Z" fill="white"/>
<path fill-rule="evenodd" clip-rule="evenodd" d="M24.7907 48.1932C24.4918 48.1932 24.2496 47.9511 24.2496 47.6522V43.7974C24.2496 43.4986 24.4918 43.2564 24.7907 43.2564C25.0895 43.2564 25.3316 43.4986 25.3316 43.7974V47.6522C25.3316 47.9511 25.0894 48.1932 24.7907 48.1932Z" fill="white"/>
<path fill-rule="evenodd" clip-rule="evenodd" d="M19.2379 36.4914C16.6208 36.4914 14.4916 34.3624 14.4916 31.7453C14.4916 29.1283 16.6208 26.9991 19.2379 26.9991C21.855 26.9991 23.9841 29.1283 23.9841 31.7453C23.9841 34.3624 21.855 36.4914 19.2379 36.4914ZM19.2379 28.0812C17.2174 28.0812 15.5736 29.7249 15.5736 31.7454C15.5736 33.7658 17.2175 35.4094 19.2379 35.4094C21.2583 35.4094 22.9021 33.7658 22.9021 31.7454C22.9021 29.7249 21.2584 28.0812 19.2379 28.0812Z" fill="white"/>
<path fill-rule="evenodd" clip-rule="evenodd" d="M21.1302 38.367H17.3455C17.0467 38.367 16.8044 38.1248 16.8044 37.826V35.5015C16.8044 35.3137 16.9019 35.1393 17.0619 35.0408C17.222 34.9424 17.4215 34.9338 17.5893 35.0185C18.1033 35.2779 18.658 35.4094 19.238 35.4094C19.8179 35.4094 20.3726 35.2779 20.8866 35.0185C21.0543 34.9338 21.2539 34.9424 21.4139 35.0408C21.5739 35.1394 21.6713 35.3137 21.6713 35.5015V37.8261C21.6712 38.1248 21.429 38.367 21.1302 38.367ZM17.8865 37.285H20.5892V36.2969C20.1542 36.4263 19.7022 36.4914 19.2379 36.4914C18.7736 36.4914 18.3215 36.4263 17.8865 36.2969L17.8865 37.285Z" fill="white"/>
<path fill-rule="evenodd" clip-rule="evenodd" d="M51.7615 48.1932H33.7421C33.4433 48.1932 33.201 47.951 33.201 47.6522V42.7391C33.201 39.7317 35.6479 37.2851 38.6552 37.2851H46.8484C49.8559 37.2851 52.3026 39.7318 52.3026 42.7391V47.6522C52.3026 47.951 52.0603 48.1932 51.7615 48.1932ZM34.2831 47.1112H51.2205V42.7391C51.2205 40.3283 49.2592 38.367 46.8484 38.367H38.6552C36.2444 38.367 34.2831 40.3283 34.2831 42.7391V47.1112Z" fill="white"/>
<path fill-rule="evenodd" clip-rule="evenodd" d="M37.199 48.1932C36.9002 48.1932 36.658 47.9511 36.658 47.6522V43.7974C36.658 43.4986 36.9002 43.2564 37.199 43.2564C37.4978 43.2564 37.74 43.4986 37.74 43.7974V47.6522C37.74 47.9511 37.4978 48.1932 37.199 48.1932Z" fill="white"/>
<path fill-rule="evenodd" clip-rule="evenodd" d="M48.3049 48.1932C48.006 48.1932 47.7639 47.9511 47.7639 47.6522V43.7974C47.7639 43.4986 48.006 43.2564 48.3049 43.2564C48.6038 43.2564 48.8459 43.4986 48.8459 43.7974V47.6522C48.8459 47.9511 48.6037 48.1932 48.3049 48.1932Z" fill="white"/>
<path fill-rule="evenodd" clip-rule="evenodd" d="M42.752 36.4914C40.135 36.4914 38.0059 34.3624 38.0059 31.7453C38.0059 29.1283 40.135 26.9991 42.752 26.9991C45.3691 26.9991 47.4983 29.1283 47.4983 31.7453C47.4983 34.3624 45.3691 36.4914 42.752 36.4914ZM42.752 28.0812C40.7316 28.0812 39.0879 29.7249 39.0879 31.7454C39.0879 33.7658 40.7316 35.4094 42.752 35.4094C44.7725 35.4094 46.4162 33.7658 46.4162 31.7454C46.4162 29.7249 44.7725 28.0812 42.752 28.0812Z" fill="white"/>
<path fill-rule="evenodd" clip-rule="evenodd" d="M44.6443 38.367H40.8595C40.5607 38.367 40.3185 38.1248 40.3185 37.826V35.5015C40.3185 35.3137 40.416 35.1393 40.576 35.0408C40.7361 34.9423 40.9357 34.9339 41.1033 35.0185C41.6173 35.2779 42.172 35.4094 42.7519 35.4094C43.3319 35.4094 43.8867 35.2779 44.4006 35.0185C44.5684 34.9339 44.768 34.9423 44.928 35.0408C45.0879 35.1394 45.1854 35.3137 45.1854 35.5015V37.8261C45.1853 38.1248 44.9431 38.367 44.6443 38.367ZM41.4007 37.285H44.1034V36.2969C43.6683 36.4263 43.2164 36.4914 42.752 36.4914C42.2877 36.4914 41.8357 36.4263 41.4008 36.2969L41.4007 37.285Z" fill="white"/>
<path fill-rule="evenodd" clip-rule="evenodd" d="M28.961 29.4535C28.8176 29.4535 28.6799 29.3965 28.5784 29.2951L25.5465 26.2629H24.0703C23.5019 26.2629 23.0396 25.8005 23.0396 25.2322V14.0308C23.0396 13.4624 23.502 13 24.0703 13H37.9196C38.4879 13 38.9502 13.4625 38.9502 14.0308V25.2322C38.9502 25.8005 38.4879 26.2629 37.9196 26.2629H32.3759L29.3435 29.2951C29.2421 29.3965 29.1046 29.4535 28.961 29.4535ZM24.1216 25.1808H25.7706C25.914 25.1808 26.0517 25.2379 26.1532 25.3393L28.9611 28.1474L31.7692 25.3393C31.8707 25.2379 32.0084 25.1808 32.1518 25.1808H37.8685V14.082H24.1216L24.1216 25.1808Z" fill="white"/>
<path fill-rule="evenodd" clip-rule="evenodd" d="M35.8673 17.2569H26.1228C25.8239 17.2569 25.5818 17.0147 25.5818 16.7159C25.5818 16.4171 25.8239 16.1749 26.1228 16.1749H35.8673C36.1662 16.1749 36.4084 16.4171 36.4084 16.7159C36.4084 17.0147 36.1662 17.2569 35.8673 17.2569Z" fill="white"/>
<path fill-rule="evenodd" clip-rule="evenodd" d="M35.8673 20.1725H26.1228C25.8239 20.1725 25.5818 19.9302 25.5818 19.6314C25.5818 19.3326 25.8239 19.0904 26.1228 19.0904H35.8673C36.1662 19.0904 36.4084 19.3326 36.4084 19.6314C36.4084 19.9302 36.1662 20.1725 35.8673 20.1725Z" fill="white"/>
<path fill-rule="evenodd" clip-rule="evenodd" d="M35.8673 23.0879H26.1228C25.8239 23.0879 25.5818 22.8457 25.5818 22.5468C25.5818 22.248 25.8239 22.0058 26.1228 22.0058L35.8673 22.0059C36.1662 22.0059 36.4084 22.248 36.4084 22.5469C36.4084 22.8457 36.1662 23.0879 35.8673 23.0879Z" fill="white"/>
</svg>
