<svg xmlns="http://www.w3.org/2000/svg" width="60" height="60" viewBox="0 0 60 60">
  <g id="services-for-electric-software" transform="translate(-652 -4270)">
    <circle id="Ellipse_14" data-name="Ellipse 14" cx="30" cy="30" r="30" transform="translate(652 4270)" fill="#fff2e8"/>
    <g id="noun-electric-3370233" transform="translate(667 4282)">
      <path id="Path_9229" data-name="Path 9229" d="M69.4,0h8.212a1.986,1.986,0,0,1,1.861,2.737L73.889,17.19H77.83a2.044,2.044,0,0,1,1.752,3.066l-8.65,15.438A2.006,2.006,0,0,1,67.21,34.38l1.752-9.964H66.005a2.069,2.069,0,0,1-2.08-2.3l3.5-20.474A1.992,1.992,0,0,1,69.4,0Zm8.212,1.861H69.4a.107.107,0,0,0-.109.109l-3.5,20.474c0,.109,0,.109.219.109h5.146l-2.08,12.153c-.109.219.219.219.219.109L77.94,19.38a.21.21,0,0,0-.109-.328H71.151L77.721,2.08C77.83,1.971,77.721,1.861,77.611,1.861Z" transform="translate(-56.918)" fill="#f48120"/>
      <path id="Path_9230" data-name="Path 9230" d="M22.993,51.628A.932.932,0,0,1,24.2,50.2a14.9,14.9,0,0,1-5.146,26.168.932.932,0,0,1-1.2-.547,1.035,1.035,0,0,1,.657-1.2,13.061,13.061,0,0,0,4.489-22.993ZM9.088,73.745a.906.906,0,0,1-.766,1.642A14.787,14.787,0,0,1,0,62.029a15.018,15.018,0,0,1,7.336-12.92.881.881,0,0,1,1.2.328.937.937,0,0,1-.328,1.314,13.147,13.147,0,0,0,.876,22.993Z" transform="translate(0 -43.635)" fill="#f48120"/>
    </g>
  </g>
</svg>
