<svg width="64" height="64" viewBox="0 0 64 64" fill="none" xmlns="http://www.w3.org/2000/svg">
<g clip-path="url(#clip0_3_166)">
<path d="M32 64C49.6731 64 64 49.6731 64 32C64 14.3269 49.6731 0 32 0C14.3269 0 0 14.3269 0 32C0 49.6731 14.3269 64 32 64Z" fill="#F48120"/>
<path fill-rule="evenodd" clip-rule="evenodd" d="M26.8463 54.0624H23.2942C22.9791 54.0624 22.7213 53.8046 22.6354 53.5468L21.5469 49.0781C20.8021 48.8489 20.0859 48.5338 19.3698 48.1041L15.7318 50.3958C15.4453 50.5676 15.0729 50.5103 14.8437 50.3098L12.3516 47.8176C12.0937 47.5885 12.0651 47.2161 12.237 46.9869L14.6146 43.0624C14.2422 42.3749 13.9844 41.6302 13.7838 40.8281L9.57292 39.8255C9.25781 39.7682 9 39.4817 9 39.1666V35.6145C9 35.2994 9.25781 35.013 9.51562 34.9557L14.013 33.8671C14.2995 33.0364 14.6146 32.3203 15.0156 31.7187L12.6953 28.0234C12.5521 27.7656 12.5807 27.3932 12.8099 27.164L15.3307 24.6718C15.5599 24.414 15.9323 24.3854 16.1614 24.5286L20.0859 26.9349C20.8307 26.5625 21.5469 26.276 22.3203 26.0755L23.2656 21.8646C23.3515 21.5495 23.638 21.3203 23.9531 21.3203H27.5052C27.8489 21.3203 28.1067 21.5495 28.1927 21.8359L29.2526 26.3333C29.9687 26.5625 30.7422 26.9349 31.401 27.3073L35.0677 25.0156C35.3541 24.8437 35.6979 24.901 35.927 25.1015L38.4479 27.5937C38.677 27.8229 38.7343 28.1953 38.5625 28.4817L36.1849 32.3776C36.5286 33.0937 36.8151 33.8385 37.0442 34.6406L42.1432 35.7864C42.4869 35.8724 42.7447 36.2447 42.6588 36.6171C42.5729 36.9609 42.1718 37.2187 41.8281 37.1328L36.2994 35.8724C36.013 35.8151 35.8125 35.5859 35.7838 35.3567C35.5833 34.3828 35.2395 33.5234 34.7526 32.6927C34.638 32.4349 34.638 32.2057 34.7526 31.9765L37.0442 28.1953L35.2968 26.4479L31.7161 28.7109C31.4869 28.8828 31.2005 28.8828 30.9713 28.7109C30.1406 28.1953 29.2526 27.7942 28.3932 27.5078C28.164 27.4505 27.9635 27.25 27.9062 26.9922L26.9609 22.7526H24.4974L23.5521 26.8489C23.4948 27.1067 23.2656 27.3073 23.0364 27.3646C22.1484 27.5651 21.2318 27.8802 20.3724 28.3385C20.1719 28.4817 19.8854 28.4817 19.6849 28.3099L15.875 26.0182L14.1562 27.7083L16.3906 31.289C16.5625 31.5182 16.5052 31.8046 16.3906 32.0338C15.9323 32.75 15.5599 33.6093 15.2161 34.6406C15.1302 34.8697 14.9297 35.013 14.7005 35.0989L10.4036 36.1302V38.5937L14.5286 39.5677C14.8151 39.5963 15.0156 39.8255 15.0443 40.0833C15.2734 41.0572 15.5885 41.9739 16.0469 42.7473C16.1614 42.9765 16.1614 43.2057 16.0469 43.4348L13.7266 47.2161L15.4739 48.9635L19.0547 46.7005C19.2838 46.5572 19.5703 46.5572 19.7995 46.7005C20.6588 47.2161 21.5182 47.6171 22.4062 47.9036C22.6354 47.9895 22.8359 48.19 22.8646 48.4192L23.8958 52.7161H26.3307L27.276 48.6197C27.3333 48.3333 27.5625 48.1327 27.7916 48.1041C28.7942 47.8463 29.6536 47.5312 30.4271 47.1015C30.7422 46.901 31.1718 47.0156 31.3724 47.388C31.5729 47.7317 31.4583 48.1327 31.0859 48.3333C30.3411 48.763 29.4531 49.1354 28.5078 49.3645L27.5625 53.5754C27.4765 53.8619 27.1901 54.0624 26.8463 54.0624Z" fill="white"/>
<path fill-rule="evenodd" clip-rule="evenodd" d="M25.414 46.7005C20.5729 46.7005 16.6198 42.776 16.6198 37.9635C16.6198 33.151 20.5729 29.1979 25.414 29.1979C30.2552 29.1979 34.151 33.1224 34.151 37.9635C34.151 42.8046 30.2265 46.7005 25.414 46.7005ZM25.414 30.5729C21.3177 30.5729 18.0234 33.8671 18.0234 37.9635C18.0234 42.0598 21.375 45.3255 25.414 45.3255C29.4531 45.3255 32.776 42.0312 32.776 37.9635C32.776 33.9244 29.4531 30.5729 25.414 30.5729Z" fill="white"/>
<path fill-rule="evenodd" clip-rule="evenodd" d="M25.414 43.3203C22.4635 43.3203 20.0573 40.9427 20.0573 37.9635C20.0573 35.013 22.4349 32.6067 25.414 32.6067C28.3932 32.6067 30.7708 34.9843 30.7708 37.9635C30.7708 40.914 28.3646 43.3203 25.414 43.3203ZM25.414 33.9817C23.237 33.9817 21.4323 35.7864 21.4323 37.9635C21.4323 40.1406 23.237 41.9453 25.414 41.9453C27.5911 41.9453 29.3958 40.1406 29.3958 37.9635C29.3958 35.7864 27.5911 33.9817 25.414 33.9817Z" fill="white"/>
<path fill-rule="evenodd" clip-rule="evenodd" d="M39.6796 54.2057C35.8125 54.2057 32.6901 51.0833 32.6901 47.2734C32.6901 43.4062 35.8125 40.2838 39.6796 40.2838C43.5182 40.2838 46.6406 43.4062 46.6406 47.2734C46.6406 51.0833 43.5182 54.2057 39.6796 54.2057ZM39.6796 41.6588C36.5859 41.6588 34.0651 44.151 34.0651 47.2734C34.0651 50.3098 36.5859 52.8307 39.6796 52.8307C42.7447 52.8307 45.2369 50.3098 45.2369 47.2734C45.2369 44.151 42.7447 41.6588 39.6796 41.6588Z" fill="white"/>
<path fill-rule="evenodd" clip-rule="evenodd" d="M41.6276 49.5937C41.4557 49.5937 41.2552 49.5364 41.1406 49.4218L39.3645 47.6171C39.25 47.5025 39.164 47.302 39.164 47.1301V43.8072C39.164 43.4062 39.4791 43.0911 39.8802 43.0911C40.2812 43.0911 40.5963 43.4062 40.5963 43.8072V46.815L42.1718 48.4192C42.4583 48.7057 42.4583 49.1354 42.1718 49.4218C41.9713 49.5364 41.7708 49.5937 41.6276 49.5937Z" fill="white"/>
<path fill-rule="evenodd" clip-rule="evenodd" d="M39.6796 56.8697C34.3515 56.8697 30.026 52.5442 30.026 47.2734C30.026 41.9453 34.3515 37.6197 39.6796 37.6197C44.9505 37.6197 49.276 41.9453 49.276 47.2734C49.276 52.5442 44.9505 56.8697 39.6796 56.8697ZM39.6796 38.9947C35.0963 38.9947 31.401 42.69 31.401 47.2734C31.401 51.7994 35.0963 55.4947 39.6796 55.4947C44.2057 55.4947 47.901 51.7994 47.901 47.2734C47.901 42.69 44.2057 38.9947 39.6796 38.9947Z" fill="white"/>
<path fill-rule="evenodd" clip-rule="evenodd" d="M30.1406 28.1666C29.7396 28.1666 29.4244 27.8229 29.4244 27.4505V17.9401H27.9062C27.6771 17.9401 27.4479 17.8255 27.3333 17.5963C27.1901 17.3385 27.1901 17.1094 27.3333 16.8802L32.289 8.3724C32.4036 8.17187 32.6328 8 32.8906 8C33.1198 8 33.3489 8.14323 33.4921 8.3724L38.4479 16.9088C38.5625 17.1094 38.5625 17.3958 38.4479 17.625C38.3333 17.8542 38.0755 17.9974 37.8463 17.9974H36.3281V25.8463C36.3281 26.2474 36.013 26.5625 35.6119 26.5625C35.2395 26.5625 34.8958 26.2474 34.8958 25.8463V17.2239C34.8958 16.8229 35.2395 16.5078 35.6119 16.5078H36.6432L32.8906 10.0911L29.138 16.5078H30.1406C30.5416 16.5078 30.8567 16.8229 30.8567 17.2239V27.4505C30.8567 27.8229 30.5416 28.1666 30.1406 28.1666Z" fill="white"/>
<path fill-rule="evenodd" clip-rule="evenodd" d="M47.4713 43.5781C47.0703 43.5781 46.7551 43.263 46.7551 42.8619V23.3828C46.7551 22.9817 47.0703 22.6666 47.4713 22.6666H48.5885L44.7213 14.2448L40.8541 22.6666H41.9713C42.3723 22.6666 42.6874 22.9817 42.6874 23.3828V38.5651C42.6874 38.9661 42.3723 39.2812 41.9713 39.2812C41.5703 39.2812 41.2552 38.9661 41.2552 38.5651V24.0989H39.7656C39.5078 24.0989 39.2786 23.9843 39.164 23.7838C39.0494 23.5833 38.9921 23.3541 39.1067 23.0963L44.0911 12.3542C44.2057 12.0963 44.4348 11.9531 44.7213 11.9531C45.0078 11.9531 45.2369 12.0963 45.3515 12.3542L50.3359 23.0963C50.3932 23.2969 50.3932 23.5833 50.2786 23.7838C50.164 23.9843 49.9348 24.0989 49.677 24.0989H48.1874V42.8619C48.1301 43.263 47.815 43.5781 47.4713 43.5781Z" fill="white"/>
</g>
<defs>
<clipPath id="clip0_3_166">
<rect width="64" height="64" fill="white"/>
</clipPath>
</defs>
</svg>
