<svg width="64" height="64" viewBox="0 0 64 64" fill="none" xmlns="http://www.w3.org/2000/svg">
<g clip-path="url(#clip0_3_166)">
<path d="M32 64C49.6731 64 64 49.6731 64 32C64 14.3269 49.6731 0 32 0C14.3269 0 0 14.3269 0 32C0 49.6731 14.3269 64 32 64Z" fill="#F48120"/>
<g clip-path="url(#clip1_3_166)">
<path fill-rule="evenodd" clip-rule="evenodd" d="M41.362 44.3291V44.2687C41.362 43.9013 41.6581 43.6051 42.0256 43.6051C42.3931 43.6051 42.6892 43.9013 42.6892 44.2687V44.3291H43.2102C43.5722 44.3291 43.8684 44.6252 43.8684 44.9927C43.8684 45.3601 43.5722 45.6563 43.2102 45.6563H41.5046V46.6929H43.2102C43.5722 46.6929 43.8684 46.989 43.8684 47.3565V49.7203C43.8684 50.0878 43.5722 50.3839 43.2102 50.3839H42.6892V50.4442C42.6892 50.8117 42.3931 51.1079 42.0256 51.1079C41.6581 51.1079 41.362 50.8117 41.362 50.4442V50.3839H40.8464C40.479 50.3839 40.1828 50.0878 40.1828 49.7203C40.1828 49.3528 40.479 49.0567 40.8464 49.0567H42.5466V48.0201H40.8464C40.479 48.0201 40.1828 47.7239 40.1828 47.3565V44.9927C40.1828 44.6252 40.479 44.3291 40.8464 44.3291H41.362ZM11 21.1737V14.6691C11 14.3016 11.2962 14.0055 11.6636 14.0055H49.3364C49.7038 14.0055 50 14.3016 50 14.6691V45.0475C50 45.415 49.7038 45.7112 49.3364 45.7112H47.6197V52.3309C47.6197 52.6984 47.3236 52.9945 46.9561 52.9945H14.0439C13.6764 52.9945 13.3803 52.6984 13.3803 52.3309V45.7112H11.6636C11.2962 45.7112 11 45.415 11 45.0475V21.1737ZM48.6782 20.5101V15.3327H12.3272V20.5101H48.6782ZM46.298 43.0457H14.702V51.6673H46.298V43.0457ZM47.6197 44.3839H48.6782V21.8318H12.3272V44.3839H13.3803V34.9068C13.3803 34.5448 13.6764 34.2431 14.0439 34.2431H16.3748V29.2962C16.3748 28.9287 16.6764 28.6325 17.0384 28.6325H17.9543V27.1079C17.9543 24.9909 19.6764 23.2633 21.7989 23.2633C23.7514 23.2633 25.3912 24.7276 25.6161 26.6636C25.66 27.0311 25.4022 27.3601 25.0347 27.3985C24.6728 27.4424 24.3437 27.1792 24.2998 26.8172C24.1572 25.5448 23.0768 24.5905 21.7989 24.5905C20.4059 24.5905 19.2761 25.7203 19.2761 27.1079V28.6325H26.5594C26.9214 28.6325 27.2176 28.9287 27.2176 29.2962V34.2431H30.8537L36.6508 23.5923C36.9031 23.1371 37.5667 23.1371 37.8135 23.5923L43.6161 34.2431H46.9561C47.3236 34.2431 47.6197 34.5448 47.6197 34.9068V44.3839ZM17.702 35.5923H25.8958V29.9543H17.702V35.5923ZM16.3748 35.5704H14.702V38.8172H46.298V35.5704H44.3346C44.521 35.9049 44.7623 36.2176 44.532 36.6069C44.4113 36.8044 44.192 36.9305 43.9616 36.9305H30.5082C30.0037 36.9305 29.6856 36.3931 29.9269 35.9488L30.1298 35.5704H27.2176V36.2505C27.2176 36.6179 26.9214 36.9141 26.5594 36.9141H17.0384C16.6764 36.9141 16.3748 36.6179 16.3748 36.2505V35.5704ZM37.2322 25.298L31.6216 35.6033H42.8483C40.9781 32.17 39.1024 28.7313 37.2322 25.298ZM16.9122 18.585H14.4333C14.0658 18.585 13.7697 18.2834 13.7697 17.9214C13.7697 17.5539 14.0658 17.2578 14.4333 17.2578H16.9122C17.2797 17.2578 17.5759 17.5539 17.5759 17.9214C17.5759 18.2888 17.2797 18.585 16.9122 18.585ZM22.0018 18.585H19.5229C19.1609 18.585 18.8647 18.2834 18.8647 17.9214C18.8647 17.5539 19.1609 17.2578 19.5229 17.2578H22.0018C22.3693 17.2578 22.6654 17.5539 22.6654 17.9214C22.6654 18.2888 22.3693 18.585 22.0018 18.585ZM27.0969 18.585H24.6179C24.2505 18.585 23.9543 18.2834 23.9543 17.9214C23.9543 17.5539 24.2505 17.2578 24.6179 17.2578H27.0969C27.4589 17.2578 27.755 17.5539 27.755 17.9214C27.755 18.2888 27.4589 18.585 27.0969 18.585ZM14.702 41.7185H46.298V40.1444H14.702V41.7185ZM23.883 47.4662H17.2852C16.9232 47.4662 16.6271 47.17 16.6271 46.808C16.6271 46.4406 16.9232 46.1444 17.2852 46.1444H23.883C24.2505 46.1444 24.5466 46.4406 24.5466 46.808C24.5466 47.17 24.2505 47.4662 23.883 47.4662ZM29.3839 50.0603H17.7898C17.4278 50.0603 17.1316 49.7642 17.1316 49.3967C17.1316 49.0347 17.4278 48.7386 17.7898 48.7386H29.3839C29.7514 48.7386 30.0475 49.0347 30.0475 49.3967C30.0475 49.7642 29.7514 50.0603 29.3839 50.0603ZM30.1792 27.9634H28.8793C28.5119 27.9634 28.2157 27.6673 28.2157 27.2998C28.2157 26.9324 28.5119 26.6362 28.8793 26.6362H30.1792C30.5411 26.6362 30.8373 26.9324 30.8373 27.2998C30.8373 27.6673 30.5411 27.9634 30.1792 27.9634ZM28.3144 25.8355C27.7331 25.8355 27.4314 25.128 27.8483 24.7057L28.7642 23.7898C29.0219 23.532 29.4442 23.532 29.702 23.7898C29.9598 24.0475 29.9598 24.4698 29.702 24.7276L28.7861 25.6435C28.6545 25.7751 28.4845 25.8355 28.3144 25.8355ZM29.2303 31.0018C29.0658 31.0018 28.8958 30.9415 28.7642 30.8099L27.8483 29.894C27.5905 29.6362 27.5905 29.2139 27.8483 28.9561C28.106 28.6984 28.5283 28.6984 28.7861 28.9561L29.702 29.872C30.1188 30.2888 29.8172 31.0018 29.2303 31.0018ZM37.2322 32.9324C36.8702 32.9324 36.574 32.6362 36.574 32.2687V27.8702C36.574 27.5027 36.8702 27.2066 37.2322 27.2066C37.5996 27.2066 37.8958 27.5027 37.8958 27.8702V32.2687C37.8958 32.6362 37.5996 32.9324 37.2322 32.9324ZM37.2322 35.0165C36.8702 35.0165 36.574 34.7203 36.574 34.3528V33.8702C36.574 33.5082 36.8702 33.2121 37.2322 33.2121C37.5996 33.2121 37.8958 33.5082 37.8958 33.8702V34.3528C37.8958 34.7203 37.5996 35.0165 37.2322 35.0165ZM21.7989 34.0018C21.4314 34.0018 21.1353 33.7057 21.1353 33.3437V32.2084C21.1353 31.841 21.4314 31.5448 21.7989 31.5448C22.1664 31.5448 22.4625 31.841 22.4625 32.2084V33.3437C22.4625 33.7057 22.1664 34.0018 21.7989 34.0018Z" fill="white"/>
</g>
</g>
<defs>
<clipPath id="clip0_3_166">
<rect width="64" height="64" fill="white"/>
</clipPath>
<clipPath id="clip1_3_166">
<rect width="39" height="39" fill="white" transform="translate(11 14)"/>
</clipPath>
</defs>
</svg>
