<svg xmlns="http://www.w3.org/2000/svg" width="60" height="60" viewBox="0 0 60 60">
  <g id="service-icon4" transform="translate(-405 -1257)">
    <g id="Group_7253" data-name="Group 7253" transform="translate(138 -140)">
      <circle id="Ellipse_30" data-name="Ellipse 30" cx="30" cy="30" r="30" transform="translate(267 1397)" fill="#f48120"/>
    </g>
    <g id="crm_9540664" transform="translate(408.97 1747)">
      <path id="Path_9269" data-name="Path 9269" d="M27.624-475.854c-.482.292-.489.343-.533,2.41l-.037,1.862-5.887.036-5.887.036-.351.219a1.39,1.39,0,0,0-.562.614c-.19.358-.2.453-.2,1.212v.825l-1.4.029c-1.315.022-1.424.037-1.673.19a1.406,1.406,0,0,0-.4.365c-.131.19-.139.614-.175,10.058l-.037,9.86-1.059.022c-1.461.029-1.41-.037-1.373,1.512a3.559,3.559,0,0,0,.175,1.5,2.386,2.386,0,0,0,1,1.03l.307.168H42.758l.307-.161a2.5,2.5,0,0,0,1-1.044,3.45,3.45,0,0,0,.175-1.483c.029-1.125.022-1.169-.139-1.337s-.2-.175-1.212-.175H41.845v-9.59c0-5.266-.022-9.656-.044-9.751-.044-.161-.044-.161.825-.161.789,0,.9-.015,1.125-.168.511-.336.5-.285.5-4.032s.007-3.7-.5-4.032L43.5-476H35.681C28.055-476,27.851-475.993,27.624-475.854ZM43.233-471.8v3.177l-4.368.015-4.36.022-1.205.979-1.205.971-.037-.789c-.044-.891-.088-1.037-.343-1.132a16.083,16.083,0,0,0-1.892-.066H28.114v-6.354H43.233Zm-16.142,2.352c0,.942.022,1.11.146,1.315.285.467.373.489,2.155.533a7.564,7.564,0,0,1,1.607.11c0,.051-2.7.08-7.9.095l-7.91.015v-1.388c0-1.38,0-1.4.183-1.57l.175-.183H27.091Zm-12.928,2.315v.467l-.577.022c-.672.036-.935.175-1.081.584-.124.358-.124,16.061,0,16.427a1.014,1.014,0,0,0,.336.416l.248.168H26.134c12.957,0,13.045,0,13.286-.146.475-.292.453.153.446-8.633,0-5.989-.022-8.049-.088-8.231-.146-.409-.409-.548-1.081-.584l-.584-.022.022-.453.022-.445,1.205-.015a6.152,6.152,0,0,1,1.315.051c.095.058.11,1.22.11,9.729v9.663l-14.622.022-14.63.015v-9.707c0-7.7.022-9.714.095-9.743a11.651,11.651,0,0,1,1.315-.044l1.22-.007Zm22.934-.358c0,.095-.175.11-1.169.11a5.151,5.151,0,0,1-1.169-.066c0-.124.168-.139,1.264-.146C36.93-467.6,37.1-467.586,37.1-467.491Zm-6.062,1.658c0,.614.11.789.482.789.19,0,.394-.132,1.037-.657l.811-.657H37.1v16.288H15.186v-16.288h15.85ZM14.163-457.85v7.779h-.73v-15.557h.73Zm24.687,0v7.779h-.73v-15.557h.73ZM19.159-446.879a2.15,2.15,0,0,0,1.446,1.315c.555.139,10.518.139,11.073,0a2.15,2.15,0,0,0,1.446-1.315l.044-.2H43.247l-.029.745c-.015.635-.044.789-.183.979-.365.5,1.088.467-16.894.467s-16.529.036-16.894-.467c-.139-.19-.168-.343-.183-.979l-.029-.745H19.115Zm12.9-.139c0,.1-.241.292-.533.416-.226.095-.942.11-5.383.11s-5.157-.015-5.383-.11c-.292-.124-.533-.314-.533-.416,0-.029,2.666-.058,5.916-.058S32.058-447.047,32.058-447.018Z" fill="#fafafa" stroke="#fff" stroke-width="0.2"/>
      <path id="Path_9270" data-name="Path 9270" d="M305.844-450.848c-.6.318-.741.734-.708,2.157.026,1.191.1,1.422.576,1.76.251.179.344.2.847.225a1.671,1.671,0,0,0,1.283-.3c.41-.351.582-1.019.324-1.277a.473.473,0,0,0-.794.284c0,.271-.192.377-.681.377-.622,0-.642-.04-.642-1.224s.02-1.224.655-1.224c.49,0,.668.106.668.384a.472.472,0,0,0,.463.41c.43,0,.582-.43.337-.959-.251-.549-.662-.761-1.482-.761A1.523,1.523,0,0,0,305.844-450.848Z" transform="translate(-275.184 -23.346)" fill="#fafafa" stroke="#fff" stroke-width="0.2"/>
      <path id="Path_9271" data-name="Path 9271" d="M359.659-450.874l-.159.126v3.8l.159.126a.452.452,0,0,0,.589.02c.132-.093.146-.152.146-.827,0-.721,0-.721.159-.721.139,0,.225.106.543.675.45.814.589.979.82.979a.534.534,0,0,0,.463-.443,2.664,2.664,0,0,0-.3-.668,4.658,4.658,0,0,1-.3-.582.882.882,0,0,1,.265-.238,1.341,1.341,0,0,0-.165-2.236,2.456,2.456,0,0,0-1.171-.132C359.923-451,359.791-450.987,359.659-450.874Zm1.925.926a.425.425,0,0,1-.093.569,1,1,0,0,1-.609.086l-.456-.02-.02-.384-.02-.377h.562C361.438-450.074,361.525-450.054,361.584-449.948Z" transform="translate(-325.549 -23.346)" fill="#fafafa" stroke="#fff" stroke-width="0.2"/>
      <path id="Path_9272" data-name="Path 9272" d="M410.139-450.826c-.132.172-.139.258-.139,1.978s.007,1.806.139,1.978a.431.431,0,0,0,.655.04c.119-.119.132-.225.132-1.277l.007-1.138.377.417c.318.344.41.41.6.41.218,0,.284-.046.688-.523l.238-.284.026,1.138c.02,1.1.026,1.138.179,1.264a.438.438,0,0,0,.6.007c.139-.112.139-.139.126-2.064l-.02-1.945-.172-.1c-.291-.159-.47-.053-1.059.655a7.023,7.023,0,0,1-.6.662,4.415,4.415,0,0,1-.529-.576c-.271-.324-.542-.635-.6-.695A.432.432,0,0,0,410.139-450.826Z" transform="translate(-371.964 -23.348)" fill="#fafafa" stroke="#fff" stroke-width="0.2"/>
      <path id="Path_9273" data-name="Path 9273" d="M125.313-386.687a.377.377,0,0,0-.026.589.4.4,0,0,0,.642.02.4.4,0,0,0-.026-.635A.377.377,0,0,0,125.313-386.687Z" transform="translate(-108.55 -82.626)" fill="#fafafa" stroke="#fff" stroke-width="0.2"/>
      <path id="Path_9274" data-name="Path 9274" d="M152.211-386.7a.462.462,0,0,0,.284.794.5.5,0,0,0,.47-.516A.455.455,0,0,0,152.211-386.7Z" transform="translate(-133.492 -82.644)" fill="#fafafa" stroke="#fff" stroke-width="0.2"/>
      <path id="Path_9275" data-name="Path 9275" d="M178.747-386.8a.454.454,0,0,0,.258.814.441.441,0,0,0,.285-.787C179.071-386.943,178.925-386.943,178.747-386.8Z" transform="translate(-158.054 -82.569)" fill="#fafafa" stroke="#fff" stroke-width="0.2"/>
      <path id="Path_9276" data-name="Path 9276" d="M132.4-320.633a4.014,4.014,0,0,0-2.607,5.69,4.353,4.353,0,0,0,1.813,1.813,3.915,3.915,0,0,0,3.612-.026,3.765,3.765,0,0,0,1.76-1.806,3.67,3.67,0,0,0,.423-2.018,4.037,4.037,0,0,0-2.765-3.586A4.345,4.345,0,0,0,132.4-320.633Zm.516,2.3v1.442l-.939,1.025a11.977,11.977,0,0,1-1.006,1.025,2.4,2.4,0,0,1-.542-.959,3.386,3.386,0,0,1,.026-1.919,3.235,3.235,0,0,1,1.019-1.442,3.246,3.246,0,0,1,1.3-.609h.146Zm1.833-1.178a3.249,3.249,0,0,1,1.647,2l.079.318h-2.633v-2.6l.238.04A3.63,3.63,0,0,1,134.749-319.514Zm1.628,3.592a3.1,3.1,0,0,1-2.322,2.21,3.056,3.056,0,0,1-2.177-.318l-.218-.132.966-1.052.973-1.052h2.885Z" transform="translate(-112.205 -143.504)" fill="#fafafa" stroke="#fff" stroke-width="0.2"/>
      <path id="Path_9277" data-name="Path 9277" d="M276.95-302.756c-.39.245-.45.41-.45,1.3,0,.926.079,1.145.5,1.356.245.126.384.132,3.017.132,3.043,0,3.05,0,3.354-.423.126-.172.152-.311.165-.9.033-.8-.04-1.092-.318-1.356l-.205-.2-2.924-.02C277.281-302.882,277.155-302.875,276.95-302.756Zm5.67,1.33v.529l-2.593-.013-2.6-.02-.02-.516-.02-.509h5.233Z" transform="translate(-248.357 -160.349)" fill="#fafafa" stroke="#fff" stroke-width="0.2"/>
      <path id="Path_9278" data-name="Path 9278" d="M277.029-254.868c-.45.218-.529.43-.529,1.37,0,.873.04,1,.456,1.3.179.132.258.139,3.037.139,2.732,0,2.865-.007,3.076-.132.357-.212.476-.556.476-1.363,0-.84-.1-1.078-.529-1.3-.291-.146-.324-.146-3.01-.146C277.426-255,277.281-254.993,277.029-254.868Zm5.577,1.336-.02.549h-.344c-.192-.007-1.363-.013-2.6-.02l-2.249-.013v-.483a1.723,1.723,0,0,1,.046-.529c.02-.026,1.2-.046,2.613-.046h2.574Z" transform="translate(-248.356 -204.687)" fill="#fafafa" stroke="#fff" stroke-width="0.2"/>
      <path id="Path_9279" data-name="Path 9279" d="M277-205.881c-.4.2-.5.456-.5,1.37,0,.728.013.814.152,1.012.3.417.251.41,3.374.41h2.838l.225-.152c.39-.258.463-.5.443-1.383-.02-.867-.093-1.045-.523-1.257-.205-.106-.49-.119-3-.119S277.208-205.987,277-205.881Zm5.624,1.336v.529h-5.227v-1.059h5.227Z" transform="translate(-248.357 -250.073)" fill="#fafafa" stroke="#fff" stroke-width="0.2"/>
      <path id="Path_9280" data-name="Path 9280" d="M129.816-187.06a.491.491,0,0,0-.026.675c.106.119.205.132.807.132s.7-.02.814-.132a.431.431,0,0,0-.04-.655A2.208,2.208,0,0,0,129.816-187.06Z" transform="translate(-112.704 -267.648)" fill="#fafafa" stroke="#fff" stroke-width="0.2"/>
      <path id="Path_9281" data-name="Path 9281" d="M164.231-186.884a.5.5,0,0,0-.146.767c.112.1.4.112,2.746.112,2.541,0,2.633-.007,2.759-.132a.431.431,0,0,0-.04-.655c-.172-.132-.245-.139-2.7-.132C165.468-186.924,164.284-186.9,164.231-186.884Z" transform="translate(-144.317 -267.895)" fill="#fafafa" stroke="#fff" stroke-width="0.2"/>
      <path id="Path_9282" data-name="Path 9282" d="M129.287-157.828a.377.377,0,0,0,.026.589l.159.165h3.7c3.645,0,3.7,0,3.877-.139a.431.431,0,0,0,.04-.655c-.132-.132-.218-.132-3.9-.132h-3.771Z" transform="translate(-112.01 -294.701)" fill="#fafafa" stroke="#fff" stroke-width="0.2"/>
    </g>
  </g>
</svg>
