<svg width="64" height="64" viewBox="0 0 64 64" fill="none" xmlns="http://www.w3.org/2000/svg">
<g clip-path="url(#clip0_3_166)">
<path d="M32 64C49.6731 64 64 49.6731 64 32C64 14.3269 49.6731 0 32 0C14.3269 0 0 14.3269 0 32C0 49.6731 14.3269 64 32 64Z" fill="#F48120"/>
<path d="M49.9231 30H36.0769C34.9 30 34 30.8412 34 31.9412V50.0588C34 51.1588 34.9 52 36.0769 52H49.9231C51.1 52 52 51.1588 52 50.0588V31.9412C52 30.8412 51.1 30 49.9231 30ZM36.0769 31.2941H49.9231C50.3384 31.2941 50.6153 31.5529 50.6153 31.9412V37.7646H35.3847V31.9412C35.3847 31.5529 35.6616 31.2941 36.0769 31.2941ZM43.6923 39.0588H50.6153V44.2354H43.6923V39.0588ZM42.3077 44.2354H35.3847V39.0588H42.3077V44.2354ZM35.3847 50.0588V45.5295H42.3077V50.7059H36.0769C35.6616 50.7059 35.3847 50.4471 35.3847 50.0588ZM49.9231 50.7059H43.6923V45.5295H50.6153V50.0588C50.6153 50.4471 50.3384 50.7059 49.9231 50.7059Z" fill="white"/>
<path d="M37.7222 35H49.2778C49.7111 35 50 34.8001 50 34.5001V32.4999C50 32.1999 49.7111 32 49.2778 32H37.7222C37.2889 32 37 32.1999 37 32.4999V34.5001C37 34.8001 37.2889 35 37.7222 35ZM38.4445 33.0001H48.5555V33.9999H38.4445V33.0001Z" fill="white"/>
<path d="M37 42.3333H38.0001V44H38.9999V42.3333H40V40.6667H38.9999V39H38.0001V40.6667H37V42.3333Z" fill="white"/>
<path d="M50 40H45V44H50V40Z" fill="white"/>
<path d="M40 47.75L39.25 47L38.5 47.75L37.75 47L37 47.75L37.75 48.5L37 49.25L37.75 50L38.5 49.25L39.25 50L40 49.25L39.25 48.5L40 47.75Z" fill="white"/>
<path d="M50 47H45V49H50V47Z" fill="white"/>
<path d="M49 49H47V50H49V49Z" fill="white"/>
<path d="M32.5715 32C32.5715 28.3333 29.6786 25.3333 26.1429 25.3333C22.6071 25.3333 19.7142 28.3333 19.7142 32C19.7142 34.2 20.7429 36.1333 22.2856 37.3333H17.1428C16.7571 37.3333 16.5001 37.6 16.5001 38V40.6667H15.2144C14.8286 40.6667 14.5714 40.9333 14.5714 41.3333V44.6667C14.5714 45.0667 14.8286 45.3333 15.2144 45.3333H16.5001V47.3333H15.2144C14.8286 47.3333 14.5714 47.6 14.5714 48V50.6667H13.2857V20H18.4285C19.1358 20 19.7142 19.4 19.7142 18.6667V13.3333H37.7143V28H39V13.3333C39 12.6 38.4214 12 37.7143 12H19.0715C18.8786 12 18.75 12.0667 18.6214 12.2L12.1929 18.8667C12.0643 19 12 19.1333 12 19.3333V50.6667C12 51.4 12.5786 52 13.2857 52H32.5715V50.6667H28.7144V48.6667H30.0001C30.3857 48.6667 30.6428 48.4 30.6428 48V44.6667C30.6428 44.2667 30.3857 44 30.0001 44H28.7144V42H30.0001C30.3857 42 30.6428 41.7333 30.6428 41.3333V38C30.6428 37.6 30.3857 37.3333 30.0001 37.3333C31.5429 36.1333 32.5715 34.2 32.5715 32ZM18.4285 14.2667V18.6667H14.1857L18.4285 14.2667ZM15.8571 50.6667V48.6667H27.4286V50.6667H15.8571ZM29.3571 47.3333H28.0714H17.7858V45.3333H29.3571V47.3333ZM17.1428 44H15.8571V42H27.4286V44H17.1428ZM29.3571 38.6667V40.6667H28.0714H17.7858V38.6667H29.3571ZM20.9999 32C20.9999 29.0667 23.3144 26.6667 26.1429 26.6667C28.9714 26.6667 31.2858 29.0667 31.2858 32C31.2858 34.9333 28.9714 37.3333 26.1429 37.3333C23.3144 37.3333 20.9999 34.9333 20.9999 32Z" fill="white"/>
<path d="M27.6666 29H26.3334V29.6C25.5334 29.7999 25 30.35 25 30.9999C25 31.85 25.8666 32.4999 27 32.4999C27.4 32.4999 27.6666 32.7001 27.6666 33.0001C27.6666 33.3001 27.4 33.5 27 33.5H25V34.5001H26.3334V35H27.6666V34.4C28.4666 34.2001 29 33.65 29 33.0001C29 32.15 28.1334 31.5001 27 31.5001C26.6 31.5001 26.3334 31.2999 26.3334 30.9999C26.3334 30.6999 26.6 30.5 27 30.5H29V29.4999H27.6666V29Z" fill="white"/>
<path d="M45 12H42.1428C41.7143 12 41.4285 12.2834 41.4285 12.7084V14.8334H40.7143C40.2857 14.8334 40 15.1166 40 15.5416V29H41.4285V16.25H45.7143V29H47.1428V16.9584H48.5715V26.1666H50V16.9584C50 16.1791 49.3572 15.5416 48.5715 15.5416H47.1428C47.1428 15.1166 46.8572 14.8334 46.4285 14.8334H45.7143V12.7084C45.7143 12.2834 45.4285 12 45 12ZM42.8572 13.4166H44.2857V14.8334H42.8572V13.4166Z" fill="white"/>
<path d="M34 17H20V19H34V17Z" fill="white"/>
<path d="M37 20H14V24H37V20Z" fill="white"/>
</g>
<defs>
<clipPath id="clip0_3_166">
<rect width="64" height="64" fill="white"/>
</clipPath>
</defs>
</svg>
