<svg id="award_2" xmlns="http://www.w3.org/2000/svg" width="125" height="125" viewBox="0 0 125 125">
  <circle id="Ellipse_36" data-name="Ellipse 36" cx="62.465" cy="62.465" r="62.465" transform="translate(0.036 0.035)" fill="#fff"/>
  <path id="Ellipse_36_-_Outline" data-name="Ellipse 36 - Outline" d="M62.5,3.5a59,59,0,1,0,59,59,59.062,59.062,0,0,0-59-59m0-3.5A62.5,62.5,0,1,1,0,62.5,62.5,62.5,0,0,1,62.5,0Z" fill="#223e72"/>
  <g id="Group_2115" data-name="Group 2115" transform="translate(29.36 26.791)">
    <g id="Group_2117" data-name="Group 2117" transform="translate(0 0)">
      <path id="Path_743" data-name="Path 743" d="M433.857,1.709h1.514a5.04,5.04,0,0,1,2.722.35A4.877,4.877,0,0,1,440.271,5c.226.645.226.645.77.417h.425V.31H427.219v.9h.584a1.691,1.691,0,0,1,1.328.632c.544.888.637,1.883.637,7.061,0,5.5-.12,6.846-.637,7.532a1.429,1.429,0,0,1-1.1.592c-.81.148-.81.135-.81.5a.543.543,0,0,0,0,.376h8.989a.859.859,0,0,0,0-.767,4.556,4.556,0,0,0-.664-.134,4.409,4.409,0,0,1-.717-.148,2.434,2.434,0,0,1-.969-2.193,31.7,31.7,0,0,1-.2-3.86V9.738h.531a7.084,7.084,0,0,1,1.965.215,2.49,2.49,0,0,1,1.142,1.775l.12.417h.81V6.188h-.744l-.119.578a2.394,2.394,0,0,1-1.209,1.775,2.188,2.188,0,0,1-.969.067h-1.527V7.156c0-1.506.08-4.681.133-5.178ZM496,12.374a4.828,4.828,0,0,0-2.749-2.112,6.616,6.616,0,0,1-2.377-1.345,1.356,1.356,0,0,1-.385-1.2,1.611,1.611,0,0,1,.465-1.13,1.593,1.593,0,0,1,1.593-.444,3.371,3.371,0,0,1,2.35,2.528c.212.605.239.605.624.444l.239-.094V5.677l-.172-.081a10.143,10.143,0,0,0-4.077-.565,4.748,4.748,0,0,0-3.187,1.345,3.736,3.736,0,0,0-1.155,2.9,3.209,3.209,0,0,0,.9,2.206,5.376,5.376,0,0,0,2.257,1.345c2.058.82,2.656,1.345,2.656,2.3a1.771,1.771,0,0,1-1.328,1.762,3.237,3.237,0,0,1-1.407,0,4.124,4.124,0,0,1-2.483-2.838l-.172-.43h-.239a1.056,1.056,0,0,0-.332.08h-.133v3.82h.226a13.524,13.524,0,0,0,2.762.619h1.328a5.142,5.142,0,0,0,1.713-.161,4.145,4.145,0,0,0,3.134-2.69,3.162,3.162,0,0,0,.239-1.211A3.388,3.388,0,0,0,496,12.374M483.491,5.421a6.052,6.052,0,0,0-5.006.121,5.887,5.887,0,0,0-3.041,3.672,7.266,7.266,0,0,0-.358,2.69,7.462,7.462,0,0,0,.119,1.479,5.934,5.934,0,0,0,4.767,4.815,9.171,9.171,0,0,0,2.324,0,6.328,6.328,0,0,0,2.257-.874,4.005,4.005,0,0,0,1.407-1.345.672.672,0,0,0-.319-.417,1.709,1.709,0,0,0-.425.229,3.762,3.762,0,0,1-2.231.632,3.521,3.521,0,0,1-2.828-1.13,3.213,3.213,0,0,1-.677-.915,6.323,6.323,0,0,1-.651-2.69v-.525h7.356V10.9a6.581,6.581,0,0,0,0-.807,5.391,5.391,0,0,0-2.7-4.667m-3.7,4.654h-.929V9.281c.305-2.031,1.062-3.241,1.992-3.241s1.328,1.2,1.5,3.389v.619h-.8Zm-19.094-5.1a2.759,2.759,0,0,0-1.328.282,4.48,4.48,0,0,0-2.058,2.085l-.172.322V4.977h-.067c-.159,0-5.072,1-5.232,1.063s-.106.081-.106.323,0,.282.106.3l.518.107a.953.953,0,0,1,.744.39c.332.444.4,1.224.4,4.546a26.309,26.309,0,0,1-.186,4.479,1.1,1.1,0,0,1-.916.874l-.452.094h-.173v.376a.545.545,0,0,0,0,.39h7.423v-.39a1,1,0,0,0,0-.39,7.356,7.356,0,0,1-1.328-.175,1.349,1.349,0,0,1-.7-1.345,47.51,47.51,0,0,1-.133-4.815c.027-1.749,0-1.856.146-1.977a2.372,2.372,0,0,1,1.554-.5,3.428,3.428,0,0,1,1.514.39,1.983,1.983,0,0,0,.518.2s1.328-3.255,1.328-3.4a1.556,1.556,0,0,0-1.394-.538m-8.949,5.649a6.056,6.056,0,0,0-2.735-4.788,6.828,6.828,0,0,0-6.214-.175,6.062,6.062,0,0,0-2.908,3.5,9.1,9.1,0,0,0,0,5.165,5.652,5.652,0,0,0,1.421,2.434,5.363,5.363,0,0,0,3.067,1.506,13.231,13.231,0,0,0,2.231,0,6.928,6.928,0,0,0,.81-.175,5.958,5.958,0,0,0,4.236-4.775,11.921,11.921,0,0,0,.093-2.69m-5.524,6.725c-1.328.4-2.324-.9-2.656-3.645a25.514,25.514,0,0,1,0-4.317c.265-2.206.943-3.322,1.992-3.322a1.319,1.319,0,0,1,1.115.5c.89.9,1.328,2.69,1.328,5.38a10.085,10.085,0,0,1-.691,4.465,2.022,2.022,0,0,1-1.089.874Zm23.9-12.105a4.373,4.373,0,0,0-1.129,0,4.97,4.97,0,0,0-2.085.457l-.412.175V2.96A20.3,20.3,0,0,0,466.5,0c-.159,0-5.232.981-5.311,1.022a.42.42,0,0,0,0,.309c0,.282,0,.269.6.4a1.7,1.7,0,0,1,.478.188,1.661,1.661,0,0,1,.491.928,15.586,15.586,0,0,1,.146,3.094V17.755l.358.08c.531.121,2.032.377,2.523.431a18.4,18.4,0,0,0,2.948,0,6.025,6.025,0,0,0,4.966-3.78,9.349,9.349,0,0,0,.5-2.045A12.249,12.249,0,0,0,474.1,9.6,5.152,5.152,0,0,0,470.12,5.246Zm-3.479,11.876c0-.175-.133-6.066-.106-8.42V6.86l.385-.094a2.746,2.746,0,0,1,.783,0,1.315,1.315,0,0,1,.823.189,4.046,4.046,0,0,1,1.713,3.066,15,15,0,0,1,0,2.945,6.514,6.514,0,0,1-1.54,3.86,1.836,1.836,0,0,1-.943.484,2.339,2.339,0,0,1-.81,0c-.252,0-.252-.081-.252-.188Z" transform="translate(-427.185 29.112)" fill="#33629a"/>
      <rect id="Rectangle_213" data-name="Rectangle 213" width="0.676" height="16.641" transform="translate(1.372 54.876)" fill="#333"/>
      <path id="Path_744" data-name="Path 744" d="M468.223,81.618v-.535h3.689v.535h-1.547v4.448h-.6V81.618Z" transform="translate(-457.862 -25.517)" fill="#333"/>
      <path id="Path_745" data-name="Path 745" d="M482.209,86.066V81.083h2.969v.535h-2.373V83.3h2.219v.535h-2.219v1.693h2.411v.535Z" transform="translate(-467.236 -25.517)" fill="#333"/>
      <path id="Path_746" data-name="Path 746" d="M498.043,82.505h-.6a1.277,1.277,0,0,0-.183-.458,1.291,1.291,0,0,0-.317-.332,1.375,1.375,0,0,0-.412-.2,1.625,1.625,0,0,0-.471-.068,1.478,1.478,0,0,0-.808.229,1.572,1.572,0,0,0-.574.674,2.912,2.912,0,0,0,0,2.185,1.571,1.571,0,0,0,.574.674,1.478,1.478,0,0,0,.808.229,1.624,1.624,0,0,0,.471-.068,1.374,1.374,0,0,0,.412-.2,1.265,1.265,0,0,0,.5-.79h.6a2.03,2.03,0,0,1-.245.684,1.848,1.848,0,0,1-.442.512,1.912,1.912,0,0,1-.592.32,2.191,2.191,0,0,1-.7.11,2.04,2.04,0,0,1-1.119-.312,2.126,2.126,0,0,1-.771-.885,3.442,3.442,0,0,1,0-2.725,2.129,2.129,0,0,1,.771-.886,2.043,2.043,0,0,1,1.119-.311,2.191,2.191,0,0,1,.7.11,1.919,1.919,0,0,1,.592.32,1.857,1.857,0,0,1,.442.511,2.019,2.019,0,0,1,.245.685" transform="translate(-475.067 -25.382)" fill="#333"/>
      <path id="Path_747" data-name="Path 747" d="M509.393,86.066V81.083h.6V83.3h2.623V81.083h.6v4.983h-.6V83.838h-2.623v2.229Z" transform="translate(-485.456 -25.517)" fill="#333"/>
      <path id="Path_748" data-name="Path 748" d="M528.473,81.083v4.983H527.9l-2.681-3.912h-.048v3.912h-.6V81.083h.576l2.69,3.922h.048V81.083Z" transform="translate(-495.63 -25.517)" fill="#333"/>
      <path id="Path_749" data-name="Path 749" d="M543.775,83.439a3.07,3.07,0,0,1-.281,1.363,2.132,2.132,0,0,1-.771.886,2.166,2.166,0,0,1-2.239,0,2.126,2.126,0,0,1-.771-.886,3.442,3.442,0,0,1,0-2.725,2.126,2.126,0,0,1,.771-.885,2.166,2.166,0,0,1,2.239,0,2.132,2.132,0,0,1,.771.885,3.07,3.07,0,0,1,.281,1.363m-.576,0a2.523,2.523,0,0,0-.213-1.093,1.573,1.573,0,0,0-.574-.674,1.542,1.542,0,0,0-1.616,0,1.572,1.572,0,0,0-.574.674,2.914,2.914,0,0,0,0,2.185,1.575,1.575,0,0,0,.574.674,1.544,1.544,0,0,0,1.616,0,1.576,1.576,0,0,0,.574-.674,2.523,2.523,0,0,0,.213-1.093" transform="translate(-505.589 -25.381)" fill="#333"/>
      <path id="Path_750" data-name="Path 750" d="M555.631,86.066V81.083h.6v4.448h2.286v.535Z" transform="translate(-516.447 -25.517)" fill="#333"/>
      <path id="Path_751" data-name="Path 751" d="M570.929,83.439a3.069,3.069,0,0,1-.281,1.363,2.13,2.13,0,0,1-.771.886,2.166,2.166,0,0,1-2.239,0,2.125,2.125,0,0,1-.771-.886,3.439,3.439,0,0,1,0-2.725,2.125,2.125,0,0,1,.771-.885,2.166,2.166,0,0,1,2.239,0,2.13,2.13,0,0,1,.771.885,3.069,3.069,0,0,1,.281,1.363m-.576,0a2.523,2.523,0,0,0-.213-1.093,1.573,1.573,0,0,0-.574-.674,1.542,1.542,0,0,0-1.616,0,1.573,1.573,0,0,0-.574.674,2.914,2.914,0,0,0,0,2.185,1.576,1.576,0,0,0,.574.674,1.544,1.544,0,0,0,1.616,0,1.576,1.576,0,0,0,.574-.674,2.523,2.523,0,0,0,.213-1.093" transform="translate(-523.789 -25.381)" fill="#333"/>
      <path id="Path_752" data-name="Path 752" d="M585.759,82.505a1.819,1.819,0,0,0-.208-.442,1.392,1.392,0,0,0-.305-.335,1.291,1.291,0,0,0-.4-.212,1.579,1.579,0,0,0-.49-.073,1.444,1.444,0,0,0-.8.229,1.571,1.571,0,0,0-.569.674,2.536,2.536,0,0,0-.211,1.093,2.51,2.51,0,0,0,.214,1.092,1.572,1.572,0,0,0,.579.674,1.511,1.511,0,0,0,.821.229,1.485,1.485,0,0,0,.746-.184,1.286,1.286,0,0,0,.5-.521,1.649,1.649,0,0,0,.181-.794l.183.039h-1.48V83.44H586.4v.535a2.133,2.133,0,0,1-.258,1.071,1.8,1.8,0,0,1-.711.7,2.277,2.277,0,0,1-2.186-.062,2.078,2.078,0,0,1-.769-.885,3.128,3.128,0,0,1-.275-1.363,3.364,3.364,0,0,1,.157-1.065,2.354,2.354,0,0,1,.445-.807,1.956,1.956,0,0,1,.682-.511,2.088,2.088,0,0,1,.867-.178,2.191,2.191,0,0,1,.727.118,2,2,0,0,1,.6.333,1.933,1.933,0,0,1,.443.513,1.988,1.988,0,0,1,.245.661Z" transform="translate(-534.257 -25.382)" fill="#333"/>
      <path id="Path_753" data-name="Path 753" d="M596.743,81.083h.682l1.365,2.326h.058l1.365-2.326h.682l-1.778,2.929v2.054h-.6V84.013Z" transform="translate(-544.001 -25.517)" fill="#333"/>
      <path id="Path_754" data-name="Path 754" d="M472.607,113.273h-.6a1.276,1.276,0,0,0-.183-.458,1.292,1.292,0,0,0-.317-.332,1.375,1.375,0,0,0-.412-.2,1.622,1.622,0,0,0-.471-.068,1.479,1.479,0,0,0-.808.229,1.571,1.571,0,0,0-.574.674,2.912,2.912,0,0,0,0,2.185,1.57,1.57,0,0,0,.574.674,1.479,1.479,0,0,0,.808.229,1.623,1.623,0,0,0,.471-.068,1.375,1.375,0,0,0,.412-.2,1.265,1.265,0,0,0,.5-.79h.6a2.031,2.031,0,0,1-.245.684,1.85,1.85,0,0,1-.442.512,1.913,1.913,0,0,1-.592.32,2.191,2.191,0,0,1-.7.11,2.04,2.04,0,0,1-1.119-.312,2.125,2.125,0,0,1-.771-.885,3.441,3.441,0,0,1,0-2.725,2.128,2.128,0,0,1,.771-.886,2.042,2.042,0,0,1,1.119-.311,2.191,2.191,0,0,1,.7.11,1.92,1.92,0,0,1,.592.32,1.858,1.858,0,0,1,.442.511,2.021,2.021,0,0,1,.245.685" transform="translate(-458.018 -45.872)" fill="#333"/>
      <path id="Path_755" data-name="Path 755" d="M487.717,114.207a3.07,3.07,0,0,1-.281,1.363,2.13,2.13,0,0,1-.771.886,2.166,2.166,0,0,1-2.239,0,2.126,2.126,0,0,1-.771-.886,3.441,3.441,0,0,1,0-2.725,2.126,2.126,0,0,1,.771-.886,2.166,2.166,0,0,1,2.239,0,2.13,2.13,0,0,1,.771.886,3.07,3.07,0,0,1,.281,1.363m-.576,0a2.524,2.524,0,0,0-.213-1.093,1.574,1.574,0,0,0-.574-.674,1.542,1.542,0,0,0-1.617,0,1.572,1.572,0,0,0-.574.674,2.913,2.913,0,0,0,0,2.185,1.575,1.575,0,0,0,.574.674,1.544,1.544,0,0,0,1.617,0,1.577,1.577,0,0,0,.574-.674,2.524,2.524,0,0,0,.213-1.093" transform="translate(-468.017 -45.871)" fill="#333"/>
      <path id="Path_756" data-name="Path 756" d="M502.8,111.851h.6v3.3a1.76,1.76,0,0,1-.237.911,1.673,1.673,0,0,1-.667.63,2.33,2.33,0,0,1-2.018,0,1.668,1.668,0,0,1-.666-.63,1.754,1.754,0,0,1-.237-.911v-3.3h.6V115.1a1.308,1.308,0,0,0,.158.648,1.13,1.13,0,0,0,.453.445,1.62,1.62,0,0,0,1.411,0,1.119,1.119,0,0,0,.453-.445,1.312,1.312,0,0,0,.158-.648Z" transform="translate(-478.875 -46.007)" fill="#333"/>
      <path id="Path_757" data-name="Path 757" d="M518.684,111.852v4.983h-.577l-2.681-3.913h-.048v3.913h-.6v-4.983h.576l2.69,3.922h.048v-3.922Z" transform="translate(-489.068 -46.008)" fill="#333"/>
      <path id="Path_758" data-name="Path 758" d="M533.793,113.273h-.6a1.277,1.277,0,0,0-.183-.458,1.291,1.291,0,0,0-.317-.332,1.374,1.374,0,0,0-.412-.2,1.622,1.622,0,0,0-.471-.068,1.479,1.479,0,0,0-.808.229,1.571,1.571,0,0,0-.574.674,2.912,2.912,0,0,0,0,2.185,1.57,1.57,0,0,0,.574.674,1.478,1.478,0,0,0,.808.229,1.623,1.623,0,0,0,.471-.068,1.374,1.374,0,0,0,.412-.2,1.265,1.265,0,0,0,.5-.79h.6a2.033,2.033,0,0,1-.245.684,1.849,1.849,0,0,1-.442.512,1.914,1.914,0,0,1-.592.32,2.192,2.192,0,0,1-.7.11,2.04,2.04,0,0,1-1.119-.312,2.126,2.126,0,0,1-.771-.885,3.441,3.441,0,0,1,0-2.725,2.129,2.129,0,0,1,.771-.886,2.042,2.042,0,0,1,1.119-.311,2.191,2.191,0,0,1,.7.11,1.921,1.921,0,0,1,.592.32,1.858,1.858,0,0,1,.442.511,2.022,2.022,0,0,1,.245.685" transform="translate(-499.027 -45.872)" fill="#333"/>
      <rect id="Rectangle_214" data-name="Rectangle 214" width="0.596" height="4.983" transform="translate(35.726 65.844)" fill="#333"/>
      <path id="Path_759" data-name="Path 759" d="M550.562,116.835v-4.983h.6V116.3h2.286v.535Z" transform="translate(-513.049 -46.008)" fill="#333"/>
      <g id="Group_2012" data-name="Group 2012" transform="translate(1.155)">
        <path id="Path_760" data-name="Path 760" d="M83.563,30.235v-.672l2.253-2.153q.361-.351.6-.616a2.291,2.291,0,0,0,.353-.505,1.149,1.149,0,0,0,.117-.51.9.9,0,0,0-.156-.529,1.014,1.014,0,0,0-.426-.345,1.465,1.465,0,0,0-.608-.122,1.365,1.365,0,0,0-.624.135.967.967,0,0,0-.41.381,1.125,1.125,0,0,0-.143.576h-.959a1.727,1.727,0,0,1,.28-.981,1.86,1.86,0,0,1,.767-.652,2.774,2.774,0,0,1,2.216,0,1.853,1.853,0,0,1,.749.624,1.537,1.537,0,0,1,.27.889,1.7,1.7,0,0,1-.138.669,2.927,2.927,0,0,1-.48.727,12.663,12.663,0,0,1-.949.97L84.948,29.4v.045h3v.795Z" transform="translate(-61.011 -24.01)"/>
        <path id="Path_761" data-name="Path 761" d="M136.5,30.337a2.3,2.3,0,0,1-1.317-.375,2.326,2.326,0,0,1-.836-1.082,4.54,4.54,0,0,1-.289-1.712,4.481,4.481,0,0,1,.291-1.706,2.333,2.333,0,0,1,.839-1.08,2.494,2.494,0,0,1,2.622,0,2.348,2.348,0,0,1,.837,1.08,4.473,4.473,0,0,1,.291,1.7,4.536,4.536,0,0,1-.289,1.714,2.337,2.337,0,0,1-.836,1.082,2.271,2.271,0,0,1-1.314.373m0-.8a1.189,1.189,0,0,0,1.058-.609,3.332,3.332,0,0,0,.382-1.76,4.183,4.183,0,0,0-.174-1.294,1.733,1.733,0,0,0-.5-.8,1.15,1.15,0,0,0-.769-.274,1.189,1.189,0,0,0-1.057.612,3.348,3.348,0,0,0-.387,1.76,4.189,4.189,0,0,0,.174,1.3,1.719,1.719,0,0,0,.5.8,1.161,1.161,0,0,0,.774.271" transform="translate(-106.015 -24.01)"/>
        <path id="Path_762" data-name="Path 762" d="M189.463,30.235v-.672l2.253-2.153q.361-.351.6-.616a2.291,2.291,0,0,0,.353-.505,1.148,1.148,0,0,0,.117-.51.9.9,0,0,0-.156-.529,1.014,1.014,0,0,0-.426-.345,1.464,1.464,0,0,0-.608-.122,1.365,1.365,0,0,0-.624.135.967.967,0,0,0-.41.381,1.125,1.125,0,0,0-.143.576h-.959a1.727,1.727,0,0,1,.28-.981,1.86,1.86,0,0,1,.767-.652,2.774,2.774,0,0,1,2.216,0,1.853,1.853,0,0,1,.749.624,1.537,1.537,0,0,1,.27.889,1.7,1.7,0,0,1-.138.669,2.928,2.928,0,0,1-.48.727,12.656,12.656,0,0,1-.949.97L190.848,29.4v.045h3v.795Z" transform="translate(-155.382 -24.01)"/>
        <path id="Path_763" data-name="Path 763" d="M239.808,29.713v-.75l2.878-4.192h.64v1.1h-.406l-2.058,3v.048h3.944v.786Zm3.157,1.2V29.485l.007-.342V24.771h.953v6.141Z" transform="translate(-200.252 -24.687)"/>
        <path id="Path_764" data-name="Path 764" d="M4.2,114.16a2.5,2.5,0,0,1-.933-.171,2.191,2.191,0,0,1-.745-.484,2.241,2.241,0,0,1-.49-.729,2.467,2.467,0,0,1,0-1.825,2.243,2.243,0,0,1,.49-.729,2.2,2.2,0,0,1,.742-.484,2.5,2.5,0,0,1,.936-.171,2.478,2.478,0,0,1,.93.171,2.227,2.227,0,0,1,.742.481,2.2,2.2,0,0,1,.49.729,2.482,2.482,0,0,1,0,1.832,2.194,2.194,0,0,1-.49.729,2.224,2.224,0,0,1-.742.481,2.478,2.478,0,0,1-.93.171m0-.426a1.947,1.947,0,0,0,.742-.139,1.749,1.749,0,0,0,.592-.394,1.83,1.83,0,0,0,.392-.593,2.05,2.05,0,0,0,0-1.49,1.832,1.832,0,0,0-.392-.593,1.751,1.751,0,0,0-.592-.393,1.947,1.947,0,0,0-.742-.139,1.971,1.971,0,0,0-.745.139,1.779,1.779,0,0,0-.6.393,1.806,1.806,0,0,0-.395.593,2.042,2.042,0,0,0,0,1.487,1.8,1.8,0,0,0,.395.6,1.776,1.776,0,0,0,.6.394,1.971,1.971,0,0,0,.745.139" transform="translate(-1.515 -98.771)"/>
        <path id="Path_764_-_Outline" data-name="Path 764 - Outline" d="M3.832,113.932a2.648,2.648,0,0,1-.983-.181,2.336,2.336,0,0,1-.791-.514,2.386,2.386,0,0,1-.52-.772,2.6,2.6,0,0,1,0-1.93,2.389,2.389,0,0,1,.52-.773,2.349,2.349,0,0,1,.787-.514,2.642,2.642,0,0,1,.987-.181,2.625,2.625,0,0,1,.981.181,2.373,2.373,0,0,1,.787.51,2.341,2.341,0,0,1,.52.773,2.617,2.617,0,0,1,0,1.936,2.339,2.339,0,0,1-.52.773,2.37,2.37,0,0,1-.787.51A2.625,2.625,0,0,1,3.832,113.932Zm0-4.592a2.37,2.37,0,0,0-.885.161,2.078,2.078,0,0,0-.7.454,2.119,2.119,0,0,0-.461.685,2.332,2.332,0,0,0,0,1.72,2.117,2.117,0,0,0,.461.685,2.064,2.064,0,0,0,.7.454,2.376,2.376,0,0,0,.882.161,2.352,2.352,0,0,0,.879-.161,2.1,2.1,0,0,0,.7-.451,2.069,2.069,0,0,0,.46-.684,2.347,2.347,0,0,0,0-1.728,2.071,2.071,0,0,0-.46-.684,2.1,2.1,0,0,0-.7-.451A2.352,2.352,0,0,0,3.832,109.34Zm0,4.167a2.117,2.117,0,0,1-.8-.149,1.917,1.917,0,0,1-1.068-1.065,2.177,2.177,0,0,1,0-1.59,1.949,1.949,0,0,1,.424-.637,1.922,1.922,0,0,1,.644-.424,2.117,2.117,0,0,1,.8-.149,2.092,2.092,0,0,1,.794.149,1.9,1.9,0,0,1,.638.424,1.976,1.976,0,0,1,.42.637,2.185,2.185,0,0,1,0,1.593,1.974,1.974,0,0,1-.42.637,1.892,1.892,0,0,1-.638.424A2.092,2.092,0,0,1,3.832,113.506Zm0-3.741a1.844,1.844,0,0,0-.694.129,1.651,1.651,0,0,0-.553.363,1.679,1.679,0,0,0-.365.549,1.907,1.907,0,0,0,0,1.384,1.669,1.669,0,0,0,.365.552,1.648,1.648,0,0,0,.553.363,1.844,1.844,0,0,0,.694.129,1.819,1.819,0,0,0,.69-.128,1.621,1.621,0,0,0,.546-.363,1.7,1.7,0,0,0,.363-.55,1.916,1.916,0,0,0,0-1.386,1.706,1.706,0,0,0-.363-.55,1.623,1.623,0,0,0-.546-.363A1.819,1.819,0,0,0,3.832,109.765Z" transform="translate(-1.152 -98.407)"/>
        <path id="Path_765" data-name="Path 765" d="M36,114.294h-.471v-4.515h3.056v.413H36Zm-.051-2.328H38.3v.413H35.946Z" transform="translate(-29.071 -98.943)"/>
        <path id="Path_765_-_Outline" data-name="Path 765 - Outline" d="M35.77,114.065h-.744v-4.786h3.33v.685H35.77v1.5h2.3v.684h-2.3Zm-.471-.272h.2V112.15h-.051v-.684H35.5v-1.774h2.585v-.141H35.3Zm.471-1.916H37.8v-.141H35.77Z" transform="translate(-28.707 -98.579)"/>
        <path id="Path_766" data-name="Path 766" d="M60.28,114.294h-.471v-4.515h3.056v.413H60.28Zm-.051-2.328h2.356v.413H60.229Z" transform="translate(-48.941 -98.943)"/>
        <path id="Path_766_-_Outline" data-name="Path 766 - Outline" d="M60.054,114.065h-.745v-4.786h3.33v.685H60.054v1.5h2.3v.684h-2.3Zm-.471-.272h.2V112.15h-.051v-.684h.051v-1.774h2.585v-.141H59.582Zm.471-1.916h2.031v-.141H60.054Z" transform="translate(-48.578 -98.579)"/>
        <rect id="Rectangle_215" data-name="Rectangle 215" width="0.471" height="4.515" transform="translate(15.28 10.836)"/>
        <path id="Rectangle_215_-_Outline" data-name="Rectangle 215 - Outline" d="M-.5-.5H.244V4.286H-.5Zm.471.272h-.2V4.015h.2Z" transform="translate(15.644 11.2)"/>
        <path id="Path_767" data-name="Path 767" d="M96.935,114.16a2.477,2.477,0,0,1-.93-.171,2.187,2.187,0,0,1-.739-.481,2.219,2.219,0,0,1-.487-.729,2.484,2.484,0,0,1,0-1.832,2.2,2.2,0,0,1,.49-.729,2.229,2.229,0,0,1,.742-.481,2.476,2.476,0,0,1,.93-.171,2.509,2.509,0,0,1,.911.165,1.828,1.828,0,0,1,.719.493l-.3.3a1.658,1.658,0,0,0-.6-.41,1.994,1.994,0,0,0-.713-.126,1.971,1.971,0,0,0-.745.139,1.777,1.777,0,0,0-.6.393,1.849,1.849,0,0,0-.4.593,2.009,2.009,0,0,0,0,1.49,1.847,1.847,0,0,0,.4.593,1.774,1.774,0,0,0,.6.394,1.971,1.971,0,0,0,.745.139,1.944,1.944,0,0,0,.713-.129,1.691,1.691,0,0,0,.6-.413l.3.3a1.86,1.86,0,0,1-.719.5,2.486,2.486,0,0,1-.917.168" transform="translate(-77.414 -98.771)"/>
        <path id="Path_767_-_Outline" data-name="Path 767 - Outline" d="M96.572,113.932a2.625,2.625,0,0,1-.981-.181,2.333,2.333,0,0,1-.784-.51,2.366,2.366,0,0,1-.517-.773,2.619,2.619,0,0,1,0-1.936,2.344,2.344,0,0,1,.52-.773,2.376,2.376,0,0,1,.787-.51,2.623,2.623,0,0,1,.981-.181,2.658,2.658,0,0,1,.96.174,1.971,1.971,0,0,1,.772.53l.084.095-.487.493-.1-.1a1.53,1.53,0,0,0-.555-.377,1.866,1.866,0,0,0-.664-.117,1.844,1.844,0,0,0-.694.129,1.648,1.648,0,0,0-.553.363,1.723,1.723,0,0,0-.369.55,1.875,1.875,0,0,0,0,1.384,1.72,1.72,0,0,0,.369.55,1.646,1.646,0,0,0,.553.363,1.844,1.844,0,0,0,.694.129,1.817,1.817,0,0,0,.663-.12,1.563,1.563,0,0,0,.556-.38l.1-.1.487.493-.084.095a2,2,0,0,1-.771.533A2.635,2.635,0,0,1,96.572,113.932Zm.006-4.592a2.35,2.35,0,0,0-.879.161,2.1,2.1,0,0,0-.7.451,2.074,2.074,0,0,0-.46.684,2.35,2.35,0,0,0,0,1.728,2.1,2.1,0,0,0,.457.685,2.061,2.061,0,0,0,.693.451,2.465,2.465,0,0,0,1.745,0,1.749,1.749,0,0,0,.579-.369l-.111-.113a1.788,1.788,0,0,1-.553.347,2.09,2.09,0,0,1-.763.138,2.117,2.117,0,0,1-.8-.149,1.917,1.917,0,0,1-.644-.424,1.991,1.991,0,0,1-.427-.636,2.144,2.144,0,0,1,0-1.6,1.994,1.994,0,0,1,.427-.637,1.92,1.92,0,0,1,.644-.423,2.117,2.117,0,0,1,.8-.149,2.14,2.14,0,0,1,.762.135,1.754,1.754,0,0,1,.554.345l.111-.113a1.716,1.716,0,0,0-.579-.365A2.384,2.384,0,0,0,96.578,109.34Z" transform="translate(-77.051 -98.407)"/>
        <rect id="Rectangle_216" data-name="Rectangle 216" width="0.471" height="4.515" transform="translate(22.545 10.836)"/>
        <path id="Rectangle_216_-_Outline" data-name="Rectangle 216 - Outline" d="M-.5-.5H.244V4.286H-.5Zm.471.272h-.2V4.015h.2Z" transform="translate(22.909 11.2)"/>
        <path id="Path_768" data-name="Path 768" d="M132.834,114.294l2.037-4.515h.465l2.037,4.515h-.5l-1.872-4.237h.191l-1.872,4.237Zm.8-1.206.14-.387h2.592l.14.387Z" transform="translate(-108.697 -98.943)"/>
        <path id="Path_768_-_Outline" data-name="Path 768 - Outline" d="M137.024,114.065h-.8l-.533-1.206h-2.309l-.533,1.206h-.791l2.16-4.786h.642Zm-.618-.272h.2l-.617-1.367.157.433h-.149Zm-3.921,0h.19l.413-.935h-.181Zm3.09-1.206-.051-.115h-1.967l-.051.115Zm.128-.387h.181l-1.115-2.471-.079.178Zm-2.025,0H135.4l-.863-1.954Zm-.473,0h.175l1.013-2.292-.076-.171Zm1.193-2.644h.293l0-.006H134.4Z" transform="translate(-108.136 -98.579)"/>
        <path id="Path_769" data-name="Path 769" d="M163.985,114.294v-4.515h.471v4.1h2.5v.413Z" transform="translate(-134.188 -98.943)"/>
        <path id="Path_769_-_Outline" data-name="Path 769 - Outline" d="M166.726,114.066h-3.24v-4.786h.744v4.1h2.5Zm-2.967-.272h2.694v-.141h-2.5v-4.1h-.2Z" transform="translate(-133.824 -98.579)"/>
        <path id="Path_770" data-name="Path 770" d="M198.01,114.294v-4.515h.389l2.037,3.522h-.2l2.018-3.522h.388v4.515h-.452v-3.8h.108l-1.859,3.225h-.223l-1.872-3.225h.121v3.8Z" transform="translate(-162.03 -98.943)"/>
        <path id="Path_770_-_Outline" data-name="Path 770 - Outline" d="M202.412,114.066h-.725v-3.237l-1.535,2.663h-.381l-1.536-2.645v3.219h-.725v-4.786h.6l1.855,3.207,1.838-3.207h.6Zm-.452-.272h.179v-3.749l-.179.31Zm-4.177,0h.179v-3.418l-.179-.308Zm2.146-.574h.065l.085-.147h-.235Zm-1.693-2.917,1.5,2.588.075-.131-1.577-2.726Zm1.892,2.456.066.114,1.493-2.59v-.244ZM201.712,110h.427v-.444h-.172Zm-3.929,0h.43l-.257-.444h-.173Z" transform="translate(-161.666 -98.579)"/>
        <path id="Path_771" data-name="Path 771" d="M234.047,113.881h2.681v.413h-3.152v-4.515h3.056v.413h-2.585ZM234,111.8h2.356v.406H234Z" transform="translate(-191.133 -98.943)"/>
        <path id="Path_771_-_Outline" data-name="Path 771 - Outline" d="M236.5,114.065h-3.425v-4.786h3.33v.685H233.82V111.3h2.3v.678h-2.3v1.405H236.5Zm-3.152-.272h2.879v-.141h-2.681v-1.677H233.5V111.3h.051v-1.606h2.585v-.141h-2.783Zm.471-2.09h2.032v-.135H233.82Z" transform="translate(-190.77 -98.579)"/>
        <path id="Path_772" data-name="Path 772" d="M259.121,114.294v-4.515h.388l2.038,3.522h-.2l2.018-3.522h.388v4.515H263.3v-3.8h.108l-1.859,3.225h-.223l-1.872-3.225h.121v3.8Z" transform="translate(-212.036 -98.943)"/>
        <path id="Path_772_-_Outline" data-name="Path 772 - Outline" d="M263.523,114.066H262.8v-3.237l-1.535,2.663h-.381l-1.536-2.645v3.219h-.725v-4.786h.6l1.856,3.207,1.838-3.207h.6Zm-.452-.272h.179v-3.749l-.179.31Zm-4.177,0h.179v-3.418l-.179-.308Zm2.145-.574h.065l.085-.147h-.235Zm-1.693-2.917,1.5,2.588.075-.131-1.577-2.726Zm1.892,2.456.066.114,1.493-2.59v-.244ZM262.823,110h.427v-.444h-.172Zm-3.929,0h.43l-.257-.444h-.173Z" transform="translate(-211.673 -98.579)"/>
        <path id="Path_773" data-name="Path 773" d="M294.688,114.294v-4.515h1.923a1.917,1.917,0,0,1,1.156.3,1,1,0,0,1,.41.858,1.086,1.086,0,0,1-.169.619,1.056,1.056,0,0,1-.458.381,1.54,1.54,0,0,1-.634.129l.108-.155a1.86,1.86,0,0,1,.735.132,1.058,1.058,0,0,1,.481.393,1.154,1.154,0,0,1,.172.648,1.051,1.051,0,0,1-.417.89,2.071,2.071,0,0,1-1.257.316Zm.471-.394h1.573a1.648,1.648,0,0,0,.9-.2.823.823,0,0,0,0-1.29,1.648,1.648,0,0,0-.9-.2h-1.624v-.393h1.471a1.438,1.438,0,0,0,.831-.207.785.785,0,0,0,0-1.229,1.456,1.456,0,0,0-.831-.2h-1.42Z" transform="translate(-241.141 -98.943)"/>
        <path id="Path_773_-_Outline" data-name="Path 773 - Outline" d="M296.375,114.065h-2.187v-4.786h2.059a2.056,2.056,0,0,1,1.237.33,1.137,1.137,0,0,1,.466.967,1.223,1.223,0,0,1-.192.694,1.17,1.17,0,0,1-.286.3,1.192,1.192,0,0,1,.519.434,1.292,1.292,0,0,1,.194.723,1.185,1.185,0,0,1-.471,1A2.209,2.209,0,0,1,296.375,114.065Zm-1.914-.272h1.914a1.954,1.954,0,0,0,1.175-.288.916.916,0,0,0,.363-.782,1.028,1.028,0,0,0-.15-.574.916.916,0,0,0-.421-.343,1.344,1.344,0,0,0-.2-.067q-.066.024-.135.042a1.227,1.227,0,0,1,.333.147.957.957,0,0,1,0,1.517,1.785,1.785,0,0,1-.973.225h-1.709v-1.7h-.051v-.665h.051v-1.638h1.556a1.593,1.593,0,0,1,.909.227.92.92,0,0,1,0,1.452,1.032,1.032,0,0,1-.142.083q.07.009.137.022l.011,0a.914.914,0,0,0,.4-.332.96.96,0,0,0,.146-.544.868.868,0,0,0-.355-.749,1.8,1.8,0,0,0-1.074-.276h-1.786Zm.471-.394h1.436a1.528,1.528,0,0,0,.823-.181.585.585,0,0,0,.25-.534.579.579,0,0,0-.25-.528,1.527,1.527,0,0,0-.823-.181h-1.436Zm0-1.7h1.454l.095-.136a2.456,2.456,0,0,1-.266.014h-1.283Zm0-.393h1.283a1.315,1.315,0,0,0,.752-.182.651.651,0,0,0,0-1.006,1.333,1.333,0,0,0-.753-.179h-1.283Z" transform="translate(-240.778 -98.579)"/>
        <path id="Path_774" data-name="Path 774" d="M323.682,113.881h2.68v.413h-3.152v-4.515h3.056v.413h-2.585Zm-.051-2.083h2.356v.406h-2.356Z" transform="translate(-264.481 -98.943)"/>
        <path id="Path_774_-_Outline" data-name="Path 774 - Outline" d="M326.136,114.065h-3.425v-4.786h3.33v.685h-2.585V111.3h2.305v.678h-2.305v1.405h2.68Zm-3.152-.272h2.878v-.141h-2.681v-1.677h-.051V111.3h.051v-1.606h2.585v-.141h-2.783Zm.471-2.09h2.032v-.135h-2.032Z" transform="translate(-264.118 -98.579)"/>
        <path id="Path_775" data-name="Path 775" d="M348.756,114.294v-4.515h1.668a2.355,2.355,0,0,1,.974.184,1.409,1.409,0,0,1,.627.529,1.524,1.524,0,0,1,.22.835,1.5,1.5,0,0,1-.22.822,1.408,1.408,0,0,1-.627.529,2.355,2.355,0,0,1-.974.184h-1.407l.21-.219v1.651Zm.471-1.612-.21-.226h1.394a1.523,1.523,0,0,0,1.016-.3,1.178,1.178,0,0,0,0-1.67,1.523,1.523,0,0,0-1.016-.3h-1.394l.21-.226Zm2.572,1.612-1.146-1.638h.51l1.153,1.638Z" transform="translate(-285.384 -98.943)"/>
        <path id="Path_775_-_Outline" data-name="Path 775 - Outline" d="M352.214,114h-.85l-1.011-1.445c-.094.008-.192.013-.293.013H349V114h-.745v-4.786h.722l.022-.024v.024h1.06a2.5,2.5,0,0,1,1.031.2,1.549,1.549,0,0,1,.686.58,1.663,1.663,0,0,1,.241.908,1.639,1.639,0,0,1-.241.895,1.549,1.549,0,0,1-.686.58l-.017.008Zm-.707-.272h.182l-.882-1.254c-.049.014-.1.026-.152.037Zm-2.978,0h.2v-1.16h-.2Zm0-1.636v.273l.129-.134Zm.471.2h1.06l.111,0-.093-.133H349v.037l.032.035-.032.034Zm1.644-.206h.226l.044.062.064-.027a1.28,1.28,0,0,0,.568-.478,1.373,1.373,0,0,0,.2-.75,1.4,1.4,0,0,0-.2-.763,1.281,1.281,0,0,0-.568-.478,2.231,2.231,0,0,0-.918-.172H349v.141h1.047a1.66,1.66,0,0,1,1.1.33,1.313,1.313,0,0,1,0,1.876A1.291,1.291,0,0,1,350.644,112.092Zm-1.644-.2h1.047a1.4,1.4,0,0,0,.926-.264,1.045,1.045,0,0,0,0-1.464,1.4,1.4,0,0,0-.927-.264H349Zm-.471,0h.2V109.9h-.2Zm0-2.4v.21l.2-.21Z" transform="translate(-285.021 -98.515)"/>
        <rect id="Rectangle_217" data-name="Rectangle 217" width="20.124" height="0.378" transform="translate(0 3.164)" fill="#333"/>
        <rect id="Rectangle_1121" data-name="Rectangle 1121" width="20.124" height="0.378" transform="translate(46.975 3.164)" fill="#333"/>
      </g>
    </g>
  </g>
</svg>
