<svg width="64" height="64" viewBox="0 0 64 64" fill="none" xmlns="http://www.w3.org/2000/svg">
<g clip-path="url(#clip0_3_166)">
<path d="M32 64C49.6731 64 64 49.6731 64 32C64 14.3269 49.6731 0 32 0C14.3269 0 0 14.3269 0 32C0 49.6731 14.3269 64 32 64Z" fill="#F48120"/>
<path fill-rule="evenodd" clip-rule="evenodd" d="M30.4206 42.2097H33.5802C33.7857 42.2097 33.9827 42.129 34.128 41.9854C34.2732 41.8418 34.3549 41.6471 34.3549 41.444V39.41C34.9243 39.245 35.474 39.0197 35.9945 38.7381L37.4497 40.1762C37.5949 40.3197 37.7919 40.4003 37.9973 40.4003C38.2027 40.4003 38.3996 40.3197 38.5449 40.1762L40.7792 37.9683C40.9244 37.8247 41.0059 37.63 41.0059 37.427C41.0059 37.224 40.9244 37.0293 40.7792 36.8857L39.3239 35.4472C39.6088 34.9327 39.8369 34.3893 40.0041 33.8265H42.0612C42.2666 33.8265 42.4637 33.7458 42.6089 33.6022C42.7542 33.4586 42.8358 33.2639 42.8358 33.0608V29.9381C42.8358 29.7351 42.7542 29.5403 42.6089 29.3967C42.4637 29.2531 42.2666 29.1725 42.0612 29.1725H40.0041C39.837 28.6097 39.6089 28.0664 39.3239 27.5519L40.7791 26.1139C40.9243 25.9703 41.0058 25.7756 41.0058 25.5726C41.0058 25.3696 40.9243 25.1749 40.7791 25.0314L38.5448 22.823C38.3967 22.6846 38.2007 22.6075 37.9969 22.6075C37.7932 22.6075 37.5971 22.6846 37.4491 22.823L35.994 24.2613C35.4735 23.9796 34.9237 23.7544 34.3543 23.5895V21.5558C34.3543 21.3527 34.2727 21.158 34.1274 21.0144C33.9821 20.8708 33.7851 20.7901 33.5797 20.7901H30.42C30.2145 20.7901 30.0175 20.8708 29.8722 21.0144C29.727 21.158 29.6453 21.3527 29.6453 21.5558V23.5892C29.0759 23.7542 28.5262 23.9794 28.0057 24.261L26.5509 22.8227C26.403 22.6842 26.207 22.607 26.0033 22.607C25.7996 22.607 25.6036 22.6842 25.4557 22.8227L23.2214 25.0311C23.1494 25.1022 23.0923 25.1866 23.0534 25.2795C23.0144 25.3724 22.9944 25.472 22.9944 25.5726C22.9944 25.6732 23.0144 25.7728 23.0534 25.8657C23.0923 25.9586 23.1494 26.043 23.2214 26.1141L24.6762 27.5521C24.3913 28.0666 24.1633 28.6099 23.996 29.1727H21.9401C21.7346 29.1727 21.5376 29.2533 21.3923 29.3969C21.2471 29.5405 21.1654 29.7353 21.1654 29.9383V33.0612C21.1654 33.2643 21.2471 33.459 21.3923 33.6026C21.5376 33.7462 21.7346 33.8269 21.9401 33.8269H23.9972C24.1642 34.3897 24.3921 34.9331 24.6769 35.4476L23.2221 36.8861C23.1501 36.9571 23.0929 37.0414 23.0539 37.1343C23.015 37.2271 22.9949 37.3266 22.9949 37.4272C22.9949 37.5277 23.015 37.6272 23.0539 37.7201C23.0929 37.8129 23.1501 37.8973 23.2221 37.9683L25.4564 40.1762C25.6016 40.3197 25.7986 40.4003 26.004 40.4003C26.2094 40.4003 26.4063 40.3197 26.5516 40.1762L28.0063 38.7381C28.5269 39.0198 29.0766 39.2452 29.646 39.4105V41.444C29.646 41.6471 29.7276 41.8418 29.8729 41.9854C30.0182 42.129 30.2152 42.2097 30.4206 42.2097ZM30.1846 53.7847H33.8156C34.2043 53.7844 34.577 53.6316 34.8519 53.3599C35.1268 53.0882 35.2815 52.7198 35.2819 52.3356V50.967C35.2815 50.5828 35.1269 50.2144 34.852 49.9427C34.5772 49.6711 34.2045 49.5183 33.8158 49.5179H30.1848C29.796 49.5182 29.4232 49.671 29.1482 49.9426C28.8733 50.2143 28.7185 50.5827 28.718 50.967V52.3356C28.7186 52.7198 28.8734 53.0881 29.1483 53.3597C29.4232 53.6313 29.7959 53.784 30.1846 53.7844V53.7847ZM33.7331 52.2534H30.2673V51.0493H33.7332L33.7331 52.2534ZM26.156 12.1147H37.9554C38.1608 12.1147 38.3579 12.034 38.5031 11.8904C38.6484 11.7468 38.73 11.5521 38.73 11.349C38.73 11.1459 38.6484 10.9512 38.5031 10.8076C38.3579 10.664 38.1608 10.5833 37.9554 10.5833H26.156C25.9506 10.5833 25.7536 10.664 25.6083 10.8076C25.463 10.9512 25.3814 11.1459 25.3814 11.349C25.3814 11.5521 25.463 11.7468 25.6083 11.8904C25.7536 12.034 25.9505 12.1147 26.156 12.1147ZM18.5496 48.8335H45.4512V53.4907C45.4509 53.7501 45.3465 53.9988 45.1609 54.1822C44.9753 54.3655 44.7237 54.4687 44.4613 54.4689H19.5387C19.2764 54.4686 19.0249 54.3654 18.8394 54.182C18.6539 53.9987 18.5495 53.75 18.5492 53.4907V48.8333L18.5496 48.8335ZM47 48.0932V48.0678V14.9322V14.9068V9.50938C46.9992 8.84408 46.7315 8.20625 46.2556 7.73582C45.7796 7.26538 45.1343 7.00076 44.4613 7H19.5387C18.8657 7.00076 18.2204 7.26538 17.7444 7.73582C17.2685 8.20625 17.0008 8.84408 17 9.50938V53.4905C17.0008 54.1558 17.2686 54.7936 17.7445 55.2641C18.2204 55.7345 18.8657 55.9992 19.5387 56H44.4613C45.1343 55.9992 45.7796 55.7346 46.2556 55.2642C46.7315 54.7937 46.9992 54.1559 47 53.4906V48.0927V48.0932ZM45.4508 14.1667H18.5496V9.50957C18.5499 9.25025 18.6543 9.00164 18.8398 8.81826C19.0253 8.63489 19.2768 8.53173 19.5391 8.53143H44.4613C44.7237 8.53171 44.9753 8.63484 45.1608 8.8182C45.3464 9.00157 45.4509 9.2502 45.4512 9.50957V14.1667H45.4508ZM45.4508 47.3021H18.5496V15.6978H45.4512L45.4508 47.3021ZM32.0005 36.7441C33.05 36.7441 34.0759 36.4365 34.9485 35.8602C35.8211 35.2839 36.5012 34.4647 36.9028 33.5063C37.3044 32.5479 37.4094 31.4933 37.2047 30.4759C36.9999 29.4585 36.4944 28.524 35.7523 27.7905C35.0102 27.057 34.0646 26.5575 33.0353 26.3552C32.006 26.1529 30.9391 26.2569 29.9695 26.6539C28.9999 27.051 28.1713 27.7233 27.5883 28.5859C27.0053 29.4485 26.6942 30.4626 26.6943 31.4999C26.6959 32.8904 27.2555 34.2234 28.2502 35.2066C29.245 36.1898 30.5937 36.7427 32.0005 36.7441ZM32.0005 27.7867C32.7435 27.7867 33.4699 28.0045 34.0877 28.4126C34.7056 28.8206 35.1871 29.4006 35.4715 30.0792C35.7558 30.7577 35.8302 31.5044 35.6852 32.2248C35.5402 32.9451 35.1824 33.6068 34.6569 34.1261C34.1315 34.6455 33.462 34.9991 32.7332 35.1424C32.0045 35.2856 31.2491 35.212 30.5626 34.9309C29.8761 34.6498 29.2894 34.1738 28.8766 33.5631C28.4638 32.9524 28.2435 32.2344 28.2436 31.4999C28.2446 30.5153 28.6408 29.5714 29.3451 28.8752C30.0494 28.179 31.0044 27.7875 32.0005 27.7864V27.7867ZM32.8057 40.6786H31.1953V38.8151C31.1953 38.6397 31.1343 38.4696 31.0226 38.3332C30.9109 38.1969 30.7553 38.1026 30.5817 38.0662C29.7718 37.8962 29.0006 37.5801 28.3067 37.1338C28.1579 37.0383 27.9804 36.9962 27.8039 37.0146C27.6274 37.033 27.4627 37.1106 27.3373 37.2347L26.0034 38.5529L24.8649 37.4276L26.1987 36.1087C26.3243 35.9848 26.403 35.822 26.4215 35.6475C26.4401 35.473 26.3975 35.2976 26.3007 35.1505C25.8489 34.4648 25.5291 33.7024 25.3574 32.9018C25.3205 32.7303 25.2251 32.5764 25.0872 32.466C24.9493 32.3556 24.7772 32.2953 24.5997 32.2953H22.7147V30.704H24.5995C24.777 30.704 24.9491 30.6437 25.087 30.5333C25.2249 30.4229 25.3203 30.2691 25.3572 30.0975C25.5291 29.2972 25.849 28.5352 26.3008 27.8497C26.3975 27.7025 26.4402 27.527 26.4216 27.3525C26.403 27.1779 26.3243 27.015 26.1987 26.891L24.865 25.5726L26.0036 24.447L27.3373 25.7653C27.4627 25.8895 27.6275 25.9673 27.804 25.9856C27.9805 26.0039 28.1581 25.9616 28.3068 25.8658C29.0006 25.4194 29.7718 25.1034 30.5818 24.9339C30.7554 24.8975 30.911 24.8032 31.0227 24.6669C31.1344 24.5305 31.1954 24.3604 31.1954 24.185V22.3215H32.8057V24.185C32.8057 24.3604 32.8667 24.5305 32.9783 24.6669C33.09 24.8032 33.2457 24.8975 33.4193 24.9339C34.2291 25.1037 35.0002 25.4198 35.6938 25.8663C35.8426 25.962 36.0202 26.0041 36.1968 25.9858C36.3733 25.9675 36.5382 25.8898 36.6637 25.7657L37.9975 24.447L39.1359 25.5727L37.8022 26.8911C37.6766 27.0151 37.5979 27.178 37.5794 27.3526C37.5609 27.5272 37.6036 27.7027 37.7006 27.8498C38.1522 28.5354 38.4719 29.2976 38.6438 30.098C38.6806 30.2696 38.776 30.4234 38.9139 30.5338C39.0519 30.6442 39.224 30.7045 39.4014 30.7045H41.2863V32.2961H39.4009C39.2235 32.2961 39.0514 32.3563 38.9135 32.4667C38.7755 32.5771 38.6802 32.731 38.6433 32.9026C38.4716 33.7033 38.1519 34.4658 37.7001 35.1518C37.6034 35.2988 37.5608 35.4742 37.5793 35.6487C37.5978 35.8231 37.6763 35.9859 37.8017 36.11L39.1354 37.4288L37.9975 38.5536L36.6637 37.2353C36.5383 37.1113 36.3735 37.0336 36.1971 37.0153C36.0206 36.9969 35.8431 37.039 35.6943 37.1344C35.0003 37.5806 34.2291 37.8965 33.4193 38.0664C33.2457 38.1028 33.09 38.1971 32.9783 38.3334C32.8667 38.4698 32.8057 38.6399 32.8057 38.8153V40.6783V40.6786Z" fill="white"/>
</g>
<defs>
<clipPath id="clip0_3_166">
<rect width="64" height="64" fill="white"/>
</clipPath>
</defs>
</svg>
