<svg xmlns="http://www.w3.org/2000/svg" width="35" height="35" viewBox="0 0 35 35">
  <g id="Icon_ionic-md-analytics" data-name="Icon ionic-md-analytics" transform="translate(-2.25 -3.375)">
    <path id="Path_3595" data-name="Path 3595" d="M29.385,12.653,22.574,23.874a4.188,4.188,0,0,1,.844,2.549,3.9,3.9,0,0,1-3.749,4.037,3.9,3.9,0,0,1-3.749-4.037,4.755,4.755,0,0,1,.062-.749l-4.5-2.818a3.546,3.546,0,0,1-4.444.606L2.25,28.29V33.1a3.479,3.479,0,0,0,3.335,3.592h28.33A3.479,3.479,0,0,0,37.25,33.1V15.218l-4.577-3.272a3.564,3.564,0,0,1-2.3.85A3.5,3.5,0,0,1,29.385,12.653Z" transform="translate(0 1.682)"/>
    <path id="Path_3596" data-name="Path 3596" d="M8.889,17.59a3.9,3.9,0,0,1,3.749,4.037c0,.177-.016.353-.031.522L17.3,24.976a3.557,3.557,0,0,1,2.375-.908,3.654,3.654,0,0,1,.812.093l6.827-11.389a4.207,4.207,0,0,1-.7-2.338,3.76,3.76,0,1,1,7.5,0,4.71,4.71,0,0,1-.1.95L37.243,13.7V6.967a3.479,3.479,0,0,0-3.335-3.592H5.585A3.479,3.479,0,0,0,2.25,6.967V26.254l3.124-3.222a4.36,4.36,0,0,1-.234-1.4A3.9,3.9,0,0,1,8.889,17.59Z" transform="translate(0 0)"/>
  </g>
</svg>
