<svg xmlns="http://www.w3.org/2000/svg" width="35.304" height="35.357" viewBox="0 0 35.304 35.357">
  <g id="retrieval_16407629_1_" data-name="retrieval_16407629 (1)" transform="translate(-3.979 507.704)">
    <path id="Path_9260" data-name="Path 9260" d="M20.6-507.5a4.94,4.94,0,0,0-4.006,3.257c-.09.292-.139.362-.229.32a3.432,3.432,0,0,0-3.074-.014,3.622,3.622,0,0,0-1.871,3.055v.327l-.32.077a3.64,3.64,0,0,0-1.836,1.211l-.174.251L7.178-499c-1.711.021-1.94.035-2.156.153a1.559,1.559,0,0,0-.716.7l-.153.278L4.132-488.4c-.014,6.694,0,9.554.056,9.777a1.475,1.475,0,0,0,.786,1.009l.355.174H16.566v1.865l-1.231.028c-1.4.021-1.641.09-2.17.619a2.036,2.036,0,0,0-.619,1.531c-.028.585-.028.6.16.751l.195.146,6.481-.014c7.6-.021,6.815.077,6.766-.891a2.045,2.045,0,0,0-.7-1.58c-.529-.487-.688-.529-2.1-.571l-1.252-.042V-477.4l1.78-.021,1.78-.014.118.459a5.941,5.941,0,0,0,4.437,4.168,8.2,8.2,0,0,0,6.231-.814,7.571,7.571,0,0,0,1.919-1.935,6.151,6.151,0,0,0,.737-3.619,7.477,7.477,0,0,0-1.739-4.175c-.264-.362-.744-1.03-1.071-1.489l-.6-.828.174-.2a1.146,1.146,0,0,0-.076-1.573l-.236-.237L36-488.6c.814-1.635.841-2.644.09-3.1a1.77,1.77,0,0,0-1.273-.042c-.125.056-.25.083-.271.056s-.042-1.413-.042-3.09a15.863,15.863,0,0,0-.1-3.312,1.418,1.418,0,0,0-.7-.731c-.257-.139-.4-.153-1.926-.174l-1.655-.021-.07-.292a4.994,4.994,0,0,0-1.412-2.387,5.288,5.288,0,0,0-2.149-1.086c-.376-.07-.473-.111-.473-.216a5.47,5.47,0,0,0-.529-1.83A4.828,4.828,0,0,0,20.6-507.5Zm1.551,1.009a4.241,4.241,0,0,1,2.531,2.053,5.215,5.215,0,0,1,.438,1.865c0,.459.111.543.807.633a3.545,3.545,0,0,1,2.35,1.2,3.794,3.794,0,0,1,.869,1.594,5.04,5.04,0,0,1-.035,1.886,3.73,3.73,0,0,1-2.761,2.6,7.435,7.435,0,0,1-1.419.1h-.994v-1.134c0-1.754-.063-1.816-1.829-1.775l-1.036.021-.2.23-.2.223v2.436H18.027V-496.5h.542c.675,0,.987-.139,1.1-.487a.879.879,0,0,0,.028-.418c-.049-.167-2.5-3.681-2.8-4.015a.686.686,0,0,0-.793-.139,15.615,15.615,0,0,0-1.606,2.088c-1.21,1.7-1.4,2.018-1.4,2.234,0,.536.313.738,1.154.738h.515v1.962l-1.683-.028-1.69-.021-.431-.2a2.9,2.9,0,0,1-1.28-1.253,2.472,2.472,0,0,1,.529-2.86,2.41,2.41,0,0,1,1.474-.745c.688-.1.709-.132.7-1.016a2.37,2.37,0,0,1,.132-1.072,2.408,2.408,0,0,1,3.275-1.413,3.591,3.591,0,0,1,.6.341c.271.209.605.237.758.056a1.917,1.917,0,0,0,.188-.619,3.964,3.964,0,0,1,2.858-3.111A4.931,4.931,0,0,1,22.15-506.491Zm-4.624,7.516,1.036,1.461-.577.035c-.932.063-.862-.16-.862,2.832v2.526h-1.46v-2.526c0-1.385-.028-2.554-.056-2.6-.1-.167-.376-.237-.876-.237h-.522l1.085-1.531a12.3,12.3,0,0,1,1.14-1.482C16.462-500.457,16.956-499.782,17.526-498.975Zm-8.915,1.058c-.014.07-.056.257-.076.417l-.049.3H7.345c-1.05,0-1.154.014-1.28.139s-.139.23-.139,8.344c0,7.71.007,8.211.125,8.351l.118.146,9.77.021,9.77.014-.014.174c-.014.1-.042.508-.063.925l-.049.745-10.111-.014-10.118-.021-.132-.167c-.125-.16-.132-.411-.132-9.666v-9.506l.153-.16c.146-.16.167-.16,1.773-.16C8.534-498.036,8.646-498.029,8.611-497.917Zm24.847.063c.146.181.146.251.146,3.375v3.194l-.271-.271a1.614,1.614,0,0,0-.417-.32c-.146-.042-.146-.07-.146-2.5,0-2.38-.007-2.463-.146-2.644l-.139-.181H30.057l.042-.334a2.607,2.607,0,0,1,.07-.418c.014-.063.4-.084,1.586-.084h1.565Zm-10.48,3.89c.028,3-.042,2.77.855,2.811a2.207,2.207,0,0,1,.591.056c0,.035-1.968,2.832-2.093,2.971a11.631,11.631,0,0,1-1.127-1.461l-1.085-1.524.584-.035c.939-.056.869.167.869-2.832V-496.5h1.384ZM8.639-496.2a3.8,3.8,0,0,0,.278.654,3.539,3.539,0,0,0,2.295,1.816,16.458,16.458,0,0,0,1.933.077h1.613v.953c0,1.079.049,1.246.417,1.434.209.1.4.118,1.335.1,1.092-.021,1.1-.021,1.287-.216s.195-.2.216-1.232l.021-1.044h2.636v1.531h-.522c-.681,0-.981.125-1.12.459a.553.553,0,0,0-.035.452c.063.181,2.2,3.257,2.7,3.869a.7.7,0,0,0,.855.3,8.385,8.385,0,0,0,1.377-1.733c.647-.9,1.287-1.809,1.426-2.018.32-.466.341-.752.056-1.065-.188-.209-.223-.223-.834-.25l-.633-.028v-1.517H25a5.04,5.04,0,0,0,2.622-.494A3.73,3.73,0,0,0,28.778-495a5.979,5.979,0,0,0,.765-.932l.2-.362,1.043.014,1.043.021.021,2.136.014,2.136-.466.452-.466.459-.257-.209a2.076,2.076,0,0,0-1.349-.543c-.417-.021-.522,0-.723.139-.4.271-.508.557-.473,1.239a4.929,4.929,0,0,0,.765,2.241l.306.529-.188.139a1.242,1.242,0,0,0-.188,1.635l.188.244-.508.724c-.278.39-.8,1.106-1.147,1.587a12.479,12.479,0,0,0-.967,1.545l-.334.675H16.448l-9.617.007V-496.3h.9C8.458-496.3,8.639-496.275,8.639-496.2Zm24.3,5.574c.4.438.438.452.758.452.376,0,.48-.049,1-.438a.986.986,0,0,1,.661-.285l.292-.007-.007.452a4.35,4.35,0,0,1-.779,2.053l-.334.557-2.163.021-2.163.014-.243-.4a5.665,5.665,0,0,1-.953-2.4c0-.48.431-.445,1.147.083.417.306.508.348.821.348.341,0,.362-.014.786-.452.292-.3.487-.452.6-.452S32.665-490.931,32.943-490.625Zm2.149,3.813a.253.253,0,0,1,.1.23c-.021.125-.111.132-2.837.132s-2.816-.007-2.837-.132c-.063-.306.07-.32,2.837-.32A13.416,13.416,0,0,1,35.092-486.811Zm.056,1.942c.216.32.73,1.044,1.154,1.621a9.469,9.469,0,0,1,1.627,2.818,4.083,4.083,0,0,1,.223,1.844,3.9,3.9,0,0,1-.181,1.691,5.252,5.252,0,0,1-4.159,3.3,5.888,5.888,0,0,1-1.669.1,6.1,6.1,0,0,1-2.914-.682,3.977,3.977,0,0,1-1.328-.953,3.787,3.787,0,0,1-.9-1.2,4.934,4.934,0,0,1-.494-2.248A7.046,7.046,0,0,1,28.242-483c.382-.515.925-1.273,1.2-1.684l.508-.745,2.406-.007h2.406ZM21.156-476.5v.939H17.54v-1.879h3.616Zm3.394,1.99a1.331,1.331,0,0,1,.668.842l.042.195H19.348c-4.019,0-5.911-.021-5.911-.07a1.927,1.927,0,0,1,.334-.724,1.5,1.5,0,0,1,.4-.257c.264-.118.57-.132,5.174-.132C24.195-474.654,24.244-474.654,24.55-474.508Z" transform="translate(0 0)" stroke="#040404" stroke-width="0.3"/>
    <path id="Path_9261" data-name="Path 9261" d="M341.941-170.872a1.143,1.143,0,0,0-.264.446c-.088.27-.142.338-.365.426-.25.1-.277.095-.521-.041-.494-.284-.764-.183-1.433.521-.514.548-.568.757-.3,1.224l.155.264-.149.3c-.128.257-.183.3-.406.338a.833.833,0,0,0-.433.223c-.142.156-.162.243-.189.825-.034,1.007.1,1.3.676,1.4.216.041.264.088.358.331.135.352.135.372-.027.581a.748.748,0,0,0-.135.433c0,.237.047.311.568.845s.595.581.832.581a.842.842,0,0,0,.473-.155c.2-.142.216-.149.521-.034.237.088.324.162.352.291.142.656.3.744,1.312.744.744,0,.757,0,.953-.2a.648.648,0,0,0,.2-.331c0-.257.088-.365.385-.494l.3-.128.21.149a.838.838,0,0,0,.466.155c.23,0,.311-.061.825-.568a3.02,3.02,0,0,0,.608-.744.9.9,0,0,0-.128-.494c-.155-.318-.162-.331-.054-.622.1-.27.142-.311.379-.345a1.094,1.094,0,0,0,.439-.2c.176-.149.183-.183.2-.96s.02-.811-.156-1.021a.742.742,0,0,0-.453-.264c-.257-.054-.3-.088-.412-.372-.129-.311-.129-.318,0-.507.331-.466.237-.737-.473-1.427-.575-.548-.744-.6-1.2-.338-.25.142-.264.142-.561.027-.264-.1-.311-.149-.352-.352a1.2,1.2,0,0,0-.21-.439l-.169-.2h-.832C342.218-171,342.076-170.98,341.941-170.872Zm1.386,1.007c.047.331.149.412.879.717.629.257.737.264,1.061.034l.176-.122.25.257.25.257-.135.23c-.189.311-.176.473.122,1.143.257.581.365.7.771.777.169.034.183.061.183.4v.365l-.264.047a.986.986,0,0,0-.365.122,5.023,5.023,0,0,0-.588,1.406,1.02,1.02,0,0,0,.142.379l.149.237-.243.243-.243.243-.27-.149a1.146,1.146,0,0,0-.372-.149,6.037,6.037,0,0,0-1.406.622,1.309,1.309,0,0,0-.095.345l-.047.257-.379-.02-.372-.02-.061-.284a.7.7,0,0,0-.135-.345,7.78,7.78,0,0,0-1.372-.554,1.05,1.05,0,0,0-.345.142l-.237.149-.257-.257-.264-.264.128-.21c.189-.3.162-.521-.122-1.183-.25-.561-.264-.575-.575-.676l-.318-.1v-.352c0-.352,0-.352.257-.426.338-.088.419-.189.683-.825.25-.608.257-.8.068-1.082l-.142-.2.25-.257.257-.264.3.176.3.176.649-.264c.656-.264.9-.46.9-.737,0-.21.047-.237.439-.237h.352Z" transform="translate(-310.352 -312.787)" stroke="#040404" stroke-width="0.3"/>
    <path id="Path_9262" data-name="Path 9262" d="M372.449-139.517a2.9,2.9,0,0,0-1.3.7,2.7,2.7,0,0,0,.669,4.381,1.827,1.827,0,0,0,1.163.23,2.023,2.023,0,0,0,1.109-.183,3.1,3.1,0,0,0,1.352-1.332,1.9,1.9,0,0,0,.216-1.122,1.933,1.933,0,0,0-.182-1.068,2.672,2.672,0,0,0-1.548-1.474A3.152,3.152,0,0,0,372.449-139.517Zm1.325,1.041a1.844,1.844,0,0,1,1.021,1.812,1.82,1.82,0,0,1-1.907,1.6,1.789,1.789,0,0,1-1.3-2.9A1.82,1.82,0,0,1,373.774-138.476Z" transform="translate(-340.449 -342.107)" stroke="#040404" stroke-width="0.3"/>
  </g>
</svg>
