<svg width="64" height="64" viewBox="0 0 64 64" fill="none" xmlns="http://www.w3.org/2000/svg">
<path d="M32 64C49.6731 64 64 49.6731 64 32C64 14.3269 49.6731 0 32 0C14.3269 0 0 14.3269 0 32C0 49.6731 14.3269 64 32 64Z" fill="#F48120"/>
<path d="M48.4023 46.5464L44.16 45.132V43.9594C45.1328 43.2784 45.8685 42.2828 46.2158 41.12H47.2C48.457 41.12 49.48 40.097 49.48 38.84C49.48 38.1689 49.1828 37.5708 48.72 37.1528V35.8C48.72 31.6094 45.3106 28.2 41.12 28.2C40.8631 28.2 40.61 28.2137 40.36 28.2388V13C40.36 10.4852 38.3148 8.44 35.8 8.44H17.56C15.0452 8.44 13 10.4852 13 13V51C13 53.5148 15.0452 55.56 17.56 55.56H50.24C50.6595 55.56 51 55.2203 51 54.8V50.1511C51 48.5133 49.9558 47.064 48.4023 46.5464ZM45.68 51C45.68 51.4195 45.3388 51.76 44.92 51.76C44.5012 51.76 44.16 51.4195 44.16 51C44.16 50.5805 44.5012 50.24 44.92 50.24C45.3388 50.24 45.68 50.5805 45.68 51ZM42.64 45.3654L41.12 46.8854L39.6 45.3654V44.92V44.6958C40.0818 44.8402 40.5918 44.92 41.12 44.92C41.6482 44.92 42.1582 44.8402 42.64 44.6958V45.3654ZM44.92 39.6C44.92 41.6953 43.2153 43.4 41.12 43.4C39.0247 43.4 37.32 41.6953 37.32 39.6V36.56H40.36C41.2667 36.56 42.0829 36.161 42.64 35.5287C43.1971 36.161 44.0133 36.56 44.92 36.56V39.6ZM47.2 39.6H46.44V38.08H47.2C47.6188 38.08 47.96 38.4205 47.96 38.84C47.96 39.2595 47.6188 39.6 47.2 39.6ZM47.2 35.8V36.56H46.44V35.8C46.44 35.3797 46.0995 35.04 45.68 35.04H44.92C44.0817 35.04 43.4 34.3583 43.4 33.52C43.4 33.0997 43.0595 32.76 42.64 32.76C42.2205 32.76 41.88 33.0997 41.88 33.52C41.88 34.3583 41.1983 35.04 40.36 35.04H36.56C36.1405 35.04 35.8 35.3797 35.8 35.8V36.56H35.04V35.8C35.04 32.4476 37.7676 29.72 41.12 29.72C44.4724 29.72 47.2 32.4476 47.2 35.8ZM35.8 39.6H35.04C34.6212 39.6 34.28 39.2595 34.28 38.84C34.28 38.4205 34.6212 38.08 35.04 38.08H35.8V39.6ZM35.4246 30.7855C34.6395 31.6762 34.0626 32.7494 33.7617 33.935C32.019 36.085 29.4517 37.32 26.68 37.32C21.6511 37.32 17.56 33.2289 17.56 28.2C17.56 23.1711 21.6511 19.08 26.68 19.08C31.7089 19.08 35.8 23.1711 35.8 28.2C35.8 29.0808 35.6716 29.9488 35.4246 30.7855ZM37.2607 29.2648C37.2957 28.9114 37.32 28.5572 37.32 28.2C37.32 22.3328 32.5472 17.56 26.68 17.56C20.8128 17.56 16.04 22.3328 16.04 28.2C16.04 34.0672 20.8128 38.84 26.68 38.84C29.226 38.84 31.6223 37.944 33.52 36.3426V37.1536C33.0572 37.5708 32.76 38.1697 32.76 38.8408C32.76 40.0978 33.783 41.1208 35.04 41.1208H36.0242C36.3715 42.2836 37.1072 43.2799 38.08 43.9601V44.92H14.52V16.04H38.84V28.5504C38.2822 28.7267 37.7555 28.9714 37.2607 29.2648ZM17.56 9.96H35.8C37.4766 9.96 38.84 11.3234 38.84 13V14.52H14.52V13C14.52 11.3234 15.8834 9.96 17.56 9.96ZM14.52 51V46.44H34.1561L33.8377 46.5464C32.2842 47.064 31.24 48.5133 31.24 50.1511V54.04H17.56C15.8834 54.04 14.52 52.6766 14.52 51ZM49.48 54.04H32.76V50.1511C32.76 49.1684 33.3862 48.299 34.3188 47.9874L36.56 47.2403V48.8598C35.6776 49.1745 35.04 50.0105 35.04 51V52.52H36.56V51C36.56 50.5805 36.9012 50.24 37.32 50.24C37.7388 50.24 38.08 50.5805 38.08 51V52.52H39.6V51C39.6 50.0105 38.9624 49.1745 38.08 48.8598V46.7341L38.6348 46.5494L40.5827 48.4973C40.7309 48.6455 40.9254 48.72 41.12 48.72C41.3146 48.72 41.5091 48.6455 41.6573 48.4973L43.6052 46.5494L44.16 46.7341V48.8598C43.2776 49.1745 42.64 50.0105 42.64 51C42.64 52.257 43.663 53.28 44.92 53.28C46.177 53.28 47.2 52.257 47.2 51C47.2 50.0105 46.5624 49.1745 45.68 48.8598V47.2403L47.9212 47.9874C48.8538 48.299 49.48 49.1684 49.48 50.1511V54.04Z" fill="white"/>
<path d="M28.2 47.96H25.16C23.903 47.96 22.88 48.983 22.88 50.24C22.88 51.4971 23.903 52.52 25.16 52.52H28.2C29.457 52.52 30.48 51.4971 30.48 50.24C30.48 48.983 29.457 47.96 28.2 47.96ZM28.2 51H25.16C24.7412 51 24.4 50.6595 24.4 50.24C24.4 49.8205 24.7412 49.48 25.16 49.48H28.2C28.6188 49.48 28.96 49.8205 28.96 50.24C28.96 50.6595 28.6188 51 28.2 51Z" fill="white"/>
<path d="M28.96 11.48H24.4V13H28.96V11.48Z" fill="white"/>
<path d="M30.48 31.24H29.72V25.92C29.72 25.4997 29.3795 25.16 28.96 25.16H23.64C23.2205 25.16 22.88 25.4997 22.88 25.92V28.96C22.88 29.3803 23.2205 29.72 23.64 29.72H25.16V31.24H23.64C23.2205 31.24 22.88 31.5797 22.88 32V35.04C22.88 35.4603 23.2205 35.8 23.64 35.8H30.48C30.8995 35.8 31.24 35.4603 31.24 35.04V32C31.24 31.5797 30.8995 31.24 30.48 31.24ZM29.72 34.28H24.4V32.76H25.92C26.3395 32.76 26.68 32.4203 26.68 32V28.96C26.68 28.5397 26.3395 28.2 25.92 28.2H24.4V26.68H28.2V32C28.2 32.4203 28.5405 32.76 28.96 32.76H29.72V34.28Z" fill="white"/>
<path d="M26.68 24.4C27.9371 24.4 28.96 23.3771 28.96 22.12C28.96 20.863 27.9371 19.84 26.68 19.84C25.423 19.84 24.4 20.863 24.4 22.12C24.4 23.3771 25.423 24.4 26.68 24.4ZM26.68 21.36C27.0988 21.36 27.44 21.7005 27.44 22.12C27.44 22.5395 27.0988 22.88 26.68 22.88C26.2613 22.88 25.92 22.5395 25.92 22.12C25.92 21.7005 26.2613 21.36 26.68 21.36Z" fill="white"/>
</svg>
