<svg width="64" height="64" viewBox="0 0 64 64" fill="none" xmlns="http://www.w3.org/2000/svg">
<path d="M32.0001 64C49.6732 64 64.0001 49.6731 64.0001 32C64.0001 14.3269 49.6732 0 32.0001 0C14.327 0 0.00012207 14.3269 0.00012207 32C0.00012207 49.6731 14.327 64 32.0001 64Z" fill="#F48120"/>
<path d="M36.7374 27.41H38.7287C38.9258 27.401 39.1227 27.4313 39.3079 27.4992C39.4932 27.5672 39.6631 27.6713 39.8076 27.8056C39.9521 27.94 40.0685 28.1018 40.1498 28.2816C40.2311 28.4614 40.2758 28.6555 40.2812 28.8528C40.2814 29.0427 40.2426 29.2305 40.167 29.4047C40.0916 29.5789 39.9811 29.7356 39.8424 29.8653C39.5477 30.1422 39.1583 30.2962 38.7539 30.2956H34.9487C34.6689 30.2956 34.4007 30.4067 34.2029 30.6045C34.0051 30.8023 33.894 31.0706 33.894 31.3503C33.894 31.63 34.0051 31.8983 34.2029 32.0961C34.4007 32.2939 34.6689 32.405 34.9487 32.405H36.6362V34.2106C36.6362 34.4903 36.7472 34.7586 36.9451 34.9564C37.1429 35.1542 37.4111 35.2653 37.6909 35.2653C37.9706 35.2653 38.2388 35.1542 38.4366 34.9564C38.6345 34.7586 38.7456 34.4903 38.7456 34.2106V32.405C39.6908 32.4031 40.5985 32.034 41.2768 31.3756C41.6173 31.0477 41.8883 30.6546 42.0738 30.2197C42.2594 29.7848 42.3556 29.3171 42.3567 28.8444C42.3434 27.8918 41.9533 26.9832 41.2718 26.3175C40.5903 25.6519 39.6729 25.2832 38.7203 25.2922H36.7374C36.3464 25.3013 35.9675 25.1558 35.6832 24.8872C35.3988 24.6186 35.2319 24.2487 35.2187 23.8578C35.2184 23.6687 35.2562 23.4816 35.3302 23.3075C35.4042 23.1335 35.5126 22.9763 35.6489 22.8453C35.944 22.5626 36.3372 22.4052 36.7459 22.4066H40.5259C40.8056 22.4066 41.0738 22.2954 41.2716 22.0977C41.4695 21.8999 41.5806 21.6316 41.5806 21.3519C41.5806 21.0722 41.4695 20.8039 41.2716 20.6061C41.0738 20.4083 40.8056 20.2972 40.5259 20.2972H38.7877V18.5C38.7877 18.2203 38.6766 17.952 38.4788 17.7542C38.281 17.5564 38.0128 17.4453 37.733 17.4453C37.4533 17.4453 37.1851 17.5564 36.9873 17.7542C36.7894 17.952 36.6783 18.2203 36.6783 18.5V20.3056C35.7341 20.3044 34.8263 20.6705 34.1471 21.3266C33.8066 21.6545 33.5356 22.0476 33.35 22.4825C33.1645 22.9174 33.0682 23.3851 33.0671 23.8578C33.0725 24.3328 33.1721 24.8019 33.3599 25.2381C33.5478 25.6743 33.8203 26.0689 34.1616 26.3993C34.5028 26.7296 34.9062 26.989 35.3483 27.1624C35.7904 27.3359 36.2626 27.42 36.7374 27.41Z" fill="white"/>
<path d="M43.6562 37.0625H31.8438C31.564 37.0625 31.2957 37.1736 31.098 37.3714C30.9002 37.5692 30.7891 37.8375 30.7891 38.1172C30.7891 38.3969 30.9002 38.6652 31.098 38.863C31.2957 39.0608 31.564 39.1719 31.8438 39.1719H43.6562C43.936 39.1719 44.2043 39.0608 44.402 38.863C44.5998 38.6652 44.7109 38.3969 44.7109 38.1172C44.7109 37.8375 44.5998 37.5692 44.402 37.3714C44.2043 37.1736 43.936 37.0625 43.6562 37.0625Z" fill="white"/>
<path d="M43.6562 41.0703H31.8438C31.564 41.0703 31.2957 41.1814 31.098 41.3792C30.9002 41.577 30.7891 41.8453 30.7891 42.125C30.7891 42.4047 30.9002 42.673 31.098 42.8708C31.2957 43.0686 31.564 43.1797 31.8438 43.1797H43.6562C43.936 43.1797 44.2043 43.0686 44.402 42.8708C44.5998 42.673 44.7109 42.4047 44.7109 42.125C44.7109 41.8453 44.5998 41.577 44.402 41.3792C44.2043 41.1814 43.936 41.0703 43.6562 41.0703Z" fill="white"/>
<path d="M46.8372 9.4043H16.1922C16.1416 9.39974 16.0909 9.39974 16.0403 9.4043C14.0855 9.55709 12.26 10.4409 10.9277 11.8795C9.59538 13.3182 8.85409 15.206 8.85156 17.1668V40.4543C8.8538 42.0558 9.491 43.5912 10.6235 44.7236C11.7559 45.8561 13.2913 46.4933 14.8928 46.4956H22.3178V53.5156C22.3178 53.7114 22.3723 53.9034 22.4753 54.07C22.5783 54.2366 22.7257 54.3713 22.9008 54.4589C23.076 54.5465 23.2722 54.5836 23.4673 54.566C23.6623 54.5484 23.8486 54.4769 24.0053 54.3593L30.5528 49.4487L37.1003 54.3593C37.2817 54.4989 37.5042 54.5746 37.7331 54.5746C37.962 54.5746 38.1845 54.4989 38.3659 54.3593L44.9134 49.4487L51.4609 54.3593C51.6423 54.4985 51.8652 54.5728 52.0937 54.5703C52.2325 54.5714 52.3702 54.5449 52.4987 54.4922C52.6272 54.4396 52.7439 54.362 52.8421 54.2638C52.9402 54.1657 53.0178 54.049 53.0705 53.9205C53.123 53.792 53.1495 53.6544 53.1484 53.5156V15.7071C53.1462 14.0347 52.4803 12.4316 51.2969 11.2498C50.1135 10.0681 48.5096 9.4043 46.8372 9.4043ZM10.9609 40.4796V17.1921C10.9609 15.6861 11.5592 14.2418 12.6241 13.1769C13.689 12.1119 15.1334 11.5137 16.6394 11.5137C18.1454 11.5137 19.5897 12.1119 20.6546 13.1769C21.7195 14.2418 22.3178 15.6861 22.3178 17.1921V44.4115H14.8928C13.85 44.4115 12.8499 43.9972 12.1126 43.2599C11.3752 42.5225 10.9609 41.5224 10.9609 40.4796ZM51.0391 51.4484L45.5462 47.3309C45.3637 47.1939 45.1417 47.1199 44.9134 47.1199C44.6852 47.1199 44.4632 47.1939 44.2806 47.3309L37.75 52.2499L31.2025 47.3393C31.0194 47.2036 30.7976 47.1305 30.5697 47.1305C30.3418 47.1305 30.12 47.2036 29.9369 47.3393L24.4272 51.4062V17.1921C24.4263 16.1259 24.2056 15.0714 23.7788 14.0943C23.3519 13.1173 22.7282 12.2388 21.9466 11.5137H46.8372C47.9561 11.5137 49.0292 11.9581 49.8203 12.7493C50.6114 13.5405 51.0559 14.6135 51.0559 15.7324L51.0391 51.4484Z" fill="white"/>
</svg>
