<svg xmlns="http://www.w3.org/2000/svg" width="60" height="60" viewBox="0 0 60 60">
  <g id="service-icon3" transform="translate(-30 -236)">
    <g id="Group_7253" data-name="Group 7253" transform="translate(-237 -1161)">
      <circle id="Ellipse_30" data-name="Ellipse 30" cx="30" cy="30" r="30" transform="translate(267 1397)" fill="#f48120"/>
    </g>
    <g id="device_4367057" transform="translate(42.557 226.595)">
      <path id="Path_9259" data-name="Path 9259" d="M-118.641-.081h.244q.336,0,.672,0c.241,0,.483,0,.724,0q.71,0,1.419,0h1.652q1.563,0,3.125,0,1.341,0,2.683,0,1.557,0,3.114,0h1.649q.7,0,1.4,0h.716q.388,0,.776,0l.23,0c.507.005.507.005.739.172a.665.665,0,0,1,.131.434c0,.056,0,.111,0,.168,0,.089,0,.089,0,.18,0,.062,0,.123,0,.186q0,.195,0,.39c0,.2,0,.4,0,.6q0,.189,0,.379c0,.059,0,.119,0,.18,0,.083,0,.083,0,.168,0,.049,0,.1,0,.147a.715.715,0,0,1-.318.421,1.71,1.71,0,0,1-.441.018l-.23-.008-.175-.01c0,.056,0,.113,0,.171q.009,2.058.014,4.117,0,1,.007,1.991,0,.867.005,1.735,0,.46,0,.919,0,.432,0,.865,0,.159,0,.318c0,.144,0,.289,0,.433,0,.081,0,.162,0,.245a.618.618,0,0,1-.317.489.846.846,0,0,1-.3.034h-.181l-.2,0h-.208c-.227,0-.455,0-.682,0h-.473q-.622,0-1.245-.007t-1.27-.006q-1.246,0-2.492-.014v2.82l1.057,0q1.726-.007,3.451-.01,1.047,0,2.093-.007.912,0,1.824-.005l.966,0q.455,0,.909,0l.334,0c.152,0,.3,0,.455,0h.258a.639.639,0,0,1,.5.317.92.92,0,0,1,.032.317c0,.093,0,.093,0,.188,0,.066,0,.133,0,.2s0,.137,0,.207c0,.218-.005.437-.009.655q0,.222,0,.445,0,.545-.014,1.089l.122,0q.631-.009,1.263-.014l.471-.006c.226,0,.452-.005.678-.006l.211,0a1.764,1.764,0,0,1,1.291.452l.115.139.118.139a1.777,1.777,0,0,1,.263,1.14c0,.1,0,.1,0,.193q0,.316,0,.632,0,.22,0,.44,0,.461,0,.923,0,.59,0,1.18,0,.455,0,.909,0,.218,0,.435c0,.2,0,.406,0,.609,0,.059,0,.119,0,.18a1.731,1.731,0,0,1-.457,1.209l-.139.115-.139.118a1.783,1.783,0,0,1-1.09.272l-.169,0-.532.011-.362.008-.885.018.026.126q.058.283.115.566l.041.2.039.191.036.176a1.478,1.478,0,0,1,.026.365l.131,0c.2-.006.394-.01.591-.013l.207-.007c.5-.007.5-.007.737.149a.682.682,0,0,1,.131.44c0,.047,0,.093,0,.141a.652.652,0,0,1-.319.423,3.641,3.641,0,0,1-.7.037h-.216c-.235,0-.47,0-.705,0h-.49l-1.027,0q-.659,0-1.317,0-.506,0-1.012,0h-.486c-.226,0-.452,0-.678,0l-.2,0c-.453-.006-.453-.006-.68-.173a.61.61,0,0,1-.135-.43c0-.047,0-.093,0-.141a.6.6,0,0,1,.319-.423,4.41,4.41,0,0,1,.758-.018l.21,0q.256,0,.513.014l.026-.176.036-.239.035-.233c.054-.327.119-.65.186-.974l-.224,0q-.415,0-.829-.013l-.358,0c-.172,0-.344,0-.517-.008h-.159a1.755,1.755,0,0,1-1.173-.463l-.115-.139-.118-.138a1.777,1.777,0,0,1-.263-1.14c0-.064,0-.128,0-.193q0-.316,0-.632,0-.22,0-.44,0-.461,0-.923,0-.59,0-1.18,0-.455,0-.909,0-.217,0-.435c0-.2,0-.406,0-.609,0-.059,0-.119,0-.18a1.731,1.731,0,0,1,.457-1.209l.139-.115.138-.118a1.479,1.479,0,0,1,.948-.259h.269l.289,0h.3l.78,0,.8,0,1.562.007V18.568h-11.845v2.256c.694-.011.694-.011,1.388-.025a1.956,1.956,0,0,1,1.52.446l.115.139.118.139a1.439,1.439,0,0,1,.262.9c0,.119,0,.119,0,.24,0,.086,0,.172,0,.261s0,.183,0,.277q0,.375,0,.75,0,.235,0,.469,0,.819,0,1.638,0,.762,0,1.524,0,.655,0,1.311,0,.391,0,.782c0,.291,0,.582,0,.873,0,.086,0,.172,0,.26a1.857,1.857,0,0,1-.457,1.388l-.139.115-.139.118a1.642,1.642,0,0,1-1.036.263h-.16l-.522,0h-1.128q-.488,0-.975,0l-.752,0-.359,0c-1.259.01-1.259.01-1.789-.455l-.115-.139-.118-.138a1.44,1.44,0,0,1-.262-.9l0-.24c0-.129,0-.129,0-.261,0-.091,0-.183,0-.277q0-.375,0-.75,0-.235,0-.469,0-.819,0-1.638,0-.762,0-1.524,0-.655,0-1.311,0-.391,0-.782c0-.291,0-.582,0-.873l0-.26a1.857,1.857,0,0,1,.457-1.388l.139-.115.139-.118a1.551,1.551,0,0,1,1.013-.257h.266l.336,0,1.071.009V18.568H-121.4v2.256l.705-.01.68-.006.471-.006c.226,0,.452-.005.678-.006l.211,0a1.764,1.764,0,0,1,1.291.452l.115.139.118.139a1.548,1.548,0,0,1,.259,1v.148c0,.161,0,.321,0,.482q0,.168,0,.335,0,.44,0,.88t0,.9q0,.881-.007,1.762l.2.022c.22.049.22.049.361.26.016.211.023.416.024.628v.187q0,.2,0,.391c0,.2,0,.4.006.6q0,.19,0,.38l0,.18c0,.412,0,.412-.165.636a.815.815,0,0,1-.593.121l-.23-.008-.175-.01.01.212c.034,1.013.034,1.013-.292,1.41a1.715,1.715,0,0,1-1.179.655l-.3,0h-.5c-.173,0-.345,0-.518.006h-.33l-.156,0a.782.782,0,0,1-.572-.17.567.567,0,0,1-.144-.43l0-.141a.73.73,0,0,1,.319-.423,1.814,1.814,0,0,1,.447-.038l.262,0h.273l.535-.007h.24a1.375,1.375,0,0,0,.569-.159,1.539,1.539,0,0,0,.18-.647l.032-.269h-.136q-1.635.009-3.269.014-.791,0-1.581.007-.689,0-1.378.005l-.73,0c-.271,0-.543,0-.814,0l-.245,0h-.419a.693.693,0,0,1-.453-.317.781.781,0,0,1-.037-.286c0-.083,0-.083,0-.168,0-.059,0-.119,0-.18s0-.123,0-.186q0-.195,0-.39c0-.2,0-.4,0-.6q0-.19,0-.379c0-.089,0-.089,0-.18a.94.94,0,0,1,.165-.635c.156-.1.156-.1.438-.1,0-.092,0-.092,0-.186q-.008-.871-.013-1.743,0-.448-.007-.9,0-.433-.005-.865,0-.165,0-.329a2.216,2.216,0,0,1,.45-1.709l.139-.115.138-.118a1.356,1.356,0,0,1,.845-.259h.2l.214,0h.221l.7,0,.474,0,1.161.007,0-.28q-.008-.515-.011-1.03,0-.223-.006-.446c0-.214-.005-.427-.006-.641l0-.2c0-.093,0-.093,0-.188l0-.165a.678.678,0,0,1,.316-.434,1.787,1.787,0,0,1,.451-.034h.282l.309,0h.325q.441,0,.883,0c.308,0,.615,0,.923,0q.873,0,1.747.006.994,0,1.989.006,2.046,0,4.091.014V14.62l-.643,0q-1.05.007-2.1.01-.637,0-1.274.007-.614,0-1.229.005l-.469,0c-.219,0-.438,0-.656,0l-.2,0h-.338a.656.656,0,0,1-.427-.317,1.786,1.786,0,0,1-.034-.451V13.6q0-.154,0-.309t0-.325q0-.441,0-.883c0-.307,0-.615,0-.922q0-.873.006-1.747,0-.994.006-1.989,0-2.045.014-4.091l-.175.01-.23.008-.228.01a.611.611,0,0,1-.495-.31.781.781,0,0,1-.036-.286l0-.168,0-.18c0-.092,0-.092,0-.186q0-.195,0-.39c0-.2,0-.4,0-.6q0-.189,0-.379l0-.18,0-.168V.376C-119.6-.164-119.092-.085-118.641-.081Zm.065,1.164V2.211h18.049V1.083Zm1.128,2.256V13.492h15.793V3.339Zm7.332,11.281v2.82h1.128V14.62Zm-15.652,7.544a1.417,1.417,0,0,0-.157.807c0,.092,0,.183,0,.277s0,.193,0,.29,0,.177,0,.268q0,.495,0,.989c0,.737.006,1.475.009,2.234h7.9c0-.736.009-1.472.013-2.23l.006-.7q0-.276,0-.552l0-.144c0-.141,0-.282,0-.422v-.24a1.31,1.31,0,0,0-.237-.645,1.764,1.764,0,0,0-1.007-.16h-2.241q-.6,0-1.209,0h-1.377c-.208,0-.416,0-.624,0l-.186,0A1.407,1.407,0,0,0-125.768,22.164Zm13.537,0a1.753,1.753,0,0,0-.157,1.014c0,.066,0,.132,0,.2q0,.327,0,.653,0,.227,0,.454,0,.6,0,1.193,0,.716,0,1.432,0,1.087.007,2.175h5.64c.006-1.193.006-1.193.01-2.385q0-.73.006-1.459,0-.588,0-1.177,0-.224,0-.449c0-.21,0-.419,0-.629,0-.062,0-.124,0-.187a1.4,1.4,0,0,0-.238-.905,1.436,1.436,0,0,0-.8-.16l-.27,0h-1.214q-.4,0-.8,0h-.912c-.138,0-.275,0-.413,0h-.237A1.329,1.329,0,0,0-112.231,22.164Zm10.717,0a1.6,1.6,0,0,0-.16.9v.165c0,.179,0,.358,0,.537q0,.187,0,.375,0,.392,0,.785,0,.5,0,1,0,.387,0,.774,0,.185,0,.37c0,.173,0,.346,0,.518,0,.051,0,.1,0,.154a1.345,1.345,0,0,0,.239.83,1.941,1.941,0,0,0,1.111.16h3.752q.684,0,1.369,0h.521q.365,0,.729,0l.217,0a1.481,1.481,0,0,0,.973-.239,1.6,1.6,0,0,0,.16-.9v-.165c0-.179,0-.358,0-.537q0-.188,0-.375,0-.392,0-.785,0-.5,0-1,0-.387,0-.774,0-.185,0-.37c0-.173,0-.346,0-.518,0-.051,0-.1,0-.153a1.345,1.345,0,0,0-.239-.83,1.941,1.941,0,0,0-1.111-.16H-97.7l-1.369,0h-.521q-.365,0-.729,0l-.217,0A1.481,1.481,0,0,0-101.514,22.164Zm-24.959,5.993v1.128h9.025V28.157Zm28.7,1.692-.353,1.692h1.974l-.353-1.692Zm-14.594.564a1.327,1.327,0,0,0,.212.987,1.589,1.589,0,0,0,.8.16l.27,0h1.214q.4,0,.8,0h.912c.138,0,.275,0,.413,0h.237a1.481,1.481,0,0,0,.643-.238,1.422,1.422,0,0,0,.141-.917Z" transform="translate(127.084 23.492)" fill="#fff"/>
      <path id="Path_9260" data-name="Path 9260" d="M-9.329-.029A4.621,4.621,0,0,1-8.16.519l.286.156c.614.336,1.222.68,1.829,1.027.7.4,1.415.774,2.13,1.149l.143.075.385.2c.62.345.62.345.723.551a1.464,1.464,0,0,1,0,.564,2.031,2.031,0,0,1-.623.478l-.2.108-.219.115-.464.248-.237.127c-.338.183-.671.373-1,.564-.767.438-1.546.852-2.327,1.264l-.14.074-.27.142q-.441.232-.869.486a1.063,1.063,0,0,1-.7.061A.689.689,0,0,1-10,7.627a3.7,3.7,0,0,1-.036-.7V6.711c0-.235,0-.47,0-.705q0-.245,0-.49,0-.514,0-1.027,0-.659,0-1.317,0-.506,0-1.012,0-.243,0-.486c0-.226,0-.452,0-.678l0-.2c.006-.451.006-.451.167-.679A.8.8,0,0,1-9.329-.029Zm.459,1.592V6.358l1.058-.564.526-.28c.911-.484,1.822-.969,2.717-1.483V3.89l-.143-.076C-5.636,3.32-6.557,2.823-7.465,2.3-7.927,2.035-8.391,1.8-8.869,1.564Z" transform="translate(24.71 27.947)" fill="#fff"/>
      <path id="Path_9261" data-name="Path 9261" d="M-12.577-.023h.186l.39,0c.2,0,.4,0,.6,0h.379l.18,0c.411.007.411.007.633.174a.589.589,0,0,1,.139.429l0,.141a.672.672,0,0,1-.319.423,3.029,3.029,0,0,1-.635.037h-.186l-.39,0c-.2,0-.4,0-.6,0h-.379l-.18,0c-.411-.007-.411-.007-.633-.174a.589.589,0,0,1-.139-.429l0-.141C-13.4-.051-13-.027-12.577-.023Z" transform="translate(14.669 55.018)" fill="#fff"/>
      <path id="Path_9262" data-name="Path 9262" d="M-22.752-.025A1.157,1.157,0,0,1-22.3.08a.8.8,0,0,1,.181.63,8.231,8.231,0,0,1-.82,1.335l-.122.181-.118.173-.106.156a.912.912,0,0,1-.314.27c-.487.046-.487.046-.74-.106a.907.907,0,0,1-.106-.74,7.121,7.121,0,0,1,.546-.864l.156-.23C-23.11-.036-23.11-.036-22.752-.025Z" transform="translate(29.709 46.567)" fill="#fff"/>
      <path id="Path_9263" data-name="Path 9263" d="M-26.955-.328a.55.55,0,0,1,.282.282c.1.594-.215.957-.546,1.428l-.156.23c-.581.847-.581.847-.849.918a.917.917,0,0,1-.595-.152A1.047,1.047,0,0,1-29,1.787a1.566,1.566,0,0,1,.194-.379l.137-.219.163-.248.1-.147q.153-.232.309-.461l.1-.149.1-.14.086-.125A.818.818,0,0,1-26.955-.328Z" transform="translate(31.656 46.9)" fill="#fff"/>
      <path id="Path_9264" data-name="Path 9264" d="M-27.4-.944a.592.592,0,0,1,.278.4A2.868,2.868,0,0,1-27.858.942l-.121.179c-.5.723-.5.723-.76.793a1.019,1.019,0,0,1-.6-.143.905.905,0,0,1-.106-.74,7.876,7.876,0,0,1,.551-.9l.158-.242C-28.093-1.092-28.093-1.092-27.4-.944Z" transform="translate(59.668 48.503)" fill="#fff"/>
      <path id="Path_9265" data-name="Path 9265" d="M-27.4-.944a.592.592,0,0,1,.278.4A2.868,2.868,0,0,1-27.858.942l-.121.179c-.5.723-.5.723-.76.793a1.019,1.019,0,0,1-.6-.143.905.905,0,0,1-.106-.74,7.876,7.876,0,0,1,.551-.9l.158-.242C-28.093-1.092-28.093-1.092-27.4-.944Z" transform="translate(56.848 48.503)" fill="#fff"/>
      <path id="Path_9266" data-name="Path 9266" d="M-25.408-.394a.856.856,0,0,1,.423.445,2.9,2.9,0,0,1-.736,1.476l-.143.212-.139.2-.126.184a.864.864,0,0,1-.615.4.725.725,0,0,1-.568-.313A1.574,1.574,0,0,1-26.9.908l.084-.117c.085-.119.168-.239.251-.359C-25.934-.469-25.934-.469-25.408-.394Z" transform="translate(43.716 47.671)" fill="#fff"/>
      <path id="Path_9267" data-name="Path 9267" d="M-11.558-.4a.55.55,0,0,1,.282.282.935.935,0,0,1-.106.74.935.935,0,0,1-.74.106A.55.55,0,0,1-12.4.442.935.935,0,0,1-12.3-.3.935.935,0,0,1-11.558-.4Z" transform="translate(35.577 35.132)" fill="#fff"/>
      <path id="Path_9268" data-name="Path 9268" d="M-11.558-.4a.55.55,0,0,1,.282.282.935.935,0,0,1-.106.74.935.935,0,0,1-.74.106A.55.55,0,0,1-12.4.442.935.935,0,0,1-12.3-.3.935.935,0,0,1-11.558-.4Z" transform="translate(33.321 35.132)" fill="#fff"/>
    </g>
  </g>
</svg>
