<svg width="39" height="45" viewBox="0 0 39 45" fill="none" xmlns="http://www.w3.org/2000/svg">
<g clip-path="url(#clip0_11_7821)">
<path fill-rule="evenodd" clip-rule="evenodd" d="M20.64 0.893555C23.311 2.64531 26.1911 4.05524 29.213 5.09033C31.4552 5.87025 33.8316 6.19035 36.2003 6.03149L38.6576 5.80811L38.7784 8.27637C39.2289 17.3547 37.764 25.2429 34.6915 31.4648C31.4945 37.9395 26.5799 42.616 20.2701 44.989H18.6295C12.4625 42.7368 7.58457 38.1885 4.34726 31.6333C1.32602 25.481 -0.223048 17.5342 0.0259752 8.05664L0.0918932 5.62134L2.51255 5.74585C5.14766 5.91682 7.79281 5.64574 10.3385 4.94385C13.094 4.13893 15.6672 2.80693 17.9154 1.02173L19.2301 0L20.64 0.893555ZM19.3839 7.06787C24.3387 10.21 28.8138 11.6968 32.6554 11.3525C33.3255 24.9023 28.3158 35.2588 19.4352 38.6023C10.8548 35.4712 5.78281 25.4736 6.16001 11.1365C10.6681 11.3745 15.0956 10.4041 19.3839 7.06787ZM16.6666 22.5623C17.0084 22.8539 17.3314 23.167 17.6334 23.4998C18.5463 22.0278 19.5582 20.6195 20.662 19.2847C23.6795 15.6409 22.7787 15.8789 26.9645 15.8789L26.3675 16.5234C24.796 18.2862 23.3519 20.1586 22.0462 22.1265C20.5947 24.2255 19.2785 26.415 18.1058 28.6816L17.7396 29.3811L17.4063 28.6707C16.8144 27.3787 16.0654 26.1647 15.1761 25.0562C14.3738 24.0425 13.4159 23.1624 12.338 22.4487C12.8836 20.658 15.4837 21.5771 16.6483 22.5623H16.6666ZM19.3692 2.89673C25.734 6.92505 31.4798 8.83667 36.4164 8.38989C37.277 25.8179 30.839 38.4814 19.4352 42.7771C8.42319 38.7524 1.9083 26.532 2.3917 8.12256C8.18149 8.42285 13.8651 7.17407 19.3692 2.89673Z" fill="black"/>
</g>
<defs>
<clipPath id="clip0_11_7821">
<rect width="38.8586" height="45" fill="white"/>
</clipPath>
</defs>
</svg>
