<svg xmlns="http://www.w3.org/2000/svg" width="35" height="35" viewBox="0 0 35 35">
  <path id="Icon_ionic-md-business" data-name="Icon ionic-md-business" d="M21.3,12.275V4.5H3.375v35h35V12.275ZM10.543,35.608H6.959V31.716h3.584Zm0-7.775H6.959V23.941h3.584Zm0-7.775H6.959V16.167h3.584Zm0-7.784H6.959V8.383h3.584Zm7.168,23.333H14.127V31.716h3.584Zm0-7.775H14.127V23.941h3.584Zm0-7.775H14.127V16.167h3.584Zm0-7.784H14.127V8.383h3.584ZM34.791,35.608H21.3V31.716H24.88V27.833H21.3V23.941H24.88V20.049H21.3V16.167h13.5ZM31.627,20.059H28.043v3.892h3.584Zm0,7.775H28.043v3.892h3.584Z" transform="translate(-3.375 -4.5)"/>
</svg>
