<svg width="64" height="64" viewBox="0 0 64 64" fill="none" xmlns="http://www.w3.org/2000/svg">
<g clip-path="url(#clip0_3_166)">
<path d="M32 64C49.6731 64 64 49.6731 64 32C64 14.3269 49.6731 0 32 0C14.3269 0 0 14.3269 0 32C0 49.6731 14.3269 64 32 64Z" fill="#F48120"/>
<path d="M23.5277 16.7277C23.2123 16.8323 23 17.1254 23 17.4577V20.5423C23 20.8746 23.2123 21.1677 23.5277 21.2723L25.2023 21.8269L25.4908 22.5223L24.7846 24.01C24.6654 24.2615 24.6908 24.5585 24.8531 24.7862C25.5046 25.7015 26.2992 26.4969 27.2146 27.1477C27.4431 27.3108 27.7408 27.3346 27.9908 27.2162L29.4477 26.5246C29.6885 26.6385 29.9354 26.7415 30.1846 26.8308L30.7285 28.4731C30.8323 28.7877 31.1254 29 31.4577 29H34.5423C34.8746 29 35.1677 28.7877 35.2723 28.4723L35.8162 26.83C36.0654 26.7408 36.3115 26.6385 36.5531 26.5246L38.01 27.2154C38.2623 27.3338 38.5585 27.3092 38.7862 27.1469C39.7015 26.4954 40.4969 25.7008 41.1477 24.7854C41.31 24.5577 41.3354 24.2608 41.2162 24.0092L40.5246 22.5523C40.6385 22.3115 40.7415 22.0646 40.8308 21.8154L42.4731 21.2715C42.7877 21.1677 43 20.8746 43 20.5423V17.4577C43 17.1254 42.7877 16.8323 42.4723 16.7277L40.83 16.1838C40.7408 15.9346 40.6385 15.6885 40.5246 15.4469L41.2154 13.99C41.3346 13.7385 41.3092 13.4415 41.1469 13.2138C40.4954 12.2985 39.7008 11.5031 38.7854 10.8523C38.5577 10.69 38.26 10.6646 38.0092 10.7838L36.5523 11.4746C36.3108 11.3608 36.0646 11.2585 35.8154 11.1692L35.2715 9.52692C35.1677 9.21231 34.8746 9 34.5423 9H31.4577C31.1254 9 30.8323 9.21231 30.7277 9.52769L30.1731 11.2023L29.4777 11.4908L27.99 10.7846C27.7377 10.6654 27.4423 10.6908 27.2138 10.8531C26.2985 11.5046 25.5031 12.2992 24.8523 13.2146C24.69 13.4423 24.6646 13.7392 24.7838 13.9908L25.4908 15.4785L25.2015 16.1738L23.5277 16.7277ZM26.0192 17.5231C26.2308 17.4531 26.4023 17.2938 26.4877 17.0885L27.0431 15.7523C27.1262 15.5508 27.1208 15.3238 27.0269 15.1277L26.3731 13.7515C26.7777 13.24 27.2392 12.7792 27.75 12.3738L29.1262 13.0277C29.3238 13.1215 29.5515 13.1277 29.7508 13.0438L31.0869 12.4892C31.2938 12.4038 31.4531 12.2323 31.5223 12.0208L32.0138 10.5385H33.9862L34.4769 12.0192C34.5554 12.2569 34.7446 12.4408 34.9831 12.5138C35.3931 12.6385 35.7969 12.8062 36.1815 13.0108C36.3969 13.1246 36.6531 13.13 36.8731 13.0269L38.2492 12.3731C38.76 12.7785 39.2215 13.24 39.6269 13.7508L38.9731 15.1269C38.8685 15.3469 38.8746 15.6031 38.9892 15.8185C39.1946 16.2031 39.3615 16.6062 39.4862 17.0169C39.5592 17.2562 39.7431 17.4454 39.9808 17.5231L41.4615 18.0138V19.9862L39.9808 20.4769C39.7431 20.5554 39.5592 20.7446 39.4862 20.9831C39.3615 21.3938 39.1938 21.7977 38.9892 22.1808C38.8746 22.3962 38.8685 22.6531 38.9731 22.8731L39.6269 24.2492C39.2223 24.7608 38.7608 25.2215 38.25 25.6269L36.8738 24.9731C36.6538 24.8677 36.3977 24.8738 36.1823 24.9892C35.7977 25.1946 35.3946 25.3615 34.9838 25.4862C34.7446 25.5592 34.5554 25.7431 34.4777 25.9808L33.9862 27.4615H32.0138L31.5231 25.9808C31.4446 25.7431 31.2554 25.5592 31.0169 25.4862C30.6062 25.3615 30.2023 25.1938 29.8192 24.9892C29.6031 24.8731 29.3462 24.8677 29.1269 24.9731L27.7508 25.6269C27.2392 25.2223 26.7785 24.7608 26.3731 24.25L27.0269 22.8738C27.12 22.6769 27.1262 22.45 27.0431 22.2492L26.4885 20.9131C26.4031 20.7062 26.2315 20.5469 26.02 20.4777L24.5385 19.9862V18.0138L26.0192 17.5231Z" fill="white"/>
<path d="M33 24C35.7569 24 38 21.7569 38 19C38 16.2431 35.7569 14 33 14C30.2431 14 28 16.2431 28 19C28 21.7569 30.2431 24 33 24ZM33 15.5385C34.9085 15.5385 36.4615 17.0915 36.4615 19C36.4615 20.9085 34.9085 22.4615 33 22.4615C31.0915 22.4615 29.5385 20.9085 29.5385 19C29.5385 17.0915 31.0915 15.5385 33 15.5385Z" fill="white"/>
<path d="M23.0248 9.00992L18 9.76259L18.2747 11.2476L21.0836 10.8269C19.1708 13.2309 18.1373 16.1091 18.1373 19.1152C18.1373 22.8191 19.7076 26.3295 22.5575 29L23.766 27.9576C21.2167 25.5693 19.8123 22.4285 19.8123 19.1152C19.8123 15.8012 21.2167 12.6611 23.7668 10.2737C24.0164 10.0396 24.0717 9.68808 23.9033 9.40131C23.7342 9.11304 23.3774 8.95799 23.0248 9.00992Z" fill="white"/>
<path d="M43.4158 9L42.2296 10.0946C44.7318 12.6006 46.1102 15.8978 46.1102 19.3783C46.1102 22.8572 44.7318 26.1552 42.2288 28.6628C41.9691 28.9228 41.9255 29.3195 42.1236 29.6262C42.2765 29.8633 42.5436 30 42.8223 30C42.9045 30 42.9867 29.9881 43.0681 29.9636L48 28.4779L47.5085 26.97L45.1502 27.6797C46.8435 25.2392 47.7542 22.3688 47.7542 19.3783C47.7542 15.4884 46.213 11.8032 43.4158 9Z" fill="white"/>
<path d="M31.2414 42.75H19.1034V39.75C19.1034 39.4537 18.9274 39.1852 18.6536 39.0652C18.3805 38.9445 18.0611 38.9939 17.8373 39.1927L10.2511 45.9427C10.091 46.0845 10 46.2877 10 46.5C10 46.7122 10.091 46.9155 10.2511 47.0572L17.8373 53.8072C17.9799 53.934 18.1612 54 18.3448 54C18.4495 54 18.5542 53.979 18.6536 53.9347C18.9274 53.8147 19.1034 53.5462 19.1034 53.25V51H31.2414C31.6609 51 32 50.6647 32 50.25V43.5C32 43.0852 31.6609 42.75 31.2414 42.75ZM30.4828 49.5H18.3448C17.9253 49.5 17.5862 49.8352 17.5862 50.25V51.5662L11.8928 46.5L17.5862 41.4337V43.5C17.5862 43.9147 17.9253 44.25 18.3448 44.25H30.4828V49.5Z" fill="white"/>
<path d="M48.1627 31.193C47.9397 30.9943 47.6203 30.944 47.3464 31.0655C47.0726 31.1855 46.8966 31.454 46.8966 31.7503V34.0002H34.7586C34.3391 34.0002 34 34.3355 34 34.7502V41.5001C34 41.9148 34.3391 42.2501 34.7586 42.2501H46.8966V45.25C46.8966 45.5463 47.0726 45.8148 47.3464 45.9348C47.4458 45.979 47.5505 46 47.6552 46C47.8388 46 48.0201 45.934 48.1627 45.8073L55.7489 39.0574C55.909 38.9156 56 38.7124 56 38.5001C56 38.2879 55.909 38.0846 55.7489 37.9429L48.1627 31.193ZM48.4138 43.5663V41.5001C48.4138 41.0853 48.0747 40.7501 47.6552 40.7501H35.5172V35.5002H47.6552C48.0747 35.5002 48.4138 35.165 48.4138 34.7502V33.434L54.1072 38.5001L48.4138 43.5663Z" fill="white"/>
<path d="M41 49H35V51H41V49Z" fill="white"/>
<path d="M41 46H35V47H41V46Z" fill="white"/>
<path d="M44 46H43V47H44V46Z" fill="white"/>
<path d="M44 49H43V51H44V49Z" fill="white"/>
<path d="M31 34H25V36H31V34Z" fill="white"/>
<path d="M31 38H25V40H31V38Z" fill="white"/>
<path d="M23 38H22V40H23V38Z" fill="white"/>
<path d="M23 34H22V36H23V34Z" fill="white"/>
</g>
<defs>
<clipPath id="clip0_3_166">
<rect width="64" height="64" fill="white"/>
</clipPath>
</defs>
</svg>
