<svg width="64" height="64" viewBox="0 0 64 64" fill="none" xmlns="http://www.w3.org/2000/svg">
<path d="M32 64C49.6731 64 64 49.6731 64 32C64 14.3269 49.6731 0 32 0C14.3269 0 0 14.3269 0 32C0 49.6731 14.3269 64 32 64Z" fill="#F48120"/>
<path d="M50.9333 43.5316V34.2999C50.9333 33.8765 50.5901 33.5332 50.1667 33.5332H49.4V28.6582C49.4 27.1218 48.4258 25.7484 46.9757 25.2407L37.0171 21.7547L39.2472 19.5246C39.5467 19.2252 39.5467 18.7398 39.2472 18.4404L38.7051 17.8983L40.3315 16.2719C40.631 15.9725 40.631 15.4871 40.3315 15.1877L43.042 12.4771C43.3415 12.1778 43.3415 11.6924 43.042 11.393L40.8736 9.22454C40.5742 8.92515 40.0888 8.92515 39.7894 9.22454L37.0789 11.9351C36.7795 11.6357 36.2941 11.6357 35.9947 11.9351L34.3684 13.5615L33.8262 13.0194C33.5268 12.72 33.0414 12.72 32.7421 13.0194L24.6216 21.1398L23.3043 19.8225C22.5361 19.0542 21.286 19.0542 20.5178 19.8225L19.2005 21.1398C18.901 21.4392 18.901 21.9246 19.2005 22.224L18.2519 23.1728C17.5793 23.8453 17.5793 24.9397 18.2519 25.6123L19.065 26.4254C19.4013 26.7617 19.843 26.9299 20.2848 26.9299C20.7266 26.9299 21.1683 26.7618 21.5045 26.4254L22.4532 25.4767L22.9953 26.0188L22.0467 26.9675C21.7208 27.2932 21.5414 27.7265 21.5414 28.1873C21.5414 28.648 21.7209 29.0812 22.0467 29.407L22.8598 30.2202C23.1961 30.5565 23.6379 30.7246 24.0796 30.7246C24.5213 30.7246 24.9631 30.5566 25.2994 30.2202L26.248 29.2715L26.7901 29.8136L25.8414 30.7623C25.1687 31.4349 25.1687 32.5293 25.8414 33.2019L26.6545 34.015C26.9908 34.3514 27.4325 34.5195 27.8743 34.5195C28.3159 34.5195 28.7578 34.3513 29.0941 34.015L30.0428 33.0663C30.1925 33.216 30.3887 33.2909 30.5849 33.2909C30.7812 33.2909 30.9774 33.216 31.1271 33.0663L32.4445 31.749C33.2127 30.9807 33.2127 29.7308 32.4445 28.9626L31.1272 27.6452L33.4715 25.3008L39.6259 29.2564C40.3411 29.7159 40.6773 30.6077 40.4435 31.4253L39.8411 33.5332H34.8333C34.4099 33.5332 34.0667 33.8765 34.0667 34.2999V43.5H20.2667V41.9666H22.5667C22.9901 41.9666 23.3333 41.6233 23.3333 41.1999V39.6666H24.8667C25.2901 39.6666 25.6333 39.3233 25.6333 38.8999V35.8333C25.6333 35.4099 25.2901 35.0666 24.8667 35.0666H11.0667C10.6433 35.0666 10.3 35.4099 10.3 35.8333V38.8999C10.3 39.3233 10.6433 39.6666 11.0667 39.6666H12.6V41.1999C12.6 41.6233 12.9433 41.9666 13.3667 41.9666H15.6667V43.5H11.5318C9.58432 43.5 8 45.0843 8 47.0318V49.1184C8 50.6705 9.2628 51.9333 10.815 51.9333H14.1333V54.2333C14.1333 54.6567 14.4766 55 14.9 55H19.5C19.7904 55 20.0558 54.8359 20.1857 54.5762L21.5071 51.9333H40.4929L41.8143 54.5762C41.9442 54.8359 42.2096 55 42.5 55H47.1C47.5234 55 47.8667 54.6567 47.8667 54.2333V51.9333H51.185C52.7372 51.9333 54 50.6705 54 49.1183V47.0317C54 45.242 52.6616 43.76 50.9333 43.5316ZM40.3316 10.8506L41.4158 11.9349L39.2474 14.1033L38.1632 13.0191L40.3316 10.8506ZM36.5367 13.5613L38.7052 15.7298L37.6209 16.8141L35.4524 14.6456L36.5367 13.5613ZM20.4201 25.3411C20.3452 25.4158 20.2237 25.4157 20.149 25.3411L19.3358 24.5279C19.2611 24.4532 19.2611 24.3316 19.3358 24.2568L20.2845 23.3082L21.3687 24.3923L20.4201 25.3411ZM24.2149 29.1359C24.1402 29.2106 24.0185 29.2106 23.9438 29.1359L23.1306 28.3228C23.0559 28.248 23.0559 28.1264 23.1306 28.0517L24.0793 27.103L25.1636 28.1873L24.2149 29.1359ZM28.0097 32.9307C27.9349 33.0054 27.8133 33.0054 27.7386 32.9307L26.9255 32.1176C26.8507 32.0428 26.8507 31.9212 26.9255 31.8465L27.8742 30.8978L28.9584 31.9821L28.0097 32.9307ZM31.36 30.0466C31.5303 30.217 31.5303 30.4943 31.36 30.6647L30.5848 31.4399L20.8267 21.6818L21.6019 20.9066C21.7723 20.7362 22.0496 20.7362 22.2199 20.9066L31.36 30.0466ZM30.0426 26.5609L25.7057 22.2239L33.284 14.6456L37.6209 18.9825L30.0426 26.5609ZM40.4545 27.9663L34.5809 24.191L35.8138 22.9581L46.4691 26.6878C47.305 26.9806 47.8667 27.7724 47.8667 28.6582V33.5332H41.4358L41.9175 31.8466C42.3424 30.361 41.7545 28.8015 40.4545 27.9663ZM35.6 35.0666H49.4V43.5H47.1V41.9666C47.1 39.4302 45.0364 37.3666 42.5 37.3666C39.9636 37.3666 37.9 39.4302 37.9 41.9666V43.5H35.6V35.0666ZM45.5667 41.9666V43.5H39.4333V41.9666C39.4333 40.2756 40.809 38.8999 42.5 38.8999C44.191 38.8999 45.5667 40.2756 45.5667 41.9666ZM11.8333 38.1333V36.5999H24.1V38.1333H11.8333ZM14.1333 40.4333V39.6666H21.8V40.4333H14.1333ZM18.7333 41.9666V43.5H17.2V41.9666H18.7333ZM19.0262 53.4667H15.6667V51.9333H19.7929L19.0262 53.4667ZM46.3333 53.4667H42.9738L42.2071 51.9333H46.3333V53.4667ZM52.4667 49.1183C52.4667 49.825 51.8917 50.4 51.185 50.4H10.815C10.1083 50.4 9.53333 49.825 9.53333 49.1183V48.8666H52.4667V49.1183ZM52.4667 47.3333H9.53333V47.0318C9.53333 45.9298 10.4299 45.0333 11.5318 45.0333H50.4683C51.5702 45.0333 52.4668 45.9298 52.4668 47.0318V47.3333H52.4667Z" fill="white"/>
</svg>
