<svg xmlns="http://www.w3.org/2000/svg" width="35" height="35" viewBox="0 0 35 35">
  <path id="Icon_simple-laravel" data-name="Icon simple-laravel" d="M9.421,19.361.1,3.794A4.638,4.638,0,0,1,4.667.015h25.7a4.63,4.63,0,0,1,4.273,2.83,1.623,1.623,0,0,0-1.75-.438C32.215,2.5,24.573,3.779,23.7,3.94c-.9.146-1.458.5-.9,1.269L29.4,14.575,9.421,19.361ZM8.094,22.512,0,24.627v5.734a4.668,4.668,0,0,0,4.667,4.654H15.152c-1.371-2.232-5.1-8.972-7.044-12.489H8.094ZM23.042,35h7.321a4.633,4.633,0,0,0,4.623-4.275ZM6.475,19.492.029,8.36V21.637l6.315-1.517c.51-.117.379-.175.131-.627ZM34.081,4.552c-.365-.5-.627-.423-.919-.35S26.206,5.471,25.8,5.515c-.408.073-.277.292-.1.525l5.833,8.024L35,13.233v-7.5q-.468-.577-.919-1.167ZM30.333,16.72,10.85,21.8s5.979,10.358,6.431,11.015.744.613,1.108.467c.263-.117,11.375-3.881,16.61-5.646V22.074l-3.733-5.106C31.033,16.6,30.9,16.53,30.333,16.72Zm2.844-.525L35,18.646v-3.2l-1.969.54Z" transform="translate(0 -0.015)"/>
</svg>
