<svg xmlns="http://www.w3.org/2000/svg" width="60" height="60" viewBox="0 0 60 60">
  <g id="service-icon6" transform="translate(-405 -1263)">
    <g id="Group_7253" data-name="Group 7253" transform="translate(138 -134)">
      <circle id="Ellipse_30" data-name="Ellipse 30" cx="30" cy="30" r="30" transform="translate(267 1397)" fill="#f48120"/>
    </g>
    <g id="cogwheel_13777932" transform="translate(415.638 1785.597)">
      <path id="Path_9287" data-name="Path 9287" d="M141.455-511.56a2.348,2.348,0,0,0-1.768,2.1l-.051.488-3.129,1.244c-1.717.684-3.2,1.317-3.289,1.4a.566.566,0,0,0,.349.96c.095,0,1.615-.575,3.369-1.273l3.187-1.281.269.269a2.612,2.612,0,0,0,.648.444l.378.175v1.31c0,1.3,0,1.31.182,1.484a.567.567,0,0,0,.4.182.567.567,0,0,0,.4-.182c.182-.175.182-.189.182-1.484v-1.31l.386-.175a2.3,2.3,0,0,0,1.135-1.135,1.927,1.927,0,0,0,.189-.99,1.638,1.638,0,0,0-.255-1.04,2.175,2.175,0,0,0-1.885-1.215A2.826,2.826,0,0,0,141.455-511.56Zm1,1.2a1.143,1.143,0,0,1,.349,1.87,1.152,1.152,0,0,1-1.943-1.062A1.171,1.171,0,0,1,142.46-510.36Z" transform="translate(-123.038)" fill="#fff"/>
      <path id="Path_9288" data-name="Path 9288" d="M293.215-469.818a.527.527,0,0,0-.015.779c.087.087,1.572.72,3.289,1.4l3.129,1.244.044.415a3.656,3.656,0,0,0,.175.749l.124.335-1.026,1.033c-.895.9-1.026,1.07-1.026,1.273a.606.606,0,0,0,.589.589c.2,0,.371-.131,1.266-1.026l1.033-1.019.466.153a2.3,2.3,0,0,0,2.823-1.23,1.927,1.927,0,0,0,.189-.99,1.638,1.638,0,0,0-.255-1.04,2.089,2.089,0,0,0-2-1.208,1.791,1.791,0,0,0-.99.182,2.925,2.925,0,0,0-.669.458l-.269.262-3.18-1.273c-1.754-.7-3.26-1.273-3.354-1.273A.568.568,0,0,0,293.215-469.818Zm9.226,2.685a1.143,1.143,0,0,1,.349,1.87,1.152,1.152,0,0,1-1.943-1.062A1.171,1.171,0,0,1,302.442-467.133Z" transform="translate(-271.378 -38.57)" fill="#fff"/>
      <path id="Path_9289" data-name="Path 9289" d="M45.231-447.693a2.5,2.5,0,0,0-1.492,1.426,2.654,2.654,0,0,0-.095.837,2.034,2.034,0,0,0,.64,1.579l.262.269-1.273,3.187c-.7,1.754-1.273,3.267-1.273,3.376a.59.59,0,0,0,.99.335c.065-.087.684-1.572,1.368-3.289l1.252-3.129.415-.044a3.656,3.656,0,0,0,.749-.175l.335-.131,1,.99a9.04,9.04,0,0,0,1.157,1.033.6.6,0,0,0,.706-.706,9.04,9.04,0,0,0-1.033-1.157l-.975-.99.153-.466a2.305,2.305,0,0,0-1.135-2.8A2.691,2.691,0,0,0,45.231-447.693Zm1.157,1.164a1.143,1.143,0,0,1,.349,1.87,1.152,1.152,0,0,1-1.943-1.062A1.171,1.171,0,0,1,46.388-446.529Z" transform="translate(-38.608 -59.174)" fill="#fff"/>
      <path id="Path_9290" data-name="Path 9290" d="M121.189-399.764c-.7.109-.837.218-.91.713-.022.167-.1.677-.167,1.128l-.124.822-.437.182a1.666,1.666,0,0,1-.524.146c-.044-.022-.48-.335-.975-.7-1.033-.771-1.062-.779-1.732-.277a14.09,14.09,0,0,0-2.03,2.03c-.5.669-.495.7.277,1.732.364.495.677.931.7.975a1.665,1.665,0,0,1-.146.524l-.182.437-.822.124c-.451.065-.96.146-1.128.167-.509.073-.6.2-.72.982a9.7,9.7,0,0,0,.124,3.4c.087.24.269.306,1.47.48l1.077.16.182.437a1.665,1.665,0,0,1,.146.524c-.022.044-.335.48-.7.975-.779,1.04-.779,1.055-.24,1.761a8.548,8.548,0,0,0,2.619,2.35c.182.036.335-.044,1.106-.626.495-.364.931-.677.975-.7a1.665,1.665,0,0,1,.524.146l.437.182.16,1.077c.175,1.2.24,1.382.48,1.47a10.052,10.052,0,0,0,2.016.226,7.5,7.5,0,0,0,2.052-.262c.24-.124.291-.306.466-1.586.109-.829.146-.939.276-.975a7.73,7.73,0,0,0,.735-.335c.429-.218.6-.349.648-.495a.591.591,0,0,0-.327-.713c-.189-.08-.276-.058-.88.2-.371.16-.8.327-.946.371a1.063,1.063,0,0,0-.349.189,6.51,6.51,0,0,0-.255,1.2,8.465,8.465,0,0,1-.211,1.15,7.756,7.756,0,0,1-1.215.051c-.859,0-1.179-.022-1.222-.095a9.149,9.149,0,0,1-.182-1.091,6.283,6.283,0,0,0-.226-1.15,1.516,1.516,0,0,0-.56-.32c-.247-.087-.669-.262-.924-.378a1.419,1.419,0,0,0-.618-.175,7.953,7.953,0,0,0-1.026.691l-.866.648-.269-.211a7.01,7.01,0,0,1-1.463-1.615c.633-.829,1.193-1.608,1.259-1.754s.044-.276-.211-.859c-.16-.371-.327-.8-.371-.946a1.063,1.063,0,0,0-.189-.349,6.512,6.512,0,0,0-1.2-.255,8.469,8.469,0,0,1-1.15-.211,10.415,10.415,0,0,1,.036-2.43,8.485,8.485,0,0,1,1.091-.189,5.6,5.6,0,0,0,1.164-.233.765.765,0,0,0,.24-.371c.051-.153.218-.582.378-.953.255-.582.284-.706.211-.859s-.626-.924-1.259-1.754a7.009,7.009,0,0,1,1.463-1.615l.269-.211.866.648a7.338,7.338,0,0,0,1.033.691,1.27,1.27,0,0,0,.618-.175c.255-.116.669-.291.917-.378a1.515,1.515,0,0,0,.56-.32,6.282,6.282,0,0,0,.226-1.15,9.148,9.148,0,0,1,.182-1.091c.044-.073.364-.095,1.222-.095a7.756,7.756,0,0,1,1.215.051,8.464,8.464,0,0,1,.211,1.15,6.21,6.21,0,0,0,.255,1.193,1.288,1.288,0,0,0,.458.233,9.387,9.387,0,0,1,.924.371,1.866,1.866,0,0,0,.691.211,8.712,8.712,0,0,0,1.019-.691l.866-.648.262.2a15.4,15.4,0,0,1,1.375,1.382l.138.189-.648.866a8.71,8.71,0,0,0-.691,1.019,1.866,1.866,0,0,0,.211.691,9.39,9.39,0,0,1,.371.924,1.288,1.288,0,0,0,.233.458,6.212,6.212,0,0,0,1.193.255,8.468,8.468,0,0,1,1.15.211,14.876,14.876,0,0,1,0,2.416,8.468,8.468,0,0,1-1.15.211,7.431,7.431,0,0,0-1.193.247,1.884,1.884,0,0,0-.262.538c-.087.247-.262.662-.378.917a1.341,1.341,0,0,0-.175.618,5.507,5.507,0,0,0,.524.815c.269.357.568.749.662.88l.175.226-.64.677a11.877,11.877,0,0,1-1.113,1.026c-.713.538-.808.793-.437,1.164.182.182.262.211.444.175a8.5,8.5,0,0,0,3.02-3.012c.036-.175-.051-.335-.626-1.1-.364-.495-.677-.931-.7-.975a1.666,1.666,0,0,1,.146-.524l.182-.437,1-.153c1.317-.2,1.382-.211,1.506-.451a9.118,9.118,0,0,0,.073-3.966c-.065-.32-.313-.415-1.484-.582l-1.1-.16-.182-.437a1.666,1.666,0,0,1-.146-.524c.022-.044.335-.48.7-.975.771-1.033.779-1.07.277-1.732a8.415,8.415,0,0,0-2.714-2.408,4.133,4.133,0,0,0-1.055.662c-.488.364-.924.669-.968.691a1.666,1.666,0,0,1-.524-.146l-.437-.182-.124-.822c-.065-.451-.146-.96-.167-1.128-.073-.509-.2-.6-.982-.72A10.588,10.588,0,0,0,121.189-399.764Z" transform="translate(-103.681 -103.604)" fill="#fff"/>
      <path id="Path_9291" data-name="Path 9291" d="M409.493-378.9a.611.611,0,0,0-.16.349c0,.095.568,1.6,1.266,3.34l1.266,3.165-.277.269a2.8,2.8,0,0,0-.444.677l-.175.4h-1.3c-1.273,0-1.3,0-1.47.182a.535.535,0,0,0,0,.8c.175.182.189.182,1.506.182h1.332l.131.313a2.466,2.466,0,0,0,1.142,1.135,1.821,1.821,0,0,0,.946.189,2.249,2.249,0,0,0,2.088-1.3,1.7,1.7,0,0,0,.2-1,1.774,1.774,0,0,0-.175-.982,2.371,2.371,0,0,0-1.972-1.332l-.48-.029-1.252-3.143c-.691-1.724-1.31-3.194-1.368-3.267A.621.621,0,0,0,409.493-378.9Zm4.228,7.647a1.143,1.143,0,0,1,.349,1.87,1.1,1.1,0,0,1-1.615,0A1.149,1.149,0,0,1,413.721-371.256Z" transform="translate(-378 -122.878)" fill="#fff"/>
      <path id="Path_9292" data-name="Path 9292" d="M210.691-303.871a3.525,3.525,0,0,0-2.518,4.213,3.5,3.5,0,0,0,3.849,2.6A3.481,3.481,0,0,0,215-300.015,3.5,3.5,0,0,0,210.691-303.871Zm1.819,1.259a2.26,2.26,0,0,1,1.091,1.04,1.643,1.643,0,0,1,.247,1.077,1.626,1.626,0,0,1-.262,1.091,2.312,2.312,0,0,1-4.344-.924,2.344,2.344,0,0,1,1.586-2.379A2.671,2.671,0,0,1,212.51-302.612Z" transform="translate(-192.594 -192.504)" fill="#fff"/>
      <path id="Path_9293" data-name="Path 9293" d="M1.959-287.672A2.262,2.262,0,0,0,.547-286.42a2.563,2.563,0,0,0,.007,1.928,2.409,2.409,0,0,0,1.957,1.339l.473.044,1.252,3.129c.684,1.717,1.3,3.2,1.368,3.289a.587.587,0,0,0,.99-.349c0-.095-.575-1.615-1.273-3.369L4.04-283.6l.269-.269a2.613,2.613,0,0,0,.444-.648l.175-.378h1.31c1.3,0,1.31,0,1.484-.182a.535.535,0,0,0,0-.8c-.175-.182-.189-.182-1.484-.182H4.927l-.175-.386A2.32,2.32,0,0,0,1.959-287.672Zm1.164,1.135a1.143,1.143,0,0,1,.349,1.87,1.1,1.1,0,0,1-1.615,0A1.149,1.149,0,0,1,3.123-286.537Z" transform="translate(0 -207.524)" fill="#fff"/>
      <path id="Path_9294" data-name="Path 9294" d="M367.014-218.906c-.065.095-.684,1.572-1.368,3.3l-1.252,3.129-.451.044a2.784,2.784,0,0,0-.742.175l-.3.131-1.041-1.026a5.107,5.107,0,0,0-1.193-1.033.659.659,0,0,0-.669.669,5.013,5.013,0,0,0,1.026,1.186l1.019,1.033-.153.466a2.257,2.257,0,0,0,.568,2.379,1.962,1.962,0,0,0,1.615.633,2.022,2.022,0,0,0,1.637-.648,2.037,2.037,0,0,0,.648-1.608,2.14,2.14,0,0,0-.64-1.652l-.262-.269,1.273-3.187c.7-1.754,1.273-3.267,1.273-3.376A.594.594,0,0,0,367.014-218.906Zm-2.481,7.727a1.143,1.143,0,0,1,.349,1.87,1.1,1.1,0,0,1-1.615,0A1.149,1.149,0,0,1,364.533-211.178Z" transform="translate(-333.469 -271.241)" fill="#fff"/>
      <path id="Path_9295" data-name="Path 9295" d="M68.548-150.974l-1.033,1.019-.466-.153A2.292,2.292,0,0,0,64-147.925a2.342,2.342,0,0,0,1.3,2.088,1.751,1.751,0,0,0,1,.2,2.052,2.052,0,0,0,1.572-.589l.262-.255,3.165,1.426c1.739.779,3.245,1.419,3.347,1.419a.553.553,0,0,0,.429-.88,21.656,21.656,0,0,0-3.282-1.6l-3.129-1.4v-.349a2.908,2.908,0,0,0-.153-.8l-.146-.444.975-.99a9.042,9.042,0,0,0,1.033-1.157.618.618,0,0,0-.633-.742A5.013,5.013,0,0,0,68.548-150.974Zm-1.761,1.986a1.143,1.143,0,0,1,.349,1.87,1.1,1.1,0,0,1-1.615,0A1.149,1.149,0,0,1,66.787-148.988Z" transform="translate(-59.007 -333.431)" fill="#fff"/>
      <path id="Path_9296" data-name="Path 9296" d="M226.392-103.818c-.182.175-.182.189-.182,1.484v1.31l-.386.175a2.36,2.36,0,0,0-1.121,1.091,1.646,1.646,0,0,0-.2,1,1.834,1.834,0,0,0,.182.982,2.321,2.321,0,0,0,4.344-.415l.116-.407,3.172-1.426c1.746-.779,3.245-1.484,3.34-1.564a.564.564,0,0,0-.378-.953c-.109,0-1.594.626-3.3,1.4a28.009,28.009,0,0,1-3.136,1.31,3.072,3.072,0,0,0-.626-.749,2.967,2.967,0,0,0-.517-.291l-.327-.146v-1.31c0-1.3,0-1.31-.182-1.484a.567.567,0,0,0-.4-.182A.567.567,0,0,0,226.392-103.818Zm.859,3.995a1.143,1.143,0,0,1,.349,1.87,1.1,1.1,0,0,1-1.615,0A1.149,1.149,0,0,1,227.25-99.823Z" transform="translate(-207.829 -377.939)" fill="#fff"/>
    </g>
  </g>
</svg>
