<svg width="64" height="64" viewBox="0 0 64 64" fill="none" xmlns="http://www.w3.org/2000/svg">
<g clip-path="url(#clip0_3_166)">
<path d="M32 64C49.6731 64 64 49.6731 64 32C64 14.3269 49.6731 0 32 0C14.3269 0 0 14.3269 0 32C0 49.6731 14.3269 64 32 64Z" fill="#F48120"/>
<path d="M37 32C37 31.0111 36.7068 30.0444 36.1573 29.2222C35.6079 28.3999 34.827 27.759 33.9134 27.3806C32.9998 27.0022 31.9945 26.9031 31.0245 27.0961C30.0546 27.289 29.1637 27.7652 28.4645 28.4645C27.7652 29.1637 27.289 30.0546 27.0961 31.0245C26.9031 31.9945 27.0022 32.9998 27.3806 33.9134C27.759 34.827 28.3999 35.6079 29.2222 36.1573C30.0444 36.7068 31.0111 37 32 37C33.3256 36.9985 34.5965 36.4712 35.5338 35.5338C36.4712 34.5965 36.9985 33.3256 37 32ZM32 33.4286C31.7175 33.4286 31.4413 33.3448 31.2063 33.1878C30.9714 33.0308 30.7883 32.8077 30.6802 32.5467C30.572 32.2857 30.5438 31.9984 30.5989 31.7213C30.654 31.4442 30.7901 31.1896 30.9898 30.9898C31.1896 30.7901 31.4442 30.654 31.7213 30.5989C31.9984 30.5438 32.2857 30.572 32.5467 30.6802C32.8077 30.7883 33.0308 30.9714 33.1878 31.2063C33.3448 31.4413 33.4286 31.7175 33.4286 32C33.4281 32.3787 33.2775 32.7419 33.0097 33.0097C32.7419 33.2775 32.3787 33.4281 32 33.4286Z" fill="white"/>
<path d="M14.5 17C15.8807 17 17 15.8807 17 14.5C17 13.1193 15.8807 12 14.5 12C13.1193 12 12 13.1193 12 14.5C12 15.8807 13.1193 17 14.5 17Z" fill="white"/>
<path d="M49.5 17C50.8807 17 52 15.8807 52 14.5C52 13.1193 50.8807 12 49.5 12C48.1193 12 47 13.1193 47 14.5C47 15.8807 48.1193 17 49.5 17Z" fill="white"/>
<path d="M49.5 52C50.8807 52 52 50.8807 52 49.5C52 48.1193 50.8807 47 49.5 47C48.1193 47 47 48.1193 47 49.5C47 50.8807 48.1193 52 49.5 52Z" fill="white"/>
<path d="M14.5 52C15.8807 52 17 50.8807 17 49.5C17 48.1193 15.8807 47 14.5 47C13.1193 47 12 48.1193 12 49.5C12 50.8807 13.1193 52 14.5 52Z" fill="white"/>
<path d="M21.6798 20.6984L20.7367 21.6412L21.6796 22.5845L22.6227 21.6417L21.6798 20.6984Z" fill="white"/>
<path d="M23.5656 22.5846L22.6227 23.5275L23.5656 24.4705L24.5085 23.5275L23.5656 22.5846Z" fill="white"/>
<path d="M17.9074 16.9263L16.9643 17.8691L17.9072 18.8124L18.8503 17.8696L17.9074 16.9263Z" fill="white"/>
<path d="M19.7938 18.8125L18.8509 19.7554L19.7938 20.6984L20.7368 19.7554L19.7938 18.8125Z" fill="white"/>
<path d="M25.4515 24.4705L24.5085 25.4141L25.4521 26.357L26.3951 25.4134L25.4515 24.4705Z" fill="white"/>
<path d="M27.3381 26.3568L26.395 27.2995L27.3379 28.2428L28.2811 27.3L27.3381 26.3568Z" fill="white"/>
<path d="M33 19H31V21H33V19Z" fill="white"/>
<path d="M31.25 17.2399V18H32.75V17.2399C33.457 17.0779 34.0731 16.6927 34.4829 16.1564C34.8928 15.6201 35.0681 14.9696 34.9761 14.3268C34.8841 13.684 34.531 13.093 33.9832 12.6647C33.4353 12.2363 32.7302 12 32 12C31.2698 12 30.5647 12.2363 30.0168 12.6647C29.469 13.093 29.1159 13.684 29.0239 14.3268C28.9319 14.9696 29.1072 15.6201 29.5171 16.1564C29.9269 16.6927 30.543 17.0779 31.25 17.2399Z" fill="white"/>
<path d="M33 22H31V23H33V22Z" fill="white"/>
<path d="M33 25H31V26H33V25Z" fill="white"/>
<path d="M40.5405 22.5846L39.5976 23.5275L40.5405 24.4705L41.4835 23.5275L40.5405 22.5846Z" fill="white"/>
<path d="M42.4265 20.6984L41.4834 21.6415L42.4264 22.5845L43.3695 21.6414L42.4265 20.6984Z" fill="white"/>
<path d="M44.313 18.8125L43.37 19.7554L44.313 20.6984L45.2559 19.7554L44.313 18.8125Z" fill="white"/>
<path d="M46.1989 16.9263L45.2558 17.8694L46.1988 18.8124L47.1419 17.8693L46.1989 16.9263Z" fill="white"/>
<path d="M38.6547 24.4708L37.7117 25.4137L38.6547 26.3567L39.5976 25.4137L38.6547 24.4708Z" fill="white"/>
<path d="M36.768 26.3568L35.8251 27.3L36.7682 28.2428L37.7111 27.2995L36.768 26.3568Z" fill="white"/>
<path d="M39 31H38V33H39V31Z" fill="white"/>
<path d="M42 31H41V33H42V31Z" fill="white"/>
<path d="M45 31H43V33H45V31Z" fill="white"/>
<path d="M49.3333 29C48.7437 29.002 48.1714 29.2243 47.7059 29.6321C47.2405 30.0399 46.9083 30.6103 46.7613 31.2537H46V32.7562H46.7613C46.8868 33.2991 47.1449 33.7915 47.5063 34.1774C47.8676 34.5633 48.3178 34.8274 48.8057 34.9395C49.2935 35.0516 49.7995 35.0073 50.2661 34.8117C50.7327 34.616 51.1413 34.2768 51.4455 33.8327C51.7496 33.3885 51.9372 32.8571 51.9868 32.2988C52.0364 31.7406 51.946 31.1779 51.7261 30.6745C51.5061 30.1712 51.1653 29.7475 50.7423 29.4515C50.3194 29.1555 49.8312 28.9991 49.3333 29Z" fill="white"/>
<path d="M14.6667 35C15.2563 34.998 15.8286 34.7757 16.2941 34.3679C16.7595 33.9601 17.0917 33.3897 17.2387 32.7463H18V31.2438H17.2387C17.1132 30.7009 16.8551 30.2085 16.4937 29.8226C16.1323 29.4366 15.6822 29.1726 15.1943 29.0605C14.7065 28.9484 14.2005 28.9927 13.7339 29.1883C13.2673 29.384 12.8587 29.7232 12.5545 30.1673C12.2504 30.6115 12.0628 31.1429 12.0132 31.7012C11.9636 32.2594 12.054 32.8221 12.2739 33.3254C12.4939 33.8288 12.8347 34.2525 13.2577 34.5485C13.6806 34.8445 14.1688 35.0009 14.6667 35Z" fill="white"/>
<path d="M21 31H19V33H21V31Z" fill="white"/>
<path d="M23 31H22V33H23V31Z" fill="white"/>
<path d="M26 31H25V33H26V31Z" fill="white"/>
<path d="M33 38H31V39H33V38Z" fill="white"/>
<path d="M33 41H31V42H33V41Z" fill="white"/>
<path d="M33 43H31V45H33V43Z" fill="white"/>
<path d="M31.25 46.7601C30.543 46.9221 29.9269 47.3073 29.5171 47.8436C29.1072 48.3799 28.9319 49.0304 29.0239 49.6732C29.1159 50.316 29.469 50.907 30.0168 51.3353C30.5647 51.7637 31.2698 52 32 52C32.7302 52 33.4353 51.7637 33.9832 51.3353C34.531 50.907 34.8841 50.316 34.9761 49.6732C35.0681 49.0304 34.8928 48.3799 34.4829 47.8436C34.0731 47.3073 33.457 46.9221 32.75 46.7601V46H31.25V46.7601Z" fill="white"/>
<path d="M36.7682 35.7872L35.8251 36.7299L36.768 37.6732L37.7111 36.7304L36.7682 35.7872Z" fill="white"/>
<path d="M38.6547 37.6733L37.7117 38.6162L38.6547 39.5592L39.5976 38.6162L38.6547 37.6733Z" fill="white"/>
<path d="M40.5405 39.5595L39.5976 40.5025L40.5405 41.4454L41.4835 40.5025L40.5405 39.5595Z" fill="white"/>
<path d="M42.4265 41.4455L41.4834 42.3883L42.4263 43.3315L43.3695 42.3887L42.4265 41.4455Z" fill="white"/>
<path d="M44.313 43.3316L43.37 44.2746L44.313 45.2175L45.2559 44.2746L44.313 43.3316Z" fill="white"/>
<path d="M46.1989 45.2176L45.2558 46.1604L46.1988 47.1036L47.1419 46.1608L46.1989 45.2176Z" fill="white"/>
<path d="M27.3381 35.7872L26.395 36.7303L27.3379 37.6732L28.281 36.7301L27.3381 35.7872Z" fill="white"/>
<path d="M25.4521 37.673L24.5086 38.6159L25.4515 39.5595L26.3951 38.6166L25.4521 37.673Z" fill="white"/>
<path d="M23.5656 39.5595L22.6227 40.5025L23.5656 41.4454L24.5085 40.5025L23.5656 39.5595Z" fill="white"/>
<path d="M21.6796 41.4455L20.7367 42.3887L21.6798 43.3315L22.6227 42.3883L21.6796 41.4455Z" fill="white"/>
<path d="M19.7938 43.3316L18.8509 44.2745L19.7938 45.2175L20.7368 44.2745L19.7938 43.3316Z" fill="white"/>
<path d="M17.9074 45.2176L16.9643 46.1607L17.9072 47.1036L18.8503 46.1605L17.9074 45.2176Z" fill="white"/>
</g>
<defs>
<clipPath id="clip0_3_166">
<rect width="64" height="64" fill="white"/>
</clipPath>
</defs>
</svg>
