<svg xmlns="http://www.w3.org/2000/svg" width="35.432" height="30.392" viewBox="0 0 35.432 30.392">
  <g id="developing_12966767" transform="translate(-0.387 474.637)">
    <path id="Path_9248" data-name="Path 9248" d="M125.149-474.455a2.656,2.656,0,0,0-.481.165c-.131.062-1.479,1.355-3.012,2.888l-2.778,2.778-.385-.158-.392-.158-.3-1.293a4.912,4.912,0,0,0-.433-1.43c-.131-.131-.227-.138-1.987-.138s-1.857.007-1.987.138a4.913,4.913,0,0,0-.433,1.437l-.3,1.293-.358.138-.358.131-1.045-.66c-.578-.371-1.114-.695-1.2-.722-.261-.1-.536.11-1.767,1.355-.983.99-1.224,1.272-1.224,1.417a5.71,5.71,0,0,0,.715,1.32l.722,1.135-.144.323a2.867,2.867,0,0,1-.165.358c-.014.014-.6.158-1.3.316a6.276,6.276,0,0,0-1.41.413c-.131.117-.138.213-.138,2v1.877l.165.124a4.587,4.587,0,0,0,1.183.358c1.637.358,1.506.3,1.657.708l.138.351-.715,1.128a5.916,5.916,0,0,0-.708,1.307c0,.144.254.44,1.224,1.417a17.94,17.94,0,0,0,1.4,1.327c.248.131.323.1,1.575-.695l1.045-.66.358.144.358.144.289,1.286a4.938,4.938,0,0,0,.426,1.424c.131.131.227.138,1.987.138s1.857-.007,1.987-.138a4.937,4.937,0,0,0,.426-1.424l.289-1.286.364-.144.358-.144,1.052.66c1.252.8,1.313.825,1.561.695a18.83,18.83,0,0,0,1.41-1.327c.963-.977,1.217-1.272,1.217-1.417a5.917,5.917,0,0,0-.708-1.307l-.715-1.128.138-.351c.151-.406.021-.351,1.657-.708a4.587,4.587,0,0,0,1.183-.358l.165-.124v-1.85c0-1.664-.014-1.857-.124-1.994s-.378-.213-1.417-.447a7.7,7.7,0,0,1-1.348-.378,3.615,3.615,0,0,1-.144-.358l-.089-.268,2.826-2.833c2.524-2.538,2.833-2.868,2.936-3.17a1.9,1.9,0,0,0-.007-1.252c-.089-.268-.275-.509-.942-1.19a7.238,7.238,0,0,0-1.142-1A1.958,1.958,0,0,0,125.149-474.455Zm.756,1.045a10.819,10.819,0,0,1,.846.8c.646.646.75.784.784,1.025.048.344-.069.571-.523,1.018l-.351.344-1.2-1.2-1.2-1.2.4-.4C125.149-473.52,125.493-473.63,125.905-473.41Zm-1.114,2.7,1.183,1.183-4.044,4.044-4.037,4.037-1.2-1.2-1.2-1.2,4.023-4.023c2.214-2.214,4.037-4.023,4.057-4.023S124.138-471.368,124.791-470.714Zm-8.135-.1c.021.034.158.6.3,1.245a6.4,6.4,0,0,0,.392,1.313,1.352,1.352,0,0,0,.454.241l.344.11-.64.64-.646.646-.481-.1a5.418,5.418,0,0,0-5.88,3,5.523,5.523,0,0,0,0,4.594,5.447,5.447,0,0,0,4.883,3.1,5.4,5.4,0,0,0,5.226-4.092,6.227,6.227,0,0,0,.069-2.331l-.076-.344.64-.639.64-.646.151.344a1.412,1.412,0,0,0,.241.4c.048.028.626.179,1.293.33l1.2.282v2.6l-1.217.282a7.166,7.166,0,0,0-1.32.378,5.591,5.591,0,0,0-.626,1.589c.028.069.337.6.7,1.169l.653,1.045-.908.908-.908.915-1.093-.688c-.887-.564-1.128-.681-1.279-.653a6.563,6.563,0,0,0-1.444.619,20.686,20.686,0,0,0-.64,2.538,7.323,7.323,0,0,1-1.307.055,7.384,7.384,0,0,1-1.307-.055,21.13,21.13,0,0,0-.64-2.544,6.71,6.71,0,0,0-1.444-.612c-.151-.028-.4.1-1.279.653l-1.087.688-.915-.915-.908-.908.653-1.038c.358-.564.674-1.094.695-1.169a5.048,5.048,0,0,0-.619-1.6,7.165,7.165,0,0,0-1.32-.378L106-460.117v-2.6l1.217-.282a7.167,7.167,0,0,0,1.32-.378,5.471,5.471,0,0,0,.626-1.589c-.028-.076-.344-.605-.7-1.176l-.66-1.032.887-.887a10.281,10.281,0,0,1,.949-.887,12.234,12.234,0,0,1,1.107.653,7.431,7.431,0,0,0,1.176.653,6.642,6.642,0,0,0,1.513-.633,6.634,6.634,0,0,0,.371-1.286c.151-.653.289-1.217.309-1.252a7.06,7.06,0,0,1,1.272-.062A7.061,7.061,0,0,1,116.656-470.811Zm-.695,5.013a5.376,5.376,0,0,1-.784.873l-.825.825-.8,2.386a24.608,24.608,0,0,0-.77,2.572.574.574,0,0,0,.213.33l.193.144,2.455-.818,2.455-.818.832-.818.832-.818.041.254a5,5,0,0,1-.227,1.712,4.7,4.7,0,0,1-2.111,2.462,4.334,4.334,0,0,1-5.213-.811,4.124,4.124,0,0,1-1.293-3.095,4.124,4.124,0,0,1,1.293-3.1,4.3,4.3,0,0,1,3.143-1.327A1.653,1.653,0,0,1,115.962-465.8Zm.949,4.834c-.076.069-2.84.977-2.868.942a14.692,14.692,0,0,1,.454-1.492l.488-1.465.99.983A7.042,7.042,0,0,1,116.911-460.963Z" transform="translate(-97.28)" fill="#0e0e0e" stroke="#030303" stroke-width="0.3"/>
    <path id="Path_9249" data-name="Path 9249" d="M4.109-375.869a1.049,1.049,0,0,0-.619.646c-.089.22-.1,1.293-.1,9.091v8.837H2.122C.41-357.3.533-357.405.54-355.8A3.838,3.838,0,0,0,.7-354.194a2.285,2.285,0,0,0,1.754,1.43c.578.1,30.726.1,31.3,0a2.285,2.285,0,0,0,1.754-1.43,3.838,3.838,0,0,0,.158-1.609c.007-1.6.131-1.492-1.582-1.492H32.82v-8.857c0-8.548-.007-8.857-.131-9.139a1.233,1.233,0,0,0-.426-.481l-.289-.193-1.5-.021c-1.437-.021-1.506-.014-1.637.117a.531.531,0,0,0-.144.33c.007.454.172.5,1.7.5a4.721,4.721,0,0,1,1.382.083c.062.062.083,2.125.083,8.871v8.789H4.35v-8.789c0-6.746.021-8.809.083-8.871a9.027,9.027,0,0,1,2.056-.083c1.781,0,1.987-.014,2.118-.124a.485.485,0,0,0,.007-.715C8.476-375.993,8.3-376,6.42-376,4.591-376,4.357-375.986,4.109-375.869Zm30.636,20.156c0,1.087-.206,1.6-.784,1.912-.2.11-1.265.117-15.858.117s-15.658-.007-15.858-.117c-.578-.316-.784-.825-.784-1.912v-.619H34.745Z" transform="translate(0 -91.709)" fill="#0e0e0e" stroke="#030303" stroke-width="0.3"/>
  </g>
</svg>
