<svg xmlns="http://www.w3.org/2000/svg" xmlns:xlink="http://www.w3.org/1999/xlink" width="237" height="96" viewBox="0 0 237 96">
  <defs>
    <clipPath id="clip-path">
      <rect id="Rectangle_1383" data-name="Rectangle 1383" width="237" height="96" fill="#fff" stroke="#707070" stroke-width="1"/>
    </clipPath>
    <clipPath id="clip-path-2">
      <rect id="Rectangle_1382" data-name="Rectangle 1382" width="218.288" height="61.324" fill="none"/>
    </clipPath>
  </defs>
  <g id="Mask_Group_259" data-name="Mask Group 259" clip-path="url(#clip-path)">
    <g id="Group_7507" data-name="Group 7507" transform="translate(10.326 17.338)">
      <g id="Group_7506" data-name="Group 7506" transform="translate(0 0)" clip-path="url(#clip-path-2)">
        <path id="Path_7305" data-name="Path 7305" d="M10.893,0h196.5a10.894,10.894,0,0,1,10.893,10.893V50.428a10.9,10.9,0,0,1-10.893,10.9H10.893A10.9,10.9,0,0,1,0,50.428V10.893A10.894,10.894,0,0,1,10.893,0" transform="translate(0 0.001)" fill="#eee"/>
        <path id="Path_7306" data-name="Path 7306" d="M116.464,0H36.054V61.324h80.41a10.893,10.893,0,0,0,10.893-10.9V10.893A10.892,10.892,0,0,0,116.464,0Z" transform="translate(90.927 0.001)" fill="#396baa"/>
        <path id="Path_7307" data-name="Path 7307" d="M40.252,13.99l6.023-8.879H40.9V2.963h9V4.037l-5.9,8.872h5.7v2.148H40.252Z" transform="translate(101.515 7.474)" fill="#fff"/>
        <path id="Path_7308" data-name="Path 7308" d="M43.216,8.486a4.992,4.992,0,0,1,.352-1.9,4.277,4.277,0,0,1,.979-1.476,4.334,4.334,0,0,1,1.5-.951,5.158,5.158,0,0,1,1.891-.335,5.062,5.062,0,0,1,1.881.338A4.152,4.152,0,0,1,52.2,6.57a5.024,5.024,0,0,1,.335,1.874,5.086,5.086,0,0,1-.345,1.9,4.205,4.205,0,0,1-2.458,2.395,5.3,5.3,0,0,1-1.888.331,5.172,5.172,0,0,1-1.888-.335,4.112,4.112,0,0,1-2.406-2.391,5.007,5.007,0,0,1-.335-1.86ZM47.9,11.2a2.043,2.043,0,0,0,1.032-.236,1.877,1.877,0,0,0,.659-.616,2.549,2.549,0,0,0,.352-.877,4.934,4.934,0,0,0,.1-1,4.671,4.671,0,0,0-.116-1.057,2.576,2.576,0,0,0-.373-.888,1.941,1.941,0,0,0-.676-.609A2.115,2.115,0,0,0,47.858,5.7a2.076,2.076,0,0,0-1.028.232,1.94,1.94,0,0,0-.655.62,2.539,2.539,0,0,0-.352.88,5.038,5.038,0,0,0-.1,1.007,4.64,4.64,0,0,0,.116,1.053,2.47,2.47,0,0,0,.37.884,1.878,1.878,0,0,0,.673.6A2.152,2.152,0,0,0,47.9,11.2Z" transform="translate(108.989 9.65)" fill="#fff"/>
        <path id="Path_7309" data-name="Path 7309" d="M46.332,2.747h2.451v5.41a2.709,2.709,0,0,1,.539-.711,2.987,2.987,0,0,1,.718-.5,3.561,3.561,0,0,1,.842-.3,4.057,4.057,0,0,1,.9-.1,3.218,3.218,0,0,1,1.338.257,2.56,2.56,0,0,1,.94.718,3.1,3.1,0,0,1,.556,1.085A4.751,4.751,0,0,1,54.8,9.971V15.6H52.351V10.326a1.882,1.882,0,0,0-.423-1.314,1.643,1.643,0,0,0-1.271-.461,1.774,1.774,0,0,0-1.405.532,2.064,2.064,0,0,0-.472,1.416v5.1H46.328V2.751Z" transform="translate(116.838 6.929)" fill="#fff"/>
        <path id="Path_7310" data-name="Path 7310" d="M49.178,8.486a4.993,4.993,0,0,1,.352-1.9,4.277,4.277,0,0,1,.979-1.476,4.334,4.334,0,0,1,1.5-.951A5.158,5.158,0,0,1,53.9,3.826a5.062,5.062,0,0,1,1.881.338A4.152,4.152,0,0,1,58.163,6.57,5.025,5.025,0,0,1,58.5,8.443a5.086,5.086,0,0,1-.345,1.9,4.205,4.205,0,0,1-2.458,2.395,5.3,5.3,0,0,1-1.888.331,5.172,5.172,0,0,1-1.888-.335,4.112,4.112,0,0,1-2.406-2.391,5.007,5.007,0,0,1-.335-1.86ZM53.862,11.2a2.043,2.043,0,0,0,1.032-.236,1.877,1.877,0,0,0,.659-.616,2.549,2.549,0,0,0,.352-.877,4.935,4.935,0,0,0,.1-1,4.671,4.671,0,0,0-.116-1.057,2.577,2.577,0,0,0-.373-.888,1.942,1.942,0,0,0-.676-.609A2.115,2.115,0,0,0,53.82,5.7a2.076,2.076,0,0,0-1.028.232,1.94,1.94,0,0,0-.655.62,2.539,2.539,0,0,0-.352.88,5.038,5.038,0,0,0-.1,1.007A4.639,4.639,0,0,0,51.8,9.493a2.47,2.47,0,0,0,.37.884,1.878,1.878,0,0,0,.673.6,2.152,2.152,0,0,0,1.018.222Z" transform="translate(124.025 9.65)" fill="#fff"/>
        <path id="Path_7311" data-name="Path 7311" d="M43.566,7.872h1.412l3.293,9.435H47.13l-.87-2.585H42.277l-.87,2.585H40.322Zm2.391,5.938L44.267,8.918,42.58,13.81Z" transform="translate(101.691 19.854)" fill="#fff"/>
        <path id="Path_7312" data-name="Path 7312" d="M48.435,16.543a2.623,2.623,0,0,1-.472.542,3.137,3.137,0,0,1-.616.412,3.628,3.628,0,0,1-.7.261,2.8,2.8,0,0,1-.711.092,3.119,3.119,0,0,1-1.363-.278,2.72,2.72,0,0,1-.976-.761,3.322,3.322,0,0,1-.581-1.127,4.8,4.8,0,0,1-.194-1.374,4.294,4.294,0,0,1,.218-1.37,3.466,3.466,0,0,1,.63-1.148,2.949,2.949,0,0,1,2.36-1.085,3.445,3.445,0,0,1,.715.074,2.8,2.8,0,0,1,.659.225,2.537,2.537,0,0,1,.578.384,2.406,2.406,0,0,1,.458.549V7.7h1.1V17.734h-1.1v-1.19Zm-2.339.394a2.437,2.437,0,0,0,1.057-.211,2.114,2.114,0,0,0,.74-.581,2.378,2.378,0,0,0,.437-.863,3.85,3.85,0,0,0,.144-1.067,3.6,3.6,0,0,0-.137-1.021,2.338,2.338,0,0,0-.412-.821,2.009,2.009,0,0,0-.7-.546,2.344,2.344,0,0,0-1.018-.2,2.282,2.282,0,0,0-1.053.222,1.952,1.952,0,0,0-.7.6,2.456,2.456,0,0,0-.384.873,4.578,4.578,0,0,0-.116,1.046,3.6,3.6,0,0,0,.13.951,2.416,2.416,0,0,0,.394.824,1.928,1.928,0,0,0,.666.581,1.975,1.975,0,0,0,.951.215Z" transform="translate(107.993 19.427)" fill="#fff"/>
        <path id="Path_7313" data-name="Path 7313" d="M45.122,8.592h1.194l1.99,5.794,1.969-5.794h1.134l-2.43,6.9h-1.4Z" transform="translate(113.796 21.669)" fill="#fff"/>
        <path id="Path_7314" data-name="Path 7314" d="M51.583,14.713a2.272,2.272,0,0,1-.961.74A3.1,3.1,0,0,1,49.4,15.7a2.919,2.919,0,0,1-.87-.127,2.149,2.149,0,0,1-.722-.384,1.794,1.794,0,0,1-.493-.634,1.952,1.952,0,0,1-.187-.87,1.836,1.836,0,0,1,.2-.895,1.771,1.771,0,0,1,.539-.6,2.7,2.7,0,0,1,.778-.373,5.518,5.518,0,0,1,.905-.2q.47-.058.93-.074c.306-.007.588-.011.849-.011h.243v-.046a5.247,5.247,0,0,0-.06-.814,1.584,1.584,0,0,0-.24-.637,1.2,1.2,0,0,0-.5-.412,2,2,0,0,0-.831-.148,1.861,1.861,0,0,0-1.465.7,1.625,1.625,0,0,0-.264.493l-.933-.405a2.842,2.842,0,0,1,.468-.754,2.766,2.766,0,0,1,.634-.532,2.943,2.943,0,0,1,.768-.317,3.476,3.476,0,0,1,.866-.109,3.208,3.208,0,0,1,1.064.173,2.369,2.369,0,0,1,.838.493,2.241,2.241,0,0,1,.549.785,2.68,2.68,0,0,1,.2,1.05v4.526h-1.1v-.87Zm-.947-2.406c-.151,0-.313.007-.49.018a4.043,4.043,0,0,0-.535.067,3.748,3.748,0,0,0-.518.141,1.436,1.436,0,0,0-.44.243,1.084,1.084,0,0,0-.423.895,1.455,1.455,0,0,0,.092.535.907.907,0,0,0,.264.363,1.036,1.036,0,0,0,.4.2,2.094,2.094,0,0,0,.511.06,2.743,2.743,0,0,0,.754-.106,2.084,2.084,0,0,0,.673-.32,1.734,1.734,0,0,0,.479-.521,1.376,1.376,0,0,0,.183-.715v-.859h-.947Z" transform="translate(118.863 21.581)" fill="#fff"/>
        <path id="Path_7315" data-name="Path 7315" d="M49.3,8.68h1.1v1.1a1.942,1.942,0,0,1,.4-.549,2.188,2.188,0,0,1,.532-.38,2.669,2.669,0,0,1,.623-.218,3.39,3.39,0,0,1,.687-.07,2.7,2.7,0,0,1,1.123.218,2.157,2.157,0,0,1,.789.6,2.542,2.542,0,0,1,.468.905,3.956,3.956,0,0,1,.155,1.141v4.17h-1.1V11.339a1.974,1.974,0,0,0-.419-1.352,1.62,1.62,0,0,0-1.275-.472,2.381,2.381,0,0,0-.817.134,1.791,1.791,0,0,0-.623.377,1.6,1.6,0,0,0-.4.6,2.041,2.041,0,0,0-.144.785V15.59h-1.1V8.684Z" transform="translate(124.343 21.581)" fill="#fff"/>
        <path id="Path_7316" data-name="Path 7316" d="M57.873,13.572a3.3,3.3,0,0,1-1.219,1.581,3.375,3.375,0,0,1-1.919.546,3.316,3.316,0,0,1-1.405-.282,3.09,3.09,0,0,1-1.046-.768,3.4,3.4,0,0,1-.641-1.145,4.373,4.373,0,0,1-.218-1.409,3.83,3.83,0,0,1,.243-1.381,3.5,3.5,0,0,1,.69-1.124,3.2,3.2,0,0,1,1.071-.757,3.274,3.274,0,0,1,1.37-.278,3.119,3.119,0,0,1,3.029,1.916l-1,.437a2.059,2.059,0,0,0-.328-.581,2.189,2.189,0,0,0-.483-.454,2.638,2.638,0,0,0-.609-.3,2.291,2.291,0,0,0-.7-.106,1.884,1.884,0,0,0-.951.232,2.123,2.123,0,0,0-.669.62,2.749,2.749,0,0,0-.4.873,3.657,3.657,0,0,0-.134,1,3.586,3.586,0,0,0,.137,1,2.411,2.411,0,0,0,.419.821,2.046,2.046,0,0,0,.7.564,2.28,2.28,0,0,0,1,.2,2.1,2.1,0,0,0,.715-.12,2.08,2.08,0,0,0,.606-.335,2.358,2.358,0,0,0,.472-.514,2.655,2.655,0,0,0,.306-.655l.951.412Z" transform="translate(129.69 21.581)" fill="#fff"/>
        <path id="Path_7317" data-name="Path 7317" d="M59.784,14A3.111,3.111,0,0,1,56.9,15.7a3.4,3.4,0,0,1-1.409-.282,3.027,3.027,0,0,1-1.05-.764,3.278,3.278,0,0,1-.655-1.131,4.122,4.122,0,0,1-.225-1.377,4.194,4.194,0,0,1,.225-1.384,3.519,3.519,0,0,1,.645-1.141,3,3,0,0,1,2.36-1.064,3.151,3.151,0,0,1,1.462.3,2.593,2.593,0,0,1,.961.817,3.339,3.339,0,0,1,.528,1.2,6.534,6.534,0,0,1,.158,1.465H54.7a2.941,2.941,0,0,0,.134.961,2.215,2.215,0,0,0,.423.771,1.976,1.976,0,0,0,.7.518,2.336,2.336,0,0,0,.958.187,1.892,1.892,0,0,0,.581-.092,2,2,0,0,0,.514-.254,2.241,2.241,0,0,0,.43-.387,2.472,2.472,0,0,0,.331-.479l1.018.43Zm-1.018-2.539a2.147,2.147,0,0,0-.528-1.455,1.878,1.878,0,0,0-1.444-.539A1.983,1.983,0,0,0,56,9.624a1.924,1.924,0,0,0-.623.426,2.2,2.2,0,0,0-.43.63,2.712,2.712,0,0,0-.218.778h4.029Z" transform="translate(135.087 21.581)" fill="#fff"/>
        <path id="Path_7318" data-name="Path 7318" d="M61.29,16.543a2.623,2.623,0,0,1-.472.542,3.138,3.138,0,0,1-.616.412,3.628,3.628,0,0,1-.7.261,2.8,2.8,0,0,1-.711.092,3.119,3.119,0,0,1-1.363-.278,2.72,2.72,0,0,1-.976-.761,3.323,3.323,0,0,1-.581-1.127,4.8,4.8,0,0,1-.194-1.374,4.3,4.3,0,0,1,.218-1.37,3.467,3.467,0,0,1,.63-1.148,2.949,2.949,0,0,1,2.36-1.085,3.444,3.444,0,0,1,.715.074,2.8,2.8,0,0,1,.659.225,2.538,2.538,0,0,1,.578.384,2.318,2.318,0,0,1,.458.549V7.7h1.1V17.734h-1.1v-1.19Zm-2.339.394a2.437,2.437,0,0,0,1.057-.211,2.114,2.114,0,0,0,.74-.581,2.378,2.378,0,0,0,.437-.863,3.85,3.85,0,0,0,.144-1.067,3.6,3.6,0,0,0-.137-1.021,2.338,2.338,0,0,0-.412-.821,2.009,2.009,0,0,0-.7-.546,2.344,2.344,0,0,0-1.018-.2A2.282,2.282,0,0,0,58,11.848a1.952,1.952,0,0,0-.7.6,2.456,2.456,0,0,0-.384.873,4.578,4.578,0,0,0-.116,1.046,3.6,3.6,0,0,0,.13.951,2.416,2.416,0,0,0,.394.824,1.928,1.928,0,0,0,.666.581,1.975,1.975,0,0,0,.951.215Z" transform="translate(140.413 19.427)" fill="#fff"/>
        <path id="Path_7319" data-name="Path 7319" d="M40.527,11.638h2.944a5,5,0,0,1,1.286.158,2.907,2.907,0,0,1,1.05.5,2.444,2.444,0,0,1,.708.888,3.092,3.092,0,0,1,.257,1.317,2.942,2.942,0,0,1-.173,1.071,2.144,2.144,0,0,1-.472.757,2.321,2.321,0,0,1-.711.486,4.349,4.349,0,0,1-.888.275,6.476,6.476,0,0,1-1,.127c-.349.018-.694.028-1.042.028l-.821-.011V21.08H40.523V11.642Zm3.022,4.688a2.346,2.346,0,0,0,1.529-.447,1.781,1.781,0,0,0,.549-1.462,2.367,2.367,0,0,0-.144-.877,1.413,1.413,0,0,0-.416-.571,1.77,1.77,0,0,0-.655-.313,3.578,3.578,0,0,0-.859-.1H41.675v3.765h1.877Z" transform="translate(102.198 29.351)" fill="#fff"/>
        <path id="Path_7320" data-name="Path 7320" d="M47.025,18.479a2.272,2.272,0,0,1-.962.74,3.1,3.1,0,0,1-1.219.247,2.919,2.919,0,0,1-.87-.127,2.15,2.15,0,0,1-.722-.384,1.794,1.794,0,0,1-.493-.634,1.951,1.951,0,0,1-.187-.87,1.835,1.835,0,0,1,.2-.895,1.77,1.77,0,0,1,.539-.6,2.7,2.7,0,0,1,.778-.373,5.519,5.519,0,0,1,.905-.2q.47-.058.93-.074c.306-.007.588-.011.849-.011h.243v-.046a5.245,5.245,0,0,0-.06-.814,1.584,1.584,0,0,0-.239-.637,1.2,1.2,0,0,0-.5-.412,2,2,0,0,0-.831-.148,1.861,1.861,0,0,0-1.465.7,1.626,1.626,0,0,0-.264.493l-.933-.405a2.842,2.842,0,0,1,.468-.754,2.767,2.767,0,0,1,.634-.532,2.943,2.943,0,0,1,.768-.317,3.476,3.476,0,0,1,.866-.109,3.208,3.208,0,0,1,1.064.173,2.369,2.369,0,0,1,.838.493,2.241,2.241,0,0,1,.549.785,2.681,2.681,0,0,1,.2,1.05v4.526h-1.1v-.87Zm-.947-2.406c-.151,0-.313.007-.49.018a4.043,4.043,0,0,0-.535.067,3.749,3.749,0,0,0-.518.141,1.436,1.436,0,0,0-.44.243,1.084,1.084,0,0,0-.423.895,1.455,1.455,0,0,0,.092.535.907.907,0,0,0,.264.363,1.036,1.036,0,0,0,.4.2,1.936,1.936,0,0,0,.511.06,2.743,2.743,0,0,0,.754-.106,2.085,2.085,0,0,0,.673-.32,1.734,1.734,0,0,0,.479-.521,1.376,1.376,0,0,0,.183-.715v-.859h-.947Z" transform="translate(107.368 31.079)" fill="#fff"/>
        <path id="Path_7321" data-name="Path 7321" d="M44.747,12.445h1.1v1.236a2.5,2.5,0,0,1,.933-1.014,2.856,2.856,0,0,1,1.335-.345v1.032a4.169,4.169,0,0,0-.99.144,1.8,1.8,0,0,0-.711.387,1.612,1.612,0,0,0-.426.673,3.153,3.153,0,0,0-.141,1v3.793h-1.1V12.445Z" transform="translate(112.85 31.076)" fill="#fff"/>
        <path id="Path_7322" data-name="Path 7322" d="M49.729,20.479a3.132,3.132,0,0,1-.947.141,1.944,1.944,0,0,1-1.377-.444,1.808,1.808,0,0,1-.472-1.374V14.548h-.993v-.923h.993v-1.3l1.1-.475v1.772h1.61v.923h-1.61v4.145a1.611,1.611,0,0,0,.046.4.813.813,0,0,0,.148.32.693.693,0,0,0,.275.211,1.112,1.112,0,0,0,.433.074,2.365,2.365,0,0,0,.8-.151Z" transform="translate(115.857 29.896)" fill="#fff"/>
        <path id="Path_7323" data-name="Path 7323" d="M47.47,12.445h1.1v1.1a1.942,1.942,0,0,1,.4-.549,2.188,2.188,0,0,1,.532-.38,2.67,2.67,0,0,1,.623-.218,3.39,3.39,0,0,1,.687-.07,2.7,2.7,0,0,1,1.124.218,2.157,2.157,0,0,1,.789.6,2.541,2.541,0,0,1,.468.905,3.955,3.955,0,0,1,.155,1.141v4.17h-1.1V15.1a1.974,1.974,0,0,0-.419-1.352,1.62,1.62,0,0,0-1.275-.472,2.381,2.381,0,0,0-.817.134,1.791,1.791,0,0,0-.623.377,1.6,1.6,0,0,0-.4.6,2.041,2.041,0,0,0-.144.785v4.184h-1.1V12.449Z" transform="translate(119.718 31.076)" fill="#fff"/>
        <path id="Path_7324" data-name="Path 7324" d="M55.81,17.768a3.121,3.121,0,0,1-2.884,1.7,3.411,3.411,0,0,1-1.409-.282,3.061,3.061,0,0,1-1.05-.764,3.27,3.27,0,0,1-.652-1.131,4.122,4.122,0,0,1-.225-1.377,4.194,4.194,0,0,1,.225-1.384,3.448,3.448,0,0,1,.641-1.141,3.017,3.017,0,0,1,2.36-1.064,3.166,3.166,0,0,1,1.465.3,2.65,2.65,0,0,1,.961.817,3.4,3.4,0,0,1,.525,1.2,6.533,6.533,0,0,1,.158,1.465h-5.2a3.039,3.039,0,0,0,.137.961,2.16,2.16,0,0,0,.423.771,1.944,1.944,0,0,0,.7.518,2.319,2.319,0,0,0,.954.187,1.859,1.859,0,0,0,.581-.092,1.943,1.943,0,0,0,.514-.254,2.161,2.161,0,0,0,.433-.387,2.455,2.455,0,0,0,.328-.479Zm-1.018-2.539a2.147,2.147,0,0,0-.528-1.455,1.878,1.878,0,0,0-1.444-.539,1.983,1.983,0,0,0-.789.155,1.924,1.924,0,0,0-.623.426,2.2,2.2,0,0,0-.43.63,2.713,2.713,0,0,0-.218.778h4.029Z" transform="translate(125.064 31.079)" fill="#fff"/>
        <path id="Path_7325" data-name="Path 7325" d="M51.849,12.445h1.1v1.236a2.5,2.5,0,0,1,.933-1.014,2.856,2.856,0,0,1,1.335-.345v1.032a4.17,4.17,0,0,0-.99.144,1.8,1.8,0,0,0-.711.387,1.612,1.612,0,0,0-.426.673,3.056,3.056,0,0,0-.141,1v3.793h-1.1V12.445Z" transform="translate(130.761 31.076)" fill="#fff"/>
        <path id="Path_7326" data-name="Path 7326" d="M31.307,35.675a5.421,5.421,0,0,1-2.187-.468l-15.257-6.8a5.422,5.422,0,0,1-2.744-7.15l6.8-15.254a5.421,5.421,0,0,1,7.15-2.747l15.254,6.8a5.422,5.422,0,0,1,2.744,7.15l-6.8,15.257A5.438,5.438,0,0,1,31.307,35.675Zm-.919-3.328A2.3,2.3,0,0,0,33.41,31.2l6.8-15.257a2.3,2.3,0,0,0-1.155-3.022l-15.261-6.8a2.3,2.3,0,0,0-3.022,1.152l-6.8,15.257a2.3,2.3,0,0,0,1.152,3.022Z" transform="translate(26.865 7.043)" fill="#049849"/>
        <path id="Path_7327" data-name="Path 7327" d="M45.946,31.85h-16.7a5.425,5.425,0,0,1-5.417-5.417V9.729a5.425,5.425,0,0,1,5.417-5.417h16.7a5.425,5.425,0,0,1,5.417,5.417v16.7a5.425,5.425,0,0,1-5.417,5.417M29.242,7.443a2.294,2.294,0,0,0-2.289,2.289v16.7a2.3,2.3,0,0,0,2.289,2.289h16.7a2.291,2.291,0,0,0,2.286-2.289V9.732a2.293,2.293,0,0,0-2.286-2.289Z" transform="translate(60.086 10.875)" fill="#f6b11b"/>
        <path id="Path_7328" data-name="Path 7328" d="M32.6,14.545l-2.251,5.033a1.619,1.619,0,0,1-.088.155l.877,5.417a2.288,2.288,0,0,1-1.888,2.624l-16.493,2.67a2.319,2.319,0,0,1-1.708-.4,2.258,2.258,0,0,1-.916-1.486l-2.67-16.5a2.311,2.311,0,0,1,.4-1.7,2.244,2.244,0,0,1,1.486-.916l16.5-2.67a2.153,2.153,0,0,1,.363-.028,2.3,2.3,0,0,1,2.261,1.927l.888,5.452L31.684,8.9l-.127-.736a5.419,5.419,0,0,0-6.206-4.48l-16.5,2.67A5.286,5.286,0,0,0,5.34,8.523a5.344,5.344,0,0,0-.954,4.033l2.67,16.493a5.373,5.373,0,0,0,2.173,3.529A5.314,5.314,0,0,0,12.384,33.6a6.2,6.2,0,0,0,.877-.063l16.5-2.67a5.421,5.421,0,0,0,4.48-6.209L32.6,14.549Z" transform="translate(10.879 9.123)" fill="#e22728"/>
        <path id="Path_7329" data-name="Path 7329" d="M18.98,22.163,21.4,16.739l-.687-5.047a2.279,2.279,0,0,1,1.965-2.564l16.55-2.251c.106-.011.211-.021.313-.021a2.318,2.318,0,0,1,1.384.468c.074.056.141.123.208.18a5.442,5.442,0,0,1,2.775-1.564,5.14,5.14,0,0,0-1.1-1.116,5.38,5.38,0,0,0-4-1.057L22.238,6.018a5.419,5.419,0,0,0-4.631,6.093L18.98,22.159Z" transform="translate(44.278 9.377)" fill="#226eb3"/>
        <path id="Path_7330" data-name="Path 7330" d="M45.549,21.219,43.376,5.2a2.285,2.285,0,0,0-2.2,2.282v4.7l1.289,9.456A2.286,2.286,0,0,1,40.495,24.2l-16.55,2.251a2.28,2.28,0,0,1-2.568-1.965l-.761-5.618L18.19,24.3l.088.609a5.419,5.419,0,0,0,5.357,4.684,6.528,6.528,0,0,0,.743-.049l16.536-2.229a5.406,5.406,0,0,0,4.631-6.089v-.007Z" transform="translate(45.875 13.117)" fill="#226eb3"/>
        <path id="Path_7331" data-name="Path 7331" d="M12.723,17.486,15.086,14H13.142a.194.194,0,0,1-.19-.19V13.34a.192.192,0,0,1,.19-.19h3.194a.192.192,0,0,1,.19.19v.18a.175.175,0,0,1-.032.1l-2.314,3.49h2.078a.194.194,0,0,1,.19.19v.465a.192.192,0,0,1-.19.19H12.881a.192.192,0,0,1-.19-.19V17.6a.152.152,0,0,1,.028-.116h0Z" transform="translate(31.999 33.165)"/>
        <path id="Path_7332" data-name="Path 7332" d="M15.525,15.586A2.392,2.392,0,0,1,18,13.124a2.381,2.381,0,0,1,2.479,2.469,2.391,2.391,0,0,1-2.5,2.5A2.355,2.355,0,0,1,15.525,15.586Zm3.821.021c0-.866-.419-1.61-1.363-1.61s-1.317.771-1.317,1.648a1.416,1.416,0,0,0,1.363,1.592c.944-.011,1.317-.821,1.317-1.627Z" transform="translate(39.154 33.099)"/>
        <path id="Path_7333" data-name="Path 7333" d="M18.988,13.146h.7a.192.192,0,0,1,.19.19v1.775h2V13.336a.194.194,0,0,1,.19-.19h.7a.194.194,0,0,1,.19.19V17.77a.194.194,0,0,1-.19.19h-.7a.194.194,0,0,1-.19-.19V15.978h-2V17.77a.194.194,0,0,1-.19.19H19a.194.194,0,0,1-.19-.19V13.336a.181.181,0,0,1,.18-.19Z" transform="translate(47.425 33.154)"/>
        <path id="Path_7334" data-name="Path 7334" d="M21.86,15.586a2.48,2.48,0,0,1,4.959.007,2.389,2.389,0,0,1-2.5,2.5,2.353,2.353,0,0,1-2.458-2.5Zm3.814.021c0-.866-.419-1.61-1.363-1.61s-1.317.771-1.317,1.648a1.416,1.416,0,0,0,1.363,1.592c.944-.011,1.317-.821,1.317-1.627Z" transform="translate(55.13 33.099)"/>
      </g>
    </g>
  </g>
</svg>
