<svg width="47" height="45" viewBox="0 0 47 45" fill="none" xmlns="http://www.w3.org/2000/svg">
<path fill-rule="evenodd" clip-rule="evenodd" d="M44.0981 37.6725C44.3988 36.8091 44.5604 35.8824 44.5604 34.9223C44.5604 32.5852 43.6019 30.4677 42.0533 28.9345C40.5047 27.4012 38.3659 26.456 36.0054 26.456C33.6449 26.456 31.5061 27.405 29.9575 28.9345C28.4089 30.4677 27.4542 32.5852 27.4542 34.9223C27.4542 37.2594 28.4127 39.3769 29.9575 40.9101C31.5061 42.4434 33.6449 43.3886 36.0054 43.3886C38.1667 43.3886 40.1401 42.5959 41.6474 41.286C42.7524 40.3259 43.6207 39.0494 44.0981 37.6725ZM32.4609 35.8676C31.6903 36.0052 30.9386 36.2657 30.5289 37.278C30.262 37.933 30.3259 38.7256 30.6604 39.4439C31.57 36.6974 34.765 38.32 32.709 40.6868C34.2125 40.7613 35.1634 39.7193 35.3138 38.3163C35.3852 37.6539 35.4416 37.2966 35.5882 37.01C35.6671 36.8537 35.7761 36.7198 35.9227 36.5635C36.4151 36.0276 36.9639 35.5587 37.5014 35.0042C38.5125 33.9584 40.6663 34.9223 41.4895 32.8755C41.7564 32.2205 41.6925 31.4279 41.3579 30.7096C40.4483 33.4561 37.2533 31.8335 39.3094 29.4667C37.8059 29.3922 36.8549 30.4342 36.7045 31.8372C36.6406 32.455 36.7497 32.9797 36.058 33.6831C35.5732 34.1631 35.0582 34.6544 34.5583 35.1233C34.3628 35.3131 34.22 35.4247 34.0508 35.5066C33.7501 35.6554 33.3818 35.7001 32.4646 35.8601L32.4609 35.8676ZM32.4195 8.87958L32.4083 8.91307C29.9763 8.46277 26.4656 8.22832 22.7632 8.27298C19.0195 8.31392 15.0615 8.63768 11.7988 9.3001L11.7951 9.28522C8.94967 -3.96316 36.1746 -2.06894 32.4195 8.87958ZM16.595 23.2295C14.9412 24.3757 13.2159 24.8 11.532 25.1088L13.9413 31.867H26.304C25.9958 32.8308 25.8266 33.858 25.8266 34.9223C25.8266 37.706 26.9655 40.2254 28.8073 42.0489C30.6491 43.8724 33.1938 45 36.0054 45C38.817 45 41.3617 43.8724 43.2035 42.0489C45.1393 40.1323 46.1842 37.6427 46.1842 34.9223C46.1842 32.1387 45.0453 29.6192 43.2035 27.7957C41.3617 25.9722 38.817 24.8446 36.0054 24.8446C35.1334 24.8446 34.2876 24.9525 33.4795 25.1572C31.9873 25.0084 30.4387 24.8893 29.3373 24.3236C28.8337 24.0147 28.3939 23.583 27.9879 23.036L27.9165 21.9195C28.3074 21.6032 28.6833 21.2311 29.0028 20.818C29.7282 19.9211 30.0064 18.9982 30.3522 17.826C30.4236 17.5766 30.4913 17.331 30.574 17.0817C31.2581 17.011 31.8557 16.2555 32.2166 15.3177C32.412 14.793 32.5661 14.2013 32.6075 13.6765C32.6639 13.1258 32.6075 12.6159 32.412 12.2698C32.2579 11.9944 32.0211 11.8158 31.7016 11.786C31.6791 11.5106 31.8031 10.9264 31.9722 10.3049C29.6681 9.89553 26.3228 9.68341 22.7632 9.72435C19.1097 9.76528 15.2494 10.0779 12.0883 10.7254L12.3965 12.1879C12.1597 12.575 12.1033 13.1816 12.1747 13.8291C12.2461 14.4618 12.4378 15.1242 12.7197 15.6787C13.0806 16.382 13.5955 16.877 14.1969 16.877C14.2533 17.0407 14.321 17.2231 14.3774 17.4017C14.866 18.8233 15.2268 19.8988 16.1026 20.9185C16.3545 21.2236 16.6326 21.499 16.9258 21.7446L16.8544 22.9988C16.7755 23.0732 16.6853 23.1513 16.595 23.2295ZM27.0407 22.355C25.4695 23.3932 24.511 23.9626 22.4775 23.9142C20.5004 23.8845 19.4668 23.2221 17.8843 22.2322C17.764 28.7707 27.2023 29.1615 27.0407 22.355ZM29.3975 17.6138C29.4802 17.3236 29.5779 17.0221 29.6907 16.6611C29.732 16.5086 29.8861 16.4006 30.0402 16.4267C30.4988 16.5086 30.9611 15.8461 31.2806 15.046C31.461 14.5622 31.6001 14.0412 31.6415 13.5723C31.6828 13.1295 31.6415 12.7462 31.5174 12.5117C31.3934 12.2847 31.0476 12.415 30.792 12.1954C29.4726 15.6601 17.9708 17.2268 13.2648 12.4559C13.0994 12.7164 13.0693 13.1853 13.1257 13.71C13.1971 14.2608 13.3625 14.8674 13.6143 15.3512C13.9075 15.9168 14.2834 16.3039 14.6593 16.2071C14.8134 16.1662 14.9788 16.2481 15.0351 16.4006C15.1479 16.7058 15.2156 16.9402 15.2983 17.171C17.734 24.2641 27.0031 24.8186 29.3975 17.6138ZM10.5772 34.0068C11.1222 34.0068 11.5658 34.446 11.5658 34.9856C11.5658 35.5252 11.1222 35.9643 10.5772 35.9643C10.0322 35.9643 9.58866 35.5252 9.58866 34.9856C9.59242 34.446 10.0322 34.0068 10.5772 34.0068ZM8.73918 25.6187C5.63066 26.3183 2.89802 27.8367 1.36444 34.5167L0 39.6858H7.39353V33.2886C7.39353 32.5034 8.04004 31.8633 8.83315 31.8633H10.3705C10.3066 29.3885 9.05867 26.7909 8.73918 25.6187Z" fill="black"/>
</svg>
