<svg width="64" height="64" viewBox="0 0 64 64" fill="none" xmlns="http://www.w3.org/2000/svg">
<path d="M32 64C49.6731 64 64 49.6731 64 32C64 14.3269 49.6731 0 32 0C14.3269 0 0 14.3269 0 32C0 49.6731 14.3269 64 32 64Z" fill="#F48120"/>
<path fill-rule="evenodd" clip-rule="evenodd" d="M30.2808 52.951C29.88 52.951 29.5521 52.6231 29.5521 52.2223V51.5058C29.5521 51.0989 29.88 50.7771 30.2808 50.7771C30.6876 50.7771 31.0095 51.0989 31.0095 51.5058V52.2223C31.0095 52.6231 30.6876 52.951 30.2808 52.951ZM51.5942 21.6062H50.3434C49.9365 21.6062 49.6147 21.2783 49.6147 20.8776C49.6147 20.4768 49.9365 20.1489 50.3434 20.1489H51.5942C52.0011 20.1489 52.3229 20.4768 52.3229 20.8776C52.3229 21.2783 52.0011 21.6062 51.5942 21.6062ZM47.0097 21.6062H45.7528C45.352 21.6062 45.0241 21.2783 45.0241 20.8776C45.0241 20.4768 45.352 20.1489 45.7528 20.1489H47.0097C47.4105 20.1489 47.7384 20.4768 47.7384 20.8776C47.7384 21.2783 47.4105 21.6062 47.0097 21.6062ZM42.4191 21.6062H41.1683C40.7614 21.6062 40.4335 21.2783 40.4335 20.8776C40.4335 20.4768 40.7614 20.1489 41.1683 20.1489H42.4191C42.8199 20.1489 43.1478 20.4768 43.1478 20.8776C43.1478 21.2783 42.8199 21.6062 42.4191 21.6062ZM37.6646 14.7507H45.9957V13.4573H14.4627V53.455H18.6039C18.6586 52.7688 19.1019 47.0549 19.1383 46.8909C19.2537 46.3019 19.873 45.215 21.4457 44.8506L26.0485 43.7455L26.6557 41.1648C25.2166 39.3917 24.9858 37.6247 24.9433 37.0782C23.4556 33.7385 23.7592 30.8603 25.7813 29.1661C26.2671 28.7593 27.5483 27.7634 28.9146 27.3991C31.0702 26.8162 33.7177 27.0469 35.0718 28.6743C35.8065 29.5608 35.6061 30.1863 36.2984 31.006C37.6525 32.6212 36.5291 35.0865 35.7033 36.8839C35.6486 37.0175 35.5879 37.145 35.5272 37.2725C35.4847 37.7947 35.2296 39.416 33.8027 41.1648L34.4099 43.7455L39.0248 44.8567C40.5853 45.215 41.2047 46.3019 41.3201 46.8909C41.3565 47.0549 41.7998 52.7688 41.8544 53.455H45.9957V29.2511L42.4495 30.8846C41.988 31.0971 41.4172 30.7692 41.4172 30.2227V27.0044H37.6646C37.276 27.0044 36.9359 26.6887 36.9359 26.2758V15.4794C36.9359 15.1393 37.1667 14.8539 37.4824 14.775L37.6646 14.7507ZM47.453 14.7507H55.2011C55.6019 14.7507 55.9298 15.0786 55.9298 15.4794V26.2758C55.9298 26.6765 55.6019 27.0044 55.2011 27.0044H50.8777L47.453 28.5832V54.1836C47.453 54.5844 47.1251 54.9123 46.7243 54.9123H13.734C13.3333 54.9123 13.0054 54.5844 13.0054 54.1836V12.7287C13.0054 12.3279 13.3333 12 13.734 12H46.7243C47.1251 12 47.453 12.3279 47.453 12.7287V14.7507ZM38.3933 25.5471H42.1459C42.5467 25.5471 42.8746 25.875 42.8746 26.2758V29.0872L50.4162 25.6139C50.5073 25.5714 50.6105 25.5471 50.7198 25.5471H54.4725V16.208H38.3933V25.5471ZM32.6732 20.1975H16.6912C16.2904 20.1975 15.9625 19.8757 15.9625 19.4688V15.9226C15.9625 15.5158 16.2904 15.1879 16.6912 15.1879H32.6732C33.074 15.1879 33.4019 15.5158 33.4019 15.9226V19.4688C33.4019 19.8757 33.074 20.1975 32.6732 20.1975ZM17.4199 18.7401H31.9446V16.6513H17.4199V18.7401ZM29.7161 23.0757H19.6544C19.2476 23.0757 18.9258 22.7478 18.9258 22.347C18.9258 21.9402 19.2476 21.6184 19.6544 21.6184H29.7161C30.1168 21.6184 30.4447 21.9402 30.4447 22.347C30.4447 22.7478 30.1168 23.0757 29.7161 23.0757ZM32.6732 25.8628H16.6912C16.2904 25.8628 15.9625 25.541 15.9625 25.1342C15.9625 24.7334 16.2904 24.4055 16.6912 24.4055H32.6732C33.074 24.4055 33.4019 24.7334 33.4019 25.1342C33.4019 25.541 33.074 25.8628 32.6732 25.8628ZM39.9478 36.6896C39.5409 36.6896 39.2191 36.3617 39.2191 35.9609V32.9977C39.2191 32.5969 39.5409 32.269 39.9478 32.269C40.3485 32.269 40.6764 32.5969 40.6764 32.9977V35.9609C40.6764 36.3617 40.3485 36.6896 39.9478 36.6896ZM39.9478 39.2217C39.5409 39.2217 39.2191 38.8999 39.2191 38.493V38.1591C39.2191 37.7522 39.5409 37.4304 39.9478 37.4304C40.3485 37.4304 40.6764 37.7522 40.6764 38.1591V38.493C40.6764 38.8999 40.3485 39.2217 39.9478 39.2217ZM21.5125 38.5477C21.1118 38.5477 20.7839 38.2198 20.7839 37.819V34.8619C20.7839 34.455 21.1118 34.1332 21.5125 34.1332C21.9133 34.1332 22.2412 34.455 22.2412 34.8619V37.819C22.2412 38.2198 21.9133 38.5477 21.5125 38.5477ZM21.5125 41.0859C21.1118 41.0859 20.7839 40.758 20.7839 40.3572V40.0172C20.7839 39.6164 21.1118 39.2885 21.5125 39.2885C21.9133 39.2885 22.2412 39.6164 22.2412 40.0172V40.3572C22.2412 40.758 21.9133 41.0859 21.5125 41.0859ZM16.6912 31.5282C16.2904 31.5282 15.9625 31.2064 15.9625 30.7996V27.8424C15.9625 27.4416 16.2904 27.1137 16.6912 27.1137C17.098 27.1137 17.4199 27.4416 17.4199 27.8424V30.7996C17.4199 31.2064 17.098 31.5282 16.6912 31.5282ZM16.6912 34.0664C16.2904 34.0664 15.9625 33.7385 15.9625 33.3377V32.9977C15.9625 32.5969 16.2904 32.269 16.6912 32.269C17.098 32.269 17.4199 32.5969 17.4199 32.9977V33.3377C17.4199 33.7385 17.098 34.0664 16.6912 34.0664ZM27.4694 44.0613L30.2322 46.2169L32.989 44.0613L32.5579 42.2396C30.9912 43.2658 29.4671 43.2658 27.9005 42.2396L27.4694 44.0613ZM20.0673 53.455H22.7695V52.1859H20.1706L20.0673 53.455ZM24.2268 53.455H36.2316V50.4128C36.2316 50.012 36.5595 49.6841 36.9602 49.6841C37.3671 49.6841 37.6889 50.012 37.6889 50.4128V50.7285H40.1724L39.887 47.1581C39.8385 47.0063 39.5956 46.4841 38.6908 46.2715L33.9788 45.1421L30.6755 47.7167C30.4144 47.9232 30.044 47.9232 29.7829 47.7167L26.4796 45.1421L21.7797 46.2715C20.8628 46.4841 20.626 47.0063 20.5713 47.1581L20.2859 50.7285H22.7695V50.4128C22.7695 50.012 23.0913 49.6841 23.4981 49.6841C23.8989 49.6841 24.2268 50.012 24.2268 50.4128V53.455ZM37.6889 53.455H40.391L40.2878 52.1859H37.6889V53.455ZM26.4128 37.1207C26.4735 37.6429 26.7346 38.997 27.8641 40.339L27.9855 40.4604C28.4106 40.8612 29.3396 41.5716 30.214 41.5474C30.2261 41.5474 30.2383 41.5474 30.2504 41.5474C31.1613 41.5716 32.0721 40.8308 32.5275 40.4058C32.5518 40.3815 32.5761 40.3572 32.5943 40.339C33.8816 38.8088 34.0577 37.4061 34.082 37.1268C33.6327 34.2 32.5579 32.8823 31.9324 32.8823C31.7867 32.8823 31.6228 32.9613 31.4588 33.1131C30.6512 33.8599 29.88 34.2243 29.0967 34.2243C28.4895 34.2243 28.1312 34.0421 27.7426 33.8903C27.7062 33.9753 27.6576 34.115 27.5969 34.3214C27.3722 35.1655 26.9957 36.301 26.4128 37.1207ZM31.0884 28.565C30.4994 28.565 29.88 28.65 29.2971 28.8079C28.5441 29.0083 27.5787 29.5608 26.7164 30.2834C25.1619 31.5889 25.3502 33.6413 25.7934 35.1715C25.9392 34.8072 26.0728 34.3943 26.1881 33.951C26.3156 33.4774 26.6071 32.3844 27.603 32.3844C28.6049 32.3844 28.9631 33.4349 30.469 32.0444C30.9062 31.6375 31.4102 31.425 31.9324 31.425C33.238 31.425 34.3492 32.6637 35.0293 34.7708C35.4482 33.6717 35.6972 32.5605 35.1811 31.9411C34.3188 30.921 34.4585 30.2166 33.9545 29.6094C33.4019 28.9475 32.3575 28.565 31.0884 28.565ZM30.2808 50.5828C29.88 50.5828 29.5521 50.261 29.5521 49.8541V49.1376C29.5521 48.7369 29.88 48.409 30.2808 48.409C30.6876 48.409 31.0095 48.7369 31.0095 49.1376V49.8541C31.0095 50.261 30.6876 50.5828 30.2808 50.5828Z" fill="white"/>
</svg>
