<svg xmlns="http://www.w3.org/2000/svg" xmlns:xlink="http://www.w3.org/1999/xlink" width="140.731" height="121.219" viewBox="0 0 140.731 121.219">
  <defs>
    <linearGradient id="linear-gradient" x1="0.5" x2="0.5" y2="1" gradientUnits="objectBoundingBox">
      <stop offset="0" stop-color="#2c5370"/>
      <stop offset="1" stop-color="#173744"/>
    </linearGradient>
    <linearGradient id="linear-gradient-2" x1="0.5" x2="0.5" y2="1" gradientUnits="objectBoundingBox">
      <stop offset="0" stop-color="#e4ca9a"/>
      <stop offset="1" stop-color="#cba870"/>
    </linearGradient>
  </defs>
  <g id="award_3" transform="translate(0)">
    <path id="Exclusion_1" data-name="Exclusion 1" d="M54.4,121.219h0L0,90.914V30.3L54.4,0l54.4,30.3v60.61l-54.4,30.3Zm0-117.911L3.082,31.959v57.3L54.4,117.911,105.716,89.26v-57.3Z" transform="translate(15.967 0)" fill="#153541"/>
    <path id="Polygon_1" data-name="Polygon 1" d="M83.879,0l27.96,49.958L83.879,99.917H27.96L0,49.958,27.96,0Z" transform="translate(20.23 116.89) rotate(-90)" fill="url(#linear-gradient)"/>
    <g id="Group_1691" data-name="Group 1691" transform="translate(47.95 28.174)">
      <rect id="Rectangle_879" data-name="Rectangle 879" width="2.252" height="11.465" transform="translate(11.305 0)" fill="#fff"/>
      <path id="Path_2427" data-name="Path 2427" d="M426.945,522.547a1.991,1.991,0,0,1-2.22,1.927,1.535,1.535,0,0,1-1.534-1.673v-4.4H421.44v4.391a3.2,3.2,0,0,0,3.4,3.464,4.209,4.209,0,0,0,2.1-.62v.327h2V518.4h-2Z" transform="translate(-406.131 -514.497)" fill="#fff"/>
      <path id="Path_2428" data-name="Path 2428" d="M514.043,488.7h-2.252v2.683H510.54v1.464h1.251v6.1h2.252v-6.1h1.5v-1.464h-1.5Z" transform="translate(-486.974 -487.48)" fill="#fff"/>
      <path id="Path_2429" data-name="Path 2429" d="M574.671,521.4a2.628,2.628,0,0,1-1.679.568,2.3,2.3,0,0,1-2.472-2.264,2.246,2.246,0,0,1,2.472-2.222,2.69,2.69,0,0,1,1.692.558l.31.244,1.381-1.259-.346-.283a4.771,4.771,0,0,0-3.05-1.046c-2.56,0-4.419,1.686-4.419,4a4.152,4.152,0,0,0,4.419,4.049,4.733,4.733,0,0,0,3.06-1.056l.333-.286-1.4-1.259-.3.254Z" transform="translate(-539.617 -512.037)" fill="#fff"/>
      <path id="Path_2430" data-name="Path 2430" d="M668.281,479.815a3.564,3.564,0,0,0-2.41-.832,3.8,3.8,0,0,0-2.13.62v-4.4h-2v11.465h2v-3.976a1.9,1.9,0,0,1,2.094-1.93c1.216,0,1.409,1.046,1.409,1.676v4.23h2v-4.22A3.386,3.386,0,0,0,668.281,479.815Z" transform="translate(-624.162 -475.2)" fill="#fff"/>
      <ellipse id="Ellipse_2" data-name="Ellipse 2" cx="1.479" cy="1.352" rx="1.479" ry="1.352" transform="translate(31.815 6.335)" fill="#ff3d2e"/>
      <path id="Path_2431" data-name="Path 2431" d="M265.085,487.9a4.283,4.283,0,0,1-2.948,1.127,3.884,3.884,0,1,1,0-7.767,4.347,4.347,0,0,1,2.938,1.118l.31.286,1.369-1.249-.3-.285a6.26,6.26,0,0,0-4.317-1.644,5.665,5.665,0,1,0,0,11.321,6.273,6.273,0,0,0,4.329-1.656l.3-.283-1.359-1.268-.323.3Z" transform="translate(-256.25 -479.098)" fill="#fff"/>
    </g>
    <path id="Path_2465" data-name="Path 2465" d="M4683.169,2339.7l-10.928-.2,6.715,11.274-6.715,10.62h15.966v-6.838Z" transform="translate(-4672.241 -2282.448)" fill="url(#linear-gradient-2)"/>
    <path id="Path_2466" data-name="Path 2466" d="M4677.77,2339.5h10.438l-6.715,11.274,6.715,10.62h-15.966v-6.838Z" transform="translate(-4547.476 -2282.448)" fill="url(#linear-gradient-2)"/>
    <rect id="Rectangle_900" data-name="Rectangle 900" width="119.715" height="22.368" transform="translate(10.555 50.219)" fill="url(#linear-gradient-2)"/>
    <path id="Path_2467" data-name="Path 2467" d="M5084.962,2390l-5.388,6.817V2390Z" transform="translate(-4954.669 -2317.726)" fill="#bc9d6c"/>
    <path id="Path_2471" data-name="Path 2471" d="M5079.574,2390l5.388,6.817V2390Z" transform="translate(-5068.995 -2317.845)" fill="#bc9d6c"/>
    <path id="Path_2469" data-name="Path 2469" d="M2.464-24.85a1.529,1.529,0,0,0-1.71,1.656v.179c0,.8.346,1.4,1.364,2.321.747.665.963,1,.963,1.466v.232c0,.528-.281.707-.628.707-.411,0-.649-.243-.649-.739v-.506l-1.1.106v.485a1.6,1.6,0,0,0,1.775,1.688A1.567,1.567,0,0,0,4.228-18.91v-.359c0-.855-.346-1.456-1.364-2.374-.747-.665-.963-1-.963-1.414v-.158a.53.53,0,0,1,.574-.6c.4,0,.6.232.6.739v.232l1.1-.105v-.211A1.552,1.552,0,0,0,2.464-24.85Zm3.582.105v7.385H7.193v-3.06H7.7a1.7,1.7,0,0,0,1.9-1.867v-.591a1.7,1.7,0,0,0-1.9-1.867Zm1.147,1.034h.465c.552,0,.8.285.8.907v.443c0,.622-.249.907-.8.907H7.193Zm6.818,6.351h1.212l-1.05-3.365a1.711,1.711,0,0,0,.812-1.625v-.528a1.7,1.7,0,0,0-1.9-1.867H11.424v7.385h1.147v-3.123h.53Zm-1.439-6.351h.465c.552,0,.8.285.8.907v.38c0,.622-.249.907-.8.907h-.465Zm5.714,6.351v-7.385H17.138v7.385Zm6.049,0v-7.385H23.252v4.4h-.022l-1.353-4.4H20.6v7.385h1.082v-4.9H21.7l1.5,4.9Zm3.982-7.491a1.622,1.622,0,0,0-1.786,1.772v4.051a1.622,1.622,0,0,0,1.786,1.772,1.634,1.634,0,0,0,1.807-1.772v-2.416H28.349v1.034H29v1.266c0,.591-.216.855-.66.855s-.66-.264-.66-.749v-4.03c0-.485.227-.749.671-.749s.671.264.671.855v.443l1.1-.053v-.506A1.634,1.634,0,0,0,28.317-24.85Z" transform="translate(54.713 104.705)" fill="#fff"/>
    <path id="Path_2468" data-name="Path 2468" d="M4.82-35.5A2.309,2.309,0,0,0,2.3-32.968v5.787a2.309,2.309,0,0,0,2.52,2.532,2.325,2.325,0,0,0,2.551-2.532v-1.266l-1.577-.075v1.176c0,.844-.325,1.221-.928,1.221s-.928-.377-.928-1.07v-5.757c0-.693.325-1.07.928-1.07s.928.377.928,1.221v.859l1.577-.075v-.95A2.325,2.325,0,0,0,4.82-35.5ZM16.306-24.8v-10.55H14.668V-30.9H12.72v-4.446H11.081V-24.8H12.72v-4.6h1.948v4.6Zm9.322,0-1.871-10.55H21.671L19.8-24.8h1.639l.356-2.4H23.6l.356,2.4Zm-2.953-8.289h.046l.665,4.446H22.011ZM36.064-24.8v-10.55H33.853l-1.268,5.667h-.031l-1.283-5.667H29.122V-24.8h1.546v-7.325H30.7l1.36,5.818h.974l1.36-5.818h.031V-24.8Zm4.081-10.55V-24.8h1.639V-29.17h.727a2.422,2.422,0,0,0,2.721-2.668v-.844a2.422,2.422,0,0,0-2.721-2.668Zm1.639,1.477h.665c.788,0,1.144.407,1.144,1.3v.633c0,.889-.356,1.3-1.144,1.3h-.665ZM50.395-24.8v-10.55H48.756V-24.8ZM56.95-35.5a2.454,2.454,0,0,0-2.644,2.668v5.516a2.454,2.454,0,0,0,2.644,2.668,2.454,2.454,0,0,0,2.644-2.668v-5.516A2.454,2.454,0,0,0,56.95-35.5Zm0,1.477c.649,0,1,.422,1,1.206v5.486c0,.784-.356,1.206-1,1.206s-1-.422-1-1.206v-5.486C55.945-33.6,56.3-34.023,56.95-34.023ZM68.838-24.8v-10.55H67.292v6.285h-.031l-1.932-6.285H63.5V-24.8H65.05v-6.993h.031L67.23-24.8Z" transform="translate(34.642 90.915)" fill="#fff"/>
    <path id="Path_2470" data-name="Path 2470" d="M2.262-21.3A1.368,1.368,0,0,0,.75-19.826v.434l.946.045v-.316c0-.534.186-.751.547-.751s.547.217.547.633v.127a2.892,2.892,0,0,1-.584,1.673L.75-15.693v.814H3.774v-.9h-1.9l1.095-1.709a3.767,3.767,0,0,0,.807-2.125v-.235A1.357,1.357,0,0,0,2.262-21.3Zm4.731,0a1.472,1.472,0,0,0-1.586,1.6v3.31a1.472,1.472,0,0,0,1.586,1.6,1.472,1.472,0,0,0,1.586-1.6V-19.7A1.472,1.472,0,0,0,6.993-21.3Zm0,.886c.39,0,.6.253.6.723V-16.4c0,.47-.213.723-.6.723s-.6-.253-.6-.723V-19.69C6.39-20.161,6.6-20.414,6.993-20.414Zm4.684-.886a1.368,1.368,0,0,0-1.512,1.474v.434l.946.045v-.316c0-.534.186-.751.547-.751s.547.217.547.633v.127a2.892,2.892,0,0,1-.584,1.673l-1.456,2.288v.814h3.024v-.9h-1.9l1.095-1.709a3.767,3.767,0,0,0,.807-2.125v-.235A1.357,1.357,0,0,0,11.677-21.3Zm5.658,4.2V-21.21h-.974l-2.068,4.2v.8h2.059v1.338h.983v-1.338h.455V-17.1Zm-1-2.261h.019V-17.1H15.257Z" transform="translate(60.82 116.995)" fill="#fff"/>
  </g>
</svg>
