<svg width="45" height="45" viewBox="0 0 45 45" fill="none" xmlns="http://www.w3.org/2000/svg">
<path d="M44.1458 14.0362L23.5797 0.32553C23.2596 0.113227 22.8839 0 22.4998 0C22.1156 0 21.7399 0.113227 21.4198 0.32553L0.848562 14.0362C0.588228 14.2161 0.375144 14.4561 0.227413 14.7359C0.0796814 15.0156 0.00166804 15.327 0 15.6434L0 29.3541C0.00224351 29.6709 0.0810446 29.9825 0.22969 30.2624C0.378335 30.5422 0.59242 30.7819 0.853705 30.9612L21.4249 44.6745C21.7451 44.8868 22.1207 45 22.5049 45C22.8891 45 23.2647 44.8868 23.5849 44.6745L44.1561 30.9612C44.4155 30.7808 44.6275 30.5405 44.7744 30.2608C44.9212 29.981 44.9984 29.67 44.9995 29.3541V15.6434C44.9973 15.3265 44.9185 15.0149 44.7698 14.7351C44.6212 14.4552 44.4071 14.2155 44.1458 14.0362ZM24.4283 5.54933L39.57 15.6446L32.8149 20.1652L24.4283 14.5634V5.54933ZM20.5712 5.54933V14.5647L12.1794 20.1639L5.42437 15.6434L20.5712 5.54933ZM3.86739 19.26L8.71447 22.5L3.86739 25.74V19.26ZM20.5712 39.4494L5.42437 29.3541L12.1794 24.8335L20.5712 30.4341V39.4494ZM22.4998 27.0694L15.6688 22.5L22.4998 17.9293L29.3307 22.5L22.4998 27.0694ZM24.4283 39.4494V30.4341L32.8149 24.8335L39.57 29.3541L24.4283 39.4494ZM41.1321 25.7387L36.285 22.4987L41.1321 19.2587V25.7387Z" fill="black"/>
</svg>
