<svg xmlns="http://www.w3.org/2000/svg" width="60" height="60" viewBox="0 0 60 60">
  <g id="service-icon4" transform="translate(-267 -1397)">
    <circle id="Ellipse_30" data-name="Ellipse 30" cx="30" cy="30" r="30" transform="translate(267 1397)" fill="#f48120"/>
    <g id="online-shopping-settings-svgrepo-com" transform="translate(282.001 1411.053)">
      <g id="Group_8317" data-name="Group 8317" transform="translate(-0.001 0.947)">
        <g id="Group_8316" data-name="Group 8316" transform="translate(0 0)">
          <path id="Path_9112" data-name="Path 9112" d="M70.246,11.635l-1.733,1.73L69.947,14.8l1.734-1.734a5.266,5.266,0,0,0,1.974.815v2.452h2.031V13.882a5.292,5.292,0,0,0,1.976-.813L79.393,14.8l1.432-1.436L79.1,11.636a5.325,5.325,0,0,0,.815-1.979h2.452V7.628H79.913A5.249,5.249,0,0,0,79.1,5.649l1.729-1.728L79.393,2.484l-1.731,1.73A5.322,5.322,0,0,0,75.686,3.4V.947H73.655V3.4a5.344,5.344,0,0,0-1.976.816L69.947,2.484,68.514,3.921l1.733,1.73a5.254,5.254,0,0,0-.815,1.976H66.973V9.657H69.43A5.291,5.291,0,0,0,70.246,11.635Zm4.426-5A2.007,2.007,0,1,1,72.665,8.64,2.007,2.007,0,0,1,74.672,6.634Z" transform="translate(-62.97 -0.947)" fill="#fff"/>
          <path id="Path_9113" data-name="Path 9113" d="M29.927,24.437a1.062,1.062,0,0,0-1.369-.62l-5.587,2.11a1.071,1.071,0,0,0-.641.681L18.258,39.663H4.932C4.547,38.336,2.09,29.78,2.09,29.78a1.066,1.066,0,0,0-2.049.59L3.1,41.022a1.066,1.066,0,0,0,1.021.774h13.5c-.291,1-.667,2.3-.847,2.929H3.993a1.065,1.065,0,0,0,0,2.13H17.574a1.071,1.071,0,0,0,1.028-.766l1.465-5.061s0-.009,0-.013c.106-.34,3.857-12.368,4.142-13.278l5.1-1.925a1.072,1.072,0,0,0,.688-1A1.123,1.123,0,0,0,29.927,24.437Z" transform="translate(0.001 -22.386)" fill="#fff"/>
          <circle id="Ellipse_109" data-name="Ellipse 109" cx="2.353" cy="2.353" r="2.353" transform="translate(15.038 25.181)" fill="#fff"/>
          <circle id="Ellipse_110" data-name="Ellipse 110" cx="2.353" cy="2.353" r="2.353" transform="translate(2.207 25.181)" fill="#fff"/>
        </g>
      </g>
    </g>
  </g>
</svg>
