<svg xmlns="http://www.w3.org/2000/svg" xmlns:xlink="http://www.w3.org/1999/xlink" width="180" height="96" viewBox="0 0 180 96">
  <defs>
    <clipPath id="clip-path">
      <rect id="Rectangle_1381" data-name="Rectangle 1381" width="180" height="96" fill="#fff" stroke="#707070" stroke-width="1"/>
    </clipPath>
  </defs>
  <g id="Mask_Group_258" data-name="Mask Group 258" clip-path="url(#clip-path)">
    <g id="Group_7505" data-name="Group 7505" transform="translate(8.432 11.36)">
      <path id="Path_7302" data-name="Path 7302" d="M89.953,51.306V64.069H78.275V51.306H72.738V81.779h5.541V69.425H89.953V81.779H95.5V51.306ZM113.23,71.93a4.584,4.584,0,1,1-9.169,0V58.875H98.8V71.93a9.833,9.833,0,1,0,19.665,0V58.875H113.23Zm38.949-11.71c0-2.678,1.763-3.526,3.7-3.526,1.555,0,3.609,1.191,4.959,2.635l3.44-4.074a10.839,10.839,0,0,0-8.062-3.948c-5.7,0-9.829,3.353-9.829,8.914,0,10.318,12.558,7.044,12.558,12.819a3.63,3.63,0,0,1-3.7,3.353c-3.106,0-4.115-1.522-5.541-3.14l-3.821,3.992a11.257,11.257,0,0,0,9.067,4.544c5.419,0,9.777-3.4,9.777-8.7,0-11.454-12.558-7.9-12.558-12.862m77.682,16.692c-3.106,0-3.99-1.349-3.99-3.416V64.341H230.7V59.707h-4.834V53.59l-5.329,2.4v18.64c0,4.768,3.275,7.17,7.763,7.17a11.012,11.012,0,0,0,2.1-.17l1.3-4.808c-.585.039-1.26.083-1.849.083M133.241,59.029a8.066,8.066,0,0,0-6.181,2.489V51.487H121.8V70.08c0,6.958,5.007,11.726,10.637,11.726a11.557,11.557,0,0,0,11.737-11.387,11.162,11.162,0,0,0-10.932-11.387m-.035,17.453a6,6,0,1,1,5.98-6,5.985,5.985,0,0,1-5.98,6m57.2-6.342a11.543,11.543,0,0,0-11.741-11.387c-5.627,0-10.633,4.765-10.633,11.726v18.6h5.258V79.041a8.065,8.065,0,0,0,6.177,2.489,11.168,11.168,0,0,0,10.936-11.387m-4.979-.067a5.976,5.976,0,1,1-5.976-6,5.989,5.989,0,0,1,5.976,6" transform="translate(-70.667 -43.808)" fill="#081533"/>
      <path id="Path_7303" data-name="Path 7303" d="M131.317,64.1V58.784a4.1,4.1,0,0,0,2.348-3.688v-.122a4.082,4.082,0,0,0-4.072-4.09h-.122a4.083,4.083,0,0,0-4.076,4.09V55.1a4.1,4.1,0,0,0,2.348,3.688V64.1a11.472,11.472,0,0,0-5.482,2.426L107.753,55.171a4.555,4.555,0,0,0,.165-1.148,4.588,4.588,0,1,0-4.6,4.6h0a4.5,4.5,0,0,0,2.258-.619l14.285,11.166a11.663,11.663,0,0,0,.177,13.091L115.7,86.626a3.92,3.92,0,0,0-1.088-.177,3.786,3.786,0,1,0,3.774,3.79,3.83,3.83,0,0,0-.177-1.093l4.3-4.319a11.556,11.556,0,0,0,16.257-2.122,11.675,11.675,0,0,0-2.116-16.325,11.554,11.554,0,0,0-5.328-2.284M129.534,81.57a5.972,5.972,0,0,1-.326-11.939c.106,0,.216,0,.326,0a5.972,5.972,0,0,1,.008,11.935" transform="translate(5.436 -49.405)" fill="#ef6148"/>
      <path id="Path_7304" data-name="Path 7304" d="M8.622,2.822a6.357,6.357,0,0,1-3,.64A4.834,4.834,0,0,1,1.9,1.961,5.554,5.554,0,0,1,.5-1.979a5.82,5.82,0,0,1,1.57-4.237A5.318,5.318,0,0,1,6.058-7.831a6.361,6.361,0,0,1,2.564.45v1.364a5.182,5.182,0,0,0-2.579-.655A3.949,3.949,0,0,0,3-5.415,4.75,4.75,0,0,0,1.84-2.055,4.519,4.519,0,0,0,2.929,1.126,3.7,3.7,0,0,0,5.785,2.311,5.34,5.34,0,0,0,8.622,1.58Zm9.535.457H12.391V-7.648h5.523V-6.49H13.666v3.635H17.6V-1.7h-3.93V2.121h4.491Zm11.446,0H28.086L26.266.216a6.674,6.674,0,0,0-.486-.728A2.774,2.774,0,0,0,25.3-1a1.666,1.666,0,0,0-.531-.278,2.175,2.175,0,0,0-.641-.088H23.079V3.279H21.8V-7.648h3.247a4.608,4.608,0,0,1,1.316.179,2.941,2.941,0,0,1,1.047.545,2.531,2.531,0,0,1,.694.911,3.031,3.031,0,0,1,.25,1.276,3.086,3.086,0,0,1-.171,1.048,2.74,2.74,0,0,1-.486.85,2.946,2.946,0,0,1-.759.636,3.863,3.863,0,0,1-1,.408v.03a2.292,2.292,0,0,1,.474.278,2.614,2.614,0,0,1,.383.37,4.894,4.894,0,0,1,.36.484q.178.271.4.629ZM23.079-6.49v3.963h1.73a2.613,2.613,0,0,0,.884-.145,2.044,2.044,0,0,0,.7-.415,1.883,1.883,0,0,0,.463-.663,2.228,2.228,0,0,0,.167-.88A1.717,1.717,0,0,0,26.459-6a2.421,2.421,0,0,0-1.635-.492Zm15.308,0H35.246V3.279H33.972V-6.49H30.839V-7.648h7.549Zm4.535,9.769H41.648V-7.648h1.275ZM52.859-6.49H48.611v3.78h3.93V-1.56h-3.93V3.279H47.336V-7.648h5.523Zm4.892,9.769H56.476V-7.648h1.275Zm10.18,0H62.165V-7.648h5.523V-6.49H63.439v3.635h3.93V-1.7h-3.93V2.121h4.491Zm3.648,0V-7.648h3q5.751,0,5.751,5.327a5.38,5.38,0,0,1-1.6,4.065,5.909,5.909,0,0,1-4.275,1.535ZM72.853-6.49V2.121h1.624A4.6,4.6,0,0,0,77.807.97,4.324,4.324,0,0,0,79-2.291q0-4.2-4.446-4.2ZM91.11-.851v4.13H89.836V-7.648h2.989a3.934,3.934,0,0,1,2.7.853,3.054,3.054,0,0,1,.96,2.408,3.319,3.319,0,0,1-1.066,2.545,4.062,4.062,0,0,1-2.879.991Zm0-5.639v4.481h1.335a2.976,2.976,0,0,0,2.014-.606,2.149,2.149,0,0,0,.694-1.711q0-2.164-2.549-2.164Zm16.34,9.769h-1.411L104.886.216h-4.613L99.188,3.279H97.77l4.173-10.927h1.32ZM104.469-.935l-1.707-4.656a4.474,4.474,0,0,1-.167-.732h-.03a4.1,4.1,0,0,1-.174.732L100.7-.935ZM118.4,3.279h-1.517L115.065.216a6.676,6.676,0,0,0-.486-.728A2.774,2.774,0,0,0,114.1-1a1.666,1.666,0,0,0-.531-.278,2.175,2.175,0,0,0-.641-.088h-1.047V3.279H110.6V-7.648h3.247a4.609,4.609,0,0,1,1.316.179,2.941,2.941,0,0,1,1.047.545,2.531,2.531,0,0,1,.694.911,3.031,3.031,0,0,1,.25,1.276,3.086,3.086,0,0,1-.171,1.048,2.739,2.739,0,0,1-.486.85,2.946,2.946,0,0,1-.759.636,3.863,3.863,0,0,1-1,.408v.03a2.292,2.292,0,0,1,.474.278,2.615,2.615,0,0,1,.383.37,4.9,4.9,0,0,1,.36.484q.178.271.4.629ZM111.879-6.49v3.963h1.73a2.613,2.613,0,0,0,.884-.145,2.044,2.044,0,0,0,.7-.415,1.883,1.883,0,0,0,.463-.663,2.228,2.228,0,0,0,.167-.88A1.717,1.717,0,0,0,115.259-6a2.421,2.421,0,0,0-1.635-.492Zm15.308,0h-3.141V3.279h-1.275V-6.49h-3.133V-7.648h7.549Zm12.031,9.769h-1.563l-5.6-8.71a3.645,3.645,0,0,1-.349-.686h-.046a11.3,11.3,0,0,1,.061,1.5V3.279h-1.275V-7.648H132.1L137.549.925q.341.533.44.732h.03a11.61,11.61,0,0,1-.076-1.608v-7.7h1.275Zm10.172,0h-5.766V-7.648h5.523V-6.49H144.9v3.635h3.93V-1.7H144.9V2.121h4.491Zm11.446,0h-1.517L157.5.216a6.674,6.674,0,0,0-.485-.728A2.776,2.776,0,0,0,156.531-1,1.666,1.666,0,0,0,156-1.281a2.175,2.175,0,0,0-.641-.088h-1.047V3.279h-1.275V-7.648h3.247a4.608,4.608,0,0,1,1.316.179,2.94,2.94,0,0,1,1.047.545,2.531,2.531,0,0,1,.694.911,3.031,3.031,0,0,1,.25,1.276,3.086,3.086,0,0,1-.171,1.048,2.739,2.739,0,0,1-.486.85,2.946,2.946,0,0,1-.759.636,3.864,3.864,0,0,1-1,.408v.03a2.292,2.292,0,0,1,.474.278,2.616,2.616,0,0,1,.383.37,4.893,4.893,0,0,1,.36.484q.178.271.4.629ZM154.312-6.49v3.963h1.73a2.613,2.613,0,0,0,.884-.145,2.044,2.044,0,0,0,.7-.415,1.883,1.883,0,0,0,.463-.663,2.228,2.228,0,0,0,.167-.88A1.717,1.717,0,0,0,157.691-6a2.421,2.421,0,0,0-1.635-.492Z" transform="translate(0.2 63.936)" fill="#040504"/>
      <rect id="Rectangle_1380" data-name="Rectangle 1380" width="163.717" height="19.944" transform="translate(0 54.783)" fill="none"/>
    </g>
  </g>
</svg>
