<svg xmlns="http://www.w3.org/2000/svg" xmlns:xlink="http://www.w3.org/1999/xlink" width="239" height="100.242" viewBox="0 0 239 100.242">
  <defs>
    <clipPath id="clip-path">
      <rect id="Rectangle_1344" data-name="Rectangle 1344" width="239" height="100.242" fill="#fff" stroke="#707070" stroke-width="1"/>
    </clipPath>
  </defs>
  <g id="Group_7430" data-name="Group 7430" clip-path="url(#clip-path)">
    <g id="Group_7429" data-name="Group 7429" transform="translate(6.13 1.744)">
      <g id="Group_7427" data-name="Group 7427" transform="translate(0 0)">
        <path id="Path_7195" data-name="Path 7195" d="M115.352,9.87V79.027l25.97,25.889h72.628V38.948l-29.193-29.1Z" transform="translate(-115.352 -9.846)" fill="#fff"/>
        <path id="Path_7196" data-name="Path 7196" d="M115.352,9.87V79.027l25.97,25.889h72.628V38.948l-29.193-29.1Z" transform="translate(-115.352 -9.846)" fill="none" stroke="#f9830f" stroke-width="1"/>
        <g id="Group_7448" data-name="Group 7448">
          <path id="Path_7197" data-name="Path 7197" d="M126.281,19.43a3.466,3.466,0,0,0,.124,1.018,6.386,6.386,0,0,0,.368.826.511.511,0,0,1,.08.263.459.459,0,0,1-.216.343l-.725.479a.567.567,0,0,1-.3.1.533.533,0,0,1-.344-.16,3.637,3.637,0,0,1-.412-.539c-.116-.2-.228-.411-.356-.675a4.238,4.238,0,0,1-3.375,1.581,3.138,3.138,0,0,1-2.294-.826,2.933,2.933,0,0,1-.853-2.2,2.939,2.939,0,0,1,1.045-2.355,4.2,4.2,0,0,1,2.815-.894,9.376,9.376,0,0,1,1.217.092c.424.056.861.148,1.321.251v-.834a2.531,2.531,0,0,0-.541-1.832,2.649,2.649,0,0,0-1.87-.527,5.4,5.4,0,0,0-1.241.148,9.34,9.34,0,0,0-1.241.391,3.538,3.538,0,0,1-.4.148.691.691,0,0,1-.184.036c-.16,0-.24-.116-.24-.355v-.563a.693.693,0,0,1,.08-.4.846.846,0,0,1,.32-.239A6.461,6.461,0,0,1,120.5,12.2a6.882,6.882,0,0,1,1.794-.22,4.22,4.22,0,0,1,3.007.926,3.779,3.779,0,0,1,.953,2.818V19.43Zm-4.665,1.74a3.675,3.675,0,0,0,1.185-.208,2.531,2.531,0,0,0,1.089-.73,1.819,1.819,0,0,0,.392-.734,4.15,4.15,0,0,0,.112-.994v-.483a9.3,9.3,0,0,0-1.053-.192,8.334,8.334,0,0,0-1.081-.072,2.656,2.656,0,0,0-1.71.459,1.587,1.587,0,0,0-.565,1.317,1.478,1.478,0,0,0,1.63,1.637m9.221,1.237a.649.649,0,0,1-.436-.116.913.913,0,0,1-.24-.447L127.462,13a2.037,2.037,0,0,1-.1-.455.252.252,0,0,1,.276-.287h1.125a.637.637,0,0,1,.448.116.915.915,0,0,1,.228.447l1.93,7.576,1.79-7.576a.807.807,0,0,1,.22-.447.769.769,0,0,1,.461-.116h.917a.7.7,0,0,1,.46.116.751.751,0,0,1,.216.447l1.814,7.668,1.986-7.668a1,1,0,0,1,.232-.447.727.727,0,0,1,.448-.116h1.065a.256.256,0,0,1,.288.287,1.153,1.153,0,0,1-.024.184,1.45,1.45,0,0,1-.08.283l-2.767,8.849a.875.875,0,0,1-.24.447.742.742,0,0,1-.436.112h-.989a.684.684,0,0,1-.456-.112.831.831,0,0,1-.22-.459l-1.778-7.384-1.77,7.372a.872.872,0,0,1-.22.459.7.7,0,0,1-.456.116Zm14.755.307a7.528,7.528,0,0,1-1.77-.208,5.145,5.145,0,0,1-1.317-.455.817.817,0,0,1-.356-.323.753.753,0,0,1-.068-.319v-.583c0-.24.088-.355.26-.355a.618.618,0,0,1,.208.036c.068.02.172.068.288.112a6.211,6.211,0,0,0,1.261.4,6.916,6.916,0,0,0,1.365.136,3.105,3.105,0,0,0,1.678-.379,1.222,1.222,0,0,0,.6-1.086,1.129,1.129,0,0,0-.308-.8,2.92,2.92,0,0,0-1.161-.595l-1.666-.515a3.488,3.488,0,0,1-1.834-1.166,2.726,2.726,0,0,1-.577-1.66,2.534,2.534,0,0,1,.312-1.273,2.938,2.938,0,0,1,.825-.938,3.713,3.713,0,0,1,1.193-.595,5.086,5.086,0,0,1,1.449-.2,5.523,5.523,0,0,1,.769.048c.264.036.5.08.745.124.232.06.449.116.657.184a2.886,2.886,0,0,1,.48.208.985.985,0,0,1,.344.287.614.614,0,0,1,.1.375v.539c0,.239-.092.367-.264.367a1.214,1.214,0,0,1-.436-.14,5.3,5.3,0,0,0-2.206-.443,2.95,2.95,0,0,0-1.525.319,1.187,1.187,0,0,0-.2,1.832,3.456,3.456,0,0,0,1.265.627l1.63.515a3.489,3.489,0,0,1,1.778,1.1,2.573,2.573,0,0,1,.529,1.6,2.977,2.977,0,0,1-.3,1.329,3.125,3.125,0,0,1-.841,1.006,3.746,3.746,0,0,1-1.273.643,5.5,5.5,0,0,1-1.642.239" transform="translate(-107.467 -3.539)" fill="#1b2430"/>
          <path id="Path_7198" data-name="Path 7198" d="M148.832,18.149a24.812,24.812,0,0,1-13.986,4.259,25.351,25.351,0,0,1-17.073-6.49c-.356-.319-.032-.754.392-.5a34.526,34.526,0,0,0,17.085,4.518,34.2,34.2,0,0,0,13.029-2.654c.633-.287,1.173.411.553.87" transform="translate(-108.536 6.591)" fill="#f98409" fill-rule="evenodd"/>
          <path id="Path_7199" data-name="Path 7199" d="M129.359,16.875c-.48-.619-3.191-.3-4.42-.148-.368.044-.424-.275-.092-.515,2.158-1.513,5.706-1.078,6.118-.575s-.112,4.051-2.134,5.748c-.308.263-.609.124-.469-.22.456-1.134,1.477-3.684,1-4.291" transform="translate(-87.49 6.077)" fill="#f98409" fill-rule="evenodd"/>
        </g>
        <path id="Path_7200" data-name="Path 7200" d="M120.245,27.188v3.628h-2.1V20.9h3.808a3.449,3.449,0,0,1,2.454.842,2.99,2.99,0,0,1,.9,2.3,2.99,2.99,0,0,1-.9,2.3,3.449,3.449,0,0,1-2.454.842Zm0-1.6h1.466a1.472,1.472,0,0,0,1.1-.391,1.917,1.917,0,0,0,0-2.3,1.458,1.458,0,0,0-1.1-.4h-1.466Z" transform="translate(-106.956 23.214)" fill="#182534"/>
        <path id="Path_7201" data-name="Path 7201" d="M127.429,30.816l-.709-2.263h-3.4l-.673,2.263h-2.258l3.507-9.919h2.37l3.508,9.919Zm-3.648-3.808h2.494l-1.261-4.151Z" transform="translate(-100.23 23.214)" fill="#182534"/>
        <path id="Path_7202" data-name="Path 7202" d="M123.538,30.816V20.9h3.848a3.55,3.55,0,0,1,2.462.814,2.829,2.829,0,0,1,.9,2.219,2.608,2.608,0,0,1-.473,1.529,3.183,3.183,0,0,1-1.333,1.062l2.466,4.295h-2.222l-2.158-3.892h-1.4v3.892Zm2.1-5.341h1.489a1.329,1.329,0,0,0,1.505-1.5,1.316,1.316,0,0,0-1.477-1.5h-1.517Z" transform="translate(-90.762 23.214)" fill="#182534"/>
        <path id="Path_7203" data-name="Path 7203" d="M129.112,30.816v-8.2h-3.031V20.9h8.212v1.72h-3.027v8.2Z" transform="translate(-83.124 23.215)" fill="#182534"/>
        <path id="Path_7204" data-name="Path 7204" d="M131.061,30.816h-2.1V20.9h2.5l4.04,6.941V20.9h2.1v9.919h-2.494l-4.048-6.885Z" transform="translate(-74.466 23.215)" fill="#182534"/>
        <path id="Path_7205" data-name="Path 7205" d="M132.1,30.816V20.9h6.55v1.664h-4.4V24.9h3.576v1.664h-3.576v2.587h4.4v1.664Z" transform="translate(-65.049 23.215)" fill="#182534"/>
        <path id="Path_7206" data-name="Path 7206" d="M134.671,30.816V20.9h3.848a3.55,3.55,0,0,1,2.462.814,2.829,2.829,0,0,1,.9,2.219,2.609,2.609,0,0,1-.473,1.529,3.183,3.183,0,0,1-1.333,1.062l2.466,4.295h-2.222l-2.158-3.892h-1.4v3.892Zm2.1-5.341h1.489a1.329,1.329,0,0,0,1.505-1.5,1.316,1.316,0,0,0-1.477-1.5h-1.517Z" transform="translate(-57.319 23.214)" fill="#182534"/>
        <path id="Path_7207" data-name="Path 7207" d="M127.48,30.567l-.553-1.585h-2.466l-.533,1.585h-.913l2.218-5.971h.949l2.214,5.971Zm-2.791-2.251H126.7l-1.013-2.93Z" transform="translate(-92.33 34.28)" fill="#182534"/>
        <path id="Path_7208" data-name="Path 7208" d="M124.7,29.926a2.842,2.842,0,0,1-.236-1.213,3.071,3.071,0,0,1,.228-1.225,1.717,1.717,0,0,1,1.726-1.11,1.912,1.912,0,0,1,1.241.483V24.493h.857v6.382h-.709l-.112-.447a2.012,2.012,0,0,1-1.381.547,1.694,1.694,0,0,1-1.614-1.05m1.822-2.858q-1.177,0-1.177,1.609c0,1.07.408,1.609,1.229,1.609a1.85,1.85,0,0,0,1.085-.4V27.447a1.864,1.864,0,0,0-1.137-.379" transform="translate(-87.983 33.972)" fill="#182534"/>
        <path id="Path_7209" data-name="Path 7209" d="M127.373,29.368,125.651,25h.917l1.233,3.6,1.237-3.6h.885l-1.71,4.371Z" transform="translate(-84.415 35.48)" fill="#182534"/>
        <path id="Path_7210" data-name="Path 7210" d="M127.193,29.232a1.252,1.252,0,0,1-.368-.95,1.184,1.184,0,0,1,.452-.974,1.826,1.826,0,0,1,1.205-.371,4.587,4.587,0,0,1,1.089.148v-.579a.865.865,0,0,0-.208-.663,1.3,1.3,0,0,0-.837-.188,4.373,4.373,0,0,0-1.405.267v-.611a3.329,3.329,0,0,1,1.574-.347A1.975,1.975,0,0,1,130,25.3a1.31,1.31,0,0,1,.388,1.042v3.117h-.709l-.068-.443a2.193,2.193,0,0,1-1.437.555,1.374,1.374,0,0,1-.981-.343m1.193-.3a2.012,2.012,0,0,0,1.185-.439v-.878a3.645,3.645,0,0,0-.913-.116c-.653,0-.977.251-.977.75a.682.682,0,0,0,.18.507.736.736,0,0,0,.525.176" transform="translate(-80.888 35.384)" fill="#182534"/>
        <path id="Path_7211" data-name="Path 7211" d="M131,29.463V26.542a1.022,1.022,0,0,0-.184-.675.746.746,0,0,0-.585-.212,2.387,2.387,0,0,0-1.337.435v3.373h-.857V25.093h.717l.088.483a2.859,2.859,0,0,1,1.73-.611,1.288,1.288,0,0,1,.957.331,1.307,1.307,0,0,1,.328.958v3.209Z" transform="translate(-77.259 35.384)" fill="#182534"/>
        <path id="Path_7212" data-name="Path 7212" d="M129.786,28.957a2.388,2.388,0,0,1-.54-1.684,2.416,2.416,0,0,1,.552-1.7,2.038,2.038,0,0,1,1.578-.6,2.538,2.538,0,0,1,1.089.239v.607a3.23,3.23,0,0,0-.969-.156,1.309,1.309,0,0,0-1.045.371,1.743,1.743,0,0,0-.324,1.174v.112a1.689,1.689,0,0,0,.332,1.158,1.275,1.275,0,0,0,1.021.367,3.353,3.353,0,0,0,1.017-.172v.607a2.557,2.557,0,0,1-1.157.255,2,2,0,0,1-1.554-.579" transform="translate(-73.618 35.408)" fill="#182534"/>
        <path id="Path_7213" data-name="Path 7213" d="M131.409,28.552a1.425,1.425,0,0,0,1.057.351,4.237,4.237,0,0,0,1.453-.267v.619a3.494,3.494,0,0,1-1.638.339A1.974,1.974,0,0,1,130.753,29a2.429,2.429,0,0,1-.545-1.7,2.517,2.517,0,0,1,.545-1.724,1.942,1.942,0,0,1,1.526-.611,1.714,1.714,0,0,1,1.289.463,1.8,1.8,0,0,1,.448,1.313,3.391,3.391,0,0,1-.068.726h-2.907a1.52,1.52,0,0,0,.368,1.086m1.794-1.876c0-.71-.324-1.062-.969-1.062-.737,0-1.137.431-1.193,1.289h2.154c0-.044.008-.12.008-.228" transform="translate(-70.725 35.381)" fill="#182534"/>
        <path id="Path_7214" data-name="Path 7214" d="M131.586,29.926a2.843,2.843,0,0,1-.236-1.213,3.072,3.072,0,0,1,.228-1.225,1.867,1.867,0,0,1,.645-.818,1.847,1.847,0,0,1,1.081-.291,1.912,1.912,0,0,1,1.241.483V24.493h.857v6.382h-.709l-.112-.447a2.012,2.012,0,0,1-1.381.547,1.694,1.694,0,0,1-1.614-1.05m1.822-2.858q-1.177,0-1.177,1.609c0,1.07.408,1.609,1.229,1.609a1.85,1.85,0,0,0,1.085-.4V27.447a1.864,1.864,0,0,0-1.137-.379" transform="translate(-67.295 33.972)" fill="#182534"/>
        <path id="Path_7215" data-name="Path 7215" d="M135.028,30.567V25.318h-1.91V24.6h4.7v.722h-1.914v5.249Z" transform="translate(-61.983 34.28)" fill="#182534"/>
        <path id="Path_7216" data-name="Path 7216" d="M135.4,25.434a.528.528,0,0,1-.392.14.551.551,0,0,1-.4-.14.572.572,0,0,1,0-.75.551.551,0,0,1,.4-.14.528.528,0,0,1,.392.14.572.572,0,0,1,0,.75m-.825.918h.857v4.371h-.857Z" transform="translate(-57.928 34.125)" fill="#182534"/>
        <path id="Path_7217" data-name="Path 7217" d="M136.18,28.552a1.424,1.424,0,0,0,1.057.351,4.237,4.237,0,0,0,1.453-.267v.619a3.494,3.494,0,0,1-1.638.339A1.973,1.973,0,0,1,135.524,29a2.428,2.428,0,0,1-.545-1.7,2.517,2.517,0,0,1,.545-1.724,1.941,1.941,0,0,1,1.525-.611,1.714,1.714,0,0,1,1.289.463,1.8,1.8,0,0,1,.448,1.313,3.392,3.392,0,0,1-.068.726h-2.907a1.519,1.519,0,0,0,.368,1.086m1.794-1.876c0-.71-.324-1.062-.969-1.062-.737,0-1.137.431-1.193,1.289h2.154c0-.044.008-.12.008-.228" transform="translate(-56.393 35.381)" fill="#182534"/>
        <path id="Path_7218" data-name="Path 7218" d="M136.991,25.643a1.854,1.854,0,0,1,1.3-.655,2.42,2.42,0,0,1,.392.028v.746a3.725,3.725,0,0,0-.464-.036,1.788,1.788,0,0,0-1.185.415v3.253h-.857V25.024h.717Z" transform="translate(-52.792 35.453)" fill="#182534"/>
        <path id="Path_7219" data-name="Path 7219" d="M129.322,29.426a1.377,1.377,0,0,1-.316-.91,1.636,1.636,0,0,1,.24-.906,1.605,1.605,0,0,1,.693-.591,2.682,2.682,0,0,1,1.149-.216,4.284,4.284,0,0,1,1.514.315v.7a5.168,5.168,0,0,0-1.486-.267,1.479,1.479,0,0,0-.921.228.721.721,0,0,0-.3.611.793.793,0,0,0,.2.587,2.4,2.4,0,0,0,.773.407l.789.3a2.332,2.332,0,0,1,1.005.623,1.456,1.456,0,0,1,.3.946,1.63,1.63,0,0,1-.589,1.321,2.4,2.4,0,0,1-1.59.491,3.914,3.914,0,0,1-1.726-.355v-.691a5.077,5.077,0,0,0,1.61.3,1.73,1.73,0,0,0,1.061-.267.86.86,0,0,0,.352-.726.734.734,0,0,0-.2-.531,2,2,0,0,0-.689-.4l-.841-.319a2.383,2.383,0,0,1-1.025-.647" transform="translate(-74.336 40.886)" fill="#182534"/>
        <path id="Path_7220" data-name="Path 7220" d="M131.415,30.794a1.424,1.424,0,0,0,1.057.351,4.237,4.237,0,0,0,1.453-.267V31.5a3.494,3.494,0,0,1-1.638.339,1.973,1.973,0,0,1-1.53-.591,2.428,2.428,0,0,1-.545-1.7,2.517,2.517,0,0,1,.545-1.724,1.941,1.941,0,0,1,1.526-.611,1.714,1.714,0,0,1,1.289.463,1.8,1.8,0,0,1,.449,1.313,3.388,3.388,0,0,1-.068.726h-2.907a1.519,1.519,0,0,0,.368,1.086m1.794-1.876c0-.71-.324-1.062-.969-1.062-.737,0-1.137.431-1.193,1.289H133.2c0-.044.008-.12.008-.228" transform="translate(-70.707 42.088)" fill="#182534"/>
        <path id="Path_7221" data-name="Path 7221" d="M132.227,27.885a1.854,1.854,0,0,1,1.3-.655,2.419,2.419,0,0,1,.392.028V28a3.724,3.724,0,0,0-.465-.036,1.788,1.788,0,0,0-1.185.415v3.253h-.857V27.266h.717Z" transform="translate(-67.102 42.16)" fill="#182534"/>
        <path id="Path_7222" data-name="Path 7222" d="M133.873,31.609l-1.722-4.371h.917l1.233,3.6,1.237-3.6h.885l-1.71,4.371Z" transform="translate(-64.889 42.186)" fill="#182534"/>
        <path id="Path_7223" data-name="Path 7223" d="M134.31,27.675a.521.521,0,0,1-.392.144.537.537,0,0,1-.4-.144.489.489,0,0,1-.144-.371.5.5,0,0,1,.144-.375.537.537,0,0,1,.4-.144.521.521,0,0,1,.392.144.512.512,0,0,1,.14.375.5.5,0,0,1-.14.371m-.829.922h.857v4.371h-.857Z" transform="translate(-61.206 40.829)" fill="#182534"/>
        <path id="Path_7224" data-name="Path 7224" d="M134.425,31.2a2.406,2.406,0,0,1-.536-1.684,2.4,2.4,0,0,1,.553-1.7,2.026,2.026,0,0,1,1.578-.6,2.62,2.62,0,0,1,1.089.236v.611a3.269,3.269,0,0,0-.969-.156,1.313,1.313,0,0,0-1.049.371,1.744,1.744,0,0,0-.32,1.173v.112a1.689,1.689,0,0,0,.328,1.158,1.278,1.278,0,0,0,1.025.367,3.394,3.394,0,0,0,1.017-.172v.607a2.575,2.575,0,0,1-1.161.255,2,2,0,0,1-1.554-.579" transform="translate(-59.667 42.115)" fill="#182534"/>
        <path id="Path_7225" data-name="Path 7225" d="M136.052,30.794a1.424,1.424,0,0,0,1.057.351,4.236,4.236,0,0,0,1.453-.267V31.5a3.494,3.494,0,0,1-1.638.339,1.974,1.974,0,0,1-1.53-.591,2.429,2.429,0,0,1-.545-1.7,2.517,2.517,0,0,1,.545-1.724,1.942,1.942,0,0,1,1.526-.611,1.714,1.714,0,0,1,1.289.463,1.8,1.8,0,0,1,.448,1.313,3.4,3.4,0,0,1-.068.726h-2.907a1.519,1.519,0,0,0,.368,1.086m1.794-1.876c0-.71-.324-1.062-.969-1.062-.737,0-1.137.431-1.193,1.289h2.154c0-.044.008-.12.008-.228" transform="translate(-56.778 42.088)" fill="#182534"/>
        <path id="Path_7226" data-name="Path 7226" d="M138.125,31.007a.5.5,0,0,0,.22-.423.508.508,0,0,0-.136-.387,1.5,1.5,0,0,0-.481-.259l-.741-.271a1.252,1.252,0,0,1-.973-1.209,1.1,1.1,0,0,1,.444-.906,1.822,1.822,0,0,1,1.141-.343,3.25,3.25,0,0,1,1.313.271v.607a4.187,4.187,0,0,0-1.257-.212c-.553,0-.829.184-.825.559a.459.459,0,0,0,.136.351,1.87,1.87,0,0,0,.541.283l.673.259a1.761,1.761,0,0,1,.749.471,1.033,1.033,0,0,1,.232.7,1.176,1.176,0,0,1-.468.974,2.056,2.056,0,0,1-1.277.363,3.116,3.116,0,0,1-1.441-.327v-.6a4.671,4.671,0,0,0,1.373.263,1.335,1.335,0,0,0,.777-.164" transform="translate(-53.401 42.091)" fill="#182534"/>
      </g>
      <g id="Group_7428" data-name="Group 7428" transform="translate(132.639 0.361)">
        <g id="Rectangle_1342" data-name="Rectangle 1342" transform="translate(0 0.004)" fill="#fff" stroke="#d1d1d1" stroke-width="2">
          <rect width="96.039" height="95.741" stroke="none"/>
          <rect x="1" y="1" width="94.039" height="93.741" fill="none"/>
        </g>
        <rect id="Rectangle_1343" data-name="Rectangle 1343" width="96.039" height="3.58" fill="#222e3c"/>
        <path id="Path_7227" data-name="Path 7227" d="M157.335,19.782a2.553,2.553,0,0,0,.1.758,4.536,4.536,0,0,0,.272.615.357.357,0,0,1,.06.2.342.342,0,0,1-.16.255l-.54.359a.4.4,0,0,1-.224.076.407.407,0,0,1-.256-.12,2.814,2.814,0,0,1-.308-.4c-.084-.148-.168-.307-.264-.5a3.164,3.164,0,0,1-2.515,1.174,2.361,2.361,0,0,1-1.714-.611,2.4,2.4,0,0,1,.148-3.4,3.115,3.115,0,0,1,2.094-.667,7.285,7.285,0,0,1,.909.068c.316.044.641.112.985.188v-.623a1.882,1.882,0,0,0-.4-1.361,1.956,1.956,0,0,0-1.393-.4,3.954,3.954,0,0,0-.925.112,6.717,6.717,0,0,0-.925.291,2.278,2.278,0,0,1-.3.108.451.451,0,0,1-.14.028q-.18,0-.18-.263v-.419a.569.569,0,0,1,.06-.3.651.651,0,0,1,.24-.18,5.709,5.709,0,0,1,2.414-.547,3.128,3.128,0,0,1,2.242.695,2.816,2.816,0,0,1,.709,2.1v2.766Zm-3.471,1.3a2.755,2.755,0,0,0,.881-.156,1.932,1.932,0,0,0,.813-.547,1.343,1.343,0,0,0,.292-.547,3.208,3.208,0,0,0,.084-.738v-.359a7.478,7.478,0,0,0-.789-.148,6.857,6.857,0,0,0-.8-.048,1.97,1.97,0,0,0-1.273.339,1.221,1.221,0,0,0,.8,2.2m6.871.918a.472.472,0,0,1-.324-.084.715.715,0,0,1-.18-.331l-2.01-6.594a1.534,1.534,0,0,1-.08-.343.187.187,0,0,1,.208-.212h.837a.469.469,0,0,1,.332.084.717.717,0,0,1,.172.331l1.438,5.648,1.337-5.648a.423.423,0,0,1,.5-.415h.685a.514.514,0,0,1,.34.084.593.593,0,0,1,.164.331l1.349,5.716,1.482-5.716a.749.749,0,0,1,.172-.331.554.554,0,0,1,.332-.084h.8a.188.188,0,0,1,.212.212.834.834,0,0,1-.016.136,1.068,1.068,0,0,1-.06.216l-2.062,6.594a.674.674,0,0,1-.18.331.544.544,0,0,1-.324.084h-.737a.514.514,0,0,1-.34-.084.623.623,0,0,1-.164-.339l-1.325-5.5-1.317,5.492a.683.683,0,0,1-.164.343.528.528,0,0,1-.34.084Zm10.995.232a5.823,5.823,0,0,1-1.317-.152,3.983,3.983,0,0,1-.985-.343.6.6,0,0,1-.264-.239.563.563,0,0,1-.052-.239V20.82c0-.176.068-.263.2-.263a.431.431,0,0,1,.156.028c.052.016.128.048.212.084a4.71,4.71,0,0,0,.941.3,5.208,5.208,0,0,0,1.021.1,2.325,2.325,0,0,0,1.249-.279.926.926,0,0,0,.444-.81.844.844,0,0,0-.232-.6,2.182,2.182,0,0,0-.865-.443l-1.241-.383a2.62,2.62,0,0,1-1.369-.87,2.045,2.045,0,0,1-.428-1.237,1.9,1.9,0,0,1,.232-.946,2.2,2.2,0,0,1,.617-.7,2.7,2.7,0,0,1,.889-.447,3.863,3.863,0,0,1,1.081-.144,3.941,3.941,0,0,1,.573.036c.2.024.376.06.556.092s.332.088.485.136a1.776,1.776,0,0,1,.36.156.744.744,0,0,1,.256.212.458.458,0,0,1,.08.283v.4c0,.18-.072.275-.2.275a.925.925,0,0,1-.324-.1,3.891,3.891,0,0,0-1.642-.331,2.234,2.234,0,0,0-1.137.236.824.824,0,0,0-.4.762.8.8,0,0,0,.256.6,2.527,2.527,0,0,0,.941.471l1.217.383a2.606,2.606,0,0,1,1.325.818,1.933,1.933,0,0,1,.392,1.193,2.2,2.2,0,0,1-.22.99,2.308,2.308,0,0,1-.625.75,2.722,2.722,0,0,1-.949.479,4.1,4.1,0,0,1-1.225.18" transform="translate(-140.458 2.849)" fill="#1b2430"/>
        <path id="Path_7228" data-name="Path 7228" d="M174.144,18.829A18.509,18.509,0,0,1,163.721,22,18.883,18.883,0,0,1,151,17.164c-.264-.24-.024-.563.292-.375a25.711,25.711,0,0,0,12.733,3.369,25.48,25.48,0,0,0,9.71-1.976c.473-.216.873.307.412.647" transform="translate(-141.255 10.396)" fill="#f98409" fill-rule="evenodd"/>
        <path id="Path_7229" data-name="Path 7229" d="M159.631,17.877c-.36-.459-2.378-.224-3.3-.112-.272.036-.316-.2-.068-.383,1.61-1.126,4.252-.8,4.561-.427s-.084,3.022-1.59,4.283c-.232.2-.456.1-.352-.164.344-.842,1.105-2.746.745-3.2" transform="translate(-125.573 10.015)" fill="#f98409" fill-rule="evenodd"/>
        <path id="Path_7230" data-name="Path 7230" d="M159,19.466v-4.83h.565l.06.351a1.717,1.717,0,0,1,1.165-.455,1.246,1.246,0,0,1,1.025.479,2.029,2.029,0,0,1,.384,1.305,2.065,2.065,0,0,1-.4,1.329,1.276,1.276,0,0,1-1.041.5,1.554,1.554,0,0,1-1.081-.4v1.72Zm2.278-4.079a.81.81,0,0,0-.7-.311,1.523,1.523,0,0,0-.9.311v1.888a1.48,1.48,0,0,0,.9.327q.937,0,.937-1.257a1.625,1.625,0,0,0-.228-.958" transform="translate(-116.886 3.812)" fill="#182534"/>
        <path id="Path_7231" data-name="Path 7231" d="M160.237,17.889a.972.972,0,0,1-.292-.75.944.944,0,0,1,.352-.762,1.445,1.445,0,0,1,.953-.291,3.6,3.6,0,0,1,.857.116v-.455a.677.677,0,0,0-.168-.523,1.038,1.038,0,0,0-.653-.148,3.5,3.5,0,0,0-1.109.212v-.479a2.6,2.6,0,0,1,1.237-.275,1.558,1.558,0,0,1,1.029.267,1.044,1.044,0,0,1,.3.818v2.451h-.557l-.06-.347a1.7,1.7,0,0,1-1.125.439,1.081,1.081,0,0,1-.769-.271m.933-.239a1.607,1.607,0,0,0,.937-.343v-.691a2.925,2.925,0,0,0-.721-.092c-.512,0-.769.2-.769.591a.521.521,0,0,0,.144.4.569.569,0,0,0,.409.14" transform="translate(-114.036 3.812)" fill="#182534"/>
        <path id="Path_7232" data-name="Path 7232" d="M161.536,15.065a1.453,1.453,0,0,1,1.025-.515,2.5,2.5,0,0,1,.308.02v.587a3.511,3.511,0,0,0-.368-.024,1.383,1.383,0,0,0-.929.327v2.555H160.9V14.578h.565Z" transform="translate(-111.182 3.866)" fill="#182534"/>
        <path id="Path_7233" data-name="Path 7233" d="M163.066,18.763a.851.851,0,0,1-.965-.962v-2h-.625v-.439l.645-.072.1-.978h.553v.966h1.017V15.8h-1.017v1.96a.461.461,0,0,0,.112.355.562.562,0,0,0,.384.1,2.13,2.13,0,0,0,.549-.068v.483a2.11,2.11,0,0,1-.753.128" transform="translate(-109.437 3.166)" fill="#182534"/>
        <path id="Path_7234" data-name="Path 7234" d="M164.558,18.069v-2.3a.8.8,0,0,0-.144-.531.582.582,0,0,0-.456-.168,1.869,1.869,0,0,0-1.057.343v2.65h-.673V14.632h.565l.068.379a2.255,2.255,0,0,1,1.361-.479,1.008,1.008,0,0,1,.753.259,1.032,1.032,0,0,1,.256.754v2.523Z" transform="translate(-107.178 3.812)" fill="#182534"/>
        <path id="Path_7235" data-name="Path 7235" d="M164.126,17.354a1.132,1.132,0,0,0,.833.275,3.363,3.363,0,0,0,1.141-.212V17.9a2.787,2.787,0,0,1-1.285.267,1.571,1.571,0,0,1-1.205-.463,1.921,1.921,0,0,1-.428-1.341,1.971,1.971,0,0,1,.428-1.357,1.53,1.53,0,0,1,1.2-.479,1.344,1.344,0,0,1,1.013.363,1.417,1.417,0,0,1,.352,1.03,2.73,2.73,0,0,1-.056.571h-2.282a1.215,1.215,0,0,0,.288.858m1.409-1.477c0-.559-.252-.838-.761-.838q-.871,0-.937,1.018h1.69a1.666,1.666,0,0,0,.008-.18" transform="translate(-104.315 3.812)" fill="#182534"/>
        <path id="Path_7236" data-name="Path 7236" d="M164.765,15.065a1.453,1.453,0,0,1,1.025-.515,2.5,2.5,0,0,1,.308.02v.587a3.512,3.512,0,0,0-.368-.024,1.383,1.383,0,0,0-.929.327v2.555h-.677V14.578h.565Z" transform="translate(-101.482 3.866)" fill="#182534"/>
        <path id="Path_7237" data-name="Path 7237" d="M161.325,19.979v-2.3a.8.8,0,0,0-.144-.531.586.586,0,0,0-.46-.168,1.866,1.866,0,0,0-1.053.343v2.65H159V16.542h.565l.068.379a2.255,2.255,0,0,1,1.361-.479,1.008,1.008,0,0,1,.753.259,1.032,1.032,0,0,1,.256.754v2.523Z" transform="translate(-116.889 9.526)" fill="#182534"/>
        <path id="Path_7238" data-name="Path 7238" d="M160.894,19.264a1.132,1.132,0,0,0,.833.275,3.362,3.362,0,0,0,1.141-.212v.487a2.787,2.787,0,0,1-1.285.267,1.571,1.571,0,0,1-1.205-.463,1.921,1.921,0,0,1-.428-1.341,1.972,1.972,0,0,1,.428-1.357,1.53,1.53,0,0,1,1.2-.479,1.344,1.344,0,0,1,1.013.363,1.417,1.417,0,0,1,.352,1.03,2.73,2.73,0,0,1-.056.571h-2.282a1.215,1.215,0,0,0,.288.858m1.409-1.477c0-.559-.252-.838-.761-.838q-.871,0-.937,1.018h1.69a1.7,1.7,0,0,0,.008-.18" transform="translate(-114.024 9.526)" fill="#182534"/>
        <path id="Path_7239" data-name="Path 7239" d="M162.38,20.673a.851.851,0,0,1-.965-.962v-2h-.625v-.439l.645-.072.1-.978h.553v.966H163.1v.523h-1.017v1.96a.461.461,0,0,0,.112.355.562.562,0,0,0,.384.1,2.13,2.13,0,0,0,.549-.068v.483a2.11,2.11,0,0,1-.753.128" transform="translate(-111.497 8.88)" fill="#182534"/>
        <path id="Path_7240" data-name="Path 7240" d="M164.728,19.9l-.737-2.69-.729,2.69h-.677l-1.129-3.437h.7l.777,2.75.733-2.75h.7l.729,2.778.8-2.778h.685L165.429,19.9Z" transform="translate(-109.495 9.602)" fill="#182534"/>
        <path id="Path_7241" data-name="Path 7241" d="M165.674,19.6a1.765,1.765,0,0,1-2.426,0,1.909,1.909,0,0,1-.436-1.337,1.909,1.909,0,0,1,.436-1.337,1.765,1.765,0,0,1,2.426,0,1.911,1.911,0,0,1,.44,1.337,1.911,1.911,0,0,1-.44,1.337m-2.17-1.337c0,.85.32,1.277.957,1.277s.957-.427.957-1.277-.316-1.277-.957-1.277-.957.427-.957,1.277" transform="translate(-105.426 9.526)" fill="#182534"/>
        <path id="Path_7242" data-name="Path 7242" d="M164.48,16.976a1.452,1.452,0,0,1,1.025-.515,2.5,2.5,0,0,1,.308.02v.587a3.513,3.513,0,0,0-.368-.024,1.383,1.383,0,0,0-.929.327v2.555h-.677V16.489h.565Z" transform="translate(-102.338 9.583)" fill="#182534"/>
        <path id="Path_7243" data-name="Path 7243" d="M164.472,21.089V16.071h.673v3.078l1.465-1.5h.821l-1.63,1.633,1.738,1.8h-.849l-1.546-1.629v1.629Z" transform="translate(-100.436 8.417)" fill="#182534"/>
        <path id="Path_7244" data-name="Path 7244" d="M157.951,33.738a6.289,6.289,0,0,1-2.3.407,4.238,4.238,0,0,1-3.291-1.221,5.158,5.158,0,0,1-1.113-3.592,5.081,5.081,0,0,1,1.157-3.6,4.307,4.307,0,0,1,3.315-1.241,5.658,5.658,0,0,1,2.094.367v.7a8.307,8.307,0,0,0-2-.3,3.678,3.678,0,0,0-2.783.966,4.126,4.126,0,0,0-.917,2.922V29.5q0,3.88,3.6,3.876a9.19,9.19,0,0,0,2.23-.335Z" transform="translate(-140.161 33.614)" fill="#182534"/>
        <path id="Path_7245" data-name="Path 7245" d="M156.341,32.341a2.913,2.913,0,0,1-2.326-.958,3.929,3.929,0,0,1-.829-2.662,3.918,3.918,0,0,1,.829-2.658,3.333,3.333,0,0,1,4.653,0,3.918,3.918,0,0,1,.829,2.658,3.929,3.929,0,0,1-.829,2.662,2.913,2.913,0,0,1-2.326.958m0-.707q2.354,0,2.35-2.914t-2.35-2.9q-2.354,0-2.35,2.9t2.35,2.914" transform="translate(-134.339 35.475)" fill="#182534"/>
        <path id="Path_7246" data-name="Path 7246" d="M160.057,32.137V27.5a1.949,1.949,0,0,0-.34-1.281,1.348,1.348,0,0,0-1.089-.4,4.7,4.7,0,0,0-2.651.87v5.448H155.2V25.32h.681l.08.786a5.464,5.464,0,0,1,1.4-.73,4.2,4.2,0,0,1,1.425-.259,2.058,2.058,0,0,1,1.518.523,2.079,2.079,0,0,1,.524,1.537v4.962Z" transform="translate(-128.277 35.475)" fill="#182534"/>
        <path id="Path_7247" data-name="Path 7247" d="M160.982,30.349a.837.837,0,0,0-.264-.623,2.57,2.57,0,0,0-.893-.487l-1.237-.463A1.87,1.87,0,0,1,157.134,27a1.684,1.684,0,0,1,.633-1.361,2.512,2.512,0,0,1,1.65-.523,4.842,4.842,0,0,1,.993.108,5.328,5.328,0,0,1,.953.3v.639a6.565,6.565,0,0,0-1.986-.351,1.823,1.823,0,0,0-1.113.287,1.015,1.015,0,0,0-.38.862.926.926,0,0,0,.264.711,3.414,3.414,0,0,0,1.041.551l1.085.407a2.6,2.6,0,0,1,1.109.7,1.529,1.529,0,0,1,.348,1.022,1.76,1.76,0,0,1-.673,1.457,2.875,2.875,0,0,1-1.83.535,4.883,4.883,0,0,1-2.218-.487v-.639a6.718,6.718,0,0,0,2.274.435,2.055,2.055,0,0,0,1.261-.331,1.141,1.141,0,0,0,.436-.97" transform="translate(-122.852 35.475)" fill="#182534"/>
        <path id="Path_7248" data-name="Path 7248" d="M163.334,31.985l-.08-.746a4.456,4.456,0,0,1-2.679.95,2.038,2.038,0,0,1-1.505-.527,2.12,2.12,0,0,1-.521-1.549V25.167h.773v4.622a1.972,1.972,0,0,0,.34,1.293,1.333,1.333,0,0,0,1.073.4,3.8,3.8,0,0,0,1.253-.2,5.315,5.315,0,0,0,1.249-.663V25.167h.777v6.818Z" transform="translate(-118.229 35.627)" fill="#182534"/>
        <path id="Path_7249" data-name="Path 7249" d="M162.293,34.337a2.655,2.655,0,0,1-.693.1,1.115,1.115,0,0,1-.849-.319,1.224,1.224,0,0,1-.308-.886V24.362h.777v8.849a.584.584,0,0,0,.116.419.541.541,0,0,0,.412.124,5.287,5.287,0,0,0,.545-.04Z" transform="translate(-112.54 33.219)" fill="#182534"/>
        <path id="Path_7250" data-name="Path 7250" d="M165.384,33.317a3.619,3.619,0,0,1-1.373.232,1.656,1.656,0,0,1-1.225-.427,1.7,1.7,0,0,1-.42-1.241V27.325h-1.277v-.543l1.305-.12.108-1.992h.641v1.976h2.174v.679h-2.174V31.84a1.074,1.074,0,0,0,.236.786,1.137,1.137,0,0,0,.8.232,5.059,5.059,0,0,0,1.209-.164Z" transform="translate(-110.602 34.144)" fill="#182534"/>
        <path id="Path_7251" data-name="Path 7251" d="M163.072,25.694a.571.571,0,0,1-.428-.164.678.678,0,0,1,0-.866.643.643,0,0,1,.857,0,.679.679,0,0,1,0,.866.565.565,0,0,1-.429.164m-.392,1.465h.777v6.818h-.777Z" transform="translate(-106.4 33.635)" fill="#182534"/>
        <path id="Path_7252" data-name="Path 7252" d="M168.125,32.137V27.5a1.95,1.95,0,0,0-.34-1.281,1.348,1.348,0,0,0-1.089-.4,4.7,4.7,0,0,0-2.651.87v5.448h-.773V25.32h.681l.08.786a5.462,5.462,0,0,1,1.4-.73,4.2,4.2,0,0,1,1.425-.259,1.837,1.837,0,0,1,2.042,2.06v4.962Z" transform="translate(-104.041 35.475)" fill="#182534"/>
        <path id="Path_7253" data-name="Path 7253" d="M170.277,31.135a3.971,3.971,0,0,1-1.113.663,3.133,3.133,0,0,1-1.169.243,2.6,2.6,0,0,1-2.094-.926,3.683,3.683,0,0,1-.789-2.463,3.959,3.959,0,0,1,.781-2.587,2.616,2.616,0,0,1,2.13-.95,3.274,3.274,0,0,1,2.27.91l.08-.707h.681v6.506a3.341,3.341,0,0,1-.817,2.435,3.17,3.17,0,0,1-2.366.834,4.482,4.482,0,0,1-2.214-.515v-.639a5.934,5.934,0,0,0,2.174.447,2.46,2.46,0,0,0,1.858-.623,2.789,2.789,0,0,0,.589-1.968Zm-2.106.2a3.407,3.407,0,0,0,2.106-.866V26.7a4.2,4.2,0,0,0-1.073-.671,2.832,2.832,0,0,0-1.1-.212,1.954,1.954,0,0,0-1.638.7,3.341,3.341,0,0,0-.553,2.088,3.094,3.094,0,0,0,.581,2.028,2.048,2.048,0,0,0,1.678.7" transform="translate(-98.514 35.475)" fill="#182534"/>
        <path id="Path_7254" data-name="Path 7254" d="M152.092,33.7v3.82h-.777V28.129h3.251a2.821,2.821,0,0,1,2.062.758,3.071,3.071,0,0,1,0,4.055,2.821,2.821,0,0,1-2.062.758Zm0-.718h2.446a1.8,1.8,0,0,0,2.014-2.06,1.808,1.808,0,0,0-2.014-2.076h-2.446Z" transform="translate(-139.96 44.488)" fill="#182534"/>
        <path id="Path_7255" data-name="Path 7255" d="M157.674,35.745l-.068-.786a3.853,3.853,0,0,1-2.446.938,2.042,2.042,0,0,1-1.489-.539,1.891,1.891,0,0,1-.553-1.429,1.925,1.925,0,0,1,.681-1.557,2.791,2.791,0,0,1,1.85-.571,6.756,6.756,0,0,1,1.946.311V30.975a1.534,1.534,0,0,0-.4-1.185,1.917,1.917,0,0,0-1.305-.359,7.07,7.07,0,0,0-2.322.431v-.635a5.66,5.66,0,0,1,1.169-.367,6.439,6.439,0,0,1,1.277-.136,2.648,2.648,0,0,1,1.774.5,1.9,1.9,0,0,1,.577,1.517v5Zm-2.406-.555a3.372,3.372,0,0,0,1.113-.212,6.243,6.243,0,0,0,1.213-.587V32.7a6.792,6.792,0,0,0-1.77-.243q-1.9,0-1.9,1.465a1.254,1.254,0,0,0,.34.95,1.4,1.4,0,0,0,1,.323" transform="translate(-134.544 46.268)" fill="#182534"/>
        <path id="Path_7256" data-name="Path 7256" d="M154.952,35.634V28.817h.681l.08.99A3.344,3.344,0,0,1,156.726,29a2.552,2.552,0,0,1,1.121-.24,4.582,4.582,0,0,1,.561.044V29.5c-.236-.02-.452-.028-.641-.028a2.516,2.516,0,0,0-1.109.232,2.883,2.883,0,0,0-.929.742v5.193Z" transform="translate(-129.034 46.379)" fill="#182534"/>
        <path id="Path_7257" data-name="Path 7257" d="M160.281,36.925a3.619,3.619,0,0,1-1.373.232,1.656,1.656,0,0,1-1.225-.427,1.7,1.7,0,0,1-.42-1.241V30.933h-1.277v-.543l1.305-.12.108-1.992h.641v1.976h2.174v.679h-2.174v4.514a1.074,1.074,0,0,0,.236.786,1.136,1.136,0,0,0,.8.232,5.061,5.061,0,0,0,1.209-.164Z" transform="translate(-125.931 44.937)" fill="#182534"/>
        <path id="Path_7258" data-name="Path 7258" d="M162.271,35.745V31.111a1.949,1.949,0,0,0-.34-1.281,1.348,1.348,0,0,0-1.089-.4,4.7,4.7,0,0,0-2.651.87v5.448h-.773V28.928h.681l.08.786a5.462,5.462,0,0,1,1.4-.73,4.2,4.2,0,0,1,1.425-.259,1.837,1.837,0,0,1,2.042,2.06v4.962Z" transform="translate(-121.627 46.268)" fill="#182534"/>
        <path id="Path_7259" data-name="Path 7259" d="M160.047,32.464a3.1,3.1,0,0,0,.624,2.1,2.412,2.412,0,0,0,1.89.679,5.424,5.424,0,0,0,2.242-.475v.639a4.588,4.588,0,0,1-2.294.543,3.1,3.1,0,0,1-2.434-.914,3.971,3.971,0,0,1-.817-2.718,3.893,3.893,0,0,1,.821-2.65,2.891,2.891,0,0,1,2.306-.942,2.484,2.484,0,0,1,1.9.7,2.867,2.867,0,0,1,.657,2.02,5.186,5.186,0,0,1-.08,1.018Zm2.27-3.05q-2.15,0-2.27,2.427h4.132c.008-.128.016-.275.016-.447a2.074,2.074,0,0,0-.476-1.477,1.844,1.844,0,0,0-1.4-.5" transform="translate(-116.099 46.268)" fill="#182534"/>
        <path id="Path_7260" data-name="Path 7260" d="M161.105,35.634V28.817h.681l.08.99A3.343,3.343,0,0,1,162.879,29a2.552,2.552,0,0,1,1.121-.24,4.579,4.579,0,0,1,.561.044V29.5c-.236-.02-.452-.028-.641-.028a2.516,2.516,0,0,0-1.109.232,2.883,2.883,0,0,0-.929.742v5.193Z" transform="translate(-110.551 46.379)" fill="#182534"/>
        <path id="Path_7261" data-name="Path 7261" d="M154.468,26.9l-.4-1.182H152.19l-.38,1.182h-.829l1.722-4.7h.9l1.7,4.7Zm-2.082-1.784h1.5l-.753-2.167Z" transform="translate(-140.963 26.754)" fill="#182534"/>
        <path id="Path_7262" data-name="Path 7262" d="M154.716,27.134l-.08-.331a1.569,1.569,0,0,1-1.069.407,1.269,1.269,0,0,1-1.041-.483,2.022,2.022,0,0,1-.392-1.305,2.449,2.449,0,0,1,.176-.958,1.5,1.5,0,0,1,.508-.647,1.35,1.35,0,0,1,.789-.232,1.557,1.557,0,0,1,.993.351V22.121h.8v5.013Zm-.9-.555a1.345,1.345,0,0,0,.781-.259V24.456a1.313,1.313,0,0,0-.769-.243.776.776,0,0,0-.669.291,1.5,1.5,0,0,0-.212.882c0,.794.288,1.193.869,1.193" transform="translate(-137.503 26.515)" fill="#182534"/>
        <path id="Path_7263" data-name="Path 7263" d="M154.422,25.962l-1.337-3.449h.8l.933,2.73.909-2.73h.8L155.2,25.962Z" transform="translate(-134.644 27.689)" fill="#182534"/>
        <path id="Path_7264" data-name="Path 7264" d="M156.254,26.039l-.06-.331a1.887,1.887,0,0,1-.528.319,1.56,1.56,0,0,1-.573.116,1.057,1.057,0,0,1-.773-.287,1.062,1.062,0,0,1,.068-1.537,1.487,1.487,0,0,1,.977-.3,3.459,3.459,0,0,1,.789.1v-.4a.624.624,0,0,0-.152-.479.773.773,0,0,0-.525-.136,4.013,4.013,0,0,0-1.213.224v-.563a2.6,2.6,0,0,1,.625-.2,3.928,3.928,0,0,1,.745-.076,1.544,1.544,0,0,1,1,.271,1.06,1.06,0,0,1,.32.85v2.431Zm-.917-.467a1.1,1.1,0,0,0,.4-.084,1.751,1.751,0,0,0,.412-.239v-.655a3.19,3.19,0,0,0-.625-.072c-.46,0-.689.184-.689.547a.5.5,0,0,0,.132.371.491.491,0,0,0,.364.132" transform="translate(-131.822 27.61)" fill="#182534"/>
        <path id="Path_7265" data-name="Path 7265" d="M157.274,26.039V23.756a.715.715,0,0,0-.136-.487.567.567,0,0,0-.436-.152,1.708,1.708,0,0,0-.917.3v2.622h-.8V22.591h.665l.084.379a2.165,2.165,0,0,1,1.329-.483.911.911,0,0,1,1.013,1.018v2.535Z" transform="translate(-128.938 27.61)" fill="#182534"/>
        <path id="Path_7266" data-name="Path 7266" d="M158.563,25.884a2.05,2.05,0,0,1-.957.212,1.587,1.587,0,0,1-1.225-.463,1.856,1.856,0,0,1-.428-1.309,1.925,1.925,0,0,1,.44-1.345,1.593,1.593,0,0,1,1.237-.483,2,2,0,0,1,.9.2v.563a2.84,2.84,0,0,0-.773-.128.962.962,0,0,0-.753.271,1.269,1.269,0,0,0-.24.85v.088a1.238,1.238,0,0,0,.24.842.962.962,0,0,0,.753.271,2.652,2.652,0,0,0,.8-.136Z" transform="translate(-126.03 27.634)" fill="#182534"/>
        <path id="Path_7267" data-name="Path 7267" d="M157.533,24.508a1.037,1.037,0,0,0,.276.754,1.13,1.13,0,0,0,.8.239,3.28,3.28,0,0,0,1.049-.188v.563a2.1,2.1,0,0,1-.549.192,2.93,2.93,0,0,1-.657.072,1.719,1.719,0,0,1-1.3-.459,1.878,1.878,0,0,1-.44-1.345,1.985,1.985,0,0,1,.432-1.361,1.525,1.525,0,0,1,1.205-.487,1.357,1.357,0,0,1,1.021.363,1.388,1.388,0,0,1,.36,1.026,3.014,3.014,0,0,1-.06.631Zm.817-1.437a.729.729,0,0,0-.569.243,1.087,1.087,0,0,0-.248.659h1.485v-.056a1.021,1.021,0,0,0-.168-.631.6.6,0,0,0-.5-.216" transform="translate(-123.735 27.613)" fill="#182534"/>
        <path id="Path_7268" data-name="Path 7268" d="M160.2,27.134l-.08-.331a1.569,1.569,0,0,1-1.069.407,1.269,1.269,0,0,1-1.041-.483,2.023,2.023,0,0,1-.392-1.305,2.451,2.451,0,0,1,.176-.958,1.505,1.505,0,0,1,.509-.647,1.35,1.35,0,0,1,.789-.232,1.557,1.557,0,0,1,.993.351V22.121h.8v5.013Zm-.9-.555a1.345,1.345,0,0,0,.781-.259V24.456a1.313,1.313,0,0,0-.769-.243.776.776,0,0,0-.669.291,1.5,1.5,0,0,0-.212.882c0,.794.288,1.193.869,1.193" transform="translate(-121.017 26.515)" fill="#182534"/>
      </g>
    </g>
  </g>
</svg>
