<svg xmlns="http://www.w3.org/2000/svg" width="60" height="60" viewBox="0 0 60 60">
  <g id="service-icon1" transform="translate(-405 -1257)">
    <g id="Group_7253" data-name="Group 7253" transform="translate(138 -140)">
      <circle id="Ellipse_30" data-name="Ellipse 30" cx="30" cy="30" r="30" transform="translate(267 1397)" fill="#f48120"/>
    </g>
    <g id="responsive_5264343" transform="translate(386.038 1741)">
      <path id="Path_9297" data-name="Path 9297" d="M38.961-471.788a2.1,2.1,0,0,0-.627.472c-.44.578-.448.635-.448,5.024v4.063h-.635a3.59,3.59,0,0,0-2.638,1.042,4.2,4.2,0,0,0-1.018,1.482c-.138.342-.147.945-.187,8.387l-.041,8.012-.35.065a2.617,2.617,0,0,0-1.93,1.71,8.833,8.833,0,0,0,0,2.964,2.68,2.68,0,0,0,1.181,1.449l.448.252H65.855l.448-.252a2.68,2.68,0,0,0,1.181-1.449,8.833,8.833,0,0,0,0-2.964,2.617,2.617,0,0,0-1.93-1.71l-.35-.065-.041-8.012c-.041-7.442-.049-8.045-.187-8.387A4.114,4.114,0,0,0,62.4-462.1c-.391-.114-1.181-.13-6.172-.13H50.507v-4.063c0-4.4,0-4.421-.448-5.016a2.378,2.378,0,0,0-.635-.489l-.415-.2H39.384Zm10.243.814a1.37,1.37,0,0,1,.489,1.254v.57H38.7v-.57a1.37,1.37,0,0,1,.489-1.254l.261-.212h9.494Zm.489,9.355v6.717H38.7v-13.435H49.692Zm-11.806,4.454c.008,4.568.008,4.584.432,5.138a2.338,2.338,0,0,0,.635.5l.44.244H49l.423-.22a2,2,0,0,0,.969-1.1,34.284,34.284,0,0,0,.114-4.568v-4.258l5.846.024,5.838.024.513.277a3.331,3.331,0,0,1,1.376,1.409l.228.432.024,6.856.016,6.864H34.222l.016-6.864.024-6.856.228-.448a3.225,3.225,0,0,1,1.319-1.36,2.388,2.388,0,0,1,1.449-.342l.627-.008Zm11.806,3.615a1.389,1.389,0,0,1-.594,1.3c-.252.147-.48.155-4.9.155s-4.649-.008-4.9-.155a1.389,1.389,0,0,1-.594-1.3v-.537H49.692Zm14.656,9.518v.692H58.877a48.44,48.44,0,0,0-5.683.106c-.187.1-.2.147-.228.814l-.024.708H45.629l-.024-.708c-.024-.668-.041-.717-.228-.814a48.337,48.337,0,0,0-5.675-.106h-5.48v-1.384H64.348Zm-19.541,2.223a1.823,1.823,0,0,0,.1.814c.138.138,8.623.138,8.761,0a1.845,1.845,0,0,0,.1-.822v-.717l5.887.024,5.895.024.391.244a1.549,1.549,0,0,1,.627.684c.22.407.228.489.228,1.506,0,.985-.016,1.107-.2,1.49a1.769,1.769,0,0,1-.546.643l-.334.236-16.341.024-16.341.016-.358-.187a1.656,1.656,0,0,1-.6-.586c-.236-.383-.244-.432-.269-1.523-.024-1.05-.016-1.148.171-1.563a1.629,1.629,0,0,1,1.181-.944c.163-.033,2.858-.065,5.985-.073l5.675-.016Z" fill="#fafafa" stroke="#fff" stroke-width="0.5"/>
      <path id="Path_9298" data-name="Path 9298" d="M139.762-401.9a1.936,1.936,0,0,0-.1.847c0,.7-.008.749-.179.79-.138.041-.293-.057-.684-.432-.326-.318-.578-.489-.7-.489a3.4,3.4,0,0,0-1.286,1.254,2.305,2.305,0,0,0,.521.684c.456.48.5.57.432.725-.073.171-.13.187-.83.187a1.914,1.914,0,0,0-.839.1,2.075,2.075,0,0,0-.1.888c0,.627.024.806.13.9a2.363,2.363,0,0,0,.879.155c.953.049.985.138.3.855a2.115,2.115,0,0,0-.5.668,3.309,3.309,0,0,0,1.3,1.246c.13,0,.358-.155.692-.489.391-.383.529-.472.676-.44.171.049.179.09.179.806,0,.961.016.977,1.018.977s1.018-.016,1.018-.977c0-.716.008-.757.187-.806.138-.033.277.057.668.44.651.643.749.643,1.449-.065a2.349,2.349,0,0,0,.546-.7,2.119,2.119,0,0,0-.5-.66c-.684-.717-.651-.806.3-.855a2.363,2.363,0,0,0,.879-.155c.106-.09.13-.269.13-.9a2.075,2.075,0,0,0-.1-.888,1.914,1.914,0,0,0-.839-.1c-.7,0-.757-.016-.83-.187-.073-.155-.024-.244.432-.725a2.2,2.2,0,0,0,.521-.692,3.4,3.4,0,0,0-1.295-1.246,1.633,1.633,0,0,0-.692.489c-.391.375-.546.472-.684.432-.171-.041-.179-.09-.179-.79a1.936,1.936,0,0,0-.1-.847,2.195,2.195,0,0,0-.92-.1A2.195,2.195,0,0,0,139.762-401.9Zm1.124,1.36c0,.635.1.9.334.9a1.735,1.735,0,0,1,.415.163c.521.252.676.212,1.2-.285.44-.415.472-.432.6-.309s.106.171-.366.651c-.5.513-.5.513-.4.774.057.147.163.423.236.619.147.432.309.5,1.083.5.546,0,.562.008.562.2s-.008.2-.684.2c-.708,0-.944.1-.944.375a1.579,1.579,0,0,1-.163.44,1.579,1.579,0,0,0-.163.44,2.224,2.224,0,0,0,.464.619c.423.464.448.5.326.635s-.171.1-.611-.334c-.334-.334-.529-.464-.684-.464a.407.407,0,0,0-.269.073,1.322,1.322,0,0,1-.44.212.946.946,0,0,0-.448.252,4.386,4.386,0,0,0-.049.774c0,.635,0,.643-.2.643s-.2-.008-.2-.643a4.384,4.384,0,0,0-.049-.774.946.946,0,0,0-.448-.252,1.322,1.322,0,0,1-.44-.212.407.407,0,0,0-.269-.073c-.155,0-.35.13-.684.464-.44.432-.48.456-.611.334s-.1-.171.326-.635a2.224,2.224,0,0,0,.464-.619,1.58,1.58,0,0,0-.163-.44,1.579,1.579,0,0,1-.163-.44c0-.277-.236-.375-.945-.375-.676,0-.684,0-.684-.2s.016-.2.562-.2c.774,0,.936-.073,1.083-.5.073-.2.179-.472.236-.619.106-.261.106-.261-.4-.774-.472-.48-.5-.521-.366-.651s.163-.106.6.309c.521.5.676.537,1.2.285a1.735,1.735,0,0,1,.415-.163c.236,0,.334-.269.334-.9s0-.643.2-.643S140.885-401.178,140.885-400.543Z" transform="translate(-96.485 -64.3)" fill="#fafafa" stroke="#fff" stroke-width="0.5"/>
      <path id="Path_9299" data-name="Path 9299" d="M175.355-364.821a2.234,2.234,0,0,0-.6.5c-.236.293-.252.366-.252.953s.016.66.252.953a1.837,1.837,0,0,0,1.295.676,1.837,1.837,0,0,0,1.295-.676c.236-.293.252-.366.252-.953s-.016-.659-.252-.953a1.838,1.838,0,0,0-1.295-.676A1.9,1.9,0,0,0,175.355-364.821Zm1.286.92a.824.824,0,0,1-.594,1.343.832.832,0,0,1-.643-1.286A.811.811,0,0,1,176.641-363.9Z" transform="translate(-131.851 -98.288)" fill="#fafafa" stroke="#fff" stroke-width="0.5"/>
      <path id="Path_9300" data-name="Path 9300" d="M357.656-318.983c-.016.016-.6.1-1.295.171-1.286.138-1.547.228-1.547.529a.494.494,0,0,0,.163.285c.163.147.334.147,1.425-.008.326-.049.326-.049-1.034,1.327-1.091,1.091-1.368,1.417-1.368,1.588a.407.407,0,0,0,.415.391,15.133,15.133,0,0,0,1.474-1.36c1.531-1.523,1.441-1.5,1.295-.326-.041.35-.033.513.049.635a.4.4,0,0,0,.594.033,8.525,8.525,0,0,0,.261-1.563l.163-1.441-.179-.147C357.9-319.007,357.729-319.056,357.656-318.983Z" transform="translate(-296.735 -140.527)" fill="#fafafa" stroke="#fff" stroke-width="0.5"/>
      <path id="Path_9301" data-name="Path 9301" d="M292.552-253.64l-1.368,1.368.057-.79c.057-.871,0-1.042-.342-1.042-.318,0-.407.285-.562,1.734-.2,1.84-.3,1.734,1.506,1.523.741-.09,1.392-.163,1.441-.163s.163-.09.236-.2c.122-.187.122-.22-.008-.415s-.155-.212-.676-.163c-.3.033-.676.081-.831.106-.269.041-.2-.041,1.083-1.335,1.083-1.091,1.36-1.417,1.36-1.588a.4.4,0,0,0-.423-.391A14.137,14.137,0,0,0,292.552-253.64Z" transform="translate(-238.162 -199.331)" fill="#fafafa" stroke="#fff" stroke-width="0.5"/>
    </g>
  </g>
</svg>
