<svg width="76" height="45" viewBox="0 0 76 45" fill="none" xmlns="http://www.w3.org/2000/svg">
<path fill-rule="evenodd" clip-rule="evenodd" d="M1.61919 41.7677H8.12048C7.52555 41.6144 7.07782 41.0685 7.07782 40.4245V1.38612C7.07782 0.625596 7.70341 0 8.46394 0H66.5278C67.2945 0 67.9139 0.625596 67.9139 1.38612V40.4245C67.9139 41.0685 67.4723 41.6082 66.8713 41.7616H73.7406C74.636 41.7616 75.3598 42.4914 75.3598 43.3808C75.3598 44.2762 74.6299 45 73.7406 45H1.61919C0.729862 45.0061 0 44.2762 0 43.3808C0 42.4976 0.729862 41.7677 1.61919 41.7677ZM52.1575 23.098C52.0164 22.9998 51.8631 22.963 51.7037 22.9937C51.5381 23.0244 51.4093 23.1102 51.3111 23.2513L50.7775 24.0057C50.5813 23.926 50.385 23.8585 50.1765 23.8033C49.9679 23.7481 49.7594 23.7052 49.5509 23.6745L49.3791 22.6809C49.3485 22.5092 49.2687 22.3804 49.1338 22.2884C48.9989 22.1903 48.8455 22.1596 48.6799 22.1903L47.4349 22.4049C47.2754 22.4356 47.1466 22.5153 47.0485 22.6502C46.9503 22.7852 46.9135 22.9385 46.9442 23.1041L47.1037 24.0118C46.9074 24.0977 46.7112 24.1958 46.5333 24.3062C46.3493 24.4166 46.1776 24.5332 46.0242 24.6558L45.184 24.0732C45.049 23.975 44.9018 23.9382 44.7362 23.9628C44.5768 23.9934 44.4418 24.0793 44.3437 24.2142L43.6261 25.2385C43.528 25.3796 43.4912 25.5329 43.5218 25.6924C43.5525 25.858 43.6322 25.9868 43.7733 26.0849L44.5277 26.6185C44.448 26.8148 44.3805 27.011 44.3253 27.2195C44.2701 27.4281 44.2272 27.6366 44.2026 27.8451L43.209 28.0169C43.0434 28.0475 42.9085 28.1273 42.8165 28.2622C42.7184 28.3971 42.6877 28.5505 42.7184 28.7161L42.933 29.9795C42.9637 30.139 43.0434 30.2678 43.1784 30.3659C43.3133 30.4641 43.4666 30.4947 43.6322 30.4702L44.54 30.3107C44.6258 30.507 44.724 30.7033 44.8282 30.8811C44.9386 31.0651 45.0552 31.2369 45.184 31.4025L44.6013 32.2304C44.5032 32.3654 44.4664 32.5126 44.497 32.6782C44.5277 32.8376 44.6136 32.9726 44.7485 33.0707L45.7728 33.8006C45.9138 33.8926 46.061 33.9232 46.2266 33.8926C46.3861 33.8619 46.521 33.7822 46.6192 33.6534L47.1527 32.8867C47.349 32.9664 47.5453 33.0339 47.7538 33.0891C47.9623 33.1443 48.1709 33.1872 48.3794 33.2179L48.5511 34.2115C48.5818 34.3832 48.6615 34.512 48.7965 34.604C48.9314 34.7022 49.0847 34.7328 49.2503 34.7022L50.4954 34.4814C50.6549 34.4568 50.7837 34.371 50.8818 34.236C50.9799 34.1011 51.0167 33.9478 50.9861 33.7822L50.8266 32.8744C51.029 32.7886 51.2191 32.6904 51.397 32.5862C51.581 32.4758 51.7527 32.3592 51.9183 32.2304L52.7463 32.8131C52.8812 32.9112 53.0284 32.948 53.194 32.9174C53.3658 32.8867 53.4946 32.8008 53.5866 32.6659L54.3164 31.6417C54.4084 31.5006 54.4391 31.3534 54.4084 31.1878C54.3778 31.0283 54.298 30.8934 54.1692 30.7953L53.4026 30.2617C53.4823 30.0654 53.5498 29.8691 53.605 29.6606C53.6602 29.4582 53.697 29.2435 53.7338 29.035L54.7274 28.8633C54.893 28.8326 55.0279 28.7529 55.1199 28.6179C55.2119 28.483 55.2487 28.3297 55.218 28.1641L55.0034 26.919C54.9727 26.7596 54.893 26.6308 54.758 26.5326C54.6231 26.4345 54.4698 26.3977 54.3042 26.4284L53.3964 26.5878C53.3106 26.3977 53.2186 26.2076 53.1082 26.0236C52.9978 25.8396 52.8812 25.6617 52.7524 25.5022L53.3351 24.662C53.4332 24.527 53.47 24.3798 53.4394 24.2142C53.4087 24.0548 53.329 23.9198 53.1879 23.8217L52.1575 23.098ZM48.545 26.0297C48.8762 25.9745 49.2013 25.9806 49.5202 26.0542C49.8391 26.134 50.1213 26.2566 50.3789 26.4345C50.6303 26.6124 50.8511 26.8393 51.029 27.1153C51.2069 27.3913 51.3234 27.6918 51.3786 28.023C51.4338 28.3542 51.4277 28.6793 51.3541 28.9982C51.2805 29.3171 51.1517 29.5993 50.9738 29.8569C50.7959 30.1145 50.569 30.3291 50.293 30.507C50.017 30.6849 49.7165 30.8014 49.3853 30.8566C49.0541 30.9118 48.729 30.9057 48.4101 30.8321C48.0911 30.7523 47.8029 30.6297 47.5514 30.4518C47.2938 30.2739 47.0791 30.047 46.9013 29.771C46.7295 29.5011 46.613 29.1945 46.5517 28.8633C46.4965 28.5321 46.5026 28.207 46.5762 27.8881C46.6498 27.5691 46.7786 27.287 46.9565 27.0294C47.1343 26.778 47.3613 26.5572 47.6373 26.3793C47.9133 26.2014 48.2138 26.0849 48.545 26.0297ZM38.9893 11.2669C38.9403 11.2178 38.8912 11.181 38.8483 11.1626C38.8053 11.1442 38.7563 11.1381 38.6888 11.1381C38.6213 11.1381 38.5723 11.1442 38.5293 11.1626C38.4864 11.181 38.4373 11.2117 38.3944 11.2607L38.3883 11.2669L37.1984 12.4567C36.9654 12.6898 36.5974 12.7143 36.3336 12.5364C36.1987 12.4506 36.0576 12.3647 35.9043 12.285C35.7387 12.193 35.5792 12.1133 35.4259 12.0458C35.2664 11.9722 35.1008 11.9047 34.9291 11.8373C34.7819 11.7821 34.6102 11.7207 34.42 11.6533C34.1379 11.5613 33.9539 11.2914 33.9539 11.0093V9.18154C33.9539 9.11407 33.9416 9.05887 33.9232 9.00981C33.9048 8.96074 33.8742 8.92394 33.8312 8.88101C33.7883 8.83807 33.7454 8.80741 33.7024 8.78901C33.6534 8.77061 33.5982 8.75834 33.5307 8.75834H31.2369C31.1755 8.75834 31.1265 8.76447 31.0835 8.78287C31.0345 8.80127 30.9854 8.83194 30.9363 8.88714C30.8934 8.93007 30.8627 8.97301 30.8443 9.01594C30.8259 9.05887 30.8137 9.11407 30.8137 9.18154V10.8559C30.8137 11.1933 30.5745 11.4693 30.2555 11.5245C30.0777 11.5674 29.9121 11.6103 29.7649 11.6533C29.5993 11.7023 29.4337 11.7637 29.2681 11.825C29.1086 11.8863 28.9491 11.9538 28.7835 12.0335C28.6179 12.1133 28.4646 12.1869 28.3235 12.2666C28.0537 12.4138 27.7286 12.3586 27.5262 12.1562L26.2076 10.8559C26.2014 10.8498 26.1953 10.8437 26.1892 10.8437C26.1462 10.8007 26.1033 10.7701 26.0665 10.7517C26.0297 10.7333 25.9806 10.7271 25.9193 10.7271C25.858 10.7271 25.8089 10.7333 25.766 10.7517C25.7169 10.7762 25.6678 10.8069 25.6188 10.8559L24.018 12.4628C23.9689 12.518 23.9321 12.561 23.9137 12.6039C23.8953 12.6468 23.8892 12.6959 23.8892 12.7634C23.8892 12.8308 23.8953 12.8799 23.9137 12.9228C23.9321 12.9719 23.9689 13.0148 24.0118 13.0639L24.018 13.07L25.2078 14.2599C25.4409 14.493 25.4654 14.861 25.2876 15.1247C25.2017 15.2596 25.1158 15.4007 25.0361 15.554C24.9441 15.7196 24.8644 15.8791 24.7969 16.0324C24.7233 16.198 24.6558 16.3636 24.5884 16.5292C24.5332 16.6764 24.4718 16.8482 24.4044 17.0383C24.3124 17.3265 24.0425 17.5044 23.7604 17.5044H21.9326C21.8652 17.5044 21.81 17.5105 21.7609 17.5351C21.718 17.5535 21.6689 17.5841 21.6321 17.6271C21.5892 17.6639 21.5647 17.7129 21.5463 17.7559C21.5279 17.8049 21.5156 17.8601 21.5156 17.9276V20.2215C21.5156 20.2828 21.5279 20.3319 21.5401 20.3748C21.5585 20.4239 21.5953 20.4729 21.6444 20.522C21.6812 20.5649 21.7241 20.5895 21.7671 20.6079C21.81 20.6263 21.8652 20.6385 21.9326 20.6385H23.607C23.9382 20.6385 24.2204 20.8839 24.2756 21.1967C24.3185 21.3745 24.3614 21.5401 24.4044 21.6873C24.4596 21.8591 24.5148 22.0247 24.5761 22.1903C24.6374 22.3497 24.7049 22.5153 24.7846 22.687C24.8644 22.8649 24.9441 23.0305 25.0177 23.1716C25.1588 23.4414 25.0974 23.7604 24.895 23.9628L23.5948 25.263L23.5825 25.2753C23.5396 25.3182 23.5089 25.3612 23.4905 25.4041C23.4721 25.4409 23.466 25.49 23.466 25.5513C23.466 25.6126 23.4782 25.6617 23.4966 25.7046C23.515 25.7598 23.5518 25.8089 23.6009 25.858L25.1894 27.4649C25.2385 27.5078 25.2814 27.5385 25.3305 27.5569C25.3796 27.5753 25.4409 27.5875 25.5022 27.5875C25.5697 27.5875 25.631 27.5753 25.6801 27.5569C25.7292 27.5385 25.7721 27.5078 25.815 27.471L26.9865 26.2505C27.2195 26.0113 27.5875 25.9806 27.8574 26.1646C27.9923 26.2505 28.1334 26.3364 28.2867 26.4161C28.4523 26.5081 28.6118 26.5878 28.7651 26.6553C28.9246 26.7289 29.0963 26.7964 29.2619 26.8638C29.4091 26.919 29.5809 26.9803 29.7771 27.0478C30.0593 27.1398 30.2433 27.4097 30.2433 27.6918V29.5195C30.2433 29.587 30.2555 29.6422 30.2739 29.6913C30.2923 29.7403 30.323 29.7833 30.3659 29.8201C30.4457 29.8998 30.5438 29.9427 30.6665 29.9427H32.9603C33.0216 29.9427 33.0707 29.9305 33.1136 29.9182C33.1627 29.8998 33.2118 29.863 33.2608 29.8139C33.3038 29.771 33.3283 29.7281 33.3467 29.6851C33.3651 29.6422 33.3774 29.587 33.3774 29.5195V27.8451C33.3774 27.5078 33.6166 27.2318 33.9355 27.1766C34.1134 27.1337 34.279 27.0907 34.4262 27.0478C34.5918 26.9987 34.7574 26.9374 34.923 26.8761C35.0824 26.8148 35.248 26.7473 35.4198 26.6676C35.5976 26.5878 35.7571 26.5081 35.9043 26.4345C36.1742 26.2934 36.4931 26.3548 36.6955 26.5572L37.9896 27.8574L38.0019 27.8697C38.0448 27.9126 38.0877 27.9494 38.1245 27.9617C38.1613 27.9801 38.2104 27.9862 38.2779 27.9862C38.3392 27.9862 38.3944 27.9739 38.4373 27.9617C38.4803 27.9433 38.5232 27.9126 38.56 27.8697C38.5661 27.8635 38.5784 27.8513 38.5845 27.8451L40.1853 26.2628C40.2283 26.2137 40.2589 26.1708 40.2773 26.1217C40.2957 26.0726 40.308 26.0174 40.308 25.95C40.308 25.8825 40.2957 25.8273 40.2773 25.7721C40.2589 25.723 40.2283 25.6801 40.1915 25.6372L38.9955 24.4596C38.7563 24.2265 38.7256 23.8585 38.9096 23.5948C38.9955 23.4598 39.0813 23.3188 39.1611 23.1654C39.2469 22.9998 39.3267 22.8404 39.4003 22.687C39.4739 22.5276 39.5413 22.362 39.6088 22.1903C39.664 22.0431 39.7253 21.8713 39.7867 21.6812C39.8787 21.3929 40.1485 21.2151 40.4307 21.2151H42.2584C42.3258 21.2151 42.381 21.2089 42.4301 21.1844C42.4792 21.166 42.5221 21.1353 42.5589 21.0985C42.6386 21.0188 42.6816 20.9207 42.6816 20.798V18.5041C42.6816 18.4428 42.6754 18.3937 42.657 18.3508C42.6386 18.3017 42.6018 18.2527 42.5528 18.2036C42.5098 18.1607 42.4669 18.1361 42.424 18.1177C42.3749 18.0993 42.3197 18.0871 42.2584 18.0871H40.584C40.2467 18.0871 39.9645 17.8417 39.9155 17.5167C39.8787 17.3633 39.8357 17.21 39.7867 17.0567C39.7376 16.8972 39.6824 16.7316 39.6088 16.5476C39.6027 16.5354 39.6027 16.5231 39.5965 16.5108C39.5352 16.3452 39.4677 16.1919 39.4003 16.0508C39.3267 15.8914 39.2531 15.738 39.1733 15.5908C39.0261 15.321 39.0813 14.9959 39.2837 14.7935L40.584 13.4748C40.5901 13.4687 40.5963 13.4626 40.6024 13.4626C40.6453 13.4196 40.676 13.3767 40.6944 13.3399C40.7128 13.3031 40.7189 13.254 40.7189 13.1927C40.7189 13.1314 40.7128 13.0823 40.6944 13.0394C40.6699 12.9903 40.6392 12.9412 40.5901 12.8922L38.9893 11.2669ZM39.3696 9.9114C39.5843 10.0034 39.7805 10.1322 39.9523 10.3039L41.5592 11.9047L41.5653 11.9109C41.737 12.0826 41.8658 12.2727 41.9517 12.4812C42.0437 12.6959 42.0928 12.9228 42.0928 13.1682C42.0928 13.4135 42.0437 13.6404 41.9517 13.8551C41.8597 14.0698 41.7248 14.2538 41.5531 14.4194L40.6085 15.3762C40.6208 15.4068 40.6392 15.4375 40.6515 15.4682C40.7312 15.6522 40.8109 15.83 40.8784 16.014C40.8845 16.0263 40.8845 16.0324 40.8907 16.0447C40.9643 16.2287 41.0317 16.425 41.0931 16.6335L41.1115 16.7071H42.2645C42.5098 16.7071 42.7368 16.75 42.9514 16.842C43.16 16.934 43.3501 17.0628 43.5218 17.2284L43.5341 17.2407C43.6997 17.4124 43.8224 17.6025 43.9144 17.8111C44.0064 18.0257 44.0493 18.2465 44.0493 18.4796V20.7735C44.0493 21.2703 43.8776 21.6873 43.528 22.0369C43.3562 22.2086 43.16 22.3436 42.9453 22.4294C42.7306 22.5153 42.5098 22.5582 42.2645 22.5582H40.9152C40.9029 22.595 40.8907 22.6318 40.8723 22.6686C40.7987 22.8588 40.7189 23.0489 40.6269 23.239C40.5349 23.4414 40.4429 23.6254 40.3509 23.7972C40.3387 23.8156 40.3264 23.8401 40.3203 23.8585L41.136 24.6681C41.1483 24.6742 41.1544 24.6865 41.1667 24.6926C41.3323 24.8644 41.4549 25.0606 41.5408 25.2692C41.6267 25.4838 41.6696 25.7046 41.6696 25.9377C41.6696 26.1708 41.6267 26.3916 41.5408 26.6062C41.4611 26.8148 41.3384 27.011 41.1728 27.1827C41.1667 27.1889 41.1605 27.195 41.1544 27.2011L39.5413 28.7958C39.3757 28.9737 39.1856 29.1025 38.9709 29.1945C38.7563 29.2865 38.5232 29.3294 38.2779 29.3294C38.0325 29.3294 37.8056 29.2803 37.5848 29.1883C37.3701 29.0963 37.18 28.9614 37.0144 28.7835L36.0699 27.839C36.0331 27.8574 36.0024 27.8697 35.9718 27.8819C35.7939 27.9617 35.6099 28.0414 35.4014 28.115C35.2112 28.1886 35.015 28.2561 34.8064 28.3235C34.7758 28.3297 34.7512 28.3419 34.7206 28.3481V29.5011C34.7206 29.7403 34.6776 29.9734 34.5856 30.1881C34.4998 30.4027 34.371 30.5867 34.1992 30.7585L34.187 30.7707C34.0152 30.9363 33.8251 31.059 33.6166 31.151C33.4019 31.2369 33.1811 31.2859 32.948 31.2859H30.6542C30.1574 31.2859 29.7403 31.1142 29.3907 30.7646C29.219 30.5929 29.0841 30.3966 28.9982 30.1819C28.9123 29.9673 28.8694 29.7403 28.8694 29.5011V28.1518C28.8326 28.1395 28.7958 28.1273 28.759 28.1089C28.5689 28.0353 28.3787 27.9555 28.1886 27.8635C27.9923 27.7715 27.8022 27.6795 27.6305 27.5875C27.6121 27.5753 27.5875 27.5691 27.5691 27.5569L26.7657 28.3787C26.7596 28.3849 26.7473 28.3971 26.7412 28.4033C26.5694 28.5689 26.3732 28.6915 26.1646 28.7774C25.95 28.8633 25.7292 28.9001 25.49 28.9001C25.2569 28.9001 25.0361 28.8571 24.8214 28.7774C24.6068 28.6977 24.4166 28.575 24.2449 28.4094C24.2388 28.4033 24.2326 28.3971 24.2265 28.3849L22.6196 26.7596C22.4478 26.5878 22.319 26.3977 22.2332 26.1892C22.1412 25.9745 22.0921 25.7476 22.0921 25.5022C22.0921 25.2569 22.1412 25.03 22.2332 24.8153C22.3252 24.6006 22.4601 24.4166 22.6318 24.251L23.5764 23.3065C23.558 23.2758 23.5457 23.239 23.5273 23.2084C23.4476 23.0305 23.3678 22.8465 23.2942 22.638C23.2206 22.4417 23.147 22.2454 23.0857 22.043L23.0612 21.9572H21.9081C21.6628 21.9572 21.4359 21.9143 21.2212 21.8223C21.0127 21.7303 20.8225 21.6015 20.6508 21.4359L20.6385 21.4236C20.4729 21.2519 20.3503 21.0617 20.2583 20.8532C20.1724 20.6385 20.1233 20.4177 20.1233 20.1847V17.8908C20.1233 17.6516 20.1663 17.4247 20.2521 17.21C20.338 16.9954 20.4668 16.8052 20.6447 16.6335C20.8164 16.4618 21.0127 16.333 21.2212 16.241C21.4359 16.1551 21.6628 16.1122 21.902 16.1122H23.2513C23.2636 16.0754 23.2758 16.0447 23.2942 16.0079C23.3678 15.8178 23.4476 15.6276 23.5396 15.4375C23.6316 15.2351 23.7236 15.0511 23.8156 14.8794C23.8278 14.861 23.8401 14.8364 23.8524 14.8119L23.0366 13.9962C22.8649 13.8244 22.7361 13.6343 22.6441 13.4196C22.5521 13.1988 22.503 12.9719 22.503 12.7327C22.503 12.4935 22.5521 12.2666 22.6441 12.0519C22.7361 11.8373 22.8649 11.641 23.0366 11.4754L24.6374 9.86847L24.6436 9.86233C24.8153 9.6906 25.0054 9.5618 25.214 9.47594C25.4286 9.38394 25.6617 9.33487 25.9009 9.33487C26.1462 9.33487 26.3732 9.38394 26.594 9.47594C26.8025 9.56793 26.9926 9.70287 27.1582 9.8746L28.115 10.8191C28.1457 10.8069 28.1702 10.7946 28.2009 10.7762C28.3787 10.6965 28.5689 10.6167 28.7651 10.537C28.9553 10.4634 29.1515 10.3959 29.3601 10.3346C29.3846 10.3285 29.4153 10.3162 29.4398 10.3101V9.157C29.4398 8.91167 29.4827 8.68474 29.5747 8.47008C29.6606 8.25541 29.7894 8.07141 29.9611 7.89968L29.9734 7.88741C30.1451 7.72181 30.3353 7.59302 30.5438 7.50715C30.7585 7.41515 30.9854 7.37222 31.2123 7.37222H33.5062C33.7454 7.37222 33.9723 7.41515 34.187 7.50102C34.4016 7.59301 34.5979 7.72181 34.7696 7.88741C34.9414 8.05914 35.0702 8.25541 35.1622 8.46394C35.248 8.67861 35.291 8.90554 35.291 9.14474V10.4941C35.3278 10.5063 35.3584 10.5186 35.3952 10.537C35.5854 10.6106 35.7755 10.6903 35.9718 10.7762C36.168 10.8682 36.3582 10.9602 36.5299 11.0522L36.5974 11.089L37.4131 10.2733C37.5848 10.1015 37.7749 9.97273 37.9896 9.88073C38.2104 9.78873 38.4373 9.73967 38.6765 9.73967C38.9219 9.77647 39.1549 9.8194 39.3696 9.9114ZM32.0894 14.1802C32.4451 14.1802 32.7824 14.217 33.1198 14.2783C33.451 14.3458 33.776 14.4439 34.1011 14.585H34.1072C34.4139 14.7199 34.7083 14.8794 34.9843 15.0634C35.2603 15.2474 35.5118 15.4559 35.7448 15.689C35.9779 15.922 36.1864 16.1796 36.3704 16.4556C36.5544 16.7316 36.7139 17.026 36.8488 17.3327C36.8549 17.3511 36.8672 17.3695 36.8672 17.3879C36.996 17.6945 37.088 18.0073 37.1493 18.3201C37.2168 18.6575 37.2475 19.0009 37.2475 19.3505C37.2475 19.7063 37.2107 20.0497 37.1493 20.3809C37.0819 20.7121 36.9837 21.0372 36.8427 21.3623V21.3684C36.7078 21.6751 36.5483 21.9695 36.3643 22.2454C36.1803 22.5214 35.9718 22.7729 35.7387 23.0121C35.5056 23.2452 35.2542 23.4537 34.9782 23.6377C34.7022 23.8217 34.4078 23.9812 34.1011 24.1161C34.0827 24.1222 34.0643 24.1345 34.0459 24.1406C33.7392 24.2694 33.4264 24.3614 33.1136 24.4228C32.7763 24.4902 32.4328 24.527 32.0832 24.527C31.7275 24.527 31.3902 24.4902 31.0529 24.4228C30.7217 24.3553 30.3966 24.2572 30.0715 24.1161H30.0654C29.7587 23.9873 29.4643 23.8217 29.1883 23.6377C28.9123 23.4537 28.6609 23.2452 28.4217 23.0121C28.1886 22.779 27.9801 22.5214 27.8022 22.2454C27.6182 21.9695 27.4587 21.6751 27.3238 21.3684C27.3177 21.35 27.3054 21.3316 27.2993 21.3132C27.1705 21.0065 27.0785 20.6937 27.0171 20.3809C26.9497 20.0436 26.9129 19.7001 26.9129 19.3505C26.9129 18.9948 26.9436 18.6575 27.0171 18.3201C27.0846 17.9889 27.1827 17.6639 27.3238 17.3388V17.3327C27.4587 17.026 27.6121 16.7316 27.8022 16.4556C27.9862 16.1796 28.1947 15.9282 28.4278 15.689C28.6609 15.4559 28.9185 15.2474 29.1945 15.0634C29.4705 14.8794 29.7649 14.7199 30.0715 14.585C30.0899 14.5788 30.1083 14.5666 30.1267 14.5604C30.4334 14.4316 30.7462 14.3396 31.059 14.2783C31.3963 14.2108 31.7398 14.1802 32.0894 14.1802ZM32.856 15.6154C32.6107 15.5663 32.3531 15.5418 32.0894 15.5418C31.8257 15.5418 31.5681 15.5663 31.3227 15.6154C31.0835 15.6644 30.8627 15.7319 30.6481 15.8178C30.6358 15.8239 30.6235 15.83 30.6113 15.8362C30.3721 15.9404 30.1513 16.057 29.9489 16.1919C29.7465 16.3268 29.5625 16.4802 29.3907 16.6519C29.219 16.8236 29.0657 17.0076 28.9307 17.21C28.7958 17.4063 28.6793 17.6332 28.575 17.8724C28.483 18.0993 28.4094 18.3385 28.3603 18.59C28.3113 18.8353 28.2867 19.0929 28.2867 19.3567C28.2867 19.6204 28.3113 19.878 28.3603 20.1233C28.4094 20.3625 28.4769 20.5895 28.5627 20.798C28.5689 20.8103 28.575 20.8225 28.5811 20.8348C28.6854 21.074 28.8019 21.2948 28.9369 21.4972C29.0718 21.6996 29.2251 21.8836 29.3969 22.0553C29.5686 22.227 29.7526 22.3804 29.955 22.5153C30.1513 22.6441 30.3721 22.7668 30.6174 22.871C30.8443 22.963 31.0835 23.0366 31.335 23.0918C31.5803 23.1409 31.8379 23.1654 32.1017 23.1654C32.3654 23.1654 32.623 23.1409 32.8683 23.0918C33.1075 23.0428 33.3283 22.9753 33.543 22.8894C33.5552 22.8833 33.5675 22.8772 33.5859 22.871C33.8251 22.7668 34.0459 22.6441 34.2483 22.5153C34.4507 22.3804 34.6347 22.227 34.8064 22.0553C34.9782 21.8836 35.1315 21.6996 35.2664 21.4972C35.4014 21.3009 35.5179 21.0801 35.6222 20.8348C35.7142 20.6079 35.7878 20.3748 35.843 20.1172C35.892 19.8719 35.9166 19.6143 35.9166 19.3505C35.9166 19.0868 35.892 18.8292 35.843 18.5839C35.7939 18.3447 35.7264 18.1239 35.6406 17.9092C35.6344 17.8969 35.6283 17.8847 35.6222 17.8724C35.5179 17.6332 35.4014 17.4124 35.2664 17.21C35.1315 17.0076 34.9782 16.8236 34.8064 16.6519C34.6347 16.4802 34.4507 16.3268 34.2483 16.1919C34.052 16.057 33.8312 15.9404 33.5859 15.8362C33.3528 15.738 33.1136 15.6644 32.856 15.6154ZM9.4514 2.17119H65.7366V40.032H9.4514V2.17119ZM35.4075 42.3749H39.9645C40.3939 42.3749 40.7435 42.7245 40.7435 43.1538C40.7435 43.5832 40.3939 43.9328 39.9645 43.9328H35.4075C34.9782 43.9328 34.6286 43.5832 34.6286 43.1538C34.6286 42.7184 34.9782 42.3749 35.4075 42.3749Z" fill="black"/>
</svg>
