<svg width="64" height="64" viewBox="0 0 64 64" fill="none" xmlns="http://www.w3.org/2000/svg">
<g clip-path="url(#clip0_3_166)">
<path d="M32 64C49.6731 64 64 49.6731 64 32C64 14.3269 49.6731 0 32 0C14.3269 0 0 14.3269 0 32C0 49.6731 14.3269 64 32 64Z" fill="#F48120"/>
<g clip-path="url(#clip1_3_166)">
<path d="M14.9375 28.7188H33.3125C33.6747 28.7188 33.9688 28.4247 33.9688 28.0625V21.5C33.9688 21.1378 33.6747 20.8438 33.3125 20.8438H14.9375C14.5753 20.8438 14.2812 21.1378 14.2812 21.5V28.0625C14.2812 28.4247 14.5753 28.7188 14.9375 28.7188ZM15.5938 22.1562H32.6562V27.4062H15.5938V22.1562Z" fill="white"/>
<path d="M22.8125 30.0312H14.9375C14.5753 30.0312 14.2812 30.3253 14.2812 30.6875V33.3125C14.2812 33.6747 14.5753 33.9688 14.9375 33.9688H22.8125C23.1747 33.9688 23.4688 33.6747 23.4688 33.3125V30.6875C23.4688 30.3253 23.1747 30.0312 22.8125 30.0312ZM22.1562 32.6562H15.5938V31.3438H22.1562V32.6562Z" fill="white"/>
<path d="M33.3125 30.0312H25.4375C25.0753 30.0312 24.7812 30.3253 24.7812 30.6875V33.3125C24.7812 33.6747 25.0753 33.9688 25.4375 33.9688H33.3125C33.6747 33.9688 33.9688 33.6747 33.9688 33.3125V30.6875C33.9688 30.3253 33.6747 30.0312 33.3125 30.0312ZM32.6562 32.6562H26.0938V31.3438H32.6562V32.6562Z" fill="white"/>
<path d="M17.5625 35.2812H14.9375C14.5753 35.2812 14.2812 35.5753 14.2812 35.9375V38.5625C14.2812 38.9247 14.5753 39.2188 14.9375 39.2188H17.5625C17.9247 39.2188 18.2188 38.9247 18.2188 38.5625V35.9375C18.2188 35.5753 17.9247 35.2812 17.5625 35.2812ZM16.9062 37.9062H15.5938V36.5938H16.9062V37.9062Z" fill="white"/>
<path d="M22.8125 35.2812H20.1875C19.8253 35.2812 19.5312 35.5753 19.5312 35.9375V38.5625C19.5312 38.9247 19.8253 39.2188 20.1875 39.2188H22.8125C23.1747 39.2188 23.4688 38.9247 23.4688 38.5625V35.9375C23.4688 35.5753 23.1747 35.2812 22.8125 35.2812ZM22.1562 37.9062H20.8438V36.5938H22.1562V37.9062Z" fill="white"/>
<path d="M28.0625 35.2812H25.4375C25.0753 35.2812 24.7812 35.5753 24.7812 35.9375V38.5625C24.7812 38.9247 25.0753 39.2188 25.4375 39.2188H28.0625C28.4247 39.2188 28.7188 38.9247 28.7188 38.5625V35.9375C28.7188 35.5753 28.4247 35.2812 28.0625 35.2812ZM27.4062 37.9062H26.0938V36.5938H27.4062V37.9062Z" fill="white"/>
<path d="M17.5625 40.5312H14.9375C14.5753 40.5312 14.2812 40.8253 14.2812 41.1875V43.8125C14.2812 44.1747 14.5753 44.4688 14.9375 44.4688H17.5625C17.9247 44.4688 18.2188 44.1747 18.2188 43.8125V41.1875C18.2188 40.8253 17.9247 40.5312 17.5625 40.5312ZM16.9062 43.1562H15.5938V41.8438H16.9062V43.1562Z" fill="white"/>
<path d="M22.8125 40.5312H20.1875C19.8253 40.5312 19.5312 40.8253 19.5312 41.1875V43.8125C19.5312 44.1747 19.8253 44.4688 20.1875 44.4688H22.8125C23.1747 44.4688 23.4688 44.1747 23.4688 43.8125V41.1875C23.4688 40.8253 23.1747 40.5312 22.8125 40.5312ZM22.1562 43.1562H20.8438V41.8438H22.1562V43.1562Z" fill="white"/>
<path d="M28.0625 40.5312H25.4375C25.0753 40.5312 24.7812 40.8253 24.7812 41.1875V43.8125C24.7812 44.1747 25.0753 44.4688 25.4375 44.4688H28.0625C28.4247 44.4688 28.7188 44.1747 28.7188 43.8125V41.1875C28.7188 40.8253 28.4247 40.5312 28.0625 40.5312ZM27.4062 43.1562H26.0938V41.8438H27.4062V43.1562Z" fill="white"/>
<path d="M51.6875 41.8438C52.0497 41.8438 52.3438 41.5497 52.3438 41.1875V38.5625C52.3438 38.2003 52.0497 37.9062 51.6875 37.9062H43.8125C43.4503 37.9062 43.1562 38.2003 43.1562 38.5625V40.5312H42.5C42.1378 40.5312 41.8438 40.8253 41.8438 41.1875V43.8125C41.8438 44.1747 42.1378 44.4688 42.5 44.4688H43.1562V45.7812H42.5C42.1378 45.7812 41.8438 46.0753 41.8438 46.4375V49.0625C41.8438 49.4247 42.1378 49.7188 42.5 49.7188H43.1562V51.6875C43.1562 52.0497 43.4503 52.3438 43.8125 52.3438H51.6875C52.0497 52.3438 52.3438 52.0497 52.3438 51.6875V49.0625C52.3438 48.7003 52.0497 48.4062 51.6875 48.4062H51.0312V47.0938H51.6875C52.0497 47.0938 52.3438 46.7997 52.3438 46.4375V43.8125C52.3438 43.4503 52.0497 43.1562 51.6875 43.1562H51.0312V41.8438H51.6875ZM43.1562 41.8438H49.7188V43.1562H43.1562V41.8438ZM43.1562 48.4062V47.0938H49.7188V48.4062H43.1562ZM51.0312 51.0312H44.4688V49.7188H51.0312V51.0312ZM51.0312 45.7812H44.4688V44.4688H51.0312V45.7812ZM44.4688 40.5312V39.2188H51.0312V40.5312H44.4688Z" fill="white"/>
<path d="M39.875 39.2188C40.2372 39.2188 40.5312 38.9247 40.5312 38.5625V35.9375C40.5312 35.5753 40.2372 35.2812 39.875 35.2812H36.5938V21.5C36.5938 19.6907 35.1218 18.2188 33.3125 18.2188H14.9375C13.1282 18.2188 11.6562 19.6907 11.6562 21.5V46.4375C11.6562 48.2468 13.1282 49.7188 14.9375 49.7188H30.0312V51.6875C30.0312 52.0497 30.3253 52.3438 30.6875 52.3438H38.5625C38.9247 52.3438 39.2188 52.0497 39.2188 51.6875V49.7188H39.875C40.2372 49.7188 40.5312 49.4247 40.5312 49.0625V46.4375C40.5312 46.0753 40.2372 45.7812 39.875 45.7812H39.2188V44.4688H39.875C40.2372 44.4688 40.5312 44.1747 40.5312 43.8125V41.1875C40.5312 40.8253 40.2372 40.5312 39.875 40.5312H39.2188V39.2188H39.875ZM14.9375 48.4062C14.0831 48.4062 13.3612 47.8557 13.0895 47.0938H28.7188V45.7812H12.9688V21.5C12.9688 20.4146 13.8521 19.5312 14.9375 19.5312H33.3125C34.3979 19.5312 35.2812 20.4146 35.2812 21.5V35.2812H32C31.6378 35.2812 31.3438 35.5753 31.3438 35.9375V37.9062H30.6875C30.3253 37.9062 30.0312 38.2003 30.0312 38.5625V41.1875C30.0312 41.5497 30.3253 41.8438 30.6875 41.8438H31.3438V43.1562H30.6875C30.3253 43.1562 30.0312 43.4503 30.0312 43.8125V46.4375C30.0312 46.7997 30.3253 47.0938 30.6875 47.0938H31.3438V48.4062H30.6875H14.9375ZM37.9062 39.2188V40.5312H31.3438V39.2188H37.9062ZM37.9062 44.4688V45.7812H31.3438V44.4688H37.9062ZM37.9062 51.0312H31.3438V49.7188H37.9062V51.0312ZM39.2188 48.4062H32.6562V47.0938H39.2188V48.4062ZM39.2188 43.1562H32.6562V41.8438H39.2188V43.1562ZM32.6562 37.9062V36.5938H39.2188V37.9062H32.6562Z" fill="white"/>
<path d="M51.6875 11.6562H48.4062V12.9688H50.1033L45.125 17.9471L43.6202 16.4423C43.3636 16.1857 42.9489 16.1857 42.6923 16.4423L37.4423 21.6923L38.3702 22.6202L43.1562 17.8342L44.661 19.339C44.9176 19.5956 45.3324 19.5956 45.589 19.339L51.0312 13.8967V15.5938H52.3437V12.3125C52.3437 11.9503 52.0497 11.6562 51.6875 11.6562Z" fill="white"/>
<path d="M45.7812 26.75C46.1428 26.75 46.4375 27.0447 46.4375 27.4062H47.75C47.75 26.5518 47.1994 25.8299 46.4375 25.5583V24.7812H45.125V25.5583C44.3631 25.8299 43.8125 26.5518 43.8125 27.4062C43.8125 28.4917 44.6958 29.375 45.7812 29.375C46.1428 29.375 46.4375 29.6697 46.4375 30.0312C46.4375 30.3928 46.1428 30.6875 45.7812 30.6875C45.4197 30.6875 45.125 30.3928 45.125 30.0312H43.8125C43.8125 30.8857 44.3631 31.6076 45.125 31.8792V32.6562H46.4375V31.8792C47.1994 31.6076 47.75 30.8857 47.75 30.0312C47.75 28.9458 46.8667 28.0625 45.7812 28.0625C45.4197 28.0625 45.125 27.7678 45.125 27.4062C45.125 27.0447 45.4197 26.75 45.7812 26.75Z" fill="white"/>
<path d="M45.7812 22.1562C42.1627 22.1562 39.2188 25.1002 39.2188 28.7188C39.2188 32.3373 42.1627 35.2812 45.7812 35.2812C49.3998 35.2812 52.3438 32.3373 52.3438 28.7188C52.3438 25.1002 49.3998 22.1562 45.7812 22.1562ZM45.7812 33.9688C42.8865 33.9688 40.5312 31.6135 40.5312 28.7188C40.5312 25.824 42.8865 23.4688 45.7812 23.4688C48.676 23.4688 51.0312 25.824 51.0312 28.7188C51.0312 31.6135 48.676 33.9688 45.7812 33.9688Z" fill="white"/>
<path d="M22.8125 11.6562H21.5V12.9688H22.8125V11.6562Z" fill="white"/>
<path d="M22.8125 14.2812H21.5V15.5938H22.8125V14.2812Z" fill="white"/>
<path d="M21.5 12.9688H20.1875V14.2812H21.5V12.9688Z" fill="white"/>
<path d="M24.125 12.9688H22.8125V14.2812H24.125V12.9688Z" fill="white"/>
<path d="M37.25 13.625H35.9375V14.9375H37.25V13.625Z" fill="white"/>
<path d="M37.25 16.25H35.9375V17.5625H37.25V16.25Z" fill="white"/>
<path d="M35.9375 14.9375H34.625V16.25H35.9375V14.9375Z" fill="white"/>
<path d="M38.5625 14.9375H37.25V16.25H38.5625V14.9375Z" fill="white"/>
</g>
</g>
<defs>
<clipPath id="clip0_3_166">
<rect width="64" height="64" fill="white"/>
</clipPath>
<clipPath id="clip1_3_166">
<rect width="42" height="42" fill="white" transform="translate(11 11)"/>
</clipPath>
</defs>
</svg>
