<svg xmlns="http://www.w3.org/2000/svg" xmlns:xlink="http://www.w3.org/1999/xlink" width="114" height="106" viewBox="0 0 114 106">
  <defs>
    <clipPath id="clip-path">
      <rect id="Rectangle_1379" data-name="Rectangle 1379" width="114" height="106" fill="#fff" stroke="#707070" stroke-width="1"/>
    </clipPath>
  </defs>
  <g id="Mask_Group_257" data-name="Mask Group 257" clip-path="url(#clip-path)">
    <g id="Group_7504" data-name="Group 7504" transform="translate(5.805 0.099)">
      <path id="Path_7279" data-name="Path 7279" d="M21.2,8.247h90.532a4.9,4.9,0,0,1,4.9,4.918v95.608a4.9,4.9,0,0,1-4.9,4.918H21.2a4.907,4.907,0,0,1-4.9-4.918V13.165a4.907,4.907,0,0,1,4.9-4.918" transform="translate(-16.308 -8.247)" fill="#0b264e"/>
      <rect id="Rectangle_1377" data-name="Rectangle 1377" width="57.134" height="15.801" transform="translate(23.332 28.861)" fill="#fff"/>
      <path id="Path_7280" data-name="Path 7280" d="M51.02,36.209H47.9a1.673,1.673,0,0,1,1.617-1.682c.8,0,1.42.456,1.509,1.682Zm16.193-1.655c-.058,0-1.674-.209-1.674,2.382s1.617,2.382,1.674,2.382c1.54,0,1.67-1.612,1.67-2.382,0-2.586-1.617-2.374-1.67-2.374v-.008ZM38.4,37.385a1.036,1.036,0,0,0-.389.866.893.893,0,0,0,.389.847c.558.441,1.786.255,2.483.116V37.188a3.756,3.756,0,0,0-2.483.193Zm56.949-2.351a16.374,16.374,0,0,1-19.6,16.238,11.969,11.969,0,0,1-15.673,4.956,13.616,13.616,0,0,1-25.334-.615c-14.18,2.842-21.181-16.469-8.91-23.722A14.746,14.746,0,0,1,51.055,17.022a13.27,13.27,0,0,1,18.821-.445,13.45,13.45,0,0,1,2.5,3.275A16.418,16.418,0,0,1,95.345,35.034ZM35.805,38.367c0-1.4-1.386-1.805-2.113-2.041-.627-.247-1.59-.418-1.59-1.063,0-1.125,2.021-.793,2.983-.255a.124.124,0,0,0,.192-.054c.027-.081.277-.785.308-.87a.135.135,0,0,0-.085-.166c-1.459-.909-4.823-1.017-4.823,1.512,0,1.481,1.363,1.836,2.121,2.041.558.186,1.559.36,1.559,1.036,0,.476-.42.847-1.089.847a3.734,3.734,0,0,1-2.248-.758c-.058-.027-.169-.085-.2.085l-.285.889c-.058.112.027.139.027.17a4.762,4.762,0,0,0,2.694.785c1.559,0,2.529-.847,2.529-2.157ZM39.6,33.3a4.967,4.967,0,0,0-2.525.615.119.119,0,0,0-.031.166v0l.308.847a.112.112,0,0,0,.139.081,4.676,4.676,0,0,1,2.005-.476,1.752,1.752,0,0,1,1.089.282c.423.336.362.986.362,1.256a5.154,5.154,0,0,0-3.483.448,2.015,2.015,0,0,0-.87,1.728,1.951,1.951,0,0,0,.781,1.709,6.732,6.732,0,0,0,4.515.166c.185-.035.42-.077.42-.22v-4.04c0-.549.038-2.575-2.7-2.575l0,0Zm5.516-2.5a.135.135,0,0,0-.127-.135H43.811a.133.133,0,0,0-.139.128v9.414a.136.136,0,0,0,.123.143h1.185a.134.134,0,0,0,.146-.12V40.2Zm6.6,3.445a2.546,2.546,0,0,0-2.09-.9,3,3,0,0,0-2.452,1.063,4.107,4.107,0,0,0-.777,2.548,3.679,3.679,0,0,0,.843,2.521,3.426,3.426,0,0,0,2.694.982,4.18,4.18,0,0,0,2.2-.448c.054-.027.085-.085.027-.224l-.277-.812a.152.152,0,0,0-.169-.081,4.271,4.271,0,0,1-1.809.34,1.822,1.822,0,0,1-2.005-1.62,2.338,2.338,0,0,1,0-.367h4.4a.141.141,0,0,0,.139-.112,4.305,4.305,0,0,0-.72-2.876v-.012Zm4.349,6.259c1.559,0,2.536-.847,2.536-2.153,0-1.4-1.389-1.805-2.121-2.041-.489-.2-1.586-.406-1.586-1.067,0-.445.389-.754,1.008-.754A4.512,4.512,0,0,1,57.883,35s.142.085.2-.054c.027-.085.277-.785.3-.87a.135.135,0,0,0-.081-.17,4.514,4.514,0,0,0-2.394-.588A2.191,2.191,0,0,0,53.5,35.27a.909.909,0,0,0-.012.147c0,1.485,1.359,1.836,2.117,2.041.724.24,1.559.39,1.559,1.036,0,.476-.416.847-1.085.847a3.758,3.758,0,0,1-2.252-.754.124.124,0,0,0-.169.008.132.132,0,0,0-.027.073l-.277.9c-.058.112.027.139.027.17a4.737,4.737,0,0,0,2.694.781l0-.012Zm7.775-6.885c0-.085-.027-.139-.139-.139H62.313A3.031,3.031,0,0,1,62.841,32c.493-.495,1.393-.193,1.424-.193.139.054.166,0,.192-.058l.339-.924c.081-.112,0-.139-.031-.17a2.981,2.981,0,0,0-2.9.51,4.285,4.285,0,0,0-.947,2.324H59.908a.149.149,0,0,0-.139.139l-.166.924c0,.081.027.139.139.139h.974c-1.008,5.7-1.035,5.973-1.224,6.6a1.343,1.343,0,0,1-.7.924,1.707,1.707,0,0,1-1.143-.027s-.112-.058-.169.085c-.027.085-.3.812-.335.893s0,.17.054.17a3.427,3.427,0,0,0,2.121,0A2.412,2.412,0,0,0,60.689,41.8a52.377,52.377,0,0,0,1.393-7.11h1.447a.149.149,0,0,0,.139-.139Zm6.324,1.906a3.14,3.14,0,0,0-5.962,0,5.16,5.16,0,0,0,0,2.8,3.14,3.14,0,0,0,5.962,0,5.284,5.284,0,0,0,0-2.791v-.008Zm5.381-1.979a2.549,2.549,0,0,0-2.621.642v-.534a.127.127,0,0,0-.123-.135H71.674a.133.133,0,0,0-.142.124v6.592a.134.134,0,0,0,.127.139h1.159a.135.135,0,0,0,.139-.124V36.932a2.515,2.515,0,0,1,.527-1.79,1.734,1.734,0,0,1,1.59-.363.191.191,0,0,0,.169-.112,9.532,9.532,0,0,0,.362-.955.137.137,0,0,0-.058-.166Zm5.546,6.429-.254-.866c-.054-.143-.166-.089-.166-.089a3.873,3.873,0,0,1-1.339.228c-.547,0-2.032-.135-2.032-2.351,0-.742.219-2.351,1.951-2.351a4.067,4.067,0,0,1,1.363.193s.112.058.142-.085c.108-.305.192-.53.3-.893.027-.112-.054-.139-.085-.139a4.769,4.769,0,0,0-3.291,0A3.283,3.283,0,0,0,75.765,36.9a3.264,3.264,0,0,0,2.925,3.572,2.755,2.755,0,0,0,.5.012,5.254,5.254,0,0,0,1.84-.336.161.161,0,0,0,.058-.17m6.382-4.705a2.6,2.6,0,0,0-2.648-1.929,2.93,2.93,0,0,0-3.033,2.211,4.676,4.676,0,0,0-.2,1.4,3.19,3.19,0,0,0,2.829,3.507,3.375,3.375,0,0,0,.712-.008,4.163,4.163,0,0,0,2.2-.445c.058-.031.085-.089.031-.224l-.281-.812a.145.145,0,0,0-.166-.085,4.288,4.288,0,0,1-1.813.34,1.818,1.818,0,0,1-2-1.616,1.709,1.709,0,0,1,0-.371h4.4a.148.148,0,0,0,.139-.112,6.09,6.09,0,0,0-.169-1.848v-.008Zm-2.752-.746a1.67,1.67,0,0,0-1.617,1.682h3.125c-.1-1.419-.9-1.682-1.516-1.682Z" transform="translate(-7.188 0.286)" fill="#0091d4"/>
      <path id="Path_7281" data-name="Path 7281" d="M22.611,28.445a.373.373,0,0,1-.115.135.244.244,0,0,1-.154.046.414.414,0,0,1-.223-.089c-.085-.062-.189-.128-.316-.2a2.244,2.244,0,0,0-.45-.2,2.163,2.163,0,0,0-1.228,0,1.284,1.284,0,0,0-.435.247,1.011,1.011,0,0,0-.266.367,1.121,1.121,0,0,0-.089.456.831.831,0,0,0,.162.526,1.426,1.426,0,0,0,.42.36,3.555,3.555,0,0,0,.6.255c.219.073.446.151.681.228a6.587,6.587,0,0,1,.681.271,2.4,2.4,0,0,1,.6.387,1.8,1.8,0,0,1,.423.568,1.911,1.911,0,0,1,.158.827,2.623,2.623,0,0,1-.177.974,2.237,2.237,0,0,1-.516.8,2.3,2.3,0,0,1-.831.534,3,3,0,0,1-1.12.2,3.476,3.476,0,0,1-.731-.077A3.419,3.419,0,0,1,19,34.839a3.645,3.645,0,0,1-.593-.321,3.281,3.281,0,0,1-.493-.425l.335-.561a.387.387,0,0,1,.115-.108.269.269,0,0,1,.158-.043.443.443,0,0,1,.262.12c.1.081.227.166.373.267a2.919,2.919,0,0,0,.527.267,2.153,2.153,0,0,0,.751.12,2.069,2.069,0,0,0,.647-.1,1.348,1.348,0,0,0,.477-.274,1.221,1.221,0,0,0,.3-.433,1.434,1.434,0,0,0,.1-.557.95.95,0,0,0-.158-.564,1.3,1.3,0,0,0-.42-.367,3.265,3.265,0,0,0-.6-.255c-.219-.07-.446-.139-.681-.213a6.543,6.543,0,0,1-.681-.263,2.114,2.114,0,0,1-.6-.387,1.781,1.781,0,0,1-.42-.6,2.22,2.22,0,0,1-.158-.885,2.13,2.13,0,0,1,.166-.816,2.057,2.057,0,0,1,.477-.7,2.3,2.3,0,0,1,.774-.487,2.765,2.765,0,0,1,1.047-.186,3.33,3.33,0,0,1,1.212.213,2.8,2.8,0,0,1,.962.607l-.281.553Z" transform="translate(-11.718 45.718)" fill="#fff"/>
      <path id="Path_7282" data-name="Path 7282" d="M24.224,27.694v5.571h-.639a.271.271,0,0,1-.281-.213l-.077-.561a4.031,4.031,0,0,1-.377.352,2.51,2.51,0,0,1-.42.271,2.476,2.476,0,0,1-.473.174,2.192,2.192,0,0,1-.539.062,1.947,1.947,0,0,1-.808-.155,1.563,1.563,0,0,1-.577-.429,1.871,1.871,0,0,1-.358-.665,3.029,3.029,0,0,1-.119-.862V27.694h1.07v3.545a1.436,1.436,0,0,0,.273.932,1.025,1.025,0,0,0,.835.329,1.556,1.556,0,0,0,.766-.193,2.644,2.644,0,0,0,.666-.534V27.694h1.058Z" transform="translate(-7.058 47.489)" fill="#fff"/>
      <path id="Path_7283" data-name="Path 7283" d="M21.184,33.33V27.759h.639a.261.261,0,0,1,.277.213l.077.534a2.811,2.811,0,0,1,.677-.6,1.6,1.6,0,0,1,.878-.236,1.3,1.3,0,0,1,.893.305,1.742,1.742,0,0,1,.5.827,1.723,1.723,0,0,1,.312-.51,1.757,1.757,0,0,1,.924-.553,2.1,2.1,0,0,1,.539-.066,2.077,2.077,0,0,1,.785.139,1.545,1.545,0,0,1,.589.41,1.771,1.771,0,0,1,.366.661,2.942,2.942,0,0,1,.127.9V33.33H27.7V29.785a1.42,1.42,0,0,0-.269-.943.973.973,0,0,0-.785-.317,1.192,1.192,0,0,0-.439.077.989.989,0,0,0-.362.24,1.127,1.127,0,0,0-.246.394,1.493,1.493,0,0,0-.089.549V33.33h-1.07V29.785a1.457,1.457,0,0,0-.258-.955.916.916,0,0,0-.751-.305,1.2,1.2,0,0,0-.639.178,2.164,2.164,0,0,0-.543.495V33.33Z" transform="translate(-2.416 47.421)" fill="#fff"/>
      <path id="Path_7284" data-name="Path 7284" d="M23.556,33.33V27.759h.639a.261.261,0,0,1,.277.213l.077.534a2.811,2.811,0,0,1,.677-.6,1.6,1.6,0,0,1,.878-.236,1.3,1.3,0,0,1,.893.305,1.742,1.742,0,0,1,.5.827,1.722,1.722,0,0,1,.312-.51,1.757,1.757,0,0,1,.924-.553,2.1,2.1,0,0,1,.539-.066,2.077,2.077,0,0,1,.785.139,1.545,1.545,0,0,1,.589.41,1.771,1.771,0,0,1,.366.661,2.942,2.942,0,0,1,.127.9V33.33H30.068V29.785a1.42,1.42,0,0,0-.269-.943.973.973,0,0,0-.785-.317,1.192,1.192,0,0,0-.439.077.989.989,0,0,0-.362.24,1.126,1.126,0,0,0-.246.394,1.493,1.493,0,0,0-.089.549V33.33h-1.07V29.785a1.457,1.457,0,0,0-.258-.955.916.916,0,0,0-.751-.305,1.2,1.2,0,0,0-.639.178,2.087,2.087,0,0,0-.539.495V33.33Z" transform="translate(4.341 47.421)" fill="#fff"/>
      <path id="Path_7285" data-name="Path 7285" d="M27.354,27.8a.7.7,0,0,1-.058.282.914.914,0,0,1-.162.236.737.737,0,0,1-.239.159.722.722,0,0,1-.285.058.685.685,0,0,1-.277-.058.746.746,0,0,1-.231-.159.7.7,0,0,1-.158-.236.712.712,0,0,1-.058-.282.764.764,0,0,1,.058-.29.747.747,0,0,1,.389-.394.753.753,0,0,1,.277-.054.793.793,0,0,1,.285.054.78.78,0,0,1,.239.159.914.914,0,0,1,.162.236.749.749,0,0,1,.058.29m-.2,1.72v5.571H26.092V29.516Z" transform="translate(10.985 45.664)" fill="#fff"/>
      <path id="Path_7286" data-name="Path 7286" d="M28.77,34.671a1.375,1.375,0,0,1-1.035-.379,1.491,1.491,0,0,1-.362-1.079V29.881H26.73a.227.227,0,0,1-.158-.058.223.223,0,0,1-.062-.174V29.22l.9-.128.239-1.662a.243.243,0,0,1,.085-.143.247.247,0,0,1,.162-.054h.539V29.1H30.01v.777H28.435v3.263a.667.667,0,0,0,.162.491.559.559,0,0,0,.412.162.8.8,0,0,0,.254-.039,1.191,1.191,0,0,0,.185-.085l.131-.085a.163.163,0,0,1,.1-.039.13.13,0,0,1,.085.023.269.269,0,0,1,.062.077l.319.518a1.939,1.939,0,0,1-.624.371A2.125,2.125,0,0,1,28.77,34.671Z" transform="translate(12.76 46.168)" fill="#fff"/>
      <path id="Path_7287" data-name="Path 7287" d="M29.3,32.016a8.939,8.939,0,0,0,.289,2.266,8.8,8.8,0,0,0,.847,2.088.355.355,0,0,1,.05.282.418.418,0,0,1-.139.158l-.473.29a10.246,10.246,0,0,1-.7-1.253,8.089,8.089,0,0,1-.462-1.253,8.524,8.524,0,0,1-.262-1.268,10.7,10.7,0,0,1,0-2.625,8.425,8.425,0,0,1,.262-1.268,8.048,8.048,0,0,1,.462-1.249,10.006,10.006,0,0,1,.7-1.256l.473.294a.368.368,0,0,1,.139.159.348.348,0,0,1-.05.278,8.823,8.823,0,0,0-.847,2.092A8.939,8.939,0,0,0,29.3,32.016Z" transform="translate(18.068 45.294)" fill="#fff"/>
      <path id="Path_7288" data-name="Path 7288" d="M30.229,28.606a3.185,3.185,0,0,1,.373-.383,2.3,2.3,0,0,1,.431-.294,2.052,2.052,0,0,1,.485-.193,2.135,2.135,0,0,1,.554-.07,1.943,1.943,0,0,1,.858.186,1.833,1.833,0,0,1,.658.549,2.631,2.631,0,0,1,.423.893,4.523,4.523,0,0,1,.15,1.226A3.8,3.8,0,0,1,34,31.668a2.865,2.865,0,0,1-.473.916,2.188,2.188,0,0,1-1.755.835,2.055,2.055,0,0,1-.854-.166,2.025,2.025,0,0,1-.631-.46v2.42H29.217V27.775h.639a.256.256,0,0,1,.277.213l.092.619Zm.054,3.363a1.519,1.519,0,0,0,.566.483,1.656,1.656,0,0,0,.677.135,1.345,1.345,0,0,0,1.135-.526,2.539,2.539,0,0,0,.4-1.543,4.1,4.1,0,0,0-.089-.909A1.739,1.739,0,0,0,32.712,29a1.045,1.045,0,0,0-.423-.348,1.352,1.352,0,0,0-.57-.116,1.548,1.548,0,0,0-.8.209,2.278,2.278,0,0,0-.631.6V31.97Z" transform="translate(20.469 47.412)" fill="#fff"/>
      <rect id="Rectangle_1378" data-name="Rectangle 1378" width="1.07" height="8.092" transform="translate(55.96 72.66)" fill="#fff"/>
      <path id="Path_7289" data-name="Path 7289" d="M31.71,28.548a3.177,3.177,0,0,1,1.008-.665,3.213,3.213,0,0,1,1.193-.217,2.111,2.111,0,0,1,.839.155,1.771,1.771,0,0,1,.616.437,1.931,1.931,0,0,1,.381.669,2.75,2.75,0,0,1,.127.858v3.553H35.4a.463.463,0,0,1-.242-.05.351.351,0,0,1-.127-.2l-.115-.487a5.324,5.324,0,0,1-.42.352,2.613,2.613,0,0,1-.435.255,2.169,2.169,0,0,1-.485.162,2.812,2.812,0,0,1-.566.054,2.118,2.118,0,0,1-.616-.089,1.391,1.391,0,0,1-.5-.278,1.283,1.283,0,0,1-.335-.464,1.634,1.634,0,0,1-.123-.653,1.235,1.235,0,0,1,.177-.634,1.65,1.65,0,0,1,.577-.545,3.772,3.772,0,0,1,1.051-.394,7.667,7.667,0,0,1,1.59-.174v-.406a1.406,1.406,0,0,0-.269-.943.97.97,0,0,0-.785-.309,1.717,1.717,0,0,0-.585.085,2.117,2.117,0,0,0-.408.2c-.115.07-.216.135-.3.193a.475.475,0,0,1-.266.089.292.292,0,0,1-.189-.062A.465.465,0,0,1,31.9,28.9l-.189-.344Zm3.122,2.32a8.625,8.625,0,0,0-1.1.1,3,3,0,0,0-.739.213,1.007,1.007,0,0,0-.408.309.672.672,0,0,0-.127.4.831.831,0,0,0,.069.36.707.707,0,0,0,.185.247.78.78,0,0,0,.277.139,1.363,1.363,0,0,0,.343.043,2.017,2.017,0,0,0,.45-.046,1.835,1.835,0,0,0,.385-.143,1.864,1.864,0,0,0,.346-.22,3.3,3.3,0,0,0,.319-.3Z" transform="translate(26.805 47.412)" fill="#fff"/>
      <path id="Path_7290" data-name="Path 7290" d="M38.619,35.118h-1.07V30.413H34.766v3.263a.662.662,0,0,0,.158.487.558.558,0,0,0,.412.162.7.7,0,0,0,.254-.039.915.915,0,0,0,.185-.085l.131-.085a.163.163,0,0,1,.1-.039.112.112,0,0,1,.085.027.273.273,0,0,1,.065.077l.316.514a1.806,1.806,0,0,1-.624.375,2.124,2.124,0,0,1-.747.131,1.36,1.36,0,0,1-1.032-.379,1.492,1.492,0,0,1-.366-1.079V30.409h-.643a.234.234,0,0,1-.158-.058.209.209,0,0,1-.062-.17v-.433l.908-.128.235-1.659a.266.266,0,0,1,.085-.147.245.245,0,0,1,.162-.05h.539v1.871h3.853Zm.239-7.326a.643.643,0,0,1-.062.282.817.817,0,0,1-.158.236.831.831,0,0,1-.239.159.722.722,0,0,1-.285.058.659.659,0,0,1-.277-.058.812.812,0,0,1-.235-.159.767.767,0,0,1-.158-.236.712.712,0,0,1-.058-.282.75.75,0,0,1,.058-.29.785.785,0,0,1,.158-.24.812.812,0,0,1,.235-.158.659.659,0,0,1,.277-.058.722.722,0,0,1,.285.058.831.831,0,0,1,.239.158.787.787,0,0,1,.219.53" transform="translate(30.785 45.632)" fill="#fff"/>
      <path id="Path_7291" data-name="Path 7291" d="M35.769,28.529a4.034,4.034,0,0,1,.377-.352,2.646,2.646,0,0,1,.416-.271,2.384,2.384,0,0,1,.473-.174,2.224,2.224,0,0,1,.543-.062,1.916,1.916,0,0,1,.8.155,1.545,1.545,0,0,1,.581.429,1.806,1.806,0,0,1,.354.665,2.915,2.915,0,0,1,.123.862v3.545H38.367V29.782a1.443,1.443,0,0,0-.269-.932,1.026,1.026,0,0,0-.835-.329,1.613,1.613,0,0,0-.77.193,2.562,2.562,0,0,0-.662.53v4.083H34.768V27.756H35.4a.265.265,0,0,1,.281.213l.081.561Z" transform="translate(36.284 47.423)" fill="#fff"/>
      <path id="Path_7292" data-name="Path 7292" d="M41.038,27.694v5.571H40.4a.271.271,0,0,1-.281-.213l-.077-.561a4.035,4.035,0,0,1-.377.352,2.51,2.51,0,0,1-.42.271,2.476,2.476,0,0,1-.473.174,2.192,2.192,0,0,1-.539.062,1.947,1.947,0,0,1-.808-.155,1.563,1.563,0,0,1-.577-.429,1.87,1.87,0,0,1-.358-.665,3.029,3.029,0,0,1-.119-.862V27.694h1.07v3.545a1.436,1.436,0,0,0,.273.932,1.026,1.026,0,0,0,.835.329,1.556,1.556,0,0,0,.766-.193,2.644,2.644,0,0,0,.666-.534V27.694h1.058Z" transform="translate(40.845 47.489)" fill="#fff"/>
      <path id="Path_7293" data-name="Path 7293" d="M38,33.33V27.759h.639a.261.261,0,0,1,.277.213l.077.534a2.811,2.811,0,0,1,.677-.6,1.6,1.6,0,0,1,.878-.236,1.3,1.3,0,0,1,.893.305,1.742,1.742,0,0,1,.5.827,1.722,1.722,0,0,1,.312-.51,1.757,1.757,0,0,1,.924-.553,2.1,2.1,0,0,1,.539-.066,2.077,2.077,0,0,1,.785.139,1.545,1.545,0,0,1,.589.41,1.771,1.771,0,0,1,.366.661,2.942,2.942,0,0,1,.127.9V33.33H44.51V29.785a1.42,1.42,0,0,0-.269-.943.973.973,0,0,0-.785-.317,1.192,1.192,0,0,0-.439.077.989.989,0,0,0-.362.24,1.126,1.126,0,0,0-.246.394,1.493,1.493,0,0,0-.089.549V33.33H41.25V29.785a1.457,1.457,0,0,0-.258-.955.916.916,0,0,0-.751-.305,1.2,1.2,0,0,0-.639.178,2.164,2.164,0,0,0-.543.495V33.33Z" transform="translate(45.486 47.421)" fill="#fff"/>
      <path id="Path_7294" data-name="Path 7294" d="M41.42,32.016a8.919,8.919,0,0,0-.293-2.266,8.77,8.77,0,0,0-.851-2.092.326.326,0,0,1-.05-.282.391.391,0,0,1,.139-.159l.477-.29a9.714,9.714,0,0,1,.693,1.253A8.347,8.347,0,0,1,42,29.433,7.974,7.974,0,0,1,42.26,30.7a10.216,10.216,0,0,1,0,2.625A8.063,8.063,0,0,1,42,34.594a8.461,8.461,0,0,1-.462,1.249,9.464,9.464,0,0,1-.693,1.253l-.477-.29a.368.368,0,0,1-.139-.159.319.319,0,0,1,.05-.278,8.832,8.832,0,0,0,1.143-4.353Z" transform="translate(51.794 45.294)" fill="#fff"/>
      <path id="Path_7295" data-name="Path 7295" d="M27.291,30.367a4.271,4.271,0,0,1,1.309.178,2.457,2.457,0,0,1,.924.495,1.987,1.987,0,0,1,.543.773,2.832,2.832,0,0,1,.177,1.009,2.642,2.642,0,0,1-.192,1.017,2.2,2.2,0,0,1-.562.8,2.61,2.61,0,0,1-.924.518,4.138,4.138,0,0,1-1.274.182H26.078v2.9H24.916V30.367Zm0,4.052a2.385,2.385,0,0,0,.777-.116,1.572,1.572,0,0,0,.562-.325,1.313,1.313,0,0,0,.343-.506,1.823,1.823,0,0,0,.115-.649,1.468,1.468,0,0,0-.446-1.129,1.93,1.93,0,0,0-1.351-.41H26.082v3.135Z" transform="translate(8.216 55.15)" fill="#fff"/>
      <path id="Path_7296" data-name="Path 7296" d="M26.72,31.817a3.177,3.177,0,0,1,1.008-.665,3.219,3.219,0,0,1,1.2-.216,2.1,2.1,0,0,1,.835.155,1.786,1.786,0,0,1,.62.437,1.987,1.987,0,0,1,.377.669,2.748,2.748,0,0,1,.131.858v3.553h-.477a.463.463,0,0,1-.242-.05.351.351,0,0,1-.127-.2l-.115-.487a4.708,4.708,0,0,1-.42.352,2.612,2.612,0,0,1-.435.255,2.072,2.072,0,0,1-.481.162,2.88,2.88,0,0,1-.57.054,2.137,2.137,0,0,1-.616-.089,1.391,1.391,0,0,1-.5-.278,1.283,1.283,0,0,1-.335-.464,1.634,1.634,0,0,1-.123-.653,1.235,1.235,0,0,1,.177-.634,1.65,1.65,0,0,1,.577-.545,3.82,3.82,0,0,1,1.051-.394,7.7,7.7,0,0,1,1.59-.174v-.406a1.428,1.428,0,0,0-.266-.943.983.983,0,0,0-.789-.309,1.732,1.732,0,0,0-.585.085,1.974,1.974,0,0,0-.4.2c-.119.07-.219.135-.3.193a.475.475,0,0,1-.266.089.292.292,0,0,1-.189-.062.465.465,0,0,1-.131-.143l-.189-.344Zm3.125,2.32a8.691,8.691,0,0,0-1.1.1A3,3,0,0,0,28,34.45a1.064,1.064,0,0,0-.408.309.672.672,0,0,0-.127.4.892.892,0,0,0,.069.36.707.707,0,0,0,.185.247A.8.8,0,0,0,28,35.9a1.31,1.31,0,0,0,.339.043,1.991,1.991,0,0,0,.45-.046,1.952,1.952,0,0,0,.389-.143,2,2,0,0,0,.346-.22,3.3,3.3,0,0,0,.319-.3Z" transform="translate(12.589 56.781)" fill="#fff"/>
      <path id="Path_7297" data-name="Path 7297" d="M29.008,32.107a2.533,2.533,0,0,1,.643-.862,1.5,1.5,0,0,1,1.251-.271.83.83,0,0,1,.277.124l-.069.808a.175.175,0,0,1-.181.147,1.373,1.373,0,0,1-.227-.031,1.786,1.786,0,0,0-.331-.031,1.251,1.251,0,0,0-.45.073,1.091,1.091,0,0,0-.354.22,1.634,1.634,0,0,0-.273.356,3.474,3.474,0,0,0-.227.479v3.487H28V31.04h.612a.33.33,0,0,1,.235.062.42.42,0,0,1,.092.22Z" transform="translate(17.011 56.781)" fill="#fff"/>
      <path id="Path_7298" data-name="Path 7298" d="M31.194,37.94a1.375,1.375,0,0,1-1.035-.379,1.491,1.491,0,0,1-.362-1.079V33.15h-.643A.227.227,0,0,1,29,33.092a.223.223,0,0,1-.062-.174v-.429l.9-.128.239-1.662a.243.243,0,0,1,.085-.143.247.247,0,0,1,.162-.054h.539v1.871h1.574v.777H30.859v3.263a.667.667,0,0,0,.162.491.559.559,0,0,0,.412.162.8.8,0,0,0,.254-.039,1.191,1.191,0,0,0,.185-.085L32,36.858a.163.163,0,0,1,.1-.039.13.13,0,0,1,.085.023.269.269,0,0,1,.062.077l.319.518a1.939,1.939,0,0,1-.624.371A2.125,2.125,0,0,1,31.194,37.94Z" transform="translate(19.666 55.537)" fill="#fff"/>
      <path id="Path_7299" data-name="Path 7299" d="M31.126,31.8a4.03,4.03,0,0,1,.377-.352,2.645,2.645,0,0,1,.416-.271A2.384,2.384,0,0,1,32.392,31a2.223,2.223,0,0,1,.543-.062,1.916,1.916,0,0,1,.8.155,1.546,1.546,0,0,1,.581.429,1.806,1.806,0,0,1,.354.665,2.915,2.915,0,0,1,.123.862V36.6H33.724V33.051a1.442,1.442,0,0,0-.269-.932,1.026,1.026,0,0,0-.835-.329,1.614,1.614,0,0,0-.77.193,2.563,2.563,0,0,0-.662.53V36.6H30.125V31.025h.635a.265.265,0,0,1,.281.213l.081.561Z" transform="translate(23.056 56.793)" fill="#fff"/>
      <path id="Path_7300" data-name="Path 7300" d="M36.524,35.8a2.022,2.022,0,0,1-.45.4,2.667,2.667,0,0,1-.547.271,3.467,3.467,0,0,1-.6.155,4.1,4.1,0,0,1-.608.046,2.9,2.9,0,0,1-1.062-.193,2.408,2.408,0,0,1-.847-.568,2.572,2.572,0,0,1-.554-.932,3.759,3.759,0,0,1-.2-1.284,3.21,3.21,0,0,1,.181-1.082,2.61,2.61,0,0,1,.516-.874,2.336,2.336,0,0,1,.82-.584,2.692,2.692,0,0,1,1.093-.217,2.533,2.533,0,0,1,.935.17,2.082,2.082,0,0,1,.739.483,2.279,2.279,0,0,1,.489.785,2.96,2.96,0,0,1,.177,1.063.708.708,0,0,1-.054.332.22.22,0,0,1-.2.085H32.717a3.019,3.019,0,0,0,.142.87,1.807,1.807,0,0,0,.346.619,1.349,1.349,0,0,0,.527.363,1.828,1.828,0,0,0,.681.124,2.061,2.061,0,0,0,.616-.085,2.759,2.759,0,0,0,.446-.178,3.1,3.1,0,0,0,.316-.178.439.439,0,0,1,.227-.081.236.236,0,0,1,.2.1l.308.394Zm-.878-2.61a1.9,1.9,0,0,0-.089-.588,1.377,1.377,0,0,0-.266-.464,1.229,1.229,0,0,0-.427-.309,1.618,1.618,0,0,0-1.636.282,1.9,1.9,0,0,0-.489,1.079Z" transform="translate(27.426 56.79)" fill="#fff"/>
      <path id="Path_7301" data-name="Path 7301" d="M34.276,32.107a2.533,2.533,0,0,1,.643-.862,1.5,1.5,0,0,1,1.251-.271.83.83,0,0,1,.277.124l-.069.808a.175.175,0,0,1-.181.147,1.373,1.373,0,0,1-.227-.031,1.785,1.785,0,0,0-.331-.031,1.251,1.251,0,0,0-.45.073,1.091,1.091,0,0,0-.354.22,1.635,1.635,0,0,0-.273.356,3.474,3.474,0,0,0-.227.479v3.487H33.271V31.04h.612a.33.33,0,0,1,.235.062.42.42,0,0,1,.092.22Z" transform="translate(32.019 56.781)" fill="#fff"/>
    </g>
  </g>
</svg>
