<svg xmlns="http://www.w3.org/2000/svg" xmlns:xlink="http://www.w3.org/1999/xlink" width="45" height="45" viewBox="0 0 45 45">
  <defs>
    <linearGradient id="linear-gradient" x1="0.5" x2="0.156" y2="0.791" gradientUnits="objectBoundingBox">
      <stop offset="0" stop-color="#3e3e3e"/>
      <stop offset="1" stop-color="#1a1a1a"/>
    </linearGradient>
  </defs>
  <g id="Group_8363" data-name="Group 8363" transform="translate(0 -0.5)">
    <circle id="Ellipse_1" data-name="Ellipse 1" cx="22.5" cy="22.5" r="22.5" transform="translate(0 0.5)" fill="url(#linear-gradient)"/>
    <g id="_10349953" data-name="10349953" transform="translate(-4 265.433)">
      <path id="Path_9276" data-name="Path 9276" d="M26.264-255.785a9.925,9.925,0,0,0-8.337,8.131,7.942,7.942,0,0,0-.1,2.082l.062,1.154L16.443-242.1A26.671,26.671,0,0,0,15-239.626a.871.871,0,0,0,.206.4c.165.227.309.268,1,.33.443.031,1.072.093,1.391.134l.6.062v2.432c0,2.329.01,2.453.237,2.834a1.8,1.8,0,0,0,.68.649c.423.227.567.237,2.288.237a8.423,8.423,0,0,1,1.9.1,10.146,10.146,0,0,1,.2,1.3,3.517,3.517,0,0,0,.309,1.371c.155.144.742.165,6.008.165h5.833l.2-.268c.2-.258.2-.278-.021-1.288a26.005,26.005,0,0,1-.216-5.967,5.914,5.914,0,0,1,.886-2.783,10.958,10.958,0,0,0,1.7-4.535,10.434,10.434,0,0,0-1.587-6.864,12.118,12.118,0,0,0-3.236-3.123A10.508,10.508,0,0,0,26.264-255.785Zm4.143.773a9.692,9.692,0,0,1,6.977,7.07,11.341,11.341,0,0,1,.052,4.287,11.576,11.576,0,0,1-1.36,3.226c-1.01,1.639-1.247,2.937-1.154,6.214a16.132,16.132,0,0,0,.433,3.813l.052.227L29.82-230.2l-5.6-.031-.072-.618c-.041-.34-.1-.866-.134-1.165a1.592,1.592,0,0,0-.309-.824l-.237-.278-2.03-.052-2.03-.052-.3-.34-.3-.33V-236.5a9.15,9.15,0,0,0-.134-2.71,7.056,7.056,0,0,0-1.566-.227c-.783-.072-1.443-.134-1.463-.144s.464-.814,1.061-1.773c2.041-3.277,1.886-2.947,1.773-3.628a9.449,9.449,0,0,1,.855-5.112,9.893,9.893,0,0,1,3.473-3.772,12.635,12.635,0,0,1,3.514-1.3A11.357,11.357,0,0,1,30.407-255.012Z" fill="#f5f5f5"/>
      <path id="Path_9277" data-name="Path 9277" d="M84.828-218.458a9.127,9.127,0,0,0-3.988,1.608c-.835.587-1.226,1.041-1.061,1.237.175.216.258.186,1-.412A8.086,8.086,0,0,1,86.9-217.84a8.183,8.183,0,0,1,4.3,1.907c.6.515.886.567.886.155,0-.577-2.37-2.051-3.978-2.463A10.168,10.168,0,0,0,84.828-218.458Z" transform="translate(-58.069 -33.565)" fill="#f5f5f5"/>
      <path id="Path_9278" data-name="Path 9278" d="M99.946-194.405a6.6,6.6,0,0,0-3.329,1.639c-.247.258-.278.34-.165.474.186.227.268.206.907-.3a5.27,5.27,0,0,1,3.576-1.226,5.623,5.623,0,0,1,3.782,1.484.589.589,0,0,0,.433.165c.7-.268-1.02-1.618-2.628-2.061A7.28,7.28,0,0,0,99.946-194.405Z" transform="translate(-73.001 -55.145)" fill="#f5f5f5"/>
      <path id="Path_9279" data-name="Path 9279" d="M115.41-170.485a4.056,4.056,0,0,0-1.793.917c-.247.258-.278.34-.165.474.175.216.247.206.8-.206a3.572,3.572,0,0,1,2.216-.618,4.83,4.83,0,0,1,1.742.783c.309.258.6.206.6-.113,0-.258-.814-.866-1.443-1.072A4.045,4.045,0,0,0,115.41-170.485Z" transform="translate(-88.249 -76.592)" fill="#f5f5f5"/>
      <path id="Path_9280" data-name="Path 9280" d="M128.75-146.744a1.238,1.238,0,0,0,.155,2.339,1.269,1.269,0,0,0,1.556-1.2,1.385,1.385,0,0,0-.773-1.144A.9.9,0,0,0,128.75-146.744Z" transform="translate(-101.342 -97.819)" fill="#f5f5f5"/>
    </g>
  </g>
</svg>
