<svg xmlns="http://www.w3.org/2000/svg" xmlns:xlink="http://www.w3.org/1999/xlink" width="45" height="45" viewBox="0 0 45 45">
  <defs>
    <linearGradient id="linear-gradient" x1="0.5" x2="0.156" y2="0.791" gradientUnits="objectBoundingBox">
      <stop offset="0" stop-color="#3e3e3e"/>
      <stop offset="1" stop-color="#1a1a1a"/>
    </linearGradient>
  </defs>
  <g id="Group_8363" data-name="Group 8363" transform="translate(0 -0.5)">
    <circle id="Ellipse_1" data-name="Ellipse 1" cx="22.5" cy="22.5" r="22.5" transform="translate(0 0.5)" fill="url(#linear-gradient)"/>
    <g id="_14135598" data-name="14135598" transform="translate(2 258.5)">
      <path id="Path_9274" data-name="Path 9274" d="M18.735-247.878a27.976,27.976,0,0,0-.122,4.551v4.418l-.571-.408a4.439,4.439,0,0,0-6.694,1.612c-.306.643-.367.714-.694.765a1.237,1.237,0,0,0-.663.367.93.93,0,0,0-.306.816.921.921,0,0,0,.3.806,1.487,1.487,0,0,0,.582.367c.163.041.3.133.3.214,0,.286.48.653.867.653.327,0,.357.031.357.275a2.249,2.249,0,0,0,1.347,1.786c.163.061.286.163.286.245,0,.112-.163.143-.643.143a4.763,4.763,0,0,0-3.357,1.357c-.99.98-1.306,2-1.306,4.123,0,1.388-.01,1.459-.2,1.459-.173,0-.2.071-.2.408v.408H28.409v-.816h-1.1l.245-.847c.143-.459.3-1.01.357-1.225l.1-.378h2.112a7.756,7.756,0,0,0,2.245-.122c.092-.092.122-2.388.122-9.694v-9.561l-1.143-.929L30.194-248H24.531A44.045,44.045,0,0,0,18.735-247.878ZM30.8-246.459l.878.714v18.154H29.99a5.937,5.937,0,0,1-1.684-.1c0-.061.122-.541.276-1.071.224-.8.245-.99.133-1.112-.112-.143-.622-.163-3.98-.163H20.878l-.306-.255a6.35,6.35,0,0,0-.99-.582,3.555,3.555,0,0,0-1.643-.367c-1.071-.051-1.214-.184-.551-.48a2.157,2.157,0,0,0,1.225-1.745c0-.061.184-.143.4-.184.388-.061.827-.439.827-.714,0-.071.153-.173.337-.245a1.2,1.2,0,0,0,.745-1.674,1.244,1.244,0,0,0-1-.694c-.459,0-.49-.3-.49-5.439v-4.765h10.5Zm-13.96,7.378a3.824,3.824,0,0,1,1.837,1.837A3.537,3.537,0,0,1,19-235.53c.041,1.061.041,1.1-.173,1.1s-.214-.051-.214-.847a2.983,2.983,0,0,0-.857-2.48,2.947,2.947,0,0,0-2.408-.857,2.947,2.947,0,0,0-2.408.857,2.966,2.966,0,0,0-.857,2.429c0,.745-.01.8-.214.8s-.214-.041-.173-1.051a3.513,3.513,0,0,1,.316-1.653A3.638,3.638,0,0,1,16.837-239.081Zm-.214,1.48.306.133-.582.2a3.7,3.7,0,0,0-1.163.714,2.4,2.4,0,0,1-1.643.8c-.633,0-.7-.1-.49-.684a2.192,2.192,0,0,1,1.2-1.245A6.334,6.334,0,0,1,16.623-237.6Zm.969,1.133c.112.071.163.357.184,1.163.041,1.051.031,1.071-.2,1.133-.3.071-2.235.459-2.286.459a1.819,1.819,0,0,0,.153.735,3.547,3.547,0,0,0,1.031-.133,7.288,7.288,0,0,1,1.153-.173c.327.051-.143.622-.765.918-1.112.531-1.459.6-1.959.439-1.755-.592-2-.867-2-2.2v-.878l.5.051a2.757,2.757,0,0,0,2.112-.816,4.807,4.807,0,0,1,.908-.653A1.57,1.57,0,0,1,17.592-236.469Zm-6.735.714c0,.418-.071.5-.286.286s-.071-.694.2-.694C10.816-236.163,10.857-235.979,10.857-235.755Zm9.327-.173a.276.276,0,0,1,0,.347c-.214.337-.347.265-.347-.173S19.97-236.265,20.184-235.928Zm-4.837,4.9a2.54,2.54,0,0,0,.541-.071c.255-.061.276-.041.276.245a.862.862,0,0,1-.816.816.862.862,0,0,1-.816-.816c0-.286.02-.306.276-.245A2.54,2.54,0,0,0,15.347-231.03Zm-1.449.888a1.931,1.931,0,0,0,.51.592,1.626,1.626,0,0,0,1.878,0,1.931,1.931,0,0,0,.51-.592c.122-.3.153-.306.806-.306a4.9,4.9,0,0,1,1.2.163c.49.143.531.173.388.327a16.463,16.463,0,0,0-.725,2.214c-.327,1.122-.673,2.347-.786,2.725l-.2.694h-2.1l-.061-.469a1.146,1.146,0,0,0-.367-.8l-.316-.316-1.48-.031-1.48-.031v-.541a.865.865,0,0,1,.306-.827c.367-.347.378-.429.082-.735l-.224-.235-.49.48-.49.48v.98a2.572,2.572,0,0,0,.122,1.1,2.286,2.286,0,0,0,1.02.122h.9v.816H9.2l.041-1.663c.031-1.561.051-1.684.316-2.265a3.7,3.7,0,0,1,3.49-2.184C13.755-230.449,13.765-230.438,13.9-230.142Zm13.429,2.827c-.306,1.061-.622,2.163-.7,2.449l-.163.541H18.337l.541-1.918c.306-1.051.622-2.153.7-2.449l.163-.531h8.123Zm-12.919,2.3a.67.67,0,0,1,.122.408c0,.265-.031.286-.408.286h-.408v-.408c0-.378.02-.408.286-.408A.67.67,0,0,1,14.408-225.02Z" fill="#f5f5f5"/>
      <path id="Path_9275" data-name="Path 9275" d="M128.245-231.878a6.245,6.245,0,0,0-.122,1.918,6.245,6.245,0,0,0,.122,1.918,1.749,1.749,0,0,0,.816.122h.694v.867c0,.7-.031.867-.153.867a1.549,1.549,0,0,0-.561.408,1.549,1.549,0,0,0-.408.561c0,.112-.122.153-.49.153-.439,0-.49-.031-.612-.306a1.931,1.931,0,0,0-.51-.592,1.719,1.719,0,0,0-1.816-.061,1.441,1.441,0,0,0-.7,1.367,1.441,1.441,0,0,0,.7,1.367,1.719,1.719,0,0,0,1.816-.061,1.931,1.931,0,0,0,.51-.592c.122-.275.173-.306.612-.306.357,0,.49.041.49.143a1.487,1.487,0,0,0,.357.531l.367.388-.694.694a3.027,3.027,0,0,1-.99.765,1.843,1.843,0,0,0-1.133,1.184,1.527,1.527,0,0,0,.469,1.52,1.508,1.508,0,0,0,2.225,0,1.551,1.551,0,0,0,.061-2.255l-.347-.378.612-.612.6-.6.622.622.612.622-.357.357a1.524,1.524,0,0,0,.051,2.245,1.508,1.508,0,0,0,2.225,0,1.527,1.527,0,0,0,.469-1.52,1.843,1.843,0,0,0-1.133-1.184,3.027,3.027,0,0,1-.99-.765l-.694-.694.367-.388a1.487,1.487,0,0,0,.357-.531c0-.1.133-.143.49-.143.439,0,.49.031.612.306a1.932,1.932,0,0,0,.51.592,1.719,1.719,0,0,0,1.816.061,1.441,1.441,0,0,0,.7-1.367,1.441,1.441,0,0,0-.7-1.367,1.719,1.719,0,0,0-1.816.061,1.932,1.932,0,0,0-.51.592c-.122.276-.173.306-.612.306-.367,0-.49-.041-.49-.153a1.549,1.549,0,0,0-.408-.561,1.549,1.549,0,0,0-.561-.408c-.122,0-.153-.163-.153-.867v-.867h.694a1.749,1.749,0,0,0,.816-.122,14.209,14.209,0,0,0,0-3.837,6.245,6.245,0,0,0-1.918-.122A6.245,6.245,0,0,0,128.245-231.878Zm3.143,1.918v1.225h-2.449v-2.449h2.449Zm-4.745,4.745a.806.806,0,0,1-.561,1.378.8.8,0,0,1-.561-.255.8.8,0,0,1-.255-.561.8.8,0,0,1,.255-.561.8.8,0,0,1,.561-.255A.8.8,0,0,1,126.643-225.214Zm4.082,0a.806.806,0,0,1-.561,1.378.8.8,0,0,1-.561-.255.8.8,0,0,1-.255-.561.8.8,0,0,1,.255-.561.8.8,0,0,1,.561-.255A.8.8,0,0,1,130.725-225.214Zm4.082,0a.806.806,0,0,1-.561,1.378.8.8,0,0,1-.561-.255.8.8,0,0,1-.255-.561.8.8,0,0,1,.255-.561.8.8,0,0,1,.561-.255A.8.8,0,0,1,134.806-225.214Zm-6.123,4.49a.806.806,0,0,1-.561,1.378.8.8,0,0,1-.561-.255.8.8,0,0,1-.255-.561.8.8,0,0,1,.255-.561.8.8,0,0,1,.561-.255A.8.8,0,0,1,128.684-220.724Zm4.082,0a.806.806,0,0,1-.561,1.378.8.8,0,0,1-.561-.255.8.8,0,0,1-.255-.561.8.8,0,0,1,.255-.561.8.8,0,0,1,.561-.255A.8.8,0,0,1,132.766-220.724Z" transform="translate(-104.612 -14.367)" fill="#f5f5f5"/>
      <path id="Path_9276" data-name="Path 9276" d="M156-43.386c0,.439.133.51.347.173a.276.276,0,0,0,0-.347C156.133-43.9,156-43.825,156-43.386Z" transform="translate(-132.898 -183.389)" fill="#f5f5f5"/>
    </g>
  </g>
</svg>
