<svg xmlns="http://www.w3.org/2000/svg" xmlns:xlink="http://www.w3.org/1999/xlink" width="45" height="45" viewBox="0 0 45 45">
  <defs>
    <linearGradient id="linear-gradient" x1="0.5" x2="0.156" y2="0.791" gradientUnits="objectBoundingBox">
      <stop offset="0" stop-color="#3e3e3e"/>
      <stop offset="1" stop-color="#1a1a1a"/>
    </linearGradient>
  </defs>
  <g id="Group_8363" data-name="Group 8363" transform="translate(0 -0.5)">
    <circle id="Ellipse_1" data-name="Ellipse 1" cx="22.5" cy="22.5" r="22.5" transform="translate(0 0.5)" fill="url(#linear-gradient)"/>
    <g id="_6672081" data-name="6672081" transform="translate(-2.172 258.233)">
      <path id="Path_9277" data-name="Path 9277" d="M14.807-247.664a3.475,3.475,0,0,0-2.621,3.1,3.375,3.375,0,0,0,1.614,3.184l.574.325v.607a.958.958,0,0,0,.412.986c.39.357.4.39.4,1.1a1.856,1.856,0,0,0,.13.867,3.183,3.183,0,0,0,1.3.13h1.17v.52a3.984,3.984,0,0,0,.1.866l.108.347h-.5a2.475,2.475,0,0,0-1.928.791,2.874,2.874,0,0,1-.769.574,1.5,1.5,0,0,0-.542.379.987.987,0,0,0-.314.866.918.918,0,0,0,.412.921l.4.368v6.066l-.4.368a.918.918,0,0,0-.412.921.942.942,0,0,0,.357.9.957.957,0,0,0,.888.357.957.957,0,0,0,.888-.357.942.942,0,0,0,.357-.9.918.918,0,0,0-.412-.921l-.4-.368v-5.427l.292.206a3.615,3.615,0,0,0,2.318.455c1.213,0,1.267.011,1.213.217-.043.173-.152.217-.509.217a1.056,1.056,0,0,0-.585.13,9.373,9.373,0,0,0,0,3.206,1.013,1.013,0,0,0,.574.13c.412,0,.444.032.628.455l.184.455-.325.336a1.239,1.239,0,0,0-.325.5,10.75,10.75,0,0,0,2.166,2.155,1.223,1.223,0,0,0,.487-.325l.336-.325.455.184c.422.184.455.217.455.639a1,1,0,0,0,.13.563,9.372,9.372,0,0,0,3.206,0,1,1,0,0,0,.13-.563c0-.422.032-.455.455-.639l.455-.184.336.325a1.239,1.239,0,0,0,.5.325A10.75,10.75,0,0,0,30.35-224.8a1.223,1.223,0,0,0-.325-.487l-.325-.336.184-.455c.184-.422.217-.455.628-.455a1.013,1.013,0,0,0,.574-.13,9.373,9.373,0,0,0,0-3.206A1.056,1.056,0,0,0,30.5-230c-.357,0-.466-.043-.509-.217-.054-.206,0-.217,1.191-.217,1.571,0,1.993-.13,2.686-.791a2.88,2.88,0,0,1,.78-.574,1.652,1.652,0,0,0,.574-.433.8.8,0,0,1,.758-.368h.433v6.066h-.433c-.357,0-.487-.065-.8-.412a.93.93,0,0,0-.921-.4.942.942,0,0,0-.9.357A.957.957,0,0,0,33-226.1a.957.957,0,0,0,.357.888.942.942,0,0,0,.9.357.918.918,0,0,0,.921-.412c.357-.39.39-.4,1.1-.4a1.856,1.856,0,0,0,.867-.13,51.508,51.508,0,0,0,0-7.539,1.889,1.889,0,0,0-.867-.13c-.7,0-.758-.022-1.061-.368a1.653,1.653,0,0,0-.574-.433,2.878,2.878,0,0,1-.78-.574,2.486,2.486,0,0,0-1.809-.791c-.379,0-.39-.011-.455-.52a4.07,4.07,0,0,0-2.275-3.011,4.488,4.488,0,0,1-1.116-.78l-.466-.5V-243h.433a.891.891,0,0,1,.8.4.958.958,0,0,0,.986.412h.607l.325.574a3.418,3.418,0,0,0,4.408,1.278,3.065,3.065,0,0,0,1.549-1.495,2.462,2.462,0,0,0,.368-1.6,2.462,2.462,0,0,0-.368-1.6,3.152,3.152,0,0,0-1.571-1.516,2.571,2.571,0,0,0-1.473-.282,2.641,2.641,0,0,0-1.462.26,3.922,3.922,0,0,0-1.592,1.516c-.173.368-.206.379-.791.379a.97.97,0,0,0-.986.4c-.357.4-.39.412-1.1.412a1.856,1.856,0,0,0-.867.13,5.106,5.106,0,0,0-.13,1.744c0,1.538-.011,1.625-.238,1.82a1.948,1.948,0,0,1-.314.206,3.022,3.022,0,0,1-.52-.433,5.123,5.123,0,0,0-2.5-1.213,4.738,4.738,0,0,0-5.047,2.665l-.314.7-.942.011h-.953v-.433c0-.357.065-.487.412-.8a.971.971,0,0,0,.4-.986v-.607l.563-.314a3.126,3.126,0,0,0,1.343-1.516,2.448,2.448,0,0,0,.26-1.408,2.6,2.6,0,0,0-.368-1.6,3.065,3.065,0,0,0-1.549-1.495A4.065,4.065,0,0,0,14.807-247.664Zm1.614.9a3.217,3.217,0,0,1,1.668,1.668,2.508,2.508,0,0,1-.368,2.285l-.26.347-.3-.292-.292-.292.217-.3a2.011,2.011,0,0,0-.011-1.874,1.529,1.529,0,0,0-1.451-.747,1.529,1.529,0,0,0-1.451.747,2.011,2.011,0,0,0-.011,1.874l.217.3-.292.292-.3.292-.26-.347a2.4,2.4,0,0,1,.314-3.271A2.391,2.391,0,0,1,16.421-246.765Zm18.2.867a3.217,3.217,0,0,1,1.668,1.668,2.508,2.508,0,0,1-.368,2.285l-.26.347-.3-.292-.292-.292.217-.3a2.011,2.011,0,0,0-.011-1.874,1.529,1.529,0,0,0-1.451-.747,1.529,1.529,0,0,0-1.451.747,2.011,2.011,0,0,0-.011,1.874l.217.3-.292.292-.3.292-.26-.347a2.4,2.4,0,0,1,.314-3.271A2.391,2.391,0,0,1,34.618-245.9Zm-18.4,1.007a.855.855,0,0,1-.6,1.462.915.915,0,0,1-.867-.867.915.915,0,0,1,.867-.867A.844.844,0,0,1,16.215-244.891Zm18.2.867a.855.855,0,0,1-.6,1.462.844.844,0,0,1-.6-.271.844.844,0,0,1-.271-.6.844.844,0,0,1,.271-.6.844.844,0,0,1,.6-.271A.844.844,0,0,1,34.412-244.025Zm-4.17.325c.282.347-.141.877-.509.639a.425.425,0,0,1,.184-.8A.5.5,0,0,1,30.242-243.7Zm-13.788,1.484.271.249-.314.13a2.563,2.563,0,0,1-1.538.022c-.336-.119-.347-.13-.152-.336a1.542,1.542,0,0,1,.412-.314A1.459,1.459,0,0,1,16.454-242.216Zm18.2.867.271.249-.314.13a2.563,2.563,0,0,1-1.538.022c-.336-.119-.347-.13-.152-.336a1.542,1.542,0,0,1,.412-.314A1.459,1.459,0,0,1,34.65-241.35Zm-18.706.682c.282.347-.141.877-.509.639a.425.425,0,0,1,.184-.8A.5.5,0,0,1,15.945-240.667Zm7.69.011a5.371,5.371,0,0,1,.964.412,5.571,5.571,0,0,1,1.451,1.538,1.336,1.336,0,0,0,1.267.856,1.008,1.008,0,0,0,.91-.368l.379-.357.487.238a3.161,3.161,0,0,1,1.69,2.816,1.178,1.178,0,0,0,.13.628,1.683,1.683,0,0,0,.8.13,2.032,2.032,0,0,1,1.538.455l.238.238-.238.26a.984.984,0,0,0-.249.78.984.984,0,0,0,.249.78l.238.26-.238.238c-.4.368-.791.455-2.015.455-.888,0-1.116-.033-1.018-.13.26-.26.108-.5-.931-1.516-1.051-1.04-1.061-1.051-1.181-1.744a3.15,3.15,0,0,0-.975-1.982c-.552-.542-1.061-.78-1.321-.617-.141.087-.184.347-.206,1.43l-.032,1.311-.422.282-.433.292-.433-.292-.422-.282-.032-1.311c-.022-1.083-.065-1.343-.206-1.43-.26-.162-.769.076-1.321.617a3.15,3.15,0,0,0-.975,1.982c-.119.693-.13.7-1.181,1.744-1.04,1.018-1.191,1.256-.931,1.516.1.1-.13.13-1.018.13-1.224,0-1.614-.087-2.015-.455l-.238-.238.238-.26a1.3,1.3,0,0,0,0-1.56l-.238-.26.238-.238a2.2,2.2,0,0,1,1.7-.455c1.116,0,1.2-.087.953-1.029a5.863,5.863,0,0,1-.184-1.126v-.444h.433a.891.891,0,0,1,.8.4.918.918,0,0,0,.921.412.942.942,0,0,0,.9-.357.957.957,0,0,0,.357-.888.957.957,0,0,0-.357-.888.942.942,0,0,0-.9-.357.93.93,0,0,0-.921.4c-.271.3-.455.412-.693.412h-.325l.227-.466A3.9,3.9,0,0,1,23.635-240.656Zm4.008,1.289c.282.347-.141.877-.509.639a.425.425,0,0,1,.184-.8A.5.5,0,0,1,27.643-239.367Zm-6.5,1.3c.282.347-.141.877-.509.639a.425.425,0,0,1,.184-.8A.5.5,0,0,1,21.144-238.068Zm2.654,4.495a5.661,5.661,0,0,0,.921.542,5.661,5.661,0,0,0,.921-.542l.812-.552V-236.1l.271.249a3.206,3.206,0,0,1,.477,2.719,3.091,3.091,0,0,1-1.137,1.43l-.477.336v5.567l-.238.065a3.439,3.439,0,0,1-1.246,0l-.249-.065v-5.567l-.477-.336a3.091,3.091,0,0,1-1.137-1.43,3.249,3.249,0,0,1,.444-2.686l.249-.271.032.986.032.986Zm-8.286.271c.282.347-.141.877-.509.639a.425.425,0,0,1,.184-.8A.5.5,0,0,1,15.511-233.3Zm19.063,0c.282.347-.141.877-.509.639a.425.425,0,0,1,.184-.8A.5.5,0,0,1,34.575-233.3Zm-12.813,1.17a3.881,3.881,0,0,0,.639.823l.282.217-.39.368a4,4,0,0,0-.682,1.007,2.821,2.821,0,0,0-.3,1.506,2.523,2.523,0,0,0,.368,1.549,3.2,3.2,0,0,0,1.571,1.516,2.571,2.571,0,0,0,1.473.282,2.571,2.571,0,0,0,1.473-.282,3.2,3.2,0,0,0,1.571-1.516,2.523,2.523,0,0,0,.368-1.549,2.821,2.821,0,0,0-.3-1.506,4,4,0,0,0-.682-1.007l-.39-.368.292-.217a4.013,4.013,0,0,0,.617-.812,2.6,2.6,0,0,1,.433-.65c.065-.043.357.173.661.477l.552.552-.292.314c-.357.379-.357.433-.022,1.1a2.624,2.624,0,0,1,.271.693c0,.271.325.5.715.5h.368v1.733h-.368c-.39,0-.715.227-.715.5a2.624,2.624,0,0,1-.271.693c-.336.672-.336.726.022,1.1l.292.314-.563.552-.552.563-.314-.292c-.379-.357-.433-.357-1.1-.022a2.624,2.624,0,0,1-.693.271c-.271,0-.5.325-.5.715v.368H23.852V-223c0-.39-.227-.715-.5-.715a2.624,2.624,0,0,1-.693-.271c-.672-.336-.726-.336-1.1.022l-.314.292-.552-.563-.563-.552.292-.314c.357-.379.357-.433.022-1.1a2.624,2.624,0,0,1-.271-.693c0-.271-.325-.5-.715-.5h-.368v-1.733h.368c.39,0,.715-.227.715-.5a2.624,2.624,0,0,1,.271-.693c.336-.672.336-.737-.022-1.1l-.292-.3.531-.542c.292-.3.585-.531.65-.509A2.923,2.923,0,0,1,21.761-232.132Zm1.224,3.888-.011,1.874-.3-.357a2.509,2.509,0,0,1-.433-2.307,2.973,2.973,0,0,1,.7-1.072C22.963-230.107,22.985-229.262,22.985-228.244Zm4.213-.791a2.451,2.451,0,0,1-.433,2.307l-.3.357v-3.791l.3.357A2.857,2.857,0,0,1,27.2-229.034Zm7.376,2.665c.282.347-.141.877-.509.639a.424.424,0,0,1-.141-.639A.419.419,0,0,1,34.575-226.37Zm-19.063,1.733a.428.428,0,0,1-.13.639c-.379.238-.8-.292-.52-.639A.419.419,0,0,1,15.511-224.637Z" transform="translate(0 0)" fill="#f5f5f5"/>
    </g>
  </g>
</svg>
