<svg xmlns="http://www.w3.org/2000/svg" xmlns:xlink="http://www.w3.org/1999/xlink" width="45" height="45" viewBox="0 0 45 45">
  <defs>
    <linearGradient id="linear-gradient" x1="0.5" x2="0.156" y2="0.791" gradientUnits="objectBoundingBox">
      <stop offset="0" stop-color="#3e3e3e"/>
      <stop offset="1" stop-color="#1a1a1a"/>
    </linearGradient>
  </defs>
  <g id="Group_8363" data-name="Group 8363" transform="translate(0 -0.5)">
    <circle id="Ellipse_1" data-name="Ellipse 1" cx="22.5" cy="22.5" r="22.5" transform="translate(0 0.5)" fill="url(#linear-gradient)"/>
    <g id="share_6855367" transform="translate(1.3 513.5)">
      <path id="Path_9274" data-name="Path 9274" d="M16.835-503.893a15.883,15.883,0,0,0-.779,1.451l-.672,1.344.021.485a1.675,1.675,0,0,0,.149.736,1.968,1.968,0,0,0,.859.848c.256.117.261.128.261.347v.229H10.537l-.128.133-.133.128v14.052l-1.291,1.3L7.7-481.555l.032.448a3.6,3.6,0,0,0,1.125,2.416,3.536,3.536,0,0,0,1.632.992l.4.123h20.1l.4-.123a3.536,3.536,0,0,0,1.632-.992,3.6,3.6,0,0,0,1.125-2.416l.032-.448-1.285-1.29-1.291-1.3v-14.052l-.133-.128-.128-.133H25.207v-.235c0-.224.005-.235.235-.32a1.744,1.744,0,0,0,.864-.821,1.659,1.659,0,0,0,.171-.784l.021-.485-.672-1.344a15.881,15.881,0,0,0-.779-1.451c-.107-.107-.181-.107-4.106-.107S16.942-504,16.835-503.893Zm1.525,1.6-.272.853H16.515l.427-.853.427-.853h1.264Zm2.154,0v.853h-1.53l.272-.853.272-.853h.987Zm2.112,0,.272.853h-1.53v-1.706h.987Zm2.314,0,.427.853H23.794l-.272-.853-.272-.853h1.264Zm-7.007,1.877a.86.86,0,0,1-1.157.613.967.967,0,0,1-.507-.613l-.032-.171h1.733Zm2.56,0a.86.86,0,0,1-1.157.613.967.967,0,0,1-.507-.613l-.032-.171H20.53Zm2.56,0a.86.86,0,0,1-1.157.613.967.967,0,0,1-.507-.613l-.032-.171H23.09Zm2.56,0a.86.86,0,0,1-1.157.613.967.967,0,0,1-.507-.613l-.032-.171H25.65Zm-7.119,1.088a1.758,1.758,0,0,0,.768.421,1.6,1.6,0,0,0,1.5-.357l.176-.171.144.133a1.669,1.669,0,0,0,2.24.037l.171-.165.181.16a1.745,1.745,0,0,0,.432.256l.245.1v3.45H22.221v-1.147c0-1.525.1-1.413-1.28-1.413s-1.28-.112-1.28,1.413v1.147H17.528v-3.445l.288-.123a1.441,1.441,0,0,0,.405-.245C18.371-499.435,18.4-499.441,18.493-499.329Zm-1.818,3.088v1.365l.133.128.128.133h8.01l.128-.133.133-.128V-497.6h5.546v13.225H11.129V-497.6h5.546Zm4.693-.08v.853h-.853v-1.706h.853Zm10.479,13.652.853.853H9.182l.853-.853.853-.853h20.1Zm-15.5,2.448a4.138,4.138,0,0,0,.517.853c.144.112.155.112,4.106.112,3.888,0,3.968,0,4.074-.107a6.9,6.9,0,0,0,.48-.853l.373-.747h3.68c3.269,0,3.68.011,3.68.08a2.139,2.139,0,0,1-.112.416,3.1,3.1,0,0,1-1.893,1.914l-.315.123-9.812.016c-10.841.016-10.2.032-10.911-.32a3.625,3.625,0,0,1-1.168-1.056,3.733,3.733,0,0,1-.427-1.083c0-.085.208-.091,3.68-.091h3.68Zm8.378-.315-.213.427H17.368l-.213-.427-.213-.427h8Z" transform="translate(0 0)" fill="#f5f5f5"/>
      <path id="Path_9275" data-name="Path 9275" d="M182.51-311.7a2.208,2.208,0,0,0-.853.5,1.654,1.654,0,0,0-.421,1.152l-.011.443-.672.373-.677.368-.251-.208a2.1,2.1,0,0,0-1.957-.464,1.992,1.992,0,0,0-1,.6,2.128,2.128,0,0,0,1,3.5,2.1,2.1,0,0,0,1.957-.464l.251-.208.667.363.672.368.011.453a1.363,1.363,0,0,0,.2.784,1.52,1.52,0,0,0,.768.747,1.266,1.266,0,0,0,.725.139,1.249,1.249,0,0,0,.731-.144,1.813,1.813,0,0,0,.8-.8,1.239,1.239,0,0,0,.144-.731,1.18,1.18,0,0,0-.176-.789,1.552,1.552,0,0,0-.773-.747,1.744,1.744,0,0,0-1.8.235.432.432,0,0,1-.165.128,7.28,7.28,0,0,1-.725-.373l-.683-.373.053-.32a2.145,2.145,0,0,0,0-.64l-.053-.32.683-.373a7.287,7.287,0,0,1,.725-.373.432.432,0,0,1,.165.128,1.728,1.728,0,0,0,1.8.229,1.786,1.786,0,0,0,.8-.8,1.239,1.239,0,0,0,.144-.731,1.18,1.18,0,0,0-.176-.789,1.509,1.509,0,0,0-.763-.736A2.009,2.009,0,0,0,182.51-311.7Zm.757.891a.828.828,0,0,1,.24,1.36.8.8,0,0,1-1.189-.011A.837.837,0,0,1,183.268-310.808Zm-4.362,2.245a1.434,1.434,0,0,1,.411.411.96.96,0,0,1,.16.672.96.96,0,0,1-.16.672,1.441,1.441,0,0,1-.421.421.96.96,0,0,1-.672.16.96.96,0,0,1-.672-.16,1.441,1.441,0,0,1-.421-.421.981.981,0,0,1-.16-.667.994.994,0,0,1,.149-.656,1.189,1.189,0,0,1,1.2-.608A1.1,1.1,0,0,1,178.905-308.563Zm4.362,2.874a.828.828,0,0,1,.24,1.36.8.8,0,0,1-1.189-.011A.837.837,0,0,1,183.268-305.689Z" transform="translate(-159.415 -182.014)" fill="#f5f5f5"/>
    </g>
  </g>
</svg>
