<svg xmlns="http://www.w3.org/2000/svg" xmlns:xlink="http://www.w3.org/1999/xlink" width="45" height="45" viewBox="0 0 45 45">
  <defs>
    <linearGradient id="linear-gradient" x1="0.5" x2="0.156" y2="0.791" gradientUnits="objectBoundingBox">
      <stop offset="0" stop-color="#3e3e3e"/>
      <stop offset="1" stop-color="#1a1a1a"/>
    </linearGradient>
  </defs>
  <g id="Group_8364" data-name="Group 8364" transform="translate(0 -0.5)">
    <g id="Group_8363" data-name="Group 8363">
      <circle id="Ellipse_1" data-name="Ellipse 1" cx="22.5" cy="22.5" r="22.5" transform="translate(0 0.5)" fill="url(#linear-gradient)"/>
    </g>
    <g id="ftp_17001268" transform="translate(-1.5 513.5)">
      <path id="Path_9278" data-name="Path 9278" d="M80.119-503.876l-.119.124v17.158l.14.108.146.113h9.363c9.013,0,9.374-.005,9.487-.1s.243-.679,1.245-5.515c.615-2.976,1.105-5.466,1.089-5.536-.059-.253-.183-.28-1.213-.28H99.3v-2.755l-.135-.129-.129-.135H87.4l-.69-1.515a12.405,12.405,0,0,0-.8-1.59A15.02,15.02,0,0,0,83.019-504H80.232Zm6.027,2.124c.372.825.717,1.536.771,1.59.086.092.394.1,5.86.1h5.768v2.264H90.539c-5.854,0-8.037.016-8.134.059a.358.358,0,0,0-.167.151c-.022.048-.35,1.612-.733,3.482s-.712,3.418-.722,3.45-.022-2.792-.022-6.269l-.005-6.318h2.361l2.356.005Zm14.485,4.825c-.016.07-.469,2.259-1.008,4.868s-.986,4.787-1,4.835c-.027.092-.5.1-8.894.1-7.051,0-8.862-.016-8.862-.07,0-.032.453-2.264,1.008-4.959l1.008-4.889h17.778Z" transform="translate(-65.754)" fill="#f5f5f5"/>
      <path id="Path_9279" data-name="Path 9279" d="M178.42-353.6a1.6,1.6,0,0,0-.83.852,1.427,1.427,0,0,0,0,.981l.092.291-.868.868-.868.863-.286-.1a1.7,1.7,0,0,0-2.113.895,1.874,1.874,0,0,0,.005,1.348,1.676,1.676,0,0,0,1.267.97,1.671,1.671,0,0,0,1.747-.895c.075-.156.113-.183.232-.162.075.016.755.1,1.509.194,1.962.232,1.757.178,1.838.474a1.194,1.194,0,0,0,.35.534,1.419,1.419,0,0,0,2.372-1.412,1.543,1.543,0,0,0-.895-.938,1.486,1.486,0,0,0-1.6.464,1.861,1.861,0,0,0-.194.286,8.455,8.455,0,0,1-1.606-.135c-.873-.108-1.639-.2-1.7-.216-.108-.022-.291-.431-.313-.706-.005-.081.237-.367.836-.981l.852-.868.2.086a1.851,1.851,0,0,0,1.132-.059,1.743,1.743,0,0,0,.641-.641,1.79,1.79,0,0,0,.049-1.154,1.614,1.614,0,0,0-.7-.782A1.71,1.71,0,0,0,178.42-353.6Zm1,.9a.656.656,0,0,1-.512,1.11.674.674,0,0,1-.577-.976A.662.662,0,0,1,179.423-352.7Zm-3.914,3.622a.913.913,0,0,1,.458.981.91.91,0,0,1-1.418.555,1,1,0,0,1-.394-.749,1.22,1.22,0,0,1,.383-.728A.96.96,0,0,1,175.509-349.076Zm6.4,1.073a.663.663,0,0,1,.07,1,.663.663,0,0,1-1-.07.57.57,0,0,1-.135-.431.48.48,0,0,1,.183-.453.48.48,0,0,1,.453-.183A.57.57,0,0,1,181.908-348Z" transform="translate(-154.142 -142.224)" fill="#f5f5f5"/>
      <path id="Path_9280" data-name="Path 9280" d="M23.443-160.882a7.41,7.41,0,0,0-.086,2.156v2.038H19.847l-.129.135c-.129.124-.135.162-.135.809v.674H16.969a13.731,13.731,0,0,1-2.614-.07,2.6,2.6,0,0,0-.539-.954,2.5,2.5,0,0,0-.582-.394,1.345,1.345,0,0,0-.792-.167,1.88,1.88,0,0,0-1.763,1.089,1.392,1.392,0,0,0-.178.846,1.4,1.4,0,0,0,.172.841,1.941,1.941,0,0,0,2.862.771,1.845,1.845,0,0,0,.717-.911l.124-.3h5.207v.647c0,.62.005.658.135.782l.129.135H27.62l.129-.135c.129-.124.135-.162.135-.782v-.647H33.1l.1.253a1.9,1.9,0,0,0,1.288,1.207,1.924,1.924,0,0,0,2.313-1.024,1.4,1.4,0,0,0,.173-.841,1.392,1.392,0,0,0-.178-.846,1.88,1.88,0,0,0-1.763-1.089,1.345,1.345,0,0,0-.792.167,2.5,2.5,0,0,0-.582.394,2.6,2.6,0,0,0-.539.954,13.731,13.731,0,0,1-2.614.07H27.885v-.674c0-.647-.005-.685-.135-.809l-.129-.135H24.111v-2.038c0-2.3.005-2.275-.377-2.275C23.578-161,23.5-160.968,23.443-160.882Zm-10.4,5.143a1.109,1.109,0,0,1,.534.712,1.2,1.2,0,0,1-1.472,1.461,1.183,1.183,0,0,1-.507-.313A1.186,1.186,0,0,1,13.044-155.739ZM27.13-154.72v1.213H20.338v-2.426H27.13Zm8.458-1.051a1.161,1.161,0,0,1,.28,1.887,1.1,1.1,0,0,1-1.3.264,1.128,1.128,0,0,1-.722-1.078A1.188,1.188,0,0,1,35.588-155.771Z" transform="translate(0 -324.51)" fill="#f5f5f5"/>
    </g>
  </g>
</svg>
