<svg xmlns="http://www.w3.org/2000/svg" xmlns:xlink="http://www.w3.org/1999/xlink" width="45" height="45" viewBox="0 0 45 45">
  <defs>
    <linearGradient id="linear-gradient" x1="0.5" x2="0.156" y2="0.791" gradientUnits="objectBoundingBox">
      <stop offset="0" stop-color="#3e3e3e"/>
      <stop offset="1" stop-color="#1a1a1a"/>
    </linearGradient>
  </defs>
  <g id="Group_8363" data-name="Group 8363" transform="translate(-1251 932)">
    <g id="banner-main1" transform="translate(1251 -932)">
      <circle id="Ellipse_1" data-name="Ellipse 1" cx="22.5" cy="22.5" r="22.5" fill="url(#linear-gradient)"/>
    </g>
    <g id="dashboard_9340107" transform="translate(1235.079 -435.668)">
      <path id="Path_9246" data-name="Path 9246" d="M32.751-486.325c-3.7.006-6.758.034-6.781.056-.079.079-.056,19.679.017,19.769a25.311,25.311,0,0,0,3.736.073H33.4l.011,2.966.017,2.961,9.123.017c5.022.006,9.151-.011,9.174-.034.073-.073.056-19.673-.017-19.763a22.93,22.93,0,0,0-3.736-.079H44.3v-2.949a19.3,19.3,0,0,0-.067-2.977C44.115-486.331,40.121-486.342,32.751-486.325Zm6.6.966v.506H26.375v-1.011H39.352Zm1.517,0v.506H39.857v-1.011h1.011Zm1.461,0v.506H41.318v-1.011h1.011Zm1.517,0v.506H42.835v-1.011h1.011Zm0,9.719v8.764H26.375V-484.4H35.11l8.736.006Zm2.977-3.736v.534l-1.247-.011-1.253-.017-.017-.444a2.579,2.579,0,0,1,.011-.522c.022-.056.287-.073,1.27-.073h1.236Zm1.517,0v.534H47.329v-1.067H48.34Zm1.489,0v.506H48.818l-.017-.522-.017-.522.522.017.522.017Zm1.489,0v.534H50.306v-1.067h1.011Zm0,9.719v8.736H33.846v-5.505h1.73l.236.433a7.762,7.762,0,0,0,5.393,3.927,9.5,9.5,0,0,0,2.736,0,7.733,7.733,0,0,0,6.23-6.213,8.809,8.809,0,0,0-.028-2.848,7.855,7.855,0,0,0-2.977-4.713,8.593,8.593,0,0,0-2.32-1.174l-.551-.163v-1.213h7.022Zm-6.09-6.753a7.541,7.541,0,0,1,3.865,3.567,7.713,7.713,0,0,1,.725,2.635l.022.3H44.351V-476.7l.326.1C44.851-476.539,45.1-476.455,45.228-476.41Zm4.6,7.3a7.371,7.371,0,0,1-1.7,4.135l-.253.3-1.764-1.764L44.351-468.2V-469.4h5.5Zm-2.534,4.977a7.527,7.527,0,0,1-3.163,1.573,7.413,7.413,0,0,1-4.747-.59,9.44,9.44,0,0,1-1.517-.994l-.225-.2,1.039-1.039,1.039-1.045h2.219c1.3,0,2.253-.022,2.3-.056s.09-.185.107-.567l.017-.517,1.6,1.6,1.6,1.6Zm-9.118-1.421-.871.876-.191-.214a8.153,8.153,0,0,1-.848-1.213l-.18-.32h2.961Z" transform="translate(0 0)" fill="#f5f5f5"/>
      <path id="Path_9247" data-name="Path 9247" d="M52.59-432.954a1.02,1.02,0,0,0-.506.551A4.1,4.1,0,0,0,52-431.14c.006,1.36.079,1.584.59,1.82.2.09.382.107,1.517.107s1.32-.017,1.517-.107c.522-.236.59-.455.59-1.815,0-.933-.017-1.118-.107-1.309a.971.971,0,0,0-.528-.528A15.615,15.615,0,0,0,52.59-432.954Zm2.9.427c.236.129.275.331.275,1.4a5.007,5.007,0,0,1-.067,1.157c-.129.281-.27.309-1.612.309H52.843l-.18-.163-.185-.163-.017-1.056a4.861,4.861,0,0,1,.051-1.213c.129-.315.185-.326,1.584-.326A8.991,8.991,0,0,1,55.489-432.527Z" transform="translate(-24.614 -50.303)" fill="#f5f5f5"/>
      <path id="Path_9248" data-name="Path 9248" d="M152.59-432.954a1.1,1.1,0,0,0-.534.6,8.6,8.6,0,0,0-.056,1.247c0,1.331.073,1.55.59,1.786.2.09.382.107,1.517.107s1.32-.017,1.517-.107c.511-.236.584-.461.584-1.831.006-.921-.011-1.1-.1-1.292a.971.971,0,0,0-.528-.528A15.612,15.612,0,0,0,152.59-432.954Zm2.927.455c.225.152.253.348.236,1.455l-.017,1.056-.185.163-.18.163h-1.242c-1.36,0-1.494-.028-1.618-.326a5.045,5.045,0,0,1-.051-1.241l.017-1.084.157-.135c.157-.135.163-.135,1.461-.135C155.152-432.583,155.427-432.567,155.517-432.5Z" transform="translate(-118.996 -50.303)" fill="#f5f5f5"/>
      <path id="Path_9249" data-name="Path 9249" d="M252.7-432.7a1.154,1.154,0,0,0-.562.663c-.017.1-.028.691-.017,1.315l.017,1.129.163.208c.3.4.466.432,1.989.416l1.343-.017.225-.152c.4-.264.438-.41.438-1.758,0-1.326-.017-1.4-.4-1.7l-.2-.157-1.41-.011A6.066,6.066,0,0,0,252.7-432.7Zm2.893.455c.247.129.292.393.27,1.522l-.017.977-.157.152-.152.157-1.247.017a6.217,6.217,0,0,1-1.4-.051c-.292-.118-.326-.27-.326-1.455v-1.079l.163-.163.163-.163h1.275A4.535,4.535,0,0,1,255.6-432.248Z" transform="translate(-213.491 -50.555)" fill="#f5f5f5"/>
      <path id="Path_9250" data-name="Path 9250" d="M52.19-346.893c-.112.09-.124.129-.073.213s.2.1,2.056.118c1.7.011,2.006,0,2.062-.067a.215.215,0,0,0-.124-.337c-.067-.017-.949-.034-1.955-.034C52.42-347,52.314-346.994,52.19-346.893Z" transform="translate(-24.697 -131.505)" fill="#f5f5f5"/>
      <path id="Path_9251" data-name="Path 9251" d="M152.09-346.91a.27.27,0,0,0-.09.157c0,.191.135.2,2.135.191,1.843-.017,1.989-.022,2.045-.118s.039-.124-.073-.213-.236-.107-2.028-.107C152.427-347,152.163-346.989,152.09-346.91Z" transform="translate(-118.996 -131.505)" fill="#f5f5f5"/>
      <path id="Path_9252" data-name="Path 9252" d="M252.246-346.927a.183.183,0,0,0-.062.225l.034.152h2.022c1.955,0,2.022-.006,2.079-.112.045-.084.034-.135-.056-.225-.107-.107-.18-.112-2.011-.112A9.028,9.028,0,0,0,252.246-346.927Z" transform="translate(-213.54 -131.505)" fill="#f5f5f5"/>
      <path id="Path_9253" data-name="Path 9253" d="M52.224-326.882c-.079.084-.09.135-.039.208s.2.1,1.343.1h1.286l.017-.135c.039-.258-.079-.286-1.337-.286C52.393-327,52.325-326.994,52.224-326.882Z" transform="translate(-24.76 -150.382)" fill="#f5f5f5"/>
      <path id="Path_9254" data-name="Path 9254" d="M152.09-326.91a.27.27,0,0,0-.09.157c0,.174.152.208,1.011.191.736-.017.865-.028.921-.112s.034-.124-.045-.208c-.1-.107-.169-.118-.91-.118C152.326-327,152.163-326.983,152.09-326.91Z" transform="translate(-118.996 -150.382)" fill="#f5f5f5"/>
      <path id="Path_9255" data-name="Path 9255" d="M252.246-326.927a.189.189,0,0,0-.062.23l.034.146,1.674-.011,1.668-.017.017-.135c.039-.27-.056-.286-1.7-.286A6.3,6.3,0,0,0,252.246-326.927Z" transform="translate(-213.54 -150.382)" fill="#f5f5f5"/>
      <path id="Path_9256" data-name="Path 9256" d="M52.224-306.882c-.079.084-.09.135-.039.208s.23.1,1.691.112c1.584.011,1.635.011,1.7-.1.045-.09.034-.135-.056-.225-.107-.107-.18-.112-1.646-.112C52.387-307,52.325-306.994,52.224-306.882Z" transform="translate(-24.76 -169.258)" fill="#f5f5f5"/>
      <path id="Path_9257" data-name="Path 9257" d="M152.09-306.91a.27.27,0,0,0-.09.157c0,.185.129.2,1.388.2h1.253l.034-.152c.073-.27-.045-.3-1.331-.3C152.36-307,152.163-306.989,152.09-306.91Z" transform="translate(-118.996 -169.258)" fill="#f5f5f5"/>
      <path id="Path_9258" data-name="Path 9258" d="M252.246-306.927a.183.183,0,0,0-.062.225l.034.152h2.022c1.955,0,2.022-.006,2.079-.112.045-.084.034-.135-.056-.225-.107-.107-.18-.112-2.011-.112A9.028,9.028,0,0,0,252.246-306.927Z" transform="translate(-213.54 -169.258)" fill="#f5f5f5"/>
      <path id="Path_9259" data-name="Path 9259" d="M53.105-272.973a3.582,3.582,0,0,0-.039.725v.685l-.247.146a.959.959,0,0,0,.034,1.725l.213.107.011,1.477.017,1.472.135.017c.27.039.287-.062.287-1.6,0-1.208.011-1.421.084-1.421.146,0,.517-.41.59-.657a.958.958,0,0,0-.466-1.112l-.208-.112v-.635a3.488,3.488,0,0,0-.056-.747A.274.274,0,0,0,53.105-272.973Zm.545,2.1a.408.408,0,0,1,.079.528.616.616,0,0,1-.466.309.6.6,0,0,1-.472-.331.489.489,0,0,1,.478-.68A.386.386,0,0,1,53.65-270.872Z" transform="translate(-24.894 -201.336)" fill="#f5f5f5"/>
      <path id="Path_9260" data-name="Path 9260" d="M112.944-272.946a20.74,20.74,0,0,0-.056,2.242v2.135l-.247.146a.93.93,0,0,0-.191,1.477.939.939,0,0,0,1.382,0,.947.947,0,0,0-.213-1.494l-.225-.124v-2.1c0-1.23-.022-2.157-.056-2.241A.216.216,0,0,0,112.944-272.946Zm.545,4.972a.5.5,0,0,1,0,.742.517.517,0,0,1-.7,0,.506.506,0,0,1,.348-.876A.565.565,0,0,1,113.489-267.974Z" transform="translate(-81.401 -201.295)" fill="#f5f5f5"/>
      <path id="Path_9261" data-name="Path 9261" d="M173.013-272.744a5.287,5.287,0,0,0-.062,1.118v1.011l-.247.146a.954.954,0,0,0,.034,1.663l.213.118v1.028c0,1.112.028,1.242.287,1.2l.135-.017.017-1.1.011-1.107.169-.067a1.164,1.164,0,0,0,.567-.669.913.913,0,0,0-.287-.927,1.318,1.318,0,0,0-.331-.23c-.112-.034-.118-.073-.129-1.14l-.017-1.107-.152-.017A.182.182,0,0,0,173.013-272.744Zm.517,2.7a.478.478,0,0,1,.129.612.514.514,0,0,1-.972-.174c-.028-.18-.006-.23.14-.382A.516.516,0,0,1,173.53-270.042Z" transform="translate(-138.094 -201.497)" fill="#f5f5f5"/>
      <path id="Path_9262" data-name="Path 9262" d="M232.7-272.834a.954.954,0,0,0-.466.888.966.966,0,0,0,.494.786l.219.107v2.152c0,2.32.006,2.371.287,2.331l.135-.017.017-2.225.011-2.23.169-.067a1.148,1.148,0,0,0,.562-.674,1,1,0,0,0-.511-1.1A1.074,1.074,0,0,0,232.7-272.834Zm.764.382a.586.586,0,0,1,.191.253.386.386,0,0,1,0,.382.46.46,0,0,1-.483.315.563.563,0,0,1-.506-.506A.554.554,0,0,1,233.467-272.452Z" transform="translate(-194.722 -201.385)" fill="#f5f5f5"/>
      <path id="Path_9263" data-name="Path 9263" d="M292.99-272.786a5.975,5.975,0,0,0-.067,1.517c0,1.236-.011,1.449-.084,1.449-.124,0-.483.343-.567.545a1,1,0,0,0,.545,1.281c.1.034.107.1.107.725,0,.747.034.848.292.809.129-.017.129-.034.146-.747l.017-.73.242-.129a.962.962,0,0,0,.5-.854.894.894,0,0,0-.562-.865l-.185-.09-.011-1.477-.017-1.472-.14-.017A.285.285,0,0,0,292.99-272.786Zm.4,3.421a.543.543,0,0,1,.27.573.511.511,0,0,1-.478.376c-.27,0-.365-.045-.455-.23a.471.471,0,0,1,.079-.618A.471.471,0,0,1,293.389-269.365Z" transform="translate(-251.324 -201.495)" fill="#f5f5f5"/>
    </g>
  </g>
</svg>
