<svg xmlns="http://www.w3.org/2000/svg" width="60" height="60" viewBox="0 0 60 60">
  <g id="single_vendor" transform="translate(-286 -2818)">
    <circle id="Ellipse_14" data-name="Ellipse 14" cx="30" cy="30" r="30" transform="translate(286 2818)" fill="#fff2e8"/>
    <g id="users" transform="translate(291.015 2794.623)">
      <g id="Group_8393" data-name="Group 8393" transform="translate(9.985 33.377)">
        <g id="Group_8392" data-name="Group 8392" transform="translate(0 0)">
          <path id="Path_9299" data-name="Path 9299" d="M23.533,58.2c-3.8.812-6.623,3.888-7.563,8.246a16.565,16.565,0,0,0,.064,4.593,10.542,10.542,0,0,0,4.4,6.708l.577.385-.79.256a18.448,18.448,0,0,0-3.781,1.9,16.875,16.875,0,0,0-4.871,5.64c-1.346,2.67-2.051,7.285-1.239,8.1.214.214.534.214,14.677.214,13.95,0,14.484-.021,14.677-.214.662-.662.171-4.743-.855-7.178a15.192,15.192,0,0,0-5.768-6.879,17.15,17.15,0,0,0-3.29-1.581l-.726-.235.62-.427a11.154,11.154,0,0,0,4.508-10.233,10.289,10.289,0,0,0-6.836-9.058A10.486,10.486,0,0,0,23.533,58.2Zm2.948,1.6a7.813,7.813,0,0,1,4.209,2.777A10.159,10.159,0,0,1,32.4,71.018a8.447,8.447,0,0,1-5.64,6.345,7.552,7.552,0,0,1-3.717-.043c-4.444-1.474-6.836-6.986-5.17-11.985C19.217,61.3,22.871,58.947,26.481,59.8Zm.769,19.526a13.393,13.393,0,0,1,6.922,3.44,13.581,13.581,0,0,1,4.145,8.1c.043.342.107.9.128,1.239l.064.6h-27l.085-.961A13.5,13.5,0,0,1,20.8,79.82,14.264,14.264,0,0,1,27.25,79.328Z" transform="translate(-9.985 -58.118)" fill="#f48120"/>
        </g>
      </g>
    </g>
  </g>
</svg>
