<svg xmlns="http://www.w3.org/2000/svg" width="55" height="55" viewBox="0 0 55 55">
  <g id="Group_2474" data-name="Group 2474" transform="translate(-847 -2963)">
    <circle id="Ellipse_13" data-name="Ellipse 13" cx="27.5" cy="27.5" r="27.5" transform="translate(847 2963)" fill="#f3f3f3"/>
    <path id="web-pages-icon" d="M32.582,27.417a2.212,2.212,0,0,1-2.2,2.048H2.206A2.212,2.212,0,0,1,0,27.268V5.709A2.324,2.324,0,0,1,1.926,3.538V8.832H1.4v18.65a.609.609,0,0,0,.612.612H30.666a.612.612,0,0,0,.612-.612v-.064ZM6.713,7.006H32.378V17.883H6.713ZM5.578,0H33.753a2.212,2.212,0,0,1,2.206,2.206V23.765a2.212,2.212,0,0,1-2.206,2.206H5.578a2.212,2.212,0,0,1-2.206-2.206V2.206A2.212,2.212,0,0,1,5.578,0Zm29.08,5.332H4.773V24a.606.606,0,0,0,.612.585H34.037A.606.606,0,0,0,34.646,24V5.332ZM31.652,1.914a1.092,1.092,0,1,1-1.089,1.092,1.092,1.092,0,0,1,1.089-1.092Zm-7.383,0A1.092,1.092,0,1,1,23.18,3.005a1.092,1.092,0,0,1,1.089-1.092Zm3.693,0A1.092,1.092,0,1,1,26.87,3.005a1.092,1.092,0,0,1,1.092-1.092ZM21.105,21.752a.931.931,0,0,1,0-1.855H31.62a.931.931,0,0,1,0,1.855Zm-13.754,0a.931.931,0,0,1,0-1.855h9.736a.931.931,0,0,1,0,1.855Z" transform="translate(857 2975)" fill="#f48120" fill-rule="evenodd"/>
  </g>
</svg>
