<svg xmlns="http://www.w3.org/2000/svg" viewBox="0 0 64 64"><path d="M29 41.832v-2a1 1 0 0 0-2 0v2c0 1.223-3.506 3-9 3s-9-1.777-9-3V34.79c2.122 1.339 5.626 2.042 9 2.042s6.878-.703 9-2.042v1.042a1 1 0 0 0 2 0v-14c0-3.247-5.667-5-11-5s-11 1.753-11 5v20c0 3.248 5.667 5 11 5s11-1.752 11-5m-11-7c-5.494 0-9-1.777-9-3V24.79c2.122 1.339 5.626 2.042 9 2.042s6.878-.703 9-2.042v7.042c0 1.223-3.506 3-9 3m0-16c5.494 0 9 1.777 9 3s-3.506 3-9 3-9-1.777-9-3 3.506-3 9-3"/><path d="M12 27.832a1 1 0 0 0-1 1v2a1 1 0 0 0 2 0v-2a1 1 0 0 0-1-1M11 38.832v2a1 1 0 0 0 2 0v-2a1 1 0 0 0-2 0M46 16.832c-5.33 0-11 1.75-11 5v4c0 .55.45 1 1 1s1-.45 1-1v-1.04c2.12 1.34 5.63 2.04 9 2.04s6.88-.7 9-2.04v7.04c0 1.22-3.51 3-9 3s-9-1.78-9-3v-2c0-.55-.45-1-1-1s-1 .45-1 1v12c0 3.25 5.67 5 11 5s11-1.75 11-5v-20c0-3.25-5.67-5-11-5m9 25c0 1.22-3.51 3-9 3s-9-1.78-9-3v-7.04c2.12 1.34 5.63 2.04 9 2.04s6.88-.7 9-2.04zm-9-17c-5.49 0-9-1.78-9-3s3.51-3 9-3 9 1.78 9 3-3.51 3-9 3"/><path d="M53 30.832v-2a1 1 0 0 0-2 0v2a1 1 0 0 0 2 0M52 37.832a1 1 0 0 0-1 1v2a1 1 0 0 0 2 0v-2a1 1 0 0 0-1-1M24.315 14.097a9.97 9.97 0 0 1 7.075-2.93c2.477 0 4.816.91 6.659 2.554l-1.03.118a1 1 0 0 0-.882 1.106c.06.525.578.942 1.107.88l3.259-.37a1 1 0 0 0 .887-.993v-3.518a1 1 0 0 0-2 0v1.297c-2.212-1.98-5.022-3.073-8-3.073a11.96 11.96 0 0 0-8.486 3.511 1 1 0 0 0 1.411 1.418M39.685 49.903a9.97 9.97 0 0 1-7.075 2.93 9.95 9.95 0 0 1-6.659-2.554l1.03-.118a1 1 0 0 0-.225-1.987l-3.259.37a1 1 0 0 0-.887.994v3.519a1 1 0 0 0 2 0v-1.298c2.212 1.98 5.022 3.073 8 3.073a11.96 11.96 0 0 0 8.486-3.511 1 1 0 0 0-1.411-1.418"/></svg>