<?xml version="1.0" encoding="UTF-8" standalone="no"?> <svg width="48" height="48" viewBox="0 0 48 48" fill="none" xmlns="http://www.w3.org/2000/svg">
<path d="M25 6H19C18.7348 6 18.4804 6.10536 18.2929 6.29289C18.1054 6.48043 18 6.73478 18 7C18 7.26522 18.1054 7.51957 18.2929 7.70711C18.4804 7.89464 18.7348 8 19 8H25C25.2652 8 25.5196 7.89464 25.7071 7.70711C25.8946 7.51957 26 7.26522 26 7C26 6.73478 25.8946 6.48043 25.7071 6.29289C25.5196 6.10536 25.2652 6 25 6Z" fill="black"/>
<path d="M29 8C29.5523 8 30 7.55228 30 7C30 6.44772 29.5523 6 29 6C28.4477 6 28 6.44772 28 7C28 7.55228 28.4477 8 29 8Z" fill="black"/>
<path d="M39 18.5H37V7C36.9984 5.6744 36.4711 4.40356 35.5338 3.46622C34.5964 2.52888 33.3256 2.00159 32 2H16C14.6744 2.00159 13.4036 2.52888 12.4662 3.46622C11.5289 4.40356 11.0016 5.6744 11 7V10H9C8.20435 10 7.44129 10.3161 6.87868 10.8787C6.31607 11.4413 6 12.2044 6 13V20C6 20.7956 6.31607 21.5587 6.87868 22.1213C7.44129 22.6839 8.20435 23 9 23H11V27H9C8.20435 27 7.44129 27.3161 6.87868 27.8787C6.31607 28.4413 6 29.2044 6 30V37C6 37.7956 6.31607 38.5587 6.87868 39.1213C7.44129 39.6839 8.20435 40 9 40H11V41C11.0016 42.3256 11.5289 43.5964 12.4662 44.5338C13.4036 45.4711 14.6744 45.9984 16 46H32C33.3256 45.9984 34.5964 45.4711 35.5338 44.5338C36.4711 43.5964 36.9984 42.3256 37 41V31.5H39C39.7956 31.5 40.5587 31.1839 41.1213 30.6213C41.6839 30.0587 42 29.2956 42 28.5V21.5C42 20.7044 41.6839 19.9413 41.1213 19.3787C40.5587 18.8161 39.7956 18.5 39 18.5ZM8 20V13C8 12.7348 8.10536 12.4804 8.29289 12.2929C8.48043 12.1054 8.73478 12 9 12H19C19.2652 12 19.5196 12.1054 19.7071 12.2929C19.8946 12.4804 20 12.7348 20 13V21.757C19.2066 21.2646 18.2918 21.0025 17.358 21H9C8.73478 21 8.48043 20.8946 8.29289 20.7071C8.10536 20.5196 8 20.2652 8 20ZM8 37V30C8 29.7348 8.10536 29.4804 8.29289 29.2929C8.48043 29.1054 8.73478 29 9 29H19C19.2652 29 19.5196 29.1054 19.7071 29.2929C19.8946 29.4804 20 29.7348 20 30V38.757C19.2066 38.2646 18.2918 38.0025 17.358 38H9C8.73478 38 8.48043 37.8946 8.29289 37.7071C8.10536 37.5196 8 37.2652 8 37ZM32 44H16C15.2044 44 14.4413 43.6839 13.8787 43.1213C13.3161 42.5587 13 41.7956 13 41V40H17.358C17.7565 40.0012 18.1508 40.0813 18.5181 40.2358C18.8854 40.3902 19.2185 40.616 19.498 40.9L20.287 41.7C20.4261 41.8415 20.6041 41.9383 20.7985 41.9783C20.9928 42.0183 21.1946 41.9996 21.3783 41.9245C21.5619 41.8495 21.7191 41.7215 21.8298 41.5569C21.9405 41.3922 21.9998 41.1984 22 41V40H35V41C35 41.7956 34.6839 42.5587 34.1213 43.1213C33.5587 43.6839 32.7956 44 32 44ZM35 38H22V30C22 29.2044 21.6839 28.4413 21.1213 27.8787C20.5587 27.3161 19.7956 27 19 27H13V23H17.358C17.7565 23.0012 18.1508 23.0813 18.5181 23.2358C18.8854 23.3902 19.2185 23.616 19.498 23.9L20.287 24.7C20.4261 24.8415 20.6041 24.9383 20.7985 24.9783C20.9928 25.0183 21.1946 24.9996 21.3783 24.9245C21.5619 24.8495 21.7191 24.7215 21.8298 24.5569C21.9405 24.3922 21.9998 24.1984 22 24V13C22 12.2044 21.6839 11.4413 21.1213 10.8787C20.5587 10.3161 19.7956 10 19 10H13V7C13 6.20435 13.3161 5.44129 13.8787 4.87868C14.4413 4.31607 15.2044 4 16 4H32C32.7956 4 33.5587 4.31607 34.1213 4.87868C34.6839 5.44129 35 6.20435 35 7V18.5H29C28.2044 18.5 27.4413 18.8161 26.8787 19.3787C26.3161 19.9413 26 20.7044 26 21.5V32.5C26.0002 32.6984 26.0595 32.8922 26.1702 33.0569C26.2809 33.2215 26.4381 33.3495 26.6217 33.4245C26.8054 33.4996 27.0072 33.5183 27.2015 33.4783C27.3959 33.4383 27.5739 33.3415 27.713 33.2L28.502 32.4C28.7815 32.116 29.1146 31.8902 29.4819 31.7358C29.8492 31.5813 30.2435 31.5012 30.642 31.5H35V38ZM40 28.5C40 28.7652 39.8946 29.0196 39.7071 29.2071C39.5196 29.3946 39.2652 29.5 39 29.5H30.642C29.7082 29.5025 28.7934 29.7646 28 30.257V21.5C28 21.2348 28.1054 20.9804 28.2929 20.7929C28.4804 20.6054 28.7348 20.5 29 20.5H39C39.2652 20.5 39.5196 20.6054 39.7071 20.7929C39.8946 20.9804 40 21.2348 40 21.5V28.5Z" fill="black"/>
<path d="M16 32.7L13.5 31.256C13.2719 31.1243 13.0131 31.055 12.7498 31.055C12.4864 31.0551 12.2276 31.1245 11.9996 31.2562C11.7715 31.388 11.5822 31.5775 11.4506 31.8057C11.319 32.0338 11.2498 32.2926 11.25 32.556V35.442C11.2498 35.7054 11.319 35.9642 11.4506 36.1923C11.5822 36.4205 11.7715 36.61 11.9996 36.7418C12.2276 36.8735 12.4864 36.9429 12.7498 36.943C13.0131 36.943 13.2719 36.8737 13.5 36.742L16 35.3C16.2285 35.1685 16.4183 34.9791 16.5502 34.7508C16.6822 34.5226 16.7517 34.2636 16.7517 34C16.7517 33.7364 16.6822 33.4774 16.5502 33.2492C16.4183 33.0209 16.2285 32.8315 16 32.7V32.7ZM13.25 34.577V33.422L14.25 34L13.25 34.577Z" fill="black"/>
<path d="M34.75 22.25H33.25C32.7196 22.25 32.2109 22.4607 31.8358 22.8358C31.4607 23.2109 31.25 23.7196 31.25 24.25V25.75C31.25 26.2804 31.4607 26.7891 31.8358 27.1642C32.2109 27.5393 32.7196 27.75 33.25 27.75H34.75C35.2804 27.75 35.7891 27.5393 36.1642 27.1642C36.5393 26.7891 36.75 26.2804 36.75 25.75V24.25C36.75 23.7196 36.5393 23.2109 36.1642 22.8358C35.7891 22.4607 35.2804 22.25 34.75 22.25ZM33.25 25.75V24.25H34.75V25.75H33.25Z" fill="black"/>
<path d="M18 15C18 14.7348 17.8946 14.4804 17.7071 14.2929C17.5196 14.1054 17.2652 14 17 14H11C10.7348 14 10.4804 14.1054 10.2929 14.2929C10.1054 14.4804 10 14.7348 10 15C10 15.2652 10.1054 15.5196 10.2929 15.7071C10.4804 15.8946 10.7348 16 11 16H17C17.2652 16 17.5196 15.8946 17.7071 15.7071C17.8946 15.5196 18 15.2652 18 15Z" fill="black"/>
<path d="M15 17H11C10.7348 17 10.4804 17.1054 10.2929 17.2929C10.1054 17.4804 10 17.7348 10 18C10 18.2652 10.1054 18.5196 10.2929 18.7071C10.4804 18.8946 10.7348 19 11 19H15C15.2652 19 15.5196 18.8946 15.7071 18.7071C15.8946 18.5196 16 18.2652 16 18C16 17.7348 15.8946 17.4804 15.7071 17.2929C15.5196 17.1054 15.2652 17 15 17Z" fill="black"/>
</svg>
