<svg width="64" height="64" viewBox="0 0 64 64" fill="none" xmlns="http://www.w3.org/2000/svg">
<circle cx="32" cy="32" r="32" fill="#F48120"/>
<path d="M46.8558 20.774H33.5307V15.2977C33.5291 13.8929 32.9702 12.5462 31.9767 11.553C30.9832 10.5598 29.6363 10.0013 28.2316 10H15.704C14.2994 10.0015 12.9528 10.5602 11.9596 11.5534C10.9664 12.5465 10.4078 13.8931 10.4062 15.2977V25.2723C10.4083 26.6456 10.9429 27.9646 11.8975 28.9518C12.8521 29.939 14.1525 30.5175 15.5249 30.5656L14.8276 32.9851C14.7835 33.143 14.7891 33.3106 14.8437 33.4651C14.8982 33.6197 14.9991 33.7537 15.1325 33.8489C15.2659 33.9441 15.4255 33.9958 15.5894 33.9971C15.7533 33.9984 15.9136 33.9492 16.0485 33.8561L20.7655 30.5656H26.4644V36.9642H20.7375C19.65 36.9654 18.6075 37.398 17.8387 38.167C17.0699 38.9361 16.6377 39.9788 16.6369 41.0662V48.3842C16.6381 49.4007 17.0163 50.3806 17.6983 51.1343C18.3803 51.888 19.3177 52.362 20.329 52.4644L19.8897 53.9838C19.8444 54.142 19.8492 54.3103 19.9034 54.4656C19.9576 54.6209 20.0585 54.7556 20.1923 54.8513C20.3261 54.947 20.4862 54.9989 20.6507 55C20.8152 55.0011 20.976 54.9512 21.111 54.8573L24.5186 52.4862H29.9315C31.0185 52.4849 32.0606 52.0525 32.8293 51.2839C33.5979 50.5152 34.0303 49.4731 34.0316 48.3861V44.2023H41.0694L46.5282 48.0072C46.6634 48.1016 46.8245 48.1518 46.9894 48.1508C47.1542 48.1499 47.3147 48.0978 47.4488 48.0017C47.5828 47.9057 47.6838 47.7705 47.7377 47.6147C47.7917 47.4589 47.796 47.2902 47.75 47.1319L46.9027 44.2023C48.4789 44.1882 49.9857 43.5526 51.0959 42.4337C52.206 41.3147 52.8297 39.8029 52.8314 38.2267V26.7501C52.8298 25.1657 52.1997 23.6467 51.0794 22.5264C49.9591 21.406 48.4402 20.7758 46.8558 20.774ZM20.5153 28.9755C20.3521 28.976 20.193 29.0267 20.0595 29.1207L16.9839 31.2644L17.3507 29.9961C17.3849 29.8773 17.3911 29.7522 17.3688 29.6307C17.3464 29.5091 17.2961 29.3944 17.2218 29.2956C17.1475 29.1969 17.0513 29.1167 16.9407 29.0615C16.8301 29.0063 16.7082 28.9775 16.5846 28.9775H15.704C14.7221 28.9763 13.7809 28.5858 13.0866 27.8915C12.3924 27.1973 12.0018 26.256 12.0007 25.2742V15.2977C12.0025 14.3163 12.3933 13.3757 13.0875 12.6819C13.7817 11.9882 14.7226 11.598 15.704 11.5969H28.2316C29.2134 11.598 30.1547 11.9885 30.8489 12.6828C31.5431 13.377 31.9337 14.3183 31.9348 15.3001V20.7972C30.4436 20.925 29.0545 21.6072 28.0416 22.7091C27.0287 23.8109 26.4656 25.2524 26.4634 26.7491V28.9751L20.5153 28.9755ZM32.4371 48.3842C32.4362 49.0484 32.1719 49.6851 31.7022 50.1548C31.2325 50.6244 30.5957 50.8885 29.9315 50.8893H24.2699C24.1067 50.8899 23.9476 50.9405 23.8141 51.0345L22.0469 52.2636L22.1495 51.9089C22.1838 51.7901 22.1901 51.6649 22.1678 51.5433C22.1454 51.4216 22.0952 51.3068 22.0209 51.208C21.9466 51.1091 21.8503 51.0288 21.7397 50.9735C21.6291 50.9182 21.5071 50.8894 21.3835 50.8893H20.7375C20.0732 50.8885 19.4363 50.6243 18.9666 50.1546C18.4968 49.6849 18.2326 49.048 18.2318 48.3837V41.0662C18.2326 40.4019 18.4968 39.7651 18.9666 39.2955C19.4363 38.8258 20.0732 38.5617 20.7375 38.5611H29.9315C30.5958 38.5617 31.2326 38.8258 31.7024 39.2955C32.1721 39.7651 32.4364 40.4019 32.4371 41.0662V48.3842ZM51.237 38.2267C51.2356 39.3882 50.7736 40.5018 49.9522 41.3231C49.1309 42.1444 48.0173 42.6065 46.8558 42.6079H45.842C45.7184 42.6079 45.5965 42.6366 45.486 42.6919C45.3754 42.7471 45.2792 42.8273 45.2049 42.9261C45.1307 43.0249 45.0804 43.1396 45.0581 43.2611C45.0359 43.3827 45.0421 43.5078 45.0765 43.6265L45.5928 45.4116L41.7758 42.7502C41.6424 42.6562 41.4832 42.6055 41.32 42.605H34.0316V41.0662C34.0303 39.9792 33.5979 38.9371 32.8293 38.1684C32.0606 37.3998 31.0185 36.9674 29.9315 36.9661H28.0588V26.7501C28.06 25.5882 28.5221 24.4743 29.3438 23.6529C30.1655 22.8315 31.2796 22.3697 32.4415 22.3689H46.8558C48.0174 22.3702 49.131 22.8322 49.9524 23.6535C50.7737 24.4749 51.2357 25.5885 51.237 26.7501V38.2267ZM27.6949 40.9496C27.2829 40.8491 26.8525 40.8506 26.4412 40.9541C26.0298 41.0576 25.65 41.2598 25.3345 41.5433C25.019 41.2598 24.6391 41.0576 24.2278 40.9541C23.8165 40.8506 23.3861 40.8491 22.974 40.9496C22.2873 41.0935 21.6757 41.4805 21.2515 42.0393C20.8272 42.5981 20.6189 43.2913 20.6649 43.9914C20.7771 45.5761 22.3948 47.2586 24.9928 48.4916C25.0995 48.5426 25.2163 48.569 25.3345 48.569C25.4527 48.569 25.5694 48.5426 25.6761 48.4916C28.2742 47.2591 29.8918 45.5766 30.0041 43.9914C30.05 43.2913 29.8417 42.5981 29.4175 42.0393C28.9933 41.4805 28.3816 41.0935 27.6949 40.9496ZM28.4135 43.8786C28.3496 44.7811 27.1278 45.9637 25.3345 46.8822C23.5412 45.9628 22.3193 44.7811 22.2554 43.8786C22.249 43.6977 22.2788 43.5173 22.3432 43.3482C22.4076 43.179 22.5053 43.0244 22.6304 42.8936C22.7555 42.7628 22.9056 42.6584 23.0717 42.5865C23.2379 42.5147 23.4168 42.4769 23.5978 42.4753C23.8221 42.4735 24.0408 42.5456 24.2201 42.6803C24.3995 42.8151 24.5295 43.005 24.5902 43.221C24.6481 43.3714 24.7502 43.5007 24.8831 43.5919C25.0159 43.6832 25.1733 43.732 25.3345 43.732C25.4956 43.732 25.653 43.6832 25.7859 43.5919C25.9187 43.5007 26.0208 43.3714 26.0787 43.221C26.1544 42.9592 26.3299 42.7376 26.5674 42.6039C26.8049 42.4702 27.0854 42.4352 27.3485 42.5063C27.6628 42.5658 27.9445 42.7382 28.1407 42.9909C28.3368 43.2436 28.4339 43.5593 28.4135 43.8786ZM43.6476 29.8543L38.6896 26.9916C38.2272 26.7246 37.7027 26.584 37.1687 26.584C36.6348 26.584 36.1102 26.7245 35.6479 26.9915C35.1855 27.2585 34.8015 27.6425 34.5346 28.105C34.2677 28.5674 34.1273 29.092 34.1274 29.6259V35.3509C34.1202 35.8862 34.2577 36.4135 34.5253 36.8772C34.7929 37.3408 35.1807 37.7237 35.6478 37.9852C36.1079 38.2589 36.6333 38.4033 37.1687 38.4033C37.704 38.4033 38.2294 38.2589 38.6896 37.9852L43.6476 35.1225C44.11 34.8556 44.4941 34.4717 44.7611 34.0093C45.0281 33.5469 45.1687 33.0223 45.1687 32.4884C45.1687 31.9545 45.0281 31.4299 44.7611 30.9675C44.4941 30.5051 44.11 30.1212 43.6476 29.8543ZM42.8506 33.7415L37.8921 36.6042C37.6721 36.7312 37.4226 36.798 37.1686 36.798C36.9146 36.798 36.6651 36.7311 36.4451 36.6041C36.2252 36.4771 36.0425 36.2944 35.9155 36.0744C35.7886 35.8544 35.7218 35.6049 35.7218 35.3509V29.6259C35.7164 29.3708 35.781 29.1192 35.9085 28.8982C36.0361 28.6773 36.2217 28.4955 36.4452 28.3726C36.6633 28.2403 36.9136 28.1703 37.1687 28.1703C37.4238 28.1703 37.674 28.2403 37.8921 28.3726L42.8506 31.2353C43.0706 31.3623 43.2532 31.545 43.3802 31.7649C43.5072 31.9849 43.5741 32.2344 43.5741 32.4884C43.5741 32.7424 43.5072 32.9919 43.3802 33.2119C43.2532 33.4318 43.0706 33.6145 42.8506 33.7415ZM27.2033 22.6897C27.2034 22.585 27.1828 22.4813 27.1428 22.3846C27.1027 22.2878 27.044 22.1999 26.97 22.1259C26.896 22.0518 26.8081 21.9931 26.7114 21.953C26.6147 21.9129 26.511 21.8923 26.4063 21.8923H24.6643L25.1119 19.331H26.4073C26.619 19.331 26.8221 19.2469 26.9719 19.0971C27.1216 18.9474 27.2057 18.7443 27.2057 18.5326C27.2057 18.3208 27.1216 18.1177 26.9719 17.968C26.8221 17.8182 26.619 17.7341 26.4073 17.7341H25.3911L25.6964 15.9877C25.7328 15.7794 25.6849 15.5651 25.5633 15.3921C25.4417 15.219 25.2564 15.1013 25.048 15.065C24.8397 15.0286 24.6254 15.0764 24.4523 15.198C24.2793 15.3196 24.1616 15.505 24.1252 15.7134L23.7725 17.7341H21.1705L21.4759 15.9877C21.5123 15.7794 21.4644 15.5651 21.3428 15.3921C21.2212 15.219 21.0358 15.1013 20.8275 15.065C20.6191 15.0286 20.4048 15.0764 20.2318 15.198C20.0587 15.3196 19.9411 15.505 19.9047 15.7134L19.5519 17.7341H17.5307C17.3189 17.7341 17.1158 17.8182 16.9661 17.968C16.8164 18.1177 16.7322 18.3208 16.7322 18.5326C16.7322 18.7443 16.8164 18.9474 16.9661 19.0971C17.1158 19.2469 17.3189 19.331 17.5307 19.331H19.2727L18.8256 21.8923H17.5307C17.3189 21.8923 17.1158 21.9764 16.9661 22.1261C16.8164 22.2758 16.7322 22.4789 16.7322 22.6907C16.7322 22.9024 16.8164 23.1055 16.9661 23.2553C17.1158 23.405 17.3189 23.4891 17.5307 23.4891H18.5469L18.3562 24.5818C18.3198 24.79 18.3676 25.0043 18.4891 25.1773C18.6106 25.3504 18.7959 25.4681 19.0041 25.5046C19.0499 25.5122 19.0962 25.5161 19.1425 25.5162C19.3301 25.5159 19.5116 25.4495 19.6552 25.3287C19.7987 25.2079 19.8951 25.0404 19.9274 24.8556L20.166 23.4886H22.766L22.5753 24.5813C22.5389 24.7896 22.5867 25.0038 22.7082 25.1768C22.8297 25.3499 23.015 25.4676 23.2232 25.5041C23.269 25.5118 23.3153 25.5156 23.3616 25.5157C23.5491 25.5153 23.7304 25.449 23.8738 25.3283C24.0173 25.2076 24.1136 25.0403 24.146 24.8556L24.3846 23.4886H26.4063C26.5111 23.4886 26.6149 23.468 26.7117 23.4278C26.8086 23.3876 26.8965 23.3287 26.9705 23.2545C27.0446 23.1803 27.1032 23.0922 27.1432 22.9953C27.1831 22.8984 27.2035 22.7945 27.2033 22.6897ZM20.4447 21.8923L20.8918 19.331H23.4918L23.0447 21.8923H20.4447Z" fill="white"/>
</svg>
