<svg id="software-for-tracking-utility" xmlns="http://www.w3.org/2000/svg" xmlns:xlink="http://www.w3.org/1999/xlink" width="45" height="45" viewBox="0 0 45 45">
  <defs>
    <linearGradient id="linear-gradient" x1="0.5" x2="0.156" y2="0.791" gradientUnits="objectBoundingBox">
      <stop offset="0" stop-color="#3e3e3e"/>
      <stop offset="1" stop-color="#1a1a1a"/>
    </linearGradient>
  </defs>
  <circle id="Ellipse_1" data-name="Ellipse 1" cx="22.5" cy="22.5" r="22.5" fill="url(#linear-gradient)"/>
  <g id="noun-utilities-3886229" transform="translate(3.1 2.1)">
    <path id="Path_9169" data-name="Path 9169" d="M30.7,17.33H29.6c-.1,0-.15-.1-.2-.15a10.417,10.417,0,0,0-.848-2.046.152.152,0,0,1,0-.2l.8-.8a1.094,1.094,0,0,0,.349-.848,1.259,1.259,0,0,0-.3-.848l-2-2a1.237,1.237,0,0,0-1.7,0l-.8.8a.152.152,0,0,1-.2,0,10.417,10.417,0,0,0-2.046-.848c-.1,0-.15-.1-.15-.2V9.1a1.214,1.214,0,0,0-1.2-1.2H18.528a1.214,1.214,0,0,0-1.2,1.2v1.1c0,.1-.1.15-.15.2a10.417,10.417,0,0,0-2.046.848.152.152,0,0,1-.2,0l-.8-.8a1.237,1.237,0,0,0-1.7,0l-2,2a1.2,1.2,0,0,0,0,1.7l.8.8a.152.152,0,0,1,0,.2,10.417,10.417,0,0,0-.848,2.046c0,.1-.1.15-.2.15H9.1a1.214,1.214,0,0,0-1.2,1.2v2.794a1.214,1.214,0,0,0,1.2,1.2h1.1c.1,0,.15.1.2.15a10.417,10.417,0,0,0,.848,2.046.152.152,0,0,1,0,.2l-.8.8a1.2,1.2,0,0,0,0,1.7l2,2a1.237,1.237,0,0,0,1.7,0l.8-.8a.152.152,0,0,1,.2,0,10.417,10.417,0,0,0,2.046.848c.1,0,.15.1.15.2v1.1a1.214,1.214,0,0,0,1.2,1.2h2.794a1.214,1.214,0,0,0,1.2-1.2v-1.1c0-.1.1-.15.2-.2.15-.05.549-.2.7-.249a.493.493,0,0,0,.349-.349.506.506,0,0,0-.15-.5l-2.345-2.345a.7.7,0,0,0-.449-.15,5.131,5.131,0,0,1-.9.05,5.988,5.988,0,1,1,5.988-5.988v.7a.8.8,0,0,0,.15.449l2.4,2.3a.479.479,0,0,0,.449.1.493.493,0,0,0,.349-.349l.15-.5h0c0-.1.1-.15.2-.15h1.1a1.214,1.214,0,0,0,1.2-1.2V18.478A1.206,1.206,0,0,0,30.7,17.33Zm.2,3.992a.215.215,0,0,1-.2.2H29.6a1.282,1.282,0,0,0-1.048.6l-1.647-1.6v-.6a6.985,6.985,0,1,0-6.985,6.985,4.841,4.841,0,0,0,.848-.05l1.6,1.6a1.183,1.183,0,0,0-.848,1.148v1.1a.215.215,0,0,1-.2.2H18.528a.215.215,0,0,1-.2-.2V29.6a1.171,1.171,0,0,0-.9-1.148,11.914,11.914,0,0,1-1.846-.748,1.329,1.329,0,0,0-.6-.15.993.993,0,0,0-.8.349l-.748.748c-.1.1-.15.1-.249,0l-2-2a.249.249,0,0,1,0-.3l.8-.8a1.208,1.208,0,0,0,.2-1.4,8.43,8.43,0,0,1-.748-1.846,1.228,1.228,0,0,0-1.148-.9H9.2a.215.215,0,0,1-.2-.2V18.428a.215.215,0,0,1,.2-.2h1.1a1.171,1.171,0,0,0,1.148-.9,11.914,11.914,0,0,1,.748-1.846,1.135,1.135,0,0,0-.2-1.4l-.8-.649a.249.249,0,0,1,0-.3l2-2c.1-.1.15-.1.249,0l.8.8a1.208,1.208,0,0,0,1.4.2,8.43,8.43,0,0,1,1.846-.748,1.228,1.228,0,0,0,.9-1.148v-1.1a.215.215,0,0,1,.2-.2h2.794a.215.215,0,0,1,.2.2v1.1a1.171,1.171,0,0,0,.9,1.148,11.914,11.914,0,0,1,1.846.748,1.135,1.135,0,0,0,1.4-.2l.8-.8c.1-.1.15-.1.249,0l2,2a.249.249,0,0,1,0,.3l-.848.748a1.208,1.208,0,0,0-.2,1.4,8.43,8.43,0,0,1,.748,1.846,1.228,1.228,0,0,0,1.148.9h1.1a.215.215,0,0,1,.2.2Z" fill="#fff"/>
    <path id="Path_9170" data-name="Path 9170" d="M31.719,27.876a5,5,0,0,0-6.437-6.037.6.6,0,0,0-.349.349.4.4,0,0,0,.15.449l1.447,1.447.7-.7-.8-.8a3.78,3.78,0,0,1,3.243,1.148,3.9,3.9,0,0,1,.948,4.091.545.545,0,0,0,.1.5l5.988,5.988a1.482,1.482,0,0,1-2.1,2.1l-5.988-5.988a.4.4,0,0,0-.5-.1,4.005,4.005,0,0,1-4.091-.948,3.93,3.93,0,0,1-1.148-3.243l2.2,2.2a.482.482,0,0,0,.7,0l2.844-2.844-.7-.7-2.495,2.495-2.495-2.495a.7.7,0,0,0-.449-.15.493.493,0,0,0-.349.349,5,5,0,0,0,6.037,6.437l5.788,5.788a2.506,2.506,0,0,0,1.746.748,2.421,2.421,0,0,0,1.746-.748,2.562,2.562,0,0,0,0-3.543Z" transform="translate(-7.004 -6.853)" fill="#fff"/>
  </g>
</svg>
