<svg xmlns="http://www.w3.org/2000/svg" width="60" height="60" viewBox="0 0 60 60">
  <g id="software-for-electrical-estimating" transform="translate(-652 -4401)">
    <circle id="Ellipse_14" data-name="Ellipse 14" cx="30" cy="30" r="30" transform="translate(652 4401)" fill="#fff2e8"/>
    <g id="noun-estimation-6619568" transform="translate(659.509 4406.739)">
      <path id="Path_9231" data-name="Path 9231" d="M41.93,15.825l.864-1.357.814.572a.816.816,0,0,0,.939-1.335L41.6,11.633a.816.816,0,1,0-.939,1.335l.8.56-.86,1.351a15.165,15.165,0,0,0-6.053-2.212V10.138h.734a1.939,1.939,0,1,0,0-3.877H29.633a1.939,1.939,0,1,0,0,3.877h.557v2.554a15.211,15.211,0,0,0-9.345,5.181H11.554v1.632H28.51V17.873H23.094a13.651,13.651,0,1,1-1.034,18.772H33.173V35.013H16.217v1.632H20A15.277,15.277,0,1,0,41.93,15.825ZM29.326,8.2a.307.307,0,0,1,.307-.306h5.644a.306.306,0,1,1,0,.613H29.633A.307.307,0,0,1,29.326,8.2Zm2.5,4.338v-2.4h1.088v2.394c-.152,0-.3-.012-.456-.012C32.243,12.52,32.033,12.529,31.823,12.537Z" transform="translate(-5.247 0)" fill="#f48120"/>
      <path id="Path_9232" data-name="Path 9232" d="M57.649,38.15a2.589,2.589,0,1,0,1.991.939l2.511-10.5-4.5,9.556Zm0,3.537a.953.953,0,1,1,.953-.953A.953.953,0,0,1,57.649,41.687Z" transform="translate(-30.441 -12.931)" fill="#f48120"/>
      <path id="Path_9233" data-name="Path 9233" d="M61.2,54.123a12.489,12.489,0,0,0,4.9-23.977l-.491,2.016a10.466,10.466,0,0,1,6.043,9.471C71.659,51.629,61.2,54.123,61.2,54.123Z" transform="translate(-33.997 -13.83)" fill="#f48120"/>
      <rect id="Rectangle_2697" data-name="Rectangle 2697" width="16.956" height="1.632" transform="translate(2.491 23.315)" fill="#f48120"/>
      <rect id="Rectangle_2698" data-name="Rectangle 2698" width="16.956" height="1.632" transform="translate(5.243 29.257)" fill="#f48120"/>
    </g>
  </g>
</svg>
