<svg xmlns="http://www.w3.org/2000/svg" width="60" height="60" viewBox="0 0 60 60">
  <g id="software-for-electric-mobile-app" transform="translate(-652 -4535)">
    <circle id="Ellipse_14" data-name="Ellipse 14" cx="30" cy="30" r="30" transform="translate(652 4535)" fill="#fff2e8"/>
    <path id="noun-mobile-app-7018727" d="M37.123,13.587H33.954a.51.51,0,0,0-.332.121l-1.835,1.6h-6.6l-1.835-1.6h0a.5.5,0,0,0-.306-.121H19.871a.5.5,0,0,0-.5.5V45.177a.5.5,0,0,0,.5.5H37.123a.5.5,0,0,0,.5-.5V14.09a.5.5,0,0,0-.5-.5Zm-.5,31.087H20.348V14.594h2.481l1.835,1.594a.5.5,0,0,0,.332.126h6.992a.507.507,0,0,0,.326-.126l1.835-1.594h2.471Zm11.8-8.711a.5.5,0,0,0-.311-.377l-1.509-.579a1.388,1.388,0,0,1-.87-1.584c.111-.543.232-1.122.317-1.564a.5.5,0,0,0-.151-.468,8.18,8.18,0,0,0-3.018-1.811.5.5,0,0,0-.5.091l-1.222,1.005a1.4,1.4,0,0,1-.568.287V14.135a3.523,3.523,0,0,0-3.522-3.522H19.9a3.522,3.522,0,0,0-3.522,3.522V15.3A1.331,1.331,0,0,1,16,15.046L14.75,14.039a.509.509,0,0,0-.5-.091,8.231,8.231,0,0,0-3.018,1.811.5.5,0,0,0-.151.468c.085.443.206,1.005.317,1.56a1.394,1.394,0,0,1-.87,1.59l-1.509.579v0a.5.5,0,0,0-.311.377,7.939,7.939,0,0,0,0,2.984.5.5,0,0,0,.311.377l1.509.579v0a1.388,1.388,0,0,1,.87,1.584c-.111.543-.232,1.122-.317,1.564v0a.5.5,0,0,0,.151.468A8.205,8.205,0,0,0,14.246,29.7a.475.475,0,0,0,.162.03.511.511,0,0,0,.321-.121L15.951,28.6v0a1.4,1.4,0,0,1,.4-.236v16.8a3.519,3.519,0,0,0,3.52,3.52H37.084a3.52,3.52,0,0,0,3.522-3.52V43.919a1.4,1.4,0,0,1,.568.287L42.4,45.211v0a.511.511,0,0,0,.323.115.458.458,0,0,0,.16,0A8.231,8.231,0,0,0,45.9,43.517a.5.5,0,0,0,.151-.468c-.085-.443-.206-1.005-.317-1.564A1.386,1.386,0,0,1,46.6,39.9l1.509-.579a.506.506,0,0,0,.313-.377,8.008,8.008,0,0,0,0-2.982ZM40.605,34.81a2.662,2.662,0,0,1,0,5.287ZM16.374,24.437a2.671,2.671,0,0,1,0-5.246ZM15.323,27.8l-1.005.845v0a7.264,7.264,0,0,1-2.209-1.313c.081-.392.172-.845.262-1.277v0a2.4,2.4,0,0,0-1.509-2.731l-1.217-.473,0,0a6.665,6.665,0,0,1,0-2.067l1.217-.473h0a2.4,2.4,0,0,0,1.509-2.731c-.091-.432-.181-.885-.262-1.277a7.265,7.265,0,0,1,2.209-1.313l1.005.845a2.416,2.416,0,0,0,1.051.5v1.832a3.677,3.677,0,0,0,0,7.289v1.832a2.355,2.355,0,0,0-1.051.513ZM39.6,45.131a2.512,2.512,0,0,1-2.514,2.514H19.9a2.515,2.515,0,0,1-2.514-2.514v-31A2.515,2.515,0,0,1,19.9,11.621H37.084A2.512,2.512,0,0,1,39.6,14.135Zm7.883-6.646-1.217.473a2.394,2.394,0,0,0-1.509,2.731c.091.432.181.885.262,1.277h0a7.279,7.279,0,0,1-2.207,1.313L41.8,43.436h0a2.392,2.392,0,0,0-1.217-.543V41.117a3.682,3.682,0,0,0,0-7.328V32.012a2.331,2.331,0,0,0,1.217-.543l1.005-.845h0a7.255,7.255,0,0,1,2.207,1.313c-.081.392-.172.845-.262,1.277l0,0a2.393,2.393,0,0,0,1.509,2.731l1.217.473v0a6.665,6.665,0,0,1,0,2.067ZM26.475,22.626H23.04a1.51,1.51,0,0,0-1.509,1.509v3.446A1.509,1.509,0,0,0,23.04,29.09h3.441a1.51,1.51,0,0,0,1.509-1.509V24.135a1.513,1.513,0,0,0-1.515-1.509Zm.5,4.955a.5.5,0,0,1-.5.5H23.04a.5.5,0,0,1-.5-.5V24.135a.5.5,0,0,1,.5-.5h3.441a.5.5,0,0,1,.5.5ZM30.5,22.626h0a1.511,1.511,0,0,0-1.509,1.509v3.446A1.51,1.51,0,0,0,30.5,29.09h3.446a1.509,1.509,0,0,0,1.509-1.509V24.135a1.51,1.51,0,0,0-1.509-1.509Zm3.948,1.509v3.446a.5.5,0,0,1-.5.5H30.5a.5.5,0,0,1-.5-.5V24.135a.5.5,0,0,1,.5-.5H33.95a.5.5,0,0,1,.5.5Zm-7.977,6.036H23.04a1.51,1.51,0,0,0-1.509,1.509v3.446a1.509,1.509,0,0,0,1.509,1.509H26.48a1.51,1.51,0,0,0,1.509-1.509V31.686a1.51,1.51,0,0,0-1.515-1.509Zm.5,4.955h0a.5.5,0,0,1-.5.5H23.04a.5.5,0,0,1-.5-.5V31.686a.5.5,0,0,1,.5-.5H26.48a.5.5,0,0,1,.5.5Zm6.972-4.955H30.5A1.51,1.51,0,0,0,29,31.68v3.446A1.509,1.509,0,0,0,30.5,36.635h3.446a1.51,1.51,0,0,0,1.509-1.509V31.686a1.51,1.51,0,0,0-1.509-1.509Zm.5,4.955h0a.5.5,0,0,1-.5.5H30.5a.5.5,0,0,1-.5-.5V31.686a.5.5,0,0,1,.5-.5h3.446a.5.5,0,0,1,.5.5Z" transform="translate(653.438 4535.386)" fill="#f48120"/>
  </g>
</svg>
