<svg id="banner-main1" xmlns="http://www.w3.org/2000/svg" xmlns:xlink="http://www.w3.org/1999/xlink" width="45" height="45" viewBox="0 0 45 45">
  <defs>
    <linearGradient id="linear-gradient" x1="0.5" x2="0.156" y2="0.791" gradientUnits="objectBoundingBox">
      <stop offset="0" stop-color="#3e3e3e"/>
      <stop offset="1" stop-color="#1a1a1a"/>
    </linearGradient>
  </defs>
  <g id="Group_8363" data-name="Group 8363">
    <circle id="Ellipse_1" data-name="Ellipse 1" cx="22.5" cy="22.5" r="22.5" fill="url(#linear-gradient)"/>
    <path id="noun-erp-6493863" d="M21.985,21.868q-.161-.147-.326-.284-.221-.184-.46-.359l-1.687,1.129a.453.453,0,0,1-.482.015q-.318-.17-.654-.309h0c-.224-.093-.457-.176-.7-.249a.455.455,0,0,1-.318-.367l-.39-1.972a9.1,9.1,0,0,0-1.414-.1,10.2,10.2,0,0,0-1.5.126l-.4,1.99a.452.452,0,0,1-.313.344h0c-.257.078-.5.163-.724.254a6.92,6.92,0,0,0-.658.309.453.453,0,0,1-.47-.027L9.825,21.228a9.4,9.4,0,0,0-1.093.945,9.931,9.931,0,0,0-.966,1.133L8.9,24.969a.452.452,0,0,1,.025.467c-.119.222-.236.454-.342.691a5.91,5.91,0,0,0-.263.7.454.454,0,0,1-.374.319l-1.923.373a9.869,9.869,0,0,0-.113,1.478,9.735,9.735,0,0,0,.109,1.466L8,30.818a.453.453,0,0,1,.354.315h0c.074.245.156.489.248.721a6.292,6.292,0,0,0,.309.677A.453.453,0,0,1,8.889,33h0L7.772,34.655a9.75,9.75,0,0,0,.954,1.117,9.376,9.376,0,0,0,1.093.943l1.7-1.133A.453.453,0,0,1,12,35.568q.313.167.656.309l.022.01q.321.132.677.239a.454.454,0,0,1,.318.367l.391,1.973a9.583,9.583,0,0,0,1.446.113,9.422,9.422,0,0,0,1.441-.11l.419-2a.454.454,0,0,1,.313-.342h0q.367-.111.7-.248h0q.352-.146.672-.317a.453.453,0,0,1,.467.023L21.2,36.713a9.165,9.165,0,0,0,1.079-.931,9.737,9.737,0,0,0,.947-1.121l-1.105-1.7a.453.453,0,0,1-.01-.477,6.175,6.175,0,0,0,.291-.638c.087-.221.165-.454.239-.7a.454.454,0,0,1,.385-.32l1.98-.4a9.612,9.612,0,0,0,.071-2.333l-3.013-.013a2.3,2.3,0,0,1-.582-4.542,2.278,2.278,0,0,1,.5-1.67Zm8.262,5.342-2.236-.01-.042,0a.29.29,0,0,0-.039,0l-2.423-.01H25.47l-3.45-.015a1.392,1.392,0,0,1-1.273-2.108,1.371,1.371,0,0,1,.538-.508,1.41,1.41,0,0,1,.735-.156.454.454,0,0,0,.447-.618,1.373,1.373,0,0,1,2.3-1.4.453.453,0,0,0,.789-.309,2.216,2.216,0,1,1,4.391.387.454.454,0,0,0,.689.47,2.278,2.278,0,0,1,2.585,3.741,2.476,2.476,0,0,1-1.288.544l-1.608-.009-.042,0-.038,0Zm.493.907v2.6l.061.036a1.281,1.281,0,1,1-.439.793l-.27-.159a.454.454,0,0,1-.261-.411V28.113l-1.407-.006v5.026l.039.023a1.284,1.284,0,1,1-.451.786l-.236-.139a.455.455,0,0,1-.26-.411V28.1L25.991,28.1a10.527,10.527,0,0,1-.141,2.792.453.453,0,0,1-.357.362l-2.06.418c-.056.169-.116.338-.182.508s-.141.339-.224.51l1.118,1.719a.454.454,0,0,1,.007.521A10.737,10.737,0,0,1,22.92,36.42a10.1,10.1,0,0,1-1.456,1.217.454.454,0,0,1-.508,0l-1.725-1.154q-.253.126-.507.231h0q-.264.109-.524.2l-.428,2.041a.454.454,0,0,1-.363.354,10.352,10.352,0,0,1-1.9.175,10.5,10.5,0,0,1-1.882-.173.455.455,0,0,1-.394-.364l-.4-2.033q-.247-.084-.5-.187l-.024-.009c-.169-.07-.338-.147-.507-.231l-1.717,1.145a.454.454,0,0,1-.526.01,10.282,10.282,0,0,1-1.472-1.228A10.683,10.683,0,0,1,6.86,34.938a.454.454,0,0,1-.016-.53l1.145-1.7c-.084-.174-.16-.35-.23-.527s-.132-.351-.189-.523L5.559,31.3a.454.454,0,0,1-.384-.367A10.577,10.577,0,0,1,5,28.993a10.739,10.739,0,0,1,.174-1.921.453.453,0,0,1,.365-.389L7.533,26.3c.064-.179.138-.359.219-.539s.159-.34.243-.5L6.86,23.577a.454.454,0,0,1-.018-.536,10.926,10.926,0,0,1,1.249-1.509A10.275,10.275,0,0,1,9.566,20.3a.454.454,0,0,1,.513,0l1.7,1.173c.161-.078.326-.152.495-.221q.277-.114.543-.2l.408-2.011a.453.453,0,0,1,.367-.377,11.231,11.231,0,0,1,1.961-.192,9.91,9.91,0,0,1,1.857.157.454.454,0,0,1,.394.364l.4,2.033q.262.088.522.2h0q.257.106.507.23l1.706-1.137a.454.454,0,0,1,.527-.011q.395.27.776.588.233.2.455.4a2.275,2.275,0,0,1,2.062-.03,3.123,3.123,0,0,1,6.138.582,3.183,3.183,0,0,1,2.9,5.539A3.383,3.383,0,0,1,32,28.12a.411.411,0,0,1-.061,0l-1.2,0Zm-1.46,5.654a.376.376,0,1,0,.267.11A.376.376,0,0,0,29.279,33.772Zm2.619-2.3a.376.376,0,1,0,.11.267A.376.376,0,0,0,31.9,31.467Zm-13.245-2.5a3.139,3.139,0,1,1-.919-2.219A3.14,3.14,0,0,1,18.653,28.967Zm-.277-2.862a4.048,4.048,0,1,1-2.862-1.185,4.048,4.048,0,0,1,2.862,1.185Z" transform="translate(3 -6.468)" fill="#fff" fill-rule="evenodd"/>
  </g>
</svg>
