<svg xmlns="http://www.w3.org/2000/svg" width="60" height="60" viewBox="0 0 60 60">
  <g id="software-development-for-water-management" transform="translate(-678 -5700)">
    <circle id="Ellipse_14" data-name="Ellipse 14" cx="30" cy="30" r="30" transform="translate(678 5700)" fill="#fff2e8"/>
    <g id="noun-water-drop-management-4348786" transform="translate(688 5709.971)">
      <path id="Path_9234" data-name="Path 9234" d="M40.851,25.358,39.3,24.885a10.482,10.482,0,0,0-1.286-3.1l.763-1.434a1.074,1.074,0,0,0-.121-1.2c-.218-.263-.457-.523-.709-.775s-.516-.493-.775-.709a1.073,1.073,0,0,0-1.2-.119l-1.433.762a10.483,10.483,0,0,0-3.1-1.286l-.474-1.549a1.074,1.074,0,0,0-.933-.762,12.113,12.113,0,0,0-2.1,0,1.074,1.074,0,0,0-.933.762l-.474,1.549a10.483,10.483,0,0,0-3.1,1.286L22,17.555c-.013-.007-.029-.008-.042-.015a9.332,9.332,0,0,0,.368-2.552c0-5.532-5.88-12.524-7.685-14.539a1.357,1.357,0,0,0-1.964,0C10.879,2.463,5,9.454,5,14.987a8.857,8.857,0,0,0,8.665,9.018,8.455,8.455,0,0,0,6.1-2.61l.208.392a10.482,10.482,0,0,0-1.286,3.1l-1.548.474a1.074,1.074,0,0,0-.763.933c-.031.332-.046.685-.046,1.046s.015.715.046,1.048a1.074,1.074,0,0,0,.762.933l1.548.474a10.482,10.482,0,0,0,1.286,3.1l-.761,1.432a1.07,1.07,0,0,0,.119,1.2c.217.261.456.522.709.775s.518.5.773.707a1.072,1.072,0,0,0,1.2.121l1.433-.762a10.482,10.482,0,0,0,3.1,1.286l.474,1.548a1.074,1.074,0,0,0,.933.763c.333.031.688.046,1.049.046s.715-.015,1.048-.046a1.074,1.074,0,0,0,.933-.762l.474-1.548a10.482,10.482,0,0,0,3.1-1.286l1.432.761a1.07,1.07,0,0,0,1.2-.119c.261-.217.522-.456.774-.708s.493-.514.708-.773a1.074,1.074,0,0,0,.122-1.2l-.763-1.433a10.482,10.482,0,0,0,1.286-3.1l1.548-.474a1.074,1.074,0,0,0,.763-.933c.031-.333.046-.688.046-1.049s-.015-.713-.046-1.048a1.074,1.074,0,0,0-.769-.931ZM13.664,22.672a7.523,7.523,0,0,1-7.332-7.685c0-5.06,5.62-11.724,7.322-13.644C15.377,3.263,21,9.927,21,14.987a7.924,7.924,0,0,1-.617,3.085c-.113.1-.227.2-.339.311-.255.256-.495.517-.707.773a1.061,1.061,0,0,0-.211.948A7.153,7.153,0,0,1,13.664,22.672ZM40.3,28.093l-1.76.538a.667.667,0,0,0-.459.508,9.186,9.186,0,0,1-1.39,3.348.667.667,0,0,0-.035.684l.867,1.627c-.16.186-.333.371-.515.553s-.365.354-.552.515L34.828,35a.667.667,0,0,0-.684.035,9.186,9.186,0,0,1-3.349,1.39.667.667,0,0,0-.508.459l-.538,1.76a10.758,10.758,0,0,1-1.509,0l-.538-1.76a.667.667,0,0,0-.508-.459,9.186,9.186,0,0,1-3.348-1.39A.667.667,0,0,0,23.162,35l-1.628.867c-.183-.158-.369-.333-.553-.515s-.354-.365-.515-.552l.867-1.628a.667.667,0,0,0-.035-.684,9.186,9.186,0,0,1-1.39-3.349.667.667,0,0,0-.459-.508l-1.76-.538c-.017-.242-.027-.5-.027-.754s.009-.511.027-.755l1.76-.538a.667.667,0,0,0,.459-.508A9.186,9.186,0,0,1,21.3,22.19a.667.667,0,0,0,.035-.684l-.867-1.628c.159-.184.333-.369.515-.553s.368-.355.553-.515l1.628.867a.667.667,0,0,0,.684-.035,9.179,9.179,0,0,1,3.349-1.39.667.667,0,0,0,.508-.459l.538-1.76a10.757,10.757,0,0,1,1.509,0l.538,1.76a.667.667,0,0,0,.508.459,9.171,9.171,0,0,1,3.347,1.39.667.667,0,0,0,.685.035l1.628-.867c.185.159.369.333.553.515s.353.365.515.552l-.867,1.628a.667.667,0,0,0,.035.684,9.186,9.186,0,0,1,1.39,3.349.667.667,0,0,0,.459.508l1.76.538c.017.243.027.5.027.755S40.317,27.849,40.3,28.093Z" transform="translate(-1.667 0)" fill="#f48120"/>
      <path id="Path_9235" data-name="Path 9235" d="M5.332,3.952A6.263,6.263,0,0,0,3.679.494a1.345,1.345,0,0,0-2.027,0A6.267,6.267,0,0,0,0,3.952,2.7,2.7,0,0,0,2.666,6.676,2.7,2.7,0,0,0,5.332,3.952Zm-4,0A5.14,5.14,0,0,1,2.65,1.344,4.979,4.979,0,0,1,4,3.952,1.364,1.364,0,0,1,2.666,5.343,1.364,1.364,0,0,1,1.333,3.952Z" transform="translate(0 -0.001)" fill="#f48120"/>
      <path id="Path_9236" data-name="Path 9236" d="M30.666,6.676a2.7,2.7,0,0,0,2.666-2.724A6.257,6.257,0,0,0,31.679.494a1.345,1.345,0,0,0-2.027,0A6.267,6.267,0,0,0,28,3.952a2.7,2.7,0,0,0,2.666,2.724ZM30.65,1.344A4.979,4.979,0,0,1,32,3.952a1.333,1.333,0,1,1-2.666,0A5.14,5.14,0,0,1,30.65,1.344Z" transform="translate(-9.337 -0.001)" fill="#f48120"/>
      <path id="Path_9237" data-name="Path 9237" d="M37.332,30a7.332,7.332,0,1,0,7.332,7.332A7.332,7.332,0,0,0,37.332,30Zm0,13.331a6,6,0,1,1,6-6,6,6,0,0,1-6,6Z" transform="translate(-10.004 -9.994)" fill="#f48120"/>
      <path id="Path_9238" data-name="Path 9238" d="M39,35a4,4,0,1,0,4,4A4,4,0,0,0,39,35Zm0,6.665A2.666,2.666,0,1,1,41.665,39,2.666,2.666,0,0,1,39,41.665Z" transform="translate(-11.671 -11.661)" fill="#f48120"/>
      <path id="Path_9239" data-name="Path 9239" d="M11.323,26.294a.667.667,0,0,0-1.166.646,6.411,6.411,0,0,0,.512.782.667.667,0,1,0,1.058-.811,5.015,5.015,0,0,1-.4-.617Z" transform="translate(-3.359 -8.643)" fill="#f48120"/>
      <path id="Path_9240" data-name="Path 9240" d="M14.48,6.174C11.83,9.471,9,14.125,9,17.3a.667.667,0,0,0,1.333,0c0-2.652,2.6-7.081,5.185-10.293a.667.667,0,1,0-1.038-.835Z" transform="translate(-3.001 -1.961)" fill="#f48120"/>
    </g>
  </g>
</svg>
