<?xml version="1.0" encoding="UTF-8"?><svg id="Layer_1" xmlns="http://www.w3.org/2000/svg" viewBox="0 0 400 400"><path d="M9.87,245.32c.97-.11,1.95-.31,2.92-.31,31.17-.02,62.33-.02,93.5,0,.98,0,1.95.11,3.46.2v17.92c4.71,0,8.89.09,13.05-.07.98-.04,2.06-.72,2.86-1.39,24.56-20.38,52.57-23.29,80.67-8.18,2.41,1.3,4.35,1.46,6.89.42,10.41-4.22,20.87-8.33,31.4-12.25,15.64-5.83,31.21,3.56,33.56,20.06,1.45,10.17-4.51,20.75-14.56,25.16-11.53,5.06-23.18,9.83-34.78,14.74-1.09.46-2.15.98-3.77,1.72,1.51.53,2.38.89,3.27,1.14,16.02,4.51,32.04,9,48.24,13.55,4.69-9.91,9.27-19.6,13.87-29.3,4.39-9.26,8.66-18.58,13.21-27.76,4.21-8.48,12.78-12.95,22.02-11.88,8.96,1.04,16.67,7.78,18.43,16.89.72,3.76.12,7.79.12,12.18,4.18-2.53,8.29-5.1,12.49-7.54,13.54-7.85,29.75-.6,32.71,14.7,1.41,7.31-.41,14.17-5.99,18.96-13.87,11.91-28.17,23.3-42.63,35.18-2.42-2.9-4.67-5.59-7.13-8.54,3.2-2.65,6.22-5.17,9.27-7.66,10.24-8.38,20.5-16.73,30.72-25.12,5.35-4.39,6.49-10.04,3.11-14.98-3.46-5.05-9.38-5.99-15.41-2.33-25.88,15.71-51.77,31.38-77.54,47.25-3.04,1.87-5.59,2.11-8.92,1.15-27.05-7.77-54.14-15.38-81.23-23.04-.46-.13-.92-.3-2.36-.76,2.05-.95,3.37-1.61,4.72-2.18,20.6-8.67,41.21-17.3,61.79-25.99,6.77-2.85,10.29-8.59,9.21-14.78-1.53-8.84-9.91-13.66-18.49-10.41-12.36,4.67-24.66,9.48-36.92,14.39-2.2.88-3.79.73-5.78-.49-8.82-5.43-18.24-9.29-28.65-10.43-18.06-1.98-33.32,3.95-46.13,16.5-1.67,1.64-3.21,2.31-5.46,2.25-5.05-.13-10.11-.04-15.63-.04v25.78h-11.18v-43.68H21.3v122.12h77.24v-66.79h11.23v48.08c1.62,0,2.92.05,4.22,0,27.06-1.25,53.78,2.55,80.55,5.46,24.08,2.62,48.17,5.17,72.25,7.75,2.83.3,5.73.3,8.46.96,3.64.88,6.22-.28,9-2.6,12.62-10.55,25.41-20.88,38.14-31.28.76-.62,1.57-1.19,2.54-1.92,2.31,2.83,4.57,5.59,6.97,8.52-5.87,4.81-11.6,9.51-17.33,14.2-9.47,7.75-18.9,15.56-28.49,23.17-1.35,1.07-3.56,1.76-5.26,1.59-31.84-3.32-63.66-6.78-95.48-10.23-23.59-2.56-47.15-5.59-70.97-4.47-1.33.06-2.67,0-4.34,0v19.11H9.87c0-48.23,0-96.46,0-144.69ZM293.65,307.99c.16.21.33.42.49.63,7.77-4.72,15.21-10.12,23.38-13.99,8.98-4.26,13.9-10.75,15.35-20.29.02-.12.08-.23.11-.35,1.57-5.71-.89-10.98-6.1-13.09-5.18-2.09-10.83-.05-13.42,5.3-6.71,13.88-13.23,27.85-19.82,41.79Z"/><path d="M329.09,116.96c-3.43-1.51-6.56-2.88-9.37-4.11,1.48-6.55,3.34-12.69,4.23-18.98,4.91-34.66-21.93-68.56-56.77-71.97-36.95-3.61-68.21,20.88-72.13,57.81-2.71,25.57,7.44,46.11,28.74,60.73,3.08,2.11,4.64,4.09,4.31,7.92-.37,4.27-.08,8.6-.08,13.13h63.07c0-4.98.14-9.99-.06-15-.1-2.41.69-3.77,2.75-5.01,8.26-4.97,14.88-11.73,20.41-19.93,3.22,2.07,6.18,3.98,9.28,5.98-4.91,7.7-10.71,14.09-17.78,19.2-2.71,1.96-3.59,4.05-3.54,7.33.2,13.6.09,27.2.1,40.8,0,1.34,0,2.68,0,4.45h-14.74v28.03h-55.72v-27.83h-14.94c0-1.61,0-2.91,0-4.21,0-14.34.09-28.68-.08-43.02-.02-1.52-1.03-3.56-2.25-4.47-25.31-19.11-36.32-49.64-28.76-80.22,7.23-29.27,31.97-52.13,62.56-56.41,28.7-4.01,52.91,5.49,70.85,28.26,17.85,22.65,20.97,48.11,11.04,75.16-.25.68-.63,1.32-1.14,2.37ZM228.11,188h62.75v-14.89h-62.75v14.89ZM276.08,199.64h-32.94v16.64h32.94v-16.64Z"/><path d="M38.66,340.54c-.04-11.78,9.23-21.18,21.01-21.28,11.87-.11,21.48,9.44,21.44,21.29-.04,11.61-9.66,21.18-21.26,21.19-11.67,0-21.13-9.47-21.18-21.2ZM49.82,340.29c-.07,5.63,4.39,10.25,9.94,10.29,5.49.04,10.17-4.63,10.17-10.14,0-5.46-4.35-9.88-9.83-10-5.73-.13-10.21,4.17-10.28,9.85Z"/><path d="M230.09,88.58c2.06-2.06,4.48-4.48,7.09-7.09,5.57,5.66,11.24,11.44,17.32,17.63,9.39-9.54,18.37-18.66,27.37-27.8,2.66,2.76,5.04,5.22,7.09,7.34-11.42,11.43-23.07,23.1-34.42,34.47-7.81-7.84-16.13-16.19-24.45-24.55Z"/><path d="M336.14,143.98c1.85-3.22,3.55-6.2,5.53-9.64,9.62,5.55,19.07,10.99,28.84,16.62-1.87,3.27-3.62,6.32-5.54,9.66-9.68-5.59-19.15-11.05-28.83-16.64Z"/><path d="M148.53,30.64c1.94-3.33,3.66-6.31,5.59-9.62,9.62,5.54,19.06,10.99,28.85,16.63-1.87,3.25-3.63,6.29-5.57,9.64-9.64-5.56-19.09-11.01-28.87-16.66Z"/><path d="M343.86,51.11c-1.92-3.33-3.63-6.3-5.56-9.64,9.58-5.54,19.02-11,28.83-16.67,1.85,3.19,3.62,6.23,5.58,9.62-9.55,5.53-19.01,11-28.85,16.69Z"/><path d="M146.37,147.22c9.6-5.55,18.98-10.97,28.82-16.66,1.83,3.15,3.6,6.18,5.6,9.62-9.62,5.56-19.08,11.02-28.85,16.67-1.89-3.27-3.65-6.31-5.57-9.63Z"/><path d="M166.38,83.29v10.66h-32.9v-10.66h32.9Z"/><path d="M352.67,98.23v-10.63h32.88v10.63h-32.88Z"/></svg>