<svg xmlns="http://www.w3.org/2000/svg" width="60" height="60" viewBox="0 0 60 60">
  <g id="speech-recognition" transform="translate(-678 -6094)">
    <circle id="Ellipse_14" data-name="Ellipse 14" cx="30" cy="30" r="30" transform="translate(678 6094)" fill="#fff2e8"/>
    <g id="noun-voice-4715078" transform="translate(682 6095)">
      <path id="Path_9164" data-name="Path 9164" d="M8,25.571A11.665,11.665,0,0,1,20,14c8.358,0,12.262,5.425,12.425,10.59l3.187,5.845a1.929,1.929,0,0,1-1.694,2.851H32.429v2.571a2.575,2.575,0,0,1-2.571,2.571H27.318A11.443,11.443,0,0,0,28.436,43a1.286,1.286,0,1,1-2.3,1.15,15.091,15.091,0,0,1-1.421-7A1.285,1.285,0,0,1,26,35.857h3.857V32a1.285,1.285,0,0,1,1.286-1.286h1.691l-2.82-5.172a1.287,1.287,0,0,1-.157-.615c0-3.1-2.077-8.356-9.859-8.356a9.123,9.123,0,0,0-9.427,9c0,3.808,1.892,7.665,4.5,9.172a1.286,1.286,0,0,1,.643,1.114c0,2.875-1.564,6-2.707,8.289a1.286,1.286,0,0,1-2.3-1.15,21.689,21.689,0,0,0,2.4-6.465C10.065,34.363,8,29.991,8,25.571Z" transform="translate(0 0)" fill="#f48120"/>
      <path id="Path_9165" data-name="Path 9165" d="M70.571,63.286v1.286a1.286,1.286,0,0,1-2.571,0V63.286a1.286,1.286,0,0,1,2.571,0Z" transform="translate(-34.286 -27.429)" fill="#f48120"/>
      <path id="Path_9166" data-name="Path 9166" d="M88.571,63.286v1.286a1.286,1.286,0,0,1-2.571,0V63.286a1.286,1.286,0,1,1,2.571,0Z" transform="translate(-44.571 -27.429)" fill="#f48120"/>
      <path id="Path_9167" data-name="Path 9167" d="M78.286,63.714A1.285,1.285,0,0,1,77,62.429V57.286a1.286,1.286,0,0,1,2.571,0v5.143A1.285,1.285,0,0,1,78.286,63.714Z" transform="translate(-39.429 -24)" fill="#f48120"/>
      <path id="Path_9168" data-name="Path 9168" d="M46.25,39.286A1.285,1.285,0,0,1,47.536,38h.643a1.286,1.286,0,1,1,0,2.571h-.643A1.285,1.285,0,0,1,46.25,39.286Z" transform="translate(-21.857 -13.714)" fill="#f48120"/>
    </g>
  </g>
</svg>
