<svg xmlns="http://www.w3.org/2000/svg" width="60" height="60" viewBox="0 0 60 60">
  <g id="sports-performance-analysis-software" transform="translate(-652 -4401)">
    <circle id="Ellipse_14" data-name="Ellipse 14" cx="30" cy="30" r="30" transform="translate(652 4401)" fill="#fff2e8"/>
    <g id="noun-motion-tracking-5558318" transform="translate(665 4414)">
      <path id="Path_9130" data-name="Path 9130" d="M20.571,6.286a4.286,4.286,0,1,0-4.286,4.286A4.29,4.29,0,0,0,20.571,6.286ZM16.286,8.429a2.143,2.143,0,1,1,2.143-2.143A2.145,2.145,0,0,1,16.286,8.429Z" transform="translate(0.714)" fill="#f48120"/>
      <path id="Path_9131" data-name="Path 9131" d="M7.708,16.02a2.659,2.659,0,0,0-1,.2c-.013-.009-.019-.023-.033-.031q-.2-.127-.39-.264a1.071,1.071,0,0,0-1.258,1.735c.056.041.117.079.175.119a2.65,2.65,0,0,0-.174.922A2.679,2.679,0,1,0,7.708,16.02Zm0,3.214a.536.536,0,1,1,.536-.536A.536.536,0,0,1,7.708,19.234Z" transform="translate(0.185 0.98)" fill="#f48120"/>
      <path id="Path_9132" data-name="Path 9132" d="M4.679,25a2.679,2.679,0,1,0,2.679,2.679A2.681,2.681,0,0,0,4.679,25Zm0,3.214a.536.536,0,1,1,.536-.536A.536.536,0,0,1,4.679,28.214Z" transform="translate(0 1.643)" fill="#f48120"/>
      <path id="Path_9133" data-name="Path 9133" d="M27.679,25a2.679,2.679,0,1,0,2.679,2.679A2.681,2.681,0,0,0,27.679,25Zm0,3.214a.536.536,0,1,1,.536-.536A.536.536,0,0,1,27.679,28.214Z" transform="translate(1.643 1.643)" fill="#f48120"/>
      <path id="Path_9134" data-name="Path 9134" d="M21,20.569V15.357h3.75a2.679,2.679,0,0,0,0-5.357H8.679a2.679,2.679,0,0,0,0,5.357h3.75v5.212L10.391,27.92a2.734,2.734,0,1,0,5.282,1.415l1.04-4.179,1.042,4.2a2.735,2.735,0,1,0,5.284-1.407Zm-.4,8.687a.6.6,0,0,1-.76-.42l-2.081-8.38a1.072,1.072,0,0,0-1.04-.813h0a1.071,1.071,0,0,0-1.04.813l-2.081,8.361a.592.592,0,1,1-1.14-.317L14.533,21a1.077,1.077,0,0,0,.039-.286V14.286A1.071,1.071,0,0,0,13.5,13.214H8.679a.536.536,0,0,1,0-1.071H24.75a.536.536,0,0,1,0,1.071H19.929a1.071,1.071,0,0,0-1.071,1.071v6.429A1.077,1.077,0,0,0,18.9,21l2.081,7.526A.6.6,0,0,1,20.6,29.255Z" transform="translate(0.286 0.571)" fill="#f48120"/>
      <path id="Path_9135" data-name="Path 9135" d="M4.814,8.249a1.071,1.071,0,0,0,1.5.214l.4-.3A2.717,2.717,0,1,0,5.207,6.617l-.178.133A1.071,1.071,0,0,0,4.814,8.249ZM7.707,5.143a.536.536,0,1,1-.536.536A.536.536,0,0,1,7.707,5.143Z" transform="translate(0.186 0.071)" fill="#f48120"/>
      <path id="Path_9136" data-name="Path 9136" d="M2.985,11.669a1.07,1.07,0,0,0,1.335-.716,4.817,4.817,0,0,1,.335-.822,1.072,1.072,0,0,0-1.9-.986,6.986,6.986,0,0,0-.482,1.189A1.07,1.07,0,0,0,2.985,11.669Z" transform="translate(0.016 0.469)" fill="#f48120"/>
      <path id="Path_9137" data-name="Path 9137" d="M2.742,15.073A1.072,1.072,0,1,0,4.65,14.1a4.856,4.856,0,0,1-.332-.827,1.072,1.072,0,0,0-2.054.613A7.1,7.1,0,0,0,2.742,15.073Z" transform="translate(0.016 0.75)" fill="#f48120"/>
      <path id="Path_9138" data-name="Path 9138" d="M24.679,8.357a2.657,2.657,0,0,0,.991-.195l.4.3A1.071,1.071,0,1,0,27.357,6.75l-.178-.133a2.654,2.654,0,0,0,.178-.938,2.679,2.679,0,1,0-2.679,2.679Zm0-3.214a.536.536,0,1,1-.536.536A.536.536,0,0,1,24.679,5.143Z" transform="translate(1.429 0.071)" fill="#f48120"/>
      <path id="Path_9139" data-name="Path 9139" d="M27.357,18.7a2.649,2.649,0,0,0-.174-.922c.058-.04.119-.078.175-.119A1.071,1.071,0,0,0,26.1,15.923q-.188.137-.39.264c-.013.008-.02.023-.033.031A2.676,2.676,0,1,0,27.357,18.7Zm-2.679.536a.536.536,0,1,1,.536-.536A.536.536,0,0,1,24.679,19.234Z" transform="translate(1.429 0.98)" fill="#f48120"/>
      <path id="Path_9140" data-name="Path 9140" d="M27.85,10.953a1.071,1.071,0,0,0,2.051-.619,6.986,6.986,0,0,0-.482-1.189,1.072,1.072,0,0,0-1.9.986A4.818,4.818,0,0,1,27.85,10.953Z" transform="translate(1.814 0.469)" fill="#f48120"/>
      <path id="Path_9141" data-name="Path 9141" d="M29.185,12.551a1.072,1.072,0,0,0-1.333.72,4.856,4.856,0,0,1-.332.827,1.072,1.072,0,0,0,1.909.975,7.1,7.1,0,0,0,.478-1.189A1.071,1.071,0,0,0,29.185,12.551Z" transform="translate(1.814 0.75)" fill="#f48120"/>
    </g>
  </g>
</svg>
