<svg id="sports-mobile-app-development" xmlns="http://www.w3.org/2000/svg" xmlns:xlink="http://www.w3.org/1999/xlink" width="45" height="45" viewBox="0 0 45 45">
  <defs>
    <linearGradient id="linear-gradient" x1="0.5" x2="0.156" y2="0.791" gradientUnits="objectBoundingBox">
      <stop offset="0" stop-color="#3e3e3e"/>
      <stop offset="1" stop-color="#1a1a1a"/>
    </linearGradient>
  </defs>
  <circle id="Ellipse_1" data-name="Ellipse 1" cx="22.5" cy="22.5" r="22.5" fill="url(#linear-gradient)"/>
  <g id="noun-football-match-4447131" transform="translate(1.15 5.09)">
    <path id="Path_9104" data-name="Path 9104" d="M28.109,20.315v-6.8A1.12,1.12,0,0,0,26.99,12.4H18.045a1.116,1.116,0,0,0-1.115,1.115v6.8a1.117,1.117,0,0,0,1.115,1.119H26.99A1.117,1.117,0,0,0,28.109,20.315Zm-10.762,0v-6.8a.7.7,0,0,1,.694-.694h8.946a.7.7,0,0,1,.7.694v6.8a.7.7,0,0,1-.7.7H18.045A.693.693,0,0,1,17.346,20.315Z" transform="translate(-3.523 -5.499)" fill="#fff"/>
    <path id="Path_9105" data-name="Path 9105" d="M29.276,20.073l-1.935-1.14a.663.663,0,0,0-1,.572v2.279a.656.656,0,0,0,.332.576.678.678,0,0,0,.332.088.655.655,0,0,0,.336-.093l1.935-1.14a.66.66,0,0,0,.324-.572A.676.676,0,0,0,29.276,20.073Z" transform="translate(-8.975 -9.231)" fill="#fff"/>
    <path id="Path_9106" data-name="Path 9106" d="M17.59,39.841h2.292a.662.662,0,0,0,.66-.665V36.884a.662.662,0,0,0-.66-.665H17.59a.662.662,0,0,0-.66.665v2.288A.661.661,0,0,0,17.59,39.841Z" transform="translate(-3.523 -19.301)" fill="#fff"/>
    <path id="Path_9107" data-name="Path 9107" d="M22.6,47.66a.208.208,0,0,0-.21-.21H17.14a.21.21,0,1,0,0,.421h5.249A.211.211,0,0,0,22.6,47.66Z" transform="translate(-3.523 -25.808)" fill="#fff"/>
    <path id="Path_9108" data-name="Path 9108" d="M17.14,51.52a.21.21,0,0,0,0,.421H21.9a.21.21,0,0,0,0-.421Z" transform="translate(-3.523 -28.166)" fill="#fff"/>
    <path id="Path_9109" data-name="Path 9109" d="M37.763,38.93A6.763,6.763,0,1,0,44.526,45.7,6.775,6.775,0,0,0,37.763,38.93Zm-6.229,7.953a6.515,6.515,0,0,1-.114-1.186,6.252,6.252,0,0,1,.114-1.165l2.179-.925,1.632.942-.273.2a.208.208,0,0,0-.08.231l.568,1.75L33.7,47.8Zm6.014,3.39-1.867,1.409A6.378,6.378,0,0,1,33.633,50.5l.286-2.33,1.775-1.026.282.866a.208.208,0,0,0,.2.143h1.375v2.12Zm0-7.331L35.715,44.28l-1.8-1.039L33.633,40.9a0,0,0,0,1,0,0,6.366,6.366,0,0,1,2.031-1.178.015.015,0,0,0,0,.008l1.888,1.426Zm.421-1.8,1.884-1.417a.009.009,0,0,0,.008-.008A6.289,6.289,0,0,1,41.9,40.9l0,0-.286,2.347-1.792,1.035-1.842-1.337v-1.8Zm1.876,10.531-1.88-1.413V48.149h1.384a.208.208,0,0,0,.2-.143l.278-.858,1.779,1.022.286,2.326A6.282,6.282,0,0,1,39.849,51.677ZM41.813,47.8,39.962,46.74l.572-1.758a.208.208,0,0,0-.08-.231l-.269-.2,1.632-.946,2.174.925A6.252,6.252,0,0,1,44.1,45.7a6.434,6.434,0,0,1-.114,1.182Z" transform="translate(-11.676 -20.871)" fill="#fff"/>
    <path id="Path_9110" data-name="Path 9110" d="M17.857,27.913a.866.866,0,0,1,0-1.733h.833c-.105-.4-.177-.681-.177-.681V25.49a.208.208,0,0,0-.21-.21H12.629V5.736H25.36V17.029a.211.211,0,0,0,.21.21.229.229,0,0,0,.093-.021H26.79a.224.224,0,0,0,.139.05.208.208,0,0,0,.21-.21V4.479A1.569,1.569,0,0,0,25.57,2.91H12.419A1.569,1.569,0,0,0,10.85,4.479V27.244a1.569,1.569,0,0,0,1.569,1.569h6.834a3.117,3.117,0,0,0-.151-.9ZM20.431,4.189h.479a.208.208,0,0,1,.21.21.211.211,0,0,1-.21.21h-.479a.214.214,0,0,1-.21-.21A.211.211,0,0,1,20.431,4.189Zm-3.356,0h2.1a.211.211,0,0,1,.21.21.214.214,0,0,1-.21.21h-2.1a.211.211,0,0,1-.21-.21A.208.208,0,0,1,17.074,4.189Z" fill="#fff"/>
  </g>
</svg>
