<svg xmlns="http://www.w3.org/2000/svg" width="60" height="60" viewBox="0 0 60 60">
  <g id="sports-progress" transform="translate(-678 -5841)">
    <circle id="Ellipse_14" data-name="Ellipse 14" cx="30" cy="30" r="30" transform="translate(678 5841)" fill="#fff2e8"/>
    <path id="noun-progress-6921424" d="M10.492,20.691h4.385a.688.688,0,0,1,.691.685V31.751h1.316V17.965a.688.688,0,0,1,.691-.685h4.385a.689.689,0,0,1,.693.685V31.751H23.97v-17.6a.689.689,0,0,1,.693-.685h4.385a.689.689,0,0,1,.693.685v17.6h2.536L31.2,30.928a.677.677,0,0,1-.124-.957.7.7,0,0,1,.969-.122l2.635,2.014a.679.679,0,0,1,0,1.146l-2.637,2.015a.7.7,0,0,1-.969-.122.678.678,0,0,1,.124-.957l1.077-.823-24.519,0a.689.689,0,0,1-.693-.685V8.189L6.235,9.254a.7.7,0,0,1-.969.122.677.677,0,0,1-.125-.957L7.179,5.812a.7.7,0,0,1,1.159,0L10.375,8.42a.678.678,0,0,1-.124.957.7.7,0,0,1-.969-.122L8.451,8.189V31.75H9.8V21.375a.689.689,0,0,1,.693-.685ZM25.175,6.864l1.351.181L10.573,16.154a.678.678,0,0,0-.251.934.7.7,0,0,0,.944.249L27.218,8.228,26.7,9.476a.68.68,0,0,0,.376.891.692.692,0,0,0,.9-.371L29.25,6.924a.681.681,0,0,0-.556-.965L25.36,5.514a.683.683,0,1,0-.184,1.353Zm3.182,7.969h-3V31.751h3Zm-7.085,3.816h-3v13.1h3ZM14.186,22.06h-3v9.691h3Z" transform="translate(688.003 5850.499)" fill="#f48120" fill-rule="evenodd"/>
  </g>
</svg>
