<svg xmlns="http://www.w3.org/2000/svg" width="60" height="60" viewBox="0 0 60 60">
  <g id="sports-performance-integrations" transform="translate(-652 -4654)">
    <circle id="Ellipse_14" data-name="Ellipse 14" cx="30" cy="30" r="30" transform="translate(652 4654)" fill="#fff2e8"/>
    <g id="_icons" transform="translate(665.035 4668.027)">
      <path id="Path_9142" data-name="Path 9142" d="M14.572,3.165a15.293,15.293,0,0,0-12.4,12.251,15.478,15.478,0,0,0,.907,8.319h0c0,.151.151.3.3.454l.151.151.3.3h0c.151,0,.3.151.454.151h0a.909.909,0,0,0,.6-.151l5.445-2.269c.151-.151.3-.151.454-.3a.148.148,0,0,1,.151-.151c0-.151.151-.151.151-.3V20.559a8.52,8.52,0,0,0,0-1.966,6.274,6.274,0,0,1,6.05-6.5A5.492,5.492,0,0,1,21.378,13.9a6.4,6.4,0,0,1,1.815,4.537,7.592,7.592,0,0,1-.3,1.815v1.059c0,.151.151.151.151.3a.148.148,0,0,0,.151.151c.151.151.3.3.454.3l5.445,2.269a.909.909,0,0,0,.6.151.556.556,0,0,0,.454-.151h0a.325.325,0,0,0,.3-.3l.151-.151c.151-.151.151-.3.3-.454h0a14.166,14.166,0,0,0,1.059-5.6A14.97,14.97,0,0,0,27.579,7.1,15.285,15.285,0,0,0,14.572,3.165ZM5.194,16.021a11.322,11.322,0,0,1,2.571-5.445l2.571,1.664a10.487,10.487,0,0,0-2.269,6.352,4.187,4.187,0,0,0,.151,1.361l-1.966.907-.907.3A14.7,14.7,0,0,1,5.194,16.021Zm7.411-5.747L9.883,8.459A13.089,13.089,0,0,1,15.025,6.19,12.242,12.242,0,0,1,24.4,8.459L21.68,10.274a9.113,9.113,0,0,0-9.075,0ZM28.94,21.164l-2.722-1.21c0-.454.151-.907.151-1.361a9.231,9.231,0,0,0-2.269-6.2l2.571-1.815a12.032,12.032,0,0,1,2.571,7.562A20.5,20.5,0,0,1,28.94,21.164Z" transform="translate(0 0)" fill="#f48120"/>
      <path id="Path_9143" data-name="Path 9143" d="M13.127,24.049a3.034,3.034,0,0,0,3.025-3.025,2.555,2.555,0,0,0-.454-1.512l-.6-3.025-.3-1.512c-.151-.454-.151-1.059-.3-1.512A1.356,1.356,0,0,0,13.127,12.1a1.645,1.645,0,0,0-1.664,1.361,5.374,5.374,0,0,1-.3,1.512l-.3,1.512-.6,3.025A2.918,2.918,0,0,0,9.8,21.024,3.542,3.542,0,0,0,13.127,24.049Z" transform="translate(4.015 4.677)" fill="#f48120"/>
    </g>
  </g>
</svg>
