<svg xmlns="http://www.w3.org/2000/svg" width="60" height="60" viewBox="0 0 60 60">
  <g id="sports-data-management_" data-name="sports-data-management " transform="translate(-652 -4535)">
    <circle id="Ellipse_14" data-name="Ellipse 14" cx="30" cy="30" r="30" transform="translate(652 4535)" fill="#fff2e8"/>
    <path id="chart-mixed-svgrepo-com" d="M3,33V26.333M13,33V19.667M23,33V23M33,33V16.333M12.066,7.268a2.5,2.5,0,0,0,3.536,0m-3.536,0a2.5,2.5,0,1,1,3.536,0m-3.536,0-4.8,4.8m0,0A2.5,2.5,0,1,0,8,13.833,2.492,2.492,0,0,0,7.268,12.066Zm8.333-4.8,4.8,4.8m0,0a2.5,2.5,0,1,0,3.536,0m-3.536,0a2.5,2.5,0,0,1,3.536,0m0,0,4.8-4.8m0,0A2.5,2.5,0,1,0,28,5.5,2.493,2.493,0,0,0,28.732,7.268Z" transform="translate(664.5 4547.5)" fill="rgba(244,129,32,0)" stroke="#f48120" stroke-linecap="round" stroke-linejoin="round" stroke-width="2"/>
  </g>
</svg>
