<svg width="139" height="40" viewBox="0 0 139 40" fill="none" xmlns="http://www.w3.org/2000/svg">
<path d="M14.2515 6.5196C14.2515 6.5196 12.4211 4.64958 9.54471 4.99379C6.66837 5.34313 3.81717 8.28174 4.88825 12.5304C5.95934 16.779 11.4304 18.0634 14.3571 15.1505L17.3139 18.3305C17.3139 18.3305 12.8937 23.7454 5.22517 20.1286C-2.43837 16.5119 -1.31701 4.21804 6.27111 1.46438C13.3262 -1.09406 17.1278 3.73512 17.1278 3.73512L14.2515 6.51447V6.5196Z" fill="#213168"/>
<path d="M19.1191 21.0273L22.1865 1.7774C22.3223 0.919449 23.4437 0.729364 23.846 1.4897L30.016 13.1517C30.1266 13.3623 30.4284 13.3623 30.539 13.1517L36.6135 1.45374C37.0108 0.693402 38.1221 0.868074 38.2729 1.71575L41.5365 21.0273H37.1868L35.824 11.5488L31.1424 20.8424C30.9765 21.1763 30.6396 21.387 30.2725 21.387C29.9104 21.387 29.5785 21.1815 29.4076 20.8527L24.6958 11.7646L23.333 21.0736L19.1141 21.0273H19.1191Z" fill="#213168"/>
<path d="M43.8094 21.0273L46.8768 1.7774C47.0126 0.919449 48.134 0.729364 48.5363 1.4897L54.7063 13.1517C54.817 13.3623 55.1187 13.3623 55.2293 13.1517L61.3038 1.45374C61.7011 0.693402 62.8124 0.868074 62.9632 1.71575L66.2268 21.0273H61.8771L60.5143 11.5488L55.8327 20.8424C55.6668 21.1763 55.3299 21.387 54.9628 21.387C54.6007 21.387 54.2688 21.1815 54.0979 20.8527L49.3861 11.7646L48.0234 21.0736L43.8044 21.0273H43.8094Z" fill="#213168"/>
<path d="M73.8451 0.96582H69.3998V21.3768H73.8451V0.96582Z" fill="#213168"/>
<path d="M85.9438 8.3687V2.47607H87.1406C88.0055 2.47607 88.629 2.548 89.0162 2.68671C89.5744 2.88707 90.0119 3.23641 90.3287 3.72961C90.6455 4.2228 90.8014 4.8136 90.8014 5.49688C90.8014 6.08768 90.6757 6.60656 90.4293 7.05352C90.1778 7.50048 89.856 7.83441 89.4588 8.04504C89.0615 8.25568 88.5033 8.36356 87.7843 8.36356H85.9488L85.9438 8.3687ZM86.4969 7.81386H87.1607C87.9602 7.81386 88.5084 7.76249 88.8201 7.65974C89.2526 7.51589 89.5945 7.25388 89.8409 6.88399C90.0873 6.50895 90.213 6.05172 90.213 5.50716C90.213 4.9369 90.0773 4.45398 89.8108 4.04813C89.5392 3.64741 89.1671 3.36999 88.6844 3.221C88.3223 3.10798 87.7289 3.05147 86.8992 3.05147H86.4919V7.80872L86.4969 7.81386Z" fill="#46B6EA"/>
<path d="M91.9228 2.47607H95.2265V3.05147H92.496V4.8958H95.2014V5.47119H92.496V7.78817H95.2014V8.36357H91.9177V2.47607H91.9228Z" fill="#46B6EA"/>
<path d="M95.7847 2.47607H96.4133L98.3242 7.02783L100.265 2.47607H100.894L98.3845 8.3687H98.2588L95.7847 2.47607Z" fill="#46B6EA"/>
<path d="M116.844 8.3687L117.669 2.47607H117.765L120.108 7.31039L122.431 2.47607H122.522L123.351 8.3687H122.788L122.22 4.15601L120.183 8.3687H120.037L117.976 4.12519L117.408 8.3687H116.849H116.844Z" fill="#46B6EA"/>
<path d="M124.483 2.47607H125.061V7.79845H127.279V8.3687H124.483V2.47607Z" fill="#46B6EA"/>
<path d="M130.648 3.84292H130.059C130.165 3.35487 130.371 2.98497 130.673 2.72296C130.975 2.46096 131.332 2.33252 131.749 2.33252C132.051 2.33252 132.332 2.40444 132.589 2.54315C132.85 2.68186 133.051 2.87195 133.192 3.10827C133.333 3.34459 133.403 3.59633 133.403 3.8532C133.403 4.3618 133.157 4.76252 132.664 5.06049C132.941 5.17352 133.167 5.34305 133.348 5.56396C133.6 5.87734 133.725 6.22669 133.725 6.612C133.725 6.94593 133.64 7.26445 133.469 7.56756C133.298 7.87066 133.062 8.10699 132.765 8.27138C132.468 8.43578 132.131 8.51798 131.764 8.51798C131.266 8.51798 130.854 8.37413 130.522 8.0813C130.19 7.78847 129.974 7.36206 129.873 6.79181H130.437C130.537 7.17198 130.678 7.4494 130.864 7.61893C131.1 7.8347 131.407 7.94259 131.774 7.94259C132.192 7.94259 132.529 7.81415 132.78 7.55728C133.031 7.30041 133.162 7.00244 133.162 6.65823C133.162 6.42705 133.097 6.21128 132.971 6.01605C132.845 5.81569 132.674 5.66671 132.463 5.56396C132.252 5.46121 131.92 5.39956 131.472 5.37388V4.83445C131.739 4.83445 131.975 4.78821 132.192 4.6906C132.408 4.59299 132.564 4.47483 132.664 4.32584C132.76 4.17686 132.81 4.0176 132.81 3.84292C132.81 3.58605 132.71 3.36514 132.508 3.18019C132.307 2.99525 132.056 2.89764 131.749 2.89764C131.503 2.89764 131.286 2.96956 131.105 3.11341C130.924 3.25726 130.774 3.49872 130.648 3.84292Z" fill="#46B6EA"/>
<path d="M85.7879 12.9668L89.5191 21.197H87.9803L87.3719 19.5633H84.2039L83.5703 21.197H82.0316L85.7828 12.9668H85.7879ZM85.7879 15.9054L84.747 18.0888H86.8238L85.7879 15.9054Z" fill="#213168"/>
<path d="M112.389 12.9668L116.12 21.197H114.581L113.973 19.5633H110.805L110.171 21.197H108.633L112.384 12.9668H112.389ZM112.394 15.9054L111.353 18.0888H113.43L112.394 15.9054Z" fill="#213168"/>
<path d="M90.2181 13.2595H91.787C92.6368 13.2595 93.8387 13.3417 94.2158 13.501C94.5929 13.6603 94.8846 13.9223 95.1008 14.2767C95.3171 14.6364 95.5081 15.1963 95.5081 15.6947C95.5081 16.2495 95.3271 17.9551 93.8487 18.3148C93.5621 18.3867 92.4508 18.4381 91.6965 18.4381V21.1917H90.2181V13.2544V13.2595ZM91.6965 16.9636H92.3402C92.848 16.9636 93.2 16.9277 93.3961 16.8506C93.5923 16.7787 93.7481 16.6554 93.8638 16.4858C93.9795 16.3163 94.0348 16.1108 94.0348 15.8642C94.0348 15.4429 93.8739 15.1398 93.5571 14.9446C93.3257 14.8008 92.8983 14.7288 92.2697 14.7288H91.6965V16.9585V16.9636Z" fill="#213168"/>
<path d="M96.549 13.2595H98.1179C98.9678 13.2595 100.17 13.3417 100.547 13.501C100.924 13.6603 101.216 13.9223 101.432 14.2767C101.648 14.6364 101.839 15.1963 101.839 15.6947C101.839 16.2495 101.658 17.9551 100.18 18.3148C99.893 18.3867 98.7817 18.4381 98.0274 18.4381V21.1917H96.549V13.2544V13.2595ZM98.0274 16.9636H98.6711C99.1789 16.9636 99.531 16.9277 99.7271 16.8506C99.9232 16.7787 100.079 16.6554 100.195 16.4858C100.31 16.3163 100.366 16.1108 100.366 15.8642C100.366 15.4429 100.205 15.1398 99.888 14.9446C99.6566 14.8008 99.2292 14.7288 98.6006 14.7288H98.0274V16.9585V16.9636Z" fill="#213168"/>
<path d="M102.664 13.2598H104.464C105.45 13.2598 106.149 13.3368 106.571 13.4961C106.988 13.6502 107.325 13.9122 107.582 14.277C107.838 14.6417 107.964 15.0681 107.964 15.5665C107.964 16.0853 107.823 16.522 107.541 16.8765C107.26 17.231 106.837 17.493 106.269 17.6728L108.381 21.2022H106.526L104.519 17.8423H104.363V21.2022H102.664V13.2649V13.2598ZM104.358 16.3628H104.891C105.429 16.3628 105.802 16.3011 106.008 16.1727C106.214 16.0443 106.315 15.8388 106.315 15.5459C106.315 15.3712 106.264 15.2223 106.164 15.0938C106.063 14.9654 105.927 14.8729 105.756 14.8164C105.585 14.7599 105.279 14.7342 104.826 14.7342H104.358V16.3628Z" fill="#213168"/>
<path d="M117.121 13.2598H118.589V21.1971H117.121V13.2598Z" fill="#213168"/>
<path d="M124.89 14.3386L123.678 15.3249C123.251 14.7804 122.818 14.503 122.376 14.503C122.16 14.503 121.984 14.5543 121.848 14.6622C121.712 14.7701 121.642 14.8883 121.642 15.0218C121.642 15.1554 121.692 15.2787 121.787 15.402C121.918 15.5613 122.32 15.9003 122.989 16.4192C123.613 16.9021 123.995 17.2052 124.126 17.3285C124.458 17.6368 124.694 17.9348 124.83 18.2173C124.971 18.4999 125.036 18.8081 125.036 19.142C125.036 19.7945 124.794 20.3288 124.307 20.7552C123.819 21.1816 123.185 21.3922 122.401 21.3922C121.787 21.3922 121.254 21.2535 120.802 20.9761C120.349 20.6987 119.957 20.262 119.635 19.6712L121.013 18.9057C121.425 19.6044 121.903 19.9589 122.441 19.9589C122.723 19.9589 122.959 19.8818 123.15 19.7329C123.341 19.5839 123.437 19.4092 123.437 19.2088C123.437 19.029 123.366 18.8492 123.221 18.6694C123.075 18.4896 122.758 18.2122 122.265 17.8423C121.33 17.1385 120.721 16.5939 120.45 16.2086C120.178 15.8233 120.037 15.4431 120.037 15.0629C120.037 14.5132 120.264 14.0406 120.721 13.645C121.174 13.2494 121.737 13.0542 122.406 13.0542C122.833 13.0542 123.246 13.1467 123.633 13.3316C124.02 13.5166 124.443 13.8505 124.895 14.3334L124.89 14.3386Z" fill="#213168"/>
<path d="M126.172 13.2595H130.904V14.7391H127.812V16.1725H130.904V17.6212H127.812V19.707H130.904V21.1917H126.172V13.2544V13.2595Z" fill="#213168"/>
<path d="M132.106 13.2598H134.047C135.299 13.2598 136.229 13.4036 136.838 13.6862C137.446 13.9688 137.949 14.4363 138.341 15.0784C138.734 15.7206 138.935 16.4758 138.935 17.3338C138.935 17.9451 138.824 18.5051 138.603 19.0188C138.382 19.5326 138.08 19.959 137.688 20.2929C137.301 20.632 136.878 20.8632 136.426 20.9916C135.973 21.12 135.189 21.1868 134.072 21.1868H132.101V13.2495L132.106 13.2598ZM133.735 14.7188V19.7227H134.495C135.244 19.7227 135.787 19.6456 136.124 19.4863C136.461 19.3271 136.737 19.0599 136.954 18.6849C137.17 18.3099 137.275 17.8475 137.275 17.3029C137.275 16.4604 137.019 15.8079 136.506 15.3404C136.043 14.9243 135.304 14.7137 134.288 14.7137H133.73L133.735 14.7188Z" fill="#213168"/>
<path d="M7.38744 36.0595H5.1095L4.48093 37.6316H3.69647L6.28618 31.4102H6.33647L8.92618 37.6316H8.00596L7.39248 36.0595H7.38744ZM7.11589 35.3608L6.2711 33.1774L5.39613 35.3608H7.11589Z" fill="#0C0C0C"/>
<path d="M13.3463 34.1537H13.8542L13.9045 34.5801H13.9246C14.2565 34.3027 14.6638 34.0664 15.0862 34.0664C16.0265 34.0664 16.5294 34.8062 16.5294 35.9416C16.5294 37.1951 15.7852 37.9246 14.9504 37.9246C14.6185 37.9246 14.2766 37.7705 13.9397 37.4982L13.9547 38.1404V40.0001H13.3362V34.1589L13.3463 34.1537ZM15.8958 35.9416C15.8958 35.1299 15.6192 34.5853 14.9353 34.5853C14.6286 34.5853 14.3168 34.7548 13.9598 35.0888V37.0153C14.2917 37.2927 14.6085 37.3955 14.8498 37.3955C15.4533 37.3955 15.8958 36.8458 15.8958 35.9416Z" fill="#0C0C0C"/>
<path d="M9.58995 34.1537H10.0978L10.1481 34.5801H10.1682C10.5001 34.3027 10.9074 34.0664 11.3298 34.0664C12.2702 34.0664 12.773 34.8062 12.773 35.9416C12.773 37.1951 12.0288 37.9246 11.1941 37.9246C10.8622 37.9246 10.5202 37.7705 10.1833 37.4982L10.1984 38.1404V40.0001H9.5799V34.1589L9.58995 34.1537ZM12.1445 35.9416C12.1445 35.1299 11.8679 34.5853 11.184 34.5853C10.8773 34.5853 10.5655 34.7548 10.2085 35.0888V37.0153C10.5404 37.2927 10.8571 37.3955 11.0985 37.3955C11.7019 37.3955 12.1445 36.8458 12.1445 35.9416Z" fill="#0C0C0C"/>
<path d="M17.1932 34.1484H17.6809L17.7312 34.7905H17.7514C17.9927 34.3436 18.3498 34.061 18.742 34.061C18.8979 34.061 19.0035 34.0816 19.1141 34.133L19.0035 34.657C18.8828 34.621 18.8023 34.6005 18.6665 34.6005C18.3699 34.6005 18.0179 34.8162 17.7815 35.4122V37.6726H17.1932V34.1535V34.1484Z" fill="#0C0C0C"/>
<path d="M19.4811 36.7327C19.4811 35.9775 20.1248 35.6025 21.5881 35.4432C21.5881 34.9962 21.4423 34.5698 20.8791 34.5698C20.4818 34.5698 20.1248 34.7599 19.8583 34.9397L19.632 34.539C19.9488 34.3284 20.4265 34.0869 20.9796 34.0869C21.8144 34.0869 22.1714 34.6469 22.1714 35.51V37.6317H21.6937L21.6434 37.2156H21.6233C21.2964 37.4879 20.9143 37.7139 20.4869 37.7139C19.9136 37.7139 19.4811 37.3543 19.4811 36.7327ZM21.5881 36.7892V35.8285C20.4366 35.9672 20.0494 36.2498 20.0494 36.6916C20.0494 37.0872 20.3159 37.2464 20.6528 37.2464C20.9897 37.2464 21.2562 37.082 21.5881 36.7892Z" fill="#0C0C0C"/>
<path d="M23.1017 32.453C23.1017 32.2064 23.2878 32.0522 23.5292 32.0522C23.7705 32.0522 23.9566 32.2115 23.9566 32.453C23.9566 32.6944 23.7705 32.8537 23.5292 32.8537C23.2878 32.8537 23.1017 32.6841 23.1017 32.453ZM23.2174 34.1483H23.8359V37.6264H23.2174V34.1483Z" fill="#0C0C0C"/>
<path d="M24.3488 37.2309L24.6405 36.8405C24.9422 37.0871 25.254 37.2566 25.6713 37.2566C26.1289 37.2566 26.3602 37.01 26.3602 36.7069C26.3602 36.3421 25.9479 36.1829 25.5607 36.039C25.0729 35.8592 24.5198 35.6178 24.5198 35.0218C24.5198 34.4567 24.9673 34.02 25.7266 34.02C26.1641 34.02 26.5413 34.1998 26.8128 34.4156L26.5312 34.7958C26.2898 34.616 26.0434 34.4824 25.7317 34.4824C25.2892 34.4824 25.088 34.7187 25.088 34.9859C25.088 35.3198 25.4702 35.4482 25.8624 35.5972C26.3653 35.7873 26.9285 35.9979 26.9285 36.6658C26.9285 37.236 26.4759 37.7138 25.6512 37.7138C25.1534 37.7138 24.6757 37.5032 24.3488 37.2258V37.2309Z" fill="#0C0C0C"/>
<path d="M27.3559 36.7477C27.3559 36.008 27.9895 35.6329 29.4277 35.4788C29.4277 35.0421 29.2819 34.6208 28.7287 34.6208C28.3365 34.6208 27.9845 34.8058 27.723 34.9856L27.5017 34.59C27.8135 34.3845 28.2862 34.1431 28.8293 34.1431C29.654 34.1431 30.0009 34.6928 30.0009 35.5404V37.6314H29.5283L29.478 37.2255H29.4579C29.136 37.4978 28.7589 37.7187 28.3415 37.7187C27.7783 37.7187 27.3509 37.3642 27.3509 36.7529L27.3559 36.7477ZM29.4277 36.8043V35.859C28.2963 35.9977 27.9141 36.2751 27.9141 36.7118C27.9141 37.0971 28.1756 37.2563 28.5075 37.2563C28.8393 37.2563 29.1008 37.0971 29.4277 36.8043Z" fill="#0C0C0C"/>
<path d="M31.7811 31.8159H31.1625V37.5133H31.7811V31.8159Z" fill="#0C0C0C"/>
<path d="M77.873 31.6206V32.4066H74.8257V34.2612H77.5461V35.0473H74.8257V36.9276H77.9886V37.7187H74.0311V31.6257H77.873V31.6206Z" fill="#0C0C0C"/>
<path d="M80.8398 37.7139L79.9297 36.4809L79.0798 37.7139H78.3054L79.5475 35.962L78.2652 34.2256H79.2156L80.1057 35.438L80.865 34.2256H81.6343L80.4577 35.9209L81.7651 37.7139H80.8398Z" fill="#0C0C0C"/>
<path d="M85.1694 34.3179C85.4259 34.4771 85.627 34.698 85.7728 34.9806C85.9187 35.2632 85.9941 35.5919 85.9941 35.9618C85.9941 36.3317 85.9136 36.6503 85.7577 36.9277C85.6019 37.2051 85.3806 37.4209 85.104 37.5699C84.8275 37.724 84.5157 37.7959 84.1737 37.7959C83.9273 37.7959 83.696 37.7394 83.4697 37.6315C83.2485 37.5236 83.0675 37.3746 82.9317 37.1897V39.3885H82.1724V34.1637H82.8361L82.9015 34.7545C83.0775 34.5542 83.2837 34.3898 83.5251 34.2665C83.7664 34.1432 84.0329 34.0815 84.3145 34.0815C84.6313 34.0815 84.918 34.1586 85.1744 34.3179H85.1694ZM84.6213 37.0099C84.8023 36.9071 84.9481 36.7633 85.0588 36.5783C85.1694 36.3934 85.2247 36.193 85.2247 35.967C85.2247 35.7409 85.1744 35.5303 85.0739 35.3454C84.9733 35.1604 84.8375 35.0114 84.6615 34.9087C84.4855 34.8008 84.2944 34.7494 84.0832 34.7494C83.7966 34.7494 83.5452 34.8316 83.344 34.996C83.1379 35.1604 83.0071 35.3865 82.9417 35.6639V36.2444C82.987 36.5115 83.1077 36.7325 83.3139 36.9071C83.52 37.0767 83.7614 37.164 84.038 37.164C84.2492 37.164 84.4503 37.1126 84.6313 37.0099H84.6213Z" fill="#0C0C0C"/>
<path d="M86.3562 36.9485C86.4416 36.8612 86.5422 36.8149 86.6579 36.8149C86.7635 36.8149 86.859 36.8612 86.9495 36.9485C87.04 37.041 87.0853 37.1437 87.0853 37.267C87.0853 37.3903 87.04 37.5034 86.9546 37.5856C86.8691 37.6678 86.7685 37.714 86.6579 37.714C86.5472 37.714 86.4416 37.6729 86.3562 37.5856C86.2707 37.5034 86.2254 37.3955 86.2254 37.267C86.2254 37.1386 86.2707 37.0358 86.3562 36.9485Z" fill="#0C0C0C"/>
<path d="M89.9868 33.1211C90.2583 32.6433 90.6254 32.2632 91.088 31.9806C91.5507 31.698 92.0535 31.5542 92.5966 31.5542C93.1397 31.5542 93.6376 31.698 94.1002 31.9806C94.5628 32.2632 94.9349 32.6433 95.2064 33.1211C95.483 33.5989 95.6188 34.1178 95.6188 34.6726C95.6188 35.2275 95.483 35.7566 95.2115 36.2344C94.9399 36.7122 94.5678 37.0923 94.1052 37.3698C93.6375 37.6472 93.1347 37.7859 92.5966 37.7859C92.0586 37.7859 91.5457 37.6472 91.083 37.3749C90.6204 37.1026 90.2533 36.7224 89.9818 36.2498C89.7102 35.7772 89.5795 35.2531 89.5795 34.6778C89.5795 34.1024 89.7152 33.604 89.9868 33.1263V33.1211ZM90.6908 35.8388C90.8869 36.1933 91.1534 36.4759 91.4954 36.6814C91.8373 36.8868 92.2094 36.9947 92.6117 36.9947C93.014 36.9947 93.3861 36.892 93.718 36.6865C94.0549 36.481 94.3164 36.1984 94.5125 35.8439C94.7036 35.4895 94.8042 35.099 94.8042 34.6778C94.8042 34.2565 94.7036 33.866 94.5075 33.5064C94.3114 33.1468 94.0449 32.8642 93.7079 32.6536C93.371 32.4481 92.9989 32.3402 92.5966 32.3402C92.1943 32.3402 91.8222 32.4481 91.4853 32.6587C91.1484 32.8694 90.8819 33.1571 90.6858 33.5167C90.4896 33.8763 90.3941 34.2668 90.3941 34.688C90.3941 35.1093 90.4947 35.4895 90.6908 35.8439V35.8388Z" fill="#0C0C0C"/>
<path d="M98.5605 37.6933C98.3493 37.7652 98.1381 37.8012 97.9168 37.8012C97.5497 37.8012 97.2279 37.7241 96.9463 37.5751C96.6647 37.421 96.4485 37.2104 96.2926 36.9329C96.1367 36.6555 96.0613 36.3319 96.0613 35.9671C96.0613 35.6024 96.1417 35.289 96.3077 35.0115C96.4686 34.7341 96.6899 34.5184 96.9614 34.3642C97.233 34.2101 97.5296 34.1382 97.8464 34.1382C98.3644 34.1382 98.7918 34.282 99.1287 34.5749L98.7465 35.0886C98.6359 35.0064 98.5102 34.9345 98.3694 34.8728C98.2286 34.8163 98.0727 34.7855 97.9118 34.7855C97.7106 34.7855 97.5246 34.8369 97.3587 34.9396C97.1927 35.0424 97.062 35.1862 96.9664 35.366C96.8709 35.5458 96.8206 35.7462 96.8206 35.962C96.8206 36.1777 96.8709 36.3832 96.9714 36.5579C97.072 36.7377 97.2078 36.8816 97.3838 36.9895C97.5598 37.0973 97.7559 37.1487 97.9822 37.1487C98.2588 37.1487 98.5001 37.0665 98.7113 36.897L99.1036 37.385C98.9527 37.5135 98.7717 37.6162 98.5605 37.6881V37.6933Z" fill="#0C0C0C"/>
<path d="M100.768 32.6943V34.2356H101.693V34.8572H100.768V37.7136H99.9987V34.8572H99.3751V34.2356H99.9987V32.6943H100.768Z" fill="#0C0C0C"/>
<path d="M104.032 32.3193V31.6206H105.57V37.7136H104.816V32.3193H104.032Z" fill="#0C0C0C"/>
<path d="M106.254 36.3577V35.7771L109.126 31.6826H110.016V35.6949H110.835V36.3628H110.016V37.7191H109.281V36.3628H106.254V36.3577ZM109.312 32.4841L107.114 35.6949H109.312V32.4841Z" fill="#0C0C0C"/>
<path d="M112.062 36.6553L111.147 38.9209H110.649L111.248 36.6553H112.067H112.062Z" fill="#0C0C0C"/>
<path d="M115.688 35.6897C116.08 35.3198 116.412 34.9345 116.678 34.5338C116.95 34.133 117.081 33.7375 117.081 33.347C117.081 32.9823 116.995 32.6946 116.824 32.4839C116.653 32.2733 116.377 32.1654 115.995 32.1654C115.612 32.1654 115.336 32.2836 115.13 32.525C114.923 32.7665 114.813 33.085 114.798 33.4806H114.079C114.099 32.8538 114.285 32.3658 114.637 32.0216C114.984 31.6773 115.436 31.5078 115.984 31.5078C116.533 31.5078 116.99 31.6671 117.322 31.9907C117.654 32.3144 117.815 32.7511 117.815 33.3162C117.815 33.7837 117.679 34.2358 117.413 34.6776C117.141 35.1194 116.834 35.5047 116.492 35.8387C116.15 36.1726 115.708 36.563 115.175 37.0049H117.986V37.647H114.054V37.0973C114.747 36.5219 115.291 36.0544 115.683 35.6845L115.688 35.6897Z" fill="#0C0C0C"/>
<path d="M118.901 32.3454C119.208 31.8008 119.741 31.5337 120.505 31.5337C121.27 31.5337 121.793 31.806 122.099 32.3454C122.406 32.89 122.557 33.64 122.557 34.6059C122.557 35.5717 122.406 36.3526 122.099 36.8972C121.793 37.4417 121.264 37.714 120.505 37.714C119.746 37.714 119.208 37.4417 118.901 36.8972C118.594 36.3526 118.443 35.5871 118.443 34.6059C118.443 33.6246 118.594 32.8848 118.901 32.3454ZM121.727 33.3626C121.667 33.0235 121.536 32.7513 121.345 32.5406C121.154 32.3351 120.872 32.2272 120.505 32.2272C120.138 32.2272 119.851 32.33 119.66 32.5406C119.464 32.7461 119.339 33.0235 119.278 33.3626C119.218 33.7017 119.183 34.1178 119.183 34.6059C119.183 35.0939 119.213 35.5357 119.278 35.88C119.339 36.2242 119.469 36.4964 119.66 36.7071C119.851 36.9126 120.138 37.0205 120.505 37.0205C120.872 37.0205 121.149 36.9177 121.345 36.7071C121.536 36.5016 121.667 36.2242 121.727 35.88C121.787 35.5357 121.823 35.1145 121.823 34.6059C121.823 34.0973 121.793 33.7017 121.727 33.3626Z" fill="#0C0C0C"/>
<path d="M124.709 35.6897C125.101 35.3198 125.433 34.9345 125.7 34.5338C125.971 34.133 126.102 33.7375 126.102 33.347C126.102 32.9823 126.017 32.6946 125.846 32.4839C125.675 32.2733 125.398 32.1654 125.016 32.1654C124.634 32.1654 124.357 32.2836 124.151 32.525C123.945 32.7665 123.834 33.085 123.819 33.4806H123.1C123.12 32.8538 123.306 32.3658 123.658 32.0216C124.005 31.6773 124.458 31.5078 125.006 31.5078C125.554 31.5078 126.012 31.6671 126.343 31.9907C126.675 32.3144 126.836 32.7511 126.836 33.3162C126.836 33.7837 126.7 34.2358 126.434 34.6776C126.162 35.1194 125.856 35.5047 125.514 35.8387C125.172 36.1726 124.729 36.563 124.196 37.0049H127.007V37.647H123.075V37.0973C123.769 36.5219 124.312 36.0544 124.704 35.6845L124.709 35.6897Z" fill="#0C0C0C"/>
<path d="M131.231 32.2885H128.36V34.2099C128.486 34.0301 128.672 33.8811 128.918 33.7681C129.164 33.655 129.426 33.5934 129.712 33.5934C130.165 33.5934 130.532 33.691 130.814 33.8862C131.095 34.0815 131.302 34.328 131.422 34.6363C131.543 34.9445 131.608 35.2682 131.608 35.6073C131.608 36.0131 131.533 36.3727 131.387 36.6964C131.241 37.0149 131.015 37.2718 130.713 37.4567C130.411 37.6417 130.034 37.7342 129.587 37.7342C129.014 37.7342 128.551 37.58 128.199 37.2769C127.847 36.9738 127.631 36.568 127.555 36.0645H128.284C128.355 36.383 128.506 36.6348 128.732 36.8146C128.958 36.9944 129.25 37.0817 129.597 37.0817C130.029 37.0817 130.351 36.9481 130.567 36.681C130.784 36.4138 130.894 36.0594 130.894 35.6227C130.894 35.186 130.784 34.8469 130.567 34.6055C130.351 34.3692 130.029 34.2459 129.602 34.2459C129.315 34.2459 129.059 34.3178 128.848 34.4616C128.631 34.6055 128.475 34.8007 128.38 35.0473H127.676V31.6104H131.231V32.2834V32.2885Z" fill="#0C0C0C"/>
<path d="M66.9609 30.7012H66.6642V39.5016H66.9609V30.7012Z" fill="#0C0C0C"/>
<path d="M109.573 0H109.276V10.8348H109.573V0Z" fill="#46B6EA"/>
<path d="M34.9692 37.7138L35.1804 36.0647H34.5065V35.5664H35.2558L35.4117 34.3488H34.7027V33.8505H35.4771L35.6882 32.2373H36.171L35.9648 33.8505H36.8147L37.0258 32.2373H37.5086L37.3024 33.8505H37.9712V34.3488H37.232L37.0812 35.5664H37.7852V36.0647H37.0057L36.7945 37.7189H36.3017L36.5129 36.0647H35.6631L35.4519 37.7189H34.9591L34.9692 37.7138ZM36.5884 35.5664L36.7392 34.3488H35.8894L35.7385 35.5664H36.5884Z" fill="#0C0C0C"/>
<path d="M43.0752 32.7564C42.9244 32.7564 42.7433 32.7615 42.5321 32.7975C41.4057 32.9824 40.8073 33.8352 40.6917 34.7445H40.7118C40.9632 34.3901 41.4057 34.1075 41.9941 34.1075C42.9395 34.1075 43.6032 34.8113 43.6032 35.8799C43.6032 36.8868 42.9395 37.8116 41.8332 37.8116C40.7269 37.8116 39.9575 36.9023 39.9575 35.4792C39.9575 34.4003 40.3296 33.5475 40.8576 33.0081C41.2951 32.5611 41.8835 32.2837 42.5573 32.1964C42.7685 32.1604 42.9495 32.1553 43.0752 32.1553V32.7615V32.7564ZM42.8691 35.921C42.8691 35.135 42.4316 34.6675 41.7779 34.6675C41.3454 34.6675 40.9381 34.9398 40.742 35.3405C40.6967 35.4278 40.6665 35.5306 40.6665 35.6641C40.6766 36.5683 41.0789 37.2413 41.8382 37.2413C42.4567 37.2413 42.8741 36.707 42.8741 35.9261L42.8691 35.921Z" fill="#0C0C0C"/>
<path d="M45.6298 32.9257H45.6147L44.6894 33.4395L44.5536 32.8743L45.7152 32.2373H46.3237V37.7138H45.6298V32.9257Z" fill="#0C0C0C"/>
<path d="M48.0384 36.3266C48.0384 35.6382 48.4407 35.145 49.0894 34.8573V34.8316C48.496 34.5491 48.2395 34.0816 48.2395 33.6038C48.2395 32.7407 48.9536 32.1499 49.8889 32.1499C50.9147 32.1499 51.4327 32.8126 51.4327 33.4959C51.4327 33.9634 51.2064 34.4617 50.5577 34.7751V34.8008C51.2165 35.068 51.6238 35.556 51.6238 36.2136C51.6238 37.1692 50.8343 37.8062 49.8135 37.8062C48.7072 37.8062 48.0384 37.1229 48.0384 36.3266ZM50.8946 36.2907C50.8946 35.6279 50.4471 35.3094 49.728 35.0988C49.1095 35.2786 48.7675 35.705 48.7675 36.229C48.7474 36.7839 49.1497 37.2668 49.8286 37.2668C50.5074 37.2668 50.8896 36.8506 50.8896 36.2907H50.8946ZM48.9234 33.5524C48.9234 34.1021 49.3257 34.4001 49.9342 34.5645C50.3918 34.4104 50.7438 34.0713 50.7438 33.5678C50.7438 33.1363 50.4923 32.6791 49.8437 32.6791C49.2503 32.6791 48.9234 33.0849 48.9234 33.5524Z" fill="#0C0C0C"/>
<path d="M55.5813 32.2373V32.7254L53.2631 37.7138H52.5239L54.827 32.8692V32.8538H52.2322V32.2424H55.5813V32.2373Z" fill="#0C0C0C"/>
<path d="M56.3305 36.8712C56.5317 36.9996 57.0044 37.2103 57.5123 37.2103C58.4325 37.2103 58.7191 36.6092 58.7141 36.152C58.704 35.3813 58.0302 35.0577 57.3413 35.0577H56.939V34.5028H57.3413C57.8642 34.5028 58.528 34.2254 58.528 33.5781C58.528 33.1363 58.2565 32.751 57.5927 32.751C57.1703 32.751 56.758 32.9411 56.5317 33.1106L56.3406 32.5763C56.6222 32.3657 57.1603 32.1499 57.7335 32.1499C58.7845 32.1499 59.2622 32.7869 59.2622 33.4599C59.2622 34.0251 58.9253 34.508 58.2816 34.7494V34.7649C58.9353 34.8933 59.4633 35.4019 59.4633 36.1674C59.4633 37.0407 58.7996 37.8113 57.5223 37.8113C56.9239 37.8113 56.406 37.6213 56.1445 37.4363L56.3356 36.8712H56.3305Z" fill="#0C0C0C"/>
<path d="M77.0281 21.1352C75.9369 21.1352 75.0519 20.231 75.0519 19.1162C75.0519 18.0014 75.9369 17.0972 77.0281 17.0972C78.1193 17.0972 79.0043 18.0014 79.0043 19.1162C79.0043 20.231 78.1193 21.1352 77.0281 21.1352ZM77.0281 17.3643C76.0827 17.3643 75.3133 18.1503 75.3133 19.1162C75.3133 20.082 76.0827 20.868 77.0281 20.868C77.9735 20.868 78.7428 20.082 78.7428 19.1162C78.7428 18.1503 77.9735 17.3643 77.0281 17.3643Z" fill="#101010"/>
<path d="M76.3995 18.0169H77.0432C77.4605 18.0169 77.7623 18.171 77.7623 18.6128C77.7623 19.0546 77.4605 19.2396 77.0432 19.2396H76.661V20.1335H76.3995V18.0117V18.0169ZM77.008 19.0187C77.3298 19.0187 77.5058 18.8851 77.5058 18.6077C77.5058 18.3302 77.3298 18.2275 77.008 18.2275H76.661V19.0135H77.008V19.0187ZM76.9929 19.1625L77.1991 19.0238L77.8276 20.1335H77.531L76.9929 19.1625Z" fill="#121212"/>
</svg>
