<?xml version="1.0" encoding="UTF-8"?><svg id="Layer_1" xmlns="http://www.w3.org/2000/svg" viewBox="0 0 458 458"><path d="M92.53,370.54c-3.14,15.47-10.57,21.55-25.85,21.55-6.61,0-13.22.04-19.83,0-13.82-.11-23.15-9.34-23.16-23.05-.04-39.94-.04-79.88,0-119.82.01-13.02,8.66-22.25,21.68-22.8,8.39-.36,16.81-.31,25.2,0,10.91.4,17.44,5.98,21.76,18.3,1.86-.59,3.76-1.18,5.65-1.78,13.8-4.39,27.73-8.12,42.32-8.55,13.09-.38,24.5,3.7,34.57,12.2,5.22,4.41,10.96,8.33,16.85,11.8,20.27,11.95,40.71,23.59,61.08,35.36,16.05,9.27,20.89,19.78,17.28,38.43,4.07-.81,7.91-1.53,11.73-2.34,37.68-7.95,75.31-16.12,113.05-23.78,17.15-3.48,34.19,7.82,37.91,24.16,3.94,17.28-5.66,34.07-22.98,38.85-35.52,9.81-71.15,19.21-106.74,28.76-24.83,6.66-49.7,13.18-74.5,19.99-11.18,3.07-21.79.9-31.71-3.76-13.92-6.54-27.43-13.97-40.97-21.29-13.79-7.45-27.3-15.48-42.47-19.98-6.75-2-13.61-3.33-20.88-2.24ZM92.25,356.92c20.28-.98,37.6,6.98,54.63,15.87,5.85,3.06,11.53,6.45,17.37,9.51,12.9,6.76,25.72,13.71,38.85,19.98,6.7,3.2,14,4.9,21.66,2.84,60.01-16.13,120.05-32.19,180.05-48.34,11.43-3.08,17.59-12.84,15.05-23.3-2.56-10.57-12.38-16.61-23.89-14.21-37.43,7.8-74.82,15.76-112.22,23.69-10.09,2.14-20.4,3.62-30.15,6.79-10.45,3.4-19.83,2.94-29.27-2.59-18.28-10.72-36.67-21.23-55.01-31.83-1.19-.69-2.46-1.3-3.48-2.19-2.59-2.25-3.35-5.09-1.61-8.14,1.79-3.12,4.56-4.35,8.06-2.98,1.65.65,3.18,1.62,4.73,2.51,18.36,10.58,36.67,21.23,55.07,31.74,9.88,5.65,21.16,1.91,25.05-8.09,3.21-8.24.07-16.56-8.25-21.39-21.78-12.64-43.65-25.1-65.35-37.86-5.66-3.33-11.22-7.06-16.14-11.38-9.49-8.35-20.44-11.67-32.52-9.4-13.06,2.45-25.87,6.24-38.81,9.32-3.11.74-3.89,2.38-3.88,5.51.13,29.88.08,59.77.08,89.65v4.31ZM36.89,308.67c0,19.83-.01,39.66,0,59.49,0,7.4,3.19,10.65,10.49,10.69,7.02.04,14.05.04,21.07,0,7.25-.04,10.54-3.35,10.54-10.67.02-39.39.02-78.77,0-118.16,0-7.1-3.23-10.39-10.32-10.48-7.02-.09-14.05-.07-21.07,0-7.6.06-10.71,3.25-10.71,10.88-.02,19.42,0,38.84,0,58.25Z"/><path d="M337.78,63.27c7.84,3.26,15.3,6.36,23.81,9.89,1.7-1.94,3.74-4.55,6.07-6.86,5.63-5.59,11.83-6.34,17.62-1.12,7.94,7.17,15.55,14.78,22.71,22.72,5.13,5.69,4.4,11.83-.93,17.32-2.3,2.37-4.73,4.6-6.82,6.62,2.98,7.57,5.72,14.72,8.67,21.79.33.79,1.8,1.47,2.8,1.54,2.74.21,5.51,0,8.26.1,6.96.26,12.04,3.97,12.4,10.81.61,11.36.6,22.8-.05,34.16-.39,6.74-5.42,11.04-12.14,10.29-8.48-.94-12.83,1.85-14.42,10.26-.7,3.67-3.24,6.95-4.57,10.55-.43,1.16-.15,3.12.61,4.09,1.85,2.37,4.27,4.29,6.27,6.56,4.06,4.6,4.47,10.17.86,15.15-6.92,9.55-15.21,17.8-24.7,24.77-5,3.67-11.57,3.71-15.34-1.13-5.76-7.4-11.48-8.11-18.78-2.8-1.72,1.25-4.04,1.7-6.11,2.43-6.21,2.21-6.26,2.2-6.2,8.99.04,4.31.39,8.86-3.1,11.98-2.14,1.91-5.13,3.87-7.81,3.97-11.24.44-22.52.52-33.76.06-6.57-.27-11.43-5.42-10.6-11.87,1.16-8.95-2.1-13.25-10.72-14.87-3.4-.64-6.59-2.73-9.71-4.46-2.07-1.15-3.41-.94-4.95.83-1.89,2.18-3.99,4.2-6.15,6.11-4.31,3.81-10.19,4.34-14.86.97-9.78-7.06-18.27-15.51-25.3-25.33-3.47-4.85-3.34-11.26,1.48-14.98,7.3-5.63,7.88-11.17,2.95-18.48-1.87-2.77-2.69-6.31-3.63-9.61-.64-2.24-1.64-3.2-4.02-3.04-2.74.18-5.51.11-8.26,0-6.44-.29-11.45-4.14-11.75-10.52-.53-11.37-.53-22.8,0-34.18.31-6.47,5.51-11.18,12.11-10.46,8.71.95,12.98-2.12,14.64-10.53.7-3.54,3.15-6.7,4.42-10.17.43-1.18.15-3.15-.61-4.14-1.74-2.28-4.06-4.11-6-6.25-4.28-4.72-4.77-10.37-1.08-15.47,6.91-9.55,15.2-17.8,24.71-24.76,5.09-3.73,10.71-3.23,15.49,1.01,2.86,2.53,5.37,6.72,8.54,7.28,2.97.53,6.57-2.84,9.97-4.32,2.77-1.2,5.58-2.51,8.51-3.12,3.44-.71,4.29-2.45,4.04-5.71-1.3-16.63,5.55-19.33,18.04-19.42,8.92-.07,17.88.1,26.76.86,6.64.57,10.42,5.44,10.58,12.11.09,3.57.02,7.13.02,10.35ZM242.7,74.68c-7.31,7.35-13.94,14.02-21.07,21.18,4.01,3.78,7.37,6.82,10.58,10.01,3.5,3.48,3.41,5.58,1.46,9.95-3.9,8.75-7.57,17.61-10.99,26.55-1.7,4.44-3.22,6.03-8.03,6.08-4.63.05-9.26,0-14.32,0v28.5c.93.35,1.18.53,1.43.53,4.13.05,8.26.05,12.39.12,5.35.08,6.82,1.66,8.62,6.49,3.26,8.71,6.8,17.34,10.66,25.8,2.21,4.85,2.38,6.85-1.42,10.64-3.19,3.18-6.52,6.22-10.36,9.86,7.29,7.26,13.96,13.9,20.92,20.82,3.92-3.99,7.21-7.29,10.45-10.64,2.93-3.04,5.97-2.93,9.72-1.24,8.73,3.94,17.58,7.65,26.52,11.08,4.62,1.77,6.23,3.3,6.28,8.32.05,4.51,0,9.01,0,14.03h29c0-5.03-.02-9.42,0-13.82.03-5.37,1.5-6.73,6.41-8.6,8.83-3.35,17.55-7.02,26.16-10.89,4.32-1.94,6.67-2.07,10,1.3,3.26,3.31,6.32,6.8,10.03,10.83,7.4-7.44,14.1-14.19,21.1-21.23-3.96-3.81-7.18-6.82-10.29-9.93-3.73-3.73-3.58-5.79-1.34-10.64,3.8-8.2,7.41-16.51,10.48-25,2.13-5.89,3.2-7.25,9.64-7.27,4.21-.01,8.43,0,12.95,0v-29.06c-5.27,0-9.8.04-14.33-.01-4.8-.06-6.37-1.72-8.03-6.09-3.35-8.83-6.91-17.59-10.81-26.18-2.16-4.77-2.33-6.76,1.57-10.6,3.2-3.15,6.6-6.11,10.99-10.15-7.43-7.55-14.05-14.27-21.08-21.41-4.41,4.63-7.48,7.97-10.69,11.18-3.55,3.56-5.78,3.44-10.33,1.38-8.48-3.85-17.07-7.49-25.79-10.73-5.21-1.93-6.64-3.16-6.67-8.8-.02-4.48,0-8.95,0-13.81h-29c0,5.29-.02,9.93,0,14.58.02,4.14-2.02,6.36-5.92,7.83-9.08,3.45-18.07,7.17-26.94,11.14-3.76,1.68-6.8,1.78-9.69-1.28-3.2-3.39-6.42-6.77-10.3-10.84Z"/><path d="M57.84,252.49c5.98-.02,11.04,4.95,11.13,10.94.09,5.91-4.99,11.05-10.97,11.12-5.92.07-11.06-5-11.11-10.97-.05-5.96,4.99-11.06,10.95-11.08Z"/><path d="M376.16,163.36c-.03,36.46-29.72,65.96-66.4,65.96-36.1,0-66.14-30.05-66.02-66.05.13-36.69,29.71-66.35,66.1-66.29,36.96.06,66.34,29.47,66.31,66.38ZM362.94,163.16c.06-29.5-23.53-52.91-53.41-52.98-28.59-.07-52.5,23.88-52.57,52.66-.07,29.26,23.75,53.24,52.88,53.24,29.4,0,53.04-23.57,53.1-52.92Z"/><path d="M302.31,170.84c8.51-9.76,16.46-18.91,24.45-28.02,3.06-3.49,6.78-4.11,9.8-1.77,2.95,2.29,3.51,6.45.85,9.54-9.79,11.38-19.65,22.7-29.63,33.92-2.89,3.25-6.63,3.27-9.84.2-5.18-4.95-10.25-10.01-15.21-15.18-2.9-3.02-2.77-6.99-.04-9.58,2.6-2.48,6.38-2.53,9.28.23,3.48,3.31,6.71,6.89,10.34,10.65Z"/></svg>