<?xml version="1.0" encoding="utf-8"?>
<!-- Svg Vector Icons : http://www.onlinewebfonts.com/icon -->
<!DOCTYPE svg PUBLIC "-//W3C//DTD SVG 1.1//EN" "http://www.w3.org/Graphics/SVG/1.1/DTD/svg11.dtd">
<svg version="1.1" xmlns="http://www.w3.org/2000/svg" xmlns:xlink="http://www.w3.org/1999/xlink" x="0px" y="0px" viewBox="0 0 256 256" enable-background="new 0 0 256 256" xml:space="preserve">
<metadata> Svg Vector Icons : http://www.onlinewebfonts.com/icon </metadata>
<g><g><path fill="#000000" d="M192.8,176c-3.3,0-6,2.6-6,5.8c0,3.3,2.6,6,5.9,6c3.3,0,6-2.6,6-5.9C198.7,178.7,196.1,176.1,192.8,176z M210.6,182c0,10-8,18-17.8,17.9c-9.7-0.1-17.6-8.1-17.5-18c0.1-9.9,8-17.9,17.7-17.9C202.7,164.1,210.6,172.1,210.6,182z M86.9,188.2c3.3,0,5.9,2.6,5.9,6c0,3.3-2.6,6-5.9,6c-3.3,0-5.9-2.7-5.9-6C80.9,190.8,83.5,188.2,86.9,188.2z M192.8,225.1L192.8,225.1c1,0,2.1,0,3.1,0c2.9,0,4.8-1.9,4.9-4.9c0-1.3,0-2.6,0-3.9c0-0.6,0.2-1,0.8-1.1c2.8-0.7,5.5-1.9,8-3.4c0.6-0.4,1-0.2,1.5,0.2c0.9,1,1.9,2,2.8,2.9c2,1.9,4.6,1.8,6.4-0.2c1.5-1.6,3.1-3.2,4.6-4.7c2.1-2.2,2.2-4.7,0-6.9c-0.8-0.9-1.7-1.7-2.6-2.6c-0.5-0.5-0.6-0.9-0.2-1.5c1.5-2.5,2.6-5.2,3.3-8c0.2-0.7,0.5-0.9,1.2-0.9c1.5,0,3.1,0,4.6-0.1c2.4-0.2,4-1.9,4-4.3c0-2.5,0-4.9,0-7.3c0-2.4-1.5-4.1-3.9-4.4c-1.6-0.2-3.2-0.1-4.8-0.1c-0.6,0-0.9-0.2-1-0.7c-0.7-2.9-1.9-5.7-3.4-8.3c-0.3-0.5-0.2-0.9,0.2-1.3c0.9-0.9,1.9-1.9,2.8-2.8c2-2.1,1.9-4.8-0.1-6.8c-1.5-1.5-3-3-4.5-4.5c-2-2.2-4.7-2.2-6.8-0.1c-0.9,0.9-1.8,1.8-2.6,2.7c-0.5,0.5-0.9,0.5-1.4,0.2c-2.5-1.5-5.1-2.7-7.9-3.3c-0.6-0.2-0.9-0.5-0.9-1.2c0-1.4,0-2.8,0-4.2c-0.1-2.7-1.9-4.5-4.5-4.5c-2.3,0-4.6,0-7,0c-2.6,0.1-4.2,1.5-4.5,4.1c-0.2,1.5-0.1,3.1-0.1,4.7c0,0.6-0.2,1-0.8,1.1c-2.8,0.7-5.5,1.9-8,3.4c-0.6,0.3-1,0.3-1.4-0.2c-0.9-1-1.9-2-2.8-2.9c-2-1.9-4.6-1.8-6.5,0.2c-1.5,1.5-3,3.1-4.5,4.6c-2.1,2-2.2,4.8-0.1,6.9c0.8,0.9,1.7,1.8,2.6,2.6c0.6,0.5,0.7,1,0.2,1.7c-1.4,2.4-2.5,5.1-3.2,7.8c-0.2,0.8-0.6,1.1-1.4,1.1c-1.5,0-3,0-4.5,0.1c-2.4,0.3-3.9,1.9-3.9,4.3c-0.1,2.5-0.1,4.9,0,7.3c0.1,2.5,1.6,4.2,4.1,4.4c1.5,0.1,3.1,0.1,4.6,0.1c0.5,0,0.8,0.2,1,0.7c0.7,2.9,1.9,5.7,3.4,8.3c0.3,0.5,0.2,0.9-0.2,1.3c-0.9,0.9-1.8,1.8-2.7,2.7c-2,2.1-2,4.9,0.1,6.9c1.5,1.5,3,3,4.4,4.5c2,2.2,4.7,2.2,6.8,0.1c0.9-0.9,1.8-1.7,2.6-2.6c0.5-0.5,0.9-0.6,1.5-0.2c2.5,1.5,5.1,2.6,7.9,3.3c0.6,0.2,0.9,0.5,0.9,1.1c0,1.5,0,3,0.1,4.5c0.2,2.7,1.9,4.2,4.5,4.3C190.5,225.2,191.6,225.1,192.8,225.1z M246,186.9c-0.1,0.8-0.2,1.5-0.4,2.3c-1.1,4-4.6,6.7-8.7,6.8l-0.7,0c-1.9,0-1.6-0.3-2.3,1.6c-0.5,1.2-0.9,2.4-1.4,3.6c-0.3,0.6-0.2,1.1,0.3,1.5c0.3,0.3,0.6,0.6,0.9,0.9c3.6,3.7,3.7,9.3,0.1,13.1c-2.2,2.3-4.4,4.5-6.6,6.8c-3.7,3.6-9,3.7-12.8,0.2c-0.4-0.4-0.9-0.8-1.3-1.3c-0.4-0.4-0.8-0.5-1.3-0.2c-1.4,0.6-2.9,1.3-4.4,1.8c-0.7,0.3-0.9,0.7-0.9,1.3c0.1,1.8,0,3.5-0.8,5.1c-1.7,3.5-4.4,5.4-8.3,5.5c-3.1,0.1-6.3,0-9.4,0c-5.2-0.1-9.2-4.3-9.1-9.6c0-0.3,0-0.7,0-1c0-0.7-0.3-1.1-0.9-1.3c-1.4-0.6-2.8-1.1-4.2-1.8c-0.6-0.3-1-0.2-1.5,0.3c-1.4,1.5-2.9,2.8-5,3.4c-3.1,0.8-6,0.3-8.3-1.9c-2.7-2.5-5.3-5.1-7.7-7.8c-3.2-3.6-2.8-9.3,0.6-12.6c0.1-0.1,0.3-0.3,0.5-0.4c1-1,1.1-1.3,0.5-2.6c-0.6-1.2-1.1-2.4-1.5-3.6c-0.3-0.8-0.7-1.1-1.5-1c-1.9,0.1-3.9-0.1-5.6-1.1c-3-1.8-4.7-4.4-4.8-8c0-3,0.1-6,0-9.1c-0.2-5.1,3.6-10.2,10.2-9.9c1.3,0.1,1.3,0,1.8-1.2c0.5-1.3,1-2.6,1.6-3.8c0.3-0.7,0.3-1.3-0.3-1.8c-1.6-1.4-2.8-3.1-3.3-5.2c-0.7-3.1-0.1-6,2.1-8.4c2.4-2.6,4.8-5.1,7.3-7.5c3.8-3.5,9.5-3.1,12.9,0.7c1.2,1.3,1.3,1.3,2.9,0.5c1-0.5,2.1-0.9,3.2-1.3c0.8-0.3,1.2-0.7,1.2-1.6c0-1.8,0.1-3.6,0.9-5.3c1.6-3.3,4.3-5,7.9-5.2c3.3-0.1,6.5-0.1,9.8,0c4.9,0.1,8.8,4.1,8.9,9c0,0.5,0,1,0,1.5c0,0.8,0.3,1.3,1,1.5c1.4,0.5,2.7,1.1,4.1,1.7c0.7,0.3,1.1,0.2,1.6-0.3c1.5-1.7,3.2-3,5.4-3.4c3.1-0.6,5.9,0,8.1,2.2c2.4,2.3,4.8,4.8,7.1,7.2c3.4,3.7,3.3,9.4-0.3,13c-0.2,0.2-0.5,0.4-0.7,0.7c-0.8,0.8-0.8,1.1-0.4,2c0.6,1.3,1.1,2.7,1.6,4c0.2,0.6,0.6,0.8,1.2,0.9c1,0,2,0,3,0.2c4,0.6,7.2,3.9,7.6,8c0,0.3,0.1,0.5,0.2,0.8L246,186.9L246,186.9z M104.3,223.9v-1.4v-52.1c0-0.5,0-0.9,0-1.4c-0.2-2.9-2.2-5-5.1-5c-8.4,0-16.8,0-25.2,0c-2.6,0-4.3,1.6-4.8,4.1c-0.1,0.6-0.2,1.1-0.2,1.7c0,17.7,0,35.5,0,53.2v0.9H104.3L104.3,223.9z M10,229.4c0-0.1,0.1-0.2,0.1-0.3c0.5-3.7,3.4-5.1,6.2-5.3c1.6-0.1,3.2,0.1,4.8,0.1c0.7,0,1.3,0.1,2,0.1c3.2,0,6.4,0,9.5,0h1v-1c0-23.5,0-47.1,0-70.6c0-1.9-0.2-3.8-0.1-5.6c0.1-1.3,0.4-2.6,0.9-3.7c0.9-2.2,2.7-3.2,5-3.2c2.2,0,3.6,1.2,4.5,3.1c1.1,2.2,1.3,4.6,1.4,7.1c0,0.8,0,1.7,0,2.5v70.3v1.2h1h9.7c1.2,0,1.2,0,1.2-1.1v-48.3c0-3.4,0-6.8,0-10.3c0-0.9,0.1-1.8,0.4-2.6c1.3-3.7,3.6-6.6,7-8.6c1.4-0.8,2.8-1.2,4.4-1.2c11.8,0,23.7,0,35.5,0c6.3,0,11.5,5.7,11.5,12.2v58.7v1.2c1.5,0.1,3.1,0.4,4.6,0.4c2.6-0.1,5.1-0.3,7.7-0.5c2.5-0.2,5-0.2,7.4,0.6c2.2,0.7,3.7,2,3.9,4.5c0.3,2.6-0.8,4.6-3.2,5.8c-2.2,1.1-4.6,1.3-7,1.3c-1.9,0-3.7,0-5.6,0c-33.8,0-67.6,0-101.4,0c-0.7,0-1.4,0.1-2.1,0.2H19c-0.9-0.1-1.9-0.2-2.8-0.3c-2.8-0.5-5.3-1.4-6.1-4.7V229.4L10,229.4z M62.1,80.8L62.1,80.8c0.1,4.9,0,9.8,0.1,14.7c0,2.1,0.9,3.9,2.5,5.2c1.9,1.7,4,2.7,6.6,2.8c2.5,0.1,4.9,0.1,7.4,0c2.4-0.1,4.5-1,6.2-2.6c1.6-1.4,2.6-3.2,2.6-5.3c0-0.5,0-1.1,0-1.6c0-9.2,0-18.4,0-27.6c0-1,0.1-1.9,0.8-2.7c1.3-1.6,3.9-2.3,6-1.6c2.3,0.8,3.2,2.2,3.2,4.7c0,9.1,0,18.2,0,27.3c0,0.9,0,1.8,0.2,2.6c0.8,3.7,4.3,6.5,8.6,6.8c2.7,0.2,5.6,0.1,8.3-0.1c4.1-0.3,8.5-3.5,8.4-9.2c-0.1-9.3,0-18.6,0-28c0-2,0.9-3.2,2.6-4c3.4-1.5,7.5,0.5,7.4,4.6c-0.2,9-0.1,18,0,27c0,1,0,2.1,0.3,3.1c1,3.5,3.5,5.5,6.8,6.2c3.3,0.7,6.7,0.6,10,0.2c4.3-0.5,8.4-3.7,8.3-9.3c-0.1-9.2,0-18.4,0-27.5c0-2.5,1.1-3.9,3.4-4.6c2.8-0.8,6.7,0.8,6.6,4.8c-0.2,9.2-0.1,18.4,0,27.6c0,0.9,0,1.9,0.3,2.7c1.2,3.7,3.9,5.7,7.6,6.2c2.7,0.4,5.5,0.2,8.2,0.2c1.6,0,3.2-0.5,4.6-1.3c3-1.7,4.7-4.1,4.7-7.8c0-9.3,0-18.7,0-28c0-1.1,0.2-2.1,0.9-2.9c1.3-1.7,3.9-2.3,6.1-1.5c2,0.7,3,2.2,3,4.6c0,9.3,0,18.5,0,27.8c0,3.2,1.3,5.5,3.9,7.3c1.6,1.1,3.4,1.8,5.3,1.8c3.3,0.1,6.7,0.1,10,0.1c1.1,0,2.3,0,3.4-0.2c5-0.9,8-4.4,7.8-9.5c-0.1-4.8-0.4-9.7-0.6-14.5c-0.1-2.3-0.2-4.7-0.5-7c-0.6-4.2-1.4-8.4-2.1-12.6c-0.6-3.9-1.3-7.8-1.9-11.8c-0.2-1.4-0.4-2.9-0.9-4.2c-1.7-4.3-4.6-7.6-8.8-9.6c-3.4-1.7-7.1-2.5-10.9-2.5c-37.1,0-74.2,0-111.2,0c-16.5,0-32.9,0-49.4,0c-5.4,0-10.4,1.3-14.7,4.7c-3.4,2.7-5.6,6.1-6.2,10.4c-0.8,5.2-1.6,10.5-2.5,15.7c-0.6,3.8-1.3,7.6-1.5,11.4c-0.2,3.9-0.5,7.8-0.7,11.8c-0.2,3-0.4,5.9-0.4,8.9c-0.1,3.6,1.7,6.1,4.8,7.7c0.9,0.5,1.9,0.9,2.9,1c2,0.2,4,0.3,6.1,0.3c3,0,5.9,0.1,8.9-0.3c3.8-0.5,7.8-3.8,7.8-9.3c-0.1-9.1,0-18.3,0-27.4c0-0.5,0-1,0.1-1.4c0.4-1.8,1.9-3.1,4.1-3.4c3.3-0.5,5.8,1.6,5.8,4.9L62.1,80.8z M10,90.4c0-0.5,0.1-0.9,0.1-1.3c0.1-3.2,0.1-6.5,0.3-9.7c0.2-2.7,0.6-5.3,1-8c0.9-6,1.9-12,2.8-17.9c0.5-3.5,0.7-7.1,1.4-10.5c1.7-8.3,6.5-14.5,13.7-18.7c4.1-2.4,8.7-3.7,13.4-4.2c1.1-0.1,2.2-0.2,3.3-0.2c54.9,0,109.8,0,164.8,0c10.3,0.8,19.1,4.4,25.2,13.2c2.7,4,4.1,8.5,4.6,13.3c0.6,5.1,1.4,10.1,2.1,15.2c0.8,5.2,1.6,10.4,2.4,15.6c0.1,1,0.1,2,0.2,3.1c0.1,5.5,0.3,11,0.4,16.5c0,6-2.4,10.8-7,14.5c-3.5,2.8-7.6,4.4-12.1,4.5c-4.5,0.1-9.1,0.1-13.6-0.1c-4.8-0.2-8.9-2.1-12.4-5.3c-0.3-0.2-0.5-0.5-0.8-0.7c0,0,0,0-0.1-0.1c-0.2,0.2-0.5,0.4-0.7,0.6c-4,3.7-8.8,5.6-14.3,5.6c-3.2,0-6.5,0-9.7-0.4c-4.3-0.5-7.9-2.7-11.1-5.8c-0.6,0.5-1.2,0.9-1.8,1.3c-3.1,2.5-6.5,4.3-10.4,4.6c-3.1,0.3-6.2,0.2-9.4,0.2c-5.5-0.1-10.2-2.1-14.2-6c-0.1-0.1-0.2-0.1-0.3-0.2c-0.3,0.2-0.5,0.4-0.8,0.7c-4,3.6-8.6,5.5-14,5.6c-3.3,0-6.7,0-10.1-0.5c-4.2-0.5-7.7-2.6-10.7-5.6c-0.1-0.1-0.2-0.1-0.3-0.3c-0.3,0.2-0.5,0.4-0.8,0.7c-4,3.7-8.7,5.6-14.1,5.6c-3.3,0-6.5,0-9.8-0.4c-4.4-0.5-8-2.7-11.2-5.9c-0.2,0.2-0.5,0.3-0.7,0.5c-3.8,3.6-8.4,5.6-13.6,5.7c-4.6,0.1-9.3,0.2-13.9-0.1c-8-0.6-14.9-6-17.1-13.2c-0.4-1.2-0.5-2.4-0.7-3.5c0-0.2-0.1-0.3-0.2-0.5L10,90.4L10,90.4z"/></g></g>
</svg>