<svg xmlns="http://www.w3.org/2000/svg" xmlns:xlink="http://www.w3.org/1999/xlink" width="40" height="40" viewBox="0 0 40 40">
  <defs>
    <clipPath id="clip-path">
      <rect id="Rectangle_3618" data-name="Rectangle 3618" width="40" height="40" transform="translate(379 3253)" fill="none" stroke="#707070" stroke-width="1"/>
    </clipPath>
  </defs>
  <g id="Mask_Group_8050" data-name="Mask Group 8050" transform="translate(-379 -3253)" clip-path="url(#clip-path)">
    <g id="server-minimalistic-svgrepo-com" transform="translate(382 3255.048)">
      <path id="Path_9673" data-name="Path 9673" d="M4.438,15.736c.437-.03.995-.03,1.8-.03h23.7c.8,0,1.358,0,1.8.03a2.715,2.715,0,0,1,.87.164,2.547,2.547,0,0,1,1.374,1.382,2.76,2.76,0,0,1,.163.875c.03.439.03,1,.03,1.806s0,1.367-.03,1.806a2.761,2.761,0,0,1-.163.875A2.547,2.547,0,0,1,32.6,24.027a2.716,2.716,0,0,1-.87.164c-.437.03-.995.03-1.8.03H6.233c-.8,0-1.358,0-1.8-.03a2.716,2.716,0,0,1-.87-.164,2.547,2.547,0,0,1-1.374-1.382,2.76,2.76,0,0,1-.163-.875C2,21.33,2,20.769,2,19.963s0-1.366.03-1.806a2.759,2.759,0,0,1,.163-.875A2.547,2.547,0,0,1,3.568,15.9,2.716,2.716,0,0,1,4.438,15.736Zm1.8,5.93a1.7,1.7,0,1,0-1.693-1.7A1.7,1.7,0,0,0,6.233,21.667Z" transform="translate(0 7.731)" fill-rule="evenodd"/>
      <path id="Path_9674" data-name="Path 9674" d="M6.233,11.515c-.8,0-1.358,0-1.8-.03a2.715,2.715,0,0,1-.87-.164A2.547,2.547,0,0,1,2.193,9.938a2.759,2.759,0,0,1-.163-.875C2,8.624,2,8.063,2,7.258s0-1.366.03-1.806a2.759,2.759,0,0,1,.163-.875A2.547,2.547,0,0,1,3.568,3.194a2.715,2.715,0,0,1,.87-.164C4.874,3,5.432,3,6.233,3h23.7c.8,0,1.358,0,1.8.03a2.715,2.715,0,0,1,.87.164,2.547,2.547,0,0,1,1.374,1.383,2.761,2.761,0,0,1,.163.875c.03.439.03,1,.03,1.806s0,1.366-.03,1.806a2.761,2.761,0,0,1-.163.875A2.547,2.547,0,0,1,32.6,11.321a2.715,2.715,0,0,1-.87.164c-.437.03-.995.03-1.8.03Zm0,1.7c-.8,0-1.358,0-1.8.03a2.715,2.715,0,0,0-.87.164A2.547,2.547,0,0,0,2.193,14.8a2.759,2.759,0,0,0-.163.875c-.03.439-.03,1-.03,1.806s0,1.366.03,1.806a2.759,2.759,0,0,0,.163.875,2.547,2.547,0,0,0,1.374,1.383,2.716,2.716,0,0,0,.87.164c.437.03.995.031,1.8.031h23.7c.8,0,1.358,0,1.8-.031a2.716,2.716,0,0,0,.87-.164,2.547,2.547,0,0,0,1.374-1.383,2.76,2.76,0,0,0,.163-.875c.03-.439.03-1,.03-1.806s0-1.366-.03-1.806a2.76,2.76,0,0,0-.163-.875A2.547,2.547,0,0,0,32.6,13.413a2.715,2.715,0,0,0-.87-.164c-.437-.03-.995-.03-1.8-.03Zm1.693,4.258a1.693,1.693,0,1,1-1.693-1.7A1.7,1.7,0,0,1,7.926,17.476ZM6.233,8.961a1.7,1.7,0,1,0-1.693-1.7A1.7,1.7,0,0,0,6.233,8.961Z" transform="translate(0)" fill-rule="evenodd"/>
    </g>
  </g>
</svg>
