<svg xmlns="http://www.w3.org/2000/svg" xmlns:xlink="http://www.w3.org/1999/xlink" width="40" height="40" viewBox="0 0 40 40">
  <defs>
    <clipPath id="clip-path">
      <rect id="Rectangle_3617" data-name="Rectangle 3617" width="40" height="40" transform="translate(379 3253)" fill="none" stroke="#707070" stroke-width="1"/>
    </clipPath>
  </defs>
  <g id="Mask_Group_8049" data-name="Mask Group 8049" transform="translate(-379 -3253)" clip-path="url(#clip-path)">
    <g id="Layer_2" data-name="Layer 2" transform="translate(382.194 3255.194)">
      <g id="invisible_box" data-name="invisible box" transform="translate(-0.077 -0.077)">
        <rect id="Rectangle_3663" data-name="Rectangle 3663" width="36" height="36" transform="translate(-0.117 -0.117)" fill="none"/>
      </g>
      <g id="icons_Q2" data-name="icons Q2" transform="translate(2.973 1.479)">
        <path id="Path_9672" data-name="Path 9672" d="M31.461,29.458h-9.2a3.785,3.785,0,0,0-1.929-1.929V24.263H25.9c5.195,0,7.718-3.339,7.792-6.456a6.753,6.753,0,0,0-3.711-6.16,6.234,6.234,0,0,0-2.3-4.23A6.753,6.753,0,0,0,23.3,5.859H22.63A8.386,8.386,0,0,0,15.8,2,8.089,8.089,0,0,0,7.64,10.089a8.015,8.015,0,0,0-3.488,5.417,7.2,7.2,0,0,0,2.078,6.6,9.7,9.7,0,0,0,5.863,2.152h5.269v3.265a3.785,3.785,0,0,0-1.929,1.929H6.378a1.484,1.484,0,1,0,0,2.968h9.054a3.636,3.636,0,0,0,3.414,2.226,3.562,3.562,0,0,0,3.414-2.226h9.2a1.484,1.484,0,0,0,0-2.968ZM8.307,20.033a4.3,4.3,0,0,1-1.262-4.082,4.824,4.824,0,0,1,2.226-3.339,3.117,3.117,0,0,0,1.336-2.523A5.2,5.2,0,0,1,12.018,6.6,5.121,5.121,0,0,1,15.8,4.968a5.343,5.343,0,0,1,4.3,2.6A3.117,3.117,0,0,0,22.63,8.9H23.3a3.859,3.859,0,0,1,2.523.891,3.34,3.34,0,0,1,1.187,2.226,3.117,3.117,0,0,0,1.633,2.375,3.562,3.562,0,0,1,2.078,3.339c-.074,1.633-1.336,3.562-4.824,3.562h-13.8A7.2,7.2,0,0,1,8.307,20.033ZM18.845,31.684a.742.742,0,1,1,.742-.742.668.668,0,0,1-.742.742Z" transform="translate(-4.012 -2)"/>
      </g>
    </g>
  </g>
</svg>
