<svg width="64" height="64" viewBox="0 0 64 64" fill="none" xmlns="http://www.w3.org/2000/svg">
<circle cx="32" cy="32" r="32" fill="#F48120"/>
<path d="M52.2586 49.4031L50.5273 48.3961C53.4516 43.3711 54.9969 37.5984 54.9969 31.7023C54.9969 25.8063 53.4508 20.0336 50.5273 15.0086L52.2586 14.0016C55.3602 19.3313 57 25.4523 57 31.7016C57 37.9508 55.3602 44.0719 52.2586 49.4031ZM11.7414 49.4031C8.63984 44.0711 7 37.95 7 31.7016C7 25.4531 8.63984 19.332 11.7414 14L13.4727 15.007C10.5484 20.0336 9.00312 25.8063 9.00312 31.7016C9.00312 37.5969 10.5492 43.3695 13.4727 48.3953L11.7414 49.4031ZM47.1477 45.5789L45.4172 44.5695C47.6805 40.6922 48.8766 36.2422 48.8766 31.7016C48.8766 27.1703 47.6852 22.7195 45.4313 18.8313L47.1641 17.8266C49.5945 22.0195 50.8789 26.8172 50.8789 31.7008C50.8797 36.5961 49.5891 41.3953 47.1477 45.5789ZM16.8523 45.5789C14.4109 41.3953 13.1203 36.5961 13.1203 31.7016C13.1203 26.8172 14.4047 22.0195 16.8359 17.8273L18.5687 18.832C16.3141 22.7195 15.1234 27.1703 15.1234 31.7023C15.1234 36.243 16.3195 40.693 18.5828 44.5703L16.8523 45.5789ZM42.0695 41.7508L40.3367 40.7477C41.9203 38.0133 42.757 34.8852 42.757 31.7016C42.757 28.5172 41.9203 25.3898 40.3367 22.6563L42.0695 21.6531C43.8297 24.6914 44.7594 28.1656 44.7594 31.7016C44.7602 35.2367 43.8297 38.7117 42.0695 41.7508ZM21.9305 41.7508C20.1703 38.7117 19.2406 35.2367 19.2406 31.7016C19.2406 28.1656 20.1711 24.6914 21.9305 21.6531L23.6633 22.6563C22.0797 25.3898 21.243 28.518 21.243 31.7016C21.243 34.8852 22.0797 38.0133 23.6633 40.7477L21.9305 41.7508ZM31.7859 38.382C28.1016 38.382 25.1039 35.3844 25.1039 31.7C25.1039 28.0156 28.1016 25.0188 31.7859 25.0188C35.4703 25.0188 38.4672 28.0156 38.4672 31.7C38.4672 35.3844 35.4703 38.382 31.7859 38.382ZM31.7859 27.0219C29.2062 27.0219 27.107 29.1211 27.107 31.7C27.107 34.2797 29.2062 36.3789 31.7859 36.3789C34.3656 36.3789 36.4641 34.2797 36.4641 31.7C36.4641 29.1211 34.3656 27.0219 31.7859 27.0219Z" fill="white"/>
<path d="M31.7875 36.3765C34.3707 36.3765 36.4648 34.2824 36.4648 31.6992C36.4648 29.116 34.3707 27.0219 31.7875 27.0219C29.2042 27.0219 27.1101 29.116 27.1101 31.6992C27.1101 34.2824 29.2042 36.3765 31.7875 36.3765Z" fill="white"/>
</svg>
