<svg xmlns="http://www.w3.org/2000/svg" width="55" height="55" viewBox="0 0 55 55">
  <g id="Group_2476" data-name="Group 2476" transform="translate(-1296 -2969)">
    <g id="Group_8058" data-name="Group 8058">
      <circle id="Ellipse_15" data-name="Ellipse 15" cx="27.5" cy="27.5" r="27.5" transform="translate(1296 2969)" fill="#f3f3f3"/>
      <g id="subscription_setup" data-name="subscription setup" transform="translate(1304 2978)">
        <path id="Path_7033" data-name="Path 7033" d="M6.214,28.911H19.5a.554.554,0,1,0,0-1.107H6.214A1.108,1.108,0,0,1,5.107,26.7V6.214A1.108,1.108,0,0,1,6.214,5.107H30.571a1.108,1.108,0,0,1,1.107,1.107V8.428H24.158a1.328,1.328,0,0,1-.945-.391,2.429,2.429,0,0,0-1.728-.715H7.321a.554.554,0,0,0,0,1.107H21.485a1.328,1.328,0,0,1,.945.391,2.429,2.429,0,0,0,1.728.715h7.521V20.751a.554.554,0,0,0,1.107,0s0-14.537,0-14.537A2.217,2.217,0,0,0,30.571,4H6.214A2.217,2.217,0,0,0,4,6.214V26.7a2.217,2.217,0,0,0,2.214,2.214Z" fill="#f48120" stroke="#f48120" stroke-width="0.2"/>
        <path id="Path_7034" data-name="Path 7034" d="M28.1,8.56a.554.554,0,0,0-1.107,0A.554.554,0,0,0,28.1,8.56Zm2.214,0a.554.554,0,0,0-1.107,0A.554.554,0,0,0,30.312,8.56Zm2.214,0a.554.554,0,0,0-1.107,0A.554.554,0,0,0,32.527,8.56ZM12.875,12.988a.553.553,0,0,0-.554.554V14.1H10.661A1.663,1.663,0,0,0,9,15.756v8.857a1.663,1.663,0,0,0,1.661,1.661H21.732a1.663,1.663,0,0,0,1.661-1.661V15.756A1.663,1.663,0,0,0,21.732,14.1H20.071v-.554a.554.554,0,1,0-1.107,0V14.1H13.429v-.554A.553.553,0,0,0,12.875,12.988ZM18.964,15.2a.554.554,0,0,0,1.107,0h1.661a.554.554,0,0,1,.554.554v1.107H12.321a.554.554,0,0,0,0,1.107h9.964v6.643a.554.554,0,0,1-.554.554H10.661a.554.554,0,0,1-.554-.554V15.756a.554.554,0,0,1,.554-.554h1.661a.554.554,0,1,0,1.107,0Z" transform="translate(-2.232 -1.792)" fill="#f48120" stroke="#f48120" stroke-width="0.2"/>
        <path id="Path_7035" data-name="Path 7035" d="M19.739,32.6a.553.553,0,0,0,.783,0l1.661-1.661a.554.554,0,0,0-.783-.783l-1.269,1.269-.439-.439a.554.554,0,0,0-.783.783l.83.83Zm20.735,5.7h-.258a5.458,5.458,0,0,0-.372-.9,1.158,1.158,0,0,0,.183-1.749l-.783-.783a1.158,1.158,0,0,0-1.749.183,5.491,5.491,0,0,0-.9-.372,1.156,1.156,0,0,0-1.107-1.365H34.385a1.108,1.108,0,0,0-1.107,1.107v.258a5.494,5.494,0,0,0-.9.372,1.158,1.158,0,0,0-1.749-.183l-.783.783a1.108,1.108,0,0,0,0,1.566l.183.183a5.458,5.458,0,0,0-.372.9A1.156,1.156,0,0,0,28.3,39.407s0,1.107,0,1.107A1.108,1.108,0,0,0,29.4,41.622h.258a5.458,5.458,0,0,0,.372.9,1.158,1.158,0,0,0-.183,1.749l.783.783a1.158,1.158,0,0,0,1.749-.183,5.491,5.491,0,0,0,.9.372A1.156,1.156,0,0,0,34.385,46.6h1.107A1.156,1.156,0,0,0,36.6,45.239a5.492,5.492,0,0,0,.9-.372,1.158,1.158,0,0,0,1.749.183l.783-.783a1.158,1.158,0,0,0-.183-1.749,5.456,5.456,0,0,0,.373-.9,1.156,1.156,0,0,0,1.365-1.107s0-1.107,0-1.107A1.108,1.108,0,0,0,40.474,38.3Zm0,2.214c-.425.019-1.1-.137-1.221.431a4.406,4.406,0,0,1-.569,1.369.554.554,0,0,0,.077.687l.483.483-.783.783c-.309-.286-.686-.874-1.169-.56a4.389,4.389,0,0,1-1.369.569.554.554,0,0,0-.431.54V45.5H34.385v-.681a.554.554,0,0,0-.431-.54,4.388,4.388,0,0,1-1.369-.569c-.485-.316-.863.278-1.169.56l-.783-.783L31.116,43a.554.554,0,0,0,.077-.687,4.406,4.406,0,0,1-.569-1.369.553.553,0,0,0-.54-.431H29.4V39.407c.425-.019,1.1.137,1.221-.431a4.406,4.406,0,0,1,.569-1.369.554.554,0,0,0-.077-.687l-.483-.483.783-.783.483.483a.554.554,0,0,0,.687.077,4.388,4.388,0,0,1,1.369-.569c.569-.125.411-.8.431-1.221h1.107c.019.425-.137,1.1.431,1.221a4.388,4.388,0,0,1,1.369.569.554.554,0,0,0,.687-.077l.483-.483.783.783-.483.483a.554.554,0,0,0-.077.687,4.406,4.406,0,0,1,.569,1.369c.125.569.8.411,1.221.431,0,0,0,1.107,0,1.107Z" transform="translate(-6.582 -11.604)" fill="#f48120" stroke="#f48120" stroke-width="0.2"/>
        <path id="Path_7036" data-name="Path 7036" d="M47.7,43.787c-.687.29-.11,1.009-.166,1.53a2.214,2.214,0,1,1-1.4-2.063.554.554,0,0,0,.4-1.033,3.321,3.321,0,1,0,2.109,3.1c-.025-.573-.1-1.773-.941-1.53Z" transform="translate(-16.964 -16.959)" fill="#f48120" stroke="#f48120" stroke-width="0.2"/>
      </g>
    </g>
  </g>
</svg>
