<?xml version="1.0" encoding="UTF-8"?><svg id="Layer_1" xmlns="http://www.w3.org/2000/svg" viewBox="0 0 60 60"><defs><style>.cls-1{fill:none;}.cls-1,.cls-2{stroke-width:0px;}.cls-2{fill:#f48120;}.cls-3{fill:#fff;stroke:#fff;stroke-miterlimit:10;}</style></defs><circle class="cls-2" cx="30" cy="30" r="30"/><path class="cls-1" d="M45.87,47.05v5.58c0,.73-.64,1.37-1.37,1.37H14.94c-.73,0-1.37-.64-1.37-1.37v-1.19c1.65-2.01,3.02-3.93,4.12-5.76h26.81c.73,0,1.37.64,1.37,1.37Z"/><path class="cls-3" d="M28.26,48.92c-.13,0-.26-.04-.37-.11l-11.58-6.75c-.06-.03-.11-.07-.15-.12-.27-.28-.26-.73.02-.99.24-.23.59-.25.86-.08l11.57,6.75s.08.05.12.09c.29.26.31.71.05.99-.14.15-.33.23-.52.23ZM16.66,20.42c-.17,0-.35-.06-.48-.19-.28-.27-.29-.71-.02-.99.05-.05.1-.09.16-.12l11.58-6.76c.28-.17.66-.13.89.13.26.29.24.73-.05.99h0s-.08.06-.12.09l-11.58,6.76c-.11.07-.24.1-.37.1ZM46.88,38.07c-.39,0-.7-.31-.7-.7v-13.57c0-.39.31-.7.7-.7s.7.31.7.7v13.57c0,.39-.31.7-.7.7ZM32.95,48.92c-.19,0-.38-.08-.52-.23-.26-.29-.24-.73.05-.99.04-.03.08-.06.12-.09l11.58-6.76c.26-.16.62-.14.85.09.28.27.29.71.02.99h0s-.1.09-.15.12l-11.58,6.76c-.11.07-.24.1-.37.1ZM44.54,20.42c-.13,0-.26-.04-.38-.11l-11.57-6.75s-.08-.05-.12-.09c-.29-.26-.31-.71-.05-.99.23-.26.61-.3.89-.12l11.58,6.75c.06.03.11.07.15.12.27.28.26.73-.02.99-.14.13-.31.19-.48.19ZM14.32,38.07c-.39,0-.7-.31-.7-.7v-13.57c0-.39.31-.7.7-.7s.7.31.7.7v13.57c0,.39-.31.7-.7.7Z"/><path class="cls-3" d="M30.6,15.01c-1.21,0-2.34-.65-2.95-1.69-.3-.52-.47-1.12-.47-1.72,0-1.88,1.53-3.42,3.42-3.42s3.42,1.53,3.42,3.42c0,.61-.16,1.2-.47,1.72-.61,1.04-1.74,1.69-2.95,1.69ZM30.6,9.58c-1.11,0-2.01.9-2.01,2.01,0,.36.09.71.27,1.01.36.62,1.03,1,1.74,1s1.38-.38,1.74-1h0c.18-.31.27-.66.27-1.01,0-1.11-.9-2.01-2.01-2.01ZM30.6,53c-1.88,0-3.42-1.53-3.42-3.42,0-.61.16-1.2.47-1.72.61-1.04,1.74-1.69,2.95-1.69s2.34.65,2.95,1.69c.3.52.47,1.12.47,1.72,0,1.88-1.53,3.42-3.42,3.42ZM30.6,47.57c-.71,0-1.38.38-1.74,1h0c-.18.31-.27.66-.27,1.01,0,1.11.9,2.01,2.01,2.01s2.01-.9,2.01-2.01c0-.36-.09-.71-.27-1.01-.36-.62-1.03-1-1.74-1ZM14.32,43.5c-1.88,0-3.42-1.53-3.42-3.42s1.53-3.42,3.42-3.42,3.42,1.53,3.42,3.42c0,.61-.16,1.2-.47,1.72-.61,1.04-1.74,1.69-2.95,1.69ZM14.32,38.07c-1.11,0-2.01.9-2.01,2.01s.9,2.01,2.01,2.01c.71,0,1.38-.38,1.74-1,0,0,0,0,0,0,.18-.31.27-.66.27-1.01,0-1.11-.9-2.01-2.01-2.01ZM46.88,43.5c-1.21,0-2.34-.65-2.95-1.69h0c-.3-.52-.47-1.12-.47-1.72,0-1.88,1.53-3.42,3.42-3.42s3.42,1.53,3.42,3.42-1.53,3.42-3.42,3.42ZM46.88,38.07c-1.11,0-2.01.9-2.01,2.01,0,.36.09.71.27,1.01,0,0,0,0,0,0,.36.62,1.03,1,1.74,1,1.11,0,2.01-.9,2.01-2.01,0-1.11-.9-2.01-2.01-2.01ZM14.32,24.5c-1.88,0-3.42-1.53-3.42-3.42s1.53-3.42,3.42-3.42c1.21,0,2.34.65,2.95,1.69.3.52.47,1.12.47,1.72,0,1.88-1.53,3.42-3.42,3.42ZM14.32,19.08c-1.11,0-2.01.9-2.01,2.01s.9,2.01,2.01,2.01,2.01-.9,2.01-2.01c0-.36-.09-.71-.27-1.01-.36-.62-1.03-1-1.74-1ZM46.88,24.5c-1.88,0-3.42-1.53-3.42-3.42,0-.61.16-1.2.47-1.72.61-1.04,1.74-1.69,2.95-1.69,1.88,0,3.42,1.53,3.42,3.42s-1.53,3.42-3.42,3.42ZM46.88,19.08c-.71,0-1.38.38-1.74,1-.18.31-.27.66-.27,1.01,0,1.11.9,2.01,2.01,2.01s2.01-.9,2.01-2.01-.9-2.01-2.01-2.01ZM30.6,42.15c-.12,0-.24-.03-.35-.09l-9.5-5.43c-.22-.12-.35-.36-.35-.61v-10.86c0-.25.13-.48.35-.61l9.5-5.43c.22-.12.48-.12.7,0l9.5,5.43c.22.12.35.36.35.61v10.86c0,.25-.13.48-.35.61l-9.5,5.43c-.11.06-.23.09-.35.09ZM21.8,35.61l8.8,5.03,8.8-5.03v-10.04l-8.8-5.03-8.8,5.03v10.04Z"/><path class="cls-3" d="M30.6,31.29c-.12,0-.24-.03-.35-.09l-9.5-5.43c-.34-.19-.45-.62-.26-.96.19-.34.62-.45.96-.26l9.15,5.23,9.15-5.23c.34-.19.77-.08.96.26.19.34.08.77-.26.96l-9.5,5.43c-.11.06-.23.09-.35.09Z"/><path class="cls-3" d="M30.6,42.15c-.39,0-.7-.31-.7-.7v-10.86c0-.39.31-.7.7-.7s.7.31.7.7v10.86c0,.39-.31.7-.7.7Z"/></svg>