<svg xmlns="http://www.w3.org/2000/svg" xmlns:xlink="http://www.w3.org/1999/xlink" width="45" height="45" viewBox="0 0 45 45">
  <defs>
    <linearGradient id="linear-gradient" x1="0.5" x2="0.156" y2="0.791" gradientUnits="objectBoundingBox">
      <stop offset="0" stop-color="#3e3e3e"/>
      <stop offset="1" stop-color="#1a1a1a"/>
    </linearGradient>
  </defs>
  <g id="supply_chain" transform="translate(-630 -327)">
    <circle id="Ellipse_1" data-name="Ellipse 1" cx="22.5" cy="22.5" r="22.5" transform="translate(630 327)" fill="url(#linear-gradient)"/>
    <g id="Distribution" transform="translate(631 299.2)">
      <g id="Group_8368" data-name="Group 8368" transform="translate(10 41.8)">
        <path id="Path_9263" data-name="Path 9263" d="M15.427,50.546a.808.808,0,0,0,.428.255h.01a.581.581,0,0,0,.132.01.715.715,0,0,0,.652-.234l3.156-3.655a.706.706,0,0,0-.081-1.018.765.765,0,0,0-1.059.081l-2.658,3.1L14.8,47.9a.766.766,0,0,0-1.049-.132.711.711,0,0,0-.143,1.018l1.823,1.761Zm11.282,2.281a3.26,3.26,0,1,0,3.36,3.258,3.317,3.317,0,0,0-3.36-3.258Zm0,4.8A1.538,1.538,0,1,1,28.3,56.085a1.567,1.567,0,0,1-1.588,1.537ZM32.3,49l-.061-.092L30.14,46.3a6.052,6.052,0,0,0-4.3-2.036h-2.2v-.641A1.858,1.858,0,0,0,21.77,41.8H10.886a.876.876,0,0,0-.886.865V55.271a.876.876,0,0,0,.886.865h1.273a.866.866,0,1,0,0-1.731h-.387V43.531H21.76a.091.091,0,0,1,.092.092v5.295a1.852,1.852,0,0,0,1.884,1.812l8.39-.01a.1.1,0,0,1,.1.081V54.65a.094.094,0,0,1-.1.092h-.988a.866.866,0,1,0,0,1.731h.988A1.843,1.843,0,0,0,34,54.66V50.811A1.8,1.8,0,0,0,32.3,49Zm-8.553.01a.094.094,0,0,1-.1-.092V45.985h2.2a4.3,4.3,0,0,1,2.892,1.375L30.048,49l-6.3.01Zm-6.924,3.818a3.26,3.26,0,1,0,3.36,3.258,3.317,3.317,0,0,0-3.36-3.258Zm0,4.8A1.538,1.538,0,1,1,18.4,56.085a1.567,1.567,0,0,1-1.578,1.537Zm5.284-3.207h-.815a.866.866,0,1,0,0,1.731h.815a.876.876,0,0,0,.886-.865.863.863,0,0,0-.886-.865Z" transform="translate(-10 -41.8)" fill="#fff" stroke="#323232" stroke-width="0.7"/>
      </g>
    </g>
  </g>
</svg>
