<?xml version="1.0" encoding="UTF-8"?><svg id="Layer_1" xmlns="http://www.w3.org/2000/svg" viewBox="0 0 60 60"><defs><style>.cls-1{fill:#fff2e9;}.cls-1,.cls-2,.cls-3{stroke-width:0px;}.cls-2{fill:#f8971d;}.cls-3{fill:#343434;}</style></defs><circle class="cls-1" cx="30" cy="30" r="30"/><path class="cls-2" d="M49.84,44c-.12.09-.32.14-.62.15-6.49.22-12.98.15-19.49.27-4.66.09-9.33.09-13.99,0-1.69-.03-3.4-.08-5.01-.46-.12-.53-.66-1.61.19-1.95.48-.19,1.45,0,1.97.01.82.02,1.63.02,2.45.05,2.37.08,4.74.06,7.11.04,8.01-.07,16.03-.16,24.04-.27,1.15-.02,2.31-.03,3.45.11.02,0,.1,1.37.1,1.49,0,.26-.04.44-.2.56ZM36.49,19.06c-.04.92-.66,3.92-1.92,3.62.02-.14.03-.28.04-.42-.05-1.02-.25-2.03-.59-3-.02-.06-.04-.12-.08-.17-.09-.08-.21-.07-.33-.05-1.34.22-2.71.11-4.01-.3-.6-.19-1.38-.93-2.01-.62-.64.33-.89,1.14-1.61,1.37-.09.03-.19.06-.23.14.09.84.15,1.7.19,2.54.01.21.02.41.03.61,0,.2.01.39.03.59-.08.03-.17.05-.26.06-.81-.75-1.45-1.72-1.79-2.84-.33-1.11-.34-2.35.04-3.45.26-.73.69-1.38,1.3-1.76.61-.37,1.39-.41,1.98,0,.2-.45.48-.88.85-1.16.69-.53,1.58-.66,2.42-.64,2.71.12,6.13,1.99,5.97,5.48h0Z"/><path class="cls-3" d="M49.99,41.53c-1.42-.18-2.39-.13-8.02-.05.83-1.43.8-2.01.6-3.06-1-5.42-1.02-5.86-1.41-6.58-1.67-3.09-6.14-1.65-8.52-2.61-.18-.88.11-1.28.06-1.55.93-.52,1.64-1.42,2.07-2.38,3.27-.04,1.65-1.88,1.75-4.23,2.25-7.21-7.35-9.95-9.45-6.25-2.3-.88-4.62,2.3-3.54,5.91.52,1.72,1.76,3,2.05,3.11.11,1.49.56,2.43,1.77,3.32.04,1.22.14,1.79-.12,2.14-.49.65-1.83.49-2.84.59-3.16.31-4,1.47-4.69,4.26-1.09,4.42-2,6.22-.06,7.57-8.23.01-8.15-.38-8.88-.09-1.16.47-.6,1.74-.44,2.44.08.37.53.4,1.5.54-.06,1.19-.1,2.4-.09,3.6,0,.23.18.41.41.42,13.94.33,31.27,1.09,35.88-.01.17-.04.29-.18.32-.35.07-.43.24-1.88-.1-3.66,1.21-.04,2.2.11,2.22-1.15.03-1.86-.2-1.89-.46-1.92h0ZM39.5,41.51c.07-.7.08-2.01.06-3.35.33.01,1.2.41,2.1-.06.24,1.29.44,1.66-.69,3.39l-1.48.02h0ZM23.01,33.2c.57-.33.48-.26,9.91-.44,1.51-.03,3.08-.06,4.53.28.94.22,1.05.46,1.12.99.11.81.24,6.34.09,7.5-5.4.07-10.81.12-16.19.17.1-8.14-.01-8.17.54-8.49h0ZM35.09,24.44c.17-.58.22-.99.28-1.5.16-.11.31-.24.43-.39.23,1.71.54,1.79-.71,1.89ZM27.02,15.73c.94.65.24-1.82,3.48-1.73,2.86.13,5.71,2.06,5.56,5.04-.03.73-.33,1.98-.73,2.69-.05-.39-.12-.78-.2-1.16-.75-3.52-1.33-.95-5.24-2.19-.56-.18-1.54-1.1-2.5-.64-.35.18-.58.45-.83.74-.72.86-.94.51-1.19.93-.15.26.03.43.14,3.06v.14c-3.07-3.56-.49-8.25,1.5-6.9h0ZM26.2,19.87c.81-.31,1.08-1.11,1.58-1.37.47-.23,1.23.52,2.08.75,2.22.59,3.8.12,4.1.26.3.45.64,2.78.6,3.09,0,.24-.11,1.1-.35,1.82-1.11-.08-2.17-.36-3.14-.47-.55-.07-.65.77-.09.84.87.1,1.79.34,2.89.44-1.57,2.98-5.1,2.5-6.75.54-.94-1.14-.56-2.35-.92-5.92h0ZM31.8,28.04c-.08.47-.12,1.67.31,1.87h0c-1.14,1.08-2.83.66-4.14-.23.36-.58.27-1.24.24-2.02,1.12.54,2.4.72,3.59.38ZM25.2,30.67c.73-.02,1.53-.05,2.15-.4,2.43,1.71,4.59,1.28,5.62-.06,2.54.66,6.14-.4,7.45,2.02.3.56.32.88,1.08,5.01-.31.09-.31.37-1.39.17l-.57-.11c-.13-6.05,1.09-5.54-14.9-5.22-2.43.03-2.9.81-2.9,2.34,0,.04-.12,3-.12,3.57-.44.08-1.44-.4-1.84-.61,1.21-4.84.9-6.57,5.42-6.71h0ZM19.56,38.22c.52.27,1.47.67,2.06.62,0,1.03.02,1.81,0,2.85-.22,0-.43,0-.65,0-.87-.98-2.14-.74-1.41-3.48ZM47.54,47.84c-4.93.99-22.86.23-34.97-.06,0-1.03.04-2.06.09-3.08,3,.3,13.86.2,17.07.15,5.96-.11,11.43-.06,17.64-.22.25,1.21.25,2.4.16,3.22h0ZM49.58,43.66c-.1.08-.5.07-1.77.1-.13-.03-.18,0-.23,0-6.25.17-11.85.12-17.87.23-3.06.06-15.66.25-18.65-.4-.15-.48-.36-1.06,0-1.21.67-.27-5.71.44,35.41-.14,1.01-.01,2.05-.03,3.06.07.11,1.59.03,1.2.03,1.33l.25.34-.25-.34h0Z"/><path class="cls-3" d="M29.03,39.18c.16.05.33.08.49.08.42,0,.84-.17,1.13-.48.43-.46.51-1.17.19-1.69-.48-.79-1.63-.77-1.85-.34-1.22.83-.98,2.08.04,2.42h0ZM29.6,37.32c.48-.11.79.51.43.9-.29.32-.87.23-.99-.01-.19-.38.48-.74.56-.88ZM16.36,11.94c-2.78-.55-4.67,2.99-3.4,5.27,1.4,2.52,5.33,2.28,6.07-.83.47-1.98-.84-4.08-2.68-4.44h0ZM18.21,16.18c-.55,2.33-3.48,2.48-4.52.62-.86-1.55.25-4.08,2.09-4.08.83,0,1.56.5,2.01,1.2.43.67.59,1.52.41,2.26ZM15.88,11.15c.46,0,.45-.64.51-.8.05-.23-.1-.45-.32-.5,0,0,0,0,0,0-.54-.12-.55.67-.6.79-.05.23.14.51.41.51h0ZM19.69,12.6c.21,0,.41-.06.58-.19.45-.33-.04-1.01-.49-.68-.04.03-.09.03-.13.02-.6-.21-.9.85.04.85h0ZM20.9,16.34c.08-.22-.03-.46-.25-.54-.17-.07-.32-.18-.43-.33-.14-.19-.4-.23-.59-.09h0c-.67.49.95,1.78,1.26.96Z"/><path class="cls-3" d="M17.23,20.25l.06-.64c.05-.55-.79-.63-.84-.08.02.24-.28,1.04.32,1.1.01,0,.44-.15.46-.38ZM13.1,18.76c.14-.54-.68-.75-.82-.21-.08.3-.64,0-.69.53-.02.23,1.27.6,1.5-.33ZM11.74,14.42c-.06-.01-.11-.04-.15-.08-.39-.4-.99.19-.6.59.21.22.51.33.67.33.2,0,.58-.74.08-.83h0ZM13.14,11.44c-.11-.08-.21-.19-.28-.31-.28-.48-1.01-.06-.73.42.77,1.32,1.54.27,1.01-.12h0ZM42.51,19c1.5.9,3.46.49,4.77-.61,2.61-2.19,1.02-6.13-.56-7.58-.81-.74-2.81-1.57-3.06-.51-.09.36.16.69.36.95.39.51.77,1.56.79,2.62.04,2.54-1.86,2.98-2.69,3.78-.24.23-.41.86.4,1.34h0ZM44.9,16.43c1.15-1.56.88-4.19-.29-5.78.69.16,1.14.42,1.53.77,1.27,1.17,2.74,4.51.59,6.32-1.07.9-2.67,1.28-3.95.44.34-.28,1.47-.87,2.12-1.75ZM49.16,26.53c.45-.33-.06-1.01-.5-.68-.79.58-2.19-1.08-3.96.09-.48.32-.41.34-.76.13-2.27-1.32-3.45.9-2.58,1.15.22.06.46-.07.52-.29.06-.22.33-.41.63-.43.72-.05,1.13.52,1.68.55.77.05,1.05-.87,2.23-.68.36.06.77.25,1.17.35.62.16,1.18.09,1.57-.2ZM17.38,25.25c-.46-.13-.9.05-1.07.29-.44-.44-1.8.44-1.63,1.66.11.76.82,1.36,1.58,1.36,1.82,0,2.96-2.78,1.12-3.31ZM15.52,27.08c-.05-.36.23-.75.58-.83.1-.02.2-.08.26-.17.16.16.43.16.59,0,.06-.05.15-.04.2-.02.84.24-.05,1.6-.85,1.66-.35.03-.74-.28-.79-.64ZM47.58,35.12c.41-.38-.16-1-.57-.62-.54.5-1.05,1.03-1.51,1.6-.15.18-.12.45.06.59,0,0,.02.01.03.02.53.37,1.1.7,1.69.97.21.1.46,0,.56-.2,0,0,0,0,0,0,.24-.52-.36-.57-1.38-1.21.35-.41.73-.79,1.13-1.15h0ZM15.72,37.93c.35-.08.44-.54.15-.75-.87-.63-1.8-1.24-2.62-1.71-.2-.12-.46-.04-.57.16-.04.06-.06.14-.06.21,0,.38-.01.88-.03,1.38-.04,1.38-.09,1.55.13,1.73.51.4,1.93-.76,3-1.02ZM13.45,36.58c.41.25.84.53,1.26.82-.45.2-.86.46-1.3.64,0-.25.03-1.01.04-1.46Z"/></svg>