<svg xmlns="http://www.w3.org/2000/svg" xmlns:xlink="http://www.w3.org/1999/xlink" width="35" height="35" viewBox="0 0 35 35">
  <defs>
    <clipPath id="clip-path">
      <rect id="Rectangle_3670" data-name="Rectangle 3670" width="35" height="35" transform="translate(820 5428)" fill="none" stroke="#707070" stroke-width="1"/>
    </clipPath>
  </defs>
  <g id="Mask_Group_8022" data-name="Mask Group 8022" transform="translate(-820 -5428)" clip-path="url(#clip-path)">
    <g id="rocket-svgrepo-com_1_" data-name="rocket-svgrepo-com (1)" transform="translate(822.309 5430.31)">
      <path id="Path_9290" data-name="Path 9290" d="M8.379,19.091l.687-.689Zm0-7.1L7.692,11.3h0Zm8.9,8.878-.687-.689Zm-7.124,0-.687.689Zm3.562,2.511v0ZM24.866,13.307l.687.689Zm-8.9-8.878.687.689ZM14.395,23.255l.336.913ZM6.005,14.811l.9.363Zm18.174-2.193L16.6,20.178l1.373,1.378L25.553,14ZM10.847,20.178,9.066,18.4,7.692,19.78l1.781,1.776Zm-1.781-7.5,7.582-7.559L15.274,3.74,7.692,11.3ZM21.3,3.2h.738V1.25H21.3Zm4.8,4.05V7.98h1.945V7.245ZM22.042,3.2a22.386,22.386,0,0,1,2.634.083,1.57,1.57,0,0,1,.978.368l1.373-1.378a3.462,3.462,0,0,0-2.093-.919,23.8,23.8,0,0,0-2.893-.1Zm6.01,4.05a23.607,23.607,0,0,0-.1-2.885,3.448,3.448,0,0,0-.923-2.09L25.655,3.647a1.554,1.554,0,0,1,.368.973,22.174,22.174,0,0,1,.084,2.625ZM9.066,18.4a22.294,22.294,0,0,1-1.8-1.916,1.554,1.554,0,0,1-.429-.947H4.888a3.447,3.447,0,0,0,.83,2.129A23.691,23.691,0,0,0,7.692,19.78Zm.408,3.153a23.722,23.722,0,0,0,2.117,1.969,3.463,3.463,0,0,0,2.131.826V22.405a1.569,1.569,0,0,1-.954-.429,22.276,22.276,0,0,1-1.922-1.8ZM25.553,14a8.82,8.82,0,0,0,2.137-2.641l-1.8-.746a7.314,7.314,0,0,1-1.714,2.01Zm.554-6.016a7.284,7.284,0,0,1-.213,2.628l1.8.746a8.792,8.792,0,0,0,.362-3.375ZM16.648,5.118a7.327,7.327,0,0,1,2.017-1.71l-.743-1.8a8.836,8.836,0,0,0-2.648,2.13ZM21.3,1.25a8.862,8.862,0,0,0-3.382.36l.743,1.8A7.357,7.357,0,0,1,21.3,3.2ZM16.6,20.178c-.663.661-1.162,1.158-1.591,1.528a3.319,3.319,0,0,1-.948.637l.672,1.825a5.156,5.156,0,0,0,1.547-.99c.493-.426,1.048-.979,1.693-1.623Zm-2.538,2.165a.945.945,0,0,1-.337.063V24.35a2.89,2.89,0,0,0,1.009-.182ZM7.692,11.3c-.63.628-1.173,1.169-1.6,1.651a5.392,5.392,0,0,0-.994,1.5l1.8.726a3.554,3.554,0,0,1,.652-.942c.369-.421.859-.911,1.506-1.555ZM5.1,14.449a2.892,2.892,0,0,0-.215,1.091H6.833a.949.949,0,0,1,.075-.366Z" transform="translate(1.08 0)" stroke="#000" stroke-width="1"/>
      <path id="Path_9291" data-name="Path 9291" d="M6.857,13.683,7.544,13h0Zm5.636-5.329a.973.973,0,1,0,1.053-1.636ZM12.2,7.011l.526-.818h0ZM8.871,5.3l.142-.962ZM2.515,9.134l.687.689h0ZM6.553,5.6l.373.9h0ZM3.342,10.953l-.358.9h0Zm.16.064.37-.9h0Zm2.109,1.424.687-.689Zm-.122-.121-.677.7ZM2.851,10.758l.358-.9h0ZM15.839,22.72l-.688.688.047.044Zm6.9-6.832a.973.973,0,0,0-1.633,1.057Zm-.29,1.342-.816.529Zm1.715,3.322.962-.143ZM20.324,26.89l.687.689Zm3.547-4.027.9.375Zm-5.116,3.844.9-.36Zm-.615-1.416.853-.468Zm-1.623-1.977.687-.689-.022-.022-.023-.021Zm1.061,1.124.766-.6ZM20.215,27l-.687-.689Zm-6.67-20.28-.816-.525L11.677,7.829l.816.525Zm-.816-.525c-.806-.519-1.456-.938-2.016-1.24a5.117,5.117,0,0,0-1.7-.614L8.729,6.263a3.22,3.22,0,0,1,1.062.4c.478.258,1.055.628,1.886,1.163ZM3.2,9.823c.73-.728,1.513-1.509,2.217-2.151.352-.321.672-.6.947-.808A3.016,3.016,0,0,1,6.926,6.5L6.181,4.7a4.714,4.714,0,0,0-1,.624c-.334.258-.7.573-1.07.912-.742.677-1.557,1.49-2.28,2.21ZM9.013,4.339a5.355,5.355,0,0,0-2.833.36l.745,1.8a3.41,3.41,0,0,1,1.8-.232Zm-6.52,7.324.491.195L3.7,10.049l-.491-.195ZM4.924,13.13,6.17,14.372l1.373-1.378L6.3,11.752Zm-1.94-1.272.148.059.741-1.8L3.7,10.049ZM6.3,11.752l-.132-.13-1.355,1.4.113.112Zm-3.166.164a5.326,5.326,0,0,1,1.68,1.1l1.355-1.4a7.271,7.271,0,0,0-2.294-1.5Zm-1.3-3.471a1.964,1.964,0,0,0,.665,3.218l.717-1.808-.008,0h0a.024.024,0,0,1,0-.01.023.023,0,0,1,0-.01h0L3.2,9.823Zm19.282,8.5.527.814L23.27,16.7l-.527-.813ZM19.638,26.2l-.109.109L20.9,27.688l.109-.109Zm2-8.442c.536.829.908,1.4,1.166,1.88a3.189,3.189,0,0,1,.4,1.057l1.924-.286a5.09,5.09,0,0,0-.617-1.7c-.3-.558-.723-1.207-1.244-2.01Zm-.626,9.82c.722-.72,1.538-1.533,2.217-2.273.34-.37.656-.733.915-1.067a4.7,4.7,0,0,0,.627-1l-1.8-.749a3.008,3.008,0,0,1-.369.558c-.212.274-.489.593-.81.944-.644.7-1.427,1.483-2.157,2.211Zm2.2-6.883a3.373,3.373,0,0,1-.233,1.793l1.8.749a5.317,5.317,0,0,0,.362-2.828Zm-6.048,1.887-.678-.594L15.2,23.452l.678.594Zm2.5,3.764a13.83,13.83,0,0,0-.666-1.524l-1.705.936a12.281,12.281,0,0,1,.564,1.308ZM15.83,24a12.314,12.314,0,0,1,.982,1.035l1.531-1.2a13.841,13.841,0,0,0-1.14-1.213Zm3.163.82a7.243,7.243,0,0,0-.65-.985l-1.531,1.2a5.3,5.3,0,0,1,.476.721Zm.535,1.486a.087.087,0,0,1,.037-.021.06.06,0,0,1,.029,0,.075.075,0,0,1,.031.016.114.114,0,0,1,.033.044l-1.807.72a1.869,1.869,0,0,0,3.05.62Zm-3-4.278-.365-.365-1.375,1.375.365.365ZM6.169,14.371,6.4,14.6l1.375-1.375L7.544,13Z" transform="translate(0 0.9)" stroke="#000" stroke-width="1"/>
      <path id="Path_9292" data-name="Path 9292" d="M11.782,16.751a.973.973,0,0,0-1.373-1.377ZM9.11,19.414l2.672-2.664-1.373-1.377L7.737,18.036Zm10.2-9.368a1.552,1.552,0,0,1-2.189,0l-1.373,1.377a3.5,3.5,0,0,0,4.935,0Zm-2.189,0a1.533,1.533,0,0,1,0-2.174L15.751,6.495a3.478,3.478,0,0,0,0,4.929Zm0-2.174a1.552,1.552,0,0,1,2.189,0l1.373-1.378a3.5,3.5,0,0,0-4.935,0Zm2.189,0a1.533,1.533,0,0,1,0,2.174l1.373,1.377a3.478,3.478,0,0,0,0-4.929Z" transform="translate(1.925 1.254)" stroke="#000" stroke-width="1"/>
    </g>
  </g>
</svg>
