<svg xmlns="http://www.w3.org/2000/svg" xmlns:xlink="http://www.w3.org/1999/xlink" width="35" height="35" viewBox="0 0 35 35">
  <defs>
    <clipPath id="clip-path">
      <rect id="Rectangle_3670" data-name="Rectangle 3670" width="35" height="35" transform="translate(820 5428)" fill="none" stroke="#707070" stroke-width="1"/>
    </clipPath>
  </defs>
  <g id="Mask_Group_8022" data-name="Mask Group 8022" transform="translate(-820 -5428)" clip-path="url(#clip-path)">
    <path id="play-store-svgrepo-com" d="M8.4,32.193a1.29,1.29,0,1,0-1.279-2.24ZM6.04,32.055H4.75a1.29,1.29,0,0,0,1.929,1.12Zm0-27.515.64-1.12A1.29,1.29,0,0,0,4.75,4.54Zm1.08,2.1A1.29,1.29,0,0,0,8.4,4.4Zm-.379,23.64a1.29,1.29,0,1,0,2.036,1.583ZM22.535,14.176A1.29,1.29,0,0,0,20.5,12.592ZM7.12,29.953a1.29,1.29,0,1,0,1.28,2.24Zm15.037-5.621a1.29,1.29,0,1,0-1.28-2.24Zm0-12.068a1.29,1.29,0,1,0-1.28,2.24ZM30.116,18.3l.64,1.12a1.29,1.29,0,0,0,0-2.24Zm-9.238,3.793a1.29,1.29,0,1,0,1.28,2.24Zm0-7.587a1.29,1.29,0,1,0,1.28-2.24ZM8.4,4.4a1.29,1.29,0,1,0-1.28,2.24Zm.378.328A1.29,1.29,0,0,0,6.741,6.314ZM20.5,24a1.29,1.29,0,1,0,2.036-1.583ZM7.12,29.953l-1.72.982,1.279,2.24,1.72-.982Zm.21,2.1V4.54H4.75V32.055ZM5.4,5.66l1.72.982L8.4,4.4,6.679,3.42Zm3.377,26.2L22.535,14.176,20.5,12.592,6.741,30.281Zm-.378.328,13.758-7.861-1.28-2.24L7.12,29.953ZM20.877,14.5l8.6,4.913,1.28-2.24-8.6-4.913Zm8.6,2.673-8.6,4.913,1.28,2.24,8.6-4.913Zm-7.319-4.913L8.4,4.4,7.12,6.642,20.877,14.5ZM6.741,6.314,20.5,24l2.036-1.583L8.778,4.73Z" transform="translate(819.422 5427.203)"/>
  </g>
</svg>
