<svg xmlns="http://www.w3.org/2000/svg" xmlns:xlink="http://www.w3.org/1999/xlink" width="35" height="35" viewBox="0 0 35 35">
  <defs>
    <clipPath id="clip-path">
      <rect id="Rectangle_3670" data-name="Rectangle 3670" width="35" height="35" transform="translate(820 5428)" fill="none" stroke="#707070" stroke-width="1"/>
    </clipPath>
  </defs>
  <g id="Mask_Group_8022" data-name="Mask Group 8022" transform="translate(-820 -5428)" clip-path="url(#clip-path)">
    <g id="gear-svgrepo-com_3_" data-name="gear-svgrepo-com (3)" transform="translate(819.979 5427.979)">
      <path id="Path_9284" data-name="Path 9284" d="M18.348,13.674A4.674,4.674,0,1,1,13.674,9,4.674,4.674,0,0,1,18.348,13.674Z" transform="translate(3.348 3.348)" fill="none" stroke="#000" stroke-linecap="round" stroke-linejoin="round" stroke-width="3"/>
      <path id="Path_9285" data-name="Path 9285" d="M18.431,3.094A5.31,5.31,0,0,0,17.021,3a5.31,5.31,0,0,0-1.409.094,2.337,2.337,0,0,0-1.185.8,5.308,5.308,0,0,0-.61,1.274,1.971,1.971,0,0,1-2.453,1.138l-.889-.3a5.232,5.232,0,0,0-1.255-.333,2.337,2.337,0,0,0-1.3.307,5.232,5.232,0,0,0-.974.86,5.286,5.286,0,0,0-.908,1.035,2.337,2.337,0,0,0-.283,1.377,5.286,5.286,0,0,0,.427,1.309,2.255,2.255,0,0,1-.933,2.771l-.432.259a5.156,5.156,0,0,0-1.233.869,2.337,2.337,0,0,0-.471.832A5.218,5.218,0,0,0,3,16.813a5.361,5.361,0,0,0,.147,1.78,2.337,2.337,0,0,0,.618.913A5.3,5.3,0,0,0,5.35,20.3a1.764,1.764,0,0,1,1.018,2.2L6.034,23.5a5.226,5.226,0,0,0-.359,1.387,2.336,2.336,0,0,0,.279,1.181,5.223,5.223,0,0,0,.941,1.08,5.229,5.229,0,0,0,1.08.941,2.336,2.336,0,0,0,1.181.279,5.23,5.23,0,0,0,1.387-.359l.821-.274a1.971,1.971,0,0,1,2.453,1.138,5.31,5.31,0,0,0,.61,1.274,2.338,2.338,0,0,0,1.185.8,5.314,5.314,0,0,0,1.409.093,5.314,5.314,0,0,0,1.409-.093,2.338,2.338,0,0,0,1.185-.8,5.311,5.311,0,0,0,.61-1.274,1.97,1.97,0,0,1,2.453-1.137l.82.274a5.231,5.231,0,0,0,1.387.359,2.337,2.337,0,0,0,1.181-.279,5.228,5.228,0,0,0,1.08-.941,5.228,5.228,0,0,0,.941-1.08,2.337,2.337,0,0,0,.279-1.181,5.231,5.231,0,0,0-.359-1.387l-.335-1a1.765,1.765,0,0,1,1.019-2.2,5.3,5.3,0,0,0,1.585-.793,2.338,2.338,0,0,0,.618-.913,5.362,5.362,0,0,0,.147-1.78,5.218,5.218,0,0,0-.111-1.516,2.338,2.338,0,0,0-.471-.832,5.16,5.16,0,0,0-1.233-.869l-.433-.26a2.255,2.255,0,0,1-.933-2.771,5.288,5.288,0,0,0,.427-1.309,2.337,2.337,0,0,0-.283-1.377A5.285,5.285,0,0,0,27.1,6.844a5.236,5.236,0,0,0-.974-.86,2.337,2.337,0,0,0-1.3-.307,5.232,5.232,0,0,0-1.255.333l-.889.3A1.97,1.97,0,0,1,20.226,5.17a5.308,5.308,0,0,0-.61-1.274A2.337,2.337,0,0,0,18.431,3.094Z" fill="none" stroke="#000" stroke-linecap="round" stroke-linejoin="round" stroke-width="3"/>
    </g>
  </g>
</svg>
