<svg xmlns="http://www.w3.org/2000/svg" xmlns:xlink="http://www.w3.org/1999/xlink" width="35" height="35" viewBox="0 0 35 35">
  <defs>
    <clipPath id="clip-path">
      <rect id="Rectangle_3670" data-name="Rectangle 3670" width="35" height="35" transform="translate(820 5428)" fill="none" stroke="#707070" stroke-width="1"/>
    </clipPath>
  </defs>
  <g id="Mask_Group_8022" data-name="Mask Group 8022" transform="translate(-820 -5428)" clip-path="url(#clip-path)">
    <path id="api-svgrepo-com_3_" data-name="api-svgrepo-com (3)" d="M.5,4.7A4.2,4.2,0,1,1,8.488,6.51L11,9.018l.53-.53a4.2,4.2,0,0,1,5.939,0l.53.53L20.505,6.51a4.2,4.2,0,1,1,1.978,1.978L19.977,11l.53.53a4.2,4.2,0,0,1,0,5.939l-.53.53,2.508,2.508a4.2,4.2,0,1,1-1.978,1.978L18,19.977l-.53.53a4.2,4.2,0,0,1-5.939,0l-.53-.53L8.49,22.486a4.2,4.2,0,1,1-1.978-1.978L9.018,18l-.53-.53a4.2,4.2,0,0,1,0-5.939l.53-.53L6.51,8.49A4.2,4.2,0,0,1,.5,4.7ZM4.7,3.3A1.4,1.4,0,1,0,6.1,4.7,1.4,1.4,0,0,0,4.7,3.3Zm0,19.6a1.4,1.4,0,1,0,1.4,1.4A1.4,1.4,0,0,0,4.7,22.9Zm18.2,1.4a1.4,1.4,0,1,1,1.4,1.4,1.4,1.4,0,0,1-1.4-1.4Zm1.4-21a1.4,1.4,0,1,0,1.4,1.4,1.4,1.4,0,0,0-1.4-1.4ZM13.508,10.468a1.4,1.4,0,0,1,1.978,0l3.042,3.04a1.4,1.4,0,0,1,0,1.978l-3.042,3.042a1.4,1.4,0,0,1-1.978,0l-3.042-3.042a1.4,1.4,0,0,1,0-1.978l3.042-3.042Z" transform="translate(823.003 5431.002)" fill-rule="evenodd"/>
  </g>
</svg>
