<svg xmlns="http://www.w3.org/2000/svg" xmlns:xlink="http://www.w3.org/1999/xlink" width="35" height="35" viewBox="0 0 35 35">
  <defs>
    <clipPath id="clip-path">
      <rect id="Rectangle_3670" data-name="Rectangle 3670" width="35" height="35" transform="translate(820 5428)" fill="none" stroke="#707070" stroke-width="1"/>
    </clipPath>
  </defs>
  <g id="Mask_Group_8022" data-name="Mask Group 8022" transform="translate(-820 -5428)" clip-path="url(#clip-path)">
    <g id="cycle-svgrepo-com" transform="translate(823 5431)">
      <rect id="Rectangle_3849" data-name="Rectangle 3849" width="30" height="30" fill="rgba(255,255,255,0.01)"/>
      <path id="Path_9276" data-name="Path 9276" d="M10.689,35H7v3.689" transform="translate(-2.697 -13.483)" fill="none" stroke="#000" stroke-linecap="round" stroke-linejoin="round" stroke-width="2.5"/>
      <path id="Path_9277" data-name="Path 9277" d="M38.689,38.689H35V35" transform="translate(-13.483 -13.483)" fill="none" stroke="#000" stroke-linecap="round" stroke-linejoin="round" stroke-width="2.5"/>
      <path id="Path_9278" data-name="Path 9278" d="M35,10.689h3.689V7" transform="translate(-13.483 -2.697)" fill="none" stroke="#000" stroke-linecap="round" stroke-linejoin="round" stroke-width="2.5"/>
      <path id="Path_9279" data-name="Path 9279" d="M7,7h3.689v3.689" transform="translate(-2.697 -2.697)" fill="none" stroke="#000" stroke-linecap="round" stroke-linejoin="round" stroke-width="2.5"/>
      <path id="Path_9280" data-name="Path 9280" d="M9.533,7.294a12.317,12.317,0,0,0-5.4,12.115" transform="translate(-1.541 -2.81)" fill="none" stroke="#000" stroke-linecap="round" stroke-linejoin="round" stroke-width="2.5"/>
      <path id="Path_9281" data-name="Path 9281" d="M19.409,40.4A12.317,12.317,0,0,1,7.294,35" transform="translate(-2.81 -13.483)" fill="none" stroke="#000" stroke-linecap="round" stroke-linejoin="round" stroke-width="2.5"/>
      <path id="Path_9282" data-name="Path 9282" d="M40.4,21A12.317,12.317,0,0,1,35,33.115" transform="translate(-13.483 -8.09)" fill="none" stroke="#000" stroke-linecap="round" stroke-linejoin="round" stroke-width="2.5"/>
      <path id="Path_9283" data-name="Path 9283" d="M21,4.137a12.317,12.317,0,0,1,12.115,5.4" transform="translate(-8.09 -1.541)" fill="none" stroke="#000" stroke-linecap="round" stroke-linejoin="round" stroke-width="2.5"/>
    </g>
  </g>
</svg>
