<svg id="banner-main5" xmlns="http://www.w3.org/2000/svg" xmlns:xlink="http://www.w3.org/1999/xlink" width="45" height="45" viewBox="0 0 45 45">
  <defs>
    <linearGradient id="linear-gradient" x1="0.5" x2="0.156" y2="0.791" gradientUnits="objectBoundingBox">
      <stop offset="0" stop-color="#3e3e3e"/>
      <stop offset="1" stop-color="#1a1a1a"/>
    </linearGradient>
  </defs>
  <circle id="Ellipse_1" data-name="Ellipse 1" cx="22.5" cy="22.5" r="22.5" fill="url(#linear-gradient)"/>
  <g id="tax-accountant-fee-svgrepo-com" transform="translate(10 -131.364)">
    <path id="Path_9247" data-name="Path 9247" d="M13.63,156.55v5.271a.852.852,0,0,1-.852.852H1.988a.852.852,0,0,1-.852-.852V145.352a.852.852,0,0,1,.852-.852h10.79a.852.852,0,0,1,.852.852v6.7a.568.568,0,0,0,1.136,0v-6.7a1.988,1.988,0,0,0-1.988-1.988H1.988A1.988,1.988,0,0,0,0,145.352v16.469a1.988,1.988,0,0,0,1.988,1.988h10.79a1.988,1.988,0,0,0,1.988-1.988V156.55a.568.568,0,0,0-1.136,0Z" fill="#fff"/>
    <path id="Path_9248" data-name="Path 9248" d="M90.723,228.118a.284.284,0,0,0,.284-.284V226.7a.284.284,0,0,0-.284-.284H83.34a.284.284,0,0,0-.284.284v1.136a.284.284,0,0,0,.284.284Zm0,1.136H83.34a1.42,1.42,0,0,1-1.42-1.42V226.7a1.42,1.42,0,0,1,1.42-1.42h7.383a1.42,1.42,0,0,1,1.42,1.42v1.136A1.42,1.42,0,0,1,90.723,229.253Zm-6.009,2.734a1.137,1.137,0,1,1-.892-.892A1.138,1.138,0,0,1,84.713,231.987Zm3.407,0a1.137,1.137,0,1,1-.892-.892A1.138,1.138,0,0,1,88.121,231.987Zm-3.407,3.436a1.137,1.137,0,1,1-.892-.892A1.138,1.138,0,0,1,84.713,235.423Zm3.407,0a1.137,1.137,0,1,1-.892-.892A1.138,1.138,0,0,1,88.121,235.423Zm3.407,0a1.137,1.137,0,1,1-.892-.892,1.138,1.138,0,0,1,.892.892Zm-6.815,3.407a1.137,1.137,0,1,1-.892-.892A1.138,1.138,0,0,1,84.713,238.831Zm3.407,0a1.137,1.137,0,1,1-.892-.892A1.138,1.138,0,0,1,88.121,238.831Zm3.407,0a1.137,1.137,0,1,1-.892-.892,1.138,1.138,0,0,1,.892.892ZM96.5,237.8l-5.537-5.537a.692.692,0,0,1,0-.978l.133-.133a.691.691,0,0,1,.978,0l5.537,5.537a.568.568,0,1,0,.8-.8l-5.537-5.537a1.827,1.827,0,0,0-2.585,0l-.133.133a1.828,1.828,0,0,0,0,2.585l5.537,5.537a.568.568,0,0,0,.8-.8Z" transform="translate(-79.648 -79.643)" fill="#fff"/>
    <path id="Path_9249" data-name="Path 9249" d="M529.766,421.785l-2.9-2.9a.691.691,0,0,1,0-.978l.134-.134a.692.692,0,0,1,.978,0l2.9,2.9a.568.568,0,0,0,.8-.8l-2.9-2.9a1.828,1.828,0,0,0-2.584,0l-.134.134a1.827,1.827,0,0,0,0,2.584l2.9,2.9a.568.568,0,0,0,.8-.8Z" transform="translate(-510.955 -265.499)" fill="#fff"/>
    <path id="Path_9250" data-name="Path 9250" d="M618.09,372l-2.9-2.9a.691.691,0,0,1,0-.978l.134-.134a.692.692,0,0,1,.978,0l2.9,2.9a.568.568,0,0,0,.8-.8l-2.9-2.9a1.828,1.828,0,0,0-2.584,0l-.134.134a1.827,1.827,0,0,0,0,2.584l2.9,2.9a.568.568,0,0,0,.8-.8Z" transform="translate(-596.83 -217.097)" fill="#fff"/>
    <path id="Path_9251" data-name="Path 9251" d="M571.762,322.646l-2.9-2.9a.691.691,0,0,1,0-.978l.134-.134a.692.692,0,0,1,.978,0l2.9,2.9a.568.568,0,1,0,.8-.8l-2.9-2.9a1.828,1.828,0,0,0-2.584,0l-.134.134a1.827,1.827,0,0,0,0,2.584l2.9,2.9a.568.568,0,1,0,.8-.8Zm-4.69,6.782-2.579-2.579-.8.8,2.579,2.579Z" transform="translate(-548.059 -169.11)" fill="#fff"/>
    <path id="Path_9252" data-name="Path 9252" d="M818.516,365.594l3.315,3.315.8-.8-3.315-3.315Z" transform="translate(-795.818 -215.287)" fill="#fff"/>
    <path id="Path_9253" data-name="Path 9253" d="M663.238,477.992a4.842,4.842,0,1,1-6.838,6.858l-.8.8a5.978,5.978,0,1,0,8.443-8.466Z" transform="translate(-637.417 -324.566)" fill="#fff"/>
  </g>
</svg>
