<svg xmlns="http://www.w3.org/2000/svg" width="60" height="60" viewBox="0 0 60 60">
  <g id="Group_122" data-name="Group 122" transform="translate(-1018 -461)">
    <circle id="Ellipse_14" data-name="Ellipse 14" cx="30" cy="30" r="30" transform="translate(1018 461)" fill="#fff2e8"/>
    <g id="calculator-calculation-svgrepo-com" transform="translate(959 473)">
      <g id="Group_75" data-name="Group 75" transform="translate(76)">
        <g id="Group_74" data-name="Group 74">
          <path id="Path_9341" data-name="Path 9341" d="M76,0V36.059h25.354V0Zm24.227,34.933h-23.1V11.843h23.1Zm0-24.194h-23.1V1.127h23.1Z" transform="translate(-76)" fill="#f48120"/>
        </g>
      </g>
      <g id="Group_77" data-name="Group 77" transform="translate(88.935 2.269)">
        <g id="Group_76" data-name="Group 76">
          <rect id="Rectangle_2718" data-name="Rectangle 2718" width="1.178" height="1.105" fill="#f48120"/>
        </g>
      </g>
      <g id="Group_79" data-name="Group 79" transform="translate(90.629 2.269)">
        <g id="Group_78" data-name="Group 78">
          <rect id="Rectangle_2719" data-name="Rectangle 2719" width="1.694" height="1.105" fill="#f48120"/>
        </g>
      </g>
      <g id="Group_81" data-name="Group 81" transform="translate(92.912 2.269)">
        <g id="Group_80" data-name="Group 80">
          <rect id="Rectangle_2720" data-name="Rectangle 2720" width="1.694" height="1.105" fill="#f48120"/>
        </g>
      </g>
      <g id="Group_83" data-name="Group 83" transform="translate(95.121 2.269)">
        <g id="Group_82" data-name="Group 82">
          <rect id="Rectangle_2721" data-name="Rectangle 2721" width="2.872" height="1.105" fill="#f48120"/>
        </g>
      </g>
      <g id="Group_85" data-name="Group 85" transform="translate(79.361 5.068)">
        <g id="Group_84" data-name="Group 84">
          <rect id="Rectangle_2722" data-name="Rectangle 2722" width="1.105" height="4.492" fill="#f48120"/>
        </g>
      </g>
      <g id="Group_87" data-name="Group 87" transform="translate(87.315 5.068)">
        <g id="Group_86" data-name="Group 86">
          <rect id="Rectangle_2723" data-name="Rectangle 2723" width="1.105" height="4.492" fill="#f48120"/>
        </g>
      </g>
      <g id="Group_89" data-name="Group 89" transform="translate(82.233 6.172)">
        <g id="Group_88" data-name="Group 88">
          <path id="Path_9342" data-name="Path 9342" d="M166.709,88.819V87.641h-1.1v1.178h-1.1v1.1h1.1v1.1h1.1v-1.1h1.1v-1.1Z" transform="translate(-164.5 -87.641)" fill="#f48120"/>
        </g>
      </g>
      <g id="Group_91" data-name="Group 91" transform="translate(77.69 12.395)">
        <g id="Group_90" data-name="Group 90">
          <path id="Path_9343" data-name="Path 9343" d="M100,181.071h5.071V176H100Zm1.127-3.944h2.817v2.817h-2.817Z" transform="translate(-99.999 -176)" fill="#f48120"/>
        </g>
      </g>
      <g id="Group_93" data-name="Group 93" transform="translate(83.324 12.395)">
        <g id="Group_92" data-name="Group 92">
          <path id="Path_9344" data-name="Path 9344" d="M180,176v5.071h5.071V176Zm3.944,3.944h-2.817v-2.817h2.817Z" transform="translate(-179.999 -175.999)" fill="#f48120"/>
        </g>
      </g>
      <g id="Group_95" data-name="Group 95" transform="translate(88.959 12.395)">
        <g id="Group_94" data-name="Group 94">
          <path id="Path_9345" data-name="Path 9345" d="M260,176v5.071h5.071V176Zm3.944,3.944h-2.817v-2.817h2.817Z" transform="translate(-259.999 -175.999)" fill="#f48120"/>
        </g>
      </g>
      <g id="Group_97" data-name="Group 97" transform="translate(94.593 12.395)">
        <g id="Group_96" data-name="Group 96">
          <path id="Path_9346" data-name="Path 9346" d="M340,176v5.071h5.071V176Zm3.944,3.944h-2.817v-2.817h2.817Z" transform="translate(-340 -175.999)" fill="#f48120"/>
        </g>
      </g>
      <g id="Group_99" data-name="Group 99" transform="translate(77.69 18.03)">
        <g id="Group_98" data-name="Group 98">
          <path id="Path_9347" data-name="Path 9347" d="M100,261.072h5.071V256H100Zm1.127-3.944h2.817v2.817h-2.817Z" transform="translate(-99.999 -256.001)" fill="#f48120"/>
        </g>
      </g>
      <g id="Group_101" data-name="Group 101" transform="translate(83.324 18.03)">
        <g id="Group_100" data-name="Group 100">
          <path id="Path_9348" data-name="Path 9348" d="M180,256v5.071h5.071V256Zm3.944,3.944h-2.817v-2.817h2.817Z" transform="translate(-179.999 -256.001)" fill="#f48120"/>
        </g>
      </g>
      <g id="Group_103" data-name="Group 103" transform="translate(88.959 18.03)">
        <g id="Group_102" data-name="Group 102">
          <path id="Path_9349" data-name="Path 9349" d="M260,256v5.071h5.071V256Zm3.944,3.944h-2.817v-2.817h2.817Z" transform="translate(-259.999 -256.001)" fill="#f48120"/>
        </g>
      </g>
      <g id="Group_105" data-name="Group 105" transform="translate(94.593 18.03)">
        <g id="Group_104" data-name="Group 104">
          <path id="Path_9350" data-name="Path 9350" d="M340,256v5.071h5.071V256Zm3.944,3.944h-2.817v-2.817h2.817Z" transform="translate(-340 -256.001)" fill="#f48120"/>
        </g>
      </g>
      <g id="Group_107" data-name="Group 107" transform="translate(77.69 23.664)">
        <g id="Group_106" data-name="Group 106">
          <path id="Path_9351" data-name="Path 9351" d="M100,341.072h5.071V336H100Zm1.127-3.944h2.817v2.817h-2.817Z" transform="translate(-99.999 -336.001)" fill="#f48120"/>
        </g>
      </g>
      <g id="Group_109" data-name="Group 109" transform="translate(83.324 23.664)">
        <g id="Group_108" data-name="Group 108">
          <path id="Path_9352" data-name="Path 9352" d="M180,336v5.071h5.071V336Zm3.944,3.944h-2.817v-2.817h2.817Z" transform="translate(-179.999 -336.001)" fill="#f48120"/>
        </g>
      </g>
      <g id="Group_111" data-name="Group 111" transform="translate(88.959 23.664)">
        <g id="Group_110" data-name="Group 110">
          <path id="Path_9353" data-name="Path 9353" d="M260,336v5.071h5.071V336Zm3.944,3.944h-2.817v-2.817h2.817Z" transform="translate(-259.999 -336.001)" fill="#f48120"/>
        </g>
      </g>
      <g id="Group_113" data-name="Group 113" transform="translate(94.593 23.664)">
        <g id="Group_112" data-name="Group 112">
          <path id="Path_9354" data-name="Path 9354" d="M340,336v5.071h5.071V336Zm3.944,3.944h-2.817v-2.817h2.817Z" transform="translate(-340 -336.001)" fill="#f48120"/>
        </g>
      </g>
      <g id="Group_115" data-name="Group 115" transform="translate(77.69 29.298)">
        <g id="Group_114" data-name="Group 114">
          <path id="Path_9355" data-name="Path 9355" d="M100,421.071h5.071V416H100Zm1.127-3.944h2.817v2.817h-2.817Z" transform="translate(-99.999 -416)" fill="#f48120"/>
        </g>
      </g>
      <g id="Group_117" data-name="Group 117" transform="translate(83.324 29.298)">
        <g id="Group_116" data-name="Group 116">
          <path id="Path_9356" data-name="Path 9356" d="M180,416v5.071h5.071V416Zm3.944,3.944h-2.817v-2.817h2.817Z" transform="translate(-179.999 -416)" fill="#f48120"/>
        </g>
      </g>
      <g id="Group_119" data-name="Group 119" transform="translate(88.959 29.298)">
        <g id="Group_118" data-name="Group 118">
          <path id="Path_9357" data-name="Path 9357" d="M260,416v5.071h5.071V416Zm3.944,3.944h-2.817v-2.817h2.817Z" transform="translate(-259.999 -416)" fill="#f48120"/>
        </g>
      </g>
      <g id="Group_121" data-name="Group 121" transform="translate(94.593 29.298)">
        <g id="Group_120" data-name="Group 120">
          <path id="Path_9358" data-name="Path 9358" d="M340,416v5.071h5.071V416Zm3.944,3.944h-2.817v-2.817h2.817Z" transform="translate(-340 -416)" fill="#f48120"/>
        </g>
      </g>
    </g>
  </g>
</svg>
