<svg xmlns="http://www.w3.org/2000/svg" width="60" height="60" viewBox="0 0 60 60">
  <g id="Group_523" data-name="Group 523" transform="translate(-652 -4270)">
    <circle id="Ellipse_14" data-name="Ellipse 14" cx="30" cy="30" r="30" transform="translate(652 4270)" fill="#fff2e8"/>
    <g id="tax-accountant-fee-svgrepo-com_1_" data-name="tax-accountant-fee-svgrepo-com (1)" transform="translate(665 4142.866)">
      <path id="Path_9266" data-name="Path 9266" d="M19.207,161.946v7.428a1.2,1.2,0,0,1-1.2,1.2H2.8a1.2,1.2,0,0,1-1.2-1.2V146.165a1.2,1.2,0,0,1,1.2-1.2H18.007a1.2,1.2,0,0,1,1.2,1.2v9.444a.8.8,0,1,0,1.6,0v-9.444a2.8,2.8,0,0,0-2.8-2.8H2.8a2.8,2.8,0,0,0-2.8,2.8v23.208a2.8,2.8,0,0,0,2.8,2.8H18.007a2.8,2.8,0,0,0,2.8-2.8v-7.428a.8.8,0,0,0-1.6,0Z" fill="#f48120"/>
      <path id="Path_9267" data-name="Path 9267" d="M94.325,229.28a.4.4,0,0,0,.4-.4v-1.6a.4.4,0,0,0-.4-.4h-10.4a.4.4,0,0,0-.4.4v1.6a.4.4,0,0,0,.4.4Zm0,1.6h-10.4a2,2,0,0,1-2-2v-1.6a2,2,0,0,1,2-2h10.4a2,2,0,0,1,2,2v1.6A2,2,0,0,1,94.325,230.88Zm-8.468,3.853a1.6,1.6,0,1,1-1.258-1.258A1.6,1.6,0,0,1,85.856,234.733Zm4.8,0a1.6,1.6,0,1,1-1.258-1.258A1.6,1.6,0,0,1,90.658,234.733Zm-4.8,4.842a1.6,1.6,0,1,1-1.258-1.258A1.6,1.6,0,0,1,85.856,239.575Zm4.8,0a1.6,1.6,0,1,1-1.258-1.258A1.6,1.6,0,0,1,90.658,239.575Zm4.8,0a1.6,1.6,0,1,1-1.258-1.258A1.6,1.6,0,0,1,95.46,239.575Zm-9.6,4.8a1.6,1.6,0,1,1-1.258-1.258A1.6,1.6,0,0,1,85.856,244.376Zm4.8,0a1.6,1.6,0,1,1-1.258-1.258A1.6,1.6,0,0,1,90.658,244.376Zm4.8,0a1.6,1.6,0,1,1-1.258-1.258A1.6,1.6,0,0,1,95.46,244.376Zm7.013-1.447-7.8-7.8a.975.975,0,0,1,0-1.378l.188-.187a.974.974,0,0,1,1.379,0l7.8,7.8a.8.8,0,1,0,1.132-1.132l-7.8-7.8a2.575,2.575,0,0,0-3.642,0l-.188.187a2.576,2.576,0,0,0,0,3.643l7.8,7.8a.8.8,0,0,0,1.132-1.132Z" transform="translate(-78.719 -78.713)" fill="#f48120"/>
      <path id="Path_9268" data-name="Path 9268" d="M531.5,423.973l-4.085-4.085a.974.974,0,0,1,0-1.378l.189-.189a.975.975,0,0,1,1.378,0l4.086,4.085a.8.8,0,1,0,1.132-1.132l-4.086-4.085a2.575,2.575,0,0,0-3.642,0l-.189.189a2.575,2.575,0,0,0,0,3.641l4.085,4.085a.8.8,0,0,0,1.132-1.132Z" transform="translate(-504.992 -262.401)" fill="#f48120"/>
      <path id="Path_9269" data-name="Path 9269" d="M619.824,374.19l-4.085-4.085a.974.974,0,0,1,0-1.378l.189-.189a.975.975,0,0,1,1.378,0l4.086,4.085a.8.8,0,1,0,1.132-1.132l-4.086-4.085a2.575,2.575,0,0,0-3.642,0l-.189.189a2.574,2.574,0,0,0,0,3.641l4.085,4.085a.8.8,0,1,0,1.132-1.132Z" transform="translate(-589.865 -214.563)" fill="#f48120"/>
      <path id="Path_9270" data-name="Path 9270" d="M575.065,324.835l-4.085-4.085a.974.974,0,0,1,0-1.378l.189-.189a.975.975,0,0,1,1.378,0l4.086,4.085a.8.8,0,1,0,1.132-1.132l-4.086-4.085a2.575,2.575,0,0,0-3.642,0l-.189.189a2.574,2.574,0,0,0,0,3.641l4.085,4.085a.8.8,0,1,0,1.132-1.132Zm-6.609,9.557-3.634-3.634-1.132,1.132,3.634,3.634Z" transform="translate(-541.663 -167.137)" fill="#f48120"/>
      <path id="Path_9271" data-name="Path 9271" d="M818.516,365.923l4.672,4.672,1.132-1.132-4.672-4.672Z" transform="translate(-786.531 -212.774)" fill="#f48120"/>
      <path id="Path_9272" data-name="Path 9272" d="M666.365,478.322a6.824,6.824,0,1,1-9.637,9.664l-1.132,1.132a8.424,8.424,0,1,0,11.9-11.931l-1.129,1.135Z" transform="translate(-629.978 -320.778)" fill="#f48120"/>
    </g>
  </g>
</svg>
