<svg width="45" height="45" viewBox="0 0 45 45" fill="none" xmlns="http://www.w3.org/2000/svg">
<g clip-path="url(#clip0_1_2)">
<path d="M45 22.5C45 10.0736 34.9264 0 22.5 0C10.0736 0 0 10.0736 0 22.5C0 34.9264 10.0736 45 22.5 45C34.9264 45 45 34.9264 45 22.5Z" fill="url(#paint0_linear_1_2)"/>
<path d="M22 20.5938C22.5872 20.5938 23.1611 20.4196 23.6493 20.0934C24.1376 19.7672 24.5181 19.3036 24.7428 18.7611C24.9675 18.2186 25.0263 17.6217 24.9117 17.0458C24.7972 16.4699 24.5144 15.941 24.0992 15.5258C23.684 15.1106 23.1551 14.8278 22.5792 14.7133C22.0033 14.5987 21.4064 14.6575 20.8639 14.8822C20.3214 15.1069 19.8578 15.4874 19.5316 15.9757C19.2054 16.4639 19.0313 17.0378 19.0312 17.625C19.0322 18.4121 19.3453 19.1666 19.9018 19.7232C20.4584 20.2797 21.2129 20.5928 22 20.5938ZM22 15.8438C22.3523 15.8438 22.6967 15.9482 22.9896 16.1439C23.2825 16.3397 23.5108 16.6179 23.6457 16.9433C23.7805 17.2688 23.8158 17.627 23.747 17.9725C23.6783 18.318 23.5086 18.6354 23.2595 18.8845C23.0104 19.1336 22.693 19.3033 22.3475 19.372C22.002 19.4408 21.6438 19.4055 21.3183 19.2707C20.9929 19.1358 20.7147 18.9075 20.5189 18.6146C20.3232 18.3217 20.2188 17.9773 20.2188 17.625C20.2188 17.1526 20.4064 16.6995 20.7405 16.3655C21.0745 16.0314 21.5276 15.8438 22 15.8438Z" fill="white"/>
<path d="M16.7845 15.7149C16.7477 15.8224 16.7132 15.9328 16.6812 16.048L15.8612 16.4096C15.7659 16.4517 15.6834 16.5182 15.6219 16.6023C15.5604 16.6864 15.5221 16.7852 15.5109 16.8888C15.4547 17.378 15.4547 17.872 15.5109 18.3613C15.5221 18.4648 15.5604 18.5636 15.6219 18.6477C15.6834 18.7319 15.7659 18.7983 15.8612 18.8404L16.6812 19.202C16.7132 19.3168 16.7477 19.4276 16.7845 19.5345L16.3285 20.3218C16.2769 20.4109 16.2493 20.5118 16.2484 20.6148C16.2476 20.7177 16.2736 20.8191 16.3237 20.909C16.5637 21.3375 16.8502 21.7381 17.1782 22.1037C17.2489 22.1827 17.3395 22.2414 17.4406 22.2735C17.5417 22.3057 17.6495 22.3102 17.7529 22.2865L18.615 22.0888C18.7001 22.1553 18.7872 22.2196 18.8763 22.2818L18.96 23.1962C18.9694 23.2999 19.006 23.3994 19.066 23.4845C19.1261 23.5697 19.2074 23.6375 19.302 23.6813C19.742 23.887 20.2039 24.0421 20.6789 24.1438C20.7827 24.1655 20.8905 24.159 20.9909 24.1249C21.0914 24.0909 21.1809 24.0306 21.2501 23.9502L21.8397 23.2656C21.946 23.2704 22.054 23.2704 22.1603 23.2656L22.7499 23.9496C22.8056 24.0144 22.8745 24.0663 22.9521 24.102C23.0297 24.1376 23.114 24.1561 23.1994 24.1563C23.2393 24.156 23.279 24.1518 23.3181 24.1438C23.7931 24.0421 24.255 23.8869 24.695 23.6813C24.7894 23.6375 24.8706 23.5697 24.9305 23.4846C24.9904 23.3996 25.027 23.3003 25.0364 23.1968L25.1202 22.2818C25.21 22.2192 25.2973 22.1549 25.382 22.0888L26.2441 22.2865C26.3475 22.3102 26.4554 22.3057 26.5564 22.2735C26.6575 22.2414 26.7481 22.1827 26.8189 22.1037C27.1469 21.7384 27.4334 21.338 27.6733 20.9096C27.7235 20.8197 27.7494 20.7183 27.7486 20.6154C27.7478 20.5124 27.7202 20.4115 27.6685 20.3224L27.2125 19.5351C27.2493 19.4276 27.2838 19.3172 27.3158 19.202L28.1358 18.8404C28.2311 18.7983 28.3136 18.7319 28.3751 18.6477C28.4366 18.5636 28.4749 18.4648 28.4861 18.3613C28.5423 17.872 28.5423 17.378 28.4861 16.8888C28.4749 16.7852 28.4366 16.6864 28.3751 16.6023C28.3136 16.5182 28.2311 16.4517 28.1358 16.4096L27.3158 16.048C27.2838 15.9332 27.2493 15.8224 27.2125 15.7155L27.6685 14.9282C27.7202 14.8391 27.7478 14.7382 27.7486 14.6352C27.7494 14.5323 27.7235 14.4309 27.6733 14.341C27.4333 13.9125 27.1468 13.5119 26.8189 13.1463C26.7481 13.0673 26.6575 13.0087 26.5564 12.9765C26.4554 12.9443 26.3475 12.9398 26.2441 12.9635L25.5625 13.1202V9.3125C25.5621 8.67513 25.3908 8.04953 25.0663 7.50094C24.7418 6.95235 24.2761 6.50085 23.7177 6.19353C24.0389 5.85718 24.2542 5.43394 24.337 4.97631C24.4199 4.51868 24.3665 4.04681 24.1836 3.61924C24.0006 3.19166 23.6962 2.8272 23.3081 2.57106C22.9199 2.31493 22.4651 2.17839 22 2.17839C21.5349 2.17839 21.0801 2.31493 20.6919 2.57106C20.3038 2.8272 19.9993 3.19166 19.8164 3.61924C19.6335 4.04681 19.5801 4.51868 19.663 4.97631C19.7458 5.43394 19.9611 5.85718 20.2823 6.19353C19.7239 6.50085 19.2582 6.95235 18.9337 7.50094C18.6092 8.04953 18.4379 8.67513 18.4375 9.3125V13.1202L17.7529 12.9635C17.6495 12.9398 17.5417 12.9443 17.4406 12.9765C17.3395 13.0087 17.2489 13.0673 17.1782 13.1463C16.8502 13.5116 16.5636 13.912 16.3237 14.3404C16.2736 14.4303 16.2476 14.5317 16.2484 14.6346C16.2493 14.7376 16.2769 14.8385 16.3285 14.9276L16.7845 15.7149ZM20.8125 4.5625C20.8125 4.32764 20.8821 4.09805 21.0126 3.90276C21.1431 3.70748 21.3286 3.55527 21.5456 3.46539C21.7625 3.37552 22.0013 3.352 22.2317 3.39782C22.462 3.44364 22.6736 3.55674 22.8397 3.72281C23.0058 3.88889 23.1189 4.10048 23.1647 4.33083C23.2105 4.56118 23.187 4.79995 23.0971 5.01694C23.0072 5.23393 22.855 5.41939 22.6597 5.54987C22.4645 5.68036 22.2349 5.75 22 5.75C21.6851 5.75 21.383 5.62489 21.1603 5.40219C20.9376 5.17949 20.8125 4.87745 20.8125 4.5625ZM19.625 9.3125C19.625 8.68261 19.8752 8.07852 20.3206 7.63312C20.766 7.18772 21.3701 6.9375 22 6.9375C22.6299 6.9375 23.234 7.18772 23.6794 7.63312C24.1248 8.07852 24.375 8.68261 24.375 9.3125V11.4286C24.2942 11.3966 24.2129 11.3693 24.1316 11.3425C24.0692 11.32 24.0069 11.2968 23.9445 11.276C23.7398 11.2086 23.5317 11.1519 23.3211 11.1062C23.2173 11.0845 23.1095 11.091 23.0091 11.1251C22.9086 11.1591 22.8191 11.2194 22.7499 11.2998L22.1603 11.9844C22.1069 11.9844 22.054 11.9808 22 11.9808C21.946 11.9808 21.8931 11.9808 21.8397 11.9844L21.6432 11.7564L21.2507 11.3004C21.1987 11.2401 21.1351 11.1909 21.0637 11.1557C20.9923 11.1205 20.9145 11.1001 20.8351 11.0955C20.782 11.0925 20.7287 11.0963 20.6765 11.1068H20.6718C20.4623 11.1523 20.2554 11.2088 20.0519 11.276C19.9925 11.2956 19.9332 11.3188 19.869 11.3408C19.7871 11.3704 19.7046 11.3954 19.6226 11.428L19.625 9.3125ZM17.4281 17.0176C17.5129 16.9803 17.5878 16.9236 17.6468 16.8522C17.7057 16.7807 17.7472 16.6965 17.7677 16.6061C17.8216 16.3611 17.8963 16.1212 17.991 15.8889C18.026 15.8045 18.041 15.7132 18.0349 15.622C18.0289 15.5309 18.0018 15.4424 17.956 15.3634L17.5338 14.6349C17.6296 14.4864 17.7327 14.3422 17.8432 14.202L18.6382 14.3843C18.7301 14.4054 18.8257 14.4042 18.9171 14.381C19.0084 14.3578 19.093 14.3131 19.1637 14.2507C19.2296 14.1913 19.3103 14.145 19.381 14.0904C19.3857 14.0868 19.3911 14.0857 19.3952 14.0821L19.4546 14.0346C19.5395 13.9717 19.6179 13.9046 19.7087 13.8464C19.7242 13.8357 19.7384 13.8226 19.755 13.8125C19.8332 13.7641 19.899 13.6982 19.9473 13.62C19.9956 13.5418 20.0251 13.4534 20.0335 13.3619L20.1113 12.514C20.268 12.4517 20.4277 12.3974 20.5898 12.3513L21.1337 12.9831C21.1941 13.0546 21.2708 13.1105 21.3575 13.146C21.4441 13.1815 21.5381 13.1954 21.6313 13.1867H21.6348C21.8782 13.1659 22.123 13.1659 22.3663 13.1867H22.3693C22.4625 13.1957 22.5566 13.1819 22.6433 13.1464C22.7299 13.1109 22.8067 13.0548 22.8669 12.9831L23.4119 12.3513C23.5729 12.3976 23.7314 12.4519 23.8869 12.514L23.9647 13.3613C23.973 13.4529 24.0025 13.5414 24.0508 13.6197C24.0991 13.698 24.165 13.764 24.2432 13.8125C24.2533 13.8185 24.2616 13.8268 24.2717 13.8333C24.3697 13.8927 24.454 13.9681 24.5454 14.0358L24.6048 14.0821C24.6083 14.0821 24.6131 14.0857 24.6167 14.0886C24.6885 14.1438 24.7692 14.1919 24.8363 14.2507C24.907 14.3131 24.9916 14.3578 25.0829 14.381C25.1743 14.4042 25.2699 14.4054 25.3618 14.3843L26.1562 14.202C26.2673 14.3422 26.3712 14.487 26.4662 14.6349L26.044 15.3634C25.9983 15.4423 25.9713 15.5307 25.9652 15.6218C25.9591 15.7128 25.9741 15.804 26.009 15.8883C26.1036 16.1208 26.1782 16.361 26.2322 16.6061C26.2528 16.6965 26.2943 16.7807 26.3532 16.8522C26.4122 16.9236 26.4871 16.9803 26.5719 17.0176L27.3337 17.3537C27.339 17.4433 27.3414 17.5318 27.3414 17.625C27.3414 17.7182 27.3414 17.8067 27.3337 17.8963L26.5719 18.2324C26.4871 18.2697 26.4122 18.3264 26.3532 18.3978C26.2943 18.4693 26.2528 18.5536 26.2322 18.6439C26.1784 18.8889 26.1037 19.1288 26.009 19.3611C25.974 19.4455 25.959 19.5368 25.9651 19.628C25.9711 19.7191 25.9982 19.8076 26.044 19.8866L26.4662 20.6151C26.3704 20.7636 26.2673 20.9078 26.1568 21.048L25.3618 20.8657C25.2699 20.8446 25.1743 20.8458 25.0829 20.869C24.9916 20.8922 24.907 20.9369 24.8363 20.9993C24.6511 21.1619 24.4525 21.3087 24.2426 21.4381C24.1645 21.4865 24.0986 21.5524 24.0503 21.6306C24.002 21.7088 23.9725 21.7972 23.9641 21.8887L23.8863 22.736C23.7296 22.7982 23.5699 22.8525 23.4078 22.8987L22.8633 22.2669C22.8021 22.196 22.7249 22.1405 22.6381 22.1052C22.5513 22.0698 22.4574 22.0554 22.364 22.0633C22.1198 22.0835 21.8743 22.0835 21.6301 22.0633C21.5367 22.0554 21.4428 22.0698 21.356 22.1052C21.2692 22.1405 21.192 22.196 21.1307 22.2669L20.5863 22.8987C20.4241 22.8526 20.2644 22.7983 20.1077 22.736L20.0305 21.8887C20.0221 21.797 19.9925 21.7084 19.9439 21.6301C19.8954 21.5518 19.8293 21.4858 19.7509 21.4375C19.5409 21.3085 19.3423 21.1619 19.1571 20.9993C19.0864 20.9369 19.0019 20.8922 18.9105 20.869C18.8192 20.8458 18.7236 20.8446 18.6317 20.8657L17.8437 21.048C17.7327 20.9078 17.6288 20.763 17.5338 20.6151L17.956 19.8866C18.0017 19.8077 18.0287 19.7193 18.0348 19.6282C18.0409 19.5372 18.0259 19.446 17.991 19.3617C17.8964 19.1292 17.8217 18.889 17.7677 18.6439C17.7472 18.5536 17.7057 18.4693 17.6468 18.3978C17.5878 18.3264 17.5129 18.2697 17.4281 18.2324L16.6663 17.8963C16.6562 17.8067 16.6562 17.7158 16.6562 17.625C16.6562 17.5342 16.6562 17.4433 16.664 17.3537L17.4281 17.0176Z" fill="white"/>
<path d="M33.2813 28.3125C32.6941 28.3125 32.1201 28.4866 31.6319 28.8128C31.1437 29.139 30.7632 29.6027 30.5385 30.1452C30.3138 30.6876 30.255 31.2845 30.3695 31.8604C30.4841 32.4363 30.7668 32.9653 31.182 33.3805C31.5972 33.7957 32.1262 34.0784 32.7021 34.193C33.278 34.3075 33.8749 34.2487 34.4173 34.024C34.9598 33.7993 35.4235 33.4188 35.7497 32.9306C36.0759 32.4424 36.25 31.8684 36.25 31.2812C36.2491 30.4942 35.936 29.7396 35.3794 29.1831C34.8229 28.6265 34.0683 28.3134 33.2813 28.3125ZM33.2813 33.0625C32.929 33.0625 32.5846 32.958 32.2916 32.7623C31.9987 32.5666 31.7704 32.2884 31.6356 31.9629C31.5008 31.6374 31.4655 31.2793 31.5342 30.9337C31.603 30.5882 31.7726 30.2708 32.0217 30.0217C32.2708 29.7726 32.5882 29.603 32.9337 29.5342C33.2793 29.4655 33.6374 29.5008 33.9629 29.6356C34.2884 29.7704 34.5666 29.9987 34.7623 30.2916C34.958 30.5846 35.0625 30.929 35.0625 31.2812C35.0625 31.7537 34.8748 32.2067 34.5408 32.5408C34.2067 32.8748 33.7537 33.0625 33.2813 33.0625Z" fill="white"/>
<path d="M39.42 30.0658L38.6001 29.7043C38.568 29.5899 38.5336 29.479 38.4967 29.3718L38.9527 28.5844C39.0044 28.4954 39.032 28.3944 39.0328 28.2915C39.0336 28.1885 39.0077 28.0871 38.9575 27.9972C38.7176 27.5688 38.431 27.1681 38.1031 26.8026C38.0324 26.7236 37.9417 26.6649 37.8407 26.6327C37.7396 26.6006 37.6317 26.5961 37.5283 26.6197L36.8437 26.7765V22.9688C36.8434 22.3314 36.672 21.7058 36.3475 21.1572C36.0231 20.6086 35.5574 20.1571 34.999 19.8498C35.3201 19.5134 35.5355 19.0902 35.6183 18.6326C35.7011 18.1749 35.6477 17.7031 35.4648 17.2755C35.2819 16.8479 34.9775 16.4834 34.5893 16.2273C34.2011 15.9712 33.7463 15.8346 33.2812 15.8346C32.8162 15.8346 32.3614 15.9712 31.9732 16.2273C31.585 16.4834 31.2806 16.8479 31.0977 17.2755C30.9148 17.7031 30.8614 18.1749 30.9442 18.6326C31.027 19.0902 31.2424 19.5134 31.5635 19.8498C31.0051 20.1571 30.5394 20.6086 30.215 21.1572C29.8905 21.7058 29.7191 22.3314 29.7187 22.9688V26.7765L29.0342 26.6197C28.9308 26.5961 28.8229 26.6006 28.7218 26.6327C28.6208 26.6649 28.5301 26.7236 28.4594 26.8026C28.1314 27.1678 27.8449 27.5683 27.605 27.9966C27.5548 28.0865 27.5289 28.1879 27.5297 28.2909C27.5305 28.3938 27.5581 28.4948 27.6098 28.5838L28.0657 29.3712C28.0289 29.4786 27.9945 29.5891 27.9624 29.7043L27.1425 30.0658C27.0472 30.108 26.9646 30.1744 26.9031 30.2585C26.8417 30.3426 26.8034 30.4414 26.7922 30.545C26.7359 31.0342 26.7359 31.5283 26.7922 32.0175C26.8034 32.1211 26.8417 32.2199 26.9031 32.304C26.9646 32.3881 27.0472 32.4545 27.1425 32.4967L27.9624 32.8583C27.9945 32.9726 28.0289 33.0835 28.0657 33.1908L27.6098 33.9781C27.5581 34.0671 27.5305 34.1681 27.5297 34.271C27.5289 34.374 27.5548 34.4754 27.605 34.5653C27.8449 34.9937 28.1315 35.3944 28.4594 35.7599C28.5301 35.8389 28.6208 35.8976 28.7218 35.9298C28.8229 35.9619 28.9308 35.9664 29.0342 35.9428L29.8963 35.7451C29.9814 35.8116 30.0685 35.8759 30.1575 35.938L30.2412 36.8524C30.2507 36.9562 30.2873 37.0556 30.3473 37.1408C30.4073 37.2259 30.4887 37.2938 30.5832 37.3375C31.0233 37.5432 31.4852 37.6984 31.9602 37.8C32.064 37.8217 32.1717 37.8152 32.2722 37.7812C32.3726 37.7471 32.4621 37.6868 32.5313 37.6065L33.1209 36.9219C33.2272 36.9266 33.3353 36.9266 33.4416 36.9219L34.0312 37.6059C34.0868 37.6706 34.1558 37.7226 34.2333 37.7582C34.3109 37.7939 34.3953 37.8124 34.4806 37.8125C34.5205 37.8123 34.5603 37.8081 34.5994 37.8C35.0743 37.6983 35.5362 37.5431 35.9763 37.3375C36.0706 37.2937 36.1518 37.2259 36.2118 37.1409C36.2717 37.0559 36.3082 36.9566 36.3177 36.853L36.4014 35.938C36.4913 35.8755 36.5785 35.8112 36.6632 35.7451L37.5254 35.9428C37.6288 35.9664 37.7366 35.9619 37.8377 35.9298C37.9388 35.8976 38.0294 35.8389 38.1001 35.7599C38.4281 35.3947 38.7147 34.9942 38.9545 34.5659C39.0047 34.476 39.0307 34.3746 39.0298 34.2716C39.029 34.1687 39.0014 34.0677 38.9498 33.9787L38.4938 33.1913C38.5306 33.0839 38.565 32.9734 38.5971 32.8583L39.4171 32.4967C39.5124 32.4545 39.5949 32.3881 39.6564 32.304C39.7179 32.2199 39.7562 32.1211 39.7674 32.0175C39.8236 31.5283 39.8236 31.0342 39.7674 30.545C39.7564 30.4417 39.7186 30.3431 39.6577 30.2591C39.5967 30.175 39.5148 30.1084 39.42 30.0658ZM32.0937 18.2188C32.0937 17.9839 32.1634 17.7543 32.2939 17.559C32.4244 17.3637 32.6098 17.2115 32.8268 17.1216C33.0438 17.0318 33.2826 17.0082 33.5129 17.0541C33.7433 17.0999 33.9549 17.213 34.1209 17.3791C34.287 17.5451 34.4001 17.7567 34.4459 17.9871C34.4918 18.2174 34.4682 18.4562 34.3784 18.6732C34.2885 18.8902 34.1363 19.0756 33.941 19.2061C33.7457 19.3366 33.5161 19.4063 33.2812 19.4063C32.9663 19.4063 32.6643 19.2811 32.4416 19.0584C32.2189 18.8357 32.0937 18.5337 32.0937 18.2188ZM30.9062 22.9688C30.9062 22.3389 31.1565 21.7348 31.6019 21.2894C32.0473 20.844 32.6514 20.5938 33.2812 20.5938C33.9111 20.5938 34.5152 20.844 34.9606 21.2894C35.406 21.7348 35.6562 22.3389 35.6562 22.9688V25.0849C35.5755 25.0528 35.4942 25.0255 35.4128 24.9988C35.3505 24.9762 35.2881 24.9531 35.2258 24.9323C35.0211 24.8648 34.813 24.8081 34.6023 24.7625C34.4985 24.7408 34.3908 24.7473 34.2903 24.7813C34.1899 24.8154 34.1004 24.8757 34.0312 24.956L33.4416 25.6406C33.3881 25.6406 33.3353 25.6371 33.2812 25.6371C33.2272 25.6371 33.1744 25.6371 33.1209 25.6406L32.9244 25.4126L32.5319 24.9566C32.4626 24.8763 32.373 24.816 32.2725 24.7821C32.1718 24.7484 32.0641 24.7419 31.9602 24.7631H31.9554C31.7459 24.8085 31.539 24.865 31.3355 24.9323C31.2762 24.9519 31.2168 24.975 31.1527 24.997C31.0707 25.0267 30.9882 25.0516 30.9062 25.0843V22.9688ZM38.6173 31.5526L37.8555 31.8887C37.7707 31.926 37.6958 31.9826 37.6369 32.0541C37.5779 32.1255 37.5365 32.2098 37.5159 32.3001C37.462 32.5451 37.3874 32.7851 37.2926 33.0174C37.2577 33.1018 37.2426 33.1931 37.2487 33.2842C37.2548 33.3753 37.2818 33.4639 37.3277 33.5428L37.7498 34.2714C37.654 34.4198 37.5509 34.5641 37.4405 34.7042L36.6454 34.5219C36.5535 34.5006 36.4579 34.5016 36.3665 34.5248C36.275 34.5481 36.1905 34.5929 36.12 34.6555C35.9347 34.8182 35.7361 34.965 35.5262 35.0943C35.4481 35.1427 35.3823 35.2087 35.3339 35.2869C35.2856 35.3651 35.2561 35.4534 35.2477 35.545L35.17 36.3923C35.0133 36.4544 34.8535 36.5087 34.6914 36.5549L34.1469 35.9232C34.0857 35.8522 34.0085 35.7968 33.9217 35.7614C33.8349 35.726 33.741 35.7117 33.6476 35.7195C33.4034 35.7397 33.1579 35.7397 32.9137 35.7195C32.8203 35.7117 32.7264 35.726 32.6396 35.7614C32.5528 35.7968 32.4756 35.8522 32.4144 35.9232L31.8699 36.5549C31.7077 36.5088 31.548 36.4545 31.3913 36.3923L31.3142 35.545C31.3058 35.4532 31.2761 35.3647 31.2276 35.2863C31.179 35.208 31.1129 35.1421 31.0345 35.0937C30.8245 34.9648 30.6259 34.8182 30.4407 34.6555C30.3702 34.5929 30.2857 34.5481 30.1943 34.5248C30.1028 34.5016 30.0072 34.5006 29.9153 34.5219L29.125 34.7042C29.014 34.5641 28.9101 34.4192 28.8151 34.2714L29.2372 33.5428C29.283 33.4639 29.31 33.3755 29.316 33.2845C29.3221 33.1935 29.3071 33.1023 29.2722 33.018C29.1777 32.7854 29.103 32.5453 29.049 32.3001C29.0284 32.2098 28.987 32.1255 28.928 32.0541C28.869 31.9826 28.7942 31.926 28.7094 31.8887L27.9476 31.5526C27.9375 31.4629 27.9375 31.3721 27.9375 31.2813C27.9375 31.1904 27.9375 31.0996 27.9452 31.0099L28.707 30.6738C28.7918 30.6365 28.8667 30.5799 28.9256 30.5084C28.9846 30.437 29.026 30.3527 29.0466 30.2624C29.1004 30.0174 29.1751 29.7774 29.2699 29.5451C29.3048 29.4607 29.3199 29.3694 29.3138 29.2783C29.3077 29.1872 29.2807 29.0987 29.2348 29.0197L28.8127 28.2911C28.9085 28.1427 29.0116 27.9984 29.122 27.8583L29.9171 28.0406C30.009 28.0616 30.1046 28.0605 30.1959 28.0372C30.2873 28.014 30.3718 27.9694 30.4425 27.907C30.5084 27.8476 30.5892 27.8013 30.6598 27.7467C30.6646 27.7431 30.6699 27.7419 30.6741 27.7383L30.7335 27.6908C30.8184 27.6279 30.8967 27.5608 30.9876 27.5026C31.003 27.4919 31.0173 27.4789 31.0339 27.4688C31.112 27.4203 31.1779 27.3544 31.2262 27.2762C31.2745 27.198 31.304 27.1097 31.3124 27.0181L31.3902 26.1703C31.5468 26.108 31.7066 26.0537 31.8687 26.0076L32.4126 26.6393C32.4709 26.7073 32.5441 26.761 32.6264 26.7962C32.7088 26.8314 32.7982 26.8472 32.8876 26.8424C32.8965 26.8424 32.9048 26.8424 32.9137 26.8424C33.1571 26.8216 33.4018 26.8216 33.6452 26.8424C33.6488 26.8424 33.6523 26.8424 33.6559 26.8424C33.7476 26.8493 33.8397 26.8345 33.9247 26.7991C34.0096 26.7637 34.0849 26.7088 34.1446 26.6387L34.6896 26.007C34.8506 26.0533 35.0091 26.1076 35.1646 26.1697L35.2424 27.0169C35.2507 27.1086 35.2801 27.1971 35.3285 27.2754C35.3768 27.3537 35.4427 27.4197 35.5209 27.4682C35.531 27.4741 35.5393 27.4824 35.5494 27.489C35.6473 27.5483 35.7317 27.6238 35.8231 27.6914L35.8825 27.7378C35.886 27.7378 35.8908 27.7413 35.8943 27.7443C35.9662 27.7995 36.0469 27.8476 36.114 27.9064C36.1847 27.9688 36.2692 28.0134 36.3606 28.0367C36.452 28.0599 36.5476 28.061 36.6395 28.04L37.4375 27.8583C37.5485 27.9984 37.6524 28.1433 37.7474 28.2911L37.3253 29.0197C37.2795 29.0986 37.2525 29.187 37.2465 29.278C37.2404 29.369 37.2554 29.4602 37.2902 29.5445C37.3848 29.7771 37.4595 30.0172 37.5135 30.2624C37.5341 30.3527 37.5755 30.437 37.6345 30.5084C37.6935 30.5799 37.7683 30.6365 37.8531 30.6738L38.6149 31.0099C38.6202 31.0996 38.6226 31.188 38.6226 31.2813C38.6226 31.3745 38.625 31.4629 38.6173 31.5526Z" fill="white"/>
<path d="M10.7188 34.25C11.3059 34.25 11.8799 34.0759 12.3681 33.7497C12.8563 33.4235 13.2368 32.9598 13.4615 32.4173C13.6862 31.8749 13.745 31.278 13.6305 30.7021C13.5159 30.1262 13.2332 29.5972 12.818 29.182C12.4028 28.7668 11.8738 28.4841 11.2979 28.3695C10.722 28.255 10.1251 28.3138 9.58266 28.5385C9.04019 28.7632 8.57654 29.1437 8.25032 29.6319C7.92411 30.1201 7.75 30.6941 7.75 31.2813C7.75094 32.0683 8.06402 32.8229 8.62057 33.3794C9.17711 33.936 9.93168 34.2491 10.7188 34.25ZM10.7188 29.5C11.071 29.5 11.4154 29.6045 11.7084 29.8002C12.0013 29.9959 12.2296 30.2741 12.3644 30.5996C12.4992 30.9251 12.5345 31.2832 12.4658 31.6288C12.397 31.9743 12.2274 32.2917 11.9783 32.5408C11.7292 32.7899 11.4118 32.9595 11.0663 33.0283C10.7207 33.097 10.3626 33.0617 10.0371 32.9269C9.71161 32.7921 9.43342 32.5638 9.23769 32.2709C9.04197 31.9779 8.9375 31.6335 8.9375 31.2813C8.9375 30.8088 9.12517 30.3558 9.45922 30.0217C9.79326 29.6877 10.2463 29.5 10.7188 29.5Z" fill="white"/>
<path d="M4.57997 32.4967L5.39994 32.8583C5.432 32.9726 5.46644 33.0835 5.50325 33.1908L5.04725 33.9781C4.99561 34.0671 4.96803 34.1681 4.9672 34.271C4.96636 34.374 4.99231 34.4754 5.0425 34.5653C5.28245 34.9937 5.56899 35.3944 5.8969 35.7599C5.96764 35.8389 6.05825 35.8976 6.15933 35.9298C6.26041 35.9619 6.36825 35.9664 6.47165 35.9428L7.33437 35.7451C7.41948 35.8116 7.50656 35.8759 7.59562 35.938L7.67934 36.8524C7.68878 36.9562 7.72535 37.0556 7.78538 37.1408C7.84541 37.2259 7.92679 37.2938 8.02134 37.3375C8.46136 37.5432 8.92327 37.6984 9.39825 37.8C9.50207 37.8217 9.6098 37.8152 9.71025 37.7812C9.8107 37.7471 9.90019 37.6868 9.96944 37.6065L10.5584 36.9219C10.6647 36.9266 10.7728 36.9266 10.8791 36.9219L11.4687 37.6059C11.5243 37.6706 11.5933 37.7226 11.6708 37.7582C11.7484 37.7939 11.8328 37.8124 11.9181 37.8125C11.959 37.8125 11.9998 37.8083 12.0398 37.8C12.5148 37.6983 12.9767 37.5431 13.4167 37.3375C13.5111 37.2937 13.5923 37.2259 13.6522 37.1409C13.7121 37.0559 13.7487 36.9566 13.7582 36.853L13.8419 35.938C13.9313 35.8755 14.0186 35.8112 14.1037 35.7451L14.9658 35.9428C15.0692 35.9664 15.1771 35.9619 15.2782 35.9298C15.3792 35.8976 15.4699 35.8389 15.5406 35.7599C15.8686 35.3947 16.1551 34.9942 16.395 34.5659C16.4452 34.476 16.4711 34.3746 16.4703 34.2716C16.4695 34.1687 16.4419 34.0677 16.3902 33.9787L15.9342 33.1913C15.9711 33.0839 16.0055 32.9734 16.0376 32.8583L16.8575 32.4967C16.9528 32.4545 17.0354 32.3881 17.0969 32.304C17.1583 32.2199 17.1966 32.1211 17.2078 32.0175C17.264 31.5283 17.264 31.0342 17.2078 30.545C17.1966 30.4414 17.1583 30.3426 17.0969 30.2585C17.0354 30.1744 16.9528 30.108 16.8575 30.0658L16.0376 29.7043C16.0055 29.5899 15.9711 29.479 15.9342 29.3718L16.3902 28.5844C16.4419 28.4954 16.4695 28.3944 16.4703 28.2915C16.4711 28.1885 16.4452 28.0871 16.395 27.9972C16.1551 27.5688 15.8685 27.1681 15.5406 26.8026C15.4699 26.7236 15.3792 26.6649 15.2782 26.6327C15.1771 26.6006 15.0692 26.5961 14.9658 26.6197L14.2812 26.7765V22.9688C14.2809 22.3314 14.1095 21.7058 13.785 21.1572C13.4606 20.6086 12.9949 20.1571 12.4365 19.8498C12.7576 19.5134 12.973 19.0902 13.0558 18.6326C13.1386 18.1749 13.0852 17.7031 12.9023 17.2755C12.7194 16.8479 12.415 16.4834 12.0268 16.2273C11.6386 15.9712 11.1838 15.8346 10.7187 15.8346C10.2537 15.8346 9.79886 15.9712 9.41069 16.2273C9.02253 16.4834 8.7181 16.8479 8.53518 17.2755C8.35226 17.7031 8.29889 18.1749 8.38171 18.6326C8.46452 19.0902 8.67987 19.5134 9.00103 19.8498C8.44264 20.1571 7.97693 20.6086 7.65245 21.1572C7.32798 21.7058 7.15662 22.3314 7.15625 22.9688V26.7765L6.47165 26.6197C6.36825 26.5961 6.26041 26.6006 6.15933 26.6327C6.05825 26.6649 5.96764 26.7236 5.8969 26.8026C5.5689 27.1678 5.28236 27.5683 5.0425 27.9966C4.99231 28.0865 4.96636 28.1879 4.9672 28.2909C4.96803 28.3938 4.99561 28.4948 5.04725 28.5838L5.50325 29.3712C5.46644 29.4786 5.432 29.5891 5.39994 29.7043L4.57997 30.0658C4.48467 30.108 4.40213 30.1744 4.34064 30.2585C4.27915 30.3426 4.24087 30.4414 4.22965 30.545C4.17345 31.0342 4.17345 31.5283 4.22965 32.0175C4.24087 32.1211 4.27915 32.2199 4.34064 32.304C4.40213 32.3881 4.48467 32.4545 4.57997 32.4967ZM9.53125 18.2188C9.53125 17.9839 9.60089 17.7543 9.73138 17.559C9.86186 17.3637 10.0473 17.2115 10.2643 17.1216C10.4813 17.0318 10.7201 17.0082 10.9504 17.0541C11.1808 17.0999 11.3924 17.213 11.5584 17.3791C11.7245 17.5451 11.8376 17.7567 11.8834 17.9871C11.9293 18.2174 11.9057 18.4562 11.8159 18.6732C11.726 18.8902 11.5738 19.0756 11.3785 19.2061C11.1832 19.3366 10.9536 19.4063 10.7187 19.4063C10.4038 19.4063 10.1018 19.2811 9.87906 19.0584C9.65636 18.8357 9.53125 18.5337 9.53125 18.2188ZM8.34375 22.9688C8.34375 22.3389 8.59397 21.7348 9.03937 21.2894C9.48477 20.844 10.0889 20.5938 10.7187 20.5938C11.3486 20.5938 11.9527 20.844 12.3981 21.2894C12.8435 21.7348 13.0937 22.3389 13.0937 22.9688V25.0849C13.013 25.0528 12.9317 25.0255 12.8503 24.9988C12.788 24.9762 12.7256 24.9531 12.6633 24.9323C12.4586 24.8648 12.2505 24.8081 12.0398 24.7625C11.936 24.7408 11.8283 24.7473 11.7278 24.7813C11.6274 24.8154 11.5379 24.8757 11.4687 24.956L10.8791 25.6406C10.8256 25.6406 10.7728 25.6371 10.7187 25.6371C10.6647 25.6371 10.6119 25.6371 10.5584 25.6406L10.3619 25.4126L9.96944 24.9566C9.8996 24.8769 9.80996 24.817 9.70956 24.783C9.60916 24.749 9.50157 24.7421 9.39765 24.7631H9.39291C9.18345 24.8085 8.97653 24.865 8.77303 24.9323C8.71365 24.9519 8.65131 24.975 8.59015 24.997C8.50822 25.0267 8.42569 25.0516 8.34375 25.0843V22.9688ZM5.38272 31.0099L6.14687 30.6738C6.23166 30.6365 6.30653 30.5799 6.36551 30.5084C6.42448 30.437 6.46591 30.3527 6.4865 30.2624C6.54032 30.0174 6.61501 29.7774 6.70975 29.5451C6.74472 29.4607 6.75975 29.3694 6.75368 29.2783C6.7476 29.1872 6.72058 29.0987 6.67472 29.0197L6.25256 28.2911C6.34796 28.1427 6.45107 27.9984 6.5619 27.8583L7.35694 28.0406C7.44884 28.0616 7.54443 28.0605 7.63581 28.0372C7.72719 28.014 7.81172 27.9694 7.8824 27.907C7.94831 27.8476 8.02906 27.8013 8.09972 27.7467C8.10447 27.7431 8.10981 27.7419 8.11397 27.7383L8.17334 27.6908C8.25825 27.6279 8.33662 27.5608 8.42747 27.5026C8.4429 27.4919 8.45715 27.4789 8.47378 27.4688C8.55191 27.4203 8.61774 27.3544 8.66606 27.2762C8.71438 27.198 8.74389 27.1097 8.75225 27.0181L8.83003 26.1703C8.9867 26.108 9.14643 26.0537 9.30859 26.0076L9.85247 26.6393C9.911 26.7078 9.98463 26.7618 10.0676 26.7971C10.1505 26.8323 10.2405 26.8478 10.3304 26.8424C10.3377 26.843 10.3451 26.843 10.3524 26.8424C10.5958 26.8216 10.8405 26.8216 11.0839 26.8424C11.0881 26.8424 11.0916 26.8424 11.0958 26.8424C11.1389 26.8458 11.1824 26.8444 11.2252 26.8382C11.2635 26.8321 11.3009 26.8218 11.3368 26.8073C11.344 26.8073 11.3517 26.8044 11.3582 26.8014C11.3924 26.7867 11.425 26.7686 11.4556 26.7474C11.4633 26.742 11.4722 26.7391 11.4799 26.7337C11.4877 26.7284 11.493 26.7207 11.5001 26.7153C11.5303 26.6926 11.5582 26.667 11.5832 26.6387L12.1283 26.007C12.2892 26.0533 12.4478 26.1076 12.6033 26.1697L12.6811 27.0169C12.6894 27.1086 12.7188 27.1971 12.7672 27.2754C12.8155 27.3537 12.8814 27.4197 12.9596 27.4682C12.9697 27.4741 12.978 27.4824 12.9881 27.489C13.086 27.5483 13.1703 27.6238 13.2618 27.6914L13.3212 27.7378C13.3247 27.7378 13.3295 27.7413 13.333 27.7443C13.4049 27.7995 13.4856 27.8476 13.5527 27.9064C13.6234 27.9688 13.7079 28.0134 13.7993 28.0367C13.8907 28.0599 13.9863 28.061 14.0782 28.04L14.875 27.8583C14.986 27.9984 15.0899 28.1433 15.1849 28.2911L14.7628 29.0197C14.717 29.0986 14.69 29.187 14.684 29.278C14.6779 29.369 14.6929 29.4602 14.7277 29.5445C14.8223 29.7771 14.897 30.0172 14.951 30.2624C14.9716 30.3527 15.013 30.437 15.072 30.5084C15.131 30.5799 15.2058 30.6365 15.2906 30.6738L16.0524 31.0099C16.0577 31.0996 16.0601 31.188 16.0601 31.2813C16.0601 31.3745 16.0601 31.4629 16.0524 31.5526L15.2906 31.8887C15.2058 31.926 15.131 31.9826 15.072 32.0541C15.013 32.1255 14.9716 32.2098 14.951 32.3001C14.8972 32.5451 14.8225 32.7851 14.7277 33.0174C14.6928 33.1018 14.6777 33.1931 14.6838 33.2842C14.6899 33.3753 14.7169 33.4639 14.7628 33.5428L15.1849 34.2714C15.0891 34.4198 14.986 34.5641 14.8756 34.7042L14.0806 34.5219C13.9887 34.5005 13.893 34.5015 13.8016 34.5248C13.7101 34.548 13.6256 34.5928 13.5551 34.6555C13.3698 34.8182 13.1712 34.965 12.9613 35.0943C12.8832 35.1427 12.8174 35.2087 12.7691 35.2869C12.7207 35.3651 12.6912 35.4534 12.6829 35.545L12.6051 36.3923C12.4484 36.4544 12.2887 36.5087 12.1265 36.5549L11.5821 35.9232C11.5208 35.8522 11.4436 35.7968 11.3568 35.7614C11.2701 35.726 11.1761 35.7117 11.0827 35.7195C10.8385 35.7397 10.5931 35.7397 10.3488 35.7195C10.2554 35.7117 10.1615 35.726 10.0747 35.7614C9.98793 35.7968 9.91075 35.8522 9.8495 35.9232L9.30503 36.5549C9.14287 36.5088 8.98314 36.4545 8.82647 36.3923L8.74928 35.545C8.74088 35.4532 8.71123 35.3647 8.66269 35.2863C8.61416 35.208 8.54806 35.1421 8.46962 35.0937C8.25964 34.9648 8.06101 34.8182 7.87587 34.6555C7.80518 34.5931 7.72065 34.5485 7.62928 34.5253C7.5379 34.502 7.44231 34.5009 7.3504 34.5219L6.5625 34.7042C6.45147 34.5641 6.34756 34.4192 6.25256 34.2714L6.67472 33.5428C6.72049 33.4639 6.74746 33.3755 6.75353 33.2845C6.75961 33.1935 6.74463 33.1023 6.70975 33.018C6.61518 32.7854 6.5405 32.5453 6.4865 32.3001C6.46591 32.2098 6.42448 32.1255 6.36551 32.0541C6.30653 31.9826 6.23166 31.926 6.14687 31.8887L5.38509 31.5526C5.375 31.4629 5.375 31.3721 5.375 31.2813C5.375 31.1904 5.375 31.0996 5.38272 31.0099Z" fill="white"/>
<path d="M16.2222 8.10363L15.7597 7.00994C12.1627 8.53129 9.24388 11.3119 7.5499 14.8308L8.61865 15.3462C10.1873 12.0871 12.8907 9.51199 16.2222 8.10363Z" fill="white"/>
<path d="M17.5855 35.9576L17.2334 37.0917C20.4319 38.0817 23.8593 38.0512 27.0397 37.0044L26.6669 35.8763C23.7209 36.8415 20.5482 36.8699 17.5855 35.9576Z" fill="white"/>
<path d="M35.4538 15.5012L36.5296 14.9988C34.8273 11.346 31.81 8.46942 28.08 6.94344L27.6293 8.04187C31.0833 9.45494 33.8774 12.1186 35.4538 15.5012Z" fill="white"/>
</g>
<defs>
<linearGradient id="paint0_linear_1_2" x1="22" y1="-3.29812e-07" x2="22" y2="45" gradientUnits="userSpaceOnUse">
<stop stop-color="#353535"/>
<stop offset="0.122222" stop-color="#323232"/>
<stop offset="1" stop-color="#1B1B1B"/>
</linearGradient>
<clipPath id="clip0_1_2">
<rect width="45" height="45" fill="white"/>
</clipPath>
</defs>
</svg>
