<svg width="256" height="256" viewBox="0 0 256 256" fill="none" xmlns="http://www.w3.org/2000/svg">
<path d="M128 191.839C112.433 191.85 97.4165 186.076 85.8668 175.638C74.3172 165.2 67.058 150.843 65.4985 135.354C63.939 119.864 68.1903 104.348 77.4273 91.8174C86.6643 79.2865 100.228 70.6347 115.485 67.5417C130.742 64.4487 146.604 67.1351 159.992 75.0793C173.38 83.0236 183.338 95.6589 187.934 110.533C192.53 125.406 191.435 141.457 184.862 155.569C178.29 169.681 166.708 180.847 152.366 186.9C144.657 190.165 136.371 191.845 128 191.839ZM128 72.8024C116.879 72.7981 106.007 76.092 96.7585 82.2677C87.5101 88.4433 80.3011 97.2231 76.0433 107.497C71.7856 117.77 70.6704 129.075 72.8389 139.983C75.0074 150.89 80.3621 160.909 88.2256 168.773C96.0892 176.636 106.108 181.991 117.016 184.159C127.923 186.328 139.228 185.213 149.502 180.955C159.775 176.697 168.555 169.488 174.731 160.24C180.906 150.991 184.2 140.119 184.196 128.998C184.178 114.1 178.252 99.8162 167.717 89.2813C157.182 78.7463 142.899 72.82 128 72.8024Z" fill="black"/>
<path d="M147.005 231.934H108.995C108.114 231.934 107.269 231.583 106.645 230.96C106.022 230.337 105.672 229.492 105.672 228.611V213.371C98.1214 211.403 90.8715 208.423 84.1198 204.511L73.3546 215.276C73.0457 215.588 72.6783 215.835 72.2734 216.004C71.8685 216.172 71.4342 216.259 70.9956 216.259C70.557 216.259 70.1227 216.172 69.7178 216.004C69.3129 215.835 68.9454 215.588 68.6366 215.276L41.7901 188.363C41.4787 188.055 41.2315 187.687 41.0628 187.282C40.8941 186.877 40.8073 186.443 40.8073 186.004C40.8073 185.566 40.8941 185.131 41.0628 184.727C41.2315 184.322 41.4787 183.954 41.7901 183.645L52.5553 172.88C48.6487 166.118 45.6686 158.862 43.6951 151.306H28.3226C27.4414 151.306 26.5963 150.956 25.9732 150.332C25.3501 149.709 25 148.864 25 147.983V110.017C25 109.136 25.3501 108.291 25.9732 107.668C26.5963 107.044 27.4414 106.694 28.3226 106.694H43.5622C45.5357 99.1384 48.5158 91.8819 52.4224 85.1198L41.6572 74.3546C41.3458 74.0457 41.0986 73.6783 40.9299 73.2734C40.7612 72.8685 40.6744 72.4342 40.6744 71.9956C40.6744 71.557 40.7612 71.1227 40.9299 70.7178C41.0986 70.3129 41.3458 69.9454 41.6572 69.6366L68.6366 42.7901C68.9454 42.4787 69.3129 42.2315 69.7178 42.0628C70.1227 41.8941 70.557 41.8073 70.9956 41.8073C71.4342 41.8073 71.8685 41.8941 72.2734 42.0628C72.6783 42.2315 73.0457 42.4787 73.3546 42.7901L84.1198 53.5553C90.8715 49.6435 98.1214 46.6631 105.672 44.6951V29.3226C105.672 28.4414 106.022 27.5963 106.645 26.9732C107.269 26.3501 108.114 26 108.995 26H147.005C147.886 26 148.731 26.3501 149.355 26.9732C149.978 27.5963 150.328 28.4414 150.328 29.3226V44.5621C157.879 46.5302 165.128 49.5106 171.88 53.4224L182.645 42.6572C182.954 42.3458 183.322 42.0986 183.727 41.9299C184.132 41.7612 184.566 41.6744 185.004 41.6744C185.443 41.6744 185.877 41.7612 186.282 41.9299C186.687 42.0986 187.055 42.3458 187.363 42.6572L214.21 69.6366C214.521 69.9454 214.768 70.3129 214.937 70.7178C215.106 71.1227 215.193 71.557 215.193 71.9956C215.193 72.4342 215.106 72.8685 214.937 73.2734C214.768 73.6783 214.521 74.0457 214.21 74.3546L203.445 85.1198C207.351 91.8819 210.331 99.1384 212.305 106.694H227.677C228.559 106.694 229.404 107.044 230.027 107.668C230.65 108.291 231 109.136 231 110.017V147.983C231 148.864 230.65 149.709 230.027 150.332C229.404 150.956 228.559 151.306 227.677 151.306H212.371C210.398 158.862 207.418 166.118 203.511 172.88L214.276 183.645C214.588 183.954 214.835 184.322 215.004 184.727C215.172 185.131 215.259 185.566 215.259 186.004C215.259 186.443 215.172 186.877 215.004 187.282C214.835 187.687 214.588 188.055 214.276 188.363L187.363 215.21C187.055 215.521 186.687 215.768 186.282 215.937C185.877 216.106 185.443 216.193 185.004 216.193C184.566 216.193 184.132 216.106 183.727 215.937C183.322 215.768 182.954 215.521 182.645 215.21L171.88 204.445C165.128 208.356 157.879 211.337 150.328 213.305V228.677C150.31 229.547 149.953 230.375 149.331 230.984C148.71 231.593 147.875 231.934 147.005 231.934ZM112.317 225.288H143.683V210.758C143.687 210.009 143.943 209.283 144.408 208.697C144.874 208.11 145.524 207.697 146.252 207.524C154.88 205.537 163.115 202.123 170.618 197.423C171.254 197.026 172.007 196.859 172.752 196.947C173.497 197.036 174.189 197.375 174.715 197.91L184.993 208.166L207.144 186.015L196.91 175.738C196.376 175.212 196.036 174.519 195.947 173.774C195.859 173.029 196.026 172.277 196.423 171.64C201.114 164.132 204.527 155.899 206.524 147.274C206.697 146.54 207.113 145.885 207.703 145.415C208.294 144.945 209.025 144.687 209.78 144.683H224.288V113.34H209.78C209.025 113.335 208.294 113.077 207.703 112.607C207.113 112.137 206.697 111.482 206.524 110.748C204.527 102.124 201.114 93.8901 196.423 86.3824C196.026 85.7456 195.859 84.9928 195.947 84.2479C196.036 83.503 196.376 82.8105 196.91 82.2845L207.166 72.0288L185.015 49.8783L174.738 60.0897C174.212 60.6245 173.519 60.9642 172.774 61.0528C172.029 61.1413 171.277 60.9735 170.64 60.577C163.137 55.8772 154.902 52.4634 146.274 50.4763C145.546 50.3028 144.897 49.8897 144.431 49.3034C143.965 48.717 143.709 47.9913 143.705 47.2424V32.7116H112.317V47.2424C112.313 47.9913 112.057 48.717 111.592 49.3034C111.126 49.8897 110.476 50.3028 109.748 50.4763C101.12 52.4634 92.8853 55.8772 85.3824 60.577C84.7456 60.9735 83.9928 61.1413 83.2479 61.0528C82.503 60.9642 81.8105 60.6245 81.2845 60.0897L71.0067 49.834L48.8561 71.9845L59.1118 82.2402C59.6467 82.7662 59.9863 83.4587 60.0749 84.2036C60.1635 84.9485 59.9957 85.7013 59.5991 86.3381C54.9086 93.8458 51.4954 102.079 49.4985 110.704C49.3247 111.438 48.9093 112.093 48.3188 112.563C47.7283 113.033 46.997 113.291 46.2424 113.295H31.7116V144.66H46.2202C46.9749 144.665 47.7061 144.923 48.2966 145.393C48.8871 145.863 49.3026 146.518 49.4763 147.252C51.4732 155.876 54.8864 164.11 59.577 171.618C59.9735 172.254 60.1414 173.007 60.0528 173.752C59.9642 174.497 59.6245 175.189 59.0897 175.715L48.834 185.971L70.9845 208.122L81.2624 197.866C81.7884 197.331 82.4808 196.991 83.2257 196.903C83.9706 196.814 84.7235 196.982 85.3602 197.379C92.8632 202.078 101.098 205.492 109.726 207.479C110.454 207.653 111.104 208.066 111.569 208.652C112.035 209.239 112.291 209.964 112.295 210.713L112.317 225.288Z" fill="black"/>
<path d="M103.745 150.309C101.927 150.309 100.15 149.77 98.6381 148.76C97.1264 147.749 95.9482 146.314 95.2524 144.634C94.5567 142.954 94.3746 141.106 94.7293 139.323C95.084 137.54 95.9595 135.902 97.2451 134.616C98.5307 133.331 100.169 132.455 101.952 132.1C103.735 131.746 105.583 131.928 107.263 132.624C108.943 133.319 110.378 134.498 111.388 136.009C112.398 137.521 112.938 139.298 112.938 141.116C112.938 143.554 111.969 145.892 110.245 147.616C108.521 149.34 106.183 150.309 103.745 150.309ZM103.745 138.591C103.24 138.591 102.747 138.741 102.328 139.022C101.908 139.303 101.582 139.702 101.39 140.169C101.198 140.636 101.148 141.149 101.249 141.644C101.349 142.138 101.593 142.592 101.952 142.948C102.31 143.303 102.766 143.544 103.262 143.639C103.757 143.735 104.27 143.682 104.735 143.485C105.2 143.289 105.597 142.959 105.874 142.537C106.151 142.116 106.297 141.621 106.292 141.116C106.292 140.783 106.226 140.453 106.098 140.145C105.97 139.837 105.782 139.558 105.545 139.323C105.308 139.088 105.027 138.903 104.718 138.777C104.409 138.651 104.079 138.588 103.745 138.591Z" fill="black"/>
<path d="M152.366 126.054C150.546 126.058 148.765 125.522 147.25 124.514C145.735 123.505 144.553 122.07 143.855 120.389C143.156 118.709 142.973 116.859 143.326 115.073C143.68 113.288 144.556 111.648 145.843 110.361C147.13 109.074 148.77 108.198 150.555 107.845C152.341 107.491 154.191 107.674 155.871 108.373C157.552 109.071 158.987 110.253 159.996 111.768C161.004 113.283 161.54 115.064 161.536 116.884C161.53 119.314 160.562 121.643 158.843 123.361C157.125 125.08 154.796 126.048 152.366 126.054ZM152.366 114.336C151.861 114.332 151.366 114.478 150.944 114.755C150.523 115.032 150.193 115.428 149.996 115.893C149.8 116.358 149.747 116.871 149.842 117.367C149.938 117.862 150.179 118.318 150.534 118.677C150.89 119.035 151.344 119.28 151.838 119.38C152.333 119.48 152.846 119.431 153.313 119.239C153.78 119.047 154.179 118.72 154.46 118.301C154.741 117.882 154.891 117.388 154.891 116.884C154.891 116.212 154.625 115.567 154.152 115.09C153.68 114.613 153.037 114.342 152.366 114.336Z" fill="black"/>
<path d="M128 138.169C126.186 138.169 124.413 137.631 122.905 136.624C121.397 135.616 120.222 134.184 119.528 132.508C118.834 130.833 118.652 128.989 119.006 127.21C119.36 125.431 120.233 123.797 121.516 122.515C122.798 121.232 124.432 120.359 126.211 120.005C127.99 119.651 129.834 119.833 131.509 120.527C133.185 121.221 134.617 122.396 135.625 123.904C136.633 125.412 137.17 127.185 137.17 128.999C137.17 131.431 136.204 133.764 134.484 135.483C132.765 137.203 130.432 138.169 128 138.169ZM128 126.474C127.501 126.474 127.012 126.622 126.597 126.899C126.182 127.177 125.858 127.571 125.667 128.033C125.476 128.494 125.426 129.002 125.523 129.492C125.621 129.981 125.861 130.431 126.214 130.785C126.568 131.138 127.018 131.378 127.507 131.476C127.997 131.573 128.505 131.523 128.966 131.332C129.428 131.141 129.822 130.817 130.1 130.402C130.377 129.987 130.525 129.498 130.525 128.999C130.525 128.329 130.259 127.687 129.786 127.213C129.312 126.74 128.67 126.474 128 126.474Z" fill="black"/>
<path d="M128 126.474C127.119 126.474 126.274 126.124 125.651 125.501C125.027 124.878 124.677 124.033 124.677 123.151V95.286C124.677 94.4048 125.027 93.5597 125.651 92.9365C126.274 92.3134 127.119 91.9634 128 91.9634C128.881 91.9634 129.726 92.3134 130.349 92.9365C130.973 93.5597 131.323 94.4048 131.323 95.286V123.151C131.323 124.033 130.973 124.878 130.349 125.501C129.726 126.124 128.881 126.474 128 126.474Z" fill="black"/>
<path d="M152.366 114.335C151.484 114.335 150.639 113.985 150.016 113.362C149.393 112.739 149.043 111.894 149.043 111.013V95.286C149.043 94.4048 149.393 93.5597 150.016 92.9365C150.639 92.3134 151.484 91.9634 152.366 91.9634C153.247 91.9634 154.092 92.3134 154.715 92.9365C155.338 93.5597 155.688 94.4048 155.688 95.286V111.013C155.688 111.894 155.338 112.739 154.715 113.362C154.092 113.985 153.247 114.335 152.366 114.335Z" fill="black"/>
<path d="M103.745 166.035C102.864 166.035 102.019 165.685 101.396 165.062C100.773 164.439 100.423 163.594 100.423 162.713V146.986C100.423 146.104 100.773 145.259 101.396 144.636C102.019 144.013 102.864 143.663 103.745 143.663C104.626 143.663 105.471 144.013 106.095 144.636C106.718 145.259 107.068 146.104 107.068 146.986V162.713C107.068 163.594 106.718 164.439 106.095 165.062C105.471 165.685 104.626 166.035 103.745 166.035Z" fill="black"/>
<path d="M128 166.036C127.119 166.036 126.274 165.686 125.651 165.063C125.027 164.44 124.677 163.595 124.677 162.714V134.848C124.677 133.967 125.027 133.122 125.651 132.499C126.274 131.876 127.119 131.526 128 131.526C128.881 131.526 129.726 131.876 130.349 132.499C130.973 133.122 131.323 133.967 131.323 134.848V162.714C131.323 163.595 130.973 164.44 130.349 165.063C129.726 165.686 128.881 166.036 128 166.036Z" fill="black"/>
<path d="M152.366 166.035C151.484 166.035 150.639 165.685 150.016 165.062C149.393 164.439 149.043 163.594 149.043 162.713V122.842C149.043 121.96 149.393 121.115 150.016 120.492C150.639 119.869 151.484 119.519 152.366 119.519C153.247 119.519 154.092 119.869 154.715 120.492C155.338 121.115 155.688 121.96 155.688 122.842V162.713C155.688 163.594 155.338 164.439 154.715 165.062C154.092 165.685 153.247 166.035 152.366 166.035Z" fill="black"/>
<path d="M103.745 138.591C102.864 138.591 102.019 138.241 101.396 137.618C100.773 136.995 100.423 136.149 100.423 135.268V95.3973C100.423 94.5161 100.773 93.671 101.396 93.0479C102.019 92.4248 102.864 92.0747 103.745 92.0747C104.626 92.0747 105.471 92.4248 106.095 93.0479C106.718 93.671 107.068 94.5161 107.068 95.3973V135.268C107.068 136.149 106.718 136.995 106.095 137.618C105.471 138.241 104.626 138.591 103.745 138.591Z" fill="black"/>
</svg>
