<svg width="149" height="149" viewBox="0 0 149 149" fill="none" xmlns="http://www.w3.org/2000/svg">
<path d="M74.39 148.78C115.474 148.78 148.78 115.474 148.78 74.39C148.78 33.3055 115.474 0 74.39 0C33.3055 0 0 33.3055 0 74.39C0 115.474 33.3055 148.78 74.39 148.78Z" fill="url(#paint0_linear_29_491)"/>
<path d="M74 101.454C67.1987 101.459 60.6383 98.9361 55.5923 94.3758C50.5464 89.8156 47.3749 83.543 46.6935 76.7759C46.0122 70.0088 47.8696 63.2299 51.9051 57.7553C55.9407 52.2806 61.8665 48.5007 68.5322 47.1494C75.198 45.7981 82.128 46.9717 87.9771 50.4425C93.8261 53.9133 98.1769 59.4336 100.185 65.9318C102.193 72.43 101.714 79.4424 98.8428 85.6078C95.9713 91.7732 90.9113 96.6516 84.6451 99.2962C81.2775 100.723 77.6572 101.456 74 101.454ZM74 49.4478C69.1414 49.4458 64.3914 50.885 60.3508 53.5831C56.3102 56.2811 53.1607 60.117 51.3005 64.6054C49.4403 69.0938 48.9531 74.033 49.9005 78.7984C50.8479 83.5637 53.1873 87.941 56.6228 91.3765C60.0584 94.812 64.4357 97.1515 69.201 98.0989C73.9663 99.0463 78.9056 98.5591 83.394 96.6989C87.8824 94.8387 91.7182 91.6891 94.4163 87.6485C97.1144 83.608 98.5535 78.858 98.5516 73.9994C98.5439 67.4902 95.9548 61.2499 91.3521 56.6473C86.7494 52.0446 80.5091 49.4554 74 49.4478Z" fill="white"/>
<path d="M82.3032 118.971H65.6968C65.3118 118.971 64.9426 118.818 64.6703 118.546C64.3981 118.274 64.2452 117.904 64.2452 117.519V110.861C60.9463 110.001 57.7788 108.699 54.829 106.99L50.1258 111.694C49.9909 111.83 49.8303 111.938 49.6534 112.011C49.4765 112.085 49.2868 112.123 49.0952 112.123C48.9035 112.123 48.7138 112.085 48.5369 112.011C48.36 111.938 48.1995 111.83 48.0645 111.694L36.3355 99.9355C36.1994 99.8005 36.0914 99.64 36.0177 99.4631C35.944 99.2862 35.9061 99.0965 35.9061 98.9048C35.9061 98.7132 35.944 98.5235 36.0177 98.3466C36.0914 98.1697 36.1994 98.0091 36.3355 97.8742L41.0387 93.171C39.332 90.2166 38.03 87.0463 37.1677 83.7452H30.4516C30.0666 83.7452 29.6974 83.5922 29.4252 83.32C29.1529 83.0478 29 82.6785 29 82.2935V65.7064C29 65.3215 29.1529 64.9522 29.4252 64.68C29.6974 64.4078 30.0666 64.2548 30.4516 64.2548H37.1097C37.9719 60.9537 39.2739 57.7834 40.9806 54.829L36.2774 50.1258C36.1414 49.9909 36.0334 49.8303 35.9597 49.6534C35.886 49.4765 35.848 49.2868 35.848 49.0952C35.848 48.9035 35.886 48.7138 35.9597 48.5369C36.0334 48.36 36.1414 48.1995 36.2774 48.0645L48.0645 36.3355C48.1995 36.1994 48.36 36.0914 48.5369 36.0177C48.7138 35.944 48.9035 35.9061 49.0952 35.9061C49.2868 35.9061 49.4765 35.944 49.6534 36.0177C49.8303 36.0914 49.9909 36.1994 50.1258 36.3355L54.829 41.0387C57.7788 39.3297 60.9463 38.0275 64.2452 37.1677V30.4516C64.2452 30.0666 64.3981 29.6974 64.6703 29.4252C64.9426 29.1529 65.3118 29 65.6968 29H82.3032C82.6882 29 83.0574 29.1529 83.3297 29.4252C83.6019 29.6974 83.7548 30.0666 83.7548 30.4516V37.1097C87.0537 37.9695 90.2212 39.2716 93.171 40.9806L97.8742 36.2774C98.0091 36.1414 98.1697 36.0334 98.3466 35.9597C98.5235 35.886 98.7132 35.848 98.9048 35.848C99.0965 35.848 99.2862 35.886 99.4631 35.9597C99.64 36.0334 99.8005 36.1414 99.9355 36.2774L111.665 48.0645C111.801 48.1995 111.909 48.36 111.982 48.5369C112.056 48.7138 112.094 48.9035 112.094 49.0952C112.094 49.2868 112.056 49.4765 111.982 49.6534C111.909 49.8303 111.801 49.9909 111.665 50.1258L106.961 54.829C108.668 57.7834 109.97 60.9537 110.832 64.2548H117.548C117.933 64.2548 118.303 64.4078 118.575 64.68C118.847 64.9522 119 65.3215 119 65.7064V82.2935C119 82.6785 118.847 83.0478 118.575 83.32C118.303 83.5922 117.933 83.7452 117.548 83.7452H110.861C109.999 87.0463 108.697 90.2166 106.99 93.171L111.694 97.8742C111.83 98.0091 111.938 98.1697 112.011 98.3466C112.085 98.5235 112.123 98.7132 112.123 98.9048C112.123 99.0965 112.085 99.2862 112.011 99.4631C111.938 99.64 111.83 99.8005 111.694 99.9355L99.9355 111.665C99.8005 111.801 99.64 111.909 99.4631 111.982C99.2862 112.056 99.0965 112.094 98.9048 112.094C98.7132 112.094 98.5235 112.056 98.3466 111.982C98.1697 111.909 98.0091 111.801 97.8742 111.665L93.171 106.961C90.2212 108.67 87.0537 109.972 83.7548 110.832V117.548C83.7472 117.928 83.5909 118.29 83.3195 118.556C83.0481 118.822 82.6832 118.971 82.3032 118.971ZM67.1484 116.068H80.8516V109.719C80.8535 109.392 80.9652 109.075 81.1687 108.819C81.3723 108.563 81.6559 108.382 81.9742 108.306C85.7435 107.438 89.3414 105.947 92.6194 103.894C92.8975 103.72 93.2265 103.647 93.5519 103.686C93.8773 103.724 94.1799 103.873 94.4097 104.106L98.9 108.587L108.577 98.9097L104.106 94.4193C103.873 94.1895 103.724 93.887 103.686 93.5616C103.647 93.2361 103.72 92.9072 103.894 92.629C105.943 89.349 107.434 85.7518 108.306 81.9839C108.382 81.663 108.564 81.377 108.822 81.1716C109.08 80.9663 109.399 80.8536 109.729 80.8516H116.068V67.1581H109.729C109.399 67.1561 109.08 67.0434 108.822 66.838C108.564 66.6327 108.382 66.3467 108.306 66.0258C107.434 62.2579 105.943 58.6607 103.894 55.3806C103.72 55.1025 103.647 54.7735 103.686 54.4481C103.724 54.1227 103.873 53.8201 104.106 53.5903L108.587 49.1097L98.9097 39.4323L94.4194 43.8935C94.1895 44.1272 93.887 44.2756 93.5616 44.3143C93.2361 44.353 92.9072 44.2797 92.629 44.1065C89.351 42.0532 85.7532 40.5617 81.9839 39.6935C81.6656 39.6177 81.382 39.4373 81.1784 39.1811C80.9749 38.9249 80.8632 38.6078 80.8613 38.2806V31.9323H67.1484V38.2806C67.1465 38.6078 67.0348 38.9249 66.8312 39.1811C66.6277 39.4373 66.3441 39.6177 66.0258 39.6935C62.2565 40.5617 58.6586 42.0532 55.3806 44.1065C55.1025 44.2797 54.7735 44.353 54.4481 44.3143C54.1227 44.2756 53.8201 44.1272 53.5903 43.8935L49.1 39.4129L39.4226 49.0903L43.9032 53.571C44.1369 53.8008 44.2853 54.1033 44.324 54.4287C44.3627 54.7542 44.2894 55.0831 44.1161 55.3613C42.0668 58.6413 40.5756 62.2385 39.7032 66.0064C39.6273 66.3273 39.4458 66.6134 39.1878 66.8187C38.9298 67.024 38.6104 67.1367 38.2806 67.1387H31.9323V80.8419H38.271C38.6007 80.8439 38.9202 80.9566 39.1781 81.162C39.4361 81.3673 39.6176 81.6533 39.6935 81.9742C40.566 85.7421 42.0572 89.3393 44.1065 92.6193C44.2797 92.8975 44.353 93.2264 44.3143 93.5519C44.2756 93.8773 44.1272 94.1799 43.8935 94.4097L39.4129 98.8903L49.0903 108.568L53.5806 104.087C53.8104 103.853 54.113 103.705 54.4384 103.666C54.7639 103.628 55.0928 103.701 55.371 103.874C58.649 105.927 62.2468 107.419 66.0161 108.287C66.3344 108.363 66.618 108.543 66.8216 108.8C67.0251 109.056 67.1368 109.373 67.1387 109.7L67.1484 116.068Z" fill="white"/>
<path d="M63.4032 83.3096C62.6089 83.3096 61.8324 83.0741 61.172 82.6328C60.5115 82.1915 59.9968 81.5642 59.6928 80.8304C59.3888 80.0965 59.3093 79.289 59.4643 78.51C59.6192 77.7309 60.0017 77.0153 60.5634 76.4536C61.125 75.892 61.8407 75.5095 62.6197 75.3545C63.3988 75.1996 64.2063 75.2791 64.9401 75.5831C65.674 75.887 66.3012 76.4018 66.7425 77.0622C67.1838 77.7227 67.4193 78.4992 67.4193 79.2935C67.4193 80.3586 66.9962 81.3801 66.243 82.1333C65.4899 82.8865 64.4684 83.3096 63.4032 83.3096ZM63.4032 78.1902C63.1827 78.1903 62.9671 78.2558 62.7839 78.3785C62.6007 78.5012 62.4581 78.6756 62.3741 78.8795C62.2902 79.0834 62.2687 79.3077 62.3125 79.5239C62.3562 79.74 62.4631 79.9383 62.6198 80.0935C62.7764 80.2488 62.9756 80.354 63.1921 80.3958C63.4086 80.4377 63.6327 80.4143 63.8359 80.3285C64.039 80.2428 64.2122 80.0987 64.3333 79.9144C64.4544 79.7301 64.518 79.514 64.5161 79.2935C64.5161 79.1478 64.4873 79.0035 64.4312 78.869C64.3752 78.7346 64.2931 78.6125 64.1896 78.5099C64.0861 78.4074 63.9633 78.3263 63.8284 78.2714C63.6934 78.2166 63.5489 78.189 63.4032 78.1902Z" fill="white"/>
<path d="M84.6452 72.7129C83.85 72.7148 83.0722 72.4807 82.4103 72.0401C81.7483 71.5995 81.2321 70.9724 80.9269 70.2382C80.6217 69.5039 80.5414 68.6956 80.6961 67.9157C80.8507 67.1357 81.2334 66.4192 81.7957 65.857C82.3579 65.2947 83.0744 64.912 83.8543 64.7574C84.6343 64.6027 85.4426 64.6831 86.1769 64.9882C86.9111 65.2934 87.5382 65.8097 87.9788 66.4716C88.4194 67.1335 88.6535 67.9113 88.6516 68.7065C88.649 69.7682 88.2261 70.7858 87.4753 71.5366C86.7245 72.2874 85.7069 72.7104 84.6452 72.7129ZM84.6452 67.5936C84.4246 67.5916 84.2085 67.6553 84.0242 67.7764C83.84 67.8975 83.6958 68.0706 83.6101 68.2738C83.5244 68.477 83.5009 68.7011 83.5428 68.9176C83.5846 69.1341 83.6899 69.3333 83.8451 69.4899C84.0004 69.6465 84.1986 69.7535 84.4148 69.7972C84.6309 69.8409 84.8552 69.8195 85.0591 69.7355C85.263 69.6516 85.4374 69.509 85.5601 69.3257C85.6828 69.1425 85.7484 68.927 85.7484 68.7065C85.7484 68.413 85.6325 68.1314 85.4258 67.9229C85.2192 67.7145 84.9386 67.5961 84.6452 67.5936Z" fill="white"/>
<path d="M74 78.0061C73.2076 78.0061 72.433 77.7711 71.7741 77.3309C71.1153 76.8906 70.6018 76.2649 70.2985 75.5328C69.9953 74.8007 69.916 73.9952 70.0705 73.218C70.2251 72.4408 70.6067 71.7269 71.167 71.1666C71.7273 70.6063 72.4412 70.2247 73.2184 70.0701C73.9956 69.9156 74.8011 69.9949 75.5332 70.2981C76.2653 70.6014 76.891 71.1149 77.3313 71.7738C77.7715 72.4326 78.0065 73.2072 78.0065 73.9996C78.0065 75.0622 77.5844 76.0813 76.833 76.8326C76.0816 77.584 75.0626 78.0061 74 78.0061ZM74 72.8964C73.7818 72.8964 73.5685 72.9611 73.3871 73.0823C73.2057 73.2035 73.0643 73.3758 72.9808 73.5774C72.8973 73.779 72.8754 74.0008 72.918 74.2148C72.9606 74.4289 73.0656 74.6254 73.2199 74.7797C73.3742 74.934 73.5708 75.0391 73.7848 75.0816C73.9988 75.1242 74.2206 75.1024 74.4222 75.0189C74.6238 74.9354 74.7961 74.794 74.9173 74.6125C75.0385 74.4311 75.1032 74.2178 75.1032 73.9996C75.1032 73.707 74.987 73.4264 74.7801 73.2195C74.5732 73.0126 74.2926 72.8964 74 72.8964Z" fill="white"/>
<path d="M74 72.8963C73.615 72.8963 73.2458 72.7433 72.9736 72.4711C72.7013 72.1989 72.5484 71.8296 72.5484 71.4447V59.2705C72.5484 58.8855 72.7013 58.5162 72.9736 58.244C73.2458 57.9718 73.615 57.8188 74 57.8188C74.385 57.8188 74.7542 57.9718 75.0265 58.244C75.2987 58.5162 75.4516 58.8855 75.4516 59.2705V71.4447C75.4516 71.8296 75.2987 72.1989 75.0265 72.4711C74.7542 72.7433 74.385 72.8963 74 72.8963Z" fill="white"/>
<path d="M84.6452 67.593C84.2602 67.593 83.891 67.4401 83.6187 67.1679C83.3465 66.8956 83.1936 66.5264 83.1936 66.1414V59.2705C83.1936 58.8855 83.3465 58.5162 83.6187 58.244C83.891 57.9718 84.2602 57.8188 84.6452 57.8188C85.0302 57.8188 85.3994 57.9718 85.6716 58.244C85.9439 58.5162 86.0968 58.8855 86.0968 59.2705V66.1414C86.0968 66.5264 85.9439 66.8956 85.6716 67.1679C85.3994 67.4401 85.0302 67.593 84.6452 67.593Z" fill="white"/>
<path d="M63.4032 90.1804C63.0182 90.1804 62.649 90.0275 62.3768 89.7553C62.1045 89.483 61.9516 89.1138 61.9516 88.7288V81.8579C61.9516 81.4729 62.1045 81.1037 62.3768 80.8314C62.649 80.5592 63.0182 80.4062 63.4032 80.4062C63.7882 80.4062 64.1574 80.5592 64.4297 80.8314C64.7019 81.1037 64.8548 81.4729 64.8548 81.8579V88.7288C64.8548 89.1138 64.7019 89.483 64.4297 89.7553C64.1574 90.0275 63.7882 90.1804 63.4032 90.1804Z" fill="white"/>
<path d="M74 90.1809C73.615 90.1809 73.2458 90.028 72.9736 89.7558C72.7013 89.4835 72.5484 89.1143 72.5484 88.7293V76.5551C72.5484 76.1701 72.7013 75.8009 72.9736 75.5287C73.2458 75.2565 73.615 75.1035 74 75.1035C74.385 75.1035 74.7542 75.2565 75.0265 75.5287C75.2987 75.8009 75.4516 76.1701 75.4516 76.5551V88.7293C75.4516 89.1143 75.2987 89.4835 75.0265 89.7558C74.7542 90.028 74.385 90.1809 74 90.1809Z" fill="white"/>
<path d="M84.6452 90.1805C84.2602 90.1805 83.891 90.0276 83.6187 89.7553C83.3465 89.4831 83.1936 89.1139 83.1936 88.7289V71.3095C83.1936 70.9245 83.3465 70.5553 83.6187 70.2831C83.891 70.0108 84.2602 69.8579 84.6452 69.8579C85.0302 69.8579 85.3994 70.0108 85.6716 70.2831C85.9439 70.5553 86.0968 70.9245 86.0968 71.3095V88.7289C86.0968 89.1139 85.9439 89.4831 85.6716 89.7553C85.3994 90.0276 85.0302 90.1805 84.6452 90.1805Z" fill="white"/>
<path d="M63.4032 78.1903C63.0182 78.1903 62.649 78.0373 62.3768 77.7651C62.1045 77.4929 61.9516 77.1236 61.9516 76.7386V59.3193C61.9516 58.9343 62.1045 58.5651 62.3768 58.2928C62.649 58.0206 63.0182 57.8677 63.4032 57.8677C63.7882 57.8677 64.1574 58.0206 64.4297 58.2928C64.7019 58.5651 64.8548 58.9343 64.8548 59.3193V76.7386C64.8548 77.1236 64.7019 77.4929 64.4297 77.7651C64.1574 78.0373 63.7882 78.1903 63.4032 78.1903Z" fill="white"/>
<defs>
<linearGradient id="paint0_linear_29_491" x1="148.78" y1="74.39" x2="0" y2="74.39" gradientUnits="userSpaceOnUse">
<stop stop-color="#3B3B3B"/>
<stop offset="1" stop-color="#191919"/>
</linearGradient>
</defs>
</svg>
