<svg xmlns="http://www.w3.org/2000/svg" width="55" height="55" viewBox="0 0 55 55">
  <g id="Group_2479" data-name="Group 2479" transform="translate(-847 -3083)">
    <circle id="Ellipse_18" data-name="Ellipse 18" cx="27.5" cy="27.5" r="27.5" transform="translate(847 3083)" fill="#f3f3f3"/>
    <g id="CUSTOMIZATION" transform="translate(834 3085.423)">
      <g id="Group_8324" data-name="Group 8324" transform="translate(26.5 10)">
        <path id="Path_7025" data-name="Path 7025" d="M26.5,10h7.615v7.615H26.5V10Z" transform="translate(-26.5 -10)" fill="#f48120"/>
        <path id="Path_7026" data-name="Path 7026" d="M110.548,115.452h-1.822c-.179-.373-.418-1.135-.732-1.687l1.284-1.254a1.018,1.018,0,0,0,0-1.448l-1.463-1.463a1.036,1.036,0,0,0-1.463,0l-1.209,1.284a16.493,16.493,0,0,0-1.687-.717v-1.822a1.183,1.183,0,0,0-1.18-1.045H100.2a1.171,1.171,0,0,0-1.18,1.045v1.822c-.373.164-1.135.418-1.687.717L96.081,109.6a1.018,1.018,0,0,0-1.448,0l-1.463,1.463a1.036,1.036,0,0,0,0,1.463l1.284,1.209a16.5,16.5,0,0,0-.717,1.687H91.945A1.183,1.183,0,0,0,90.9,116.6v2.075a1.171,1.171,0,0,0,1.045,1.179h1.822c.179.373.418,1.135.732,1.687L93.214,122.8a1.018,1.018,0,0,0,0,1.448l1.463,1.463a1.036,1.036,0,0,0,1.463,0l1.209-1.284a16.5,16.5,0,0,0,1.687.717v1.822a1.183,1.183,0,0,0,1.18,1.045h2.075a1.171,1.171,0,0,0,1.18-1.045v-1.822c.373-.179,1.135-.418,1.687-.732l1.254,1.284a1.018,1.018,0,0,0,1.448,0l1.463-1.463a1.036,1.036,0,0,0,0-1.463l-1.284-1.209a16.5,16.5,0,0,0,.717-1.687h1.822a1.183,1.183,0,0,0,1.045-1.18v-2.075a1.219,1.219,0,0,0-1.075-1.165Zm-9.287,6.883a4.658,4.658,0,1,1,4.658-4.658,4.664,4.664,0,0,1-4.658,4.658Z" transform="translate(-81.285 -92.773)" fill="#f48120"/>
        <path id="Path_7027" data-name="Path 7027" d="M93.4,10h7.615v7.615H93.4Z" transform="translate(-83.412 -10)" fill="#f48120"/>
        <path id="Path_7028" data-name="Path 7028" d="M160.3,10h7.615v7.615H160.3Z" transform="translate(-140.323 -10)" fill="#f48120"/>
        <path id="Path_7029" data-name="Path 7029" d="M26.5,77.3h7.615v7.615H26.5V77.3Z" transform="translate(-26.5 -67.252)" fill="#f48120"/>
        <path id="Path_7030" data-name="Path 7030" d="M26.5,144.7h7.615v7.615H26.5V144.7Z" transform="translate(-26.5 -124.589)" fill="#f48120"/>
        <path id="Path_7031" data-name="Path 7031" d="M160.584,80a11.969,11.969,0,0,1,7.331,2.493V77.3H160.3V80Z" transform="translate(-140.323 -67.252)" fill="#f48120"/>
        <path id="Path_7032" data-name="Path 7032" d="M100.915,80.386V77.4H93.3v7.615h.612A11.754,11.754,0,0,1,100.915,80.386Z" transform="translate(-83.326 -67.337)" fill="#f48120"/>
      </g>
    </g>
  </g>
</svg>
