<svg xmlns="http://www.w3.org/2000/svg" width="60" height="60" viewBox="0 0 60 60">
  <g id="Group_529" data-name="Group 529" transform="translate(-678 -5975)">
    <circle id="Ellipse_14" data-name="Ellipse 14" cx="30" cy="30" r="30" transform="translate(678 5975)" fill="#fff2e8"/>
    <g id="license-third-party-draft-svgrepo-com" transform="translate(691.264 5985.265)">
      <path id="Path_9237" data-name="Path 9237" d="M32.051,19.856l-3.513-3.513a1.17,1.17,0,0,0-1.656,0L16,27.225v5.169h5.169L32.051,21.512a1.17,1.17,0,0,0,0-1.656ZM20.2,30.052H18.342V28.195L24.2,22.34,26.054,24.2Zm7.511-7.511-1.857-1.857,1.857-1.857,1.857,1.857Z" transform="translate(2.736 2.736)" fill="#f48120"/>
      <path id="Path_9238" data-name="Path 9238" d="M18.539,15H11.513A3.513,3.513,0,0,0,8,18.513v1.171h2.342V18.513a1.171,1.171,0,0,1,1.171-1.171h7.026a1.171,1.171,0,0,1,1.171,1.171v1.171h2.342V18.513A3.513,3.513,0,0,0,18.539,15Z" transform="translate(1.368 2.565)" fill="#f48120"/>
      <path id="Path_9239" data-name="Path 9239" d="M14.684,15.368A4.684,4.684,0,1,0,10,10.684,4.684,4.684,0,0,0,14.684,15.368Zm0-7.026a2.342,2.342,0,1,1-2.342,2.342A2.342,2.342,0,0,1,14.684,8.342Z" transform="translate(1.71 1.026)" fill="#f48120"/>
      <path id="Path_9240" data-name="Path 9240" d="M13.368,34.787H6.342A2.344,2.344,0,0,1,4,32.445V4.342A2.344,2.344,0,0,1,6.342,2H25.078a2.344,2.344,0,0,1,2.342,2.342v11.71H25.078V4.342H6.342v28.1h7.026Z" transform="translate(0.684 0.342)" fill="#f48120"/>
      <rect id="_Transparent_Rectangle_" data-name="&lt;Transparent Rectangle&gt;" width="38" height="38" transform="translate(-0.264 -0.264)" fill="none"/>
    </g>
  </g>
</svg>
