<svg xmlns="http://www.w3.org/2000/svg" width="60" height="60" viewBox="0 0 60 60">
  <g id="training-process" transform="translate(-678 -5700)">
    <circle id="Ellipse_14" data-name="Ellipse 14" cx="30" cy="30" r="30" transform="translate(678 5700)" fill="#fff2e8"/>
    <g id="noun-workout-5662845" transform="translate(681.821 5704.479)">
      <path id="Path_9157" data-name="Path 9157" d="M35.7,14.7a3.589,3.589,0,1,0-3.589-3.589A3.593,3.593,0,0,0,35.7,14.7Zm0-5.737a2.148,2.148,0,1,1-2.148,2.148A2.15,2.15,0,0,1,35.7,8.962Z" transform="translate(-5.853)" fill="#f48120"/>
      <path id="Path_9158" data-name="Path 9158" d="M40.459,20.841H38.052a.72.72,0,0,0-.72.72v3.518L31.421,26.3a.72.72,0,0,0-.558.86l.517,2.348a.72.72,0,0,0,.7.566.743.743,0,0,0,.146-.015l2.185-.451v8.163h-9.2l4.36-6.295a3.405,3.405,0,0,0-.948-4.795l-2.2-1.427,1.585-2.69.706.424a3.121,3.121,0,0,0,2.6.288L35.3,21.956A1.969,1.969,0,0,0,34.107,18.2l-3.52,1.053-3.219-2.042,0,0a3.479,3.479,0,0,0-.559-.334,2.942,2.942,0,0,0-.682-.236l-.046-.008h-.006l-5.542-.673a3.324,3.324,0,0,0-2.587.794l-3.128,2.724a1.967,1.967,0,0,0,0,2.957,1.964,1.964,0,0,0,1.3.493,2,2,0,0,0,1.257-.447l2.846-2.349,1.359.18-1.968,4a3.1,3.1,0,0,0-.172.465l0,0L16.8,30.539,13.222,33.1A2.188,2.188,0,0,0,15.717,36.7l4.666-3.136a.721.721,0,0,0,.225-.243l2.333-4.114,1.977.833-3.784,5.719a2.252,2.252,0,0,0-.232,2.014H14.888l-.021,0a3.688,3.688,0,1,0,0,7.375l.028,0H36.884l.028,0a3.677,3.677,0,0,0,1.631-6.978V28.755l2.06-.426a.728.728,0,0,0,.577-.709V21.562A.72.72,0,0,0,40.459,20.841Zm-11.6-.979,1.239.786a.718.718,0,0,0,.592.082l3.835-1.147a.528.528,0,0,1,.321,1.005l-3.979,1.323a1.677,1.677,0,0,1-1.4-.155l-.788-.474a3.568,3.568,0,0,0,.2-1.149C28.874,20.041,28.861,19.952,28.854,19.862Zm-9.416,12.6L14.913,35.5a.746.746,0,0,1-1.092-.3.747.747,0,0,1,.241-.925L17.8,31.6a.718.718,0,0,0,.236-.286l1.8-3.944a3,3,0,0,0,1.316,1.083l.453.191Zm2.9,4.092L26.6,30.11a.721.721,0,0,0-.321-1.062L21.71,27.123a1.574,1.574,0,0,1-.871-.907,1.592,1.592,0,0,1,.06-1.268l2.41-4.9a.743.743,0,0,0-.329-.965c-.174-.085-2.7-.4-2.887-.421a.73.73,0,0,0-.554.158l-3.082,2.544a.531.531,0,0,1-.692-.806l3.122-2.719a1.858,1.858,0,0,1,1.467-.45l5.5.669a1.547,1.547,0,0,1,.322.115,2.148,2.148,0,0,1,.945,3.062l-2.287,3.881a.72.72,0,0,0,.229.97l2.78,1.8a1.965,1.965,0,0,1,.547,2.766l-4.714,6.806a.8.8,0,0,1-.439.308h-.469a.806.806,0,0,1-.436-1.219ZM14.895,43.7h-.026l-.01,0a2.246,2.246,0,0,1,0-4.492l.008,0h.019a2.244,2.244,0,0,1,.007,4.489Zm19.111,0H17.772a3.609,3.609,0,0,0,0-4.489H34.007a3.609,3.609,0,0,0,0,4.489Zm5.153-2.244A2.248,2.248,0,0,1,36.923,43.7l-.008,0h-.031a2.244,2.244,0,0,1,.007-4.489h.042A2.248,2.248,0,0,1,39.158,41.457Zm-3.3-3.686V29.311l1.246-.258v8.718h-.169l-.021,0-.021,0H35.855Zm3.883-10.735-7.1,1.468-.207-.941L38.2,26.372a.72.72,0,0,0,.575-.706V22.282h.966v4.755Z" transform="translate(0 -2.353)" fill="#f48120"/>
    </g>
  </g>
</svg>
