<svg xmlns="http://www.w3.org/2000/svg" width="60" height="60" viewBox="0 0 60 60">
  <g id="Group_8515" data-name="Group 8515" transform="translate(0 -70)">
    <g id="Group_524" data-name="Group 524" transform="translate(0 -0.118)">
      <circle id="Ellipse_14" data-name="Ellipse 14" cx="30" cy="30" r="30" transform="translate(0 70.118)" fill="#fff2e8"/>
    </g>
    <g id="guide" transform="translate(14 81)">
      <g id="Group_8478" data-name="Group 8478">
        <path id="Path_9243" data-name="Path 9243" d="M33.3,7.4H25.9V4.317h5.55a.583.583,0,0,0,.617-.617,3.634,3.634,0,0,0-3.7-3.7H3.7A3.578,3.578,0,0,0,0,3.7V36.383A.583.583,0,0,0,.617,37h29.6a.583.583,0,0,0,.617-.617V11.717h5.55A.583.583,0,0,0,37,11.1,3.634,3.634,0,0,0,33.3,7.4ZM30.772,3.083h-4.81a3.772,3.772,0,0,1,.308-.74l.062-.062a.481.481,0,0,1,.247-.247l.123-.123a.851.851,0,0,1,.247-.185c.062,0,.062-.062.123-.062a.471.471,0,0,1,.308-.123c.062,0,.062-.062.123-.062.123-.062.247-.062.308-.123h.123c.123,0,.308-.062.493-.062A2.323,2.323,0,0,1,30.772,3.083ZM1.233,3.7A2.36,2.36,0,0,1,3.7,1.233H25.592A3.677,3.677,0,0,0,24.667,3.7V7.4H8.633a3.578,3.578,0,0,0-3.7,3.7V35.767h-3.7ZM29.6,35.767H6.167V11.1A2.36,2.36,0,0,1,8.633,8.633H30.525A3.677,3.677,0,0,0,29.6,11.1Zm1.3-25.283a3.772,3.772,0,0,1,.308-.74l.062-.062a.481.481,0,0,1,.247-.247l.123-.123a.851.851,0,0,1,.247-.185c.062,0,.062-.062.123-.062a.471.471,0,0,1,.308-.123c.062,0,.062-.062.123-.062.123-.062.247-.062.308-.123h.123c.123,0,.308-.062.493-.062a2.461,2.461,0,0,1,2.4,1.85H30.9Z" fill="#f48120"/>
        <path id="Path_9244" data-name="Path 9244" d="M32.117,35H29.033v1.233H31.5v4.933H24.1a.583.583,0,0,0-.617.617V46.1h-1.85V43.017a.583.583,0,0,0-.617-.617H14.233V41.167H13v5.55a.583.583,0,0,0,.617.617h18.5a.583.583,0,0,0,.617-.617v-11.1A.583.583,0,0,0,32.117,35ZM14.233,43.633H20.4V46.1H14.233ZM24.717,46.1V42.4H31.5v3.7Z" transform="translate(-4.983 -13.417)" fill="#f48120"/>
        <path id="Path_9245" data-name="Path 9245" d="M14.233,36.233h11.1V35H13.617a.583.583,0,0,0-.617.617v1.85h1.233Z" transform="translate(-4.983 -13.417)" fill="#f48120"/>
        <path id="Path_9246" data-name="Path 9246" d="M27.417,36.633V30.1l.8.8.863-.863-1.85-1.85a.6.6,0,0,0-.863,0l-1.85,1.85.863.863.8-.8v5.92H12V37.25H26.8A.583.583,0,0,0,27.417,36.633Z" transform="translate(-4.6 -10.733)" fill="#f48120"/>
        <rect id="Rectangle_2795" data-name="Rectangle 2795" width="1" transform="translate(21 31)" fill="#f48120"/>
        <rect id="Rectangle_2796" data-name="Rectangle 2796" width="1" transform="translate(24 31)" fill="#f48120"/>
        <rect id="Rectangle_2797" data-name="Rectangle 2797" width="4" height="1" transform="translate(8 11)" fill="#f48120"/>
        <rect id="Rectangle_2798" data-name="Rectangle 2798" width="11" height="1" transform="translate(8 14)" fill="#f48120"/>
        <rect id="Rectangle_2799" data-name="Rectangle 2799" width="4" height="1" transform="translate(18 3)" fill="#f48120"/>
        <rect id="Rectangle_2800" data-name="Rectangle 2800" width="7" height="1" transform="translate(15 5)" fill="#f48120"/>
        <rect id="Rectangle_2801" data-name="Rectangle 2801" width="1" height="1" transform="translate(24 11)" fill="#f48120"/>
        <rect id="Rectangle_2802" data-name="Rectangle 2802" width="1" height="1" transform="translate(27 11)" fill="#f48120"/>
        <rect id="Rectangle_2803" data-name="Rectangle 2803" width="1" height="1" transform="translate(24 14)" fill="#f48120"/>
        <rect id="Rectangle_2804" data-name="Rectangle 2804" width="1" height="1" transform="translate(27 14)" fill="#f48120"/>
      </g>
    </g>
  </g>
</svg>
