<svg xmlns="http://www.w3.org/2000/svg" width="60" height="60" viewBox="0 0 60 60">
  <g id="Group_8487" data-name="Group 8487" transform="translate(-964 -3476)">
    <g id="Group_520" data-name="Group 520" transform="translate(312 -1178)">
      <circle id="Ellipse_14" data-name="Ellipse 14" cx="30" cy="30" r="30" transform="translate(652 4654)" fill="#fff2e8"/>
    </g>
    <g id="support-technology-svgrepo-com" transform="translate(977.598 3480.667)">
      <g id="Group_8486" data-name="Group 8486" transform="translate(0 12)">
        <g id="Group_8485" data-name="Group 8485">
          <path id="Path_9266" data-name="Path 9266" d="M27.773,23.6a11.572,11.572,0,1,0-23.145-.029V23.6A4.912,4.912,0,0,0,0,28.49v.579a4.914,4.914,0,0,0,4.918,4.918h.26l2.054,3.269a7.738,7.738,0,0,0,6.625,3.674h.405a2.314,2.314,0,1,0,0-1.157h-.405A6.6,6.6,0,0,1,8.216,36.62L6.538,33.987h.405A1.161,1.161,0,0,0,8.1,32.83v-8.1a1.161,1.161,0,0,0-1.157-1.157H5.786a10.415,10.415,0,0,1,20.83,0H25.459A1.161,1.161,0,0,0,24.3,24.729v8.1a1.161,1.161,0,0,0,1.157,1.157h2.025A4.914,4.914,0,0,0,32.4,29.069V28.49A4.912,4.912,0,0,0,27.773,23.6ZM16.49,39.195a1.157,1.157,0,1,1-1.157,1.157A1.161,1.161,0,0,1,16.49,39.195ZM6.943,24.729v8.1H4.918a3.753,3.753,0,0,1-3.761-3.761V28.49a3.753,3.753,0,0,1,3.761-3.761Zm24.3,4.34a3.753,3.753,0,0,1-3.761,3.761H25.459v-8.1h2.025a3.753,3.753,0,0,1,3.761,3.761Z" transform="translate(0 -12)" fill="#f48120"/>
          <path id="Path_9267" data-name="Path 9267" d="M273.466,67.547a2.673,2.673,0,0,1-.231-.145,2.664,2.664,0,0,0-.231-.145.544.544,0,0,0-.781.2.568.568,0,0,0,.2.781,2.668,2.668,0,0,1,.231.145,1.173,1.173,0,0,0,.26.145.558.558,0,0,0,.289.087.537.537,0,0,0,.492-.289A.584.584,0,0,0,273.466,67.547Z" transform="translate(-252.463 -63.178)" fill="#f48120"/>
          <path id="Path_9268" data-name="Path 9268" d="M140.628,52a8.379,8.379,0,0,0-6.365,2.922.587.587,0,0,0,.058.81.609.609,0,0,0,.376.145.521.521,0,0,0,.434-.2,7.3,7.3,0,0,1,5.5-2.517,7.182,7.182,0,0,1,1.562.174.614.614,0,0,0,.694-.434.6.6,0,0,0-.434-.694A7.824,7.824,0,0,0,140.628,52Z" transform="translate(-124.427 -49.107)" fill="#f48120"/>
        </g>
      </g>
    </g>
  </g>
</svg>
