<svg xmlns="http://www.w3.org/2000/svg" width="60" height="60" viewBox="0 0 60 60">
  <g id="Group_8525" data-name="Group 8525" transform="translate(-420 -2405)">
    <circle id="Ellipse_14" data-name="Ellipse 14" cx="30" cy="30" r="30" transform="translate(420 2405)" fill="#fff2e8"/>
    <g id="social-media" transform="translate(433 2409.869)">
      <g id="Group_8482" data-name="Group 8482" transform="translate(5.268 13.639)">
        <g id="Group_8481" data-name="Group 8481">
          <path id="Path_9264" data-name="Path 9264" d="M99.687,73.188a2.72,2.72,0,0,0-1.048-2.057,2.731,2.731,0,0,0-2.477-3.882H93l.016-3.821a2.794,2.794,0,0,0-5.367-1.1,32.378,32.378,0,0,1-2.085,3.815,2.332,2.332,0,0,1-1.975,1.1H73.557V82.563H95.368a2.731,2.731,0,0,0,2.482-3.869,2.729,2.729,0,0,0,.8-3.282,2.776,2.776,0,0,0,.269-.243A2.711,2.711,0,0,0,99.687,73.188Zm-20.525,7.2H75.735V69.427h3.427Zm18.191-6.735a.55.55,0,0,1-.4.167H93.986v2.178h2.177a.553.553,0,0,1,0,1.106H93.986v2.178h1.382a.553.553,0,0,1,0,1.106H81.341V69.427h2.245a4.524,4.524,0,0,0,3.832-2.143,35.834,35.834,0,0,0,2.234-4.1.619.619,0,0,1,.569-.38.615.615,0,0,1,.615.618l-.026,6.009h5.353a.553.553,0,0,1,0,1.106H93.986v2.178h2.937a.575.575,0,0,1,.587.537A.551.551,0,0,1,97.353,73.649Z" transform="translate(-73.557 -60.622)" fill="#f48120"/>
        </g>
      </g>
      <g id="Group_8484" data-name="Group 8484" transform="translate(0 10.015)">
        <g id="Group_8483" data-name="Group 8483">
          <path id="Path_9265" data-name="Path 9265" d="M0,10.015V39.93H14.419l3.915,5.317,3.915-5.317H36.667V10.015ZM34.488,37.752H21.146l-2.813,3.821L15.52,37.752H2.178V12.193h32.31Z" transform="translate(0 -10.015)" fill="#f48120"/>
        </g>
      </g>
    </g>
  </g>
</svg>
