<svg xmlns="http://www.w3.org/2000/svg" xmlns:xlink="http://www.w3.org/1999/xlink" width="45" height="45" viewBox="0 0 45 45">
  <defs>
    <linearGradient id="linear-gradient" x1="0.5" x2="0.156" y2="0.791" gradientUnits="objectBoundingBox">
      <stop offset="0" stop-color="#3e3e3e"/>
      <stop offset="1" stop-color="#1a1a1a"/>
    </linearGradient>
  </defs>
  <g id="Group_8486" data-name="Group 8486" transform="translate(-370 -363)">
    <circle id="Ellipse_1" data-name="Ellipse 1" cx="22.5" cy="22.5" r="22.5" transform="translate(370 363)" fill="url(#linear-gradient)"/>
    <g id="search-globe" transform="translate(379.666 372.18)">
      <path id="Path_9085" data-name="Path 9085" d="M22,11.82a10,10,0,1,0-10,10" transform="translate(0 0)" fill="none" stroke="#fff" stroke-linecap="round" stroke-linejoin="round" stroke-width="1.5"/>
      <path id="Path_9086" data-name="Path 9086" d="M2,11.82H22" transform="translate(0 0)" fill="none" stroke="#fff" stroke-linecap="round" stroke-linejoin="round" stroke-width="1.5"/>
      <path id="Path_9087" data-name="Path 9087" d="M12,21.82c-1.93,0-3.5-4.48-3.5-10s1.57-10,3.5-10,3.5,4.48,3.5,10" transform="translate(0 0)" fill="none" stroke="#fff" stroke-linecap="round" stroke-linejoin="round" stroke-width="1.5"/>
      <path id="Path_9088" data-name="Path 9088" d="M18.369,21.69a3.5,3.5,0,1,0-3.5-3.5A3.5,3.5,0,0,0,18.369,21.69Z" transform="translate(0 0)" fill="none" stroke="#fff" stroke-linecap="round" stroke-linejoin="round" stroke-width="1.5"/>
      <path id="Path_9089" data-name="Path 9089" d="M23,22.82l-2.16-2.15" transform="translate(0 0)" fill="none" stroke="#fff" stroke-linecap="round" stroke-linejoin="round" stroke-width="1.5"/>
    </g>
  </g>
</svg>
