<svg xmlns="http://www.w3.org/2000/svg" width="60" height="60" viewBox="0 0 60 60">
  <g id="Group_8500" data-name="Group 8500" transform="translate(-678 -6094)">
    <circle id="Ellipse_14" data-name="Ellipse 14" cx="30" cy="30" r="30" transform="translate(678 6094)" fill="#fff2e8"/>
    <g id="customer-evaluation-review" transform="translate(692 6105)">
      <path id="Path_9163" data-name="Path 9163" d="M37,14.225V9.839l-2.165-.555A9.272,9.272,0,0,0,34.181,7.7L35.32,5.781l-3.1-3.1L30.3,3.818a9.234,9.234,0,0,0-1.582-.654L28.16,1H23.775L23.22,3.165a9.272,9.272,0,0,0-1.582.654L19.717,2.68l-.641.642H10.29V2.742A1.744,1.744,0,0,0,8.548,1H6.226A1.744,1.744,0,0,0,4.484,2.742v.581H1V37H27.71V23.065h.451l.555-2.165a9.272,9.272,0,0,0,1.582-.654l1.922,1.139,3.1-3.1-1.139-1.922a9.234,9.234,0,0,0,.654-1.582ZM9.129,18.419H7.968V9.129H9.129ZM5.645,9.129H6.806v9.29H5.645Zm2.98,10.452L7.387,21.437,6.149,19.581Zm.5-11.613H5.645V6.806H9.129ZM7.387,23.531l1.859-2.789H10.29v4.645H4.484V20.742H5.528ZM6.226,2.161H8.548a.581.581,0,0,1,.581.581v2.9H5.645v-2.9A.581.581,0,0,1,6.226,2.161ZM26.548,35.839H2.161V4.484H4.484V19.176l.27.4H3.323v6.968h8.129V19.581H10.02l.27-.4V4.484h7.624l-1.3,1.3L17.755,7.7A9.234,9.234,0,0,0,17.1,9.285l-2.166.555v4.386l2.165.555a9.272,9.272,0,0,0,.654,1.582l-1.139,1.922,3.1,3.1,1.922-1.139a9.234,9.234,0,0,0,1.582.654l.555,2.165h2.773ZM33.9,13.821l-.088.327a8.071,8.071,0,0,1-.8,1.934l-.17.294L33.861,18.1l-1.827,1.827L30.311,18.9l-.294.17a8.071,8.071,0,0,1-1.934.8l-.327.088-.5,1.942H24.677l-.5-1.942-.327-.088a8.071,8.071,0,0,1-1.934-.8l-.294-.17L19.9,19.926,18.075,18.1,19.1,16.375l-.17-.294a8.071,8.071,0,0,1-.8-1.934l-.088-.327-1.943-.5V10.741l1.942-.5.088-.327a8.071,8.071,0,0,1,.8-1.934l.17-.294L18.074,5.966,19.9,4.14l1.723,1.021.294-.17a8.071,8.071,0,0,1,1.934-.8l.327-.088.5-1.943h2.582l.5,1.942.327.088a8.071,8.071,0,0,1,1.934.8l.294.17,1.723-1.021L33.86,5.966,32.839,7.689l.17.294a8.071,8.071,0,0,1,.8,1.934l.088.327,1.943.5v2.582Z" fill="#f48120"/>
      <path id="Path_9164" data-name="Path 9164" d="M38.968,8a6.968,6.968,0,1,0,6.968,6.968A6.975,6.975,0,0,0,38.968,8Zm0,12.774a5.806,5.806,0,1,1,5.806-5.806A5.813,5.813,0,0,1,38.968,20.774Z" transform="translate(-13 -2.935)" fill="#f48120"/>
      <path id="Path_9165" data-name="Path 9165" d="M40.645,12a4.645,4.645,0,1,0,4.645,4.645A4.651,4.651,0,0,0,40.645,12Zm0,8.129a3.484,3.484,0,1,1,3.484-3.484A3.487,3.487,0,0,1,40.645,20.129Z" transform="translate(-14.677 -4.613)" fill="#f48120"/>
      <path id="Path_9166" data-name="Path 9166" d="M13.3,45.293l-.991.991H5v6.968h8.129V47.105l.991-.991Zm-1.331,6.8H6.161V47.445h4.985L8.484,50.108l-.751-.751-.821.821L8.484,51.75l3.484-3.484Z" transform="translate(-1.677 -18.574)" fill="#f48120"/>
      <rect id="Rectangle_2761" data-name="Rectangle 2761" width="1" height="1" transform="translate(24 34)" fill="#f48120"/>
      <rect id="Rectangle_2762" data-name="Rectangle 2762" width="10" height="1" transform="translate(13 34)" fill="#f48120"/>
      <rect id="Rectangle_2763" data-name="Rectangle 2763" width="12" height="1" transform="translate(13 31)" fill="#f48120"/>
      <rect id="Rectangle_2764" data-name="Rectangle 2764" width="12" height="1" transform="translate(13 29)" fill="#f48120"/>
      <rect id="Rectangle_2765" data-name="Rectangle 2765" width="10" height="2" transform="translate(13 25)" fill="#f48120"/>
      <rect id="Rectangle_2766" data-name="Rectangle 2766" width="10" height="1" transform="translate(13 23)" fill="#f48120"/>
      <rect id="Rectangle_2767" data-name="Rectangle 2767" width="4" height="1" transform="translate(13 21)" fill="#f48120"/>
    </g>
  </g>
</svg>
