<svg xmlns="http://www.w3.org/2000/svg" width="60" height="60" viewBox="0 0 60 60">
  <g id="Group_8492" data-name="Group 8492" transform="translate(0 -0.118)">
    <circle id="Ellipse_14" data-name="Ellipse 14" cx="30" cy="30" r="30" transform="translate(0 0.118)" fill="#fff2e8"/>
    <g id="global-distribution-symbol" transform="translate(12.545 12.679)">
      <g id="Group_8406" data-name="Group 8406" transform="translate(0 0.106)">
        <path id="Path_9134" data-name="Path 9134" d="M29.854,1.756A7.6,7.6,0,0,0,18.873,3.428c-2.553,3.643-.649,7.451-2.71,12.346a.532.532,0,0,0,.7.7c5.425-2.286,9.52.3,13.53-3.711A7.438,7.438,0,0,0,29.854,1.756Zm-1.945,8.525a3.928,3.928,0,1,1,0-5.555A3.928,3.928,0,0,1,27.909,10.282Z" transform="translate(2.342 -0.106)" fill="#f48120"/>
        <path id="Path_9135" data-name="Path 9135" d="M31.545,14.733a8.689,8.689,0,0,1-1.9.8c.013.054.027.107.039.16A30.187,30.187,0,0,0,26.7,17.286c-.3-.426-.616-.81-.927-1.213l-.279.015c-.718.034-1.448.071-2.193.152.574.685,1.135,1.405,1.673,2.166a33.852,33.852,0,0,0-4.142,3.42L17.511,18.5l1.248-1.249a1.611,1.611,0,0,1-1.4-1.489l-1.3,1.3L12.58,13.573A38.731,38.731,0,0,0,15.86,9.5c.813.565,1.664,1.206,2.529,1.91.088-.772.126-1.527.164-2.27,0-.078.008-.156.011-.235-.527-.4-1.049-.785-1.555-1.133a34.355,34.355,0,0,0,1.709-3.046c.144.029.284.08.427.113a8.626,8.626,0,0,1,.861-1.9A16.012,16.012,0,0,0,4.67,7.105h0A15.951,15.951,0,0,0,0,18.135c0,.1,0,.488,0,.586A15.944,15.944,0,0,0,4.67,29.752h0a16.028,16.028,0,0,0,22.644,0h0a15.939,15.939,0,0,0,4.669-11.03c0-.1,0-.488,0-.586A16.058,16.058,0,0,0,31.545,14.733ZM16.069,19.948l3.337,3.337a38.975,38.975,0,0,0-3.358,4.176,34.122,34.122,0,0,1-4.1-3.4ZM14.626,18.5l-4.1,4.1a39.868,39.868,0,0,1-3.4-4.232,33.785,33.785,0,0,0,4.022-3.344ZM16.541,4.487c-.306.575-.722,1.311-1.254,2.16-1.134-.7-2.15-1.258-2.987-1.681A14.045,14.045,0,0,1,16.541,4.487ZM9.657,5.982A35.393,35.393,0,0,1,14.138,8.37a37.838,37.838,0,0,1-3.02,3.743L6.869,7.863A13.913,13.913,0,0,1,9.657,5.982ZM5.427,9.306,9.7,13.574a31.935,31.935,0,0,1-3.7,3.084,35.776,35.776,0,0,1-2.447-4.567A13.82,13.82,0,0,1,5.427,9.306Zm-2.9,5.427c.434.857,1.006,1.9,1.732,3.067q-1.058.644-2.208,1.216A13.013,13.013,0,0,1,2.529,14.734Zm.079,7.7a.147.147,0,0,0-.008-.024c-.123-.412-.222-.834-.306-1.255a30.36,30.36,0,0,0,3.09-1.648,40.528,40.528,0,0,0,3.671,4.572L5.5,27.632A13.866,13.866,0,0,1,2.608,22.432Zm10.662,9.7a13.884,13.884,0,0,1-6.321-3.062l3.537-3.535a36.063,36.063,0,0,0,4.43,3.651A33.709,33.709,0,0,0,13.27,32.129Zm2.176.242c.294-.554.689-1.256,1.195-2.065a32.791,32.791,0,0,0,2.963,1.6A13.984,13.984,0,0,1,15.446,32.371Zm6.88-1.492A30.388,30.388,0,0,1,17.773,28.6a37.719,37.719,0,0,1,3.095-3.85l4.249,4.249A13.9,13.9,0,0,1,22.326,30.879Zm4.233-3.326-4.27-4.27A32.108,32.108,0,0,1,26.1,20.117a30.554,30.554,0,0,1,2.338,4.644A13.836,13.836,0,0,1,26.559,27.553Zm2.918-5.514A33.051,33.051,0,0,0,27.821,19q1.015-.613,2.112-1.157A12.953,12.953,0,0,1,29.477,22.038Z" transform="translate(0 0.232)" fill="#f48120"/>
      </g>
    </g>
  </g>
</svg>
