<svg xmlns="http://www.w3.org/2000/svg" width="35.538" height="34.243" viewBox="0 0 35.538 34.243">
  <g id="umbraco-service6" transform="translate(-63.45 -70.587)">
    <path id="Path_10468" data-name="Path 10468" d="M-28.517-.232l.316,0h1.6c.249,0,.5,0,.748,0,.3,0,.6,0,.893,0l.339,0,.314,0h.276a.576.576,0,0,1,.4.163A1.436,1.436,0,0,1-23.521.994,2.8,2.8,0,0,1-24.654,2.7c-.55.32-.55.32-.9.32l0,.207c.006.314.009.627.013.941l.007.326A3.575,3.575,0,0,1-26.1,6.717l.162.112a3.538,3.538,0,0,1,1.5,2.2,2.9,2.9,0,0,1,0,.554l.3.035c.314.038.623.092.934.15a15.658,15.658,0,0,0,2.892.177,4.242,4.242,0,0,1,3.153.972,1.566,1.566,0,0,1,.473,1.344H-10.6l.092-.831A3.055,3.055,0,0,1-8.693,10.1a6.064,6.064,0,0,1,1.7-.143,19.081,19.081,0,0,0,2.094-.086l.221-.022A9.562,9.562,0,0,0-3.4,9.616a2.026,2.026,0,0,1,.557-.037c0-.056,0-.112,0-.169a3.362,3.362,0,0,1,1.1-2.323,5.54,5.54,0,0,1,.554-.369l-.1-.189-.127-.25-.127-.247a2.5,2.5,0,0,1-.211-1.168c0-.107,0-.214,0-.325s0-.223,0-.338,0-.226,0-.342q0-.418,0-.835l-.218-.04A2.317,2.317,0,0,1-3.349,1.963,2.674,2.674,0,0,1-3.77.07a.616.616,0,0,1,.5-.313l.274,0,.311,0H-2q.457,0,.914,0l.556,0c.358,0,.715,0,1.073,0l.333,0a3.092,3.092,0,0,1,2.293.88A2.656,2.656,0,0,1,3.907,2.43c0,.071,0,.141,0,.214-.021.2-.021.2-.206.473H3.429l.006.206c.008.312.012.624.017.937,0,.107.006.213.009.323a3.45,3.45,0,0,1-.4,1.857l-.185.185.248.19a2.8,2.8,0,0,1,.952,1.471,5.177,5.177,0,0,1,.025.608c0,.181,0,.181,0,.366q0,.2,0,.4t0,.422q0,.571,0,1.143,0,.357,0,.714,0,1.245,0,2.49,0,1.161,0,2.322,0,1,0,1.994,0,.6,0,1.191,0,.559,0,1.119,0,.205,0,.411c0,.187,0,.373,0,.56,0,.1,0,.209,0,.317a.556.556,0,0,1-.212.429,1.493,1.493,0,0,1-.849.1c0,.076,0,.151,0,.229q.011,1.068.017,2.135,0,.549.009,1.1.006.53.007,1.059,0,.2,0,.4c0,.189,0,.377,0,.566,0,.107,0,.215,0,.326a.821.821,0,0,1-.414.645.852.852,0,0,1-.707-.1,1.114,1.114,0,0,1-.155-.773c0-.06,0-.121,0-.183,0-.2,0-.4,0-.6q0-.207,0-.415,0-.546.007-1.091c0-.437,0-.873.006-1.31q0-.995.013-1.989l-5.814.092a20.305,20.305,0,0,0-.706,5.072c0,.117,0,.233,0,.353,0,.1,0,.2.007.31a.8.8,0,0,1-.409.634,2.33,2.33,0,0,1-.588.046l-.361,0-.389,0h-.4q-.419,0-.837,0c-.358,0-.715,0-1.073,0q-.413,0-.825,0h-.4c-.184,0-.369,0-.553,0l-.318,0a.626.626,0,0,1-.431-.163,1.669,1.669,0,0,1-.1-1.165,3.377,3.377,0,0,1,1.39-2.025,2.227,2.227,0,0,1,.675-.265l.242-.11a10.635,10.635,0,0,0,.3-1.427l.031-.2.066-.415q.07-.442.141-.883.132-.819.262-1.639.09-.573.184-1.145.035-.217.069-.435c.031-.2.064-.4.1-.607l.055-.349a1.139,1.139,0,0,1,.634-.763L-7,17.706l.217-.092.232-.1.241-.1.764-.319.51-.215.942-.395.19-.079c.32-.128.643-.246.965-.367l.092-2.862-.738.185a6.417,6.417,0,0,1-.738,0c0,.066,0,.131,0,.2.006.3.009.594.013.891,0,.155,0,.155.007.313,0,.1,0,.2,0,.3s0,.183,0,.277a.552.552,0,0,1-.16.4,1.635,1.635,0,0,1-1.125.215H-5.83l-.811,0h-.5l-1.856,0-4.188-.006V28.134h.646a.765.765,0,0,1,.369.369,1.72,1.72,0,0,1-.092.646,2.46,2.46,0,0,1-1.471.219l-.334.007h-.321l-.293,0a.82.82,0,0,1-.627-.414,1.724,1.724,0,0,1,.092-.646c.277-.185.277-.185.831-.185V15.949c-2.717.007-2.717.007-5.434.017h-.772l-.515,0h-.781l-.232,0c-.661,0-.661,0-.942-.208a1.314,1.314,0,0,1-.1-.687v-.3l0-.316c0-.1,0-.21,0-.318q0-.389,0-.778l-.252-.019-.29-.022L-24,13.3a.885.885,0,0,1-.445-.121l.092,2.862.748.3.729.3.5.2q.71.288,1.415.587c.186.077.372.147.561.215a2.655,2.655,0,0,1,.753.424,1.927,1.927,0,0,1,.151.527l.064.325.061.347.062.345q.079.46.153.922.048.3.1.607.086.533.172,1.066.138.858.277,1.716.048.3.1.6l.059.364.051.321a.846.846,0,0,0,.14.434,2.7,2.7,0,0,0,.375.162,3.422,3.422,0,0,1,1.875,1.956,3.768,3.768,0,0,1,.058,1.3.8.8,0,0,1-.277.277,2.923,2.923,0,0,1-.576.037l-.36,0h-1.627c-.358,0-.715,0-1.073,0q-.413,0-.825,0l-.4,0c-.184,0-.369,0-.553,0h-.318a.838.838,0,0,1-.639-.416,2.246,2.246,0,0,1-.034-.575c0-.175,0-.175,0-.353l0-.188a19.888,19.888,0,0,0-.708-4.884l-5.814-.092.01,1.343q0,.421,0,.842,0,.668.007,1.337,0,.539.005,1.077,0,.206,0,.411c0,.192,0,.384,0,.576l0,.331a.644.644,0,0,1-.157.442.852.852,0,0,1-.707.1.821.821,0,0,1-.414-.645l0-.326c0-.059,0-.119,0-.18,0-.2,0-.392.006-.587q0-.2,0-.408,0-.536.009-1.073c0-.365.005-.73.007-1.1q.006-1.074.018-2.148l-.3.017a.792.792,0,0,1-.715-.294,2.151,2.151,0,0,1-.047-.571l0-.362q0-.2,0-.4t0-.419q0-.57,0-1.139c0-.4,0-.8,0-1.193q0-1,0-2.005,0-1.157,0-2.315,0-.995,0-1.989,0-.594,0-1.187,0-.559,0-1.118,0-.2,0-.409a3.21,3.21,0,0,1,.787-2.495c.151-.127.3-.251.461-.369l-.1-.149-.127-.2-.127-.195a2.088,2.088,0,0,1-.211-1.128V4.631l0-.338c0-.113,0-.226,0-.342q0-.418,0-.835l-.179-.035-.19-.058a1.8,1.8,0,0,1-.032-1.25,3.227,3.227,0,0,1,1.509-1.8A2.872,2.872,0,0,1-28.517-.232Zm-1.372,2.149v.092q.791.01,1.581.015l.537.006c.258,0,.516,0,.775.006l.241,0A2.3,2.3,0,0,0-25,1.363a2.006,2.006,0,0,0,.092-.369Q-25.738.98-26.57.973l-.566-.008c-.272,0-.543-.007-.815-.008l-.254-.006A1.874,1.874,0,0,0-29.889,1.917Zm27.5-.923a1.213,1.213,0,0,0,.5.715l.164.114a1.791,1.791,0,0,0,.929.2h.727l.8,0h.542l1.327,0A2.314,2.314,0,0,0,1.583.994C1.455.985,1.326.983,1.2.983H.43l-.844,0H-.984ZM-29.52,3.209l-.023,1.027-.01.321a1.791,1.791,0,0,0,.6,1.543,1.786,1.786,0,0,0,1.09.248,1.9,1.9,0,0,0,1.015-.831,2.024,2.024,0,0,0,.1-.748V4.521l0-.314-.006-1Zm28.98,0c-.006.324-.011.647-.017.981,0,.1-.005.2-.008.306A1.918,1.918,0,0,0-.021,6.054a1.581,1.581,0,0,0,1.142.294,1.93,1.93,0,0,0,1.015-.831,1.264,1.264,0,0,0,.1-.667c0-.086,0-.172,0-.26,0-.109,0-.218,0-.331,0-.52,0-.52-.006-1.05ZM-30.016,8.183a3.094,3.094,0,0,0-.253,1.532c0,.067,0,.133,0,.2q0,.328,0,.656,0,.229,0,.457,0,.6,0,1.2,0,.72,0,1.441,0,1.093,0,2.186h4.615V12.9l-1.32-.348-.248-.067-.255-.067a.7.7,0,0,1-.392-.256,5.519,5.519,0,0,1,0-.739,3.423,3.423,0,0,1,1.869.208,20.04,20.04,0,0,0,5.716.64l.7,0q.843,0,1.686-.013a1.086,1.086,0,0,0-.461-.739,3.911,3.911,0,0,0-1.967-.369,12.534,12.534,0,0,1-6.708-1.477,7.815,7.815,0,0,1,.554-.831l.213.046a1.441,1.441,0,0,0,.525.046A2.571,2.571,0,0,0-27.3,7.548a6.61,6.61,0,0,0-.923-.04l-.242-.006A1.746,1.746,0,0,0-30.016,8.183Zm28.83.1a2.841,2.841,0,0,0-.369.739,3.537,3.537,0,0,0,.635-.294,1.418,1.418,0,0,1,.842.017,1.8,1.8,0,0,1,0,.739,3.507,3.507,0,0,1-1.108.687l-.19.084a11.926,11.926,0,0,1-3.9.851l-.218.012c-.5.026-1.007.029-1.512.022a3.517,3.517,0,0,0-2.209.56c-.21.26-.21.26-.185.554q1.029.014,2.057.02l.7.008a17.478,17.478,0,0,0,4.352-.4l.357-.084c.378-.094.753-.2,1.129-.3l.271-.072.235-.065a1.4,1.4,0,0,1,.685.058l.185.185a5.443,5.443,0,0,1-.092.646,16.968,16.968,0,0,1-2.123.646v2.954H2.967c.005-1.2.005-1.2.009-2.392q0-.732,0-1.465,0-.591,0-1.182,0-.225,0-.45,0-.316,0-.632c0-.12,0-.239,0-.363a2.161,2.161,0,0,0-.576-1.548A2.382,2.382,0,0,0,.96,7.5H.711A2.39,2.39,0,0,0-1.186,8.286Zm-20.766,5.17v1.292H-5.524V13.456Zm-8.306,3.6v1.569l.381.091c4.217,1.012,4.217,1.012,5.837,1.4l.323.078c.758.183.758.183,1.119.274l.032.166c.325,1.676.693,3.34,1.075,5h1.938c-.087-.862-.184-1.72-.3-2.579-.053-.4-.1-.8-.14-1.2a5.084,5.084,0,0,0-.924-3.208,6.618,6.618,0,0,0-2.01-.775,5.538,5.538,0,0,1-1.021-.42,7.973,7.973,0,0,0-3.842-.452l-.722.01Q-29.385,17.032-30.258,17.056ZM-6.447,18.81l-.185.092a4.232,4.232,0,0,0-.123.629l-.033.2q-.054.327-.1.655l-.074.453q-.1.6-.192,1.194t-.2,1.218q-.194,1.2-.385,2.391H-5.8c.58-2.579.58-2.579,1.108-5.17l.238-.056q1.86-.437,3.719-.881L.271,19.3l.987-.235.373-.089.518-.123.3-.071a3.585,3.585,0,0,0,.52-.153V17.056A16.131,16.131,0,0,0-6.447,18.81Zm-23.811,1.015v1.846h6.737l-.092-.277a2.408,2.408,0,0,0-.561-.166l-.177-.043c-.194-.047-.389-.093-.584-.138l-.405-.1q-.535-.129-1.07-.254l-.87-.208-1.04-.249-.2-.048-.563-.133-.323-.076C-29.689,19.922-29.974,19.873-30.258,19.826Zm32.522.14-.193.045q-.881.206-1.762.415L-.876,20.7q-.572.133-1.144.269l-.437.1q-.305.071-.61.144l-.351.083-.259.093-.092.277H2.967V19.826A3.269,3.269,0,0,0,2.264,19.966ZM-21.4,26.75v1.385h4.153a1.928,1.928,0,0,0-1.1-1.219,3.25,3.25,0,0,0-1.225-.175h-.324l-.335,0h-.341Zm11.629.739a1.019,1.019,0,0,0-.277.646h4.153V26.75q-.571-.011-1.142-.017l-.323-.007A3.013,3.013,0,0,0-9.769,27.488Z" transform="translate(94.866 75.446)"/>
    <path id="Path_10469" data-name="Path 10469" d="M-8.368-.029l.339,0,.372,0h.392q.532,0,1.064,0H-3.22q1.081,0,2.161,0,.927,0,1.855,0H1.9q.521,0,1.042,0h.383c.174,0,.348,0,.522,0h.3a.652.652,0,0,1,.411.15A.834.834,0,0,1,4.7.686c0,.082,0,.165,0,.249,0,.135,0,.135,0,.273s0,.143,0,.288c0,.315,0,.63,0,.944q0,.327,0,.655,0,.687,0,1.373,0,.881,0,1.763,0,.676,0,1.352,0,.325,0,.65,0,.454,0,.907c0,.09,0,.18,0,.273,0,.123,0,.123,0,.249,0,.072,0,.143,0,.217a.642.642,0,0,1-.312.463,1.972,1.972,0,0,1-.472.031H3.623l-.314,0H2.988q-.509,0-1.018-.009l-.69,0q-.846,0-1.692-.013l-.077.245a10.4,10.4,0,0,1-.656,1.387l-.151.292-.146.28-.133.254a1.665,1.665,0,0,1-.407.494,1.125,1.125,0,0,1-.554,0,4.442,4.442,0,0,1-.668-1l-.16-.308-.164-.319-.168-.322c-.408-.79-.408-.79-.408-1l-.18,0q-.927.009-1.855.013l-.693.006q-.5.005-.994.006l-.314,0h-.291l-.256,0a.616.616,0,0,1-.492-.31,1.474,1.474,0,0,1-.035-.4l0-.249,0-.273V8.853c0-.315,0-.63,0-.944q0-.327,0-.655,0-.687,0-1.373,0-.881,0-1.763,0-.676,0-1.352,0-.325,0-.65,0-.454,0-.907l0-.273,0-.249V.469A.63.63,0,0,1-9.074.122,1.054,1.054,0,0,1-8.368-.029Zm.387,1.235V9.143c1.441.016,1.441.016,2.883.027l.542.009h.284c.66.013.66.013.955.219A5.328,5.328,0,0,1-2.964,10l.11.224.111.231.115.235q.14.286.277.572h.185l.08-.166q.181-.373.364-.745l.126-.262.123-.251.113-.231c.116-.19.116-.19.393-.375a2.634,2.634,0,0,1,.438-.029L-.256,9.2l.286,0,.263,0,.973-.015,2.2-.035V1.206Z" transform="translate(83.479 70.619)"/>
    <path id="Path_10470" data-name="Path 10470" d="M-11.524-.021h.25c.273,0,.546,0,.818,0H-8.7q.764,0,1.528,0,.586,0,1.173,0h.563q.393,0,.787,0l.236,0c.531.006.531.006.725.164A.837.837,0,0,1-3.47.753a1.246,1.246,0,0,1-.369.461,4.488,4.488,0,0,1-.815.06l-.249,0c-.272,0-.544,0-.816,0h-.567q-.594,0-1.188,0c-.508,0-1.015,0-1.523,0q-.585,0-1.171,0h-.562c-.262,0-.523,0-.785,0l-.235,0A.985.985,0,0,1-12.566,1a.646.646,0,0,1-.127-.484C-12.468-.062-12.08-.025-11.524-.021Z" transform="translate(89.305 77.257)"/>
    <path id="Path_10471" data-name="Path 10471" d="M-6.218-.046q.231,0,.463,0l.255,0c.279,0,.558,0,.836,0h.58q.608,0,1.217,0c.521,0,1.041,0,1.561,0q.6,0,1.2,0H.469c.268,0,.536,0,.8,0l.241,0A2.8,2.8,0,0,1,2.1.013a.87.87,0,0,1,.277.7c-.128.3-.255.358-.554.5a7.365,7.365,0,0,1-.791.036H.791c-.259,0-.518,0-.777,0H-1.66q-.726,0-1.451,0-.558,0-1.117,0h-.535c-.249,0-.5,0-.748,0l-.223,0A1.456,1.456,0,0,1-6.763.936a.777.777,0,0,1-.005-.7C-6.579.013-6.579.013-6.218-.046Z" transform="translate(83.462 75.227)"/>
    <path id="Path_10472" data-name="Path 10472" d="M-12.481-.035l.243,0c.265,0,.53,0,.795,0h.553q.58,0,1.159,0c.5,0,.99,0,1.485,0q.571,0,1.142,0h.548c.255,0,.51,0,.765,0l.228,0A1.141,1.141,0,0,1-4.7.241a.613.613,0,0,1,.18.54c-.092.26-.092.26-.369.444-.272.018-.535.025-.806.024H-8.523q-.764,0-1.528,0h-2.759a1.254,1.254,0,0,1-.847-.21A1.1,1.1,0,0,1-13.75.486,1.233,1.233,0,0,1-12.481-.035Z" transform="translate(90.356 73.092)"/>
  </g>
</svg>
