<svg xmlns="http://www.w3.org/2000/svg" xmlns:xlink="http://www.w3.org/1999/xlink" width="45" height="45" viewBox="0 0 45 45">
  <defs>
    <linearGradient id="linear-gradient" x1="0.5" x2="0.156" y2="0.791" gradientUnits="objectBoundingBox">
      <stop offset="0" stop-color="#3e3e3e"/>
      <stop offset="1" stop-color="#1a1a1a"/>
    </linearGradient>
  </defs>
  <g id="Group_8365" data-name="Group 8365" transform="translate(-370 -363)">
    <g id="Group_8364" data-name="Group 8364">
      <g id="banner-main1" transform="translate(370 363)">
        <circle id="Ellipse_1" data-name="Ellipse 1" cx="22.5" cy="22.5" r="22.5" fill="url(#linear-gradient)"/>
      </g>
    </g>
    <g id="coaching_12077752" transform="translate(324 868.924)">
      <path id="Path_9279" data-name="Path 9279" d="M126.915-496.878a1.634,1.634,0,0,0-.933.791l-.034.119h-2.866c-1.8,0-2.945.023-3.075.057a1.486,1.486,0,0,0-.848.729l-.158.311v2.165c0,2.335,0,2.346.305,2.747a1.677,1.677,0,0,0,.927.52l.237.04v.554c0,.622.085.808.39.876.249.051.418-.062,1.136-.786l.65-.656h.441a1.067,1.067,0,0,1,.424.04,4.452,4.452,0,0,0-.628,2.391,3.477,3.477,0,0,0,.153,1.215,4.569,4.569,0,0,0,3.087,3.092,5.788,5.788,0,0,0,2.374.028,4.812,4.812,0,0,0,2.29-1.442,4.492,4.492,0,0,0-.062-5.919l-.311-.367h.215c.2,0,.266.045.865.656.876.876,1.046.961,1.362.65.158-.164.164-.181.164-.735v-.565l.254-.034a1.618,1.618,0,0,0,1.018-.673l.17-.277.017-2.227c.017-2.171.011-2.227-.107-2.5a1.427,1.427,0,0,0-.35-.481c-.43-.373-.4-.367-3.85-.362C128.458-496.923,126.994-496.9,126.915-496.878Zm6.473.707a.8.8,0,0,1,.311.271c.107.175.113.283.113,2.239,0,2.233-.006,2.267-.322,2.47a1.255,1.255,0,0,1-.571.13c-.531.034-.577.09-.577.746v.481l-.594-.594-.594-.594-.95-.034a3.563,3.563,0,0,1-1.419-.209,4.46,4.46,0,0,0-.8-.209l-.328-.04-.017-1.7-.017-1.707-.17-.3c-.153-.283-.548-.633-.7-.633-.034,0-.062-.023-.062-.045,0-.062.232-.271.339-.311.045-.017,1.453-.034,3.126-.034A19.252,19.252,0,0,1,133.388-496.171Zm-6.818.984c.384.2.4.3.4,2.086v1.594l-.266.04a4.8,4.8,0,0,0-2.273,1.046l-.4.334h-1.656l-.611.6-.616.6v-.481c0-.633-.062-.729-.481-.729a1,1,0,0,1-.876-.367c-.107-.175-.113-.277-.113-2.227,0-2.261.006-2.278.356-2.493.175-.107.305-.113,3.262-.113C126.174-495.289,126.394-495.284,126.57-495.187Zm1.713,4.472a3.85,3.85,0,0,1,2.8,2.776,4.71,4.71,0,0,1,0,1.866,3.862,3.862,0,0,1-3.714,2.883,3.826,3.826,0,0,1-3.658-2.685,3.979,3.979,0,0,1,.22-2.827A3.863,3.863,0,0,1,128.283-490.716Z" transform="translate(-58.495)" fill="#f5f5f5"/>
      <path id="Path_9280" data-name="Path 9280" d="M274.559-463.932a.316.316,0,0,0,.011.469l.141.141h4.364l.141-.141c.107-.107.13-.175.1-.271-.085-.271-.017-.266-2.425-.266A12.714,12.714,0,0,0,274.559-463.932Z" transform="translate(-205.167 -31.063)" fill="#f5f5f5"/>
      <path id="Path_9281" data-name="Path 9281" d="M280.57-432.859a.31.31,0,0,0-.011.464,29.152,29.152,0,0,0,4.33,0,.31.31,0,0,0-.011-.464l-.141-.141h-4.025Z" transform="translate(-210.828 -60.311)" fill="#f5f5f5"/>
      <path id="Path_9282" data-name="Path 9282" d="M150.165-447.91a.329.329,0,0,0-.023.492c.1.085.351.1,2.487.1h2.38l.085-.124a.3.3,0,0,0-.023-.441c-.107-.107-.187-.113-2.448-.113A9.009,9.009,0,0,0,150.165-447.91Z" transform="translate(-87.784 -46.159)" fill="#f5f5f5"/>
      <path id="Path_9283" data-name="Path 9283" d="M150.1-415.91a.345.345,0,0,0,.034.5,9.012,9.012,0,0,0,2.459.09c2.261,0,2.34-.006,2.448-.113a.3.3,0,0,0,.023-.441l-.085-.124h-2.4C150.475-416,150.176-415.989,150.1-415.91Z" transform="translate(-87.748 -76.35)" fill="#f5f5f5"/>
      <path id="Path_9284" data-name="Path 9284" d="M216.649-379.629c-.254.158-.311.4-.209.921.1.548.1.746-.017.848a.528.528,0,0,1-.6.073,2.314,2.314,0,0,0-.927-.073c-.995.028-.916-.124-.916,1.826,0,1.47.006,1.6.1,1.685s.237.1.921.1a5.232,5.232,0,0,0,.882-.045,1.716,1.716,0,0,1,.594.09,5.228,5.228,0,0,0,2.307.045,1.2,1.2,0,0,0,.718-.4c.4-.4.486-.707.458-1.606-.023-.775-.113-1.012-.492-1.283a1.026,1.026,0,0,0-.69-.192l-.447-.017v-.362c0-.995-.43-1.594-1.215-1.69A.586.586,0,0,0,216.649-379.629Zm.735.741c.2.158.266.43.266,1.142,0,.786-.006.78.763.78.82,0,.842.017.865.842.034.978-.124,1.215-.916,1.357a4.344,4.344,0,0,1-2.08-.2l-.271-.09v-.984c0-.916.006-.984.1-.984a1.35,1.35,0,0,0,.825-.4c.277-.305.322-.684.17-1.4C217.062-379.041,217.158-379.064,217.384-378.889Zm-2.052,2.827v1.131h-.678v-2.261h.678Z" transform="translate(-148.099 -110.578)" fill="#f5f5f5"/>
      <path id="Path_9285" data-name="Path 9285" d="M82.111-336.749a2.208,2.208,0,0,0-1.487,1.17,1.668,1.668,0,0,0-.124.831,1.454,1.454,0,0,0,.17.893,2.2,2.2,0,0,0,1.091,1,2.31,2.31,0,0,0,1.594-.062,2.114,2.114,0,0,0,.984-1.012,1.487,1.487,0,0,0,.17-.82,1.5,1.5,0,0,0-.175-.831,2,2,0,0,0-1.515-1.17A1.252,1.252,0,0,0,82.111-336.749Zm.961.774a1.431,1.431,0,0,1,.769,1.379,1.343,1.343,0,0,1-1.362,1.176,1.221,1.221,0,0,1-.984-.424,1.216,1.216,0,0,1-.345-.9,1.248,1.248,0,0,1,.356-.922A1.327,1.327,0,0,1,83.072-335.975Z" transform="translate(-22.171 -151.072)" fill="#f5f5f5"/>
      <path id="Path_9286" data-name="Path 9286" d="M362.193-336.347a1.977,1.977,0,0,0-1.43,1.153,1.419,1.419,0,0,0-.175.831,1.489,1.489,0,0,0,.175.82,2.128,2.128,0,0,0,.978,1.012,1.587,1.587,0,0,0,.876.147,1.471,1.471,0,0,0,.888-.164,2.168,2.168,0,0,0,.933-.938,1.459,1.459,0,0,0,.158-.876,1.53,1.53,0,0,0-.158-.888A2.07,2.07,0,0,0,362.193-336.347Zm1.018.769a1.334,1.334,0,0,1,.735,1.215,1.216,1.216,0,0,1-.345.9,1.225,1.225,0,0,1-.989.424,1.33,1.33,0,0,1-1.2-1.962A1.368,1.368,0,0,1,363.21-335.578Z" transform="translate(-286.424 -151.458)" fill="#f5f5f5"/>
      <path id="Path_9287" data-name="Path 9287" d="M80.331-262.841a1.477,1.477,0,0,0-.707.622l-.124.237v3.59c0,3.533,0,3.6.119,3.85a1.7,1.7,0,0,0,.8.825l.322.158,1.764.017,1.764.017.017,1.707c.017,1.6.023,1.724.136,1.967a1.574,1.574,0,0,0,1.492.927,1.134,1.134,0,0,0,.735-.175,1.52,1.52,0,0,0,.735-1.006c.04-.2.057-1.074.045-2.646l-.017-2.335-.187-.379a2.24,2.24,0,0,0-1.114-1.057,4.478,4.478,0,0,0-1.668-.119H83.09v-1.634l.243.107a8.564,8.564,0,0,0,2,.4c1.012.13,1.266.107,1.7-.141a1.027,1.027,0,0,0,.181-1.639c-.3-.322-.588-.435-1.662-.644-.5-.1-.961-.2-1.029-.232a4.527,4.527,0,0,1-1.249-1.351c-.842-1.114-.876-1.136-1.99-1.131A4.955,4.955,0,0,0,80.331-262.841Zm1.753.707a7.444,7.444,0,0,1,.746.893,3.987,3.987,0,0,0,1.419,1.413,9.106,9.106,0,0,0,1.2.311,5.918,5.918,0,0,1,1.085.283c.373.226.435.56.136.763-.2.136-.622.13-1.685-.028a5.25,5.25,0,0,1-1.6-.379,8.482,8.482,0,0,1-.758-.848c-.7-.848-.825-.927-1.046-.678a.514.514,0,0,0-.13.232,4.191,4.191,0,0,0,.481.667l.481.594v1.385c0,1.374,0,1.391.124,1.476.107.079.367.09,1.656.09,1.357,0,1.549.011,1.753.107a1.449,1.449,0,0,1,.673.656c.119.22.119.277.119,2.629,0,2.4,0,2.4-.13,2.606a.826.826,0,0,1-.7.39,1.063,1.063,0,0,1-.8-.441c-.13-.2-.13-.243-.147-2.1-.017-1.639-.028-1.905-.107-1.99s-.243-.1-1.99-.1c-1.724,0-1.922-.011-2.126-.107a1.219,1.219,0,0,1-.328-.22c-.254-.283-.26-.373-.266-3.856,0-3.036.006-3.324.1-3.505.141-.288.288-.339,1.029-.339C81.807-262.236,81.959-262.219,82.084-262.134Z" transform="translate(-21.228 -220.786)" fill="#f5f5f5"/>
      <path id="Path_9288" data-name="Path 9288" d="M295.442-262.864a1.36,1.36,0,0,0-.413.294c-.068.09-.339.458-.6.814a4.112,4.112,0,0,1-1.119,1.21,7.363,7.363,0,0,1-1.08.266c-1.074.209-1.362.322-1.662.644-.65.7-.305,1.611.69,1.837a11.051,11.051,0,0,0,3.194-.452l.237-.107v1.634h-1.357a4.478,4.478,0,0,0-1.668.119,2.24,2.24,0,0,0-1.114,1.057l-.187.379-.017,2.335c-.011,1.572.006,2.442.045,2.646a1.52,1.52,0,0,0,.735,1.006,1.134,1.134,0,0,0,.735.175,1.574,1.574,0,0,0,1.492-.927c.113-.243.119-.367.136-1.967l.017-1.707,1.764-.017,1.764-.017.328-.164a1.805,1.805,0,0,0,.842-.921,31.852,31.852,0,0,0,.073-3.776c0-3.539,0-3.562-.124-3.788a1.187,1.187,0,0,0-.639-.588,2.219,2.219,0,0,0-1.018-.119A2.037,2.037,0,0,0,295.442-262.864Zm1.843.616a.648.648,0,0,1,.237.266c.1.181.1.469.1,3.505-.006,3.482-.011,3.573-.266,3.856a1.219,1.219,0,0,1-.328.22c-.2.1-.4.107-2.126.107-1.747,0-1.905.006-1.99.1s-.09.351-.107,1.99c-.017,1.86-.017,1.9-.147,2.1a1.075,1.075,0,0,1-.808.441.868.868,0,0,1-.7-.4c-.107-.187-.113-.294-.113-2.595,0-2.352,0-2.408.119-2.629a1.449,1.449,0,0,1,.673-.656c.2-.1.4-.107,1.753-.107,1.289,0,1.549-.011,1.656-.09.124-.085.124-.1.124-1.475V-259l.481-.594a3.87,3.87,0,0,0,.481-.673.631.631,0,0,0-.351-.362c-.136,0-.226.1-.859.859a4.379,4.379,0,0,1-.837.854,9.967,9.967,0,0,1-2.052.407c-.854.107-1.119.062-1.272-.215a.239.239,0,0,1,0-.305c.158-.288.4-.384,1.368-.577a9.008,9.008,0,0,0,1.2-.311,3.987,3.987,0,0,0,1.419-1.413,7.441,7.441,0,0,1,.746-.893c.124-.085.277-.1.8-.1A2.607,2.607,0,0,1,297.285-262.248Z" transform="translate(-220.046 -220.7)" fill="#f5f5f5"/>
      <path id="Path_9289" data-name="Path 9289" d="M57.113-182.814c-.107.107-.113.187-.113,1.826,0,1.866.028,2.114.328,2.657a3.461,3.461,0,0,0,.475.611l.322.322-.254,1.82c-.136,1.006-.237,1.871-.22,1.922a.43.43,0,0,0,.43.2c.164-.051.2-.17.3-.876.051-.356.107-.707.119-.78l.028-.124h3.505v.82c0,.814,0,.82.141.91a.315.315,0,0,0,.481-.181,25.963,25.963,0,0,0-.017-3.754l-.073-.141-1.662-.028-1.668-.028-.379-.181a2.02,2.02,0,0,1-1-.972l-.147-.317-.028-1.826c-.028-1.73-.034-1.832-.136-1.911A.3.3,0,0,0,57.113-182.814Zm2.233,5.823c.215.028.91.057,1.543.057h1.148l-.017.492-.017.5-1.679.017-1.685.011v-.124c0-.074.028-.339.068-.6.051-.39.079-.464.153-.435A3.979,3.979,0,0,0,59.346-176.992Z" transform="translate(0 -296.25)" fill="#f5f5f5"/>
      <path id="Path_9290" data-name="Path 9290" d="M359.11-182.848c-.1.079-.107.181-.136,1.911l-.028,1.826-.147.317a2.02,2.02,0,0,1-1,.972l-.379.181-1.668.028-1.662.028-.073.141A25.971,25.971,0,0,0,354-173.69a.315.315,0,0,0,.481.181c.141-.09.141-.1.141-.91v-.82h3.505l.028.124c.011.074.068.418.113.769.1.7.141.831.311.888a.462.462,0,0,0,.43-.215c.011-.04-.09-.893-.226-1.9l-.254-1.826.322-.322a3.461,3.461,0,0,0,.475-.611c.3-.543.328-.791.328-2.657,0-1.639-.006-1.719-.113-1.826A.3.3,0,0,0,359.11-182.848Zm-1.165,6.207c.04.26.068.526.068.6v.124l-1.679-.011-1.685-.017-.017-.486-.017-.492,1.43-.028a15.927,15.927,0,0,0,1.6-.085,1.473,1.473,0,0,1,.2-.062A1.652,1.652,0,0,1,357.945-176.641Z" transform="translate(-280.153 -296.25)" fill="#f5f5f5"/>
      <path id="Path_9291" data-name="Path 9291" d="M145.214-168.887a.3.3,0,0,0-.023.441l.085.124h5.761v3.9c0,3.827,0,3.9.113,4.014a.391.391,0,0,0,.226.113.391.391,0,0,0,.226-.113c.113-.113.113-.187.113-4.014v-3.9h5.761l.085-.124a.3.3,0,0,0-.023-.441c-.113-.113-.187-.113-6.162-.113S145.327-169,145.214-168.887Z" transform="translate(-83.126 -309.386)" fill="#f5f5f5"/>
    </g>
  </g>
</svg>
