<svg xmlns="http://www.w3.org/2000/svg" width="35.372" height="35.388" viewBox="0 0 35.372 35.388">
  <g id="umbraco-service5" transform="translate(0.505 0.686)">
    <path id="Path_10473" data-name="Path 10473" d="M-201.726-.036l.2,0c.217,0,.433,0,.65,0h.456q.476,0,.953,0c.406,0,.811,0,1.217,0q.47,0,.94,0h.448c.209,0,.419,0,.628,0l.185,0a1.87,1.87,0,0,1,1.337.523,2.668,2.668,0,0,1,.488,2.005l.268.052a5.531,5.531,0,0,1,1.024.357l.188.082a16.56,16.56,0,0,1,3.524,2.081l.112.084a1.852,1.852,0,0,1,.256.244,1.821,1.821,0,0,0,1.538.465l.362-.009c1.6-.032,1.6-.032,2.18.5A2.069,2.069,0,0,1-184.2,7.88c0,.087,0,.087,0,.176,0,.062,0,.124,0,.188q0,.195,0,.39c0,.2,0,.395,0,.592q0,.191,0,.381c0,.058,0,.116,0,.176a2.684,2.684,0,0,1-.192.987c-.109.322.087.64.206.938a15.994,15.994,0,0,1,.853,2.913l.177.018a2.076,2.076,0,0,1,1.465.663,2.185,2.185,0,0,1,.39,1.445c0,.071,0,.142,0,.216q0,.225,0,.45c0,.228,0,.456.006.683q0,.22,0,.439c0,.067,0,.135,0,.2a2,2,0,0,1-.507,1.391,1.98,1.98,0,0,1-1.244.528l-.167.017-.126.012-.025.113a15.283,15.283,0,0,1-1.024,3.231,1.055,1.055,0,0,0,.086.727,3.3,3.3,0,0,1,.088.93c0,.062,0,.124,0,.188q0,.2,0,.392c0,.2,0,.4,0,.6q0,.192,0,.383c0,.059,0,.117,0,.178a2.059,2.059,0,0,1-.57,1.538,3,3,0,0,1-2.356.489,2.137,2.137,0,0,0-1.6.348q-.165.162-.325.33c-.084.069-.169.136-.257.2l-.114.086c-3.275,2.4-3.275,2.4-4.8,2.4l.007.189a2.47,2.47,0,0,1-.5,1.816,1.87,1.87,0,0,1-1.337.523l-.185,0-.2,0c-.217,0-.433,0-.65,0h-.456q-.476,0-.953,0c-.406,0-.811,0-1.217,0q-.47,0-.94,0h-.449c-.209,0-.419,0-.628,0l-.185,0a1.87,1.87,0,0,1-1.337-.523,2.668,2.668,0,0,1-.488-2.005l-.164-.018a12.255,12.255,0,0,1-5.567-3.161,1.2,1.2,0,0,0-.794-.159l-.355,0-.554,0c-1.439.008-1.439.008-2.017-.518a2.069,2.069,0,0,1-.572-1.535c0-.058,0-.116,0-.176s0-.124,0-.188q0-.195,0-.39c0-.2,0-.395,0-.592q0-.191,0-.381c0-.058,0-.116,0-.176a2.683,2.683,0,0,1,.192-.987c.109-.322-.087-.64-.206-.938a15.994,15.994,0,0,1-.853-2.913l-.177-.018a2.177,2.177,0,0,1-1.6-.813,2.248,2.248,0,0,1-.246-1.29c0-.071,0-.143,0-.216q0-.226,0-.452c0-.229,0-.458-.005-.687q0-.22,0-.441c0-.068,0-.136,0-.206a2.01,2.01,0,0,1,.439-1.343,2.215,2.215,0,0,1,1.3-.57l.167-.017.126-.012.025-.113a15.278,15.278,0,0,1,1.024-3.231,1.055,1.055,0,0,0-.086-.727,3.3,3.3,0,0,1-.088-.93c0-.062,0-.124,0-.188q0-.2,0-.392c0-.2,0-.4,0-.6q0-.192,0-.383l0-.178a2.06,2.06,0,0,1,.57-1.538,3,3,0,0,1,2.356-.489,2.14,2.14,0,0,0,1.6-.345q.166-.163.327-.332.132-.11.269-.215l.123-.1c1.176-.894,3.243-2.378,4.778-2.378l-.007-.189a2.471,2.471,0,0,1,.5-1.816A1.98,1.98,0,0,1-201.726-.036Zm-.6,1.417a1.253,1.253,0,0,0-.187.842c0,.056,0,.111,0,.168q0,.177,0,.353c0,.18,0,.359,0,.539q0,.172,0,.343l0,.162a1.051,1.051,0,0,0,.232.769,1.37,1.37,0,0,0,.858.157h2.011q.543,0,1.086,0h1.8l.167,0a1.108,1.108,0,0,0,.769-.234,1.288,1.288,0,0,0,.159-.848c0-.083,0-.083,0-.168q0-.175,0-.351c0-.179,0-.357,0-.535q0-.171,0-.342c0-.053,0-.106,0-.161a1.089,1.089,0,0,0-.234-.765,1.593,1.593,0,0,0-.731-.081h-.186l-.611,0h-.211l-1.1,0q-.571,0-1.141-.006l-.876,0-.421,0c-.2,0-.392,0-.588,0l-.176,0A.847.847,0,0,0-202.322,1.381Zm8.1,2.419-.028.189-.037.246-.036.245a1.905,1.905,0,0,1-.106.423l.123.051.562.237.193.081a5.079,5.079,0,0,1,.86.443,2.552,2.552,0,0,0,1.4.174l.29,0q.353-.006.7-.017C-191.246,5.1-192.954,3.8-194.223,3.8Zm-13.442,2v.069a4.471,4.471,0,0,0,2.876-.4,3.888,3.888,0,0,1,.808-.392l.452-.172-.207-1.1C-204.948,3.8-206.72,5.094-207.665,5.8Zm3.171.827.044.132a6.325,6.325,0,0,1,.189,1.9c0,.185,0,.37,0,.554,0,1.491,0,1.491-.45,1.991l-.108.127a2.585,2.585,0,0,1-1.76.441l-.28,0c-.244,0-.488,0-.731.005l-.749.007q-.732.008-1.464.011a15.764,15.764,0,0,0-.784,1.68l-.1.256a6.56,6.56,0,0,0-.222.959l.205,0c.254,0,.508.007.762.012l.328,0a2.674,2.674,0,0,1,1.862.485,1.861,1.861,0,0,1,.508,1.179l0,.186,0,.2c0,.069,0,.137,0,.208q0,.218,0,.436c0,.221,0,.442.007.663q0,.212,0,.425l0,.2a1.992,1.992,0,0,1-.468,1.363,2.1,2.1,0,0,1-1.407.517l-.157,0-.5.013-.336.009-.823.021a7.02,7.02,0,0,0,.4,1.409l.067.181a7.47,7.47,0,0,0,.442.95l.112.2.085.153h.155q.727,0,1.454.009.374,0,.747,0t.723.005c.136,0,.271,0,.407,0a2.152,2.152,0,0,1,1.645.614,3.328,3.328,0,0,1,.41,2.137c0,.185,0,.369,0,.554a5.565,5.565,0,0,1-.235,1.846l.582.263.164.075.164.073.148.067a3.832,3.832,0,0,0,1.523.313l.209,0c.227,0,.454,0,.681,0l.478,0,1,0c.424,0,.849,0,1.273.01.33,0,.659,0,.989,0l.469,0a6.626,6.626,0,0,0,3.348-.823l-.044-.132a6.325,6.325,0,0,1-.189-1.9c0-.185,0-.37,0-.554,0-1.491,0-1.491.45-1.991l.108-.127a2.585,2.585,0,0,1,1.76-.441l.28,0c.244,0,.487,0,.731-.005l.749-.007q.732-.008,1.464-.011a15.788,15.788,0,0,0,.784-1.68l.1-.256a6.551,6.551,0,0,0,.222-.959l-.205,0q-.381,0-.762-.012l-.328,0a2.674,2.674,0,0,1-1.862-.485,1.86,1.86,0,0,1-.508-1.179l0-.186c0-.1,0-.1,0-.2,0-.069,0-.137,0-.208q0-.218,0-.436c0-.221,0-.442-.007-.663q0-.212,0-.425c0-.065,0-.131,0-.2a1.927,1.927,0,0,1,.481-1.367l.172-.146.134-.116a1.993,1.993,0,0,1,1.109-.257l.156,0,.489-.01.333-.008.813-.018a7.021,7.021,0,0,0-.4-1.409l-.067-.181a7.457,7.457,0,0,0-.442-.95l-.112-.2-.085-.153h-.155q-.727,0-1.454-.009-.374,0-.747,0t-.723-.005c-.136,0-.271,0-.407,0a2.152,2.152,0,0,1-1.645-.614,3.328,3.328,0,0,1-.41-2.137c0-.185,0-.369,0-.554a5.564,5.564,0,0,1,.235-1.846l-.582-.263-.164-.074-.164-.073-.148-.067a3.832,3.832,0,0,0-1.523-.313l-.209,0c-.227,0-.454,0-.681,0l-.478,0-1,0c-.424,0-.849,0-1.273-.01-.33,0-.659,0-.989,0l-.469,0A6.625,6.625,0,0,0-204.494,6.626Zm-7.927.758a1.565,1.565,0,0,0-.085.712c0,.057,0,.114,0,.173q0,.182,0,.363c0,.185,0,.369-.007.554q0,.177,0,.353c0,.055,0,.11,0,.167a.974.974,0,0,0,.164.641c.265.255.512.219.862.22h.182l.6,0h.206l1.078,0q.557,0,1.114.006l.856,0,.411,0c.192,0,.383,0,.575,0l.171,0a1.017,1.017,0,0,0,.641-.162,1.162,1.162,0,0,0,.222-.906c0-.054,0-.108,0-.164q0-.171,0-.342c0-.174,0-.348,0-.522q0-.167,0-.333l0-.157a1.063,1.063,0,0,0-.232-.757,1.232,1.232,0,0,0-.794-.158h-.182l-.6,0h-1.282q-.556,0-1.112,0l-.855,0-.41,0c-.191,0-.382,0-.574,0l-.171,0A.907.907,0,0,0-212.421,7.384Zm19.99,0a2.318,2.318,0,0,0-.083.758c0,.054,0,.108,0,.164q0,.171,0,.342c0,.174,0,.348-.005.522q0,.167,0,.333c0,.052,0,.1,0,.157a1.063,1.063,0,0,0,.232.757,1.232,1.232,0,0,0,.794.158h.182l.6,0h1.282q.556,0,1.112,0l.855,0,.41,0c.191,0,.382,0,.574,0l.171,0a.987.987,0,0,0,.64-.167c.253-.263.221-.509.224-.857,0-.086,0-.086,0-.173q0-.182,0-.363c0-.185,0-.369.007-.554q0-.177,0-.353l0-.167a.974.974,0,0,0-.164-.641c-.265-.255-.512-.219-.862-.22h-.182l-.6,0h-.206l-1.078,0q-.557,0-1.114-.006l-.856,0-.411,0c-.192,0-.383,0-.575,0l-.171,0A.894.894,0,0,0-192.431,7.384Zm-19.99,4.343a8.8,8.8,0,0,0-.9,2.964h1.1l.089-.306a18.924,18.924,0,0,1,.788-2.238c.1-.2.1-.2.089-.352Zm26.22.034-.148.01-.361.024c.108.337.225.669.352,1,.24.624.431,1.253.613,1.9h1.1a8.842,8.842,0,0,0-.409-1.676l-.073-.215c-.124-.365-.256-.721-.414-1.073C-185.759,11.727-185.98,11.747-186.2,11.762Zm-29.184,4.515a.507.507,0,0,0-.045.287c0,.054,0,.108,0,.164s0,.115,0,.174,0,.12,0,.182q0,.189,0,.379c0,.193,0,.386,0,.579q0,.184,0,.369c0,.057,0,.115,0,.174l0,.164c0,.071,0,.071,0,.143a.875.875,0,0,0,.388.488,2.4,2.4,0,0,0,.611.043l.184,0c.2,0,.4,0,.6,0h.418q.438,0,.876,0,.562,0,1.124,0,.432,0,.864,0h.414c.193,0,.386,0,.579,0h.173a.845.845,0,0,0,.6-.17,1.265,1.265,0,0,0,.185-.859c0-.057,0-.115,0-.174q0-.182,0-.364c0-.185,0-.371,0-.556q0-.177,0-.354l0-.168a1.069,1.069,0,0,0-.155-.7,1.249,1.249,0,0,0-.8-.159l-.184,0-.6,0-.419,0-.878,0q-.562,0-1.125-.006-.432,0-.865,0l-.415,0c-.193,0-.387,0-.58,0l-.173,0A.8.8,0,0,0-215.385,16.277Zm26.023-.213a1.265,1.265,0,0,0-.185.859c0,.057,0,.115,0,.174q0,.182,0,.364c0,.185,0,.371,0,.556q0,.177,0,.354c0,.055,0,.111,0,.168a1.069,1.069,0,0,0,.155.7,1.249,1.249,0,0,0,.8.159l.184,0,.6,0,.419,0,.878,0q.563,0,1.125.006.432,0,.865,0l.415,0c.193,0,.387,0,.58,0l.173,0a.862.862,0,0,0,.646-.2.655.655,0,0,0,.182-.474c0-.054,0-.108,0-.164l0-.174c0-.06,0-.12,0-.182q0-.189,0-.379c0-.193,0-.386,0-.579q0-.184,0-.369c0-.057,0-.115,0-.174s0-.108,0-.164v-.143a.875.875,0,0,0-.388-.488,2.406,2.406,0,0,0-.611-.043l-.184,0c-.2,0-.4,0-.6,0h-.418q-.438,0-.876,0-.562,0-1.124,0-.432,0-.864,0h-.414c-.193,0-.386,0-.579,0h-.173A.844.844,0,0,0-189.362,16.064Zm-23.955,4.556a8.847,8.847,0,0,0,.409,1.676l.073.216c.125.367.261.715.414,1.073l1.172-.069q-.186-.562-.383-1.12c-.208-.588-.4-1.177-.582-1.775Zm27.573,0-.089.306a18.94,18.94,0,0,1-.788,2.238c-.1.2-.1.2-.089.352l1.172.069a8.827,8.827,0,0,0,.9-2.964Zm-26.677,4.412a1.565,1.565,0,0,0-.085.712c0,.057,0,.114,0,.173q0,.182,0,.363c0,.185,0,.369-.007.554q0,.176,0,.353c0,.055,0,.11,0,.167a.974.974,0,0,0,.164.641c.265.255.512.219.862.22h.182l.6,0h.206l1.078,0q.557,0,1.114.006l.856,0,.411,0c.192,0,.383,0,.575,0l.171,0a1.017,1.017,0,0,0,.641-.162,1.162,1.162,0,0,0,.222-.906c0-.054,0-.108,0-.164q0-.171,0-.342c0-.174,0-.348,0-.522q0-.167,0-.333l0-.157a1.063,1.063,0,0,0-.232-.757,1.232,1.232,0,0,0-.794-.158h-.182l-.6,0h-1.282q-.556,0-1.112,0l-.855,0-.41,0c-.191,0-.382,0-.574,0l-.171,0A.907.907,0,0,0-212.421,25.031Zm19.99,0a2.318,2.318,0,0,0-.083.758c0,.054,0,.108,0,.164q0,.171,0,.342c0,.174,0,.348-.005.522q0,.167,0,.333c0,.052,0,.1,0,.157a1.063,1.063,0,0,0,.232.757,1.232,1.232,0,0,0,.794.158h.182l.6,0h1.282q.556,0,1.112,0l.855,0,.41,0c.191,0,.382,0,.574,0l.171,0a.987.987,0,0,0,.64-.167c.253-.263.221-.509.224-.857,0-.086,0-.086,0-.173q0-.182,0-.363c0-.185,0-.369.007-.554q0-.176,0-.353l0-.167a.974.974,0,0,0-.164-.641c-.265-.255-.512-.219-.862-.22h-.182l-.6,0h-.206l-1.078,0q-.557,0-1.114-.006l-.856,0-.411,0c-.192,0-.383,0-.575,0l-.171,0A.894.894,0,0,0-192.431,25.031Zm-15.234,4.412c.952.767,2.66,2.068,3.929,2.068l.028-.189.037-.246.036-.245a1.906,1.906,0,0,1,.106-.423l-.123-.051-.562-.237-.193-.081a5.083,5.083,0,0,1-.86-.443,2.552,2.552,0,0,0-1.4-.175l-.29,0Q-207.313,29.432-207.665,29.443Zm14.5.4a3.887,3.887,0,0,1-.808.392l-.452.172.207,1.1a8.581,8.581,0,0,0,1.525-.59l.228-.11a14.924,14.924,0,0,0,1.762-1.023l.121-.078c.1-.064.2-.131.293-.2v-.069A4.471,4.471,0,0,0-193.17,29.844Zm-9.187.977a1.288,1.288,0,0,0-.159.848c0,.055,0,.111,0,.168q0,.175,0,.351c0,.179,0,.357,0,.535q0,.171,0,.342l0,.161a1.089,1.089,0,0,0,.234.765,1.594,1.594,0,0,0,.731.081h.186l.611,0h.211l1.1,0q.57,0,1.141.006l.876,0,.421,0c.2,0,.392,0,.588,0l.176,0a.847.847,0,0,0,.607-.166,1.253,1.253,0,0,0,.187-.842c0-.056,0-.111,0-.168q0-.177,0-.353c0-.18,0-.359,0-.539q0-.172,0-.343l0-.162a1.051,1.051,0,0,0-.232-.769,1.37,1.37,0,0,0-.858-.157h-2.011q-.543,0-1.086,0h-1.235c-.187,0-.373,0-.56,0l-.167,0A1.108,1.108,0,0,0-202.357,30.821Z" transform="translate(216.156 -0.647)"/>
    <path id="Path_10474" data-name="Path 10474" d="M-96.12-.045l.16,0a1.558,1.558,0,0,1,1.185.391,2.25,2.25,0,0,1,.236.594,1.051,1.051,0,0,0,.571.641,1.385,1.385,0,0,0,.915.138q.209-.093.413-.2a1.014,1.014,0,0,1,.734-.092,3.026,3.026,0,0,1,1.365,1.25,1.193,1.193,0,0,1,.083.749q-.1.212-.2.422a1.161,1.161,0,0,0-.017.987,1.408,1.408,0,0,0,.965.776,1.129,1.129,0,0,1,.649.625,3.734,3.734,0,0,1,.07.835c0,.053,0,.105,0,.16a1.558,1.558,0,0,1-.391,1.185,2.251,2.251,0,0,1-.594.236,1.051,1.051,0,0,0-.641.571,1.384,1.384,0,0,0-.138.915q.093.209.2.412a1.014,1.014,0,0,1,.092.734,3.026,3.026,0,0,1-1.25,1.365,1.2,1.2,0,0,1-.749.083q-.216-.095-.431-.194a.947.947,0,0,0-.7-.1,3.092,3.092,0,0,0-.423.2.548.548,0,0,1-.376.088l-.017.134a2,2,0,0,1-.672,1.176A2.418,2.418,0,0,1-96.1,14.2l-.16,0a1.558,1.558,0,0,1-1.185-.391,2.25,2.25,0,0,1-.236-.594,1.051,1.051,0,0,0-.571-.641,1.385,1.385,0,0,0-.915-.138q-.209.093-.413.2a1.014,1.014,0,0,1-.734.092,3.026,3.026,0,0,1-1.365-1.25,1.2,1.2,0,0,1-.083-.749q.094-.219.194-.435a.9.9,0,0,0,.1-.677,2.472,2.472,0,0,0-.2-.381c-.088-.161-.088-.161-.088-.437l-.134-.017a2,2,0,0,1-1.176-.672,2.417,2.417,0,0,1-.159-1.025c0-.053,0-.105,0-.16a1.558,1.558,0,0,1,.391-1.185,2.25,2.25,0,0,1,.594-.236,1.051,1.051,0,0,0,.641-.571,1.385,1.385,0,0,0,.138-.915q-.093-.209-.2-.413a1.014,1.014,0,0,1-.092-.734,3.026,3.026,0,0,1,1.25-1.365,1.2,1.2,0,0,1,.749-.083q.219.094.435.194a.9.9,0,0,0,.677.1,2.472,2.472,0,0,0,.38-.2c.161-.088.161-.088.437-.088l.017-.134A2,2,0,0,1-97.145.114,2.417,2.417,0,0,1-96.12-.045Zm-.336,1.262-.089.234-.123.3-.057.154a.834.834,0,0,1-.436.533l-.26.084q-.142.06-.284.123l-.144.063-.145.064-.149.065c-.261.114-.261.114-.518.236A1.871,1.871,0,0,1-99.709,2.8c-.187-.081-.187-.081-.347-.012a2.728,2.728,0,0,0-.4.364,6.05,6.05,0,0,0,.293.875,1.434,1.434,0,0,1-.215,1.081,3.61,3.61,0,0,0-.3.8.582.582,0,0,1-.269.383,5.666,5.666,0,0,1-.541.237l-.284.125-.2.082v.689l.234.091.3.124.154.059a.95.95,0,0,1,.538.4l.079.218.088.222.168.452a1.969,1.969,0,0,0,.2.431.981.981,0,0,1,.093.618c-.083.218-.182.424-.283.634-.081.187-.081.187-.012.347a2.73,2.73,0,0,0,.364.4l.121-.04.336-.111c.128-.043.254-.092.379-.142a1.543,1.543,0,0,1,1.12.215,3.252,3.252,0,0,0,.8.293.6.6,0,0,1,.4.313c.107.211.2.423.289.643l.08.2.058.146h.689l.089-.234.123-.3.057-.154a.835.835,0,0,1,.436-.533l.26-.084q.142-.06.284-.123l.144-.063.145-.063.149-.065c.261-.114.261-.114.518-.236a1.871,1.871,0,0,1,1.047.283c.187.081.187.081.347.011a1.7,1.7,0,0,0,.4-.363,2.7,2.7,0,0,0-.293-.848,1.5,1.5,0,0,1,.216-1.108,3.611,3.611,0,0,0,.3-.8.582.582,0,0,1,.269-.383,5.656,5.656,0,0,1,.541-.237l.284-.125.2-.082V6.731l-.234-.091-.3-.124-.154-.059a.95.95,0,0,1-.538-.4l-.079-.218-.088-.222-.168-.452a1.968,1.968,0,0,0-.2-.431.981.981,0,0,1-.093-.618c.083-.218.182-.424.283-.634.081-.187.081-.187.012-.347a2.728,2.728,0,0,0-.364-.4l-.121.04-.336.111c-.128.043-.254.092-.379.142a1.543,1.543,0,0,1-1.12-.215,3.61,3.61,0,0,0-.8-.3.582.582,0,0,1-.383-.269A5.668,5.668,0,0,1-95.56,1.7l-.125-.284-.082-.2Z" transform="translate(113.288 9.932)"/>
    <path id="Path_10475" data-name="Path 10475" d="M-79.141-10.07a3.82,3.82,0,0,1,1.31,2.318A3.742,3.742,0,0,1-78.5-5.1l-.123.163a3.73,3.73,0,0,1-2.273,1.268,3.932,3.932,0,0,1-2.934-.892,3.7,3.7,0,0,1-1.15-2.4L-85-7.235a3.69,3.69,0,0,1,.711-2.141l.123-.163A3.686,3.686,0,0,1-79.141-10.07Zm-3.977,1.245a2.418,2.418,0,0,0-.616,1.762,2.519,2.519,0,0,0,.95,1.719,2.443,2.443,0,0,0,1.755.418,2.493,2.493,0,0,0,1.62-1.051,2.486,2.486,0,0,0,.289-1.814,2.425,2.425,0,0,0-1.155-1.514A2.422,2.422,0,0,0-83.117-8.825Z" transform="translate(98.571 24.248)"/>
  </g>
</svg>
