<svg xmlns="http://www.w3.org/2000/svg" width="35.047" height="36.69" viewBox="0 0 35.047 36.69">
  <g id="umbraco-service4" transform="translate(-36.653 -26.845)">
    <path id="Path_10476" data-name="Path 10476" d="M-181.671-.035a5.793,5.793,0,0,1,4,1.466,5.909,5.909,0,0,1,1.4,2.075,1.572,1.572,0,0,0,.258.459l.211-.128a6.063,6.063,0,0,1,4.653-.789,5.885,5.885,0,0,1,3.562,2.99,6.221,6.221,0,0,1,.275,4.153l.244.07.155.045.437.123a5.67,5.67,0,0,1,3.432,2.7,5.9,5.9,0,0,1,.381,4.511,5.678,5.678,0,0,1-2.8,3.193l-.151.079a5.414,5.414,0,0,1-2.589.471c-.184,0-.368,0-.553,0-.523,0-1.046,0-1.57-.013q-.483-.008-.966-.005-.183,0-.366-.005a1.71,1.71,0,0,0-1.273.261,4.147,4.147,0,0,0-.365.629q-.118.2-.239.4l.214.15a1.938,1.938,0,0,1,.7,1.417c.016.363.015.725.011,1.088,0,.229,0,.457,0,.686q0,.221,0,.441c0,.068,0,.135,0,.2a2.069,2.069,0,0,1-.511,1.378l-.149.128-.146.131a3.22,3.22,0,0,1-1.92.378l-.267,0c-.215,0-.431-.007-.646-.012v1.756l.388-.011.515-.009.255-.008a2.753,2.753,0,0,1,1.856.522l.144.18.15.179a2.13,2.13,0,0,1,.314,1.328c0,.072,0,.144,0,.218q0,.228,0,.456c0,.231,0,.461.009.692.013,1.489.013,1.489-.442,2.04a2.082,2.082,0,0,1-1.52.66l-.294,0h-.32l-.339,0-.919,0h-.575l-2.007,0q-.934,0-1.867,0-.8,0-1.606,0l-.958,0q-.451,0-.9,0c-.162,0-.324,0-.486,0a2.5,2.5,0,0,1-1.722-.509l-.125-.151-.129-.148a2.627,2.627,0,0,1-.394-1.53c0-.065,0-.129,0-.2q0-.2,0-.408c0-.206,0-.412,0-.618-.005-1.271-.005-1.271.359-1.828l.135-.219a2.29,2.29,0,0,1,1.708-.666h.2l.254,0,.813,0V28.629c-.519.009-.519.009-1.039.022a2.627,2.627,0,0,1-1.915-.66,2.4,2.4,0,0,1-.506-1.64l0-.2q0-.2,0-.41c0-.207,0-.413-.006-.62A2.936,2.936,0,0,1-186.695,23l.168-.129.171-.135.128-.094-.094-.123c-.7-.931-.7-.931-.7-1.154l-.209,0q-.979.007-1.958.011l-1.006.006q-.487,0-.974,0l-.369,0a5.624,5.624,0,0,1-2.742-.544l-.162-.083a5.715,5.715,0,0,1-2.737-3.287,5.876,5.876,0,0,1,.325-4.213,6.278,6.278,0,0,1,.813-1.157l.156-.181a4.985,4.985,0,0,1,3.037-1.575l-.08-.16a5.8,5.8,0,0,1,1.273-4.366l.164-.184.146-.169a5.493,5.493,0,0,1,3.87-1.632l.2-.01.491-.024.062-.173A5.6,5.6,0,0,1-183.832.454,6.874,6.874,0,0,1-181.671-.035Zm-1.6,1.286-.207.079a4.607,4.607,0,0,0-2.337,2.54,5.045,5.045,0,0,0-.249.893l-.141-.005A5.954,5.954,0,0,0-190.482,5.9a5.09,5.09,0,0,0-1.589,3.337,5.816,5.816,0,0,0,.1,1.113,4.109,4.109,0,0,1,0,.639,1.738,1.738,0,0,1-.768.269,4.462,4.462,0,0,0-1.307.449l-.214.117a4.726,4.726,0,0,0-2.121,2.823,4.9,4.9,0,0,0,.419,3.366,5.2,5.2,0,0,0,3.176,2.4,6.83,6.83,0,0,0,1.533.092h.319l.833,0,.852,0,1.667-.008-.049-.162-.065-.215-.064-.212c-.087-.3-.161-.6-.231-.9l-.041-.169a8.406,8.406,0,0,1,1-6.183,8.492,8.492,0,0,1,5.4-3.78,8.706,8.706,0,0,1,4.272.2l.273.085a8.255,8.255,0,0,1,4.677,4.141,8.845,8.845,0,0,1,.311,6.73l-.087.26-.066.2q.9.011,1.807.017.42,0,.84.008c1.876.024,3.477,0,4.919-1.351a4.682,4.682,0,0,0,1.4-3.253,4.882,4.882,0,0,0-1.41-3.451,5.783,5.783,0,0,0-3.643-1.388,1.508,1.508,0,0,1,.07-1.008,4.7,4.7,0,0,0-.07-3.462,5.025,5.025,0,0,0-3.027-2.636,4.676,4.676,0,0,0-3.5.376,4.274,4.274,0,0,0-.833.653c-.394.376-.394.376-.708.374l-.229-.045a2.439,2.439,0,0,1-.254-.748,4.932,4.932,0,0,0-1.422-2.444l-.136-.138A4.5,4.5,0,0,0-181.667.9,4.375,4.375,0,0,0-183.274,1.252Zm2,9.11a5.956,5.956,0,0,0-1.2,2.943l.144-.016a23.506,23.506,0,0,1,5.044.016,5.785,5.785,0,0,0-2-3.592C-180.069,9.265-180.767,9.749-181.277,10.361Zm3.511-.49.088.153a4.923,4.923,0,0,1,.942,2.249,2.688,2.688,0,0,0,.407,1.19,4.69,4.69,0,0,0,1.6.5,4.156,4.156,0,0,1,.96.4l.153.082.142.077a5.221,5.221,0,0,0,.653.3,6.55,6.55,0,0,0-2.689-3.886A7.544,7.544,0,0,0-177.766,9.872Zm-7.506,1.9a6.079,6.079,0,0,0-1.753,3.128l.156-.1a8.242,8.242,0,0,1,1.55-.75l.2-.074a3.936,3.936,0,0,1,.9-.237,1.56,1.56,0,0,0,.788-.272A5.464,5.464,0,0,0-183.008,12a5.272,5.272,0,0,1,.338-.92l.071-.157a7.223,7.223,0,0,1,.6-1.055C-183.141,9.872-184.5,11.009-185.272,11.773Zm2.557,2.489a13.383,13.383,0,0,0,0,5.587,16.41,16.41,0,0,0,5.587,0q.038-.174.075-.349l.042-.2a13.291,13.291,0,0,0,.137-2.253c0-.055,0-.109,0-.165a5.26,5.26,0,0,0-.334-2.7C-178.529,13.832-181.469,13.639-182.715,14.262Zm6.545.16.017.132a19.779,19.779,0,0,1,.073,2.231q0,.347,0,.693a11.617,11.617,0,0,1-.091,2.132,6.551,6.551,0,0,0,2.873-1.2l.146-.1a2.086,2.086,0,0,0,.732-1.019,1.665,1.665,0,0,0-.2-.963,6.466,6.466,0,0,0-3.472-1.911Zm-10.775,1.6a1.535,1.535,0,0,0-.444,1,1.8,1.8,0,0,0,.663,1.227,5.757,5.757,0,0,0,3.053,1.362l-.017-.236a36.3,36.3,0,0,1,.017-4.952A5.728,5.728,0,0,0-186.945,16.018Zm14.128,3.113-.174.12a7.771,7.771,0,0,1-1.627.823l-.2.074a4.255,4.255,0,0,1-1.1.236.552.552,0,0,0-.414.185,4.144,4.144,0,0,0-.479,1.836,3.771,3.771,0,0,0,2.471-.192,3.653,3.653,0,0,0,.562-.846q.088-.143.178-.284a7.787,7.787,0,0,0,.86-1.791Zm-14.207.08a6.357,6.357,0,0,0,1.6,2.873l.139.169a.814.814,0,0,0,.683.181l.292,0,.3-.008.307,0q.375-.006.75-.016L-183,22.23c-.113-.412-.224-.824-.326-1.238l-.061-.245-.044-.179-.134-.035a15.233,15.233,0,0,1-2.256-.733l-.152-.067a6.4,6.4,0,0,1-.89-.522Zm4.55,1.6q.052.22.1.439l.059.247c.086.309.2.61.315.91h4.15a3.731,3.731,0,0,0,.479-1.6l-.262.017A38.843,38.843,0,0,1-182.476,20.807Zm-3.512,2.794a2.946,2.946,0,0,0-.334,1.911c0,.1,0,.2,0,.305s0,.195,0,.3,0,.177,0,.268a1.694,1.694,0,0,0,.5,1.131,1.277,1.277,0,0,0,.778.181l.284,0h.31l.328,0,.89,0h.556l1.941,0q.9,0,1.808,0,.777,0,1.553,0l.927,0q.436,0,.872,0c.157,0,.314,0,.471,0a1.9,1.9,0,0,0,1.334-.361,1.756,1.756,0,0,0,.274-1.12c0-.06,0-.12,0-.182q0-.19,0-.38c0-.193,0-.386,0-.579q0-.185,0-.371c0-.057,0-.114,0-.173a1.351,1.351,0,0,0-.362-.947,1.31,1.31,0,0,0-1-.331l-.279,0h-.307l-.323,0-1.061,0h-.365l-1.717,0q-.99,0-1.981-.006-.766,0-1.532,0-.457,0-.915,0-.43,0-.861,0c-.155,0-.31,0-.465,0A1.891,1.891,0,0,0-185.987,23.6Zm3.193,5.028v1.756h5.667V28.629Zm-3.337,3.188a3.362,3.362,0,0,0-.19,1.671c0,.1,0,.2,0,.3a2.224,2.224,0,0,0,.367,1.607,1.289,1.289,0,0,0,.982.355l.28,0h3.97q.892,0,1.783,0l1.532,0h.915q.43,0,.86,0l.465,0a1.923,1.923,0,0,0,1.234-.271,1.441,1.441,0,0,0,.418-1.166c0-.091,0-.091,0-.183q0-.192,0-.385c0-.195,0-.39.008-.584q0-.187,0-.374l0-.175a1.576,1.576,0,0,0-.357-1.044,1.258,1.258,0,0,0-.871-.27l-.287,0h-.312l-.33,0q-.448,0-.9,0h-.749q-.883,0-1.766,0-.91,0-1.821,0-.782,0-1.565,0h-.934q-.439,0-.878,0c-.158,0-.317,0-.475,0A1.562,1.562,0,0,0-186.132,31.816Z" transform="translate(234.082 26.883)"/>
    <path id="Path_10477" data-name="Path 10477" d="M-27.422-2.732a1.542,1.542,0,0,1,.588,1.016,1.79,1.79,0,0,1-.338,1.2,1.6,1.6,0,0,1-1.107.5,1.561,1.561,0,0,1-1.152-.514,1.66,1.66,0,0,1-.364-1.2,1.665,1.665,0,0,1,.629-1.029A1.808,1.808,0,0,1-27.422-2.732Zm-1.307.818c-.146.2-.146.2-.11.489s.046.273.229.429a.959.959,0,0,0,.708-.1.818.818,0,0,0,.17-.459.666.666,0,0,0-.239-.4A.762.762,0,0,0-28.729-1.914Z" transform="translate(78.78 61.935)"/>
    <path id="Path_10478" data-name="Path 10478" d="M-23.979-1.116a1.888,1.888,0,0,1,.813.845A1.915,1.915,0,0,1-23.19.871a1.691,1.691,0,0,1-.953.828A1.8,1.8,0,0,1-25.58,1.38a1.59,1.59,0,0,1-.479-1.2A1.609,1.609,0,0,1-25.42-.934,1.579,1.579,0,0,1-23.979-1.116Zm-.948.99a.615.615,0,0,0-.224.434c.038.211.038.211.219.384a.491.491,0,0,0,.484.125C-24.2.759-24.2.759-24.063.5a.815.815,0,0,0-.095-.624C-24.471-.326-24.619-.358-24.926-.126Z" transform="translate(75.031 52.136)"/>
    <path id="Path_10479" data-name="Path 10479" d="M-12.71-.06l.2,0A1.23,1.23,0,0,1-11.578.2a.868.868,0,0,1,0,.479.834.834,0,0,1-.691.268h-.212l-.219,0h-.22c-.541,0-.541,0-.812-.185a.564.564,0,0,1-.08-.319C-13.55-.1-13.264-.057-12.71-.06Z" transform="translate(70.926 51.8)"/>
    <path id="Path_10480" data-name="Path 10480" d="M-13.328-.032l.194,0a1.284,1.284,0,0,1,.719.145.588.588,0,0,1,.2.447.551.551,0,0,1-.319.4c-.262.021-.525.018-.788.02l-.22,0h-.213l-.195,0a.81.81,0,0,1-.5-.268.868.868,0,0,1,0-.479A1.489,1.489,0,0,1-13.328-.032Z" transform="translate(67.893 51.763)"/>
    <path id="Path_10481" data-name="Path 10481" d="M-13.285-.1l.234,0h.225l.206,0A.512.512,0,0,1-12.3.025c.094.136.094.136.074.426-.06.269-.06.269-.14.349-.3.027-.6.026-.908.03l-.258.009A3.551,3.551,0,0,1-14.2.8a.634.634,0,0,1-.239-.4,1.018,1.018,0,0,1,.16-.4A2.231,2.231,0,0,1-13.285-.1Z" transform="translate(71.551 59.9)"/>
    <path id="Path_10482" data-name="Path 10482" d="M-7.333,0h.224l.233,0h.233c.573,0,.573,0,.845.185a.585.585,0,0,1,.018.527c-.217.233-.287.223-.6.239q-.252,0-.5-.007H-7.14A2.836,2.836,0,0,1-7.795.907a.717.717,0,0,1-.16-.639A.611.611,0,0,1-7.333,0Z" transform="translate(61.397 59.793)"/>
  </g>
</svg>
