<svg xmlns="http://www.w3.org/2000/svg" width="35.842" height="30.802" viewBox="0 0 35.842 30.802">
  <g id="umbraco-service1" transform="translate(0 476)">
    <path id="Path_10497" data-name="Path 10497" d="M.175-475.825,0-475.657v30.116l.175.168.168.175h13.1v-1.12H1.12V-470.4h33.6v24.081H22.4v1.12H35.5l.168-.175.175-.168v-30.116l-.175-.168L35.5-476H.343ZM34.722-473.2v1.68H1.12v-3.36h33.6Z"/>
    <path id="Path_10498" data-name="Path 10498" d="M48-443.44v.56h1.12V-444H48Z" transform="translate(-44.64 -29.76)"/>
    <path id="Path_10499" data-name="Path 10499" d="M80-443.44v.56h1.12V-444H80Z" transform="translate(-74.4 -29.76)"/>
    <path id="Path_10500" data-name="Path 10500" d="M112-443.44v.56h1.12V-444H112Z" transform="translate(-104.16 -29.76)"/>
    <path id="Path_10501" data-name="Path 10501" d="M416-443.44v.56h3.36V-444H416Z" transform="translate(-386.879 -29.76)"/>
    <path id="Path_10502" data-name="Path 10502" d="M120.806-379.93a1.972,1.972,0,0,0-.343.476c-.126.217-.231.406-.245.42a4.953,4.953,0,0,1-.546.161l-.539.14-.441-.252a2.691,2.691,0,0,0-.532-.245,15.958,15.958,0,0,0-2.107,1.2c-.105.105-.133.238-.133.644v.511l-.406.4c-.406.4-.406.4-.833.4a1.987,1.987,0,0,0-.6.077,10.237,10.237,0,0,0-1.309,2.163,2.613,2.613,0,0,0,.252.546c.231.413.245.476.182.707-.042.14-.1.378-.147.539-.063.238-.133.315-.427.476-.637.35-.63.329-.63,1.638a6.685,6.685,0,0,0,.07,1.274,1.7,1.7,0,0,0,.469.35c.224.126.413.238.427.245s.084.266.161.553l.14.539-.252.441a2.69,2.69,0,0,0-.245.532,15.958,15.958,0,0,0,1.2,2.107c.105.105.238.133.637.133h.5l.406.4.406.4v.469a.986.986,0,0,0,.133.637,12.672,12.672,0,0,0,2.023,1.211c.112.035.287-.028.623-.21.427-.231.5-.252.721-.189.133.042.371.105.532.147.245.063.315.133.511.49a1.477,1.477,0,0,0,.406.49,8.562,8.562,0,0,0,2.506-.021,2.041,2.041,0,0,0,.35-.483l.21-.392.539-.147.546-.147.455.259a1.1,1.1,0,0,0,.616.21,15.106,15.106,0,0,0,2.065-1.211,1.542,1.542,0,0,0,.084-.616v-.5l.406-.4.406-.4h.455a.986.986,0,0,0,.637-.133,12.372,12.372,0,0,0,1.211-2.023c.035-.112-.028-.287-.21-.616-.238-.427-.252-.49-.189-.721.042-.14.105-.378.147-.539.063-.245.133-.315.49-.511a1.476,1.476,0,0,0,.49-.406,10.425,10.425,0,0,0,.007-2.471,1.685,1.685,0,0,0-.469-.357c-.224-.126-.413-.231-.427-.245a4.94,4.94,0,0,1-.161-.546l-.14-.539.252-.441a2.69,2.69,0,0,0,.245-.532,15.958,15.958,0,0,0-1.2-2.107c-.1-.1-.238-.133-.644-.133h-.511l-.4-.406-.4-.406v-.455a.986.986,0,0,0-.133-.637,12.368,12.368,0,0,0-2.023-1.211c-.112-.035-.28.028-.609.21-.42.231-.476.245-.735.175-.154-.035-.4-.1-.546-.14-.224-.056-.308-.133-.462-.42-.35-.637-.329-.63-1.645-.63A7.371,7.371,0,0,0,120.806-379.93Zm2.142,1.449c.238.413.3.448,1.463.756.735.2.833.189,1.253-.077a1.394,1.394,0,0,1,.329-.168,3.791,3.791,0,0,1,.581.3l.511.308.035.5.035.5.707.693.707.7h.966l.28.511a5.882,5.882,0,0,1,.3.588.8.8,0,0,1-.147.35,3.065,3.065,0,0,0-.217.413,7.139,7.139,0,0,0,.553,2.058,1.922,1.922,0,0,0,.427.287l.315.168-.021.665-.021.658-.364.21c-.413.238-.448.3-.756,1.463-.2.735-.189.833.077,1.253a1.394,1.394,0,0,1,.168.329,3.79,3.79,0,0,1-.3.581l-.308.511-.5.035-.5.035-.693.707-.7.707v.966l-.546.3-.539.3-.434-.217-.434-.224-.861.224a6.946,6.946,0,0,0-1.022.329,1.471,1.471,0,0,0-.35.441l-.189.35-.665-.014-.658-.021-.21-.364a1.233,1.233,0,0,0-.357-.427,8.312,8.312,0,0,0-1.946-.462,2.878,2.878,0,0,0-.413.21,1.394,1.394,0,0,1-.329.168,3.791,3.791,0,0,1-.581-.3l-.511-.308-.035-.5-.035-.5-.707-.693-.707-.7h-.966l-.28-.511a5.88,5.88,0,0,1-.3-.588.8.8,0,0,1,.147-.35,3.062,3.062,0,0,0,.217-.413,7.139,7.139,0,0,0-.553-2.058,1.922,1.922,0,0,0-.427-.287l-.315-.168.021-.665.021-.658.364-.21c.413-.238.448-.3.756-1.463.2-.735.189-.833-.077-1.253a1.394,1.394,0,0,1-.168-.329,3.791,3.791,0,0,1,.3-.581l.308-.511.5-.035.5-.035.693-.707.7-.707v-.966l.546-.3.539-.308.441.224.441.224.854-.224a7.063,7.063,0,0,0,1.015-.329,1.471,1.471,0,0,0,.35-.441l.189-.35.665.014.658.021Z" transform="translate(-104.16 -89.28)"/>
    <path id="Path_10503" data-name="Path 10503" d="M166.016-331.837a6.452,6.452,0,0,0-3.591,1.918,6.725,6.725,0,0,0-1.8,3.2,8.968,8.968,0,0,0,0,3,6.724,6.724,0,0,0,1.8,3.2,6.449,6.449,0,0,0,4.445,2,6.421,6.421,0,0,0,5.04-1.974,6.515,6.515,0,0,0,1.834-3.227,8.968,8.968,0,0,0,0-3,7.849,7.849,0,0,0-.875-2.072,7.98,7.98,0,0,0-2.177-2.156A6.824,6.824,0,0,0,166.016-331.837Zm2.5,1.176a5.631,5.631,0,0,1,3.367,2.415,5.578,5.578,0,0,1,.049,5.971,5.821,5.821,0,0,1-2.583,2.205c-.224.091-.427.168-.448.168s-.035-.665-.035-1.47v-1.47l.56-1.12.56-1.12v-2.52l-.35-.7a3.268,3.268,0,0,0-.483-.77,13.708,13.708,0,0,0-1.967-.07,13.708,13.708,0,0,0-1.967.07,3.267,3.267,0,0,0-.483.77l-.35.7v2.541l.56,1.064.56,1.064v3.038l-.154-.042a6.211,6.211,0,0,1-2.387-1.624,5.6,5.6,0,0,1-.469-6.7,5.745,5.745,0,0,1,3.64-2.464A7.146,7.146,0,0,1,168.515-330.661Zm.175,2.989c.161.322.175.42.175,1.33v.98l-.56,1.12-.56,1.12v3.5h-1.12V-323.2l-.56-1.071-.56-1.071v-.994c0-.924.014-1.015.175-1.337l.175-.35h2.66Z" transform="translate(-149.264 -133.977)"/>
    <path id="Path_10504" data-name="Path 10504" d="M207.921-90.4c.021,1.764.028,1.785.5,2.135.189.14.273.147,2.842.147s2.653-.007,2.842-.147c.476-.35.483-.371.5-2.135l.021-1.6h-1.127v2.8h-4.48V-92H207.9Z" transform="translate(-193.346 -357.119)"/>
    <path id="Path_10505" data-name="Path 10505" d="M248-83.16v.84h1.12V-84H248Z" transform="translate(-230.639 -364.559)"/>
  </g>
</svg>
