<svg xmlns="http://www.w3.org/2000/svg" xmlns:xlink="http://www.w3.org/1999/xlink" width="45" height="45" viewBox="0 0 45 45">
  <defs>
    <linearGradient id="linear-gradient" x1="0.5" x2="0.156" y2="0.791" gradientUnits="objectBoundingBox">
      <stop offset="0" stop-color="#3e3e3e"/>
      <stop offset="1" stop-color="#1a1a1a"/>
    </linearGradient>
  </defs>
  <g id="Group_8363" data-name="Group 8363" transform="translate(-370 -363)">
    <g id="banner-main1" transform="translate(370 363)">
      <circle id="Ellipse_1" data-name="Ellipse 1" cx="22.5" cy="22.5" r="22.5" fill="url(#linear-gradient)"/>
    </g>
    <g id="umbraco-e-commerce-solutions" transform="translate(378.3 854)">
      <path id="Path_9260" data-name="Path 9260" d="M4.013-480.968c-.059.011-.241.048-.4.08a4.47,4.47,0,0,0-.8.3,2.828,2.828,0,0,0-1,.734,2.9,2.9,0,0,0-.708.949,3.665,3.665,0,0,0-.4,1.71,4.045,4.045,0,0,0,.879,2.466,4.514,4.514,0,0,1,.954,2.772c.043.869.086.981.466,1.169.2.1.225.134.279.407.048.209.064,1.555.064,4.675v4.38H2.421c-1.255,0-1.19-.038-1.212.788a3.153,3.153,0,0,0,.365,1.78,3.414,3.414,0,0,0,2.375,1.8c.365.075,1.571.086,10.679.086,11.451,0,10.712.021,11.532-.375a3.524,3.524,0,0,0,1.7-1.887,4.98,4.98,0,0,0,.236-1.683c-.038-.472-.048-.472-1.2-.493l-.992-.016-.011-6.739-.016-6.739-.15-.306a1.787,1.787,0,0,0-.836-.815l-.247-.113-8.278-.016L8.1-476.068l.032-.123a3.811,3.811,0,0,0-2.171-4.5A4.038,4.038,0,0,0,4.013-480.968Zm1.126.692a3.182,3.182,0,0,1,2.386,2.305,3.215,3.215,0,0,1-.676,2.884,5.278,5.278,0,0,0-.992,2.289l-.07.429-1.313-.011L3.155-472.4l-.016-.161a5.56,5.56,0,0,0-.992-2.482,3.462,3.462,0,0,1-.8-2.128,2.932,2.932,0,0,1,.922-2.225A3.038,3.038,0,0,1,5.139-480.276Zm19.477,4.932a1,1,0,0,1,.552.536c.1.2.1.515.1,6.846v6.637l-3.056.011c-3.437.016-3.19-.016-3.276.445a.908.908,0,0,1-.44.659c-.161.086-.461.091-3.871.091h-3.7l-.188-.118a.986.986,0,0,1-.429-.7.382.382,0,0,0-.113-.263c-.107-.1-.252-.1-3.163-.118l-3.051-.011v-8.417h.965v3.688c0,3.249.011,3.7.086,3.806l.08.118H24.139l.08-.118c.075-.107.086-.772.086-6.058,0-5.87,0-5.94-.107-6.047s-.177-.107-8.551-.107H7.208l.306-.482.306-.477,8.3-.005C23.49-475.424,24.439-475.414,24.616-475.344Zm-.954,7.05v5.522H5.595l.016-3.737c.016-2.059.043-3.844.064-3.962.032-.188.059-.231.177-.252a.946.946,0,0,0,.547-.563,4.683,4.683,0,0,0,.054-.767,4.115,4.115,0,0,1,.29-1.565l.08-.2H23.662ZM5.809-471.6c0,.284-.075.3-1.292.3a7.491,7.491,0,0,1-1.233-.054.234.234,0,0,1-.1-.214v-.161H5.809Zm-.761,1.062c-.016.118-.043.123-.547.139-.391.011-.547-.005-.579-.054-.113-.182-.054-.2.552-.2C5.059-470.653,5.064-470.653,5.048-470.535ZM9.793-460.4a1.6,1.6,0,0,0,.767.793l.263.129h7.613l.306-.15a1.382,1.382,0,0,0,.724-.777l.134-.279,3.919.011,3.924.016-.016.4a2.771,2.771,0,0,1-1.506,2.4c-.649.348-.038.332-11.269.332-7.061,0-10.315-.016-10.535-.059a2.826,2.826,0,0,1-1.464-.794,2.613,2.613,0,0,1-.81-1.925v-.386H9.664Z" transform="translate(0 0)" fill="#f5f5f5"/>
      <path id="Path_9261" data-name="Path 9261" d="M81.107-410.893c-.1.1-.107.177-.107,1.582s.005,1.48.107,1.582a.3.3,0,0,0,.445.011c.08-.086.091-.279.091-1.582,0-1.415-.005-1.49-.107-1.592a.371.371,0,0,0-.214-.107A.371.371,0,0,0,81.107-410.893Z" transform="translate(-75.995 -66.247)" fill="#f5f5f5"/>
      <path id="Path_9262" data-name="Path 9262" d="M65.086-393.822c-.07.1-.086.3-.086,1.126,0,.938.005,1.013.107,1.115a.3.3,0,0,0,.445.011c.08-.086.091-.247.091-1.147,0-.944-.011-1.051-.1-1.131A.314.314,0,0,0,65.086-393.822Z" transform="translate(-60.853 -82.395)" fill="#f5f5f5"/>
      <path id="Path_9263" data-name="Path 9263" d="M49.15-377.47c-.134.134-.139.155-.118.729.016.515.032.606.118.67a.311.311,0,0,0,.424-.021c.075-.08.091-.22.091-.718,0-.649-.016-.692-.252-.761C49.322-377.6,49.257-377.572,49.15-377.47Z" transform="translate(-45.732 -97.874)" fill="#f5f5f5"/>
      <path id="Path_9264" data-name="Path 9264" d="M236.39-113.968c-.209.107-.257.231-.166.4l.086.145,1.142.016c1.013.011,1.158,0,1.244-.075a.291.291,0,0,0-.1-.5A9.227,9.227,0,0,0,236.39-113.968Z" transform="translate(-222.855 -347.286)" fill="#f5f5f5"/>
      <path id="Path_9265" data-name="Path 9265" d="M186.64-321.51a4.19,4.19,0,0,0-3.64,4.133,3.929,3.929,0,0,0,1.206,2.927,4.144,4.144,0,0,0,7.1-2.927,4.1,4.1,0,0,0-1.517-3.217,5.058,5.058,0,0,0-1.646-.826A5.021,5.021,0,0,0,186.64-321.51Zm1.319.708a4.614,4.614,0,0,1,.761.295,2.585,2.585,0,0,1,.885.627,3.237,3.237,0,0,1,1.051,2.375,3.052,3.052,0,0,1-.37,1.737,2.682,2.682,0,0,1-.665.89,3.341,3.341,0,0,1-2.654,1.024,3.3,3.3,0,0,1-2.284-1.029,3.353,3.353,0,0,1-1.029-2.675,3.267,3.267,0,0,1,1.008-2.279A3.507,3.507,0,0,1,187.959-320.8Z" transform="translate(-172.527 -150.918)" fill="#f5f5f5"/>
      <path id="Path_9266" data-name="Path 9266" d="M216.273-281.854a2.188,2.188,0,0,0-1.362,1.013c-.107.22-.113.22-.424.22-.231,0-.332.027-.4.1-.214.236-.021.547.338.547.193,0,.214.011.214.134s-.021.134-.231.134c-.257,0-.413.118-.413.3,0,.225.2.343.574.343.236,0,.263.016.327.161a2.17,2.17,0,0,0,.911.869,1.428,1.428,0,0,0,.869.177c.772,0,1.11-.193.992-.558-.043-.15-.241-.193-.536-.118a1.466,1.466,0,0,1-1.442-.365l-.161-.166h.606c.568,0,.606-.005.734-.134.1-.1.123-.166.1-.257-.07-.236-.107-.247-.9-.263-.74-.016-.756-.021-.772-.139s-.016-.118.7-.118c.81,0,.954-.048.954-.322s-.1-.322-.788-.322h-.617l.075-.123a1.812,1.812,0,0,1,.885-.5,1.469,1.469,0,0,1,.584.059c.316.086.354.086.477.005a.307.307,0,0,0,.038-.477,2.111,2.111,0,0,0-.922-.247A3.984,3.984,0,0,0,216.273-281.854Z" transform="translate(-201.865 -188.423)" fill="#f5f5f5"/>
    </g>
  </g>
</svg>
