<svg xmlns="http://www.w3.org/2000/svg" xmlns:xlink="http://www.w3.org/1999/xlink" width="45" height="45" viewBox="0 0 45 45">
  <defs>
    <linearGradient id="linear-gradient" x1="0.5" x2="0.156" y2="0.791" gradientUnits="objectBoundingBox">
      <stop offset="0" stop-color="#3e3e3e"/>
      <stop offset="1" stop-color="#1a1a1a"/>
    </linearGradient>
  </defs>
  <g id="Group_8364" data-name="Group 8364" transform="translate(-370 -363)">
    <g id="banner-main1" transform="translate(370 363)">
      <circle id="Ellipse_1" data-name="Ellipse 1" cx="22.5" cy="22.5" r="22.5" fill="url(#linear-gradient)"/>
    </g>
    <g id="umbraco-web" transform="translate(380 851)">
      <path id="Path_9267" data-name="Path 9267" d="M.124-475.876,0-475.758v21.273l.124.119.119.124H9.494v-.791H.791v-17.01H24.527v17.01h-8.7v.791h9.252l.119-.124.124-.119v-21.273l-.124-.119L25.076-476H.242Zm24.4,1.854v1.187H.791v-2.374H24.527Z" fill="#f5f5f5"/>
      <path id="Path_9268" data-name="Path 9268" d="M48-443.6v.4h.791V-444H48Z" transform="translate(-45.626 -30.418)" fill="#f5f5f5"/>
      <path id="Path_9269" data-name="Path 9269" d="M80-443.6v.4h.791V-444H80Z" transform="translate(-76.044 -30.418)" fill="#f5f5f5"/>
      <path id="Path_9270" data-name="Path 9270" d="M112-443.6v.4h.791V-444H112Z" transform="translate(-106.462 -30.418)" fill="#f5f5f5"/>
      <path id="Path_9271" data-name="Path 9271" d="M416-443.6v.4h2.374V-444H416Z" transform="translate(-395.429 -30.418)" fill="#f5f5f5"/>
      <path id="Path_9272" data-name="Path 9272" d="M118.221-379.951a1.393,1.393,0,0,0-.242.336c-.089.153-.163.287-.173.3a3.5,3.5,0,0,1-.386.114l-.381.1-.312-.178a1.9,1.9,0,0,0-.376-.173,11.268,11.268,0,0,0-1.488.846c-.074.074-.094.168-.094.455v.361l-.287.282c-.287.282-.287.282-.588.282a1.4,1.4,0,0,0-.425.054,7.23,7.23,0,0,0-.925,1.528,1.846,1.846,0,0,0,.178.386c.163.292.173.336.129.5-.03.1-.074.267-.1.381-.045.168-.094.223-.3.336-.45.247-.445.232-.445,1.157a4.723,4.723,0,0,0,.049.9,1.2,1.2,0,0,0,.331.247c.158.089.292.168.3.173s.059.188.114.391l.1.381-.178.312a1.9,1.9,0,0,0-.173.376,11.276,11.276,0,0,0,.846,1.488c.074.074.168.094.45.094h.356l.287.282.287.282v.331a.7.7,0,0,0,.094.45,8.954,8.954,0,0,0,1.429.856c.079.025.2-.02.44-.148.3-.163.351-.178.509-.133.094.03.262.074.376.1.173.044.223.094.361.346a1.042,1.042,0,0,0,.287.346,6.047,6.047,0,0,0,1.77-.015,1.441,1.441,0,0,0,.247-.341l.148-.277.381-.1.386-.1.321.183a.778.778,0,0,0,.435.148,10.678,10.678,0,0,0,1.459-.855,1.089,1.089,0,0,0,.059-.435v-.351l.287-.282.287-.282h.321a.7.7,0,0,0,.45-.094,8.742,8.742,0,0,0,.855-1.429c.025-.079-.02-.2-.148-.435-.168-.3-.178-.346-.134-.509.03-.1.074-.267.1-.381.045-.173.094-.223.346-.361a1.044,1.044,0,0,0,.346-.287,7.364,7.364,0,0,0,0-1.746,1.189,1.189,0,0,0-.331-.252c-.158-.089-.292-.163-.3-.173a3.493,3.493,0,0,1-.114-.386l-.1-.381.178-.312a1.9,1.9,0,0,0,.173-.376,11.273,11.273,0,0,0-.846-1.488c-.074-.074-.168-.094-.455-.094h-.361l-.282-.287-.282-.287v-.321a.7.7,0,0,0-.094-.45,8.734,8.734,0,0,0-1.429-.855c-.079-.025-.2.02-.43.148-.3.163-.336.173-.519.124-.109-.025-.282-.069-.386-.1-.158-.039-.218-.094-.326-.3-.247-.45-.232-.445-1.162-.445A5.208,5.208,0,0,0,118.221-379.951Zm1.513,1.024c.168.292.213.316,1.033.534.519.138.588.134.885-.054a.984.984,0,0,1,.232-.119,2.674,2.674,0,0,1,.41.213l.361.218.025.356.025.356.5.49.5.495h.682l.2.361a4.147,4.147,0,0,1,.213.415.568.568,0,0,1-.1.247,2.163,2.163,0,0,0-.153.292,5.044,5.044,0,0,0,.391,1.454,1.358,1.358,0,0,0,.3.2l.223.119-.015.47-.015.465-.257.148c-.292.168-.316.213-.534,1.034-.138.519-.134.588.054.885a.985.985,0,0,1,.119.232,2.678,2.678,0,0,1-.213.41l-.218.361-.356.025-.356.025-.49.5-.494.5v.682l-.386.213-.381.213-.307-.153-.307-.158-.608.158a4.9,4.9,0,0,0-.722.232,1.039,1.039,0,0,0-.247.312l-.134.247-.47-.01-.465-.015-.148-.257a.871.871,0,0,0-.252-.3,5.871,5.871,0,0,0-1.375-.326,2.041,2.041,0,0,0-.292.148.986.986,0,0,1-.232.119,2.68,2.68,0,0,1-.41-.213l-.361-.218-.025-.356-.025-.356-.5-.49-.5-.495h-.682l-.2-.361a4.148,4.148,0,0,1-.213-.415.568.568,0,0,1,.1-.247,2.163,2.163,0,0,0,.153-.292,5.043,5.043,0,0,0-.391-1.454,1.358,1.358,0,0,0-.3-.2l-.223-.119.015-.47.015-.465.257-.148c.292-.168.316-.213.534-1.034.138-.519.134-.588-.054-.885a.984.984,0,0,1-.119-.232,2.678,2.678,0,0,1,.213-.41l.218-.361.356-.025.356-.025.49-.5.494-.5v-.682l.386-.213.381-.218.312.158.312.158.6-.158a4.988,4.988,0,0,0,.717-.232,1.039,1.039,0,0,0,.247-.312l.134-.247.47.01.465.015Z" transform="translate(-106.462 -91.253)" fill="#f5f5f5"/>
      <path id="Path_9273" data-name="Path 9273" d="M164.4-331.867a4.558,4.558,0,0,0-2.537,1.355,4.75,4.75,0,0,0-1.271,2.26,6.336,6.336,0,0,0,0,2.116,4.75,4.75,0,0,0,1.271,2.26,4.555,4.555,0,0,0,3.14,1.414,4.536,4.536,0,0,0,3.56-1.394,4.6,4.6,0,0,0,1.3-2.28,6.334,6.334,0,0,0,0-2.116,5.544,5.544,0,0,0-.618-1.464,5.637,5.637,0,0,0-1.538-1.523A4.821,4.821,0,0,0,164.4-331.867Zm1.765.831a3.978,3.978,0,0,1,2.378,1.706,3.94,3.94,0,0,1,.035,4.218,4.112,4.112,0,0,1-1.825,1.558c-.158.064-.3.119-.316.119s-.025-.47-.025-1.038v-1.038l.4-.791.4-.791v-1.78l-.247-.494a2.309,2.309,0,0,0-.341-.544,9.684,9.684,0,0,0-1.39-.049,9.684,9.684,0,0,0-1.39.049,2.308,2.308,0,0,0-.341.544l-.247.494v1.795l.4.752.4.752v2.146l-.109-.03a4.387,4.387,0,0,1-1.686-1.147,3.954,3.954,0,0,1-.331-4.732,4.058,4.058,0,0,1,2.571-1.741A5.047,5.047,0,0,1,166.162-331.036Zm.124,2.111c.114.227.124.3.124.94v.692l-.4.791-.4.791v2.472h-.791v-2.527l-.4-.757-.4-.757v-.7c0-.653.01-.717.124-.944l.124-.247h1.879Z" transform="translate(-152.563 -136.938)" fill="#f5f5f5"/>
      <path id="Path_9274" data-name="Path 9274" d="M207.915-90.868c.015,1.246.02,1.261.356,1.508.134.1.193.1,2.008.1s1.874,0,2.008-.1c.336-.247.341-.262.356-1.508L212.657-92h-.8v1.978H208.7V-92h-.8Z" transform="translate(-197.62 -365.012)" fill="#f5f5f5"/>
      <path id="Path_9275" data-name="Path 9275" d="M248-83.407v.593h.791V-84H248Z" transform="translate(-235.737 -372.616)" fill="#f5f5f5"/>
    </g>
  </g>
</svg>
