<svg xmlns="http://www.w3.org/2000/svg" xmlns:xlink="http://www.w3.org/1999/xlink" width="45" height="45" viewBox="0 0 45 45">
  <defs>
    <linearGradient id="linear-gradient" x1="0.5" x2="0.156" y2="0.791" gradientUnits="objectBoundingBox">
      <stop offset="0" stop-color="#3e3e3e"/>
      <stop offset="1" stop-color="#1a1a1a"/>
    </linearGradient>
  </defs>
  <g id="Group_8365" data-name="Group 8365" transform="translate(-370 -363)">
    <g id="Group_8364" data-name="Group 8364">
      <g id="banner-main1" transform="translate(370 363)">
        <circle id="Ellipse_1" data-name="Ellipse 1" cx="22.5" cy="22.5" r="22.5" fill="url(#linear-gradient)"/>
      </g>
    </g>
    <g id="umbraco-integrations" transform="translate(377.5 882.922)">
      <path id="Path_9276" data-name="Path 9276" d="M12.3-511.834a1.457,1.457,0,0,0-.8.729,1.365,1.365,0,0,0-.15.769v.474l-.677.249a14.014,14.014,0,0,0-3.858,2.221l-.457.382H5.329c-1.284,0-1.521.058-1.943.486-.416.411-.44.526-.416,2.105a4.3,4.3,0,0,0,.116,1.5c.1.185.093.191-.2.92-.156.4-.382,1.1-.5,1.556l-.208.821-.312.035a2.037,2.037,0,0,0-.5.116,1.725,1.725,0,0,0-.746.694c-.121.226-.127.307-.127,1.654s.006,1.429.127,1.654a1.725,1.725,0,0,0,.746.694,2.034,2.034,0,0,0,.5.116l.312.035.208.821c.116.451.341,1.151.5,1.556.289.729.295.735.2.92a4.3,4.3,0,0,0-.116,1.5c-.023,1.579,0,1.695.416,2.105.422.428.659.486,1.943.486H6.353l.457.382a14.013,14.013,0,0,0,3.858,2.221l.677.249v.474a1.468,1.468,0,0,0,.521,1.243c.434.347.451.347,3.412.347,2.932,0,2.967-.006,3.389-.324a1.864,1.864,0,0,0,.359-.422,1.394,1.394,0,0,0,.174-.792l.023-.526.59-.214a14.448,14.448,0,0,0,3.933-2.256l.457-.382h1.024c1.3,0,1.527-.058,1.949-.492a1.34,1.34,0,0,0,.364-.549,9.846,9.846,0,0,0,.046-1.55,4.3,4.3,0,0,0-.116-1.5c-.1-.185-.093-.191.2-.92.156-.4.382-1.1.5-1.556l.208-.821.312-.035a2.034,2.034,0,0,0,.5-.116,1.725,1.725,0,0,0,.746-.694c.121-.226.127-.307.127-1.654s-.006-1.429-.127-1.654a1.725,1.725,0,0,0-.746-.694,2.037,2.037,0,0,0-.5-.116l-.312-.035-.208-.821c-.116-.451-.341-1.151-.5-1.556-.289-.729-.295-.735-.2-.92a4.3,4.3,0,0,0,.116-1.5,9.846,9.846,0,0,0-.046-1.55,1.34,1.34,0,0,0-.364-.549c-.422-.434-.654-.492-1.943-.492H24.213l-.463-.382a14.472,14.472,0,0,0-3.916-2.244l-.625-.226v-.474a1.468,1.468,0,0,0-.521-1.243c-.44-.347-.445-.347-3.436-.341A16.722,16.722,0,0,0,12.3-511.834Zm5.656.96c.254.133.266.2.272,1.423,0,1.168,0,1.174-.145,1.313l-.139.145H12.611l-.139-.145c-.145-.139-.145-.145-.145-1.313.006-1.22.017-1.284.26-1.423A50.356,50.356,0,0,1,17.955-510.873Zm-6.593,2.458c.017.22.04.44.052.5.012.087-.064.139-.382.272-.22.087-.625.272-.9.411l-.5.249L8.782-507l-.862-.023.364-.254a13.263,13.263,0,0,1,2.244-1.22c.4-.168.746-.307.763-.307A1.011,1.011,0,0,1,11.362-508.415Zm8.375-.2a13.782,13.782,0,0,1,2.337,1.209l.549.37-.856.029c-.844.035-.85.035-1.145-.127-.162-.087-.561-.278-.9-.422-.474-.2-.6-.283-.584-.359.012-.058.035-.278.052-.5a3.042,3.042,0,0,1,.046-.388C19.251-508.8,19.476-508.722,19.737-508.618Zm-.9,1.776a7.288,7.288,0,0,1,1.122.5c0,.006-.052.127-.116.266-.1.231-.116.382-.116,1.556,0,1.249.006,1.313.139,1.591a1.593,1.593,0,0,0,.758.763,6.416,6.416,0,0,0,2,.121l1.77.017.237.5a9.683,9.683,0,0,1,.59,1.538l.1.37-1.018.023c-1.012.017-1.029.017-1.336.191a1.531,1.531,0,0,0-.711.827,6.891,6.891,0,0,0-.075,1.457,6.892,6.892,0,0,0,.075,1.458,1.531,1.531,0,0,0,.711.827c.307.174.324.174,1.336.191l1.018.023-.1.37a9.681,9.681,0,0,1-.59,1.538l-.237.5-1.77.017a6.417,6.417,0,0,0-2,.121,1.593,1.593,0,0,0-.758.763c-.133.278-.139.341-.139,1.591,0,1.174.012,1.324.116,1.556.064.139.116.26.116.266a7.292,7.292,0,0,1-1.122.5l-.463.173H12.166l-.521-.2a8.226,8.226,0,0,1-1.041-.468,1.429,1.429,0,0,1,.1-.266c.1-.231.116-.382.116-1.556,0-1.249-.006-1.313-.139-1.591a1.593,1.593,0,0,0-.758-.763,6.417,6.417,0,0,0-2-.121l-1.77-.017-.237-.5a9.681,9.681,0,0,1-.59-1.538l-.1-.37,1.018-.023c1.012-.017,1.029-.017,1.336-.191a1.531,1.531,0,0,0,.711-.827,6.892,6.892,0,0,0,.075-1.458,6.891,6.891,0,0,0-.075-1.457,1.531,1.531,0,0,0-.711-.827c-.307-.173-.324-.173-1.33-.191l-1.024-.023.116-.411a8.34,8.34,0,0,1,.578-1.5l.237-.5,1.77-.017a6.416,6.416,0,0,0,2-.121,1.593,1.593,0,0,0,.758-.763c.133-.278.139-.341.139-1.591,0-1.174-.012-1.324-.116-1.556a1.428,1.428,0,0,1-.1-.266,7.979,7.979,0,0,1,1.087-.486l.549-.208,3.071.012,3.065.012ZM9.7-505.836c.139.162.139.179.139,1.313s0,1.151-.139,1.313l-.139.162H4.242l-.15-.139-.15-.139v-1.2c0-1.163.006-1.2.133-1.313a.918.918,0,0,1,.214-.15c.046-.017,1.255-.029,2.678-.023l2.6.012Zm16.761-.023.15.139v2.394l-.15.139-.15.139H20.992l-.139-.162c-.139-.162-.139-.179-.139-1.3,0-1.226.023-1.342.312-1.457.064-.029,1.284-.046,2.707-.04l2.58.012Zm-21.44,3.846c.006.006-.093.26-.22.561a11.433,11.433,0,0,0-.422,1.191l-.179.654h-1L3.288-500a15.509,15.509,0,0,1,.584-1.816l.121-.272.509.035C4.78-502.036,5.017-502.013,5.023-502.013Zm21.654.191a15.552,15.552,0,0,1,.59,1.822l.087.393H26.342l-.156-.6a13.749,13.749,0,0,0-.648-1.758c-.023-.052.081-.075.364-.093.214-.006.451-.023.526-.029C26.532-502.094,26.584-502.042,26.677-501.822ZM7.2-498.456l.15.139v2.394l-.15.139-.15.139H1.732l-.139-.162c-.139-.162-.139-.179-.139-1.307,0-1.064.006-1.157.116-1.3a.492.492,0,0,1,.249-.173c.069-.017,1.278-.023,2.684-.017l2.551.006Zm21.758.023c.139.162.139.179.139,1.319s0,1.157-.139,1.3a.788.788,0,0,1-.33.174c-.11.017-1.307.029-2.666.017l-2.464-.017-.15-.139-.15-.139v-1.2c0-1.163.006-1.2.133-1.313a.917.917,0,0,1,.214-.15c.046-.017,1.255-.029,2.678-.023l2.6.012Zm-24.6,4.367a13.52,13.52,0,0,0,.659,1.787c.023.058-.052.075-.278.075a4.364,4.364,0,0,0-.526.035c-.214.035-.22.035-.335-.243a14.431,14.431,0,0,1-.6-1.833l-.087-.388H4.213Zm23-.549c0,.116-.445,1.573-.59,1.949l-.2.492-.515-.023c-.289-.012-.526-.023-.532-.029s.093-.26.22-.561a11.439,11.439,0,0,0,.422-1.191l.179-.654h.509A3.318,3.318,0,0,1,27.365-494.615ZM9.7-491.03c.139.162.139.179.139,1.313s0,1.151-.139,1.313l-.139.162H4.242l-.15-.139-.15-.139v-1.2c0-1.163.006-1.2.133-1.313a.917.917,0,0,1,.214-.15c.046-.017,1.255-.029,2.678-.023l2.6.012Zm16.761-.023.15.139v2.394l-.15.139-.15.139H20.992l-.139-.162c-.139-.162-.139-.179-.139-1.3,0-1.226.023-1.342.312-1.457.064-.029,1.284-.046,2.707-.04l2.58.012Zm-16.345,4.025c.283.145.694.341.914.428.318.133.393.185.382.272-.012.064-.035.283-.052.5a1.379,1.379,0,0,1-.058.393c-.012,0-.347-.133-.74-.295a13.272,13.272,0,0,1-2.313-1.255l-.33-.237.8-.023c.445-.006.821-.023.844-.029A3.462,3.462,0,0,1,10.118-487.027Zm11.776-.2h.752l-.376.266a13.04,13.04,0,0,1-2.146,1.18c-.983.416-.9.416-.931-.04-.017-.214-.04-.445-.052-.5-.012-.093.052-.139.347-.254.2-.075.6-.266.9-.416a1.927,1.927,0,0,1,.648-.254C21.1-487.241,21.483-487.23,21.894-487.23ZM18.082-486.1c.145.139.145.145.145,1.313-.006,1.226-.017,1.29-.272,1.423a48.656,48.656,0,0,1-5.356,0c-.254-.133-.266-.2-.272-1.423,0-1.168,0-1.174.145-1.313l.139-.145h5.333Z" fill="#f5f5f5"/>
      <path id="Path_9277" data-name="Path 9277" d="M159.59-357.779c-.254.139-.3.2-.486.636l-.174.4-.451.191-.451.191-.393-.156c-.671-.272-.885-.208-1.492.422-.555.573-.584.74-.283,1.492l.121.289-.191.451-.191.451-.428.185c-.63.272-.671.347-.671,1.243,0,.914.052,1.012.677,1.272l.416.174.2.457.191.451-.156.393c-.272.671-.208.885.422,1.492.573.555.74.584,1.492.283l.289-.121.451.191.451.191.185.428c.272.63.347.671,1.243.671.914,0,1.012-.052,1.272-.677l.174-.416.457-.2.451-.191.289.116c.746.307.92.278,1.492-.278.63-.607.694-.821.428-1.492l-.162-.393.191-.451.191-.451.428-.185c.63-.272.671-.347.671-1.243,0-.914-.052-1.012-.677-1.272l-.416-.174-.2-.457-.191-.451.156-.393c.272-.671.208-.885-.422-1.492-.573-.555-.74-.584-1.492-.283l-.289.121-.451-.191-.451-.191-.185-.428c-.266-.619-.353-.665-1.186-.688A1.892,1.892,0,0,0,159.59-357.779Zm1.267,1.324a1.9,1.9,0,0,0,.26.515,1.5,1.5,0,0,0,.411.179,6.047,6.047,0,0,1,.654.272.952.952,0,0,0,1.058-.006l.393-.179.22.226.226.22-.179.393a.961.961,0,0,0-.006,1.064,6.054,6.054,0,0,1,.272.654c.133.416.191.474.694.665l.428.168v.636l-.434.168c-.468.179-.573.278-.671.642a4.183,4.183,0,0,1-.26.625,1.8,1.8,0,0,0-.2.561,2.166,2.166,0,0,0,.174.555l.179.393-.226.22-.22.226-.393-.179a2.167,2.167,0,0,0-.555-.174,1.8,1.8,0,0,0-.561.2,4.183,4.183,0,0,1-.625.26c-.364.1-.463.2-.642.671l-.168.434h-.636l-.168-.428a1.9,1.9,0,0,0-.26-.515,1.5,1.5,0,0,0-.411-.179,6.061,6.061,0,0,1-.654-.272.952.952,0,0,0-1.058.006l-.393.179-.22-.226-.226-.22.179-.393a.961.961,0,0,0,.006-1.064,6.053,6.053,0,0,1-.272-.654c-.133-.416-.191-.474-.694-.665l-.428-.168v-.636l.434-.168c.468-.179.573-.278.671-.642a4.18,4.18,0,0,1,.26-.625,1.8,1.8,0,0,0,.2-.561,2.168,2.168,0,0,0-.174-.555l-.179-.393.226-.22.22-.226.393.179a2.166,2.166,0,0,0,.555.174,1.8,1.8,0,0,0,.561-.2,4.184,4.184,0,0,1,.625-.26c.364-.1.463-.2.642-.671l.168-.434h.636Z" transform="translate(-145.093 -145.154)" fill="#f5f5f5"/>
      <path id="Path_9278" data-name="Path 9278" d="M207.215-307.077A2.977,2.977,0,0,0,205-304.214a2.962,2.962,0,0,0,2.95,2.95,2.962,2.962,0,0,0,2.95-2.95A2.973,2.973,0,0,0,207.215-307.077ZM208.771-306a2.034,2.034,0,0,1,.966.966,1.538,1.538,0,0,1,.15.815,1.789,1.789,0,0,1-.549,1.388,1.789,1.789,0,0,1-1.388.549,1.789,1.789,0,0,1-1.388-.549,1.789,1.789,0,0,1-.549-1.388,1.458,1.458,0,0,1,.191-.879,1.842,1.842,0,0,1,1.035-.949A1.99,1.99,0,0,1,208.771-306Z" transform="translate(-192.672 -192.906)" fill="#f5f5f5"/>
    </g>
  </g>
</svg>
