<svg width="55" height="55" viewBox="0 0 55 55" fill="none" xmlns="http://www.w3.org/2000/svg">
<circle cx="27.5" cy="27.5" r="27.5" fill="#F4F4F4"/>
<path d="M28 38.9817C25.2795 38.9835 22.6553 37.9745 20.6369 36.1503C18.6185 34.3262 17.3499 31.8172 17.0774 29.1104C16.8049 26.4035 17.5478 23.692 19.162 21.5021C20.7763 19.3122 23.1466 17.8003 25.8129 17.2598C28.4792 16.7192 31.2512 17.1887 33.5908 18.577C35.9304 19.9653 37.6708 22.1734 38.4739 24.7727C39.2771 27.372 39.0857 30.177 37.9371 32.6431C36.7885 35.1093 34.7645 37.0607 32.258 38.1185C30.911 38.689 29.4629 38.9826 28 38.9817ZM28 18.1791C26.0565 18.1783 24.1565 18.754 22.5403 19.8332C20.9241 20.9125 19.6643 22.4468 18.9202 24.2422C18.1761 26.0375 17.9812 28.0132 18.3602 29.9193C18.7391 31.8255 19.6749 33.5764 21.0491 34.9506C22.4233 36.3248 24.1743 37.2606 26.0804 37.6396C27.9865 38.0185 29.9622 37.8236 31.7576 37.0796C33.5529 36.3355 35.0873 35.0756 36.1665 33.4594C37.2457 31.8432 37.8214 29.9432 37.8206 27.9998C37.8176 25.3961 36.7819 22.9 34.9408 21.0589C33.0998 19.2178 30.6036 18.1822 28 18.1791Z" fill="#F48102"/>
<path d="M31.3213 45.9884H24.6787C24.5247 45.9884 24.377 45.9272 24.2681 45.8183C24.1592 45.7094 24.0981 45.5617 24.0981 45.4077V42.7445C22.7785 42.4006 21.5115 41.8797 20.3316 41.1961L18.4503 43.0774C18.3963 43.1318 18.3321 43.175 18.2614 43.2045C18.1906 43.234 18.1147 43.2492 18.0381 43.2492C17.9614 43.2492 17.8855 43.234 17.8148 43.2045C17.744 43.175 17.6798 43.1318 17.6258 43.0774L12.9342 38.3742C12.8798 38.3202 12.8366 38.256 12.8071 38.1852C12.7776 38.1145 12.7624 38.0386 12.7624 37.9619C12.7624 37.8853 12.7776 37.8094 12.8071 37.7386C12.8366 37.6679 12.8798 37.6037 12.9342 37.5497L14.8155 35.6684C14.1328 34.4866 13.612 33.2185 13.2671 31.8981H10.5806C10.4266 31.8981 10.279 31.8369 10.1701 31.728C10.0612 31.6191 10 31.4714 10 31.3174V24.6826C10 24.5286 10.0612 24.3809 10.1701 24.272C10.279 24.1631 10.4266 24.1019 10.5806 24.1019H13.2439C13.5888 22.7815 14.1096 21.5133 14.7923 20.3316L12.911 18.4503C12.8565 18.3963 12.8133 18.3321 12.7839 18.2614C12.7544 18.1906 12.7392 18.1147 12.7392 18.0381C12.7392 17.9614 12.7544 17.8855 12.7839 17.8148C12.8133 17.744 12.8565 17.6798 12.911 17.6258L17.6258 12.9342C17.6798 12.8798 17.744 12.8366 17.8148 12.8071C17.8855 12.7776 17.9614 12.7624 18.0381 12.7624C18.1147 12.7624 18.1906 12.7776 18.2614 12.8071C18.3321 12.8366 18.3963 12.8798 18.4503 12.9342L20.3316 14.8155C21.5115 14.1319 22.7785 13.611 24.0981 13.2671V10.5806C24.0981 10.4266 24.1592 10.279 24.2681 10.1701C24.377 10.0612 24.5247 10 24.6787 10H31.3213C31.4753 10 31.623 10.0612 31.7319 10.1701C31.8408 10.279 31.9019 10.4266 31.9019 10.5806V13.2439C33.2215 13.5878 34.4885 14.1086 35.6684 14.7923L37.5497 12.911C37.6037 12.8565 37.6679 12.8133 37.7386 12.7839C37.8094 12.7544 37.8853 12.7392 37.9619 12.7392C38.0386 12.7392 38.1145 12.7544 38.1852 12.7839C38.256 12.8133 38.3202 12.8565 38.3742 12.911L43.0658 17.6258C43.1202 17.6798 43.1634 17.744 43.1929 17.8148C43.2224 17.8855 43.2376 17.9614 43.2376 18.0381C43.2376 18.1147 43.2224 18.1906 43.1929 18.2614C43.1634 18.3321 43.1202 18.3963 43.0658 18.4503L41.1845 20.3316C41.8672 21.5133 42.388 22.7815 42.7329 24.1019H45.4194C45.5734 24.1019 45.721 24.1631 45.8299 24.272C45.9388 24.3809 46 24.5286 46 24.6826V31.3174C46 31.4714 45.9388 31.6191 45.8299 31.728C45.721 31.8369 45.5734 31.8981 45.4194 31.8981H42.7445C42.3996 33.2185 41.8788 34.4866 41.1961 35.6684L43.0774 37.5497C43.1318 37.6037 43.175 37.6679 43.2045 37.7386C43.234 37.8094 43.2492 37.8853 43.2492 37.9619C43.2492 38.0386 43.234 38.1145 43.2045 38.1852C43.175 38.256 43.1318 38.3202 43.0774 38.3742L38.3742 43.0658C38.3202 43.1202 38.256 43.1634 38.1852 43.1929C38.1145 43.2224 38.0386 43.2376 37.9619 43.2376C37.8853 43.2376 37.8094 43.2224 37.7386 43.1929C37.6679 43.1634 37.6037 43.1202 37.5497 43.0658L35.6684 41.1845C34.4885 41.8681 33.2215 42.389 31.9019 42.7329V45.4194C31.8989 45.5713 31.8364 45.716 31.7278 45.8224C31.6193 45.9288 31.4733 45.9884 31.3213 45.9884ZM25.2594 44.8271H30.7406V42.2877C30.7414 42.1569 30.7861 42.03 30.8675 41.9276C30.9489 41.8251 31.0624 41.7529 31.1897 41.7226C32.6974 41.3753 34.1365 40.7787 35.4477 39.9574C35.559 39.8881 35.6906 39.8588 35.8208 39.8743C35.9509 39.8897 36.0719 39.9491 36.1639 40.0426L37.96 41.8348L41.831 37.9639L40.0426 36.1677C39.9491 36.0758 39.8898 35.9548 39.8743 35.8246C39.8588 35.6945 39.8881 35.5629 39.9574 35.4516C40.7771 34.1396 41.3736 32.7007 41.7226 31.1935C41.7529 31.0652 41.8256 30.9508 41.9287 30.8687C42.0319 30.7865 42.1597 30.7414 42.2916 30.7406H44.8271V25.2632H42.2916C42.1597 25.2624 42.0319 25.2173 41.9287 25.1352C41.8256 25.0531 41.7529 24.9387 41.7226 24.8103C41.3736 23.3032 40.7771 21.8643 39.9574 20.5523C39.8881 20.441 39.8588 20.3094 39.8743 20.1792C39.8898 20.0491 39.9491 19.928 40.0426 19.8361L41.8348 18.0439L37.9639 14.1729L36.1677 15.9574C36.0758 16.0509 35.9548 16.1102 35.8246 16.1257C35.6945 16.1412 35.5629 16.1119 35.4516 16.0426C34.1404 15.2213 32.7013 14.6247 31.1935 14.2774C31.0662 14.2471 30.9528 14.1749 30.8714 14.0724C30.79 13.97 30.7453 13.8431 30.7445 13.7123V11.1729H25.2594V13.7123C25.2586 13.8431 25.2139 13.97 25.1325 14.0724C25.0511 14.1749 24.9376 14.2471 24.8103 14.2774C23.3026 14.6247 21.8635 15.2213 20.5523 16.0426C20.441 16.1119 20.3094 16.1412 20.1792 16.1257C20.0491 16.1102 19.928 16.0509 19.8361 15.9574L18.04 14.1652L14.169 18.0361L15.9613 19.8284C16.0548 19.9203 16.1141 20.0413 16.1296 20.1715C16.1451 20.3017 16.1158 20.4332 16.0465 20.5445C15.2267 21.8565 14.6303 23.2954 14.2813 24.8026C14.2509 24.9309 14.1783 25.0453 14.0751 25.1275C13.9719 25.2096 13.8441 25.2547 13.7123 25.2555H11.1729V30.7368H13.7084C13.8403 30.7376 13.9681 30.7826 14.0713 30.8648C14.1744 30.9469 14.2471 31.0613 14.2774 31.1897C14.6264 32.6968 15.2229 34.1357 16.0426 35.4477C16.1119 35.559 16.1412 35.6906 16.1257 35.8208C16.1102 35.9509 16.0509 36.0719 15.9574 36.1639L14.1652 37.9561L18.0361 41.8271L19.8323 40.0348C19.9242 39.9414 20.0452 39.882 20.1754 39.8665C20.3055 39.851 20.4371 39.8804 20.5484 39.9497C21.8596 40.771 23.2987 41.3676 24.8065 41.7148C24.9338 41.7452 25.0472 41.8174 25.1286 41.9198C25.21 42.0223 25.2547 42.1491 25.2555 42.28L25.2594 44.8271Z" fill="#F48102"/>
<path d="M23.7613 31.7236C23.4436 31.7236 23.133 31.6294 22.8688 31.4529C22.6046 31.2764 22.3987 31.0255 22.2771 30.732C22.1555 30.4384 22.1237 30.1154 22.1857 29.8038C22.2477 29.4922 22.4007 29.2059 22.6254 28.9813C22.85 28.7566 23.1363 28.6036 23.4479 28.5416C23.7595 28.4796 24.0825 28.5114 24.3761 28.633C24.6696 28.7546 24.9205 28.9605 25.097 29.2247C25.2735 29.4889 25.3678 29.7995 25.3678 30.1172C25.3678 30.5433 25.1985 30.9519 24.8972 31.2531C24.596 31.5544 24.1874 31.7236 23.7613 31.7236ZM23.7613 29.6759C23.6731 29.6759 23.5869 29.7021 23.5136 29.7512C23.4403 29.8003 23.3832 29.87 23.3497 29.9516C23.3161 30.0332 23.3075 30.1229 23.325 30.2093C23.3425 30.2958 23.3853 30.3751 23.4479 30.4372C23.5106 30.4993 23.5902 30.5414 23.6768 30.5581C23.7635 30.5749 23.8531 30.5655 23.9344 30.5312C24.0156 30.4969 24.0849 30.4393 24.1333 30.3656C24.1818 30.2918 24.2072 30.2054 24.2065 30.1172C24.2065 30.0589 24.1949 30.0012 24.1725 29.9474C24.1501 29.8936 24.1172 29.8448 24.0758 29.8038C24.0345 29.7628 23.9853 29.7303 23.9314 29.7084C23.8774 29.6864 23.8196 29.6754 23.7613 29.6759Z" fill="#F48102"/>
<path d="M32.2581 27.4854C31.94 27.4861 31.6289 27.3925 31.3641 27.2162C31.0993 27.04 30.8928 26.7892 30.7708 26.4955C30.6487 26.2018 30.6166 25.8784 30.6784 25.5665C30.7403 25.2545 30.8934 24.9679 31.1183 24.743C31.3432 24.5181 31.6298 24.365 31.9417 24.3031C32.2537 24.2413 32.577 24.2734 32.8707 24.3955C33.1644 24.5176 33.4153 24.7241 33.5915 24.9888C33.7677 25.2536 33.8614 25.5647 33.8606 25.8828C33.8596 26.3075 33.6904 26.7145 33.3901 27.0148C33.0898 27.3152 32.6828 27.4843 32.2581 27.4854ZM32.2581 25.4376C32.1698 25.4369 32.0834 25.4623 32.0097 25.5108C31.936 25.5592 31.8783 25.6285 31.844 25.7097C31.8097 25.791 31.8004 25.8806 31.8171 25.9672C31.8338 26.0538 31.8759 26.1335 31.938 26.1962C32.0001 26.2588 32.0794 26.3016 32.1659 26.3191C32.2524 26.3366 32.3421 26.328 32.4236 26.2944C32.5052 26.2608 32.575 26.2038 32.624 26.1305C32.6731 26.0572 32.6993 25.971 32.6993 25.8828C32.6993 25.7654 32.653 25.6527 32.5703 25.5694C32.4877 25.486 32.3754 25.4386 32.2581 25.4376Z" fill="#F48102"/>
<path d="M28 29.6026C27.6831 29.6026 27.3732 29.5086 27.1097 29.3325C26.8461 29.1564 26.6407 28.9062 26.5194 28.6133C26.3981 28.3205 26.3664 27.9983 26.4282 27.6874C26.4901 27.3765 26.6427 27.091 26.8668 26.8668C27.0909 26.6427 27.3765 26.4901 27.6874 26.4283C27.9982 26.3664 28.3205 26.3982 28.6133 26.5195C28.9061 26.6407 29.1564 26.8462 29.3325 27.1097C29.5086 27.3732 29.6026 27.6831 29.6026 28C29.6026 28.4251 29.4337 28.8327 29.1332 29.1332C28.8327 29.4338 28.425 29.6026 28 29.6026ZM28 27.5588C27.9127 27.5588 27.8274 27.5846 27.7548 27.6331C27.6823 27.6816 27.6257 27.7505 27.5923 27.8312C27.5589 27.9118 27.5502 28.0005 27.5672 28.0861C27.5842 28.1717 27.6263 28.2504 27.688 28.3121C27.7497 28.3738 27.8283 28.4158 27.9139 28.4329C27.9995 28.4499 28.0883 28.4411 28.1689 28.4077C28.2495 28.3743 28.3184 28.3178 28.3669 28.2452C28.4154 28.1726 28.4413 28.0873 28.4413 28C28.4413 27.883 28.3948 27.7708 28.3121 27.688C28.2293 27.6052 28.117 27.5588 28 27.5588Z" fill="#F48102"/>
<path d="M28 27.5583C27.846 27.5583 27.6983 27.4971 27.5894 27.3882C27.4805 27.2794 27.4194 27.1317 27.4194 26.9777V22.108C27.4194 21.954 27.4805 21.8063 27.5894 21.6974C27.6983 21.5885 27.846 21.5273 28 21.5273C28.154 21.5273 28.3017 21.5885 28.4106 21.6974C28.5195 21.8063 28.5806 21.954 28.5806 22.108V26.9777C28.5806 27.1317 28.5195 27.2794 28.4106 27.3882C28.3017 27.4971 28.154 27.5583 28 27.5583Z" fill="#F48102"/>
<path d="M32.2581 25.437C32.1041 25.437 31.9564 25.3758 31.8475 25.267C31.7386 25.1581 31.6774 25.0104 31.6774 24.8564V22.108C31.6774 21.954 31.7386 21.8063 31.8475 21.6974C31.9564 21.5885 32.1041 21.5273 32.2581 21.5273C32.4121 21.5273 32.5598 21.5885 32.6687 21.6974C32.7775 21.8063 32.8387 21.954 32.8387 22.108V24.8564C32.8387 25.0104 32.7775 25.1581 32.6687 25.267C32.5598 25.3758 32.4121 25.437 32.2581 25.437Z" fill="#F48102"/>
<path d="M23.7613 34.4722C23.6073 34.4722 23.4596 34.411 23.3507 34.3021C23.2418 34.1932 23.1806 34.0455 23.1806 33.8915V31.1431C23.1806 30.9891 23.2418 30.8415 23.3507 30.7326C23.4596 30.6237 23.6073 30.5625 23.7613 30.5625C23.9153 30.5625 24.063 30.6237 24.1719 30.7326C24.2807 30.8415 24.3419 30.9891 24.3419 31.1431V33.8915C24.3419 34.0455 24.2807 34.1932 24.1719 34.3021C24.063 34.411 23.9153 34.4722 23.7613 34.4722Z" fill="#F48102"/>
<path d="M28 34.4724C27.846 34.4724 27.6983 34.4112 27.5894 34.3023C27.4805 34.1934 27.4194 34.0457 27.4194 33.8917V29.0221C27.4194 28.8681 27.4805 28.7204 27.5894 28.6115C27.6983 28.5026 27.846 28.4414 28 28.4414C28.154 28.4414 28.3017 28.5026 28.4106 28.6115C28.5195 28.7204 28.5806 28.8681 28.5806 29.0221V33.8917C28.5806 34.0457 28.5195 34.1934 28.4106 34.3023C28.3017 34.4112 28.154 34.4724 28 34.4724Z" fill="#F48102"/>
<path d="M32.2581 34.4723C32.1041 34.4723 31.9564 34.4111 31.8475 34.3022C31.7386 34.1933 31.6774 34.0456 31.6774 33.8916V26.9239C31.6774 26.7699 31.7386 26.6222 31.8475 26.5133C31.9564 26.4044 32.1041 26.3433 32.2581 26.3433C32.4121 26.3433 32.5598 26.4044 32.6687 26.5133C32.7775 26.6222 32.8387 26.7699 32.8387 26.9239V33.8916C32.8387 34.0456 32.7775 34.1933 32.6687 34.3022C32.5598 34.4111 32.4121 34.4723 32.2581 34.4723Z" fill="#F48102"/>
<path d="M23.7613 29.6759C23.6073 29.6759 23.4596 29.6147 23.3507 29.5058C23.2418 29.3969 23.1806 29.2493 23.1806 29.0953V22.1275C23.1806 21.9735 23.2418 21.8258 23.3507 21.7169C23.4596 21.608 23.6073 21.5469 23.7613 21.5469C23.9153 21.5469 24.063 21.608 24.1719 21.7169C24.2807 21.8258 24.3419 21.9735 24.3419 22.1275V29.0953C24.3419 29.2493 24.2807 29.3969 24.1719 29.5058C24.063 29.6147 23.9153 29.6759 23.7613 29.6759Z" fill="#F48102"/>
</svg>
