<svg width="80" height="80" viewBox="0 0 80 80" fill="none" xmlns="http://www.w3.org/2000/svg">
<circle cx="40" cy="40" r="40" fill="#FFF2E8"/>
<path fill-rule="evenodd" clip-rule="evenodd" d="M53.5136 36.5108C50.7482 36.5108 49.3607 39.861 51.3161 41.8165C51.6762 42.1766 51.6762 42.7608 51.3161 43.1209L49.3299 45.1071C48.9698 45.4672 48.3856 45.4672 48.0255 45.1071C46.0701 43.1516 42.7199 44.5392 42.7199 47.3046C42.7199 47.8141 42.3067 48.2272 41.7972 48.2272H38.989C38.4795 48.2272 38.0664 47.8147 38.0664 47.3046C38.0664 44.5362 34.7186 43.1492 32.7608 45.1071C32.4006 45.4672 31.8165 45.4672 31.4563 45.1071L29.4702 43.1209C29.11 42.7608 29.11 42.1766 29.4702 41.8165C31.4256 39.861 30.0381 36.5108 27.2726 36.5108C26.7631 36.5108 26.35 36.0977 26.35 35.5882V32.78C26.35 32.2705 26.7625 31.8574 27.2726 31.8574C30.0381 31.8574 31.4256 28.5072 29.4702 26.5517C29.11 26.1916 29.11 25.6074 29.4702 25.2473L31.4563 23.2612C31.8165 22.901 32.4006 22.901 32.7608 23.2612C34.7162 25.2166 38.0664 23.8291 38.0664 21.0636C38.0664 20.5541 38.4795 20.141 38.989 20.141H41.7972C42.3067 20.141 42.7199 20.5535 42.7199 21.0636C42.7199 23.8291 46.0701 25.2166 48.0255 23.2612C48.3856 22.901 48.9698 22.901 49.3299 23.2612L51.3161 25.2473C51.6762 25.6074 51.6762 26.1916 51.3161 26.5517C49.3607 28.5072 50.7482 31.8574 53.5136 31.8574C54.0231 31.8574 54.4363 32.2705 54.4363 32.78V35.5882C54.4357 36.0977 54.0231 36.5108 53.5136 36.5108ZM51.8545 62.3803H16.7149V64.0695H51.8539L51.8545 62.3803ZM15.2015 65.5835V60.8669H65.586V65.5835H15.2015ZM66.3424 67.0969H14.4445C14.0266 67.0969 13.6875 66.7579 13.6875 66.3399V60.1099C13.6875 59.6919 14.0266 59.3529 14.4445 59.3529H66.3424C66.7603 59.3529 67.0994 59.6919 67.0994 60.1099V66.3405C67.0994 66.7579 66.7603 67.0969 66.3424 67.0969ZM31.5611 48.5699L27.9212 48.715C27.6948 48.7084 27.4678 48.803 27.313 48.9921C27.1425 49.1998 27.1016 49.4715 27.1805 49.7093L28.026 53.2384C28.1224 53.6431 28.5289 53.8936 28.9336 53.7973C29.3383 53.7009 29.5888 53.2944 29.4925 52.8897L29.1124 51.304C32.8204 53.7527 37.1492 54.8698 41.4239 54.6555C51.9382 54.1285 60.3369 45.7298 60.8639 35.2154C61.112 30.2717 59.5787 25.2551 56.2646 21.2106C56.0003 20.8872 55.5233 20.8396 55.2005 21.104C54.8771 21.3683 54.8295 21.8453 55.0939 22.1681C58.1647 25.9164 59.5859 30.5638 59.3559 35.1438C58.8681 44.8698 51.0788 52.6591 41.3528 53.1469C37.4497 53.3426 33.4973 52.3393 30.0941 50.1375L31.6195 50.0767C32.0357 50.0604 32.3603 49.7093 32.344 49.2932C32.3284 48.8776 31.9779 48.553 31.5611 48.5699ZM49.2258 19.7989L52.8656 19.6538C53.0921 19.6604 53.3191 19.5659 53.4739 19.3768C53.6443 19.169 53.6853 18.8974 53.6064 18.6595L52.7609 15.1304C52.6645 14.7257 52.258 14.4752 51.8533 14.5716C51.448 14.6679 51.1975 15.0744 51.2938 15.4791L51.6738 17.0648C47.9659 14.6167 43.6371 13.499 39.3624 13.7134C28.8481 14.2403 20.4494 22.639 19.9224 33.1534C19.6743 38.0971 21.2076 43.1137 24.5216 47.1583C24.786 47.4817 25.2624 47.5293 25.5858 47.2649C25.9092 47.0005 25.9568 46.5235 25.6924 46.2007C22.6216 42.4524 21.2003 37.805 21.4304 33.2251C21.9182 23.499 29.7074 15.7098 39.4335 15.222C43.3365 15.0256 47.289 16.029 50.6922 18.2301L49.1667 18.2909C48.7506 18.3072 48.426 18.6583 48.4423 19.0744C48.4585 19.4906 48.809 19.8152 49.2258 19.7989ZM40.3934 27.437C36.6668 27.437 33.646 30.4578 33.646 34.1844C33.646 37.911 36.6668 40.9318 40.3934 40.9318C44.12 40.9318 47.1408 37.911 47.1408 34.1844C47.1408 30.4578 44.12 27.437 40.3934 27.437Z" fill="#111111"/>
<line x1="16.4375" y1="62.7188" x2="52.1875" y2="62.7188" stroke="#F48120" stroke-width="3"/>
</svg>
