<svg xmlns="http://www.w3.org/2000/svg" width="60" height="60" viewBox="0 0 60 60">
  <g id="Group_527" data-name="Group 527" transform="translate(-142 -5008)">
    <circle id="Ellipse_14" data-name="Ellipse 14" cx="30" cy="30" r="30" transform="translate(142 5008)" fill="#fff2e8"/>
    <g id="dashboard-svgrepo-com" transform="translate(159.586 5024.551)">
      <path id="Path_2148" data-name="Path 2148" d="M13.259,10H8.278A2.755,2.755,0,0,0,5.5,12.732v10.34A2.755,2.755,0,0,0,8.278,25.8h4.981a2.755,2.755,0,0,0,2.778-2.732V12.732A2.755,2.755,0,0,0,13.259,10Z" transform="translate(-5.5 0.535)" fill="none" stroke="#f48120" stroke-linecap="round" stroke-linejoin="round" stroke-width="1" fill-rule="evenodd"/>
      <path id="Path_2149" data-name="Path 2149" d="M13.259,4H8.278A2.7,2.7,0,0,0,5.5,6.622V8.4a2.7,2.7,0,0,0,2.778,2.621h4.981A2.7,2.7,0,0,0,16.036,8.4V6.622A2.7,2.7,0,0,0,13.259,4Z" transform="translate(-5.5 -3.999)" fill="none" stroke="#f48120" stroke-linecap="round" stroke-linejoin="round" stroke-width="1" fill-rule="evenodd"/>
      <path id="Path_2150" data-name="Path 2150" d="M16.278,19.8h4.981a2.755,2.755,0,0,0,2.78-2.732V6.732A2.755,2.755,0,0,0,21.259,4H16.278A2.755,2.755,0,0,0,13.5,6.732V17.07A2.755,2.755,0,0,0,16.278,19.8Z" transform="translate(0.545 -3.999)" fill="none" stroke="#f48120" stroke-linecap="round" stroke-linejoin="round" stroke-width="1" fill-rule="evenodd"/>
      <path id="Path_2151" data-name="Path 2151" d="M16.278,22.024h4.981a2.7,2.7,0,0,0,2.78-2.621v-1.78A2.7,2.7,0,0,0,21.259,15H16.278A2.7,2.7,0,0,0,13.5,17.622V19.4A2.7,2.7,0,0,0,16.278,22.024Z" transform="translate(0.545 4.314)" fill="none" stroke="#f48120" stroke-linecap="round" stroke-linejoin="round" stroke-width="1" fill-rule="evenodd"/>
    </g>
  </g>
</svg>
