<?xml version="1.0" encoding="UTF-8"?><svg id="Layer_1" xmlns="http://www.w3.org/2000/svg" viewBox="0 0 60 60"><defs><style>.cls-1{fill:#282828;}.cls-1,.cls-2,.cls-3,.cls-4,.cls-5,.cls-6,.cls-7{stroke-width:0px;}.cls-2{fill:#a1a0a0;}.cls-3{fill:#010101;}.cls-4{fill:#f89948;}.cls-5{fill:#f0efef;}.cls-6{fill:#fff2e9;}.cls-7{fill:#f58220;}</style></defs><circle class="cls-6" cx="30" cy="30" r="30"/><path class="cls-4" d="M21.76,47.65h-10.97c0-2.37,1.52-4.48,3.77-5.21-1.45-.95-1.86-2.89-.92-4.35.95-1.45,2.89-1.86,4.35-.92,1.45.95,1.86,2.89.92,4.35-.24.37-.55.68-.92.92,2.25.74,3.78,2.84,3.77,5.21Z"/><path class="cls-1" d="M22.19,48.08h-11.83v-.43c0-2.31,1.32-4.37,3.37-5.34-.47-.48-.8-1.09-.95-1.77-.2-.93-.02-1.89.5-2.69.52-.8,1.32-1.35,2.25-1.54s1.89-.02,2.69.5c1.65,1.07,2.12,3.29,1.04,4.94-.13.2-.28.39-.44.55,2.05.97,3.37,3.03,3.37,5.34v.43ZM11.23,47.22h10.08c-.16-2.01-1.51-3.74-3.46-4.38l-.85-.28.75-.49c.32-.21.58-.47.79-.79.4-.61.53-1.33.38-2.04-.15-.71-.57-1.32-1.17-1.71-.61-.4-1.33-.53-2.04-.38-.71.15-1.32.57-1.71,1.17-.4.61-.53,1.33-.38,2.04.15.71.57,1.32,1.17,1.71l.75.49-.85.28c-1.95.64-3.3,2.36-3.46,4.38Z"/><path class="cls-2" d="M49.19,47.65h-10.97c0-2.37,1.52-4.48,3.77-5.21-1.45-.95-1.86-2.89-.92-4.35.95-1.45,2.89-1.86,4.35-.92,1.45.95,1.86,2.89.92,4.35-.24.37-.55.68-.92.92,2.25.74,3.78,2.84,3.77,5.21ZM21.76,20.22h-10.97c0-2.37,1.52-4.48,3.77-5.21-1.45-.95-1.86-2.89-.92-4.35.95-1.45,2.89-1.86,4.35-.92,1.45.95,1.86,2.89.92,4.35-.24.37-.55.68-.92.92,2.25.74,3.78,2.84,3.77,5.21Z"/><path class="cls-1" d="M49.62,48.08h-11.83v-.43c0-2.31,1.32-4.37,3.37-5.34-.47-.48-.8-1.09-.95-1.77-.2-.93-.02-1.89.5-2.69.52-.8,1.32-1.35,2.25-1.54.93-.2,1.89-.02,2.69.5,1.65,1.07,2.12,3.29,1.04,4.94-.13.2-.28.39-.44.55,2.05.97,3.37,3.03,3.37,5.34v.43ZM38.66,47.22h10.08c-.16-2.01-1.51-3.74-3.46-4.38l-.85-.28.75-.49c.32-.21.58-.47.79-.79.4-.61.53-1.33.38-2.04-.15-.71-.57-1.32-1.17-1.71-.61-.4-1.33-.53-2.04-.38-.71.15-1.32.57-1.71,1.17-.4.61-.53,1.33-.38,2.04.15.71.57,1.32,1.17,1.71l.75.49-.85.28c-1.95.64-3.3,2.36-3.46,4.38ZM22.19,20.64h-11.83v-.43c0-2.31,1.32-4.37,3.37-5.34-.47-.48-.8-1.09-.95-1.77-.2-.93-.02-1.89.5-2.69.52-.8,1.32-1.35,2.25-1.54s1.89-.02,2.69.5c1.65,1.07,2.12,3.29,1.04,4.94-.13.2-.28.39-.44.55,2.05.97,3.37,3.03,3.37,5.34v.43ZM11.23,19.79h10.08c-.16-2.01-1.51-3.74-3.46-4.38l-.85-.28.75-.49c.32-.21.58-.47.79-.79.82-1.25.46-2.94-.79-3.75-.61-.4-1.33-.53-2.04-.38-.71.15-1.32.57-1.71,1.17-.4.61-.53,1.33-.38,2.04.15.71.57,1.32,1.17,1.71l.75.49-.85.28c-1.95.64-3.3,2.36-3.46,4.38Z"/><path class="cls-4" d="M49.19,20.22h-10.97c0-2.37,1.52-4.48,3.77-5.21-1.45-.95-1.86-2.89-.92-4.35.95-1.45,2.89-1.86,4.35-.92,1.45.95,1.86,2.89.92,4.35-.24.37-.55.68-.92.92,2.25.74,3.78,2.84,3.77,5.21Z"/><path class="cls-1" d="M49.62,20.64h-11.83v-.43c0-2.31,1.32-4.37,3.37-5.34-.47-.48-.8-1.09-.95-1.77-.2-.93-.02-1.89.5-2.69.52-.8,1.32-1.35,2.25-1.54.93-.2,1.89-.02,2.69.5,1.65,1.07,2.12,3.29,1.04,4.94-.13.2-.28.39-.44.55,2.05.97,3.37,3.03,3.37,5.34v.43ZM38.66,19.79h10.08c-.16-2.01-1.51-3.74-3.46-4.38l-.85-.28.75-.49c.32-.21.58-.47.79-.79.4-.61.53-1.33.38-2.04-.15-.71-.57-1.32-1.17-1.71-.61-.4-1.33-.53-2.04-.38-.71.15-1.32.57-1.71,1.17-.4.61-.53,1.33-.38,2.04.15.71.57,1.32,1.17,1.71l.75.49-.85.28c-1.95.64-3.3,2.36-3.46,4.38Z"/><polygon class="cls-7" points="32.73 25.7 32.73 33.93 27.24 33.93 25.87 35.3 25.87 33.93 23.13 33.93 23.13 25.7 32.73 25.7"/><path class="cls-1" d="M25.44,36.34v-1.98h-2.74v-9.09h10.46v9.09h-5.74l-1.98,1.98ZM23.56,33.5h2.74v.77l.77-.77h5.24v-7.37h-8.74v7.37Z"/><polygon class="cls-5" points="36.85 22.96 36.85 31.19 32.73 31.19 32.73 25.7 27.24 25.7 27.24 22.96 31.36 22.96 34.1 21.59 34.1 22.96 36.85 22.96"/><path class="cls-1" d="M37.27,31.62h-4.97v-5.49h-5.49v-3.6h4.44l3.27-1.64v1.64h2.74v9.09ZM33.16,30.76h3.26v-7.37h-2.74v-1.11l-2.21,1.11h-3.79v1.89h5.49v5.49Z"/><circle class="cls-3" cx="29.99" cy="11.3" r=".69"/><path class="cls-1" d="M29.99,12.41c-.61,0-1.11-.5-1.11-1.11s.5-1.11,1.11-1.11,1.11.5,1.11,1.11-.5,1.11-1.11,1.11ZM29.99,11.04c-.14,0-.26.12-.26.26s.12.26.26.26.26-.12.26-.26-.12-.26-.26-.26Z"/></svg>