<svg id="utility-asset-control" xmlns="http://www.w3.org/2000/svg" xmlns:xlink="http://www.w3.org/1999/xlink" width="45" height="45" viewBox="0 0 45 45">
  <defs>
    <linearGradient id="linear-gradient" x1="0.5" x2="0.156" y2="0.791" gradientUnits="objectBoundingBox">
      <stop offset="0" stop-color="#3e3e3e"/>
      <stop offset="1" stop-color="#1a1a1a"/>
    </linearGradient>
  </defs>
  <circle id="Ellipse_1" data-name="Ellipse 1" cx="22.5" cy="22.5" r="22.5" fill="url(#linear-gradient)"/>
  <g id="noun-asset-6008446" transform="translate(7 4.16)">
    <circle id="Ellipse_118" data-name="Ellipse 118" cx="2.677" cy="2.677" r="2.677" transform="translate(13.502 9.893) rotate(-9.22)" fill="#fff"/>
    <path id="Path_9171" data-name="Path 9171" d="M34.5,13.055a3.889,3.889,0,0,0,.434,1.051.448.448,0,0,1-.066.553l-.75.75.857.857.747-.75a.456.456,0,0,1,.553-.069,3.784,3.784,0,0,0,1.048.434.456.456,0,0,1,.343.44V17.38H38.88V16.318a.456.456,0,0,1,.34-.44,3.8,3.8,0,0,0,1.051-.42.451.451,0,0,1,.553.069l.75.736.857-.857-.752-.75a.451.451,0,0,1-.069-.553,3.8,3.8,0,0,0,.434-1.051.456.456,0,0,1,.44-.34h1.059V11.5H42.484a.456.456,0,0,1-.44-.343,3.784,3.784,0,0,0-.434-1.048.456.456,0,0,1,.069-.553l.75-.738-.855-.866-.75.75a.448.448,0,0,1-.553.066,3.889,3.889,0,0,0-1.051-.434.451.451,0,0,1-.34-.437V6.84H37.669V7.9a.451.451,0,0,1-.343.437,3.872,3.872,0,0,0-1.048.434.451.451,0,0,1-.553-.066l-.747-.75-.857.866.75.747a.451.451,0,0,1,.066.553,3.961,3.961,0,0,0-.434,1.048.451.451,0,0,1-.437.343H33v1.211h1.059a.454.454,0,0,1,.443.332Zm3.773-4.528a3.582,3.582,0,1,1-3.6,3.6,3.582,3.582,0,0,1,3.6-3.6Z" transform="translate(-21.703)" fill="#fff"/>
    <path id="Path_9172" data-name="Path 9172" d="M34,40.378a1.5,1.5,0,0,0-2.1.1l-4,4.345a2.127,2.127,0,0,1,.044.443,2.188,2.188,0,0,1-2.185,2.2H19.532v-.915h6.226a1.283,1.283,0,1,0,0-2.567H15.3a2.647,2.647,0,0,0-1.831.73L10.59,47.445l5.277,5.327L17.8,51.007a4.685,4.685,0,0,1,3.175-1.234h5.233a3.042,3.042,0,0,0,2.265-1.012l5.634-6.276A1.5,1.5,0,0,0,34,40.378Z" transform="translate(-5.491 -23.985)" fill="#fff"/>
    <path id="Path_9173" data-name="Path 9173" d="M3,70.542l5.266,5.263,1.441-1.319L4.444,69.17Z" transform="translate(0 -45.091)" fill="#fff"/>
  </g>
</svg>
