<svg xmlns="http://www.w3.org/2000/svg" width="60" height="60" viewBox="0 0 60 60">
  <g id="utility-management-software-1" transform="translate(-672 -5966)">
    <circle id="Ellipse_14" data-name="Ellipse 14" cx="30" cy="30" r="30" transform="translate(672 5966)" fill="#fff2e8"/>
    <g id="noun-development-6757534" transform="translate(678.871 5970.192)">
      <path id="Path_9245" data-name="Path 9245" d="M45.168,26.562H31.32a.667.667,0,0,0,0,1.333H45.168a2,2,0,0,1,2,2v16a2,2,0,0,1-2,2h-24a2,2,0,0,1-2-2V41.883a.667.667,0,0,0-1.333,0V45.9a3.337,3.337,0,0,0,3.334,3.334H44.377A2,2,0,0,1,42.5,50.563h-24a2,2,0,0,1-2-2V41.229a.667.667,0,0,0-1.333,0v7.334A3.337,3.337,0,0,0,18.5,51.9H41.71a2,2,0,0,1-1.877,1.333h-24a2,2,0,0,1-2-2V40.563a.667.667,0,1,0-1.333,0V51.23a3.337,3.337,0,0,0,3.334,3.334h24a3.333,3.333,0,0,0,3.272-2.728,3.335,3.335,0,0,0,2.667-2.667A3.336,3.336,0,0,0,48.5,45.9v-16a3.337,3.337,0,0,0-3.334-3.334Z" transform="translate(-5.372 -10.752)" fill="#f48120"/>
      <path id="Path_9246" data-name="Path 9246" d="M81.93,31.25a.667.667,0,0,0,0,1.333A.667.667,0,0,0,81.93,31.25Z" transform="translate(-44.801 -13.439)" fill="#f48120"/>
      <path id="Path_9247" data-name="Path 9247" d="M88.833,31.929a.667.667,0,0,0-1.333,0A.667.667,0,0,0,88.833,31.929Z" transform="translate(-48.371 -13.452)" fill="#f48120"/>
      <path id="Path_9248" data-name="Path 9248" d="M56.351,42.188H54.757a.667.667,0,0,0,0,1.333h1.593A.667.667,0,0,0,56.351,42.188Z" transform="translate(-29.222 -19.71)" fill="#f48120"/>
      <path id="Path_9249" data-name="Path 9249" d="M58.045,48.438H51.9a.667.667,0,0,0,0,1.333h6.147A.667.667,0,0,0,58.045,48.438Z" transform="translate(-27.583 -23.293)" fill="#f48120"/>
      <path id="Path_9250" data-name="Path 9250" d="M47.849,56.02a.667.667,0,0,0,0-1.333H45.742a.667.667,0,0,0,0,1.333Z" transform="translate(-24.054 -26.876)" fill="#f48120"/>
      <path id="Path_9251" data-name="Path 9251" d="M41.917,61.6a.667.667,0,0,0-.667-.667H31.917a.667.667,0,0,0,0,1.333h9.334A.667.667,0,0,0,41.917,61.6Z" transform="translate(-16.122 -30.459)" fill="#f48120"/>
      <path id="Path_9252" data-name="Path 9252" d="M31.929,67.188a.667.667,0,0,0,0,1.333H34.6a.667.667,0,0,0,0-1.333Z" transform="translate(-16.135 -34.043)" fill="#f48120"/>
      <path id="Path_9253" data-name="Path 9253" d="M69.413,62.461a.666.666,0,0,0,.6-.368l4-8a.667.667,0,0,0-1.193-.6l-4,8a.67.67,0,0,0,.6.965Z" transform="translate(-37.618 -25.983)" fill="#f48120"/>
      <path id="Path_9254" data-name="Path 9254" d="M61.617,56.445a.668.668,0,0,0-.943,0l-2.667,2.667a.668.668,0,0,0,0,.943l2.667,2.667a.667.667,0,0,0,.943-.943l-2.2-2.2,2.2-2.2a.668.668,0,0,0,0-.943Z" transform="translate(-31.35 -27.772)" fill="#f48120"/>
      <path id="Path_9255" data-name="Path 9255" d="M83,56.445a.668.668,0,0,0,0,.943l2.2,2.2-2.2,2.2a.667.667,0,0,0,.943.943l2.667-2.667a.668.668,0,0,0,0-.943l-2.667-2.667a.668.668,0,0,0-.943,0Z" transform="translate(-45.677 -27.772)" fill="#f48120"/>
      <path id="Path_9256" data-name="Path 9256" d="M4.532,20.954h.325c.048.215.107.427.17.637a1.468,1.468,0,0,0-.8,2.08l.738,1.278a1.465,1.465,0,0,0,2.193.355c.152.162.307.318.468.468a1.466,1.466,0,0,0,.357,2.193l1.278.738a1.466,1.466,0,0,0,2.082-.8c.21.063.423.122.637.17a1.465,1.465,0,0,0,1.405,1.728h1.477a1.466,1.466,0,0,0,1.405-1.73c.215-.048.427-.107.637-.17a1.468,1.468,0,0,0,2.08.8l1.278-.738a1.467,1.467,0,0,0,.357-2.193c.162-.15.318-.307.468-.468a1.466,1.466,0,0,0,2.193-.355l.738-1.278a1.467,1.467,0,0,0-.8-2.082c.063-.21.122-.423.17-.637a1.467,1.467,0,0,0,1.73-1.405V18.069a1.466,1.466,0,0,0-1.73-1.405c-.048-.215-.107-.427-.17-.637a1.468,1.468,0,0,0,.8-2.08l-.738-1.278a1.466,1.466,0,0,0-2.193-.355c-.152-.162-.307-.318-.468-.468a1.466,1.466,0,0,0-.357-2.193L18.99,8.913a1.468,1.468,0,0,0-2.082.8c-.21-.063-.423-.122-.637-.17a1.467,1.467,0,0,0-1.405-1.73H13.39a1.466,1.466,0,0,0-1.405,1.73c-.215.048-.427.107-.637.17a1.468,1.468,0,0,0-2.08-.8l-1.278.738a1.467,1.467,0,0,0-.357,2.193c-.162.15-.318.307-.468.468a1.465,1.465,0,0,0-2.193.355l-.738,1.278a1.467,1.467,0,0,0,.8,2.082c-.063.21-.122.423-.17.637a1.465,1.465,0,0,0-1.728,1.405v1.477a1.406,1.406,0,0,0,1.405,1.405Zm-.072-2.882A.071.071,0,0,1,4.532,18H5.4c.9-.022.688-1.423,1.055-2.042.26-.7-.6-.958-1.045-1.245a.071.071,0,0,1-.027-.1l.738-1.278a.073.073,0,0,1,.1-.027c.475.245,1.115.85,1.593.28.357-.632,1.673-1.143,1.243-1.938l-.432-.747a.071.071,0,0,1,.027-.1l1.278-.738a.072.072,0,0,1,.1.027l.435.753c.467.767,1.577-.113,2.3-.105a.666.666,0,0,0,.557-.658V9.215a.071.071,0,0,1,.072-.072h1.477a.071.071,0,0,1,.072.072c.027.535-.18,1.4.557,1.528.723-.008,1.823.877,2.3.107l.435-.753a.073.073,0,0,1,.1-.027l1.278.738a.07.07,0,0,1,.027.1c-.242.468-.852,1.118-.28,1.593a8.239,8.239,0,0,1,1.092,1.092c.475.573,1.127-.04,1.593-.28a.071.071,0,0,1,.1.027l.738,1.278a.071.071,0,0,1-.027.1l-.753.435c-.767.467.112,1.577.105,2.3a.666.666,0,0,0,.658.557h.872a.071.071,0,0,1,.072.072v1.477a.071.071,0,0,1-.072.072c-.535.027-1.4-.18-1.528.557.01.725-.877,1.813-.107,2.3l.753.435a.07.07,0,0,1,.027.1l-.738,1.278a.071.071,0,0,1-.1.027c-.475-.245-1.117-.852-1.593-.28-.357.632-1.673,1.143-1.243,1.938l.432.747a.071.071,0,0,1-.027.1l-1.278.738a.073.073,0,0,1-.1-.027l-.435-.753c-.467-.767-1.577.112-2.3.105a.666.666,0,0,0-.557.658v.872a.071.071,0,0,1-.072.072H13.39a.071.071,0,0,1-.072-.072c-.027-.535.18-1.4-.557-1.528-.725.01-1.812-.877-2.3-.107l-.435.753a.07.07,0,0,1-.1.027l-1.278-.738a.07.07,0,0,1-.027-.1c.245-.475.85-1.117.28-1.593-.627-.352-1.147-1.677-1.938-1.243l-.747.432a.071.071,0,0,1-.1-.027l-.738-1.278a.071.071,0,0,1,.027-.1l.753-.435c.767-.467-.112-1.577-.105-2.3a.666.666,0,0,0-.658-.557H4.532a.071.071,0,0,1-.072-.072Z" transform="translate(0 0)" fill="#f48120"/>
      <path id="Path_9257" data-name="Path 9257" d="M20.075,31.381A6.572,6.572,0,1,0,13.5,24.809a6.58,6.58,0,0,0,6.572,6.572Zm0-11.811a5.239,5.239,0,1,1-5.239,5.238,5.245,5.245,0,0,1,5.239-5.238Z" transform="translate(-5.948 -5.999)" fill="#f48120"/>
    </g>
  </g>
</svg>
