<svg id="utility-management-software" xmlns="http://www.w3.org/2000/svg" xmlns:xlink="http://www.w3.org/1999/xlink" width="45" height="45" viewBox="0 0 45 45">
  <defs>
    <linearGradient id="linear-gradient" x1="0.5" x2="0.156" y2="0.791" gradientUnits="objectBoundingBox">
      <stop offset="0" stop-color="#3e3e3e"/>
      <stop offset="1" stop-color="#1a1a1a"/>
    </linearGradient>
  </defs>
  <circle id="Ellipse_1" data-name="Ellipse 1" cx="22.5" cy="22.5" r="22.5" fill="url(#linear-gradient)"/>
  <g id="noun-management-7004682" transform="translate(-5.128 -2)">
    <path id="Path_9210" data-name="Path 9210" d="M26.674,24.451l2.26-.779.184.213a6.953,6.953,0,0,0,2.862,1.985,3.637,3.637,0,0,1,4.855,0,7,7,0,0,0,2.582-1.676l.184-.188,2.335.808.815-1.413-1.8-1.562.089-.262a7.1,7.1,0,0,0,.386-2.289,6.865,6.865,0,0,0-.262-1.885l-.075-.252,1.871-1.619-.815-1.41-2.26.779-.184-.213a6.973,6.973,0,0,0-3.55-2.2l-.252-.064L35.431,10H33.8l-.453,2.346-.273.057A6.937,6.937,0,0,0,29.4,14.379l-.184.188-2.335-.808-.815,1.413,1.8,1.56-.089.262a7.1,7.1,0,0,0-.386,2.289,6.865,6.865,0,0,0,.262,1.885l.075.252-1.871,1.619Zm7.738-9.707a4.54,4.54,0,1,1-4.542,4.538,4.547,4.547,0,0,1,4.542-4.538Z" transform="translate(-6.283)" fill="#fff"/>
    <path id="Path_9211" data-name="Path 9211" d="M46.263,54.862a2.837,2.837,0,0,0-2.923.025,2.751,2.751,0,0,0-.722.638,2.843,2.843,0,1,0,4.419,0,3.082,3.082,0,0,0-.774-.663Z" transform="translate(-16.693 -28.714)" fill="#fff"/>
    <path id="Path_9212" data-name="Path 9212" d="M65.98,62.249a2.056,2.056,0,1,0,2.055-2.058A2.057,2.057,0,0,0,65.98,62.249Z" transform="translate(-32.19 -32.41)" fill="#fff"/>
    <path id="Path_9213" data-name="Path 9213" d="M69.514,71.82a2.849,2.849,0,0,1-3.972,0c-.116.036-.234.077-.35.12a5.1,5.1,0,0,1,1.219,3.3v1.8h5.4V74.853a3.161,3.161,0,0,0-2.3-3.032Z" transform="translate(-31.681 -39.916)" fill="#fff"/>
    <path id="Path_9214" data-name="Path 9214" d="M42.036,69.781a3.645,3.645,0,0,1-5.159,0,4.347,4.347,0,0,0-1.856,1.02,4.231,4.231,0,0,0-1.349,3.121v3.022H45.247V73.926A4.241,4.241,0,0,0,43.9,70.805a4.347,4.347,0,0,0-1.861-1.024Z" transform="translate(-11.328 -38.602)" fill="#fff"/>
    <path id="Path_9215" data-name="Path 9215" d="M22.4,71.82a2.849,2.849,0,0,1-3.972,0,3.164,3.164,0,0,0-2.3,3.032v2.189h5.4v-1.8a5.1,5.1,0,0,1,1.219-3.3c-.113-.046-.234-.084-.35-.12Z" transform="translate(0 -39.918)" fill="#fff"/>
    <path id="Path_9216" data-name="Path 9216" d="M24.468,64.3a2.057,2.057,0,1,0-2.058-2.055A2.057,2.057,0,0,0,24.468,64.3Z" transform="translate(-4.056 -32.41)" fill="#fff"/>
  </g>
</svg>
