<svg width="80" height="80" viewBox="0 0 80 80" fill="none" xmlns="http://www.w3.org/2000/svg">
<circle cx="40" cy="40" r="40" fill="#FFF2E8"/>
<path d="M50.1248 42.2189L35.1716 50.8521V33.5857L50.1248 42.2189Z" fill="#F48120"/>
<path d="M35.831 51.8086C36.2394 51.8086 36.6422 51.6994 36.9961 51.4943L49.4999 44.2871C49.8538 44.0819 50.1474 43.7883 50.3526 43.4344C50.9963 42.3202 50.6142 40.8953 49.4999 40.2516L37.0055 33.0275C36.6479 32.8185 36.2413 32.7094 35.8272 32.7094C34.5397 32.7112 33.4989 33.7559 33.5007 35.0433V49.4746C33.5045 50.7602 34.5454 51.803 35.831 51.8086ZM35.7651 42.2599L35.8761 34.9831L48.3725 42.2072V42.3296L42.1215 45.9341L35.7651 49.4765V42.2599Z" fill="#111111"/>
<path d="M28.3474 20.1963C34.9485 13.6141 45.6322 13.6141 52.2332 20.1963C52.4441 20.4072 52.7302 20.5257 53.0294 20.5257C53.3325 20.5257 53.6205 20.4053 53.8332 20.1926C54.2717 19.7502 54.2698 19.035 53.8275 18.5945C46.3437 11.1352 34.2389 11.1352 26.755 18.5945C26.3202 19.0331 26.3183 19.739 26.7513 20.1794C27.1861 20.6255 27.9013 20.633 28.3474 20.1963Z" fill="#111111"/>
<path d="M50.413 23.6088C50.8572 23.1702 50.861 22.4549 50.4224 22.0107C50.4017 21.9881 50.3791 21.9674 50.3565 21.9448C44.7606 16.3847 35.7163 16.4129 30.1561 22.0107L30.1486 22.0183C29.7119 22.4644 29.7213 23.1796 30.1674 23.6163C30.6135 24.053 31.3288 24.0436 31.7655 23.5975C31.7768 23.5862 31.7899 23.573 31.8031 23.5598C36.5106 18.873 44.1263 18.8918 48.8131 23.5994C49.0258 23.8139 49.3138 23.9363 49.6168 23.9363C49.9161 23.9363 50.2022 23.8196 50.413 23.6088Z" fill="#111111"/>
<path d="M35.176 27.0101L35.1836 27.0026C38.0088 24.183 42.5846 24.1867 45.4061 27.0101C45.6169 27.2247 45.9068 27.347 46.2079 27.347C46.5053 27.347 46.7914 27.2303 47.0022 27.0195C47.4465 26.581 47.4502 25.8657 47.0117 25.4215C47.0022 25.4121 46.991 25.4008 46.9815 25.3914C43.2697 21.6965 37.2634 21.7097 33.5686 25.4215C33.1357 25.8638 33.1394 26.5734 33.578 27.0101C34.0203 27.4524 34.7356 27.4524 35.176 27.0101Z" fill="#111111"/>
<path d="M61.3097 25.0884H50.4472C49.8241 25.0884 49.3197 25.5947 49.3178 26.2177C49.3178 26.8408 49.8223 27.3471 50.4472 27.3471H61.3097C62.2922 27.349 63.0884 28.1452 63.0903 29.1277V55.5207C63.0884 56.5032 62.2922 57.2994 61.3097 57.3013H19.1019C18.1194 57.2994 17.3232 56.5032 17.3213 55.5207V29.1277C17.3232 28.1452 18.1194 27.349 19.1019 27.3471H30.1357C30.7588 27.3471 31.2651 26.8408 31.2651 26.2177C31.2651 25.5947 30.7588 25.0884 30.1357 25.0884H19.1019C16.8715 25.0903 15.0645 26.8972 15.0626 29.1277V55.5207C15.0645 57.7512 16.8715 59.5581 19.1019 59.56H35.1388L33.6668 65.7414H25.8856C25.2626 65.7414 24.7562 66.2477 24.7562 66.8707C24.7562 67.4937 25.2626 68.0001 25.8856 68.0001H34.559H45.9297H45.9429H54.6107C55.2337 68.0001 55.7401 67.4937 55.7401 66.8707C55.7401 66.2477 55.2337 65.7414 54.6107 65.7414H46.8219L45.3557 59.56H61.3097C63.5401 59.5581 65.3471 57.7512 65.349 55.5207V29.1277C65.3471 26.8972 63.5401 25.0903 61.3097 25.0884ZM35.9839 65.7414L37.3372 60.0626H43.1591L44.5124 65.7414H35.9839Z" fill="#111111"/>
</svg>
