<svg width="64" height="64" viewBox="0 0 64 64" fill="none" xmlns="http://www.w3.org/2000/svg">
<circle cx="32" cy="32" r="32" fill="#F48120"/>
<path d="M19.8566 26.1326C19.8566 24.9023 19.3625 23.7252 18.4825 22.8669L20.3566 21.6228L29.2797 27.5541C29.4529 27.6682 29.6557 27.7273 29.8623 27.7273C30.3269 27.7273 30.7344 27.4241 30.8682 26.9792C31.0001 26.5363 30.8269 26.056 30.4391 25.8021L22.2502 20.3632L30.4452 14.9202C30.6893 14.7706 30.8625 14.5304 30.9255 14.2509C30.9885 13.9714 30.9333 13.6801 30.7759 13.4419C30.6184 13.2036 30.3684 13.0403 30.0889 12.9891C29.8074 12.9379 29.516 13.0029 29.2857 13.1722L20.3626 19.1035L18.4826 17.8436C20.0417 16.3102 20.2996 13.8869 19.0968 12.06C17.8921 10.2332 15.5654 9.51277 13.54 10.3415C11.5164 11.1702 10.3609 13.3158 10.7821 15.4614C11.2053 17.609 13.0872 19.1563 15.2742 19.1563C15.664 19.1602 16.0518 19.1149 16.4297 19.0185L18.4513 20.363L16.4297 21.7075C16.0518 21.6031 15.662 21.55 15.2703 21.55C13.4159 21.55 11.7447 22.6661 11.0361 24.3787C10.3274 26.0913 10.7191 28.0617 12.0302 29.3728C13.3392 30.6838 15.3116 31.0755 17.0243 30.3649C18.7349 29.6563 19.853 27.985 19.853 26.1327L19.8566 26.1326ZM12.7955 14.5835H12.7974C12.7955 13.5776 13.3998 12.6701 14.327 12.2863C15.2561 11.9004 16.325 12.1111 17.0356 12.8217C17.7462 13.5343 17.9588 14.6032 17.573 15.5303C17.1872 16.4595 16.2797 17.0638 15.2738 17.0618C13.9116 17.0579 12.8053 15.9575 12.7974 14.5934L12.7955 14.5835ZM15.2738 28.615C14.2699 28.615 13.3644 28.0107 12.9805 27.0815C12.5967 26.1544 12.8092 25.0875 13.5179 24.3768C14.2285 23.6662 15.2974 23.4536 16.2246 23.8375C17.1517 24.2233 17.758 25.1288 17.758 26.1327C17.758 27.5028 16.6459 28.615 15.2738 28.615ZM53.6573 35.9633C53.6573 42.4081 50.2204 48.3626 44.6395 51.5832C39.0589 54.8056 32.1828 54.8056 26.6022 51.5832C21.0217 48.3628 17.5843 42.4081 17.5843 35.9633C17.5843 35.3846 18.0528 34.9141 18.6335 34.9141C19.2142 34.9141 19.6827 35.3846 19.6827 35.9633C19.6788 40.1916 21.3559 44.247 24.3421 47.2388C27.3283 50.2306 31.3815 51.9139 35.6095 51.9159C39.8378 51.9198 43.8932 50.2427 46.883 47.2545C49.8751 44.2664 51.5562 40.2131 51.5562 35.9851C51.5581 31.7568 49.879 27.7015 46.8909 24.7136C43.9027 21.7235 39.8474 20.0424 35.6194 20.0424C35.0407 20.0424 34.5702 19.5739 34.5702 18.9933C34.5702 18.4126 35.0407 17.9441 35.6194 17.9441C40.4028 17.948 44.9875 19.8515 48.3694 23.2333C51.7513 26.6171 53.6526 31.2015 53.6567 35.9853L53.6573 35.9633ZM46.7222 35.9633C46.7143 33.0244 45.5411 30.2074 43.4604 28.1307C41.3797 26.0539 38.5608 24.8847 35.6197 24.8827C35.041 24.8827 34.5705 24.4122 34.5705 23.8335C34.5705 23.2528 35.041 22.7824 35.6197 22.7824C39.1216 22.7824 42.4798 24.1741 44.9561 26.6505C47.4305 29.1249 48.8222 32.483 48.8222 35.9848C48.8222 39.4866 47.4305 42.8448 44.9561 45.3191C42.4797 47.7955 39.1215 49.1872 35.6197 49.1872C32.1198 49.1872 28.7617 47.7955 26.2854 45.3191C23.809 42.8447 22.4193 39.4866 22.4193 35.9848C22.4193 35.4041 22.8878 34.9356 23.4684 34.9356C24.0491 34.9356 24.5176 35.4041 24.5176 35.9848C24.5176 39.9513 26.6337 43.6168 30.069 45.5988C33.504 47.583 37.7363 47.583 41.1711 45.5988C44.6061 43.6165 46.7224 39.9512 46.7224 35.9848L46.7222 35.9633ZM31.0217 29.8491C30.1319 30.353 29.5827 31.3018 29.5886 32.3255V39.6385C29.5827 40.6621 30.1319 41.611 31.0217 42.1169C31.9055 42.6346 33 42.6346 33.8839 42.1169L40.2203 38.4417H40.2184C41.1042 37.9299 41.6494 36.985 41.6494 35.9614C41.6494 34.9378 41.1042 33.9929 40.2184 33.4811L33.8819 29.8059H33.8839C32.9922 29.3 31.8977 29.3156 31.0217 29.8491ZM39.5256 35.985C39.5295 36.2566 39.3858 36.5086 39.1476 36.6405L32.8112 40.3157H32.8131C32.5789 40.4554 32.2856 40.4554 32.0513 40.3157C31.8131 40.1818 31.6655 39.9279 31.6675 39.6543V32.3256C31.6655 32.052 31.8131 31.798 32.0513 31.6642C32.1694 31.5992 32.3033 31.5618 32.4391 31.5598C32.571 31.5598 32.7009 31.5972 32.8131 31.6642L39.1496 35.3394H39.1476C39.3819 35.4712 39.5256 35.7173 39.5256 35.985Z" fill="white"/>
</svg>
