<svg id="banner-main4" xmlns="http://www.w3.org/2000/svg" width="45" height="45" viewBox="0 0 45 45">
  <circle id="Ellipse_45" data-name="Ellipse 45" cx="22.5" cy="22.5" r="22.5" fill="#2f2f2f"/>
  <g id="online-class-svgrepo-com" transform="translate(9.052 10.567)">
    <g id="Group_8310" data-name="Group 8310" transform="translate(1.398 0.621)">
      <path id="Path_9090" data-name="Path 9090" d="M221.092,68.884h-3.278V65.6a.048.048,0,0,0-.047-.048,3.376,3.376,0,0,0-3.373,3.372,3.283,3.283,0,0,0,.127.861l1.927-1.5a.365.365,0,0,1,.5.061.355.355,0,0,1-.062.5l-2.1,1.633a3.364,3.364,0,0,0,6.352-1.556A.046.046,0,0,0,221.092,68.884Z" transform="translate(-203.636 -62.255)" fill="#fff"/>
      <path id="Path_9091" data-name="Path 9091" d="M307.6,78.451a.156.156,0,0,0-.114-.054.152.152,0,0,0-.117.049l-1.9,2.007a.156.156,0,0,0,.113.263h2.776a.156.156,0,0,0,.156-.156.158.158,0,0,0,0-.035A3.816,3.816,0,0,0,307.6,78.451ZM305.939,80.4l1.532-1.616a3.5,3.5,0,0,1,.7,1.616Z" transform="translate(-290.078 -74.449)" fill="#fff"/>
      <path id="Path_9092" data-name="Path 9092" d="M291.85,57.988a.156.156,0,0,0,.171-.038l1.826-1.927a.156.156,0,0,0-.019-.232,3.839,3.839,0,0,0-1.9-.755.156.156,0,0,0-.172.155v2.652A.156.156,0,0,0,291.85,57.988Zm.214-2.619a3.529,3.529,0,0,1,1.434.569l-1.434,1.513Z" transform="translate(-277.098 -52.263)" fill="#fff"/>
      <path id="Path_9093" data-name="Path 9093" d="M76.731,68.543a1.608,1.608,0,1,0,1.608,1.608A1.608,1.608,0,0,0,76.731,68.543Z" transform="translate(-71.379 -65.091)" fill="#fff"/>
      <path id="Path_9094" data-name="Path 9094" d="M386.869,381.467l-1.131-1.041a6.554,6.554,0,0,1-1.3,2.139,9.121,9.121,0,0,1-2.353,1.854l1.184,1.089a2.653,2.653,0,0,0,3.788-.19A2.763,2.763,0,0,0,386.869,381.467Z" transform="translate(-362.882 -361.267)" fill="#fff"/>
      <path id="Path_9095" data-name="Path 9095" d="M21.86,20.954a5.874,5.874,0,0,0,1.277-2.248l-.977-.9c-.993-.914-2.026-.5-3.046.379,0,0-.02.015-.053.044h0a3.483,3.483,0,0,0-1.438-.579,2.169,2.169,0,0,1-1.35-.587c-.229-.316,0-.756.153-1.053.055-.109.114-.217.172-.324H19.98a1.322,1.322,0,0,0,1.37-1.4V1.4A1.383,1.383,0,0,0,19.982,0H2.152A1.389,1.389,0,0,0,.778,1.4V14.28a1.388,1.388,0,0,0,1.374,1.4H8.993s.3,2.81-2.075,2.81V19.9h8.3V18.493c-2.461,0-2.076-2.81-2.076-2.81h2.936a1.7,1.7,0,0,0-.249,1.508c.2.479.835.692,1.293.809a4.773,4.773,0,0,1,1.638.564c-.09.116-.155.213-.155.213-.717,1.11-1.167,2.027-.2,2.92l1.129,1.041A8.223,8.223,0,0,0,21.86,20.954Zm-17.587-8.6H3.846V8.723h.429Zm6.884,2.462a.847.847,0,1,1,.834-.847A.841.841,0,0,1,11.158,14.813ZM8.071,12.351V8.706h.413V9.853c0,.865.686.74.918.573.195-.14,1.094-.747,1.094-.747l.576-.39L11.487,9a.557.557,0,0,0,.094-.8l2.3-1.79a.119.119,0,0,0-.145-.187L11.429,8.019h0a.46.46,0,0,0-.3-.118.9.9,0,0,0-.548.183l-.086.063-.747.515v-.22C9.717,6.74,7.7,6.793,7.7,6.793H6.877l-.7,1.163-.7-1.162H4.689c-2.013,0-2.028,1.451-2.028,2h0v3.56H2.248V1.5H19.885V12.351H8.071Zm13.3,8.3a.395.395,0,0,1-.558.036L19.169,19.24a.4.4,0,0,1,.524-.594l1.641,1.443A.4.4,0,0,1,21.368,20.648Z" transform="translate(-0.778 0)" fill="#fff"/>
    </g>
  </g>
</svg>
