<svg xmlns="http://www.w3.org/2000/svg" width="32" height="29.46" viewBox="0 0 32 29.46">
  <g id="virtual-training-solutions-1" transform="translate(-8.56 -10.46)">
    <path id="Path_9114" data-name="Path 9114" d="M36.779,20.909v13.8a1.163,1.163,0,0,1-1.163,1.163H10.723A1.163,1.163,0,0,1,9.56,34.713V17.273a1.163,1.163,0,0,1,1.163-1.163H27.949" transform="translate(0 -1.542)" fill="none" stroke="#fff" stroke-width="2"/>
    <line id="Line_49" data-name="Line 49" x2="27.219" transform="translate(9.56 29.996)" fill="none" stroke="#fff" stroke-width="2"/>
    <path id="Path_9115" data-name="Path 9115" d="M22.23,50.266a3.824,3.824,0,0,0,2.005-4.586" transform="translate(-4.201 -11.346)" fill="none" stroke="#fff" stroke-width="2"/>
    <path id="Path_9116" data-name="Path 9116" d="M37.286,50.266a3.83,3.83,0,0,1-2.039-4.586" transform="translate(-8.461 -11.346)" fill="none" stroke="#fff" stroke-width="2"/>
    <line id="Line_50" data-name="Line 50" x2="16.671" transform="translate(14.834 38.92)" fill="none" stroke="#fff" stroke-linecap="round" stroke-width="2"/>
    <circle id="Ellipse_111" data-name="Ellipse 111" cx="2.36" cy="2.36" r="2.36" transform="translate(15.603 18.292)" fill="none" stroke="#fff" stroke-width="2"/>
    <path id="Path_9117" data-name="Path 9117" d="M24.545,36.823a4.779,4.779,0,0,0-4.779-4.773h0A4.773,4.773,0,0,0,15,36.823Z" transform="translate(-1.804 -6.827)" fill="none" stroke="#fff" stroke-width="2"/>
    <path id="Path_9118" data-name="Path 9118" d="M48.106,19.368H42.491l-3.4,2.4A.06.06,0,0,1,39,21.721V19.368H37.645a.582.582,0,0,1-.575-.575V12.035a.575.575,0,0,1,.575-.575H48.106a.575.575,0,0,1,.575.575v6.758A.582.582,0,0,1,48.106,19.368Z" transform="translate(-9.121)" fill="none" stroke="#fff" stroke-width="2"/>
  </g>
</svg>
