<svg width="64" height="64" viewBox="0 0 64 64" fill="none" xmlns="http://www.w3.org/2000/svg">
<circle cx="32" cy="32" r="32" fill="#F48120"/>
<path d="M31.3268 31.9005C31.3268 31.1779 30.7412 30.5923 30.0185 30.5923C29.2959 30.5923 28.7103 31.1779 28.7103 31.9005C28.7103 36.8892 24.6521 40.9474 19.6634 40.9474C14.6747 40.9474 10.6165 36.8892 10.6165 31.9005C10.6165 31.1779 10.0309 30.5923 9.30826 30.5923C8.58558 30.5923 8 31.1779 8 31.9005C8 37.8892 12.5381 42.836 18.3551 43.4886V48.1455H15.5204C14.7977 48.1455 14.2121 48.731 14.2121 49.4537C14.2121 50.1764 14.7977 50.762 15.5204 50.762H23.8064C24.5291 50.762 25.1147 50.1764 25.1147 49.4537C25.1147 48.731 24.5291 48.1455 23.8064 48.1455H20.9717V43.4886C26.7892 42.836 31.3268 37.8892 31.3268 31.9005Z" fill="white"/>
<path d="M19.6634 38.3309C23.2093 38.3309 26.0938 35.4464 26.0938 31.9005V20.571C26.0938 17.0251 23.2093 14.1406 19.6634 14.1406C16.1175 14.1406 13.2325 17.0251 13.2325 20.571V31.9005C13.2325 35.4464 16.1175 38.3309 19.6634 38.3309ZM15.8491 20.571C15.8491 18.4678 17.5603 16.7571 19.6634 16.7571C21.7666 16.7571 23.4773 18.4683 23.4773 20.571V31.9005C23.4773 34.0037 21.7661 35.7143 19.6634 35.7143C17.5608 35.7143 15.8491 34.0031 15.8491 31.9005V20.571Z" fill="white"/>
<path d="M36.6427 32.1345C37.3654 32.1345 37.951 31.5489 37.951 30.8263V21.0708C37.951 20.3482 37.3654 19.7626 36.6427 19.7626C35.92 19.7626 35.3345 20.3482 35.3345 21.0708V30.8263C35.3345 31.5489 35.92 32.1345 36.6427 32.1345Z" fill="white"/>
<path d="M42.3214 29.345C43.0441 29.345 43.6297 28.7594 43.6297 28.0367V23.7619C43.6297 23.0392 43.0441 22.4536 42.3214 22.4536C41.5988 22.4536 41.0132 23.0392 41.0132 23.7619V28.0367C41.0132 28.7594 41.5988 29.345 42.3214 29.345Z" fill="white"/>
<path d="M31.0652 27.8561C31.7879 27.8561 32.3735 27.2706 32.3735 26.5479V25.2511C32.3735 24.5284 31.7879 23.9429 31.0652 23.9429C30.3425 23.9429 29.757 24.5284 29.757 25.2511V26.5479C29.757 27.2706 30.3425 27.8561 31.0652 27.8561Z" fill="white"/>
<path d="M48.0284 33.7497C48.751 33.7497 49.3366 33.1641 49.3366 32.4414V19.3588C49.3366 18.6361 48.751 18.0505 48.0284 18.0505C47.3057 18.0505 46.7201 18.6361 46.7201 19.3588V32.4414C46.7201 33.1641 47.3057 33.7497 48.0284 33.7497Z" fill="white"/>
<path d="M53.6917 23.6936C52.969 23.6936 52.3834 24.2792 52.3834 25.0019V26.7978C52.3834 27.5205 52.969 28.1061 53.6917 28.1061C54.4144 28.1061 54.9999 27.5205 54.9999 26.7978V25.0019C54.9999 24.2792 54.4144 23.6936 53.6917 23.6936Z" fill="white"/>
</svg>
