<svg id="vr-and-ar-applications" xmlns="http://www.w3.org/2000/svg" width="45" height="45" viewBox="0 0 45 45">
  <circle id="Ellipse_45" data-name="Ellipse 45" cx="22.5" cy="22.5" r="22.5" fill="#2f2f2f"/>
  <path id="virtual-reality-svgrepo-com" d="M7,11.68v.034a4.708,4.708,0,0,1,.667-.047H22.333a4.7,4.7,0,0,1,.694.051V11.69l-.413-.553a2,2,0,0,0-1.6-.8H9.007a2,2,0,0,0-1.6.806ZM7,9.672A3.333,3.333,0,0,1,9.007,9h3.327V3.686A6,6,0,0,0,7,9.649v.022ZM13.667,9h2.667V2.333H13.667Zm4,0h3.345a3.333,3.333,0,0,1,2.016.678A6.029,6.029,0,0,0,17.667,3.7V9Zm8.414,4.551A4.646,4.646,0,0,1,27,16.333V19a4.668,4.668,0,0,1-4.026,4.623,7.334,7.334,0,0,1-7.307,6.71H14.333a7.334,7.334,0,0,1-7.307-6.71A4.668,4.668,0,0,1,3,19V16.333a4.649,4.649,0,0,1,1.2-3.127l1.464-1.968V9.649a7.334,7.334,0,0,1,6.667-7.3V1.667A.667.667,0,0,1,13,1h4a.667.667,0,0,1,.667.667v.7a7.362,7.362,0,0,1,6.694,7.331v1.552l1.689,2.261q.016.021.03.044ZM4.8,14.631a3.318,3.318,0,0,0-.467,1.7V19a3.333,3.333,0,0,0,3.333,3.333H8.819A3.443,3.443,0,0,0,12.042,20.1l.532-1.418a2.591,2.591,0,0,1,4.851,0l.532,1.418a3.443,3.443,0,0,0,3.224,2.234h1.152A3.333,3.333,0,0,0,25.667,19V16.333A3.333,3.333,0,0,0,22.333,13H7.667a3.324,3.324,0,0,0-2.436,1.058l-.387.521a.67.67,0,0,1-.043.053Zm16.83,9.036h-.449a4.775,4.775,0,0,1-3.336-1.358.666.666,0,0,1-.179.024H12.333a.666.666,0,0,1-.179-.024,4.775,4.775,0,0,1-3.336,1.358H8.37A6,6,0,0,0,14.333,29h1.333a6,6,0,0,0,5.963-5.333ZM16.9,21q-.1-.21-.187-.433l-.532-1.418a1.257,1.257,0,0,0-2.355,0l-.532,1.418q-.083.222-.187.433Z" transform="translate(8 7)" fill="#fff"/>
</svg>
