<svg xmlns="http://www.w3.org/2000/svg" width="40" height="30.007" viewBox="0 0 40 30.007">
  <path id="wearable-technology-integration" d="M43.5,28.211c0-3.071-3.631-5.78-9.728-7.29V18.193a3.084,3.084,0,0,0-3.08-3.08H16.452a3.084,3.084,0,0,0-3.08,3.08v2.692a27.559,27.559,0,0,0-3.908,1.24.645.645,0,0,0,.245,1.242.624.624,0,0,0,.244-.049,25.735,25.735,0,0,1,3.421-1.1v7.105C9.341,30.3,6.365,31.8,4.791,33.588V28.21A3.667,3.667,0,0,1,6.143,25.6a.645.645,0,0,0-.885-.939A4.883,4.883,0,0,0,3.5,28.208v7.945a5.091,5.091,0,0,0,1.03,3.219C7.15,42.748,14.551,45.12,23.5,45.12c9.4,0,17.082-2.614,19.325-6.257a4.361,4.361,0,0,0,.675-2.216V28.208Zm-1.29,0v5.382c-1.556-1.767-4.481-3.253-8.437-4.237V22.25c5.148,1.336,8.437,3.639,8.437,5.959ZM23.5,36.692c-6.409,0-12.327-1.673-15.076-4.21a22.477,22.477,0,0,1,5-1.846,3.511,3.511,0,0,0,3.469,3.046H30.256a3.512,3.512,0,0,0,3.466-3.011,22.571,22.571,0,0,1,4.869,1.8c-2.744,2.545-8.668,4.224-15.089,4.224Zm-8.836-7.034a3.058,3.058,0,0,0,1.789.583h14.24a3.058,3.058,0,0,0,1.789-.583v.506a2.23,2.23,0,0,1-2.228,2.228H16.892a2.23,2.23,0,0,1-2.228-2.228Zm0-11.465A1.792,1.792,0,0,1,16.454,16.4h14.24a1.792,1.792,0,0,1,1.789,1.789v8.969a1.792,1.792,0,0,1-1.789,1.789H16.454a1.792,1.792,0,0,1-1.789-1.789ZM4.8,36.651c0-1.215.9-2.421,2.48-3.49,2.819,2.848,8.814,4.7,15.576,4.812v5.853C13,43.69,4.8,40.461,4.8,36.651Zm19.346,7.176V37.973c6.776-.113,12.779-1.969,15.591-4.827,1.586,1.064,2.465,2.271,2.465,3.5,0,3.811-8.2,7.04-18.056,7.176ZM17.258,22.605c1.03-.155,2.062-.252,3.091-.336.249-.464.494-.927.756-1.383a.467.467,0,0,1,.845.1c.366.877.709,1.778,1.048,2.67.528-1.591,1.082-3.175,1.683-4.738a.562.562,0,0,1,1.08.015q.449,1.638.828,3.3c1.05.084,2.1.185,3.149.341-1.148.17-2.293.279-3.441.366a.328.328,0,0,1-.329-.2c-.25-.625-.472-1.258-.706-1.888-.418,1.319-.855,2.633-1.322,3.933a.98.98,0,0,1-.618.586.99.99,0,0,1-1.25-.692l-.094-.306c-.225-.719-.447-1.448-.662-2.176-.161.217-.319.433-.479.65a.3.3,0,0,1-.267.121c-1.1-.087-2.208-.19-3.313-.355ZM7.026,23.89a.645.645,0,1,1,.645.645A.644.644,0,0,1,7.026,23.89Z" transform="translate(-3.5 -15.113)" fill="#fff"/>
</svg>
