<svg width="149" height="149" viewBox="0 0 149 149" fill="none" xmlns="http://www.w3.org/2000/svg">
<path d="M74.39 148.78C115.474 148.78 148.78 115.474 148.78 74.39C148.78 33.3055 115.474 0 74.39 0C33.3055 0 0 33.3055 0 74.39C0 115.474 33.3055 148.78 74.39 148.78Z" fill="url(#paint0_linear_9_82)"/>
<path d="M29 37.4375H119V119H29V37.4375ZM31.8125 40.5745V115.863H116.188V40.5745H31.8125ZM119 29V34.625H29V29H119ZM36.0312 30.4062C35.2546 30.4062 34.625 31.0358 34.625 31.8125C34.625 32.5892 35.2546 33.2188 36.0312 33.2188C36.8079 33.2188 37.4375 32.5892 37.4375 31.8125C37.4375 31.0358 36.8079 30.4062 36.0312 30.4062ZM44.4688 30.4062C43.6921 30.4062 43.0625 31.0358 43.0625 31.8125C43.0625 32.5892 43.6921 33.2188 44.4688 33.2188C45.2454 33.2188 45.875 32.5892 45.875 31.8125C45.875 31.0358 45.2454 30.4062 44.4688 30.4062ZM52.9062 30.4062C52.1296 30.4062 51.5 31.0358 51.5 31.8125C51.5 32.5892 52.1296 33.2188 52.9062 33.2188C53.6829 33.2188 54.3125 32.5892 54.3125 31.8125C54.3125 31.0358 53.6829 30.4062 52.9062 30.4062Z" fill="#E6E6E6"/>
<path d="M68.2579 64.1562L68.2569 69.1723L68.446 69.2364C68.8489 69.3797 69.2458 69.5382 69.636 69.7114L70.2163 69.9821L70.3775 70.0639L73.8867 66.5556L81.4444 74.1133L77.9347 77.6211L78.0179 77.7837C78.2057 78.1671 78.379 78.5575 78.5373 78.9542L78.7636 79.554L78.8262 79.7417L83.8438 79.7421V90.7579L78.8262 90.7569L78.7636 90.946C78.6203 91.3489 78.4618 91.7458 78.2886 92.136L78.0179 92.7163L77.9347 92.8775L81.4444 96.3867L73.8867 103.944L70.3775 100.435L70.2163 100.518C69.8329 100.706 69.4425 100.879 69.0458 101.037L68.446 101.264L68.2569 101.326L68.2579 106.344H57.2421L57.2417 101.326L57.054 101.264C56.6511 101.12 56.2542 100.962 55.864 100.789L55.2837 100.518L55.1211 100.435L51.6133 103.944L44.0556 96.3867L47.5639 92.8775L47.4821 92.7163C47.2943 92.3329 47.121 91.9425 46.9627 91.5458L46.7364 90.946L46.6723 90.7569L41.6562 90.7579V79.7421L46.6723 79.7417L46.7364 79.554C46.8797 79.1511 47.0382 78.7542 47.2113 78.364L47.4821 77.7837L47.5639 77.6211L44.0556 74.1133L51.6133 66.5556L55.1211 70.0639L55.2837 69.9821C55.6671 69.7943 56.0575 69.621 56.4542 69.4627L57.054 69.2364L57.2417 69.1723L57.2421 64.1562H68.2579ZM65.4444 66.9688H60.0542L60.0552 71.284L59.018 71.5662C57.9828 71.8478 56.9865 72.2461 56.0458 72.7519L55.5801 73.0137L54.6422 73.5646L51.6125 70.5322L48.0322 74.1125L51.0646 77.1422L50.5137 78.0801C49.9723 79.0019 49.5369 79.982 49.2167 81.0037L49.0662 81.518L48.784 82.5552L44.4688 82.5542V87.9444L48.784 87.9448L49.0662 88.982C49.3478 90.0172 49.7461 91.0135 50.2519 91.9542L50.5137 92.4199L51.0646 93.3578L48.0322 96.3861L51.6125 99.9664L54.6422 96.9354L55.5801 97.4863C56.5019 98.0277 57.482 98.4631 58.5037 98.7833L59.018 98.9338L60.0552 99.216L60.0542 103.531H65.4444L65.4448 99.216L66.482 98.9338C67.5172 98.6522 68.5135 98.2539 69.4542 97.7481L69.9199 97.4863L70.8578 96.9354L73.8861 99.9664L77.4664 96.3861L74.4354 93.3578L74.9863 92.4199C75.5277 91.4981 75.9631 90.518 76.2833 89.4963L76.4338 88.982L76.716 87.9448L81.0312 87.9444V82.5542L76.716 82.5552L76.4338 81.518C76.1522 80.4828 75.7539 79.4865 75.2481 78.5458L74.9863 78.0801L74.4354 77.1422L77.4664 74.1125L73.8861 70.5322L70.8578 73.5646L69.9199 73.0137C68.9981 72.4723 68.018 72.0369 66.9963 71.7167L66.482 71.5662L65.4448 71.284L65.4444 66.9688ZM62.75 75.4062C68.1866 75.4062 72.5938 79.8134 72.5938 85.25C72.5938 90.6866 68.1866 95.0938 62.75 95.0938C57.3134 95.0938 52.9062 90.6866 52.9062 85.25C52.9062 79.8134 57.3134 75.4062 62.75 75.4062ZM62.75 78.2188C58.8667 78.2188 55.7188 81.3667 55.7188 85.25C55.7188 89.1333 58.8667 92.2812 62.75 92.2812C66.6333 92.2812 69.7812 89.1333 69.7812 85.25C69.7812 81.3667 66.6333 78.2188 62.75 78.2188ZM95.9375 51.5L95.9371 54.0334C96.763 54.246 97.543 54.5728 98.2592 54.996L100.051 53.2041L103.233 56.386L101.442 58.1783C101.865 58.8945 102.192 59.6745 102.404 60.5004L104.938 60.5V65L102.404 64.9996C102.192 65.8255 101.865 66.6055 101.442 67.3217L103.233 69.114L100.051 72.2959L98.2592 70.504C97.543 70.9272 96.763 71.254 95.9371 71.4666L95.9375 74H91.4375L91.4365 71.4662C90.6111 71.2537 89.8316 70.927 89.1158 70.504L87.3235 72.2959L84.1416 69.114L85.9335 67.3217C85.5103 66.6055 85.1835 65.8255 84.9709 64.9996L82.4375 65V60.5L84.9709 60.5004C85.1835 59.6745 85.5103 58.8945 85.9335 58.1783L84.1416 56.386L87.3235 53.2041L89.1158 54.996C89.8316 54.573 90.6111 54.2463 91.4365 54.0338L91.4375 51.5H95.9375ZM93.6875 67.25C96.1728 67.25 98.1875 65.2353 98.1875 62.75C98.1875 60.2647 96.1728 58.25 93.6875 58.25C91.2022 58.25 89.1875 60.2647 89.1875 62.75C89.1875 65.2353 91.2022 67.25 93.6875 67.25Z" fill="#E6E6E6"/>
<defs>
<linearGradient id="paint0_linear_9_82" x1="148.78" y1="74.39" x2="0" y2="74.39" gradientUnits="userSpaceOnUse">
<stop stop-color="#3B3B3B"/>
<stop offset="1" stop-color="#191919"/>
</linearGradient>
</defs>
</svg>
