<svg id="web-application-development" xmlns="http://www.w3.org/2000/svg" xmlns:xlink="http://www.w3.org/1999/xlink" width="45" height="45" viewBox="0 0 45 45">
  <defs>
    <linearGradient id="linear-gradient" x1="0.5" x2="0.156" y2="0.791" gradientUnits="objectBoundingBox">
      <stop offset="0" stop-color="#3e3e3e"/>
      <stop offset="1" stop-color="#1a1a1a"/>
    </linearGradient>
  </defs>
  <circle id="Ellipse_1" data-name="Ellipse 1" cx="22.5" cy="22.5" r="22.5" fill="url(#linear-gradient)"/>
  <g id="web-development-svgrepo-com" transform="translate(11 -4.992)">
    <g id="Group_8312" data-name="Group 8312" transform="translate(0 15.992)">
      <g id="Group_8311" data-name="Group 8311" transform="translate(0 0)">
        <path id="Path_9083" data-name="Path 9083" d="M16.168,35.217a1.065,1.065,0,0,1-.319-.3,1.084,1.084,0,0,1-.1-.179H1.616V20.809H20.8v9.1a1.069,1.069,0,0,1,.9.674,1.065,1.065,0,0,1,.719-.11V17.339a1.348,1.348,0,0,0-1.347-1.347H1.347A1.349,1.349,0,0,0,0,17.339V35.007a1.348,1.348,0,0,0,1.347,1.347h14.7a1.066,1.066,0,0,1,.123-1.138Zm3.151-16.963a.5.5,0,0,1,.5-.5h.5a.5.5,0,0,1,.5.5v.564a.5.5,0,0,1-.5.5h-.5a.5.5,0,0,1-.5-.5Zm-2.313,0a.5.5,0,0,1,.5-.5H18a.5.5,0,0,1,.5.5v.564a.5.5,0,0,1-.5.5h-.5a.5.5,0,0,1-.5-.5Zm-2.313,0a.5.5,0,0,1,.5-.5h.5a.5.5,0,0,1,.5.5v.564a.5.5,0,0,1-.5.5h-.5a.5.5,0,0,1-.5-.5Z" transform="translate(0 -15.992)" fill="#fff"/>
        <path id="Path_9084" data-name="Path 9084" d="M295.947,277.838l-.149-.848a.21.21,0,0,0-.243-.17l-.754.133a2.826,2.826,0,0,0-.343-.593l.492-.587a.21.21,0,0,0-.026-.3l-.659-.553a.21.21,0,0,0-.3.026l-.492.586a2.818,2.818,0,0,0-.644-.235v-.765a.21.21,0,0,0-.21-.21h-.861a.21.21,0,0,0-.21.21v.765a2.815,2.815,0,0,0-.644.235l-.492-.586a.21.21,0,0,0-.3-.026l-.659.553a.21.21,0,0,0-.026.3l.492.587a2.838,2.838,0,0,0-.343.593l-.754-.133a.21.21,0,0,0-.243.17l-.149.848a.21.21,0,0,0,.17.243l.754.133a2.826,2.826,0,0,0,.118.675l-.663.383a.21.21,0,0,0-.077.287l.43.745a.21.21,0,0,0,.287.077l.663-.383a2.829,2.829,0,0,0,.525.441l-.262.72a.21.21,0,0,0,.125.269l.809.294a.21.21,0,0,0,.269-.125l.262-.72a2.839,2.839,0,0,0,.343.021,2.871,2.871,0,0,0,.343-.021l.262.72a.21.21,0,0,0,.2.138.206.206,0,0,0,.072-.013l.809-.294a.21.21,0,0,0,.125-.269l-.262-.72a2.844,2.844,0,0,0,.525-.441l.663.383a.21.21,0,0,0,.1.028.213.213,0,0,0,.054-.007.21.21,0,0,0,.127-.1l.43-.745a.21.21,0,0,0-.077-.287l-.663-.383a2.829,2.829,0,0,0,.118-.675l.754-.133a.21.21,0,0,0,.135-.086A.206.206,0,0,0,295.947,277.838Zm-3.754,1.347a1.154,1.154,0,1,1,1.155-1.155A1.155,1.155,0,0,1,292.193,279.185Z" transform="translate(-271.951 -259.562)" fill="#fff"/>
        <g id="Group_8310" data-name="Group 8310" transform="translate(4.406 6.458)">
          <path id="Path_9085" data-name="Path 9085" d="M82.1,167.986a.7.7,0,0,0-.406-.635L79.44,166.3l2.255-1.048a.7.7,0,0,0,.405-.635V164.6a.7.7,0,0,0-.7-.7.7.7,0,0,0-.295.065L77.5,165.642a.7.7,0,0,0-.405.635v.05a.7.7,0,0,0,.405.635L81.1,168.64a.7.7,0,0,0,1-.636v-.018Z" transform="translate(-77.094 -161.905)" fill="#fff"/>
          <path id="Path_9086" data-name="Path 9086" d="M166.562,129.269a.7.7,0,0,0-.566-.287h-.018a.7.7,0,0,0-.667.487l-2.375,7.36a.7.7,0,0,0,.668.914h.018a.7.7,0,0,0,.667-.487l2.375-7.359A.7.7,0,0,0,166.562,129.269Z" transform="translate(-157.999 -128.982)" fill="#fff"/>
          <path id="Path_9087" data-name="Path 9087" d="M232.1,165.643l-3.605-1.676a.7.7,0,0,0-1,.635v.018a.7.7,0,0,0,.406.636l2.255,1.048-2.255,1.048a.7.7,0,0,0-.406.635v.018a.7.7,0,0,0,1,.635l3.605-1.677a.7.7,0,0,0,.405-.635v-.05A.7.7,0,0,0,232.1,165.643Z" transform="translate(-218.898 -161.906)" fill="#fff"/>
        </g>
      </g>
    </g>
  </g>
</svg>
