<svg width="55" height="55" viewBox="0 0 55 55" fill="none" xmlns="http://www.w3.org/2000/svg">
<circle cx="27.5" cy="27.5" r="27.5" fill="#F4F4F4"/>
<path d="M15.4845 13.9743H13.3669C13.0464 13.9743 12.7862 13.7141 12.7862 13.3936C12.7862 13.0731 13.0464 12.813 13.3669 12.813H15.4845C15.805 12.813 16.0651 13.0731 16.0651 13.3936C16.0651 13.7141 15.8053 13.9743 15.4845 13.9743Z" fill="#F48102"/>
<path d="M19.7061 13.9743H17.5885C17.2679 13.9743 17.0078 13.7141 17.0078 13.3936C17.0078 13.0731 17.2679 12.813 17.5885 12.813H19.7061C20.0266 12.813 20.2867 13.0731 20.2867 13.3936C20.2867 13.7141 20.0266 13.9743 19.7061 13.9743Z" fill="#F48102"/>
<path d="M32.8708 13.9743H23.3418C23.0213 13.9743 22.7611 13.7141 22.7611 13.3936C22.7611 13.0731 23.0213 12.813 23.3418 12.813H32.871C33.1916 12.813 33.4517 13.0731 33.4517 13.3936C33.4517 13.7141 33.1916 13.9743 32.8708 13.9743Z" fill="#F48102"/>
<path d="M36.2144 15.6138H10.5806V16.7751H36.2144V15.6138Z" fill="#F48102"/>
<path d="M18.6243 36.8487H10.5806C10.2601 36.8487 10 36.5886 10 36.2681V10.5806C10 10.2601 10.2601 10 10.5806 10H36.2144C36.3683 10 36.516 10.0613 36.6249 10.1701C36.7338 10.279 36.795 10.4268 36.795 10.5806V19.7319H35.6337V11.1613H11.1613V35.6875H18.6243V36.8487Z" fill="#F48102"/>
<path d="M44.2581 46.0001H18.6246C18.3041 46.0001 18.044 45.74 18.044 45.4195V19.732C18.044 19.4115 18.3041 19.1514 18.6246 19.1514H44.2581C44.5786 19.1514 44.8387 19.4115 44.8387 19.732V45.4195C44.8387 45.74 44.5786 46.0001 44.2581 46.0001ZM19.2053 44.8388H43.6774V20.3127H19.2053V44.8388Z" fill="#F48102"/>
<path d="M23.5282 23.1256H21.4108C21.0903 23.1256 20.8302 22.8655 20.8302 22.545C20.8302 22.2245 21.0903 21.9644 21.4108 21.9644H23.5282C23.8487 21.9644 24.1088 22.2245 24.1088 22.545C24.1088 22.8655 23.849 23.1256 23.5282 23.1256Z" fill="#F48102"/>
<path d="M27.7497 23.1256H25.6321C25.3116 23.1256 25.0515 22.8655 25.0515 22.545C25.0515 22.2245 25.3116 21.9644 25.6321 21.9644H27.7497C28.0702 21.9644 28.3304 22.2245 28.3304 22.545C28.3304 22.8655 28.0702 23.1256 27.7497 23.1256Z" fill="#F48102"/>
<path d="M40.9144 23.1256H31.3854C31.0649 23.1256 30.8048 22.8655 30.8048 22.545C30.8048 22.2245 31.0649 21.9644 31.3854 21.9644H40.9144C41.2349 21.9644 41.4951 22.2245 41.4951 22.545C41.4951 22.8655 41.2352 23.1256 40.9144 23.1256Z" fill="#F48102"/>
<path d="M44.2581 24.7651H18.6243V25.9264H44.2581V24.7651Z" fill="#F48102"/>
<path d="M41.111 33.0021H30.8742C30.5537 33.0021 30.2935 32.742 30.2935 32.4215C30.2935 32.1009 30.5537 31.8408 30.8742 31.8408H41.111C41.4315 31.8408 41.6916 32.1009 41.6916 32.4215C41.6916 32.742 41.4318 33.0021 41.111 33.0021Z" fill="#F48102"/>
<path d="M27.5384 39.1378H21.7714C21.4509 39.1378 21.1908 38.8777 21.1908 38.5571V32.4215C21.1908 32.1009 21.4509 31.8408 21.7714 31.8408H27.5384C27.8589 31.8408 28.119 32.1009 28.119 32.4215V38.5574C28.119 38.8779 27.8589 39.1378 27.5384 39.1378ZM22.3521 37.9765H26.9577V33.0021H22.3521V37.9765Z" fill="#F48102"/>
<path d="M41.111 36.0788H30.8742C30.5537 36.0788 30.2935 35.8186 30.2935 35.4981C30.2935 35.1776 30.5537 34.9175 30.8742 34.9175H41.111C41.4315 34.9175 41.6916 35.1776 41.6916 35.4981C41.6916 35.8186 41.4318 36.0788 41.111 36.0788Z" fill="#F48102"/>
<path d="M41.111 39.1559H30.8742C30.5537 39.1559 30.2935 38.8958 30.2935 38.5753C30.2935 38.2548 30.5537 37.9946 30.8742 37.9946H41.111C41.4315 37.9946 41.6916 38.2548 41.6916 38.5753C41.6916 38.8958 41.4318 39.1559 41.111 39.1559Z" fill="#F48102"/>
</svg>
