<svg xmlns="http://www.w3.org/2000/svg" width="60" height="60" viewBox="0 0 60 60">
  <g id="website_deve" transform="translate(-964 -2169)">
    <circle id="Ellipse_14" data-name="Ellipse 14" cx="30" cy="30" r="30" transform="translate(964 2169)" fill="#fff2e8"/>
    <g id="ICON" transform="translate(973.955 2179.945)">
      <path id="Path_9141" data-name="Path 9141" d="M26.322,32.09l3.986,3.457a.564.564,0,0,0,.8-.057l2.041-2.353a.564.564,0,0,0-.056-.8L29.1,28.886l1.926-2.222a.563.563,0,0,0-.425-.933l-7.728,0a.563.563,0,0,0-.558.644l1.1,7.651a.564.564,0,0,0,.983.289l1.927-2.222Zm.312-1.221a.563.563,0,0,0-.795.057l-1.487,1.715-.83-5.785,5.844,0L27.88,28.573a.564.564,0,0,0,.056.8l3.987,3.457-1.3,1.5ZM3,20.47v8.453a1.691,1.691,0,0,0,1.691,1.691H21.033a.564.564,0,0,0,0-1.127H4.691a.564.564,0,0,1-.564-.564V20.47A.564.564,0,1,0,3,20.47ZM3,4.691V18.216a.564.564,0,0,0,1.127,0V8.072H18.216a.564.564,0,0,0,0-1.127H4.127V4.691a.564.564,0,0,1,.564-.564H33.713a.564.564,0,0,1,.564.564V6.945H20.47a.564.564,0,1,0,0,1.127H34.276V28.923a.564.564,0,0,1-.564.564H32.3a.564.564,0,1,0,0,1.127h1.409A1.691,1.691,0,0,0,35.4,28.923V4.691A1.691,1.691,0,0,0,33.713,3H4.691A1.691,1.691,0,0,0,3,4.691ZM13.144,17.934a.564.564,0,0,0-.564-.564h-6.2a.564.564,0,0,0-.564.564v6.2a.564.564,0,0,0,.564.564h6.2a.564.564,0,0,0,.564-.564Zm1.691,5.917H31.177a.564.564,0,1,0,0-1.127H14.834a.564.564,0,1,0,0,1.127ZM12.017,18.5v5.072H6.945V18.5Zm2.818,3.1H31.177a.564.564,0,1,0,0-1.127H14.834a.564.564,0,1,0,0,1.127Zm0-2.254H31.177a.564.564,0,1,0,0-1.127H14.834a.564.564,0,1,0,0,1.127ZM13.144,9.2a.564.564,0,0,0-.564-.564h-6.2a.564.564,0,0,0-.564.564v6.2a.564.564,0,0,0,.564.564h6.2a.564.564,0,0,0,.564-.564Zm1.691,6.2H31.177a.564.564,0,1,0,0-1.127H14.834a.564.564,0,1,0,0,1.127ZM12.017,9.762v5.072H6.945V9.762Zm-4.36,2.8,1.409,1.529a.563.563,0,0,0,.9-.092l1.691-2.818a.563.563,0,0,0-.966-.579l-1.3,2.171-.9-.975a.564.564,0,0,0-.83.764Zm7.177.584H31.177a.564.564,0,1,0,0-1.127H14.834a.564.564,0,1,0,0,1.127Zm0-2.254H31.177a.564.564,0,1,0,0-1.127H14.834a.564.564,0,1,0,0,1.127ZM5.818,4.972a.564.564,0,1,1-.564.564A.564.564,0,0,1,5.818,4.972Zm2.254,0a.564.564,0,1,1-.564.564A.564.564,0,0,1,8.072,4.972Zm2.254,0a.564.564,0,1,1-.564.564A.564.564,0,0,1,10.326,4.972Z" transform="translate(1.045 0.055)" fill="#f48120" fill-rule="evenodd"/>
    </g>
  </g>
</svg>
