<svg xmlns="http://www.w3.org/2000/svg" xmlns:xlink="http://www.w3.org/1999/xlink" width="103" height="103" viewBox="0 0 103 103">
  <defs>
    <filter id="Ellipse_109" x="0" y="0" width="103" height="103" filterUnits="userSpaceOnUse">
      <feOffset dy="3" input="SourceAlpha"/>
      <feGaussianBlur stdDeviation="3" result="blur"/>
      <feFlood flood-opacity="0.161"/>
      <feComposite operator="in" in2="blur"/>
      <feComposite in="SourceGraphic"/>
    </filter>
    <linearGradient id="linear-gradient" x1="0.848" y1="1.114" x2="0.583" y2="0.646" gradientUnits="objectBoundingBox">
      <stop offset="0" stop-color="#fb7655"/>
      <stop offset="0.41" stop-color="#e42b1e"/>
      <stop offset="0.99" stop-color="#900"/>
      <stop offset="1" stop-color="#900"/>
    </linearGradient>
    <linearGradient id="linear-gradient-2" x1="1.167" y1="0.609" x2="0.017" y2="0.193" gradientUnits="objectBoundingBox">
      <stop offset="0" stop-color="#871101"/>
      <stop offset="0.99" stop-color="#911209"/>
      <stop offset="1" stop-color="#911209"/>
    </linearGradient>
    <linearGradient id="linear-gradient-3" x1="0.758" y1="2.193" x2="0.39" y2="0.078" xlink:href="#linear-gradient-2"/>
    <linearGradient id="linear-gradient-4" x1="0.5" y1="0.072" x2="0.665" y2="0.791" gradientUnits="objectBoundingBox">
      <stop offset="0" stop-color="#fff"/>
      <stop offset="0.23" stop-color="#e57252"/>
      <stop offset="0.46" stop-color="#de3b20"/>
      <stop offset="0.99" stop-color="#a60003"/>
      <stop offset="1" stop-color="#a60003"/>
    </linearGradient>
    <linearGradient id="linear-gradient-5" x1="0.462" y1="0.163" x2="0.499" y2="0.83" gradientUnits="objectBoundingBox">
      <stop offset="0" stop-color="#fff"/>
      <stop offset="0.23" stop-color="#e4714e"/>
      <stop offset="0.56" stop-color="#be1a0d"/>
      <stop offset="0.99" stop-color="#a80d00"/>
      <stop offset="1" stop-color="#a80d00"/>
    </linearGradient>
    <linearGradient id="linear-gradient-6" x1="0.37" y1="0.156" x2="0.495" y2="0.925" gradientUnits="objectBoundingBox">
      <stop offset="0" stop-color="#fff"/>
      <stop offset="0.18" stop-color="#e46342"/>
      <stop offset="0.4" stop-color="#c82410"/>
      <stop offset="0.99" stop-color="#a80d00"/>
      <stop offset="1" stop-color="#a80d00"/>
    </linearGradient>
    <linearGradient id="linear-gradient-7" x1="0.136" y1="0.583" x2="0.858" y2="-0.467" gradientUnits="objectBoundingBox">
      <stop offset="0" stop-color="#fff"/>
      <stop offset="0.54" stop-color="#c81f11"/>
      <stop offset="0.99" stop-color="#bf0905"/>
      <stop offset="1" stop-color="#bf0905"/>
    </linearGradient>
    <linearGradient id="linear-gradient-8" x1="0.276" y1="0.211" x2="0.507" y2="0.791" gradientUnits="objectBoundingBox">
      <stop offset="0" stop-color="#fff"/>
      <stop offset="0.31" stop-color="#de4024"/>
      <stop offset="0.99" stop-color="#bf190b"/>
      <stop offset="1" stop-color="#bf190b"/>
    </linearGradient>
    <linearGradient id="linear-gradient-9" x1="-0.207" y1="1.223" x2="1.042" y2="-0.063" gradientUnits="objectBoundingBox">
      <stop offset="0" stop-color="#bd0012"/>
      <stop offset="0.07" stop-color="#fff"/>
      <stop offset="0.17" stop-color="#fff"/>
      <stop offset="0.27" stop-color="#c82f1c"/>
      <stop offset="0.33" stop-color="#820c01"/>
      <stop offset="0.46" stop-color="#a31601"/>
      <stop offset="0.72" stop-color="#b31301"/>
      <stop offset="0.99" stop-color="#e82609"/>
      <stop offset="1" stop-color="#e82609"/>
    </linearGradient>
    <linearGradient id="linear-gradient-10" x1="0.588" y1="0.652" x2="0.12" y2="0.501" gradientUnits="objectBoundingBox">
      <stop offset="0" stop-color="#8c0c01"/>
      <stop offset="0.54" stop-color="#990c00"/>
      <stop offset="0.99" stop-color="#a80d0e"/>
      <stop offset="1" stop-color="#a80d0e"/>
    </linearGradient>
    <linearGradient id="linear-gradient-11" x1="0.793" y1="0.628" x2="0.231" y2="0.179" gradientUnits="objectBoundingBox">
      <stop offset="0" stop-color="#7e110b"/>
      <stop offset="0.99" stop-color="#9e0c00"/>
      <stop offset="1" stop-color="#9e0c00"/>
    </linearGradient>
    <linearGradient id="linear-gradient-12" x1="0.929" y1="0.741" x2="0.598" y2="0.397" gradientUnits="objectBoundingBox">
      <stop offset="0" stop-color="#79130d"/>
      <stop offset="0.99" stop-color="#9e120b"/>
      <stop offset="1" stop-color="#9e120b"/>
    </linearGradient>
    <radialGradient id="radial-gradient" cx="0.32" cy="0.402" r="0.696" gradientUnits="objectBoundingBox">
      <stop offset="0" stop-color="#a80d00"/>
      <stop offset="0.99" stop-color="#7e0e08"/>
      <stop offset="1" stop-color="#7e0e08"/>
    </radialGradient>
    <radialGradient id="radial-gradient-2" cx="0.135" cy="0.409" r="0.884" gradientUnits="objectBoundingBox">
      <stop offset="0" stop-color="#a30c00"/>
      <stop offset="0.99" stop-color="#800e08"/>
      <stop offset="1" stop-color="#800e08"/>
    </radialGradient>
    <linearGradient id="linear-gradient-13" x1="0.566" y1="1.017" x2="0.031" y2="0.12" gradientUnits="objectBoundingBox">
      <stop offset="0" stop-color="#8b2114"/>
      <stop offset="0.43" stop-color="#9e100a"/>
      <stop offset="0.99" stop-color="#b3100c"/>
      <stop offset="1" stop-color="#b3100c"/>
    </linearGradient>
    <linearGradient id="linear-gradient-14" x1="0.309" y1="0.356" x2="0.925" y2="1.007" gradientUnits="objectBoundingBox">
      <stop offset="0" stop-color="#b31000"/>
      <stop offset="0.44" stop-color="#910f08"/>
      <stop offset="0.99" stop-color="#791c12"/>
      <stop offset="1" stop-color="#791c12"/>
    </linearGradient>
  </defs>
  <g id="Group_8416" data-name="Group 8416" transform="translate(-384 -2761)">
    <g transform="matrix(1, 0, 0, 1, 384, 2761)" filter="url(#Ellipse_109)">
      <circle id="Ellipse_109-2" data-name="Ellipse 109" cx="42.5" cy="42.5" r="42.5" transform="translate(9 6)" fill="#fff"/>
    </g>
    <g id="ruby-svgrepo-com" transform="translate(416.523 2790.167)">
      <path id="Path_9484" data-name="Path 9484" d="M73.022,68.247,51.946,80.762,79.235,78.91l2.1-27.517Z" transform="translate(-44.423 -43.95)" fill="url(#linear-gradient)"/>
      <path id="Path_9485" data-name="Path 9485" d="M189.1,145.668l-2.346-16.189-6.389,8.436Z" transform="translate(-154.246 -110.727)" fill="url(#linear-gradient-2)"/>
      <path id="Path_9486" data-name="Path 9486" d="M79.851,233.293l-17.184-1.349-10.091,3.184Z" transform="translate(-44.962 -198.352)" fill="url(#linear-gradient-3)"/>
      <path id="Path_9487" data-name="Path 9487" d="M22.314,170.918l4.293-14.063-9.446,2.02Z" transform="translate(-14.676 -134.138)" fill="url(#linear-gradient-4)"/>
      <path id="Path_9488" data-name="Path 9488" d="M90.291,96.7l-3.95-15.472-11.3,10.6Z" transform="translate(-64.17 -69.461)" fill="url(#linear-gradient-5)"/>
      <path id="Path_9489" data-name="Path 9489" d="M168.033,31.2l-10.685-8.727-2.975,9.619Z" transform="translate(-132.014 -19.219)" fill="url(#linear-gradient-6)"/>
      <path id="Path_9490" data-name="Path 9490" d="M153.673.716l-6.284,3.473L143.424.669Z" transform="translate(-122.652 -0.572)" fill="url(#linear-gradient-7)"/>
      <path id="Path_9491" data-name="Path 9491" d="M0,141.248l2.633-4.8L.5,130.727Z" transform="translate(0 -111.794)" fill="url(#linear-gradient-8)"/>
      <path id="Path_9492" data-name="Path 9492" d="M2.5,18.752,4.638,24.83l9.31-2.089,10.629-9.878,3-9.528L22.854,0l-8.03,3.005c-2.53,2.353-7.439,7.009-7.616,7.1S3.966,15.988,2.5,18.752Z" transform="translate(-2.134)" fill="#fff"/>
      <path id="Path_9493" data-name="Path 9493" d="M15.425,13.31C20.908,7.873,27.977,4.661,30.69,7.4s-.164,9.388-5.647,14.823S12.578,31.045,9.867,28.308s.075-9.563,5.558-15Z" transform="translate(-7.54 -5.475)" fill="url(#linear-gradient-9)"/>
      <path id="Path_9494" data-name="Path 9494" d="M52.744,170.615,57,156.507l14.145,4.544c-5.114,4.8-10.8,8.85-18.4,9.564Z" transform="translate(-45.105 -133.84)" fill="url(#linear-gradient-10)"/>
      <path id="Path_9495" data-name="Path 9495" d="M155.092,83.243l3.631,14.383c4.272-4.492,8.106-9.321,9.984-15.295l-13.616.911Z" transform="translate(-132.63 -70.408)" fill="url(#linear-gradient-11)"/>
      <path id="Path_9496" data-name="Path 9496" d="M185.743,12.888C187.2,8.5,187.532,2.21,180.679,1.042l-5.623,3.106,10.687,8.74Z" transform="translate(-149.703 -0.891)" fill="url(#linear-gradient-12)"/>
      <path id="Path_9497" data-name="Path 9497" d="M0,175.828c.2,7.238,5.424,7.346,7.648,7.41l-5.139-12L0,175.828Z" transform="translate(0 -146.437)" fill="#9e1209"/>
      <path id="Path_9498" data-name="Path 9498" d="M155.232,83.463c3.283,2.018,9.9,6.07,10.033,6.145.209.117,2.852-4.458,3.452-7.044l-13.486.9Z" transform="translate(-132.75 -70.606)" fill="url(#radial-gradient)"/>
      <path id="Path_9499" data-name="Path 9499" d="M82.113,156.507l5.694,10.985a36.815,36.815,0,0,0,8.418-6.433l-14.111-4.552Z" transform="translate(-70.221 -133.84)" fill="url(#radial-gradient-2)"/>
      <path id="Path_9500" data-name="Path 9500" d="M12.41,171.326l-.807,9.606c1.522,2.079,3.616,2.26,5.813,2.1-1.589-3.955-4.764-11.864-5.006-11.7Z" transform="translate(-9.923 -146.511)" fill="url(#linear-gradient-13)"/>
      <path id="Path_9501" data-name="Path 9501" d="M174.826,4.128l11.311,1.587c-.6-2.558-2.457-4.209-5.617-4.725l-5.694,3.138Z" transform="translate(-149.506 -0.847)" fill="url(#linear-gradient-14)"/>
    </g>
  </g>
</svg>
