<svg xmlns="http://www.w3.org/2000/svg" xmlns:xlink="http://www.w3.org/1999/xlink" width="103" height="103" viewBox="0 0 103 103">
  <defs>
    <filter id="Ellipse_109" x="0" y="0" width="103" height="103" filterUnits="userSpaceOnUse">
      <feOffset dy="3" input="SourceAlpha"/>
      <feGaussianBlur stdDeviation="3" result="blur"/>
      <feFlood flood-opacity="0.161"/>
      <feComposite operator="in" in2="blur"/>
      <feComposite in="SourceGraphic"/>
    </filter>
  </defs>
  <g id="Group_8424" data-name="Group 8424" transform="translate(-384 -2761)">
    <g transform="matrix(1, 0, 0, 1, 384, 2761)" filter="url(#Ellipse_109)">
      <circle id="Ellipse_109-2" data-name="Ellipse 109" cx="42.5" cy="42.5" r="42.5" transform="translate(9 6)" fill="#fff"/>
    </g>
    <path id="unreal-engine-svgrepo-com" d="M23.25,0A23.25,23.25,0,1,0,46.5,23.25,23.251,23.251,0,0,0,23.25,0Zm0,3.577a28.414,28.414,0,1,1-.015,0h.014Zm0,5.367c-8.509,1.5-16.1,9.346-16.1,17.883,4.164-7.351,6.944-7.88,7.713-7.88s1.174.4,1.174,1.285V31.185c0,1.362-2.647,1.139-3.522,1.006,3.236,4.815,10.732,5.367,10.732,5.367l3.577-3.577L30.4,35.769c5.646-2.585,8.941-8.118,8.941-8.941a10.709,10.709,0,0,1-5.291,3.557l-.076.019c-.475,0-1.788-.244-1.788-.9V16.542c0-1.126,2.6-4.561,3.577-5.812-6.456,1.691-8.327,4.638-8.327,4.638s-.49-1.062-2.4-1.062a5.8,5.8,0,0,1,1.786,3.549l0,.027V28.837a9.7,9.7,0,0,1-3.513,1.552l-.066.012c-1.24,0-1.844-.5-1.844-1.453s.056-12.853.056-12.853-1.788.657-1.788-3.019c0-1.839,3.577-4.136,3.577-4.136Z" transform="translate(412.25 2786.25)"/>
  </g>
</svg>
