<svg xmlns="http://www.w3.org/2000/svg" xmlns:xlink="http://www.w3.org/1999/xlink" width="103" height="103" viewBox="0 0 103 103">
  <defs>
    <filter id="Ellipse_109" x="0" y="0" width="103" height="103" filterUnits="userSpaceOnUse">
      <feOffset dy="3" input="SourceAlpha"/>
      <feGaussianBlur stdDeviation="3" result="blur"/>
      <feFlood flood-opacity="0.161"/>
      <feComposite operator="in" in2="blur"/>
      <feComposite in="SourceGraphic"/>
    </filter>
  </defs>
  <g id="Group_8422" data-name="Group 8422" transform="translate(-384 -2761)">
    <g transform="matrix(1, 0, 0, 1, 384, 2761)" filter="url(#Ellipse_109)">
      <circle id="Ellipse_109-2" data-name="Ellipse 109" cx="42.5" cy="42.5" r="42.5" transform="translate(9 6)" fill="#fff"/>
    </g>
    <g id="go-svgrepo-com" transform="translate(406.061 2797.953)">
      <path id="Path_9522" data-name="Path 9522" d="M33.012,1.5l.127.085A8.818,8.818,0,0,1,36.4,5.551c.169.253.056.394-.281.478l-.571.146c-1.292.333-2.317.613-3.592.945l-.727.189c-.262.065-.334.038-.613-.28l-.039-.045a3.835,3.835,0,0,0-1.221-1.019l-.1-.05a4.891,4.891,0,0,0-5.092.422A5.983,5.983,0,0,0,21.3,11.684a4.41,4.41,0,0,0,3.8,4.417,5.192,5.192,0,0,0,4.782-1.857c.253-.31.478-.647.76-1.041H25.205c-.591,0-.731-.366-.534-.844l.1-.23c.362-.841.922-2.05,1.286-2.742l.079-.149a.747.747,0,0,1,.674-.4h9.053a11.957,11.957,0,0,1,1.946-3.657,11.793,11.793,0,0,1,7.877-4.7A10.435,10.435,0,0,1,53.7,1.923,8.756,8.756,0,0,1,57.669,8.2a10.859,10.859,0,0,1-3.235,9.536,12.89,12.89,0,0,1-6.752,3.6c-.759.141-1.519.169-2.25.253a10.553,10.553,0,0,1-6.864-2.476,8.842,8.842,0,0,1-2.813-4.382,11.845,11.845,0,0,1-1.182,1.906,11.718,11.718,0,0,1-8.017,4.782,9.965,9.965,0,0,1-7.567-1.857,8.836,8.836,0,0,1-3.573-6.245,11.041,11.041,0,0,1,2.391-8.242A12.484,12.484,0,0,1,25.684.207,9.719,9.719,0,0,1,33.012,1.5ZM46.394,5.531l-.09.02a6.145,6.145,0,0,0-4.923,4.895,4.633,4.633,0,0,0,2.588,5.317,5.157,5.157,0,0,0,4.585-.169,6.156,6.156,0,0,0,3.573-5.373,8.079,8.079,0,0,0-.084-.928,4.63,4.63,0,0,0-5.649-3.761Zm-33.257,5.14c.113,0,.169.084.169.2l-.056.675a.211.211,0,0,1-.2.2L6.92,11.712c-.113,0-.141-.084-.084-.169l.394-.7a.373.373,0,0,1,.281-.169Zm.619-2.588a.129.129,0,0,1,.141.169l-.225.675a.246.246,0,0,1-.253.169L.113,9.124c-.113,0-.141-.056-.084-.141l.591-.76a.4.4,0,0,1,.309-.141ZM15.219,5.5c.113,0,.141.084.084.169l-.478.731a.429.429,0,0,1-.281.169L4.36,6.536c-.113,0-.141-.056-.084-.141l.591-.76A.4.4,0,0,1,5.176,5.5Z" transform="translate(0 0)" fill="#00acd7"/>
    </g>
  </g>
</svg>
