<svg xmlns="http://www.w3.org/2000/svg" xmlns:xlink="http://www.w3.org/1999/xlink" width="103" height="103" viewBox="0 0 103 103">
  <defs>
    <filter id="Ellipse_109" x="0" y="0" width="103" height="103" filterUnits="userSpaceOnUse">
      <feOffset dy="3" input="SourceAlpha"/>
      <feGaussianBlur stdDeviation="3" result="blur"/>
      <feFlood flood-opacity="0.161"/>
      <feComposite operator="in" in2="blur"/>
      <feComposite in="SourceGraphic"/>
    </filter>
  </defs>
  <g id="Group_8420" data-name="Group 8420" transform="translate(-384 -2761)">
    <g transform="matrix(1, 0, 0, 1, 384, 2761)" filter="url(#Ellipse_109)">
      <circle id="Ellipse_109-2" data-name="Ellipse 109" cx="42.5" cy="42.5" r="42.5" transform="translate(9 6)" fill="#fff"/>
    </g>
    <g id="flutter-svgrepo-com" transform="translate(410.953 2786.336)">
      <path id="Path_9505" data-name="Path 9505" d="M15.383,19.833,20.3,15.042H32.519L21.7,25.865l-6.313-6.032h0" transform="translate(4.854 5.91)" fill="#40d0fd"/>
      <path id="Path_9506" data-name="Path 9506" d="M4.907,22.537l6.145,6.291L37.372,2.287H25.155Z" transform="translate(0 0)" fill="#41d0fd"/>
      <path id="Path_9507" data-name="Path 9507" d="M11.176,24.408l6.232,6.14,6.237-6.2-6.313-6.032Z" transform="translate(2.905 7.427)" fill="#1fbcfd"/>
      <path id="Path_9508" data-name="Path 9508" d="M15.435,28.638l6.237-6.2L32.342,33.23H20.056Z" transform="translate(4.878 9.337)" fill="#095a9d"/>
      <path id="Path_9509" data-name="Path 9509" d="M15.435,27.888l5.811-1.933-1.958-1.9Z" transform="translate(4.878 10.087)" fill="#0e5199"/>
    </g>
  </g>
</svg>
