<svg xmlns="http://www.w3.org/2000/svg" xmlns:xlink="http://www.w3.org/1999/xlink" width="103" height="103" viewBox="0 0 103 103">
  <defs>
    <filter id="Ellipse_109" x="0" y="0" width="103" height="103" filterUnits="userSpaceOnUse">
      <feOffset dy="3" input="SourceAlpha"/>
      <feGaussianBlur stdDeviation="3" result="blur"/>
      <feFlood flood-opacity="0.161"/>
      <feComposite operator="in" in2="blur"/>
      <feComposite in="SourceGraphic"/>
    </filter>
  </defs>
  <g id="Group_8413" data-name="Group 8413" transform="translate(-384 -2761)">
    <g transform="matrix(1, 0, 0, 1, 384, 2761)" filter="url(#Ellipse_109)">
      <circle id="Ellipse_109-2" data-name="Ellipse 109" cx="42.5" cy="42.5" r="42.5" transform="translate(9 6)" fill="#fff"/>
    </g>
    <path id="laravel-svgrepo-com" d="M54.681,25.014a.615.615,0,0,1,.022.162v8.552a.624.624,0,0,1-.314.542L47.211,38.4v8.19a.625.625,0,0,1-.312.541L31.916,55.759a.764.764,0,0,1-.109.045c-.015,0-.028.013-.042.018a.628.628,0,0,1-.319,0c-.018,0-.033-.015-.05-.021a.682.682,0,0,1-.1-.042l-14.98-8.626A.625.625,0,0,1,16,46.593V20.937a.618.618,0,0,1,.022-.163c0-.018.016-.034.022-.052a.677.677,0,0,1,.04-.1c.012-.021.029-.036.042-.056a.823.823,0,0,1,.056-.073.593.593,0,0,1,.062-.047.5.5,0,0,1,.069-.053L23.8,16.083a.625.625,0,0,1,.623,0L31.918,20.4a10.779,10.779,0,0,0,.129.1.634.634,0,0,1,.057.074.614.614,0,0,1,.042.056.684.684,0,0,1,.041.1.4.4,0,0,1,.021.053.629.629,0,0,1,.023.162V36.962l6.241-3.594V25.176a.629.629,0,0,1,.023-.162.351.351,0,0,1,.022-.053.677.677,0,0,1,.04-.1c.012-.021.029-.036.042-.056a.641.641,0,0,1,.056-.073.724.724,0,0,1,.06-.046.677.677,0,0,1,.069-.054l7.493-4.313a.624.624,0,0,1,.623,0l7.491,4.313c.027.016.046.036.07.053s.041.029.06.047.036.048.056.073.03.036.041.056a.567.567,0,0,1,.041.1.409.409,0,0,1,.022.053Zm-1.226,8.354V26.256l-2.622,1.509-3.621,2.085v7.112ZM45.963,46.233V39.116L42.4,41.15,32.23,46.956V54.14l13.733-7.907ZM17.248,22.017V46.233l13.733,7.906V46.957L23.807,42.9l0,0h0a.66.66,0,0,1-.067-.052.544.544,0,0,1-.059-.045v0a3.531,3.531,0,0,1-.1-.126v0a.449.449,0,0,1-.033-.079.361.361,0,0,1-.03-.07.764.764,0,0,1-.012-.092.466.466,0,0,1-.01-.07V25.61l-3.62-2.085-2.622-1.508Zm6.867-4.672-6.241,3.592,6.24,3.592,6.241-3.592-6.241-3.592Zm3.246,22.42,3.62-2.084V22.017l-2.621,1.508L24.739,25.61V41.274l2.622-1.509Zm19.225-18.18-6.241,3.592,6.241,3.592,6.238-3.592Zm-.625,8.267-3.621-2.085L39.72,26.256v7.112l3.62,2.084,2.622,1.511ZM31.6,45.876l9.153-5.225,4.575-2.612L39.1,34.449l-7.179,4.134L25.373,42.35l6.23,3.526Z" transform="translate(402.149 2774.578)" fill="#ff2d20" fill-rule="evenodd"/>
  </g>
</svg>
