<svg xmlns="http://www.w3.org/2000/svg" xmlns:xlink="http://www.w3.org/1999/xlink" width="103" height="103" viewBox="0 0 103 103">
  <defs>
    <filter id="Ellipse_109" x="0" y="0" width="103" height="103" filterUnits="userSpaceOnUse">
      <feOffset dy="3" input="SourceAlpha"/>
      <feGaussianBlur stdDeviation="3" result="blur"/>
      <feFlood flood-opacity="0.161"/>
      <feComposite operator="in" in2="blur"/>
      <feComposite in="SourceGraphic"/>
    </filter>
  </defs>
  <g id="Group_8437" data-name="Group 8437" transform="translate(-384 -2761)">
    <g transform="matrix(1, 0, 0, 1, 384, 2761)" filter="url(#Ellipse_109)">
      <circle id="Ellipse_109-2" data-name="Ellipse 109" cx="42.5" cy="42.5" r="42.5" transform="translate(9 6)" fill="#fff"/>
    </g>
    <g id="node-js-svgrepo-com" transform="translate(411.379 2785.716)">
      <path id="Path_9516" data-name="Path 9516" d="M26.571,2.5a4.077,4.077,0,0,0-3.9,0q-8.876,4.9-17.754,9.8A3.58,3.58,0,0,0,3,15.42V35.152a3.607,3.607,0,0,0,1.99,3.155c1.7.9,3.352,1.9,5.082,2.745a7.451,7.451,0,0,0,6.524.175,4.922,4.922,0,0,0,2.37-4.473c.013-6.512,0-13.024.005-19.536a.515.515,0,0,0-.494-.592c-.756-.012-1.513-.007-2.27,0a.494.494,0,0,0-.543.5c-.01,6.47,0,12.942-.006,19.413a2.192,2.192,0,0,1-1.451,2.058c-1.992.7-7.679-2.994-7.679-2.994a.561.561,0,0,1-.321-.548q0-9.765,0-19.529a.6.6,0,0,1,.374-.606q8.847-4.87,17.691-9.749a.639.639,0,0,1,.695,0q8.847,4.871,17.693,9.746a.609.609,0,0,1,.372.609q0,9.763,0,19.528a.561.561,0,0,1-.317.555c-5.843,3.229-11.753,6.354-17.543,9.676-.253.145-.539.309-.822.149-1.523-.842-3.027-1.717-4.544-2.568a.5.5,0,0,0-.547-.032,20.525,20.525,0,0,1-2.1.958c-1.1.434-.922.612.068,1.189q2.662,1.507,5.327,3.01a3.961,3.961,0,0,0,3.944.107q8.878-4.892,17.755-9.789a3.616,3.616,0,0,0,1.991-3.154V15.42a3.571,3.571,0,0,0-1.853-3.087Q35.482,7.41,26.571,2.5Z" transform="translate(0 0)" fill="#8cc84b"/>
      <path id="Path_9517" data-name="Path 9517" d="M28.452,11.689c-2.323-1.243-5.086-1.309-7.668-1.146A8.458,8.458,0,0,0,15.6,12.578a4.977,4.977,0,0,0-1.035,5.268,4.566,4.566,0,0,0,2.9,2.472,21.243,21.243,0,0,0,4.932.909,23.328,23.328,0,0,1,4.514.77c.6.2,1.3.5,1.479,1.153a2.272,2.272,0,0,1-.642,2.2c-1.988,1.574-7.52,1.333-9.485.094a3.328,3.328,0,0,1-1.276-2.352.523.523,0,0,0-.54-.511c-.754-.009-1.508-.007-2.263,0a.5.5,0,0,0-.551.434c-.155,4.078,3.59,5.855,7.1,6.247a19.647,19.647,0,0,0,6.035-.25,7.5,7.5,0,0,0,4-2.106,5.347,5.347,0,0,0,.944-5.194,4.42,4.42,0,0,0-2.932-2.549,24.414,24.414,0,0,0-5.31-1.054c-2.262-.215-4.949-.127-5.59-1.614a1.963,1.963,0,0,1,.677-2.223c1.892-1.283,5.743-1.113,7.7-.154A3.344,3.344,0,0,1,27.9,16.43a.572.572,0,0,0,.542.549c.749.015,1.5,0,2.247,0a.543.543,0,0,0,.589-.391A5.641,5.641,0,0,0,28.452,11.689Z" transform="translate(7.049 5.622)" fill="#8cc84b"/>
    </g>
  </g>
</svg>
