<svg xmlns="http://www.w3.org/2000/svg" xmlns:xlink="http://www.w3.org/1999/xlink" width="103" height="103" viewBox="0 0 103 103">
  <defs>
    <filter id="Ellipse_109" x="0" y="0" width="103" height="103" filterUnits="userSpaceOnUse">
      <feOffset dy="3" input="SourceAlpha"/>
      <feGaussianBlur stdDeviation="3" result="blur"/>
      <feFlood flood-opacity="0.161"/>
      <feComposite operator="in" in2="blur"/>
      <feComposite in="SourceGraphic"/>
    </filter>
  </defs>
  <g id="Group_8424" data-name="Group 8424" transform="translate(-384 -2761)">
    <g transform="matrix(1, 0, 0, 1, 384, 2761)" filter="url(#Ellipse_109)">
      <circle id="Ellipse_109-2" data-name="Ellipse 109" cx="42.5" cy="42.5" r="42.5" transform="translate(9 6)" fill="#fff"/>
    </g>
    <g id="xamarin-svgrepo-com" transform="translate(410.757 2787.484)">
      <path id="Path_9521" data-name="Path 9521" d="M13.263,0a3.647,3.647,0,0,0-3.082,1.782L.461,18.667a3.673,3.673,0,0,0,0,3.565l9.72,16.885A3.647,3.647,0,0,0,13.263,40.9H32.7a3.647,3.647,0,0,0,3.082-1.782l9.72-16.885a3.673,3.673,0,0,0,0-3.565L35.785,1.782A3.646,3.646,0,0,0,32.7,0Zm.176,9.878a.423.423,0,0,1,.082,0h3.353a.442.442,0,0,1,.367.218l5.688,10.136a.438.438,0,0,1,.054.163.435.435,0,0,1,.054-.163L28.712,10.1a.444.444,0,0,1,.38-.218h3.353a.459.459,0,0,1,.38.639L27.273,20.45l5.552,9.919a.459.459,0,0,1-.38.653H29.092a.444.444,0,0,1-.38-.231L23.037,20.654a.438.438,0,0,1-.054-.163.438.438,0,0,1-.054.163L17.241,30.79a.443.443,0,0,1-.367.231H13.521a.459.459,0,0,1-.38-.653l5.552-9.919-5.552-9.932a.457.457,0,0,1,.3-.639Z" transform="translate(2.76 2.566)" fill="#3498db"/>
    </g>
  </g>
</svg>
