<svg xmlns="http://www.w3.org/2000/svg" xmlns:xlink="http://www.w3.org/1999/xlink" width="103" height="103" viewBox="0 0 103 103">
  <defs>
    <filter id="Ellipse_109" x="0" y="0" width="103" height="103" filterUnits="userSpaceOnUse">
      <feOffset dy="3" input="SourceAlpha"/>
      <feGaussianBlur stdDeviation="3" result="blur"/>
      <feFlood flood-opacity="0.161"/>
      <feComposite operator="in" in2="blur"/>
      <feComposite in="SourceGraphic"/>
    </filter>
  </defs>
  <g id="Group_8422" data-name="Group 8422" transform="translate(-384 -2761)">
    <g transform="matrix(1, 0, 0, 1, 384, 2761)" filter="url(#Ellipse_109)">
      <circle id="Ellipse_109-2" data-name="Ellipse 109" cx="42.5" cy="42.5" r="42.5" transform="translate(9 6)" fill="#fff"/>
    </g>
    <g id="ionic-icon-svgrepo-com" transform="translate(411.975 2786.003)">
      <path id="Path_9518" data-name="Path 9518" d="M23.553,0A23.351,23.351,0,0,1,34.34,2.621h0l.446.223-.39.307a7.27,7.27,0,0,0-2.174,2.843h0l-.139.307L31.8,6.16A19.228,19.228,0,1,0,42.785,23.525a18.559,18.559,0,0,0-1.477-7.358h0l-.139-.307.307-.139a7.441,7.441,0,0,0,2.955-2.007h0l.307-.39.2.446a23.143,23.143,0,0,1,2.118,9.7A23.525,23.525,0,1,1,23.553,0Zm0,12.822A10.731,10.731,0,1,1,12.822,23.553,10.771,10.771,0,0,1,23.553,12.822ZM38.911,3.958a4.906,4.906,0,1,1-4.906,4.906A4.906,4.906,0,0,1,38.911,3.958Z" transform="translate(0 0)" fill="#3880ff"/>
    </g>
  </g>
</svg>
