<svg xmlns="http://www.w3.org/2000/svg" xmlns:xlink="http://www.w3.org/1999/xlink" width="100" height="100" viewBox="0 0 100 100">
  <defs>
    <linearGradient id="linear-gradient" x1="0.5" x2="0.5" y2="1" gradientUnits="objectBoundingBox">
      <stop offset="0"/>
      <stop offset="1" stop-color="#434343"/>
    </linearGradient>
  </defs>
  <g id="Group_7973" data-name="Group 7973" transform="translate(-405 -5673)">
    <circle id="Ellipse_165" data-name="Ellipse 165" cx="50" cy="50" r="50" transform="translate(405 5673)" fill="url(#linear-gradient)"/>
    <g id="money-bag-svgrepo-com" transform="translate(430 5696.75)">
      <path id="Exclusion_2" data-name="Exclusion 2" d="M-4709.518-5656.593h-9.36c-8.814,0-13.238,0-15.979-2.742s-2.742-7.165-2.742-15.978,0-13.238,2.742-15.979c2.048-2.048,5.052-2.535,9.547-2.683l3.511-.056q1.374-.007,2.921,0h9.36q1.547,0,2.921,0l3.51.056c4.5.148,7.5.634,9.549,2.683,2.741,2.741,2.741,7.165,2.741,15.979s0,13.237-2.741,15.978S-4700.7-5656.593-4709.518-5656.593Zm-9.36-16.575a1.757,1.757,0,0,0-1.755,1.755,5.81,5.81,0,0,0,4.68,5.436v.024a1.757,1.757,0,0,0,1.754,1.755,1.757,1.757,0,0,0,1.755-1.755v-.024a5.809,5.809,0,0,0,4.68-5.436c0-3.493-3.34-5.655-6.435-5.655-1.908,0-2.925-1.246-2.925-2.145s1.017-2.145,2.925-2.145,2.925,1.246,2.925,2.145a1.757,1.757,0,0,0,1.755,1.755,1.757,1.757,0,0,0,1.755-1.755,5.814,5.814,0,0,0-4.68-5.437v-.024a1.757,1.757,0,0,0-1.755-1.755,1.757,1.757,0,0,0-1.754,1.755v.024a5.813,5.813,0,0,0-4.68,5.438c0,3.493,3.34,5.655,6.435,5.655,1.909,0,2.925,1.246,2.925,2.145s-1.017,2.145-2.925,2.145-2.925-1.246-2.925-2.145A1.757,1.757,0,0,0-4718.878-5673.168Z" transform="translate(4739.599 5706.399)" fill="#fff"/>
      <path id="Path_8255" data-name="Path 8255" d="M18.485,1.25h-.243a42.882,42.882,0,0,0-5.248.187,6.375,6.375,0,0,0-3.861,1.7A6.375,6.375,0,0,0,7.435,7c-.134,1-.172,3.384-.183,5.429l3.511-.056c.011-1.981.044-4.113.151-4.906a2.959,2.959,0,0,1,.7-1.847,2.959,2.959,0,0,1,1.847-.7,41.512,41.512,0,0,1,4.9-.156,41.511,41.511,0,0,1,4.9.156,2.958,2.958,0,0,1,1.847.7,2.957,2.957,0,0,1,.7,1.847c.107.793.14,2.925.151,4.906l3.511.056c-.011-2.046-.049-4.432-.183-5.429a6.375,6.375,0,0,0-1.7-3.861,6.376,6.376,0,0,0-3.861-1.7A42.877,42.877,0,0,0,18.485,1.25Z" transform="translate(7.038 0)" fill="#fff" opacity="0.5"/>
    </g>
  </g>
</svg>
