<svg xmlns="http://www.w3.org/2000/svg" enable-background="new 0 0 160 160" viewBox="0 0 160 160"><path d="M138.834,55.033c-1.349-12.1-11.129-21.734-23.254-22.908c-6.076-0.589-12.051,0.921-17.04,4.271
		C91.376,26.718,80.11,21,68,21c-20.953,0-38,17.046-38,38c0,0.755,0.024,1.513,0.072,2.292C21.48,65.993,16,75.151,16,85
		c0,0.509,0.014,1.014,0.042,1.517C16.305,91.274,20.293,95,25.119,95L44,94.998c1.104,0,2-0.896,2-2s-0.896-2-2-2L25.119,91
		c-2.704,0-4.937-2.066-5.083-4.704C20.012,85.867,20,85.435,20,85c0-8.785,5.118-16.924,13.038-20.737
		c0.755-0.363,1.203-1.158,1.124-1.992C34.053,61.128,34,60.059,34,59c0-18.748,15.252-34,34-34
		c11.462,0,22.079,5.726,28.402,15.316c0.309,0.469,0.801,0.786,1.355,0.874c0.555,0.088,1.12-0.061,1.56-0.41
		c4.487-3.57,10.125-5.23,15.878-4.673c10.253,0.993,18.523,9.139,19.664,19.37c0.473,4.241-0.261,8.476-2.123,12.247
		c-0.388,0.785-0.219,1.731,0.415,2.335c4.417,4.199,6.849,9.861,6.849,16.009c-0.008,2.715-2.292,4.923-5.092,4.923l-14.824,0.001
		c-1.104,0-2,0.896-2,2c0,1.105,0.896,2,2,2l14.824-0.001c4.999,0,9.077-3.998,9.092-8.99c0-6.706-2.501-12.979-7.075-17.819
		C138.678,64.065,139.338,59.55,138.834,55.033z" class="color333333 svgShape"/><path d="M56,80c-3.308,0-6,2.691-6,6v52c0,3.308,2.692,6,6,6h33c1.104,0,2-0.896,2-2c0-1.105-0.896-2-2-2H56
		c-1.103,0-2-0.897-2-2v-24h30c1.104,0,2-0.896,2-2c0-1.105-0.896-2-2-2H54V86c0-1.103,0.897-2,2-2h52c1.103,0,2,0.897,2,2v16.042
		c0,1.104,0.896,2,2,2s2-0.896,2-2V86c0-3.309-2.692-6-6-6h-9.172l8.086-8.086c0.781-0.781,0.781-2.047,0-2.829
		c-0.781-0.781-2.047-0.781-2.829,0L98,75.171V57c0-1.105-0.896-2-2-2s-2,0.895-2,2v18.171l-6.086-6.086
		c-0.781-0.781-2.047-0.781-2.829,0c-0.781,0.781-0.781,2.047,0,2.829L93.171,80H70V61.828l6.086,6.086
		c0.391,0.391,0.902,0.586,1.414,0.586s1.024-0.195,1.414-0.586c0.781-0.781,0.781-2.047,0-2.829l-9.5-9.5
		c-0.781-0.781-2.047-0.781-2.829,0l-9.5,9.5c-0.781,0.781-0.781,2.047,0,2.829c0.781,0.781,2.047,0.781,2.829,0L66,61.828V80H56z" class="color333333 svgShape"/><path d="M104 97c0-1.654-1.346-3-3-3s-3 1.346-3 3c0 1.654 1.346 3 3 3S104 98.654 104 97zM94 97c0-1.105-.896-2-2-2H60c-1.104 0-2 .895-2 2 0 1.104.896 2 2 2h32C93.104 99 94 98.104 94 97zM60 125c-1.104 0-2 .895-2 2 0 1.104.896 2 2 2h22c1.104 0 2-.896 2-2 0-1.105-.896-2-2-2H60zM104.683 148.505C105.06 148.835 105.53 149 106 149s.94-.165 1.317-.495l16-14c.434-.38.683-.928.683-1.505v-17c0-.943-.659-1.758-1.581-1.956-4.253-.911-8.777-3.173-13.09-6.544l-1.914-1.915c-.781-.781-2.047-.781-2.829 0l-1.914 1.915c-4.313 3.371-8.838 5.633-13.09 6.544C88.659 114.242 88 115.057 88 116v17c0 .577.249 1.125.683 1.505L104.683 148.505zM92 117.568c4.425-1.217 8.87-3.565 13.236-6.996.063-.049.122-.102.179-.158l.586-.586.586.586c.056.056.116.109.179.158 4.366 3.431 8.811 5.779 13.236 6.996v14.524l-14 12.25-14-12.25V117.568z" class="color333333 svgShape"/></svg>