<svg xmlns="http://www.w3.org/2000/svg" width="55" height="55" viewBox="0 0 55 55">
  <g id="Group_2475" data-name="Group 2475" transform="translate(-1099 -3011)">
    <circle id="Ellipse_14" data-name="Ellipse 14" cx="27.5" cy="27.5" r="27.5" transform="translate(1099 3011)" fill="#f3f3f3"/>
    <g id="Extension_information" transform="translate(1098 3009.654)">
      <g id="Group_8325" data-name="Group 8325" transform="translate(10 10)">
        <path id="Path_7037" data-name="Path 7037" d="M105.456,115.58v11.448H100.88V115.58h4.576m.372-2.28h-5.321a1.907,1.907,0,0,0-1.908,1.908V127.4a1.907,1.907,0,0,0,1.908,1.908h5.321a1.907,1.907,0,0,0,1.908-1.908V115.208a1.907,1.907,0,0,0-1.908-1.908Z" transform="translate(-84.856 -97.276)" fill="#f48120"/>
        <path id="Path_7038" data-name="Path 7038" d="M105.456,41.8v4.576H100.88V41.8h4.576m.838-2.3h-6.252A1.44,1.44,0,0,0,98.6,40.943v6.252a1.44,1.44,0,0,0,1.443,1.443h6.252a1.44,1.44,0,0,0,1.443-1.443V40.943a1.45,1.45,0,0,0-1.443-1.443Z" transform="translate(-84.856 -34.924)" fill="#f48120"/>
        <path id="Path_7039" data-name="Path 7039" d="M28.3,12.3a16.013,16.013,0,0,1,6.236,30.761,16.1,16.1,0,0,1-12.472,0,15.666,15.666,0,0,1-5.088-3.428,16.053,16.053,0,0,1-3.428-17.56,16.086,16.086,0,0,1,3.428-5.088A15.959,15.959,0,0,1,28.3,12.3m0-2.3a18.3,18.3,0,1,0,18.3,18.3A18.3,18.3,0,0,0,28.3,10Z" transform="translate(-10 -10)" fill="#f48120"/>
      </g>
    </g>
  </g>
</svg>
