<svg id="workflow-builder" xmlns="http://www.w3.org/2000/svg" xmlns:xlink="http://www.w3.org/1999/xlink" width="45" height="45" viewBox="0 0 45 45">
  <defs>
    <linearGradient id="linear-gradient" x1="0.5" x2="0.156" y2="0.791" gradientUnits="objectBoundingBox">
      <stop offset="0" stop-color="#3e3e3e"/>
      <stop offset="1" stop-color="#1a1a1a"/>
    </linearGradient>
  </defs>
  <circle id="Ellipse_1" data-name="Ellipse 1" cx="22.5" cy="22.5" r="22.5" fill="url(#linear-gradient)"/>
  <path id="noun-workflow-7057536" d="M11.112,24.868h8.423a.582.582,0,0,1,.582.581V29.5a.586.586,0,0,1-.582.585H11.112a.588.588,0,0,1-.585-.585V25.449a.584.584,0,0,1,.585-.581Zm-1.077,2.885.055-.579a4.311,4.311,0,0,1,.438-8.6h2.448v-.581H10.528a4.9,4.9,0,0,0-.492,9.761ZM14.285,8.782h1.606v.585H14.285Zm6.3,18.4h1.6v.573h-1.6ZM26.442,8.8a4.9,4.9,0,0,1-.493,9.776H23.5v-.581H25.95a4.312,4.312,0,0,0,.438-8.6l.055-.579Zm-7.9,1.426a.306.306,0,0,1,0-.585H22.03a.306.306,0,0,1,0,.585ZM12.7,26.9h5.248a.306.306,0,0,0,0-.585H12.7a.306.306,0,0,0-.271.539.306.306,0,0,0,.271.045Zm0,1.736h3.5a.291.291,0,0,0,0-.582H12.7a.306.306,0,1,0,0,.582Zm2.913-10.943h0a.305.305,0,0,1,0-.581h5.25a.29.29,0,1,1,0,.581Zm0,1.738h0a.306.306,0,0,1-.276-.538.308.308,0,0,1,.276-.043h3.5a.29.29,0,0,1,0,.581ZM18.545,8.476a.306.306,0,0,1,0-.585h5.233a.306.306,0,1,1,0,.585Zm8.9,14.211a4.787,4.787,0,1,1-3.383,1.4,4.79,4.79,0,0,1,3.383-1.4ZM9.53,4.3a.512.512,0,0,1,.465.469l.065.692h0a.468.468,0,0,0,.769.306l.53-.449a.518.518,0,0,1,.661,0,4.9,4.9,0,0,1,.734.726.518.518,0,0,1,0,.661l-.447.547a.469.469,0,0,0,.322.765l.692.059a.514.514,0,0,1,.471.461,4.959,4.959,0,0,1,0,1.032.52.52,0,0,1-.471.465l-.692.065a.468.468,0,0,0-.306.767l.449.53a.518.518,0,0,1,0,.661,5.037,5.037,0,0,1-.728.735.518.518,0,0,1-.661,0l-.535-.443h0a.469.469,0,0,0-.765.322l-.059.692a.513.513,0,0,1-.459.471,4.822,4.822,0,0,1-1.034,0,.521.521,0,0,1-.465-.471L8,12.668a.468.468,0,0,0-.767-.306l-.53.449h0a.518.518,0,0,1-.661,0,5.168,5.168,0,0,1-.735-.729.518.518,0,0,1,0-.661l.443-.535h0a.469.469,0,0,0-.322-.765l-.694-.059h0a.52.52,0,0,1-.472-.459,4.683,4.683,0,0,1,0-1.035.517.517,0,0,1,.469-.465l.692-.065a.465.465,0,0,0,.384-.292.471.471,0,0,0-.078-.476L5.3,6.738a.518.518,0,0,1,0-.661,5,5,0,0,1,.724-.734.515.515,0,0,1,.661,0l.539.449a.469.469,0,0,0,.765-.322l.059-.694a.516.516,0,0,1,.461-.471,4.651,4.651,0,0,1,1.032,0ZM9.035,7.313a1.751,1.751,0,1,0,1.746,1.751A1.75,1.75,0,0,0,9.035,7.313ZM24.166,27.465l1.257,1.818a.755.755,0,0,0,1.073.177l3.739-2.754h0a.76.76,0,0,0-.9-1.224l-3.109,2.3-.814-1.175a.757.757,0,0,0-1.246.859ZM16.942,6.455a.587.587,0,0,0-.582.582v4.048a.582.582,0,0,0,.582.581h8.423a.584.584,0,0,0,.585-.581V7.038a.585.585,0,0,0-.585-.582Zm-2.917,9.205a.585.585,0,0,0-.582.585V20.29a.585.585,0,0,0,.582.585h8.427a.585.585,0,0,0,.582-.585V16.245a.585.585,0,0,0-.582-.585Z" transform="translate(4.766 4.723)" fill="#fff" fill-rule="evenodd"/>
</svg>
