<svg xmlns="http://www.w3.org/2000/svg" width="262.93" height="79.624" viewBox="0 0 262.93 79.624">
  <g id="creator" transform="translate(-5.625 -8.7)">
    <g id="Group_7672" data-name="Group 7672" transform="translate(105.248 16.531)">
      <g id="Group_7670" data-name="Group 7670" transform="translate(0 29.466)">
        <path id="Path_7698" data-name="Path 7698" d="M384.866,163.465c-2.029,6.23-7.917,9.489-14.261,9.489-10.575,0-16.405-6.716-16.405-17.034,0-9.431,6.545-16.719,16.234-16.719,6.2,0,11.632,2.972,14.119,8.86l-5.259,2.229a9.222,9.222,0,0,0-8.6-6.116c-6.945,0-9.832,5.945-9.832,12,0,6.316,3.144,11.718,9.975,11.718,4.316,0,7.459-2.629,8.946-6.573Z" transform="translate(-354.2 -139.2)"/>
        <path id="Path_7699" data-name="Path 7699" d="M476.4,170.743h5.745v4.516a8.131,8.131,0,0,1,7.888-4.859v5.316c-4.63,0-7.888,1.515-7.888,6.659v12.4H476.4Z" transform="translate(-441.475 -161.483)"/>
        <path id="Path_7700" data-name="Path 7700" d="M556.364,189.12c-2,4.23-6.316,5.687-10.718,5.687-7.574,0-12.347-5.059-12.347-12.547,0-7.031,4.859-12.461,12.089-12.461,7.774,0,11.546,4.544,11.546,13.8H539.159c0,4.058,2.344,7.031,6.716,7.031a6.307,6.307,0,0,0,6-3.487Zm-5.173-9.289c-.171-3.63-2.372-5.859-5.773-5.859-3.6,0-5.716,2.544-6.2,5.859Z" transform="translate(-482.113 -161.054)"/>
        <path id="Path_7701" data-name="Path 7701" d="M641.919,191.478a8.824,8.824,0,0,1-7.459,3.372c-4.516,0-8.06-2.286-8.06-7,0-6.659,7.031-7.717,12.632-7.717h2.829v-.372c0-3.43-.8-5.6-4.687-5.6a5.52,5.52,0,0,0-5.344,3.43l-4.459-1.915c1.6-4.23,6.088-5.773,10.375-5.773,5.687,0,9.8,2.744,9.8,8.831v15.691H641.89v-2.944Zm-2.944-7.8c-2.658,0-6.859.314-6.859,3.944,0,2.315,1.686,3.172,3.83,3.172,2.915,0,5.916-1.515,5.916-4.773v-2.344Z" transform="translate(-548.605 -161.126)"/>
        <path id="Path_7702" data-name="Path 7702" d="M728.062,176.9a13.419,13.419,0,0,1-3.944.572c-4.573,0-7.288-2.372-7.288-7.145V157.261H713.6v-4.23h3.229v-4.944l5.745-2.486v7.459h5.287v4.23h-5.287v12.547c0,1.886.8,3.058,2.915,3.058a8.427,8.427,0,0,0,2.572-.457Z" transform="translate(-610.883 -143.771)"/>
        <path id="Path_7703" data-name="Path 7703" d="M784.533,169.8c7.288,0,12.89,5.116,12.89,12.461,0,7.545-5.888,12.518-13.147,12.518-7.317,0-13.176-5.059-13.176-12.4C771.1,174.859,777.3,169.8,784.533,169.8Zm6.716,12.518c0-4.43-2.229-8.088-6.945-8.088-4.859,0-6.773,3.858-6.773,8.26,0,4.258,2.258,7.888,6.916,7.888C789.22,190.378,791.249,186.519,791.249,182.318Z" transform="translate(-651.949 -161.054)"/>
        <path id="Path_7704" data-name="Path 7704" d="M877.9,170.743h5.745v4.516a8.131,8.131,0,0,1,7.888-4.859v5.316c-4.63,0-7.888,1.515-7.888,6.659v12.4H877.9Z" transform="translate(-728.226 -161.483)"/>
      </g>
      <g id="Group_7671" data-name="Group 7671" transform="translate(1.715)">
        <path id="Path_7705" data-name="Path 7705" d="M360.2,58.763,370.775,43.5h-9.489v-3h14.462v1.486L365.43,57.248h10v3H360.2Z" transform="translate(-360.2 -39.242)"/>
        <path id="Path_7706" data-name="Path 7706" d="M425.988,58a7.413,7.413,0,0,1,7.774,7.517c0,4.544-3.544,7.545-7.917,7.545-4.4,0-7.945-3.058-7.945-7.459C417.9,61.029,421.644,58,425.988,58Zm4.058,7.517c0-2.658-1.343-4.887-4.2-4.887-2.915,0-4.087,2.315-4.087,4.973,0,2.572,1.372,4.744,4.173,4.744C428.818,70.375,430.047,68.06,430.047,65.517Z" transform="translate(-401.409 -51.741)"/>
        <path id="Path_7707" data-name="Path 7707" d="M482.2,36.1h3.458v8.86a5.2,5.2,0,0,1,4.83-2.6c3.458,0,5.2,2.429,5.2,5.716v9.06H492.2V48.418c0-2.086-1.086-3.23-3.087-3.23a3.176,3.176,0,0,0-3.458,3.43v8.488H482.2Z" transform="translate(-447.332 -36.1)"/>
        <path id="Path_7708" data-name="Path 7708" d="M545.388,58a7.413,7.413,0,0,1,7.774,7.517c0,4.544-3.544,7.545-7.917,7.545-4.4,0-7.945-3.058-7.945-7.459C537.3,61.029,541.044,58,545.388,58Zm4.058,7.517c0-2.658-1.343-4.887-4.2-4.887-2.915,0-4.087,2.315-4.087,4.973,0,2.572,1.372,4.744,4.173,4.744C548.218,70.375,549.447,68.06,549.447,65.517Z" transform="translate(-486.685 -51.741)"/>
      </g>
    </g>
    <g id="Group_7675" data-name="Group 7675" transform="translate(5.625 8.7)">
      <g id="Group_7673" data-name="Group 7673" transform="translate(0 0)">
        <path id="Path_7709" data-name="Path 7709" d="M48.717,88.324h0a10.438,10.438,0,0,1-7.459-3.087L6.332,50.227a2.432,2.432,0,0,1,0-3.43L41.286,11.787A10.438,10.438,0,0,1,48.745,8.7h0A10.486,10.486,0,0,1,56.2,11.787l12.4,12.461a2.432,2.432,0,0,1,0,3.43L47.8,48.512,68.609,69.347a2.432,2.432,0,0,1,0,3.43L56.148,85.238A10.324,10.324,0,0,1,48.717,88.324ZM11.477,48.512l33.239,33.3a5.644,5.644,0,0,0,4,1.658h0a5.644,5.644,0,0,0,4-1.658L63.464,71.062,42.658,50.227a2.432,2.432,0,0,1,0-3.43L63.464,25.962,52.747,15.216a5.527,5.527,0,0,0-4-1.658,5.644,5.644,0,0,0-4,1.658Z" transform="translate(-5.625 -8.7)" fill="#226db4"/>
      </g>
      <g id="Group_7674" data-name="Group 7674" transform="translate(53.473 23.407)">
        <path id="Path_7710" data-name="Path 7710" d="M209.094,123.41a2.4,2.4,0,0,1-1.715-.715L193.432,108.72a2.432,2.432,0,0,1,0-3.43l13.947-13.976a2.449,2.449,0,0,1,1.715-.715,2.4,2.4,0,0,1,1.715.715l8.231,8.26a10.54,10.54,0,0,1,0,14.862l-8.231,8.26A2.4,2.4,0,0,1,209.094,123.41Zm-10.517-16.405,10.517,10.518,6.516-6.516a5.675,5.675,0,0,0,0-8l-6.516-6.516Z" transform="translate(-192.725 -90.6)" fill="#e42527"/>
      </g>
    </g>
  </g>
</svg>
