<svg xmlns="http://www.w3.org/2000/svg" width="163" height="40" viewBox="0 0 163 40">
  <g id="peopleplus" transform="translate(-11.9 -3.048)">
    <g id="Group_7878" data-name="Group 7878" transform="translate(55.579 7.61)">
      <g id="Group_7876" data-name="Group 7876" transform="translate(0 12.809)">
        <path id="Path_8195" data-name="Path 8195" d="M328.814,140.8h5.5c3.336,0,5.941,1.339,5.941,5,0,4.017-3.17,4.886-6.561,4.886h-1.819v5.977H328.8V140.8Zm5.486,7.674c1.888,0,2.963-.787,2.963-2.692,0-1.988-1.172-2.636-2.963-2.636h-2.412v5.342H334.3Z" transform="translate(-328.8 -139.158)"/>
        <path id="Path_8196" data-name="Path 8196" d="M428.923,179.131c-.965,2.043-3.046,2.747-5.169,2.747-3.653,0-5.954-2.443-5.954-6.059a5.721,5.721,0,0,1,5.83-6.018c3.749,0,5.568,2.195,5.568,6.667h-8.573a3.089,3.089,0,0,0,3.239,3.4,3.041,3.041,0,0,0,2.895-1.684Zm-2.481-4.486a2.682,2.682,0,0,0-2.784-2.83,2.985,2.985,0,0,0-2.991,2.83Z" transform="translate(-405.533 -164.155)"/>
        <path id="Path_8197" data-name="Path 8197" d="M514.878,169.8a5.933,5.933,0,0,1,6.216,6.018,6.01,6.01,0,0,1-6.34,6.046c-3.529,0-6.354-2.443-6.354-5.99C508.4,172.243,511.391,169.8,514.878,169.8Zm3.239,6.046c0-2.139-1.075-3.906-3.349-3.906-2.343,0-3.267,1.863-3.267,3.989,0,2.057,1.089,3.81,3.335,3.81C517.152,179.738,518.117,177.875,518.117,175.846Z" transform="translate(-483.645 -164.155)"/>
        <path id="Path_8198" data-name="Path 8198" d="M615.2,170.048h2.77v1.877a4.667,4.667,0,0,1,3.97-2.126c3.542,0,5.251,2.843,5.251,6.018,0,3.257-1.819,6.059-5.169,6.059a4.493,4.493,0,0,1-4.039-2.043v5.8h-2.77V170.048Zm9.124,5.7c0-1.96-.979-3.782-3.239-3.782-2.288,0-3.211,1.836-3.211,3.92,0,2.153.992,3.81,3.294,3.81C623.621,179.71,624.324,177.888,624.324,175.749Z" transform="translate(-575.725 -164.155)"/>
        <path id="Path_8199" data-name="Path 8199" d="M719.2,130.1l2.77-1.2v17.5H719.2Z" transform="translate(-665.391 -128.9)"/>
        <path id="Path_8200" data-name="Path 8200" d="M767.423,179.131c-.965,2.043-3.046,2.747-5.169,2.747-3.653,0-5.954-2.443-5.954-6.059a5.721,5.721,0,0,1,5.83-6.018c3.749,0,5.568,2.195,5.568,6.667h-8.573a3.089,3.089,0,0,0,3.239,3.4,3.041,3.041,0,0,0,2.894-1.684Zm-2.495-4.486a2.683,2.683,0,0,0-2.784-2.83,2.985,2.985,0,0,0-2.991,2.83Z" transform="translate(-697.377 -164.155)"/>
        <path id="Path_8201" data-name="Path 8201" d="M891.114,140.8h5.5c3.335,0,5.941,1.339,5.941,5,0,4.017-3.17,4.886-6.561,4.886h-1.819v5.977H891.1V140.8Zm5.486,7.674c1.888,0,2.963-.787,2.963-2.692,0-1.988-1.172-2.636-2.963-2.636h-2.412v5.342H896.6Z" transform="translate(-813.597 -139.158)"/>
        <path id="Path_8202" data-name="Path 8202" d="M989.7,130.1l2.77-1.2v17.5H989.7Z" transform="translate(-898.607 -128.9)"/>
        <path id="Path_8203" data-name="Path 8203" d="M1039.484,181.386a4.094,4.094,0,0,1-3.818,2.043c-2.66,0-4.066-1.753-4.066-4.389v-7.426h2.77v7.081c0,1.587.731,2.553,2.343,2.553a2.6,2.6,0,0,0,2.784-2.774V171.6h2.757v11.594H1039.5v-1.808Z" transform="translate(-934.732 -165.706)"/>
        <path id="Path_8204" data-name="Path 8204" d="M1126.509,178.106a2.9,2.9,0,0,0,2.867,1.684c.9,0,2.012-.276,2.012-1.38,0-1.159-1.254-1.435-2.688-1.739-1.861-.386-3.942-.842-3.942-3.451,0-2.388,2.219-3.52,4.314-3.52,1.833,0,3.942.69,4.7,2.526l-2.054.883a2.674,2.674,0,0,0-2.536-1.422c-.924,0-1.806.373-1.806,1.311,0,1.063,1.13,1.284,2.536,1.56,1.889.373,4.149.8,4.149,3.506,0,2.733-2.288,3.7-4.7,3.7-2.04,0-4.245-.69-4.962-2.774Z" transform="translate(-1014.741 -164.069)"/>
      </g>
      <g id="Group_7877" data-name="Group 7877" transform="translate(0.041 0)">
        <path id="Path_8205" data-name="Path 8205" d="M329.1,49.32l5.1-7.371h-4.576V40.5H336.6v.718l-4.976,7.371h4.824v1.449H329.1Z" transform="translate(-329.1 -39.893)"/>
        <path id="Path_8206" data-name="Path 8206" d="M390.7,58a3.577,3.577,0,0,1,3.749,3.63,3.83,3.83,0,0,1-7.65.041A3.713,3.713,0,0,1,390.7,58Zm1.957,3.63c0-1.284-.648-2.36-2.026-2.36-1.406,0-1.971,1.118-1.971,2.4a2.033,2.033,0,0,0,2.012,2.291C392.079,63.977,392.658,62.858,392.658,61.63Z" transform="translate(-378.847 -54.977)"/>
        <path id="Path_8207" data-name="Path 8207" d="M451.1,36.1h1.668v4.279a2.506,2.506,0,0,1,2.329-1.256,2.446,2.446,0,0,1,2.509,2.761v4.375h-1.682v-4.21a1.373,1.373,0,0,0-1.489-1.56,1.533,1.533,0,0,0-1.668,1.656v4.1H451.1Z" transform="translate(-434.285 -36.1)"/>
        <path id="Path_8208" data-name="Path 8208" d="M510.1,58a3.577,3.577,0,0,1,3.749,3.63,3.831,3.831,0,0,1-7.65.041A3.713,3.713,0,0,1,510.1,58Zm1.957,3.63c0-1.284-.648-2.36-2.026-2.36-1.406,0-1.971,1.118-1.971,2.4a2.033,2.033,0,0,0,2.012,2.291C511.465,63.977,512.058,62.858,512.058,61.63Z" transform="translate(-481.79 -54.977)"/>
      </g>
    </g>
    <g id="Group_7879" data-name="Group 7879" transform="translate(11.9 3.048)">
      <path id="Path_8209" data-name="Path 8209" d="M46.716,32.662V13.435a.794.794,0,0,0-.386-.676L29.694,3.152a.794.794,0,0,0-.786,0L12.286,12.758a.765.765,0,0,0-.386.676V32.662a.8.8,0,0,0,.386.676l16.623,9.607a.8.8,0,0,0,.786,0l16.636-9.62A.739.739,0,0,0,46.716,32.662ZM28.523,5.181V14.87l-6.3,3.644a.765.765,0,0,0-.386.676v7.26l-8.38,4.872V13.9ZM23.4,25.54V19.632l5.127-2.968v5.894Zm5.9,15.845-4.755-2.747a6.037,6.037,0,0,1,7.829-1.56,5.85,5.85,0,0,1,1.75,1.532Zm6.189-3.575a7.89,7.89,0,0,0-2.329-2.1,7.605,7.605,0,0,0-9.979,2.126l-8.945-5.176,15.037-8.737,13.356,7.729a.779.779,0,0,0,.772-1.353L30.08,22.6V5.167l15.065,8.709v18.33Z" transform="translate(-11.9 -3.048)" fill="#e42527"/>
      <path id="Path_8210" data-name="Path 8210" d="M122.539,181.3a2.738,2.738,0,1,0,1.006,3.741A2.73,2.73,0,0,0,122.539,181.3Zm-1.943,3.382a1.171,1.171,0,1,1,1.6-.428A1.159,1.159,0,0,1,120.6,184.686Z" transform="translate(-103.752 -156.383)" fill="#e42527"/>
    </g>
  </g>
</svg>
