<svg xmlns="http://www.w3.org/2000/svg" xmlns:xlink="http://www.w3.org/1999/xlink" width="109" height="40" viewBox="0 0 109 40">
  <defs>
    <clipPath id="clip-path">
      <rect id="Rectangle_3554" data-name="Rectangle 3554" width="40" height="40" fill="none"/>
    </clipPath>
  </defs>
  <g id="Group_7929" data-name="Group 7929" transform="translate(0.076)">
    <g id="Group_7826" data-name="Group 7826" transform="translate(-0.076)">
      <g id="Group_7825" data-name="Group 7825" clip-path="url(#clip-path)">
        <g id="Group_7824" data-name="Group 7824">
          <g id="Group_7823" data-name="Group 7823" clip-path="url(#clip-path)">
            <g id="Group_7822" data-name="Group 7822" opacity="0.9">
              <g id="Group_7821" data-name="Group 7821">
                <g id="Group_7820" data-name="Group 7820" clip-path="url(#clip-path)">
                  <g id="Group_7819" data-name="Group 7819">
                    <g id="Group_7818" data-name="Group 7818" clip-path="url(#clip-path)">
                      <path id="Path_8135" data-name="Path 8135" d="M28.5,40H1.171A1.171,1.171,0,0,1,0,38.829V28.9a5.078,5.078,0,0,1,3.429-4.8L33.715,13.7A5.837,5.837,0,0,0,31.82,2.344H2.344V21.679a1.172,1.172,0,1,1-2.344,0V1.171A1.171,1.171,0,0,1,1.171,0H31.819a8.186,8.186,0,0,1,2.656,15.92L4.189,26.313A2.734,2.734,0,0,0,2.344,28.9v8.756H28.5a9.157,9.157,0,0,0,4-17.4,1.172,1.172,0,1,1,1.023-2.11A11.5,11.5,0,0,1,28.5,40" transform="translate(-0.526)" fill="#005da6"/>
                    </g>
                  </g>
                </g>
              </g>
            </g>
            <path id="Path_8136" data-name="Path 8136" d="M48.331,45.455a4.686,4.686,0,1,1,4.687-4.686,4.686,4.686,0,0,1-4.687,4.686m0-7.03a2.343,2.343,0,1,0,2.343,2.344,2.343,2.343,0,0,0-2.343-2.344m11.752,23.58a4.687,4.687,0,1,1,4.688-4.69v0a4.692,4.692,0,0,1-4.688,4.687m0-7.03a2.344,2.344,0,1,0,0,4.688h0a2.343,2.343,0,0,0,2.344-2.341v0a2.347,2.347,0,0,0-2.344-2.344" transform="translate(-35.673 -29.057)" fill="#005da6"/>
          </g>
        </g>
      </g>
    </g>
    <path id="Path_8141" data-name="Path 8141" d="M.609-23.362l5.037-7.279H1.118v-1.436h6.9v.715L3.1-24.084H7.875v1.436H.609Zm7.865-2.718a3.441,3.441,0,0,1,.312-1.478,3.515,3.515,0,0,1,.841-1.14,3.819,3.819,0,0,1,1.227-.734,4.192,4.192,0,0,1,1.478-.261,4.028,4.028,0,0,1,1.462.261,3.538,3.538,0,0,1,1.176.734,3.38,3.38,0,0,1,.783,1.134,3.644,3.644,0,0,1,.283,1.452,3.578,3.578,0,0,1-.3,1.475,3.4,3.4,0,0,1-.808,1.134,3.639,3.639,0,0,1-1.2.728,4.16,4.16,0,0,1-1.469.258,4.158,4.158,0,0,1-1.478-.261,3.675,3.675,0,0,1-1.2-.731,3.429,3.429,0,0,1-.808-1.124A3.463,3.463,0,0,1,8.474-26.081Zm3.833,2.293a1.892,1.892,0,0,0,.886-.193,1.769,1.769,0,0,0,.609-.512,2.152,2.152,0,0,0,.351-.738,3.33,3.33,0,0,0,.113-.87,3.211,3.211,0,0,0-.122-.9,2.183,2.183,0,0,0-.37-.741,1.757,1.757,0,0,0-.622-.5,1.98,1.98,0,0,0-.882-.184,1.907,1.907,0,0,0-.892.193,1.682,1.682,0,0,0-.6.519,2.24,2.24,0,0,0-.341.754,3.641,3.641,0,0,0-.11.9,3.04,3.04,0,0,0,.122.87,2.089,2.089,0,0,0,.37.721,1.813,1.813,0,0,0,.618.493A1.944,1.944,0,0,0,12.306-23.787ZM17.24-32.67h1.649v4.219a2.087,2.087,0,0,1,.415-.557,2.3,2.3,0,0,1,.548-.386,2.661,2.661,0,0,1,.644-.225,3.316,3.316,0,0,1,.7-.074,2.644,2.644,0,0,1,1.082.206,2.135,2.135,0,0,1,.773.57,2.421,2.421,0,0,1,.464.863,3.676,3.676,0,0,1,.155,1.092v4.316H22.007V-26.8a1.584,1.584,0,0,0-.377-1.14,1.452,1.452,0,0,0-1.1-.393,1.6,1.6,0,0,0-1.221.448,1.662,1.662,0,0,0-.422,1.188v4.052H17.24Zm7.5,6.589a3.441,3.441,0,0,1,.312-1.478,3.515,3.515,0,0,1,.841-1.14,3.819,3.819,0,0,1,1.227-.734,4.192,4.192,0,0,1,1.478-.261,4.028,4.028,0,0,1,1.462.261,3.538,3.538,0,0,1,1.176.734,3.379,3.379,0,0,1,.783,1.134,3.644,3.644,0,0,1,.283,1.452,3.577,3.577,0,0,1-.3,1.475A3.4,3.4,0,0,1,31.2-23.5a3.639,3.639,0,0,1-1.2.728,4.16,4.16,0,0,1-1.469.258,4.158,4.158,0,0,1-1.478-.261,3.675,3.675,0,0,1-1.2-.731,3.429,3.429,0,0,1-.808-1.124A3.463,3.463,0,0,1,24.738-26.081Zm3.833,2.293a1.892,1.892,0,0,0,.886-.193,1.769,1.769,0,0,0,.609-.512,2.153,2.153,0,0,0,.351-.738,3.33,3.33,0,0,0,.113-.87,3.211,3.211,0,0,0-.122-.9,2.183,2.183,0,0,0-.37-.741,1.757,1.757,0,0,0-.622-.5,1.98,1.98,0,0,0-.882-.184,1.907,1.907,0,0,0-.892.193,1.682,1.682,0,0,0-.6.519,2.24,2.24,0,0,0-.341.754,3.642,3.642,0,0,0-.11.9,3.04,3.04,0,0,0,.122.87,2.089,2.089,0,0,0,.37.721,1.813,1.813,0,0,0,.618.493A1.944,1.944,0,0,0,28.57-23.787Z" transform="translate(47.596 36.449)"/>
    <path id="Path_8142" data-name="Path 8142" d="M5.264-52.219h6.05a9.907,9.907,0,0,1,1.977.189,4.5,4.5,0,0,1,1.625.655,3.276,3.276,0,0,1,1.1,1.253,4.319,4.319,0,0,1,.4,1.982,3.351,3.351,0,0,1-.629,2.087,3.394,3.394,0,0,1-1.845,1.174,4.03,4.03,0,0,1,2.344,1.206,3.7,3.7,0,0,1,.771,2.5,4.428,4.428,0,0,1-.43,2.055A3.561,3.561,0,0,1,15.472-37.8a4.828,4.828,0,0,1-1.7.713,9.454,9.454,0,0,1-2.05.215H5.264Zm5.683,6.438a5.269,5.269,0,0,0,1.111-.1,2,2,0,0,0,.818-.367,1.617,1.617,0,0,0,.509-.708,3.11,3.11,0,0,0,.173-1.117,2.2,2.2,0,0,0-.21-1.028,1.631,1.631,0,0,0-.571-.629,2.278,2.278,0,0,0-.844-.315,6,6,0,0,0-1.028-.084H8.168v4.352Zm.409,6.826a4.673,4.673,0,0,0,1.153-.131,2.294,2.294,0,0,0,.876-.419,1.86,1.86,0,0,0,.556-.75,2.893,2.893,0,0,0,.194-1.122,2.694,2.694,0,0,0-.236-1.206,1.9,1.9,0,0,0-.64-.744,2.526,2.526,0,0,0-.944-.377,6.078,6.078,0,0,0-1.159-.1H8.168v4.855Zm6.816-3.5a5.6,5.6,0,0,1,.509-2.406,5.722,5.722,0,0,1,1.368-1.856,6.217,6.217,0,0,1,2-1.2,6.825,6.825,0,0,1,2.406-.425,6.558,6.558,0,0,1,2.38.425,5.759,5.759,0,0,1,1.914,1.2,5.5,5.5,0,0,1,1.274,1.845,5.932,5.932,0,0,1,.461,2.365,5.824,5.824,0,0,1-.482,2.4,5.539,5.539,0,0,1-1.316,1.845,5.924,5.924,0,0,1-1.956,1.185,6.771,6.771,0,0,1-2.391.419,6.769,6.769,0,0,1-2.406-.425,5.983,5.983,0,0,1-1.961-1.19,5.583,5.583,0,0,1-1.316-1.83A5.637,5.637,0,0,1,18.172-42.457Zm6.239,3.733a3.08,3.08,0,0,0,1.442-.315,2.88,2.88,0,0,0,.991-.834,3.5,3.5,0,0,0,.571-1.2,5.421,5.421,0,0,0,.184-1.416,5.227,5.227,0,0,0-.2-1.463,3.554,3.554,0,0,0-.6-1.206,2.861,2.861,0,0,0-1.012-.818,3.224,3.224,0,0,0-1.437-.3,3.1,3.1,0,0,0-1.452.315,2.738,2.738,0,0,0-.98.844,3.647,3.647,0,0,0-.556,1.227,5.928,5.928,0,0,0-.178,1.473A4.949,4.949,0,0,0,21.38-41a3.4,3.4,0,0,0,.6,1.174,2.951,2.951,0,0,0,1.007.8A3.165,3.165,0,0,0,24.411-38.724Zm6.931-3.733a5.6,5.6,0,0,1,.509-2.406,5.722,5.722,0,0,1,1.368-1.856,6.217,6.217,0,0,1,2-1.2,6.825,6.825,0,0,1,2.406-.425,6.558,6.558,0,0,1,2.38.425,5.759,5.759,0,0,1,1.914,1.2,5.5,5.5,0,0,1,1.274,1.845,5.932,5.932,0,0,1,.461,2.365,5.824,5.824,0,0,1-.482,2.4,5.539,5.539,0,0,1-1.316,1.845A5.924,5.924,0,0,1,39.9-37.078a6.771,6.771,0,0,1-2.391.419,6.769,6.769,0,0,1-2.406-.425,5.983,5.983,0,0,1-1.961-1.19,5.583,5.583,0,0,1-1.316-1.83A5.637,5.637,0,0,1,31.342-42.457Zm6.239,3.733a3.08,3.08,0,0,0,1.442-.315,2.88,2.88,0,0,0,.991-.834,3.5,3.5,0,0,0,.571-1.2,5.421,5.421,0,0,0,.183-1.416,5.227,5.227,0,0,0-.2-1.463,3.554,3.554,0,0,0-.6-1.206,2.861,2.861,0,0,0-1.012-.818,3.224,3.224,0,0,0-1.437-.3,3.1,3.1,0,0,0-1.452.315,2.738,2.738,0,0,0-.98.844,3.647,3.647,0,0,0-.556,1.227,5.928,5.928,0,0,0-.178,1.473A4.949,4.949,0,0,0,34.55-41a3.4,3.4,0,0,0,.6,1.174,2.951,2.951,0,0,0,1.007.8A3.165,3.165,0,0,0,37.581-38.724Zm8.032-14.46H48.3V-43.2l4.068-4.9h2.946L50.856-42.95l4.792,6.082H52.554L48.3-42.341v5.474H45.613ZM58.395-40.213a2.247,2.247,0,0,0,.44.718,2.478,2.478,0,0,0,.65.509,3.141,3.141,0,0,0,.8.3,3.958,3.958,0,0,0,.886.1,4.081,4.081,0,0,0,.671-.058,2.022,2.022,0,0,0,.629-.21,1.35,1.35,0,0,0,.467-.409,1.1,1.1,0,0,0,.183-.655,1.1,1.1,0,0,0-.21-.692,1.643,1.643,0,0,0-.571-.456,4.094,4.094,0,0,0-.828-.3q-.467-.121-.991-.225-.671-.147-1.358-.33a4.314,4.314,0,0,1-1.232-.535,2.767,2.767,0,0,1-.891-.938,2.991,2.991,0,0,1-.346-1.531,2.983,2.983,0,0,1,.367-1.51,3.282,3.282,0,0,1,.959-1.059,4.311,4.311,0,0,1,1.342-.629,5.6,5.6,0,0,1,1.515-.21,7.314,7.314,0,0,1,1.363.131,5.289,5.289,0,0,1,1.305.425,4.387,4.387,0,0,1,1.111.76,3.191,3.191,0,0,1,.771,1.127l-1.992.86a1.943,1.943,0,0,0-.44-.634,2.535,2.535,0,0,0-.608-.425,2.786,2.786,0,0,0-.7-.241,3.633,3.633,0,0,0-.713-.073,3.062,3.062,0,0,0-.65.068,1.775,1.775,0,0,0-.561.22,1.175,1.175,0,0,0-.393.393,1.109,1.109,0,0,0-.147.587,1,1,0,0,0,.194.634,1.49,1.49,0,0,0,.524.409,3.641,3.641,0,0,0,.781.267q.451.1.954.2.692.136,1.405.315a4.6,4.6,0,0,1,1.295.535,2.833,2.833,0,0,1,.949.959,3.028,3.028,0,0,1,.367,1.589,3.39,3.39,0,0,1-.383,1.672,3.129,3.129,0,0,1-1.017,1.106,4.4,4.4,0,0,1-1.452.608,7.531,7.531,0,0,1-1.7.189,8.251,8.251,0,0,1-1.489-.136,5.431,5.431,0,0,1-1.395-.451,4.181,4.181,0,0,1-1.159-.828,3.321,3.321,0,0,1-.771-1.269Z" transform="translate(43.231 71.224)"/>
  </g>
</svg>
