<svg id="people" xmlns="http://www.w3.org/2000/svg" width="119" height="40" viewBox="0 0 119 40">
  <g id="Group_7869" data-name="Group 7869" transform="translate(48.635 4.562)">
    <g id="Group_7867" data-name="Group 7867" transform="translate(0 12.801)">
      <path id="Path_8175" data-name="Path 8175" d="M359,140.8h5.518c3.338,0,5.945,1.338,5.945,4.994,0,4.014-3.173,4.883-6.566,4.883h-1.821v5.973H359Zm5.49,7.67c1.89,0,2.966-.786,2.966-2.69,0-1.986-1.173-2.635-2.966-2.635h-2.414v5.338h2.414Z" transform="translate(-359 -139.158)"/>
      <path id="Path_8176" data-name="Path 8176" d="M459.032,179.125c-.966,2.042-3.049,2.745-5.173,2.745-3.655,0-5.959-2.442-5.959-6.056a5.721,5.721,0,0,1,5.835-6.014c3.752,0,5.573,2.193,5.573,6.663h-8.58a3.09,3.09,0,0,0,3.242,3.393,3.044,3.044,0,0,0,2.9-1.683Zm-2.483-4.483a2.683,2.683,0,0,0-2.786-2.828,2.986,2.986,0,0,0-2.993,2.828Z" transform="translate(-435.637 -164.158)"/>
      <path id="Path_8177" data-name="Path 8177" d="M544.983,169.8a5.934,5.934,0,0,1,6.221,6.014,6.011,6.011,0,0,1-6.345,6.042c-3.531,0-6.359-2.442-6.359-5.987C538.5,172.242,541.493,169.8,544.983,169.8Zm3.242,6.042c0-2.138-1.076-3.9-3.352-3.9-2.345,0-3.269,1.862-3.269,3.987,0,2.055,1.09,3.807,3.338,3.807C547.259,179.732,548.225,177.87,548.225,175.842Z" transform="translate(-513.739 -164.158)"/>
      <path id="Path_8178" data-name="Path 8178" d="M645.3,170.048h2.773v1.876a4.673,4.673,0,0,1,3.973-2.124c3.545,0,5.256,2.842,5.256,6.014,0,3.255-1.821,6.056-5.173,6.056a4.5,4.5,0,0,1-4.042-2.042v5.794h-2.773V170.048Zm9.132,5.7c0-1.959-.979-3.78-3.242-3.78-2.29,0-3.214,1.835-3.214,3.918,0,2.152.993,3.807,3.3,3.807C653.714,179.7,654.432,177.883,654.432,175.745Z" transform="translate(-605.807 -164.158)"/>
      <path id="Path_8179" data-name="Path 8179" d="M749.3,130.1l2.773-1.2v17.491H749.3Z" transform="translate(-695.461 -128.9)"/>
      <path id="Path_8180" data-name="Path 8180" d="M797.532,179.125c-.966,2.042-3.049,2.745-5.173,2.745-3.655,0-5.959-2.442-5.959-6.056a5.721,5.721,0,0,1,5.835-6.014c3.752,0,5.573,2.193,5.573,6.663h-8.58a3.09,3.09,0,0,0,3.242,3.393,3.044,3.044,0,0,0,2.9-1.683Zm-2.5-4.483a2.683,2.683,0,0,0-2.786-2.828,2.986,2.986,0,0,0-2.993,2.828Z" transform="translate(-727.443 -164.158)"/>
    </g>
    <g id="Group_7868" data-name="Group 7868" transform="translate(0.028)">
      <path id="Path_8181" data-name="Path 8181" d="M359.2,49.315l5.1-7.366h-4.58V40.5h6.98v.717l-4.98,7.366h4.828v1.448H359.2Z" transform="translate(-359.2 -39.893)"/>
      <path id="Path_8182" data-name="Path 8182" d="M420.8,58a3.578,3.578,0,0,1,3.752,3.628,3.834,3.834,0,0,1-7.656.041A3.714,3.714,0,0,1,420.8,58Zm1.959,3.628c0-1.283-.648-2.359-2.028-2.359-1.407,0-1.973,1.117-1.973,2.4a2.033,2.033,0,0,0,2.014,2.29C422.169,63.973,422.763,62.856,422.763,61.628Z" transform="translate(-408.941 -54.979)"/>
      <path id="Path_8183" data-name="Path 8183" d="M481.2,36.1h1.669v4.276a2.509,2.509,0,0,1,2.331-1.255,2.446,2.446,0,0,1,2.511,2.759v4.373h-1.683V42.045a1.373,1.373,0,0,0-1.49-1.559,1.533,1.533,0,0,0-1.669,1.655v4.1H481.2Z" transform="translate(-464.371 -36.1)"/>
      <path id="Path_8184" data-name="Path 8184" d="M540.2,58a3.578,3.578,0,0,1,3.752,3.628,3.834,3.834,0,0,1-7.656.041A3.714,3.714,0,0,1,540.2,58Zm1.959,3.628c0-1.283-.648-2.359-2.028-2.359-1.407,0-1.973,1.117-1.973,2.4a2.033,2.033,0,0,0,2.014,2.29C541.569,63.973,542.163,62.856,542.163,61.628Z" transform="translate(-511.87 -54.979)"/>
    </g>
  </g>
  <g id="Group_7875" data-name="Group 7875" transform="translate(0 0)">
    <g id="Group_7870" data-name="Group 7870" transform="translate(16.112 6.88)">
      <path id="Path_8185" data-name="Path 8185" d="M128.269,60.239a3.669,3.669,0,1,1,3.669-3.669A3.668,3.668,0,0,1,128.269,60.239Zm0-5.007a1.324,1.324,0,1,0,1.324,1.324A1.325,1.325,0,0,0,128.269,55.231Z" transform="translate(-124.6 -52.9)" fill="#226db4"/>
    </g>
    <g id="Group_7871" data-name="Group 7871" transform="translate(0 14.953)">
      <path id="Path_8186" data-name="Path 8186" d="M19.663,136.473A3.6,3.6,0,0,1,17.9,136L9.566,131.19A3.534,3.534,0,0,1,7.8,128.141v-9.615a3.534,3.534,0,0,1,1.766-3.049l6.759-3.89a1.171,1.171,0,0,1,1.173,2.028l-6.759,3.89a1.182,1.182,0,0,0-.593,1.021v9.615a1.187,1.187,0,0,0,.593,1.021l8.332,4.814a1.185,1.185,0,0,0,1.173,0l6.745-3.9A1.171,1.171,0,0,1,28.16,132.1h0l-6.745,3.89A3.456,3.456,0,0,1,19.663,136.473Z" transform="translate(-7.8 -111.426)" fill="#e42527"/>
    </g>
    <g id="Group_7872" data-name="Group 7872" transform="translate(18.584 14.953)">
      <path id="Path_8187" data-name="Path 8187" d="M151.64,136.473a3.6,3.6,0,0,1-1.766-.469l-6.759-3.9a1.171,1.171,0,1,1,1.173-2.028l6.759,3.9a1.185,1.185,0,0,0,1.173,0l8.332-4.814a1.182,1.182,0,0,0,.593-1.021v-9.615a1.187,1.187,0,0,0-.593-1.021l-6.745-3.89a1.171,1.171,0,1,1,1.173-2.028l6.745,3.89a3.534,3.534,0,0,1,1.766,3.049v9.615a3.534,3.534,0,0,1-1.766,3.049L153.392,136A3.506,3.506,0,0,1,151.64,136.473Z" transform="translate(-142.526 -111.426)" fill="#f9b21d"/>
    </g>
    <g id="Group_7873" data-name="Group 7873" transform="translate(7.932)">
      <path id="Path_8188" data-name="Path 8188" d="M66.473,20.333A1.172,1.172,0,0,1,65.3,19.161V11.353A3.534,3.534,0,0,1,67.066,8.3L75.4,3.491a3.555,3.555,0,0,1,3.518,0L87.247,8.3a3.534,3.534,0,0,1,1.766,3.049v7.808a1.173,1.173,0,0,1-2.345,0V11.353a1.187,1.187,0,0,0-.593-1.021L77.742,5.518a1.185,1.185,0,0,0-1.173,0l-8.332,4.814a1.183,1.183,0,0,0-.593,1.021v7.808A1.18,1.18,0,0,1,66.473,20.333Z" transform="translate(-65.3 -3.025)" fill="#089949"/>
    </g>
    <g id="Group_7874" data-name="Group 7874" transform="translate(7.918 13.739)">
      <path id="Path_8189" data-name="Path 8189" d="M74.3,121.57a1.307,1.307,0,0,1-.593-.152l-6.745-3.89A3.534,3.534,0,0,1,65.2,114.48v-1.807a1.173,1.173,0,0,1,2.345,0v1.793a1.187,1.187,0,0,0,.593,1.021l6.745,3.9a1.16,1.16,0,0,1,.428,1.6,1.105,1.105,0,0,1-1.007.579Z" transform="translate(-65.2 -110.276)" fill="#226db4"/>
      <path id="Path_8190" data-name="Path 8190" d="M163.873,121.5a1.173,1.173,0,0,1-.579-2.193l6.759-3.9a1.182,1.182,0,0,0,.593-1.021v-1.807a1.173,1.173,0,1,1,2.345,0v1.821a3.534,3.534,0,0,1-1.766,3.049l-6.759,3.89A1.169,1.169,0,0,1,163.873,121.5Z" transform="translate(-149.251 -110.19)" fill="#226db4"/>
      <path id="Path_8191" data-name="Path 8191" d="M143.873,109.174a1.173,1.173,0,0,1-.579-2.193l6.745-3.89a3.555,3.555,0,0,1,3.518,0l1.586.91a1.171,1.171,0,0,1-1.173,2.028l-1.586-.91a1.185,1.185,0,0,0-1.173,0l-6.745,3.89A1.169,1.169,0,0,1,143.873,109.174Z" transform="translate(-132.009 -102.625)" fill="#226db4"/>
      <path id="Path_8192" data-name="Path 8192" d="M126.531,180.591a1.306,1.306,0,0,1-.593-.152l-1.573-.91a3.563,3.563,0,0,1-1.766-3.049v-7.808a1.173,1.173,0,1,1,2.345,0v7.808a1.187,1.187,0,0,0,.593,1.021l1.573.91a1.16,1.16,0,0,1,.428,1.6,1.132,1.132,0,0,1-1.007.579Z" transform="translate(-114.682 -158.551)" fill="#226db4"/>
      <path id="Path_8193" data-name="Path 8193" d="M143.873,180.6a1.173,1.173,0,0,1-.579-2.193l1.586-.91a1.182,1.182,0,0,0,.593-1.021v-7.808a1.173,1.173,0,0,1,2.345,0v7.808a3.534,3.534,0,0,1-1.766,3.049l-1.586.91A1.169,1.169,0,0,1,143.873,180.6Z" transform="translate(-132.009 -158.551)" fill="#226db4"/>
      <path id="Path_8194" data-name="Path 8194" d="M77.172,109.174a1.307,1.307,0,0,1-.593-.152l-6.745-3.9a1.185,1.185,0,0,0-1.173,0l-1.573.91A1.171,1.171,0,1,1,65.915,104l1.573-.91a3.555,3.555,0,0,1,3.518,0l6.745,3.9a1.16,1.16,0,0,1,.428,1.6,1.177,1.177,0,0,1-1.007.579Z" transform="translate(-65.309 -102.625)" fill="#226db4"/>
    </g>
  </g>
</svg>
