<svg id="recruit-dark" xmlns="http://www.w3.org/2000/svg" width="116" height="40" viewBox="0 0 116 40">
  <g id="Group_7882" data-name="Group 7882" transform="translate(42.485 4.566)">
    <g id="Group_7880" data-name="Group 7880" transform="translate(0 13.793)">
      <path id="Path_8211" data-name="Path 8211" d="M317.5,140.8h5.742c3.175,0,5.963,1.172,5.963,4.759a4.174,4.174,0,0,1-3.506,4.248l4.458,6.828h-3.313l-4.127-6.386h-2.139v6.386H317.5V140.8Zm5.659,7.338c1.767,0,3.064-.676,3.064-2.566,0-1.959-1.38-2.428-3.064-2.428h-2.581v4.993Z" transform="translate(-317.5 -140.152)"/>
      <path id="Path_8212" data-name="Path 8212" d="M422.739,179.124c-.966,2.041-3.05,2.745-5.176,2.745-3.658,0-5.963-2.441-5.963-6.055a5.723,5.723,0,0,1,5.839-6.014c3.754,0,5.576,2.193,5.576,6.662h-8.6a3.09,3.09,0,0,0,3.244,3.393,3.046,3.046,0,0,0,2.9-1.683Zm-2.5-4.483a2.683,2.683,0,0,0-2.788-2.828,2.987,2.987,0,0,0-3,2.828Z" transform="translate(-398.611 -165.152)"/>
      <path id="Path_8213" data-name="Path 8213" d="M516.036,178.279c-.773,2.428-2.94,3.49-5.356,3.49-3.685,0-5.88-2.469-5.88-6.055a5.78,5.78,0,0,1,5.949-6.014c2.346,0,4.375.979,5.231,3.255l-2.236.979a3.037,3.037,0,0,0-3-2.041c-2.264,0-3.092,1.959-3.092,3.945,0,2.041.9,3.807,3.147,3.807a3.149,3.149,0,0,0,3.147-2.331Z" transform="translate(-478.947 -165.066)"/>
      <path id="Path_8214" data-name="Path 8214" d="M602.1,170.566h2.774v2.179a3.927,3.927,0,0,1,3.81-2.345v2.566c-2.236,0-3.81.731-3.81,3.214v5.986H602.1Z" transform="translate(-562.817 -165.669)"/>
      <path id="Path_8215" data-name="Path 8215" d="M672.8,181.379a4.1,4.1,0,0,1-3.823,2.041c-2.664,0-4.072-1.752-4.072-4.386v-7.421h2.774v7.076c0,1.586.732,2.552,2.347,2.552a2.6,2.6,0,0,0,2.788-2.772V171.6h2.761v11.586h-2.761v-1.807Z" transform="translate(-616.949 -166.703)"/>
      <path id="Path_8216" data-name="Path 8216" d="M764.641,136.1a1.568,1.568,0,0,1,1.615,1.586,1.545,1.545,0,0,1-1.6,1.572A1.611,1.611,0,0,1,763,137.672,1.564,1.564,0,0,1,764.641,136.1Zm-1.408,4.924h2.774V152.6h-2.774Z" transform="translate(-701.507 -136.1)"/>
      <path id="Path_8217" data-name="Path 8217" d="M806.484,160.7a6.486,6.486,0,0,1-1.9.276c-2.208,0-3.52-1.145-3.52-3.448v-6.3H799.5v-2.041h1.56V146.8l2.774-1.2v3.6h2.554v2.041h-2.554V157.3c0,.91.387,1.476,1.408,1.476a4.072,4.072,0,0,0,1.242-.221Z" transform="translate(-732.97 -144.29)"/>
    </g>
    <g id="Group_7881" data-name="Group 7881" transform="translate(0.028)">
      <path id="Path_8218" data-name="Path 8218" d="M317.7,49.314l5.107-7.366h-4.583V40.5h6.97v.717l-4.969,7.366h4.831v1.448H317.7Z" transform="translate(-317.7 -39.893)"/>
      <path id="Path_8219" data-name="Path 8219" d="M379.306,58a3.579,3.579,0,0,1,3.754,3.628,3.836,3.836,0,0,1-7.661.041A3.715,3.715,0,0,1,379.306,58Zm1.96,3.628c0-1.283-.649-2.359-2.029-2.359-1.408,0-1.974,1.117-1.974,2.4a2.034,2.034,0,0,0,2.015,2.29C380.673,63.972,381.266,62.855,381.266,61.628Z" transform="translate(-367.436 -54.979)"/>
      <path id="Path_8220" data-name="Path 8220" d="M439.7,36.1h1.67v4.276a2.511,2.511,0,0,1,2.333-1.255,2.447,2.447,0,0,1,2.512,2.759v4.372h-1.684V42.045a1.373,1.373,0,0,0-1.491-1.559,1.534,1.534,0,0,0-1.67,1.655v4.1H439.7Z" transform="translate(-422.86 -36.1)"/>
      <path id="Path_8221" data-name="Path 8221" d="M498.706,58a3.579,3.579,0,0,1,3.754,3.628,3.836,3.836,0,0,1-7.661.041A3.715,3.715,0,0,1,498.706,58Zm1.96,3.628c0-1.283-.649-2.359-2.029-2.359-1.408,0-1.974,1.117-1.974,2.4a2.034,2.034,0,0,0,2.015,2.29C500.073,63.972,500.666,62.855,500.666,61.628Z" transform="translate(-470.355 -54.979)"/>
    </g>
  </g>
  <g id="Group_7885" data-name="Group 7885" transform="translate(0 0)">
    <g id="Group_7883" data-name="Group 7883" transform="translate(10.78 27.976)">
      <path id="Path_8222" data-name="Path 8222" d="M93.818,217.849a1.127,1.127,0,0,1-.828-.345l-4.845-4.841a1.165,1.165,0,0,1,0-1.655l4.845-4.841a1.175,1.175,0,0,1,1.656,0l4.845,4.841a1.165,1.165,0,0,1,0,1.655L94.646,217.5A1.127,1.127,0,0,1,93.818,217.849Zm-3.188-6.014,3.188,3.186,3.188-3.186-3.188-3.186Z" transform="translate(-87.8 -205.825)" fill="#e32327"/>
    </g>
    <g id="Group_7884" data-name="Group 7884">
      <path id="Path_8223" data-name="Path 8223" d="M36.036,33.5a1.127,1.127,0,0,1-.828-.345l-4.831-4.828a1.165,1.165,0,0,1,0-1.655l1.5-1.49a7.588,7.588,0,0,0,0-10.731l-.014-.014a7.6,7.6,0,0,0-10.725,0h0a7.553,7.553,0,0,0-2.153,4.3,7.7,7.7,0,0,0,.814,4.634,1.173,1.173,0,0,1-2.07,1.1,10.049,10.049,0,0,1-1.077-6.069,9.765,9.765,0,0,1,2.816-5.628h0a9.935,9.935,0,0,1,14.051,0l.014.014a9.918,9.918,0,0,1,0,14.041l-.663.662,3.175,3.172.676-.676A14.445,14.445,0,0,0,16.284,9.579a14.445,14.445,0,0,0,0,20.414l.676.676,4-4a1.171,1.171,0,1,1,1.656,1.655l-4.831,4.828a1.175,1.175,0,0,1-1.656,0l-1.518-1.5A16.6,16.6,0,0,1,10.928,26.1a16.857,16.857,0,0,1,0-12.634A16.809,16.809,0,0,1,26.5,3,16.8,16.8,0,0,1,32.82,4.228,16.813,16.813,0,0,1,42.054,26.1a16.6,16.6,0,0,1-3.685,5.545L36.85,33.166A1.224,1.224,0,0,1,36.036,33.5Z" transform="translate(-9.7 -3)" fill="#e32327"/>
    </g>
  </g>
</svg>
