<svg xmlns="http://www.w3.org/2000/svg" width="150" height="40" viewBox="0 0 150 40">
  <g id="projects" transform="translate(-5.5 -30.208)">
    <g id="text" transform="translate(60.767 31.132)">
      <path id="Path_8095" data-name="Path 8095" d="M357.59,140.79h6.267c3.793,0,6.764,1.522,6.764,5.66,0,4.556-3.61,5.537-7.465,5.537H361.09v6.777h-3.5Zm6.246,8.692c2.155,0,3.369-.884,3.369-3.057s-1.324-3-3.369-3H361.09v6.053Z" transform="translate(-357.59 -124.415)"/>
      <path id="Path_8096" data-name="Path 8096" d="M455.45,170.567H458.6v2.467a4.456,4.456,0,0,1,4.332-2.664v2.91c-2.548,0-4.332.835-4.332,3.647v6.79H455.45Z" transform="translate(-440.087 -149.367)"/>
      <path id="Path_8097" data-name="Path 8097" d="M515.327,169.83a6.743,6.743,0,0,1,7.083,6.826,6.893,6.893,0,0,1-7.219,6.851c-3.981,0-7.24-2.775-7.24-6.79S511.361,169.83,515.327,169.83Zm3.693,6.851c0-2.419-1.229-4.432-3.813-4.432s-3.725,2.112-3.725,4.518,1.245,4.321,3.8,4.321S519.02,178.976,519.02,176.681Z" transform="translate(-484.347 -148.912)"/>
      <path id="Path_8098" data-name="Path 8098" d="M602.51,157.123c1.182-.061,1.862-.6,1.862-1.829V141.667h3.16v13.554c0,3.29-2.019,4.3-5.022,4.3Zm3.421-21.043a1.787,1.787,0,1,1,0,3.573,1.789,1.789,0,1,1,0-3.573Z" transform="translate(-564.066 -120.442)"/>
      <path id="Path_8099" data-name="Path 8099" d="M663.28,180.4c-1.1,2.32-3.453,3.107-5.88,3.107-4.164,0-6.79-2.775-6.79-6.863a6.5,6.5,0,0,1,6.644-6.813c4.259,0,6.341,2.48,6.341,7.55h-9.773a3.513,3.513,0,0,0,3.7,3.842,3.463,3.463,0,0,0,3.3-1.915Zm-2.825-5.083a3.052,3.052,0,0,0-3.17-3.2,3.39,3.39,0,0,0-3.411,3.2Z" transform="translate(-604.612 -148.912)"/>
      <path id="Path_8100" data-name="Path 8100" d="M755.685,179.54c-.879,2.75-3.348,3.966-6.1,3.966-4.185,0-6.7-2.8-6.7-6.863a6.48,6.48,0,0,1,6.769-6.813c2.668,0,4.98,1.117,5.954,3.7l-2.564,1.117a3.442,3.442,0,0,0-3.39-2.32c-2.573,0-3.526,2.223-3.526,4.481s1.025,4.321,3.567,4.321a3.565,3.565,0,0,0,3.578-2.639Z" transform="translate(-682.408 -148.912)"/>
      <path id="Path_8101" data-name="Path 8101" d="M839.2,162.714a7.632,7.632,0,0,1-2.166.319c-2.511,0-4.007-1.3-4.007-3.916v-7.145h-1.768v-2.308h1.768v-2.713l3.149-1.363v4.075H839.1v2.308h-2.919v6.863c0,1.031.45,1.669,1.611,1.669a4.621,4.621,0,0,0,1.412-.258Z" transform="translate(-756.909 -128.464)"/>
      <path id="Path_8102" data-name="Path 8102" d="M893.487,179.336a3.287,3.287,0,0,0,3.254,1.9c1.025,0,2.3-.319,2.3-1.56,0-1.314-1.423-1.621-3.055-1.965-2.114-.441-4.5-.957-4.5-3.9,0-2.7,2.532-3.989,4.918-3.989,2.093,0,4.489.785,5.347,2.861l-2.344,1.006a3.055,3.055,0,0,0-2.888-1.608c-1.088,0-2.061.418-2.061,1.485,0,1.2,1.287,1.461,2.877,1.768,2.155.418,4.719.909,4.719,3.978s-2.605,4.186-5.347,4.186c-2.323,0-4.823-.785-5.65-3.143l2.427-1.018Z" transform="translate(-807.323 -148.903)"/>
      <path id="Path_8103" data-name="Path 8103" d="M357.63,50.476l5.807-8.357h-5.221V40.47h7.947v.821l-5.655,8.357h5.5V51.3H357.63Z" transform="translate(-357.625 -39.789)"/>
      <path id="Path_8104" data-name="Path 8104" d="M419.692,57.96a4.062,4.062,0,0,1,4.269,4.111,4.363,4.363,0,0,1-8.711.038,4.262,4.262,0,0,1,4.442-4.149Zm2.229,4.127c0-1.456-.743-2.669-2.3-2.669s-2.239,1.272-2.239,2.721.748,2.6,2.286,2.6S421.92,63.47,421.92,62.087Z" transform="translate(-406.2 -54.543)"/>
      <path id="Path_8105" data-name="Path 8105" d="M479.01,36.12h1.9v4.844a2.87,2.87,0,0,1,2.658-1.427c1.9,0,2.851,1.331,2.851,3.135v4.955H484.5v-4.77a1.553,1.553,0,0,0-1.7-1.76,1.739,1.739,0,0,0-1.894,1.879v4.651h-1.9Z" transform="translate(-459.953 -36.12)"/>
      <path id="Path_8106" data-name="Path 8106" d="M537.921,57.96a4.058,4.058,0,0,1,4.264,4.111,4.36,4.36,0,0,1-8.7.038,4.259,4.259,0,0,1,4.441-4.149Zm2.223,4.127c0-1.456-.743-2.669-2.3-2.669S535.6,60.69,535.6,62.139s.753,2.6,2.291,2.6S540.144,63.47,540.144,62.087Z" transform="translate(-505.867 -54.543)"/>
    </g>
    <g id="logo" transform="translate(5.5 30.207)">
      <path id="Path_8107" data-name="Path 8107" d="M64.661,205.628a1.332,1.332,0,0,1-.943-.39l-8.527-8.5a1.332,1.332,0,1,1,1.887-1.88l8.525,8.5a1.33,1.33,0,0,1-.943,2.27Z" transform="translate(-47.061 -168.772)" fill="#ffae00"/>
      <path id="Path_8108" data-name="Path 8108" d="M64.676,107.022a1.337,1.337,0,0,1-.942-.388L55.2,98.146a1.332,1.332,0,0,1,1.885-1.882l8.538,8.489a1.331,1.331,0,0,1-.944,2.272Z" transform="translate(-47.066 -85.602)" fill="#ffae00"/>
      <path id="Path_8109" data-name="Path 8109" d="M64.754,156.42a1.335,1.335,0,0,1-.944-.39L55.3,147.55a1.332,1.332,0,0,1,1.887-1.88l8.51,8.481a1.33,1.33,0,0,1-.944,2.27Z" transform="translate(-47.154 -127.278)" fill="#ffae00"/>
      <path id="Path_8110" data-name="Path 8110" d="M173.785,98.66a1.33,1.33,0,0,1-.944-2.27L189.487,79.8a1.336,1.336,0,0,1,1.886,0,1.323,1.323,0,0,1,0,1.88L174.729,98.271A1.334,1.334,0,0,1,173.785,98.66Z" transform="translate(-146.244 -71.713)" fill="#006eb9"/>
      <path id="Path_8111" data-name="Path 8111" d="M173.795,49.441a1.33,1.33,0,0,1-.944-2.27l11.834-11.794L182.7,33.4l-7.962,7.936a1.336,1.336,0,0,1-1.886,0,1.323,1.323,0,0,1,0-1.88l8.9-8.875a1.378,1.378,0,0,1,1.888,0l3.869,3.856a1.327,1.327,0,0,1,0,1.88L174.736,49.053a1.332,1.332,0,0,1-.942.39Z" transform="translate(-146.252 -30.207)" fill="#006eb9"/>
      <path id="Path_8112" data-name="Path 8112" d="M110.525,99.409a1.33,1.33,0,0,1-.944-2.27l9.935-9.9a1.332,1.332,0,1,1,1.886,1.88l-9.933,9.9A1.329,1.329,0,0,1,110.525,99.409Z" transform="translate(-92.914 -77.989)" fill="#009c3e"/>
      <path id="Path_8113" data-name="Path 8113" d="M110.453,148.719a1.33,1.33,0,0,1-.943-2.27l9.941-9.909a1.332,1.332,0,0,1,1.887,1.88l-9.941,9.909A1.336,1.336,0,0,1,110.453,148.719Z" transform="translate(-92.855 -119.576)" fill="#009c3e"/>
      <path id="Path_8114" data-name="Path 8114" d="M110.453,198.027a1.33,1.33,0,0,1-.943-2.27l9.94-9.908a1.332,1.332,0,1,1,1.887,1.88l-9.94,9.908A1.336,1.336,0,0,1,110.453,198.027Z" transform="translate(-92.855 -161.172)" fill="#009c3e"/>
      <path id="Path_8115" data-name="Path 8115" d="M14.573,113.955a1.334,1.334,0,0,1-.943-.39l-7.739-7.713a1.326,1.326,0,0,1,0-1.88l7.739-7.713a1.332,1.332,0,0,1,1.887,1.88l-6.8,6.772,6.8,6.772a1.33,1.33,0,0,1-.943,2.27Z" transform="translate(-5.5 -85.597)" fill="#f70011"/>
    </g>
  </g>
</svg>
