<svg xmlns="http://www.w3.org/2000/svg" width="174" height="40" viewBox="0 0 174 40">
  <g id="campaigns" transform="translate(-7.465 -9.594)">
    <g id="Group_7704" data-name="Group 7704" transform="translate(57.564 13.425)">
      <g id="Group_7701" data-name="Group 7701" transform="translate(0 14.442)">
        <path id="Path_8057" data-name="Path 8057" d="M371.593,151.414a6.442,6.442,0,0,1-1.1,2.074,6.964,6.964,0,0,1-1.668,1.5,7.454,7.454,0,0,1-2.075.913,8.84,8.84,0,0,1-2.323.306,9.494,9.494,0,0,1-3.534-.612,7.063,7.063,0,0,1-2.588-1.735,7.393,7.393,0,0,1-1.589-2.714,10.96,10.96,0,0,1-.542-3.542,9.209,9.209,0,0,1,.592-3.332,8.13,8.13,0,0,1,1.662-2.681A7.681,7.681,0,0,1,361,139.8a8.289,8.289,0,0,1,3.332-.651,8.861,8.861,0,0,1,2.25.283,7.529,7.529,0,0,1,2,.845,6.971,6.971,0,0,1,1.652,1.4,7.123,7.123,0,0,1,1.19,1.95l-2.638,1.122a5.1,5.1,0,0,0-.688-1.252,4.683,4.683,0,0,0-.987-.981,4.511,4.511,0,0,0-1.228-.634,4.376,4.376,0,0,0-1.415-.227,4.588,4.588,0,0,0-2.244.516,4.491,4.491,0,0,0-1.533,1.367,5.919,5.919,0,0,0-.879,1.944,8.92,8.92,0,0,0-.282,2.239,8.394,8.394,0,0,0,.3,2.272,5.5,5.5,0,0,0,.919,1.882,4.474,4.474,0,0,0,1.567,1.287,4.905,4.905,0,0,0,2.233.475,4.7,4.7,0,0,0,1.516-.238,4.385,4.385,0,0,0,1.274-.675,4.708,4.708,0,0,0,1-1.049,6.12,6.12,0,0,0,.71-1.361Z" transform="translate(-356.17 -138.709)"/>
        <path id="Path_8058" data-name="Path 8058" d="M480.953,180.763a3.9,3.9,0,0,1-1.652,1.314,5.447,5.447,0,0,1-2.092.4,5.664,5.664,0,0,1-1.585-.215,3.63,3.63,0,0,1-1.286-.657,3.113,3.113,0,0,1-.862-1.105,3.583,3.583,0,0,1-.316-1.559,3.547,3.547,0,0,1,.276-1.456,3.162,3.162,0,0,1,.744-1.049,3.87,3.87,0,0,1,1.1-.7,7.148,7.148,0,0,1,1.336-.425,10.5,10.5,0,0,1,1.448-.209q.744-.056,1.443-.056h1.421v-.192a6.511,6.511,0,0,0-.1-1.173,2.246,2.246,0,0,0-.355-.9,1.649,1.649,0,0,0-.715-.566,3.345,3.345,0,0,0-2.807.25,2.538,2.538,0,0,0-1.066,1.287l-2.244-.975a3.826,3.826,0,0,1,.856-1.361,4.79,4.79,0,0,1,1.251-.907,5.667,5.667,0,0,1,1.5-.5,8.524,8.524,0,0,1,1.612-.153,6.984,6.984,0,0,1,1.973.266,4.373,4.373,0,0,1,1.562.81,3.653,3.653,0,0,1,1.026,1.388,4.994,4.994,0,0,1,.366,2v7.935h-2.836Zm-1.477-3.945q-.5,0-1.1.051a4.02,4.02,0,0,0-1.128.256,2.211,2.211,0,0,0-.874.6,1.589,1.589,0,0,0-.349,1.088,1.688,1.688,0,0,0,.147.742,1.3,1.3,0,0,0,.411.493,1.712,1.712,0,0,0,.615.277,3.205,3.205,0,0,0,.756.085,4.021,4.021,0,0,0,1.082-.147,3.1,3.1,0,0,0,.953-.442,2.273,2.273,0,0,0,.682-.754,2.148,2.148,0,0,0,.26-1.072v-1.179h-1.455Z" transform="translate(-456.352 -164.975)"/>
        <path id="Path_8059" data-name="Path 8059" d="M568.36,170.091h2.886v1.859a3.671,3.671,0,0,1,.671-.919,3.913,3.913,0,0,1,.891-.663,4.364,4.364,0,0,1,1.049-.4A4.792,4.792,0,0,1,575,169.83a4.865,4.865,0,0,1,1.1.124,3.743,3.743,0,0,1,1,.391,3.269,3.269,0,0,1,.829.675,3.107,3.107,0,0,1,.575.975,4.6,4.6,0,0,1,1.8-1.6,5.3,5.3,0,0,1,2.412-.56,4.194,4.194,0,0,1,1.8.363,3.564,3.564,0,0,1,1.274.992,4.178,4.178,0,0,1,.756,1.491,6.741,6.741,0,0,1,.249,1.871v7.685h-2.875v-7.5a2.751,2.751,0,0,0-.569-1.824,2.13,2.13,0,0,0-1.731-.68,2.785,2.785,0,0,0-1.116.209,2.321,2.321,0,0,0-.812.572,2.415,2.415,0,0,0-.5.867,3.4,3.4,0,0,0-.17,1.093v7.266h-2.886v-7.5a2.73,2.73,0,0,0-.575-1.824,2.147,2.147,0,0,0-1.736-.68,2.753,2.753,0,0,0-1.1.209,2.313,2.313,0,0,0-1.319,1.439,3.439,3.439,0,0,0-.169,1.093v7.266h-2.886V170.091Z" transform="translate(-537.874 -164.958)"/>
        <path id="Path_8060" data-name="Path 8060" d="M717.921,170.1h2.886v1.962a4.045,4.045,0,0,1,.773-.946,4.766,4.766,0,0,1,1-.7,5.15,5.15,0,0,1,1.149-.43,5.091,5.091,0,0,1,1.213-.147,5.31,5.31,0,0,1,2.412.516,4.91,4.91,0,0,1,1.7,1.388,6.076,6.076,0,0,1,1.014,2.006,8.6,8.6,0,0,1-.011,4.812,6.1,6.1,0,0,1-1.032,2.018,4.971,4.971,0,0,1-1.691,1.377,5.076,5.076,0,0,1-2.317.51,6.161,6.161,0,0,1-1.257-.13,5.327,5.327,0,0,1-1.184-.391,4.213,4.213,0,0,1-1.014-.663,3.608,3.608,0,0,1-.762-.946V186.4H717.92V170.1Zm6.224,10.1a3.377,3.377,0,0,0,1.589-.334,2.7,2.7,0,0,0,1.009-.9,3.77,3.77,0,0,0,.536-1.314,7.686,7.686,0,0,0,.158-1.587,5.581,5.581,0,0,0-.2-1.485,3.764,3.764,0,0,0-.609-1.264,3.012,3.012,0,0,0-1.049-.878,3.29,3.29,0,0,0-1.527-.329,3.233,3.233,0,0,0-1.527.335,2.954,2.954,0,0,0-1.043.9,3.753,3.753,0,0,0-.592,1.309,6.479,6.479,0,0,0-.185,1.564,6.029,6.029,0,0,0,.2,1.576,3.5,3.5,0,0,0,.621,1.264,2.938,2.938,0,0,0,1.07.845A3.6,3.6,0,0,0,724.145,180.2Z" transform="translate(-665.947 -164.966)"/>
        <path id="Path_8061" data-name="Path 8061" d="M823.093,180.763a3.9,3.9,0,0,1-1.652,1.314,5.447,5.447,0,0,1-2.092.4,5.664,5.664,0,0,1-1.585-.215,3.63,3.63,0,0,1-1.286-.657,3.112,3.112,0,0,1-.862-1.105,3.582,3.582,0,0,1-.316-1.559,3.546,3.546,0,0,1,.276-1.456,3.161,3.161,0,0,1,.744-1.049,3.87,3.87,0,0,1,1.1-.7,7.148,7.148,0,0,1,1.336-.425,10.5,10.5,0,0,1,1.448-.209q.744-.056,1.443-.056h1.421v-.192a6.508,6.508,0,0,0-.1-1.173,2.246,2.246,0,0,0-.355-.9,1.648,1.648,0,0,0-.715-.566,3.345,3.345,0,0,0-2.807.25,2.538,2.538,0,0,0-1.066,1.287l-2.244-.975a3.827,3.827,0,0,1,.856-1.361,4.791,4.791,0,0,1,1.251-.907,5.667,5.667,0,0,1,1.5-.5A8.523,8.523,0,0,1,821,169.85a6.987,6.987,0,0,1,1.973.266,4.373,4.373,0,0,1,1.562.81,3.654,3.654,0,0,1,1.026,1.388,5,5,0,0,1,.366,2v7.935h-2.842v-1.486Zm-1.477-3.945q-.5,0-1.1.051a4.019,4.019,0,0,0-1.128.256,2.21,2.21,0,0,0-.874.6,1.589,1.589,0,0,0-.349,1.088,1.688,1.688,0,0,0,.146.742,1.3,1.3,0,0,0,.411.493,1.712,1.712,0,0,0,.615.277,3.2,3.2,0,0,0,.756.085,4.022,4.022,0,0,0,1.082-.147,3.1,3.1,0,0,0,.953-.442,2.272,2.272,0,0,0,.682-.754,2.147,2.147,0,0,0,.26-1.072v-1.179h-1.456Z" transform="translate(-749.336 -164.975)"/>
        <path id="Path_8062" data-name="Path 8062" d="M909.24,137.742a1.584,1.584,0,0,1,.507-1.184,1.672,1.672,0,0,1,.547-.339,1.822,1.822,0,0,1,.659-.118,1.7,1.7,0,0,1,1.19.469,1.575,1.575,0,0,1,.361.521,1.751,1.751,0,0,1,0,1.32,1.551,1.551,0,0,1-.874.861,1.727,1.727,0,0,1-.665.124,1.808,1.808,0,0,1-.665-.124,1.757,1.757,0,0,1-.553-.345,1.6,1.6,0,0,1-.372-.527A1.629,1.629,0,0,1,909.24,137.742Zm.26,3.513h2.886v12.118H909.5Z" transform="translate(-829.78 -136.1)"/>
        <path id="Path_8063" data-name="Path 8063" d="M950.9,182.755a2.559,2.559,0,0,0,.586.845,2.944,2.944,0,0,0,.806.533,3.9,3.9,0,0,0,.941.283,5.964,5.964,0,0,0,1,.085,3.747,3.747,0,0,0,2.526-.787,3.054,3.054,0,0,0,.914-2.443v-1.814a4.256,4.256,0,0,1-.75.946,4.776,4.776,0,0,1-.976.719,4.9,4.9,0,0,1-1.122.454,4.632,4.632,0,0,1-1.2.159,5.317,5.317,0,0,1-2.289-.471,5.011,5.011,0,0,1-1.7-1.275,5.586,5.586,0,0,1-1.054-1.865,7.216,7.216,0,0,1,.023-4.575,5.938,5.938,0,0,1,1.093-1.927,5.231,5.231,0,0,1,1.726-1.314,5.432,5.432,0,0,1,4.549.022,3.932,3.932,0,0,1,1.7,1.609V170.08h2.9v11.234a5.558,5.558,0,0,1-.5,2.448,4.5,4.5,0,0,1-1.359,1.667,5.709,5.709,0,0,1-2.019.946,9.738,9.738,0,0,1-2.464.3,10.591,10.591,0,0,1-1.691-.136,6.35,6.35,0,0,1-1.595-.471,4.994,4.994,0,0,1-1.359-.9,3.983,3.983,0,0,1-.97-1.423Zm3.484-3.253a3.5,3.5,0,0,0,1.483-.295,3.038,3.038,0,0,0,1.066-.8,3.4,3.4,0,0,0,.642-1.2,5.013,5.013,0,0,0,.214-1.485,4.83,4.83,0,0,0-.208-1.45,3.335,3.335,0,0,0-.621-1.161,2.829,2.829,0,0,0-1.031-.771,3.509,3.509,0,0,0-1.443-.277,3.281,3.281,0,0,0-1.489.312,2.869,2.869,0,0,0-1.02.839,3.55,3.55,0,0,0-.592,1.229,5.665,5.665,0,0,0-.191,1.5,4.315,4.315,0,0,0,.214,1.361,3.432,3.432,0,0,0,.626,1.14,3.024,3.024,0,0,0,1,.783A3.073,3.073,0,0,0,954.388,179.5Z" transform="translate(-863.168 -164.949)"/>
        <path id="Path_8064" data-name="Path 8064" d="M1056.22,170.091h2.886v1.927a3.51,3.51,0,0,1,.733-.975,4.357,4.357,0,0,1,.97-.68,4.606,4.606,0,0,1,1.14-.4,5.912,5.912,0,0,1,1.24-.13,4.5,4.5,0,0,1,1.878.363,3.521,3.521,0,0,1,1.313,1.008,4.243,4.243,0,0,1,.767,1.524,7.019,7.019,0,0,1,.248,1.91v7.6h-2.931v-7.311a3.035,3.035,0,0,0-.586-1.989,2.307,2.307,0,0,0-1.882-.708,2.822,2.822,0,0,0-2.125.783,2.88,2.88,0,0,0-.761,2.1v7.13h-2.886V170.091Z" transform="translate(-955.643 -164.958)"/>
        <path id="Path_8065" data-name="Path 8065" d="M1150.714,178.632a2.435,2.435,0,0,0,.474.777,2.672,2.672,0,0,0,.7.55,3.4,3.4,0,0,0,.862.324,4.205,4.205,0,0,0,.953.108,4.335,4.335,0,0,0,.721-.062,2.162,2.162,0,0,0,.677-.227,1.453,1.453,0,0,0,.5-.442,1.362,1.362,0,0,0-.029-1.456,1.755,1.755,0,0,0-.615-.493,4.4,4.4,0,0,0-.891-.329q-.5-.13-1.066-.244-.722-.158-1.46-.357a4.649,4.649,0,0,1-1.325-.578,2.988,2.988,0,0,1-.958-1.014,3.712,3.712,0,0,1,.023-3.288,3.545,3.545,0,0,1,1.031-1.145,4.648,4.648,0,0,1,1.443-.68,5.968,5.968,0,0,1,1.629-.227,7.861,7.861,0,0,1,1.466.142,5.616,5.616,0,0,1,1.4.459,4.7,4.7,0,0,1,1.2.822,3.456,3.456,0,0,1,.829,1.219l-2.142.929a2.133,2.133,0,0,0-.474-.686,2.758,2.758,0,0,0-.654-.459,2.929,2.929,0,0,0-.756-.26,3.844,3.844,0,0,0-.767-.079,3.287,3.287,0,0,0-.7.074,1.9,1.9,0,0,0-.6.238,1.267,1.267,0,0,0-.422.425,1.206,1.206,0,0,0-.158.634,1.077,1.077,0,0,0,.208.686,1.609,1.609,0,0,0,.563.442,3.889,3.889,0,0,0,.84.289q.485.113,1.026.215.743.147,1.51.339a4.914,4.914,0,0,1,1.392.578,3.057,3.057,0,0,1,1.02,1.037,3.289,3.289,0,0,1,.4,1.717,3.7,3.7,0,0,1-.411,1.808,3.374,3.374,0,0,1-1.093,1.2,4.73,4.73,0,0,1-1.562.657,8.07,8.07,0,0,1-1.826.2,8.822,8.822,0,0,1-1.6-.147,5.836,5.836,0,0,1-1.5-.487,4.524,4.524,0,0,1-1.246-.9,3.588,3.588,0,0,1-.829-1.372Z" transform="translate(-1034.656 -164.975)"/>
      </g>
      <g id="Group_7703" data-name="Group 7703" transform="translate(0.869)">
        <g id="Group_7702" data-name="Group 7702">
          <path id="Path_8066" data-name="Path 8066" d="M362.22,49.709l5.312-7.716h-4.774V40.47h7.274v.758l-5.182,7.716h5.033v1.522h-7.661v-.758Z" transform="translate(-362.22 -39.842)"/>
          <path id="Path_8067" data-name="Path 8067" d="M419.94,61.791a3.661,3.661,0,0,1,.329-1.567,3.725,3.725,0,0,1,.886-1.209,4.012,4.012,0,0,1,1.293-.779,4.39,4.39,0,0,1,1.559-.276,4.249,4.249,0,0,1,1.542.276,3.739,3.739,0,0,1,1.24.779,3.559,3.559,0,0,1,.825,1.2,4.1,4.1,0,0,1-.013,3.1,3.612,3.612,0,0,1-.852,1.2,3.831,3.831,0,0,1-1.267.771,4.536,4.536,0,0,1-3.108,0,3.863,3.863,0,0,1-1.27-.776,3.624,3.624,0,0,1-.852-1.192A3.688,3.688,0,0,1,419.94,61.791Zm4.04,2.43a1.978,1.978,0,0,0,.934-.205,1.885,1.885,0,0,0,.642-.543,2.27,2.27,0,0,0,.371-.781,3.561,3.561,0,0,0,.119-.922,3.407,3.407,0,0,0-.129-.952,2.34,2.34,0,0,0-.391-.786,1.851,1.851,0,0,0-.655-.533,2.078,2.078,0,0,0-.931-.195,2,2,0,0,0-.941.205,1.769,1.769,0,0,0-.635.55,2.381,2.381,0,0,0-.359.8,3.857,3.857,0,0,0-.115.959,3.225,3.225,0,0,0,.129.922,2.209,2.209,0,0,0,.391.764,1.922,1.922,0,0,0,.652.523A2.007,2.007,0,0,0,423.98,64.22Z" transform="translate(-411.647 -54.805)"/>
          <path id="Path_8068" data-name="Path 8068" d="M484.263,36.12H486v4.472a2.183,2.183,0,0,1,.438-.591,2.406,2.406,0,0,1,.578-.41,2.768,2.768,0,0,1,.68-.238,3.509,3.509,0,0,1,.737-.078,2.769,2.769,0,0,1,1.141.218,2.247,2.247,0,0,1,.815.6,2.561,2.561,0,0,1,.489.914,3.9,3.9,0,0,1,.162,1.157v4.575h-1.753v-4.4a1.681,1.681,0,0,0-.4-1.209,1.528,1.528,0,0,0-1.158-.416,1.675,1.675,0,0,0-1.287.475A1.767,1.767,0,0,0,486,42.45v4.294H484.26V36.12Z" transform="translate(-466.726 -36.12)"/>
          <path id="Path_8069" data-name="Path 8069" d="M539.3,61.791a3.662,3.662,0,0,1,.329-1.567,3.728,3.728,0,0,1,.886-1.209,4.013,4.013,0,0,1,1.293-.779,4.391,4.391,0,0,1,1.559-.276,4.248,4.248,0,0,1,1.542.276,3.738,3.738,0,0,1,1.24.779,3.557,3.557,0,0,1,.825,1.2,4.1,4.1,0,0,1-.013,3.1,3.612,3.612,0,0,1-.852,1.2,3.83,3.83,0,0,1-1.267.771,4.536,4.536,0,0,1-3.108,0,3.863,3.863,0,0,1-1.27-.776,3.621,3.621,0,0,1-.852-1.192A3.688,3.688,0,0,1,539.3,61.791Zm4.042,2.43a1.977,1.977,0,0,0,.934-.205,1.885,1.885,0,0,0,.642-.543,2.269,2.269,0,0,0,.371-.781,3.561,3.561,0,0,0,.119-.922,3.4,3.4,0,0,0-.129-.952,2.339,2.339,0,0,0-.391-.786,1.851,1.851,0,0,0-.655-.533,2.078,2.078,0,0,0-.931-.195,2,2,0,0,0-.941.205,1.77,1.77,0,0,0-.635.55,2.379,2.379,0,0,0-.359.8,3.855,3.855,0,0,0-.115.959,3.227,3.227,0,0,0,.129.922,2.211,2.211,0,0,0,.391.764,1.923,1.923,0,0,0,.652.523A2,2,0,0,0,543.341,64.22Z" transform="translate(-513.859 -54.805)"/>
        </g>
      </g>
    </g>
    <g id="Group_7709" data-name="Group 7709" transform="translate(7.465 9.593)">
      <g id="Group_7705" data-name="Group 7705" transform="translate(0 0)">
        <path id="Path_8070" data-name="Path 8070" d="M49.074,35.8,45.008,12.641a3.661,3.661,0,0,0-6.682-1.374,1.231,1.231,0,0,0,.356,1.7,1.217,1.217,0,0,0,1.691-.358,1.22,1.22,0,0,1,2.227.458l4.064,23.161a1.221,1.221,0,0,1-.267,1,1.2,1.2,0,0,1-.937.439H21.835a1.229,1.229,0,0,0,0,2.459h3.148l-2.225,6.182a1.225,1.225,0,0,1-1.149.81h-.994a1.224,1.224,0,0,1-1.2-1.014l-4.273-24.22,18.962-9a1.231,1.231,0,0,0,.583-1.635,1.219,1.219,0,0,0-1.626-.586L9.566,21.816A3.7,3.7,0,0,0,7.52,25.79L9.5,37.089a3.666,3.666,0,0,0,3.61,3.046h2.763L17,46.538a3.668,3.668,0,0,0,3.61,3.042h.994a3.68,3.68,0,0,0,3.448-2.431l2.527-7.019h17.88a3.648,3.648,0,0,0,2.809-1.317A3.7,3.7,0,0,0,49.074,35.8ZM13.112,37.676a1.223,1.223,0,0,1-1.2-1.015l-1.981-11.3a1.233,1.233,0,0,1,.682-1.325l2.237-1.062,2.595,14.7Z" transform="translate(-7.465 -9.593)" fill="#e42527"/>
      </g>
      <g id="Group_7708" data-name="Group 7708" transform="translate(12.254 1.115)">
        <g id="Group_7706" data-name="Group 7706">
          <path id="Path_8071" data-name="Path 8071" d="M100.706,35.733a3.649,3.649,0,0,1-1.645-.393L93.432,32.5a1.233,1.233,0,0,1-.545-1.65,1.22,1.22,0,0,1,1.641-.547l5.629,2.841a1.219,1.219,0,0,0,1.572-.426l9.636-14.849a1.218,1.218,0,0,1,1.691-.358,1.233,1.233,0,0,1,.356,1.7l-9.635,14.848A3.653,3.653,0,0,1,100.706,35.733Z" transform="translate(-92.758 -17.31)" fill="#226db4"/>
        </g>
        <g id="Group_7707" data-name="Group 7707">
          <path id="Path_8072" data-name="Path 8072" d="M100.706,35.733a3.649,3.649,0,0,1-1.645-.393L93.432,32.5a1.233,1.233,0,0,1-.545-1.65,1.22,1.22,0,0,1,1.641-.547l5.629,2.841a1.219,1.219,0,0,0,1.572-.426l9.636-14.849a1.218,1.218,0,0,1,1.691-.358,1.233,1.233,0,0,1,.356,1.7l-9.635,14.848A3.653,3.653,0,0,1,100.706,35.733Z" transform="translate(-92.758 -17.31)" fill="#226db4"/>
        </g>
      </g>
    </g>
  </g>
</svg>
