<svg id="Group_7928" data-name="Group 7928" xmlns="http://www.w3.org/2000/svg" xmlns:xlink="http://www.w3.org/1999/xlink" width="158" height="40" viewBox="0 0 158 40">
  <defs>
    <clipPath id="clip-path">
      <rect id="Rectangle_3563" data-name="Rectangle 3563" width="44.19" height="39.15" fill="none"/>
    </clipPath>
  </defs>
  <g id="Group_7847" data-name="Group 7847">
    <g id="Group_7846" data-name="Group 7846" clip-path="url(#clip-path)">
      <path id="Path_8140" data-name="Path 8140" d="M43.668,33.308,35.328,18.931l5.788-9.963.528,1.988a1.294,1.294,0,0,0,1.252.961,1.245,1.245,0,0,0,.333-.043,1.3,1.3,0,0,0,.92-1.579L42.817,5.274a1.259,1.259,0,0,0-.341-.587l-.044-.044a1.242,1.242,0,0,0-.328-.21h-.011l-.049-.02-.022-.022h-.033l-.062-.019-.062-.009c-.041-.013-.051-.013-.062-.01H41.36a.077.077,0,0,0-.038.01H41.3a.4.4,0,0,0-.065.017L36.223,5.71a1.3,1.3,0,1,0,.666,2.509l1.988-.529-5.04,8.684L25.469,1.941a3.884,3.884,0,0,0-6.726,0L.522,33.308A3.894,3.894,0,0,0,3.89,39.15H8.517a1.3,1.3,0,1,0,0-2.594H3.89A1.295,1.295,0,0,1,2.77,34.609L20.973,3.22a1.3,1.3,0,0,1,2.247,0l9.115,15.713-4.378,7.544-3.617-6.243a2.6,2.6,0,0,0-4.487,0L12.274,33.308a3.894,3.894,0,0,0,3.367,5.842H40.3a3.893,3.893,0,0,0,3.366-5.842m-2.244,2.6a1.274,1.274,0,0,1-1.122.649H15.635a1.295,1.295,0,0,1-1.118-1.945L22.1,21.536l3.617,6.24a2.59,2.59,0,0,0,4.486,0l3.631-6.257,7.593,13.093a1.27,1.27,0,0,1,0,1.3Z" transform="translate(0 0)" fill="#d90c1d"/>
    </g>
  </g>
  <path id="Path_8146" data-name="Path 8146" d="M.609-22.528,6.1-30.459H1.163v-1.565H8.68v.779L3.325-23.314h5.2v1.565H.609Zm8.57-2.962a3.749,3.749,0,0,1,.34-1.611,3.83,3.83,0,0,1,.916-1.242,4.162,4.162,0,0,1,1.337-.8,4.568,4.568,0,0,1,1.611-.284,4.389,4.389,0,0,1,1.593.284,3.855,3.855,0,0,1,1.281.8,3.682,3.682,0,0,1,.853,1.235,3.971,3.971,0,0,1,.309,1.583,3.9,3.9,0,0,1-.323,1.607,3.708,3.708,0,0,1-.881,1.235,3.965,3.965,0,0,1-1.309.793,4.532,4.532,0,0,1-1.6.281,4.531,4.531,0,0,1-1.611-.284,4,4,0,0,1-1.312-.8A3.737,3.737,0,0,1,9.5-23.914,3.773,3.773,0,0,1,9.178-25.49Zm4.176,2.5a2.062,2.062,0,0,0,.965-.211,1.928,1.928,0,0,0,.663-.558,2.345,2.345,0,0,0,.383-.8,3.629,3.629,0,0,0,.123-.947,3.5,3.5,0,0,0-.133-.979,2.379,2.379,0,0,0-.4-.807,1.915,1.915,0,0,0-.677-.547,2.158,2.158,0,0,0-.962-.2,2.078,2.078,0,0,0-.972.211,1.833,1.833,0,0,0-.656.565,2.441,2.441,0,0,0-.372.821,3.968,3.968,0,0,0-.119.986,3.312,3.312,0,0,0,.133.947,2.277,2.277,0,0,0,.4.786,1.975,1.975,0,0,0,.674.537A2.118,2.118,0,0,0,13.354-22.991Zm5.376-9.678h1.8v4.6a2.274,2.274,0,0,1,.453-.607,2.507,2.507,0,0,1,.6-.421,2.9,2.9,0,0,1,.7-.246,3.613,3.613,0,0,1,.762-.081,2.881,2.881,0,0,1,1.179.225,2.326,2.326,0,0,1,.842.621,2.638,2.638,0,0,1,.505.94,4.005,4.005,0,0,1,.168,1.19v4.7H23.924v-4.527a1.726,1.726,0,0,0-.411-1.242,1.582,1.582,0,0,0-1.2-.428,1.74,1.74,0,0,0-1.33.488,1.811,1.811,0,0,0-.46,1.295v4.415h-1.8ZM26.9-25.49a3.749,3.749,0,0,1,.34-1.611,3.83,3.83,0,0,1,.916-1.242,4.162,4.162,0,0,1,1.337-.8,4.568,4.568,0,0,1,1.611-.284,4.389,4.389,0,0,1,1.593.284,3.855,3.855,0,0,1,1.281.8,3.682,3.682,0,0,1,.853,1.235,3.971,3.971,0,0,1,.309,1.583,3.9,3.9,0,0,1-.323,1.607,3.708,3.708,0,0,1-.881,1.235,3.965,3.965,0,0,1-1.309.793,4.532,4.532,0,0,1-1.6.281,4.531,4.531,0,0,1-1.611-.284,4,4,0,0,1-1.312-.8,3.737,3.737,0,0,1-.881-1.225A3.773,3.773,0,0,1,26.9-25.49Zm4.176,2.5a2.062,2.062,0,0,0,.965-.211,1.928,1.928,0,0,0,.663-.558,2.345,2.345,0,0,0,.383-.8,3.629,3.629,0,0,0,.123-.947,3.5,3.5,0,0,0-.133-.979,2.379,2.379,0,0,0-.4-.807A1.915,1.915,0,0,0,32-27.845a2.158,2.158,0,0,0-.962-.2,2.078,2.078,0,0,0-.972.211,1.833,1.833,0,0,0-.656.565,2.441,2.441,0,0,0-.372.821,3.968,3.968,0,0,0-.119.986,3.312,3.312,0,0,0,.133.947,2.277,2.277,0,0,0,.4.786,1.975,1.975,0,0,0,.674.537A2.118,2.118,0,0,0,31.076-22.991Z" transform="translate(55.844 34.491)"/>
  <path id="Path_8145" data-name="Path 8145" d="M6.977-53.5H11.17l5.61,16.727H13.433l-1.245-3.862H5.618L4.406-36.771H1.333Zm4.49,10.546L8.919-50.881,6.36-42.952ZM18.8-49.008h2.925v1.942a3.555,3.555,0,0,1,.743-.983,4.377,4.377,0,0,1,.983-.686,4.659,4.659,0,0,1,1.154-.406,6.017,6.017,0,0,1,1.257-.131,4.57,4.57,0,0,1,1.9.366A3.583,3.583,0,0,1,29.1-47.888a4.272,4.272,0,0,1,.777,1.537,7.028,7.028,0,0,1,.251,1.925v7.655H27.154V-44.14a3.049,3.049,0,0,0-.594-2.005,2.346,2.346,0,0,0-1.908-.714,2.875,2.875,0,0,0-2.154.788,2.892,2.892,0,0,0-.771,2.114v7.187H18.8Zm21.411,10.74a3.961,3.961,0,0,1-1.674,1.325,5.541,5.541,0,0,1-2.119.4,5.738,5.738,0,0,1-1.605-.217,3.7,3.7,0,0,1-1.3-.663,3.155,3.155,0,0,1-.874-1.114,3.6,3.6,0,0,1-.32-1.571,3.556,3.556,0,0,1,.28-1.468,3.182,3.182,0,0,1,.754-1.057,3.919,3.919,0,0,1,1.114-.708,7.388,7.388,0,0,1,1.354-.428,10.816,10.816,0,0,1,1.468-.211q.754-.057,1.462-.057h1.44v-.194a6.6,6.6,0,0,0-.1-1.183,2.237,2.237,0,0,0-.36-.9,1.681,1.681,0,0,0-.726-.571,3.072,3.072,0,0,0-1.205-.2,3.116,3.116,0,0,0-1.64.451,2.557,2.557,0,0,0-1.08,1.3l-2.274-.983a3.838,3.838,0,0,1,.868-1.371,4.848,4.848,0,0,1,1.268-.914,5.8,5.8,0,0,1,1.52-.508A8.728,8.728,0,0,1,38.1-49.27a7.072,7.072,0,0,1,2,.269,4.43,4.43,0,0,1,1.582.817,3.679,3.679,0,0,1,1.04,1.4,5.016,5.016,0,0,1,.371,2.017v8H40.214Zm-1.5-3.976q-.5,0-1.114.051a4.1,4.1,0,0,0-1.143.257,2.242,2.242,0,0,0-.885.606,1.6,1.6,0,0,0-.354,1.1,1.691,1.691,0,0,0,.149.748,1.322,1.322,0,0,0,.417.5,1.753,1.753,0,0,0,.623.28,3.25,3.25,0,0,0,.766.086,4.1,4.1,0,0,0,1.1-.149,3.156,3.156,0,0,0,.965-.446,2.283,2.283,0,0,0,.691-.76,2.149,2.149,0,0,0,.263-1.08v-1.188Zm7.541-11.722,2.925-1.268v18.463H46.258Zm9.769,15.95-4.8-10.991h3.131l3.211,7.815,2.993-7.815h2.845l-6.73,16.43H53.81ZM71.9-36.862a8.508,8.508,0,0,1-.971.217,6.47,6.47,0,0,1-1.04.08,3.87,3.87,0,0,1-2.731-.908,3.549,3.549,0,0,1-.983-2.736v-6.65H64.527v-2.148h1.645v-2.525L69.1-52.8v3.793h2.7v2.148H69.1v6.387a1.758,1.758,0,0,0,.337,1.137,1.4,1.4,0,0,0,1.148.417,3.524,3.524,0,0,0,.646-.063,4.679,4.679,0,0,0,.668-.177Zm2.251-15.664a1.6,1.6,0,0,1,.137-.668,1.623,1.623,0,0,1,.377-.526,1.693,1.693,0,0,1,.554-.343,1.858,1.858,0,0,1,.668-.12,1.739,1.739,0,0,1,.663.126,1.722,1.722,0,0,1,.543.348,1.592,1.592,0,0,1,.366.526,1.661,1.661,0,0,1,.131.668,1.673,1.673,0,0,1-.131.663,1.6,1.6,0,0,1-.354.526,1.636,1.636,0,0,1-.531.343,1.77,1.77,0,0,1-.674.126,1.827,1.827,0,0,1-.674-.126,1.759,1.759,0,0,1-.56-.348,1.607,1.607,0,0,1-.377-.531A1.613,1.613,0,0,1,74.147-52.527Zm.263,3.542h2.925v12.214H74.41Zm17.275,8.752a5.114,5.114,0,0,1-.868,1.657,4.978,4.978,0,0,1-1.3,1.148,5.74,5.74,0,0,1-1.634.668,7.793,7.793,0,0,1-1.851.217,6.873,6.873,0,0,1-2.6-.468,5.529,5.529,0,0,1-1.954-1.308,5.653,5.653,0,0,1-1.223-2.017,7.624,7.624,0,0,1-.423-2.594,6.78,6.78,0,0,1,.463-2.525,5.956,5.956,0,0,1,1.3-2.011,6,6,0,0,1,1.982-1.325,6.5,6.5,0,0,1,2.531-.48,7.745,7.745,0,0,1,1.777.2,5.726,5.726,0,0,1,1.571.617,4.869,4.869,0,0,1,1.274,1.068,5.247,5.247,0,0,1,.9,1.554l-2.365,1.04a3.087,3.087,0,0,0-1.205-1.6,3.43,3.43,0,0,0-1.948-.56,3.018,3.018,0,0,0-1.514.354,2.928,2.928,0,0,0-1.011.943,4.129,4.129,0,0,0-.566,1.337,6.65,6.65,0,0,0-.177,1.537,6.339,6.339,0,0,0,.183,1.542,3.648,3.648,0,0,0,.583,1.28,2.905,2.905,0,0,0,1.028.874,3.269,3.269,0,0,0,1.52.326,3.313,3.313,0,0,0,2.1-.651,3.66,3.66,0,0,0,1.211-1.805Zm3.61-.183a2.448,2.448,0,0,0,.48.783,2.7,2.7,0,0,0,.708.554,3.423,3.423,0,0,0,.874.326,4.313,4.313,0,0,0,.965.109,4.446,4.446,0,0,0,.731-.063,2.2,2.2,0,0,0,.686-.229,1.471,1.471,0,0,0,.508-.446,1.2,1.2,0,0,0,.2-.714,1.2,1.2,0,0,0-.229-.754,1.79,1.79,0,0,0-.623-.5,4.461,4.461,0,0,0-.9-.331q-.508-.131-1.08-.246-.731-.16-1.48-.36a4.7,4.7,0,0,1-1.342-.583,3.015,3.015,0,0,1-.971-1.023,3.259,3.259,0,0,1-.377-1.668,3.25,3.25,0,0,1,.4-1.645,3.576,3.576,0,0,1,1.045-1.154,4.7,4.7,0,0,1,1.462-.686A6.1,6.1,0,0,1,98-49.27a7.97,7.97,0,0,1,1.485.143,5.764,5.764,0,0,1,1.422.463,4.78,4.78,0,0,1,1.211.828,3.476,3.476,0,0,1,.84,1.228l-2.171.937a2.117,2.117,0,0,0-.48-.691,2.762,2.762,0,0,0-.663-.463,3.035,3.035,0,0,0-.765-.263,3.958,3.958,0,0,0-.777-.08,3.336,3.336,0,0,0-.708.074,1.934,1.934,0,0,0-.611.24,1.28,1.28,0,0,0-.428.428,1.209,1.209,0,0,0-.16.64,1.084,1.084,0,0,0,.211.691,1.624,1.624,0,0,0,.571.446,3.967,3.967,0,0,0,.851.291q.491.114,1.04.217.754.149,1.531.343a5.006,5.006,0,0,1,1.411.583,3.086,3.086,0,0,1,1.034,1.045,3.3,3.3,0,0,1,.4,1.731,3.694,3.694,0,0,1-.417,1.822,3.409,3.409,0,0,1-1.108,1.205,4.8,4.8,0,0,1-1.582.663,8.206,8.206,0,0,1-1.851.206,8.991,8.991,0,0,1-1.622-.149,5.918,5.918,0,0,1-1.52-.491,4.556,4.556,0,0,1-1.263-.9,3.619,3.619,0,0,1-.84-1.382Z" transform="translate(54.752 72.578)"/>
</svg>
