<svg id="social" xmlns="http://www.w3.org/2000/svg" width="110" height="40" viewBox="0 0 110 40">
  <g id="Group_7889" data-name="Group 7889" transform="translate(47.746 4.565)">
    <g id="Group_7886" data-name="Group 7886" transform="translate(0 12.803)">
      <path id="Path_8224" data-name="Path 8224" d="M354.056,150.441a4.106,4.106,0,0,0,.661,1.191,3.957,3.957,0,0,0,.954.856,4.2,4.2,0,0,0,1.191.52,5.3,5.3,0,0,0,1.376.173,4.1,4.1,0,0,0,1.089-.146,3.036,3.036,0,0,0,.958-.444,2.354,2.354,0,0,0,.687-.758,2.123,2.123,0,0,0,.265-1.078,1.76,1.76,0,0,0-.3-1.073,2.23,2.23,0,0,0-.808-.667,4.928,4.928,0,0,0-1.165-.4q-.661-.147-1.386-.276-.921-.161-1.841-.395a5.507,5.507,0,0,1-1.658-.71,3.585,3.585,0,0,1-1.2-1.311,4.55,4.55,0,0,1-.46-2.2,4.109,4.109,0,0,1,.471-2,4.478,4.478,0,0,1,1.24-1.441,5.4,5.4,0,0,1,1.749-.867,7.1,7.1,0,0,1,2.01-.287,8.184,8.184,0,0,1,1.83.2,6.01,6.01,0,0,1,1.63.628,5.192,5.192,0,0,1,2.3,2.682l-2.253,1.019a4.02,4.02,0,0,0-1.419-1.647,3.783,3.783,0,0,0-2.123-.6,4.087,4.087,0,0,0-.948.109,2.416,2.416,0,0,0-.823.358,1.892,1.892,0,0,0-.585.645,1.983,1.983,0,0,0-.222.98,1.766,1.766,0,0,0,.282,1.039,2.066,2.066,0,0,0,.763.65,4.739,4.739,0,0,0,1.121.395c.427.1.881.189,1.365.276q.627.108,1.262.239a9.289,9.289,0,0,1,1.23.341,6.034,6.034,0,0,1,1.115.526,3.434,3.434,0,0,1,1.521,1.945,5.155,5.155,0,0,1,.222,1.6,4.271,4.271,0,0,1-.515,2.123,4.868,4.868,0,0,1-1.349,1.543,5.967,5.967,0,0,1-1.9.937,7.6,7.6,0,0,1-2.162.315,10.8,10.8,0,0,1-2.106-.206,7.073,7.073,0,0,1-1.923-.672,5.365,5.365,0,0,1-1.554-1.224,4.843,4.843,0,0,1-.991-1.863Z" transform="translate(-351.66 -137.714)"/>
      <path id="Path_8225" data-name="Path 8225" d="M450.95,175.9a5.784,5.784,0,0,1,.526-2.486,5.93,5.93,0,0,1,1.413-1.917,6.435,6.435,0,0,1,2.064-1.235,7.049,7.049,0,0,1,2.486-.439,6.768,6.768,0,0,1,2.458.439,5.94,5.94,0,0,1,1.977,1.235,5.7,5.7,0,0,1,1.315,1.906,6.132,6.132,0,0,1,.476,2.443,6.01,6.01,0,0,1-.5,2.48,5.727,5.727,0,0,1-1.36,1.906,6.121,6.121,0,0,1-2.019,1.224,7.255,7.255,0,0,1-4.956-.006,6.187,6.187,0,0,1-2.025-1.23,5.748,5.748,0,0,1-1.858-4.322Zm6.445,3.857a3.18,3.18,0,0,0,1.489-.324,2.981,2.981,0,0,0,1.024-.861,3.639,3.639,0,0,0,.591-1.241,5.572,5.572,0,0,0,.189-1.462,5.426,5.426,0,0,0-.206-1.511,3.69,3.69,0,0,0-.623-1.245,2.952,2.952,0,0,0-1.045-.845,3.335,3.335,0,0,0-1.484-.309,3.224,3.224,0,0,0-1.5.324,2.84,2.84,0,0,0-1.013.872,3.774,3.774,0,0,0-.574,1.267,6.12,6.12,0,0,0-.184,1.523,5.125,5.125,0,0,0,.206,1.462,3.511,3.511,0,0,0,.623,1.213,3.038,3.038,0,0,0,1.039.828A3.266,3.266,0,0,0,457.395,179.754Z" transform="translate(-437.244 -164.167)"/>
      <path id="Path_8226" data-name="Path 8226" d="M563.343,178.4a4.854,4.854,0,0,1-.823,1.571,4.707,4.707,0,0,1-1.235,1.089,5.41,5.41,0,0,1-1.549.634,7.418,7.418,0,0,1-1.754.206,6.5,6.5,0,0,1-2.469-.444,5.215,5.215,0,0,1-1.852-1.241A5.377,5.377,0,0,1,552.5,178.3a7.215,7.215,0,0,1-.4-2.458,6.422,6.422,0,0,1,.439-2.394,5.579,5.579,0,0,1,3.11-3.162,6.181,6.181,0,0,1,2.4-.456,7.383,7.383,0,0,1,1.684.189,5.449,5.449,0,0,1,1.489.585,4.6,4.6,0,0,1,1.208,1.013,4.969,4.969,0,0,1,.85,1.473l-2.242.986a2.926,2.926,0,0,0-1.143-1.517,3.256,3.256,0,0,0-1.847-.531,2.864,2.864,0,0,0-1.436.335,2.782,2.782,0,0,0-.959.893,3.9,3.9,0,0,0-.536,1.267,6.318,6.318,0,0,0-.168,1.456,5.981,5.981,0,0,0,.174,1.462,3.466,3.466,0,0,0,.552,1.213,2.748,2.748,0,0,0,.974.828,3.1,3.1,0,0,0,1.441.309,3.142,3.142,0,0,0,1.993-.617,3.468,3.468,0,0,0,1.148-1.712Z" transform="translate(-524.432 -164.176)"/>
      <path id="Path_8227" data-name="Path 8227" d="M648.22,137.669a1.516,1.516,0,0,1,.13-.634,1.534,1.534,0,0,1,.357-.5,1.608,1.608,0,0,1,.526-.324,1.76,1.76,0,0,1,.634-.113,1.642,1.642,0,0,1,1.143.449,1.505,1.505,0,0,1,.346.5,1.664,1.664,0,0,1,0,1.262,1.509,1.509,0,0,1-.335.5,1.529,1.529,0,0,1-.5.324,1.667,1.667,0,0,1-.639.119,1.746,1.746,0,0,1-.639-.119,1.691,1.691,0,0,1-.531-.33,1.529,1.529,0,0,1-.357-.5A1.55,1.55,0,0,1,648.22,137.669Zm.25,3.357h2.773v11.58H648.47Z" transform="translate(-607.284 -135.102)"/>
      <path id="Path_8228" data-name="Path 8228" d="M694.307,180.279a3.746,3.746,0,0,1-1.587,1.256,5.258,5.258,0,0,1-2.01.38,5.47,5.47,0,0,1-1.523-.206,3.5,3.5,0,0,1-1.235-.628,2.978,2.978,0,0,1-.828-1.056,3.408,3.408,0,0,1-.3-1.489,3.372,3.372,0,0,1,.265-1.391,3.021,3.021,0,0,1,.715-1,3.719,3.719,0,0,1,1.056-.672,6.894,6.894,0,0,1,1.284-.406,10.143,10.143,0,0,1,1.391-.2q.714-.054,1.386-.054h1.365v-.184a6.184,6.184,0,0,0-.092-1.121,2.14,2.14,0,0,0-.341-.856,1.583,1.583,0,0,0-.687-.541,3.229,3.229,0,0,0-2.7.239,2.429,2.429,0,0,0-1.024,1.23l-2.156-.932a3.653,3.653,0,0,1,.823-1.3,4.6,4.6,0,0,1,1.2-.867A5.468,5.468,0,0,1,690.75,170a8.231,8.231,0,0,1,1.549-.146,6.745,6.745,0,0,1,1.9.254,4.209,4.209,0,0,1,1.5.774,3.492,3.492,0,0,1,.986,1.327,4.751,4.751,0,0,1,.352,1.912V181.7H694.3v-1.42Zm-1.419-3.77q-.476,0-1.056.048a3.879,3.879,0,0,0-1.084.244,2.126,2.126,0,0,0-.839.574,1.513,1.513,0,0,0-.335,1.039,1.6,1.6,0,0,0,.141.71,1.247,1.247,0,0,0,.395.471,1.648,1.648,0,0,0,.591.265,3.094,3.094,0,0,0,.726.081,3.883,3.883,0,0,0,1.039-.141,2.987,2.987,0,0,0,.915-.422,2.177,2.177,0,0,0,.656-.721,2.043,2.043,0,0,0,.25-1.024v-1.126h-1.4Z" transform="translate(-640.556 -164.193)"/>
      <path id="Path_8229" data-name="Path 8229" d="M782.57,130.072l2.773-1.2v17.5H782.57Z" transform="translate(-723.089 -128.87)"/>
    </g>
    <g id="Group_7888" data-name="Group 7888" transform="translate(1.194)">
      <g id="Group_7887" data-name="Group 7887">
        <path id="Path_8230" data-name="Path 8230" d="M360.31,49.3l5.1-7.374h-4.587V40.47h6.989v.725l-4.979,7.374h4.835v1.455h-7.36V49.3Z" transform="translate(-360.31 -39.87)"/>
        <path id="Path_8231" data-name="Path 8231" d="M418.03,61.621a3.482,3.482,0,0,1,.316-1.5,3.562,3.562,0,0,1,.852-1.155,3.858,3.858,0,0,1,1.242-.744,4.238,4.238,0,0,1,1.5-.264,4.1,4.1,0,0,1,1.481.264,3.6,3.6,0,0,1,1.191.744,3.4,3.4,0,0,1,.792,1.148,3.9,3.9,0,0,1-.012,2.966,3.451,3.451,0,0,1-.819,1.148,3.684,3.684,0,0,1-1.217.737,4.38,4.38,0,0,1-2.986,0,3.715,3.715,0,0,1-1.22-.741,3.462,3.462,0,0,1-.819-1.139A3.53,3.53,0,0,1,418.03,61.621Zm3.883,2.322a1.909,1.909,0,0,0,.9-.2,1.809,1.809,0,0,0,.617-.519,2.164,2.164,0,0,0,.356-.747,3.388,3.388,0,0,0,.115-.881,3.241,3.241,0,0,0-.124-.91,2.232,2.232,0,0,0-.375-.751,1.776,1.776,0,0,0-.629-.509,2.006,2.006,0,0,0-.894-.186,1.926,1.926,0,0,0-.9.2,1.7,1.7,0,0,0-.61.526,2.269,2.269,0,0,0-.345.763,3.664,3.664,0,0,0-.11.917,3.065,3.065,0,0,0,.124.881,2.106,2.106,0,0,0,.375.73,1.845,1.845,0,0,0,.627.5A1.929,1.929,0,0,0,421.913,63.942Z" transform="translate(-410.063 -54.945)"/>
        <path id="Path_8232" data-name="Path 8232" d="M482.353,36.12h1.67v4.274a2.087,2.087,0,0,1,.421-.565,2.312,2.312,0,0,1,.555-.392,2.668,2.668,0,0,1,.653-.228,3.389,3.389,0,0,1,.708-.075,2.672,2.672,0,0,1,1.1.208,2.159,2.159,0,0,1,.783.577,2.443,2.443,0,0,1,.469.874,3.7,3.7,0,0,1,.156,1.106v4.372H487.18V42.064a1.6,1.6,0,0,0-.382-1.155,1.473,1.473,0,0,0-1.113-.4,1.615,1.615,0,0,0-1.237.454,1.683,1.683,0,0,0-.428,1.2v4.1h-1.67V36.12Z" transform="translate(-465.504 -36.12)"/>
        <path id="Path_8233" data-name="Path 8233" d="M537.39,61.621a3.482,3.482,0,0,1,.316-1.5,3.562,3.562,0,0,1,.852-1.155,3.858,3.858,0,0,1,1.242-.744,4.238,4.238,0,0,1,1.5-.264,4.1,4.1,0,0,1,1.481.264,3.6,3.6,0,0,1,1.191.744,3.4,3.4,0,0,1,.792,1.148,3.9,3.9,0,0,1-.012,2.966,3.451,3.451,0,0,1-.819,1.148,3.684,3.684,0,0,1-1.217.737,4.38,4.38,0,0,1-2.986,0,3.715,3.715,0,0,1-1.22-.741,3.463,3.463,0,0,1-.819-1.139A3.531,3.531,0,0,1,537.39,61.621Zm3.883,2.322a1.909,1.909,0,0,0,.9-.2,1.808,1.808,0,0,0,.617-.519,2.164,2.164,0,0,0,.356-.747,3.386,3.386,0,0,0,.115-.881,3.241,3.241,0,0,0-.124-.91,2.231,2.231,0,0,0-.375-.751,1.776,1.776,0,0,0-.629-.509,2.006,2.006,0,0,0-.894-.186,1.926,1.926,0,0,0-.9.2,1.7,1.7,0,0,0-.61.526,2.271,2.271,0,0,0-.345.763,3.666,3.666,0,0,0-.11.917,3.065,3.065,0,0,0,.124.881,2.107,2.107,0,0,0,.375.73,1.845,1.845,0,0,0,.627.5A1.933,1.933,0,0,0,541.273,63.942Z" transform="translate(-512.947 -54.945)"/>
      </g>
    </g>
  </g>
  <g id="Group_7917" data-name="Group 7917" transform="translate(0 0)">
    <g id="Group_7892" data-name="Group 7892" transform="translate(17.901 25.804)">
      <g id="Group_7890" data-name="Group 7890">
        <path id="Path_8234" data-name="Path 8234" d="M142.458,194.73a1.114,1.114,0,0,1-.415-.079l-6.29-2.394a1.175,1.175,0,0,1,.834-2.2l6.294,2.394a1.177,1.177,0,0,1-.422,2.276Z" transform="translate(-134.995 -189.985)" fill="#e42527"/>
      </g>
      <g id="Group_7891" data-name="Group 7891">
        <path id="Path_8235" data-name="Path 8235" d="M142.458,194.73a1.114,1.114,0,0,1-.415-.079l-6.29-2.394a1.175,1.175,0,0,1,.834-2.2l6.294,2.394a1.177,1.177,0,0,1-.422,2.276Z" transform="translate(-134.995 -189.985)" fill="#e32327"/>
      </g>
    </g>
    <g id="Group_7895" data-name="Group 7895" transform="translate(23.735 23.706)">
      <g id="Group_7893" data-name="Group 7893">
        <path id="Path_8236" data-name="Path 8236" d="M185.407,191.084a8.147,8.147,0,1,1,8.147-8.147A8.155,8.155,0,0,1,185.407,191.084Zm0-13.944a5.8,5.8,0,1,0,5.8,5.8A5.8,5.8,0,0,0,185.407,177.139Z" transform="translate(-177.26 -174.79)" fill="#e42527"/>
      </g>
      <g id="Group_7894" data-name="Group 7894">
        <path id="Path_8237" data-name="Path 8237" d="M185.407,191.084a8.147,8.147,0,1,1,8.147-8.147A8.155,8.155,0,0,1,185.407,191.084Zm0-13.944a5.8,5.8,0,1,0,5.8,5.8A5.8,5.8,0,0,0,185.407,177.139Z" transform="translate(-177.26 -174.79)" fill="#e32327"/>
      </g>
    </g>
    <g id="Group_7898" data-name="Group 7898" transform="translate(30.71 23.779)">
      <g id="Group_7896" data-name="Group 7896">
        <path id="Path_8238" data-name="Path 8238" d="M235.48,187.048a1.113,1.113,0,0,1-.415-.079l-6.518-2.479a1.177,1.177,0,0,1-.756-1.1v-6.9a1.175,1.175,0,1,1,2.349,0v6.09l5.762,2.193a1.172,1.172,0,0,1-.421,2.269Z" transform="translate(-227.79 -175.32)" fill="#e42527"/>
      </g>
      <g id="Group_7897" data-name="Group 7897">
        <path id="Path_8239" data-name="Path 8239" d="M235.48,187.048a1.113,1.113,0,0,1-.415-.079l-6.518-2.479a1.177,1.177,0,0,1-.756-1.1v-6.9a1.175,1.175,0,1,1,2.349,0v6.09l5.762,2.193a1.172,1.172,0,0,1-.421,2.269Z" transform="translate(-227.79 -175.32)" fill="#e32327"/>
      </g>
    </g>
    <g id="Group_7901" data-name="Group 7901" transform="translate(16.743 13.02)">
      <g id="Group_7899" data-name="Group 7899">
        <path id="Path_8240" data-name="Path 8240" d="M127.781,103.8a1.173,1.173,0,0,1-.69-2.123l5.632-4.078a1.172,1.172,0,0,1,1.375,1.9l-5.629,4.078A1.174,1.174,0,0,1,127.781,103.8Z" transform="translate(-126.606 -97.376)" fill="#089949"/>
      </g>
      <g id="Group_7900" data-name="Group 7900">
        <path id="Path_8241" data-name="Path 8241" d="M127.781,103.8a1.173,1.173,0,0,1-.69-2.123l5.632-4.078a1.172,1.172,0,0,1,1.375,1.9l-5.629,4.078A1.174,1.174,0,0,1,127.781,103.8Z" transform="translate(-126.606 -97.376)" fill="#049849"/>
      </g>
    </g>
    <g id="Group_7904" data-name="Group 7904" transform="translate(0 13.269)">
      <g id="Group_7902" data-name="Group 7902">
        <path id="Path_8242" data-name="Path 8242" d="M15.732,120.028a10.422,10.422,0,1,1,7.375-3.051A10.353,10.353,0,0,1,15.732,120.028Zm0-18.5a8.076,8.076,0,1,0,8.081,8.076A8.086,8.086,0,0,0,15.732,101.528Z" transform="translate(-5.31 -99.18)" fill="#089949"/>
      </g>
      <g id="Group_7903" data-name="Group 7903">
        <path id="Path_8243" data-name="Path 8243" d="M15.732,120.028a10.422,10.422,0,1,1,7.375-3.051A10.353,10.353,0,0,1,15.732,120.028Zm0-18.5a8.076,8.076,0,1,0,8.081,8.076A8.086,8.086,0,0,0,15.732,101.528Z" transform="translate(-5.31 -99.18)" fill="#049849"/>
      </g>
    </g>
    <g id="Group_7907" data-name="Group 7907" transform="translate(6.685 18.113)">
      <g id="Group_7905" data-name="Group 7905">
        <path id="Path_8244" data-name="Path 8244" d="M54.916,142.863a1.173,1.173,0,0,1-.685-2.127l2.076-1.488v-3.8a1.175,1.175,0,0,1,2.349,0v4.406a1.18,1.18,0,0,1-.49.955L55.6,142.647A1.205,1.205,0,0,1,54.916,142.863Z" transform="translate(-53.741 -134.27)" fill="#089949"/>
      </g>
      <g id="Group_7906" data-name="Group 7906">
        <path id="Path_8245" data-name="Path 8245" d="M54.916,142.863a1.173,1.173,0,0,1-.685-2.127l2.076-1.488v-3.8a1.175,1.175,0,0,1,2.349,0v4.406a1.18,1.18,0,0,1-.49.955L55.6,142.647A1.205,1.205,0,0,1,54.916,142.863Z" transform="translate(-53.741 -134.27)" fill="#049849"/>
      </g>
    </g>
    <g id="Group_7910" data-name="Group 7910" transform="translate(21.209 3.251)">
      <g id="Group_7908" data-name="Group 7908">
        <path id="Path_8246" data-name="Path 8246" d="M166.292,41.265a7.332,7.332,0,1,1,7.332-7.332A7.343,7.343,0,0,1,166.292,41.265Zm0-12.318a4.986,4.986,0,1,0,4.986,4.986A4.991,4.991,0,0,0,166.292,28.947Z" transform="translate(-158.96 -26.6)" fill="#226db4"/>
      </g>
      <g id="Group_7909" data-name="Group 7909">
        <path id="Path_8247" data-name="Path 8247" d="M166.292,41.265a7.332,7.332,0,1,1,7.332-7.332A7.343,7.343,0,0,1,166.292,41.265Zm0-12.318a4.986,4.986,0,1,0,4.986,4.986A4.991,4.991,0,0,0,166.292,28.947Z" transform="translate(-158.96 -26.6)" fill="#216db3"/>
      </g>
    </g>
    <g id="Group_7913" data-name="Group 7913" transform="translate(15.128 4.75)">
      <g id="Group_7911" data-name="Group 7911">
        <path id="Path_8248" data-name="Path 8248" d="M122.56,42.28a1.114,1.114,0,0,1-.415-.079l-6.482-2.464a1.175,1.175,0,1,1,.834-2.2L122.978,40a1.177,1.177,0,0,1-.418,2.276Z" transform="translate(-114.905 -37.465)" fill="#226db4"/>
      </g>
      <g id="Group_7912" data-name="Group 7912">
        <path id="Path_8249" data-name="Path 8249" d="M122.56,42.28a1.114,1.114,0,0,1-.415-.079l-6.482-2.464a1.175,1.175,0,1,1,.834-2.2L122.978,40a1.177,1.177,0,0,1-.418,2.276Z" transform="translate(-114.905 -37.465)" fill="#216db3"/>
      </g>
    </g>
    <g id="Group_7916" data-name="Group 7916" transform="translate(8.333)">
      <g id="Group_7914" data-name="Group 7914">
        <path id="Path_8250" data-name="Path 8250" d="M70.365,12.416A4.683,4.683,0,1,1,75.05,7.731,4.69,4.69,0,0,1,70.365,12.416Zm0-7.019A2.334,2.334,0,1,0,72.7,7.731,2.335,2.335,0,0,0,70.365,5.4Z" transform="translate(-65.68 -3.05)" fill="#f9b21d"/>
      </g>
      <g id="Group_7915" data-name="Group 7915">
        <path id="Path_8251" data-name="Path 8251" d="M70.365,12.416A4.683,4.683,0,1,1,75.05,7.731,4.69,4.69,0,0,1,70.365,12.416Zm0-7.019A2.334,2.334,0,1,0,72.7,7.731,2.335,2.335,0,0,0,70.365,5.4Z" transform="translate(-65.68 -3.05)" fill="#f8b11c"/>
      </g>
    </g>
  </g>
</svg>
