<svg id="Group_7930" data-name="Group 7930" xmlns="http://www.w3.org/2000/svg" xmlns:xlink="http://www.w3.org/1999/xlink" width="153" height="40" viewBox="0 0 153 40">
  <defs>
    <clipPath id="clip-path">
      <rect id="Rectangle_3562" data-name="Rectangle 3562" width="40.192" height="40" fill="none"/>
    </clipPath>
    <clipPath id="clip-path-3">
      <rect id="Rectangle_3556" data-name="Rectangle 3556" width="40.192" height="37.759" fill="none"/>
    </clipPath>
    <clipPath id="clip-path-4">
      <rect id="Rectangle_3555" data-name="Rectangle 3555" width="40.117" height="37.758" fill="none"/>
    </clipPath>
    <clipPath id="clip-path-5">
      <rect id="Rectangle_3558" data-name="Rectangle 3558" width="9.15" height="3.55" fill="none"/>
    </clipPath>
    <clipPath id="clip-path-6">
      <rect id="Rectangle_3557" data-name="Rectangle 3557" width="9.144" height="3.548" fill="none"/>
    </clipPath>
    <clipPath id="clip-path-7">
      <rect id="Rectangle_3560" data-name="Rectangle 3560" width="9.4" height="9.395" fill="none"/>
    </clipPath>
    <clipPath id="clip-path-8">
      <rect id="Rectangle_3559" data-name="Rectangle 3559" width="9.395" height="9.395" fill="none"/>
    </clipPath>
  </defs>
  <g id="Group_7845" data-name="Group 7845">
    <g id="Group_7844" data-name="Group 7844" clip-path="url(#clip-path)">
      <g id="Group_7843" data-name="Group 7843">
        <g id="Group_7842" data-name="Group 7842" clip-path="url(#clip-path)">
          <g id="Group_7831" data-name="Group 7831" opacity="0.9">
            <g id="Group_7830" data-name="Group 7830">
              <g id="Group_7829" data-name="Group 7829" clip-path="url(#clip-path-3)">
                <g id="Group_7828" data-name="Group 7828">
                  <g id="Group_7827" data-name="Group 7827" clip-path="url(#clip-path-4)">
                    <path id="Path_8137" data-name="Path 8137" d="M10.36,33.863a1.175,1.175,0,0,1-1.155-.972L4.126,4.134a1.419,1.419,0,0,0-.982-1.115L.88,2.313A1.175,1.175,0,0,1,1.557.064h.021L3.844.776a3.761,3.761,0,0,1,2.6,2.95l5.066,28.757a1.175,1.175,0,0,1-1.157,1.378Zm5.588,3.91a1.175,1.175,0,0,1-.2-2.331L36.58,31.768a1.433,1.433,0,0,0-.479-2.817h-.017L18.19,32.1A3.778,3.778,0,0,1,13.8,29.049l-3.152-17.9a3.775,3.775,0,0,1,3.066-4.374L31.605,3.627a3.778,3.778,0,0,1,4.376,3.058L38.9,23.247a1.175,1.175,0,0,1-2.314.407L33.67,7.094a1.433,1.433,0,0,0-1.655-1.158L14.12,9.089a1.433,1.433,0,0,0-1.156,1.655l3.152,17.894a1.433,1.433,0,0,0,1.654,1.158l17.894-3.152a3.777,3.777,0,1,1,1.431,7.414l-.126.023L16.14,37.754a1.291,1.291,0,0,1-.2.017" transform="translate(-0.044 -0.014)" fill="#d90c1c"/>
                  </g>
                </g>
              </g>
            </g>
          </g>
          <g id="Group_7836" data-name="Group 7836" transform="translate(19.445 11.361)" opacity="0.9">
            <g id="Group_7835" data-name="Group 7835">
              <g id="Group_7834" data-name="Group 7834" clip-path="url(#clip-path-5)">
                <g id="Group_7833" data-name="Group 7833" transform="translate(0 0.002)">
                  <g id="Group_7832" data-name="Group 7832" clip-path="url(#clip-path-6)">
                    <path id="Path_8138" data-name="Path 8138" d="M63.53,39.975a1.175,1.175,0,0,1-.2-2.331l6.792-1.2a1.175,1.175,0,1,1,.408,2.314l-6.792,1.2a1.24,1.24,0,0,1-.206.017" transform="translate(-62.356 -36.428)" fill="#faa000"/>
                  </g>
                </g>
              </g>
            </g>
          </g>
          <g id="Group_7841" data-name="Group 7841" transform="translate(7.916 30.605)" opacity="0.9">
            <g id="Group_7840" data-name="Group 7840">
              <g id="Group_7839" data-name="Group 7839" clip-path="url(#clip-path-7)">
                <g id="Group_7838" data-name="Group 7838" transform="translate(0 0)">
                  <g id="Group_7837" data-name="Group 7837" clip-path="url(#clip-path-8)">
                    <path id="Path_8139" data-name="Path 8139" d="M30.107,107.53a4.7,4.7,0,1,1,.608-.04,4.7,4.7,0,0,1-.608.04m.014-7.02a2.326,2.326,0,1,0,2.292,1.92,2.327,2.327,0,0,0-2.292-1.92" transform="translate(-25.406 -98.136)" fill="#d90c1c"/>
                  </g>
                </g>
              </g>
            </g>
          </g>
        </g>
      </g>
    </g>
  </g>
  <path id="Path_8143" data-name="Path 8143" d="M.609-22.756l5.365-7.753H1.151v-1.53H8.5v.762L3.264-23.524H8.348v1.53H.609Zm8.377-2.9a3.665,3.665,0,0,1,.333-1.575,3.744,3.744,0,0,1,.9-1.214,4.068,4.068,0,0,1,1.307-.782A4.466,4.466,0,0,1,13.1-29.5a4.291,4.291,0,0,1,1.557.278,3.768,3.768,0,0,1,1.252.782,3.6,3.6,0,0,1,.834,1.208,3.882,3.882,0,0,1,.3,1.547,3.811,3.811,0,0,1-.316,1.571,3.624,3.624,0,0,1-.861,1.208,3.876,3.876,0,0,1-1.28.775,4.431,4.431,0,0,1-1.564.274,4.429,4.429,0,0,1-1.575-.278,3.915,3.915,0,0,1-1.283-.779,3.653,3.653,0,0,1-.861-1.2A3.688,3.688,0,0,1,8.986-25.651Zm4.082,2.442a2.015,2.015,0,0,0,.943-.206,1.884,1.884,0,0,0,.648-.545,2.293,2.293,0,0,0,.374-.786,3.547,3.547,0,0,0,.12-.926,3.42,3.42,0,0,0-.13-.957,2.326,2.326,0,0,0-.395-.789,1.872,1.872,0,0,0-.662-.535,2.109,2.109,0,0,0-.94-.2,2.031,2.031,0,0,0-.95.206,1.791,1.791,0,0,0-.641.552,2.386,2.386,0,0,0-.364.8,3.879,3.879,0,0,0-.117.964,3.238,3.238,0,0,0,.13.926,2.226,2.226,0,0,0,.395.768,1.931,1.931,0,0,0,.659.525A2.071,2.071,0,0,0,13.068-23.209Zm5.255-9.461H20.08v4.494a2.223,2.223,0,0,1,.443-.593,2.451,2.451,0,0,1,.583-.412,2.835,2.835,0,0,1,.686-.24,3.532,3.532,0,0,1,.744-.079,2.816,2.816,0,0,1,1.153.22,2.274,2.274,0,0,1,.823.607,2.579,2.579,0,0,1,.494.919,3.915,3.915,0,0,1,.165,1.163v4.6H23.4V-26.42a1.687,1.687,0,0,0-.4-1.214,1.546,1.546,0,0,0-1.17-.419,1.7,1.7,0,0,0-1.3.477,1.77,1.77,0,0,0-.449,1.266v4.316H18.324Zm7.986,7.019a3.665,3.665,0,0,1,.333-1.575,3.744,3.744,0,0,1,.9-1.214,4.068,4.068,0,0,1,1.307-.782,4.466,4.466,0,0,1,1.575-.278,4.291,4.291,0,0,1,1.557.278,3.768,3.768,0,0,1,1.252.782,3.6,3.6,0,0,1,.834,1.208,3.882,3.882,0,0,1,.3,1.547,3.811,3.811,0,0,1-.316,1.571,3.624,3.624,0,0,1-.861,1.208,3.876,3.876,0,0,1-1.28.775,4.431,4.431,0,0,1-1.564.274,4.429,4.429,0,0,1-1.575-.278,3.915,3.915,0,0,1-1.283-.779,3.653,3.653,0,0,1-.861-1.2A3.688,3.688,0,0,1,26.31-25.651Zm4.082,2.442a2.015,2.015,0,0,0,.943-.206,1.884,1.884,0,0,0,.648-.545,2.293,2.293,0,0,0,.374-.786,3.547,3.547,0,0,0,.12-.926,3.42,3.42,0,0,0-.13-.957,2.326,2.326,0,0,0-.395-.789,1.872,1.872,0,0,0-.662-.535,2.109,2.109,0,0,0-.94-.2,2.031,2.031,0,0,0-.95.206,1.792,1.792,0,0,0-.641.552,2.386,2.386,0,0,0-.364.8,3.879,3.879,0,0,0-.117.964,3.238,3.238,0,0,0,.13.926,2.226,2.226,0,0,0,.395.768,1.931,1.931,0,0,0,.659.525A2.071,2.071,0,0,0,30.392-23.209Z" transform="translate(50.525 35.045)"/>
  <path id="Path_8144" data-name="Path 8144" d="M5.605-50.039H8.766v16.351H5.605Zm6.578,4.389h2.859v1.9a3.475,3.475,0,0,1,.726-.961,4.279,4.279,0,0,1,.961-.67,4.554,4.554,0,0,1,1.128-.4,5.882,5.882,0,0,1,1.229-.128,4.467,4.467,0,0,1,1.86.357,3.5,3.5,0,0,1,1.3.994,4.176,4.176,0,0,1,.759,1.5,6.87,6.87,0,0,1,.246,1.882v7.483h-2.9v-7.2a2.981,2.981,0,0,0-.581-1.96,2.294,2.294,0,0,0-1.865-.7,2.81,2.81,0,0,0-2.105.771,2.827,2.827,0,0,0-.754,2.066v7.025H12.184Zm12.185,0h3.06l3.094,9.058,3.06-9.058h2.792L32.065-33.688H28.714Zm24,9.36a4.294,4.294,0,0,1-.944,1.335,4.9,4.9,0,0,1-1.273.871,6.007,6.007,0,0,1-1.5.475,9.066,9.066,0,0,1-1.625.145,6.88,6.88,0,0,1-2.558-.452,5.49,5.49,0,0,1-1.938-1.273,5.6,5.6,0,0,1-1.229-1.971,7.223,7.223,0,0,1-.43-2.547,6.778,6.778,0,0,1,.436-2.452,5.861,5.861,0,0,1,1.229-1.966,5.69,5.69,0,0,1,1.9-1.307,6.167,6.167,0,0,1,2.457-.475,5.321,5.321,0,0,1,4.328,1.7,7.92,7.92,0,0,1,1.424,5.166H39.793a4.34,4.34,0,0,0,.218,1.4,3.078,3.078,0,0,0,.642,1.106,2.946,2.946,0,0,0,1.05.726,3.7,3.7,0,0,0,1.441.262,3.652,3.652,0,0,0,1.754-.413,3,3,0,0,0,1.24-1.329ZM45.8-40.914a3.147,3.147,0,0,0-.832-2.139,2.733,2.733,0,0,0-2.038-.776,3.11,3.11,0,0,0-1.206.223,2.777,2.777,0,0,0-.921.614,3.237,3.237,0,0,0-.631.921,4.121,4.121,0,0,0-.335,1.156Zm5.149-4.736H53.81v1.9a3.475,3.475,0,0,1,.726-.961,4.279,4.279,0,0,1,.961-.67,4.554,4.554,0,0,1,1.128-.4,5.882,5.882,0,0,1,1.229-.128,4.467,4.467,0,0,1,1.86.357,3.5,3.5,0,0,1,1.3.994,4.177,4.177,0,0,1,.759,1.5,6.87,6.87,0,0,1,.246,1.882v7.483h-2.9v-7.2a2.981,2.981,0,0,0-.581-1.96,2.294,2.294,0,0,0-1.865-.7,2.81,2.81,0,0,0-2.105.771,2.827,2.827,0,0,0-.754,2.066v7.025H50.951ZM71.078-33.777a8.317,8.317,0,0,1-.949.212,6.324,6.324,0,0,1-1.016.078,3.783,3.783,0,0,1-2.669-.888,3.469,3.469,0,0,1-.961-2.675v-6.5H63.874v-2.1h1.608v-2.468l2.859-1.24v3.708h2.636v2.1H68.341v6.243a1.719,1.719,0,0,0,.329,1.111,1.366,1.366,0,0,0,1.122.408,3.445,3.445,0,0,0,.631-.061,4.574,4.574,0,0,0,.653-.173Zm.983-5.864A5.966,5.966,0,0,1,72.6-42.2a6.1,6.1,0,0,1,1.458-1.977,6.622,6.622,0,0,1,2.128-1.273,7.269,7.269,0,0,1,2.563-.452,6.985,6.985,0,0,1,2.535.452,6.134,6.134,0,0,1,2.038,1.273,5.86,5.86,0,0,1,1.357,1.966,6.319,6.319,0,0,1,.491,2.519,6.2,6.2,0,0,1-.514,2.558,5.9,5.9,0,0,1-1.4,1.966,6.31,6.31,0,0,1-2.083,1.262,7.213,7.213,0,0,1-2.547.447,7.21,7.21,0,0,1-2.563-.452,6.373,6.373,0,0,1-2.089-1.268,5.946,5.946,0,0,1-1.4-1.949A6,6,0,0,1,72.06-39.641Zm6.646,3.976A3.281,3.281,0,0,0,80.242-36a3.068,3.068,0,0,0,1.055-.888,3.732,3.732,0,0,0,.609-1.279,5.775,5.775,0,0,0,.2-1.508,5.567,5.567,0,0,0-.212-1.558,3.786,3.786,0,0,0-.642-1.284,3.047,3.047,0,0,0-1.078-.871,3.434,3.434,0,0,0-1.53-.318,3.307,3.307,0,0,0-1.547.335,2.916,2.916,0,0,0-1.044.9,3.884,3.884,0,0,0-.592,1.307,6.314,6.314,0,0,0-.19,1.569,5.271,5.271,0,0,0,.212,1.508,3.623,3.623,0,0,0,.642,1.251,3.144,3.144,0,0,0,1.072.854A3.371,3.371,0,0,0,78.706-35.665Zm8.555-9.985h2.859V-43.4a4.22,4.22,0,0,1,1.58-1.832,4.454,4.454,0,0,1,2.351-.592v2.647a7.514,7.514,0,0,0-1.592.156,3.185,3.185,0,0,0-1.24.542,2.574,2.574,0,0,0-.81,1.022,3.852,3.852,0,0,0-.29,1.6v6.176H87.261ZM99.849-34.905,95.158-45.65h3.06l3.138,7.64,2.926-7.64h2.781l-6.578,16.061h-2.8Z" transform="translate(45.936 67.979)"/>
</svg>
