<svg xmlns="http://www.w3.org/2000/svg" width="92" height="40" viewBox="0 0 92 40">
  <g id="desk" transform="translate(-13.8 -3.1)">
    <g id="Group_7716" data-name="Group 7716" transform="translate(55.085 7.653)">
      <g id="Group_7714" data-name="Group 7714" transform="translate(0 13.453)">
        <path id="Path_8086" data-name="Path 8086" d="M310.2,140.8h5.391c5.223,0,8.4,2.691,8.4,7.975,0,5.16-3.343,7.879-8.427,7.879H310.2Zm5.293,13.453c3.733,0,5.265-2.139,5.265-5.616,0-3.574-1.629-5.45-5.307-5.45h-2.145v11.066Z" transform="translate(-310.2 -139.807)"/>
        <path id="Path_8087" data-name="Path 8087" d="M431.74,179.127c-.975,2.042-3.078,2.746-5.223,2.746a5.672,5.672,0,0,1-6.017-6.057,5.748,5.748,0,0,1,5.892-6.016c3.788,0,5.627,2.194,5.627,6.664h-8.664a3.314,3.314,0,0,0,6.2,1.711Zm-2.521-4.484a2.7,2.7,0,0,0-2.814-2.829,3,3,0,0,0-3.022,2.829Z" transform="translate(-405.136 -164.805)"/>
        <path id="Path_8088" data-name="Path 8088" d="M515.331,178.1a2.937,2.937,0,0,0,2.9,1.683c.905,0,2.033-.276,2.033-1.38,0-1.159-1.267-1.435-2.715-1.739-1.88-.386-3.984-.842-3.984-3.449,0-2.387,2.243-3.518,4.36-3.518,1.853,0,3.984.69,4.75,2.525l-2.075.883a2.709,2.709,0,0,0-2.564-1.421c-.933,0-1.824.373-1.824,1.311,0,1.062,1.142,1.283,2.563,1.559,1.908.373,4.193.8,4.193,3.5,0,2.732-2.312,3.7-4.75,3.7-2.062,0-4.29-.69-5.014-2.773Z" transform="translate(-484.924 -164.719)"/>
        <path id="Path_8089" data-name="Path 8089" d="M599.114,133.6h2.8v10.307l4.234-5.05h3.078l-4.652,5.312,5,6.278h-3.232L601.9,144.79v5.657h-2.8V133.6Z" transform="translate(-558.859 -133.6)"/>
      </g>
      <g id="Group_7715" data-name="Group 7715" transform="translate(0.028)">
        <path id="Path_8090" data-name="Path 8090" d="M310.4,49.317l5.154-7.368h-4.624V40.5h7.048v.717l-5.029,7.368h4.875v1.449H310.4Z" transform="translate(-310.4 -39.893)"/>
        <path id="Path_8091" data-name="Path 8091" d="M372.042,58a3.6,3.6,0,0,1,3.788,3.629,3.873,3.873,0,0,1-7.73.041A3.735,3.735,0,0,1,372.042,58Zm1.978,3.629c0-1.283-.655-2.359-2.048-2.359-1.421,0-1.992,1.118-1.992,2.4a2.041,2.041,0,0,0,2.034,2.29C373.421,63.974,374.02,62.857,374.02,61.629Z" transform="translate(-360.063 -54.978)"/>
        <path id="Path_8092" data-name="Path 8092" d="M432.4,36.1h1.685v4.277a2.539,2.539,0,0,1,2.354-1.256,2.456,2.456,0,0,1,2.535,2.76v4.374h-1.7V42.047a1.379,1.379,0,0,0-1.5-1.559,1.541,1.541,0,0,0-1.685,1.656v4.1H432.4Z" transform="translate(-415.407 -36.1)"/>
        <path id="Path_8093" data-name="Path 8093" d="M491.441,58a3.6,3.6,0,0,1,3.789,3.629,3.873,3.873,0,0,1-7.73.041A3.735,3.735,0,0,1,491.441,58Zm1.978,3.629c0-1.283-.655-2.359-2.047-2.359-1.421,0-1.992,1.118-1.992,2.4a2.041,2.041,0,0,0,2.034,2.29C492.82,63.974,493.42,62.857,493.42,61.629Z" transform="translate(-462.832 -54.978)"/>
      </g>
    </g>
    <g id="Group_7717" data-name="Group 7717" transform="translate(13.8 3.1)">
      <path id="Path_8094" data-name="Path 8094" d="M14.984,43.1a1.247,1.247,0,0,1-.655-.193,1.158,1.158,0,0,1-.515-1.159l3.385-20.6a4.672,4.672,0,0,1,1.6-2.815,4.781,4.781,0,0,1,3.064-1.118H35.808l.78-4.733H35.278a1.961,1.961,0,0,1-1.5-.69,1.912,1.912,0,0,1-.446-1.573l.891-5.478A1.958,1.958,0,0,1,36.17,3.1h5.2a4.758,4.758,0,0,1,3.608,1.656A4.642,4.642,0,0,1,46.045,8.55L43.956,21.3a2,2,0,0,1-.905,1.352L31.378,29.785a1.987,1.987,0,0,1-2.27-.138l-5.432-4.291a1.145,1.145,0,0,1-.181-1.642,1.171,1.171,0,0,1,1.658-.179l5.223,4.126,11.282-6.927,2.061-12.57a2.348,2.348,0,0,0-2.326-2.718H36.532l-.766,4.691h1.3a1.961,1.961,0,0,1,1.5.69,1.912,1.912,0,0,1,.446,1.573l-.905,5.505a1.958,1.958,0,0,1-1.95,1.642H21.865a2.358,2.358,0,0,0-2.34,1.973L16.558,39.582l4.165-2.553a1.951,1.951,0,0,1,1.045-.29H37.02a2.358,2.358,0,0,0,2.34-1.973l.947-5.781a1.178,1.178,0,0,1,2.326.373l-.947,5.781a4.673,4.673,0,0,1-1.6,2.815,4.781,4.781,0,0,1-3.064,1.118H21.865L15.6,42.921A1.094,1.094,0,0,1,14.984,43.1Z" transform="translate(-13.8 -3.1)" fill="#089949"/>
    </g>
  </g>
</svg>
