<svg xmlns="http://www.w3.org/2000/svg" width="141" height="40" viewBox="0 0 141 40">
  <g id="crmplus" transform="translate(-12.395 -3.05)">
    <g id="Group_7853" data-name="Group 7853" transform="translate(55.239 7.61)">
      <g id="Group_7851" data-name="Group 7851" transform="translate(0 12.804)">
        <path id="Path_8147" data-name="Path 8147" d="M338.467,150.914a6.9,6.9,0,0,1-6.868,4.581c-5.092,0-7.9-3.242-7.9-8.223,0-4.553,3.152-8.072,7.817-8.072a7.033,7.033,0,0,1,6.8,4.277l-2.532,1.076a4.442,4.442,0,0,0-4.143-2.953c-3.344,0-4.734,2.87-4.734,5.795,0,3.049,1.514,5.657,4.8,5.657a4.515,4.515,0,0,0,4.308-3.173Z" transform="translate(-323.7 -137.779)"/>
        <path id="Path_8148" data-name="Path 8148" d="M446.6,140.8h5.725c3.165,0,5.946,1.173,5.946,4.76a4.172,4.172,0,0,1-3.5,4.25l4.445,6.83h-3.3l-4.115-6.388h-2.133v6.388H446.6Zm5.643,7.34c1.762,0,3.055-.676,3.055-2.566,0-1.959-1.376-2.428-3.055-2.428h-2.574v4.995Z" transform="translate(-429.686 -139.158)"/>
        <path id="Path_8149" data-name="Path 8149" d="M553,140.8h3.881l4.556,11.549,4.528-11.549h3.785v15.853h-2.835V144.567l-4.982,12.087H560.57l-4.817-12.087v12.087H553Z" transform="translate(-521.442 -139.158)"/>
        <path id="Path_8150" data-name="Path 8150" d="M733.414,140.8h5.491c3.331,0,5.932,1.338,5.932,4.995,0,4.015-3.165,4.884-6.551,4.884h-1.817v5.974H733.4V140.8Zm5.478,7.671c1.885,0,2.959-.786,2.959-2.691,0-1.987-1.17-2.635-2.959-2.635h-2.409v5.34h2.409Z" transform="translate(-677.014 -139.158)"/>
        <path id="Path_8151" data-name="Path 8151" d="M832.1,130.1l2.766-1.2v17.5H832.1Z" transform="translate(-762.13 -128.9)"/>
        <path id="Path_8152" data-name="Path 8152" d="M881.772,181.382a4.087,4.087,0,0,1-3.812,2.042c-2.656,0-4.06-1.752-4.06-4.388v-7.423h2.766v7.078c0,1.587.729,2.553,2.34,2.553a2.594,2.594,0,0,0,2.78-2.773V171.6h2.753v11.59h-2.753v-1.807Z" transform="translate(-798.177 -165.708)"/>
        <path id="Path_8153" data-name="Path 8153" d="M968.906,178.1a2.9,2.9,0,0,0,2.863,1.683c.895,0,2.009-.276,2.009-1.38,0-1.159-1.252-1.435-2.684-1.738-1.858-.386-3.936-.842-3.936-3.449,0-2.387,2.216-3.518,4.308-3.518,1.83,0,3.936.69,4.693,2.525l-2.051.883a2.669,2.669,0,0,0-2.532-1.421c-.922,0-1.8.373-1.8,1.311,0,1.062,1.129,1.283,2.532,1.559,1.885.373,4.143.8,4.143,3.5,0,2.732-2.285,3.7-4.693,3.7-2.037,0-4.239-.69-4.955-2.773Z" transform="translate(-878.292 -164.071)"/>
      </g>
      <g id="Group_7852" data-name="Group 7852" transform="translate(0.812)">
        <path id="Path_8154" data-name="Path 8154" d="M329.6,49.317l5.092-7.368h-4.569V40.5h6.964v.717l-4.968,7.368h4.817v1.449H329.6Z" transform="translate(-329.6 -39.893)"/>
        <path id="Path_8155" data-name="Path 8155" d="M391.295,58a3.574,3.574,0,0,1,3.743,3.629,3.825,3.825,0,0,1-7.638.041A3.709,3.709,0,0,1,391.295,58Zm1.954,3.629c0-1.283-.647-2.359-2.023-2.359-1.4,0-1.968,1.118-1.968,2.4a2.032,2.032,0,0,0,2.009,2.29C392.657,63.974,393.249,62.857,393.249,61.629Z" transform="translate(-379.445 -54.978)"/>
        <path id="Path_8156" data-name="Path 8156" d="M451.7,36.1h1.665v4.277a2.5,2.5,0,0,1,2.326-1.256,2.444,2.444,0,0,1,2.5,2.76v4.374h-1.679V42.047a1.372,1.372,0,0,0-1.486-1.559,1.532,1.532,0,0,0-1.665,1.656v4.1H451.7Z" transform="translate(-434.896 -36.1)"/>
        <path id="Path_8157" data-name="Path 8157" d="M510.595,58a3.574,3.574,0,0,1,3.743,3.629,3.825,3.825,0,0,1-7.638.041A3.709,3.709,0,0,1,510.595,58Zm1.954,3.629c0-1.283-.647-2.359-2.023-2.359-1.4,0-1.968,1.118-1.968,2.4a2.032,2.032,0,0,0,2.009,2.29C511.971,63.974,512.549,62.857,512.549,61.629Z" transform="translate(-482.326 -54.978)"/>
      </g>
    </g>
    <path id="Path_8158" data-name="Path 8158" d="M47.16,13.419a.847.847,0,0,0-.385-.662l-16.612-9.6a.8.8,0,0,0-.784,0l-16.6,9.6a.772.772,0,0,0-.385.676v19.22a.794.794,0,0,0,.385.676l16.612,9.617a.79.79,0,0,0,.784,0l16.612-9.6a.765.765,0,0,0,.385-.676V13.446A.043.043,0,0,1,47.16,13.419Zm-12.5,11.549a.014.014,0,0,1-.014-.014.05.05,0,0,0-.041-.014c-.014,0-.028-.014-.041-.014s-.028-.014-.041-.014-.028-.014-.041-.014-.014-.014-.028-.014-.028-.014-.041-.014h-.289c-.014,0-.028.014-.041.014s-.014,0-.028.014-.028.014-.041.014-.028.014-.041.014-.028.014-.041.014a.05.05,0,0,1-.041.014.014.014,0,0,0-.014.014l-6.537,3.767h0a2.167,2.167,0,0,1-2.216-.055,3.757,3.757,0,0,1-.523-.317l5.615-4.677,15.373-8.9V31.259ZM29.778,4.726l15.043,8.72L36.4,18.317a.494.494,0,0,0-.138-.1l-6.1-3.532a.8.8,0,0,0-.784,0l-6.166,3.574c-.014.014-.041.028-.055.041l-8.423-4.857ZM13.951,14.8,26.6,22.084a.819.819,0,0,0,.385.11.762.762,0,0,0,.674-.386.792.792,0,0,0-.289-1.076L24.727,19.2l5.051-2.925,5.078,2.939-5.464,3.16c-.041.028-.069.041-.11.069L22.9,27.754a107086.625,107086.625,0,0,0-.028.028l-.014.014-.028.028-.028.028c-.014.014-.014.028-.028.028s-.014.014-.014.028a.051.051,0,0,0-.014.041c-.014.014-.014.014-.014.028s-.014.028-.014.041-.014.028-.014.041-.014.028-.014.041-.014.028-.014.041-.014.028-.014.041-.014.028-.014.041a.051.051,0,0,1-.014.041v.29a184268152849.6,184268152849.6,0,0,1,.028.083c0,.014.014.028.014.041s.014.028.014.041.014.028.014.041.014.028.014.041.014.014.014.028.014.028.028.041.014.014.014.028.014.028.028.041a.014.014,0,0,0,.014.014c.014.014.014.028.028.041h0a6.6,6.6,0,0,0,1.569,1.159,4.311,4.311,0,0,0,1.968.511,3.579,3.579,0,0,0,1.775-.483h0l6.152-3.546,10.57,6.1-4,2.318c-.028-.014-6.813-3.96-6.813-3.96a.788.788,0,0,0-.784,1.366l6.042,3.5-3.95,2.29c-.014-.014-6.881-3.96-6.881-3.96A.788.788,0,0,0,27.7,35.66l6.1,3.5-3.991,2.3L13.978,32.308V14.8Z" fill="#226db4"/>
  </g>
</svg>
