<svg xmlns="http://www.w3.org/2000/svg" width="85" height="40" viewBox="0 0 85 40">
  <g id="one" transform="translate(-12.733 -3.05)">
    <g id="Group_7856" data-name="Group 7856" transform="translate(55.292 7.609)">
      <g id="Group_7854" data-name="Group 7854" transform="translate(0 14.223)">
        <path id="Path_8159" data-name="Path 8159" d="M324,147.284a7.85,7.85,0,0,1,8.149-8.084c4.731,0,7.93,3.407,7.93,8.126a7.774,7.774,0,0,1-8.067,8.167C327.241,155.479,324,152.1,324,147.284Zm12.907.055c0-3.1-1.613-5.711-4.95-5.711-3.364,0-4.8,2.635-4.8,5.808,0,2.98,1.764,5.615,4.991,5.615C335.472,153.051,336.907,150.278,336.907,147.339Z" transform="translate(-324 -139.2)"/>
        <path id="Path_8160" data-name="Path 8160" d="M458.5,170.135h2.748v1.849a4.185,4.185,0,0,1,3.883-2.083c2.762,0,4.006,1.959,4.006,4.594v7.256h-2.789V174.77c0-1.628-.725-2.58-2.352-2.58a2.547,2.547,0,0,0-2.748,2.745v6.815H458.5Z" transform="translate(-440.11 -165.665)"/>
        <path id="Path_8161" data-name="Path 8161" d="M562.734,179.126c-.957,2.042-3.022,2.745-5.127,2.745-3.623,0-5.907-2.442-5.907-6.056a5.7,5.7,0,0,1,5.784-6.015c3.719,0,5.524,2.193,5.524,6.663h-8.5a3.078,3.078,0,0,0,3.213,3.394,3.013,3.013,0,0,0,2.871-1.683Zm-2.461-4.484a2.671,2.671,0,0,0-2.762-2.828,2.971,2.971,0,0,0-2.967,2.828Z" transform="translate(-520.567 -165.579)"/>
      </g>
      <g id="Group_7855" data-name="Group 7855" transform="translate(0.82)">
        <path id="Path_8162" data-name="Path 8162" d="M330,49.315l5.059-7.367H330.52V40.5h6.919v.717L332.5,48.584h4.786v1.449H330Z" transform="translate(-330 -39.893)"/>
        <path id="Path_8163" data-name="Path 8163" d="M391.569,58a3.561,3.561,0,0,1,3.719,3.628,3.8,3.8,0,0,1-7.588.041A3.7,3.7,0,0,1,391.569,58Zm1.942,3.628c0-1.283-.643-2.359-2.01-2.359-1.395,0-1.955,1.117-1.955,2.4a2.027,2.027,0,0,0,2,2.29C392.937,63.973,393.511,62.856,393.511,61.628Z" transform="translate(-379.811 -54.979)"/>
        <path id="Path_8164" data-name="Path 8164" d="M452.014,36.1h1.654v4.277a2.482,2.482,0,0,1,2.311-1.255c1.654,0,2.488,1.173,2.488,2.759v4.373h-1.682V42.046a1.367,1.367,0,0,0-1.477-1.559,1.526,1.526,0,0,0-1.654,1.655v4.1H452V36.1Z" transform="translate(-435.319 -36.1)"/>
        <path id="Path_8165" data-name="Path 8165" d="M510.97,58a3.561,3.561,0,0,1,3.719,3.628,3.8,3.8,0,0,1-7.588.041A3.7,3.7,0,0,1,510.97,58Zm1.942,3.628c0-1.283-.643-2.359-2.01-2.359-1.395,0-1.955,1.117-1.955,2.4a2.027,2.027,0,0,0,2,2.29C512.323,63.973,512.911,62.856,512.911,61.628Z" transform="translate(-482.885 -54.979)"/>
      </g>
    </g>
    <g id="Group_7866" data-name="Group 7866" transform="translate(12.733 3.05)">
      <g id="Group_7857" data-name="Group 7857" transform="translate(16.503 9.595)">
        <path id="Path_8166" data-name="Path 8166" d="M134.208,103.005a.757.757,0,0,1-.67-.386.8.8,0,0,1,.287-1.076l16.107-9.381V73.386a.779.779,0,1,1,1.559,0V92.6a.8.8,0,0,1-.383.676l-16.5,9.615A.908.908,0,0,1,134.208,103.005Z" transform="translate(-133.433 -72.6)" fill="#e42527"/>
      </g>
      <g id="Group_7858" data-name="Group 7858" transform="translate(0.009 9.609)">
        <path id="Path_8167" data-name="Path 8167" d="M30.069,103.091a.768.768,0,0,1-.383-.11l-16.5-9.6A.766.766,0,0,1,12.8,92.7V73.486a.779.779,0,1,1,1.559,0V92.262l16.107,9.381a.807.807,0,0,1,.287,1.076A.849.849,0,0,1,30.069,103.091Z" transform="translate(-12.8 -72.7)" fill="#f9b21d"/>
      </g>
      <g id="Group_7859" data-name="Group 7859" transform="translate(0 0)">
        <path id="Path_8168" data-name="Path 8168" d="M46.5,14.217a.768.768,0,0,1-.383-.11L30.011,4.726,13.9,14.107a.78.78,0,0,1-1.066-.29.8.8,0,0,1,.287-1.076l16.49-9.588a.786.786,0,0,1,.779,0l16.5,9.6a.807.807,0,0,1,.287,1.076A.794.794,0,0,1,46.5,14.217Z" transform="translate(-12.733 -3.05)" fill="#226db4"/>
      </g>
      <g id="Group_7860" data-name="Group 7860" transform="translate(16.503 15.361)">
        <path id="Path_8169" data-name="Path 8169" d="M134.208,127.506a.757.757,0,0,1-.67-.386.8.8,0,0,1,.287-1.076l6.208-3.614v-7.243a.779.779,0,1,1,1.559,0v7.684a.8.8,0,0,1-.383.676l-6.6,3.849A.754.754,0,0,1,134.208,127.506Z" transform="translate(-133.433 -114.4)" fill="#e42527"/>
      </g>
      <g id="Group_7861" data-name="Group 7861" transform="translate(9.908 15.375)">
        <path id="Path_8170" data-name="Path 8170" d="M92.57,127.592a.768.768,0,0,1-.383-.11l-6.6-3.835a.766.766,0,0,1-.383-.676v-7.684a.779.779,0,1,1,1.559,0v7.229l6.208,3.614a.807.807,0,0,1,.287,1.076A.829.829,0,0,1,92.57,127.592Z" transform="translate(-85.2 -114.5)" fill="#f9b21d"/>
      </g>
      <g id="Group_7862" data-name="Group 7862" transform="translate(9.886 11.505)">
        <path id="Path_8171" data-name="Path 8171" d="M99.016,91.879a.768.768,0,0,1-.383-.11l-6.208-3.614L86.2,91.768a.78.78,0,0,1-1.066-.29.8.8,0,0,1,.287-1.076l6.6-3.849a.786.786,0,0,1,.779,0l6.6,3.849a.807.807,0,0,1,.287,1.076A.779.779,0,0,1,99.016,91.879Z" transform="translate(-85.033 -86.45)" fill="#226db4"/>
      </g>
      <g id="Group_7863" data-name="Group 7863" transform="translate(0.006 9.605)">
        <path id="Path_8172" data-name="Path 8172" d="M30.049,83.855a.768.768,0,0,1-.383-.11l-16.5-9.6a.807.807,0,0,1-.287-1.076.792.792,0,0,1,1.066-.29l16.5,9.6a.793.793,0,0,1-.4,1.476Z" transform="translate(-12.777 -72.677)" fill="#089949"/>
      </g>
      <g id="Group_7864" data-name="Group 7864" transform="translate(16.503 9.613)">
        <path id="Path_8173" data-name="Path 8173" d="M134.208,83.9a.757.757,0,0,1-.67-.386.8.8,0,0,1,.287-1.076l16.5-9.6a.78.78,0,0,1,1.066.29.8.8,0,0,1-.287,1.076l-16.5,9.6A1.109,1.109,0,0,1,134.208,83.9Z" transform="translate(-133.433 -72.733)" fill="#089949"/>
      </g>
      <g id="Group_7865" data-name="Group 7865" transform="translate(16.499 19.21)">
        <path id="Path_8174" data-name="Path 8174" d="M134.179,163.09a.791.791,0,0,1-.779-.786V143.086a.779.779,0,1,1,1.559,0V162.3A.8.8,0,0,1,134.179,163.09Z" transform="translate(-133.4 -142.3)" fill="#089949"/>
      </g>
    </g>
  </g>
</svg>
