<svg width="69" height="70" viewBox="0 0 69 70" fill="none" xmlns="http://www.w3.org/2000/svg">
<path d="M53.8839 45.2848C52.9038 45.2848 52.0192 45.6962 51.3846 46.3515L47.5304 43.8585C47.376 43.7575 47.1947 43.7058 47.0109 43.7058H33.1005C32.5688 43.7058 32.14 44.1369 32.14 44.6714C32.14 45.206 32.5713 45.6371 33.1005 45.6371H46.7292L50.4733 48.0586C50.4219 48.295 50.3949 48.5414 50.3949 48.7927C50.3949 50.7289 51.9606 52.303 53.8841 52.303C55.8076 52.303 57.3758 50.7289 57.3758 48.7927C57.3733 46.8589 55.8074 45.2848 53.8839 45.2848ZM53.8839 50.3693C53.019 50.3693 52.3158 49.6623 52.3158 48.7927C52.3158 48.5759 52.3599 48.3715 52.4383 48.1843V48.1818C52.4407 48.1793 52.4407 48.1769 52.4407 48.1744C52.6808 47.6128 53.237 47.2186 53.8815 47.2186C54.7465 47.2186 55.4497 47.9256 55.4497 48.7952C55.4521 49.6623 54.7489 50.3693 53.8839 50.3693Z" fill="black"/>
<path d="M50.3925 26.8832C50.3925 27.1345 50.4219 27.3808 50.4709 27.6173L46.7269 30.0388L33.1006 30.0364C32.5689 30.0364 32.1401 30.4675 32.1401 31.002C32.1401 31.5365 32.5714 31.9676 33.1006 31.9676H47.011C47.1948 31.9676 47.3761 31.9159 47.5305 31.8149L51.3848 29.3244C52.0194 29.9797 52.9039 30.391 53.8841 30.391C55.8075 30.391 57.3757 28.8169 57.3757 26.8807C57.3757 24.9445 55.81 23.3704 53.8841 23.3704C51.9581 23.3728 50.3925 24.947 50.3925 26.8832ZM53.8842 25.3066C54.7491 25.3066 55.4523 26.0136 55.4523 26.8832C55.4523 27.7528 54.7491 28.4598 53.8842 28.4598C53.2373 28.4598 52.6811 28.0632 52.4409 27.4991C52.4409 27.4966 52.4409 27.4942 52.4385 27.4942C52.3601 27.3069 52.316 27.1 52.316 26.8832C52.316 26.0137 53.0192 25.3066 53.8842 25.3066Z" fill="black"/>
<path d="M60.7275 34.3278C59.1372 34.3278 57.8092 35.4067 57.3877 36.87L28.9961 36.8724C28.4644 36.8724 28.0356 37.3035 28.0356 37.838C28.0356 38.3726 28.4669 38.8037 28.9961 38.8037H57.3903C57.8117 40.2669 59.1398 41.3459 60.73 41.3459C62.6534 41.3459 64.2192 39.7717 64.2192 37.8355C64.2192 35.9018 62.6534 34.3278 60.7275 34.3278ZM60.7275 39.4147C59.8625 39.4147 59.1593 38.7077 59.1593 37.8381C59.1593 36.9685 59.8625 36.2615 60.7275 36.2615C61.5924 36.2615 62.2956 36.9685 62.2956 37.8381C62.2956 38.7077 61.5924 39.4147 60.7275 39.4147Z" fill="black"/>
<path d="M34.5759 22.6976C35.1076 22.6976 35.5363 22.2665 35.5363 21.732C35.5363 21.1974 35.1051 20.7664 34.5759 20.7664C25.2132 20.7664 17.5956 28.4254 17.5956 37.8375C17.5956 47.2497 25.2138 54.9087 34.5759 54.9087C35.1076 54.9087 35.5363 54.4776 35.5363 53.9431C35.5363 53.4085 35.1051 52.9775 34.5759 52.9775C26.272 52.9775 19.5188 46.1856 19.5188 37.8373C19.5188 29.489 26.2745 22.6976 34.5759 22.6976Z" fill="black"/>
<path d="M48.6356 53.8276C46.793 53.8276 45.2934 55.3351 45.2934 57.1852C45.2934 57.4118 45.3179 57.6335 45.3596 57.8478C43.762 58.7199 42.059 59.4097 40.2752 59.8777C39.9273 59.9688 39.6577 60.2497 39.5793 60.6044L38.4227 65.8588H30.7286L29.572 60.6044C29.4936 60.2496 29.2241 59.9688 28.8761 59.8777C26.84 59.3431 24.8994 58.5352 23.1106 57.4759C22.7994 57.2936 22.4123 57.2985 22.1084 57.4931L17.5877 60.3851L12.1456 54.9164L15.0222 50.3714C15.2158 50.066 15.2231 49.6743 15.0394 49.3639C13.9882 47.5656 13.1845 45.6146 12.6528 43.5675C12.5621 43.2177 12.2828 42.9467 11.93 42.8679L6.70352 41.7051V33.9698L11.93 32.807C12.2828 32.7282 12.5597 32.4597 12.6528 32.1074C13.1869 30.0579 13.9882 28.1068 15.0394 26.311C15.2231 25.9982 15.2158 25.6089 15.0222 25.3035L12.1456 20.7585L17.5877 15.2873L22.1084 18.1793C22.4123 18.3764 22.8019 18.3813 23.1106 18.1965C24.8969 17.1397 26.8375 16.3318 28.8761 15.7972C29.2241 15.706 29.4936 15.4252 29.572 15.0705L30.7286 9.81609H38.4252L39.5818 15.0705C39.6602 15.4252 39.9298 15.7061 40.2777 15.7972C42.064 16.2652 43.7669 16.955 45.3621 17.8271C45.318 18.0414 45.2959 18.2631 45.2959 18.4897C45.2959 20.3422 46.7955 21.8498 48.6381 21.8498C50.4807 21.8498 51.9803 20.3422 51.9803 18.4897C51.9803 16.6372 50.4807 15.1321 48.6381 15.1321C47.7143 15.1321 46.8788 15.5115 46.2736 16.1224C44.7127 15.2725 43.0612 14.5828 41.3362 14.0851L40.138 8.64104C40.0376 8.19763 39.6455 7.88232 39.1947 7.88232H29.9568C29.506 7.88232 29.1164 8.19764 29.0184 8.64104L27.8202 14.0851C26.0094 14.6074 24.2771 15.3267 22.65 16.2357L17.9676 13.2427C17.5878 12.9988 17.0904 13.053 16.7719 13.3757L10.242 19.9381C9.92343 20.2583 9.86952 20.7584 10.1096 21.1402L13.0892 25.8477C12.185 27.4809 11.4671 29.225 10.9476 31.0455L5.5325 32.2501C5.0939 32.3486 4.78027 32.7403 4.78027 33.1936V42.4828C4.78027 42.9361 5.09391 43.3277 5.53495 43.4263L10.9501 44.6284C11.4695 46.4488 12.1875 48.1904 13.0916 49.8262L10.1121 54.5337C9.86951 54.9155 9.92587 55.4156 10.2444 55.7358L16.7768 62.3007C17.0954 62.6209 17.5928 62.6776 17.9725 62.4337L22.655 59.4407C24.282 60.3497 26.0144 61.0714 27.8251 61.5912L29.0233 67.0353C29.1164 67.4763 29.506 67.7916 29.9569 67.7916H39.1966C39.6475 67.7916 40.037 67.4763 40.1351 67.0329L41.3333 61.5888C43.0583 61.0912 44.7098 60.4014 46.2706 59.5515C46.8758 60.1624 47.7139 60.5418 48.6376 60.5418C50.4802 60.5418 51.9798 59.0342 51.9798 57.1817C51.9773 55.3342 50.4777 53.8266 48.6351 53.8266L48.6356 53.8276ZM48.6356 17.0637C49.4172 17.0637 50.0543 17.7042 50.0543 18.49C50.0543 19.2758 49.4172 19.9163 48.6356 19.9163C47.8539 19.9163 47.2169 19.2758 47.2169 18.49C47.2169 17.7042 47.8539 17.0637 48.6356 17.0637ZM48.6356 58.614C47.8539 58.614 47.2169 57.9736 47.2169 57.1877C47.2169 56.4019 47.8539 55.7615 48.6356 55.7615C49.4172 55.7615 50.0543 56.4019 50.0543 57.1877C50.0543 57.9736 49.4172 58.614 48.6356 58.614Z" fill="black"/>
</svg>
