<svg width="50" height="50" viewBox="0 0 50 50" fill="none" xmlns="http://www.w3.org/2000/svg">
<path d="M13.6719 11.9141V7.56563C13.6719 5.83496 15.0879 4.41895 16.8186 4.41895H33.1814C34.9122 4.41895 36.3281 5.83496 36.3281 7.56563V11.9141M46.582 25.9766V42.6514C46.582 44.2624 45.2634 45.5811 43.6523 45.5811H6.34766C4.73662 45.5811 3.41797 44.2627 3.41797 42.6514V26.0742" stroke="#F48120" stroke-width="2.92969" stroke-miterlimit="22.9256" stroke-linecap="round" stroke-linejoin="round"/>
<path d="M21.0938 30.9082C10.7628 30.3175 1.46484 27.3633 1.46484 22.0456V15.1123C1.46484 13.4987 2.78086 12.1826 4.39453 12.1826H45.6055C47.219 12.1826 48.5352 13.4988 48.5352 15.1123V22.0456C48.5352 27.3966 39.1197 30.3544 28.7109 30.919" stroke="#F48120" stroke-width="2.92969" stroke-miterlimit="22.9256" stroke-linecap="round" stroke-linejoin="round"/>
<path fill-rule="evenodd" clip-rule="evenodd" d="M21.3867 28.0029H28.6133V31.3721C28.6133 33.2251 27.0972 34.7412 25.2441 34.7412H24.7559C22.9028 34.7412 21.3867 33.2251 21.3867 31.3721V28.0029Z" stroke="#F48120" stroke-width="2.92969" stroke-miterlimit="22.9256" stroke-linecap="round" stroke-linejoin="round"/>
</svg>
