<svg width="21" height="21" viewBox="0 0 21 21" fill="none" xmlns="http://www.w3.org/2000/svg">
<path d="M8.62785 13.7415L5.05389 10.1667L6.24493 8.97569L8.62785 11.3578L13.392 6.59277L14.5839 7.78465L8.62785 13.7415Z" fill="black"/>
<path fill-rule="evenodd" clip-rule="evenodd" d="M0.842316 10.1078C0.842316 4.9907 4.99073 0.842285 10.1078 0.842285C15.2249 0.842285 19.3733 4.9907 19.3733 10.1078C19.3733 15.2249 15.2249 19.3733 10.1078 19.3733C4.99073 19.3733 0.842316 15.2249 0.842316 10.1078ZM10.1078 17.6886C9.11228 17.6886 8.12649 17.4926 7.20674 17.1116C6.28699 16.7306 5.45128 16.1722 4.74733 15.4683C4.04339 14.7643 3.48498 13.9286 3.10401 13.0089C2.72304 12.0891 2.52695 11.1033 2.52695 10.1078C2.52695 9.11225 2.72304 8.12646 3.10401 7.20671C3.48498 6.28696 4.04339 5.45125 4.74733 4.7473C5.45128 4.04336 6.28699 3.48495 7.20674 3.10398C8.12649 2.72301 9.11228 2.52692 10.1078 2.52692C12.1184 2.52692 14.0466 3.32562 15.4683 4.7473C16.89 6.16899 17.6887 8.09721 17.6887 10.1078C17.6887 12.1184 16.89 14.0466 15.4683 15.4683C14.0466 16.8899 12.1184 17.6886 10.1078 17.6886Z" fill="black"/>
</svg>
