<svg width="51" height="51" viewBox="0 0 51 51" fill="none" xmlns="http://www.w3.org/2000/svg">
<path d="M43.247 7.90093L46.283 7.64609L46.0378 4.72496L37.7343 5.42185L38.4313 13.7254L41.3524 13.4802L41.0471 9.84297C44.9495 13.9221 47.1419 19.3313 47.1419 25.0731C47.1419 30.9678 44.8463 36.5097 40.6782 40.6779C36.51 44.8462 30.9681 47.1417 25.0733 47.1417C19.1786 47.1417 13.6366 44.8463 9.46837 40.6781C5.30013 36.51 3.00466 30.968 3.00466 25.0733C3.00466 19.1786 5.30023 13.6366 9.46837 9.46834C13.6365 5.3001 19.1785 3.00463 25.0733 3.00463V0.0732422C18.3956 0.0732422 12.1176 2.67368 7.39568 7.39565C2.67371 12.1174 0.0732727 18.3955 0.0732727 25.0733C0.0732727 31.7511 2.67371 38.029 7.39568 42.7509C12.1176 47.4728 18.3956 50.0733 25.0733 50.0733C31.751 50.0733 38.0291 47.4729 42.751 42.7509C47.4728 38.029 50.0734 31.751 50.0734 25.0733C50.0733 18.6069 47.6193 12.5125 43.247 7.90093Z" fill="#F48120" stroke="#F48120" stroke-width="0.146569"/>
<path d="M23.6076 13.0667V9.63184C16.2224 10.3274 10.3276 16.2221 9.63205 23.6074H13.067V26.5388H9.63205C10.3276 33.9241 16.2223 39.8189 23.6076 40.5144V37.0795H26.539V40.5144C33.9243 39.8189 39.8191 33.9242 40.5146 26.5388H37.0797V23.6074H40.5146C39.8191 16.2222 33.9244 10.3274 26.539 9.63184V13.0667H23.6076ZM26.539 25.7553L21.0235 30.3962L19.1362 28.1532L23.6076 24.3909V16.1492H26.539V25.7553Z" fill="#F48120" stroke="#F48120" stroke-width="0.146569"/>
</svg>
