<svg width="50" height="50" viewBox="0 0 50 50" fill="none" xmlns="http://www.w3.org/2000/svg">
<path d="M46.0938 36.6172H40.5164L39.8078 34.4844L40.5164 32.3516H46.0938C46.2254 32.3516 46.3549 32.3184 46.4702 32.255C46.5856 32.1916 46.6831 32.1001 46.7536 31.9889C46.8241 31.8778 46.8654 31.7506 46.8737 31.6193C46.8819 31.4879 46.8569 31.3566 46.8008 31.2375C46.1849 29.9385 45.2122 28.8415 43.9963 28.0745C42.7803 27.3076 41.3713 26.9024 39.9337 26.9063C38.4961 26.9101 37.0892 27.3229 35.8774 28.0963C34.6656 28.8697 33.6988 29.9719 33.0899 31.2742H16.9102C16.3396 30.0385 15.4415 28.9826 14.3133 28.2211C14.2285 28.1607 14.1325 28.1179 14.0309 28.0952C13.9293 28.0724 13.8242 28.0702 13.7217 28.0887C13.6193 28.1071 13.5216 28.1459 13.4343 28.2026C13.347 28.2594 13.272 28.333 13.2136 28.4192C13.1552 28.5053 13.1146 28.6023 13.0941 28.7044C13.0737 28.8064 13.0739 28.9116 13.0947 29.0136C13.1155 29.1156 13.1565 29.2124 13.2152 29.2983C13.2739 29.3843 13.3493 29.4576 13.4367 29.5141C14.4519 30.1998 15.2287 31.1844 15.6594 32.3312C15.7155 32.4798 15.8155 32.6078 15.9461 32.6981C16.0768 32.7884 16.2318 32.8368 16.3906 32.8367H33.6094C33.7683 32.8367 33.9234 32.7883 34.0541 32.6978C34.1847 32.6074 34.2847 32.4792 34.3406 32.3305C34.7758 31.1947 35.5452 30.2176 36.5473 29.5281C37.5493 28.8387 38.7368 28.4693 39.9531 28.4687C40.8711 28.4625 41.778 28.6687 42.603 29.0712C43.428 29.4737 44.1486 30.0617 44.7086 30.7891H39.9531C39.789 30.7891 39.629 30.8408 39.496 30.9368C39.3629 31.0329 39.2634 31.1684 39.2117 31.3242L38.243 34.2383C38.1897 34.398 38.1897 34.5707 38.243 34.7305L39.2117 37.6445C39.2635 37.8004 39.363 37.9361 39.4963 38.0321C39.6295 38.1282 39.7897 38.1798 39.9539 38.1797H44.7086C44.1486 38.9071 43.428 39.495 42.603 39.8976C41.778 40.3001 40.8711 40.5063 39.9531 40.5C38.7369 40.4995 37.5494 40.1303 36.5474 39.4409C35.5454 38.7516 34.776 37.7747 34.3406 36.6391C34.2847 36.4903 34.1847 36.3622 34.0541 36.2717C33.9234 36.1813 33.7683 36.1328 33.6094 36.1328H31.4453C31.2381 36.1328 31.0394 36.2151 30.8929 36.3616C30.7464 36.5081 30.6641 36.7069 30.6641 36.9141C30.6641 37.1213 30.7464 37.32 30.8929 37.4665C31.0394 37.613 31.2381 37.6953 31.4453 37.6953H33.0899C33.6988 38.9976 34.6656 40.0998 35.8774 40.8732C37.0892 41.6467 38.4961 42.0594 39.9337 42.0633C41.3713 42.0671 42.7803 41.6619 43.9963 40.895C45.2122 40.1281 46.1849 39.031 46.8008 37.732C46.857 37.6129 46.8823 37.4815 46.8741 37.35C46.8659 37.2185 46.8247 37.0913 46.7541 36.98C46.6836 36.8688 46.586 36.7772 46.4706 36.7137C46.3551 36.6503 46.2255 36.6171 46.0938 36.6172Z" fill="#F48120" stroke="#F48120" stroke-width="1.17188"/>
<path d="M28.3203 36.133H16.3906C16.2317 36.133 16.0766 36.1815 15.9459 36.2719C15.8152 36.3624 15.7153 36.4905 15.6593 36.6393C15.2242 37.775 14.4548 38.7522 13.4527 39.4416C12.4507 40.1311 11.2632 40.5004 10.0468 40.501C9.12892 40.5073 8.22198 40.3011 7.39699 39.8985C6.572 39.496 5.85134 38.9081 5.29138 38.1807H10.0468C10.211 38.1807 10.3709 38.1289 10.504 38.0329C10.6371 37.9368 10.7366 37.8013 10.7883 37.6455L11.757 34.7315C11.8104 34.5715 11.8104 34.3985 11.757 34.2385L10.7883 31.3244C10.7365 31.1685 10.6369 31.0329 10.5037 30.9368C10.3705 30.8407 10.2103 30.7891 10.0461 30.7893H5.29216C5.85212 30.0619 6.57279 29.4739 7.39777 29.0714C8.22276 28.6689 9.1297 28.4627 10.0476 28.469C10.3108 28.47 10.5737 28.4888 10.8343 28.5252C11.0398 28.5528 11.2478 28.4976 11.4125 28.3718C11.5773 28.246 11.6853 28.0599 11.7129 27.8545C11.7404 27.6491 11.6852 27.4411 11.5595 27.2763C11.4337 27.1116 11.2476 27.0035 11.0422 26.976C10.7126 26.9306 10.3803 26.9073 10.0476 26.9065C8.61379 26.9084 7.2098 27.3163 5.99802 28.0827C4.78624 28.8492 3.81616 29.943 3.19997 31.2377C3.14393 31.3567 3.11885 31.488 3.12706 31.6193C3.13528 31.7506 3.17652 31.8777 3.24696 31.9888C3.3174 32.0999 3.41476 32.1915 3.53001 32.2549C3.64526 32.3184 3.77466 32.3517 3.90622 32.3518H9.48357L10.1922 34.4846L9.48357 36.6174H3.90622C3.77449 36.6173 3.64487 36.6505 3.52942 36.7139C3.41397 36.7774 3.31643 36.869 3.24588 36.9802C3.17533 37.0915 3.13405 37.2188 3.12589 37.3502C3.11773 37.4817 3.14294 37.6131 3.19919 37.7322C3.81506 39.0312 4.78775 40.1283 6.00371 40.8952C7.21967 41.6621 8.6287 42.0673 10.0663 42.0635C11.5039 42.0596 12.9108 41.6469 14.1226 40.8734C15.3344 40.1 16.3012 38.9978 16.9101 37.6955H28.3203C28.5275 37.6955 28.7262 37.6132 28.8727 37.4667C29.0192 37.3202 29.1015 37.1215 29.1015 36.9143C29.1015 36.7071 29.0192 36.5084 28.8727 36.3618C28.7262 36.2153 28.5275 36.133 28.3203 36.133ZM21.2109 15.0041L20.8476 16.6041C20.7641 16.956 20.7874 17.3249 20.9146 17.6635C21.0418 18.0021 21.2671 18.295 21.5617 18.5049C22.7429 19.4221 23.975 18.3447 25 17.7565L26.4101 18.5971C26.7201 18.7819 27.0774 18.8717 27.4379 18.8554C27.7984 18.839 28.1462 18.7172 28.4381 18.5051C28.73 18.2931 28.9533 18 29.0803 17.6622C29.2072 17.3244 29.2323 16.9568 29.1523 16.6049L28.7883 15.0041L30.0242 13.9229C30.2914 13.6832 30.4833 13.3711 30.5766 13.0245C30.6699 12.6778 30.6606 12.3116 30.5497 11.9702C30.4388 11.6288 30.2313 11.3269 29.9521 11.1011C29.673 10.8754 29.3344 10.7356 28.9773 10.6986L27.3422 10.5502L26.6945 9.04005C26.5492 8.71183 26.3117 8.43287 26.0109 8.23706C25.7101 8.04125 25.3589 7.93701 25 7.93701C24.641 7.93701 24.2898 8.04125 23.989 8.23706C23.6882 8.43287 23.4507 8.71183 23.3054 9.04005L22.6578 10.5494L21.0226 10.6986C20.6632 10.7313 20.3212 10.8687 20.0391 11.0939C19.757 11.3191 19.5472 11.6221 19.4357 11.9654C19.3243 12.3088 19.316 12.6772 19.412 13.0252C19.508 13.3731 19.704 13.6853 19.9758 13.9229L21.2109 15.0041ZM21.164 12.2549L23.2633 12.0635C23.4035 12.0506 23.5376 12.0002 23.6514 11.9174C23.7653 11.8346 23.8547 11.7226 23.9101 11.5932L24.7414 9.65567C24.7616 9.60352 24.7971 9.5587 24.8433 9.52709C24.8894 9.49548 24.944 9.47857 25 9.47857C25.0559 9.47857 25.1105 9.49548 25.1567 9.52709C25.2028 9.5587 25.2384 9.60352 25.2586 9.65567L26.0898 11.5932C26.1453 11.7226 26.2346 11.8346 26.3485 11.9174C26.4624 12.0002 26.5965 12.0506 26.7367 12.0635L28.8359 12.2549C28.8916 12.2584 28.9449 12.2786 28.989 12.3128C29.033 12.347 29.0658 12.3937 29.083 12.4468C29.1002 12.4999 29.101 12.5569 29.0854 12.6104C29.0697 12.664 29.0383 12.7116 28.9953 12.7471L27.4086 14.1354C27.3027 14.2282 27.2238 14.3479 27.1803 14.4818C27.1369 14.6158 27.1304 14.759 27.1617 14.8963L27.6289 16.951C27.6428 17.005 27.6401 17.062 27.6212 17.1145C27.6023 17.167 27.5681 17.2126 27.5229 17.2454C27.4777 17.2782 27.4238 17.2966 27.368 17.2983C27.3122 17.3 27.2572 17.2849 27.2101 17.2549L25.4 16.176C25.2791 16.1036 25.1409 16.0654 25 16.0654C24.8591 16.0654 24.7209 16.1036 24.6 16.176L22.789 17.2541C22.7418 17.2821 22.6875 17.2957 22.6326 17.2932C22.5778 17.2906 22.5249 17.2721 22.4805 17.2399C22.436 17.2077 22.402 17.1631 22.3825 17.1118C22.3631 17.0605 22.3591 17.0046 22.3711 16.951L22.8383 14.8963C22.8695 14.759 22.8631 14.6158 22.8196 14.4818C22.7761 14.3479 22.6973 14.2282 22.5914 14.1354L21.0054 12.7471C20.9624 12.7116 20.931 12.6641 20.9154 12.6106C20.8997 12.5571 20.9005 12.5002 20.9176 12.4471C20.9347 12.3941 20.9673 12.3474 21.0112 12.3131C21.0552 12.2788 21.1084 12.2585 21.164 12.2549ZM9.19841 20.9127L8.91326 22.1705C8.84098 22.4885 8.86359 22.8208 8.97831 23.126C9.09302 23.4313 9.29479 23.6962 9.55861 23.8879C9.82243 24.0796 10.1367 24.1897 10.4625 24.2045C10.7883 24.2194 11.1112 24.1383 11.3914 23.9713L12.5 23.3104L13.6086 23.9713C13.8887 24.1383 14.2117 24.2194 14.5375 24.2045C14.8632 24.1897 15.1775 24.0796 15.4413 23.8879C15.7052 23.6962 15.9069 23.4313 16.0216 23.126C16.1364 22.8208 16.159 22.4885 16.0867 22.1705L15.8015 20.9127L16.7726 20.0627C17.0141 19.8461 17.1874 19.564 17.2717 19.2507C17.3559 18.9375 17.3475 18.6065 17.2473 18.298C17.1471 17.9894 16.9596 17.7166 16.7074 17.5126C16.4552 17.3086 16.1492 17.1821 15.8265 17.1486L14.5406 17.0315L14.0312 15.844C13.8998 15.5475 13.6852 15.2956 13.4133 15.1188C13.1415 14.942 12.8242 14.8478 12.5 14.8478C12.1757 14.8478 11.8584 14.942 11.5866 15.1188C11.3148 15.2956 11.1002 15.5475 10.9687 15.844L10.4593 17.0315L9.17341 17.1486C8.84872 17.1785 8.5399 17.3029 8.2852 17.5065C8.03049 17.7101 7.84107 17.9839 7.74038 18.294C7.63969 18.6041 7.63216 18.937 7.7187 19.2513C7.80525 19.5657 7.98209 19.8478 8.22732 20.0627L9.19841 20.9127ZM9.3156 18.7049L11.0656 18.5455C11.2057 18.5325 11.3396 18.482 11.4533 18.3992C11.5671 18.3164 11.6563 18.2045 11.7117 18.0752L12.4039 16.4596C12.412 16.4408 12.4254 16.4249 12.4425 16.4136C12.4596 16.4024 12.4795 16.3964 12.5 16.3964C12.5204 16.3964 12.5404 16.4024 12.5575 16.4136C12.5745 16.4249 12.588 16.4408 12.5961 16.4596L13.2883 18.0752C13.3437 18.2046 13.4331 18.3166 13.5469 18.3994C13.6608 18.4822 13.7949 18.5327 13.9351 18.5455L15.6851 18.7049C15.7554 18.6971 15.8258 18.8354 15.7437 18.8869L14.4211 20.044C14.3152 20.1368 14.2363 20.2565 14.1928 20.3904C14.1494 20.5244 14.1429 20.6676 14.1742 20.8049L14.5633 22.5174C14.5922 22.5822 14.482 22.6916 14.4086 22.6291L12.9 21.7307C12.7791 21.6583 12.6409 21.6201 12.5 21.6201C12.3591 21.6201 12.2209 21.6583 12.1 21.7307L10.5914 22.6291C10.5437 22.6736 10.3984 22.6104 10.4367 22.5166L10.8258 20.8057C10.8571 20.6682 10.8506 20.5248 10.807 20.3907C10.7634 20.2566 10.6843 20.1367 10.5781 20.044L9.25622 18.8869C9.19919 18.8533 9.21482 18.6971 9.3156 18.7049ZM34.1984 20.9127L33.9133 22.1705C33.841 22.4885 33.8636 22.8208 33.9783 23.126C34.093 23.4313 34.2948 23.6962 34.5586 23.8879C34.8224 24.0796 35.1367 24.1897 35.4625 24.2045C35.7883 24.2194 36.1112 24.1383 36.3914 23.9713L37.5 23.3104L38.6086 23.9713C38.8887 24.1383 39.2117 24.2194 39.5375 24.2045C39.8632 24.1897 40.1775 24.0796 40.4413 23.8879C40.7052 23.6962 40.9069 23.4313 41.0216 23.126C41.1364 22.8208 41.159 22.4885 41.0867 22.1705L40.8015 20.9127L41.7726 20.0627C42.0179 19.8478 42.1947 19.5657 42.2812 19.2513C42.3678 18.937 42.3603 18.6041 42.2596 18.294C42.1589 17.9839 41.9695 17.7101 41.7148 17.5065C41.46 17.3029 41.1512 17.1785 40.8265 17.1486L39.5406 17.0315L39.0312 15.844C38.9026 15.5444 38.689 15.2892 38.4169 15.1099C38.1447 14.9305 37.8259 14.835 37.5 14.835C37.174 14.835 36.8552 14.9305 36.5831 15.1099C36.3109 15.2892 36.0973 15.5444 35.9687 15.844L35.4594 17.0315L34.1734 17.1486C33.8487 17.1785 33.5399 17.3029 33.2852 17.5065C33.0305 17.7101 32.8411 17.9839 32.7404 18.294C32.6397 18.6041 32.6322 18.937 32.7187 19.2513C32.8053 19.5657 32.9821 19.8478 33.2273 20.0627L34.1984 20.9127ZM34.3156 18.7049L36.0656 18.5455C36.2057 18.5325 36.3396 18.482 36.4533 18.3992C36.5671 18.3164 36.6563 18.2045 36.7117 18.0752L37.4039 16.4596C37.412 16.4408 37.4254 16.4249 37.4425 16.4136C37.4596 16.4024 37.4795 16.3964 37.5 16.3964C37.5204 16.3964 37.5404 16.4024 37.5575 16.4136C37.5745 16.4249 37.588 16.4408 37.5961 16.4596L38.2883 18.0752C38.3437 18.2046 38.4331 18.3166 38.5469 18.3994C38.6608 18.4822 38.7949 18.5327 38.9351 18.5455L40.6851 18.7049C40.7554 18.6971 40.8258 18.8354 40.7437 18.8869L39.4211 20.044C39.3152 20.1368 39.2363 20.2565 39.1928 20.3904C39.1494 20.5244 39.1429 20.6676 39.1742 20.8049L39.5633 22.5174C39.5922 22.5822 39.482 22.6916 39.4086 22.6291L37.9 21.7307C37.7791 21.6583 37.6409 21.6201 37.5 21.6201C37.3591 21.6201 37.2209 21.6583 37.1 21.7307L35.5914 22.6291C35.5445 22.6736 35.3976 22.6104 35.4367 22.5166L35.8258 20.8057C35.8571 20.6682 35.8506 20.5248 35.807 20.3907C35.7634 20.2566 35.6843 20.1367 35.5781 20.044L34.2562 18.8869C34.1992 18.8533 34.2148 18.6971 34.3156 18.7049Z" fill="#F48120" stroke="#F48120" stroke-width="1.17188"/>
</svg>
