<svg width="78" height="69" viewBox="0 0 78 69" fill="none" xmlns="http://www.w3.org/2000/svg">
<path d="M43.7396 52.8971L40.2357 55.0203C39.5127 55.4631 38.4879 55.4659 37.7594 55.0176L32.4772 51.8107C26.1397 47.9685 22.2039 41.0016 22.2039 33.6285V21.7527C22.2039 21.5382 22.2815 21.3209 22.4172 21.1614L26.0956 16.7857C26.2729 16.5712 26.5277 16.4556 26.813 16.4556H51.1823C51.4676 16.4556 51.7224 16.5739 51.9025 16.7884L55.5781 21.1614C55.7138 21.3237 55.7914 21.5382 55.7914 21.7527V33.6285C55.7914 34.0823 55.772 34.5278 55.7471 34.9706C55.7166 35.4822 56.1071 35.9195 56.6224 35.9497C57.1459 35.9689 57.578 35.5922 57.6084 35.0806C57.6389 34.5993 57.6555 34.118 57.6555 33.6257V21.7499C57.6555 21.0981 57.4256 20.4683 57.0101 19.9705L53.3372 15.6003C52.8054 14.9622 52.0215 14.5991 51.1823 14.5991H26.8129C25.9736 14.5991 25.187 14.9649 24.6607 15.5975L20.985 19.9705C20.5696 20.4655 20.3397 21.0981 20.3397 21.7499V33.6257C20.3397 41.6402 24.6192 49.2119 31.5078 53.3892L36.7845 56.5934C37.4465 56.9977 38.2109 57.2122 39.0004 57.2122C39.7898 57.2122 40.557 56.9977 41.2135 56.5961L44.7119 54.4756C45.1523 54.2089 45.2908 53.6395 45.0221 53.2022C44.7534 52.7649 44.1773 52.6274 43.7397 52.8942L43.7396 52.8971Z" fill="black"/>
<path d="M34.2221 41.5796C34.7429 42.0967 35.4658 42.3937 36.1999 42.3937C36.3079 42.3937 36.4131 42.3882 36.5267 42.3744C37.3826 42.2754 38.1332 41.7996 38.5847 41.0707L44.9555 30.7897C45.1244 30.5175 45.4291 30.3497 45.7504 30.3497H48.3292C49.872 30.3497 51.1295 29.1038 51.1295 27.5691C51.1295 26.0372 49.8748 24.7886 48.3292 24.7886H45.7504C43.4985 24.7886 41.3685 25.9712 40.1885 27.8744L35.6735 35.1574L33.5158 33.0149C32.4577 31.9643 30.6129 31.9643 29.5576 33.0149C28.4663 34.0986 28.4663 35.8615 29.5576 36.9451L34.2221 41.5766L34.2221 41.5796ZM30.8761 34.3269C31.0506 34.1509 31.286 34.0546 31.5353 34.0546C31.7846 34.0546 32.02 34.1509 32.1946 34.3269L35.1888 37.3C35.391 37.5008 35.6708 37.6025 35.9561 37.564C36.2386 37.531 36.4934 37.3715 36.643 37.1295L41.7756 28.8481C42.6177 27.4894 44.1411 26.6423 45.7477 26.6423H48.3264C48.8416 26.6423 49.2599 27.0576 49.2599 27.5692C49.2599 28.0807 48.8416 28.496 48.3264 28.496H45.7477C44.7809 28.496 43.8697 29.0048 43.3628 29.8189L36.992 40.0999C36.8424 40.342 36.5931 40.5015 36.3106 40.5345C36.0281 40.5675 35.7373 40.4685 35.5378 40.2704L30.8734 35.6389C30.5105 35.2786 30.5105 34.69 30.8734 34.3298L30.8761 34.3269Z" fill="black"/>
<path d="M40.867 19.2325C40.867 18.721 40.4488 18.3057 39.9336 18.3057H27.6826C27.4056 18.3057 27.1425 18.4267 26.9652 18.6385L24.2868 21.8344C24.1483 22.0021 24.0707 22.2111 24.0707 22.4257V28.4929C24.0707 29.0044 24.489 29.4197 25.0042 29.4197C25.5194 29.4197 25.9376 29.0044 25.9376 28.4929V22.7585L28.1203 20.1539H39.9337C40.4489 20.1539 40.8672 19.7387 40.8672 19.2271L40.867 19.2325Z" fill="black"/>
<path d="M66.0561 51.75V45.1712C66.0561 42.9517 65.1835 40.8587 63.5964 39.269C62.0009 37.6986 59.893 36.8323 57.6577 36.8323C53.0265 36.8323 49.2593 40.5727 49.2593 45.1714V51.7502C47.132 52.182 45.5282 54.0522 45.5282 56.2882V61.8466C45.5282 64.4017 47.6222 66.4781 50.1927 66.4781H65.1198C67.693 66.4781 69.7842 64.3989 69.7842 61.8466V56.2882C69.7842 54.0522 68.1777 52.1793 66.0532 51.7502L66.0561 51.75ZM51.129 45.1712C51.129 41.5958 54.0595 38.686 57.6603 38.686C59.3998 38.686 61.0424 39.3598 62.2805 40.5809C63.5131 41.8131 64.1917 43.444 64.1917 45.1712V51.6564H51.1288L51.129 45.1712ZM67.9231 61.8495C67.9231 63.3814 66.6684 64.6301 65.1227 64.6301H50.1957C48.6528 64.6301 47.3953 63.3842 47.3953 61.8495V56.2911C47.3953 54.7592 48.6501 53.5106 50.1957 53.5106H65.1227C66.6656 53.5106 67.9231 54.7564 67.9231 56.2911V61.8495Z" fill="black"/>
<path d="M19.2398 38.8455C18.5501 38.8455 17.877 39.1205 17.395 39.5991C17.0958 39.8961 16.625 39.8961 16.3258 39.5991L14.7581 38.0424C14.6168 37.9049 14.5365 37.7096 14.5365 37.5144C14.5365 37.3163 14.6168 37.1238 14.7581 36.9836C15.6057 36.142 15.7664 34.8438 15.1487 33.8207C14.3482 32.5033 13.7471 31.0621 13.3593 29.5357C13.0685 28.3806 12.0298 27.5747 10.8304 27.5747C10.4149 27.5747 10.0743 27.2392 10.0743 26.8239V24.6181C10.0743 24.2056 10.4122 23.8673 10.8304 23.8673C12.0298 23.8673 13.0685 23.0615 13.3593 21.9063C13.7471 20.3798 14.3482 18.9359 15.1459 17.6213C15.3869 17.228 15.5143 16.766 15.5143 16.2874C15.5143 15.6026 15.2373 14.9343 14.7553 14.4557C14.4562 14.1587 14.4562 13.6911 14.7553 13.3941L16.3231 11.8374C16.6028 11.5596 17.1125 11.5596 17.3922 11.8374C18.237 12.679 19.5472 12.8386 20.5776 12.2252C21.9044 11.4331 23.3558 10.8335 24.8931 10.4485C26.0564 10.1598 26.868 9.12838 26.868 7.9375C26.868 7.52495 27.206 7.18667 27.6242 7.18667H29.8456C30.2611 7.18667 30.6018 7.5222 30.6018 7.9375C30.6018 9.12838 31.4134 10.1597 32.5768 10.4485C34.1169 10.8336 35.5683 11.4304 36.8922 12.2225C37.8617 12.8055 39.2633 12.646 40.0804 11.8347C40.3795 11.5376 40.8504 11.5376 41.1495 11.8347L42.7256 13.3996C43.0913 13.7627 43.6813 13.7627 44.0441 13.3996C44.4097 13.0366 44.4097 12.4507 44.0441 12.0905L42.468 10.5255C41.4737 9.53817 39.7536 9.53817 38.7591 10.5255C38.532 10.751 38.1165 10.795 37.8562 10.6383C36.3715 9.74993 34.7484 9.08162 33.0283 8.65255C32.6986 8.57004 32.466 8.27576 32.466 7.93749C32.466 6.50179 31.2887 5.33569 29.8429 5.33569H27.6215C26.1756 5.33569 24.9984 6.50461 24.9984 7.93749C24.9984 8.27578 24.7657 8.57006 24.4361 8.65255C22.7188 9.0816 21.0956 9.74993 19.6137 10.6383C19.3257 10.8088 18.9462 10.762 18.7108 10.5283C17.7358 9.56015 15.9769 9.56015 15.0046 10.5283L13.4369 12.0849C12.9411 12.5772 12.6669 13.2318 12.6669 13.9249C12.6669 14.6207 12.9411 15.2726 13.4369 15.7649C13.5699 15.8969 13.6474 16.0922 13.6474 16.2874C13.6474 16.4249 13.6142 16.5542 13.5477 16.6615C12.653 18.1357 11.98 19.7473 11.5479 21.4553C11.4648 21.7826 11.1711 22.0136 10.8305 22.0136C9.38456 22.0136 8.2074 23.1825 8.2074 24.6154V26.8211C8.2074 28.2568 9.38463 29.4229 10.8305 29.4229C11.1712 29.4229 11.4648 29.654 11.5479 29.984C11.98 31.6892 12.653 33.3009 13.5477 34.7723C13.7194 35.0583 13.6723 35.4351 13.4369 35.6689C12.9494 36.153 12.6697 36.824 12.6697 37.5116C12.6697 38.1964 12.9494 38.8675 13.4369 39.3516L15.0046 40.9082C15.5171 41.4171 16.1874 41.6701 16.8577 41.6701C17.528 41.6701 18.2011 41.417 18.7108 40.9082C18.8437 40.7762 19.0404 40.6965 19.2343 40.6965H19.2537C19.7689 40.6965 20.1788 40.2812 20.1788 39.7696C20.1788 39.2581 19.7523 38.8428 19.2371 38.8428L19.2398 38.8455Z" fill="black"/>
</svg>
