<svg width="74" height="70" viewBox="0 0 74 70" fill="none" xmlns="http://www.w3.org/2000/svg">
<g clip-path="url(#clip0_6_2270)">
<path fill-rule="evenodd" clip-rule="evenodd" d="M16.4768 12.0747C17.2828 12.0747 18.0707 12.3127 18.7409 12.7585C19.4111 13.2043 19.9335 13.8379 20.2421 14.5793C20.5507 15.3207 20.6316 16.1365 20.4747 16.9237C20.3177 17.7109 19.9299 18.434 19.3602 19.0018C18.7905 19.5695 18.0646 19.9564 17.2742 20.1134C16.4838 20.2704 15.6644 20.1905 14.9196 19.8839C14.1747 19.5773 13.5379 19.0577 13.0896 18.3907C12.6413 17.7238 12.4016 16.9395 12.4009 16.137C12.4011 15.0606 12.8306 14.0284 13.5949 13.2674C14.3592 12.5063 15.3959 12.0786 16.4768 12.0784V12.0747ZM37 29.7074C38.4171 29.7074 39.8025 30.1258 40.9808 30.9098C42.1592 31.6938 43.0776 32.8081 43.6199 34.1118C44.1623 35.4156 44.3042 36.8501 44.0277 38.2342C43.7512 39.6182 43.0688 40.8895 42.0667 41.8873C41.0646 42.8851 39.7878 43.5647 38.3979 43.84C37.0079 44.1153 35.5672 43.974 34.2579 43.434C32.9486 42.8939 31.8295 41.9794 31.0421 40.8061C30.2548 39.6328 29.8345 38.2534 29.8345 36.8422C29.8345 34.9499 30.5895 33.1352 31.9332 31.7971C33.277 30.4591 35.0996 29.7074 37 29.7074ZM40.8132 33.0453C40.059 32.2944 39.0982 31.7831 38.0522 31.576C37.0062 31.3688 35.922 31.4752 34.9367 31.8816C33.9514 32.288 33.1093 32.9763 32.5168 33.8592C31.9243 34.7422 31.608 35.7803 31.608 36.8422C31.608 37.9042 31.9243 38.9422 32.5168 39.8252C33.1093 40.7082 33.9514 41.3964 34.9367 41.8028C35.922 42.2092 37.0062 42.3156 38.0522 42.1085C39.0982 41.9013 40.059 41.39 40.8132 40.6392C41.314 40.1406 41.7112 39.5486 41.9823 38.8971C42.2533 38.2457 42.3928 37.5474 42.3928 36.8422C42.3928 36.1371 42.2533 35.4388 41.9823 34.7873C41.7112 34.1358 41.314 33.5439 40.8132 33.0453ZM37 3.68433C37.8061 3.68433 38.5941 3.92235 39.2644 4.36831C39.9347 4.81427 40.4571 5.44812 40.7656 6.18972C41.0741 6.93132 41.1548 7.74735 40.9976 8.53463C40.8403 9.32191 40.4521 10.0451 39.8821 10.6127C39.312 11.1803 38.5858 11.5668 37.7951 11.7234C37.0045 11.88 36.1849 11.7996 35.4402 11.4924C34.6954 11.1853 34.0588 10.6651 33.6109 9.99765C33.1631 9.33023 32.924 8.54555 32.924 7.74285C32.924 6.66646 33.3535 5.63416 34.1178 4.87304C34.8822 4.11192 35.9189 3.68433 37 3.68433ZM38.628 6.12106C38.3059 5.80027 37.8956 5.58177 37.4489 5.4932C37.0021 5.40464 36.539 5.44998 36.1182 5.62351C35.6973 5.79703 35.3376 6.09094 35.0845 6.46805C34.8314 6.84517 34.6963 7.28855 34.6963 7.74212C34.6963 8.19568 34.8314 8.63906 35.0845 9.01618C35.3376 9.39329 35.6973 9.6872 36.1182 9.86072C36.539 10.0342 37.0021 10.0796 37.4489 9.99103C37.8956 9.90246 38.3059 9.68396 38.628 9.36317C39.0589 8.93279 39.3008 8.34985 39.3008 7.74212C39.3008 7.13439 39.0589 6.55144 38.628 6.12106ZM7.77587 32.7837C8.58201 32.7837 9.37005 33.0217 10.0403 33.4677C10.7106 33.9136 11.233 34.5475 11.5415 35.2891C11.85 36.0307 11.9307 36.8467 11.7735 37.634C11.6162 38.4213 11.228 39.1444 10.658 39.712C10.088 40.2796 9.36169 40.6662 8.57104 40.8228C7.78039 40.9794 6.96086 40.899 6.21608 40.5918C5.47131 40.2846 4.83474 39.7644 4.38687 39.097C3.939 38.4296 3.69995 37.6449 3.69995 36.8422C3.70015 35.7659 4.12964 34.7337 4.89398 33.9726C5.65832 33.2115 6.69493 32.7839 7.77587 32.7837ZM9.40387 35.2204C9.08181 34.8994 8.67134 34.6807 8.22442 34.592C7.77749 34.5032 7.31418 34.5485 6.8931 34.7221C6.47201 34.8956 6.11209 35.1896 5.85885 35.5669C5.60561 35.9441 5.47044 36.3877 5.47044 36.8415C5.47044 37.2953 5.60561 37.7388 5.85885 38.1161C6.11209 38.4934 6.47201 38.7874 6.8931 38.9609C7.31418 39.1344 7.77749 39.1797 8.22442 39.091C8.67134 39.0023 9.08181 38.7836 9.40387 38.4625C9.83479 38.0322 10.0768 37.4492 10.0768 36.8415C10.0768 36.2338 9.83479 35.6508 9.40387 35.2204ZM52.4571 53.5125C52.3741 53.4309 52.3081 53.3337 52.263 53.2265C52.218 53.1193 52.1947 53.0043 52.1945 52.8882C52.1943 52.772 52.2172 52.6569 52.2619 52.5496C52.3066 52.4423 52.3722 52.3448 52.4549 52.2629C52.5376 52.1809 52.6358 52.1161 52.7439 52.0722C52.8519 52.0283 52.9676 52.0061 53.0842 52.0069C53.2009 52.0077 53.3163 52.0315 53.4237 52.077C53.5311 52.1224 53.6283 52.1886 53.7099 52.2717L54.1028 52.6652C54.1858 52.7468 54.2518 52.844 54.2969 52.9512C54.3419 53.0584 54.3652 53.1734 54.3654 53.2895C54.3657 53.4057 54.3427 53.5208 54.298 53.6281C54.2533 53.7354 54.1877 53.8329 54.105 53.9148C54.0223 53.9968 53.9241 54.0616 53.816 54.1055C53.708 54.1494 53.5923 54.1716 53.4757 54.1708C53.359 54.17 53.2436 54.1462 53.1362 54.1007C53.0289 54.0553 52.9316 53.9891 52.85 53.906L52.4571 53.5125ZM50.3518 51.4044L50.7447 51.7979C50.8263 51.881 50.9235 51.9472 51.0309 51.9926C51.1383 52.0381 51.2537 52.0619 51.3704 52.0627C51.487 52.0635 51.6027 52.0413 51.7107 51.9974C51.8188 51.9535 51.917 51.8887 51.9997 51.8067C52.0824 51.7248 52.148 51.6273 52.1927 51.52C52.2374 51.4127 52.2603 51.2976 52.2601 51.1814C52.2599 51.0653 52.2366 50.9503 52.1916 50.8431C52.1465 50.7359 52.0805 50.6387 51.9975 50.5571L51.6046 50.1636C51.523 50.0805 51.4258 50.0143 51.3184 49.9689C51.211 49.9234 51.0956 49.8996 50.9789 49.8988C50.8623 49.898 50.7466 49.9202 50.6386 49.9641C50.5305 50.008 50.4323 50.0728 50.3496 50.1548C50.2669 50.2367 50.2013 50.3342 50.1566 50.4415C50.1119 50.5488 50.089 50.6639 50.0892 50.7801C50.0894 50.8962 50.1127 51.0112 50.1577 51.1184C50.2028 51.2256 50.2688 51.3228 50.3518 51.4044ZM48.2479 49.2949C48.1661 49.2129 48.1012 49.1158 48.057 49.0089C48.0129 48.902 47.9903 48.7875 47.9906 48.672C47.9909 48.5564 48.014 48.442 48.0587 48.3354C48.1033 48.2287 48.1687 48.1318 48.2509 48.0503C48.3332 47.9688 48.4308 47.9042 48.5381 47.8602C48.6454 47.8163 48.7604 47.7938 48.8765 47.794C48.9925 47.7943 49.1074 47.8174 49.2145 47.8618C49.3216 47.9063 49.4189 47.9714 49.5008 48.0533L49.8937 48.4467C49.9756 48.5287 50.0405 48.6258 50.0846 48.7327C50.1288 48.8396 50.1514 48.9541 50.1511 49.0696C50.1508 49.1852 50.1277 49.2996 50.083 49.4062C50.0383 49.5129 49.973 49.6098 49.8908 49.6913C49.8085 49.7728 49.7109 49.8374 49.6036 49.8814C49.4963 49.9253 49.3813 49.9478 49.2652 49.9476C49.1491 49.9473 49.0343 49.9242 48.9272 49.8798C48.82 49.8353 48.7228 49.7702 48.6409 49.6883L48.2479 49.2949ZM20.219 52.31C20.3886 52.163 20.6079 52.0855 20.8327 52.0933C21.0574 52.101 21.2709 52.1934 21.4299 52.3517C21.5889 52.5101 21.6817 52.7226 21.6895 52.9464C21.6972 53.1702 21.6194 53.3886 21.4718 53.5575L21.0781 53.9502C20.9978 54.0404 20.8997 54.1134 20.7901 54.1645C20.6804 54.2156 20.5614 54.2438 20.4403 54.2474C20.3193 54.2511 20.1988 54.23 20.0862 54.1855C19.9736 54.141 19.8714 54.0741 19.7858 53.9889C19.7001 53.9036 19.6329 53.8018 19.5883 53.6897C19.5436 53.5776 19.5224 53.4576 19.5261 53.3371C19.5297 53.2166 19.5581 53.098 19.6094 52.9888C19.6607 52.8796 19.7339 52.782 19.8246 52.702L20.219 52.31ZM22.3295 50.2078L21.9358 50.6005C21.7881 50.7694 21.7103 50.9878 21.7181 51.2116C21.7259 51.4354 21.8186 51.648 21.9777 51.8063C22.1367 51.9646 22.3501 52.057 22.5749 52.0648C22.7996 52.0725 23.019 51.995 23.1886 51.848L23.583 51.456C23.6736 51.376 23.7468 51.2784 23.7982 51.1692C23.8495 51.06 23.8779 50.9415 23.8815 50.8209C23.8851 50.7004 23.864 50.5804 23.8193 50.4683C23.7747 50.3562 23.7074 50.2544 23.6218 50.1692C23.5362 50.0839 23.4339 50.017 23.3214 49.9725C23.2088 49.928 23.0883 49.907 22.9673 49.9106C22.8462 49.9142 22.7272 49.9424 22.6175 49.9936C22.5078 50.0447 22.4098 50.1176 22.3295 50.2078ZM24.4407 48.1056C24.61 47.9561 24.8302 47.8766 25.0564 47.8834C25.2826 47.8902 25.4977 47.9826 25.6577 48.142C25.8177 48.3013 25.9106 48.5154 25.9174 48.7407C25.9242 48.9659 25.8444 49.1852 25.6942 49.3538L25.2998 49.7458C25.2204 49.8393 25.1224 49.9153 25.012 49.9691C24.9015 50.0228 24.7811 50.0532 24.6583 50.0582C24.5355 50.0633 24.4129 50.0428 24.2984 49.9983C24.1839 49.9537 24.08 49.8859 23.9932 49.7993C23.9063 49.7126 23.8385 49.6089 23.794 49.4948C23.7495 49.3807 23.7293 49.2587 23.7347 49.1364C23.74 49.0141 23.7708 48.8942 23.8251 48.7844C23.8793 48.6746 23.9559 48.5772 24.05 48.4983L24.4436 48.1056H24.4407ZM14.2294 35.958C14.4649 35.958 14.6908 36.0512 14.8573 36.217C15.0239 36.3828 15.1174 36.6077 15.1174 36.8422C15.1174 37.0767 15.0239 37.3016 14.8573 37.4675C14.6908 37.6333 14.4649 37.7264 14.2294 37.7264H13.6722C13.4367 37.7264 13.2108 37.6333 13.0443 37.4675C12.8777 37.3016 12.7842 37.0767 12.7842 36.8422C12.7842 36.6077 12.8777 36.3828 13.0443 36.217C13.2108 36.0512 13.4367 35.958 13.6722 35.958H14.2294ZM17.2153 35.958C17.4508 35.958 17.6767 36.0512 17.8432 36.217C18.0098 36.3828 18.1033 36.6077 18.1033 36.8422C18.1033 37.0767 18.0098 37.3016 17.8432 37.4675C17.6767 37.6333 17.4508 37.7264 17.2153 37.7264H16.6581C16.4226 37.7264 16.1967 37.6333 16.0302 37.4675C15.8636 37.3016 15.7701 37.0767 15.7701 36.8422C15.7701 36.6077 15.8636 36.3828 16.0302 36.217C16.1967 36.0512 16.4226 35.958 16.6581 35.958H17.2153ZM20.2005 35.958C20.436 35.958 20.6618 36.0512 20.8284 36.217C20.9949 36.3828 21.0885 36.6077 21.0885 36.8422C21.0885 37.0767 20.9949 37.3016 20.8284 37.4675C20.6618 37.6333 20.436 37.7264 20.2005 37.7264H19.6433C19.4077 37.7264 19.1819 37.6333 19.0153 37.4675C18.8488 37.3016 18.7553 37.0767 18.7553 36.8422C18.7553 36.6077 18.8488 36.3828 19.0153 36.217C19.1819 36.0512 19.4077 35.958 19.6433 35.958H20.2005ZM59.7705 37.7264C59.535 37.7264 59.3091 37.6333 59.1426 37.4675C58.976 37.3016 58.8825 37.0767 58.8825 36.8422C58.8825 36.6077 58.976 36.3828 59.1426 36.217C59.3091 36.0512 59.535 35.958 59.7705 35.958H60.3277C60.5632 35.958 60.7891 36.0512 60.9556 36.217C61.1222 36.3828 61.2157 36.6077 61.2157 36.8422C61.2157 37.0767 61.1222 37.3016 60.9556 37.4675C60.7891 37.6333 60.5632 37.7264 60.3277 37.7264H59.7705ZM56.7846 37.7264C56.5491 37.7264 56.3232 37.6333 56.1567 37.4675C55.9902 37.3016 55.8966 37.0767 55.8966 36.8422C55.8966 36.6077 55.9902 36.3828 56.1567 36.217C56.3232 36.0512 56.5491 35.958 56.7846 35.958H57.3418C57.5773 35.958 57.8032 36.0512 57.9697 36.217C58.1363 36.3828 58.2298 36.6077 58.2298 36.8422C58.2298 37.0767 58.1363 37.3016 57.9697 37.4675C57.8032 37.6333 57.5773 37.7264 57.3418 37.7264H56.7846ZM53.7994 37.7264C53.5639 37.7264 53.3381 37.6333 53.1715 37.4675C53.005 37.3016 52.9114 37.0767 52.9114 36.8422C52.9114 36.6077 53.005 36.3828 53.1715 36.217C53.3381 36.0512 53.5639 35.958 53.7994 35.958H54.3567C54.5922 35.958 54.818 36.0512 54.9846 36.217C55.1511 36.3828 55.2447 36.6077 55.2447 36.8422C55.2447 37.0767 55.1511 37.3016 54.9846 37.4675C54.818 37.6333 54.5922 37.7264 54.3567 37.7264H53.7994ZM53.7254 21.4356C53.6463 21.5296 53.5484 21.6061 53.4379 21.6604C53.3274 21.7147 53.2068 21.7455 53.0837 21.7508C52.9607 21.7562 52.8378 21.736 52.723 21.6915C52.6082 21.6471 52.504 21.5793 52.4169 21.4925C52.3298 21.4058 52.2618 21.3019 52.2172 21.1876C52.1726 21.0732 52.1524 20.9509 52.1578 20.8284C52.1633 20.7058 52.1943 20.5857 52.2489 20.4758C52.3034 20.3658 52.3804 20.2683 52.4748 20.1896L52.8685 19.7969C53.0378 19.6474 53.2581 19.5679 53.4843 19.5747C53.7105 19.5814 53.9255 19.6739 54.0855 19.8332C54.2455 19.9926 54.3384 20.2067 54.3452 20.4319C54.352 20.6572 54.2722 20.8765 54.1221 21.0451L53.7277 21.4378L53.7254 21.4356ZM51.6142 23.5371L52.0086 23.1451C52.1588 22.9765 52.2386 22.7572 52.2318 22.5319C52.225 22.3067 52.1321 22.0926 51.9721 21.9332C51.8121 21.7739 51.597 21.6814 51.3708 21.6747C51.1446 21.6679 50.9244 21.7474 50.7551 21.8969L50.3614 22.2896C50.2695 22.3692 50.1951 22.4668 50.1427 22.5763C50.0904 22.6857 50.0612 22.8048 50.0569 22.926C50.0527 23.0472 50.0736 23.1679 50.1183 23.2807C50.1629 23.3935 50.2304 23.496 50.3165 23.5818C50.4026 23.6675 50.5055 23.7347 50.6188 23.7792C50.7321 23.8236 50.8534 23.8444 50.9751 23.8402C51.0968 23.836 51.2164 23.8069 51.3263 23.7548C51.4363 23.7026 51.5343 23.6285 51.6142 23.5371ZM49.506 25.6378C49.3366 25.7873 49.1164 25.8668 48.8902 25.86C48.664 25.8532 48.4489 25.7607 48.2889 25.6014C48.1289 25.4421 48.036 25.2279 48.0292 25.0027C48.0224 24.7775 48.1023 24.5582 48.2524 24.3896L48.6461 23.9969C48.7264 23.9066 48.8244 23.8337 48.9341 23.7826C49.0438 23.7315 49.1628 23.7033 49.2839 23.6996C49.4049 23.696 49.5254 23.7171 49.638 23.7616C49.7506 23.806 49.8528 23.873 49.9384 23.9582C50.0241 24.0435 50.0913 24.1453 50.1359 24.2574C50.1806 24.3695 50.2018 24.4895 50.1981 24.61C50.1945 24.7305 50.1661 24.849 50.1148 24.9582C50.0635 25.0675 49.9902 25.1651 49.8996 25.2451L49.5052 25.6371L49.506 25.6378ZM21.5251 20.1896L21.1314 19.7969C20.9621 19.6474 20.7418 19.5679 20.5156 19.5747C20.2894 19.5814 20.0744 19.6739 19.9144 19.8332C19.7544 19.9926 19.6615 20.2067 19.6547 20.4319C19.6479 20.6572 19.7277 20.8765 19.8778 21.0451L20.2723 21.4371C20.3522 21.5285 20.4502 21.6026 20.5602 21.6548C20.6701 21.7069 20.7896 21.736 20.9114 21.7402C21.0331 21.7444 21.1543 21.7236 21.2676 21.6792C21.3809 21.6347 21.4838 21.5675 21.57 21.4818C21.6561 21.396 21.7236 21.2935 21.7682 21.1807C21.8129 21.0679 21.8337 20.9472 21.8295 20.826C21.8253 20.7048 21.7961 20.5857 21.7437 20.4763C21.6914 20.3668 21.6169 20.2692 21.5251 20.1896ZM23.6363 22.2918C23.7839 22.4607 23.8617 22.6791 23.854 22.9029C23.8462 23.1267 23.7534 23.3392 23.5944 23.4976C23.4354 23.6559 23.2219 23.7483 22.9972 23.756C22.7724 23.7638 22.5531 23.6863 22.3835 23.5393L21.9891 23.1473C21.8984 23.0673 21.8252 22.9697 21.7739 22.8605C21.7226 22.7512 21.6942 22.6327 21.6906 22.5122C21.6869 22.3917 21.7081 22.2717 21.7528 22.1596C21.7974 22.0475 21.8646 21.9457 21.9503 21.8604C22.0359 21.7752 22.1381 21.7082 22.2507 21.6638C22.3633 21.6193 22.4838 21.5982 22.6048 21.6018C22.7259 21.6055 22.8449 21.6337 22.9546 21.6848C23.0642 21.7359 23.1623 21.8088 23.2426 21.8991L23.6363 22.2918ZM25.7475 24.3896L25.3538 23.9969C25.1845 23.8474 24.9643 23.7679 24.7381 23.7747C24.5119 23.7814 24.2968 23.8739 24.1368 24.0332C23.9768 24.1926 23.8839 24.4067 23.8771 24.6319C23.8703 24.8572 23.9501 25.0765 24.1003 25.2451L24.4947 25.6371C24.6643 25.7841 24.8837 25.8615 25.1084 25.8538C25.3332 25.8461 25.5466 25.7537 25.7056 25.5954C25.8646 25.437 25.9574 25.2245 25.9652 25.0007C25.973 24.7769 25.8952 24.5585 25.7475 24.3896ZM36.1119 59.5156C36.1119 59.2811 36.2055 59.0562 36.372 58.8904C36.5386 58.7245 36.7644 58.6314 37 58.6314C37.2355 58.6314 37.4613 58.7245 37.6279 58.8904C37.7944 59.0562 37.888 59.2811 37.888 59.5156V60.0704C37.888 60.3049 37.7944 60.5298 37.6279 60.6957C37.4613 60.8615 37.2355 60.9546 37 60.9546C36.7644 60.9546 36.5386 60.8615 36.372 60.6957C36.2055 60.5298 36.1119 60.3049 36.1119 60.0704V59.5156ZM36.1119 56.5424C36.1119 56.3079 36.2055 56.083 36.372 55.9172C36.5386 55.7514 36.7644 55.6582 37 55.6582C37.2355 55.6582 37.4613 55.7514 37.6279 55.9172C37.7944 56.083 37.888 56.3079 37.888 56.5424V57.0973C37.888 57.3318 37.7944 57.5567 37.6279 57.7225C37.4613 57.8883 37.2355 57.9815 37 57.9815C36.7644 57.9815 36.5386 57.8883 36.372 57.7225C36.2055 57.5567 36.1119 57.3318 36.1119 57.0973V56.5424ZM36.1119 53.57C36.1119 53.3355 36.2055 53.1106 36.372 52.9448C36.5386 52.779 36.7644 52.6858 37 52.6858C37.2355 52.6858 37.4613 52.779 37.6279 52.9448C37.7944 53.1106 37.888 53.3355 37.888 53.57V54.1249C37.888 54.3594 37.7944 54.5843 37.6279 54.7501C37.4613 54.9159 37.2355 55.0091 37 55.0091C36.7644 55.0091 36.5386 54.9159 36.372 54.7501C36.2055 54.5843 36.1119 54.3594 36.1119 54.1249V53.5685V53.57ZM37.888 14.1689C37.888 14.4034 37.7944 14.6283 37.6279 14.7941C37.4613 14.9599 37.2355 15.0531 37 15.0531C36.7644 15.0531 36.5386 14.9599 36.372 14.7941C36.2055 14.6283 36.1119 14.4034 36.1119 14.1689V13.614C36.1119 13.3795 36.2055 13.1546 36.372 12.9888C36.5386 12.823 36.7644 12.7298 37 12.7298C37.2355 12.7298 37.4613 12.823 37.6279 12.9888C37.7944 13.1546 37.888 13.3795 37.888 13.614V14.1689ZM37.888 17.142C37.888 17.3765 37.7944 17.6014 37.6279 17.7672C37.4613 17.9331 37.2355 18.0262 37 18.0262C36.7644 18.0262 36.5386 17.9331 36.372 17.7672C36.2055 17.6014 36.1119 17.3765 36.1119 17.142V16.5872C36.1119 16.3527 36.2055 16.1278 36.372 15.9619C36.5386 15.7961 36.7644 15.703 37 15.703C37.2355 15.703 37.4613 15.7961 37.6279 15.9619C37.7944 16.1278 37.888 16.3527 37.888 16.5872V17.142ZM37.888 20.1144C37.888 20.3489 37.7944 20.5738 37.6279 20.7397C37.4613 20.9055 37.2355 20.9986 37 20.9986C36.7644 20.9986 36.5386 20.9055 36.372 20.7397C36.2055 20.5738 36.1119 20.3489 36.1119 20.1144V19.5596C36.1119 19.3251 36.2055 19.1002 36.372 18.9344C36.5386 18.7685 36.7644 18.6754 37 18.6754C37.2355 18.6754 37.4613 18.7685 37.6279 18.9344C37.7944 19.1002 37.888 19.3251 37.888 19.5596V20.1159V20.1144ZM44.0818 9.50906C43.9695 9.48057 43.8639 9.43033 43.7711 9.36121C43.6783 9.29209 43.6001 9.20546 43.541 9.10625C43.4818 9.00703 43.4428 8.89719 43.4263 8.78298C43.4098 8.66878 43.416 8.55245 43.4446 8.44064C43.4732 8.32883 43.5237 8.22373 43.5931 8.13134C43.6625 8.03894 43.7495 7.96107 43.8492 7.90215C43.9488 7.84324 44.0591 7.80445 44.1738 7.78799C44.2885 7.77153 44.4053 7.77772 44.5176 7.80622C47.2692 8.50849 49.9058 9.59874 52.3475 11.0439C52.4586 11.0969 52.5573 11.1723 52.6375 11.2653C52.7177 11.3583 52.7776 11.467 52.8134 11.5843C52.8492 11.7016 52.8601 11.825 52.8454 11.9467C52.8307 12.0684 52.7907 12.1858 52.7281 12.2913C52.6654 12.3968 52.5814 12.4882 52.4813 12.5597C52.3813 12.6312 52.2674 12.6811 52.1469 12.7064C52.0265 12.7317 51.902 12.7318 51.7815 12.7067C51.661 12.6815 51.5471 12.6317 51.447 12.5603C49.1486 11.2016 46.6684 10.1742 44.0803 9.50906H44.0818ZM61.4392 22.5431C61.3789 22.4434 61.3391 22.3329 61.3221 22.2178C61.305 22.1028 61.311 21.9855 61.3398 21.8728C61.3686 21.76 61.4196 21.6541 61.4898 21.5612C61.56 21.4682 61.648 21.3901 61.7488 21.3312C61.8495 21.2724 61.961 21.234 62.0768 21.2184C62.1925 21.2028 62.3102 21.2102 62.4231 21.2402C62.5359 21.2702 62.6417 21.3222 62.7342 21.3931C62.8267 21.4641 62.9042 21.5527 62.9621 21.6537C64.3864 24.0595 65.4631 26.6531 66.1604 29.3581C66.189 29.4699 66.1952 29.5863 66.1787 29.7005C66.1622 29.8147 66.1232 29.9245 66.064 30.0237C66.0049 30.1229 65.9267 30.2096 65.8339 30.2787C65.7411 30.3478 65.6355 30.398 65.5233 30.4265C65.411 30.455 65.2941 30.4612 65.1794 30.4448C65.0647 30.4283 64.9544 30.3895 64.8548 30.3306C64.7552 30.2717 64.6681 30.1938 64.5987 30.1014C64.5293 30.009 64.4789 29.9039 64.4503 29.7921C63.7916 27.2475 62.7781 24.8075 61.4392 22.5431ZM64.4539 43.8923C64.5117 43.6665 64.6573 43.4728 64.8585 43.3538C65.0597 43.2349 65.3002 43.2004 65.527 43.2579C65.7537 43.3155 65.9483 43.4604 66.0677 43.6607C66.1872 43.8611 66.2219 44.1005 66.1641 44.3263C65.4742 47.0022 64.4132 49.5692 63.0117 51.9534C62.953 52.0532 62.8751 52.1406 62.7825 52.2105C62.6899 52.2804 62.5844 52.3314 62.472 52.3607C62.3595 52.39 62.2424 52.397 62.1273 52.3812C62.0122 52.3654 61.9013 52.3272 61.8011 52.2687C61.7008 52.2103 61.613 52.1328 61.5428 52.0406C61.4726 51.9483 61.4214 51.8433 61.392 51.7313C61.3625 51.6194 61.3556 51.5028 61.3714 51.3881C61.3873 51.2735 61.4256 51.1631 61.4843 51.0633C62.8023 48.8211 63.8017 46.4078 64.4539 43.8923ZM51.4965 61.0961C51.5962 61.0349 51.707 60.994 51.8226 60.9758C51.9382 60.9576 52.0563 60.9625 52.17 60.9901C52.2837 61.0178 52.3908 61.0676 52.485 61.1368C52.5792 61.206 52.6586 61.2931 52.7187 61.3931C52.7788 61.4931 52.8184 61.604 52.8351 61.7194C52.8518 61.8347 52.8453 61.9522 52.816 62.0651C52.7867 62.1779 52.7351 62.2838 52.6644 62.3767C52.5936 62.4695 52.505 62.5474 52.4038 62.6059C49.9461 64.0683 47.2896 65.1704 44.5161 65.8782C44.4038 65.9067 44.287 65.9129 44.1723 65.8965C44.0576 65.88 43.9473 65.8412 43.8477 65.7823C43.748 65.7234 43.661 65.6455 43.5916 65.5531C43.5222 65.4607 43.4718 65.3556 43.4431 65.2438C43.4145 65.132 43.4083 65.0157 43.4248 64.9015C43.4414 64.7873 43.4803 64.6774 43.5395 64.5782C43.5986 64.479 43.6768 64.3923 43.7696 64.3232C43.8624 64.2541 43.968 64.2039 44.0803 64.1754C46.6867 63.5049 49.1839 62.468 51.4965 61.0961ZM29.9196 64.1791C30.1464 64.2366 30.3409 64.3815 30.4604 64.5819C30.5799 64.7822 30.6146 65.0217 30.5568 65.2475C30.499 65.4733 30.3535 65.667 30.1522 65.786C29.951 65.9049 29.7105 65.9395 29.4838 65.8819C26.8039 65.1959 24.2322 64.1441 21.8418 62.7562C21.7334 62.702 21.6374 62.6262 21.5595 62.5336C21.4817 62.441 21.4238 62.3335 21.3893 62.2177C21.3548 62.102 21.3444 61.9804 21.3589 61.8605C21.3734 61.7406 21.4124 61.6249 21.4735 61.5206C21.5346 61.4163 21.6166 61.3256 21.7143 61.254C21.8119 61.1824 21.9233 61.1315 22.0415 61.1045C22.1597 61.0774 22.2822 61.0747 22.4015 61.0966C22.5207 61.1185 22.6342 61.1645 22.735 61.2317C24.9812 62.5408 27.3992 63.5327 29.9196 64.1791ZM12.6621 51.3094C12.7217 51.4086 12.761 51.5185 12.7779 51.6328C12.7949 51.7471 12.789 51.8637 12.7607 51.9757C12.7324 52.0878 12.6822 52.1932 12.6129 52.286C12.5437 52.3787 12.4568 52.457 12.3572 52.5163C12.2576 52.5756 12.1472 52.6148 12.0324 52.6317C11.9176 52.6485 11.8006 52.6427 11.688 52.6145C11.5755 52.5863 11.4696 52.5363 11.3764 52.4674C11.2833 52.3985 11.2047 52.3119 11.1451 52.2127C9.66693 49.7573 8.55352 47.1017 7.83951 44.3285C7.78171 44.1027 7.81637 43.8633 7.93586 43.6629C8.05534 43.4626 8.24987 43.3177 8.47665 43.2601C8.70343 43.2026 8.94388 43.2371 9.14511 43.356C9.34633 43.475 9.49185 43.6687 9.54965 43.8945C10.2261 46.5022 11.2742 48.9999 12.6621 51.3116V51.3094ZM9.54965 29.7936C9.52103 29.9054 9.47058 30.0105 9.40117 30.1029C9.33175 30.1953 9.24474 30.2732 9.14511 30.3321C9.04547 30.391 8.93515 30.4298 8.82046 30.4462C8.70577 30.4627 8.58894 30.4565 8.47665 30.428C8.36436 30.3995 8.25881 30.3493 8.16602 30.2802C8.07323 30.211 7.99502 30.1244 7.93586 30.0252C7.87669 29.926 7.83773 29.8161 7.8212 29.7019C7.80467 29.5877 7.81089 29.4714 7.83951 29.3596C8.55762 26.5716 9.67937 23.9026 11.1695 21.4363C11.2915 21.2395 11.4863 21.0985 11.712 21.0436C11.9376 20.9888 12.1758 21.0246 12.3751 21.1434C12.5744 21.2621 12.7187 21.4542 12.7769 21.6781C12.835 21.902 12.8023 22.1396 12.6858 22.3397C11.2872 24.6616 10.2317 27.172 9.55187 29.7936H9.54965ZM22.7579 12.441C22.6575 12.499 22.5465 12.5368 22.4314 12.5522C22.3163 12.5675 22.1993 12.5602 22.0871 12.5305C21.9748 12.5009 21.8696 12.4495 21.7773 12.3793C21.6849 12.3091 21.6074 12.2215 21.5491 12.1215C21.4908 12.0215 21.4529 11.9111 21.4374 11.7965C21.422 11.6818 21.4294 11.5653 21.4592 11.4536C21.489 11.3418 21.5406 11.237 21.611 11.1451C21.6815 11.0532 21.7695 10.976 21.8699 10.9179C24.2514 9.53701 26.8131 8.49038 29.4823 7.80769C29.7091 7.75014 29.9495 7.78465 30.1507 7.90363C30.352 8.0226 30.4975 8.2163 30.5553 8.44212C30.6131 8.66793 30.5784 8.90735 30.4589 9.10772C30.3395 9.30809 30.1449 9.45298 29.9182 9.51054C27.4068 10.1545 24.9968 11.1406 22.7564 12.441H22.7579ZM36.0039 22.2063C35.4359 22.2044 34.8897 22.4238 34.4821 22.8176C34.0744 23.2114 33.8377 23.7483 33.8224 24.3137C33.8224 24.8295 34.0577 25.5361 33.374 25.7498C32.8012 25.9273 32.2433 26.149 31.7053 26.413C31.5743 26.4842 31.4233 26.5101 31.276 26.4866C31.1287 26.4632 30.9933 26.3916 30.8913 26.2833L30.3947 25.7896C29.9854 25.3832 29.4309 25.1551 28.8529 25.1551C28.2749 25.1551 27.7205 25.3832 27.3111 25.7896L25.9 27.1947C25.4965 27.5966 25.2672 28.1397 25.2611 28.7079C25.255 29.276 25.4727 29.8239 25.8674 30.2342L26.4594 30.7817C26.5737 30.8831 26.6505 31.0198 26.6773 31.1699C26.7042 31.32 26.6795 31.4747 26.6074 31.6092C26.3481 32.1231 26.127 32.6553 25.9458 33.2015C25.9025 33.3425 25.8138 33.4654 25.6935 33.5514C25.5732 33.6374 25.4279 33.6817 25.2798 33.6775H24.4732C23.8953 33.6787 23.3414 33.9077 22.9327 34.3145C22.524 34.7213 22.2938 35.2728 22.2925 35.8482V37.8377C22.2935 38.1229 22.3513 38.4052 22.4625 38.6681C22.5736 38.931 22.7359 39.1694 22.94 39.3696C24.198 40.6266 25.6091 39.4396 25.9525 40.4837C26.1329 41.0298 26.3538 41.5618 26.6133 42.0753C26.6855 42.2097 26.7101 42.3644 26.6832 42.5145C26.6564 42.6646 26.5796 42.8014 26.4653 42.9027L25.9281 43.3986C25.5169 43.7919 25.2779 44.3306 25.2631 44.8981C25.2483 45.4656 25.4588 46.016 25.8489 46.43L27.3111 47.8949C27.511 48.0947 27.7487 48.253 28.0105 48.3607C28.2724 48.4683 28.553 48.5231 28.8363 48.5219C30.5945 48.5219 30.8039 46.7535 31.7682 47.2612C32.2767 47.5291 32.8054 47.7573 33.3495 47.9435C33.4892 47.9879 33.6107 48.0761 33.6958 48.195C33.7809 48.3139 33.8251 48.457 33.8217 48.603V49.3081C33.8228 49.8835 34.0529 50.4351 34.4614 50.842C34.87 51.249 35.4238 51.4782 36.0017 51.4796H37.9997C38.2856 51.4795 38.5688 51.4231 38.8328 51.3137C39.0968 51.2043 39.3365 51.0441 39.5382 50.8422C40.7799 49.6058 39.6262 48.2846 40.657 47.9479C40.9412 47.8551 41.2202 47.7526 41.4918 47.6399C41.772 47.5235 42.0403 47.4007 42.2969 47.2715C42.4278 47.2001 42.5789 47.1741 42.7263 47.1978C42.8737 47.2214 43.009 47.2932 43.1109 47.4019L43.6067 47.8956C44.016 48.3019 44.5704 48.5301 45.1485 48.5301C45.7265 48.5301 46.2809 48.3019 46.6903 47.8956L48.1 46.4897C48.3024 46.2882 48.4629 46.0489 48.5722 45.7855C48.6815 45.5221 48.7376 45.2398 48.7371 44.9548C48.7371 43.2012 46.9789 43.0884 47.4732 42.1165C47.742 41.5906 47.9694 41.0447 48.1532 40.4837C48.1966 40.3426 48.2852 40.2196 48.4055 40.1335C48.5258 40.0474 48.6711 40.0029 48.8192 40.007H49.52C50.0979 40.0058 50.6518 39.7767 51.0605 39.3699C51.4692 38.9631 51.6994 38.4116 51.7008 37.8362V35.8467C51.7006 35.562 51.6438 35.28 51.5339 35.0171C51.4239 34.7542 51.2628 34.5156 51.06 34.3149C49.8182 33.0784 48.4914 34.2272 48.1532 33.2007C48.06 32.9178 47.9569 32.6407 47.8439 32.3696C47.727 32.0906 47.6037 31.8233 47.4739 31.5679C47.4024 31.4375 47.3764 31.2872 47.3999 31.1405C47.4235 30.9938 47.4953 30.859 47.6042 30.7574L48.1007 30.2637C48.5088 29.8561 48.7379 29.304 48.7379 28.7285C48.7379 28.1529 48.5088 27.6009 48.1007 27.1933L46.6888 25.7896C46.4864 25.588 46.2461 25.4282 45.9816 25.3193C45.7171 25.2105 45.4336 25.1547 45.1474 25.1552C44.1587 25.1552 43.7229 25.671 43.1168 26.2759C43.0131 26.3835 42.8768 26.4542 42.7289 26.4774C42.5809 26.5006 42.4295 26.4748 42.2976 26.4041C41.7831 26.1323 41.2464 25.9043 40.6933 25.7225C40.5588 25.6805 40.4408 25.5978 40.3555 25.486C40.2703 25.3742 40.222 25.2387 40.2175 25.0984L40.1746 24.3277C40.1557 23.763 39.9191 23.2273 39.5137 22.8319C39.1084 22.4365 38.5656 22.2119 37.9982 22.2049L36.0039 22.2063ZM38.0019 23.9747H35.9825C35.8848 23.9767 35.7913 24.0143 35.7198 24.0805C35.6483 24.1467 35.6038 24.2368 35.5947 24.3336C35.7457 25.0766 35.6034 25.8491 35.1973 26.4903C34.6135 27.3303 33.9622 27.3745 33.1534 27.6987C32.3875 28.0031 31.9465 28.3803 30.9993 28.23C29.6229 28.009 29.3513 26.9258 28.8533 26.9258C28.7999 26.9256 28.747 26.936 28.6976 26.9562C28.6482 26.9764 28.6033 27.0062 28.5654 27.0437L27.1535 28.4422C27.1152 28.4768 27.0842 28.5186 27.0622 28.5653C27.0402 28.6119 27.0277 28.6624 27.0254 28.7138C27.0231 28.7653 27.0311 28.8167 27.0489 28.865C27.0667 28.9134 27.094 28.9578 27.1291 28.9956C27.7763 29.4346 28.2353 30.0988 28.416 30.8576C28.5884 31.8066 28.2102 32.2745 27.8846 33.0615C27.5687 33.8249 27.5109 34.4187 26.7369 34.9773C25.5951 35.8003 24.5472 35.2064 24.1898 35.5616C24.1135 35.6374 24.0704 35.7402 24.0699 35.8475V37.837C24.0709 37.9443 24.1142 38.047 24.1904 38.123C24.2667 38.1989 24.3698 38.242 24.4777 38.243C25.2624 38.1227 26.0644 38.2877 26.7369 38.7079C27.5109 39.2664 27.5687 39.8611 27.8846 40.6237C28.2102 41.4099 28.5891 41.8763 28.416 42.8276C28.1666 44.2011 27.0196 44.4766 27.0218 44.9423C27.0218 44.9983 27.0332 45.0536 27.0554 45.1051C27.0775 45.1565 27.1099 45.2029 27.1506 45.2415L28.5639 46.6466C28.6476 46.7207 28.7567 46.7598 28.8685 46.756C28.9804 46.7522 29.0865 46.7056 29.1648 46.626C29.6552 46.0133 30.3466 45.592 31.1177 45.436C32.0516 45.3137 32.4911 45.691 33.2445 46.0166C33.9978 46.3423 34.5831 46.3991 35.1352 47.1676C35.9381 48.2839 35.3653 49.2477 35.7138 49.5947C35.7899 49.6708 35.8932 49.7137 36.001 49.7141H37.999C38.1068 49.7132 38.2099 49.6701 38.2862 49.5941C38.3625 49.5182 38.4057 49.4155 38.4067 49.3081C38.2959 48.5606 38.4619 47.7986 38.8736 47.1639C39.4338 46.3932 40.0317 46.3357 40.8147 46.013C41.5991 45.6792 42.0793 45.3122 43.0051 45.4589C44.3815 45.6799 44.653 46.7631 45.1511 46.7631C45.2045 46.7632 45.2574 46.7529 45.3068 46.7327C45.3562 46.7124 45.4011 46.6827 45.4389 46.6452L46.8464 45.2422C46.9221 45.1657 46.9645 45.0626 46.9645 44.9552C46.9645 44.8478 46.9221 44.7447 46.8464 44.6682C46.2372 44.2172 45.8137 43.5609 45.655 42.8217C45.507 41.8815 45.8837 41.4254 46.21 40.6399C46.5363 39.8544 46.5918 39.2657 47.3659 38.7079C48.4907 37.8974 49.4579 38.4699 49.8079 38.1229C49.8842 38.0471 49.9273 37.9443 49.9278 37.837V35.8475C49.9268 35.7402 49.8835 35.6375 49.8072 35.5617C49.7309 35.4859 49.6278 35.443 49.52 35.4422C48.7692 35.5522 48.0039 35.3867 47.3666 34.9765C46.5926 34.4187 46.5349 33.8234 46.2107 33.0445C45.8755 32.2635 45.507 31.7853 45.6543 30.8635C45.8763 29.493 46.9641 29.2225 46.9641 28.7266C46.9643 28.6733 46.954 28.6205 46.9337 28.5712C46.9133 28.5219 46.8834 28.477 46.8457 28.4393L45.436 27.0378C45.3591 26.9624 45.2556 26.9202 45.1477 26.9202C45.0399 26.9202 44.9363 26.9624 44.8595 27.0378C44.4044 27.6467 43.7405 28.0678 42.9939 28.2212C42.0564 28.3641 41.5983 27.9832 40.8206 27.6516C40.0584 27.3259 39.4989 27.2714 38.9499 26.5552C38.1277 25.4838 38.645 24.4633 38.2594 24.0801C38.2252 24.0455 38.1844 24.018 38.1395 23.9992C38.0945 23.9803 38.0462 23.9705 37.9975 23.9703L38.0019 23.9747ZM57.6963 12.2501C56.8901 12.25 56.102 12.4879 55.4316 12.9337C54.7612 13.3796 54.2387 14.0134 53.9301 14.755C53.6215 15.4966 53.5407 16.3126 53.6978 17.1C53.855 17.8873 54.2432 18.6105 54.8132 19.1782C55.3832 19.7459 56.1094 20.1325 56.9001 20.2891C57.6908 20.4458 58.5103 20.3655 59.2551 20.0583C60 19.7511 60.6366 19.231 61.0845 18.5635C61.5324 17.8961 61.7715 17.1114 61.7715 16.3086C61.7715 15.2324 61.3421 14.2002 60.5779 13.4391C59.8137 12.678 58.7771 12.2503 57.6963 12.2501ZM59.3243 14.6869C59.5922 14.9536 59.7899 15.282 59.8999 15.6431C60.0099 16.0041 60.0288 16.3865 59.9549 16.7566C59.8809 17.1266 59.7165 17.4727 59.4761 17.7643C59.2357 18.0559 58.9268 18.284 58.5767 18.4283C58.2266 18.5726 57.8462 18.6287 57.4692 18.5917C57.0921 18.5546 56.7301 18.4255 56.4151 18.2158C56.1001 18.0061 55.842 17.7223 55.6635 17.3895C55.485 17.0567 55.3917 16.6852 55.3919 16.3079C55.3921 15.8543 55.5274 15.411 55.7806 15.034C56.0337 14.657 56.3935 14.3631 56.8144 14.1896C57.2352 14.0161 57.6983 13.9708 58.145 14.0593C58.5918 14.1478 59.0022 14.3662 59.3243 14.6869ZM66.2233 32.7837C67.0295 32.7835 67.8176 33.0215 68.488 33.4673C69.1583 33.9132 69.6809 34.547 69.9895 35.2886C70.2981 36.0302 70.3789 36.8462 70.2217 37.6335C70.0645 38.4209 69.6764 39.1441 69.1064 39.7118C68.5364 40.2794 67.8102 40.666 67.0195 40.8227C66.2288 40.9794 65.4092 40.899 64.6644 40.5919C63.9196 40.2847 63.283 39.7645 62.8351 39.0971C62.3872 38.4297 62.1481 37.645 62.1481 36.8422C62.1481 35.7658 62.5775 34.7335 63.3419 33.9724C64.1063 33.2113 65.1423 32.7837 66.2233 32.7837ZM67.8513 35.2204C67.5293 34.8996 67.1189 34.6811 66.6722 34.5926C66.2255 34.504 65.7624 34.5494 65.3415 34.7229C64.9206 34.8964 64.5609 35.1903 64.3078 35.5674C64.0547 35.9445 63.9196 36.3879 63.9196 36.8415C63.9196 37.2951 64.0547 37.7384 64.3078 38.1155C64.5609 38.4927 64.9206 38.7866 65.3415 38.9601C65.7624 39.1336 66.2255 39.179 66.6722 39.0904C67.1189 39.0018 67.5293 38.7833 67.8513 38.4625C68.2822 38.0322 68.5242 37.4492 68.5242 36.8415C68.5242 36.2338 68.2822 35.6508 67.8513 35.2204ZM57.6615 53.1773C56.8554 53.1773 56.0673 53.4153 55.397 53.8613C54.7267 54.3072 54.2043 54.9411 53.8958 55.6827C53.5873 56.4243 53.5066 57.2403 53.6639 58.0276C53.8212 58.8149 54.2094 59.538 54.7794 60.1056C55.3494 60.6732 56.0757 61.0597 56.8663 61.2163C57.657 61.3729 58.4765 61.2926 59.2213 60.9854C59.9661 60.6782 60.6026 60.158 61.0505 59.4906C61.4984 58.8232 61.7374 58.0385 61.7374 57.2358C61.7374 56.1594 61.308 55.1271 60.5436 54.366C59.7792 53.6049 58.7425 53.1773 57.6615 53.1773ZM59.2895 55.614C59.5574 55.8808 59.7552 56.2092 59.8652 56.5702C59.9752 56.9312 59.994 57.3137 59.9201 57.6837C59.8462 58.0537 59.6817 58.3999 59.4413 58.6915C59.2009 58.9831 58.892 59.2112 58.5419 59.3555C58.1918 59.4998 57.8114 59.5559 57.4344 59.5188C57.0573 59.4817 56.6953 59.3526 56.3803 59.1429C56.0653 58.9332 55.8072 58.6494 55.6287 58.3166C55.4502 57.9838 55.357 57.6123 55.3571 57.2351C55.3577 56.7817 55.4931 56.3386 55.7464 55.9618C55.9996 55.585 56.3593 55.2913 56.78 55.1179C57.2008 54.9444 57.6636 54.899 58.1103 54.9873C58.5569 55.0756 58.9672 55.2937 59.2895 55.614ZM37 61.8831C37.8061 61.8831 38.5941 62.1211 39.2644 62.567C39.9347 63.013 40.4571 63.6469 40.7656 64.3885C41.0741 65.1301 41.1548 65.9461 40.9976 66.7334C40.8403 67.5206 40.4521 68.2438 39.8821 68.8114C39.312 69.379 38.5858 69.7655 37.7951 69.9221C37.0045 70.0787 36.1849 69.9984 35.4402 69.6912C34.6954 69.384 34.0588 68.8638 33.6109 68.1964C33.1631 67.529 32.924 66.7443 32.924 65.9416C32.9242 64.8653 33.3537 63.8331 34.1181 63.072C34.8824 62.3109 35.919 61.8833 37 61.8831ZM38.628 64.3198C38.3059 63.999 37.8956 63.7805 37.4489 63.6919C37.0021 63.6034 36.539 63.6487 36.1182 63.8222C35.6973 63.9958 35.3376 64.2897 35.0845 64.6668C34.8314 65.0439 34.6963 65.4873 34.6963 65.9408C34.6963 66.3944 34.8314 66.8378 35.0845 67.2149C35.3376 67.592 35.6973 67.8859 36.1182 68.0595C36.539 68.233 37.0021 68.2783 37.4489 68.1898C37.8956 68.1012 38.3059 67.8827 38.628 67.5619C39.0589 67.1315 39.3008 66.5486 39.3008 65.9408C39.3008 65.3331 39.0589 64.7502 38.628 64.3198ZM16.4842 53.4337C15.678 53.4337 14.89 53.6717 14.2197 54.1177C13.5494 54.5637 13.0269 55.1976 12.7185 55.9393C12.41 56.6809 12.3293 57.497 12.4866 58.2843C12.644 59.0716 13.0322 59.7947 13.6023 60.3623C14.1724 60.9299 14.8988 61.3163 15.6895 61.4729C16.4802 61.6294 17.2997 61.5489 18.0445 61.2416C18.7893 60.9343 19.4258 60.414 19.8736 59.7465C20.3213 59.079 20.5603 58.2942 20.5601 57.4915C20.5599 56.4152 20.1304 55.3831 19.366 54.6222C18.6017 53.8612 17.5651 53.4337 16.4842 53.4337ZM18.1122 55.8697C18.3799 56.1364 18.5774 56.4647 18.6873 56.8256C18.7972 57.1864 18.8159 57.5687 18.742 57.9385C18.6681 58.3083 18.5037 58.6543 18.2634 58.9457C18.0231 59.2372 17.7144 59.4651 17.3645 59.6094C17.0146 59.7536 16.6344 59.8098 16.2575 59.7728C15.8807 59.7358 15.5188 59.6068 15.2039 59.3973C14.8891 59.1878 14.631 58.9042 14.4525 58.5716C14.274 58.2391 14.1806 57.8678 14.1806 57.4907C14.1813 57.0375 14.3168 56.5946 14.57 56.218C14.8232 55.8413 15.1828 55.5478 15.6033 55.3744C16.0239 55.201 16.4866 55.1555 16.9331 55.2436C17.3796 55.3318 17.7899 55.5496 18.1122 55.8697ZM18.1048 14.5115C17.7827 14.1904 17.3723 13.9717 16.9253 13.883C16.4784 13.7943 16.0151 13.8396 15.594 14.0131C15.1729 14.1866 14.813 14.4806 14.5598 14.8579C14.3065 15.2352 14.1714 15.6788 14.1714 16.1325C14.1714 16.5863 14.3065 17.0299 14.5598 17.4072C14.813 17.7844 15.1729 18.0784 15.594 18.252C16.0151 18.4255 16.4784 18.4708 16.9253 18.3821C17.3723 18.2934 17.7827 18.0746 18.1048 17.7536C18.5358 17.3233 18.7779 16.7404 18.7781 16.1327C18.7782 15.525 18.5356 14.942 18.1048 14.5115Z" fill="black"/>
</g>
<defs>
<clipPath id="clip0_6_2270">
<rect width="74" height="70" fill="white"/>
</clipPath>
</defs>
</svg>
