<svg width="50" height="50" viewBox="0 0 50 50" fill="none" xmlns="http://www.w3.org/2000/svg">
<path d="M42.9195 14.9117C42.8786 14.8163 42.8197 14.7295 42.7461 14.6562L31.1953 3.34844C31.0435 3.21336 30.8499 3.13449 30.6469 3.125H10.6742C9.70503 3.12603 8.77585 3.51149 8.09054 4.1968C7.40523 4.88211 7.01977 5.8113 7.01874 6.78047V43.2188C7.01957 44.1881 7.40493 45.1174 8.09027 45.8029C8.7756 46.4884 9.7049 46.874 10.6742 46.875H39.3258C40.2949 46.874 41.2241 46.4885 41.9094 45.8032C42.5947 45.1179 42.9802 44.1887 42.9812 43.2195V15.3008C42.989 15.1682 42.968 15.0354 42.9195 14.9117ZM31.4297 5.76406L40.2812 14.4297H34.9609C34.0257 14.4297 33.1287 14.0587 32.4667 13.3982C31.8047 12.7376 31.4317 11.8414 31.4297 10.9062V5.76406ZM41.4187 43.2195C41.4181 43.7744 41.1974 44.3064 40.805 44.6988C40.4127 45.0912 39.8807 45.3119 39.3258 45.3125H10.6742C10.1193 45.3119 9.58731 45.0912 9.19494 44.6988C8.80257 44.3064 8.58186 43.7744 8.58124 43.2195V6.78125C8.5781 6.50549 8.63009 6.23188 8.73415 5.97649C8.83821 5.7211 8.99224 5.48907 9.18721 5.29403C9.38218 5.09899 9.61415 4.94486 9.8695 4.84071C10.1249 4.73655 10.3984 4.68446 10.6742 4.6875H29.8656V10.9039C29.8671 12.254 30.404 13.5484 31.3587 14.503C32.3133 15.4577 33.6077 15.9946 34.9578 15.9961H41.4187V43.2195Z" fill="#F48120" stroke="#F48120" stroke-width="1.17188"/>
<path d="M14.1094 19.2476C14.1094 19.4548 14.1917 19.6535 14.3382 19.8C14.4847 19.9465 14.6834 20.0288 14.8906 20.0288H35.1094C35.3166 20.0288 35.5153 19.9465 35.6618 19.8C35.8083 19.6535 35.8906 19.4548 35.8906 19.2476C35.8906 19.0404 35.8083 18.8416 35.6618 18.6951C35.5153 18.5486 35.3166 18.4663 35.1094 18.4663H14.8906C14.6834 18.4663 14.4847 18.5486 14.3382 18.6951C14.1917 18.8416 14.1094 19.0404 14.1094 19.2476ZM35.1094 24.214H14.8906C14.6834 24.214 14.4847 24.2963 14.3382 24.4428C14.1917 24.5893 14.1094 24.788 14.1094 24.9952C14.1094 25.2024 14.1917 25.4011 14.3382 25.5476C14.4847 25.6942 14.6834 25.7765 14.8906 25.7765H35.1094C35.3166 25.7765 35.5153 25.6942 35.6618 25.5476C35.8083 25.4011 35.8906 25.2024 35.8906 24.9952C35.8906 24.788 35.8083 24.5893 35.6618 24.4428C35.5153 24.2963 35.3166 24.214 35.1094 24.214ZM35.1094 29.9608H14.8906C14.6834 29.9608 14.4847 30.0432 14.3382 30.1897C14.1917 30.3362 14.1094 30.5349 14.1094 30.7421C14.1094 30.9493 14.1917 31.148 14.3382 31.2945C14.4847 31.441 14.6834 31.5233 14.8906 31.5233H35.1094C35.3166 31.5233 35.5153 31.441 35.6618 31.2945C35.8083 31.148 35.8906 30.9493 35.8906 30.7421C35.8906 30.5349 35.8083 30.3362 35.6618 30.1897C35.5153 30.0432 35.3166 29.9608 35.1094 29.9608ZM21.4953 34.7405C21.3465 34.5963 21.1466 34.5171 20.9394 34.5203C20.7322 34.5236 20.5348 34.609 20.3906 34.7577L16.7695 38.4905C16.6274 38.637 16.5482 38.8333 16.5489 39.0374C16.5497 39.2415 16.6302 39.4373 16.7734 39.5827L20.3945 43.2593C20.4666 43.3324 20.5523 43.3906 20.6468 43.4305C20.7413 43.4705 20.8428 43.4915 20.9454 43.4922C21.048 43.493 21.1497 43.4736 21.2448 43.435C21.3399 43.3964 21.4265 43.3395 21.4996 43.2675C21.5727 43.1955 21.6309 43.1097 21.6709 43.0152C21.7109 42.9207 21.7318 42.8193 21.7326 42.7166C21.7333 42.614 21.7139 42.5123 21.6753 42.4172C21.6368 42.3221 21.5798 42.2355 21.5078 42.1624L18.4227 39.0296L21.5117 35.8452C21.656 35.6965 21.7354 35.4966 21.7323 35.2895C21.7292 35.0823 21.644 34.8848 21.4953 34.7405ZM29.6094 34.7577C29.4637 34.6157 29.2684 34.5361 29.065 34.5359C28.8616 34.5356 28.6661 34.6147 28.52 34.7563C28.374 34.898 28.289 35.091 28.2831 35.2943C28.2772 35.4977 28.3508 35.6953 28.4883 35.8452L31.5773 39.0304L28.4922 42.1632C28.3506 42.3116 28.273 42.5097 28.2762 42.7147C28.2794 42.9198 28.3631 43.1154 28.5092 43.2593C28.6554 43.4032 28.8523 43.4838 29.0574 43.4838C29.2625 43.4838 29.4593 43.4032 29.6055 43.2593L33.2266 39.5827C33.3698 39.4373 33.4503 39.2415 33.4511 39.0374C33.4518 38.8333 33.3726 38.637 33.2305 38.4905L29.6094 34.7577ZM26.9148 33.9358C26.721 33.8628 26.5061 33.8697 26.3173 33.9549C26.1285 34.0401 25.9812 34.1968 25.9078 34.3905L22.6305 43.0694C22.5908 43.1661 22.5708 43.2697 22.5718 43.3741C22.5729 43.4786 22.5948 43.5818 22.6365 43.6776C22.6781 43.7734 22.7385 43.86 22.8141 43.932C22.8897 44.0041 22.9791 44.0603 23.0768 44.0972C23.1745 44.1342 23.2786 44.1511 23.383 44.1471C23.4874 44.1431 23.5899 44.1182 23.6845 44.0739C23.7791 44.0296 23.8639 43.9667 23.9338 43.889C24.0037 43.8114 24.0573 43.7205 24.0914 43.6218L27.3695 34.9429C27.4058 34.8469 27.4228 34.7447 27.4196 34.6422C27.4164 34.5396 27.393 34.4387 27.3508 34.3452C27.3085 34.2517 27.2483 34.1674 27.1735 34.0972C27.0987 34.0269 27.0108 33.9721 26.9148 33.9358Z" fill="#F48120" stroke="#F48120" stroke-width="1.17188"/>
</svg>
