<svg width="75" height="70" viewBox="0 0 75 70" fill="none" xmlns="http://www.w3.org/2000/svg">
<path d="M66.9805 62.1766C66.6262 61.8235 66.2161 61.5447 65.7793 61.335L65.7527 59.6758C65.7127 57.5201 64.1493 55.7946 62.0906 55.4893C62.0772 55.3273 62.0559 55.1574 62.0426 54.9875C61.7363 51.8124 61.4833 49.4975 61.0119 48.6003C59.8587 46.3915 58.1275 44.3872 56.4576 42.4439C54.7797 40.4927 53.0405 38.4831 51.9432 36.3142C51.7035 35.8443 51.5064 35.3903 51.3306 34.9284C52.2095 35.5682 53.0564 36.1389 53.8128 36.5398C55.1685 37.2592 56.2392 37.4424 57.1047 37.5194C57.8345 37.5884 58.4417 37.5884 59.0197 37.5725C60.2661 38.5574 61.7949 39.6936 63.6832 39.6936C65.8298 39.6936 67.5824 37.9548 67.5824 35.8071C67.5824 34.3602 65.9257 31.6763 63.4302 28.0792C63.2811 27.8695 63.1506 27.6783 63.0494 27.5297C62.4288 26.6191 62.0346 25.7908 61.6857 25.0555C61.2916 24.2272 60.9507 23.5051 60.41 22.9476C59.6403 22.1512 58.9638 21.3229 58.3033 20.5159C57.9278 20.0539 57.5682 19.6186 57.2193 19.2097C57.6908 18.4133 58.1542 17.6196 58.5963 16.8443C58.7268 16.6267 58.7321 16.3559 58.6176 16.1302C58.5004 15.9072 58.2767 15.7506 58.0237 15.7293C55.2271 15.4426 52.3374 15.1506 49.5971 15.4426C45.8071 15.8515 42.1052 17.3939 39.2075 19.6822V13.4967C39.2075 12.4905 38.3899 11.6755 37.3805 11.6755H35.1166C34.1072 11.6755 33.2895 12.4905 33.2895 13.4967V16.5072C33.2895 16.6903 33.1404 16.839 32.9566 16.839H30.7327C30.549 16.839 30.4051 16.6903 30.4051 16.5072L30.4105 13.5099C30.4105 12.5038 29.5928 11.6888 28.5834 11.6888H24.322C23.3126 11.6888 22.495 12.5038 22.495 13.5099V16.5204C22.495 16.7036 22.3458 16.8523 22.1674 16.8523L19.9089 16.8549C19.7251 16.8549 19.5813 16.7063 19.5813 16.5231V13.5099C19.5813 12.5038 18.7636 11.6888 17.7542 11.6888H15.4904C14.4809 11.6888 13.6633 12.5038 13.6633 13.5099V22.597C13.6633 23.8819 14.5076 24.9624 15.6741 25.3421C15.3066 25.8597 15.0882 26.4783 15.0882 27.1579C15.0882 28.8968 16.505 30.3117 18.2522 30.3117H18.8461C19.2483 36.8371 18.5745 42.245 14.3531 48.6137C13.7885 49.4711 13.5141 50.3817 13.5141 51.4012V55.4443C11.1624 55.4443 9.24477 57.3531 9.24477 59.6998V61.3245C7.78527 61.9961 6.76254 63.4722 6.76254 65.1792V69.1268C6.76254 69.5409 7.09546 69.8754 7.51363 69.8754H67.4925C67.908 69.8754 68.2436 69.5436 68.2436 69.1268L68.2516 65.2058C68.2436 64.0669 67.8015 62.9944 66.9811 62.1767L66.9805 62.1766ZM64.2532 59.705L64.2745 60.9342C64.1733 60.9262 64.0694 60.9209 63.9682 60.9209H32.8712V59.6918C32.8712 58.1706 34.1123 56.9335 35.6384 56.9335H61.4513C62.9934 56.9308 64.2265 58.1468 64.2532 59.705ZM49.7461 16.9371C51.97 16.6981 54.3564 16.876 56.7082 17.107C56.354 17.7122 55.9997 18.3175 55.6375 18.9228C55.4671 19.2095 55.5017 19.5679 55.7334 19.8122C56.1755 20.2953 56.6389 20.8582 57.1317 21.4634C57.7789 22.2599 58.5086 23.1545 59.3209 23.9908C59.6885 24.3704 59.9681 24.9571 60.3224 25.6977C60.6766 26.4384 61.1134 27.3702 61.8032 28.3684C61.9044 28.525 62.0429 28.7082 62.1921 28.9259C63.1536 30.3117 66.0779 34.5247 66.0779 35.8042C66.0779 37.1236 65.0019 38.1961 63.6782 38.1961C62.2054 38.1961 60.8338 37.1077 59.7365 36.2317C59.6007 36.1228 59.4302 36.0697 59.2518 36.0697C58.6046 36.083 57.9974 36.0963 57.233 36.0299C56.4819 35.9609 55.6296 35.8122 54.5137 35.2202C53.3205 34.5884 51.7944 33.4256 50.3216 32.3107C50.0632 32.1142 49.709 32.1062 49.4427 32.2894C49.1763 32.4726 49.0618 32.8124 49.155 33.1177C49.5359 34.3548 49.9247 35.6397 50.6145 36.9857C51.7997 39.3165 53.5948 41.4031 55.334 43.4154C57.0252 45.3799 58.6259 47.2356 59.6965 49.2877C60.0641 49.9885 60.365 53.0786 60.5621 55.1254C60.5701 55.2263 60.5834 55.3298 60.5887 55.4307L36.6828 55.428C35.9317 52.0698 35.218 47.2727 34.6906 43.7183C34.5069 42.4892 34.3497 41.4273 34.2192 40.6335C33.1219 33.8639 34.2059 27.8772 37.2661 23.7601C40.0093 20.0833 44.7954 17.4657 49.7468 16.9375L49.7461 16.9371ZM15.1575 22.5969V13.5099C15.1575 13.3267 15.3067 13.178 15.4851 13.178H17.7489C17.9327 13.178 18.0765 13.3267 18.0765 13.5099V16.5203C18.0765 17.5265 18.8942 18.3415 19.9036 18.3415H22.1275C23.1369 18.3415 23.9546 17.5265 23.9546 16.5203L23.9519 13.5099C23.9519 13.3267 24.101 13.178 24.2848 13.178H28.5462C28.7299 13.178 28.8738 13.3267 28.8738 13.5099V16.5203C28.8738 17.5265 29.6914 18.3415 30.7008 18.3415H32.9247C33.9342 18.3415 34.7518 17.5265 34.7518 16.5203V13.5099C34.7518 13.3267 34.9009 13.178 35.0847 13.178H37.3485C37.5323 13.178 37.6761 13.3267 37.6761 13.5099V21.0121C37.0822 21.6041 36.5309 22.2226 36.0409 22.8731C35.7745 23.2341 35.5215 23.6137 35.2845 23.9933L16.5692 23.996C15.7916 24.004 15.1575 23.3721 15.1575 22.5969ZM16.5824 27.1498C16.5824 26.2393 17.3254 25.4906 18.247 25.4906H34.4749C33.9636 26.5312 33.5401 27.6383 33.2125 28.8064L18.2472 28.809C17.3257 28.809 16.5824 28.0684 16.5824 27.1498ZM15.0083 51.3929C15.0083 50.6523 15.1921 50.0469 15.6022 49.4284C20.0341 42.7412 20.7558 37.0948 20.3483 30.3035H32.8529C32.1844 33.4918 32.1311 37.073 32.7517 40.8775C32.8822 41.666 33.0393 42.7199 33.2151 43.9437C33.7264 47.4109 34.4162 52.0461 35.1513 55.436H15.0084L15.0083 51.3929ZM10.739 59.6889C10.739 58.1677 11.9801 56.9306 13.5062 56.9306H32.3919C31.758 57.6713 31.3692 58.6376 31.3692 59.6889V60.9181L11.0264 60.9207C10.9306 60.9207 10.8347 60.9287 10.7388 60.934L10.739 59.6889ZM28.8897 65.1683V68.3699H8.25648V65.1683C8.25648 63.6471 9.4976 62.41 11.0237 62.41H29.9094C29.2782 63.156 28.8897 64.1223 28.8897 65.1683ZM66.736 68.3752H30.389V65.1737C30.389 63.6525 31.6301 62.4154 33.1562 62.4154H63.9683C64.698 62.4154 65.3931 62.7074 65.9178 63.2304C66.4505 63.7613 66.7435 64.4595 66.7435 65.2002L66.736 68.3752Z" fill="black"/>
</svg>
