<svg width="50" height="50" viewBox="0 0 50 50" fill="none" xmlns="http://www.w3.org/2000/svg">
<path d="M48.9583 29.1665C48.9583 26.6504 47.4604 24.4821 45.3125 23.492V22.9165C45.3125 11.716 36.2005 2.604 25 2.604C13.7994 2.604 4.68746 11.716 4.68746 22.9165V23.492C2.53954 24.4821 1.04163 26.6509 1.04163 29.1665C1.04163 32.6129 3.84527 35.4165 7.29163 35.4165H9.37496C9.65123 35.4165 9.91618 35.3068 10.1115 35.1114C10.3069 34.9161 10.4166 34.6511 10.4166 34.3748V23.9582C10.4166 23.6819 10.3069 23.417 10.1115 23.2216C9.91618 23.0262 9.65123 22.9165 9.37496 22.9165H7.29163C7.11558 22.9165 6.94267 22.9285 6.77079 22.9425V22.9165C6.77079 12.8649 14.9484 4.68734 25 4.68734C35.0515 4.68734 43.2291 12.8649 43.2291 22.9165V22.9425C43.0573 22.9285 42.8843 22.9165 42.7083 22.9165H40.625C40.3487 22.9165 40.0837 23.0262 39.8884 23.2216C39.693 23.417 39.5833 23.6819 39.5833 23.9582V34.3748C39.5833 34.6511 39.693 34.9161 39.8884 35.1114C40.0837 35.3068 40.3487 35.4165 40.625 35.4165H42.7083C42.8843 35.4165 43.0573 35.4045 43.2291 35.3905V36.979C43.2291 40.4254 40.4255 43.229 36.9791 43.229H29.1666C29.1666 42.08 28.2323 41.1457 27.0833 41.1457H21.875C20.726 41.1457 19.7916 42.08 19.7916 43.229V45.3123C19.7916 46.4613 20.726 47.3957 21.875 47.3957H27.0833C28.2323 47.3957 29.1666 46.4613 29.1666 45.3123H36.9791C41.5739 45.3123 45.3125 41.5738 45.3125 36.979V34.841C47.4604 33.8509 48.9583 31.6826 48.9583 29.1665ZM8.33329 24.9998V33.3332H7.29163C4.99423 33.3332 3.12496 31.4639 3.12496 29.1665C3.12496 26.8691 4.99423 24.9998 7.29163 24.9998H8.33329ZM21.875 45.3123V43.229H27.0833L27.0838 44.2634L27.0833 44.2707L27.0838 44.2785L27.0849 45.3123H21.875ZM42.7083 33.3332H41.6666V24.9998H42.7083C45.0057 24.9998 46.875 26.8691 46.875 29.1665C46.875 31.4639 45.0057 33.3332 42.7083 33.3332ZM25 35.9373C31.3177 35.9373 36.4583 30.7967 36.4583 24.479C36.4583 18.1613 31.3177 13.0207 25 13.0207C18.6823 13.0207 13.5416 18.1613 13.5416 24.479C13.5416 26.5233 14.0895 28.5207 15.1302 30.2842L14.0812 35.741C14.0455 35.9269 14.0612 36.1191 14.1266 36.2968C14.1919 36.4745 14.3045 36.6311 14.4522 36.7496C14.5998 36.8681 14.777 36.9442 14.9647 36.9695C15.1523 36.9949 15.3433 36.9686 15.5171 36.8936L20.1942 34.8748C21.6987 35.5776 23.3395 35.9404 25 35.9373ZM16.4989 34.2009L17.252 30.28C17.3024 30.0179 17.2502 29.7465 17.1062 29.5217C16.1396 28.0174 15.6255 26.2671 15.625 24.479C15.625 19.3097 19.8307 15.104 25 15.104C30.1692 15.104 34.375 19.3097 34.375 24.479C34.375 29.6483 30.1692 33.854 25 33.854C23.4937 33.854 22.0474 33.5004 20.7005 32.8035C20.5635 32.7324 20.4124 32.6927 20.2582 32.6873C20.1039 32.6819 19.9504 32.7109 19.8088 32.7722L16.4989 34.2009ZM25 27.604H19.7916C19.5154 27.604 19.2504 27.4943 19.0551 27.2989C18.8597 27.1036 18.75 26.8386 18.75 26.5623C18.75 26.2861 18.8597 26.0211 19.0551 25.8258C19.2504 25.6304 19.5154 25.5207 19.7916 25.5207H25C25.2762 25.5207 25.5412 25.6304 25.7365 25.8258C25.9319 26.0211 26.0416 26.2861 26.0416 26.5623C26.0416 26.8386 25.9319 27.1036 25.7365 27.2989C25.5412 27.4943 25.2762 27.604 25 27.604ZM18.75 22.3957C18.75 22.1194 18.8597 21.8545 19.0551 21.6591C19.2504 21.4637 19.5154 21.354 19.7916 21.354H30.2083C30.4846 21.354 30.7495 21.4637 30.9449 21.6591C31.1402 21.8545 31.25 22.1194 31.25 22.3957C31.25 22.6719 31.1402 22.9369 30.9449 23.1322C30.7495 23.3276 30.4846 23.4373 30.2083 23.4373H19.7916C19.5154 23.4373 19.2504 23.3276 19.0551 23.1322C18.8597 22.9369 18.75 22.6719 18.75 22.3957Z" fill="#F48120" stroke="#F48120" stroke-width="0.78125"/>
</svg>
