<svg width="52" height="52" viewBox="0 0 52 52" fill="none" xmlns="http://www.w3.org/2000/svg">
<path d="M26 35.0415C23.602 35.0415 21.3022 34.0889 19.6066 32.3933C17.9109 30.6976 16.9583 28.3978 16.9583 25.9998C16.9583 23.6018 17.9109 21.3021 19.6066 19.6064C21.3022 17.9108 23.602 16.9582 26 16.9582C28.398 16.9582 30.6978 17.9108 32.3934 19.6064C34.0891 21.3021 35.0417 23.6018 35.0417 25.9998C35.0417 28.3978 34.0891 30.6976 32.3934 32.3933C30.6978 34.0889 28.398 35.0415 26 35.0415ZM45.1942 28.5057C45.2975 27.679 45.375 26.8523 45.375 25.9998C45.375 25.1473 45.2975 24.2948 45.1942 23.4165L50.645 19.2057C51.1359 18.8182 51.265 18.1207 50.955 17.5523L45.7883 8.61401C45.4783 8.04568 44.7808 7.81318 44.2125 8.04568L37.78 10.629C36.4367 9.62151 35.0417 8.74318 33.4142 8.09734L32.4583 1.25151C32.4059 0.947236 32.2474 0.671362 32.011 0.472767C31.7745 0.274172 31.4754 0.165678 31.1667 0.166509H20.8333C20.1875 0.166509 19.645 0.631509 19.5417 1.25151L18.5858 8.09734C16.9583 8.74318 15.5633 9.62151 14.22 10.629L7.78751 8.04568C7.21918 7.81318 6.52168 8.04568 6.21168 8.61401L1.04501 17.5523C0.709179 18.1207 0.864179 18.8182 1.35501 19.2057L6.80585 23.4165C6.70251 24.2948 6.62501 25.1473 6.62501 25.9998C6.62501 26.8523 6.70251 27.679 6.80585 28.5057L1.35501 32.794C0.864179 33.1815 0.709179 33.879 1.04501 34.4473L6.21168 43.3857C6.52168 43.954 7.21918 44.1607 7.78751 43.954L14.22 41.3448C15.5633 42.3782 16.9583 43.2565 18.5858 43.9023L19.5417 50.7482C19.645 51.3682 20.1875 51.8332 20.8333 51.8332H31.1667C31.8125 51.8332 32.355 51.3682 32.4583 50.7482L33.4142 43.9023C35.0417 43.2307 36.4367 42.3782 37.78 41.3448L44.2125 43.954C44.7808 44.1607 45.4783 43.954 45.7883 43.3857L50.955 34.4473C51.265 33.879 51.1359 33.1815 50.645 32.794L45.1942 28.5057Z" fill="white"/>
</svg>
