<?xml version="1.0" encoding="UTF-8"?>
<svg id="Layer_1" data-name="Layer 1" xmlns="http://www.w3.org/2000/svg" xmlns:xlink="http://www.w3.org/1999/xlink" viewBox="0 0 84.25 22.42">
  <defs>
    <style>
      .cls-1 {
        fill: url(#linear-gradient);
      }

      .cls-1, .cls-2 {
        stroke-width: 0px;
      }

      .cls-2 {
        fill: url(#linear-gradient-2);
      }
    </style>
    <linearGradient id="linear-gradient" x1="37.2" y1="1075.67" x2="79.07" y2="1053.95" gradientTransform="translate(0 -1052.67)" gradientUnits="userSpaceOnUse">
      <stop offset="0" stop-color="#ff6c10"/>
      <stop offset="1" stop-color="#3c34c1"/>
    </linearGradient>
    <linearGradient id="linear-gradient-2" x1="1.36" y1="1066.61" x2="22.74" y2="1060.96" gradientTransform="translate(0 -1052.67)" gradientUnits="userSpaceOnUse">
      <stop offset="0" stop-color="#ff6c10"/>
      <stop offset="1" stop-color="#3c34c1"/>
    </linearGradient>
  </defs>
  <path class="cls-1" d="m46.45,8.91h-4.16c-.06-.41-.17-.77-.34-1.09-.17-.33-.4-.6-.68-.83s-.62-.41-1-.52c-.38-.12-.81-.19-1.27-.19-.82,0-1.54.19-2.14.58-.59.38-1.05.94-1.37,1.65-.32.73-.48,1.6-.48,2.63s.16,1.96.48,2.69c.33.72.79,1.26,1.37,1.63.59.36,1.29.54,2.11.54.46,0,.87-.05,1.24-.17.37-.11.7-.27.99-.48.29-.21.52-.48.7-.78.19-.31.32-.65.39-1.04l4.16.03c-.07.71-.29,1.42-.66,2.11-.36.69-.85,1.32-1.49,1.89-.63.57-1.41,1.02-2.32,1.35-.9.34-1.94.5-3.11.5-1.55,0-2.92-.32-4.14-.96-1.22-.65-2.17-1.58-2.88-2.81-.7-1.23-1.06-2.73-1.06-4.5s.36-3.27,1.08-4.5c.71-1.23,1.69-2.17,2.91-2.81,1.22-.64,2.59-.96,4.11-.96,1.03,0,1.99.13,2.86.41.88.27,1.65.66,2.32,1.18.67.51,1.21,1.14,1.62,1.89s.67,1.6.78,2.57v-.02Zm8.32,10.49c-1.34,0-2.49-.26-3.46-.78-.96-.52-1.7-1.25-2.22-2.19-.52-.94-.78-2.03-.78-3.26s.26-2.33.78-3.26c.52-.94,1.27-1.66,2.22-2.19.97-.52,2.12-.79,3.46-.79s2.49.27,3.45.79c.97.52,1.71,1.25,2.22,2.19.52.93.78,2.02.78,3.26s-.26,2.32-.78,3.26c-.52.93-1.26,1.66-2.22,2.19-.96.52-2.11.78-3.45.78Zm.03-2.9c.49,0,.9-.14,1.24-.42s.6-.67.78-1.18c.19-.5.27-1.09.27-1.74s-.09-1.26-.27-1.76c-.18-.5-.43-.89-.78-1.18-.34-.28-.75-.42-1.24-.42s-.93.14-1.28.42c-.35.28-.61.67-.79,1.18s-.26,1.09-.26,1.76.08,1.24.26,1.74c.19.5.45.89.79,1.18.35.28.78.42,1.28.42Zm19.68-5.71l-3.74.1c-.04-.25-.14-.48-.32-.66-.17-.19-.39-.35-.67-.46-.27-.12-.59-.18-.95-.18-.47,0-.87.09-1.21.27-.33.18-.49.42-.48.73,0,.24.09.44.3.61.21.18.58.31,1.12.42l2.47.44c1.27.23,2.22.61,2.85,1.15.63.53.95,1.24.95,2.12,0,.83-.26,1.55-.78,2.16-.51.61-1.21,1.09-2.1,1.43-.89.34-1.9.5-3.05.5-1.83,0-3.26-.35-4.32-1.06-1.05-.71-1.65-1.66-1.8-2.86l4.02-.1c.08.44.32.78.69,1.01s.84.35,1.42.35c.52,0,.95-.09,1.27-.27s.5-.42.5-.73c0-.27-.13-.49-.38-.65-.25-.17-.64-.3-1.17-.39l-2.23-.4c-1.28-.22-2.24-.63-2.86-1.22-.63-.59-.94-1.35-.93-2.27,0-.81.22-1.5.68-2.06.46-.58,1.12-1.02,1.97-1.32.85-.3,1.85-.45,3-.45,1.73,0,3.09.35,4.1,1.03s1.55,1.62,1.66,2.81l-.02-.03Zm9.53-3.68v2.83h-8.06v-2.83h8.06Zm-6.37-2.89h4.07v11.17c0,.24.04.42.11.58.08.14.21.25.36.31.16.06.34.09.56.09.16,0,.32,0,.49-.04.18-.04.31-.06.4-.08l.62,2.77c-.2.05-.47.12-.82.19-.35.08-.77.13-1.26.15-.96.04-1.77-.06-2.46-.32-.67-.26-1.2-.65-1.56-1.19-.36-.54-.52-1.22-.52-2.04,0,0,0-11.59,0-11.59Z"/>
  <path class="cls-2" d="m11.87,16.09c-.67,0-1.23-.22-1.7-.66s-.7-.97-.7-1.6.23-1.16.7-1.59c.47-.44,1.04-.66,1.7-.66s1.23.22,1.7.66.7.98.7,1.6-.23,1.16-.7,1.6-1.04.66-1.7.66M6.5,5.26h10.76l1.89-3.63c.21-.38.2-.74-.03-1.1-.22-.35-.57-.53-1.02-.53H5.65c-.46,0-.8.18-1.02.53-.22.35-.23.72-.03,1.1l1.89,3.63Zm.38,17.17h10c1.91,0,3.53-.63,4.87-1.89,1.34-1.27,2.01-2.8,2.01-4.6,0-.75-.14-1.49-.41-2.2-.27-.72-.67-1.36-1.19-1.96l-4.52-5.11H6.11L1.6,11.76c-.52.58-.91,1.24-1.19,1.96-.27.72-.41,1.45-.41,2.2,0,1.81.67,3.35,2.01,4.6,1.34,1.27,2.96,1.89,4.87,1.89h0Z"/>
</svg>