<svg width="70" height="59" viewBox="0 0 70 59" fill="none" xmlns="http://www.w3.org/2000/svg">
<path d="M5.5866 0C2.51296 0 0 2.50005 0 5.56433V53.4357C0 56.4999 2.51006 59 5.5866 59H64.4134C67.487 59 70 56.4999 70 53.4357L69.9971 46.358V5.56456C69.9971 2.50027 67.487 0.000222528 64.4105 0.000222528L5.5866 0ZM5.5866 2.17886H64.4104C66.3104 2.17886 67.8094 3.66904 67.8094 5.56433V12.0141H2.18803V5.56433C2.18803 3.66904 3.68662 2.17886 5.5866 2.17886ZM10.9641 5.54989C10.1303 5.57014 9.45343 6.25882 9.45343 7.09214C9.45343 7.93994 10.1536 8.63728 11.0048 8.63728C11.8559 8.63728 12.5532 7.93993 12.5532 7.09214C12.5532 6.24436 11.8559 5.54989 11.0048 5.54989H10.9641ZM18.5991 5.54989C17.7653 5.57014 17.0885 6.25882 17.0885 7.09214C17.0885 7.93994 17.7886 8.63728 18.6398 8.63728C19.491 8.63728 20.1882 7.93993 20.1882 7.09214C20.1882 6.24436 19.491 5.54989 18.6398 5.54989H18.5991ZM26.2341 5.54989C25.4004 5.57014 24.7235 6.25882 24.7235 7.09214C24.7235 7.93994 25.4236 8.63728 26.2748 8.63728C27.126 8.63728 27.8232 7.93993 27.8232 7.09214C27.8232 6.24436 27.126 5.54989 26.2748 5.54989H26.2341ZM2.19115 14.193H67.8096V53.4383C67.8096 55.3336 66.3106 56.8237 64.4106 56.8237L56.7265 56.8208H5.58675C3.68677 56.8208 2.18773 55.3307 2.18773 53.4354L2.19115 14.193ZM38.6915 21.0248C38.1802 21.0016 37.7241 21.3344 37.5904 21.8234L30.2985 48.618C30.1416 49.1996 30.4873 49.7957 31.0684 49.952C31.6495 50.1083 32.2479 49.7668 32.4077 49.1881L39.7083 22.3964C39.7839 22.1158 39.7432 21.8177 39.5979 21.5689C39.4527 21.3171 39.2116 21.1348 38.9327 21.0596C38.8542 21.0394 38.7729 21.0277 38.6915 21.0248ZM26.8619 23.8345C26.5714 23.8258 26.2896 23.9329 26.0775 24.1325L14.7908 34.7142C14.5729 34.9197 14.448 35.2061 14.448 35.507C14.448 35.8051 14.5729 36.0915 14.7908 36.297L26.0775 46.8787V46.8816C26.2896 47.0783 26.5714 47.1854 26.8619 47.1767C27.1524 47.168 27.4284 47.0436 27.6288 46.8324C28.0385 46.3955 28.0181 45.7097 27.5794 45.2988L17.1413 35.5038L27.5794 25.7177C28.0181 25.3039 28.0385 24.6181 27.6288 24.1812C27.4284 23.9671 27.1524 23.8432 26.8619 23.8345ZM43.1368 23.8345C42.8463 23.8432 42.5703 23.9676 42.3699 24.1817C41.9603 24.6186 41.9835 25.3073 42.4193 25.7182L52.8574 35.5043L42.4193 45.2993C41.9835 45.7102 41.9603 46.396 42.3699 46.8329C42.5703 47.047 42.8463 47.1714 43.1368 47.1801C43.4273 47.1888 43.712 47.0818 43.9212 46.8821L55.2079 36.3004V36.2975C55.4258 36.0921 55.5507 35.8056 55.5507 35.5076C55.5507 35.2066 55.4258 34.9202 55.2079 34.7147L43.9212 24.133C43.712 23.9334 43.4302 23.8258 43.1368 23.8345Z" fill="url(#paint0_linear_1_458)"/>
<defs>
<linearGradient id="paint0_linear_1_458" x1="1.35398" y1="28.7138" x2="62.8907" y2="9.45328" gradientUnits="userSpaceOnUse">
<stop stop-color="#FF6C10"/>
<stop offset="1" stop-color="#3C34C1"/>
</linearGradient>
</defs>
</svg>
