<svg width="26" height="33" viewBox="0 0 26 33" fill="none" xmlns="http://www.w3.org/2000/svg">
<path d="M11.0882 20.6358L1.63735 19.4395C0.972731 19.3598 0.540463 19.0009 0.340546 18.3628C0.140628 17.7248 0.280464 17.1798 0.760054 16.7279L17.0698 1.09604C17.2027 0.963113 17.3622 0.863686 17.5483 0.797756C17.7344 0.731826 17.987 0.698329 18.306 0.697266C18.8377 0.697266 19.2434 0.923236 19.5231 1.37518C19.8027 1.82712 19.8091 2.29235 19.5422 2.77088L14.2784 12.6604L23.7293 13.8567C24.3939 13.9365 24.8262 14.2954 25.0261 14.9334C25.226 15.5714 25.0862 16.1164 24.6066 16.5684L8.29684 32.2002C8.16391 32.3331 8.0044 32.4331 7.81831 32.5001C7.63222 32.5671 7.37966 32.6001 7.06065 32.599C6.52895 32.599 6.12327 32.373 5.84359 31.9211C5.56392 31.4691 5.55754 31.0039 5.82445 30.5254L11.0882 20.6358Z" fill="#FFE837"/>
</svg>
