<?xml version="1.0" encoding="UTF-8"?>
<svg id="Layer_1" data-name="Layer 1" xmlns="http://www.w3.org/2000/svg" xmlns:xlink="http://www.w3.org/1999/xlink" viewBox="0 0 116.39 31.67">
  <defs>
    <style>
      .cls-1 {
        fill: url(#linear-gradient);
      }

      .cls-1, .cls-2 {
        stroke-width: 0px;
      }

      .cls-2 {
        fill: url(#linear-gradient-2);
      }
    </style>
    <linearGradient id="linear-gradient" x1="47.58" y1="1078.98" x2="102.14" y2="1041.08" gradientTransform="translate(0 -1046)" gradientUnits="userSpaceOnUse">
      <stop offset="0" stop-color="#ff6c10"/>
      <stop offset="1" stop-color="#3c34c1"/>
    </linearGradient>
    <linearGradient id="linear-gradient-2" x1="1.04" y1="1064.16" x2="23.9" y2="1059.46" gradientTransform="translate(0 -1046)" gradientUnits="userSpaceOnUse">
      <stop offset="0" stop-color="#ff6c10"/>
      <stop offset="1" stop-color="#3c34c1"/>
    </linearGradient>
  </defs>
  <path class="cls-1" d="m34.94,24.98V5.24h13.13v3.88h-8.48v4.05h7.65v3.89h-7.65v7.94h-4.64Zm19.3.25c-.92,0-1.73-.16-2.45-.48-.71-.33-1.27-.8-1.68-1.44-.4-.65-.61-1.47-.61-2.44,0-.83.14-1.52.42-2.08s.67-1.02,1.16-1.38c.5-.36,1.07-.62,1.71-.8s1.33-.31,2.06-.38c.82-.08,1.48-.16,1.98-.24.5-.09.87-.22,1.09-.38.23-.16.35-.4.35-.71v-.04c0-.5-.17-.88-.5-1.15s-.78-.4-1.34-.4c-.6,0-1.1.13-1.46.4-.37.27-.6.64-.71,1.12l-4.23-.15c.13-.9.44-1.7.96-2.41.53-.72,1.25-1.27,2.16-1.67.92-.41,2.02-.62,3.31-.62.92,0,1.77.11,2.55.34.77.22,1.45.54,2.03.97.57.41,1.02.93,1.33,1.54s.48,1.3.48,2.1v10.07h-4.32v-2.06h-.12c-.25.5-.58.92-.98,1.27-.39.35-.86.61-1.4.78-.53.17-1.13.26-1.8.26h0Zm1.42-3.08c.5,0,.94-.1,1.33-.3.4-.21.72-.49.96-.85.23-.37.36-.79.36-1.27v-1.41c-.13.08-.3.13-.48.2-.18.05-.38.11-.6.16s-.44.1-.68.13c-.23.04-.45.08-.67.11-.43.08-.8.18-1.11.33-.3.15-.53.34-.7.58-.16.23-.23.51-.23.83,0,.49.17.86.51,1.12.35.26.78.39,1.3.39Zm22.6-7.45l-4.22.12c-.04-.3-.16-.59-.36-.81-.19-.24-.44-.43-.76-.56-.31-.14-.67-.22-1.07-.22-.53,0-.98.11-1.36.33-.37.22-.55.51-.54.89,0,.29.11.54.34.75.23.22.66.38,1.27.51l2.78.54c1.44.28,2.51.75,3.22,1.41.71.65,1.07,1.52,1.07,2.61,0,1.02-.3,1.9-.88,2.65-.57.75-1.36,1.34-2.37,1.76-1,.41-2.15.62-3.44.62-2.06,0-3.68-.43-4.88-1.3-1.18-.87-1.86-2.04-2.03-3.51l4.54-.12c.1.54.36.96.78,1.24s.95.42,1.61.42c.59,0,1.07-.11,1.44-.34s.56-.52.56-.9c0-.34-.15-.6-.43-.8-.29-.21-.72-.37-1.32-.48l-2.52-.49c-1.45-.27-2.53-.77-3.23-1.5-.71-.73-1.06-1.66-1.05-2.79,0-.99.25-1.84.77-2.53.52-.71,1.26-1.25,2.22-1.62s2.08-.55,3.38-.55c1.96,0,3.49.42,4.62,1.26,1.13.84,1.75,1.99,1.87,3.45l-.02-.03Zm10.76-4.52v3.47h-9.1v-3.47h9.1Zm-7.19-3.55h4.59v13.7c0,.29.04.52.13.71.1.17.23.3.4.38.18.08.38.11.62.11.18,0,.36-.01.55-.04.2-.04.35-.08.45-.1l.7,3.4c-.22.07-.53.14-.93.24-.39.1-.87.16-1.42.18-1.08.05-2-.08-2.77-.39-.76-.31-1.35-.8-1.76-1.47-.4-.66-.59-1.5-.58-2.5V6.64h.01Zm16.12,18.63c-1.51,0-2.81-.3-3.9-.91-1.09-.62-1.92-1.5-2.52-2.63-.58-1.14-.87-2.51-.87-4.08s.3-2.87.88-4.01c.59-1.15,1.42-2.04,2.49-2.68s2.33-.97,3.79-.97c1.03,0,1.97.16,2.81.49.86.33,1.59.81,2.21,1.46s1.1,1.43,1.45,2.38c.35.93.52,2.02.52,3.22v1.17h-12.53v-2.74h8.26c0-.5-.12-.94-.35-1.34-.22-.39-.54-.69-.93-.91-.39-.23-.84-.34-1.34-.34s-.97.12-1.39.36c-.41.23-.73.55-.96.96s-.36.85-.37,1.36v2.79c0,.61.12,1.13.35,1.59.23.45.56.8.98,1.05s.93.38,1.52.38c.41,0,.77-.05,1.11-.17.33-.12.61-.28.86-.51.23-.23.41-.5.54-.83l4.22.13c-.18.97-.56,1.81-1.15,2.53s-1.36,1.27-2.32,1.67c-.96.39-2.06.59-3.32.59h-.03Zm9.19-.28v-14.81h4.46v2.7h.15c.26-.98.69-1.7,1.29-2.18.59-.48,1.29-.73,2.07-.73.21,0,.43.01.66.04.22.02.43.07.62.13v4.09c-.22-.08-.51-.14-.87-.18-.35-.04-.67-.07-.94-.07-.54,0-1.04.13-1.47.38-.43.24-.77.59-1.03,1.03-.24.43-.37.96-.37,1.54v8.04h-4.59.01Z"/>
  <path class="cls-2" d="m10.76,19.79l-9.38-1.19c-.66-.08-1.09-.44-1.29-1.07-.2-.63-.06-1.17.42-1.62L16.69.4c.13-.13.29-.23.48-.3s.44-.1.75-.1c.53,0,.93.22,1.21.67.28.45.28.91.02,1.39l-5.22,9.82,9.38,1.19c.66.08,1.09.44,1.29,1.07s.06,1.17-.42,1.62L7.99,31.27c-.13.13-.29.23-.48.3-.18.07-.44.1-.75.1-.53,0-.93-.22-1.21-.67s-.28-.91-.02-1.39l5.22-9.82h.01Z"/>
</svg>