<?xml version="1.0" encoding="UTF-8"?>
<svg id="Layer_1" data-name="Layer 1" xmlns="http://www.w3.org/2000/svg" xmlns:xlink="http://www.w3.org/1999/xlink" viewBox="0 0 177.58 30.97">
  <defs>
    <style>
      .cls-1 {
        fill: url(#linear-gradient);
      }

      .cls-1, .cls-2 {
        stroke-width: 0px;
      }

      .cls-2 {
        fill: url(#linear-gradient-2);
      }
    </style>
    <linearGradient id="linear-gradient" x1="79.6" y1="-15.44" x2="132.98" y2="52.16" gradientTransform="translate(0 32.88) scale(1 -1)" gradientUnits="userSpaceOnUse">
      <stop offset="0" stop-color="#ff6c10"/>
      <stop offset="1" stop-color="#3c34c1"/>
    </linearGradient>
    <linearGradient id="linear-gradient-2" x1="1.09" y1="14.95" x2="24.22" y2="19.9" gradientTransform="translate(0 32.88) scale(1 -1)" gradientUnits="userSpaceOnUse">
      <stop offset="0" stop-color="#ff6c10"/>
      <stop offset="1" stop-color="#3c34c1"/>
    </linearGradient>
  </defs>
  <path class="cls-1" d="m36.04,24.44V6.26h12.41v3.57h-8.02v3.73h7.23v3.58h-7.23v7.31h-4.39Zm20,.26c-1.43,0-2.66-.28-3.69-.84-1.03-.57-1.82-1.38-2.38-2.42-.55-1.05-.83-2.31-.83-3.76s.28-2.64.83-3.69c.56-1.06,1.34-1.88,2.35-2.47,1.01-.59,2.2-.89,3.58-.89.97,0,1.86.15,2.66.45.8.3,1.5.75,2.09,1.34.59.59,1.04,1.32,1.37,2.19.33.86.49,1.86.49,2.97v1.08h-11.85v-2.52h7.81c0-.46-.12-.87-.33-1.23-.21-.36-.51-.64-.88-.84-.37-.21-.79-.31-1.27-.31s-.92.11-1.31.33c-.38.21-.69.51-.91.88-.22.37-.34.78-.36,1.25v2.57c0,.56.11,1.04.33,1.46.22.41.53.74.93.97.4.23.88.35,1.44.35.38,0,.73-.05,1.05-.16.31-.11.58-.26.81-.47.22-.21.39-.46.51-.76l3.99.12c-.17.89-.53,1.67-1.09,2.33-.56.66-1.29,1.17-2.19,1.54-.91.36-1.95.54-3.14.54Zm11.09-.26l-3.55-13.64h4.36l1.84,8.74h.12l1.97-8.74h4.25l2.02,8.67h.12l1.78-8.67h4.36l-3.56,13.64h-4.64l-2.13-7.95h-.15l-2.13,7.95h-4.65Zm25.09.26c-1.43,0-2.66-.28-3.69-.84-1.03-.57-1.82-1.38-2.38-2.42-.55-1.05-.83-2.31-.83-3.76s.28-2.64.83-3.69c.56-1.06,1.34-1.88,2.35-2.47,1.01-.59,2.21-.89,3.58-.89.97,0,1.86.15,2.66.45.81.3,1.5.75,2.09,1.34.59.59,1.04,1.32,1.37,2.19.32.86.49,1.86.49,2.97v1.08h-11.85v-2.52h7.81c0-.46-.12-.87-.33-1.23-.21-.36-.51-.64-.88-.84-.37-.21-.79-.31-1.27-.31s-.92.11-1.31.33c-.39.21-.69.51-.92.88-.22.37-.34.78-.36,1.25v2.57c0,.56.11,1.04.33,1.46.22.41.53.74.93.97.4.23.88.35,1.44.35.38,0,.73-.05,1.05-.16.31-.11.58-.26.81-.47.22-.21.39-.46.51-.76l3.99.12c-.17.89-.53,1.67-1.09,2.33-.56.66-1.29,1.17-2.19,1.54-.91.36-1.95.54-3.14.54Zm8.69-.26v-13.64h4.22v2.49h.14c.25-.9.65-1.57,1.22-2.01.56-.44,1.22-.67,1.96-.67.2,0,.41.01.62.04.21.02.41.06.6.12v3.77c-.21-.07-.48-.13-.82-.17-.33-.04-.63-.06-.89-.06-.51,0-.98.12-1.39.35-.41.22-.73.54-.97.95-.23.4-.35.88-.35,1.42v7.4h-4.34Zm15.89,0V6.26h7.58c1.36,0,2.5.19,3.42.58.92.38,1.62.92,2.08,1.62.47.69.7,1.49.7,2.41,0,.69-.15,1.31-.43,1.86-.29.54-.69.99-1.2,1.34s-1.1.6-1.77.75v.18c.73.04,1.41.23,2.03.59.63.36,1.13.86,1.51,1.51.38.64.57,1.4.57,2.27,0,.98-.25,1.85-.75,2.62-.5.76-1.22,1.37-2.16,1.81-.94.44-2.08.66-3.43.66h-8.16Zm4.39-3.54h2.72c.95,0,1.65-.18,2.1-.54.46-.36.68-.86.68-1.51,0-.47-.11-.87-.33-1.21-.22-.34-.53-.61-.93-.79-.4-.19-.88-.28-1.45-.28h-2.8v4.33Zm0-7.16h2.43c.48,0,.9-.08,1.28-.24s.66-.39.87-.69c.21-.3.32-.67.32-1.09,0-.61-.22-1.09-.65-1.44-.43-.35-1.01-.52-1.75-.52h-2.5v3.99Zm21.01,4.82v-7.75h4.33v13.64h-4.14v-2.54h-.14c-.3.83-.82,1.5-1.54,1.99-.72.49-1.6.73-2.62.73-.93,0-1.75-.21-2.45-.64-.71-.43-1.25-1.02-1.64-1.78-.39-.77-.59-1.67-.6-2.7v-8.69h4.34v7.84c0,.74.2,1.32.59,1.75.38.43.91.64,1.57.64.43,0,.82-.09,1.16-.28.35-.2.62-.48.83-.84.21-.37.31-.82.31-1.35Zm13.45,11.28c-1.3,0-2.4-.18-3.33-.54-.92-.36-1.65-.86-2.18-1.48-.53-.63-.84-1.34-.95-2.13l4.11-.23c.08.28.22.52.43.73.21.21.49.37.82.48.34.11.75.17,1.21.17.73,0,1.33-.18,1.8-.53.48-.35.72-.96.72-1.84v-2.4h-.15c-.17.42-.43.8-.78,1.13-.35.33-.78.59-1.3.78-.52.19-1.11.28-1.78.28-.99,0-1.91-.23-2.73-.69-.82-.47-1.48-1.19-1.98-2.17-.49-.98-.74-2.25-.74-3.79s.26-2.9.76-3.93c.51-1.04,1.18-1.8,2-2.3.83-.5,1.72-.75,2.67-.75.72,0,1.33.12,1.84.37.51.24.94.56,1.27.94.33.38.58.78.75,1.2h.12v-2.33h4.32v13.69c0,1.15-.29,2.13-.87,2.92s-1.39,1.39-2.43,1.8c-1.04.41-2.25.62-3.61.62Zm.13-8.74c.53,0,.98-.14,1.35-.42s.66-.68.86-1.2c.2-.52.3-1.15.3-1.87s-.1-1.38-.3-1.91c-.19-.54-.48-.95-.86-1.24-.37-.29-.82-.43-1.35-.43s-.99.15-1.37.44c-.37.3-.66.71-.85,1.25-.19.53-.28,1.16-.28,1.89s.1,1.35.29,1.87c.19.52.48.92.84,1.2.37.28.83.42,1.37.42Zm21.46-6.13l-3.99.11c-.04-.28-.15-.54-.34-.75-.18-.22-.42-.4-.72-.52-.29-.13-.63-.2-1.01-.2-.5,0-.93.1-1.29.3-.35.2-.52.47-.51.82,0,.27.1.5.32.69.23.2.62.35,1.2.47l2.63.5c1.36.26,2.37.69,3.04,1.3.67.6,1.01,1.4,1.01,2.4,0,.94-.28,1.75-.83,2.44-.54.69-1.29,1.23-2.24,1.62-.95.38-2.03.57-3.25.57-1.95,0-3.48-.4-4.61-1.2-1.12-.8-1.76-1.88-1.92-3.23l4.29-.11c.1.5.34.88.74,1.14.4.26.9.39,1.52.39.56,0,1.01-.1,1.36-.31.35-.21.53-.48.53-.83,0-.31-.14-.55-.41-.74-.27-.19-.68-.34-1.25-.44l-2.38-.45c-1.37-.25-2.39-.71-3.05-1.38-.67-.67-1-1.53-1-2.57,0-.91.24-1.69.73-2.33.49-.65,1.19-1.15,2.1-1.49.9-.34,1.97-.51,3.21-.51,1.85,0,3.3.39,4.37,1.16,1.07.77,1.65,1.83,1.77,3.18Z"/>
  <path class="cls-2" d="m12.52,30.97c-.18,0-.35-.01-.51-.04-.16-.03-.31-.07-.47-.12-3.52-1.18-6.33-3.35-8.41-6.53-2.09-3.17-3.13-6.59-3.13-10.25v-7.41c0-.65.19-1.24.57-1.76.38-.52.87-.9,1.47-1.14L11.43.2c.37-.13.73-.2,1.1-.2s.73.07,1.1.2l9.39,3.53c.6.24,1.09.61,1.47,1.14.38.52.57,1.11.57,1.76v7.41c0,3.66-1.04,7.08-3.13,10.25-2.09,3.18-4.89,5.35-8.41,6.53-.16.05-.31.09-.47.12-.16.03-.33.04-.51.04Z"/>
</svg>