<svg width="50" height="50" viewBox="0 0 50 50" fill="none" xmlns="http://www.w3.org/2000/svg">
<path d="M5.66665 22.5835C6.28261 22.5842 6.87507 22.82 7.32296 23.2429C7.77086 23.6657 8.04039 24.2436 8.07649 24.8585C8.11258 25.4734 7.91252 26.0789 7.51718 26.5513C7.12184 27.0236 6.56105 27.3272 5.9494 27.3999L5.66665 27.4168H3.24999C2.63403 27.4161 2.04158 27.1803 1.59368 26.7574C1.14579 26.3346 0.876253 25.7567 0.840155 25.1418C0.804057 24.5269 1.00412 23.9214 1.39946 23.4491C1.7948 22.9767 2.35559 22.6732 2.96724 22.6004L3.24999 22.5835H5.66665ZM25 0.833496C25.5919 0.833574 26.1632 1.05089 26.6056 1.44422C27.0479 1.83756 27.3305 2.37956 27.3997 2.96741L27.4167 3.25016V5.66683C27.416 6.28279 27.1801 6.87524 26.7573 7.32314C26.3344 7.77103 25.7565 8.04056 25.1416 8.07666C24.5267 8.11276 23.9212 7.9127 23.4489 7.51736C22.9765 7.12201 22.673 6.56123 22.6002 5.94958L22.5833 5.66683V3.25016C22.5833 2.60922 22.8379 1.99453 23.2911 1.54132C23.7444 1.08811 24.359 0.833496 25 0.833496ZM46.75 22.5835C47.3659 22.5842 47.9584 22.82 48.4063 23.2429C48.8542 23.6657 49.1237 24.2436 49.1598 24.8585C49.1959 25.4734 48.9959 26.0789 48.6005 26.5513C48.2052 27.0236 47.6444 27.3272 47.0327 27.3999L46.75 27.4168H44.3333C43.7174 27.4161 43.1249 27.1803 42.677 26.7574C42.2291 26.3346 41.9596 25.7567 41.9235 25.1418C41.8874 24.5269 42.0874 23.9214 42.4828 23.4491C42.8781 22.9767 43.4389 22.6732 44.0506 22.6004L44.3333 22.5835H46.75ZM7.82474 7.82491C8.24087 7.40882 8.79453 7.15886 9.38184 7.12193C9.96915 7.085 10.5498 7.26364 11.0147 7.62433L11.2419 7.82491L12.9336 9.51658C13.367 9.95148 13.6186 10.535 13.6374 11.1488C13.6561 11.7625 13.4406 12.3603 13.0345 12.8208C12.6284 13.2814 12.0622 13.5701 11.451 13.6283C10.8398 13.6865 10.2293 13.5099 9.74357 13.1343L9.5164 12.9337L7.82474 11.2421C7.37168 10.7889 7.11717 10.1743 7.11717 9.53349C7.11717 8.89268 7.37168 8.2781 7.82474 7.82491ZM38.7581 7.82491C39.193 7.39149 39.7765 7.13985 40.3902 7.12111C41.004 7.10237 41.6018 7.31793 42.0623 7.72401C42.5229 8.13009 42.8116 8.69625 42.8698 9.30748C42.928 9.91871 42.7514 10.5292 42.3758 11.0149L42.1752 11.2421L40.4836 12.9337C40.0487 13.3672 39.4651 13.6188 38.8514 13.6375C38.2377 13.6563 37.6398 13.4407 37.1793 13.0346C36.7188 12.6286 36.4301 12.0624 36.3719 11.4512C36.3136 10.84 36.4902 10.2295 36.8658 9.74374L37.0664 9.51658L38.7581 7.82491ZM29.8333 39.5002C30.4743 39.5002 31.0889 39.7548 31.5422 40.208C31.9954 40.6612 32.25 41.2759 32.25 41.9168C32.25 43.8396 31.4861 45.6837 30.1265 47.0434C28.7669 48.403 26.9228 49.1668 25 49.1668C23.0772 49.1668 21.2331 48.403 19.8735 47.0434C18.5138 45.6837 17.75 43.8396 17.75 41.9168C17.7501 41.3249 17.9674 40.7536 18.3607 40.3113C18.754 39.8689 19.296 39.5863 19.8839 39.5171L20.1667 39.5002H29.8333ZM25 10.5002C28.0433 10.5002 31.0094 11.4577 33.4783 13.2372C35.9471 15.0166 37.7935 17.5277 38.7559 20.4149C39.7183 23.302 39.7478 26.4187 38.8404 29.3236C37.933 32.2285 36.1346 34.7742 33.7 36.6002C33.3669 36.8503 32.9748 37.0102 32.5617 37.0642L32.25 37.0835H17.75C17.2271 37.0835 16.7183 36.9139 16.3 36.6002C13.8653 34.7742 12.067 32.2285 11.1595 29.3236C10.2521 26.4187 10.2817 23.302 11.2441 20.4149C12.2065 17.5277 14.0528 15.0166 16.5217 13.2372C18.9905 11.4577 21.9567 10.5002 25 10.5002Z" fill="white"/>
</svg>
