<svg width="26" height="32" viewBox="0 0 26 32" fill="none" xmlns="http://www.w3.org/2000/svg">
<path d="M13.0783 31.6075C12.8922 31.6075 12.7194 31.5942 12.5599 31.5676C12.4004 31.541 12.2409 31.5011 12.0814 31.4479C8.49244 30.2516 5.63458 28.0387 3.5078 24.8092C1.38102 21.5797 0.317627 18.1035 0.317627 14.3805V6.84373C0.317627 6.17911 0.510632 5.58096 0.896643 5.04926C1.28265 4.51756 1.78085 4.13209 2.39124 3.89282L11.9618 0.303878C12.3339 0.170954 12.7061 0.104492 13.0783 0.104492C13.4505 0.104492 13.8227 0.170954 14.1949 0.303878L23.7654 3.89282C24.3768 4.13209 24.8756 4.51756 25.2616 5.04926C25.6476 5.58096 25.8401 6.17911 25.839 6.84373V14.3805C25.839 18.1024 24.7756 21.5786 22.6488 24.8092C20.5221 28.0398 17.6642 30.2527 14.0752 31.4479C13.9157 31.5011 13.7562 31.541 13.5967 31.5676C13.4372 31.5942 13.2644 31.6075 13.0783 31.6075Z" fill="#FFE837"/>
</svg>
