<svg width="70" height="62" viewBox="0 0 70 62" fill="none" xmlns="http://www.w3.org/2000/svg">
<path d="M4.92744 61.8473H65.0725C66.1232 61.8454 67.1304 61.425 67.8733 60.6783C68.6163 59.9315 69.0345 58.9192 69.0363 57.8631V4.53688C69.0345 3.4808 68.6163 2.46851 67.8733 1.72174C67.1304 0.97498 66.1232 0.554619 65.0725 0.552734H4.92744C3.87675 0.554619 2.86962 0.97498 2.12667 1.72174C1.38371 2.46851 0.965498 3.4808 0.963623 4.53688V57.8631C0.965498 58.9192 1.38371 59.9315 2.12667 60.6783C2.86962 61.425 3.87675 61.8454 4.92744 61.8473ZM2.3818 4.53688C2.3818 3.85827 2.65001 3.20746 3.1274 2.72761C3.6048 2.24776 4.2523 1.97819 4.92744 1.97819H65.0725C65.7477 1.97819 66.3952 2.24776 66.8726 2.72761C67.35 3.20746 67.6182 3.85827 67.6182 4.53688V14.4224H2.3818V4.53688ZM2.3818 15.8479H67.6182V57.8988C67.6088 58.5712 67.3365 59.2129 66.8601 59.685C66.3838 60.1572 65.7416 60.4219 65.0725 60.4218H4.92744C4.2523 60.4218 3.6048 60.1523 3.1274 59.6724C2.65001 59.1926 2.3818 58.5417 2.3818 57.8631V15.8479ZM8.94799 4.44422C8.21451 4.44422 7.4975 4.66284 6.88763 5.07243C6.27776 5.48202 5.80243 6.06419 5.52174 6.74531C5.24105 7.42644 5.1676 8.17592 5.3107 8.899C5.45379 9.62208 5.807 10.2863 6.32565 10.8076C6.8443 11.3289 7.5051 11.6839 8.22449 11.8277C8.94387 11.9716 9.68954 11.8977 10.3672 11.6156C11.0448 11.3335 11.624 10.8557 12.0315 10.2427C12.439 9.62972 12.6565 8.90903 12.6565 8.17179C12.6472 7.18871 12.2526 6.24898 11.5583 5.55648C10.864 4.86398 9.92609 4.47457 8.94799 4.47273V4.44422ZM8.94799 10.4739C8.495 10.4739 8.05218 10.3389 7.67553 10.0859C7.29888 9.83296 7.00532 9.47342 6.83197 9.05277C6.65861 8.63211 6.61326 8.16923 6.70163 7.72267C6.79001 7.2761 7.00814 6.86591 7.32845 6.54395C7.64877 6.222 8.05687 6.00274 8.50116 5.91391C8.94545 5.82509 9.40596 5.87068 9.82447 6.04492C10.243 6.21916 10.6007 6.51423 10.8524 6.89281C11.104 7.27139 11.2383 7.71647 11.2383 8.17179C11.2459 8.47887 11.1923 8.78437 11.0806 9.07029C10.9689 9.35621 10.8013 9.61677 10.5879 9.83661C10.3745 10.0565 10.1194 10.2311 9.83777 10.3504C9.55613 10.4696 9.25359 10.531 8.94799 10.5309V10.4739ZM18.7618 4.47273C18.0286 4.47414 17.3123 4.69396 16.7034 5.1044C16.0944 5.51485 15.6202 6.09751 15.3406 6.77875C15.061 7.46 14.9886 8.20926 15.1325 8.93187C15.2764 9.65448 15.6301 10.318 16.1491 10.8386C16.668 11.3592 17.3288 11.7135 18.048 11.8567C18.7672 12 19.5125 11.9258 20.1897 11.6434C20.867 11.3611 21.4457 10.8833 21.8529 10.2705C22.2601 9.65764 22.4774 8.93724 22.4774 8.2003C22.4756 7.21103 22.0833 6.26293 21.3867 5.56408C20.69 4.86523 19.746 4.47273 18.7618 4.47273ZM18.7618 10.5024C18.3091 10.501 17.867 10.3648 17.4913 10.111C17.1156 9.85716 16.8231 9.49713 16.6508 9.07635C16.4786 8.65557 16.4342 8.19292 16.5234 7.74683C16.6126 7.30073 16.8313 6.8912 17.1519 6.56996C17.4725 6.24871 17.8806 6.03017 18.3247 5.94192C18.7688 5.85366 19.2289 5.89967 19.647 6.07412C20.0651 6.24857 20.4224 6.54363 20.6737 6.92206C20.9251 7.30048 21.0593 7.74529 21.0593 8.2003C21.063 8.50561 21.0063 8.80862 20.8925 9.09169C20.7786 9.37476 20.6099 9.63224 20.396 9.84914C20.1822 10.066 19.9276 10.238 19.6471 10.3551C19.3665 10.4721 19.0656 10.5319 18.7618 10.5309V10.5024ZM28.6182 4.47273C27.8847 4.47273 27.1677 4.69135 26.5578 5.10094C25.9479 5.51053 25.4726 6.0927 25.1919 6.77382C24.9112 7.45494 24.8378 8.20443 24.9809 8.92751C25.124 9.65059 25.4772 10.3148 25.9958 10.8361C26.5145 11.3574 27.1753 11.7124 27.8947 11.8562C28.6141 12.0001 29.3597 11.9262 30.0374 11.6441C30.715 11.362 31.2942 10.8842 31.7017 10.2712C32.1092 9.65823 32.3267 8.93754 32.3267 8.2003C32.3248 7.21226 31.9335 6.26524 31.2384 5.56659C30.5434 4.86795 29.6012 4.47462 28.6182 4.47273ZM28.6182 10.5309C28.1652 10.5309 27.7224 10.3959 27.3457 10.1429C26.9691 9.88998 26.6755 9.53044 26.5021 9.10979C26.3288 8.68913 26.2834 8.22625 26.3718 7.77969C26.4602 7.33312 26.6783 6.92293 26.9986 6.60097C27.3189 6.27901 27.7271 6.05976 28.1713 5.97093C28.6156 5.88211 29.0761 5.92769 29.4947 6.10194C29.9132 6.27618 30.2709 6.57124 30.5225 6.94982C30.7742 7.3284 30.9085 7.77349 30.9085 8.22881C30.9067 8.83879 30.6648 9.42324 30.2356 9.85457C29.8065 10.2859 29.225 10.529 28.6182 10.5309ZM22.4916 52.8954H47.5225C48.1526 52.8898 48.755 52.6342 49.1985 52.1844C49.6421 51.7346 49.8909 51.1269 49.8909 50.4935V25.3343C49.889 24.6997 49.6374 24.0917 49.191 23.643C48.7446 23.1943 48.1397 22.9414 47.5083 22.9395H22.4916C21.8603 22.9414 21.2554 23.1943 20.809 23.643C20.3626 24.0917 20.1109 24.6997 20.1091 25.3343V50.4935C20.1091 51.1293 20.3599 51.7392 20.8065 52.1894C21.2531 52.6397 21.8591 52.8935 22.4916 52.8954ZM32.0076 24.3863H37.9924V31.3568L35.4467 29.2685C35.3204 29.1655 35.1627 29.1093 35 29.1093C34.8373 29.1093 34.6796 29.1655 34.5533 29.2685L32.0076 31.3568V24.3863ZM21.5273 25.3343C21.5273 25.2064 21.5524 25.0797 21.6013 24.9617C21.6502 24.8436 21.7219 24.7364 21.8122 24.6463C21.9025 24.5562 22.0097 24.485 22.1275 24.4367C22.2453 24.3884 22.3715 24.364 22.4987 24.365H30.5894V32.8393C30.5903 32.9735 30.6289 33.1048 30.7008 33.218C30.7726 33.3312 30.8749 33.4217 30.9956 33.479C31.1164 33.5364 31.2509 33.5583 31.3835 33.5422C31.5161 33.5261 31.6415 33.4727 31.7453 33.3881L35 30.7225L38.2547 33.3881C38.3804 33.4928 38.5382 33.5507 38.7014 33.552C38.8073 33.5529 38.9118 33.5285 39.0064 33.4807C39.127 33.423 39.229 33.3321 39.3005 33.2186C39.372 33.1051 39.4102 32.9736 39.4105 32.8393V24.365H47.5225C47.7747 24.3723 48.0143 24.4772 48.1913 24.6578C48.3683 24.8384 48.4692 25.0807 48.4727 25.3343V50.4935C48.4727 50.7513 48.3713 50.9986 48.1907 51.1815C48.01 51.3644 47.7648 51.4681 47.5083 51.47H22.4916C22.2352 51.4681 21.9899 51.3644 21.8093 51.1815C21.6286 50.9986 21.5273 50.7513 21.5273 50.4935V25.3343ZM24.782 42.8816C24.782 42.6926 24.8567 42.5113 24.9897 42.3776C25.1227 42.244 25.303 42.1689 25.4911 42.1689H35C35.188 42.1689 35.3684 42.244 35.5014 42.3776C35.6344 42.5113 35.7091 42.6926 35.7091 42.8816C35.7091 43.0706 35.6344 43.2519 35.5014 43.3856C35.3684 43.5192 35.188 43.5943 35 43.5943H25.484C25.2959 43.5943 25.1156 43.5192 24.9826 43.3856C24.8496 43.2519 24.7749 43.0706 24.7749 42.8816H24.782ZM24.782 47.3504C24.782 47.1614 24.8567 46.9801 24.9897 46.8464C25.1227 46.7128 25.303 46.6377 25.4911 46.6377H35C35.188 46.6377 35.3684 46.7128 35.5014 46.8464C35.6344 46.9801 35.7091 47.1614 35.7091 47.3504C35.7091 47.5394 35.6344 47.7207 35.5014 47.8544C35.3684 47.988 35.188 48.0631 35 48.0631H25.484C25.2959 48.0631 25.1156 47.988 24.9826 47.8544C24.8496 47.7207 24.7749 47.5394 24.7749 47.3504H24.782Z" fill="url(#paint0_linear_1_721)"/>
<defs>
<linearGradient id="paint0_linear_1_721" x1="2.28033" y1="30.3832" x2="62.7911" y2="12.6547" gradientUnits="userSpaceOnUse">
<stop stop-color="#FF6C10"/>
<stop offset="1" stop-color="#3C34C1"/>
</linearGradient>
</defs>
</svg>
