<svg width="78" height="70" viewBox="0 0 78 70" fill="none" xmlns="http://www.w3.org/2000/svg">
<path fill-rule="evenodd" clip-rule="evenodd" d="M34.7444 59.5516C37.7887 60.1173 40.9132 60.1173 43.9607 59.5516C44.3846 59.4718 44.8219 59.6382 45.0856 59.9776L50.3531 66.6393L61.2554 60.4002L58.1276 52.4606H58.1309C57.9673 52.0447 58.0575 51.5722 58.3612 51.2461C59.356 50.0881 60.2405 48.8403 61.0084 47.5192L61.0451 47.4593C61.7995 46.1416 62.4337 44.7607 62.9377 43.3298C63.0879 42.9039 63.4685 42.6044 63.9191 42.5578L72.3143 41.4497V28.7614L63.8723 27.5435C63.4217 27.4803 63.0478 27.1608 62.921 26.7249C62.5571 25.7034 62.1265 24.7084 61.6325 23.7434L55.4537 29.8761C57.1929 35.31 56.0612 41.2526 52.4428 45.672C48.8276 50.091 43.2128 52.3903 37.525 51.7781C31.8335 51.1691 26.8398 47.7318 24.2496 42.6471L18.3279 48.5468C18.9454 49.5051 19.6297 50.4169 20.3708 51.282C20.6512 51.6048 20.7279 52.0573 20.571 52.4566L17.4432 60.3928L28.4523 66.6353L33.6097 59.9835V59.9802C33.8767 59.6375 34.314 59.4711 34.7413 59.5509L34.7444 59.5516ZM49.9561 35.0541C49.9495 35.8494 49.3052 36.4949 48.5041 36.5049C47.7063 36.5149 47.0454 35.8859 47.0186 35.0906V35.054C47.0186 34.4617 47.3758 33.9293 47.9233 33.6997C48.474 33.4735 49.1049 33.5966 49.5255 34.0125V34.0159C49.8026 34.2921 49.9562 34.6647 49.9528 35.0541L49.9561 35.0541ZM51.9055 33.4069L53.5612 31.7631H53.5579C54.6661 36.5115 53.3109 41.4964 49.9527 45.0401C46.5979 48.5805 41.681 50.2111 36.8645 49.3792C32.048 48.5474 27.9687 45.3663 25.999 40.904L28.4491 38.4616C29.9045 39.167 31.647 38.8709 32.7886 37.7295C33.1992 37.3202 33.5129 36.8211 33.7032 36.2721H44.8858C45.4833 38.0257 47.2692 39.0938 49.1051 38.791C50.9377 38.4882 52.283 36.9076 52.283 35.0542C52.283 34.4818 52.1526 33.9194 51.9055 33.4069ZM44.8522 33.9527H33.7397C33.5594 33.3603 33.2323 32.8213 32.7917 32.382L32.7883 32.3787C32.0773 31.6666 31.1126 31.2673 30.1045 31.2673C29.0998 31.2673 28.1351 31.6666 27.4241 32.3787V32.382C26.2357 33.5666 25.9687 35.3901 26.7698 36.8609L25.1776 38.4481C24.046 33.6931 25.3878 28.6851 28.7493 25.1277C32.1107 21.5672 37.0444 19.9301 41.8743 20.7719C46.7044 21.6105 50.7906 24.8149 52.7466 29.2973L50.2998 31.7264H50.2965C49.295 31.184 48.1 31.1175 47.0419 31.5467C45.987 31.9793 45.1825 32.8611 44.8488 33.9492L44.8522 33.9527ZM31.5768 35.0607H31.5735C31.5735 35.4467 31.4199 35.8194 31.1462 36.0956C30.5854 36.6446 29.6942 36.6613 29.1133 36.1355L29.07 36.0889C28.7194 35.7462 28.5659 35.247 28.6627 34.7679C28.7562 34.2854 29.0866 33.8827 29.5406 33.6964C29.9979 33.5067 30.5153 33.56 30.9226 33.8328C31.3331 34.1057 31.5768 34.5649 31.5768 35.0541L31.5768 35.0607ZM39.3579 62.3064H39.3546C37.9025 62.3064 36.4538 62.1899 35.0218 61.9603L29.6875 68.8317C29.337 69.3009 28.6894 69.434 28.1821 69.1478L15.4673 61.937C14.9332 61.6642 14.6928 61.0353 14.9132 60.4796L18.1611 52.2472C17.627 51.595 17.1263 50.9162 16.6557 50.2174L7.7701 59.075L7.76676 59.0816C8.38764 60.3561 8.2441 61.8701 7.3929 63.0049C6.53835 64.1395 5.12305 64.7052 3.721 64.4723C2.3157 64.2361 1.16403 63.2412 0.730091 61.8902C0.296145 60.5393 0.656654 59.0618 1.66138 58.0569H1.66805H1.66471C2.85304 56.8756 4.68228 56.6094 6.15774 57.4047L15.4039 48.1774C14.7964 47.076 14.269 45.9347 13.8183 44.7634L5.28286 43.6254V43.622C4.66198 43.5954 4.17127 43.083 4.17127 42.464V27.756C4.1746 27.1803 4.59854 26.6945 5.16937 26.6079L13.8148 25.3468C14.3322 23.9925 14.9597 22.6847 15.6841 21.4302C16.4118 20.1724 17.2363 18.9778 18.1543 17.8498L14.9364 9.7905V9.79382C14.686 9.24811 14.8963 8.60259 15.4204 8.3064L28.125 1.10229C28.629 0.779519 29.2966 0.889331 29.6705 1.35851L35.0147 8.14675C37.8888 7.68089 40.8197 7.68089 43.6935 8.14675L49.1111 1.40179C49.4583 0.915968 50.1192 0.769552 50.64 1.06571L63.2881 8.2998V8.30313C63.7922 8.5893 64.0058 9.20158 63.7888 9.74063L60.5342 17.8565C61.095 18.5453 61.6224 19.2573 62.1165 19.9961L73.4726 8.72863H70.4349C69.7906 8.72863 69.2699 8.20953 69.2699 7.5673C69.2699 6.92508 69.7906 6.40597 70.4349 6.40597H76.2899C76.597 6.40597 76.8941 6.52576 77.1144 6.74538C77.3314 6.96168 77.4549 7.25782 77.4549 7.56728V13.4038V13.4005C77.4649 13.7166 77.3447 14.0194 77.1244 14.2424C76.9041 14.4686 76.6037 14.5951 76.2899 14.5951C75.9761 14.5951 75.6724 14.4686 75.4554 14.2424C75.2351 14.0194 75.1149 13.7166 75.1249 13.4005V10.3558L63.3553 22.0356C63.9394 23.1037 64.4535 24.2118 64.8875 25.3464L73.5765 26.5976C74.1807 26.6476 74.6447 27.1533 74.648 27.7557V42.4637H74.6413C74.6413 43.0427 74.2107 43.5352 73.6299 43.6118L64.8845 44.7631C64.3771 46.0908 63.7662 47.3753 63.0552 48.6098L63.0185 48.6763C62.2908 49.9308 61.4663 51.1287 60.5484 52.2534L63.7729 60.4325C64.0166 60.9749 63.8063 61.6138 63.2889 61.91L50.6407 69.1507C50.14 69.4369 49.5025 69.3138 49.1453 68.8612L43.6842 61.9566L43.6876 61.9532C42.2522 62.1862 40.8035 62.3026 39.3481 62.3026L39.3579 62.3064ZM60.4412 21.6739L54.5095 27.5604L54.5062 27.557C51.9359 22.436 46.9321 18.9618 41.2205 18.3366C35.509 17.7113 29.8679 20.017 26.2429 24.4593C22.6178 28.9049 21.5028 34.8774 23.2821 40.325L17.1234 46.4643C16.5993 45.4527 16.1454 44.4012 15.7648 43.3264C15.6213 42.9138 15.2541 42.6177 14.8201 42.5611L6.50831 41.453V28.7621L14.8368 27.5442C15.2674 27.481 15.6246 27.1848 15.7681 26.7789C16.2788 25.3248 16.9264 23.9238 17.6975 22.5895C18.4719 21.2551 19.3665 19.994 20.3713 18.8227C20.6517 18.4966 20.7284 18.044 20.5682 17.6447L17.4472 9.82831L28.4597 3.58253L33.617 10.1311C33.8841 10.4706 34.318 10.6369 34.7453 10.5571C37.7929 9.99138 40.9141 9.99138 43.9616 10.5571C44.3822 10.6369 44.8128 10.4772 45.0798 10.1444L50.3473 3.58587L61.253 9.82832L58.1152 17.6447L58.1186 17.6414C57.9583 18.0441 58.0318 18.4999 58.3155 18.826C59.0866 19.7245 59.7943 20.6728 60.4352 21.671L60.4412 21.6739ZM5.46663 59.7772L5.37984 59.6907H5.38318C4.82572 59.1816 3.96113 59.2082 3.43712 59.7539C2.91304 60.2997 2.92306 61.1614 3.45715 61.6939C3.99458 62.2263 4.85912 62.2362 5.4032 61.7138C5.95064 61.1947 5.97736 60.3329 5.46663 59.7772Z" fill="url(#paint0_linear_1_738)"/>
<defs>
<linearGradient id="paint0_linear_1_738" x1="2.0367" y1="34.1973" x2="70.2638" y2="13.9576" gradientUnits="userSpaceOnUse">
<stop stop-color="#FF6C10"/>
<stop offset="1" stop-color="#3C34C1"/>
</linearGradient>
</defs>
</svg>
