<svg width="76" height="66" viewBox="0 0 76 66" fill="none" xmlns="http://www.w3.org/2000/svg">
<path d="M41.7012 29.9014C42.1815 29.9014 42.5922 30.2464 42.6768 30.7197L43.4248 34.8613C44.4498 35.2997 45.4166 35.861 46.3105 36.5361L50.2598 35.1152C50.711 34.9519 51.2114 35.1389 51.4531 35.5537L55.1514 41.9805C55.39 42.3983 55.2995 42.9275 54.9326 43.2373L51.7324 45.958C51.7994 46.513 51.832 47.0739 51.832 47.6289C51.832 48.187 51.7965 48.7456 51.7295 49.3008L54.9297 52.0215C55.2966 52.3342 55.3871 52.8633 55.1484 53.2783L51.4502 59.7051C51.2086 60.1227 50.7051 60.3069 50.2568 60.1436L46.3076 58.7227C45.4137 59.3977 44.4498 59.959 43.4219 60.3975L42.6738 64.5391C42.5893 65.0123 42.1786 65.3574 41.6982 65.3574H34.3047C33.8244 65.3574 33.4137 65.0123 33.3291 64.5391L32.5811 60.3975C31.5561 59.9591 30.5893 59.3978 29.6953 58.7227L25.7471 60.1436C25.2958 60.3072 24.7916 60.1199 24.5527 59.7051L20.8574 53.2783C20.6187 52.8604 20.7093 52.3313 21.0762 52.0215L24.2764 49.3008C24.2094 48.7456 24.1738 48.187 24.1738 47.6289C24.1738 47.071 24.2094 46.5101 24.2764 45.958L21.0762 43.2373C20.7093 42.9276 20.6188 42.3954 20.8574 41.9805L24.5557 35.5537C24.7944 35.136 25.2978 34.949 25.749 35.1152L29.6982 36.5361C30.5922 35.861 31.559 35.2997 32.584 34.8613L33.332 30.7197C33.4165 30.2464 33.8302 29.9014 34.3076 29.9014H41.7012ZM34.4355 35.7549C34.3744 36.0997 34.1357 36.387 33.8096 36.5098C32.6129 36.9657 31.5006 37.6086 30.5049 38.4268C30.2341 38.6488 29.87 38.7126 29.541 38.5928L25.8545 37.2666L22.9863 42.252L25.9707 44.7891C26.2355 45.014 26.3638 45.3643 26.3086 45.709C26.2067 46.3401 26.1543 46.9861 26.1543 47.626C26.1543 48.266 26.2067 48.9127 26.3086 49.5439C26.3637 49.8886 26.2355 50.236 25.9707 50.4639L22.9863 53.0039L25.8545 57.9893L29.541 56.6631C29.8701 56.5462 30.2341 56.607 30.5049 56.8291C31.5007 57.6474 32.6129 58.2931 33.8096 58.7461C34.1356 58.8688 34.3743 59.1553 34.4355 59.5L35.1318 63.3643V63.3672H40.8682L41.5674 59.5029C41.6286 59.1583 41.8673 58.8717 42.1934 58.749C43.3901 58.2931 44.5023 57.6473 45.498 56.832C45.7688 56.6099 46.1329 56.5491 46.4619 56.666L50.1484 57.9922L53.0166 53.0068L50.0293 50.4668C49.7645 50.2389 49.6363 49.8916 49.6914 49.5469C49.7933 48.9156 49.8457 48.2689 49.8457 47.6289C49.8457 46.989 49.7933 46.343 49.6914 45.7119C49.6362 45.3672 49.7645 45.0199 50.0293 44.792L53.0166 42.252L50.1484 37.2666L46.4619 38.5928C46.1329 38.7096 45.7659 38.6488 45.498 38.4268C44.5023 37.6085 43.3901 36.9628 42.1934 36.5098C41.8672 36.387 41.6314 36.0997 41.5674 35.7549L40.8682 31.8916H35.1318L34.4355 35.7549ZM38 39.7969C42.304 39.7969 45.8037 43.3103 45.8037 47.6299C45.8036 51.9494 42.304 55.4619 38 55.4619C33.6963 55.4619 30.1964 51.9494 30.1963 47.6299C30.1963 46.4637 30.452 45.3566 30.9092 44.3613L27.9619 42.5156C27.4962 42.2233 27.3563 41.6091 27.6445 41.1445C27.9357 40.6799 28.5478 40.5368 29.0137 40.8262L31.9619 42.6719C33.3942 40.918 35.5689 39.7969 38 39.7969ZM60.4951 0.419922C66.3568 0.420073 71.1229 5.20403 71.123 11.0869C71.123 14.6226 69.4003 17.7593 66.7539 19.7012C69.6811 23.2596 71.9045 27.3037 73.3447 31.6211C73.372 31.681 73.3926 31.7425 73.4072 31.8047C74.6341 35.5469 75.2744 39.4909 75.2744 43.498C75.2744 46.8499 74.8285 50.1813 73.9521 53.3984C73.8328 53.831 73.4426 54.1328 72.9941 54.1328L72.9922 54.1348H58.6914C58.3537 54.1347 58.0389 53.9621 57.8555 53.6758C57.6722 53.3895 57.6495 53.0303 57.792 52.7207C59.1344 49.8216 59.8154 46.7204 59.8154 43.5C59.8153 31.4484 50.0628 21.6389 38.0625 21.6045C38.0418 21.6058 38.021 21.6084 38 21.6084C37.9786 21.6084 37.9576 21.6058 37.9365 21.6045C25.9358 21.6385 16.1827 31.4482 16.1826 43.5C16.1826 46.7176 16.8637 49.8189 18.2061 52.7207C18.3486 53.0274 18.3258 53.3895 18.1426 53.6758C17.9591 53.9622 17.6444 54.1347 17.3066 54.1348H3.00586C2.55747 54.1348 2.16732 53.8338 2.04785 53.4014C1.17135 50.1837 0.725586 46.8547 0.725586 43.5C0.725615 39.4299 1.37892 35.5101 2.58203 31.8389C2.59715 31.7622 2.62115 31.6865 2.65527 31.6133C5.08016 24.3703 9.65758 18.1108 15.6211 13.6035C15.681 13.5436 15.7494 13.4897 15.8262 13.4453C15.8339 13.4409 15.8418 13.4368 15.8496 13.4326C22.046 8.82296 29.7101 6.09286 37.998 6.09277C42.2125 6.09277 46.3341 6.79204 50.2725 8.1709C51.5395 3.70187 55.6406 0.419922 60.4951 0.419922ZM38 41.791C36.2796 41.791 34.732 42.5449 33.666 43.7402L38.5273 46.7852C38.9929 47.0774 39.1326 47.6907 38.8447 48.1553C38.6555 48.4563 38.332 48.623 38.0029 48.623L38 48.626C37.8195 48.626 37.6386 48.5769 37.4756 48.4746L32.6123 45.4287C32.3351 46.1093 32.1817 46.8534 32.1816 47.6328C32.1816 50.8534 34.791 53.4717 38 53.4717C41.209 53.4717 43.8213 50.8534 43.8213 47.6328C43.8211 44.4124 41.2089 41.791 38 41.791ZM60.1924 52.1475L60.1934 52.1445H60.1914L60.1924 52.1475ZM4.1416 33.5205C3.21312 36.6876 2.71294 40.0372 2.71289 43.502C2.71289 46.4244 3.07067 49.3301 3.77246 52.1445H15.8086C14.7428 49.3945 14.2012 46.4918 14.2012 43.502C14.2012 42.1518 14.3148 40.8277 14.5303 39.5381L4.1416 33.5205ZM61.4697 39.5361C61.6854 40.8264 61.7998 42.1511 61.7998 43.502C61.7998 46.4935 61.2613 49.3922 60.1934 52.1445H72.2266C72.9312 49.3245 73.2871 46.4226 73.2871 43.5029C73.2871 40.0953 72.7983 36.7356 71.8574 33.5195L61.4697 39.5361ZM16.0361 15.8037C10.9489 19.8752 7.00497 25.326 4.76953 31.5869L14.9639 37.4922C16.1292 32.9956 18.5709 29.0112 21.875 25.9512L16.0361 15.8037ZM65.0283 20.7363C64.7462 20.87 64.4583 20.9899 64.166 21.0977C64.1468 21.1048 64.1277 21.1121 64.1084 21.1191C63.9623 21.1721 63.8152 21.2221 63.667 21.2686C63.6505 21.2737 63.6337 21.2781 63.6172 21.2832C63.4913 21.3219 63.3646 21.3576 63.2373 21.3916C63.1766 21.4079 63.1158 21.4242 63.0547 21.4395C62.9483 21.4659 62.8415 21.4906 62.7344 21.5137C62.6737 21.5268 62.6129 21.5397 62.5518 21.5518C62.4282 21.5761 62.3041 21.5982 62.1797 21.6182C62.1294 21.6262 62.0789 21.6333 62.0283 21.6406C61.9033 21.6589 61.7781 21.6757 61.6523 21.6895C61.5913 21.6961 61.5301 21.7014 61.4688 21.707C61.3381 21.7191 61.2073 21.7301 61.0762 21.7373C61.0433 21.7391 61.0104 21.7397 60.9775 21.7412C60.9147 21.7441 60.852 21.7483 60.7891 21.75L60.4951 21.7539L59.9482 21.7402C59.4057 21.7125 58.8738 21.6438 58.3555 21.5371C58.1827 21.5015 58.0114 21.4619 57.8418 21.418C57.5204 21.3348 57.2055 21.235 56.8965 21.123L54.1221 25.9482C57.4276 29.0083 59.8694 32.9935 61.0352 37.4912L71.2295 31.585C69.8307 27.6551 67.7415 23.977 65.0283 20.7363ZM37.0068 8.10254C29.8061 8.30318 23.1381 10.6791 17.6328 14.5977L23.4121 24.6426C27.1996 21.6851 31.8976 19.8502 37.0068 19.6387V8.10254ZM38.9932 19.6387C44.1003 19.85 48.7962 21.6836 52.583 24.6387L55.0967 20.2705C54.7659 20.0739 54.4452 19.8621 54.1387 19.6318C53.8659 19.4269 53.6032 19.2092 53.3516 18.9795C53.2257 18.8646 53.1027 18.7467 52.9824 18.626C52.2607 17.9015 51.6418 17.0738 51.1504 16.167C51.0685 16.0159 50.9907 15.8624 50.916 15.707C50.5096 14.8617 50.2136 13.9543 50.041 13.0039C49.928 12.3817 49.8662 11.7413 49.8662 11.0869C49.8662 10.9242 49.8703 10.7602 49.8779 10.5967C49.8821 10.5049 49.889 10.4135 49.8955 10.3223C49.8995 10.2662 49.9025 10.2102 49.9072 10.1543C46.4044 8.89207 42.7415 8.2066 38.9932 8.10352V19.6387ZM60.4951 2.41113C56.1863 2.41113 52.6029 5.59154 51.9541 9.73633C51.8844 10.1807 51.8506 10.6323 51.8506 11.084C51.8506 15.868 55.729 19.7617 60.4961 19.7617C61.9557 19.7617 63.3953 19.388 64.667 18.6836C67.3315 17.2035 69.1406 14.3545 69.1406 11.0879C69.1406 6.30365 65.2621 2.41128 60.4951 2.41113ZM64.3379 7.29102C64.7252 6.90233 65.3549 6.90233 65.7422 7.29102C66.1292 7.67958 66.129 8.31057 65.7422 8.69922L59.5742 14.8896C59.3822 15.0823 59.1262 15.1815 58.873 15.1816L58.8701 15.1787C58.6168 15.1787 58.3631 15.0824 58.168 14.8867L55.2529 11.9609C54.8659 11.5723 54.8659 10.9414 55.2529 10.5527C55.6402 10.1641 56.269 10.1641 56.6562 10.5527L58.873 12.7764L64.3379 7.29102Z" fill="url(#paint0_linear_1_722)"/>
<defs>
<linearGradient id="paint0_linear_1_722" x1="2.16756" y1="32.0233" x2="68.0779" y2="12.0621" gradientUnits="userSpaceOnUse">
<stop stop-color="#FF6C10"/>
<stop offset="1" stop-color="#3C34C1"/>
</linearGradient>
</defs>
</svg>
