<svg width="80" height="75" viewBox="0 0 80 75" fill="none" xmlns="http://www.w3.org/2000/svg">
<path fill-rule="evenodd" clip-rule="evenodd" d="M8.57135 23.4321C7.9168 23.4321 7.38496 22.8995 7.38496 22.2439C7.38496 21.5883 7.91679 21.0557 8.57135 21.0557H10.0645C10.719 21.0557 11.2509 21.5883 11.2509 22.2439C11.2509 22.8995 10.7191 23.4321 10.0645 23.4321H8.57135ZM16.7224 23.4321C16.0679 23.4321 15.5361 22.8995 15.5361 22.2439C15.5361 21.5883 16.0679 21.0557 16.7224 21.0557H18.2156C18.8701 21.0557 19.402 21.5883 19.402 22.2439C19.402 22.8995 18.8702 23.4321 18.2156 23.4321H16.7224ZM24.8667 23.4321C24.2122 23.4321 23.6804 22.8995 23.6804 22.2439C23.6804 21.5883 24.2122 21.0557 24.8667 21.0557H26.3599C27.0144 21.0557 27.5463 21.5883 27.5463 22.2439C27.5463 22.8995 27.0145 23.4321 26.3599 23.4321H24.8667ZM41.2304 45.5567C40.7667 45.0923 40.7667 44.3344 41.2304 43.87C41.694 43.4056 42.4508 43.4056 42.9145 43.87L49.0747 50.0397C49.5383 50.5041 49.5383 51.262 49.0747 51.7264L42.9145 57.8962C42.4508 58.3605 41.6941 58.3605 41.2304 57.8962C40.7667 57.4318 40.7667 56.6739 41.2304 56.2095L46.5451 50.8865L41.2304 45.5636V45.5567ZM24.577 43.87C25.0406 43.4056 25.7974 43.4056 26.2611 43.87C26.7248 44.3343 26.7247 45.0923 26.2611 45.5567L20.9464 50.8796L26.2611 56.2026C26.7247 56.6669 26.7247 57.4249 26.2611 57.8893C25.7975 58.3537 25.0407 58.3536 24.577 57.8893L18.4168 51.7195C17.9531 51.2552 17.9531 50.4972 18.4168 50.0328L24.577 43.8631V43.87ZM34.9206 41.8829C35.0876 41.2444 35.7422 40.8688 36.3797 41.0429C37.0172 41.2102 37.3922 41.8658 37.2183 42.5043L32.5683 59.8966C32.4013 60.5351 31.7467 60.9107 31.1092 60.7366C30.4717 60.5624 30.0967 59.9137 30.2706 59.2752L34.9206 41.8829ZM60.7376 14.1511C58.1194 10.4021 52.9274 9.48375 49.1914 12.1162C45.4482 14.7384 44.5312 19.9385 47.1596 23.6802C49.7778 27.4292 54.9698 28.3476 58.7058 25.7151C62.449 23.0929 63.366 17.8929 60.7376 14.1511ZM55.7978 8.39116C61.5932 9.41548 65.4763 14.9638 64.4467 20.768C63.4239 26.5724 57.8842 30.4615 52.0888 29.4303C46.2934 28.406 42.4103 22.8577 43.4399 17.0534C44.4627 11.249 50.0024 7.35992 55.7978 8.39116ZM66.925 9.80471C71.933 16.9714 70.1807 26.8937 63.0319 31.9092C59.7148 34.2344 55.5012 35.2928 51.189 34.5314C46.931 33.7802 43.3788 31.3936 41.047 28.1261C41.0129 28.0646 40.9788 28.0134 40.9345 27.9588C38.63 24.6366 37.5936 20.4403 38.3505 16.1413C39.1107 11.8392 41.5345 8.23023 44.8618 5.89802C52.0174 0.882325 61.9245 2.63729 66.9322 9.79718L66.925 9.80471ZM37.8868 27.5423C36.1925 24.3874 35.4084 20.7238 35.8277 16.9476H5.55451C4.21129 16.9476 3.11017 18.0505 3.11017 19.3957V27.5492H37.8901L37.8868 27.5423ZM76.3924 46.1338L69.7412 36.6143L65.1322 39.8409L71.7833 49.3604C73.1811 51.3543 76.3993 50.75 76.8459 48.2336C76.9686 47.5166 76.8288 46.7552 76.3924 46.1269L76.3924 46.1338ZM64.587 37.3319L67.5904 35.2252L65.8449 32.7327C64.9109 33.5385 63.9154 34.2351 62.8415 34.8394L64.587 37.3319ZM64.3859 42.8973L62.5177 40.2239C62.187 39.7425 62.2484 39.104 62.6472 38.7045L60.6564 35.874C53.0644 38.899 44.3608 36.4681 39.4142 29.9227L3.11049 29.9193V69.3925C3.11049 70.7378 4.21161 71.8406 5.55483 71.8406H61.9409C63.2841 71.8406 64.3852 70.7378 64.3852 69.3925L64.3859 42.8973ZM71.0097 34.2795C70.679 33.7981 70.0586 33.641 69.5438 33.8766L67.5529 31.0461C73.1643 24.7534 73.7063 15.3739 68.8722 8.44951C63.104 0.190207 51.7484 -1.82086 43.502 3.96647C39.9839 6.43162 37.3316 10.1294 36.2509 14.5681H5.55532C2.90301 14.5681 0.728088 16.7363 0.728088 19.4028V69.4094C0.728088 72.0658 2.89289 74.2441 5.55532 74.2441H61.9414C64.5937 74.2441 66.7686 72.076 66.7686 69.4094V46.3251L69.789 50.6511C70.539 51.8393 71.8924 52.6451 73.2015 52.8705C76.0209 53.369 78.7004 51.4911 79.1981 48.6572C79.4265 47.3563 79.164 45.9565 78.3425 44.7853L71.0129 34.2859L71.0097 34.2795ZM56.923 15.3916C57.3764 14.9204 58.1264 14.8931 58.6003 15.3472C59.0707 15.8013 59.098 16.5525 58.6446 17.0271L53.5037 22.4218C53.0333 22.9203 52.2458 22.9101 51.7855 22.4218L49.256 19.7654C48.8026 19.2942 48.8196 18.5328 49.3003 18.0855C49.7708 17.6314 50.531 17.6485 50.9776 18.1299L52.6549 19.8883L56.9299 15.395L56.923 15.3916Z" fill="url(#paint0_linear_1_736)"/>
<defs>
<linearGradient id="paint0_linear_1_736" x1="2.24743" y1="36.4722" x2="72.4932" y2="16.6901" gradientUnits="userSpaceOnUse">
<stop stop-color="#FF6C10"/>
<stop offset="1" stop-color="#3C34C1"/>
</linearGradient>
</defs>
</svg>
