<svg width="27" height="26" viewBox="0 0 27 26" fill="none" xmlns="http://www.w3.org/2000/svg">
<path d="M13.6473 18.3663C12.9369 18.3663 12.3308 18.1137 11.8289 17.6086C11.3269 17.1035 11.076 16.4958 11.076 15.7854C11.076 15.0751 11.3285 14.469 11.8337 13.967C12.3388 13.4651 12.947 13.2142 13.6584 13.2142C14.3698 13.2142 14.976 13.4672 15.4768 13.9734C15.9777 14.4796 16.2286 15.0873 16.2297 15.7966C16.2308 16.5059 15.9777 17.112 15.4704 17.615C14.9632 18.118 14.3555 18.3689 13.6473 18.3679M7.86986 6.03626H19.4342L21.468 1.90658C21.6934 1.47804 21.6838 1.06225 21.4393 0.659226C21.1947 0.2562 20.8278 0.0546875 20.3387 0.0546875H6.96545C6.47629 0.0546875 6.10942 0.2562 5.86484 0.659226C5.62026 1.06225 5.61069 1.47857 5.83613 1.90818L7.86986 6.03626ZM8.2782 25.5761H19.0259C21.0782 25.5761 22.8222 24.8578 24.2578 23.4211C25.6944 21.9845 26.4127 20.2373 26.4127 18.1797C26.4127 17.3204 26.2655 16.4835 25.9709 15.669C25.6763 14.8544 25.251 14.1127 24.6948 13.4438L19.8426 7.63135H7.46152L2.60927 13.4438C2.05311 14.1127 1.62776 14.8544 1.3332 15.669C1.03864 16.4825 0.891357 17.3194 0.891357 18.1797C0.891357 20.2373 1.60968 21.9845 3.04632 23.4211C4.48296 24.8578 6.22692 25.5761 8.2782 25.5761Z" fill="#FFE837"/>
</svg>
