<svg width="421" height="222" viewBox="0 0 421 222" fill="none" xmlns="http://www.w3.org/2000/svg">
<g opacity="0.1">
<mask id="mask0_1_534" style="mask-type:alpha" maskUnits="userSpaceOnUse" x="0" y="0" width="421" height="222">
<rect width="421" height="222" rx="50" fill="#D9D9D9"/>
</mask>
<g mask="url(#mask0_1_534)">
<path d="M234.5 86.4373C234.5 83.006 235.863 79.7153 238.289 77.2891C240.716 74.8628 244.006 73.4998 247.438 73.4998H290.563C293.994 73.4998 297.284 74.8628 299.711 77.2891C302.137 79.7153 303.5 83.006 303.5 86.4373V129.562C303.5 132.993 302.137 136.284 299.711 138.71C297.284 141.137 293.994 142.5 290.563 142.5C287.131 142.5 283.841 141.137 281.414 138.71C278.988 136.284 277.625 132.993 277.625 129.562V117.66L200.518 194.767C198.092 197.19 194.803 198.551 191.375 198.551C187.947 198.551 184.658 197.19 182.233 194.767L139.625 152.16L66.83 224.955C65.6456 226.226 64.2173 227.245 62.6303 227.952C61.0433 228.66 59.3302 229.04 57.593 229.07C55.8559 229.101 54.1304 228.782 52.5195 228.131C50.9085 227.48 49.4451 226.512 48.2166 225.283C46.9881 224.055 46.0196 222.591 45.3689 220.98C44.7182 219.369 44.3987 217.644 44.4293 215.907C44.46 214.17 44.8402 212.456 45.5473 210.869C46.2544 209.282 47.2739 207.854 48.545 206.67L130.483 124.732C132.908 122.309 136.197 120.949 139.625 120.949C143.053 120.949 146.342 122.309 148.768 124.732L191.375 167.34L259.34 99.3748H247.438C244.006 99.3748 240.716 98.0117 238.289 95.5855C235.863 93.1592 234.5 89.8685 234.5 86.4373ZM57.6875 280.5C61.1188 280.5 64.4095 281.863 66.8357 284.289C69.262 286.715 70.625 290.006 70.625 293.437V336.562C70.625 339.993 69.262 343.284 66.8357 345.71C64.4095 348.137 61.1188 349.5 57.6875 349.5C54.2563 349.5 50.9656 348.137 48.5393 345.71C46.1131 343.284 44.75 339.993 44.75 336.562V293.437C44.75 290.006 46.1131 286.715 48.5393 284.289C50.9656 281.863 54.2563 280.5 57.6875 280.5ZM139.625 241.687C139.625 238.256 138.262 234.965 135.836 232.539C133.409 230.113 130.119 228.75 126.688 228.75C123.256 228.75 119.966 230.113 117.539 232.539C115.113 234.965 113.75 238.256 113.75 241.687V336.562C113.75 339.993 115.113 343.284 117.539 345.71C119.966 348.137 123.256 349.5 126.688 349.5C130.119 349.5 133.409 348.137 135.836 345.71C138.262 343.284 139.625 339.993 139.625 336.562V241.687ZM195.688 263.25C199.119 263.25 202.409 264.613 204.836 267.039C207.262 269.465 208.625 272.756 208.625 276.187V336.562C208.625 339.993 207.262 343.284 204.836 345.71C202.409 348.137 199.119 349.5 195.688 349.5C192.256 349.5 188.966 348.137 186.539 345.71C184.113 343.284 182.75 339.993 182.75 336.562V276.187C182.75 272.756 184.113 269.465 186.539 267.039C188.966 264.613 192.256 263.25 195.688 263.25ZM277.625 207.187C277.625 203.756 276.262 200.465 273.836 198.039C271.409 195.613 268.119 194.25 264.688 194.25C261.256 194.25 257.966 195.613 255.539 198.039C253.113 200.465 251.75 203.756 251.75 207.187V336.562C251.75 339.993 253.113 343.284 255.539 345.71C257.966 348.137 261.256 349.5 264.688 349.5C268.119 349.5 271.409 348.137 273.836 345.71C276.262 343.284 277.625 339.993 277.625 336.562V207.187Z" fill="black"/>
</g>
</g>
</svg>
