<svg width="421" height="222" viewBox="0 0 421 222" fill="none" xmlns="http://www.w3.org/2000/svg">
<g opacity="0.1">
<mask id="mask0_1_569" style="mask-type:alpha" maskUnits="userSpaceOnUse" x="0" y="0" width="421" height="222">
<rect width="421" height="222" rx="40" fill="#D9D9D9"/>
</mask>
<g mask="url(#mask0_1_569)">
<path d="M71.6833 194.333L106.685 32.5313C107.346 29.4493 108.834 27.0278 111.15 25.2667C113.466 23.5056 116.16 22.625 119.233 22.625H124.847C127.929 22.625 130.628 23.5628 132.944 25.4384C135.259 27.314 136.743 29.7883 137.395 32.8615L175.369 211.504L198.814 111.781C199.474 108.919 200.962 106.555 203.278 104.688C205.594 102.822 208.288 101.884 211.361 101.875H217.635C220.717 101.875 223.359 102.756 225.56 104.517C227.762 106.278 229.193 108.589 229.853 111.451L251.317 194.333H280.375C284.117 194.333 287.257 195.601 289.793 198.137C292.329 200.673 293.592 203.808 293.583 207.542C293.575 211.275 292.307 214.414 289.779 216.959C287.252 219.504 284.117 220.768 280.375 220.75H241.08C237.998 220.75 235.304 219.869 232.997 218.108C230.69 216.347 229.091 213.926 228.202 210.844L214.994 158.671L190.228 263.677C189.568 266.759 188.084 269.181 185.777 270.942C183.47 272.703 180.771 273.583 177.68 273.583H172.067C168.985 273.583 166.233 272.646 163.811 270.77C161.39 268.894 159.849 266.42 159.189 263.347L121.875 88.0063L95.1281 210.514C94.4677 213.596 92.9267 216.074 90.5052 217.95C88.0837 219.825 85.332 220.759 82.25 220.75H42.625C38.8826 220.75 35.7479 219.482 33.2207 216.946C30.6935 214.41 29.4255 211.275 29.4167 207.542C29.4079 203.808 30.6759 200.673 33.2207 198.137C35.7655 195.601 38.9003 194.333 42.625 194.333H71.6833Z" fill="black"/>
</g>
</g>
</svg>
