<svg width="421" height="222" viewBox="0 0 421 222" fill="none" xmlns="http://www.w3.org/2000/svg">
<g opacity="0.1">
<mask id="mask0_1_604" style="mask-type:alpha" maskUnits="userSpaceOnUse" x="0" y="0" width="421" height="222">
<rect width="421" height="222" rx="40" fill="#D9D9D9"/>
</mask>
<g mask="url(#mask0_1_604)">
<g clip-path="url(#clip0_1_604)">
<path d="M92.9551 231.664L18.3 261.731L8.36826 237.062L83.0304 207.013C75.7115 180.882 77.5376 153.036 88.2064 128.085C114.076 67.3457 184.368 39.0456 245.107 64.9153C305.847 90.785 334.147 161.077 308.277 221.816C282.407 282.556 212.116 310.856 151.376 284.986C126.395 274.388 105.784 255.576 92.9551 231.664ZM112.473 211.002C121.824 233.312 139.522 251.086 161.791 260.534C209.069 280.67 263.688 258.68 283.825 211.402C303.961 164.123 281.971 109.504 234.693 89.3676C187.414 69.2311 132.795 91.2213 112.659 138.5C103.148 160.743 102.704 185.821 111.42 208.387L112.473 211.002Z" fill="black"/>
</g>
</g>
</g>
<defs>
<clipPath id="clip0_1_604">
<rect width="318.933" height="318.933" fill="white" transform="translate(351.272 -11.2734) rotate(95.3481)"/>
</clipPath>
</defs>
</svg>
