<svg width="421" height="222" viewBox="0 0 421 222" fill="none" xmlns="http://www.w3.org/2000/svg">
<g opacity="0.1">
<mask id="mask0_1_494" style="mask-type:alpha" maskUnits="userSpaceOnUse" x="0" y="0" width="421" height="222">
<rect width="421" height="222" rx="50" fill="#D9D9D9"/>
</mask>
<g mask="url(#mask0_1_494)">
<path d="M212.63 33.5841C217.469 34.9451 221.57 38.1721 224.03 42.5556C226.49 46.9391 227.109 52.1202 225.75 56.9597L141.764 356.274C141.092 358.671 139.954 360.913 138.416 362.871C136.877 364.829 134.968 366.464 132.797 367.684C130.627 368.904 128.237 369.685 125.765 369.981C123.293 370.278 120.786 370.084 118.389 369.412C115.991 368.74 113.749 367.602 111.792 366.063C109.834 364.525 108.198 362.616 106.978 360.445C105.758 358.275 104.978 355.885 104.681 353.413C104.385 350.94 104.578 348.434 105.25 346.036L189.236 46.7222C189.908 44.3224 191.046 42.0786 192.586 40.1191C194.125 38.1597 196.036 36.523 198.209 35.3028C200.382 34.0825 202.774 33.3027 205.249 33.0077C207.723 32.7128 210.232 32.9087 212.63 33.5841ZM74.6327 107.654C78.1868 111.209 80.1834 116.031 80.1834 121.058C80.1834 126.085 78.1868 130.906 74.6327 134.461L7.61498 201.498L74.6327 268.516C76.3941 270.276 77.7916 272.366 78.7454 274.666C79.6991 276.966 80.1904 279.432 80.1913 281.922C80.1922 284.412 79.7026 286.878 78.7505 289.179C77.7984 291.48 76.4024 293.571 74.6422 295.332C72.882 297.094 70.7921 298.491 68.4919 299.445C66.1916 300.399 63.726 300.89 61.2359 300.891C58.7457 300.892 56.2798 300.402 53.9788 299.45C51.6779 298.498 49.587 297.102 47.8256 295.342L-32.6146 214.902C-36.1687 211.346 -38.1653 206.525 -38.1653 201.498C-38.1653 196.471 -36.1687 191.65 -32.6146 188.094L47.8256 107.654C51.3808 104.1 56.2021 102.104 61.2292 102.104C66.2562 102.104 71.0775 104.1 74.6327 107.654ZM256.367 134.461C254.557 132.712 253.112 130.621 252.119 128.308C251.125 125.995 250.602 123.507 250.58 120.99C250.558 118.472 251.038 115.976 251.991 113.646C252.945 111.316 254.352 109.199 256.132 107.419C257.912 105.639 260.029 104.231 262.359 103.278C264.689 102.325 267.185 101.845 269.703 101.867C272.22 101.889 274.708 102.412 277.021 103.406C279.334 104.399 281.426 105.844 283.174 107.654L363.615 188.094C367.169 191.65 369.165 196.471 369.165 201.498C369.165 206.525 367.169 211.346 363.615 214.902L283.174 295.342C279.617 298.897 274.793 300.893 269.764 300.891C264.735 300.889 259.913 298.89 256.358 295.332C252.803 291.775 250.807 286.951 250.809 281.922C250.81 276.893 252.81 272.071 256.367 268.516L323.385 201.498L256.367 134.461Z" fill="black"/>
</g>
</g>
</svg>
