<svg width="421" height="222" viewBox="0 0 421 222" fill="none" xmlns="http://www.w3.org/2000/svg">
<g opacity="0.1">
<mask id="mask0_1_639" style="mask-type:alpha" maskUnits="userSpaceOnUse" x="0" y="0" width="421" height="222">
<rect width="421" height="222" rx="40" fill="#D9D9D9"/>
</mask>
<g mask="url(#mask0_1_639)">
<path d="M82.0383 157.151C72.5299 156.913 63.3165 160.462 56.4247 167.017C49.533 173.573 45.5276 182.597 45.2896 192.105C45.0516 201.614 48.6006 210.827 55.1557 217.719C61.7109 224.611 70.7352 228.616 80.2436 228.854C89.752 229.092 98.9655 225.543 105.857 218.988C112.749 212.433 116.754 203.408 116.992 193.9C117.23 184.392 113.681 175.178 107.126 168.286C100.571 161.395 91.5467 157.389 82.0383 157.151ZM299.39 72.9069C289.882 72.6689 280.668 76.2178 273.776 82.773C266.885 89.3281 262.879 98.3525 262.641 107.861C262.403 117.369 265.952 126.583 272.507 133.474C279.062 140.366 288.087 144.372 297.595 144.61C307.104 144.848 316.317 141.299 323.209 134.743C330.101 128.188 334.106 119.164 334.344 109.656C334.582 100.147 331.033 90.9337 324.478 84.042C317.923 77.1503 308.898 73.1448 299.39 72.9069ZM294.903 252.164C285.395 251.926 276.181 255.475 269.29 262.03C262.398 268.585 258.392 277.609 258.154 287.118C257.916 296.626 261.465 305.84 268.021 312.731C274.576 319.623 283.6 323.628 293.109 323.866C302.617 324.104 311.83 320.556 318.722 314C325.614 307.445 329.619 298.421 329.857 288.912C330.095 279.404 326.546 270.191 319.991 263.299C313.436 256.407 304.412 252.402 294.903 252.164Z" stroke="black" stroke-width="35.8626" stroke-linecap="round" stroke-linejoin="round"/>
<path d="M262.641 107.861L226.79 106.963C217.281 106.726 208.068 110.274 201.176 116.83C194.284 123.385 190.279 132.409 190.041 141.918L187.349 249.472C187.111 258.98 190.66 268.194 197.215 275.085C203.77 281.977 212.795 285.982 222.303 286.22L258.154 287.118M188.695 195.695L116.992 193.9" stroke="black" stroke-width="35.8626" stroke-linecap="round" stroke-linejoin="round"/>
</g>
</g>
</svg>
