<svg width="106" height="19" viewBox="0 0 106 19" fill="none" xmlns="http://www.w3.org/2000/svg">
<path d="M9.2821 13.8024L6.1465 15.6914C6.00797 15.7795 5.86316 15.8173 5.71204 15.8047C5.56093 15.7921 5.42871 15.7417 5.31537 15.6536C5.20204 15.5654 5.11389 15.4554 5.05092 15.3234C4.98796 15.1914 4.97537 15.0433 5.01314 14.8791L5.84427 11.3091L3.06756 8.91015C2.94163 8.79681 2.86305 8.66761 2.83182 8.52254C2.80059 8.37747 2.80991 8.23593 2.85978 8.09791C2.90964 7.95989 2.9852 7.84656 3.08645 7.75791C3.18769 7.66925 3.32621 7.61259 3.50201 7.5879L7.16651 7.26679L8.5832 3.90451C8.64616 3.7534 8.74388 3.64006 8.87636 3.56451C9.00884 3.48895 9.14408 3.45117 9.2821 3.45117C9.42012 3.45117 9.55536 3.48895 9.68784 3.56451C9.82032 3.64006 9.91804 3.7534 9.981 3.90451L11.3977 7.26679L15.0622 7.5879C15.2385 7.61309 15.377 7.66976 15.4778 7.75791C15.5785 7.84606 15.654 7.95939 15.7044 8.09791C15.7548 8.23643 15.7644 8.37823 15.7331 8.5233C15.7019 8.66837 15.6231 8.79732 15.4966 8.91015L12.7199 11.3091L13.5511 14.8791C13.5888 15.0428 13.5762 15.1909 13.5133 15.3234C13.4503 15.4559 13.3622 15.5659 13.2488 15.6536C13.1355 15.7412 13.0033 15.7916 12.8522 15.8047C12.701 15.8178 12.5562 15.78 12.4177 15.6914L9.2821 13.8024Z" fill="#FFE837"/>
<path d="M31.1935 13.8024L28.0579 15.6914C27.9194 15.7795 27.7746 15.8173 27.6235 15.8047C27.4724 15.7921 27.3401 15.7417 27.2268 15.6536C27.1135 15.5654 27.0253 15.4554 26.9624 15.3234C26.8994 15.1914 26.8868 15.0433 26.9246 14.8791L27.7557 11.3091L24.979 8.91015C24.8531 8.79681 24.7745 8.66761 24.7433 8.52254C24.712 8.37747 24.7213 8.23593 24.7712 8.09791C24.8211 7.95989 24.8966 7.84656 24.9979 7.75791C25.0991 7.66925 25.2377 7.61259 25.4134 7.5879L29.0779 7.26679L30.4946 3.90451C30.5576 3.7534 30.6553 3.64006 30.7878 3.56451C30.9203 3.48895 31.0555 3.45117 31.1935 3.45117C31.3316 3.45117 31.4668 3.48895 31.5993 3.56451C31.7318 3.64006 31.8295 3.7534 31.8924 3.90451L33.3091 7.26679L36.9736 7.5879C37.1499 7.61309 37.2884 7.66976 37.3892 7.75791C37.4899 7.84606 37.5655 7.95939 37.6159 8.09791C37.6662 8.23643 37.6758 8.37823 37.6446 8.5233C37.6133 8.66837 37.5345 8.79732 37.4081 8.91015L34.6314 11.3091L35.4625 14.8791C35.5003 15.0428 35.4877 15.1909 35.4247 15.3234C35.3618 15.4559 35.2736 15.5659 35.1603 15.6536C35.0469 15.7412 34.9147 15.7916 34.7636 15.8047C34.6125 15.8178 34.4677 15.78 34.3291 15.6914L31.1935 13.8024Z" fill="#FFE837"/>
<path d="M53.105 13.8024L49.9694 15.6914C49.8309 15.7795 49.6861 15.8173 49.535 15.8047C49.3839 15.7921 49.2516 15.7417 49.1383 15.6536C49.025 15.5654 48.9368 15.4554 48.8739 15.3234C48.8109 15.1914 48.7983 15.0433 48.8361 14.8791L49.6672 11.3091L46.8905 8.91015C46.7646 8.79681 46.686 8.66761 46.6548 8.52254C46.6235 8.37747 46.6328 8.23593 46.6827 8.09791C46.7326 7.95989 46.8081 7.84656 46.9094 7.75791C47.0106 7.66925 47.1492 7.61259 47.3249 7.5879L50.9894 7.26679L52.4061 3.90451C52.4691 3.7534 52.5668 3.64006 52.6993 3.56451C52.8318 3.48895 52.967 3.45117 53.105 3.45117C53.2431 3.45117 53.3783 3.48895 53.5108 3.56451C53.6433 3.64006 53.741 3.7534 53.8039 3.90451L55.2206 7.26679L58.8851 7.5879C59.0614 7.61309 59.1999 7.66976 59.3007 7.75791C59.4014 7.84606 59.477 7.95939 59.5274 8.09791C59.5777 8.23643 59.5873 8.37823 59.5561 8.5233C59.5248 8.66837 59.446 8.79732 59.3196 8.91015L56.5429 11.3091L57.374 14.8791C57.4118 15.0428 57.3992 15.1909 57.3362 15.3234C57.2732 15.4559 57.1851 15.5659 57.0718 15.6536C56.9584 15.7412 56.8262 15.7916 56.6751 15.8047C56.524 15.8178 56.3792 15.78 56.2406 15.6914L53.105 13.8024Z" fill="#FFE837"/>
<path d="M75.0165 13.8024L71.8809 15.6914C71.7423 15.7795 71.5975 15.8173 71.4464 15.8047C71.2953 15.7921 71.1631 15.7417 71.0497 15.6536C70.9364 15.5654 70.8483 15.4554 70.7853 15.3234C70.7223 15.1914 70.7097 15.0433 70.7475 14.8791L71.5786 11.3091L68.8019 8.91015C68.676 8.79681 68.5974 8.66761 68.5662 8.52254C68.535 8.37747 68.5443 8.23593 68.5942 8.09791C68.644 7.95989 68.7196 7.84656 68.8208 7.75791C68.9221 7.66925 69.0606 7.61259 69.2364 7.5879L72.9009 7.26679L74.3176 3.90451C74.3805 3.7534 74.4783 3.64006 74.6107 3.56451C74.7432 3.48895 74.8785 3.45117 75.0165 3.45117C75.1545 3.45117 75.2897 3.48895 75.4222 3.56451C75.5547 3.64006 75.6524 3.7534 75.7154 3.90451L77.1321 7.26679L80.7966 7.5879C80.9729 7.61309 81.1114 7.66976 81.2121 7.75791C81.3129 7.84606 81.3884 7.95939 81.4388 8.09791C81.4892 8.23643 81.4987 8.37823 81.4675 8.5233C81.4363 8.66837 81.3574 8.79732 81.231 8.91015L78.4543 11.3091L79.2854 14.8791C79.3232 15.0428 79.3106 15.1909 79.2477 15.3234C79.1847 15.4559 79.0965 15.5659 78.9832 15.6536C78.8699 15.7412 78.7376 15.7916 78.5865 15.8047C78.4354 15.8178 78.2906 15.78 78.1521 15.6914L75.0165 13.8024Z" fill="#FFE837"/>
<path d="M96.9279 13.8024L93.7922 15.6914C93.6537 15.7795 93.5089 15.8173 93.3578 15.8047C93.2067 15.7921 93.0745 15.7417 92.9611 15.6536C92.8478 15.5654 92.7596 15.4554 92.6967 15.3234C92.6337 15.1914 92.6211 15.0433 92.6589 14.8791L93.49 11.3091L90.7133 8.91015C90.5874 8.79681 90.5088 8.66761 90.4776 8.52254C90.4463 8.37747 90.4557 8.23593 90.5055 8.09791C90.5554 7.95989 90.631 7.84656 90.7322 7.75791C90.8334 7.66925 90.972 7.61259 91.1478 7.5879L94.8123 7.26679L96.229 3.90451C96.2919 3.7534 96.3896 3.64006 96.5221 3.56451C96.6546 3.48895 96.7898 3.45117 96.9279 3.45117C97.0659 3.45117 97.2011 3.48895 97.3336 3.56451C97.4661 3.64006 97.5638 3.7534 97.6268 3.90451L99.0434 7.26679L102.708 7.5879C102.884 7.61309 103.023 7.66976 103.124 7.75791C103.224 7.84606 103.3 7.95939 103.35 8.09791C103.401 8.23643 103.41 8.37823 103.379 8.5233C103.348 8.66837 103.269 8.79732 103.142 8.91015L100.366 11.3091L101.197 14.8791C101.235 15.0428 101.222 15.1909 101.159 15.3234C101.096 15.4559 101.008 15.5659 100.895 15.6536C100.781 15.7412 100.649 15.7916 100.498 15.8047C100.347 15.8178 100.202 15.78 100.063 15.6914L96.9279 13.8024Z" fill="#FFE837"/>
</svg>
