<svg width="35" height="36" viewBox="0 0 35 36" fill="none" xmlns="http://www.w3.org/2000/svg">
<g clip-path="url(#clip0_284_53)">
<path d="M18.0981 22.8633C19.5788 22.8633 20.9193 22.2624 21.89 21.2937C22.8607 20.323 23.4596 18.9818 23.4596 17.5019C23.4596 16.0219 22.8607 14.6807 21.89 13.71C20.9193 12.7413 19.5781 12.1404 18.0981 12.1404C16.6182 12.1404 15.277 12.7413 14.3076 13.71C13.3369 14.6807 12.736 16.0219 12.736 17.5019C12.736 18.9818 13.3369 20.323 14.3076 21.2937C15.277 22.2624 16.6175 22.8633 18.0981 22.8633ZM16.5676 14.7709C16.8369 14.5542 17.1719 14.3929 17.5444 14.3115V13.6546C17.5444 13.3483 17.7926 13.1002 18.0988 13.1002C18.4071 13.1002 18.6553 13.3483 18.6553 13.6546V14.3115C18.9711 14.3813 19.2616 14.5091 19.5077 14.68C19.924 14.9685 20.2152 15.3834 20.302 15.8578C20.3581 16.1579 20.1585 16.4471 19.8584 16.5031C19.5562 16.5571 19.2671 16.3575 19.2131 16.0574C19.1803 15.879 19.0579 15.7143 18.8781 15.5905C18.673 15.449 18.4017 15.3622 18.0988 15.3622C17.7673 15.3622 17.4713 15.4668 17.2614 15.6356C17.0871 15.7751 16.9784 15.961 16.9784 16.1552C16.9784 16.3486 17.0871 16.5332 17.2614 16.6747C17.4706 16.8436 17.7673 16.9461 18.0988 16.9461H18.1145C18.6922 16.9536 19.2213 17.1512 19.6123 17.4656C20.0443 17.8143 20.3137 18.303 20.3137 18.8492C20.3137 19.3954 20.0443 19.8862 19.6123 20.2328C19.343 20.4495 19.008 20.6108 18.6375 20.6922V21.3491C18.6375 21.6554 18.3873 21.9035 18.0811 21.9035C17.7748 21.9035 17.5246 21.6554 17.5246 21.3491V20.6922C17.2088 20.6225 16.9183 20.4946 16.6742 20.3237C16.2579 20.0353 15.9646 19.6203 15.8778 19.1459C15.8238 18.8458 16.0214 18.5566 16.3235 18.5006C16.6236 18.4466 16.9128 18.6462 16.9668 18.9463C16.9996 19.1247 17.124 19.2895 17.3018 19.4132C17.5068 19.5547 17.7782 19.6415 18.0811 19.6415C18.4126 19.6415 18.7086 19.5369 18.9185 19.3681C19.0928 19.2286 19.2015 19.0427 19.2015 18.8485C19.2015 18.6551 19.0928 18.4705 18.9185 18.329C18.7093 18.1602 18.4126 18.0576 18.0811 18.0576H18.0653C17.4897 18.0501 16.9586 17.8525 16.5676 17.5381C16.1355 17.1895 15.8662 16.7007 15.8662 16.1545C15.8662 15.6083 16.1355 15.1175 16.5676 14.7709ZM29.8136 17.4991C29.8136 17.9838 29.5853 18.398 29.1758 18.6558L28.2317 19.2505C27.6274 19.6319 27.4196 20.4092 27.7512 21.0429L28.2728 22.0368C28.4977 22.4647 28.486 22.9398 28.2454 23.3582C28.0034 23.7745 27.596 24.0206 27.1141 24.0384L25.9998 24.0828C25.2868 24.1122 24.7167 24.6796 24.688 25.3946L24.6415 26.5164C24.6224 26.999 24.3763 27.4037 23.9572 27.6464C23.5389 27.887 23.0638 27.8966 22.6379 27.6717L21.6494 27.1521C21.0178 26.8186 20.2405 27.0264 19.857 27.6307L19.2562 28.5802C18.9984 28.9869 18.5821 29.2159 18.0995 29.2159C17.9307 29.2159 17.7721 29.1886 17.6251 29.1346C17.5923 28.9678 17.5417 28.8071 17.4761 28.6561C17.7379 28.2937 17.8944 27.8501 17.8944 27.3695C17.8944 26.1582 16.906 25.1704 15.6953 25.1704H13.4805C13.6589 24.1184 13.6274 22.9248 13.3697 21.9206C13.4183 21.9732 13.4688 22.0252 13.5208 22.0778C14.6932 23.2502 16.3112 23.9748 18.0975 23.9748C19.8857 23.9748 21.5038 23.2502 22.6741 22.0778C23.8465 20.9075 24.5711 19.2874 24.5711 17.5012C24.5711 15.7143 23.8465 14.0948 22.6741 12.9245C21.5038 11.7521 19.8857 11.0275 18.0975 11.0275C16.3105 11.0275 14.6932 11.7521 13.5208 12.9245C12.3505 14.0948 11.6259 15.7149 11.6259 17.5012C11.6259 18.3345 11.7831 19.1309 12.0695 19.8616C10.688 18.9914 8.85869 20.0537 9.09316 22.0184C9.10684 22.8517 8.8293 23.3944 8.42256 23.8497C8.23252 23.7335 8.07187 23.5687 7.95361 23.3616C7.71162 22.9412 7.70137 22.4682 7.92627 22.0402L8.4458 21.0538C8.77939 20.4222 8.57158 19.6449 7.96728 19.2614L7.01777 18.6605C6.61103 18.4008 6.38203 17.9865 6.38203 17.5039C6.38203 17.0192 6.6124 16.605 7.02119 16.3473L7.96318 15.7525C8.25449 15.5694 8.46599 15.2831 8.55545 14.9508C8.64492 14.6186 8.60576 14.2648 8.4458 13.9602L7.92422 12.9662C7.69932 12.5383 7.70889 12.0632 7.95156 11.6469C8.19355 11.2285 8.59893 10.9824 9.08154 10.9646L10.1958 10.9202C10.9108 10.8929 11.4803 10.3234 11.5097 9.61045L11.5562 8.48662C11.5753 8.004 11.8214 7.59932 12.2404 7.35664C12.6588 7.1167 13.1318 7.10644 13.5598 7.33135L14.5462 7.85088C15.1799 8.18447 15.9571 7.97666 16.3386 7.37236L16.9415 6.42285C17.1992 6.01611 17.6142 5.78711 18.0981 5.78711C18.5808 5.78711 18.995 6.01543 19.2527 6.4249L19.8475 7.36826C20.0305 7.65971 20.3169 7.8712 20.6493 7.96033C20.9817 8.04945 21.3356 8.00962 21.6398 7.84883L22.6358 7.32725C23.0624 7.10439 23.5368 7.11396 23.9552 7.35664C24.3735 7.59863 24.6176 8.004 24.6374 8.48662L24.6798 9.60088C24.6931 9.94474 24.8355 10.2709 25.0786 10.5145C25.3218 10.758 25.6478 10.9009 25.9916 10.9147L27.1134 10.9612C27.596 10.9804 28.0027 11.2251 28.2434 11.6455C28.4833 12.0639 28.4936 12.5369 28.2687 12.9648L27.7491 13.9513C27.4155 14.5829 27.6233 15.3602 28.2276 15.7437L29.1771 16.3445C29.5873 16.6022 29.8156 17.0165 29.8136 17.4991ZM15.6953 28.4571H15.4649C16.0617 28.4571 16.5519 28.9452 16.5519 29.544C16.5519 30.1408 16.0617 30.631 15.4649 30.631H15.3214C15.9202 30.631 16.4083 31.119 16.4083 31.7179C16.4083 32.3146 15.9202 32.8048 15.3214 32.8048H14.8948C15.4937 32.8048 15.9817 33.2929 15.9817 33.8917C15.9817 34.4885 15.4937 34.9786 14.8948 34.9786H8.46904C8.28857 34.9786 8.13545 34.9492 7.96934 34.8877L7.02939 34.535C6.99248 34.5213 6.95557 34.5097 6.9207 34.498V26.7174C7.08955 26.6299 7.23857 26.5082 7.36846 26.351C8.40889 25.0856 10.2792 24.5176 10.2033 21.935C10.0194 20.6621 11.2362 20.1891 11.9123 21.2609C12.6738 22.4641 12.6451 25.0474 11.9725 26.2833H15.6946C16.2935 26.2833 16.7815 26.7714 16.7815 27.3702C16.7822 27.967 16.2941 28.4571 15.6953 28.4571ZM5.81123 26.5485V34.7646C5.81123 35.1563 5.48926 35.4776 5.09824 35.4776H2.7959C2.40625 35.4776 2.08496 35.1557 2.08496 34.7646V26.5485C2.08496 26.1568 2.40693 25.8376 2.7959 25.8376H5.09824C5.48926 25.8376 5.81123 26.1568 5.81123 26.5485ZM17.5437 2.90234V1.03203C17.5437 0.725781 17.7919 0.475586 18.0981 0.475586C18.4064 0.475586 18.6546 0.725781 18.6546 1.03203V2.90166C18.6546 3.20996 18.4064 3.45811 18.0981 3.45811C17.7919 3.45811 17.5437 3.21064 17.5437 2.90234ZM24.919 4.58262L25.8528 2.9625C25.9266 2.8358 26.0474 2.74333 26.189 2.70519C26.3305 2.66704 26.4814 2.6863 26.6089 2.75879C26.672 2.79498 26.7273 2.84327 26.7717 2.90088C26.8161 2.9585 26.8487 3.02431 26.8676 3.09454C26.8866 3.16478 26.8914 3.23805 26.882 3.31018C26.8726 3.3823 26.849 3.45185 26.8126 3.51484L25.8788 5.13496C25.7257 5.39883 25.3887 5.4918 25.1228 5.33867C24.8568 5.18691 24.7659 4.84785 24.919 4.58262ZM32.6389 9.74648L31.0187 10.6823C30.9557 10.7188 30.886 10.7424 30.8138 10.7519C30.7415 10.7613 30.6681 10.7565 30.5978 10.7376C30.5274 10.7186 30.4615 10.686 30.4038 10.6416C30.346 10.5972 30.2976 10.5418 30.2613 10.4786C30.1082 10.2147 30.1991 9.87568 30.463 9.72256L32.0831 8.78672C32.3483 8.63359 32.6874 8.72451 32.8405 8.98838C32.9936 9.2543 32.9048 9.59336 32.6389 9.74648ZM9.38437 3.51621C9.23125 3.25098 9.32217 2.91191 9.58603 2.75879C9.85127 2.60566 10.1903 2.69658 10.3435 2.96045L11.2793 4.58057C11.4324 4.8458 11.3415 5.18486 11.0776 5.33799C10.8124 5.49111 10.4733 5.40225 10.3202 5.13633L9.38437 3.51621ZM5.93496 10.4786C5.78184 10.7438 5.44277 10.8354 5.17754 10.6823L3.55947 9.74648C3.29424 9.59336 3.20264 9.2543 3.35576 8.98906C3.51094 8.72519 3.85 8.63428 4.11318 8.7874L5.7333 9.72324C5.79627 9.75947 5.85146 9.80779 5.8957 9.86541C5.93994 9.92304 5.97236 9.98883 5.9911 10.059C6.00984 10.1292 6.01452 10.2024 6.00489 10.2744C5.99526 10.3464 5.97149 10.4158 5.93496 10.4786Z" fill="white"/>
</g>
<defs>
<clipPath id="clip0_284_53">
<rect width="35" height="35" fill="white" transform="translate(0 0.476562)"/>
</clipPath>
</defs>
</svg>
