<svg width="566" height="400" viewBox="0 0 566 400" fill="none" xmlns="http://www.w3.org/2000/svg">
<g opacity="0.07">
<g style="mix-blend-mode:screen">
<path d="M611.749 -21.8437C617.552 -21.8437 623.376 -21.5688 629.226 -21.011C728.45 -11.5534 801.483 76.8622 792.025 176.079C782.567 275.298 694.139 348.309 594.919 338.865C495.692 329.407 422.662 240.992 432.12 141.775C436.703 93.7116 459.728 50.309 496.957 19.5637C529.656 -7.43985 569.878 -21.8463 611.749 -21.8463V-21.8437ZM612.367 320.8C649.863 320.8 685.877 307.902 715.158 283.721C748.496 256.189 769.112 217.324 773.216 174.288C781.684 85.4427 716.287 6.27274 627.435 -2.19778C584.395 -6.30081 542.33 6.60266 508.992 34.1352C475.657 61.6677 455.038 100.533 450.935 143.571C442.464 232.416 507.861 311.586 596.713 320.057C601.948 320.557 607.169 320.803 612.362 320.803L612.367 320.8Z" fill="url(#paint0_linear_47_1157)"/>
</g>
<g style="mix-blend-mode:screen">
<path d="M471.604 313.406C497.617 313.406 523.523 319.171 547.735 330.627C590.777 350.993 623.313 386.902 639.347 431.737C672.447 524.289 624.073 626.514 531.513 659.613C438.953 692.713 336.719 644.338 303.617 551.785C287.584 506.95 289.969 458.554 310.337 415.516C330.704 372.474 366.616 339.943 411.454 323.911C431.071 316.896 451.373 313.406 471.604 313.406ZM525.147 641.819C607.898 612.228 651.144 520.841 621.551 438.099C607.217 398.017 578.129 365.915 539.649 347.709C501.168 329.504 457.898 327.37 417.815 341.703C335.064 371.291 291.818 462.681 321.408 545.422C351.001 628.164 442.396 671.404 525.144 641.821L525.147 641.819Z" fill="url(#paint1_linear_47_1157)"/>
</g>
<g style="mix-blend-mode:screen">
<path d="M754.315 120.926C833.764 120.926 910.439 164.535 948.745 240.11C1002.98 347.114 960.039 478.285 853.026 532.515C746.014 586.739 614.832 543.808 560.598 436.804C534.328 384.97 529.813 326.007 547.892 270.779C565.971 215.552 604.475 170.67 656.316 144.399C687.745 128.474 721.276 120.926 754.315 120.926ZM754.875 537.217C785.66 537.217 816.227 529.98 844.482 515.66C942.198 466.141 981.409 346.365 931.886 248.654C882.365 150.943 762.574 111.738 664.858 161.257C617.521 185.244 582.361 226.23 565.853 276.66C549.346 327.091 553.465 380.933 577.454 428.263C601.443 475.596 642.429 510.753 692.864 527.26C713.192 533.913 734.084 537.217 754.873 537.217H754.875Z" fill="url(#paint2_linear_47_1157)"/>
</g>
<g style="mix-blend-mode:screen">
<path d="M305.636 286.547C310.939 286.547 316.315 287.126 321.702 288.328C361.287 297.181 386.287 336.582 377.436 376.162C373.147 395.337 361.649 411.694 345.057 422.217C328.466 432.743 308.766 436.179 289.592 431.89C250.009 423.037 225.007 383.635 233.858 344.055C241.507 309.859 271.964 286.545 305.636 286.545V286.547ZM305.754 414.791C316.006 414.791 326.064 411.893 334.934 406.266C347.262 398.445 355.806 386.29 358.993 372.041C362.18 357.794 359.627 343.157 351.805 330.83C343.983 318.502 331.828 309.958 317.577 306.772C288.162 300.197 258.881 318.772 252.303 348.184C245.725 377.597 264.304 406.876 293.719 413.453C297.72 414.349 301.753 414.791 305.757 414.791H305.754Z" fill="url(#paint3_linear_47_1157)"/>
</g>
<g style="mix-blend-mode:screen">
<path d="M478.284 133.271C481.241 133.271 484.21 133.407 487.193 133.682C512.601 136.015 535.577 148.104 551.894 167.718C568.21 187.333 575.909 212.126 573.573 237.533C568.752 289.979 522.159 328.724 469.714 323.903C444.308 321.568 421.329 309.481 405.015 289.867C388.699 270.252 381 245.459 383.336 220.052C385.669 194.649 397.759 171.672 417.375 155.359C434.69 140.961 456.042 133.273 478.284 133.273V133.271ZM478.588 305.415C496.431 305.415 513.557 299.248 527.446 287.699C543.181 274.612 552.878 256.184 554.753 235.805C556.625 215.426 550.451 195.539 537.363 179.802C524.275 164.068 505.845 154.372 485.465 152.497C465.089 150.631 445.196 156.8 429.458 169.886C413.722 182.973 404.026 201.401 402.151 221.78C400.278 242.159 406.453 262.049 419.541 277.783C432.629 293.517 451.059 303.213 471.439 305.088C473.83 305.307 476.216 305.415 478.585 305.415H478.588Z" fill="url(#paint4_linear_47_1157)"/>
</g>
<g style="mix-blend-mode:screen">
<path d="M458.147 240.478C472.801 240.478 487.672 243.56 501.834 250.072C554.4 274.245 577.499 336.676 553.321 389.238C529.146 441.8 466.71 464.894 414.142 440.721C388.678 429.011 369.298 408.085 359.575 381.799C349.849 355.513 350.944 327.017 362.657 301.553C380.32 263.151 418.41 240.476 458.147 240.476V240.478ZM457.859 431.42C490.443 431.42 521.67 412.832 536.153 381.343C555.976 338.247 537.038 287.062 493.939 267.241C473.06 257.639 449.692 256.744 428.141 264.714C406.587 272.687 389.43 288.576 379.827 309.45C370.225 330.326 369.327 353.693 377.3 375.242C385.274 396.794 401.164 413.95 422.039 423.552C433.648 428.891 445.848 431.418 457.859 431.418V431.42Z" fill="url(#paint5_linear_47_1157)"/>
</g>
<g style="mix-blend-mode:screen">
<path d="M617.663 297.926C621.533 297.926 625.429 298.248 629.321 298.897C647.737 301.971 663.857 312.034 674.706 327.229C685.555 342.426 689.839 360.935 686.763 379.353C680.415 417.372 644.312 443.14 606.3 436.793C568.281 430.446 542.511 394.357 548.856 356.337C551.93 337.92 561.993 321.803 577.189 310.955C589.175 302.398 603.221 297.929 617.66 297.929L617.663 297.926ZM617.838 418.854C642.304 418.854 663.965 401.154 668.123 376.242C670.367 362.805 667.241 349.296 659.325 338.21C651.409 327.121 639.648 319.779 626.207 317.538C598.465 312.906 572.127 331.709 567.495 359.451C562.865 387.19 581.667 413.526 609.411 418.155C612.242 418.627 615.06 418.857 617.838 418.857V418.854Z" fill="url(#paint6_linear_47_1157)"/>
</g>
<g style="mix-blend-mode:screen">
<path d="M234.829 247.137C300.988 247.137 366.752 274.882 413.091 328.923C497.29 427.118 485.899 575.501 387.698 659.693C340.129 700.477 279.516 720.296 217.041 715.501C154.561 710.704 97.6895 681.868 56.9019 634.299C-27.297 536.107 -15.906 387.722 82.2946 303.53C126.45 265.673 180.775 247.137 234.829 247.137ZM398.744 341.222C321.324 250.939 184.884 240.463 94.5942 317.876C4.30441 395.286 -6.17001 531.716 71.2467 622.001C108.75 665.736 161.039 692.25 218.486 696.659C275.928 701.066 331.657 682.845 375.396 645.346C465.686 567.936 476.16 431.507 398.744 341.222Z" fill="url(#paint7_linear_47_1157)"/>
</g>
</g>
<defs>
<linearGradient id="paint0_linear_47_1157" x1="629.778" y1="-20.4167" x2="595.493" y2="338.961" gradientUnits="userSpaceOnUse">
<stop/>
<stop offset="0.16" stop-color="#222222"/>
<stop offset="0.51" stop-color="#7A7A7A"/>
<stop offset="1" stop-color="white"/>
</linearGradient>
<linearGradient id="paint1_linear_47_1157" x1="410.599" y1="323.796" x2="530.875" y2="660.112" gradientUnits="userSpaceOnUse">
<stop/>
<stop offset="0.16" stop-color="#222222"/>
<stop offset="0.51" stop-color="#7A7A7A"/>
<stop offset="1" stop-color="white"/>
</linearGradient>
<linearGradient id="paint2_linear_47_1157" x1="560.662" y1="436.661" x2="949.028" y2="239.871" gradientUnits="userSpaceOnUse">
<stop/>
<stop offset="0.16" stop-color="#222222"/>
<stop offset="0.51" stop-color="#7A7A7A"/>
<stop offset="1" stop-color="white"/>
</linearGradient>
<linearGradient id="paint3_linear_47_1157" x1="373.849" y1="373.744" x2="229.352" y2="341.443" gradientUnits="userSpaceOnUse">
<stop/>
<stop offset="0.16" stop-color="#222222"/>
<stop offset="0.51" stop-color="#7A7A7A"/>
<stop offset="1" stop-color="white"/>
</linearGradient>
<linearGradient id="paint4_linear_47_1157" x1="469.819" y1="324.14" x2="487.289" y2="134.003" gradientUnits="userSpaceOnUse">
<stop/>
<stop offset="0.16" stop-color="#222222"/>
<stop offset="0.51" stop-color="#7A7A7A"/>
<stop offset="1" stop-color="white"/>
</linearGradient>
<linearGradient id="paint5_linear_47_1157" x1="551.957" y1="387.761" x2="360.646" y2="299.76" gradientUnits="userSpaceOnUse">
<stop/>
<stop offset="0.16" stop-color="#222222"/>
<stop offset="0.51" stop-color="#7A7A7A"/>
<stop offset="1" stop-color="white"/>
</linearGradient>
<linearGradient id="paint6_linear_47_1157" x1="686.114" y1="378.431" x2="547.858" y2="355.367" gradientUnits="userSpaceOnUse">
<stop/>
<stop offset="0.16" stop-color="#222222"/>
<stop offset="0.51" stop-color="#7A7A7A"/>
<stop offset="1" stop-color="white"/>
</linearGradient>
<linearGradient id="paint7_linear_47_1157" x1="57.4178" y1="634.497" x2="413.129" y2="329.483" gradientUnits="userSpaceOnUse">
<stop/>
<stop offset="0.16" stop-color="#222222"/>
<stop offset="0.51" stop-color="#7A7A7A"/>
<stop offset="1" stop-color="white"/>
</linearGradient>
</defs>
</svg>
