<svg width="36" height="35" viewBox="0 0 36 35" fill="none" xmlns="http://www.w3.org/2000/svg">
<g clip-path="url(#clip0_284_40)">
<path d="M20.9239 8.72363C16.084 8.72363 12.1464 12.6612 12.1464 17.5011C12.1464 22.341 16.084 26.2786 20.9239 26.2786C25.7638 26.2786 29.7014 22.341 29.7014 17.5011C29.7014 12.6612 25.7638 8.72363 20.9239 8.72363ZM25.0629 18.5265H19.8985V11.3289H21.9493V16.4757H25.0629V18.5265Z" fill="white"/>
<path d="M20.9631 3.26861C17.8405 3.2602 14.9517 4.25811 12.6014 5.95527H4.84051C3.61694 5.95527 2.62512 6.94716 2.62512 8.17066C2.62512 9.39422 3.61701 10.386 4.84051 10.386H8.59515C7.86953 11.6405 7.34102 12.999 7.02814 14.4141H2.37164C1.14814 14.4141 0.15625 15.406 0.15625 16.6295C0.15625 17.8531 1.14814 18.8449 2.37164 18.8449H6.75512C6.88417 20.2287 7.21651 21.586 7.74141 22.8729H6.15902C4.93546 22.8729 3.94363 23.8648 3.94363 25.0883C3.94363 26.3119 4.93553 27.3037 6.15902 27.3037H10.6061C13.1991 30.0321 16.8627 31.7332 20.9239 31.7332C28.7842 31.7332 35.1562 25.3613 35.1562 17.501C35.1562 9.63738 28.8266 3.2898 20.9631 3.26861ZM20.9239 28.3292C14.9532 28.3292 10.0956 23.4716 10.0956 17.5009C10.0956 11.5302 14.9532 6.67263 20.9239 6.67263C26.8946 6.67263 31.7522 11.5302 31.7522 17.5009C31.7522 23.4716 26.8946 28.3292 20.9239 28.3292Z" fill="white"/>
</g>
<defs>
<clipPath id="clip0_284_40">
<rect width="35" height="35" fill="white" transform="translate(0.15625 0.000976562)"/>
</clipPath>
</defs>
</svg>
