<svg width="36" height="36" viewBox="0 0 36 36" fill="none" xmlns="http://www.w3.org/2000/svg">
<path fill-rule="evenodd" clip-rule="evenodd" d="M20.3727 2.56385L22.4567 4.12381C23.0267 4.55044 23.6266 4.76878 24.3375 4.80836L26.9366 4.95294C28.4929 5.03948 29.757 6.10008 30.1124 7.61779L30.7062 10.1524C30.8686 10.8455 31.1878 11.3984 31.7069 11.8856L33.6051 13.6671C34.7416 14.7338 35.0281 16.3588 34.325 17.7499L33.1506 20.0731C32.8295 20.7085 32.7186 21.3372 32.8031 22.0441L33.1121 24.6289C33.297 26.1766 32.472 27.6055 31.0392 28.2192L28.6462 29.244C27.9917 29.5243 27.5027 29.9347 27.113 30.5305L25.6882 32.7091C24.8351 34.0136 23.2846 34.5779 21.7926 34.127L19.3007 33.374C18.6193 33.168 17.9808 33.168 17.2993 33.374L14.8075 34.127C13.3155 34.5779 11.7649 34.0136 10.9118 32.7091L9.48699 30.5305C9.09727 29.9347 8.60823 29.5243 7.95382 29.244L5.5607 28.219C4.12788 27.6054 3.30286 26.1765 3.48784 24.6287L3.79682 22.0439C3.88131 21.337 3.77043 20.7083 3.44928 20.0729L2.27494 17.7497C1.57179 16.3587 1.85829 14.7337 2.99483 13.667L4.89296 11.8855C5.41208 11.3983 5.73125 10.8454 5.89361 10.1522L6.48738 7.61765C6.84285 6.10001 8.10688 5.03941 9.66322 4.9528L12.2623 4.80822C12.9732 4.76871 13.5731 4.5503 14.1431 4.12367L16.2271 2.56371C17.4748 1.62978 19.1249 1.62978 20.3727 2.56385ZM16.9705 18.9646L14.7089 16.703C14.1227 16.1168 13.1719 16.1168 12.5858 16.703C11.9996 17.2891 11.9996 18.2399 12.5858 18.8261L15.9122 22.1524C16.4984 22.7385 17.4492 22.7386 18.0353 22.1524C20.0403 20.1474 22.0226 18.1198 24.0183 16.1056C24.6003 15.5183 24.5984 14.5706 24.0119 13.9872C23.4252 13.4038 22.4747 13.4054 21.8922 13.9938L16.9705 18.9646ZM18.2999 6.89188C15.2127 6.89188 12.4177 8.14327 10.3945 10.1664C8.37136 12.1897 7.11997 14.9846 7.11997 18.0718C7.11997 21.159 8.37136 23.954 10.3945 25.9771C12.4177 28.0003 15.2127 29.2517 18.2999 29.2517C21.3871 29.2517 24.1821 28.0003 26.2052 25.9771C28.2284 23.954 29.4798 21.159 29.4798 18.0718C29.4798 14.9846 28.2284 12.1896 26.2052 10.1664C24.1821 8.14327 21.3871 6.89188 18.2999 6.89188ZM25.4319 10.9398C23.6067 9.11459 21.0851 7.98563 18.2999 7.98563C15.5146 7.98563 12.9931 9.11459 11.1679 10.9398C9.34268 12.765 8.21372 15.2866 8.21372 18.0718C8.21372 20.857 9.34268 23.3786 11.1679 25.2038C12.9931 27.029 15.5146 28.1579 18.2999 28.1579C21.0851 28.1579 23.6067 27.029 25.4319 25.2039C27.2571 23.3787 28.386 20.8571 28.386 18.0719C28.386 15.2866 27.2571 12.765 25.4319 10.9398Z" fill="white"/>
</svg>
