<svg width="36" height="36" viewBox="0 0 36 36" fill="none" xmlns="http://www.w3.org/2000/svg">
<g clip-path="url(#clip0_284_82)">
<path d="M34.0088 16.6963H27.1557C26.5936 16.6963 26.1379 17.1554 26.1379 17.7217V18.4053C26.1379 23.1169 22.333 26.9502 17.6563 26.9502C12.9795 26.9502 9.17463 23.1169 9.17463 18.4053V17.7217C9.17463 17.1554 8.71893 16.6963 8.15684 16.6963H1.30368C0.741589 16.6963 0.285889 17.1554 0.285889 17.7217V21.8375C0.285889 22.3707 0.69165 22.815 1.21914 22.8593L2.7153 22.9849C3.36492 23.0395 3.90164 23.4343 4.15114 24.041C4.40063 24.6477 4.29817 25.3093 3.87708 25.8106L2.90732 26.9653C2.56541 27.3725 2.59031 27.9756 2.96459 28.3527L7.78249 33.2067C8.1567 33.5839 8.75544 33.6089 9.15964 33.2643L10.3057 32.2874C10.8034 31.863 11.4601 31.7598 12.0623 32.0113C12.6644 32.2625 13.0564 32.8033 13.1105 33.4577L13.2352 34.9651C13.2791 35.4965 13.7201 35.9053 14.2495 35.9053H21.0631C21.5924 35.9053 22.0334 35.4965 22.0774 34.965L22.202 33.4577C22.2561 32.8033 22.648 32.2625 23.2503 32.0112C23.8525 31.7597 24.5091 31.863 25.0068 32.2872L26.1529 33.2643C26.557 33.6089 27.1557 33.5837 27.53 33.2066L32.3479 28.3527C32.7223 27.9755 32.7471 27.3724 32.4052 26.9652L31.4354 25.8106C31.0143 25.3092 30.912 24.6476 31.1614 24.0409C31.4108 23.4342 31.9476 23.0394 32.5972 22.9849L34.0934 22.8592C34.6209 22.8149 35.0266 22.3707 35.0266 21.8374V17.7217C35.0266 17.1554 34.5709 16.6963 34.0088 16.6963Z" fill="white"/>
<path d="M6.47761 9.35685C6.66984 9.88903 7.25392 10.1634 7.78215 9.96969C8.31039 9.77603 8.58268 9.18759 8.39046 8.65548L7.91806 7.34791L13.3084 9.88014C15.2388 10.787 16.4917 12.6564 16.6183 14.794C15.0624 15.2471 13.9243 16.6918 13.9243 18.4052C13.9243 20.4817 15.5952 22.165 17.6563 22.165C19.7174 22.165 21.3882 20.4817 21.3882 18.4052C21.3882 16.6918 20.2501 15.2471 18.6942 14.794C18.8208 12.6564 20.0737 10.787 22.0041 9.88014L27.3945 7.34791L26.9221 8.65548C26.7298 9.18766 27.0021 9.77603 27.5304 9.96969C28.0586 10.1634 28.6426 9.88903 28.8349 9.35685L30.1477 5.72307C30.3399 5.19089 30.0676 4.60252 29.5394 4.40886L25.9325 3.08625C25.4043 2.89258 24.8202 3.16691 24.628 3.69909C24.4358 4.23126 24.7081 4.81963 25.2363 5.01336L26.5342 5.48928L21.1438 8.02145C20.2078 8.46098 19.3681 9.08417 18.6741 9.85458V4.40613L19.6507 5.39009C20.0482 5.79054 20.6926 5.79054 21.0901 5.39009C21.4876 4.98964 21.4876 4.34043 21.0901 3.93999L18.376 1.20561C17.9785 0.805161 17.3341 0.805161 16.9366 1.20561L14.2225 3.93999C13.825 4.34043 13.825 4.98964 14.2225 5.39009C14.62 5.79054 15.2644 5.79054 15.6619 5.39009L16.6385 4.40613V9.85464C15.9444 9.08424 15.1047 8.46105 14.1687 8.02152L8.77837 5.48921L10.0763 5.0133C10.6045 4.81963 10.8768 4.2312 10.6846 3.69902C10.4923 3.16684 9.90826 2.89251 9.38009 3.08618L5.77316 4.40879C5.24493 4.60246 4.97263 5.19089 5.16486 5.723L6.47761 9.35685Z" fill="white"/>
</g>
<defs>
<clipPath id="clip0_284_82">
<rect width="34.7407" height="35" fill="white" transform="translate(0.285889 0.905273)"/>
</clipPath>
</defs>
</svg>
