<svg width="36" height="35" viewBox="0 0 36 35" fill="none" xmlns="http://www.w3.org/2000/svg">
<g clip-path="url(#clip0_284_71)">
<path d="M32.8563 4.89938C32.8256 4.67855 32.731 4.47151 32.5842 4.30372C32.4373 4.13592 32.2447 4.01469 32.0299 3.95491L17.9628 0.0428408C17.7622 -0.0129782 17.5503 -0.0129782 17.3497 0.0428408L3.28261 3.95491C3.0678 4.01465 2.87513 4.13588 2.7283 4.30368C2.58147 4.47148 2.48689 4.67853 2.45619 4.89938C2.37459 5.48607 0.513265 19.3482 5.28745 26.2442C10.056 33.1319 17.0906 34.897 17.3877 34.9689C17.5642 35.0116 17.7483 35.0116 17.9248 34.9689C18.222 34.897 25.2567 33.1319 30.0251 26.2442C34.7992 19.3484 32.9379 5.48622 32.8563 4.89938ZM26.7277 12.9922L17.1325 22.5874C16.9093 22.8107 16.6165 22.9225 16.3238 22.9225C16.0312 22.9225 15.7383 22.8108 15.5151 22.5874L9.58246 16.6548C9.47621 16.5486 9.39192 16.4225 9.33441 16.2838C9.27691 16.145 9.24731 15.9963 9.24731 15.8461C9.24731 15.6959 9.27691 15.5471 9.33441 15.4083C9.39192 15.2696 9.47621 15.1435 9.58246 15.0373L10.7604 13.8594C10.9749 13.6449 11.2658 13.5244 11.5691 13.5244C11.8725 13.5244 12.1634 13.6449 12.3779 13.8594L16.3238 17.8053L23.9323 10.1967C24.0385 10.0904 24.1646 10.0061 24.3033 9.94861C24.4421 9.8911 24.5908 9.8615 24.741 9.8615C24.8913 9.8615 25.04 9.8911 25.1788 9.94861C25.3175 10.0061 25.4436 10.0904 25.5498 10.1967L26.7277 11.3746C26.834 11.4808 26.9182 11.6069 26.9757 11.7457C27.0332 11.8845 27.0628 12.0332 27.0628 12.1834C27.0628 12.3336 27.0332 12.4824 26.9757 12.6211C26.9182 12.7599 26.834 12.886 26.7277 12.9922Z" fill="white"/>
</g>
<defs>
<clipPath id="clip0_284_71">
<rect width="35" height="35" fill="white" transform="translate(0.15625 0.000976562)"/>
</clipPath>
</defs>
</svg>
