<svg width="37" height="35" viewBox="0 0 37 35" fill="none" xmlns="http://www.w3.org/2000/svg">
<path fill-rule="evenodd" clip-rule="evenodd" d="M23.8078 33.1784H6.81009C5.73061 33.1784 4.69407 32.7555 3.93 32.0044C3.1671 31.2516 2.73843 30.2316 2.73798 29.168V5.83464C2.73798 4.77151 3.1674 3.75068 3.93 2.99818C4.6944 2.24684 5.73012 1.82467 6.81009 1.82422H19.524C20.2111 1.82422 20.87 2.09255 21.3557 2.57234L27.8918 9.00943C28.379 9.48776 28.6514 10.1367 28.6514 10.8134V16.8669C27.6339 16.7197 26.5983 16.7444 25.5892 16.9398C25.1701 17.0205 24.7777 17.202 24.447 17.4681C24.1163 17.7343 23.8576 18.0768 23.6938 18.4653L23.4421 19.0632L22.7891 18.9801C22.3656 18.9252 21.935 18.9744 21.5356 19.1233C21.1361 19.2721 20.7803 19.516 20.4998 19.8332C19.7277 20.7052 19.1348 21.7165 18.754 22.8111C18.6156 23.2088 18.5792 23.6341 18.6479 24.049C18.7166 24.464 18.8883 24.8558 19.1479 25.1896L19.5491 25.7044L19.1479 26.2192C18.8883 26.5531 18.7166 26.9449 18.6479 27.3598C18.5792 27.7748 18.6156 28.2 18.754 28.5978C19.1348 29.6923 19.7277 30.7037 20.4998 31.5757C21.0699 32.2203 21.9287 32.5396 22.7891 32.4288L23.4421 32.3457L23.6938 32.9436C23.7279 33.0238 23.7664 33.1026 23.8078 33.1784ZM9.03125 21.5117H15.6947C15.9892 21.5117 16.2717 21.3965 16.48 21.1914C16.6883 20.9862 16.8053 20.708 16.8053 20.418C16.8053 20.1279 16.6883 19.8497 16.48 19.6446C16.2717 19.4395 15.9892 19.3242 15.6947 19.3242H9.03125C8.7367 19.3242 8.45422 19.4395 8.24595 19.6446C8.03767 19.8497 7.92067 20.1279 7.92067 20.418C7.92067 20.708 8.03767 20.9862 8.24595 21.1914C8.45422 21.3965 8.7367 21.5117 9.03125 21.5117ZM19.3966 4.3763V9.48047C19.3966 9.86724 19.5526 10.2382 19.8303 10.5117C20.108 10.7852 20.4847 10.9388 20.8774 10.9388H26.0601L19.3966 4.3763ZM9.03125 16.4076H20.8774C21.1719 16.4076 21.4544 16.2923 21.6627 16.0872C21.871 15.8821 21.988 15.6039 21.988 15.3138C21.988 15.0237 21.871 14.7455 21.6627 14.5404C21.4544 14.3353 21.1719 14.2201 20.8774 14.2201H9.03125C8.7367 14.2201 8.45422 14.3353 8.24595 14.5404C8.03767 14.7455 7.92067 15.0237 7.92067 15.3138C7.92067 15.6039 8.03767 15.8821 8.24595 16.0872C8.45422 16.2923 8.7367 16.4076 9.03125 16.4076ZM9.03125 26.6159H15.6947C15.9892 26.6159 16.2717 26.5007 16.48 26.2955C16.6883 26.0904 16.8053 25.8122 16.8053 25.5221C16.8053 25.2321 16.6883 24.9539 16.48 24.7487C16.2717 24.5436 15.9892 24.4284 15.6947 24.4284H9.03125C8.7367 24.4284 8.45422 24.5436 8.24595 24.7487C8.03767 24.9539 7.92067 25.2321 7.92067 25.5221C7.92067 25.8122 8.03767 26.0904 8.24595 26.2955C8.45422 26.5007 8.7367 26.6159 9.03125 26.6159Z" fill="white"/>
<path fill-rule="evenodd" clip-rule="evenodd" d="M29.608 19.0238L30.1322 20.2707C30.3321 20.3698 30.5261 20.4807 30.7142 20.6003L32.0735 20.4253C32.2549 20.4023 32.4392 20.4237 32.6101 20.4876C32.7811 20.5514 32.9335 20.6557 33.0538 20.7913C33.6994 21.5205 34.1955 22.3678 34.5153 23.2836C34.5744 23.4542 34.5898 23.6365 34.5601 23.8143C34.5304 23.9922 34.4565 24.16 34.345 24.303L33.5128 25.3734C33.5247 25.5936 33.5247 25.8153 33.5128 26.034L34.345 27.1059C34.4565 27.2488 34.5304 27.4167 34.5601 27.5945C34.5898 27.7724 34.5744 27.9547 34.5153 28.1253C34.1959 29.0411 33.6996 29.8874 33.0538 30.6175C32.9335 30.7531 32.7811 30.8574 32.6101 30.9213C32.4392 30.9851 32.2549 31.0065 32.0735 30.9836C32.0735 30.9836 30.7142 30.8086 30.7157 30.8071C30.5279 30.9278 30.3337 31.0383 30.1337 31.1382L29.608 32.385C29.5381 32.5515 29.4273 32.6982 29.2857 32.8122C29.1441 32.9262 28.9761 33.0039 28.7966 33.0384C27.8314 33.225 26.8387 33.225 25.8735 33.0384C25.694 33.0039 25.526 32.9262 25.3844 32.8122C25.2428 32.6982 25.1321 32.5515 25.0621 32.385L24.5379 31.1382C24.3379 31.0389 24.1436 30.9289 23.9559 30.8086L22.5966 30.9836C22.4152 31.0067 22.2309 30.9853 22.0599 30.9215C21.8889 30.8576 21.7366 30.7532 21.6163 30.6175C20.9695 29.8881 20.4731 29.0416 20.1548 28.1253C20.0958 27.9548 20.0803 27.7726 20.1097 27.5948C20.1392 27.417 20.2126 27.2491 20.3236 27.1059L21.1573 26.0355C21.1454 25.8154 21.1454 25.5949 21.1573 25.3748L20.3236 24.303C20.2126 24.1598 20.1392 23.9919 20.1097 23.8141C20.0803 23.6363 20.0958 23.4541 20.1548 23.2836C20.4732 22.3678 20.9692 21.5205 21.6163 20.7913C21.7366 20.6556 21.8889 20.5512 22.0599 20.4874C22.2309 20.4235 22.4152 20.4022 22.5966 20.4253C22.5966 20.4253 23.9559 20.6003 23.9545 20.6017C24.1425 20.4807 24.3365 20.3698 24.5364 20.2707L25.0621 19.0238C25.1321 18.8574 25.2428 18.7106 25.3844 18.5966C25.526 18.4826 25.694 18.4049 25.8735 18.3705C26.8387 18.1838 27.8314 18.1838 28.7966 18.3705C28.9761 18.4049 29.1441 18.4826 29.2857 18.5966C29.4273 18.7106 29.5381 18.8574 29.608 19.0238ZM27.3351 23.5169C27.0433 23.517 26.7544 23.5737 26.4848 23.6838C26.2153 23.7938 25.9704 23.9551 25.7642 24.1584C25.5579 24.3616 25.3943 24.6029 25.2828 24.8684C25.1712 25.134 25.1138 25.4185 25.1139 25.7059C25.114 25.9932 25.1716 26.2778 25.2833 26.5432C25.3951 26.8087 25.5588 27.0498 25.7652 27.253C25.9716 27.4561 26.2166 27.6172 26.4862 27.7271C26.7558 27.837 27.0448 27.8935 27.3365 27.8934C27.9258 27.8932 28.4909 27.6625 28.9074 27.2519C29.324 26.8414 29.5579 26.2848 29.5577 25.7044C29.5575 25.1241 29.3232 24.5676 28.9064 24.1573C28.4896 23.7471 27.9243 23.5167 27.3351 23.5169Z" fill="white"/>
</svg>
