<svg width="70" height="70" viewBox="0 0 70 70" fill="none" xmlns="http://www.w3.org/2000/svg">
<path d="M0 35C0 15.67 15.67 0 35 0C54.33 0 70 15.67 70 35C70 54.33 54.33 70 35 70C15.67 70 0 54.33 0 35Z" fill="url(#paint0_linear_284_11)"/>
<path d="M35.0673 38.114C37.6469 38.114 39.7381 36.0229 39.7381 33.4433C39.7381 30.8636 37.6469 28.7725 35.0673 28.7725C32.4877 28.7725 30.3965 30.8636 30.3965 33.4433C30.3965 36.0229 32.4877 38.114 35.0673 38.114Z" fill="white"/>
<path d="M27.8057 43.591C27.0514 44.7683 26.6508 46.1374 26.6515 47.5357V52H43.4832V47.5357C43.4832 46.1349 43.0841 44.7709 42.3289 43.5909C40.9771 41.4787 38.6729 40.2178 36.1652 40.2178H33.9694C31.4617 40.2178 29.1575 41.4787 27.8057 43.591Z" fill="white"/>
<path d="M50.1485 36.1904V30.1066L46.4709 29.231C46.3046 28.7447 46.1075 28.2695 45.8807 27.8084L47.8625 24.5879L43.5606 20.2859L40.3401 22.2678C39.8789 22.041 39.4038 21.8439 38.9175 21.6777L38.0419 18H31.9582L31.0825 21.6777C30.5963 21.8439 30.1211 22.041 29.6599 22.2678L26.4394 20.2859L22.1374 24.5879L24.1193 27.8084C23.8925 28.2695 23.6954 28.7447 23.5291 29.231L19.8515 30.1066V36.1903L23.5292 37.066C23.6954 37.5523 23.8925 38.0275 24.1193 38.4887L22.1282 41.7243L25.111 44.5814C25.3551 43.85 25.6888 43.1516 26.1045 42.5022C27.2629 40.6923 28.9698 39.3732 30.9348 38.7013C29.3781 37.4752 28.3768 35.5739 28.3768 33.4431C28.3768 29.7539 31.3782 26.7525 35.0674 26.7525C38.7566 26.7525 41.758 29.7539 41.758 33.4431C41.758 35.5739 40.7567 37.4752 39.2 38.7013C41.1651 39.3732 42.8719 40.6923 44.0302 42.5022C44.4643 43.1806 44.8087 43.9123 45.0549 44.6792L45.0548 44.6788L47.848 41.6854L45.8808 38.4888C46.1076 38.0276 46.3048 37.5524 46.471 37.0661L50.1485 36.1904Z" fill="white"/>
<defs>
<linearGradient id="paint0_linear_284_11" x1="35" y1="0" x2="35" y2="70" gradientUnits="userSpaceOnUse">
<stop stop-color="#333333"/>
<stop offset="1" stop-color="#141414"/>
</linearGradient>
</defs>
</svg>
