<svg width="71" height="71" viewBox="0 0 71 71" fill="none" xmlns="http://www.w3.org/2000/svg">
<path d="M0.844543 35.1719C0.844543 15.8419 16.5146 0.171875 35.8445 0.171875C55.1745 0.171875 70.8445 15.8419 70.8445 35.1719C70.8445 54.5018 55.1745 70.1719 35.8445 70.1719C16.5146 70.1719 0.844543 54.5018 0.844543 35.1719Z" fill="url(#paint0_linear_284_18)"/>
<path d="M49.9389 23.3781C49.9095 23.1636 49.819 22.9624 49.6787 22.7994C49.5383 22.6364 49.3541 22.5187 49.1488 22.4606L35.7005 18.6603C35.5088 18.6061 35.3061 18.6061 35.1144 18.6603L21.6661 22.4606C21.4607 22.5186 21.2765 22.6364 21.1362 22.7994C20.9958 22.9624 20.9054 23.1635 20.876 23.3781C20.798 23.948 19.0186 37.4141 23.5827 44.1131C28.1415 50.8041 34.8667 52.5187 35.1507 52.5885C35.3194 52.63 35.4955 52.63 35.6642 52.5885C35.9483 52.5187 42.6735 50.8041 47.2321 44.1131C51.7963 37.4143 50.0169 23.9482 49.9389 23.3781ZM44.0799 31.2397L34.9068 40.5608C34.6933 40.7777 34.4134 40.8863 34.1336 40.8863C33.8538 40.8863 33.5739 40.7778 33.3604 40.5608L27.6888 34.7977C27.5872 34.6945 27.5066 34.572 27.4517 34.4372C27.3967 34.3024 27.3684 34.1579 27.3684 34.012C27.3684 33.8661 27.3967 33.7216 27.4517 33.5868C27.5066 33.452 27.5872 33.3295 27.6888 33.2264L28.8149 32.0821C29.02 31.8738 29.2981 31.7567 29.5881 31.7567C29.8781 31.7567 30.1562 31.8738 30.3613 32.0821L34.1336 35.9153L41.4074 28.524C41.5089 28.4208 41.6294 28.3389 41.7621 28.2831C41.8948 28.2272 42.037 28.1984 42.1806 28.1984C42.3242 28.1984 42.4664 28.2272 42.599 28.2831C42.7317 28.3389 42.8522 28.4208 42.9537 28.524L44.0799 29.6683C44.1814 29.7715 44.262 29.894 44.3169 30.0288C44.3719 30.1636 44.4002 30.3081 44.4002 30.454C44.4002 30.5999 44.3719 30.7444 44.3169 30.8792C44.262 31.0141 44.1814 31.1365 44.0799 31.2397Z" fill="white"/>
<defs>
<linearGradient id="paint0_linear_284_18" x1="35.8445" y1="0.171875" x2="35.8445" y2="70.1719" gradientUnits="userSpaceOnUse">
<stop stop-color="#333333"/>
<stop offset="1" stop-color="#141414"/>
</linearGradient>
</defs>
</svg>
