<svg width="70" height="70" viewBox="0 0 70 70" fill="none" xmlns="http://www.w3.org/2000/svg">
<path d="M0 35C0 15.67 15.67 0 35 0C54.33 0 70 15.67 70 35C70 54.33 54.33 70 35 70C15.67 70 0 54.33 0 35Z" fill="url(#paint0_linear_284_48)"/>
<path fill-rule="evenodd" clip-rule="evenodd" d="M27.4082 37.0075C25.5141 37.6893 23.6637 38.1107 21.8326 38.319C21.8122 38.2408 21.7926 38.1625 21.7737 38.0839L19.3144 37.1374V33.1209L21.7737 32.1744C22.0892 30.8598 22.6069 29.6099 23.3148 28.4612L22.2429 26.0504L25.0824 23.2109L27.4931 24.2828C28.6397 23.576 29.8919 23.0571 31.2023 22.7458L32.1529 20.2825H36.1694L37.1159 22.7458C38.4263 23.0571 39.6785 23.576 40.8251 24.2828L41.3534 24.0479C41.3729 24.0625 41.3929 24.0767 41.4134 24.0904L42.6968 24.9502C41.6111 26.5378 40.1915 28.1864 38.6226 29.7246C37.4101 28.723 35.8549 28.1214 34.1591 28.1214C30.2881 28.1214 27.1534 31.2562 27.1534 35.1271C27.1534 35.7785 27.2421 36.4091 27.4082 37.0075ZM41.1008 36.1076C43.0951 34.7284 44.8553 33.1593 46.3549 31.4659C46.4249 31.7002 46.4882 31.9365 46.5445 32.1744L49.0038 33.1209V37.1374L46.5445 38.0839C46.2331 39.3945 45.7113 40.6443 45.0075 41.7931L46.0753 44.2038L43.2358 47.0433L40.8251 45.9755C39.6803 46.6833 38.4265 47.2011 37.1159 47.5125L36.1694 49.9718H32.1529L31.2063 47.5125C29.8917 47.2011 28.6419 46.6793 27.4931 45.9755L25.0824 47.0433L22.2429 44.2038L23.3148 41.7931C23.2274 41.6518 23.1429 41.5089 23.0613 41.3642C25.3316 41.5191 27.713 41.3543 30.1191 40.8551C31.2605 41.6625 32.6542 42.1369 34.1591 42.1369C37.6973 42.1369 40.6238 39.5145 41.1008 36.1076ZM48.1296 27.3105C45.8589 30.9779 42.424 34.3099 38.0623 36.7442C32.1259 40.0545 25.6779 41.0329 20.2335 39.9065C20.1865 39.8957 20.145 39.8682 20.1168 39.8291C20.0887 39.7899 20.0757 39.7419 20.0803 39.6939C20.0849 39.6459 20.1068 39.6012 20.1419 39.5682C20.177 39.5351 20.2229 39.516 20.2711 39.5143C24.1533 39.3289 28.0902 38.2795 32.2959 35.9336C36.6075 33.5283 41.6293 28.7759 44.1639 24.6491L42.0071 23.2043C41.9559 23.1699 41.9153 23.1221 41.8897 23.0661C41.8641 23.0101 41.8545 22.9481 41.8619 22.887C41.8694 22.8258 41.8936 22.7679 41.932 22.7197C41.9703 22.6715 42.0212 22.6349 42.0791 22.6139L49.1347 20.0597C49.2107 20.0321 49.292 20.0223 49.3725 20.0308C49.4529 20.0393 49.5303 20.0661 49.5989 20.1089C49.6675 20.1518 49.7254 20.2097 49.7683 20.2783C49.8112 20.3468 49.838 20.4243 49.8465 20.5047L50.6837 28.3645C50.6904 28.4276 50.679 28.4913 50.6508 28.5481C50.6226 28.6049 50.5788 28.6525 50.5245 28.6852C50.4702 28.718 50.4077 28.7346 50.3443 28.7331C50.2809 28.7316 50.2193 28.712 50.1666 28.6767L48.1296 27.3105Z" fill="white"/>
<defs>
<linearGradient id="paint0_linear_284_48" x1="35" y1="0" x2="35" y2="70" gradientUnits="userSpaceOnUse">
<stop stop-color="#333333"/>
<stop offset="1" stop-color="#141414"/>
</linearGradient>
</defs>
</svg>
