<svg width="1295" height="315" viewBox="0 0 1295 315" fill="none" xmlns="http://www.w3.org/2000/svg">
<g filter="url(#filter0_f_58_362)">
<path d="M14.5424 295.002C83.0693 300.393 236.489 306.631 339.125 247.599C399.685 215.822 555.29 161.803 693.222 199.934C755.245 216.482 906.283 230.32 1014.25 153.292C1059.41 103.816 1175.77 7.36776 1279.91 17.3837" stroke="url(#paint0_linear_58_362)" stroke-width="5"/>
</g>
<path d="M14.5424 295.002C83.0693 300.393 236.489 306.631 339.125 247.599C399.685 215.822 555.29 161.803 693.222 199.934C755.245 216.482 906.283 230.32 1014.25 153.292C1059.41 103.816 1175.77 7.36776 1279.91 17.3837" stroke="url(#paint1_linear_58_362)" stroke-width="5"/>
<defs>
<filter id="filter0_f_58_362" x="0.346329" y="0.160156" width="1293.81" height="314.637" filterUnits="userSpaceOnUse" color-interpolation-filters="sRGB">
<feFlood flood-opacity="0" result="BackgroundImageFix"/>
<feBlend mode="normal" in="SourceGraphic" in2="BackgroundImageFix" result="shape"/>
<feGaussianBlur stdDeviation="7" result="effect1_foregroundBlur_58_362"/>
</filter>
<linearGradient id="paint0_linear_58_362" x1="14.5424" y1="287.465" x2="1262.73" y2="-136.242" gradientUnits="userSpaceOnUse">
<stop offset="0.674933" stop-color="#F48120"/>
<stop offset="1"/>
</linearGradient>
<linearGradient id="paint1_linear_58_362" x1="14.5424" y1="287.465" x2="1262.73" y2="-136.242" gradientUnits="userSpaceOnUse">
<stop offset="0.674933" stop-color="#F48120"/>
<stop offset="1"/>
</linearGradient>
</defs>
</svg>
