<svg width="70" height="70" viewBox="0 0 70 70" fill="none" xmlns="http://www.w3.org/2000/svg">
<path d="M0 35C0 15.67 15.67 0 35 0C54.33 0 70 15.67 70 35C70 54.33 54.33 70 35 70C15.67 70 0 54.33 0 35Z" fill="url(#paint0_linear_284_30)"/>
<path d="M30.007 40.0575C29.1556 40.7185 28.467 41.5635 27.9936 42.5281C27.5202 43.4928 27.2743 44.5519 27.2746 45.625V47.75H22.994C21.8097 47.75 20.8537 46.8008 20.8537 45.625V44.2083C20.8537 41.4671 23.0868 39.25 25.8477 39.25H27.2746C28.2877 39.25 29.2223 39.5475 30.007 40.0575Z" fill="white"/>
<path d="M43.6835 39.25C45.4565 39.25 46.8939 37.8229 46.8939 36.0625C46.8939 34.3021 45.4565 32.875 43.6835 32.875C41.9104 32.875 40.473 34.3021 40.473 36.0625C40.473 37.8229 41.9104 39.25 43.6835 39.25Z" fill="white"/>
<path d="M26.5612 39.25C28.3342 39.25 29.7716 37.8229 29.7716 36.0625C29.7716 34.3021 28.3342 32.875 26.5612 32.875C24.7881 32.875 23.3507 34.3021 23.3507 36.0625C23.3507 37.8229 24.7881 39.25 26.5612 39.25Z" fill="white"/>
<path d="M49.3909 44.2083V45.625C49.3909 46.8008 48.4349 47.75 47.2506 47.75H42.97V45.625C42.97 43.3654 41.8999 41.3537 40.2376 40.0575C41.0224 39.5475 41.957 39.25 42.97 39.25H44.3969C47.1579 39.25 49.3909 41.4671 49.3909 44.2083Z" fill="white"/>
<path d="M35.1223 39.9582C37.2894 39.9582 39.0462 38.2139 39.0462 36.0623C39.0462 33.9107 37.2894 32.1665 35.1223 32.1665C32.9552 32.1665 31.1985 33.9107 31.1985 36.0623C31.1985 38.2139 32.9552 39.9582 35.1223 39.9582Z" fill="white"/>
<path d="M35.8358 39.9582H34.4089C31.262 39.9582 28.7015 42.5004 28.7015 45.6249V47.7499C28.7015 48.9215 29.6618 49.8749 30.8418 49.8749H39.4029C40.583 49.8749 41.5432 48.9215 41.5432 47.7499V45.6249C41.5432 42.5004 38.9827 39.9582 35.8358 39.9582ZM45.4671 29.8177L43.7456 30.4255C43.6327 30.4653 43.5116 30.4773 43.393 30.4603C43.2744 30.4433 43.1617 30.3978 43.0647 30.3278C42.9678 30.2579 42.8895 30.1655 42.8365 30.0587C42.7836 29.9519 42.7577 29.834 42.7611 29.715L42.811 27.9017L41.6966 26.4638C41.6236 26.3694 41.5748 26.2588 41.5545 26.1416C41.5341 26.0243 41.5428 25.9039 41.5799 25.7907C41.6169 25.6775 41.6811 25.575 41.7669 25.492C41.8528 25.4089 41.9577 25.3479 42.0726 25.3141L43.8255 24.8013L44.8585 23.3046C44.9263 23.2064 45.0171 23.1261 45.1231 23.0706C45.2292 23.0151 45.3472 22.9861 45.4671 22.9861C45.587 22.9861 45.705 23.0151 45.811 23.0706C45.9171 23.1261 46.0079 23.2064 46.0756 23.3046L47.1087 24.8013L48.8616 25.3141C49.3588 25.4593 49.5536 26.0558 49.2376 26.4638L48.1232 27.9017L48.1731 29.715C48.1763 29.8339 48.1503 29.9518 48.0973 30.0585C48.0443 30.1652 47.966 30.2575 47.8691 30.3274C47.7722 30.3973 47.6596 30.4428 47.5411 30.4599C47.4225 30.477 47.3015 30.4652 47.1886 30.4255L45.4671 29.8177ZM24.7776 29.8177L23.0561 30.4255C22.9432 30.4653 22.8222 30.4773 22.7036 30.4603C22.5849 30.4433 22.4723 30.3978 22.3753 30.3278C22.2783 30.2579 22.2 30.1655 22.1471 30.0587C22.0942 29.9519 22.0683 29.834 22.0716 29.715L22.1215 27.9017L21.0072 26.4638C20.9342 26.3694 20.8854 26.2588 20.865 26.1416C20.8447 26.0243 20.8534 25.9039 20.8904 25.7907C20.9274 25.6775 20.9916 25.575 21.0775 25.492C21.1633 25.4089 21.2682 25.3479 21.3831 25.3141L23.136 24.8013L24.1691 23.3046C24.2368 23.2064 24.3277 23.1261 24.4337 23.0706C24.5397 23.0151 24.6578 22.9861 24.7776 22.9861C24.8975 22.9861 25.0156 23.0151 25.1216 23.0706C25.2276 23.1261 25.3184 23.2064 25.3862 23.3046L26.4192 24.8013L28.1721 25.3141C28.6694 25.4593 28.8642 26.0558 28.5481 26.4638L27.4337 27.9017L27.4837 29.715C27.4868 29.8339 27.4608 29.9518 27.4078 30.0585C27.3549 30.1652 27.2766 30.2575 27.1797 30.3274C27.0828 30.3973 26.9702 30.4428 26.8516 30.4599C26.733 30.477 26.6121 30.4652 26.4991 30.4255L24.7776 29.8177ZM35.1224 28.224L33.0812 28.9443C32.9474 28.9916 32.8039 29.0057 32.6633 28.9855C32.5227 28.9654 32.3891 28.9115 32.2742 28.8285C32.1593 28.7456 32.0664 28.6361 32.0037 28.5096C31.9409 28.383 31.9102 28.2432 31.9141 28.1021L31.9733 25.9523L30.652 24.2474C30.5655 24.1355 30.5077 24.0044 30.4836 23.8654C30.4595 23.7264 30.4698 23.5836 30.5137 23.4495C30.5576 23.3153 30.6337 23.1938 30.7355 23.0953C30.8373 22.9969 30.9617 22.9246 31.0979 22.8846L33.1761 22.2761L34.4011 20.5017C34.4814 20.3853 34.5891 20.29 34.7148 20.2242C34.8406 20.1584 34.9806 20.124 35.1227 20.124C35.2649 20.124 35.4049 20.1584 35.5306 20.2242C35.6563 20.29 35.764 20.3853 35.8444 20.5017L37.0693 22.2761L39.1475 22.8846C39.2838 22.9246 39.4082 22.9969 39.5099 23.0953C39.6117 23.1938 39.6879 23.3153 39.7317 23.4495C39.7756 23.5836 39.786 23.7264 39.7619 23.8654C39.7378 24.0044 39.68 24.1355 39.5934 24.2474L38.2722 25.9523L38.3314 28.1021C38.3353 28.2432 38.3045 28.383 38.2418 28.5096C38.179 28.6361 38.0862 28.7456 37.9713 28.8285C37.8563 28.9115 37.7228 28.9654 37.5822 28.9855C37.4415 29.0057 37.2981 28.9916 37.1642 28.9443L35.1224 28.224Z" fill="white"/>
<defs>
<linearGradient id="paint0_linear_284_30" x1="35" y1="0" x2="35" y2="70" gradientUnits="userSpaceOnUse">
<stop stop-color="#333333"/>
<stop offset="1" stop-color="#141414"/>
</linearGradient>
</defs>
</svg>
