<svg width="30" height="31" viewBox="0 0 30 31" fill="none" xmlns="http://www.w3.org/2000/svg">
<g clip-path="url(#clip0_1_644)">
<path d="M15 0.75C6.72895 0.75 0 7.47895 0 15.75C0 24.0211 6.72895 30.7498 15 30.7498C23.2711 30.7498 30 24.0209 30 15.75C30 7.4791 23.2709 0.75 15 0.75ZM22.5686 14.071L19.6049 16.96L20.3046 21.0394C20.3402 21.2474 20.3168 21.4611 20.2373 21.6565C20.1577 21.8519 20.0251 22.0212 19.8544 22.1452C19.6837 22.2692 19.4818 22.3431 19.2713 22.3583C19.0609 22.3736 18.8504 22.3297 18.6636 22.2316L15.0002 20.3056L11.3366 22.2318C11.1498 22.3301 10.9392 22.3742 10.7287 22.359C10.5181 22.3439 10.316 22.2701 10.1453 22.146C9.97451 22.0219 9.84188 21.8525 9.76239 21.657C9.68291 21.4615 9.65975 21.2476 9.69553 21.0395L10.3953 16.9602L7.43123 14.071C7.28014 13.9236 7.17327 13.737 7.12273 13.5321C7.07218 13.3272 7.07996 13.1123 7.1452 12.9116C7.21043 12.7109 7.33052 12.5324 7.49188 12.3964C7.65323 12.2604 7.84943 12.1722 8.05827 12.1419L12.1541 11.5467L13.9857 7.83514C14.0791 7.6459 14.2236 7.48657 14.4029 7.37517C14.5821 7.26376 14.789 7.20472 15 7.20472C15.211 7.20472 15.4179 7.26376 15.5971 7.37517C15.7764 7.48657 15.9209 7.6459 16.0143 7.83514L17.8459 11.5467L21.9417 12.1419C22.1506 12.1723 22.3467 12.2604 22.5081 12.3965C22.6694 12.5325 22.7895 12.7109 22.8547 12.9116C22.9199 13.1123 22.9277 13.3272 22.8771 13.5321C22.8266 13.737 22.7197 13.9237 22.5686 14.071Z" fill="#F48120"/>
</g>
<defs>
<clipPath id="clip0_1_644">
<rect width="30" height="30" fill="white" transform="translate(0 0.75)"/>
</clipPath>
</defs>
</svg>
