<svg width="60" height="59" viewBox="0 0 60 59" fill="none" xmlns="http://www.w3.org/2000/svg">
<circle cx="29.9777" cy="29.3667" r="29.073" fill="white" stroke="#BFBFBF" stroke-width="0.587334"/>
<path d="M31.4028 17.7272L18.8976 28.5781C18.7844 28.6762 18.6937 28.7975 18.6315 28.9337C18.5693 29.0699 18.5371 29.2179 18.5371 29.3677C18.5371 29.5174 18.5693 29.6654 18.6315 29.8017C18.6937 29.9379 18.7844 30.0591 18.8976 30.1572L31.4028 41.0049C31.4405 41.0377 31.4868 41.0589 31.5363 41.0661C31.5857 41.0733 31.6362 41.0662 31.6816 41.0455C31.7271 41.0248 31.7657 40.9915 31.7928 40.9495C31.8198 40.9076 31.8343 40.8587 31.8344 40.8087V38.1606C31.8344 38.0102 31.769 37.8663 31.6546 37.765L23.406 30.6084H41.8157C41.9595 30.6084 42.0772 30.4907 42.0772 30.3469V28.3852C42.0772 28.2414 41.9595 28.1237 41.8157 28.1237H23.406L31.6546 20.9671C31.769 20.869 31.8344 20.7252 31.8344 20.5715V17.9234C31.8344 17.701 31.5728 17.5801 31.4028 17.7272Z" fill="#F48120"/>
</svg>
