<svg width="60" height="59" viewBox="0 0 60 59" fill="none" xmlns="http://www.w3.org/2000/svg">
<circle cx="29.3667" cy="29.3667" r="29.073" transform="matrix(-1 0 0 1 59.0778 0)" fill="white" stroke="#BFBFBF" stroke-width="0.587334"/>
<path d="M28.9458 17.7272L41.451 28.5781C41.5642 28.6762 41.6549 28.7975 41.7171 28.9337C41.7793 29.0699 41.8115 29.2179 41.8115 29.3677C41.8115 29.5174 41.7793 29.6654 41.7171 29.8017C41.6549 29.9379 41.5642 30.0591 41.451 30.1572L28.9458 41.0049C28.9081 41.0377 28.8618 41.0589 28.8124 41.0661C28.7629 41.0733 28.7125 41.0662 28.667 41.0455C28.6215 41.0248 28.583 40.9915 28.5559 40.9495C28.5288 40.9076 28.5143 40.8587 28.5143 40.8087V38.1606C28.5143 38.0102 28.5796 37.8663 28.6941 37.765L36.9426 30.6084H18.533C18.3891 30.6084 18.2714 30.4907 18.2714 30.3469V28.3852C18.2714 28.2414 18.3891 28.1237 18.533 28.1237H36.9426L28.6941 20.9671C28.5796 20.869 28.5143 20.7252 28.5143 20.5715V17.9234C28.5143 17.701 28.7758 17.5801 28.9458 17.7272Z" fill="black"/>
</svg>
