<svg width="57" height="58" viewBox="0 0 57 58" fill="none" xmlns="http://www.w3.org/2000/svg">
<path fill-rule="evenodd" clip-rule="evenodd" d="M20.8682 34.1694C21.6154 32.8471 23.0322 31.9161 24.722 31.3828C26.8209 33.2385 29.943 33.2385 32.042 31.3828C33.7318 31.9162 35.1486 32.8471 35.8958 34.1725C32.3117 39.6068 24.4523 39.6068 20.8682 34.1694ZM52.1233 15.0991L50.0614 17.8099L51.5249 20.8963L48.3563 19.735L45.9225 22.1082L46.0279 18.6811L43.0577 17.059L46.2946 16.1028L46.893 12.7294L48.7872 15.5632L52.1233 15.0993V15.0991ZM42.0904 4.88386L41.6346 8.28259L44.4188 10.2108L41.1045 10.8199L40.1619 14.1113L38.5683 11.0913L35.2013 11.1954L37.5327 8.72123L36.3949 5.49605L39.4271 6.98551L42.0904 4.88386ZM4.64073 15.0991L7.97984 15.563L9.87411 12.7291L10.4725 16.1026L13.7062 17.0588L10.7392 18.6809L10.8415 22.108L8.41078 19.7348L5.23902 20.8961L6.70552 17.8097L4.64062 15.0989L4.64073 15.0991ZM14.6767 4.88386L17.3368 6.98562L20.372 5.49616L19.231 8.72134L21.5625 11.1955L18.1955 11.0914L16.6019 14.1114L15.6625 10.82L12.345 10.2109L15.1322 8.2827L14.6764 4.88397L14.6767 4.88386ZM28.3835 1.14746L29.6577 4.32221L33.0155 4.5747L30.4453 6.7869L31.2451 10.1194L28.3834 8.3112L25.5187 10.1194L26.3216 6.7869L23.7483 4.5747L27.1092 4.32221L28.3834 1.14746H28.3835ZM28.3835 22.7423C30.743 22.7423 32.6528 24.6895 32.6528 27.091C32.6528 29.4926 30.743 31.4396 28.3835 31.4396C26.0241 31.4396 24.1111 29.4925 24.1111 27.091C24.1111 24.6896 26.0241 22.7423 28.3835 22.7423ZM25.8164 13.5244C27.3542 12.4261 29.4129 12.4261 30.9506 13.5244C31.8094 14.1398 32.7395 14.3922 33.7844 14.2975C35.6571 14.1303 37.4397 15.178 38.2334 16.9105C38.6768 17.8825 39.3557 18.5737 40.3076 19.0249C42.0127 19.8328 43.0421 21.6442 42.8747 23.5502C42.7848 24.6169 43.0329 25.5605 43.6343 26.4378C44.7133 28.003 44.7133 30.0985 43.6343 31.6637C43.0329 32.5379 42.7848 33.4846 42.8747 34.5512C43.0422 36.4542 42.0129 38.2687 40.3076 39.0766C39.3557 39.5278 38.6768 40.219 38.2334 41.1879C37.4397 42.9236 35.657 43.9713 33.7844 43.804C32.7395 43.7093 31.8094 43.9617 30.9506 44.5771C29.4128 45.6754 27.3541 45.6754 25.8164 44.5771C24.9545 43.9618 24.0275 43.7093 22.9795 43.804C21.1068 43.9712 19.3242 42.9235 18.5335 41.1879C18.0901 40.2191 17.4081 39.5279 16.4563 39.0766C14.7542 38.2687 13.7249 36.4542 13.8892 34.5512C13.9821 33.4846 13.7342 32.5379 13.1295 31.6637C12.0506 30.0985 12.0506 28.003 13.1295 26.4378C13.7341 25.5605 13.9821 24.6169 13.8892 23.5502C13.7249 21.6442 14.7542 19.8328 16.4563 19.0249C17.4081 18.5737 18.0901 17.8825 18.5335 16.9105C19.3242 15.178 21.1068 14.1303 22.9795 14.2975C24.0275 14.3923 24.9545 14.1398 25.8164 13.5244ZM28.3835 18.5105C34.1007 18.5105 38.7358 23.2315 38.7358 29.0507C38.7358 34.87 34.1007 39.5878 28.3835 39.5878C22.6664 39.5878 18.0282 34.87 18.0282 29.0507C18.0282 23.2315 22.6633 18.5105 28.3835 18.5105ZM17.095 41.3045L13.945 53.2712L20 50.0397L23.6585 55.922L26.1915 46.2969C25.7933 46.1316 25.4147 45.9209 25.063 45.6689C24.4584 45.2365 23.829 45.0662 23.0943 45.1324C20.6728 45.3502 18.3661 43.9932 17.343 41.7526C17.2686 41.5916 17.1881 41.4402 17.095 41.3045ZM39.6691 41.3045L42.8191 53.2712L36.7641 50.0397L33.1056 55.922L30.5726 46.2969C30.9694 46.1328 31.3476 45.9214 31.7042 45.6689C32.3088 45.2365 32.9351 45.0662 33.6698 45.1324C36.0913 45.3502 38.398 43.9932 39.4211 41.7526C39.4924 41.597 39.5752 41.4472 39.6691 41.3045Z" fill="#1E5CF1"/>
</svg>
