<svg width="20" height="20" viewBox="0 0 20 20" fill="none" xmlns="http://www.w3.org/2000/svg">
<g clip-path="url(#clip0_156_92)">
<path d="M10 0C4.48582 0 0 4.48582 0 10C0 15.5142 4.48582 20 10 20C15.5142 20 20 15.5142 20 10C20 4.48582 15.5142 0 10 0ZM13.7627 10.7075L8.87355 15.5967C8.67824 15.7915 8.42238 15.8891 8.16652 15.8891C7.91066 15.8891 7.6548 15.7915 7.45949 15.5967C7.06887 15.2061 7.06887 14.5728 7.45949 14.1821L11.6416 10L7.45949 5.81836C7.06887 5.42773 7.06887 4.79441 7.45949 4.40379C7.85012 4.01363 8.48293 4.01363 8.87355 4.40379L13.7627 9.29297C13.8556 9.38584 13.9293 9.49611 13.9796 9.61747C14.0298 9.73882 14.0557 9.8689 14.0557 10.0003C14.0557 10.1316 14.0298 10.2617 13.9796 10.383C13.9293 10.5044 13.8556 10.6147 13.7627 10.7075Z" fill="black"/>
</g>
<defs>
<clipPath id="clip0_156_92">
<rect width="20" height="20" fill="white"/>
</clipPath>
</defs>
</svg>
